<?xml version="1.0" encoding="utf-8"?>
<svg xmlns="http://www.w3.org/2000/svg" xmlns:xlink="http://www.w3.org/1999/xlink" width="600" height="400" viewBox="0 0 2400 1600">
<defs>
  <clipPath id="clip480">
    <rect x="0" y="0" width="2400" height="1600"/>
  </clipPath>
</defs>
<path clip-path="url(#clip480)" d="
M0 1600 L2400 1600 L2400 0 L0 0  Z
  " fill="#ffffff" fill-rule="evenodd" fill-opacity="1"/>
<defs>
  <clipPath id="clip481">
    <rect x="480" y="0" width="1681" height="1600"/>
  </clipPath>
</defs>
<defs>
  <clipPath id="clip482">
    <rect x="140" y="123" width="2213" height="1301"/>
  </clipPath>
</defs>
<path clip-path="url(#clip480)" d="
M140.696 1423.18 L2352.76 1423.18 L2352.76 142.953 L140.696 142.953  Z
  " fill="#ffffff" fill-rule="evenodd" fill-opacity="1"/>
<defs>
  <clipPath id="clip483">
    <rect x="140" y="142" width="2213" height="1281"/>
  </clipPath>
</defs>
<polyline clip-path="url(#clip483)" style="stroke:#000000; stroke-width:2; stroke-opacity:0.1; fill:none" points="
  203.301,1423.18 203.301,142.953 
  "/>
<polyline clip-path="url(#clip483)" style="stroke:#000000; stroke-width:2; stroke-opacity:0.1; fill:none" points="
  621.6,1423.18 621.6,142.953 
  "/>
<polyline clip-path="url(#clip483)" style="stroke:#000000; stroke-width:2; stroke-opacity:0.1; fill:none" points="
  1039.9,1423.18 1039.9,142.953 
  "/>
<polyline clip-path="url(#clip483)" style="stroke:#000000; stroke-width:2; stroke-opacity:0.1; fill:none" points="
  1458.2,1423.18 1458.2,142.953 
  "/>
<polyline clip-path="url(#clip483)" style="stroke:#000000; stroke-width:2; stroke-opacity:0.1; fill:none" points="
  1876.5,1423.18 1876.5,142.953 
  "/>
<polyline clip-path="url(#clip483)" style="stroke:#000000; stroke-width:2; stroke-opacity:0.1; fill:none" points="
  2294.8,1423.18 2294.8,142.953 
  "/>
<polyline clip-path="url(#clip480)" style="stroke:#000000; stroke-width:4; stroke-opacity:1; fill:none" points="
  140.696,1423.18 2352.76,1423.18 
  "/>
<polyline clip-path="url(#clip480)" style="stroke:#000000; stroke-width:4; stroke-opacity:1; fill:none" points="
  203.301,1423.18 203.301,1407.82 
  "/>
<polyline clip-path="url(#clip480)" style="stroke:#000000; stroke-width:4; stroke-opacity:1; fill:none" points="
  621.6,1423.18 621.6,1407.82 
  "/>
<polyline clip-path="url(#clip480)" style="stroke:#000000; stroke-width:4; stroke-opacity:1; fill:none" points="
  1039.9,1423.18 1039.9,1407.82 
  "/>
<polyline clip-path="url(#clip480)" style="stroke:#000000; stroke-width:4; stroke-opacity:1; fill:none" points="
  1458.2,1423.18 1458.2,1407.82 
  "/>
<polyline clip-path="url(#clip480)" style="stroke:#000000; stroke-width:4; stroke-opacity:1; fill:none" points="
  1876.5,1423.18 1876.5,1407.82 
  "/>
<polyline clip-path="url(#clip480)" style="stroke:#000000; stroke-width:4; stroke-opacity:1; fill:none" points="
  2294.8,1423.18 2294.8,1407.82 
  "/>
<path clip-path="url(#clip480)" d="M 0 0 M203.301 1452.37 Q199.69 1452.37 197.861 1455.94 Q196.056 1459.48 196.056 1466.61 Q196.056 1473.71 197.861 1477.28 Q199.69 1480.82 203.301 1480.82 Q206.935 1480.82 208.741 1477.28 Q210.57 1473.71 210.57 1466.61 Q210.57 1459.48 208.741 1455.94 Q206.935 1452.37 203.301 1452.37 M203.301 1448.67 Q209.111 1448.67 212.167 1453.27 Q215.245 1457.86 215.245 1466.61 Q215.245 1475.33 212.167 1479.94 Q209.111 1484.52 203.301 1484.52 Q197.491 1484.52 194.412 1479.94 Q191.357 1475.33 191.357 1466.61 Q191.357 1457.86 194.412 1453.27 Q197.491 1448.67 203.301 1448.67 Z" fill="#000000" fill-rule="evenodd" fill-opacity="1" /><path clip-path="url(#clip480)" d="M 0 0 M596.288 1479.92 L603.927 1479.92 L603.927 1453.55 L595.617 1455.22 L595.617 1450.96 L603.881 1449.29 L608.557 1449.29 L608.557 1479.92 L616.195 1479.92 L616.195 1483.85 L596.288 1483.85 L596.288 1479.92 Z" fill="#000000" fill-rule="evenodd" fill-opacity="1" /><path clip-path="url(#clip480)" d="M 0 0 M635.64 1452.37 Q632.029 1452.37 630.2 1455.94 Q628.394 1459.48 628.394 1466.61 Q628.394 1473.71 630.2 1477.28 Q632.029 1480.82 635.64 1480.82 Q639.274 1480.82 641.08 1477.28 Q642.908 1473.71 642.908 1466.61 Q642.908 1459.48 641.08 1455.94 Q639.274 1452.37 635.64 1452.37 M635.64 1448.67 Q641.45 1448.67 644.505 1453.27 Q647.584 1457.86 647.584 1466.61 Q647.584 1475.33 644.505 1479.94 Q641.45 1484.52 635.64 1484.52 Q629.83 1484.52 626.751 1479.94 Q623.695 1475.33 623.695 1466.61 Q623.695 1457.86 626.751 1453.27 Q629.83 1448.67 635.64 1448.67 Z" fill="#000000" fill-rule="evenodd" fill-opacity="1" /><path clip-path="url(#clip480)" d="M 0 0 M1018.67 1479.92 L1034.99 1479.92 L1034.99 1483.85 L1013.05 1483.85 L1013.05 1479.92 Q1015.71 1477.16 1020.29 1472.53 Q1024.9 1467.88 1026.08 1466.54 Q1028.33 1464.01 1029.21 1462.28 Q1030.11 1460.52 1030.11 1458.83 Q1030.11 1456.07 1028.16 1454.34 Q1026.24 1452.6 1023.14 1452.6 Q1020.94 1452.6 1018.49 1453.37 Q1016.06 1454.13 1013.28 1455.68 L1013.28 1450.96 Q1016.1 1449.82 1018.56 1449.25 Q1021.01 1448.67 1023.05 1448.67 Q1028.42 1448.67 1031.61 1451.35 Q1034.81 1454.04 1034.81 1458.53 Q1034.81 1460.66 1034 1462.58 Q1033.21 1464.48 1031.1 1467.07 Q1030.52 1467.74 1027.42 1470.96 Q1024.32 1474.15 1018.67 1479.92 Z" fill="#000000" fill-rule="evenodd" fill-opacity="1" /><path clip-path="url(#clip480)" d="M 0 0 M1054.81 1452.37 Q1051.2 1452.37 1049.37 1455.94 Q1047.56 1459.48 1047.56 1466.61 Q1047.56 1473.71 1049.37 1477.28 Q1051.2 1480.82 1054.81 1480.82 Q1058.44 1480.82 1060.25 1477.28 Q1062.08 1473.71 1062.08 1466.61 Q1062.08 1459.48 1060.25 1455.94 Q1058.44 1452.37 1054.81 1452.37 M1054.81 1448.67 Q1060.62 1448.67 1063.67 1453.27 Q1066.75 1457.86 1066.75 1466.61 Q1066.75 1475.33 1063.67 1479.94 Q1060.62 1484.52 1054.81 1484.52 Q1049 1484.52 1045.92 1479.94 Q1042.86 1475.33 1042.86 1466.61 Q1042.86 1457.86 1045.92 1453.27 Q1049 1448.67 1054.81 1448.67 Z" fill="#000000" fill-rule="evenodd" fill-opacity="1" /><path clip-path="url(#clip480)" d="M 0 0 M1447.04 1465.22 Q1450.4 1465.94 1452.27 1468.2 Q1454.17 1470.47 1454.17 1473.81 Q1454.17 1478.92 1450.65 1481.72 Q1447.13 1484.52 1440.65 1484.52 Q1438.48 1484.52 1436.16 1484.08 Q1433.87 1483.67 1431.42 1482.81 L1431.42 1478.3 Q1433.36 1479.43 1435.68 1480.01 Q1437.99 1480.59 1440.51 1480.59 Q1444.91 1480.59 1447.2 1478.85 Q1449.52 1477.12 1449.52 1473.81 Q1449.52 1470.75 1447.37 1469.04 Q1445.24 1467.3 1441.42 1467.3 L1437.39 1467.3 L1437.39 1463.46 L1441.6 1463.46 Q1445.05 1463.46 1446.88 1462.09 Q1448.71 1460.7 1448.71 1458.11 Q1448.71 1455.45 1446.81 1454.04 Q1444.94 1452.6 1441.42 1452.6 Q1439.5 1452.6 1437.3 1453.02 Q1435.1 1453.44 1432.46 1454.31 L1432.46 1450.15 Q1435.12 1449.41 1437.44 1449.04 Q1439.77 1448.67 1441.83 1448.67 Q1447.16 1448.67 1450.26 1451.1 Q1453.36 1453.5 1453.36 1457.63 Q1453.36 1460.5 1451.72 1462.49 Q1450.07 1464.45 1447.04 1465.22 Z" fill="#000000" fill-rule="evenodd" fill-opacity="1" /><path clip-path="url(#clip480)" d="M 0 0 M1473.04 1452.37 Q1469.43 1452.37 1467.6 1455.94 Q1465.79 1459.48 1465.79 1466.61 Q1465.79 1473.71 1467.6 1477.28 Q1469.43 1480.82 1473.04 1480.82 Q1476.67 1480.82 1478.48 1477.28 Q1480.31 1473.71 1480.31 1466.61 Q1480.31 1459.48 1478.48 1455.94 Q1476.67 1452.37 1473.04 1452.37 M1473.04 1448.67 Q1478.85 1448.67 1481.9 1453.27 Q1484.98 1457.86 1484.98 1466.61 Q1484.98 1475.33 1481.9 1479.94 Q1478.85 1484.52 1473.04 1484.52 Q1467.23 1484.52 1464.15 1479.94 Q1461.09 1475.33 1461.09 1466.61 Q1461.09 1457.86 1464.15 1453.27 Q1467.23 1448.67 1473.04 1448.67 Z" fill="#000000" fill-rule="evenodd" fill-opacity="1" /><path clip-path="url(#clip480)" d="M 0 0 M1864.67 1453.37 L1852.86 1471.81 L1864.67 1471.81 L1864.67 1453.37 M1863.44 1449.29 L1869.32 1449.29 L1869.32 1471.81 L1874.25 1471.81 L1874.25 1475.7 L1869.32 1475.7 L1869.32 1483.85 L1864.67 1483.85 L1864.67 1475.7 L1849.07 1475.7 L1849.07 1471.19 L1863.44 1449.29 Z" fill="#000000" fill-rule="evenodd" fill-opacity="1" /><path clip-path="url(#clip480)" d="M 0 0 M1891.98 1452.37 Q1888.37 1452.37 1886.55 1455.94 Q1884.74 1459.48 1884.74 1466.61 Q1884.74 1473.71 1886.55 1477.28 Q1888.37 1480.82 1891.98 1480.82 Q1895.62 1480.82 1897.42 1477.28 Q1899.25 1473.71 1899.25 1466.61 Q1899.25 1459.48 1897.42 1455.94 Q1895.62 1452.37 1891.98 1452.37 M1891.98 1448.67 Q1897.79 1448.67 1900.85 1453.27 Q1903.93 1457.86 1903.93 1466.61 Q1903.93 1475.33 1900.85 1479.94 Q1897.79 1484.52 1891.98 1484.52 Q1886.17 1484.52 1883.1 1479.94 Q1880.04 1475.33 1880.04 1466.61 Q1880.04 1457.86 1883.1 1453.27 Q1886.17 1448.67 1891.98 1448.67 Z" fill="#000000" fill-rule="evenodd" fill-opacity="1" /><path clip-path="url(#clip480)" d="M 0 0 M2269.5 1449.29 L2287.85 1449.29 L2287.85 1453.23 L2273.78 1453.23 L2273.78 1461.7 Q2274.8 1461.35 2275.82 1461.19 Q2276.84 1461 2277.85 1461 Q2283.64 1461 2287.02 1464.18 Q2290.4 1467.35 2290.4 1472.76 Q2290.4 1478.34 2286.93 1481.44 Q2283.46 1484.52 2277.14 1484.52 Q2274.96 1484.52 2272.69 1484.15 Q2270.45 1483.78 2268.04 1483.04 L2268.04 1478.34 Q2270.12 1479.48 2272.34 1480.03 Q2274.57 1480.59 2277.04 1480.59 Q2281.05 1480.59 2283.39 1478.48 Q2285.72 1476.38 2285.72 1472.76 Q2285.72 1469.15 2283.39 1467.05 Q2281.05 1464.94 2277.04 1464.94 Q2275.17 1464.94 2273.29 1465.36 Q2271.44 1465.77 2269.5 1466.65 L2269.5 1449.29 Z" fill="#000000" fill-rule="evenodd" fill-opacity="1" /><path clip-path="url(#clip480)" d="M 0 0 M2309.61 1452.37 Q2306 1452.37 2304.17 1455.94 Q2302.37 1459.48 2302.37 1466.61 Q2302.37 1473.71 2304.17 1477.28 Q2306 1480.82 2309.61 1480.82 Q2313.25 1480.82 2315.05 1477.28 Q2316.88 1473.71 2316.88 1466.61 Q2316.88 1459.48 2315.05 1455.94 Q2313.25 1452.37 2309.61 1452.37 M2309.61 1448.67 Q2315.42 1448.67 2318.48 1453.27 Q2321.56 1457.86 2321.56 1466.61 Q2321.56 1475.33 2318.48 1479.94 Q2315.42 1484.52 2309.61 1484.52 Q2303.8 1484.52 2300.72 1479.94 Q2297.67 1475.33 2297.67 1466.61 Q2297.67 1457.86 2300.72 1453.27 Q2303.8 1448.67 2309.61 1448.67 Z" fill="#000000" fill-rule="evenodd" fill-opacity="1" /><path clip-path="url(#clip480)" d="M 0 0 M1006.83 1518.52 L1006.83 1523.39 L1001.23 1523.39 Q998.081 1523.39 996.84 1524.66 Q995.63 1525.93 995.63 1529.24 L995.63 1532.4 L1005.27 1532.4 L1005.27 1536.95 L995.63 1536.95 L995.63 1568.04 L989.742 1568.04 L989.742 1536.95 L984.14 1536.95 L984.14 1532.4 L989.742 1532.4 L989.742 1529.91 Q989.742 1523.96 992.511 1521.26 Q995.28 1518.52 1001.3 1518.52 L1006.83 1518.52 Z" fill="#000000" fill-rule="evenodd" fill-opacity="1" /><path clip-path="url(#clip480)" d="M 0 0 M1032.39 1537.87 Q1031.41 1537.3 1030.23 1537.04 Q1029.08 1536.76 1027.68 1536.76 Q1022.72 1536.76 1020.04 1540 Q1017.4 1543.22 1017.4 1549.27 L1017.4 1568.04 L1011.51 1568.04 L1011.51 1532.4 L1017.4 1532.4 L1017.4 1537.93 Q1019.25 1534.69 1022.21 1533.13 Q1025.17 1531.54 1029.4 1531.54 Q1030.01 1531.54 1030.74 1531.63 Q1031.47 1531.7 1032.36 1531.85 L1032.39 1537.87 Z" fill="#000000" fill-rule="evenodd" fill-opacity="1" /><path clip-path="url(#clip480)" d="M 0 0 M1067.59 1548.76 L1067.59 1551.62 L1040.67 1551.62 Q1041.05 1557.67 1044.3 1560.85 Q1047.57 1564 1053.4 1564 Q1056.77 1564 1059.92 1563.17 Q1063.11 1562.35 1066.23 1560.69 L1066.23 1566.23 Q1063.08 1567.57 1059.76 1568.27 Q1056.45 1568.97 1053.05 1568.97 Q1044.52 1568.97 1039.52 1564 Q1034.56 1559.04 1034.56 1550.57 Q1034.56 1541.82 1039.27 1536.69 Q1044.01 1531.54 1052.03 1531.54 Q1059.22 1531.54 1063.39 1536.18 Q1067.59 1540.8 1067.59 1548.76 M1061.74 1547.04 Q1061.67 1542.23 1059.03 1539.37 Q1056.42 1536.5 1052.09 1536.5 Q1047.19 1536.5 1044.23 1539.27 Q1041.3 1542.04 1040.86 1547.07 L1061.74 1547.04 Z" fill="#000000" fill-rule="evenodd" fill-opacity="1" /><path clip-path="url(#clip480)" d="M 0 0 M1080.71 1550.25 Q1080.71 1556.71 1083.35 1560.4 Q1086.02 1564.07 1090.67 1564.07 Q1095.32 1564.07 1097.99 1560.4 Q1100.66 1556.71 1100.66 1550.25 Q1100.66 1543.79 1097.99 1540.13 Q1095.32 1536.44 1090.67 1536.44 Q1086.02 1536.44 1083.35 1540.13 Q1080.71 1543.79 1080.71 1550.25 M1100.66 1562.7 Q1098.82 1565.88 1095.99 1567.44 Q1093.18 1568.97 1089.24 1568.97 Q1082.78 1568.97 1078.7 1563.81 Q1074.66 1558.65 1074.66 1550.25 Q1074.66 1541.85 1078.7 1536.69 Q1082.78 1531.54 1089.24 1531.54 Q1093.18 1531.54 1095.99 1533.1 Q1098.82 1534.62 1100.66 1537.81 L1100.66 1532.4 L1106.52 1532.4 L1106.52 1581.6 L1100.66 1581.6 L1100.66 1562.7 Z" fill="#000000" fill-rule="evenodd" fill-opacity="1" /><path clip-path="url(#clip480)" d="M 0 0 M1117.98 1553.98 L1117.98 1532.4 L1123.84 1532.4 L1123.84 1553.75 Q1123.84 1558.81 1125.81 1561.36 Q1127.78 1563.87 1131.73 1563.87 Q1136.47 1563.87 1139.21 1560.85 Q1141.98 1557.83 1141.98 1552.61 L1141.98 1532.4 L1147.83 1532.4 L1147.83 1568.04 L1141.98 1568.04 L1141.98 1562.57 Q1139.85 1565.82 1137.01 1567.41 Q1134.21 1568.97 1130.49 1568.97 Q1124.35 1568.97 1121.16 1565.15 Q1117.98 1561.33 1117.98 1553.98 M1132.72 1531.54 L1132.72 1531.54 Z" fill="#000000" fill-rule="evenodd" fill-opacity="1" /><path clip-path="url(#clip480)" d="M 0 0 M1190.39 1548.76 L1190.39 1551.62 L1163.46 1551.62 Q1163.84 1557.67 1167.09 1560.85 Q1170.37 1564 1176.19 1564 Q1179.57 1564 1182.72 1563.17 Q1185.9 1562.35 1189.02 1560.69 L1189.02 1566.23 Q1185.87 1567.57 1182.56 1568.27 Q1179.25 1568.97 1175.84 1568.97 Q1167.31 1568.97 1162.32 1564 Q1157.35 1559.04 1157.35 1550.57 Q1157.35 1541.82 1162.06 1536.69 Q1166.8 1531.54 1174.83 1531.54 Q1182.02 1531.54 1186.19 1536.18 Q1190.39 1540.8 1190.39 1548.76 M1184.53 1547.04 Q1184.47 1542.23 1181.83 1539.37 Q1179.22 1536.5 1174.89 1536.5 Q1169.99 1536.5 1167.03 1539.27 Q1164.1 1542.04 1163.65 1547.07 L1184.53 1547.04 Z" fill="#000000" fill-rule="evenodd" fill-opacity="1" /><path clip-path="url(#clip480)" d="M 0 0 M1229.63 1546.53 L1229.63 1568.04 L1223.78 1568.04 L1223.78 1546.72 Q1223.78 1541.66 1221.8 1539.14 Q1219.83 1536.63 1215.88 1536.63 Q1211.14 1536.63 1208.4 1539.65 Q1205.67 1542.68 1205.67 1547.9 L1205.67 1568.04 L1199.78 1568.04 L1199.78 1532.4 L1205.67 1532.4 L1205.67 1537.93 Q1207.77 1534.72 1210.6 1533.13 Q1213.46 1531.54 1217.19 1531.54 Q1223.33 1531.54 1226.48 1535.36 Q1229.63 1539.14 1229.63 1546.53 Z" fill="#000000" fill-rule="evenodd" fill-opacity="1" /><path clip-path="url(#clip480)" d="M 0 0 M1266.97 1533.76 L1266.97 1539.24 Q1264.49 1537.87 1261.97 1537.2 Q1259.49 1536.5 1256.94 1536.5 Q1251.25 1536.5 1248.09 1540.13 Q1244.94 1543.73 1244.94 1550.25 Q1244.94 1556.78 1248.09 1560.4 Q1251.25 1564 1256.94 1564 Q1259.49 1564 1261.97 1563.33 Q1264.49 1562.63 1266.97 1561.26 L1266.97 1566.68 Q1264.52 1567.82 1261.88 1568.39 Q1259.27 1568.97 1256.31 1568.97 Q1248.25 1568.97 1243.51 1563.91 Q1238.77 1558.85 1238.77 1550.25 Q1238.77 1541.53 1243.54 1536.53 Q1248.35 1531.54 1256.69 1531.54 Q1259.39 1531.54 1261.97 1532.11 Q1264.55 1532.65 1266.97 1533.76 Z" fill="#000000" fill-rule="evenodd" fill-opacity="1" /><path clip-path="url(#clip480)" d="M 0 0 M1291.99 1571.35 Q1289.5 1577.72 1287.15 1579.66 Q1284.79 1581.6 1280.85 1581.6 L1276.17 1581.6 L1276.17 1576.7 L1279.6 1576.7 Q1282.02 1576.7 1283.36 1575.56 Q1284.7 1574.41 1286.32 1570.14 L1287.37 1567.47 L1272.95 1532.4 L1279.16 1532.4 L1290.3 1560.28 L1301.44 1532.4 L1307.65 1532.4 L1291.99 1571.35 Z" fill="#000000" fill-rule="evenodd" fill-opacity="1" /><path clip-path="url(#clip480)" d="M 0 0 M1350.52 1518.58 Q1346.25 1525.9 1344.18 1533.06 Q1342.12 1540.23 1342.12 1547.58 Q1342.12 1554.93 1344.18 1562.16 Q1346.29 1569.35 1350.52 1576.64 L1345.43 1576.64 Q1340.65 1569.16 1338.26 1561.93 Q1335.91 1554.71 1335.91 1547.58 Q1335.91 1540.48 1338.26 1533.29 Q1340.62 1526.09 1345.43 1518.58 L1350.52 1518.58 Z" fill="#000000" fill-rule="evenodd" fill-opacity="1" /><path clip-path="url(#clip480)" d="M 0 0 M1394.54 1561.26 L1394.54 1548.5 L1384.03 1548.5 L1384.03 1543.22 L1400.9 1543.22 L1400.9 1563.62 Q1397.18 1566.26 1392.69 1567.63 Q1388.2 1568.97 1383.11 1568.97 Q1371.97 1568.97 1365.67 1562.47 Q1359.4 1555.95 1359.4 1544.33 Q1359.4 1532.68 1365.67 1526.19 Q1371.97 1519.66 1383.11 1519.66 Q1387.76 1519.66 1391.93 1520.81 Q1396.13 1521.96 1399.66 1524.18 L1399.66 1531.03 Q1396.1 1528 1392.09 1526.48 Q1388.08 1524.95 1383.65 1524.95 Q1374.93 1524.95 1370.54 1529.82 Q1366.18 1534.69 1366.18 1544.33 Q1366.18 1553.94 1370.54 1558.81 Q1374.93 1563.68 1383.65 1563.68 Q1387.06 1563.68 1389.73 1563.11 Q1392.4 1562.51 1394.54 1561.26 Z" fill="#000000" fill-rule="evenodd" fill-opacity="1" /><path clip-path="url(#clip480)" d="M 0 0 M1412.65 1520.52 L1419.08 1520.52 L1419.08 1540 L1442.44 1540 L1442.44 1520.52 L1448.87 1520.52 L1448.87 1568.04 L1442.44 1568.04 L1442.44 1545.41 L1419.08 1545.41 L1419.08 1568.04 L1412.65 1568.04 L1412.65 1520.52 Z" fill="#000000" fill-rule="evenodd" fill-opacity="1" /><path clip-path="url(#clip480)" d="M 0 0 M1458.86 1532.4 L1486.68 1532.4 L1486.68 1537.74 L1464.66 1563.37 L1486.68 1563.37 L1486.68 1568.04 L1458.07 1568.04 L1458.07 1562.7 L1480.09 1537.07 L1458.86 1537.07 L1458.86 1532.4 Z" fill="#000000" fill-rule="evenodd" fill-opacity="1" /><path clip-path="url(#clip480)" d="M 0 0 M1494.7 1518.58 L1499.79 1518.58 Q1504.57 1526.09 1506.92 1533.29 Q1509.31 1540.48 1509.31 1547.58 Q1509.31 1554.71 1506.92 1561.93 Q1504.57 1569.16 1499.79 1576.64 L1494.7 1576.64 Q1498.94 1569.35 1501 1562.16 Q1503.1 1554.93 1503.1 1547.58 Q1503.1 1540.23 1501 1533.06 Q1498.94 1525.9 1494.7 1518.58 Z" fill="#000000" fill-rule="evenodd" fill-opacity="1" /><polyline clip-path="url(#clip483)" style="stroke:#000000; stroke-width:2; stroke-opacity:0.1; fill:none" points="
  140.696,1386.95 2352.76,1386.95 
  "/>
<polyline clip-path="url(#clip483)" style="stroke:#000000; stroke-width:2; stroke-opacity:0.1; fill:none" points="
  140.696,1107.54 2352.76,1107.54 
  "/>
<polyline clip-path="url(#clip483)" style="stroke:#000000; stroke-width:2; stroke-opacity:0.1; fill:none" points="
  140.696,828.143 2352.76,828.143 
  "/>
<polyline clip-path="url(#clip483)" style="stroke:#000000; stroke-width:2; stroke-opacity:0.1; fill:none" points="
  140.696,548.741 2352.76,548.741 
  "/>
<polyline clip-path="url(#clip483)" style="stroke:#000000; stroke-width:2; stroke-opacity:0.1; fill:none" points="
  140.696,269.339 2352.76,269.339 
  "/>
<polyline clip-path="url(#clip480)" style="stroke:#000000; stroke-width:4; stroke-opacity:1; fill:none" points="
  140.696,1423.18 140.696,142.953 
  "/>
<polyline clip-path="url(#clip480)" style="stroke:#000000; stroke-width:4; stroke-opacity:1; fill:none" points="
  140.696,1386.95 167.24,1386.95 
  "/>
<polyline clip-path="url(#clip480)" style="stroke:#000000; stroke-width:4; stroke-opacity:1; fill:none" points="
  140.696,1107.54 167.24,1107.54 
  "/>
<polyline clip-path="url(#clip480)" style="stroke:#000000; stroke-width:4; stroke-opacity:1; fill:none" points="
  140.696,828.143 167.24,828.143 
  "/>
<polyline clip-path="url(#clip480)" style="stroke:#000000; stroke-width:4; stroke-opacity:1; fill:none" points="
  140.696,548.741 167.24,548.741 
  "/>
<polyline clip-path="url(#clip480)" style="stroke:#000000; stroke-width:4; stroke-opacity:1; fill:none" points="
  140.696,269.339 167.24,269.339 
  "/>
<path clip-path="url(#clip480)" d="M 0 0 M92.7512 1372.75 Q89.1401 1372.75 87.3114 1376.31 Q85.5058 1379.85 85.5058 1386.98 Q85.5058 1394.09 87.3114 1397.65 Q89.1401 1401.19 92.7512 1401.19 Q96.3854 1401.19 98.1909 1397.65 Q100.02 1394.09 100.02 1386.98 Q100.02 1379.85 98.1909 1376.31 Q96.3854 1372.75 92.7512 1372.75 M92.7512 1369.04 Q98.5613 1369.04 101.617 1373.65 Q104.696 1378.23 104.696 1386.98 Q104.696 1395.71 101.617 1400.31 Q98.5613 1404.9 92.7512 1404.9 Q86.941 1404.9 83.8623 1400.31 Q80.8068 1395.71 80.8068 1386.98 Q80.8068 1378.23 83.8623 1373.65 Q86.941 1369.04 92.7512 1369.04 Z" fill="#000000" fill-rule="evenodd" fill-opacity="1" /><path clip-path="url(#clip480)" d="M 0 0 M83.7929 1090.26 L102.149 1090.26 L102.149 1094.2 L88.0753 1094.2 L88.0753 1102.67 Q89.0938 1102.33 90.1123 1102.16 Q91.1308 1101.98 92.1493 1101.98 Q97.9363 1101.98 101.316 1105.15 Q104.696 1108.32 104.696 1113.74 Q104.696 1119.32 101.223 1122.42 Q97.7511 1125.5 91.4317 1125.5 Q89.2558 1125.5 86.9873 1125.13 Q84.7419 1124.76 82.3346 1124.01 L82.3346 1119.32 Q84.4179 1120.45 86.6401 1121.01 Q88.8623 1121.56 91.3391 1121.56 Q95.3437 1121.56 97.6817 1119.45 Q100.02 1117.35 100.02 1113.74 Q100.02 1110.13 97.6817 1108.02 Q95.3437 1105.91 91.3391 1105.91 Q89.4641 1105.91 87.5892 1106.33 Q85.7373 1106.75 83.7929 1107.63 L83.7929 1090.26 Z" fill="#000000" fill-rule="evenodd" fill-opacity="1" /><path clip-path="url(#clip480)" d="M 0 0 M53.3995 841.488 L61.0384 841.488 L61.0384 815.122 L52.7282 816.789 L52.7282 812.529 L60.9921 810.863 L65.668 810.863 L65.668 841.488 L73.3068 841.488 L73.3068 845.423 L53.3995 845.423 L53.3995 841.488 Z" fill="#000000" fill-rule="evenodd" fill-opacity="1" /><path clip-path="url(#clip480)" d="M 0 0 M92.7512 813.941 Q89.1401 813.941 87.3114 817.506 Q85.5058 821.048 85.5058 828.178 Q85.5058 835.284 87.3114 838.849 Q89.1401 842.39 92.7512 842.39 Q96.3854 842.39 98.1909 838.849 Q100.02 835.284 100.02 828.178 Q100.02 821.048 98.1909 817.506 Q96.3854 813.941 92.7512 813.941 M92.7512 810.238 Q98.5613 810.238 101.617 814.844 Q104.696 819.428 104.696 828.178 Q104.696 836.904 101.617 841.511 Q98.5613 846.094 92.7512 846.094 Q86.941 846.094 83.8623 841.511 Q80.8068 836.904 80.8068 828.178 Q80.8068 819.428 83.8623 814.844 Q86.941 810.238 92.7512 810.238 Z" fill="#000000" fill-rule="evenodd" fill-opacity="1" /><path clip-path="url(#clip480)" d="M 0 0 M54.3949 562.086 L62.0337 562.086 L62.0337 535.72 L53.7236 537.387 L53.7236 533.127 L61.9874 531.461 L66.6633 531.461 L66.6633 562.086 L74.3022 562.086 L74.3022 566.021 L54.3949 566.021 L54.3949 562.086 Z" fill="#000000" fill-rule="evenodd" fill-opacity="1" /><path clip-path="url(#clip480)" d="M 0 0 M83.7929 531.461 L102.149 531.461 L102.149 535.396 L88.0753 535.396 L88.0753 543.868 Q89.0938 543.521 90.1123 543.359 Q91.1308 543.174 92.1493 543.174 Q97.9363 543.174 101.316 546.345 Q104.696 549.516 104.696 554.933 Q104.696 560.511 101.223 563.613 Q97.7511 566.692 91.4317 566.692 Q89.2558 566.692 86.9873 566.322 Q84.7419 565.951 82.3346 565.211 L82.3346 560.511 Q84.4179 561.646 86.6401 562.201 Q88.8623 562.757 91.3391 562.757 Q95.3437 562.757 97.6817 560.65 Q100.02 558.544 100.02 554.933 Q100.02 551.322 97.6817 549.215 Q95.3437 547.109 91.3391 547.109 Q89.4641 547.109 87.5892 547.525 Q85.7373 547.942 83.7929 548.822 L83.7929 531.461 Z" fill="#000000" fill-rule="evenodd" fill-opacity="1" /><path clip-path="url(#clip480)" d="M 0 0 M56.6171 282.683 L72.9365 282.683 L72.9365 286.619 L50.9921 286.619 L50.9921 282.683 Q53.6541 279.929 58.2375 275.299 Q62.8439 270.646 64.0245 269.304 Q66.2698 266.781 67.1494 265.045 Q68.0522 263.285 68.0522 261.596 Q68.0522 258.841 66.1078 257.105 Q64.1865 255.369 61.0847 255.369 Q58.8856 255.369 56.4319 256.133 Q54.0014 256.897 51.2236 258.447 L51.2236 253.725 Q54.0477 252.591 56.5014 252.012 Q58.955 251.434 60.9921 251.434 Q66.3624 251.434 69.5568 254.119 Q72.7513 256.804 72.7513 261.295 Q72.7513 263.424 71.9411 265.346 Q71.1541 267.244 69.0476 269.836 Q68.4689 270.508 65.367 273.725 Q62.2652 276.92 56.6171 282.683 Z" fill="#000000" fill-rule="evenodd" fill-opacity="1" /><path clip-path="url(#clip480)" d="M 0 0 M92.7512 255.137 Q89.1401 255.137 87.3114 258.702 Q85.5058 262.244 85.5058 269.373 Q85.5058 276.48 87.3114 280.045 Q89.1401 283.586 92.7512 283.586 Q96.3854 283.586 98.1909 280.045 Q100.02 276.48 100.02 269.373 Q100.02 262.244 98.1909 258.702 Q96.3854 255.137 92.7512 255.137 M92.7512 251.434 Q98.5613 251.434 101.617 256.04 Q104.696 260.623 104.696 269.373 Q104.696 278.1 101.617 282.707 Q98.5613 287.29 92.7512 287.29 Q86.941 287.29 83.8623 282.707 Q80.8068 278.1 80.8068 269.373 Q80.8068 260.623 83.8623 256.04 Q86.941 251.434 92.7512 251.434 Z" fill="#000000" fill-rule="evenodd" fill-opacity="1" /><path clip-path="url(#clip480)" d="M 0 0 M1164.53 63.9912 L1163.81 65.1676 Q1159.36 63.2452 1153.82 60.1751 Q1148.29 63.2452 1143.84 65.1676 L1143.15 63.9912 Q1148 59.7734 1153.82 56.5311 Q1159.7 59.8021 1164.53 63.9912 Z" fill="#000000" fill-rule="evenodd" fill-opacity="1" /><path clip-path="url(#clip480)" d="M 0 0 M1167.28 78.0244 Q1167.28 78.0654 1167.03 79.541 L1157.69 116.8 Q1157.19 118.768 1155.8 120.735 Q1154.45 122.744 1152.28 124.465 Q1150.14 126.228 1146.87 127.293 Q1143.63 128.4 1139.9 128.4 Q1133.95 128.4 1131.33 127.13 Q1128.75 125.9 1128.75 123.277 Q1128.75 120.981 1130.18 119.669 Q1131.62 118.399 1133.26 118.399 Q1134.81 118.399 1135.63 119.301 Q1136.45 120.202 1136.45 121.35 Q1136.45 122.621 1135.59 123.891 Q1134.73 125.203 1133.01 125.695 Q1135.76 126.556 1139.73 126.556 Q1148.14 126.556 1151.74 117.661 Q1151.83 117.538 1151.83 117.497 L1154.61 106.389 L1154.49 106.307 Q1153.79 107.127 1152.69 108.07 Q1151.62 108.971 1149.33 110.078 Q1147.03 111.185 1144.78 111.185 Q1140.06 111.185 1136.82 107.578 Q1133.63 103.93 1133.63 97.9042 Q1133.63 93.5183 1135.39 89.1325 Q1137.19 84.7056 1139.98 81.4675 Q1142.81 78.1883 1146.41 76.1389 Q1150.06 74.0894 1153.59 74.0894 Q1156.05 74.0894 1158.14 75.565 Q1160.23 76.9996 1161.38 79.377 Q1161.58 77.4095 1162.69 76.5897 Q1163.84 75.77 1164.82 75.77 Q1165.93 75.77 1166.58 76.3848 Q1167.28 76.9586 1167.28 78.0244 M1160.39 83.148 Q1160.39 82.9021 1160.23 82.2463 Q1160.06 81.5494 1159.57 80.4427 Q1159.12 79.336 1158.42 78.3523 Q1157.73 77.3685 1156.46 76.6717 Q1155.23 75.9339 1153.67 75.9339 Q1151.13 75.9339 1148.59 78.0654 Q1146.05 80.1558 1144.28 83.394 Q1142.64 86.5091 1141.09 92.5346 Q1139.57 98.56 1139.57 101.634 Q1139.57 104.667 1140.88 107.004 Q1142.19 109.34 1145.02 109.34 Q1148.3 109.34 1151.83 106.307 Q1155.47 103.151 1156.09 100.445 L1160.15 84.4187 Q1160.39 83.4349 1160.39 83.148 Z" fill="#000000" fill-rule="evenodd" fill-opacity="1" /><path clip-path="url(#clip480)" d="M 0 0 M1178.04 40.8785 Q1178.04 30.9509 1181.74 22.9457 Q1183.32 19.5887 1185.53 16.7768 Q1187.74 13.9649 1189.2 12.7312 Q1190.67 11.4974 1191.07 11.4974 Q1191.64 11.4974 1191.67 12.0712 Q1191.67 12.3582 1190.9 13.0755 Q1181.43 22.7162 1181.46 40.8785 Q1181.46 59.0982 1190.67 68.3659 Q1191.67 69.3702 1191.67 69.6858 Q1191.67 70.2596 1191.07 70.2596 Q1190.67 70.2596 1189.26 69.0832 Q1187.85 67.9068 1185.67 65.2097 Q1183.49 62.5126 1181.92 59.213 Q1178.04 51.2078 1178.04 40.8785 Z" fill="#000000" fill-rule="evenodd" fill-opacity="1" /><path clip-path="url(#clip480)" d="M 0 0 M1200.6 55.5691 Q1200.6 54.5074 1200.69 54.1918 Q1200.8 53.8762 1201.26 53.3884 L1212.54 40.8211 Q1218.71 33.8775 1218.71 27.8234 Q1218.71 23.8925 1216.64 21.0807 Q1214.6 18.2688 1210.84 18.2688 Q1208.26 18.2688 1206.08 19.8469 Q1203.9 21.425 1202.9 24.2369 Q1203.07 24.1795 1203.67 24.1795 Q1205.13 24.1795 1205.94 25.0976 Q1206.77 26.0158 1206.77 27.2496 Q1206.77 28.8277 1205.74 29.6024 Q1204.73 30.3484 1203.73 30.3484 Q1203.33 30.3484 1202.78 30.2623 Q1202.27 30.1762 1201.43 29.3728 Q1200.6 28.5407 1200.6 27.0774 Q1200.6 22.9744 1203.7 19.7034 Q1206.83 16.4325 1211.59 16.4325 Q1216.98 16.4325 1220.51 19.6461 Q1224.07 22.8309 1224.07 27.8234 Q1224.07 29.5737 1223.53 31.1804 Q1223.01 32.7585 1222.29 33.9923 Q1221.6 35.2261 1219.71 37.2059 Q1217.82 39.1856 1216.3 40.5916 Q1214.78 41.9975 1211.36 44.9815 L1205.13 51.0356 L1215.72 51.0356 Q1220.89 51.0356 1221.29 50.5766 Q1221.86 49.7445 1222.58 45.3545 L1224.07 45.3545 L1222.41 55.5691 L1200.6 55.5691 Z" fill="#000000" fill-rule="evenodd" fill-opacity="1" /><path clip-path="url(#clip480)" d="M 0 0 M1229.69 69.6858 Q1229.69 69.3988 1230.44 68.6815 Q1239.91 59.0409 1239.91 40.8785 Q1239.91 22.6588 1230.81 13.4485 Q1229.69 12.3869 1229.69 12.0712 Q1229.69 11.4974 1230.27 11.4974 Q1230.67 11.4974 1232.08 12.6738 Q1233.51 13.8502 1235.66 16.5473 Q1237.84 19.2444 1239.45 22.544 Q1243.32 30.5492 1243.32 40.8785 Q1243.32 50.8061 1239.62 58.8113 Q1238.04 62.1683 1235.83 64.9802 Q1233.63 67.7921 1232.16 69.0258 Q1230.7 70.2596 1230.27 70.2596 Q1229.69 70.2596 1229.69 69.6858 Z" fill="#000000" fill-rule="evenodd" fill-opacity="1" /><path clip-path="url(#clip480)" d="M 0 0 M1261.21 90.1982 Q1261.21 76.0159 1266.5 64.5799 Q1268.76 59.7841 1271.91 55.7672 Q1275.07 51.7502 1277.16 49.9877 Q1279.25 48.2252 1279.82 48.2252 Q1280.64 48.2252 1280.68 49.0449 Q1280.68 49.4548 1279.58 50.4796 Q1266.05 64.252 1266.09 90.1982 Q1266.09 116.226 1279.25 129.466 Q1280.68 130.901 1280.68 131.351 Q1280.68 132.171 1279.82 132.171 Q1279.25 132.171 1277.24 130.491 Q1275.23 128.81 1272.12 124.957 Q1269 121.104 1266.75 116.39 Q1261.21 104.954 1261.21 90.1982 Z" fill="#000000" fill-rule="evenodd" fill-opacity="1" /><path clip-path="url(#clip480)" d="M 0 0 M1332.95 76.3438 Q1332.95 76.7127 1332.63 77.9834 Q1332.34 79.2131 1331.4 81.6314 Q1330.5 84.0088 1329.1 86.6731 Q1327.75 89.2964 1325.25 92.6165 Q1322.75 95.9367 1319.63 98.8469 Q1313.77 104.339 1307.5 107.291 Q1301.27 110.242 1295.94 111.185 L1294.75 111.185 Q1293.44 111.185 1293.44 110.16 L1294.34 106.389 L1299.47 85.8533 Q1301.06 79.582 1301.06 79.0491 Q1301.06 78.5572 1300.86 78.3113 Q1300.7 78.0244 1299.71 77.8194 Q1298.77 77.6145 1296.88 77.6145 Q1296.11 77.6145 1295.74 77.5735 Q1295.41 77.5325 1295.12 77.3275 Q1294.83 77.0816 1294.83 76.5897 Q1294.83 75.8929 1295.12 75.524 Q1295.45 75.1141 1295.7 75.0321 Q1295.94 74.9502 1296.43 74.9092 Q1297.13 74.8682 1299.47 74.6632 Q1301.8 74.4173 1303.81 74.2533 Q1305.82 74.0894 1306.68 74.0894 Q1307.17 74.0894 1307.46 74.3353 Q1307.75 74.5403 1307.75 74.7862 L1307.79 74.9912 L1299.55 108.397 Q1302.58 107.414 1305.57 105.774 Q1308.61 104.135 1311.89 101.429 Q1315.17 98.683 1317.95 95.2808 Q1320.74 91.8787 1323.2 87.124 Q1325.7 82.3282 1327.26 76.8357 Q1327.54 75.729 1328.24 75.0731 Q1328.98 74.4173 1329.51 74.2533 Q1330.04 74.0894 1330.54 74.0894 Q1331.64 74.0894 1332.3 74.7042 Q1332.95 75.2781 1332.95 76.3438 Z" fill="#000000" fill-rule="evenodd" fill-opacity="1" /><path clip-path="url(#clip480)" d="M 0 0 M1334.48 131.351 Q1334.48 130.942 1335.54 129.917 Q1349.07 116.144 1349.07 90.1982 Q1349.07 64.17 1336.07 51.0124 Q1334.48 49.4958 1334.48 49.0449 Q1334.48 48.2252 1335.3 48.2252 Q1335.87 48.2252 1337.88 49.9057 Q1339.93 51.5863 1343 55.4393 Q1346.12 59.2923 1348.41 64.006 Q1353.95 75.442 1353.95 90.1982 Q1353.95 104.38 1348.66 115.816 Q1346.4 120.612 1343.25 124.629 Q1340.09 128.646 1338 130.409 Q1335.91 132.171 1335.3 132.171 Q1334.48 132.171 1334.48 131.351 Z" fill="#000000" fill-rule="evenodd" fill-opacity="1" /><polyline clip-path="url(#clip483)" style="stroke:#009af9; stroke-width:4; stroke-opacity:1; fill:none" points="
  203.301,1386.95 207.949,1094.03 212.597,1278.23 217.244,1132.45 221.892,1312.48 226.54,1238.82 231.188,1058.92 235.835,1260.46 240.483,1355.29 245.131,1290.34 
  249.779,1097.11 254.427,1255.8 259.074,1318.08 263.722,1032.49 268.37,1250.27 273.018,740.97 277.665,1135.78 282.313,1172.33 286.961,1077.08 291.609,1191.39 
  296.256,1116.28 300.904,1205.36 305.552,1272.34 310.2,1008.94 314.848,1253 319.495,1274.34 324.143,1203.78 328.791,1255.59 333.439,1349.1 338.086,1332.26 
  342.734,943.666 347.382,1023.24 352.03,1245.49 356.677,1309.71 361.325,1336.49 365.973,1312.95 370.621,179.185 375.269,1374.26 379.916,1329.45 384.564,1172.63 
  389.212,1222.87 393.86,867.32 398.507,650.512 403.155,1138.59 407.803,1225.63 412.451,1259.4 417.099,1205.46 421.746,1293.72 426.394,1267.45 431.042,1191.27 
  435.69,1271.7 440.337,766.916 444.985,1344.56 449.633,1341.65 454.281,1364.77 458.928,1309.07 463.576,1228.27 468.224,1207.56 472.872,1349.93 477.52,1334.08 
  482.167,1297.73 486.815,1240.69 491.463,1248.16 496.111,1215.69 500.758,1279.87 505.406,1019.07 510.054,1343.59 514.702,1282.97 519.349,1338.23 523.997,1245.33 
  528.645,1218.87 533.293,1270.5 537.941,1337.13 542.588,1191.86 547.236,782.301 551.884,840.932 556.532,1278.89 561.179,1274.7 565.827,1283.45 570.475,1250.14 
  575.123,1367.77 579.771,1366.66 584.418,1362.2 589.066,1348.37 593.714,1277.23 598.362,1315.34 603.009,1299.91 607.657,1321.16 612.305,1357.77 616.953,1345.42 
  621.6,1356.48 626.248,1355.97 630.896,1316.6 635.544,1284.36 640.192,1348.58 644.839,1072.62 649.487,1313.55 654.135,1322.54 658.783,1310.86 663.43,1338.72 
  668.078,1297.35 672.726,1238.89 677.374,1381.46 682.021,1264.05 686.669,1361.38 691.317,1381.24 695.965,1367.04 700.613,1248.29 705.26,1325.97 709.908,1307.65 
  714.556,1285.54 719.204,1241.41 723.851,769.164 728.499,1061.69 733.147,1125.85 737.795,1269.45 742.443,1286.38 747.09,1307.77 751.738,1321.67 756.386,1331.56 
  761.034,1339.13 765.681,1345.34 770.329,1350.92 774.977,1356.84 779.625,1365.21 784.272,1147.48 788.92,1290.95 793.568,1251.42 798.216,1300.01 802.864,1318.78 
  807.511,1321.59 812.159,687.622 816.807,1147.47 821.455,1204.07 826.102,1284.16 830.75,1288.55 835.398,1291.39 840.046,1322.08 844.693,1336.41 849.341,1086.32 
  853.989,1280.19 858.637,1313.42 863.285,1282.47 867.932,1016.49 872.58,1233.65 877.228,1354.72 881.876,1047.92 886.523,1198.42 891.171,863.544 895.819,1119.11 
  900.467,1152.63 905.115,1338.89 909.762,1358.83 914.41,1335.42 919.058,1331.89 923.706,1332.21 928.353,1332.41 933.001,1331.54 937.649,1328.94 942.297,1323.28 
  946.944,1310.47 951.592,1226.98 956.24,1269.64 960.888,1077.4 965.536,1198.23 970.183,1323.33 974.831,1345.8 979.479,1254.93 984.127,1354.39 988.774,1374.15 
  993.422,1379.76 998.07,1372.22 1002.72,1335.05 1007.37,1214.49 1012.01,1353.81 1016.66,1303.94 1021.31,1324.86 1025.96,1343.91 1030.6,1342.18 1035.25,1284.13 
  1039.9,1369.14 1044.55,1367.97 1049.2,1294.78 1053.84,1360.81 1058.49,1320.07 1063.14,1331.33 1067.79,1243.07 1072.43,1238.41 1077.08,1216.48 1081.73,1371.4 
  1086.38,1383.81 1091.03,1377.83 1095.67,1374.69 1100.32,1372.65 1104.97,1370.94 1109.62,1369.09 1114.26,1366.52 1118.91,1361.98 1123.56,1350.9 1128.21,1283.76 
  1132.86,1331.74 1137.5,1371.57 1142.15,1376.94 1146.8,1271.52 1151.45,1360.3 1156.09,1371.55 1160.74,1375.2 1165.39,1375.69 1170.04,1360.62 1174.69,1273.25 
  1179.33,1354.59 1183.98,1363.29 1188.63,1366.45 1193.28,1367.99 1197.92,1368.8 1202.57,1369.19 1207.22,1369.28 1211.87,1369.11 1216.52,1368.63 1221.16,1367.73 
  1225.81,1366.13 1230.46,1363.13 1235.11,1356.27 1239.75,1328.89 1244.4,1294.05 1249.05,1373.15 1253.7,1382.97 1258.35,1384.19 1262.99,1382.86 1267.64,1381.78 
  1272.29,1381.02 1276.94,1380.47 1281.58,1380.07 1286.23,1379.77 1290.88,1379.53 1295.53,1379.35 1300.18,1379.2 1304.82,1379.09 1309.47,1379 1314.12,1378.93 
  1318.77,1378.87 1323.41,1378.82 1328.06,1378.79 1332.71,1378.76 1337.36,1378.74 1342.01,1378.73 1346.65,1378.72 1351.3,1378.72 1355.95,1378.72 1360.6,1378.72 
  1365.24,1378.72 1369.89,1378.73 1374.54,1378.74 1379.19,1378.75 1383.83,1378.76 1388.48,1378.78 1393.13,1378.79 1397.78,1378.81 1402.43,1378.82 1407.07,1378.84 
  1411.72,1378.86 1416.37,1378.88 1421.02,1378.9 1425.66,1378.92 1430.31,1378.94 1434.96,1378.96 1439.61,1378.98 1444.26,1379 1448.9,1379.02 1453.55,1379.04 
  1458.2,1379.06 1462.85,1379.08 1467.49,1379.1 1472.14,1379.12 1476.79,1379.14 1481.44,1379.16 1486.09,1379.18 1490.73,1379.21 1495.38,1379.23 1500.03,1379.25 
  1504.68,1379.27 1509.32,1379.29 1513.97,1379.31 1518.62,1379.33 1523.27,1379.35 1527.92,1379.37 1532.56,1379.39 1537.21,1379.41 1541.86,1379.43 1546.51,1379.45 
  1551.15,1379.47 1555.8,1379.49 1560.45,1379.51 1565.1,1379.53 1569.75,1379.55 1574.39,1379.56 1579.04,1379.58 1583.69,1379.6 1588.34,1379.62 1592.98,1379.64 
  1597.63,1379.66 1602.28,1379.67 1606.93,1379.69 1611.58,1379.71 1616.22,1379.73 1620.87,1379.74 1625.52,1379.76 1630.17,1379.78 1634.81,1379.79 1639.46,1379.81 
  1644.11,1379.83 1648.76,1379.84 1653.41,1379.86 1658.05,1379.87 1662.7,1379.89 1667.35,1379.9 1672,1379.92 1676.64,1379.93 1681.29,1379.95 1685.94,1379.96 
  1690.59,1379.98 1695.24,1379.99 1699.88,1380.01 1704.53,1380.02 1709.18,1380.04 1713.83,1380.05 1718.47,1380.06 1723.12,1380.08 1727.77,1380.09 1732.42,1380.1 
  1737.07,1380.12 1741.71,1380.13 1746.36,1380.14 1751.01,1380.16 1755.66,1380.17 1760.3,1380.18 1764.95,1380.19 1769.6,1380.2 1774.25,1380.22 1778.9,1380.23 
  1783.54,1380.24 1788.19,1380.25 1792.84,1380.26 1797.49,1380.27 1802.13,1380.29 1806.78,1380.3 1811.43,1380.31 1816.08,1380.32 1820.73,1380.33 1825.37,1380.34 
  1830.02,1380.35 1834.67,1380.36 1839.32,1380.37 1843.96,1380.38 1848.61,1380.39 1853.26,1380.4 1857.91,1380.41 1862.56,1380.42 1867.2,1380.43 1871.85,1380.44 
  1876.5,1380.45 1881.15,1380.46 1885.79,1380.46 1890.44,1380.47 1895.09,1380.48 1899.74,1380.49 1904.39,1380.5 1909.03,1380.51 1913.68,1380.51 1918.33,1380.52 
  1922.98,1380.53 1927.62,1380.54 1932.27,1380.55 1936.92,1380.55 1941.57,1380.56 1946.22,1380.57 1950.86,1380.58 1955.51,1380.58 1960.16,1380.59 1964.81,1380.6 
  1969.45,1380.6 1974.1,1380.61 1978.75,1380.62 1983.4,1380.62 1988.05,1380.63 1992.69,1380.64 1997.34,1380.64 2001.99,1380.65 2006.64,1380.65 2011.28,1380.66 
  2015.93,1380.67 2020.58,1380.67 2025.23,1380.68 2029.88,1380.68 2034.52,1380.69 2039.17,1380.69 2043.82,1380.7 2048.47,1380.7 2053.11,1380.71 2057.76,1380.71 
  2062.41,1380.72 2067.06,1380.72 2071.71,1380.73 2076.35,1380.73 2081,1380.73 2085.65,1380.74 2090.3,1380.74 2094.94,1380.75 2099.59,1380.75 2104.24,1380.75 
  2108.89,1380.76 2113.54,1380.76 2118.18,1380.77 2122.83,1380.77 2127.48,1380.77 2132.13,1380.78 2136.77,1380.78 2141.42,1380.78 2146.07,1380.78 2150.72,1380.79 
  2155.37,1380.79 2160.01,1380.79 2164.66,1380.8 2169.31,1380.8 2173.96,1380.8 2178.6,1380.8 2183.25,1380.81 2187.9,1380.81 2192.55,1380.81 2197.19,1380.81 
  2201.84,1380.81 2206.49,1380.82 2211.14,1380.82 2215.79,1380.82 2220.43,1380.82 2225.08,1380.82 2229.73,1380.82 2234.38,1380.82 2239.02,1380.82 2243.67,1380.83 
  2248.32,1380.83 2252.97,1380.83 2257.62,1380.83 2262.26,1380.83 2266.91,1380.83 2271.56,1380.83 2276.21,1380.83 2280.85,1380.83 2285.5,1380.83 2290.15,1380.83 
  
  "/>
<polyline clip-path="url(#clip483)" style="stroke:#e26f46; stroke-width:4; stroke-opacity:1; fill:none" stroke-dasharray="16, 10" points="
  370.621,2703.41 370.621,-1137.27 
  "/>
<path clip-path="url(#clip480)" d="
M1676.69 306.587 L2279.02 306.587 L2279.02 185.627 L1676.69 185.627  Z
  " fill="#ffffff" fill-rule="evenodd" fill-opacity="1"/>
<polyline clip-path="url(#clip480)" style="stroke:#000000; stroke-width:4; stroke-opacity:1; fill:none" points="
  1676.69,306.587 2279.02,306.587 2279.02,185.627 1676.69,185.627 1676.69,306.587 
  "/>
<polyline clip-path="url(#clip480)" style="stroke:#e26f46; stroke-width:4; stroke-opacity:1; fill:none" stroke-dasharray="16, 10" points="
  1701.27,246.107 1848.74,246.107 
  "/>
<path clip-path="url(#clip480)" d="M 0 0 M1873.31 228.827 L1893.18 228.827 L1893.18 232.762 L1877.99 232.762 L1877.99 242.947 L1891.69 242.947 L1891.69 246.882 L1877.99 246.882 L1877.99 263.387 L1873.31 263.387 L1873.31 228.827 Z" fill="#000000" fill-rule="evenodd" fill-opacity="1" /><path clip-path="url(#clip480)" d="M 0 0 M1911.97 241.442 Q1911.25 241.026 1910.4 240.841 Q1909.56 240.632 1908.55 240.632 Q1904.93 240.632 1902.99 242.993 Q1901.07 245.331 1901.07 249.729 L1901.07 263.387 L1896.79 263.387 L1896.79 237.461 L1901.07 237.461 L1901.07 241.489 Q1902.41 239.128 1904.56 237.993 Q1906.72 236.836 1909.8 236.836 Q1910.24 236.836 1910.77 236.905 Q1911.3 236.952 1911.95 237.067 L1911.97 241.442 Z" fill="#000000" fill-rule="evenodd" fill-opacity="1" /><path clip-path="url(#clip480)" d="M 0 0 M1937.57 249.359 L1937.57 251.442 L1917.99 251.442 Q1918.27 255.841 1920.63 258.155 Q1923.01 260.447 1927.25 260.447 Q1929.7 260.447 1931.99 259.845 Q1934.31 259.243 1936.58 258.04 L1936.58 262.067 Q1934.29 263.04 1931.88 263.549 Q1929.47 264.058 1926.99 264.058 Q1920.79 264.058 1917.16 260.447 Q1913.55 256.836 1913.55 250.679 Q1913.55 244.313 1916.97 240.586 Q1920.42 236.836 1926.25 236.836 Q1931.49 236.836 1934.52 240.216 Q1937.57 243.572 1937.57 249.359 M1933.31 248.109 Q1933.27 244.614 1931.35 242.53 Q1929.45 240.447 1926.3 240.447 Q1922.74 240.447 1920.58 242.461 Q1918.45 244.475 1918.13 248.132 L1933.31 248.109 Z" fill="#000000" fill-rule="evenodd" fill-opacity="1" /><path clip-path="url(#clip480)" d="M 0 0 M1947.11 250.447 Q1947.11 255.146 1949.03 257.831 Q1950.98 260.493 1954.36 260.493 Q1957.74 260.493 1959.68 257.831 Q1961.62 255.146 1961.62 250.447 Q1961.62 245.748 1959.68 243.086 Q1957.74 240.401 1954.36 240.401 Q1950.98 240.401 1949.03 243.086 Q1947.11 245.748 1947.11 250.447 M1961.62 259.498 Q1960.28 261.813 1958.22 262.947 Q1956.18 264.058 1953.31 264.058 Q1948.62 264.058 1945.65 260.308 Q1942.71 256.558 1942.71 250.447 Q1942.71 244.336 1945.65 240.586 Q1948.62 236.836 1953.31 236.836 Q1956.18 236.836 1958.22 237.97 Q1960.28 239.081 1961.62 241.396 L1961.62 237.461 L1965.88 237.461 L1965.88 273.248 L1961.62 273.248 L1961.62 259.498 Z" fill="#000000" fill-rule="evenodd" fill-opacity="1" /><path clip-path="url(#clip480)" d="M 0 0 M1974.22 253.155 L1974.22 237.461 L1978.48 237.461 L1978.48 252.993 Q1978.48 256.674 1979.91 258.526 Q1981.35 260.354 1984.22 260.354 Q1987.67 260.354 1989.66 258.155 Q1991.67 255.956 1991.67 252.16 L1991.67 237.461 L1995.93 237.461 L1995.93 263.387 L1991.67 263.387 L1991.67 259.405 Q1990.12 261.766 1988.06 262.924 Q1986.02 264.058 1983.31 264.058 Q1978.85 264.058 1976.53 261.28 Q1974.22 258.503 1974.22 253.155 M1984.93 236.836 L1984.93 236.836 Z" fill="#000000" fill-rule="evenodd" fill-opacity="1" /><path clip-path="url(#clip480)" d="M 0 0 M2026.88 249.359 L2026.88 251.442 L2007.3 251.442 Q2007.57 255.841 2009.93 258.155 Q2012.32 260.447 2016.55 260.447 Q2019.01 260.447 2021.3 259.845 Q2023.61 259.243 2025.88 258.04 L2025.88 262.067 Q2023.59 263.04 2021.18 263.549 Q2018.78 264.058 2016.3 264.058 Q2010.1 264.058 2006.46 260.447 Q2002.85 256.836 2002.85 250.679 Q2002.85 244.313 2006.28 240.586 Q2009.73 236.836 2015.56 236.836 Q2020.79 236.836 2023.82 240.216 Q2026.88 243.572 2026.88 249.359 M2022.62 248.109 Q2022.57 244.614 2020.65 242.53 Q2018.75 240.447 2015.61 240.447 Q2012.04 240.447 2009.89 242.461 Q2007.76 244.475 2007.43 248.132 L2022.62 248.109 Z" fill="#000000" fill-rule="evenodd" fill-opacity="1" /><path clip-path="url(#clip480)" d="M 0 0 M2055.42 247.739 L2055.42 263.387 L2051.16 263.387 L2051.16 247.878 Q2051.16 244.197 2049.73 242.368 Q2048.29 240.54 2045.42 240.54 Q2041.97 240.54 2039.98 242.739 Q2037.99 244.938 2037.99 248.734 L2037.99 263.387 L2033.71 263.387 L2033.71 237.461 L2037.99 237.461 L2037.99 241.489 Q2039.52 239.151 2041.58 237.993 Q2043.66 236.836 2046.37 236.836 Q2050.84 236.836 2053.13 239.614 Q2055.42 242.368 2055.42 247.739 Z" fill="#000000" fill-rule="evenodd" fill-opacity="1" /><path clip-path="url(#clip480)" d="M 0 0 M2082.57 238.456 L2082.57 242.438 Q2080.77 241.442 2078.94 240.956 Q2077.13 240.447 2075.28 240.447 Q2071.14 240.447 2068.85 243.086 Q2066.55 245.702 2066.55 250.447 Q2066.55 255.192 2068.85 257.831 Q2071.14 260.447 2075.28 260.447 Q2077.13 260.447 2078.94 259.961 Q2080.77 259.452 2082.57 258.456 L2082.57 262.391 Q2080.79 263.225 2078.87 263.641 Q2076.97 264.058 2074.82 264.058 Q2068.96 264.058 2065.51 260.378 Q2062.06 256.697 2062.06 250.447 Q2062.06 244.104 2065.54 240.47 Q2069.03 236.836 2075.1 236.836 Q2077.06 236.836 2078.94 237.253 Q2080.81 237.646 2082.57 238.456 Z" fill="#000000" fill-rule="evenodd" fill-opacity="1" /><path clip-path="url(#clip480)" d="M 0 0 M2100.77 265.794 Q2098.96 270.424 2097.25 271.836 Q2095.54 273.248 2092.67 273.248 L2089.26 273.248 L2089.26 269.683 L2091.76 269.683 Q2093.52 269.683 2094.49 268.85 Q2095.47 268.016 2096.65 264.915 L2097.41 262.97 L2086.92 237.461 L2091.44 237.461 L2099.54 257.739 L2107.64 237.461 L2112.16 237.461 L2100.77 265.794 Z" fill="#000000" fill-rule="evenodd" fill-opacity="1" /><path clip-path="url(#clip480)" d="M 0 0 M2149.63 238.225 L2149.63 242.253 Q2147.83 241.327 2145.88 240.864 Q2143.94 240.401 2141.85 240.401 Q2138.68 240.401 2137.09 241.373 Q2135.51 242.345 2135.51 244.29 Q2135.51 245.771 2136.65 246.628 Q2137.78 247.461 2141.21 248.225 L2142.67 248.549 Q2147.2 249.521 2149.1 251.304 Q2151.02 253.063 2151.02 256.234 Q2151.02 259.845 2148.15 261.952 Q2145.3 264.058 2140.3 264.058 Q2138.22 264.058 2135.95 263.641 Q2133.71 263.248 2131.21 262.438 L2131.21 258.04 Q2133.57 259.266 2135.86 259.891 Q2138.15 260.493 2140.4 260.493 Q2143.41 260.493 2145.03 259.475 Q2146.65 258.433 2146.65 256.558 Q2146.65 254.822 2145.47 253.896 Q2144.31 252.97 2140.35 252.114 L2138.87 251.766 Q2134.91 250.933 2133.15 249.22 Q2131.39 247.484 2131.39 244.475 Q2131.39 240.817 2133.98 238.827 Q2136.58 236.836 2141.35 236.836 Q2143.71 236.836 2145.79 237.183 Q2147.87 237.53 2149.63 238.225 Z" fill="#000000" fill-rule="evenodd" fill-opacity="1" /><path clip-path="url(#clip480)" d="M 0 0 M2179.35 247.739 L2179.35 263.387 L2175.1 263.387 L2175.1 247.878 Q2175.1 244.197 2173.66 242.368 Q2172.23 240.54 2169.35 240.54 Q2165.91 240.54 2163.91 242.739 Q2161.92 244.938 2161.92 248.734 L2161.92 263.387 L2157.64 263.387 L2157.64 227.368 L2161.92 227.368 L2161.92 241.489 Q2163.45 239.151 2165.51 237.993 Q2167.6 236.836 2170.3 236.836 Q2174.77 236.836 2177.06 239.614 Q2179.35 242.368 2179.35 247.739 Z" fill="#000000" fill-rule="evenodd" fill-opacity="1" /><path clip-path="url(#clip480)" d="M 0 0 M2187.85 237.461 L2192.11 237.461 L2192.11 263.387 L2187.85 263.387 L2187.85 237.461 M2187.85 227.368 L2192.11 227.368 L2192.11 232.762 L2187.85 232.762 L2187.85 227.368 Z" fill="#000000" fill-rule="evenodd" fill-opacity="1" /><path clip-path="url(#clip480)" d="M 0 0 M2214.15 227.368 L2214.15 230.91 L2210.07 230.91 Q2207.78 230.91 2206.88 231.836 Q2206 232.762 2206 235.169 L2206 237.461 L2213.01 237.461 L2213.01 240.771 L2206 240.771 L2206 263.387 L2201.72 263.387 L2201.72 240.771 L2197.64 240.771 L2197.64 237.461 L2201.72 237.461 L2201.72 235.655 Q2201.72 231.327 2203.73 229.359 Q2205.74 227.368 2210.12 227.368 L2214.15 227.368 Z" fill="#000000" fill-rule="evenodd" fill-opacity="1" /><path clip-path="url(#clip480)" d="M 0 0 M2221.09 230.1 L2221.09 237.461 L2229.86 237.461 L2229.86 240.771 L2221.09 240.771 L2221.09 254.845 Q2221.09 258.016 2221.95 258.919 Q2222.83 259.822 2225.49 259.822 L2229.86 259.822 L2229.86 263.387 L2225.49 263.387 Q2220.56 263.387 2218.68 261.558 Q2216.81 259.706 2216.81 254.845 L2216.81 240.771 L2213.68 240.771 L2213.68 237.461 L2216.81 237.461 L2216.81 230.1 L2221.09 230.1 Z" fill="#000000" fill-rule="evenodd" fill-opacity="1" /></svg>
