<?xml version="1.0" encoding="utf-8"?>
<svg xmlns="http://www.w3.org/2000/svg" xmlns:xlink="http://www.w3.org/1999/xlink" width="600" height="400" viewBox="0 0 2400 1600">
<defs>
  <clipPath id="clip510">
    <rect x="0" y="0" width="2400" height="1600"/>
  </clipPath>
</defs>
<path clip-path="url(#clip510)" d="
M0 1600 L2400 1600 L2400 0 L0 0  Z
  " fill="#ffffff" fill-rule="evenodd" fill-opacity="1"/>
<defs>
  <clipPath id="clip511">
    <rect x="480" y="0" width="1681" height="1600"/>
  </clipPath>
</defs>
<defs>
  <clipPath id="clip512">
    <rect x="140" y="142" width="2213" height="1281"/>
  </clipPath>
</defs>
<path clip-path="url(#clip510)" d="
M306.435 1423.18 L2352.76 1423.18 L2352.76 202.606 L306.435 202.606  Z
  " fill="#ffffff" fill-rule="evenodd" fill-opacity="1"/>
<defs>
  <clipPath id="clip513">
    <rect x="306" y="202" width="2047" height="1222"/>
  </clipPath>
</defs>
<polyline clip-path="url(#clip513)" style="stroke:#000000; stroke-width:2; stroke-opacity:0.1; fill:none" points="
  364.35,1423.18 364.35,202.606 
  "/>
<polyline clip-path="url(#clip513)" style="stroke:#000000; stroke-width:2; stroke-opacity:0.1; fill:none" points="
  751.308,1423.18 751.308,202.606 
  "/>
<polyline clip-path="url(#clip513)" style="stroke:#000000; stroke-width:2; stroke-opacity:0.1; fill:none" points="
  1138.27,1423.18 1138.27,202.606 
  "/>
<polyline clip-path="url(#clip513)" style="stroke:#000000; stroke-width:2; stroke-opacity:0.1; fill:none" points="
  1525.22,1423.18 1525.22,202.606 
  "/>
<polyline clip-path="url(#clip513)" style="stroke:#000000; stroke-width:2; stroke-opacity:0.1; fill:none" points="
  1912.18,1423.18 1912.18,202.606 
  "/>
<polyline clip-path="url(#clip513)" style="stroke:#000000; stroke-width:2; stroke-opacity:0.1; fill:none" points="
  2299.14,1423.18 2299.14,202.606 
  "/>
<polyline clip-path="url(#clip510)" style="stroke:#000000; stroke-width:4; stroke-opacity:1; fill:none" points="
  306.435,1423.18 2352.76,1423.18 
  "/>
<polyline clip-path="url(#clip510)" style="stroke:#000000; stroke-width:4; stroke-opacity:1; fill:none" points="
  364.35,1423.18 364.35,1408.53 
  "/>
<polyline clip-path="url(#clip510)" style="stroke:#000000; stroke-width:4; stroke-opacity:1; fill:none" points="
  751.308,1423.18 751.308,1408.53 
  "/>
<polyline clip-path="url(#clip510)" style="stroke:#000000; stroke-width:4; stroke-opacity:1; fill:none" points="
  1138.27,1423.18 1138.27,1408.53 
  "/>
<polyline clip-path="url(#clip510)" style="stroke:#000000; stroke-width:4; stroke-opacity:1; fill:none" points="
  1525.22,1423.18 1525.22,1408.53 
  "/>
<polyline clip-path="url(#clip510)" style="stroke:#000000; stroke-width:4; stroke-opacity:1; fill:none" points="
  1912.18,1423.18 1912.18,1408.53 
  "/>
<polyline clip-path="url(#clip510)" style="stroke:#000000; stroke-width:4; stroke-opacity:1; fill:none" points="
  2299.14,1423.18 2299.14,1408.53 
  "/>
<path clip-path="url(#clip510)" d="M 0 0 M364.35 1452.37 Q360.739 1452.37 358.91 1455.94 Q357.105 1459.48 357.105 1466.61 Q357.105 1473.71 358.91 1477.28 Q360.739 1480.82 364.35 1480.82 Q367.984 1480.82 369.79 1477.28 Q371.619 1473.71 371.619 1466.61 Q371.619 1459.48 369.79 1455.94 Q367.984 1452.37 364.35 1452.37 M364.35 1448.67 Q370.16 1448.67 373.216 1453.27 Q376.295 1457.86 376.295 1466.61 Q376.295 1475.33 373.216 1479.94 Q370.16 1484.52 364.35 1484.52 Q358.54 1484.52 355.461 1479.94 Q352.406 1475.33 352.406 1466.61 Q352.406 1457.86 355.461 1453.27 Q358.54 1448.67 364.35 1448.67 Z" fill="#000000" fill-rule="evenodd" fill-opacity="1" /><path clip-path="url(#clip510)" d="M 0 0 M725.996 1479.92 L733.635 1479.92 L733.635 1453.55 L725.325 1455.22 L725.325 1450.96 L733.588 1449.29 L738.264 1449.29 L738.264 1479.92 L745.903 1479.92 L745.903 1483.85 L725.996 1483.85 L725.996 1479.92 Z" fill="#000000" fill-rule="evenodd" fill-opacity="1" /><path clip-path="url(#clip510)" d="M 0 0 M765.348 1452.37 Q761.736 1452.37 759.908 1455.94 Q758.102 1459.48 758.102 1466.61 Q758.102 1473.71 759.908 1477.28 Q761.736 1480.82 765.348 1480.82 Q768.982 1480.82 770.787 1477.28 Q772.616 1473.71 772.616 1466.61 Q772.616 1459.48 770.787 1455.94 Q768.982 1452.37 765.348 1452.37 M765.348 1448.67 Q771.158 1448.67 774.213 1453.27 Q777.292 1457.86 777.292 1466.61 Q777.292 1475.33 774.213 1479.94 Q771.158 1484.52 765.348 1484.52 Q759.537 1484.52 756.459 1479.94 Q753.403 1475.33 753.403 1466.61 Q753.403 1457.86 756.459 1453.27 Q759.537 1448.67 765.348 1448.67 Z" fill="#000000" fill-rule="evenodd" fill-opacity="1" /><path clip-path="url(#clip510)" d="M 0 0 M1117.04 1479.92 L1133.36 1479.92 L1133.36 1483.85 L1111.41 1483.85 L1111.41 1479.92 Q1114.08 1477.16 1118.66 1472.53 Q1123.27 1467.88 1124.45 1466.54 Q1126.69 1464.01 1127.57 1462.28 Q1128.47 1460.52 1128.47 1458.83 Q1128.47 1456.07 1126.53 1454.34 Q1124.61 1452.6 1121.51 1452.6 Q1119.31 1452.6 1116.85 1453.37 Q1114.42 1454.13 1111.65 1455.68 L1111.65 1450.96 Q1114.47 1449.82 1116.92 1449.25 Q1119.38 1448.67 1121.41 1448.67 Q1126.78 1448.67 1129.98 1451.35 Q1133.17 1454.04 1133.17 1458.53 Q1133.17 1460.66 1132.36 1462.58 Q1131.58 1464.48 1129.47 1467.07 Q1128.89 1467.74 1125.79 1470.96 Q1122.69 1474.15 1117.04 1479.92 Z" fill="#000000" fill-rule="evenodd" fill-opacity="1" /><path clip-path="url(#clip510)" d="M 0 0 M1153.17 1452.37 Q1149.56 1452.37 1147.73 1455.94 Q1145.93 1459.48 1145.93 1466.61 Q1145.93 1473.71 1147.73 1477.28 Q1149.56 1480.82 1153.17 1480.82 Q1156.81 1480.82 1158.61 1477.28 Q1160.44 1473.71 1160.44 1466.61 Q1160.44 1459.48 1158.61 1455.94 Q1156.81 1452.37 1153.17 1452.37 M1153.17 1448.67 Q1158.98 1448.67 1162.04 1453.27 Q1165.12 1457.86 1165.12 1466.61 Q1165.12 1475.33 1162.04 1479.94 Q1158.98 1484.52 1153.17 1484.52 Q1147.36 1484.52 1144.28 1479.94 Q1141.23 1475.33 1141.23 1466.61 Q1141.23 1457.86 1144.28 1453.27 Q1147.36 1448.67 1153.17 1448.67 Z" fill="#000000" fill-rule="evenodd" fill-opacity="1" /><path clip-path="url(#clip510)" d="M 0 0 M1514.07 1465.22 Q1517.42 1465.94 1519.3 1468.2 Q1521.2 1470.47 1521.2 1473.81 Q1521.2 1478.92 1517.68 1481.72 Q1514.16 1484.52 1507.68 1484.52 Q1505.5 1484.52 1503.19 1484.08 Q1500.9 1483.67 1498.44 1482.81 L1498.44 1478.3 Q1500.39 1479.43 1502.7 1480.01 Q1505.02 1480.59 1507.54 1480.59 Q1511.94 1480.59 1514.23 1478.85 Q1516.54 1477.12 1516.54 1473.81 Q1516.54 1470.75 1514.39 1469.04 Q1512.26 1467.3 1508.44 1467.3 L1504.41 1467.3 L1504.41 1463.46 L1508.63 1463.46 Q1512.08 1463.46 1513.91 1462.09 Q1515.73 1460.7 1515.73 1458.11 Q1515.73 1455.45 1513.84 1454.04 Q1511.96 1452.6 1508.44 1452.6 Q1506.52 1452.6 1504.32 1453.02 Q1502.12 1453.44 1499.48 1454.31 L1499.48 1450.15 Q1502.15 1449.41 1504.46 1449.04 Q1506.8 1448.67 1508.86 1448.67 Q1514.18 1448.67 1517.28 1451.1 Q1520.39 1453.5 1520.39 1457.63 Q1520.39 1460.5 1518.74 1462.49 Q1517.1 1464.45 1514.07 1465.22 Z" fill="#000000" fill-rule="evenodd" fill-opacity="1" /><path clip-path="url(#clip510)" d="M 0 0 M1540.06 1452.37 Q1536.45 1452.37 1534.62 1455.94 Q1532.82 1459.48 1532.82 1466.61 Q1532.82 1473.71 1534.62 1477.28 Q1536.45 1480.82 1540.06 1480.82 Q1543.7 1480.82 1545.5 1477.28 Q1547.33 1473.71 1547.33 1466.61 Q1547.33 1459.48 1545.5 1455.94 Q1543.7 1452.37 1540.06 1452.37 M1540.06 1448.67 Q1545.87 1448.67 1548.93 1453.27 Q1552.01 1457.86 1552.01 1466.61 Q1552.01 1475.33 1548.93 1479.94 Q1545.87 1484.52 1540.06 1484.52 Q1534.25 1484.52 1531.17 1479.94 Q1528.12 1475.33 1528.12 1466.61 Q1528.12 1457.86 1531.17 1453.27 Q1534.25 1448.67 1540.06 1448.67 Z" fill="#000000" fill-rule="evenodd" fill-opacity="1" /><path clip-path="url(#clip510)" d="M 0 0 M1900.35 1453.37 L1888.55 1471.81 L1900.35 1471.81 L1900.35 1453.37 M1899.13 1449.29 L1905.01 1449.29 L1905.01 1471.81 L1909.94 1471.81 L1909.94 1475.7 L1905.01 1475.7 L1905.01 1483.85 L1900.35 1483.85 L1900.35 1475.7 L1884.75 1475.7 L1884.75 1471.19 L1899.13 1449.29 Z" fill="#000000" fill-rule="evenodd" fill-opacity="1" /><path clip-path="url(#clip510)" d="M 0 0 M1927.67 1452.37 Q1924.06 1452.37 1922.23 1455.94 Q1920.42 1459.48 1920.42 1466.61 Q1920.42 1473.71 1922.23 1477.28 Q1924.06 1480.82 1927.67 1480.82 Q1931.3 1480.82 1933.11 1477.28 Q1934.94 1473.71 1934.94 1466.61 Q1934.94 1459.48 1933.11 1455.94 Q1931.3 1452.37 1927.67 1452.37 M1927.67 1448.67 Q1933.48 1448.67 1936.53 1453.27 Q1939.61 1457.86 1939.61 1466.61 Q1939.61 1475.33 1936.53 1479.94 Q1933.48 1484.52 1927.67 1484.52 Q1921.86 1484.52 1918.78 1479.94 Q1915.72 1475.33 1915.72 1466.61 Q1915.72 1457.86 1918.78 1453.27 Q1921.86 1448.67 1927.67 1448.67 Z" fill="#000000" fill-rule="evenodd" fill-opacity="1" /><path clip-path="url(#clip510)" d="M 0 0 M2273.84 1449.29 L2292.2 1449.29 L2292.2 1453.23 L2278.12 1453.23 L2278.12 1461.7 Q2279.14 1461.35 2280.16 1461.19 Q2281.18 1461 2282.2 1461 Q2287.98 1461 2291.36 1464.18 Q2294.74 1467.35 2294.74 1472.76 Q2294.74 1478.34 2291.27 1481.44 Q2287.8 1484.52 2281.48 1484.52 Q2279.3 1484.52 2277.03 1484.15 Q2274.79 1483.78 2272.38 1483.04 L2272.38 1478.34 Q2274.46 1479.48 2276.69 1480.03 Q2278.91 1480.59 2281.39 1480.59 Q2285.39 1480.59 2287.73 1478.48 Q2290.07 1476.38 2290.07 1472.76 Q2290.07 1469.15 2287.73 1467.05 Q2285.39 1464.94 2281.39 1464.94 Q2279.51 1464.94 2277.64 1465.36 Q2275.78 1465.77 2273.84 1466.65 L2273.84 1449.29 Z" fill="#000000" fill-rule="evenodd" fill-opacity="1" /><path clip-path="url(#clip510)" d="M 0 0 M2313.96 1452.37 Q2310.34 1452.37 2308.52 1455.94 Q2306.71 1459.48 2306.71 1466.61 Q2306.71 1473.71 2308.52 1477.28 Q2310.34 1480.82 2313.96 1480.82 Q2317.59 1480.82 2319.4 1477.28 Q2321.22 1473.71 2321.22 1466.61 Q2321.22 1459.48 2319.4 1455.94 Q2317.59 1452.37 2313.96 1452.37 M2313.96 1448.67 Q2319.77 1448.67 2322.82 1453.27 Q2325.9 1457.86 2325.9 1466.61 Q2325.9 1475.33 2322.82 1479.94 Q2319.77 1484.52 2313.96 1484.52 Q2308.15 1484.52 2305.07 1479.94 Q2302.01 1475.33 2302.01 1466.61 Q2302.01 1457.86 2305.07 1453.27 Q2308.15 1448.67 2313.96 1448.67 Z" fill="#000000" fill-rule="evenodd" fill-opacity="1" /><path clip-path="url(#clip510)" d="M 0 0 M1089.7 1518.52 L1089.7 1523.39 L1084.1 1523.39 Q1080.95 1523.39 1079.71 1524.66 Q1078.5 1525.93 1078.5 1529.24 L1078.5 1532.4 L1088.14 1532.4 L1088.14 1536.95 L1078.5 1536.95 L1078.5 1568.04 L1072.61 1568.04 L1072.61 1536.95 L1067.01 1536.95 L1067.01 1532.4 L1072.61 1532.4 L1072.61 1529.91 Q1072.61 1523.96 1075.38 1521.26 Q1078.15 1518.52 1084.17 1518.52 L1089.7 1518.52 Z" fill="#000000" fill-rule="evenodd" fill-opacity="1" /><path clip-path="url(#clip510)" d="M 0 0 M1115.26 1537.87 Q1114.28 1537.3 1113.1 1537.04 Q1111.95 1536.76 1110.55 1536.76 Q1105.59 1536.76 1102.91 1540 Q1100.27 1543.22 1100.27 1549.27 L1100.27 1568.04 L1094.38 1568.04 L1094.38 1532.4 L1100.27 1532.4 L1100.27 1537.93 Q1102.12 1534.69 1105.08 1533.13 Q1108.04 1531.54 1112.27 1531.54 Q1112.88 1531.54 1113.61 1531.63 Q1114.34 1531.7 1115.23 1531.85 L1115.26 1537.87 Z" fill="#000000" fill-rule="evenodd" fill-opacity="1" /><path clip-path="url(#clip510)" d="M 0 0 M1150.46 1548.76 L1150.46 1551.62 L1123.54 1551.62 Q1123.92 1557.67 1127.17 1560.85 Q1130.44 1564 1136.27 1564 Q1139.64 1564 1142.79 1563.17 Q1145.98 1562.35 1149.1 1560.69 L1149.1 1566.23 Q1145.95 1567.57 1142.63 1568.27 Q1139.32 1568.97 1135.92 1568.97 Q1127.39 1568.97 1122.39 1564 Q1117.43 1559.04 1117.43 1550.57 Q1117.43 1541.82 1122.14 1536.69 Q1126.88 1531.54 1134.9 1531.54 Q1142.09 1531.54 1146.26 1536.18 Q1150.46 1540.8 1150.46 1548.76 M1144.61 1547.04 Q1144.54 1542.23 1141.9 1539.37 Q1139.29 1536.5 1134.96 1536.5 Q1130.06 1536.5 1127.1 1539.27 Q1124.17 1542.04 1123.73 1547.07 L1144.61 1547.04 Z" fill="#000000" fill-rule="evenodd" fill-opacity="1" /><path clip-path="url(#clip510)" d="M 0 0 M1163.58 1550.25 Q1163.58 1556.71 1166.22 1560.4 Q1168.89 1564.07 1173.54 1564.07 Q1178.19 1564.07 1180.86 1560.4 Q1183.53 1556.71 1183.53 1550.25 Q1183.53 1543.79 1180.86 1540.13 Q1178.19 1536.44 1173.54 1536.44 Q1168.89 1536.44 1166.22 1540.13 Q1163.58 1543.79 1163.58 1550.25 M1183.53 1562.7 Q1181.69 1565.88 1178.86 1567.44 Q1176.05 1568.97 1172.11 1568.97 Q1165.65 1568.97 1161.57 1563.81 Q1157.53 1558.65 1157.53 1550.25 Q1157.53 1541.85 1161.57 1536.69 Q1165.65 1531.54 1172.11 1531.54 Q1176.05 1531.54 1178.86 1533.1 Q1181.69 1534.62 1183.53 1537.81 L1183.53 1532.4 L1189.39 1532.4 L1189.39 1581.6 L1183.53 1581.6 L1183.53 1562.7 Z" fill="#000000" fill-rule="evenodd" fill-opacity="1" /><path clip-path="url(#clip510)" d="M 0 0 M1200.85 1553.98 L1200.85 1532.4 L1206.71 1532.4 L1206.71 1553.75 Q1206.71 1558.81 1208.68 1561.36 Q1210.65 1563.87 1214.6 1563.87 Q1219.34 1563.87 1222.08 1560.85 Q1224.85 1557.83 1224.85 1552.61 L1224.85 1532.4 L1230.7 1532.4 L1230.7 1568.04 L1224.85 1568.04 L1224.85 1562.57 Q1222.72 1565.82 1219.88 1567.41 Q1217.08 1568.97 1213.36 1568.97 Q1207.21 1568.97 1204.03 1565.15 Q1200.85 1561.33 1200.85 1553.98 M1215.59 1531.54 L1215.59 1531.54 Z" fill="#000000" fill-rule="evenodd" fill-opacity="1" /><path clip-path="url(#clip510)" d="M 0 0 M1273.26 1548.76 L1273.26 1551.62 L1246.33 1551.62 Q1246.71 1557.67 1249.96 1560.85 Q1253.24 1564 1259.06 1564 Q1262.44 1564 1265.59 1563.17 Q1268.77 1562.35 1271.89 1560.69 L1271.89 1566.23 Q1268.74 1567.57 1265.43 1568.27 Q1262.12 1568.97 1258.71 1568.97 Q1250.18 1568.97 1245.19 1564 Q1240.22 1559.04 1240.22 1550.57 Q1240.22 1541.82 1244.93 1536.69 Q1249.67 1531.54 1257.69 1531.54 Q1264.89 1531.54 1269.06 1536.18 Q1273.26 1540.8 1273.26 1548.76 M1267.4 1547.04 Q1267.34 1542.23 1264.7 1539.37 Q1262.09 1536.5 1257.76 1536.5 Q1252.86 1536.5 1249.9 1539.27 Q1246.97 1542.04 1246.52 1547.07 L1267.4 1547.04 Z" fill="#000000" fill-rule="evenodd" fill-opacity="1" /><path clip-path="url(#clip510)" d="M 0 0 M1312.5 1546.53 L1312.5 1568.04 L1306.65 1568.04 L1306.65 1546.72 Q1306.65 1541.66 1304.67 1539.14 Q1302.7 1536.63 1298.75 1536.63 Q1294.01 1536.63 1291.27 1539.65 Q1288.54 1542.68 1288.54 1547.9 L1288.54 1568.04 L1282.65 1568.04 L1282.65 1532.4 L1288.54 1532.4 L1288.54 1537.93 Q1290.64 1534.72 1293.47 1533.13 Q1296.33 1531.54 1300.06 1531.54 Q1306.2 1531.54 1309.35 1535.36 Q1312.5 1539.14 1312.5 1546.53 Z" fill="#000000" fill-rule="evenodd" fill-opacity="1" /><path clip-path="url(#clip510)" d="M 0 0 M1349.84 1533.76 L1349.84 1539.24 Q1347.36 1537.87 1344.84 1537.2 Q1342.36 1536.5 1339.81 1536.5 Q1334.12 1536.5 1330.96 1540.13 Q1327.81 1543.73 1327.81 1550.25 Q1327.81 1556.78 1330.96 1560.4 Q1334.12 1564 1339.81 1564 Q1342.36 1564 1344.84 1563.33 Q1347.36 1562.63 1349.84 1561.26 L1349.84 1566.68 Q1347.39 1567.82 1344.75 1568.39 Q1342.14 1568.97 1339.18 1568.97 Q1331.12 1568.97 1326.38 1563.91 Q1321.64 1558.85 1321.64 1550.25 Q1321.64 1541.53 1326.41 1536.53 Q1331.22 1531.54 1339.56 1531.54 Q1342.26 1531.54 1344.84 1532.11 Q1347.42 1532.65 1349.84 1533.76 Z" fill="#000000" fill-rule="evenodd" fill-opacity="1" /><path clip-path="url(#clip510)" d="M 0 0 M1374.86 1571.35 Q1372.37 1577.72 1370.02 1579.66 Q1367.66 1581.6 1363.72 1581.6 L1359.04 1581.6 L1359.04 1576.7 L1362.47 1576.7 Q1364.89 1576.7 1366.23 1575.56 Q1367.57 1574.41 1369.19 1570.14 L1370.24 1567.47 L1355.82 1532.4 L1362.03 1532.4 L1373.17 1560.28 L1384.31 1532.4 L1390.52 1532.4 L1374.86 1571.35 Z" fill="#000000" fill-rule="evenodd" fill-opacity="1" /><path clip-path="url(#clip510)" d="M 0 0 M1433.39 1518.58 Q1429.12 1525.9 1427.05 1533.06 Q1424.99 1540.23 1424.99 1547.58 Q1424.99 1554.93 1427.05 1562.16 Q1429.16 1569.35 1433.39 1576.64 L1428.3 1576.64 Q1423.52 1569.16 1421.13 1561.93 Q1418.78 1554.71 1418.78 1547.58 Q1418.78 1540.48 1421.13 1533.29 Q1423.49 1526.09 1428.3 1518.58 L1433.39 1518.58 Z" fill="#000000" fill-rule="evenodd" fill-opacity="1" /><path clip-path="url(#clip510)" d="M 0 0 M1477.41 1561.26 L1477.41 1548.5 L1466.9 1548.5 L1466.9 1543.22 L1483.77 1543.22 L1483.77 1563.62 Q1480.05 1566.26 1475.56 1567.63 Q1471.07 1568.97 1465.98 1568.97 Q1454.84 1568.97 1448.54 1562.47 Q1442.27 1555.95 1442.27 1544.33 Q1442.27 1532.68 1448.54 1526.19 Q1454.84 1519.66 1465.98 1519.66 Q1470.63 1519.66 1474.8 1520.81 Q1479 1521.96 1482.53 1524.18 L1482.53 1531.03 Q1478.97 1528 1474.96 1526.48 Q1470.95 1524.95 1466.52 1524.95 Q1457.8 1524.95 1453.41 1529.82 Q1449.05 1534.69 1449.05 1544.33 Q1449.05 1553.94 1453.41 1558.81 Q1457.8 1563.68 1466.52 1563.68 Q1469.93 1563.68 1472.6 1563.11 Q1475.27 1562.51 1477.41 1561.26 Z" fill="#000000" fill-rule="evenodd" fill-opacity="1" /><path clip-path="url(#clip510)" d="M 0 0 M1495.52 1520.52 L1501.95 1520.52 L1501.95 1540 L1525.31 1540 L1525.31 1520.52 L1531.74 1520.52 L1531.74 1568.04 L1525.31 1568.04 L1525.31 1545.41 L1501.95 1545.41 L1501.95 1568.04 L1495.52 1568.04 L1495.52 1520.52 Z" fill="#000000" fill-rule="evenodd" fill-opacity="1" /><path clip-path="url(#clip510)" d="M 0 0 M1541.73 1532.4 L1569.55 1532.4 L1569.55 1537.74 L1547.53 1563.37 L1569.55 1563.37 L1569.55 1568.04 L1540.94 1568.04 L1540.94 1562.7 L1562.96 1537.07 L1541.73 1537.07 L1541.73 1532.4 Z" fill="#000000" fill-rule="evenodd" fill-opacity="1" /><path clip-path="url(#clip510)" d="M 0 0 M1577.57 1518.58 L1582.66 1518.58 Q1587.44 1526.09 1589.79 1533.29 Q1592.18 1540.48 1592.18 1547.58 Q1592.18 1554.71 1589.79 1561.93 Q1587.44 1569.16 1582.66 1576.64 L1577.57 1576.64 Q1581.8 1569.35 1583.87 1562.16 Q1585.97 1554.93 1585.97 1547.58 Q1585.97 1540.23 1583.87 1533.06 Q1581.8 1525.9 1577.57 1518.58 Z" fill="#000000" fill-rule="evenodd" fill-opacity="1" /><polyline clip-path="url(#clip513)" style="stroke:#000000; stroke-width:2; stroke-opacity:0.1; fill:none" points="
  306.435,1388.64 2352.76,1388.64 
  "/>
<polyline clip-path="url(#clip513)" style="stroke:#000000; stroke-width:2; stroke-opacity:0.1; fill:none" points="
  306.435,1147.5 2352.76,1147.5 
  "/>
<polyline clip-path="url(#clip513)" style="stroke:#000000; stroke-width:2; stroke-opacity:0.1; fill:none" points="
  306.435,906.355 2352.76,906.355 
  "/>
<polyline clip-path="url(#clip513)" style="stroke:#000000; stroke-width:2; stroke-opacity:0.1; fill:none" points="
  306.435,665.215 2352.76,665.215 
  "/>
<polyline clip-path="url(#clip513)" style="stroke:#000000; stroke-width:2; stroke-opacity:0.1; fill:none" points="
  306.435,424.075 2352.76,424.075 
  "/>
<polyline clip-path="url(#clip510)" style="stroke:#000000; stroke-width:4; stroke-opacity:1; fill:none" points="
  306.435,1423.18 306.435,202.606 
  "/>
<polyline clip-path="url(#clip510)" style="stroke:#000000; stroke-width:4; stroke-opacity:1; fill:none" points="
  306.435,1388.64 330.991,1388.64 
  "/>
<polyline clip-path="url(#clip510)" style="stroke:#000000; stroke-width:4; stroke-opacity:1; fill:none" points="
  306.435,1147.5 330.991,1147.5 
  "/>
<polyline clip-path="url(#clip510)" style="stroke:#000000; stroke-width:4; stroke-opacity:1; fill:none" points="
  306.435,906.355 330.991,906.355 
  "/>
<polyline clip-path="url(#clip510)" style="stroke:#000000; stroke-width:4; stroke-opacity:1; fill:none" points="
  306.435,665.215 330.991,665.215 
  "/>
<polyline clip-path="url(#clip510)" style="stroke:#000000; stroke-width:4; stroke-opacity:1; fill:none" points="
  306.435,424.075 330.991,424.075 
  "/>
<path clip-path="url(#clip510)" d="M 0 0 M258.491 1374.43 Q254.88 1374.43 253.051 1378 Q251.246 1381.54 251.246 1388.67 Q251.246 1395.78 253.051 1399.34 Q254.88 1402.88 258.491 1402.88 Q262.125 1402.88 263.931 1399.34 Q265.759 1395.78 265.759 1388.67 Q265.759 1381.54 263.931 1378 Q262.125 1374.43 258.491 1374.43 M258.491 1370.73 Q264.301 1370.73 267.357 1375.34 Q270.435 1379.92 270.435 1388.67 Q270.435 1397.4 267.357 1402 Q264.301 1406.59 258.491 1406.59 Q252.681 1406.59 249.602 1402 Q246.547 1397.4 246.547 1388.67 Q246.547 1379.92 249.602 1375.34 Q252.681 1370.73 258.491 1370.73 Z" fill="#000000" fill-rule="evenodd" fill-opacity="1" /><path clip-path="url(#clip510)" d="M 0 0 M54.6105 1136.66 L72.9668 1136.66 L72.9668 1140.6 L58.8928 1140.6 L58.8928 1149.07 Q59.9113 1148.72 60.9299 1148.56 Q61.9484 1148.38 62.9669 1148.38 Q68.7539 1148.38 72.1335 1151.55 Q75.5131 1154.72 75.5131 1160.14 Q75.5131 1165.71 72.0409 1168.82 Q68.5687 1171.89 62.2493 1171.89 Q60.0734 1171.89 57.8049 1171.52 Q55.5595 1171.15 53.1521 1170.41 L53.1521 1165.71 Q55.2354 1166.85 57.4577 1167.4 Q59.6799 1167.96 62.1567 1167.96 Q66.1613 1167.96 68.4993 1165.85 Q70.8372 1163.75 70.8372 1160.14 Q70.8372 1156.52 68.4993 1154.42 Q66.1613 1152.31 62.1567 1152.31 Q60.2817 1152.31 58.4067 1152.73 Q56.5549 1153.14 54.6105 1154.02 L54.6105 1136.66 Z" fill="#000000" fill-rule="evenodd" fill-opacity="1" /><path clip-path="url(#clip510)" d="M 0 0 M84.726 1165.34 L89.6103 1165.34 L89.6103 1171.22 L84.726 1171.22 L84.726 1165.34 Z" fill="#000000" fill-rule="evenodd" fill-opacity="1" /><path clip-path="url(#clip510)" d="M 0 0 M109.795 1139.74 Q106.184 1139.74 104.356 1143.31 Q102.55 1146.85 102.55 1153.98 Q102.55 1161.08 104.356 1164.65 Q106.184 1168.19 109.795 1168.19 Q113.43 1168.19 115.235 1164.65 Q117.064 1161.08 117.064 1153.98 Q117.064 1146.85 115.235 1143.31 Q113.43 1139.74 109.795 1139.74 M109.795 1136.04 Q115.605 1136.04 118.661 1140.64 Q121.74 1145.23 121.74 1153.98 Q121.74 1162.7 118.661 1167.31 Q115.605 1171.89 109.795 1171.89 Q103.985 1171.89 100.906 1167.31 Q97.851 1162.7 97.851 1153.98 Q97.851 1145.23 100.906 1140.64 Q103.985 1136.04 109.795 1136.04 Z" fill="#000000" fill-rule="evenodd" fill-opacity="1" /><path clip-path="url(#clip510)" d="M 0 0 M139.957 1139.74 Q136.346 1139.74 134.517 1143.31 Q132.712 1146.85 132.712 1153.98 Q132.712 1161.08 134.517 1164.65 Q136.346 1168.19 139.957 1168.19 Q143.591 1168.19 145.397 1164.65 Q147.226 1161.08 147.226 1153.98 Q147.226 1146.85 145.397 1143.31 Q143.591 1139.74 139.957 1139.74 M139.957 1136.04 Q145.767 1136.04 148.823 1140.64 Q151.902 1145.23 151.902 1153.98 Q151.902 1162.7 148.823 1167.31 Q145.767 1171.89 139.957 1171.89 Q134.147 1171.89 131.068 1167.31 Q128.013 1162.7 128.013 1153.98 Q128.013 1145.23 131.068 1140.64 Q134.147 1136.04 139.957 1136.04 Z" fill="#000000" fill-rule="evenodd" fill-opacity="1" /><path clip-path="url(#clip510)" d="M 0 0 M188.29 1145.76 L177.712 1156.39 L188.29 1166.96 L185.536 1169.76 L174.911 1159.14 L164.286 1169.76 L161.554 1166.96 L172.11 1156.39 L161.554 1145.76 L164.286 1142.96 L174.911 1153.58 L185.536 1142.96 L188.29 1145.76 Z" fill="#000000" fill-rule="evenodd" fill-opacity="1" /><path clip-path="url(#clip510)" d="M 0 0 M200.651 1167.29 L208.29 1167.29 L208.29 1140.92 L199.98 1142.59 L199.98 1138.33 L208.244 1136.66 L212.92 1136.66 L212.92 1167.29 L220.559 1167.29 L220.559 1171.22 L200.651 1171.22 L200.651 1167.29 Z" fill="#000000" fill-rule="evenodd" fill-opacity="1" /><path clip-path="url(#clip510)" d="M 0 0 M240.003 1139.74 Q236.392 1139.74 234.563 1143.31 Q232.758 1146.85 232.758 1153.98 Q232.758 1161.08 234.563 1164.65 Q236.392 1168.19 240.003 1168.19 Q243.637 1168.19 245.443 1164.65 Q247.271 1161.08 247.271 1153.98 Q247.271 1146.85 245.443 1143.31 Q243.637 1139.74 240.003 1139.74 M240.003 1136.04 Q245.813 1136.04 248.869 1140.64 Q251.947 1145.23 251.947 1153.98 Q251.947 1162.7 248.869 1167.31 Q245.813 1171.89 240.003 1171.89 Q234.193 1171.89 231.114 1167.31 Q228.059 1162.7 228.059 1153.98 Q228.059 1145.23 231.114 1140.64 Q234.193 1136.04 240.003 1136.04 Z" fill="#000000" fill-rule="evenodd" fill-opacity="1" /><path clip-path="url(#clip510)" d="M 0 0 M264.643 1128.67 Q267.37 1129.26 268.893 1131.1 Q270.435 1132.94 270.435 1135.65 Q270.435 1139.81 267.577 1142.08 Q264.718 1144.36 259.452 1144.36 Q257.684 1144.36 255.803 1144 Q253.941 1143.66 251.947 1142.97 L251.947 1139.3 Q253.527 1140.22 255.408 1140.69 Q257.289 1141.16 259.339 1141.16 Q262.912 1141.16 264.774 1139.75 Q266.655 1138.34 266.655 1135.65 Q266.655 1133.17 264.906 1131.78 Q263.176 1130.36 260.072 1130.36 L256.8 1130.36 L256.8 1127.24 L260.223 1127.24 Q263.025 1127.24 264.511 1126.13 Q265.997 1125 265.997 1122.9 Q265.997 1120.74 264.455 1119.59 Q262.931 1118.42 260.072 1118.42 Q258.511 1118.42 256.725 1118.76 Q254.938 1119.1 252.794 1119.81 L252.794 1116.43 Q254.957 1115.83 256.837 1115.53 Q258.737 1115.22 260.411 1115.22 Q264.737 1115.22 267.257 1117.2 Q269.777 1119.16 269.777 1122.5 Q269.777 1124.84 268.442 1126.45 Q267.106 1128.05 264.643 1128.67 Z" fill="#000000" fill-rule="evenodd" fill-opacity="1" /><path clip-path="url(#clip510)" d="M 0 0 M53.3995 926.148 L61.0384 926.148 L61.0384 899.782 L52.7282 901.449 L52.7282 897.19 L60.9921 895.523 L65.668 895.523 L65.668 926.148 L73.3068 926.148 L73.3068 930.083 L53.3995 930.083 L53.3995 926.148 Z" fill="#000000" fill-rule="evenodd" fill-opacity="1" /><path clip-path="url(#clip510)" d="M 0 0 M82.7512 924.203 L87.6354 924.203 L87.6354 930.083 L82.7512 930.083 L82.7512 924.203 Z" fill="#000000" fill-rule="evenodd" fill-opacity="1" /><path clip-path="url(#clip510)" d="M 0 0 M107.821 898.602 Q104.209 898.602 102.381 902.166 Q100.575 905.708 100.575 912.838 Q100.575 919.944 102.381 923.509 Q104.209 927.051 107.821 927.051 Q111.455 927.051 113.26 923.509 Q115.089 919.944 115.089 912.838 Q115.089 905.708 113.26 902.166 Q111.455 898.602 107.821 898.602 M107.821 894.898 Q113.631 894.898 116.686 899.504 Q119.765 904.088 119.765 912.838 Q119.765 921.564 116.686 926.171 Q113.631 930.754 107.821 930.754 Q102.01 930.754 98.9317 926.171 Q95.8761 921.564 95.8761 912.838 Q95.8761 904.088 98.9317 899.504 Q102.01 894.898 107.821 894.898 Z" fill="#000000" fill-rule="evenodd" fill-opacity="1" /><path clip-path="url(#clip510)" d="M 0 0 M137.982 898.602 Q134.371 898.602 132.543 902.166 Q130.737 905.708 130.737 912.838 Q130.737 919.944 132.543 923.509 Q134.371 927.051 137.982 927.051 Q141.617 927.051 143.422 923.509 Q145.251 919.944 145.251 912.838 Q145.251 905.708 143.422 902.166 Q141.617 898.602 137.982 898.602 M137.982 894.898 Q143.793 894.898 146.848 899.504 Q149.927 904.088 149.927 912.838 Q149.927 921.564 146.848 926.171 Q143.793 930.754 137.982 930.754 Q132.172 930.754 129.094 926.171 Q126.038 921.564 126.038 912.838 Q126.038 904.088 129.094 899.504 Q132.172 894.898 137.982 894.898 Z" fill="#000000" fill-rule="evenodd" fill-opacity="1" /><path clip-path="url(#clip510)" d="M 0 0 M186.315 904.62 L175.737 915.245 L186.315 925.824 L183.561 928.625 L172.936 918 L162.311 928.625 L159.58 925.824 L170.135 915.245 L159.58 904.62 L162.311 901.819 L172.936 912.444 L183.561 901.819 L186.315 904.62 Z" fill="#000000" fill-rule="evenodd" fill-opacity="1" /><path clip-path="url(#clip510)" d="M 0 0 M198.677 926.148 L206.315 926.148 L206.315 899.782 L198.005 901.449 L198.005 897.19 L206.269 895.523 L210.945 895.523 L210.945 926.148 L218.584 926.148 L218.584 930.083 L198.677 930.083 L198.677 926.148 Z" fill="#000000" fill-rule="evenodd" fill-opacity="1" /><path clip-path="url(#clip510)" d="M 0 0 M238.028 898.602 Q234.417 898.602 232.588 902.166 Q230.783 905.708 230.783 912.838 Q230.783 919.944 232.588 923.509 Q234.417 927.051 238.028 927.051 Q241.662 927.051 243.468 923.509 Q245.297 919.944 245.297 912.838 Q245.297 905.708 243.468 902.166 Q241.662 898.602 238.028 898.602 M238.028 894.898 Q243.838 894.898 246.894 899.504 Q249.973 904.088 249.973 912.838 Q249.973 921.564 246.894 926.171 Q243.838 930.754 238.028 930.754 Q232.218 930.754 229.139 926.171 Q226.084 921.564 226.084 912.838 Q226.084 904.088 229.139 899.504 Q232.218 894.898 238.028 894.898 Z" fill="#000000" fill-rule="evenodd" fill-opacity="1" /><path clip-path="url(#clip510)" d="M 0 0 M262.649 877.903 L253.057 892.893 L262.649 892.893 L262.649 877.903 M261.652 874.593 L266.429 874.593 L266.429 892.893 L270.435 892.893 L270.435 896.052 L266.429 896.052 L266.429 902.673 L262.649 902.673 L262.649 896.052 L249.973 896.052 L249.973 892.385 L261.652 874.593 Z" fill="#000000" fill-rule="evenodd" fill-opacity="1" /><path clip-path="url(#clip510)" d="M 0 0 M53.3995 685.008 L61.0384 685.008 L61.0384 658.642 L52.7282 660.309 L52.7282 656.05 L60.9921 654.383 L65.668 654.383 L65.668 685.008 L73.3068 685.008 L73.3068 688.943 L53.3995 688.943 L53.3995 685.008 Z" fill="#000000" fill-rule="evenodd" fill-opacity="1" /><path clip-path="url(#clip510)" d="M 0 0 M82.7512 683.063 L87.6354 683.063 L87.6354 688.943 L82.7512 688.943 L82.7512 683.063 Z" fill="#000000" fill-rule="evenodd" fill-opacity="1" /><path clip-path="url(#clip510)" d="M 0 0 M97.8669 654.383 L116.223 654.383 L116.223 658.318 L102.149 658.318 L102.149 666.79 Q103.168 666.443 104.186 666.281 Q105.205 666.096 106.223 666.096 Q112.01 666.096 115.39 669.267 Q118.77 672.438 118.77 677.855 Q118.77 683.434 115.297 686.536 Q111.825 689.614 105.506 689.614 Q103.33 689.614 101.061 689.244 Q98.8159 688.874 96.4085 688.133 L96.4085 683.434 Q98.4919 684.568 100.714 685.124 Q102.936 685.679 105.413 685.679 Q109.418 685.679 111.756 683.573 Q114.094 681.466 114.094 677.855 Q114.094 674.244 111.756 672.138 Q109.418 670.031 105.413 670.031 Q103.538 670.031 101.663 670.448 Q99.8113 670.864 97.8669 671.744 L97.8669 654.383 Z" fill="#000000" fill-rule="evenodd" fill-opacity="1" /><path clip-path="url(#clip510)" d="M 0 0 M137.982 657.462 Q134.371 657.462 132.543 661.026 Q130.737 664.568 130.737 671.698 Q130.737 678.804 132.543 682.369 Q134.371 685.911 137.982 685.911 Q141.617 685.911 143.422 682.369 Q145.251 678.804 145.251 671.698 Q145.251 664.568 143.422 661.026 Q141.617 657.462 137.982 657.462 M137.982 653.758 Q143.793 653.758 146.848 658.364 Q149.927 662.948 149.927 671.698 Q149.927 680.425 146.848 685.031 Q143.793 689.614 137.982 689.614 Q132.172 689.614 129.094 685.031 Q126.038 680.425 126.038 671.698 Q126.038 662.948 129.094 658.364 Q132.172 653.758 137.982 653.758 Z" fill="#000000" fill-rule="evenodd" fill-opacity="1" /><path clip-path="url(#clip510)" d="M 0 0 M186.315 663.48 L175.737 674.105 L186.315 684.684 L183.561 687.485 L172.936 676.86 L162.311 687.485 L159.58 684.684 L170.135 674.105 L159.58 663.48 L162.311 660.679 L172.936 671.304 L183.561 660.679 L186.315 663.48 Z" fill="#000000" fill-rule="evenodd" fill-opacity="1" /><path clip-path="url(#clip510)" d="M 0 0 M198.677 685.008 L206.315 685.008 L206.315 658.642 L198.005 660.309 L198.005 656.05 L206.269 654.383 L210.945 654.383 L210.945 685.008 L218.584 685.008 L218.584 688.943 L198.677 688.943 L198.677 685.008 Z" fill="#000000" fill-rule="evenodd" fill-opacity="1" /><path clip-path="url(#clip510)" d="M 0 0 M238.028 657.462 Q234.417 657.462 232.588 661.026 Q230.783 664.568 230.783 671.698 Q230.783 678.804 232.588 682.369 Q234.417 685.911 238.028 685.911 Q241.662 685.911 243.468 682.369 Q245.297 678.804 245.297 671.698 Q245.297 664.568 243.468 661.026 Q241.662 657.462 238.028 657.462 M238.028 653.758 Q243.838 653.758 246.894 658.364 Q249.973 662.948 249.973 671.698 Q249.973 680.425 246.894 685.031 Q243.838 689.614 238.028 689.614 Q232.218 689.614 229.139 685.031 Q226.084 680.425 226.084 671.698 Q226.084 662.948 229.139 658.364 Q232.218 653.758 238.028 653.758 Z" fill="#000000" fill-rule="evenodd" fill-opacity="1" /><path clip-path="url(#clip510)" d="M 0 0 M262.649 636.763 L253.057 651.753 L262.649 651.753 L262.649 636.763 M261.652 633.453 L266.429 633.453 L266.429 651.753 L270.435 651.753 L270.435 654.912 L266.429 654.912 L266.429 661.533 L262.649 661.533 L262.649 654.912 L249.973 654.912 L249.973 651.245 L261.652 633.453 Z" fill="#000000" fill-rule="evenodd" fill-opacity="1" /><path clip-path="url(#clip510)" d="M 0 0 M56.6171 443.868 L72.9365 443.868 L72.9365 447.803 L50.9921 447.803 L50.9921 443.868 Q53.6541 441.113 58.2375 436.484 Q62.8439 431.831 64.0245 430.488 Q66.2698 427.965 67.1494 426.229 Q68.0522 424.47 68.0522 422.78 Q68.0522 420.025 66.1078 418.289 Q64.1865 416.553 61.0847 416.553 Q58.8856 416.553 56.4319 417.317 Q54.0014 418.081 51.2236 419.632 L51.2236 414.91 Q54.0477 413.775 56.5014 413.197 Q58.955 412.618 60.9921 412.618 Q66.3624 412.618 69.5568 415.303 Q72.7513 417.988 72.7513 422.479 Q72.7513 424.609 71.9411 426.53 Q71.1541 428.428 69.0476 431.021 Q68.4689 431.692 65.367 434.91 Q62.2652 438.104 56.6171 443.868 Z" fill="#000000" fill-rule="evenodd" fill-opacity="1" /><path clip-path="url(#clip510)" d="M 0 0 M82.7512 441.923 L87.6354 441.923 L87.6354 447.803 L82.7512 447.803 L82.7512 441.923 Z" fill="#000000" fill-rule="evenodd" fill-opacity="1" /><path clip-path="url(#clip510)" d="M 0 0 M107.821 416.322 Q104.209 416.322 102.381 419.886 Q100.575 423.428 100.575 430.558 Q100.575 437.664 102.381 441.229 Q104.209 444.771 107.821 444.771 Q111.455 444.771 113.26 441.229 Q115.089 437.664 115.089 430.558 Q115.089 423.428 113.26 419.886 Q111.455 416.322 107.821 416.322 M107.821 412.618 Q113.631 412.618 116.686 417.224 Q119.765 421.808 119.765 430.558 Q119.765 439.285 116.686 443.891 Q113.631 448.474 107.821 448.474 Q102.01 448.474 98.9317 443.891 Q95.8761 439.285 95.8761 430.558 Q95.8761 421.808 98.9317 417.224 Q102.01 412.618 107.821 412.618 Z" fill="#000000" fill-rule="evenodd" fill-opacity="1" /><path clip-path="url(#clip510)" d="M 0 0 M137.982 416.322 Q134.371 416.322 132.543 419.886 Q130.737 423.428 130.737 430.558 Q130.737 437.664 132.543 441.229 Q134.371 444.771 137.982 444.771 Q141.617 444.771 143.422 441.229 Q145.251 437.664 145.251 430.558 Q145.251 423.428 143.422 419.886 Q141.617 416.322 137.982 416.322 M137.982 412.618 Q143.793 412.618 146.848 417.224 Q149.927 421.808 149.927 430.558 Q149.927 439.285 146.848 443.891 Q143.793 448.474 137.982 448.474 Q132.172 448.474 129.094 443.891 Q126.038 439.285 126.038 430.558 Q126.038 421.808 129.094 417.224 Q132.172 412.618 137.982 412.618 Z" fill="#000000" fill-rule="evenodd" fill-opacity="1" /><path clip-path="url(#clip510)" d="M 0 0 M186.315 422.34 L175.737 432.965 L186.315 443.544 L183.561 446.345 L172.936 435.72 L162.311 446.345 L159.58 443.544 L170.135 432.965 L159.58 422.34 L162.311 419.539 L172.936 430.164 L183.561 419.539 L186.315 422.34 Z" fill="#000000" fill-rule="evenodd" fill-opacity="1" /><path clip-path="url(#clip510)" d="M 0 0 M198.677 443.868 L206.315 443.868 L206.315 417.502 L198.005 419.169 L198.005 414.91 L206.269 413.243 L210.945 413.243 L210.945 443.868 L218.584 443.868 L218.584 447.803 L198.677 447.803 L198.677 443.868 Z" fill="#000000" fill-rule="evenodd" fill-opacity="1" /><path clip-path="url(#clip510)" d="M 0 0 M238.028 416.322 Q234.417 416.322 232.588 419.886 Q230.783 423.428 230.783 430.558 Q230.783 437.664 232.588 441.229 Q234.417 444.771 238.028 444.771 Q241.662 444.771 243.468 441.229 Q245.297 437.664 245.297 430.558 Q245.297 423.428 243.468 419.886 Q241.662 416.322 238.028 416.322 M238.028 412.618 Q243.838 412.618 246.894 417.224 Q249.973 421.808 249.973 430.558 Q249.973 439.285 246.894 443.891 Q243.838 448.474 238.028 448.474 Q232.218 448.474 229.139 443.891 Q226.084 439.285 226.084 430.558 Q226.084 421.808 229.139 417.224 Q232.218 412.618 238.028 412.618 Z" fill="#000000" fill-rule="evenodd" fill-opacity="1" /><path clip-path="url(#clip510)" d="M 0 0 M262.649 395.623 L253.057 410.613 L262.649 410.613 L262.649 395.623 M261.652 392.313 L266.429 392.313 L266.429 410.613 L270.435 410.613 L270.435 413.772 L266.429 413.772 L266.429 420.393 L262.649 420.393 L262.649 413.772 L249.973 413.772 L249.973 410.105 L261.652 392.313 Z" fill="#000000" fill-rule="evenodd" fill-opacity="1" /><path clip-path="url(#clip510)" d="M 0 0 M1258.08 150.994 L1250.87 171.898 L1181.27 171.898 Q1180.32 171.898 1179.95 171.857 Q1179.58 171.816 1179.3 171.611 Q1179.01 171.406 1179.01 170.955 Q1179.01 170.586 1179.75 169.644 L1209.55 132.794 L1178.93 90.6574 Q1178.93 88.7309 1179.26 88.362 Q1179.58 87.9521 1181.27 87.9521 L1250.87 87.9521 L1258.08 107.586 L1255.99 107.586 Q1255.05 105.045 1253.53 102.913 Q1252.05 100.741 1250.33 99.1832 Q1248.65 97.6256 1246.44 96.3959 Q1244.27 95.1252 1242.22 94.3464 Q1240.21 93.5267 1237.71 92.9528 Q1235.21 92.338 1233.2 92.051 Q1231.23 91.7231 1228.77 91.5592 Q1226.31 91.3952 1224.75 91.3542 Q1223.2 91.3132 1221.23 91.3132 L1187.99 91.3132 L1215.25 128.736 Q1215.86 129.679 1215.86 129.925 Q1215.86 130.294 1215.08 131.278 L1185.98 167.266 L1221.64 167.266 Q1233.12 167.266 1241.11 164.848 Q1246.52 163.003 1250.46 159.355 Q1254.43 155.707 1255.99 150.994 L1258.08 150.994 Z" fill="#000000" fill-rule="evenodd" fill-opacity="1" /><path clip-path="url(#clip510)" d="M 0 0 M1164.93 192.981 Q1164.93 194.243 1163.89 195.19 Q1162.89 196.108 1161.8 196.108 Q1160.8 196.108 1160.16 195.505 Q1159.56 194.874 1159.56 193.985 Q1159.56 192.808 1160.57 191.833 Q1161.57 190.857 1162.75 190.857 Q1163.72 190.857 1164.32 191.46 Q1164.93 192.062 1164.93 192.981 M1165.44 221.3 Q1165.44 221.53 1165.19 222.448 Q1164.93 223.337 1164.3 224.714 Q1163.69 226.063 1162.86 227.325 Q1162.03 228.588 1160.65 229.477 Q1159.3 230.367 1157.75 230.367 Q1155.66 230.367 1154.28 228.99 Q1152.93 227.612 1152.93 225.547 Q1152.93 224.428 1154.28 220.841 Q1158.18 210.397 1158.33 209.967 Q1158.99 208.331 1158.99 206.896 Q1158.99 206.236 1158.84 205.835 Q1158.7 205.404 1158.41 205.261 Q1158.13 205.089 1157.96 205.06 Q1157.81 205.031 1157.52 205.031 Q1155.83 205.031 1154.25 206.753 Q1152.68 208.475 1151.59 212.319 Q1151.36 213.037 1151.21 213.209 Q1151.07 213.381 1150.64 213.381 Q1149.92 213.352 1149.92 212.778 Q1149.92 212.606 1150.12 211.946 Q1150.32 211.258 1150.7 210.225 Q1151.07 209.163 1151.73 208.073 Q1152.39 206.954 1153.19 205.978 Q1154.02 205.003 1155.2 204.371 Q1156.38 203.74 1157.7 203.74 Q1159.85 203.74 1161.17 205.146 Q1162.52 206.523 1162.52 208.561 Q1162.52 209.68 1161.74 211.659 Q1160.8 214.242 1160.45 215.074 L1158.16 221.243 Q1157.32 223.481 1157.07 224.169 Q1156.84 224.829 1156.64 225.633 Q1156.46 226.407 1156.46 227.125 Q1156.46 228.129 1156.78 228.588 Q1157.12 229.047 1157.87 229.047 Q1159.94 229.047 1161.46 227.01 Q1162.98 224.944 1163.87 221.788 Q1163.89 221.702 1163.92 221.558 Q1164.15 220.841 1164.38 220.755 Q1164.5 220.726 1164.73 220.726 Q1165.44 220.726 1165.44 221.3 Z" fill="#000000" fill-rule="evenodd" fill-opacity="1" /><path clip-path="url(#clip510)" d="M 0 0 M1186.28 220.784 Q1186.34 220.066 1187.46 220.066 L1223.47 220.066 Q1225.16 220.066 1225.19 220.726 Q1225.19 221.444 1223.58 221.415 L1187.86 221.415 Q1186.28 221.444 1186.28 220.784 M1186.28 209.307 Q1186.28 208.589 1187.51 208.618 L1223.41 208.618 Q1225.16 208.618 1225.19 209.307 Q1225.19 209.967 1223.7 209.967 L1187.46 209.967 Q1186.28 209.967 1186.28 209.307 Z" fill="#000000" fill-rule="evenodd" fill-opacity="1" /><path clip-path="url(#clip510)" d="M 0 0 M1247.84 196.165 L1247.84 194.329 Q1254.9 194.329 1258.54 190.57 Q1259.55 190.57 1259.72 190.8 Q1259.89 191.029 1259.89 192.091 L1259.89 225.059 Q1259.89 226.809 1260.75 227.354 Q1261.61 227.899 1265.37 227.899 L1267.24 227.899 L1267.24 229.707 Q1265.17 229.535 1257.71 229.535 Q1250.25 229.535 1248.21 229.707 L1248.21 227.899 L1250.08 227.899 Q1253.78 227.899 1254.67 227.383 Q1255.56 226.838 1255.56 225.059 L1255.56 194.616 Q1252.49 196.165 1247.84 196.165 Z" fill="#000000" fill-rule="evenodd" fill-opacity="1" /><path clip-path="url(#clip510)" d="M 0 0 M1157.6 26.0975 L1157.6 24.2611 Q1164.66 24.2611 1168.31 20.5024 Q1169.31 20.5024 1169.48 20.732 Q1169.65 20.9615 1169.65 22.0231 L1169.65 54.9908 Q1169.65 56.741 1170.51 57.2862 Q1171.38 57.8314 1175.13 57.8314 L1177 57.8314 L1177 59.639 Q1174.93 59.4668 1167.47 59.4668 Q1160.01 59.4668 1157.98 59.639 L1157.98 57.8314 L1159.84 57.8314 Q1163.54 57.8314 1164.43 57.3149 Q1165.32 56.7697 1165.32 54.9908 L1165.32 24.5481 Q1162.25 26.0975 1157.6 26.0975 Z" fill="#000000" fill-rule="evenodd" fill-opacity="1" /><path clip-path="url(#clip510)" d="M 0 0 M1181.97 40.8454 Q1181.97 32.209 1184.15 27.5034 Q1187.19 20.5024 1194.37 20.5024 Q1195.89 20.5024 1197.47 20.9328 Q1199.07 21.3345 1201.08 22.9126 Q1203.12 24.4907 1204.35 27.073 Q1206.7 32.0655 1206.7 40.8454 Q1206.7 49.4245 1204.52 54.1013 Q1201.34 60.9301 1194.31 60.9301 Q1191.67 60.9301 1188.97 59.5816 Q1186.3 58.2331 1184.61 54.9908 Q1181.97 50.1418 1181.97 40.8454 M1186.85 40.1281 Q1186.85 48.9941 1187.48 52.5232 Q1188.2 56.3393 1190.15 58.0035 Q1192.13 59.639 1194.31 59.639 Q1196.66 59.639 1198.61 57.8887 Q1200.59 56.1098 1201.2 52.2937 Q1201.86 48.535 1201.83 40.1281 Q1201.83 31.9507 1201.25 28.6798 Q1200.48 24.8637 1198.41 23.343 Q1196.38 21.7936 1194.31 21.7936 Q1193.53 21.7936 1192.7 22.0231 Q1191.9 22.2527 1190.72 22.9126 Q1189.55 23.5725 1188.63 25.208 Q1187.74 26.8435 1187.31 29.311 Q1186.85 32.4959 1186.85 40.1281 Z" fill="#000000" fill-rule="evenodd" fill-opacity="1" /><path clip-path="url(#clip510)" d="M 0 0 M1211.07 40.8454 Q1211.07 32.209 1213.25 27.5034 Q1216.29 20.5024 1223.46 20.5024 Q1224.98 20.5024 1226.56 20.9328 Q1228.17 21.3345 1230.17 22.9126 Q1232.21 24.4907 1233.45 27.073 Q1235.8 32.0655 1235.8 40.8454 Q1235.8 49.4245 1233.62 54.1013 Q1230.43 60.9301 1223.4 60.9301 Q1220.76 60.9301 1218.07 59.5816 Q1215.4 58.2331 1213.71 54.9908 Q1211.07 50.1418 1211.07 40.8454 M1215.94 40.1281 Q1215.94 48.9941 1216.57 52.5232 Q1217.29 56.3393 1219.24 58.0035 Q1221.22 59.639 1223.4 59.639 Q1225.76 59.639 1227.71 57.8887 Q1229.69 56.1098 1230.29 52.2937 Q1230.95 48.535 1230.92 40.1281 Q1230.92 31.9507 1230.35 28.6798 Q1229.57 24.8637 1227.51 23.343 Q1225.47 21.7936 1223.4 21.7936 Q1222.63 21.7936 1221.8 22.0231 Q1220.99 22.2527 1219.82 22.9126 Q1218.64 23.5725 1217.72 25.208 Q1216.83 26.8435 1216.4 29.311 Q1215.94 32.4959 1215.94 40.1281 Z" fill="#000000" fill-rule="evenodd" fill-opacity="1" /><path clip-path="url(#clip510)" d="M 0 0 M1240.16 40.8454 Q1240.16 32.209 1242.34 27.5034 Q1245.38 20.5024 1252.55 20.5024 Q1254.07 20.5024 1255.65 20.9328 Q1257.26 21.3345 1259.27 22.9126 Q1261.31 24.4907 1262.54 27.073 Q1264.89 32.0655 1264.89 40.8454 Q1264.89 49.4245 1262.71 54.1013 Q1259.53 60.9301 1252.5 60.9301 Q1249.86 60.9301 1247.16 59.5816 Q1244.49 58.2331 1242.8 54.9908 Q1240.16 50.1418 1240.16 40.8454 M1245.04 40.1281 Q1245.04 48.9941 1245.67 52.5232 Q1246.39 56.3393 1248.34 58.0035 Q1250.32 59.639 1252.5 59.639 Q1254.85 59.639 1256.8 57.8887 Q1258.78 56.1098 1259.38 52.2937 Q1260.04 48.535 1260.01 40.1281 Q1260.01 31.9507 1259.44 28.6798 Q1258.67 24.8637 1256.6 23.343 Q1254.56 21.7936 1252.5 21.7936 Q1251.72 21.7936 1250.89 22.0231 Q1250.09 22.2527 1248.91 22.9126 Q1247.73 23.5725 1246.82 25.208 Q1245.93 26.8435 1245.5 29.311 Q1245.04 32.4959 1245.04 40.1281 Z" fill="#000000" fill-rule="evenodd" fill-opacity="1" /><path clip-path="url(#clip510)" d="M 0 0 M1332.63 103.718 L1331.91 104.895 Q1327.47 102.972 1321.93 99.902 Q1316.39 102.972 1311.94 104.895 L1311.26 103.718 Q1316.1 99.5003 1321.93 96.2581 Q1327.81 99.529 1332.63 103.718 Z" fill="#000000" fill-rule="evenodd" fill-opacity="1" /><path clip-path="url(#clip510)" d="M 0 0 M1335.38 117.751 Q1335.38 117.792 1335.14 119.268 L1325.79 156.527 Q1325.3 158.495 1323.91 160.462 Q1322.55 162.471 1320.38 164.192 Q1318.25 165.955 1314.97 167.02 Q1311.73 168.127 1308 168.127 Q1302.06 168.127 1299.44 166.856 Q1296.85 165.627 1296.85 163.003 Q1296.85 160.708 1298.29 159.396 Q1299.72 158.126 1301.36 158.126 Q1302.92 158.126 1303.74 159.028 Q1304.56 159.929 1304.56 161.077 Q1304.56 162.348 1303.7 163.618 Q1302.84 164.93 1301.12 165.422 Q1303.86 166.283 1307.84 166.283 Q1316.24 166.283 1319.85 157.388 Q1319.93 157.265 1319.93 157.224 L1322.72 146.116 L1322.6 146.034 Q1321.9 146.854 1320.79 147.796 Q1319.73 148.698 1317.43 149.805 Q1315.14 150.912 1312.88 150.912 Q1308.17 150.912 1304.93 147.305 Q1301.73 143.657 1301.73 137.631 Q1301.73 133.245 1303.49 128.859 Q1305.3 124.433 1308.09 121.194 Q1310.91 117.915 1314.52 115.866 Q1318.17 113.816 1321.69 113.816 Q1324.15 113.816 1326.24 115.292 Q1328.33 116.727 1329.48 119.104 Q1329.69 117.136 1330.79 116.317 Q1331.94 115.497 1332.92 115.497 Q1334.03 115.497 1334.69 116.112 Q1335.38 116.686 1335.38 117.751 M1328.5 122.875 Q1328.5 122.629 1328.33 121.973 Q1328.17 121.276 1327.68 120.17 Q1327.23 119.063 1326.53 118.079 Q1325.83 117.095 1324.56 116.399 Q1323.33 115.661 1321.78 115.661 Q1319.23 115.661 1316.69 117.792 Q1314.15 119.883 1312.39 123.121 Q1310.75 126.236 1309.19 132.262 Q1307.68 138.287 1307.68 141.361 Q1307.68 144.394 1308.99 146.731 Q1310.3 149.067 1313.13 149.067 Q1316.41 149.067 1319.93 146.034 Q1323.58 142.878 1324.19 140.172 L1328.25 124.146 Q1328.5 123.162 1328.5 122.875 Z" fill="#000000" fill-rule="evenodd" fill-opacity="1" /><path clip-path="url(#clip510)" d="M 0 0 M1361.15 154.248 Q1361.15 155.511 1360.12 156.458 Q1359.12 157.376 1358.03 157.376 Q1357.02 157.376 1356.39 156.773 Q1355.79 156.142 1355.79 155.253 Q1355.79 154.076 1356.79 153.101 Q1357.8 152.125 1358.97 152.125 Q1359.95 152.125 1360.55 152.728 Q1361.15 153.33 1361.15 154.248 M1361.67 182.568 Q1361.67 182.797 1361.41 183.716 Q1361.15 184.605 1360.52 185.982 Q1359.92 187.331 1359.09 188.593 Q1358.26 189.856 1356.88 190.745 Q1355.53 191.635 1353.98 191.635 Q1351.89 191.635 1350.51 190.257 Q1349.16 188.88 1349.16 186.814 Q1349.16 185.695 1350.51 182.109 Q1354.41 171.665 1354.55 171.234 Q1355.21 169.599 1355.21 168.164 Q1355.21 167.504 1355.07 167.103 Q1354.93 166.672 1354.64 166.529 Q1354.35 166.357 1354.18 166.328 Q1354.04 166.299 1353.75 166.299 Q1352.06 166.299 1350.48 168.021 Q1348.9 169.742 1347.81 173.587 Q1347.58 174.304 1347.44 174.477 Q1347.3 174.649 1346.87 174.649 Q1346.15 174.62 1346.15 174.046 Q1346.15 173.874 1346.35 173.214 Q1346.55 172.525 1346.92 171.493 Q1347.3 170.431 1347.96 169.341 Q1348.62 168.222 1349.42 167.246 Q1350.25 166.271 1351.43 165.639 Q1352.6 165.008 1353.92 165.008 Q1356.08 165.008 1357.4 166.414 Q1358.74 167.791 1358.74 169.828 Q1358.74 170.947 1357.97 172.927 Q1357.02 175.51 1356.68 176.342 L1354.38 182.51 Q1353.55 184.748 1353.29 185.437 Q1353.06 186.097 1352.86 186.9 Q1352.69 187.675 1352.69 188.392 Q1352.69 189.397 1353.01 189.856 Q1353.35 190.315 1354.1 190.315 Q1356.16 190.315 1357.68 188.278 Q1359.2 186.212 1360.09 183.056 Q1360.12 182.97 1360.15 182.826 Q1360.38 182.109 1360.61 182.023 Q1360.72 181.994 1360.95 181.994 Q1361.67 181.994 1361.67 182.568 Z" fill="#000000" fill-rule="evenodd" fill-opacity="1" /><path clip-path="url(#clip510)" d="M 0 0 M1346.15 80.6055 Q1346.15 70.6779 1349.85 62.6726 Q1351.43 59.3156 1353.64 56.5038 Q1355.85 53.6919 1357.31 52.4581 Q1358.77 51.2243 1359.17 51.2243 Q1359.75 51.2243 1359.78 51.7982 Q1359.78 52.0851 1359 52.8024 Q1349.53 62.4431 1349.56 80.6055 Q1349.56 98.8252 1358.77 108.093 Q1359.78 109.097 1359.78 109.413 Q1359.78 109.987 1359.17 109.987 Q1358.77 109.987 1357.37 108.81 Q1355.96 107.634 1353.78 104.937 Q1351.6 102.24 1350.02 98.94 Q1346.15 90.9348 1346.15 80.6055 Z" fill="#000000" fill-rule="evenodd" fill-opacity="1" /><path clip-path="url(#clip510)" d="M 0 0 M1368.71 95.296 Q1368.71 94.2344 1368.79 93.9188 Q1368.91 93.6032 1369.37 93.1154 L1380.64 80.5481 Q1386.81 73.6045 1386.81 67.5504 Q1386.81 63.6195 1384.75 60.8076 Q1382.71 57.9958 1378.95 57.9958 Q1376.37 57.9958 1374.19 59.5739 Q1372.01 61.1519 1371 63.9638 Q1371.17 63.9064 1371.78 63.9064 Q1373.24 63.9064 1374.04 64.8246 Q1374.88 65.7427 1374.88 66.9765 Q1374.88 68.5546 1373.84 69.3293 Q1372.84 70.0753 1371.83 70.0753 Q1371.43 70.0753 1370.89 69.9892 Q1370.37 69.9032 1369.54 69.0998 Q1368.71 68.2677 1368.71 66.8044 Q1368.71 62.7013 1371.81 59.4304 Q1374.93 56.1595 1379.7 56.1595 Q1385.09 56.1595 1388.62 59.373 Q1392.18 62.5579 1392.18 67.5504 Q1392.18 69.3006 1391.63 70.9074 Q1391.12 72.4855 1390.4 73.7193 Q1389.71 74.953 1387.82 76.9328 Q1385.92 78.9126 1384.4 80.3185 Q1382.88 81.7245 1379.47 84.7085 L1373.24 90.7626 L1383.83 90.7626 Q1388.99 90.7626 1389.39 90.3035 Q1389.97 89.4714 1390.69 85.0815 L1392.18 85.0815 L1390.51 95.296 L1368.71 95.296 Z" fill="#000000" fill-rule="evenodd" fill-opacity="1" /><path clip-path="url(#clip510)" d="M 0 0 M1397.8 109.413 Q1397.8 109.126 1398.55 108.408 Q1408.02 98.7678 1408.02 80.6055 Q1408.02 62.3857 1398.92 53.1754 Q1397.8 52.1138 1397.8 51.7982 Q1397.8 51.2243 1398.37 51.2243 Q1398.78 51.2243 1400.18 52.4007 Q1401.62 53.5771 1403.77 56.2742 Q1405.95 58.9713 1407.56 62.271 Q1411.43 70.2762 1411.43 80.6055 Q1411.43 90.5331 1407.73 98.5383 Q1406.15 101.895 1403.94 104.707 Q1401.73 107.519 1400.27 108.753 Q1398.8 109.987 1398.37 109.987 Q1397.8 109.987 1397.8 109.413 Z" fill="#000000" fill-rule="evenodd" fill-opacity="1" /><path clip-path="url(#clip510)" d="M 0 0 M1429.32 129.925 Q1429.32 115.743 1434.61 104.307 Q1436.86 99.5111 1440.02 95.4941 Q1443.17 91.4772 1445.26 89.7146 Q1447.35 87.9521 1447.93 87.9521 Q1448.75 87.9521 1448.79 88.7719 Q1448.79 89.1818 1447.68 90.2065 Q1434.16 103.979 1434.2 129.925 Q1434.2 155.953 1447.35 169.193 Q1448.79 170.627 1448.79 171.078 Q1448.79 171.898 1447.93 171.898 Q1447.35 171.898 1445.35 170.218 Q1443.34 168.537 1440.22 164.684 Q1437.11 160.831 1434.85 156.117 Q1429.32 144.681 1429.32 129.925 Z" fill="#000000" fill-rule="evenodd" fill-opacity="1" /><path clip-path="url(#clip510)" d="M 0 0 M1501.06 116.071 Q1501.06 116.44 1500.73 117.71 Q1500.45 118.94 1499.5 121.358 Q1498.6 123.736 1497.21 126.4 Q1495.85 129.023 1493.35 132.343 Q1490.85 135.664 1487.74 138.574 Q1481.88 144.066 1475.61 147.018 Q1469.38 149.969 1464.05 150.912 L1462.86 150.912 Q1461.55 150.912 1461.55 149.887 L1462.45 146.116 L1467.57 125.58 Q1469.17 119.309 1469.17 118.776 Q1469.17 118.284 1468.97 118.038 Q1468.8 117.751 1467.82 117.546 Q1466.88 117.341 1464.99 117.341 Q1464.21 117.341 1463.84 117.3 Q1463.51 117.259 1463.23 117.054 Q1462.94 116.809 1462.94 116.317 Q1462.94 115.62 1463.23 115.251 Q1463.56 114.841 1463.8 114.759 Q1464.05 114.677 1464.54 114.636 Q1465.24 114.595 1467.57 114.39 Q1469.91 114.144 1471.92 113.98 Q1473.93 113.816 1474.79 113.816 Q1475.28 113.816 1475.57 114.062 Q1475.85 114.267 1475.85 114.513 L1475.89 114.718 L1467.65 148.124 Q1470.69 147.141 1473.68 145.501 Q1476.71 143.861 1479.99 141.156 Q1483.27 138.41 1486.06 135.008 Q1488.85 131.606 1491.31 126.851 Q1493.81 122.055 1495.36 116.563 Q1495.65 115.456 1496.35 114.8 Q1497.08 114.144 1497.62 113.98 Q1498.15 113.816 1498.64 113.816 Q1499.75 113.816 1500.4 114.431 Q1501.06 115.005 1501.06 116.071 Z" fill="#000000" fill-rule="evenodd" fill-opacity="1" /><path clip-path="url(#clip510)" d="M 0 0 M1502.58 171.078 Q1502.58 170.668 1503.65 169.644 Q1517.17 155.871 1517.17 129.925 Q1517.17 103.897 1504.18 90.7394 Q1502.58 89.2228 1502.58 88.7719 Q1502.58 87.9521 1503.4 87.9521 Q1503.98 87.9521 1505.98 89.6327 Q1508.03 91.3132 1511.11 95.1662 Q1514.22 99.0192 1516.52 103.733 Q1522.05 115.169 1522.05 129.925 Q1522.05 144.107 1516.76 155.543 Q1514.51 160.339 1511.35 164.356 Q1508.2 168.373 1506.11 170.136 Q1504.02 171.898 1503.4 171.898 Q1502.58 171.898 1502.58 171.078 Z" fill="#000000" fill-rule="evenodd" fill-opacity="1" /><polyline clip-path="url(#clip513)" style="stroke:#009af9; stroke-width:4; stroke-opacity:1; fill:none" points="
  364.35,1388.64 368.65,1364.67 372.949,1381.71 377.249,1386.77 381.548,1383 385.848,1381.9 390.147,1382.45 394.447,1376.34 398.746,1386.86 403.046,1385.45 
  407.345,1384.96 411.645,1386.37 415.945,1385.22 420.244,1381.54 424.544,1380.37 428.843,1378.24 433.143,1385.06 437.442,1382.37 441.742,1380.98 446.041,1379.68 
  450.341,1383.59 454.64,1381.86 458.94,1383.51 463.239,1381.54 467.539,1380.35 471.838,1382.71 476.138,1382.99 480.438,1383.87 484.737,1386.72 489.037,1386.75 
  493.336,1383.85 497.636,1386.37 501.935,1383.79 506.235,1384.42 510.534,1386.22 514.834,1379.65 519.133,237.151 523.433,1381.65 527.732,1380.77 532.032,1376.08 
  536.332,1386.26 540.631,1386.24 544.931,1386.45 549.23,1386.69 553.53,1384.11 557.829,1380.76 562.129,1385.84 566.428,1383.54 570.728,1382.08 575.027,1383.62 
  579.327,1382.31 583.626,1380.47 587.926,1380.68 592.225,1385.13 596.525,1385.7 600.825,1377.78 605.124,1379.83 609.424,1381.61 613.723,1385.19 618.023,1381.72 
  622.322,1383.51 626.622,1381.59 630.921,1379.36 635.221,1381.04 639.52,1385.2 643.82,1385.53 648.119,1386.57 652.419,1387.67 656.718,1381.85 661.018,1387.26 
  665.318,1387.98 669.617,1383.73 673.917,1383.36 678.216,1382.11 682.516,1384.3 686.815,1379.21 691.115,1383.86 695.414,1385.01 699.714,1385.37 704.013,1385.05 
  708.313,1382.38 712.612,1383.31 716.912,1382.61 721.212,1383.19 725.511,1385.3 729.811,1386.46 734.11,1379.78 738.41,1381.95 742.709,1384.43 747.009,1384.93 
  751.308,1378.48 755.608,1380.17 759.907,1382.85 764.207,1385.26 768.506,1382.46 772.806,1381.06 777.105,1385.44 781.405,1386.82 785.705,1386.84 790.004,1386.63 
  794.304,1384.43 798.603,1381.77 802.903,1387.95 807.202,1378.18 811.502,1385.93 815.801,1383.84 820.101,1383.19 824.4,1385.81 828.7,1387.72 832.999,1382.9 
  837.299,1386.85 841.598,1387.45 845.898,1386.96 850.198,1381.76 854.497,1384.76 858.797,1387.63 863.096,1380.2 867.396,1382.78 871.695,1383.34 875.995,1387.06 
  880.294,1386.32 884.594,1386.25 888.893,1385.63 893.193,1380.31 897.492,1384.53 901.792,1387.56 906.091,1386.81 910.391,1381.3 914.691,1383.61 918.99,1381.22 
  923.29,1387.94 927.589,1386.47 931.889,1383.13 936.188,1382.29 940.488,1385.33 944.787,1387.33 949.087,1382.92 953.386,1387.26 957.686,1385.46 961.985,1380.96 
  966.285,1384.9 970.585,1387.92 974.884,1383.89 979.184,1381.19 983.483,1386.03 987.783,1384.45 992.082,1386.03 996.382,1386.14 1000.68,1383.95 1004.98,1382.47 
  1009.28,1380.74 1013.58,1382.33 1017.88,1386.53 1022.18,1384.07 1026.48,1387.17 1030.78,1385.4 1035.08,1385.05 1039.38,1385.7 1043.68,1382.43 1047.98,1384.5 
  1052.28,1387.18 1056.58,1385.99 1060.87,1385.43 1065.17,1386.97 1069.47,1382.32 1073.77,1384.41 1078.07,1384.71 1082.37,1385.58 1086.67,1382.53 1090.97,1383.24 
  1095.27,1385.38 1099.57,1386.16 1103.87,1384.58 1108.17,1386.08 1112.47,1383.93 1116.77,1382.69 1121.07,1386.35 1125.37,1386.67 1129.67,1387.05 1133.97,1383.6 
  1138.27,1386.72 1142.57,1386.75 1146.87,1385.88 1151.16,1385.16 1155.46,1387.18 1159.76,1386.31 1164.06,1383.97 1168.36,1384.05 1172.66,1385.85 1176.96,1386.56 
  1181.26,1386.61 1185.56,1387.59 1189.86,1383.54 1194.16,1386.68 1198.46,1386.42 1202.76,1383.19 1207.06,1387.22 1211.36,1387.96 1215.66,1384.96 1219.96,1385.34 
  1224.26,1385.92 1228.56,1386.86 1232.86,1385.24 1237.16,1381.99 1241.46,1386.6 1245.75,1384.92 1250.05,1386.71 1254.35,1385.08 1258.65,1384.39 1262.95,1386.25 
  1267.25,1386.37 1271.55,1387.47 1275.85,1387.41 1280.15,1386.71 1284.45,1387.41 1288.75,1388.11 1293.05,1386.95 1297.35,1383.3 1301.65,1386.52 1305.95,1386.77 
  1310.25,1385.34 1314.55,1386.62 1318.85,1386.86 1323.15,1385.31 1327.45,1386.95 1331.75,1387.03 1336.04,1386.78 1340.34,1384.71 1344.64,1387.63 1348.94,1385.77 
  1353.24,1386.5 1357.54,1385.6 1361.84,1386.29 1366.14,1387.16 1370.44,1386.14 1374.74,1386.22 1379.04,1387.16 1383.34,1387.02 1387.64,1388.17 1391.94,1387.47 
  1396.24,1387.52 1400.54,1387.2 1404.84,1386.68 1409.14,1387.59 1413.44,1385.73 1417.74,1385.92 1422.04,1386.24 1426.34,1386.79 1430.63,1387 1434.93,1387.98 
  1439.23,1387.15 1443.53,1387.86 1447.83,1386.15 1452.13,1384.79 1456.43,1386.6 1460.73,1386.34 1465.03,1387.13 1469.33,1385.46 1473.63,1388.03 1477.93,1386.89 
  1482.23,1387.25 1486.53,1387.53 1490.83,1386.56 1495.13,1388.03 1499.43,1386.56 1503.73,1387.55 1508.03,1388.03 1512.33,1386.26 1516.63,1387.83 1520.92,1387.13 
  1525.22,1386.75 1529.52,1386.88 1533.82,1387.78 1538.12,1387.91 1542.42,1387.12 1546.72,1387.69 1551.02,1387.22 1555.32,1388.49 1559.62,1387.24 1563.92,1387.3 
  1568.22,1387.39 1572.52,1386.85 1576.82,1385.97 1581.12,1387.62 1585.42,1387.33 1589.72,1387.92 1594.02,1387.73 1598.32,1388.17 1602.62,1387.85 1606.92,1388.48 
  1611.22,1387.83 1615.51,1386.98 1619.81,1388.19 1624.11,1387.96 1628.41,1387.99 1632.71,1386.97 1637.01,1387.52 1641.31,1386.67 1645.61,1386.21 1649.91,1388.25 
  1654.21,1387.66 1658.51,1387.44 1662.81,1388.14 1667.11,1387.44 1671.41,1387.29 1675.71,1387.8 1680.01,1386.63 1684.31,1387.39 1688.61,1388.37 1692.91,1387.19 
  1697.21,1387.53 1701.51,1387.79 1705.8,1387.68 1710.1,1387.14 1714.4,1388.06 1718.7,1387 1723,1388.2 1727.3,1387.95 1731.6,1387.4 1735.9,1388.11 
  1740.2,1388.14 1744.5,1388.05 1748.8,1387.99 1753.1,1388.16 1757.4,1387.91 1761.7,1388.06 1766,1386.72 1770.3,1388.16 1774.6,1387.75 1778.9,1388.3 
  1783.2,1388.55 1787.5,1387.19 1791.8,1387.98 1796.1,1387.8 1800.39,1386.54 1804.69,1388.24 1808.99,1388.19 1813.29,1387.39 1817.59,1388.43 1821.89,1387.93 
  1826.19,1388.11 1830.49,1388.5 1834.79,1387.62 1839.09,1387.98 1843.39,1387.64 1847.69,1387.46 1851.99,1388.05 1856.29,1388.03 1860.59,1387.99 1864.89,1388.21 
  1869.19,1388.56 1873.49,1387.62 1877.79,1388.01 1882.09,1388.4 1886.39,1388.22 1890.68,1388.2 1894.98,1387.71 1899.28,1387.5 1903.58,1387.96 1907.88,1388.21 
  1912.18,1387.89 1916.48,1388.32 1920.78,1386.9 1925.08,1388.01 1929.38,1388.24 1933.68,1388.36 1937.98,1387.96 1942.28,1388.09 1946.58,1388.38 1950.88,1387.93 
  1955.18,1387.91 1959.48,1387.61 1963.78,1387.94 1968.08,1388.33 1972.38,1388.51 1976.68,1388.49 1980.98,1388.46 1985.27,1388.15 1989.57,1388.23 1993.87,1388.16 
  1998.17,1387.9 2002.47,1388.3 2006.77,1388.34 2011.07,1388.17 2015.37,1388.42 2019.67,1388.42 2023.97,1388.39 2028.27,1388.26 2032.57,1388.29 2036.87,1388.11 
  2041.17,1388.25 2045.47,1388.52 2049.77,1388.4 2054.07,1388.33 2058.37,1388.4 2062.67,1388.35 2066.97,1388.15 2071.27,1388.28 2075.56,1388.34 2079.86,1388.15 
  2084.16,1388.19 2088.46,1388.09 2092.76,1388.51 2097.06,1388.46 2101.36,1388.46 2105.66,1388.57 2109.96,1388.39 2114.26,1388.34 2118.56,1388.21 2122.86,1388.48 
  2127.16,1388.6 2131.46,1388.35 2135.76,1388.13 2140.06,1388.45 2144.36,1388.56 2148.66,1388.5 2152.96,1388.39 2157.26,1388.12 2161.56,1388.51 2165.86,1388.45 
  2170.15,1388.47 2174.45,1388.49 2178.75,1388.29 2183.05,1388.48 2187.35,1388.24 2191.65,1388.56 2195.95,1388.12 2200.25,1388.24 2204.55,1388.54 2208.85,1388.19 
  2213.15,1388.19 2217.45,1388.4 2221.75,1388.57 2226.05,1388.55 2230.35,1388.49 2234.65,1388.32 2238.95,1388.52 2243.25,1388.25 2247.55,1388.23 2251.85,1388.18 
  2256.15,1388.4 2260.44,1388.4 2264.74,1388.23 2269.04,1388.36 2273.34,1388.35 2277.64,1388.49 2281.94,1388.44 2286.24,1388.46 2290.54,1388.3 2294.84,1388.2 
  
  "/>
<polyline clip-path="url(#clip513)" style="stroke:#e26f46; stroke-width:4; stroke-opacity:1; fill:none" stroke-dasharray="16, 10" points="
  519.133,2643.75 519.133,-1017.97 
  "/>
<path clip-path="url(#clip510)" d="
M1700.63 364.252 L2284.55 364.252 L2284.55 243.292 L1700.63 243.292  Z
  " fill="#ffffff" fill-rule="evenodd" fill-opacity="1"/>
<polyline clip-path="url(#clip510)" style="stroke:#000000; stroke-width:4; stroke-opacity:1; fill:none" points="
  1700.63,364.252 2284.55,364.252 2284.55,243.292 1700.63,243.292 1700.63,364.252 
  "/>
<polyline clip-path="url(#clip510)" style="stroke:#e26f46; stroke-width:4; stroke-opacity:1; fill:none" stroke-dasharray="16, 10" points="
  1723.36,303.772 1859.79,303.772 
  "/>
<path clip-path="url(#clip510)" d="M 0 0 M1882.52 286.492 L1902.38 286.492 L1902.38 290.427 L1887.2 290.427 L1887.2 300.612 L1900.9 300.612 L1900.9 304.547 L1887.2 304.547 L1887.2 321.052 L1882.52 321.052 L1882.52 286.492 Z" fill="#000000" fill-rule="evenodd" fill-opacity="1" /><path clip-path="url(#clip510)" d="M 0 0 M1921.18 299.108 Q1920.46 298.691 1919.61 298.506 Q1918.77 298.297 1917.75 298.297 Q1914.14 298.297 1912.2 300.659 Q1910.28 302.997 1910.28 307.395 L1910.28 321.052 L1905.99 321.052 L1905.99 295.126 L1910.28 295.126 L1910.28 299.154 Q1911.62 296.793 1913.77 295.659 Q1915.93 294.501 1919 294.501 Q1919.44 294.501 1919.98 294.571 Q1920.51 294.617 1921.16 294.733 L1921.18 299.108 Z" fill="#000000" fill-rule="evenodd" fill-opacity="1" /><path clip-path="url(#clip510)" d="M 0 0 M1946.78 307.024 L1946.78 309.108 L1927.2 309.108 Q1927.48 313.506 1929.84 315.821 Q1932.22 318.112 1936.46 318.112 Q1938.91 318.112 1941.2 317.51 Q1943.52 316.908 1945.79 315.705 L1945.79 319.733 Q1943.49 320.705 1941.09 321.214 Q1938.68 321.723 1936.2 321.723 Q1930 321.723 1926.36 318.112 Q1922.75 314.501 1922.75 308.344 Q1922.75 301.978 1926.18 298.251 Q1929.63 294.501 1935.46 294.501 Q1940.69 294.501 1943.73 297.881 Q1946.78 301.237 1946.78 307.024 M1942.52 305.774 Q1942.48 302.279 1940.55 300.196 Q1938.66 298.112 1935.51 298.112 Q1931.94 298.112 1929.79 300.126 Q1927.66 302.14 1927.34 305.797 L1942.52 305.774 Z" fill="#000000" fill-rule="evenodd" fill-opacity="1" /><path clip-path="url(#clip510)" d="M 0 0 M1956.32 308.112 Q1956.32 312.811 1958.24 315.496 Q1960.18 318.158 1963.56 318.158 Q1966.94 318.158 1968.89 315.496 Q1970.83 312.811 1970.83 308.112 Q1970.83 303.413 1968.89 300.751 Q1966.94 298.066 1963.56 298.066 Q1960.18 298.066 1958.24 300.751 Q1956.32 303.413 1956.32 308.112 M1970.83 317.163 Q1969.49 319.478 1967.43 320.612 Q1965.39 321.723 1962.52 321.723 Q1957.82 321.723 1954.86 317.973 Q1951.92 314.223 1951.92 308.112 Q1951.92 302.001 1954.86 298.251 Q1957.82 294.501 1962.52 294.501 Q1965.39 294.501 1967.43 295.635 Q1969.49 296.747 1970.83 299.061 L1970.83 295.126 L1975.09 295.126 L1975.09 330.913 L1970.83 330.913 L1970.83 317.163 Z" fill="#000000" fill-rule="evenodd" fill-opacity="1" /><path clip-path="url(#clip510)" d="M 0 0 M1983.42 310.821 L1983.42 295.126 L1987.68 295.126 L1987.68 310.659 Q1987.68 314.339 1989.12 316.191 Q1990.55 318.02 1993.42 318.02 Q1996.87 318.02 1998.86 315.821 Q2000.88 313.621 2000.88 309.825 L2000.88 295.126 L2005.14 295.126 L2005.14 321.052 L2000.88 321.052 L2000.88 317.071 Q1999.33 319.432 1997.27 320.589 Q1995.23 321.723 1992.52 321.723 Q1988.05 321.723 1985.74 318.946 Q1983.42 316.168 1983.42 310.821 M1994.14 294.501 L1994.14 294.501 Z" fill="#000000" fill-rule="evenodd" fill-opacity="1" /><path clip-path="url(#clip510)" d="M 0 0 M2036.09 307.024 L2036.09 309.108 L2016.5 309.108 Q2016.78 313.506 2019.14 315.821 Q2021.53 318.112 2025.76 318.112 Q2028.22 318.112 2030.51 317.51 Q2032.82 316.908 2035.09 315.705 L2035.09 319.733 Q2032.8 320.705 2030.39 321.214 Q2027.98 321.723 2025.51 321.723 Q2019.3 321.723 2015.67 318.112 Q2012.06 314.501 2012.06 308.344 Q2012.06 301.978 2015.48 298.251 Q2018.93 294.501 2024.77 294.501 Q2030 294.501 2033.03 297.881 Q2036.09 301.237 2036.09 307.024 M2031.83 305.774 Q2031.78 302.279 2029.86 300.196 Q2027.96 298.112 2024.81 298.112 Q2021.25 298.112 2019.1 300.126 Q2016.97 302.14 2016.64 305.797 L2031.83 305.774 Z" fill="#000000" fill-rule="evenodd" fill-opacity="1" /><path clip-path="url(#clip510)" d="M 0 0 M2064.63 305.404 L2064.63 321.052 L2060.37 321.052 L2060.37 305.543 Q2060.37 301.862 2058.93 300.034 Q2057.5 298.205 2054.63 298.205 Q2051.18 298.205 2049.19 300.404 Q2047.2 302.603 2047.2 306.399 L2047.2 321.052 L2042.92 321.052 L2042.92 295.126 L2047.2 295.126 L2047.2 299.154 Q2048.73 296.816 2050.79 295.659 Q2052.87 294.501 2055.58 294.501 Q2060.04 294.501 2062.34 297.279 Q2064.63 300.034 2064.63 305.404 Z" fill="#000000" fill-rule="evenodd" fill-opacity="1" /><path clip-path="url(#clip510)" d="M 0 0 M2091.78 296.122 L2091.78 300.103 Q2089.98 299.108 2088.15 298.622 Q2086.34 298.112 2084.49 298.112 Q2080.35 298.112 2078.05 300.751 Q2075.76 303.367 2075.76 308.112 Q2075.76 312.858 2078.05 315.496 Q2080.35 318.112 2084.49 318.112 Q2086.34 318.112 2088.15 317.626 Q2089.98 317.117 2091.78 316.121 L2091.78 320.057 Q2090 320.89 2088.08 321.307 Q2086.18 321.723 2084.03 321.723 Q2078.17 321.723 2074.72 318.043 Q2071.27 314.362 2071.27 308.112 Q2071.27 301.77 2074.74 298.135 Q2078.24 294.501 2084.3 294.501 Q2086.27 294.501 2088.15 294.918 Q2090.02 295.311 2091.78 296.122 Z" fill="#000000" fill-rule="evenodd" fill-opacity="1" /><path clip-path="url(#clip510)" d="M 0 0 M2109.97 323.459 Q2108.17 328.089 2106.46 329.501 Q2104.74 330.913 2101.87 330.913 L2098.47 330.913 L2098.47 327.348 L2100.97 327.348 Q2102.73 327.348 2103.7 326.515 Q2104.67 325.682 2105.85 322.58 L2106.62 320.635 L2096.13 295.126 L2100.65 295.126 L2108.75 315.404 L2116.85 295.126 L2121.36 295.126 L2109.97 323.459 Z" fill="#000000" fill-rule="evenodd" fill-opacity="1" /><path clip-path="url(#clip510)" d="M 0 0 M2158.84 295.89 L2158.84 299.918 Q2157.03 298.992 2155.09 298.529 Q2153.15 298.066 2151.06 298.066 Q2147.89 298.066 2146.29 299.038 Q2144.72 300.01 2144.72 301.955 Q2144.72 303.436 2145.85 304.293 Q2146.99 305.126 2150.41 305.89 L2151.87 306.214 Q2156.41 307.186 2158.31 308.969 Q2160.23 310.728 2160.23 313.899 Q2160.23 317.51 2157.36 319.617 Q2154.51 321.723 2149.51 321.723 Q2147.43 321.723 2145.16 321.307 Q2142.91 320.913 2140.41 320.103 L2140.41 315.705 Q2142.78 316.932 2145.07 317.557 Q2147.36 318.158 2149.6 318.158 Q2152.61 318.158 2154.23 317.14 Q2155.85 316.098 2155.85 314.223 Q2155.85 312.487 2154.67 311.561 Q2153.52 310.635 2149.56 309.779 L2148.08 309.432 Q2144.12 308.598 2142.36 306.885 Q2140.6 305.149 2140.6 302.14 Q2140.6 298.483 2143.19 296.492 Q2145.78 294.501 2150.55 294.501 Q2152.91 294.501 2155 294.848 Q2157.08 295.196 2158.84 295.89 Z" fill="#000000" fill-rule="evenodd" fill-opacity="1" /><path clip-path="url(#clip510)" d="M 0 0 M2188.56 305.404 L2188.56 321.052 L2184.3 321.052 L2184.3 305.543 Q2184.3 301.862 2182.87 300.034 Q2181.43 298.205 2178.56 298.205 Q2175.11 298.205 2173.12 300.404 Q2171.13 302.603 2171.13 306.399 L2171.13 321.052 L2166.85 321.052 L2166.85 285.034 L2171.13 285.034 L2171.13 299.154 Q2172.66 296.816 2174.72 295.659 Q2176.8 294.501 2179.51 294.501 Q2183.98 294.501 2186.27 297.279 Q2188.56 300.034 2188.56 305.404 Z" fill="#000000" fill-rule="evenodd" fill-opacity="1" /><path clip-path="url(#clip510)" d="M 0 0 M2197.06 295.126 L2201.32 295.126 L2201.32 321.052 L2197.06 321.052 L2197.06 295.126 M2197.06 285.034 L2201.32 285.034 L2201.32 290.427 L2197.06 290.427 L2197.06 285.034 Z" fill="#000000" fill-rule="evenodd" fill-opacity="1" /><path clip-path="url(#clip510)" d="M 0 0 M2223.35 285.034 L2223.35 288.575 L2219.28 288.575 Q2216.99 288.575 2216.09 289.501 Q2215.21 290.427 2215.21 292.835 L2215.21 295.126 L2222.22 295.126 L2222.22 298.436 L2215.21 298.436 L2215.21 321.052 L2210.92 321.052 L2210.92 298.436 L2206.85 298.436 L2206.85 295.126 L2210.92 295.126 L2210.92 293.321 Q2210.92 288.992 2212.94 287.024 Q2214.95 285.034 2219.33 285.034 L2223.35 285.034 Z" fill="#000000" fill-rule="evenodd" fill-opacity="1" /><path clip-path="url(#clip510)" d="M 0 0 M2230.3 287.765 L2230.3 295.126 L2239.07 295.126 L2239.07 298.436 L2230.3 298.436 L2230.3 312.51 Q2230.3 315.682 2231.15 316.584 Q2232.03 317.487 2234.7 317.487 L2239.07 317.487 L2239.07 321.052 L2234.7 321.052 Q2229.77 321.052 2227.89 319.223 Q2226.02 317.371 2226.02 312.51 L2226.02 298.436 L2222.89 298.436 L2222.89 295.126 L2226.02 295.126 L2226.02 287.765 L2230.3 287.765 Z" fill="#000000" fill-rule="evenodd" fill-opacity="1" /></svg>
