<?xml version="1.0" encoding="utf-8"?>
<svg xmlns="http://www.w3.org/2000/svg" xmlns:xlink="http://www.w3.org/1999/xlink" width="600" height="400" viewBox="0 0 2400 1600">
<defs>
  <clipPath id="clip630">
    <rect x="0" y="0" width="2400" height="1600"/>
  </clipPath>
</defs>
<path clip-path="url(#clip630)" d="
M0 1600 L2400 1600 L2400 0 L0 0  Z
  " fill="#ffffff" fill-rule="evenodd" fill-opacity="1"/>
<defs>
  <clipPath id="clip631">
    <rect x="480" y="0" width="1681" height="1600"/>
  </clipPath>
</defs>
<defs>
  <clipPath id="clip632">
    <rect x="138" y="142" width="2215" height="1281"/>
  </clipPath>
</defs>
<path clip-path="url(#clip630)" d="
M202.177 1423.18 L2352.76 1423.18 L2352.76 202.606 L202.177 202.606  Z
  " fill="#ffffff" fill-rule="evenodd" fill-opacity="1"/>
<defs>
  <clipPath id="clip633">
    <rect x="202" y="202" width="2152" height="1222"/>
  </clipPath>
</defs>
<polyline clip-path="url(#clip633)" style="stroke:#000000; stroke-width:2; stroke-opacity:0.1; fill:none" points="
  263.042,1423.18 263.042,202.606 
  "/>
<polyline clip-path="url(#clip633)" style="stroke:#000000; stroke-width:2; stroke-opacity:0.1; fill:none" points="
  669.716,1423.18 669.716,202.606 
  "/>
<polyline clip-path="url(#clip633)" style="stroke:#000000; stroke-width:2; stroke-opacity:0.1; fill:none" points="
  1076.39,1423.18 1076.39,202.606 
  "/>
<polyline clip-path="url(#clip633)" style="stroke:#000000; stroke-width:2; stroke-opacity:0.1; fill:none" points="
  1483.06,1423.18 1483.06,202.606 
  "/>
<polyline clip-path="url(#clip633)" style="stroke:#000000; stroke-width:2; stroke-opacity:0.1; fill:none" points="
  1889.74,1423.18 1889.74,202.606 
  "/>
<polyline clip-path="url(#clip633)" style="stroke:#000000; stroke-width:2; stroke-opacity:0.1; fill:none" points="
  2296.41,1423.18 2296.41,202.606 
  "/>
<polyline clip-path="url(#clip630)" style="stroke:#000000; stroke-width:4; stroke-opacity:1; fill:none" points="
  202.177,1423.18 2352.76,1423.18 
  "/>
<polyline clip-path="url(#clip630)" style="stroke:#000000; stroke-width:4; stroke-opacity:1; fill:none" points="
  263.042,1423.18 263.042,1408.53 
  "/>
<polyline clip-path="url(#clip630)" style="stroke:#000000; stroke-width:4; stroke-opacity:1; fill:none" points="
  669.716,1423.18 669.716,1408.53 
  "/>
<polyline clip-path="url(#clip630)" style="stroke:#000000; stroke-width:4; stroke-opacity:1; fill:none" points="
  1076.39,1423.18 1076.39,1408.53 
  "/>
<polyline clip-path="url(#clip630)" style="stroke:#000000; stroke-width:4; stroke-opacity:1; fill:none" points="
  1483.06,1423.18 1483.06,1408.53 
  "/>
<polyline clip-path="url(#clip630)" style="stroke:#000000; stroke-width:4; stroke-opacity:1; fill:none" points="
  1889.74,1423.18 1889.74,1408.53 
  "/>
<polyline clip-path="url(#clip630)" style="stroke:#000000; stroke-width:4; stroke-opacity:1; fill:none" points="
  2296.41,1423.18 2296.41,1408.53 
  "/>
<path clip-path="url(#clip630)" d="M 0 0 M263.042 1452.37 Q259.431 1452.37 257.602 1455.94 Q255.797 1459.48 255.797 1466.61 Q255.797 1473.71 257.602 1477.28 Q259.431 1480.82 263.042 1480.82 Q266.676 1480.82 268.482 1477.28 Q270.311 1473.71 270.311 1466.61 Q270.311 1459.48 268.482 1455.94 Q266.676 1452.37 263.042 1452.37 M263.042 1448.67 Q268.852 1448.67 271.908 1453.27 Q274.987 1457.86 274.987 1466.61 Q274.987 1475.33 271.908 1479.94 Q268.852 1484.52 263.042 1484.52 Q257.232 1484.52 254.153 1479.94 Q251.098 1475.33 251.098 1466.61 Q251.098 1457.86 254.153 1453.27 Q257.232 1448.67 263.042 1448.67 Z" fill="#000000" fill-rule="evenodd" fill-opacity="1" /><path clip-path="url(#clip630)" d="M 0 0 M644.403 1479.92 L652.042 1479.92 L652.042 1453.55 L643.732 1455.22 L643.732 1450.96 L651.996 1449.29 L656.672 1449.29 L656.672 1479.92 L664.31 1479.92 L664.31 1483.85 L644.403 1483.85 L644.403 1479.92 Z" fill="#000000" fill-rule="evenodd" fill-opacity="1" /><path clip-path="url(#clip630)" d="M 0 0 M683.755 1452.37 Q680.144 1452.37 678.315 1455.94 Q676.509 1459.48 676.509 1466.61 Q676.509 1473.71 678.315 1477.28 Q680.144 1480.82 683.755 1480.82 Q687.389 1480.82 689.195 1477.28 Q691.023 1473.71 691.023 1466.61 Q691.023 1459.48 689.195 1455.94 Q687.389 1452.37 683.755 1452.37 M683.755 1448.67 Q689.565 1448.67 692.62 1453.27 Q695.699 1457.86 695.699 1466.61 Q695.699 1475.33 692.62 1479.94 Q689.565 1484.52 683.755 1484.52 Q677.945 1484.52 674.866 1479.94 Q671.81 1475.33 671.81 1466.61 Q671.81 1457.86 674.866 1453.27 Q677.945 1448.67 683.755 1448.67 Z" fill="#000000" fill-rule="evenodd" fill-opacity="1" /><path clip-path="url(#clip630)" d="M 0 0 M1055.16 1479.92 L1071.48 1479.92 L1071.48 1483.85 L1049.54 1483.85 L1049.54 1479.92 Q1052.2 1477.16 1056.78 1472.53 Q1061.39 1467.88 1062.57 1466.54 Q1064.81 1464.01 1065.69 1462.28 Q1066.6 1460.52 1066.6 1458.83 Q1066.6 1456.07 1064.65 1454.34 Q1062.73 1452.6 1059.63 1452.6 Q1057.43 1452.6 1054.98 1453.37 Q1052.55 1454.13 1049.77 1455.68 L1049.77 1450.96 Q1052.59 1449.82 1055.05 1449.25 Q1057.5 1448.67 1059.54 1448.67 Q1064.91 1448.67 1068.1 1451.35 Q1071.3 1454.04 1071.3 1458.53 Q1071.3 1460.66 1070.49 1462.58 Q1069.7 1464.48 1067.59 1467.07 Q1067.01 1467.74 1063.91 1470.96 Q1060.81 1474.15 1055.16 1479.92 Z" fill="#000000" fill-rule="evenodd" fill-opacity="1" /><path clip-path="url(#clip630)" d="M 0 0 M1091.3 1452.37 Q1087.69 1452.37 1085.86 1455.94 Q1084.05 1459.48 1084.05 1466.61 Q1084.05 1473.71 1085.86 1477.28 Q1087.69 1480.82 1091.3 1480.82 Q1094.93 1480.82 1096.74 1477.28 Q1098.56 1473.71 1098.56 1466.61 Q1098.56 1459.48 1096.74 1455.94 Q1094.93 1452.37 1091.3 1452.37 M1091.3 1448.67 Q1097.11 1448.67 1100.16 1453.27 Q1103.24 1457.86 1103.24 1466.61 Q1103.24 1475.33 1100.16 1479.94 Q1097.11 1484.52 1091.3 1484.52 Q1085.49 1484.52 1082.41 1479.94 Q1079.35 1475.33 1079.35 1466.61 Q1079.35 1457.86 1082.41 1453.27 Q1085.49 1448.67 1091.3 1448.67 Z" fill="#000000" fill-rule="evenodd" fill-opacity="1" /><path clip-path="url(#clip630)" d="M 0 0 M1471.9 1465.22 Q1475.26 1465.94 1477.14 1468.2 Q1479.03 1470.47 1479.03 1473.81 Q1479.03 1478.92 1475.52 1481.72 Q1472 1484.52 1465.52 1484.52 Q1463.34 1484.52 1461.03 1484.08 Q1458.73 1483.67 1456.28 1482.81 L1456.28 1478.3 Q1458.22 1479.43 1460.54 1480.01 Q1462.85 1480.59 1465.38 1480.59 Q1469.78 1480.59 1472.07 1478.85 Q1474.38 1477.12 1474.38 1473.81 Q1474.38 1470.75 1472.23 1469.04 Q1470.1 1467.3 1466.28 1467.3 L1462.25 1467.3 L1462.25 1463.46 L1466.47 1463.46 Q1469.91 1463.46 1471.74 1462.09 Q1473.57 1460.7 1473.57 1458.11 Q1473.57 1455.45 1471.67 1454.04 Q1469.8 1452.6 1466.28 1452.6 Q1464.36 1452.6 1462.16 1453.02 Q1459.96 1453.44 1457.32 1454.31 L1457.32 1450.15 Q1459.98 1449.41 1462.3 1449.04 Q1464.64 1448.67 1466.7 1448.67 Q1472.02 1448.67 1475.12 1451.1 Q1478.22 1453.5 1478.22 1457.63 Q1478.22 1460.5 1476.58 1462.49 Q1474.94 1464.45 1471.9 1465.22 Z" fill="#000000" fill-rule="evenodd" fill-opacity="1" /><path clip-path="url(#clip630)" d="M 0 0 M1497.9 1452.37 Q1494.29 1452.37 1492.46 1455.94 Q1490.65 1459.48 1490.65 1466.61 Q1490.65 1473.71 1492.46 1477.28 Q1494.29 1480.82 1497.9 1480.82 Q1501.53 1480.82 1503.34 1477.28 Q1505.17 1473.71 1505.17 1466.61 Q1505.17 1459.48 1503.34 1455.94 Q1501.53 1452.37 1497.9 1452.37 M1497.9 1448.67 Q1503.71 1448.67 1506.77 1453.27 Q1509.84 1457.86 1509.84 1466.61 Q1509.84 1475.33 1506.77 1479.94 Q1503.71 1484.52 1497.9 1484.52 Q1492.09 1484.52 1489.01 1479.94 Q1485.96 1475.33 1485.96 1466.61 Q1485.96 1457.86 1489.01 1453.27 Q1492.09 1448.67 1497.9 1448.67 Z" fill="#000000" fill-rule="evenodd" fill-opacity="1" /><path clip-path="url(#clip630)" d="M 0 0 M1877.91 1453.37 L1866.1 1471.81 L1877.91 1471.81 L1877.91 1453.37 M1876.68 1449.29 L1882.56 1449.29 L1882.56 1471.81 L1887.49 1471.81 L1887.49 1475.7 L1882.56 1475.7 L1882.56 1483.85 L1877.91 1483.85 L1877.91 1475.7 L1862.31 1475.7 L1862.31 1471.19 L1876.68 1449.29 Z" fill="#000000" fill-rule="evenodd" fill-opacity="1" /><path clip-path="url(#clip630)" d="M 0 0 M1905.22 1452.37 Q1901.61 1452.37 1899.78 1455.94 Q1897.98 1459.48 1897.98 1466.61 Q1897.98 1473.71 1899.78 1477.28 Q1901.61 1480.82 1905.22 1480.82 Q1908.86 1480.82 1910.66 1477.28 Q1912.49 1473.71 1912.49 1466.61 Q1912.49 1459.48 1910.66 1455.94 Q1908.86 1452.37 1905.22 1452.37 M1905.22 1448.67 Q1911.03 1448.67 1914.09 1453.27 Q1917.17 1457.86 1917.17 1466.61 Q1917.17 1475.33 1914.09 1479.94 Q1911.03 1484.52 1905.22 1484.52 Q1899.41 1484.52 1896.33 1479.94 Q1893.28 1475.33 1893.28 1466.61 Q1893.28 1457.86 1896.33 1453.27 Q1899.41 1448.67 1905.22 1448.67 Z" fill="#000000" fill-rule="evenodd" fill-opacity="1" /><path clip-path="url(#clip630)" d="M 0 0 M2271.11 1449.29 L2289.46 1449.29 L2289.46 1453.23 L2275.39 1453.23 L2275.39 1461.7 Q2276.41 1461.35 2277.43 1461.19 Q2278.45 1461 2279.46 1461 Q2285.25 1461 2288.63 1464.18 Q2292.01 1467.35 2292.01 1472.76 Q2292.01 1478.34 2288.54 1481.44 Q2285.07 1484.52 2278.75 1484.52 Q2276.57 1484.52 2274.3 1484.15 Q2272.06 1483.78 2269.65 1483.04 L2269.65 1478.34 Q2271.73 1479.48 2273.96 1480.03 Q2276.18 1480.59 2278.65 1480.59 Q2282.66 1480.59 2285 1478.48 Q2287.34 1476.38 2287.34 1472.76 Q2287.34 1469.15 2285 1467.05 Q2282.66 1464.94 2278.65 1464.94 Q2276.78 1464.94 2274.9 1465.36 Q2273.05 1465.77 2271.11 1466.65 L2271.11 1449.29 Z" fill="#000000" fill-rule="evenodd" fill-opacity="1" /><path clip-path="url(#clip630)" d="M 0 0 M2311.22 1452.37 Q2307.61 1452.37 2305.78 1455.94 Q2303.98 1459.48 2303.98 1466.61 Q2303.98 1473.71 2305.78 1477.28 Q2307.61 1480.82 2311.22 1480.82 Q2314.86 1480.82 2316.66 1477.28 Q2318.49 1473.71 2318.49 1466.61 Q2318.49 1459.48 2316.66 1455.94 Q2314.86 1452.37 2311.22 1452.37 M2311.22 1448.67 Q2317.03 1448.67 2320.09 1453.27 Q2323.17 1457.86 2323.17 1466.61 Q2323.17 1475.33 2320.09 1479.94 Q2317.03 1484.52 2311.22 1484.52 Q2305.41 1484.52 2302.33 1479.94 Q2299.28 1475.33 2299.28 1466.61 Q2299.28 1457.86 2302.33 1453.27 Q2305.41 1448.67 2311.22 1448.67 Z" fill="#000000" fill-rule="evenodd" fill-opacity="1" /><path clip-path="url(#clip630)" d="M 0 0 M1037.57 1518.52 L1037.57 1523.39 L1031.97 1523.39 Q1028.82 1523.39 1027.58 1524.66 Q1026.37 1525.93 1026.37 1529.24 L1026.37 1532.4 L1036.02 1532.4 L1036.02 1536.95 L1026.37 1536.95 L1026.37 1568.04 L1020.48 1568.04 L1020.48 1536.95 L1014.88 1536.95 L1014.88 1532.4 L1020.48 1532.4 L1020.48 1529.91 Q1020.48 1523.96 1023.25 1521.26 Q1026.02 1518.52 1032.04 1518.52 L1037.57 1518.52 Z" fill="#000000" fill-rule="evenodd" fill-opacity="1" /><path clip-path="url(#clip630)" d="M 0 0 M1063.13 1537.87 Q1062.15 1537.3 1060.97 1537.04 Q1059.82 1536.76 1058.42 1536.76 Q1053.46 1536.76 1050.78 1540 Q1048.14 1543.22 1048.14 1549.27 L1048.14 1568.04 L1042.25 1568.04 L1042.25 1532.4 L1048.14 1532.4 L1048.14 1537.93 Q1049.99 1534.69 1052.95 1533.13 Q1055.91 1531.54 1060.14 1531.54 Q1060.75 1531.54 1061.48 1531.63 Q1062.21 1531.7 1063.1 1531.85 L1063.13 1537.87 Z" fill="#000000" fill-rule="evenodd" fill-opacity="1" /><path clip-path="url(#clip630)" d="M 0 0 M1098.34 1548.76 L1098.34 1551.62 L1071.41 1551.62 Q1071.79 1557.67 1075.04 1560.85 Q1078.32 1564 1084.14 1564 Q1087.51 1564 1090.66 1563.17 Q1093.85 1562.35 1096.97 1560.69 L1096.97 1566.23 Q1093.82 1567.57 1090.51 1568.27 Q1087.2 1568.97 1083.79 1568.97 Q1075.26 1568.97 1070.26 1564 Q1065.3 1559.04 1065.3 1550.57 Q1065.3 1541.82 1070.01 1536.69 Q1074.75 1531.54 1082.77 1531.54 Q1089.96 1531.54 1094.13 1536.18 Q1098.34 1540.8 1098.34 1548.76 M1092.48 1547.04 Q1092.42 1542.23 1089.77 1539.37 Q1087.16 1536.5 1082.83 1536.5 Q1077.93 1536.5 1074.97 1539.27 Q1072.04 1542.04 1071.6 1547.07 L1092.48 1547.04 Z" fill="#000000" fill-rule="evenodd" fill-opacity="1" /><path clip-path="url(#clip630)" d="M 0 0 M1111.45 1550.25 Q1111.45 1556.71 1114.09 1560.4 Q1116.76 1564.07 1121.41 1564.07 Q1126.06 1564.07 1128.73 1560.4 Q1131.41 1556.71 1131.41 1550.25 Q1131.41 1543.79 1128.73 1540.13 Q1126.06 1536.44 1121.41 1536.44 Q1116.76 1536.44 1114.09 1540.13 Q1111.45 1543.79 1111.45 1550.25 M1131.41 1562.7 Q1129.56 1565.88 1126.73 1567.44 Q1123.93 1568.97 1119.98 1568.97 Q1113.52 1568.97 1109.44 1563.81 Q1105.4 1558.65 1105.4 1550.25 Q1105.4 1541.85 1109.44 1536.69 Q1113.52 1531.54 1119.98 1531.54 Q1123.93 1531.54 1126.73 1533.1 Q1129.56 1534.62 1131.41 1537.81 L1131.41 1532.4 L1137.26 1532.4 L1137.26 1581.6 L1131.41 1581.6 L1131.41 1562.7 Z" fill="#000000" fill-rule="evenodd" fill-opacity="1" /><path clip-path="url(#clip630)" d="M 0 0 M1148.72 1553.98 L1148.72 1532.4 L1154.58 1532.4 L1154.58 1553.75 Q1154.58 1558.81 1156.55 1561.36 Q1158.52 1563.87 1162.47 1563.87 Q1167.21 1563.87 1169.95 1560.85 Q1172.72 1557.83 1172.72 1552.61 L1172.72 1532.4 L1178.58 1532.4 L1178.58 1568.04 L1172.72 1568.04 L1172.72 1562.57 Q1170.59 1565.82 1167.75 1567.41 Q1164.95 1568.97 1161.23 1568.97 Q1155.09 1568.97 1151.9 1565.15 Q1148.72 1561.33 1148.72 1553.98 M1163.46 1531.54 L1163.46 1531.54 Z" fill="#000000" fill-rule="evenodd" fill-opacity="1" /><path clip-path="url(#clip630)" d="M 0 0 M1221.13 1548.76 L1221.13 1551.62 L1194.2 1551.62 Q1194.58 1557.67 1197.83 1560.85 Q1201.11 1564 1206.93 1564 Q1210.31 1564 1213.46 1563.17 Q1216.64 1562.35 1219.76 1560.69 L1219.76 1566.23 Q1216.61 1567.57 1213.3 1568.27 Q1209.99 1568.97 1206.58 1568.97 Q1198.05 1568.97 1193.06 1564 Q1188.09 1559.04 1188.09 1550.57 Q1188.09 1541.82 1192.8 1536.69 Q1197.54 1531.54 1205.57 1531.54 Q1212.76 1531.54 1216.93 1536.18 Q1221.13 1540.8 1221.13 1548.76 M1215.27 1547.04 Q1215.21 1542.23 1212.57 1539.37 Q1209.96 1536.5 1205.63 1536.5 Q1200.73 1536.5 1197.77 1539.27 Q1194.84 1542.04 1194.39 1547.07 L1215.27 1547.04 Z" fill="#000000" fill-rule="evenodd" fill-opacity="1" /><path clip-path="url(#clip630)" d="M 0 0 M1260.37 1546.53 L1260.37 1568.04 L1254.52 1568.04 L1254.52 1546.72 Q1254.52 1541.66 1252.54 1539.14 Q1250.57 1536.63 1246.62 1536.63 Q1241.88 1536.63 1239.14 1539.65 Q1236.41 1542.68 1236.41 1547.9 L1236.41 1568.04 L1230.52 1568.04 L1230.52 1532.4 L1236.41 1532.4 L1236.41 1537.93 Q1238.51 1534.72 1241.34 1533.13 Q1244.21 1531.54 1247.93 1531.54 Q1254.07 1531.54 1257.22 1535.36 Q1260.37 1539.14 1260.37 1546.53 Z" fill="#000000" fill-rule="evenodd" fill-opacity="1" /><path clip-path="url(#clip630)" d="M 0 0 M1297.71 1533.76 L1297.71 1539.24 Q1295.23 1537.87 1292.71 1537.2 Q1290.23 1536.5 1287.68 1536.5 Q1281.99 1536.5 1278.83 1540.13 Q1275.68 1543.73 1275.68 1550.25 Q1275.68 1556.78 1278.83 1560.4 Q1281.99 1564 1287.68 1564 Q1290.23 1564 1292.71 1563.33 Q1295.23 1562.63 1297.71 1561.26 L1297.71 1566.68 Q1295.26 1567.82 1292.62 1568.39 Q1290.01 1568.97 1287.05 1568.97 Q1278.99 1568.97 1274.25 1563.91 Q1269.51 1558.85 1269.51 1550.25 Q1269.51 1541.53 1274.28 1536.53 Q1279.09 1531.54 1287.43 1531.54 Q1290.13 1531.54 1292.71 1532.11 Q1295.29 1532.65 1297.71 1533.76 Z" fill="#000000" fill-rule="evenodd" fill-opacity="1" /><path clip-path="url(#clip630)" d="M 0 0 M1322.73 1571.35 Q1320.24 1577.72 1317.89 1579.66 Q1315.53 1581.6 1311.59 1581.6 L1306.91 1581.6 L1306.91 1576.7 L1310.35 1576.7 Q1312.76 1576.7 1314.1 1575.56 Q1315.44 1574.41 1317.06 1570.14 L1318.11 1567.47 L1303.69 1532.4 L1309.9 1532.4 L1321.04 1560.28 L1332.18 1532.4 L1338.39 1532.4 L1322.73 1571.35 Z" fill="#000000" fill-rule="evenodd" fill-opacity="1" /><path clip-path="url(#clip630)" d="M 0 0 M1381.26 1518.58 Q1376.99 1525.9 1374.93 1533.06 Q1372.86 1540.23 1372.86 1547.58 Q1372.86 1554.93 1374.93 1562.16 Q1377.03 1569.35 1381.26 1576.64 L1376.17 1576.64 Q1371.39 1569.16 1369.01 1561.93 Q1366.65 1554.71 1366.65 1547.58 Q1366.65 1540.48 1369.01 1533.29 Q1371.36 1526.09 1376.17 1518.58 L1381.26 1518.58 Z" fill="#000000" fill-rule="evenodd" fill-opacity="1" /><path clip-path="url(#clip630)" d="M 0 0 M1425.28 1561.26 L1425.28 1548.5 L1414.77 1548.5 L1414.77 1543.22 L1431.64 1543.22 L1431.64 1563.62 Q1427.92 1566.26 1423.43 1567.63 Q1418.94 1568.97 1413.85 1568.97 Q1402.71 1568.97 1396.41 1562.47 Q1390.14 1555.95 1390.14 1544.33 Q1390.14 1532.68 1396.41 1526.19 Q1402.71 1519.66 1413.85 1519.66 Q1418.5 1519.66 1422.67 1520.81 Q1426.87 1521.96 1430.4 1524.18 L1430.4 1531.03 Q1426.84 1528 1422.83 1526.48 Q1418.82 1524.95 1414.39 1524.95 Q1405.67 1524.95 1401.28 1529.82 Q1396.92 1534.69 1396.92 1544.33 Q1396.92 1553.94 1401.28 1558.81 Q1405.67 1563.68 1414.39 1563.68 Q1417.8 1563.68 1420.47 1563.11 Q1423.15 1562.51 1425.28 1561.26 Z" fill="#000000" fill-rule="evenodd" fill-opacity="1" /><path clip-path="url(#clip630)" d="M 0 0 M1443.39 1520.52 L1449.82 1520.52 L1449.82 1540 L1473.18 1540 L1473.18 1520.52 L1479.61 1520.52 L1479.61 1568.04 L1473.18 1568.04 L1473.18 1545.41 L1449.82 1545.41 L1449.82 1568.04 L1443.39 1568.04 L1443.39 1520.52 Z" fill="#000000" fill-rule="evenodd" fill-opacity="1" /><path clip-path="url(#clip630)" d="M 0 0 M1489.6 1532.4 L1517.42 1532.4 L1517.42 1537.74 L1495.4 1563.37 L1517.42 1563.37 L1517.42 1568.04 L1488.81 1568.04 L1488.81 1562.7 L1510.83 1537.07 L1489.6 1537.07 L1489.6 1532.4 Z" fill="#000000" fill-rule="evenodd" fill-opacity="1" /><path clip-path="url(#clip630)" d="M 0 0 M1525.44 1518.58 L1530.53 1518.58 Q1535.31 1526.09 1537.66 1533.29 Q1540.05 1540.48 1540.05 1547.58 Q1540.05 1554.71 1537.66 1561.93 Q1535.31 1569.16 1530.53 1576.64 L1525.44 1576.64 Q1529.68 1569.35 1531.74 1562.16 Q1533.85 1554.93 1533.85 1547.58 Q1533.85 1540.23 1531.74 1533.06 Q1529.68 1525.9 1525.44 1518.58 Z" fill="#000000" fill-rule="evenodd" fill-opacity="1" /><polyline clip-path="url(#clip633)" style="stroke:#000000; stroke-width:2; stroke-opacity:0.1; fill:none" points="
  202.177,1388.64 2352.76,1388.64 
  "/>
<polyline clip-path="url(#clip633)" style="stroke:#000000; stroke-width:2; stroke-opacity:0.1; fill:none" points="
  202.177,1098.32 2352.76,1098.32 
  "/>
<polyline clip-path="url(#clip633)" style="stroke:#000000; stroke-width:2; stroke-opacity:0.1; fill:none" points="
  202.177,808.011 2352.76,808.011 
  "/>
<polyline clip-path="url(#clip633)" style="stroke:#000000; stroke-width:2; stroke-opacity:0.1; fill:none" points="
  202.177,517.699 2352.76,517.699 
  "/>
<polyline clip-path="url(#clip633)" style="stroke:#000000; stroke-width:2; stroke-opacity:0.1; fill:none" points="
  202.177,227.387 2352.76,227.387 
  "/>
<polyline clip-path="url(#clip630)" style="stroke:#000000; stroke-width:4; stroke-opacity:1; fill:none" points="
  202.177,1423.18 202.177,202.606 
  "/>
<polyline clip-path="url(#clip630)" style="stroke:#000000; stroke-width:4; stroke-opacity:1; fill:none" points="
  202.177,1388.64 227.984,1388.64 
  "/>
<polyline clip-path="url(#clip630)" style="stroke:#000000; stroke-width:4; stroke-opacity:1; fill:none" points="
  202.177,1098.32 227.984,1098.32 
  "/>
<polyline clip-path="url(#clip630)" style="stroke:#000000; stroke-width:4; stroke-opacity:1; fill:none" points="
  202.177,808.011 227.984,808.011 
  "/>
<polyline clip-path="url(#clip630)" style="stroke:#000000; stroke-width:4; stroke-opacity:1; fill:none" points="
  202.177,517.699 227.984,517.699 
  "/>
<polyline clip-path="url(#clip630)" style="stroke:#000000; stroke-width:4; stroke-opacity:1; fill:none" points="
  202.177,227.387 227.984,227.387 
  "/>
<path clip-path="url(#clip630)" d="M 0 0 M154.232 1374.43 Q150.621 1374.43 148.793 1378 Q146.987 1381.54 146.987 1388.67 Q146.987 1395.78 148.793 1399.34 Q150.621 1402.88 154.232 1402.88 Q157.867 1402.88 159.672 1399.34 Q161.501 1395.78 161.501 1388.67 Q161.501 1381.54 159.672 1378 Q157.867 1374.43 154.232 1374.43 M154.232 1370.73 Q160.042 1370.73 163.098 1375.34 Q166.177 1379.92 166.177 1388.67 Q166.177 1397.4 163.098 1402 Q160.042 1406.59 154.232 1406.59 Q148.422 1406.59 145.343 1402 Q142.288 1397.4 142.288 1388.67 Q142.288 1379.92 145.343 1375.34 Q148.422 1370.73 154.232 1370.73 Z" fill="#000000" fill-rule="evenodd" fill-opacity="1" /><path clip-path="url(#clip630)" d="M 0 0 M54.5569 1111.67 L62.1958 1111.67 L62.1958 1085.3 L53.8856 1086.97 L53.8856 1082.71 L62.1495 1081.04 L66.8254 1081.04 L66.8254 1111.67 L74.4642 1111.67 L74.4642 1115.6 L54.5569 1115.6 L54.5569 1111.67 Z" fill="#000000" fill-rule="evenodd" fill-opacity="1" /><path clip-path="url(#clip630)" d="M 0 0 M93.9086 1084.12 Q90.2975 1084.12 88.4688 1087.69 Q86.6632 1091.23 86.6632 1098.36 Q86.6632 1105.46 88.4688 1109.03 Q90.2975 1112.57 93.9086 1112.57 Q97.5428 1112.57 99.3483 1109.03 Q101.177 1105.46 101.177 1098.36 Q101.177 1091.23 99.3483 1087.69 Q97.5428 1084.12 93.9086 1084.12 M93.9086 1080.42 Q99.7187 1080.42 102.774 1085.02 Q105.853 1089.61 105.853 1098.36 Q105.853 1107.08 102.774 1111.69 Q99.7187 1116.27 93.9086 1116.27 Q88.0984 1116.27 85.0197 1111.69 Q81.9642 1107.08 81.9642 1098.36 Q81.9642 1089.61 85.0197 1085.02 Q88.0984 1080.42 93.9086 1080.42 Z" fill="#000000" fill-rule="evenodd" fill-opacity="1" /><path clip-path="url(#clip630)" d="M 0 0 M124.07 1084.12 Q120.459 1084.12 118.631 1087.69 Q116.825 1091.23 116.825 1098.36 Q116.825 1105.46 118.631 1109.03 Q120.459 1112.57 124.07 1112.57 Q127.705 1112.57 129.51 1109.03 Q131.339 1105.46 131.339 1098.36 Q131.339 1091.23 129.51 1087.69 Q127.705 1084.12 124.07 1084.12 M124.07 1080.42 Q129.881 1080.42 132.936 1085.02 Q136.015 1089.61 136.015 1098.36 Q136.015 1107.08 132.936 1111.69 Q129.881 1116.27 124.07 1116.27 Q118.26 1116.27 115.182 1111.69 Q112.126 1107.08 112.126 1098.36 Q112.126 1089.61 115.182 1085.02 Q118.26 1080.42 124.07 1080.42 Z" fill="#000000" fill-rule="evenodd" fill-opacity="1" /><path clip-path="url(#clip630)" d="M 0 0 M154.232 1084.12 Q150.621 1084.12 148.793 1087.69 Q146.987 1091.23 146.987 1098.36 Q146.987 1105.46 148.793 1109.03 Q150.621 1112.57 154.232 1112.57 Q157.867 1112.57 159.672 1109.03 Q161.501 1105.46 161.501 1098.36 Q161.501 1091.23 159.672 1087.69 Q157.867 1084.12 154.232 1084.12 M154.232 1080.42 Q160.042 1080.42 163.098 1085.02 Q166.177 1089.61 166.177 1098.36 Q166.177 1107.08 163.098 1111.69 Q160.042 1116.27 154.232 1116.27 Q148.422 1116.27 145.343 1111.69 Q142.288 1107.08 142.288 1098.36 Q142.288 1089.61 145.343 1085.02 Q148.422 1080.42 154.232 1080.42 Z" fill="#000000" fill-rule="evenodd" fill-opacity="1" /><path clip-path="url(#clip630)" d="M 0 0 M57.7745 821.356 L74.0939 821.356 L74.0939 825.291 L52.1495 825.291 L52.1495 821.356 Q54.8115 818.601 59.3949 813.972 Q64.0013 809.319 65.1819 807.976 Q67.4272 805.453 68.3068 803.717 Q69.2096 801.958 69.2096 800.268 Q69.2096 797.513 67.2652 795.777 Q65.3439 794.041 62.2421 794.041 Q60.043 794.041 57.5893 794.805 Q55.1588 795.569 52.381 797.12 L52.381 792.398 Q55.2051 791.263 57.6588 790.685 Q60.1124 790.106 62.1495 790.106 Q67.5198 790.106 70.7142 792.791 Q73.9087 795.476 73.9087 799.967 Q73.9087 802.097 73.0985 804.018 Q72.3115 805.916 70.205 808.509 Q69.6263 809.18 66.5245 812.398 Q63.4226 815.592 57.7745 821.356 Z" fill="#000000" fill-rule="evenodd" fill-opacity="1" /><path clip-path="url(#clip630)" d="M 0 0 M93.9086 793.81 Q90.2975 793.81 88.4688 797.375 Q86.6632 800.916 86.6632 808.046 Q86.6632 815.152 88.4688 818.717 Q90.2975 822.259 93.9086 822.259 Q97.5428 822.259 99.3483 818.717 Q101.177 815.152 101.177 808.046 Q101.177 800.916 99.3483 797.375 Q97.5428 793.81 93.9086 793.81 M93.9086 790.106 Q99.7187 790.106 102.774 794.713 Q105.853 799.296 105.853 808.046 Q105.853 816.773 102.774 821.379 Q99.7187 825.962 93.9086 825.962 Q88.0984 825.962 85.0197 821.379 Q81.9642 816.773 81.9642 808.046 Q81.9642 799.296 85.0197 794.713 Q88.0984 790.106 93.9086 790.106 Z" fill="#000000" fill-rule="evenodd" fill-opacity="1" /><path clip-path="url(#clip630)" d="M 0 0 M124.07 793.81 Q120.459 793.81 118.631 797.375 Q116.825 800.916 116.825 808.046 Q116.825 815.152 118.631 818.717 Q120.459 822.259 124.07 822.259 Q127.705 822.259 129.51 818.717 Q131.339 815.152 131.339 808.046 Q131.339 800.916 129.51 797.375 Q127.705 793.81 124.07 793.81 M124.07 790.106 Q129.881 790.106 132.936 794.713 Q136.015 799.296 136.015 808.046 Q136.015 816.773 132.936 821.379 Q129.881 825.962 124.07 825.962 Q118.26 825.962 115.182 821.379 Q112.126 816.773 112.126 808.046 Q112.126 799.296 115.182 794.713 Q118.26 790.106 124.07 790.106 Z" fill="#000000" fill-rule="evenodd" fill-opacity="1" /><path clip-path="url(#clip630)" d="M 0 0 M154.232 793.81 Q150.621 793.81 148.793 797.375 Q146.987 800.916 146.987 808.046 Q146.987 815.152 148.793 818.717 Q150.621 822.259 154.232 822.259 Q157.867 822.259 159.672 818.717 Q161.501 815.152 161.501 808.046 Q161.501 800.916 159.672 797.375 Q157.867 793.81 154.232 793.81 M154.232 790.106 Q160.042 790.106 163.098 794.713 Q166.177 799.296 166.177 808.046 Q166.177 816.773 163.098 821.379 Q160.042 825.962 154.232 825.962 Q148.422 825.962 145.343 821.379 Q142.288 816.773 142.288 808.046 Q142.288 799.296 145.343 794.713 Q148.422 790.106 154.232 790.106 Z" fill="#000000" fill-rule="evenodd" fill-opacity="1" /><path clip-path="url(#clip630)" d="M 0 0 M67.9133 516.345 Q71.2698 517.062 73.1448 519.331 Q75.0429 521.599 75.0429 524.933 Q75.0429 530.048 71.5244 532.849 Q68.0059 535.65 61.5245 535.65 Q59.3486 535.65 57.0338 535.21 Q54.7421 534.794 52.2884 533.937 L52.2884 529.423 Q54.2328 530.558 56.5477 531.136 Q58.8625 531.715 61.3856 531.715 Q65.7837 531.715 68.0754 529.979 Q70.3902 528.243 70.3902 524.933 Q70.3902 521.877 68.2374 520.164 Q66.1078 518.428 62.2884 518.428 L58.2606 518.428 L58.2606 514.585 L62.4735 514.585 Q65.9226 514.585 67.7513 513.22 Q69.58 511.831 69.58 509.238 Q69.58 506.576 67.6819 505.164 Q65.8069 503.729 62.2884 503.729 Q60.3671 503.729 58.168 504.146 Q55.969 504.562 53.3301 505.442 L53.3301 501.275 Q55.9921 500.535 58.3069 500.164 Q60.6449 499.794 62.705 499.794 Q68.0291 499.794 71.1309 502.224 Q74.2327 504.632 74.2327 508.752 Q74.2327 511.623 72.5892 513.613 Q70.9457 515.581 67.9133 516.345 Z" fill="#000000" fill-rule="evenodd" fill-opacity="1" /><path clip-path="url(#clip630)" d="M 0 0 M93.9086 503.498 Q90.2975 503.498 88.4688 507.062 Q86.6632 510.604 86.6632 517.734 Q86.6632 524.84 88.4688 528.405 Q90.2975 531.947 93.9086 531.947 Q97.5428 531.947 99.3483 528.405 Q101.177 524.84 101.177 517.734 Q101.177 510.604 99.3483 507.062 Q97.5428 503.498 93.9086 503.498 M93.9086 499.794 Q99.7187 499.794 102.774 504.4 Q105.853 508.984 105.853 517.734 Q105.853 526.46 102.774 531.067 Q99.7187 535.65 93.9086 535.65 Q88.0984 535.65 85.0197 531.067 Q81.9642 526.46 81.9642 517.734 Q81.9642 508.984 85.0197 504.4 Q88.0984 499.794 93.9086 499.794 Z" fill="#000000" fill-rule="evenodd" fill-opacity="1" /><path clip-path="url(#clip630)" d="M 0 0 M124.07 503.498 Q120.459 503.498 118.631 507.062 Q116.825 510.604 116.825 517.734 Q116.825 524.84 118.631 528.405 Q120.459 531.947 124.07 531.947 Q127.705 531.947 129.51 528.405 Q131.339 524.84 131.339 517.734 Q131.339 510.604 129.51 507.062 Q127.705 503.498 124.07 503.498 M124.07 499.794 Q129.881 499.794 132.936 504.4 Q136.015 508.984 136.015 517.734 Q136.015 526.46 132.936 531.067 Q129.881 535.65 124.07 535.65 Q118.26 535.65 115.182 531.067 Q112.126 526.46 112.126 517.734 Q112.126 508.984 115.182 504.4 Q118.26 499.794 124.07 499.794 Z" fill="#000000" fill-rule="evenodd" fill-opacity="1" /><path clip-path="url(#clip630)" d="M 0 0 M154.232 503.498 Q150.621 503.498 148.793 507.062 Q146.987 510.604 146.987 517.734 Q146.987 524.84 148.793 528.405 Q150.621 531.947 154.232 531.947 Q157.867 531.947 159.672 528.405 Q161.501 524.84 161.501 517.734 Q161.501 510.604 159.672 507.062 Q157.867 503.498 154.232 503.498 M154.232 499.794 Q160.042 499.794 163.098 504.4 Q166.177 508.984 166.177 517.734 Q166.177 526.46 163.098 531.067 Q160.042 535.65 154.232 535.65 Q148.422 535.65 145.343 531.067 Q142.288 526.46 142.288 517.734 Q142.288 508.984 145.343 504.4 Q148.422 499.794 154.232 499.794 Z" fill="#000000" fill-rule="evenodd" fill-opacity="1" /><path clip-path="url(#clip630)" d="M 0 0 M66.5939 214.181 L54.7884 232.63 L66.5939 232.63 L66.5939 214.181 M65.367 210.107 L71.2466 210.107 L71.2466 232.63 L76.1772 232.63 L76.1772 236.519 L71.2466 236.519 L71.2466 244.667 L66.5939 244.667 L66.5939 236.519 L50.9921 236.519 L50.9921 232.005 L65.367 210.107 Z" fill="#000000" fill-rule="evenodd" fill-opacity="1" /><path clip-path="url(#clip630)" d="M 0 0 M93.9086 213.185 Q90.2975 213.185 88.4688 216.75 Q86.6632 220.292 86.6632 227.421 Q86.6632 234.528 88.4688 238.093 Q90.2975 241.634 93.9086 241.634 Q97.5428 241.634 99.3483 238.093 Q101.177 234.528 101.177 227.421 Q101.177 220.292 99.3483 216.75 Q97.5428 213.185 93.9086 213.185 M93.9086 209.482 Q99.7187 209.482 102.774 214.088 Q105.853 218.672 105.853 227.421 Q105.853 236.148 102.774 240.755 Q99.7187 245.338 93.9086 245.338 Q88.0984 245.338 85.0197 240.755 Q81.9642 236.148 81.9642 227.421 Q81.9642 218.672 85.0197 214.088 Q88.0984 209.482 93.9086 209.482 Z" fill="#000000" fill-rule="evenodd" fill-opacity="1" /><path clip-path="url(#clip630)" d="M 0 0 M124.07 213.185 Q120.459 213.185 118.631 216.75 Q116.825 220.292 116.825 227.421 Q116.825 234.528 118.631 238.093 Q120.459 241.634 124.07 241.634 Q127.705 241.634 129.51 238.093 Q131.339 234.528 131.339 227.421 Q131.339 220.292 129.51 216.75 Q127.705 213.185 124.07 213.185 M124.07 209.482 Q129.881 209.482 132.936 214.088 Q136.015 218.672 136.015 227.421 Q136.015 236.148 132.936 240.755 Q129.881 245.338 124.07 245.338 Q118.26 245.338 115.182 240.755 Q112.126 236.148 112.126 227.421 Q112.126 218.672 115.182 214.088 Q118.26 209.482 124.07 209.482 Z" fill="#000000" fill-rule="evenodd" fill-opacity="1" /><path clip-path="url(#clip630)" d="M 0 0 M154.232 213.185 Q150.621 213.185 148.793 216.75 Q146.987 220.292 146.987 227.421 Q146.987 234.528 148.793 238.093 Q150.621 241.634 154.232 241.634 Q157.867 241.634 159.672 238.093 Q161.501 234.528 161.501 227.421 Q161.501 220.292 159.672 216.75 Q157.867 213.185 154.232 213.185 M154.232 209.482 Q160.042 209.482 163.098 214.088 Q166.177 218.672 166.177 227.421 Q166.177 236.148 163.098 240.755 Q160.042 245.338 154.232 245.338 Q148.422 245.338 145.343 240.755 Q142.288 236.148 142.288 227.421 Q142.288 218.672 145.343 214.088 Q148.422 209.482 154.232 209.482 Z" fill="#000000" fill-rule="evenodd" fill-opacity="1" /><path clip-path="url(#clip630)" d="M 0 0 M1205.95 150.994 L1198.74 171.898 L1129.14 171.898 Q1128.19 171.898 1127.82 171.857 Q1127.46 171.816 1127.17 171.611 Q1126.88 171.406 1126.88 170.955 Q1126.88 170.586 1127.62 169.644 L1157.42 132.794 L1126.8 90.6574 Q1126.8 88.7309 1127.13 88.362 Q1127.46 87.9521 1129.14 87.9521 L1198.74 87.9521 L1205.95 107.586 L1203.86 107.586 Q1202.92 105.045 1201.4 102.913 Q1199.92 100.741 1198.2 99.1832 Q1196.52 97.6256 1194.31 96.3959 Q1192.14 95.1252 1190.09 94.3464 Q1188.08 93.5267 1185.58 92.9528 Q1183.08 92.338 1181.07 92.051 Q1179.1 91.7231 1176.64 91.5592 Q1174.18 91.3952 1172.63 91.3542 Q1171.07 91.3132 1169.1 91.3132 L1135.86 91.3132 L1163.12 128.736 Q1163.73 129.679 1163.73 129.925 Q1163.73 130.294 1162.95 131.278 L1133.85 167.266 L1169.51 167.266 Q1180.99 167.266 1188.98 164.848 Q1194.39 163.003 1198.33 159.355 Q1202.3 155.707 1203.86 150.994 L1205.95 150.994 Z" fill="#000000" fill-rule="evenodd" fill-opacity="1" /><path clip-path="url(#clip630)" d="M 0 0 M1112.8 192.981 Q1112.8 194.243 1111.77 195.19 Q1110.76 196.108 1109.67 196.108 Q1108.67 196.108 1108.04 195.505 Q1107.43 194.874 1107.43 193.985 Q1107.43 192.808 1108.44 191.833 Q1109.44 190.857 1110.62 190.857 Q1111.59 190.857 1112.2 191.46 Q1112.8 192.062 1112.8 192.981 M1113.31 221.3 Q1113.31 221.53 1113.06 222.448 Q1112.8 223.337 1112.17 224.714 Q1111.56 226.063 1110.73 227.325 Q1109.9 228.588 1108.52 229.477 Q1107.17 230.367 1105.63 230.367 Q1103.53 230.367 1102.15 228.99 Q1100.8 227.612 1100.8 225.547 Q1100.8 224.428 1102.15 220.841 Q1106.06 210.397 1106.2 209.967 Q1106.86 208.331 1106.86 206.896 Q1106.86 206.236 1106.72 205.835 Q1106.57 205.404 1106.28 205.261 Q1106 205.089 1105.83 205.06 Q1105.68 205.031 1105.4 205.031 Q1103.7 205.031 1102.12 206.753 Q1100.55 208.475 1099.46 212.319 Q1099.23 213.037 1099.08 213.209 Q1098.94 213.381 1098.51 213.381 Q1097.79 213.352 1097.79 212.778 Q1097.79 212.606 1097.99 211.946 Q1098.19 211.258 1098.57 210.225 Q1098.94 209.163 1099.6 208.073 Q1100.26 206.954 1101.06 205.978 Q1101.9 205.003 1103.07 204.371 Q1104.25 203.74 1105.57 203.74 Q1107.72 203.74 1109.04 205.146 Q1110.39 206.523 1110.39 208.561 Q1110.39 209.68 1109.61 211.659 Q1108.67 214.242 1108.32 215.074 L1106.03 221.243 Q1105.19 223.481 1104.94 224.169 Q1104.71 224.829 1104.51 225.633 Q1104.33 226.407 1104.33 227.125 Q1104.33 228.129 1104.65 228.588 Q1104.99 229.047 1105.74 229.047 Q1107.81 229.047 1109.33 227.01 Q1110.85 224.944 1111.74 221.788 Q1111.77 221.702 1111.79 221.558 Q1112.02 220.841 1112.25 220.755 Q1112.37 220.726 1112.6 220.726 Q1113.31 220.726 1113.31 221.3 Z" fill="#000000" fill-rule="evenodd" fill-opacity="1" /><path clip-path="url(#clip630)" d="M 0 0 M1134.15 220.784 Q1134.21 220.066 1135.33 220.066 L1171.34 220.066 Q1173.03 220.066 1173.06 220.726 Q1173.06 221.444 1171.45 221.415 L1135.73 221.415 Q1134.15 221.444 1134.15 220.784 M1134.15 209.307 Q1134.15 208.589 1135.38 208.618 L1171.28 208.618 Q1173.03 208.618 1173.06 209.307 Q1173.06 209.967 1171.57 209.967 L1135.33 209.967 Q1134.15 209.967 1134.15 209.307 Z" fill="#000000" fill-rule="evenodd" fill-opacity="1" /><path clip-path="url(#clip630)" d="M 0 0 M1195.71 196.165 L1195.71 194.329 Q1202.77 194.329 1206.41 190.57 Q1207.42 190.57 1207.59 190.8 Q1207.76 191.029 1207.76 192.091 L1207.76 225.059 Q1207.76 226.809 1208.62 227.354 Q1209.48 227.899 1213.24 227.899 L1215.11 227.899 L1215.11 229.707 Q1213.04 229.535 1205.58 229.535 Q1198.12 229.535 1196.08 229.707 L1196.08 227.899 L1197.95 227.899 Q1201.65 227.899 1202.54 227.383 Q1203.43 226.838 1203.43 225.059 L1203.43 194.616 Q1200.36 196.165 1195.71 196.165 Z" fill="#000000" fill-rule="evenodd" fill-opacity="1" /><path clip-path="url(#clip630)" d="M 0 0 M1117.66 59.639 Q1117.66 58.5774 1117.74 58.2617 Q1117.86 57.9461 1118.32 57.4584 L1129.59 44.891 Q1135.76 37.9475 1135.76 31.8933 Q1135.76 27.9625 1133.7 25.1506 Q1131.66 22.3387 1127.9 22.3387 Q1125.32 22.3387 1123.14 23.9168 Q1120.96 25.4949 1119.95 28.3068 Q1120.13 28.2494 1120.73 28.2494 Q1122.19 28.2494 1122.99 29.1676 Q1123.83 30.0857 1123.83 31.3195 Q1123.83 32.8976 1122.79 33.6723 Q1121.79 34.4183 1120.79 34.4183 Q1120.38 34.4183 1119.84 34.3322 Q1119.32 34.2461 1118.49 33.4427 Q1117.66 32.6107 1117.66 31.1473 Q1117.66 27.0443 1120.76 23.7734 Q1123.88 20.5024 1128.65 20.5024 Q1134.04 20.5024 1137.57 23.716 Q1141.13 26.9008 1141.13 31.8933 Q1141.13 33.6436 1140.58 35.2504 Q1140.07 36.8285 1139.35 38.0622 Q1138.66 39.296 1136.77 41.2758 Q1134.87 43.2556 1133.35 44.6615 Q1131.83 46.0674 1128.42 49.0515 L1122.19 55.1056 L1132.78 55.1056 Q1137.94 55.1056 1138.35 54.6465 Q1138.92 53.8144 1139.64 49.4245 L1141.13 49.4245 L1139.46 59.639 L1117.66 59.639 Z" fill="#000000" fill-rule="evenodd" fill-opacity="1" /><path clip-path="url(#clip630)" d="M 0 0 M1146.75 40.8454 Q1146.75 32.209 1148.93 27.5034 Q1151.97 20.5024 1159.15 20.5024 Q1160.67 20.5024 1162.25 20.9328 Q1163.85 21.3345 1165.86 22.9126 Q1167.9 24.4907 1169.13 27.073 Q1171.48 32.0655 1171.48 40.8454 Q1171.48 49.4245 1169.3 54.1013 Q1166.12 60.9301 1159.09 60.9301 Q1156.45 60.9301 1153.75 59.5816 Q1151.08 58.2331 1149.39 54.9908 Q1146.75 50.1418 1146.75 40.8454 M1151.63 40.1281 Q1151.63 48.9941 1152.26 52.5232 Q1152.98 56.3393 1154.93 58.0035 Q1156.91 59.639 1159.09 59.639 Q1161.44 59.639 1163.39 57.8887 Q1165.37 56.1098 1165.98 52.2937 Q1166.64 48.535 1166.61 40.1281 Q1166.61 31.9507 1166.03 28.6798 Q1165.26 24.8637 1163.19 23.343 Q1161.16 21.7936 1159.09 21.7936 Q1158.31 21.7936 1157.48 22.0231 Q1156.68 22.2527 1155.5 22.9126 Q1154.33 23.5725 1153.41 25.208 Q1152.52 26.8435 1152.09 29.311 Q1151.63 32.4959 1151.63 40.1281 Z" fill="#000000" fill-rule="evenodd" fill-opacity="1" /><path clip-path="url(#clip630)" d="M 0 0 M1175.85 40.8454 Q1175.85 32.209 1178.03 27.5034 Q1181.07 20.5024 1188.24 20.5024 Q1189.76 20.5024 1191.34 20.9328 Q1192.95 21.3345 1194.95 22.9126 Q1196.99 24.4907 1198.23 27.073 Q1200.58 32.0655 1200.58 40.8454 Q1200.58 49.4245 1198.4 54.1013 Q1195.21 60.9301 1188.18 60.9301 Q1185.54 60.9301 1182.85 59.5816 Q1180.18 58.2331 1178.49 54.9908 Q1175.85 50.1418 1175.85 40.8454 M1180.72 40.1281 Q1180.72 48.9941 1181.35 52.5232 Q1182.07 56.3393 1184.02 58.0035 Q1186 59.639 1188.18 59.639 Q1190.54 59.639 1192.49 57.8887 Q1194.47 56.1098 1195.07 52.2937 Q1195.73 48.535 1195.7 40.1281 Q1195.7 31.9507 1195.13 28.6798 Q1194.35 24.8637 1192.29 23.343 Q1190.25 21.7936 1188.18 21.7936 Q1187.41 21.7936 1186.58 22.0231 Q1185.77 22.2527 1184.6 22.9126 Q1183.42 23.5725 1182.5 25.208 Q1181.61 26.8435 1181.18 29.311 Q1180.72 32.4959 1180.72 40.1281 Z" fill="#000000" fill-rule="evenodd" fill-opacity="1" /><path clip-path="url(#clip630)" d="M 0 0 M1280.5 103.718 L1279.78 104.895 Q1275.34 102.972 1269.8 99.902 Q1264.26 102.972 1259.81 104.895 L1259.13 103.718 Q1263.97 99.5003 1269.8 96.2581 Q1275.68 99.529 1280.5 103.718 Z" fill="#000000" fill-rule="evenodd" fill-opacity="1" /><path clip-path="url(#clip630)" d="M 0 0 M1283.25 117.751 Q1283.25 117.792 1283.01 119.268 L1273.66 156.527 Q1273.17 158.495 1271.78 160.462 Q1270.43 162.471 1268.25 164.192 Q1266.12 165.955 1262.84 167.02 Q1259.6 168.127 1255.87 168.127 Q1249.93 168.127 1247.31 166.856 Q1244.72 165.627 1244.72 163.003 Q1244.72 160.708 1246.16 159.396 Q1247.59 158.126 1249.23 158.126 Q1250.79 158.126 1251.61 159.028 Q1252.43 159.929 1252.43 161.077 Q1252.43 162.348 1251.57 163.618 Q1250.71 164.93 1248.99 165.422 Q1251.73 166.283 1255.71 166.283 Q1264.11 166.283 1267.72 157.388 Q1267.8 157.265 1267.8 157.224 L1270.59 146.116 L1270.47 146.034 Q1269.77 146.854 1268.66 147.796 Q1267.6 148.698 1265.3 149.805 Q1263.01 150.912 1260.75 150.912 Q1256.04 150.912 1252.8 147.305 Q1249.6 143.657 1249.6 137.631 Q1249.6 133.245 1251.37 128.859 Q1253.17 124.433 1255.96 121.194 Q1258.78 117.915 1262.39 115.866 Q1266.04 113.816 1269.56 113.816 Q1272.02 113.816 1274.11 115.292 Q1276.2 116.727 1277.35 119.104 Q1277.56 117.136 1278.66 116.317 Q1279.81 115.497 1280.8 115.497 Q1281.9 115.497 1282.56 116.112 Q1283.25 116.686 1283.25 117.751 M1276.37 122.875 Q1276.37 122.629 1276.2 121.973 Q1276.04 121.276 1275.55 120.17 Q1275.1 119.063 1274.4 118.079 Q1273.7 117.095 1272.43 116.399 Q1271.2 115.661 1269.65 115.661 Q1267.11 115.661 1264.56 117.792 Q1262.02 119.883 1260.26 123.121 Q1258.62 126.236 1257.06 132.262 Q1255.55 138.287 1255.55 141.361 Q1255.55 144.394 1256.86 146.731 Q1258.17 149.067 1261 149.067 Q1264.28 149.067 1267.8 146.034 Q1271.45 142.878 1272.06 140.172 L1276.12 124.146 Q1276.37 123.162 1276.37 122.875 Z" fill="#000000" fill-rule="evenodd" fill-opacity="1" /><path clip-path="url(#clip630)" d="M 0 0 M1309.02 154.248 Q1309.02 155.511 1307.99 156.458 Q1306.99 157.376 1305.9 157.376 Q1304.89 157.376 1304.26 156.773 Q1303.66 156.142 1303.66 155.253 Q1303.66 154.076 1304.66 153.101 Q1305.67 152.125 1306.84 152.125 Q1307.82 152.125 1308.42 152.728 Q1309.02 153.33 1309.02 154.248 M1309.54 182.568 Q1309.54 182.797 1309.28 183.716 Q1309.02 184.605 1308.39 185.982 Q1307.79 187.331 1306.96 188.593 Q1306.13 189.856 1304.75 190.745 Q1303.4 191.635 1301.85 191.635 Q1299.76 191.635 1298.38 190.257 Q1297.03 188.88 1297.03 186.814 Q1297.03 185.695 1298.38 182.109 Q1302.28 171.665 1302.43 171.234 Q1303.09 169.599 1303.09 168.164 Q1303.09 167.504 1302.94 167.103 Q1302.8 166.672 1302.51 166.529 Q1302.22 166.357 1302.05 166.328 Q1301.91 166.299 1301.62 166.299 Q1299.93 166.299 1298.35 168.021 Q1296.77 169.742 1295.68 173.587 Q1295.45 174.304 1295.31 174.477 Q1295.17 174.649 1294.74 174.649 Q1294.02 174.62 1294.02 174.046 Q1294.02 173.874 1294.22 173.214 Q1294.42 172.525 1294.79 171.493 Q1295.17 170.431 1295.83 169.341 Q1296.49 168.222 1297.29 167.246 Q1298.12 166.271 1299.3 165.639 Q1300.47 165.008 1301.79 165.008 Q1303.95 165.008 1305.27 166.414 Q1306.61 167.791 1306.61 169.828 Q1306.61 170.947 1305.84 172.927 Q1304.89 175.51 1304.55 176.342 L1302.25 182.51 Q1301.42 184.748 1301.16 185.437 Q1300.93 186.097 1300.73 186.9 Q1300.56 187.675 1300.56 188.392 Q1300.56 189.397 1300.88 189.856 Q1301.22 190.315 1301.97 190.315 Q1304.03 190.315 1305.55 188.278 Q1307.07 186.212 1307.96 183.056 Q1307.99 182.97 1308.02 182.826 Q1308.25 182.109 1308.48 182.023 Q1308.59 181.994 1308.82 181.994 Q1309.54 181.994 1309.54 182.568 Z" fill="#000000" fill-rule="evenodd" fill-opacity="1" /><path clip-path="url(#clip630)" d="M 0 0 M1294.02 80.6055 Q1294.02 70.6779 1297.72 62.6726 Q1299.3 59.3156 1301.51 56.5038 Q1303.72 53.6919 1305.18 52.4581 Q1306.64 51.2243 1307.04 51.2243 Q1307.62 51.2243 1307.65 51.7982 Q1307.65 52.0851 1306.87 52.8024 Q1297.4 62.4431 1297.43 80.6055 Q1297.43 98.8252 1306.64 108.093 Q1307.65 109.097 1307.65 109.413 Q1307.65 109.987 1307.04 109.987 Q1306.64 109.987 1305.24 108.81 Q1303.83 107.634 1301.65 104.937 Q1299.47 102.24 1297.89 98.94 Q1294.02 90.9348 1294.02 80.6055 Z" fill="#000000" fill-rule="evenodd" fill-opacity="1" /><path clip-path="url(#clip630)" d="M 0 0 M1316.58 95.296 Q1316.58 94.2344 1316.66 93.9188 Q1316.78 93.6032 1317.24 93.1154 L1328.51 80.5481 Q1334.68 73.6045 1334.68 67.5504 Q1334.68 63.6195 1332.62 60.8076 Q1330.58 57.9958 1326.82 57.9958 Q1324.24 57.9958 1322.06 59.5739 Q1319.88 61.1519 1318.87 63.9638 Q1319.05 63.9064 1319.65 63.9064 Q1321.11 63.9064 1321.91 64.8246 Q1322.75 65.7427 1322.75 66.9765 Q1322.75 68.5546 1321.71 69.3293 Q1320.71 70.0753 1319.71 70.0753 Q1319.3 70.0753 1318.76 69.9892 Q1318.24 69.9032 1317.41 69.0998 Q1316.58 68.2677 1316.58 66.8044 Q1316.58 62.7013 1319.68 59.4304 Q1322.8 56.1595 1327.57 56.1595 Q1332.96 56.1595 1336.49 59.373 Q1340.05 62.5579 1340.05 67.5504 Q1340.05 69.3006 1339.5 70.9074 Q1338.99 72.4855 1338.27 73.7193 Q1337.58 74.953 1335.69 76.9328 Q1333.79 78.9126 1332.27 80.3185 Q1330.75 81.7245 1327.34 84.7085 L1321.11 90.7626 L1331.7 90.7626 Q1336.86 90.7626 1337.26 90.3035 Q1337.84 89.4714 1338.56 85.0815 L1340.05 85.0815 L1338.38 95.296 L1316.58 95.296 Z" fill="#000000" fill-rule="evenodd" fill-opacity="1" /><path clip-path="url(#clip630)" d="M 0 0 M1345.67 109.413 Q1345.67 109.126 1346.42 108.408 Q1355.89 98.7678 1355.89 80.6055 Q1355.89 62.3857 1346.79 53.1754 Q1345.67 52.1138 1345.67 51.7982 Q1345.67 51.2243 1346.25 51.2243 Q1346.65 51.2243 1348.05 52.4007 Q1349.49 53.5771 1351.64 56.2742 Q1353.82 58.9713 1355.43 62.271 Q1359.3 70.2762 1359.3 80.6055 Q1359.3 90.5331 1355.6 98.5383 Q1354.02 101.895 1351.81 104.707 Q1349.6 107.519 1348.14 108.753 Q1346.68 109.987 1346.25 109.987 Q1345.67 109.987 1345.67 109.413 Z" fill="#000000" fill-rule="evenodd" fill-opacity="1" /><path clip-path="url(#clip630)" d="M 0 0 M1377.19 129.925 Q1377.19 115.743 1382.48 104.307 Q1384.73 99.5111 1387.89 95.4941 Q1391.04 91.4772 1393.14 89.7146 Q1395.23 87.9521 1395.8 87.9521 Q1396.62 87.9521 1396.66 88.7719 Q1396.66 89.1818 1395.55 90.2065 Q1382.03 103.979 1382.07 129.925 Q1382.07 155.953 1395.23 169.193 Q1396.66 170.627 1396.66 171.078 Q1396.66 171.898 1395.8 171.898 Q1395.23 171.898 1393.22 170.218 Q1391.21 168.537 1388.09 164.684 Q1384.98 160.831 1382.72 156.117 Q1377.19 144.681 1377.19 129.925 Z" fill="#000000" fill-rule="evenodd" fill-opacity="1" /><path clip-path="url(#clip630)" d="M 0 0 M1448.93 116.071 Q1448.93 116.44 1448.6 117.71 Q1448.32 118.94 1447.37 121.358 Q1446.47 123.736 1445.08 126.4 Q1443.73 129.023 1441.23 132.343 Q1438.72 135.664 1435.61 138.574 Q1429.75 144.066 1423.48 147.018 Q1417.25 149.969 1411.92 150.912 L1410.73 150.912 Q1409.42 150.912 1409.42 149.887 L1410.32 146.116 L1415.44 125.58 Q1417.04 119.309 1417.04 118.776 Q1417.04 118.284 1416.84 118.038 Q1416.67 117.751 1415.69 117.546 Q1414.75 117.341 1412.86 117.341 Q1412.08 117.341 1411.71 117.3 Q1411.39 117.259 1411.1 117.054 Q1410.81 116.809 1410.81 116.317 Q1410.81 115.62 1411.1 115.251 Q1411.43 114.841 1411.67 114.759 Q1411.92 114.677 1412.41 114.636 Q1413.11 114.595 1415.44 114.39 Q1417.78 114.144 1419.79 113.98 Q1421.8 113.816 1422.66 113.816 Q1423.15 113.816 1423.44 114.062 Q1423.72 114.267 1423.72 114.513 L1423.76 114.718 L1415.52 148.124 Q1418.56 147.141 1421.55 145.501 Q1424.58 143.861 1427.86 141.156 Q1431.14 138.41 1433.93 135.008 Q1436.72 131.606 1439.18 126.851 Q1441.68 122.055 1443.23 116.563 Q1443.52 115.456 1444.22 114.8 Q1444.96 114.144 1445.49 113.98 Q1446.02 113.816 1446.51 113.816 Q1447.62 113.816 1448.28 114.431 Q1448.93 115.005 1448.93 116.071 Z" fill="#000000" fill-rule="evenodd" fill-opacity="1" /><path clip-path="url(#clip630)" d="M 0 0 M1450.45 171.078 Q1450.45 170.668 1451.52 169.644 Q1465.04 155.871 1465.04 129.925 Q1465.04 103.897 1452.05 90.7394 Q1450.45 89.2228 1450.45 88.7719 Q1450.45 87.9521 1451.27 87.9521 Q1451.85 87.9521 1453.85 89.6327 Q1455.9 91.3132 1458.98 95.1662 Q1462.09 99.0192 1464.39 103.733 Q1469.92 115.169 1469.92 129.925 Q1469.92 144.107 1464.63 155.543 Q1462.38 160.339 1459.22 164.356 Q1456.07 168.373 1453.98 170.136 Q1451.89 171.898 1451.27 171.898 Q1450.45 171.898 1450.45 171.078 Z" fill="#000000" fill-rule="evenodd" fill-opacity="1" /><polyline clip-path="url(#clip633)" style="stroke:#009af9; stroke-width:4; stroke-opacity:1; fill:none" points="
  263.042,1388.64 267.561,1308.62 272.079,1371.14 276.598,1371.52 281.117,1361.56 285.635,1351.87 290.154,1367.79 294.672,1371.04 299.191,1383.73 303.709,1382.18 
  308.228,1344.44 312.747,1370.2 317.265,1375.26 321.784,1380.68 326.302,1373.53 330.821,1374.92 335.34,1375.98 339.858,1372.39 344.377,1373.83 348.895,1368.71 
  353.414,1375.47 357.933,1379.81 362.451,1375.03 366.97,1371.72 371.488,1363.85 376.007,1379 380.526,1363.6 385.044,1357.35 389.563,1364.75 394.081,1364.06 
  398.6,1376.76 403.119,1382.32 407.637,1385.61 412.156,1373.23 416.674,1375.67 421.193,1383.1 425.711,237.151 430.23,1380.18 434.749,1377.6 439.267,1379.22 
  443.786,1379.05 448.304,1375.92 452.823,1374.3 457.342,1376.92 461.86,1378.77 466.379,1371.83 470.897,1376.68 475.416,1370.83 479.935,1386.87 484.453,1376.43 
  488.972,1365.12 493.49,1382.63 498.009,1383.21 502.528,1368.85 507.046,1378.99 511.565,1387.46 516.083,1379.42 520.602,1373.56 525.121,1376.98 529.639,1376.54 
  534.158,1376.55 538.676,1362.7 543.195,1376.22 547.714,1373.74 552.232,1365.56 556.751,1381.66 561.269,1375.21 565.788,1375.73 570.306,1383.81 574.825,1376.31 
  579.344,1385.27 583.862,1380.47 588.381,1372.05 592.899,1380.82 597.418,1366.15 601.937,1372.61 606.455,1374.37 610.974,1373.03 615.492,1383.55 620.011,1387.48 
  624.53,1382.63 629.048,1370.08 633.567,1383.09 638.085,1372 642.604,1375.1 647.123,1368.61 651.641,1386.47 656.16,1382.68 660.678,1371.84 665.197,1377.55 
  669.716,1365.47 674.234,1385.73 678.753,1363.68 683.271,1369.25 687.79,1381.42 692.308,1386.1 696.827,1383.39 701.346,1383.79 705.864,1378.72 710.383,1378.1 
  714.901,1374.96 719.42,1383.58 723.939,1374.66 728.457,1372.66 732.976,1377.35 737.494,1379.54 742.013,1382.87 746.532,1380.19 751.05,1375.99 755.569,1385.03 
  760.087,1366.73 764.606,1364.91 769.125,1369.95 773.643,1384.97 778.162,1379.53 782.68,1380.88 787.199,1382.6 791.718,1380.92 796.236,1383.6 800.755,1376 
  805.273,1368.5 809.792,1372.36 814.311,1383.14 818.829,1379.38 823.348,1367.71 827.866,1372.67 832.385,1370.85 836.903,1386.08 841.422,1380.55 845.941,1376.68 
  850.459,1376.9 854.978,1374.1 859.496,1378.04 864.015,1382.99 868.534,1379.45 873.052,1380.44 877.571,1381.57 882.089,1379.83 886.608,1369.79 891.127,1378.93 
  895.645,1382.34 900.164,1377.06 904.682,1385.99 909.201,1373.83 913.72,1379.03 918.238,1370.43 922.757,1382.64 927.275,1383.39 931.794,1379.39 936.313,1381.36 
  940.831,1384.21 945.35,1382.77 949.868,1378.74 954.387,1383.15 958.905,1377.58 963.424,1380.64 967.943,1376.58 972.461,1378.28 976.98,1375.25 981.498,1377.94 
  986.017,1382.11 990.536,1379.24 995.054,1378.92 999.573,1376.14 1004.09,1383.66 1008.61,1367.58 1013.13,1376.14 1017.65,1380.01 1022.17,1378.18 1026.68,1384.37 
  1031.2,1380.24 1035.72,1378.6 1040.24,1379.75 1044.76,1380.14 1049.28,1380.61 1053.8,1377.1 1058.31,1381.35 1062.83,1370.4 1067.35,1378.86 1071.87,1374.89 
  1076.39,1381.48 1080.91,1374.9 1085.43,1383.29 1089.94,1387.79 1094.46,1386.23 1098.98,1383.75 1103.5,1379.76 1108.02,1382.81 1112.54,1379 1117.06,1382.77 
  1121.57,1385.02 1126.09,1385.46 1130.61,1378.88 1135.13,1385.98 1139.65,1379.24 1144.17,1377.88 1148.69,1384.68 1153.2,1382.83 1157.72,1386.1 1162.24,1377.19 
  1166.76,1379.17 1171.28,1378.9 1175.8,1381.77 1180.32,1383.65 1184.84,1384.38 1189.35,1379.02 1193.87,1376.91 1198.39,1382.71 1202.91,1382.11 1207.43,1381.3 
  1211.95,1379.64 1216.47,1383.01 1220.98,1384.95 1225.5,1381.9 1230.02,1377.85 1234.54,1387.49 1239.06,1384.08 1243.58,1383.47 1248.1,1381.9 1252.61,1384.88 
  1257.13,1384.37 1261.65,1386.44 1266.17,1383.42 1270.69,1383.23 1275.21,1382.13 1279.73,1387.54 1284.24,1380.72 1288.76,1384.48 1293.28,1382.64 1297.8,1383.71 
  1302.32,1380.11 1306.84,1379.78 1311.36,1387.72 1315.87,1383.14 1320.39,1385.11 1324.91,1378.27 1329.43,1384.96 1333.95,1379.65 1338.47,1382.44 1342.99,1382.69 
  1347.5,1385.8 1352.02,1384.49 1356.54,1383.34 1361.06,1386.33 1365.58,1382.3 1370.1,1381.24 1374.62,1380.31 1379.13,1388.15 1383.65,1385.91 1388.17,1384.75 
  1392.69,1384.19 1397.21,1381.44 1401.73,1386.18 1406.25,1386.03 1410.76,1384.66 1415.28,1382.55 1419.8,1384.41 1424.32,1385.87 1428.84,1384.49 1433.36,1388.13 
  1437.88,1387.26 1442.39,1383.68 1446.91,1385.92 1451.43,1384.04 1455.95,1385 1460.47,1381.91 1464.99,1387.41 1469.51,1385.74 1474.03,1386.09 1478.54,1383.95 
  1483.06,1385.27 1487.58,1381.1 1492.1,1385.74 1496.62,1383.48 1501.14,1385.81 1505.66,1385.31 1510.17,1385.94 1514.69,1386.81 1519.21,1382.88 1523.73,1384.47 
  1528.25,1385.22 1532.77,1383.72 1537.29,1386.49 1541.8,1386.24 1546.32,1385.23 1550.84,1383.69 1555.36,1383.22 1559.88,1386.49 1564.4,1384.07 1568.92,1386.03 
  1573.43,1387.69 1577.95,1385.22 1582.47,1386.77 1586.99,1383.96 1591.51,1384.19 1596.03,1386.16 1600.55,1387.63 1605.06,1386.38 1609.58,1386.83 1614.1,1381.67 
  1618.62,1387.99 1623.14,1382.82 1627.66,1385.21 1632.18,1381.99 1636.69,1385.49 1641.21,1384.88 1645.73,1383.81 1650.25,1384.14 1654.77,1384.18 1659.29,1384.08 
  1663.81,1384.29 1668.32,1386.89 1672.84,1385.69 1677.36,1384.2 1681.88,1384.27 1686.4,1386.78 1690.92,1384.42 1695.44,1386.09 1699.95,1382.9 1704.47,1385.62 
  1708.99,1385.18 1713.51,1384.95 1718.03,1387.4 1722.55,1386.64 1727.07,1386.68 1731.58,1387.32 1736.1,1388.25 1740.62,1387.24 1745.14,1386.97 1749.66,1385.76 
  1754.18,1386.49 1758.7,1385.91 1763.22,1386.79 1767.73,1384 1772.25,1384.13 1776.77,1385.06 1781.29,1385.68 1785.81,1383.76 1790.33,1386.31 1794.85,1385.61 
  1799.36,1386.17 1803.88,1387.12 1808.4,1385.93 1812.92,1386.2 1817.44,1386.26 1821.96,1386.87 1826.48,1387.12 1830.99,1387.59 1835.51,1387.32 1840.03,1387.52 
  1844.55,1386.86 1849.07,1386.63 1853.59,1386.4 1858.11,1387.64 1862.62,1386.83 1867.14,1386.45 1871.66,1387.02 1876.18,1387.06 1880.7,1385.56 1885.22,1386.88 
  1889.74,1387.51 1894.25,1388.38 1898.77,1386.53 1903.29,1388.36 1907.81,1387.59 1912.33,1387.74 1916.85,1386.35 1921.37,1388.53 1925.88,1387.11 1930.4,1386.45 
  1934.92,1384.04 1939.44,1386.51 1943.96,1387.86 1948.48,1387 1953,1387.51 1957.51,1387.79 1962.03,1385.63 1966.55,1387.51 1971.07,1385.29 1975.59,1388.02 
  1980.11,1386.77 1984.63,1387.69 1989.14,1387.34 1993.66,1388.34 1998.18,1387.66 2002.7,1387.78 2007.22,1388.05 2011.74,1388.15 2016.26,1387.26 2020.77,1387.84 
  2025.29,1387.82 2029.81,1388.01 2034.33,1387.8 2038.85,1388.19 2043.37,1388.31 2047.89,1388.17 2052.41,1388.29 2056.92,1388.43 2061.44,1388.3 2065.96,1388.04 
  2070.48,1387.82 2075,1388.45 2079.52,1387.5 2084.04,1388.24 2088.55,1388.32 2093.07,1388.24 2097.59,1387.18 2102.11,1387.96 2106.63,1388.34 2111.15,1386.14 
  2115.67,1388.05 2120.18,1388.37 2124.7,1387.59 2129.22,1387.69 2133.74,1388.31 2138.26,1387.88 2142.78,1387.9 2147.3,1388.39 2151.81,1388.55 2156.33,1387.97 
  2160.85,1388.45 2165.37,1388.37 2169.89,1388.17 2174.41,1388.36 2178.93,1388.54 2183.44,1388.09 2187.96,1387.93 2192.48,1388.45 2197,1388.6 2201.52,1388.6 
  2206.04,1388.57 2210.56,1388.55 2215.07,1388.53 2219.59,1388.52 2224.11,1388.5 2228.63,1388.48 2233.15,1388.44 2237.67,1388.34 2242.19,1386.82 2246.7,1388.29 
  2251.22,1388.46 2255.74,1388.5 2260.26,1388.51 2264.78,1388.51 2269.3,1388.43 2273.82,1388.22 2278.33,1387.99 2282.85,1388.33 2287.37,1387.9 2291.89,1388.23 
  
  "/>
<polyline clip-path="url(#clip633)" style="stroke:#e26f46; stroke-width:4; stroke-opacity:1; fill:none" stroke-dasharray="16, 10" points="
  425.711,2643.75 425.711,-1017.97 
  "/>
<path clip-path="url(#clip630)" d="
M1685.57 364.252 L2281.07 364.252 L2281.07 243.292 L1685.57 243.292  Z
  " fill="#ffffff" fill-rule="evenodd" fill-opacity="1"/>
<polyline clip-path="url(#clip630)" style="stroke:#000000; stroke-width:4; stroke-opacity:1; fill:none" points="
  1685.57,364.252 2281.07,364.252 2281.07,243.292 1685.57,243.292 1685.57,364.252 
  "/>
<polyline clip-path="url(#clip630)" style="stroke:#e26f46; stroke-width:4; stroke-opacity:1; fill:none" stroke-dasharray="16, 10" points="
  1709.46,303.772 1852.83,303.772 
  "/>
<path clip-path="url(#clip630)" d="M 0 0 M1876.73 286.492 L1896.59 286.492 L1896.59 290.427 L1881.41 290.427 L1881.41 300.612 L1895.11 300.612 L1895.11 304.547 L1881.41 304.547 L1881.41 321.052 L1876.73 321.052 L1876.73 286.492 Z" fill="#000000" fill-rule="evenodd" fill-opacity="1" /><path clip-path="url(#clip630)" d="M 0 0 M1915.39 299.108 Q1914.67 298.691 1913.81 298.506 Q1912.98 298.297 1911.96 298.297 Q1908.35 298.297 1906.41 300.659 Q1904.48 302.997 1904.48 307.395 L1904.48 321.052 L1900.2 321.052 L1900.2 295.126 L1904.48 295.126 L1904.48 299.154 Q1905.83 296.793 1907.98 295.659 Q1910.13 294.501 1913.21 294.501 Q1913.65 294.501 1914.18 294.571 Q1914.72 294.617 1915.36 294.733 L1915.39 299.108 Z" fill="#000000" fill-rule="evenodd" fill-opacity="1" /><path clip-path="url(#clip630)" d="M 0 0 M1940.99 307.024 L1940.99 309.108 L1921.41 309.108 Q1921.68 313.506 1924.04 315.821 Q1926.43 318.112 1930.67 318.112 Q1933.12 318.112 1935.41 317.51 Q1937.73 316.908 1939.99 315.705 L1939.99 319.733 Q1937.7 320.705 1935.29 321.214 Q1932.89 321.723 1930.41 321.723 Q1924.21 321.723 1920.57 318.112 Q1916.96 314.501 1916.96 308.344 Q1916.96 301.978 1920.39 298.251 Q1923.84 294.501 1929.67 294.501 Q1934.9 294.501 1937.93 297.881 Q1940.99 301.237 1940.99 307.024 M1936.73 305.774 Q1936.68 302.279 1934.76 300.196 Q1932.86 298.112 1929.72 298.112 Q1926.15 298.112 1924 300.126 Q1921.87 302.14 1921.54 305.797 L1936.73 305.774 Z" fill="#000000" fill-rule="evenodd" fill-opacity="1" /><path clip-path="url(#clip630)" d="M 0 0 M1950.53 308.112 Q1950.53 312.811 1952.45 315.496 Q1954.39 318.158 1957.77 318.158 Q1961.15 318.158 1963.1 315.496 Q1965.04 312.811 1965.04 308.112 Q1965.04 303.413 1963.1 300.751 Q1961.15 298.066 1957.77 298.066 Q1954.39 298.066 1952.45 300.751 Q1950.53 303.413 1950.53 308.112 M1965.04 317.163 Q1963.7 319.478 1961.64 320.612 Q1959.6 321.723 1956.73 321.723 Q1952.03 321.723 1949.07 317.973 Q1946.13 314.223 1946.13 308.112 Q1946.13 302.001 1949.07 298.251 Q1952.03 294.501 1956.73 294.501 Q1959.6 294.501 1961.64 295.635 Q1963.7 296.747 1965.04 299.061 L1965.04 295.126 L1969.3 295.126 L1969.3 330.913 L1965.04 330.913 L1965.04 317.163 Z" fill="#000000" fill-rule="evenodd" fill-opacity="1" /><path clip-path="url(#clip630)" d="M 0 0 M1977.63 310.821 L1977.63 295.126 L1981.89 295.126 L1981.89 310.659 Q1981.89 314.339 1983.33 316.191 Q1984.76 318.02 1987.63 318.02 Q1991.08 318.02 1993.07 315.821 Q1995.09 313.621 1995.09 309.825 L1995.09 295.126 L1999.35 295.126 L1999.35 321.052 L1995.09 321.052 L1995.09 317.071 Q1993.54 319.432 1991.48 320.589 Q1989.44 321.723 1986.73 321.723 Q1982.26 321.723 1979.95 318.946 Q1977.63 316.168 1977.63 310.821 M1988.35 294.501 L1988.35 294.501 Z" fill="#000000" fill-rule="evenodd" fill-opacity="1" /><path clip-path="url(#clip630)" d="M 0 0 M2030.29 307.024 L2030.29 309.108 L2010.71 309.108 Q2010.99 313.506 2013.35 315.821 Q2015.73 318.112 2019.97 318.112 Q2022.42 318.112 2024.72 317.51 Q2027.03 316.908 2029.3 315.705 L2029.3 319.733 Q2027.01 320.705 2024.6 321.214 Q2022.19 321.723 2019.72 321.723 Q2013.51 321.723 2009.88 318.112 Q2006.27 314.501 2006.27 308.344 Q2006.27 301.978 2009.69 298.251 Q2013.14 294.501 2018.97 294.501 Q2024.21 294.501 2027.24 297.881 Q2030.29 301.237 2030.29 307.024 M2026.04 305.774 Q2025.99 302.279 2024.07 300.196 Q2022.17 298.112 2019.02 298.112 Q2015.46 298.112 2013.3 300.126 Q2011.17 302.14 2010.85 305.797 L2026.04 305.774 Z" fill="#000000" fill-rule="evenodd" fill-opacity="1" /><path clip-path="url(#clip630)" d="M 0 0 M2058.84 305.404 L2058.84 321.052 L2054.58 321.052 L2054.58 305.543 Q2054.58 301.862 2053.14 300.034 Q2051.71 298.205 2048.84 298.205 Q2045.39 298.205 2043.4 300.404 Q2041.41 302.603 2041.41 306.399 L2041.41 321.052 L2037.12 321.052 L2037.12 295.126 L2041.41 295.126 L2041.41 299.154 Q2042.93 296.816 2044.99 295.659 Q2047.08 294.501 2049.78 294.501 Q2054.25 294.501 2056.54 297.279 Q2058.84 300.034 2058.84 305.404 Z" fill="#000000" fill-rule="evenodd" fill-opacity="1" /><path clip-path="url(#clip630)" d="M 0 0 M2085.99 296.122 L2085.99 300.103 Q2084.18 299.108 2082.35 298.622 Q2080.55 298.112 2078.7 298.112 Q2074.55 298.112 2072.26 300.751 Q2069.97 303.367 2069.97 308.112 Q2069.97 312.858 2072.26 315.496 Q2074.55 318.112 2078.7 318.112 Q2080.55 318.112 2082.35 317.626 Q2084.18 317.117 2085.99 316.121 L2085.99 320.057 Q2084.21 320.89 2082.28 321.307 Q2080.39 321.723 2078.23 321.723 Q2072.38 321.723 2068.93 318.043 Q2065.48 314.362 2065.48 308.112 Q2065.48 301.77 2068.95 298.135 Q2072.45 294.501 2078.51 294.501 Q2080.48 294.501 2082.35 294.918 Q2084.23 295.311 2085.99 296.122 Z" fill="#000000" fill-rule="evenodd" fill-opacity="1" /><path clip-path="url(#clip630)" d="M 0 0 M2104.18 323.459 Q2102.38 328.089 2100.66 329.501 Q2098.95 330.913 2096.08 330.913 L2092.68 330.913 L2092.68 327.348 L2095.18 327.348 Q2096.94 327.348 2097.91 326.515 Q2098.88 325.682 2100.06 322.58 L2100.83 320.635 L2090.34 295.126 L2094.85 295.126 L2102.96 315.404 L2111.06 295.126 L2115.57 295.126 L2104.18 323.459 Z" fill="#000000" fill-rule="evenodd" fill-opacity="1" /><path clip-path="url(#clip630)" d="M 0 0 M2153.05 295.89 L2153.05 299.918 Q2151.24 298.992 2149.3 298.529 Q2147.35 298.066 2145.27 298.066 Q2142.1 298.066 2140.5 299.038 Q2138.93 300.01 2138.93 301.955 Q2138.93 303.436 2140.06 304.293 Q2141.2 305.126 2144.62 305.89 L2146.08 306.214 Q2150.62 307.186 2152.52 308.969 Q2154.44 310.728 2154.44 313.899 Q2154.44 317.51 2151.57 319.617 Q2148.72 321.723 2143.72 321.723 Q2141.64 321.723 2139.37 321.307 Q2137.12 320.913 2134.62 320.103 L2134.62 315.705 Q2136.98 316.932 2139.28 317.557 Q2141.57 318.158 2143.81 318.158 Q2146.82 318.158 2148.44 317.14 Q2150.06 316.098 2150.06 314.223 Q2150.06 312.487 2148.88 311.561 Q2147.72 310.635 2143.77 309.779 L2142.28 309.432 Q2138.33 308.598 2136.57 306.885 Q2134.81 305.149 2134.81 302.14 Q2134.81 298.483 2137.4 296.492 Q2139.99 294.501 2144.76 294.501 Q2147.12 294.501 2149.21 294.848 Q2151.29 295.196 2153.05 295.89 Z" fill="#000000" fill-rule="evenodd" fill-opacity="1" /><path clip-path="url(#clip630)" d="M 0 0 M2182.77 305.404 L2182.77 321.052 L2178.51 321.052 L2178.51 305.543 Q2178.51 301.862 2177.08 300.034 Q2175.64 298.205 2172.77 298.205 Q2169.32 298.205 2167.33 300.404 Q2165.34 302.603 2165.34 306.399 L2165.34 321.052 L2161.06 321.052 L2161.06 285.034 L2165.34 285.034 L2165.34 299.154 Q2166.87 296.816 2168.93 295.659 Q2171.01 294.501 2173.72 294.501 Q2178.19 294.501 2180.48 297.279 Q2182.77 300.034 2182.77 305.404 Z" fill="#000000" fill-rule="evenodd" fill-opacity="1" /><path clip-path="url(#clip630)" d="M 0 0 M2191.27 295.126 L2195.52 295.126 L2195.52 321.052 L2191.27 321.052 L2191.27 295.126 M2191.27 285.034 L2195.52 285.034 L2195.52 290.427 L2191.27 290.427 L2191.27 285.034 Z" fill="#000000" fill-rule="evenodd" fill-opacity="1" /><path clip-path="url(#clip630)" d="M 0 0 M2217.56 285.034 L2217.56 288.575 L2213.49 288.575 Q2211.2 288.575 2210.29 289.501 Q2209.41 290.427 2209.41 292.835 L2209.41 295.126 L2216.43 295.126 L2216.43 298.436 L2209.41 298.436 L2209.41 321.052 L2205.13 321.052 L2205.13 298.436 L2201.06 298.436 L2201.06 295.126 L2205.13 295.126 L2205.13 293.321 Q2205.13 288.992 2207.15 287.024 Q2209.16 285.034 2213.53 285.034 L2217.56 285.034 Z" fill="#000000" fill-rule="evenodd" fill-opacity="1" /><path clip-path="url(#clip630)" d="M 0 0 M2224.51 287.765 L2224.51 295.126 L2233.28 295.126 L2233.28 298.436 L2224.51 298.436 L2224.51 312.51 Q2224.51 315.682 2225.36 316.584 Q2226.24 317.487 2228.9 317.487 L2233.28 317.487 L2233.28 321.052 L2228.9 321.052 Q2223.97 321.052 2222.1 319.223 Q2220.22 317.371 2220.22 312.51 L2220.22 298.436 L2217.1 298.436 L2217.1 295.126 L2220.22 295.126 L2220.22 287.765 L2224.51 287.765 Z" fill="#000000" fill-rule="evenodd" fill-opacity="1" /></svg>
