<?xml version="1.0" encoding="utf-8"?>
<svg xmlns="http://www.w3.org/2000/svg" xmlns:xlink="http://www.w3.org/1999/xlink" width="600" height="400" viewBox="0 0 2400 1600">
<defs>
  <clipPath id="clip390">
    <rect x="0" y="0" width="2400" height="1600"/>
  </clipPath>
</defs>
<path clip-path="url(#clip390)" d="
M0 1600 L2400 1600 L2400 0 L0 0  Z
  " fill="#ffffff" fill-rule="evenodd" fill-opacity="1"/>
<defs>
  <clipPath id="clip391">
    <rect x="480" y="0" width="1681" height="1600"/>
  </clipPath>
</defs>
<defs>
  <clipPath id="clip392">
    <rect x="138" y="142" width="2215" height="1281"/>
  </clipPath>
</defs>
<path clip-path="url(#clip390)" d="
M277.431 1423.18 L2352.76 1423.18 L2352.76 202.606 L277.431 202.606  Z
  " fill="#ffffff" fill-rule="evenodd" fill-opacity="1"/>
<defs>
  <clipPath id="clip393">
    <rect x="277" y="202" width="2076" height="1222"/>
  </clipPath>
</defs>
<polyline clip-path="url(#clip393)" style="stroke:#000000; stroke-width:2; stroke-opacity:0.1; fill:none" points="
  336.167,1423.18 336.167,202.606 
  "/>
<polyline clip-path="url(#clip393)" style="stroke:#000000; stroke-width:2; stroke-opacity:0.1; fill:none" points="
  728.609,1423.18 728.609,202.606 
  "/>
<polyline clip-path="url(#clip393)" style="stroke:#000000; stroke-width:2; stroke-opacity:0.1; fill:none" points="
  1121.05,1423.18 1121.05,202.606 
  "/>
<polyline clip-path="url(#clip393)" style="stroke:#000000; stroke-width:2; stroke-opacity:0.1; fill:none" points="
  1513.5,1423.18 1513.5,202.606 
  "/>
<polyline clip-path="url(#clip393)" style="stroke:#000000; stroke-width:2; stroke-opacity:0.1; fill:none" points="
  1905.94,1423.18 1905.94,202.606 
  "/>
<polyline clip-path="url(#clip393)" style="stroke:#000000; stroke-width:2; stroke-opacity:0.1; fill:none" points="
  2298.38,1423.18 2298.38,202.606 
  "/>
<polyline clip-path="url(#clip390)" style="stroke:#000000; stroke-width:4; stroke-opacity:1; fill:none" points="
  277.431,1423.18 2352.76,1423.18 
  "/>
<polyline clip-path="url(#clip390)" style="stroke:#000000; stroke-width:4; stroke-opacity:1; fill:none" points="
  336.167,1423.18 336.167,1408.53 
  "/>
<polyline clip-path="url(#clip390)" style="stroke:#000000; stroke-width:4; stroke-opacity:1; fill:none" points="
  728.609,1423.18 728.609,1408.53 
  "/>
<polyline clip-path="url(#clip390)" style="stroke:#000000; stroke-width:4; stroke-opacity:1; fill:none" points="
  1121.05,1423.18 1121.05,1408.53 
  "/>
<polyline clip-path="url(#clip390)" style="stroke:#000000; stroke-width:4; stroke-opacity:1; fill:none" points="
  1513.5,1423.18 1513.5,1408.53 
  "/>
<polyline clip-path="url(#clip390)" style="stroke:#000000; stroke-width:4; stroke-opacity:1; fill:none" points="
  1905.94,1423.18 1905.94,1408.53 
  "/>
<polyline clip-path="url(#clip390)" style="stroke:#000000; stroke-width:4; stroke-opacity:1; fill:none" points="
  2298.38,1423.18 2298.38,1408.53 
  "/>
<path clip-path="url(#clip390)" d="M 0 0 M336.167 1452.37 Q332.555 1452.37 330.727 1455.94 Q328.921 1459.48 328.921 1466.61 Q328.921 1473.71 330.727 1477.28 Q332.555 1480.82 336.167 1480.82 Q339.801 1480.82 341.606 1477.28 Q343.435 1473.71 343.435 1466.61 Q343.435 1459.48 341.606 1455.94 Q339.801 1452.37 336.167 1452.37 M336.167 1448.67 Q341.977 1448.67 345.032 1453.27 Q348.111 1457.86 348.111 1466.61 Q348.111 1475.33 345.032 1479.94 Q341.977 1484.52 336.167 1484.52 Q330.356 1484.52 327.278 1479.94 Q324.222 1475.33 324.222 1466.61 Q324.222 1457.86 327.278 1453.27 Q330.356 1448.67 336.167 1448.67 Z" fill="#000000" fill-rule="evenodd" fill-opacity="1" /><path clip-path="url(#clip390)" d="M 0 0 M703.297 1479.92 L710.936 1479.92 L710.936 1453.55 L702.626 1455.22 L702.626 1450.96 L710.89 1449.29 L715.565 1449.29 L715.565 1479.92 L723.204 1479.92 L723.204 1483.85 L703.297 1483.85 L703.297 1479.92 Z" fill="#000000" fill-rule="evenodd" fill-opacity="1" /><path clip-path="url(#clip390)" d="M 0 0 M742.649 1452.37 Q739.038 1452.37 737.209 1455.94 Q735.403 1459.48 735.403 1466.61 Q735.403 1473.71 737.209 1477.28 Q739.038 1480.82 742.649 1480.82 Q746.283 1480.82 748.088 1477.28 Q749.917 1473.71 749.917 1466.61 Q749.917 1459.48 748.088 1455.94 Q746.283 1452.37 742.649 1452.37 M742.649 1448.67 Q748.459 1448.67 751.514 1453.27 Q754.593 1457.86 754.593 1466.61 Q754.593 1475.33 751.514 1479.94 Q748.459 1484.52 742.649 1484.52 Q736.839 1484.52 733.76 1479.94 Q730.704 1475.33 730.704 1466.61 Q730.704 1457.86 733.76 1453.27 Q736.839 1448.67 742.649 1448.67 Z" fill="#000000" fill-rule="evenodd" fill-opacity="1" /><path clip-path="url(#clip390)" d="M 0 0 M1099.83 1479.92 L1116.14 1479.92 L1116.14 1483.85 L1094.2 1483.85 L1094.2 1479.92 Q1096.86 1477.16 1101.45 1472.53 Q1106.05 1467.88 1107.23 1466.54 Q1109.48 1464.01 1110.36 1462.28 Q1111.26 1460.52 1111.26 1458.83 Q1111.26 1456.07 1109.32 1454.34 Q1107.39 1452.6 1104.29 1452.6 Q1102.09 1452.6 1099.64 1453.37 Q1097.21 1454.13 1094.43 1455.68 L1094.43 1450.96 Q1097.26 1449.82 1099.71 1449.25 Q1102.16 1448.67 1104.2 1448.67 Q1109.57 1448.67 1112.77 1451.35 Q1115.96 1454.04 1115.96 1458.53 Q1115.96 1460.66 1115.15 1462.58 Q1114.36 1464.48 1112.26 1467.07 Q1111.68 1467.74 1108.58 1470.96 Q1105.47 1474.15 1099.83 1479.92 Z" fill="#000000" fill-rule="evenodd" fill-opacity="1" /><path clip-path="url(#clip390)" d="M 0 0 M1135.96 1452.37 Q1132.35 1452.37 1130.52 1455.94 Q1128.71 1459.48 1128.71 1466.61 Q1128.71 1473.71 1130.52 1477.28 Q1132.35 1480.82 1135.96 1480.82 Q1139.59 1480.82 1141.4 1477.28 Q1143.23 1473.71 1143.23 1466.61 Q1143.23 1459.48 1141.4 1455.94 Q1139.59 1452.37 1135.96 1452.37 M1135.96 1448.67 Q1141.77 1448.67 1144.83 1453.27 Q1147.9 1457.86 1147.9 1466.61 Q1147.9 1475.33 1144.83 1479.94 Q1141.77 1484.52 1135.96 1484.52 Q1130.15 1484.52 1127.07 1479.94 Q1124.02 1475.33 1124.02 1466.61 Q1124.02 1457.86 1127.07 1453.27 Q1130.15 1448.67 1135.96 1448.67 Z" fill="#000000" fill-rule="evenodd" fill-opacity="1" /><path clip-path="url(#clip390)" d="M 0 0 M1502.34 1465.22 Q1505.69 1465.94 1507.57 1468.2 Q1509.47 1470.47 1509.47 1473.81 Q1509.47 1478.92 1505.95 1481.72 Q1502.43 1484.52 1495.95 1484.52 Q1493.77 1484.52 1491.46 1484.08 Q1489.17 1483.67 1486.71 1482.81 L1486.71 1478.3 Q1488.66 1479.43 1490.97 1480.01 Q1493.29 1480.59 1495.81 1480.59 Q1500.21 1480.59 1502.5 1478.85 Q1504.81 1477.12 1504.81 1473.81 Q1504.81 1470.75 1502.66 1469.04 Q1500.53 1467.3 1496.71 1467.3 L1492.69 1467.3 L1492.69 1463.46 L1496.9 1463.46 Q1500.35 1463.46 1502.18 1462.09 Q1504 1460.7 1504 1458.11 Q1504 1455.45 1502.11 1454.04 Q1500.23 1452.6 1496.71 1452.6 Q1494.79 1452.6 1492.59 1453.02 Q1490.39 1453.44 1487.75 1454.31 L1487.75 1450.15 Q1490.42 1449.41 1492.73 1449.04 Q1495.07 1448.67 1497.13 1448.67 Q1502.45 1448.67 1505.56 1451.1 Q1508.66 1453.5 1508.66 1457.63 Q1508.66 1460.5 1507.01 1462.49 Q1505.37 1464.45 1502.34 1465.22 Z" fill="#000000" fill-rule="evenodd" fill-opacity="1" /><path clip-path="url(#clip390)" d="M 0 0 M1528.33 1452.37 Q1524.72 1452.37 1522.89 1455.94 Q1521.09 1459.48 1521.09 1466.61 Q1521.09 1473.71 1522.89 1477.28 Q1524.72 1480.82 1528.33 1480.82 Q1531.97 1480.82 1533.77 1477.28 Q1535.6 1473.71 1535.6 1466.61 Q1535.6 1459.48 1533.77 1455.94 Q1531.97 1452.37 1528.33 1452.37 M1528.33 1448.67 Q1534.14 1448.67 1537.2 1453.27 Q1540.28 1457.86 1540.28 1466.61 Q1540.28 1475.33 1537.2 1479.94 Q1534.14 1484.52 1528.33 1484.52 Q1522.52 1484.52 1519.44 1479.94 Q1516.39 1475.33 1516.39 1466.61 Q1516.39 1457.86 1519.44 1453.27 Q1522.52 1448.67 1528.33 1448.67 Z" fill="#000000" fill-rule="evenodd" fill-opacity="1" /><path clip-path="url(#clip390)" d="M 0 0 M1894.11 1453.37 L1882.3 1471.81 L1894.11 1471.81 L1894.11 1453.37 M1892.88 1449.29 L1898.76 1449.29 L1898.76 1471.81 L1903.69 1471.81 L1903.69 1475.7 L1898.76 1475.7 L1898.76 1483.85 L1894.11 1483.85 L1894.11 1475.7 L1878.51 1475.7 L1878.51 1471.19 L1892.88 1449.29 Z" fill="#000000" fill-rule="evenodd" fill-opacity="1" /><path clip-path="url(#clip390)" d="M 0 0 M1921.42 1452.37 Q1917.81 1452.37 1915.98 1455.94 Q1914.18 1459.48 1914.18 1466.61 Q1914.18 1473.71 1915.98 1477.28 Q1917.81 1480.82 1921.42 1480.82 Q1925.06 1480.82 1926.86 1477.28 Q1928.69 1473.71 1928.69 1466.61 Q1928.69 1459.48 1926.86 1455.94 Q1925.06 1452.37 1921.42 1452.37 M1921.42 1448.67 Q1927.23 1448.67 1930.29 1453.27 Q1933.37 1457.86 1933.37 1466.61 Q1933.37 1475.33 1930.29 1479.94 Q1927.23 1484.52 1921.42 1484.52 Q1915.61 1484.52 1912.54 1479.94 Q1909.48 1475.33 1909.48 1466.61 Q1909.48 1457.86 1912.54 1453.27 Q1915.61 1448.67 1921.42 1448.67 Z" fill="#000000" fill-rule="evenodd" fill-opacity="1" /><path clip-path="url(#clip390)" d="M 0 0 M2273.08 1449.29 L2291.44 1449.29 L2291.44 1453.23 L2277.36 1453.23 L2277.36 1461.7 Q2278.38 1461.35 2279.4 1461.19 Q2280.42 1461 2281.44 1461 Q2287.22 1461 2290.6 1464.18 Q2293.98 1467.35 2293.98 1472.76 Q2293.98 1478.34 2290.51 1481.44 Q2287.04 1484.52 2280.72 1484.52 Q2278.54 1484.52 2276.27 1484.15 Q2274.03 1483.78 2271.62 1483.04 L2271.62 1478.34 Q2273.7 1479.48 2275.93 1480.03 Q2278.15 1480.59 2280.63 1480.59 Q2284.63 1480.59 2286.97 1478.48 Q2289.31 1476.38 2289.31 1472.76 Q2289.31 1469.15 2286.97 1467.05 Q2284.63 1464.94 2280.63 1464.94 Q2278.75 1464.94 2276.88 1465.36 Q2275.02 1465.77 2273.08 1466.65 L2273.08 1449.29 Z" fill="#000000" fill-rule="evenodd" fill-opacity="1" /><path clip-path="url(#clip390)" d="M 0 0 M2313.2 1452.37 Q2309.58 1452.37 2307.76 1455.94 Q2305.95 1459.48 2305.95 1466.61 Q2305.95 1473.71 2307.76 1477.28 Q2309.58 1480.82 2313.2 1480.82 Q2316.83 1480.82 2318.64 1477.28 Q2320.46 1473.71 2320.46 1466.61 Q2320.46 1459.48 2318.64 1455.94 Q2316.83 1452.37 2313.2 1452.37 M2313.2 1448.67 Q2319.01 1448.67 2322.06 1453.27 Q2325.14 1457.86 2325.14 1466.61 Q2325.14 1475.33 2322.06 1479.94 Q2319.01 1484.52 2313.2 1484.52 Q2307.39 1484.52 2304.31 1479.94 Q2301.25 1475.33 2301.25 1466.61 Q2301.25 1457.86 2304.31 1453.27 Q2307.39 1448.67 2313.2 1448.67 Z" fill="#000000" fill-rule="evenodd" fill-opacity="1" /><path clip-path="url(#clip390)" d="M 0 0 M1075.2 1518.52 L1075.2 1523.39 L1069.6 1523.39 Q1066.45 1523.39 1065.21 1524.66 Q1064 1525.93 1064 1529.24 L1064 1532.4 L1073.64 1532.4 L1073.64 1536.95 L1064 1536.95 L1064 1568.04 L1058.11 1568.04 L1058.11 1536.95 L1052.51 1536.95 L1052.51 1532.4 L1058.11 1532.4 L1058.11 1529.91 Q1058.11 1523.96 1060.88 1521.26 Q1063.65 1518.52 1069.66 1518.52 L1075.2 1518.52 Z" fill="#000000" fill-rule="evenodd" fill-opacity="1" /><path clip-path="url(#clip390)" d="M 0 0 M1100.76 1537.87 Q1099.77 1537.3 1098.6 1537.04 Q1097.45 1536.76 1096.05 1536.76 Q1091.08 1536.76 1088.41 1540 Q1085.77 1543.22 1085.77 1549.27 L1085.77 1568.04 L1079.88 1568.04 L1079.88 1532.4 L1085.77 1532.4 L1085.77 1537.93 Q1087.61 1534.69 1090.57 1533.13 Q1093.53 1531.54 1097.77 1531.54 Q1098.37 1531.54 1099.1 1531.63 Q1099.84 1531.7 1100.73 1531.85 L1100.76 1537.87 Z" fill="#000000" fill-rule="evenodd" fill-opacity="1" /><path clip-path="url(#clip390)" d="M 0 0 M1135.96 1548.76 L1135.96 1551.62 L1109.04 1551.62 Q1109.42 1557.67 1112.66 1560.85 Q1115.94 1564 1121.77 1564 Q1125.14 1564 1128.29 1563.17 Q1131.47 1562.35 1134.59 1560.69 L1134.59 1566.23 Q1131.44 1567.57 1128.13 1568.27 Q1124.82 1568.97 1121.42 1568.97 Q1112.89 1568.97 1107.89 1564 Q1102.92 1559.04 1102.92 1550.57 Q1102.92 1541.82 1107.64 1536.69 Q1112.38 1531.54 1120.4 1531.54 Q1127.59 1531.54 1131.76 1536.18 Q1135.96 1540.8 1135.96 1548.76 M1130.11 1547.04 Q1130.04 1542.23 1127.4 1539.37 Q1124.79 1536.5 1120.46 1536.5 Q1115.56 1536.5 1112.6 1539.27 Q1109.67 1542.04 1109.23 1547.07 L1130.11 1547.04 Z" fill="#000000" fill-rule="evenodd" fill-opacity="1" /><path clip-path="url(#clip390)" d="M 0 0 M1149.08 1550.25 Q1149.08 1556.71 1151.72 1560.4 Q1154.39 1564.07 1159.04 1564.07 Q1163.69 1564.07 1166.36 1560.4 Q1169.03 1556.71 1169.03 1550.25 Q1169.03 1543.79 1166.36 1540.13 Q1163.69 1536.44 1159.04 1536.44 Q1154.39 1536.44 1151.72 1540.13 Q1149.08 1543.79 1149.08 1550.25 M1169.03 1562.7 Q1167.19 1565.88 1164.35 1567.44 Q1161.55 1568.97 1157.61 1568.97 Q1151.14 1568.97 1147.07 1563.81 Q1143.03 1558.65 1143.03 1550.25 Q1143.03 1541.85 1147.07 1536.69 Q1151.14 1531.54 1157.61 1531.54 Q1161.55 1531.54 1164.35 1533.1 Q1167.19 1534.62 1169.03 1537.81 L1169.03 1532.4 L1174.89 1532.4 L1174.89 1581.6 L1169.03 1581.6 L1169.03 1562.7 Z" fill="#000000" fill-rule="evenodd" fill-opacity="1" /><path clip-path="url(#clip390)" d="M 0 0 M1186.35 1553.98 L1186.35 1532.4 L1192.2 1532.4 L1192.2 1553.75 Q1192.2 1558.81 1194.18 1561.36 Q1196.15 1563.87 1200.1 1563.87 Q1204.84 1563.87 1207.58 1560.85 Q1210.35 1557.83 1210.35 1552.61 L1210.35 1532.4 L1216.2 1532.4 L1216.2 1568.04 L1210.35 1568.04 L1210.35 1562.57 Q1208.21 1565.82 1205.38 1567.41 Q1202.58 1568.97 1198.86 1568.97 Q1192.71 1568.97 1189.53 1565.15 Q1186.35 1561.33 1186.35 1553.98 M1201.08 1531.54 L1201.08 1531.54 Z" fill="#000000" fill-rule="evenodd" fill-opacity="1" /><path clip-path="url(#clip390)" d="M 0 0 M1258.76 1548.76 L1258.76 1551.62 L1231.83 1551.62 Q1232.21 1557.67 1235.46 1560.85 Q1238.74 1564 1244.56 1564 Q1247.94 1564 1251.09 1563.17 Q1254.27 1562.35 1257.39 1560.69 L1257.39 1566.23 Q1254.24 1567.57 1250.93 1568.27 Q1247.62 1568.97 1244.21 1568.97 Q1235.68 1568.97 1230.68 1564 Q1225.72 1559.04 1225.72 1550.57 Q1225.72 1541.82 1230.43 1536.69 Q1235.17 1531.54 1243.19 1531.54 Q1250.39 1531.54 1254.56 1536.18 Q1258.76 1540.8 1258.76 1548.76 M1252.9 1547.04 Q1252.84 1542.23 1250.2 1539.37 Q1247.59 1536.5 1243.26 1536.5 Q1238.35 1536.5 1235.39 1539.27 Q1232.47 1542.04 1232.02 1547.07 L1252.9 1547.04 Z" fill="#000000" fill-rule="evenodd" fill-opacity="1" /><path clip-path="url(#clip390)" d="M 0 0 M1298 1546.53 L1298 1568.04 L1292.15 1568.04 L1292.15 1546.72 Q1292.15 1541.66 1290.17 1539.14 Q1288.2 1536.63 1284.25 1536.63 Q1279.51 1536.63 1276.77 1539.65 Q1274.03 1542.68 1274.03 1547.9 L1274.03 1568.04 L1268.15 1568.04 L1268.15 1532.4 L1274.03 1532.4 L1274.03 1537.93 Q1276.14 1534.72 1278.97 1533.13 Q1281.83 1531.54 1285.56 1531.54 Q1291.7 1531.54 1294.85 1535.36 Q1298 1539.14 1298 1546.53 Z" fill="#000000" fill-rule="evenodd" fill-opacity="1" /><path clip-path="url(#clip390)" d="M 0 0 M1335.34 1533.76 L1335.34 1539.24 Q1332.85 1537.87 1330.34 1537.2 Q1327.86 1536.5 1325.31 1536.5 Q1319.61 1536.5 1316.46 1540.13 Q1313.31 1543.73 1313.31 1550.25 Q1313.31 1556.78 1316.46 1560.4 Q1319.61 1564 1325.31 1564 Q1327.86 1564 1330.34 1563.33 Q1332.85 1562.63 1335.34 1561.26 L1335.34 1566.68 Q1332.89 1567.82 1330.24 1568.39 Q1327.63 1568.97 1324.67 1568.97 Q1316.62 1568.97 1311.88 1563.91 Q1307.14 1558.85 1307.14 1550.25 Q1307.14 1541.53 1311.91 1536.53 Q1316.72 1531.54 1325.06 1531.54 Q1327.76 1531.54 1330.34 1532.11 Q1332.92 1532.65 1335.34 1533.76 Z" fill="#000000" fill-rule="evenodd" fill-opacity="1" /><path clip-path="url(#clip390)" d="M 0 0 M1360.35 1571.35 Q1357.87 1577.72 1355.52 1579.66 Q1353.16 1581.6 1349.21 1581.6 L1344.53 1581.6 L1344.53 1576.7 L1347.97 1576.7 Q1350.39 1576.7 1351.73 1575.56 Q1353.06 1574.41 1354.69 1570.14 L1355.74 1567.47 L1341.32 1532.4 L1347.53 1532.4 L1358.67 1560.28 L1369.81 1532.4 L1376.01 1532.4 L1360.35 1571.35 Z" fill="#000000" fill-rule="evenodd" fill-opacity="1" /><path clip-path="url(#clip390)" d="M 0 0 M1418.89 1518.58 Q1414.62 1525.9 1412.55 1533.06 Q1410.48 1540.23 1410.48 1547.58 Q1410.48 1554.93 1412.55 1562.16 Q1414.65 1569.35 1418.89 1576.64 L1413.79 1576.64 Q1409.02 1569.16 1406.63 1561.93 Q1404.28 1554.71 1404.28 1547.58 Q1404.28 1540.48 1406.63 1533.29 Q1408.99 1526.09 1413.79 1518.58 L1418.89 1518.58 Z" fill="#000000" fill-rule="evenodd" fill-opacity="1" /><path clip-path="url(#clip390)" d="M 0 0 M1462.91 1561.26 L1462.91 1548.5 L1452.4 1548.5 L1452.4 1543.22 L1469.27 1543.22 L1469.27 1563.62 Q1465.55 1566.26 1461.06 1567.63 Q1456.57 1568.97 1451.48 1568.97 Q1440.34 1568.97 1434.04 1562.47 Q1427.77 1555.95 1427.77 1544.33 Q1427.77 1532.68 1434.04 1526.19 Q1440.34 1519.66 1451.48 1519.66 Q1456.13 1519.66 1460.3 1520.81 Q1464.5 1521.96 1468.03 1524.18 L1468.03 1531.03 Q1464.46 1528 1460.45 1526.48 Q1456.44 1524.95 1452.02 1524.95 Q1443.3 1524.95 1438.91 1529.82 Q1434.55 1534.69 1434.55 1544.33 Q1434.55 1553.94 1438.91 1558.81 Q1443.3 1563.68 1452.02 1563.68 Q1455.43 1563.68 1458.1 1563.11 Q1460.77 1562.51 1462.91 1561.26 Z" fill="#000000" fill-rule="evenodd" fill-opacity="1" /><path clip-path="url(#clip390)" d="M 0 0 M1481.02 1520.52 L1487.44 1520.52 L1487.44 1540 L1510.81 1540 L1510.81 1520.52 L1517.24 1520.52 L1517.24 1568.04 L1510.81 1568.04 L1510.81 1545.41 L1487.44 1545.41 L1487.44 1568.04 L1481.02 1568.04 L1481.02 1520.52 Z" fill="#000000" fill-rule="evenodd" fill-opacity="1" /><path clip-path="url(#clip390)" d="M 0 0 M1527.23 1532.4 L1555.05 1532.4 L1555.05 1537.74 L1533.02 1563.37 L1555.05 1563.37 L1555.05 1568.04 L1526.43 1568.04 L1526.43 1562.7 L1548.46 1537.07 L1527.23 1537.07 L1527.23 1532.4 Z" fill="#000000" fill-rule="evenodd" fill-opacity="1" /><path clip-path="url(#clip390)" d="M 0 0 M1563.07 1518.58 L1568.16 1518.58 Q1572.94 1526.09 1575.29 1533.29 Q1577.68 1540.48 1577.68 1547.58 Q1577.68 1554.71 1575.29 1561.93 Q1572.94 1569.16 1568.16 1576.64 L1563.07 1576.64 Q1567.3 1569.35 1569.37 1562.16 Q1571.47 1554.93 1571.47 1547.58 Q1571.47 1540.23 1569.37 1533.06 Q1567.3 1525.9 1563.07 1518.58 Z" fill="#000000" fill-rule="evenodd" fill-opacity="1" /><polyline clip-path="url(#clip393)" style="stroke:#000000; stroke-width:2; stroke-opacity:0.1; fill:none" points="
  277.431,1388.64 2352.76,1388.64 
  "/>
<polyline clip-path="url(#clip393)" style="stroke:#000000; stroke-width:2; stroke-opacity:0.1; fill:none" points="
  277.431,1116.36 2352.76,1116.36 
  "/>
<polyline clip-path="url(#clip393)" style="stroke:#000000; stroke-width:2; stroke-opacity:0.1; fill:none" points="
  277.431,844.089 2352.76,844.089 
  "/>
<polyline clip-path="url(#clip393)" style="stroke:#000000; stroke-width:2; stroke-opacity:0.1; fill:none" points="
  277.431,571.815 2352.76,571.815 
  "/>
<polyline clip-path="url(#clip393)" style="stroke:#000000; stroke-width:2; stroke-opacity:0.1; fill:none" points="
  277.431,299.542 2352.76,299.542 
  "/>
<polyline clip-path="url(#clip390)" style="stroke:#000000; stroke-width:4; stroke-opacity:1; fill:none" points="
  277.431,1423.18 277.431,202.606 
  "/>
<polyline clip-path="url(#clip390)" style="stroke:#000000; stroke-width:4; stroke-opacity:1; fill:none" points="
  277.431,1388.64 302.335,1388.64 
  "/>
<polyline clip-path="url(#clip390)" style="stroke:#000000; stroke-width:4; stroke-opacity:1; fill:none" points="
  277.431,1116.36 302.335,1116.36 
  "/>
<polyline clip-path="url(#clip390)" style="stroke:#000000; stroke-width:4; stroke-opacity:1; fill:none" points="
  277.431,844.089 302.335,844.089 
  "/>
<polyline clip-path="url(#clip390)" style="stroke:#000000; stroke-width:4; stroke-opacity:1; fill:none" points="
  277.431,571.815 302.335,571.815 
  "/>
<polyline clip-path="url(#clip390)" style="stroke:#000000; stroke-width:4; stroke-opacity:1; fill:none" points="
  277.431,299.542 302.335,299.542 
  "/>
<path clip-path="url(#clip390)" d="M 0 0 M229.487 1374.43 Q225.875 1374.43 224.047 1378 Q222.241 1381.54 222.241 1388.67 Q222.241 1395.78 224.047 1399.34 Q225.875 1402.88 229.487 1402.88 Q233.121 1402.88 234.926 1399.34 Q236.755 1395.78 236.755 1388.67 Q236.755 1381.54 234.926 1378 Q233.121 1374.43 229.487 1374.43 M229.487 1370.73 Q235.297 1370.73 238.352 1375.34 Q241.431 1379.92 241.431 1388.67 Q241.431 1397.4 238.352 1402 Q235.297 1406.59 229.487 1406.59 Q223.676 1406.59 220.598 1402 Q217.542 1397.4 217.542 1388.67 Q217.542 1379.92 220.598 1375.34 Q223.676 1370.73 229.487 1370.73 Z" fill="#000000" fill-rule="evenodd" fill-opacity="1" /><path clip-path="url(#clip390)" d="M 0 0 M54.5569 1136.15 L62.1958 1136.15 L62.1958 1109.79 L53.8856 1111.46 L53.8856 1107.2 L62.1495 1105.53 L66.8254 1105.53 L66.8254 1136.15 L74.4642 1136.15 L74.4642 1140.09 L54.5569 1140.09 L54.5569 1136.15 Z" fill="#000000" fill-rule="evenodd" fill-opacity="1" /><path clip-path="url(#clip390)" d="M 0 0 M83.9086 1134.21 L88.7928 1134.21 L88.7928 1140.09 L83.9086 1140.09 L83.9086 1134.21 Z" fill="#000000" fill-rule="evenodd" fill-opacity="1" /><path clip-path="url(#clip390)" d="M 0 0 M108.978 1108.61 Q105.367 1108.61 103.538 1112.17 Q101.733 1115.71 101.733 1122.84 Q101.733 1129.95 103.538 1133.52 Q105.367 1137.06 108.978 1137.06 Q112.612 1137.06 114.418 1133.52 Q116.246 1129.95 116.246 1122.84 Q116.246 1115.71 114.418 1112.17 Q112.612 1108.61 108.978 1108.61 M108.978 1104.9 Q114.788 1104.9 117.844 1109.51 Q120.922 1114.09 120.922 1122.84 Q120.922 1131.57 117.844 1136.18 Q114.788 1140.76 108.978 1140.76 Q103.168 1140.76 100.089 1136.18 Q97.0335 1131.57 97.0335 1122.84 Q97.0335 1114.09 100.089 1109.51 Q103.168 1104.9 108.978 1104.9 Z" fill="#000000" fill-rule="evenodd" fill-opacity="1" /><path clip-path="url(#clip390)" d="M 0 0 M157.311 1114.63 L146.732 1125.25 L157.311 1135.83 L154.556 1138.63 L143.931 1128.01 L133.306 1138.63 L130.575 1135.83 L141.131 1125.25 L130.575 1114.63 L133.306 1111.83 L143.931 1122.45 L154.556 1111.83 L157.311 1114.63 Z" fill="#000000" fill-rule="evenodd" fill-opacity="1" /><path clip-path="url(#clip390)" d="M 0 0 M169.672 1136.15 L177.311 1136.15 L177.311 1109.79 L169.001 1111.46 L169.001 1107.2 L177.265 1105.53 L181.94 1105.53 L181.94 1136.15 L189.579 1136.15 L189.579 1140.09 L169.672 1140.09 L169.672 1136.15 Z" fill="#000000" fill-rule="evenodd" fill-opacity="1" /><path clip-path="url(#clip390)" d="M 0 0 M209.024 1108.61 Q205.413 1108.61 203.584 1112.17 Q201.778 1115.71 201.778 1122.84 Q201.778 1129.95 203.584 1133.52 Q205.413 1137.06 209.024 1137.06 Q212.658 1137.06 214.463 1133.52 Q216.292 1129.95 216.292 1122.84 Q216.292 1115.71 214.463 1112.17 Q212.658 1108.61 209.024 1108.61 M209.024 1104.9 Q214.834 1104.9 217.889 1109.51 Q220.968 1114.09 220.968 1122.84 Q220.968 1131.57 217.889 1136.18 Q214.834 1140.76 209.024 1140.76 Q203.214 1140.76 200.135 1136.18 Q197.079 1131.57 197.079 1122.84 Q197.079 1114.09 200.135 1109.51 Q203.214 1104.9 209.024 1104.9 Z" fill="#000000" fill-rule="evenodd" fill-opacity="1" /><path clip-path="url(#clip390)" d="M 0 0 M233.645 1087.91 L224.053 1102.9 L233.645 1102.9 L233.645 1087.91 M232.648 1084.6 L237.425 1084.6 L237.425 1102.9 L241.431 1102.9 L241.431 1106.06 L237.425 1106.06 L237.425 1112.68 L233.645 1112.68 L233.645 1106.06 L220.968 1106.06 L220.968 1102.39 L232.648 1084.6 Z" fill="#000000" fill-rule="evenodd" fill-opacity="1" /><path clip-path="url(#clip390)" d="M 0 0 M57.7745 863.881 L74.0939 863.881 L74.0939 867.816 L52.1495 867.816 L52.1495 863.881 Q54.8115 861.127 59.3949 856.497 Q64.0013 851.844 65.1819 850.502 Q67.4272 847.978 68.3068 846.242 Q69.2096 844.483 69.2096 842.793 Q69.2096 840.039 67.2652 838.303 Q65.3439 836.566 62.2421 836.566 Q60.043 836.566 57.5893 837.33 Q55.1588 838.094 52.381 839.645 L52.381 834.923 Q55.2051 833.789 57.6588 833.21 Q60.1124 832.631 62.1495 832.631 Q67.5198 832.631 70.7142 835.316 Q73.9087 838.002 73.9087 842.492 Q73.9087 844.622 73.0985 846.543 Q72.3115 848.441 70.205 851.034 Q69.6263 851.705 66.5245 854.923 Q63.4226 858.117 57.7745 863.881 Z" fill="#000000" fill-rule="evenodd" fill-opacity="1" /><path clip-path="url(#clip390)" d="M 0 0 M83.9086 861.937 L88.7928 861.937 L88.7928 867.816 L83.9086 867.816 L83.9086 861.937 Z" fill="#000000" fill-rule="evenodd" fill-opacity="1" /><path clip-path="url(#clip390)" d="M 0 0 M108.978 836.335 Q105.367 836.335 103.538 839.9 Q101.733 843.441 101.733 850.571 Q101.733 857.677 103.538 861.242 Q105.367 864.784 108.978 864.784 Q112.612 864.784 114.418 861.242 Q116.246 857.677 116.246 850.571 Q116.246 843.441 114.418 839.9 Q112.612 836.335 108.978 836.335 M108.978 832.631 Q114.788 832.631 117.844 837.238 Q120.922 841.821 120.922 850.571 Q120.922 859.298 117.844 863.904 Q114.788 868.488 108.978 868.488 Q103.168 868.488 100.089 863.904 Q97.0335 859.298 97.0335 850.571 Q97.0335 841.821 100.089 837.238 Q103.168 832.631 108.978 832.631 Z" fill="#000000" fill-rule="evenodd" fill-opacity="1" /><path clip-path="url(#clip390)" d="M 0 0 M157.311 842.353 L146.732 852.978 L157.311 863.557 L154.556 866.358 L143.931 855.733 L133.306 866.358 L130.575 863.557 L141.131 852.978 L130.575 842.353 L133.306 839.553 L143.931 850.178 L154.556 839.553 L157.311 842.353 Z" fill="#000000" fill-rule="evenodd" fill-opacity="1" /><path clip-path="url(#clip390)" d="M 0 0 M169.672 863.881 L177.311 863.881 L177.311 837.516 L169.001 839.182 L169.001 834.923 L177.265 833.256 L181.94 833.256 L181.94 863.881 L189.579 863.881 L189.579 867.816 L169.672 867.816 L169.672 863.881 Z" fill="#000000" fill-rule="evenodd" fill-opacity="1" /><path clip-path="url(#clip390)" d="M 0 0 M209.024 836.335 Q205.413 836.335 203.584 839.9 Q201.778 843.441 201.778 850.571 Q201.778 857.677 203.584 861.242 Q205.413 864.784 209.024 864.784 Q212.658 864.784 214.463 861.242 Q216.292 857.677 216.292 850.571 Q216.292 843.441 214.463 839.9 Q212.658 836.335 209.024 836.335 M209.024 832.631 Q214.834 832.631 217.889 837.238 Q220.968 841.821 220.968 850.571 Q220.968 859.298 217.889 863.904 Q214.834 868.488 209.024 868.488 Q203.214 868.488 200.135 863.904 Q197.079 859.298 197.079 850.571 Q197.079 841.821 200.135 837.238 Q203.214 832.631 209.024 832.631 Z" fill="#000000" fill-rule="evenodd" fill-opacity="1" /><path clip-path="url(#clip390)" d="M 0 0 M233.645 815.636 L224.053 830.626 L233.645 830.626 L233.645 815.636 M232.648 812.326 L237.425 812.326 L237.425 830.626 L241.431 830.626 L241.431 833.786 L237.425 833.786 L237.425 840.406 L233.645 840.406 L233.645 833.786 L220.968 833.786 L220.968 830.118 L232.648 812.326 Z" fill="#000000" fill-rule="evenodd" fill-opacity="1" /><path clip-path="url(#clip390)" d="M 0 0 M67.9133 576.909 Q71.2698 577.626 73.1448 579.895 Q75.0429 582.163 75.0429 585.497 Q75.0429 590.612 71.5244 593.413 Q68.0059 596.214 61.5245 596.214 Q59.3486 596.214 57.0338 595.774 Q54.7421 595.358 52.2884 594.501 L52.2884 589.987 Q54.2328 591.122 56.5477 591.7 Q58.8625 592.279 61.3856 592.279 Q65.7837 592.279 68.0754 590.543 Q70.3902 588.807 70.3902 585.497 Q70.3902 582.441 68.2374 580.728 Q66.1078 578.992 62.2884 578.992 L58.2606 578.992 L58.2606 575.15 L62.4735 575.15 Q65.9226 575.15 67.7513 573.784 Q69.58 572.395 69.58 569.802 Q69.58 567.14 67.6819 565.728 Q65.8069 564.293 62.2884 564.293 Q60.3671 564.293 58.168 564.71 Q55.969 565.126 53.3301 566.006 L53.3301 561.839 Q55.9921 561.099 58.3069 560.728 Q60.6449 560.358 62.705 560.358 Q68.0291 560.358 71.1309 562.789 Q74.2327 565.196 74.2327 569.316 Q74.2327 572.187 72.5892 574.177 Q70.9457 576.145 67.9133 576.909 Z" fill="#000000" fill-rule="evenodd" fill-opacity="1" /><path clip-path="url(#clip390)" d="M 0 0 M83.9086 589.663 L88.7928 589.663 L88.7928 595.543 L83.9086 595.543 L83.9086 589.663 Z" fill="#000000" fill-rule="evenodd" fill-opacity="1" /><path clip-path="url(#clip390)" d="M 0 0 M108.978 564.062 Q105.367 564.062 103.538 567.626 Q101.733 571.168 101.733 578.298 Q101.733 585.404 103.538 588.969 Q105.367 592.511 108.978 592.511 Q112.612 592.511 114.418 588.969 Q116.246 585.404 116.246 578.298 Q116.246 571.168 114.418 567.626 Q112.612 564.062 108.978 564.062 M108.978 560.358 Q114.788 560.358 117.844 564.964 Q120.922 569.548 120.922 578.298 Q120.922 587.025 117.844 591.631 Q114.788 596.214 108.978 596.214 Q103.168 596.214 100.089 591.631 Q97.0335 587.025 97.0335 578.298 Q97.0335 569.548 100.089 564.964 Q103.168 560.358 108.978 560.358 Z" fill="#000000" fill-rule="evenodd" fill-opacity="1" /><path clip-path="url(#clip390)" d="M 0 0 M157.311 570.08 L146.732 580.705 L157.311 591.284 L154.556 594.085 L143.931 583.46 L133.306 594.085 L130.575 591.284 L141.131 580.705 L130.575 570.08 L133.306 567.279 L143.931 577.904 L154.556 567.279 L157.311 570.08 Z" fill="#000000" fill-rule="evenodd" fill-opacity="1" /><path clip-path="url(#clip390)" d="M 0 0 M169.672 591.608 L177.311 591.608 L177.311 565.242 L169.001 566.909 L169.001 562.65 L177.265 560.983 L181.94 560.983 L181.94 591.608 L189.579 591.608 L189.579 595.543 L169.672 595.543 L169.672 591.608 Z" fill="#000000" fill-rule="evenodd" fill-opacity="1" /><path clip-path="url(#clip390)" d="M 0 0 M209.024 564.062 Q205.413 564.062 203.584 567.626 Q201.778 571.168 201.778 578.298 Q201.778 585.404 203.584 588.969 Q205.413 592.511 209.024 592.511 Q212.658 592.511 214.463 588.969 Q216.292 585.404 216.292 578.298 Q216.292 571.168 214.463 567.626 Q212.658 564.062 209.024 564.062 M209.024 560.358 Q214.834 560.358 217.889 564.964 Q220.968 569.548 220.968 578.298 Q220.968 587.025 217.889 591.631 Q214.834 596.214 209.024 596.214 Q203.214 596.214 200.135 591.631 Q197.079 587.025 197.079 578.298 Q197.079 569.548 200.135 564.964 Q203.214 560.358 209.024 560.358 Z" fill="#000000" fill-rule="evenodd" fill-opacity="1" /><path clip-path="url(#clip390)" d="M 0 0 M233.645 543.363 L224.053 558.353 L233.645 558.353 L233.645 543.363 M232.648 540.053 L237.425 540.053 L237.425 558.353 L241.431 558.353 L241.431 561.512 L237.425 561.512 L237.425 568.133 L233.645 568.133 L233.645 561.512 L220.968 561.512 L220.968 557.845 L232.648 540.053 Z" fill="#000000" fill-rule="evenodd" fill-opacity="1" /><path clip-path="url(#clip390)" d="M 0 0 M66.5939 292.784 L54.7884 311.233 L66.5939 311.233 L66.5939 292.784 M65.367 288.71 L71.2466 288.71 L71.2466 311.233 L76.1772 311.233 L76.1772 315.122 L71.2466 315.122 L71.2466 323.27 L66.5939 323.27 L66.5939 315.122 L50.9921 315.122 L50.9921 310.608 L65.367 288.71 Z" fill="#000000" fill-rule="evenodd" fill-opacity="1" /><path clip-path="url(#clip390)" d="M 0 0 M83.9086 317.39 L88.7928 317.39 L88.7928 323.27 L83.9086 323.27 L83.9086 317.39 Z" fill="#000000" fill-rule="evenodd" fill-opacity="1" /><path clip-path="url(#clip390)" d="M 0 0 M108.978 291.788 Q105.367 291.788 103.538 295.353 Q101.733 298.895 101.733 306.024 Q101.733 313.131 103.538 316.696 Q105.367 320.237 108.978 320.237 Q112.612 320.237 114.418 316.696 Q116.246 313.131 116.246 306.024 Q116.246 298.895 114.418 295.353 Q112.612 291.788 108.978 291.788 M108.978 288.085 Q114.788 288.085 117.844 292.691 Q120.922 297.274 120.922 306.024 Q120.922 314.751 117.844 319.358 Q114.788 323.941 108.978 323.941 Q103.168 323.941 100.089 319.358 Q97.0335 314.751 97.0335 306.024 Q97.0335 297.274 100.089 292.691 Q103.168 288.085 108.978 288.085 Z" fill="#000000" fill-rule="evenodd" fill-opacity="1" /><path clip-path="url(#clip390)" d="M 0 0 M157.311 297.807 L146.732 308.432 L157.311 319.01 L154.556 321.811 L143.931 311.186 L133.306 321.811 L130.575 319.01 L141.131 308.432 L130.575 297.807 L133.306 295.006 L143.931 305.631 L154.556 295.006 L157.311 297.807 Z" fill="#000000" fill-rule="evenodd" fill-opacity="1" /><path clip-path="url(#clip390)" d="M 0 0 M169.672 319.335 L177.311 319.335 L177.311 292.969 L169.001 294.636 L169.001 290.376 L177.265 288.71 L181.94 288.71 L181.94 319.335 L189.579 319.335 L189.579 323.27 L169.672 323.27 L169.672 319.335 Z" fill="#000000" fill-rule="evenodd" fill-opacity="1" /><path clip-path="url(#clip390)" d="M 0 0 M209.024 291.788 Q205.413 291.788 203.584 295.353 Q201.778 298.895 201.778 306.024 Q201.778 313.131 203.584 316.696 Q205.413 320.237 209.024 320.237 Q212.658 320.237 214.463 316.696 Q216.292 313.131 216.292 306.024 Q216.292 298.895 214.463 295.353 Q212.658 291.788 209.024 291.788 M209.024 288.085 Q214.834 288.085 217.889 292.691 Q220.968 297.274 220.968 306.024 Q220.968 314.751 217.889 319.358 Q214.834 323.941 209.024 323.941 Q203.214 323.941 200.135 319.358 Q197.079 314.751 197.079 306.024 Q197.079 297.274 200.135 292.691 Q203.214 288.085 209.024 288.085 Z" fill="#000000" fill-rule="evenodd" fill-opacity="1" /><path clip-path="url(#clip390)" d="M 0 0 M233.645 271.089 L224.053 286.079 L233.645 286.079 L233.645 271.089 M232.648 267.779 L237.425 267.779 L237.425 286.079 L241.431 286.079 L241.431 289.239 L237.425 289.239 L237.425 295.859 L233.645 295.859 L233.645 289.239 L220.968 289.239 L220.968 285.571 L232.648 267.779 Z" fill="#000000" fill-rule="evenodd" fill-opacity="1" /><path clip-path="url(#clip390)" d="M 0 0 M1243.58 150.994 L1236.36 171.898 L1166.76 171.898 Q1165.82 171.898 1165.45 171.857 Q1165.08 171.816 1164.8 171.611 Q1164.51 171.406 1164.51 170.955 Q1164.51 170.586 1165.25 169.644 L1195.05 132.794 L1164.43 90.6574 Q1164.43 88.7309 1164.75 88.362 Q1165.08 87.9521 1166.76 87.9521 L1236.36 87.9521 L1243.58 107.586 L1241.49 107.586 Q1240.54 105.045 1239.03 102.913 Q1237.55 100.741 1235.83 99.1832 Q1234.15 97.6256 1231.94 96.3959 Q1229.76 95.1252 1227.71 94.3464 Q1225.71 93.5267 1223.21 92.9528 Q1220.7 92.338 1218.7 92.051 Q1216.73 91.7231 1214.27 91.5592 Q1211.81 91.3952 1210.25 91.3542 Q1208.7 91.3132 1206.73 91.3132 L1173.49 91.3132 L1200.74 128.736 Q1201.36 129.679 1201.36 129.925 Q1201.36 130.294 1200.58 131.278 L1171.48 167.266 L1207.14 167.266 Q1218.61 167.266 1226.61 164.848 Q1232.02 163.003 1235.95 159.355 Q1239.93 155.707 1241.49 150.994 L1243.58 150.994 Z" fill="#000000" fill-rule="evenodd" fill-opacity="1" /><path clip-path="url(#clip390)" d="M 0 0 M1150.43 192.981 Q1150.43 194.243 1149.39 195.19 Q1148.39 196.108 1147.3 196.108 Q1146.29 196.108 1145.66 195.505 Q1145.06 194.874 1145.06 193.985 Q1145.06 192.808 1146.06 191.833 Q1147.07 190.857 1148.24 190.857 Q1149.22 190.857 1149.82 191.46 Q1150.43 192.062 1150.43 192.981 M1150.94 221.3 Q1150.94 221.53 1150.68 222.448 Q1150.43 223.337 1149.79 224.714 Q1149.19 226.063 1148.36 227.325 Q1147.53 228.588 1146.15 229.477 Q1144.8 230.367 1143.25 230.367 Q1141.16 230.367 1139.78 228.99 Q1138.43 227.612 1138.43 225.547 Q1138.43 224.428 1139.78 220.841 Q1143.68 210.397 1143.83 209.967 Q1144.49 208.331 1144.49 206.896 Q1144.49 206.236 1144.34 205.835 Q1144.2 205.404 1143.91 205.261 Q1143.63 205.089 1143.45 205.06 Q1143.31 205.031 1143.02 205.031 Q1141.33 205.031 1139.75 206.753 Q1138.17 208.475 1137.08 212.319 Q1136.85 213.037 1136.71 213.209 Q1136.57 213.381 1136.14 213.381 Q1135.42 213.352 1135.42 212.778 Q1135.42 212.606 1135.62 211.946 Q1135.82 211.258 1136.19 210.225 Q1136.57 209.163 1137.23 208.073 Q1137.89 206.954 1138.69 205.978 Q1139.52 205.003 1140.7 204.371 Q1141.87 203.74 1143.19 203.74 Q1145.35 203.74 1146.67 205.146 Q1148.02 206.523 1148.02 208.561 Q1148.02 209.68 1147.24 211.659 Q1146.29 214.242 1145.95 215.074 L1143.65 221.243 Q1142.82 223.481 1142.56 224.169 Q1142.33 224.829 1142.13 225.633 Q1141.96 226.407 1141.96 227.125 Q1141.96 228.129 1142.28 228.588 Q1142.62 229.047 1143.37 229.047 Q1145.43 229.047 1146.95 227.01 Q1148.47 224.944 1149.36 221.788 Q1149.39 221.702 1149.42 221.558 Q1149.65 220.841 1149.88 220.755 Q1149.99 220.726 1150.22 220.726 Q1150.94 220.726 1150.94 221.3 Z" fill="#000000" fill-rule="evenodd" fill-opacity="1" /><path clip-path="url(#clip390)" d="M 0 0 M1171.78 220.784 Q1171.84 220.066 1172.95 220.066 L1208.96 220.066 Q1210.66 220.066 1210.69 220.726 Q1210.69 221.444 1209.08 221.415 L1173.36 221.415 Q1171.78 221.444 1171.78 220.784 M1171.78 209.307 Q1171.78 208.589 1173.01 208.618 L1208.91 208.618 Q1210.66 208.618 1210.69 209.307 Q1210.69 209.967 1209.19 209.967 L1172.95 209.967 Q1171.78 209.967 1171.78 209.307 Z" fill="#000000" fill-rule="evenodd" fill-opacity="1" /><path clip-path="url(#clip390)" d="M 0 0 M1233.34 196.165 L1233.34 194.329 Q1240.4 194.329 1244.04 190.57 Q1245.04 190.57 1245.22 190.8 Q1245.39 191.029 1245.39 192.091 L1245.39 225.059 Q1245.39 226.809 1246.25 227.354 Q1247.11 227.899 1250.87 227.899 L1252.73 227.899 L1252.73 229.707 Q1250.67 229.535 1243.21 229.535 Q1235.75 229.535 1233.71 229.707 L1233.71 227.899 L1235.58 227.899 Q1239.28 227.899 1240.17 227.383 Q1241.06 226.838 1241.06 225.059 L1241.06 194.616 Q1237.99 196.165 1233.34 196.165 Z" fill="#000000" fill-rule="evenodd" fill-opacity="1" /><path clip-path="url(#clip390)" d="M 0 0 M1140.74 59.639 Q1140.74 58.5774 1140.82 58.2617 Q1140.94 57.9461 1141.4 57.4584 L1152.67 44.891 Q1158.84 37.9475 1158.84 31.8933 Q1158.84 27.9625 1156.78 25.1506 Q1154.74 22.3387 1150.98 22.3387 Q1148.4 22.3387 1146.22 23.9168 Q1144.04 25.4949 1143.03 28.3068 Q1143.21 28.2494 1143.81 28.2494 Q1145.27 28.2494 1146.07 29.1676 Q1146.91 30.0857 1146.91 31.3195 Q1146.91 32.8976 1145.87 33.6723 Q1144.87 34.4183 1143.87 34.4183 Q1143.46 34.4183 1142.92 34.3322 Q1142.4 34.2461 1141.57 33.4427 Q1140.74 32.6107 1140.74 31.1473 Q1140.74 27.0443 1143.84 23.7734 Q1146.96 20.5024 1151.73 20.5024 Q1157.12 20.5024 1160.65 23.716 Q1164.21 26.9008 1164.21 31.8933 Q1164.21 33.6436 1163.66 35.2504 Q1163.15 36.8285 1162.43 38.0622 Q1161.74 39.296 1159.85 41.2758 Q1157.95 43.2556 1156.43 44.6615 Q1154.91 46.0674 1151.5 49.0515 L1145.27 55.1056 L1155.86 55.1056 Q1161.02 55.1056 1161.43 54.6465 Q1162 53.8144 1162.72 49.4245 L1164.21 49.4245 L1162.54 59.639 L1140.74 59.639 Z" fill="#000000" fill-rule="evenodd" fill-opacity="1" /><path clip-path="url(#clip390)" d="M 0 0 M1169.83 40.8454 Q1169.83 32.209 1172.01 27.5034 Q1175.05 20.5024 1182.23 20.5024 Q1183.75 20.5024 1185.33 20.9328 Q1186.93 21.3345 1188.94 22.9126 Q1190.98 24.4907 1192.21 27.073 Q1194.56 32.0655 1194.56 40.8454 Q1194.56 49.4245 1192.38 54.1013 Q1189.2 60.9301 1182.17 60.9301 Q1179.53 60.9301 1176.83 59.5816 Q1174.16 58.2331 1172.47 54.9908 Q1169.83 50.1418 1169.83 40.8454 M1174.71 40.1281 Q1174.71 48.9941 1175.34 52.5232 Q1176.06 56.3393 1178.01 58.0035 Q1179.99 59.639 1182.17 59.639 Q1184.52 59.639 1186.47 57.8887 Q1188.45 56.1098 1189.06 52.2937 Q1189.72 48.535 1189.69 40.1281 Q1189.69 31.9507 1189.11 28.6798 Q1188.34 24.8637 1186.27 23.343 Q1184.24 21.7936 1182.17 21.7936 Q1181.39 21.7936 1180.56 22.0231 Q1179.76 22.2527 1178.58 22.9126 Q1177.41 23.5725 1176.49 25.208 Q1175.6 26.8435 1175.17 29.311 Q1174.71 32.4959 1174.71 40.1281 Z" fill="#000000" fill-rule="evenodd" fill-opacity="1" /><path clip-path="url(#clip390)" d="M 0 0 M1198.93 40.8454 Q1198.93 32.209 1201.11 27.5034 Q1204.15 20.5024 1211.32 20.5024 Q1212.84 20.5024 1214.42 20.9328 Q1216.03 21.3345 1218.03 22.9126 Q1220.07 24.4907 1221.31 27.073 Q1223.66 32.0655 1223.66 40.8454 Q1223.66 49.4245 1221.48 54.1013 Q1218.29 60.9301 1211.26 60.9301 Q1208.62 60.9301 1205.93 59.5816 Q1203.26 58.2331 1201.57 54.9908 Q1198.93 50.1418 1198.93 40.8454 M1203.8 40.1281 Q1203.8 48.9941 1204.43 52.5232 Q1205.15 56.3393 1207.1 58.0035 Q1209.08 59.639 1211.26 59.639 Q1213.62 59.639 1215.57 57.8887 Q1217.55 56.1098 1218.15 52.2937 Q1218.81 48.535 1218.78 40.1281 Q1218.78 31.9507 1218.21 28.6798 Q1217.43 24.8637 1215.37 23.343 Q1213.33 21.7936 1211.26 21.7936 Q1210.49 21.7936 1209.66 22.0231 Q1208.85 22.2527 1207.68 22.9126 Q1206.5 23.5725 1205.58 25.208 Q1204.69 26.8435 1204.26 29.311 Q1203.8 32.4959 1203.8 40.1281 Z" fill="#000000" fill-rule="evenodd" fill-opacity="1" /><path clip-path="url(#clip390)" d="M 0 0 M1228.02 40.8454 Q1228.02 32.209 1230.2 27.5034 Q1233.24 20.5024 1240.41 20.5024 Q1241.94 20.5024 1243.51 20.9328 Q1245.12 21.3345 1247.13 22.9126 Q1249.17 24.4907 1250.4 27.073 Q1252.75 32.0655 1252.75 40.8454 Q1252.75 49.4245 1250.57 54.1013 Q1247.39 60.9301 1240.36 60.9301 Q1237.72 60.9301 1235.02 59.5816 Q1232.35 58.2331 1230.66 54.9908 Q1228.02 50.1418 1228.02 40.8454 M1232.9 40.1281 Q1232.9 48.9941 1233.53 52.5232 Q1234.25 56.3393 1236.2 58.0035 Q1238.18 59.639 1240.36 59.639 Q1242.71 59.639 1244.66 57.8887 Q1246.64 56.1098 1247.24 52.2937 Q1247.9 48.535 1247.87 40.1281 Q1247.87 31.9507 1247.3 28.6798 Q1246.53 24.8637 1244.46 23.343 Q1242.42 21.7936 1240.36 21.7936 Q1239.58 21.7936 1238.75 22.0231 Q1237.95 22.2527 1236.77 22.9126 Q1235.59 23.5725 1234.68 25.208 Q1233.79 26.8435 1233.36 29.311 Q1232.9 32.4959 1232.9 40.1281 Z" fill="#000000" fill-rule="evenodd" fill-opacity="1" /><path clip-path="url(#clip390)" d="M 0 0 M1318.13 103.718 L1317.41 104.895 Q1312.96 102.972 1307.43 99.902 Q1301.89 102.972 1297.44 104.895 L1296.75 103.718 Q1301.6 99.5003 1307.43 96.2581 Q1313.31 99.529 1318.13 103.718 Z" fill="#000000" fill-rule="evenodd" fill-opacity="1" /><path clip-path="url(#clip390)" d="M 0 0 M1320.88 117.751 Q1320.88 117.792 1320.64 119.268 L1311.29 156.527 Q1310.8 158.495 1309.41 160.462 Q1308.05 162.471 1305.88 164.192 Q1303.75 165.955 1300.47 167.02 Q1297.23 168.127 1293.5 168.127 Q1287.56 168.127 1284.93 166.856 Q1282.35 165.627 1282.35 163.003 Q1282.35 160.708 1283.79 159.396 Q1285.22 158.126 1286.86 158.126 Q1288.42 158.126 1289.24 159.028 Q1290.06 159.929 1290.06 161.077 Q1290.06 162.348 1289.2 163.618 Q1288.34 164.93 1286.61 165.422 Q1289.36 166.283 1293.34 166.283 Q1301.74 166.283 1305.35 157.388 Q1305.43 157.265 1305.43 157.224 L1308.22 146.116 L1308.09 146.034 Q1307.4 146.854 1306.29 147.796 Q1305.22 148.698 1302.93 149.805 Q1300.63 150.912 1298.38 150.912 Q1293.67 150.912 1290.43 147.305 Q1287.23 143.657 1287.23 137.631 Q1287.23 133.245 1288.99 128.859 Q1290.8 124.433 1293.58 121.194 Q1296.41 117.915 1300.02 115.866 Q1303.67 113.816 1307.19 113.816 Q1309.65 113.816 1311.74 115.292 Q1313.83 116.727 1314.98 119.104 Q1315.18 117.136 1316.29 116.317 Q1317.44 115.497 1318.42 115.497 Q1319.53 115.497 1320.19 116.112 Q1320.88 116.686 1320.88 117.751 M1314 122.875 Q1314 122.629 1313.83 121.973 Q1313.67 121.276 1313.18 120.17 Q1312.73 119.063 1312.03 118.079 Q1311.33 117.095 1310.06 116.399 Q1308.83 115.661 1307.27 115.661 Q1304.73 115.661 1302.19 117.792 Q1299.65 119.883 1297.89 123.121 Q1296.25 126.236 1294.69 132.262 Q1293.17 138.287 1293.17 141.361 Q1293.17 144.394 1294.48 146.731 Q1295.8 149.067 1298.62 149.067 Q1301.9 149.067 1305.43 146.034 Q1309.08 142.878 1309.69 140.172 L1313.75 124.146 Q1314 123.162 1314 122.875 Z" fill="#000000" fill-rule="evenodd" fill-opacity="1" /><path clip-path="url(#clip390)" d="M 0 0 M1346.65 154.248 Q1346.65 155.511 1345.62 156.458 Q1344.61 157.376 1343.52 157.376 Q1342.52 157.376 1341.89 156.773 Q1341.29 156.142 1341.29 155.253 Q1341.29 154.076 1342.29 153.101 Q1343.29 152.125 1344.47 152.125 Q1345.45 152.125 1346.05 152.728 Q1346.65 153.33 1346.65 154.248 M1347.17 182.568 Q1347.17 182.797 1346.91 183.716 Q1346.65 184.605 1346.02 185.982 Q1345.42 187.331 1344.59 188.593 Q1343.75 189.856 1342.38 190.745 Q1341.03 191.635 1339.48 191.635 Q1337.38 191.635 1336.01 190.257 Q1334.66 188.88 1334.66 186.814 Q1334.66 185.695 1336.01 182.109 Q1339.91 171.665 1340.05 171.234 Q1340.71 169.599 1340.71 168.164 Q1340.71 167.504 1340.57 167.103 Q1340.43 166.672 1340.14 166.529 Q1339.85 166.357 1339.68 166.328 Q1339.54 166.299 1339.25 166.299 Q1337.56 166.299 1335.98 168.021 Q1334.4 169.742 1333.31 173.587 Q1333.08 174.304 1332.94 174.477 Q1332.79 174.649 1332.36 174.649 Q1331.65 174.62 1331.65 174.046 Q1331.65 173.874 1331.85 173.214 Q1332.05 172.525 1332.42 171.493 Q1332.79 170.431 1333.45 169.341 Q1334.11 168.222 1334.92 167.246 Q1335.75 166.271 1336.93 165.639 Q1338.1 165.008 1339.42 165.008 Q1341.57 165.008 1342.89 166.414 Q1344.24 167.791 1344.24 169.828 Q1344.24 170.947 1343.47 172.927 Q1342.52 175.51 1342.18 176.342 L1339.88 182.51 Q1339.05 184.748 1338.79 185.437 Q1338.56 186.097 1338.36 186.9 Q1338.19 187.675 1338.19 188.392 Q1338.19 189.397 1338.5 189.856 Q1338.85 190.315 1339.59 190.315 Q1341.66 190.315 1343.18 188.278 Q1344.7 186.212 1345.59 183.056 Q1345.62 182.97 1345.65 182.826 Q1345.88 182.109 1346.11 182.023 Q1346.22 181.994 1346.45 181.994 Q1347.17 181.994 1347.17 182.568 Z" fill="#000000" fill-rule="evenodd" fill-opacity="1" /><path clip-path="url(#clip390)" d="M 0 0 M1331.65 80.6055 Q1331.65 70.6779 1335.35 62.6726 Q1336.93 59.3156 1339.13 56.5038 Q1341.34 53.6919 1342.81 52.4581 Q1344.27 51.2243 1344.67 51.2243 Q1345.25 51.2243 1345.27 51.7982 Q1345.27 52.0851 1344.5 52.8024 Q1335.03 62.4431 1335.06 80.6055 Q1335.06 98.8252 1344.27 108.093 Q1345.27 109.097 1345.27 109.413 Q1345.27 109.987 1344.67 109.987 Q1344.27 109.987 1342.86 108.81 Q1341.46 107.634 1339.28 104.937 Q1337.1 102.24 1335.52 98.94 Q1331.65 90.9348 1331.65 80.6055 Z" fill="#000000" fill-rule="evenodd" fill-opacity="1" /><path clip-path="url(#clip390)" d="M 0 0 M1354.2 95.296 Q1354.2 94.2344 1354.29 93.9188 Q1354.41 93.6032 1354.86 93.1154 L1366.14 80.5481 Q1372.31 73.6045 1372.31 67.5504 Q1372.31 63.6195 1370.24 60.8076 Q1368.21 57.9958 1364.45 57.9958 Q1361.87 57.9958 1359.68 59.5739 Q1357.5 61.1519 1356.5 63.9638 Q1356.67 63.9064 1357.27 63.9064 Q1358.74 63.9064 1359.54 64.8246 Q1360.37 65.7427 1360.37 66.9765 Q1360.37 68.5546 1359.34 69.3293 Q1358.34 70.0753 1357.33 70.0753 Q1356.93 70.0753 1356.39 69.9892 Q1355.87 69.9032 1355.04 69.0998 Q1354.2 68.2677 1354.2 66.8044 Q1354.2 62.7013 1357.3 59.4304 Q1360.43 56.1595 1365.19 56.1595 Q1370.59 56.1595 1374.12 59.373 Q1377.68 62.5579 1377.68 67.5504 Q1377.68 69.3006 1377.13 70.9074 Q1376.61 72.4855 1375.9 73.7193 Q1375.21 74.953 1373.31 76.9328 Q1371.42 78.9126 1369.9 80.3185 Q1368.38 81.7245 1364.96 84.7085 L1358.74 90.7626 L1369.33 90.7626 Q1374.49 90.7626 1374.89 90.3035 Q1375.47 89.4714 1376.18 85.0815 L1377.68 85.0815 L1376.01 95.296 L1354.2 95.296 Z" fill="#000000" fill-rule="evenodd" fill-opacity="1" /><path clip-path="url(#clip390)" d="M 0 0 M1383.3 109.413 Q1383.3 109.126 1384.04 108.408 Q1393.51 98.7678 1393.51 80.6055 Q1393.51 62.3857 1384.42 53.1754 Q1383.3 52.1138 1383.3 51.7982 Q1383.3 51.2243 1383.87 51.2243 Q1384.27 51.2243 1385.68 52.4007 Q1387.11 53.5771 1389.27 56.2742 Q1391.45 58.9713 1393.05 62.271 Q1396.93 70.2762 1396.93 80.6055 Q1396.93 90.5331 1393.23 98.5383 Q1391.65 101.895 1389.44 104.707 Q1387.23 107.519 1385.77 108.753 Q1384.3 109.987 1383.87 109.987 Q1383.3 109.987 1383.3 109.413 Z" fill="#000000" fill-rule="evenodd" fill-opacity="1" /><path clip-path="url(#clip390)" d="M 0 0 M1414.82 129.925 Q1414.82 115.743 1420.11 104.307 Q1422.36 99.5111 1425.52 95.4941 Q1428.67 91.4772 1430.76 89.7146 Q1432.85 87.9521 1433.43 87.9521 Q1434.25 87.9521 1434.29 88.7719 Q1434.29 89.1818 1433.18 90.2065 Q1419.65 103.979 1419.7 129.925 Q1419.7 155.953 1432.85 169.193 Q1434.29 170.627 1434.29 171.078 Q1434.29 171.898 1433.43 171.898 Q1432.85 171.898 1430.84 170.218 Q1428.84 168.537 1425.72 164.684 Q1422.61 160.831 1420.35 156.117 Q1414.82 144.681 1414.82 129.925 Z" fill="#000000" fill-rule="evenodd" fill-opacity="1" /><path clip-path="url(#clip390)" d="M 0 0 M1486.56 116.071 Q1486.56 116.44 1486.23 117.71 Q1485.94 118.94 1485 121.358 Q1484.1 123.736 1482.71 126.4 Q1481.35 129.023 1478.85 132.343 Q1476.35 135.664 1473.24 138.574 Q1467.38 144.066 1461.1 147.018 Q1454.87 149.969 1449.54 150.912 L1448.36 150.912 Q1447.04 150.912 1447.04 149.887 L1447.95 146.116 L1453.07 125.58 Q1454.67 119.309 1454.67 118.776 Q1454.67 118.284 1454.46 118.038 Q1454.3 117.751 1453.32 117.546 Q1452.37 117.341 1450.49 117.341 Q1449.71 117.341 1449.34 117.3 Q1449.01 117.259 1448.73 117.054 Q1448.44 116.809 1448.44 116.317 Q1448.44 115.62 1448.73 115.251 Q1449.05 114.841 1449.3 114.759 Q1449.54 114.677 1450.04 114.636 Q1450.73 114.595 1453.07 114.39 Q1455.41 114.144 1457.41 113.98 Q1459.42 113.816 1460.28 113.816 Q1460.78 113.816 1461.06 114.062 Q1461.35 114.267 1461.35 114.513 L1461.39 114.718 L1453.15 148.124 Q1456.19 147.141 1459.18 145.501 Q1462.21 143.861 1465.49 141.156 Q1468.77 138.41 1471.56 135.008 Q1474.34 131.606 1476.8 126.851 Q1479.3 122.055 1480.86 116.563 Q1481.15 115.456 1481.84 114.8 Q1482.58 114.144 1483.12 113.98 Q1483.65 113.816 1484.14 113.816 Q1485.25 113.816 1485.9 114.431 Q1486.56 115.005 1486.56 116.071 Z" fill="#000000" fill-rule="evenodd" fill-opacity="1" /><path clip-path="url(#clip390)" d="M 0 0 M1488.08 171.078 Q1488.08 170.668 1489.15 169.644 Q1502.67 155.871 1502.67 129.925 Q1502.67 103.897 1489.68 90.7394 Q1488.08 89.2228 1488.08 88.7719 Q1488.08 87.9521 1488.9 87.9521 Q1489.47 87.9521 1491.48 89.6327 Q1493.53 91.3132 1496.61 95.1662 Q1499.72 99.0192 1502.02 103.733 Q1507.55 115.169 1507.55 129.925 Q1507.55 144.107 1502.26 155.543 Q1500.01 160.339 1496.85 164.356 Q1493.7 168.373 1491.6 170.136 Q1489.51 171.898 1488.9 171.898 Q1488.08 171.898 1488.08 171.078 Z" fill="#000000" fill-rule="evenodd" fill-opacity="1" /><polyline clip-path="url(#clip393)" style="stroke:#009af9; stroke-width:4; stroke-opacity:1; fill:none" points="
  336.167,1388.64 340.527,1377.7 344.887,1385.45 349.248,1381.07 353.608,1385.14 357.969,1385.98 362.329,1386.76 366.69,1385.93 371.05,1386.93 375.411,1384.65 
  379.771,1381.92 384.132,1387.24 388.492,1384.77 392.853,1382.45 397.213,1386.01 401.574,1385.6 405.934,1387.82 410.295,1384.88 414.655,1386.84 419.016,1383.14 
  423.376,1385.91 427.737,1378.73 432.097,1386.16 436.457,1382.78 440.818,1382.32 445.178,1385.52 449.539,1382.3 453.899,1385.31 458.26,1382.59 462.62,1385.03 
  466.981,1385.25 471.341,1387.79 475.702,1384.96 480.062,1382.41 484.423,1386.66 488.783,1384.83 493.144,237.151 497.504,1384.59 501.865,1383.66 506.225,1384.39 
  510.586,1385.04 514.946,1387.18 519.307,1382 523.667,1383.51 528.027,1385.67 532.388,1384.2 536.748,1384.95 541.109,1385.15 545.469,1386.95 549.83,1387.39 
  554.19,1384.58 558.551,1381.19 562.911,1387.09 567.272,1386.42 571.632,1384.72 575.993,1386.75 580.353,1384.45 584.714,1384.45 589.074,1381.96 593.435,1380.19 
  597.795,1382.34 602.156,1385.09 606.516,1385.82 610.877,1382.88 615.237,1388.56 619.597,1384.15 623.958,1382.12 628.318,1380.21 632.679,1382.05 637.039,1377.37 
  641.4,1385.47 645.76,1387.97 650.121,1380.54 654.481,1382.95 658.842,1386.68 663.202,1385.89 667.563,1382.05 671.923,1385.57 676.284,1383.43 680.644,1385.86 
  685.005,1386.35 689.365,1383.54 693.726,1387.67 698.086,1386.32 702.447,1385.79 706.807,1386.25 711.167,1387.09 715.528,1383.66 719.888,1386.65 724.249,1387.13 
  728.609,1386.91 732.97,1382.33 737.33,1387.08 741.691,1385.65 746.051,1386.79 750.412,1383.39 754.772,1383.27 759.133,1384.55 763.493,1387.23 767.854,1385.08 
  772.214,1386.33 776.575,1387.29 780.935,1383.37 785.296,1380.21 789.656,1386.93 794.017,1383.63 798.377,1385.97 802.737,1383.66 807.098,1387.07 811.458,1385.53 
  815.819,1385.95 820.179,1382.04 824.54,1385.93 828.9,1382.56 833.261,1385 837.621,1387.89 841.982,1384.8 846.342,1382.52 850.703,1384.85 855.063,1386 
  859.424,1386.15 863.784,1383.65 868.145,1385.1 872.505,1384.45 876.866,1380.02 881.226,1386.61 885.587,1386.06 889.947,1385.3 894.307,1385.87 898.668,1385.91 
  903.028,1388.32 907.389,1383.13 911.749,1386.23 916.11,1387.73 920.47,1385.48 924.831,1385.66 929.191,1382.58 933.552,1387.17 937.912,1386.85 942.273,1380.53 
  946.633,1384.28 950.994,1386.91 955.354,1387.09 959.715,1386.55 964.075,1383.05 968.436,1383.88 972.796,1388.22 977.157,1384.33 981.517,1386.3 985.877,1387.28 
  990.238,1388.48 994.598,1385.08 998.959,1386.57 1003.32,1381.52 1007.68,1386.42 1012.04,1387.66 1016.4,1387.87 1020.76,1385.98 1025.12,1385.3 1029.48,1384.42 
  1033.84,1385.98 1038.2,1381.67 1042.56,1385.84 1046.92,1384.26 1051.28,1387.91 1055.65,1384.98 1060.01,1385.45 1064.37,1384.39 1068.73,1381.92 1073.09,1387.45 
  1077.45,1387.24 1081.81,1387.51 1086.17,1386.5 1090.53,1386.26 1094.89,1384.31 1099.25,1384.88 1103.61,1383.46 1107.97,1386.42 1112.33,1385.81 1116.69,1385.99 
  1121.05,1386 1125.41,1387.86 1129.77,1385.45 1134.13,1383.17 1138.49,1386.68 1142.85,1387.86 1147.22,1387.04 1151.58,1387.68 1155.94,1387.58 1160.3,1385.92 
  1164.66,1386.36 1169.02,1386.47 1173.38,1386.74 1177.74,1387.46 1182.1,1385.58 1186.46,1388.48 1190.82,1386.09 1195.18,1386.51 1199.54,1387.83 1203.9,1385.39 
  1208.26,1386.9 1212.62,1388.16 1216.98,1387.5 1221.34,1387.57 1225.7,1387.49 1230.06,1386.9 1234.42,1388.15 1238.79,1387.07 1243.15,1386.45 1247.51,1386.48 
  1251.87,1386.56 1256.23,1386.17 1260.59,1387.59 1264.95,1385.65 1269.31,1386.83 1273.67,1387.69 1278.03,1387.93 1282.39,1386.46 1286.75,1386.58 1291.11,1387.98 
  1295.47,1385.06 1299.83,1386.45 1304.19,1386.33 1308.55,1386.93 1312.91,1386.85 1317.27,1387.79 1321.63,1387.75 1325.99,1386.15 1330.36,1385.84 1334.72,1386.83 
  1339.08,1387.35 1343.44,1387.24 1347.8,1387.23 1352.16,1387.14 1356.52,1386.84 1360.88,1387.48 1365.24,1387.51 1369.6,1386.75 1373.96,1386.28 1378.32,1388.16 
  1382.68,1387.39 1387.04,1385.58 1391.4,1388.08 1395.76,1386.98 1400.12,1386.75 1404.48,1387.88 1408.84,1387.46 1413.2,1385.65 1417.56,1386.87 1421.93,1386.78 
  1426.29,1386.04 1430.65,1388.15 1435.01,1387.39 1439.37,1386.58 1443.73,1387.24 1448.09,1387.76 1452.45,1387.7 1456.81,1385.42 1461.17,1387.61 1465.53,1386.75 
  1469.89,1386.29 1474.25,1388.3 1478.61,1387.19 1482.97,1388.23 1487.33,1387.01 1491.69,1386.79 1496.05,1387.3 1500.41,1386.57 1504.77,1386.77 1509.13,1387.74 
  1513.5,1388.3 1517.86,1387.36 1522.22,1388.34 1526.58,1387.74 1530.94,1388.39 1535.3,1388.16 1539.66,1387.06 1544.02,1388 1548.38,1386.72 1552.74,1386.27 
  1557.1,1388.26 1561.46,1387.65 1565.82,1388.38 1570.18,1387.85 1574.54,1387.92 1578.9,1386.92 1583.26,1387.44 1587.62,1387.82 1591.98,1387.47 1596.34,1388.21 
  1600.7,1387.87 1605.07,1387.86 1609.43,1387.72 1613.79,1387.33 1618.15,1387.6 1622.51,1387.84 1626.87,1387.19 1631.23,1387.91 1635.59,1387.81 1639.95,1387.93 
  1644.31,1387.88 1648.67,1387.87 1653.03,1388 1657.39,1386.94 1661.75,1387.93 1666.11,1387.74 1670.47,1387.74 1674.83,1388.21 1679.19,1388.5 1683.55,1387.81 
  1687.91,1388.29 1692.27,1387.7 1696.64,1388.4 1701,1387.9 1705.36,1387.59 1709.72,1387.25 1714.08,1388.2 1718.44,1388.22 1722.8,1388.23 1727.16,1387.8 
  1731.52,1387.85 1735.88,1387.7 1740.24,1387.71 1744.6,1388.25 1748.96,1387.78 1753.32,1388.36 1757.68,1387.2 1762.04,1387.61 1766.4,1387.58 1770.76,1387.61 
  1775.12,1388.17 1779.48,1387.93 1783.84,1388.01 1788.21,1388.36 1792.57,1387.28 1796.93,1387.87 1801.29,1388.12 1805.65,1387.98 1810.01,1387.97 1814.37,1388.01 
  1818.73,1388.04 1823.09,1387.93 1827.45,1388.31 1831.81,1388.3 1836.17,1388.2 1840.53,1388.15 1844.89,1387.94 1849.25,1387.98 1853.61,1388.54 1857.97,1387.87 
  1862.33,1388.35 1866.69,1388.21 1871.05,1388.39 1875.41,1388.51 1879.78,1387.87 1884.14,1388.2 1888.5,1388.44 1892.86,1388.45 1897.22,1388.24 1901.58,1388.12 
  1905.94,1388.39 1910.3,1388.33 1914.66,1388.14 1919.02,1387.78 1923.38,1388.58 1927.74,1388.01 1932.1,1387.88 1936.46,1387.94 1940.82,1388.23 1945.18,1388.37 
  1949.54,1388.04 1953.9,1388.15 1958.26,1388.31 1962.62,1387.57 1966.98,1388.08 1971.35,1388.3 1975.71,1388.53 1980.07,1388.41 1984.43,1388.32 1988.79,1387.84 
  1993.15,1388.23 1997.51,1388.39 2001.87,1388.24 2006.23,1388.31 2010.59,1388.38 2014.95,1388.39 2019.31,1388.09 2023.67,1388.21 2028.03,1388.24 2032.39,1388.33 
  2036.75,1388.52 2041.11,1388.19 2045.47,1388.14 2049.83,1388.25 2054.19,1388.24 2058.55,1388.32 2062.92,1388.49 2067.28,1388.44 2071.64,1388.13 2076,1388.5 
  2080.36,1388.46 2084.72,1388.44 2089.08,1388.26 2093.44,1387.74 2097.8,1388.45 2102.16,1388.49 2106.52,1388.39 2110.88,1388.5 2115.24,1388.47 2119.6,1388.29 
  2123.96,1388.44 2128.32,1388.48 2132.68,1388.42 2137.04,1388.58 2141.4,1388.31 2145.76,1388.16 2150.12,1388.35 2154.49,1388.12 2158.85,1388.43 2163.21,1388.44 
  2167.57,1388.4 2171.93,1388.46 2176.29,1388.2 2180.65,1388.39 2185.01,1388.48 2189.37,1388.49 2193.73,1388.43 2198.09,1388.37 2202.45,1388.57 2206.81,1388.48 
  2211.17,1388.36 2215.53,1388.4 2219.89,1388.52 2224.25,1388.51 2228.61,1388.41 2232.97,1388.14 2237.33,1388.47 2241.69,1388.48 2246.06,1388.35 2250.42,1388.46 
  2254.78,1388.17 2259.14,1388.28 2263.5,1388.46 2267.86,1388.49 2272.22,1388.54 2276.58,1388.36 2280.94,1388.51 2285.3,1388.54 2289.66,1388.44 2294.02,1388.19 
  
  "/>
<polyline clip-path="url(#clip393)" style="stroke:#e26f46; stroke-width:4; stroke-opacity:1; fill:none" stroke-dasharray="16, 10" points="
  493.144,2643.75 493.144,-1017.97 
  "/>
<path clip-path="url(#clip390)" d="
M1696.44 364.252 L2283.58 364.252 L2283.58 243.292 L1696.44 243.292  Z
  " fill="#ffffff" fill-rule="evenodd" fill-opacity="1"/>
<polyline clip-path="url(#clip390)" style="stroke:#000000; stroke-width:4; stroke-opacity:1; fill:none" points="
  1696.44,364.252 2283.58,364.252 2283.58,243.292 1696.44,243.292 1696.44,364.252 
  "/>
<polyline clip-path="url(#clip390)" style="stroke:#e26f46; stroke-width:4; stroke-opacity:1; fill:none" stroke-dasharray="16, 10" points="
  1719.5,303.772 1857.85,303.772 
  "/>
<path clip-path="url(#clip390)" d="M 0 0 M1880.91 286.492 L1900.77 286.492 L1900.77 290.427 L1885.59 290.427 L1885.59 300.612 L1899.29 300.612 L1899.29 304.547 L1885.59 304.547 L1885.59 321.052 L1880.91 321.052 L1880.91 286.492 Z" fill="#000000" fill-rule="evenodd" fill-opacity="1" /><path clip-path="url(#clip390)" d="M 0 0 M1919.57 299.108 Q1918.85 298.691 1917.99 298.506 Q1917.16 298.297 1916.14 298.297 Q1912.53 298.297 1910.59 300.659 Q1908.67 302.997 1908.67 307.395 L1908.67 321.052 L1904.38 321.052 L1904.38 295.126 L1908.67 295.126 L1908.67 299.154 Q1910.01 296.793 1912.16 295.659 Q1914.31 294.501 1917.39 294.501 Q1917.83 294.501 1918.36 294.571 Q1918.9 294.617 1919.55 294.733 L1919.57 299.108 Z" fill="#000000" fill-rule="evenodd" fill-opacity="1" /><path clip-path="url(#clip390)" d="M 0 0 M1945.17 307.024 L1945.17 309.108 L1925.59 309.108 Q1925.86 313.506 1928.23 315.821 Q1930.61 318.112 1934.85 318.112 Q1937.3 318.112 1939.59 317.51 Q1941.91 316.908 1944.17 315.705 L1944.17 319.733 Q1941.88 320.705 1939.48 321.214 Q1937.07 321.723 1934.59 321.723 Q1928.39 321.723 1924.75 318.112 Q1921.14 314.501 1921.14 308.344 Q1921.14 301.978 1924.57 298.251 Q1928.02 294.501 1933.85 294.501 Q1939.08 294.501 1942.11 297.881 Q1945.17 301.237 1945.17 307.024 M1940.91 305.774 Q1940.86 302.279 1938.94 300.196 Q1937.05 298.112 1933.9 298.112 Q1930.33 298.112 1928.18 300.126 Q1926.05 302.14 1925.73 305.797 L1940.91 305.774 Z" fill="#000000" fill-rule="evenodd" fill-opacity="1" /><path clip-path="url(#clip390)" d="M 0 0 M1954.71 308.112 Q1954.71 312.811 1956.63 315.496 Q1958.57 318.158 1961.95 318.158 Q1965.33 318.158 1967.28 315.496 Q1969.22 312.811 1969.22 308.112 Q1969.22 303.413 1967.28 300.751 Q1965.33 298.066 1961.95 298.066 Q1958.57 298.066 1956.63 300.751 Q1954.71 303.413 1954.71 308.112 M1969.22 317.163 Q1967.88 319.478 1965.82 320.612 Q1963.78 321.723 1960.91 321.723 Q1956.21 321.723 1953.25 317.973 Q1950.31 314.223 1950.31 308.112 Q1950.31 302.001 1953.25 298.251 Q1956.21 294.501 1960.91 294.501 Q1963.78 294.501 1965.82 295.635 Q1967.88 296.747 1969.22 299.061 L1969.22 295.126 L1973.48 295.126 L1973.48 330.913 L1969.22 330.913 L1969.22 317.163 Z" fill="#000000" fill-rule="evenodd" fill-opacity="1" /><path clip-path="url(#clip390)" d="M 0 0 M1981.81 310.821 L1981.81 295.126 L1986.07 295.126 L1986.07 310.659 Q1986.07 314.339 1987.51 316.191 Q1988.94 318.02 1991.81 318.02 Q1995.26 318.02 1997.25 315.821 Q1999.27 313.621 1999.27 309.825 L1999.27 295.126 L2003.53 295.126 L2003.53 321.052 L1999.27 321.052 L1999.27 317.071 Q1997.72 319.432 1995.66 320.589 Q1993.62 321.723 1990.91 321.723 Q1986.44 321.723 1984.13 318.946 Q1981.81 316.168 1981.81 310.821 M1992.53 294.501 L1992.53 294.501 Z" fill="#000000" fill-rule="evenodd" fill-opacity="1" /><path clip-path="url(#clip390)" d="M 0 0 M2034.48 307.024 L2034.48 309.108 L2014.89 309.108 Q2015.17 313.506 2017.53 315.821 Q2019.91 318.112 2024.15 318.112 Q2026.6 318.112 2028.9 317.51 Q2031.21 316.908 2033.48 315.705 L2033.48 319.733 Q2031.19 320.705 2028.78 321.214 Q2026.37 321.723 2023.9 321.723 Q2017.69 321.723 2014.06 318.112 Q2010.45 314.501 2010.45 308.344 Q2010.45 301.978 2013.87 298.251 Q2017.32 294.501 2023.16 294.501 Q2028.39 294.501 2031.42 297.881 Q2034.48 301.237 2034.48 307.024 M2030.22 305.774 Q2030.17 302.279 2028.25 300.196 Q2026.35 298.112 2023.2 298.112 Q2019.64 298.112 2017.48 300.126 Q2015.35 302.14 2015.03 305.797 L2030.22 305.774 Z" fill="#000000" fill-rule="evenodd" fill-opacity="1" /><path clip-path="url(#clip390)" d="M 0 0 M2063.02 305.404 L2063.02 321.052 L2058.76 321.052 L2058.76 305.543 Q2058.76 301.862 2057.32 300.034 Q2055.89 298.205 2053.02 298.205 Q2049.57 298.205 2047.58 300.404 Q2045.59 302.603 2045.59 306.399 L2045.59 321.052 L2041.3 321.052 L2041.3 295.126 L2045.59 295.126 L2045.59 299.154 Q2047.11 296.816 2049.17 295.659 Q2051.26 294.501 2053.97 294.501 Q2058.43 294.501 2060.72 297.279 Q2063.02 300.034 2063.02 305.404 Z" fill="#000000" fill-rule="evenodd" fill-opacity="1" /><path clip-path="url(#clip390)" d="M 0 0 M2090.17 296.122 L2090.17 300.103 Q2088.36 299.108 2086.53 298.622 Q2084.73 298.112 2082.88 298.112 Q2078.73 298.112 2076.44 300.751 Q2074.15 303.367 2074.15 308.112 Q2074.15 312.858 2076.44 315.496 Q2078.73 318.112 2082.88 318.112 Q2084.73 318.112 2086.53 317.626 Q2088.36 317.117 2090.17 316.121 L2090.17 320.057 Q2088.39 320.89 2086.47 321.307 Q2084.57 321.723 2082.41 321.723 Q2076.56 321.723 2073.11 318.043 Q2069.66 314.362 2069.66 308.112 Q2069.66 301.77 2073.13 298.135 Q2076.63 294.501 2082.69 294.501 Q2084.66 294.501 2086.53 294.918 Q2088.41 295.311 2090.17 296.122 Z" fill="#000000" fill-rule="evenodd" fill-opacity="1" /><path clip-path="url(#clip390)" d="M 0 0 M2108.36 323.459 Q2106.56 328.089 2104.85 329.501 Q2103.13 330.913 2100.26 330.913 L2096.86 330.913 L2096.86 327.348 L2099.36 327.348 Q2101.12 327.348 2102.09 326.515 Q2103.06 325.682 2104.24 322.58 L2105.01 320.635 L2094.52 295.126 L2099.03 295.126 L2107.14 315.404 L2115.24 295.126 L2119.75 295.126 L2108.36 323.459 Z" fill="#000000" fill-rule="evenodd" fill-opacity="1" /><path clip-path="url(#clip390)" d="M 0 0 M2157.23 295.89 L2157.23 299.918 Q2155.42 298.992 2153.48 298.529 Q2151.53 298.066 2149.45 298.066 Q2146.28 298.066 2144.68 299.038 Q2143.11 300.01 2143.11 301.955 Q2143.11 303.436 2144.24 304.293 Q2145.38 305.126 2148.8 305.89 L2150.26 306.214 Q2154.8 307.186 2156.7 308.969 Q2158.62 310.728 2158.62 313.899 Q2158.62 317.51 2155.75 319.617 Q2152.9 321.723 2147.9 321.723 Q2145.82 321.723 2143.55 321.307 Q2141.3 320.913 2138.8 320.103 L2138.8 315.705 Q2141.16 316.932 2143.46 317.557 Q2145.75 318.158 2147.99 318.158 Q2151 318.158 2152.62 317.14 Q2154.24 316.098 2154.24 314.223 Q2154.24 312.487 2153.06 311.561 Q2151.9 310.635 2147.95 309.779 L2146.47 309.432 Q2142.51 308.598 2140.75 306.885 Q2138.99 305.149 2138.99 302.14 Q2138.99 298.483 2141.58 296.492 Q2144.17 294.501 2148.94 294.501 Q2151.3 294.501 2153.39 294.848 Q2155.47 295.196 2157.23 295.89 Z" fill="#000000" fill-rule="evenodd" fill-opacity="1" /><path clip-path="url(#clip390)" d="M 0 0 M2186.95 305.404 L2186.95 321.052 L2182.69 321.052 L2182.69 305.543 Q2182.69 301.862 2181.26 300.034 Q2179.82 298.205 2176.95 298.205 Q2173.5 298.205 2171.51 300.404 Q2169.52 302.603 2169.52 306.399 L2169.52 321.052 L2165.24 321.052 L2165.24 285.034 L2169.52 285.034 L2169.52 299.154 Q2171.05 296.816 2173.11 295.659 Q2175.19 294.501 2177.9 294.501 Q2182.37 294.501 2184.66 297.279 Q2186.95 300.034 2186.95 305.404 Z" fill="#000000" fill-rule="evenodd" fill-opacity="1" /><path clip-path="url(#clip390)" d="M 0 0 M2195.45 295.126 L2199.71 295.126 L2199.71 321.052 L2195.45 321.052 L2195.45 295.126 M2195.45 285.034 L2199.71 285.034 L2199.71 290.427 L2195.45 290.427 L2195.45 285.034 Z" fill="#000000" fill-rule="evenodd" fill-opacity="1" /><path clip-path="url(#clip390)" d="M 0 0 M2221.74 285.034 L2221.74 288.575 L2217.67 288.575 Q2215.38 288.575 2214.47 289.501 Q2213.59 290.427 2213.59 292.835 L2213.59 295.126 L2220.61 295.126 L2220.61 298.436 L2213.59 298.436 L2213.59 321.052 L2209.31 321.052 L2209.31 298.436 L2205.24 298.436 L2205.24 295.126 L2209.31 295.126 L2209.31 293.321 Q2209.31 288.992 2211.33 287.024 Q2213.34 285.034 2217.71 285.034 L2221.74 285.034 Z" fill="#000000" fill-rule="evenodd" fill-opacity="1" /><path clip-path="url(#clip390)" d="M 0 0 M2228.69 287.765 L2228.69 295.126 L2237.46 295.126 L2237.46 298.436 L2228.69 298.436 L2228.69 312.51 Q2228.69 315.682 2229.54 316.584 Q2230.42 317.487 2233.09 317.487 L2237.46 317.487 L2237.46 321.052 L2233.09 321.052 Q2228.15 321.052 2226.28 319.223 Q2224.4 317.371 2224.4 312.51 L2224.4 298.436 L2221.28 298.436 L2221.28 295.126 L2224.4 295.126 L2224.4 287.765 L2228.69 287.765 Z" fill="#000000" fill-rule="evenodd" fill-opacity="1" /></svg>
