<?xml version="1.0" encoding="utf-8"?>
<svg xmlns="http://www.w3.org/2000/svg" xmlns:xlink="http://www.w3.org/1999/xlink" width="600" height="400" viewBox="0 0 2400 1600">
<defs>
  <clipPath id="clip660">
    <rect x="0" y="0" width="2400" height="1600"/>
  </clipPath>
</defs>
<path clip-path="url(#clip660)" d="
M0 1600 L2400 1600 L2400 0 L0 0  Z
  " fill="#ffffff" fill-rule="evenodd" fill-opacity="1"/>
<defs>
  <clipPath id="clip661">
    <rect x="480" y="0" width="1681" height="1600"/>
  </clipPath>
</defs>
<path clip-path="url(#clip660)" d="
M360.752 1423.18 L2352.76 1423.18 L2352.76 123.472 L360.752 123.472  Z
  " fill="#ffffff" fill-rule="evenodd" fill-opacity="1"/>
<defs>
  <clipPath id="clip662">
    <rect x="360" y="123" width="1993" height="1301"/>
  </clipPath>
</defs>
<polyline clip-path="url(#clip662)" style="stroke:#000000; stroke-width:2; stroke-opacity:0.1; fill:none" points="
  417.13,1423.18 417.13,123.472 
  "/>
<polyline clip-path="url(#clip662)" style="stroke:#000000; stroke-width:2; stroke-opacity:0.1; fill:none" points="
  793.733,1423.18 793.733,123.472 
  "/>
<polyline clip-path="url(#clip662)" style="stroke:#000000; stroke-width:2; stroke-opacity:0.1; fill:none" points="
  1170.34,1423.18 1170.34,123.472 
  "/>
<polyline clip-path="url(#clip662)" style="stroke:#000000; stroke-width:2; stroke-opacity:0.1; fill:none" points="
  1546.94,1423.18 1546.94,123.472 
  "/>
<polyline clip-path="url(#clip662)" style="stroke:#000000; stroke-width:2; stroke-opacity:0.1; fill:none" points="
  1923.54,1423.18 1923.54,123.472 
  "/>
<polyline clip-path="url(#clip662)" style="stroke:#000000; stroke-width:2; stroke-opacity:0.1; fill:none" points="
  2300.14,1423.18 2300.14,123.472 
  "/>
<polyline clip-path="url(#clip660)" style="stroke:#000000; stroke-width:4; stroke-opacity:1; fill:none" points="
  360.752,1423.18 2352.76,1423.18 
  "/>
<polyline clip-path="url(#clip660)" style="stroke:#000000; stroke-width:4; stroke-opacity:1; fill:none" points="
  417.13,1423.18 417.13,1407.58 
  "/>
<polyline clip-path="url(#clip660)" style="stroke:#000000; stroke-width:4; stroke-opacity:1; fill:none" points="
  793.733,1423.18 793.733,1407.58 
  "/>
<polyline clip-path="url(#clip660)" style="stroke:#000000; stroke-width:4; stroke-opacity:1; fill:none" points="
  1170.34,1423.18 1170.34,1407.58 
  "/>
<polyline clip-path="url(#clip660)" style="stroke:#000000; stroke-width:4; stroke-opacity:1; fill:none" points="
  1546.94,1423.18 1546.94,1407.58 
  "/>
<polyline clip-path="url(#clip660)" style="stroke:#000000; stroke-width:4; stroke-opacity:1; fill:none" points="
  1923.54,1423.18 1923.54,1407.58 
  "/>
<polyline clip-path="url(#clip660)" style="stroke:#000000; stroke-width:4; stroke-opacity:1; fill:none" points="
  2300.14,1423.18 2300.14,1407.58 
  "/>
<path clip-path="url(#clip660)" d="M 0 0 M417.13 1452.37 Q413.519 1452.37 411.69 1455.94 Q409.884 1459.48 409.884 1466.61 Q409.884 1473.71 411.69 1477.28 Q413.519 1480.82 417.13 1480.82 Q420.764 1480.82 422.569 1477.28 Q424.398 1473.71 424.398 1466.61 Q424.398 1459.48 422.569 1455.94 Q420.764 1452.37 417.13 1452.37 M417.13 1448.67 Q422.94 1448.67 425.995 1453.27 Q429.074 1457.86 429.074 1466.61 Q429.074 1475.33 425.995 1479.94 Q422.94 1484.52 417.13 1484.52 Q411.32 1484.52 408.241 1479.94 Q405.185 1475.33 405.185 1466.61 Q405.185 1457.86 408.241 1453.27 Q411.32 1448.67 417.13 1448.67 Z" fill="#000000" fill-rule="evenodd" fill-opacity="1" /><path clip-path="url(#clip660)" d="M 0 0 M768.42 1479.92 L776.059 1479.92 L776.059 1453.55 L767.749 1455.22 L767.749 1450.96 L776.013 1449.29 L780.689 1449.29 L780.689 1479.92 L788.328 1479.92 L788.328 1483.85 L768.42 1483.85 L768.42 1479.92 Z" fill="#000000" fill-rule="evenodd" fill-opacity="1" /><path clip-path="url(#clip660)" d="M 0 0 M807.772 1452.37 Q804.161 1452.37 802.332 1455.94 Q800.527 1459.48 800.527 1466.61 Q800.527 1473.71 802.332 1477.28 Q804.161 1480.82 807.772 1480.82 Q811.406 1480.82 813.212 1477.28 Q815.04 1473.71 815.04 1466.61 Q815.04 1459.48 813.212 1455.94 Q811.406 1452.37 807.772 1452.37 M807.772 1448.67 Q813.582 1448.67 816.638 1453.27 Q819.716 1457.86 819.716 1466.61 Q819.716 1475.33 816.638 1479.94 Q813.582 1484.52 807.772 1484.52 Q801.962 1484.52 798.883 1479.94 Q795.828 1475.33 795.828 1466.61 Q795.828 1457.86 798.883 1453.27 Q801.962 1448.67 807.772 1448.67 Z" fill="#000000" fill-rule="evenodd" fill-opacity="1" /><path clip-path="url(#clip660)" d="M 0 0 M1149.11 1479.92 L1165.43 1479.92 L1165.43 1483.85 L1143.48 1483.85 L1143.48 1479.92 Q1146.15 1477.16 1150.73 1472.53 Q1155.34 1467.88 1156.52 1466.54 Q1158.76 1464.01 1159.64 1462.28 Q1160.54 1460.52 1160.54 1458.83 Q1160.54 1456.07 1158.6 1454.34 Q1156.68 1452.6 1153.58 1452.6 Q1151.38 1452.6 1148.92 1453.37 Q1146.49 1454.13 1143.72 1455.68 L1143.72 1450.96 Q1146.54 1449.82 1148.99 1449.25 Q1151.45 1448.67 1153.48 1448.67 Q1158.85 1448.67 1162.05 1451.35 Q1165.24 1454.04 1165.24 1458.53 Q1165.24 1460.66 1164.43 1462.58 Q1163.65 1464.48 1161.54 1467.07 Q1160.96 1467.74 1157.86 1470.96 Q1154.76 1474.15 1149.11 1479.92 Z" fill="#000000" fill-rule="evenodd" fill-opacity="1" /><path clip-path="url(#clip660)" d="M 0 0 M1185.24 1452.37 Q1181.63 1452.37 1179.8 1455.94 Q1178 1459.48 1178 1466.61 Q1178 1473.71 1179.8 1477.28 Q1181.63 1480.82 1185.24 1480.82 Q1188.88 1480.82 1190.68 1477.28 Q1192.51 1473.71 1192.51 1466.61 Q1192.51 1459.48 1190.68 1455.94 Q1188.88 1452.37 1185.24 1452.37 M1185.24 1448.67 Q1191.05 1448.67 1194.11 1453.27 Q1197.19 1457.86 1197.19 1466.61 Q1197.19 1475.33 1194.11 1479.94 Q1191.05 1484.52 1185.24 1484.52 Q1179.43 1484.52 1176.35 1479.94 Q1173.3 1475.33 1173.3 1466.61 Q1173.3 1457.86 1176.35 1453.27 Q1179.43 1448.67 1185.24 1448.67 Z" fill="#000000" fill-rule="evenodd" fill-opacity="1" /><path clip-path="url(#clip660)" d="M 0 0 M1535.78 1465.22 Q1539.14 1465.94 1541.01 1468.2 Q1542.91 1470.47 1542.91 1473.81 Q1542.91 1478.92 1539.39 1481.72 Q1535.87 1484.52 1529.39 1484.52 Q1527.22 1484.52 1524.9 1484.08 Q1522.61 1483.67 1520.16 1482.81 L1520.16 1478.3 Q1522.1 1479.43 1524.42 1480.01 Q1526.73 1480.59 1529.25 1480.59 Q1533.65 1480.59 1535.94 1478.85 Q1538.26 1477.12 1538.26 1473.81 Q1538.26 1470.75 1536.11 1469.04 Q1533.98 1467.3 1530.16 1467.3 L1526.13 1467.3 L1526.13 1463.46 L1530.34 1463.46 Q1533.79 1463.46 1535.62 1462.09 Q1537.45 1460.7 1537.45 1458.11 Q1537.45 1455.45 1535.55 1454.04 Q1533.67 1452.6 1530.16 1452.6 Q1528.23 1452.6 1526.04 1453.02 Q1523.84 1453.44 1521.2 1454.31 L1521.2 1450.15 Q1523.86 1449.41 1526.17 1449.04 Q1528.51 1448.67 1530.57 1448.67 Q1535.9 1448.67 1539 1451.1 Q1542.1 1453.5 1542.1 1457.63 Q1542.1 1460.5 1540.46 1462.49 Q1538.81 1464.45 1535.78 1465.22 Z" fill="#000000" fill-rule="evenodd" fill-opacity="1" /><path clip-path="url(#clip660)" d="M 0 0 M1561.78 1452.37 Q1558.17 1452.37 1556.34 1455.94 Q1554.53 1459.48 1554.53 1466.61 Q1554.53 1473.71 1556.34 1477.28 Q1558.17 1480.82 1561.78 1480.82 Q1565.41 1480.82 1567.22 1477.28 Q1569.04 1473.71 1569.04 1466.61 Q1569.04 1459.48 1567.22 1455.94 Q1565.41 1452.37 1561.78 1452.37 M1561.78 1448.67 Q1567.59 1448.67 1570.64 1453.27 Q1573.72 1457.86 1573.72 1466.61 Q1573.72 1475.33 1570.64 1479.94 Q1567.59 1484.52 1561.78 1484.52 Q1555.97 1484.52 1552.89 1479.94 Q1549.83 1475.33 1549.83 1466.61 Q1549.83 1457.86 1552.89 1453.27 Q1555.97 1448.67 1561.78 1448.67 Z" fill="#000000" fill-rule="evenodd" fill-opacity="1" /><path clip-path="url(#clip660)" d="M 0 0 M1911.71 1453.37 L1899.91 1471.81 L1911.71 1471.81 L1911.71 1453.37 M1910.49 1449.29 L1916.37 1449.29 L1916.37 1471.81 L1921.3 1471.81 L1921.3 1475.7 L1916.37 1475.7 L1916.37 1483.85 L1911.71 1483.85 L1911.71 1475.7 L1896.11 1475.7 L1896.11 1471.19 L1910.49 1449.29 Z" fill="#000000" fill-rule="evenodd" fill-opacity="1" /><path clip-path="url(#clip660)" d="M 0 0 M1939.03 1452.37 Q1935.42 1452.37 1933.59 1455.94 Q1931.78 1459.48 1931.78 1466.61 Q1931.78 1473.71 1933.59 1477.28 Q1935.42 1480.82 1939.03 1480.82 Q1942.66 1480.82 1944.47 1477.28 Q1946.3 1473.71 1946.3 1466.61 Q1946.3 1459.48 1944.47 1455.94 Q1942.66 1452.37 1939.03 1452.37 M1939.03 1448.67 Q1944.84 1448.67 1947.89 1453.27 Q1950.97 1457.86 1950.97 1466.61 Q1950.97 1475.33 1947.89 1479.94 Q1944.84 1484.52 1939.03 1484.52 Q1933.22 1484.52 1930.14 1479.94 Q1927.08 1475.33 1927.08 1466.61 Q1927.08 1457.86 1930.14 1453.27 Q1933.22 1448.67 1939.03 1448.67 Z" fill="#000000" fill-rule="evenodd" fill-opacity="1" /><path clip-path="url(#clip660)" d="M 0 0 M2274.84 1449.29 L2293.2 1449.29 L2293.2 1453.23 L2279.13 1453.23 L2279.13 1461.7 Q2280.14 1461.35 2281.16 1461.19 Q2282.18 1461 2283.2 1461 Q2288.99 1461 2292.37 1464.18 Q2295.75 1467.35 2295.75 1472.76 Q2295.75 1478.34 2292.27 1481.44 Q2288.8 1484.52 2282.48 1484.52 Q2280.31 1484.52 2278.04 1484.15 Q2275.79 1483.78 2273.39 1483.04 L2273.39 1478.34 Q2275.47 1479.48 2277.69 1480.03 Q2279.91 1480.59 2282.39 1480.59 Q2286.39 1480.59 2288.73 1478.48 Q2291.07 1476.38 2291.07 1472.76 Q2291.07 1469.15 2288.73 1467.05 Q2286.39 1464.94 2282.39 1464.94 Q2280.51 1464.94 2278.64 1465.36 Q2276.79 1465.77 2274.84 1466.65 L2274.84 1449.29 Z" fill="#000000" fill-rule="evenodd" fill-opacity="1" /><path clip-path="url(#clip660)" d="M 0 0 M2314.96 1452.37 Q2311.35 1452.37 2309.52 1455.94 Q2307.71 1459.48 2307.71 1466.61 Q2307.71 1473.71 2309.52 1477.28 Q2311.35 1480.82 2314.96 1480.82 Q2318.59 1480.82 2320.4 1477.28 Q2322.23 1473.71 2322.23 1466.61 Q2322.23 1459.48 2320.4 1455.94 Q2318.59 1452.37 2314.96 1452.37 M2314.96 1448.67 Q2320.77 1448.67 2323.82 1453.27 Q2326.9 1457.86 2326.9 1466.61 Q2326.9 1475.33 2323.82 1479.94 Q2320.77 1484.52 2314.96 1484.52 Q2309.15 1484.52 2306.07 1479.94 Q2303.01 1475.33 2303.01 1466.61 Q2303.01 1457.86 2306.07 1453.27 Q2309.15 1448.67 2314.96 1448.67 Z" fill="#000000" fill-rule="evenodd" fill-opacity="1" /><path clip-path="url(#clip660)" d="M 0 0 M1116.86 1518.52 L1116.86 1523.39 L1111.26 1523.39 Q1108.11 1523.39 1106.87 1524.66 Q1105.66 1525.93 1105.66 1529.24 L1105.66 1532.4 L1115.3 1532.4 L1115.3 1536.95 L1105.66 1536.95 L1105.66 1568.04 L1099.77 1568.04 L1099.77 1536.95 L1094.17 1536.95 L1094.17 1532.4 L1099.77 1532.4 L1099.77 1529.91 Q1099.77 1523.96 1102.54 1521.26 Q1105.31 1518.52 1111.32 1518.52 L1116.86 1518.52 Z" fill="#000000" fill-rule="evenodd" fill-opacity="1" /><path clip-path="url(#clip660)" d="M 0 0 M1142.42 1537.87 Q1141.43 1537.3 1140.26 1537.04 Q1139.11 1536.76 1137.71 1536.76 Q1132.74 1536.76 1130.07 1540 Q1127.43 1543.22 1127.43 1549.27 L1127.43 1568.04 L1121.54 1568.04 L1121.54 1532.4 L1127.43 1532.4 L1127.43 1537.93 Q1129.28 1534.69 1132.24 1533.13 Q1135.2 1531.54 1139.43 1531.54 Q1140.03 1531.54 1140.77 1531.63 Q1141.5 1531.7 1142.39 1531.85 L1142.42 1537.87 Z" fill="#000000" fill-rule="evenodd" fill-opacity="1" /><path clip-path="url(#clip660)" d="M 0 0 M1177.62 1548.76 L1177.62 1551.62 L1150.7 1551.62 Q1151.08 1557.67 1154.32 1560.85 Q1157.6 1564 1163.43 1564 Q1166.8 1564 1169.95 1563.17 Q1173.14 1562.35 1176.25 1560.69 L1176.25 1566.23 Q1173.1 1567.57 1169.79 1568.27 Q1166.48 1568.97 1163.08 1568.97 Q1154.55 1568.97 1149.55 1564 Q1144.59 1559.04 1144.59 1550.57 Q1144.59 1541.82 1149.3 1536.69 Q1154.04 1531.54 1162.06 1531.54 Q1169.25 1531.54 1173.42 1536.18 Q1177.62 1540.8 1177.62 1548.76 M1171.77 1547.04 Q1171.7 1542.23 1169.06 1539.37 Q1166.45 1536.5 1162.12 1536.5 Q1157.22 1536.5 1154.26 1539.27 Q1151.33 1542.04 1150.89 1547.07 L1171.77 1547.04 Z" fill="#000000" fill-rule="evenodd" fill-opacity="1" /><path clip-path="url(#clip660)" d="M 0 0 M1190.74 1550.25 Q1190.74 1556.71 1193.38 1560.4 Q1196.05 1564.07 1200.7 1564.07 Q1205.35 1564.07 1208.02 1560.4 Q1210.69 1556.71 1210.69 1550.25 Q1210.69 1543.79 1208.02 1540.13 Q1205.35 1536.44 1200.7 1536.44 Q1196.05 1536.44 1193.38 1540.13 Q1190.74 1543.79 1190.74 1550.25 M1210.69 1562.7 Q1208.85 1565.88 1206.01 1567.44 Q1203.21 1568.97 1199.27 1568.97 Q1192.81 1568.97 1188.73 1563.81 Q1184.69 1558.65 1184.69 1550.25 Q1184.69 1541.85 1188.73 1536.69 Q1192.81 1531.54 1199.27 1531.54 Q1203.21 1531.54 1206.01 1533.1 Q1208.85 1534.62 1210.69 1537.81 L1210.69 1532.4 L1216.55 1532.4 L1216.55 1581.6 L1210.69 1581.6 L1210.69 1562.7 Z" fill="#000000" fill-rule="evenodd" fill-opacity="1" /><path clip-path="url(#clip660)" d="M 0 0 M1228.01 1553.98 L1228.01 1532.4 L1233.86 1532.4 L1233.86 1553.75 Q1233.86 1558.81 1235.84 1561.36 Q1237.81 1563.87 1241.76 1563.87 Q1246.5 1563.87 1249.24 1560.85 Q1252.01 1557.83 1252.01 1552.61 L1252.01 1532.4 L1257.86 1532.4 L1257.86 1568.04 L1252.01 1568.04 L1252.01 1562.57 Q1249.87 1565.82 1247.04 1567.41 Q1244.24 1568.97 1240.52 1568.97 Q1234.37 1568.97 1231.19 1565.15 Q1228.01 1561.33 1228.01 1553.98 M1242.74 1531.54 L1242.74 1531.54 Z" fill="#000000" fill-rule="evenodd" fill-opacity="1" /><path clip-path="url(#clip660)" d="M 0 0 M1300.42 1548.76 L1300.42 1551.62 L1273.49 1551.62 Q1273.87 1557.67 1277.12 1560.85 Q1280.4 1564 1286.22 1564 Q1289.6 1564 1292.75 1563.17 Q1295.93 1562.35 1299.05 1560.69 L1299.05 1566.23 Q1295.9 1567.57 1292.59 1568.27 Q1289.28 1568.97 1285.87 1568.97 Q1277.34 1568.97 1272.34 1564 Q1267.38 1559.04 1267.38 1550.57 Q1267.38 1541.82 1272.09 1536.69 Q1276.83 1531.54 1284.85 1531.54 Q1292.05 1531.54 1296.22 1536.18 Q1300.42 1540.8 1300.42 1548.76 M1294.56 1547.04 Q1294.5 1542.23 1291.86 1539.37 Q1289.25 1536.5 1284.92 1536.5 Q1280.02 1536.5 1277.06 1539.27 Q1274.13 1542.04 1273.68 1547.07 L1294.56 1547.04 Z" fill="#000000" fill-rule="evenodd" fill-opacity="1" /><path clip-path="url(#clip660)" d="M 0 0 M1339.66 1546.53 L1339.66 1568.04 L1333.81 1568.04 L1333.81 1546.72 Q1333.81 1541.66 1331.83 1539.14 Q1329.86 1536.63 1325.91 1536.63 Q1321.17 1536.63 1318.43 1539.65 Q1315.7 1542.68 1315.7 1547.9 L1315.7 1568.04 L1309.81 1568.04 L1309.81 1532.4 L1315.7 1532.4 L1315.7 1537.93 Q1317.8 1534.72 1320.63 1533.13 Q1323.49 1531.54 1327.22 1531.54 Q1333.36 1531.54 1336.51 1535.36 Q1339.66 1539.14 1339.66 1546.53 Z" fill="#000000" fill-rule="evenodd" fill-opacity="1" /><path clip-path="url(#clip660)" d="M 0 0 M1377 1533.76 L1377 1539.24 Q1374.51 1537.87 1372 1537.2 Q1369.52 1536.5 1366.97 1536.5 Q1361.27 1536.5 1358.12 1540.13 Q1354.97 1543.73 1354.97 1550.25 Q1354.97 1556.78 1358.12 1560.4 Q1361.27 1564 1366.97 1564 Q1369.52 1564 1372 1563.33 Q1374.51 1562.63 1377 1561.26 L1377 1566.68 Q1374.55 1567.82 1371.9 1568.39 Q1369.29 1568.97 1366.33 1568.97 Q1358.28 1568.97 1353.54 1563.91 Q1348.8 1558.85 1348.8 1550.25 Q1348.8 1541.53 1353.57 1536.53 Q1358.38 1531.54 1366.72 1531.54 Q1369.42 1531.54 1372 1532.11 Q1374.58 1532.65 1377 1533.76 Z" fill="#000000" fill-rule="evenodd" fill-opacity="1" /><path clip-path="url(#clip660)" d="M 0 0 M1402.01 1571.35 Q1399.53 1577.72 1397.18 1579.66 Q1394.82 1581.6 1390.87 1581.6 L1386.2 1581.6 L1386.2 1576.7 L1389.63 1576.7 Q1392.05 1576.7 1393.39 1575.56 Q1394.73 1574.41 1396.35 1570.14 L1397.4 1567.47 L1382.98 1532.4 L1389.19 1532.4 L1400.33 1560.28 L1411.47 1532.4 L1417.67 1532.4 L1402.01 1571.35 Z" fill="#000000" fill-rule="evenodd" fill-opacity="1" /><path clip-path="url(#clip660)" d="M 0 0 M1460.55 1518.58 Q1456.28 1525.9 1454.21 1533.06 Q1452.14 1540.23 1452.14 1547.58 Q1452.14 1554.93 1454.21 1562.16 Q1456.31 1569.35 1460.55 1576.64 L1455.45 1576.64 Q1450.68 1569.16 1448.29 1561.93 Q1445.94 1554.71 1445.94 1547.58 Q1445.94 1540.48 1448.29 1533.29 Q1450.65 1526.09 1455.45 1518.58 L1460.55 1518.58 Z" fill="#000000" fill-rule="evenodd" fill-opacity="1" /><path clip-path="url(#clip660)" d="M 0 0 M1504.57 1561.26 L1504.57 1548.5 L1494.06 1548.5 L1494.06 1543.22 L1510.93 1543.22 L1510.93 1563.62 Q1507.21 1566.26 1502.72 1567.63 Q1498.23 1568.97 1493.14 1568.97 Q1482 1568.97 1475.7 1562.47 Q1469.43 1555.95 1469.43 1544.33 Q1469.43 1532.68 1475.7 1526.19 Q1482 1519.66 1493.14 1519.66 Q1497.79 1519.66 1501.96 1520.81 Q1506.16 1521.96 1509.69 1524.18 L1509.69 1531.03 Q1506.13 1528 1502.11 1526.48 Q1498.1 1524.95 1493.68 1524.95 Q1484.96 1524.95 1480.57 1529.82 Q1476.21 1534.69 1476.21 1544.33 Q1476.21 1553.94 1480.57 1558.81 Q1484.96 1563.68 1493.68 1563.68 Q1497.09 1563.68 1499.76 1563.11 Q1502.43 1562.51 1504.57 1561.26 Z" fill="#000000" fill-rule="evenodd" fill-opacity="1" /><path clip-path="url(#clip660)" d="M 0 0 M1522.68 1520.52 L1529.11 1520.52 L1529.11 1540 L1552.47 1540 L1552.47 1520.52 L1558.9 1520.52 L1558.9 1568.04 L1552.47 1568.04 L1552.47 1545.41 L1529.11 1545.41 L1529.11 1568.04 L1522.68 1568.04 L1522.68 1520.52 Z" fill="#000000" fill-rule="evenodd" fill-opacity="1" /><path clip-path="url(#clip660)" d="M 0 0 M1568.89 1532.4 L1596.71 1532.4 L1596.71 1537.74 L1574.68 1563.37 L1596.71 1563.37 L1596.71 1568.04 L1568.1 1568.04 L1568.1 1562.7 L1590.12 1537.07 L1568.89 1537.07 L1568.89 1532.4 Z" fill="#000000" fill-rule="evenodd" fill-opacity="1" /><path clip-path="url(#clip660)" d="M 0 0 M1604.73 1518.58 L1609.82 1518.58 Q1614.6 1526.09 1616.95 1533.29 Q1619.34 1540.48 1619.34 1547.58 Q1619.34 1554.71 1616.95 1561.93 Q1614.6 1569.16 1609.82 1576.64 L1604.73 1576.64 Q1608.96 1569.35 1611.03 1562.16 Q1613.13 1554.93 1613.13 1547.58 Q1613.13 1540.23 1611.03 1533.06 Q1608.96 1525.9 1604.73 1518.58 Z" fill="#000000" fill-rule="evenodd" fill-opacity="1" /><polyline clip-path="url(#clip662)" style="stroke:#000000; stroke-width:2; stroke-opacity:0.1; fill:none" points="
  360.752,1270.37 2352.76,1270.37 
  "/>
<polyline clip-path="url(#clip662)" style="stroke:#000000; stroke-width:2; stroke-opacity:0.1; fill:none" points="
  360.752,888.334 2352.76,888.334 
  "/>
<polyline clip-path="url(#clip662)" style="stroke:#000000; stroke-width:2; stroke-opacity:0.1; fill:none" points="
  360.752,506.301 2352.76,506.301 
  "/>
<polyline clip-path="url(#clip662)" style="stroke:#000000; stroke-width:2; stroke-opacity:0.1; fill:none" points="
  360.752,124.269 2352.76,124.269 
  "/>
<polyline clip-path="url(#clip660)" style="stroke:#000000; stroke-width:4; stroke-opacity:1; fill:none" points="
  360.752,1423.18 360.752,123.472 
  "/>
<polyline clip-path="url(#clip660)" style="stroke:#000000; stroke-width:4; stroke-opacity:1; fill:none" points="
  360.752,1270.37 384.656,1270.37 
  "/>
<polyline clip-path="url(#clip660)" style="stroke:#000000; stroke-width:4; stroke-opacity:1; fill:none" points="
  360.752,888.334 384.656,888.334 
  "/>
<polyline clip-path="url(#clip660)" style="stroke:#000000; stroke-width:4; stroke-opacity:1; fill:none" points="
  360.752,506.301 384.656,506.301 
  "/>
<polyline clip-path="url(#clip660)" style="stroke:#000000; stroke-width:4; stroke-opacity:1; fill:none" points="
  360.752,124.269 384.656,124.269 
  "/>
<path clip-path="url(#clip660)" d="M 0 0 M312.808 1256.17 Q309.197 1256.17 307.368 1259.73 Q305.563 1263.27 305.563 1270.4 Q305.563 1277.51 307.368 1281.07 Q309.197 1284.61 312.808 1284.61 Q316.442 1284.61 318.248 1281.07 Q320.076 1277.51 320.076 1270.4 Q320.076 1263.27 318.248 1259.73 Q316.442 1256.17 312.808 1256.17 M312.808 1252.46 Q318.618 1252.46 321.674 1257.07 Q324.752 1261.65 324.752 1270.4 Q324.752 1279.13 321.674 1283.73 Q318.618 1288.32 312.808 1288.32 Q306.998 1288.32 303.919 1283.73 Q300.863 1279.13 300.863 1270.4 Q300.863 1261.65 303.919 1257.07 Q306.998 1252.46 312.808 1252.46 Z" fill="#000000" fill-rule="evenodd" fill-opacity="1" /><path clip-path="url(#clip660)" d="M 0 0 M56.6171 908.127 L72.9365 908.127 L72.9365 912.062 L50.9921 912.062 L50.9921 908.127 Q53.6541 905.372 58.2375 900.742 Q62.8439 896.09 64.0245 894.747 Q66.2698 892.224 67.1494 890.488 Q68.0522 888.728 68.0522 887.039 Q68.0522 884.284 66.1078 882.548 Q64.1865 880.812 61.0847 880.812 Q58.8856 880.812 56.4319 881.576 Q54.0014 882.34 51.2236 883.891 L51.2236 879.168 Q54.0477 878.034 56.5014 877.455 Q58.955 876.877 60.9921 876.877 Q66.3624 876.877 69.5568 879.562 Q72.7513 882.247 72.7513 886.738 Q72.7513 888.867 71.9411 890.789 Q71.1541 892.687 69.0476 895.279 Q68.4689 895.951 65.367 899.168 Q62.2652 902.363 56.6171 908.127 Z" fill="#000000" fill-rule="evenodd" fill-opacity="1" /><path clip-path="url(#clip660)" d="M 0 0 M82.7512 906.182 L87.6354 906.182 L87.6354 912.062 L82.7512 912.062 L82.7512 906.182 Z" fill="#000000" fill-rule="evenodd" fill-opacity="1" /><path clip-path="url(#clip660)" d="M 0 0 M97.8669 877.502 L116.223 877.502 L116.223 881.437 L102.149 881.437 L102.149 889.909 Q103.168 889.562 104.186 889.4 Q105.205 889.215 106.223 889.215 Q112.01 889.215 115.39 892.386 Q118.77 895.557 118.77 900.974 Q118.77 906.552 115.297 909.654 Q111.825 912.733 105.506 912.733 Q103.33 912.733 101.061 912.363 Q98.8159 911.992 96.4085 911.252 L96.4085 906.552 Q98.4919 907.687 100.714 908.242 Q102.936 908.798 105.413 908.798 Q109.418 908.798 111.756 906.691 Q114.094 904.585 114.094 900.974 Q114.094 897.363 111.756 895.256 Q109.418 893.15 105.413 893.15 Q103.538 893.15 101.663 893.566 Q99.8113 893.983 97.8669 894.863 L97.8669 877.502 Z" fill="#000000" fill-rule="evenodd" fill-opacity="1" /><path clip-path="url(#clip660)" d="M 0 0 M137.982 880.58 Q134.371 880.58 132.543 884.145 Q130.737 887.687 130.737 894.816 Q130.737 901.923 132.543 905.488 Q134.371 909.029 137.982 909.029 Q141.617 909.029 143.422 905.488 Q145.251 901.923 145.251 894.816 Q145.251 887.687 143.422 884.145 Q141.617 880.58 137.982 880.58 M137.982 876.877 Q143.793 876.877 146.848 881.483 Q149.927 886.066 149.927 894.816 Q149.927 903.543 146.848 908.15 Q143.793 912.733 137.982 912.733 Q132.172 912.733 129.094 908.15 Q126.038 903.543 126.038 894.816 Q126.038 886.066 129.094 881.483 Q132.172 876.877 137.982 876.877 Z" fill="#000000" fill-rule="evenodd" fill-opacity="1" /><path clip-path="url(#clip660)" d="M 0 0 M186.315 886.599 L175.737 897.224 L186.315 907.802 L183.561 910.603 L172.936 899.978 L162.311 910.603 L159.58 907.802 L170.135 897.224 L159.58 886.599 L162.311 883.798 L172.936 894.423 L183.561 883.798 L186.315 886.599 Z" fill="#000000" fill-rule="evenodd" fill-opacity="1" /><path clip-path="url(#clip660)" d="M 0 0 M198.677 908.127 L206.315 908.127 L206.315 881.761 L198.005 883.428 L198.005 879.168 L206.269 877.502 L210.945 877.502 L210.945 908.127 L218.584 908.127 L218.584 912.062 L198.677 912.062 L198.677 908.127 Z" fill="#000000" fill-rule="evenodd" fill-opacity="1" /><path clip-path="url(#clip660)" d="M 0 0 M238.028 880.58 Q234.417 880.58 232.588 884.145 Q230.783 887.687 230.783 894.816 Q230.783 901.923 232.588 905.488 Q234.417 909.029 238.028 909.029 Q241.662 909.029 243.468 905.488 Q245.297 901.923 245.297 894.816 Q245.297 887.687 243.468 884.145 Q241.662 880.58 238.028 880.58 M238.028 876.877 Q243.838 876.877 246.894 881.483 Q249.973 886.066 249.973 894.816 Q249.973 903.543 246.894 908.15 Q243.838 912.733 238.028 912.733 Q232.218 912.733 229.139 908.15 Q226.084 903.543 226.084 894.816 Q226.084 886.066 229.139 881.483 Q232.218 876.877 238.028 876.877 Z" fill="#000000" fill-rule="evenodd" fill-opacity="1" /><path clip-path="url(#clip660)" d="M 0 0 M249.973 870.978 L274.084 870.978 L274.084 874.175 L249.973 874.175 L249.973 870.978 Z" fill="#000000" fill-rule="evenodd" fill-opacity="1" /><path clip-path="url(#clip660)" d="M 0 0 M282.943 881.454 L289.149 881.454 L289.149 860.032 L282.397 861.386 L282.397 857.925 L289.112 856.571 L292.911 856.571 L292.911 881.454 L299.117 881.454 L299.117 884.651 L282.943 884.651 L282.943 881.454 Z" fill="#000000" fill-rule="evenodd" fill-opacity="1" /><path clip-path="url(#clip660)" d="M 0 0 M315.386 869.097 Q312.828 869.097 311.323 870.846 Q309.838 872.596 309.838 875.642 Q309.838 878.67 311.323 880.438 Q312.828 882.187 315.386 882.187 Q317.944 882.187 319.43 880.438 Q320.934 878.67 320.934 875.642 Q320.934 872.596 319.43 870.846 Q317.944 869.097 315.386 869.097 M322.928 857.192 L322.928 860.653 Q321.498 859.976 320.031 859.618 Q318.583 859.261 317.154 859.261 Q313.392 859.261 311.399 861.8 Q309.424 864.339 309.142 869.473 Q310.251 867.837 311.925 866.972 Q313.599 866.088 315.612 866.088 Q319.843 866.088 322.288 868.665 Q324.752 871.223 324.752 875.642 Q324.752 879.968 322.194 882.582 Q319.637 885.197 315.386 885.197 Q310.515 885.197 307.938 881.473 Q305.361 877.73 305.361 870.64 Q305.361 863.982 308.521 860.032 Q311.681 856.063 317.003 856.063 Q318.433 856.063 319.881 856.346 Q321.348 856.628 322.928 857.192 Z" fill="#000000" fill-rule="evenodd" fill-opacity="1" /><path clip-path="url(#clip660)" d="M 0 0 M52.6356 495.469 L70.992 495.469 L70.992 499.404 L56.918 499.404 L56.918 507.876 Q57.9365 507.529 58.955 507.367 Q59.9736 507.182 60.9921 507.182 Q66.7791 507.182 70.1587 510.353 Q73.5383 513.524 73.5383 518.941 Q73.5383 524.52 70.0661 527.622 Q66.5939 530.7 60.2745 530.7 Q58.0986 530.7 55.8301 530.33 Q53.5847 529.96 51.1773 529.219 L51.1773 524.52 Q53.2606 525.654 55.4828 526.21 Q57.7051 526.765 60.1819 526.765 Q64.1865 526.765 66.5245 524.659 Q68.8624 522.552 68.8624 518.941 Q68.8624 515.33 66.5245 513.224 Q64.1865 511.117 60.1819 511.117 Q58.3069 511.117 56.4319 511.534 Q54.5801 511.95 52.6356 512.83 L52.6356 495.469 Z" fill="#000000" fill-rule="evenodd" fill-opacity="1" /><path clip-path="url(#clip660)" d="M 0 0 M82.7512 524.149 L87.6354 524.149 L87.6354 530.029 L82.7512 530.029 L82.7512 524.149 Z" fill="#000000" fill-rule="evenodd" fill-opacity="1" /><path clip-path="url(#clip660)" d="M 0 0 M107.821 498.548 Q104.209 498.548 102.381 502.113 Q100.575 505.654 100.575 512.784 Q100.575 519.89 102.381 523.455 Q104.209 526.997 107.821 526.997 Q111.455 526.997 113.26 523.455 Q115.089 519.89 115.089 512.784 Q115.089 505.654 113.26 502.113 Q111.455 498.548 107.821 498.548 M107.821 494.844 Q113.631 494.844 116.686 499.45 Q119.765 504.034 119.765 512.784 Q119.765 521.511 116.686 526.117 Q113.631 530.7 107.821 530.7 Q102.01 530.7 98.9317 526.117 Q95.8761 521.511 95.8761 512.784 Q95.8761 504.034 98.9317 499.45 Q102.01 494.844 107.821 494.844 Z" fill="#000000" fill-rule="evenodd" fill-opacity="1" /><path clip-path="url(#clip660)" d="M 0 0 M137.982 498.548 Q134.371 498.548 132.543 502.113 Q130.737 505.654 130.737 512.784 Q130.737 519.89 132.543 523.455 Q134.371 526.997 137.982 526.997 Q141.617 526.997 143.422 523.455 Q145.251 519.89 145.251 512.784 Q145.251 505.654 143.422 502.113 Q141.617 498.548 137.982 498.548 M137.982 494.844 Q143.793 494.844 146.848 499.45 Q149.927 504.034 149.927 512.784 Q149.927 521.511 146.848 526.117 Q143.793 530.7 137.982 530.7 Q132.172 530.7 129.094 526.117 Q126.038 521.511 126.038 512.784 Q126.038 504.034 129.094 499.45 Q132.172 494.844 137.982 494.844 Z" fill="#000000" fill-rule="evenodd" fill-opacity="1" /><path clip-path="url(#clip660)" d="M 0 0 M186.315 504.566 L175.737 515.191 L186.315 525.77 L183.561 528.571 L172.936 517.946 L162.311 528.571 L159.58 525.77 L170.135 515.191 L159.58 504.566 L162.311 501.765 L172.936 512.39 L183.561 501.765 L186.315 504.566 Z" fill="#000000" fill-rule="evenodd" fill-opacity="1" /><path clip-path="url(#clip660)" d="M 0 0 M198.677 526.094 L206.315 526.094 L206.315 499.728 L198.005 501.395 L198.005 497.136 L206.269 495.469 L210.945 495.469 L210.945 526.094 L218.584 526.094 L218.584 530.029 L198.677 530.029 L198.677 526.094 Z" fill="#000000" fill-rule="evenodd" fill-opacity="1" /><path clip-path="url(#clip660)" d="M 0 0 M238.028 498.548 Q234.417 498.548 232.588 502.113 Q230.783 505.654 230.783 512.784 Q230.783 519.89 232.588 523.455 Q234.417 526.997 238.028 526.997 Q241.662 526.997 243.468 523.455 Q245.297 519.89 245.297 512.784 Q245.297 505.654 243.468 502.113 Q241.662 498.548 238.028 498.548 M238.028 494.844 Q243.838 494.844 246.894 499.45 Q249.973 504.034 249.973 512.784 Q249.973 521.511 246.894 526.117 Q243.838 530.7 238.028 530.7 Q232.218 530.7 229.139 526.117 Q226.084 521.511 226.084 512.784 Q226.084 504.034 229.139 499.45 Q232.218 494.844 238.028 494.844 Z" fill="#000000" fill-rule="evenodd" fill-opacity="1" /><path clip-path="url(#clip660)" d="M 0 0 M249.973 488.945 L274.084 488.945 L274.084 492.143 L249.973 492.143 L249.973 488.945 Z" fill="#000000" fill-rule="evenodd" fill-opacity="1" /><path clip-path="url(#clip660)" d="M 0 0 M282.943 499.421 L289.149 499.421 L289.149 477.999 L282.397 479.353 L282.397 475.893 L289.112 474.539 L292.911 474.539 L292.911 499.421 L299.117 499.421 L299.117 502.619 L282.943 502.619 L282.943 499.421 Z" fill="#000000" fill-rule="evenodd" fill-opacity="1" /><path clip-path="url(#clip660)" d="M 0 0 M315.386 487.065 Q312.828 487.065 311.323 488.814 Q309.838 490.563 309.838 493.61 Q309.838 496.638 311.323 498.406 Q312.828 500.155 315.386 500.155 Q317.944 500.155 319.43 498.406 Q320.934 496.638 320.934 493.61 Q320.934 490.563 319.43 488.814 Q317.944 487.065 315.386 487.065 M322.928 475.159 L322.928 478.62 Q321.498 477.943 320.031 477.585 Q318.583 477.228 317.154 477.228 Q313.392 477.228 311.399 479.767 Q309.424 482.306 309.142 487.441 Q310.251 485.804 311.925 484.939 Q313.599 484.055 315.612 484.055 Q319.843 484.055 322.288 486.632 Q324.752 489.19 324.752 493.61 Q324.752 497.935 322.194 500.55 Q319.637 503.164 315.386 503.164 Q310.515 503.164 307.938 499.44 Q305.361 495.697 305.361 488.607 Q305.361 481.949 308.521 477.999 Q311.681 474.031 317.003 474.031 Q318.433 474.031 319.881 474.313 Q321.348 474.595 322.928 475.159 Z" fill="#000000" fill-rule="evenodd" fill-opacity="1" /><path clip-path="url(#clip660)" d="M 0 0 M51.4088 113.436 L73.6309 113.436 L73.6309 115.427 L61.0847 147.996 L56.2004 147.996 L68.0059 117.372 L51.4088 117.372 L51.4088 113.436 Z" fill="#000000" fill-rule="evenodd" fill-opacity="1" /><path clip-path="url(#clip660)" d="M 0 0 M82.7512 142.117 L87.6354 142.117 L87.6354 147.996 L82.7512 147.996 L82.7512 142.117 Z" fill="#000000" fill-rule="evenodd" fill-opacity="1" /><path clip-path="url(#clip660)" d="M 0 0 M97.8669 113.436 L116.223 113.436 L116.223 117.372 L102.149 117.372 L102.149 125.844 Q103.168 125.496 104.186 125.334 Q105.205 125.149 106.223 125.149 Q112.01 125.149 115.39 128.321 Q118.77 131.492 118.77 136.908 Q118.77 142.487 115.297 145.589 Q111.825 148.668 105.506 148.668 Q103.33 148.668 101.061 148.297 Q98.8159 147.927 96.4085 147.186 L96.4085 142.487 Q98.4919 143.621 100.714 144.177 Q102.936 144.732 105.413 144.732 Q109.418 144.732 111.756 142.626 Q114.094 140.52 114.094 136.908 Q114.094 133.297 111.756 131.191 Q109.418 129.084 105.413 129.084 Q103.538 129.084 101.663 129.501 Q99.8113 129.918 97.8669 130.797 L97.8669 113.436 Z" fill="#000000" fill-rule="evenodd" fill-opacity="1" /><path clip-path="url(#clip660)" d="M 0 0 M137.982 116.515 Q134.371 116.515 132.543 120.08 Q130.737 123.621 130.737 130.751 Q130.737 137.858 132.543 141.422 Q134.371 144.964 137.982 144.964 Q141.617 144.964 143.422 141.422 Q145.251 137.858 145.251 130.751 Q145.251 123.621 143.422 120.08 Q141.617 116.515 137.982 116.515 M137.982 112.811 Q143.793 112.811 146.848 117.418 Q149.927 122.001 149.927 130.751 Q149.927 139.478 146.848 144.084 Q143.793 148.668 137.982 148.668 Q132.172 148.668 129.094 144.084 Q126.038 139.478 126.038 130.751 Q126.038 122.001 129.094 117.418 Q132.172 112.811 137.982 112.811 Z" fill="#000000" fill-rule="evenodd" fill-opacity="1" /><path clip-path="url(#clip660)" d="M 0 0 M186.315 122.534 L175.737 133.158 L186.315 143.737 L183.561 146.538 L172.936 135.913 L162.311 146.538 L159.58 143.737 L170.135 133.158 L159.58 122.534 L162.311 119.733 L172.936 130.358 L183.561 119.733 L186.315 122.534 Z" fill="#000000" fill-rule="evenodd" fill-opacity="1" /><path clip-path="url(#clip660)" d="M 0 0 M198.677 144.061 L206.315 144.061 L206.315 117.696 L198.005 119.362 L198.005 115.103 L206.269 113.436 L210.945 113.436 L210.945 144.061 L218.584 144.061 L218.584 147.996 L198.677 147.996 L198.677 144.061 Z" fill="#000000" fill-rule="evenodd" fill-opacity="1" /><path clip-path="url(#clip660)" d="M 0 0 M238.028 116.515 Q234.417 116.515 232.588 120.08 Q230.783 123.621 230.783 130.751 Q230.783 137.858 232.588 141.422 Q234.417 144.964 238.028 144.964 Q241.662 144.964 243.468 141.422 Q245.297 137.858 245.297 130.751 Q245.297 123.621 243.468 120.08 Q241.662 116.515 238.028 116.515 M238.028 112.811 Q243.838 112.811 246.894 117.418 Q249.973 122.001 249.973 130.751 Q249.973 139.478 246.894 144.084 Q243.838 148.668 238.028 148.668 Q232.218 148.668 229.139 144.084 Q226.084 139.478 226.084 130.751 Q226.084 122.001 229.139 117.418 Q232.218 112.811 238.028 112.811 Z" fill="#000000" fill-rule="evenodd" fill-opacity="1" /><path clip-path="url(#clip660)" d="M 0 0 M249.973 106.913 L274.084 106.913 L274.084 110.11 L249.973 110.11 L249.973 106.913 Z" fill="#000000" fill-rule="evenodd" fill-opacity="1" /><path clip-path="url(#clip660)" d="M 0 0 M282.943 117.389 L289.149 117.389 L289.149 95.9666 L282.397 97.3207 L282.397 93.8601 L289.112 92.5059 L292.911 92.5059 L292.911 117.389 L299.117 117.389 L299.117 120.586 L282.943 120.586 L282.943 117.389 Z" fill="#000000" fill-rule="evenodd" fill-opacity="1" /><path clip-path="url(#clip660)" d="M 0 0 M315.386 105.032 Q312.828 105.032 311.323 106.781 Q309.838 108.53 309.838 111.577 Q309.838 114.605 311.323 116.373 Q312.828 118.122 315.386 118.122 Q317.944 118.122 319.43 116.373 Q320.934 114.605 320.934 111.577 Q320.934 108.53 319.43 106.781 Q317.944 105.032 315.386 105.032 M322.928 93.1266 L322.928 96.5872 Q321.498 95.9102 320.031 95.5528 Q318.583 95.1955 317.154 95.1955 Q313.392 95.1955 311.399 97.7345 Q309.424 100.274 309.142 105.408 Q310.251 103.772 311.925 102.907 Q313.599 102.023 315.612 102.023 Q319.843 102.023 322.288 104.599 Q324.752 107.157 324.752 111.577 Q324.752 115.903 322.194 118.517 Q319.637 121.131 315.386 121.131 Q310.515 121.131 307.938 117.407 Q305.361 113.665 305.361 106.574 Q305.361 99.9162 308.521 95.9666 Q311.681 91.9981 317.003 91.9981 Q318.433 91.9981 319.881 92.2803 Q321.348 92.5624 322.928 93.1266 Z" fill="#000000" fill-rule="evenodd" fill-opacity="1" /><path clip-path="url(#clip660)" d="M 0 0 M531.443 12.096 L566.2 12.096 L566.2 18.9825 L539.626 18.9825 L539.626 36.8065 L563.607 36.8065 L563.607 43.6931 L539.626 43.6931 L539.626 72.576 L531.443 72.576 L531.443 12.096 Z" fill="#000000" fill-rule="evenodd" fill-opacity="1" /><path clip-path="url(#clip660)" d="M 0 0 M593.462 32.4315 Q587.467 32.4315 583.983 37.1306 Q580.5 41.7891 580.5 49.9314 Q580.5 58.0738 583.943 62.7728 Q587.427 67.4314 593.462 67.4314 Q599.417 67.4314 602.901 62.7323 Q606.385 58.0333 606.385 49.9314 Q606.385 41.8701 602.901 37.1711 Q599.417 32.4315 593.462 32.4315 M593.462 26.1121 Q603.185 26.1121 608.734 32.4315 Q614.284 38.7509 614.284 49.9314 Q614.284 61.0714 608.734 67.4314 Q603.185 73.7508 593.462 73.7508 Q583.7 73.7508 578.15 67.4314 Q572.641 61.0714 572.641 49.9314 Q572.641 38.7509 578.15 32.4315 Q583.7 26.1121 593.462 26.1121 Z" fill="#000000" fill-rule="evenodd" fill-opacity="1" /><path clip-path="url(#clip660)" d="M 0 0 M625.87 54.671 L625.87 27.2059 L633.323 27.2059 L633.323 54.3874 Q633.323 60.8284 635.835 64.0691 Q638.346 67.2693 643.37 67.2693 Q649.405 67.2693 652.889 63.421 Q656.413 59.5726 656.413 52.9291 L656.413 27.2059 L663.867 27.2059 L663.867 72.576 L656.413 72.576 L656.413 65.6084 Q653.699 69.7404 650.094 71.7658 Q646.529 73.7508 641.79 73.7508 Q633.971 73.7508 629.921 68.8897 Q625.87 64.0286 625.87 54.671 M644.625 26.1121 L644.625 26.1121 Z" fill="#000000" fill-rule="evenodd" fill-opacity="1" /><path clip-path="url(#clip660)" d="M 0 0 M705.51 34.1734 Q704.255 33.4443 702.756 33.1202 Q701.298 32.7556 699.515 32.7556 Q693.196 32.7556 689.793 36.8875 Q686.431 40.9789 686.431 48.6757 L686.431 72.576 L678.937 72.576 L678.937 27.2059 L686.431 27.2059 L686.431 34.2544 Q688.78 30.1225 692.548 28.1376 Q696.315 26.1121 701.703 26.1121 Q702.472 26.1121 703.404 26.2337 Q704.336 26.3147 705.47 26.5172 L705.51 34.1734 Z" fill="#000000" fill-rule="evenodd" fill-opacity="1" /><path clip-path="url(#clip660)" d="M 0 0 M713.329 27.2059 L720.782 27.2059 L720.782 72.576 L713.329 72.576 L713.329 27.2059 M713.329 9.54393 L720.782 9.54393 L720.782 18.9825 L713.329 18.9825 L713.329 9.54393 Z" fill="#000000" fill-rule="evenodd" fill-opacity="1" /><path clip-path="url(#clip660)" d="M 0 0 M775.186 48.0275 L775.186 51.6733 L740.915 51.6733 Q741.401 59.3701 745.533 63.421 Q749.706 67.4314 757.119 67.4314 Q761.413 67.4314 765.423 66.3781 Q769.474 65.3249 773.444 63.2184 L773.444 70.267 Q769.434 71.9684 765.221 72.8596 Q761.008 73.7508 756.673 73.7508 Q745.817 73.7508 739.457 67.4314 Q733.138 61.1119 733.138 50.3365 Q733.138 39.1965 739.133 32.6746 Q745.169 26.1121 755.377 26.1121 Q764.532 26.1121 769.839 32.0264 Q775.186 37.9003 775.186 48.0275 M767.732 45.84 Q767.651 39.7232 764.289 36.0774 Q760.967 32.4315 755.458 32.4315 Q749.22 32.4315 745.452 35.9558 Q741.726 39.4801 741.158 45.8805 L767.732 45.84 Z" fill="#000000" fill-rule="evenodd" fill-opacity="1" /><path clip-path="url(#clip660)" d="M 0 0 M813.71 34.1734 Q812.454 33.4443 810.955 33.1202 Q809.497 32.7556 807.715 32.7556 Q801.395 32.7556 797.993 36.8875 Q794.63 40.9789 794.63 48.6757 L794.63 72.576 L787.136 72.576 L787.136 27.2059 L794.63 27.2059 L794.63 34.2544 Q796.98 30.1225 800.747 28.1376 Q804.515 26.1121 809.902 26.1121 Q810.672 26.1121 811.604 26.2337 Q812.535 26.3147 813.67 26.5172 L813.71 34.1734 Z" fill="#000000" fill-rule="evenodd" fill-opacity="1" /><path clip-path="url(#clip660)" d="M 0 0 M855.272 14.324 L855.272 27.2059 L870.625 27.2059 L870.625 32.9987 L855.272 32.9987 L855.272 57.6282 Q855.272 63.1779 856.771 64.7578 Q858.311 66.3376 862.969 66.3376 L870.625 66.3376 L870.625 72.576 L862.969 72.576 Q854.341 72.576 851.059 69.3758 Q847.778 66.1351 847.778 57.6282 L847.778 32.9987 L842.309 32.9987 L842.309 27.2059 L847.778 27.2059 L847.778 14.324 L855.272 14.324 Z" fill="#000000" fill-rule="evenodd" fill-opacity="1" /><path clip-path="url(#clip660)" d="M 0 0 M906.719 34.1734 Q905.463 33.4443 903.964 33.1202 Q902.506 32.7556 900.724 32.7556 Q894.404 32.7556 891.001 36.8875 Q887.639 40.9789 887.639 48.6757 L887.639 72.576 L880.145 72.576 L880.145 27.2059 L887.639 27.2059 L887.639 34.2544 Q889.989 30.1225 893.756 28.1376 Q897.523 26.1121 902.911 26.1121 Q903.681 26.1121 904.612 26.2337 Q905.544 26.3147 906.678 26.5172 L906.719 34.1734 Z" fill="#000000" fill-rule="evenodd" fill-opacity="1" /><path clip-path="url(#clip660)" d="M 0 0 M935.156 49.7694 Q926.123 49.7694 922.639 51.8354 Q919.155 53.9013 919.155 58.8839 Q919.155 62.8538 921.748 65.2034 Q924.381 67.5124 928.877 67.5124 Q935.075 67.5124 938.802 63.1374 Q942.569 58.7219 942.569 51.4303 L942.569 49.7694 L935.156 49.7694 M950.023 46.6907 L950.023 72.576 L942.569 72.576 L942.569 65.6895 Q940.017 69.8214 936.209 71.8063 Q932.402 73.7508 926.892 73.7508 Q919.925 73.7508 915.793 69.8619 Q911.701 65.9325 911.701 59.3701 Q911.701 51.7138 916.806 47.825 Q921.95 43.9361 932.118 43.9361 L942.569 43.9361 L942.569 43.2069 Q942.569 38.0623 939.167 35.2672 Q935.804 32.4315 929.687 32.4315 Q925.799 32.4315 922.112 33.3632 Q918.426 34.295 915.023 36.1584 L915.023 29.2718 Q919.115 27.692 922.963 26.9223 Q926.811 26.1121 930.457 26.1121 Q940.301 26.1121 945.162 31.2163 Q950.023 36.3204 950.023 46.6907 Z" fill="#000000" fill-rule="evenodd" fill-opacity="1" /><path clip-path="url(#clip660)" d="M 0 0 M1003.09 45.1919 L1003.09 72.576 L995.636 72.576 L995.636 45.4349 Q995.636 38.994 993.125 35.7938 Q990.613 32.5936 985.59 32.5936 Q979.554 32.5936 976.07 36.4419 Q972.587 40.2903 972.587 46.9338 L972.587 72.576 L965.092 72.576 L965.092 27.2059 L972.587 27.2059 L972.587 34.2544 Q975.26 30.163 978.865 28.1376 Q982.511 26.1121 987.251 26.1121 Q995.069 26.1121 999.079 30.9732 Q1003.09 35.7938 1003.09 45.1919 Z" fill="#000000" fill-rule="evenodd" fill-opacity="1" /><path clip-path="url(#clip660)" d="M 0 0 M1046.88 28.5427 L1046.88 35.5912 Q1043.72 33.9709 1040.32 33.1607 Q1036.91 32.3505 1033.27 32.3505 Q1027.72 32.3505 1024.92 34.0519 Q1022.17 35.7533 1022.17 39.156 Q1022.17 41.7486 1024.15 43.2475 Q1026.14 44.7058 1032.13 46.0426 L1034.69 46.6097 Q1042.63 48.3111 1045.95 51.4303 Q1049.31 54.509 1049.31 60.0587 Q1049.31 66.3781 1044.29 70.0644 Q1039.3 73.7508 1030.56 73.7508 Q1026.91 73.7508 1022.94 73.0216 Q1019.01 72.3329 1014.63 70.9151 L1014.63 63.2184 Q1018.77 65.3654 1022.78 66.4591 Q1026.79 67.5124 1030.72 67.5124 Q1035.98 67.5124 1038.82 65.73 Q1041.65 63.9071 1041.65 60.6258 Q1041.65 57.5877 1039.59 55.9673 Q1037.56 54.3469 1030.64 52.8481 L1028.04 52.2405 Q1021.12 50.7821 1018.04 47.7845 Q1014.96 44.7463 1014.96 39.4801 Q1014.96 33.0797 1019.5 29.5959 Q1024.03 26.1121 1032.38 26.1121 Q1036.51 26.1121 1040.16 26.7198 Q1043.8 27.3274 1046.88 28.5427 Z" fill="#000000" fill-rule="evenodd" fill-opacity="1" /><path clip-path="url(#clip660)" d="M 0 0 M1084.15 9.54393 L1084.15 15.7418 L1077.02 15.7418 Q1073.01 15.7418 1071.43 17.3622 Q1069.89 18.9825 1069.89 23.1955 L1069.89 27.2059 L1082.16 27.2059 L1082.16 32.9987 L1069.89 32.9987 L1069.89 72.576 L1062.4 72.576 L1062.4 32.9987 L1055.27 32.9987 L1055.27 27.2059 L1062.4 27.2059 L1062.4 24.0462 Q1062.4 16.471 1065.92 13.0277 Q1069.44 9.54393 1077.1 9.54393 L1084.15 9.54393 Z" fill="#000000" fill-rule="evenodd" fill-opacity="1" /><path clip-path="url(#clip660)" d="M 0 0 M1107.97 32.4315 Q1101.97 32.4315 1098.49 37.1306 Q1095 41.7891 1095 49.9314 Q1095 58.0738 1098.45 62.7728 Q1101.93 67.4314 1107.97 67.4314 Q1113.92 67.4314 1117.41 62.7323 Q1120.89 58.0333 1120.89 49.9314 Q1120.89 41.8701 1117.41 37.1711 Q1113.92 32.4315 1107.97 32.4315 M1107.97 26.1121 Q1117.69 26.1121 1123.24 32.4315 Q1128.79 38.7509 1128.79 49.9314 Q1128.79 61.0714 1123.24 67.4314 Q1117.69 73.7508 1107.97 73.7508 Q1098.21 73.7508 1092.66 67.4314 Q1087.15 61.0714 1087.15 49.9314 Q1087.15 38.7509 1092.66 32.4315 Q1098.21 26.1121 1107.97 26.1121 Z" fill="#000000" fill-rule="evenodd" fill-opacity="1" /><path clip-path="url(#clip660)" d="M 0 0 M1167.44 34.1734 Q1166.18 33.4443 1164.68 33.1202 Q1163.22 32.7556 1161.44 32.7556 Q1155.12 32.7556 1151.72 36.8875 Q1148.36 40.9789 1148.36 48.6757 L1148.36 72.576 L1140.86 72.576 L1140.86 27.2059 L1148.36 27.2059 L1148.36 34.2544 Q1150.7 30.1225 1154.47 28.1376 Q1158.24 26.1121 1163.63 26.1121 Q1164.4 26.1121 1165.33 26.2337 Q1166.26 26.3147 1167.39 26.5172 L1167.44 34.1734 Z" fill="#000000" fill-rule="evenodd" fill-opacity="1" /><path clip-path="url(#clip660)" d="M 0 0 M1209.12 35.9153 Q1211.91 30.8922 1215.8 28.5022 Q1219.69 26.1121 1224.96 26.1121 Q1232.05 26.1121 1235.9 31.0947 Q1239.74 36.0368 1239.74 45.1919 L1239.74 72.576 L1232.25 72.576 L1232.25 45.4349 Q1232.25 38.913 1229.94 35.7533 Q1227.63 32.5936 1222.89 32.5936 Q1217.1 32.5936 1213.74 36.4419 Q1210.37 40.2903 1210.37 46.9338 L1210.37 72.576 L1202.88 72.576 L1202.88 45.4349 Q1202.88 38.8725 1200.57 35.7533 Q1198.26 32.5936 1193.44 32.5936 Q1187.73 32.5936 1184.37 36.4824 Q1181.01 40.3308 1181.01 46.9338 L1181.01 72.576 L1173.51 72.576 L1173.51 27.2059 L1181.01 27.2059 L1181.01 34.2544 Q1183.56 30.082 1187.12 28.0971 Q1190.69 26.1121 1195.59 26.1121 Q1200.53 26.1121 1203.97 28.6237 Q1207.46 31.1352 1209.12 35.9153 Z" fill="#000000" fill-rule="evenodd" fill-opacity="1" /><path clip-path="url(#clip660)" d="M 0 0 M1298.56 32.4315 Q1292.57 32.4315 1289.08 37.1306 Q1285.6 41.7891 1285.6 49.9314 Q1285.6 58.0738 1289.04 62.7728 Q1292.53 67.4314 1298.56 67.4314 Q1304.52 67.4314 1308 62.7323 Q1311.49 58.0333 1311.49 49.9314 Q1311.49 41.8701 1308 37.1711 Q1304.52 32.4315 1298.56 32.4315 M1298.56 26.1121 Q1308.29 26.1121 1313.83 32.4315 Q1319.38 38.7509 1319.38 49.9314 Q1319.38 61.0714 1313.83 67.4314 Q1308.29 73.7508 1298.56 73.7508 Q1288.8 73.7508 1283.25 67.4314 Q1277.74 61.0714 1277.74 49.9314 Q1277.74 38.7509 1283.25 32.4315 Q1288.8 26.1121 1298.56 26.1121 Z" fill="#000000" fill-rule="evenodd" fill-opacity="1" /><path clip-path="url(#clip660)" d="M 0 0 M1354.71 9.54393 L1354.71 15.7418 L1347.58 15.7418 Q1343.57 15.7418 1341.99 17.3622 Q1340.45 18.9825 1340.45 23.1955 L1340.45 27.2059 L1352.72 27.2059 L1352.72 32.9987 L1340.45 32.9987 L1340.45 72.576 L1332.96 72.576 L1332.96 32.9987 L1325.83 32.9987 L1325.83 27.2059 L1332.96 27.2059 L1332.96 24.0462 Q1332.96 16.471 1336.48 13.0277 Q1340 9.54393 1347.66 9.54393 L1354.71 9.54393 Z" fill="#000000" fill-rule="evenodd" fill-opacity="1" /><path clip-path="url(#clip660)" d="M 0 0 M1394.53 65.7705 L1394.53 89.8329 L1387.03 89.8329 L1387.03 27.2059 L1394.53 27.2059 L1394.53 34.0924 Q1396.88 30.0415 1400.44 28.0971 Q1404.05 26.1121 1409.03 26.1121 Q1417.29 26.1121 1422.44 32.6746 Q1427.62 39.2371 1427.62 49.9314 Q1427.62 60.6258 1422.44 67.1883 Q1417.29 73.7508 1409.03 73.7508 Q1404.05 73.7508 1400.44 71.8063 Q1396.88 69.8214 1394.53 65.7705 M1419.89 49.9314 Q1419.89 41.7081 1416.48 37.0496 Q1413.12 32.3505 1407.21 32.3505 Q1401.29 32.3505 1397.89 37.0496 Q1394.53 41.7081 1394.53 49.9314 Q1394.53 58.1548 1397.89 62.8538 Q1401.29 67.5124 1407.21 67.5124 Q1413.12 67.5124 1416.48 62.8538 Q1419.89 58.1548 1419.89 49.9314 Z" fill="#000000" fill-rule="evenodd" fill-opacity="1" /><path clip-path="url(#clip660)" d="M 0 0 M1477.69 45.1919 L1477.69 72.576 L1470.24 72.576 L1470.24 45.4349 Q1470.24 38.994 1467.73 35.7938 Q1465.22 32.5936 1460.19 32.5936 Q1454.16 32.5936 1450.67 36.4419 Q1447.19 40.2903 1447.19 46.9338 L1447.19 72.576 L1439.7 72.576 L1439.7 9.54393 L1447.19 9.54393 L1447.19 34.2544 Q1449.86 30.163 1453.47 28.1376 Q1457.12 26.1121 1461.85 26.1121 Q1469.67 26.1121 1473.68 30.9732 Q1477.69 35.7938 1477.69 45.1919 Z" fill="#000000" fill-rule="evenodd" fill-opacity="1" /><path clip-path="url(#clip660)" d="M 0 0 M1510.14 32.4315 Q1504.15 32.4315 1500.66 37.1306 Q1497.18 41.7891 1497.18 49.9314 Q1497.18 58.0738 1500.62 62.7728 Q1504.11 67.4314 1510.14 67.4314 Q1516.1 67.4314 1519.58 62.7323 Q1523.06 58.0333 1523.06 49.9314 Q1523.06 41.8701 1519.58 37.1711 Q1516.1 32.4315 1510.14 32.4315 M1510.14 26.1121 Q1519.86 26.1121 1525.41 32.4315 Q1530.96 38.7509 1530.96 49.9314 Q1530.96 61.0714 1525.41 67.4314 Q1519.86 73.7508 1510.14 73.7508 Q1500.38 73.7508 1494.83 67.4314 Q1489.32 61.0714 1489.32 49.9314 Q1489.32 38.7509 1494.83 32.4315 Q1500.38 26.1121 1510.14 26.1121 Z" fill="#000000" fill-rule="evenodd" fill-opacity="1" /><path clip-path="url(#clip660)" d="M 0 0 M1550.69 14.324 L1550.69 27.2059 L1566.04 27.2059 L1566.04 32.9987 L1550.69 32.9987 L1550.69 57.6282 Q1550.69 63.1779 1552.19 64.7578 Q1553.73 66.3376 1558.39 66.3376 L1566.04 66.3376 L1566.04 72.576 L1558.39 72.576 Q1549.76 72.576 1546.48 69.3758 Q1543.2 66.1351 1543.2 57.6282 L1543.2 32.9987 L1537.73 32.9987 L1537.73 27.2059 L1543.2 27.2059 L1543.2 14.324 L1550.69 14.324 Z" fill="#000000" fill-rule="evenodd" fill-opacity="1" /><path clip-path="url(#clip660)" d="M 0 0 M1593.43 32.4315 Q1587.43 32.4315 1583.95 37.1306 Q1580.47 41.7891 1580.47 49.9314 Q1580.47 58.0738 1583.91 62.7728 Q1587.39 67.4314 1593.43 67.4314 Q1599.38 67.4314 1602.87 62.7323 Q1606.35 58.0333 1606.35 49.9314 Q1606.35 41.8701 1602.87 37.1711 Q1599.38 32.4315 1593.43 32.4315 M1593.43 26.1121 Q1603.15 26.1121 1608.7 32.4315 Q1614.25 38.7509 1614.25 49.9314 Q1614.25 61.0714 1608.7 67.4314 Q1603.15 73.7508 1593.43 73.7508 Q1583.67 73.7508 1578.12 67.4314 Q1572.61 61.0714 1572.61 49.9314 Q1572.61 38.7509 1578.12 32.4315 Q1583.67 26.1121 1593.43 26.1121 Z" fill="#000000" fill-rule="evenodd" fill-opacity="1" /><path clip-path="url(#clip660)" d="M 0 0 M1664.32 45.1919 L1664.32 72.576 L1656.87 72.576 L1656.87 45.4349 Q1656.87 38.994 1654.35 35.7938 Q1651.84 32.5936 1646.82 32.5936 Q1640.78 32.5936 1637.3 36.4419 Q1633.82 40.2903 1633.82 46.9338 L1633.82 72.576 L1626.32 72.576 L1626.32 27.2059 L1633.82 27.2059 L1633.82 34.2544 Q1636.49 30.163 1640.09 28.1376 Q1643.74 26.1121 1648.48 26.1121 Q1656.3 26.1121 1660.31 30.9732 Q1664.32 35.7938 1664.32 45.1919 Z" fill="#000000" fill-rule="evenodd" fill-opacity="1" /><path clip-path="url(#clip660)" d="M 0 0 M1738.21 28.9478 L1738.21 35.9153 Q1735.05 34.1734 1731.85 33.3227 Q1728.69 32.4315 1725.45 32.4315 Q1718.2 32.4315 1714.19 37.0496 Q1710.18 41.6271 1710.18 49.9314 Q1710.18 58.2358 1714.19 62.8538 Q1718.2 67.4314 1725.45 67.4314 Q1728.69 67.4314 1731.85 66.5807 Q1735.05 65.6895 1738.21 63.9476 L1738.21 70.8341 Q1735.09 72.2924 1731.73 73.0216 Q1728.4 73.7508 1724.64 73.7508 Q1714.39 73.7508 1708.35 67.3098 Q1702.32 60.8689 1702.32 49.9314 Q1702.32 38.832 1708.39 32.472 Q1714.51 26.1121 1725.12 26.1121 Q1728.57 26.1121 1731.85 26.8413 Q1735.13 27.5299 1738.21 28.9478 Z" fill="#000000" fill-rule="evenodd" fill-opacity="1" /><path clip-path="url(#clip660)" d="M 0 0 M1768.75 32.4315 Q1762.76 32.4315 1759.27 37.1306 Q1755.79 41.7891 1755.79 49.9314 Q1755.79 58.0738 1759.23 62.7728 Q1762.72 67.4314 1768.75 67.4314 Q1774.71 67.4314 1778.19 62.7323 Q1781.67 58.0333 1781.67 49.9314 Q1781.67 41.8701 1778.19 37.1711 Q1774.71 32.4315 1768.75 32.4315 M1768.75 26.1121 Q1778.47 26.1121 1784.02 32.4315 Q1789.57 38.7509 1789.57 49.9314 Q1789.57 61.0714 1784.02 67.4314 Q1778.47 73.7508 1768.75 73.7508 Q1758.99 73.7508 1753.44 67.4314 Q1747.93 61.0714 1747.93 49.9314 Q1747.93 38.7509 1753.44 32.4315 Q1758.99 26.1121 1768.75 26.1121 Z" fill="#000000" fill-rule="evenodd" fill-opacity="1" /><path clip-path="url(#clip660)" d="M 0 0 M1828.22 34.1734 Q1826.96 33.4443 1825.46 33.1202 Q1824.01 32.7556 1822.22 32.7556 Q1815.9 32.7556 1812.5 36.8875 Q1809.14 40.9789 1809.14 48.6757 L1809.14 72.576 L1801.64 72.576 L1801.64 27.2059 L1809.14 27.2059 L1809.14 34.2544 Q1811.49 30.1225 1815.26 28.1376 Q1819.02 26.1121 1824.41 26.1121 Q1825.18 26.1121 1826.11 26.2337 Q1827.04 26.3147 1828.18 26.5172 L1828.22 34.1734 Z" fill="#000000" fill-rule="evenodd" fill-opacity="1" /><path clip-path="url(#clip660)" d="M 0 0 M1860.87 34.1734 Q1859.61 33.4443 1858.11 33.1202 Q1856.66 32.7556 1854.87 32.7556 Q1848.55 32.7556 1845.15 36.8875 Q1841.79 40.9789 1841.79 48.6757 L1841.79 72.576 L1834.29 72.576 L1834.29 27.2059 L1841.79 27.2059 L1841.79 34.2544 Q1844.14 30.1225 1847.91 28.1376 Q1851.67 26.1121 1857.06 26.1121 Q1857.83 26.1121 1858.76 26.2337 Q1859.69 26.3147 1860.83 26.5172 L1860.87 34.1734 Z" fill="#000000" fill-rule="evenodd" fill-opacity="1" /><path clip-path="url(#clip660)" d="M 0 0 M1905.67 48.0275 L1905.67 51.6733 L1871.4 51.6733 Q1871.89 59.3701 1876.02 63.421 Q1880.19 67.4314 1887.6 67.4314 Q1891.9 67.4314 1895.91 66.3781 Q1899.96 65.3249 1903.93 63.2184 L1903.93 70.267 Q1899.92 71.9684 1895.71 72.8596 Q1891.49 73.7508 1887.16 73.7508 Q1876.3 73.7508 1869.94 67.4314 Q1863.62 61.1119 1863.62 50.3365 Q1863.62 39.1965 1869.62 32.6746 Q1875.65 26.1121 1885.86 26.1121 Q1895.02 26.1121 1900.32 32.0264 Q1905.67 37.9003 1905.67 48.0275 M1898.22 45.84 Q1898.14 39.7232 1894.77 36.0774 Q1891.45 32.4315 1885.94 32.4315 Q1879.71 32.4315 1875.94 35.9558 Q1872.21 39.4801 1871.64 45.8805 L1898.22 45.84 Z" fill="#000000" fill-rule="evenodd" fill-opacity="1" /><path clip-path="url(#clip660)" d="M 0 0 M1917.91 9.54393 L1925.36 9.54393 L1925.36 72.576 L1917.91 72.576 L1917.91 9.54393 Z" fill="#000000" fill-rule="evenodd" fill-opacity="1" /><path clip-path="url(#clip660)" d="M 0 0 M1961.57 49.7694 Q1952.54 49.7694 1949.06 51.8354 Q1945.57 53.9013 1945.57 58.8839 Q1945.57 62.8538 1948.17 65.2034 Q1950.8 67.5124 1955.3 67.5124 Q1961.49 67.5124 1965.22 63.1374 Q1968.99 58.7219 1968.99 51.4303 L1968.99 49.7694 L1961.57 49.7694 M1976.44 46.6907 L1976.44 72.576 L1968.99 72.576 L1968.99 65.6895 Q1966.44 69.8214 1962.63 71.8063 Q1958.82 73.7508 1953.31 73.7508 Q1946.34 73.7508 1942.21 69.8619 Q1938.12 65.9325 1938.12 59.3701 Q1938.12 51.7138 1943.22 47.825 Q1948.37 43.9361 1958.54 43.9361 L1968.99 43.9361 L1968.99 43.2069 Q1968.99 38.0623 1965.58 35.2672 Q1962.22 32.4315 1956.11 32.4315 Q1952.22 32.4315 1948.53 33.3632 Q1944.84 34.295 1941.44 36.1584 L1941.44 29.2718 Q1945.53 27.692 1949.38 26.9223 Q1953.23 26.1121 1956.88 26.1121 Q1966.72 26.1121 1971.58 31.2163 Q1976.44 36.3204 1976.44 46.6907 Z" fill="#000000" fill-rule="evenodd" fill-opacity="1" /><path clip-path="url(#clip660)" d="M 0 0 M1999.17 14.324 L1999.17 27.2059 L2014.52 27.2059 L2014.52 32.9987 L1999.17 32.9987 L1999.17 57.6282 Q1999.17 63.1779 2000.67 64.7578 Q2002.2 66.3376 2006.86 66.3376 L2014.52 66.3376 L2014.52 72.576 L2006.86 72.576 Q1998.24 72.576 1994.95 69.3758 Q1991.67 66.1351 1991.67 57.6282 L1991.67 32.9987 L1986.2 32.9987 L1986.2 27.2059 L1991.67 27.2059 L1991.67 14.324 L1999.17 14.324 Z" fill="#000000" fill-rule="evenodd" fill-opacity="1" /><path clip-path="url(#clip660)" d="M 0 0 M2024.32 27.2059 L2031.78 27.2059 L2031.78 72.576 L2024.32 72.576 L2024.32 27.2059 M2024.32 9.54393 L2031.78 9.54393 L2031.78 18.9825 L2024.32 18.9825 L2024.32 9.54393 Z" fill="#000000" fill-rule="evenodd" fill-opacity="1" /><path clip-path="url(#clip660)" d="M 0 0 M2064.95 32.4315 Q2058.96 32.4315 2055.47 37.1306 Q2051.99 41.7891 2051.99 49.9314 Q2051.99 58.0738 2055.43 62.7728 Q2058.92 67.4314 2064.95 67.4314 Q2070.91 67.4314 2074.39 62.7323 Q2077.88 58.0333 2077.88 49.9314 Q2077.88 41.8701 2074.39 37.1711 Q2070.91 32.4315 2064.95 32.4315 M2064.95 26.1121 Q2074.68 26.1121 2080.23 32.4315 Q2085.78 38.7509 2085.78 49.9314 Q2085.78 61.0714 2080.23 67.4314 Q2074.68 73.7508 2064.95 73.7508 Q2055.19 73.7508 2049.64 67.4314 Q2044.13 61.0714 2044.13 49.9314 Q2044.13 38.7509 2049.64 32.4315 Q2055.19 26.1121 2064.95 26.1121 Z" fill="#000000" fill-rule="evenodd" fill-opacity="1" /><path clip-path="url(#clip660)" d="M 0 0 M2135.84 45.1919 L2135.84 72.576 L2128.39 72.576 L2128.39 45.4349 Q2128.39 38.994 2125.88 35.7938 Q2123.37 32.5936 2118.34 32.5936 Q2112.31 32.5936 2108.82 36.4419 Q2105.34 40.2903 2105.34 46.9338 L2105.34 72.576 L2097.85 72.576 L2097.85 27.2059 L2105.34 27.2059 L2105.34 34.2544 Q2108.01 30.163 2111.62 28.1376 Q2115.27 26.1121 2120.01 26.1121 Q2127.82 26.1121 2131.83 30.9732 Q2135.84 35.7938 2135.84 45.1919 Z" fill="#000000" fill-rule="evenodd" fill-opacity="1" /><path clip-path="url(#clip660)" d="M 0 0 M2179.63 28.5427 L2179.63 35.5912 Q2176.47 33.9709 2173.07 33.1607 Q2169.67 32.3505 2166.02 32.3505 Q2160.47 32.3505 2157.68 34.0519 Q2154.92 35.7533 2154.92 39.156 Q2154.92 41.7486 2156.91 43.2475 Q2158.89 44.7058 2164.89 46.0426 L2167.44 46.6097 Q2175.38 48.3111 2178.7 51.4303 Q2182.07 54.509 2182.07 60.0587 Q2182.07 66.3781 2177.04 70.0644 Q2172.06 73.7508 2163.31 73.7508 Q2159.66 73.7508 2155.69 73.0216 Q2151.76 72.3329 2147.39 70.9151 L2147.39 63.2184 Q2151.52 65.3654 2155.53 66.4591 Q2159.54 67.5124 2163.47 67.5124 Q2168.74 67.5124 2171.57 65.73 Q2174.41 63.9071 2174.41 60.6258 Q2174.41 57.5877 2172.34 55.9673 Q2170.32 54.3469 2163.39 52.8481 L2160.8 52.2405 Q2153.87 50.7821 2150.79 47.7845 Q2147.71 44.7463 2147.71 39.4801 Q2147.71 33.0797 2152.25 29.5959 Q2156.79 26.1121 2165.13 26.1121 Q2169.26 26.1121 2172.91 26.7198 Q2176.56 27.3274 2179.63 28.5427 Z" fill="#000000" fill-rule="evenodd" fill-opacity="1" /><polyline clip-path="url(#clip662)" style="stroke:#009af9; stroke-width:4; stroke-opacity:1; fill:none" points="
  417.13,276.285 420.896,1270.37 424.662,1270.37 428.428,1270.37 432.194,1270.37 435.96,1270.37 439.726,1270.37 443.492,1270.37 447.258,1270.37 451.024,1270.37 
  454.79,1270.37 458.556,1270.37 462.322,1270.37 466.088,1270.37 469.854,1270.37 473.62,1270.37 477.386,1270.37 481.152,1270.37 484.918,1270.37 488.684,1270.37 
  492.45,1270.37 496.216,1270.37 499.982,1270.37 503.748,1270.37 507.514,1270.37 511.28,1270.37 515.046,1270.37 518.812,1270.37 522.579,1270.37 526.345,1270.37 
  530.111,1270.37 533.877,1270.37 537.643,1270.37 541.409,1270.37 545.175,1270.37 548.941,1270.37 552.707,1270.37 556.473,1270.37 560.239,1270.37 564.005,1270.37 
  567.771,1270.37 571.537,1270.37 575.303,1270.37 579.069,1270.37 582.835,1270.37 586.601,1270.37 590.367,1270.37 594.133,1270.37 597.899,1270.37 601.665,1270.37 
  605.431,1270.37 609.197,1270.37 612.963,1270.37 616.729,1270.37 620.495,1270.37 624.261,1270.37 628.027,1270.37 631.793,1270.37 635.559,1270.37 639.325,1270.37 
  643.091,1270.37 646.857,1270.37 650.624,1270.37 654.39,1270.37 658.156,1270.37 661.922,1270.37 665.688,1270.37 669.454,1270.37 673.22,1270.37 676.986,1270.37 
  680.752,1270.37 684.518,1270.37 688.284,1270.37 692.05,1270.37 695.816,1270.37 699.582,1270.37 703.348,1270.37 707.114,1270.37 710.88,1270.37 714.646,1270.37 
  718.412,1270.37 722.178,1270.37 725.944,1270.37 729.71,1270.37 733.476,1270.37 737.242,1270.37 741.008,1270.37 744.774,1270.37 748.54,1270.37 752.306,1270.37 
  756.072,1270.37 759.838,1270.37 763.604,1270.37 767.37,1270.37 771.136,1270.37 774.903,1270.37 778.669,1270.37 782.435,1270.37 786.201,1270.37 789.967,1270.37 
  793.733,1270.37 797.499,1270.37 801.265,1270.37 805.031,1270.37 808.797,1270.37 812.563,1270.37 816.329,1270.37 820.095,1270.37 823.861,1270.37 827.627,1270.37 
  831.393,1270.37 835.159,1270.37 838.925,1270.37 842.691,1270.37 846.457,1270.37 850.223,1270.37 853.989,1270.37 857.755,1270.37 861.521,1270.37 865.287,1270.37 
  869.053,1270.37 872.819,1270.37 876.585,1270.37 880.351,1270.37 884.117,1270.37 887.883,1270.37 891.649,1270.37 895.415,1270.37 899.181,1270.37 902.948,1270.37 
  906.714,1270.37 910.48,1270.37 914.246,1270.37 918.012,1270.37 921.778,1270.37 925.544,1270.37 929.31,1270.37 933.076,1270.37 936.842,1270.37 940.608,1270.37 
  944.374,1270.37 948.14,1270.37 951.906,1270.37 955.672,1270.37 959.438,1270.37 963.204,1270.37 966.97,1270.37 970.736,1270.37 974.502,1270.37 978.268,1270.37 
  982.034,1270.37 985.8,1270.37 989.566,1270.37 993.332,1270.37 997.098,1270.37 1000.86,1270.37 1004.63,1270.37 1008.4,1270.37 1012.16,1270.37 1015.93,1270.37 
  1019.69,1270.37 1023.46,1270.37 1027.23,1270.37 1030.99,1270.37 1034.76,1270.37 1038.52,1270.37 1042.29,1270.37 1046.06,1270.37 1049.82,1270.37 1053.59,1270.37 
  1057.35,1270.37 1061.12,1270.37 1064.89,1270.37 1068.65,1270.37 1072.42,1270.37 1076.18,1270.37 1079.95,1270.37 1083.72,1270.37 1087.48,1270.37 1091.25,1270.37 
  1095.02,1270.37 1098.78,1270.37 1102.55,1270.37 1106.31,1270.37 1110.08,1270.37 1113.85,1270.37 1117.61,1270.37 1121.38,1270.37 1125.14,1270.37 1128.91,1270.37 
  1132.68,1270.37 1136.44,1270.37 1140.21,1270.37 1143.97,1270.37 1147.74,1270.37 1151.51,1270.37 1155.27,1270.37 1159.04,1270.37 1162.8,1270.37 1166.57,1270.37 
  1170.34,1270.37 1174.1,1270.37 1177.87,1270.37 1181.63,1270.37 1185.4,1270.37 1189.17,1270.37 1192.93,1270.37 1196.7,1270.37 1200.46,1270.37 1204.23,1270.37 
  1208,1270.37 1211.76,1270.37 1215.53,1270.37 1219.29,1270.37 1223.06,1270.37 1226.83,1270.37 1230.59,1270.37 1234.36,1270.37 1238.12,1270.37 1241.89,1270.37 
  1245.66,1270.37 1249.42,1270.37 1253.19,1270.37 1256.95,1270.37 1260.72,1270.37 1264.49,1270.37 1268.25,1270.37 1272.02,1270.37 1275.78,1270.37 1279.55,1270.37 
  1283.32,1270.37 1287.08,1270.37 1290.85,1270.37 1294.61,1270.37 1298.38,1270.37 1302.15,1270.37 1305.91,1270.37 1309.68,1270.37 1313.44,1270.37 1317.21,1270.37 
  1320.98,1270.37 1324.74,1270.37 1328.51,1270.37 1332.27,1270.37 1336.04,1270.37 1339.81,1270.37 1343.57,1270.37 1347.34,1270.37 1351.11,1270.37 1354.87,1270.37 
  1358.64,1270.37 1362.4,1270.37 1366.17,1270.37 1369.94,1270.37 1373.7,1270.37 1377.47,1270.37 1381.23,1270.37 1385,1270.37 1388.77,1270.37 1392.53,1270.37 
  1396.3,1270.37 1400.06,1270.37 1403.83,1270.37 1407.6,1270.37 1411.36,1270.37 1415.13,1270.37 1418.89,1270.37 1422.66,1270.37 1426.43,1270.37 1430.19,1270.37 
  1433.96,1270.37 1437.72,1270.37 1441.49,1270.37 1445.26,1270.37 1449.02,1270.37 1452.79,1270.37 1456.55,1270.37 1460.32,1270.37 1464.09,1270.37 1467.85,1270.37 
  1471.62,1270.37 1475.38,1270.37 1479.15,1270.37 1482.92,1270.37 1486.68,1270.37 1490.45,1270.37 1494.21,1270.37 1497.98,1270.37 1501.75,1270.37 1505.51,1270.37 
  1509.28,1270.37 1513.04,1270.37 1516.81,1270.37 1520.58,1270.37 1524.34,1270.37 1528.11,1270.37 1531.87,1270.37 1535.64,1270.37 1539.41,1270.37 1543.17,1270.37 
  1546.94,1270.37 1550.7,1270.37 1554.47,1270.37 1558.24,1270.37 1562,1270.37 1565.77,1270.37 1569.53,1270.37 1573.3,1270.37 1577.07,1270.37 1580.83,1270.37 
  1584.6,1270.37 1588.36,1270.37 1592.13,1270.37 1595.9,1270.37 1599.66,1270.37 1603.43,1270.37 1607.2,1270.37 1610.96,1270.37 1614.73,1270.37 1618.49,1270.37 
  1622.26,1270.37 1626.03,1270.37 1629.79,1270.37 1633.56,1270.37 1637.32,1270.37 1641.09,1270.37 1644.86,1270.37 1648.62,1270.37 1652.39,1270.37 1656.15,1270.37 
  1659.92,1270.37 1663.69,1270.37 1667.45,1270.37 1671.22,1270.37 1674.98,1270.37 1678.75,1270.37 1682.52,1270.37 1686.28,1270.37 1690.05,1270.37 1693.81,1270.37 
  1697.58,1270.37 1701.35,1270.37 1705.11,1270.37 1708.88,1270.37 1712.64,1270.37 1716.41,1270.37 1720.18,1270.37 1723.94,1270.37 1727.71,1270.37 1731.47,1270.37 
  1735.24,1270.37 1739.01,1270.37 1742.77,1270.37 1746.54,1270.37 1750.3,1270.37 1754.07,1270.37 1757.84,1270.37 1761.6,1270.37 1765.37,1270.37 1769.13,1270.37 
  1772.9,1270.37 1776.67,1270.37 1780.43,1270.37 1784.2,1270.37 1787.96,1270.37 1791.73,1270.37 1795.5,1270.37 1799.26,1270.37 1803.03,1270.37 1806.79,1270.37 
  1810.56,1270.37 1814.33,1270.37 1818.09,1270.37 1821.86,1270.37 1825.62,1270.37 1829.39,1270.37 1833.16,1270.37 1836.92,1270.37 1840.69,1270.37 1844.45,1270.37 
  1848.22,1270.37 1851.99,1270.37 1855.75,1270.37 1859.52,1270.37 1863.29,1270.37 1867.05,1270.37 1870.82,1270.37 1874.58,1270.37 1878.35,1270.37 1882.12,1270.37 
  1885.88,1270.37 1889.65,1270.37 1893.41,1270.37 1897.18,1270.37 1900.95,1270.37 1904.71,1270.37 1908.48,1270.37 1912.24,1270.37 1916.01,1270.37 1919.78,1270.37 
  1923.54,1270.37 1927.31,1270.37 1931.07,1270.37 1934.84,1270.37 1938.61,1270.37 1942.37,1270.37 1946.14,1270.37 1949.9,1270.37 1953.67,1270.37 1957.44,1270.37 
  1961.2,1270.37 1964.97,1270.37 1968.73,1270.37 1972.5,1270.37 1976.27,1270.37 1980.03,1270.37 1983.8,1270.37 1987.56,1270.37 1991.33,1270.37 1995.1,1270.37 
  1998.86,1270.37 2002.63,1270.37 2006.39,1270.37 2010.16,1270.37 2013.93,1270.37 2017.69,1270.37 2021.46,1270.37 2025.22,1270.37 2028.99,1270.37 2032.76,1270.37 
  2036.52,1270.37 2040.29,1270.37 2044.05,1270.37 2047.82,1270.37 2051.59,1270.37 2055.35,1270.37 2059.12,1270.37 2062.88,1270.37 2066.65,1270.37 2070.42,1270.37 
  2074.18,1270.37 2077.95,1270.37 2081.71,1270.37 2085.48,1270.37 2089.25,1270.37 2093.01,1270.37 2096.78,1270.37 2100.54,1270.37 2104.31,1270.37 2108.08,1270.37 
  2111.84,1270.37 2115.61,1270.37 2119.38,1270.37 2123.14,1270.37 2126.91,1270.37 2130.67,1270.37 2134.44,1270.37 2138.21,1270.37 2141.97,1270.37 2145.74,1270.37 
  2149.5,1270.37 2153.27,1270.37 2157.04,1270.37 2160.8,1270.37 2164.57,1270.37 2168.33,1270.37 2172.1,1270.37 2175.87,1270.37 2179.63,1270.37 2183.4,1270.37 
  2187.16,1270.37 2190.93,1270.37 2194.7,1270.37 2198.46,1270.37 2202.23,1270.37 2205.99,1270.37 2209.76,1270.37 2213.53,1270.37 2217.29,1270.37 2221.06,1270.37 
  2224.82,1270.37 2228.59,1270.37 2232.36,1270.37 2236.12,1270.37 2239.89,1270.37 2243.65,1270.37 2247.42,1270.37 2251.19,1270.37 2254.95,1270.37 2258.72,1270.37 
  2262.48,1270.37 2266.25,1270.37 2270.02,1270.37 2273.78,1270.37 2277.55,1270.37 2281.31,1270.37 2285.08,1270.37 2288.85,1270.37 2292.61,1270.37 2296.38,1270.37 
  
  "/>
<polyline clip-path="url(#clip662)" style="stroke:#e26f46; stroke-width:4; stroke-opacity:1; fill:none" stroke-dasharray="16, 10" points="
  567.771,2722.89 567.771,-1176.24 
  "/>
<path clip-path="url(#clip660)" d="
M1708.47 287.756 L2286.36 287.756 L2286.36 166.796 L1708.47 166.796  Z
  " fill="#ffffff" fill-rule="evenodd" fill-opacity="1"/>
<polyline clip-path="url(#clip660)" style="stroke:#000000; stroke-width:4; stroke-opacity:1; fill:none" points="
  1708.47,287.756 2286.36,287.756 2286.36,166.796 1708.47,166.796 1708.47,287.756 
  "/>
<polyline clip-path="url(#clip660)" style="stroke:#e26f46; stroke-width:4; stroke-opacity:1; fill:none" stroke-dasharray="16, 10" points="
  1730.61,227.276 1863.41,227.276 
  "/>
<path clip-path="url(#clip660)" d="M 0 0 M1885.54 209.996 L1905.4 209.996 L1905.4 213.931 L1890.22 213.931 L1890.22 224.116 L1903.92 224.116 L1903.92 228.051 L1890.22 228.051 L1890.22 244.556 L1885.54 244.556 L1885.54 209.996 Z" fill="#000000" fill-rule="evenodd" fill-opacity="1" /><path clip-path="url(#clip660)" d="M 0 0 M1924.2 222.611 Q1923.48 222.195 1922.62 222.01 Q1921.79 221.801 1920.77 221.801 Q1917.16 221.801 1915.22 224.162 Q1913.29 226.5 1913.29 230.898 L1913.29 244.556 L1909.01 244.556 L1909.01 218.63 L1913.29 218.63 L1913.29 222.658 Q1914.64 220.297 1916.79 219.162 Q1918.94 218.005 1922.02 218.005 Q1922.46 218.005 1922.99 218.074 Q1923.53 218.121 1924.17 218.236 L1924.2 222.611 Z" fill="#000000" fill-rule="evenodd" fill-opacity="1" /><path clip-path="url(#clip660)" d="M 0 0 M1949.8 230.528 L1949.8 232.611 L1930.22 232.611 Q1930.49 237.009 1932.85 239.324 Q1935.24 241.616 1939.47 241.616 Q1941.93 241.616 1944.22 241.014 Q1946.54 240.412 1948.8 239.209 L1948.8 243.236 Q1946.51 244.208 1944.1 244.718 Q1941.7 245.227 1939.22 245.227 Q1933.02 245.227 1929.38 241.616 Q1925.77 238.005 1925.77 231.847 Q1925.77 225.482 1929.2 221.755 Q1932.65 218.005 1938.48 218.005 Q1943.71 218.005 1946.74 221.385 Q1949.8 224.741 1949.8 230.528 M1945.54 229.278 Q1945.49 225.783 1943.57 223.699 Q1941.67 221.616 1938.53 221.616 Q1934.96 221.616 1932.81 223.63 Q1930.68 225.644 1930.35 229.301 L1945.54 229.278 Z" fill="#000000" fill-rule="evenodd" fill-opacity="1" /><path clip-path="url(#clip660)" d="M 0 0 M1959.34 231.616 Q1959.34 236.315 1961.26 239 Q1963.2 241.662 1966.58 241.662 Q1969.96 241.662 1971.91 239 Q1973.85 236.315 1973.85 231.616 Q1973.85 226.917 1971.91 224.255 Q1969.96 221.57 1966.58 221.57 Q1963.2 221.57 1961.26 224.255 Q1959.34 226.917 1959.34 231.616 M1973.85 240.667 Q1972.51 242.982 1970.45 244.116 Q1968.41 245.227 1965.54 245.227 Q1960.84 245.227 1957.88 241.477 Q1954.94 237.727 1954.94 231.616 Q1954.94 225.505 1957.88 221.755 Q1960.84 218.005 1965.54 218.005 Q1968.41 218.005 1970.45 219.139 Q1972.51 220.25 1973.85 222.565 L1973.85 218.63 L1978.11 218.63 L1978.11 254.417 L1973.85 254.417 L1973.85 240.667 Z" fill="#000000" fill-rule="evenodd" fill-opacity="1" /><path clip-path="url(#clip660)" d="M 0 0 M1986.44 234.324 L1986.44 218.63 L1990.7 218.63 L1990.7 234.162 Q1990.7 237.843 1992.14 239.695 Q1993.57 241.523 1996.44 241.523 Q1999.89 241.523 2001.88 239.324 Q2003.9 237.125 2003.9 233.329 L2003.9 218.63 L2008.16 218.63 L2008.16 244.556 L2003.9 244.556 L2003.9 240.574 Q2002.34 242.935 2000.28 244.093 Q1998.25 245.227 1995.54 245.227 Q1991.07 245.227 1988.76 242.449 Q1986.44 239.671 1986.44 234.324 M1997.16 218.005 L1997.16 218.005 Z" fill="#000000" fill-rule="evenodd" fill-opacity="1" /><path clip-path="url(#clip660)" d="M 0 0 M2039.1 230.528 L2039.1 232.611 L2019.52 232.611 Q2019.8 237.009 2022.16 239.324 Q2024.54 241.616 2028.78 241.616 Q2031.23 241.616 2033.53 241.014 Q2035.84 240.412 2038.11 239.209 L2038.11 243.236 Q2035.82 244.208 2033.41 244.718 Q2031 245.227 2028.53 245.227 Q2022.32 245.227 2018.69 241.616 Q2015.08 238.005 2015.08 231.847 Q2015.08 225.482 2018.5 221.755 Q2021.95 218.005 2027.78 218.005 Q2033.02 218.005 2036.05 221.385 Q2039.1 224.741 2039.1 230.528 M2034.84 229.278 Q2034.8 225.783 2032.88 223.699 Q2030.98 221.616 2027.83 221.616 Q2024.27 221.616 2022.11 223.63 Q2019.98 225.644 2019.66 229.301 L2034.84 229.278 Z" fill="#000000" fill-rule="evenodd" fill-opacity="1" /><path clip-path="url(#clip660)" d="M 0 0 M2067.65 228.908 L2067.65 244.556 L2063.39 244.556 L2063.39 229.047 Q2063.39 225.366 2061.95 223.537 Q2060.52 221.709 2057.65 221.709 Q2054.2 221.709 2052.21 223.908 Q2050.22 226.107 2050.22 229.903 L2050.22 244.556 L2045.93 244.556 L2045.93 218.63 L2050.22 218.63 L2050.22 222.658 Q2051.74 220.32 2053.8 219.162 Q2055.89 218.005 2058.59 218.005 Q2063.06 218.005 2065.35 220.783 Q2067.65 223.537 2067.65 228.908 Z" fill="#000000" fill-rule="evenodd" fill-opacity="1" /><path clip-path="url(#clip660)" d="M 0 0 M2094.8 219.625 L2094.8 223.607 Q2092.99 222.611 2091.16 222.125 Q2089.36 221.616 2087.51 221.616 Q2083.36 221.616 2081.07 224.255 Q2078.78 226.871 2078.78 231.616 Q2078.78 236.361 2081.07 239 Q2083.36 241.616 2087.51 241.616 Q2089.36 241.616 2091.16 241.13 Q2092.99 240.621 2094.8 239.625 L2094.8 243.56 Q2093.02 244.394 2091.09 244.81 Q2089.2 245.227 2087.04 245.227 Q2081.19 245.227 2077.74 241.546 Q2074.29 237.866 2074.29 231.616 Q2074.29 225.273 2077.76 221.639 Q2081.26 218.005 2087.32 218.005 Q2089.29 218.005 2091.16 218.422 Q2093.04 218.815 2094.8 219.625 Z" fill="#000000" fill-rule="evenodd" fill-opacity="1" /><path clip-path="url(#clip660)" d="M 0 0 M2112.99 246.963 Q2111.19 251.593 2109.47 253.005 Q2107.76 254.417 2104.89 254.417 L2101.49 254.417 L2101.49 250.852 L2103.99 250.852 Q2105.75 250.852 2106.72 250.019 Q2107.69 249.185 2108.87 246.083 L2109.64 244.139 L2099.15 218.63 L2103.66 218.63 L2111.77 238.908 L2119.87 218.63 L2124.38 218.63 L2112.99 246.963 Z" fill="#000000" fill-rule="evenodd" fill-opacity="1" /><path clip-path="url(#clip660)" d="M 0 0 M2161.86 219.394 L2161.86 223.422 Q2160.05 222.496 2158.11 222.033 Q2156.16 221.57 2154.08 221.57 Q2150.91 221.57 2149.31 222.542 Q2147.74 223.514 2147.74 225.459 Q2147.74 226.94 2148.87 227.797 Q2150.01 228.63 2153.43 229.394 L2154.89 229.718 Q2159.43 230.69 2161.33 232.472 Q2163.25 234.232 2163.25 237.403 Q2163.25 241.014 2160.38 243.121 Q2157.53 245.227 2152.53 245.227 Q2150.45 245.227 2148.18 244.81 Q2145.93 244.417 2143.43 243.607 L2143.43 239.209 Q2145.79 240.435 2148.08 241.06 Q2150.38 241.662 2152.62 241.662 Q2155.63 241.662 2157.25 240.644 Q2158.87 239.602 2158.87 237.727 Q2158.87 235.991 2157.69 235.065 Q2156.53 234.139 2152.58 233.283 L2151.09 232.935 Q2147.14 232.102 2145.38 230.389 Q2143.62 228.653 2143.62 225.644 Q2143.62 221.986 2146.21 219.996 Q2148.8 218.005 2153.57 218.005 Q2155.93 218.005 2158.02 218.352 Q2160.1 218.699 2161.86 219.394 Z" fill="#000000" fill-rule="evenodd" fill-opacity="1" /><path clip-path="url(#clip660)" d="M 0 0 M2191.58 228.908 L2191.58 244.556 L2187.32 244.556 L2187.32 229.047 Q2187.32 225.366 2185.89 223.537 Q2184.45 221.709 2181.58 221.709 Q2178.13 221.709 2176.14 223.908 Q2174.15 226.107 2174.15 229.903 L2174.15 244.556 L2169.87 244.556 L2169.87 208.537 L2174.15 208.537 L2174.15 222.658 Q2175.68 220.32 2177.74 219.162 Q2179.82 218.005 2182.53 218.005 Q2187 218.005 2189.29 220.783 Q2191.58 223.537 2191.58 228.908 Z" fill="#000000" fill-rule="evenodd" fill-opacity="1" /><path clip-path="url(#clip660)" d="M 0 0 M2200.08 218.63 L2204.33 218.63 L2204.33 244.556 L2200.08 244.556 L2200.08 218.63 M2200.08 208.537 L2204.33 208.537 L2204.33 213.931 L2200.08 213.931 L2200.08 208.537 Z" fill="#000000" fill-rule="evenodd" fill-opacity="1" /><path clip-path="url(#clip660)" d="M 0 0 M2226.37 208.537 L2226.37 212.079 L2222.3 212.079 Q2220.01 212.079 2219.1 213.005 Q2218.22 213.931 2218.22 216.338 L2218.22 218.63 L2225.24 218.63 L2225.24 221.94 L2218.22 221.94 L2218.22 244.556 L2213.94 244.556 L2213.94 221.94 L2209.87 221.94 L2209.87 218.63 L2213.94 218.63 L2213.94 216.824 Q2213.94 212.496 2215.95 210.528 Q2217.97 208.537 2222.34 208.537 L2226.37 208.537 Z" fill="#000000" fill-rule="evenodd" fill-opacity="1" /><path clip-path="url(#clip660)" d="M 0 0 M2233.32 211.269 L2233.32 218.63 L2242.09 218.63 L2242.09 221.94 L2233.32 221.94 L2233.32 236.014 Q2233.32 239.185 2234.17 240.088 Q2235.05 240.991 2237.71 240.991 L2242.09 240.991 L2242.09 244.556 L2237.71 244.556 Q2232.78 244.556 2230.91 242.727 Q2229.03 240.875 2229.03 236.014 L2229.03 221.94 L2225.91 221.94 L2225.91 218.63 L2229.03 218.63 L2229.03 211.269 L2233.32 211.269 Z" fill="#000000" fill-rule="evenodd" fill-opacity="1" /></svg>
