<?xml version="1.0" encoding="utf-8"?>
<svg xmlns="http://www.w3.org/2000/svg" xmlns:xlink="http://www.w3.org/1999/xlink" width="576" height="384" viewBox="0 0 2304 1536">
<defs>
  <clipPath id="clip820">
    <rect x="0" y="0" width="2304" height="1536"/>
  </clipPath>
</defs>
<path clip-path="url(#clip820)" d="
M0 1536 L2304 1536 L2304 0 L0 0  Z
  " fill="#ffffff" fill-rule="evenodd" fill-opacity="1"/>
<defs>
  <clipPath id="clip821">
    <rect x="460" y="0" width="1614" height="1536"/>
  </clipPath>
</defs>
<defs>
  <clipPath id="clip822">
    <rect x="223" y="123" width="2035" height="1241"/>
  </clipPath>
</defs>
<path clip-path="url(#clip820)" d="
M264.102 1363.79 L2256.76 1363.79 L2256.76 123.472 L264.102 123.472  Z
  " fill="#ffffff" fill-rule="evenodd" fill-opacity="1"/>
<defs>
  <clipPath id="clip823">
    <rect x="264" y="123" width="1994" height="1241"/>
  </clipPath>
</defs>
<polyline clip-path="url(#clip823)" style="stroke:#000000; stroke-width:2; stroke-opacity:0.1; fill:none" points="
  320.497,1363.79 320.497,123.472 
  "/>
<polyline clip-path="url(#clip823)" style="stroke:#000000; stroke-width:2; stroke-opacity:0.1; fill:none" points="
  790.934,1363.79 790.934,123.472 
  "/>
<polyline clip-path="url(#clip823)" style="stroke:#000000; stroke-width:2; stroke-opacity:0.1; fill:none" points="
  1261.37,1363.79 1261.37,123.472 
  "/>
<polyline clip-path="url(#clip823)" style="stroke:#000000; stroke-width:2; stroke-opacity:0.1; fill:none" points="
  1731.81,1363.79 1731.81,123.472 
  "/>
<polyline clip-path="url(#clip823)" style="stroke:#000000; stroke-width:2; stroke-opacity:0.1; fill:none" points="
  2202.24,1363.79 2202.24,123.472 
  "/>
<polyline clip-path="url(#clip820)" style="stroke:#000000; stroke-width:4; stroke-opacity:1; fill:none" points="
  264.102,1363.79 2256.76,1363.79 
  "/>
<polyline clip-path="url(#clip820)" style="stroke:#000000; stroke-width:4; stroke-opacity:1; fill:none" points="
  320.497,1363.79 320.497,1348.91 
  "/>
<polyline clip-path="url(#clip820)" style="stroke:#000000; stroke-width:4; stroke-opacity:1; fill:none" points="
  790.934,1363.79 790.934,1348.91 
  "/>
<polyline clip-path="url(#clip820)" style="stroke:#000000; stroke-width:4; stroke-opacity:1; fill:none" points="
  1261.37,1363.79 1261.37,1348.91 
  "/>
<polyline clip-path="url(#clip820)" style="stroke:#000000; stroke-width:4; stroke-opacity:1; fill:none" points="
  1731.81,1363.79 1731.81,1348.91 
  "/>
<polyline clip-path="url(#clip820)" style="stroke:#000000; stroke-width:4; stroke-opacity:1; fill:none" points="
  2202.24,1363.79 2202.24,1348.91 
  "/>
<path clip-path="url(#clip820)" d="M 0 0 M297.882 1392.21 Q294.271 1392.21 292.442 1395.78 Q290.637 1399.32 290.637 1406.45 Q290.637 1413.56 292.442 1417.12 Q294.271 1420.66 297.882 1420.66 Q301.516 1420.66 303.322 1417.12 Q305.15 1413.56 305.15 1406.45 Q305.15 1399.32 303.322 1395.78 Q301.516 1392.21 297.882 1392.21 M297.882 1388.51 Q303.692 1388.51 306.748 1393.12 Q309.826 1397.7 309.826 1406.45 Q309.826 1415.18 306.748 1419.78 Q303.692 1424.37 297.882 1424.37 Q292.072 1424.37 288.993 1419.78 Q285.937 1415.18 285.937 1406.45 Q285.937 1397.7 288.993 1393.12 Q292.072 1388.51 297.882 1388.51 Z" fill="#000000" fill-rule="evenodd" fill-opacity="1" /><path clip-path="url(#clip820)" d="M 0 0 M318.044 1417.81 L322.928 1417.81 L322.928 1423.69 L318.044 1423.69 L318.044 1417.81 Z" fill="#000000" fill-rule="evenodd" fill-opacity="1" /><path clip-path="url(#clip820)" d="M 0 0 M343.113 1392.21 Q339.502 1392.21 337.673 1395.78 Q335.868 1399.32 335.868 1406.45 Q335.868 1413.56 337.673 1417.12 Q339.502 1420.66 343.113 1420.66 Q346.747 1420.66 348.553 1417.12 Q350.382 1413.56 350.382 1406.45 Q350.382 1399.32 348.553 1395.78 Q346.747 1392.21 343.113 1392.21 M343.113 1388.51 Q348.923 1388.51 351.979 1393.12 Q355.057 1397.7 355.057 1406.45 Q355.057 1415.18 351.979 1419.78 Q348.923 1424.37 343.113 1424.37 Q337.303 1424.37 334.224 1419.78 Q331.169 1415.18 331.169 1406.45 Q331.169 1397.7 334.224 1393.12 Q337.303 1388.51 343.113 1388.51 Z" fill="#000000" fill-rule="evenodd" fill-opacity="1" /><path clip-path="url(#clip820)" d="M 0 0 M762.67 1419.76 L778.989 1419.76 L778.989 1423.69 L757.045 1423.69 L757.045 1419.76 Q759.707 1417 764.29 1412.37 Q768.897 1407.72 770.077 1406.38 Q772.323 1403.86 773.202 1402.12 Q774.105 1400.36 774.105 1398.67 Q774.105 1395.92 772.16 1394.18 Q770.239 1392.44 767.137 1392.44 Q764.938 1392.44 762.485 1393.21 Q760.054 1393.97 757.276 1395.52 L757.276 1390.8 Q760.1 1389.67 762.554 1389.09 Q765.008 1388.51 767.045 1388.51 Q772.415 1388.51 775.61 1391.19 Q778.804 1393.88 778.804 1398.37 Q778.804 1400.5 777.994 1402.42 Q777.207 1404.32 775.1 1406.91 Q774.522 1407.58 771.42 1410.8 Q768.318 1413.99 762.67 1419.76 Z" fill="#000000" fill-rule="evenodd" fill-opacity="1" /><path clip-path="url(#clip820)" d="M 0 0 M788.804 1417.81 L793.688 1417.81 L793.688 1423.69 L788.804 1423.69 L788.804 1417.81 Z" fill="#000000" fill-rule="evenodd" fill-opacity="1" /><path clip-path="url(#clip820)" d="M 0 0 M803.92 1389.13 L822.276 1389.13 L822.276 1393.07 L808.202 1393.07 L808.202 1401.54 Q809.22 1401.19 810.239 1401.03 Q811.258 1400.85 812.276 1400.85 Q818.063 1400.85 821.443 1404.02 Q824.822 1407.19 824.822 1412.61 Q824.822 1418.18 821.35 1421.29 Q817.878 1424.37 811.558 1424.37 Q809.383 1424.37 807.114 1423.99 Q804.869 1423.62 802.461 1422.88 L802.461 1418.18 Q804.545 1419.32 806.767 1419.87 Q808.989 1420.43 811.466 1420.43 Q815.47 1420.43 817.808 1418.32 Q820.146 1416.22 820.146 1412.61 Q820.146 1408.99 817.808 1406.89 Q815.47 1404.78 811.466 1404.78 Q809.591 1404.78 807.716 1405.2 Q805.864 1405.62 803.92 1406.49 L803.92 1389.13 Z" fill="#000000" fill-rule="evenodd" fill-opacity="1" /><path clip-path="url(#clip820)" d="M 0 0 M1228.53 1389.13 L1246.89 1389.13 L1246.89 1393.07 L1232.82 1393.07 L1232.82 1401.54 Q1233.84 1401.19 1234.85 1401.03 Q1235.87 1400.85 1236.89 1400.85 Q1242.68 1400.85 1246.06 1404.02 Q1249.44 1407.19 1249.44 1412.61 Q1249.44 1418.18 1245.96 1421.29 Q1242.49 1424.37 1236.17 1424.37 Q1234 1424.37 1231.73 1423.99 Q1229.48 1423.62 1227.08 1422.88 L1227.08 1418.18 Q1229.16 1419.32 1231.38 1419.87 Q1233.6 1420.43 1236.08 1420.43 Q1240.09 1420.43 1242.42 1418.32 Q1244.76 1416.22 1244.76 1412.61 Q1244.76 1408.99 1242.42 1406.89 Q1240.09 1404.78 1236.08 1404.78 Q1234.21 1404.78 1232.33 1405.2 Q1230.48 1405.62 1228.53 1406.49 L1228.53 1389.13 Z" fill="#000000" fill-rule="evenodd" fill-opacity="1" /><path clip-path="url(#clip820)" d="M 0 0 M1258.65 1417.81 L1263.53 1417.81 L1263.53 1423.69 L1258.65 1423.69 L1258.65 1417.81 Z" fill="#000000" fill-rule="evenodd" fill-opacity="1" /><path clip-path="url(#clip820)" d="M 0 0 M1283.72 1392.21 Q1280.11 1392.21 1278.28 1395.78 Q1276.47 1399.32 1276.47 1406.45 Q1276.47 1413.56 1278.28 1417.12 Q1280.11 1420.66 1283.72 1420.66 Q1287.35 1420.66 1289.16 1417.12 Q1290.99 1413.56 1290.99 1406.45 Q1290.99 1399.32 1289.16 1395.78 Q1287.35 1392.21 1283.72 1392.21 M1283.72 1388.51 Q1289.53 1388.51 1292.58 1393.12 Q1295.66 1397.7 1295.66 1406.45 Q1295.66 1415.18 1292.58 1419.78 Q1289.53 1424.37 1283.72 1424.37 Q1277.91 1424.37 1274.83 1419.78 Q1271.77 1415.18 1271.77 1406.45 Q1271.77 1397.7 1274.83 1393.12 Q1277.91 1388.51 1283.72 1388.51 Z" fill="#000000" fill-rule="evenodd" fill-opacity="1" /><path clip-path="url(#clip820)" d="M 0 0 M1698.13 1389.13 L1720.35 1389.13 L1720.35 1391.12 L1707.8 1423.69 L1702.92 1423.69 L1714.72 1393.07 L1698.13 1393.07 L1698.13 1389.13 Z" fill="#000000" fill-rule="evenodd" fill-opacity="1" /><path clip-path="url(#clip820)" d="M 0 0 M1729.47 1417.81 L1734.35 1417.81 L1734.35 1423.69 L1729.47 1423.69 L1729.47 1417.81 Z" fill="#000000" fill-rule="evenodd" fill-opacity="1" /><path clip-path="url(#clip820)" d="M 0 0 M1744.58 1389.13 L1762.94 1389.13 L1762.94 1393.07 L1748.87 1393.07 L1748.87 1401.54 Q1749.88 1401.19 1750.9 1401.03 Q1751.92 1400.85 1752.94 1400.85 Q1758.73 1400.85 1762.11 1404.02 Q1765.49 1407.19 1765.49 1412.61 Q1765.49 1418.18 1762.01 1421.29 Q1758.54 1424.37 1752.22 1424.37 Q1750.05 1424.37 1747.78 1423.99 Q1745.53 1423.62 1743.13 1422.88 L1743.13 1418.18 Q1745.21 1419.32 1747.43 1419.87 Q1749.65 1420.43 1752.13 1420.43 Q1756.13 1420.43 1758.47 1418.32 Q1760.81 1416.22 1760.81 1412.61 Q1760.81 1408.99 1758.47 1406.89 Q1756.13 1404.78 1752.13 1404.78 Q1750.25 1404.78 1748.38 1405.2 Q1746.53 1405.62 1744.58 1406.49 L1744.58 1389.13 Z" fill="#000000" fill-rule="evenodd" fill-opacity="1" /><path clip-path="url(#clip820)" d="M 0 0 M2154.31 1419.76 L2161.95 1419.76 L2161.95 1393.39 L2153.64 1395.06 L2153.64 1390.8 L2161.91 1389.13 L2166.58 1389.13 L2166.58 1419.76 L2174.22 1419.76 L2174.22 1423.69 L2154.31 1423.69 L2154.31 1419.76 Z" fill="#000000" fill-rule="evenodd" fill-opacity="1" /><path clip-path="url(#clip820)" d="M 0 0 M2193.67 1392.21 Q2190.05 1392.21 2188.23 1395.78 Q2186.42 1399.32 2186.42 1406.45 Q2186.42 1413.56 2188.23 1417.12 Q2190.05 1420.66 2193.67 1420.66 Q2197.3 1420.66 2199.11 1417.12 Q2200.93 1413.56 2200.93 1406.45 Q2200.93 1399.32 2199.11 1395.78 Q2197.3 1392.21 2193.67 1392.21 M2193.67 1388.51 Q2199.48 1388.51 2202.53 1393.12 Q2205.61 1397.7 2205.61 1406.45 Q2205.61 1415.18 2202.53 1419.78 Q2199.48 1424.37 2193.67 1424.37 Q2187.86 1424.37 2184.78 1419.78 Q2181.72 1415.18 2181.72 1406.45 Q2181.72 1397.7 2184.78 1393.12 Q2187.86 1388.51 2193.67 1388.51 Z" fill="#000000" fill-rule="evenodd" fill-opacity="1" /><path clip-path="url(#clip820)" d="M 0 0 M2213.83 1417.81 L2218.71 1417.81 L2218.71 1423.69 L2213.83 1423.69 L2213.83 1417.81 Z" fill="#000000" fill-rule="evenodd" fill-opacity="1" /><path clip-path="url(#clip820)" d="M 0 0 M2238.9 1392.21 Q2235.29 1392.21 2233.46 1395.78 Q2231.65 1399.32 2231.65 1406.45 Q2231.65 1413.56 2233.46 1417.12 Q2235.29 1420.66 2238.9 1420.66 Q2242.53 1420.66 2244.34 1417.12 Q2246.17 1413.56 2246.17 1406.45 Q2246.17 1399.32 2244.34 1395.78 Q2242.53 1392.21 2238.9 1392.21 M2238.9 1388.51 Q2244.71 1388.51 2247.76 1393.12 Q2250.84 1397.7 2250.84 1406.45 Q2250.84 1415.18 2247.76 1419.78 Q2244.71 1424.37 2238.9 1424.37 Q2233.09 1424.37 2230.01 1419.78 Q2226.95 1415.18 2226.95 1406.45 Q2226.95 1397.7 2230.01 1393.12 Q2233.09 1388.51 2238.9 1388.51 Z" fill="#000000" fill-rule="evenodd" fill-opacity="1" /><path clip-path="url(#clip820)" d="M 0 0 M1210.96 1465.79 Q1210.96 1468.04 1207.71 1468.04 L1196.63 1468.04 L1192.22 1490.62 Q1192.12 1491.2 1191.99 1491.52 Q1191.89 1491.84 1191.6 1492.39 Q1191.35 1492.9 1190.8 1493.16 Q1190.28 1493.45 1189.51 1493.45 Q1188.54 1493.45 1188.06 1492.87 Q1187.61 1492.33 1187.61 1491.65 Q1187.61 1491.23 1188.25 1489.23 L1194.73 1468.04 L1189.25 1468.04 Q1184.1 1468.04 1180.88 1473.13 Q1180.36 1473.81 1180.07 1473.87 Q1179.95 1473.9 1179.82 1473.9 Q1179.46 1473.9 1179.24 1473.74 Q1179.04 1473.58 1179.04 1473.42 L1179.01 1473.26 Q1179.01 1473.03 1179.53 1472.13 Q1180.07 1471.2 1181.04 1469.81 Q1182.04 1468.43 1183.04 1467.33 Q1184.36 1465.92 1185.84 1465.18 Q1187.32 1464.4 1188.06 1464.31 Q1188.83 1464.21 1189.83 1464.21 L1208.32 1464.21 Q1209.16 1464.21 1209.61 1464.27 Q1210.06 1464.31 1210.51 1464.69 Q1210.96 1465.05 1210.96 1465.79 Z" fill="#000000" fill-rule="evenodd" fill-opacity="1" /><path clip-path="url(#clip820)" d="M 0 0 M1229.25 1476.16 Q1229.25 1465.01 1233.4 1456.03 Q1235.18 1452.26 1237.66 1449.11 Q1240.14 1445.95 1241.78 1444.56 Q1243.42 1443.18 1243.87 1443.18 Q1244.52 1443.18 1244.55 1443.82 Q1244.55 1444.15 1243.68 1444.95 Q1233.05 1455.77 1233.08 1476.16 Q1233.08 1496.61 1243.42 1507.01 Q1244.55 1508.14 1244.55 1508.49 Q1244.55 1509.14 1243.87 1509.14 Q1243.42 1509.14 1241.84 1507.82 Q1240.26 1506.5 1237.82 1503.47 Q1235.37 1500.44 1233.6 1496.74 Q1229.25 1487.75 1229.25 1476.16 Z" fill="#000000" fill-rule="evenodd" fill-opacity="1" /><path clip-path="url(#clip820)" d="M 0 0 M1254.58 1492.65 L1254.58 1490.62 Q1258.09 1490.62 1258.89 1490.2 Q1259.7 1489.75 1259.7 1487.62 L1259.7 1469.94 Q1259.7 1467.49 1258.83 1466.88 Q1257.99 1466.27 1254.58 1466.27 L1254.58 1464.21 L1263.85 1463.5 L1263.85 1470.43 Q1266.94 1463.5 1273.61 1463.5 Q1278.57 1463.5 1280.53 1465.95 Q1281.98 1467.59 1282.27 1469.43 Q1282.59 1471.26 1282.59 1476.03 L1282.59 1488.62 Q1282.66 1490.01 1283.72 1490.33 Q1284.78 1490.62 1287.75 1490.62 L1287.75 1492.65 Q1281.02 1492.45 1280.34 1492.45 Q1279.83 1492.45 1272.9 1492.65 L1272.9 1490.62 Q1276.41 1490.62 1277.22 1490.2 Q1278.05 1489.75 1278.05 1487.62 L1278.05 1472.26 Q1278.05 1468.91 1277.02 1466.95 Q1275.99 1464.95 1273.16 1464.95 Q1269.74 1464.95 1267.01 1467.82 Q1264.27 1470.68 1264.27 1475.51 L1264.27 1487.62 Q1264.27 1489.75 1265.07 1490.2 Q1265.91 1490.62 1269.39 1490.62 L1269.39 1492.65 Q1262.66 1492.45 1262.02 1492.45 Q1261.5 1492.45 1254.58 1492.65 Z" fill="#000000" fill-rule="evenodd" fill-opacity="1" /><path clip-path="url(#clip820)" d="M 0 0 M1290.81 1491.78 L1290.81 1483.08 Q1290.81 1482.34 1290.84 1482.08 Q1290.88 1481.83 1291.07 1481.63 Q1291.26 1481.44 1291.65 1481.44 Q1292.1 1481.44 1292.26 1481.63 Q1292.45 1481.83 1292.58 1482.57 Q1293.58 1487.11 1295.71 1489.52 Q1297.86 1491.91 1301.76 1491.91 Q1305.46 1491.91 1307.33 1490.26 Q1309.2 1488.62 1309.2 1485.92 Q1309.2 1481.09 1302.34 1479.86 Q1298.38 1479.06 1296.74 1478.54 Q1295.09 1477.99 1293.64 1476.8 Q1290.81 1474.48 1290.81 1471.2 Q1290.81 1467.91 1293.29 1465.5 Q1295.8 1463.08 1301.34 1463.08 Q1305.05 1463.08 1307.56 1464.95 Q1308.3 1464.37 1308.68 1463.89 Q1309.55 1463.08 1310.01 1463.08 Q1310.52 1463.08 1310.62 1463.44 Q1310.71 1463.76 1310.71 1464.69 L1310.71 1471.33 Q1310.71 1472.07 1310.68 1472.33 Q1310.65 1472.58 1310.46 1472.78 Q1310.26 1472.94 1309.84 1472.94 Q1309.1 1472.94 1309.07 1472.33 Q1308.56 1464.34 1301.34 1464.34 Q1297.45 1464.34 1295.71 1465.85 Q1293.97 1467.33 1293.97 1469.36 Q1293.97 1470.49 1294.48 1471.36 Q1295.03 1472.2 1295.71 1472.71 Q1296.41 1473.2 1297.7 1473.68 Q1298.99 1474.13 1299.76 1474.29 Q1300.57 1474.45 1302.08 1474.77 Q1307.36 1475.77 1309.59 1477.93 Q1312.36 1480.7 1312.36 1484.21 Q1312.36 1488.11 1309.72 1490.75 Q1307.07 1493.39 1301.76 1493.39 Q1297.48 1493.39 1294.48 1490.52 Q1294.1 1490.91 1293.81 1491.26 Q1293.52 1491.58 1293.39 1491.71 Q1293.29 1491.84 1293.26 1491.94 Q1293.23 1492 1293.16 1492.07 Q1291.84 1493.39 1291.52 1493.39 Q1291 1493.39 1290.91 1493.03 Q1290.81 1492.71 1290.81 1491.78 Z" fill="#000000" fill-rule="evenodd" fill-opacity="1" /><path clip-path="url(#clip820)" d="M 0 0 M1316.52 1508.49 Q1316.52 1508.17 1317.36 1507.37 Q1327.98 1496.54 1327.98 1476.16 Q1327.98 1455.71 1317.78 1445.37 Q1316.52 1444.18 1316.52 1443.82 Q1316.52 1443.18 1317.16 1443.18 Q1317.61 1443.18 1319.19 1444.5 Q1320.8 1445.82 1323.22 1448.85 Q1325.67 1451.87 1327.47 1455.58 Q1331.82 1464.56 1331.82 1476.16 Q1331.82 1487.3 1327.66 1496.29 Q1325.89 1500.05 1323.41 1503.21 Q1320.93 1506.37 1319.29 1507.75 Q1317.65 1509.14 1317.16 1509.14 Q1316.52 1509.14 1316.52 1508.49 Z" fill="#000000" fill-rule="evenodd" fill-opacity="1" /><polyline clip-path="url(#clip823)" style="stroke:#000000; stroke-width:2; stroke-opacity:0.1; fill:none" points="
  264.102,1259.72 2256.76,1259.72 
  "/>
<polyline clip-path="url(#clip823)" style="stroke:#000000; stroke-width:2; stroke-opacity:0.1; fill:none" points="
  264.102,1015.05 2256.76,1015.05 
  "/>
<polyline clip-path="url(#clip823)" style="stroke:#000000; stroke-width:2; stroke-opacity:0.1; fill:none" points="
  264.102,770.375 2256.76,770.375 
  "/>
<polyline clip-path="url(#clip823)" style="stroke:#000000; stroke-width:2; stroke-opacity:0.1; fill:none" points="
  264.102,525.702 2256.76,525.702 
  "/>
<polyline clip-path="url(#clip823)" style="stroke:#000000; stroke-width:2; stroke-opacity:0.1; fill:none" points="
  264.102,281.03 2256.76,281.03 
  "/>
<polyline clip-path="url(#clip820)" style="stroke:#000000; stroke-width:4; stroke-opacity:1; fill:none" points="
  264.102,1363.79 264.102,123.472 
  "/>
<polyline clip-path="url(#clip820)" style="stroke:#000000; stroke-width:4; stroke-opacity:1; fill:none" points="
  264.102,1259.72 288.013,1259.72 
  "/>
<polyline clip-path="url(#clip820)" style="stroke:#000000; stroke-width:4; stroke-opacity:1; fill:none" points="
  264.102,1015.05 288.013,1015.05 
  "/>
<polyline clip-path="url(#clip820)" style="stroke:#000000; stroke-width:4; stroke-opacity:1; fill:none" points="
  264.102,770.375 288.013,770.375 
  "/>
<polyline clip-path="url(#clip820)" style="stroke:#000000; stroke-width:4; stroke-opacity:1; fill:none" points="
  264.102,525.702 288.013,525.702 
  "/>
<polyline clip-path="url(#clip820)" style="stroke:#000000; stroke-width:4; stroke-opacity:1; fill:none" points="
  264.102,281.03 288.013,281.03 
  "/>
<path clip-path="url(#clip820)" d="M 0 0 M178.246 1273.06 L185.884 1273.06 L185.884 1246.7 L177.574 1248.37 L177.574 1244.11 L185.838 1242.44 L190.514 1242.44 L190.514 1273.06 L198.153 1273.06 L198.153 1277 L178.246 1277 L178.246 1273.06 Z" fill="#000000" fill-rule="evenodd" fill-opacity="1" /><path clip-path="url(#clip820)" d="M 0 0 M217.597 1245.52 Q213.986 1245.52 212.157 1249.08 Q210.352 1252.62 210.352 1259.75 Q210.352 1266.86 212.157 1270.43 Q213.986 1273.97 217.597 1273.97 Q221.231 1273.97 223.037 1270.43 Q224.866 1266.86 224.866 1259.75 Q224.866 1252.62 223.037 1249.08 Q221.231 1245.52 217.597 1245.52 M217.597 1241.81 Q223.407 1241.81 226.463 1246.42 Q229.542 1251 229.542 1259.75 Q229.542 1268.48 226.463 1273.09 Q223.407 1277.67 217.597 1277.67 Q211.787 1277.67 208.708 1273.09 Q205.653 1268.48 205.653 1259.75 Q205.653 1251 208.708 1246.42 Q211.787 1241.81 217.597 1241.81 Z" fill="#000000" fill-rule="evenodd" fill-opacity="1" /><path clip-path="url(#clip820)" d="M 0 0 M179.843 1028.39 L187.482 1028.39 L187.482 1002.03 L179.171 1003.69 L179.171 999.434 L187.435 997.767 L192.111 997.767 L192.111 1028.39 L199.75 1028.39 L199.75 1032.33 L179.843 1032.33 L179.843 1028.39 Z" fill="#000000" fill-rule="evenodd" fill-opacity="1" /><path clip-path="url(#clip820)" d="M 0 0 M213.222 1028.39 L229.542 1028.39 L229.542 1032.33 L207.597 1032.33 L207.597 1028.39 Q210.259 1025.64 214.843 1021.01 Q219.449 1016.35 220.63 1015.01 Q222.875 1012.49 223.755 1010.75 Q224.657 1008.99 224.657 1007.3 Q224.657 1004.55 222.713 1002.81 Q220.792 1001.08 217.69 1001.08 Q215.491 1001.08 213.037 1001.84 Q210.606 1002.6 207.829 1004.16 L207.829 999.434 Q210.653 998.299 213.106 997.721 Q215.56 997.142 217.597 997.142 Q222.968 997.142 226.162 999.827 Q229.356 1002.51 229.356 1007 Q229.356 1009.13 228.546 1011.05 Q227.759 1012.95 225.653 1015.54 Q225.074 1016.22 221.972 1019.43 Q218.87 1022.63 213.222 1028.39 Z" fill="#000000" fill-rule="evenodd" fill-opacity="1" /><path clip-path="url(#clip820)" d="M 0 0 M177.759 783.719 L185.398 783.719 L185.398 757.354 L177.088 759.02 L177.088 754.761 L185.352 753.095 L190.028 753.095 L190.028 783.719 L197.667 783.719 L197.667 787.655 L177.759 787.655 L177.759 783.719 Z" fill="#000000" fill-rule="evenodd" fill-opacity="1" /><path clip-path="url(#clip820)" d="M 0 0 M219.958 757.169 L208.153 775.618 L219.958 775.618 L219.958 757.169 M218.731 753.095 L224.611 753.095 L224.611 775.618 L229.542 775.618 L229.542 779.506 L224.611 779.506 L224.611 787.655 L219.958 787.655 L219.958 779.506 L204.357 779.506 L204.357 774.993 L218.731 753.095 Z" fill="#000000" fill-rule="evenodd" fill-opacity="1" /><path clip-path="url(#clip820)" d="M 0 0 M178.084 539.047 L185.722 539.047 L185.722 512.681 L177.412 514.348 L177.412 510.089 L185.676 508.422 L190.352 508.422 L190.352 539.047 L197.991 539.047 L197.991 542.982 L178.084 542.982 L178.084 539.047 Z" fill="#000000" fill-rule="evenodd" fill-opacity="1" /><path clip-path="url(#clip820)" d="M 0 0 M218.014 523.839 Q214.866 523.839 213.014 525.991 Q211.185 528.144 211.185 531.894 Q211.185 535.621 213.014 537.797 Q214.866 539.95 218.014 539.95 Q221.162 539.95 222.991 537.797 Q224.843 535.621 224.843 531.894 Q224.843 528.144 222.991 525.991 Q221.162 523.839 218.014 523.839 M227.296 509.186 L227.296 513.445 Q225.537 512.612 223.731 512.172 Q221.949 511.732 220.19 511.732 Q215.56 511.732 213.106 514.857 Q210.676 517.982 210.329 524.302 Q211.694 522.288 213.755 521.223 Q215.815 520.135 218.292 520.135 Q223.5 520.135 226.509 523.306 Q229.542 526.454 229.542 531.894 Q229.542 537.218 226.393 540.436 Q223.245 543.653 218.014 543.653 Q212.019 543.653 208.847 539.07 Q205.676 534.464 205.676 525.737 Q205.676 517.542 209.565 512.681 Q213.454 507.797 220.005 507.797 Q221.764 507.797 223.546 508.144 Q225.352 508.492 227.296 509.186 Z" fill="#000000" fill-rule="evenodd" fill-opacity="1" /><path clip-path="url(#clip820)" d="M 0 0 M178.338 294.374 L185.977 294.374 L185.977 268.009 L177.667 269.676 L177.667 265.416 L185.931 263.75 L190.607 263.75 L190.607 294.374 L198.245 294.374 L198.245 298.31 L178.338 298.31 L178.338 294.374 Z" fill="#000000" fill-rule="evenodd" fill-opacity="1" /><path clip-path="url(#clip820)" d="M 0 0 M217.69 281.898 Q214.356 281.898 212.435 283.68 Q210.537 285.462 210.537 288.587 Q210.537 291.712 212.435 293.495 Q214.356 295.277 217.69 295.277 Q221.023 295.277 222.944 293.495 Q224.866 291.689 224.866 288.587 Q224.866 285.462 222.944 283.68 Q221.046 281.898 217.69 281.898 M213.014 279.907 Q210.005 279.166 208.315 277.106 Q206.648 275.046 206.648 272.083 Q206.648 267.939 209.588 265.532 Q212.551 263.125 217.69 263.125 Q222.852 263.125 225.792 265.532 Q228.731 267.939 228.731 272.083 Q228.731 275.046 227.042 277.106 Q225.375 279.166 222.389 279.907 Q225.768 280.694 227.643 282.986 Q229.542 285.277 229.542 288.587 Q229.542 293.611 226.463 296.296 Q223.407 298.981 217.69 298.981 Q211.972 298.981 208.894 296.296 Q205.838 293.611 205.838 288.587 Q205.838 285.277 207.736 282.986 Q209.634 280.694 213.014 279.907 M211.301 272.523 Q211.301 275.208 212.968 276.713 Q214.657 278.217 217.69 278.217 Q220.699 278.217 222.389 276.713 Q224.102 275.208 224.102 272.523 Q224.102 269.838 222.389 268.333 Q220.699 266.828 217.69 266.828 Q214.657 266.828 212.968 268.333 Q211.301 269.838 211.301 272.523 Z" fill="#000000" fill-rule="evenodd" fill-opacity="1" /><path clip-path="url(#clip820)" d="M 0 0 M96.5483 796.326 L112.973 801.994 L112.973 856.679 Q112.973 857.42 112.941 857.71 Q112.909 858 112.748 858.225 Q112.587 858.451 112.233 858.451 Q111.943 858.451 111.202 857.871 L82.2489 834.457 L49.1412 858.515 Q47.6276 858.515 47.3377 858.257 Q47.0157 858 47.0157 856.679 L47.0157 801.994 L62.4423 796.326 L62.4423 797.968 Q60.4455 798.709 58.7708 799.9 Q57.0639 801.06 55.8401 802.412 Q54.6162 803.733 53.6501 805.472 Q52.6517 807.179 52.0398 808.789 Q51.3957 810.367 50.9448 812.332 Q50.4617 814.296 50.2362 815.874 Q49.9786 817.42 49.8498 819.353 Q49.7209 821.285 49.6887 822.509 Q49.6565 823.733 49.6565 825.279 L49.6565 851.398 L79.0605 829.981 Q79.8012 829.498 79.9945 829.498 Q80.2843 829.498 81.0572 830.109 L109.334 852.976 L109.334 824.957 Q109.334 815.939 107.434 809.659 Q105.985 805.408 103.118 802.316 Q100.252 799.192 96.5483 797.968 L96.5483 796.326 Z" fill="#000000" fill-rule="evenodd" fill-opacity="1" /><path clip-path="url(#clip820)" d="M 0 0 M129.637 869.523 Q130.629 869.523 131.373 870.334 Q132.095 871.123 132.095 871.98 Q132.095 872.769 131.621 873.265 Q131.125 873.738 130.426 873.738 Q129.502 873.738 128.736 872.949 Q127.969 872.16 127.969 871.236 Q127.969 870.469 128.443 869.996 Q128.916 869.523 129.637 869.523 M151.888 869.117 Q152.069 869.117 152.79 869.32 Q153.489 869.523 154.571 870.018 Q155.631 870.492 156.623 871.146 Q157.615 871.799 158.314 872.882 Q159.012 873.941 159.012 875.159 Q159.012 876.804 157.93 877.886 Q156.848 878.946 155.225 878.946 Q154.346 878.946 151.528 877.886 Q143.322 874.82 142.984 874.708 Q141.699 874.189 140.571 874.189 Q140.053 874.189 139.737 874.302 Q139.399 874.415 139.286 874.64 Q139.151 874.865 139.128 875.001 Q139.106 875.113 139.106 875.339 Q139.106 876.669 140.459 877.909 Q141.811 879.149 144.832 880.006 Q145.396 880.186 145.531 880.299 Q145.666 880.411 145.666 880.749 Q145.644 881.313 145.193 881.313 Q145.058 881.313 144.539 881.155 Q143.998 880.997 143.186 880.704 Q142.352 880.411 141.496 879.893 Q140.616 879.374 139.85 878.743 Q139.083 878.089 138.587 877.165 Q138.091 876.241 138.091 875.204 Q138.091 873.513 139.196 872.476 Q140.278 871.416 141.879 871.416 Q142.758 871.416 144.314 872.025 Q146.343 872.769 146.996 873.039 L151.843 874.843 Q153.602 875.497 154.143 875.7 Q154.661 875.88 155.293 876.038 Q155.901 876.173 156.465 876.173 Q157.254 876.173 157.615 875.925 Q157.975 875.655 157.975 875.068 Q157.975 873.445 156.375 872.25 Q154.752 871.056 152.272 870.357 Q152.204 870.334 152.091 870.312 Q151.528 870.131 151.46 869.951 Q151.438 869.861 151.438 869.68 Q151.438 869.117 151.888 869.117 Z" fill="#000000" fill-rule="evenodd" fill-opacity="1" /><path clip-path="url(#clip820)" d="M 0 0 M151.483 852.74 Q150.919 852.695 150.919 851.816 L150.919 823.523 Q150.919 822.193 151.438 822.17 Q152.001 822.17 151.979 823.433 L151.979 851.5 Q152.001 852.74 151.483 852.74 M142.465 852.74 Q141.901 852.74 141.924 851.771 L141.924 823.568 Q141.924 822.193 142.465 822.17 Q142.984 822.17 142.984 823.342 L142.984 851.816 Q142.984 852.74 142.465 852.74 Z" fill="#000000" fill-rule="evenodd" fill-opacity="1" /><path clip-path="url(#clip820)" d="M 0 0 M132.14 804.362 L130.697 804.362 Q130.697 798.816 127.744 795.953 Q127.744 795.164 127.924 795.029 Q128.104 794.893 128.939 794.893 L154.842 794.893 Q156.217 794.893 156.645 794.217 Q157.074 793.541 157.074 790.588 L157.074 789.122 L158.494 789.122 Q158.359 790.745 158.359 796.607 Q158.359 802.468 158.494 804.069 L157.074 804.069 L157.074 802.604 Q157.074 799.695 156.668 798.996 Q156.239 798.298 154.842 798.298 L130.922 798.298 Q132.14 800.71 132.14 804.362 Z" fill="#000000" fill-rule="evenodd" fill-opacity="1" /><path clip-path="url(#clip820)" d="M 0 0 M-1.6977 852.421 L-3.14052 852.421 Q-3.14052 846.876 -6.0938 844.012 Q-6.0938 843.223 -5.91345 843.088 Q-5.73309 842.953 -4.89896 842.953 L21.0042 842.953 Q22.3794 842.953 22.8077 842.277 Q23.2361 841.6 23.2361 838.647 L23.2361 837.182 L24.6564 837.182 Q24.5211 838.805 24.5211 844.666 Q24.5211 850.528 24.6564 852.128 L23.2361 852.128 L23.2361 850.663 Q23.2361 847.755 22.8303 847.056 Q22.4019 846.357 21.0042 846.357 L-2.91508 846.357 Q-1.6977 848.769 -1.6977 852.421 Z" fill="#000000" fill-rule="evenodd" fill-opacity="1" /><path clip-path="url(#clip820)" d="M 0 0 M9.88997 833.254 Q3.1042 833.254 -0.593038 831.54 Q-6.0938 829.151 -6.0938 823.515 Q-6.0938 822.32 -5.75564 821.08 Q-5.44002 819.817 -4.20009 818.239 Q-2.96017 816.639 -0.931199 815.669 Q2.99147 813.821 9.88997 813.821 Q16.6307 813.821 20.3053 815.534 Q25.6708 818.036 25.6708 823.56 Q25.6708 825.634 24.6113 827.753 Q23.5517 829.849 21.0042 831.18 Q17.1943 833.254 9.88997 833.254 M9.32637 829.421 Q16.2925 829.421 19.0654 828.925 Q22.0638 828.362 23.3713 826.829 Q24.6564 825.273 24.6564 823.56 Q24.6564 821.711 23.2812 820.178 Q21.8834 818.623 18.8851 818.149 Q15.9318 817.631 9.32637 817.653 Q2.9013 817.653 0.33127 818.104 Q-2.6671 818.713 -3.86193 820.336 Q-5.07931 821.937 -5.07931 823.56 Q-5.07931 824.168 -4.89896 824.822 Q-4.71861 825.453 -4.20009 826.378 Q-3.68158 827.302 -2.39657 828.023 Q-1.11155 828.722 0.827241 829.06 Q3.32964 829.421 9.32637 829.421 Z" fill="#000000" fill-rule="evenodd" fill-opacity="1" /><path clip-path="url(#clip820)" d="M 0 0 M70.4293 737.145 Q70.4615 737.145 71.6209 737.338 L100.896 744.681 Q102.442 745.067 103.988 746.162 Q105.566 747.225 106.919 748.932 Q108.303 750.607 109.141 753.183 Q110.01 755.727 110.01 758.658 Q110.01 763.328 109.012 765.389 Q108.046 767.418 105.985 767.418 Q104.181 767.418 103.15 766.291 Q102.152 765.164 102.152 763.876 Q102.152 762.652 102.861 762.008 Q103.569 761.364 104.471 761.364 Q105.469 761.364 106.468 762.04 Q107.498 762.716 107.885 764.069 Q108.561 761.911 108.561 758.787 Q108.561 752.185 101.572 749.351 Q101.476 749.286 101.444 749.286 L92.7158 747.096 L92.6514 747.193 Q93.2955 747.74 94.0362 748.61 Q94.7447 749.447 95.6143 751.251 Q96.4839 753.054 96.4839 754.826 Q96.4839 758.529 93.6497 761.074 Q90.7834 763.586 86.0492 763.586 Q82.6031 763.586 79.1571 762.201 Q75.6789 760.784 73.1346 758.594 Q70.5581 756.372 68.9478 753.537 Q67.3376 750.671 67.3376 747.901 Q67.3376 745.969 68.497 744.327 Q69.6242 742.684 71.4921 741.782 Q69.9462 741.621 69.3021 740.752 Q68.658 739.85 68.658 739.077 Q68.658 738.208 69.1411 737.692 Q69.592 737.145 70.4293 737.145 M74.455 742.555 Q74.2618 742.555 73.7465 742.684 Q73.199 742.813 72.3295 743.199 Q71.4599 743.554 70.687 744.101 Q69.914 744.649 69.3665 745.647 Q68.7868 746.613 68.7868 747.837 Q68.7868 749.834 70.4615 751.831 Q72.104 753.827 74.6483 755.212 Q77.0959 756.5 81.8302 757.724 Q86.5645 758.916 88.9799 758.916 Q91.3631 758.916 93.1989 757.885 Q95.0346 756.855 95.0346 754.632 Q95.0346 752.056 92.6514 749.286 Q90.1715 746.42 88.0459 745.937 L75.4534 742.749 Q74.6805 742.555 74.455 742.555 Z" fill="#000000" fill-rule="evenodd" fill-opacity="1" /><path clip-path="url(#clip820)" d="M 0 0 M99.1601 718.618 Q100.152 718.618 100.896 719.429 Q101.617 720.218 101.617 721.075 Q101.617 721.864 101.144 722.36 Q100.648 722.833 99.9491 722.833 Q99.0248 722.833 98.2583 722.044 Q97.4918 721.255 97.4918 720.331 Q97.4918 719.565 97.9653 719.091 Q98.4387 718.618 99.1601 718.618 M121.411 718.212 Q121.591 718.212 122.313 718.415 Q123.012 718.618 124.094 719.114 Q125.153 719.587 126.145 720.241 Q127.137 720.895 127.836 721.977 Q128.535 723.036 128.535 724.254 Q128.535 725.899 127.453 726.982 Q126.371 728.041 124.748 728.041 Q123.868 728.041 121.05 726.982 Q112.844 723.916 112.506 723.803 Q111.221 723.284 110.094 723.284 Q109.575 723.284 109.26 723.397 Q108.922 723.51 108.809 723.735 Q108.674 723.961 108.651 724.096 Q108.629 724.209 108.629 724.434 Q108.629 725.764 109.981 727.004 Q111.334 728.244 114.355 729.101 Q114.918 729.281 115.054 729.394 Q115.189 729.506 115.189 729.845 Q115.166 730.408 114.716 730.408 Q114.58 730.408 114.062 730.25 Q113.521 730.093 112.709 729.8 Q111.875 729.506 111.018 728.988 Q110.139 728.469 109.373 727.838 Q108.606 727.184 108.11 726.26 Q107.614 725.336 107.614 724.299 Q107.614 722.608 108.719 721.571 Q109.801 720.511 111.402 720.511 Q112.281 720.511 113.836 721.12 Q115.865 721.864 116.519 722.135 L121.366 723.938 Q123.124 724.592 123.666 724.795 Q124.184 724.975 124.815 725.133 Q125.424 725.268 125.988 725.268 Q126.777 725.268 127.137 725.02 Q127.498 724.75 127.498 724.164 Q127.498 722.54 125.897 721.345 Q124.274 720.151 121.794 719.452 Q121.727 719.429 121.614 719.407 Q121.05 719.226 120.983 719.046 Q120.96 718.956 120.96 718.775 Q120.96 718.212 121.411 718.212 Z" fill="#000000" fill-rule="evenodd" fill-opacity="1" /><path clip-path="url(#clip820)" d="M 0 0 M54.9347 730.408 Q47.1344 730.408 40.8446 727.5 Q38.207 726.26 35.9976 724.524 Q33.7883 722.788 32.8189 721.639 Q31.8495 720.489 31.8495 720.173 Q31.8495 719.722 32.3004 719.7 Q32.5258 719.7 33.0894 720.308 Q40.6643 727.748 54.9347 727.725 Q69.2502 727.725 76.5319 720.489 Q77.321 719.7 77.569 719.7 Q78.0198 719.7 78.0198 720.173 Q78.0198 720.489 77.0955 721.593 Q76.1712 722.698 74.0521 724.411 Q71.9329 726.125 69.3404 727.365 Q63.0506 730.408 54.9347 730.408 Z" fill="#000000" fill-rule="evenodd" fill-opacity="1" /><path clip-path="url(#clip820)" d="M 0 0 M66.4773 712.68 Q65.6431 712.68 65.3951 712.612 Q65.1472 712.522 64.7639 712.161 L54.8896 703.302 Q49.4339 698.455 44.6771 698.455 Q41.5886 698.455 39.3792 700.078 Q37.1699 701.678 37.1699 704.632 Q37.1699 706.661 38.4098 708.374 Q39.6498 710.087 41.8591 710.876 Q41.814 710.741 41.814 710.268 Q41.814 709.118 42.5354 708.487 Q43.2568 707.833 44.2262 707.833 Q45.4662 707.833 46.0748 708.644 Q46.661 709.434 46.661 710.223 Q46.661 710.538 46.5934 710.967 Q46.5257 711.372 45.8945 712.026 Q45.2407 712.68 44.091 712.68 Q40.8672 712.68 38.2971 710.245 Q35.7271 707.788 35.7271 704.045 Q35.7271 699.807 38.252 697.034 Q40.7544 694.239 44.6771 694.239 Q46.0523 694.239 47.3148 694.667 Q48.5547 695.073 49.5241 695.637 Q50.4935 696.178 52.049 697.666 Q53.6046 699.153 54.7092 700.348 Q55.8139 701.543 58.1585 704.226 L62.9153 709.118 L62.9153 700.799 Q62.9153 696.741 62.5546 696.426 Q61.9008 695.975 58.4516 695.411 L58.4516 694.239 L66.4773 695.546 L66.4773 712.68 Z" fill="#000000" fill-rule="evenodd" fill-opacity="1" /><path clip-path="url(#clip820)" d="M 0 0 M77.569 689.816 Q77.3435 689.816 76.7799 689.23 Q69.2051 681.79 54.9347 681.79 Q40.6192 681.79 33.3825 688.937 Q32.5484 689.816 32.3004 689.816 Q31.8495 689.816 31.8495 689.365 Q31.8495 689.05 32.7738 687.945 Q33.6981 686.818 35.8173 685.127 Q37.9364 683.414 40.529 682.151 Q46.8188 679.108 54.9347 679.108 Q62.7349 679.108 69.0247 682.016 Q71.6624 683.256 73.8717 684.992 Q76.081 686.728 77.0504 687.877 Q78.0198 689.027 78.0198 689.365 Q78.0198 689.816 77.569 689.816 Z" fill="#000000" fill-rule="evenodd" fill-opacity="1" /><path clip-path="url(#clip820)" d="M 0 0 M79.9945 665.048 Q68.8512 665.048 59.8658 660.893 Q56.0977 659.122 52.9415 656.642 Q49.7854 654.162 48.4005 652.52 Q47.0157 650.877 47.0157 650.426 Q47.0157 649.782 47.6598 649.75 Q47.9818 649.75 48.787 650.62 Q59.6081 661.248 79.9945 661.215 Q100.445 661.215 110.848 650.877 Q111.975 649.75 112.329 649.75 Q112.973 649.75 112.973 650.426 Q112.973 650.877 111.653 652.455 Q110.332 654.033 107.305 656.481 Q104.278 658.929 100.574 660.7 Q91.5886 665.048 79.9945 665.048 Z" fill="#000000" fill-rule="evenodd" fill-opacity="1" /><path clip-path="url(#clip820)" d="M 0 0 M69.6242 607.773 Q71.8786 607.773 71.8786 611.026 L71.8786 622.105 L94.4549 626.517 Q95.0346 626.614 95.3567 626.743 Q95.6787 626.839 96.2262 627.129 Q96.7415 627.387 96.9992 627.934 Q97.289 628.45 97.289 629.222 Q97.289 630.189 96.7093 630.672 Q96.1618 631.123 95.4855 631.123 Q95.0668 631.123 93.07 630.479 L71.8786 624.005 L71.8786 629.48 Q71.8786 634.633 76.9671 637.854 Q77.6434 638.369 77.7078 638.659 Q77.74 638.788 77.74 638.916 Q77.74 639.271 77.579 639.496 Q77.418 639.689 77.257 639.689 L77.0959 639.722 Q76.8705 639.722 75.9687 639.206 Q75.0348 638.659 73.6499 637.693 Q72.265 636.694 71.1701 635.696 Q69.753 634.375 69.0123 632.894 Q68.2393 631.412 68.1427 630.672 Q68.0461 629.899 68.0461 628.9 L68.0461 610.414 Q68.0461 609.577 68.1105 609.126 Q68.1427 608.675 68.5292 608.224 Q68.8834 607.773 69.6242 607.773 Z" fill="#000000" fill-rule="evenodd" fill-opacity="1" /><path clip-path="url(#clip820)" d="M 0 0 M112.329 611.206 Q112.007 611.206 111.202 610.368 Q100.381 599.74 79.9945 599.74 Q59.5437 599.74 49.2057 609.95 Q48.014 611.206 47.6598 611.206 Q47.0157 611.206 47.0157 610.562 Q47.0157 610.111 48.3361 608.533 Q49.6565 606.922 52.6839 604.507 Q55.7112 602.059 59.4149 600.256 Q68.4003 595.908 79.9945 595.908 Q91.1377 595.908 100.123 600.062 Q103.891 601.834 107.047 604.314 Q110.204 606.794 111.588 608.436 Q112.973 610.079 112.973 610.562 Q112.973 611.206 112.329 611.206 Z" fill="#000000" fill-rule="evenodd" fill-opacity="1" /><path clip-path="url(#clip820)" d="M 0 0 M423.066 14.0809 L423.066 22.0612 Q418.408 19.8332 414.276 18.7395 Q410.144 17.6457 406.296 17.6457 Q399.612 17.6457 395.966 20.2383 Q392.36 22.8309 392.36 27.611 Q392.36 31.6214 394.751 33.6873 Q397.181 35.7128 403.906 36.9686 L408.848 37.9813 Q418.003 39.7232 422.337 44.1387 Q426.712 48.5136 426.712 55.8863 Q426.712 64.6767 420.798 69.2137 Q414.924 73.7508 403.541 73.7508 Q399.247 73.7508 394.386 72.7785 Q389.565 71.8063 384.38 69.9024 L384.38 61.4765 Q389.363 64.2716 394.143 65.6895 Q398.923 67.1073 403.541 67.1073 Q410.549 67.1073 414.357 64.3527 Q418.165 61.598 418.165 56.4939 Q418.165 52.0379 415.41 49.5264 Q412.696 47.0148 406.458 45.759 L401.475 44.7868 Q392.32 42.9639 388.229 39.075 Q384.137 35.1862 384.137 28.2591 Q384.137 20.2383 389.768 15.6203 Q395.439 11.0023 405.364 11.0023 Q409.617 11.0023 414.033 11.7719 Q418.448 12.5416 423.066 14.0809 Z" fill="#000000" fill-rule="evenodd" fill-opacity="1" /><path clip-path="url(#clip820)" d="M 0 0 M438.379 54.671 L438.379 27.2059 L445.832 27.2059 L445.832 54.3874 Q445.832 60.8284 448.344 64.0691 Q450.856 67.2693 455.879 67.2693 Q461.915 67.2693 465.398 63.421 Q468.923 59.5726 468.923 52.9291 L468.923 27.2059 L476.376 27.2059 L476.376 72.576 L468.923 72.576 L468.923 65.6084 Q466.208 69.7404 462.603 71.7658 Q459.038 73.7508 454.299 73.7508 Q446.481 73.7508 442.43 68.8897 Q438.379 64.0286 438.379 54.671 M457.134 26.1121 L457.134 26.1121 Z" fill="#000000" fill-rule="evenodd" fill-opacity="1" /><path clip-path="url(#clip820)" d="M 0 0 M527.053 35.9153 Q529.848 30.8922 533.737 28.5022 Q537.626 26.1121 542.892 26.1121 Q549.981 26.1121 553.83 31.0947 Q557.678 36.0368 557.678 45.1919 L557.678 72.576 L550.184 72.576 L550.184 45.4349 Q550.184 38.913 547.875 35.7533 Q545.566 32.5936 540.826 32.5936 Q535.033 32.5936 531.671 36.4419 Q528.309 40.2903 528.309 46.9338 L528.309 72.576 L520.815 72.576 L520.815 45.4349 Q520.815 38.8725 518.506 35.7533 Q516.197 32.5936 511.376 32.5936 Q505.664 32.5936 502.302 36.4824 Q498.94 40.3308 498.94 46.9338 L498.94 72.576 L491.446 72.576 L491.446 27.2059 L498.94 27.2059 L498.94 34.2544 Q501.492 30.082 505.057 28.0971 Q508.621 26.1121 513.523 26.1121 Q518.465 26.1121 521.908 28.6237 Q525.392 31.1352 527.053 35.9153 Z" fill="#000000" fill-rule="evenodd" fill-opacity="1" /><path clip-path="url(#clip820)" d="M 0 0 M616.497 32.4315 Q610.502 32.4315 607.018 37.1306 Q603.534 41.7891 603.534 49.9314 Q603.534 58.0738 606.977 62.7728 Q610.461 67.4314 616.497 67.4314 Q622.452 67.4314 625.936 62.7323 Q629.419 58.0333 629.419 49.9314 Q629.419 41.8701 625.936 37.1711 Q622.452 32.4315 616.497 32.4315 M616.497 26.1121 Q626.219 26.1121 631.769 32.4315 Q637.319 38.7509 637.319 49.9314 Q637.319 61.0714 631.769 67.4314 Q626.219 73.7508 616.497 73.7508 Q606.734 73.7508 601.185 67.4314 Q595.675 61.0714 595.675 49.9314 Q595.675 38.7509 601.185 32.4315 Q606.734 26.1121 616.497 26.1121 Z" fill="#000000" fill-rule="evenodd" fill-opacity="1" /><path clip-path="url(#clip820)" d="M 0 0 M672.643 9.54393 L672.643 15.7418 L665.513 15.7418 Q661.503 15.7418 659.923 17.3622 Q658.383 18.9825 658.383 23.1955 L658.383 27.2059 L670.658 27.2059 L670.658 32.9987 L658.383 32.9987 L658.383 72.576 L650.889 72.576 L650.889 32.9987 L643.76 32.9987 L643.76 27.2059 L650.889 27.2059 L650.889 24.0462 Q650.889 16.471 654.413 13.0277 Q657.938 9.54393 665.594 9.54393 L672.643 9.54393 Z" fill="#000000" fill-rule="evenodd" fill-opacity="1" /><path clip-path="url(#clip820)" d="M 0 0 M713.759 18.8205 L713.759 41.5461 L724.049 41.5461 Q729.76 41.5461 732.879 38.5889 Q735.999 35.6318 735.999 30.163 Q735.999 24.7348 732.879 21.7777 Q729.76 18.8205 724.049 18.8205 L713.759 18.8205 M705.576 12.096 L724.049 12.096 Q734.216 12.096 739.401 16.714 Q744.627 21.2916 744.627 30.163 Q744.627 39.1155 739.401 43.6931 Q734.216 48.2706 724.049 48.2706 L713.759 48.2706 L713.759 72.576 L705.576 72.576 L705.576 12.096 Z" fill="#000000" fill-rule="evenodd" fill-opacity="1" /><path clip-path="url(#clip820)" d="M 0 0 M792.995 45.1919 L792.995 72.576 L785.541 72.576 L785.541 45.4349 Q785.541 38.994 783.03 35.7938 Q780.518 32.5936 775.495 32.5936 Q769.459 32.5936 765.975 36.4419 Q762.492 40.2903 762.492 46.9338 L762.492 72.576 L754.997 72.576 L754.997 9.54393 L762.492 9.54393 L762.492 34.2544 Q765.165 30.163 768.77 28.1376 Q772.416 26.1121 777.156 26.1121 Q784.974 26.1121 788.985 30.9732 Q792.995 35.7938 792.995 45.1919 Z" fill="#000000" fill-rule="evenodd" fill-opacity="1" /><path clip-path="url(#clip820)" d="M 0 0 M825.443 32.4315 Q819.447 32.4315 815.964 37.1306 Q812.48 41.7891 812.48 49.9314 Q812.48 58.0738 815.923 62.7728 Q819.407 67.4314 825.443 67.4314 Q831.397 67.4314 834.881 62.7323 Q838.365 58.0333 838.365 49.9314 Q838.365 41.8701 834.881 37.1711 Q831.397 32.4315 825.443 32.4315 M825.443 26.1121 Q835.165 26.1121 840.715 32.4315 Q846.264 38.7509 846.264 49.9314 Q846.264 61.0714 840.715 67.4314 Q835.165 73.7508 825.443 73.7508 Q815.68 73.7508 810.13 67.4314 Q804.621 61.0714 804.621 49.9314 Q804.621 38.7509 810.13 32.4315 Q815.68 26.1121 825.443 26.1121 Z" fill="#000000" fill-rule="evenodd" fill-opacity="1" /><path clip-path="url(#clip820)" d="M 0 0 M865.992 14.324 L865.992 27.2059 L881.345 27.2059 L881.345 32.9987 L865.992 32.9987 L865.992 57.6282 Q865.992 63.1779 867.491 64.7578 Q869.03 66.3376 873.689 66.3376 L881.345 66.3376 L881.345 72.576 L873.689 72.576 Q865.06 72.576 861.779 69.3758 Q858.498 66.1351 858.498 57.6282 L858.498 32.9987 L853.029 32.9987 L853.029 27.2059 L858.498 27.2059 L858.498 14.324 L865.992 14.324 Z" fill="#000000" fill-rule="evenodd" fill-opacity="1" /><path clip-path="url(#clip820)" d="M 0 0 M908.729 32.4315 Q902.734 32.4315 899.25 37.1306 Q895.766 41.7891 895.766 49.9314 Q895.766 58.0738 899.21 62.7728 Q902.693 67.4314 908.729 67.4314 Q914.684 67.4314 918.168 62.7323 Q921.652 58.0333 921.652 49.9314 Q921.652 41.8701 918.168 37.1711 Q914.684 32.4315 908.729 32.4315 M908.729 26.1121 Q918.451 26.1121 924.001 32.4315 Q929.551 38.7509 929.551 49.9314 Q929.551 61.0714 924.001 67.4314 Q918.451 73.7508 908.729 73.7508 Q898.967 73.7508 893.417 67.4314 Q887.908 61.0714 887.908 49.9314 Q887.908 38.7509 893.417 32.4315 Q898.967 26.1121 908.729 26.1121 Z" fill="#000000" fill-rule="evenodd" fill-opacity="1" /><path clip-path="url(#clip820)" d="M 0 0 M979.62 45.1919 L979.62 72.576 L972.166 72.576 L972.166 45.4349 Q972.166 38.994 969.655 35.7938 Q967.143 32.5936 962.12 32.5936 Q956.084 32.5936 952.601 36.4419 Q949.117 40.2903 949.117 46.9338 L949.117 72.576 L941.623 72.576 L941.623 27.2059 L949.117 27.2059 L949.117 34.2544 Q951.79 30.163 955.396 28.1376 Q959.041 26.1121 963.781 26.1121 Q971.599 26.1121 975.61 30.9732 Q979.62 35.7938 979.62 45.1919 Z" fill="#000000" fill-rule="evenodd" fill-opacity="1" /><path clip-path="url(#clip820)" d="M 0 0 M1066.47 16.7545 L1066.47 25.383 Q1062.34 21.5346 1057.64 19.6307 Q1052.98 17.7268 1047.72 17.7268 Q1037.35 17.7268 1031.84 24.0867 Q1026.33 30.4061 1026.33 42.3968 Q1026.33 54.3469 1031.84 60.7069 Q1037.35 67.0263 1047.72 67.0263 Q1052.98 67.0263 1057.64 65.1223 Q1062.34 63.2184 1066.47 59.3701 L1066.47 67.9175 Q1062.18 70.8341 1057.36 72.2924 Q1052.58 73.7508 1047.23 73.7508 Q1033.5 73.7508 1025.6 65.3654 Q1017.7 56.9395 1017.7 42.3968 Q1017.7 27.8135 1025.6 19.4281 Q1033.5 11.0023 1047.23 11.0023 Q1052.66 11.0023 1057.44 12.4606 Q1062.26 13.8784 1066.47 16.7545 Z" fill="#000000" fill-rule="evenodd" fill-opacity="1" /><path clip-path="url(#clip820)" d="M 0 0 M1096.37 32.4315 Q1090.37 32.4315 1086.89 37.1306 Q1083.4 41.7891 1083.4 49.9314 Q1083.4 58.0738 1086.85 62.7728 Q1090.33 67.4314 1096.37 67.4314 Q1102.32 67.4314 1105.81 62.7323 Q1109.29 58.0333 1109.29 49.9314 Q1109.29 41.8701 1105.81 37.1711 Q1102.32 32.4315 1096.37 32.4315 M1096.37 26.1121 Q1106.09 26.1121 1111.64 32.4315 Q1117.19 38.7509 1117.19 49.9314 Q1117.19 61.0714 1111.64 67.4314 Q1106.09 73.7508 1096.37 73.7508 Q1086.6 73.7508 1081.05 67.4314 Q1075.55 61.0714 1075.55 49.9314 Q1075.55 38.7509 1081.05 32.4315 Q1086.6 26.1121 1096.37 26.1121 Z" fill="#000000" fill-rule="evenodd" fill-opacity="1" /><path clip-path="url(#clip820)" d="M 0 0 M1155.83 34.1734 Q1154.58 33.4443 1153.08 33.1202 Q1151.62 32.7556 1149.84 32.7556 Q1143.52 32.7556 1140.12 36.8875 Q1136.75 40.9789 1136.75 48.6757 L1136.75 72.576 L1129.26 72.576 L1129.26 27.2059 L1136.75 27.2059 L1136.75 34.2544 Q1139.1 30.1225 1142.87 28.1376 Q1146.64 26.1121 1152.03 26.1121 Q1152.8 26.1121 1153.73 26.2337 Q1154.66 26.3147 1155.79 26.5172 L1155.83 34.1734 Z" fill="#000000" fill-rule="evenodd" fill-opacity="1" /><path clip-path="url(#clip820)" d="M 0 0 M1188.48 34.1734 Q1187.23 33.4443 1185.73 33.1202 Q1184.27 32.7556 1182.49 32.7556 Q1176.17 32.7556 1172.77 36.8875 Q1169.4 40.9789 1169.4 48.6757 L1169.4 72.576 L1161.91 72.576 L1161.91 27.2059 L1169.4 27.2059 L1169.4 34.2544 Q1171.75 30.1225 1175.52 28.1376 Q1179.29 26.1121 1184.68 26.1121 Q1185.45 26.1121 1186.38 26.2337 Q1187.31 26.3147 1188.44 26.5172 L1188.48 34.1734 Z" fill="#000000" fill-rule="evenodd" fill-opacity="1" /><path clip-path="url(#clip820)" d="M 0 0 M1233.29 48.0275 L1233.29 51.6733 L1199.02 51.6733 Q1199.5 59.3701 1203.64 63.421 Q1207.81 67.4314 1215.22 67.4314 Q1219.51 67.4314 1223.53 66.3781 Q1227.58 65.3249 1231.55 63.2184 L1231.55 70.267 Q1227.54 71.9684 1223.32 72.8596 Q1219.11 73.7508 1214.78 73.7508 Q1203.92 73.7508 1197.56 67.4314 Q1191.24 61.1119 1191.24 50.3365 Q1191.24 39.1965 1197.23 32.6746 Q1203.27 26.1121 1213.48 26.1121 Q1222.63 26.1121 1227.94 32.0264 Q1233.29 37.9003 1233.29 48.0275 M1225.83 45.84 Q1225.75 39.7232 1222.39 36.0774 Q1219.07 32.4315 1213.56 32.4315 Q1207.32 32.4315 1203.55 35.9558 Q1199.83 39.4801 1199.26 45.8805 L1225.83 45.84 Z" fill="#000000" fill-rule="evenodd" fill-opacity="1" /><path clip-path="url(#clip820)" d="M 0 0 M1245.52 9.54393 L1252.98 9.54393 L1252.98 72.576 L1245.52 72.576 L1245.52 9.54393 Z" fill="#000000" fill-rule="evenodd" fill-opacity="1" /><path clip-path="url(#clip820)" d="M 0 0 M1289.19 49.7694 Q1280.16 49.7694 1276.67 51.8354 Q1273.19 53.9013 1273.19 58.8839 Q1273.19 62.8538 1275.78 65.2034 Q1278.41 67.5124 1282.91 67.5124 Q1289.11 67.5124 1292.84 63.1374 Q1296.6 58.7219 1296.6 51.4303 L1296.6 49.7694 L1289.19 49.7694 M1304.06 46.6907 L1304.06 72.576 L1296.6 72.576 L1296.6 65.6895 Q1294.05 69.8214 1290.24 71.8063 Q1286.44 73.7508 1280.93 73.7508 Q1273.96 73.7508 1269.83 69.8619 Q1265.74 65.9325 1265.74 59.3701 Q1265.74 51.7138 1270.84 47.825 Q1275.98 43.9361 1286.15 43.9361 L1296.6 43.9361 L1296.6 43.2069 Q1296.6 38.0623 1293.2 35.2672 Q1289.84 32.4315 1283.72 32.4315 Q1279.83 32.4315 1276.15 33.3632 Q1272.46 34.295 1269.06 36.1584 L1269.06 29.2718 Q1273.15 27.692 1277 26.9223 Q1280.85 26.1121 1284.49 26.1121 Q1294.33 26.1121 1299.2 31.2163 Q1304.06 36.3204 1304.06 46.6907 Z" fill="#000000" fill-rule="evenodd" fill-opacity="1" /><path clip-path="url(#clip820)" d="M 0 0 M1326.78 14.324 L1326.78 27.2059 L1342.14 27.2059 L1342.14 32.9987 L1326.78 32.9987 L1326.78 57.6282 Q1326.78 63.1779 1328.28 64.7578 Q1329.82 66.3376 1334.48 66.3376 L1342.14 66.3376 L1342.14 72.576 L1334.48 72.576 Q1325.85 72.576 1322.57 69.3758 Q1319.29 66.1351 1319.29 57.6282 L1319.29 32.9987 L1313.82 32.9987 L1313.82 27.2059 L1319.29 27.2059 L1319.29 14.324 L1326.78 14.324 Z" fill="#000000" fill-rule="evenodd" fill-opacity="1" /><path clip-path="url(#clip820)" d="M 0 0 M1351.94 27.2059 L1359.39 27.2059 L1359.39 72.576 L1351.94 72.576 L1351.94 27.2059 M1351.94 9.54393 L1359.39 9.54393 L1359.39 18.9825 L1351.94 18.9825 L1351.94 9.54393 Z" fill="#000000" fill-rule="evenodd" fill-opacity="1" /><path clip-path="url(#clip820)" d="M 0 0 M1392.57 32.4315 Q1386.57 32.4315 1383.09 37.1306 Q1379.61 41.7891 1379.61 49.9314 Q1379.61 58.0738 1383.05 62.7728 Q1386.53 67.4314 1392.57 67.4314 Q1398.52 67.4314 1402.01 62.7323 Q1405.49 58.0333 1405.49 49.9314 Q1405.49 41.8701 1402.01 37.1711 Q1398.52 32.4315 1392.57 32.4315 M1392.57 26.1121 Q1402.29 26.1121 1407.84 32.4315 Q1413.39 38.7509 1413.39 49.9314 Q1413.39 61.0714 1407.84 67.4314 Q1402.29 73.7508 1392.57 73.7508 Q1382.81 73.7508 1377.26 67.4314 Q1371.75 61.0714 1371.75 49.9314 Q1371.75 38.7509 1377.26 32.4315 Q1382.81 26.1121 1392.57 26.1121 Z" fill="#000000" fill-rule="evenodd" fill-opacity="1" /><path clip-path="url(#clip820)" d="M 0 0 M1463.46 45.1919 L1463.46 72.576 L1456.01 72.576 L1456.01 45.4349 Q1456.01 38.994 1453.49 35.7938 Q1450.98 32.5936 1445.96 32.5936 Q1439.92 32.5936 1436.44 36.4419 Q1432.96 40.2903 1432.96 46.9338 L1432.96 72.576 L1425.46 72.576 L1425.46 27.2059 L1432.96 27.2059 L1432.96 34.2544 Q1435.63 30.163 1439.24 28.1376 Q1442.88 26.1121 1447.62 26.1121 Q1455.44 26.1121 1459.45 30.9732 Q1463.46 35.7938 1463.46 45.1919 Z" fill="#000000" fill-rule="evenodd" fill-opacity="1" /><path clip-path="url(#clip820)" d="M 0 0 M1507.25 28.5427 L1507.25 35.5912 Q1504.09 33.9709 1500.69 33.1607 Q1497.29 32.3505 1493.64 32.3505 Q1488.09 32.3505 1485.29 34.0519 Q1482.54 35.7533 1482.54 39.156 Q1482.54 41.7486 1484.52 43.2475 Q1486.51 44.7058 1492.51 46.0426 L1495.06 46.6097 Q1503 48.3111 1506.32 51.4303 Q1509.68 54.509 1509.68 60.0587 Q1509.68 66.3781 1504.66 70.0644 Q1499.68 73.7508 1490.93 73.7508 Q1487.28 73.7508 1483.31 73.0216 Q1479.38 72.3329 1475.01 70.9151 L1475.01 63.2184 Q1479.14 65.3654 1483.15 66.4591 Q1487.16 67.5124 1491.09 67.5124 Q1496.35 67.5124 1499.19 65.73 Q1502.02 63.9071 1502.02 60.6258 Q1502.02 57.5877 1499.96 55.9673 Q1497.93 54.3469 1491.01 52.8481 L1488.41 52.2405 Q1481.49 50.7821 1478.41 47.7845 Q1475.33 44.7463 1475.33 39.4801 Q1475.33 33.0797 1479.87 29.5959 Q1484.4 26.1121 1492.75 26.1121 Q1496.88 26.1121 1500.53 26.7198 Q1504.17 27.3274 1507.25 28.5427 Z" fill="#000000" fill-rule="evenodd" fill-opacity="1" /><path clip-path="url(#clip820)" d="M 0 0 M1542.57 27.2059 L1550.47 27.2059 L1564.65 65.2844 L1578.83 27.2059 L1586.73 27.2059 L1569.72 72.576 L1559.59 72.576 L1542.57 27.2059 Z" fill="#000000" fill-rule="evenodd" fill-opacity="1" /><path clip-path="url(#clip820)" d="M 0 0 M1625.94 28.5427 L1625.94 35.5912 Q1622.78 33.9709 1619.38 33.1607 Q1615.98 32.3505 1612.33 32.3505 Q1606.78 32.3505 1603.99 34.0519 Q1601.23 35.7533 1601.23 39.156 Q1601.23 41.7486 1603.22 43.2475 Q1605.2 44.7058 1611.2 46.0426 L1613.75 46.6097 Q1621.69 48.3111 1625.01 51.4303 Q1628.37 54.509 1628.37 60.0587 Q1628.37 66.3781 1623.35 70.0644 Q1618.37 73.7508 1609.62 73.7508 Q1605.97 73.7508 1602 73.0216 Q1598.07 72.3329 1593.7 70.9151 L1593.7 63.2184 Q1597.83 65.3654 1601.84 66.4591 Q1605.85 67.5124 1609.78 67.5124 Q1615.04 67.5124 1617.88 65.73 Q1620.72 63.9071 1620.72 60.6258 Q1620.72 57.5877 1618.65 55.9673 Q1616.62 54.3469 1609.7 52.8481 L1607.11 52.2405 Q1600.18 50.7821 1597.1 47.7845 Q1594.02 44.7463 1594.02 39.4801 Q1594.02 33.0797 1598.56 29.5959 Q1603.09 26.1121 1611.44 26.1121 Q1615.57 26.1121 1619.22 26.7198 Q1622.86 27.3274 1625.94 28.5427 Z" fill="#000000" fill-rule="evenodd" fill-opacity="1" /><path clip-path="url(#clip820)" d="M 0 0 M1658.55 12.096 L1709.71 12.096 L1709.71 18.9825 L1688.24 18.9825 L1688.24 72.576 L1680.02 72.576 L1680.02 18.9825 L1658.55 18.9825 L1658.55 12.096 Z" fill="#000000" fill-rule="evenodd" fill-opacity="1" /><path clip-path="url(#clip820)" d="M 0 0 M1714.74 27.2059 L1722.19 27.2059 L1722.19 72.576 L1714.74 72.576 L1714.74 27.2059 M1714.74 9.54393 L1722.19 9.54393 L1722.19 18.9825 L1714.74 18.9825 L1714.74 9.54393 Z" fill="#000000" fill-rule="evenodd" fill-opacity="1" /><path clip-path="url(#clip820)" d="M 0 0 M1773.11 35.9153 Q1775.91 30.8922 1779.8 28.5022 Q1783.68 26.1121 1788.95 26.1121 Q1796.04 26.1121 1799.89 31.0947 Q1803.74 36.0368 1803.74 45.1919 L1803.74 72.576 L1796.24 72.576 L1796.24 45.4349 Q1796.24 38.913 1793.93 35.7533 Q1791.62 32.5936 1786.88 32.5936 Q1781.09 32.5936 1777.73 36.4419 Q1774.37 40.2903 1774.37 46.9338 L1774.37 72.576 L1766.87 72.576 L1766.87 45.4349 Q1766.87 38.8725 1764.56 35.7533 Q1762.25 32.5936 1757.43 32.5936 Q1751.72 32.5936 1748.36 36.4824 Q1745 40.3308 1745 46.9338 L1745 72.576 L1737.5 72.576 L1737.5 27.2059 L1745 27.2059 L1745 34.2544 Q1747.55 30.082 1751.11 28.0971 Q1754.68 26.1121 1759.58 26.1121 Q1764.52 26.1121 1767.97 28.6237 Q1771.45 31.1352 1773.11 35.9153 Z" fill="#000000" fill-rule="evenodd" fill-opacity="1" /><path clip-path="url(#clip820)" d="M 0 0 M1857.41 48.0275 L1857.41 51.6733 L1823.14 51.6733 Q1823.63 59.3701 1827.76 63.421 Q1831.93 67.4314 1839.34 67.4314 Q1843.64 67.4314 1847.65 66.3781 Q1851.7 65.3249 1855.67 63.2184 L1855.67 70.267 Q1851.66 71.9684 1847.45 72.8596 Q1843.23 73.7508 1838.9 73.7508 Q1828.04 73.7508 1821.68 67.4314 Q1815.36 61.1119 1815.36 50.3365 Q1815.36 39.1965 1821.36 32.6746 Q1827.39 26.1121 1837.6 26.1121 Q1846.76 26.1121 1852.06 32.0264 Q1857.41 37.9003 1857.41 48.0275 M1849.96 45.84 Q1849.88 39.7232 1846.51 36.0774 Q1843.19 32.4315 1837.68 32.4315 Q1831.44 32.4315 1827.68 35.9558 Q1823.95 39.4801 1823.38 45.8805 L1849.96 45.84 Z" fill="#000000" fill-rule="evenodd" fill-opacity="1" /><path clip-path="url(#clip820)" d="M 0 0 M1920.89 17.6457 Q1911.98 17.6457 1906.71 24.2892 Q1901.48 30.9327 1901.48 42.3968 Q1901.48 53.8203 1906.71 60.4638 Q1911.98 67.1073 1920.89 67.1073 Q1929.8 67.1073 1934.99 60.4638 Q1940.21 53.8203 1940.21 42.3968 Q1940.21 30.9327 1934.99 24.2892 Q1929.8 17.6457 1920.89 17.6457 M1920.89 11.0023 Q1933.61 11.0023 1941.22 19.5497 Q1948.84 28.0566 1948.84 42.3968 Q1948.84 56.6965 1941.22 65.2439 Q1933.61 73.7508 1920.89 73.7508 Q1908.13 73.7508 1900.47 65.2439 Q1892.86 56.737 1892.86 42.3968 Q1892.86 28.0566 1900.47 19.5497 Q1908.13 11.0023 1920.89 11.0023 Z" fill="#000000" fill-rule="evenodd" fill-opacity="1" /><path clip-path="url(#clip820)" d="M 0 0 M1984.28 9.54393 L1984.28 15.7418 L1977.16 15.7418 Q1973.14 15.7418 1971.56 17.3622 Q1970.03 18.9825 1970.03 23.1955 L1970.03 27.2059 L1982.3 27.2059 L1982.3 32.9987 L1970.03 32.9987 L1970.03 72.576 L1962.53 72.576 L1962.53 32.9987 L1955.4 32.9987 L1955.4 27.2059 L1962.53 27.2059 L1962.53 24.0462 Q1962.53 16.471 1966.06 13.0277 Q1969.58 9.54393 1977.24 9.54393 L1984.28 9.54393 Z" fill="#000000" fill-rule="evenodd" fill-opacity="1" /><path clip-path="url(#clip820)" d="M 0 0 M2013.49 9.54393 L2013.49 15.7418 L2006.36 15.7418 Q2002.35 15.7418 2000.77 17.3622 Q1999.23 18.9825 1999.23 23.1955 L1999.23 27.2059 L2011.51 27.2059 L2011.51 32.9987 L1999.23 32.9987 L1999.23 72.576 L1991.74 72.576 L1991.74 32.9987 L1984.61 32.9987 L1984.61 27.2059 L1991.74 27.2059 L1991.74 24.0462 Q1991.74 16.471 1995.26 13.0277 Q1998.79 9.54393 2006.44 9.54393 L2013.49 9.54393 Z" fill="#000000" fill-rule="evenodd" fill-opacity="1" /><path clip-path="url(#clip820)" d="M 0 0 M2048.65 28.5427 L2048.65 35.5912 Q2045.49 33.9709 2042.09 33.1607 Q2038.69 32.3505 2035.04 32.3505 Q2029.49 32.3505 2026.7 34.0519 Q2023.94 35.7533 2023.94 39.156 Q2023.94 41.7486 2025.93 43.2475 Q2027.91 44.7058 2033.91 46.0426 L2036.46 46.6097 Q2044.4 48.3111 2047.72 51.4303 Q2051.08 54.509 2051.08 60.0587 Q2051.08 66.3781 2046.06 70.0644 Q2041.08 73.7508 2032.33 73.7508 Q2028.68 73.7508 2024.71 73.0216 Q2020.78 72.3329 2016.41 70.9151 L2016.41 63.2184 Q2020.54 65.3654 2024.55 66.4591 Q2028.56 67.5124 2032.49 67.5124 Q2037.76 67.5124 2040.59 65.73 Q2043.43 63.9071 2043.43 60.6258 Q2043.43 57.5877 2041.36 55.9673 Q2039.34 54.3469 2032.41 52.8481 L2029.82 52.2405 Q2022.89 50.7821 2019.81 47.7845 Q2016.73 44.7463 2016.73 39.4801 Q2016.73 33.0797 2021.27 29.5959 Q2025.81 26.1121 2034.15 26.1121 Q2038.28 26.1121 2041.93 26.7198 Q2045.57 27.3274 2048.65 28.5427 Z" fill="#000000" fill-rule="evenodd" fill-opacity="1" /><path clip-path="url(#clip820)" d="M 0 0 M2101.76 48.0275 L2101.76 51.6733 L2067.49 51.6733 Q2067.98 59.3701 2072.11 63.421 Q2076.28 67.4314 2083.69 67.4314 Q2087.99 67.4314 2092 66.3781 Q2096.05 65.3249 2100.02 63.2184 L2100.02 70.267 Q2096.01 71.9684 2091.8 72.8596 Q2087.58 73.7508 2083.25 73.7508 Q2072.39 73.7508 2066.03 67.4314 Q2059.71 61.1119 2059.71 50.3365 Q2059.71 39.1965 2065.71 32.6746 Q2071.74 26.1121 2081.95 26.1121 Q2091.11 26.1121 2096.41 32.0264 Q2101.76 37.9003 2101.76 48.0275 M2094.31 45.84 Q2094.23 39.7232 2090.86 36.0774 Q2087.54 32.4315 2082.03 32.4315 Q2075.79 32.4315 2072.03 35.9558 Q2068.3 39.4801 2067.73 45.8805 L2094.31 45.84 Z" fill="#000000" fill-rule="evenodd" fill-opacity="1" /><path clip-path="url(#clip820)" d="M 0 0 M2121.37 14.324 L2121.37 27.2059 L2136.72 27.2059 L2136.72 32.9987 L2121.37 32.9987 L2121.37 57.6282 Q2121.37 63.1779 2122.87 64.7578 Q2124.41 66.3376 2129.06 66.3376 L2136.72 66.3376 L2136.72 72.576 L2129.06 72.576 Q2120.44 72.576 2117.15 69.3758 Q2113.87 66.1351 2113.87 57.6282 L2113.87 32.9987 L2108.4 32.9987 L2108.4 27.2059 L2113.87 27.2059 L2113.87 14.324 L2121.37 14.324 Z" fill="#000000" fill-rule="evenodd" fill-opacity="1" /><polyline clip-path="url(#clip823)" style="stroke:#009af9; stroke-width:4; stroke-opacity:1; fill:none" points="
  320.497,158.575 322.379,1018.79 324.261,1193.14 326.143,1237.18 328.024,1243.97 329.906,1244.64 331.788,1238.17 333.67,1257.32 335.551,1235.04 337.433,1266 
  339.315,1266.35 341.197,1284.04 343.078,1307.05 344.96,1302.06 346.842,1322.69 348.724,1315.87 350.605,1324.8 352.487,1325.94 354.369,1299.71 356.251,1286.53 
  358.132,1274.73 360.014,1278.79 361.896,1289.77 363.778,1237.51 365.659,1257.85 367.541,1240.34 369.423,1250.06 371.305,1284.76 373.186,1247.57 375.068,1252.14 
  376.95,1287.96 378.832,1230.03 380.713,1231.81 382.595,1178.25 384.477,1192.55 386.359,1212.83 388.24,1232.64 390.122,1259.73 392.004,1242.97 393.885,1283.02 
  395.767,1263.81 397.649,1301.11 399.531,1286.38 401.412,1261.29 403.294,1243.03 405.176,1268.36 407.058,1298.33 408.939,1295.38 410.821,1291.6 412.703,1270.93 
  414.585,1312.35 416.466,1286.99 418.348,1291.94 420.23,1309 422.112,1260.3 423.993,1283.97 425.875,1278.02 427.757,1237.02 429.639,1252.55 431.52,1247.08 
  433.402,1260.4 435.284,1278.26 437.166,1280.98 439.047,1270.16 440.929,1265.91 442.811,1244.63 444.693,1211.03 446.574,1227.34 448.456,1249.47 450.338,1284.97 
  452.22,1312.69 454.101,1230.6 455.983,1221.64 457.865,1268.54 459.747,1240.86 461.628,1261.82 463.51,1252.92 465.392,1234.52 467.274,1269.73 469.155,1297.47 
  471.037,1304.52 472.919,1284.11 474.8,1277.98 476.682,1283.15 478.564,1257.06 480.446,1257.31 482.327,1285.24 484.209,1286.25 486.091,1269.17 487.973,1290.34 
  489.854,1287.85 491.736,1263.82 493.618,1285.78 495.5,1262.45 497.381,1205.66 499.263,1237.41 501.145,1271.49 503.027,1290.99 504.908,1242.96 506.79,1273.94 
  508.672,1274.26 510.554,1163.4 512.435,1156.38 514.317,1204.57 516.199,1203.73 518.081,1233.18 519.962,1227.82 521.844,1262.47 523.726,1239.49 525.608,1224.27 
  527.489,1262.81 529.371,1218.81 531.253,1281.89 533.135,1255.2 535.016,1252.51 536.898,1286.86 538.78,1270.36 540.662,1265.97 542.543,1315.73 544.425,1313.78 
  546.307,1304.76 548.189,1298.38 550.07,1296.89 551.952,1302.25 553.834,1256.99 555.715,1259.6 557.597,1228.68 559.479,1241.01 561.361,1242.78 563.242,1257.02 
  565.124,1254.87 567.006,1188.42 568.888,1229.69 570.769,1229.2 572.651,1181.67 574.533,1301.97 576.415,1226.07 578.296,1176.76 580.178,1218.72 582.06,1202.48 
  583.942,1245.62 585.823,1256.5 587.705,1260.02 589.587,1277.96 591.469,1273.25 593.35,1271.41 595.232,1257.44 597.114,1283.83 598.996,1263.26 600.877,1277.48 
  602.759,1269.36 604.641,1258.66 606.523,1289.53 608.404,1302.97 610.286,1301.14 612.168,1299.74 614.05,1290.88 615.931,1302.42 617.813,1225.23 619.695,1194.33 
  621.577,1218.41 623.458,1210.47 625.34,1189.84 627.222,1252.7 629.104,1296.68 630.985,1227.12 632.867,1262.87 634.749,1288.57 636.631,1243.29 638.512,1247.95 
  640.394,1276.1 642.276,1230.36 644.157,1231.05 646.039,1259.7 647.921,1287.29 649.803,1285.82 651.684,1275.28 653.566,1286.8 655.448,1303.93 657.33,1277.05 
  659.211,1296.52 661.093,1291.25 662.975,1264.54 664.857,1275.21 666.738,1296.84 668.62,1291.31 670.502,1287.88 672.384,1266.03 674.265,1271.65 676.147,1249.56 
  678.029,1241.62 679.911,1250.48 681.792,1235.33 683.674,1238.67 685.556,1229.24 687.438,1249.1 689.319,1305.89 691.201,1254.46 693.083,1201.01 694.965,1138.1 
  696.846,1243.29 698.728,1262.53 700.61,1248.18 702.492,1252.25 704.373,1245.86 706.255,1201.62 708.137,1278.75 710.019,1283.82 711.9,1226.93 713.782,1270.86 
  715.664,1259.02 717.546,1253.33 719.427,1274.43 721.309,1298.63 723.191,1291.35 725.072,1294.74 726.954,1296.4 728.836,1297.32 730.718,1285.7 732.599,1247.59 
  734.481,1278.41 736.363,1314.12 738.245,1247.32 740.126,1256.71 742.008,1262.54 743.89,1250.16 745.772,1274.07 747.653,1205.24 749.535,1240.53 751.417,1262.16 
  753.299,1213.04 755.18,1219.62 757.062,1236.17 758.944,1153.47 760.826,1216.16 762.707,1130.33 764.589,1203.08 766.471,1239.73 768.353,1275.85 770.234,1224.57 
  772.116,1257.36 773.998,1305.19 775.88,1241.87 777.761,1235.28 779.643,1251.27 781.525,1276.65 783.407,1286.23 785.288,1309.32 787.17,1303.27 789.052,1313.09 
  790.934,1280.28 792.815,1304.79 794.697,1289.2 796.579,1276.79 798.461,1285.47 800.342,1274.13 802.224,1257.96 804.106,1234.07 805.987,1278.27 807.869,1229.51 
  809.751,1241.82 811.633,1249.57 813.514,1242.54 815.396,1233.84 817.278,1223.99 819.16,1183.58 821.041,1244.12 822.923,1243.59 824.805,1254.3 826.687,1285.43 
  828.568,1188.82 830.45,1231.03 832.332,1284.9 834.214,1234.88 836.095,1243.42 837.977,1249.23 839.859,1235 841.741,1263.43 843.622,1283.04 845.504,1313.49 
  847.386,1309.9 849.268,1322.48 851.149,1280.42 853.031,1318.23 854.913,1301.14 856.795,1302.99 858.676,1301.99 860.558,1277.52 862.44,1254.7 864.322,1261.72 
  866.203,1278.63 868.085,1256.26 869.967,1249.62 871.849,1210.82 873.73,1249.9 875.612,1192.45 877.494,1196.31 879.376,1253.62 881.257,1222.51 883.139,1159.97 
  885.021,1261.97 886.902,1168.35 888.784,1256.66 890.666,1204.15 892.548,1249.71 894.429,1275.8 896.311,1266.54 898.193,1292.76 900.075,1264.38 901.956,1254.51 
  903.838,1234.93 905.72,1272.36 907.602,1298.39 909.483,1299.51 911.365,1297.66 913.247,1310.26 915.129,1277.57 917.01,1314.9 918.892,1328.69 920.774,1292.24 
  922.656,1274.88 924.537,1291.74 926.419,1271.05 928.301,1285.58 930.183,1253.75 932.064,1278.75 933.946,1262.24 935.828,1182.52 937.71,1146.78 939.591,1179.38 
  941.473,1222.92 943.355,1176.98 945.237,1238.47 947.118,1208.72 949,1232.63 950.882,1224.56 952.764,1157.77 954.645,1187.84 956.527,1281.69 958.409,1254.52 
  960.291,1289.1 962.172,1286.51 964.054,1271.71 965.936,1271.24 967.818,1256.33 969.699,1275.04 971.581,1303.86 973.463,1296.03 975.344,1283.12 977.226,1270.88 
  979.108,1260.52 980.99,1288.56 982.871,1310.94 984.753,1287.82 986.635,1287.72 988.517,1262.2 990.398,1267.45 992.28,1262.98 994.162,1282.89 996.044,1226.19 
  997.925,1212.79 999.807,1234.37 1001.69,1251.86 1003.57,1234.68 1005.45,1221.77 1007.33,1259.89 1009.22,1273.52 1011.1,1269.7 1012.98,1222.91 1014.86,1223.83 
  1016.74,1161.48 1018.62,1203.63 1020.51,1230.96 1022.39,1279.89 1024.27,1273.54 1026.15,1229.21 1028.03,1263.1 1029.92,1267.27 1031.8,1277.26 1033.68,1258.04 
  1035.56,1268.06 1037.44,1251.39 1039.32,1297.94 1041.21,1299.14 1043.09,1287.16 1044.97,1322.69 1046.85,1295.04 1048.73,1281.85 1050.61,1300.89 1052.5,1287.38 
  1054.38,1259.05 1056.26,1243.2 1058.14,1290.13 1060.02,1199.36 1061.9,1207.5 1063.79,1257.85 1065.67,1317.73 1067.55,1251.92 1069.43,1248.6 1071.31,1226.45 
  1073.2,1289.77 1075.08,1229.1 1076.96,1160.5 1078.84,1209.29 1080.72,1117.55 1082.6,1198.06 1084.49,1239.5 1086.37,1259.94 1088.25,1280.01 1090.13,1278.75 
  1092.01,1246.69 1093.89,1271.55 1095.78,1244.9 1097.66,1288.32 1099.54,1289.42 1101.42,1260.71 1103.3,1290.58 1105.18,1297.4 1107.07,1298.01 1108.95,1294.48 
  1110.83,1308.41 1112.71,1291.64 1114.59,1254.07 1116.48,1294.06 1118.36,1287.68 1120.24,1255.95 1122.12,1240.68 1124,1268.4 1125.88,1295.08 1127.77,1272.9 
  1129.65,1249.52 1131.53,1192.05 1133.41,1249.88 1135.29,1263 1137.17,1259.88 1139.06,1193.08 1140.94,1242.88 1142.82,1235.01 1144.7,1223.62 1146.58,1283.05 
  1148.46,1272.01 1150.35,1235.67 1152.23,1257.5 1154.11,1252.83 1155.99,1259.05 1157.87,1296.64 1159.76,1270.16 1161.64,1271.25 1163.52,1309.79 1165.4,1259.04 
  1167.28,1291.46 1169.16,1314.91 1171.05,1317.27 1172.93,1287.34 1174.81,1304.71 1176.69,1287.45 1178.57,1294.52 1180.45,1303.34 1182.34,1259.63 1184.22,1252.55 
  1186.1,1203.08 1187.98,1254.65 1189.86,1241.17 1191.75,1247.41 1193.63,1142.56 1195.51,1151.35 1197.39,1214.41 1199.27,1232.63 1201.15,1173.47 1203.04,1207.5 
  1204.92,1180.48 1206.8,1240.28 1208.68,1253.78 1210.56,1253.56 1212.44,1245.24 1214.33,1243.58 1216.21,1226.38 1218.09,1315.42 1219.97,1272.62 1221.85,1269.92 
  1223.73,1298.77 1225.62,1287.85 1227.5,1279.76 1229.38,1301.96 1231.26,1316.6 1233.14,1314.96 1235.03,1290.38 1236.91,1282.23 1238.79,1248.79 1240.67,1273.93 
  1242.55,1268.26 1244.43,1270.72 1246.32,1225.56 1248.2,1222.45 1250.08,1258.38 1251.96,1238.55 1253.84,1213.26 1255.72,1223 1257.61,1188.65 1259.49,1235.06 
  1261.37,1184.59 1263.25,1217.58 1265.13,1243.76 1267.01,1216.04 1268.9,1256.34 1270.78,1272.3 1272.66,1258.77 1274.54,1243.2 1276.42,1247.51 1278.31,1252.89 
  1280.19,1288.11 1282.07,1284.02 1283.95,1297.41 1285.83,1297.17 1287.71,1271.68 1289.6,1271.62 1291.48,1307.7 1293.36,1265.93 1295.24,1262.07 1297.12,1266.36 
  1299,1282.98 1300.89,1238.04 1302.77,1279.79 1304.65,1259.94 1306.53,1261.26 1308.41,1288.1 1310.29,1256.84 1312.18,1275.45 1314.06,1262.59 1315.94,1257.24 
  1317.82,1248.91 1319.7,1259.96 1321.59,1291.17 1323.47,1252.82 1325.35,1303.68 1327.23,1255.7 1329.11,1228.59 1330.99,1212.06 1332.88,1241.38 1334.76,1269.13 
  1336.64,1295.35 1338.52,1274.12 1340.4,1271.27 1342.28,1294.77 1344.17,1301.38 1346.05,1296.16 1347.93,1290.86 1349.81,1276.57 1351.69,1298.85 1353.58,1294.81 
  1355.46,1302.8 1357.34,1288.29 1359.22,1266.78 1361.1,1270.72 1362.98,1264.96 1364.87,1263.1 1366.75,1264.86 1368.63,1255.28 1370.51,1252.69 1372.39,1240.45 
  1374.27,1256.26 1376.16,1265.26 1378.04,1210.37 1379.92,1208.78 1381.8,1235.96 1383.68,1260.09 1385.56,1248.33 1387.45,1225.53 1389.33,1257.76 1391.21,1267.04 
  1393.09,1277.97 1394.97,1291.77 1396.86,1280.03 1398.74,1210.82 1400.62,1244.21 1402.5,1217.08 1404.38,1270.94 1406.26,1256.16 1408.15,1265.19 1410.03,1292.49 
  1411.91,1276.28 1413.79,1278.91 1415.67,1275.73 1417.55,1260.72 1419.44,1271.75 1421.32,1294.12 1423.2,1293.12 1425.08,1282.67 1426.96,1301.62 1428.84,1292.55 
  1430.73,1266.98 1432.61,1280.29 1434.49,1211.99 1436.37,1250.5 1438.25,1245.11 1440.14,1308.06 1442.02,1255.13 1443.9,1292.16 1445.78,1253.23 1447.66,1197.58 
  1449.54,1264.83 1451.43,1202.37 1453.31,1143.09 1455.19,1204.81 1457.07,1223.87 1458.95,1226.37 1460.83,1248.31 1462.72,1248.87 1464.6,1218.54 1466.48,1251.64 
  1468.36,1293.94 1470.24,1273.72 1472.12,1244.2 1474.01,1279.75 1475.89,1302.19 1477.77,1291.6 1479.65,1309.17 1481.53,1290.27 1483.42,1285.49 1485.3,1302.01 
  1487.18,1259.79 1489.06,1270.26 1490.94,1274.82 1492.82,1260.81 1494.71,1219.15 1496.59,1194.11 1498.47,1203.72 1500.35,1273.74 1502.23,1277.18 1504.11,1222.76 
  1506,1179.04 1507.88,1301.1 1509.76,1194.28 1511.64,1242.52 1513.52,1211.67 1515.41,1293.15 1517.29,1246.69 1519.17,1231.19 1521.05,1269.08 1522.93,1248.29 
  1524.81,1277.44 1526.7,1274.12 1528.58,1281.15 1530.46,1309.89 1532.34,1292.52 1534.22,1271.97 1536.1,1293.5 1537.99,1298.55 1539.87,1297.82 1541.75,1314.68 
  1543.63,1304.05 1545.51,1274.05 1547.39,1280.31 1549.28,1294.5 1551.16,1273.01 1553.04,1257.66 1554.92,1305.27 1556.8,1244.63 1558.69,1234.92 1560.57,1246.26 
  1562.45,1222.71 1564.33,1178.11 1566.21,1267.34 1568.09,1229.75 1569.98,1230.71 1571.86,1180.06 1573.74,1214.32 1575.62,1244.7 1577.5,1227.36 1579.38,1209.45 
  1581.27,1255.94 1583.15,1226.21 1585.03,1280.46 1586.91,1267.65 1588.79,1255.66 1590.67,1265.86 1592.56,1262.23 1594.44,1256.87 1596.32,1305.66 1598.2,1290.2 
  1600.08,1287.19 1601.97,1326.5 1603.85,1305.8 1605.73,1302.55 1607.61,1273.08 1609.49,1290.39 1611.37,1253.14 1613.26,1257.82 1615.14,1284.95 1617.02,1291.06 
  1618.9,1266.66 1620.78,1257.8 1622.66,1261.28 1624.55,1261.03 1626.43,1289.32 1628.31,1240.92 1630.19,1261.44 1632.07,1185.64 1633.95,1200.64 1635.84,1227.66 
  1637.72,1212.68 1639.6,1252.6 1641.48,1257.78 1643.36,1204.84 1645.25,1272.59 1647.13,1210.82 1649.01,1211.54 1650.89,1248.42 1652.77,1261.81 1654.65,1252.82 
  1656.54,1260.47 1658.42,1273.52 1660.3,1304.47 1662.18,1304.68 1664.06,1309.67 1665.94,1299.82 1667.83,1314.85 1669.71,1297.57 1671.59,1293.54 1673.47,1287.39 
  1675.35,1238.63 1677.24,1270.63 1679.12,1286.01 1681,1267.18 1682.88,1270.9 1684.76,1247.36 1686.64,1217.1 1688.53,1294.87 1690.41,1254.93 1692.29,1248.72 
  1694.17,1238.45 1696.05,1230.1 1697.93,1207.2 1699.82,1205.66 1701.7,1245.23 1703.58,1203.44 1705.46,1213.98 1707.34,1277.2 1709.22,1200.12 1711.11,1228.9 
  1712.99,1234.66 1714.87,1218.78 1716.75,1256.36 1718.63,1278.98 1720.52,1322.27 1722.4,1275.49 1724.28,1286.28 1726.16,1306.95 1728.04,1308.68 1729.92,1301.99 
  1731.81,1305.14 1733.69,1295.52 1735.57,1294.28 1737.45,1283.36 1739.33,1270.21 1741.21,1291.19 1743.1,1273.44 1744.98,1253.41 1746.86,1229.68 1748.74,1258.47 
  1750.62,1307.09 1752.5,1235.85 1754.39,1236.89 1756.27,1155.06 1758.15,1122.8 1760.03,1195.81 1761.91,1213.11 1763.8,1279.71 1765.68,1230.43 1767.56,1215.93 
  1769.44,1264.76 1771.32,1186.86 1773.2,1237.06 1775.09,1273.94 1776.97,1213.68 1778.85,1244.25 1780.73,1253.85 1782.61,1281.11 1784.49,1303.55 1786.38,1301.78 
  1788.26,1301.97 1790.14,1297.59 1792.02,1299.75 1793.9,1309.56 1795.79,1291.53 1797.67,1316.5 1799.55,1325.44 1801.43,1293.62 1803.31,1281.47 1805.19,1287.1 
  1807.08,1308.68 1808.96,1239.2 1810.84,1189.33 1812.72,1253.62 1814.6,1259 1816.48,1234.87 1818.37,1228.18 1820.25,1194.63 1822.13,1215.44 1824.01,1248.83 
  1825.89,1247.43 1827.77,1204.87 1829.66,1192.28 1831.54,1236.28 1833.42,1282.85 1835.3,1259.71 1837.18,1235.91 1839.07,1224.77 1840.95,1281.8 1842.83,1280.93 
  1844.71,1230.32 1846.59,1256.17 1848.47,1266.16 1850.36,1260.2 1852.24,1299.15 1854.12,1294.29 1856,1284.66 1857.88,1275.69 1859.76,1283.12 1861.65,1280.53 
  1863.53,1267.24 1865.41,1275.77 1867.29,1274.28 1869.17,1248.09 1871.05,1241.29 1872.94,1261.73 1874.82,1267.75 1876.7,1262.36 1878.58,1263.34 1880.46,1268.91 
  1882.35,1235.83 1884.23,1253.18 1886.11,1320.89 1887.99,1298.92 1889.87,1221.45 1891.75,1230.76 1893.64,1184.79 1895.52,1280.28 1897.4,1325.73 1899.28,1325.49 
  1901.16,1272.79 1903.04,1271.75 1904.93,1271.97 1906.81,1275.13 1908.69,1278.19 1910.57,1282.62 1912.45,1278.96 1914.33,1273.66 1916.22,1241.87 1918.1,1276.27 
  1919.98,1284.91 1921.86,1290.16 1923.74,1301.2 1925.63,1275.06 1927.51,1291.91 1929.39,1285.13 1931.27,1260.85 1933.15,1256.42 1935.03,1282.72 1936.92,1206.74 
  1938.8,1255.86 1940.68,1312.12 1942.56,1293.86 1944.44,1275.99 1946.32,1262.31 1948.21,1197.29 1950.09,1174.3 1951.97,1229.13 1953.85,1254.6 1955.73,1180.81 
  1957.62,1212.73 1959.5,1304.27 1961.38,1241.93 1963.26,1269.55 1965.14,1250.63 1967.02,1301.69 1968.91,1287.3 1970.79,1255.37 1972.67,1243.55 1974.55,1227.28 
  1976.43,1274.43 1978.31,1285.31 1980.2,1279.83 1982.08,1299.98 1983.96,1284.4 1985.84,1263.11 1987.72,1284.6 1989.6,1282.67 1991.49,1289.13 1993.37,1292.1 
  1995.25,1231.99 1997.13,1273.34 1999.01,1264.88 2000.9,1274.81 2002.78,1248.92 2004.66,1229.15 2006.54,1274.17 2008.42,1259.72 2010.3,1238.73 2012.19,1245.75 
  2014.07,1192.25 2015.95,1233.49 2017.83,1216.59 2019.71,1219.3 2021.59,1222.29 2023.48,1239.02 2025.36,1294.84 2027.24,1223.86 2029.12,1242.25 2031,1287.68 
  2032.88,1254.26 2034.77,1271.74 2036.65,1254.76 2038.53,1267.94 2040.41,1243.93 2042.29,1290.72 2044.18,1309.32 2046.06,1285.31 2047.94,1299.09 2049.82,1284.15 
  2051.7,1314.1 2053.58,1282.02 2055.47,1291.74 2057.35,1260.51 2059.23,1258.44 2061.11,1262.2 2062.99,1291.72 2064.87,1274.71 2066.76,1225.35 2068.64,1213.27 
  2070.52,1215.79 2072.4,1208.98 2074.28,1261.28 2076.16,1274.89 2078.05,1256.21 2079.93,1219.65 2081.81,1213.4 2083.69,1194.65 2085.57,1300.54 2087.46,1273.09 
  2089.34,1291.04 2091.22,1288.27 2093.1,1284.18 2094.98,1287.41 2096.86,1298.53 2098.75,1308.2 2100.63,1307.73 2102.51,1302.39 2104.39,1297.62 2106.27,1310.51 
  2108.15,1278.67 2110.04,1298.87 2111.92,1258.6 2113.8,1271.51 2115.68,1288.33 2117.56,1265.25 2119.45,1224.81 2121.33,1242.74 2123.21,1271.76 2125.09,1282.02 
  2126.97,1229.35 2128.85,1142.98 2130.74,1165.44 2132.62,1232.85 2134.5,1195.42 2136.38,1274.28 2138.26,1285.43 2140.14,1237.99 2142.03,1227.99 2143.91,1247.13 
  2145.79,1209.87 2147.67,1239.81 2149.55,1264.46 2151.43,1241.48 2153.32,1274.09 2155.2,1304.86 2157.08,1312.94 2158.96,1317.54 2160.84,1309.83 2162.73,1314.55 
  2164.61,1317.4 2166.49,1283.03 2168.37,1276.83 2170.25,1291.33 2172.13,1298.26 2174.02,1288.64 2175.9,1288.62 2177.78,1298.41 2179.66,1275.22 2181.54,1273.62 
  2183.42,1264.64 2185.31,1292.57 2187.19,1278.68 2189.07,1208.54 2190.95,1214.75 2192.83,1249.43 2194.71,1183.82 2196.6,1201.08 2198.48,1217.95 2200.36,1204.76 
  
  "/>
</svg>
