<?xml version="1.0" encoding="utf-8"?>
<svg xmlns="http://www.w3.org/2000/svg" xmlns:xlink="http://www.w3.org/1999/xlink" width="576" height="384" viewBox="0 0 2304 1536">
<defs>
  <clipPath id="clip730">
    <rect x="0" y="0" width="2304" height="1536"/>
  </clipPath>
</defs>
<path clip-path="url(#clip730)" d="
M0 1536 L2304 1536 L2304 0 L0 0  Z
  " fill="#ffffff" fill-rule="evenodd" fill-opacity="1"/>
<defs>
  <clipPath id="clip731">
    <rect x="460" y="0" width="1614" height="1536"/>
  </clipPath>
</defs>
<path clip-path="url(#clip730)" d="
M368.743 1359.82 L2256.76 1359.82 L2256.76 123.472 L368.743 123.472  Z
  " fill="#ffffff" fill-rule="evenodd" fill-opacity="1"/>
<defs>
  <clipPath id="clip732">
    <rect x="368" y="123" width="1889" height="1237"/>
  </clipPath>
</defs>
<polyline clip-path="url(#clip732)" style="stroke:#000000; stroke-width:2; stroke-opacity:0.1; fill:none" points="
  422.178,1359.82 422.178,123.472 
  "/>
<polyline clip-path="url(#clip732)" style="stroke:#000000; stroke-width:2; stroke-opacity:0.1; fill:none" points="
  867.464,1359.82 867.464,123.472 
  "/>
<polyline clip-path="url(#clip732)" style="stroke:#000000; stroke-width:2; stroke-opacity:0.1; fill:none" points="
  1312.75,1359.82 1312.75,123.472 
  "/>
<polyline clip-path="url(#clip732)" style="stroke:#000000; stroke-width:2; stroke-opacity:0.1; fill:none" points="
  1758.04,1359.82 1758.04,123.472 
  "/>
<polyline clip-path="url(#clip732)" style="stroke:#000000; stroke-width:2; stroke-opacity:0.1; fill:none" points="
  2203.32,1359.82 2203.32,123.472 
  "/>
<polyline clip-path="url(#clip730)" style="stroke:#000000; stroke-width:4; stroke-opacity:1; fill:none" points="
  368.743,1359.82 2256.76,1359.82 
  "/>
<polyline clip-path="url(#clip730)" style="stroke:#000000; stroke-width:4; stroke-opacity:1; fill:none" points="
  422.178,1359.82 422.178,1344.98 
  "/>
<polyline clip-path="url(#clip730)" style="stroke:#000000; stroke-width:4; stroke-opacity:1; fill:none" points="
  867.464,1359.82 867.464,1344.98 
  "/>
<polyline clip-path="url(#clip730)" style="stroke:#000000; stroke-width:4; stroke-opacity:1; fill:none" points="
  1312.75,1359.82 1312.75,1344.98 
  "/>
<polyline clip-path="url(#clip730)" style="stroke:#000000; stroke-width:4; stroke-opacity:1; fill:none" points="
  1758.04,1359.82 1758.04,1344.98 
  "/>
<polyline clip-path="url(#clip730)" style="stroke:#000000; stroke-width:4; stroke-opacity:1; fill:none" points="
  2203.32,1359.82 2203.32,1344.98 
  "/>
<path clip-path="url(#clip730)" d="M 0 0 M422.178 1388.24 Q418.567 1388.24 416.738 1391.81 Q414.932 1395.35 414.932 1402.48 Q414.932 1409.59 416.738 1413.15 Q418.567 1416.69 422.178 1416.69 Q425.812 1416.69 427.618 1413.15 Q429.446 1409.59 429.446 1402.48 Q429.446 1395.35 427.618 1391.81 Q425.812 1388.24 422.178 1388.24 M422.178 1384.54 Q427.988 1384.54 431.043 1389.15 Q434.122 1393.73 434.122 1402.48 Q434.122 1411.21 431.043 1415.81 Q427.988 1420.4 422.178 1420.4 Q416.368 1420.4 413.289 1415.81 Q410.233 1411.21 410.233 1402.48 Q410.233 1393.73 413.289 1389.15 Q416.368 1384.54 422.178 1384.54 Z" fill="#000000" fill-rule="evenodd" fill-opacity="1" /><path clip-path="url(#clip730)" d="M 0 0 M857.742 1385.16 L876.098 1385.16 L876.098 1389.1 L862.024 1389.1 L862.024 1397.57 Q863.042 1397.22 864.061 1397.06 Q865.079 1396.88 866.098 1396.88 Q871.885 1396.88 875.265 1400.05 Q878.644 1403.22 878.644 1408.64 Q878.644 1414.21 875.172 1417.32 Q871.7 1420.4 865.38 1420.4 Q863.204 1420.4 860.936 1420.02 Q858.691 1419.65 856.283 1418.91 L856.283 1414.21 Q858.367 1415.35 860.589 1415.9 Q862.811 1416.46 865.288 1416.46 Q869.292 1416.46 871.63 1414.35 Q873.968 1412.25 873.968 1408.64 Q873.968 1405.02 871.63 1402.92 Q869.292 1400.81 865.288 1400.81 Q863.413 1400.81 861.538 1401.23 Q859.686 1401.65 857.742 1402.52 L857.742 1385.16 Z" fill="#000000" fill-rule="evenodd" fill-opacity="1" /><path clip-path="url(#clip730)" d="M 0 0 M1287.44 1415.79 L1295.08 1415.79 L1295.08 1389.42 L1286.77 1391.09 L1286.77 1386.83 L1295.03 1385.16 L1299.71 1385.16 L1299.71 1415.79 L1307.34 1415.79 L1307.34 1419.72 L1287.44 1419.72 L1287.44 1415.79 Z" fill="#000000" fill-rule="evenodd" fill-opacity="1" /><path clip-path="url(#clip730)" d="M 0 0 M1326.79 1388.24 Q1323.18 1388.24 1321.35 1391.81 Q1319.54 1395.35 1319.54 1402.48 Q1319.54 1409.59 1321.35 1413.15 Q1323.18 1416.69 1326.79 1416.69 Q1330.42 1416.69 1332.23 1413.15 Q1334.06 1409.59 1334.06 1402.48 Q1334.06 1395.35 1332.23 1391.81 Q1330.42 1388.24 1326.79 1388.24 M1326.79 1384.54 Q1332.6 1384.54 1335.65 1389.15 Q1338.73 1393.73 1338.73 1402.48 Q1338.73 1411.21 1335.65 1415.81 Q1332.6 1420.4 1326.79 1420.4 Q1320.98 1420.4 1317.9 1415.81 Q1314.84 1411.21 1314.84 1402.48 Q1314.84 1393.73 1317.9 1389.15 Q1320.98 1384.54 1326.79 1384.54 Z" fill="#000000" fill-rule="evenodd" fill-opacity="1" /><path clip-path="url(#clip730)" d="M 0 0 M1733.22 1415.79 L1740.86 1415.79 L1740.86 1389.42 L1732.55 1391.09 L1732.55 1386.83 L1740.81 1385.16 L1745.49 1385.16 L1745.49 1415.79 L1753.13 1415.79 L1753.13 1419.72 L1733.22 1419.72 L1733.22 1415.79 Z" fill="#000000" fill-rule="evenodd" fill-opacity="1" /><path clip-path="url(#clip730)" d="M 0 0 M1762.62 1385.16 L1780.98 1385.16 L1780.98 1389.1 L1766.9 1389.1 L1766.9 1397.57 Q1767.92 1397.22 1768.94 1397.06 Q1769.96 1396.88 1770.98 1396.88 Q1776.76 1396.88 1780.14 1400.05 Q1783.52 1403.22 1783.52 1408.64 Q1783.52 1414.21 1780.05 1417.32 Q1776.58 1420.4 1770.26 1420.4 Q1768.08 1420.4 1765.81 1420.02 Q1763.57 1419.65 1761.16 1418.91 L1761.16 1414.21 Q1763.24 1415.35 1765.47 1415.9 Q1767.69 1416.46 1770.17 1416.46 Q1774.17 1416.46 1776.51 1414.35 Q1778.85 1412.25 1778.85 1408.64 Q1778.85 1405.02 1776.51 1402.92 Q1774.17 1400.81 1770.17 1400.81 Q1768.29 1400.81 1766.42 1401.23 Q1764.56 1401.65 1762.62 1402.52 L1762.62 1385.16 Z" fill="#000000" fill-rule="evenodd" fill-opacity="1" /><path clip-path="url(#clip730)" d="M 0 0 M2182.09 1415.79 L2198.41 1415.79 L2198.41 1419.72 L2176.47 1419.72 L2176.47 1415.79 Q2179.13 1413.03 2183.72 1408.4 Q2188.32 1403.75 2189.5 1402.41 Q2191.75 1399.89 2192.63 1398.15 Q2193.53 1396.39 2193.53 1394.7 Q2193.53 1391.95 2191.59 1390.21 Q2189.66 1388.47 2186.56 1388.47 Q2184.36 1388.47 2181.91 1389.24 Q2179.48 1390 2176.7 1391.55 L2176.7 1386.83 Q2179.53 1385.7 2181.98 1385.12 Q2184.43 1384.54 2186.47 1384.54 Q2191.84 1384.54 2195.03 1387.22 Q2198.23 1389.91 2198.23 1394.4 Q2198.23 1396.53 2197.42 1398.45 Q2196.63 1400.35 2194.53 1402.94 Q2193.95 1403.61 2190.84 1406.83 Q2187.74 1410.02 2182.09 1415.79 Z" fill="#000000" fill-rule="evenodd" fill-opacity="1" /><path clip-path="url(#clip730)" d="M 0 0 M2218.23 1388.24 Q2214.62 1388.24 2212.79 1391.81 Q2210.98 1395.35 2210.98 1402.48 Q2210.98 1409.59 2212.79 1413.15 Q2214.62 1416.69 2218.23 1416.69 Q2221.86 1416.69 2223.67 1413.15 Q2225.5 1409.59 2225.5 1402.48 Q2225.5 1395.35 2223.67 1391.81 Q2221.86 1388.24 2218.23 1388.24 M2218.23 1384.54 Q2224.04 1384.54 2227.09 1389.15 Q2230.17 1393.73 2230.17 1402.48 Q2230.17 1411.21 2227.09 1415.81 Q2224.04 1420.4 2218.23 1420.4 Q2212.42 1420.4 2209.34 1415.81 Q2206.28 1411.21 2206.28 1402.48 Q2206.28 1393.73 2209.34 1389.15 Q2212.42 1384.54 2218.23 1384.54 Z" fill="#000000" fill-rule="evenodd" fill-opacity="1" /><path clip-path="url(#clip730)" d="M 0 0 M1179.55 1457.47 L1179.55 1467.6 L1191.61 1467.6 L1191.61 1472.15 L1179.55 1472.15 L1179.55 1491.5 Q1179.55 1495.86 1180.72 1497.1 Q1181.93 1498.34 1185.59 1498.34 L1191.61 1498.34 L1191.61 1503.24 L1185.59 1503.24 Q1178.82 1503.24 1176.24 1500.73 Q1173.66 1498.18 1173.66 1491.5 L1173.66 1472.15 L1169.36 1472.15 L1169.36 1467.6 L1173.66 1467.6 L1173.66 1457.47 L1179.55 1457.47 Z" fill="#000000" fill-rule="evenodd" fill-opacity="1" /><path clip-path="url(#clip730)" d="M 0 0 M1199.31 1467.6 L1205.17 1467.6 L1205.17 1503.24 L1199.31 1503.24 L1199.31 1467.6 M1199.31 1453.72 L1205.17 1453.72 L1205.17 1461.13 L1199.31 1461.13 L1199.31 1453.72 Z" fill="#000000" fill-rule="evenodd" fill-opacity="1" /><path clip-path="url(#clip730)" d="M 0 0 M1245.18 1474.44 Q1247.37 1470.49 1250.43 1468.61 Q1253.48 1466.74 1257.62 1466.74 Q1263.19 1466.74 1266.22 1470.65 Q1269.24 1474.53 1269.24 1481.73 L1269.24 1503.24 L1263.35 1503.24 L1263.35 1481.92 Q1263.35 1476.79 1261.54 1474.31 Q1259.72 1471.83 1256 1471.83 Q1251.45 1471.83 1248.81 1474.85 Q1246.16 1477.88 1246.16 1483.1 L1246.16 1503.24 L1240.28 1503.24 L1240.28 1481.92 Q1240.28 1476.76 1238.46 1474.31 Q1236.65 1471.83 1232.86 1471.83 Q1228.37 1471.83 1225.73 1474.88 Q1223.09 1477.91 1223.09 1483.1 L1223.09 1503.24 L1217.2 1503.24 L1217.2 1467.6 L1223.09 1467.6 L1223.09 1473.13 Q1225.09 1469.86 1227.89 1468.3 Q1230.7 1466.74 1234.55 1466.74 Q1238.43 1466.74 1241.14 1468.71 Q1243.87 1470.68 1245.18 1474.44 Z" fill="#000000" fill-rule="evenodd" fill-opacity="1" /><path clip-path="url(#clip730)" d="M 0 0 M1311.41 1483.96 L1311.41 1486.82 L1284.49 1486.82 Q1284.87 1492.87 1288.11 1496.05 Q1291.39 1499.2 1297.22 1499.2 Q1300.59 1499.2 1303.74 1498.37 Q1306.93 1497.55 1310.04 1495.89 L1310.04 1501.43 Q1306.89 1502.77 1303.58 1503.47 Q1300.27 1504.17 1296.87 1504.17 Q1288.34 1504.17 1283.34 1499.2 Q1278.37 1494.24 1278.37 1485.77 Q1278.37 1477.02 1283.09 1471.89 Q1287.83 1466.74 1295.85 1466.74 Q1303.04 1466.74 1307.21 1471.38 Q1311.41 1476 1311.41 1483.96 M1305.56 1482.24 Q1305.49 1477.43 1302.85 1474.57 Q1300.24 1471.7 1295.91 1471.7 Q1291.01 1471.7 1288.05 1474.47 Q1285.12 1477.24 1284.68 1482.27 L1305.56 1482.24 Z" fill="#000000" fill-rule="evenodd" fill-opacity="1" /><path clip-path="url(#clip730)" d="M 0 0 M1355.81 1453.78 Q1351.55 1461.1 1349.48 1468.26 Q1347.41 1475.43 1347.41 1482.78 Q1347.41 1490.13 1349.48 1497.36 Q1351.58 1504.55 1355.81 1511.84 L1350.72 1511.84 Q1345.95 1504.36 1343.56 1497.13 Q1341.2 1489.91 1341.2 1482.78 Q1341.2 1475.68 1343.56 1468.49 Q1345.91 1461.29 1350.72 1453.78 L1355.81 1453.78 Z" fill="#000000" fill-rule="evenodd" fill-opacity="1" /><path clip-path="url(#clip730)" d="M 0 0 M1396.81 1481.73 L1396.81 1503.24 L1390.95 1503.24 L1390.95 1481.92 Q1390.95 1476.86 1388.98 1474.34 Q1387.01 1471.83 1383.06 1471.83 Q1378.32 1471.83 1375.58 1474.85 Q1372.84 1477.88 1372.84 1483.1 L1372.84 1503.24 L1366.95 1503.24 L1366.95 1467.6 L1372.84 1467.6 L1372.84 1473.13 Q1374.94 1469.92 1377.78 1468.33 Q1380.64 1466.74 1384.36 1466.74 Q1390.51 1466.74 1393.66 1470.56 Q1396.81 1474.34 1396.81 1481.73 Z" fill="#000000" fill-rule="evenodd" fill-opacity="1" /><path clip-path="url(#clip730)" d="M 0 0 M1431.22 1468.65 L1431.22 1474.18 Q1428.73 1472.91 1426.06 1472.27 Q1423.39 1471.64 1420.52 1471.64 Q1416.16 1471.64 1413.96 1472.97 Q1411.8 1474.31 1411.8 1476.99 Q1411.8 1479.02 1413.36 1480.2 Q1414.92 1481.35 1419.63 1482.4 L1421.64 1482.84 Q1427.87 1484.18 1430.48 1486.63 Q1433.13 1489.05 1433.13 1493.41 Q1433.13 1498.37 1429.18 1501.27 Q1425.26 1504.17 1418.39 1504.17 Q1415.52 1504.17 1412.4 1503.59 Q1409.32 1503.05 1405.88 1501.94 L1405.88 1495.89 Q1409.13 1497.58 1412.28 1498.44 Q1415.43 1499.27 1418.52 1499.27 Q1422.65 1499.27 1424.88 1497.86 Q1427.11 1496.43 1427.11 1493.85 Q1427.11 1491.47 1425.49 1490.19 Q1423.89 1488.92 1418.45 1487.74 L1416.42 1487.27 Q1410.97 1486.12 1408.55 1483.76 Q1406.13 1481.38 1406.13 1477.24 Q1406.13 1472.21 1409.7 1469.47 Q1413.26 1466.74 1419.82 1466.74 Q1423.07 1466.74 1425.93 1467.21 Q1428.8 1467.69 1431.22 1468.65 Z" fill="#000000" fill-rule="evenodd" fill-opacity="1" /><path clip-path="url(#clip730)" d="M 0 0 M1441.53 1453.78 L1446.62 1453.78 Q1451.39 1461.29 1453.75 1468.49 Q1456.14 1475.68 1456.14 1482.78 Q1456.14 1489.91 1453.75 1497.13 Q1451.39 1504.36 1446.62 1511.84 L1441.53 1511.84 Q1445.76 1504.55 1447.83 1497.36 Q1449.93 1490.13 1449.93 1482.78 Q1449.93 1475.43 1447.83 1468.26 Q1445.76 1461.1 1441.53 1453.78 Z" fill="#000000" fill-rule="evenodd" fill-opacity="1" /><polyline clip-path="url(#clip732)" style="stroke:#000000; stroke-width:2; stroke-opacity:0.1; fill:none" points="
  368.743,1324.86 2256.76,1324.86 
  "/>
<polyline clip-path="url(#clip732)" style="stroke:#000000; stroke-width:2; stroke-opacity:0.1; fill:none" points="
  368.743,1028.82 2256.76,1028.82 
  "/>
<polyline clip-path="url(#clip732)" style="stroke:#000000; stroke-width:2; stroke-opacity:0.1; fill:none" points="
  368.743,732.78 2256.76,732.78 
  "/>
<polyline clip-path="url(#clip732)" style="stroke:#000000; stroke-width:2; stroke-opacity:0.1; fill:none" points="
  368.743,436.737 2256.76,436.737 
  "/>
<polyline clip-path="url(#clip732)" style="stroke:#000000; stroke-width:2; stroke-opacity:0.1; fill:none" points="
  368.743,140.695 2256.76,140.695 
  "/>
<polyline clip-path="url(#clip730)" style="stroke:#000000; stroke-width:4; stroke-opacity:1; fill:none" points="
  368.743,1359.82 368.743,123.472 
  "/>
<polyline clip-path="url(#clip730)" style="stroke:#000000; stroke-width:4; stroke-opacity:1; fill:none" points="
  368.743,1324.86 391.4,1324.86 
  "/>
<polyline clip-path="url(#clip730)" style="stroke:#000000; stroke-width:4; stroke-opacity:1; fill:none" points="
  368.743,1028.82 391.4,1028.82 
  "/>
<polyline clip-path="url(#clip730)" style="stroke:#000000; stroke-width:4; stroke-opacity:1; fill:none" points="
  368.743,732.78 391.4,732.78 
  "/>
<polyline clip-path="url(#clip730)" style="stroke:#000000; stroke-width:4; stroke-opacity:1; fill:none" points="
  368.743,436.737 391.4,436.737 
  "/>
<polyline clip-path="url(#clip730)" style="stroke:#000000; stroke-width:4; stroke-opacity:1; fill:none" points="
  368.743,140.695 391.4,140.695 
  "/>
<path clip-path="url(#clip730)" d="M 0 0 M322.239 1310.66 Q318.628 1310.66 316.799 1314.23 Q314.994 1317.77 314.994 1324.9 Q314.994 1332.01 316.799 1335.57 Q318.628 1339.11 322.239 1339.11 Q325.873 1339.11 327.679 1335.57 Q329.508 1332.01 329.508 1324.9 Q329.508 1317.77 327.679 1314.23 Q325.873 1310.66 322.239 1310.66 M322.239 1306.96 Q328.049 1306.96 331.105 1311.57 Q334.183 1316.15 334.183 1324.9 Q334.183 1333.63 331.105 1338.23 Q328.049 1342.82 322.239 1342.82 Q316.429 1342.82 313.35 1338.23 Q310.295 1333.63 310.295 1324.9 Q310.295 1316.15 313.35 1311.57 Q316.429 1306.96 322.239 1306.96 Z" fill="#000000" fill-rule="evenodd" fill-opacity="1" /><path clip-path="url(#clip730)" d="M 0 0 M120.365 1048.61 L136.684 1048.61 L136.684 1052.55 L114.74 1052.55 L114.74 1048.61 Q117.402 1045.86 121.985 1041.23 Q126.592 1036.58 127.772 1035.24 Q130.018 1032.71 130.897 1030.98 Q131.8 1029.22 131.8 1027.53 Q131.8 1024.77 129.856 1023.04 Q127.935 1021.3 124.833 1021.3 Q122.634 1021.3 120.18 1022.06 Q117.749 1022.83 114.972 1024.38 L114.972 1019.66 Q117.796 1018.52 120.249 1017.94 Q122.703 1017.36 124.74 1017.36 Q130.11 1017.36 133.305 1020.05 Q136.499 1022.74 136.499 1027.23 Q136.499 1029.36 135.689 1031.28 Q134.902 1033.17 132.796 1035.77 Q132.217 1036.44 129.115 1039.66 Q126.013 1042.85 120.365 1048.61 Z" fill="#000000" fill-rule="evenodd" fill-opacity="1" /><path clip-path="url(#clip730)" d="M 0 0 M146.499 1046.67 L151.383 1046.67 L151.383 1052.55 L146.499 1052.55 L146.499 1046.67 Z" fill="#000000" fill-rule="evenodd" fill-opacity="1" /><path clip-path="url(#clip730)" d="M 0 0 M161.615 1017.99 L179.971 1017.99 L179.971 1021.92 L165.897 1021.92 L165.897 1030.4 Q166.916 1030.05 167.934 1029.89 Q168.953 1029.7 169.971 1029.7 Q175.758 1029.7 179.138 1032.87 Q182.518 1036.05 182.518 1041.46 Q182.518 1047.04 179.045 1050.14 Q175.573 1053.22 169.254 1053.22 Q167.078 1053.22 164.809 1052.85 Q162.564 1052.48 160.157 1051.74 L160.157 1047.04 Q162.24 1048.17 164.462 1048.73 Q166.684 1049.29 169.161 1049.29 Q173.166 1049.29 175.504 1047.18 Q177.842 1045.07 177.842 1041.46 Q177.842 1037.85 175.504 1035.74 Q173.166 1033.64 169.161 1033.64 Q167.286 1033.64 165.411 1034.05 Q163.559 1034.47 161.615 1035.35 L161.615 1017.99 Z" fill="#000000" fill-rule="evenodd" fill-opacity="1" /><path clip-path="url(#clip730)" d="M 0 0 M201.73 1021.07 Q198.119 1021.07 196.291 1024.63 Q194.485 1028.17 194.485 1035.3 Q194.485 1042.41 196.291 1045.98 Q198.119 1049.52 201.73 1049.52 Q205.365 1049.52 207.17 1045.98 Q208.999 1042.41 208.999 1035.3 Q208.999 1028.17 207.17 1024.63 Q205.365 1021.07 201.73 1021.07 M201.73 1017.36 Q207.541 1017.36 210.596 1021.97 Q213.675 1026.55 213.675 1035.3 Q213.675 1044.03 210.596 1048.64 Q207.541 1053.22 201.73 1053.22 Q195.92 1053.22 192.842 1048.64 Q189.786 1044.03 189.786 1035.3 Q189.786 1026.55 192.842 1021.97 Q195.92 1017.36 201.73 1017.36 Z" fill="#000000" fill-rule="evenodd" fill-opacity="1" /><path clip-path="url(#clip730)" d="M 0 0 M250.064 1027.09 L239.485 1037.71 L250.064 1048.29 L247.309 1051.09 L236.684 1040.47 L226.059 1051.09 L223.328 1048.29 L233.883 1037.71 L223.328 1027.09 L226.059 1024.29 L236.684 1034.91 L247.309 1024.29 L250.064 1027.09 Z" fill="#000000" fill-rule="evenodd" fill-opacity="1" /><path clip-path="url(#clip730)" d="M 0 0 M262.425 1048.61 L270.063 1048.61 L270.063 1022.25 L261.753 1023.92 L261.753 1019.66 L270.017 1017.99 L274.693 1017.99 L274.693 1048.61 L282.332 1048.61 L282.332 1052.55 L262.425 1052.55 L262.425 1048.61 Z" fill="#000000" fill-rule="evenodd" fill-opacity="1" /><path clip-path="url(#clip730)" d="M 0 0 M301.776 1021.07 Q298.165 1021.07 296.336 1024.63 Q294.531 1028.17 294.531 1035.3 Q294.531 1042.41 296.336 1045.98 Q298.165 1049.52 301.776 1049.52 Q305.41 1049.52 307.216 1045.98 Q309.045 1042.41 309.045 1035.3 Q309.045 1028.17 307.216 1024.63 Q305.41 1021.07 301.776 1021.07 M301.776 1017.36 Q307.586 1017.36 310.642 1021.97 Q313.721 1026.55 313.721 1035.3 Q313.721 1044.03 310.642 1048.64 Q307.586 1053.22 301.776 1053.22 Q295.966 1053.22 292.887 1048.64 Q289.832 1044.03 289.832 1035.3 Q289.832 1026.55 292.887 1021.97 Q295.966 1017.36 301.776 1017.36 Z" fill="#000000" fill-rule="evenodd" fill-opacity="1" /><path clip-path="url(#clip730)" d="M 0 0 M326.397 1000.37 L316.805 1015.36 L326.397 1015.36 L326.397 1000.37 M325.4 997.059 L330.177 997.059 L330.177 1015.36 L334.183 1015.36 L334.183 1018.52 L330.177 1018.52 L330.177 1025.14 L326.397 1025.14 L326.397 1018.52 L313.721 1018.52 L313.721 1014.85 L325.4 997.059 Z" fill="#000000" fill-rule="evenodd" fill-opacity="1" /><path clip-path="url(#clip730)" d="M 0 0 M116.384 721.947 L134.74 721.947 L134.74 725.883 L120.666 725.883 L120.666 734.355 Q121.685 734.008 122.703 733.846 Q123.722 733.66 124.74 733.66 Q130.527 733.66 133.907 736.832 Q137.286 740.003 137.286 745.42 Q137.286 750.998 133.814 754.1 Q130.342 757.179 124.023 757.179 Q121.847 757.179 119.578 756.808 Q117.333 756.438 114.925 755.697 L114.925 750.998 Q117.009 752.132 119.231 752.688 Q121.453 753.244 123.93 753.244 Q127.935 753.244 130.272 751.137 Q132.61 749.031 132.61 745.42 Q132.61 741.808 130.272 739.702 Q127.935 737.595 123.93 737.595 Q122.055 737.595 120.18 738.012 Q118.328 738.429 116.384 739.308 L116.384 721.947 Z" fill="#000000" fill-rule="evenodd" fill-opacity="1" /><path clip-path="url(#clip730)" d="M 0 0 M146.499 750.628 L151.383 750.628 L151.383 756.507 L146.499 756.507 L146.499 750.628 Z" fill="#000000" fill-rule="evenodd" fill-opacity="1" /><path clip-path="url(#clip730)" d="M 0 0 M171.569 725.026 Q167.957 725.026 166.129 728.591 Q164.323 732.133 164.323 739.262 Q164.323 746.369 166.129 749.933 Q167.957 753.475 171.569 753.475 Q175.203 753.475 177.008 749.933 Q178.837 746.369 178.837 739.262 Q178.837 732.133 177.008 728.591 Q175.203 725.026 171.569 725.026 M171.569 721.322 Q177.379 721.322 180.434 725.929 Q183.513 730.512 183.513 739.262 Q183.513 747.989 180.434 752.595 Q177.379 757.179 171.569 757.179 Q165.758 757.179 162.68 752.595 Q159.624 747.989 159.624 739.262 Q159.624 730.512 162.68 725.929 Q165.758 721.322 171.569 721.322 Z" fill="#000000" fill-rule="evenodd" fill-opacity="1" /><path clip-path="url(#clip730)" d="M 0 0 M201.73 725.026 Q198.119 725.026 196.291 728.591 Q194.485 732.133 194.485 739.262 Q194.485 746.369 196.291 749.933 Q198.119 753.475 201.73 753.475 Q205.365 753.475 207.17 749.933 Q208.999 746.369 208.999 739.262 Q208.999 732.133 207.17 728.591 Q205.365 725.026 201.73 725.026 M201.73 721.322 Q207.541 721.322 210.596 725.929 Q213.675 730.512 213.675 739.262 Q213.675 747.989 210.596 752.595 Q207.541 757.179 201.73 757.179 Q195.92 757.179 192.842 752.595 Q189.786 747.989 189.786 739.262 Q189.786 730.512 192.842 725.929 Q195.92 721.322 201.73 721.322 Z" fill="#000000" fill-rule="evenodd" fill-opacity="1" /><path clip-path="url(#clip730)" d="M 0 0 M250.064 731.045 L239.485 741.67 L250.064 752.248 L247.309 755.049 L236.684 744.424 L226.059 755.049 L223.328 752.248 L233.883 741.67 L223.328 731.045 L226.059 728.244 L236.684 738.869 L247.309 728.244 L250.064 731.045 Z" fill="#000000" fill-rule="evenodd" fill-opacity="1" /><path clip-path="url(#clip730)" d="M 0 0 M262.425 752.572 L270.063 752.572 L270.063 726.207 L261.753 727.873 L261.753 723.614 L270.017 721.947 L274.693 721.947 L274.693 752.572 L282.332 752.572 L282.332 756.507 L262.425 756.507 L262.425 752.572 Z" fill="#000000" fill-rule="evenodd" fill-opacity="1" /><path clip-path="url(#clip730)" d="M 0 0 M301.776 725.026 Q298.165 725.026 296.336 728.591 Q294.531 732.133 294.531 739.262 Q294.531 746.369 296.336 749.933 Q298.165 753.475 301.776 753.475 Q305.41 753.475 307.216 749.933 Q309.045 746.369 309.045 739.262 Q309.045 732.133 307.216 728.591 Q305.41 725.026 301.776 725.026 M301.776 721.322 Q307.586 721.322 310.642 725.929 Q313.721 730.512 313.721 739.262 Q313.721 747.989 310.642 752.595 Q307.586 757.179 301.776 757.179 Q295.966 757.179 292.887 752.595 Q289.832 747.989 289.832 739.262 Q289.832 730.512 292.887 725.929 Q295.966 721.322 301.776 721.322 Z" fill="#000000" fill-rule="evenodd" fill-opacity="1" /><path clip-path="url(#clip730)" d="M 0 0 M326.397 704.327 L316.805 719.317 L326.397 719.317 L326.397 704.327 M325.4 701.017 L330.177 701.017 L330.177 719.317 L334.183 719.317 L334.183 722.477 L330.177 722.477 L330.177 729.097 L326.397 729.097 L326.397 722.477 L313.721 722.477 L313.721 718.809 L325.4 701.017 Z" fill="#000000" fill-rule="evenodd" fill-opacity="1" /><path clip-path="url(#clip730)" d="M 0 0 M115.157 425.905 L137.379 425.905 L137.379 427.896 L124.833 460.465 L119.948 460.465 L131.754 429.84 L115.157 429.84 L115.157 425.905 Z" fill="#000000" fill-rule="evenodd" fill-opacity="1" /><path clip-path="url(#clip730)" d="M 0 0 M146.499 454.585 L151.383 454.585 L151.383 460.465 L146.499 460.465 L146.499 454.585 Z" fill="#000000" fill-rule="evenodd" fill-opacity="1" /><path clip-path="url(#clip730)" d="M 0 0 M161.615 425.905 L179.971 425.905 L179.971 429.84 L165.897 429.84 L165.897 438.312 Q166.916 437.965 167.934 437.803 Q168.953 437.618 169.971 437.618 Q175.758 437.618 179.138 440.789 Q182.518 443.96 182.518 449.377 Q182.518 454.956 179.045 458.058 Q175.573 461.136 169.254 461.136 Q167.078 461.136 164.809 460.766 Q162.564 460.396 160.157 459.655 L160.157 454.956 Q162.24 456.09 164.462 456.646 Q166.684 457.201 169.161 457.201 Q173.166 457.201 175.504 455.095 Q177.842 452.988 177.842 449.377 Q177.842 445.766 175.504 443.66 Q173.166 441.553 169.161 441.553 Q167.286 441.553 165.411 441.97 Q163.559 442.386 161.615 443.266 L161.615 425.905 Z" fill="#000000" fill-rule="evenodd" fill-opacity="1" /><path clip-path="url(#clip730)" d="M 0 0 M201.73 428.984 Q198.119 428.984 196.291 432.548 Q194.485 436.09 194.485 443.22 Q194.485 450.326 196.291 453.891 Q198.119 457.433 201.73 457.433 Q205.365 457.433 207.17 453.891 Q208.999 450.326 208.999 443.22 Q208.999 436.09 207.17 432.548 Q205.365 428.984 201.73 428.984 M201.73 425.28 Q207.541 425.28 210.596 429.886 Q213.675 434.47 213.675 443.22 Q213.675 451.947 210.596 456.553 Q207.541 461.136 201.73 461.136 Q195.92 461.136 192.842 456.553 Q189.786 451.947 189.786 443.22 Q189.786 434.47 192.842 429.886 Q195.92 425.28 201.73 425.28 Z" fill="#000000" fill-rule="evenodd" fill-opacity="1" /><path clip-path="url(#clip730)" d="M 0 0 M250.064 435.002 L239.485 445.627 L250.064 456.206 L247.309 459.007 L236.684 448.382 L226.059 459.007 L223.328 456.206 L233.883 445.627 L223.328 435.002 L226.059 432.201 L236.684 442.826 L247.309 432.201 L250.064 435.002 Z" fill="#000000" fill-rule="evenodd" fill-opacity="1" /><path clip-path="url(#clip730)" d="M 0 0 M262.425 456.53 L270.063 456.53 L270.063 430.164 L261.753 431.831 L261.753 427.572 L270.017 425.905 L274.693 425.905 L274.693 456.53 L282.332 456.53 L282.332 460.465 L262.425 460.465 L262.425 456.53 Z" fill="#000000" fill-rule="evenodd" fill-opacity="1" /><path clip-path="url(#clip730)" d="M 0 0 M301.776 428.984 Q298.165 428.984 296.336 432.548 Q294.531 436.09 294.531 443.22 Q294.531 450.326 296.336 453.891 Q298.165 457.433 301.776 457.433 Q305.41 457.433 307.216 453.891 Q309.045 450.326 309.045 443.22 Q309.045 436.09 307.216 432.548 Q305.41 428.984 301.776 428.984 M301.776 425.28 Q307.586 425.28 310.642 429.886 Q313.721 434.47 313.721 443.22 Q313.721 451.947 310.642 456.553 Q307.586 461.136 301.776 461.136 Q295.966 461.136 292.887 456.553 Q289.832 451.947 289.832 443.22 Q289.832 434.47 292.887 429.886 Q295.966 425.28 301.776 425.28 Z" fill="#000000" fill-rule="evenodd" fill-opacity="1" /><path clip-path="url(#clip730)" d="M 0 0 M326.397 408.285 L316.805 423.275 L326.397 423.275 L326.397 408.285 M325.4 404.975 L330.177 404.975 L330.177 423.275 L334.183 423.275 L334.183 426.434 L330.177 426.434 L330.177 433.055 L326.397 433.055 L326.397 426.434 L313.721 426.434 L313.721 422.767 L325.4 404.975 Z" fill="#000000" fill-rule="evenodd" fill-opacity="1" /><path clip-path="url(#clip730)" d="M 0 0 M119.442 160.487 L127.081 160.487 L127.081 134.122 L118.771 135.788 L118.771 131.529 L127.035 129.863 L131.711 129.863 L131.711 160.487 L139.349 160.487 L139.349 164.423 L119.442 164.423 L119.442 160.487 Z" fill="#000000" fill-rule="evenodd" fill-opacity="1" /><path clip-path="url(#clip730)" d="M 0 0 M148.794 158.543 L153.678 158.543 L153.678 164.423 L148.794 164.423 L148.794 158.543 Z" fill="#000000" fill-rule="evenodd" fill-opacity="1" /><path clip-path="url(#clip730)" d="M 0 0 M173.863 132.941 Q170.252 132.941 168.423 136.506 Q166.618 140.048 166.618 147.177 Q166.618 154.284 168.423 157.849 Q170.252 161.39 173.863 161.39 Q177.497 161.39 179.303 157.849 Q181.132 154.284 181.132 147.177 Q181.132 140.048 179.303 136.506 Q177.497 132.941 173.863 132.941 M173.863 129.238 Q179.673 129.238 182.729 133.844 Q185.807 138.427 185.807 147.177 Q185.807 155.904 182.729 160.511 Q179.673 165.094 173.863 165.094 Q168.053 165.094 164.974 160.511 Q161.919 155.904 161.919 147.177 Q161.919 138.427 164.974 133.844 Q168.053 129.238 173.863 129.238 Z" fill="#000000" fill-rule="evenodd" fill-opacity="1" /><path clip-path="url(#clip730)" d="M 0 0 M204.025 132.941 Q200.414 132.941 198.585 136.506 Q196.78 140.048 196.78 147.177 Q196.78 154.284 198.585 157.849 Q200.414 161.39 204.025 161.39 Q207.659 161.39 209.465 157.849 Q211.293 154.284 211.293 147.177 Q211.293 140.048 209.465 136.506 Q207.659 132.941 204.025 132.941 M204.025 129.238 Q209.835 129.238 212.891 133.844 Q215.969 138.427 215.969 147.177 Q215.969 155.904 212.891 160.511 Q209.835 165.094 204.025 165.094 Q198.215 165.094 195.136 160.511 Q192.081 155.904 192.081 147.177 Q192.081 138.427 195.136 133.844 Q198.215 129.238 204.025 129.238 Z" fill="#000000" fill-rule="evenodd" fill-opacity="1" /><path clip-path="url(#clip730)" d="M 0 0 M252.358 138.96 L241.779 149.585 L252.358 160.163 L249.603 162.964 L238.978 152.339 L228.354 162.964 L225.622 160.163 L236.178 149.585 L225.622 138.96 L228.354 136.159 L238.978 146.784 L249.603 136.159 L252.358 138.96 Z" fill="#000000" fill-rule="evenodd" fill-opacity="1" /><path clip-path="url(#clip730)" d="M 0 0 M264.719 160.487 L272.358 160.487 L272.358 134.122 L264.048 135.788 L264.048 131.529 L272.312 129.863 L276.988 129.863 L276.988 160.487 L284.626 160.487 L284.626 164.423 L264.719 164.423 L264.719 160.487 Z" fill="#000000" fill-rule="evenodd" fill-opacity="1" /><path clip-path="url(#clip730)" d="M 0 0 M304.071 132.941 Q300.46 132.941 298.631 136.506 Q296.825 140.048 296.825 147.177 Q296.825 154.284 298.631 157.849 Q300.46 161.39 304.071 161.39 Q307.705 161.39 309.511 157.849 Q311.339 154.284 311.339 147.177 Q311.339 140.048 309.511 136.506 Q307.705 132.941 304.071 132.941 M304.071 129.238 Q309.881 129.238 312.936 133.844 Q316.015 138.427 316.015 147.177 Q316.015 155.904 312.936 160.511 Q309.881 165.094 304.071 165.094 Q298.261 165.094 295.182 160.511 Q292.126 155.904 292.126 147.177 Q292.126 138.427 295.182 133.844 Q298.261 129.238 304.071 129.238 Z" fill="#000000" fill-rule="evenodd" fill-opacity="1" /><path clip-path="url(#clip730)" d="M 0 0 M317.2 108.932 L332.115 108.932 L332.115 112.13 L320.679 112.13 L320.679 119.013 Q321.507 118.731 322.335 118.599 Q323.162 118.449 323.99 118.449 Q328.692 118.449 331.437 121.026 Q334.183 123.602 334.183 128.003 Q334.183 132.536 331.362 135.056 Q328.541 137.558 323.407 137.558 Q321.639 137.558 319.795 137.257 Q317.971 136.956 316.015 136.354 L316.015 132.536 Q317.708 133.458 319.513 133.909 Q321.319 134.36 323.331 134.36 Q326.585 134.36 328.485 132.649 Q330.384 130.937 330.384 128.003 Q330.384 125.069 328.485 123.358 Q326.585 121.646 323.331 121.646 Q321.808 121.646 320.284 121.985 Q318.78 122.323 317.2 123.038 L317.2 108.932 Z" fill="#000000" fill-rule="evenodd" fill-opacity="1" /><path clip-path="url(#clip730)" d="M 0 0 M24.738 1022.71 L48.3866 1031.43 L48.3866 1013.95 L24.738 1022.71 M18.4042 1026.34 L18.4042 1019.05 L65.9242 1000.94 L65.9242 1007.62 L53.7338 1011.95 L53.7338 1033.37 L65.9242 1037.7 L65.9242 1044.48 L18.4042 1026.34 Z" fill="#000000" fill-rule="evenodd" fill-opacity="1" /><path clip-path="url(#clip730)" d="M 0 0 M30.2762 1002.27 L30.2762 996.067 L60.195 984.927 L30.2762 973.787 L30.2762 967.581 L65.9242 980.949 L65.9242 988.906 L30.2762 1002.27 Z" fill="#000000" fill-rule="evenodd" fill-opacity="1" /><path clip-path="url(#clip730)" d="M 0 0 M47.6864 936.039 Q41.3207 936.039 37.8196 938.681 Q34.3184 941.29 34.3184 946.033 Q34.3184 950.744 37.8196 953.385 Q41.3207 955.995 47.6864 955.995 Q54.0203 955.995 57.5214 953.385 Q61.0226 950.744 61.0226 946.033 Q61.0226 941.29 57.5214 938.681 Q54.0203 936.039 47.6864 936.039 M61.5 930.182 Q70.603 930.182 75.0271 934.225 Q79.4831 938.267 79.4831 946.606 Q79.4831 949.693 79.0057 952.43 Q78.5601 955.168 77.6052 957.746 L71.9079 957.746 Q73.3084 955.168 73.9768 952.653 Q74.6452 950.139 74.6452 947.529 Q74.6452 941.768 71.6215 938.903 Q68.6296 936.039 62.5503 936.039 L59.6539 936.039 Q62.805 937.853 64.3646 940.686 Q65.9242 943.518 65.9242 947.465 Q65.9242 954.022 60.9271 958.032 Q55.93 962.043 47.6864 962.043 Q39.411 962.043 34.4139 958.032 Q29.4168 954.022 29.4168 947.465 Q29.4168 943.518 30.9764 940.686 Q32.536 937.853 35.6871 936.039 L30.2762 936.039 L30.2762 930.182 L61.5 930.182 Z" fill="#000000" fill-rule="evenodd" fill-opacity="1" /><path clip-path="url(#clip730)" d="M 0 0 M60.577 891.733 L79.4831 891.733 L79.4831 897.622 L30.2762 897.622 L30.2762 891.733 L35.6871 891.733 Q32.5042 889.887 30.9764 887.086 Q29.4168 884.254 29.4168 880.339 Q29.4168 873.846 34.5731 869.804 Q39.7293 865.73 48.132 865.73 Q56.5347 865.73 61.691 869.804 Q66.8472 873.846 66.8472 880.339 Q66.8472 884.254 65.3194 887.086 Q63.7598 889.887 60.577 891.733 M48.132 871.809 Q41.6708 871.809 38.0105 874.482 Q34.3184 877.124 34.3184 881.771 Q34.3184 886.418 38.0105 889.092 Q41.6708 891.733 48.132 891.733 Q54.5932 891.733 58.2853 889.092 Q61.9456 886.418 61.9456 881.771 Q61.9456 877.124 58.2853 874.482 Q54.5932 871.809 48.132 871.809 Z" fill="#000000" fill-rule="evenodd" fill-opacity="1" /><path clip-path="url(#clip730)" d="M 0 0 M44.4081 826.389 L65.9242 826.389 L65.9242 832.246 L44.599 832.246 Q39.5383 832.246 37.0238 834.219 Q34.5094 836.193 34.5094 840.139 Q34.5094 844.882 37.5331 847.619 Q40.5568 850.356 45.7767 850.356 L65.9242 850.356 L65.9242 856.245 L16.399 856.245 L16.399 850.356 L35.8144 850.356 Q32.5997 848.256 31.0083 845.423 Q29.4168 842.558 29.4168 838.834 Q29.4168 832.692 33.2363 829.54 Q37.0238 826.389 44.4081 826.389 Z" fill="#000000" fill-rule="evenodd" fill-opacity="1" /><path clip-path="url(#clip730)" d="M 0 0 M34.3821 800.895 Q34.3821 805.605 38.0742 808.343 Q41.7345 811.08 48.132 811.08 Q54.5295 811.08 58.2217 808.375 Q61.8819 805.637 61.8819 800.895 Q61.8819 796.216 58.1898 793.479 Q54.4977 790.741 48.132 790.741 Q41.7981 790.741 38.106 793.479 Q34.3821 796.216 34.3821 800.895 M29.4168 800.895 Q29.4168 793.256 34.3821 788.895 Q39.3473 784.535 48.132 784.535 Q56.8849 784.535 61.8819 788.895 Q66.8472 793.256 66.8472 800.895 Q66.8472 808.565 61.8819 812.926 Q56.8849 817.255 48.132 817.255 Q39.3473 817.255 34.3821 812.926 Q29.4168 808.565 29.4168 800.895 Z" fill="#000000" fill-rule="evenodd" fill-opacity="1" /><path clip-path="url(#clip730)" d="M 0 0 M20.1547 769.034 L30.2762 769.034 L30.2762 756.971 L34.8277 756.971 L34.8277 769.034 L54.1794 769.034 Q58.5399 769.034 59.7813 767.857 Q61.0226 766.647 61.0226 762.987 L61.0226 756.971 L65.9242 756.971 L65.9242 762.987 Q65.9242 769.766 63.4097 772.345 Q60.8634 774.923 54.1794 774.923 L34.8277 774.923 L34.8277 779.22 L30.2762 779.22 L30.2762 774.923 L20.1547 774.923 L20.1547 769.034 Z" fill="#000000" fill-rule="evenodd" fill-opacity="1" /><path clip-path="url(#clip730)" d="M 0 0 M34.3821 735.455 Q34.3821 740.166 38.0742 742.903 Q41.7345 745.64 48.132 745.64 Q54.5295 745.64 58.2217 742.935 Q61.8819 740.198 61.8819 735.455 Q61.8819 730.777 58.1898 728.039 Q54.4977 725.302 48.132 725.302 Q41.7981 725.302 38.106 728.039 Q34.3821 730.777 34.3821 735.455 M29.4168 735.455 Q29.4168 727.816 34.3821 723.456 Q39.3473 719.095 48.132 719.095 Q56.8849 719.095 61.8819 723.456 Q66.8472 727.816 66.8472 735.455 Q66.8472 743.126 61.8819 747.487 Q56.8849 751.815 48.132 751.815 Q39.3473 751.815 34.3821 747.487 Q29.4168 743.126 29.4168 735.455 Z" fill="#000000" fill-rule="evenodd" fill-opacity="1" /><path clip-path="url(#clip730)" d="M 0 0 M44.4081 679.755 L65.9242 679.755 L65.9242 685.612 L44.599 685.612 Q39.5383 685.612 37.0238 687.585 Q34.5094 689.559 34.5094 693.505 Q34.5094 698.248 37.5331 700.985 Q40.5568 703.722 45.7767 703.722 L65.9242 703.722 L65.9242 709.611 L30.2762 709.611 L30.2762 703.722 L35.8144 703.722 Q32.5997 701.622 31.0083 698.789 Q29.4168 695.924 29.4168 692.2 Q29.4168 686.057 33.2363 682.906 Q37.0238 679.755 44.4081 679.755 Z" fill="#000000" fill-rule="evenodd" fill-opacity="1" /><path clip-path="url(#clip730)" d="M 0 0 M31.6448 621.7 L37.1193 621.7 Q35.7507 624.183 35.0823 626.697 Q34.3821 629.18 34.3821 631.726 Q34.3821 637.423 38.0105 640.574 Q41.6072 643.726 48.132 643.726 Q54.6569 643.726 58.2853 640.574 Q61.8819 637.423 61.8819 631.726 Q61.8819 629.18 61.2135 626.697 Q60.5133 624.183 59.1447 621.7 L64.5555 621.7 Q65.7014 624.151 66.2743 626.793 Q66.8472 629.403 66.8472 632.363 Q66.8472 640.415 61.7864 645.158 Q56.7257 649.9 48.132 649.9 Q39.411 649.9 34.4139 645.126 Q29.4168 640.32 29.4168 631.981 Q29.4168 629.275 29.9897 626.697 Q30.5308 624.119 31.6448 621.7 Z" fill="#000000" fill-rule="evenodd" fill-opacity="1" /><path clip-path="url(#clip730)" d="M 0 0 M34.3821 597.701 Q34.3821 602.412 38.0742 605.149 Q41.7345 607.887 48.132 607.887 Q54.5295 607.887 58.2217 605.181 Q61.8819 602.444 61.8819 597.701 Q61.8819 593.023 58.1898 590.285 Q54.4977 587.548 48.132 587.548 Q41.7981 587.548 38.106 590.285 Q34.3821 593.023 34.3821 597.701 M29.4168 597.701 Q29.4168 590.063 34.3821 585.702 Q39.3473 581.342 48.132 581.342 Q56.8849 581.342 61.8819 585.702 Q66.8472 590.063 66.8472 597.701 Q66.8472 605.372 61.8819 609.733 Q56.8849 614.061 48.132 614.061 Q39.3473 614.061 34.3821 609.733 Q29.4168 605.372 29.4168 597.701 Z" fill="#000000" fill-rule="evenodd" fill-opacity="1" /><path clip-path="url(#clip730)" d="M 0 0 M51.8559 572.239 L30.2762 572.239 L30.2762 566.382 L51.6331 566.382 Q56.6939 566.382 59.2402 564.409 Q61.7546 562.435 61.7546 558.489 Q61.7546 553.746 58.7309 551.009 Q55.7072 548.24 50.4873 548.24 L30.2762 548.24 L30.2762 542.383 L65.9242 542.383 L65.9242 548.24 L60.4496 548.24 Q63.6962 550.372 65.2876 553.205 Q66.8472 556.006 66.8472 559.73 Q66.8472 565.873 63.0278 569.056 Q59.2083 572.239 51.8559 572.239 M29.4168 557.502 L29.4168 557.502 Z" fill="#000000" fill-rule="evenodd" fill-opacity="1" /><path clip-path="url(#clip730)" d="M 0 0 M44.4081 500.688 L65.9242 500.688 L65.9242 506.545 L44.599 506.545 Q39.5383 506.545 37.0238 508.518 Q34.5094 510.491 34.5094 514.438 Q34.5094 519.18 37.5331 521.918 Q40.5568 524.655 45.7767 524.655 L65.9242 524.655 L65.9242 530.543 L30.2762 530.543 L30.2762 524.655 L35.8144 524.655 Q32.5997 522.554 31.0083 519.722 Q29.4168 516.857 29.4168 513.133 Q29.4168 506.99 33.2363 503.839 Q37.0238 500.688 44.4081 500.688 Z" fill="#000000" fill-rule="evenodd" fill-opacity="1" /><path clip-path="url(#clip730)" d="M 0 0 M20.1547 483.214 L30.2762 483.214 L30.2762 471.151 L34.8277 471.151 L34.8277 483.214 L54.1794 483.214 Q58.5399 483.214 59.7813 482.037 Q61.0226 480.827 61.0226 477.167 L61.0226 471.151 L65.9242 471.151 L65.9242 477.167 Q65.9242 483.946 63.4097 486.524 Q60.8634 489.102 54.1794 489.102 L34.8277 489.102 L34.8277 493.399 L30.2762 493.399 L30.2762 489.102 L20.1547 489.102 L20.1547 483.214 Z" fill="#000000" fill-rule="evenodd" fill-opacity="1" /><path clip-path="url(#clip730)" d="M 0 0 M31.3265 440.723 L36.8647 440.723 Q35.5916 443.206 34.955 445.879 Q34.3184 448.553 34.3184 451.418 Q34.3184 455.778 35.6552 457.974 Q36.992 460.139 39.6656 460.139 Q41.7026 460.139 42.8803 458.579 Q44.0261 457.019 45.0765 452.309 L45.5221 450.304 Q46.8589 444.065 49.3097 441.455 Q51.7286 438.813 56.0891 438.813 Q61.0544 438.813 63.9508 442.76 Q66.8472 446.675 66.8472 453.55 Q66.8472 456.415 66.2743 459.534 Q65.7332 462.621 64.6192 466.059 L58.5718 466.059 Q60.2587 462.812 61.118 459.661 Q61.9456 456.51 61.9456 453.423 Q61.9456 449.285 60.5451 447.057 Q59.1129 444.829 56.5347 444.829 Q54.1476 444.829 52.8745 446.452 Q51.6013 448.044 50.4237 453.486 L49.9462 455.523 Q48.8004 460.966 46.4451 463.385 Q44.058 465.804 39.9202 465.804 Q34.8913 465.804 32.1541 462.239 Q29.4168 458.674 29.4168 452.118 Q29.4168 448.871 29.8943 446.007 Q30.3717 443.142 31.3265 440.723 Z" fill="#000000" fill-rule="evenodd" fill-opacity="1" /><path clip-path="url(#clip730)" d="M 0 0 M682.814 20.1573 L671.714 50.2555 L693.954 50.2555 L682.814 20.1573 M678.196 12.096 L687.472 12.096 L710.522 72.576 L702.015 72.576 L696.506 57.061 L669.243 57.061 L663.734 72.576 L655.106 72.576 L678.196 12.096 Z" fill="#000000" fill-rule="evenodd" fill-opacity="1" /><path clip-path="url(#clip730)" d="M 0 0 M708.821 27.2059 L716.72 27.2059 L730.898 65.2844 L745.076 27.2059 L752.975 27.2059 L735.962 72.576 L725.834 72.576 L708.821 27.2059 Z" fill="#000000" fill-rule="evenodd" fill-opacity="1" /><path clip-path="url(#clip730)" d="M 0 0 M802.072 48.0275 L802.072 51.6733 L767.802 51.6733 Q768.288 59.3701 772.42 63.421 Q776.592 67.4314 784.005 67.4314 Q788.299 67.4314 792.31 66.3781 Q796.361 65.3249 800.331 63.2184 L800.331 70.267 Q796.32 71.9684 792.107 72.8596 Q787.894 73.7508 783.56 73.7508 Q772.703 73.7508 766.343 67.4314 Q760.024 61.1119 760.024 50.3365 Q760.024 39.1965 766.019 32.6746 Q772.055 26.1121 782.264 26.1121 Q791.419 26.1121 796.725 32.0264 Q802.072 37.9003 802.072 48.0275 M794.619 45.84 Q794.538 39.7232 791.175 36.0774 Q787.854 32.4315 782.345 32.4315 Q776.106 32.4315 772.339 35.9558 Q768.612 39.4801 768.045 45.8805 L794.619 45.84 Z" fill="#000000" fill-rule="evenodd" fill-opacity="1" /><path clip-path="url(#clip730)" d="M 0 0 M840.597 34.1734 Q839.341 33.4443 837.842 33.1202 Q836.384 32.7556 834.601 32.7556 Q828.282 32.7556 824.879 36.8875 Q821.517 40.9789 821.517 48.6757 L821.517 72.576 L814.023 72.576 L814.023 27.2059 L821.517 27.2059 L821.517 34.2544 Q823.866 30.1225 827.634 28.1376 Q831.401 26.1121 836.789 26.1121 Q837.558 26.1121 838.49 26.2337 Q839.422 26.3147 840.556 26.5172 L840.597 34.1734 Z" fill="#000000" fill-rule="evenodd" fill-opacity="1" /><path clip-path="url(#clip730)" d="M 0 0 M869.034 49.7694 Q860 49.7694 856.517 51.8354 Q853.033 53.9013 853.033 58.8839 Q853.033 62.8538 855.625 65.2034 Q858.258 67.5124 862.755 67.5124 Q868.953 67.5124 872.68 63.1374 Q876.447 58.7219 876.447 51.4303 L876.447 49.7694 L869.034 49.7694 M883.901 46.6907 L883.901 72.576 L876.447 72.576 L876.447 65.6895 Q873.895 69.8214 870.087 71.8063 Q866.279 73.7508 860.77 73.7508 Q853.802 73.7508 849.671 69.8619 Q845.579 65.9325 845.579 59.3701 Q845.579 51.7138 850.683 47.825 Q855.828 43.9361 865.996 43.9361 L876.447 43.9361 L876.447 43.2069 Q876.447 38.0623 873.044 35.2672 Q869.682 32.4315 863.565 32.4315 Q859.676 32.4315 855.99 33.3632 Q852.304 34.295 848.901 36.1584 L848.901 29.2718 Q852.992 27.692 856.841 26.9223 Q860.689 26.1121 864.335 26.1121 Q874.179 26.1121 879.04 31.2163 Q883.901 36.3204 883.901 46.6907 Z" fill="#000000" fill-rule="evenodd" fill-opacity="1" /><path clip-path="url(#clip730)" d="M 0 0 M929.109 49.3643 Q929.109 41.2625 925.747 36.8065 Q922.425 32.3505 916.389 32.3505 Q910.394 32.3505 907.031 36.8065 Q903.71 41.2625 903.71 49.3643 Q903.71 57.4256 907.031 61.8816 Q910.394 66.3376 916.389 66.3376 Q922.425 66.3376 925.747 61.8816 Q929.109 57.4256 929.109 49.3643 M936.562 66.9452 Q936.562 78.5308 931.418 84.1616 Q926.273 89.8329 915.66 89.8329 Q911.73 89.8329 908.247 89.2252 Q904.763 88.6581 901.482 87.4428 L901.482 80.1917 Q904.763 81.9741 907.963 82.8248 Q911.163 83.6755 914.485 83.6755 Q921.817 83.6755 925.463 79.8271 Q929.109 76.0193 929.109 68.282 L929.109 64.5957 Q926.8 68.6061 923.194 70.5911 Q919.589 72.576 914.566 72.576 Q906.221 72.576 901.117 66.2161 Q896.013 59.8562 896.013 49.3643 Q896.013 38.832 901.117 32.472 Q906.221 26.1121 914.566 26.1121 Q919.589 26.1121 923.194 28.0971 Q926.8 30.082 929.109 34.0924 L929.109 27.2059 L936.562 27.2059 L936.562 66.9452 Z" fill="#000000" fill-rule="evenodd" fill-opacity="1" /><path clip-path="url(#clip730)" d="M 0 0 M990.723 48.0275 L990.723 51.6733 L956.452 51.6733 Q956.938 59.3701 961.07 63.421 Q965.243 67.4314 972.656 67.4314 Q976.95 67.4314 980.96 66.3781 Q985.011 65.3249 988.981 63.2184 L988.981 70.267 Q984.971 71.9684 980.758 72.8596 Q976.545 73.7508 972.21 73.7508 Q961.354 73.7508 954.994 67.4314 Q948.675 61.1119 948.675 50.3365 Q948.675 39.1965 954.67 32.6746 Q960.706 26.1121 970.914 26.1121 Q980.069 26.1121 985.376 32.0264 Q990.723 37.9003 990.723 48.0275 M983.269 45.84 Q983.188 39.7232 979.826 36.0774 Q976.504 32.4315 970.995 32.4315 Q964.757 32.4315 960.989 35.9558 Q957.263 39.4801 956.695 45.8805 L983.269 45.84 Z" fill="#000000" fill-rule="evenodd" fill-opacity="1" /><path clip-path="url(#clip730)" d="M 0 0 M1037.84 18.8205 L1037.84 41.5461 L1048.12 41.5461 Q1053.84 41.5461 1056.96 38.5889 Q1060.07 35.6318 1060.07 30.163 Q1060.07 24.7348 1056.96 21.7777 Q1053.84 18.8205 1048.12 18.8205 L1037.84 18.8205 M1029.65 12.096 L1048.12 12.096 Q1058.29 12.096 1063.48 16.714 Q1068.7 21.2916 1068.7 30.163 Q1068.7 39.1155 1063.48 43.6931 Q1058.29 48.2706 1048.12 48.2706 L1037.84 48.2706 L1037.84 72.576 L1029.65 72.576 L1029.65 12.096 Z" fill="#000000" fill-rule="evenodd" fill-opacity="1" /><path clip-path="url(#clip730)" d="M 0 0 M1117.07 45.1919 L1117.07 72.576 L1109.62 72.576 L1109.62 45.4349 Q1109.62 38.994 1107.11 35.7938 Q1104.59 32.5936 1099.57 32.5936 Q1093.53 32.5936 1090.05 36.4419 Q1086.57 40.2903 1086.57 46.9338 L1086.57 72.576 L1079.07 72.576 L1079.07 9.54393 L1086.57 9.54393 L1086.57 34.2544 Q1089.24 30.163 1092.85 28.1376 Q1096.49 26.1121 1101.23 26.1121 Q1109.05 26.1121 1113.06 30.9732 Q1117.07 35.7938 1117.07 45.1919 Z" fill="#000000" fill-rule="evenodd" fill-opacity="1" /><path clip-path="url(#clip730)" d="M 0 0 M1149.52 32.4315 Q1143.52 32.4315 1140.04 37.1306 Q1136.56 41.7891 1136.56 49.9314 Q1136.56 58.0738 1140 62.7728 Q1143.48 67.4314 1149.52 67.4314 Q1155.47 67.4314 1158.96 62.7323 Q1162.44 58.0333 1162.44 49.9314 Q1162.44 41.8701 1158.96 37.1711 Q1155.47 32.4315 1149.52 32.4315 M1149.52 26.1121 Q1159.24 26.1121 1164.79 32.4315 Q1170.34 38.7509 1170.34 49.9314 Q1170.34 61.0714 1164.79 67.4314 Q1159.24 73.7508 1149.52 73.7508 Q1139.76 73.7508 1134.21 67.4314 Q1128.7 61.0714 1128.7 49.9314 Q1128.7 38.7509 1134.21 32.4315 Q1139.76 26.1121 1149.52 26.1121 Z" fill="#000000" fill-rule="evenodd" fill-opacity="1" /><path clip-path="url(#clip730)" d="M 0 0 M1190.07 14.324 L1190.07 27.2059 L1205.42 27.2059 L1205.42 32.9987 L1190.07 32.9987 L1190.07 57.6282 Q1190.07 63.1779 1191.57 64.7578 Q1193.11 66.3376 1197.76 66.3376 L1205.42 66.3376 L1205.42 72.576 L1197.76 72.576 Q1189.14 72.576 1185.86 69.3758 Q1182.57 66.1351 1182.57 57.6282 L1182.57 32.9987 L1177.11 32.9987 L1177.11 27.2059 L1182.57 27.2059 L1182.57 14.324 L1190.07 14.324 Z" fill="#000000" fill-rule="evenodd" fill-opacity="1" /><path clip-path="url(#clip730)" d="M 0 0 M1232.81 32.4315 Q1226.81 32.4315 1223.33 37.1306 Q1219.84 41.7891 1219.84 49.9314 Q1219.84 58.0738 1223.29 62.7728 Q1226.77 67.4314 1232.81 67.4314 Q1238.76 67.4314 1242.24 62.7323 Q1245.73 58.0333 1245.73 49.9314 Q1245.73 41.8701 1242.24 37.1711 Q1238.76 32.4315 1232.81 32.4315 M1232.81 26.1121 Q1242.53 26.1121 1248.08 32.4315 Q1253.63 38.7509 1253.63 49.9314 Q1253.63 61.0714 1248.08 67.4314 Q1242.53 73.7508 1232.81 73.7508 Q1223.04 73.7508 1217.49 67.4314 Q1211.98 61.0714 1211.98 49.9314 Q1211.98 38.7509 1217.49 32.4315 Q1223.04 26.1121 1232.81 26.1121 Z" fill="#000000" fill-rule="evenodd" fill-opacity="1" /><path clip-path="url(#clip730)" d="M 0 0 M1303.7 45.1919 L1303.7 72.576 L1296.24 72.576 L1296.24 45.4349 Q1296.24 38.994 1293.73 35.7938 Q1291.22 32.5936 1286.2 32.5936 Q1280.16 32.5936 1276.68 36.4419 Q1273.19 40.2903 1273.19 46.9338 L1273.19 72.576 L1265.7 72.576 L1265.7 27.2059 L1273.19 27.2059 L1273.19 34.2544 Q1275.87 30.163 1279.47 28.1376 Q1283.12 26.1121 1287.86 26.1121 Q1295.68 26.1121 1299.69 30.9732 Q1303.7 35.7938 1303.7 45.1919 Z" fill="#000000" fill-rule="evenodd" fill-opacity="1" /><path clip-path="url(#clip730)" d="M 0 0 M1390.55 16.7545 L1390.55 25.383 Q1386.42 21.5346 1381.72 19.6307 Q1377.06 17.7268 1371.79 17.7268 Q1361.42 17.7268 1355.91 24.0867 Q1350.4 30.4061 1350.4 42.3968 Q1350.4 54.3469 1355.91 60.7069 Q1361.42 67.0263 1371.79 67.0263 Q1377.06 67.0263 1381.72 65.1223 Q1386.42 63.2184 1390.55 59.3701 L1390.55 67.9175 Q1386.25 70.8341 1381.43 72.2924 Q1376.65 73.7508 1371.31 73.7508 Q1357.57 73.7508 1349.67 65.3654 Q1341.77 56.9395 1341.77 42.3968 Q1341.77 27.8135 1349.67 19.4281 Q1357.57 11.0023 1371.31 11.0023 Q1376.73 11.0023 1381.51 12.4606 Q1386.33 13.8784 1390.55 16.7545 Z" fill="#000000" fill-rule="evenodd" fill-opacity="1" /><path clip-path="url(#clip730)" d="M 0 0 M1420.44 32.4315 Q1414.45 32.4315 1410.96 37.1306 Q1407.48 41.7891 1407.48 49.9314 Q1407.48 58.0738 1410.92 62.7728 Q1414.41 67.4314 1420.44 67.4314 Q1426.4 67.4314 1429.88 62.7323 Q1433.37 58.0333 1433.37 49.9314 Q1433.37 41.8701 1429.88 37.1711 Q1426.4 32.4315 1420.44 32.4315 M1420.44 26.1121 Q1430.17 26.1121 1435.71 32.4315 Q1441.26 38.7509 1441.26 49.9314 Q1441.26 61.0714 1435.71 67.4314 Q1430.17 73.7508 1420.44 73.7508 Q1410.68 73.7508 1405.13 67.4314 Q1399.62 61.0714 1399.62 49.9314 Q1399.62 38.7509 1405.13 32.4315 Q1410.68 26.1121 1420.44 26.1121 Z" fill="#000000" fill-rule="evenodd" fill-opacity="1" /><path clip-path="url(#clip730)" d="M 0 0 M1452.85 54.671 L1452.85 27.2059 L1460.3 27.2059 L1460.3 54.3874 Q1460.3 60.8284 1462.82 64.0691 Q1465.33 67.2693 1470.35 67.2693 Q1476.39 67.2693 1479.87 63.421 Q1483.39 59.5726 1483.39 52.9291 L1483.39 27.2059 L1490.85 27.2059 L1490.85 72.576 L1483.39 72.576 L1483.39 65.6084 Q1480.68 69.7404 1477.07 71.7658 Q1473.51 73.7508 1468.77 73.7508 Q1460.95 73.7508 1456.9 68.8897 Q1452.85 64.0286 1452.85 54.671 M1471.61 26.1121 L1471.61 26.1121 Z" fill="#000000" fill-rule="evenodd" fill-opacity="1" /><path clip-path="url(#clip730)" d="M 0 0 M1543.91 45.1919 L1543.91 72.576 L1536.46 72.576 L1536.46 45.4349 Q1536.46 38.994 1533.95 35.7938 Q1531.44 32.5936 1526.41 32.5936 Q1520.38 32.5936 1516.89 36.4419 Q1513.41 40.2903 1513.41 46.9338 L1513.41 72.576 L1505.92 72.576 L1505.92 27.2059 L1513.41 27.2059 L1513.41 34.2544 Q1516.08 30.163 1519.69 28.1376 Q1523.34 26.1121 1528.08 26.1121 Q1535.89 26.1121 1539.9 30.9732 Q1543.91 35.7938 1543.91 45.1919 Z" fill="#000000" fill-rule="evenodd" fill-opacity="1" /><path clip-path="url(#clip730)" d="M 0 0 M1566.15 14.324 L1566.15 27.2059 L1581.51 27.2059 L1581.51 32.9987 L1566.15 32.9987 L1566.15 57.6282 Q1566.15 63.1779 1567.65 64.7578 Q1569.19 66.3376 1573.85 66.3376 L1581.51 66.3376 L1581.51 72.576 L1573.85 72.576 Q1565.22 72.576 1561.94 69.3758 Q1558.66 66.1351 1558.66 57.6282 L1558.66 32.9987 L1553.19 32.9987 L1553.19 27.2059 L1558.66 27.2059 L1558.66 14.324 L1566.15 14.324 Z" fill="#000000" fill-rule="evenodd" fill-opacity="1" /><path clip-path="url(#clip730)" d="M 0 0 M1620.23 28.5427 L1620.23 35.5912 Q1617.07 33.9709 1613.67 33.1607 Q1610.27 32.3505 1606.62 32.3505 Q1601.07 32.3505 1598.28 34.0519 Q1595.52 35.7533 1595.52 39.156 Q1595.52 41.7486 1597.51 43.2475 Q1599.49 44.7058 1605.49 46.0426 L1608.04 46.6097 Q1615.98 48.3111 1619.3 51.4303 Q1622.66 54.509 1622.66 60.0587 Q1622.66 66.3781 1617.64 70.0644 Q1612.66 73.7508 1603.91 73.7508 Q1600.26 73.7508 1596.29 73.0216 Q1592.36 72.3329 1587.99 70.9151 L1587.99 63.2184 Q1592.12 65.3654 1596.13 66.4591 Q1600.14 67.5124 1604.07 67.5124 Q1609.34 67.5124 1612.17 65.73 Q1615.01 63.9071 1615.01 60.6258 Q1615.01 57.5877 1612.94 55.9673 Q1610.92 54.3469 1603.99 52.8481 L1601.4 52.2405 Q1594.47 50.7821 1591.39 47.7845 Q1588.31 44.7463 1588.31 39.4801 Q1588.31 33.0797 1592.85 29.5959 Q1597.39 26.1121 1605.73 26.1121 Q1609.86 26.1121 1613.51 26.7198 Q1617.15 27.3274 1620.23 28.5427 Z" fill="#000000" fill-rule="evenodd" fill-opacity="1" /><path clip-path="url(#clip730)" d="M 0 0 M1655.56 27.2059 L1663.46 27.2059 L1677.63 65.2844 L1691.81 27.2059 L1699.71 27.2059 L1682.7 72.576 L1672.57 72.576 L1655.56 27.2059 Z" fill="#000000" fill-rule="evenodd" fill-opacity="1" /><path clip-path="url(#clip730)" d="M 0 0 M1738.93 28.5427 L1738.93 35.5912 Q1735.77 33.9709 1732.36 33.1607 Q1728.96 32.3505 1725.31 32.3505 Q1719.76 32.3505 1716.97 34.0519 Q1714.21 35.7533 1714.21 39.156 Q1714.21 41.7486 1716.2 43.2475 Q1718.18 44.7058 1724.18 46.0426 L1726.73 46.6097 Q1734.67 48.3111 1737.99 51.4303 Q1741.36 54.509 1741.36 60.0587 Q1741.36 66.3781 1736.33 70.0644 Q1731.35 73.7508 1722.6 73.7508 Q1718.95 73.7508 1714.98 73.0216 Q1711.05 72.3329 1706.68 70.9151 L1706.68 63.2184 Q1710.81 65.3654 1714.82 66.4591 Q1718.83 67.5124 1722.76 67.5124 Q1728.03 67.5124 1730.86 65.73 Q1733.7 63.9071 1733.7 60.6258 Q1733.7 57.5877 1731.63 55.9673 Q1729.61 54.3469 1722.68 52.8481 L1720.09 52.2405 Q1713.16 50.7821 1710.08 47.7845 Q1707 44.7463 1707 39.4801 Q1707 33.0797 1711.54 29.5959 Q1716.08 26.1121 1724.42 26.1121 Q1728.55 26.1121 1732.2 26.7198 Q1735.85 27.3274 1738.93 28.5427 Z" fill="#000000" fill-rule="evenodd" fill-opacity="1" /><path clip-path="url(#clip730)" d="M 0 0 M1771.53 12.096 L1822.7 12.096 L1822.7 18.9825 L1801.23 18.9825 L1801.23 72.576 L1793 72.576 L1793 18.9825 L1771.53 18.9825 L1771.53 12.096 Z" fill="#000000" fill-rule="evenodd" fill-opacity="1" /><path clip-path="url(#clip730)" d="M 0 0 M1827.72 27.2059 L1835.17 27.2059 L1835.17 72.576 L1827.72 72.576 L1827.72 27.2059 M1827.72 9.54393 L1835.17 9.54393 L1835.17 18.9825 L1827.72 18.9825 L1827.72 9.54393 Z" fill="#000000" fill-rule="evenodd" fill-opacity="1" /><path clip-path="url(#clip730)" d="M 0 0 M1886.09 35.9153 Q1888.89 30.8922 1892.78 28.5022 Q1896.67 26.1121 1901.93 26.1121 Q1909.02 26.1121 1912.87 31.0947 Q1916.72 36.0368 1916.72 45.1919 L1916.72 72.576 L1909.23 72.576 L1909.23 45.4349 Q1909.23 38.913 1906.92 35.7533 Q1904.61 32.5936 1899.87 32.5936 Q1894.07 32.5936 1890.71 36.4419 Q1887.35 40.2903 1887.35 46.9338 L1887.35 72.576 L1879.86 72.576 L1879.86 45.4349 Q1879.86 38.8725 1877.55 35.7533 Q1875.24 32.5936 1870.42 32.5936 Q1864.71 32.5936 1861.34 36.4824 Q1857.98 40.3308 1857.98 46.9338 L1857.98 72.576 L1850.49 72.576 L1850.49 27.2059 L1857.98 27.2059 L1857.98 34.2544 Q1860.53 30.082 1864.1 28.0971 Q1867.66 26.1121 1872.56 26.1121 Q1877.51 26.1121 1880.95 28.6237 Q1884.43 31.1352 1886.09 35.9153 Z" fill="#000000" fill-rule="evenodd" fill-opacity="1" /><path clip-path="url(#clip730)" d="M 0 0 M1970.39 48.0275 L1970.39 51.6733 L1936.12 51.6733 Q1936.61 59.3701 1940.74 63.421 Q1944.91 67.4314 1952.33 67.4314 Q1956.62 67.4314 1960.63 66.3781 Q1964.68 65.3249 1968.65 63.2184 L1968.65 70.267 Q1964.64 71.9684 1960.43 72.8596 Q1956.22 73.7508 1951.88 73.7508 Q1941.02 73.7508 1934.66 67.4314 Q1928.35 61.1119 1928.35 50.3365 Q1928.35 39.1965 1934.34 32.6746 Q1940.38 26.1121 1950.58 26.1121 Q1959.74 26.1121 1965.05 32.0264 Q1970.39 37.9003 1970.39 48.0275 M1962.94 45.84 Q1962.86 39.7232 1959.5 36.0774 Q1956.18 32.4315 1950.67 32.4315 Q1944.43 32.4315 1940.66 35.9558 Q1936.93 39.4801 1936.37 45.8805 L1962.94 45.84 Z" fill="#000000" fill-rule="evenodd" fill-opacity="1" /><polyline clip-path="url(#clip732)" style="stroke:#009af9; stroke-width:4; stroke-opacity:1; fill:none" points="
  422.178,1199.27 423.068,1250.78 423.959,1259.25 424.849,1189.77 425.74,1255.82 426.631,1293.28 427.521,1311.22 428.412,1314.76 429.302,1315.97 430.193,1216.83 
  431.083,951.114 431.974,962.149 432.865,1038.1 433.755,1252.99 434.646,755.963 435.536,1231.35 436.427,1172.12 437.317,1191.67 438.208,1308.13 439.099,1302.36 
  439.989,1305.75 440.88,1212.44 441.77,1194.18 442.661,1302.46 443.551,1288.57 444.442,1177.85 445.333,719.965 446.223,1242.41 447.114,961.24 448.004,1294.34 
  448.895,1037.55 449.785,1264.11 450.676,828.812 451.567,1153.97 452.457,1113.72 453.348,1199.35 454.238,1303.36 455.129,1193.5 456.019,1037.91 456.91,1036.36 
  457.801,1228.73 458.691,1215.39 459.582,1163.84 460.472,1074.2 461.363,1238.69 462.253,1278.82 463.144,1128.15 464.035,1026.73 464.925,1089.24 465.816,1282.66 
  466.706,1300.51 467.597,1197.54 468.487,1174.34 469.378,1322.2 470.269,1158.92 471.159,1266.23 472.05,1186.79 472.94,1025.47 473.831,968.25 474.721,993.425 
  475.612,1294.52 476.503,858.154 477.393,1168.21 478.284,834.753 479.174,1270.83 480.065,988.161 480.955,1292.69 481.846,1294.57 482.737,1265.61 483.627,1274.37 
  484.518,831.584 485.408,816.158 486.299,1165.61 487.189,1263.93 488.08,1211.83 488.971,1195.58 489.861,1279.89 490.752,1248.1 491.642,1298.65 492.533,1256.37 
  493.423,1292.62 494.314,741.889 495.205,1040.88 496.095,1300.4 496.986,1289.4 497.876,1115.86 498.767,767.309 499.657,1298.98 500.548,1256.91 501.439,1274.86 
  502.329,1288.13 503.22,1313.85 504.11,1090.36 505.001,1063.38 505.892,978.717 506.782,1118.09 507.673,1103.96 508.563,1198.73 509.454,813.731 510.344,1292.02 
  511.235,1115.07 512.126,1219.62 513.016,1316.51 513.907,1279.24 514.797,1297.36 515.688,1150.42 516.578,1073.55 517.469,1248.85 518.36,1322.5 519.25,1298.39 
  520.141,1304.33 521.031,1313.95 521.922,1198.72 522.812,1068.75 523.703,1319.92 524.594,1108.79 525.484,1173.26 526.375,1200.4 527.265,1065.47 528.156,1055.49 
  529.046,1039.24 529.937,1116.15 530.828,1322.72 531.718,1278.27 532.609,1287.19 533.499,1241.87 534.39,1322.82 535.28,1073.78 536.171,1170.24 537.062,1318.82 
  537.952,887.804 538.843,424.426 539.733,1301.91 540.624,1187.06 541.514,1321.32 542.405,1116.8 543.296,880.052 544.186,897.291 545.077,972.918 545.967,1114.75 
  546.858,1017.08 547.748,741.207 548.639,874.508 549.53,1122.3 550.42,1248.06 551.311,1194.67 552.201,1257.7 553.092,896.204 553.982,1241.65 554.873,1281.44 
  555.764,1271.04 556.654,1165.81 557.545,1018.91 558.435,713.283 559.326,1122.54 560.216,1236.8 561.107,1246.35 561.998,1216.26 562.888,1276.67 563.779,1319.59 
  564.669,1183.9 565.56,1120.56 566.45,1228.02 567.341,1109.01 568.232,864.165 569.122,1245.03 570.013,1166.07 570.903,1284.97 571.794,1171.12 572.684,905.592 
  573.575,1206.2 574.466,1164.67 575.356,935.785 576.247,893.566 577.137,1037.85 578.028,1240.27 578.918,1314.44 579.809,1308.7 580.7,1152.37 581.59,1196.58 
  582.481,1168.42 583.371,1305.47 584.262,1198.33 585.152,1292.26 586.043,781.394 586.934,598.321 587.824,1232.98 588.715,877.771 589.605,1251.65 590.496,1264.91 
  591.386,1008.47 592.277,1305.02 593.168,1200.24 594.058,1324.37 594.949,1250.8 595.839,1289.4 596.73,980.584 597.62,1004.93 598.511,1283.98 599.402,1122.52 
  600.292,1323.73 601.183,1320.98 602.073,1310.65 602.964,1238.24 603.854,1052.27 604.745,1134.27 605.636,1278.43 606.526,1194.72 607.417,1172.26 608.307,1215.3 
  609.198,1302.83 610.088,1267.13 610.979,1204.84 611.87,1278.06 612.76,1283.94 613.651,1301.71 614.541,1256.69 615.432,1268.17 616.322,1128.55 617.213,634.817 
  618.104,1012.48 618.994,1315.06 619.885,1321.19 620.775,1091.67 621.666,1090.64 622.556,848.372 623.447,1298.21 624.338,1176.32 625.228,1320.92 626.119,1159.53 
  627.009,1204.85 627.9,1234.47 628.79,1042.91 629.681,1224.78 630.572,1246.15 631.462,1256.47 632.353,1207.17 633.243,1140.76 634.134,1163.75 635.024,935.635 
  635.915,763.064 636.806,1035.82 637.696,1196.61 638.587,1240.33 639.477,909.332 640.368,1010.26 641.258,1028.6 642.149,901.906 643.04,1070.26 643.93,1315.61 
  644.821,1186.73 645.711,1244.33 646.602,1191.1 647.492,1177.27 648.383,1216.79 649.274,1278.91 650.164,679.333 651.055,1101.69 651.945,887.269 652.836,1121.46 
  653.726,1239.84 654.617,1296.78 655.508,1199.47 656.398,1317.32 657.289,1279.98 658.179,1244.11 659.07,1282.9 659.96,1058.02 660.851,977.964 661.742,1321.89 
  662.632,1171.86 663.523,1103.8 664.413,1095.31 665.304,1264.58 666.194,1322.11 667.085,1314.25 667.976,1318.18 668.866,1212.22 669.757,1003.78 670.647,1290.15 
  671.538,1223.7 672.428,1209.29 673.319,1278.75 674.21,1174.26 675.1,1175.51 675.991,1260.64 676.881,1015.11 677.772,1308.88 678.662,1241.65 679.553,1188.57 
  680.444,1054.52 681.334,158.463 682.225,1137.32 683.115,1161.28 684.006,1283.43 684.896,1316.69 685.787,1200.05 686.678,1280.96 687.568,1220.41 688.459,1245.62 
  689.349,1120.46 690.24,1165.77 691.13,1296.45 692.021,1171.12 692.912,1295.85 693.802,1253.91 694.693,1052.89 695.583,1126.49 696.474,1253.63 697.364,1304.43 
  698.255,1308.32 699.146,1278.3 700.036,1214.54 700.927,1167.77 701.817,1261 702.708,1201.3 703.598,1097.65 704.489,1287.22 705.38,1267.14 706.27,1317.1 
  707.161,1200.01 708.051,1303.72 708.942,1038.84 709.832,1074.38 710.723,612.425 711.614,1182.27 712.504,1092.68 713.395,1228.3 714.285,951.097 715.176,1243.12 
  716.066,1322.13 716.957,1137.6 717.848,1294.28 718.738,1220.66 719.629,1221.33 720.519,1284.21 721.41,1249.68 722.3,1307.23 723.191,1163.23 724.082,1182.87 
  724.972,1316.46 725.863,1286.12 726.753,1223.59 727.644,1025.43 728.534,1171.17 729.425,1208.54 730.316,974.026 731.206,1262.32 732.097,1202.08 732.987,1115.71 
  733.878,844.999 734.768,1158.94 735.659,1316.11 736.55,1299.68 737.44,1321.87 738.331,1151.74 739.221,1310.75 740.112,623.224 741.002,1043.46 741.893,1195.45 
  742.784,1296.06 743.674,1133.51 744.565,1041.62 745.455,1122.89 746.346,1188.7 747.236,1207.07 748.127,683.851 749.018,981.245 749.908,1209.14 750.799,1050.81 
  751.689,1112.57 752.58,1181.28 753.47,1277.99 754.361,1296.59 755.252,1323.6 756.142,1190.46 757.033,1206.04 757.923,849.622 758.814,1171.65 759.705,1288.16 
  760.595,1318.1 761.486,1300.23 762.376,1286.15 763.267,1144.33 764.157,1240.57 765.048,1250.83 765.939,1097.57 766.829,1115.19 767.72,1311.51 768.61,1216.5 
  769.501,924.708 770.391,1323.39 771.282,920.872 772.173,1221.92 773.063,1057.15 773.954,1094.49 774.844,1160.55 775.735,676.146 776.625,1044.58 777.516,1067.18 
  778.407,1286.31 779.297,1037.69 780.188,941.049 781.078,1126.07 781.969,1254.33 782.859,1280.86 783.75,1311.39 784.641,1249.03 785.531,1035.98 786.422,1096.32 
  787.312,1312.12 788.203,1316.33 789.093,1181.51 789.984,1220.69 790.875,1282.85 791.765,1075.57 792.656,1259.21 793.546,951.653 794.437,1020.18 795.327,1287.5 
  796.218,1310.52 797.109,1161.85 797.999,1215.62 798.89,1263.84 799.78,1284.33 800.671,1171.88 801.561,1222.11 802.452,1048.52 803.343,1240.2 804.233,933.853 
  805.124,983.73 806.014,1319.43 806.905,1078.22 807.795,1073.24 808.686,845.166 809.577,1258.66 810.467,1248.5 811.358,1169.32 812.248,1189.05 813.139,1230.08 
  814.029,1244.5 814.92,1287.14 815.811,1320.68 816.701,1209.76 817.592,1285.42 818.482,1318.12 819.373,1198.56 820.263,1018.85 821.154,1275.1 822.045,810.52 
  822.935,1083.91 823.826,1145.2 824.716,1069.23 825.607,1237.64 826.497,1240.11 827.388,1231.99 828.279,1316.82 829.169,1277.07 830.06,1176.02 830.95,1310.39 
  831.841,1284.28 832.731,1026.12 833.622,908.71 834.513,1014.12 835.403,1303.11 836.294,1092.03 837.184,1173.96 838.075,762.602 838.965,1047.33 839.856,721.812 
  840.747,1010.99 841.637,1220.27 842.528,1278.11 843.418,1259.27 844.309,912.677 845.199,834.965 846.09,824.033 846.981,1024.63 847.871,1067.9 848.762,1220.53 
  849.652,1004.82 850.543,909.504 851.433,1318.2 852.324,1088.46 853.215,1089.1 854.105,1122.11 854.996,1298.03 855.886,1299.69 856.777,1175.48 857.667,1058.38 
  858.558,1093.14 859.449,1240.15 860.339,1266.04 861.23,1154.01 862.12,1314.69 863.011,1127.81 863.901,750.829 864.792,1129.46 865.683,1281.29 866.573,1196.78 
  867.464,653.038 868.354,1233.66 869.245,1243.79 870.135,1319.81 871.026,1298.03 871.917,1235.86 872.807,1116.2 873.698,1004.86 874.588,1077.88 875.479,1311.94 
  876.369,1212.98 877.26,1160.72 878.151,1276.25 879.041,1263.65 879.932,1167.79 880.822,1283.34 881.713,910.501 882.603,1262.29 883.494,1183.54 884.385,1192.7 
  885.275,1174.89 886.166,744.442 887.056,1233.27 887.947,1108.57 888.837,1231.51 889.728,1241.27 890.619,1228.51 891.509,1251.45 892.4,1178.75 893.29,1299.94 
  894.181,1244.9 895.071,1187.88 895.962,1122.03 896.853,980.189 897.743,1260.85 898.634,758.883 899.524,1098.38 900.415,1220.48 901.305,1318.58 902.196,1317.66 
  903.087,1268.08 903.977,1169.2 904.868,1063.05 905.758,1046.68 906.649,1282.42 907.539,1267.94 908.43,1057.81 909.321,1286.33 910.211,1219.12 911.102,1314.66 
  911.992,1071.3 912.883,1115.2 913.773,1244.12 914.664,1190.35 915.555,1170.96 916.445,942.845 917.336,785.704 918.226,1223.67 919.117,1318.37 920.007,1295.64 
  920.898,1319.6 921.789,1290.62 922.679,1223.64 923.57,1257.29 924.46,1265.81 925.351,1304.76 926.241,1114.26 927.132,1218.04 928.023,695.151 928.913,1214.71 
  929.804,1313.74 930.694,1295.09 931.585,1198.54 932.475,989.997 933.366,939.288 934.257,1178.49 935.147,992.309 936.038,947.825 936.928,895.621 937.819,676.737 
  938.709,751.979 939.6,1312.81 940.491,1184.45 941.381,1288.66 942.272,1053.23 943.162,1220.64 944.053,1296.44 944.943,1025.85 945.834,890.863 946.725,1064.29 
  947.615,1165.86 948.506,1119.92 949.396,1046.09 950.287,1254.67 951.177,1207.28 952.068,1225.87 952.959,1283.51 953.849,1260.72 954.74,1259.53 955.63,991.093 
  956.521,1242.14 957.411,1274.34 958.302,1306.2 959.193,1287.31 960.083,1316.2 960.974,1228.08 961.864,1152.12 962.755,1219.44 963.645,1318.52 964.536,1148.42 
  965.427,1227.84 966.317,1313.82 967.208,1307.5 968.098,1313.77 968.989,1299.7 969.879,1186.18 970.77,1221.56 971.661,1058.83 972.551,1232.1 973.442,1145.57 
  974.332,995.876 975.223,1284.67 976.113,582.171 977.004,1068.63 977.895,1324.38 978.785,1274.63 979.676,1286.89 980.566,568.689 981.457,943.399 982.347,1322.8 
  983.238,1232.51 984.129,1288.54 985.019,1314.26 985.91,1140.84 986.8,997.885 987.691,1321.45 988.581,1265.75 989.472,1120.91 990.363,1171.47 991.253,1274.71 
  992.144,1259.06 993.034,1273.65 993.925,1249.26 994.815,1310.42 995.706,1187.94 996.597,1213.44 997.487,1275.22 998.378,1236.83 999.268,1241.93 1000.16,1276.82 
  1001.05,1321.43 1001.94,945.982 1002.83,979.385 1003.72,1262.82 1004.61,1100 1005.5,1185.73 1006.39,1218.84 1007.28,1226.49 1008.17,1285.87 1009.06,1179.61 
  1009.96,783.818 1010.85,1272.61 1011.74,957.28 1012.63,876.921 1013.52,1226.98 1014.41,1306.47 1015.3,1305.05 1016.19,1274.03 1017.08,1250.57 1017.97,1198.99 
  1018.86,1271.93 1019.75,1292.24 1020.64,1160.16 1021.53,1196.82 1022.42,1320.38 1023.31,1184.61 1024.2,1115.63 1025.09,980.214 1025.99,1242.58 1026.88,1214.28 
  1027.77,1312.28 1028.66,1037.38 1029.55,815.661 1030.44,1002.91 1031.33,1280.42 1032.22,1164.32 1033.11,1107.53 1034,1304.05 1034.89,1211.89 1035.78,1166.03 
  1036.67,1284.49 1037.56,1182.48 1038.45,1287.45 1039.34,593.359 1040.23,1021.61 1041.13,1144.3 1042.02,1116.26 1042.91,1144.01 1043.8,1191.49 1044.69,1178.52 
  1045.58,1246.51 1046.47,1221.76 1047.36,1268.92 1048.25,1100.17 1049.14,960.045 1050.03,858.796 1050.92,1212.19 1051.81,1261.84 1052.7,1159.67 1053.59,1134.78 
  1054.48,1227.44 1055.37,1079.02 1056.26,1272.61 1057.16,1263.48 1058.05,1304.91 1058.94,1267.57 1059.83,1263.25 1060.72,1204.65 1061.61,997.594 1062.5,1009.42 
  1063.39,1297.11 1064.28,1197.82 1065.17,1298.27 1066.06,927.709 1066.95,1203.67 1067.84,1264.35 1068.73,555.809 1069.62,1190.67 1070.51,801.282 1071.4,843.471 
  1072.3,1087.76 1073.19,1285.9 1074.08,1285.6 1074.97,1316.97 1075.86,1285.69 1076.75,1158.71 1077.64,966.991 1078.53,1152.7 1079.42,1224 1080.31,1285.1 
  1081.2,1238.54 1082.09,1297.46 1082.98,1235.52 1083.87,1218.24 1084.76,1312.47 1085.65,1295.18 1086.54,1153.09 1087.43,1169.38 1088.33,1318.64 1089.22,1229.72 
  1090.11,1228.24 1091,1272.88 1091.89,1246.78 1092.78,1045.06 1093.67,1199.52 1094.56,1108.22 1095.45,1201.55 1096.34,1131.99 1097.23,1122.91 1098.12,1157.77 
  1099.01,1267.41 1099.9,635.232 1100.79,1105.23 1101.68,1175.43 1102.57,1219.06 1103.47,708.583 1104.36,1026.96 1105.25,1254.71 1106.14,1309.68 1107.03,1289.89 
  1107.92,1100.21 1108.81,848.301 1109.7,1080.93 1110.59,1231.24 1111.48,1287.1 1112.37,1265 1113.26,1238.52 1114.15,1194.73 1115.04,1184.47 1115.93,1305.41 
  1116.82,1231.94 1117.71,1032.61 1118.6,1297.84 1119.5,1249.92 1120.39,1261.85 1121.28,1092.02 1122.17,1230.12 1123.06,1318.09 1123.95,1205.84 1124.84,1073.42 
  1125.73,1010.45 1126.62,1241.09 1127.51,1059.8 1128.4,1218.87 1129.29,1096.53 1130.18,1297.4 1131.07,1111.38 1131.96,1298.65 1132.85,955.291 1133.74,1164.79 
  1134.64,1305.14 1135.53,1110.71 1136.42,759.039 1137.31,641.884 1138.2,896.849 1139.09,1163.3 1139.98,910.915 1140.87,862.633 1141.76,944.663 1142.65,1134.42 
  1143.54,1015.23 1144.43,1318.91 1145.32,717.93 1146.21,897.671 1147.1,1038.95 1147.99,1116.94 1148.88,1320.61 1149.78,1307.29 1150.67,1258.96 1151.56,1214.35 
  1152.45,1215.63 1153.34,972.925 1154.23,1034.29 1155.12,1256.99 1156.01,1100.49 1156.9,1241.08 1157.79,1303.48 1158.68,826.863 1159.57,1241.35 1160.46,1156.98 
  1161.35,1295.71 1162.24,1059.22 1163.13,1214.28 1164.02,1279.27 1164.91,1236.54 1165.81,1150.28 1166.7,1226.45 1167.59,1235.74 1168.48,1065.66 1169.37,1022.77 
  1170.26,1237.89 1171.15,1291.77 1172.04,1297.81 1172.93,1283.87 1173.82,1309.79 1174.71,1144.45 1175.6,1173.88 1176.49,1307.73 1177.38,1322.22 1178.27,1094.59 
  1179.16,940.314 1180.05,1313.67 1180.95,1003.52 1181.84,1142.43 1182.73,1292.89 1183.62,1264.67 1184.51,939.442 1185.4,895.397 1186.29,1322.4 1187.18,1307.79 
  1188.07,1250.77 1188.96,1210.57 1189.85,907.697 1190.74,1225.96 1191.63,789.163 1192.52,1214.19 1193.41,1141.54 1194.3,1286.58 1195.19,1261.54 1196.08,1097.61 
  1196.98,1142.28 1197.87,1127.86 1198.76,1159.26 1199.65,1073.35 1200.54,1020.23 1201.43,1137.91 1202.32,1174.66 1203.21,1293.53 1204.1,1245.53 1204.99,1316.48 
  1205.88,1245.03 1206.77,1310.15 1207.66,1061.8 1208.55,1288.44 1209.44,869.351 1210.33,1141.79 1211.22,1199.07 1212.12,984.429 1213.01,1290.45 1213.9,1301.06 
  1214.79,1208.71 1215.68,1293.57 1216.57,1121.31 1217.46,1125.1 1218.35,1275.71 1219.24,1076.61 1220.13,1250.54 1221.02,1239.34 1221.91,1225.82 1222.8,1051.87 
  1223.69,1167.65 1224.58,1127.41 1225.47,1050.38 1226.36,1300.27 1227.25,999.956 1228.15,884.458 1229.04,1022.88 1229.93,1189.5 1230.82,1296.74 1231.71,1230.5 
  1232.6,1188 1233.49,618.674 1234.38,726.091 1235.27,997.089 1236.16,1272.35 1237.05,877.613 1237.94,777.095 1238.83,1299.37 1239.72,1084.46 1240.61,1263.48 
  1241.5,1259.23 1242.39,1275.82 1243.29,1250.19 1244.18,1111.15 1245.07,1176.34 1245.96,1206.99 1246.85,1251.75 1247.74,1265.48 1248.63,1094.03 1249.52,1266.58 
  1250.41,1210.62 1251.3,1263.84 1252.19,1243.72 1253.08,1085.42 1253.97,1086.13 1254.86,1284.17 1255.75,1315.76 1256.64,1104.47 1257.53,1226.01 1258.42,1298.24 
  1259.32,1273.11 1260.21,1298.89 1261.1,1309.24 1261.99,1206 1262.88,1278.29 1263.77,1281.83 1264.66,1299.04 1265.55,1277.47 1266.44,930.617 1267.33,917.943 
  1268.22,1182.56 1269.11,1072.33 1270,1315.57 1270.89,1114.83 1271.78,1157.99 1272.67,1323.3 1273.56,1047.78 1274.46,1312.28 1275.35,831.28 1276.24,839.631 
  1277.13,1152.1 1278.02,1193.19 1278.91,1284.05 1279.8,1157.81 1280.69,1203.81 1281.58,1118.26 1282.47,1294.98 1283.36,1306.29 1284.25,1239.94 1285.14,1319.43 
  1286.03,1293.81 1286.92,1244.61 1287.81,1001.37 1288.7,1094.83 1289.59,1295.55 1290.49,1317.27 1291.38,1318.95 1292.27,1261.77 1293.16,1220.23 1294.05,1254.19 
  1294.94,1324.4 1295.83,1249.1 1296.72,1243.23 1297.61,675.112 1298.5,1069.03 1299.39,1279.38 1300.28,1289.28 1301.17,993.49 1302.06,929.457 1302.95,1268.05 
  1303.84,1265.4 1304.73,1021.82 1305.63,1214.78 1306.52,1257.11 1307.41,1069.64 1308.3,991.858 1309.19,1026.48 1310.08,1230.29 1310.97,1309.59 1311.86,962.127 
  1312.75,1090.37 1313.64,1155.5 1314.53,1313.09 1315.42,1152.06 1316.31,1232.6 1317.2,1298.63 1318.09,1314.91 1318.98,1273.88 1319.87,1274.25 1320.76,1256.93 
  1321.66,1257.37 1322.55,1151.94 1323.44,1238.79 1324.33,1214.91 1325.22,910.554 1326.11,965.477 1327,1310 1327.89,963.694 1328.78,1253.31 1329.67,1241.6 
  1330.56,1074.45 1331.45,1093.37 1332.34,973.592 1333.23,1138.74 1334.12,1190.93 1335.01,1178.24 1335.9,1277.73 1336.8,1314.17 1337.69,1311.35 1338.58,1201.93 
  1339.47,1324.28 1340.36,1033.99 1341.25,444.39 1342.14,957.47 1343.03,1193.05 1343.92,1168.61 1344.81,1108.89 1345.7,1060.29 1346.59,1175.95 1347.48,1248.94 
  1348.37,1272.77 1349.26,1205.63 1350.15,839.18 1351.04,859.504 1351.93,1262.12 1352.83,1306.42 1353.72,1317.87 1354.61,1316.86 1355.5,1265.8 1356.39,1138.83 
  1357.28,1208.89 1358.17,1300.51 1359.06,1237.79 1359.95,1228.25 1360.84,894.585 1361.73,623.006 1362.62,1254.99 1363.51,955.345 1364.4,1218.81 1365.29,1175.24 
  1366.18,1253.81 1367.07,1277.95 1367.97,1008.61 1368.86,1205.77 1369.75,1197.81 1370.64,1015.89 1371.53,1289.28 1372.42,1080.75 1373.31,1097.34 1374.2,1295.58 
  1375.09,1260.28 1375.98,1252.77 1376.87,1319.81 1377.76,1190.85 1378.65,1106.04 1379.54,1276.71 1380.43,1271.16 1381.32,1219.43 1382.21,1256.08 1383.1,1296.94 
  1384,1251.82 1384.89,1294.43 1385.78,1292.14 1386.67,1321.94 1387.56,1277.69 1388.45,1239.05 1389.34,732.44 1390.23,862.958 1391.12,1074.36 1392.01,922.688 
  1392.9,1286.94 1393.79,1292.2 1394.68,899.979 1395.57,1280.32 1396.46,1261 1397.35,1242.69 1398.24,1285.35 1399.14,829.867 1400.03,670.785 1400.92,1088.25 
  1401.81,1059.07 1402.7,1139.73 1403.59,1173.12 1404.48,1179.98 1405.37,1198.27 1406.26,1174.97 1407.15,1218.06 1408.04,1297.65 1408.93,1094.11 1409.82,1082.69 
  1410.71,1246.8 1411.6,1303.81 1412.49,1273.36 1413.38,1291.19 1414.27,1052.34 1415.17,1156.55 1416.06,1283.19 1416.95,1249.81 1417.84,1247.67 1418.73,1320.81 
  1419.62,1025.58 1420.51,710.417 1421.4,1082.95 1422.29,1284.33 1423.18,1323.22 1424.07,1132.16 1424.96,1057.57 1425.85,1063.81 1426.74,1290.87 1427.63,1296.3 
  1428.52,934.544 1429.41,954.854 1430.31,1291.98 1431.2,944.031 1432.09,653.253 1432.98,954.19 1433.87,1191.29 1434.76,1285.31 1435.65,1249.89 1436.54,1137.21 
  1437.43,892.444 1438.32,673.836 1439.21,775.388 1440.1,1192.82 1440.99,1048.81 1441.88,1001.18 1442.77,801.342 1443.66,1270.07 1444.55,1105.22 1445.44,1188.91 
  1446.34,1324.83 1447.23,1322.15 1448.12,1304.05 1449.01,1216.97 1449.9,1157.31 1450.79,1249.4 1451.68,1170.28 1452.57,1199.37 1453.46,791.712 1454.35,1219.53 
  1455.24,1020.02 1456.13,1090.96 1457.02,1224.79 1457.91,1165.45 1458.8,1217.13 1459.69,1242.74 1460.58,1130.34 1461.48,1153.16 1462.37,1310.73 1463.26,1214.56 
  1464.15,1236.39 1465.04,1216.16 1465.93,1117.12 1466.82,1098.56 1467.71,1304.22 1468.6,1303.04 1469.49,1232.68 1470.38,1227.54 1471.27,1314.27 1472.16,1255.08 
  1473.05,1099.23 1473.94,987.796 1474.83,1194.22 1475.72,1295.13 1476.61,1268.01 1477.51,1280.68 1478.4,1278.68 1479.29,1199.17 1480.18,1019.83 1481.07,1292.11 
  1481.96,1296.69 1482.85,1232.41 1483.74,929.908 1484.63,517.735 1485.52,1302.08 1486.41,1213.11 1487.3,1174.98 1488.19,1295.32 1489.08,1084.7 1489.97,1238.04 
  1490.86,1052.61 1491.75,1196.56 1492.65,1079.47 1493.54,1164.69 1494.43,1289.76 1495.32,1318.29 1496.21,1189.8 1497.1,848.505 1497.99,782.365 1498.88,1101.39 
  1499.77,1260.08 1500.66,1196.06 1501.55,1272.5 1502.44,1159.29 1503.33,980.667 1504.22,1234.85 1505.11,1106.59 1506,1130.91 1506.89,1035.44 1507.78,1304.04 
  1508.68,1280.43 1509.57,1314.35 1510.46,1272.72 1511.35,1249.67 1512.24,1171.14 1513.13,959.638 1514.02,823.672 1514.91,1169.38 1515.8,1050.11 1516.69,1127.76 
  1517.58,1153.65 1518.47,1210.9 1519.36,1285.01 1520.25,1044.83 1521.14,1265.49 1522.03,1296.92 1522.92,1311.21 1523.82,1313.65 1524.71,1239.23 1525.6,1013.34 
  1526.49,1061.32 1527.38,1143.6 1528.27,1128.23 1529.16,959.03 1530.05,879.39 1530.94,781.446 1531.83,1310.87 1532.72,787.207 1533.61,1091.05 1534.5,1237.45 
  1535.39,1230.05 1536.28,1205.55 1537.17,1017.33 1538.06,1200.27 1538.95,1316.98 1539.85,1313.36 1540.74,1263.76 1541.63,1268.51 1542.52,1215.41 1543.41,848.45 
  1544.3,1193.87 1545.19,1055.58 1546.08,1258.34 1546.97,1296.51 1547.86,977.813 1548.75,1092.17 1549.64,1304.15 1550.53,1205.75 1551.42,998.41 1552.31,1313.2 
  1553.2,1238.4 1554.09,1189.26 1554.99,1233.75 1555.88,1321.64 1556.77,1279.48 1557.66,1270.86 1558.55,1300.14 1559.44,1264.84 1560.33,1303.62 1561.22,1066.56 
  1562.11,1093.04 1563,1264.03 1563.89,1275.64 1564.78,1323.77 1565.67,1164.12 1566.56,1017.5 1567.45,1254.67 1568.34,1072.75 1569.23,1162.32 1570.12,1285.86 
  1571.02,1266.5 1571.91,1076 1572.8,1017.37 1573.69,1283.98 1574.58,988.496 1575.47,1243.77 1576.36,1284.19 1577.25,1140.11 1578.14,1195.37 1579.03,947.703 
  1579.92,1269.41 1580.81,1249.85 1581.7,1300.76 1582.59,1119.45 1583.48,1224.46 1584.37,1251.55 1585.26,1170.61 1586.16,1166.83 1587.05,1278.87 1587.94,1233.9 
  1588.83,1017.47 1589.72,1117.14 1590.61,1321.2 1591.5,1264.09 1592.39,1203.18 1593.28,1130.08 1594.17,1250.5 1595.06,1056 1595.95,1201.71 1596.84,627.597 
  1597.73,999.965 1598.62,1324.34 1599.51,1262.37 1600.4,1297.3 1601.29,1294.58 1602.19,1316.56 1603.08,1211.85 1603.97,863.253 1604.86,970.73 1605.75,1246.73 
  1606.64,1042.29 1607.53,1016.27 1608.42,1292.43 1609.31,1239.67 1610.2,1205.15 1611.09,1237.91 1611.98,1267.41 1612.87,1224.81 1613.76,1038.28 1614.65,1132.01 
  1615.54,1312.32 1616.43,1283.5 1617.33,1215.19 1618.22,1243.57 1619.11,1224.68 1620,1318.79 1620.89,1218.78 1621.78,1245.01 1622.67,942.303 1623.56,1092.1 
  1624.45,1142.25 1625.34,831.332 1626.23,1093.61 1627.12,860.247 1628.01,1115.05 1628.9,1319.79 1629.79,1213.56 1630.68,1238.08 1631.57,1260.54 1632.46,1234.28 
  1633.36,1184.8 1634.25,1272.76 1635.14,1305.53 1636.03,794.436 1636.92,778.984 1637.81,1238.18 1638.7,1288.26 1639.59,1243.88 1640.48,1055.04 1641.37,891.916 
  1642.26,912.315 1643.15,1011.3 1644.04,1258.24 1644.93,1286.51 1645.82,1217.07 1646.71,1175.2 1647.6,1085.85 1648.5,1225.91 1649.39,1173.65 1650.28,1272.52 
  1651.17,1241.83 1652.06,1313.28 1652.95,1214.78 1653.84,1150.5 1654.73,1238.65 1655.62,1089.79 1656.51,735.005 1657.4,1121.58 1658.29,1295.75 1659.18,1308.18 
  1660.07,1194.54 1660.96,886.254 1661.85,1127.27 1662.74,1165.97 1663.64,1104.39 1664.53,1218.38 1665.42,1164.22 1666.31,1158.29 1667.2,1082.53 1668.09,1257.5 
  1668.98,1260.27 1669.87,975.769 1670.76,1038.51 1671.65,1304.16 1672.54,1261.9 1673.43,1217.17 1674.32,1283.04 1675.21,1305.09 1676.1,1211.31 1676.99,1210.25 
  1677.88,1243.28 1678.77,1245.19 1679.67,1256.19 1680.56,1313.3 1681.45,1308.86 1682.34,1289.05 1683.23,1275.79 1684.12,1203.58 1685.01,875.136 1685.9,1238.1 
  1686.79,1176.48 1687.68,1203.52 1688.57,1086.27 1689.46,819.502 1690.35,1130.04 1691.24,1139.46 1692.13,1224.09 1693.02,1190.67 1693.91,1149.84 1694.81,1029.48 
  1695.7,1117.47 1696.59,1281.06 1697.48,1147.04 1698.37,1146.97 1699.26,1143.89 1700.15,1293.65 1701.04,687.645 1701.93,596.92 1702.82,986.304 1703.71,1238.93 
  1704.6,1213.48 1705.49,1189.02 1706.38,1162.22 1707.27,1264.14 1708.16,1219.24 1709.05,1281.34 1709.94,1152.93 1710.84,1012.24 1711.73,1188.2 1712.62,1273.7 
  1713.51,1134.64 1714.4,1298.58 1715.29,822.893 1716.18,1184.04 1717.07,1271.17 1717.96,1281.67 1718.85,1105.16 1719.74,690.514 1720.63,654.076 1721.52,1311.06 
  1722.41,1288.96 1723.3,1212.85 1724.19,1262.31 1725.08,1309.18 1725.98,1316.08 1726.87,1303.93 1727.76,1255.02 1728.65,1012.27 1729.54,1048.46 1730.43,755.32 
  1731.32,908.002 1732.21,1194.18 1733.1,1081.49 1733.99,997.8 1734.88,1088.29 1735.77,1083.55 1736.66,1250.88 1737.55,995.028 1738.44,890.173 1739.33,1084.03 
  1740.22,886.259 1741.11,998.041 1742.01,1200.04 1742.9,1303.12 1743.79,1282.16 1744.68,1306.16 1745.57,1280.01 1746.46,1186.76 1747.35,1317.34 1748.24,918.363 
  1749.13,851.148 1750.02,1021.98 1750.91,1008.57 1751.8,1053.29 1752.69,1051.58 1753.58,1256.8 1754.47,1195.79 1755.36,1295.76 1756.25,1315.9 1757.15,1260.24 
  1758.04,1134.89 1758.93,1285.44 1759.82,1175.73 1760.71,1122.98 1761.6,1135.95 1762.49,1246.01 1763.38,1324.18 1764.27,1284.53 1765.16,1313.59 1766.05,1323.32 
  1766.94,1224.43 1767.83,1190.23 1768.72,1265.55 1769.61,1233.69 1770.5,1265.75 1771.39,1319.1 1772.28,1267.18 1773.18,1178.57 1774.07,1259.81 1774.96,1242.66 
  1775.85,1301.39 1776.74,1167.42 1777.63,1090.87 1778.52,1107.11 1779.41,525.391 1780.3,1198.11 1781.19,1310.13 1782.08,1245.63 1782.97,1295.63 1783.86,679.939 
  1784.75,1125.78 1785.64,1317.05 1786.53,1323.94 1787.42,1324.24 1788.32,1190.39 1789.21,729.99 1790.1,962.848 1790.99,1213.66 1791.88,1075.94 1792.77,875.162 
  1793.66,977.394 1794.55,1020 1795.44,1245.97 1796.33,1217.26 1797.22,1274.38 1798.11,1062.64 1799,1027.15 1799.89,1286.87 1800.78,1315.73 1801.67,963.375 
  1802.56,1050.76 1803.45,1296.9 1804.35,1181.33 1805.24,970.125 1806.13,1276.16 1807.02,1228.63 1807.91,1131.25 1808.8,1033.61 1809.69,1231.2 1810.58,1197.11 
  1811.47,1241.2 1812.36,1093.1 1813.25,997.615 1814.14,1288.79 1815.03,1010.89 1815.92,1314.21 1816.81,1285.5 1817.7,1194.01 1818.59,1146.95 1819.49,1274.4 
  1820.38,1191.57 1821.27,1067.89 1822.16,1150 1823.05,1280.65 1823.94,1314.54 1824.83,1323.49 1825.72,1004.06 1826.61,826.239 1827.5,961.338 1828.39,894.902 
  1829.28,1252.41 1830.17,1160.82 1831.06,1262.09 1831.95,726.086 1832.84,944.133 1833.73,1259.84 1834.62,1270.6 1835.52,1288.77 1836.41,1154.92 1837.3,1324.53 
  1838.19,1181.72 1839.08,1178.08 1839.97,1269.66 1840.86,1262.85 1841.75,1201.06 1842.64,695.62 1843.53,1152.9 1844.42,1016.15 1845.31,1228.03 1846.2,1070.91 
  1847.09,1283.26 1847.98,1318.13 1848.87,1301.7 1849.76,1300.92 1850.66,1320.99 1851.55,1259.46 1852.44,1191.02 1853.33,1291.73 1854.22,1295.61 1855.11,1312.41 
  1856,1226.99 1856.89,1246.64 1857.78,1302.07 1858.67,1111.57 1859.56,1260.31 1860.45,1231.22 1861.34,1134.14 1862.23,1232.73 1863.12,1172.06 1864.01,1178.18 
  1864.9,1130.41 1865.79,1059.65 1866.69,1272.71 1867.58,1173.32 1868.47,1230.52 1869.36,1073.22 1870.25,1312.18 1871.14,1178.45 1872.03,843.282 1872.92,1174.83 
  1873.81,651.2 1874.7,1207.98 1875.59,1305.93 1876.48,1167.03 1877.37,1177.44 1878.26,1316.89 1879.15,1299.12 1880.04,1124.99 1880.93,1103.8 1881.83,1260.78 
  1882.72,1308.73 1883.61,1318.03 1884.5,1252.12 1885.39,1179.99 1886.28,1070.14 1887.17,1184.02 1888.06,1260.51 1888.95,1293.4 1889.84,1067.02 1890.73,1080.78 
  1891.62,1252.38 1892.51,945.111 1893.4,1213.59 1894.29,1287.14 1895.18,1217.4 1896.07,1106.39 1896.96,1249.3 1897.86,1206.22 1898.75,1271.48 1899.64,1233.72 
  1900.53,1139.21 1901.42,1254.46 1902.31,1036.84 1903.2,651.308 1904.09,1280.79 1904.98,1065.79 1905.87,874.011 1906.76,872.071 1907.65,1310.74 1908.54,1238.41 
  1909.43,1270.03 1910.32,1234.85 1911.21,1134.6 1912.1,1235.83 1913,1303.75 1913.89,1295.3 1914.78,1110.43 1915.67,1235.38 1916.56,1304.16 1917.45,1095.03 
  1918.34,839.132 1919.23,1302.72 1920.12,865.317 1921.01,1086.27 1921.9,1258.9 1922.79,1209.58 1923.68,1283.22 1924.57,1054.96 1925.46,1155.37 1926.35,1238.64 
  1927.24,1130.02 1928.13,1227.45 1929.03,1245.19 1929.92,1322.38 1930.81,1155.82 1931.7,1227.19 1932.59,988.573 1933.48,1212.22 1934.37,1009.18 1935.26,1087.13 
  1936.15,993.253 1937.04,1313.76 1937.93,1121.45 1938.82,1103.62 1939.71,1087.14 1940.6,1144.04 1941.49,1281.69 1942.38,1038.42 1943.27,961.744 1944.17,1108.16 
  1945.06,1226.85 1945.95,1271.27 1946.84,1249.73 1947.73,1247.86 1948.62,832.389 1949.51,1219.84 1950.4,1217.35 1951.29,1078.61 1952.18,1285.07 1953.07,1305.62 
  1953.96,1191.1 1954.85,1209.62 1955.74,856.005 1956.63,766.855 1957.52,1244.81 1958.41,1291.95 1959.3,1194.92 1960.2,1260.31 1961.09,1149.76 1961.98,874.864 
  1962.87,1300.09 1963.76,1267.88 1964.65,995.456 1965.54,962.637 1966.43,1307.12 1967.32,1275.9 1968.21,1302.42 1969.1,1321.04 1969.99,1298.43 1970.88,1227.67 
  1971.77,1209.32 1972.66,1290.03 1973.55,1240.6 1974.44,1195.07 1975.34,1277.61 1976.23,1293.77 1977.12,1261.01 1978.01,1223.66 1978.9,1234.16 1979.79,1296.48 
  1980.68,1308.95 1981.57,1160.72 1982.46,994.442 1983.35,1293.36 1984.24,817.127 1985.13,1074.23 1986.02,1192.17 1986.91,1218.56 1987.8,1107.93 1988.69,1120.79 
  1989.58,1287.38 1990.47,1315.92 1991.37,1308.95 1992.26,977.017 1993.15,737.67 1994.04,766.72 1994.93,919.505 1995.82,1214.74 1996.71,828.181 1997.6,1132.57 
  1998.49,1101.3 1999.38,1132.99 2000.27,1190.31 2001.16,1065.09 2002.05,912.968 2002.94,911.007 2003.83,1035.96 2004.72,1294.11 2005.61,1278.79 2006.51,1077.97 
  2007.4,1247.83 2008.29,1271.23 2009.18,1265.27 2010.07,1108.26 2010.96,1166.8 2011.85,1198.37 2012.74,881.476 2013.63,1266.76 2014.52,922.776 2015.41,888.9 
  2016.3,1300.04 2017.19,1308.07 2018.08,1271.33 2018.97,1235.69 2019.86,1153.55 2020.75,1324.47 2021.64,1170.57 2022.54,1162.13 2023.43,1218.75 2024.32,1127.05 
  2025.21,1128.72 2026.1,870.775 2026.99,1135.5 2027.88,1247.61 2028.77,1297.02 2029.66,1073.23 2030.55,752.441 2031.44,766.805 2032.33,1155.29 2033.22,1177.38 
  2034.11,1190.17 2035,1125.68 2035.89,1025.49 2036.78,726.548 2037.68,1139.95 2038.57,1302.89 2039.46,1295.47 2040.35,999.53 2041.24,1007.39 2042.13,1237.78 
  2043.02,1174.41 2043.91,1058.47 2044.8,1210.38 2045.69,1162.05 2046.58,1221.78 2047.47,1095.85 2048.36,1058.07 2049.25,1076.96 2050.14,1316.86 2051.03,1179.46 
  2051.92,1232.03 2052.81,1229.35 2053.71,1210.41 2054.6,1270.58 2055.49,1273.18 2056.38,1253.83 2057.27,1275.76 2058.16,1284.77 2059.05,1163.79 2059.94,1238.21 
  2060.83,1317.13 2061.72,1205.46 2062.61,1136.84 2063.5,1282.81 2064.39,1323.13 2065.28,1258.84 2066.17,1292.61 2067.06,1286.94 2067.95,1184.28 2068.85,1172.59 
  2069.74,1066.05 2070.63,1045.47 2071.52,1158.9 2072.41,1048.24 2073.3,1323.74 2074.19,1079.42 2075.08,1114.2 2075.97,1313.66 2076.86,1094.05 2077.75,1271.92 
  2078.64,663.047 2079.53,1028.39 2080.42,1052.28 2081.31,1177.92 2082.2,1282.19 2083.09,1159.94 2083.98,1075.09 2084.88,1057.07 2085.77,1278.21 2086.66,1280.92 
  2087.55,1316.1 2088.44,1203.71 2089.33,1028.35 2090.22,689.379 2091.11,805.511 2092,1003.01 2092.89,1229.89 2093.78,1164.07 2094.67,1243.64 2095.56,1112.97 
  2096.45,1298.18 2097.34,1260.86 2098.23,1208.84 2099.12,1303.5 2100.02,1012.05 2100.91,662.543 2101.8,1248.47 2102.69,1216.83 2103.58,1314.4 2104.47,1030.31 
  2105.36,1192.68 2106.25,1207.31 2107.14,1188.17 2108.03,755.027 2108.92,1307.71 2109.81,905.929 2110.7,1155.43 2111.59,1266.02 2112.48,1120.68 2113.37,1245.8 
  2114.26,1307.45 2115.15,1227.44 2116.05,1304.31 2116.94,1322.62 2117.83,1107.31 2118.72,1034.72 2119.61,1175.51 2120.5,1299.34 2121.39,1173.63 2122.28,1091.49 
  2123.17,951.891 2124.06,1235.74 2124.95,1180.2 2125.84,1185.78 2126.73,1206.73 2127.62,950.907 2128.51,1035.71 2129.4,1242.63 2130.29,1264.07 2131.19,1091.82 
  2132.08,1291.87 2132.97,1279.15 2133.86,1040.1 2134.75,1259.43 2135.64,962.854 2136.53,1280.98 2137.42,925.962 2138.31,1231.64 2139.2,1099.71 2140.09,1304.39 
  2140.98,1315.89 2141.87,1281.62 2142.76,1287.68 2143.65,997.057 2144.54,1040.12 2145.43,1312.65 2146.32,1257.51 2147.22,1233.68 2148.11,1260.1 2149,1273.86 
  2149.89,1230.69 2150.78,1267.91 2151.67,1308.75 2152.56,1295.18 2153.45,939.709 2154.34,1010.88 2155.23,1319.36 2156.12,1257.43 2157.01,1311.31 2157.9,1291.8 
  2158.79,1248.84 2159.68,1128.3 2160.57,1102.28 2161.46,1265.01 2162.36,1307.93 2163.25,1239.6 2164.14,886.488 2165.03,701.998 2165.92,1303.59 2166.81,745.446 
  2167.7,1317 2168.59,972.43 2169.48,1299.94 2170.37,1293.77 2171.26,1069.35 2172.15,1255.75 2173.04,1261.73 2173.93,1306.02 2174.82,1275.26 2175.71,1226.98 
  2176.6,1323.12 2177.5,1261.24 2178.39,1076.6 2179.28,1200.55 2180.17,1262.72 2181.06,1138.25 2181.95,1064.67 2182.84,1304.2 2183.73,1093.99 2184.62,1160.17 
  2185.51,1302.38 2186.4,1311.88 2187.29,1173.67 2188.18,1268.36 2189.07,1245.66 2189.96,1308.4 2190.85,1229.53 2191.74,1012.11 2192.63,844.222 2193.53,1188 
  2194.42,985.159 2195.31,1193.69 2196.2,1148.52 2197.09,1143.75 2197.98,626.837 2198.87,1301.48 2199.76,1198.7 2200.65,1300.44 2201.54,955.915 2202.43,715.652 
  2203.32,1165.12 
  "/>
</svg>
