<?xml version="1.0" encoding="utf-8"?>
<svg xmlns="http://www.w3.org/2000/svg" xmlns:xlink="http://www.w3.org/1999/xlink" width="576" height="384" viewBox="0 0 2304 1536">
<defs>
  <clipPath id="clip750">
    <rect x="0" y="0" width="2304" height="1536"/>
  </clipPath>
</defs>
<path clip-path="url(#clip750)" d="
M0 1536 L2304 1536 L2304 0 L0 0  Z
  " fill="#ffffff" fill-rule="evenodd" fill-opacity="1"/>
<defs>
  <clipPath id="clip751">
    <rect x="460" y="0" width="1614" height="1536"/>
  </clipPath>
</defs>
<defs>
  <clipPath id="clip752">
    <rect x="310" y="123" width="1947" height="1241"/>
  </clipPath>
</defs>
<path clip-path="url(#clip750)" d="
M263.992 1359.82 L2256.76 1359.82 L2256.76 123.472 L263.992 123.472  Z
  " fill="#ffffff" fill-rule="evenodd" fill-opacity="1"/>
<defs>
  <clipPath id="clip753">
    <rect x="263" y="123" width="1994" height="1237"/>
  </clipPath>
</defs>
<polyline clip-path="url(#clip753)" style="stroke:#000000; stroke-width:2; stroke-opacity:0.1; fill:none" points="
  320.391,1359.82 320.391,123.472 
  "/>
<polyline clip-path="url(#clip753)" style="stroke:#000000; stroke-width:2; stroke-opacity:0.1; fill:none" points="
  696.765,1359.82 696.765,123.472 
  "/>
<polyline clip-path="url(#clip753)" style="stroke:#000000; stroke-width:2; stroke-opacity:0.1; fill:none" points="
  1073.14,1359.82 1073.14,123.472 
  "/>
<polyline clip-path="url(#clip753)" style="stroke:#000000; stroke-width:2; stroke-opacity:0.1; fill:none" points="
  1449.51,1359.82 1449.51,123.472 
  "/>
<polyline clip-path="url(#clip753)" style="stroke:#000000; stroke-width:2; stroke-opacity:0.1; fill:none" points="
  1825.89,1359.82 1825.89,123.472 
  "/>
<polyline clip-path="url(#clip753)" style="stroke:#000000; stroke-width:2; stroke-opacity:0.1; fill:none" points="
  2202.26,1359.82 2202.26,123.472 
  "/>
<polyline clip-path="url(#clip750)" style="stroke:#000000; stroke-width:4; stroke-opacity:1; fill:none" points="
  263.992,1359.82 2256.76,1359.82 
  "/>
<polyline clip-path="url(#clip750)" style="stroke:#000000; stroke-width:4; stroke-opacity:1; fill:none" points="
  320.391,1359.82 320.391,1344.98 
  "/>
<polyline clip-path="url(#clip750)" style="stroke:#000000; stroke-width:4; stroke-opacity:1; fill:none" points="
  696.765,1359.82 696.765,1344.98 
  "/>
<polyline clip-path="url(#clip750)" style="stroke:#000000; stroke-width:4; stroke-opacity:1; fill:none" points="
  1073.14,1359.82 1073.14,1344.98 
  "/>
<polyline clip-path="url(#clip750)" style="stroke:#000000; stroke-width:4; stroke-opacity:1; fill:none" points="
  1449.51,1359.82 1449.51,1344.98 
  "/>
<polyline clip-path="url(#clip750)" style="stroke:#000000; stroke-width:4; stroke-opacity:1; fill:none" points="
  1825.89,1359.82 1825.89,1344.98 
  "/>
<polyline clip-path="url(#clip750)" style="stroke:#000000; stroke-width:4; stroke-opacity:1; fill:none" points="
  2202.26,1359.82 2202.26,1344.98 
  "/>
<path clip-path="url(#clip750)" d="M 0 0 M320.391 1388.24 Q316.78 1388.24 314.951 1391.81 Q313.145 1395.35 313.145 1402.48 Q313.145 1409.59 314.951 1413.15 Q316.78 1416.69 320.391 1416.69 Q324.025 1416.69 325.831 1413.15 Q327.659 1409.59 327.659 1402.48 Q327.659 1395.35 325.831 1391.81 Q324.025 1388.24 320.391 1388.24 M320.391 1384.54 Q326.201 1384.54 329.256 1389.15 Q332.335 1393.73 332.335 1402.48 Q332.335 1411.21 329.256 1415.81 Q326.201 1420.4 320.391 1420.4 Q314.581 1420.4 311.502 1415.81 Q308.446 1411.21 308.446 1402.48 Q308.446 1393.73 311.502 1389.15 Q314.581 1384.54 320.391 1384.54 Z" fill="#000000" fill-rule="evenodd" fill-opacity="1" /><path clip-path="url(#clip750)" d="M 0 0 M671.452 1415.79 L679.091 1415.79 L679.091 1389.42 L670.781 1391.09 L670.781 1386.83 L679.045 1385.16 L683.721 1385.16 L683.721 1415.79 L691.359 1415.79 L691.359 1419.72 L671.452 1419.72 L671.452 1415.79 Z" fill="#000000" fill-rule="evenodd" fill-opacity="1" /><path clip-path="url(#clip750)" d="M 0 0 M710.804 1388.24 Q707.193 1388.24 705.364 1391.81 Q703.558 1395.35 703.558 1402.48 Q703.558 1409.59 705.364 1413.15 Q707.193 1416.69 710.804 1416.69 Q714.438 1416.69 716.244 1413.15 Q718.072 1409.59 718.072 1402.48 Q718.072 1395.35 716.244 1391.81 Q714.438 1388.24 710.804 1388.24 M710.804 1384.54 Q716.614 1384.54 719.67 1389.15 Q722.748 1393.73 722.748 1402.48 Q722.748 1411.21 719.67 1415.81 Q716.614 1420.4 710.804 1420.4 Q704.994 1420.4 701.915 1415.81 Q698.859 1411.21 698.859 1402.48 Q698.859 1393.73 701.915 1389.15 Q704.994 1384.54 710.804 1384.54 Z" fill="#000000" fill-rule="evenodd" fill-opacity="1" /><path clip-path="url(#clip750)" d="M 0 0 M1051.91 1415.79 L1068.23 1415.79 L1068.23 1419.72 L1046.29 1419.72 L1046.29 1415.79 Q1048.95 1413.03 1053.53 1408.4 Q1058.14 1403.75 1059.32 1402.41 Q1061.56 1399.89 1062.44 1398.15 Q1063.35 1396.39 1063.35 1394.7 Q1063.35 1391.95 1061.4 1390.21 Q1059.48 1388.47 1056.38 1388.47 Q1054.18 1388.47 1051.73 1389.24 Q1049.3 1390 1046.52 1391.55 L1046.52 1386.83 Q1049.34 1385.7 1051.8 1385.12 Q1054.25 1384.54 1056.29 1384.54 Q1061.66 1384.54 1064.85 1387.22 Q1068.05 1389.91 1068.05 1394.4 Q1068.05 1396.53 1067.24 1398.45 Q1066.45 1400.35 1064.34 1402.94 Q1063.76 1403.61 1060.66 1406.83 Q1057.56 1410.02 1051.91 1415.79 Z" fill="#000000" fill-rule="evenodd" fill-opacity="1" /><path clip-path="url(#clip750)" d="M 0 0 M1088.05 1388.24 Q1084.43 1388.24 1082.61 1391.81 Q1080.8 1395.35 1080.8 1402.48 Q1080.8 1409.59 1082.61 1413.15 Q1084.43 1416.69 1088.05 1416.69 Q1091.68 1416.69 1093.49 1413.15 Q1095.31 1409.59 1095.31 1402.48 Q1095.31 1395.35 1093.49 1391.81 Q1091.68 1388.24 1088.05 1388.24 M1088.05 1384.54 Q1093.86 1384.54 1096.91 1389.15 Q1099.99 1393.73 1099.99 1402.48 Q1099.99 1411.21 1096.91 1415.81 Q1093.86 1420.4 1088.05 1420.4 Q1082.24 1420.4 1079.16 1415.81 Q1076.1 1411.21 1076.1 1402.48 Q1076.1 1393.73 1079.16 1389.15 Q1082.24 1384.54 1088.05 1384.54 Z" fill="#000000" fill-rule="evenodd" fill-opacity="1" /><path clip-path="url(#clip750)" d="M 0 0 M1438.35 1401.09 Q1441.71 1401.81 1443.59 1404.08 Q1445.48 1406.34 1445.48 1409.68 Q1445.48 1414.79 1441.97 1417.59 Q1438.45 1420.4 1431.97 1420.4 Q1429.79 1420.4 1427.48 1419.96 Q1425.18 1419.54 1422.73 1418.68 L1422.73 1414.17 Q1424.67 1415.3 1426.99 1415.88 Q1429.3 1416.46 1431.83 1416.46 Q1436.23 1416.46 1438.52 1414.72 Q1440.83 1412.99 1440.83 1409.68 Q1440.83 1406.62 1438.68 1404.91 Q1436.55 1403.17 1432.73 1403.17 L1428.7 1403.17 L1428.7 1399.33 L1432.91 1399.33 Q1436.36 1399.33 1438.19 1397.96 Q1440.02 1396.58 1440.02 1393.98 Q1440.02 1391.32 1438.12 1389.91 Q1436.25 1388.47 1432.73 1388.47 Q1430.81 1388.47 1428.61 1388.89 Q1426.41 1389.31 1423.77 1390.19 L1423.77 1386.02 Q1426.43 1385.28 1428.75 1384.91 Q1431.09 1384.54 1433.15 1384.54 Q1438.47 1384.54 1441.57 1386.97 Q1444.67 1389.38 1444.67 1393.5 Q1444.67 1396.37 1443.03 1398.36 Q1441.39 1400.33 1438.35 1401.09 Z" fill="#000000" fill-rule="evenodd" fill-opacity="1" /><path clip-path="url(#clip750)" d="M 0 0 M1464.35 1388.24 Q1460.74 1388.24 1458.91 1391.81 Q1457.1 1395.35 1457.1 1402.48 Q1457.1 1409.59 1458.91 1413.15 Q1460.74 1416.69 1464.35 1416.69 Q1467.98 1416.69 1469.79 1413.15 Q1471.62 1409.59 1471.62 1402.48 Q1471.62 1395.35 1469.79 1391.81 Q1467.98 1388.24 1464.35 1388.24 M1464.35 1384.54 Q1470.16 1384.54 1473.22 1389.15 Q1476.29 1393.73 1476.29 1402.48 Q1476.29 1411.21 1473.22 1415.81 Q1470.16 1420.4 1464.35 1420.4 Q1458.54 1420.4 1455.46 1415.81 Q1452.41 1411.21 1452.41 1402.48 Q1452.41 1393.73 1455.46 1389.15 Q1458.54 1384.54 1464.35 1384.54 Z" fill="#000000" fill-rule="evenodd" fill-opacity="1" /><path clip-path="url(#clip750)" d="M 0 0 M1814.06 1389.24 L1802.25 1407.69 L1814.06 1407.69 L1814.06 1389.24 M1812.83 1385.16 L1818.71 1385.16 L1818.71 1407.69 L1823.64 1407.69 L1823.64 1411.58 L1818.71 1411.58 L1818.71 1419.72 L1814.06 1419.72 L1814.06 1411.58 L1798.46 1411.58 L1798.46 1407.06 L1812.83 1385.16 Z" fill="#000000" fill-rule="evenodd" fill-opacity="1" /><path clip-path="url(#clip750)" d="M 0 0 M1841.37 1388.24 Q1837.76 1388.24 1835.93 1391.81 Q1834.13 1395.35 1834.13 1402.48 Q1834.13 1409.59 1835.93 1413.15 Q1837.76 1416.69 1841.37 1416.69 Q1845.01 1416.69 1846.81 1413.15 Q1848.64 1409.59 1848.64 1402.48 Q1848.64 1395.35 1846.81 1391.81 Q1845.01 1388.24 1841.37 1388.24 M1841.37 1384.54 Q1847.18 1384.54 1850.24 1389.15 Q1853.32 1393.73 1853.32 1402.48 Q1853.32 1411.21 1850.24 1415.81 Q1847.18 1420.4 1841.37 1420.4 Q1835.56 1420.4 1832.48 1415.81 Q1829.43 1411.21 1829.43 1402.48 Q1829.43 1393.73 1832.48 1389.15 Q1835.56 1384.54 1841.37 1384.54 Z" fill="#000000" fill-rule="evenodd" fill-opacity="1" /><path clip-path="url(#clip750)" d="M 0 0 M2176.96 1385.16 L2195.32 1385.16 L2195.32 1389.1 L2181.24 1389.1 L2181.24 1397.57 Q2182.26 1397.22 2183.28 1397.06 Q2184.3 1396.88 2185.32 1396.88 Q2191.1 1396.88 2194.48 1400.05 Q2197.86 1403.22 2197.86 1408.64 Q2197.86 1414.21 2194.39 1417.32 Q2190.92 1420.4 2184.6 1420.4 Q2182.42 1420.4 2180.15 1420.02 Q2177.91 1419.65 2175.5 1418.91 L2175.5 1414.21 Q2177.58 1415.35 2179.81 1415.9 Q2182.03 1416.46 2184.51 1416.46 Q2188.51 1416.46 2190.85 1414.35 Q2193.19 1412.25 2193.19 1408.64 Q2193.19 1405.02 2190.85 1402.92 Q2188.51 1400.81 2184.51 1400.81 Q2182.63 1400.81 2180.76 1401.23 Q2178.9 1401.65 2176.96 1402.52 L2176.96 1385.16 Z" fill="#000000" fill-rule="evenodd" fill-opacity="1" /><path clip-path="url(#clip750)" d="M 0 0 M2217.07 1388.24 Q2213.46 1388.24 2211.63 1391.81 Q2209.83 1395.35 2209.83 1402.48 Q2209.83 1409.59 2211.63 1413.15 Q2213.46 1416.69 2217.07 1416.69 Q2220.71 1416.69 2222.51 1413.15 Q2224.34 1409.59 2224.34 1402.48 Q2224.34 1395.35 2222.51 1391.81 Q2220.71 1388.24 2217.07 1388.24 M2217.07 1384.54 Q2222.88 1384.54 2225.94 1389.15 Q2229.02 1393.73 2229.02 1402.48 Q2229.02 1411.21 2225.94 1415.81 Q2222.88 1420.4 2217.07 1420.4 Q2211.26 1420.4 2208.19 1415.81 Q2205.13 1411.21 2205.13 1402.48 Q2205.13 1393.73 2208.19 1389.15 Q2211.26 1384.54 2217.07 1384.54 Z" fill="#000000" fill-rule="evenodd" fill-opacity="1" /><path clip-path="url(#clip750)" d="M 0 0 M1020.48 1453.72 L1020.48 1458.59 L1014.88 1458.59 Q1011.73 1458.59 1010.49 1459.86 Q1009.28 1461.13 1009.28 1464.44 L1009.28 1467.6 L1018.92 1467.6 L1018.92 1472.15 L1009.28 1472.15 L1009.28 1503.24 L1003.39 1503.24 L1003.39 1472.15 L997.788 1472.15 L997.788 1467.6 L1003.39 1467.6 L1003.39 1465.11 Q1003.39 1459.16 1006.16 1456.46 Q1008.93 1453.72 1014.94 1453.72 L1020.48 1453.72 Z" fill="#000000" fill-rule="evenodd" fill-opacity="1" /><path clip-path="url(#clip750)" d="M 0 0 M1046.04 1473.07 Q1045.05 1472.5 1043.88 1472.24 Q1042.73 1471.96 1041.33 1471.96 Q1036.36 1471.96 1033.69 1475.2 Q1031.05 1478.42 1031.05 1484.47 L1031.05 1503.24 L1025.16 1503.24 L1025.16 1467.6 L1031.05 1467.6 L1031.05 1473.13 Q1032.9 1469.89 1035.86 1468.33 Q1038.82 1466.74 1043.05 1466.74 Q1043.65 1466.74 1044.39 1466.83 Q1045.12 1466.9 1046.01 1467.05 L1046.04 1473.07 Z" fill="#000000" fill-rule="evenodd" fill-opacity="1" /><path clip-path="url(#clip750)" d="M 0 0 M1081.24 1483.96 L1081.24 1486.82 L1054.32 1486.82 Q1054.7 1492.87 1057.94 1496.05 Q1061.22 1499.2 1067.05 1499.2 Q1070.42 1499.2 1073.57 1498.37 Q1076.76 1497.55 1079.87 1495.89 L1079.87 1501.43 Q1076.72 1502.77 1073.41 1503.47 Q1070.1 1504.17 1066.7 1504.17 Q1058.17 1504.17 1053.17 1499.2 Q1048.2 1494.24 1048.2 1485.77 Q1048.2 1477.02 1052.92 1471.89 Q1057.66 1466.74 1065.68 1466.74 Q1072.87 1466.74 1077.04 1471.38 Q1081.24 1476 1081.24 1483.96 M1075.39 1482.24 Q1075.32 1477.43 1072.68 1474.57 Q1070.07 1471.7 1065.74 1471.7 Q1060.84 1471.7 1057.88 1474.47 Q1054.95 1477.24 1054.51 1482.27 L1075.39 1482.24 Z" fill="#000000" fill-rule="evenodd" fill-opacity="1" /><path clip-path="url(#clip750)" d="M 0 0 M1094.36 1485.45 Q1094.36 1491.91 1097 1495.6 Q1099.67 1499.27 1104.32 1499.27 Q1108.97 1499.27 1111.64 1495.6 Q1114.31 1491.91 1114.31 1485.45 Q1114.31 1478.99 1111.64 1475.33 Q1108.97 1471.64 1104.32 1471.64 Q1099.67 1471.64 1097 1475.33 Q1094.36 1478.99 1094.36 1485.45 M1114.31 1497.9 Q1112.47 1501.08 1109.63 1502.64 Q1106.83 1504.17 1102.89 1504.17 Q1096.43 1504.17 1092.35 1499.01 Q1088.31 1493.85 1088.31 1485.45 Q1088.31 1477.05 1092.35 1471.89 Q1096.43 1466.74 1102.89 1466.74 Q1106.83 1466.74 1109.63 1468.3 Q1112.47 1469.82 1114.31 1473.01 L1114.31 1467.6 L1120.17 1467.6 L1120.17 1516.8 L1114.31 1516.8 L1114.31 1497.9 Z" fill="#000000" fill-rule="evenodd" fill-opacity="1" /><path clip-path="url(#clip750)" d="M 0 0 M1131.63 1489.18 L1131.63 1467.6 L1137.48 1467.6 L1137.48 1488.95 Q1137.48 1494.01 1139.46 1496.56 Q1141.43 1499.07 1145.38 1499.07 Q1150.12 1499.07 1152.86 1496.05 Q1155.63 1493.03 1155.63 1487.81 L1155.63 1467.6 L1161.48 1467.6 L1161.48 1503.24 L1155.63 1503.24 L1155.63 1497.77 Q1153.49 1501.02 1150.66 1502.61 Q1147.86 1504.17 1144.14 1504.17 Q1137.99 1504.17 1134.81 1500.35 Q1131.63 1496.53 1131.63 1489.18 M1146.36 1466.74 L1146.36 1466.74 Z" fill="#000000" fill-rule="evenodd" fill-opacity="1" /><path clip-path="url(#clip750)" d="M 0 0 M1204.04 1483.96 L1204.04 1486.82 L1177.11 1486.82 Q1177.49 1492.87 1180.74 1496.05 Q1184.02 1499.2 1189.84 1499.2 Q1193.22 1499.2 1196.37 1498.37 Q1199.55 1497.55 1202.67 1495.89 L1202.67 1501.43 Q1199.52 1502.77 1196.21 1503.47 Q1192.9 1504.17 1189.49 1504.17 Q1180.96 1504.17 1175.96 1499.2 Q1171 1494.24 1171 1485.77 Q1171 1477.02 1175.71 1471.89 Q1180.45 1466.74 1188.47 1466.74 Q1195.67 1466.74 1199.84 1471.38 Q1204.04 1476 1204.04 1483.96 M1198.18 1482.24 Q1198.12 1477.43 1195.48 1474.57 Q1192.87 1471.7 1188.54 1471.7 Q1183.64 1471.7 1180.68 1474.47 Q1177.75 1477.24 1177.3 1482.27 L1198.18 1482.24 Z" fill="#000000" fill-rule="evenodd" fill-opacity="1" /><path clip-path="url(#clip750)" d="M 0 0 M1243.28 1481.73 L1243.28 1503.24 L1237.43 1503.24 L1237.43 1481.92 Q1237.43 1476.86 1235.45 1474.34 Q1233.48 1471.83 1229.53 1471.83 Q1224.79 1471.83 1222.05 1474.85 Q1219.32 1477.88 1219.32 1483.1 L1219.32 1503.24 L1213.43 1503.24 L1213.43 1467.6 L1219.32 1467.6 L1219.32 1473.13 Q1221.42 1469.92 1224.25 1468.33 Q1227.11 1466.74 1230.84 1466.74 Q1236.98 1466.74 1240.13 1470.56 Q1243.28 1474.34 1243.28 1481.73 Z" fill="#000000" fill-rule="evenodd" fill-opacity="1" /><path clip-path="url(#clip750)" d="M 0 0 M1280.62 1468.96 L1280.62 1474.44 Q1278.13 1473.07 1275.62 1472.4 Q1273.14 1471.7 1270.59 1471.7 Q1264.89 1471.7 1261.74 1475.33 Q1258.59 1478.93 1258.59 1485.45 Q1258.59 1491.98 1261.74 1495.6 Q1264.89 1499.2 1270.59 1499.2 Q1273.14 1499.2 1275.62 1498.53 Q1278.13 1497.83 1280.62 1496.46 L1280.62 1501.88 Q1278.17 1503.02 1275.52 1503.59 Q1272.91 1504.17 1269.95 1504.17 Q1261.9 1504.17 1257.16 1499.11 Q1252.42 1494.05 1252.42 1485.45 Q1252.42 1476.73 1257.19 1471.73 Q1262 1466.74 1270.34 1466.74 Q1273.04 1466.74 1275.62 1467.31 Q1278.2 1467.85 1280.62 1468.96 Z" fill="#000000" fill-rule="evenodd" fill-opacity="1" /><path clip-path="url(#clip750)" d="M 0 0 M1305.63 1506.55 Q1303.15 1512.92 1300.8 1514.86 Q1298.44 1516.8 1294.49 1516.8 L1289.82 1516.8 L1289.82 1511.9 L1293.25 1511.9 Q1295.67 1511.9 1297.01 1510.76 Q1298.35 1509.61 1299.97 1505.34 L1301.02 1502.67 L1286.6 1467.6 L1292.81 1467.6 L1303.95 1495.48 L1315.09 1467.6 L1321.29 1467.6 L1305.63 1506.55 Z" fill="#000000" fill-rule="evenodd" fill-opacity="1" /><path clip-path="url(#clip750)" d="M 0 0 M1364.17 1453.78 Q1359.9 1461.1 1357.83 1468.26 Q1355.76 1475.43 1355.76 1482.78 Q1355.76 1490.13 1357.83 1497.36 Q1359.93 1504.55 1364.17 1511.84 L1359.07 1511.84 Q1354.3 1504.36 1351.91 1497.13 Q1349.56 1489.91 1349.56 1482.78 Q1349.56 1475.68 1351.91 1468.49 Q1354.27 1461.29 1359.07 1453.78 L1364.17 1453.78 Z" fill="#000000" fill-rule="evenodd" fill-opacity="1" /><path clip-path="url(#clip750)" d="M 0 0 M1408.19 1496.46 L1408.19 1483.7 L1397.68 1483.7 L1397.68 1478.42 L1414.55 1478.42 L1414.55 1498.82 Q1410.83 1501.46 1406.34 1502.83 Q1401.85 1504.17 1396.76 1504.17 Q1385.62 1504.17 1379.32 1497.67 Q1373.05 1491.15 1373.05 1479.53 Q1373.05 1467.88 1379.32 1461.39 Q1385.62 1454.86 1396.76 1454.86 Q1401.41 1454.86 1405.58 1456.01 Q1409.78 1457.16 1413.31 1459.38 L1413.31 1466.23 Q1409.75 1463.2 1405.73 1461.68 Q1401.72 1460.15 1397.3 1460.15 Q1388.58 1460.15 1384.19 1465.02 Q1379.83 1469.89 1379.83 1479.53 Q1379.83 1489.14 1384.19 1494.01 Q1388.58 1498.88 1397.3 1498.88 Q1400.71 1498.88 1403.38 1498.31 Q1406.05 1497.71 1408.19 1496.46 Z" fill="#000000" fill-rule="evenodd" fill-opacity="1" /><path clip-path="url(#clip750)" d="M 0 0 M1426.3 1455.72 L1432.73 1455.72 L1432.73 1475.2 L1456.09 1475.2 L1456.09 1455.72 L1462.52 1455.72 L1462.52 1503.24 L1456.09 1503.24 L1456.09 1480.61 L1432.73 1480.61 L1432.73 1503.24 L1426.3 1503.24 L1426.3 1455.72 Z" fill="#000000" fill-rule="evenodd" fill-opacity="1" /><path clip-path="url(#clip750)" d="M 0 0 M1472.51 1467.6 L1500.33 1467.6 L1500.33 1472.94 L1478.3 1498.57 L1500.33 1498.57 L1500.33 1503.24 L1471.72 1503.24 L1471.72 1497.9 L1493.74 1472.27 L1472.51 1472.27 L1472.51 1467.6 Z" fill="#000000" fill-rule="evenodd" fill-opacity="1" /><path clip-path="url(#clip750)" d="M 0 0 M1508.35 1453.78 L1513.44 1453.78 Q1518.22 1461.29 1520.57 1468.49 Q1522.96 1475.68 1522.96 1482.78 Q1522.96 1489.91 1520.57 1497.13 Q1518.22 1504.36 1513.44 1511.84 L1508.35 1511.84 Q1512.58 1504.55 1514.65 1497.36 Q1516.75 1490.13 1516.75 1482.78 Q1516.75 1475.43 1514.65 1468.26 Q1512.58 1461.1 1508.35 1453.78 Z" fill="#000000" fill-rule="evenodd" fill-opacity="1" /><polyline clip-path="url(#clip753)" style="stroke:#000000; stroke-width:2; stroke-opacity:0.1; fill:none" points="
  263.992,1324.83 2256.76,1324.83 
  "/>
<polyline clip-path="url(#clip753)" style="stroke:#000000; stroke-width:2; stroke-opacity:0.1; fill:none" points="
  263.992,1033.24 2256.76,1033.24 
  "/>
<polyline clip-path="url(#clip753)" style="stroke:#000000; stroke-width:2; stroke-opacity:0.1; fill:none" points="
  263.992,741.646 2256.76,741.646 
  "/>
<polyline clip-path="url(#clip753)" style="stroke:#000000; stroke-width:2; stroke-opacity:0.1; fill:none" points="
  263.992,450.055 2256.76,450.055 
  "/>
<polyline clip-path="url(#clip753)" style="stroke:#000000; stroke-width:2; stroke-opacity:0.1; fill:none" points="
  263.992,158.463 2256.76,158.463 
  "/>
<polyline clip-path="url(#clip750)" style="stroke:#000000; stroke-width:4; stroke-opacity:1; fill:none" points="
  263.992,1359.82 263.992,123.472 
  "/>
<polyline clip-path="url(#clip750)" style="stroke:#000000; stroke-width:4; stroke-opacity:1; fill:none" points="
  263.992,1324.83 287.905,1324.83 
  "/>
<polyline clip-path="url(#clip750)" style="stroke:#000000; stroke-width:4; stroke-opacity:1; fill:none" points="
  263.992,1033.24 287.905,1033.24 
  "/>
<polyline clip-path="url(#clip750)" style="stroke:#000000; stroke-width:4; stroke-opacity:1; fill:none" points="
  263.992,741.646 287.905,741.646 
  "/>
<polyline clip-path="url(#clip750)" style="stroke:#000000; stroke-width:4; stroke-opacity:1; fill:none" points="
  263.992,450.055 287.905,450.055 
  "/>
<polyline clip-path="url(#clip750)" style="stroke:#000000; stroke-width:4; stroke-opacity:1; fill:none" points="
  263.992,158.463 287.905,158.463 
  "/>
<path clip-path="url(#clip750)" d="M 0 0 M142.094 1310.63 Q138.483 1310.63 136.654 1314.19 Q134.849 1317.73 134.849 1324.86 Q134.849 1331.97 136.654 1335.53 Q138.483 1339.08 142.094 1339.08 Q145.729 1339.08 147.534 1335.53 Q149.363 1331.97 149.363 1324.86 Q149.363 1317.73 147.534 1314.19 Q145.729 1310.63 142.094 1310.63 M142.094 1306.92 Q147.904 1306.92 150.96 1311.53 Q154.039 1316.11 154.039 1324.86 Q154.039 1333.59 150.96 1338.2 Q147.904 1342.78 142.094 1342.78 Q136.284 1342.78 133.205 1338.2 Q130.15 1333.59 130.15 1324.86 Q130.15 1316.11 133.205 1311.53 Q136.284 1306.92 142.094 1306.92 Z" fill="#000000" fill-rule="evenodd" fill-opacity="1" /><path clip-path="url(#clip750)" d="M 0 0 M162.256 1336.23 L167.14 1336.23 L167.14 1342.11 L162.256 1342.11 L162.256 1336.23 Z" fill="#000000" fill-rule="evenodd" fill-opacity="1" /><path clip-path="url(#clip750)" d="M 0 0 M187.326 1310.63 Q183.714 1310.63 181.886 1314.19 Q180.08 1317.73 180.08 1324.86 Q180.08 1331.97 181.886 1335.53 Q183.714 1339.08 187.326 1339.08 Q190.96 1339.08 192.765 1335.53 Q194.594 1331.97 194.594 1324.86 Q194.594 1317.73 192.765 1314.19 Q190.96 1310.63 187.326 1310.63 M187.326 1306.92 Q193.136 1306.92 196.191 1311.53 Q199.27 1316.11 199.27 1324.86 Q199.27 1333.59 196.191 1338.2 Q193.136 1342.78 187.326 1342.78 Q181.515 1342.78 178.437 1338.2 Q175.381 1333.59 175.381 1324.86 Q175.381 1316.11 178.437 1311.53 Q181.515 1306.92 187.326 1306.92 Z" fill="#000000" fill-rule="evenodd" fill-opacity="1" /><path clip-path="url(#clip750)" d="M 0 0 M217.487 1310.63 Q213.876 1310.63 212.048 1314.19 Q210.242 1317.73 210.242 1324.86 Q210.242 1331.97 212.048 1335.53 Q213.876 1339.08 217.487 1339.08 Q221.122 1339.08 222.927 1335.53 Q224.756 1331.97 224.756 1324.86 Q224.756 1317.73 222.927 1314.19 Q221.122 1310.63 217.487 1310.63 M217.487 1306.92 Q223.298 1306.92 226.353 1311.53 Q229.432 1316.11 229.432 1324.86 Q229.432 1333.59 226.353 1338.2 Q223.298 1342.78 217.487 1342.78 Q211.677 1342.78 208.599 1338.2 Q205.543 1333.59 205.543 1324.86 Q205.543 1316.11 208.599 1311.53 Q211.677 1306.92 217.487 1306.92 Z" fill="#000000" fill-rule="evenodd" fill-opacity="1" /><path clip-path="url(#clip750)" d="M 0 0 M143.09 1019.04 Q139.479 1019.04 137.65 1022.6 Q135.844 1026.14 135.844 1033.27 Q135.844 1040.38 137.65 1043.94 Q139.479 1047.49 143.09 1047.49 Q146.724 1047.49 148.529 1043.94 Q150.358 1040.38 150.358 1033.27 Q150.358 1026.14 148.529 1022.6 Q146.724 1019.04 143.09 1019.04 M143.09 1015.33 Q148.9 1015.33 151.955 1019.94 Q155.034 1024.52 155.034 1033.27 Q155.034 1042 151.955 1046.61 Q148.9 1051.19 143.09 1051.19 Q137.279 1051.19 134.201 1046.61 Q131.145 1042 131.145 1033.27 Q131.145 1024.52 134.201 1019.94 Q137.279 1015.33 143.09 1015.33 Z" fill="#000000" fill-rule="evenodd" fill-opacity="1" /><path clip-path="url(#clip750)" d="M 0 0 M163.252 1044.64 L168.136 1044.64 L168.136 1050.52 L163.252 1050.52 L163.252 1044.64 Z" fill="#000000" fill-rule="evenodd" fill-opacity="1" /><path clip-path="url(#clip750)" d="M 0 0 M182.349 1046.58 L198.668 1046.58 L198.668 1050.52 L176.724 1050.52 L176.724 1046.58 Q179.386 1043.83 183.969 1039.2 Q188.576 1034.55 189.756 1033.2 Q192.001 1030.68 192.881 1028.94 Q193.784 1027.18 193.784 1025.49 Q193.784 1022.74 191.839 1021 Q189.918 1019.27 186.816 1019.27 Q184.617 1019.27 182.164 1020.03 Q179.733 1020.8 176.955 1022.35 L176.955 1017.62 Q179.779 1016.49 182.233 1015.91 Q184.687 1015.33 186.724 1015.33 Q192.094 1015.33 195.288 1018.02 Q198.483 1020.7 198.483 1025.19 Q198.483 1027.32 197.673 1029.24 Q196.886 1031.14 194.779 1033.74 Q194.2 1034.41 191.099 1037.62 Q187.997 1040.82 182.349 1046.58 Z" fill="#000000" fill-rule="evenodd" fill-opacity="1" /><path clip-path="url(#clip750)" d="M 0 0 M208.529 1015.96 L226.885 1015.96 L226.885 1019.89 L212.811 1019.89 L212.811 1028.36 Q213.83 1028.02 214.849 1027.86 Q215.867 1027.67 216.886 1027.67 Q222.673 1027.67 226.052 1030.84 Q229.432 1034.01 229.432 1039.43 Q229.432 1045.01 225.96 1048.11 Q222.487 1051.19 216.168 1051.19 Q213.992 1051.19 211.724 1050.82 Q209.478 1050.45 207.071 1049.71 L207.071 1045.01 Q209.154 1046.14 211.376 1046.7 Q213.599 1047.25 216.075 1047.25 Q220.08 1047.25 222.418 1045.15 Q224.756 1043.04 224.756 1039.43 Q224.756 1035.82 222.418 1033.71 Q220.08 1031.61 216.075 1031.61 Q214.2 1031.61 212.325 1032.02 Q210.474 1032.44 208.529 1033.32 L208.529 1015.96 Z" fill="#000000" fill-rule="evenodd" fill-opacity="1" /><path clip-path="url(#clip750)" d="M 0 0 M142.094 727.445 Q138.483 727.445 136.654 731.009 Q134.849 734.551 134.849 741.681 Q134.849 748.787 136.654 752.352 Q138.483 755.894 142.094 755.894 Q145.729 755.894 147.534 752.352 Q149.363 748.787 149.363 741.681 Q149.363 734.551 147.534 731.009 Q145.729 727.445 142.094 727.445 M142.094 723.741 Q147.904 723.741 150.96 728.347 Q154.039 732.931 154.039 741.681 Q154.039 750.408 150.96 755.014 Q147.904 759.597 142.094 759.597 Q136.284 759.597 133.205 755.014 Q130.15 750.408 130.15 741.681 Q130.15 732.931 133.205 728.347 Q136.284 723.741 142.094 723.741 Z" fill="#000000" fill-rule="evenodd" fill-opacity="1" /><path clip-path="url(#clip750)" d="M 0 0 M162.256 753.046 L167.14 753.046 L167.14 758.926 L162.256 758.926 L162.256 753.046 Z" fill="#000000" fill-rule="evenodd" fill-opacity="1" /><path clip-path="url(#clip750)" d="M 0 0 M177.372 724.366 L195.728 724.366 L195.728 728.301 L181.654 728.301 L181.654 736.773 Q182.673 736.426 183.691 736.264 Q184.71 736.079 185.728 736.079 Q191.515 736.079 194.895 739.25 Q198.275 742.421 198.275 747.838 Q198.275 753.417 194.802 756.519 Q191.33 759.597 185.011 759.597 Q182.835 759.597 180.566 759.227 Q178.321 758.857 175.914 758.116 L175.914 753.417 Q177.997 754.551 180.219 755.107 Q182.441 755.662 184.918 755.662 Q188.923 755.662 191.261 753.556 Q193.599 751.449 193.599 747.838 Q193.599 744.227 191.261 742.121 Q188.923 740.014 184.918 740.014 Q183.043 740.014 181.168 740.431 Q179.316 740.847 177.372 741.727 L177.372 724.366 Z" fill="#000000" fill-rule="evenodd" fill-opacity="1" /><path clip-path="url(#clip750)" d="M 0 0 M217.487 727.445 Q213.876 727.445 212.048 731.009 Q210.242 734.551 210.242 741.681 Q210.242 748.787 212.048 752.352 Q213.876 755.894 217.487 755.894 Q221.122 755.894 222.927 752.352 Q224.756 748.787 224.756 741.681 Q224.756 734.551 222.927 731.009 Q221.122 727.445 217.487 727.445 M217.487 723.741 Q223.298 723.741 226.353 728.347 Q229.432 732.931 229.432 741.681 Q229.432 750.408 226.353 755.014 Q223.298 759.597 217.487 759.597 Q211.677 759.597 208.599 755.014 Q205.543 750.408 205.543 741.681 Q205.543 732.931 208.599 728.347 Q211.677 723.741 217.487 723.741 Z" fill="#000000" fill-rule="evenodd" fill-opacity="1" /><path clip-path="url(#clip750)" d="M 0 0 M143.09 435.853 Q139.479 435.853 137.65 439.418 Q135.844 442.96 135.844 450.089 Q135.844 457.196 137.65 460.761 Q139.479 464.302 143.09 464.302 Q146.724 464.302 148.529 460.761 Q150.358 457.196 150.358 450.089 Q150.358 442.96 148.529 439.418 Q146.724 435.853 143.09 435.853 M143.09 432.15 Q148.9 432.15 151.955 436.756 Q155.034 441.339 155.034 450.089 Q155.034 458.816 151.955 463.423 Q148.9 468.006 143.09 468.006 Q137.279 468.006 134.201 463.423 Q131.145 458.816 131.145 450.089 Q131.145 441.339 134.201 436.756 Q137.279 432.15 143.09 432.15 Z" fill="#000000" fill-rule="evenodd" fill-opacity="1" /><path clip-path="url(#clip750)" d="M 0 0 M163.252 461.455 L168.136 461.455 L168.136 467.335 L163.252 467.335 L163.252 461.455 Z" fill="#000000" fill-rule="evenodd" fill-opacity="1" /><path clip-path="url(#clip750)" d="M 0 0 M177.14 432.775 L199.362 432.775 L199.362 434.765 L186.816 467.335 L181.932 467.335 L193.738 436.71 L177.14 436.71 L177.14 432.775 Z" fill="#000000" fill-rule="evenodd" fill-opacity="1" /><path clip-path="url(#clip750)" d="M 0 0 M208.529 432.775 L226.885 432.775 L226.885 436.71 L212.811 436.71 L212.811 445.182 Q213.83 444.835 214.849 444.673 Q215.867 444.487 216.886 444.487 Q222.673 444.487 226.052 447.659 Q229.432 450.83 229.432 456.247 Q229.432 461.825 225.96 464.927 Q222.487 468.006 216.168 468.006 Q213.992 468.006 211.724 467.635 Q209.478 467.265 207.071 466.524 L207.071 461.825 Q209.154 462.96 211.376 463.515 Q213.599 464.071 216.075 464.071 Q220.08 464.071 222.418 461.964 Q224.756 459.858 224.756 456.247 Q224.756 452.636 222.418 450.529 Q220.08 448.423 216.075 448.423 Q214.2 448.423 212.325 448.839 Q210.474 449.256 208.529 450.136 L208.529 432.775 Z" fill="#000000" fill-rule="evenodd" fill-opacity="1" /><path clip-path="url(#clip750)" d="M 0 0 M132.905 171.808 L140.543 171.808 L140.543 145.442 L132.233 147.109 L132.233 142.85 L140.497 141.183 L145.173 141.183 L145.173 171.808 L152.812 171.808 L152.812 175.743 L132.905 175.743 L132.905 171.808 Z" fill="#000000" fill-rule="evenodd" fill-opacity="1" /><path clip-path="url(#clip750)" d="M 0 0 M162.256 169.864 L167.14 169.864 L167.14 175.743 L162.256 175.743 L162.256 169.864 Z" fill="#000000" fill-rule="evenodd" fill-opacity="1" /><path clip-path="url(#clip750)" d="M 0 0 M187.326 144.262 Q183.714 144.262 181.886 147.827 Q180.08 151.368 180.08 158.498 Q180.08 165.604 181.886 169.169 Q183.714 172.711 187.326 172.711 Q190.96 172.711 192.765 169.169 Q194.594 165.604 194.594 158.498 Q194.594 151.368 192.765 147.827 Q190.96 144.262 187.326 144.262 M187.326 140.558 Q193.136 140.558 196.191 145.165 Q199.27 149.748 199.27 158.498 Q199.27 167.225 196.191 171.831 Q193.136 176.414 187.326 176.414 Q181.515 176.414 178.437 171.831 Q175.381 167.225 175.381 158.498 Q175.381 149.748 178.437 145.165 Q181.515 140.558 187.326 140.558 Z" fill="#000000" fill-rule="evenodd" fill-opacity="1" /><path clip-path="url(#clip750)" d="M 0 0 M217.487 144.262 Q213.876 144.262 212.048 147.827 Q210.242 151.368 210.242 158.498 Q210.242 165.604 212.048 169.169 Q213.876 172.711 217.487 172.711 Q221.122 172.711 222.927 169.169 Q224.756 165.604 224.756 158.498 Q224.756 151.368 222.927 147.827 Q221.122 144.262 217.487 144.262 M217.487 140.558 Q223.298 140.558 226.353 145.165 Q229.432 149.748 229.432 158.498 Q229.432 167.225 226.353 171.831 Q223.298 176.414 217.487 176.414 Q211.677 176.414 208.599 171.831 Q205.543 167.225 205.543 158.498 Q205.543 149.748 208.599 145.165 Q211.677 140.558 217.487 140.558 Z" fill="#000000" fill-rule="evenodd" fill-opacity="1" /><path clip-path="url(#clip750)" d="M 0 0 M51.61 806.247 L52.5343 806.81 Q51.0239 810.305 48.6117 814.656 Q51.0239 819.007 52.5343 822.501 L51.61 823.042 Q48.296 819.232 45.7486 814.656 Q48.3186 810.034 51.61 806.247 Z" fill="#000000" fill-rule="evenodd" fill-opacity="1" /><path clip-path="url(#clip750)" d="M 0 0 M62.6398 803.737 Q62.672 803.737 63.8314 803.931 L93.1066 811.274 Q94.6524 811.66 96.1983 812.755 Q97.7764 813.818 99.129 815.525 Q100.514 817.199 101.351 819.776 Q102.221 822.32 102.221 825.251 Q102.221 829.921 101.222 831.982 Q100.256 834.011 98.1951 834.011 Q96.3916 834.011 95.361 832.884 Q94.3626 831.757 94.3626 830.468 Q94.3626 829.244 95.0711 828.6 Q95.7796 827.956 96.6814 827.956 Q97.6798 827.956 98.6782 828.633 Q99.7088 829.309 100.095 830.662 Q100.772 828.504 100.772 825.38 Q100.772 818.778 93.7829 815.943 Q93.6863 815.879 93.6541 815.879 L84.9263 813.689 L84.8619 813.786 Q85.506 814.333 86.2467 815.203 Q86.9552 816.04 87.8248 817.844 Q88.6944 819.647 88.6944 821.418 Q88.6944 825.122 85.8602 827.666 Q82.9939 830.178 78.2597 830.178 Q74.8136 830.178 71.3676 828.794 Q67.8894 827.377 65.3451 825.187 Q62.7686 822.964 61.1583 820.13 Q59.548 817.264 59.548 814.494 Q59.548 812.562 60.7075 810.919 Q61.8347 809.277 63.7026 808.375 Q62.1567 808.214 61.5126 807.344 Q60.8685 806.443 60.8685 805.67 Q60.8685 804.8 61.3516 804.285 Q61.8025 803.737 62.6398 803.737 M66.6655 809.148 Q66.4723 809.148 65.957 809.277 Q65.4095 809.406 64.54 809.792 Q63.6704 810.146 62.8975 810.694 Q62.1245 811.241 61.577 812.24 Q60.9973 813.206 60.9973 814.43 Q60.9973 816.427 62.672 818.423 Q64.3145 820.42 66.8588 821.805 Q69.3064 823.093 74.0407 824.317 Q78.7749 825.509 81.1904 825.509 Q83.5736 825.509 85.4094 824.478 Q87.2451 823.447 87.2451 821.225 Q87.2451 818.649 84.8619 815.879 Q82.382 813.013 80.2564 812.53 L67.6639 809.341 Q66.891 809.148 66.6655 809.148 Z" fill="#000000" fill-rule="evenodd" fill-opacity="1" /><path clip-path="url(#clip750)" d="M 0 0 M33.3852 795.622 Q25.5849 795.622 19.2951 792.713 Q16.6574 791.474 14.4481 789.738 Q12.2388 788.002 11.2694 786.852 Q10.3 785.702 10.3 785.387 Q10.3 784.936 10.7509 784.913 Q10.9763 784.913 11.5399 785.522 Q19.1148 792.961 33.3852 792.939 Q47.7007 792.939 54.9824 785.702 Q55.7715 784.913 56.0194 784.913 Q56.4703 784.913 56.4703 785.387 Q56.4703 785.702 55.546 786.807 Q54.6217 787.912 52.5026 789.625 Q50.3834 791.338 47.7909 792.578 Q41.501 795.622 33.3852 795.622 Z" fill="#000000" fill-rule="evenodd" fill-opacity="1" /><path clip-path="url(#clip750)" d="M 0 0 M44.9278 777.893 Q44.0936 777.893 43.8456 777.826 Q43.5976 777.736 43.2144 777.375 L33.3401 768.515 Q27.8844 763.668 23.1276 763.668 Q20.0391 763.668 17.8297 765.291 Q15.6204 766.892 15.6204 769.845 Q15.6204 771.874 16.8603 773.587 Q18.1003 775.301 20.3096 776.09 Q20.2645 775.955 20.2645 775.481 Q20.2645 774.331 20.9859 773.7 Q21.7073 773.046 22.6767 773.046 Q23.9166 773.046 24.5253 773.858 Q25.1115 774.647 25.1115 775.436 Q25.1115 775.752 25.0439 776.18 Q24.9762 776.586 24.345 777.24 Q23.6912 777.893 22.5415 777.893 Q19.3176 777.893 16.7476 775.459 Q14.1776 773.001 14.1776 769.259 Q14.1776 765.021 16.7025 762.248 Q19.2049 759.452 23.1276 759.452 Q24.5028 759.452 25.7653 759.881 Q27.0052 760.286 27.9746 760.85 Q28.944 761.391 30.4995 762.879 Q32.0551 764.367 33.1597 765.562 Q34.2644 766.757 36.609 769.439 L41.3658 774.331 L41.3658 766.013 Q41.3658 761.955 41.0051 761.639 Q40.3513 761.188 36.9021 760.625 L36.9021 759.452 L44.9278 760.76 L44.9278 777.893 Z" fill="#000000" fill-rule="evenodd" fill-opacity="1" /><path clip-path="url(#clip750)" d="M 0 0 M56.0194 755.03 Q55.794 755.03 55.2304 754.443 Q47.6556 747.004 33.3852 747.004 Q19.0697 747.004 11.833 754.15 Q10.9989 755.03 10.7509 755.03 Q10.3 755.03 10.3 754.579 Q10.3 754.263 11.2243 753.158 Q12.1486 752.031 14.2678 750.34 Q16.3869 748.627 18.9795 747.365 Q25.2693 744.321 33.3852 744.321 Q41.1854 744.321 47.4752 747.229 Q50.1129 748.469 52.3222 750.205 Q54.5315 751.941 55.5009 753.091 Q56.4703 754.241 56.4703 754.579 Q56.4703 755.03 56.0194 755.03 Z" fill="#000000" fill-rule="evenodd" fill-opacity="1" /><path clip-path="url(#clip750)" d="M 0 0 M72.2049 730.261 Q61.0617 730.261 52.0763 726.107 Q48.3082 724.335 45.152 721.856 Q41.9959 719.376 40.611 717.733 Q39.2261 716.091 39.2261 715.64 Q39.2261 714.996 39.8703 714.963 Q40.1923 714.963 40.9975 715.833 Q51.8186 726.461 72.2049 726.429 Q92.6557 726.429 103.058 716.091 Q104.185 714.963 104.54 714.963 Q105.184 714.963 105.184 715.64 Q105.184 716.091 103.863 717.669 Q102.543 719.247 99.5155 721.695 Q96.4882 724.142 92.7845 725.913 Q83.7991 730.261 72.2049 730.261 Z" fill="#000000" fill-rule="evenodd" fill-opacity="1" /><path clip-path="url(#clip750)" d="M 0 0 M61.3194 673.889 Q61.6092 673.889 62.6076 674.146 Q63.5738 674.372 65.4739 675.112 Q67.3419 675.821 69.4352 676.916 Q71.4964 677.979 74.1051 679.943 Q76.7138 681.908 79.0004 684.356 Q83.316 688.961 85.6348 693.888 Q87.9536 698.784 88.6944 702.971 L88.6944 703.904 Q88.6944 704.935 87.8892 704.935 L84.9263 704.227 L68.7911 700.201 Q63.8636 698.945 63.445 698.945 Q63.0585 698.945 62.8653 699.106 Q62.6398 699.235 62.4788 700.008 Q62.3178 700.748 62.3178 702.23 Q62.3178 702.842 62.2855 703.132 Q62.2533 703.389 62.0923 703.615 Q61.8991 703.84 61.5126 703.84 Q60.9651 703.84 60.6753 703.615 Q60.3532 703.357 60.2888 703.164 Q60.2244 702.971 60.1922 702.584 Q60.16 702.037 59.9989 700.201 Q59.8057 698.365 59.6769 696.787 Q59.548 695.209 59.548 694.533 Q59.548 694.146 59.7413 693.921 Q59.9023 693.695 60.0955 693.695 L60.2566 693.663 L86.5044 700.136 Q85.7314 697.753 84.4432 695.402 Q83.1549 693.019 81.0294 690.442 Q78.8716 687.866 76.1985 685.676 Q73.5254 683.486 69.7895 681.554 Q66.0214 679.589 61.7058 678.365 Q60.8363 678.14 60.321 677.592 Q59.8057 677.013 59.6769 676.594 Q59.548 676.175 59.548 675.789 Q59.548 674.919 60.0311 674.404 Q60.482 673.889 61.3194 673.889 Z" fill="#000000" fill-rule="evenodd" fill-opacity="1" /><path clip-path="url(#clip750)" d="M 0 0 M104.54 672.687 Q104.218 672.687 103.412 671.85 Q92.5913 661.222 72.2049 661.222 Q51.7542 661.222 41.4161 671.431 Q40.2245 672.687 39.8703 672.687 Q39.2261 672.687 39.2261 672.043 Q39.2261 671.592 40.5466 670.014 Q41.867 668.404 44.8944 665.988 Q47.9217 663.541 51.6254 661.737 Q60.6108 657.389 72.2049 657.389 Q83.3482 657.389 92.3336 661.544 Q96.1017 663.315 99.2579 665.795 Q102.414 668.275 103.799 669.918 Q105.184 671.56 105.184 672.043 Q105.184 672.687 104.54 672.687 Z" fill="#000000" fill-rule="evenodd" fill-opacity="1" /><path clip-path="url(#clip750)" d="M 0 0 M578.89 18.8205 L578.89 41.5461 L589.18 41.5461 Q594.891 41.5461 598.01 38.5889 Q601.13 35.6318 601.13 30.163 Q601.13 24.7348 598.01 21.7777 Q594.891 18.8205 589.18 18.8205 L578.89 18.8205 M570.707 12.096 L589.18 12.096 Q599.347 12.096 604.532 16.714 Q609.758 21.2916 609.758 30.163 Q609.758 39.1155 604.532 43.6931 Q599.347 48.2706 589.18 48.2706 L578.89 48.2706 L578.89 72.576 L570.707 72.576 L570.707 12.096 Z" fill="#000000" fill-rule="evenodd" fill-opacity="1" /><path clip-path="url(#clip750)" d="M 0 0 M658.126 45.1919 L658.126 72.576 L650.672 72.576 L650.672 45.4349 Q650.672 38.994 648.161 35.7938 Q645.649 32.5936 640.626 32.5936 Q634.59 32.5936 631.106 36.4419 Q627.623 40.2903 627.623 46.9338 L627.623 72.576 L620.128 72.576 L620.128 9.54393 L627.623 9.54393 L627.623 34.2544 Q630.296 30.163 633.901 28.1376 Q637.547 26.1121 642.287 26.1121 Q650.105 26.1121 654.116 30.9732 Q658.126 35.7938 658.126 45.1919 Z" fill="#000000" fill-rule="evenodd" fill-opacity="1" /><path clip-path="url(#clip750)" d="M 0 0 M690.574 32.4315 Q684.578 32.4315 681.095 37.1306 Q677.611 41.7891 677.611 49.9314 Q677.611 58.0738 681.054 62.7728 Q684.538 67.4314 690.574 67.4314 Q696.528 67.4314 700.012 62.7323 Q703.496 58.0333 703.496 49.9314 Q703.496 41.8701 700.012 37.1711 Q696.528 32.4315 690.574 32.4315 M690.574 26.1121 Q700.296 26.1121 705.846 32.4315 Q711.395 38.7509 711.395 49.9314 Q711.395 61.0714 705.846 67.4314 Q700.296 73.7508 690.574 73.7508 Q680.811 73.7508 675.261 67.4314 Q669.752 61.0714 669.752 49.9314 Q669.752 38.7509 675.261 32.4315 Q680.811 26.1121 690.574 26.1121 Z" fill="#000000" fill-rule="evenodd" fill-opacity="1" /><path clip-path="url(#clip750)" d="M 0 0 M731.123 14.324 L731.123 27.2059 L746.476 27.2059 L746.476 32.9987 L731.123 32.9987 L731.123 57.6282 Q731.123 63.1779 732.622 64.7578 Q734.161 66.3376 738.82 66.3376 L746.476 66.3376 L746.476 72.576 L738.82 72.576 Q730.191 72.576 726.91 69.3758 Q723.629 66.1351 723.629 57.6282 L723.629 32.9987 L718.16 32.9987 L718.16 27.2059 L723.629 27.2059 L723.629 14.324 L731.123 14.324 Z" fill="#000000" fill-rule="evenodd" fill-opacity="1" /><path clip-path="url(#clip750)" d="M 0 0 M773.86 32.4315 Q767.865 32.4315 764.381 37.1306 Q760.897 41.7891 760.897 49.9314 Q760.897 58.0738 764.341 62.7728 Q767.824 67.4314 773.86 67.4314 Q779.815 67.4314 783.299 62.7323 Q786.783 58.0333 786.783 49.9314 Q786.783 41.8701 783.299 37.1711 Q779.815 32.4315 773.86 32.4315 M773.86 26.1121 Q783.582 26.1121 789.132 32.4315 Q794.682 38.7509 794.682 49.9314 Q794.682 61.0714 789.132 67.4314 Q783.582 73.7508 773.86 73.7508 Q764.098 73.7508 758.548 67.4314 Q753.039 61.0714 753.039 49.9314 Q753.039 38.7509 758.548 32.4315 Q764.098 26.1121 773.86 26.1121 Z" fill="#000000" fill-rule="evenodd" fill-opacity="1" /><path clip-path="url(#clip750)" d="M 0 0 M844.751 45.1919 L844.751 72.576 L837.297 72.576 L837.297 45.4349 Q837.297 38.994 834.786 35.7938 Q832.274 32.5936 827.251 32.5936 Q821.215 32.5936 817.732 36.4419 Q814.248 40.2903 814.248 46.9338 L814.248 72.576 L806.754 72.576 L806.754 27.2059 L814.248 27.2059 L814.248 34.2544 Q816.921 30.163 820.527 28.1376 Q824.172 26.1121 828.912 26.1121 Q836.73 26.1121 840.741 30.9732 Q844.751 35.7938 844.751 45.1919 Z" fill="#000000" fill-rule="evenodd" fill-opacity="1" /><path clip-path="url(#clip750)" d="M 0 0 M931.602 16.7545 L931.602 25.383 Q927.471 21.5346 922.771 19.6307 Q918.113 17.7268 912.847 17.7268 Q902.476 17.7268 896.967 24.0867 Q891.458 30.4061 891.458 42.3968 Q891.458 54.3469 896.967 60.7069 Q902.476 67.0263 912.847 67.0263 Q918.113 67.0263 922.771 65.1223 Q927.471 63.2184 931.602 59.3701 L931.602 67.9175 Q927.308 70.8341 922.488 72.2924 Q917.708 73.7508 912.361 73.7508 Q898.628 73.7508 890.729 65.3654 Q882.83 56.9395 882.83 42.3968 Q882.83 27.8135 890.729 19.4281 Q898.628 11.0023 912.361 11.0023 Q917.789 11.0023 922.569 12.4606 Q927.39 13.8784 931.602 16.7545 Z" fill="#000000" fill-rule="evenodd" fill-opacity="1" /><path clip-path="url(#clip750)" d="M 0 0 M961.498 32.4315 Q955.503 32.4315 952.019 37.1306 Q948.535 41.7891 948.535 49.9314 Q948.535 58.0738 951.978 62.7728 Q955.462 67.4314 961.498 67.4314 Q967.453 67.4314 970.937 62.7323 Q974.421 58.0333 974.421 49.9314 Q974.421 41.8701 970.937 37.1711 Q967.453 32.4315 961.498 32.4315 M961.498 26.1121 Q971.22 26.1121 976.77 32.4315 Q982.32 38.7509 982.32 49.9314 Q982.32 61.0714 976.77 67.4314 Q971.22 73.7508 961.498 73.7508 Q951.735 73.7508 946.186 67.4314 Q940.676 61.0714 940.676 49.9314 Q940.676 38.7509 946.186 32.4315 Q951.735 26.1121 961.498 26.1121 Z" fill="#000000" fill-rule="evenodd" fill-opacity="1" /><path clip-path="url(#clip750)" d="M 0 0 M1020.97 34.1734 Q1019.71 33.4443 1018.21 33.1202 Q1016.75 32.7556 1014.97 32.7556 Q1008.65 32.7556 1005.25 36.8875 Q1001.89 40.9789 1001.89 48.6757 L1001.89 72.576 L994.391 72.576 L994.391 27.2059 L1001.89 27.2059 L1001.89 34.2544 Q1004.24 30.1225 1008 28.1376 Q1011.77 26.1121 1017.16 26.1121 Q1017.93 26.1121 1018.86 26.2337 Q1019.79 26.3147 1020.92 26.5172 L1020.97 34.1734 Z" fill="#000000" fill-rule="evenodd" fill-opacity="1" /><path clip-path="url(#clip750)" d="M 0 0 M1053.62 34.1734 Q1052.36 33.4443 1050.86 33.1202 Q1049.4 32.7556 1047.62 32.7556 Q1041.3 32.7556 1037.9 36.8875 Q1034.54 40.9789 1034.54 48.6757 L1034.54 72.576 L1027.04 72.576 L1027.04 27.2059 L1034.54 27.2059 L1034.54 34.2544 Q1036.89 30.1225 1040.65 28.1376 Q1044.42 26.1121 1049.81 26.1121 Q1050.58 26.1121 1051.51 26.2337 Q1052.44 26.3147 1053.58 26.5172 L1053.62 34.1734 Z" fill="#000000" fill-rule="evenodd" fill-opacity="1" /><path clip-path="url(#clip750)" d="M 0 0 M1098.42 48.0275 L1098.42 51.6733 L1064.15 51.6733 Q1064.63 59.3701 1068.77 63.421 Q1072.94 67.4314 1080.35 67.4314 Q1084.65 67.4314 1088.66 66.3781 Q1092.71 65.3249 1096.68 63.2184 L1096.68 70.267 Q1092.67 71.9684 1088.45 72.8596 Q1084.24 73.7508 1079.91 73.7508 Q1069.05 73.7508 1062.69 67.4314 Q1056.37 61.1119 1056.37 50.3365 Q1056.37 39.1965 1062.37 32.6746 Q1068.4 26.1121 1078.61 26.1121 Q1087.76 26.1121 1093.07 32.0264 Q1098.42 37.9003 1098.42 48.0275 M1090.97 45.84 Q1090.88 39.7232 1087.52 36.0774 Q1084.2 32.4315 1078.69 32.4315 Q1072.45 32.4315 1068.69 35.9558 Q1064.96 39.4801 1064.39 45.8805 L1090.97 45.84 Z" fill="#000000" fill-rule="evenodd" fill-opacity="1" /><path clip-path="url(#clip750)" d="M 0 0 M1110.65 9.54393 L1118.11 9.54393 L1118.11 72.576 L1110.65 72.576 L1110.65 9.54393 Z" fill="#000000" fill-rule="evenodd" fill-opacity="1" /><path clip-path="url(#clip750)" d="M 0 0 M1154.32 49.7694 Q1145.29 49.7694 1141.8 51.8354 Q1138.32 53.9013 1138.32 58.8839 Q1138.32 62.8538 1140.91 65.2034 Q1143.55 67.5124 1148.04 67.5124 Q1154.24 67.5124 1157.97 63.1374 Q1161.73 58.7219 1161.73 51.4303 L1161.73 49.7694 L1154.32 49.7694 M1169.19 46.6907 L1169.19 72.576 L1161.73 72.576 L1161.73 65.6895 Q1159.18 69.8214 1155.37 71.8063 Q1151.57 73.7508 1146.06 73.7508 Q1139.09 73.7508 1134.96 69.8619 Q1130.87 65.9325 1130.87 59.3701 Q1130.87 51.7138 1135.97 47.825 Q1141.12 43.9361 1151.28 43.9361 L1161.73 43.9361 L1161.73 43.2069 Q1161.73 38.0623 1158.33 35.2672 Q1154.97 32.4315 1148.85 32.4315 Q1144.96 32.4315 1141.28 33.3632 Q1137.59 34.295 1134.19 36.1584 L1134.19 29.2718 Q1138.28 27.692 1142.13 26.9223 Q1145.98 26.1121 1149.62 26.1121 Q1159.47 26.1121 1164.33 31.2163 Q1169.19 36.3204 1169.19 46.6907 Z" fill="#000000" fill-rule="evenodd" fill-opacity="1" /><path clip-path="url(#clip750)" d="M 0 0 M1191.91 14.324 L1191.91 27.2059 L1207.27 27.2059 L1207.27 32.9987 L1191.91 32.9987 L1191.91 57.6282 Q1191.91 63.1779 1193.41 64.7578 Q1194.95 66.3376 1199.61 66.3376 L1207.27 66.3376 L1207.27 72.576 L1199.61 72.576 Q1190.98 72.576 1187.7 69.3758 Q1184.42 66.1351 1184.42 57.6282 L1184.42 32.9987 L1178.95 32.9987 L1178.95 27.2059 L1184.42 27.2059 L1184.42 14.324 L1191.91 14.324 Z" fill="#000000" fill-rule="evenodd" fill-opacity="1" /><path clip-path="url(#clip750)" d="M 0 0 M1217.07 27.2059 L1224.52 27.2059 L1224.52 72.576 L1217.07 72.576 L1217.07 27.2059 M1217.07 9.54393 L1224.52 9.54393 L1224.52 18.9825 L1217.07 18.9825 L1217.07 9.54393 Z" fill="#000000" fill-rule="evenodd" fill-opacity="1" /><path clip-path="url(#clip750)" d="M 0 0 M1257.7 32.4315 Q1251.7 32.4315 1248.22 37.1306 Q1244.74 41.7891 1244.74 49.9314 Q1244.74 58.0738 1248.18 62.7728 Q1251.66 67.4314 1257.7 67.4314 Q1263.66 67.4314 1267.14 62.7323 Q1270.62 58.0333 1270.62 49.9314 Q1270.62 41.8701 1267.14 37.1711 Q1263.66 32.4315 1257.7 32.4315 M1257.7 26.1121 Q1267.42 26.1121 1272.97 32.4315 Q1278.52 38.7509 1278.52 49.9314 Q1278.52 61.0714 1272.97 67.4314 Q1267.42 73.7508 1257.7 73.7508 Q1247.94 73.7508 1242.39 67.4314 Q1236.88 61.0714 1236.88 49.9314 Q1236.88 38.7509 1242.39 32.4315 Q1247.94 26.1121 1257.7 26.1121 Z" fill="#000000" fill-rule="evenodd" fill-opacity="1" /><path clip-path="url(#clip750)" d="M 0 0 M1328.59 45.1919 L1328.59 72.576 L1321.14 72.576 L1321.14 45.4349 Q1321.14 38.994 1318.63 35.7938 Q1316.11 32.5936 1311.09 32.5936 Q1305.06 32.5936 1301.57 36.4419 Q1298.09 40.2903 1298.09 46.9338 L1298.09 72.576 L1290.59 72.576 L1290.59 27.2059 L1298.09 27.2059 L1298.09 34.2544 Q1300.76 30.163 1304.37 28.1376 Q1308.01 26.1121 1312.75 26.1121 Q1320.57 26.1121 1324.58 30.9732 Q1328.59 35.7938 1328.59 45.1919 Z" fill="#000000" fill-rule="evenodd" fill-opacity="1" /><path clip-path="url(#clip750)" d="M 0 0 M1372.38 28.5427 L1372.38 35.5912 Q1369.22 33.9709 1365.82 33.1607 Q1362.42 32.3505 1358.77 32.3505 Q1353.22 32.3505 1350.43 34.0519 Q1347.67 35.7533 1347.67 39.156 Q1347.67 41.7486 1349.66 43.2475 Q1351.64 44.7058 1357.64 46.0426 L1360.19 46.6097 Q1368.13 48.3111 1371.45 51.4303 Q1374.81 54.509 1374.81 60.0587 Q1374.81 66.3781 1369.79 70.0644 Q1364.81 73.7508 1356.06 73.7508 Q1352.41 73.7508 1348.44 73.0216 Q1344.51 72.3329 1340.14 70.9151 L1340.14 63.2184 Q1344.27 65.3654 1348.28 66.4591 Q1352.29 67.5124 1356.22 67.5124 Q1361.48 67.5124 1364.32 65.73 Q1367.16 63.9071 1367.16 60.6258 Q1367.16 57.5877 1365.09 55.9673 Q1363.06 54.3469 1356.14 52.8481 L1353.54 52.2405 Q1346.62 50.7821 1343.54 47.7845 Q1340.46 44.7463 1340.46 39.4801 Q1340.46 33.0797 1345 29.5959 Q1349.53 26.1121 1357.88 26.1121 Q1362.01 26.1121 1365.66 26.7198 Q1369.3 27.3274 1372.38 28.5427 Z" fill="#000000" fill-rule="evenodd" fill-opacity="1" /><path clip-path="url(#clip750)" d="M 0 0 M1407.71 27.2059 L1415.6 27.2059 L1429.78 65.2844 L1443.96 27.2059 L1451.86 27.2059 L1434.85 72.576 L1424.72 72.576 L1407.71 27.2059 Z" fill="#000000" fill-rule="evenodd" fill-opacity="1" /><path clip-path="url(#clip750)" d="M 0 0 M1491.07 28.5427 L1491.07 35.5912 Q1487.91 33.9709 1484.51 33.1607 Q1481.11 32.3505 1477.46 32.3505 Q1471.91 32.3505 1469.12 34.0519 Q1466.36 35.7533 1466.36 39.156 Q1466.36 41.7486 1468.35 43.2475 Q1470.33 44.7058 1476.33 46.0426 L1478.88 46.6097 Q1486.82 48.3111 1490.14 51.4303 Q1493.5 54.509 1493.5 60.0587 Q1493.5 66.3781 1488.48 70.0644 Q1483.5 73.7508 1474.75 73.7508 Q1471.1 73.7508 1467.13 73.0216 Q1463.2 72.3329 1458.83 70.9151 L1458.83 63.2184 Q1462.96 65.3654 1466.97 66.4591 Q1470.98 67.5124 1474.91 67.5124 Q1480.18 67.5124 1483.01 65.73 Q1485.85 63.9071 1485.85 60.6258 Q1485.85 57.5877 1483.78 55.9673 Q1481.76 54.3469 1474.83 52.8481 L1472.24 52.2405 Q1465.31 50.7821 1462.23 47.7845 Q1459.15 44.7463 1459.15 39.4801 Q1459.15 33.0797 1463.69 29.5959 Q1468.23 26.1121 1476.57 26.1121 Q1480.7 26.1121 1484.35 26.7198 Q1487.99 27.3274 1491.07 28.5427 Z" fill="#000000" fill-rule="evenodd" fill-opacity="1" /><path clip-path="url(#clip750)" d="M 0 0 M1532.07 12.096 L1566.82 12.096 L1566.82 18.9825 L1540.25 18.9825 L1540.25 36.8065 L1564.23 36.8065 L1564.23 43.6931 L1540.25 43.6931 L1540.25 72.576 L1532.07 72.576 L1532.07 12.096 Z" fill="#000000" fill-rule="evenodd" fill-opacity="1" /><path clip-path="url(#clip750)" d="M 0 0 M1599.72 34.1734 Q1598.46 33.4443 1596.96 33.1202 Q1595.51 32.7556 1593.72 32.7556 Q1587.4 32.7556 1584 36.8875 Q1580.64 40.9789 1580.64 48.6757 L1580.64 72.576 L1573.14 72.576 L1573.14 27.2059 L1580.64 27.2059 L1580.64 34.2544 Q1582.99 30.1225 1586.76 28.1376 Q1590.52 26.1121 1595.91 26.1121 Q1596.68 26.1121 1597.61 26.2337 Q1598.54 26.3147 1599.68 26.5172 L1599.72 34.1734 Z" fill="#000000" fill-rule="evenodd" fill-opacity="1" /><path clip-path="url(#clip750)" d="M 0 0 M1644.52 48.0275 L1644.52 51.6733 L1610.25 51.6733 Q1610.74 59.3701 1614.87 63.421 Q1619.04 67.4314 1626.45 67.4314 Q1630.75 67.4314 1634.76 66.3781 Q1638.81 65.3249 1642.78 63.2184 L1642.78 70.267 Q1638.77 71.9684 1634.56 72.8596 Q1630.34 73.7508 1626.01 73.7508 Q1615.15 73.7508 1608.79 67.4314 Q1602.47 61.1119 1602.47 50.3365 Q1602.47 39.1965 1608.47 32.6746 Q1614.5 26.1121 1624.71 26.1121 Q1633.87 26.1121 1639.17 32.0264 Q1644.52 37.9003 1644.52 48.0275 M1637.07 45.84 Q1636.99 39.7232 1633.62 36.0774 Q1630.3 32.4315 1624.79 32.4315 Q1618.55 32.4315 1614.79 35.9558 Q1611.06 39.4801 1610.49 45.8805 L1637.07 45.84 Z" fill="#000000" fill-rule="evenodd" fill-opacity="1" /><path clip-path="url(#clip750)" d="M 0 0 M1661.21 49.9314 Q1661.21 58.1548 1664.57 62.8538 Q1667.98 67.5124 1673.89 67.5124 Q1679.8 67.5124 1683.21 62.8538 Q1686.61 58.1548 1686.61 49.9314 Q1686.61 41.7081 1683.21 37.0496 Q1679.8 32.3505 1673.89 32.3505 Q1667.98 32.3505 1664.57 37.0496 Q1661.21 41.7081 1661.21 49.9314 M1686.61 65.7705 Q1684.26 69.8214 1680.66 71.8063 Q1677.09 73.7508 1672.07 73.7508 Q1663.84 73.7508 1658.66 67.1883 Q1653.51 60.6258 1653.51 49.9314 Q1653.51 39.2371 1658.66 32.6746 Q1663.84 26.1121 1672.07 26.1121 Q1677.09 26.1121 1680.66 28.0971 Q1684.26 30.0415 1686.61 34.0924 L1686.61 27.2059 L1694.06 27.2059 L1694.06 89.8329 L1686.61 89.8329 L1686.61 65.7705 Z" fill="#000000" fill-rule="evenodd" fill-opacity="1" /><path clip-path="url(#clip750)" d="M 0 0 M1708.65 54.671 L1708.65 27.2059 L1716.1 27.2059 L1716.1 54.3874 Q1716.1 60.8284 1718.61 64.0691 Q1721.12 67.2693 1726.15 67.2693 Q1732.18 67.2693 1735.67 63.421 Q1739.19 59.5726 1739.19 52.9291 L1739.19 27.2059 L1746.64 27.2059 L1746.64 72.576 L1739.19 72.576 L1739.19 65.6084 Q1736.48 69.7404 1732.87 71.7658 Q1729.31 73.7508 1724.57 73.7508 Q1716.75 73.7508 1712.7 68.8897 Q1708.65 64.0286 1708.65 54.671 M1727.4 26.1121 L1727.4 26.1121 Z" fill="#000000" fill-rule="evenodd" fill-opacity="1" /><path clip-path="url(#clip750)" d="M 0 0 M1800.8 48.0275 L1800.8 51.6733 L1766.53 51.6733 Q1767.02 59.3701 1771.15 63.421 Q1775.32 67.4314 1782.74 67.4314 Q1787.03 67.4314 1791.04 66.3781 Q1795.09 65.3249 1799.06 63.2184 L1799.06 70.267 Q1795.05 71.9684 1790.84 72.8596 Q1786.63 73.7508 1782.29 73.7508 Q1771.44 73.7508 1765.08 67.4314 Q1758.76 61.1119 1758.76 50.3365 Q1758.76 39.1965 1764.75 32.6746 Q1770.79 26.1121 1781 26.1121 Q1790.15 26.1121 1795.46 32.0264 Q1800.8 37.9003 1800.8 48.0275 M1793.35 45.84 Q1793.27 39.7232 1789.91 36.0774 Q1786.59 32.4315 1781.08 32.4315 Q1774.84 32.4315 1771.07 35.9558 Q1767.34 39.4801 1766.78 45.8805 L1793.35 45.84 Z" fill="#000000" fill-rule="evenodd" fill-opacity="1" /><path clip-path="url(#clip750)" d="M 0 0 M1850.75 45.1919 L1850.75 72.576 L1843.3 72.576 L1843.3 45.4349 Q1843.3 38.994 1840.79 35.7938 Q1838.28 32.5936 1833.25 32.5936 Q1827.22 32.5936 1823.73 36.4419 Q1820.25 40.2903 1820.25 46.9338 L1820.25 72.576 L1812.76 72.576 L1812.76 27.2059 L1820.25 27.2059 L1820.25 34.2544 Q1822.92 30.163 1826.53 28.1376 Q1830.17 26.1121 1834.91 26.1121 Q1842.73 26.1121 1846.74 30.9732 Q1850.75 35.7938 1850.75 45.1919 Z" fill="#000000" fill-rule="evenodd" fill-opacity="1" /><path clip-path="url(#clip750)" d="M 0 0 M1898.27 28.9478 L1898.27 35.9153 Q1895.11 34.1734 1891.91 33.3227 Q1888.75 32.4315 1885.51 32.4315 Q1878.26 32.4315 1874.25 37.0496 Q1870.24 41.6271 1870.24 49.9314 Q1870.24 58.2358 1874.25 62.8538 Q1878.26 67.4314 1885.51 67.4314 Q1888.75 67.4314 1891.91 66.5807 Q1895.11 65.6895 1898.27 63.9476 L1898.27 70.8341 Q1895.15 72.2924 1891.79 73.0216 Q1888.47 73.7508 1884.7 73.7508 Q1874.45 73.7508 1868.41 67.3098 Q1862.38 60.8689 1862.38 49.9314 Q1862.38 38.832 1868.46 32.472 Q1874.57 26.1121 1885.19 26.1121 Q1888.63 26.1121 1891.91 26.8413 Q1895.19 27.5299 1898.27 28.9478 Z" fill="#000000" fill-rule="evenodd" fill-opacity="1" /><path clip-path="url(#clip750)" d="M 0 0 M1930.11 76.7889 Q1926.95 84.8907 1923.95 87.3618 Q1920.95 89.8329 1915.93 89.8329 L1909.98 89.8329 L1909.98 83.5945 L1914.35 83.5945 Q1917.43 83.5945 1919.13 82.1361 Q1920.83 80.6778 1922.9 75.2496 L1924.24 71.8468 L1905.89 27.2059 L1913.78 27.2059 L1927.96 62.6918 L1942.14 27.2059 L1950.04 27.2059 L1930.11 76.7889 Z" fill="#000000" fill-rule="evenodd" fill-opacity="1" /><polyline clip-path="url(#clip753)" style="stroke:#e26f46; stroke-width:4; stroke-opacity:1; fill:none" stroke-dasharray="16, 10" points="
  433.303,2596.17 433.303,-1112.88 
  "/>
<path clip-path="url(#clip750)" d="
M1615.93 285.644 L2190.33 285.644 L2190.33 164.684 L1615.93 164.684  Z
  " fill="#ffffff" fill-rule="evenodd" fill-opacity="1"/>
<polyline clip-path="url(#clip750)" style="stroke:#000000; stroke-width:4; stroke-opacity:1; fill:none" points="
  1615.93,285.644 2190.33,285.644 2190.33,164.684 1615.93,164.684 1615.93,285.644 
  "/>
<polyline clip-path="url(#clip750)" style="stroke:#e26f46; stroke-width:4; stroke-opacity:1; fill:none" stroke-dasharray="16, 10" points="
  1638.07,225.164 1770.92,225.164 
  "/>
<path clip-path="url(#clip750)" d="M 0 0 M1809.57 206.425 L1809.57 209.967 L1805.49 209.967 Q1803.2 209.967 1802.3 210.893 Q1801.42 211.819 1801.42 214.226 L1801.42 216.518 L1808.43 216.518 L1808.43 219.828 L1801.42 219.828 L1801.42 242.444 L1797.14 242.444 L1797.14 219.828 L1793.06 219.828 L1793.06 216.518 L1797.14 216.518 L1797.14 214.712 Q1797.14 210.384 1799.15 208.416 Q1801.16 206.425 1805.54 206.425 L1809.57 206.425 Z" fill="#000000" fill-rule="evenodd" fill-opacity="1" /><path clip-path="url(#clip750)" d="M 0 0 M1828.15 220.499 Q1827.44 220.083 1826.58 219.898 Q1825.75 219.689 1824.73 219.689 Q1821.12 219.689 1819.17 222.05 Q1817.25 224.388 1817.25 228.786 L1817.25 242.444 L1812.97 242.444 L1812.97 216.518 L1817.25 216.518 L1817.25 220.546 Q1818.59 218.185 1820.75 217.05 Q1822.9 215.893 1825.98 215.893 Q1826.42 215.893 1826.95 215.962 Q1827.48 216.009 1828.13 216.124 L1828.15 220.499 Z" fill="#000000" fill-rule="evenodd" fill-opacity="1" /><path clip-path="url(#clip750)" d="M 0 0 M1853.76 228.416 L1853.76 230.499 L1834.17 230.499 Q1834.45 234.897 1836.81 237.212 Q1839.2 239.504 1843.43 239.504 Q1845.89 239.504 1848.18 238.902 Q1850.49 238.3 1852.76 237.097 L1852.76 241.124 Q1850.47 242.096 1848.06 242.606 Q1845.65 243.115 1843.18 243.115 Q1836.97 243.115 1833.34 239.504 Q1829.73 235.893 1829.73 229.735 Q1829.73 223.37 1833.15 219.643 Q1836.6 215.893 1842.44 215.893 Q1847.67 215.893 1850.7 219.273 Q1853.76 222.629 1853.76 228.416 M1849.5 227.166 Q1849.45 223.671 1847.53 221.587 Q1845.63 219.504 1842.48 219.504 Q1838.92 219.504 1836.77 221.518 Q1834.64 223.532 1834.31 227.189 L1849.5 227.166 Z" fill="#000000" fill-rule="evenodd" fill-opacity="1" /><path clip-path="url(#clip750)" d="M 0 0 M1863.29 229.504 Q1863.29 234.203 1865.21 236.888 Q1867.16 239.55 1870.54 239.55 Q1873.92 239.55 1875.86 236.888 Q1877.81 234.203 1877.81 229.504 Q1877.81 224.805 1875.86 222.143 Q1873.92 219.458 1870.54 219.458 Q1867.16 219.458 1865.21 222.143 Q1863.29 224.805 1863.29 229.504 M1877.81 238.555 Q1876.46 240.87 1874.4 242.004 Q1872.37 243.115 1869.5 243.115 Q1864.8 243.115 1861.84 239.365 Q1858.9 235.615 1858.9 229.504 Q1858.9 223.393 1861.84 219.643 Q1864.8 215.893 1869.5 215.893 Q1872.37 215.893 1874.4 217.027 Q1876.46 218.138 1877.81 220.453 L1877.81 216.518 L1882.07 216.518 L1882.07 252.305 L1877.81 252.305 L1877.81 238.555 Z" fill="#000000" fill-rule="evenodd" fill-opacity="1" /><path clip-path="url(#clip750)" d="M 0 0 M1890.4 232.212 L1890.4 216.518 L1894.66 216.518 L1894.66 232.05 Q1894.66 235.731 1896.09 237.583 Q1897.53 239.411 1900.4 239.411 Q1903.85 239.411 1905.84 237.212 Q1907.85 235.013 1907.85 231.217 L1907.85 216.518 L1912.11 216.518 L1912.11 242.444 L1907.85 242.444 L1907.85 238.462 Q1906.3 240.823 1904.24 241.981 Q1902.21 243.115 1899.5 243.115 Q1895.03 243.115 1892.71 240.337 Q1890.4 237.559 1890.4 232.212 M1901.12 215.893 L1901.12 215.893 Z" fill="#000000" fill-rule="evenodd" fill-opacity="1" /><path clip-path="url(#clip750)" d="M 0 0 M1943.06 228.416 L1943.06 230.499 L1923.48 230.499 Q1923.76 234.897 1926.12 237.212 Q1928.5 239.504 1932.74 239.504 Q1935.19 239.504 1937.48 238.902 Q1939.8 238.3 1942.07 237.097 L1942.07 241.124 Q1939.77 242.096 1937.37 242.606 Q1934.96 243.115 1932.48 243.115 Q1926.28 243.115 1922.65 239.504 Q1919.03 235.893 1919.03 229.735 Q1919.03 223.37 1922.46 219.643 Q1925.91 215.893 1931.74 215.893 Q1936.97 215.893 1940.01 219.273 Q1943.06 222.629 1943.06 228.416 M1938.8 227.166 Q1938.76 223.671 1936.83 221.587 Q1934.94 219.504 1931.79 219.504 Q1928.22 219.504 1926.07 221.518 Q1923.94 223.532 1923.62 227.189 L1938.8 227.166 Z" fill="#000000" fill-rule="evenodd" fill-opacity="1" /><path clip-path="url(#clip750)" d="M 0 0 M1971.6 226.796 L1971.6 242.444 L1967.34 242.444 L1967.34 226.935 Q1967.34 223.254 1965.91 221.425 Q1964.47 219.597 1961.6 219.597 Q1958.15 219.597 1956.16 221.796 Q1954.17 223.995 1954.17 227.791 L1954.17 242.444 L1949.89 242.444 L1949.89 216.518 L1954.17 216.518 L1954.17 220.546 Q1955.7 218.208 1957.76 217.05 Q1959.84 215.893 1962.55 215.893 Q1967.02 215.893 1969.31 218.671 Q1971.6 221.425 1971.6 226.796 Z" fill="#000000" fill-rule="evenodd" fill-opacity="1" /><path clip-path="url(#clip750)" d="M 0 0 M1998.76 217.513 L1998.76 221.495 Q1996.95 220.499 1995.12 220.013 Q1993.32 219.504 1991.46 219.504 Q1987.32 219.504 1985.03 222.143 Q1982.74 224.759 1982.74 229.504 Q1982.74 234.249 1985.03 236.888 Q1987.32 239.504 1991.46 239.504 Q1993.32 239.504 1995.12 239.018 Q1996.95 238.509 1998.76 237.513 L1998.76 241.448 Q1996.97 242.282 1995.05 242.698 Q1993.15 243.115 1991 243.115 Q1985.14 243.115 1981.7 239.434 Q1978.25 235.754 1978.25 229.504 Q1978.25 223.161 1981.72 219.527 Q1985.21 215.893 1991.28 215.893 Q1993.25 215.893 1995.12 216.31 Q1997 216.703 1998.76 217.513 Z" fill="#000000" fill-rule="evenodd" fill-opacity="1" /><path clip-path="url(#clip750)" d="M 0 0 M2016.95 244.851 Q2015.14 249.481 2013.43 250.893 Q2011.72 252.305 2008.85 252.305 L2005.45 252.305 L2005.45 248.74 L2007.95 248.74 Q2009.7 248.74 2010.68 247.907 Q2011.65 247.073 2012.83 243.971 L2013.59 242.027 L2003.11 216.518 L2007.62 216.518 L2015.72 236.796 L2023.83 216.518 L2028.34 216.518 L2016.95 244.851 Z" fill="#000000" fill-rule="evenodd" fill-opacity="1" /><path clip-path="url(#clip750)" d="M 0 0 M2065.82 217.282 L2065.82 221.31 Q2064.01 220.384 2062.07 219.921 Q2060.12 219.458 2058.04 219.458 Q2054.87 219.458 2053.27 220.43 Q2051.7 221.402 2051.7 223.347 Q2051.7 224.828 2052.83 225.685 Q2053.96 226.518 2057.39 227.282 L2058.85 227.606 Q2063.39 228.578 2065.28 230.36 Q2067.2 232.12 2067.2 235.291 Q2067.2 238.902 2064.33 241.009 Q2061.49 243.115 2056.49 243.115 Q2054.4 243.115 2052.14 242.698 Q2049.89 242.305 2047.39 241.495 L2047.39 237.097 Q2049.75 238.323 2052.04 238.948 Q2054.33 239.55 2056.58 239.55 Q2059.59 239.55 2061.21 238.532 Q2062.83 237.49 2062.83 235.615 Q2062.83 233.879 2061.65 232.953 Q2060.49 232.027 2056.53 231.171 L2055.05 230.823 Q2051.09 229.99 2049.33 228.277 Q2047.58 226.541 2047.58 223.532 Q2047.58 219.874 2050.17 217.884 Q2052.76 215.893 2057.53 215.893 Q2059.89 215.893 2061.97 216.24 Q2064.06 216.587 2065.82 217.282 Z" fill="#000000" fill-rule="evenodd" fill-opacity="1" /><path clip-path="url(#clip750)" d="M 0 0 M2095.54 226.796 L2095.54 242.444 L2091.28 242.444 L2091.28 226.935 Q2091.28 223.254 2089.84 221.425 Q2088.41 219.597 2085.54 219.597 Q2082.09 219.597 2080.1 221.796 Q2078.11 223.995 2078.11 227.791 L2078.11 242.444 L2073.82 242.444 L2073.82 206.425 L2078.11 206.425 L2078.11 220.546 Q2079.64 218.208 2081.7 217.05 Q2083.78 215.893 2086.49 215.893 Q2090.95 215.893 2093.25 218.671 Q2095.54 221.425 2095.54 226.796 Z" fill="#000000" fill-rule="evenodd" fill-opacity="1" /><path clip-path="url(#clip750)" d="M 0 0 M2104.03 216.518 L2108.29 216.518 L2108.29 242.444 L2104.03 242.444 L2104.03 216.518 M2104.03 206.425 L2108.29 206.425 L2108.29 211.819 L2104.03 211.819 L2104.03 206.425 Z" fill="#000000" fill-rule="evenodd" fill-opacity="1" /><path clip-path="url(#clip750)" d="M 0 0 M2130.33 206.425 L2130.33 209.967 L2126.26 209.967 Q2123.96 209.967 2123.06 210.893 Q2122.18 211.819 2122.18 214.226 L2122.18 216.518 L2129.2 216.518 L2129.2 219.828 L2122.18 219.828 L2122.18 242.444 L2117.9 242.444 L2117.9 219.828 L2113.82 219.828 L2113.82 216.518 L2117.9 216.518 L2117.9 214.712 Q2117.9 210.384 2119.91 208.416 Q2121.93 206.425 2126.3 206.425 L2130.33 206.425 Z" fill="#000000" fill-rule="evenodd" fill-opacity="1" /><path clip-path="url(#clip750)" d="M 0 0 M2137.27 209.157 L2137.27 216.518 L2146.05 216.518 L2146.05 219.828 L2137.27 219.828 L2137.27 233.902 Q2137.27 237.073 2138.13 237.976 Q2139.01 238.879 2141.67 238.879 L2146.05 238.879 L2146.05 242.444 L2141.67 242.444 Q2136.74 242.444 2134.87 240.615 Q2132.99 238.763 2132.99 233.902 L2132.99 219.828 L2129.87 219.828 L2129.87 216.518 L2132.99 216.518 L2132.99 209.157 L2137.27 209.157 Z" fill="#000000" fill-rule="evenodd" fill-opacity="1" /></svg>
