<?xml version="1.0" encoding="utf-8"?>
<svg xmlns="http://www.w3.org/2000/svg" xmlns:xlink="http://www.w3.org/1999/xlink" width="576" height="384" viewBox="0 0 2304 1536">
<defs>
  <clipPath id="clip030">
    <rect x="0" y="0" width="2304" height="1536"/>
  </clipPath>
</defs>
<path clip-path="url(#clip030)" d="
M0 1536 L2304 1536 L2304 0 L0 0  Z
  " fill="#ffffff" fill-rule="evenodd" fill-opacity="1"/>
<defs>
  <clipPath id="clip031">
    <rect x="460" y="0" width="1614" height="1536"/>
  </clipPath>
</defs>
<defs>
  <clipPath id="clip032">
    <rect x="310" y="123" width="1947" height="1241"/>
  </clipPath>
</defs>
<path clip-path="url(#clip030)" d="
M216.677 1359.82 L2256.76 1359.82 L2256.76 123.472 L216.677 123.472  Z
  " fill="#ffffff" fill-rule="evenodd" fill-opacity="1"/>
<defs>
  <clipPath id="clip033">
    <rect x="216" y="123" width="2041" height="1237"/>
  </clipPath>
</defs>
<polyline clip-path="url(#clip033)" style="stroke:#000000; stroke-width:2; stroke-opacity:0.1; fill:none" points="
  274.415,1359.82 274.415,123.472 
  "/>
<polyline clip-path="url(#clip033)" style="stroke:#000000; stroke-width:2; stroke-opacity:0.1; fill:none" points="
  659.725,1359.82 659.725,123.472 
  "/>
<polyline clip-path="url(#clip033)" style="stroke:#000000; stroke-width:2; stroke-opacity:0.1; fill:none" points="
  1045.04,1359.82 1045.04,123.472 
  "/>
<polyline clip-path="url(#clip033)" style="stroke:#000000; stroke-width:2; stroke-opacity:0.1; fill:none" points="
  1430.35,1359.82 1430.35,123.472 
  "/>
<polyline clip-path="url(#clip033)" style="stroke:#000000; stroke-width:2; stroke-opacity:0.1; fill:none" points="
  1815.66,1359.82 1815.66,123.472 
  "/>
<polyline clip-path="url(#clip033)" style="stroke:#000000; stroke-width:2; stroke-opacity:0.1; fill:none" points="
  2200.97,1359.82 2200.97,123.472 
  "/>
<polyline clip-path="url(#clip030)" style="stroke:#000000; stroke-width:4; stroke-opacity:1; fill:none" points="
  216.677,1359.82 2256.76,1359.82 
  "/>
<polyline clip-path="url(#clip030)" style="stroke:#000000; stroke-width:4; stroke-opacity:1; fill:none" points="
  274.415,1359.82 274.415,1344.98 
  "/>
<polyline clip-path="url(#clip030)" style="stroke:#000000; stroke-width:4; stroke-opacity:1; fill:none" points="
  659.725,1359.82 659.725,1344.98 
  "/>
<polyline clip-path="url(#clip030)" style="stroke:#000000; stroke-width:4; stroke-opacity:1; fill:none" points="
  1045.04,1359.82 1045.04,1344.98 
  "/>
<polyline clip-path="url(#clip030)" style="stroke:#000000; stroke-width:4; stroke-opacity:1; fill:none" points="
  1430.35,1359.82 1430.35,1344.98 
  "/>
<polyline clip-path="url(#clip030)" style="stroke:#000000; stroke-width:4; stroke-opacity:1; fill:none" points="
  1815.66,1359.82 1815.66,1344.98 
  "/>
<polyline clip-path="url(#clip030)" style="stroke:#000000; stroke-width:4; stroke-opacity:1; fill:none" points="
  2200.97,1359.82 2200.97,1344.98 
  "/>
<path clip-path="url(#clip030)" d="M 0 0 M274.415 1388.24 Q270.804 1388.24 268.975 1391.81 Q267.17 1395.35 267.17 1402.48 Q267.17 1409.59 268.975 1413.15 Q270.804 1416.69 274.415 1416.69 Q278.05 1416.69 279.855 1413.15 Q281.684 1409.59 281.684 1402.48 Q281.684 1395.35 279.855 1391.81 Q278.05 1388.24 274.415 1388.24 M274.415 1384.54 Q280.225 1384.54 283.281 1389.15 Q286.36 1393.73 286.36 1402.48 Q286.36 1411.21 283.281 1415.81 Q280.225 1420.4 274.415 1420.4 Q268.605 1420.4 265.526 1415.81 Q262.471 1411.21 262.471 1402.48 Q262.471 1393.73 265.526 1389.15 Q268.605 1384.54 274.415 1384.54 Z" fill="#000000" fill-rule="evenodd" fill-opacity="1" /><path clip-path="url(#clip030)" d="M 0 0 M634.413 1415.79 L642.052 1415.79 L642.052 1389.42 L633.742 1391.09 L633.742 1386.83 L642.006 1385.16 L646.681 1385.16 L646.681 1415.79 L654.32 1415.79 L654.32 1419.72 L634.413 1419.72 L634.413 1415.79 Z" fill="#000000" fill-rule="evenodd" fill-opacity="1" /><path clip-path="url(#clip030)" d="M 0 0 M673.765 1388.24 Q670.154 1388.24 668.325 1391.81 Q666.519 1395.35 666.519 1402.48 Q666.519 1409.59 668.325 1413.15 Q670.154 1416.69 673.765 1416.69 Q677.399 1416.69 679.204 1413.15 Q681.033 1409.59 681.033 1402.48 Q681.033 1395.35 679.204 1391.81 Q677.399 1388.24 673.765 1388.24 M673.765 1384.54 Q679.575 1384.54 682.63 1389.15 Q685.709 1393.73 685.709 1402.48 Q685.709 1411.21 682.63 1415.81 Q679.575 1420.4 673.765 1420.4 Q667.955 1420.4 664.876 1415.81 Q661.82 1411.21 661.82 1402.48 Q661.82 1393.73 664.876 1389.15 Q667.955 1384.54 673.765 1384.54 Z" fill="#000000" fill-rule="evenodd" fill-opacity="1" /><path clip-path="url(#clip030)" d="M 0 0 M1023.81 1415.79 L1040.13 1415.79 L1040.13 1419.72 L1018.18 1419.72 L1018.18 1415.79 Q1020.85 1413.03 1025.43 1408.4 Q1030.04 1403.75 1031.22 1402.41 Q1033.46 1399.89 1034.34 1398.15 Q1035.24 1396.39 1035.24 1394.7 Q1035.24 1391.95 1033.3 1390.21 Q1031.38 1388.47 1028.28 1388.47 Q1026.08 1388.47 1023.62 1389.24 Q1021.19 1390 1018.42 1391.55 L1018.42 1386.83 Q1021.24 1385.7 1023.69 1385.12 Q1026.15 1384.54 1028.18 1384.54 Q1033.55 1384.54 1036.75 1387.22 Q1039.94 1389.91 1039.94 1394.4 Q1039.94 1396.53 1039.13 1398.45 Q1038.35 1400.35 1036.24 1402.94 Q1035.66 1403.61 1032.56 1406.83 Q1029.46 1410.02 1023.81 1415.79 Z" fill="#000000" fill-rule="evenodd" fill-opacity="1" /><path clip-path="url(#clip030)" d="M 0 0 M1059.94 1388.24 Q1056.33 1388.24 1054.5 1391.81 Q1052.7 1395.35 1052.7 1402.48 Q1052.7 1409.59 1054.5 1413.15 Q1056.33 1416.69 1059.94 1416.69 Q1063.58 1416.69 1065.38 1413.15 Q1067.21 1409.59 1067.21 1402.48 Q1067.21 1395.35 1065.38 1391.81 Q1063.58 1388.24 1059.94 1388.24 M1059.94 1384.54 Q1065.75 1384.54 1068.81 1389.15 Q1071.89 1393.73 1071.89 1402.48 Q1071.89 1411.21 1068.81 1415.81 Q1065.75 1420.4 1059.94 1420.4 Q1054.13 1420.4 1051.05 1415.81 Q1048 1411.21 1048 1402.48 Q1048 1393.73 1051.05 1389.15 Q1054.13 1384.54 1059.94 1384.54 Z" fill="#000000" fill-rule="evenodd" fill-opacity="1" /><path clip-path="url(#clip030)" d="M 0 0 M1419.19 1401.09 Q1422.54 1401.81 1424.42 1404.08 Q1426.32 1406.34 1426.32 1409.68 Q1426.32 1414.79 1422.8 1417.59 Q1419.28 1420.4 1412.8 1420.4 Q1410.62 1420.4 1408.31 1419.96 Q1406.02 1419.54 1403.56 1418.68 L1403.56 1414.17 Q1405.51 1415.3 1407.82 1415.88 Q1410.14 1416.46 1412.66 1416.46 Q1417.06 1416.46 1419.35 1414.72 Q1421.67 1412.99 1421.67 1409.68 Q1421.67 1406.62 1419.51 1404.91 Q1417.38 1403.17 1413.56 1403.17 L1409.54 1403.17 L1409.54 1399.33 L1413.75 1399.33 Q1417.2 1399.33 1419.03 1397.96 Q1420.85 1396.58 1420.85 1393.98 Q1420.85 1391.32 1418.96 1389.91 Q1417.08 1388.47 1413.56 1388.47 Q1411.64 1388.47 1409.44 1388.89 Q1407.24 1389.31 1404.6 1390.19 L1404.6 1386.02 Q1407.27 1385.28 1409.58 1384.91 Q1411.92 1384.54 1413.98 1384.54 Q1419.3 1384.54 1422.41 1386.97 Q1425.51 1389.38 1425.51 1393.5 Q1425.51 1396.37 1423.86 1398.36 Q1422.22 1400.33 1419.19 1401.09 Z" fill="#000000" fill-rule="evenodd" fill-opacity="1" /><path clip-path="url(#clip030)" d="M 0 0 M1445.18 1388.24 Q1441.57 1388.24 1439.74 1391.81 Q1437.94 1395.35 1437.94 1402.48 Q1437.94 1409.59 1439.74 1413.15 Q1441.57 1416.69 1445.18 1416.69 Q1448.82 1416.69 1450.62 1413.15 Q1452.45 1409.59 1452.45 1402.48 Q1452.45 1395.35 1450.62 1391.81 Q1448.82 1388.24 1445.18 1388.24 M1445.18 1384.54 Q1450.99 1384.54 1454.05 1389.15 Q1457.13 1393.73 1457.13 1402.48 Q1457.13 1411.21 1454.05 1415.81 Q1450.99 1420.4 1445.18 1420.4 Q1439.37 1420.4 1436.29 1415.81 Q1433.24 1411.21 1433.24 1402.48 Q1433.24 1393.73 1436.29 1389.15 Q1439.37 1384.54 1445.18 1384.54 Z" fill="#000000" fill-rule="evenodd" fill-opacity="1" /><path clip-path="url(#clip030)" d="M 0 0 M1803.83 1389.24 L1792.02 1407.69 L1803.83 1407.69 L1803.83 1389.24 M1802.6 1385.16 L1808.48 1385.16 L1808.48 1407.69 L1813.41 1407.69 L1813.41 1411.58 L1808.48 1411.58 L1808.48 1419.72 L1803.83 1419.72 L1803.83 1411.58 L1788.23 1411.58 L1788.23 1407.06 L1802.6 1385.16 Z" fill="#000000" fill-rule="evenodd" fill-opacity="1" /><path clip-path="url(#clip030)" d="M 0 0 M1831.14 1388.24 Q1827.53 1388.24 1825.7 1391.81 Q1823.9 1395.35 1823.9 1402.48 Q1823.9 1409.59 1825.7 1413.15 Q1827.53 1416.69 1831.14 1416.69 Q1834.78 1416.69 1836.58 1413.15 Q1838.41 1409.59 1838.41 1402.48 Q1838.41 1395.35 1836.58 1391.81 Q1834.78 1388.24 1831.14 1388.24 M1831.14 1384.54 Q1836.95 1384.54 1840.01 1389.15 Q1843.09 1393.73 1843.09 1402.48 Q1843.09 1411.21 1840.01 1415.81 Q1836.95 1420.4 1831.14 1420.4 Q1825.33 1420.4 1822.25 1415.81 Q1819.2 1411.21 1819.2 1402.48 Q1819.2 1393.73 1822.25 1389.15 Q1825.33 1384.54 1831.14 1384.54 Z" fill="#000000" fill-rule="evenodd" fill-opacity="1" /><path clip-path="url(#clip030)" d="M 0 0 M2175.67 1385.16 L2194.02 1385.16 L2194.02 1389.1 L2179.95 1389.1 L2179.95 1397.57 Q2180.97 1397.22 2181.98 1397.06 Q2183 1396.88 2184.02 1396.88 Q2189.81 1396.88 2193.19 1400.05 Q2196.57 1403.22 2196.57 1408.64 Q2196.57 1414.21 2193.1 1417.32 Q2189.62 1420.4 2183.3 1420.4 Q2181.13 1420.4 2178.86 1420.02 Q2176.61 1419.65 2174.21 1418.91 L2174.21 1414.21 Q2176.29 1415.35 2178.51 1415.9 Q2180.73 1416.46 2183.21 1416.46 Q2187.22 1416.46 2189.55 1414.35 Q2191.89 1412.25 2191.89 1408.64 Q2191.89 1405.02 2189.55 1402.92 Q2187.22 1400.81 2183.21 1400.81 Q2181.34 1400.81 2179.46 1401.23 Q2177.61 1401.65 2175.67 1402.52 L2175.67 1385.16 Z" fill="#000000" fill-rule="evenodd" fill-opacity="1" /><path clip-path="url(#clip030)" d="M 0 0 M2215.78 1388.24 Q2212.17 1388.24 2210.34 1391.81 Q2208.54 1395.35 2208.54 1402.48 Q2208.54 1409.59 2210.34 1413.15 Q2212.17 1416.69 2215.78 1416.69 Q2219.41 1416.69 2221.22 1413.15 Q2223.05 1409.59 2223.05 1402.48 Q2223.05 1395.35 2221.22 1391.81 Q2219.41 1388.24 2215.78 1388.24 M2215.78 1384.54 Q2221.59 1384.54 2224.65 1389.15 Q2227.72 1393.73 2227.72 1402.48 Q2227.72 1411.21 2224.65 1415.81 Q2221.59 1420.4 2215.78 1420.4 Q2209.97 1420.4 2206.89 1415.81 Q2203.84 1411.21 2203.84 1402.48 Q2203.84 1393.73 2206.89 1389.15 Q2209.97 1384.54 2215.78 1384.54 Z" fill="#000000" fill-rule="evenodd" fill-opacity="1" /><path clip-path="url(#clip030)" d="M 0 0 M996.825 1453.72 L996.825 1458.59 L991.223 1458.59 Q988.072 1458.59 986.831 1459.86 Q985.621 1461.13 985.621 1464.44 L985.621 1467.6 L995.265 1467.6 L995.265 1472.15 L985.621 1472.15 L985.621 1503.24 L979.733 1503.24 L979.733 1472.15 L974.131 1472.15 L974.131 1467.6 L979.733 1467.6 L979.733 1465.11 Q979.733 1459.16 982.502 1456.46 Q985.271 1453.72 991.287 1453.72 L996.825 1453.72 Z" fill="#000000" fill-rule="evenodd" fill-opacity="1" /><path clip-path="url(#clip030)" d="M 0 0 M1022.38 1473.07 Q1021.4 1472.5 1020.22 1472.24 Q1019.07 1471.96 1017.67 1471.96 Q1012.71 1471.96 1010.03 1475.2 Q1007.39 1478.42 1007.39 1484.47 L1007.39 1503.24 L1001.5 1503.24 L1001.5 1467.6 L1007.39 1467.6 L1007.39 1473.13 Q1009.24 1469.89 1012.2 1468.33 Q1015.16 1466.74 1019.39 1466.74 Q1020 1466.74 1020.73 1466.83 Q1021.46 1466.9 1022.35 1467.05 L1022.38 1473.07 Z" fill="#000000" fill-rule="evenodd" fill-opacity="1" /><path clip-path="url(#clip030)" d="M 0 0 M1057.59 1483.96 L1057.59 1486.82 L1030.66 1486.82 Q1031.04 1492.87 1034.29 1496.05 Q1037.57 1499.2 1043.39 1499.2 Q1046.76 1499.2 1049.91 1498.37 Q1053.1 1497.55 1056.22 1495.89 L1056.22 1501.43 Q1053.07 1502.77 1049.76 1503.47 Q1046.45 1504.17 1043.04 1504.17 Q1034.51 1504.17 1029.51 1499.2 Q1024.55 1494.24 1024.55 1485.77 Q1024.55 1477.02 1029.26 1471.89 Q1034 1466.74 1042.02 1466.74 Q1049.21 1466.74 1053.38 1471.38 Q1057.59 1476 1057.59 1483.96 M1051.73 1482.24 Q1051.67 1477.43 1049.02 1474.57 Q1046.41 1471.7 1042.09 1471.7 Q1037.18 1471.7 1034.22 1474.47 Q1031.3 1477.24 1030.85 1482.27 L1051.73 1482.24 Z" fill="#000000" fill-rule="evenodd" fill-opacity="1" /><path clip-path="url(#clip030)" d="M 0 0 M1070.7 1485.45 Q1070.7 1491.91 1073.34 1495.6 Q1076.01 1499.27 1080.66 1499.27 Q1085.31 1499.27 1087.98 1495.6 Q1090.66 1491.91 1090.66 1485.45 Q1090.66 1478.99 1087.98 1475.33 Q1085.31 1471.64 1080.66 1471.64 Q1076.01 1471.64 1073.34 1475.33 Q1070.7 1478.99 1070.7 1485.45 M1090.66 1497.9 Q1088.81 1501.08 1085.98 1502.64 Q1083.18 1504.17 1079.23 1504.17 Q1072.77 1504.17 1068.69 1499.01 Q1064.65 1493.85 1064.65 1485.45 Q1064.65 1477.05 1068.69 1471.89 Q1072.77 1466.74 1079.23 1466.74 Q1083.18 1466.74 1085.98 1468.3 Q1088.81 1469.82 1090.66 1473.01 L1090.66 1467.6 L1096.51 1467.6 L1096.51 1516.8 L1090.66 1516.8 L1090.66 1497.9 Z" fill="#000000" fill-rule="evenodd" fill-opacity="1" /><path clip-path="url(#clip030)" d="M 0 0 M1107.97 1489.18 L1107.97 1467.6 L1113.83 1467.6 L1113.83 1488.95 Q1113.83 1494.01 1115.8 1496.56 Q1117.77 1499.07 1121.72 1499.07 Q1126.46 1499.07 1129.2 1496.05 Q1131.97 1493.03 1131.97 1487.81 L1131.97 1467.6 L1137.83 1467.6 L1137.83 1503.24 L1131.97 1503.24 L1131.97 1497.77 Q1129.84 1501.02 1127 1502.61 Q1124.2 1504.17 1120.48 1504.17 Q1114.34 1504.17 1111.15 1500.35 Q1107.97 1496.53 1107.97 1489.18 M1122.71 1466.74 L1122.71 1466.74 Z" fill="#000000" fill-rule="evenodd" fill-opacity="1" /><path clip-path="url(#clip030)" d="M 0 0 M1180.38 1483.96 L1180.38 1486.82 L1153.45 1486.82 Q1153.84 1492.87 1157.08 1496.05 Q1160.36 1499.2 1166.18 1499.2 Q1169.56 1499.2 1172.71 1498.37 Q1175.89 1497.55 1179.01 1495.89 L1179.01 1501.43 Q1175.86 1502.77 1172.55 1503.47 Q1169.24 1504.17 1165.83 1504.17 Q1157.3 1504.17 1152.31 1499.2 Q1147.34 1494.24 1147.34 1485.77 Q1147.34 1477.02 1152.05 1471.89 Q1156.8 1466.74 1164.82 1466.74 Q1172.01 1466.74 1176.18 1471.38 Q1180.38 1476 1180.38 1483.96 M1174.52 1482.24 Q1174.46 1477.43 1171.82 1474.57 Q1169.21 1471.7 1164.88 1471.7 Q1159.98 1471.7 1157.02 1474.47 Q1154.09 1477.24 1153.64 1482.27 L1174.52 1482.24 Z" fill="#000000" fill-rule="evenodd" fill-opacity="1" /><path clip-path="url(#clip030)" d="M 0 0 M1219.62 1481.73 L1219.62 1503.24 L1213.77 1503.24 L1213.77 1481.92 Q1213.77 1476.86 1211.79 1474.34 Q1209.82 1471.83 1205.87 1471.83 Q1201.13 1471.83 1198.4 1474.85 Q1195.66 1477.88 1195.66 1483.1 L1195.66 1503.24 L1189.77 1503.24 L1189.77 1467.6 L1195.66 1467.6 L1195.66 1473.13 Q1197.76 1469.92 1200.59 1468.33 Q1203.46 1466.74 1207.18 1466.74 Q1213.32 1466.74 1216.47 1470.56 Q1219.62 1474.34 1219.62 1481.73 Z" fill="#000000" fill-rule="evenodd" fill-opacity="1" /><path clip-path="url(#clip030)" d="M 0 0 M1256.96 1468.96 L1256.96 1474.44 Q1254.48 1473.07 1251.96 1472.4 Q1249.48 1471.7 1246.93 1471.7 Q1241.24 1471.7 1238.09 1475.33 Q1234.93 1478.93 1234.93 1485.45 Q1234.93 1491.98 1238.09 1495.6 Q1241.24 1499.2 1246.93 1499.2 Q1249.48 1499.2 1251.96 1498.53 Q1254.48 1497.83 1256.96 1496.46 L1256.96 1501.88 Q1254.51 1503.02 1251.87 1503.59 Q1249.26 1504.17 1246.3 1504.17 Q1238.24 1504.17 1233.5 1499.11 Q1228.76 1494.05 1228.76 1485.45 Q1228.76 1476.73 1233.53 1471.73 Q1238.34 1466.74 1246.68 1466.74 Q1249.38 1466.74 1251.96 1467.31 Q1254.54 1467.85 1256.96 1468.96 Z" fill="#000000" fill-rule="evenodd" fill-opacity="1" /><path clip-path="url(#clip030)" d="M 0 0 M1281.98 1506.55 Q1279.49 1512.92 1277.14 1514.86 Q1274.78 1516.8 1270.84 1516.8 L1266.16 1516.8 L1266.16 1511.9 L1269.6 1511.9 Q1272.01 1511.9 1273.35 1510.76 Q1274.69 1509.61 1276.31 1505.34 L1277.36 1502.67 L1262.94 1467.6 L1269.15 1467.6 L1280.29 1495.48 L1291.43 1467.6 L1297.64 1467.6 L1281.98 1506.55 Z" fill="#000000" fill-rule="evenodd" fill-opacity="1" /><path clip-path="url(#clip030)" d="M 0 0 M1340.51 1453.78 Q1336.24 1461.1 1334.18 1468.26 Q1332.11 1475.43 1332.11 1482.78 Q1332.11 1490.13 1334.18 1497.36 Q1336.28 1504.55 1340.51 1511.84 L1335.42 1511.84 Q1330.64 1504.36 1328.26 1497.13 Q1325.9 1489.91 1325.9 1482.78 Q1325.9 1475.68 1328.26 1468.49 Q1330.61 1461.29 1335.42 1453.78 L1340.51 1453.78 Z" fill="#000000" fill-rule="evenodd" fill-opacity="1" /><path clip-path="url(#clip030)" d="M 0 0 M1384.53 1496.46 L1384.53 1483.7 L1374.02 1483.7 L1374.02 1478.42 L1390.89 1478.42 L1390.89 1498.82 Q1387.17 1501.46 1382.68 1502.83 Q1378.19 1504.17 1373.1 1504.17 Q1361.96 1504.17 1355.66 1497.67 Q1349.39 1491.15 1349.39 1479.53 Q1349.39 1467.88 1355.66 1461.39 Q1361.96 1454.86 1373.1 1454.86 Q1377.75 1454.86 1381.92 1456.01 Q1386.12 1457.16 1389.65 1459.38 L1389.65 1466.23 Q1386.09 1463.2 1382.08 1461.68 Q1378.07 1460.15 1373.64 1460.15 Q1364.92 1460.15 1360.53 1465.02 Q1356.17 1469.89 1356.17 1479.53 Q1356.17 1489.14 1360.53 1494.01 Q1364.92 1498.88 1373.64 1498.88 Q1377.05 1498.88 1379.72 1498.31 Q1382.4 1497.71 1384.53 1496.46 Z" fill="#000000" fill-rule="evenodd" fill-opacity="1" /><path clip-path="url(#clip030)" d="M 0 0 M1402.64 1455.72 L1409.07 1455.72 L1409.07 1475.2 L1432.43 1475.2 L1432.43 1455.72 L1438.86 1455.72 L1438.86 1503.24 L1432.43 1503.24 L1432.43 1480.61 L1409.07 1480.61 L1409.07 1503.24 L1402.64 1503.24 L1402.64 1455.72 Z" fill="#000000" fill-rule="evenodd" fill-opacity="1" /><path clip-path="url(#clip030)" d="M 0 0 M1448.85 1467.6 L1476.67 1467.6 L1476.67 1472.94 L1454.65 1498.57 L1476.67 1498.57 L1476.67 1503.24 L1448.06 1503.24 L1448.06 1497.9 L1470.08 1472.27 L1448.85 1472.27 L1448.85 1467.6 Z" fill="#000000" fill-rule="evenodd" fill-opacity="1" /><path clip-path="url(#clip030)" d="M 0 0 M1484.69 1453.78 L1489.79 1453.78 Q1494.56 1461.29 1496.91 1468.49 Q1499.3 1475.68 1499.3 1482.78 Q1499.3 1489.91 1496.91 1497.13 Q1494.56 1504.36 1489.79 1511.84 L1484.69 1511.84 Q1488.93 1504.55 1490.99 1497.36 Q1493.1 1490.13 1493.1 1482.78 Q1493.1 1475.43 1490.99 1468.26 Q1488.93 1461.1 1484.69 1453.78 Z" fill="#000000" fill-rule="evenodd" fill-opacity="1" /><polyline clip-path="url(#clip033)" style="stroke:#000000; stroke-width:2; stroke-opacity:0.1; fill:none" points="
  216.677,1324.83 2256.76,1324.83 
  "/>
<polyline clip-path="url(#clip033)" style="stroke:#000000; stroke-width:2; stroke-opacity:0.1; fill:none" points="
  216.677,1007.02 2256.76,1007.02 
  "/>
<polyline clip-path="url(#clip033)" style="stroke:#000000; stroke-width:2; stroke-opacity:0.1; fill:none" points="
  216.677,689.202 2256.76,689.202 
  "/>
<polyline clip-path="url(#clip033)" style="stroke:#000000; stroke-width:2; stroke-opacity:0.1; fill:none" points="
  216.677,371.389 2256.76,371.389 
  "/>
<polyline clip-path="url(#clip030)" style="stroke:#000000; stroke-width:4; stroke-opacity:1; fill:none" points="
  216.677,1359.82 216.677,123.472 
  "/>
<polyline clip-path="url(#clip030)" style="stroke:#000000; stroke-width:4; stroke-opacity:1; fill:none" points="
  216.677,1324.83 241.158,1324.83 
  "/>
<polyline clip-path="url(#clip030)" style="stroke:#000000; stroke-width:4; stroke-opacity:1; fill:none" points="
  216.677,1007.02 241.158,1007.02 
  "/>
<polyline clip-path="url(#clip030)" style="stroke:#000000; stroke-width:4; stroke-opacity:1; fill:none" points="
  216.677,689.202 241.158,689.202 
  "/>
<polyline clip-path="url(#clip030)" style="stroke:#000000; stroke-width:4; stroke-opacity:1; fill:none" points="
  216.677,371.389 241.158,371.389 
  "/>
<path clip-path="url(#clip030)" d="M 0 0 M170.173 1310.63 Q166.562 1310.63 164.733 1314.19 Q162.927 1317.73 162.927 1324.86 Q162.927 1331.97 164.733 1335.53 Q166.562 1339.08 170.173 1339.08 Q173.807 1339.08 175.613 1335.53 Q177.441 1331.97 177.441 1324.86 Q177.441 1317.73 175.613 1314.19 Q173.807 1310.63 170.173 1310.63 M170.173 1306.92 Q175.983 1306.92 179.039 1311.53 Q182.117 1316.11 182.117 1324.86 Q182.117 1333.59 179.039 1338.2 Q175.983 1342.78 170.173 1342.78 Q164.363 1342.78 161.284 1338.2 Q158.228 1333.59 158.228 1324.86 Q158.228 1316.11 161.284 1311.53 Q164.363 1306.92 170.173 1306.92 Z" fill="#000000" fill-rule="evenodd" fill-opacity="1" /><path clip-path="url(#clip030)" d="M 0 0 M161.215 989.736 L179.571 989.736 L179.571 993.671 L165.497 993.671 L165.497 1002.14 Q166.515 1001.8 167.534 1001.63 Q168.552 1001.45 169.571 1001.45 Q175.358 1001.45 178.738 1004.62 Q182.117 1007.79 182.117 1013.21 Q182.117 1018.79 178.645 1021.89 Q175.173 1024.97 168.853 1024.97 Q166.677 1024.97 164.409 1024.6 Q162.164 1024.23 159.756 1023.49 L159.756 1018.79 Q161.84 1019.92 164.062 1020.48 Q166.284 1021.03 168.761 1021.03 Q172.765 1021.03 175.103 1018.93 Q177.441 1016.82 177.441 1013.21 Q177.441 1009.6 175.103 1007.49 Q172.765 1005.38 168.761 1005.38 Q166.886 1005.38 165.011 1005.8 Q163.159 1006.22 161.215 1007.1 L161.215 989.736 Z" fill="#000000" fill-rule="evenodd" fill-opacity="1" /><path clip-path="url(#clip030)" d="M 0 0 M130.821 702.547 L138.46 702.547 L138.46 676.181 L130.15 677.848 L130.15 673.589 L138.414 671.922 L143.09 671.922 L143.09 702.547 L150.728 702.547 L150.728 706.482 L130.821 706.482 L130.821 702.547 Z" fill="#000000" fill-rule="evenodd" fill-opacity="1" /><path clip-path="url(#clip030)" d="M 0 0 M170.173 675.001 Q166.562 675.001 164.733 678.566 Q162.927 682.107 162.927 689.237 Q162.927 696.343 164.733 699.908 Q166.562 703.45 170.173 703.45 Q173.807 703.45 175.613 699.908 Q177.441 696.343 177.441 689.237 Q177.441 682.107 175.613 678.566 Q173.807 675.001 170.173 675.001 M170.173 671.297 Q175.983 671.297 179.039 675.904 Q182.117 680.487 182.117 689.237 Q182.117 697.964 179.039 702.57 Q175.983 707.153 170.173 707.153 Q164.363 707.153 161.284 702.57 Q158.228 697.964 158.228 689.237 Q158.228 680.487 161.284 675.904 Q164.363 671.297 170.173 671.297 Z" fill="#000000" fill-rule="evenodd" fill-opacity="1" /><path clip-path="url(#clip030)" d="M 0 0 M131.817 384.734 L139.455 384.734 L139.455 358.368 L131.145 360.035 L131.145 355.775 L139.409 354.109 L144.085 354.109 L144.085 384.734 L151.724 384.734 L151.724 388.669 L131.817 388.669 L131.817 384.734 Z" fill="#000000" fill-rule="evenodd" fill-opacity="1" /><path clip-path="url(#clip030)" d="M 0 0 M161.215 354.109 L179.571 354.109 L179.571 358.044 L165.497 358.044 L165.497 366.516 Q166.515 366.169 167.534 366.007 Q168.552 365.822 169.571 365.822 Q175.358 365.822 178.738 368.993 Q182.117 372.164 182.117 377.581 Q182.117 383.16 178.645 386.261 Q175.173 389.34 168.853 389.34 Q166.677 389.34 164.409 388.97 Q162.164 388.599 159.756 387.859 L159.756 383.16 Q161.84 384.294 164.062 384.849 Q166.284 385.405 168.761 385.405 Q172.765 385.405 175.103 383.298 Q177.441 381.192 177.441 377.581 Q177.441 373.97 175.103 371.863 Q172.765 369.757 168.761 369.757 Q166.886 369.757 165.011 370.174 Q163.159 370.59 161.215 371.47 L161.215 354.109 Z" fill="#000000" fill-rule="evenodd" fill-opacity="1" /><path clip-path="url(#clip030)" d="M 0 0 M51.61 806.247 L52.5343 806.81 Q51.0239 810.305 48.6117 814.656 Q51.0239 819.007 52.5343 822.501 L51.61 823.042 Q48.296 819.232 45.7486 814.656 Q48.3186 810.034 51.61 806.247 Z" fill="#000000" fill-rule="evenodd" fill-opacity="1" /><path clip-path="url(#clip030)" d="M 0 0 M62.6398 803.737 Q62.672 803.737 63.8314 803.931 L93.1066 811.274 Q94.6524 811.66 96.1983 812.755 Q97.7764 813.818 99.129 815.525 Q100.514 817.199 101.351 819.776 Q102.221 822.32 102.221 825.251 Q102.221 829.921 101.222 831.982 Q100.256 834.011 98.1951 834.011 Q96.3916 834.011 95.361 832.884 Q94.3626 831.757 94.3626 830.468 Q94.3626 829.244 95.0711 828.6 Q95.7796 827.956 96.6814 827.956 Q97.6798 827.956 98.6782 828.633 Q99.7088 829.309 100.095 830.662 Q100.772 828.504 100.772 825.38 Q100.772 818.778 93.7829 815.943 Q93.6863 815.879 93.6541 815.879 L84.9263 813.689 L84.8619 813.786 Q85.506 814.333 86.2467 815.203 Q86.9552 816.04 87.8248 817.844 Q88.6944 819.647 88.6944 821.418 Q88.6944 825.122 85.8602 827.666 Q82.9939 830.178 78.2597 830.178 Q74.8136 830.178 71.3676 828.794 Q67.8894 827.377 65.3451 825.187 Q62.7686 822.964 61.1583 820.13 Q59.548 817.264 59.548 814.494 Q59.548 812.562 60.7075 810.919 Q61.8347 809.277 63.7026 808.375 Q62.1567 808.214 61.5126 807.344 Q60.8685 806.443 60.8685 805.67 Q60.8685 804.8 61.3516 804.285 Q61.8025 803.737 62.6398 803.737 M66.6655 809.148 Q66.4723 809.148 65.957 809.277 Q65.4095 809.406 64.54 809.792 Q63.6704 810.146 62.8975 810.694 Q62.1245 811.241 61.577 812.24 Q60.9973 813.206 60.9973 814.43 Q60.9973 816.427 62.672 818.423 Q64.3145 820.42 66.8588 821.805 Q69.3064 823.093 74.0407 824.317 Q78.7749 825.509 81.1904 825.509 Q83.5736 825.509 85.4094 824.478 Q87.2451 823.447 87.2451 821.225 Q87.2451 818.649 84.8619 815.879 Q82.382 813.013 80.2564 812.53 L67.6639 809.341 Q66.891 809.148 66.6655 809.148 Z" fill="#000000" fill-rule="evenodd" fill-opacity="1" /><path clip-path="url(#clip030)" d="M 0 0 M33.3852 795.622 Q25.5849 795.622 19.2951 792.713 Q16.6574 791.474 14.4481 789.738 Q12.2388 788.002 11.2694 786.852 Q10.3 785.702 10.3 785.387 Q10.3 784.936 10.7509 784.913 Q10.9763 784.913 11.5399 785.522 Q19.1148 792.961 33.3852 792.939 Q47.7007 792.939 54.9824 785.702 Q55.7715 784.913 56.0194 784.913 Q56.4703 784.913 56.4703 785.387 Q56.4703 785.702 55.546 786.807 Q54.6217 787.912 52.5026 789.625 Q50.3834 791.338 47.7909 792.578 Q41.501 795.622 33.3852 795.622 Z" fill="#000000" fill-rule="evenodd" fill-opacity="1" /><path clip-path="url(#clip030)" d="M 0 0 M44.9278 777.893 Q44.0936 777.893 43.8456 777.826 Q43.5976 777.736 43.2144 777.375 L33.3401 768.515 Q27.8844 763.668 23.1276 763.668 Q20.0391 763.668 17.8297 765.291 Q15.6204 766.892 15.6204 769.845 Q15.6204 771.874 16.8603 773.587 Q18.1003 775.301 20.3096 776.09 Q20.2645 775.955 20.2645 775.481 Q20.2645 774.331 20.9859 773.7 Q21.7073 773.046 22.6767 773.046 Q23.9166 773.046 24.5253 773.858 Q25.1115 774.647 25.1115 775.436 Q25.1115 775.752 25.0439 776.18 Q24.9762 776.586 24.345 777.24 Q23.6912 777.893 22.5415 777.893 Q19.3176 777.893 16.7476 775.459 Q14.1776 773.001 14.1776 769.259 Q14.1776 765.021 16.7025 762.248 Q19.2049 759.452 23.1276 759.452 Q24.5028 759.452 25.7653 759.881 Q27.0052 760.286 27.9746 760.85 Q28.944 761.391 30.4995 762.879 Q32.0551 764.367 33.1597 765.562 Q34.2644 766.757 36.609 769.439 L41.3658 774.331 L41.3658 766.013 Q41.3658 761.955 41.0051 761.639 Q40.3513 761.188 36.9021 760.625 L36.9021 759.452 L44.9278 760.76 L44.9278 777.893 Z" fill="#000000" fill-rule="evenodd" fill-opacity="1" /><path clip-path="url(#clip030)" d="M 0 0 M56.0194 755.03 Q55.794 755.03 55.2304 754.443 Q47.6556 747.004 33.3852 747.004 Q19.0697 747.004 11.833 754.15 Q10.9989 755.03 10.7509 755.03 Q10.3 755.03 10.3 754.579 Q10.3 754.263 11.2243 753.158 Q12.1486 752.031 14.2678 750.34 Q16.3869 748.627 18.9795 747.365 Q25.2693 744.321 33.3852 744.321 Q41.1854 744.321 47.4752 747.229 Q50.1129 748.469 52.3222 750.205 Q54.5315 751.941 55.5009 753.091 Q56.4703 754.241 56.4703 754.579 Q56.4703 755.03 56.0194 755.03 Z" fill="#000000" fill-rule="evenodd" fill-opacity="1" /><path clip-path="url(#clip030)" d="M 0 0 M72.2049 730.261 Q61.0617 730.261 52.0763 726.107 Q48.3082 724.335 45.152 721.856 Q41.9959 719.376 40.611 717.733 Q39.2261 716.091 39.2261 715.64 Q39.2261 714.996 39.8703 714.963 Q40.1923 714.963 40.9975 715.833 Q51.8186 726.461 72.2049 726.429 Q92.6557 726.429 103.058 716.091 Q104.185 714.963 104.54 714.963 Q105.184 714.963 105.184 715.64 Q105.184 716.091 103.863 717.669 Q102.543 719.247 99.5155 721.695 Q96.4882 724.142 92.7845 725.913 Q83.7991 730.261 72.2049 730.261 Z" fill="#000000" fill-rule="evenodd" fill-opacity="1" /><path clip-path="url(#clip030)" d="M 0 0 M61.3194 673.889 Q61.6092 673.889 62.6076 674.146 Q63.5738 674.372 65.4739 675.112 Q67.3419 675.821 69.4352 676.916 Q71.4964 677.979 74.1051 679.943 Q76.7138 681.908 79.0004 684.356 Q83.316 688.961 85.6348 693.888 Q87.9536 698.784 88.6944 702.971 L88.6944 703.904 Q88.6944 704.935 87.8892 704.935 L84.9263 704.227 L68.7911 700.201 Q63.8636 698.945 63.445 698.945 Q63.0585 698.945 62.8653 699.106 Q62.6398 699.235 62.4788 700.008 Q62.3178 700.748 62.3178 702.23 Q62.3178 702.842 62.2855 703.132 Q62.2533 703.389 62.0923 703.615 Q61.8991 703.84 61.5126 703.84 Q60.9651 703.84 60.6753 703.615 Q60.3532 703.357 60.2888 703.164 Q60.2244 702.971 60.1922 702.584 Q60.16 702.037 59.9989 700.201 Q59.8057 698.365 59.6769 696.787 Q59.548 695.209 59.548 694.533 Q59.548 694.146 59.7413 693.921 Q59.9023 693.695 60.0955 693.695 L60.2566 693.663 L86.5044 700.136 Q85.7314 697.753 84.4432 695.402 Q83.1549 693.019 81.0294 690.442 Q78.8716 687.866 76.1985 685.676 Q73.5254 683.486 69.7895 681.554 Q66.0214 679.589 61.7058 678.365 Q60.8363 678.14 60.321 677.592 Q59.8057 677.013 59.6769 676.594 Q59.548 676.175 59.548 675.789 Q59.548 674.919 60.0311 674.404 Q60.482 673.889 61.3194 673.889 Z" fill="#000000" fill-rule="evenodd" fill-opacity="1" /><path clip-path="url(#clip030)" d="M 0 0 M104.54 672.687 Q104.218 672.687 103.412 671.85 Q92.5913 661.222 72.2049 661.222 Q51.7542 661.222 41.4161 671.431 Q40.2245 672.687 39.8703 672.687 Q39.2261 672.687 39.2261 672.043 Q39.2261 671.592 40.5466 670.014 Q41.867 668.404 44.8944 665.988 Q47.9217 663.541 51.6254 661.737 Q60.6108 657.389 72.2049 657.389 Q83.3482 657.389 92.3336 661.544 Q96.1017 663.315 99.2579 665.795 Q102.414 668.275 103.799 669.918 Q105.184 671.56 105.184 672.043 Q105.184 672.687 104.54 672.687 Z" fill="#000000" fill-rule="evenodd" fill-opacity="1" /><path clip-path="url(#clip030)" d="M 0 0 M555.233 18.8205 L555.233 41.5461 L565.522 41.5461 Q571.234 41.5461 574.353 38.5889 Q577.472 35.6318 577.472 30.163 Q577.472 24.7348 574.353 21.7777 Q571.234 18.8205 565.522 18.8205 L555.233 18.8205 M547.05 12.096 L565.522 12.096 Q575.69 12.096 580.875 16.714 Q586.101 21.2916 586.101 30.163 Q586.101 39.1155 580.875 43.6931 Q575.69 48.2706 565.522 48.2706 L555.233 48.2706 L555.233 72.576 L547.05 72.576 L547.05 12.096 Z" fill="#000000" fill-rule="evenodd" fill-opacity="1" /><path clip-path="url(#clip030)" d="M 0 0 M634.469 45.1919 L634.469 72.576 L627.015 72.576 L627.015 45.4349 Q627.015 38.994 624.503 35.7938 Q621.992 32.5936 616.969 32.5936 Q610.933 32.5936 607.449 36.4419 Q603.965 40.2903 603.965 46.9338 L603.965 72.576 L596.471 72.576 L596.471 9.54393 L603.965 9.54393 L603.965 34.2544 Q606.639 30.163 610.244 28.1376 Q613.89 26.1121 618.63 26.1121 Q626.448 26.1121 630.458 30.9732 Q634.469 35.7938 634.469 45.1919 Z" fill="#000000" fill-rule="evenodd" fill-opacity="1" /><path clip-path="url(#clip030)" d="M 0 0 M666.916 32.4315 Q660.921 32.4315 657.437 37.1306 Q653.953 41.7891 653.953 49.9314 Q653.953 58.0738 657.397 62.7728 Q660.881 67.4314 666.916 67.4314 Q672.871 67.4314 676.355 62.7323 Q679.839 58.0333 679.839 49.9314 Q679.839 41.8701 676.355 37.1711 Q672.871 32.4315 666.916 32.4315 M666.916 26.1121 Q676.639 26.1121 682.188 32.4315 Q687.738 38.7509 687.738 49.9314 Q687.738 61.0714 682.188 67.4314 Q676.639 73.7508 666.916 73.7508 Q657.154 73.7508 651.604 67.4314 Q646.095 61.0714 646.095 49.9314 Q646.095 38.7509 651.604 32.4315 Q657.154 26.1121 666.916 26.1121 Z" fill="#000000" fill-rule="evenodd" fill-opacity="1" /><path clip-path="url(#clip030)" d="M 0 0 M707.466 14.324 L707.466 27.2059 L722.819 27.2059 L722.819 32.9987 L707.466 32.9987 L707.466 57.6282 Q707.466 63.1779 708.965 64.7578 Q710.504 66.3376 715.163 66.3376 L722.819 66.3376 L722.819 72.576 L715.163 72.576 Q706.534 72.576 703.253 69.3758 Q699.972 66.1351 699.972 57.6282 L699.972 32.9987 L694.503 32.9987 L694.503 27.2059 L699.972 27.2059 L699.972 14.324 L707.466 14.324 Z" fill="#000000" fill-rule="evenodd" fill-opacity="1" /><path clip-path="url(#clip030)" d="M 0 0 M750.203 32.4315 Q744.208 32.4315 740.724 37.1306 Q737.24 41.7891 737.24 49.9314 Q737.24 58.0738 740.683 62.7728 Q744.167 67.4314 750.203 67.4314 Q756.158 67.4314 759.642 62.7323 Q763.125 58.0333 763.125 49.9314 Q763.125 41.8701 759.642 37.1711 Q756.158 32.4315 750.203 32.4315 M750.203 26.1121 Q759.925 26.1121 765.475 32.4315 Q771.025 38.7509 771.025 49.9314 Q771.025 61.0714 765.475 67.4314 Q759.925 73.7508 750.203 73.7508 Q740.44 73.7508 734.891 67.4314 Q729.381 61.0714 729.381 49.9314 Q729.381 38.7509 734.891 32.4315 Q740.44 26.1121 750.203 26.1121 Z" fill="#000000" fill-rule="evenodd" fill-opacity="1" /><path clip-path="url(#clip030)" d="M 0 0 M821.094 45.1919 L821.094 72.576 L813.64 72.576 L813.64 45.4349 Q813.64 38.994 811.129 35.7938 Q808.617 32.5936 803.594 32.5936 Q797.558 32.5936 794.074 36.4419 Q790.59 40.2903 790.59 46.9338 L790.59 72.576 L783.096 72.576 L783.096 27.2059 L790.59 27.2059 L790.59 34.2544 Q793.264 30.163 796.869 28.1376 Q800.515 26.1121 805.255 26.1121 Q813.073 26.1121 817.083 30.9732 Q821.094 35.7938 821.094 45.1919 Z" fill="#000000" fill-rule="evenodd" fill-opacity="1" /><path clip-path="url(#clip030)" d="M 0 0 M907.945 16.7545 L907.945 25.383 Q903.813 21.5346 899.114 19.6307 Q894.456 17.7268 889.189 17.7268 Q878.819 17.7268 873.31 24.0867 Q867.801 30.4061 867.801 42.3968 Q867.801 54.3469 873.31 60.7069 Q878.819 67.0263 889.189 67.0263 Q894.456 67.0263 899.114 65.1223 Q903.813 63.2184 907.945 59.3701 L907.945 67.9175 Q903.651 70.8341 898.831 72.2924 Q894.051 73.7508 888.703 73.7508 Q874.971 73.7508 867.072 65.3654 Q859.172 56.9395 859.172 42.3968 Q859.172 27.8135 867.072 19.4281 Q874.971 11.0023 888.703 11.0023 Q894.132 11.0023 898.912 12.4606 Q903.732 13.8784 907.945 16.7545 Z" fill="#000000" fill-rule="evenodd" fill-opacity="1" /><path clip-path="url(#clip030)" d="M 0 0 M937.841 32.4315 Q931.846 32.4315 928.362 37.1306 Q924.878 41.7891 924.878 49.9314 Q924.878 58.0738 928.321 62.7728 Q931.805 67.4314 937.841 67.4314 Q943.796 67.4314 947.279 62.7323 Q950.763 58.0333 950.763 49.9314 Q950.763 41.8701 947.279 37.1711 Q943.796 32.4315 937.841 32.4315 M937.841 26.1121 Q947.563 26.1121 953.113 32.4315 Q958.662 38.7509 958.662 49.9314 Q958.662 61.0714 953.113 67.4314 Q947.563 73.7508 937.841 73.7508 Q928.078 73.7508 922.528 67.4314 Q917.019 61.0714 917.019 49.9314 Q917.019 38.7509 922.528 32.4315 Q928.078 26.1121 937.841 26.1121 Z" fill="#000000" fill-rule="evenodd" fill-opacity="1" /><path clip-path="url(#clip030)" d="M 0 0 M997.308 34.1734 Q996.052 33.4443 994.554 33.1202 Q993.095 32.7556 991.313 32.7556 Q984.993 32.7556 981.591 36.8875 Q978.228 40.9789 978.228 48.6757 L978.228 72.576 L970.734 72.576 L970.734 27.2059 L978.228 27.2059 L978.228 34.2544 Q980.578 30.1225 984.345 28.1376 Q988.113 26.1121 993.5 26.1121 Q994.27 26.1121 995.202 26.2337 Q996.133 26.3147 997.268 26.5172 L997.308 34.1734 Z" fill="#000000" fill-rule="evenodd" fill-opacity="1" /><path clip-path="url(#clip030)" d="M 0 0 M1029.96 34.1734 Q1028.7 33.4443 1027.2 33.1202 Q1025.75 32.7556 1023.96 32.7556 Q1017.64 32.7556 1014.24 36.8875 Q1010.88 40.9789 1010.88 48.6757 L1010.88 72.576 L1003.38 72.576 L1003.38 27.2059 L1010.88 27.2059 L1010.88 34.2544 Q1013.23 30.1225 1017 28.1376 Q1020.76 26.1121 1026.15 26.1121 Q1026.92 26.1121 1027.85 26.2337 Q1028.78 26.3147 1029.92 26.5172 L1029.96 34.1734 Z" fill="#000000" fill-rule="evenodd" fill-opacity="1" /><path clip-path="url(#clip030)" d="M 0 0 M1074.76 48.0275 L1074.76 51.6733 L1040.49 51.6733 Q1040.98 59.3701 1045.11 63.421 Q1049.28 67.4314 1056.69 67.4314 Q1060.99 67.4314 1065 66.3781 Q1069.05 65.3249 1073.02 63.2184 L1073.02 70.267 Q1069.01 71.9684 1064.8 72.8596 Q1060.58 73.7508 1056.25 73.7508 Q1045.39 73.7508 1039.03 67.4314 Q1032.71 61.1119 1032.71 50.3365 Q1032.71 39.1965 1038.71 32.6746 Q1044.74 26.1121 1054.95 26.1121 Q1064.11 26.1121 1069.41 32.0264 Q1074.76 37.9003 1074.76 48.0275 M1067.31 45.84 Q1067.23 39.7232 1063.86 36.0774 Q1060.54 32.4315 1055.03 32.4315 Q1048.8 32.4315 1045.03 35.9558 Q1041.3 39.4801 1040.73 45.8805 L1067.31 45.84 Z" fill="#000000" fill-rule="evenodd" fill-opacity="1" /><path clip-path="url(#clip030)" d="M 0 0 M1087 9.54393 L1094.45 9.54393 L1094.45 72.576 L1087 72.576 L1087 9.54393 Z" fill="#000000" fill-rule="evenodd" fill-opacity="1" /><path clip-path="url(#clip030)" d="M 0 0 M1130.66 49.7694 Q1121.63 49.7694 1118.15 51.8354 Q1114.66 53.9013 1114.66 58.8839 Q1114.66 62.8538 1117.26 65.2034 Q1119.89 67.5124 1124.38 67.5124 Q1130.58 67.5124 1134.31 63.1374 Q1138.08 58.7219 1138.08 51.4303 L1138.08 49.7694 L1130.66 49.7694 M1145.53 46.6907 L1145.53 72.576 L1138.08 72.576 L1138.08 65.6895 Q1135.52 69.8214 1131.72 71.8063 Q1127.91 73.7508 1122.4 73.7508 Q1115.43 73.7508 1111.3 69.8619 Q1107.21 65.9325 1107.21 59.3701 Q1107.21 51.7138 1112.31 47.825 Q1117.46 43.9361 1127.63 43.9361 L1138.08 43.9361 L1138.08 43.2069 Q1138.08 38.0623 1134.67 35.2672 Q1131.31 32.4315 1125.2 32.4315 Q1121.31 32.4315 1117.62 33.3632 Q1113.93 34.295 1110.53 36.1584 L1110.53 29.2718 Q1114.62 27.692 1118.47 26.9223 Q1122.32 26.1121 1125.96 26.1121 Q1135.81 26.1121 1140.67 31.2163 Q1145.53 36.3204 1145.53 46.6907 Z" fill="#000000" fill-rule="evenodd" fill-opacity="1" /><path clip-path="url(#clip030)" d="M 0 0 M1168.26 14.324 L1168.26 27.2059 L1183.61 27.2059 L1183.61 32.9987 L1168.26 32.9987 L1168.26 57.6282 Q1168.26 63.1779 1169.76 64.7578 Q1171.29 66.3376 1175.95 66.3376 L1183.61 66.3376 L1183.61 72.576 L1175.95 72.576 Q1167.32 72.576 1164.04 69.3758 Q1160.76 66.1351 1160.76 57.6282 L1160.76 32.9987 L1155.29 32.9987 L1155.29 27.2059 L1160.76 27.2059 L1160.76 14.324 L1168.26 14.324 Z" fill="#000000" fill-rule="evenodd" fill-opacity="1" /><path clip-path="url(#clip030)" d="M 0 0 M1193.41 27.2059 L1200.87 27.2059 L1200.87 72.576 L1193.41 72.576 L1193.41 27.2059 M1193.41 9.54393 L1200.87 9.54393 L1200.87 18.9825 L1193.41 18.9825 L1193.41 9.54393 Z" fill="#000000" fill-rule="evenodd" fill-opacity="1" /><path clip-path="url(#clip030)" d="M 0 0 M1234.04 32.4315 Q1228.05 32.4315 1224.56 37.1306 Q1221.08 41.7891 1221.08 49.9314 Q1221.08 58.0738 1224.52 62.7728 Q1228.01 67.4314 1234.04 67.4314 Q1240 67.4314 1243.48 62.7323 Q1246.97 58.0333 1246.97 49.9314 Q1246.97 41.8701 1243.48 37.1711 Q1240 32.4315 1234.04 32.4315 M1234.04 26.1121 Q1243.77 26.1121 1249.31 32.4315 Q1254.86 38.7509 1254.86 49.9314 Q1254.86 61.0714 1249.31 67.4314 Q1243.77 73.7508 1234.04 73.7508 Q1224.28 73.7508 1218.73 67.4314 Q1213.22 61.0714 1213.22 49.9314 Q1213.22 38.7509 1218.73 32.4315 Q1224.28 26.1121 1234.04 26.1121 Z" fill="#000000" fill-rule="evenodd" fill-opacity="1" /><path clip-path="url(#clip030)" d="M 0 0 M1304.93 45.1919 L1304.93 72.576 L1297.48 72.576 L1297.48 45.4349 Q1297.48 38.994 1294.97 35.7938 Q1292.46 32.5936 1287.43 32.5936 Q1281.4 32.5936 1277.91 36.4419 Q1274.43 40.2903 1274.43 46.9338 L1274.43 72.576 L1266.94 72.576 L1266.94 27.2059 L1274.43 27.2059 L1274.43 34.2544 Q1277.1 30.163 1280.71 28.1376 Q1284.36 26.1121 1289.09 26.1121 Q1296.91 26.1121 1300.92 30.9732 Q1304.93 35.7938 1304.93 45.1919 Z" fill="#000000" fill-rule="evenodd" fill-opacity="1" /><path clip-path="url(#clip030)" d="M 0 0 M1348.72 28.5427 L1348.72 35.5912 Q1345.56 33.9709 1342.16 33.1607 Q1338.76 32.3505 1335.11 32.3505 Q1329.56 32.3505 1326.77 34.0519 Q1324.01 35.7533 1324.01 39.156 Q1324.01 41.7486 1326 43.2475 Q1327.98 44.7058 1333.98 46.0426 L1336.53 46.6097 Q1344.47 48.3111 1347.79 51.4303 Q1351.15 54.509 1351.15 60.0587 Q1351.15 66.3781 1346.13 70.0644 Q1341.15 73.7508 1332.4 73.7508 Q1328.75 73.7508 1324.78 73.0216 Q1320.85 72.3329 1316.48 70.9151 L1316.48 63.2184 Q1320.61 65.3654 1324.62 66.4591 Q1328.63 67.5124 1332.56 67.5124 Q1337.83 67.5124 1340.66 65.73 Q1343.5 63.9071 1343.5 60.6258 Q1343.5 57.5877 1341.43 55.9673 Q1339.41 54.3469 1332.48 52.8481 L1329.89 52.2405 Q1322.96 50.7821 1319.88 47.7845 Q1316.8 44.7463 1316.8 39.4801 Q1316.8 33.0797 1321.34 29.5959 Q1325.88 26.1121 1334.22 26.1121 Q1338.35 26.1121 1342 26.7198 Q1345.65 27.3274 1348.72 28.5427 Z" fill="#000000" fill-rule="evenodd" fill-opacity="1" /><path clip-path="url(#clip030)" d="M 0 0 M1384.05 27.2059 L1391.95 27.2059 L1406.13 65.2844 L1420.3 27.2059 L1428.2 27.2059 L1411.19 72.576 L1401.06 72.576 L1384.05 27.2059 Z" fill="#000000" fill-rule="evenodd" fill-opacity="1" /><path clip-path="url(#clip030)" d="M 0 0 M1467.42 28.5427 L1467.42 35.5912 Q1464.26 33.9709 1460.85 33.1607 Q1457.45 32.3505 1453.8 32.3505 Q1448.25 32.3505 1445.46 34.0519 Q1442.71 35.7533 1442.71 39.156 Q1442.71 41.7486 1444.69 43.2475 Q1446.67 44.7058 1452.67 46.0426 L1455.22 46.6097 Q1463.16 48.3111 1466.48 51.4303 Q1469.85 54.509 1469.85 60.0587 Q1469.85 66.3781 1464.82 70.0644 Q1459.84 73.7508 1451.09 73.7508 Q1447.44 73.7508 1443.47 73.0216 Q1439.55 72.3329 1435.17 70.9151 L1435.17 63.2184 Q1439.3 65.3654 1443.31 66.4591 Q1447.32 67.5124 1451.25 67.5124 Q1456.52 67.5124 1459.35 65.73 Q1462.19 63.9071 1462.19 60.6258 Q1462.19 57.5877 1460.12 55.9673 Q1458.1 54.3469 1451.17 52.8481 L1448.58 52.2405 Q1441.65 50.7821 1438.57 47.7845 Q1435.49 44.7463 1435.49 39.4801 Q1435.49 33.0797 1440.03 29.5959 Q1444.57 26.1121 1452.91 26.1121 Q1457.05 26.1121 1460.69 26.7198 Q1464.34 27.3274 1467.42 28.5427 Z" fill="#000000" fill-rule="evenodd" fill-opacity="1" /><path clip-path="url(#clip030)" d="M 0 0 M1508.41 12.096 L1543.17 12.096 L1543.17 18.9825 L1516.59 18.9825 L1516.59 36.8065 L1540.57 36.8065 L1540.57 43.6931 L1516.59 43.6931 L1516.59 72.576 L1508.41 72.576 L1508.41 12.096 Z" fill="#000000" fill-rule="evenodd" fill-opacity="1" /><path clip-path="url(#clip030)" d="M 0 0 M1576.06 34.1734 Q1574.81 33.4443 1573.31 33.1202 Q1571.85 32.7556 1570.07 32.7556 Q1563.75 32.7556 1560.34 36.8875 Q1556.98 40.9789 1556.98 48.6757 L1556.98 72.576 L1549.49 72.576 L1549.49 27.2059 L1556.98 27.2059 L1556.98 34.2544 Q1559.33 30.1225 1563.1 28.1376 Q1566.87 26.1121 1572.25 26.1121 Q1573.02 26.1121 1573.95 26.2337 Q1574.89 26.3147 1576.02 26.5172 L1576.06 34.1734 Z" fill="#000000" fill-rule="evenodd" fill-opacity="1" /><path clip-path="url(#clip030)" d="M 0 0 M1620.86 48.0275 L1620.86 51.6733 L1586.59 51.6733 Q1587.08 59.3701 1591.21 63.421 Q1595.38 67.4314 1602.8 67.4314 Q1607.09 67.4314 1611.1 66.3781 Q1615.15 65.3249 1619.12 63.2184 L1619.12 70.267 Q1615.11 71.9684 1610.9 72.8596 Q1606.69 73.7508 1602.35 73.7508 Q1591.49 73.7508 1585.13 67.4314 Q1578.82 61.1119 1578.82 50.3365 Q1578.82 39.1965 1584.81 32.6746 Q1590.85 26.1121 1601.05 26.1121 Q1610.21 26.1121 1615.52 32.0264 Q1620.86 37.9003 1620.86 48.0275 M1613.41 45.84 Q1613.33 39.7232 1609.97 36.0774 Q1606.65 32.4315 1601.14 32.4315 Q1594.9 32.4315 1591.13 35.9558 Q1587.4 39.4801 1586.84 45.8805 L1613.41 45.84 Z" fill="#000000" fill-rule="evenodd" fill-opacity="1" /><path clip-path="url(#clip030)" d="M 0 0 M1637.55 49.9314 Q1637.55 58.1548 1640.92 62.8538 Q1644.32 67.5124 1650.23 67.5124 Q1656.15 67.5124 1659.55 62.8538 Q1662.95 58.1548 1662.95 49.9314 Q1662.95 41.7081 1659.55 37.0496 Q1656.15 32.3505 1650.23 32.3505 Q1644.32 32.3505 1640.92 37.0496 Q1637.55 41.7081 1637.55 49.9314 M1662.95 65.7705 Q1660.6 69.8214 1657 71.8063 Q1653.43 73.7508 1648.41 73.7508 Q1640.19 73.7508 1635 67.1883 Q1629.86 60.6258 1629.86 49.9314 Q1629.86 39.2371 1635 32.6746 Q1640.19 26.1121 1648.41 26.1121 Q1653.43 26.1121 1657 28.0971 Q1660.6 30.0415 1662.95 34.0924 L1662.95 27.2059 L1670.41 27.2059 L1670.41 89.8329 L1662.95 89.8329 L1662.95 65.7705 Z" fill="#000000" fill-rule="evenodd" fill-opacity="1" /><path clip-path="url(#clip030)" d="M 0 0 M1684.99 54.671 L1684.99 27.2059 L1692.44 27.2059 L1692.44 54.3874 Q1692.44 60.8284 1694.95 64.0691 Q1697.47 67.2693 1702.49 67.2693 Q1708.53 67.2693 1712.01 63.421 Q1715.53 59.5726 1715.53 52.9291 L1715.53 27.2059 L1722.99 27.2059 L1722.99 72.576 L1715.53 72.576 L1715.53 65.6084 Q1712.82 69.7404 1709.21 71.7658 Q1705.65 73.7508 1700.91 73.7508 Q1693.09 73.7508 1689.04 68.8897 Q1684.99 64.0286 1684.99 54.671 M1703.75 26.1121 L1703.75 26.1121 Z" fill="#000000" fill-rule="evenodd" fill-opacity="1" /><path clip-path="url(#clip030)" d="M 0 0 M1777.15 48.0275 L1777.15 51.6733 L1742.88 51.6733 Q1743.36 59.3701 1747.5 63.421 Q1751.67 67.4314 1759.08 67.4314 Q1763.37 67.4314 1767.39 66.3781 Q1771.44 65.3249 1775.41 63.2184 L1775.41 70.267 Q1771.4 71.9684 1767.18 72.8596 Q1762.97 73.7508 1758.64 73.7508 Q1747.78 73.7508 1741.42 67.4314 Q1735.1 61.1119 1735.1 50.3365 Q1735.1 39.1965 1741.09 32.6746 Q1747.13 26.1121 1757.34 26.1121 Q1766.49 26.1121 1771.8 32.0264 Q1777.15 37.9003 1777.15 48.0275 M1769.69 45.84 Q1769.61 39.7232 1766.25 36.0774 Q1762.93 32.4315 1757.42 32.4315 Q1751.18 32.4315 1747.41 35.9558 Q1743.69 39.4801 1743.12 45.8805 L1769.69 45.84 Z" fill="#000000" fill-rule="evenodd" fill-opacity="1" /><path clip-path="url(#clip030)" d="M 0 0 M1827.1 45.1919 L1827.1 72.576 L1819.64 72.576 L1819.64 45.4349 Q1819.64 38.994 1817.13 35.7938 Q1814.62 32.5936 1809.6 32.5936 Q1803.56 32.5936 1800.08 36.4419 Q1796.59 40.2903 1796.59 46.9338 L1796.59 72.576 L1789.1 72.576 L1789.1 27.2059 L1796.59 27.2059 L1796.59 34.2544 Q1799.27 30.163 1802.87 28.1376 Q1806.52 26.1121 1811.26 26.1121 Q1819.07 26.1121 1823.08 30.9732 Q1827.1 35.7938 1827.1 45.1919 Z" fill="#000000" fill-rule="evenodd" fill-opacity="1" /><path clip-path="url(#clip030)" d="M 0 0 M1874.61 28.9478 L1874.61 35.9153 Q1871.45 34.1734 1868.25 33.3227 Q1865.09 32.4315 1861.85 32.4315 Q1854.6 32.4315 1850.59 37.0496 Q1846.58 41.6271 1846.58 49.9314 Q1846.58 58.2358 1850.59 62.8538 Q1854.6 67.4314 1861.85 67.4314 Q1865.09 67.4314 1868.25 66.5807 Q1871.45 65.6895 1874.61 63.9476 L1874.61 70.8341 Q1871.49 72.2924 1868.13 73.0216 Q1864.81 73.7508 1861.04 73.7508 Q1850.79 73.7508 1844.76 67.3098 Q1838.72 60.8689 1838.72 49.9314 Q1838.72 38.832 1844.8 32.472 Q1850.91 26.1121 1861.53 26.1121 Q1864.97 26.1121 1868.25 26.8413 Q1871.53 27.5299 1874.61 28.9478 Z" fill="#000000" fill-rule="evenodd" fill-opacity="1" /><path clip-path="url(#clip030)" d="M 0 0 M1906.45 76.7889 Q1903.29 84.8907 1900.3 87.3618 Q1897.3 89.8329 1892.27 89.8329 L1886.32 89.8329 L1886.32 83.5945 L1890.69 83.5945 Q1893.77 83.5945 1895.47 82.1361 Q1897.18 80.6778 1899.24 75.2496 L1900.58 71.8468 L1882.23 27.2059 L1890.13 27.2059 L1904.31 62.6918 L1918.48 27.2059 L1926.38 27.2059 L1906.45 76.7889 Z" fill="#000000" fill-rule="evenodd" fill-opacity="1" /><polyline clip-path="url(#clip033)" style="stroke:#009af9; stroke-width:4; stroke-opacity:1; fill:none" points="
  274.415,1324.83 278.311,1278.28 282.207,1205.19 286.103,1268.66 289.999,1260.8 293.895,1239.54 297.791,1091.1 301.687,1114.22 305.583,652.598 309.479,1277.52 
  313.375,1276.36 317.271,1248.14 321.167,1188.02 325.063,1286.42 328.959,1283.17 332.855,1278.67 336.751,1271.34 340.647,1263.7 344.542,1258.31 348.438,1244.71 
  352.334,1226.99 356.23,1181.15 360.126,1269.5 364.022,1134.92 367.918,1070 371.814,1261.53 375.71,1219.54 379.606,1155.39 383.502,1255 387.398,689.042 
  391.294,158.463 395.19,1173.75 399.086,834.871 402.982,1142.35 406.878,1213.9 410.774,1262.64 414.67,948.208 418.566,1172.14 422.462,1086.34 426.358,1209.46 
  430.254,1244.44 434.15,1281.56 438.045,1180.24 441.941,1230.58 445.837,1244.69 449.733,1251.6 453.629,1252.21 457.525,1258.22 461.421,1259.9 465.317,1230.27 
  469.213,1203.4 473.109,1155.07 477.005,1102.78 480.901,352.008 484.797,602.457 488.693,1047.91 492.589,1153.83 496.485,1209.02 500.381,1124.96 504.277,1216.27 
  508.173,1249.49 512.069,1250.12 515.965,1182.15 519.861,1225.62 523.757,1243.69 527.652,1215.4 531.548,1186.36 535.444,1243.69 539.34,1249.46 543.236,1257.4 
  547.132,1261.81 551.028,1224.27 554.924,1230.48 558.82,1235.3 562.716,1228.13 566.612,1190.72 570.508,1260.26 574.404,1277.83 578.3,1285.36 582.196,1263.14 
  586.092,1246.14 589.988,1207.33 593.884,1290.92 597.78,1059.6 601.676,1189.36 605.572,1297.46 609.468,1272.79 613.364,1147.02 617.259,1215.45 621.155,1207.39 
  625.051,1167.91 628.947,1289.7 632.843,1300.12 636.739,1300.04 640.635,1289.4 644.531,1281.81 648.427,1292.33 652.323,1285.81 656.219,1279.78 660.115,1269.26 
  664.011,1245.83 667.907,1150.59 671.803,1279.34 675.699,1286.31 679.595,1233.69 683.491,964.856 687.387,1198.61 691.283,1262.03 695.179,1241.1 699.075,1296.95 
  702.971,1286.96 706.866,1121.77 710.762,1105.53 714.658,977.892 718.554,1085 722.45,1207.24 726.346,1237.59 730.242,1253.09 734.138,1265.13 738.034,1242.35 
  741.93,1146.56 745.826,1270.36 749.722,1280.64 753.618,1291.37 757.514,1243.54 761.41,1199 765.306,1251.92 769.202,1259.01 773.098,1257.81 776.994,1235.61 
  780.89,1195.37 784.786,1256.21 788.682,1200.79 792.578,1270 796.473,1265.68 800.369,1266.64 804.265,1258.85 808.161,1252.46 812.057,1246.78 815.953,1235.54 
  819.849,1216.71 823.745,1121.79 827.641,1195.64 831.537,1210.72 835.433,1263.49 839.329,1244.56 843.225,1216.15 847.121,1138.65 851.017,1192.14 854.913,978.532 
  858.809,1142.85 862.705,1201.09 866.601,1092.45 870.497,641.025 874.393,497.431 878.289,1167.65 882.185,1130.26 886.08,1290.65 889.976,1274.94 893.872,923.173 
  897.768,1083.04 901.664,766.78 905.56,533.568 909.456,1056.11 913.352,1150.36 917.248,1193.68 921.144,1215.64 925.04,1233.76 928.936,1246.93 932.832,1257.16 
  936.728,1272.97 940.624,1254.01 944.52,1226.27 948.416,1249.8 952.312,1258.46 956.208,1265.63 960.104,1254.62 964,712.629 967.896,1286.49 971.792,1161.9 
  975.687,1245.45 979.583,1252.75 983.479,1211.1 987.375,700.962 991.271,1175.53 995.167,1156.63 999.063,1155.55 1002.96,1228.31 1006.86,1248.15 1010.75,1254.28 
  1014.65,1256.03 1018.54,1174.45 1022.44,1215.57 1026.33,1255.62 1030.23,1265.02 1034.13,1267.96 1038.02,1269.97 1041.92,1269.92 1045.81,1268.84 1049.71,1267.24 
  1053.61,1265.42 1057.5,1262.48 1061.4,1256.59 1065.29,1247.92 1069.19,1234.33 1073.09,1206.53 1076.98,1106.69 1080.88,986.63 1084.77,1291.07 1088.67,1276.84 
  1092.57,1241.72 1096.46,1185.83 1100.36,1003.58 1104.25,533.644 1108.15,1226.21 1112.05,751.902 1115.94,1216.38 1119.84,1258.55 1123.73,1281.41 1127.63,1305.38 
  1131.53,1290.18 1135.42,1165.64 1139.32,1263.98 1143.21,1283.03 1147.11,1292.88 1151.01,1297.64 1154.9,1302.93 1158.8,1306.84 1162.69,1310.34 1166.59,1313.31 
  1170.49,1315.22 1174.38,1315.5 1178.28,1312.44 1182.17,1307.08 1186.07,1297.16 1189.97,1275.8 1193.86,1183.43 1197.76,1284.69 1201.65,1249.49 1205.55,1292.63 
  1209.44,1298.34 1213.34,1278.79 1217.24,1174.21 1221.13,1235.59 1225.03,1302.43 1228.92,1159.02 1232.82,1239.8 1236.72,1263.58 1240.61,1280.05 1244.51,1290.85 
  1248.4,1304.98 1252.3,1221.46 1256.2,1226.86 1260.09,1264.41 1263.99,1276.28 1267.88,1282.18 1271.78,1286.31 1275.68,1289.57 1279.57,1292 1283.47,1293.84 
  1287.36,1295.4 1291.26,1297 1295.16,1299.35 1299.05,1298.91 1302.95,1300.17 1306.84,1299.03 1310.74,1184.27 1314.64,789.745 1318.53,1315.68 1322.43,1312.45 
  1326.32,1311.04 1330.22,1313 1334.12,1306.55 1338.01,1105.57 1341.91,1258.54 1345.8,1195.12 1349.7,1296.62 1353.6,1299.03 1357.49,1301.92 1361.39,1303.55 
  1365.28,1301.46 1369.18,1158.16 1373.08,1306.44 1376.97,1307.14 1380.87,1304.87 1384.76,1305.62 1388.66,1305.26 1392.55,1304.79 1396.45,1303.55 1400.35,1302.23 
  1404.24,1301.12 1408.14,1298.86 1412.03,1296.07 1415.93,1291.37 1419.83,1285.53 1423.72,1273.87 1427.62,1232.81 1431.51,1251.4 1435.41,1305.98 1439.31,1284.73 
  1443.2,1258.21 1447.1,1171.98 1450.99,1110.3 1454.89,805.103 1458.79,1138.46 1462.68,798.622 1466.58,1163 1470.47,1218.21 1474.37,1243.31 1478.27,1166.63 
  1482.16,1268.42 1486.06,1122.37 1489.95,1234.55 1493.85,1254.34 1497.75,1259.97 1501.64,1179.99 1505.54,1271.33 1509.43,1271.12 1513.33,1273.49 1517.23,1273.39 
  1521.12,1275.5 1525.02,1275.27 1528.91,1273.09 1532.81,1271.16 1536.71,1267.98 1540.6,1262.49 1544.5,1253.55 1548.39,1241.62 1552.29,1220.38 1556.18,1173.72 
  1560.08,976.36 1563.98,829.54 1567.87,1224.8 1571.77,1162.21 1575.66,1236.33 1579.56,1213.81 1583.46,1255.06 1587.35,1225.38 1591.25,1017.76 1595.14,811.041 
  1599.04,1156.84 1602.94,1214.08 1606.83,1240.47 1610.73,1253.93 1614.62,1264.37 1618.52,1260.29 1622.42,1267.12 1626.31,1271.47 1630.21,1273.65 1634.1,1274.69 
  1638,1274.02 1641.9,1273.75 1645.79,1272.18 1649.69,1269.44 1653.58,1263.08 1657.48,1247.83 1661.38,1194.4 1665.27,1220.57 1669.17,1302.5 1673.06,1269.59 
  1676.96,1154.08 1680.86,1279.65 1684.75,998.764 1688.65,1167.04 1692.54,1252.47 1696.44,1265.49 1700.34,1263.73 1704.23,1229.17 1708.13,968.523 1712.02,1132.52 
  1715.92,1252.67 1719.82,1280.19 1723.71,1287.44 1727.61,1285.72 1731.5,1210.31 1735.4,1252.46 1739.29,1284.91 1743.19,1292.84 1747.09,1296.27 1750.98,1297.94 
  1754.88,1298.69 1758.77,1297.49 1762.67,1294.88 1766.57,1284.29 1770.46,1178.38 1774.36,1275.19 1778.25,1300.59 1782.15,1304.4 1786.05,1305.99 1789.94,1306.2 
  1793.84,1304.98 1797.73,1302.05 1801.63,1174.09 1805.53,1166.66 1809.42,1296.65 1813.32,1305.66 1817.21,1305.49 1821.11,1305.07 1825.01,1258.31 1828.9,1313.31 
  1832.8,1313.44 1836.69,1312.25 1840.59,1312.49 1844.49,1312.04 1848.38,1311.46 1852.28,1311.5 1856.17,1312.99 1860.07,1313.3 1863.97,1311.71 1867.86,1311.33 
  1871.76,1310.3 1875.65,1309.56 1879.55,1305.48 1883.45,1290.29 1887.34,865.216 1891.24,1248.73 1895.13,1174.88 1899.03,1301.59 1902.93,1304.73 1906.82,1307.26 
  1910.72,1309.3 1914.61,1309.2 1918.51,1291.27 1922.4,1263.53 1926.3,1294.87 1930.2,1297.28 1934.09,1293.57 1937.99,1272.94 1941.88,1184.75 1945.78,1296.86 
  1949.68,1308.56 1953.57,1312.44 1957.47,1313.49 1961.36,1305.19 1965.26,1197.28 1969.16,1230.6 1973.05,1266.67 1976.95,1247.28 1980.84,1196.06 1984.74,1288.68 
  1988.64,1290.24 1992.53,1273.45 1996.43,1162.54 2000.32,1202.69 2004.22,852.526 2008.12,1251.33 2012.01,1275.64 2015.91,1286.9 2019.8,1292.65 2023.7,1295.3 
  2027.6,1257.45 2031.49,1245.17 2035.39,1272.52 2039.28,1252.98 2043.18,1271.66 2047.08,1276.98 2050.97,1279.78 2054.87,1282.84 2058.76,1280.34 2062.66,1279.89 
  2066.56,1278.95 2070.45,1277.03 2074.35,1268.89 2078.24,1265.47 2082.14,724.88 2086.04,1271.15 2089.93,1254.22 2093.83,1198.3 2097.72,1261.71 2101.62,1232.96 
  2105.51,1178.86 2109.41,949.373 2113.31,907.774 2117.2,1262.68 2121.1,1151.85 2124.99,1253.66 2128.89,1286.27 2132.79,1302.62 2136.68,1311.06 2140.58,1163.58 
  2144.47,1101.5 2148.37,1229.99 2152.27,1267.03 2156.16,1278.49 2160.06,1278.97 2163.95,1280.63 2167.85,1274.95 2171.75,1248.24 2175.64,1196.61 2179.54,1313.08 
  2183.43,1300.15 2187.33,1287.03 2191.23,1162.09 2195.12,1227.52 2199.02,1185.18 
  "/>
<polyline clip-path="url(#clip033)" style="stroke:#e26f46; stroke-width:4; stroke-opacity:1; fill:none" stroke-dasharray="16, 10" points="
  390.008,2596.17 390.008,-1112.88 
  "/>
<path clip-path="url(#clip030)" d="
M1609.09 285.644 L2188.75 285.644 L2188.75 164.684 L1609.09 164.684  Z
  " fill="#ffffff" fill-rule="evenodd" fill-opacity="1"/>
<polyline clip-path="url(#clip030)" style="stroke:#000000; stroke-width:4; stroke-opacity:1; fill:none" points="
  1609.09,285.644 2188.75,285.644 2188.75,164.684 1609.09,164.684 1609.09,285.644 
  "/>
<polyline clip-path="url(#clip030)" style="stroke:#e26f46; stroke-width:4; stroke-opacity:1; fill:none" stroke-dasharray="16, 10" points="
  1631.76,225.164 1767.77,225.164 
  "/>
<path clip-path="url(#clip030)" d="M 0 0 M1806.94 206.425 L1806.94 209.967 L1802.86 209.967 Q1800.57 209.967 1799.67 210.893 Q1798.79 211.819 1798.79 214.226 L1798.79 216.518 L1805.8 216.518 L1805.8 219.828 L1798.79 219.828 L1798.79 242.444 L1794.51 242.444 L1794.51 219.828 L1790.43 219.828 L1790.43 216.518 L1794.51 216.518 L1794.51 214.712 Q1794.51 210.384 1796.52 208.416 Q1798.54 206.425 1802.91 206.425 L1806.94 206.425 Z" fill="#000000" fill-rule="evenodd" fill-opacity="1" /><path clip-path="url(#clip030)" d="M 0 0 M1825.53 220.499 Q1824.81 220.083 1823.95 219.898 Q1823.12 219.689 1822.1 219.689 Q1818.49 219.689 1816.54 222.05 Q1814.62 224.388 1814.62 228.786 L1814.62 242.444 L1810.34 242.444 L1810.34 216.518 L1814.62 216.518 L1814.62 220.546 Q1815.97 218.185 1818.12 217.05 Q1820.27 215.893 1823.35 215.893 Q1823.79 215.893 1824.32 215.962 Q1824.86 216.009 1825.5 216.124 L1825.53 220.499 Z" fill="#000000" fill-rule="evenodd" fill-opacity="1" /><path clip-path="url(#clip030)" d="M 0 0 M1851.13 228.416 L1851.13 230.499 L1831.54 230.499 Q1831.82 234.897 1834.18 237.212 Q1836.57 239.504 1840.8 239.504 Q1843.26 239.504 1845.55 238.902 Q1847.86 238.3 1850.13 237.097 L1850.13 241.124 Q1847.84 242.096 1845.43 242.606 Q1843.03 243.115 1840.55 243.115 Q1834.35 243.115 1830.71 239.504 Q1827.1 235.893 1827.1 229.735 Q1827.1 223.37 1830.53 219.643 Q1833.98 215.893 1839.81 215.893 Q1845.04 215.893 1848.07 219.273 Q1851.13 222.629 1851.13 228.416 M1846.87 227.166 Q1846.82 223.671 1844.9 221.587 Q1843 219.504 1839.86 219.504 Q1836.29 219.504 1834.14 221.518 Q1832.01 223.532 1831.68 227.189 L1846.87 227.166 Z" fill="#000000" fill-rule="evenodd" fill-opacity="1" /><path clip-path="url(#clip030)" d="M 0 0 M1860.67 229.504 Q1860.67 234.203 1862.59 236.888 Q1864.53 239.55 1867.91 239.55 Q1871.29 239.55 1873.23 236.888 Q1875.18 234.203 1875.18 229.504 Q1875.18 224.805 1873.23 222.143 Q1871.29 219.458 1867.91 219.458 Q1864.53 219.458 1862.59 222.143 Q1860.67 224.805 1860.67 229.504 M1875.18 238.555 Q1873.84 240.87 1871.78 242.004 Q1869.74 243.115 1866.87 243.115 Q1862.17 243.115 1859.21 239.365 Q1856.27 235.615 1856.27 229.504 Q1856.27 223.393 1859.21 219.643 Q1862.17 215.893 1866.87 215.893 Q1869.74 215.893 1871.78 217.027 Q1873.84 218.138 1875.18 220.453 L1875.18 216.518 L1879.44 216.518 L1879.44 252.305 L1875.18 252.305 L1875.18 238.555 Z" fill="#000000" fill-rule="evenodd" fill-opacity="1" /><path clip-path="url(#clip030)" d="M 0 0 M1887.77 232.212 L1887.77 216.518 L1892.03 216.518 L1892.03 232.05 Q1892.03 235.731 1893.47 237.583 Q1894.9 239.411 1897.77 239.411 Q1901.22 239.411 1903.21 237.212 Q1905.23 235.013 1905.23 231.217 L1905.23 216.518 L1909.48 216.518 L1909.48 242.444 L1905.23 242.444 L1905.23 238.462 Q1903.67 240.823 1901.61 241.981 Q1899.58 243.115 1896.87 243.115 Q1892.4 243.115 1890.09 240.337 Q1887.77 237.559 1887.77 232.212 M1898.49 215.893 L1898.49 215.893 Z" fill="#000000" fill-rule="evenodd" fill-opacity="1" /><path clip-path="url(#clip030)" d="M 0 0 M1940.43 228.416 L1940.43 230.499 L1920.85 230.499 Q1921.13 234.897 1923.49 237.212 Q1925.87 239.504 1930.11 239.504 Q1932.56 239.504 1934.85 238.902 Q1937.17 238.3 1939.44 237.097 L1939.44 241.124 Q1937.15 242.096 1934.74 242.606 Q1932.33 243.115 1929.85 243.115 Q1923.65 243.115 1920.02 239.504 Q1916.41 235.893 1916.41 229.735 Q1916.41 223.37 1919.83 219.643 Q1923.28 215.893 1929.11 215.893 Q1934.35 215.893 1937.38 219.273 Q1940.43 222.629 1940.43 228.416 M1936.17 227.166 Q1936.13 223.671 1934.21 221.587 Q1932.31 219.504 1929.16 219.504 Q1925.6 219.504 1923.44 221.518 Q1921.31 223.532 1920.99 227.189 L1936.17 227.166 Z" fill="#000000" fill-rule="evenodd" fill-opacity="1" /><path clip-path="url(#clip030)" d="M 0 0 M1968.97 226.796 L1968.97 242.444 L1964.72 242.444 L1964.72 226.935 Q1964.72 223.254 1963.28 221.425 Q1961.85 219.597 1958.97 219.597 Q1955.53 219.597 1953.53 221.796 Q1951.54 223.995 1951.54 227.791 L1951.54 242.444 L1947.26 242.444 L1947.26 216.518 L1951.54 216.518 L1951.54 220.546 Q1953.07 218.208 1955.13 217.05 Q1957.22 215.893 1959.92 215.893 Q1964.39 215.893 1966.68 218.671 Q1968.97 221.425 1968.97 226.796 Z" fill="#000000" fill-rule="evenodd" fill-opacity="1" /><path clip-path="url(#clip030)" d="M 0 0 M1996.13 217.513 L1996.13 221.495 Q1994.32 220.499 1992.49 220.013 Q1990.69 219.504 1988.84 219.504 Q1984.69 219.504 1982.4 222.143 Q1980.11 224.759 1980.11 229.504 Q1980.11 234.249 1982.4 236.888 Q1984.69 239.504 1988.84 239.504 Q1990.69 239.504 1992.49 239.018 Q1994.32 238.509 1996.13 237.513 L1996.13 241.448 Q1994.34 242.282 1992.42 242.698 Q1990.53 243.115 1988.37 243.115 Q1982.52 243.115 1979.07 239.434 Q1975.62 235.754 1975.62 229.504 Q1975.62 223.161 1979.09 219.527 Q1982.59 215.893 1988.65 215.893 Q1990.62 215.893 1992.49 216.31 Q1994.37 216.703 1996.13 217.513 Z" fill="#000000" fill-rule="evenodd" fill-opacity="1" /><path clip-path="url(#clip030)" d="M 0 0 M2014.32 244.851 Q2012.52 249.481 2010.8 250.893 Q2009.09 252.305 2006.22 252.305 L2002.82 252.305 L2002.82 248.74 L2005.32 248.74 Q2007.08 248.74 2008.05 247.907 Q2009.02 247.073 2010.2 243.971 L2010.97 242.027 L2000.48 216.518 L2004.99 216.518 L2013.09 236.796 L2021.2 216.518 L2025.71 216.518 L2014.32 244.851 Z" fill="#000000" fill-rule="evenodd" fill-opacity="1" /><path clip-path="url(#clip030)" d="M 0 0 M2063.19 217.282 L2063.19 221.31 Q2061.38 220.384 2059.44 219.921 Q2057.49 219.458 2055.41 219.458 Q2052.24 219.458 2050.64 220.43 Q2049.07 221.402 2049.07 223.347 Q2049.07 224.828 2050.2 225.685 Q2051.34 226.518 2054.76 227.282 L2056.22 227.606 Q2060.76 228.578 2062.65 230.36 Q2064.58 232.12 2064.58 235.291 Q2064.58 238.902 2061.71 241.009 Q2058.86 243.115 2053.86 243.115 Q2051.78 243.115 2049.51 242.698 Q2047.26 242.305 2044.76 241.495 L2044.76 237.097 Q2047.12 238.323 2049.41 238.948 Q2051.71 239.55 2053.95 239.55 Q2056.96 239.55 2058.58 238.532 Q2060.2 237.49 2060.2 235.615 Q2060.2 233.879 2059.02 232.953 Q2057.86 232.027 2053.9 231.171 L2052.42 230.823 Q2048.47 229.99 2046.71 228.277 Q2044.95 226.541 2044.95 223.532 Q2044.95 219.874 2047.54 217.884 Q2050.13 215.893 2054.9 215.893 Q2057.26 215.893 2059.34 216.24 Q2061.43 216.587 2063.19 217.282 Z" fill="#000000" fill-rule="evenodd" fill-opacity="1" /><path clip-path="url(#clip030)" d="M 0 0 M2092.91 226.796 L2092.91 242.444 L2088.65 242.444 L2088.65 226.935 Q2088.65 223.254 2087.21 221.425 Q2085.78 219.597 2082.91 219.597 Q2079.46 219.597 2077.47 221.796 Q2075.48 223.995 2075.48 227.791 L2075.48 242.444 L2071.2 242.444 L2071.2 206.425 L2075.48 206.425 L2075.48 220.546 Q2077.01 218.208 2079.07 217.05 Q2081.15 215.893 2083.86 215.893 Q2088.33 215.893 2090.62 218.671 Q2092.91 221.425 2092.91 226.796 Z" fill="#000000" fill-rule="evenodd" fill-opacity="1" /><path clip-path="url(#clip030)" d="M 0 0 M2101.4 216.518 L2105.66 216.518 L2105.66 242.444 L2101.4 242.444 L2101.4 216.518 M2101.4 206.425 L2105.66 206.425 L2105.66 211.819 L2101.4 211.819 L2101.4 206.425 Z" fill="#000000" fill-rule="evenodd" fill-opacity="1" /><path clip-path="url(#clip030)" d="M 0 0 M2127.7 206.425 L2127.7 209.967 L2123.63 209.967 Q2121.33 209.967 2120.43 210.893 Q2119.55 211.819 2119.55 214.226 L2119.55 216.518 L2126.57 216.518 L2126.57 219.828 L2119.55 219.828 L2119.55 242.444 L2115.27 242.444 L2115.27 219.828 L2111.2 219.828 L2111.2 216.518 L2115.27 216.518 L2115.27 214.712 Q2115.27 210.384 2117.28 208.416 Q2119.3 206.425 2123.67 206.425 L2127.7 206.425 Z" fill="#000000" fill-rule="evenodd" fill-opacity="1" /><path clip-path="url(#clip030)" d="M 0 0 M2134.65 209.157 L2134.65 216.518 L2143.42 216.518 L2143.42 219.828 L2134.65 219.828 L2134.65 233.902 Q2134.65 237.073 2135.5 237.976 Q2136.38 238.879 2139.04 238.879 L2143.42 238.879 L2143.42 242.444 L2139.04 242.444 Q2134.11 242.444 2132.24 240.615 Q2130.36 238.763 2130.36 233.902 L2130.36 219.828 L2127.24 219.828 L2127.24 216.518 L2130.36 216.518 L2130.36 209.157 L2134.65 209.157 Z" fill="#000000" fill-rule="evenodd" fill-opacity="1" /></svg>
