<?xml version="1.0" encoding="utf-8"?>
<svg xmlns="http://www.w3.org/2000/svg" xmlns:xlink="http://www.w3.org/1999/xlink" width="576" height="384" viewBox="0 0 2304 1536">
<defs>
  <clipPath id="clip510">
    <rect x="0" y="0" width="2304" height="1536"/>
  </clipPath>
</defs>
<path clip-path="url(#clip510)" d="
M0 1536 L2304 1536 L2304 0 L0 0  Z
  " fill="#ffffff" fill-rule="evenodd" fill-opacity="1"/>
<defs>
  <clipPath id="clip511">
    <rect x="460" y="0" width="1614" height="1536"/>
  </clipPath>
</defs>
<defs>
  <clipPath id="clip512">
    <rect x="248" y="123" width="2009" height="1237"/>
  </clipPath>
</defs>
<path clip-path="url(#clip510)" d="
M209.24 1363.79 L2256.76 1363.79 L2256.76 123.472 L209.24 123.472  Z
  " fill="#ffffff" fill-rule="evenodd" fill-opacity="1"/>
<defs>
  <clipPath id="clip513">
    <rect x="209" y="123" width="2049" height="1241"/>
  </clipPath>
</defs>
<polyline clip-path="url(#clip513)" style="stroke:#000000; stroke-width:2; stroke-opacity:0.1; fill:none" points="
  261.353,1363.79 261.353,123.472 
  "/>
<polyline clip-path="url(#clip513)" style="stroke:#000000; stroke-width:2; stroke-opacity:0.1; fill:none" points="
  747.662,1363.79 747.662,123.472 
  "/>
<polyline clip-path="url(#clip513)" style="stroke:#000000; stroke-width:2; stroke-opacity:0.1; fill:none" points="
  1233.97,1363.79 1233.97,123.472 
  "/>
<polyline clip-path="url(#clip513)" style="stroke:#000000; stroke-width:2; stroke-opacity:0.1; fill:none" points="
  1720.28,1363.79 1720.28,123.472 
  "/>
<polyline clip-path="url(#clip513)" style="stroke:#000000; stroke-width:2; stroke-opacity:0.1; fill:none" points="
  2206.59,1363.79 2206.59,123.472 
  "/>
<polyline clip-path="url(#clip510)" style="stroke:#000000; stroke-width:4; stroke-opacity:1; fill:none" points="
  209.24,1363.79 2256.76,1363.79 
  "/>
<polyline clip-path="url(#clip510)" style="stroke:#000000; stroke-width:4; stroke-opacity:1; fill:none" points="
  261.353,1363.79 261.353,1348.91 
  "/>
<polyline clip-path="url(#clip510)" style="stroke:#000000; stroke-width:4; stroke-opacity:1; fill:none" points="
  747.662,1363.79 747.662,1348.91 
  "/>
<polyline clip-path="url(#clip510)" style="stroke:#000000; stroke-width:4; stroke-opacity:1; fill:none" points="
  1233.97,1363.79 1233.97,1348.91 
  "/>
<polyline clip-path="url(#clip510)" style="stroke:#000000; stroke-width:4; stroke-opacity:1; fill:none" points="
  1720.28,1363.79 1720.28,1348.91 
  "/>
<polyline clip-path="url(#clip510)" style="stroke:#000000; stroke-width:4; stroke-opacity:1; fill:none" points="
  2206.59,1363.79 2206.59,1348.91 
  "/>
<path clip-path="url(#clip510)" d="M 0 0 M238.737 1392.21 Q235.126 1392.21 233.297 1395.78 Q231.492 1399.32 231.492 1406.45 Q231.492 1413.56 233.297 1417.12 Q235.126 1420.66 238.737 1420.66 Q242.371 1420.66 244.177 1417.12 Q246.006 1413.56 246.006 1406.45 Q246.006 1399.32 244.177 1395.78 Q242.371 1392.21 238.737 1392.21 M238.737 1388.51 Q244.547 1388.51 247.603 1393.12 Q250.682 1397.7 250.682 1406.45 Q250.682 1415.18 247.603 1419.78 Q244.547 1424.37 238.737 1424.37 Q232.927 1424.37 229.848 1419.78 Q226.793 1415.18 226.793 1406.45 Q226.793 1397.7 229.848 1393.12 Q232.927 1388.51 238.737 1388.51 Z" fill="#000000" fill-rule="evenodd" fill-opacity="1" /><path clip-path="url(#clip510)" d="M 0 0 M258.899 1417.81 L263.783 1417.81 L263.783 1423.69 L258.899 1423.69 L258.899 1417.81 Z" fill="#000000" fill-rule="evenodd" fill-opacity="1" /><path clip-path="url(#clip510)" d="M 0 0 M283.968 1392.21 Q280.357 1392.21 278.529 1395.78 Q276.723 1399.32 276.723 1406.45 Q276.723 1413.56 278.529 1417.12 Q280.357 1420.66 283.968 1420.66 Q287.603 1420.66 289.408 1417.12 Q291.237 1413.56 291.237 1406.45 Q291.237 1399.32 289.408 1395.78 Q287.603 1392.21 283.968 1392.21 M283.968 1388.51 Q289.779 1388.51 292.834 1393.12 Q295.913 1397.7 295.913 1406.45 Q295.913 1415.18 292.834 1419.78 Q289.779 1424.37 283.968 1424.37 Q278.158 1424.37 275.08 1419.78 Q272.024 1415.18 272.024 1406.45 Q272.024 1397.7 275.08 1393.12 Q278.158 1388.51 283.968 1388.51 Z" fill="#000000" fill-rule="evenodd" fill-opacity="1" /><path clip-path="url(#clip510)" d="M 0 0 M719.398 1419.76 L735.717 1419.76 L735.717 1423.69 L713.773 1423.69 L713.773 1419.76 Q716.435 1417 721.018 1412.37 Q725.625 1407.72 726.805 1406.38 Q729.051 1403.86 729.93 1402.12 Q730.833 1400.36 730.833 1398.67 Q730.833 1395.92 728.889 1394.18 Q726.967 1392.44 723.866 1392.44 Q721.666 1392.44 719.213 1393.21 Q716.782 1393.97 714.004 1395.52 L714.004 1390.8 Q716.829 1389.67 719.282 1389.09 Q721.736 1388.51 723.773 1388.51 Q729.143 1388.51 732.338 1391.19 Q735.532 1393.88 735.532 1398.37 Q735.532 1400.5 734.722 1402.42 Q733.935 1404.32 731.828 1406.91 Q731.25 1407.58 728.148 1410.8 Q725.046 1413.99 719.398 1419.76 Z" fill="#000000" fill-rule="evenodd" fill-opacity="1" /><path clip-path="url(#clip510)" d="M 0 0 M745.532 1417.81 L750.416 1417.81 L750.416 1423.69 L745.532 1423.69 L745.532 1417.81 Z" fill="#000000" fill-rule="evenodd" fill-opacity="1" /><path clip-path="url(#clip510)" d="M 0 0 M760.648 1389.13 L779.004 1389.13 L779.004 1393.07 L764.93 1393.07 L764.93 1401.54 Q765.949 1401.19 766.967 1401.03 Q767.986 1400.85 769.004 1400.85 Q774.791 1400.85 778.171 1404.02 Q781.55 1407.19 781.55 1412.61 Q781.55 1418.18 778.078 1421.29 Q774.606 1424.37 768.287 1424.37 Q766.111 1424.37 763.842 1423.99 Q761.597 1423.62 759.189 1422.88 L759.189 1418.18 Q761.273 1419.32 763.495 1419.87 Q765.717 1420.43 768.194 1420.43 Q772.199 1420.43 774.537 1418.32 Q776.875 1416.22 776.875 1412.61 Q776.875 1408.99 774.537 1406.89 Q772.199 1404.78 768.194 1404.78 Q766.319 1404.78 764.444 1405.2 Q762.592 1405.62 760.648 1406.49 L760.648 1389.13 Z" fill="#000000" fill-rule="evenodd" fill-opacity="1" /><path clip-path="url(#clip510)" d="M 0 0 M1201.14 1389.13 L1219.49 1389.13 L1219.49 1393.07 L1205.42 1393.07 L1205.42 1401.54 Q1206.44 1401.19 1207.45 1401.03 Q1208.47 1400.85 1209.49 1400.85 Q1215.28 1400.85 1218.66 1404.02 Q1222.04 1407.19 1222.04 1412.61 Q1222.04 1418.18 1218.57 1421.29 Q1215.09 1424.37 1208.77 1424.37 Q1206.6 1424.37 1204.33 1423.99 Q1202.08 1423.62 1199.68 1422.88 L1199.68 1418.18 Q1201.76 1419.32 1203.98 1419.87 Q1206.2 1420.43 1208.68 1420.43 Q1212.69 1420.43 1215.02 1418.32 Q1217.36 1416.22 1217.36 1412.61 Q1217.36 1408.99 1215.02 1406.89 Q1212.69 1404.78 1208.68 1404.78 Q1206.81 1404.78 1204.93 1405.2 Q1203.08 1405.62 1201.14 1406.49 L1201.14 1389.13 Z" fill="#000000" fill-rule="evenodd" fill-opacity="1" /><path clip-path="url(#clip510)" d="M 0 0 M1231.25 1417.81 L1236.13 1417.81 L1236.13 1423.69 L1231.25 1423.69 L1231.25 1417.81 Z" fill="#000000" fill-rule="evenodd" fill-opacity="1" /><path clip-path="url(#clip510)" d="M 0 0 M1256.32 1392.21 Q1252.71 1392.21 1250.88 1395.78 Q1249.07 1399.32 1249.07 1406.45 Q1249.07 1413.56 1250.88 1417.12 Q1252.71 1420.66 1256.32 1420.66 Q1259.95 1420.66 1261.76 1417.12 Q1263.59 1413.56 1263.59 1406.45 Q1263.59 1399.32 1261.76 1395.78 Q1259.95 1392.21 1256.32 1392.21 M1256.32 1388.51 Q1262.13 1388.51 1265.19 1393.12 Q1268.26 1397.7 1268.26 1406.45 Q1268.26 1415.18 1265.19 1419.78 Q1262.13 1424.37 1256.32 1424.37 Q1250.51 1424.37 1247.43 1419.78 Q1244.38 1415.18 1244.38 1406.45 Q1244.38 1397.7 1247.43 1393.12 Q1250.51 1388.51 1256.32 1388.51 Z" fill="#000000" fill-rule="evenodd" fill-opacity="1" /><path clip-path="url(#clip510)" d="M 0 0 M1686.6 1389.13 L1708.82 1389.13 L1708.82 1391.12 L1696.27 1423.69 L1691.39 1423.69 L1703.2 1393.07 L1686.6 1393.07 L1686.6 1389.13 Z" fill="#000000" fill-rule="evenodd" fill-opacity="1" /><path clip-path="url(#clip510)" d="M 0 0 M1717.94 1417.81 L1722.83 1417.81 L1722.83 1423.69 L1717.94 1423.69 L1717.94 1417.81 Z" fill="#000000" fill-rule="evenodd" fill-opacity="1" /><path clip-path="url(#clip510)" d="M 0 0 M1733.06 1389.13 L1751.41 1389.13 L1751.41 1393.07 L1737.34 1393.07 L1737.34 1401.54 Q1738.36 1401.19 1739.38 1401.03 Q1740.4 1400.85 1741.41 1400.85 Q1747.2 1400.85 1750.58 1404.02 Q1753.96 1407.19 1753.96 1412.61 Q1753.96 1418.18 1750.49 1421.29 Q1747.02 1424.37 1740.7 1424.37 Q1738.52 1424.37 1736.25 1423.99 Q1734.01 1423.62 1731.6 1422.88 L1731.6 1418.18 Q1733.68 1419.32 1735.9 1419.87 Q1738.13 1420.43 1740.6 1420.43 Q1744.61 1420.43 1746.95 1418.32 Q1749.28 1416.22 1749.28 1412.61 Q1749.28 1408.99 1746.95 1406.89 Q1744.61 1404.78 1740.6 1404.78 Q1738.73 1404.78 1736.85 1405.2 Q1735 1405.62 1733.06 1406.49 L1733.06 1389.13 Z" fill="#000000" fill-rule="evenodd" fill-opacity="1" /><path clip-path="url(#clip510)" d="M 0 0 M2158.66 1419.76 L2166.3 1419.76 L2166.3 1393.39 L2157.99 1395.06 L2157.99 1390.8 L2166.25 1389.13 L2170.93 1389.13 L2170.93 1419.76 L2178.57 1419.76 L2178.57 1423.69 L2158.66 1423.69 L2158.66 1419.76 Z" fill="#000000" fill-rule="evenodd" fill-opacity="1" /><path clip-path="url(#clip510)" d="M 0 0 M2198.01 1392.21 Q2194.4 1392.21 2192.57 1395.78 Q2190.77 1399.32 2190.77 1406.45 Q2190.77 1413.56 2192.57 1417.12 Q2194.4 1420.66 2198.01 1420.66 Q2201.65 1420.66 2203.45 1417.12 Q2205.28 1413.56 2205.28 1406.45 Q2205.28 1399.32 2203.45 1395.78 Q2201.65 1392.21 2198.01 1392.21 M2198.01 1388.51 Q2203.82 1388.51 2206.88 1393.12 Q2209.96 1397.7 2209.96 1406.45 Q2209.96 1415.18 2206.88 1419.78 Q2203.82 1424.37 2198.01 1424.37 Q2192.2 1424.37 2189.12 1419.78 Q2186.07 1415.18 2186.07 1406.45 Q2186.07 1397.7 2189.12 1393.12 Q2192.2 1388.51 2198.01 1388.51 Z" fill="#000000" fill-rule="evenodd" fill-opacity="1" /><path clip-path="url(#clip510)" d="M 0 0 M2218.17 1417.81 L2223.06 1417.81 L2223.06 1423.69 L2218.17 1423.69 L2218.17 1417.81 Z" fill="#000000" fill-rule="evenodd" fill-opacity="1" /><path clip-path="url(#clip510)" d="M 0 0 M2243.24 1392.21 Q2239.63 1392.21 2237.8 1395.78 Q2236 1399.32 2236 1406.45 Q2236 1413.56 2237.8 1417.12 Q2239.63 1420.66 2243.24 1420.66 Q2246.88 1420.66 2248.68 1417.12 Q2250.51 1413.56 2250.51 1406.45 Q2250.51 1399.32 2248.68 1395.78 Q2246.88 1392.21 2243.24 1392.21 M2243.24 1388.51 Q2249.05 1388.51 2252.11 1393.12 Q2255.19 1397.7 2255.19 1406.45 Q2255.19 1415.18 2252.11 1419.78 Q2249.05 1424.37 2243.24 1424.37 Q2237.43 1424.37 2234.35 1419.78 Q2231.3 1415.18 2231.3 1406.45 Q2231.3 1397.7 2234.35 1393.12 Q2237.43 1388.51 2243.24 1388.51 Z" fill="#000000" fill-rule="evenodd" fill-opacity="1" /><path clip-path="url(#clip510)" d="M 0 0 M1183.53 1465.79 Q1183.53 1468.04 1180.28 1468.04 L1169.2 1468.04 L1164.79 1490.62 Q1164.69 1491.2 1164.56 1491.52 Q1164.46 1491.84 1164.17 1492.39 Q1163.92 1492.9 1163.37 1493.16 Q1162.85 1493.45 1162.08 1493.45 Q1161.11 1493.45 1160.63 1492.87 Q1160.18 1492.33 1160.18 1491.65 Q1160.18 1491.23 1160.82 1489.23 L1167.3 1468.04 L1161.82 1468.04 Q1156.67 1468.04 1153.45 1473.13 Q1152.93 1473.81 1152.64 1473.87 Q1152.51 1473.9 1152.39 1473.9 Q1152.03 1473.9 1151.81 1473.74 Q1151.61 1473.58 1151.61 1473.42 L1151.58 1473.26 Q1151.58 1473.03 1152.1 1472.13 Q1152.64 1471.2 1153.61 1469.81 Q1154.61 1468.43 1155.61 1467.33 Q1156.93 1465.92 1158.41 1465.18 Q1159.89 1464.4 1160.63 1464.31 Q1161.4 1464.21 1162.4 1464.21 L1180.89 1464.21 Q1181.73 1464.21 1182.18 1464.27 Q1182.63 1464.31 1183.08 1464.69 Q1183.53 1465.05 1183.53 1465.79 Z" fill="#000000" fill-rule="evenodd" fill-opacity="1" /><path clip-path="url(#clip510)" d="M 0 0 M1201.82 1476.16 Q1201.82 1465.01 1205.97 1456.03 Q1207.74 1452.26 1210.22 1449.11 Q1212.7 1445.95 1214.35 1444.56 Q1215.99 1443.18 1216.44 1443.18 Q1217.08 1443.18 1217.12 1443.82 Q1217.12 1444.15 1216.25 1444.95 Q1205.62 1455.77 1205.65 1476.16 Q1205.65 1496.61 1215.99 1507.01 Q1217.12 1508.14 1217.12 1508.49 Q1217.12 1509.14 1216.44 1509.14 Q1215.99 1509.14 1214.41 1507.82 Q1212.83 1506.5 1210.39 1503.47 Q1207.94 1500.44 1206.17 1496.74 Q1201.82 1487.75 1201.82 1476.16 Z" fill="#000000" fill-rule="evenodd" fill-opacity="1" /><path clip-path="url(#clip510)" d="M 0 0 M1227.14 1492.65 L1227.14 1490.62 Q1230.66 1490.62 1231.46 1490.2 Q1232.27 1489.75 1232.27 1487.62 L1232.27 1469.94 Q1232.27 1467.49 1231.4 1466.88 Q1230.56 1466.27 1227.14 1466.27 L1227.14 1464.21 L1236.42 1463.5 L1236.42 1470.43 Q1239.51 1463.5 1246.18 1463.5 Q1251.14 1463.5 1253.1 1465.95 Q1254.55 1467.59 1254.84 1469.43 Q1255.16 1471.26 1255.16 1476.03 L1255.16 1488.62 Q1255.23 1490.01 1256.29 1490.33 Q1257.35 1490.62 1260.32 1490.62 L1260.32 1492.65 Q1253.59 1492.45 1252.91 1492.45 Q1252.39 1492.45 1245.47 1492.65 L1245.47 1490.62 Q1248.98 1490.62 1249.79 1490.2 Q1250.62 1489.75 1250.62 1487.62 L1250.62 1472.26 Q1250.62 1468.91 1249.59 1466.95 Q1248.56 1464.95 1245.73 1464.95 Q1242.31 1464.95 1239.58 1467.82 Q1236.84 1470.68 1236.84 1475.51 L1236.84 1487.62 Q1236.84 1489.75 1237.64 1490.2 Q1238.48 1490.62 1241.96 1490.62 L1241.96 1492.65 Q1235.23 1492.45 1234.58 1492.45 Q1234.07 1492.45 1227.14 1492.65 Z" fill="#000000" fill-rule="evenodd" fill-opacity="1" /><path clip-path="url(#clip510)" d="M 0 0 M1263.38 1491.78 L1263.38 1483.08 Q1263.38 1482.34 1263.41 1482.08 Q1263.44 1481.83 1263.64 1481.63 Q1263.83 1481.44 1264.22 1481.44 Q1264.67 1481.44 1264.83 1481.63 Q1265.02 1481.83 1265.15 1482.57 Q1266.15 1487.11 1268.28 1489.52 Q1270.43 1491.91 1274.33 1491.91 Q1278.03 1491.91 1279.9 1490.26 Q1281.77 1488.62 1281.77 1485.92 Q1281.77 1481.09 1274.91 1479.86 Q1270.95 1479.06 1269.31 1478.54 Q1267.66 1477.99 1266.21 1476.8 Q1263.38 1474.48 1263.38 1471.2 Q1263.38 1467.91 1265.86 1465.5 Q1268.37 1463.08 1273.91 1463.08 Q1277.61 1463.08 1280.13 1464.95 Q1280.87 1464.37 1281.25 1463.89 Q1282.12 1463.08 1282.57 1463.08 Q1283.09 1463.08 1283.19 1463.44 Q1283.28 1463.76 1283.28 1464.69 L1283.28 1471.33 Q1283.28 1472.07 1283.25 1472.33 Q1283.22 1472.58 1283.03 1472.78 Q1282.83 1472.94 1282.41 1472.94 Q1281.67 1472.94 1281.64 1472.33 Q1281.13 1464.34 1273.91 1464.34 Q1270.01 1464.34 1268.28 1465.85 Q1266.54 1467.33 1266.54 1469.36 Q1266.54 1470.49 1267.05 1471.36 Q1267.6 1472.2 1268.28 1472.71 Q1268.98 1473.2 1270.27 1473.68 Q1271.56 1474.13 1272.33 1474.29 Q1273.14 1474.45 1274.65 1474.77 Q1279.93 1475.77 1282.16 1477.93 Q1284.93 1480.7 1284.93 1484.21 Q1284.93 1488.11 1282.28 1490.75 Q1279.64 1493.39 1274.33 1493.39 Q1270.05 1493.39 1267.05 1490.52 Q1266.66 1490.91 1266.37 1491.26 Q1266.09 1491.58 1265.96 1491.71 Q1265.86 1491.84 1265.83 1491.94 Q1265.8 1492 1265.73 1492.07 Q1264.41 1493.39 1264.09 1493.39 Q1263.57 1493.39 1263.48 1493.03 Q1263.38 1492.71 1263.38 1491.78 Z" fill="#000000" fill-rule="evenodd" fill-opacity="1" /><path clip-path="url(#clip510)" d="M 0 0 M1289.09 1508.49 Q1289.09 1508.17 1289.93 1507.37 Q1300.55 1496.54 1300.55 1476.16 Q1300.55 1455.71 1290.34 1445.37 Q1289.09 1444.18 1289.09 1443.82 Q1289.09 1443.18 1289.73 1443.18 Q1290.18 1443.18 1291.76 1444.5 Q1293.37 1445.82 1295.79 1448.85 Q1298.24 1451.87 1300.04 1455.58 Q1304.39 1464.56 1304.39 1476.16 Q1304.39 1487.3 1300.23 1496.29 Q1298.46 1500.05 1295.98 1503.21 Q1293.5 1506.37 1291.86 1507.75 Q1290.22 1509.14 1289.73 1509.14 Q1289.09 1509.14 1289.09 1508.49 Z" fill="#000000" fill-rule="evenodd" fill-opacity="1" /><polyline clip-path="url(#clip513)" style="stroke:#000000; stroke-width:2; stroke-opacity:0.1; fill:none" points="
  209.24,1228.39 2256.76,1228.39 
  "/>
<polyline clip-path="url(#clip513)" style="stroke:#000000; stroke-width:2; stroke-opacity:0.1; fill:none" points="
  209.24,927.506 2256.76,927.506 
  "/>
<polyline clip-path="url(#clip513)" style="stroke:#000000; stroke-width:2; stroke-opacity:0.1; fill:none" points="
  209.24,626.62 2256.76,626.62 
  "/>
<polyline clip-path="url(#clip513)" style="stroke:#000000; stroke-width:2; stroke-opacity:0.1; fill:none" points="
  209.24,325.734 2256.76,325.734 
  "/>
<polyline clip-path="url(#clip510)" style="stroke:#000000; stroke-width:4; stroke-opacity:1; fill:none" points="
  209.24,1363.79 209.24,123.472 
  "/>
<polyline clip-path="url(#clip510)" style="stroke:#000000; stroke-width:4; stroke-opacity:1; fill:none" points="
  209.24,1228.39 233.81,1228.39 
  "/>
<polyline clip-path="url(#clip510)" style="stroke:#000000; stroke-width:4; stroke-opacity:1; fill:none" points="
  209.24,927.506 233.81,927.506 
  "/>
<polyline clip-path="url(#clip510)" style="stroke:#000000; stroke-width:4; stroke-opacity:1; fill:none" points="
  209.24,626.62 233.81,626.62 
  "/>
<polyline clip-path="url(#clip510)" style="stroke:#000000; stroke-width:4; stroke-opacity:1; fill:none" points="
  209.24,325.734 233.81,325.734 
  "/>
<path clip-path="url(#clip510)" d="M 0 0 M123.384 1241.74 L131.023 1241.74 L131.023 1215.37 L122.713 1217.04 L122.713 1212.78 L130.977 1211.11 L135.652 1211.11 L135.652 1241.74 L143.291 1241.74 L143.291 1245.67 L123.384 1245.67 L123.384 1241.74 Z" fill="#000000" fill-rule="evenodd" fill-opacity="1" /><path clip-path="url(#clip510)" d="M 0 0 M162.736 1214.19 Q159.125 1214.19 157.296 1217.75 Q155.49 1221.3 155.49 1228.43 Q155.49 1235.53 157.296 1239.1 Q159.125 1242.64 162.736 1242.64 Q166.37 1242.64 168.175 1239.1 Q170.004 1235.53 170.004 1228.43 Q170.004 1221.3 168.175 1217.75 Q166.37 1214.19 162.736 1214.19 M162.736 1210.49 Q168.546 1210.49 171.601 1215.09 Q174.68 1219.68 174.68 1228.43 Q174.68 1237.15 171.601 1241.76 Q168.546 1246.34 162.736 1246.34 Q156.925 1246.34 153.847 1241.76 Q150.791 1237.15 150.791 1228.43 Q150.791 1219.68 153.847 1215.09 Q156.925 1210.49 162.736 1210.49 Z" fill="#000000" fill-rule="evenodd" fill-opacity="1" /><path clip-path="url(#clip510)" d="M 0 0 M124.379 940.85 L132.018 940.85 L132.018 914.485 L123.708 916.151 L123.708 911.892 L131.972 910.226 L136.648 910.226 L136.648 940.85 L144.287 940.85 L144.287 944.786 L124.379 944.786 L124.379 940.85 Z" fill="#000000" fill-rule="evenodd" fill-opacity="1" /><path clip-path="url(#clip510)" d="M 0 0 M153.777 910.226 L172.134 910.226 L172.134 914.161 L158.06 914.161 L158.06 922.633 Q159.078 922.286 160.097 922.124 Q161.115 921.938 162.134 921.938 Q167.921 921.938 171.3 925.11 Q174.68 928.281 174.68 933.698 Q174.68 939.276 171.208 942.378 Q167.736 945.457 161.416 945.457 Q159.24 945.457 156.972 945.087 Q154.726 944.716 152.319 943.975 L152.319 939.276 Q154.402 940.411 156.625 940.966 Q158.847 941.522 161.324 941.522 Q165.328 941.522 167.666 939.415 Q170.004 937.309 170.004 933.698 Q170.004 930.087 167.666 927.98 Q165.328 925.874 161.324 925.874 Q159.449 925.874 157.574 926.29 Q155.722 926.707 153.777 927.587 L153.777 910.226 Z" fill="#000000" fill-rule="evenodd" fill-opacity="1" /><path clip-path="url(#clip510)" d="M 0 0 M126.602 639.965 L142.921 639.965 L142.921 643.9 L120.977 643.9 L120.977 639.965 Q123.639 637.21 128.222 632.58 Q132.828 627.928 134.009 626.585 Q136.254 624.062 137.134 622.326 Q138.037 620.567 138.037 618.877 Q138.037 616.122 136.092 614.386 Q134.171 612.65 131.069 612.65 Q128.87 612.65 126.416 613.414 Q123.986 614.178 121.208 615.729 L121.208 611.007 Q124.032 609.872 126.486 609.294 Q128.939 608.715 130.977 608.715 Q136.347 608.715 139.541 611.4 Q142.736 614.085 142.736 618.576 Q142.736 620.706 141.926 622.627 Q141.138 624.525 139.032 627.118 Q138.453 627.789 135.351 631.006 Q132.25 634.201 126.602 639.965 Z" fill="#000000" fill-rule="evenodd" fill-opacity="1" /><path clip-path="url(#clip510)" d="M 0 0 M162.736 612.419 Q159.125 612.419 157.296 615.983 Q155.49 619.525 155.49 626.655 Q155.49 633.761 157.296 637.326 Q159.125 640.867 162.736 640.867 Q166.37 640.867 168.175 637.326 Q170.004 633.761 170.004 626.655 Q170.004 619.525 168.175 615.983 Q166.37 612.419 162.736 612.419 M162.736 608.715 Q168.546 608.715 171.601 613.321 Q174.68 617.905 174.68 626.655 Q174.68 635.381 171.601 639.988 Q168.546 644.571 162.736 644.571 Q156.925 644.571 153.847 639.988 Q150.791 635.381 150.791 626.655 Q150.791 617.905 153.847 613.321 Q156.925 608.715 162.736 608.715 Z" fill="#000000" fill-rule="evenodd" fill-opacity="1" /><path clip-path="url(#clip510)" d="M 0 0 M127.597 339.079 L143.916 339.079 L143.916 343.014 L121.972 343.014 L121.972 339.079 Q124.634 336.324 129.217 331.695 Q133.824 327.042 135.004 325.699 Q137.25 323.176 138.129 321.44 Q139.032 319.681 139.032 317.991 Q139.032 315.237 137.088 313.5 Q135.166 311.764 132.064 311.764 Q129.865 311.764 127.412 312.528 Q124.981 313.292 122.203 314.843 L122.203 310.121 Q125.027 308.987 127.481 308.408 Q129.935 307.829 131.972 307.829 Q137.342 307.829 140.537 310.514 Q143.731 313.2 143.731 317.69 Q143.731 319.82 142.921 321.741 Q142.134 323.639 140.027 326.232 Q139.449 326.903 136.347 330.121 Q133.245 333.315 127.597 339.079 Z" fill="#000000" fill-rule="evenodd" fill-opacity="1" /><path clip-path="url(#clip510)" d="M 0 0 M153.777 308.454 L172.134 308.454 L172.134 312.389 L158.06 312.389 L158.06 320.862 Q159.078 320.514 160.097 320.352 Q161.115 320.167 162.134 320.167 Q167.921 320.167 171.3 323.338 Q174.68 326.51 174.68 331.926 Q174.68 337.505 171.208 340.607 Q167.736 343.685 161.416 343.685 Q159.24 343.685 156.972 343.315 Q154.726 342.945 152.319 342.204 L152.319 337.505 Q154.402 338.639 156.625 339.195 Q158.847 339.75 161.324 339.75 Q165.328 339.75 167.666 337.644 Q170.004 335.537 170.004 331.926 Q170.004 328.315 167.666 326.209 Q165.328 324.102 161.324 324.102 Q159.449 324.102 157.574 324.519 Q155.722 324.936 153.777 325.815 L153.777 308.454 Z" fill="#000000" fill-rule="evenodd" fill-opacity="1" /><path clip-path="url(#clip510)" d="M 0 0 M52.0905 804.127 Q52.1227 804.127 53.2821 804.32 L82.5572 811.663 Q84.1031 812.049 85.649 813.144 Q87.2271 814.207 88.5797 815.914 Q89.9646 817.589 90.8019 820.165 Q91.6715 822.71 91.6715 825.64 Q91.6715 830.31 90.6731 832.371 Q89.7069 834.4 87.6457 834.4 Q85.8422 834.4 84.8116 833.273 Q83.8132 832.146 83.8132 830.858 Q83.8132 829.634 84.5218 828.99 Q85.2303 828.346 86.1321 828.346 Q87.1305 828.346 88.1288 829.022 Q89.1594 829.698 89.5459 831.051 Q90.2222 828.893 90.2222 825.769 Q90.2222 819.167 83.2335 816.333 Q83.1369 816.268 83.1047 816.268 L74.3769 814.078 L74.3125 814.175 Q74.9566 814.723 75.6974 815.592 Q76.4059 816.429 77.2755 818.233 Q78.145 820.037 78.145 821.808 Q78.145 825.512 75.3109 828.056 Q72.4446 830.568 67.7103 830.568 Q64.2643 830.568 60.8183 829.183 Q57.34 827.766 54.7958 825.576 Q52.2193 823.354 50.609 820.52 Q48.9987 817.653 48.9987 814.884 Q48.9987 812.951 50.1581 811.309 Q51.2853 809.666 53.1533 808.764 Q51.6074 808.603 50.9633 807.734 Q50.3192 806.832 50.3192 806.059 Q50.3192 805.19 50.8022 804.674 Q51.2531 804.127 52.0905 804.127 M56.1162 809.537 Q55.923 809.537 55.4077 809.666 Q54.8602 809.795 53.9906 810.182 Q53.1211 810.536 52.3481 811.083 Q51.5752 811.631 51.0277 812.629 Q50.448 813.595 50.448 814.819 Q50.448 816.816 52.1227 818.813 Q53.7652 820.809 56.3094 822.194 Q58.7571 823.483 63.4914 824.706 Q68.2256 825.898 70.6411 825.898 Q73.0243 825.898 74.86 824.867 Q76.6958 823.837 76.6958 821.615 Q76.6958 819.038 74.3125 816.268 Q71.8327 813.402 69.7071 812.919 L57.1146 809.731 Q56.3416 809.537 56.1162 809.537 Z" fill="#000000" fill-rule="evenodd" fill-opacity="1" /><path clip-path="url(#clip510)" d="M 0 0 M36.5958 797.39 Q28.7956 797.39 22.5058 794.482 Q19.8681 793.242 17.6588 791.506 Q15.4495 789.77 14.4801 788.621 Q13.5107 787.471 13.5107 787.155 Q13.5107 786.704 13.9616 786.682 Q14.187 786.682 14.7506 787.291 Q22.3254 794.73 36.5958 794.708 Q50.9113 794.708 58.1931 787.471 Q58.9821 786.682 59.2301 786.682 Q59.681 786.682 59.681 787.155 Q59.681 787.471 58.7567 788.576 Q57.8324 789.68 55.7132 791.394 Q53.5941 793.107 51.0015 794.347 Q44.7117 797.39 36.5958 797.39 Z" fill="#000000" fill-rule="evenodd" fill-opacity="1" /><path clip-path="url(#clip510)" d="M 0 0 M48.1384 779.662 Q47.3043 779.662 47.0563 779.594 Q46.8083 779.504 46.4251 779.143 L36.5507 770.284 Q31.0951 765.437 26.3383 765.437 Q23.2497 765.437 21.0404 767.06 Q18.8311 768.66 18.8311 771.614 Q18.8311 773.643 20.071 775.356 Q21.3109 777.069 23.5203 777.858 Q23.4752 777.723 23.4752 777.25 Q23.4752 776.1 24.1966 775.469 Q24.918 774.815 25.8874 774.815 Q27.1273 774.815 27.736 775.627 Q28.3222 776.416 28.3222 777.205 Q28.3222 777.52 28.2545 777.949 Q28.1869 778.354 27.5557 779.008 Q26.9019 779.662 25.7521 779.662 Q22.5283 779.662 19.9583 777.227 Q17.3883 774.77 17.3883 771.028 Q17.3883 766.789 19.9132 764.016 Q22.4156 761.221 26.3383 761.221 Q27.7135 761.221 28.9759 761.649 Q30.2159 762.055 31.1853 762.619 Q32.1546 763.16 33.7102 764.648 Q35.2657 766.136 36.3704 767.33 Q37.4751 768.525 39.8196 771.208 L44.5764 776.1 L44.5764 767.781 Q44.5764 763.723 44.2157 763.408 Q43.562 762.957 40.1127 762.393 L40.1127 761.221 L48.1384 762.528 L48.1384 779.662 Z" fill="#000000" fill-rule="evenodd" fill-opacity="1" /><path clip-path="url(#clip510)" d="M 0 0 M59.2301 756.798 Q59.0047 756.798 58.4411 756.212 Q50.8663 748.773 36.5958 748.773 Q22.2803 748.773 15.0437 755.919 Q14.2095 756.798 13.9616 756.798 Q13.5107 756.798 13.5107 756.347 Q13.5107 756.032 14.435 754.927 Q15.3593 753.8 17.4784 752.109 Q19.5976 750.396 22.1902 749.133 Q28.48 746.09 36.5958 746.09 Q44.3961 746.09 50.6859 748.998 Q53.3236 750.238 55.5329 751.974 Q57.7422 753.71 58.7116 754.859 Q59.681 756.009 59.681 756.347 Q59.681 756.798 59.2301 756.798 Z" fill="#000000" fill-rule="evenodd" fill-opacity="1" /><path clip-path="url(#clip510)" d="M 0 0 M61.6556 732.03 Q50.5124 732.03 41.527 727.875 Q37.7589 726.104 34.6027 723.624 Q31.4465 721.144 30.0617 719.502 Q28.6768 717.859 28.6768 717.408 Q28.6768 716.764 29.3209 716.732 Q29.643 716.732 30.4481 717.602 Q41.2693 728.23 61.6556 728.197 Q82.1063 728.197 92.5088 717.859 Q93.636 716.732 93.9903 716.732 Q94.6344 716.732 94.6344 717.408 Q94.6344 717.859 93.314 719.437 Q91.9935 721.016 88.9662 723.463 Q85.9388 725.911 82.2352 727.682 Q73.2497 732.03 61.6556 732.03 Z" fill="#000000" fill-rule="evenodd" fill-opacity="1" /><path clip-path="url(#clip510)" d="M 0 0 M51.2853 674.756 Q53.5397 674.756 53.5397 678.008 L53.5397 689.087 L76.116 693.499 Q76.6958 693.596 77.0178 693.725 Q77.3399 693.821 77.8874 694.111 Q78.4027 694.369 78.6603 694.916 Q78.9502 695.432 78.9502 696.205 Q78.9502 697.171 78.3705 697.654 Q77.823 698.105 77.1466 698.105 Q76.728 698.105 74.7312 697.461 L53.5397 690.987 L53.5397 696.462 Q53.5397 701.615 58.6283 704.836 Q59.3046 705.351 59.369 705.641 Q59.4012 705.77 59.4012 705.899 Q59.4012 706.253 59.2402 706.478 Q59.0791 706.672 58.9181 706.672 L58.7571 706.704 Q58.5316 706.704 57.6299 706.188 Q56.6959 705.641 55.3111 704.675 Q53.9262 703.676 52.8312 702.678 Q51.4142 701.358 50.6734 699.876 Q49.9005 698.395 49.8039 697.654 Q49.7072 696.881 49.7072 695.883 L49.7072 677.396 Q49.7072 676.559 49.7717 676.108 Q49.8039 675.657 50.1903 675.206 Q50.5446 674.756 51.2853 674.756 Z" fill="#000000" fill-rule="evenodd" fill-opacity="1" /><path clip-path="url(#clip510)" d="M 0 0 M93.9903 678.188 Q93.6682 678.188 92.8631 677.35 Q82.0419 666.723 61.6556 666.723 Q41.2049 666.723 30.8668 676.932 Q29.6752 678.188 29.3209 678.188 Q28.6768 678.188 28.6768 677.544 Q28.6768 677.093 29.9973 675.515 Q31.3177 673.904 34.345 671.489 Q37.3724 669.041 41.0761 667.238 Q50.0615 662.89 61.6556 662.89 Q72.7988 662.89 81.7843 667.045 Q85.5524 668.816 88.7085 671.296 Q91.8647 673.776 93.2496 675.418 Q94.6344 677.061 94.6344 677.544 Q94.6344 678.188 93.9903 678.188 Z" fill="#000000" fill-rule="evenodd" fill-opacity="1" /><path clip-path="url(#clip510)" d="M 0 0 M525.609 18.8205 L525.609 41.5461 L535.898 41.5461 Q541.61 41.5461 544.729 38.5889 Q547.848 35.6318 547.848 30.163 Q547.848 24.7348 544.729 21.7777 Q541.61 18.8205 535.898 18.8205 L525.609 18.8205 M517.426 12.096 L535.898 12.096 Q546.066 12.096 551.251 16.714 Q556.477 21.2916 556.477 30.163 Q556.477 39.1155 551.251 43.6931 Q546.066 48.2706 535.898 48.2706 L525.609 48.2706 L525.609 72.576 L517.426 72.576 L517.426 12.096 Z" fill="#000000" fill-rule="evenodd" fill-opacity="1" /><path clip-path="url(#clip510)" d="M 0 0 M604.844 45.1919 L604.844 72.576 L597.391 72.576 L597.391 45.4349 Q597.391 38.994 594.879 35.7938 Q592.368 32.5936 587.345 32.5936 Q581.309 32.5936 577.825 36.4419 Q574.341 40.2903 574.341 46.9338 L574.341 72.576 L566.847 72.576 L566.847 9.54393 L574.341 9.54393 L574.341 34.2544 Q577.015 30.163 580.62 28.1376 Q584.266 26.1121 589.005 26.1121 Q596.824 26.1121 600.834 30.9732 Q604.844 35.7938 604.844 45.1919 Z" fill="#000000" fill-rule="evenodd" fill-opacity="1" /><path clip-path="url(#clip510)" d="M 0 0 M637.292 32.4315 Q631.297 32.4315 627.813 37.1306 Q624.329 41.7891 624.329 49.9314 Q624.329 58.0738 627.773 62.7728 Q631.256 67.4314 637.292 67.4314 Q643.247 67.4314 646.731 62.7323 Q650.215 58.0333 650.215 49.9314 Q650.215 41.8701 646.731 37.1711 Q643.247 32.4315 637.292 32.4315 M637.292 26.1121 Q647.014 26.1121 652.564 32.4315 Q658.114 38.7509 658.114 49.9314 Q658.114 61.0714 652.564 67.4314 Q647.014 73.7508 637.292 73.7508 Q627.53 73.7508 621.98 67.4314 Q616.471 61.0714 616.471 49.9314 Q616.471 38.7509 621.98 32.4315 Q627.53 26.1121 637.292 26.1121 Z" fill="#000000" fill-rule="evenodd" fill-opacity="1" /><path clip-path="url(#clip510)" d="M 0 0 M677.842 14.324 L677.842 27.2059 L693.195 27.2059 L693.195 32.9987 L677.842 32.9987 L677.842 57.6282 Q677.842 63.1779 679.341 64.7578 Q680.88 66.3376 685.538 66.3376 L693.195 66.3376 L693.195 72.576 L685.538 72.576 Q676.91 72.576 673.629 69.3758 Q670.348 66.1351 670.348 57.6282 L670.348 32.9987 L664.879 32.9987 L664.879 27.2059 L670.348 27.2059 L670.348 14.324 L677.842 14.324 Z" fill="#000000" fill-rule="evenodd" fill-opacity="1" /><path clip-path="url(#clip510)" d="M 0 0 M720.579 32.4315 Q714.583 32.4315 711.1 37.1306 Q707.616 41.7891 707.616 49.9314 Q707.616 58.0738 711.059 62.7728 Q714.543 67.4314 720.579 67.4314 Q726.534 67.4314 730.017 62.7323 Q733.501 58.0333 733.501 49.9314 Q733.501 41.8701 730.017 37.1711 Q726.534 32.4315 720.579 32.4315 M720.579 26.1121 Q730.301 26.1121 735.851 32.4315 Q741.4 38.7509 741.4 49.9314 Q741.4 61.0714 735.851 67.4314 Q730.301 73.7508 720.579 73.7508 Q710.816 73.7508 705.266 67.4314 Q699.757 61.0714 699.757 49.9314 Q699.757 38.7509 705.266 32.4315 Q710.816 26.1121 720.579 26.1121 Z" fill="#000000" fill-rule="evenodd" fill-opacity="1" /><path clip-path="url(#clip510)" d="M 0 0 M791.47 45.1919 L791.47 72.576 L784.016 72.576 L784.016 45.4349 Q784.016 38.994 781.504 35.7938 Q778.993 32.5936 773.97 32.5936 Q767.934 32.5936 764.45 36.4419 Q760.966 40.2903 760.966 46.9338 L760.966 72.576 L753.472 72.576 L753.472 27.2059 L760.966 27.2059 L760.966 34.2544 Q763.64 30.163 767.245 28.1376 Q770.891 26.1121 775.631 26.1121 Q783.449 26.1121 787.459 30.9732 Q791.47 35.7938 791.47 45.1919 Z" fill="#000000" fill-rule="evenodd" fill-opacity="1" /><path clip-path="url(#clip510)" d="M 0 0 M878.321 16.7545 L878.321 25.383 Q874.189 21.5346 869.49 19.6307 Q864.832 17.7268 859.565 17.7268 Q849.195 17.7268 843.686 24.0867 Q838.177 30.4061 838.177 42.3968 Q838.177 54.3469 843.686 60.7069 Q849.195 67.0263 859.565 67.0263 Q864.832 67.0263 869.49 65.1223 Q874.189 63.2184 878.321 59.3701 L878.321 67.9175 Q874.027 70.8341 869.206 72.2924 Q864.426 73.7508 859.079 73.7508 Q845.347 73.7508 837.447 65.3654 Q829.548 56.9395 829.548 42.3968 Q829.548 27.8135 837.447 19.4281 Q845.347 11.0023 859.079 11.0023 Q864.507 11.0023 869.288 12.4606 Q874.108 13.8784 878.321 16.7545 Z" fill="#000000" fill-rule="evenodd" fill-opacity="1" /><path clip-path="url(#clip510)" d="M 0 0 M908.217 32.4315 Q902.221 32.4315 898.738 37.1306 Q895.254 41.7891 895.254 49.9314 Q895.254 58.0738 898.697 62.7728 Q902.181 67.4314 908.217 67.4314 Q914.172 67.4314 917.655 62.7323 Q921.139 58.0333 921.139 49.9314 Q921.139 41.8701 917.655 37.1711 Q914.172 32.4315 908.217 32.4315 M908.217 26.1121 Q917.939 26.1121 923.489 32.4315 Q929.038 38.7509 929.038 49.9314 Q929.038 61.0714 923.489 67.4314 Q917.939 73.7508 908.217 73.7508 Q898.454 73.7508 892.904 67.4314 Q887.395 61.0714 887.395 49.9314 Q887.395 38.7509 892.904 32.4315 Q898.454 26.1121 908.217 26.1121 Z" fill="#000000" fill-rule="evenodd" fill-opacity="1" /><path clip-path="url(#clip510)" d="M 0 0 M967.684 34.1734 Q966.428 33.4443 964.929 33.1202 Q963.471 32.7556 961.689 32.7556 Q955.369 32.7556 951.966 36.8875 Q948.604 40.9789 948.604 48.6757 L948.604 72.576 L941.11 72.576 L941.11 27.2059 L948.604 27.2059 L948.604 34.2544 Q950.954 30.1225 954.721 28.1376 Q958.488 26.1121 963.876 26.1121 Q964.646 26.1121 965.577 26.2337 Q966.509 26.3147 967.643 26.5172 L967.684 34.1734 Z" fill="#000000" fill-rule="evenodd" fill-opacity="1" /><path clip-path="url(#clip510)" d="M 0 0 M1000.33 34.1734 Q999.078 33.4443 997.58 33.1202 Q996.121 32.7556 994.339 32.7556 Q988.02 32.7556 984.617 36.8875 Q981.254 40.9789 981.254 48.6757 L981.254 72.576 L973.76 72.576 L973.76 27.2059 L981.254 27.2059 L981.254 34.2544 Q983.604 30.1225 987.371 28.1376 Q991.139 26.1121 996.526 26.1121 Q997.296 26.1121 998.228 26.2337 Q999.159 26.3147 1000.29 26.5172 L1000.33 34.1734 Z" fill="#000000" fill-rule="evenodd" fill-opacity="1" /><path clip-path="url(#clip510)" d="M 0 0 M1045.14 48.0275 L1045.14 51.6733 L1010.87 51.6733 Q1011.35 59.3701 1015.48 63.421 Q1019.66 67.4314 1027.07 67.4314 Q1031.36 67.4314 1035.37 66.3781 Q1039.43 65.3249 1043.4 63.2184 L1043.4 70.267 Q1039.38 71.9684 1035.17 72.8596 Q1030.96 73.7508 1026.62 73.7508 Q1015.77 73.7508 1009.41 67.4314 Q1003.09 61.1119 1003.09 50.3365 Q1003.09 39.1965 1009.08 32.6746 Q1015.12 26.1121 1025.33 26.1121 Q1034.48 26.1121 1039.79 32.0264 Q1045.14 37.9003 1045.14 48.0275 M1037.68 45.84 Q1037.6 39.7232 1034.24 36.0774 Q1030.92 32.4315 1025.41 32.4315 Q1019.17 32.4315 1015.4 35.9558 Q1011.68 39.4801 1011.11 45.8805 L1037.68 45.84 Z" fill="#000000" fill-rule="evenodd" fill-opacity="1" /><path clip-path="url(#clip510)" d="M 0 0 M1057.37 9.54393 L1064.82 9.54393 L1064.82 72.576 L1057.37 72.576 L1057.37 9.54393 Z" fill="#000000" fill-rule="evenodd" fill-opacity="1" /><path clip-path="url(#clip510)" d="M 0 0 M1101.04 49.7694 Q1092.01 49.7694 1088.52 51.8354 Q1085.04 53.9013 1085.04 58.8839 Q1085.04 62.8538 1087.63 65.2034 Q1090.26 67.5124 1094.76 67.5124 Q1100.96 67.5124 1104.69 63.1374 Q1108.45 58.7219 1108.45 51.4303 L1108.45 49.7694 L1101.04 49.7694 M1115.91 46.6907 L1115.91 72.576 L1108.45 72.576 L1108.45 65.6895 Q1105.9 69.8214 1102.09 71.8063 Q1098.29 73.7508 1092.78 73.7508 Q1085.81 73.7508 1081.68 69.8619 Q1077.58 65.9325 1077.58 59.3701 Q1077.58 51.7138 1082.69 47.825 Q1087.83 43.9361 1098 43.9361 L1108.45 43.9361 L1108.45 43.2069 Q1108.45 38.0623 1105.05 35.2672 Q1101.69 32.4315 1095.57 32.4315 Q1091.68 32.4315 1088 33.3632 Q1084.31 34.295 1080.91 36.1584 L1080.91 29.2718 Q1085 27.692 1088.85 26.9223 Q1092.69 26.1121 1096.34 26.1121 Q1106.18 26.1121 1111.05 31.2163 Q1115.91 36.3204 1115.91 46.6907 Z" fill="#000000" fill-rule="evenodd" fill-opacity="1" /><path clip-path="url(#clip510)" d="M 0 0 M1138.63 14.324 L1138.63 27.2059 L1153.99 27.2059 L1153.99 32.9987 L1138.63 32.9987 L1138.63 57.6282 Q1138.63 63.1779 1140.13 64.7578 Q1141.67 66.3376 1146.33 66.3376 L1153.99 66.3376 L1153.99 72.576 L1146.33 72.576 Q1137.7 72.576 1134.42 69.3758 Q1131.14 66.1351 1131.14 57.6282 L1131.14 32.9987 L1125.67 32.9987 L1125.67 27.2059 L1131.14 27.2059 L1131.14 14.324 L1138.63 14.324 Z" fill="#000000" fill-rule="evenodd" fill-opacity="1" /><path clip-path="url(#clip510)" d="M 0 0 M1163.79 27.2059 L1171.24 27.2059 L1171.24 72.576 L1163.79 72.576 L1163.79 27.2059 M1163.79 9.54393 L1171.24 9.54393 L1171.24 18.9825 L1163.79 18.9825 L1163.79 9.54393 Z" fill="#000000" fill-rule="evenodd" fill-opacity="1" /><path clip-path="url(#clip510)" d="M 0 0 M1204.42 32.4315 Q1198.42 32.4315 1194.94 37.1306 Q1191.46 41.7891 1191.46 49.9314 Q1191.46 58.0738 1194.9 62.7728 Q1198.38 67.4314 1204.42 67.4314 Q1210.37 67.4314 1213.86 62.7323 Q1217.34 58.0333 1217.34 49.9314 Q1217.34 41.8701 1213.86 37.1711 Q1210.37 32.4315 1204.42 32.4315 M1204.42 26.1121 Q1214.14 26.1121 1219.69 32.4315 Q1225.24 38.7509 1225.24 49.9314 Q1225.24 61.0714 1219.69 67.4314 Q1214.14 73.7508 1204.42 73.7508 Q1194.66 73.7508 1189.11 67.4314 Q1183.6 61.0714 1183.6 49.9314 Q1183.6 38.7509 1189.11 32.4315 Q1194.66 26.1121 1204.42 26.1121 Z" fill="#000000" fill-rule="evenodd" fill-opacity="1" /><path clip-path="url(#clip510)" d="M 0 0 M1275.31 45.1919 L1275.31 72.576 L1267.86 72.576 L1267.86 45.4349 Q1267.86 38.994 1265.34 35.7938 Q1262.83 32.5936 1257.81 32.5936 Q1251.77 32.5936 1248.29 36.4419 Q1244.81 40.2903 1244.81 46.9338 L1244.81 72.576 L1237.31 72.576 L1237.31 27.2059 L1244.81 27.2059 L1244.81 34.2544 Q1247.48 30.163 1251.09 28.1376 Q1254.73 26.1121 1259.47 26.1121 Q1267.29 26.1121 1271.3 30.9732 Q1275.31 35.7938 1275.31 45.1919 Z" fill="#000000" fill-rule="evenodd" fill-opacity="1" /><path clip-path="url(#clip510)" d="M 0 0 M1319.1 28.5427 L1319.1 35.5912 Q1315.94 33.9709 1312.54 33.1607 Q1309.13 32.3505 1305.49 32.3505 Q1299.94 32.3505 1297.14 34.0519 Q1294.39 35.7533 1294.39 39.156 Q1294.39 41.7486 1296.37 43.2475 Q1298.36 44.7058 1304.35 46.0426 L1306.91 46.6097 Q1314.85 48.3111 1318.17 51.4303 Q1321.53 54.509 1321.53 60.0587 Q1321.53 66.3781 1316.51 70.0644 Q1311.52 73.7508 1302.77 73.7508 Q1299.13 73.7508 1295.16 73.0216 Q1291.23 72.3329 1286.85 70.9151 L1286.85 63.2184 Q1290.99 65.3654 1295 66.4591 Q1299.01 67.5124 1302.94 67.5124 Q1308.2 67.5124 1311.04 65.73 Q1313.87 63.9071 1313.87 60.6258 Q1313.87 57.5877 1311.81 55.9673 Q1309.78 54.3469 1302.86 52.8481 L1300.26 52.2405 Q1293.34 50.7821 1290.26 47.7845 Q1287.18 44.7463 1287.18 39.4801 Q1287.18 33.0797 1291.72 29.5959 Q1296.25 26.1121 1304.6 26.1121 Q1308.73 26.1121 1312.38 26.7198 Q1316.02 27.3274 1319.1 28.5427 Z" fill="#000000" fill-rule="evenodd" fill-opacity="1" /><path clip-path="url(#clip510)" d="M 0 0 M1354.42 27.2059 L1362.32 27.2059 L1376.5 65.2844 L1390.68 27.2059 L1398.58 27.2059 L1381.56 72.576 L1371.44 72.576 L1354.42 27.2059 Z" fill="#000000" fill-rule="evenodd" fill-opacity="1" /><path clip-path="url(#clip510)" d="M 0 0 M1437.79 28.5427 L1437.79 35.5912 Q1434.63 33.9709 1431.23 33.1607 Q1427.83 32.3505 1424.18 32.3505 Q1418.63 32.3505 1415.84 34.0519 Q1413.08 35.7533 1413.08 39.156 Q1413.08 41.7486 1415.07 43.2475 Q1417.05 44.7058 1423.05 46.0426 L1425.6 46.6097 Q1433.54 48.3111 1436.86 51.4303 Q1440.22 54.509 1440.22 60.0587 Q1440.22 66.3781 1435.2 70.0644 Q1430.22 73.7508 1421.47 73.7508 Q1417.82 73.7508 1413.85 73.0216 Q1409.92 72.3329 1405.55 70.9151 L1405.55 63.2184 Q1409.68 65.3654 1413.69 66.4591 Q1417.7 67.5124 1421.63 67.5124 Q1426.89 67.5124 1429.73 65.73 Q1432.57 63.9071 1432.57 60.6258 Q1432.57 57.5877 1430.5 55.9673 Q1428.47 54.3469 1421.55 52.8481 L1418.95 52.2405 Q1412.03 50.7821 1408.95 47.7845 Q1405.87 44.7463 1405.87 39.4801 Q1405.87 33.0797 1410.41 29.5959 Q1414.94 26.1121 1423.29 26.1121 Q1427.42 26.1121 1431.07 26.7198 Q1434.71 27.3274 1437.79 28.5427 Z" fill="#000000" fill-rule="evenodd" fill-opacity="1" /><path clip-path="url(#clip510)" d="M 0 0 M1470.4 12.096 L1521.56 12.096 L1521.56 18.9825 L1500.09 18.9825 L1500.09 72.576 L1491.87 72.576 L1491.87 18.9825 L1470.4 18.9825 L1470.4 12.096 Z" fill="#000000" fill-rule="evenodd" fill-opacity="1" /><path clip-path="url(#clip510)" d="M 0 0 M1526.59 27.2059 L1534.04 27.2059 L1534.04 72.576 L1526.59 72.576 L1526.59 27.2059 M1526.59 9.54393 L1534.04 9.54393 L1534.04 18.9825 L1526.59 18.9825 L1526.59 9.54393 Z" fill="#000000" fill-rule="evenodd" fill-opacity="1" /><path clip-path="url(#clip510)" d="M 0 0 M1584.96 35.9153 Q1587.76 30.8922 1591.64 28.5022 Q1595.53 26.1121 1600.8 26.1121 Q1607.89 26.1121 1611.74 31.0947 Q1615.59 36.0368 1615.59 45.1919 L1615.59 72.576 L1608.09 72.576 L1608.09 45.4349 Q1608.09 38.913 1605.78 35.7533 Q1603.47 32.5936 1598.73 32.5936 Q1592.94 32.5936 1589.58 36.4419 Q1586.22 40.2903 1586.22 46.9338 L1586.22 72.576 L1578.72 72.576 L1578.72 45.4349 Q1578.72 38.8725 1576.41 35.7533 Q1574.1 32.5936 1569.28 32.5936 Q1563.57 32.5936 1560.21 36.4824 Q1556.85 40.3308 1556.85 46.9338 L1556.85 72.576 L1549.35 72.576 L1549.35 27.2059 L1556.85 27.2059 L1556.85 34.2544 Q1559.4 30.082 1562.96 28.0971 Q1566.53 26.1121 1571.43 26.1121 Q1576.37 26.1121 1579.82 28.6237 Q1583.3 31.1352 1584.96 35.9153 Z" fill="#000000" fill-rule="evenodd" fill-opacity="1" /><path clip-path="url(#clip510)" d="M 0 0 M1669.26 48.0275 L1669.26 51.6733 L1634.99 51.6733 Q1635.48 59.3701 1639.61 63.421 Q1643.78 67.4314 1651.19 67.4314 Q1655.49 67.4314 1659.5 66.3781 Q1663.55 65.3249 1667.52 63.2184 L1667.52 70.267 Q1663.51 71.9684 1659.29 72.8596 Q1655.08 73.7508 1650.75 73.7508 Q1639.89 73.7508 1633.53 67.4314 Q1627.21 61.1119 1627.21 50.3365 Q1627.21 39.1965 1633.21 32.6746 Q1639.24 26.1121 1649.45 26.1121 Q1658.61 26.1121 1663.91 32.0264 Q1669.26 37.9003 1669.26 48.0275 M1661.81 45.84 Q1661.73 39.7232 1658.36 36.0774 Q1655.04 32.4315 1649.53 32.4315 Q1643.29 32.4315 1639.53 35.9558 Q1635.8 39.4801 1635.23 45.8805 L1661.81 45.84 Z" fill="#000000" fill-rule="evenodd" fill-opacity="1" /><path clip-path="url(#clip510)" d="M 0 0 M1732.74 17.6457 Q1723.83 17.6457 1718.56 24.2892 Q1713.33 30.9327 1713.33 42.3968 Q1713.33 53.8203 1718.56 60.4638 Q1723.83 67.1073 1732.74 67.1073 Q1741.65 67.1073 1746.83 60.4638 Q1752.06 53.8203 1752.06 42.3968 Q1752.06 30.9327 1746.83 24.2892 Q1741.65 17.6457 1732.74 17.6457 M1732.74 11.0023 Q1745.46 11.0023 1753.07 19.5497 Q1760.69 28.0566 1760.69 42.3968 Q1760.69 56.6965 1753.07 65.2439 Q1745.46 73.7508 1732.74 73.7508 Q1719.98 73.7508 1712.32 65.2439 Q1704.71 56.737 1704.71 42.3968 Q1704.71 28.0566 1712.32 19.5497 Q1719.98 11.0023 1732.74 11.0023 Z" fill="#000000" fill-rule="evenodd" fill-opacity="1" /><path clip-path="url(#clip510)" d="M 0 0 M1796.13 9.54393 L1796.13 15.7418 L1789 15.7418 Q1784.99 15.7418 1783.41 17.3622 Q1781.88 18.9825 1781.88 23.1955 L1781.88 27.2059 L1794.15 27.2059 L1794.15 32.9987 L1781.88 32.9987 L1781.88 72.576 L1774.38 72.576 L1774.38 32.9987 L1767.25 32.9987 L1767.25 27.2059 L1774.38 27.2059 L1774.38 24.0462 Q1774.38 16.471 1777.91 13.0277 Q1781.43 9.54393 1789.09 9.54393 L1796.13 9.54393 Z" fill="#000000" fill-rule="evenodd" fill-opacity="1" /><path clip-path="url(#clip510)" d="M 0 0 M1825.34 9.54393 L1825.34 15.7418 L1818.21 15.7418 Q1814.2 15.7418 1812.62 17.3622 Q1811.08 18.9825 1811.08 23.1955 L1811.08 27.2059 L1823.36 27.2059 L1823.36 32.9987 L1811.08 32.9987 L1811.08 72.576 L1803.59 72.576 L1803.59 32.9987 L1796.46 32.9987 L1796.46 27.2059 L1803.59 27.2059 L1803.59 24.0462 Q1803.59 16.471 1807.11 13.0277 Q1810.64 9.54393 1818.29 9.54393 L1825.34 9.54393 Z" fill="#000000" fill-rule="evenodd" fill-opacity="1" /><path clip-path="url(#clip510)" d="M 0 0 M1860.5 28.5427 L1860.5 35.5912 Q1857.34 33.9709 1853.94 33.1607 Q1850.54 32.3505 1846.89 32.3505 Q1841.34 32.3505 1838.55 34.0519 Q1835.79 35.7533 1835.79 39.156 Q1835.79 41.7486 1837.78 43.2475 Q1839.76 44.7058 1845.76 46.0426 L1848.31 46.6097 Q1856.25 48.3111 1859.57 51.4303 Q1862.93 54.509 1862.93 60.0587 Q1862.93 66.3781 1857.91 70.0644 Q1852.93 73.7508 1844.18 73.7508 Q1840.53 73.7508 1836.56 73.0216 Q1832.63 72.3329 1828.26 70.9151 L1828.26 63.2184 Q1832.39 65.3654 1836.4 66.4591 Q1840.41 67.5124 1844.34 67.5124 Q1849.61 67.5124 1852.44 65.73 Q1855.28 63.9071 1855.28 60.6258 Q1855.28 57.5877 1853.21 55.9673 Q1851.19 54.3469 1844.26 52.8481 L1841.67 52.2405 Q1834.74 50.7821 1831.66 47.7845 Q1828.58 44.7463 1828.58 39.4801 Q1828.58 33.0797 1833.12 29.5959 Q1837.66 26.1121 1846 26.1121 Q1850.13 26.1121 1853.78 26.7198 Q1857.42 27.3274 1860.5 28.5427 Z" fill="#000000" fill-rule="evenodd" fill-opacity="1" /><path clip-path="url(#clip510)" d="M 0 0 M1913.61 48.0275 L1913.61 51.6733 L1879.34 51.6733 Q1879.83 59.3701 1883.96 63.421 Q1888.13 67.4314 1895.54 67.4314 Q1899.84 67.4314 1903.85 66.3781 Q1907.9 65.3249 1911.87 63.2184 L1911.87 70.267 Q1907.86 71.9684 1903.65 72.8596 Q1899.43 73.7508 1895.1 73.7508 Q1884.24 73.7508 1877.88 67.4314 Q1871.56 61.1119 1871.56 50.3365 Q1871.56 39.1965 1877.56 32.6746 Q1883.59 26.1121 1893.8 26.1121 Q1902.96 26.1121 1908.26 32.0264 Q1913.61 37.9003 1913.61 48.0275 M1906.16 45.84 Q1906.08 39.7232 1902.71 36.0774 Q1899.39 32.4315 1893.88 32.4315 Q1887.64 32.4315 1883.88 35.9558 Q1880.15 39.4801 1879.58 45.8805 L1906.16 45.84 Z" fill="#000000" fill-rule="evenodd" fill-opacity="1" /><path clip-path="url(#clip510)" d="M 0 0 M1933.22 14.324 L1933.22 27.2059 L1948.57 27.2059 L1948.57 32.9987 L1933.22 32.9987 L1933.22 57.6282 Q1933.22 63.1779 1934.72 64.7578 Q1936.26 66.3376 1940.91 66.3376 L1948.57 66.3376 L1948.57 72.576 L1940.91 72.576 Q1932.29 72.576 1929 69.3758 Q1925.72 66.1351 1925.72 57.6282 L1925.72 32.9987 L1920.25 32.9987 L1920.25 27.2059 L1925.72 27.2059 L1925.72 14.324 L1933.22 14.324 Z" fill="#000000" fill-rule="evenodd" fill-opacity="1" /><polyline clip-path="url(#clip513)" style="stroke:#009af9; stroke-width:4; stroke-opacity:1; fill:none" points="
  267.189,827.21 280.805,827.21 292.477,827.21 354.724,827.21 356.669,827.21 376.122,827.21 409.191,827.21 434.479,827.21 488.945,827.21 514.233,827.21 
  523.96,827.21 529.795,827.21 539.522,827.21 562.864,827.21 570.645,827.21 578.426,994.369 617.331,994.369 652.345,1113.77 706.812,576.472 737.936,1203.32 
  761.278,1203.32 772.95,1203.32 815.745,1203.32 827.416,1203.32 835.197,1203.32 856.595,1203.32 862.431,1203.32 872.157,1203.32 881.883,1203.32 889.664,1203.32 
  899.39,1203.32 951.911,1203.32 965.528,1203.32 994.707,1203.32 1010.27,1203.32 1029.72,1272.97 1037.5,1272.97 1051.12,1272.97 1080.3,1272.97 1084.19,1272.97 
  1093.91,1272.97 1103.64,1272.97 1158.11,1272.97 1160.05,715.771 1169.78,1328.69 1212.57,1328.69 1216.46,1328.69 1249.53,1272.97 1300.11,1272.97 1333.18,1272.97 
  1342.9,1272.97 1352.63,1272.97 1364.3,1272.97 1385.7,1272.97 1432.38,1272.97 1438.22,1272.97 1447.95,1203.32 1451.84,1203.32 1494.63,1203.32 1510.19,1203.32 
  1552.99,1113.77 1564.66,1113.77 1586.06,1113.77 1607.46,1113.77 1619.13,1113.77 1638.58,1113.77 1642.47,1113.77 1673.59,1113.77 1675.54,1113.77 1681.37,1113.77 
  1693.05,1113.77 1735.84,1113.77 1747.51,1113.77 1755.29,1113.77 1786.42,1113.77 1801.98,1113.77 1813.65,1113.77 1856.45,1113.77 1920.64,1113.77 1922.58,1113.77 
  1934.26,1113.77 1953.71,1113.77 2004.28,1113.77 2008.17,1113.77 2082.09,994.369 2101.55,994.369 2136.56,994.369 2142.4,994.369 2156.01,158.575 2198.81,158.575 
  
  "/>
</svg>
