<?xml version="1.0" encoding="utf-8"?>
<svg xmlns="http://www.w3.org/2000/svg" xmlns:xlink="http://www.w3.org/1999/xlink" width="576" height="384" viewBox="0 0 2304 1536">
<defs>
  <clipPath id="clip360">
    <rect x="0" y="0" width="2304" height="1536"/>
  </clipPath>
</defs>
<path clip-path="url(#clip360)" d="
M0 1536 L2304 1536 L2304 0 L0 0  Z
  " fill="#ffffff" fill-rule="evenodd" fill-opacity="1"/>
<defs>
  <clipPath id="clip361">
    <rect x="460" y="0" width="1614" height="1536"/>
  </clipPath>
</defs>
<defs>
  <clipPath id="clip362">
    <rect x="224" y="123" width="2033" height="1241"/>
  </clipPath>
</defs>
<path clip-path="url(#clip360)" d="
M308.847 1363.79 L2256.76 1363.79 L2256.76 123.472 L308.847 123.472  Z
  " fill="#ffffff" fill-rule="evenodd" fill-opacity="1"/>
<defs>
  <clipPath id="clip363">
    <rect x="308" y="123" width="1949" height="1241"/>
  </clipPath>
</defs>
<polyline clip-path="url(#clip363)" style="stroke:#000000; stroke-width:2; stroke-opacity:0.1; fill:none" points="
  363.976,1363.79 363.976,123.472 
  "/>
<polyline clip-path="url(#clip363)" style="stroke:#000000; stroke-width:2; stroke-opacity:0.1; fill:none" points="
  823.849,1363.79 823.849,123.472 
  "/>
<polyline clip-path="url(#clip363)" style="stroke:#000000; stroke-width:2; stroke-opacity:0.1; fill:none" points="
  1283.72,1363.79 1283.72,123.472 
  "/>
<polyline clip-path="url(#clip363)" style="stroke:#000000; stroke-width:2; stroke-opacity:0.1; fill:none" points="
  1743.59,1363.79 1743.59,123.472 
  "/>
<polyline clip-path="url(#clip363)" style="stroke:#000000; stroke-width:2; stroke-opacity:0.1; fill:none" points="
  2203.47,1363.79 2203.47,123.472 
  "/>
<polyline clip-path="url(#clip360)" style="stroke:#000000; stroke-width:4; stroke-opacity:1; fill:none" points="
  308.847,1363.79 2256.76,1363.79 
  "/>
<polyline clip-path="url(#clip360)" style="stroke:#000000; stroke-width:4; stroke-opacity:1; fill:none" points="
  363.976,1363.79 363.976,1348.91 
  "/>
<polyline clip-path="url(#clip360)" style="stroke:#000000; stroke-width:4; stroke-opacity:1; fill:none" points="
  823.849,1363.79 823.849,1348.91 
  "/>
<polyline clip-path="url(#clip360)" style="stroke:#000000; stroke-width:4; stroke-opacity:1; fill:none" points="
  1283.72,1363.79 1283.72,1348.91 
  "/>
<polyline clip-path="url(#clip360)" style="stroke:#000000; stroke-width:4; stroke-opacity:1; fill:none" points="
  1743.59,1363.79 1743.59,1348.91 
  "/>
<polyline clip-path="url(#clip360)" style="stroke:#000000; stroke-width:4; stroke-opacity:1; fill:none" points="
  2203.47,1363.79 2203.47,1348.91 
  "/>
<path clip-path="url(#clip360)" d="M 0 0 M341.361 1392.21 Q337.75 1392.21 335.921 1395.78 Q334.115 1399.32 334.115 1406.45 Q334.115 1413.56 335.921 1417.12 Q337.75 1420.66 341.361 1420.66 Q344.995 1420.66 346.8 1417.12 Q348.629 1413.56 348.629 1406.45 Q348.629 1399.32 346.8 1395.78 Q344.995 1392.21 341.361 1392.21 M341.361 1388.51 Q347.171 1388.51 350.226 1393.12 Q353.305 1397.7 353.305 1406.45 Q353.305 1415.18 350.226 1419.78 Q347.171 1424.37 341.361 1424.37 Q335.55 1424.37 332.472 1419.78 Q329.416 1415.18 329.416 1406.45 Q329.416 1397.7 332.472 1393.12 Q335.55 1388.51 341.361 1388.51 Z" fill="#000000" fill-rule="evenodd" fill-opacity="1" /><path clip-path="url(#clip360)" d="M 0 0 M361.523 1417.81 L366.407 1417.81 L366.407 1423.69 L361.523 1423.69 L361.523 1417.81 Z" fill="#000000" fill-rule="evenodd" fill-opacity="1" /><path clip-path="url(#clip360)" d="M 0 0 M386.592 1392.21 Q382.981 1392.21 381.152 1395.78 Q379.347 1399.32 379.347 1406.45 Q379.347 1413.56 381.152 1417.12 Q382.981 1420.66 386.592 1420.66 Q390.226 1420.66 392.032 1417.12 Q393.86 1413.56 393.86 1406.45 Q393.86 1399.32 392.032 1395.78 Q390.226 1392.21 386.592 1392.21 M386.592 1388.51 Q392.402 1388.51 395.458 1393.12 Q398.536 1397.7 398.536 1406.45 Q398.536 1415.18 395.458 1419.78 Q392.402 1424.37 386.592 1424.37 Q380.782 1424.37 377.703 1419.78 Q374.647 1415.18 374.647 1406.45 Q374.647 1397.7 377.703 1393.12 Q380.782 1388.51 386.592 1388.51 Z" fill="#000000" fill-rule="evenodd" fill-opacity="1" /><path clip-path="url(#clip360)" d="M 0 0 M795.585 1419.76 L811.904 1419.76 L811.904 1423.69 L789.96 1423.69 L789.96 1419.76 Q792.622 1417 797.205 1412.37 Q801.812 1407.72 802.992 1406.38 Q805.238 1403.86 806.117 1402.12 Q807.02 1400.36 807.02 1398.67 Q807.02 1395.92 805.076 1394.18 Q803.154 1392.44 800.052 1392.44 Q797.853 1392.44 795.4 1393.21 Q792.969 1393.97 790.191 1395.52 L790.191 1390.8 Q793.015 1389.67 795.469 1389.09 Q797.923 1388.51 799.96 1388.51 Q805.33 1388.51 808.525 1391.19 Q811.719 1393.88 811.719 1398.37 Q811.719 1400.5 810.909 1402.42 Q810.122 1404.32 808.015 1406.91 Q807.437 1407.58 804.335 1410.8 Q801.233 1413.99 795.585 1419.76 Z" fill="#000000" fill-rule="evenodd" fill-opacity="1" /><path clip-path="url(#clip360)" d="M 0 0 M821.719 1417.81 L826.603 1417.81 L826.603 1423.69 L821.719 1423.69 L821.719 1417.81 Z" fill="#000000" fill-rule="evenodd" fill-opacity="1" /><path clip-path="url(#clip360)" d="M 0 0 M836.835 1389.13 L855.191 1389.13 L855.191 1393.07 L841.117 1393.07 L841.117 1401.54 Q842.136 1401.19 843.154 1401.03 Q844.173 1400.85 845.191 1400.85 Q850.978 1400.85 854.358 1404.02 Q857.737 1407.19 857.737 1412.61 Q857.737 1418.18 854.265 1421.29 Q850.793 1424.37 844.474 1424.37 Q842.298 1424.37 840.029 1423.99 Q837.784 1423.62 835.376 1422.88 L835.376 1418.18 Q837.46 1419.32 839.682 1419.87 Q841.904 1420.43 844.381 1420.43 Q848.386 1420.43 850.723 1418.32 Q853.061 1416.22 853.061 1412.61 Q853.061 1408.99 850.723 1406.89 Q848.386 1404.78 844.381 1404.78 Q842.506 1404.78 840.631 1405.2 Q838.779 1405.62 836.835 1406.49 L836.835 1389.13 Z" fill="#000000" fill-rule="evenodd" fill-opacity="1" /><path clip-path="url(#clip360)" d="M 0 0 M1250.89 1389.13 L1269.24 1389.13 L1269.24 1393.07 L1255.17 1393.07 L1255.17 1401.54 Q1256.19 1401.19 1257.2 1401.03 Q1258.22 1400.85 1259.24 1400.85 Q1265.03 1400.85 1268.41 1404.02 Q1271.79 1407.19 1271.79 1412.61 Q1271.79 1418.18 1268.32 1421.29 Q1264.84 1424.37 1258.52 1424.37 Q1256.35 1424.37 1254.08 1423.99 Q1251.83 1423.62 1249.43 1422.88 L1249.43 1418.18 Q1251.51 1419.32 1253.73 1419.87 Q1255.95 1420.43 1258.43 1420.43 Q1262.44 1420.43 1264.77 1418.32 Q1267.11 1416.22 1267.11 1412.61 Q1267.11 1408.99 1264.77 1406.89 Q1262.44 1404.78 1258.43 1404.78 Q1256.56 1404.78 1254.68 1405.2 Q1252.83 1405.62 1250.89 1406.49 L1250.89 1389.13 Z" fill="#000000" fill-rule="evenodd" fill-opacity="1" /><path clip-path="url(#clip360)" d="M 0 0 M1281 1417.81 L1285.89 1417.81 L1285.89 1423.69 L1281 1423.69 L1281 1417.81 Z" fill="#000000" fill-rule="evenodd" fill-opacity="1" /><path clip-path="url(#clip360)" d="M 0 0 M1306.07 1392.21 Q1302.46 1392.21 1300.63 1395.78 Q1298.83 1399.32 1298.83 1406.45 Q1298.83 1413.56 1300.63 1417.12 Q1302.46 1420.66 1306.07 1420.66 Q1309.7 1420.66 1311.51 1417.12 Q1313.34 1413.56 1313.34 1406.45 Q1313.34 1399.32 1311.51 1395.78 Q1309.7 1392.21 1306.07 1392.21 M1306.07 1388.51 Q1311.88 1388.51 1314.94 1393.12 Q1318.01 1397.7 1318.01 1406.45 Q1318.01 1415.18 1314.94 1419.78 Q1311.88 1424.37 1306.07 1424.37 Q1300.26 1424.37 1297.18 1419.78 Q1294.13 1415.18 1294.13 1406.45 Q1294.13 1397.7 1297.18 1393.12 Q1300.26 1388.51 1306.07 1388.51 Z" fill="#000000" fill-rule="evenodd" fill-opacity="1" /><path clip-path="url(#clip360)" d="M 0 0 M1709.91 1389.13 L1732.14 1389.13 L1732.14 1391.12 L1719.59 1423.69 L1714.7 1423.69 L1726.51 1393.07 L1709.91 1393.07 L1709.91 1389.13 Z" fill="#000000" fill-rule="evenodd" fill-opacity="1" /><path clip-path="url(#clip360)" d="M 0 0 M1741.26 1417.81 L1746.14 1417.81 L1746.14 1423.69 L1741.26 1423.69 L1741.26 1417.81 Z" fill="#000000" fill-rule="evenodd" fill-opacity="1" /><path clip-path="url(#clip360)" d="M 0 0 M1756.37 1389.13 L1774.73 1389.13 L1774.73 1393.07 L1760.65 1393.07 L1760.65 1401.54 Q1761.67 1401.19 1762.69 1401.03 Q1763.71 1400.85 1764.73 1400.85 Q1770.51 1400.85 1773.89 1404.02 Q1777.27 1407.19 1777.27 1412.61 Q1777.27 1418.18 1773.8 1421.29 Q1770.33 1424.37 1764.01 1424.37 Q1761.83 1424.37 1759.57 1423.99 Q1757.32 1423.62 1754.91 1422.88 L1754.91 1418.18 Q1757 1419.32 1759.22 1419.87 Q1761.44 1420.43 1763.92 1420.43 Q1767.92 1420.43 1770.26 1418.32 Q1772.6 1416.22 1772.6 1412.61 Q1772.6 1408.99 1770.26 1406.89 Q1767.92 1404.78 1763.92 1404.78 Q1762.04 1404.78 1760.17 1405.2 Q1758.32 1405.62 1756.37 1406.49 L1756.37 1389.13 Z" fill="#000000" fill-rule="evenodd" fill-opacity="1" /><path clip-path="url(#clip360)" d="M 0 0 M2155.54 1419.76 L2163.18 1419.76 L2163.18 1393.39 L2154.87 1395.06 L2154.87 1390.8 L2163.13 1389.13 L2167.81 1389.13 L2167.81 1419.76 L2175.45 1419.76 L2175.45 1423.69 L2155.54 1423.69 L2155.54 1419.76 Z" fill="#000000" fill-rule="evenodd" fill-opacity="1" /><path clip-path="url(#clip360)" d="M 0 0 M2194.89 1392.21 Q2191.28 1392.21 2189.45 1395.78 Q2187.64 1399.32 2187.64 1406.45 Q2187.64 1413.56 2189.45 1417.12 Q2191.28 1420.66 2194.89 1420.66 Q2198.52 1420.66 2200.33 1417.12 Q2202.16 1413.56 2202.16 1406.45 Q2202.16 1399.32 2200.33 1395.78 Q2198.52 1392.21 2194.89 1392.21 M2194.89 1388.51 Q2200.7 1388.51 2203.76 1393.12 Q2206.83 1397.7 2206.83 1406.45 Q2206.83 1415.18 2203.76 1419.78 Q2200.7 1424.37 2194.89 1424.37 Q2189.08 1424.37 2186 1419.78 Q2182.95 1415.18 2182.95 1406.45 Q2182.95 1397.7 2186 1393.12 Q2189.08 1388.51 2194.89 1388.51 Z" fill="#000000" fill-rule="evenodd" fill-opacity="1" /><path clip-path="url(#clip360)" d="M 0 0 M2215.05 1417.81 L2219.94 1417.81 L2219.94 1423.69 L2215.05 1423.69 L2215.05 1417.81 Z" fill="#000000" fill-rule="evenodd" fill-opacity="1" /><path clip-path="url(#clip360)" d="M 0 0 M2240.12 1392.21 Q2236.51 1392.21 2234.68 1395.78 Q2232.88 1399.32 2232.88 1406.45 Q2232.88 1413.56 2234.68 1417.12 Q2236.51 1420.66 2240.12 1420.66 Q2243.76 1420.66 2245.56 1417.12 Q2247.39 1413.56 2247.39 1406.45 Q2247.39 1399.32 2245.56 1395.78 Q2243.76 1392.21 2240.12 1392.21 M2240.12 1388.51 Q2245.93 1388.51 2248.99 1393.12 Q2252.07 1397.7 2252.07 1406.45 Q2252.07 1415.18 2248.99 1419.78 Q2245.93 1424.37 2240.12 1424.37 Q2234.31 1424.37 2231.23 1419.78 Q2228.18 1415.18 2228.18 1406.45 Q2228.18 1397.7 2231.23 1393.12 Q2234.31 1388.51 2240.12 1388.51 Z" fill="#000000" fill-rule="evenodd" fill-opacity="1" /><path clip-path="url(#clip360)" d="M 0 0 M1233.33 1465.79 Q1233.33 1468.04 1230.08 1468.04 L1219 1468.04 L1214.59 1490.62 Q1214.49 1491.2 1214.36 1491.52 Q1214.27 1491.84 1213.98 1492.39 Q1213.72 1492.9 1213.17 1493.16 Q1212.66 1493.45 1211.88 1493.45 Q1210.92 1493.45 1210.43 1492.87 Q1209.98 1492.33 1209.98 1491.65 Q1209.98 1491.23 1210.63 1489.23 L1217.1 1468.04 L1211.63 1468.04 Q1206.47 1468.04 1203.25 1473.13 Q1202.74 1473.81 1202.45 1473.87 Q1202.32 1473.9 1202.19 1473.9 Q1201.84 1473.9 1201.61 1473.74 Q1201.42 1473.58 1201.42 1473.42 L1201.38 1473.26 Q1201.38 1473.03 1201.9 1472.13 Q1202.45 1471.2 1203.41 1469.81 Q1204.41 1468.43 1205.41 1467.33 Q1206.73 1465.92 1208.21 1465.18 Q1209.69 1464.4 1210.43 1464.31 Q1211.21 1464.21 1212.21 1464.21 L1230.69 1464.21 Q1231.53 1464.21 1231.98 1464.27 Q1232.43 1464.31 1232.88 1464.69 Q1233.33 1465.05 1233.33 1465.79 Z" fill="#000000" fill-rule="evenodd" fill-opacity="1" /><path clip-path="url(#clip360)" d="M 0 0 M1251.62 1476.16 Q1251.62 1465.01 1255.78 1456.03 Q1257.55 1452.26 1260.03 1449.11 Q1262.51 1445.95 1264.15 1444.56 Q1265.79 1443.18 1266.24 1443.18 Q1266.89 1443.18 1266.92 1443.82 Q1266.92 1444.15 1266.05 1444.95 Q1255.42 1455.77 1255.45 1476.16 Q1255.45 1496.61 1265.79 1507.01 Q1266.92 1508.14 1266.92 1508.49 Q1266.92 1509.14 1266.24 1509.14 Q1265.79 1509.14 1264.21 1507.82 Q1262.64 1506.5 1260.19 1503.47 Q1257.74 1500.44 1255.97 1496.74 Q1251.62 1487.75 1251.62 1476.16 Z" fill="#000000" fill-rule="evenodd" fill-opacity="1" /><path clip-path="url(#clip360)" d="M 0 0 M1276.95 1492.65 L1276.95 1490.62 Q1280.46 1490.62 1281.26 1490.2 Q1282.07 1489.75 1282.07 1487.62 L1282.07 1469.94 Q1282.07 1467.49 1281.2 1466.88 Q1280.36 1466.27 1276.95 1466.27 L1276.95 1464.21 L1286.22 1463.5 L1286.22 1470.43 Q1289.32 1463.5 1295.98 1463.5 Q1300.94 1463.5 1302.91 1465.95 Q1304.36 1467.59 1304.65 1469.43 Q1304.97 1471.26 1304.97 1476.03 L1304.97 1488.62 Q1305.03 1490.01 1306.09 1490.33 Q1307.16 1490.62 1310.12 1490.62 L1310.12 1492.65 Q1303.39 1492.45 1302.71 1492.45 Q1302.2 1492.45 1295.27 1492.65 L1295.27 1490.62 Q1298.78 1490.62 1299.59 1490.2 Q1300.43 1489.75 1300.43 1487.62 L1300.43 1472.26 Q1300.43 1468.91 1299.4 1466.95 Q1298.37 1464.95 1295.53 1464.95 Q1292.12 1464.95 1289.38 1467.82 Q1286.64 1470.68 1286.64 1475.51 L1286.64 1487.62 Q1286.64 1489.75 1287.45 1490.2 Q1288.28 1490.62 1291.76 1490.62 L1291.76 1492.65 Q1285.03 1492.45 1284.39 1492.45 Q1283.87 1492.45 1276.95 1492.65 Z" fill="#000000" fill-rule="evenodd" fill-opacity="1" /><path clip-path="url(#clip360)" d="M 0 0 M1313.18 1491.78 L1313.18 1483.08 Q1313.18 1482.34 1313.22 1482.08 Q1313.25 1481.83 1313.44 1481.63 Q1313.63 1481.44 1314.02 1481.44 Q1314.47 1481.44 1314.63 1481.63 Q1314.83 1481.83 1314.95 1482.57 Q1315.95 1487.11 1318.08 1489.52 Q1320.24 1491.91 1324.13 1491.91 Q1327.84 1491.91 1329.7 1490.26 Q1331.57 1488.62 1331.57 1485.92 Q1331.57 1481.09 1324.71 1479.86 Q1320.75 1479.06 1319.11 1478.54 Q1317.47 1477.99 1316.02 1476.8 Q1313.18 1474.48 1313.18 1471.2 Q1313.18 1467.91 1315.66 1465.5 Q1318.18 1463.08 1323.71 1463.08 Q1327.42 1463.08 1329.93 1464.95 Q1330.67 1464.37 1331.06 1463.89 Q1331.93 1463.08 1332.38 1463.08 Q1332.89 1463.08 1332.99 1463.44 Q1333.09 1463.76 1333.09 1464.69 L1333.09 1471.33 Q1333.09 1472.07 1333.05 1472.33 Q1333.02 1472.58 1332.83 1472.78 Q1332.64 1472.94 1332.22 1472.94 Q1331.48 1472.94 1331.44 1472.33 Q1330.93 1464.34 1323.71 1464.34 Q1319.82 1464.34 1318.08 1465.85 Q1316.34 1467.33 1316.34 1469.36 Q1316.34 1470.49 1316.85 1471.36 Q1317.4 1472.2 1318.08 1472.71 Q1318.79 1473.2 1320.08 1473.68 Q1321.36 1474.13 1322.14 1474.29 Q1322.94 1474.45 1324.46 1474.77 Q1329.74 1475.77 1331.96 1477.93 Q1334.73 1480.7 1334.73 1484.21 Q1334.73 1488.11 1332.09 1490.75 Q1329.45 1493.39 1324.13 1493.39 Q1319.85 1493.39 1316.85 1490.52 Q1316.47 1490.91 1316.18 1491.26 Q1315.89 1491.58 1315.76 1491.71 Q1315.66 1491.84 1315.63 1491.94 Q1315.6 1492 1315.53 1492.07 Q1314.21 1493.39 1313.89 1493.39 Q1313.38 1493.39 1313.28 1493.03 Q1313.18 1492.71 1313.18 1491.78 Z" fill="#000000" fill-rule="evenodd" fill-opacity="1" /><path clip-path="url(#clip360)" d="M 0 0 M1338.89 1508.49 Q1338.89 1508.17 1339.73 1507.37 Q1350.36 1496.54 1350.36 1476.16 Q1350.36 1455.71 1340.15 1445.37 Q1338.89 1444.18 1338.89 1443.82 Q1338.89 1443.18 1339.54 1443.18 Q1339.99 1443.18 1341.57 1444.5 Q1343.18 1445.82 1345.59 1448.85 Q1348.04 1451.87 1349.84 1455.58 Q1354.19 1464.56 1354.19 1476.16 Q1354.19 1487.3 1350.04 1496.29 Q1348.26 1500.05 1345.78 1503.21 Q1343.3 1506.37 1341.66 1507.75 Q1340.02 1509.14 1339.54 1509.14 Q1338.89 1509.14 1338.89 1508.49 Z" fill="#000000" fill-rule="evenodd" fill-opacity="1" /><polyline clip-path="url(#clip363)" style="stroke:#000000; stroke-width:2; stroke-opacity:0.1; fill:none" points="
  308.847,1171.22 2256.76,1171.22 
  "/>
<polyline clip-path="url(#clip363)" style="stroke:#000000; stroke-width:2; stroke-opacity:0.1; fill:none" points="
  308.847,931.088 2256.76,931.088 
  "/>
<polyline clip-path="url(#clip363)" style="stroke:#000000; stroke-width:2; stroke-opacity:0.1; fill:none" points="
  308.847,690.961 2256.76,690.961 
  "/>
<polyline clip-path="url(#clip363)" style="stroke:#000000; stroke-width:2; stroke-opacity:0.1; fill:none" points="
  308.847,450.834 2256.76,450.834 
  "/>
<polyline clip-path="url(#clip363)" style="stroke:#000000; stroke-width:2; stroke-opacity:0.1; fill:none" points="
  308.847,210.707 2256.76,210.707 
  "/>
<polyline clip-path="url(#clip360)" style="stroke:#000000; stroke-width:4; stroke-opacity:1; fill:none" points="
  308.847,1363.79 308.847,123.472 
  "/>
<polyline clip-path="url(#clip360)" style="stroke:#000000; stroke-width:4; stroke-opacity:1; fill:none" points="
  308.847,1171.22 332.222,1171.22 
  "/>
<polyline clip-path="url(#clip360)" style="stroke:#000000; stroke-width:4; stroke-opacity:1; fill:none" points="
  308.847,931.088 332.222,931.088 
  "/>
<polyline clip-path="url(#clip360)" style="stroke:#000000; stroke-width:4; stroke-opacity:1; fill:none" points="
  308.847,690.961 332.222,690.961 
  "/>
<polyline clip-path="url(#clip360)" style="stroke:#000000; stroke-width:4; stroke-opacity:1; fill:none" points="
  308.847,450.834 332.222,450.834 
  "/>
<polyline clip-path="url(#clip360)" style="stroke:#000000; stroke-width:4; stroke-opacity:1; fill:none" points="
  308.847,210.707 332.222,210.707 
  "/>
<path clip-path="url(#clip360)" d="M 0 0 M206.926 1153.94 L229.148 1153.94 L229.148 1155.93 L216.602 1188.5 L211.718 1188.5 L223.523 1157.87 L206.926 1157.87 L206.926 1153.94 Z" fill="#000000" fill-rule="evenodd" fill-opacity="1" /><path clip-path="url(#clip360)" d="M 0 0 M238.268 1182.62 L243.153 1182.62 L243.153 1188.5 L238.268 1188.5 L238.268 1182.62 Z" fill="#000000" fill-rule="evenodd" fill-opacity="1" /><path clip-path="url(#clip360)" d="M 0 0 M253.384 1153.94 L271.74 1153.94 L271.74 1157.87 L257.666 1157.87 L257.666 1166.34 Q258.685 1166 259.703 1165.83 Q260.722 1165.65 261.74 1165.65 Q267.527 1165.65 270.907 1168.82 Q274.287 1171.99 274.287 1177.41 Q274.287 1182.99 270.815 1186.09 Q267.342 1189.17 261.023 1189.17 Q258.847 1189.17 256.578 1188.8 Q254.333 1188.43 251.926 1187.68 L251.926 1182.99 Q254.009 1184.12 256.231 1184.68 Q258.453 1185.23 260.93 1185.23 Q264.935 1185.23 267.273 1183.12 Q269.611 1181.02 269.611 1177.41 Q269.611 1173.8 267.273 1171.69 Q264.935 1169.58 260.93 1169.58 Q259.055 1169.58 257.18 1170 Q255.328 1170.42 253.384 1171.3 L253.384 1153.94 Z" fill="#000000" fill-rule="evenodd" fill-opacity="1" /><path clip-path="url(#clip360)" d="M 0 0 M177.759 944.433 L185.398 944.433 L185.398 918.067 L177.088 919.734 L177.088 915.475 L185.352 913.808 L190.028 913.808 L190.028 944.433 L197.667 944.433 L197.667 948.368 L177.759 948.368 L177.759 944.433 Z" fill="#000000" fill-rule="evenodd" fill-opacity="1" /><path clip-path="url(#clip360)" d="M 0 0 M217.111 916.887 Q213.5 916.887 211.671 920.451 Q209.866 923.993 209.866 931.123 Q209.866 938.229 211.671 941.794 Q213.5 945.336 217.111 945.336 Q220.745 945.336 222.551 941.794 Q224.38 938.229 224.38 931.123 Q224.38 923.993 222.551 920.451 Q220.745 916.887 217.111 916.887 M217.111 913.183 Q222.921 913.183 225.977 917.789 Q229.055 922.373 229.055 931.123 Q229.055 939.849 225.977 944.456 Q222.921 949.039 217.111 949.039 Q211.301 949.039 208.222 944.456 Q205.167 939.849 205.167 931.123 Q205.167 922.373 208.222 917.789 Q211.301 913.183 217.111 913.183 Z" fill="#000000" fill-rule="evenodd" fill-opacity="1" /><path clip-path="url(#clip360)" d="M 0 0 M237.273 942.488 L242.157 942.488 L242.157 948.368 L237.273 948.368 L237.273 942.488 Z" fill="#000000" fill-rule="evenodd" fill-opacity="1" /><path clip-path="url(#clip360)" d="M 0 0 M262.342 916.887 Q258.731 916.887 256.903 920.451 Q255.097 923.993 255.097 931.123 Q255.097 938.229 256.903 941.794 Q258.731 945.336 262.342 945.336 Q265.977 945.336 267.782 941.794 Q269.611 938.229 269.611 931.123 Q269.611 923.993 267.782 920.451 Q265.977 916.887 262.342 916.887 M262.342 913.183 Q268.152 913.183 271.208 917.789 Q274.287 922.373 274.287 931.123 Q274.287 939.849 271.208 944.456 Q268.152 949.039 262.342 949.039 Q256.532 949.039 253.453 944.456 Q250.398 939.849 250.398 931.123 Q250.398 922.373 253.453 917.789 Q256.532 913.183 262.342 913.183 Z" fill="#000000" fill-rule="evenodd" fill-opacity="1" /><path clip-path="url(#clip360)" d="M 0 0 M178.755 704.306 L186.394 704.306 L186.394 677.94 L178.084 679.607 L178.084 675.348 L186.347 673.681 L191.023 673.681 L191.023 704.306 L198.662 704.306 L198.662 708.241 L178.755 708.241 L178.755 704.306 Z" fill="#000000" fill-rule="evenodd" fill-opacity="1" /><path clip-path="url(#clip360)" d="M 0 0 M212.134 704.306 L228.454 704.306 L228.454 708.241 L206.509 708.241 L206.509 704.306 Q209.171 701.551 213.755 696.921 Q218.361 692.269 219.542 690.926 Q221.787 688.403 222.667 686.667 Q223.569 684.908 223.569 683.218 Q223.569 680.463 221.625 678.727 Q219.704 676.991 216.602 676.991 Q214.403 676.991 211.949 677.755 Q209.519 678.519 206.741 680.07 L206.741 675.348 Q209.565 674.213 212.019 673.635 Q214.472 673.056 216.509 673.056 Q221.88 673.056 225.074 675.741 Q228.268 678.426 228.268 682.917 Q228.268 685.047 227.458 686.968 Q226.671 688.866 224.565 691.459 Q223.986 692.13 220.884 695.347 Q217.782 698.542 212.134 704.306 Z" fill="#000000" fill-rule="evenodd" fill-opacity="1" /><path clip-path="url(#clip360)" d="M 0 0 M238.268 702.361 L243.153 702.361 L243.153 708.241 L238.268 708.241 L238.268 702.361 Z" fill="#000000" fill-rule="evenodd" fill-opacity="1" /><path clip-path="url(#clip360)" d="M 0 0 M253.384 673.681 L271.74 673.681 L271.74 677.616 L257.666 677.616 L257.666 686.088 Q258.685 685.741 259.703 685.579 Q260.722 685.394 261.74 685.394 Q267.527 685.394 270.907 688.565 Q274.287 691.736 274.287 697.153 Q274.287 702.732 270.815 705.833 Q267.342 708.912 261.023 708.912 Q258.847 708.912 256.578 708.542 Q254.333 708.171 251.926 707.431 L251.926 702.732 Q254.009 703.866 256.231 704.421 Q258.453 704.977 260.93 704.977 Q264.935 704.977 267.273 702.871 Q269.611 700.764 269.611 697.153 Q269.611 693.542 267.273 691.435 Q264.935 689.329 260.93 689.329 Q259.055 689.329 257.18 689.746 Q255.328 690.162 253.384 691.042 L253.384 673.681 Z" fill="#000000" fill-rule="evenodd" fill-opacity="1" /><path clip-path="url(#clip360)" d="M 0 0 M177.759 464.179 L185.398 464.179 L185.398 437.813 L177.088 439.48 L177.088 435.22 L185.352 433.554 L190.028 433.554 L190.028 464.179 L197.667 464.179 L197.667 468.114 L177.759 468.114 L177.759 464.179 Z" fill="#000000" fill-rule="evenodd" fill-opacity="1" /><path clip-path="url(#clip360)" d="M 0 0 M207.157 433.554 L225.514 433.554 L225.514 437.489 L211.44 437.489 L211.44 445.961 Q212.458 445.614 213.477 445.452 Q214.495 445.267 215.514 445.267 Q221.301 445.267 224.68 448.438 Q228.06 451.609 228.06 457.026 Q228.06 462.605 224.588 465.706 Q221.116 468.785 214.796 468.785 Q212.62 468.785 210.352 468.415 Q208.107 468.044 205.699 467.304 L205.699 462.605 Q207.782 463.739 210.005 464.294 Q212.227 464.85 214.704 464.85 Q218.708 464.85 221.046 462.743 Q223.384 460.637 223.384 457.026 Q223.384 453.415 221.046 451.308 Q218.708 449.202 214.704 449.202 Q212.829 449.202 210.954 449.619 Q209.102 450.035 207.157 450.915 L207.157 433.554 Z" fill="#000000" fill-rule="evenodd" fill-opacity="1" /><path clip-path="url(#clip360)" d="M 0 0 M237.273 462.234 L242.157 462.234 L242.157 468.114 L237.273 468.114 L237.273 462.234 Z" fill="#000000" fill-rule="evenodd" fill-opacity="1" /><path clip-path="url(#clip360)" d="M 0 0 M262.342 436.632 Q258.731 436.632 256.903 440.197 Q255.097 443.739 255.097 450.869 Q255.097 457.975 256.903 461.54 Q258.731 465.081 262.342 465.081 Q265.977 465.081 267.782 461.54 Q269.611 457.975 269.611 450.869 Q269.611 443.739 267.782 440.197 Q265.977 436.632 262.342 436.632 M262.342 432.929 Q268.152 432.929 271.208 437.535 Q274.287 442.119 274.287 450.869 Q274.287 459.595 271.208 464.202 Q268.152 468.785 262.342 468.785 Q256.532 468.785 253.453 464.202 Q250.398 459.595 250.398 450.869 Q250.398 442.119 253.453 437.535 Q256.532 432.929 262.342 432.929 Z" fill="#000000" fill-rule="evenodd" fill-opacity="1" /><path clip-path="url(#clip360)" d="M 0 0 M178.755 224.052 L186.394 224.052 L186.394 197.686 L178.084 199.353 L178.084 195.093 L186.347 193.427 L191.023 193.427 L191.023 224.052 L198.662 224.052 L198.662 227.987 L178.755 227.987 L178.755 224.052 Z" fill="#000000" fill-rule="evenodd" fill-opacity="1" /><path clip-path="url(#clip360)" d="M 0 0 M206.926 193.427 L229.148 193.427 L229.148 195.417 L216.602 227.987 L211.718 227.987 L223.523 197.362 L206.926 197.362 L206.926 193.427 Z" fill="#000000" fill-rule="evenodd" fill-opacity="1" /><path clip-path="url(#clip360)" d="M 0 0 M238.268 222.107 L243.153 222.107 L243.153 227.987 L238.268 227.987 L238.268 222.107 Z" fill="#000000" fill-rule="evenodd" fill-opacity="1" /><path clip-path="url(#clip360)" d="M 0 0 M253.384 193.427 L271.74 193.427 L271.74 197.362 L257.666 197.362 L257.666 205.834 Q258.685 205.487 259.703 205.325 Q260.722 205.14 261.74 205.14 Q267.527 205.14 270.907 208.311 Q274.287 211.482 274.287 216.899 Q274.287 222.477 270.815 225.579 Q267.342 228.658 261.023 228.658 Q258.847 228.658 256.578 228.288 Q254.333 227.917 251.926 227.177 L251.926 222.477 Q254.009 223.612 256.231 224.167 Q258.453 224.723 260.93 224.723 Q264.935 224.723 267.273 222.616 Q269.611 220.51 269.611 216.899 Q269.611 213.288 267.273 211.181 Q264.935 209.075 260.93 209.075 Q259.055 209.075 257.18 209.491 Q255.328 209.908 253.384 210.788 L253.384 193.427 Z" fill="#000000" fill-rule="evenodd" fill-opacity="1" /><path clip-path="url(#clip360)" d="M 0 0 M96.5483 796.326 L112.973 801.994 L112.973 856.679 Q112.973 857.42 112.941 857.71 Q112.909 858 112.748 858.225 Q112.587 858.451 112.233 858.451 Q111.943 858.451 111.202 857.871 L82.2489 834.457 L49.1412 858.515 Q47.6276 858.515 47.3377 858.257 Q47.0157 858 47.0157 856.679 L47.0157 801.994 L62.4423 796.326 L62.4423 797.968 Q60.4455 798.709 58.7708 799.9 Q57.0639 801.06 55.8401 802.412 Q54.6162 803.733 53.6501 805.472 Q52.6517 807.179 52.0398 808.789 Q51.3957 810.367 50.9448 812.332 Q50.4617 814.296 50.2362 815.874 Q49.9786 817.42 49.8498 819.353 Q49.7209 821.285 49.6887 822.509 Q49.6565 823.733 49.6565 825.279 L49.6565 851.398 L79.0605 829.981 Q79.8012 829.498 79.9945 829.498 Q80.2843 829.498 81.0572 830.109 L109.334 852.976 L109.334 824.957 Q109.334 815.939 107.434 809.659 Q105.985 805.408 103.118 802.316 Q100.252 799.192 96.5483 797.968 L96.5483 796.326 Z" fill="#000000" fill-rule="evenodd" fill-opacity="1" /><path clip-path="url(#clip360)" d="M 0 0 M129.637 869.523 Q130.629 869.523 131.373 870.334 Q132.095 871.123 132.095 871.98 Q132.095 872.769 131.621 873.265 Q131.125 873.738 130.426 873.738 Q129.502 873.738 128.736 872.949 Q127.969 872.16 127.969 871.236 Q127.969 870.469 128.443 869.996 Q128.916 869.523 129.637 869.523 M151.888 869.117 Q152.069 869.117 152.79 869.32 Q153.489 869.523 154.571 870.018 Q155.631 870.492 156.623 871.146 Q157.615 871.799 158.314 872.882 Q159.012 873.941 159.012 875.159 Q159.012 876.804 157.93 877.886 Q156.848 878.946 155.225 878.946 Q154.346 878.946 151.528 877.886 Q143.322 874.82 142.984 874.708 Q141.699 874.189 140.571 874.189 Q140.053 874.189 139.737 874.302 Q139.399 874.415 139.286 874.64 Q139.151 874.865 139.128 875.001 Q139.106 875.113 139.106 875.339 Q139.106 876.669 140.459 877.909 Q141.811 879.149 144.832 880.006 Q145.396 880.186 145.531 880.299 Q145.666 880.411 145.666 880.749 Q145.644 881.313 145.193 881.313 Q145.058 881.313 144.539 881.155 Q143.998 880.997 143.186 880.704 Q142.352 880.411 141.496 879.893 Q140.616 879.374 139.85 878.743 Q139.083 878.089 138.587 877.165 Q138.091 876.241 138.091 875.204 Q138.091 873.513 139.196 872.476 Q140.278 871.416 141.879 871.416 Q142.758 871.416 144.314 872.025 Q146.343 872.769 146.996 873.039 L151.843 874.843 Q153.602 875.497 154.143 875.7 Q154.661 875.88 155.293 876.038 Q155.901 876.173 156.465 876.173 Q157.254 876.173 157.615 875.925 Q157.975 875.655 157.975 875.068 Q157.975 873.445 156.375 872.25 Q154.752 871.056 152.272 870.357 Q152.204 870.334 152.091 870.312 Q151.528 870.131 151.46 869.951 Q151.438 869.861 151.438 869.68 Q151.438 869.117 151.888 869.117 Z" fill="#000000" fill-rule="evenodd" fill-opacity="1" /><path clip-path="url(#clip360)" d="M 0 0 M151.483 852.74 Q150.919 852.695 150.919 851.816 L150.919 823.523 Q150.919 822.193 151.438 822.17 Q152.001 822.17 151.979 823.433 L151.979 851.5 Q152.001 852.74 151.483 852.74 M142.465 852.74 Q141.901 852.74 141.924 851.771 L141.924 823.568 Q141.924 822.193 142.465 822.17 Q142.984 822.17 142.984 823.342 L142.984 851.816 Q142.984 852.74 142.465 852.74 Z" fill="#000000" fill-rule="evenodd" fill-opacity="1" /><path clip-path="url(#clip360)" d="M 0 0 M132.14 804.362 L130.697 804.362 Q130.697 798.816 127.744 795.953 Q127.744 795.164 127.924 795.029 Q128.104 794.893 128.939 794.893 L154.842 794.893 Q156.217 794.893 156.645 794.217 Q157.074 793.541 157.074 790.588 L157.074 789.122 L158.494 789.122 Q158.359 790.745 158.359 796.607 Q158.359 802.468 158.494 804.069 L157.074 804.069 L157.074 802.604 Q157.074 799.695 156.668 798.996 Q156.239 798.298 154.842 798.298 L130.922 798.298 Q132.14 800.71 132.14 804.362 Z" fill="#000000" fill-rule="evenodd" fill-opacity="1" /><path clip-path="url(#clip360)" d="M 0 0 M-1.6977 852.421 L-3.14052 852.421 Q-3.14052 846.876 -6.0938 844.012 Q-6.0938 843.223 -5.91345 843.088 Q-5.73309 842.953 -4.89896 842.953 L21.0042 842.953 Q22.3794 842.953 22.8077 842.277 Q23.2361 841.6 23.2361 838.647 L23.2361 837.182 L24.6564 837.182 Q24.5211 838.805 24.5211 844.666 Q24.5211 850.528 24.6564 852.128 L23.2361 852.128 L23.2361 850.663 Q23.2361 847.755 22.8303 847.056 Q22.4019 846.357 21.0042 846.357 L-2.91508 846.357 Q-1.6977 848.769 -1.6977 852.421 Z" fill="#000000" fill-rule="evenodd" fill-opacity="1" /><path clip-path="url(#clip360)" d="M 0 0 M9.88997 833.254 Q3.1042 833.254 -0.593038 831.54 Q-6.0938 829.151 -6.0938 823.515 Q-6.0938 822.32 -5.75564 821.08 Q-5.44002 819.817 -4.20009 818.239 Q-2.96017 816.639 -0.931199 815.669 Q2.99147 813.821 9.88997 813.821 Q16.6307 813.821 20.3053 815.534 Q25.6708 818.036 25.6708 823.56 Q25.6708 825.634 24.6113 827.753 Q23.5517 829.849 21.0042 831.18 Q17.1943 833.254 9.88997 833.254 M9.32637 829.421 Q16.2925 829.421 19.0654 828.925 Q22.0638 828.362 23.3713 826.829 Q24.6564 825.273 24.6564 823.56 Q24.6564 821.711 23.2812 820.178 Q21.8834 818.623 18.8851 818.149 Q15.9318 817.631 9.32637 817.653 Q2.9013 817.653 0.33127 818.104 Q-2.6671 818.713 -3.86193 820.336 Q-5.07931 821.937 -5.07931 823.56 Q-5.07931 824.168 -4.89896 824.822 Q-4.71861 825.453 -4.20009 826.378 Q-3.68158 827.302 -2.39657 828.023 Q-1.11155 828.722 0.827241 829.06 Q3.32964 829.421 9.32637 829.421 Z" fill="#000000" fill-rule="evenodd" fill-opacity="1" /><path clip-path="url(#clip360)" d="M 0 0 M70.4293 737.145 Q70.4615 737.145 71.6209 737.338 L100.896 744.681 Q102.442 745.067 103.988 746.162 Q105.566 747.225 106.919 748.932 Q108.303 750.607 109.141 753.183 Q110.01 755.727 110.01 758.658 Q110.01 763.328 109.012 765.389 Q108.046 767.418 105.985 767.418 Q104.181 767.418 103.15 766.291 Q102.152 765.164 102.152 763.876 Q102.152 762.652 102.861 762.008 Q103.569 761.364 104.471 761.364 Q105.469 761.364 106.468 762.04 Q107.498 762.716 107.885 764.069 Q108.561 761.911 108.561 758.787 Q108.561 752.185 101.572 749.351 Q101.476 749.286 101.444 749.286 L92.7158 747.096 L92.6514 747.193 Q93.2955 747.74 94.0362 748.61 Q94.7447 749.447 95.6143 751.251 Q96.4839 753.054 96.4839 754.826 Q96.4839 758.529 93.6497 761.074 Q90.7834 763.586 86.0492 763.586 Q82.6031 763.586 79.1571 762.201 Q75.6789 760.784 73.1346 758.594 Q70.5581 756.372 68.9478 753.537 Q67.3376 750.671 67.3376 747.901 Q67.3376 745.969 68.497 744.327 Q69.6242 742.684 71.4921 741.782 Q69.9462 741.621 69.3021 740.752 Q68.658 739.85 68.658 739.077 Q68.658 738.208 69.1411 737.692 Q69.592 737.145 70.4293 737.145 M74.455 742.555 Q74.2618 742.555 73.7465 742.684 Q73.199 742.813 72.3295 743.199 Q71.4599 743.554 70.687 744.101 Q69.914 744.649 69.3665 745.647 Q68.7868 746.613 68.7868 747.837 Q68.7868 749.834 70.4615 751.831 Q72.104 753.827 74.6483 755.212 Q77.0959 756.5 81.8302 757.724 Q86.5645 758.916 88.9799 758.916 Q91.3631 758.916 93.1989 757.885 Q95.0346 756.855 95.0346 754.632 Q95.0346 752.056 92.6514 749.286 Q90.1715 746.42 88.0459 745.937 L75.4534 742.749 Q74.6805 742.555 74.455 742.555 Z" fill="#000000" fill-rule="evenodd" fill-opacity="1" /><path clip-path="url(#clip360)" d="M 0 0 M99.1601 718.618 Q100.152 718.618 100.896 719.429 Q101.617 720.218 101.617 721.075 Q101.617 721.864 101.144 722.36 Q100.648 722.833 99.9491 722.833 Q99.0248 722.833 98.2583 722.044 Q97.4918 721.255 97.4918 720.331 Q97.4918 719.565 97.9653 719.091 Q98.4387 718.618 99.1601 718.618 M121.411 718.212 Q121.591 718.212 122.313 718.415 Q123.012 718.618 124.094 719.114 Q125.153 719.587 126.145 720.241 Q127.137 720.895 127.836 721.977 Q128.535 723.036 128.535 724.254 Q128.535 725.899 127.453 726.982 Q126.371 728.041 124.748 728.041 Q123.868 728.041 121.05 726.982 Q112.844 723.916 112.506 723.803 Q111.221 723.284 110.094 723.284 Q109.575 723.284 109.26 723.397 Q108.922 723.51 108.809 723.735 Q108.674 723.961 108.651 724.096 Q108.629 724.209 108.629 724.434 Q108.629 725.764 109.981 727.004 Q111.334 728.244 114.355 729.101 Q114.918 729.281 115.054 729.394 Q115.189 729.506 115.189 729.845 Q115.166 730.408 114.716 730.408 Q114.58 730.408 114.062 730.25 Q113.521 730.093 112.709 729.8 Q111.875 729.506 111.018 728.988 Q110.139 728.469 109.373 727.838 Q108.606 727.184 108.11 726.26 Q107.614 725.336 107.614 724.299 Q107.614 722.608 108.719 721.571 Q109.801 720.511 111.402 720.511 Q112.281 720.511 113.836 721.12 Q115.865 721.864 116.519 722.135 L121.366 723.938 Q123.124 724.592 123.666 724.795 Q124.184 724.975 124.815 725.133 Q125.424 725.268 125.988 725.268 Q126.777 725.268 127.137 725.02 Q127.498 724.75 127.498 724.164 Q127.498 722.54 125.897 721.345 Q124.274 720.151 121.794 719.452 Q121.727 719.429 121.614 719.407 Q121.05 719.226 120.983 719.046 Q120.96 718.956 120.96 718.775 Q120.96 718.212 121.411 718.212 Z" fill="#000000" fill-rule="evenodd" fill-opacity="1" /><path clip-path="url(#clip360)" d="M 0 0 M54.9347 730.408 Q47.1344 730.408 40.8446 727.5 Q38.207 726.26 35.9976 724.524 Q33.7883 722.788 32.8189 721.639 Q31.8495 720.489 31.8495 720.173 Q31.8495 719.722 32.3004 719.7 Q32.5258 719.7 33.0894 720.308 Q40.6643 727.748 54.9347 727.725 Q69.2502 727.725 76.5319 720.489 Q77.321 719.7 77.569 719.7 Q78.0198 719.7 78.0198 720.173 Q78.0198 720.489 77.0955 721.593 Q76.1712 722.698 74.0521 724.411 Q71.9329 726.125 69.3404 727.365 Q63.0506 730.408 54.9347 730.408 Z" fill="#000000" fill-rule="evenodd" fill-opacity="1" /><path clip-path="url(#clip360)" d="M 0 0 M66.4773 712.68 Q65.6431 712.68 65.3951 712.612 Q65.1472 712.522 64.7639 712.161 L54.8896 703.302 Q49.4339 698.455 44.6771 698.455 Q41.5886 698.455 39.3792 700.078 Q37.1699 701.678 37.1699 704.632 Q37.1699 706.661 38.4098 708.374 Q39.6498 710.087 41.8591 710.876 Q41.814 710.741 41.814 710.268 Q41.814 709.118 42.5354 708.487 Q43.2568 707.833 44.2262 707.833 Q45.4662 707.833 46.0748 708.644 Q46.661 709.434 46.661 710.223 Q46.661 710.538 46.5934 710.967 Q46.5257 711.372 45.8945 712.026 Q45.2407 712.68 44.091 712.68 Q40.8672 712.68 38.2971 710.245 Q35.7271 707.788 35.7271 704.045 Q35.7271 699.807 38.252 697.034 Q40.7544 694.239 44.6771 694.239 Q46.0523 694.239 47.3148 694.667 Q48.5547 695.073 49.5241 695.637 Q50.4935 696.178 52.049 697.666 Q53.6046 699.153 54.7092 700.348 Q55.8139 701.543 58.1585 704.226 L62.9153 709.118 L62.9153 700.799 Q62.9153 696.741 62.5546 696.426 Q61.9008 695.975 58.4516 695.411 L58.4516 694.239 L66.4773 695.546 L66.4773 712.68 Z" fill="#000000" fill-rule="evenodd" fill-opacity="1" /><path clip-path="url(#clip360)" d="M 0 0 M77.569 689.816 Q77.3435 689.816 76.7799 689.23 Q69.2051 681.79 54.9347 681.79 Q40.6192 681.79 33.3825 688.937 Q32.5484 689.816 32.3004 689.816 Q31.8495 689.816 31.8495 689.365 Q31.8495 689.05 32.7738 687.945 Q33.6981 686.818 35.8173 685.127 Q37.9364 683.414 40.529 682.151 Q46.8188 679.108 54.9347 679.108 Q62.7349 679.108 69.0247 682.016 Q71.6624 683.256 73.8717 684.992 Q76.081 686.728 77.0504 687.877 Q78.0198 689.027 78.0198 689.365 Q78.0198 689.816 77.569 689.816 Z" fill="#000000" fill-rule="evenodd" fill-opacity="1" /><path clip-path="url(#clip360)" d="M 0 0 M79.9945 665.048 Q68.8512 665.048 59.8658 660.893 Q56.0977 659.122 52.9415 656.642 Q49.7854 654.162 48.4005 652.52 Q47.0157 650.877 47.0157 650.426 Q47.0157 649.782 47.6598 649.75 Q47.9818 649.75 48.787 650.62 Q59.6081 661.248 79.9945 661.215 Q100.445 661.215 110.848 650.877 Q111.975 649.75 112.329 649.75 Q112.973 649.75 112.973 650.426 Q112.973 650.877 111.653 652.455 Q110.332 654.033 107.305 656.481 Q104.278 658.929 100.574 660.7 Q91.5886 665.048 79.9945 665.048 Z" fill="#000000" fill-rule="evenodd" fill-opacity="1" /><path clip-path="url(#clip360)" d="M 0 0 M69.6242 607.773 Q71.8786 607.773 71.8786 611.026 L71.8786 622.105 L94.4549 626.517 Q95.0346 626.614 95.3567 626.743 Q95.6787 626.839 96.2262 627.129 Q96.7415 627.387 96.9992 627.934 Q97.289 628.45 97.289 629.222 Q97.289 630.189 96.7093 630.672 Q96.1618 631.123 95.4855 631.123 Q95.0668 631.123 93.07 630.479 L71.8786 624.005 L71.8786 629.48 Q71.8786 634.633 76.9671 637.854 Q77.6434 638.369 77.7078 638.659 Q77.74 638.788 77.74 638.916 Q77.74 639.271 77.579 639.496 Q77.418 639.689 77.257 639.689 L77.0959 639.722 Q76.8705 639.722 75.9687 639.206 Q75.0348 638.659 73.6499 637.693 Q72.265 636.694 71.1701 635.696 Q69.753 634.375 69.0123 632.894 Q68.2393 631.412 68.1427 630.672 Q68.0461 629.899 68.0461 628.9 L68.0461 610.414 Q68.0461 609.577 68.1105 609.126 Q68.1427 608.675 68.5292 608.224 Q68.8834 607.773 69.6242 607.773 Z" fill="#000000" fill-rule="evenodd" fill-opacity="1" /><path clip-path="url(#clip360)" d="M 0 0 M112.329 611.206 Q112.007 611.206 111.202 610.368 Q100.381 599.74 79.9945 599.74 Q59.5437 599.74 49.2057 609.95 Q48.014 611.206 47.6598 611.206 Q47.0157 611.206 47.0157 610.562 Q47.0157 610.111 48.3361 608.533 Q49.6565 606.922 52.6839 604.507 Q55.7112 602.059 59.4149 600.256 Q68.4003 595.908 79.9945 595.908 Q91.1377 595.908 100.123 600.062 Q103.891 601.834 107.047 604.314 Q110.204 606.794 111.588 608.436 Q112.973 610.079 112.973 610.562 Q112.973 611.206 112.329 611.206 Z" fill="#000000" fill-rule="evenodd" fill-opacity="1" /><path clip-path="url(#clip360)" d="M 0 0 M445.439 14.0809 L445.439 22.0612 Q440.78 19.8332 436.648 18.7395 Q432.517 17.6457 428.668 17.6457 Q421.984 17.6457 418.338 20.2383 Q414.733 22.8309 414.733 27.611 Q414.733 31.6214 417.123 33.6873 Q419.554 35.7128 426.278 36.9686 L431.22 37.9813 Q440.375 39.7232 444.71 44.1387 Q449.085 48.5136 449.085 55.8863 Q449.085 64.6767 443.17 69.2137 Q437.297 73.7508 425.914 73.7508 Q421.62 73.7508 416.758 72.7785 Q411.938 71.8063 406.753 69.9024 L406.753 61.4765 Q411.735 64.2716 416.515 65.6895 Q421.296 67.1073 425.914 67.1073 Q432.922 67.1073 436.729 64.3527 Q440.537 61.598 440.537 56.4939 Q440.537 52.0379 437.783 49.5264 Q435.069 47.0148 428.83 45.759 L423.848 44.7868 Q414.693 42.9639 410.601 39.075 Q406.51 35.1862 406.51 28.2591 Q406.51 20.2383 412.14 15.6203 Q417.812 11.0023 427.736 11.0023 Q431.99 11.0023 436.405 11.7719 Q440.821 12.5416 445.439 14.0809 Z" fill="#000000" fill-rule="evenodd" fill-opacity="1" /><path clip-path="url(#clip360)" d="M 0 0 M460.751 54.671 L460.751 27.2059 L468.205 27.2059 L468.205 54.3874 Q468.205 60.8284 470.717 64.0691 Q473.228 67.2693 478.251 67.2693 Q484.287 67.2693 487.771 63.421 Q491.295 59.5726 491.295 52.9291 L491.295 27.2059 L498.749 27.2059 L498.749 72.576 L491.295 72.576 L491.295 65.6084 Q488.581 69.7404 484.976 71.7658 Q481.411 73.7508 476.671 73.7508 Q468.853 73.7508 464.802 68.8897 Q460.751 64.0286 460.751 54.671 M479.507 26.1121 L479.507 26.1121 Z" fill="#000000" fill-rule="evenodd" fill-opacity="1" /><path clip-path="url(#clip360)" d="M 0 0 M549.426 35.9153 Q552.221 30.8922 556.11 28.5022 Q559.998 26.1121 565.265 26.1121 Q572.354 26.1121 576.202 31.0947 Q580.05 36.0368 580.05 45.1919 L580.05 72.576 L572.556 72.576 L572.556 45.4349 Q572.556 38.913 570.247 35.7533 Q567.938 32.5936 563.199 32.5936 Q557.406 32.5936 554.044 36.4419 Q550.681 40.2903 550.681 46.9338 L550.681 72.576 L543.187 72.576 L543.187 45.4349 Q543.187 38.8725 540.878 35.7533 Q538.569 32.5936 533.749 32.5936 Q528.037 32.5936 524.675 36.4824 Q521.312 40.3308 521.312 46.9338 L521.312 72.576 L513.818 72.576 L513.818 27.2059 L521.312 27.2059 L521.312 34.2544 Q523.864 30.082 527.429 28.0971 Q530.994 26.1121 535.896 26.1121 Q540.838 26.1121 544.281 28.6237 Q547.765 31.1352 549.426 35.9153 Z" fill="#000000" fill-rule="evenodd" fill-opacity="1" /><path clip-path="url(#clip360)" d="M 0 0 M638.87 32.4315 Q632.874 32.4315 629.39 37.1306 Q625.907 41.7891 625.907 49.9314 Q625.907 58.0738 629.35 62.7728 Q632.834 67.4314 638.87 67.4314 Q644.824 67.4314 648.308 62.7323 Q651.792 58.0333 651.792 49.9314 Q651.792 41.8701 648.308 37.1711 Q644.824 32.4315 638.87 32.4315 M638.87 26.1121 Q648.592 26.1121 654.141 32.4315 Q659.691 38.7509 659.691 49.9314 Q659.691 61.0714 654.141 67.4314 Q648.592 73.7508 638.87 73.7508 Q629.107 73.7508 623.557 67.4314 Q618.048 61.0714 618.048 49.9314 Q618.048 38.7509 623.557 32.4315 Q629.107 26.1121 638.87 26.1121 Z" fill="#000000" fill-rule="evenodd" fill-opacity="1" /><path clip-path="url(#clip360)" d="M 0 0 M695.015 9.54393 L695.015 15.7418 L687.886 15.7418 Q683.875 15.7418 682.295 17.3622 Q680.756 18.9825 680.756 23.1955 L680.756 27.2059 L693.03 27.2059 L693.03 32.9987 L680.756 32.9987 L680.756 72.576 L673.262 72.576 L673.262 32.9987 L666.132 32.9987 L666.132 27.2059 L673.262 27.2059 L673.262 24.0462 Q673.262 16.471 676.786 13.0277 Q680.31 9.54393 687.967 9.54393 L695.015 9.54393 Z" fill="#000000" fill-rule="evenodd" fill-opacity="1" /><path clip-path="url(#clip360)" d="M 0 0 M736.132 18.8205 L736.132 41.5461 L746.421 41.5461 Q752.133 41.5461 755.252 38.5889 Q758.371 35.6318 758.371 30.163 Q758.371 24.7348 755.252 21.7777 Q752.133 18.8205 746.421 18.8205 L736.132 18.8205 M727.949 12.096 L746.421 12.096 Q756.589 12.096 761.774 16.714 Q767 21.2916 767 30.163 Q767 39.1155 761.774 43.6931 Q756.589 48.2706 746.421 48.2706 L736.132 48.2706 L736.132 72.576 L727.949 72.576 L727.949 12.096 Z" fill="#000000" fill-rule="evenodd" fill-opacity="1" /><path clip-path="url(#clip360)" d="M 0 0 M815.367 45.1919 L815.367 72.576 L807.914 72.576 L807.914 45.4349 Q807.914 38.994 805.402 35.7938 Q802.891 32.5936 797.868 32.5936 Q791.832 32.5936 788.348 36.4419 Q784.864 40.2903 784.864 46.9338 L784.864 72.576 L777.37 72.576 L777.37 9.54393 L784.864 9.54393 L784.864 34.2544 Q787.538 30.163 791.143 28.1376 Q794.789 26.1121 799.528 26.1121 Q807.347 26.1121 811.357 30.9732 Q815.367 35.7938 815.367 45.1919 Z" fill="#000000" fill-rule="evenodd" fill-opacity="1" /><path clip-path="url(#clip360)" d="M 0 0 M847.815 32.4315 Q841.82 32.4315 838.336 37.1306 Q834.852 41.7891 834.852 49.9314 Q834.852 58.0738 838.296 62.7728 Q841.779 67.4314 847.815 67.4314 Q853.77 67.4314 857.254 62.7323 Q860.738 58.0333 860.738 49.9314 Q860.738 41.8701 857.254 37.1711 Q853.77 32.4315 847.815 32.4315 M847.815 26.1121 Q857.537 26.1121 863.087 32.4315 Q868.637 38.7509 868.637 49.9314 Q868.637 61.0714 863.087 67.4314 Q857.537 73.7508 847.815 73.7508 Q838.053 73.7508 832.503 67.4314 Q826.994 61.0714 826.994 49.9314 Q826.994 38.7509 832.503 32.4315 Q838.053 26.1121 847.815 26.1121 Z" fill="#000000" fill-rule="evenodd" fill-opacity="1" /><path clip-path="url(#clip360)" d="M 0 0 M888.365 14.324 L888.365 27.2059 L903.718 27.2059 L903.718 32.9987 L888.365 32.9987 L888.365 57.6282 Q888.365 63.1779 889.864 64.7578 Q891.403 66.3376 896.061 66.3376 L903.718 66.3376 L903.718 72.576 L896.061 72.576 Q887.433 72.576 884.152 69.3758 Q880.871 66.1351 880.871 57.6282 L880.871 32.9987 L875.402 32.9987 L875.402 27.2059 L880.871 27.2059 L880.871 14.324 L888.365 14.324 Z" fill="#000000" fill-rule="evenodd" fill-opacity="1" /><path clip-path="url(#clip360)" d="M 0 0 M931.102 32.4315 Q925.106 32.4315 921.623 37.1306 Q918.139 41.7891 918.139 49.9314 Q918.139 58.0738 921.582 62.7728 Q925.066 67.4314 931.102 67.4314 Q937.057 67.4314 940.54 62.7323 Q944.024 58.0333 944.024 49.9314 Q944.024 41.8701 940.54 37.1711 Q937.057 32.4315 931.102 32.4315 M931.102 26.1121 Q940.824 26.1121 946.374 32.4315 Q951.923 38.7509 951.923 49.9314 Q951.923 61.0714 946.374 67.4314 Q940.824 73.7508 931.102 73.7508 Q921.339 73.7508 915.789 67.4314 Q910.28 61.0714 910.28 49.9314 Q910.28 38.7509 915.789 32.4315 Q921.339 26.1121 931.102 26.1121 Z" fill="#000000" fill-rule="evenodd" fill-opacity="1" /><path clip-path="url(#clip360)" d="M 0 0 M1001.99 45.1919 L1001.99 72.576 L994.539 72.576 L994.539 45.4349 Q994.539 38.994 992.027 35.7938 Q989.516 32.5936 984.493 32.5936 Q978.457 32.5936 974.973 36.4419 Q971.489 40.2903 971.489 46.9338 L971.489 72.576 L963.995 72.576 L963.995 27.2059 L971.489 27.2059 L971.489 34.2544 Q974.163 30.163 977.768 28.1376 Q981.414 26.1121 986.154 26.1121 Q993.972 26.1121 997.982 30.9732 Q1001.99 35.7938 1001.99 45.1919 Z" fill="#000000" fill-rule="evenodd" fill-opacity="1" /><path clip-path="url(#clip360)" d="M 0 0 M1088.84 16.7545 L1088.84 25.383 Q1084.71 21.5346 1080.01 19.6307 Q1075.35 17.7268 1070.09 17.7268 Q1059.72 17.7268 1054.21 24.0867 Q1048.7 30.4061 1048.7 42.3968 Q1048.7 54.3469 1054.21 60.7069 Q1059.72 67.0263 1070.09 67.0263 Q1075.35 67.0263 1080.01 65.1223 Q1084.71 63.2184 1088.84 59.3701 L1088.84 67.9175 Q1084.55 70.8341 1079.73 72.2924 Q1074.95 73.7508 1069.6 73.7508 Q1055.87 73.7508 1047.97 65.3654 Q1040.07 56.9395 1040.07 42.3968 Q1040.07 27.8135 1047.97 19.4281 Q1055.87 11.0023 1069.6 11.0023 Q1075.03 11.0023 1079.81 12.4606 Q1084.63 13.8784 1088.84 16.7545 Z" fill="#000000" fill-rule="evenodd" fill-opacity="1" /><path clip-path="url(#clip360)" d="M 0 0 M1118.74 32.4315 Q1112.74 32.4315 1109.26 37.1306 Q1105.78 41.7891 1105.78 49.9314 Q1105.78 58.0738 1109.22 62.7728 Q1112.7 67.4314 1118.74 67.4314 Q1124.69 67.4314 1128.18 62.7323 Q1131.66 58.0333 1131.66 49.9314 Q1131.66 41.8701 1128.18 37.1711 Q1124.69 32.4315 1118.74 32.4315 M1118.74 26.1121 Q1128.46 26.1121 1134.01 32.4315 Q1139.56 38.7509 1139.56 49.9314 Q1139.56 61.0714 1134.01 67.4314 Q1128.46 73.7508 1118.74 73.7508 Q1108.98 73.7508 1103.43 67.4314 Q1097.92 61.0714 1097.92 49.9314 Q1097.92 38.7509 1103.43 32.4315 Q1108.98 26.1121 1118.74 26.1121 Z" fill="#000000" fill-rule="evenodd" fill-opacity="1" /><path clip-path="url(#clip360)" d="M 0 0 M1178.21 34.1734 Q1176.95 33.4443 1175.45 33.1202 Q1173.99 32.7556 1172.21 32.7556 Q1165.89 32.7556 1162.49 36.8875 Q1159.13 40.9789 1159.13 48.6757 L1159.13 72.576 L1151.63 72.576 L1151.63 27.2059 L1159.13 27.2059 L1159.13 34.2544 Q1161.48 30.1225 1165.24 28.1376 Q1169.01 26.1121 1174.4 26.1121 Q1175.17 26.1121 1176.1 26.2337 Q1177.03 26.3147 1178.17 26.5172 L1178.21 34.1734 Z" fill="#000000" fill-rule="evenodd" fill-opacity="1" /><path clip-path="url(#clip360)" d="M 0 0 M1210.86 34.1734 Q1209.6 33.4443 1208.1 33.1202 Q1206.64 32.7556 1204.86 32.7556 Q1198.54 32.7556 1195.14 36.8875 Q1191.78 40.9789 1191.78 48.6757 L1191.78 72.576 L1184.28 72.576 L1184.28 27.2059 L1191.78 27.2059 L1191.78 34.2544 Q1194.13 30.1225 1197.89 28.1376 Q1201.66 26.1121 1207.05 26.1121 Q1207.82 26.1121 1208.75 26.2337 Q1209.68 26.3147 1210.82 26.5172 L1210.86 34.1734 Z" fill="#000000" fill-rule="evenodd" fill-opacity="1" /><path clip-path="url(#clip360)" d="M 0 0 M1255.66 48.0275 L1255.66 51.6733 L1221.39 51.6733 Q1221.88 59.3701 1226.01 63.421 Q1230.18 67.4314 1237.59 67.4314 Q1241.89 67.4314 1245.9 66.3781 Q1249.95 65.3249 1253.92 63.2184 L1253.92 70.267 Q1249.91 71.9684 1245.7 72.8596 Q1241.48 73.7508 1237.15 73.7508 Q1226.29 73.7508 1219.93 67.4314 Q1213.61 61.1119 1213.61 50.3365 Q1213.61 39.1965 1219.61 32.6746 Q1225.64 26.1121 1235.85 26.1121 Q1245.01 26.1121 1250.31 32.0264 Q1255.66 37.9003 1255.66 48.0275 M1248.21 45.84 Q1248.13 39.7232 1244.76 36.0774 Q1241.44 32.4315 1235.93 32.4315 Q1229.69 32.4315 1225.93 35.9558 Q1222.2 39.4801 1221.63 45.8805 L1248.21 45.84 Z" fill="#000000" fill-rule="evenodd" fill-opacity="1" /><path clip-path="url(#clip360)" d="M 0 0 M1267.89 9.54393 L1275.35 9.54393 L1275.35 72.576 L1267.89 72.576 L1267.89 9.54393 Z" fill="#000000" fill-rule="evenodd" fill-opacity="1" /><path clip-path="url(#clip360)" d="M 0 0 M1311.56 49.7694 Q1302.53 49.7694 1299.05 51.8354 Q1295.56 53.9013 1295.56 58.8839 Q1295.56 62.8538 1298.15 65.2034 Q1300.79 67.5124 1305.28 67.5124 Q1311.48 67.5124 1315.21 63.1374 Q1318.98 58.7219 1318.98 51.4303 L1318.98 49.7694 L1311.56 49.7694 M1326.43 46.6907 L1326.43 72.576 L1318.98 72.576 L1318.98 65.6895 Q1316.42 69.8214 1312.62 71.8063 Q1308.81 73.7508 1303.3 73.7508 Q1296.33 73.7508 1292.2 69.8619 Q1288.11 65.9325 1288.11 59.3701 Q1288.11 51.7138 1293.21 47.825 Q1298.36 43.9361 1308.52 43.9361 L1318.98 43.9361 L1318.98 43.2069 Q1318.98 38.0623 1315.57 35.2672 Q1312.21 32.4315 1306.09 32.4315 Q1302.21 32.4315 1298.52 33.3632 Q1294.83 34.295 1291.43 36.1584 L1291.43 29.2718 Q1295.52 27.692 1299.37 26.9223 Q1303.22 26.1121 1306.86 26.1121 Q1316.71 26.1121 1321.57 31.2163 Q1326.43 36.3204 1326.43 46.6907 Z" fill="#000000" fill-rule="evenodd" fill-opacity="1" /><path clip-path="url(#clip360)" d="M 0 0 M1349.16 14.324 L1349.16 27.2059 L1364.51 27.2059 L1364.51 32.9987 L1349.16 32.9987 L1349.16 57.6282 Q1349.16 63.1779 1350.65 64.7578 Q1352.19 66.3376 1356.85 66.3376 L1364.51 66.3376 L1364.51 72.576 L1356.85 72.576 Q1348.22 72.576 1344.94 69.3758 Q1341.66 66.1351 1341.66 57.6282 L1341.66 32.9987 L1336.19 32.9987 L1336.19 27.2059 L1341.66 27.2059 L1341.66 14.324 L1349.16 14.324 Z" fill="#000000" fill-rule="evenodd" fill-opacity="1" /><path clip-path="url(#clip360)" d="M 0 0 M1374.31 27.2059 L1381.76 27.2059 L1381.76 72.576 L1374.31 72.576 L1374.31 27.2059 M1374.31 9.54393 L1381.76 9.54393 L1381.76 18.9825 L1374.31 18.9825 L1374.31 9.54393 Z" fill="#000000" fill-rule="evenodd" fill-opacity="1" /><path clip-path="url(#clip360)" d="M 0 0 M1414.94 32.4315 Q1408.95 32.4315 1405.46 37.1306 Q1401.98 41.7891 1401.98 49.9314 Q1401.98 58.0738 1405.42 62.7728 Q1408.91 67.4314 1414.94 67.4314 Q1420.9 67.4314 1424.38 62.7323 Q1427.86 58.0333 1427.86 49.9314 Q1427.86 41.8701 1424.38 37.1711 Q1420.9 32.4315 1414.94 32.4315 M1414.94 26.1121 Q1424.66 26.1121 1430.21 32.4315 Q1435.76 38.7509 1435.76 49.9314 Q1435.76 61.0714 1430.21 67.4314 Q1424.66 73.7508 1414.94 73.7508 Q1405.18 73.7508 1399.63 67.4314 Q1394.12 61.0714 1394.12 49.9314 Q1394.12 38.7509 1399.63 32.4315 Q1405.18 26.1121 1414.94 26.1121 Z" fill="#000000" fill-rule="evenodd" fill-opacity="1" /><path clip-path="url(#clip360)" d="M 0 0 M1485.83 45.1919 L1485.83 72.576 L1478.38 72.576 L1478.38 45.4349 Q1478.38 38.994 1475.87 35.7938 Q1473.36 32.5936 1468.33 32.5936 Q1462.3 32.5936 1458.81 36.4419 Q1455.33 40.2903 1455.33 46.9338 L1455.33 72.576 L1447.84 72.576 L1447.84 27.2059 L1455.33 27.2059 L1455.33 34.2544 Q1458 30.163 1461.61 28.1376 Q1465.25 26.1121 1469.99 26.1121 Q1477.81 26.1121 1481.82 30.9732 Q1485.83 35.7938 1485.83 45.1919 Z" fill="#000000" fill-rule="evenodd" fill-opacity="1" /><path clip-path="url(#clip360)" d="M 0 0 M1529.62 28.5427 L1529.62 35.5912 Q1526.46 33.9709 1523.06 33.1607 Q1519.66 32.3505 1516.01 32.3505 Q1510.46 32.3505 1507.67 34.0519 Q1504.91 35.7533 1504.91 39.156 Q1504.91 41.7486 1506.9 43.2475 Q1508.88 44.7058 1514.88 46.0426 L1517.43 46.6097 Q1525.37 48.3111 1528.69 51.4303 Q1532.05 54.509 1532.05 60.0587 Q1532.05 66.3781 1527.03 70.0644 Q1522.05 73.7508 1513.3 73.7508 Q1509.65 73.7508 1505.68 73.0216 Q1501.75 72.3329 1497.38 70.9151 L1497.38 63.2184 Q1501.51 65.3654 1505.52 66.4591 Q1509.53 67.5124 1513.46 67.5124 Q1518.73 67.5124 1521.56 65.73 Q1524.4 63.9071 1524.4 60.6258 Q1524.4 57.5877 1522.33 55.9673 Q1520.31 54.3469 1513.38 52.8481 L1510.79 52.2405 Q1503.86 50.7821 1500.78 47.7845 Q1497.7 44.7463 1497.7 39.4801 Q1497.7 33.0797 1502.24 29.5959 Q1506.78 26.1121 1515.12 26.1121 Q1519.25 26.1121 1522.9 26.7198 Q1526.54 27.3274 1529.62 28.5427 Z" fill="#000000" fill-rule="evenodd" fill-opacity="1" /><path clip-path="url(#clip360)" d="M 0 0 M1564.95 27.2059 L1572.85 27.2059 L1587.02 65.2844 L1601.2 27.2059 L1609.1 27.2059 L1592.09 72.576 L1581.96 72.576 L1564.95 27.2059 Z" fill="#000000" fill-rule="evenodd" fill-opacity="1" /><path clip-path="url(#clip360)" d="M 0 0 M1648.31 28.5427 L1648.31 35.5912 Q1645.15 33.9709 1641.75 33.1607 Q1638.35 32.3505 1634.7 32.3505 Q1629.15 32.3505 1626.36 34.0519 Q1623.6 35.7533 1623.6 39.156 Q1623.6 41.7486 1625.59 43.2475 Q1627.57 44.7058 1633.57 46.0426 L1636.12 46.6097 Q1644.06 48.3111 1647.38 51.4303 Q1650.74 54.509 1650.74 60.0587 Q1650.74 66.3781 1645.72 70.0644 Q1640.74 73.7508 1631.99 73.7508 Q1628.34 73.7508 1624.37 73.0216 Q1620.44 72.3329 1616.07 70.9151 L1616.07 63.2184 Q1620.2 65.3654 1624.21 66.4591 Q1628.22 67.5124 1632.15 67.5124 Q1637.42 67.5124 1640.25 65.73 Q1643.09 63.9071 1643.09 60.6258 Q1643.09 57.5877 1641.02 55.9673 Q1639 54.3469 1632.07 52.8481 L1629.48 52.2405 Q1622.55 50.7821 1619.47 47.7845 Q1616.39 44.7463 1616.39 39.4801 Q1616.39 33.0797 1620.93 29.5959 Q1625.47 26.1121 1633.81 26.1121 Q1637.94 26.1121 1641.59 26.7198 Q1645.24 27.3274 1648.31 28.5427 Z" fill="#000000" fill-rule="evenodd" fill-opacity="1" /><path clip-path="url(#clip360)" d="M 0 0 M1680.92 12.096 L1732.09 12.096 L1732.09 18.9825 L1710.62 18.9825 L1710.62 72.576 L1702.39 72.576 L1702.39 18.9825 L1680.92 18.9825 L1680.92 12.096 Z" fill="#000000" fill-rule="evenodd" fill-opacity="1" /><path clip-path="url(#clip360)" d="M 0 0 M1737.11 27.2059 L1744.56 27.2059 L1744.56 72.576 L1737.11 72.576 L1737.11 27.2059 M1737.11 9.54393 L1744.56 9.54393 L1744.56 18.9825 L1737.11 18.9825 L1737.11 9.54393 Z" fill="#000000" fill-rule="evenodd" fill-opacity="1" /><path clip-path="url(#clip360)" d="M 0 0 M1795.48 35.9153 Q1798.28 30.8922 1802.17 28.5022 Q1806.06 26.1121 1811.32 26.1121 Q1818.41 26.1121 1822.26 31.0947 Q1826.11 36.0368 1826.11 45.1919 L1826.11 72.576 L1818.61 72.576 L1818.61 45.4349 Q1818.61 38.913 1816.31 35.7533 Q1814 32.5936 1809.26 32.5936 Q1803.46 32.5936 1800.1 36.4419 Q1796.74 40.2903 1796.74 46.9338 L1796.74 72.576 L1789.25 72.576 L1789.25 45.4349 Q1789.25 38.8725 1786.94 35.7533 Q1784.63 32.5936 1779.81 32.5936 Q1774.09 32.5936 1770.73 36.4824 Q1767.37 40.3308 1767.37 46.9338 L1767.37 72.576 L1759.88 72.576 L1759.88 27.2059 L1767.37 27.2059 L1767.37 34.2544 Q1769.92 30.082 1773.49 28.0971 Q1777.05 26.1121 1781.95 26.1121 Q1786.9 26.1121 1790.34 28.6237 Q1793.82 31.1352 1795.48 35.9153 Z" fill="#000000" fill-rule="evenodd" fill-opacity="1" /><path clip-path="url(#clip360)" d="M 0 0 M1879.78 48.0275 L1879.78 51.6733 L1845.51 51.6733 Q1846 59.3701 1850.13 63.421 Q1854.3 67.4314 1861.72 67.4314 Q1866.01 67.4314 1870.02 66.3781 Q1874.07 65.3249 1878.04 63.2184 L1878.04 70.267 Q1874.03 71.9684 1869.82 72.8596 Q1865.6 73.7508 1861.27 73.7508 Q1850.41 73.7508 1844.05 67.4314 Q1837.73 61.1119 1837.73 50.3365 Q1837.73 39.1965 1843.73 32.6746 Q1849.77 26.1121 1859.97 26.1121 Q1869.13 26.1121 1874.44 32.0264 Q1879.78 37.9003 1879.78 48.0275 M1872.33 45.84 Q1872.25 39.7232 1868.89 36.0774 Q1865.56 32.4315 1860.06 32.4315 Q1853.82 32.4315 1850.05 35.9558 Q1846.32 39.4801 1845.76 45.8805 L1872.33 45.84 Z" fill="#000000" fill-rule="evenodd" fill-opacity="1" /><path clip-path="url(#clip360)" d="M 0 0 M1943.26 17.6457 Q1934.35 17.6457 1929.08 24.2892 Q1923.86 30.9327 1923.86 42.3968 Q1923.86 53.8203 1929.08 60.4638 Q1934.35 67.1073 1943.26 67.1073 Q1952.17 67.1073 1957.36 60.4638 Q1962.58 53.8203 1962.58 42.3968 Q1962.58 30.9327 1957.36 24.2892 Q1952.17 17.6457 1943.26 17.6457 M1943.26 11.0023 Q1955.98 11.0023 1963.6 19.5497 Q1971.21 28.0566 1971.21 42.3968 Q1971.21 56.6965 1963.6 65.2439 Q1955.98 73.7508 1943.26 73.7508 Q1930.5 73.7508 1922.84 65.2439 Q1915.23 56.737 1915.23 42.3968 Q1915.23 28.0566 1922.84 19.5497 Q1930.5 11.0023 1943.26 11.0023 Z" fill="#000000" fill-rule="evenodd" fill-opacity="1" /><path clip-path="url(#clip360)" d="M 0 0 M2006.66 9.54393 L2006.66 15.7418 L1999.53 15.7418 Q1995.52 15.7418 1993.94 17.3622 Q1992.4 18.9825 1992.4 23.1955 L1992.4 27.2059 L2004.67 27.2059 L2004.67 32.9987 L1992.4 32.9987 L1992.4 72.576 L1984.9 72.576 L1984.9 32.9987 L1977.77 32.9987 L1977.77 27.2059 L1984.9 27.2059 L1984.9 24.0462 Q1984.9 16.471 1988.43 13.0277 Q1991.95 9.54393 1999.61 9.54393 L2006.66 9.54393 Z" fill="#000000" fill-rule="evenodd" fill-opacity="1" /><path clip-path="url(#clip360)" d="M 0 0 M2035.86 9.54393 L2035.86 15.7418 L2028.73 15.7418 Q2024.72 15.7418 2023.14 17.3622 Q2021.61 18.9825 2021.61 23.1955 L2021.61 27.2059 L2033.88 27.2059 L2033.88 32.9987 L2021.61 32.9987 L2021.61 72.576 L2014.11 72.576 L2014.11 32.9987 L2006.98 32.9987 L2006.98 27.2059 L2014.11 27.2059 L2014.11 24.0462 Q2014.11 16.471 2017.64 13.0277 Q2021.16 9.54393 2028.82 9.54393 L2035.86 9.54393 Z" fill="#000000" fill-rule="evenodd" fill-opacity="1" /><path clip-path="url(#clip360)" d="M 0 0 M2071.03 28.5427 L2071.03 35.5912 Q2067.87 33.9709 2064.46 33.1607 Q2061.06 32.3505 2057.42 32.3505 Q2051.87 32.3505 2049.07 34.0519 Q2046.32 35.7533 2046.32 39.156 Q2046.32 41.7486 2048.3 43.2475 Q2050.29 44.7058 2056.28 46.0426 L2058.83 46.6097 Q2066.77 48.3111 2070.09 51.4303 Q2073.46 54.509 2073.46 60.0587 Q2073.46 66.3781 2068.43 70.0644 Q2063.45 73.7508 2054.7 73.7508 Q2051.06 73.7508 2047.09 73.0216 Q2043.16 72.3329 2038.78 70.9151 L2038.78 63.2184 Q2042.91 65.3654 2046.92 66.4591 Q2050.93 67.5124 2054.86 67.5124 Q2060.13 67.5124 2062.96 65.73 Q2065.8 63.9071 2065.8 60.6258 Q2065.8 57.5877 2063.73 55.9673 Q2061.71 54.3469 2054.78 52.8481 L2052.19 52.2405 Q2045.26 50.7821 2042.18 47.7845 Q2039.11 44.7463 2039.11 39.4801 Q2039.11 33.0797 2043.64 29.5959 Q2048.18 26.1121 2056.52 26.1121 Q2060.66 26.1121 2064.3 26.7198 Q2067.95 27.3274 2071.03 28.5427 Z" fill="#000000" fill-rule="evenodd" fill-opacity="1" /><path clip-path="url(#clip360)" d="M 0 0 M2124.13 48.0275 L2124.13 51.6733 L2089.86 51.6733 Q2090.35 59.3701 2094.48 63.421 Q2098.65 67.4314 2106.07 67.4314 Q2110.36 67.4314 2114.37 66.3781 Q2118.42 65.3249 2122.39 63.2184 L2122.39 70.267 Q2118.38 71.9684 2114.17 72.8596 Q2109.96 73.7508 2105.62 73.7508 Q2094.76 73.7508 2088.4 67.4314 Q2082.09 61.1119 2082.09 50.3365 Q2082.09 39.1965 2088.08 32.6746 Q2094.12 26.1121 2104.32 26.1121 Q2113.48 26.1121 2118.79 32.0264 Q2124.13 37.9003 2124.13 48.0275 M2116.68 45.84 Q2116.6 39.7232 2113.24 36.0774 Q2109.91 32.4315 2104.41 32.4315 Q2098.17 32.4315 2094.4 35.9558 Q2090.67 39.4801 2090.11 45.8805 L2116.68 45.84 Z" fill="#000000" fill-rule="evenodd" fill-opacity="1" /><path clip-path="url(#clip360)" d="M 0 0 M2143.74 14.324 L2143.74 27.2059 L2159.09 27.2059 L2159.09 32.9987 L2143.74 32.9987 L2143.74 57.6282 Q2143.74 63.1779 2145.24 64.7578 Q2146.78 66.3376 2151.44 66.3376 L2159.09 66.3376 L2159.09 72.576 L2151.44 72.576 Q2142.81 72.576 2139.53 69.3758 Q2136.25 66.1351 2136.25 57.6282 L2136.25 32.9987 L2130.78 32.9987 L2130.78 27.2059 L2136.25 27.2059 L2136.25 14.324 L2143.74 14.324 Z" fill="#000000" fill-rule="evenodd" fill-opacity="1" /><polyline clip-path="url(#clip363)" style="stroke:#009af9; stroke-width:4; stroke-opacity:1; fill:none" points="
  363.976,158.575 365.816,842.334 367.655,967.054 369.495,1058.16 371.334,1120.31 373.174,1026.28 375.013,1047.53 376.853,779.138 378.692,781.574 380.532,863.712 
  382.371,1228.1 384.211,924.129 386.05,753.868 387.89,1079.87 389.729,882.736 391.569,948.581 393.408,1108.77 395.248,1163.33 397.087,838.435 400.766,795.803 
  402.605,1165.6 404.445,637.34 406.284,1227.91 408.124,777.889 409.963,635.626 411.803,816.594 413.642,1007.88 415.482,1045.69 417.321,1010.66 419.161,840.794 
  421,976.426 422.84,932.833 426.519,1068.27 428.358,951.703 430.198,825.5 432.037,418.193 433.877,886.957 435.716,931.63 437.556,985.923 439.395,781.716 
  441.235,1112.28 443.074,668.425 444.914,945.457 446.753,969.898 448.593,876.163 450.432,978.673 452.272,1154.26 454.111,1139.67 455.951,1098.78 457.79,778.662 
  459.63,1040.49 461.469,1094.57 463.309,1139.73 465.148,1030.74 466.988,1054.23 468.827,663.029 470.667,892.848 472.506,879.062 474.346,712.973 476.185,943.555 
  478.025,919.045 479.864,1021.69 481.704,950.085 483.543,511.207 485.383,1189.55 487.222,904.612 489.062,1198.14 490.901,906.448 492.74,954.615 494.58,879.688 
  496.419,875.143 498.259,823.852 500.098,813.538 501.938,817.237 503.777,837.72 505.617,817.073 507.456,896.82 509.296,851.944 511.135,1106.87 512.975,1029.64 
  514.814,1092.62 516.654,640.697 518.493,796.281 520.333,1063.75 522.172,1121.01 524.012,1020.68 525.851,930.277 527.691,1321.53 529.53,1187.28 531.37,726.585 
  533.209,885.821 535.049,969.24 536.888,1129.52 538.728,598.299 540.567,873.497 542.407,1328.69 544.246,642.943 546.086,1005.31 547.925,579.953 549.765,876.296 
  551.604,843.922 553.444,921.165 555.283,1000.01 557.123,877.884 558.962,501.005 560.802,1003.68 562.641,966.426 564.481,931.806 566.32,1083.58 568.16,988.335 
  569.999,998.801 571.839,1086.15 573.678,1001.63 575.518,610.721 577.357,978.217 579.197,1262.83 581.036,1009.15 582.875,845.314 584.715,1183.99 586.554,981.516 
  588.394,818.369 590.233,968.415 592.073,726.902 595.752,986.189 597.591,685.8 599.431,898.544 601.27,906.165 603.11,886.688 604.949,1102.22 606.789,1027.57 
  608.628,1064.92 610.468,874.345 612.307,1018 614.147,885.541 615.986,914.753 617.826,816.308 619.665,622.414 621.505,735.635 623.344,834.933 625.184,681.262 
  628.863,1007.65 630.702,812.474 632.542,1264.86 634.381,1070.83 636.221,1150.6 638.06,816.477 639.9,991.845 641.739,1098.75 643.579,1007.14 645.418,915.544 
  647.258,974.254 649.097,1154.3 650.937,870.147 652.776,919.942 654.616,853.898 656.455,729.737 660.134,804.827 661.974,701.062 663.813,1023.44 665.653,834.416 
  667.492,1074.91 669.332,1070.3 671.171,788.079 673.01,1103.82 674.85,729.961 676.689,1023.42 678.529,1004.01 680.368,979.013 682.208,827.996 684.047,839.351 
  685.887,931.515 687.726,1077.86 689.566,1036.78 691.405,1006.05 693.245,1108.78 695.084,911.471 696.924,1164.96 698.763,1241.08 700.603,973.585 702.442,834.693 
  704.282,873.711 706.121,1018.68 707.961,861.222 709.8,675.278 711.64,839.81 713.479,1092.23 715.319,1182.29 717.158,785.929 718.998,753.925 720.837,787.817 
  722.677,828.712 724.516,910.41 726.356,1198.02 728.195,1243.2 730.035,749.708 731.874,949.814 733.714,1119.19 735.553,811.456 737.393,1010.02 739.232,844.573 
  741.072,847.863 742.911,949.534 746.59,933.14 748.43,1024.81 750.269,1031.34 752.109,1052.65 753.948,926.234 755.788,925.429 757.627,1013.07 759.466,900.728 
  761.306,989.631 763.145,865.336 764.985,1083.17 766.824,651.581 768.664,1033.72 770.503,1144.97 772.343,1207.51 774.182,862.522 776.022,1022.86 777.861,805.104 
  779.701,826.57 781.54,882.875 783.38,826.035 785.219,828.42 787.059,827.891 788.898,1162.09 790.738,746.99 792.577,1077.8 794.417,938.599 796.256,949.281 
  798.096,1041.9 799.935,922.673 801.775,889.797 803.614,784.555 805.454,628.819 807.293,788.011 809.133,827.777 810.972,790.867 812.812,1025.75 814.651,653.864 
  816.491,1019.93 818.33,1082.92 820.17,1083.69 822.009,1047.97 823.849,878.483 825.688,1011.85 827.528,1116.77 829.367,886.36 831.207,1143.41 833.046,1014.62 
  834.886,955.93 836.725,729.365 838.565,871.775 840.404,937.796 842.244,563.555 844.083,991.397 845.923,1048.47 847.762,993.72 849.601,906.736 851.441,724.479 
  853.28,955.59 855.12,939.808 856.959,799.051 858.799,807.072 860.638,851.91 862.478,585.981 864.317,821.759 866.157,675.855 867.996,1014.31 869.836,770.25 
  871.675,1281.84 873.515,764.588 875.354,890.391 877.194,1065.45 879.033,1064.28 880.873,1309.66 882.712,890.983 884.552,925.765 886.391,891.006 888.231,697.608 
  890.07,915.874 891.91,883.978 893.749,985.475 895.589,1116.39 897.428,1072.86 899.268,757.754 901.107,1048.2 902.947,849.56 904.786,1036.26 906.626,922.003 
  908.465,754.579 910.305,842.851 912.144,794.985 913.984,802.298 915.823,1039.9 917.663,813.016 919.502,725.589 921.342,942.987 923.181,1137.7 925.021,870.58 
  926.86,869.241 928.7,936.886 930.539,958.978 932.379,847.005 934.218,626.851 936.058,999.486 937.897,660.564 939.736,1092.51 941.576,1204.48 943.415,931.247 
  945.255,969.468 947.094,996.093 948.934,1118.65 950.773,886.728 952.613,1075.52 954.452,1305.84 956.292,1116.17 958.131,482.979 959.971,996.008 961.81,779.255 
  963.65,850.529 965.489,628.668 967.329,1044.28 969.168,760.547 971.008,1002.84 972.847,947.297 974.687,1002.6 976.526,850.667 978.366,839.899 980.205,830.98 
  982.045,810.479 983.884,975.227 985.724,921.48 987.563,941.593 989.403,930.504 991.242,1149.35 993.082,848.024 994.921,760.066 996.761,1067.76 998.6,818.819 
  1000.44,965.359 1002.28,933.958 1004.12,911.393 1005.96,953.389 1007.8,1006.84 1009.64,812.297 1011.48,873.631 1013.32,548.744 1015.16,872.248 1017,936.196 
  1018.83,1048.31 1020.67,887.304 1022.51,974.4 1024.35,961.189 1026.19,1059.27 1028.03,836.05 1029.87,757.642 1031.71,764.365 1033.55,911.778 1035.39,1147.92 
  1037.23,737.346 1039.07,1075.61 1040.91,1119.45 1042.75,1110.75 1044.59,810.656 1046.43,1206.61 1048.27,744.219 1050.11,792.687 1051.95,993.628 1053.78,1167.3 
  1055.62,1051.27 1057.46,1108.47 1059.3,1245.03 1061.14,918.523 1062.98,918.853 1064.82,1254.99 1066.66,703.931 1068.5,933.959 1070.34,949.828 1072.18,856.011 
  1074.02,915.471 1075.86,777.693 1077.7,901.317 1079.54,666.084 1081.38,997.274 1083.22,868.116 1085.06,1083.06 1086.9,840.562 1088.74,759.599 1090.57,1232.2 
  1092.41,1066.39 1094.25,1110.04 1096.09,731.658 1097.93,523.273 1099.77,888.744 1101.61,1000.66 1103.45,770.132 1105.29,1203.44 1107.13,783.859 1108.97,828.893 
  1110.81,916.626 1112.65,737.973 1114.49,1028.39 1116.33,1171.7 1118.17,1109.29 1120.01,998.409 1121.85,1032.38 1123.69,848.524 1125.52,1071.04 1127.36,1129.27 
  1129.2,1015.63 1131.04,922.097 1132.88,657.563 1134.72,928.731 1136.56,1044.96 1138.4,815.297 1140.24,775.783 1142.08,1004.16 1143.92,908.951 1145.76,928.634 
  1147.6,748.311 1149.44,1048.87 1151.28,1061.17 1153.12,884.219 1154.96,767.267 1156.8,838.376 1158.64,1000.43 1160.48,746.061 1162.31,889.641 1164.15,937.093 
  1165.99,748.871 1167.83,989.818 1169.67,1030.43 1171.51,790.598 1173.35,893.263 1175.19,977.037 1177.03,1152.87 1178.87,840.005 1180.71,756.396 1182.55,1037.11 
  1184.39,848.234 1186.23,893.367 1188.07,1033.34 1189.91,974.69 1191.75,1155.6 1193.59,1190.14 1195.43,1096.89 1197.27,1027.98 1199.1,910.273 1200.94,975.81 
  1202.78,1162.08 1204.62,1016.19 1206.46,975.714 1208.3,913.474 1210.14,929.18 1211.98,757.814 1213.82,843.414 1215.66,700.779 1219.34,605.532 1221.18,674.439 
  1223.02,814.22 1224.86,733.751 1226.7,958.48 1228.54,805.555 1230.38,1189 1232.22,900.441 1234.05,817.976 1235.89,992.668 1237.73,1030.81 1239.57,467.112 
  1241.41,943.857 1243.25,1113.79 1245.09,734.888 1246.93,829.936 1248.77,922.009 1250.61,885.259 1252.45,1229.41 1254.29,961.04 1256.13,1075.52 1257.97,1052.67 
  1259.81,1038.92 1261.65,800.095 1263.49,928.414 1265.33,891.679 1267.17,1080.47 1269.01,947.59 1270.84,836.861 1272.68,1070.61 1274.52,1009.27 1276.36,837.471 
  1278.2,895.182 1280.04,802.8 1281.88,904.204 1283.72,737.553 1285.56,984.652 1287.4,1015.09 1289.24,782.642 1291.08,891.628 1292.92,729.55 1294.76,782.226 
  1296.6,1065.06 1298.44,907.331 1300.28,683.889 1302.12,838.171 1303.96,1096.88 1305.79,877.582 1307.63,1080.89 1309.47,1111.67 1311.31,1258.1 1313.15,1051.43 
  1314.99,1109.53 1316.83,1150.8 1318.67,752.133 1320.51,891.787 1322.35,1004.37 1324.19,981.089 1326.03,1053.32 1327.87,1103.62 1329.71,906.276 1331.55,882.301 
  1333.39,418.436 1335.23,913.023 1337.07,1012.54 1338.91,880.471 1340.75,867.821 1342.58,952.288 1344.42,1075.61 1346.26,1094.77 1348.1,934.766 1349.94,1026.27 
  1351.78,1002.93 1353.62,1050.22 1355.46,806.429 1357.3,1081.8 1360.98,1038.4 1362.82,620.914 1364.66,777.381 1366.5,893.399 1368.34,797.769 1370.18,1038.11 
  1372.02,881.287 1373.86,1177.5 1375.7,762.202 1377.54,701.573 1379.37,816.044 1381.21,770.312 1383.05,1194.38 1384.89,896.936 1386.73,632.162 1388.57,1129.04 
  1390.41,889.021 1392.25,874.366 1394.09,1006.8 1395.93,1172.04 1397.77,1255 1399.61,938.215 1401.45,846.669 1403.29,766.928 1405.13,889.595 1406.97,789.612 
  1408.81,1028.12 1410.65,933.158 1412.49,785.488 1414.32,746.516 1416.16,1125.13 1418,872.828 1419.84,949.742 1421.68,888.297 1423.52,827.811 1425.36,656.613 
  1427.2,1051.39 1429.04,1032.09 1430.88,786.149 1432.72,953.648 1434.56,1127.44 1436.4,1008.57 1438.24,1196.69 1440.08,1142.21 1441.92,813.121 1443.76,1052.24 
  1445.6,922.401 1447.44,979.172 1449.28,999.031 1451.11,902.45 1452.95,1222.19 1454.79,1117.12 1456.63,977.045 1458.47,1018.68 1460.31,1005.75 1462.15,1241.6 
  1463.99,710.93 1465.83,725.426 1467.67,1060.78 1469.51,991.344 1471.35,837.335 1473.19,962.123 1475.03,773.058 1476.87,1108.87 1478.71,865.083 1480.55,957.039 
  1482.39,993.124 1484.23,993.12 1486.06,822.119 1487.9,891.676 1489.74,1244.56 1491.58,1026.62 1493.42,808.956 1495.26,989.309 1497.1,676.317 1498.94,1175.55 
  1500.78,843.324 1502.62,1002.78 1504.46,739.502 1506.3,945.903 1508.14,982.489 1509.98,1079.08 1511.82,1023.56 1513.66,1049.93 1515.5,773.054 1517.34,976.668 
  1519.18,724.099 1521.02,794.152 1522.85,756.045 1524.69,1063.38 1526.53,1068.87 1528.37,835.033 1530.21,850.797 1532.05,850.764 1533.89,816.774 1535.73,877.375 
  1537.57,824.865 1539.41,760.156 1541.25,1092.41 1543.09,1072.07 1544.93,925.021 1546.77,910.533 1548.61,1048.5 1550.45,974.059 1552.29,835.806 1554.13,977.301 
  1555.97,1153.27 1557.81,557.25 1559.64,1059.56 1561.48,1071.79 1563.32,996.423 1565.16,1131.02 1567,931.079 1568.84,1008.24 1570.68,825.554 1572.52,815.449 
  1574.36,1067.16 1576.2,1022.38 1578.04,857.457 1579.88,1116.32 1581.72,714.31 1583.56,920.386 1585.4,849.573 1587.24,913.809 1589.08,943.164 1590.92,584.983 
  1592.76,1034.77 1594.59,1276.62 1596.43,892.247 1598.27,876.154 1600.11,1133.31 1601.95,716.374 1603.79,1098.55 1605.63,1131.54 1607.47,1077.8 1609.31,774.254 
  1611.15,969.038 1612.99,1225.56 1614.83,852.611 1616.67,862.749 1618.51,1011.19 1620.35,1280.01 1622.19,1070.71 1624.03,975.769 1625.87,816.204 1627.71,1092.55 
  1629.55,858.638 1631.38,1200.9 1633.22,1080.85 1635.06,951.625 1636.9,1228.89 1638.74,989.446 1640.58,849.304 1642.42,858.36 1644.26,786.88 1646.1,643.697 
  1647.94,682.056 1649.78,899.852 1651.62,833.888 1653.46,840.271 1655.3,987.431 1657.14,723.488 1658.98,804.18 1660.82,1307.04 1662.66,1055.79 1664.5,855.46 
  1666.33,702.232 1668.17,816.224 1670.01,896.205 1671.85,1096.85 1673.69,887.457 1675.53,985.566 1677.37,1017.11 1679.21,785.254 1681.05,1084.16 1682.89,856.208 
  1684.73,952.559 1686.57,1113.05 1688.41,1189.71 1690.25,993.545 1692.09,1062.47 1693.93,1199.12 1695.77,914.779 1697.61,503.906 1699.45,390.929 1701.29,897.943 
  1703.12,1071.41 1704.96,1190.47 1706.8,900.475 1708.64,967.974 1710.48,685.857 1712.32,1001.26 1714.16,906.028 1716,981.867 1717.84,805.141 1719.68,771.492 
  1721.52,1087.9 1723.36,876.987 1725.2,1000.61 1727.04,619.18 1728.88,914.027 1730.72,992.913 1732.56,981.929 1734.4,1146.19 1736.24,920.66 1738.08,938.755 
  1739.91,926.809 1741.75,899.54 1743.59,1127.68 1745.43,1109.33 1747.27,895.725 1749.11,922.799 1750.95,951.748 1752.79,921.328 1754.63,1156.61 1756.47,870.383 
  1758.31,867.342 1760.15,1063.38 1761.99,912.882 1763.83,862.67 1765.67,840.366 1767.51,1024.5 1769.35,977.083 1771.19,843.587 1773.03,802.037 1774.86,793.711 
  1776.7,769.5 1778.54,969.527 1780.38,861.972 1782.22,757.741 1784.06,1072.82 1785.9,921.731 1787.74,960.375 1789.58,900.864 1791.42,1187.93 1793.26,840.527 
  1795.1,748.353 1796.94,922.181 1798.78,751.577 1800.62,1022.1 1802.46,917.311 1804.3,1189.19 1806.14,922.16 1807.98,942.278 1809.82,1200.17 1811.65,979.075 
  1813.49,951.305 1815.33,861.938 1817.17,1078.63 1819.01,1186.7 1820.85,756.734 1822.69,970.532 1824.53,1067.18 1826.37,1138.12 1828.21,734.009 1830.05,1094.52 
  1831.89,864.814 1833.73,1042.6 1835.57,856.713 1837.41,722.095 1839.25,719.203 1841.09,933.236 1842.93,945.177 1844.77,831.041 1846.6,944.688 1848.44,1278.81 
  1850.28,671.497 1852.12,853.29 1853.96,696.834 1855.8,894.359 1857.64,1027.93 1859.48,1075.68 1861.32,871.863 1863.16,998.035 1865,691.337 1866.84,1083.18 
  1868.68,793.6 1870.52,730.527 1872.36,1108.68 1874.2,850.08 1876.04,931.055 1877.88,1052.94 1879.72,861.731 1881.56,790.751 1883.39,1191.11 1885.23,698.175 
  1887.07,905.991 1888.91,1044.06 1890.75,626.884 1892.59,911.011 1894.43,881.456 1896.27,719.959 1898.11,471.837 1899.95,729.902 1901.79,946.171 1903.63,1063.94 
  1905.47,1032.83 1907.31,856.054 1909.15,900.289 1910.99,698.053 1912.83,934.287 1914.67,946.412 1916.51,802.366 1918.34,442.484 1920.18,998.61 1922.02,833.088 
  1923.86,985.9 1925.7,951.764 1927.54,997.93 1929.38,980.965 1931.22,837.752 1933.06,1071.96 1936.74,673.88 1938.58,1044.39 1940.42,906.844 1942.26,978.427 
  1944.1,869.211 1945.94,989.483 1947.78,963.503 1949.62,1073.81 1951.46,1074.34 1953.3,1001.57 1955.13,1144.14 1956.97,802.961 1958.81,974.223 1960.65,823.888 
  1962.49,701.839 1964.33,988.011 1966.17,968.258 1968.01,752.661 1969.85,1012.33 1971.69,892.079 1973.53,1050.1 1975.37,974.9 1977.21,1181.35 1979.05,744.853 
  1980.89,1028.93 1982.73,945.018 1984.57,1028.2 1986.41,1071.43 1988.25,874.796 1990.09,1038.71 1991.92,742.718 1993.76,1102.32 1995.6,995.505 1997.44,746.144 
  1999.28,740.012 2001.12,1047.27 2002.96,1115.46 2004.8,911.459 2006.64,525.526 2008.48,1072.33 2010.32,859.751 2012.16,1120.03 2014,985.269 2015.84,644.85 
  2017.68,637.104 2019.52,1224.37 2021.36,845.742 2023.2,656.174 2025.04,678.896 2026.87,1011.54 2028.71,985.402 2030.55,780.789 2032.39,931.285 2034.23,1100.54 
  2036.07,909.4 2037.91,1137.86 2039.75,998.56 2041.59,836.127 2043.43,960.552 2045.27,821.808 2047.11,872.375 2048.95,967.534 2050.79,926.071 2052.63,754.617 
  2054.47,823.684 2056.31,763.205 2058.15,1105.44 2059.99,1110.33 2061.83,1109.7 2063.66,967.615 2065.5,787.699 2067.34,928.03 2069.18,806.461 2071.02,808.805 
  2072.86,1031.13 2074.7,951.528 2076.54,830.856 2078.38,845.385 2080.22,805.295 2082.06,985.196 2083.9,775.462 2085.74,754.493 2087.58,735.177 2089.42,776.592 
  2091.26,1232.02 2093.1,1100.59 2094.94,692.287 2096.78,856.672 2098.61,1086.33 2100.45,981.03 2102.29,1016.76 2104.13,990.489 2105.97,819.921 2107.81,989.063 
  2109.65,821.571 2111.49,880.972 2113.33,1021.74 2115.17,1128.54 2117.01,1159.13 2118.85,795.347 2120.69,936.94 2122.53,1236.38 2124.37,935.614 2126.21,1096.82 
  2128.05,863.132 2129.89,1023.91 2131.73,838.338 2133.57,816.847 2135.4,763.219 2137.24,842.335 2139.08,790.865 2140.92,938.017 2142.76,800.483 2144.6,1089.64 
  2146.44,997.19 2148.28,1104.73 2150.12,1005.87 2151.96,1017.83 2153.8,770.093 2155.64,771.406 2157.48,848.037 2159.32,995.333 2161.16,979.356 2163,1017.58 
  2164.84,1291.22 2166.68,925.646 2168.52,996.93 2170.36,1218.83 2172.19,1134.36 2174.03,1124.02 2175.87,1067.58 2177.71,1126.96 2179.55,1151.78 2181.39,789.022 
  2183.23,1035.98 2185.07,1157.81 2186.91,859.474 2188.75,915.213 2190.59,903.625 2192.43,959.578 2194.27,1165.6 2196.11,1088.62 2197.95,1049.97 2199.79,953.782 
  2201.63,1126.58 
  "/>
</svg>
