<?xml version="1.0" encoding="utf-8"?>
<svg xmlns="http://www.w3.org/2000/svg" xmlns:xlink="http://www.w3.org/1999/xlink" width="576" height="384" viewBox="0 0 2304 1536">
<defs>
  <clipPath id="clip630">
    <rect x="0" y="0" width="2304" height="1536"/>
  </clipPath>
</defs>
<path clip-path="url(#clip630)" d="
M0 1536 L2304 1536 L2304 0 L0 0  Z
  " fill="#ffffff" fill-rule="evenodd" fill-opacity="1"/>
<defs>
  <clipPath id="clip631">
    <rect x="460" y="0" width="1614" height="1536"/>
  </clipPath>
</defs>
<path clip-path="url(#clip630)" d="
M279.23 1359.82 L2256.76 1359.82 L2256.76 123.472 L279.23 123.472  Z
  " fill="#ffffff" fill-rule="evenodd" fill-opacity="1"/>
<defs>
  <clipPath id="clip632">
    <rect x="279" y="123" width="1979" height="1237"/>
  </clipPath>
</defs>
<polyline clip-path="url(#clip632)" style="stroke:#000000; stroke-width:2; stroke-opacity:0.1; fill:none" points="
  335.198,1359.82 335.198,123.472 
  "/>
<polyline clip-path="url(#clip632)" style="stroke:#000000; stroke-width:2; stroke-opacity:0.1; fill:none" points="
  801.595,1359.82 801.595,123.472 
  "/>
<polyline clip-path="url(#clip632)" style="stroke:#000000; stroke-width:2; stroke-opacity:0.1; fill:none" points="
  1267.99,1359.82 1267.99,123.472 
  "/>
<polyline clip-path="url(#clip632)" style="stroke:#000000; stroke-width:2; stroke-opacity:0.1; fill:none" points="
  1734.39,1359.82 1734.39,123.472 
  "/>
<polyline clip-path="url(#clip632)" style="stroke:#000000; stroke-width:2; stroke-opacity:0.1; fill:none" points="
  2200.79,1359.82 2200.79,123.472 
  "/>
<polyline clip-path="url(#clip630)" style="stroke:#000000; stroke-width:4; stroke-opacity:1; fill:none" points="
  279.23,1359.82 2256.76,1359.82 
  "/>
<polyline clip-path="url(#clip630)" style="stroke:#000000; stroke-width:4; stroke-opacity:1; fill:none" points="
  335.198,1359.82 335.198,1344.98 
  "/>
<polyline clip-path="url(#clip630)" style="stroke:#000000; stroke-width:4; stroke-opacity:1; fill:none" points="
  801.595,1359.82 801.595,1344.98 
  "/>
<polyline clip-path="url(#clip630)" style="stroke:#000000; stroke-width:4; stroke-opacity:1; fill:none" points="
  1267.99,1359.82 1267.99,1344.98 
  "/>
<polyline clip-path="url(#clip630)" style="stroke:#000000; stroke-width:4; stroke-opacity:1; fill:none" points="
  1734.39,1359.82 1734.39,1344.98 
  "/>
<polyline clip-path="url(#clip630)" style="stroke:#000000; stroke-width:4; stroke-opacity:1; fill:none" points="
  2200.79,1359.82 2200.79,1344.98 
  "/>
<path clip-path="url(#clip630)" d="M 0 0 M335.198 1388.24 Q331.587 1388.24 329.758 1391.81 Q327.952 1395.35 327.952 1402.48 Q327.952 1409.59 329.758 1413.15 Q331.587 1416.69 335.198 1416.69 Q338.832 1416.69 340.638 1413.15 Q342.466 1409.59 342.466 1402.48 Q342.466 1395.35 340.638 1391.81 Q338.832 1388.24 335.198 1388.24 M335.198 1384.54 Q341.008 1384.54 344.063 1389.15 Q347.142 1393.73 347.142 1402.48 Q347.142 1411.21 344.063 1415.81 Q341.008 1420.4 335.198 1420.4 Q329.388 1420.4 326.309 1415.81 Q323.253 1411.21 323.253 1402.48 Q323.253 1393.73 326.309 1389.15 Q329.388 1384.54 335.198 1384.54 Z" fill="#000000" fill-rule="evenodd" fill-opacity="1" /><path clip-path="url(#clip630)" d="M 0 0 M791.873 1385.16 L810.23 1385.16 L810.23 1389.1 L796.156 1389.1 L796.156 1397.57 Q797.174 1397.22 798.193 1397.06 Q799.211 1396.88 800.23 1396.88 Q806.017 1396.88 809.396 1400.05 Q812.776 1403.22 812.776 1408.64 Q812.776 1414.21 809.304 1417.32 Q805.831 1420.4 799.512 1420.4 Q797.336 1420.4 795.068 1420.02 Q792.822 1419.65 790.415 1418.91 L790.415 1414.21 Q792.498 1415.35 794.72 1415.9 Q796.943 1416.46 799.419 1416.46 Q803.424 1416.46 805.762 1414.35 Q808.1 1412.25 808.1 1408.64 Q808.1 1405.02 805.762 1402.92 Q803.424 1400.81 799.419 1400.81 Q797.544 1400.81 795.669 1401.23 Q793.818 1401.65 791.873 1402.52 L791.873 1385.16 Z" fill="#000000" fill-rule="evenodd" fill-opacity="1" /><path clip-path="url(#clip630)" d="M 0 0 M1242.68 1415.79 L1250.32 1415.79 L1250.32 1389.42 L1242.01 1391.09 L1242.01 1386.83 L1250.27 1385.16 L1254.95 1385.16 L1254.95 1415.79 L1262.59 1415.79 L1262.59 1419.72 L1242.68 1419.72 L1242.68 1415.79 Z" fill="#000000" fill-rule="evenodd" fill-opacity="1" /><path clip-path="url(#clip630)" d="M 0 0 M1282.03 1388.24 Q1278.42 1388.24 1276.59 1391.81 Q1274.79 1395.35 1274.79 1402.48 Q1274.79 1409.59 1276.59 1413.15 Q1278.42 1416.69 1282.03 1416.69 Q1285.67 1416.69 1287.47 1413.15 Q1289.3 1409.59 1289.3 1402.48 Q1289.3 1395.35 1287.47 1391.81 Q1285.67 1388.24 1282.03 1388.24 M1282.03 1384.54 Q1287.84 1384.54 1290.9 1389.15 Q1293.98 1393.73 1293.98 1402.48 Q1293.98 1411.21 1290.9 1415.81 Q1287.84 1420.4 1282.03 1420.4 Q1276.22 1420.4 1273.14 1415.81 Q1270.09 1411.21 1270.09 1402.48 Q1270.09 1393.73 1273.14 1389.15 Q1276.22 1384.54 1282.03 1384.54 Z" fill="#000000" fill-rule="evenodd" fill-opacity="1" /><path clip-path="url(#clip630)" d="M 0 0 M1709.58 1415.79 L1717.21 1415.79 L1717.21 1389.42 L1708.9 1391.09 L1708.9 1386.83 L1717.17 1385.16 L1721.84 1385.16 L1721.84 1415.79 L1729.48 1415.79 L1729.48 1419.72 L1709.58 1419.72 L1709.58 1415.79 Z" fill="#000000" fill-rule="evenodd" fill-opacity="1" /><path clip-path="url(#clip630)" d="M 0 0 M1738.97 1385.16 L1757.33 1385.16 L1757.33 1389.1 L1743.26 1389.1 L1743.26 1397.57 Q1744.27 1397.22 1745.29 1397.06 Q1746.31 1396.88 1747.33 1396.88 Q1753.12 1396.88 1756.5 1400.05 Q1759.88 1403.22 1759.88 1408.64 Q1759.88 1414.21 1756.4 1417.32 Q1752.93 1420.4 1746.61 1420.4 Q1744.44 1420.4 1742.17 1420.02 Q1739.92 1419.65 1737.52 1418.91 L1737.52 1414.21 Q1739.6 1415.35 1741.82 1415.9 Q1744.04 1416.46 1746.52 1416.46 Q1750.52 1416.46 1752.86 1414.35 Q1755.2 1412.25 1755.2 1408.64 Q1755.2 1405.02 1752.86 1402.92 Q1750.52 1400.81 1746.52 1400.81 Q1744.65 1400.81 1742.77 1401.23 Q1740.92 1401.65 1738.97 1402.52 L1738.97 1385.16 Z" fill="#000000" fill-rule="evenodd" fill-opacity="1" /><path clip-path="url(#clip630)" d="M 0 0 M2179.56 1415.79 L2195.88 1415.79 L2195.88 1419.72 L2173.94 1419.72 L2173.94 1415.79 Q2176.6 1413.03 2181.18 1408.4 Q2185.79 1403.75 2186.97 1402.41 Q2189.21 1399.89 2190.09 1398.15 Q2191 1396.39 2191 1394.7 Q2191 1391.95 2189.05 1390.21 Q2187.13 1388.47 2184.03 1388.47 Q2181.83 1388.47 2179.38 1389.24 Q2176.95 1390 2174.17 1391.55 L2174.17 1386.83 Q2176.99 1385.7 2179.45 1385.12 Q2181.9 1384.54 2183.94 1384.54 Q2189.31 1384.54 2192.5 1387.22 Q2195.7 1389.91 2195.7 1394.4 Q2195.7 1396.53 2194.89 1398.45 Q2194.1 1400.35 2191.99 1402.94 Q2191.41 1403.61 2188.31 1406.83 Q2185.21 1410.02 2179.56 1415.79 Z" fill="#000000" fill-rule="evenodd" fill-opacity="1" /><path clip-path="url(#clip630)" d="M 0 0 M2215.7 1388.24 Q2212.08 1388.24 2210.26 1391.81 Q2208.45 1395.35 2208.45 1402.48 Q2208.45 1409.59 2210.26 1413.15 Q2212.08 1416.69 2215.7 1416.69 Q2219.33 1416.69 2221.14 1413.15 Q2222.96 1409.59 2222.96 1402.48 Q2222.96 1395.35 2221.14 1391.81 Q2219.33 1388.24 2215.7 1388.24 M2215.7 1384.54 Q2221.51 1384.54 2224.56 1389.15 Q2227.64 1393.73 2227.64 1402.48 Q2227.64 1411.21 2224.56 1415.81 Q2221.51 1420.4 2215.7 1420.4 Q2209.89 1420.4 2206.81 1415.81 Q2203.75 1411.21 2203.75 1402.48 Q2203.75 1393.73 2206.81 1389.15 Q2209.89 1384.54 2215.7 1384.54 Z" fill="#000000" fill-rule="evenodd" fill-opacity="1" /><path clip-path="url(#clip630)" d="M 0 0 M1134.79 1457.47 L1134.79 1467.6 L1146.85 1467.6 L1146.85 1472.15 L1134.79 1472.15 L1134.79 1491.5 Q1134.79 1495.86 1135.97 1497.1 Q1137.18 1498.34 1140.84 1498.34 L1146.85 1498.34 L1146.85 1503.24 L1140.84 1503.24 Q1134.06 1503.24 1131.48 1500.73 Q1128.9 1498.18 1128.9 1491.5 L1128.9 1472.15 L1124.61 1472.15 L1124.61 1467.6 L1128.9 1467.6 L1128.9 1457.47 L1134.79 1457.47 Z" fill="#000000" fill-rule="evenodd" fill-opacity="1" /><path clip-path="url(#clip630)" d="M 0 0 M1154.56 1467.6 L1160.41 1467.6 L1160.41 1503.24 L1154.56 1503.24 L1154.56 1467.6 M1154.56 1453.72 L1160.41 1453.72 L1160.41 1461.13 L1154.56 1461.13 L1154.56 1453.72 Z" fill="#000000" fill-rule="evenodd" fill-opacity="1" /><path clip-path="url(#clip630)" d="M 0 0 M1200.42 1474.44 Q1202.62 1470.49 1205.67 1468.61 Q1208.73 1466.74 1212.87 1466.74 Q1218.44 1466.74 1221.46 1470.65 Q1224.48 1474.53 1224.48 1481.73 L1224.48 1503.24 L1218.6 1503.24 L1218.6 1481.92 Q1218.6 1476.79 1216.78 1474.31 Q1214.97 1471.83 1211.24 1471.83 Q1206.69 1471.83 1204.05 1474.85 Q1201.41 1477.88 1201.41 1483.1 L1201.41 1503.24 L1195.52 1503.24 L1195.52 1481.92 Q1195.52 1476.76 1193.71 1474.31 Q1191.89 1471.83 1188.1 1471.83 Q1183.62 1471.83 1180.97 1474.88 Q1178.33 1477.91 1178.33 1483.1 L1178.33 1503.24 L1172.44 1503.24 L1172.44 1467.6 L1178.33 1467.6 L1178.33 1473.13 Q1180.34 1469.86 1183.14 1468.3 Q1185.94 1466.74 1189.79 1466.74 Q1193.67 1466.74 1196.38 1468.71 Q1199.12 1470.68 1200.42 1474.44 Z" fill="#000000" fill-rule="evenodd" fill-opacity="1" /><path clip-path="url(#clip630)" d="M 0 0 M1266.66 1483.96 L1266.66 1486.82 L1239.73 1486.82 Q1240.11 1492.87 1243.36 1496.05 Q1246.64 1499.2 1252.46 1499.2 Q1255.83 1499.2 1258.99 1498.37 Q1262.17 1497.55 1265.29 1495.89 L1265.29 1501.43 Q1262.14 1502.77 1258.83 1503.47 Q1255.52 1504.17 1252.11 1504.17 Q1243.58 1504.17 1238.58 1499.2 Q1233.62 1494.24 1233.62 1485.77 Q1233.62 1477.02 1238.33 1471.89 Q1243.07 1466.74 1251.09 1466.74 Q1258.29 1466.74 1262.45 1471.38 Q1266.66 1476 1266.66 1483.96 M1260.8 1482.24 Q1260.74 1477.43 1258.09 1474.57 Q1255.48 1471.7 1251.16 1471.7 Q1246.25 1471.7 1243.29 1474.47 Q1240.37 1477.24 1239.92 1482.27 L1260.8 1482.24 Z" fill="#000000" fill-rule="evenodd" fill-opacity="1" /><path clip-path="url(#clip630)" d="M 0 0 M1311.06 1453.78 Q1306.79 1461.1 1304.72 1468.26 Q1302.65 1475.43 1302.65 1482.78 Q1302.65 1490.13 1304.72 1497.36 Q1306.82 1504.55 1311.06 1511.84 L1305.96 1511.84 Q1301.19 1504.36 1298.8 1497.13 Q1296.45 1489.91 1296.45 1482.78 Q1296.45 1475.68 1298.8 1468.49 Q1301.16 1461.29 1305.96 1453.78 L1311.06 1453.78 Z" fill="#000000" fill-rule="evenodd" fill-opacity="1" /><path clip-path="url(#clip630)" d="M 0 0 M1352.05 1481.73 L1352.05 1503.24 L1346.2 1503.24 L1346.2 1481.92 Q1346.2 1476.86 1344.22 1474.34 Q1342.25 1471.83 1338.3 1471.83 Q1333.56 1471.83 1330.82 1474.85 Q1328.09 1477.88 1328.09 1483.1 L1328.09 1503.24 L1322.2 1503.24 L1322.2 1467.6 L1328.09 1467.6 L1328.09 1473.13 Q1330.19 1469.92 1333.02 1468.33 Q1335.88 1466.74 1339.61 1466.74 Q1345.75 1466.74 1348.9 1470.56 Q1352.05 1474.34 1352.05 1481.73 Z" fill="#000000" fill-rule="evenodd" fill-opacity="1" /><path clip-path="url(#clip630)" d="M 0 0 M1386.46 1468.65 L1386.46 1474.18 Q1383.98 1472.91 1381.3 1472.27 Q1378.63 1471.64 1375.76 1471.64 Q1371.4 1471.64 1369.21 1472.97 Q1367.04 1474.31 1367.04 1476.99 Q1367.04 1479.02 1368.6 1480.2 Q1370.16 1481.35 1374.87 1482.4 L1376.88 1482.84 Q1383.12 1484.18 1385.73 1486.63 Q1388.37 1489.05 1388.37 1493.41 Q1388.37 1498.37 1384.42 1501.27 Q1380.51 1504.17 1373.63 1504.17 Q1370.77 1504.17 1367.65 1503.59 Q1364.56 1503.05 1361.12 1501.94 L1361.12 1495.89 Q1364.37 1497.58 1367.52 1498.44 Q1370.67 1499.27 1373.76 1499.27 Q1377.9 1499.27 1380.12 1497.86 Q1382.35 1496.43 1382.35 1493.85 Q1382.35 1491.47 1380.73 1490.19 Q1379.14 1488.92 1373.7 1487.74 L1371.66 1487.27 Q1366.22 1486.12 1363.8 1483.76 Q1361.38 1481.38 1361.38 1477.24 Q1361.38 1472.21 1364.94 1469.47 Q1368.51 1466.74 1375.06 1466.74 Q1378.31 1466.74 1381.18 1467.21 Q1384.04 1467.69 1386.46 1468.65 Z" fill="#000000" fill-rule="evenodd" fill-opacity="1" /><path clip-path="url(#clip630)" d="M 0 0 M1396.77 1453.78 L1401.86 1453.78 Q1406.64 1461.29 1408.99 1468.49 Q1411.38 1475.68 1411.38 1482.78 Q1411.38 1489.91 1408.99 1497.13 Q1406.64 1504.36 1401.86 1511.84 L1396.77 1511.84 Q1401 1504.55 1403.07 1497.36 Q1405.17 1490.13 1405.17 1482.78 Q1405.17 1475.43 1403.07 1468.26 Q1401 1461.1 1396.77 1453.78 Z" fill="#000000" fill-rule="evenodd" fill-opacity="1" /><polyline clip-path="url(#clip632)" style="stroke:#000000; stroke-width:2; stroke-opacity:0.1; fill:none" points="
  279.23,1325 2256.76,1325 
  "/>
<polyline clip-path="url(#clip632)" style="stroke:#000000; stroke-width:2; stroke-opacity:0.1; fill:none" points="
  279.23,1052.16 2256.76,1052.16 
  "/>
<polyline clip-path="url(#clip632)" style="stroke:#000000; stroke-width:2; stroke-opacity:0.1; fill:none" points="
  279.23,779.325 2256.76,779.325 
  "/>
<polyline clip-path="url(#clip632)" style="stroke:#000000; stroke-width:2; stroke-opacity:0.1; fill:none" points="
  279.23,506.487 2256.76,506.487 
  "/>
<polyline clip-path="url(#clip632)" style="stroke:#000000; stroke-width:2; stroke-opacity:0.1; fill:none" points="
  279.23,233.649 2256.76,233.649 
  "/>
<polyline clip-path="url(#clip630)" style="stroke:#000000; stroke-width:4; stroke-opacity:1; fill:none" points="
  279.23,1359.82 279.23,123.472 
  "/>
<polyline clip-path="url(#clip630)" style="stroke:#000000; stroke-width:4; stroke-opacity:1; fill:none" points="
  279.23,1325 302.96,1325 
  "/>
<polyline clip-path="url(#clip630)" style="stroke:#000000; stroke-width:4; stroke-opacity:1; fill:none" points="
  279.23,1052.16 302.96,1052.16 
  "/>
<polyline clip-path="url(#clip630)" style="stroke:#000000; stroke-width:4; stroke-opacity:1; fill:none" points="
  279.23,779.325 302.96,779.325 
  "/>
<polyline clip-path="url(#clip630)" style="stroke:#000000; stroke-width:4; stroke-opacity:1; fill:none" points="
  279.23,506.487 302.96,506.487 
  "/>
<polyline clip-path="url(#clip630)" style="stroke:#000000; stroke-width:4; stroke-opacity:1; fill:none" points="
  279.23,233.649 302.96,233.649 
  "/>
<path clip-path="url(#clip630)" d="M 0 0 M127.171 1310.8 Q123.56 1310.8 121.731 1314.36 Q119.925 1317.91 119.925 1325.04 Q119.925 1332.14 121.731 1335.71 Q123.56 1339.25 127.171 1339.25 Q130.805 1339.25 132.61 1335.71 Q134.439 1332.14 134.439 1325.04 Q134.439 1317.91 132.61 1314.36 Q130.805 1310.8 127.171 1310.8 M127.171 1307.1 Q132.981 1307.1 136.036 1311.7 Q139.115 1316.29 139.115 1325.04 Q139.115 1333.76 136.036 1338.37 Q132.981 1342.95 127.171 1342.95 Q121.36 1342.95 118.282 1338.37 Q115.226 1333.76 115.226 1325.04 Q115.226 1316.29 118.282 1311.7 Q121.36 1307.1 127.171 1307.1 Z" fill="#000000" fill-rule="evenodd" fill-opacity="1" /><path clip-path="url(#clip630)" d="M 0 0 M147.333 1336.4 L152.217 1336.4 L152.217 1342.28 L147.333 1342.28 L147.333 1336.4 Z" fill="#000000" fill-rule="evenodd" fill-opacity="1" /><path clip-path="url(#clip630)" d="M 0 0 M172.402 1310.8 Q168.791 1310.8 166.962 1314.36 Q165.157 1317.91 165.157 1325.04 Q165.157 1332.14 166.962 1335.71 Q168.791 1339.25 172.402 1339.25 Q176.036 1339.25 177.842 1335.71 Q179.67 1332.14 179.67 1325.04 Q179.67 1317.91 177.842 1314.36 Q176.036 1310.8 172.402 1310.8 M172.402 1307.1 Q178.212 1307.1 181.268 1311.7 Q184.346 1316.29 184.346 1325.04 Q184.346 1333.76 181.268 1338.37 Q178.212 1342.95 172.402 1342.95 Q166.592 1342.95 163.513 1338.37 Q160.458 1333.76 160.458 1325.04 Q160.458 1316.29 163.513 1311.7 Q166.592 1307.1 172.402 1307.1 Z" fill="#000000" fill-rule="evenodd" fill-opacity="1" /><path clip-path="url(#clip630)" d="M 0 0 M202.564 1310.8 Q198.953 1310.8 197.124 1314.36 Q195.318 1317.91 195.318 1325.04 Q195.318 1332.14 197.124 1335.71 Q198.953 1339.25 202.564 1339.25 Q206.198 1339.25 208.004 1335.71 Q209.832 1332.14 209.832 1325.04 Q209.832 1317.91 208.004 1314.36 Q206.198 1310.8 202.564 1310.8 M202.564 1307.1 Q208.374 1307.1 211.429 1311.7 Q214.508 1316.29 214.508 1325.04 Q214.508 1333.76 211.429 1338.37 Q208.374 1342.95 202.564 1342.95 Q196.754 1342.95 193.675 1338.37 Q190.619 1333.76 190.619 1325.04 Q190.619 1316.29 193.675 1311.7 Q196.754 1307.1 202.564 1307.1 Z" fill="#000000" fill-rule="evenodd" fill-opacity="1" /><path clip-path="url(#clip630)" d="M 0 0 M232.726 1310.8 Q229.115 1310.8 227.286 1314.36 Q225.48 1317.91 225.48 1325.04 Q225.48 1332.14 227.286 1335.71 Q229.115 1339.25 232.726 1339.25 Q236.36 1339.25 238.165 1335.71 Q239.994 1332.14 239.994 1325.04 Q239.994 1317.91 238.165 1314.36 Q236.36 1310.8 232.726 1310.8 M232.726 1307.1 Q238.536 1307.1 241.591 1311.7 Q244.67 1316.29 244.67 1325.04 Q244.67 1333.76 241.591 1338.37 Q238.536 1342.95 232.726 1342.95 Q226.915 1342.95 223.837 1338.37 Q220.781 1333.76 220.781 1325.04 Q220.781 1316.29 223.837 1311.7 Q226.915 1307.1 232.726 1307.1 Z" fill="#000000" fill-rule="evenodd" fill-opacity="1" /><path clip-path="url(#clip630)" d="M 0 0 M128.768 1037.96 Q125.157 1037.96 123.328 1041.53 Q121.523 1045.07 121.523 1052.2 Q121.523 1059.3 123.328 1062.87 Q125.157 1066.41 128.768 1066.41 Q132.402 1066.41 134.208 1062.87 Q136.036 1059.3 136.036 1052.2 Q136.036 1045.07 134.208 1041.53 Q132.402 1037.96 128.768 1037.96 M128.768 1034.26 Q134.578 1034.26 137.634 1038.86 Q140.712 1043.45 140.712 1052.2 Q140.712 1060.92 137.634 1065.53 Q134.578 1070.11 128.768 1070.11 Q122.958 1070.11 119.879 1065.53 Q116.823 1060.92 116.823 1052.2 Q116.823 1043.45 119.879 1038.86 Q122.958 1034.26 128.768 1034.26 Z" fill="#000000" fill-rule="evenodd" fill-opacity="1" /><path clip-path="url(#clip630)" d="M 0 0 M148.93 1063.56 L153.814 1063.56 L153.814 1069.44 L148.93 1069.44 L148.93 1063.56 Z" fill="#000000" fill-rule="evenodd" fill-opacity="1" /><path clip-path="url(#clip630)" d="M 0 0 M173.999 1037.96 Q170.388 1037.96 168.559 1041.53 Q166.754 1045.07 166.754 1052.2 Q166.754 1059.3 168.559 1062.87 Q170.388 1066.41 173.999 1066.41 Q177.633 1066.41 179.439 1062.87 Q181.268 1059.3 181.268 1052.2 Q181.268 1045.07 179.439 1041.53 Q177.633 1037.96 173.999 1037.96 M173.999 1034.26 Q179.809 1034.26 182.865 1038.86 Q185.943 1043.45 185.943 1052.2 Q185.943 1060.92 182.865 1065.53 Q179.809 1070.11 173.999 1070.11 Q168.189 1070.11 165.11 1065.53 Q162.055 1060.92 162.055 1052.2 Q162.055 1043.45 165.11 1038.86 Q168.189 1034.26 173.999 1034.26 Z" fill="#000000" fill-rule="evenodd" fill-opacity="1" /><path clip-path="url(#clip630)" d="M 0 0 M204.161 1037.96 Q200.55 1037.96 198.721 1041.53 Q196.916 1045.07 196.916 1052.2 Q196.916 1059.3 198.721 1062.87 Q200.55 1066.41 204.161 1066.41 Q207.795 1066.41 209.601 1062.87 Q211.429 1059.3 211.429 1052.2 Q211.429 1045.07 209.601 1041.53 Q207.795 1037.96 204.161 1037.96 M204.161 1034.26 Q209.971 1034.26 213.027 1038.86 Q216.105 1043.45 216.105 1052.2 Q216.105 1060.92 213.027 1065.53 Q209.971 1070.11 204.161 1070.11 Q198.351 1070.11 195.272 1065.53 Q192.217 1060.92 192.217 1052.2 Q192.217 1043.45 195.272 1038.86 Q198.351 1034.26 204.161 1034.26 Z" fill="#000000" fill-rule="evenodd" fill-opacity="1" /><path clip-path="url(#clip630)" d="M 0 0 M228.351 1065.51 L244.67 1065.51 L244.67 1069.44 L222.726 1069.44 L222.726 1065.51 Q225.388 1062.75 229.971 1058.12 Q234.577 1053.47 235.758 1052.13 Q238.003 1049.61 238.883 1047.87 Q239.786 1046.11 239.786 1044.42 Q239.786 1041.67 237.841 1039.93 Q235.92 1038.19 232.818 1038.19 Q230.619 1038.19 228.165 1038.96 Q225.735 1039.72 222.957 1041.27 L222.957 1036.55 Q225.781 1035.42 228.235 1034.84 Q230.689 1034.26 232.726 1034.26 Q238.096 1034.26 241.29 1036.94 Q244.485 1039.63 244.485 1044.12 Q244.485 1046.25 243.675 1048.17 Q242.888 1050.07 240.781 1052.66 Q240.202 1053.33 237.101 1056.55 Q233.999 1059.74 228.351 1065.51 Z" fill="#000000" fill-rule="evenodd" fill-opacity="1" /><path clip-path="url(#clip630)" d="M 0 0 M126.685 765.124 Q123.073 765.124 121.245 768.689 Q119.439 772.23 119.439 779.36 Q119.439 786.466 121.245 790.031 Q123.073 793.573 126.685 793.573 Q130.319 793.573 132.124 790.031 Q133.953 786.466 133.953 779.36 Q133.953 772.23 132.124 768.689 Q130.319 765.124 126.685 765.124 M126.685 761.42 Q132.495 761.42 135.55 766.027 Q138.629 770.61 138.629 779.36 Q138.629 788.087 135.55 792.693 Q132.495 797.277 126.685 797.277 Q120.874 797.277 117.796 792.693 Q114.74 788.087 114.74 779.36 Q114.74 770.61 117.796 766.027 Q120.874 761.42 126.685 761.42 Z" fill="#000000" fill-rule="evenodd" fill-opacity="1" /><path clip-path="url(#clip630)" d="M 0 0 M146.846 790.726 L151.731 790.726 L151.731 796.605 L146.846 796.605 L146.846 790.726 Z" fill="#000000" fill-rule="evenodd" fill-opacity="1" /><path clip-path="url(#clip630)" d="M 0 0 M171.916 765.124 Q168.305 765.124 166.476 768.689 Q164.67 772.23 164.67 779.36 Q164.67 786.466 166.476 790.031 Q168.305 793.573 171.916 793.573 Q175.55 793.573 177.356 790.031 Q179.184 786.466 179.184 779.36 Q179.184 772.23 177.356 768.689 Q175.55 765.124 171.916 765.124 M171.916 761.42 Q177.726 761.42 180.781 766.027 Q183.86 770.61 183.86 779.36 Q183.86 788.087 180.781 792.693 Q177.726 797.277 171.916 797.277 Q166.106 797.277 163.027 792.693 Q159.971 788.087 159.971 779.36 Q159.971 770.61 163.027 766.027 Q166.106 761.42 171.916 761.42 Z" fill="#000000" fill-rule="evenodd" fill-opacity="1" /><path clip-path="url(#clip630)" d="M 0 0 M202.078 765.124 Q198.467 765.124 196.638 768.689 Q194.832 772.23 194.832 779.36 Q194.832 786.466 196.638 790.031 Q198.467 793.573 202.078 793.573 Q205.712 793.573 207.517 790.031 Q209.346 786.466 209.346 779.36 Q209.346 772.23 207.517 768.689 Q205.712 765.124 202.078 765.124 M202.078 761.42 Q207.888 761.42 210.943 766.027 Q214.022 770.61 214.022 779.36 Q214.022 788.087 210.943 792.693 Q207.888 797.277 202.078 797.277 Q196.267 797.277 193.189 792.693 Q190.133 788.087 190.133 779.36 Q190.133 770.61 193.189 766.027 Q196.267 761.42 202.078 761.42 Z" fill="#000000" fill-rule="evenodd" fill-opacity="1" /><path clip-path="url(#clip630)" d="M 0 0 M235.087 766.119 L223.281 784.568 L235.087 784.568 L235.087 766.119 M233.86 762.045 L239.739 762.045 L239.739 784.568 L244.67 784.568 L244.67 788.457 L239.739 788.457 L239.739 796.605 L235.087 796.605 L235.087 788.457 L219.485 788.457 L219.485 783.943 L233.86 762.045 Z" fill="#000000" fill-rule="evenodd" fill-opacity="1" /><path clip-path="url(#clip630)" d="M 0 0 M127.009 492.286 Q123.398 492.286 121.569 495.851 Q119.763 499.392 119.763 506.522 Q119.763 513.628 121.569 517.193 Q123.398 520.735 127.009 520.735 Q130.643 520.735 132.448 517.193 Q134.277 513.628 134.277 506.522 Q134.277 499.392 132.448 495.851 Q130.643 492.286 127.009 492.286 M127.009 488.582 Q132.819 488.582 135.874 493.189 Q138.953 497.772 138.953 506.522 Q138.953 515.249 135.874 519.855 Q132.819 524.439 127.009 524.439 Q121.198 524.439 118.12 519.855 Q115.064 515.249 115.064 506.522 Q115.064 497.772 118.12 493.189 Q121.198 488.582 127.009 488.582 Z" fill="#000000" fill-rule="evenodd" fill-opacity="1" /><path clip-path="url(#clip630)" d="M 0 0 M147.171 517.888 L152.055 517.888 L152.055 523.767 L147.171 523.767 L147.171 517.888 Z" fill="#000000" fill-rule="evenodd" fill-opacity="1" /><path clip-path="url(#clip630)" d="M 0 0 M172.24 492.286 Q168.629 492.286 166.8 495.851 Q164.995 499.392 164.995 506.522 Q164.995 513.628 166.8 517.193 Q168.629 520.735 172.24 520.735 Q175.874 520.735 177.68 517.193 Q179.508 513.628 179.508 506.522 Q179.508 499.392 177.68 495.851 Q175.874 492.286 172.24 492.286 M172.24 488.582 Q178.05 488.582 181.106 493.189 Q184.184 497.772 184.184 506.522 Q184.184 515.249 181.106 519.855 Q178.05 524.439 172.24 524.439 Q166.43 524.439 163.351 519.855 Q160.295 515.249 160.295 506.522 Q160.295 497.772 163.351 493.189 Q166.43 488.582 172.24 488.582 Z" fill="#000000" fill-rule="evenodd" fill-opacity="1" /><path clip-path="url(#clip630)" d="M 0 0 M202.402 492.286 Q198.791 492.286 196.962 495.851 Q195.156 499.392 195.156 506.522 Q195.156 513.628 196.962 517.193 Q198.791 520.735 202.402 520.735 Q206.036 520.735 207.842 517.193 Q209.67 513.628 209.67 506.522 Q209.67 499.392 207.842 495.851 Q206.036 492.286 202.402 492.286 M202.402 488.582 Q208.212 488.582 211.267 493.189 Q214.346 497.772 214.346 506.522 Q214.346 515.249 211.267 519.855 Q208.212 524.439 202.402 524.439 Q196.592 524.439 193.513 519.855 Q190.457 515.249 190.457 506.522 Q190.457 497.772 193.513 493.189 Q196.592 488.582 202.402 488.582 Z" fill="#000000" fill-rule="evenodd" fill-opacity="1" /><path clip-path="url(#clip630)" d="M 0 0 M233.142 504.624 Q229.994 504.624 228.142 506.777 Q226.314 508.929 226.314 512.679 Q226.314 516.406 228.142 518.582 Q229.994 520.735 233.142 520.735 Q236.29 520.735 238.119 518.582 Q239.971 516.406 239.971 512.679 Q239.971 508.929 238.119 506.777 Q236.29 504.624 233.142 504.624 M242.425 489.971 L242.425 494.23 Q240.665 493.397 238.86 492.957 Q237.077 492.517 235.318 492.517 Q230.689 492.517 228.235 495.642 Q225.804 498.767 225.457 505.087 Q226.823 503.073 228.883 502.008 Q230.943 500.92 233.42 500.92 Q238.628 500.92 241.638 504.091 Q244.67 507.24 244.67 512.679 Q244.67 518.003 241.522 521.221 Q238.374 524.439 233.142 524.439 Q227.147 524.439 223.976 519.855 Q220.804 515.249 220.804 506.522 Q220.804 498.328 224.693 493.466 Q228.582 488.582 235.133 488.582 Q236.892 488.582 238.675 488.929 Q240.48 489.277 242.425 489.971 Z" fill="#000000" fill-rule="evenodd" fill-opacity="1" /><path clip-path="url(#clip630)" d="M 0 0 M127.263 219.448 Q123.652 219.448 121.823 223.013 Q120.018 226.554 120.018 233.684 Q120.018 240.79 121.823 244.355 Q123.652 247.897 127.263 247.897 Q130.897 247.897 132.703 244.355 Q134.532 240.79 134.532 233.684 Q134.532 226.554 132.703 223.013 Q130.897 219.448 127.263 219.448 M127.263 215.744 Q133.073 215.744 136.129 220.351 Q139.208 224.934 139.208 233.684 Q139.208 242.411 136.129 247.017 Q133.073 251.601 127.263 251.601 Q121.453 251.601 118.374 247.017 Q115.319 242.411 115.319 233.684 Q115.319 224.934 118.374 220.351 Q121.453 215.744 127.263 215.744 Z" fill="#000000" fill-rule="evenodd" fill-opacity="1" /><path clip-path="url(#clip630)" d="M 0 0 M147.425 245.05 L152.309 245.05 L152.309 250.929 L147.425 250.929 L147.425 245.05 Z" fill="#000000" fill-rule="evenodd" fill-opacity="1" /><path clip-path="url(#clip630)" d="M 0 0 M172.494 219.448 Q168.883 219.448 167.055 223.013 Q165.249 226.554 165.249 233.684 Q165.249 240.79 167.055 244.355 Q168.883 247.897 172.494 247.897 Q176.129 247.897 177.934 244.355 Q179.763 240.79 179.763 233.684 Q179.763 226.554 177.934 223.013 Q176.129 219.448 172.494 219.448 M172.494 215.744 Q178.305 215.744 181.36 220.351 Q184.439 224.934 184.439 233.684 Q184.439 242.411 181.36 247.017 Q178.305 251.601 172.494 251.601 Q166.684 251.601 163.606 247.017 Q160.55 242.411 160.55 233.684 Q160.55 224.934 163.606 220.351 Q166.684 215.744 172.494 215.744 Z" fill="#000000" fill-rule="evenodd" fill-opacity="1" /><path clip-path="url(#clip630)" d="M 0 0 M202.656 219.448 Q199.045 219.448 197.217 223.013 Q195.411 226.554 195.411 233.684 Q195.411 240.79 197.217 244.355 Q199.045 247.897 202.656 247.897 Q206.291 247.897 208.096 244.355 Q209.925 240.79 209.925 233.684 Q209.925 226.554 208.096 223.013 Q206.291 219.448 202.656 219.448 M202.656 215.744 Q208.467 215.744 211.522 220.351 Q214.601 224.934 214.601 233.684 Q214.601 242.411 211.522 247.017 Q208.467 251.601 202.656 251.601 Q196.846 251.601 193.768 247.017 Q190.712 242.411 190.712 233.684 Q190.712 224.934 193.768 220.351 Q196.846 215.744 202.656 215.744 Z" fill="#000000" fill-rule="evenodd" fill-opacity="1" /><path clip-path="url(#clip630)" d="M 0 0 M232.818 234.517 Q229.485 234.517 227.564 236.3 Q225.665 238.082 225.665 241.207 Q225.665 244.332 227.564 246.114 Q229.485 247.897 232.818 247.897 Q236.152 247.897 238.073 246.114 Q239.994 244.309 239.994 241.207 Q239.994 238.082 238.073 236.3 Q236.175 234.517 232.818 234.517 M228.142 232.527 Q225.133 231.786 223.443 229.726 Q221.777 227.665 221.777 224.703 Q221.777 220.559 224.716 218.152 Q227.679 215.744 232.818 215.744 Q237.98 215.744 240.92 218.152 Q243.86 220.559 243.86 224.703 Q243.86 227.665 242.17 229.726 Q240.503 231.786 237.517 232.527 Q240.897 233.314 242.772 235.605 Q244.67 237.897 244.67 241.207 Q244.67 246.23 241.591 248.915 Q238.536 251.601 232.818 251.601 Q227.101 251.601 224.022 248.915 Q220.966 246.23 220.966 241.207 Q220.966 237.897 222.865 235.605 Q224.763 233.314 228.142 232.527 M226.429 225.142 Q226.429 227.827 228.096 229.332 Q229.786 230.837 232.818 230.837 Q235.827 230.837 237.517 229.332 Q239.23 227.827 239.23 225.142 Q239.23 222.457 237.517 220.953 Q235.827 219.448 232.818 219.448 Q229.786 219.448 228.096 220.953 Q226.429 222.457 226.429 225.142 Z" fill="#000000" fill-rule="evenodd" fill-opacity="1" /><path clip-path="url(#clip630)" d="M 0 0 M24.738 1022.71 L48.3866 1031.43 L48.3866 1013.95 L24.738 1022.71 M18.4042 1026.34 L18.4042 1019.05 L65.9242 1000.94 L65.9242 1007.62 L53.7338 1011.95 L53.7338 1033.37 L65.9242 1037.7 L65.9242 1044.48 L18.4042 1026.34 Z" fill="#000000" fill-rule="evenodd" fill-opacity="1" /><path clip-path="url(#clip630)" d="M 0 0 M30.2762 1002.27 L30.2762 996.067 L60.195 984.927 L30.2762 973.787 L30.2762 967.581 L65.9242 980.949 L65.9242 988.906 L30.2762 1002.27 Z" fill="#000000" fill-rule="evenodd" fill-opacity="1" /><path clip-path="url(#clip630)" d="M 0 0 M47.6864 936.039 Q41.3207 936.039 37.8196 938.681 Q34.3184 941.29 34.3184 946.033 Q34.3184 950.744 37.8196 953.385 Q41.3207 955.995 47.6864 955.995 Q54.0203 955.995 57.5214 953.385 Q61.0226 950.744 61.0226 946.033 Q61.0226 941.29 57.5214 938.681 Q54.0203 936.039 47.6864 936.039 M61.5 930.182 Q70.603 930.182 75.0271 934.225 Q79.4831 938.267 79.4831 946.606 Q79.4831 949.693 79.0057 952.43 Q78.5601 955.168 77.6052 957.746 L71.9079 957.746 Q73.3084 955.168 73.9768 952.653 Q74.6452 950.139 74.6452 947.529 Q74.6452 941.768 71.6215 938.903 Q68.6296 936.039 62.5503 936.039 L59.6539 936.039 Q62.805 937.853 64.3646 940.686 Q65.9242 943.518 65.9242 947.465 Q65.9242 954.022 60.9271 958.032 Q55.93 962.043 47.6864 962.043 Q39.411 962.043 34.4139 958.032 Q29.4168 954.022 29.4168 947.465 Q29.4168 943.518 30.9764 940.686 Q32.536 937.853 35.6871 936.039 L30.2762 936.039 L30.2762 930.182 L61.5 930.182 Z" fill="#000000" fill-rule="evenodd" fill-opacity="1" /><path clip-path="url(#clip630)" d="M 0 0 M60.577 891.733 L79.4831 891.733 L79.4831 897.622 L30.2762 897.622 L30.2762 891.733 L35.6871 891.733 Q32.5042 889.887 30.9764 887.086 Q29.4168 884.254 29.4168 880.339 Q29.4168 873.846 34.5731 869.804 Q39.7293 865.73 48.132 865.73 Q56.5347 865.73 61.691 869.804 Q66.8472 873.846 66.8472 880.339 Q66.8472 884.254 65.3194 887.086 Q63.7598 889.887 60.577 891.733 M48.132 871.809 Q41.6708 871.809 38.0105 874.482 Q34.3184 877.124 34.3184 881.771 Q34.3184 886.418 38.0105 889.092 Q41.6708 891.733 48.132 891.733 Q54.5932 891.733 58.2853 889.092 Q61.9456 886.418 61.9456 881.771 Q61.9456 877.124 58.2853 874.482 Q54.5932 871.809 48.132 871.809 Z" fill="#000000" fill-rule="evenodd" fill-opacity="1" /><path clip-path="url(#clip630)" d="M 0 0 M44.4081 826.389 L65.9242 826.389 L65.9242 832.246 L44.599 832.246 Q39.5383 832.246 37.0238 834.219 Q34.5094 836.193 34.5094 840.139 Q34.5094 844.882 37.5331 847.619 Q40.5568 850.356 45.7767 850.356 L65.9242 850.356 L65.9242 856.245 L16.399 856.245 L16.399 850.356 L35.8144 850.356 Q32.5997 848.256 31.0083 845.423 Q29.4168 842.558 29.4168 838.834 Q29.4168 832.692 33.2363 829.54 Q37.0238 826.389 44.4081 826.389 Z" fill="#000000" fill-rule="evenodd" fill-opacity="1" /><path clip-path="url(#clip630)" d="M 0 0 M34.3821 800.895 Q34.3821 805.605 38.0742 808.343 Q41.7345 811.08 48.132 811.08 Q54.5295 811.08 58.2217 808.375 Q61.8819 805.637 61.8819 800.895 Q61.8819 796.216 58.1898 793.479 Q54.4977 790.741 48.132 790.741 Q41.7981 790.741 38.106 793.479 Q34.3821 796.216 34.3821 800.895 M29.4168 800.895 Q29.4168 793.256 34.3821 788.895 Q39.3473 784.535 48.132 784.535 Q56.8849 784.535 61.8819 788.895 Q66.8472 793.256 66.8472 800.895 Q66.8472 808.565 61.8819 812.926 Q56.8849 817.255 48.132 817.255 Q39.3473 817.255 34.3821 812.926 Q29.4168 808.565 29.4168 800.895 Z" fill="#000000" fill-rule="evenodd" fill-opacity="1" /><path clip-path="url(#clip630)" d="M 0 0 M20.1547 769.034 L30.2762 769.034 L30.2762 756.971 L34.8277 756.971 L34.8277 769.034 L54.1794 769.034 Q58.5399 769.034 59.7813 767.857 Q61.0226 766.647 61.0226 762.987 L61.0226 756.971 L65.9242 756.971 L65.9242 762.987 Q65.9242 769.766 63.4097 772.345 Q60.8634 774.923 54.1794 774.923 L34.8277 774.923 L34.8277 779.22 L30.2762 779.22 L30.2762 774.923 L20.1547 774.923 L20.1547 769.034 Z" fill="#000000" fill-rule="evenodd" fill-opacity="1" /><path clip-path="url(#clip630)" d="M 0 0 M34.3821 735.455 Q34.3821 740.166 38.0742 742.903 Q41.7345 745.64 48.132 745.64 Q54.5295 745.64 58.2217 742.935 Q61.8819 740.198 61.8819 735.455 Q61.8819 730.777 58.1898 728.039 Q54.4977 725.302 48.132 725.302 Q41.7981 725.302 38.106 728.039 Q34.3821 730.777 34.3821 735.455 M29.4168 735.455 Q29.4168 727.816 34.3821 723.456 Q39.3473 719.095 48.132 719.095 Q56.8849 719.095 61.8819 723.456 Q66.8472 727.816 66.8472 735.455 Q66.8472 743.126 61.8819 747.487 Q56.8849 751.815 48.132 751.815 Q39.3473 751.815 34.3821 747.487 Q29.4168 743.126 29.4168 735.455 Z" fill="#000000" fill-rule="evenodd" fill-opacity="1" /><path clip-path="url(#clip630)" d="M 0 0 M44.4081 679.755 L65.9242 679.755 L65.9242 685.612 L44.599 685.612 Q39.5383 685.612 37.0238 687.585 Q34.5094 689.559 34.5094 693.505 Q34.5094 698.248 37.5331 700.985 Q40.5568 703.722 45.7767 703.722 L65.9242 703.722 L65.9242 709.611 L30.2762 709.611 L30.2762 703.722 L35.8144 703.722 Q32.5997 701.622 31.0083 698.789 Q29.4168 695.924 29.4168 692.2 Q29.4168 686.057 33.2363 682.906 Q37.0238 679.755 44.4081 679.755 Z" fill="#000000" fill-rule="evenodd" fill-opacity="1" /><path clip-path="url(#clip630)" d="M 0 0 M31.6448 621.7 L37.1193 621.7 Q35.7507 624.183 35.0823 626.697 Q34.3821 629.18 34.3821 631.726 Q34.3821 637.423 38.0105 640.574 Q41.6072 643.726 48.132 643.726 Q54.6569 643.726 58.2853 640.574 Q61.8819 637.423 61.8819 631.726 Q61.8819 629.18 61.2135 626.697 Q60.5133 624.183 59.1447 621.7 L64.5555 621.7 Q65.7014 624.151 66.2743 626.793 Q66.8472 629.403 66.8472 632.363 Q66.8472 640.415 61.7864 645.158 Q56.7257 649.9 48.132 649.9 Q39.411 649.9 34.4139 645.126 Q29.4168 640.32 29.4168 631.981 Q29.4168 629.275 29.9897 626.697 Q30.5308 624.119 31.6448 621.7 Z" fill="#000000" fill-rule="evenodd" fill-opacity="1" /><path clip-path="url(#clip630)" d="M 0 0 M34.3821 597.701 Q34.3821 602.412 38.0742 605.149 Q41.7345 607.887 48.132 607.887 Q54.5295 607.887 58.2217 605.181 Q61.8819 602.444 61.8819 597.701 Q61.8819 593.023 58.1898 590.285 Q54.4977 587.548 48.132 587.548 Q41.7981 587.548 38.106 590.285 Q34.3821 593.023 34.3821 597.701 M29.4168 597.701 Q29.4168 590.063 34.3821 585.702 Q39.3473 581.342 48.132 581.342 Q56.8849 581.342 61.8819 585.702 Q66.8472 590.063 66.8472 597.701 Q66.8472 605.372 61.8819 609.733 Q56.8849 614.061 48.132 614.061 Q39.3473 614.061 34.3821 609.733 Q29.4168 605.372 29.4168 597.701 Z" fill="#000000" fill-rule="evenodd" fill-opacity="1" /><path clip-path="url(#clip630)" d="M 0 0 M51.8559 572.239 L30.2762 572.239 L30.2762 566.382 L51.6331 566.382 Q56.6939 566.382 59.2402 564.409 Q61.7546 562.435 61.7546 558.489 Q61.7546 553.746 58.7309 551.009 Q55.7072 548.24 50.4873 548.24 L30.2762 548.24 L30.2762 542.383 L65.9242 542.383 L65.9242 548.24 L60.4496 548.24 Q63.6962 550.372 65.2876 553.205 Q66.8472 556.006 66.8472 559.73 Q66.8472 565.873 63.0278 569.056 Q59.2083 572.239 51.8559 572.239 M29.4168 557.502 L29.4168 557.502 Z" fill="#000000" fill-rule="evenodd" fill-opacity="1" /><path clip-path="url(#clip630)" d="M 0 0 M44.4081 500.688 L65.9242 500.688 L65.9242 506.545 L44.599 506.545 Q39.5383 506.545 37.0238 508.518 Q34.5094 510.491 34.5094 514.438 Q34.5094 519.18 37.5331 521.918 Q40.5568 524.655 45.7767 524.655 L65.9242 524.655 L65.9242 530.543 L30.2762 530.543 L30.2762 524.655 L35.8144 524.655 Q32.5997 522.554 31.0083 519.722 Q29.4168 516.857 29.4168 513.133 Q29.4168 506.99 33.2363 503.839 Q37.0238 500.688 44.4081 500.688 Z" fill="#000000" fill-rule="evenodd" fill-opacity="1" /><path clip-path="url(#clip630)" d="M 0 0 M20.1547 483.214 L30.2762 483.214 L30.2762 471.151 L34.8277 471.151 L34.8277 483.214 L54.1794 483.214 Q58.5399 483.214 59.7813 482.037 Q61.0226 480.827 61.0226 477.167 L61.0226 471.151 L65.9242 471.151 L65.9242 477.167 Q65.9242 483.946 63.4097 486.524 Q60.8634 489.102 54.1794 489.102 L34.8277 489.102 L34.8277 493.399 L30.2762 493.399 L30.2762 489.102 L20.1547 489.102 L20.1547 483.214 Z" fill="#000000" fill-rule="evenodd" fill-opacity="1" /><path clip-path="url(#clip630)" d="M 0 0 M31.3265 440.723 L36.8647 440.723 Q35.5916 443.206 34.955 445.879 Q34.3184 448.553 34.3184 451.418 Q34.3184 455.778 35.6552 457.974 Q36.992 460.139 39.6656 460.139 Q41.7026 460.139 42.8803 458.579 Q44.0261 457.019 45.0765 452.309 L45.5221 450.304 Q46.8589 444.065 49.3097 441.455 Q51.7286 438.813 56.0891 438.813 Q61.0544 438.813 63.9508 442.76 Q66.8472 446.675 66.8472 453.55 Q66.8472 456.415 66.2743 459.534 Q65.7332 462.621 64.6192 466.059 L58.5718 466.059 Q60.2587 462.812 61.118 459.661 Q61.9456 456.51 61.9456 453.423 Q61.9456 449.285 60.5451 447.057 Q59.1129 444.829 56.5347 444.829 Q54.1476 444.829 52.8745 446.452 Q51.6013 448.044 50.4237 453.486 L49.9462 455.523 Q48.8004 460.966 46.4451 463.385 Q44.058 465.804 39.9202 465.804 Q34.8913 465.804 32.1541 462.239 Q29.4168 458.674 29.4168 452.118 Q29.4168 448.871 29.8943 446.007 Q30.3717 443.142 31.3265 440.723 Z" fill="#000000" fill-rule="evenodd" fill-opacity="1" /><path clip-path="url(#clip630)" d="M 0 0 M638.057 20.1573 L626.958 50.2555 L649.197 50.2555 L638.057 20.1573 M633.439 12.096 L642.716 12.096 L665.765 72.576 L657.258 72.576 L651.749 57.061 L624.487 57.061 L618.977 72.576 L610.349 72.576 L633.439 12.096 Z" fill="#000000" fill-rule="evenodd" fill-opacity="1" /><path clip-path="url(#clip630)" d="M 0 0 M664.064 27.2059 L671.963 27.2059 L686.141 65.2844 L700.319 27.2059 L708.219 27.2059 L691.205 72.576 L681.078 72.576 L664.064 27.2059 Z" fill="#000000" fill-rule="evenodd" fill-opacity="1" /><path clip-path="url(#clip630)" d="M 0 0 M757.316 48.0275 L757.316 51.6733 L723.045 51.6733 Q723.531 59.3701 727.663 63.421 Q731.836 67.4314 739.249 67.4314 Q743.543 67.4314 747.553 66.3781 Q751.604 65.3249 755.574 63.2184 L755.574 70.267 Q751.563 71.9684 747.35 72.8596 Q743.138 73.7508 738.803 73.7508 Q727.947 73.7508 721.587 67.4314 Q715.267 61.1119 715.267 50.3365 Q715.267 39.1965 721.263 32.6746 Q727.299 26.1121 737.507 26.1121 Q746.662 26.1121 751.969 32.0264 Q757.316 37.9003 757.316 48.0275 M749.862 45.84 Q749.781 39.7232 746.419 36.0774 Q743.097 32.4315 737.588 32.4315 Q731.349 32.4315 727.582 35.9558 Q723.855 39.4801 723.288 45.8805 L749.862 45.84 Z" fill="#000000" fill-rule="evenodd" fill-opacity="1" /><path clip-path="url(#clip630)" d="M 0 0 M795.84 34.1734 Q794.584 33.4443 793.085 33.1202 Q791.627 32.7556 789.844 32.7556 Q783.525 32.7556 780.122 36.8875 Q776.76 40.9789 776.76 48.6757 L776.76 72.576 L769.266 72.576 L769.266 27.2059 L776.76 27.2059 L776.76 34.2544 Q779.11 30.1225 782.877 28.1376 Q786.644 26.1121 792.032 26.1121 Q792.802 26.1121 793.733 26.2337 Q794.665 26.3147 795.799 26.5172 L795.84 34.1734 Z" fill="#000000" fill-rule="evenodd" fill-opacity="1" /><path clip-path="url(#clip630)" d="M 0 0 M824.277 49.7694 Q815.244 49.7694 811.76 51.8354 Q808.276 53.9013 808.276 58.8839 Q808.276 62.8538 810.869 65.2034 Q813.502 67.5124 817.998 67.5124 Q824.196 67.5124 827.923 63.1374 Q831.69 58.7219 831.69 51.4303 L831.69 49.7694 L824.277 49.7694 M839.144 46.6907 L839.144 72.576 L831.69 72.576 L831.69 65.6895 Q829.138 69.8214 825.33 71.8063 Q821.523 73.7508 816.013 73.7508 Q809.046 73.7508 804.914 69.8619 Q800.822 65.9325 800.822 59.3701 Q800.822 51.7138 805.927 47.825 Q811.071 43.9361 821.239 43.9361 L831.69 43.9361 L831.69 43.2069 Q831.69 38.0623 828.288 35.2672 Q824.925 32.4315 818.808 32.4315 Q814.92 32.4315 811.233 33.3632 Q807.547 34.295 804.144 36.1584 L804.144 29.2718 Q808.236 27.692 812.084 26.9223 Q815.932 26.1121 819.578 26.1121 Q829.422 26.1121 834.283 31.2163 Q839.144 36.3204 839.144 46.6907 Z" fill="#000000" fill-rule="evenodd" fill-opacity="1" /><path clip-path="url(#clip630)" d="M 0 0 M884.352 49.3643 Q884.352 41.2625 880.99 36.8065 Q877.668 32.3505 871.632 32.3505 Q865.637 32.3505 862.275 36.8065 Q858.953 41.2625 858.953 49.3643 Q858.953 57.4256 862.275 61.8816 Q865.637 66.3376 871.632 66.3376 Q877.668 66.3376 880.99 61.8816 Q884.352 57.4256 884.352 49.3643 M891.806 66.9452 Q891.806 78.5308 886.661 84.1616 Q881.516 89.8329 870.903 89.8329 Q866.974 89.8329 863.49 89.2252 Q860.006 88.6581 856.725 87.4428 L856.725 80.1917 Q860.006 81.9741 863.206 82.8248 Q866.407 83.6755 869.728 83.6755 Q877.06 83.6755 880.706 79.8271 Q884.352 76.0193 884.352 68.282 L884.352 64.5957 Q882.043 68.6061 878.438 70.5911 Q874.832 72.576 869.809 72.576 Q861.464 72.576 856.36 66.2161 Q851.256 59.8562 851.256 49.3643 Q851.256 38.832 856.36 32.472 Q861.464 26.1121 869.809 26.1121 Q874.832 26.1121 878.438 28.0971 Q882.043 30.082 884.352 34.0924 L884.352 27.2059 L891.806 27.2059 L891.806 66.9452 Z" fill="#000000" fill-rule="evenodd" fill-opacity="1" /><path clip-path="url(#clip630)" d="M 0 0 M945.966 48.0275 L945.966 51.6733 L911.696 51.6733 Q912.182 59.3701 916.314 63.421 Q920.486 67.4314 927.899 67.4314 Q932.193 67.4314 936.204 66.3781 Q940.255 65.3249 944.224 63.2184 L944.224 70.267 Q940.214 71.9684 936.001 72.8596 Q931.788 73.7508 927.454 73.7508 Q916.597 73.7508 910.237 67.4314 Q903.918 61.1119 903.918 50.3365 Q903.918 39.1965 909.913 32.6746 Q915.949 26.1121 926.157 26.1121 Q935.312 26.1121 940.619 32.0264 Q945.966 37.9003 945.966 48.0275 M938.513 45.84 Q938.432 39.7232 935.069 36.0774 Q931.748 32.4315 926.238 32.4315 Q920 32.4315 916.233 35.9558 Q912.506 39.4801 911.939 45.8805 L938.513 45.84 Z" fill="#000000" fill-rule="evenodd" fill-opacity="1" /><path clip-path="url(#clip630)" d="M 0 0 M993.078 18.8205 L993.078 41.5461 L1003.37 41.5461 Q1009.08 41.5461 1012.2 38.5889 Q1015.32 35.6318 1015.32 30.163 Q1015.32 24.7348 1012.2 21.7777 Q1009.08 18.8205 1003.37 18.8205 L993.078 18.8205 M984.896 12.096 L1003.37 12.096 Q1013.54 12.096 1018.72 16.714 Q1023.95 21.2916 1023.95 30.163 Q1023.95 39.1155 1018.72 43.6931 Q1013.54 48.2706 1003.37 48.2706 L993.078 48.2706 L993.078 72.576 L984.896 72.576 L984.896 12.096 Z" fill="#000000" fill-rule="evenodd" fill-opacity="1" /><path clip-path="url(#clip630)" d="M 0 0 M1072.31 45.1919 L1072.31 72.576 L1064.86 72.576 L1064.86 45.4349 Q1064.86 38.994 1062.35 35.7938 Q1059.84 32.5936 1054.81 32.5936 Q1048.78 32.5936 1045.29 36.4419 Q1041.81 40.2903 1041.81 46.9338 L1041.81 72.576 L1034.32 72.576 L1034.32 9.54393 L1041.81 9.54393 L1041.81 34.2544 Q1044.48 30.163 1048.09 28.1376 Q1051.74 26.1121 1056.47 26.1121 Q1064.29 26.1121 1068.3 30.9732 Q1072.31 35.7938 1072.31 45.1919 Z" fill="#000000" fill-rule="evenodd" fill-opacity="1" /><path clip-path="url(#clip630)" d="M 0 0 M1104.76 32.4315 Q1098.77 32.4315 1095.28 37.1306 Q1091.8 41.7891 1091.8 49.9314 Q1091.8 58.0738 1095.24 62.7728 Q1098.73 67.4314 1104.76 67.4314 Q1110.72 67.4314 1114.2 62.7323 Q1117.68 58.0333 1117.68 49.9314 Q1117.68 41.8701 1114.2 37.1711 Q1110.72 32.4315 1104.76 32.4315 M1104.76 26.1121 Q1114.48 26.1121 1120.03 32.4315 Q1125.58 38.7509 1125.58 49.9314 Q1125.58 61.0714 1120.03 67.4314 Q1114.48 73.7508 1104.76 73.7508 Q1095 73.7508 1089.45 67.4314 Q1083.94 61.0714 1083.94 49.9314 Q1083.94 38.7509 1089.45 32.4315 Q1095 26.1121 1104.76 26.1121 Z" fill="#000000" fill-rule="evenodd" fill-opacity="1" /><path clip-path="url(#clip630)" d="M 0 0 M1145.31 14.324 L1145.31 27.2059 L1160.66 27.2059 L1160.66 32.9987 L1145.31 32.9987 L1145.31 57.6282 Q1145.31 63.1779 1146.81 64.7578 Q1148.35 66.3376 1153.01 66.3376 L1160.66 66.3376 L1160.66 72.576 L1153.01 72.576 Q1144.38 72.576 1141.1 69.3758 Q1137.82 66.1351 1137.82 57.6282 L1137.82 32.9987 L1132.35 32.9987 L1132.35 27.2059 L1137.82 27.2059 L1137.82 14.324 L1145.31 14.324 Z" fill="#000000" fill-rule="evenodd" fill-opacity="1" /><path clip-path="url(#clip630)" d="M 0 0 M1188.05 32.4315 Q1182.05 32.4315 1178.57 37.1306 Q1175.09 41.7891 1175.09 49.9314 Q1175.09 58.0738 1178.53 62.7728 Q1182.01 67.4314 1188.05 67.4314 Q1194 67.4314 1197.49 62.7323 Q1200.97 58.0333 1200.97 49.9314 Q1200.97 41.8701 1197.49 37.1711 Q1194 32.4315 1188.05 32.4315 M1188.05 26.1121 Q1197.77 26.1121 1203.32 32.4315 Q1208.87 38.7509 1208.87 49.9314 Q1208.87 61.0714 1203.32 67.4314 Q1197.77 73.7508 1188.05 73.7508 Q1178.29 73.7508 1172.74 67.4314 Q1167.23 61.0714 1167.23 49.9314 Q1167.23 38.7509 1172.74 32.4315 Q1178.29 26.1121 1188.05 26.1121 Z" fill="#000000" fill-rule="evenodd" fill-opacity="1" /><path clip-path="url(#clip630)" d="M 0 0 M1258.94 45.1919 L1258.94 72.576 L1251.49 72.576 L1251.49 45.4349 Q1251.49 38.994 1248.97 35.7938 Q1246.46 32.5936 1241.44 32.5936 Q1235.4 32.5936 1231.92 36.4419 Q1228.44 40.2903 1228.44 46.9338 L1228.44 72.576 L1220.94 72.576 L1220.94 27.2059 L1228.44 27.2059 L1228.44 34.2544 Q1231.11 30.163 1234.71 28.1376 Q1238.36 26.1121 1243.1 26.1121 Q1250.92 26.1121 1254.93 30.9732 Q1258.94 35.7938 1258.94 45.1919 Z" fill="#000000" fill-rule="evenodd" fill-opacity="1" /><path clip-path="url(#clip630)" d="M 0 0 M1345.79 16.7545 L1345.79 25.383 Q1341.66 21.5346 1336.96 19.6307 Q1332.3 17.7268 1327.03 17.7268 Q1316.66 17.7268 1311.16 24.0867 Q1305.65 30.4061 1305.65 42.3968 Q1305.65 54.3469 1311.16 60.7069 Q1316.66 67.0263 1327.03 67.0263 Q1332.3 67.0263 1336.96 65.1223 Q1341.66 63.2184 1345.79 59.3701 L1345.79 67.9175 Q1341.5 70.8341 1336.68 72.2924 Q1331.9 73.7508 1326.55 73.7508 Q1312.82 73.7508 1304.92 65.3654 Q1297.02 56.9395 1297.02 42.3968 Q1297.02 27.8135 1304.92 19.4281 Q1312.82 11.0023 1326.55 11.0023 Q1331.98 11.0023 1336.76 12.4606 Q1341.58 13.8784 1345.79 16.7545 Z" fill="#000000" fill-rule="evenodd" fill-opacity="1" /><path clip-path="url(#clip630)" d="M 0 0 M1375.69 32.4315 Q1369.69 32.4315 1366.21 37.1306 Q1362.72 41.7891 1362.72 49.9314 Q1362.72 58.0738 1366.17 62.7728 Q1369.65 67.4314 1375.69 67.4314 Q1381.64 67.4314 1385.12 62.7323 Q1388.61 58.0333 1388.61 49.9314 Q1388.61 41.8701 1385.12 37.1711 Q1381.64 32.4315 1375.69 32.4315 M1375.69 26.1121 Q1385.41 26.1121 1390.96 32.4315 Q1396.51 38.7509 1396.51 49.9314 Q1396.51 61.0714 1390.96 67.4314 Q1385.41 73.7508 1375.69 73.7508 Q1365.92 73.7508 1360.37 67.4314 Q1354.86 61.0714 1354.86 49.9314 Q1354.86 38.7509 1360.37 32.4315 Q1365.92 26.1121 1375.69 26.1121 Z" fill="#000000" fill-rule="evenodd" fill-opacity="1" /><path clip-path="url(#clip630)" d="M 0 0 M1408.09 54.671 L1408.09 27.2059 L1415.55 27.2059 L1415.55 54.3874 Q1415.55 60.8284 1418.06 64.0691 Q1420.57 67.2693 1425.59 67.2693 Q1431.63 67.2693 1435.11 63.421 Q1438.64 59.5726 1438.64 52.9291 L1438.64 27.2059 L1446.09 27.2059 L1446.09 72.576 L1438.64 72.576 L1438.64 65.6084 Q1435.92 69.7404 1432.32 71.7658 Q1428.75 73.7508 1424.01 73.7508 Q1416.2 73.7508 1412.14 68.8897 Q1408.09 64.0286 1408.09 54.671 M1426.85 26.1121 L1426.85 26.1121 Z" fill="#000000" fill-rule="evenodd" fill-opacity="1" /><path clip-path="url(#clip630)" d="M 0 0 M1499.16 45.1919 L1499.16 72.576 L1491.7 72.576 L1491.7 45.4349 Q1491.7 38.994 1489.19 35.7938 Q1486.68 32.5936 1481.66 32.5936 Q1475.62 32.5936 1472.14 36.4419 Q1468.65 40.2903 1468.65 46.9338 L1468.65 72.576 L1461.16 72.576 L1461.16 27.2059 L1468.65 27.2059 L1468.65 34.2544 Q1471.33 30.163 1474.93 28.1376 Q1478.58 26.1121 1483.32 26.1121 Q1491.14 26.1121 1495.15 30.9732 Q1499.16 35.7938 1499.16 45.1919 Z" fill="#000000" fill-rule="evenodd" fill-opacity="1" /><path clip-path="url(#clip630)" d="M 0 0 M1521.4 14.324 L1521.4 27.2059 L1536.75 27.2059 L1536.75 32.9987 L1521.4 32.9987 L1521.4 57.6282 Q1521.4 63.1779 1522.9 64.7578 Q1524.44 66.3376 1529.09 66.3376 L1536.75 66.3376 L1536.75 72.576 L1529.09 72.576 Q1520.47 72.576 1517.18 69.3758 Q1513.9 66.1351 1513.9 57.6282 L1513.9 32.9987 L1508.43 32.9987 L1508.43 27.2059 L1513.9 27.2059 L1513.9 14.324 L1521.4 14.324 Z" fill="#000000" fill-rule="evenodd" fill-opacity="1" /><path clip-path="url(#clip630)" d="M 0 0 M1575.48 28.5427 L1575.48 35.5912 Q1572.32 33.9709 1568.91 33.1607 Q1565.51 32.3505 1561.87 32.3505 Q1556.32 32.3505 1553.52 34.0519 Q1550.77 35.7533 1550.77 39.156 Q1550.77 41.7486 1552.75 43.2475 Q1554.74 44.7058 1560.73 46.0426 L1563.28 46.6097 Q1571.22 48.3111 1574.55 51.4303 Q1577.91 54.509 1577.91 60.0587 Q1577.91 66.3781 1572.88 70.0644 Q1567.9 73.7508 1559.15 73.7508 Q1555.51 73.7508 1551.54 73.0216 Q1547.61 72.3329 1543.23 70.9151 L1543.23 63.2184 Q1547.36 65.3654 1551.37 66.4591 Q1555.38 67.5124 1559.31 67.5124 Q1564.58 67.5124 1567.42 65.73 Q1570.25 63.9071 1570.25 60.6258 Q1570.25 57.5877 1568.19 55.9673 Q1566.16 54.3469 1559.23 52.8481 L1556.64 52.2405 Q1549.71 50.7821 1546.63 47.7845 Q1543.56 44.7463 1543.56 39.4801 Q1543.56 33.0797 1548.09 29.5959 Q1552.63 26.1121 1560.97 26.1121 Q1565.11 26.1121 1568.75 26.7198 Q1572.4 27.3274 1575.48 28.5427 Z" fill="#000000" fill-rule="evenodd" fill-opacity="1" /><path clip-path="url(#clip630)" d="M 0 0 M1610.8 27.2059 L1618.7 27.2059 L1632.88 65.2844 L1647.06 27.2059 L1654.96 27.2059 L1637.94 72.576 L1627.81 72.576 L1610.8 27.2059 Z" fill="#000000" fill-rule="evenodd" fill-opacity="1" /><path clip-path="url(#clip630)" d="M 0 0 M1694.17 28.5427 L1694.17 35.5912 Q1691.01 33.9709 1687.61 33.1607 Q1684.2 32.3505 1680.56 32.3505 Q1675.01 32.3505 1672.21 34.0519 Q1669.46 35.7533 1669.46 39.156 Q1669.46 41.7486 1671.44 43.2475 Q1673.43 44.7058 1679.42 46.0426 L1681.98 46.6097 Q1689.91 48.3111 1693.24 51.4303 Q1696.6 54.509 1696.6 60.0587 Q1696.6 66.3781 1691.58 70.0644 Q1686.59 73.7508 1677.84 73.7508 Q1674.2 73.7508 1670.23 73.0216 Q1666.3 72.3329 1661.92 70.9151 L1661.92 63.2184 Q1666.06 65.3654 1670.07 66.4591 Q1674.08 67.5124 1678.01 67.5124 Q1683.27 67.5124 1686.11 65.73 Q1688.94 63.9071 1688.94 60.6258 Q1688.94 57.5877 1686.88 55.9673 Q1684.85 54.3469 1677.92 52.8481 L1675.33 52.2405 Q1668.4 50.7821 1665.33 47.7845 Q1662.25 44.7463 1662.25 39.4801 Q1662.25 33.0797 1666.78 29.5959 Q1671.32 26.1121 1679.67 26.1121 Q1683.8 26.1121 1687.44 26.7198 Q1691.09 27.3274 1694.17 28.5427 Z" fill="#000000" fill-rule="evenodd" fill-opacity="1" /><path clip-path="url(#clip630)" d="M 0 0 M1726.78 12.096 L1777.94 12.096 L1777.94 18.9825 L1756.47 18.9825 L1756.47 72.576 L1748.25 72.576 L1748.25 18.9825 L1726.78 18.9825 L1726.78 12.096 Z" fill="#000000" fill-rule="evenodd" fill-opacity="1" /><path clip-path="url(#clip630)" d="M 0 0 M1782.96 27.2059 L1790.42 27.2059 L1790.42 72.576 L1782.96 72.576 L1782.96 27.2059 M1782.96 9.54393 L1790.42 9.54393 L1790.42 18.9825 L1782.96 18.9825 L1782.96 9.54393 Z" fill="#000000" fill-rule="evenodd" fill-opacity="1" /><path clip-path="url(#clip630)" d="M 0 0 M1841.34 35.9153 Q1844.13 30.8922 1848.02 28.5022 Q1851.91 26.1121 1857.18 26.1121 Q1864.27 26.1121 1868.11 31.0947 Q1871.96 36.0368 1871.96 45.1919 L1871.96 72.576 L1864.47 72.576 L1864.47 45.4349 Q1864.47 38.913 1862.16 35.7533 Q1859.85 32.5936 1855.11 32.5936 Q1849.32 32.5936 1845.96 36.4419 Q1842.59 40.2903 1842.59 46.9338 L1842.59 72.576 L1835.1 72.576 L1835.1 45.4349 Q1835.1 38.8725 1832.79 35.7533 Q1830.48 32.5936 1825.66 32.5936 Q1819.95 32.5936 1816.59 36.4824 Q1813.22 40.3308 1813.22 46.9338 L1813.22 72.576 L1805.73 72.576 L1805.73 27.2059 L1813.22 27.2059 L1813.22 34.2544 Q1815.78 30.082 1819.34 28.0971 Q1822.91 26.1121 1827.81 26.1121 Q1832.75 26.1121 1836.19 28.6237 Q1839.68 31.1352 1841.34 35.9153 Z" fill="#000000" fill-rule="evenodd" fill-opacity="1" /><path clip-path="url(#clip630)" d="M 0 0 M1925.64 48.0275 L1925.64 51.6733 L1891.37 51.6733 Q1891.85 59.3701 1895.98 63.421 Q1900.16 67.4314 1907.57 67.4314 Q1911.86 67.4314 1915.87 66.3781 Q1919.93 65.3249 1923.9 63.2184 L1923.9 70.267 Q1919.88 71.9684 1915.67 72.8596 Q1911.46 73.7508 1907.12 73.7508 Q1896.27 73.7508 1889.91 67.4314 Q1883.59 61.1119 1883.59 50.3365 Q1883.59 39.1965 1889.58 32.6746 Q1895.62 26.1121 1905.83 26.1121 Q1914.98 26.1121 1920.29 32.0264 Q1925.64 37.9003 1925.64 48.0275 M1918.18 45.84 Q1918.1 39.7232 1914.74 36.0774 Q1911.42 32.4315 1905.91 32.4315 Q1899.67 32.4315 1895.9 35.9558 Q1892.18 39.4801 1891.61 45.8805 L1918.18 45.84 Z" fill="#000000" fill-rule="evenodd" fill-opacity="1" /><polyline clip-path="url(#clip632)" style="stroke:#009af9; stroke-width:4; stroke-opacity:1; fill:none" points="
  335.198,1252.13 336.131,1094.28 337.063,1319.66 337.996,1185.92 338.929,1153.11 339.862,950.113 340.795,1280.82 341.727,1153.84 342.66,1253.64 343.593,1317.46 
  344.526,1323.13 345.458,950.675 346.391,193.773 347.324,610.97 348.257,1054.2 349.19,765.63 350.122,1091.82 351.055,1258.64 351.988,910.464 352.921,1007.08 
  353.854,1004.42 354.786,1319.06 355.719,1161.97 356.652,1137.37 357.585,1215.38 358.518,1243.2 359.45,1300.87 360.383,1149.43 361.316,1211.21 362.249,1298.66 
  363.182,1314.4 364.114,1051.72 365.047,1297.22 365.98,1217.47 366.913,1307.18 367.846,1105.88 368.778,1272.47 369.711,1223.63 370.644,1249.6 371.577,1324.75 
  372.51,1304.79 373.442,1288.72 374.375,1153.38 375.308,978.37 376.241,1189.7 377.174,1175.69 378.106,1082.91 379.039,973.445 379.972,502.615 380.905,802.467 
  381.837,1035.93 382.77,404.925 383.703,721.388 384.636,1272.52 385.569,1274.37 386.501,1285.56 387.434,1048.91 388.367,1324.72 389.3,1206.5 390.233,892.627 
  391.165,1149.68 392.098,1252.73 393.031,1299 393.964,1094.41 394.897,1318.28 395.829,1191.95 396.762,1322.86 397.695,1188.32 398.628,1316.7 399.561,1295.71 
  400.493,1315.28 401.426,1216.74 402.359,1249.29 403.292,1121.42 404.225,786.002 405.157,1164.2 406.09,1276.09 407.023,1271.13 407.956,1291.06 408.889,1247.54 
  409.821,1310.42 410.754,948.295 411.687,856.679 412.62,1277.41 413.553,780.916 414.485,482.707 415.418,1180.7 416.351,1142.35 417.284,1134.86 418.217,1223.1 
  419.149,1288.75 420.082,1251.76 421.015,1101.02 421.948,1320.79 422.88,1322.64 423.813,1047.89 424.746,1292.62 425.679,1203.58 426.612,1275.88 427.544,1240.13 
  428.477,1254.87 429.41,1317.96 430.343,1254.3 431.276,1317.66 432.208,1198.21 433.141,1322.77 434.074,1287.55 435.007,1010.46 435.94,1023.74 436.872,1171.63 
  437.805,1116.22 438.738,1244.27 439.671,1303.5 440.604,1308.68 441.536,1091.68 442.469,772.355 443.402,1128.1 444.335,1288.4 445.268,1100.05 446.2,1217.72 
  447.133,1031.61 448.066,833.421 448.999,1321.66 449.932,1223.96 450.864,1153.13 451.797,1275.59 452.73,1255.22 453.663,1198.28 454.596,1296.26 455.528,1317.45 
  456.461,1239.44 457.394,1253.37 458.327,1302.82 459.259,1265.18 460.192,1179.23 461.125,1190.59 462.058,716.668 462.991,1196.44 463.923,1220.02 464.856,1272.36 
  465.789,1284.06 466.722,1202.34 467.655,1266.95 468.587,960.059 469.52,988.436 470.453,1254.93 471.386,1263.98 472.319,1075.7 473.251,1110.97 474.184,1189.73 
  475.117,1228.4 476.05,1056.85 476.983,1223.2 477.915,1193.66 478.848,1161.76 479.781,1275.48 480.714,1121.21 481.647,1155.23 482.579,1248.85 483.512,1236.42 
  484.445,1266.27 485.378,1317.37 486.311,1146.46 487.243,1258.38 488.176,1297.25 489.109,1315.79 490.042,1082.42 490.975,1285.92 491.907,1203.61 492.84,1221.32 
  493.773,1102.69 494.706,1253.51 495.639,927.44 496.571,1120.92 497.504,1242.51 498.437,1008.47 499.37,1034.33 500.302,870.381 501.235,1130.43 502.168,1287.87 
  503.101,1139.06 504.034,1155.68 504.966,1275.74 505.899,1055.75 506.832,1058.79 507.765,1025.51 508.698,1311.46 509.63,1319 510.563,1197.96 511.496,1211.02 
  512.429,1265.85 513.362,1295.85 514.294,924.801 515.227,1177.77 516.16,1129.45 517.093,1280.34 518.026,1303.22 518.958,1292.13 519.891,1001.96 520.824,1291.21 
  521.757,1143.52 522.69,1324.55 523.622,1209.14 524.555,1106.84 525.488,1312.88 526.421,1160.18 527.354,1185.35 528.286,1300.75 529.219,909.26 530.152,651.943 
  531.085,1180.46 532.018,1299.59 532.95,1314.61 533.883,1285.7 534.816,1265.97 535.749,1302.72 536.682,1029.85 537.614,845.591 538.547,1251.55 539.48,1319.62 
  540.413,1247.69 541.345,1273.46 542.278,1323.33 543.211,1310.16 544.144,1190.43 545.077,1166.57 546.009,986.211 546.942,1293.66 547.875,1127.78 548.808,1177.38 
  549.741,1092.64 550.673,1312.2 551.606,1199.79 552.539,1291.82 553.472,1205.33 554.405,1260.4 555.337,1209.53 556.27,1284.24 557.203,1121.3 558.136,351.822 
  559.069,994.993 560.001,1281.91 560.934,1210.59 561.867,1280.42 562.8,1143.27 563.733,1066.2 564.665,1253.34 565.598,925.947 566.531,956.229 567.464,1253.33 
  568.397,1224.37 569.329,1297.81 570.262,1320.16 571.195,1197.24 572.128,1297.85 573.061,1262.99 573.993,960.721 574.926,1311.26 575.859,1314.16 576.792,1180.92 
  577.724,1304.92 578.657,1314.06 579.59,1005.74 580.523,1321.88 581.456,1304.76 582.388,1076.79 583.321,1305.08 584.254,1324.8 585.187,1215.85 586.12,1231.27 
  587.052,1251.7 587.985,1067.36 588.918,1125.55 589.851,1105.52 590.784,1222.01 591.716,934.024 592.649,1217.97 593.582,1313.35 594.515,1135.67 595.448,1321.04 
  596.38,1002.47 597.313,511.98 598.246,771.683 599.179,985.801 600.112,1177.4 601.044,1275.66 601.977,1274.34 602.91,1324.34 603.843,1197.8 604.776,1062.73 
  605.708,1131.46 606.641,1313.93 607.574,1044.54 608.507,1202.35 609.44,1281.89 610.372,1208.76 611.305,1319.79 612.238,1185.19 613.171,1208.65 614.104,1287.73 
  615.036,1288.83 615.969,788.512 616.902,1216.16 617.835,1241.83 618.767,1222.26 619.7,1323.68 620.633,1306.15 621.566,1295.81 622.499,1215.85 623.431,1187.97 
  624.364,1287.86 625.297,1157 626.23,1126.3 627.163,1320.77 628.095,1222.42 629.028,1120.16 629.961,743.894 630.894,594.871 631.827,1007.45 632.759,1162.19 
  633.692,1168.79 634.625,1165.57 635.558,1298.98 636.491,1152.75 637.423,1294.1 638.356,1275.05 639.289,1125.45 640.222,1294.99 641.155,1252.17 642.087,1082.78 
  643.02,1281.6 643.953,1259.43 644.886,1215.74 645.819,973.761 646.751,1288.34 647.684,1205.18 648.617,1296.88 649.55,1213.21 650.483,1240 651.415,1313.64 
  652.348,1130.4 653.281,1249.71 654.214,1131.69 655.146,1153.19 656.079,1261.54 657.012,1319.97 657.945,1316.13 658.878,1282.37 659.81,1323.72 660.743,1226.79 
  661.676,812.444 662.609,1008.03 663.542,1102.13 664.474,988.529 665.407,1097.28 666.34,1032.56 667.273,1319.56 668.206,1246.32 669.138,1277.44 670.071,1002.17 
  671.004,1312.78 671.937,1313.06 672.87,1194.12 673.802,1263.19 674.735,1240.99 675.668,1038.92 676.601,1302.18 677.534,1294.5 678.466,1122.6 679.399,1143.29 
  680.332,1252.05 681.265,1250.52 682.198,1010.6 683.13,1140.47 684.063,976.753 684.996,1318.96 685.929,1272.4 686.862,1205.41 687.794,1265.96 688.727,1103.33 
  689.66,1157.08 690.593,1305.83 691.526,1300.1 692.458,1200.36 693.391,1175.15 694.324,1239.27 695.257,1224.54 696.189,1241.19 697.122,1215.67 698.055,1059.97 
  698.988,1243.87 699.921,1089.9 700.853,1312.91 701.786,1248.9 702.719,1240.32 703.652,1101.2 704.585,1219.43 705.517,1176.63 706.45,1299.92 707.383,1309.78 
  708.316,1062.75 709.249,1272.85 710.181,1321.21 711.114,1312.46 712.047,782.003 712.98,663.048 713.913,745.752 714.845,1291.01 715.778,1210.01 716.711,1236.69 
  717.644,1216.5 718.577,1206.75 719.509,728.541 720.442,499.685 721.375,972.491 722.308,1207.61 723.241,1227.56 724.173,1185.53 725.106,1247.43 726.039,1177.6 
  726.972,1303.71 727.905,1289.61 728.837,1323.65 729.77,1142.82 730.703,1309.8 731.636,1292.36 732.568,1171.13 733.501,1219.66 734.434,1289.51 735.367,1230.62 
  736.3,1189.8 737.232,1270.1 738.165,1149.28 739.098,1246.58 740.031,1284.68 740.964,1177.79 741.896,723.642 742.829,1313.37 743.762,1227.72 744.695,1130.21 
  745.628,1059.24 746.56,950.094 747.493,1075.28 748.426,1236.22 749.359,1123.23 750.292,1034.49 751.224,875.698 752.157,842.668 753.09,679.252 754.023,866.617 
  754.956,1069.21 755.888,947.143 756.821,1103.08 757.754,1110.19 758.687,1307.36 759.62,1224.3 760.552,1310.48 761.485,1298.73 762.418,1254.13 763.351,1139.88 
  764.284,1240.02 765.216,1323.55 766.149,1049.5 767.082,1300.27 768.015,1207.35 768.948,1280.13 769.88,1152.76 770.813,1142.48 771.746,940.053 772.679,1256.93 
  773.611,1251.81 774.544,1183.18 775.477,1028.87 776.41,1209.7 777.343,1004.23 778.275,906.952 779.208,1320.49 780.141,1040.12 781.074,1054.29 782.007,1249.78 
  782.939,1292.46 783.872,1169.31 784.805,971.718 785.738,1171.38 786.671,998.005 787.603,950.194 788.536,1036.95 789.469,967.674 790.402,1309.97 791.335,1324.83 
  792.267,1202.27 793.2,1299.31 794.133,1324.15 795.066,1273.45 795.999,1183.49 796.931,1234.09 797.864,1175.25 798.797,1272.81 799.73,1061.41 800.663,1244.53 
  801.595,1154.29 802.528,1235.92 803.461,1315.85 804.394,1267.59 805.327,1201.2 806.259,1286.75 807.192,1309.12 808.125,938.727 809.058,702.141 809.991,933.217 
  810.923,1249.02 811.856,1259.6 812.789,1273.75 813.722,1068.63 814.654,1256.88 815.587,1268.95 816.52,1229.96 817.453,1280.5 818.386,1243.22 819.318,1278.8 
  820.251,915.857 821.184,1075.43 822.117,1318.02 823.05,1206.75 823.982,1265.63 824.915,1289.79 825.848,1069.18 826.781,1319.02 827.714,1324.14 828.646,1176.97 
  829.579,1190.25 830.512,1273.53 831.445,1159.87 832.378,1212.94 833.31,1196.31 834.243,1043.68 835.176,1274.34 836.109,1030.9 837.042,1136.07 837.974,1167.95 
  838.907,1284.63 839.84,1243.8 840.773,1212.05 841.706,1158.53 842.638,1085.87 843.571,1276.74 844.504,1216.28 845.437,1175 846.37,1320.94 847.302,1247.11 
  848.235,1207.76 849.168,1095.19 850.101,1172.86 851.033,1312.52 851.966,1120.46 852.899,1308.25 853.832,1218.87 854.765,1194.95 855.697,1268.69 856.63,1225.05 
  857.563,1281.5 858.496,1185.87 859.429,1126.32 860.361,1298.12 861.294,1297.02 862.227,1136.07 863.16,1300.74 864.093,1251.96 865.025,1291.12 865.958,1079.93 
  866.891,920.283 867.824,550.517 868.757,1244.47 869.689,1189.87 870.622,1116.13 871.555,1322.22 872.488,1213.68 873.421,1078.81 874.353,1026.5 875.286,1281.23 
  876.219,1321.38 877.152,1320.62 878.085,1288.68 879.017,1317.48 879.95,1059.72 880.883,903.506 881.816,974.763 882.749,1254.27 883.681,1254.75 884.614,1261.16 
  885.547,1217.51 886.48,1211.01 887.413,1206.7 888.345,1001.36 889.278,1299.57 890.211,1321.38 891.144,1297.47 892.076,1090.12 893.009,1316.04 893.942,1288.8 
  894.875,1281.24 895.808,1016.46 896.74,1200.15 897.673,1197.75 898.606,1268.3 899.539,1270.16 900.472,1201.69 901.404,1072.47 902.337,1179.5 903.27,898.812 
  904.203,791.39 905.136,1268.28 906.068,1321.98 907.001,1302.55 907.934,1218.4 908.867,1237.54 909.8,1292.5 910.732,1239.28 911.665,1055.52 912.598,1234.3 
  913.531,1096.26 914.464,1117.34 915.396,1120.63 916.329,1268.47 917.262,1261.95 918.195,957.725 919.128,1217.49 920.06,1149.18 920.993,1195.92 921.926,1028.57 
  922.859,1324.11 923.792,1278.25 924.724,1217.53 925.657,970.796 926.59,1279.87 927.523,1239.33 928.455,1313.41 929.388,1209 930.321,1171.45 931.254,1313.34 
  932.187,1013.34 933.119,1254.54 934.052,1119.78 934.985,1050.39 935.918,1049.05 936.851,954.097 937.783,1187.39 938.716,1233.56 939.649,921.399 940.582,1231.11 
  941.515,1313.3 942.447,1218.6 943.38,1316.16 944.313,1282.42 945.246,1086.87 946.179,1232.56 947.111,1323.74 948.044,1179.99 948.977,1220.74 949.91,1299.03 
  950.843,1316.43 951.775,979.671 952.708,1305.68 953.641,1242.85 954.574,1122.62 955.507,1184.66 956.439,1319.65 957.372,1217.99 958.305,1240.76 959.238,1275.72 
  960.171,1273.43 961.103,1234.6 962.036,1285.9 962.969,1144.75 963.902,744.068 964.835,1193.04 965.767,1193.21 966.7,1295.33 967.633,1067.33 968.566,1140.34 
  969.498,1192.29 970.431,507.478 971.364,573.971 972.297,1068.85 973.23,880.759 974.162,1261 975.095,1270.97 976.028,1023.25 976.961,1285.91 977.894,1236.03 
  978.826,1281.89 979.759,1260.12 980.692,1277.97 981.625,1190.35 982.558,1280.3 983.49,1324 984.423,1225.27 985.356,1162.44 986.289,1309.46 987.222,1323.58 
  988.154,1103.65 989.087,1319.82 990.02,1299.18 990.953,1301.89 991.886,1047.21 992.818,1207.61 993.751,1266.2 994.684,1195.88 995.617,1275.99 996.55,1086.52 
  997.482,935.234 998.415,1290.02 999.348,1273.11 1000.28,1307.95 1001.21,1131.25 1002.15,946.405 1003.08,787.595 1004.01,158.463 1004.94,436.536 1005.88,1294.74 
  1006.81,1045.96 1007.74,1091.62 1008.68,1301.88 1009.61,1260.98 1010.54,1321.69 1011.47,1146.62 1012.41,1279.64 1013.34,1310.86 1014.27,1138.18 1015.21,1231.81 
  1016.14,1274.22 1017.07,1297.08 1018,1154.46 1018.94,1318.85 1019.87,1269.71 1020.8,1281.14 1021.74,1070.76 1022.67,1308.41 1023.6,1289.61 1024.53,1324.58 
  1025.47,1191.65 1026.4,1298.01 1027.33,1243.98 1028.26,698.348 1029.2,1028.7 1030.13,1301.89 1031.06,1257.87 1032,1311.54 1032.93,1298.57 1033.86,1241.11 
  1034.79,658.625 1035.73,318.519 1036.66,1032.92 1037.59,959.204 1038.53,702.334 1039.46,1296.83 1040.39,1264.89 1041.32,1201.52 1042.26,1109.03 1043.19,1268.44 
  1044.12,1230.86 1045.05,1237.29 1045.99,1299.8 1046.92,1298.49 1047.85,1168.03 1048.79,1324.44 1049.72,1182.07 1050.65,1163.97 1051.58,1121.12 1052.52,1243.17 
  1053.45,1324.09 1054.38,1274.22 1055.32,1288.71 1056.25,1248.99 1057.18,1233.85 1058.11,1249.03 1059.05,1251.47 1059.98,1166.38 1060.91,1244.17 1061.85,1067.32 
  1062.78,1198.05 1063.71,1289.52 1064.64,1168.57 1065.58,1091.55 1066.51,1170.33 1067.44,1229.12 1068.37,1053.12 1069.31,869.626 1070.24,1186.83 1071.17,1072.71 
  1072.11,737.683 1073.04,1305.53 1073.97,1252.58 1074.9,1298.8 1075.84,1161.73 1076.77,1207.08 1077.7,1179.73 1078.64,1298.13 1079.57,1281.41 1080.5,1219.92 
  1081.43,1227.01 1082.37,1306.94 1083.3,1196.67 1084.23,1134.81 1085.17,1202.65 1086.1,687.289 1087.03,827.17 1087.96,909.376 1088.9,1268.16 1089.83,1283.17 
  1090.76,1253.21 1091.69,1318.67 1092.63,1221.38 1093.56,1025.81 1094.49,1176.29 1095.43,1256.32 1096.36,1272.06 1097.29,1324.4 1098.22,1295.24 1099.16,1207.71 
  1100.09,1239.58 1101.02,1276.6 1101.96,1007.59 1102.89,1121.63 1103.82,1155.63 1104.75,1181.62 1105.69,1154.35 1106.62,1288.54 1107.55,1206.52 1108.48,1294.2 
  1109.42,1286.93 1110.35,1166.26 1111.28,1266.56 1112.22,1307.42 1113.15,1312.32 1114.08,1228.91 1115.01,1285.76 1115.95,1295.21 1116.88,1248.56 1117.81,727.57 
  1118.75,876.375 1119.68,539.683 1120.61,779.198 1121.54,1160.32 1122.48,1280.02 1123.41,1180.71 1124.34,984.486 1125.28,958.703 1126.21,1226.85 1127.14,1172.33 
  1128.07,1166.12 1129.01,1240.09 1129.94,1259.28 1130.87,1230.3 1131.8,1021.9 1132.74,1262.75 1133.67,1286.57 1134.6,1293.42 1135.54,1031.85 1136.47,1210.04 
  1137.4,1265.86 1138.33,1087.51 1139.27,1286.63 1140.2,1193.22 1141.13,1258.44 1142.07,1255.74 1143,1283.07 1143.93,1095.4 1144.86,1273.52 1145.8,1203.9 
  1146.73,1297.88 1147.66,1210.49 1148.6,1226.09 1149.53,1313.62 1150.46,1107.64 1151.39,647.315 1152.33,1142.58 1153.26,1127.18 1154.19,695.14 1155.12,1030.39 
  1156.06,1301.29 1156.99,1304.98 1157.92,1146.11 1158.86,792.373 1159.79,1205.31 1160.72,1313.87 1161.65,1033.89 1162.59,1228.21 1163.52,1315.04 1164.45,1298.59 
  1165.39,1171.03 1166.32,1277.3 1167.25,1191.57 1168.18,1263.52 1169.12,1215.01 1170.05,1052.99 1170.98,1312.27 1171.92,1212.53 1172.85,1233.38 1173.78,1209.39 
  1174.71,1315.77 1175.65,1114.9 1176.58,1250.41 1177.51,1209.47 1178.44,1281.19 1179.38,1207.13 1180.31,1314.59 1181.24,1319.51 1182.18,878.099 1183.11,1021.53 
  1184.04,1272.87 1184.97,1132.44 1185.91,1162.6 1186.84,998.191 1187.77,787.589 1188.71,1192.23 1189.64,1184.39 1190.57,1109.55 1191.5,1291.21 1192.44,1126.77 
  1193.37,1255.27 1194.3,1313.09 1195.23,1165.18 1196.17,1279.93 1197.1,1228.54 1198.03,1060.26 1198.97,1324.29 1199.9,1319.28 1200.83,1162.42 1201.76,1300.17 
  1202.7,1301.72 1203.63,1100.61 1204.56,1294.4 1205.5,1294.12 1206.43,1135.17 1207.36,1317.45 1208.29,1322.31 1209.23,1170.85 1210.16,1294.36 1211.09,1242.06 
  1212.03,1164.15 1212.96,1323.09 1213.89,1253.5 1214.82,1292.84 1215.76,1139.33 1216.69,1240.4 1217.62,1264.81 1218.55,812.005 1219.49,963.116 1220.42,1227.99 
  1221.35,948.826 1222.29,1077.53 1223.22,1162.06 1224.15,1200 1225.08,1285.68 1226.02,1131.57 1226.95,1156.67 1227.88,1180.47 1228.82,1298.97 1229.75,1290.06 
  1230.68,1232.18 1231.61,1131 1232.55,1227.26 1233.48,1269.63 1234.41,1240.53 1235.35,1316.57 1236.28,1164.21 1237.21,1235.2 1238.14,1276.59 1239.08,1286.14 
  1240.01,882.3 1240.94,1063.23 1241.87,1168.84 1242.81,1315.94 1243.74,1284.01 1244.67,1207.75 1245.61,1256.86 1246.54,1302.28 1247.47,1098.52 1248.4,1097.25 
  1249.34,1185.93 1250.27,1222.8 1251.2,1241.7 1252.14,957.902 1253.07,1085.5 1254,977.552 1254.93,572.966 1255.87,866.141 1256.8,1267 1257.73,1217.81 
  1258.67,1312.81 1259.6,1310.69 1260.53,1137.52 1261.46,1281.97 1262.4,1323.73 1263.33,1267.07 1264.26,1207.97 1265.19,1305.55 1266.13,1171.51 1267.06,1251.69 
  1267.99,1292.89 1268.93,1214.91 1269.86,976.898 1270.79,1264.41 1271.72,1182.71 1272.66,1302.64 1273.59,1105.15 1274.52,1113.09 1275.46,1243.74 1276.39,1305.26 
  1277.32,1277.54 1278.25,1132.36 1279.19,1044.78 1280.12,1126.58 1281.05,1205.55 1281.98,1160.41 1282.92,1089.55 1283.85,1248.19 1284.78,1264.48 1285.72,558.993 
  1286.65,660.486 1287.58,864.909 1288.51,1050.75 1289.45,1200.31 1290.38,1170.81 1291.31,1275.21 1292.25,1285.66 1293.18,1296.48 1294.11,984.983 1295.04,1309.4 
  1295.98,1237.62 1296.91,1271.78 1297.84,1198.27 1298.78,1145.34 1299.71,1140.19 1300.64,1298.37 1301.57,1176.26 1302.51,1119.22 1303.44,1021.19 1304.37,1243.95 
  1305.3,1256.62 1306.24,1214.84 1307.17,1265.98 1308.1,1075.63 1309.04,1238.77 1309.97,1302.9 1310.9,1315.1 1311.83,1284.2 1312.77,1054.58 1313.7,1102.22 
  1314.63,1252.85 1315.57,1269.86 1316.5,1151.86 1317.43,969.034 1318.36,1225.34 1319.3,995.476 1320.23,1073.01 1321.16,1187.19 1322.1,1202.2 1323.03,1274.15 
  1323.96,1038.51 1324.89,1285.24 1325.83,1225.1 1326.76,1224.35 1327.69,1135 1328.62,1211.89 1329.56,1095.09 1330.49,1314.03 1331.42,1296.76 1332.36,1145.37 
  1333.29,1215.07 1334.22,1163.85 1335.15,1093.54 1336.09,1130.25 1337.02,817.767 1337.95,689.906 1338.89,1213.89 1339.82,1232.43 1340.75,1214.28 1341.68,1071.28 
  1342.62,1245.51 1343.55,1266.75 1344.48,1060.58 1345.41,1067.96 1346.35,1276.24 1347.28,1300.28 1348.21,1216.73 1349.15,1241.42 1350.08,1264.54 1351.01,1100.74 
  1351.94,1317.49 1352.88,1324.49 1353.81,1069.3 1354.74,1309.86 1355.68,1306.86 1356.61,1182.87 1357.54,1186.78 1358.47,1252.68 1359.41,1211.62 1360.34,1184.02 
  1361.27,1284.14 1362.21,1213.6 1363.14,1185.58 1364.07,1313.72 1365,1116.93 1365.94,921.791 1366.87,1263.56 1367.8,1173.27 1368.73,1008.16 1369.67,891.444 
  1370.6,600.99 1371.53,736.067 1372.47,1287.05 1373.4,1312.38 1374.33,1317.93 1375.26,1161.16 1376.2,1045.51 1377.13,920.398 1378.06,1092.19 1379,1149.16 
  1379.93,1281.14 1380.86,1257.95 1381.79,1135.96 1382.73,1266.82 1383.66,1289.21 1384.59,1256.19 1385.53,1308.21 1386.46,1259.06 1387.39,1131.06 1388.32,1282.13 
  1389.26,1313.68 1390.19,1110.84 1391.12,1310.77 1392.05,1197.14 1392.99,1247.84 1393.92,1185.27 1394.85,1010.72 1395.79,982.012 1396.72,1310.82 1397.65,1275.64 
  1398.58,1029.15 1399.52,1025.51 1400.45,1210.24 1401.38,702.68 1402.32,403.673 1403.25,986.609 1404.18,1207.34 1405.11,1222.02 1406.05,1316.66 1406.98,1323.33 
  1407.91,1216.98 1408.85,890.518 1409.78,897.295 1410.71,962.401 1411.64,1310.84 1412.58,1305.38 1413.51,1194.25 1414.44,1285.5 1415.37,1302.97 1416.31,1168.67 
  1417.24,1287.67 1418.17,1292.86 1419.11,1254.22 1420.04,1167.3 1420.97,1275.09 1421.9,1253.19 1422.84,1164.42 1423.77,1028.34 1424.7,1157.75 1425.64,1208.71 
  1426.57,1306.54 1427.5,1298.12 1428.43,1161.23 1429.37,1119.38 1430.3,1278.12 1431.23,1298.07 1432.16,1073.66 1433.1,857.428 1434.03,875.49 1434.96,907.411 
  1435.9,992.846 1436.83,1282.47 1437.76,1175.6 1438.69,1179.13 1439.63,1285.61 1440.56,1241.24 1441.49,1010.12 1442.43,1065.59 1443.36,1273.72 1444.29,1091.64 
  1445.22,1291.7 1446.16,1296.9 1447.09,1296 1448.02,1200.95 1448.96,1194.16 1449.89,1026.5 1450.82,1319.37 1451.75,1322.82 1452.69,1076.25 1453.62,1090.21 
  1454.55,1193.96 1455.48,1166.41 1456.42,1151.34 1457.35,1091.59 1458.28,1030.15 1459.22,1286.55 1460.15,1101.62 1461.08,1076.78 1462.01,1176.16 1462.95,1311.65 
  1463.88,1320.39 1464.81,1317.38 1465.75,1160.24 1466.68,1074.39 1467.61,1285.91 1468.54,1257.27 1469.48,1054.94 1470.41,1169.81 1471.34,1237.28 1472.28,1308.42 
  1473.21,1238.14 1474.14,1323.66 1475.07,1296.13 1476.01,1162.24 1476.94,1301.06 1477.87,1148.96 1478.8,1255.62 1479.74,1158.63 1480.67,1318.22 1481.6,1303.76 
  1482.54,1056.32 1483.47,1122.26 1484.4,1287.17 1485.33,1274.77 1486.27,1151.01 1487.2,1225.45 1488.13,1186.59 1489.07,1191.28 1490,1227.93 1490.93,928.964 
  1491.86,466.234 1492.8,1088.5 1493.73,1103.27 1494.66,1117.34 1495.59,1220.24 1496.53,1279.32 1497.46,1307.01 1498.39,1262.25 1499.33,1240.06 1500.26,1287.49 
  1501.19,1153.46 1502.12,1115.51 1503.06,1159.04 1503.99,1226.16 1504.92,1255.72 1505.86,1190.45 1506.79,1244.36 1507.72,1231.92 1508.65,1263.2 1509.59,1145.59 
  1510.52,1259.1 1511.45,1287.7 1512.39,1121.38 1513.32,1202.42 1514.25,1304.45 1515.18,1303.94 1516.12,1062 1517.05,1306.51 1517.98,1283.88 1518.91,1182.58 
  1519.85,1149.09 1520.78,1188.76 1521.71,1229.33 1522.65,1285.84 1523.58,1208.83 1524.51,918.401 1525.44,631.256 1526.38,1243.65 1527.31,1255.26 1528.24,1190.12 
  1529.18,1316.72 1530.11,1307.63 1531.04,1219.43 1531.97,1024.01 1532.91,849.446 1533.84,1240.78 1534.77,1225.7 1535.71,1174.88 1536.64,1294.79 1537.57,1067.2 
  1538.5,1176.11 1539.44,1136.87 1540.37,1293.05 1541.3,1288.98 1542.23,1097.84 1543.17,1245.73 1544.1,1235.52 1545.03,1271.79 1545.97,1117.91 1546.9,1284.79 
  1547.83,1296.31 1548.76,1026.72 1549.7,906.322 1550.63,1249.95 1551.56,1276.64 1552.5,1316.99 1553.43,1156.46 1554.36,1148.85 1555.29,1286.25 1556.23,1079.52 
  1557.16,1173.19 1558.09,1297.04 1559.03,1187.8 1559.96,1228.34 1560.89,1052.67 1561.82,1244.57 1562.76,1238.45 1563.69,963.628 1564.62,1045.98 1565.55,1150.53 
  1566.49,979.554 1567.42,1302.28 1568.35,1264.31 1569.29,1021.02 1570.22,1272.41 1571.15,1302.59 1572.08,1271.61 1573.02,1222.7 1573.95,1299.09 1574.88,1317.7 
  1575.82,1093.46 1576.75,1315.61 1577.68,1285.94 1578.61,1027.44 1579.55,1192.46 1580.48,1309.57 1581.41,1263.23 1582.34,1101.52 1583.28,1236.94 1584.21,1314.82 
  1585.14,909.922 1586.08,1206.39 1587.01,1313.14 1587.94,1114.32 1588.87,1277.87 1589.81,1192.08 1590.74,1294.79 1591.67,1100.3 1592.61,920.443 1593.54,1279.04 
  1594.47,1185.55 1595.4,1151.04 1596.34,1100.8 1597.27,881.648 1598.2,1177.69 1599.14,1208.48 1600.07,920.93 1601,1248.53 1601.93,1315.85 1602.87,1170.91 
  1603.8,1237.24 1604.73,1272.85 1605.66,1237.71 1606.6,1215.8 1607.53,1284.67 1608.46,1130.6 1609.4,1178.28 1610.33,1292.82 1611.26,1313.63 1612.19,1056.48 
  1613.13,1318.57 1614.06,1318.81 1614.99,1213.73 1615.93,959.845 1616.86,1011.6 1617.79,1121.07 1618.72,888.06 1619.66,1236.48 1620.59,1204.13 1621.52,910.147 
  1622.46,1179 1623.39,1259.85 1624.32,1274.29 1625.25,1123.45 1626.19,1015.51 1627.12,1213.71 1628.05,908.794 1628.98,869.478 1629.92,1294.53 1630.85,1228.6 
  1631.78,1180.94 1632.72,1140.28 1633.65,1083.6 1634.58,1251.71 1635.51,1286.39 1636.45,1203.62 1637.38,1295.84 1638.31,1134.08 1639.25,1233.47 1640.18,1237.35 
  1641.11,1299.3 1642.04,1173.61 1642.98,1285.46 1643.91,1321.29 1644.84,1234.23 1645.78,982.724 1646.71,1208.46 1647.64,1219.03 1648.57,1122.91 1649.51,835.965 
  1650.44,1026.67 1651.37,1224.22 1652.3,663.94 1653.24,742.034 1654.17,1114.66 1655.1,1120.07 1656.04,1092.59 1656.97,1134.82 1657.9,1295.13 1658.83,1005.61 
  1659.77,605.969 1660.7,1069.97 1661.63,1165.08 1662.57,1035.29 1663.5,1252.76 1664.43,1275.43 1665.36,1271.73 1666.3,1077.17 1667.23,1257.15 1668.16,1174.74 
  1669.09,1297.85 1670.03,1237.47 1670.96,1307.41 1671.89,1229.42 1672.83,1305.2 1673.76,1232.29 1674.69,1019.75 1675.62,1046.35 1676.56,1220.37 1677.49,1320.63 
  1678.42,1306.01 1679.36,1107.54 1680.29,1206.48 1681.22,1270.89 1682.15,1288.86 1683.09,1161.12 1684.02,1123.57 1684.95,1052.48 1685.89,628.985 1686.82,723.776 
  1687.75,1280.82 1688.68,1311.54 1689.62,1110.87 1690.55,1219.24 1691.48,1181.38 1692.41,946.001 1693.35,761.049 1694.28,1219.82 1695.21,1288.57 1696.15,1097.8 
  1697.08,1308.12 1698.01,1199.38 1698.94,1314.11 1699.88,1158.1 1700.81,1285.44 1701.74,1231.37 1702.68,1280.13 1703.61,1230.66 1704.54,1149.27 1705.47,1225.64 
  1706.41,1297.86 1707.34,1103.74 1708.27,880.742 1709.21,1152.99 1710.14,1134.28 1711.07,945.112 1712,1099.87 1712.94,1294.96 1713.87,1312.12 1714.8,1296.99 
  1715.73,1179.74 1716.67,1040.33 1717.6,1105.96 1718.53,1272.54 1719.47,1265.88 1720.4,1206.48 1721.33,1319.71 1722.26,1287.5 1723.2,1026.03 1724.13,1207 
  1725.06,1229.48 1726,1158.1 1726.93,1255.58 1727.86,1257.25 1728.79,1216.49 1729.73,1227.57 1730.66,1308.73 1731.59,1235.03 1732.52,1187.62 1733.46,1260.08 
  1734.39,1202.72 1735.32,1271.23 1736.26,1309.83 1737.19,1291.56 1738.12,1310 1739.05,1137.58 1739.99,1252.53 1740.92,1248.61 1741.85,879.38 1742.79,970.818 
  1743.72,778.665 1744.65,671.922 1745.58,1109.61 1746.52,1267.51 1747.45,1202.73 1748.38,1322.19 1749.32,1249.04 1750.25,1299.99 1751.18,1289.63 1752.11,1225.02 
  1753.05,1129.71 1753.98,1222.26 1754.91,1201.71 1755.84,1245.03 1756.78,1283.69 1757.71,1314.17 1758.64,1253.08 1759.58,1130.05 1760.51,1272.94 1761.44,1306.64 
  1762.37,1129.96 1763.31,1305.02 1764.24,1183.09 1765.17,1263.16 1766.11,1109.19 1767.04,1272.83 1767.97,1220.35 1768.9,1092.93 1769.84,1259.29 1770.77,1228.04 
  1771.7,1251 1772.64,1052.86 1773.57,1232.25 1774.5,1180.79 1775.43,409.495 1776.37,683.385 1777.3,1243.21 1778.23,1182.92 1779.16,1289.84 1780.1,1199.12 
  1781.03,1235.45 1781.96,1310.78 1782.9,758.832 1783.83,1010.17 1784.76,1239.52 1785.69,1277.88 1786.63,1252.72 1787.56,1302.3 1788.49,1159.22 1789.43,1255.59 
  1790.36,1318.36 1791.29,1241.98 1792.22,1230.56 1793.16,1280.26 1794.09,1164.23 1795.02,1318.4 1795.96,1268.98 1796.89,1286.38 1797.82,1289.23 1798.75,1316.9 
  1799.69,1063.79 1800.62,1021.15 1801.55,1116.86 1802.48,1079.22 1803.42,1245.57 1804.35,1241.8 1805.28,1324.46 1806.22,998.043 1807.15,768.76 1808.08,1046.31 
  1809.01,967.195 1809.95,1120.6 1810.88,1272.66 1811.81,1031.92 1812.75,1224.46 1813.68,1066.11 1814.61,887.434 1815.54,1132.13 1816.48,888.374 1817.41,1106.27 
  1818.34,1140.37 1819.27,1271.65 1820.21,1284.85 1821.14,1229.58 1822.07,1038.43 1823.01,1321.68 1823.94,1298.96 1824.87,1218.86 1825.8,1279.34 1826.74,1276.17 
  1827.67,1255.15 1828.6,1193.68 1829.54,1257.97 1830.47,1149.04 1831.4,1312.84 1832.33,1258.14 1833.27,1138.33 1834.2,1273.18 1835.13,1296.48 1836.07,1147.29 
  1837,1279.08 1837.93,1314.01 1838.86,1294.47 1839.8,987.172 1840.73,901.608 1841.66,1309.42 1842.59,1049.58 1843.53,1000.13 1844.46,1283.46 1845.39,1166.33 
  1846.33,1303.11 1847.26,1028.06 1848.19,796.16 1849.12,1183.88 1850.06,1161.64 1850.99,1157.55 1851.92,1040.72 1852.86,1324.69 1853.79,1292.52 1854.72,1198.14 
  1855.65,1190.7 1856.59,1243.08 1857.52,1247.68 1858.45,1165.25 1859.39,1258.3 1860.32,1086.63 1861.25,1228.63 1862.18,1162.96 1863.12,1307.1 1864.05,1252.77 
  1864.98,1216.37 1865.91,1205.3 1866.85,1293.46 1867.78,1235.69 1868.71,1028.47 1869.65,897.75 1870.58,1175.92 1871.51,1298.6 1872.44,1256.59 1873.38,1192.01 
  1874.31,1223.76 1875.24,1245.46 1876.18,871.599 1877.11,1101.37 1878.04,1302.81 1878.97,905.496 1879.91,1184.83 1880.84,1314.93 1881.77,1073.93 1882.71,1318.12 
  1883.64,1284.56 1884.57,1127.94 1885.5,1200.77 1886.44,1275.85 1887.37,1318.37 1888.3,1163.89 1889.23,1320.64 1890.17,1198.93 1891.1,1174.56 1892.03,1229.94 
  1892.97,1314.32 1893.9,1242.84 1894.83,1290.77 1895.76,1280.34 1896.7,1318.64 1897.63,1197.07 1898.56,1030.19 1899.5,928.236 1900.43,1068.33 1901.36,1205.64 
  1902.29,1290.58 1903.23,1064.11 1904.16,1126.14 1905.09,1218.51 1906.02,1101.21 1906.96,777.705 1907.89,996.393 1908.82,1284.36 1909.76,988.708 1910.69,1053.49 
  1911.62,1166.58 1912.55,1140.45 1913.49,1289.29 1914.42,1220.45 1915.35,1181.77 1916.29,1296.88 1917.22,1320 1918.15,1083.98 1919.08,1292.89 1920.02,1144.11 
  1920.95,1311.34 1921.88,1265.04 1922.82,1114.72 1923.75,1319.05 1924.68,1321.99 1925.61,1225.37 1926.55,1119.18 1927.48,1044.74 1928.41,1185.78 1929.34,1229.29 
  1930.28,1073.28 1931.21,1137.87 1932.14,1319.5 1933.08,1295.68 1934.01,1269.05 1934.94,1285.16 1935.87,1306.28 1936.81,825.709 1937.74,720.705 1938.67,820.72 
  1939.61,1286.43 1940.54,1178.32 1941.47,1043.65 1942.4,1314.52 1943.34,1164.11 1944.27,1117.36 1945.2,1227.36 1946.14,1285.37 1947.07,1288.44 1948,1133.13 
  1948.93,1291.17 1949.87,1242.71 1950.8,1218.13 1951.73,1271.02 1952.66,1251.65 1953.6,1217.72 1954.53,1251.81 1955.46,1250.87 1956.4,1042.95 1957.33,1300.73 
  1958.26,1116.06 1959.19,869.339 1960.13,1245.39 1961.06,1133.12 1961.99,996.279 1962.93,1168.02 1963.86,1116.01 1964.79,1245.25 1965.72,1276.59 1966.66,1190.91 
  1967.59,1272.14 1968.52,1062.92 1969.45,1082.73 1970.39,1065.13 1971.32,1095.52 1972.25,925.766 1973.19,1291.27 1974.12,1298.1 1975.05,1008.47 1975.98,1295.08 
  1976.92,1307.45 1977.85,1132.89 1978.78,1317.98 1979.72,1324.82 1980.65,1132.54 1981.58,1250.56 1982.51,1228.44 1983.45,1268.09 1984.38,1031.21 1985.31,1193.7 
  1986.25,1102.12 1987.18,1258.33 1988.11,1321.73 1989.04,1149.4 1989.98,951.473 1990.91,998.421 1991.84,1070.92 1992.77,1000.33 1993.71,1216.05 1994.64,875.614 
  1995.57,814.588 1996.51,1263.45 1997.44,1255.21 1998.37,1214.99 1999.3,1324.03 2000.24,1288.98 2001.17,1303.41 2002.1,1149.04 2003.04,1153.04 2003.97,1238.92 
  2004.9,1158.44 2005.83,987.402 2006.77,1157.65 2007.7,1305.4 2008.63,1218.41 2009.57,1323.91 2010.5,1157.76 2011.43,1183.98 2012.36,1246.91 2013.3,1317.94 
  2014.23,1101.5 2015.16,1272.31 2016.09,981.303 2017.03,1209.5 2017.96,1234.82 2018.89,1065.06 2019.83,994.191 2020.76,1213.97 2021.69,1176.36 2022.62,657.719 
  2023.56,515.767 2024.49,947.574 2025.42,1079.05 2026.36,651.893 2027.29,925.614 2028.22,1237.62 2029.15,1303.92 2030.09,1295.98 2031.02,1189.9 2031.95,1145.66 
  2032.89,1292.5 2033.82,1201.36 2034.75,1074.06 2035.68,1292.05 2036.62,1303.21 2037.55,1219.27 2038.48,1159.18 2039.41,1222.53 2040.35,1044.12 2041.28,1307.34 
  2042.21,1279.55 2043.15,1274.93 2044.08,1072.5 2045.01,1266.14 2045.94,1213.73 2046.88,1212.94 2047.81,1231.1 2048.74,1237.09 2049.68,1234.22 2050.61,1309.76 
  2051.54,1243.45 2052.47,907.798 2053.41,754.671 2054.34,964.965 2055.27,1197.55 2056.2,1133.59 2057.14,844.964 2058.07,831.989 2059,865.893 2059.94,822.802 
  2060.87,1200.52 2061.8,1313.45 2062.73,1193.27 2063.67,1306.61 2064.6,1280.72 2065.53,958.865 2066.47,1134.43 2067.4,1283.95 2068.33,1118.24 2069.26,1298.81 
  2070.2,1186.88 2071.13,1285.03 2072.06,1209.05 2073,1239.73 2073.93,979.552 2074.86,1305.44 2075.79,1306.38 2076.73,1100.63 2077.66,1156.25 2078.59,1220.61 
  2079.52,1266.8 2080.46,1148.04 2081.39,1089.13 2082.32,1009.43 2083.26,1264.59 2084.19,1193.33 2085.12,1156.26 2086.05,1315.46 2086.99,1270.49 2087.92,1276.08 
  2088.85,1298.68 2089.79,1129.54 2090.72,828.561 2091.65,990.888 2092.58,1248.61 2093.52,1291.82 2094.45,1265.18 2095.38,1320.76 2096.32,1298.83 2097.25,1218.96 
  2098.18,1295.67 2099.11,1157.86 2100.05,1193.41 2100.98,1299.2 2101.91,1224.8 2102.84,1287.46 2103.78,1086.24 2104.71,1308.2 2105.64,1317.25 2106.58,1089.48 
  2107.51,1234.38 2108.44,1291.38 2109.37,1277.74 2110.31,1062.47 2111.24,1157.11 2112.17,1105.98 2113.11,1065.19 2114.04,1304.93 2114.97,1264.93 2115.9,1060.51 
  2116.84,1256.42 2117.77,1211.56 2118.7,1224.95 2119.64,1269.94 2120.57,1098.68 2121.5,1157.41 2122.43,1233.66 2123.37,1305.79 2124.3,1316.67 2125.23,1278.76 
  2126.16,1294.02 2127.1,1283.8 2128.03,1223.37 2128.96,1319.73 2129.9,1311.83 2130.83,1111.89 2131.76,1290.11 2132.69,1310.35 2133.63,1215.89 2134.56,1228.61 
  2135.49,1301.82 2136.43,1092.86 2137.36,1209.08 2138.29,1227.85 2139.22,1174.75 2140.16,950.786 2141.09,1306.64 2142.02,1161.24 2142.95,1091.38 2143.89,1287.1 
  2144.82,1224.8 2145.75,1322.99 2146.69,1137.13 2147.62,1301.92 2148.55,1188.32 2149.48,870.598 2150.42,1174.07 2151.35,1316.19 2152.28,1253.45 2153.22,1212.64 
  2154.15,1090.47 2155.08,1236.33 2156.01,1260.18 2156.95,1080.15 2157.88,1257.95 2158.81,1156.64 2159.75,1290.86 2160.68,1290.18 2161.61,1194.6 2162.54,1275.21 
  2163.48,1304.99 2164.41,1179.21 2165.34,1305.23 2166.27,1130.04 2167.21,1278.53 2168.14,1229.79 2169.07,1267.37 2170.01,968.074 2170.94,1208.17 2171.87,1271.27 
  2172.8,925.962 2173.74,879.128 2174.67,1126.52 2175.6,1274.84 2176.54,1241 2177.47,1111.23 2178.4,910.342 2179.33,1311.11 2180.27,1119.16 2181.2,1015.08 
  2182.13,1197.67 2183.07,1256.85 2184,1288.55 2184.93,1171.88 2185.86,1138.04 2186.8,1208.02 2187.73,991.025 2188.66,818.694 2189.59,980.69 2190.53,811.602 
  2191.46,1311.45 2192.39,1294.64 2193.33,1255.04 2194.26,1217.73 2195.19,1308.83 2196.12,1240.53 2197.06,1246.22 2197.99,1224.25 2198.92,1296.89 2199.86,1065.8 
  2200.79,1293.85 
  "/>
</svg>
