<?xml version="1.0" encoding="utf-8"?>
<svg xmlns="http://www.w3.org/2000/svg" xmlns:xlink="http://www.w3.org/1999/xlink" width="576" height="384" viewBox="0 0 2304 1536">
<defs>
  <clipPath id="clip850">
    <rect x="0" y="0" width="2304" height="1536"/>
  </clipPath>
</defs>
<path clip-path="url(#clip850)" d="
M0 1536 L2304 1536 L2304 0 L0 0  Z
  " fill="#ffffff" fill-rule="evenodd" fill-opacity="1"/>
<defs>
  <clipPath id="clip851">
    <rect x="460" y="0" width="1614" height="1536"/>
  </clipPath>
</defs>
<defs>
  <clipPath id="clip852">
    <rect x="264" y="123" width="1994" height="1241"/>
  </clipPath>
</defs>
<path clip-path="url(#clip850)" d="
M261.908 1359.82 L2256.76 1359.82 L2256.76 123.472 L261.908 123.472  Z
  " fill="#ffffff" fill-rule="evenodd" fill-opacity="1"/>
<defs>
  <clipPath id="clip853">
    <rect x="261" y="123" width="1996" height="1237"/>
  </clipPath>
</defs>
<polyline clip-path="url(#clip853)" style="stroke:#000000; stroke-width:2; stroke-opacity:0.1; fill:none" points="
  318.366,1359.82 318.366,123.472 
  "/>
<polyline clip-path="url(#clip853)" style="stroke:#000000; stroke-width:2; stroke-opacity:0.1; fill:none" points="
  695.134,1359.82 695.134,123.472 
  "/>
<polyline clip-path="url(#clip853)" style="stroke:#000000; stroke-width:2; stroke-opacity:0.1; fill:none" points="
  1071.9,1359.82 1071.9,123.472 
  "/>
<polyline clip-path="url(#clip853)" style="stroke:#000000; stroke-width:2; stroke-opacity:0.1; fill:none" points="
  1448.67,1359.82 1448.67,123.472 
  "/>
<polyline clip-path="url(#clip853)" style="stroke:#000000; stroke-width:2; stroke-opacity:0.1; fill:none" points="
  1825.44,1359.82 1825.44,123.472 
  "/>
<polyline clip-path="url(#clip853)" style="stroke:#000000; stroke-width:2; stroke-opacity:0.1; fill:none" points="
  2202.2,1359.82 2202.2,123.472 
  "/>
<polyline clip-path="url(#clip850)" style="stroke:#000000; stroke-width:4; stroke-opacity:1; fill:none" points="
  261.908,1359.82 2256.76,1359.82 
  "/>
<polyline clip-path="url(#clip850)" style="stroke:#000000; stroke-width:4; stroke-opacity:1; fill:none" points="
  318.366,1359.82 318.366,1344.98 
  "/>
<polyline clip-path="url(#clip850)" style="stroke:#000000; stroke-width:4; stroke-opacity:1; fill:none" points="
  695.134,1359.82 695.134,1344.98 
  "/>
<polyline clip-path="url(#clip850)" style="stroke:#000000; stroke-width:4; stroke-opacity:1; fill:none" points="
  1071.9,1359.82 1071.9,1344.98 
  "/>
<polyline clip-path="url(#clip850)" style="stroke:#000000; stroke-width:4; stroke-opacity:1; fill:none" points="
  1448.67,1359.82 1448.67,1344.98 
  "/>
<polyline clip-path="url(#clip850)" style="stroke:#000000; stroke-width:4; stroke-opacity:1; fill:none" points="
  1825.44,1359.82 1825.44,1344.98 
  "/>
<polyline clip-path="url(#clip850)" style="stroke:#000000; stroke-width:4; stroke-opacity:1; fill:none" points="
  2202.2,1359.82 2202.2,1344.98 
  "/>
<path clip-path="url(#clip850)" d="M 0 0 M318.366 1388.24 Q314.755 1388.24 312.927 1391.81 Q311.121 1395.35 311.121 1402.48 Q311.121 1409.59 312.927 1413.15 Q314.755 1416.69 318.366 1416.69 Q322.001 1416.69 323.806 1413.15 Q325.635 1409.59 325.635 1402.48 Q325.635 1395.35 323.806 1391.81 Q322.001 1388.24 318.366 1388.24 M318.366 1384.54 Q324.177 1384.54 327.232 1389.15 Q330.311 1393.73 330.311 1402.48 Q330.311 1411.21 327.232 1415.81 Q324.177 1420.4 318.366 1420.4 Q312.556 1420.4 309.478 1415.81 Q306.422 1411.21 306.422 1402.48 Q306.422 1393.73 309.478 1389.15 Q312.556 1384.54 318.366 1384.54 Z" fill="#000000" fill-rule="evenodd" fill-opacity="1" /><path clip-path="url(#clip850)" d="M 0 0 M669.821 1415.79 L677.46 1415.79 L677.46 1389.42 L669.15 1391.09 L669.15 1386.83 L677.414 1385.16 L682.09 1385.16 L682.09 1415.79 L689.729 1415.79 L689.729 1419.72 L669.821 1419.72 L669.821 1415.79 Z" fill="#000000" fill-rule="evenodd" fill-opacity="1" /><path clip-path="url(#clip850)" d="M 0 0 M709.173 1388.24 Q705.562 1388.24 703.733 1391.81 Q701.928 1395.35 701.928 1402.48 Q701.928 1409.59 703.733 1413.15 Q705.562 1416.69 709.173 1416.69 Q712.807 1416.69 714.613 1413.15 Q716.441 1409.59 716.441 1402.48 Q716.441 1395.35 714.613 1391.81 Q712.807 1388.24 709.173 1388.24 M709.173 1384.54 Q714.983 1384.54 718.039 1389.15 Q721.117 1393.73 721.117 1402.48 Q721.117 1411.21 718.039 1415.81 Q714.983 1420.4 709.173 1420.4 Q703.363 1420.4 700.284 1415.81 Q697.229 1411.21 697.229 1402.48 Q697.229 1393.73 700.284 1389.15 Q703.363 1384.54 709.173 1384.54 Z" fill="#000000" fill-rule="evenodd" fill-opacity="1" /><path clip-path="url(#clip850)" d="M 0 0 M1050.67 1415.79 L1066.99 1415.79 L1066.99 1419.72 L1045.05 1419.72 L1045.05 1415.79 Q1047.71 1413.03 1052.29 1408.4 Q1056.9 1403.75 1058.08 1402.41 Q1060.33 1399.89 1061.21 1398.15 Q1062.11 1396.39 1062.11 1394.7 Q1062.11 1391.95 1060.16 1390.21 Q1058.24 1388.47 1055.14 1388.47 Q1052.94 1388.47 1050.49 1389.24 Q1048.06 1390 1045.28 1391.55 L1045.28 1386.83 Q1048.1 1385.7 1050.56 1385.12 Q1053.01 1384.54 1055.05 1384.54 Q1060.42 1384.54 1063.61 1387.22 Q1066.81 1389.91 1066.81 1394.4 Q1066.81 1396.53 1066 1398.45 Q1065.21 1400.35 1063.1 1402.94 Q1062.53 1403.61 1059.42 1406.83 Q1056.32 1410.02 1050.67 1415.79 Z" fill="#000000" fill-rule="evenodd" fill-opacity="1" /><path clip-path="url(#clip850)" d="M 0 0 M1086.81 1388.24 Q1083.2 1388.24 1081.37 1391.81 Q1079.56 1395.35 1079.56 1402.48 Q1079.56 1409.59 1081.37 1413.15 Q1083.2 1416.69 1086.81 1416.69 Q1090.44 1416.69 1092.25 1413.15 Q1094.08 1409.59 1094.08 1402.48 Q1094.08 1395.35 1092.25 1391.81 Q1090.44 1388.24 1086.81 1388.24 M1086.81 1384.54 Q1092.62 1384.54 1095.67 1389.15 Q1098.75 1393.73 1098.75 1402.48 Q1098.75 1411.21 1095.67 1415.81 Q1092.62 1420.4 1086.81 1420.4 Q1081 1420.4 1077.92 1415.81 Q1074.86 1411.21 1074.86 1402.48 Q1074.86 1393.73 1077.92 1389.15 Q1081 1384.54 1086.81 1384.54 Z" fill="#000000" fill-rule="evenodd" fill-opacity="1" /><path clip-path="url(#clip850)" d="M 0 0 M1437.51 1401.09 Q1440.87 1401.81 1442.74 1404.08 Q1444.64 1406.34 1444.64 1409.68 Q1444.64 1414.79 1441.12 1417.59 Q1437.6 1420.4 1431.12 1420.4 Q1428.95 1420.4 1426.63 1419.96 Q1424.34 1419.54 1421.89 1418.68 L1421.89 1414.17 Q1423.83 1415.3 1426.15 1415.88 Q1428.46 1416.46 1430.98 1416.46 Q1435.38 1416.46 1437.67 1414.72 Q1439.99 1412.99 1439.99 1409.68 Q1439.99 1406.62 1437.83 1404.91 Q1435.71 1403.17 1431.89 1403.17 L1427.86 1403.17 L1427.86 1399.33 L1432.07 1399.33 Q1435.52 1399.33 1437.35 1397.96 Q1439.18 1396.58 1439.18 1393.98 Q1439.18 1391.32 1437.28 1389.91 Q1435.4 1388.47 1431.89 1388.47 Q1429.96 1388.47 1427.77 1388.89 Q1425.57 1389.31 1422.93 1390.19 L1422.93 1386.02 Q1425.59 1385.28 1427.9 1384.91 Q1430.24 1384.54 1432.3 1384.54 Q1437.63 1384.54 1440.73 1386.97 Q1443.83 1389.38 1443.83 1393.5 Q1443.83 1396.37 1442.19 1398.36 Q1440.54 1400.33 1437.51 1401.09 Z" fill="#000000" fill-rule="evenodd" fill-opacity="1" /><path clip-path="url(#clip850)" d="M 0 0 M1463.51 1388.24 Q1459.89 1388.24 1458.07 1391.81 Q1456.26 1395.35 1456.26 1402.48 Q1456.26 1409.59 1458.07 1413.15 Q1459.89 1416.69 1463.51 1416.69 Q1467.14 1416.69 1468.95 1413.15 Q1470.77 1409.59 1470.77 1402.48 Q1470.77 1395.35 1468.95 1391.81 Q1467.14 1388.24 1463.51 1388.24 M1463.51 1384.54 Q1469.32 1384.54 1472.37 1389.15 Q1475.45 1393.73 1475.45 1402.48 Q1475.45 1411.21 1472.37 1415.81 Q1469.32 1420.4 1463.51 1420.4 Q1457.7 1420.4 1454.62 1415.81 Q1451.56 1411.21 1451.56 1402.48 Q1451.56 1393.73 1454.62 1389.15 Q1457.7 1384.54 1463.51 1384.54 Z" fill="#000000" fill-rule="evenodd" fill-opacity="1" /><path clip-path="url(#clip850)" d="M 0 0 M1813.61 1389.24 L1801.8 1407.69 L1813.61 1407.69 L1813.61 1389.24 M1812.38 1385.16 L1818.26 1385.16 L1818.26 1407.69 L1823.19 1407.69 L1823.19 1411.58 L1818.26 1411.58 L1818.26 1419.72 L1813.61 1419.72 L1813.61 1411.58 L1798.01 1411.58 L1798.01 1407.06 L1812.38 1385.16 Z" fill="#000000" fill-rule="evenodd" fill-opacity="1" /><path clip-path="url(#clip850)" d="M 0 0 M1840.92 1388.24 Q1837.31 1388.24 1835.48 1391.81 Q1833.68 1395.35 1833.68 1402.48 Q1833.68 1409.59 1835.48 1413.15 Q1837.31 1416.69 1840.92 1416.69 Q1844.56 1416.69 1846.36 1413.15 Q1848.19 1409.59 1848.19 1402.48 Q1848.19 1395.35 1846.36 1391.81 Q1844.56 1388.24 1840.92 1388.24 M1840.92 1384.54 Q1846.73 1384.54 1849.79 1389.15 Q1852.87 1393.73 1852.87 1402.48 Q1852.87 1411.21 1849.79 1415.81 Q1846.73 1420.4 1840.92 1420.4 Q1835.11 1420.4 1832.03 1415.81 Q1828.98 1411.21 1828.98 1402.48 Q1828.98 1393.73 1832.03 1389.15 Q1835.11 1384.54 1840.92 1384.54 Z" fill="#000000" fill-rule="evenodd" fill-opacity="1" /><path clip-path="url(#clip850)" d="M 0 0 M2176.9 1385.16 L2195.26 1385.16 L2195.26 1389.1 L2181.18 1389.1 L2181.18 1397.57 Q2182.2 1397.22 2183.22 1397.06 Q2184.24 1396.88 2185.26 1396.88 Q2191.05 1396.88 2194.43 1400.05 Q2197.8 1403.22 2197.8 1408.64 Q2197.8 1414.21 2194.33 1417.32 Q2190.86 1420.4 2184.54 1420.4 Q2182.36 1420.4 2180.1 1420.02 Q2177.85 1419.65 2175.44 1418.91 L2175.44 1414.21 Q2177.53 1415.35 2179.75 1415.9 Q2181.97 1416.46 2184.45 1416.46 Q2188.45 1416.46 2190.79 1414.35 Q2193.13 1412.25 2193.13 1408.64 Q2193.13 1405.02 2190.79 1402.92 Q2188.45 1400.81 2184.45 1400.81 Q2182.57 1400.81 2180.7 1401.23 Q2178.85 1401.65 2176.9 1402.52 L2176.9 1385.16 Z" fill="#000000" fill-rule="evenodd" fill-opacity="1" /><path clip-path="url(#clip850)" d="M 0 0 M2217.02 1388.24 Q2213.41 1388.24 2211.58 1391.81 Q2209.77 1395.35 2209.77 1402.48 Q2209.77 1409.59 2211.58 1413.15 Q2213.41 1416.69 2217.02 1416.69 Q2220.65 1416.69 2222.46 1413.15 Q2224.29 1409.59 2224.29 1402.48 Q2224.29 1395.35 2222.46 1391.81 Q2220.65 1388.24 2217.02 1388.24 M2217.02 1384.54 Q2222.83 1384.54 2225.88 1389.15 Q2228.96 1393.73 2228.96 1402.48 Q2228.96 1411.21 2225.88 1415.81 Q2222.83 1420.4 2217.02 1420.4 Q2211.21 1420.4 2208.13 1415.81 Q2205.07 1411.21 2205.07 1402.48 Q2205.07 1393.73 2208.13 1389.15 Q2211.21 1384.54 2217.02 1384.54 Z" fill="#000000" fill-rule="evenodd" fill-opacity="1" /><path clip-path="url(#clip850)" d="M 0 0 M1019.44 1453.72 L1019.44 1458.59 L1013.84 1458.59 Q1010.69 1458.59 1009.45 1459.86 Q1008.24 1461.13 1008.24 1464.44 L1008.24 1467.6 L1017.88 1467.6 L1017.88 1472.15 L1008.24 1472.15 L1008.24 1503.24 L1002.35 1503.24 L1002.35 1472.15 L996.747 1472.15 L996.747 1467.6 L1002.35 1467.6 L1002.35 1465.11 Q1002.35 1459.16 1005.12 1456.46 Q1007.89 1453.72 1013.9 1453.72 L1019.44 1453.72 Z" fill="#000000" fill-rule="evenodd" fill-opacity="1" /><path clip-path="url(#clip850)" d="M 0 0 M1045 1473.07 Q1044.01 1472.5 1042.83 1472.24 Q1041.69 1471.96 1040.29 1471.96 Q1035.32 1471.96 1032.65 1475.2 Q1030.01 1478.42 1030.01 1484.47 L1030.01 1503.24 L1024.12 1503.24 L1024.12 1467.6 L1030.01 1467.6 L1030.01 1473.13 Q1031.85 1469.89 1034.81 1468.33 Q1037.77 1466.74 1042.01 1466.74 Q1042.61 1466.74 1043.34 1466.83 Q1044.08 1466.9 1044.97 1467.05 L1045 1473.07 Z" fill="#000000" fill-rule="evenodd" fill-opacity="1" /><path clip-path="url(#clip850)" d="M 0 0 M1080.2 1483.96 L1080.2 1486.82 L1053.27 1486.82 Q1053.66 1492.87 1056.9 1496.05 Q1060.18 1499.2 1066.01 1499.2 Q1069.38 1499.2 1072.53 1498.37 Q1075.71 1497.55 1078.83 1495.89 L1078.83 1501.43 Q1075.68 1502.77 1072.37 1503.47 Q1069.06 1504.17 1065.66 1504.17 Q1057.13 1504.17 1052.13 1499.2 Q1047.16 1494.24 1047.16 1485.77 Q1047.16 1477.02 1051.87 1471.89 Q1056.62 1466.74 1064.64 1466.74 Q1071.83 1466.74 1076 1471.38 Q1080.2 1476 1080.2 1483.96 M1074.34 1482.24 Q1074.28 1477.43 1071.64 1474.57 Q1069.03 1471.7 1064.7 1471.7 Q1059.8 1471.7 1056.84 1474.47 Q1053.91 1477.24 1053.47 1482.27 L1074.34 1482.24 Z" fill="#000000" fill-rule="evenodd" fill-opacity="1" /><path clip-path="url(#clip850)" d="M 0 0 M1093.31 1485.45 Q1093.31 1491.91 1095.96 1495.6 Q1098.63 1499.27 1103.28 1499.27 Q1107.92 1499.27 1110.6 1495.6 Q1113.27 1491.91 1113.27 1485.45 Q1113.27 1478.99 1110.6 1475.33 Q1107.92 1471.64 1103.28 1471.64 Q1098.63 1471.64 1095.96 1475.33 Q1093.31 1478.99 1093.31 1485.45 M1113.27 1497.9 Q1111.42 1501.08 1108.59 1502.64 Q1105.79 1504.17 1101.84 1504.17 Q1095.38 1504.17 1091.31 1499.01 Q1087.27 1493.85 1087.27 1485.45 Q1087.27 1477.05 1091.31 1471.89 Q1095.38 1466.74 1101.84 1466.74 Q1105.79 1466.74 1108.59 1468.3 Q1111.42 1469.82 1113.27 1473.01 L1113.27 1467.6 L1119.13 1467.6 L1119.13 1516.8 L1113.27 1516.8 L1113.27 1497.9 Z" fill="#000000" fill-rule="evenodd" fill-opacity="1" /><path clip-path="url(#clip850)" d="M 0 0 M1130.59 1489.18 L1130.59 1467.6 L1136.44 1467.6 L1136.44 1488.95 Q1136.44 1494.01 1138.42 1496.56 Q1140.39 1499.07 1144.34 1499.07 Q1149.08 1499.07 1151.82 1496.05 Q1154.58 1493.03 1154.58 1487.81 L1154.58 1467.6 L1160.44 1467.6 L1160.44 1503.24 L1154.58 1503.24 L1154.58 1497.77 Q1152.45 1501.02 1149.62 1502.61 Q1146.82 1504.17 1143.09 1504.17 Q1136.95 1504.17 1133.77 1500.35 Q1130.59 1496.53 1130.59 1489.18 M1145.32 1466.74 L1145.32 1466.74 Z" fill="#000000" fill-rule="evenodd" fill-opacity="1" /><path clip-path="url(#clip850)" d="M 0 0 M1203 1483.96 L1203 1486.82 L1176.07 1486.82 Q1176.45 1492.87 1179.7 1496.05 Q1182.98 1499.2 1188.8 1499.2 Q1192.17 1499.2 1195.32 1498.37 Q1198.51 1497.55 1201.63 1495.89 L1201.63 1501.43 Q1198.48 1502.77 1195.17 1503.47 Q1191.86 1504.17 1188.45 1504.17 Q1179.92 1504.17 1174.92 1499.2 Q1169.96 1494.24 1169.96 1485.77 Q1169.96 1477.02 1174.67 1471.89 Q1179.41 1466.74 1187.43 1466.74 Q1194.62 1466.74 1198.79 1471.38 Q1203 1476 1203 1483.96 M1197.14 1482.24 Q1197.08 1477.43 1194.43 1474.57 Q1191.82 1471.7 1187.5 1471.7 Q1182.59 1471.7 1179.63 1474.47 Q1176.71 1477.24 1176.26 1482.27 L1197.14 1482.24 Z" fill="#000000" fill-rule="evenodd" fill-opacity="1" /><path clip-path="url(#clip850)" d="M 0 0 M1242.24 1481.73 L1242.24 1503.24 L1236.38 1503.24 L1236.38 1481.92 Q1236.38 1476.86 1234.41 1474.34 Q1232.44 1471.83 1228.49 1471.83 Q1223.75 1471.83 1221.01 1474.85 Q1218.27 1477.88 1218.27 1483.1 L1218.27 1503.24 L1212.39 1503.24 L1212.39 1467.6 L1218.27 1467.6 L1218.27 1473.13 Q1220.37 1469.92 1223.21 1468.33 Q1226.07 1466.74 1229.8 1466.74 Q1235.94 1466.74 1239.09 1470.56 Q1242.24 1474.34 1242.24 1481.73 Z" fill="#000000" fill-rule="evenodd" fill-opacity="1" /><path clip-path="url(#clip850)" d="M 0 0 M1279.58 1468.96 L1279.58 1474.44 Q1277.09 1473.07 1274.58 1472.4 Q1272.1 1471.7 1269.55 1471.7 Q1263.85 1471.7 1260.7 1475.33 Q1257.55 1478.93 1257.55 1485.45 Q1257.55 1491.98 1260.7 1495.6 Q1263.85 1499.2 1269.55 1499.2 Q1272.1 1499.2 1274.58 1498.53 Q1277.09 1497.83 1279.58 1496.46 L1279.58 1501.88 Q1277.12 1503.02 1274.48 1503.59 Q1271.87 1504.17 1268.91 1504.17 Q1260.86 1504.17 1256.12 1499.11 Q1251.38 1494.05 1251.38 1485.45 Q1251.38 1476.73 1256.15 1471.73 Q1260.96 1466.74 1269.29 1466.74 Q1272 1466.74 1274.58 1467.31 Q1277.16 1467.85 1279.58 1468.96 Z" fill="#000000" fill-rule="evenodd" fill-opacity="1" /><path clip-path="url(#clip850)" d="M 0 0 M1304.59 1506.55 Q1302.11 1512.92 1299.75 1514.86 Q1297.4 1516.8 1293.45 1516.8 L1288.77 1516.8 L1288.77 1511.9 L1292.21 1511.9 Q1294.63 1511.9 1295.97 1510.76 Q1297.3 1509.61 1298.93 1505.34 L1299.98 1502.67 L1285.56 1467.6 L1291.77 1467.6 L1302.91 1495.48 L1314.05 1467.6 L1320.25 1467.6 L1304.59 1506.55 Z" fill="#000000" fill-rule="evenodd" fill-opacity="1" /><path clip-path="url(#clip850)" d="M 0 0 M1363.13 1453.78 Q1358.86 1461.1 1356.79 1468.26 Q1354.72 1475.43 1354.72 1482.78 Q1354.72 1490.13 1356.79 1497.36 Q1358.89 1504.55 1363.13 1511.84 L1358.03 1511.84 Q1353.26 1504.36 1350.87 1497.13 Q1348.52 1489.91 1348.52 1482.78 Q1348.52 1475.68 1350.87 1468.49 Q1353.23 1461.29 1358.03 1453.78 L1363.13 1453.78 Z" fill="#000000" fill-rule="evenodd" fill-opacity="1" /><path clip-path="url(#clip850)" d="M 0 0 M1407.14 1496.46 L1407.14 1483.7 L1396.64 1483.7 L1396.64 1478.42 L1413.51 1478.42 L1413.51 1498.82 Q1409.79 1501.46 1405.3 1502.83 Q1400.81 1504.17 1395.72 1504.17 Q1384.58 1504.17 1378.28 1497.67 Q1372.01 1491.15 1372.01 1479.53 Q1372.01 1467.88 1378.28 1461.39 Q1384.58 1454.86 1395.72 1454.86 Q1400.36 1454.86 1404.53 1456.01 Q1408.74 1457.16 1412.27 1459.38 L1412.27 1466.23 Q1408.7 1463.2 1404.69 1461.68 Q1400.68 1460.15 1396.26 1460.15 Q1387.54 1460.15 1383.15 1465.02 Q1378.78 1469.89 1378.78 1479.53 Q1378.78 1489.14 1383.15 1494.01 Q1387.54 1498.88 1396.26 1498.88 Q1399.66 1498.88 1402.34 1498.31 Q1405.01 1497.71 1407.14 1496.46 Z" fill="#000000" fill-rule="evenodd" fill-opacity="1" /><path clip-path="url(#clip850)" d="M 0 0 M1425.25 1455.72 L1431.68 1455.72 L1431.68 1475.2 L1455.05 1475.2 L1455.05 1455.72 L1461.48 1455.72 L1461.48 1503.24 L1455.05 1503.24 L1455.05 1480.61 L1431.68 1480.61 L1431.68 1503.24 L1425.25 1503.24 L1425.25 1455.72 Z" fill="#000000" fill-rule="evenodd" fill-opacity="1" /><path clip-path="url(#clip850)" d="M 0 0 M1471.47 1467.6 L1499.29 1467.6 L1499.29 1472.94 L1477.26 1498.57 L1499.29 1498.57 L1499.29 1503.24 L1470.67 1503.24 L1470.67 1497.9 L1492.7 1472.27 L1471.47 1472.27 L1471.47 1467.6 Z" fill="#000000" fill-rule="evenodd" fill-opacity="1" /><path clip-path="url(#clip850)" d="M 0 0 M1507.31 1453.78 L1512.4 1453.78 Q1517.18 1461.29 1519.53 1468.49 Q1521.92 1475.68 1521.92 1482.78 Q1521.92 1489.91 1519.53 1497.13 Q1517.18 1504.36 1512.4 1511.84 L1507.31 1511.84 Q1511.54 1504.55 1513.61 1497.36 Q1515.71 1490.13 1515.71 1482.78 Q1515.71 1475.43 1513.61 1468.26 Q1511.54 1461.1 1507.31 1453.78 Z" fill="#000000" fill-rule="evenodd" fill-opacity="1" /><polyline clip-path="url(#clip853)" style="stroke:#000000; stroke-width:2; stroke-opacity:0.1; fill:none" points="
  261.908,1324.83 2256.76,1324.83 
  "/>
<polyline clip-path="url(#clip853)" style="stroke:#000000; stroke-width:2; stroke-opacity:0.1; fill:none" points="
  261.908,1071 2256.76,1071 
  "/>
<polyline clip-path="url(#clip853)" style="stroke:#000000; stroke-width:2; stroke-opacity:0.1; fill:none" points="
  261.908,817.172 2256.76,817.172 
  "/>
<polyline clip-path="url(#clip853)" style="stroke:#000000; stroke-width:2; stroke-opacity:0.1; fill:none" points="
  261.908,563.343 2256.76,563.343 
  "/>
<polyline clip-path="url(#clip853)" style="stroke:#000000; stroke-width:2; stroke-opacity:0.1; fill:none" points="
  261.908,309.514 2256.76,309.514 
  "/>
<polyline clip-path="url(#clip850)" style="stroke:#000000; stroke-width:4; stroke-opacity:1; fill:none" points="
  261.908,1359.82 261.908,123.472 
  "/>
<polyline clip-path="url(#clip850)" style="stroke:#000000; stroke-width:4; stroke-opacity:1; fill:none" points="
  261.908,1324.83 285.847,1324.83 
  "/>
<polyline clip-path="url(#clip850)" style="stroke:#000000; stroke-width:4; stroke-opacity:1; fill:none" points="
  261.908,1071 285.847,1071 
  "/>
<polyline clip-path="url(#clip850)" style="stroke:#000000; stroke-width:4; stroke-opacity:1; fill:none" points="
  261.908,817.172 285.847,817.172 
  "/>
<polyline clip-path="url(#clip850)" style="stroke:#000000; stroke-width:4; stroke-opacity:1; fill:none" points="
  261.908,563.343 285.847,563.343 
  "/>
<polyline clip-path="url(#clip850)" style="stroke:#000000; stroke-width:4; stroke-opacity:1; fill:none" points="
  261.908,309.514 285.847,309.514 
  "/>
<path clip-path="url(#clip850)" d="M 0 0 M170.173 1310.63 Q166.562 1310.63 164.733 1314.19 Q162.927 1317.73 162.927 1324.86 Q162.927 1331.97 164.733 1335.53 Q166.562 1339.08 170.173 1339.08 Q173.807 1339.08 175.613 1335.53 Q177.441 1331.97 177.441 1324.86 Q177.441 1317.73 175.613 1314.19 Q173.807 1310.63 170.173 1310.63 M170.173 1306.92 Q175.983 1306.92 179.039 1311.53 Q182.117 1316.11 182.117 1324.86 Q182.117 1333.59 179.039 1338.2 Q175.983 1342.78 170.173 1342.78 Q164.363 1342.78 161.284 1338.2 Q158.228 1333.59 158.228 1324.86 Q158.228 1316.11 161.284 1311.53 Q164.363 1306.92 170.173 1306.92 Z" fill="#000000" fill-rule="evenodd" fill-opacity="1" /><path clip-path="url(#clip850)" d="M 0 0 M190.335 1336.23 L195.219 1336.23 L195.219 1342.11 L190.335 1342.11 L190.335 1336.23 Z" fill="#000000" fill-rule="evenodd" fill-opacity="1" /><path clip-path="url(#clip850)" d="M 0 0 M215.404 1310.63 Q211.793 1310.63 209.964 1314.19 Q208.159 1317.73 208.159 1324.86 Q208.159 1331.97 209.964 1335.53 Q211.793 1339.08 215.404 1339.08 Q219.038 1339.08 220.844 1335.53 Q222.673 1331.97 222.673 1324.86 Q222.673 1317.73 220.844 1314.19 Q219.038 1310.63 215.404 1310.63 M215.404 1306.92 Q221.214 1306.92 224.27 1311.53 Q227.348 1316.11 227.348 1324.86 Q227.348 1333.59 224.27 1338.2 Q221.214 1342.78 215.404 1342.78 Q209.594 1342.78 206.515 1338.2 Q203.46 1333.59 203.46 1324.86 Q203.46 1316.11 206.515 1311.53 Q209.594 1306.92 215.404 1306.92 Z" fill="#000000" fill-rule="evenodd" fill-opacity="1" /><path clip-path="url(#clip850)" d="M 0 0 M165.196 1084.35 L181.515 1084.35 L181.515 1088.28 L159.571 1088.28 L159.571 1084.35 Q162.233 1081.59 166.816 1076.96 Q171.423 1072.31 172.603 1070.97 Q174.849 1068.44 175.728 1066.71 Q176.631 1064.95 176.631 1063.26 Q176.631 1060.5 174.687 1058.77 Q172.765 1057.03 169.664 1057.03 Q167.465 1057.03 165.011 1057.79 Q162.58 1058.56 159.803 1060.11 L159.803 1055.39 Q162.627 1054.25 165.08 1053.67 Q167.534 1053.1 169.571 1053.1 Q174.941 1053.1 178.136 1055.78 Q181.33 1058.47 181.33 1062.96 Q181.33 1065.09 180.52 1067.01 Q179.733 1068.91 177.626 1071.5 Q177.048 1072.17 173.946 1075.39 Q170.844 1078.58 165.196 1084.35 Z" fill="#000000" fill-rule="evenodd" fill-opacity="1" /><path clip-path="url(#clip850)" d="M 0 0 M191.33 1082.4 L196.214 1082.4 L196.214 1088.28 L191.33 1088.28 L191.33 1082.4 Z" fill="#000000" fill-rule="evenodd" fill-opacity="1" /><path clip-path="url(#clip850)" d="M 0 0 M206.446 1053.72 L224.802 1053.72 L224.802 1057.66 L210.728 1057.66 L210.728 1066.13 Q211.747 1065.78 212.765 1065.62 Q213.784 1065.43 214.802 1065.43 Q220.589 1065.43 223.969 1068.6 Q227.348 1071.78 227.348 1077.19 Q227.348 1082.77 223.876 1085.87 Q220.404 1088.95 214.085 1088.95 Q211.909 1088.95 209.64 1088.58 Q207.395 1088.21 204.987 1087.47 L204.987 1082.77 Q207.071 1083.91 209.293 1084.46 Q211.515 1085.02 213.992 1085.02 Q217.997 1085.02 220.335 1082.91 Q222.673 1080.8 222.673 1077.19 Q222.673 1073.58 220.335 1071.47 Q217.997 1069.37 213.992 1069.37 Q212.117 1069.37 210.242 1069.78 Q208.39 1070.2 206.446 1071.08 L206.446 1053.72 Z" fill="#000000" fill-rule="evenodd" fill-opacity="1" /><path clip-path="url(#clip850)" d="M 0 0 M160.219 799.892 L178.576 799.892 L178.576 803.827 L164.502 803.827 L164.502 812.299 Q165.52 811.952 166.539 811.79 Q167.557 811.605 168.576 811.605 Q174.363 811.605 177.742 814.776 Q181.122 817.947 181.122 823.364 Q181.122 828.942 177.65 832.044 Q174.177 835.123 167.858 835.123 Q165.682 835.123 163.414 834.753 Q161.168 834.382 158.761 833.641 L158.761 828.942 Q160.844 830.077 163.066 830.632 Q165.289 831.188 167.765 831.188 Q171.77 831.188 174.108 829.081 Q176.446 826.975 176.446 823.364 Q176.446 819.753 174.108 817.646 Q171.77 815.54 167.765 815.54 Q165.89 815.54 164.015 815.956 Q162.164 816.373 160.219 817.253 L160.219 799.892 Z" fill="#000000" fill-rule="evenodd" fill-opacity="1" /><path clip-path="url(#clip850)" d="M 0 0 M190.335 828.572 L195.219 828.572 L195.219 834.452 L190.335 834.452 L190.335 828.572 Z" fill="#000000" fill-rule="evenodd" fill-opacity="1" /><path clip-path="url(#clip850)" d="M 0 0 M215.404 802.97 Q211.793 802.97 209.964 806.535 Q208.159 810.077 208.159 817.206 Q208.159 824.313 209.964 827.878 Q211.793 831.419 215.404 831.419 Q219.038 831.419 220.844 827.878 Q222.673 824.313 222.673 817.206 Q222.673 810.077 220.844 806.535 Q219.038 802.97 215.404 802.97 M215.404 799.267 Q221.214 799.267 224.27 803.873 Q227.348 808.456 227.348 817.206 Q227.348 825.933 224.27 830.54 Q221.214 835.123 215.404 835.123 Q209.594 835.123 206.515 830.54 Q203.46 825.933 203.46 817.206 Q203.46 808.456 206.515 803.873 Q209.594 799.267 215.404 799.267 Z" fill="#000000" fill-rule="evenodd" fill-opacity="1" /><path clip-path="url(#clip850)" d="M 0 0 M159.988 546.063 L182.21 546.063 L182.21 548.054 L169.664 580.623 L164.779 580.623 L176.585 549.998 L159.988 549.998 L159.988 546.063 Z" fill="#000000" fill-rule="evenodd" fill-opacity="1" /><path clip-path="url(#clip850)" d="M 0 0 M191.33 574.743 L196.214 574.743 L196.214 580.623 L191.33 580.623 L191.33 574.743 Z" fill="#000000" fill-rule="evenodd" fill-opacity="1" /><path clip-path="url(#clip850)" d="M 0 0 M206.446 546.063 L224.802 546.063 L224.802 549.998 L210.728 549.998 L210.728 558.47 Q211.747 558.123 212.765 557.961 Q213.784 557.776 214.802 557.776 Q220.589 557.776 223.969 560.947 Q227.348 564.118 227.348 569.535 Q227.348 575.114 223.876 578.216 Q220.404 581.294 214.085 581.294 Q211.909 581.294 209.64 580.924 Q207.395 580.554 204.987 579.813 L204.987 575.114 Q207.071 576.248 209.293 576.804 Q211.515 577.359 213.992 577.359 Q217.997 577.359 220.335 575.253 Q222.673 573.146 222.673 569.535 Q222.673 565.924 220.335 563.818 Q217.997 561.711 213.992 561.711 Q212.117 561.711 210.242 562.128 Q208.39 562.544 206.446 563.424 L206.446 546.063 Z" fill="#000000" fill-rule="evenodd" fill-opacity="1" /><path clip-path="url(#clip850)" d="M 0 0 M130.821 322.859 L138.46 322.859 L138.46 296.494 L130.15 298.16 L130.15 293.901 L138.414 292.234 L143.09 292.234 L143.09 322.859 L150.728 322.859 L150.728 326.794 L130.821 326.794 L130.821 322.859 Z" fill="#000000" fill-rule="evenodd" fill-opacity="1" /><path clip-path="url(#clip850)" d="M 0 0 M170.173 295.313 Q166.562 295.313 164.733 298.878 Q162.927 302.419 162.927 309.549 Q162.927 316.656 164.733 320.22 Q166.562 323.762 170.173 323.762 Q173.807 323.762 175.613 320.22 Q177.441 316.656 177.441 309.549 Q177.441 302.419 175.613 298.878 Q173.807 295.313 170.173 295.313 M170.173 291.609 Q175.983 291.609 179.039 296.216 Q182.117 300.799 182.117 309.549 Q182.117 318.276 179.039 322.882 Q175.983 327.466 170.173 327.466 Q164.363 327.466 161.284 322.882 Q158.228 318.276 158.228 309.549 Q158.228 300.799 161.284 296.216 Q164.363 291.609 170.173 291.609 Z" fill="#000000" fill-rule="evenodd" fill-opacity="1" /><path clip-path="url(#clip850)" d="M 0 0 M190.335 320.915 L195.219 320.915 L195.219 326.794 L190.335 326.794 L190.335 320.915 Z" fill="#000000" fill-rule="evenodd" fill-opacity="1" /><path clip-path="url(#clip850)" d="M 0 0 M215.404 295.313 Q211.793 295.313 209.964 298.878 Q208.159 302.419 208.159 309.549 Q208.159 316.656 209.964 320.22 Q211.793 323.762 215.404 323.762 Q219.038 323.762 220.844 320.22 Q222.673 316.656 222.673 309.549 Q222.673 302.419 220.844 298.878 Q219.038 295.313 215.404 295.313 M215.404 291.609 Q221.214 291.609 224.27 296.216 Q227.348 300.799 227.348 309.549 Q227.348 318.276 224.27 322.882 Q221.214 327.466 215.404 327.466 Q209.594 327.466 206.515 322.882 Q203.46 318.276 203.46 309.549 Q203.46 300.799 206.515 296.216 Q209.594 291.609 215.404 291.609 Z" fill="#000000" fill-rule="evenodd" fill-opacity="1" /><path clip-path="url(#clip850)" d="M 0 0 M51.61 806.247 L52.5343 806.81 Q51.0239 810.305 48.6117 814.656 Q51.0239 819.007 52.5343 822.501 L51.61 823.042 Q48.296 819.232 45.7486 814.656 Q48.3186 810.034 51.61 806.247 Z" fill="#000000" fill-rule="evenodd" fill-opacity="1" /><path clip-path="url(#clip850)" d="M 0 0 M62.6398 803.737 Q62.672 803.737 63.8314 803.931 L93.1066 811.274 Q94.6524 811.66 96.1983 812.755 Q97.7764 813.818 99.129 815.525 Q100.514 817.199 101.351 819.776 Q102.221 822.32 102.221 825.251 Q102.221 829.921 101.222 831.982 Q100.256 834.011 98.1951 834.011 Q96.3916 834.011 95.361 832.884 Q94.3626 831.757 94.3626 830.468 Q94.3626 829.244 95.0711 828.6 Q95.7796 827.956 96.6814 827.956 Q97.6798 827.956 98.6782 828.633 Q99.7088 829.309 100.095 830.662 Q100.772 828.504 100.772 825.38 Q100.772 818.778 93.7829 815.943 Q93.6863 815.879 93.6541 815.879 L84.9263 813.689 L84.8619 813.786 Q85.506 814.333 86.2467 815.203 Q86.9552 816.04 87.8248 817.844 Q88.6944 819.647 88.6944 821.418 Q88.6944 825.122 85.8602 827.666 Q82.9939 830.178 78.2597 830.178 Q74.8136 830.178 71.3676 828.794 Q67.8894 827.377 65.3451 825.187 Q62.7686 822.964 61.1583 820.13 Q59.548 817.264 59.548 814.494 Q59.548 812.562 60.7075 810.919 Q61.8347 809.277 63.7026 808.375 Q62.1567 808.214 61.5126 807.344 Q60.8685 806.443 60.8685 805.67 Q60.8685 804.8 61.3516 804.285 Q61.8025 803.737 62.6398 803.737 M66.6655 809.148 Q66.4723 809.148 65.957 809.277 Q65.4095 809.406 64.54 809.792 Q63.6704 810.146 62.8975 810.694 Q62.1245 811.241 61.577 812.24 Q60.9973 813.206 60.9973 814.43 Q60.9973 816.427 62.672 818.423 Q64.3145 820.42 66.8588 821.805 Q69.3064 823.093 74.0407 824.317 Q78.7749 825.509 81.1904 825.509 Q83.5736 825.509 85.4094 824.478 Q87.2451 823.447 87.2451 821.225 Q87.2451 818.649 84.8619 815.879 Q82.382 813.013 80.2564 812.53 L67.6639 809.341 Q66.891 809.148 66.6655 809.148 Z" fill="#000000" fill-rule="evenodd" fill-opacity="1" /><path clip-path="url(#clip850)" d="M 0 0 M33.3852 795.622 Q25.5849 795.622 19.2951 792.713 Q16.6574 791.474 14.4481 789.738 Q12.2388 788.002 11.2694 786.852 Q10.3 785.702 10.3 785.387 Q10.3 784.936 10.7509 784.913 Q10.9763 784.913 11.5399 785.522 Q19.1148 792.961 33.3852 792.939 Q47.7007 792.939 54.9824 785.702 Q55.7715 784.913 56.0194 784.913 Q56.4703 784.913 56.4703 785.387 Q56.4703 785.702 55.546 786.807 Q54.6217 787.912 52.5026 789.625 Q50.3834 791.338 47.7909 792.578 Q41.501 795.622 33.3852 795.622 Z" fill="#000000" fill-rule="evenodd" fill-opacity="1" /><path clip-path="url(#clip850)" d="M 0 0 M44.9278 777.893 Q44.0936 777.893 43.8456 777.826 Q43.5976 777.736 43.2144 777.375 L33.3401 768.515 Q27.8844 763.668 23.1276 763.668 Q20.0391 763.668 17.8297 765.291 Q15.6204 766.892 15.6204 769.845 Q15.6204 771.874 16.8603 773.587 Q18.1003 775.301 20.3096 776.09 Q20.2645 775.955 20.2645 775.481 Q20.2645 774.331 20.9859 773.7 Q21.7073 773.046 22.6767 773.046 Q23.9166 773.046 24.5253 773.858 Q25.1115 774.647 25.1115 775.436 Q25.1115 775.752 25.0439 776.18 Q24.9762 776.586 24.345 777.24 Q23.6912 777.893 22.5415 777.893 Q19.3176 777.893 16.7476 775.459 Q14.1776 773.001 14.1776 769.259 Q14.1776 765.021 16.7025 762.248 Q19.2049 759.452 23.1276 759.452 Q24.5028 759.452 25.7653 759.881 Q27.0052 760.286 27.9746 760.85 Q28.944 761.391 30.4995 762.879 Q32.0551 764.367 33.1597 765.562 Q34.2644 766.757 36.609 769.439 L41.3658 774.331 L41.3658 766.013 Q41.3658 761.955 41.0051 761.639 Q40.3513 761.188 36.9021 760.625 L36.9021 759.452 L44.9278 760.76 L44.9278 777.893 Z" fill="#000000" fill-rule="evenodd" fill-opacity="1" /><path clip-path="url(#clip850)" d="M 0 0 M56.0194 755.03 Q55.794 755.03 55.2304 754.443 Q47.6556 747.004 33.3852 747.004 Q19.0697 747.004 11.833 754.15 Q10.9989 755.03 10.7509 755.03 Q10.3 755.03 10.3 754.579 Q10.3 754.263 11.2243 753.158 Q12.1486 752.031 14.2678 750.34 Q16.3869 748.627 18.9795 747.365 Q25.2693 744.321 33.3852 744.321 Q41.1854 744.321 47.4752 747.229 Q50.1129 748.469 52.3222 750.205 Q54.5315 751.941 55.5009 753.091 Q56.4703 754.241 56.4703 754.579 Q56.4703 755.03 56.0194 755.03 Z" fill="#000000" fill-rule="evenodd" fill-opacity="1" /><path clip-path="url(#clip850)" d="M 0 0 M72.2049 730.261 Q61.0617 730.261 52.0763 726.107 Q48.3082 724.335 45.152 721.856 Q41.9959 719.376 40.611 717.733 Q39.2261 716.091 39.2261 715.64 Q39.2261 714.996 39.8703 714.963 Q40.1923 714.963 40.9975 715.833 Q51.8186 726.461 72.2049 726.429 Q92.6557 726.429 103.058 716.091 Q104.185 714.963 104.54 714.963 Q105.184 714.963 105.184 715.64 Q105.184 716.091 103.863 717.669 Q102.543 719.247 99.5155 721.695 Q96.4882 724.142 92.7845 725.913 Q83.7991 730.261 72.2049 730.261 Z" fill="#000000" fill-rule="evenodd" fill-opacity="1" /><path clip-path="url(#clip850)" d="M 0 0 M61.3194 673.889 Q61.6092 673.889 62.6076 674.146 Q63.5738 674.372 65.4739 675.112 Q67.3419 675.821 69.4352 676.916 Q71.4964 677.979 74.1051 679.943 Q76.7138 681.908 79.0004 684.356 Q83.316 688.961 85.6348 693.888 Q87.9536 698.784 88.6944 702.971 L88.6944 703.904 Q88.6944 704.935 87.8892 704.935 L84.9263 704.227 L68.7911 700.201 Q63.8636 698.945 63.445 698.945 Q63.0585 698.945 62.8653 699.106 Q62.6398 699.235 62.4788 700.008 Q62.3178 700.748 62.3178 702.23 Q62.3178 702.842 62.2855 703.132 Q62.2533 703.389 62.0923 703.615 Q61.8991 703.84 61.5126 703.84 Q60.9651 703.84 60.6753 703.615 Q60.3532 703.357 60.2888 703.164 Q60.2244 702.971 60.1922 702.584 Q60.16 702.037 59.9989 700.201 Q59.8057 698.365 59.6769 696.787 Q59.548 695.209 59.548 694.533 Q59.548 694.146 59.7413 693.921 Q59.9023 693.695 60.0955 693.695 L60.2566 693.663 L86.5044 700.136 Q85.7314 697.753 84.4432 695.402 Q83.1549 693.019 81.0294 690.442 Q78.8716 687.866 76.1985 685.676 Q73.5254 683.486 69.7895 681.554 Q66.0214 679.589 61.7058 678.365 Q60.8363 678.14 60.321 677.592 Q59.8057 677.013 59.6769 676.594 Q59.548 676.175 59.548 675.789 Q59.548 674.919 60.0311 674.404 Q60.482 673.889 61.3194 673.889 Z" fill="#000000" fill-rule="evenodd" fill-opacity="1" /><path clip-path="url(#clip850)" d="M 0 0 M104.54 672.687 Q104.218 672.687 103.412 671.85 Q92.5913 661.222 72.2049 661.222 Q51.7542 661.222 41.4161 671.431 Q40.2245 672.687 39.8703 672.687 Q39.2261 672.687 39.2261 672.043 Q39.2261 671.592 40.5466 670.014 Q41.867 668.404 44.8944 665.988 Q47.9217 663.541 51.6254 661.737 Q60.6108 657.389 72.2049 657.389 Q83.3482 657.389 92.3336 661.544 Q96.1017 663.315 99.2579 665.795 Q102.414 668.275 103.799 669.918 Q105.184 671.56 105.184 672.043 Q105.184 672.687 104.54 672.687 Z" fill="#000000" fill-rule="evenodd" fill-opacity="1" /><path clip-path="url(#clip850)" d="M 0 0 M577.849 18.8205 L577.849 41.5461 L588.138 41.5461 Q593.85 41.5461 596.969 38.5889 Q600.088 35.6318 600.088 30.163 Q600.088 24.7348 596.969 21.7777 Q593.85 18.8205 588.138 18.8205 L577.849 18.8205 M569.666 12.096 L588.138 12.096 Q598.306 12.096 603.491 16.714 Q608.716 21.2916 608.716 30.163 Q608.716 39.1155 603.491 43.6931 Q598.306 48.2706 588.138 48.2706 L577.849 48.2706 L577.849 72.576 L569.666 72.576 L569.666 12.096 Z" fill="#000000" fill-rule="evenodd" fill-opacity="1" /><path clip-path="url(#clip850)" d="M 0 0 M657.084 45.1919 L657.084 72.576 L649.631 72.576 L649.631 45.4349 Q649.631 38.994 647.119 35.7938 Q644.607 32.5936 639.584 32.5936 Q633.548 32.5936 630.065 36.4419 Q626.581 40.2903 626.581 46.9338 L626.581 72.576 L619.087 72.576 L619.087 9.54393 L626.581 9.54393 L626.581 34.2544 Q629.255 30.163 632.86 28.1376 Q636.506 26.1121 641.245 26.1121 Q649.063 26.1121 653.074 30.9732 Q657.084 35.7938 657.084 45.1919 Z" fill="#000000" fill-rule="evenodd" fill-opacity="1" /><path clip-path="url(#clip850)" d="M 0 0 M689.532 32.4315 Q683.537 32.4315 680.053 37.1306 Q676.569 41.7891 676.569 49.9314 Q676.569 58.0738 680.012 62.7728 Q683.496 67.4314 689.532 67.4314 Q695.487 67.4314 698.971 62.7323 Q702.454 58.0333 702.454 49.9314 Q702.454 41.8701 698.971 37.1711 Q695.487 32.4315 689.532 32.4315 M689.532 26.1121 Q699.254 26.1121 704.804 32.4315 Q710.354 38.7509 710.354 49.9314 Q710.354 61.0714 704.804 67.4314 Q699.254 73.7508 689.532 73.7508 Q679.769 73.7508 674.22 67.4314 Q668.71 61.0714 668.71 49.9314 Q668.71 38.7509 674.22 32.4315 Q679.769 26.1121 689.532 26.1121 Z" fill="#000000" fill-rule="evenodd" fill-opacity="1" /><path clip-path="url(#clip850)" d="M 0 0 M730.082 14.324 L730.082 27.2059 L745.434 27.2059 L745.434 32.9987 L730.082 32.9987 L730.082 57.6282 Q730.082 63.1779 731.58 64.7578 Q733.12 66.3376 737.778 66.3376 L745.434 66.3376 L745.434 72.576 L737.778 72.576 Q729.15 72.576 725.869 69.3758 Q722.587 66.1351 722.587 57.6282 L722.587 32.9987 L717.119 32.9987 L717.119 27.2059 L722.587 27.2059 L722.587 14.324 L730.082 14.324 Z" fill="#000000" fill-rule="evenodd" fill-opacity="1" /><path clip-path="url(#clip850)" d="M 0 0 M772.819 32.4315 Q766.823 32.4315 763.339 37.1306 Q759.856 41.7891 759.856 49.9314 Q759.856 58.0738 763.299 62.7728 Q766.783 67.4314 772.819 67.4314 Q778.773 67.4314 782.257 62.7323 Q785.741 58.0333 785.741 49.9314 Q785.741 41.8701 782.257 37.1711 Q778.773 32.4315 772.819 32.4315 M772.819 26.1121 Q782.541 26.1121 788.09 32.4315 Q793.64 38.7509 793.64 49.9314 Q793.64 61.0714 788.09 67.4314 Q782.541 73.7508 772.819 73.7508 Q763.056 73.7508 757.506 67.4314 Q751.997 61.0714 751.997 49.9314 Q751.997 38.7509 757.506 32.4315 Q763.056 26.1121 772.819 26.1121 Z" fill="#000000" fill-rule="evenodd" fill-opacity="1" /><path clip-path="url(#clip850)" d="M 0 0 M843.709 45.1919 L843.709 72.576 L836.256 72.576 L836.256 45.4349 Q836.256 38.994 833.744 35.7938 Q831.233 32.5936 826.209 32.5936 Q820.174 32.5936 816.69 36.4419 Q813.206 40.2903 813.206 46.9338 L813.206 72.576 L805.712 72.576 L805.712 27.2059 L813.206 27.2059 L813.206 34.2544 Q815.88 30.163 819.485 28.1376 Q823.131 26.1121 827.87 26.1121 Q835.689 26.1121 839.699 30.9732 Q843.709 35.7938 843.709 45.1919 Z" fill="#000000" fill-rule="evenodd" fill-opacity="1" /><path clip-path="url(#clip850)" d="M 0 0 M930.561 16.7545 L930.561 25.383 Q926.429 21.5346 921.73 19.6307 Q917.071 17.7268 911.805 17.7268 Q901.435 17.7268 895.926 24.0867 Q890.416 30.4061 890.416 42.3968 Q890.416 54.3469 895.926 60.7069 Q901.435 67.0263 911.805 67.0263 Q917.071 67.0263 921.73 65.1223 Q926.429 63.2184 930.561 59.3701 L930.561 67.9175 Q926.267 70.8341 921.446 72.2924 Q916.666 73.7508 911.319 73.7508 Q897.586 73.7508 889.687 65.3654 Q881.788 56.9395 881.788 42.3968 Q881.788 27.8135 889.687 19.4281 Q897.586 11.0023 911.319 11.0023 Q916.747 11.0023 921.527 12.4606 Q926.348 13.8784 930.561 16.7545 Z" fill="#000000" fill-rule="evenodd" fill-opacity="1" /><path clip-path="url(#clip850)" d="M 0 0 M960.456 32.4315 Q954.461 32.4315 950.977 37.1306 Q947.494 41.7891 947.494 49.9314 Q947.494 58.0738 950.937 62.7728 Q954.421 67.4314 960.456 67.4314 Q966.411 67.4314 969.895 62.7323 Q973.379 58.0333 973.379 49.9314 Q973.379 41.8701 969.895 37.1711 Q966.411 32.4315 960.456 32.4315 M960.456 26.1121 Q970.179 26.1121 975.728 32.4315 Q981.278 38.7509 981.278 49.9314 Q981.278 61.0714 975.728 67.4314 Q970.179 73.7508 960.456 73.7508 Q950.694 73.7508 945.144 67.4314 Q939.635 61.0714 939.635 49.9314 Q939.635 38.7509 945.144 32.4315 Q950.694 26.1121 960.456 26.1121 Z" fill="#000000" fill-rule="evenodd" fill-opacity="1" /><path clip-path="url(#clip850)" d="M 0 0 M1019.92 34.1734 Q1018.67 33.4443 1017.17 33.1202 Q1015.71 32.7556 1013.93 32.7556 Q1007.61 32.7556 1004.21 36.8875 Q1000.84 40.9789 1000.84 48.6757 L1000.84 72.576 L993.35 72.576 L993.35 27.2059 L1000.84 27.2059 L1000.84 34.2544 Q1003.19 30.1225 1006.96 28.1376 Q1010.73 26.1121 1016.12 26.1121 Q1016.89 26.1121 1017.82 26.2337 Q1018.75 26.3147 1019.88 26.5172 L1019.92 34.1734 Z" fill="#000000" fill-rule="evenodd" fill-opacity="1" /><path clip-path="url(#clip850)" d="M 0 0 M1052.57 34.1734 Q1051.32 33.4443 1049.82 33.1202 Q1048.36 32.7556 1046.58 32.7556 Q1040.26 32.7556 1036.86 36.8875 Q1033.49 40.9789 1033.49 48.6757 L1033.49 72.576 L1026 72.576 L1026 27.2059 L1033.49 27.2059 L1033.49 34.2544 Q1035.84 30.1225 1039.61 28.1376 Q1043.38 26.1121 1048.77 26.1121 Q1049.54 26.1121 1050.47 26.2337 Q1051.4 26.3147 1052.53 26.5172 L1052.57 34.1734 Z" fill="#000000" fill-rule="evenodd" fill-opacity="1" /><path clip-path="url(#clip850)" d="M 0 0 M1097.38 48.0275 L1097.38 51.6733 L1063.11 51.6733 Q1063.59 59.3701 1067.72 63.421 Q1071.9 67.4314 1079.31 67.4314 Q1083.6 67.4314 1087.61 66.3781 Q1091.67 65.3249 1095.64 63.2184 L1095.64 70.267 Q1091.62 71.9684 1087.41 72.8596 Q1083.2 73.7508 1078.86 73.7508 Q1068.01 73.7508 1061.65 67.4314 Q1055.33 61.1119 1055.33 50.3365 Q1055.33 39.1965 1061.32 32.6746 Q1067.36 26.1121 1077.57 26.1121 Q1086.72 26.1121 1092.03 32.0264 Q1097.38 37.9003 1097.38 48.0275 M1089.92 45.84 Q1089.84 39.7232 1086.48 36.0774 Q1083.16 32.4315 1077.65 32.4315 Q1071.41 32.4315 1067.64 35.9558 Q1063.92 39.4801 1063.35 45.8805 L1089.92 45.84 Z" fill="#000000" fill-rule="evenodd" fill-opacity="1" /><path clip-path="url(#clip850)" d="M 0 0 M1109.61 9.54393 L1117.06 9.54393 L1117.06 72.576 L1109.61 72.576 L1109.61 9.54393 Z" fill="#000000" fill-rule="evenodd" fill-opacity="1" /><path clip-path="url(#clip850)" d="M 0 0 M1153.28 49.7694 Q1144.25 49.7694 1140.76 51.8354 Q1137.28 53.9013 1137.28 58.8839 Q1137.28 62.8538 1139.87 65.2034 Q1142.5 67.5124 1147 67.5124 Q1153.2 67.5124 1156.93 63.1374 Q1160.69 58.7219 1160.69 51.4303 L1160.69 49.7694 L1153.28 49.7694 M1168.15 46.6907 L1168.15 72.576 L1160.69 72.576 L1160.69 65.6895 Q1158.14 69.8214 1154.33 71.8063 Q1150.52 73.7508 1145.02 73.7508 Q1138.05 73.7508 1133.92 69.8619 Q1129.82 65.9325 1129.82 59.3701 Q1129.82 51.7138 1134.93 47.825 Q1140.07 43.9361 1150.24 43.9361 L1160.69 43.9361 L1160.69 43.2069 Q1160.69 38.0623 1157.29 35.2672 Q1153.93 32.4315 1147.81 32.4315 Q1143.92 32.4315 1140.24 33.3632 Q1136.55 34.295 1133.15 36.1584 L1133.15 29.2718 Q1137.24 27.692 1141.09 26.9223 Q1144.93 26.1121 1148.58 26.1121 Q1158.42 26.1121 1163.29 31.2163 Q1168.15 36.3204 1168.15 46.6907 Z" fill="#000000" fill-rule="evenodd" fill-opacity="1" /><path clip-path="url(#clip850)" d="M 0 0 M1190.87 14.324 L1190.87 27.2059 L1206.22 27.2059 L1206.22 32.9987 L1190.87 32.9987 L1190.87 57.6282 Q1190.87 63.1779 1192.37 64.7578 Q1193.91 66.3376 1198.57 66.3376 L1206.22 66.3376 L1206.22 72.576 L1198.57 72.576 Q1189.94 72.576 1186.66 69.3758 Q1183.38 66.1351 1183.38 57.6282 L1183.38 32.9987 L1177.91 32.9987 L1177.91 27.2059 L1183.38 27.2059 L1183.38 14.324 L1190.87 14.324 Z" fill="#000000" fill-rule="evenodd" fill-opacity="1" /><path clip-path="url(#clip850)" d="M 0 0 M1216.03 27.2059 L1223.48 27.2059 L1223.48 72.576 L1216.03 72.576 L1216.03 27.2059 M1216.03 9.54393 L1223.48 9.54393 L1223.48 18.9825 L1216.03 18.9825 L1216.03 9.54393 Z" fill="#000000" fill-rule="evenodd" fill-opacity="1" /><path clip-path="url(#clip850)" d="M 0 0 M1256.66 32.4315 Q1250.66 32.4315 1247.18 37.1306 Q1243.7 41.7891 1243.7 49.9314 Q1243.7 58.0738 1247.14 62.7728 Q1250.62 67.4314 1256.66 67.4314 Q1262.61 67.4314 1266.1 62.7323 Q1269.58 58.0333 1269.58 49.9314 Q1269.58 41.8701 1266.1 37.1711 Q1262.61 32.4315 1256.66 32.4315 M1256.66 26.1121 Q1266.38 26.1121 1271.93 32.4315 Q1277.48 38.7509 1277.48 49.9314 Q1277.48 61.0714 1271.93 67.4314 Q1266.38 73.7508 1256.66 73.7508 Q1246.9 73.7508 1241.35 67.4314 Q1235.84 61.0714 1235.84 49.9314 Q1235.84 38.7509 1241.35 32.4315 Q1246.9 26.1121 1256.66 26.1121 Z" fill="#000000" fill-rule="evenodd" fill-opacity="1" /><path clip-path="url(#clip850)" d="M 0 0 M1327.55 45.1919 L1327.55 72.576 L1320.1 72.576 L1320.1 45.4349 Q1320.1 38.994 1317.58 35.7938 Q1315.07 32.5936 1310.05 32.5936 Q1304.01 32.5936 1300.53 36.4419 Q1297.05 40.2903 1297.05 46.9338 L1297.05 72.576 L1289.55 72.576 L1289.55 27.2059 L1297.05 27.2059 L1297.05 34.2544 Q1299.72 30.163 1303.32 28.1376 Q1306.97 26.1121 1311.71 26.1121 Q1319.53 26.1121 1323.54 30.9732 Q1327.55 35.7938 1327.55 45.1919 Z" fill="#000000" fill-rule="evenodd" fill-opacity="1" /><path clip-path="url(#clip850)" d="M 0 0 M1371.34 28.5427 L1371.34 35.5912 Q1368.18 33.9709 1364.78 33.1607 Q1361.37 32.3505 1357.73 32.3505 Q1352.18 32.3505 1349.38 34.0519 Q1346.63 35.7533 1346.63 39.156 Q1346.63 41.7486 1348.61 43.2475 Q1350.6 44.7058 1356.59 46.0426 L1359.15 46.6097 Q1367.09 48.3111 1370.41 51.4303 Q1373.77 54.509 1373.77 60.0587 Q1373.77 66.3781 1368.75 70.0644 Q1363.76 73.7508 1355.01 73.7508 Q1351.37 73.7508 1347.4 73.0216 Q1343.47 72.3329 1339.09 70.9151 L1339.09 63.2184 Q1343.23 65.3654 1347.24 66.4591 Q1351.25 67.5124 1355.18 67.5124 Q1360.44 67.5124 1363.28 65.73 Q1366.11 63.9071 1366.11 60.6258 Q1366.11 57.5877 1364.05 55.9673 Q1362.02 54.3469 1355.1 52.8481 L1352.5 52.2405 Q1345.58 50.7821 1342.5 47.7845 Q1339.42 44.7463 1339.42 39.4801 Q1339.42 33.0797 1343.96 29.5959 Q1348.49 26.1121 1356.84 26.1121 Q1360.97 26.1121 1364.62 26.7198 Q1368.26 27.3274 1371.34 28.5427 Z" fill="#000000" fill-rule="evenodd" fill-opacity="1" /><path clip-path="url(#clip850)" d="M 0 0 M1406.66 27.2059 L1414.56 27.2059 L1428.74 65.2844 L1442.92 27.2059 L1450.82 27.2059 L1433.8 72.576 L1423.68 72.576 L1406.66 27.2059 Z" fill="#000000" fill-rule="evenodd" fill-opacity="1" /><path clip-path="url(#clip850)" d="M 0 0 M1490.03 28.5427 L1490.03 35.5912 Q1486.87 33.9709 1483.47 33.1607 Q1480.07 32.3505 1476.42 32.3505 Q1470.87 32.3505 1468.08 34.0519 Q1465.32 35.7533 1465.32 39.156 Q1465.32 41.7486 1467.31 43.2475 Q1469.29 44.7058 1475.29 46.0426 L1477.84 46.6097 Q1485.78 48.3111 1489.1 51.4303 Q1492.46 54.509 1492.46 60.0587 Q1492.46 66.3781 1487.44 70.0644 Q1482.46 73.7508 1473.71 73.7508 Q1470.06 73.7508 1466.09 73.0216 Q1462.16 72.3329 1457.79 70.9151 L1457.79 63.2184 Q1461.92 65.3654 1465.93 66.4591 Q1469.94 67.5124 1473.87 67.5124 Q1479.13 67.5124 1481.97 65.73 Q1484.81 63.9071 1484.81 60.6258 Q1484.81 57.5877 1482.74 55.9673 Q1480.71 54.3469 1473.79 52.8481 L1471.19 52.2405 Q1464.27 50.7821 1461.19 47.7845 Q1458.11 44.7463 1458.11 39.4801 Q1458.11 33.0797 1462.65 29.5959 Q1467.18 26.1121 1475.53 26.1121 Q1479.66 26.1121 1483.31 26.7198 Q1486.95 27.3274 1490.03 28.5427 Z" fill="#000000" fill-rule="evenodd" fill-opacity="1" /><path clip-path="url(#clip850)" d="M 0 0 M1531.03 12.096 L1565.78 12.096 L1565.78 18.9825 L1539.21 18.9825 L1539.21 36.8065 L1563.19 36.8065 L1563.19 43.6931 L1539.21 43.6931 L1539.21 72.576 L1531.03 72.576 L1531.03 12.096 Z" fill="#000000" fill-rule="evenodd" fill-opacity="1" /><path clip-path="url(#clip850)" d="M 0 0 M1598.68 34.1734 Q1597.42 33.4443 1595.92 33.1202 Q1594.46 32.7556 1592.68 32.7556 Q1586.36 32.7556 1582.96 36.8875 Q1579.6 40.9789 1579.6 48.6757 L1579.6 72.576 L1572.1 72.576 L1572.1 27.2059 L1579.6 27.2059 L1579.6 34.2544 Q1581.95 30.1225 1585.71 28.1376 Q1589.48 26.1121 1594.87 26.1121 Q1595.64 26.1121 1596.57 26.2337 Q1597.5 26.3147 1598.64 26.5172 L1598.68 34.1734 Z" fill="#000000" fill-rule="evenodd" fill-opacity="1" /><path clip-path="url(#clip850)" d="M 0 0 M1643.48 48.0275 L1643.48 51.6733 L1609.21 51.6733 Q1609.69 59.3701 1613.83 63.421 Q1618 67.4314 1625.41 67.4314 Q1629.71 67.4314 1633.72 66.3781 Q1637.77 65.3249 1641.74 63.2184 L1641.74 70.267 Q1637.73 71.9684 1633.51 72.8596 Q1629.3 73.7508 1624.97 73.7508 Q1614.11 73.7508 1607.75 67.4314 Q1601.43 61.1119 1601.43 50.3365 Q1601.43 39.1965 1607.43 32.6746 Q1613.46 26.1121 1623.67 26.1121 Q1632.83 26.1121 1638.13 32.0264 Q1643.48 37.9003 1643.48 48.0275 M1636.03 45.84 Q1635.94 39.7232 1632.58 36.0774 Q1629.26 32.4315 1623.75 32.4315 Q1617.51 32.4315 1613.75 35.9558 Q1610.02 39.4801 1609.45 45.8805 L1636.03 45.84 Z" fill="#000000" fill-rule="evenodd" fill-opacity="1" /><path clip-path="url(#clip850)" d="M 0 0 M1660.17 49.9314 Q1660.17 58.1548 1663.53 62.8538 Q1666.93 67.5124 1672.85 67.5124 Q1678.76 67.5124 1682.17 62.8538 Q1685.57 58.1548 1685.57 49.9314 Q1685.57 41.7081 1682.17 37.0496 Q1678.76 32.3505 1672.85 32.3505 Q1666.93 32.3505 1663.53 37.0496 Q1660.17 41.7081 1660.17 49.9314 M1685.57 65.7705 Q1683.22 69.8214 1679.61 71.8063 Q1676.05 73.7508 1671.03 73.7508 Q1662.8 73.7508 1657.62 67.1883 Q1652.47 60.6258 1652.47 49.9314 Q1652.47 39.2371 1657.62 32.6746 Q1662.8 26.1121 1671.03 26.1121 Q1676.05 26.1121 1679.61 28.0971 Q1683.22 30.0415 1685.57 34.0924 L1685.57 27.2059 L1693.02 27.2059 L1693.02 89.8329 L1685.57 89.8329 L1685.57 65.7705 Z" fill="#000000" fill-rule="evenodd" fill-opacity="1" /><path clip-path="url(#clip850)" d="M 0 0 M1707.61 54.671 L1707.61 27.2059 L1715.06 27.2059 L1715.06 54.3874 Q1715.06 60.8284 1717.57 64.0691 Q1720.08 67.2693 1725.11 67.2693 Q1731.14 67.2693 1734.62 63.421 Q1738.15 59.5726 1738.15 52.9291 L1738.15 27.2059 L1745.6 27.2059 L1745.6 72.576 L1738.15 72.576 L1738.15 65.6084 Q1735.43 69.7404 1731.83 71.7658 Q1728.26 73.7508 1723.53 73.7508 Q1715.71 73.7508 1711.66 68.8897 Q1707.61 64.0286 1707.61 54.671 M1726.36 26.1121 L1726.36 26.1121 Z" fill="#000000" fill-rule="evenodd" fill-opacity="1" /><path clip-path="url(#clip850)" d="M 0 0 M1799.76 48.0275 L1799.76 51.6733 L1765.49 51.6733 Q1765.98 59.3701 1770.11 63.421 Q1774.28 67.4314 1781.7 67.4314 Q1785.99 67.4314 1790 66.3781 Q1794.05 65.3249 1798.02 63.2184 L1798.02 70.267 Q1794.01 71.9684 1789.8 72.8596 Q1785.59 73.7508 1781.25 73.7508 Q1770.39 73.7508 1764.03 67.4314 Q1757.71 61.1119 1757.71 50.3365 Q1757.71 39.1965 1763.71 32.6746 Q1769.75 26.1121 1779.95 26.1121 Q1789.11 26.1121 1794.42 32.0264 Q1799.76 37.9003 1799.76 48.0275 M1792.31 45.84 Q1792.23 39.7232 1788.87 36.0774 Q1785.54 32.4315 1780.04 32.4315 Q1773.8 32.4315 1770.03 35.9558 Q1766.3 39.4801 1765.74 45.8805 L1792.31 45.84 Z" fill="#000000" fill-rule="evenodd" fill-opacity="1" /><path clip-path="url(#clip850)" d="M 0 0 M1849.71 45.1919 L1849.71 72.576 L1842.26 72.576 L1842.26 45.4349 Q1842.26 38.994 1839.75 35.7938 Q1837.23 32.5936 1832.21 32.5936 Q1826.18 32.5936 1822.69 36.4419 Q1819.21 40.2903 1819.21 46.9338 L1819.21 72.576 L1811.71 72.576 L1811.71 27.2059 L1819.21 27.2059 L1819.21 34.2544 Q1821.88 30.163 1825.49 28.1376 Q1829.13 26.1121 1833.87 26.1121 Q1841.69 26.1121 1845.7 30.9732 Q1849.71 35.7938 1849.71 45.1919 Z" fill="#000000" fill-rule="evenodd" fill-opacity="1" /><path clip-path="url(#clip850)" d="M 0 0 M1897.23 28.9478 L1897.23 35.9153 Q1894.07 34.1734 1890.87 33.3227 Q1887.71 32.4315 1884.47 32.4315 Q1877.22 32.4315 1873.21 37.0496 Q1869.2 41.6271 1869.2 49.9314 Q1869.2 58.2358 1873.21 62.8538 Q1877.22 67.4314 1884.47 67.4314 Q1887.71 67.4314 1890.87 66.5807 Q1894.07 65.6895 1897.23 63.9476 L1897.23 70.8341 Q1894.11 72.2924 1890.75 73.0216 Q1887.42 73.7508 1883.66 73.7508 Q1873.41 73.7508 1867.37 67.3098 Q1861.34 60.8689 1861.34 49.9314 Q1861.34 38.832 1867.41 32.472 Q1873.53 26.1121 1884.14 26.1121 Q1887.59 26.1121 1890.87 26.8413 Q1894.15 27.5299 1897.23 28.9478 Z" fill="#000000" fill-rule="evenodd" fill-opacity="1" /><path clip-path="url(#clip850)" d="M 0 0 M1929.07 76.7889 Q1925.91 84.8907 1922.91 87.3618 Q1919.91 89.8329 1914.89 89.8329 L1908.94 89.8329 L1908.94 83.5945 L1913.31 83.5945 Q1916.39 83.5945 1918.09 82.1361 Q1919.79 80.6778 1921.86 75.2496 L1923.19 71.8468 L1904.84 27.2059 L1912.74 27.2059 L1926.92 62.6918 L1941.1 27.2059 L1949 27.2059 L1929.07 76.7889 Z" fill="#000000" fill-rule="evenodd" fill-opacity="1" /><polyline clip-path="url(#clip853)" style="stroke:#009af9; stroke-width:4; stroke-opacity:1; fill:none" points="
  318.366,1324.83 322.176,1266.42 325.986,1266.84 329.795,1131.02 333.605,1264.24 337.414,1265.02 341.224,1266.73 345.033,1268.46 348.843,1275.5 352.653,613.879 
  356.462,1188.83 360.272,1216.09 364.081,1160.61 367.891,1179.7 371.7,1173.45 375.51,1150.33 379.32,1097.1 383.129,881.157 386.939,968.913 390.748,1200.13 
  394.558,987.061 398.368,750.546 402.177,1011.02 405.987,1294.59 409.796,1257.11 413.606,1154.58 417.415,824.712 421.225,158.463 425.035,1075.85 428.844,1240.39 
  432.654,987.021 436.463,1192.99 440.273,1238.46 444.082,1263.21 447.892,1282.07 451.702,1289.19 455.511,1275.45 459.321,1217.01 463.13,913.516 466.94,691.059 
  470.75,1143.42 474.559,1215.82 478.369,1249.55 482.178,1275.12 485.988,1298.73 489.797,1305.07 493.607,1239.38 497.417,789.136 501.226,898.485 505.036,1134.52 
  508.845,1192.95 512.655,1230.06 516.464,1204.08 520.274,1228.89 524.084,1241.81 527.893,1255.77 531.703,785.099 535.512,700.122 539.322,1276.69 543.131,1261.95 
  546.941,1260.22 550.751,1131.68 554.56,1222.15 558.37,1130.93 562.179,1145.72 565.989,1259.38 569.799,1277.01 573.608,1292.12 577.418,1016.45 581.227,1246.63 
  585.037,1131.82 588.846,1212.34 592.656,1229 596.466,1233.88 600.275,1234.26 604.085,1231.42 607.894,1228.38 611.704,1228.73 615.513,1211.43 619.323,1196.96 
  623.133,1020.03 626.942,1081.13 630.752,1106.17 634.561,944.785 638.371,1098.96 642.181,737.629 645.99,701.335 649.8,1068.88 653.609,994.067 657.419,1224.75 
  661.228,1120.62 665.038,697.898 668.848,1157.72 672.657,589.535 676.467,1058.32 680.276,1177.67 684.086,1208.26 687.895,1195.79 691.705,1150.34 695.515,1232.53 
  699.324,1017.86 703.134,1261.38 706.943,1283.35 710.753,1288.32 714.563,1292.56 718.372,1286.69 722.182,1260.12 725.991,939.624 729.801,1175.2 733.61,1267.01 
  737.42,1284.51 741.23,1286.86 745.039,1281.47 748.849,1251.52 752.658,1232.96 756.468,1058.47 760.277,1220.39 764.087,699.898 767.897,889.404 771.706,1142.81 
  775.516,1237.25 779.325,1171.9 783.135,1200.9 786.944,1111.91 790.754,1256.08 794.564,1256.64 798.373,1257.65 802.183,1258.56 805.992,1245.81 809.802,1131.16 
  813.612,1142.4 817.421,1227.35 821.231,1231.09 825.04,1198.6 828.85,1153.26 832.659,1096.36 836.469,1299.57 840.279,1314.15 844.088,1132.56 847.898,1229.77 
  851.707,1253.23 855.517,1247.41 859.326,1191.81 863.136,1158.23 866.946,1302.39 870.755,1306.47 874.565,1298.83 878.374,1067.94 882.184,1268.5 885.994,1017.72 
  889.803,474.215 893.613,1158.25 897.422,1147.71 901.232,1205.43 905.041,1215.73 908.851,1214.82 912.661,1206.44 916.47,1196.84 920.28,1176.29 924.089,1138.76 
  927.899,1010.86 931.708,1234.64 935.518,1048.77 939.328,557.278 943.137,1254.81 946.947,663.648 950.756,1069.99 954.566,945.616 958.376,1169.15 962.185,1199.67 
  965.995,1218.14 969.804,1231.08 973.614,1239.1 977.423,1244.79 981.233,1247.55 985.043,1242.21 988.852,1230.12 992.662,1197.88 996.471,1092.15 1000.28,488.442 
  1004.09,848.624 1007.9,282.803 1011.71,1251.7 1015.52,1302.1 1019.33,1306.17 1023.14,1160.68 1026.95,1255.19 1030.76,1312.73 1034.57,1297.3 1038.38,1228.16 
  1042.19,429.899 1046,1121.94 1049.81,1236.27 1053.61,1135.04 1057.42,1165.41 1061.23,1176.25 1065.04,1196.24 1068.85,1120.66 1072.66,1157.47 1076.47,1234.83 
  1080.28,1174.19 1084.09,1119.7 1087.9,1247.68 1091.71,1077.46 1095.52,1296.89 1099.33,1300.85 1103.14,1114.53 1106.95,1264.04 1110.76,1188.82 1114.57,1152.06 
  1118.38,1199.55 1122.19,1086.74 1126,1073.88 1129.81,1292.43 1133.62,1290.14 1137.43,1161.34 1141.24,1300.33 1145.04,1293.33 1148.85,1283.54 1152.66,1257.01 
  1156.47,910.592 1160.28,1160.01 1164.09,1254.92 1167.9,1272.6 1171.71,1278.2 1175.52,1279.1 1179.33,1278.57 1183.14,1275.86 1186.95,1273.52 1190.76,1269.02 
  1194.57,1263.39 1198.38,1251.43 1202.19,1233.13 1206,1228.7 1209.81,1173.43 1213.62,992.382 1217.43,527.489 1221.24,1180.35 1225.05,1262.52 1228.86,1297.78 
  1232.67,1322.34 1236.47,1275.07 1240.28,1237.97 1244.09,1313.75 1247.9,1222.45 1251.71,1091.88 1255.52,1254.89 1259.33,1275.24 1263.14,1270.95 1266.95,1223.94 
  1270.76,306.519 1274.57,1214.69 1278.38,1202.21 1282.19,1253.71 1286,1273.57 1289.81,1277.66 1293.62,1264.59 1297.43,1159.96 1301.24,1143.59 1305.05,1267.49 
  1308.86,1076.5 1312.67,1305.74 1316.48,1082.67 1320.29,1235.37 1324.1,1283.48 1327.9,1163.58 1331.71,1159.24 1335.52,1245.27 1339.33,1270.57 1343.14,1288.15 
  1346.95,1307.59 1350.76,662.131 1354.57,1143.79 1358.38,1218.56 1362.19,1235.37 1366,1240.8 1369.81,1240.71 1373.62,1237.1 1377.43,1219.66 1381.24,1167.9 
  1385.05,1184.1 1388.86,673.248 1392.67,1272.15 1396.48,1311.16 1400.29,1312.92 1404.1,1301.96 1407.91,1290.26 1411.72,1264.45 1415.52,1174.61 1419.33,1168.85 
  1423.14,1272.38 1426.95,1287.22 1430.76,1289.42 1434.57,1287.57 1438.38,1282.41 1442.19,1273.78 1446,1253.76 1449.81,1173.6 1453.62,1163.85 1457.43,1289.07 
  1461.24,1281.56 1465.05,1290.93 1468.86,1220.88 1472.67,1131.82 1476.48,1283.37 1480.29,1302.34 1484.1,1303.05 1487.91,1297.91 1491.72,1286.13 1495.53,1262.13 
  1499.34,1163.87 1503.15,1175.97 1506.95,1289.87 1510.76,1231.12 1514.57,1127.84 1518.38,1271.62 1522.19,1284.54 1526,1075.91 1529.81,1157.55 1533.62,1280.54 
  1537.43,1302.09 1541.24,1308.97 1545.05,1310.9 1548.86,1310.96 1552.67,1306.86 1556.48,1302.62 1560.29,1293.74 1564.1,1278.66 1567.91,1276.15 1571.72,1242.9 
  1575.53,1048.16 1579.34,1288.75 1583.15,942.129 1586.96,1094.13 1590.77,1226.65 1594.58,1261.92 1598.38,1279.11 1602.19,1289.51 1606,1294.19 1609.81,1292.46 
  1613.62,1281.25 1617.43,1254.01 1621.24,1180.28 1625.05,623.219 1628.86,968.243 1632.67,1160.31 1636.48,1205.26 1640.29,1213.07 1644.1,1155.22 1647.91,1275.21 
  1651.72,1274.98 1655.53,1277.1 1659.34,1278.17 1663.15,1279.83 1666.96,1280.58 1670.77,1279.43 1674.58,1271.22 1678.39,1125.54 1682.2,1304.98 1686,1299.12 
  1689.81,1297.85 1693.62,1296.73 1697.43,1081.69 1701.24,1296.6 1705.05,1099.95 1708.86,1253.34 1712.67,1267.72 1716.48,1267.46 1720.29,1261.77 1724.1,1242.58 
  1727.91,1145.72 1731.72,1185.66 1735.53,1289.53 1739.34,1096.35 1743.15,1308.63 1746.96,1302.74 1750.77,1298.15 1754.58,1293.43 1758.39,1288.1 1762.2,1280.22 
  1766.01,1265.69 1769.82,1216.43 1773.63,1134.31 1777.43,1302.43 1781.24,1301.77 1785.05,1290.67 1788.86,1275.06 1792.67,1247.07 1796.48,1082.94 1800.29,1279.55 
  1804.1,1220.32 1807.91,796.604 1811.72,1182.39 1815.53,1266.76 1819.34,1254.59 1823.15,1305.53 1826.96,1309.7 1830.77,1296.82 1834.58,1270.42 1838.39,1200.87 
  1842.2,449.112 1846.01,1087.45 1849.82,1209.31 1853.63,1244.69 1857.44,1262.17 1861.25,1272.54 1865.06,1278.75 1868.86,1284.07 1872.67,1287.83 1876.48,1289.7 
  1880.29,1293.4 1884.1,1266.79 1887.91,1259.36 1891.72,1282.02 1895.53,1286.31 1899.34,1286.56 1903.15,1284.4 1906.96,1279.14 1910.77,1091.58 1914.58,1273.71 
  1918.39,1205.29 1922.2,400.6 1926.01,1273.56 1929.82,1146.79 1933.63,1148.78 1937.44,1257.5 1941.25,1276.59 1945.06,1282.97 1948.87,1279.63 1952.68,1260.36 
  1956.48,1081.27 1960.29,1306.59 1964.1,1307.4 1967.91,1303.96 1971.72,1299.57 1975.53,1292.92 1979.34,1282.59 1983.15,1261.86 1986.96,1173.63 1990.77,1113.59 
  1994.58,1276.82 1998.39,1030.7 2002.2,1287.21 2006.01,1299.33 2009.82,1299.82 2013.63,1294.98 2017.44,1280.66 2021.25,1227.38 2025.06,1187.19 2028.87,1226.15 
  2032.68,1155.15 2036.49,957.398 2040.3,1229.47 2044.11,1267.8 2047.91,1283.02 2051.72,1290.17 2055.53,1294.96 2059.34,1299.2 2063.15,1300.62 2066.96,1301.99 
  2070.77,1303.58 2074.58,1304.57 2078.39,1304.57 2082.2,1304.3 2086.01,1304.34 2089.82,1303.21 2093.63,1300.14 2097.44,1289.68 2101.25,1169.43 2105.06,1246.39 
  2108.87,1279.99 2112.68,1285.81 2116.49,1285.32 2120.3,1282.36 2124.11,1276.64 2127.92,1268.36 2131.73,1250.96 2135.54,1199.8 2139.34,995.02 2143.15,1239.04 
  2146.96,1024.05 2150.77,1203.61 2154.58,962.286 2158.39,1203.63 2162.2,1245.35 2166.01,1263.66 2169.82,1275.44 2173.63,1283.68 2177.44,1288.82 2181.25,1293.37 
  2185.06,1301.58 2188.87,1080.1 2192.68,1280.54 2196.49,1287.32 2200.3,1289.3 
  "/>
<polyline clip-path="url(#clip853)" style="stroke:#e26f46; stroke-width:4; stroke-opacity:1; fill:none" stroke-dasharray="16, 10" points="
  431.397,2596.17 431.397,-1112.88 
  "/>
<path clip-path="url(#clip850)" d="
M1615.63 285.644 L2190.26 285.644 L2190.26 164.684 L1615.63 164.684  Z
  " fill="#ffffff" fill-rule="evenodd" fill-opacity="1"/>
<polyline clip-path="url(#clip850)" style="stroke:#000000; stroke-width:4; stroke-opacity:1; fill:none" points="
  1615.63,285.644 2190.26,285.644 2190.26,164.684 1615.63,164.684 1615.63,285.644 
  "/>
<polyline clip-path="url(#clip850)" style="stroke:#e26f46; stroke-width:4; stroke-opacity:1; fill:none" stroke-dasharray="16, 10" points="
  1637.79,225.164 1770.78,225.164 
  "/>
<path clip-path="url(#clip850)" d="M 0 0 M1809.45 206.425 L1809.45 209.967 L1805.38 209.967 Q1803.09 209.967 1802.18 210.893 Q1801.3 211.819 1801.3 214.226 L1801.3 216.518 L1808.32 216.518 L1808.32 219.828 L1801.3 219.828 L1801.3 242.444 L1797.02 242.444 L1797.02 219.828 L1792.95 219.828 L1792.95 216.518 L1797.02 216.518 L1797.02 214.712 Q1797.02 210.384 1799.03 208.416 Q1801.05 206.425 1805.42 206.425 L1809.45 206.425 Z" fill="#000000" fill-rule="evenodd" fill-opacity="1" /><path clip-path="url(#clip850)" d="M 0 0 M1828.04 220.499 Q1827.32 220.083 1826.47 219.898 Q1825.63 219.689 1824.61 219.689 Q1821 219.689 1819.06 222.05 Q1817.14 224.388 1817.14 228.786 L1817.14 242.444 L1812.85 242.444 L1812.85 216.518 L1817.14 216.518 L1817.14 220.546 Q1818.48 218.185 1820.63 217.05 Q1822.78 215.893 1825.86 215.893 Q1826.3 215.893 1826.84 215.962 Q1827.37 216.009 1828.02 216.124 L1828.04 220.499 Z" fill="#000000" fill-rule="evenodd" fill-opacity="1" /><path clip-path="url(#clip850)" d="M 0 0 M1853.64 228.416 L1853.64 230.499 L1834.06 230.499 Q1834.34 234.897 1836.7 237.212 Q1839.08 239.504 1843.32 239.504 Q1845.77 239.504 1848.06 238.902 Q1850.38 238.3 1852.65 237.097 L1852.65 241.124 Q1850.35 242.096 1847.95 242.606 Q1845.54 243.115 1843.06 243.115 Q1836.86 243.115 1833.22 239.504 Q1829.61 235.893 1829.61 229.735 Q1829.61 223.37 1833.04 219.643 Q1836.49 215.893 1842.32 215.893 Q1847.55 215.893 1850.59 219.273 Q1853.64 222.629 1853.64 228.416 M1849.38 227.166 Q1849.34 223.671 1847.41 221.587 Q1845.52 219.504 1842.37 219.504 Q1838.8 219.504 1836.65 221.518 Q1834.52 223.532 1834.2 227.189 L1849.38 227.166 Z" fill="#000000" fill-rule="evenodd" fill-opacity="1" /><path clip-path="url(#clip850)" d="M 0 0 M1863.18 229.504 Q1863.18 234.203 1865.1 236.888 Q1867.04 239.55 1870.42 239.55 Q1873.8 239.55 1875.75 236.888 Q1877.69 234.203 1877.69 229.504 Q1877.69 224.805 1875.75 222.143 Q1873.8 219.458 1870.42 219.458 Q1867.04 219.458 1865.1 222.143 Q1863.18 224.805 1863.18 229.504 M1877.69 238.555 Q1876.35 240.87 1874.29 242.004 Q1872.25 243.115 1869.38 243.115 Q1864.68 243.115 1861.72 239.365 Q1858.78 235.615 1858.78 229.504 Q1858.78 223.393 1861.72 219.643 Q1864.68 215.893 1869.38 215.893 Q1872.25 215.893 1874.29 217.027 Q1876.35 218.138 1877.69 220.453 L1877.69 216.518 L1881.95 216.518 L1881.95 252.305 L1877.69 252.305 L1877.69 238.555 Z" fill="#000000" fill-rule="evenodd" fill-opacity="1" /><path clip-path="url(#clip850)" d="M 0 0 M1890.28 232.212 L1890.28 216.518 L1894.54 216.518 L1894.54 232.05 Q1894.54 235.731 1895.98 237.583 Q1897.41 239.411 1900.28 239.411 Q1903.73 239.411 1905.72 237.212 Q1907.74 235.013 1907.74 231.217 L1907.74 216.518 L1912 216.518 L1912 242.444 L1907.74 242.444 L1907.74 238.462 Q1906.19 240.823 1904.13 241.981 Q1902.09 243.115 1899.38 243.115 Q1894.91 243.115 1892.6 240.337 Q1890.28 237.559 1890.28 232.212 M1901 215.893 L1901 215.893 Z" fill="#000000" fill-rule="evenodd" fill-opacity="1" /><path clip-path="url(#clip850)" d="M 0 0 M1942.95 228.416 L1942.95 230.499 L1923.36 230.499 Q1923.64 234.897 1926 237.212 Q1928.39 239.504 1932.62 239.504 Q1935.08 239.504 1937.37 238.902 Q1939.68 238.3 1941.95 237.097 L1941.95 241.124 Q1939.66 242.096 1937.25 242.606 Q1934.84 243.115 1932.37 243.115 Q1926.16 243.115 1922.53 239.504 Q1918.92 235.893 1918.92 229.735 Q1918.92 223.37 1922.34 219.643 Q1925.79 215.893 1931.63 215.893 Q1936.86 215.893 1939.89 219.273 Q1942.95 222.629 1942.95 228.416 M1938.69 227.166 Q1938.64 223.671 1936.72 221.587 Q1934.82 219.504 1931.67 219.504 Q1928.11 219.504 1925.96 221.518 Q1923.83 223.532 1923.5 227.189 L1938.69 227.166 Z" fill="#000000" fill-rule="evenodd" fill-opacity="1" /><path clip-path="url(#clip850)" d="M 0 0 M1971.49 226.796 L1971.49 242.444 L1967.23 242.444 L1967.23 226.935 Q1967.23 223.254 1965.79 221.425 Q1964.36 219.597 1961.49 219.597 Q1958.04 219.597 1956.05 221.796 Q1954.06 223.995 1954.06 227.791 L1954.06 242.444 L1949.77 242.444 L1949.77 216.518 L1954.06 216.518 L1954.06 220.546 Q1955.58 218.208 1957.65 217.05 Q1959.73 215.893 1962.44 215.893 Q1966.9 215.893 1969.2 218.671 Q1971.49 221.425 1971.49 226.796 Z" fill="#000000" fill-rule="evenodd" fill-opacity="1" /><path clip-path="url(#clip850)" d="M 0 0 M1998.64 217.513 L1998.64 221.495 Q1996.83 220.499 1995.01 220.013 Q1993.2 219.504 1991.35 219.504 Q1987.21 219.504 1984.91 222.143 Q1982.62 224.759 1982.62 229.504 Q1982.62 234.249 1984.91 236.888 Q1987.21 239.504 1991.35 239.504 Q1993.2 239.504 1995.01 239.018 Q1996.83 238.509 1998.64 237.513 L1998.64 241.448 Q1996.86 242.282 1994.94 242.698 Q1993.04 243.115 1990.89 243.115 Q1985.03 243.115 1981.58 239.434 Q1978.13 235.754 1978.13 229.504 Q1978.13 223.161 1981.6 219.527 Q1985.1 215.893 1991.16 215.893 Q1993.13 215.893 1995.01 216.31 Q1996.88 216.703 1998.64 217.513 Z" fill="#000000" fill-rule="evenodd" fill-opacity="1" /><path clip-path="url(#clip850)" d="M 0 0 M2016.83 244.851 Q2015.03 249.481 2013.32 250.893 Q2011.6 252.305 2008.73 252.305 L2005.33 252.305 L2005.33 248.74 L2007.83 248.74 Q2009.59 248.74 2010.56 247.907 Q2011.53 247.073 2012.71 243.971 L2013.48 242.027 L2002.99 216.518 L2007.51 216.518 L2015.61 236.796 L2023.71 216.518 L2028.22 216.518 L2016.83 244.851 Z" fill="#000000" fill-rule="evenodd" fill-opacity="1" /><path clip-path="url(#clip850)" d="M 0 0 M2065.7 217.282 L2065.7 221.31 Q2063.89 220.384 2061.95 219.921 Q2060.01 219.458 2057.92 219.458 Q2054.75 219.458 2053.15 220.43 Q2051.58 221.402 2051.58 223.347 Q2051.58 224.828 2052.71 225.685 Q2053.85 226.518 2057.27 227.282 L2058.73 227.606 Q2063.27 228.578 2065.17 230.36 Q2067.09 232.12 2067.09 235.291 Q2067.09 238.902 2064.22 241.009 Q2061.37 243.115 2056.37 243.115 Q2054.29 243.115 2052.02 242.698 Q2049.77 242.305 2047.27 241.495 L2047.27 237.097 Q2049.64 238.323 2051.93 238.948 Q2054.22 239.55 2056.46 239.55 Q2059.47 239.55 2061.09 238.532 Q2062.71 237.49 2062.71 235.615 Q2062.71 233.879 2061.53 232.953 Q2060.38 232.027 2056.42 231.171 L2054.94 230.823 Q2050.98 229.99 2049.22 228.277 Q2047.46 226.541 2047.46 223.532 Q2047.46 219.874 2050.05 217.884 Q2052.64 215.893 2057.41 215.893 Q2059.77 215.893 2061.86 216.24 Q2063.94 216.587 2065.7 217.282 Z" fill="#000000" fill-rule="evenodd" fill-opacity="1" /><path clip-path="url(#clip850)" d="M 0 0 M2095.42 226.796 L2095.42 242.444 L2091.16 242.444 L2091.16 226.935 Q2091.16 223.254 2089.73 221.425 Q2088.29 219.597 2085.42 219.597 Q2081.97 219.597 2079.98 221.796 Q2077.99 223.995 2077.99 227.791 L2077.99 242.444 L2073.71 242.444 L2073.71 206.425 L2077.99 206.425 L2077.99 220.546 Q2079.52 218.208 2081.58 217.05 Q2083.66 215.893 2086.37 215.893 Q2090.84 215.893 2093.13 218.671 Q2095.42 221.425 2095.42 226.796 Z" fill="#000000" fill-rule="evenodd" fill-opacity="1" /><path clip-path="url(#clip850)" d="M 0 0 M2103.92 216.518 L2108.18 216.518 L2108.18 242.444 L2103.92 242.444 L2103.92 216.518 M2103.92 206.425 L2108.18 206.425 L2108.18 211.819 L2103.92 211.819 L2103.92 206.425 Z" fill="#000000" fill-rule="evenodd" fill-opacity="1" /><path clip-path="url(#clip850)" d="M 0 0 M2130.21 206.425 L2130.21 209.967 L2126.14 209.967 Q2123.85 209.967 2122.95 210.893 Q2122.07 211.819 2122.07 214.226 L2122.07 216.518 L2129.08 216.518 L2129.08 219.828 L2122.07 219.828 L2122.07 242.444 L2117.78 242.444 L2117.78 219.828 L2113.71 219.828 L2113.71 216.518 L2117.78 216.518 L2117.78 214.712 Q2117.78 210.384 2119.8 208.416 Q2121.81 206.425 2126.19 206.425 L2130.21 206.425 Z" fill="#000000" fill-rule="evenodd" fill-opacity="1" /><path clip-path="url(#clip850)" d="M 0 0 M2137.16 209.157 L2137.16 216.518 L2145.93 216.518 L2145.93 219.828 L2137.16 219.828 L2137.16 233.902 Q2137.16 237.073 2138.01 237.976 Q2138.89 238.879 2141.56 238.879 L2145.93 238.879 L2145.93 242.444 L2141.56 242.444 Q2136.63 242.444 2134.75 240.615 Q2132.88 238.763 2132.88 233.902 L2132.88 219.828 L2129.75 219.828 L2129.75 216.518 L2132.88 216.518 L2132.88 209.157 L2137.16 209.157 Z" fill="#000000" fill-rule="evenodd" fill-opacity="1" /></svg>
