<?xml version="1.0" encoding="utf-8"?>
<svg xmlns="http://www.w3.org/2000/svg" xmlns:xlink="http://www.w3.org/1999/xlink" width="576" height="384" viewBox="0 0 2304 1536">
<defs>
  <clipPath id="clip450">
    <rect x="0" y="0" width="2304" height="1536"/>
  </clipPath>
</defs>
<path clip-path="url(#clip450)" d="
M0 1536 L2304 1536 L2304 0 L0 0  Z
  " fill="#ffffff" fill-rule="evenodd" fill-opacity="1"/>
<defs>
  <clipPath id="clip451">
    <rect x="460" y="0" width="1614" height="1536"/>
  </clipPath>
</defs>
<path clip-path="url(#clip450)" d="
M249.068 1359.82 L2256.76 1359.82 L2256.76 123.472 L249.068 123.472  Z
  " fill="#ffffff" fill-rule="evenodd" fill-opacity="1"/>
<defs>
  <clipPath id="clip452">
    <rect x="249" y="123" width="2009" height="1237"/>
  </clipPath>
</defs>
<polyline clip-path="url(#clip452)" style="stroke:#000000; stroke-width:2; stroke-opacity:0.1; fill:none" points="
  305.889,1359.82 305.889,123.472 
  "/>
<polyline clip-path="url(#clip452)" style="stroke:#000000; stroke-width:2; stroke-opacity:0.1; fill:none" points="
  779.401,1359.82 779.401,123.472 
  "/>
<polyline clip-path="url(#clip452)" style="stroke:#000000; stroke-width:2; stroke-opacity:0.1; fill:none" points="
  1252.91,1359.82 1252.91,123.472 
  "/>
<polyline clip-path="url(#clip452)" style="stroke:#000000; stroke-width:2; stroke-opacity:0.1; fill:none" points="
  1726.42,1359.82 1726.42,123.472 
  "/>
<polyline clip-path="url(#clip452)" style="stroke:#000000; stroke-width:2; stroke-opacity:0.1; fill:none" points="
  2199.93,1359.82 2199.93,123.472 
  "/>
<polyline clip-path="url(#clip450)" style="stroke:#000000; stroke-width:4; stroke-opacity:1; fill:none" points="
  249.068,1359.82 2256.76,1359.82 
  "/>
<polyline clip-path="url(#clip450)" style="stroke:#000000; stroke-width:4; stroke-opacity:1; fill:none" points="
  305.889,1359.82 305.889,1344.98 
  "/>
<polyline clip-path="url(#clip450)" style="stroke:#000000; stroke-width:4; stroke-opacity:1; fill:none" points="
  779.401,1359.82 779.401,1344.98 
  "/>
<polyline clip-path="url(#clip450)" style="stroke:#000000; stroke-width:4; stroke-opacity:1; fill:none" points="
  1252.91,1359.82 1252.91,1344.98 
  "/>
<polyline clip-path="url(#clip450)" style="stroke:#000000; stroke-width:4; stroke-opacity:1; fill:none" points="
  1726.42,1359.82 1726.42,1344.98 
  "/>
<polyline clip-path="url(#clip450)" style="stroke:#000000; stroke-width:4; stroke-opacity:1; fill:none" points="
  2199.93,1359.82 2199.93,1344.98 
  "/>
<path clip-path="url(#clip450)" d="M 0 0 M305.889 1388.24 Q302.278 1388.24 300.45 1391.81 Q298.644 1395.35 298.644 1402.48 Q298.644 1409.59 300.45 1413.15 Q302.278 1416.69 305.889 1416.69 Q309.524 1416.69 311.329 1413.15 Q313.158 1409.59 313.158 1402.48 Q313.158 1395.35 311.329 1391.81 Q309.524 1388.24 305.889 1388.24 M305.889 1384.54 Q311.7 1384.54 314.755 1389.15 Q317.834 1393.73 317.834 1402.48 Q317.834 1411.21 314.755 1415.81 Q311.7 1420.4 305.889 1420.4 Q300.079 1420.4 297.001 1415.81 Q293.945 1411.21 293.945 1402.48 Q293.945 1393.73 297.001 1389.15 Q300.079 1384.54 305.889 1384.54 Z" fill="#000000" fill-rule="evenodd" fill-opacity="1" /><path clip-path="url(#clip450)" d="M 0 0 M769.679 1385.16 L788.035 1385.16 L788.035 1389.1 L773.961 1389.1 L773.961 1397.57 Q774.979 1397.22 775.998 1397.06 Q777.017 1396.88 778.035 1396.88 Q783.822 1396.88 787.202 1400.05 Q790.581 1403.22 790.581 1408.64 Q790.581 1414.21 787.109 1417.32 Q783.637 1420.4 777.317 1420.4 Q775.142 1420.4 772.873 1420.02 Q770.628 1419.65 768.22 1418.91 L768.22 1414.21 Q770.304 1415.35 772.526 1415.9 Q774.748 1416.46 777.225 1416.46 Q781.229 1416.46 783.567 1414.35 Q785.905 1412.25 785.905 1408.64 Q785.905 1405.02 783.567 1402.92 Q781.229 1400.81 777.225 1400.81 Q775.35 1400.81 773.475 1401.23 Q771.623 1401.65 769.679 1402.52 L769.679 1385.16 Z" fill="#000000" fill-rule="evenodd" fill-opacity="1" /><path clip-path="url(#clip450)" d="M 0 0 M1227.6 1415.79 L1235.24 1415.79 L1235.24 1389.42 L1226.93 1391.09 L1226.93 1386.83 L1235.19 1385.16 L1239.87 1385.16 L1239.87 1415.79 L1247.51 1415.79 L1247.51 1419.72 L1227.6 1419.72 L1227.6 1415.79 Z" fill="#000000" fill-rule="evenodd" fill-opacity="1" /><path clip-path="url(#clip450)" d="M 0 0 M1266.95 1388.24 Q1263.34 1388.24 1261.51 1391.81 Q1259.71 1395.35 1259.71 1402.48 Q1259.71 1409.59 1261.51 1413.15 Q1263.34 1416.69 1266.95 1416.69 Q1270.59 1416.69 1272.39 1413.15 Q1274.22 1409.59 1274.22 1402.48 Q1274.22 1395.35 1272.39 1391.81 Q1270.59 1388.24 1266.95 1388.24 M1266.95 1384.54 Q1272.76 1384.54 1275.82 1389.15 Q1278.9 1393.73 1278.9 1402.48 Q1278.9 1411.21 1275.82 1415.81 Q1272.76 1420.4 1266.95 1420.4 Q1261.14 1420.4 1258.06 1415.81 Q1255.01 1411.21 1255.01 1402.48 Q1255.01 1393.73 1258.06 1389.15 Q1261.14 1384.54 1266.95 1384.54 Z" fill="#000000" fill-rule="evenodd" fill-opacity="1" /><path clip-path="url(#clip450)" d="M 0 0 M1701.61 1415.79 L1709.25 1415.79 L1709.25 1389.42 L1700.94 1391.09 L1700.94 1386.83 L1709.2 1385.16 L1713.88 1385.16 L1713.88 1415.79 L1721.52 1415.79 L1721.52 1419.72 L1701.61 1419.72 L1701.61 1415.79 Z" fill="#000000" fill-rule="evenodd" fill-opacity="1" /><path clip-path="url(#clip450)" d="M 0 0 M1731.01 1385.16 L1749.36 1385.16 L1749.36 1389.1 L1735.29 1389.1 L1735.29 1397.57 Q1736.31 1397.22 1737.33 1397.06 Q1738.34 1396.88 1739.36 1396.88 Q1745.15 1396.88 1748.53 1400.05 Q1751.91 1403.22 1751.91 1408.64 Q1751.91 1414.21 1748.44 1417.32 Q1744.96 1420.4 1738.65 1420.4 Q1736.47 1420.4 1734.2 1420.02 Q1731.96 1419.65 1729.55 1418.91 L1729.55 1414.21 Q1731.63 1415.35 1733.85 1415.9 Q1736.08 1416.46 1738.55 1416.46 Q1742.56 1416.46 1744.9 1414.35 Q1747.23 1412.25 1747.23 1408.64 Q1747.23 1405.02 1744.9 1402.92 Q1742.56 1400.81 1738.55 1400.81 Q1736.68 1400.81 1734.8 1401.23 Q1732.95 1401.65 1731.01 1402.52 L1731.01 1385.16 Z" fill="#000000" fill-rule="evenodd" fill-opacity="1" /><path clip-path="url(#clip450)" d="M 0 0 M2178.71 1415.79 L2195.03 1415.79 L2195.03 1419.72 L2173.08 1419.72 L2173.08 1415.79 Q2175.74 1413.03 2180.33 1408.4 Q2184.93 1403.75 2186.12 1402.41 Q2188.36 1399.89 2189.24 1398.15 Q2190.14 1396.39 2190.14 1394.7 Q2190.14 1391.95 2188.2 1390.21 Q2186.28 1388.47 2183.18 1388.47 Q2180.98 1388.47 2178.52 1389.24 Q2176.09 1390 2173.31 1391.55 L2173.31 1386.83 Q2176.14 1385.7 2178.59 1385.12 Q2181.05 1384.54 2183.08 1384.54 Q2188.45 1384.54 2191.65 1387.22 Q2194.84 1389.91 2194.84 1394.4 Q2194.84 1396.53 2194.03 1398.45 Q2193.24 1400.35 2191.14 1402.94 Q2190.56 1403.61 2187.46 1406.83 Q2184.36 1410.02 2178.71 1415.79 Z" fill="#000000" fill-rule="evenodd" fill-opacity="1" /><path clip-path="url(#clip450)" d="M 0 0 M2214.84 1388.24 Q2211.23 1388.24 2209.4 1391.81 Q2207.6 1395.35 2207.6 1402.48 Q2207.6 1409.59 2209.4 1413.15 Q2211.23 1416.69 2214.84 1416.69 Q2218.48 1416.69 2220.28 1413.15 Q2222.11 1409.59 2222.11 1402.48 Q2222.11 1395.35 2220.28 1391.81 Q2218.48 1388.24 2214.84 1388.24 M2214.84 1384.54 Q2220.65 1384.54 2223.71 1389.15 Q2226.79 1393.73 2226.79 1402.48 Q2226.79 1411.21 2223.71 1415.81 Q2220.65 1420.4 2214.84 1420.4 Q2209.03 1420.4 2205.95 1415.81 Q2202.9 1411.21 2202.9 1402.48 Q2202.9 1393.73 2205.95 1389.15 Q2209.03 1384.54 2214.84 1384.54 Z" fill="#000000" fill-rule="evenodd" fill-opacity="1" /><path clip-path="url(#clip450)" d="M 0 0 M1119.71 1457.47 L1119.71 1467.6 L1131.77 1467.6 L1131.77 1472.15 L1119.71 1472.15 L1119.71 1491.5 Q1119.71 1495.86 1120.89 1497.1 Q1122.1 1498.34 1125.76 1498.34 L1131.77 1498.34 L1131.77 1503.24 L1125.76 1503.24 Q1118.98 1503.24 1116.4 1500.73 Q1113.82 1498.18 1113.82 1491.5 L1113.82 1472.15 L1109.52 1472.15 L1109.52 1467.6 L1113.82 1467.6 L1113.82 1457.47 L1119.71 1457.47 Z" fill="#000000" fill-rule="evenodd" fill-opacity="1" /><path clip-path="url(#clip450)" d="M 0 0 M1139.48 1467.6 L1145.33 1467.6 L1145.33 1503.24 L1139.48 1503.24 L1139.48 1467.6 M1139.48 1453.72 L1145.33 1453.72 L1145.33 1461.13 L1139.48 1461.13 L1139.48 1453.72 Z" fill="#000000" fill-rule="evenodd" fill-opacity="1" /><path clip-path="url(#clip450)" d="M 0 0 M1185.34 1474.44 Q1187.54 1470.49 1190.59 1468.61 Q1193.65 1466.74 1197.79 1466.74 Q1203.35 1466.74 1206.38 1470.65 Q1209.4 1474.53 1209.4 1481.73 L1209.4 1503.24 L1203.51 1503.24 L1203.51 1481.92 Q1203.51 1476.79 1201.7 1474.31 Q1199.89 1471.83 1196.16 1471.83 Q1191.61 1471.83 1188.97 1474.85 Q1186.33 1477.88 1186.33 1483.1 L1186.33 1503.24 L1180.44 1503.24 L1180.44 1481.92 Q1180.44 1476.76 1178.62 1474.31 Q1176.81 1471.83 1173.02 1471.83 Q1168.53 1471.83 1165.89 1474.88 Q1163.25 1477.91 1163.25 1483.1 L1163.25 1503.24 L1157.36 1503.24 L1157.36 1467.6 L1163.25 1467.6 L1163.25 1473.13 Q1165.26 1469.86 1168.06 1468.3 Q1170.86 1466.74 1174.71 1466.74 Q1178.59 1466.74 1181.3 1468.71 Q1184.04 1470.68 1185.34 1474.44 Z" fill="#000000" fill-rule="evenodd" fill-opacity="1" /><path clip-path="url(#clip450)" d="M 0 0 M1251.58 1483.96 L1251.58 1486.82 L1224.65 1486.82 Q1225.03 1492.87 1228.28 1496.05 Q1231.56 1499.2 1237.38 1499.2 Q1240.75 1499.2 1243.9 1498.37 Q1247.09 1497.55 1250.21 1495.89 L1250.21 1501.43 Q1247.06 1502.77 1243.75 1503.47 Q1240.44 1504.17 1237.03 1504.17 Q1228.5 1504.17 1223.5 1499.2 Q1218.54 1494.24 1218.54 1485.77 Q1218.54 1477.02 1223.25 1471.89 Q1227.99 1466.74 1236.01 1466.74 Q1243.2 1466.74 1247.37 1471.38 Q1251.58 1476 1251.58 1483.96 M1245.72 1482.24 Q1245.66 1477.43 1243.01 1474.57 Q1240.4 1471.7 1236.07 1471.7 Q1231.17 1471.7 1228.21 1474.47 Q1225.28 1477.24 1224.84 1482.27 L1245.72 1482.24 Z" fill="#000000" fill-rule="evenodd" fill-opacity="1" /><path clip-path="url(#clip450)" d="M 0 0 M1295.98 1453.78 Q1291.71 1461.1 1289.64 1468.26 Q1287.57 1475.43 1287.57 1482.78 Q1287.57 1490.13 1289.64 1497.36 Q1291.74 1504.55 1295.98 1511.84 L1290.88 1511.84 Q1286.11 1504.36 1283.72 1497.13 Q1281.37 1489.91 1281.37 1482.78 Q1281.37 1475.68 1283.72 1468.49 Q1286.08 1461.29 1290.88 1453.78 L1295.98 1453.78 Z" fill="#000000" fill-rule="evenodd" fill-opacity="1" /><path clip-path="url(#clip450)" d="M 0 0 M1336.97 1481.73 L1336.97 1503.24 L1331.11 1503.24 L1331.11 1481.92 Q1331.11 1476.86 1329.14 1474.34 Q1327.17 1471.83 1323.22 1471.83 Q1318.48 1471.83 1315.74 1474.85 Q1313 1477.88 1313 1483.1 L1313 1503.24 L1307.12 1503.24 L1307.12 1467.6 L1313 1467.6 L1313 1473.13 Q1315.1 1469.92 1317.94 1468.33 Q1320.8 1466.74 1324.53 1466.74 Q1330.67 1466.74 1333.82 1470.56 Q1336.97 1474.34 1336.97 1481.73 Z" fill="#000000" fill-rule="evenodd" fill-opacity="1" /><path clip-path="url(#clip450)" d="M 0 0 M1371.38 1468.65 L1371.38 1474.18 Q1368.9 1472.91 1366.22 1472.27 Q1363.55 1471.64 1360.68 1471.64 Q1356.32 1471.64 1354.13 1472.97 Q1351.96 1474.31 1351.96 1476.99 Q1351.96 1479.02 1353.52 1480.2 Q1355.08 1481.35 1359.79 1482.4 L1361.8 1482.84 Q1368.04 1484.18 1370.65 1486.63 Q1373.29 1489.05 1373.29 1493.41 Q1373.29 1498.37 1369.34 1501.27 Q1365.43 1504.17 1358.55 1504.17 Q1355.69 1504.17 1352.57 1503.59 Q1349.48 1503.05 1346.04 1501.94 L1346.04 1495.89 Q1349.29 1497.58 1352.44 1498.44 Q1355.59 1499.27 1358.68 1499.27 Q1362.82 1499.27 1365.04 1497.86 Q1367.27 1496.43 1367.27 1493.85 Q1367.27 1491.47 1365.65 1490.19 Q1364.06 1488.92 1358.61 1487.74 L1356.58 1487.27 Q1351.13 1486.12 1348.72 1483.76 Q1346.3 1481.38 1346.3 1477.24 Q1346.3 1472.21 1349.86 1469.47 Q1353.43 1466.74 1359.98 1466.74 Q1363.23 1466.74 1366.09 1467.21 Q1368.96 1467.69 1371.38 1468.65 Z" fill="#000000" fill-rule="evenodd" fill-opacity="1" /><path clip-path="url(#clip450)" d="M 0 0 M1381.69 1453.78 L1386.78 1453.78 Q1391.56 1461.29 1393.91 1468.49 Q1396.3 1475.68 1396.3 1482.78 Q1396.3 1489.91 1393.91 1497.13 Q1391.56 1504.36 1386.78 1511.84 L1381.69 1511.84 Q1385.92 1504.55 1387.99 1497.36 Q1390.09 1490.13 1390.09 1482.78 Q1390.09 1475.43 1387.99 1468.26 Q1385.92 1461.1 1381.69 1453.78 Z" fill="#000000" fill-rule="evenodd" fill-opacity="1" /><polyline clip-path="url(#clip452)" style="stroke:#000000; stroke-width:2; stroke-opacity:0.1; fill:none" points="
  249.068,1324.99 2256.76,1324.99 
  "/>
<polyline clip-path="url(#clip452)" style="stroke:#000000; stroke-width:2; stroke-opacity:0.1; fill:none" points="
  249.068,1102.23 2256.76,1102.23 
  "/>
<polyline clip-path="url(#clip452)" style="stroke:#000000; stroke-width:2; stroke-opacity:0.1; fill:none" points="
  249.068,879.477 2256.76,879.477 
  "/>
<polyline clip-path="url(#clip452)" style="stroke:#000000; stroke-width:2; stroke-opacity:0.1; fill:none" points="
  249.068,656.72 2256.76,656.72 
  "/>
<polyline clip-path="url(#clip452)" style="stroke:#000000; stroke-width:2; stroke-opacity:0.1; fill:none" points="
  249.068,433.962 2256.76,433.962 
  "/>
<polyline clip-path="url(#clip452)" style="stroke:#000000; stroke-width:2; stroke-opacity:0.1; fill:none" points="
  249.068,211.204 2256.76,211.204 
  "/>
<polyline clip-path="url(#clip450)" style="stroke:#000000; stroke-width:4; stroke-opacity:1; fill:none" points="
  249.068,1359.82 249.068,123.472 
  "/>
<polyline clip-path="url(#clip450)" style="stroke:#000000; stroke-width:4; stroke-opacity:1; fill:none" points="
  249.068,1324.99 273.16,1324.99 
  "/>
<polyline clip-path="url(#clip450)" style="stroke:#000000; stroke-width:4; stroke-opacity:1; fill:none" points="
  249.068,1102.23 273.16,1102.23 
  "/>
<polyline clip-path="url(#clip450)" style="stroke:#000000; stroke-width:4; stroke-opacity:1; fill:none" points="
  249.068,879.477 273.16,879.477 
  "/>
<polyline clip-path="url(#clip450)" style="stroke:#000000; stroke-width:4; stroke-opacity:1; fill:none" points="
  249.068,656.72 273.16,656.72 
  "/>
<polyline clip-path="url(#clip450)" style="stroke:#000000; stroke-width:4; stroke-opacity:1; fill:none" points="
  249.068,433.962 273.16,433.962 
  "/>
<polyline clip-path="url(#clip450)" style="stroke:#000000; stroke-width:4; stroke-opacity:1; fill:none" points="
  249.068,211.204 273.16,211.204 
  "/>
<path clip-path="url(#clip450)" d="M 0 0 M127.171 1310.79 Q123.56 1310.79 121.731 1314.36 Q119.925 1317.9 119.925 1325.03 Q119.925 1332.13 121.731 1335.7 Q123.56 1339.24 127.171 1339.24 Q130.805 1339.24 132.61 1335.7 Q134.439 1332.13 134.439 1325.03 Q134.439 1317.9 132.61 1314.36 Q130.805 1310.79 127.171 1310.79 M127.171 1307.09 Q132.981 1307.09 136.036 1311.69 Q139.115 1316.28 139.115 1325.03 Q139.115 1333.75 136.036 1338.36 Q132.981 1342.94 127.171 1342.94 Q121.36 1342.94 118.282 1338.36 Q115.226 1333.75 115.226 1325.03 Q115.226 1316.28 118.282 1311.69 Q121.36 1307.09 127.171 1307.09 Z" fill="#000000" fill-rule="evenodd" fill-opacity="1" /><path clip-path="url(#clip450)" d="M 0 0 M147.333 1336.39 L152.217 1336.39 L152.217 1342.27 L147.333 1342.27 L147.333 1336.39 Z" fill="#000000" fill-rule="evenodd" fill-opacity="1" /><path clip-path="url(#clip450)" d="M 0 0 M172.402 1310.79 Q168.791 1310.79 166.962 1314.36 Q165.157 1317.9 165.157 1325.03 Q165.157 1332.13 166.962 1335.7 Q168.791 1339.24 172.402 1339.24 Q176.036 1339.24 177.842 1335.7 Q179.67 1332.13 179.67 1325.03 Q179.67 1317.9 177.842 1314.36 Q176.036 1310.79 172.402 1310.79 M172.402 1307.09 Q178.212 1307.09 181.268 1311.69 Q184.346 1316.28 184.346 1325.03 Q184.346 1333.75 181.268 1338.36 Q178.212 1342.94 172.402 1342.94 Q166.592 1342.94 163.513 1338.36 Q160.458 1333.75 160.458 1325.03 Q160.458 1316.28 163.513 1311.69 Q166.592 1307.09 172.402 1307.09 Z" fill="#000000" fill-rule="evenodd" fill-opacity="1" /><path clip-path="url(#clip450)" d="M 0 0 M202.564 1310.79 Q198.953 1310.79 197.124 1314.36 Q195.318 1317.9 195.318 1325.03 Q195.318 1332.13 197.124 1335.7 Q198.953 1339.24 202.564 1339.24 Q206.198 1339.24 208.004 1335.7 Q209.832 1332.13 209.832 1325.03 Q209.832 1317.9 208.004 1314.36 Q206.198 1310.79 202.564 1310.79 M202.564 1307.09 Q208.374 1307.09 211.429 1311.69 Q214.508 1316.28 214.508 1325.03 Q214.508 1333.75 211.429 1338.36 Q208.374 1342.94 202.564 1342.94 Q196.754 1342.94 193.675 1338.36 Q190.619 1333.75 190.619 1325.03 Q190.619 1316.28 193.675 1311.69 Q196.754 1307.09 202.564 1307.09 Z" fill="#000000" fill-rule="evenodd" fill-opacity="1" /><path clip-path="url(#clip450)" d="M 0 0 M128.397 1088.03 Q124.786 1088.03 122.958 1091.6 Q121.152 1095.14 121.152 1102.27 Q121.152 1109.38 122.958 1112.94 Q124.786 1116.48 128.397 1116.48 Q132.032 1116.48 133.837 1112.94 Q135.666 1109.38 135.666 1102.27 Q135.666 1095.14 133.837 1091.6 Q132.032 1088.03 128.397 1088.03 M128.397 1084.33 Q134.208 1084.33 137.263 1088.94 Q140.342 1093.52 140.342 1102.27 Q140.342 1111 137.263 1115.6 Q134.208 1120.19 128.397 1120.19 Q122.587 1120.19 119.509 1115.6 Q116.453 1111 116.453 1102.27 Q116.453 1093.52 119.509 1088.94 Q122.587 1084.33 128.397 1084.33 Z" fill="#000000" fill-rule="evenodd" fill-opacity="1" /><path clip-path="url(#clip450)" d="M 0 0 M148.559 1113.64 L153.444 1113.64 L153.444 1119.51 L148.559 1119.51 L148.559 1113.64 Z" fill="#000000" fill-rule="evenodd" fill-opacity="1" /><path clip-path="url(#clip450)" d="M 0 0 M173.629 1088.03 Q170.018 1088.03 168.189 1091.6 Q166.383 1095.14 166.383 1102.27 Q166.383 1109.38 168.189 1112.94 Q170.018 1116.48 173.629 1116.48 Q177.263 1116.48 179.069 1112.94 Q180.897 1109.38 180.897 1102.27 Q180.897 1095.14 179.069 1091.6 Q177.263 1088.03 173.629 1088.03 M173.629 1084.33 Q179.439 1084.33 182.494 1088.94 Q185.573 1093.52 185.573 1102.27 Q185.573 1111 182.494 1115.6 Q179.439 1120.19 173.629 1120.19 Q167.819 1120.19 164.74 1115.6 Q161.684 1111 161.684 1102.27 Q161.684 1093.52 164.74 1088.94 Q167.819 1084.33 173.629 1084.33 Z" fill="#000000" fill-rule="evenodd" fill-opacity="1" /><path clip-path="url(#clip450)" d="M 0 0 M194.601 1115.58 L202.24 1115.58 L202.24 1089.21 L193.93 1090.88 L193.93 1086.62 L202.193 1084.95 L206.869 1084.95 L206.869 1115.58 L214.508 1115.58 L214.508 1119.51 L194.601 1119.51 L194.601 1115.58 Z" fill="#000000" fill-rule="evenodd" fill-opacity="1" /><path clip-path="url(#clip450)" d="M 0 0 M128.768 865.276 Q125.157 865.276 123.328 868.841 Q121.523 872.382 121.523 879.512 Q121.523 886.618 123.328 890.183 Q125.157 893.725 128.768 893.725 Q132.402 893.725 134.208 890.183 Q136.036 886.618 136.036 879.512 Q136.036 872.382 134.208 868.841 Q132.402 865.276 128.768 865.276 M128.768 861.572 Q134.578 861.572 137.634 866.179 Q140.712 870.762 140.712 879.512 Q140.712 888.239 137.634 892.845 Q134.578 897.429 128.768 897.429 Q122.958 897.429 119.879 892.845 Q116.823 888.239 116.823 879.512 Q116.823 870.762 119.879 866.179 Q122.958 861.572 128.768 861.572 Z" fill="#000000" fill-rule="evenodd" fill-opacity="1" /><path clip-path="url(#clip450)" d="M 0 0 M148.93 890.878 L153.814 890.878 L153.814 896.757 L148.93 896.757 L148.93 890.878 Z" fill="#000000" fill-rule="evenodd" fill-opacity="1" /><path clip-path="url(#clip450)" d="M 0 0 M173.999 865.276 Q170.388 865.276 168.559 868.841 Q166.754 872.382 166.754 879.512 Q166.754 886.618 168.559 890.183 Q170.388 893.725 173.999 893.725 Q177.633 893.725 179.439 890.183 Q181.268 886.618 181.268 879.512 Q181.268 872.382 179.439 868.841 Q177.633 865.276 173.999 865.276 M173.999 861.572 Q179.809 861.572 182.865 866.179 Q185.943 870.762 185.943 879.512 Q185.943 888.239 182.865 892.845 Q179.809 897.429 173.999 897.429 Q168.189 897.429 165.11 892.845 Q162.055 888.239 162.055 879.512 Q162.055 870.762 165.11 866.179 Q168.189 861.572 173.999 861.572 Z" fill="#000000" fill-rule="evenodd" fill-opacity="1" /><path clip-path="url(#clip450)" d="M 0 0 M198.189 892.822 L214.508 892.822 L214.508 896.757 L192.564 896.757 L192.564 892.822 Q195.226 890.067 199.809 885.438 Q204.416 880.785 205.596 879.443 Q207.842 876.919 208.721 875.183 Q209.624 873.424 209.624 871.734 Q209.624 868.98 207.679 867.244 Q205.758 865.507 202.656 865.507 Q200.457 865.507 198.004 866.271 Q195.573 867.035 192.795 868.586 L192.795 863.864 Q195.619 862.73 198.073 862.151 Q200.527 861.572 202.564 861.572 Q207.934 861.572 211.129 864.257 Q214.323 866.943 214.323 871.433 Q214.323 873.563 213.513 875.484 Q212.726 877.382 210.619 879.975 Q210.041 880.646 206.939 883.864 Q203.837 887.058 198.189 892.822 Z" fill="#000000" fill-rule="evenodd" fill-opacity="1" /><path clip-path="url(#clip450)" d="M 0 0 M127.819 642.518 Q124.208 642.518 122.379 646.083 Q120.573 649.625 120.573 656.754 Q120.573 663.861 122.379 667.426 Q124.208 670.967 127.819 670.967 Q131.453 670.967 133.259 667.426 Q135.087 663.861 135.087 656.754 Q135.087 649.625 133.259 646.083 Q131.453 642.518 127.819 642.518 M127.819 638.815 Q133.629 638.815 136.684 643.421 Q139.763 648.004 139.763 656.754 Q139.763 665.481 136.684 670.088 Q133.629 674.671 127.819 674.671 Q122.009 674.671 118.93 670.088 Q115.874 665.481 115.874 656.754 Q115.874 648.004 118.93 643.421 Q122.009 638.815 127.819 638.815 Z" fill="#000000" fill-rule="evenodd" fill-opacity="1" /><path clip-path="url(#clip450)" d="M 0 0 M147.981 668.12 L152.865 668.12 L152.865 674 L147.981 674 L147.981 668.12 Z" fill="#000000" fill-rule="evenodd" fill-opacity="1" /><path clip-path="url(#clip450)" d="M 0 0 M173.05 642.518 Q169.439 642.518 167.61 646.083 Q165.805 649.625 165.805 656.754 Q165.805 663.861 167.61 667.426 Q169.439 670.967 173.05 670.967 Q176.684 670.967 178.49 667.426 Q180.319 663.861 180.319 656.754 Q180.319 649.625 178.49 646.083 Q176.684 642.518 173.05 642.518 M173.05 638.815 Q178.86 638.815 181.916 643.421 Q184.994 648.004 184.994 656.754 Q184.994 665.481 181.916 670.088 Q178.86 674.671 173.05 674.671 Q167.24 674.671 164.161 670.088 Q161.106 665.481 161.106 656.754 Q161.106 648.004 164.161 643.421 Q167.24 638.815 173.05 638.815 Z" fill="#000000" fill-rule="evenodd" fill-opacity="1" /><path clip-path="url(#clip450)" d="M 0 0 M207.379 655.365 Q210.735 656.083 212.61 658.352 Q214.508 660.62 214.508 663.953 Q214.508 669.069 210.99 671.87 Q207.471 674.671 200.99 674.671 Q198.814 674.671 196.499 674.231 Q194.207 673.814 191.754 672.958 L191.754 668.444 Q193.698 669.578 196.013 670.157 Q198.328 670.736 200.851 670.736 Q205.249 670.736 207.541 669 Q209.855 667.263 209.855 663.953 Q209.855 660.898 207.703 659.185 Q205.573 657.449 201.754 657.449 L197.726 657.449 L197.726 653.606 L201.939 653.606 Q205.388 653.606 207.217 652.24 Q209.045 650.852 209.045 648.259 Q209.045 645.597 207.147 644.185 Q205.272 642.75 201.754 642.75 Q199.832 642.75 197.633 643.166 Q195.434 643.583 192.795 644.463 L192.795 640.296 Q195.457 639.555 197.772 639.185 Q200.11 638.815 202.17 638.815 Q207.494 638.815 210.596 641.245 Q213.698 643.653 213.698 647.773 Q213.698 650.643 212.054 652.634 Q210.411 654.602 207.379 655.365 Z" fill="#000000" fill-rule="evenodd" fill-opacity="1" /><path clip-path="url(#clip450)" d="M 0 0 M126.685 419.761 Q123.073 419.761 121.245 423.325 Q119.439 426.867 119.439 433.997 Q119.439 441.103 121.245 444.668 Q123.073 448.209 126.685 448.209 Q130.319 448.209 132.124 444.668 Q133.953 441.103 133.953 433.997 Q133.953 426.867 132.124 423.325 Q130.319 419.761 126.685 419.761 M126.685 416.057 Q132.495 416.057 135.55 420.663 Q138.629 425.247 138.629 433.997 Q138.629 442.723 135.55 447.33 Q132.495 451.913 126.685 451.913 Q120.874 451.913 117.796 447.33 Q114.74 442.723 114.74 433.997 Q114.74 425.247 117.796 420.663 Q120.874 416.057 126.685 416.057 Z" fill="#000000" fill-rule="evenodd" fill-opacity="1" /><path clip-path="url(#clip450)" d="M 0 0 M146.846 445.362 L151.731 445.362 L151.731 451.242 L146.846 451.242 L146.846 445.362 Z" fill="#000000" fill-rule="evenodd" fill-opacity="1" /><path clip-path="url(#clip450)" d="M 0 0 M171.916 419.761 Q168.305 419.761 166.476 423.325 Q164.67 426.867 164.67 433.997 Q164.67 441.103 166.476 444.668 Q168.305 448.209 171.916 448.209 Q175.55 448.209 177.356 444.668 Q179.184 441.103 179.184 433.997 Q179.184 426.867 177.356 423.325 Q175.55 419.761 171.916 419.761 M171.916 416.057 Q177.726 416.057 180.781 420.663 Q183.86 425.247 183.86 433.997 Q183.86 442.723 180.781 447.33 Q177.726 451.913 171.916 451.913 Q166.106 451.913 163.027 447.33 Q159.971 442.723 159.971 433.997 Q159.971 425.247 163.027 420.663 Q166.106 416.057 171.916 416.057 Z" fill="#000000" fill-rule="evenodd" fill-opacity="1" /><path clip-path="url(#clip450)" d="M 0 0 M204.925 420.756 L193.119 439.205 L204.925 439.205 L204.925 420.756 M203.698 416.682 L209.578 416.682 L209.578 439.205 L214.508 439.205 L214.508 443.094 L209.578 443.094 L209.578 451.242 L204.925 451.242 L204.925 443.094 L189.323 443.094 L189.323 438.58 L203.698 416.682 Z" fill="#000000" fill-rule="evenodd" fill-opacity="1" /><path clip-path="url(#clip450)" d="M 0 0 M128.166 197.003 Q124.555 197.003 122.726 200.568 Q120.921 204.109 120.921 211.239 Q120.921 218.345 122.726 221.91 Q124.555 225.452 128.166 225.452 Q131.8 225.452 133.606 221.91 Q135.434 218.345 135.434 211.239 Q135.434 204.109 133.606 200.568 Q131.8 197.003 128.166 197.003 M128.166 193.299 Q133.976 193.299 137.032 197.906 Q140.11 202.489 140.11 211.239 Q140.11 219.966 137.032 224.572 Q133.976 229.155 128.166 229.155 Q122.356 229.155 119.277 224.572 Q116.222 219.966 116.222 211.239 Q116.222 202.489 119.277 197.906 Q122.356 193.299 128.166 193.299 Z" fill="#000000" fill-rule="evenodd" fill-opacity="1" /><path clip-path="url(#clip450)" d="M 0 0 M148.328 222.605 L153.212 222.605 L153.212 228.484 L148.328 228.484 L148.328 222.605 Z" fill="#000000" fill-rule="evenodd" fill-opacity="1" /><path clip-path="url(#clip450)" d="M 0 0 M173.397 197.003 Q169.786 197.003 167.957 200.568 Q166.152 204.109 166.152 211.239 Q166.152 218.345 167.957 221.91 Q169.786 225.452 173.397 225.452 Q177.031 225.452 178.837 221.91 Q180.666 218.345 180.666 211.239 Q180.666 204.109 178.837 200.568 Q177.031 197.003 173.397 197.003 M173.397 193.299 Q179.207 193.299 182.263 197.906 Q185.342 202.489 185.342 211.239 Q185.342 219.966 182.263 224.572 Q179.207 229.155 173.397 229.155 Q167.587 229.155 164.508 224.572 Q161.453 219.966 161.453 211.239 Q161.453 202.489 164.508 197.906 Q167.587 193.299 173.397 193.299 Z" fill="#000000" fill-rule="evenodd" fill-opacity="1" /><path clip-path="url(#clip450)" d="M 0 0 M193.605 193.924 L211.962 193.924 L211.962 197.859 L197.888 197.859 L197.888 206.332 Q198.906 205.984 199.925 205.822 Q200.943 205.637 201.962 205.637 Q207.749 205.637 211.129 208.808 Q214.508 211.98 214.508 217.396 Q214.508 222.975 211.036 226.077 Q207.564 229.155 201.244 229.155 Q199.068 229.155 196.8 228.785 Q194.555 228.415 192.147 227.674 L192.147 222.975 Q194.23 224.109 196.453 224.665 Q198.675 225.22 201.152 225.22 Q205.156 225.22 207.494 223.114 Q209.832 221.007 209.832 217.396 Q209.832 213.785 207.494 211.679 Q205.156 209.572 201.152 209.572 Q199.277 209.572 197.402 209.989 Q195.55 210.406 193.605 211.285 L193.605 193.924 Z" fill="#000000" fill-rule="evenodd" fill-opacity="1" /><path clip-path="url(#clip450)" d="M 0 0 M24.738 1022.71 L48.3866 1031.43 L48.3866 1013.95 L24.738 1022.71 M18.4042 1026.34 L18.4042 1019.05 L65.9242 1000.94 L65.9242 1007.62 L53.7338 1011.95 L53.7338 1033.37 L65.9242 1037.7 L65.9242 1044.48 L18.4042 1026.34 Z" fill="#000000" fill-rule="evenodd" fill-opacity="1" /><path clip-path="url(#clip450)" d="M 0 0 M30.2762 1002.27 L30.2762 996.067 L60.195 984.927 L30.2762 973.787 L30.2762 967.581 L65.9242 980.949 L65.9242 988.906 L30.2762 1002.27 Z" fill="#000000" fill-rule="evenodd" fill-opacity="1" /><path clip-path="url(#clip450)" d="M 0 0 M47.6864 936.039 Q41.3207 936.039 37.8196 938.681 Q34.3184 941.29 34.3184 946.033 Q34.3184 950.744 37.8196 953.385 Q41.3207 955.995 47.6864 955.995 Q54.0203 955.995 57.5214 953.385 Q61.0226 950.744 61.0226 946.033 Q61.0226 941.29 57.5214 938.681 Q54.0203 936.039 47.6864 936.039 M61.5 930.182 Q70.603 930.182 75.0271 934.225 Q79.4831 938.267 79.4831 946.606 Q79.4831 949.693 79.0057 952.43 Q78.5601 955.168 77.6052 957.746 L71.9079 957.746 Q73.3084 955.168 73.9768 952.653 Q74.6452 950.139 74.6452 947.529 Q74.6452 941.768 71.6215 938.903 Q68.6296 936.039 62.5503 936.039 L59.6539 936.039 Q62.805 937.853 64.3646 940.686 Q65.9242 943.518 65.9242 947.465 Q65.9242 954.022 60.9271 958.032 Q55.93 962.043 47.6864 962.043 Q39.411 962.043 34.4139 958.032 Q29.4168 954.022 29.4168 947.465 Q29.4168 943.518 30.9764 940.686 Q32.536 937.853 35.6871 936.039 L30.2762 936.039 L30.2762 930.182 L61.5 930.182 Z" fill="#000000" fill-rule="evenodd" fill-opacity="1" /><path clip-path="url(#clip450)" d="M 0 0 M60.577 891.733 L79.4831 891.733 L79.4831 897.622 L30.2762 897.622 L30.2762 891.733 L35.6871 891.733 Q32.5042 889.887 30.9764 887.086 Q29.4168 884.254 29.4168 880.339 Q29.4168 873.846 34.5731 869.804 Q39.7293 865.73 48.132 865.73 Q56.5347 865.73 61.691 869.804 Q66.8472 873.846 66.8472 880.339 Q66.8472 884.254 65.3194 887.086 Q63.7598 889.887 60.577 891.733 M48.132 871.809 Q41.6708 871.809 38.0105 874.482 Q34.3184 877.124 34.3184 881.771 Q34.3184 886.418 38.0105 889.092 Q41.6708 891.733 48.132 891.733 Q54.5932 891.733 58.2853 889.092 Q61.9456 886.418 61.9456 881.771 Q61.9456 877.124 58.2853 874.482 Q54.5932 871.809 48.132 871.809 Z" fill="#000000" fill-rule="evenodd" fill-opacity="1" /><path clip-path="url(#clip450)" d="M 0 0 M44.4081 826.389 L65.9242 826.389 L65.9242 832.246 L44.599 832.246 Q39.5383 832.246 37.0238 834.219 Q34.5094 836.193 34.5094 840.139 Q34.5094 844.882 37.5331 847.619 Q40.5568 850.356 45.7767 850.356 L65.9242 850.356 L65.9242 856.245 L16.399 856.245 L16.399 850.356 L35.8144 850.356 Q32.5997 848.256 31.0083 845.423 Q29.4168 842.558 29.4168 838.834 Q29.4168 832.692 33.2363 829.54 Q37.0238 826.389 44.4081 826.389 Z" fill="#000000" fill-rule="evenodd" fill-opacity="1" /><path clip-path="url(#clip450)" d="M 0 0 M34.3821 800.895 Q34.3821 805.605 38.0742 808.343 Q41.7345 811.08 48.132 811.08 Q54.5295 811.08 58.2217 808.375 Q61.8819 805.637 61.8819 800.895 Q61.8819 796.216 58.1898 793.479 Q54.4977 790.741 48.132 790.741 Q41.7981 790.741 38.106 793.479 Q34.3821 796.216 34.3821 800.895 M29.4168 800.895 Q29.4168 793.256 34.3821 788.895 Q39.3473 784.535 48.132 784.535 Q56.8849 784.535 61.8819 788.895 Q66.8472 793.256 66.8472 800.895 Q66.8472 808.565 61.8819 812.926 Q56.8849 817.255 48.132 817.255 Q39.3473 817.255 34.3821 812.926 Q29.4168 808.565 29.4168 800.895 Z" fill="#000000" fill-rule="evenodd" fill-opacity="1" /><path clip-path="url(#clip450)" d="M 0 0 M20.1547 769.034 L30.2762 769.034 L30.2762 756.971 L34.8277 756.971 L34.8277 769.034 L54.1794 769.034 Q58.5399 769.034 59.7813 767.857 Q61.0226 766.647 61.0226 762.987 L61.0226 756.971 L65.9242 756.971 L65.9242 762.987 Q65.9242 769.766 63.4097 772.345 Q60.8634 774.923 54.1794 774.923 L34.8277 774.923 L34.8277 779.22 L30.2762 779.22 L30.2762 774.923 L20.1547 774.923 L20.1547 769.034 Z" fill="#000000" fill-rule="evenodd" fill-opacity="1" /><path clip-path="url(#clip450)" d="M 0 0 M34.3821 735.455 Q34.3821 740.166 38.0742 742.903 Q41.7345 745.64 48.132 745.64 Q54.5295 745.64 58.2217 742.935 Q61.8819 740.198 61.8819 735.455 Q61.8819 730.777 58.1898 728.039 Q54.4977 725.302 48.132 725.302 Q41.7981 725.302 38.106 728.039 Q34.3821 730.777 34.3821 735.455 M29.4168 735.455 Q29.4168 727.816 34.3821 723.456 Q39.3473 719.095 48.132 719.095 Q56.8849 719.095 61.8819 723.456 Q66.8472 727.816 66.8472 735.455 Q66.8472 743.126 61.8819 747.487 Q56.8849 751.815 48.132 751.815 Q39.3473 751.815 34.3821 747.487 Q29.4168 743.126 29.4168 735.455 Z" fill="#000000" fill-rule="evenodd" fill-opacity="1" /><path clip-path="url(#clip450)" d="M 0 0 M44.4081 679.755 L65.9242 679.755 L65.9242 685.612 L44.599 685.612 Q39.5383 685.612 37.0238 687.585 Q34.5094 689.559 34.5094 693.505 Q34.5094 698.248 37.5331 700.985 Q40.5568 703.722 45.7767 703.722 L65.9242 703.722 L65.9242 709.611 L30.2762 709.611 L30.2762 703.722 L35.8144 703.722 Q32.5997 701.622 31.0083 698.789 Q29.4168 695.924 29.4168 692.2 Q29.4168 686.057 33.2363 682.906 Q37.0238 679.755 44.4081 679.755 Z" fill="#000000" fill-rule="evenodd" fill-opacity="1" /><path clip-path="url(#clip450)" d="M 0 0 M31.6448 621.7 L37.1193 621.7 Q35.7507 624.183 35.0823 626.697 Q34.3821 629.18 34.3821 631.726 Q34.3821 637.423 38.0105 640.574 Q41.6072 643.726 48.132 643.726 Q54.6569 643.726 58.2853 640.574 Q61.8819 637.423 61.8819 631.726 Q61.8819 629.18 61.2135 626.697 Q60.5133 624.183 59.1447 621.7 L64.5555 621.7 Q65.7014 624.151 66.2743 626.793 Q66.8472 629.403 66.8472 632.363 Q66.8472 640.415 61.7864 645.158 Q56.7257 649.9 48.132 649.9 Q39.411 649.9 34.4139 645.126 Q29.4168 640.32 29.4168 631.981 Q29.4168 629.275 29.9897 626.697 Q30.5308 624.119 31.6448 621.7 Z" fill="#000000" fill-rule="evenodd" fill-opacity="1" /><path clip-path="url(#clip450)" d="M 0 0 M34.3821 597.701 Q34.3821 602.412 38.0742 605.149 Q41.7345 607.887 48.132 607.887 Q54.5295 607.887 58.2217 605.181 Q61.8819 602.444 61.8819 597.701 Q61.8819 593.023 58.1898 590.285 Q54.4977 587.548 48.132 587.548 Q41.7981 587.548 38.106 590.285 Q34.3821 593.023 34.3821 597.701 M29.4168 597.701 Q29.4168 590.063 34.3821 585.702 Q39.3473 581.342 48.132 581.342 Q56.8849 581.342 61.8819 585.702 Q66.8472 590.063 66.8472 597.701 Q66.8472 605.372 61.8819 609.733 Q56.8849 614.061 48.132 614.061 Q39.3473 614.061 34.3821 609.733 Q29.4168 605.372 29.4168 597.701 Z" fill="#000000" fill-rule="evenodd" fill-opacity="1" /><path clip-path="url(#clip450)" d="M 0 0 M51.8559 572.239 L30.2762 572.239 L30.2762 566.382 L51.6331 566.382 Q56.6939 566.382 59.2402 564.409 Q61.7546 562.435 61.7546 558.489 Q61.7546 553.746 58.7309 551.009 Q55.7072 548.24 50.4873 548.24 L30.2762 548.24 L30.2762 542.383 L65.9242 542.383 L65.9242 548.24 L60.4496 548.24 Q63.6962 550.372 65.2876 553.205 Q66.8472 556.006 66.8472 559.73 Q66.8472 565.873 63.0278 569.056 Q59.2083 572.239 51.8559 572.239 M29.4168 557.502 L29.4168 557.502 Z" fill="#000000" fill-rule="evenodd" fill-opacity="1" /><path clip-path="url(#clip450)" d="M 0 0 M44.4081 500.688 L65.9242 500.688 L65.9242 506.545 L44.599 506.545 Q39.5383 506.545 37.0238 508.518 Q34.5094 510.491 34.5094 514.438 Q34.5094 519.18 37.5331 521.918 Q40.5568 524.655 45.7767 524.655 L65.9242 524.655 L65.9242 530.543 L30.2762 530.543 L30.2762 524.655 L35.8144 524.655 Q32.5997 522.554 31.0083 519.722 Q29.4168 516.857 29.4168 513.133 Q29.4168 506.99 33.2363 503.839 Q37.0238 500.688 44.4081 500.688 Z" fill="#000000" fill-rule="evenodd" fill-opacity="1" /><path clip-path="url(#clip450)" d="M 0 0 M20.1547 483.214 L30.2762 483.214 L30.2762 471.151 L34.8277 471.151 L34.8277 483.214 L54.1794 483.214 Q58.5399 483.214 59.7813 482.037 Q61.0226 480.827 61.0226 477.167 L61.0226 471.151 L65.9242 471.151 L65.9242 477.167 Q65.9242 483.946 63.4097 486.524 Q60.8634 489.102 54.1794 489.102 L34.8277 489.102 L34.8277 493.399 L30.2762 493.399 L30.2762 489.102 L20.1547 489.102 L20.1547 483.214 Z" fill="#000000" fill-rule="evenodd" fill-opacity="1" /><path clip-path="url(#clip450)" d="M 0 0 M31.3265 440.723 L36.8647 440.723 Q35.5916 443.206 34.955 445.879 Q34.3184 448.553 34.3184 451.418 Q34.3184 455.778 35.6552 457.974 Q36.992 460.139 39.6656 460.139 Q41.7026 460.139 42.8803 458.579 Q44.0261 457.019 45.0765 452.309 L45.5221 450.304 Q46.8589 444.065 49.3097 441.455 Q51.7286 438.813 56.0891 438.813 Q61.0544 438.813 63.9508 442.76 Q66.8472 446.675 66.8472 453.55 Q66.8472 456.415 66.2743 459.534 Q65.7332 462.621 64.6192 466.059 L58.5718 466.059 Q60.2587 462.812 61.118 459.661 Q61.9456 456.51 61.9456 453.423 Q61.9456 449.285 60.5451 447.057 Q59.1129 444.829 56.5347 444.829 Q54.1476 444.829 52.8745 446.452 Q51.6013 448.044 50.4237 453.486 L49.9462 455.523 Q48.8004 460.966 46.4451 463.385 Q44.058 465.804 39.9202 465.804 Q34.8913 465.804 32.1541 462.239 Q29.4168 458.674 29.4168 452.118 Q29.4168 448.871 29.8943 446.007 Q30.3717 443.142 31.3265 440.723 Z" fill="#000000" fill-rule="evenodd" fill-opacity="1" /><path clip-path="url(#clip450)" d="M 0 0 M622.976 20.1573 L611.877 50.2555 L634.116 50.2555 L622.976 20.1573 M618.358 12.096 L627.635 12.096 L650.684 72.576 L642.177 72.576 L636.668 57.061 L609.406 57.061 L603.896 72.576 L595.268 72.576 L618.358 12.096 Z" fill="#000000" fill-rule="evenodd" fill-opacity="1" /><path clip-path="url(#clip450)" d="M 0 0 M648.983 27.2059 L656.882 27.2059 L671.06 65.2844 L685.239 27.2059 L693.138 27.2059 L676.124 72.576 L665.997 72.576 L648.983 27.2059 Z" fill="#000000" fill-rule="evenodd" fill-opacity="1" /><path clip-path="url(#clip450)" d="M 0 0 M742.235 48.0275 L742.235 51.6733 L707.964 51.6733 Q708.45 59.3701 712.582 63.421 Q716.755 67.4314 724.168 67.4314 Q728.462 67.4314 732.472 66.3781 Q736.523 65.3249 740.493 63.2184 L740.493 70.267 Q736.482 71.9684 732.27 72.8596 Q728.057 73.7508 723.722 73.7508 Q712.866 73.7508 706.506 67.4314 Q700.186 61.1119 700.186 50.3365 Q700.186 39.1965 706.182 32.6746 Q712.218 26.1121 722.426 26.1121 Q731.581 26.1121 736.888 32.0264 Q742.235 37.9003 742.235 48.0275 M734.781 45.84 Q734.7 39.7232 731.338 36.0774 Q728.016 32.4315 722.507 32.4315 Q716.268 32.4315 712.501 35.9558 Q708.774 39.4801 708.207 45.8805 L734.781 45.84 Z" fill="#000000" fill-rule="evenodd" fill-opacity="1" /><path clip-path="url(#clip450)" d="M 0 0 M780.759 34.1734 Q779.503 33.4443 778.004 33.1202 Q776.546 32.7556 774.764 32.7556 Q768.444 32.7556 765.041 36.8875 Q761.679 40.9789 761.679 48.6757 L761.679 72.576 L754.185 72.576 L754.185 27.2059 L761.679 27.2059 L761.679 34.2544 Q764.029 30.1225 767.796 28.1376 Q771.563 26.1121 776.951 26.1121 Q777.721 26.1121 778.652 26.2337 Q779.584 26.3147 780.718 26.5172 L780.759 34.1734 Z" fill="#000000" fill-rule="evenodd" fill-opacity="1" /><path clip-path="url(#clip450)" d="M 0 0 M809.196 49.7694 Q800.163 49.7694 796.679 51.8354 Q793.195 53.9013 793.195 58.8839 Q793.195 62.8538 795.788 65.2034 Q798.421 67.5124 802.917 67.5124 Q809.115 67.5124 812.842 63.1374 Q816.609 58.7219 816.609 51.4303 L816.609 49.7694 L809.196 49.7694 M824.063 46.6907 L824.063 72.576 L816.609 72.576 L816.609 65.6895 Q814.057 69.8214 810.249 71.8063 Q806.442 73.7508 800.932 73.7508 Q793.965 73.7508 789.833 69.8619 Q785.741 65.9325 785.741 59.3701 Q785.741 51.7138 790.846 47.825 Q795.99 43.9361 806.158 43.9361 L816.609 43.9361 L816.609 43.2069 Q816.609 38.0623 813.207 35.2672 Q809.844 32.4315 803.728 32.4315 Q799.839 32.4315 796.152 33.3632 Q792.466 34.295 789.063 36.1584 L789.063 29.2718 Q793.155 27.692 797.003 26.9223 Q800.851 26.1121 804.497 26.1121 Q814.341 26.1121 819.202 31.2163 Q824.063 36.3204 824.063 46.6907 Z" fill="#000000" fill-rule="evenodd" fill-opacity="1" /><path clip-path="url(#clip450)" d="M 0 0 M869.271 49.3643 Q869.271 41.2625 865.909 36.8065 Q862.587 32.3505 856.551 32.3505 Q850.556 32.3505 847.194 36.8065 Q843.872 41.2625 843.872 49.3643 Q843.872 57.4256 847.194 61.8816 Q850.556 66.3376 856.551 66.3376 Q862.587 66.3376 865.909 61.8816 Q869.271 57.4256 869.271 49.3643 M876.725 66.9452 Q876.725 78.5308 871.58 84.1616 Q866.436 89.8329 855.822 89.8329 Q851.893 89.8329 848.409 89.2252 Q844.925 88.6581 841.644 87.4428 L841.644 80.1917 Q844.925 81.9741 848.125 82.8248 Q851.326 83.6755 854.647 83.6755 Q861.98 83.6755 865.625 79.8271 Q869.271 76.0193 869.271 68.282 L869.271 64.5957 Q866.962 68.6061 863.357 70.5911 Q859.752 72.576 854.728 72.576 Q846.384 72.576 841.279 66.2161 Q836.175 59.8562 836.175 49.3643 Q836.175 38.832 841.279 32.472 Q846.384 26.1121 854.728 26.1121 Q859.752 26.1121 863.357 28.0971 Q866.962 30.082 869.271 34.0924 L869.271 27.2059 L876.725 27.2059 L876.725 66.9452 Z" fill="#000000" fill-rule="evenodd" fill-opacity="1" /><path clip-path="url(#clip450)" d="M 0 0 M930.885 48.0275 L930.885 51.6733 L896.615 51.6733 Q897.101 59.3701 901.233 63.421 Q905.405 67.4314 912.818 67.4314 Q917.112 67.4314 921.123 66.3781 Q925.174 65.3249 929.144 63.2184 L929.144 70.267 Q925.133 71.9684 920.92 72.8596 Q916.707 73.7508 912.373 73.7508 Q901.516 73.7508 895.156 67.4314 Q888.837 61.1119 888.837 50.3365 Q888.837 39.1965 894.832 32.6746 Q900.868 26.1121 911.076 26.1121 Q920.232 26.1121 925.538 32.0264 Q930.885 37.9003 930.885 48.0275 M923.432 45.84 Q923.351 39.7232 919.988 36.0774 Q916.667 32.4315 911.157 32.4315 Q904.919 32.4315 901.152 35.9558 Q897.425 39.4801 896.858 45.8805 L923.432 45.84 Z" fill="#000000" fill-rule="evenodd" fill-opacity="1" /><path clip-path="url(#clip450)" d="M 0 0 M977.997 18.8205 L977.997 41.5461 L988.287 41.5461 Q993.998 41.5461 997.118 38.5889 Q1000.24 35.6318 1000.24 30.163 Q1000.24 24.7348 997.118 21.7777 Q993.998 18.8205 988.287 18.8205 L977.997 18.8205 M969.815 12.096 L988.287 12.096 Q998.454 12.096 1003.64 16.714 Q1008.87 21.2916 1008.87 30.163 Q1008.87 39.1155 1003.64 43.6931 Q998.454 48.2706 988.287 48.2706 L977.997 48.2706 L977.997 72.576 L969.815 72.576 L969.815 12.096 Z" fill="#000000" fill-rule="evenodd" fill-opacity="1" /><path clip-path="url(#clip450)" d="M 0 0 M1057.23 45.1919 L1057.23 72.576 L1049.78 72.576 L1049.78 45.4349 Q1049.78 38.994 1047.27 35.7938 Q1044.76 32.5936 1039.73 32.5936 Q1033.7 32.5936 1030.21 36.4419 Q1026.73 40.2903 1026.73 46.9338 L1026.73 72.576 L1019.24 72.576 L1019.24 9.54393 L1026.73 9.54393 L1026.73 34.2544 Q1029.4 30.163 1033.01 28.1376 Q1036.65 26.1121 1041.39 26.1121 Q1049.21 26.1121 1053.22 30.9732 Q1057.23 35.7938 1057.23 45.1919 Z" fill="#000000" fill-rule="evenodd" fill-opacity="1" /><path clip-path="url(#clip450)" d="M 0 0 M1089.68 32.4315 Q1083.69 32.4315 1080.2 37.1306 Q1076.72 41.7891 1076.72 49.9314 Q1076.72 58.0738 1080.16 62.7728 Q1083.64 67.4314 1089.68 67.4314 Q1095.64 67.4314 1099.12 62.7323 Q1102.6 58.0333 1102.6 49.9314 Q1102.6 41.8701 1099.12 37.1711 Q1095.64 32.4315 1089.68 32.4315 M1089.68 26.1121 Q1099.4 26.1121 1104.95 32.4315 Q1110.5 38.7509 1110.5 49.9314 Q1110.5 61.0714 1104.95 67.4314 Q1099.4 73.7508 1089.68 73.7508 Q1079.92 73.7508 1074.37 67.4314 Q1068.86 61.0714 1068.86 49.9314 Q1068.86 38.7509 1074.37 32.4315 Q1079.92 26.1121 1089.68 26.1121 Z" fill="#000000" fill-rule="evenodd" fill-opacity="1" /><path clip-path="url(#clip450)" d="M 0 0 M1130.23 14.324 L1130.23 27.2059 L1145.58 27.2059 L1145.58 32.9987 L1130.23 32.9987 L1130.23 57.6282 Q1130.23 63.1779 1131.73 64.7578 Q1133.27 66.3376 1137.93 66.3376 L1145.58 66.3376 L1145.58 72.576 L1137.93 72.576 Q1129.3 72.576 1126.02 69.3758 Q1122.74 66.1351 1122.74 57.6282 L1122.74 32.9987 L1117.27 32.9987 L1117.27 27.2059 L1122.74 27.2059 L1122.74 14.324 L1130.23 14.324 Z" fill="#000000" fill-rule="evenodd" fill-opacity="1" /><path clip-path="url(#clip450)" d="M 0 0 M1172.97 32.4315 Q1166.97 32.4315 1163.49 37.1306 Q1160 41.7891 1160 49.9314 Q1160 58.0738 1163.45 62.7728 Q1166.93 67.4314 1172.97 67.4314 Q1178.92 67.4314 1182.41 62.7323 Q1185.89 58.0333 1185.89 49.9314 Q1185.89 41.8701 1182.41 37.1711 Q1178.92 32.4315 1172.97 32.4315 M1172.97 26.1121 Q1182.69 26.1121 1188.24 32.4315 Q1193.79 38.7509 1193.79 49.9314 Q1193.79 61.0714 1188.24 67.4314 Q1182.69 73.7508 1172.97 73.7508 Q1163.2 73.7508 1157.66 67.4314 Q1152.15 61.0714 1152.15 49.9314 Q1152.15 38.7509 1157.66 32.4315 Q1163.2 26.1121 1172.97 26.1121 Z" fill="#000000" fill-rule="evenodd" fill-opacity="1" /><path clip-path="url(#clip450)" d="M 0 0 M1243.86 45.1919 L1243.86 72.576 L1236.4 72.576 L1236.4 45.4349 Q1236.4 38.994 1233.89 35.7938 Q1231.38 32.5936 1226.36 32.5936 Q1220.32 32.5936 1216.84 36.4419 Q1213.35 40.2903 1213.35 46.9338 L1213.35 72.576 L1205.86 72.576 L1205.86 27.2059 L1213.35 27.2059 L1213.35 34.2544 Q1216.03 30.163 1219.63 28.1376 Q1223.28 26.1121 1228.02 26.1121 Q1235.84 26.1121 1239.85 30.9732 Q1243.86 35.7938 1243.86 45.1919 Z" fill="#000000" fill-rule="evenodd" fill-opacity="1" /><path clip-path="url(#clip450)" d="M 0 0 M1330.71 16.7545 L1330.71 25.383 Q1326.58 21.5346 1321.88 19.6307 Q1317.22 17.7268 1311.95 17.7268 Q1301.58 17.7268 1296.07 24.0867 Q1290.57 30.4061 1290.57 42.3968 Q1290.57 54.3469 1296.07 60.7069 Q1301.58 67.0263 1311.95 67.0263 Q1317.22 67.0263 1321.88 65.1223 Q1326.58 63.2184 1330.71 59.3701 L1330.71 67.9175 Q1326.42 70.8341 1321.6 72.2924 Q1316.82 73.7508 1311.47 73.7508 Q1297.74 73.7508 1289.84 65.3654 Q1281.94 56.9395 1281.94 42.3968 Q1281.94 27.8135 1289.84 19.4281 Q1297.74 11.0023 1311.47 11.0023 Q1316.9 11.0023 1321.68 12.4606 Q1326.5 13.8784 1330.71 16.7545 Z" fill="#000000" fill-rule="evenodd" fill-opacity="1" /><path clip-path="url(#clip450)" d="M 0 0 M1360.61 32.4315 Q1354.61 32.4315 1351.13 37.1306 Q1347.64 41.7891 1347.64 49.9314 Q1347.64 58.0738 1351.09 62.7728 Q1354.57 67.4314 1360.61 67.4314 Q1366.56 67.4314 1370.04 62.7323 Q1373.53 58.0333 1373.53 49.9314 Q1373.53 41.8701 1370.04 37.1711 Q1366.56 32.4315 1360.61 32.4315 M1360.61 26.1121 Q1370.33 26.1121 1375.88 32.4315 Q1381.43 38.7509 1381.43 49.9314 Q1381.43 61.0714 1375.88 67.4314 Q1370.33 73.7508 1360.61 73.7508 Q1350.84 73.7508 1345.29 67.4314 Q1339.78 61.0714 1339.78 49.9314 Q1339.78 38.7509 1345.29 32.4315 Q1350.84 26.1121 1360.61 26.1121 Z" fill="#000000" fill-rule="evenodd" fill-opacity="1" /><path clip-path="url(#clip450)" d="M 0 0 M1393.01 54.671 L1393.01 27.2059 L1400.47 27.2059 L1400.47 54.3874 Q1400.47 60.8284 1402.98 64.0691 Q1405.49 67.2693 1410.51 67.2693 Q1416.55 67.2693 1420.03 63.421 Q1423.56 59.5726 1423.56 52.9291 L1423.56 27.2059 L1431.01 27.2059 L1431.01 72.576 L1423.56 72.576 L1423.56 65.6084 Q1420.84 69.7404 1417.24 71.7658 Q1413.67 73.7508 1408.93 73.7508 Q1401.11 73.7508 1397.06 68.8897 Q1393.01 64.0286 1393.01 54.671 M1411.77 26.1121 L1411.77 26.1121 Z" fill="#000000" fill-rule="evenodd" fill-opacity="1" /><path clip-path="url(#clip450)" d="M 0 0 M1484.08 45.1919 L1484.08 72.576 L1476.62 72.576 L1476.62 45.4349 Q1476.62 38.994 1474.11 35.7938 Q1471.6 32.5936 1466.58 32.5936 Q1460.54 32.5936 1457.06 36.4419 Q1453.57 40.2903 1453.57 46.9338 L1453.57 72.576 L1446.08 72.576 L1446.08 27.2059 L1453.57 27.2059 L1453.57 34.2544 Q1456.25 30.163 1459.85 28.1376 Q1463.5 26.1121 1468.24 26.1121 Q1476.06 26.1121 1480.07 30.9732 Q1484.08 35.7938 1484.08 45.1919 Z" fill="#000000" fill-rule="evenodd" fill-opacity="1" /><path clip-path="url(#clip450)" d="M 0 0 M1506.32 14.324 L1506.32 27.2059 L1521.67 27.2059 L1521.67 32.9987 L1506.32 32.9987 L1506.32 57.6282 Q1506.32 63.1779 1507.82 64.7578 Q1509.35 66.3376 1514.01 66.3376 L1521.67 66.3376 L1521.67 72.576 L1514.01 72.576 Q1505.38 72.576 1502.1 69.3758 Q1498.82 66.1351 1498.82 57.6282 L1498.82 32.9987 L1493.35 32.9987 L1493.35 27.2059 L1498.82 27.2059 L1498.82 14.324 L1506.32 14.324 Z" fill="#000000" fill-rule="evenodd" fill-opacity="1" /><path clip-path="url(#clip450)" d="M 0 0 M1560.4 28.5427 L1560.4 35.5912 Q1557.24 33.9709 1553.83 33.1607 Q1550.43 32.3505 1546.78 32.3505 Q1541.24 32.3505 1538.44 34.0519 Q1535.69 35.7533 1535.69 39.156 Q1535.69 41.7486 1537.67 43.2475 Q1539.66 44.7058 1545.65 46.0426 L1548.2 46.6097 Q1556.14 48.3111 1559.46 51.4303 Q1562.83 54.509 1562.83 60.0587 Q1562.83 66.3781 1557.8 70.0644 Q1552.82 73.7508 1544.07 73.7508 Q1540.42 73.7508 1536.46 73.0216 Q1532.53 72.3329 1528.15 70.9151 L1528.15 63.2184 Q1532.28 65.3654 1536.29 66.4591 Q1540.3 67.5124 1544.23 67.5124 Q1549.5 67.5124 1552.33 65.73 Q1555.17 63.9071 1555.17 60.6258 Q1555.17 57.5877 1553.1 55.9673 Q1551.08 54.3469 1544.15 52.8481 L1541.56 52.2405 Q1534.63 50.7821 1531.55 47.7845 Q1528.47 44.7463 1528.47 39.4801 Q1528.47 33.0797 1533.01 29.5959 Q1537.55 26.1121 1545.89 26.1121 Q1550.03 26.1121 1553.67 26.7198 Q1557.32 27.3274 1560.4 28.5427 Z" fill="#000000" fill-rule="evenodd" fill-opacity="1" /><path clip-path="url(#clip450)" d="M 0 0 M1595.72 27.2059 L1603.62 27.2059 L1617.8 65.2844 L1631.98 27.2059 L1639.87 27.2059 L1622.86 72.576 L1612.73 72.576 L1595.72 27.2059 Z" fill="#000000" fill-rule="evenodd" fill-opacity="1" /><path clip-path="url(#clip450)" d="M 0 0 M1679.09 28.5427 L1679.09 35.5912 Q1675.93 33.9709 1672.52 33.1607 Q1669.12 32.3505 1665.48 32.3505 Q1659.93 32.3505 1657.13 34.0519 Q1654.38 35.7533 1654.38 39.156 Q1654.38 41.7486 1656.36 43.2475 Q1658.35 44.7058 1664.34 46.0426 L1666.89 46.6097 Q1674.83 48.3111 1678.16 51.4303 Q1681.52 54.509 1681.52 60.0587 Q1681.52 66.3781 1676.49 70.0644 Q1671.51 73.7508 1662.76 73.7508 Q1659.12 73.7508 1655.15 73.0216 Q1651.22 72.3329 1646.84 70.9151 L1646.84 63.2184 Q1650.97 65.3654 1654.98 66.4591 Q1658.99 67.5124 1662.92 67.5124 Q1668.19 67.5124 1671.03 65.73 Q1673.86 63.9071 1673.86 60.6258 Q1673.86 57.5877 1671.8 55.9673 Q1669.77 54.3469 1662.84 52.8481 L1660.25 52.2405 Q1653.32 50.7821 1650.24 47.7845 Q1647.17 44.7463 1647.17 39.4801 Q1647.17 33.0797 1651.7 29.5959 Q1656.24 26.1121 1664.59 26.1121 Q1668.72 26.1121 1672.36 26.7198 Q1676.01 27.3274 1679.09 28.5427 Z" fill="#000000" fill-rule="evenodd" fill-opacity="1" /><path clip-path="url(#clip450)" d="M 0 0 M1711.7 12.096 L1762.86 12.096 L1762.86 18.9825 L1741.39 18.9825 L1741.39 72.576 L1733.17 72.576 L1733.17 18.9825 L1711.7 18.9825 L1711.7 12.096 Z" fill="#000000" fill-rule="evenodd" fill-opacity="1" /><path clip-path="url(#clip450)" d="M 0 0 M1767.88 27.2059 L1775.34 27.2059 L1775.34 72.576 L1767.88 72.576 L1767.88 27.2059 M1767.88 9.54393 L1775.34 9.54393 L1775.34 18.9825 L1767.88 18.9825 L1767.88 9.54393 Z" fill="#000000" fill-rule="evenodd" fill-opacity="1" /><path clip-path="url(#clip450)" d="M 0 0 M1826.26 35.9153 Q1829.05 30.8922 1832.94 28.5022 Q1836.83 26.1121 1842.1 26.1121 Q1849.18 26.1121 1853.03 31.0947 Q1856.88 36.0368 1856.88 45.1919 L1856.88 72.576 L1849.39 72.576 L1849.39 45.4349 Q1849.39 38.913 1847.08 35.7533 Q1844.77 32.5936 1840.03 32.5936 Q1834.24 32.5936 1830.87 36.4419 Q1827.51 40.2903 1827.51 46.9338 L1827.51 72.576 L1820.02 72.576 L1820.02 45.4349 Q1820.02 38.8725 1817.71 35.7533 Q1815.4 32.5936 1810.58 32.5936 Q1804.87 32.5936 1801.51 36.4824 Q1798.14 40.3308 1798.14 46.9338 L1798.14 72.576 L1790.65 72.576 L1790.65 27.2059 L1798.14 27.2059 L1798.14 34.2544 Q1800.7 30.082 1804.26 28.0971 Q1807.83 26.1121 1812.73 26.1121 Q1817.67 26.1121 1821.11 28.6237 Q1824.6 31.1352 1826.26 35.9153 Z" fill="#000000" fill-rule="evenodd" fill-opacity="1" /><path clip-path="url(#clip450)" d="M 0 0 M1910.56 48.0275 L1910.56 51.6733 L1876.29 51.6733 Q1876.77 59.3701 1880.9 63.421 Q1885.08 67.4314 1892.49 67.4314 Q1896.78 67.4314 1900.79 66.3781 Q1904.84 65.3249 1908.81 63.2184 L1908.81 70.267 Q1904.8 71.9684 1900.59 72.8596 Q1896.38 73.7508 1892.04 73.7508 Q1881.19 73.7508 1874.83 67.4314 Q1868.51 61.1119 1868.51 50.3365 Q1868.51 39.1965 1874.5 32.6746 Q1880.54 26.1121 1890.75 26.1121 Q1899.9 26.1121 1905.21 32.0264 Q1910.56 37.9003 1910.56 48.0275 M1903.1 45.84 Q1903.02 39.7232 1899.66 36.0774 Q1896.34 32.4315 1890.83 32.4315 Q1884.59 32.4315 1880.82 35.9558 Q1877.1 39.4801 1876.53 45.8805 L1903.1 45.84 Z" fill="#000000" fill-rule="evenodd" fill-opacity="1" /><polyline clip-path="url(#clip452)" style="stroke:#009af9; stroke-width:4; stroke-opacity:1; fill:none" points="
  305.889,1075.8 306.837,1149.41 307.784,1198.92 308.731,1128.52 309.678,1239.86 310.625,1177.82 311.572,1129.21 312.519,1266.11 313.466,1261.59 314.413,1323.92 
  315.36,1257.6 316.307,1226.47 317.254,1300.07 318.201,1309.79 319.148,1302.37 320.095,1211.54 321.042,974.228 321.989,1281.18 322.936,996.383 323.883,584.996 
  324.83,1020 325.777,1300.04 326.724,1288.43 327.671,1300.49 328.618,1191.32 329.565,1202.07 330.512,1175.11 331.459,1024.27 332.406,1095.04 333.353,1120.68 
  334.3,1298.43 335.247,1119.52 336.194,1093.99 337.141,1298.86 338.088,983.912 339.035,1072.32 339.982,1294.28 340.929,1137.71 341.876,1234.07 342.823,1266.16 
  343.77,1194.05 344.717,1236.66 345.664,1319.36 346.611,1306.5 347.558,1314.5 348.506,1314.41 349.453,1243.31 350.4,1226.58 351.347,1310.58 352.294,1007.14 
  353.241,1065.7 354.188,900.409 355.135,827.757 356.082,658.582 357.029,524.663 357.976,1276.95 358.923,961.272 359.87,1140.25 360.817,1278.13 361.764,1274.46 
  362.711,1154.99 363.658,1167.64 364.605,1186.83 365.552,800.727 366.499,1208.85 367.446,1209.22 368.393,1163.45 369.34,1278.45 370.287,1158.86 371.234,1177.26 
  372.181,1304.84 373.128,1277.74 374.075,1212.98 375.022,1297.34 375.969,1225.24 376.916,1175.65 377.863,1207.03 378.81,1201.44 379.757,1233.47 380.704,860.617 
  381.651,1168.9 382.598,1204.22 383.545,1075.42 384.492,1127.03 385.439,902.38 386.386,1228.13 387.333,1251.31 388.28,969.265 389.227,957.592 390.174,1211.2 
  391.122,1316.13 392.069,1307.22 393.016,1282.09 393.963,1288.58 394.91,1311.63 395.857,1218.22 396.804,1177.64 397.751,1242.54 398.698,1168.57 399.645,1270.48 
  400.592,1204.15 401.539,1204.96 402.486,1310.19 403.433,1141.88 404.38,1235.46 405.327,1306.1 406.274,1201.31 407.221,1227.5 408.168,1297.53 409.115,1196.23 
  410.062,1144.14 411.009,1298.56 411.956,1115.16 412.903,1081.34 413.85,1073.35 414.797,1219.08 415.744,873.483 416.691,537.818 417.638,1103.29 418.585,1042.16 
  419.532,1260.42 420.479,1263.4 421.426,1301.66 422.373,626.123 423.32,766.008 424.267,1276.19 425.214,747.081 426.161,1223.85 427.108,1030.24 428.055,925.949 
  429.002,1286.73 429.949,1227.74 430.896,1179.63 431.843,1276.52 432.791,1246.98 433.738,1230.71 434.685,1289.39 435.632,1195.9 436.579,1228.41 437.526,1302.64 
  438.473,1172.75 439.42,1303.16 440.367,1268.7 441.314,1278.49 442.261,1279.21 443.208,1286.53 444.155,1157.77 445.102,1136.21 446.049,1305.17 446.996,981.947 
  447.943,1131.36 448.89,1319.82 449.837,1278.45 450.784,1207.1 451.731,1270.58 452.678,1300.21 453.625,1085.07 454.572,957.562 455.519,1191.52 456.466,1324.33 
  457.413,1222.75 458.36,1067.03 459.307,1158.51 460.254,1082.02 461.201,969.811 462.148,1254.9 463.095,1272.61 464.042,1312.29 464.989,1239.63 465.936,1164.69 
  466.883,1307.02 467.83,1289.1 468.777,1298.01 469.724,1321.52 470.671,1301.62 471.618,1323.44 472.565,1271.11 473.512,1157.93 474.46,1288.35 475.407,1096.63 
  476.354,927.875 477.301,1197.97 478.248,1058.25 479.195,944.334 480.142,815.065 481.089,1268.87 482.036,1105.23 482.983,1082.63 483.93,1046.52 484.877,814.768 
  485.824,1150.84 486.771,907.111 487.718,1215.64 488.665,1050.84 489.612,863.369 490.559,1153.9 491.506,1323.87 492.453,1118.65 493.4,1092.93 494.347,1311.72 
  495.294,1293.94 496.241,1306.59 497.188,1266.91 498.135,1290.18 499.082,1314.72 500.029,1301.98 500.976,1293.75 501.923,1178.28 502.87,1285.87 503.817,1058.33 
  504.764,942.355 505.711,1219.04 506.658,1119.16 507.605,1207.19 508.552,1109 509.499,1274.82 510.446,1215.25 511.393,1006.31 512.34,1109.02 513.287,1185.44 
  514.234,1296.42 515.181,1249.35 516.128,1059.39 517.076,1245.63 518.023,1120.59 518.97,937.147 519.917,1288.6 520.864,1206.8 521.811,992.162 522.758,1042.25 
  523.705,1279.86 524.652,1301.23 525.599,1291.57 526.546,1228.67 527.493,1249.18 528.44,1313.58 529.387,1246.79 530.334,1315.92 531.281,1276.21 532.228,1254.14 
  533.175,1245.45 534.122,1220.56 535.069,1195.12 536.016,1075.34 536.963,950.918 537.91,1023.41 538.857,1233.45 539.804,859.828 540.751,1100.35 541.698,1223.49 
  542.645,1076.93 543.592,1241.45 544.539,1305.53 545.486,954.182 546.433,561.628 547.38,1173.27 548.327,1206.64 549.274,1188.21 550.221,1297.72 551.168,1311.32 
  552.115,1218.96 553.062,1265.7 554.009,905.179 554.956,799.676 555.903,1294.01 556.85,1249.07 557.797,1272.17 558.745,1226.94 559.692,1268.53 560.639,1316.52 
  561.586,1296.02 562.533,1323.82 563.48,1243.43 564.427,1254.88 565.374,1282 566.321,1243.38 567.268,1288.41 568.215,1161.74 569.162,1269.82 570.109,1270.48 
  571.056,1298.54 572.003,1317.49 572.95,1324.07 573.897,1237.76 574.844,1243.78 575.791,1235.01 576.738,1064.83 577.685,891.841 578.632,934.498 579.579,1226.82 
  580.526,1029.32 581.473,1208.16 582.42,1237.02 583.367,1208.87 584.314,1316.56 585.261,1181.92 586.208,1150.84 587.155,1199.16 588.102,1245.11 589.049,1304.09 
  589.996,1316.32 590.943,1278.06 591.89,1265.42 592.837,1274.9 593.784,1322.13 594.731,1289.63 595.678,1251.99 596.625,1281.77 597.572,1296.24 598.519,1270.67 
  599.466,1179.41 600.414,1283.15 601.361,1286.76 602.308,1243.64 603.255,1037.29 604.202,1166.58 605.149,1228.88 606.096,917.971 607.043,1185.03 607.99,1111.51 
  608.937,1071.08 609.884,1047.92 610.831,1122.34 611.778,983.631 612.725,1244.09 613.672,1150.65 614.619,1053.23 615.566,1301.62 616.513,1017.44 617.46,1286.42 
  618.407,972.867 619.354,846.558 620.301,1227.32 621.248,1287.73 622.195,1273.58 623.142,1324.21 624.089,1195.19 625.036,1095.02 625.983,1224.97 626.93,1103.46 
  627.877,1015.23 628.824,1236.41 629.771,1126.2 630.718,1195.45 631.665,1193.87 632.612,1279.1 633.559,1141.73 634.506,940.386 635.453,1288.12 636.4,1267.37 
  637.347,1294.78 638.294,1285.42 639.241,1119.97 640.188,1222.1 641.135,1233.94 642.082,594.343 643.03,764.805 643.977,1267.62 644.924,1318.72 645.871,1301.23 
  646.818,1309.11 647.765,1306.61 648.712,1271.49 649.659,1246.92 650.606,1088.16 651.553,961.97 652.5,1068.31 653.447,1313.44 654.394,1136.81 655.341,1203.18 
  656.288,1109.39 657.235,887.554 658.182,1151.37 659.129,1053.09 660.076,992.941 661.023,1111.61 661.97,1202.41 662.917,1031.2 663.864,1105.55 664.811,1218.06 
  665.758,848.84 666.705,1017.6 667.652,1113.97 668.599,1273.34 669.546,1041.6 670.493,1044.09 671.44,1313.65 672.387,1302.54 673.334,1308.86 674.281,1255.67 
  675.228,945.774 676.175,776.795 677.122,1225.51 678.069,1223.1 679.016,1199.65 679.963,1292.6 680.91,1223.9 681.857,1093.02 682.804,1280.25 683.751,932.954 
  684.699,991.472 685.646,1320.67 686.593,1094.88 687.54,1200.41 688.487,1122.03 689.434,1022.11 690.381,1255.85 691.328,1229.67 692.275,1179.29 693.222,1311.49 
  694.169,1302.39 695.116,1320.72 696.063,1322.37 697.01,1322.26 697.957,1297.27 698.904,1073.08 699.851,1093.6 700.798,1303.53 701.745,1066.4 702.692,1231.77 
  703.639,917.808 704.586,1083.84 705.533,1274.69 706.48,1084.99 707.427,1112.5 708.374,692.743 709.321,1080.49 710.268,1251.33 711.215,1169.16 712.162,1216.5 
  713.109,1150.41 714.056,1092.6 715.003,1092.32 715.95,1174.33 716.897,1195.84 717.844,1316.41 718.791,1248.16 719.738,1227.77 720.685,1288.41 721.632,1215.63 
  722.579,1301.11 723.526,1312.68 724.473,1305.7 725.42,1310.11 726.367,1258.24 727.315,1235.45 728.262,1324.47 729.209,1168.1 730.156,1204.62 731.103,1293.76 
  732.05,1278.77 732.997,1307.78 733.944,1310.49 734.891,1122.9 735.838,1092.47 736.785,1242.46 737.732,1156.42 738.679,1296.64 739.626,1318.46 740.573,1153.77 
  741.52,562.558 742.467,1114.97 743.414,1128.17 744.361,883.074 745.308,1274.67 746.255,791.156 747.202,1005.96 748.149,1235.73 749.096,1105.51 750.043,1248.36 
  750.99,1319.82 751.937,1231.6 752.884,1231.02 753.831,1214.42 754.778,1071.77 755.725,1212.9 756.672,1160.57 757.619,958.081 758.566,1263.4 759.513,1305.45 
  760.46,1323.35 761.407,1298.62 762.354,1294.67 763.301,1033.61 764.248,1249.33 765.195,1025.85 766.142,693.349 767.089,1259.53 768.036,1203.46 768.984,1288.68 
  769.931,1171.45 770.878,1267.4 771.825,1178 772.772,761.692 773.719,1006.17 774.666,1308.75 775.613,1281.89 776.56,1234.36 777.507,1232.39 778.454,1155.64 
  779.401,969.875 780.348,1059.31 781.295,1150.45 782.242,1097.9 783.189,1272.73 784.136,1167.36 785.083,1121.46 786.03,1110.69 786.977,1039.42 787.924,1189.17 
  788.871,1043.17 789.818,1042.46 790.765,1105.82 791.712,1250.39 792.659,1298.04 793.606,1249.84 794.553,1243.23 795.5,1143.38 796.447,1321.15 797.394,1190.89 
  798.341,1013.46 799.288,910.565 800.235,1250.41 801.182,1263.69 802.129,1282.65 803.076,1148.7 804.023,1054.91 804.97,1093.98 805.917,838.021 806.864,1200.38 
  807.811,1192.65 808.758,999.493 809.705,1235.64 810.653,1208.48 811.6,836.678 812.547,1100.9 813.494,1178.88 814.441,1084.32 815.388,1250.71 816.335,1189.72 
  817.282,1105.57 818.229,1225.3 819.176,1244.53 820.123,1264 821.07,1317.79 822.017,1153.57 822.964,893.016 823.911,1164.42 824.858,1179.06 825.805,1156.25 
  826.752,1164.02 827.699,1123.66 828.646,1299.95 829.593,862.986 830.54,1034.65 831.487,1037.69 832.434,1186.95 833.381,1269.33 834.328,1128.82 835.275,1270.27 
  836.222,1314.51 837.169,1223.01 838.116,954.962 839.063,1195.37 840.01,1303.82 840.957,1132.62 841.904,1135.18 842.851,1196.42 843.798,1073.07 844.745,1125.5 
  845.692,1298.82 846.639,1217.78 847.586,1274.21 848.533,1274.52 849.48,1220.54 850.427,1227.11 851.374,1205.2 852.321,1311.08 853.269,1239.97 854.216,1128.55 
  855.163,1192.11 856.11,1136.91 857.057,1186.81 858.004,1287.29 858.951,970.174 859.898,1233.04 860.845,1210.78 861.792,1057.88 862.739,1268.68 863.686,1292.85 
  864.633,970.777 865.58,969.026 866.527,1251.01 867.474,1113.16 868.421,1297.02 869.368,1284.39 870.315,1323.49 871.262,1128.19 872.209,1205.53 873.156,1170.06 
  874.103,1077.27 875.05,1312.55 875.997,1184.19 876.944,1185.92 877.891,1306.23 878.838,1314.59 879.785,1264.22 880.732,1295.83 881.679,1284.31 882.626,1114.86 
  883.573,1172.74 884.52,1092.78 885.467,1105.04 886.414,943.353 887.361,857.431 888.308,1312.09 889.255,1183.86 890.202,1290.57 891.149,1235.25 892.096,1319.56 
  893.043,1109.72 893.99,1220.35 894.938,1074.39 895.885,378.193 896.832,955.924 897.779,1320.58 898.726,1274.97 899.673,1227.81 900.62,1285.39 901.567,1317.01 
  902.514,1299.87 903.461,1268.32 904.408,1238.73 905.355,1280.41 906.302,1280.67 907.249,1283.6 908.196,1310.32 909.143,1232.03 910.09,1265.71 911.037,1321.65 
  911.984,1284.31 912.931,1319.6 913.878,1313.01 914.825,1296.86 915.772,1200.85 916.719,1251.72 917.666,1261.89 918.613,971.387 919.56,1189.63 920.507,1322.56 
  921.454,1321.78 922.401,1172.67 923.348,1245.9 924.295,1228.8 925.242,1002.14 926.189,1249.22 927.136,936.251 928.083,633.234 929.03,688.328 929.977,1219.41 
  930.924,1255.19 931.871,1258.47 932.818,1275.47 933.765,1158.28 934.712,1312.71 935.659,1295.7 936.606,1285.81 937.554,1220.28 938.501,1196.99 939.448,1247.29 
  940.395,1322.24 941.342,1259.57 942.289,1299.37 943.236,1301.39 944.183,1239.57 945.13,1318.78 946.077,1174.71 947.024,1106.22 947.971,1292.34 948.918,1216.3 
  949.865,1273.48 950.812,1258.22 951.759,1242.76 952.706,620.724 953.653,894.809 954.6,1236.16 955.547,996.14 956.494,1229.84 957.441,923.599 958.388,1182.36 
  959.335,1247.71 960.282,822.667 961.229,714.103 962.176,1122.59 963.123,1302.62 964.07,1286.46 965.017,1294.38 965.964,1251.03 966.911,1318.01 967.858,1308.69 
  968.805,1320.84 969.752,1294.42 970.699,1230.94 971.646,1278.85 972.593,1324.19 973.54,1319.35 974.487,1303.37 975.434,1228.67 976.381,1304.79 977.328,1284.71 
  978.275,1233.07 979.223,1244.23 980.17,1255.17 981.117,1311.56 982.064,1131.21 983.011,1314.21 983.958,937.102 984.905,631.85 985.852,1041.62 986.799,973.751 
  987.746,1137.6 988.693,664.073 989.64,787.536 990.587,1113.99 991.534,983.401 992.481,1190.29 993.428,1305.61 994.375,1106.55 995.322,984.07 996.269,1298.81 
  997.216,1241.08 998.163,1246.24 999.11,1292.19 1000.06,1226.03 1001,1296.54 1001.95,1277.93 1002.9,1159.04 1003.85,1299.68 1004.79,1282.34 1005.74,1239.29 
  1006.69,1212.85 1007.63,1106.89 1008.58,1188.46 1009.53,1208.5 1010.47,973.875 1011.42,1259.96 1012.37,1185.24 1013.32,1086.8 1014.26,1140.3 1015.21,1048.81 
  1016.16,995.195 1017.1,780.958 1018.05,1225.62 1019,1177.1 1019.94,1071.79 1020.89,1294.24 1021.84,1214.39 1022.79,1021.51 1023.73,1296.64 1024.68,1132.76 
  1025.63,1028.95 1026.57,1030.68 1027.52,924.763 1028.47,1285.79 1029.41,1191.19 1030.36,1225.9 1031.31,1298 1032.26,1188.15 1033.2,1217.27 1034.15,1254.85 
  1035.1,1225.81 1036.04,1306.67 1036.99,1295.89 1037.94,1275.24 1038.88,1285.32 1039.83,1221.42 1040.78,1319.77 1041.73,1248.36 1042.67,1263.3 1043.62,1322.05 
  1044.57,1312.94 1045.51,1065.79 1046.46,977.691 1047.41,1250.37 1048.36,558.492 1049.3,847.54 1050.25,1308.39 1051.2,1069.05 1052.14,1141.2 1053.09,1116.98 
  1054.04,1277.02 1054.98,1315.72 1055.93,1321.66 1056.88,1264.7 1057.83,1251.75 1058.77,1201.99 1059.72,1099.72 1060.67,1139.76 1061.61,1317.96 1062.56,1194.91 
  1063.51,1297.62 1064.45,1225.26 1065.4,1155.58 1066.35,1316.56 1067.3,1297.28 1068.24,1304.77 1069.19,1298.71 1070.14,1310.7 1071.08,1317.91 1072.03,1269.61 
  1072.98,1237.51 1073.92,1138.79 1074.87,1243.74 1075.82,968.708 1076.77,659.257 1077.71,1151.82 1078.66,1211.52 1079.61,1276.47 1080.55,1316.14 1081.5,1284.46 
  1082.45,1082.83 1083.39,1216.07 1084.34,937.45 1085.29,954.996 1086.24,1288.27 1087.18,1058.14 1088.13,1275.52 1089.08,1230.74 1090.02,1320.2 1090.97,996.106 
  1091.92,835.914 1092.87,1236.07 1093.81,1307.72 1094.76,1279.56 1095.71,1316.72 1096.65,1306.3 1097.6,1205.17 1098.55,1201.2 1099.49,1283.41 1100.44,1179.28 
  1101.39,1225.92 1102.34,1270.15 1103.28,1221.3 1104.23,1220.36 1105.18,994.591 1106.12,1189.93 1107.07,1117.65 1108.02,740.814 1108.96,950.068 1109.91,838.189 
  1110.86,1189.38 1111.81,1191.38 1112.75,1080.65 1113.7,1275.07 1114.65,954.97 1115.59,1222.84 1116.54,1276.85 1117.49,1151.73 1118.43,999.632 1119.38,1131.17 
  1120.33,1236.38 1121.28,1278.77 1122.22,1314.63 1123.17,1285.76 1124.12,1146.63 1125.06,945.454 1126.01,1239.28 1126.96,1261.57 1127.91,1119.72 1128.85,1287.21 
  1129.8,1030 1130.75,906.437 1131.69,1135.45 1132.64,986.154 1133.59,882.297 1134.53,1046.53 1135.48,952.735 1136.43,719.977 1137.38,973.495 1138.32,972.473 
  1139.27,1064.34 1140.22,950.847 1141.16,1069.31 1142.11,1269.16 1143.06,1293.09 1144,1300.58 1144.95,1281.87 1145.9,1283.9 1146.85,1226.05 1147.79,1241.95 
  1148.74,954.845 1149.69,889.225 1150.63,1106.4 1151.58,1311.75 1152.53,1022.56 1153.47,1221.36 1154.42,1275.13 1155.37,1282.5 1156.32,1182.17 1157.26,815.076 
  1158.21,1171.7 1159.16,1221.45 1160.1,1063.54 1161.05,1171 1162,1016.09 1162.94,925.023 1163.89,1222.72 1164.84,1072.24 1165.79,1058.11 1166.73,1190.81 
  1167.68,1097.95 1168.63,1100.91 1169.57,873.886 1170.52,1202.8 1171.47,997.118 1172.42,768.412 1173.36,1269.05 1174.31,1310.52 1175.26,1284.14 1176.2,1033.83 
  1177.15,1296.41 1178.1,1055.47 1179.04,992.625 1179.99,1321.35 1180.94,971.784 1181.89,924.397 1182.83,1084.97 1183.78,1237.67 1184.73,1311.93 1185.67,1294.09 
  1186.62,1320.5 1187.57,1253.4 1188.51,1279.34 1189.46,1127.82 1190.41,1087.96 1191.36,1321.98 1192.3,1111.34 1193.25,1227.84 1194.2,1196.85 1195.14,1181.07 
  1196.09,1316.82 1197.04,1264.17 1197.98,1257.39 1198.93,1324.42 1199.88,1250.9 1200.83,1273.68 1201.77,1298.52 1202.72,1315.78 1203.67,1296.02 1204.61,1238.23 
  1205.56,983.474 1206.51,981.069 1207.45,1301.94 1208.4,1300.88 1209.35,1311.63 1210.3,1262.87 1211.24,1264.75 1212.19,1014.35 1213.14,1320.45 1214.08,335.57 
  1215.03,158.463 1215.98,1246.51 1216.93,990.262 1217.87,1237.43 1218.82,1212.77 1219.77,1141.48 1220.71,1292.92 1221.66,1152.92 1222.61,1219.05 1223.55,1320.59 
  1224.5,1298.03 1225.45,1291.13 1226.4,1322.48 1227.34,1281.84 1228.29,1252.38 1229.24,1297.85 1230.18,1303.43 1231.13,1288.1 1232.08,1311.03 1233.02,1305.25 
  1233.97,1306.53 1234.92,1249.07 1235.87,1237.71 1236.81,1233.8 1237.76,785.649 1238.71,1015.62 1239.65,1248.7 1240.6,1183.84 1241.55,1308.36 1242.49,1250.31 
  1243.44,1179.19 1244.39,1262.53 1245.34,1262.28 1246.28,840.564 1247.23,708.119 1248.18,963.602 1249.12,1254.86 1250.07,1185.54 1251.02,1287.08 1251.97,1221.84 
  1252.91,1136.12 1253.86,1285.47 1254.81,1185.92 1255.75,1171.02 1256.7,1308.35 1257.65,1192.38 1258.59,1172.74 1259.54,1124.15 1260.49,1083.49 1261.44,1191.5 
  1262.38,1241.21 1263.33,1098.79 1264.28,1197.44 1265.22,1290.01 1266.17,1099.94 1267.12,1289.46 1268.06,1256 1269.01,1269.64 1269.96,1298.89 1270.91,1125.61 
  1271.85,775.648 1272.8,1177.27 1273.75,1101.51 1274.69,1083.91 1275.64,1127.66 1276.59,854.298 1277.53,1271.65 1278.48,865.655 1279.43,618.976 1280.38,1041 
  1281.32,1314.26 1282.27,1191.4 1283.22,1293.06 1284.16,1226.38 1285.11,1087.73 1286.06,1222.16 1287,1120.86 1287.95,1109.73 1288.9,1257.89 1289.85,1180.05 
  1290.79,1142.57 1291.74,1227.72 1292.69,1111.33 1293.63,1248.31 1294.58,1267.38 1295.53,1107.92 1296.48,1283.62 1297.42,1300.73 1298.37,1314.94 1299.32,1106.81 
  1300.26,1202.51 1301.21,1259.24 1302.16,880.453 1303.1,912.709 1304.05,1180.5 1305,1298.43 1305.95,1196.35 1306.89,1313.34 1307.84,1008.56 1308.79,1074.48 
  1309.73,1197.38 1310.68,903.906 1311.63,956.726 1312.57,1170.05 1313.52,1307.7 1314.47,1291.93 1315.42,1273.03 1316.36,1311.51 1317.31,1108.21 1318.26,1178.76 
  1319.2,1260.66 1320.15,1155.23 1321.1,1277.68 1322.04,1253.61 1322.99,1265.1 1323.94,1281.3 1324.89,1318.35 1325.83,1311.73 1326.78,1316.27 1327.73,1317.13 
  1328.67,1235.15 1329.62,1080.5 1330.57,1301.2 1331.51,1189.01 1332.46,1213.92 1333.41,1155.33 1334.36,958.757 1335.3,686.105 1336.25,892.991 1337.2,1317.63 
  1338.14,1021.32 1339.09,1263.25 1340.04,1280.75 1340.99,1250.6 1341.93,1151.89 1342.88,1310.76 1343.83,914.784 1344.77,719.148 1345.72,1268.06 1346.67,1201.96 
  1347.61,1278.37 1348.56,1279.57 1349.51,1184.3 1350.46,1283.92 1351.4,1322.35 1352.35,1286.04 1353.3,1297.17 1354.24,1324.54 1355.19,1291.66 1356.14,1310.35 
  1357.08,1311.51 1358.03,1291.19 1358.98,1277.45 1359.93,1264.24 1360.87,1245.74 1361.82,1259.78 1362.77,1311.52 1363.71,1226.61 1364.66,1137.17 1365.61,1276.66 
  1366.55,1143.63 1367.5,601.521 1368.45,1050.38 1369.4,1283.5 1370.34,1197.37 1371.29,1277.35 1372.24,1184.63 1373.18,1282.93 1374.13,1318.68 1375.08,1309.41 
  1376.02,1204.44 1376.97,1129.64 1377.92,1189.75 1378.87,1298.63 1379.81,1295.08 1380.76,1317.05 1381.71,1304.6 1382.65,1282.59 1383.6,1271.06 1384.55,1324.38 
  1385.5,1278.85 1386.44,1259.7 1387.39,1276.19 1388.34,1284.52 1389.28,1162.66 1390.23,1291.9 1391.18,1278.78 1392.12,1269.75 1393.07,1274.01 1394.02,1317.03 
  1394.97,937.197 1395.91,700.716 1396.86,1138.81 1397.81,1061.6 1398.75,1175.9 1399.7,1278.15 1400.65,1278.87 1401.59,898.17 1402.54,1144 1403.49,1194.99 
  1404.44,1174.64 1405.38,1266.99 1406.33,985.678 1407.28,1248.27 1408.22,1301.73 1409.17,1207.42 1410.12,1071.2 1411.06,1200.05 1412.01,1314.76 1412.96,1290.51 
  1413.91,1322.94 1414.85,1283.78 1415.8,1275.72 1416.75,1309.03 1417.69,1298.17 1418.64,1274.8 1419.59,1305.32 1420.54,1316.27 1421.48,1298.01 1422.43,1293.71 
  1423.38,1175.86 1424.32,1276.32 1425.27,1237.42 1426.22,992.344 1427.16,1141.02 1428.11,1186.61 1429.06,1008.38 1430.01,1291.65 1430.95,1163.9 1431.9,1143.72 
  1432.85,1120.89 1433.79,871.436 1434.74,1236.28 1435.69,1292.74 1436.63,1279.78 1437.58,1169.82 1438.53,1132.22 1439.48,1210.64 1440.42,1258.7 1441.37,1299.77 
  1442.32,1299.83 1443.26,1260.57 1444.21,1276.19 1445.16,1312.17 1446.1,1320.26 1447.05,1301.79 1448,1317.75 1448.95,1285.59 1449.89,1298.2 1450.84,1321.08 
  1451.79,1257.98 1452.73,1112.58 1453.68,1275.93 1454.63,974.598 1455.57,813.231 1456.52,1124.99 1457.47,785.68 1458.42,711.913 1459.36,586.094 1460.31,1124.82 
  1461.26,1258.2 1462.2,1183.11 1463.15,1210.55 1464.1,1155.96 1465.05,1106.94 1465.99,1084.11 1466.94,1284.31 1467.89,847.143 1468.83,996.109 1469.78,1322.31 
  1470.73,1186.07 1471.67,1112.77 1472.62,1296.05 1473.57,1292.07 1474.52,1295.25 1475.46,1230.81 1476.41,1189.89 1477.36,1313.93 1478.3,1284.29 1479.25,1296.12 
  1480.2,1301.4 1481.14,1212.08 1482.09,1311.72 1483.04,1219.03 1483.99,1138.75 1484.93,1291.04 1485.88,1232.64 1486.83,1253.29 1487.77,1065.82 1488.72,1154.85 
  1489.67,1223.57 1490.61,563.139 1491.56,934.225 1492.51,1314.98 1493.46,1282.17 1494.4,1202.44 1495.35,929.948 1496.3,1308.89 1497.24,765.001 1498.19,930.445 
  1499.14,1283.99 1500.08,759.457 1501.03,899.029 1501.98,1091.45 1502.93,1157.27 1503.87,1246.67 1504.82,1317.42 1505.77,1291.15 1506.71,1281.93 1507.66,1252.16 
  1508.61,1127.84 1509.56,1266.02 1510.5,1256.53 1511.45,1263.18 1512.4,1243.61 1513.34,1212.49 1514.29,1288.69 1515.24,1165.33 1516.18,1043.1 1517.13,1065.19 
  1518.08,1244.68 1519.03,758.159 1519.97,1076.68 1520.92,1195.05 1521.87,1007.14 1522.81,1274.99 1523.76,1317.44 1524.71,1090.66 1525.65,902.909 1526.6,1222.53 
  1527.55,1248.48 1528.5,1282.91 1529.44,1319.04 1530.39,1250.62 1531.34,1284.27 1532.28,1132.41 1533.23,479.963 1534.18,972.861 1535.12,1187.98 1536.07,981.922 
  1537.02,1318.63 1537.97,1158.53 1538.91,1229.42 1539.86,1267.74 1540.81,1188.43 1541.75,1273.35 1542.7,1323.21 1543.65,1313.04 1544.59,1307.63 1545.54,1324.53 
  1546.49,1269.79 1547.44,1200.97 1548.38,1267.51 1549.33,1303.1 1550.28,1281.92 1551.22,1302.79 1552.17,1227.25 1553.12,1281.2 1554.07,1250.74 1555.01,1106.83 
  1555.96,1092.57 1556.91,801.811 1557.85,1147.29 1558.8,1087.57 1559.75,1007.92 1560.69,1322.9 1561.64,1074.19 1562.59,1202.08 1563.54,1290.69 1564.48,1011.06 
  1565.43,942.97 1566.38,1137.59 1567.32,1251.39 1568.27,1242.88 1569.22,1286.47 1570.16,1305.89 1571.11,1213.74 1572.06,1285.05 1573.01,1279.72 1573.95,1217.28 
  1574.9,1257.45 1575.85,1204.08 1576.79,1197.79 1577.74,1135.09 1578.69,889.197 1579.63,1125.2 1580.58,1129.24 1581.53,1160.4 1582.48,861.404 1583.42,1051.45 
  1584.37,1254.57 1585.32,907.402 1586.26,1260.18 1587.21,1011.01 1588.16,890.935 1589.11,1055.73 1590.05,1250.38 1591,1212.1 1591.95,1298.04 1592.89,1214.87 
  1593.84,1262.36 1594.79,1198.52 1595.73,1136.7 1596.68,1247.53 1597.63,690.484 1598.58,824.967 1599.52,1302 1600.47,1207.56 1601.42,1195.81 1602.36,1316.12 
  1603.31,1086.02 1604.26,1091.72 1605.2,1172.6 1606.15,977.689 1607.1,959.617 1608.05,1129.26 1608.99,1042.89 1609.94,1127.85 1610.89,1125.97 1611.83,1163.32 
  1612.78,1317.39 1613.73,1056.47 1614.67,1160.1 1615.62,1309.13 1616.57,1302.48 1617.52,1206.27 1618.46,973.477 1619.41,1312.31 1620.36,661.758 1621.3,500.031 
  1622.25,1243.7 1623.2,1230.79 1624.14,1324.83 1625.09,1151.9 1626.04,1288.25 1626.99,1208.97 1627.93,1176.5 1628.88,1256.45 1629.83,817.385 1630.77,772.486 
  1631.72,1106.73 1632.67,1198.76 1633.62,1112.41 1634.56,1226.93 1635.51,994.448 1636.46,858.676 1637.4,1069.67 1638.35,812.744 1639.3,837.8 1640.24,849.89 
  1641.19,1068.44 1642.14,953.738 1643.09,1021.28 1644.03,1275.71 1644.98,998.706 1645.93,1183.12 1646.87,1165.71 1647.82,1300.74 1648.77,841.364 1649.71,929.249 
  1650.66,1306.02 1651.61,1181.56 1652.56,1240.45 1653.5,1231.68 1654.45,1130.14 1655.4,1175.01 1656.34,1280.17 1657.29,1307.41 1658.24,1294.33 1659.18,1304.03 
  1660.13,1234.56 1661.08,1158.38 1662.03,1198.63 1662.97,570.449 1663.92,930.709 1664.87,1250.09 1665.81,1049.47 1666.76,1254.25 1667.71,1080.25 1668.65,1046.18 
  1669.6,1260.04 1670.55,1197.64 1671.5,1099.39 1672.44,1267.08 1673.39,1305.44 1674.34,1290.64 1675.28,1321.62 1676.23,1320.36 1677.18,1255.87 1678.13,1129.18 
  1679.07,1302.56 1680.02,1136.57 1680.97,1120.89 1681.91,1002.42 1682.86,855.673 1683.81,1308.99 1684.75,970.426 1685.7,1081.68 1686.65,992.168 1687.6,838.092 
  1688.54,1289.13 1689.49,1227.63 1690.44,1278.37 1691.38,1280.79 1692.33,1155.7 1693.28,1250.02 1694.22,1159.54 1695.17,1014.78 1696.12,1152.56 1697.07,1317.06 
  1698.01,1266.14 1698.96,1309.04 1699.91,1259.82 1700.85,1259.21 1701.8,1318.21 1702.75,1294.15 1703.69,1323.84 1704.64,1291.7 1705.59,1124.77 1706.54,1112.9 
  1707.48,1235.62 1708.43,772.699 1709.38,1125.62 1710.32,1249.14 1711.27,1135.09 1712.22,1246.96 1713.16,1194.26 1714.11,1101.11 1715.06,1132.26 1716.01,1275.68 
  1716.95,1083.58 1717.9,1186.67 1718.85,1321.77 1719.79,1129.85 1720.74,831.931 1721.69,1253.4 1722.64,1190.46 1723.58,1229.44 1724.53,1217.63 1725.48,997.191 
  1726.42,1266.61 1727.37,1205.55 1728.32,1127.18 1729.26,1250.54 1730.21,1323.07 1731.16,1273.69 1732.11,1303.23 1733.05,1270.46 1734,1180.04 1734.95,1273.65 
  1735.89,1261.72 1736.84,1017.15 1737.79,1138.4 1738.73,1276.39 1739.68,1203.7 1740.63,1221.64 1741.58,1090.61 1742.52,1210.86 1743.47,1228.4 1744.42,712.406 
  1745.36,1016.09 1746.31,1275.08 1747.26,1184.26 1748.2,1223.91 1749.15,1278.73 1750.1,1198.84 1751.05,1068.14 1751.99,1012.94 1752.94,1022.2 1753.89,1287.53 
  1754.83,1293.94 1755.78,1309.12 1756.73,1290.77 1757.68,1201.19 1758.62,1227.65 1759.57,1227.44 1760.52,1130.85 1761.46,1131.71 1762.41,1269.9 1763.36,1170.36 
  1764.3,1202.73 1765.25,1107.69 1766.2,954.719 1767.15,1200.77 1768.09,941.316 1769.04,934.207 1769.99,928.616 1770.93,1193.83 1771.88,1262.41 1772.83,1132.7 
  1773.77,1203.79 1774.72,1217.72 1775.67,1281.98 1776.62,1031.1 1777.56,985.699 1778.51,762.134 1779.46,1128.64 1780.4,1294.96 1781.35,1263.35 1782.3,1305.17 
  1783.24,1240.47 1784.19,1146.08 1785.14,1201.6 1786.09,1211.93 1787.03,1190.16 1787.98,1305.13 1788.93,1304.98 1789.87,1247.7 1790.82,1064.12 1791.77,1243.82 
  1792.71,1159.47 1793.66,1155.19 1794.61,1296.2 1795.56,1267.36 1796.5,1260.55 1797.45,1274.64 1798.4,1254.01 1799.34,1275.5 1800.29,1295.16 1801.24,1030.31 
  1802.19,979.621 1803.13,1274.18 1804.08,1228.9 1805.03,1236.31 1805.97,1200.45 1806.92,1264.15 1807.87,1281 1808.81,1006.88 1809.76,880.298 1810.71,1136.21 
  1811.66,1294.08 1812.6,1129.66 1813.55,1257.68 1814.5,1242.95 1815.44,1264.94 1816.39,1112.33 1817.34,1038.18 1818.28,1211.93 1819.23,1252.66 1820.18,1301.33 
  1821.13,1307.7 1822.07,1221.62 1823.02,1193.77 1823.97,1282.85 1824.91,1285.25 1825.86,1267.35 1826.81,1318.13 1827.75,1250.24 1828.7,1286.87 1829.65,1201.05 
  1830.6,1293.51 1831.54,1255.6 1832.49,1224.06 1833.44,1297.57 1834.38,1280.57 1835.33,1111.5 1836.28,1143.74 1837.22,1244.77 1838.17,726.78 1839.12,1219.71 
  1840.07,1040.86 1841.01,832.027 1841.96,1249.21 1842.91,1318.33 1843.85,1164.19 1844.8,1068.34 1845.75,1230.49 1846.7,1223.24 1847.64,1290.6 1848.59,1304.51 
  1849.54,1300.21 1850.48,1158.44 1851.43,1200.94 1852.38,1176.16 1853.32,1304.58 1854.27,1230 1855.22,1206.33 1856.17,1318.08 1857.11,1278.14 1858.06,1315.02 
  1859.01,1310.18 1859.95,1281.14 1860.9,1289.37 1861.85,1318.14 1862.79,1318.86 1863.74,1297.81 1864.69,1297.74 1865.64,1177.23 1866.58,1175.48 1867.53,1276.31 
  1868.48,1285.7 1869.42,1322.8 1870.37,1323.86 1871.32,1256.53 1872.26,1259.6 1873.21,1255.22 1874.16,759.131 1875.11,830.002 1876.05,1237.4 1877,1312.27 
  1877.95,1156.39 1878.89,1215.76 1879.84,1297.51 1880.79,1189.72 1881.73,1287.92 1882.68,1184.92 1883.63,1063.01 1884.58,1210.62 1885.52,1307.1 1886.47,1261.12 
  1887.42,1297.6 1888.36,1299.76 1889.31,1178.18 1890.26,1278.26 1891.21,1248.31 1892.15,1215.08 1893.1,1281.94 1894.05,1289.42 1894.99,1304.55 1895.94,1302.69 
  1896.89,1224.2 1897.83,997.439 1898.78,1266.04 1899.73,1267.17 1900.68,1319.77 1901.62,1026.62 1902.57,1172.24 1903.52,1198.2 1904.46,1070.12 1905.41,1298.13 
  1906.36,706.534 1907.3,702.753 1908.25,1006.67 1909.2,1275.92 1910.15,1295.48 1911.09,1306.09 1912.04,1271.73 1912.99,1312.16 1913.93,1286.94 1914.88,1319.7 
  1915.83,1162.72 1916.77,1017.69 1917.72,1288.46 1918.67,1292.08 1919.62,1296.64 1920.56,1313.92 1921.51,1265.82 1922.46,1259.7 1923.4,1302.05 1924.35,1278.35 
  1925.3,1079.58 1926.25,1139.67 1927.19,1260.73 1928.14,1172.54 1929.09,1261.66 1930.03,1293.2 1930.98,1299.64 1931.93,1072.05 1932.87,1199.35 1933.82,1317.99 
  1934.77,1285.29 1935.72,1234.36 1936.66,1091.94 1937.61,1304.98 1938.56,1033.84 1939.5,530.949 1940.45,979.432 1941.4,1295.78 1942.34,1254.74 1943.29,1294.05 
  1944.24,1179.6 1945.19,1296.17 1946.13,1280.17 1947.08,1303.49 1948.03,1260.15 1948.97,1143.76 1949.92,1242.73 1950.87,1317.58 1951.81,1287.55 1952.76,1311.23 
  1953.71,1291.04 1954.66,1190.51 1955.6,1290.66 1956.55,1237.36 1957.5,1119.02 1958.44,1031.98 1959.39,983.585 1960.34,1260.17 1961.28,887.836 1962.23,1220.21 
  1963.18,1074.08 1964.13,878.009 1965.07,1118.03 1966.02,995.549 1966.97,1201.95 1967.91,301.99 1968.86,770.53 1969.81,987.144 1970.76,547.354 1971.7,1095.02 
  1972.65,1322.82 1973.6,1208.44 1974.54,1179.12 1975.49,1299.98 1976.44,1280.43 1977.38,1294.47 1978.33,1318.3 1979.28,1263.45 1980.23,1313.38 1981.17,1170 
  1982.12,1058.92 1983.07,1274.28 1984.01,1230.85 1984.96,1282.35 1985.91,1238.2 1986.85,1170.55 1987.8,1242.28 1988.75,1281 1989.7,1078.68 1990.64,1163.2 
  1991.59,1314.57 1992.54,1309.14 1993.48,1316.95 1994.43,1280.31 1995.38,1213.83 1996.32,1112.22 1997.27,1268.82 1998.22,1245.17 1999.17,1101.59 2000.11,1165.84 
  2001.06,824.951 2002.01,1036.65 2002.95,1135.86 2003.9,675.621 2004.85,1195.32 2005.79,960.996 2006.74,937.949 2007.69,1283.35 2008.64,1022.67 2009.58,1241.12 
  2010.53,1256.14 2011.48,1145.64 2012.42,1254.44 2013.37,1138.14 2014.32,1063.47 2015.27,1238 2016.21,1252.37 2017.16,1249.94 2018.11,1279.87 2019.05,1113.34 
  2020,1299.95 2020.95,1200.4 2021.89,1188.01 2022.84,1296.64 2023.79,1320.98 2024.74,1082.62 2025.68,1144.57 2026.63,1105.74 2027.58,335.005 2028.52,1098 
  2029.47,1074.05 2030.42,919.962 2031.36,1033.98 2032.31,789.231 2033.26,1169.08 2034.21,1321.73 2035.15,1261.51 2036.1,1149.55 2037.05,1248.79 2037.99,1300.45 
  2038.94,1126.7 2039.89,1123.9 2040.83,1266.59 2041.78,1147.21 2042.73,1299.47 2043.68,1172.81 2044.62,1157.35 2045.57,1278.98 2046.52,1203.89 2047.46,1258.02 
  2048.41,1299.23 2049.36,1290.36 2050.3,1308.61 2051.25,1268.76 2052.2,1244.78 2053.15,1211.69 2054.09,1303.63 2055.04,994.27 2055.99,757.556 2056.93,1187.42 
  2057.88,1208.75 2058.83,1175.01 2059.78,1228.26 2060.72,1234.85 2061.67,1315.22 2062.62,1100.26 2063.56,839.635 2064.51,1165.91 2065.46,1104.9 2066.4,1099.25 
  2067.35,1320.35 2068.3,1217.1 2069.25,1191.58 2070.19,1093.69 2071.14,984.214 2072.09,1206.03 2073.03,1310.17 2073.98,1205.12 2074.93,1310.08 2075.87,1265.6 
  2076.82,1179.02 2077.77,1252.76 2078.72,1249.29 2079.66,1157.36 2080.61,1226.88 2081.56,1226.38 2082.5,1178.12 2083.45,1259.74 2084.4,931.062 2085.34,1125.02 
  2086.29,1076.13 2087.24,625.432 2088.19,649.426 2089.13,413.861 2090.08,1153.4 2091.03,790.929 2091.97,872.924 2092.92,1268.36 2093.87,846.174 2094.82,1247.99 
  2095.76,1250 2096.71,1211.71 2097.66,772.413 2098.6,954.371 2099.55,1219.57 2100.5,1121.03 2101.44,1279.67 2102.39,1301.97 2103.34,1142.34 2104.29,1082.78 
  2105.23,1267.64 2106.18,1274.75 2107.13,1202.21 2108.07,1302.39 2109.02,1038.82 2109.97,1023.95 2110.91,1120.73 2111.86,1035.34 2112.81,1034.79 2113.76,1116.87 
  2114.7,1205.85 2115.65,1041.83 2116.6,1184.44 2117.54,1155.34 2118.49,1178.47 2119.44,979.414 2120.38,854.159 2121.33,1215.41 2122.28,1314.16 2123.23,1265.59 
  2124.17,1301.26 2125.12,1313.69 2126.07,1296.81 2127.01,1166.7 2127.96,1101.8 2128.91,967.267 2129.85,1197.91 2130.8,1006.75 2131.75,872.963 2132.7,1298.31 
  2133.64,992.19 2134.59,1249.46 2135.54,1082.14 2136.48,735.459 2137.43,1210.43 2138.38,1184.76 2139.33,1144.65 2140.27,1267.82 2141.22,1036.02 2142.17,980.878 
  2143.11,1223.3 2144.06,1080.59 2145.01,1104.2 2145.95,1202.81 2146.9,1175.02 2147.85,1138.4 2148.8,907.829 2149.74,1231.25 2150.69,696.822 2151.64,793.095 
  2152.58,1260.04 2153.53,1273.14 2154.48,1198.17 2155.42,952.336 2156.37,1321.94 2157.32,839.122 2158.27,1121.36 2159.21,1166.26 2160.16,765.229 2161.11,1082.82 
  2162.05,1143.42 2163,1108.9 2163.95,1241.96 2164.89,1276.54 2165.84,1246.6 2166.79,1275.37 2167.74,1257.81 2168.68,1035.91 2169.63,1112.14 2170.58,1309.7 
  2171.52,1217.62 2172.47,1312.7 2173.42,1216.4 2174.36,1266.39 2175.31,1322.66 2176.26,1306.73 2177.21,1311.36 2178.15,1305.76 2179.1,1156.56 2180.05,1239.24 
  2180.99,1315.95 2181.94,1250.73 2182.89,1284.67 2183.84,1288.81 2184.78,1201.19 2185.73,1202.91 2186.68,1239.5 2187.62,1291.13 2188.57,1313.17 2189.52,1301.67 
  2190.46,1196.93 2191.41,1264.96 2192.36,1100.45 2193.31,287.702 2194.25,831.765 2195.2,1203.08 2196.15,1001.82 2197.09,1303.87 2198.04,1206.88 2198.99,1237.5 
  2199.93,1307.53 
  "/>
</svg>
