<?xml version="1.0" encoding="utf-8"?>
<svg xmlns="http://www.w3.org/2000/svg" xmlns:xlink="http://www.w3.org/1999/xlink" width="600" height="400" viewBox="0 0 2400 1600">
<defs>
  <clipPath id="clip650">
    <rect x="0" y="0" width="2400" height="1600"/>
  </clipPath>
</defs>
<path clip-path="url(#clip650)" d="
M0 1600 L2400 1600 L2400 0 L0 0  Z
  " fill="#ffffff" fill-rule="evenodd" fill-opacity="1"/>
<defs>
  <clipPath id="clip651">
    <rect x="480" y="0" width="1681" height="1600"/>
  </clipPath>
</defs>
<defs>
  <clipPath id="clip652">
    <rect x="238" y="123" width="2115" height="1305"/>
  </clipPath>
</defs>
<path clip-path="url(#clip650)" d="
M311.916 1427.15 L2352.76 1427.15 L2352.76 123.472 L311.916 123.472  Z
  " fill="#ffffff" fill-rule="evenodd" fill-opacity="1"/>
<defs>
  <clipPath id="clip653">
    <rect x="311" y="123" width="2042" height="1305"/>
  </clipPath>
</defs>
<polyline clip-path="url(#clip653)" style="stroke:#000000; stroke-width:2; stroke-opacity:0.1; fill:none" points="
  712.402,1427.15 712.402,123.472 
  "/>
<polyline clip-path="url(#clip653)" style="stroke:#000000; stroke-width:2; stroke-opacity:0.1; fill:none" points="
  1216.41,1427.15 1216.41,123.472 
  "/>
<polyline clip-path="url(#clip653)" style="stroke:#000000; stroke-width:2; stroke-opacity:0.1; fill:none" points="
  1720.42,1427.15 1720.42,123.472 
  "/>
<polyline clip-path="url(#clip653)" style="stroke:#000000; stroke-width:2; stroke-opacity:0.1; fill:none" points="
  2224.43,1427.15 2224.43,123.472 
  "/>
<polyline clip-path="url(#clip650)" style="stroke:#000000; stroke-width:4; stroke-opacity:1; fill:none" points="
  311.916,1427.15 2352.76,1427.15 
  "/>
<polyline clip-path="url(#clip650)" style="stroke:#000000; stroke-width:4; stroke-opacity:1; fill:none" points="
  712.402,1427.15 712.402,1411.5 
  "/>
<polyline clip-path="url(#clip650)" style="stroke:#000000; stroke-width:4; stroke-opacity:1; fill:none" points="
  1216.41,1427.15 1216.41,1411.5 
  "/>
<polyline clip-path="url(#clip650)" style="stroke:#000000; stroke-width:4; stroke-opacity:1; fill:none" points="
  1720.42,1427.15 1720.42,1411.5 
  "/>
<polyline clip-path="url(#clip650)" style="stroke:#000000; stroke-width:4; stroke-opacity:1; fill:none" points="
  2224.43,1427.15 2224.43,1411.5 
  "/>
<path clip-path="url(#clip650)" d="M 0 0 M707.055 1483.88 L723.375 1483.88 L723.375 1487.82 L701.43 1487.82 L701.43 1483.88 Q704.092 1481.13 708.676 1476.5 Q713.282 1471.85 714.463 1470.51 Q716.708 1467.98 717.588 1466.25 Q718.49 1464.49 718.49 1462.8 Q718.49 1460.04 716.546 1458.31 Q714.625 1456.57 711.523 1456.57 Q709.324 1456.57 706.87 1457.33 Q704.44 1458.1 701.662 1459.65 L701.662 1454.93 Q704.486 1453.79 706.94 1453.21 Q709.393 1452.63 711.43 1452.63 Q716.801 1452.63 719.995 1455.32 Q723.189 1458.01 723.189 1462.5 Q723.189 1464.63 722.379 1466.55 Q721.592 1468.44 719.486 1471.04 Q718.907 1471.71 715.805 1474.93 Q712.703 1478.12 707.055 1483.88 Z" fill="#000000" fill-rule="evenodd" fill-opacity="1" /><path clip-path="url(#clip650)" d="M 0 0 M1219.42 1457.33 L1207.62 1475.78 L1219.42 1475.78 L1219.42 1457.33 M1218.2 1453.26 L1224.08 1453.26 L1224.08 1475.78 L1229.01 1475.78 L1229.01 1479.67 L1224.08 1479.67 L1224.08 1487.82 L1219.42 1487.82 L1219.42 1479.67 L1203.82 1479.67 L1203.82 1475.16 L1218.2 1453.26 Z" fill="#000000" fill-rule="evenodd" fill-opacity="1" /><path clip-path="url(#clip650)" d="M 0 0 M1720.83 1468.68 Q1717.68 1468.68 1715.83 1470.83 Q1714 1472.98 1714 1476.73 Q1714 1480.46 1715.83 1482.63 Q1717.68 1484.79 1720.83 1484.79 Q1723.98 1484.79 1725.81 1482.63 Q1727.66 1480.46 1727.66 1476.73 Q1727.66 1472.98 1725.81 1470.83 Q1723.98 1468.68 1720.83 1468.68 M1730.11 1454.02 L1730.11 1458.28 Q1728.35 1457.45 1726.55 1457.01 Q1724.76 1456.57 1723.01 1456.57 Q1718.38 1456.57 1715.92 1459.69 Q1713.49 1462.82 1713.14 1469.14 Q1714.51 1467.13 1716.57 1466.06 Q1718.63 1464.97 1721.11 1464.97 Q1726.32 1464.97 1729.32 1468.14 Q1732.36 1471.29 1732.36 1476.73 Q1732.36 1482.06 1729.21 1485.27 Q1726.06 1488.49 1720.83 1488.49 Q1714.83 1488.49 1711.66 1483.91 Q1708.49 1479.3 1708.49 1470.57 Q1708.49 1462.38 1712.38 1457.52 Q1716.27 1452.63 1722.82 1452.63 Q1724.58 1452.63 1726.36 1452.98 Q1728.17 1453.33 1730.11 1454.02 Z" fill="#000000" fill-rule="evenodd" fill-opacity="1" /><path clip-path="url(#clip650)" d="M 0 0 M2224.43 1471.41 Q2221.1 1471.41 2219.18 1473.19 Q2217.28 1474.97 2217.28 1478.1 Q2217.28 1481.22 2219.18 1483 Q2221.1 1484.79 2224.43 1484.79 Q2227.77 1484.79 2229.69 1483 Q2231.61 1481.2 2231.61 1478.1 Q2231.61 1474.97 2229.69 1473.19 Q2227.79 1471.41 2224.43 1471.41 M2219.76 1469.42 Q2216.75 1468.68 2215.06 1466.62 Q2213.39 1464.56 2213.39 1461.59 Q2213.39 1457.45 2216.33 1455.04 Q2219.3 1452.63 2224.43 1452.63 Q2229.6 1452.63 2232.54 1455.04 Q2235.48 1457.45 2235.48 1461.59 Q2235.48 1464.56 2233.79 1466.62 Q2232.12 1468.68 2229.13 1469.42 Q2232.51 1470.2 2234.39 1472.5 Q2236.29 1474.79 2236.29 1478.1 Q2236.29 1483.12 2233.21 1485.81 Q2230.15 1488.49 2224.43 1488.49 Q2218.72 1488.49 2215.64 1485.81 Q2212.58 1483.12 2212.58 1478.1 Q2212.58 1474.79 2214.48 1472.5 Q2216.38 1470.2 2219.76 1469.42 M2218.05 1462.03 Q2218.05 1464.72 2219.71 1466.22 Q2221.4 1467.73 2224.43 1467.73 Q2227.44 1467.73 2229.13 1466.22 Q2230.85 1464.72 2230.85 1462.03 Q2230.85 1459.35 2229.13 1457.84 Q2227.44 1456.34 2224.43 1456.34 Q2221.4 1456.34 2219.71 1457.84 Q2218.05 1459.35 2218.05 1462.03 Z" fill="#000000" fill-rule="evenodd" fill-opacity="1" /><path clip-path="url(#clip650)" d="M 0 0 M1282.86 1530.6 Q1282.86 1532.85 1279.61 1532.85 L1268.53 1532.85 L1264.12 1555.43 Q1264.02 1556.01 1263.89 1556.33 Q1263.8 1556.65 1263.51 1557.2 Q1263.25 1557.71 1262.7 1557.97 Q1262.19 1558.26 1261.41 1558.26 Q1260.45 1558.26 1259.96 1557.68 Q1259.51 1557.13 1259.51 1556.46 Q1259.51 1556.04 1260.16 1554.04 L1266.63 1532.85 L1261.16 1532.85 Q1256 1532.85 1252.78 1537.94 Q1252.27 1538.61 1251.98 1538.68 Q1251.85 1538.71 1251.72 1538.71 Q1251.37 1538.71 1251.14 1538.55 Q1250.95 1538.39 1250.95 1538.23 L1250.91 1538.07 Q1250.91 1537.84 1251.43 1536.94 Q1251.98 1536.01 1252.94 1534.62 Q1253.94 1533.24 1254.94 1532.14 Q1256.26 1530.72 1257.74 1529.98 Q1259.22 1529.21 1259.96 1529.11 Q1260.74 1529.02 1261.74 1529.02 L1280.22 1529.02 Q1281.06 1529.02 1281.51 1529.08 Q1281.96 1529.11 1282.41 1529.5 Q1282.86 1529.85 1282.86 1530.6 Z" fill="#000000" fill-rule="evenodd" fill-opacity="1" /><path clip-path="url(#clip650)" d="M 0 0 M1301.15 1540.97 Q1301.15 1529.82 1305.31 1520.84 Q1307.08 1517.07 1309.56 1513.91 Q1312.04 1510.76 1313.68 1509.37 Q1315.33 1507.99 1315.78 1507.99 Q1316.42 1507.99 1316.45 1508.63 Q1316.45 1508.95 1315.58 1509.76 Q1304.96 1520.58 1304.99 1540.97 Q1304.99 1561.42 1315.33 1571.82 Q1316.45 1572.95 1316.45 1573.3 Q1316.45 1573.94 1315.78 1573.94 Q1315.33 1573.94 1313.75 1572.62 Q1312.17 1571.3 1309.72 1568.28 Q1307.27 1565.25 1305.5 1561.55 Q1301.15 1552.56 1301.15 1540.97 Z" fill="#000000" fill-rule="evenodd" fill-opacity="1" /><path clip-path="url(#clip650)" d="M 0 0 M1326.48 1557.45 L1326.48 1555.43 Q1329.99 1555.43 1330.8 1555.01 Q1331.6 1554.56 1331.6 1552.43 L1331.6 1534.75 Q1331.6 1532.3 1330.73 1531.69 Q1329.9 1531.08 1326.48 1531.08 L1326.48 1529.02 L1335.76 1528.31 L1335.76 1535.23 Q1338.85 1528.31 1345.52 1528.31 Q1350.48 1528.31 1352.44 1530.76 Q1353.89 1532.4 1354.18 1534.23 Q1354.5 1536.07 1354.5 1540.84 L1354.5 1553.43 Q1354.57 1554.81 1355.63 1555.14 Q1356.69 1555.43 1359.65 1555.43 L1359.65 1557.45 Q1352.92 1557.26 1352.25 1557.26 Q1351.73 1557.26 1344.81 1557.45 L1344.81 1555.43 Q1348.32 1555.43 1349.12 1555.01 Q1349.96 1554.56 1349.96 1552.43 L1349.96 1537.07 Q1349.96 1533.72 1348.93 1531.75 Q1347.9 1529.76 1345.07 1529.76 Q1341.65 1529.76 1338.91 1532.62 Q1336.18 1535.49 1336.18 1540.32 L1336.18 1552.43 Q1336.18 1554.56 1336.98 1555.01 Q1337.82 1555.43 1341.3 1555.43 L1341.3 1557.45 Q1334.57 1557.26 1333.92 1557.26 Q1333.41 1557.26 1326.48 1557.45 Z" fill="#000000" fill-rule="evenodd" fill-opacity="1" /><path clip-path="url(#clip650)" d="M 0 0 M1362.72 1556.59 L1362.72 1547.89 Q1362.72 1547.15 1362.75 1546.89 Q1362.78 1546.63 1362.98 1546.44 Q1363.17 1546.25 1363.56 1546.25 Q1364.01 1546.25 1364.17 1546.44 Q1364.36 1546.63 1364.49 1547.37 Q1365.49 1551.92 1367.61 1554.33 Q1369.77 1556.71 1373.67 1556.71 Q1377.37 1556.71 1379.24 1555.07 Q1381.11 1553.43 1381.11 1550.72 Q1381.11 1545.89 1374.25 1544.67 Q1370.29 1543.86 1368.64 1543.35 Q1367 1542.8 1365.55 1541.61 Q1362.72 1539.29 1362.72 1536.01 Q1362.72 1532.72 1365.2 1530.31 Q1367.71 1527.89 1373.25 1527.89 Q1376.95 1527.89 1379.47 1529.76 Q1380.21 1529.18 1380.59 1528.7 Q1381.46 1527.89 1381.91 1527.89 Q1382.43 1527.89 1382.53 1528.24 Q1382.62 1528.57 1382.62 1529.5 L1382.62 1536.13 Q1382.62 1536.88 1382.59 1537.13 Q1382.56 1537.39 1382.36 1537.58 Q1382.17 1537.74 1381.75 1537.74 Q1381.01 1537.74 1380.98 1537.13 Q1380.46 1529.15 1373.25 1529.15 Q1369.35 1529.15 1367.61 1530.66 Q1365.88 1532.14 1365.88 1534.17 Q1365.88 1535.3 1366.39 1536.17 Q1366.94 1537 1367.61 1537.52 Q1368.32 1538 1369.61 1538.49 Q1370.9 1538.94 1371.67 1539.1 Q1372.48 1539.26 1373.99 1539.58 Q1379.27 1540.58 1381.5 1542.74 Q1384.26 1545.51 1384.26 1549.02 Q1384.26 1552.91 1381.62 1555.55 Q1378.98 1558.2 1373.67 1558.2 Q1369.39 1558.2 1366.39 1555.33 Q1366 1555.72 1365.71 1556.07 Q1365.42 1556.39 1365.3 1556.52 Q1365.2 1556.65 1365.17 1556.75 Q1365.13 1556.81 1365.07 1556.88 Q1363.75 1558.2 1363.43 1558.2 Q1362.91 1558.2 1362.82 1557.84 Q1362.72 1557.52 1362.72 1556.59 Z" fill="#000000" fill-rule="evenodd" fill-opacity="1" /><path clip-path="url(#clip650)" d="M 0 0 M1388.43 1573.3 Q1388.43 1572.98 1389.27 1572.17 Q1399.89 1561.35 1399.89 1540.97 Q1399.89 1520.51 1389.69 1510.18 Q1388.43 1508.99 1388.43 1508.63 Q1388.43 1507.99 1389.07 1507.99 Q1389.52 1507.99 1391.1 1509.31 Q1392.71 1510.63 1395.13 1513.65 Q1397.58 1516.68 1399.38 1520.39 Q1403.73 1529.37 1403.73 1540.97 Q1403.73 1552.11 1399.57 1561.09 Q1397.8 1564.86 1395.32 1568.02 Q1392.84 1571.17 1391.2 1572.56 Q1389.56 1573.94 1389.07 1573.94 Q1388.43 1573.94 1388.43 1573.3 Z" fill="#000000" fill-rule="evenodd" fill-opacity="1" /><polyline clip-path="url(#clip653)" style="stroke:#000000; stroke-width:2; stroke-opacity:0.1; fill:none" points="
  311.916,1390.25 2352.76,1390.25 
  "/>
<polyline clip-path="url(#clip653)" style="stroke:#000000; stroke-width:2; stroke-opacity:0.1; fill:none" points="
  311.916,1082.78 2352.76,1082.78 
  "/>
<polyline clip-path="url(#clip653)" style="stroke:#000000; stroke-width:2; stroke-opacity:0.1; fill:none" points="
  311.916,775.31 2352.76,775.31 
  "/>
<polyline clip-path="url(#clip653)" style="stroke:#000000; stroke-width:2; stroke-opacity:0.1; fill:none" points="
  311.916,467.839 2352.76,467.839 
  "/>
<polyline clip-path="url(#clip653)" style="stroke:#000000; stroke-width:2; stroke-opacity:0.1; fill:none" points="
  311.916,160.369 2352.76,160.369 
  "/>
<polyline clip-path="url(#clip650)" style="stroke:#000000; stroke-width:4; stroke-opacity:1; fill:none" points="
  311.916,1427.15 311.916,123.472 
  "/>
<polyline clip-path="url(#clip650)" style="stroke:#000000; stroke-width:4; stroke-opacity:1; fill:none" points="
  311.916,1390.25 336.406,1390.25 
  "/>
<polyline clip-path="url(#clip650)" style="stroke:#000000; stroke-width:4; stroke-opacity:1; fill:none" points="
  311.916,1082.78 336.406,1082.78 
  "/>
<polyline clip-path="url(#clip650)" style="stroke:#000000; stroke-width:4; stroke-opacity:1; fill:none" points="
  311.916,775.31 336.406,775.31 
  "/>
<polyline clip-path="url(#clip650)" style="stroke:#000000; stroke-width:4; stroke-opacity:1; fill:none" points="
  311.916,467.839 336.406,467.839 
  "/>
<polyline clip-path="url(#clip650)" style="stroke:#000000; stroke-width:4; stroke-opacity:1; fill:none" points="
  311.916,160.369 336.406,160.369 
  "/>
<path clip-path="url(#clip650)" d="M 0 0 M188.578 1376.05 Q184.967 1376.05 183.138 1379.61 Q181.333 1383.16 181.333 1390.29 Q181.333 1397.39 183.138 1400.96 Q184.967 1404.5 188.578 1404.5 Q192.212 1404.5 194.018 1400.96 Q195.847 1397.39 195.847 1390.29 Q195.847 1383.16 194.018 1379.61 Q192.212 1376.05 188.578 1376.05 M188.578 1372.35 Q194.388 1372.35 197.444 1376.95 Q200.522 1381.54 200.522 1390.29 Q200.522 1399.01 197.444 1403.62 Q194.388 1408.2 188.578 1408.2 Q182.768 1408.2 179.689 1403.62 Q176.634 1399.01 176.634 1390.29 Q176.634 1381.54 179.689 1376.95 Q182.768 1372.35 188.578 1372.35 Z" fill="#000000" fill-rule="evenodd" fill-opacity="1" /><path clip-path="url(#clip650)" d="M 0 0 M208.74 1401.65 L213.624 1401.65 L213.624 1407.53 L208.74 1407.53 L208.74 1401.65 Z" fill="#000000" fill-rule="evenodd" fill-opacity="1" /><path clip-path="url(#clip650)" d="M 0 0 M233.809 1376.05 Q230.198 1376.05 228.369 1379.61 Q226.564 1383.16 226.564 1390.29 Q226.564 1397.39 228.369 1400.96 Q230.198 1404.5 233.809 1404.5 Q237.444 1404.5 239.249 1400.96 Q241.078 1397.39 241.078 1390.29 Q241.078 1383.16 239.249 1379.61 Q237.444 1376.05 233.809 1376.05 M233.809 1372.35 Q239.619 1372.35 242.675 1376.95 Q245.754 1381.54 245.754 1390.29 Q245.754 1399.01 242.675 1403.62 Q239.619 1408.2 233.809 1408.2 Q227.999 1408.2 224.92 1403.62 Q221.865 1399.01 221.865 1390.29 Q221.865 1381.54 224.92 1376.95 Q227.999 1372.35 233.809 1372.35 Z" fill="#000000" fill-rule="evenodd" fill-opacity="1" /><path clip-path="url(#clip650)" d="M 0 0 M263.971 1376.05 Q260.36 1376.05 258.531 1379.61 Q256.726 1383.16 256.726 1390.29 Q256.726 1397.39 258.531 1400.96 Q260.36 1404.5 263.971 1404.5 Q267.605 1404.5 269.411 1400.96 Q271.24 1397.39 271.24 1390.29 Q271.24 1383.16 269.411 1379.61 Q267.605 1376.05 263.971 1376.05 M263.971 1372.35 Q269.781 1372.35 272.837 1376.95 Q275.916 1381.54 275.916 1390.29 Q275.916 1399.01 272.837 1403.62 Q269.781 1408.2 263.971 1408.2 Q258.161 1408.2 255.082 1403.62 Q252.027 1399.01 252.027 1390.29 Q252.027 1381.54 255.082 1376.95 Q258.161 1372.35 263.971 1372.35 Z" fill="#000000" fill-rule="evenodd" fill-opacity="1" /><path clip-path="url(#clip650)" d="M 0 0 M189.573 1068.58 Q185.962 1068.58 184.134 1072.14 Q182.328 1075.69 182.328 1082.82 Q182.328 1089.92 184.134 1093.49 Q185.962 1097.03 189.573 1097.03 Q193.208 1097.03 195.013 1093.49 Q196.842 1089.92 196.842 1082.82 Q196.842 1075.69 195.013 1072.14 Q193.208 1068.58 189.573 1068.58 M189.573 1064.88 Q195.384 1064.88 198.439 1069.48 Q201.518 1074.07 201.518 1082.82 Q201.518 1091.54 198.439 1096.15 Q195.384 1100.73 189.573 1100.73 Q183.763 1100.73 180.685 1096.15 Q177.629 1091.54 177.629 1082.82 Q177.629 1074.07 180.685 1069.48 Q183.763 1064.88 189.573 1064.88 Z" fill="#000000" fill-rule="evenodd" fill-opacity="1" /><path clip-path="url(#clip650)" d="M 0 0 M209.735 1094.18 L214.62 1094.18 L214.62 1100.06 L209.735 1100.06 L209.735 1094.18 Z" fill="#000000" fill-rule="evenodd" fill-opacity="1" /><path clip-path="url(#clip650)" d="M 0 0 M228.832 1096.13 L245.152 1096.13 L245.152 1100.06 L223.207 1100.06 L223.207 1096.13 Q225.869 1093.37 230.453 1088.74 Q235.059 1084.09 236.24 1082.75 Q238.485 1080.22 239.365 1078.49 Q240.268 1076.73 240.268 1075.04 Q240.268 1072.28 238.323 1070.55 Q236.402 1068.81 233.3 1068.81 Q231.101 1068.81 228.647 1069.57 Q226.217 1070.34 223.439 1071.89 L223.439 1067.17 Q226.263 1066.03 228.717 1065.45 Q231.17 1064.88 233.207 1064.88 Q238.578 1064.88 241.772 1067.56 Q244.967 1070.25 244.967 1074.74 Q244.967 1076.87 244.156 1078.79 Q243.369 1080.69 241.263 1083.28 Q240.684 1083.95 237.582 1087.17 Q234.481 1090.36 228.832 1096.13 Z" fill="#000000" fill-rule="evenodd" fill-opacity="1" /><path clip-path="url(#clip650)" d="M 0 0 M255.013 1065.5 L273.369 1065.5 L273.369 1069.44 L259.295 1069.44 L259.295 1077.91 Q260.314 1077.56 261.332 1077.4 Q262.351 1077.21 263.369 1077.21 Q269.156 1077.21 272.536 1080.38 Q275.916 1083.56 275.916 1088.97 Q275.916 1094.55 272.443 1097.65 Q268.971 1100.73 262.652 1100.73 Q260.476 1100.73 258.207 1100.36 Q255.962 1099.99 253.555 1099.25 L253.555 1094.55 Q255.638 1095.69 257.86 1096.24 Q260.082 1096.8 262.559 1096.8 Q266.564 1096.8 268.902 1094.69 Q271.24 1092.58 271.24 1088.97 Q271.24 1085.36 268.902 1083.26 Q266.564 1081.15 262.559 1081.15 Q260.684 1081.15 258.809 1081.57 Q256.957 1081.98 255.013 1082.86 L255.013 1065.5 Z" fill="#000000" fill-rule="evenodd" fill-opacity="1" /><path clip-path="url(#clip650)" d="M 0 0 M188.578 761.109 Q184.967 761.109 183.138 764.673 Q181.333 768.215 181.333 775.345 Q181.333 782.451 183.138 786.016 Q184.967 789.558 188.578 789.558 Q192.212 789.558 194.018 786.016 Q195.847 782.451 195.847 775.345 Q195.847 768.215 194.018 764.673 Q192.212 761.109 188.578 761.109 M188.578 757.405 Q194.388 757.405 197.444 762.011 Q200.522 766.595 200.522 775.345 Q200.522 784.071 197.444 788.678 Q194.388 793.261 188.578 793.261 Q182.768 793.261 179.689 788.678 Q176.634 784.071 176.634 775.345 Q176.634 766.595 179.689 762.011 Q182.768 757.405 188.578 757.405 Z" fill="#000000" fill-rule="evenodd" fill-opacity="1" /><path clip-path="url(#clip650)" d="M 0 0 M208.74 786.71 L213.624 786.71 L213.624 792.59 L208.74 792.59 L208.74 786.71 Z" fill="#000000" fill-rule="evenodd" fill-opacity="1" /><path clip-path="url(#clip650)" d="M 0 0 M223.856 758.03 L242.212 758.03 L242.212 761.965 L228.138 761.965 L228.138 770.437 Q229.157 770.09 230.175 769.928 Q231.194 769.743 232.212 769.743 Q237.999 769.743 241.379 772.914 Q244.758 776.085 244.758 781.502 Q244.758 787.081 241.286 790.183 Q237.814 793.261 231.494 793.261 Q229.319 793.261 227.05 792.891 Q224.805 792.52 222.397 791.78 L222.397 787.081 Q224.481 788.215 226.703 788.771 Q228.925 789.326 231.402 789.326 Q235.406 789.326 237.744 787.22 Q240.082 785.113 240.082 781.502 Q240.082 777.891 237.744 775.784 Q235.406 773.678 231.402 773.678 Q229.527 773.678 227.652 774.095 Q225.8 774.511 223.856 775.391 L223.856 758.03 Z" fill="#000000" fill-rule="evenodd" fill-opacity="1" /><path clip-path="url(#clip650)" d="M 0 0 M263.971 761.109 Q260.36 761.109 258.531 764.673 Q256.726 768.215 256.726 775.345 Q256.726 782.451 258.531 786.016 Q260.36 789.558 263.971 789.558 Q267.605 789.558 269.411 786.016 Q271.24 782.451 271.24 775.345 Q271.24 768.215 269.411 764.673 Q267.605 761.109 263.971 761.109 M263.971 757.405 Q269.781 757.405 272.837 762.011 Q275.916 766.595 275.916 775.345 Q275.916 784.071 272.837 788.678 Q269.781 793.261 263.971 793.261 Q258.161 793.261 255.082 788.678 Q252.027 784.071 252.027 775.345 Q252.027 766.595 255.082 762.011 Q258.161 757.405 263.971 757.405 Z" fill="#000000" fill-rule="evenodd" fill-opacity="1" /><path clip-path="url(#clip650)" d="M 0 0 M189.573 453.638 Q185.962 453.638 184.134 457.203 Q182.328 460.744 182.328 467.874 Q182.328 474.98 184.134 478.545 Q185.962 482.087 189.573 482.087 Q193.208 482.087 195.013 478.545 Q196.842 474.98 196.842 467.874 Q196.842 460.744 195.013 457.203 Q193.208 453.638 189.573 453.638 M189.573 449.934 Q195.384 449.934 198.439 454.541 Q201.518 459.124 201.518 467.874 Q201.518 476.601 198.439 481.207 Q195.384 485.791 189.573 485.791 Q183.763 485.791 180.685 481.207 Q177.629 476.601 177.629 467.874 Q177.629 459.124 180.685 454.541 Q183.763 449.934 189.573 449.934 Z" fill="#000000" fill-rule="evenodd" fill-opacity="1" /><path clip-path="url(#clip650)" d="M 0 0 M209.735 479.24 L214.62 479.24 L214.62 485.119 L209.735 485.119 L209.735 479.24 Z" fill="#000000" fill-rule="evenodd" fill-opacity="1" /><path clip-path="url(#clip650)" d="M 0 0 M223.624 450.559 L245.846 450.559 L245.846 452.55 L233.3 485.119 L228.416 485.119 L240.221 454.494 L223.624 454.494 L223.624 450.559 Z" fill="#000000" fill-rule="evenodd" fill-opacity="1" /><path clip-path="url(#clip650)" d="M 0 0 M255.013 450.559 L273.369 450.559 L273.369 454.494 L259.295 454.494 L259.295 462.967 Q260.314 462.619 261.332 462.457 Q262.351 462.272 263.369 462.272 Q269.156 462.272 272.536 465.443 Q275.916 468.615 275.916 474.031 Q275.916 479.61 272.443 482.712 Q268.971 485.791 262.652 485.791 Q260.476 485.791 258.207 485.42 Q255.962 485.05 253.555 484.309 L253.555 479.61 Q255.638 480.744 257.86 481.3 Q260.082 481.855 262.559 481.855 Q266.564 481.855 268.902 479.749 Q271.24 477.642 271.24 474.031 Q271.24 470.42 268.902 468.314 Q266.564 466.207 262.559 466.207 Q260.684 466.207 258.809 466.624 Q256.957 467.041 255.013 467.92 L255.013 450.559 Z" fill="#000000" fill-rule="evenodd" fill-opacity="1" /><path clip-path="url(#clip650)" d="M 0 0 M179.388 173.713 L187.027 173.713 L187.027 147.348 L178.717 149.015 L178.717 144.755 L186.981 143.089 L191.657 143.089 L191.657 173.713 L199.296 173.713 L199.296 177.649 L179.388 177.649 L179.388 173.713 Z" fill="#000000" fill-rule="evenodd" fill-opacity="1" /><path clip-path="url(#clip650)" d="M 0 0 M208.74 171.769 L213.624 171.769 L213.624 177.649 L208.74 177.649 L208.74 171.769 Z" fill="#000000" fill-rule="evenodd" fill-opacity="1" /><path clip-path="url(#clip650)" d="M 0 0 M233.809 146.167 Q230.198 146.167 228.369 149.732 Q226.564 153.274 226.564 160.403 Q226.564 167.51 228.369 171.075 Q230.198 174.616 233.809 174.616 Q237.444 174.616 239.249 171.075 Q241.078 167.51 241.078 160.403 Q241.078 153.274 239.249 149.732 Q237.444 146.167 233.809 146.167 M233.809 142.464 Q239.619 142.464 242.675 147.07 Q245.754 151.653 245.754 160.403 Q245.754 169.13 242.675 173.737 Q239.619 178.32 233.809 178.32 Q227.999 178.32 224.92 173.737 Q221.865 169.13 221.865 160.403 Q221.865 151.653 224.92 147.07 Q227.999 142.464 233.809 142.464 Z" fill="#000000" fill-rule="evenodd" fill-opacity="1" /><path clip-path="url(#clip650)" d="M 0 0 M263.971 146.167 Q260.36 146.167 258.531 149.732 Q256.726 153.274 256.726 160.403 Q256.726 167.51 258.531 171.075 Q260.36 174.616 263.971 174.616 Q267.605 174.616 269.411 171.075 Q271.24 167.51 271.24 160.403 Q271.24 153.274 269.411 149.732 Q267.605 146.167 263.971 146.167 M263.971 142.464 Q269.781 142.464 272.837 147.07 Q275.916 151.653 275.916 160.403 Q275.916 169.13 272.837 173.737 Q269.781 178.32 263.971 178.32 Q258.161 178.32 255.082 173.737 Q252.027 169.13 252.027 160.403 Q252.027 151.653 255.082 147.07 Q258.161 142.464 263.971 142.464 Z" fill="#000000" fill-rule="evenodd" fill-opacity="1" /><path clip-path="url(#clip650)" d="M 0 0 M94.6485 828.016 L111.073 833.684 L111.073 888.37 Q111.073 889.111 111.041 889.4 Q111.009 889.69 110.848 889.916 Q110.687 890.141 110.333 890.141 Q110.043 890.141 109.302 889.561 L80.3491 866.148 L47.2415 890.206 Q45.7278 890.206 45.4379 889.948 Q45.1159 889.69 45.1159 888.37 L45.1159 833.684 L60.5425 828.016 L60.5425 829.658 Q58.5457 830.399 56.871 831.591 Q55.1641 832.75 53.9403 834.103 Q52.7165 835.423 51.7503 837.162 Q50.7519 838.869 50.14 840.48 Q49.4959 842.058 49.045 844.022 Q48.5619 845.987 48.3365 847.565 Q48.0788 849.111 47.95 851.043 Q47.8212 852.976 47.789 854.199 Q47.7568 855.423 47.7568 856.969 L47.7568 883.088 L77.1607 861.671 Q77.9014 861.188 78.0947 861.188 Q78.3845 861.188 79.1575 861.8 L107.434 884.666 L107.434 856.647 Q107.434 847.629 105.534 841.349 Q104.085 837.098 101.218 834.006 Q98.3522 830.882 94.6485 829.658 L94.6485 828.016 Z" fill="#000000" fill-rule="evenodd" fill-opacity="1" /><path clip-path="url(#clip650)" d="M 0 0 M127.747 901.215 Q128.739 901.215 129.483 902.026 Q130.204 902.815 130.204 903.672 Q130.204 904.461 129.731 904.957 Q129.235 905.431 128.536 905.431 Q127.612 905.431 126.845 904.642 Q126.079 903.853 126.079 902.928 Q126.079 902.162 126.552 901.688 Q127.026 901.215 127.747 901.215 M149.998 900.809 Q150.179 900.809 150.9 901.012 Q151.599 901.215 152.681 901.711 Q153.741 902.184 154.732 902.838 Q155.724 903.492 156.423 904.574 Q157.122 905.633 157.122 906.851 Q157.122 908.497 156.04 909.579 Q154.958 910.638 153.335 910.638 Q152.455 910.638 149.637 909.579 Q141.431 906.513 141.093 906.4 Q139.808 905.881 138.681 905.881 Q138.163 905.881 137.847 905.994 Q137.509 906.107 137.396 906.332 Q137.261 906.558 137.238 906.693 Q137.216 906.806 137.216 907.031 Q137.216 908.361 138.568 909.601 Q139.921 910.841 142.942 911.698 Q143.505 911.878 143.641 911.991 Q143.776 912.104 143.776 912.442 Q143.753 913.005 143.303 913.005 Q143.167 913.005 142.649 912.848 Q142.108 912.69 141.296 912.397 Q140.462 912.104 139.605 911.585 Q138.726 911.067 137.96 910.435 Q137.193 909.782 136.697 908.857 Q136.201 907.933 136.201 906.896 Q136.201 905.205 137.306 904.168 Q138.388 903.109 139.989 903.109 Q140.868 903.109 142.423 903.717 Q144.452 904.461 145.106 904.732 L149.953 906.535 Q151.712 907.189 152.253 907.392 Q152.771 907.572 153.402 907.73 Q154.011 907.865 154.575 907.865 Q155.364 907.865 155.724 907.617 Q156.085 907.347 156.085 906.761 Q156.085 905.138 154.484 903.943 Q152.861 902.748 150.381 902.049 Q150.314 902.026 150.201 902.004 Q149.637 901.824 149.57 901.643 Q149.547 901.553 149.547 901.373 Q149.547 900.809 149.998 900.809 Z" fill="#000000" fill-rule="evenodd" fill-opacity="1" /><path clip-path="url(#clip650)" d="M 0 0 M149.592 884.429 Q149.029 884.384 149.029 883.505 L149.029 855.212 Q149.029 853.882 149.547 853.86 Q150.111 853.86 150.088 855.122 L150.088 883.189 Q150.111 884.429 149.592 884.429 M140.575 884.429 Q140.011 884.429 140.034 883.46 L140.034 855.257 Q140.034 853.882 140.575 853.86 Q141.093 853.86 141.093 855.032 L141.093 883.505 Q141.093 884.429 140.575 884.429 Z" fill="#000000" fill-rule="evenodd" fill-opacity="1" /><path clip-path="url(#clip650)" d="M 0 0 M130.25 836.048 L128.807 836.048 Q128.807 830.502 125.853 827.639 Q125.853 826.85 126.034 826.714 Q126.214 826.579 127.048 826.579 L152.951 826.579 Q154.327 826.579 154.755 825.903 Q155.183 825.226 155.183 822.273 L155.183 820.808 L156.604 820.808 Q156.468 822.431 156.468 828.292 Q156.468 834.154 156.604 835.754 L155.183 835.754 L155.183 834.289 Q155.183 831.381 154.778 830.682 Q154.349 829.983 152.951 829.983 L129.032 829.983 Q130.25 832.395 130.25 836.048 Z" fill="#000000" fill-rule="evenodd" fill-opacity="1" /><path clip-path="url(#clip650)" d="M 0 0 M-3.61568 884.121 L-5.05851 884.121 Q-5.05851 878.576 -8.01178 875.712 Q-8.01178 874.923 -7.83143 874.788 Q-7.65108 874.653 -6.81695 874.653 L19.0862 874.653 Q20.4614 874.653 20.8898 873.977 Q21.3181 873.3 21.3181 870.347 L21.3181 868.882 L22.7384 868.882 Q22.6031 870.505 22.6031 876.366 Q22.6031 882.228 22.7384 883.828 L21.3181 883.828 L21.3181 882.363 Q21.3181 879.455 20.9123 878.756 Q20.484 878.057 19.0862 878.057 L-4.83306 878.057 Q-3.61568 880.469 -3.61568 884.121 Z" fill="#000000" fill-rule="evenodd" fill-opacity="1" /><path clip-path="url(#clip650)" d="M 0 0 M7.97199 864.932 Q1.18621 864.932 -2.51102 863.218 Q-8.01178 860.829 -8.01178 855.192 Q-8.01178 853.998 -7.67362 852.758 Q-7.358 851.495 -6.11808 849.917 Q-4.87815 848.317 -2.84918 847.347 Q1.07349 845.499 7.97199 845.499 Q14.7127 845.499 18.3874 847.212 Q23.7529 849.714 23.7529 855.238 Q23.7529 857.312 22.6933 859.431 Q21.6337 861.527 19.0862 862.857 Q15.2763 864.932 7.97199 864.932 M7.40838 861.099 Q14.3745 861.099 17.1474 860.603 Q20.1458 860.039 21.4534 858.506 Q22.7384 856.951 22.7384 855.238 Q22.7384 853.389 21.3632 851.856 Q19.9654 850.3 16.9671 849.827 Q14.0138 849.308 7.40838 849.331 Q0.983314 849.331 -1.58671 849.782 Q-4.58508 850.391 -5.77992 852.014 Q-6.9973 853.614 -6.9973 855.238 Q-6.9973 855.846 -6.81695 856.5 Q-6.63659 857.131 -6.11808 858.056 Q-5.59956 858.98 -4.31455 859.701 Q-3.02954 860.4 -1.09074 860.738 Q1.41165 861.099 7.40838 861.099 Z" fill="#000000" fill-rule="evenodd" fill-opacity="1" /><path clip-path="url(#clip650)" d="M 0 0 M68.5295 768.829 Q68.5617 768.829 69.7212 769.022 L98.9963 776.365 Q100.542 776.752 102.088 777.847 Q103.666 778.91 105.019 780.616 Q106.404 782.291 107.241 784.868 Q108.111 787.412 108.111 790.343 Q108.111 795.013 107.112 797.074 Q106.146 799.103 104.085 799.103 Q102.281 799.103 101.251 797.975 Q100.252 796.848 100.252 795.56 Q100.252 794.336 100.961 793.692 Q101.669 793.048 102.571 793.048 Q103.57 793.048 104.568 793.724 Q105.598 794.401 105.985 795.753 Q106.661 793.595 106.661 790.471 Q106.661 783.869 99.6726 781.035 Q99.576 780.971 99.5438 780.971 L90.816 778.781 L90.7516 778.877 Q91.3957 779.425 92.1364 780.294 Q92.845 781.132 93.7145 782.935 Q94.5841 784.739 94.5841 786.51 Q94.5841 790.214 91.75 792.758 Q88.8836 795.27 84.1494 795.27 Q80.7034 795.27 77.2573 793.885 Q73.7791 792.468 71.2348 790.278 Q68.6584 788.056 67.0481 785.222 Q65.4378 782.356 65.4378 779.586 Q65.4378 777.654 66.5972 776.011 Q67.7244 774.369 69.5923 773.467 Q68.0464 773.306 67.4023 772.436 Q66.7582 771.534 66.7582 770.762 Q66.7582 769.892 67.2413 769.377 Q67.6922 768.829 68.5295 768.829 M72.5553 774.24 Q72.362 774.24 71.8467 774.369 Q71.2992 774.497 70.4297 774.884 Q69.5601 775.238 68.7872 775.786 Q68.0142 776.333 67.4667 777.331 Q66.887 778.298 66.887 779.521 Q66.887 781.518 68.5617 783.515 Q70.2042 785.512 72.7485 786.897 Q75.1961 788.185 79.9304 789.409 Q84.6647 790.6 87.0801 790.6 Q89.4633 790.6 91.2991 789.57 Q93.1348 788.539 93.1348 786.317 Q93.1348 783.74 90.7516 780.971 Q88.2717 778.104 86.1461 777.621 L73.5536 774.433 Q72.7807 774.24 72.5553 774.24 Z" fill="#000000" fill-rule="evenodd" fill-opacity="1" /><path clip-path="url(#clip650)" d="M 0 0 M97.257 750.288 Q98.2489 750.288 98.9929 751.099 Q99.7143 751.888 99.7143 752.745 Q99.7143 753.534 99.2409 754.03 Q98.7449 754.503 98.046 754.503 Q97.1217 754.503 96.3552 753.714 Q95.5887 752.925 95.5887 752.001 Q95.5887 751.235 96.0622 750.761 Q96.5356 750.288 97.257 750.288 M119.508 749.882 Q119.688 749.882 120.41 750.085 Q121.109 750.288 122.191 750.784 Q123.25 751.257 124.242 751.911 Q125.234 752.565 125.933 753.647 Q126.632 754.706 126.632 755.924 Q126.632 757.569 125.55 758.652 Q124.468 759.711 122.845 759.711 Q121.965 759.711 119.147 758.652 Q110.941 755.586 110.603 755.473 Q109.318 754.954 108.191 754.954 Q107.672 754.954 107.357 755.067 Q107.019 755.18 106.906 755.405 Q106.771 755.631 106.748 755.766 Q106.726 755.879 106.726 756.104 Q106.726 757.434 108.078 758.674 Q109.431 759.914 112.452 760.771 Q113.015 760.951 113.151 761.064 Q113.286 761.177 113.286 761.515 Q113.263 762.078 112.812 762.078 Q112.677 762.078 112.159 761.92 Q111.618 761.763 110.806 761.47 Q109.972 761.177 109.115 760.658 Q108.236 760.139 107.469 759.508 Q106.703 758.854 106.207 757.93 Q105.711 757.006 105.711 755.969 Q105.711 754.278 106.816 753.241 Q107.898 752.181 109.498 752.181 Q110.378 752.181 111.933 752.79 Q113.962 753.534 114.616 753.805 L119.463 755.608 Q121.221 756.262 121.762 756.465 Q122.281 756.645 122.912 756.803 Q123.521 756.938 124.084 756.938 Q124.874 756.938 125.234 756.69 Q125.595 756.42 125.595 755.834 Q125.595 754.21 123.994 753.016 Q122.371 751.821 119.891 751.122 Q119.824 751.099 119.711 751.077 Q119.147 750.896 119.08 750.716 Q119.057 750.626 119.057 750.446 Q119.057 749.882 119.508 749.882 Z" fill="#000000" fill-rule="evenodd" fill-opacity="1" /><path clip-path="url(#clip650)" d="M 0 0 M53.0268 762.078 Q45.2265 762.078 38.9367 759.17 Q36.2991 757.93 34.0898 756.194 Q31.8804 754.458 30.911 753.309 Q29.9416 752.159 29.9416 751.843 Q29.9416 751.392 30.3925 751.37 Q30.618 751.37 31.1816 751.979 Q38.7564 759.418 53.0268 759.396 Q67.3423 759.396 74.6241 752.159 Q75.4131 751.37 75.6611 751.37 Q76.112 751.37 76.112 751.843 Q76.112 752.159 75.1877 753.264 Q74.2634 754.368 72.1442 756.082 Q70.0251 757.795 67.4325 759.035 Q61.1427 762.078 53.0268 762.078 Z" fill="#000000" fill-rule="evenodd" fill-opacity="1" /><path clip-path="url(#clip650)" d="M 0 0 M64.5694 744.349 Q63.7353 744.349 63.4873 744.281 Q63.2393 744.191 62.856 743.831 L52.9817 734.971 Q47.526 730.124 42.7692 730.124 Q39.6807 730.124 37.4714 731.747 Q35.2621 733.348 35.2621 736.301 Q35.2621 738.33 36.502 740.043 Q37.7419 741.757 39.9512 742.546 Q39.9061 742.41 39.9061 741.937 Q39.9061 740.787 40.6276 740.156 Q41.349 739.502 42.3184 739.502 Q43.5583 739.502 44.167 740.314 Q44.7531 741.103 44.7531 741.892 Q44.7531 742.207 44.6855 742.636 Q44.6179 743.042 43.9866 743.695 Q43.3328 744.349 42.1831 744.349 Q38.9593 744.349 36.3893 741.914 Q33.8192 739.457 33.8192 735.715 Q33.8192 731.476 36.3442 728.703 Q38.8466 725.908 42.7692 725.908 Q44.1444 725.908 45.4069 726.336 Q46.6468 726.742 47.6162 727.306 Q48.5856 727.847 50.1412 729.335 Q51.6967 730.823 52.8014 732.017 Q53.906 733.212 56.2506 735.895 L61.0074 740.787 L61.0074 732.468 Q61.0074 728.41 60.6467 728.095 Q59.9929 727.644 56.5437 727.08 L56.5437 725.908 L64.5694 727.216 L64.5694 744.349 Z" fill="#000000" fill-rule="evenodd" fill-opacity="1" /><path clip-path="url(#clip650)" d="M 0 0 M75.6611 721.484 Q75.4356 721.484 74.872 720.898 Q67.2972 713.459 53.0268 713.459 Q38.7113 713.459 31.4746 720.605 Q30.6405 721.484 30.3925 721.484 Q29.9416 721.484 29.9416 721.033 Q29.9416 720.718 30.866 719.613 Q31.7903 718.486 33.9094 716.795 Q36.0286 715.082 38.6211 713.819 Q44.9109 710.776 53.0268 710.776 Q60.8271 710.776 67.1169 713.684 Q69.7545 714.924 71.9639 716.66 Q74.1732 718.396 75.1426 719.545 Q76.112 720.695 76.112 721.033 Q76.112 721.484 75.6611 721.484 Z" fill="#000000" fill-rule="evenodd" fill-opacity="1" /><path clip-path="url(#clip650)" d="M 0 0 M78.0947 696.715 Q66.9514 696.715 57.966 692.561 Q54.1979 690.789 51.0418 688.309 Q47.8856 685.829 46.5007 684.187 Q45.1159 682.544 45.1159 682.094 Q45.1159 681.449 45.76 681.417 Q46.082 681.417 46.8872 682.287 Q57.7084 692.915 78.0947 692.883 Q98.5454 692.883 108.948 682.544 Q110.075 681.417 110.429 681.417 Q111.073 681.417 111.073 682.094 Q111.073 682.544 109.753 684.123 Q108.433 685.701 105.405 688.148 Q102.378 690.596 98.6742 692.367 Q89.6888 696.715 78.0947 696.715 Z" fill="#000000" fill-rule="evenodd" fill-opacity="1" /><path clip-path="url(#clip650)" d="M 0 0 M67.7244 639.439 Q69.9788 639.439 69.9788 642.692 L69.9788 653.771 L92.5551 658.183 Q93.1348 658.28 93.4569 658.409 Q93.7789 658.505 94.3264 658.795 Q94.8417 659.053 95.0994 659.6 Q95.3892 660.116 95.3892 660.889 Q95.3892 661.855 94.8095 662.338 Q94.262 662.789 93.5857 662.789 Q93.167 662.789 91.1703 662.145 L69.9788 655.671 L69.9788 661.146 Q69.9788 666.299 75.0673 669.52 Q75.7436 670.035 75.8081 670.325 Q75.8403 670.454 75.8403 670.583 Q75.8403 670.937 75.6792 671.162 Q75.5182 671.355 75.3572 671.355 L75.1961 671.388 Q74.9707 671.388 74.0689 670.872 Q73.135 670.325 71.7501 669.359 Q70.3653 668.36 69.2703 667.362 Q67.8532 666.041 67.1125 664.56 Q66.3395 663.079 66.2429 662.338 Q66.1463 661.565 66.1463 660.566 L66.1463 642.08 Q66.1463 641.243 66.2107 640.792 Q66.2429 640.341 66.6294 639.89 Q66.9837 639.439 67.7244 639.439 Z" fill="#000000" fill-rule="evenodd" fill-opacity="1" /><path clip-path="url(#clip650)" d="M 0 0 M110.429 642.87 Q110.107 642.87 109.302 642.033 Q98.481 631.405 78.0947 631.405 Q57.644 631.405 47.3059 641.614 Q46.1143 642.87 45.76 642.87 Q45.1159 642.87 45.1159 642.226 Q45.1159 641.775 46.4363 640.197 Q47.7568 638.587 50.7841 636.172 Q53.8115 633.724 57.5151 631.92 Q66.5006 627.573 78.0947 627.573 Q89.2379 627.573 98.2233 631.727 Q101.991 633.499 105.148 635.978 Q108.304 638.458 109.689 640.101 Q111.073 641.743 111.073 642.226 Q111.073 642.87 110.429 642.87 Z" fill="#000000" fill-rule="evenodd" fill-opacity="1" /><path clip-path="url(#clip650)" d="M 0 0 M494.973 14.0809 L494.973 22.0612 Q490.315 19.8332 486.183 18.7395 Q482.051 17.6457 478.203 17.6457 Q471.519 17.6457 467.873 20.2383 Q464.267 22.8309 464.267 27.611 Q464.267 31.6214 466.657 33.6873 Q469.088 35.7128 475.813 36.9686 L480.755 37.9813 Q489.91 39.7232 494.244 44.1387 Q498.619 48.5136 498.619 55.8863 Q498.619 64.6767 492.705 69.2137 Q486.831 73.7508 475.448 73.7508 Q471.154 73.7508 466.293 72.7785 Q461.472 71.8063 456.287 69.9024 L456.287 61.4765 Q461.27 64.2716 466.05 65.6895 Q470.83 67.1073 475.448 67.1073 Q482.456 67.1073 486.264 64.3527 Q490.072 61.598 490.072 56.4939 Q490.072 52.0379 487.317 49.5264 Q484.603 47.0148 478.365 45.759 L473.382 44.7868 Q464.227 42.9639 460.136 39.075 Q456.044 35.1862 456.044 28.2591 Q456.044 20.2383 461.675 15.6203 Q467.346 11.0023 477.271 11.0023 Q481.524 11.0023 485.94 11.7719 Q490.355 12.5416 494.973 14.0809 Z" fill="#000000" fill-rule="evenodd" fill-opacity="1" /><path clip-path="url(#clip650)" d="M 0 0 M510.286 54.671 L510.286 27.2059 L517.739 27.2059 L517.739 54.3874 Q517.739 60.8284 520.251 64.0691 Q522.763 67.2693 527.786 67.2693 Q533.821 67.2693 537.305 63.421 Q540.83 59.5726 540.83 52.9291 L540.83 27.2059 L548.283 27.2059 L548.283 72.576 L540.83 72.576 L540.83 65.6084 Q538.115 69.7404 534.51 71.7658 Q530.945 73.7508 526.206 73.7508 Q518.388 73.7508 514.337 68.8897 Q510.286 64.0286 510.286 54.671 M529.041 26.1121 L529.041 26.1121 Z" fill="#000000" fill-rule="evenodd" fill-opacity="1" /><path clip-path="url(#clip650)" d="M 0 0 M598.96 35.9153 Q601.755 30.8922 605.644 28.5022 Q609.533 26.1121 614.799 26.1121 Q621.888 26.1121 625.736 31.0947 Q629.585 36.0368 629.585 45.1919 L629.585 72.576 L622.091 72.576 L622.091 45.4349 Q622.091 38.913 619.782 35.7533 Q617.473 32.5936 612.733 32.5936 Q606.94 32.5936 603.578 36.4419 Q600.216 40.2903 600.216 46.9338 L600.216 72.576 L592.722 72.576 L592.722 45.4349 Q592.722 38.8725 590.413 35.7533 Q588.104 32.5936 583.283 32.5936 Q577.571 32.5936 574.209 36.4824 Q570.847 40.3308 570.847 46.9338 L570.847 72.576 L563.353 72.576 L563.353 27.2059 L570.847 27.2059 L570.847 34.2544 Q573.399 30.082 576.964 28.0971 Q580.528 26.1121 585.43 26.1121 Q590.372 26.1121 593.815 28.6237 Q597.299 31.1352 598.96 35.9153 Z" fill="#000000" fill-rule="evenodd" fill-opacity="1" /><path clip-path="url(#clip650)" d="M 0 0 M688.404 32.4315 Q682.409 32.4315 678.925 37.1306 Q675.441 41.7891 675.441 49.9314 Q675.441 58.0738 678.884 62.7728 Q682.368 67.4314 688.404 67.4314 Q694.359 67.4314 697.843 62.7323 Q701.326 58.0333 701.326 49.9314 Q701.326 41.8701 697.843 37.1711 Q694.359 32.4315 688.404 32.4315 M688.404 26.1121 Q698.126 26.1121 703.676 32.4315 Q709.226 38.7509 709.226 49.9314 Q709.226 61.0714 703.676 67.4314 Q698.126 73.7508 688.404 73.7508 Q678.641 73.7508 673.092 67.4314 Q667.582 61.0714 667.582 49.9314 Q667.582 38.7509 673.092 32.4315 Q678.641 26.1121 688.404 26.1121 Z" fill="#000000" fill-rule="evenodd" fill-opacity="1" /><path clip-path="url(#clip650)" d="M 0 0 M744.55 9.54393 L744.55 15.7418 L737.42 15.7418 Q733.41 15.7418 731.83 17.3622 Q730.29 18.9825 730.29 23.1955 L730.29 27.2059 L742.565 27.2059 L742.565 32.9987 L730.29 32.9987 L730.29 72.576 L722.796 72.576 L722.796 32.9987 L715.667 32.9987 L715.667 27.2059 L722.796 27.2059 L722.796 24.0462 Q722.796 16.471 726.32 13.0277 Q729.845 9.54393 737.501 9.54393 L744.55 9.54393 Z" fill="#000000" fill-rule="evenodd" fill-opacity="1" /><path clip-path="url(#clip650)" d="M 0 0 M785.666 18.8205 L785.666 41.5461 L795.955 41.5461 Q801.667 41.5461 804.786 38.5889 Q807.906 35.6318 807.906 30.163 Q807.906 24.7348 804.786 21.7777 Q801.667 18.8205 795.955 18.8205 L785.666 18.8205 M777.483 12.096 L795.955 12.096 Q806.123 12.096 811.308 16.714 Q816.534 21.2916 816.534 30.163 Q816.534 39.1155 811.308 43.6931 Q806.123 48.2706 795.955 48.2706 L785.666 48.2706 L785.666 72.576 L777.483 72.576 L777.483 12.096 Z" fill="#000000" fill-rule="evenodd" fill-opacity="1" /><path clip-path="url(#clip650)" d="M 0 0 M864.902 45.1919 L864.902 72.576 L857.448 72.576 L857.448 45.4349 Q857.448 38.994 854.937 35.7938 Q852.425 32.5936 847.402 32.5936 Q841.366 32.5936 837.882 36.4419 Q834.399 40.2903 834.399 46.9338 L834.399 72.576 L826.904 72.576 L826.904 9.54393 L834.399 9.54393 L834.399 34.2544 Q837.072 30.163 840.677 28.1376 Q844.323 26.1121 849.063 26.1121 Q856.881 26.1121 860.891 30.9732 Q864.902 35.7938 864.902 45.1919 Z" fill="#000000" fill-rule="evenodd" fill-opacity="1" /><path clip-path="url(#clip650)" d="M 0 0 M897.35 32.4315 Q891.354 32.4315 887.871 37.1306 Q884.387 41.7891 884.387 49.9314 Q884.387 58.0738 887.83 62.7728 Q891.314 67.4314 897.35 67.4314 Q903.304 67.4314 906.788 62.7323 Q910.272 58.0333 910.272 49.9314 Q910.272 41.8701 906.788 37.1711 Q903.304 32.4315 897.35 32.4315 M897.35 26.1121 Q907.072 26.1121 912.622 32.4315 Q918.171 38.7509 918.171 49.9314 Q918.171 61.0714 912.622 67.4314 Q907.072 73.7508 897.35 73.7508 Q887.587 73.7508 882.037 67.4314 Q876.528 61.0714 876.528 49.9314 Q876.528 38.7509 882.037 32.4315 Q887.587 26.1121 897.35 26.1121 Z" fill="#000000" fill-rule="evenodd" fill-opacity="1" /><path clip-path="url(#clip650)" d="M 0 0 M937.899 14.324 L937.899 27.2059 L953.252 27.2059 L953.252 32.9987 L937.899 32.9987 L937.899 57.6282 Q937.899 63.1779 939.398 64.7578 Q940.937 66.3376 945.596 66.3376 L953.252 66.3376 L953.252 72.576 L945.596 72.576 Q936.967 72.576 933.686 69.3758 Q930.405 66.1351 930.405 57.6282 L930.405 32.9987 L924.936 32.9987 L924.936 27.2059 L930.405 27.2059 L930.405 14.324 L937.899 14.324 Z" fill="#000000" fill-rule="evenodd" fill-opacity="1" /><path clip-path="url(#clip650)" d="M 0 0 M980.636 32.4315 Q974.641 32.4315 971.157 37.1306 Q967.673 41.7891 967.673 49.9314 Q967.673 58.0738 971.117 62.7728 Q974.6 67.4314 980.636 67.4314 Q986.591 67.4314 990.075 62.7323 Q993.559 58.0333 993.559 49.9314 Q993.559 41.8701 990.075 37.1711 Q986.591 32.4315 980.636 32.4315 M980.636 26.1121 Q990.358 26.1121 995.908 32.4315 Q1001.46 38.7509 1001.46 49.9314 Q1001.46 61.0714 995.908 67.4314 Q990.358 73.7508 980.636 73.7508 Q970.874 73.7508 965.324 67.4314 Q959.815 61.0714 959.815 49.9314 Q959.815 38.7509 965.324 32.4315 Q970.874 26.1121 980.636 26.1121 Z" fill="#000000" fill-rule="evenodd" fill-opacity="1" /><path clip-path="url(#clip650)" d="M 0 0 M1051.53 45.1919 L1051.53 72.576 L1044.07 72.576 L1044.07 45.4349 Q1044.07 38.994 1041.56 35.7938 Q1039.05 32.5936 1034.03 32.5936 Q1027.99 32.5936 1024.51 36.4419 Q1021.02 40.2903 1021.02 46.9338 L1021.02 72.576 L1013.53 72.576 L1013.53 27.2059 L1021.02 27.2059 L1021.02 34.2544 Q1023.7 30.163 1027.3 28.1376 Q1030.95 26.1121 1035.69 26.1121 Q1043.51 26.1121 1047.52 30.9732 Q1051.53 35.7938 1051.53 45.1919 Z" fill="#000000" fill-rule="evenodd" fill-opacity="1" /><path clip-path="url(#clip650)" d="M 0 0 M1138.38 16.7545 L1138.38 25.383 Q1134.25 21.5346 1129.55 19.6307 Q1124.89 17.7268 1119.62 17.7268 Q1109.25 17.7268 1103.74 24.0867 Q1098.23 30.4061 1098.23 42.3968 Q1098.23 54.3469 1103.74 60.7069 Q1109.25 67.0263 1119.62 67.0263 Q1124.89 67.0263 1129.55 65.1223 Q1134.25 63.2184 1138.38 59.3701 L1138.38 67.9175 Q1134.08 70.8341 1129.26 72.2924 Q1124.48 73.7508 1119.14 73.7508 Q1105.4 73.7508 1097.5 65.3654 Q1089.61 56.9395 1089.61 42.3968 Q1089.61 27.8135 1097.5 19.4281 Q1105.4 11.0023 1119.14 11.0023 Q1124.56 11.0023 1129.34 12.4606 Q1134.17 13.8784 1138.38 16.7545 Z" fill="#000000" fill-rule="evenodd" fill-opacity="1" /><path clip-path="url(#clip650)" d="M 0 0 M1168.27 32.4315 Q1162.28 32.4315 1158.79 37.1306 Q1155.31 41.7891 1155.31 49.9314 Q1155.31 58.0738 1158.75 62.7728 Q1162.24 67.4314 1168.27 67.4314 Q1174.23 67.4314 1177.71 62.7323 Q1181.2 58.0333 1181.2 49.9314 Q1181.2 41.8701 1177.71 37.1711 Q1174.23 32.4315 1168.27 32.4315 M1168.27 26.1121 Q1178 26.1121 1183.55 32.4315 Q1189.1 38.7509 1189.1 49.9314 Q1189.1 61.0714 1183.55 67.4314 Q1178 73.7508 1168.27 73.7508 Q1158.51 73.7508 1152.96 67.4314 Q1147.45 61.0714 1147.45 49.9314 Q1147.45 38.7509 1152.96 32.4315 Q1158.51 26.1121 1168.27 26.1121 Z" fill="#000000" fill-rule="evenodd" fill-opacity="1" /><path clip-path="url(#clip650)" d="M 0 0 M1227.74 34.1734 Q1226.49 33.4443 1224.99 33.1202 Q1223.53 32.7556 1221.75 32.7556 Q1215.43 32.7556 1212.02 36.8875 Q1208.66 40.9789 1208.66 48.6757 L1208.66 72.576 L1201.17 72.576 L1201.17 27.2059 L1208.66 27.2059 L1208.66 34.2544 Q1211.01 30.1225 1214.78 28.1376 Q1218.55 26.1121 1223.93 26.1121 Q1224.7 26.1121 1225.63 26.2337 Q1226.57 26.3147 1227.7 26.5172 L1227.74 34.1734 Z" fill="#000000" fill-rule="evenodd" fill-opacity="1" /><path clip-path="url(#clip650)" d="M 0 0 M1260.39 34.1734 Q1259.14 33.4443 1257.64 33.1202 Q1256.18 32.7556 1254.4 32.7556 Q1248.08 32.7556 1244.67 36.8875 Q1241.31 40.9789 1241.31 48.6757 L1241.31 72.576 L1233.82 72.576 L1233.82 27.2059 L1241.31 27.2059 L1241.31 34.2544 Q1243.66 30.1225 1247.43 28.1376 Q1251.2 26.1121 1256.58 26.1121 Q1257.35 26.1121 1258.29 26.2337 Q1259.22 26.3147 1260.35 26.5172 L1260.39 34.1734 Z" fill="#000000" fill-rule="evenodd" fill-opacity="1" /><path clip-path="url(#clip650)" d="M 0 0 M1305.19 48.0275 L1305.19 51.6733 L1270.92 51.6733 Q1271.41 59.3701 1275.54 63.421 Q1279.71 67.4314 1287.13 67.4314 Q1291.42 67.4314 1295.43 66.3781 Q1299.48 65.3249 1303.45 63.2184 L1303.45 70.267 Q1299.44 71.9684 1295.23 72.8596 Q1291.02 73.7508 1286.68 73.7508 Q1275.83 73.7508 1269.47 67.4314 Q1263.15 61.1119 1263.15 50.3365 Q1263.15 39.1965 1269.14 32.6746 Q1275.18 26.1121 1285.39 26.1121 Q1294.54 26.1121 1299.85 32.0264 Q1305.19 37.9003 1305.19 48.0275 M1297.74 45.84 Q1297.66 39.7232 1294.3 36.0774 Q1290.98 32.4315 1285.47 32.4315 Q1279.23 32.4315 1275.46 35.9558 Q1271.73 39.4801 1271.17 45.8805 L1297.74 45.84 Z" fill="#000000" fill-rule="evenodd" fill-opacity="1" /><path clip-path="url(#clip650)" d="M 0 0 M1317.43 9.54393 L1324.88 9.54393 L1324.88 72.576 L1317.43 72.576 L1317.43 9.54393 Z" fill="#000000" fill-rule="evenodd" fill-opacity="1" /><path clip-path="url(#clip650)" d="M 0 0 M1361.1 49.7694 Q1352.06 49.7694 1348.58 51.8354 Q1345.1 53.9013 1345.1 58.8839 Q1345.1 62.8538 1347.69 65.2034 Q1350.32 67.5124 1354.82 67.5124 Q1361.02 67.5124 1364.74 63.1374 Q1368.51 58.7219 1368.51 51.4303 L1368.51 49.7694 L1361.1 49.7694 M1375.96 46.6907 L1375.96 72.576 L1368.51 72.576 L1368.51 65.6895 Q1365.96 69.8214 1362.15 71.8063 Q1358.34 73.7508 1352.83 73.7508 Q1345.87 73.7508 1341.73 69.8619 Q1337.64 65.9325 1337.64 59.3701 Q1337.64 51.7138 1342.75 47.825 Q1347.89 43.9361 1358.06 43.9361 L1368.51 43.9361 L1368.51 43.2069 Q1368.51 38.0623 1365.11 35.2672 Q1361.75 32.4315 1355.63 32.4315 Q1351.74 32.4315 1348.05 33.3632 Q1344.37 34.295 1340.96 36.1584 L1340.96 29.2718 Q1345.06 27.692 1348.9 26.9223 Q1352.75 26.1121 1356.4 26.1121 Q1366.24 26.1121 1371.1 31.2163 Q1375.96 36.3204 1375.96 46.6907 Z" fill="#000000" fill-rule="evenodd" fill-opacity="1" /><path clip-path="url(#clip650)" d="M 0 0 M1398.69 14.324 L1398.69 27.2059 L1414.04 27.2059 L1414.04 32.9987 L1398.69 32.9987 L1398.69 57.6282 Q1398.69 63.1779 1400.19 64.7578 Q1401.73 66.3376 1406.39 66.3376 L1414.04 66.3376 L1414.04 72.576 L1406.39 72.576 Q1397.76 72.576 1394.48 69.3758 Q1391.2 66.1351 1391.2 57.6282 L1391.2 32.9987 L1385.73 32.9987 L1385.73 27.2059 L1391.2 27.2059 L1391.2 14.324 L1398.69 14.324 Z" fill="#000000" fill-rule="evenodd" fill-opacity="1" /><path clip-path="url(#clip650)" d="M 0 0 M1423.85 27.2059 L1431.3 27.2059 L1431.3 72.576 L1423.85 72.576 L1423.85 27.2059 M1423.85 9.54393 L1431.3 9.54393 L1431.3 18.9825 L1423.85 18.9825 L1423.85 9.54393 Z" fill="#000000" fill-rule="evenodd" fill-opacity="1" /><path clip-path="url(#clip650)" d="M 0 0 M1464.48 32.4315 Q1458.48 32.4315 1455 37.1306 Q1451.51 41.7891 1451.51 49.9314 Q1451.51 58.0738 1454.96 62.7728 Q1458.44 67.4314 1464.48 67.4314 Q1470.43 67.4314 1473.91 62.7323 Q1477.4 58.0333 1477.4 49.9314 Q1477.4 41.8701 1473.91 37.1711 Q1470.43 32.4315 1464.48 32.4315 M1464.48 26.1121 Q1474.2 26.1121 1479.75 32.4315 Q1485.3 38.7509 1485.3 49.9314 Q1485.3 61.0714 1479.75 67.4314 Q1474.2 73.7508 1464.48 73.7508 Q1454.71 73.7508 1449.16 67.4314 Q1443.65 61.0714 1443.65 49.9314 Q1443.65 38.7509 1449.16 32.4315 Q1454.71 26.1121 1464.48 26.1121 Z" fill="#000000" fill-rule="evenodd" fill-opacity="1" /><path clip-path="url(#clip650)" d="M 0 0 M1535.37 45.1919 L1535.37 72.576 L1527.91 72.576 L1527.91 45.4349 Q1527.91 38.994 1525.4 35.7938 Q1522.89 32.5936 1517.87 32.5936 Q1511.83 32.5936 1508.35 36.4419 Q1504.86 40.2903 1504.86 46.9338 L1504.86 72.576 L1497.37 72.576 L1497.37 27.2059 L1504.86 27.2059 L1504.86 34.2544 Q1507.54 30.163 1511.14 28.1376 Q1514.79 26.1121 1519.53 26.1121 Q1527.35 26.1121 1531.36 30.9732 Q1535.37 35.7938 1535.37 45.1919 Z" fill="#000000" fill-rule="evenodd" fill-opacity="1" /><path clip-path="url(#clip650)" d="M 0 0 M1579.16 28.5427 L1579.16 35.5912 Q1576 33.9709 1572.59 33.1607 Q1569.19 32.3505 1565.55 32.3505 Q1560 32.3505 1557.2 34.0519 Q1554.45 35.7533 1554.45 39.156 Q1554.45 41.7486 1556.43 43.2475 Q1558.42 44.7058 1564.41 46.0426 L1566.96 46.6097 Q1574.9 48.3111 1578.23 51.4303 Q1581.59 54.509 1581.59 60.0587 Q1581.59 66.3781 1576.56 70.0644 Q1571.58 73.7508 1562.83 73.7508 Q1559.19 73.7508 1555.22 73.0216 Q1551.29 72.3329 1546.91 70.9151 L1546.91 63.2184 Q1551.04 65.3654 1555.05 66.4591 Q1559.06 67.5124 1562.99 67.5124 Q1568.26 67.5124 1571.1 65.73 Q1573.93 63.9071 1573.93 60.6258 Q1573.93 57.5877 1571.87 55.9673 Q1569.84 54.3469 1562.91 52.8481 L1560.32 52.2405 Q1553.39 50.7821 1550.31 47.7845 Q1547.24 44.7463 1547.24 39.4801 Q1547.24 33.0797 1551.77 29.5959 Q1556.31 26.1121 1564.66 26.1121 Q1568.79 26.1121 1572.43 26.7198 Q1576.08 27.3274 1579.16 28.5427 Z" fill="#000000" fill-rule="evenodd" fill-opacity="1" /><path clip-path="url(#clip650)" d="M 0 0 M1614.48 27.2059 L1622.38 27.2059 L1636.56 65.2844 L1650.74 27.2059 L1658.64 27.2059 L1641.62 72.576 L1631.49 72.576 L1614.48 27.2059 Z" fill="#000000" fill-rule="evenodd" fill-opacity="1" /><path clip-path="url(#clip650)" d="M 0 0 M1697.85 28.5427 L1697.85 35.5912 Q1694.69 33.9709 1691.29 33.1607 Q1687.88 32.3505 1684.24 32.3505 Q1678.69 32.3505 1675.89 34.0519 Q1673.14 35.7533 1673.14 39.156 Q1673.14 41.7486 1675.12 43.2475 Q1677.11 44.7058 1683.1 46.0426 L1685.66 46.6097 Q1693.6 48.3111 1696.92 51.4303 Q1700.28 54.509 1700.28 60.0587 Q1700.28 66.3781 1695.26 70.0644 Q1690.27 73.7508 1681.52 73.7508 Q1677.88 73.7508 1673.91 73.0216 Q1669.98 72.3329 1665.6 70.9151 L1665.6 63.2184 Q1669.74 65.3654 1673.75 66.4591 Q1677.76 67.5124 1681.69 67.5124 Q1686.95 67.5124 1689.79 65.73 Q1692.62 63.9071 1692.62 60.6258 Q1692.62 57.5877 1690.56 55.9673 Q1688.53 54.3469 1681.6 52.8481 L1679.01 52.2405 Q1672.09 50.7821 1669.01 47.7845 Q1665.93 44.7463 1665.93 39.4801 Q1665.93 33.0797 1670.46 29.5959 Q1675 26.1121 1683.35 26.1121 Q1687.48 26.1121 1691.12 26.7198 Q1694.77 27.3274 1697.85 28.5427 Z" fill="#000000" fill-rule="evenodd" fill-opacity="1" /><path clip-path="url(#clip650)" d="M 0 0 M1730.46 12.096 L1781.62 12.096 L1781.62 18.9825 L1760.15 18.9825 L1760.15 72.576 L1751.93 72.576 L1751.93 18.9825 L1730.46 18.9825 L1730.46 12.096 Z" fill="#000000" fill-rule="evenodd" fill-opacity="1" /><path clip-path="url(#clip650)" d="M 0 0 M1786.64 27.2059 L1794.1 27.2059 L1794.1 72.576 L1786.64 72.576 L1786.64 27.2059 M1786.64 9.54393 L1794.1 9.54393 L1794.1 18.9825 L1786.64 18.9825 L1786.64 9.54393 Z" fill="#000000" fill-rule="evenodd" fill-opacity="1" /><path clip-path="url(#clip650)" d="M 0 0 M1845.02 35.9153 Q1847.81 30.8922 1851.7 28.5022 Q1855.59 26.1121 1860.86 26.1121 Q1867.95 26.1121 1871.79 31.0947 Q1875.64 36.0368 1875.64 45.1919 L1875.64 72.576 L1868.15 72.576 L1868.15 45.4349 Q1868.15 38.913 1865.84 35.7533 Q1863.53 32.5936 1858.79 32.5936 Q1853 32.5936 1849.64 36.4419 Q1846.27 40.2903 1846.27 46.9338 L1846.27 72.576 L1838.78 72.576 L1838.78 45.4349 Q1838.78 38.8725 1836.47 35.7533 Q1834.16 32.5936 1829.34 32.5936 Q1823.63 32.5936 1820.27 36.4824 Q1816.9 40.3308 1816.9 46.9338 L1816.9 72.576 L1809.41 72.576 L1809.41 27.2059 L1816.9 27.2059 L1816.9 34.2544 Q1819.46 30.082 1823.02 28.0971 Q1826.59 26.1121 1831.49 26.1121 Q1836.43 26.1121 1839.87 28.6237 Q1843.36 31.1352 1845.02 35.9153 Z" fill="#000000" fill-rule="evenodd" fill-opacity="1" /><path clip-path="url(#clip650)" d="M 0 0 M1929.32 48.0275 L1929.32 51.6733 L1895.05 51.6733 Q1895.53 59.3701 1899.66 63.421 Q1903.84 67.4314 1911.25 67.4314 Q1915.54 67.4314 1919.55 66.3781 Q1923.61 65.3249 1927.58 63.2184 L1927.58 70.267 Q1923.57 71.9684 1919.35 72.8596 Q1915.14 73.7508 1910.8 73.7508 Q1899.95 73.7508 1893.59 67.4314 Q1887.27 61.1119 1887.27 50.3365 Q1887.27 39.1965 1893.26 32.6746 Q1899.3 26.1121 1909.51 26.1121 Q1918.66 26.1121 1923.97 32.0264 Q1929.32 37.9003 1929.32 48.0275 M1921.86 45.84 Q1921.78 39.7232 1918.42 36.0774 Q1915.1 32.4315 1909.59 32.4315 Q1903.35 32.4315 1899.58 35.9558 Q1895.86 39.4801 1895.29 45.8805 L1921.86 45.84 Z" fill="#000000" fill-rule="evenodd" fill-opacity="1" /><path clip-path="url(#clip650)" d="M 0 0 M1992.8 17.6457 Q1983.88 17.6457 1978.62 24.2892 Q1973.39 30.9327 1973.39 42.3968 Q1973.39 53.8203 1978.62 60.4638 Q1983.88 67.1073 1992.8 67.1073 Q2001.71 67.1073 2006.89 60.4638 Q2012.12 53.8203 2012.12 42.3968 Q2012.12 30.9327 2006.89 24.2892 Q2001.71 17.6457 1992.8 17.6457 M1992.8 11.0023 Q2005.51 11.0023 2013.13 19.5497 Q2020.75 28.0566 2020.75 42.3968 Q2020.75 56.6965 2013.13 65.2439 Q2005.51 73.7508 1992.8 73.7508 Q1980.03 73.7508 1972.38 65.2439 Q1964.76 56.737 1964.76 42.3968 Q1964.76 28.0566 1972.38 19.5497 Q1980.03 11.0023 1992.8 11.0023 Z" fill="#000000" fill-rule="evenodd" fill-opacity="1" /><path clip-path="url(#clip650)" d="M 0 0 M2056.19 9.54393 L2056.19 15.7418 L2049.06 15.7418 Q2045.05 15.7418 2043.47 17.3622 Q2041.93 18.9825 2041.93 23.1955 L2041.93 27.2059 L2054.21 27.2059 L2054.21 32.9987 L2041.93 32.9987 L2041.93 72.576 L2034.44 72.576 L2034.44 32.9987 L2027.31 32.9987 L2027.31 27.2059 L2034.44 27.2059 L2034.44 24.0462 Q2034.44 16.471 2037.96 13.0277 Q2041.49 9.54393 2049.14 9.54393 L2056.19 9.54393 Z" fill="#000000" fill-rule="evenodd" fill-opacity="1" /><path clip-path="url(#clip650)" d="M 0 0 M2085.4 9.54393 L2085.4 15.7418 L2078.27 15.7418 Q2074.26 15.7418 2072.68 17.3622 Q2071.14 18.9825 2071.14 23.1955 L2071.14 27.2059 L2083.41 27.2059 L2083.41 32.9987 L2071.14 32.9987 L2071.14 72.576 L2063.65 72.576 L2063.65 32.9987 L2056.52 32.9987 L2056.52 27.2059 L2063.65 27.2059 L2063.65 24.0462 Q2063.65 16.471 2067.17 13.0277 Q2070.69 9.54393 2078.35 9.54393 L2085.4 9.54393 Z" fill="#000000" fill-rule="evenodd" fill-opacity="1" /><path clip-path="url(#clip650)" d="M 0 0 M2120.56 28.5427 L2120.56 35.5912 Q2117.4 33.9709 2114 33.1607 Q2110.6 32.3505 2106.95 32.3505 Q2101.4 32.3505 2098.6 34.0519 Q2095.85 35.7533 2095.85 39.156 Q2095.85 41.7486 2097.84 43.2475 Q2099.82 44.7058 2105.82 46.0426 L2108.37 46.6097 Q2116.31 48.3111 2119.63 51.4303 Q2122.99 54.509 2122.99 60.0587 Q2122.99 66.3781 2117.97 70.0644 Q2112.99 73.7508 2104.24 73.7508 Q2100.59 73.7508 2096.62 73.0216 Q2092.69 72.3329 2088.32 70.9151 L2088.32 63.2184 Q2092.45 65.3654 2096.46 66.4591 Q2100.47 67.5124 2104.4 67.5124 Q2109.66 67.5124 2112.5 65.73 Q2115.33 63.9071 2115.33 60.6258 Q2115.33 57.5877 2113.27 55.9673 Q2111.24 54.3469 2104.32 52.8481 L2101.72 52.2405 Q2094.8 50.7821 2091.72 47.7845 Q2088.64 44.7463 2088.64 39.4801 Q2088.64 33.0797 2093.18 29.5959 Q2097.71 26.1121 2106.06 26.1121 Q2110.19 26.1121 2113.84 26.7198 Q2117.48 27.3274 2120.56 28.5427 Z" fill="#000000" fill-rule="evenodd" fill-opacity="1" /><path clip-path="url(#clip650)" d="M 0 0 M2173.67 48.0275 L2173.67 51.6733 L2139.4 51.6733 Q2139.88 59.3701 2144.02 63.421 Q2148.19 67.4314 2155.6 67.4314 Q2159.89 67.4314 2163.91 66.3781 Q2167.96 65.3249 2171.93 63.2184 L2171.93 70.267 Q2167.92 71.9684 2163.7 72.8596 Q2159.49 73.7508 2155.16 73.7508 Q2144.3 73.7508 2137.94 67.4314 Q2131.62 61.1119 2131.62 50.3365 Q2131.62 39.1965 2137.61 32.6746 Q2143.65 26.1121 2153.86 26.1121 Q2163.01 26.1121 2168.32 32.0264 Q2173.67 37.9003 2173.67 48.0275 M2166.21 45.84 Q2166.13 39.7232 2162.77 36.0774 Q2159.45 32.4315 2153.94 32.4315 Q2147.7 32.4315 2143.93 35.9558 Q2140.21 39.4801 2139.64 45.8805 L2166.21 45.84 Z" fill="#000000" fill-rule="evenodd" fill-opacity="1" /><path clip-path="url(#clip650)" d="M 0 0 M2193.27 14.324 L2193.27 27.2059 L2208.63 27.2059 L2208.63 32.9987 L2193.27 32.9987 L2193.27 57.6282 Q2193.27 63.1779 2194.77 64.7578 Q2196.31 66.3376 2200.97 66.3376 L2208.63 66.3376 L2208.63 72.576 L2200.97 72.576 Q2192.34 72.576 2189.06 69.3758 Q2185.78 66.1351 2185.78 57.6282 L2185.78 32.9987 L2180.31 32.9987 L2180.31 27.2059 L2185.78 27.2059 L2185.78 14.324 L2193.27 14.324 Z" fill="#000000" fill-rule="evenodd" fill-opacity="1" /></svg>
