<?xml version="1.0" encoding="utf-8"?>
<svg xmlns="http://www.w3.org/2000/svg" xmlns:xlink="http://www.w3.org/1999/xlink" width="600" height="400" viewBox="0 0 2400 1600">
<defs>
  <clipPath id="clip410">
    <rect x="0" y="0" width="2400" height="1600"/>
  </clipPath>
</defs>
<path clip-path="url(#clip410)" d="
M0 1600 L2400 1600 L2400 0 L0 0  Z
  " fill="#ffffff" fill-rule="evenodd" fill-opacity="1"/>
<defs>
  <clipPath id="clip411">
    <rect x="480" y="0" width="1681" height="1600"/>
  </clipPath>
</defs>
<defs>
  <clipPath id="clip412">
    <rect x="255" y="123" width="2098" height="1305"/>
  </clipPath>
</defs>
<path clip-path="url(#clip410)" d="
M311.568 1427.15 L2352.76 1427.15 L2352.76 123.472 L311.568 123.472  Z
  " fill="#ffffff" fill-rule="evenodd" fill-opacity="1"/>
<defs>
  <clipPath id="clip413">
    <rect x="311" y="123" width="2042" height="1305"/>
  </clipPath>
</defs>
<polyline clip-path="url(#clip413)" style="stroke:#000000; stroke-width:2; stroke-opacity:0.1; fill:none" points="
  369.338,1427.15 369.338,123.472 
  "/>
<polyline clip-path="url(#clip413)" style="stroke:#000000; stroke-width:2; stroke-opacity:0.1; fill:none" points="
  851.232,1427.15 851.232,123.472 
  "/>
<polyline clip-path="url(#clip413)" style="stroke:#000000; stroke-width:2; stroke-opacity:0.1; fill:none" points="
  1333.13,1427.15 1333.13,123.472 
  "/>
<polyline clip-path="url(#clip413)" style="stroke:#000000; stroke-width:2; stroke-opacity:0.1; fill:none" points="
  1815.02,1427.15 1815.02,123.472 
  "/>
<polyline clip-path="url(#clip413)" style="stroke:#000000; stroke-width:2; stroke-opacity:0.1; fill:none" points="
  2296.91,1427.15 2296.91,123.472 
  "/>
<polyline clip-path="url(#clip410)" style="stroke:#000000; stroke-width:4; stroke-opacity:1; fill:none" points="
  311.568,1427.15 2352.76,1427.15 
  "/>
<polyline clip-path="url(#clip410)" style="stroke:#000000; stroke-width:4; stroke-opacity:1; fill:none" points="
  369.338,1427.15 369.338,1411.5 
  "/>
<polyline clip-path="url(#clip410)" style="stroke:#000000; stroke-width:4; stroke-opacity:1; fill:none" points="
  851.232,1427.15 851.232,1411.5 
  "/>
<polyline clip-path="url(#clip410)" style="stroke:#000000; stroke-width:4; stroke-opacity:1; fill:none" points="
  1333.13,1427.15 1333.13,1411.5 
  "/>
<polyline clip-path="url(#clip410)" style="stroke:#000000; stroke-width:4; stroke-opacity:1; fill:none" points="
  1815.02,1427.15 1815.02,1411.5 
  "/>
<polyline clip-path="url(#clip410)" style="stroke:#000000; stroke-width:4; stroke-opacity:1; fill:none" points="
  2296.91,1427.15 2296.91,1411.5 
  "/>
<path clip-path="url(#clip410)" d="M 0 0 M346.722 1456.34 Q343.111 1456.34 341.282 1459.9 Q339.477 1463.44 339.477 1470.57 Q339.477 1477.68 341.282 1481.25 Q343.111 1484.79 346.722 1484.79 Q350.356 1484.79 352.162 1481.25 Q353.991 1477.68 353.991 1470.57 Q353.991 1463.44 352.162 1459.9 Q350.356 1456.34 346.722 1456.34 M346.722 1452.63 Q352.532 1452.63 355.588 1457.24 Q358.667 1461.82 358.667 1470.57 Q358.667 1479.3 355.588 1483.91 Q352.532 1488.49 346.722 1488.49 Q340.912 1488.49 337.833 1483.91 Q334.778 1479.3 334.778 1470.57 Q334.778 1461.82 337.833 1457.24 Q340.912 1452.63 346.722 1452.63 Z" fill="#000000" fill-rule="evenodd" fill-opacity="1" /><path clip-path="url(#clip410)" d="M 0 0 M366.884 1481.94 L371.768 1481.94 L371.768 1487.82 L366.884 1487.82 L366.884 1481.94 Z" fill="#000000" fill-rule="evenodd" fill-opacity="1" /><path clip-path="url(#clip410)" d="M 0 0 M391.953 1456.34 Q388.342 1456.34 386.514 1459.9 Q384.708 1463.44 384.708 1470.57 Q384.708 1477.68 386.514 1481.25 Q388.342 1484.79 391.953 1484.79 Q395.588 1484.79 397.393 1481.25 Q399.222 1477.68 399.222 1470.57 Q399.222 1463.44 397.393 1459.9 Q395.588 1456.34 391.953 1456.34 M391.953 1452.63 Q397.764 1452.63 400.819 1457.24 Q403.898 1461.82 403.898 1470.57 Q403.898 1479.3 400.819 1483.91 Q397.764 1488.49 391.953 1488.49 Q386.143 1488.49 383.065 1483.91 Q380.009 1479.3 380.009 1470.57 Q380.009 1461.82 383.065 1457.24 Q386.143 1452.63 391.953 1452.63 Z" fill="#000000" fill-rule="evenodd" fill-opacity="1" /><path clip-path="url(#clip410)" d="M 0 0 M822.968 1483.88 L839.287 1483.88 L839.287 1487.82 L817.343 1487.82 L817.343 1483.88 Q820.005 1481.13 824.588 1476.5 Q829.195 1471.85 830.375 1470.51 Q832.621 1467.98 833.5 1466.25 Q834.403 1464.49 834.403 1462.8 Q834.403 1460.04 832.459 1458.31 Q830.537 1456.57 827.436 1456.57 Q825.237 1456.57 822.783 1457.33 Q820.352 1458.1 817.575 1459.65 L817.575 1454.93 Q820.399 1453.79 822.852 1453.21 Q825.306 1452.63 827.343 1452.63 Q832.713 1452.63 835.908 1455.32 Q839.102 1458.01 839.102 1462.5 Q839.102 1464.63 838.292 1466.55 Q837.505 1468.44 835.399 1471.04 Q834.82 1471.71 831.718 1474.93 Q828.616 1478.12 822.968 1483.88 Z" fill="#000000" fill-rule="evenodd" fill-opacity="1" /><path clip-path="url(#clip410)" d="M 0 0 M849.102 1481.94 L853.986 1481.94 L853.986 1487.82 L849.102 1487.82 L849.102 1481.94 Z" fill="#000000" fill-rule="evenodd" fill-opacity="1" /><path clip-path="url(#clip410)" d="M 0 0 M864.218 1453.26 L882.574 1453.26 L882.574 1457.19 L868.5 1457.19 L868.5 1465.67 Q869.519 1465.32 870.537 1465.16 Q871.556 1464.97 872.574 1464.97 Q878.361 1464.97 881.741 1468.14 Q885.121 1471.32 885.121 1476.73 Q885.121 1482.31 881.648 1485.41 Q878.176 1488.49 871.857 1488.49 Q869.681 1488.49 867.412 1488.12 Q865.167 1487.75 862.76 1487.01 L862.76 1482.31 Q864.843 1483.44 867.065 1484 Q869.287 1484.56 871.764 1484.56 Q875.769 1484.56 878.107 1482.45 Q880.445 1480.34 880.445 1476.73 Q880.445 1473.12 878.107 1471.01 Q875.769 1468.91 871.764 1468.91 Q869.889 1468.91 868.014 1469.32 Q866.162 1469.74 864.218 1470.62 L864.218 1453.26 Z" fill="#000000" fill-rule="evenodd" fill-opacity="1" /><path clip-path="url(#clip410)" d="M 0 0 M1300.29 1453.26 L1318.65 1453.26 L1318.65 1457.19 L1304.57 1457.19 L1304.57 1465.67 Q1305.59 1465.32 1306.61 1465.16 Q1307.63 1464.97 1308.65 1464.97 Q1314.43 1464.97 1317.81 1468.14 Q1321.19 1471.32 1321.19 1476.73 Q1321.19 1482.31 1317.72 1485.41 Q1314.25 1488.49 1307.93 1488.49 Q1305.75 1488.49 1303.48 1488.12 Q1301.24 1487.75 1298.83 1487.01 L1298.83 1482.31 Q1300.92 1483.44 1303.14 1484 Q1305.36 1484.56 1307.84 1484.56 Q1311.84 1484.56 1314.18 1482.45 Q1316.52 1480.34 1316.52 1476.73 Q1316.52 1473.12 1314.18 1471.01 Q1311.84 1468.91 1307.84 1468.91 Q1305.96 1468.91 1304.09 1469.32 Q1302.23 1469.74 1300.29 1470.62 L1300.29 1453.26 Z" fill="#000000" fill-rule="evenodd" fill-opacity="1" /><path clip-path="url(#clip410)" d="M 0 0 M1330.41 1481.94 L1335.29 1481.94 L1335.29 1487.82 L1330.41 1487.82 L1330.41 1481.94 Z" fill="#000000" fill-rule="evenodd" fill-opacity="1" /><path clip-path="url(#clip410)" d="M 0 0 M1355.48 1456.34 Q1351.86 1456.34 1350.04 1459.9 Q1348.23 1463.44 1348.23 1470.57 Q1348.23 1477.68 1350.04 1481.25 Q1351.86 1484.79 1355.48 1484.79 Q1359.11 1484.79 1360.92 1481.25 Q1362.74 1477.68 1362.74 1470.57 Q1362.74 1463.44 1360.92 1459.9 Q1359.11 1456.34 1355.48 1456.34 M1355.48 1452.63 Q1361.29 1452.63 1364.34 1457.24 Q1367.42 1461.82 1367.42 1470.57 Q1367.42 1479.3 1364.34 1483.91 Q1361.29 1488.49 1355.48 1488.49 Q1349.67 1488.49 1346.59 1483.91 Q1343.53 1479.3 1343.53 1470.57 Q1343.53 1461.82 1346.59 1457.24 Q1349.67 1452.63 1355.48 1452.63 Z" fill="#000000" fill-rule="evenodd" fill-opacity="1" /><path clip-path="url(#clip410)" d="M 0 0 M1781.34 1453.26 L1803.56 1453.26 L1803.56 1455.25 L1791.02 1487.82 L1786.13 1487.82 L1797.94 1457.19 L1781.34 1457.19 L1781.34 1453.26 Z" fill="#000000" fill-rule="evenodd" fill-opacity="1" /><path clip-path="url(#clip410)" d="M 0 0 M1812.68 1481.94 L1817.57 1481.94 L1817.57 1487.82 L1812.68 1487.82 L1812.68 1481.94 Z" fill="#000000" fill-rule="evenodd" fill-opacity="1" /><path clip-path="url(#clip410)" d="M 0 0 M1827.8 1453.26 L1846.15 1453.26 L1846.15 1457.19 L1832.08 1457.19 L1832.08 1465.67 Q1833.1 1465.32 1834.12 1465.16 Q1835.14 1464.97 1836.15 1464.97 Q1841.94 1464.97 1845.32 1468.14 Q1848.7 1471.32 1848.7 1476.73 Q1848.7 1482.31 1845.23 1485.41 Q1841.76 1488.49 1835.44 1488.49 Q1833.26 1488.49 1830.99 1488.12 Q1828.75 1487.75 1826.34 1487.01 L1826.34 1482.31 Q1828.42 1483.44 1830.64 1484 Q1832.87 1484.56 1835.34 1484.56 Q1839.35 1484.56 1841.69 1482.45 Q1844.02 1480.34 1844.02 1476.73 Q1844.02 1473.12 1841.69 1471.01 Q1839.35 1468.91 1835.34 1468.91 Q1833.47 1468.91 1831.59 1469.32 Q1829.74 1469.74 1827.8 1470.62 L1827.8 1453.26 Z" fill="#000000" fill-rule="evenodd" fill-opacity="1" /><path clip-path="url(#clip410)" d="M 0 0 M2248.99 1483.88 L2256.62 1483.88 L2256.62 1457.52 L2248.31 1459.19 L2248.31 1454.93 L2256.58 1453.26 L2261.25 1453.26 L2261.25 1483.88 L2268.89 1483.88 L2268.89 1487.82 L2248.99 1487.82 L2248.99 1483.88 Z" fill="#000000" fill-rule="evenodd" fill-opacity="1" /><path clip-path="url(#clip410)" d="M 0 0 M2288.34 1456.34 Q2284.73 1456.34 2282.9 1459.9 Q2281.09 1463.44 2281.09 1470.57 Q2281.09 1477.68 2282.9 1481.25 Q2284.73 1484.79 2288.34 1484.79 Q2291.97 1484.79 2293.78 1481.25 Q2295.61 1477.68 2295.61 1470.57 Q2295.61 1463.44 2293.78 1459.9 Q2291.97 1456.34 2288.34 1456.34 M2288.34 1452.63 Q2294.15 1452.63 2297.2 1457.24 Q2300.28 1461.82 2300.28 1470.57 Q2300.28 1479.3 2297.2 1483.91 Q2294.15 1488.49 2288.34 1488.49 Q2282.53 1488.49 2279.45 1483.91 Q2276.39 1479.3 2276.39 1470.57 Q2276.39 1461.82 2279.45 1457.24 Q2282.53 1452.63 2288.34 1452.63 Z" fill="#000000" fill-rule="evenodd" fill-opacity="1" /><path clip-path="url(#clip410)" d="M 0 0 M2308.5 1481.94 L2313.38 1481.94 L2313.38 1487.82 L2308.5 1487.82 L2308.5 1481.94 Z" fill="#000000" fill-rule="evenodd" fill-opacity="1" /><path clip-path="url(#clip410)" d="M 0 0 M2333.57 1456.34 Q2329.96 1456.34 2328.13 1459.9 Q2326.32 1463.44 2326.32 1470.57 Q2326.32 1477.68 2328.13 1481.25 Q2329.96 1484.79 2333.57 1484.79 Q2337.2 1484.79 2339.01 1481.25 Q2340.84 1477.68 2340.84 1470.57 Q2340.84 1463.44 2339.01 1459.9 Q2337.2 1456.34 2333.57 1456.34 M2333.57 1452.63 Q2339.38 1452.63 2342.43 1457.24 Q2345.51 1461.82 2345.51 1470.57 Q2345.51 1479.3 2342.43 1483.91 Q2339.38 1488.49 2333.57 1488.49 Q2327.76 1488.49 2324.68 1483.91 Q2321.62 1479.3 2321.62 1470.57 Q2321.62 1461.82 2324.68 1457.24 Q2327.76 1452.63 2333.57 1452.63 Z" fill="#000000" fill-rule="evenodd" fill-opacity="1" /><path clip-path="url(#clip410)" d="M 0 0 M1282.69 1530.6 Q1282.69 1532.85 1279.44 1532.85 L1268.36 1532.85 L1263.95 1555.43 Q1263.85 1556.01 1263.72 1556.33 Q1263.62 1556.65 1263.33 1557.2 Q1263.08 1557.71 1262.53 1557.97 Q1262.01 1558.26 1261.24 1558.26 Q1260.27 1558.26 1259.79 1557.68 Q1259.34 1557.13 1259.34 1556.46 Q1259.34 1556.04 1259.98 1554.04 L1266.46 1532.85 L1260.98 1532.85 Q1255.83 1532.85 1252.61 1537.94 Q1252.09 1538.61 1251.8 1538.68 Q1251.68 1538.71 1251.55 1538.71 Q1251.19 1538.71 1250.97 1538.55 Q1250.77 1538.39 1250.77 1538.23 L1250.74 1538.07 Q1250.74 1537.84 1251.26 1536.94 Q1251.8 1536.01 1252.77 1534.62 Q1253.77 1533.24 1254.77 1532.14 Q1256.09 1530.72 1257.57 1529.98 Q1259.05 1529.21 1259.79 1529.11 Q1260.56 1529.02 1261.56 1529.02 L1280.05 1529.02 Q1280.89 1529.02 1281.34 1529.08 Q1281.79 1529.11 1282.24 1529.5 Q1282.69 1529.85 1282.69 1530.6 Z" fill="#000000" fill-rule="evenodd" fill-opacity="1" /><path clip-path="url(#clip410)" d="M 0 0 M1300.98 1540.97 Q1300.98 1529.82 1305.14 1520.84 Q1306.91 1517.07 1309.39 1513.91 Q1311.87 1510.76 1313.51 1509.37 Q1315.15 1507.99 1315.6 1507.99 Q1316.25 1507.99 1316.28 1508.63 Q1316.28 1508.95 1315.41 1509.76 Q1304.78 1520.58 1304.81 1540.97 Q1304.81 1561.42 1315.15 1571.82 Q1316.28 1572.95 1316.28 1573.3 Q1316.28 1573.94 1315.6 1573.94 Q1315.15 1573.94 1313.57 1572.62 Q1312 1571.3 1309.55 1568.28 Q1307.1 1565.25 1305.33 1561.55 Q1300.98 1552.56 1300.98 1540.97 Z" fill="#000000" fill-rule="evenodd" fill-opacity="1" /><path clip-path="url(#clip410)" d="M 0 0 M1326.31 1557.45 L1326.31 1555.43 Q1329.82 1555.43 1330.62 1555.01 Q1331.43 1554.56 1331.43 1552.43 L1331.43 1534.75 Q1331.43 1532.3 1330.56 1531.69 Q1329.72 1531.08 1326.31 1531.08 L1326.31 1529.02 L1335.58 1528.31 L1335.58 1535.23 Q1338.68 1528.31 1345.34 1528.31 Q1350.3 1528.31 1352.27 1530.76 Q1353.72 1532.4 1354.01 1534.23 Q1354.33 1536.07 1354.33 1540.84 L1354.33 1553.43 Q1354.39 1554.81 1355.46 1555.14 Q1356.52 1555.43 1359.48 1555.43 L1359.48 1557.45 Q1352.75 1557.26 1352.07 1557.26 Q1351.56 1557.26 1344.63 1557.45 L1344.63 1555.43 Q1348.14 1555.43 1348.95 1555.01 Q1349.79 1554.56 1349.79 1552.43 L1349.79 1537.07 Q1349.79 1533.72 1348.76 1531.75 Q1347.73 1529.76 1344.89 1529.76 Q1341.48 1529.76 1338.74 1532.62 Q1336 1535.49 1336 1540.32 L1336 1552.43 Q1336 1554.56 1336.81 1555.01 Q1337.65 1555.43 1341.12 1555.43 L1341.12 1557.45 Q1334.39 1557.26 1333.75 1557.26 Q1333.23 1557.26 1326.31 1557.45 Z" fill="#000000" fill-rule="evenodd" fill-opacity="1" /><path clip-path="url(#clip410)" d="M 0 0 M1362.55 1556.59 L1362.55 1547.89 Q1362.55 1547.15 1362.58 1546.89 Q1362.61 1546.63 1362.8 1546.44 Q1363 1546.25 1363.38 1546.25 Q1363.83 1546.25 1363.99 1546.44 Q1364.19 1546.63 1364.32 1547.37 Q1365.32 1551.92 1367.44 1554.33 Q1369.6 1556.71 1373.5 1556.71 Q1377.2 1556.71 1379.07 1555.07 Q1380.93 1553.43 1380.93 1550.72 Q1380.93 1545.89 1374.08 1544.67 Q1370.11 1543.86 1368.47 1543.35 Q1366.83 1542.8 1365.38 1541.61 Q1362.55 1539.29 1362.55 1536.01 Q1362.55 1532.72 1365.03 1530.31 Q1367.54 1527.89 1373.08 1527.89 Q1376.78 1527.89 1379.29 1529.76 Q1380.03 1529.18 1380.42 1528.7 Q1381.29 1527.89 1381.74 1527.89 Q1382.26 1527.89 1382.35 1528.24 Q1382.45 1528.57 1382.45 1529.5 L1382.45 1536.13 Q1382.45 1536.88 1382.42 1537.13 Q1382.38 1537.39 1382.19 1537.58 Q1382 1537.74 1381.58 1537.74 Q1380.84 1537.74 1380.81 1537.13 Q1380.29 1529.15 1373.08 1529.15 Q1369.18 1529.15 1367.44 1530.66 Q1365.7 1532.14 1365.7 1534.17 Q1365.7 1535.3 1366.22 1536.17 Q1366.76 1537 1367.44 1537.52 Q1368.15 1538 1369.44 1538.49 Q1370.73 1538.94 1371.5 1539.1 Q1372.3 1539.26 1373.82 1539.58 Q1379.1 1540.58 1381.32 1542.74 Q1384.09 1545.51 1384.09 1549.02 Q1384.09 1552.91 1381.45 1555.55 Q1378.81 1558.2 1373.5 1558.2 Q1369.21 1558.2 1366.22 1555.33 Q1365.83 1555.72 1365.54 1556.07 Q1365.25 1556.39 1365.12 1556.52 Q1365.03 1556.65 1364.99 1556.75 Q1364.96 1556.81 1364.9 1556.88 Q1363.58 1558.2 1363.25 1558.2 Q1362.74 1558.2 1362.64 1557.84 Q1362.55 1557.52 1362.55 1556.59 Z" fill="#000000" fill-rule="evenodd" fill-opacity="1" /><path clip-path="url(#clip410)" d="M 0 0 M1388.26 1573.3 Q1388.26 1572.98 1389.09 1572.17 Q1399.72 1561.35 1399.72 1540.97 Q1399.72 1520.51 1389.51 1510.18 Q1388.26 1508.99 1388.26 1508.63 Q1388.26 1507.99 1388.9 1507.99 Q1389.35 1507.99 1390.93 1509.31 Q1392.54 1510.63 1394.95 1513.65 Q1397.4 1516.68 1399.21 1520.39 Q1403.55 1529.37 1403.55 1540.97 Q1403.55 1552.11 1399.4 1561.09 Q1397.63 1564.86 1395.15 1568.02 Q1392.67 1571.17 1391.03 1572.56 Q1389.38 1573.94 1388.9 1573.94 Q1388.26 1573.94 1388.26 1573.3 Z" fill="#000000" fill-rule="evenodd" fill-opacity="1" /><polyline clip-path="url(#clip413)" style="stroke:#000000; stroke-width:2; stroke-opacity:0.1; fill:none" points="
  311.568,1262.3 2352.76,1262.3 
  "/>
<polyline clip-path="url(#clip413)" style="stroke:#000000; stroke-width:2; stroke-opacity:0.1; fill:none" points="
  311.568,987.933 2352.76,987.933 
  "/>
<polyline clip-path="url(#clip413)" style="stroke:#000000; stroke-width:2; stroke-opacity:0.1; fill:none" points="
  311.568,713.568 2352.76,713.568 
  "/>
<polyline clip-path="url(#clip413)" style="stroke:#000000; stroke-width:2; stroke-opacity:0.1; fill:none" points="
  311.568,439.203 2352.76,439.203 
  "/>
<polyline clip-path="url(#clip413)" style="stroke:#000000; stroke-width:2; stroke-opacity:0.1; fill:none" points="
  311.568,164.837 2352.76,164.837 
  "/>
<polyline clip-path="url(#clip410)" style="stroke:#000000; stroke-width:4; stroke-opacity:1; fill:none" points="
  311.568,1427.15 311.568,123.472 
  "/>
<polyline clip-path="url(#clip410)" style="stroke:#000000; stroke-width:4; stroke-opacity:1; fill:none" points="
  311.568,1262.3 336.063,1262.3 
  "/>
<polyline clip-path="url(#clip410)" style="stroke:#000000; stroke-width:4; stroke-opacity:1; fill:none" points="
  311.568,987.933 336.063,987.933 
  "/>
<polyline clip-path="url(#clip410)" style="stroke:#000000; stroke-width:4; stroke-opacity:1; fill:none" points="
  311.568,713.568 336.063,713.568 
  "/>
<polyline clip-path="url(#clip410)" style="stroke:#000000; stroke-width:4; stroke-opacity:1; fill:none" points="
  311.568,439.203 336.063,439.203 
  "/>
<polyline clip-path="url(#clip410)" style="stroke:#000000; stroke-width:4; stroke-opacity:1; fill:none" points="
  311.568,164.837 336.063,164.837 
  "/>
<path clip-path="url(#clip410)" d="M 0 0 M179.041 1275.64 L186.68 1275.64 L186.68 1249.28 L178.37 1250.94 L178.37 1246.69 L186.634 1245.02 L191.309 1245.02 L191.309 1275.64 L198.948 1275.64 L198.948 1279.58 L179.041 1279.58 L179.041 1275.64 Z" fill="#000000" fill-rule="evenodd" fill-opacity="1" /><path clip-path="url(#clip410)" d="M 0 0 M218.393 1248.1 Q214.782 1248.1 212.953 1251.66 Q211.147 1255.2 211.147 1262.33 Q211.147 1269.44 212.953 1273 Q214.782 1276.55 218.393 1276.55 Q222.027 1276.55 223.832 1273 Q225.661 1269.44 225.661 1262.33 Q225.661 1255.2 223.832 1251.66 Q222.027 1248.1 218.393 1248.1 M218.393 1244.39 Q224.203 1244.39 227.258 1249 Q230.337 1253.58 230.337 1262.33 Q230.337 1271.06 227.258 1275.67 Q224.203 1280.25 218.393 1280.25 Q212.583 1280.25 209.504 1275.67 Q206.448 1271.06 206.448 1262.33 Q206.448 1253.58 209.504 1249 Q212.583 1244.39 218.393 1244.39 Z" fill="#000000" fill-rule="evenodd" fill-opacity="1" /><path clip-path="url(#clip410)" d="M 0 0 M238.555 1273.7 L243.439 1273.7 L243.439 1279.58 L238.555 1279.58 L238.555 1273.7 Z" fill="#000000" fill-rule="evenodd" fill-opacity="1" /><path clip-path="url(#clip410)" d="M 0 0 M263.624 1248.1 Q260.013 1248.1 258.184 1251.66 Q256.379 1255.2 256.379 1262.33 Q256.379 1269.44 258.184 1273 Q260.013 1276.55 263.624 1276.55 Q267.258 1276.55 269.064 1273 Q270.892 1269.44 270.892 1262.33 Q270.892 1255.2 269.064 1251.66 Q267.258 1248.1 263.624 1248.1 M263.624 1244.39 Q269.434 1244.39 272.49 1249 Q275.568 1253.58 275.568 1262.33 Q275.568 1271.06 272.49 1275.67 Q269.434 1280.25 263.624 1280.25 Q257.814 1280.25 254.735 1275.67 Q251.68 1271.06 251.68 1262.33 Q251.68 1253.58 254.735 1249 Q257.814 1244.39 263.624 1244.39 Z" fill="#000000" fill-rule="evenodd" fill-opacity="1" /><path clip-path="url(#clip410)" d="M 0 0 M180.036 1001.28 L187.675 1001.28 L187.675 974.913 L179.365 976.579 L179.365 972.32 L187.629 970.653 L192.305 970.653 L192.305 1001.28 L199.944 1001.28 L199.944 1005.21 L180.036 1005.21 L180.036 1001.28 Z" fill="#000000" fill-rule="evenodd" fill-opacity="1" /><path clip-path="url(#clip410)" d="M 0 0 M213.416 1001.28 L229.735 1001.28 L229.735 1005.21 L207.791 1005.21 L207.791 1001.28 Q210.453 998.524 215.036 993.894 Q219.643 989.241 220.823 987.899 Q223.069 985.375 223.948 983.639 Q224.851 981.88 224.851 980.19 Q224.851 977.436 222.907 975.7 Q220.985 973.963 217.883 973.963 Q215.684 973.963 213.231 974.727 Q210.8 975.491 208.022 977.042 L208.022 972.32 Q210.846 971.186 213.3 970.607 Q215.754 970.028 217.791 970.028 Q223.161 970.028 226.356 972.713 Q229.55 975.399 229.55 979.889 Q229.55 982.019 228.74 983.94 Q227.953 985.838 225.846 988.431 Q225.268 989.102 222.166 992.32 Q219.064 995.514 213.416 1001.28 Z" fill="#000000" fill-rule="evenodd" fill-opacity="1" /><path clip-path="url(#clip410)" d="M 0 0 M239.55 999.334 L244.434 999.334 L244.434 1005.21 L239.55 1005.21 L239.55 999.334 Z" fill="#000000" fill-rule="evenodd" fill-opacity="1" /><path clip-path="url(#clip410)" d="M 0 0 M254.666 970.653 L273.022 970.653 L273.022 974.588 L258.948 974.588 L258.948 983.061 Q259.967 982.713 260.985 982.551 Q262.004 982.366 263.022 982.366 Q268.809 982.366 272.189 985.537 Q275.568 988.709 275.568 994.125 Q275.568 999.704 272.096 1002.81 Q268.624 1005.88 262.304 1005.88 Q260.129 1005.88 257.86 1005.51 Q255.615 1005.14 253.207 1004.4 L253.207 999.704 Q255.291 1000.84 257.513 1001.39 Q259.735 1001.95 262.212 1001.95 Q266.217 1001.95 268.554 999.843 Q270.892 997.736 270.892 994.125 Q270.892 990.514 268.554 988.408 Q266.217 986.301 262.212 986.301 Q260.337 986.301 258.462 986.718 Q256.61 987.135 254.666 988.014 L254.666 970.653 Z" fill="#000000" fill-rule="evenodd" fill-opacity="1" /><path clip-path="url(#clip410)" d="M 0 0 M179.041 726.913 L186.68 726.913 L186.68 700.547 L178.37 702.214 L178.37 697.955 L186.634 696.288 L191.309 696.288 L191.309 726.913 L198.948 726.913 L198.948 730.848 L179.041 730.848 L179.041 726.913 Z" fill="#000000" fill-rule="evenodd" fill-opacity="1" /><path clip-path="url(#clip410)" d="M 0 0 M208.439 696.288 L226.795 696.288 L226.795 700.223 L212.721 700.223 L212.721 708.695 Q213.74 708.348 214.758 708.186 Q215.777 708.001 216.795 708.001 Q222.582 708.001 225.962 711.172 Q229.342 714.343 229.342 719.76 Q229.342 725.339 225.869 728.441 Q222.397 731.519 216.078 731.519 Q213.902 731.519 211.633 731.149 Q209.388 730.778 206.981 730.038 L206.981 725.339 Q209.064 726.473 211.286 727.029 Q213.508 727.584 215.985 727.584 Q219.99 727.584 222.328 725.478 Q224.666 723.371 224.666 719.76 Q224.666 716.149 222.328 714.042 Q219.99 711.936 215.985 711.936 Q214.11 711.936 212.235 712.353 Q210.383 712.769 208.439 713.649 L208.439 696.288 Z" fill="#000000" fill-rule="evenodd" fill-opacity="1" /><path clip-path="url(#clip410)" d="M 0 0 M238.555 724.968 L243.439 724.968 L243.439 730.848 L238.555 730.848 L238.555 724.968 Z" fill="#000000" fill-rule="evenodd" fill-opacity="1" /><path clip-path="url(#clip410)" d="M 0 0 M263.624 699.367 Q260.013 699.367 258.184 702.931 Q256.379 706.473 256.379 713.603 Q256.379 720.709 258.184 724.274 Q260.013 727.816 263.624 727.816 Q267.258 727.816 269.064 724.274 Q270.892 720.709 270.892 713.603 Q270.892 706.473 269.064 702.931 Q267.258 699.367 263.624 699.367 M263.624 695.663 Q269.434 695.663 272.49 700.269 Q275.568 704.853 275.568 713.603 Q275.568 722.329 272.49 726.936 Q269.434 731.519 263.624 731.519 Q257.814 731.519 254.735 726.936 Q251.68 722.329 251.68 713.603 Q251.68 704.853 254.735 700.269 Q257.814 695.663 263.624 695.663 Z" fill="#000000" fill-rule="evenodd" fill-opacity="1" /><path clip-path="url(#clip410)" d="M 0 0 M180.036 452.547 L187.675 452.547 L187.675 426.182 L179.365 427.848 L179.365 423.589 L187.629 421.923 L192.305 421.923 L192.305 452.547 L199.944 452.547 L199.944 456.483 L180.036 456.483 L180.036 452.547 Z" fill="#000000" fill-rule="evenodd" fill-opacity="1" /><path clip-path="url(#clip410)" d="M 0 0 M208.208 421.923 L230.43 421.923 L230.43 423.913 L217.883 456.483 L212.999 456.483 L224.805 425.858 L208.208 425.858 L208.208 421.923 Z" fill="#000000" fill-rule="evenodd" fill-opacity="1" /><path clip-path="url(#clip410)" d="M 0 0 M239.55 450.603 L244.434 450.603 L244.434 456.483 L239.55 456.483 L239.55 450.603 Z" fill="#000000" fill-rule="evenodd" fill-opacity="1" /><path clip-path="url(#clip410)" d="M 0 0 M254.666 421.923 L273.022 421.923 L273.022 425.858 L258.948 425.858 L258.948 434.33 Q259.967 433.983 260.985 433.821 Q262.004 433.635 263.022 433.635 Q268.809 433.635 272.189 436.807 Q275.568 439.978 275.568 445.395 Q275.568 450.973 272.096 454.075 Q268.624 457.154 262.304 457.154 Q260.129 457.154 257.86 456.783 Q255.615 456.413 253.207 455.672 L253.207 450.973 Q255.291 452.108 257.513 452.663 Q259.735 453.219 262.212 453.219 Q266.217 453.219 268.554 451.112 Q270.892 449.006 270.892 445.395 Q270.892 441.784 268.554 439.677 Q266.217 437.571 262.212 437.571 Q260.337 437.571 258.462 437.987 Q256.61 438.404 254.666 439.284 L254.666 421.923 Z" fill="#000000" fill-rule="evenodd" fill-opacity="1" /><path clip-path="url(#clip410)" d="M 0 0 M182.259 178.182 L198.578 178.182 L198.578 182.117 L176.634 182.117 L176.634 178.182 Q179.296 175.427 183.879 170.798 Q188.485 166.145 189.666 164.802 Q191.911 162.279 192.791 160.543 Q193.694 158.784 193.694 157.094 Q193.694 154.34 191.749 152.603 Q189.828 150.867 186.726 150.867 Q184.527 150.867 182.073 151.631 Q179.643 152.395 176.865 153.946 L176.865 149.224 Q179.689 148.09 182.143 147.511 Q184.597 146.932 186.634 146.932 Q192.004 146.932 195.198 149.617 Q198.393 152.303 198.393 156.793 Q198.393 158.923 197.583 160.844 Q196.796 162.742 194.689 165.335 Q194.11 166.006 191.009 169.224 Q187.907 172.418 182.259 178.182 Z" fill="#000000" fill-rule="evenodd" fill-opacity="1" /><path clip-path="url(#clip410)" d="M 0 0 M218.393 150.636 Q214.782 150.636 212.953 154.201 Q211.147 157.742 211.147 164.872 Q211.147 171.978 212.953 175.543 Q214.782 179.085 218.393 179.085 Q222.027 179.085 223.832 175.543 Q225.661 171.978 225.661 164.872 Q225.661 157.742 223.832 154.201 Q222.027 150.636 218.393 150.636 M218.393 146.932 Q224.203 146.932 227.258 151.539 Q230.337 156.122 230.337 164.872 Q230.337 173.599 227.258 178.205 Q224.203 182.788 218.393 182.788 Q212.583 182.788 209.504 178.205 Q206.448 173.599 206.448 164.872 Q206.448 156.122 209.504 151.539 Q212.583 146.932 218.393 146.932 Z" fill="#000000" fill-rule="evenodd" fill-opacity="1" /><path clip-path="url(#clip410)" d="M 0 0 M238.555 176.238 L243.439 176.238 L243.439 182.117 L238.555 182.117 L238.555 176.238 Z" fill="#000000" fill-rule="evenodd" fill-opacity="1" /><path clip-path="url(#clip410)" d="M 0 0 M263.624 150.636 Q260.013 150.636 258.184 154.201 Q256.379 157.742 256.379 164.872 Q256.379 171.978 258.184 175.543 Q260.013 179.085 263.624 179.085 Q267.258 179.085 269.064 175.543 Q270.892 171.978 270.892 164.872 Q270.892 157.742 269.064 154.201 Q267.258 150.636 263.624 150.636 M263.624 146.932 Q269.434 146.932 272.49 151.539 Q275.568 156.122 275.568 164.872 Q275.568 173.599 272.49 178.205 Q269.434 182.788 263.624 182.788 Q257.814 182.788 254.735 178.205 Q251.68 173.599 251.68 164.872 Q251.68 156.122 254.735 151.539 Q257.814 146.932 263.624 146.932 Z" fill="#000000" fill-rule="evenodd" fill-opacity="1" /><path clip-path="url(#clip410)" d="M 0 0 M94.6485 828.016 L111.073 833.684 L111.073 888.37 Q111.073 889.111 111.041 889.4 Q111.009 889.69 110.848 889.916 Q110.687 890.141 110.333 890.141 Q110.043 890.141 109.302 889.561 L80.3491 866.148 L47.2415 890.206 Q45.7278 890.206 45.4379 889.948 Q45.1159 889.69 45.1159 888.37 L45.1159 833.684 L60.5425 828.016 L60.5425 829.658 Q58.5457 830.399 56.871 831.591 Q55.1641 832.75 53.9403 834.103 Q52.7165 835.423 51.7503 837.162 Q50.7519 838.869 50.14 840.48 Q49.4959 842.058 49.045 844.022 Q48.5619 845.987 48.3365 847.565 Q48.0788 849.111 47.95 851.043 Q47.8212 852.976 47.789 854.199 Q47.7568 855.423 47.7568 856.969 L47.7568 883.088 L77.1607 861.671 Q77.9014 861.188 78.0947 861.188 Q78.3845 861.188 79.1575 861.8 L107.434 884.666 L107.434 856.647 Q107.434 847.629 105.534 841.349 Q104.085 837.098 101.218 834.006 Q98.3522 830.882 94.6485 829.658 L94.6485 828.016 Z" fill="#000000" fill-rule="evenodd" fill-opacity="1" /><path clip-path="url(#clip410)" d="M 0 0 M127.747 901.215 Q128.739 901.215 129.483 902.026 Q130.204 902.815 130.204 903.672 Q130.204 904.461 129.731 904.957 Q129.235 905.431 128.536 905.431 Q127.612 905.431 126.845 904.642 Q126.079 903.853 126.079 902.928 Q126.079 902.162 126.552 901.688 Q127.026 901.215 127.747 901.215 M149.998 900.809 Q150.179 900.809 150.9 901.012 Q151.599 901.215 152.681 901.711 Q153.741 902.184 154.732 902.838 Q155.724 903.492 156.423 904.574 Q157.122 905.633 157.122 906.851 Q157.122 908.497 156.04 909.579 Q154.958 910.638 153.335 910.638 Q152.455 910.638 149.637 909.579 Q141.431 906.513 141.093 906.4 Q139.808 905.881 138.681 905.881 Q138.163 905.881 137.847 905.994 Q137.509 906.107 137.396 906.332 Q137.261 906.558 137.238 906.693 Q137.216 906.806 137.216 907.031 Q137.216 908.361 138.568 909.601 Q139.921 910.841 142.942 911.698 Q143.505 911.878 143.641 911.991 Q143.776 912.104 143.776 912.442 Q143.753 913.005 143.303 913.005 Q143.167 913.005 142.649 912.848 Q142.108 912.69 141.296 912.397 Q140.462 912.104 139.605 911.585 Q138.726 911.067 137.96 910.435 Q137.193 909.782 136.697 908.857 Q136.201 907.933 136.201 906.896 Q136.201 905.205 137.306 904.168 Q138.388 903.109 139.989 903.109 Q140.868 903.109 142.423 903.717 Q144.452 904.461 145.106 904.732 L149.953 906.535 Q151.712 907.189 152.253 907.392 Q152.771 907.572 153.402 907.73 Q154.011 907.865 154.575 907.865 Q155.364 907.865 155.724 907.617 Q156.085 907.347 156.085 906.761 Q156.085 905.138 154.484 903.943 Q152.861 902.748 150.381 902.049 Q150.314 902.026 150.201 902.004 Q149.637 901.824 149.57 901.643 Q149.547 901.553 149.547 901.373 Q149.547 900.809 149.998 900.809 Z" fill="#000000" fill-rule="evenodd" fill-opacity="1" /><path clip-path="url(#clip410)" d="M 0 0 M149.592 884.429 Q149.029 884.384 149.029 883.505 L149.029 855.212 Q149.029 853.882 149.547 853.86 Q150.111 853.86 150.088 855.122 L150.088 883.189 Q150.111 884.429 149.592 884.429 M140.575 884.429 Q140.011 884.429 140.034 883.46 L140.034 855.257 Q140.034 853.882 140.575 853.86 Q141.093 853.86 141.093 855.032 L141.093 883.505 Q141.093 884.429 140.575 884.429 Z" fill="#000000" fill-rule="evenodd" fill-opacity="1" /><path clip-path="url(#clip410)" d="M 0 0 M130.25 836.048 L128.807 836.048 Q128.807 830.502 125.853 827.639 Q125.853 826.85 126.034 826.714 Q126.214 826.579 127.048 826.579 L152.951 826.579 Q154.327 826.579 154.755 825.903 Q155.183 825.226 155.183 822.273 L155.183 820.808 L156.604 820.808 Q156.468 822.431 156.468 828.292 Q156.468 834.154 156.604 835.754 L155.183 835.754 L155.183 834.289 Q155.183 831.381 154.778 830.682 Q154.349 829.983 152.951 829.983 L129.032 829.983 Q130.25 832.395 130.25 836.048 Z" fill="#000000" fill-rule="evenodd" fill-opacity="1" /><path clip-path="url(#clip410)" d="M 0 0 M-3.61568 884.121 L-5.05851 884.121 Q-5.05851 878.576 -8.01178 875.712 Q-8.01178 874.923 -7.83143 874.788 Q-7.65108 874.653 -6.81695 874.653 L19.0862 874.653 Q20.4614 874.653 20.8898 873.977 Q21.3181 873.3 21.3181 870.347 L21.3181 868.882 L22.7384 868.882 Q22.6031 870.505 22.6031 876.366 Q22.6031 882.228 22.7384 883.828 L21.3181 883.828 L21.3181 882.363 Q21.3181 879.455 20.9123 878.756 Q20.484 878.057 19.0862 878.057 L-4.83306 878.057 Q-3.61568 880.469 -3.61568 884.121 Z" fill="#000000" fill-rule="evenodd" fill-opacity="1" /><path clip-path="url(#clip410)" d="M 0 0 M7.97199 864.932 Q1.18621 864.932 -2.51102 863.218 Q-8.01178 860.829 -8.01178 855.192 Q-8.01178 853.998 -7.67362 852.758 Q-7.358 851.495 -6.11808 849.917 Q-4.87815 848.317 -2.84918 847.347 Q1.07349 845.499 7.97199 845.499 Q14.7127 845.499 18.3874 847.212 Q23.7529 849.714 23.7529 855.238 Q23.7529 857.312 22.6933 859.431 Q21.6337 861.527 19.0862 862.857 Q15.2763 864.932 7.97199 864.932 M7.40838 861.099 Q14.3745 861.099 17.1474 860.603 Q20.1458 860.039 21.4534 858.506 Q22.7384 856.951 22.7384 855.238 Q22.7384 853.389 21.3632 851.856 Q19.9654 850.3 16.9671 849.827 Q14.0138 849.308 7.40838 849.331 Q0.983314 849.331 -1.58671 849.782 Q-4.58508 850.391 -5.77992 852.014 Q-6.9973 853.614 -6.9973 855.238 Q-6.9973 855.846 -6.81695 856.5 Q-6.63659 857.131 -6.11808 858.056 Q-5.59956 858.98 -4.31455 859.701 Q-3.02954 860.4 -1.09074 860.738 Q1.41165 861.099 7.40838 861.099 Z" fill="#000000" fill-rule="evenodd" fill-opacity="1" /><path clip-path="url(#clip410)" d="M 0 0 M68.5295 768.829 Q68.5617 768.829 69.7212 769.022 L98.9963 776.365 Q100.542 776.752 102.088 777.847 Q103.666 778.91 105.019 780.616 Q106.404 782.291 107.241 784.868 Q108.111 787.412 108.111 790.343 Q108.111 795.013 107.112 797.074 Q106.146 799.103 104.085 799.103 Q102.281 799.103 101.251 797.975 Q100.252 796.848 100.252 795.56 Q100.252 794.336 100.961 793.692 Q101.669 793.048 102.571 793.048 Q103.57 793.048 104.568 793.724 Q105.598 794.401 105.985 795.753 Q106.661 793.595 106.661 790.471 Q106.661 783.869 99.6726 781.035 Q99.576 780.971 99.5438 780.971 L90.816 778.781 L90.7516 778.877 Q91.3957 779.425 92.1364 780.294 Q92.845 781.132 93.7145 782.935 Q94.5841 784.739 94.5841 786.51 Q94.5841 790.214 91.75 792.758 Q88.8836 795.27 84.1494 795.27 Q80.7034 795.27 77.2573 793.885 Q73.7791 792.468 71.2348 790.278 Q68.6584 788.056 67.0481 785.222 Q65.4378 782.356 65.4378 779.586 Q65.4378 777.654 66.5972 776.011 Q67.7244 774.369 69.5923 773.467 Q68.0464 773.306 67.4023 772.436 Q66.7582 771.534 66.7582 770.762 Q66.7582 769.892 67.2413 769.377 Q67.6922 768.829 68.5295 768.829 M72.5553 774.24 Q72.362 774.24 71.8467 774.369 Q71.2992 774.497 70.4297 774.884 Q69.5601 775.238 68.7872 775.786 Q68.0142 776.333 67.4667 777.331 Q66.887 778.298 66.887 779.521 Q66.887 781.518 68.5617 783.515 Q70.2042 785.512 72.7485 786.897 Q75.1961 788.185 79.9304 789.409 Q84.6647 790.6 87.0801 790.6 Q89.4633 790.6 91.2991 789.57 Q93.1348 788.539 93.1348 786.317 Q93.1348 783.74 90.7516 780.971 Q88.2717 778.104 86.1461 777.621 L73.5536 774.433 Q72.7807 774.24 72.5553 774.24 Z" fill="#000000" fill-rule="evenodd" fill-opacity="1" /><path clip-path="url(#clip410)" d="M 0 0 M97.257 750.288 Q98.2489 750.288 98.9929 751.099 Q99.7143 751.888 99.7143 752.745 Q99.7143 753.534 99.2409 754.03 Q98.7449 754.503 98.046 754.503 Q97.1217 754.503 96.3552 753.714 Q95.5887 752.925 95.5887 752.001 Q95.5887 751.235 96.0622 750.761 Q96.5356 750.288 97.257 750.288 M119.508 749.882 Q119.688 749.882 120.41 750.085 Q121.109 750.288 122.191 750.784 Q123.25 751.257 124.242 751.911 Q125.234 752.565 125.933 753.647 Q126.632 754.706 126.632 755.924 Q126.632 757.569 125.55 758.652 Q124.468 759.711 122.845 759.711 Q121.965 759.711 119.147 758.652 Q110.941 755.586 110.603 755.473 Q109.318 754.954 108.191 754.954 Q107.672 754.954 107.357 755.067 Q107.019 755.18 106.906 755.405 Q106.771 755.631 106.748 755.766 Q106.726 755.879 106.726 756.104 Q106.726 757.434 108.078 758.674 Q109.431 759.914 112.452 760.771 Q113.015 760.951 113.151 761.064 Q113.286 761.177 113.286 761.515 Q113.263 762.078 112.812 762.078 Q112.677 762.078 112.159 761.92 Q111.618 761.763 110.806 761.47 Q109.972 761.177 109.115 760.658 Q108.236 760.139 107.469 759.508 Q106.703 758.854 106.207 757.93 Q105.711 757.006 105.711 755.969 Q105.711 754.278 106.816 753.241 Q107.898 752.181 109.498 752.181 Q110.378 752.181 111.933 752.79 Q113.962 753.534 114.616 753.805 L119.463 755.608 Q121.221 756.262 121.762 756.465 Q122.281 756.645 122.912 756.803 Q123.521 756.938 124.084 756.938 Q124.874 756.938 125.234 756.69 Q125.595 756.42 125.595 755.834 Q125.595 754.21 123.994 753.016 Q122.371 751.821 119.891 751.122 Q119.824 751.099 119.711 751.077 Q119.147 750.896 119.08 750.716 Q119.057 750.626 119.057 750.446 Q119.057 749.882 119.508 749.882 Z" fill="#000000" fill-rule="evenodd" fill-opacity="1" /><path clip-path="url(#clip410)" d="M 0 0 M53.0268 762.078 Q45.2265 762.078 38.9367 759.17 Q36.2991 757.93 34.0898 756.194 Q31.8804 754.458 30.911 753.309 Q29.9416 752.159 29.9416 751.843 Q29.9416 751.392 30.3925 751.37 Q30.618 751.37 31.1816 751.979 Q38.7564 759.418 53.0268 759.396 Q67.3423 759.396 74.6241 752.159 Q75.4131 751.37 75.6611 751.37 Q76.112 751.37 76.112 751.843 Q76.112 752.159 75.1877 753.264 Q74.2634 754.368 72.1442 756.082 Q70.0251 757.795 67.4325 759.035 Q61.1427 762.078 53.0268 762.078 Z" fill="#000000" fill-rule="evenodd" fill-opacity="1" /><path clip-path="url(#clip410)" d="M 0 0 M64.5694 744.349 Q63.7353 744.349 63.4873 744.281 Q63.2393 744.191 62.856 743.831 L52.9817 734.971 Q47.526 730.124 42.7692 730.124 Q39.6807 730.124 37.4714 731.747 Q35.2621 733.348 35.2621 736.301 Q35.2621 738.33 36.502 740.043 Q37.7419 741.757 39.9512 742.546 Q39.9061 742.41 39.9061 741.937 Q39.9061 740.787 40.6276 740.156 Q41.349 739.502 42.3184 739.502 Q43.5583 739.502 44.167 740.314 Q44.7531 741.103 44.7531 741.892 Q44.7531 742.207 44.6855 742.636 Q44.6179 743.042 43.9866 743.695 Q43.3328 744.349 42.1831 744.349 Q38.9593 744.349 36.3893 741.914 Q33.8192 739.457 33.8192 735.715 Q33.8192 731.476 36.3442 728.703 Q38.8466 725.908 42.7692 725.908 Q44.1444 725.908 45.4069 726.336 Q46.6468 726.742 47.6162 727.306 Q48.5856 727.847 50.1412 729.335 Q51.6967 730.823 52.8014 732.017 Q53.906 733.212 56.2506 735.895 L61.0074 740.787 L61.0074 732.468 Q61.0074 728.41 60.6467 728.095 Q59.9929 727.644 56.5437 727.08 L56.5437 725.908 L64.5694 727.216 L64.5694 744.349 Z" fill="#000000" fill-rule="evenodd" fill-opacity="1" /><path clip-path="url(#clip410)" d="M 0 0 M75.6611 721.484 Q75.4356 721.484 74.872 720.898 Q67.2972 713.459 53.0268 713.459 Q38.7113 713.459 31.4746 720.605 Q30.6405 721.484 30.3925 721.484 Q29.9416 721.484 29.9416 721.033 Q29.9416 720.718 30.866 719.613 Q31.7903 718.486 33.9094 716.795 Q36.0286 715.082 38.6211 713.819 Q44.9109 710.776 53.0268 710.776 Q60.8271 710.776 67.1169 713.684 Q69.7545 714.924 71.9639 716.66 Q74.1732 718.396 75.1426 719.545 Q76.112 720.695 76.112 721.033 Q76.112 721.484 75.6611 721.484 Z" fill="#000000" fill-rule="evenodd" fill-opacity="1" /><path clip-path="url(#clip410)" d="M 0 0 M78.0947 696.715 Q66.9514 696.715 57.966 692.561 Q54.1979 690.789 51.0418 688.309 Q47.8856 685.829 46.5007 684.187 Q45.1159 682.544 45.1159 682.094 Q45.1159 681.449 45.76 681.417 Q46.082 681.417 46.8872 682.287 Q57.7084 692.915 78.0947 692.883 Q98.5454 692.883 108.948 682.544 Q110.075 681.417 110.429 681.417 Q111.073 681.417 111.073 682.094 Q111.073 682.544 109.753 684.123 Q108.433 685.701 105.405 688.148 Q102.378 690.596 98.6742 692.367 Q89.6888 696.715 78.0947 696.715 Z" fill="#000000" fill-rule="evenodd" fill-opacity="1" /><path clip-path="url(#clip410)" d="M 0 0 M67.7244 639.439 Q69.9788 639.439 69.9788 642.692 L69.9788 653.771 L92.5551 658.183 Q93.1348 658.28 93.4569 658.409 Q93.7789 658.505 94.3264 658.795 Q94.8417 659.053 95.0994 659.6 Q95.3892 660.116 95.3892 660.889 Q95.3892 661.855 94.8095 662.338 Q94.262 662.789 93.5857 662.789 Q93.167 662.789 91.1703 662.145 L69.9788 655.671 L69.9788 661.146 Q69.9788 666.299 75.0673 669.52 Q75.7436 670.035 75.8081 670.325 Q75.8403 670.454 75.8403 670.583 Q75.8403 670.937 75.6792 671.162 Q75.5182 671.355 75.3572 671.355 L75.1961 671.388 Q74.9707 671.388 74.0689 670.872 Q73.135 670.325 71.7501 669.359 Q70.3653 668.36 69.2703 667.362 Q67.8532 666.041 67.1125 664.56 Q66.3395 663.079 66.2429 662.338 Q66.1463 661.565 66.1463 660.566 L66.1463 642.08 Q66.1463 641.243 66.2107 640.792 Q66.2429 640.341 66.6294 639.89 Q66.9837 639.439 67.7244 639.439 Z" fill="#000000" fill-rule="evenodd" fill-opacity="1" /><path clip-path="url(#clip410)" d="M 0 0 M110.429 642.87 Q110.107 642.87 109.302 642.033 Q98.481 631.405 78.0947 631.405 Q57.644 631.405 47.3059 641.614 Q46.1143 642.87 45.76 642.87 Q45.1159 642.87 45.1159 642.226 Q45.1159 641.775 46.4363 640.197 Q47.7568 638.587 50.7841 636.172 Q53.8115 633.724 57.5151 631.92 Q66.5006 627.573 78.0947 627.573 Q89.2379 627.573 98.2233 631.727 Q101.991 633.499 105.148 635.978 Q108.304 638.458 109.689 640.101 Q111.073 641.743 111.073 642.226 Q111.073 642.87 110.429 642.87 Z" fill="#000000" fill-rule="evenodd" fill-opacity="1" /><path clip-path="url(#clip410)" d="M 0 0 M494.8 14.0809 L494.8 22.0612 Q490.141 19.8332 486.009 18.7395 Q481.877 17.6457 478.029 17.6457 Q471.345 17.6457 467.699 20.2383 Q464.094 22.8309 464.094 27.611 Q464.094 31.6214 466.484 33.6873 Q468.914 35.7128 475.639 36.9686 L480.581 37.9813 Q489.736 39.7232 494.071 44.1387 Q498.446 48.5136 498.446 55.8863 Q498.446 64.6767 492.531 69.2137 Q486.657 73.7508 475.274 73.7508 Q470.98 73.7508 466.119 72.7785 Q461.299 71.8063 456.114 69.9024 L456.114 61.4765 Q461.096 64.2716 465.876 65.6895 Q470.656 67.1073 475.274 67.1073 Q482.282 67.1073 486.09 64.3527 Q489.898 61.598 489.898 56.4939 Q489.898 52.0379 487.143 49.5264 Q484.429 47.0148 478.191 45.759 L473.208 44.7868 Q464.053 42.9639 459.962 39.075 Q455.871 35.1862 455.871 28.2591 Q455.871 20.2383 461.501 15.6203 Q467.173 11.0023 477.097 11.0023 Q481.351 11.0023 485.766 11.7719 Q490.182 12.5416 494.8 14.0809 Z" fill="#000000" fill-rule="evenodd" fill-opacity="1" /><path clip-path="url(#clip410)" d="M 0 0 M510.112 54.671 L510.112 27.2059 L517.566 27.2059 L517.566 54.3874 Q517.566 60.8284 520.077 64.0691 Q522.589 67.2693 527.612 67.2693 Q533.648 67.2693 537.132 63.421 Q540.656 59.5726 540.656 52.9291 L540.656 27.2059 L548.11 27.2059 L548.11 72.576 L540.656 72.576 L540.656 65.6084 Q537.942 69.7404 534.337 71.7658 Q530.772 73.7508 526.032 73.7508 Q518.214 73.7508 514.163 68.8897 Q510.112 64.0286 510.112 54.671 M528.868 26.1121 L528.868 26.1121 Z" fill="#000000" fill-rule="evenodd" fill-opacity="1" /><path clip-path="url(#clip410)" d="M 0 0 M598.786 35.9153 Q601.582 30.8922 605.47 28.5022 Q609.359 26.1121 614.625 26.1121 Q621.715 26.1121 625.563 31.0947 Q629.411 36.0368 629.411 45.1919 L629.411 72.576 L621.917 72.576 L621.917 45.4349 Q621.917 38.913 619.608 35.7533 Q617.299 32.5936 612.559 32.5936 Q606.767 32.5936 603.404 36.4419 Q600.042 40.2903 600.042 46.9338 L600.042 72.576 L592.548 72.576 L592.548 45.4349 Q592.548 38.8725 590.239 35.7533 Q587.93 32.5936 583.109 32.5936 Q577.398 32.5936 574.035 36.4824 Q570.673 40.3308 570.673 46.9338 L570.673 72.576 L563.179 72.576 L563.179 27.2059 L570.673 27.2059 L570.673 34.2544 Q573.225 30.082 576.79 28.0971 Q580.355 26.1121 585.256 26.1121 Q590.198 26.1121 593.642 28.6237 Q597.126 31.1352 598.786 35.9153 Z" fill="#000000" fill-rule="evenodd" fill-opacity="1" /><path clip-path="url(#clip410)" d="M 0 0 M688.23 32.4315 Q682.235 32.4315 678.751 37.1306 Q675.267 41.7891 675.267 49.9314 Q675.267 58.0738 678.711 62.7728 Q682.195 67.4314 688.23 67.4314 Q694.185 67.4314 697.669 62.7323 Q701.153 58.0333 701.153 49.9314 Q701.153 41.8701 697.669 37.1711 Q694.185 32.4315 688.23 32.4315 M688.23 26.1121 Q697.953 26.1121 703.502 32.4315 Q709.052 38.7509 709.052 49.9314 Q709.052 61.0714 703.502 67.4314 Q697.953 73.7508 688.23 73.7508 Q678.468 73.7508 672.918 67.4314 Q667.409 61.0714 667.409 49.9314 Q667.409 38.7509 672.918 32.4315 Q678.468 26.1121 688.23 26.1121 Z" fill="#000000" fill-rule="evenodd" fill-opacity="1" /><path clip-path="url(#clip410)" d="M 0 0 M744.376 9.54393 L744.376 15.7418 L737.246 15.7418 Q733.236 15.7418 731.656 17.3622 Q730.117 18.9825 730.117 23.1955 L730.117 27.2059 L742.391 27.2059 L742.391 32.9987 L730.117 32.9987 L730.117 72.576 L722.623 72.576 L722.623 32.9987 L715.493 32.9987 L715.493 27.2059 L722.623 27.2059 L722.623 24.0462 Q722.623 16.471 726.147 13.0277 Q729.671 9.54393 737.327 9.54393 L744.376 9.54393 Z" fill="#000000" fill-rule="evenodd" fill-opacity="1" /><path clip-path="url(#clip410)" d="M 0 0 M785.493 18.8205 L785.493 41.5461 L795.782 41.5461 Q801.494 41.5461 804.613 38.5889 Q807.732 35.6318 807.732 30.163 Q807.732 24.7348 804.613 21.7777 Q801.494 18.8205 795.782 18.8205 L785.493 18.8205 M777.31 12.096 L795.782 12.096 Q805.95 12.096 811.135 16.714 Q816.36 21.2916 816.36 30.163 Q816.36 39.1155 811.135 43.6931 Q805.95 48.2706 795.782 48.2706 L785.493 48.2706 L785.493 72.576 L777.31 72.576 L777.31 12.096 Z" fill="#000000" fill-rule="evenodd" fill-opacity="1" /><path clip-path="url(#clip410)" d="M 0 0 M864.728 45.1919 L864.728 72.576 L857.275 72.576 L857.275 45.4349 Q857.275 38.994 854.763 35.7938 Q852.251 32.5936 847.228 32.5936 Q841.193 32.5936 837.709 36.4419 Q834.225 40.2903 834.225 46.9338 L834.225 72.576 L826.731 72.576 L826.731 9.54393 L834.225 9.54393 L834.225 34.2544 Q836.899 30.163 840.504 28.1376 Q844.15 26.1121 848.889 26.1121 Q856.707 26.1121 860.718 30.9732 Q864.728 35.7938 864.728 45.1919 Z" fill="#000000" fill-rule="evenodd" fill-opacity="1" /><path clip-path="url(#clip410)" d="M 0 0 M897.176 32.4315 Q891.181 32.4315 887.697 37.1306 Q884.213 41.7891 884.213 49.9314 Q884.213 58.0738 887.656 62.7728 Q891.14 67.4314 897.176 67.4314 Q903.131 67.4314 906.615 62.7323 Q910.098 58.0333 910.098 49.9314 Q910.098 41.8701 906.615 37.1711 Q903.131 32.4315 897.176 32.4315 M897.176 26.1121 Q906.898 26.1121 912.448 32.4315 Q917.998 38.7509 917.998 49.9314 Q917.998 61.0714 912.448 67.4314 Q906.898 73.7508 897.176 73.7508 Q887.413 73.7508 881.864 67.4314 Q876.354 61.0714 876.354 49.9314 Q876.354 38.7509 881.864 32.4315 Q887.413 26.1121 897.176 26.1121 Z" fill="#000000" fill-rule="evenodd" fill-opacity="1" /><path clip-path="url(#clip410)" d="M 0 0 M937.726 14.324 L937.726 27.2059 L953.078 27.2059 L953.078 32.9987 L937.726 32.9987 L937.726 57.6282 Q937.726 63.1779 939.224 64.7578 Q940.764 66.3376 945.422 66.3376 L953.078 66.3376 L953.078 72.576 L945.422 72.576 Q936.794 72.576 933.513 69.3758 Q930.231 66.1351 930.231 57.6282 L930.231 32.9987 L924.763 32.9987 L924.763 27.2059 L930.231 27.2059 L930.231 14.324 L937.726 14.324 Z" fill="#000000" fill-rule="evenodd" fill-opacity="1" /><path clip-path="url(#clip410)" d="M 0 0 M980.463 32.4315 Q974.467 32.4315 970.983 37.1306 Q967.5 41.7891 967.5 49.9314 Q967.5 58.0738 970.943 62.7728 Q974.427 67.4314 980.463 67.4314 Q986.417 67.4314 989.901 62.7323 Q993.385 58.0333 993.385 49.9314 Q993.385 41.8701 989.901 37.1711 Q986.417 32.4315 980.463 32.4315 M980.463 26.1121 Q990.185 26.1121 995.735 32.4315 Q1001.28 38.7509 1001.28 49.9314 Q1001.28 61.0714 995.735 67.4314 Q990.185 73.7508 980.463 73.7508 Q970.7 73.7508 965.15 67.4314 Q959.641 61.0714 959.641 49.9314 Q959.641 38.7509 965.15 32.4315 Q970.7 26.1121 980.463 26.1121 Z" fill="#000000" fill-rule="evenodd" fill-opacity="1" /><path clip-path="url(#clip410)" d="M 0 0 M1051.35 45.1919 L1051.35 72.576 L1043.9 72.576 L1043.9 45.4349 Q1043.9 38.994 1041.39 35.7938 Q1038.88 32.5936 1033.85 32.5936 Q1027.82 32.5936 1024.33 36.4419 Q1020.85 40.2903 1020.85 46.9338 L1020.85 72.576 L1013.36 72.576 L1013.36 27.2059 L1020.85 27.2059 L1020.85 34.2544 Q1023.52 30.163 1027.13 28.1376 Q1030.77 26.1121 1035.51 26.1121 Q1043.33 26.1121 1047.34 30.9732 Q1051.35 35.7938 1051.35 45.1919 Z" fill="#000000" fill-rule="evenodd" fill-opacity="1" /><path clip-path="url(#clip410)" d="M 0 0 M1138.2 16.7545 L1138.2 25.383 Q1134.07 21.5346 1129.37 19.6307 Q1124.72 17.7268 1119.45 17.7268 Q1109.08 17.7268 1103.57 24.0867 Q1098.06 30.4061 1098.06 42.3968 Q1098.06 54.3469 1103.57 60.7069 Q1109.08 67.0263 1119.45 67.0263 Q1124.72 67.0263 1129.37 65.1223 Q1134.07 63.2184 1138.2 59.3701 L1138.2 67.9175 Q1133.91 70.8341 1129.09 72.2924 Q1124.31 73.7508 1118.96 73.7508 Q1105.23 73.7508 1097.33 65.3654 Q1089.43 56.9395 1089.43 42.3968 Q1089.43 27.8135 1097.33 19.4281 Q1105.23 11.0023 1118.96 11.0023 Q1124.39 11.0023 1129.17 12.4606 Q1133.99 13.8784 1138.2 16.7545 Z" fill="#000000" fill-rule="evenodd" fill-opacity="1" /><path clip-path="url(#clip410)" d="M 0 0 M1168.1 32.4315 Q1162.11 32.4315 1158.62 37.1306 Q1155.14 41.7891 1155.14 49.9314 Q1155.14 58.0738 1158.58 62.7728 Q1162.06 67.4314 1168.1 67.4314 Q1174.06 67.4314 1177.54 62.7323 Q1181.02 58.0333 1181.02 49.9314 Q1181.02 41.8701 1177.54 37.1711 Q1174.06 32.4315 1168.1 32.4315 M1168.1 26.1121 Q1177.82 26.1121 1183.37 32.4315 Q1188.92 38.7509 1188.92 49.9314 Q1188.92 61.0714 1183.37 67.4314 Q1177.82 73.7508 1168.1 73.7508 Q1158.34 73.7508 1152.79 67.4314 Q1147.28 61.0714 1147.28 49.9314 Q1147.28 38.7509 1152.79 32.4315 Q1158.34 26.1121 1168.1 26.1121 Z" fill="#000000" fill-rule="evenodd" fill-opacity="1" /><path clip-path="url(#clip410)" d="M 0 0 M1227.57 34.1734 Q1226.31 33.4443 1224.81 33.1202 Q1223.35 32.7556 1221.57 32.7556 Q1215.25 32.7556 1211.85 36.8875 Q1208.49 40.9789 1208.49 48.6757 L1208.49 72.576 L1200.99 72.576 L1200.99 27.2059 L1208.49 27.2059 L1208.49 34.2544 Q1210.84 30.1225 1214.6 28.1376 Q1218.37 26.1121 1223.76 26.1121 Q1224.53 26.1121 1225.46 26.2337 Q1226.39 26.3147 1227.53 26.5172 L1227.57 34.1734 Z" fill="#000000" fill-rule="evenodd" fill-opacity="1" /><path clip-path="url(#clip410)" d="M 0 0 M1260.22 34.1734 Q1258.96 33.4443 1257.46 33.1202 Q1256.01 32.7556 1254.22 32.7556 Q1247.9 32.7556 1244.5 36.8875 Q1241.14 40.9789 1241.14 48.6757 L1241.14 72.576 L1233.64 72.576 L1233.64 27.2059 L1241.14 27.2059 L1241.14 34.2544 Q1243.49 30.1225 1247.26 28.1376 Q1251.02 26.1121 1256.41 26.1121 Q1257.18 26.1121 1258.11 26.2337 Q1259.04 26.3147 1260.18 26.5172 L1260.22 34.1734 Z" fill="#000000" fill-rule="evenodd" fill-opacity="1" /><path clip-path="url(#clip410)" d="M 0 0 M1305.02 48.0275 L1305.02 51.6733 L1270.75 51.6733 Q1271.24 59.3701 1275.37 63.421 Q1279.54 67.4314 1286.95 67.4314 Q1291.25 67.4314 1295.26 66.3781 Q1299.31 65.3249 1303.28 63.2184 L1303.28 70.267 Q1299.27 71.9684 1295.06 72.8596 Q1290.84 73.7508 1286.51 73.7508 Q1275.65 73.7508 1269.29 67.4314 Q1262.97 61.1119 1262.97 50.3365 Q1262.97 39.1965 1268.97 32.6746 Q1275 26.1121 1285.21 26.1121 Q1294.37 26.1121 1299.67 32.0264 Q1305.02 37.9003 1305.02 48.0275 M1297.57 45.84 Q1297.49 39.7232 1294.12 36.0774 Q1290.8 32.4315 1285.29 32.4315 Q1279.05 32.4315 1275.29 35.9558 Q1271.56 39.4801 1270.99 45.8805 L1297.57 45.84 Z" fill="#000000" fill-rule="evenodd" fill-opacity="1" /><path clip-path="url(#clip410)" d="M 0 0 M1317.25 9.54393 L1324.71 9.54393 L1324.71 72.576 L1317.25 72.576 L1317.25 9.54393 Z" fill="#000000" fill-rule="evenodd" fill-opacity="1" /><path clip-path="url(#clip410)" d="M 0 0 M1360.92 49.7694 Q1351.89 49.7694 1348.41 51.8354 Q1344.92 53.9013 1344.92 58.8839 Q1344.92 62.8538 1347.52 65.2034 Q1350.15 67.5124 1354.64 67.5124 Q1360.84 67.5124 1364.57 63.1374 Q1368.34 58.7219 1368.34 51.4303 L1368.34 49.7694 L1360.92 49.7694 M1375.79 46.6907 L1375.79 72.576 L1368.34 72.576 L1368.34 65.6895 Q1365.78 69.8214 1361.98 71.8063 Q1358.17 73.7508 1352.66 73.7508 Q1345.69 73.7508 1341.56 69.8619 Q1337.47 65.9325 1337.47 59.3701 Q1337.47 51.7138 1342.57 47.825 Q1347.72 43.9361 1357.89 43.9361 L1368.34 43.9361 L1368.34 43.2069 Q1368.34 38.0623 1364.93 35.2672 Q1361.57 32.4315 1355.45 32.4315 Q1351.57 32.4315 1347.88 33.3632 Q1344.19 34.295 1340.79 36.1584 L1340.79 29.2718 Q1344.88 27.692 1348.73 26.9223 Q1352.58 26.1121 1356.22 26.1121 Q1366.07 26.1121 1370.93 31.2163 Q1375.79 36.3204 1375.79 46.6907 Z" fill="#000000" fill-rule="evenodd" fill-opacity="1" /><path clip-path="url(#clip410)" d="M 0 0 M1398.52 14.324 L1398.52 27.2059 L1413.87 27.2059 L1413.87 32.9987 L1398.52 32.9987 L1398.52 57.6282 Q1398.52 63.1779 1400.01 64.7578 Q1401.55 66.3376 1406.21 66.3376 L1413.87 66.3376 L1413.87 72.576 L1406.21 72.576 Q1397.58 72.576 1394.3 69.3758 Q1391.02 66.1351 1391.02 57.6282 L1391.02 32.9987 L1385.55 32.9987 L1385.55 27.2059 L1391.02 27.2059 L1391.02 14.324 L1398.52 14.324 Z" fill="#000000" fill-rule="evenodd" fill-opacity="1" /><path clip-path="url(#clip410)" d="M 0 0 M1423.67 27.2059 L1431.13 27.2059 L1431.13 72.576 L1423.67 72.576 L1423.67 27.2059 M1423.67 9.54393 L1431.13 9.54393 L1431.13 18.9825 L1423.67 18.9825 L1423.67 9.54393 Z" fill="#000000" fill-rule="evenodd" fill-opacity="1" /><path clip-path="url(#clip410)" d="M 0 0 M1464.3 32.4315 Q1458.31 32.4315 1454.82 37.1306 Q1451.34 41.7891 1451.34 49.9314 Q1451.34 58.0738 1454.78 62.7728 Q1458.27 67.4314 1464.3 67.4314 Q1470.26 67.4314 1473.74 62.7323 Q1477.22 58.0333 1477.22 49.9314 Q1477.22 41.8701 1473.74 37.1711 Q1470.26 32.4315 1464.3 32.4315 M1464.3 26.1121 Q1474.02 26.1121 1479.57 32.4315 Q1485.12 38.7509 1485.12 49.9314 Q1485.12 61.0714 1479.57 67.4314 Q1474.02 73.7508 1464.3 73.7508 Q1454.54 73.7508 1448.99 67.4314 Q1443.48 61.0714 1443.48 49.9314 Q1443.48 38.7509 1448.99 32.4315 Q1454.54 26.1121 1464.3 26.1121 Z" fill="#000000" fill-rule="evenodd" fill-opacity="1" /><path clip-path="url(#clip410)" d="M 0 0 M1535.19 45.1919 L1535.19 72.576 L1527.74 72.576 L1527.74 45.4349 Q1527.74 38.994 1525.23 35.7938 Q1522.72 32.5936 1517.69 32.5936 Q1511.66 32.5936 1508.17 36.4419 Q1504.69 40.2903 1504.69 46.9338 L1504.69 72.576 L1497.2 72.576 L1497.2 27.2059 L1504.69 27.2059 L1504.69 34.2544 Q1507.36 30.163 1510.97 28.1376 Q1514.61 26.1121 1519.35 26.1121 Q1527.17 26.1121 1531.18 30.9732 Q1535.19 35.7938 1535.19 45.1919 Z" fill="#000000" fill-rule="evenodd" fill-opacity="1" /><path clip-path="url(#clip410)" d="M 0 0 M1578.98 28.5427 L1578.98 35.5912 Q1575.82 33.9709 1572.42 33.1607 Q1569.02 32.3505 1565.37 32.3505 Q1559.82 32.3505 1557.03 34.0519 Q1554.27 35.7533 1554.27 39.156 Q1554.27 41.7486 1556.26 43.2475 Q1558.24 44.7058 1564.24 46.0426 L1566.79 46.6097 Q1574.73 48.3111 1578.05 51.4303 Q1581.41 54.509 1581.41 60.0587 Q1581.41 66.3781 1576.39 70.0644 Q1571.41 73.7508 1562.66 73.7508 Q1559.01 73.7508 1555.04 73.0216 Q1551.11 72.3329 1546.74 70.9151 L1546.74 63.2184 Q1550.87 65.3654 1554.88 66.4591 Q1558.89 67.5124 1562.82 67.5124 Q1568.09 67.5124 1570.92 65.73 Q1573.76 63.9071 1573.76 60.6258 Q1573.76 57.5877 1571.69 55.9673 Q1569.67 54.3469 1562.74 52.8481 L1560.15 52.2405 Q1553.22 50.7821 1550.14 47.7845 Q1547.06 44.7463 1547.06 39.4801 Q1547.06 33.0797 1551.6 29.5959 Q1556.14 26.1121 1564.48 26.1121 Q1568.61 26.1121 1572.26 26.7198 Q1575.91 27.3274 1578.98 28.5427 Z" fill="#000000" fill-rule="evenodd" fill-opacity="1" /><path clip-path="url(#clip410)" d="M 0 0 M1614.31 27.2059 L1622.21 27.2059 L1636.39 65.2844 L1650.56 27.2059 L1658.46 27.2059 L1641.45 72.576 L1631.32 72.576 L1614.31 27.2059 Z" fill="#000000" fill-rule="evenodd" fill-opacity="1" /><path clip-path="url(#clip410)" d="M 0 0 M1697.68 28.5427 L1697.68 35.5912 Q1694.52 33.9709 1691.11 33.1607 Q1687.71 32.3505 1684.06 32.3505 Q1678.51 32.3505 1675.72 34.0519 Q1672.96 35.7533 1672.96 39.156 Q1672.96 41.7486 1674.95 43.2475 Q1676.93 44.7058 1682.93 46.0426 L1685.48 46.6097 Q1693.42 48.3111 1696.74 51.4303 Q1700.11 54.509 1700.11 60.0587 Q1700.11 66.3781 1695.08 70.0644 Q1690.1 73.7508 1681.35 73.7508 Q1677.7 73.7508 1673.73 73.0216 Q1669.8 72.3329 1665.43 70.9151 L1665.43 63.2184 Q1669.56 65.3654 1673.57 66.4591 Q1677.58 67.5124 1681.51 67.5124 Q1686.78 67.5124 1689.61 65.73 Q1692.45 63.9071 1692.45 60.6258 Q1692.45 57.5877 1690.38 55.9673 Q1688.36 54.3469 1681.43 52.8481 L1678.84 52.2405 Q1671.91 50.7821 1668.83 47.7845 Q1665.75 44.7463 1665.75 39.4801 Q1665.75 33.0797 1670.29 29.5959 Q1674.83 26.1121 1683.17 26.1121 Q1687.3 26.1121 1690.95 26.7198 Q1694.6 27.3274 1697.68 28.5427 Z" fill="#000000" fill-rule="evenodd" fill-opacity="1" /><path clip-path="url(#clip410)" d="M 0 0 M1730.28 12.096 L1781.45 12.096 L1781.45 18.9825 L1759.98 18.9825 L1759.98 72.576 L1751.75 72.576 L1751.75 18.9825 L1730.28 18.9825 L1730.28 12.096 Z" fill="#000000" fill-rule="evenodd" fill-opacity="1" /><path clip-path="url(#clip410)" d="M 0 0 M1786.47 27.2059 L1793.92 27.2059 L1793.92 72.576 L1786.47 72.576 L1786.47 27.2059 M1786.47 9.54393 L1793.92 9.54393 L1793.92 18.9825 L1786.47 18.9825 L1786.47 9.54393 Z" fill="#000000" fill-rule="evenodd" fill-opacity="1" /><path clip-path="url(#clip410)" d="M 0 0 M1844.84 35.9153 Q1847.64 30.8922 1851.53 28.5022 Q1855.42 26.1121 1860.68 26.1121 Q1867.77 26.1121 1871.62 31.0947 Q1875.47 36.0368 1875.47 45.1919 L1875.47 72.576 L1867.98 72.576 L1867.98 45.4349 Q1867.98 38.913 1865.67 35.7533 Q1863.36 32.5936 1858.62 32.5936 Q1852.82 32.5936 1849.46 36.4419 Q1846.1 40.2903 1846.1 46.9338 L1846.1 72.576 L1838.61 72.576 L1838.61 45.4349 Q1838.61 38.8725 1836.3 35.7533 Q1833.99 32.5936 1829.17 32.5936 Q1823.46 32.5936 1820.09 36.4824 Q1816.73 40.3308 1816.73 46.9338 L1816.73 72.576 L1809.24 72.576 L1809.24 27.2059 L1816.73 27.2059 L1816.73 34.2544 Q1819.28 30.082 1822.85 28.0971 Q1826.41 26.1121 1831.31 26.1121 Q1836.26 26.1121 1839.7 28.6237 Q1843.18 31.1352 1844.84 35.9153 Z" fill="#000000" fill-rule="evenodd" fill-opacity="1" /><path clip-path="url(#clip410)" d="M 0 0 M1929.14 48.0275 L1929.14 51.6733 L1894.87 51.6733 Q1895.36 59.3701 1899.49 63.421 Q1903.66 67.4314 1911.08 67.4314 Q1915.37 67.4314 1919.38 66.3781 Q1923.43 65.3249 1927.4 63.2184 L1927.4 70.267 Q1923.39 71.9684 1919.18 72.8596 Q1914.97 73.7508 1910.63 73.7508 Q1899.77 73.7508 1893.41 67.4314 Q1887.1 61.1119 1887.1 50.3365 Q1887.1 39.1965 1893.09 32.6746 Q1899.13 26.1121 1909.33 26.1121 Q1918.49 26.1121 1923.8 32.0264 Q1929.14 37.9003 1929.14 48.0275 M1921.69 45.84 Q1921.61 39.7232 1918.25 36.0774 Q1914.93 32.4315 1909.42 32.4315 Q1903.18 32.4315 1899.41 35.9558 Q1895.68 39.4801 1895.12 45.8805 L1921.69 45.84 Z" fill="#000000" fill-rule="evenodd" fill-opacity="1" /><path clip-path="url(#clip410)" d="M 0 0 M1992.62 17.6457 Q1983.71 17.6457 1978.44 24.2892 Q1973.22 30.9327 1973.22 42.3968 Q1973.22 53.8203 1978.44 60.4638 Q1983.71 67.1073 1992.62 67.1073 Q2001.53 67.1073 2006.72 60.4638 Q2011.94 53.8203 2011.94 42.3968 Q2011.94 30.9327 2006.72 24.2892 Q2001.53 17.6457 1992.62 17.6457 M1992.62 11.0023 Q2005.34 11.0023 2012.96 19.5497 Q2020.57 28.0566 2020.57 42.3968 Q2020.57 56.6965 2012.96 65.2439 Q2005.34 73.7508 1992.62 73.7508 Q1979.86 73.7508 1972.2 65.2439 Q1964.59 56.737 1964.59 42.3968 Q1964.59 28.0566 1972.2 19.5497 Q1979.86 11.0023 1992.62 11.0023 Z" fill="#000000" fill-rule="evenodd" fill-opacity="1" /><path clip-path="url(#clip410)" d="M 0 0 M2056.02 9.54393 L2056.02 15.7418 L2048.89 15.7418 Q2044.88 15.7418 2043.3 17.3622 Q2041.76 18.9825 2041.76 23.1955 L2041.76 27.2059 L2054.03 27.2059 L2054.03 32.9987 L2041.76 32.9987 L2041.76 72.576 L2034.26 72.576 L2034.26 32.9987 L2027.14 32.9987 L2027.14 27.2059 L2034.26 27.2059 L2034.26 24.0462 Q2034.26 16.471 2037.79 13.0277 Q2041.31 9.54393 2048.97 9.54393 L2056.02 9.54393 Z" fill="#000000" fill-rule="evenodd" fill-opacity="1" /><path clip-path="url(#clip410)" d="M 0 0 M2085.23 9.54393 L2085.23 15.7418 L2078.1 15.7418 Q2074.09 15.7418 2072.51 17.3622 Q2070.97 18.9825 2070.97 23.1955 L2070.97 27.2059 L2083.24 27.2059 L2083.24 32.9987 L2070.97 32.9987 L2070.97 72.576 L2063.47 72.576 L2063.47 32.9987 L2056.34 32.9987 L2056.34 27.2059 L2063.47 27.2059 L2063.47 24.0462 Q2063.47 16.471 2067 13.0277 Q2070.52 9.54393 2078.18 9.54393 L2085.23 9.54393 Z" fill="#000000" fill-rule="evenodd" fill-opacity="1" /><path clip-path="url(#clip410)" d="M 0 0 M2120.39 28.5427 L2120.39 35.5912 Q2117.23 33.9709 2113.82 33.1607 Q2110.42 32.3505 2106.78 32.3505 Q2101.23 32.3505 2098.43 34.0519 Q2095.68 35.7533 2095.68 39.156 Q2095.68 41.7486 2097.66 43.2475 Q2099.65 44.7058 2105.64 46.0426 L2108.19 46.6097 Q2116.13 48.3111 2119.46 51.4303 Q2122.82 54.509 2122.82 60.0587 Q2122.82 66.3781 2117.79 70.0644 Q2112.81 73.7508 2104.06 73.7508 Q2100.42 73.7508 2096.45 73.0216 Q2092.52 72.3329 2088.14 70.9151 L2088.14 63.2184 Q2092.27 65.3654 2096.28 66.4591 Q2100.29 67.5124 2104.22 67.5124 Q2109.49 67.5124 2112.33 65.73 Q2115.16 63.9071 2115.16 60.6258 Q2115.16 57.5877 2113.1 55.9673 Q2111.07 54.3469 2104.14 52.8481 L2101.55 52.2405 Q2094.62 50.7821 2091.54 47.7845 Q2088.47 44.7463 2088.47 39.4801 Q2088.47 33.0797 2093 29.5959 Q2097.54 26.1121 2105.88 26.1121 Q2110.02 26.1121 2113.66 26.7198 Q2117.31 27.3274 2120.39 28.5427 Z" fill="#000000" fill-rule="evenodd" fill-opacity="1" /><path clip-path="url(#clip410)" d="M 0 0 M2173.49 48.0275 L2173.49 51.6733 L2139.22 51.6733 Q2139.71 59.3701 2143.84 63.421 Q2148.01 67.4314 2155.43 67.4314 Q2159.72 67.4314 2163.73 66.3781 Q2167.78 65.3249 2171.75 63.2184 L2171.75 70.267 Q2167.74 71.9684 2163.53 72.8596 Q2159.32 73.7508 2154.98 73.7508 Q2144.13 73.7508 2137.77 67.4314 Q2131.45 61.1119 2131.45 50.3365 Q2131.45 39.1965 2137.44 32.6746 Q2143.48 26.1121 2153.69 26.1121 Q2162.84 26.1121 2168.15 32.0264 Q2173.49 37.9003 2173.49 48.0275 M2166.04 45.84 Q2165.96 39.7232 2162.6 36.0774 Q2159.28 32.4315 2153.77 32.4315 Q2147.53 32.4315 2143.76 35.9558 Q2140.03 39.4801 2139.47 45.8805 L2166.04 45.84 Z" fill="#000000" fill-rule="evenodd" fill-opacity="1" /><path clip-path="url(#clip410)" d="M 0 0 M2193.1 14.324 L2193.1 27.2059 L2208.45 27.2059 L2208.45 32.9987 L2193.1 32.9987 L2193.1 57.6282 Q2193.1 63.1779 2194.6 64.7578 Q2196.14 66.3376 2200.8 66.3376 L2208.45 66.3376 L2208.45 72.576 L2200.8 72.576 Q2192.17 72.576 2188.89 69.3758 Q2185.61 66.1351 2185.61 57.6282 L2185.61 32.9987 L2180.14 32.9987 L2180.14 27.2059 L2185.61 27.2059 L2185.61 14.324 L2193.1 14.324 Z" fill="#000000" fill-rule="evenodd" fill-opacity="1" /><polyline clip-path="url(#clip413)" style="stroke:#009af9; stroke-width:4; stroke-opacity:1; fill:none" points="
  369.338,160.369 371.265,957.297 373.193,1233.37 375.12,1238.23 377.048,1269.05 378.976,1256.43 380.903,1249.88 382.831,1248.9 384.758,1184.67 386.686,1235.01 
  388.614,1269 390.541,1288.54 392.469,1317.84 394.396,1308.51 396.324,1332.61 398.251,1356.59 400.179,1365.63 402.107,1339.8 404.034,1302.93 405.962,1320.31 
  407.889,1219.2 409.817,1260.83 411.744,1283.05 413.672,1236.66 415.6,1270.13 417.527,1276.27 419.455,1206.88 421.382,1299.99 423.31,1200.02 425.237,1243.27 
  427.165,1142.28 429.093,1212.69 431.02,1205.12 432.948,1167.87 434.875,1188.45 436.803,1259.09 438.731,1247.42 440.658,1237.13 442.586,1233.32 444.513,1216.85 
  446.441,1282.62 448.368,1214.54 450.296,1285.61 452.224,1282.33 454.151,1259.61 456.079,1302.76 458.006,1288.48 459.934,1363.72 461.861,1316.66 463.789,1361.16 
  465.717,1334.34 467.644,1301.23 469.572,1318.96 471.499,1276.8 473.427,1304.92 475.354,1269.92 477.282,1258.26 479.21,1240.31 481.137,1255.72 483.065,1244.06 
  484.992,1187.91 486.92,1219.53 488.847,1243.59 490.775,1182.53 492.703,1199.41 494.63,1154.25 496.558,1210.02 498.485,1326.36 500.413,1327.53 502.341,1191.45 
  504.268,1191.16 506.196,1308.16 508.123,1297.05 510.051,1286.03 511.978,1204.86 513.906,1294.27 515.834,1277.29 517.761,1258.53 519.689,1297.3 521.616,1270.63 
  523.544,1269.82 525.471,1284.37 527.399,1258.98 529.327,1346.02 531.254,1333.81 533.182,1326.55 535.109,1277.3 537.037,1332.54 538.964,1390.25 540.892,1283.68 
  542.82,1267.62 544.747,1251.39 546.675,1271.76 548.602,1186.33 550.53,1273.95 552.458,1185.88 554.385,1242.46 556.313,1262.7 558.24,1213.12 560.168,1224.04 
  562.095,1228.54 564.023,1256.21 565.951,1186.2 567.878,1195.84 569.806,1281.31 571.733,1245.42 573.661,1218.86 575.588,1225.56 577.516,1310.24 579.444,1262.7 
  581.371,1324.92 583.299,1279.69 585.226,1296.93 587.154,1329.7 589.081,1329.61 591.009,1356.83 592.937,1344.02 594.864,1294.78 596.792,1248.99 598.719,1265.41 
  600.647,1297.14 602.574,1273.61 604.502,1354.77 606.43,1313.93 608.357,1254.02 610.285,1266.71 612.212,1211.84 614.14,1315.74 616.068,1274.76 617.995,1254.12 
  619.923,1275.01 621.85,1251.33 623.778,1096.32 625.705,1189.32 627.633,1265.05 629.561,1297.04 631.488,1254.22 633.416,1202.84 635.343,1216.75 637.271,1172.48 
  639.198,1267.21 641.126,1236.23 643.054,1237.34 644.981,1349.83 646.909,1341.18 648.836,1247.07 650.764,1236.56 652.691,1375.38 654.619,1330.92 656.547,1370.6 
  658.474,1377.69 660.402,1300.07 662.329,1338.8 664.257,1314.32 666.185,1355.08 668.112,1336.45 670.04,1306.34 671.967,1264.18 673.895,1246.33 675.822,1214.83 
  677.75,1275.77 679.678,1228.42 681.605,1257.45 683.533,1196.84 685.46,1260.2 687.388,1231.86 689.315,1265.85 691.243,1233.89 693.171,1216.9 695.098,1224.13 
  697.026,1336.14 698.953,1276.41 700.881,1214.22 702.808,1241.17 704.736,1234.02 706.664,1297.98 708.591,1282.13 710.519,1320.67 712.446,1336.85 714.374,1294.5 
  716.301,1305.33 718.229,1294.6 720.157,1319.76 722.084,1355.13 724.012,1287.65 725.939,1337.41 727.867,1322.61 729.795,1222.58 731.722,1257.69 733.65,1283.13 
  735.577,1361.56 737.505,1318.3 739.432,1273.26 741.36,1226.81 743.288,1230.89 745.215,1169.95 747.143,1276.22 749.07,1174.49 750.998,1233.93 752.925,1231.11 
  754.853,1097.32 756.781,1203.5 758.708,1184.63 760.636,1237.9 762.563,1226.67 764.491,1214.55 766.418,1295.48 768.346,1244.7 770.274,1226.05 772.201,1247.68 
  774.129,1289.34 776.056,1286.55 777.984,1343.98 779.912,1290.63 781.839,1306.47 783.767,1307.7 785.694,1275.97 787.622,1349.54 789.549,1287.94 791.477,1266.52 
  793.405,1325.24 795.332,1301.49 797.26,1295.54 799.187,1232.74 801.115,1268.51 803.042,1269.49 804.97,1303.98 806.898,1253.78 808.825,1192.41 810.753,1250.04 
  812.68,1214.89 814.608,1239.3 816.535,1166.03 818.463,1274.51 820.391,1290.77 822.318,1293.37 824.246,1198.14 826.173,1190.57 828.101,1181.8 830.028,1269.7 
  831.956,1385 833.884,1314.05 835.811,1303.87 837.739,1246.79 839.666,1228.15 841.594,1248.06 843.522,1318.04 845.449,1337.4 847.377,1327.01 849.304,1324.35 
  851.232,1265.11 853.159,1297.08 855.087,1310.4 857.015,1300.87 858.942,1317.71 860.87,1319.53 862.797,1280.52 864.725,1269.06 866.652,1170.63 868.58,1289.93 
  870.508,1258.34 872.435,1274.34 874.363,1325.02 876.29,1205.33 878.218,1276.74 880.145,1229.64 882.073,1221.62 884.001,1217.15 885.928,1265.77 887.856,1237.6 
  889.783,1251.37 891.711,1224.91 893.639,1273.19 895.566,1321.5 897.494,1233.46 899.421,1264.49 901.349,1283.28 903.276,1293.97 905.204,1263.47 907.132,1306.69 
  909.059,1304.24 910.987,1301.95 912.914,1286.17 914.842,1306.79 916.769,1319.19 918.697,1343.94 920.625,1351.72 922.552,1275.47 924.48,1288.96 926.407,1327.25 
  928.335,1301.61 930.262,1248.89 932.19,1261.97 934.118,1242.61 936.045,1305.24 937.973,1237.14 939.9,1249.64 941.828,1178.62 943.755,1242.35 945.683,1168.31 
  947.611,1180.48 949.538,1158.11 951.466,1189.2 953.393,1305.33 955.321,1265.59 957.249,1274.15 959.176,1212.38 961.104,1262.72 963.031,1294.99 964.959,1234.61 
  966.886,1284.45 968.814,1258.87 970.742,1327.91 972.669,1341.79 974.597,1299.55 976.524,1348.15 978.452,1325.22 980.379,1329.2 982.307,1292.35 984.235,1277.58 
  986.162,1345.5 988.09,1275.79 990.017,1276.56 991.945,1276.66 993.872,1311.93 995.8,1203.24 997.728,1224.54 999.655,1247.09 1001.58,1291.83 1003.51,1236.56 
  1005.44,1170.74 1007.37,1224.28 1009.29,1173.09 1011.22,1188.69 1013.15,1251.28 1015.08,1216.48 1017,1228.25 1018.93,1214.23 1020.86,1260.48 1022.79,1227.81 
  1024.71,1169.7 1026.64,1311.15 1028.57,1308.93 1030.5,1299.28 1032.42,1319.92 1034.35,1280.31 1036.28,1303.1 1038.21,1302.65 1040.13,1304 1042.06,1340.12 
  1043.99,1334.92 1045.92,1339.65 1047.84,1312.82 1049.77,1272.76 1051.7,1256.42 1053.63,1289.89 1055.55,1194.3 1057.48,1262.66 1059.41,1267.03 1061.34,1261.6 
  1063.27,1207.77 1065.19,1192.02 1067.12,1175.25 1069.05,1219.76 1070.98,1142.17 1072.9,1254.04 1074.83,1232.6 1076.76,1239.57 1078.69,1211.09 1080.61,1148.76 
  1082.54,1189.37 1084.47,1233.67 1086.4,1334.06 1088.32,1242.75 1090.25,1274.83 1092.18,1273.36 1094.11,1238.79 1096.03,1237.61 1097.96,1320.76 1099.89,1317.1 
  1101.82,1283.83 1103.74,1334.94 1105.67,1254.75 1107.6,1336.31 1109.53,1295.17 1111.45,1362.82 1113.38,1302.33 1115.31,1288.93 1117.24,1294.83 1119.16,1244.71 
  1121.09,1179.21 1123.02,1151.92 1124.95,1230.21 1126.88,1267.31 1128.8,1236.74 1130.73,1191.59 1132.66,1254.95 1134.59,1208.94 1136.51,1193.92 1138.44,1119.29 
  1140.37,1153.46 1142.3,1278.63 1144.22,1216.44 1146.15,1278.67 1148.08,1197.53 1150.01,1243.14 1151.93,1265.52 1153.86,1257.19 1155.79,1220.65 1157.72,1232.87 
  1159.64,1296.6 1161.57,1274.56 1163.5,1342.96 1165.43,1264.34 1167.35,1287 1169.28,1347.11 1171.21,1235.49 1173.14,1256.48 1175.06,1264.96 1176.99,1326.18 
  1178.92,1302.1 1180.85,1229.51 1182.77,1302.54 1184.7,1263.33 1186.63,1249.86 1188.56,1205.99 1190.49,1295.11 1192.41,1302.94 1194.34,1301.2 1196.27,1259.53 
  1198.2,1158.85 1200.12,1250.86 1202.05,1145 1203.98,1240.13 1205.91,1294.86 1207.83,1189.38 1209.76,1207.8 1211.69,1232.37 1213.62,1278.03 1215.54,1241.03 
  1217.47,1246.33 1219.4,1268.99 1221.33,1287.07 1223.25,1270.73 1225.18,1265.83 1227.11,1241 1229.04,1270.72 1230.96,1282.79 1232.89,1278.19 1234.82,1318.83 
  1236.75,1329.58 1238.67,1275.87 1240.6,1285.67 1242.53,1227.21 1244.46,1262.43 1246.38,1246.78 1248.31,1263.01 1250.24,1296.84 1252.17,1234.41 1254.1,1228.22 
  1256.02,1245.65 1257.95,1223.79 1259.88,1206.95 1261.81,1212.63 1263.73,1169.58 1265.66,1211.52 1267.59,1270.86 1269.52,1268 1271.44,1274.68 1273.37,1243.92 
  1275.3,1215.08 1277.23,1145.73 1279.15,1308.39 1281.08,1240.85 1283.01,1308.03 1284.94,1291.89 1286.86,1242.56 1288.79,1316.21 1290.72,1332.41 1292.65,1292.6 
  1294.57,1287.12 1296.5,1284.48 1298.43,1324.82 1300.36,1284.17 1302.28,1284.22 1304.21,1291.97 1306.14,1286.6 1308.07,1306.86 1309.99,1254.96 1311.92,1270.62 
  1313.85,1305.37 1315.78,1289.37 1317.71,1308.03 1319.63,1298.19 1321.56,1282.31 1323.49,1215.51 1325.42,1202.81 1327.34,1240.01 1329.27,1243.58 1331.2,1211.78 
  1333.13,1296.22 1335.05,1295.09 1336.98,1156.28 1338.91,1189.34 1340.84,1344.87 1342.76,1306.56 1344.69,1213.85 1346.62,1225.49 1348.55,1269.14 1350.47,1263.02 
  1352.4,1329.27 1354.33,1288.41 1356.26,1288.92 1358.18,1319.09 1360.11,1279.03 1362.04,1300.93 1363.97,1277.81 1365.89,1300.05 1367.82,1327.66 1369.75,1307.4 
  1371.68,1310.73 1373.6,1309.08 1375.53,1340.7 1377.46,1296.67 1379.39,1251.23 1381.32,1209.8 1383.24,1292.88 1385.17,1210.38 1387.1,1227.96 1389.03,1262.94 
  1390.95,1195.01 1392.88,1237.5 1394.81,1204.9 1396.74,1265.09 1398.66,1249.22 1400.59,1232.12 1402.52,1218.73 1404.45,1192.29 1406.37,1196.06 1408.3,1225.93 
  1410.23,1280.99 1412.16,1193.37 1414.08,1255.94 1416.01,1243.48 1417.94,1319.22 1419.87,1321.79 1421.79,1314.48 1423.72,1314.46 1425.65,1339.94 1427.58,1322.2 
  1429.5,1353.06 1431.43,1356.87 1433.36,1378.83 1435.29,1270.59 1437.22,1290.17 1439.14,1350.39 1441.07,1291.2 1443,1273.74 1444.93,1261.94 1446.85,1218.76 
  1448.78,1237.56 1450.71,1259.92 1452.64,1239.78 1454.56,1263.09 1456.49,1225.23 1458.42,1294.99 1460.35,1201.2 1462.27,1209.05 1464.2,1214.95 1466.13,1168 
  1468.06,1280.79 1469.98,1214.48 1471.91,1223.15 1473.84,1249.76 1475.77,1335.34 1477.69,1273.52 1479.62,1283.35 1481.55,1275.65 1483.48,1261.99 1485.4,1308.13 
  1487.33,1238.41 1489.26,1323.76 1491.19,1319.27 1493.11,1367.43 1495.04,1278.71 1496.97,1292.13 1498.9,1335.09 1500.83,1297.58 1502.75,1298.47 1504.68,1239.12 
  1506.61,1264.38 1508.54,1219.2 1510.46,1159.43 1512.39,1186.75 1514.32,1223.9 1516.25,1281.43 1518.17,1239.55 1520.1,1179.33 1522.03,1217.49 1523.96,1258.1 
  1525.88,1180.25 1527.81,1156.5 1529.74,1175.96 1531.67,1198.77 1533.59,1194.87 1535.52,1145.65 1537.45,1308.61 1539.38,1307.65 1541.3,1299.86 1543.23,1262.19 
  1545.16,1246.04 1547.09,1265.02 1549.01,1299.41 1550.94,1318.18 1552.87,1308.91 1554.8,1368.68 1556.72,1355.99 1558.65,1290.57 1560.58,1288.79 1562.51,1338.01 
  1564.44,1296.62 1566.36,1258.71 1568.29,1211.25 1570.22,1234.35 1572.15,1297.37 1574.07,1265.72 1576,1328.8 1577.93,1206.64 1579.86,1188.78 1581.78,1228.3 
  1583.71,1211.66 1585.64,1241.72 1587.57,1178.5 1589.49,1196.18 1591.42,1214.76 1593.35,1219.72 1595.28,1246.28 1597.2,1267.31 1599.13,1214.56 1601.06,1277.92 
  1602.99,1224.06 1604.91,1252.92 1606.84,1284.7 1608.77,1270.96 1610.7,1302.35 1612.62,1303.83 1614.55,1318.48 1616.48,1323.96 1618.41,1287.52 1620.33,1300.58 
  1622.26,1264.38 1624.19,1324.84 1626.12,1326.6 1628.05,1287 1629.97,1311.21 1631.9,1295.07 1633.83,1281.42 1635.76,1251.83 1637.68,1306.44 1639.61,1349.94 
  1641.54,1218.35 1643.47,1212 1645.39,1177 1647.32,1246.77 1649.25,1254.15 1651.18,1225.32 1653.1,1219.89 1655.03,1221.75 1656.96,1225.86 1658.89,1182.56 
  1660.81,1223.56 1662.74,1199.69 1664.67,1241.04 1666.6,1258.86 1668.52,1243.37 1670.45,1259.34 1672.38,1263.96 1674.31,1332.07 1676.23,1339.44 1678.16,1339.43 
  1680.09,1293.49 1682.02,1318.88 1683.94,1286.96 1685.87,1245.66 1687.8,1368.9 1689.73,1325.34 1691.66,1325.86 1693.58,1251.35 1695.51,1318.51 1697.44,1278.85 
  1699.37,1290.48 1701.29,1284.98 1703.22,1269.24 1705.15,1215.91 1707.08,1238.92 1709,1244.07 1710.93,1197.59 1712.86,1205.88 1714.79,1235.15 1716.71,1152.26 
  1718.64,1224.4 1720.57,1240.28 1722.5,1193.03 1724.42,1204.81 1726.35,1320.19 1728.28,1268.24 1730.21,1230.79 1732.13,1242.83 1734.06,1271.61 1735.99,1323.87 
  1737.92,1334.74 1739.84,1283.78 1741.77,1282.23 1743.7,1279.88 1745.63,1295.66 1747.55,1331.6 1749.48,1247.51 1751.41,1285.99 1753.34,1359.56 1755.27,1363.07 
  1757.19,1289.52 1759.12,1275.67 1761.05,1216.68 1762.98,1256.22 1764.9,1216.9 1766.83,1259.5 1768.76,1354.71 1770.69,1259.98 1772.61,1307.06 1774.54,1198.15 
  1776.47,1116.85 1778.4,1265.2 1780.32,1190.13 1782.25,1252.52 1784.18,1315.14 1786.11,1174.16 1788.03,1182.17 1789.96,1228.81 1791.89,1180.7 1793.82,1244.13 
  1795.74,1266.82 1797.67,1241.25 1799.6,1281.49 1801.53,1248.68 1803.45,1222.29 1805.38,1376.15 1807.31,1360.01 1809.24,1340.02 1811.16,1314.49 1813.09,1355.99 
  1815.02,1327.9 1816.95,1313.77 1818.88,1356.8 1820.8,1270.82 1822.73,1246.57 1824.66,1246.31 1826.59,1269.11 1828.51,1285.31 1830.44,1288.36 1832.37,1281.88 
  1834.3,1251.66 1836.22,1183.32 1838.15,1229.75 1840.08,1235.96 1842.01,1192.93 1843.93,1150.06 1845.86,1151.23 1847.79,1217.81 1849.72,1185.54 1851.64,1228.91 
  1853.57,1206.8 1855.5,1238.82 1857.43,1217.39 1859.35,1296.29 1861.28,1305.03 1863.21,1280.29 1865.14,1273.31 1867.06,1271.38 1868.99,1298.84 1870.92,1368.7 
  1872.85,1328.65 1874.77,1316.55 1876.7,1322.3 1878.63,1343.63 1880.56,1351.77 1882.49,1309.56 1884.41,1264.22 1886.34,1261 1888.27,1248.43 1890.2,1254.7 
  1892.12,1344.26 1894.05,1235.85 1895.98,1309.67 1897.91,1305.54 1899.83,1168.59 1901.76,1188.66 1903.69,1260.72 1905.62,1194.11 1907.54,1290.94 1909.47,1306.78 
  1911.4,1247.21 1913.33,1194.78 1915.25,1182.16 1917.18,1295.25 1919.11,1276.49 1921.04,1179.39 1922.96,1229.54 1924.89,1205.58 1926.82,1240.81 1928.75,1307.93 
  1930.67,1341.51 1932.6,1267.76 1934.53,1279.92 1936.46,1308.22 1938.38,1216.36 1940.31,1268.22 1942.24,1338.72 1944.17,1357.39 1946.1,1381.29 1948.02,1290.91 
  1949.95,1266.91 1951.88,1253.4 1953.81,1290.61 1955.73,1248.06 1957.66,1189.23 1959.59,1261.29 1961.52,1287.5 1963.44,1287.82 1965.37,1229.5 1967.3,1163.29 
  1969.23,1190.12 1971.15,1276.25 1973.08,1245.21 1975.01,1219.67 1976.94,1128.45 1978.86,1188.62 1980.79,1126.7 1982.72,1244.61 1984.65,1250.39 1986.57,1229.07 
  1988.5,1230.14 1990.43,1194.68 1992.36,1219.62 1994.28,1322.16 1996.21,1281.11 1998.14,1342.09 2000.07,1297.81 2001.99,1327.08 2003.92,1335.9 2005.85,1324.9 
  2007.78,1354.06 2009.71,1330.65 2011.63,1305.57 2013.56,1284.99 2015.49,1282.66 2017.42,1223.86 2019.34,1268.45 2021.27,1340.95 2023.2,1282.82 2025.13,1252.28 
  2027.05,1195.42 2028.98,1195.26 2030.91,1158.26 2032.84,1189.1 2034.76,1301.32 2036.69,1201.95 2038.62,1212.94 2040.55,1194.7 2042.47,1191.27 2044.4,1244.8 
  2046.33,1229.69 2048.26,1201.35 2050.18,1245.19 2052.11,1214.85 2054.04,1276.14 2055.97,1252.6 2057.89,1243.64 2059.82,1323.7 2061.75,1316.48 2063.68,1306.24 
  2065.6,1304.36 2067.53,1317.46 2069.46,1347.34 2071.39,1335.41 2073.32,1362.64 2075.24,1284.64 2077.17,1276.22 2079.1,1317.39 2081.03,1279.79 2082.95,1322.4 
  2084.88,1321.6 2086.81,1296.69 2088.74,1266.2 2090.66,1258.76 2092.59,1140.66 2094.52,1182.55 2096.45,1205.43 2098.37,1219.07 2100.3,1205.16 2102.23,1218.66 
  2104.16,1248.2 2106.08,1284.02 2108.01,1296 2109.94,1172.05 2111.87,1158.7 2113.79,1312.01 2115.72,1235.79 2117.65,1213.55 2119.58,1315.96 2121.5,1390.11 
  2123.43,1281.91 2125.36,1307.87 2127.29,1347 2129.21,1286 2131.14,1258.59 2133.07,1295.8 2135,1311.71 2136.93,1235.81 2138.85,1270.8 2140.78,1258.38 
  2142.71,1318.66 2144.64,1285.91 2146.56,1352.27 2148.49,1237.6 2150.42,1290.6 2152.35,1293.33 2154.27,1264.75 2156.2,1208.96 2158.13,1276.98 2160.06,1175.67 
  2161.98,1178.7 2163.91,1157.83 2165.84,1195.49 2167.77,1165.83 2169.69,1140.96 2171.62,1220.99 2173.55,1252.48 2175.48,1179 2177.4,1250.74 2179.33,1263.1 
  2181.26,1182.96 2183.19,1251.01 2185.11,1274.75 2187.04,1306.85 2188.97,1291.2 2190.9,1293.32 2192.82,1320.19 2194.75,1284.62 2196.68,1310.3 2198.61,1266.74 
  2200.54,1292.3 2202.46,1328.22 2204.39,1310.77 2206.32,1262.36 2208.25,1239.79 2210.17,1266 2212.1,1249.5 2214.03,1250.14 2215.96,1281.96 2217.88,1279.42 
  2219.81,1203.26 2221.74,1188.6 2223.67,1165.33 2225.59,1208.3 2227.52,1237.45 2229.45,1276.5 2231.38,1200.81 2233.3,1112.87 2235.23,1116.86 2237.16,1181.57 
  2239.09,1247.91 2241.01,1293.35 2242.94,1230.71 2244.87,1213.07 2246.8,1177.16 2248.72,1190.98 2250.65,1268.07 2252.58,1263.33 2254.51,1299.48 2256.43,1288 
  2258.36,1300.14 2260.29,1306.43 2262.22,1292.9 2264.15,1308.57 2266.07,1285.37 2268,1205.26 2269.93,1324.2 2271.86,1247.45 2273.78,1234.69 2275.71,1309.75 
  2277.64,1289.9 2279.57,1275.43 2281.49,1228.33 2283.42,1198.83 2285.35,1191.36 2287.28,1241.04 2289.2,1170.49 2291.13,1137.82 2293.06,1062.07 2294.99,1192.3 
  
  "/>
</svg>
