<?xml version="1.0" encoding="utf-8"?>
<svg xmlns="http://www.w3.org/2000/svg" xmlns:xlink="http://www.w3.org/1999/xlink" width="600" height="400" viewBox="0 0 2400 1600">
<defs>
  <clipPath id="clip590">
    <rect x="0" y="0" width="2400" height="1600"/>
  </clipPath>
</defs>
<path clip-path="url(#clip590)" d="
M0 1600 L2400 1600 L2400 0 L0 0  Z
  " fill="#ffffff" fill-rule="evenodd" fill-opacity="1"/>
<defs>
  <clipPath id="clip591">
    <rect x="480" y="0" width="1681" height="1600"/>
  </clipPath>
</defs>
<defs>
  <clipPath id="clip592">
    <rect x="220" y="123" width="2133" height="1301"/>
  </clipPath>
</defs>
<path clip-path="url(#clip590)" d="
M296.499 1423.18 L2352.76 1423.18 L2352.76 123.472 L296.499 123.472  Z
  " fill="#ffffff" fill-rule="evenodd" fill-opacity="1"/>
<defs>
  <clipPath id="clip593">
    <rect x="296" y="123" width="2057" height="1301"/>
  </clipPath>
</defs>
<polyline clip-path="url(#clip593)" style="stroke:#000000; stroke-width:2; stroke-opacity:0.1; fill:none" points="
  354.695,1423.18 354.695,123.472 
  "/>
<polyline clip-path="url(#clip593)" style="stroke:#000000; stroke-width:2; stroke-opacity:0.1; fill:none" points="
  743.061,1423.18 743.061,123.472 
  "/>
<polyline clip-path="url(#clip593)" style="stroke:#000000; stroke-width:2; stroke-opacity:0.1; fill:none" points="
  1131.43,1423.18 1131.43,123.472 
  "/>
<polyline clip-path="url(#clip593)" style="stroke:#000000; stroke-width:2; stroke-opacity:0.1; fill:none" points="
  1519.79,1423.18 1519.79,123.472 
  "/>
<polyline clip-path="url(#clip593)" style="stroke:#000000; stroke-width:2; stroke-opacity:0.1; fill:none" points="
  1908.16,1423.18 1908.16,123.472 
  "/>
<polyline clip-path="url(#clip593)" style="stroke:#000000; stroke-width:2; stroke-opacity:0.1; fill:none" points="
  2296.52,1423.18 2296.52,123.472 
  "/>
<polyline clip-path="url(#clip590)" style="stroke:#000000; stroke-width:4; stroke-opacity:1; fill:none" points="
  296.499,1423.18 2352.76,1423.18 
  "/>
<polyline clip-path="url(#clip590)" style="stroke:#000000; stroke-width:4; stroke-opacity:1; fill:none" points="
  354.695,1423.18 354.695,1407.58 
  "/>
<polyline clip-path="url(#clip590)" style="stroke:#000000; stroke-width:4; stroke-opacity:1; fill:none" points="
  743.061,1423.18 743.061,1407.58 
  "/>
<polyline clip-path="url(#clip590)" style="stroke:#000000; stroke-width:4; stroke-opacity:1; fill:none" points="
  1131.43,1423.18 1131.43,1407.58 
  "/>
<polyline clip-path="url(#clip590)" style="stroke:#000000; stroke-width:4; stroke-opacity:1; fill:none" points="
  1519.79,1423.18 1519.79,1407.58 
  "/>
<polyline clip-path="url(#clip590)" style="stroke:#000000; stroke-width:4; stroke-opacity:1; fill:none" points="
  1908.16,1423.18 1908.16,1407.58 
  "/>
<polyline clip-path="url(#clip590)" style="stroke:#000000; stroke-width:4; stroke-opacity:1; fill:none" points="
  2296.52,1423.18 2296.52,1407.58 
  "/>
<path clip-path="url(#clip590)" d="M 0 0 M354.695 1452.37 Q351.084 1452.37 349.255 1455.94 Q347.45 1459.48 347.45 1466.61 Q347.45 1473.71 349.255 1477.28 Q351.084 1480.82 354.695 1480.82 Q358.329 1480.82 360.135 1477.28 Q361.963 1473.71 361.963 1466.61 Q361.963 1459.48 360.135 1455.94 Q358.329 1452.37 354.695 1452.37 M354.695 1448.67 Q360.505 1448.67 363.561 1453.27 Q366.639 1457.86 366.639 1466.61 Q366.639 1475.33 363.561 1479.94 Q360.505 1484.52 354.695 1484.52 Q348.885 1484.52 345.806 1479.94 Q342.751 1475.33 342.751 1466.61 Q342.751 1457.86 345.806 1453.27 Q348.885 1448.67 354.695 1448.67 Z" fill="#000000" fill-rule="evenodd" fill-opacity="1" /><path clip-path="url(#clip590)" d="M 0 0 M717.748 1479.92 L725.387 1479.92 L725.387 1453.55 L717.077 1455.22 L717.077 1450.96 L725.341 1449.29 L730.017 1449.29 L730.017 1479.92 L737.656 1479.92 L737.656 1483.85 L717.748 1483.85 L717.748 1479.92 Z" fill="#000000" fill-rule="evenodd" fill-opacity="1" /><path clip-path="url(#clip590)" d="M 0 0 M757.1 1452.37 Q753.489 1452.37 751.66 1455.94 Q749.855 1459.48 749.855 1466.61 Q749.855 1473.71 751.66 1477.28 Q753.489 1480.82 757.1 1480.82 Q760.734 1480.82 762.54 1477.28 Q764.368 1473.71 764.368 1466.61 Q764.368 1459.48 762.54 1455.94 Q760.734 1452.37 757.1 1452.37 M757.1 1448.67 Q762.91 1448.67 765.966 1453.27 Q769.044 1457.86 769.044 1466.61 Q769.044 1475.33 765.966 1479.94 Q762.91 1484.52 757.1 1484.52 Q751.29 1484.52 748.211 1479.94 Q745.155 1475.33 745.155 1466.61 Q745.155 1457.86 748.211 1453.27 Q751.29 1448.67 757.1 1448.67 Z" fill="#000000" fill-rule="evenodd" fill-opacity="1" /><path clip-path="url(#clip590)" d="M 0 0 M1110.2 1479.92 L1126.52 1479.92 L1126.52 1483.85 L1104.57 1483.85 L1104.57 1479.92 Q1107.24 1477.16 1111.82 1472.53 Q1116.43 1467.88 1117.61 1466.54 Q1119.85 1464.01 1120.73 1462.28 Q1121.63 1460.52 1121.63 1458.83 Q1121.63 1456.07 1119.69 1454.34 Q1117.77 1452.6 1114.67 1452.6 Q1112.47 1452.6 1110.01 1453.37 Q1107.58 1454.13 1104.81 1455.68 L1104.81 1450.96 Q1107.63 1449.82 1110.08 1449.25 Q1112.54 1448.67 1114.57 1448.67 Q1119.94 1448.67 1123.14 1451.35 Q1126.33 1454.04 1126.33 1458.53 Q1126.33 1460.66 1125.52 1462.58 Q1124.74 1464.48 1122.63 1467.07 Q1122.05 1467.74 1118.95 1470.96 Q1115.85 1474.15 1110.2 1479.92 Z" fill="#000000" fill-rule="evenodd" fill-opacity="1" /><path clip-path="url(#clip590)" d="M 0 0 M1146.33 1452.37 Q1142.72 1452.37 1140.89 1455.94 Q1139.09 1459.48 1139.09 1466.61 Q1139.09 1473.71 1140.89 1477.28 Q1142.72 1480.82 1146.33 1480.82 Q1149.97 1480.82 1151.77 1477.28 Q1153.6 1473.71 1153.6 1466.61 Q1153.6 1459.48 1151.77 1455.94 Q1149.97 1452.37 1146.33 1452.37 M1146.33 1448.67 Q1152.14 1448.67 1155.2 1453.27 Q1158.28 1457.86 1158.28 1466.61 Q1158.28 1475.33 1155.2 1479.94 Q1152.14 1484.52 1146.33 1484.52 Q1140.52 1484.52 1137.44 1479.94 Q1134.39 1475.33 1134.39 1466.61 Q1134.39 1457.86 1137.44 1453.27 Q1140.52 1448.67 1146.33 1448.67 Z" fill="#000000" fill-rule="evenodd" fill-opacity="1" /><path clip-path="url(#clip590)" d="M 0 0 M1508.63 1465.22 Q1511.99 1465.94 1513.87 1468.2 Q1515.76 1470.47 1515.76 1473.81 Q1515.76 1478.92 1512.25 1481.72 Q1508.73 1484.52 1502.25 1484.52 Q1500.07 1484.52 1497.76 1484.08 Q1495.46 1483.67 1493.01 1482.81 L1493.01 1478.3 Q1494.95 1479.43 1497.27 1480.01 Q1499.58 1480.59 1502.11 1480.59 Q1506.51 1480.59 1508.8 1478.85 Q1511.11 1477.12 1511.11 1473.81 Q1511.11 1470.75 1508.96 1469.04 Q1506.83 1467.3 1503.01 1467.3 L1498.98 1467.3 L1498.98 1463.46 L1503.19 1463.46 Q1506.64 1463.46 1508.47 1462.09 Q1510.3 1460.7 1510.3 1458.11 Q1510.3 1455.45 1508.4 1454.04 Q1506.53 1452.6 1503.01 1452.6 Q1501.09 1452.6 1498.89 1453.02 Q1496.69 1453.44 1494.05 1454.31 L1494.05 1450.15 Q1496.71 1449.41 1499.03 1449.04 Q1501.37 1448.67 1503.43 1448.67 Q1508.75 1448.67 1511.85 1451.1 Q1514.95 1453.5 1514.95 1457.63 Q1514.95 1460.5 1513.31 1462.49 Q1511.67 1464.45 1508.63 1465.22 Z" fill="#000000" fill-rule="evenodd" fill-opacity="1" /><path clip-path="url(#clip590)" d="M 0 0 M1534.63 1452.37 Q1531.02 1452.37 1529.19 1455.94 Q1527.38 1459.48 1527.38 1466.61 Q1527.38 1473.71 1529.19 1477.28 Q1531.02 1480.82 1534.63 1480.82 Q1538.26 1480.82 1540.07 1477.28 Q1541.9 1473.71 1541.9 1466.61 Q1541.9 1459.48 1540.07 1455.94 Q1538.26 1452.37 1534.63 1452.37 M1534.63 1448.67 Q1540.44 1448.67 1543.5 1453.27 Q1546.57 1457.86 1546.57 1466.61 Q1546.57 1475.33 1543.5 1479.94 Q1540.44 1484.52 1534.63 1484.52 Q1528.82 1484.52 1525.74 1479.94 Q1522.69 1475.33 1522.69 1466.61 Q1522.69 1457.86 1525.74 1453.27 Q1528.82 1448.67 1534.63 1448.67 Z" fill="#000000" fill-rule="evenodd" fill-opacity="1" /><path clip-path="url(#clip590)" d="M 0 0 M1896.33 1453.37 L1884.52 1471.81 L1896.33 1471.81 L1896.33 1453.37 M1895.1 1449.29 L1900.98 1449.29 L1900.98 1471.81 L1905.91 1471.81 L1905.91 1475.7 L1900.98 1475.7 L1900.98 1483.85 L1896.33 1483.85 L1896.33 1475.7 L1880.73 1475.7 L1880.73 1471.19 L1895.1 1449.29 Z" fill="#000000" fill-rule="evenodd" fill-opacity="1" /><path clip-path="url(#clip590)" d="M 0 0 M1923.64 1452.37 Q1920.03 1452.37 1918.2 1455.94 Q1916.4 1459.48 1916.4 1466.61 Q1916.4 1473.71 1918.2 1477.28 Q1920.03 1480.82 1923.64 1480.82 Q1927.28 1480.82 1929.08 1477.28 Q1930.91 1473.71 1930.91 1466.61 Q1930.91 1459.48 1929.08 1455.94 Q1927.28 1452.37 1923.64 1452.37 M1923.64 1448.67 Q1929.45 1448.67 1932.51 1453.27 Q1935.59 1457.86 1935.59 1466.61 Q1935.59 1475.33 1932.51 1479.94 Q1929.45 1484.52 1923.64 1484.52 Q1917.83 1484.52 1914.75 1479.94 Q1911.7 1475.33 1911.7 1466.61 Q1911.7 1457.86 1914.75 1453.27 Q1917.83 1448.67 1923.64 1448.67 Z" fill="#000000" fill-rule="evenodd" fill-opacity="1" /><path clip-path="url(#clip590)" d="M 0 0 M2271.22 1449.29 L2289.58 1449.29 L2289.58 1453.23 L2275.5 1453.23 L2275.5 1461.7 Q2276.52 1461.35 2277.54 1461.19 Q2278.56 1461 2279.58 1461 Q2285.37 1461 2288.75 1464.18 Q2292.13 1467.35 2292.13 1472.76 Q2292.13 1478.34 2288.65 1481.44 Q2285.18 1484.52 2278.86 1484.52 Q2276.69 1484.52 2274.42 1484.15 Q2272.17 1483.78 2269.76 1483.04 L2269.76 1478.34 Q2271.85 1479.48 2274.07 1480.03 Q2276.29 1480.59 2278.77 1480.59 Q2282.77 1480.59 2285.11 1478.48 Q2287.45 1476.38 2287.45 1472.76 Q2287.45 1469.15 2285.11 1467.05 Q2282.77 1464.94 2278.77 1464.94 Q2276.89 1464.94 2275.02 1465.36 Q2273.17 1465.77 2271.22 1466.65 L2271.22 1449.29 Z" fill="#000000" fill-rule="evenodd" fill-opacity="1" /><path clip-path="url(#clip590)" d="M 0 0 M2311.34 1452.37 Q2307.73 1452.37 2305.9 1455.94 Q2304.09 1459.48 2304.09 1466.61 Q2304.09 1473.71 2305.9 1477.28 Q2307.73 1480.82 2311.34 1480.82 Q2314.97 1480.82 2316.78 1477.28 Q2318.61 1473.71 2318.61 1466.61 Q2318.61 1459.48 2316.78 1455.94 Q2314.97 1452.37 2311.34 1452.37 M2311.34 1448.67 Q2317.15 1448.67 2320.2 1453.27 Q2323.28 1457.86 2323.28 1466.61 Q2323.28 1475.33 2320.2 1479.94 Q2317.15 1484.52 2311.34 1484.52 Q2305.53 1484.52 2302.45 1479.94 Q2299.39 1475.33 2299.39 1466.61 Q2299.39 1457.86 2302.45 1453.27 Q2305.53 1448.67 2311.34 1448.67 Z" fill="#000000" fill-rule="evenodd" fill-opacity="1" /><path clip-path="url(#clip590)" d="M 0 0 M1084.74 1518.52 L1084.74 1523.39 L1079.13 1523.39 Q1075.98 1523.39 1074.74 1524.66 Q1073.53 1525.93 1073.53 1529.24 L1073.53 1532.4 L1083.18 1532.4 L1083.18 1536.95 L1073.53 1536.95 L1073.53 1568.04 L1067.64 1568.04 L1067.64 1536.95 L1062.04 1536.95 L1062.04 1532.4 L1067.64 1532.4 L1067.64 1529.91 Q1067.64 1523.96 1070.41 1521.26 Q1073.18 1518.52 1079.2 1518.52 L1084.74 1518.52 Z" fill="#000000" fill-rule="evenodd" fill-opacity="1" /><path clip-path="url(#clip590)" d="M 0 0 M1110.29 1537.87 Q1109.31 1537.3 1108.13 1537.04 Q1106.98 1536.76 1105.58 1536.76 Q1100.62 1536.76 1097.94 1540 Q1095.3 1543.22 1095.3 1549.27 L1095.3 1568.04 L1089.41 1568.04 L1089.41 1532.4 L1095.3 1532.4 L1095.3 1537.93 Q1097.15 1534.69 1100.11 1533.13 Q1103.07 1531.54 1107.3 1531.54 Q1107.91 1531.54 1108.64 1531.63 Q1109.37 1531.7 1110.26 1531.85 L1110.29 1537.87 Z" fill="#000000" fill-rule="evenodd" fill-opacity="1" /><path clip-path="url(#clip590)" d="M 0 0 M1145.5 1548.76 L1145.5 1551.62 L1118.57 1551.62 Q1118.95 1557.67 1122.2 1560.85 Q1125.48 1564 1131.3 1564 Q1134.67 1564 1137.83 1563.17 Q1141.01 1562.35 1144.13 1560.69 L1144.13 1566.23 Q1140.98 1567.57 1137.67 1568.27 Q1134.36 1568.97 1130.95 1568.97 Q1122.42 1568.97 1117.42 1564 Q1112.46 1559.04 1112.46 1550.57 Q1112.46 1541.82 1117.17 1536.69 Q1121.91 1531.54 1129.93 1531.54 Q1137.13 1531.54 1141.3 1536.18 Q1145.5 1540.8 1145.5 1548.76 M1139.64 1547.04 Q1139.58 1542.23 1136.93 1539.37 Q1134.32 1536.5 1130 1536.5 Q1125.09 1536.5 1122.13 1539.27 Q1119.21 1542.04 1118.76 1547.07 L1139.64 1547.04 Z" fill="#000000" fill-rule="evenodd" fill-opacity="1" /><path clip-path="url(#clip590)" d="M 0 0 M1158.61 1550.25 Q1158.61 1556.71 1161.25 1560.4 Q1163.93 1564.07 1168.57 1564.07 Q1173.22 1564.07 1175.89 1560.4 Q1178.57 1556.71 1178.57 1550.25 Q1178.57 1543.79 1175.89 1540.13 Q1173.22 1536.44 1168.57 1536.44 Q1163.93 1536.44 1161.25 1540.13 Q1158.61 1543.79 1158.61 1550.25 M1178.57 1562.7 Q1176.72 1565.88 1173.89 1567.44 Q1171.09 1568.97 1167.14 1568.97 Q1160.68 1568.97 1156.6 1563.81 Q1152.56 1558.65 1152.56 1550.25 Q1152.56 1541.85 1156.6 1536.69 Q1160.68 1531.54 1167.14 1531.54 Q1171.09 1531.54 1173.89 1533.1 Q1176.72 1534.62 1178.57 1537.81 L1178.57 1532.4 L1184.42 1532.4 L1184.42 1581.6 L1178.57 1581.6 L1178.57 1562.7 Z" fill="#000000" fill-rule="evenodd" fill-opacity="1" /><path clip-path="url(#clip590)" d="M 0 0 M1195.88 1553.98 L1195.88 1532.4 L1201.74 1532.4 L1201.74 1553.75 Q1201.74 1558.81 1203.71 1561.36 Q1205.68 1563.87 1209.63 1563.87 Q1214.37 1563.87 1217.11 1560.85 Q1219.88 1557.83 1219.88 1552.61 L1219.88 1532.4 L1225.74 1532.4 L1225.74 1568.04 L1219.88 1568.04 L1219.88 1562.57 Q1217.75 1565.82 1214.91 1567.41 Q1212.11 1568.97 1208.39 1568.97 Q1202.25 1568.97 1199.06 1565.15 Q1195.88 1561.33 1195.88 1553.98 M1210.62 1531.54 L1210.62 1531.54 Z" fill="#000000" fill-rule="evenodd" fill-opacity="1" /><path clip-path="url(#clip590)" d="M 0 0 M1268.29 1548.76 L1268.29 1551.62 L1241.36 1551.62 Q1241.75 1557.67 1244.99 1560.85 Q1248.27 1564 1254.1 1564 Q1257.47 1564 1260.62 1563.17 Q1263.8 1562.35 1266.92 1560.69 L1266.92 1566.23 Q1263.77 1567.57 1260.46 1568.27 Q1257.15 1568.97 1253.75 1568.97 Q1245.22 1568.97 1240.22 1564 Q1235.25 1559.04 1235.25 1550.57 Q1235.25 1541.82 1239.96 1536.69 Q1244.71 1531.54 1252.73 1531.54 Q1259.92 1531.54 1264.09 1536.18 Q1268.29 1540.8 1268.29 1548.76 M1262.43 1547.04 Q1262.37 1542.23 1259.73 1539.37 Q1257.12 1536.5 1252.79 1536.5 Q1247.89 1536.5 1244.93 1539.27 Q1242 1542.04 1241.55 1547.07 L1262.43 1547.04 Z" fill="#000000" fill-rule="evenodd" fill-opacity="1" /><path clip-path="url(#clip590)" d="M 0 0 M1307.54 1546.53 L1307.54 1568.04 L1301.68 1568.04 L1301.68 1546.72 Q1301.68 1541.66 1299.71 1539.14 Q1297.73 1536.63 1293.79 1536.63 Q1289.04 1536.63 1286.31 1539.65 Q1283.57 1542.68 1283.57 1547.9 L1283.57 1568.04 L1277.68 1568.04 L1277.68 1532.4 L1283.57 1532.4 L1283.57 1537.93 Q1285.67 1534.72 1288.5 1533.13 Q1291.37 1531.54 1295.09 1531.54 Q1301.23 1531.54 1304.38 1535.36 Q1307.54 1539.14 1307.54 1546.53 Z" fill="#000000" fill-rule="evenodd" fill-opacity="1" /><path clip-path="url(#clip590)" d="M 0 0 M1344.87 1533.76 L1344.87 1539.24 Q1342.39 1537.87 1339.87 1537.2 Q1337.39 1536.5 1334.84 1536.5 Q1329.15 1536.5 1326 1540.13 Q1322.85 1543.73 1322.85 1550.25 Q1322.85 1556.78 1326 1560.4 Q1329.15 1564 1334.84 1564 Q1337.39 1564 1339.87 1563.33 Q1342.39 1562.63 1344.87 1561.26 L1344.87 1566.68 Q1342.42 1567.82 1339.78 1568.39 Q1337.17 1568.97 1334.21 1568.97 Q1326.16 1568.97 1321.41 1563.91 Q1316.67 1558.85 1316.67 1550.25 Q1316.67 1541.53 1321.44 1536.53 Q1326.25 1531.54 1334.59 1531.54 Q1337.3 1531.54 1339.87 1532.11 Q1342.45 1532.65 1344.87 1533.76 Z" fill="#000000" fill-rule="evenodd" fill-opacity="1" /><path clip-path="url(#clip590)" d="M 0 0 M1369.89 1571.35 Q1367.4 1577.72 1365.05 1579.66 Q1362.69 1581.6 1358.75 1581.6 L1354.07 1581.6 L1354.07 1576.7 L1357.51 1576.7 Q1359.93 1576.7 1361.26 1575.56 Q1362.6 1574.41 1364.22 1570.14 L1365.27 1567.47 L1350.85 1532.4 L1357.06 1532.4 L1368.2 1560.28 L1379.34 1532.4 L1385.55 1532.4 L1369.89 1571.35 Z" fill="#000000" fill-rule="evenodd" fill-opacity="1" /><path clip-path="url(#clip590)" d="M 0 0 M1428.42 1518.58 Q1424.16 1525.9 1422.09 1533.06 Q1420.02 1540.23 1420.02 1547.58 Q1420.02 1554.93 1422.09 1562.16 Q1424.19 1569.35 1428.42 1576.64 L1423.33 1576.64 Q1418.55 1569.16 1416.17 1561.93 Q1413.81 1554.71 1413.81 1547.58 Q1413.81 1540.48 1416.17 1533.29 Q1418.52 1526.09 1423.33 1518.58 L1428.42 1518.58 Z" fill="#000000" fill-rule="evenodd" fill-opacity="1" /><path clip-path="url(#clip590)" d="M 0 0 M1472.44 1561.26 L1472.44 1548.5 L1461.94 1548.5 L1461.94 1543.22 L1478.8 1543.22 L1478.8 1563.62 Q1475.08 1566.26 1470.59 1567.63 Q1466.11 1568.97 1461.01 1568.97 Q1449.87 1568.97 1443.57 1562.47 Q1437.3 1555.95 1437.3 1544.33 Q1437.3 1532.68 1443.57 1526.19 Q1449.87 1519.66 1461.01 1519.66 Q1465.66 1519.66 1469.83 1520.81 Q1474.03 1521.96 1477.56 1524.18 L1477.56 1531.03 Q1474 1528 1469.99 1526.48 Q1465.98 1524.95 1461.55 1524.95 Q1452.83 1524.95 1448.44 1529.82 Q1444.08 1534.69 1444.08 1544.33 Q1444.08 1553.94 1448.44 1558.81 Q1452.83 1563.68 1461.55 1563.68 Q1464.96 1563.68 1467.63 1563.11 Q1470.31 1562.51 1472.44 1561.26 Z" fill="#000000" fill-rule="evenodd" fill-opacity="1" /><path clip-path="url(#clip590)" d="M 0 0 M1490.55 1520.52 L1496.98 1520.52 L1496.98 1540 L1520.34 1540 L1520.34 1520.52 L1526.77 1520.52 L1526.77 1568.04 L1520.34 1568.04 L1520.34 1545.41 L1496.98 1545.41 L1496.98 1568.04 L1490.55 1568.04 L1490.55 1520.52 Z" fill="#000000" fill-rule="evenodd" fill-opacity="1" /><path clip-path="url(#clip590)" d="M 0 0 M1536.76 1532.4 L1564.58 1532.4 L1564.58 1537.74 L1542.56 1563.37 L1564.58 1563.37 L1564.58 1568.04 L1535.97 1568.04 L1535.97 1562.7 L1557.99 1537.07 L1536.76 1537.07 L1536.76 1532.4 Z" fill="#000000" fill-rule="evenodd" fill-opacity="1" /><path clip-path="url(#clip590)" d="M 0 0 M1572.6 1518.58 L1577.7 1518.58 Q1582.47 1526.09 1584.83 1533.29 Q1587.21 1540.48 1587.21 1547.58 Q1587.21 1554.71 1584.83 1561.93 Q1582.47 1569.16 1577.7 1576.64 L1572.6 1576.64 Q1576.84 1569.35 1578.91 1562.16 Q1581.01 1554.93 1581.01 1547.58 Q1581.01 1540.23 1578.91 1533.06 Q1576.84 1525.9 1572.6 1518.58 Z" fill="#000000" fill-rule="evenodd" fill-opacity="1" /><polyline clip-path="url(#clip593)" style="stroke:#000000; stroke-width:2; stroke-opacity:0.1; fill:none" points="
  296.499,1386.4 2352.76,1386.4 
  "/>
<polyline clip-path="url(#clip593)" style="stroke:#000000; stroke-width:2; stroke-opacity:0.1; fill:none" points="
  296.499,1001.06 2352.76,1001.06 
  "/>
<polyline clip-path="url(#clip593)" style="stroke:#000000; stroke-width:2; stroke-opacity:0.1; fill:none" points="
  296.499,615.716 2352.76,615.716 
  "/>
<polyline clip-path="url(#clip593)" style="stroke:#000000; stroke-width:2; stroke-opacity:0.1; fill:none" points="
  296.499,230.376 2352.76,230.376 
  "/>
<polyline clip-path="url(#clip590)" style="stroke:#000000; stroke-width:4; stroke-opacity:1; fill:none" points="
  296.499,1423.18 296.499,123.472 
  "/>
<polyline clip-path="url(#clip590)" style="stroke:#000000; stroke-width:4; stroke-opacity:1; fill:none" points="
  296.499,1386.4 321.174,1386.4 
  "/>
<polyline clip-path="url(#clip590)" style="stroke:#000000; stroke-width:4; stroke-opacity:1; fill:none" points="
  296.499,1001.06 321.174,1001.06 
  "/>
<polyline clip-path="url(#clip590)" style="stroke:#000000; stroke-width:4; stroke-opacity:1; fill:none" points="
  296.499,615.716 321.174,615.716 
  "/>
<polyline clip-path="url(#clip590)" style="stroke:#000000; stroke-width:4; stroke-opacity:1; fill:none" points="
  296.499,230.376 321.174,230.376 
  "/>
<path clip-path="url(#clip590)" d="M 0 0 M248.555 1372.19 Q244.943 1372.19 243.115 1375.76 Q241.309 1379.3 241.309 1386.43 Q241.309 1393.54 243.115 1397.1 Q244.943 1400.64 248.555 1400.64 Q252.189 1400.64 253.994 1397.1 Q255.823 1393.54 255.823 1386.43 Q255.823 1379.3 253.994 1375.76 Q252.189 1372.19 248.555 1372.19 M248.555 1368.49 Q254.365 1368.49 257.42 1373.1 Q260.499 1377.68 260.499 1386.43 Q260.499 1395.16 257.42 1399.76 Q254.365 1404.35 248.555 1404.35 Q242.744 1404.35 239.666 1399.76 Q236.61 1395.16 236.61 1386.43 Q236.61 1377.68 239.666 1373.1 Q242.744 1368.49 248.555 1368.49 Z" fill="#000000" fill-rule="evenodd" fill-opacity="1" /><path clip-path="url(#clip590)" d="M 0 0 M179.041 1014.4 L186.68 1014.4 L186.68 988.035 L178.37 989.702 L178.37 985.443 L186.634 983.776 L191.309 983.776 L191.309 1014.4 L198.948 1014.4 L198.948 1018.34 L179.041 1018.34 L179.041 1014.4 Z" fill="#000000" fill-rule="evenodd" fill-opacity="1" /><path clip-path="url(#clip590)" d="M 0 0 M218.393 986.855 Q214.782 986.855 212.953 990.419 Q211.147 993.961 211.147 1001.09 Q211.147 1008.2 212.953 1011.76 Q214.782 1015.3 218.393 1015.3 Q222.027 1015.3 223.832 1011.76 Q225.661 1008.2 225.661 1001.09 Q225.661 993.961 223.832 990.419 Q222.027 986.855 218.393 986.855 M218.393 983.151 Q224.203 983.151 227.258 987.757 Q230.337 992.341 230.337 1001.09 Q230.337 1009.82 227.258 1014.42 Q224.203 1019.01 218.393 1019.01 Q212.583 1019.01 209.504 1014.42 Q206.448 1009.82 206.448 1001.09 Q206.448 992.341 209.504 987.757 Q212.583 983.151 218.393 983.151 Z" fill="#000000" fill-rule="evenodd" fill-opacity="1" /><path clip-path="url(#clip590)" d="M 0 0 M248.555 986.855 Q244.943 986.855 243.115 990.419 Q241.309 993.961 241.309 1001.09 Q241.309 1008.2 243.115 1011.76 Q244.943 1015.3 248.555 1015.3 Q252.189 1015.3 253.994 1011.76 Q255.823 1008.2 255.823 1001.09 Q255.823 993.961 253.994 990.419 Q252.189 986.855 248.555 986.855 M248.555 983.151 Q254.365 983.151 257.42 987.757 Q260.499 992.341 260.499 1001.09 Q260.499 1009.82 257.42 1014.42 Q254.365 1019.01 248.555 1019.01 Q242.744 1019.01 239.666 1014.42 Q236.61 1009.82 236.61 1001.09 Q236.61 992.341 239.666 987.757 Q242.744 983.151 248.555 983.151 Z" fill="#000000" fill-rule="evenodd" fill-opacity="1" /><path clip-path="url(#clip590)" d="M 0 0 M182.259 629.061 L198.578 629.061 L198.578 632.996 L176.634 632.996 L176.634 629.061 Q179.296 626.306 183.879 621.677 Q188.485 617.024 189.666 615.681 Q191.911 613.158 192.791 611.422 Q193.694 609.663 193.694 607.973 Q193.694 605.218 191.749 603.482 Q189.828 601.746 186.726 601.746 Q184.527 601.746 182.073 602.51 Q179.643 603.274 176.865 604.825 L176.865 600.103 Q179.689 598.968 182.143 598.39 Q184.597 597.811 186.634 597.811 Q192.004 597.811 195.198 600.496 Q198.393 603.181 198.393 607.672 Q198.393 609.802 197.583 611.723 Q196.796 613.621 194.689 616.214 Q194.11 616.885 191.009 620.103 Q187.907 623.297 182.259 629.061 Z" fill="#000000" fill-rule="evenodd" fill-opacity="1" /><path clip-path="url(#clip590)" d="M 0 0 M218.393 601.515 Q214.782 601.515 212.953 605.08 Q211.147 608.621 211.147 615.751 Q211.147 622.857 212.953 626.422 Q214.782 629.964 218.393 629.964 Q222.027 629.964 223.832 626.422 Q225.661 622.857 225.661 615.751 Q225.661 608.621 223.832 605.08 Q222.027 601.515 218.393 601.515 M218.393 597.811 Q224.203 597.811 227.258 602.418 Q230.337 607.001 230.337 615.751 Q230.337 624.478 227.258 629.084 Q224.203 633.667 218.393 633.667 Q212.583 633.667 209.504 629.084 Q206.448 624.478 206.448 615.751 Q206.448 607.001 209.504 602.418 Q212.583 597.811 218.393 597.811 Z" fill="#000000" fill-rule="evenodd" fill-opacity="1" /><path clip-path="url(#clip590)" d="M 0 0 M248.555 601.515 Q244.943 601.515 243.115 605.08 Q241.309 608.621 241.309 615.751 Q241.309 622.857 243.115 626.422 Q244.943 629.964 248.555 629.964 Q252.189 629.964 253.994 626.422 Q255.823 622.857 255.823 615.751 Q255.823 608.621 253.994 605.08 Q252.189 601.515 248.555 601.515 M248.555 597.811 Q254.365 597.811 257.42 602.418 Q260.499 607.001 260.499 615.751 Q260.499 624.478 257.42 629.084 Q254.365 633.667 248.555 633.667 Q242.744 633.667 239.666 629.084 Q236.61 624.478 236.61 615.751 Q236.61 607.001 239.666 602.418 Q242.744 597.811 248.555 597.811 Z" fill="#000000" fill-rule="evenodd" fill-opacity="1" /><path clip-path="url(#clip590)" d="M 0 0 M192.397 229.022 Q195.754 229.74 197.629 232.008 Q199.527 234.277 199.527 237.61 Q199.527 242.726 196.009 245.527 Q192.49 248.328 186.009 248.328 Q183.833 248.328 181.518 247.888 Q179.226 247.471 176.773 246.615 L176.773 242.101 Q178.717 243.235 181.032 243.814 Q183.347 244.392 185.87 244.392 Q190.268 244.392 192.559 242.656 Q194.874 240.92 194.874 237.61 Q194.874 234.554 192.722 232.842 Q190.592 231.105 186.772 231.105 L182.745 231.105 L182.745 227.263 L186.958 227.263 Q190.407 227.263 192.235 225.897 Q194.064 224.508 194.064 221.916 Q194.064 219.254 192.166 217.842 Q190.291 216.406 186.772 216.406 Q184.851 216.406 182.652 216.823 Q180.453 217.24 177.814 218.119 L177.814 213.953 Q180.476 213.212 182.791 212.842 Q185.129 212.471 187.189 212.471 Q192.513 212.471 195.615 214.902 Q198.717 217.309 198.717 221.43 Q198.717 224.3 197.073 226.291 Q195.43 228.258 192.397 229.022 Z" fill="#000000" fill-rule="evenodd" fill-opacity="1" /><path clip-path="url(#clip590)" d="M 0 0 M218.393 216.175 Q214.782 216.175 212.953 219.74 Q211.147 223.281 211.147 230.411 Q211.147 237.517 212.953 241.082 Q214.782 244.624 218.393 244.624 Q222.027 244.624 223.832 241.082 Q225.661 237.517 225.661 230.411 Q225.661 223.281 223.832 219.74 Q222.027 216.175 218.393 216.175 M218.393 212.471 Q224.203 212.471 227.258 217.078 Q230.337 221.661 230.337 230.411 Q230.337 239.138 227.258 243.744 Q224.203 248.328 218.393 248.328 Q212.583 248.328 209.504 243.744 Q206.448 239.138 206.448 230.411 Q206.448 221.661 209.504 217.078 Q212.583 212.471 218.393 212.471 Z" fill="#000000" fill-rule="evenodd" fill-opacity="1" /><path clip-path="url(#clip590)" d="M 0 0 M248.555 216.175 Q244.943 216.175 243.115 219.74 Q241.309 223.281 241.309 230.411 Q241.309 237.517 243.115 241.082 Q244.943 244.624 248.555 244.624 Q252.189 244.624 253.994 241.082 Q255.823 237.517 255.823 230.411 Q255.823 223.281 253.994 219.74 Q252.189 216.175 248.555 216.175 M248.555 212.471 Q254.365 212.471 257.42 217.078 Q260.499 221.661 260.499 230.411 Q260.499 239.138 257.42 243.744 Q254.365 248.328 248.555 248.328 Q242.744 248.328 239.666 243.744 Q236.61 239.138 236.61 230.411 Q236.61 221.661 239.666 217.078 Q242.744 212.471 248.555 212.471 Z" fill="#000000" fill-rule="evenodd" fill-opacity="1" /><path clip-path="url(#clip590)" d="M 0 0 M94.6485 829.54 L111.073 835.209 L111.073 889.894 Q111.073 890.635 111.041 890.925 Q111.009 891.215 110.848 891.44 Q110.687 891.666 110.333 891.666 Q110.043 891.666 109.302 891.086 L80.3491 867.672 L47.2415 891.73 Q45.7278 891.73 45.4379 891.472 Q45.1159 891.215 45.1159 889.894 L45.1159 835.209 L60.5425 829.54 L60.5425 831.183 Q58.5457 831.924 56.871 833.115 Q55.1641 834.275 53.9403 835.627 Q52.7165 836.948 51.7503 838.687 Q50.7519 840.394 50.14 842.004 Q49.4959 843.582 49.045 845.547 Q48.5619 847.511 48.3365 849.089 Q48.0788 850.635 47.95 852.568 Q47.8212 854.5 47.789 855.724 Q47.7568 856.948 47.7568 858.494 L47.7568 884.612 L77.1607 863.196 Q77.9014 862.713 78.0947 862.713 Q78.3845 862.713 79.1575 863.324 L107.434 886.191 L107.434 858.171 Q107.434 849.154 105.534 842.874 Q104.085 838.623 101.218 835.531 Q98.3522 832.407 94.6485 831.183 L94.6485 829.54 Z" fill="#000000" fill-rule="evenodd" fill-opacity="1" /><path clip-path="url(#clip590)" d="M 0 0 M127.747 902.739 Q128.739 902.739 129.483 903.551 Q130.204 904.34 130.204 905.197 Q130.204 905.986 129.731 906.482 Q129.235 906.955 128.536 906.955 Q127.612 906.955 126.845 906.166 Q126.079 905.377 126.079 904.453 Q126.079 903.686 126.552 903.213 Q127.026 902.739 127.747 902.739 M149.998 902.334 Q150.179 902.334 150.9 902.536 Q151.599 902.739 152.681 903.235 Q153.741 903.709 154.732 904.363 Q155.724 905.016 156.423 906.098 Q157.122 907.158 157.122 908.375 Q157.122 910.021 156.04 911.103 Q154.958 912.163 153.335 912.163 Q152.455 912.163 149.637 911.103 Q141.431 908.037 141.093 907.924 Q139.808 907.406 138.681 907.406 Q138.163 907.406 137.847 907.519 Q137.509 907.631 137.396 907.857 Q137.261 908.082 137.238 908.218 Q137.216 908.33 137.216 908.556 Q137.216 909.886 138.568 911.126 Q139.921 912.366 142.942 913.222 Q143.505 913.403 143.641 913.515 Q143.776 913.628 143.776 913.966 Q143.753 914.53 143.303 914.53 Q143.167 914.53 142.649 914.372 Q142.108 914.214 141.296 913.921 Q140.462 913.628 139.605 913.11 Q138.726 912.591 137.96 911.96 Q137.193 911.306 136.697 910.382 Q136.201 909.457 136.201 908.42 Q136.201 906.73 137.306 905.693 Q138.388 904.633 139.989 904.633 Q140.868 904.633 142.423 905.242 Q144.452 905.986 145.106 906.256 L149.953 908.06 Q151.712 908.714 152.253 908.916 Q152.771 909.097 153.402 909.255 Q154.011 909.39 154.575 909.39 Q155.364 909.39 155.724 909.142 Q156.085 908.871 156.085 908.285 Q156.085 906.662 154.484 905.467 Q152.861 904.272 150.381 903.573 Q150.314 903.551 150.201 903.528 Q149.637 903.348 149.57 903.168 Q149.547 903.077 149.547 902.897 Q149.547 902.334 149.998 902.334 Z" fill="#000000" fill-rule="evenodd" fill-opacity="1" /><path clip-path="url(#clip590)" d="M 0 0 M149.592 885.954 Q149.029 885.909 149.029 885.03 L149.029 856.737 Q149.029 855.407 149.547 855.384 Q150.111 855.384 150.088 856.646 L150.088 884.714 Q150.111 885.954 149.592 885.954 M140.575 885.954 Q140.011 885.954 140.034 884.984 L140.034 856.782 Q140.034 855.407 140.575 855.384 Q141.093 855.384 141.093 856.556 L141.093 885.03 Q141.093 885.954 140.575 885.954 Z" fill="#000000" fill-rule="evenodd" fill-opacity="1" /><path clip-path="url(#clip590)" d="M 0 0 M130.25 837.572 L128.807 837.572 Q128.807 832.026 125.853 829.163 Q125.853 828.374 126.034 828.239 Q126.214 828.103 127.048 828.103 L152.951 828.103 Q154.327 828.103 154.755 827.427 Q155.183 826.751 155.183 823.798 L155.183 822.332 L156.604 822.332 Q156.468 823.955 156.468 829.817 Q156.468 835.678 156.604 837.279 L155.183 837.279 L155.183 835.814 Q155.183 832.905 154.778 832.206 Q154.349 831.508 152.951 831.508 L129.032 831.508 Q130.25 833.92 130.25 837.572 Z" fill="#000000" fill-rule="evenodd" fill-opacity="1" /><path clip-path="url(#clip590)" d="M 0 0 M-3.61568 885.646 L-5.05851 885.646 Q-5.05851 880.1 -8.01178 877.237 Q-8.01178 876.448 -7.83143 876.313 Q-7.65108 876.177 -6.81695 876.177 L19.0862 876.177 Q20.4614 876.177 20.8898 875.501 Q21.3181 874.825 21.3181 871.871 L21.3181 870.406 L22.7384 870.406 Q22.6031 872.029 22.6031 877.891 Q22.6031 883.752 22.7384 885.353 L21.3181 885.353 L21.3181 883.887 Q21.3181 880.979 20.9123 880.28 Q20.484 879.582 19.0862 879.582 L-4.83306 879.582 Q-3.61568 881.994 -3.61568 885.646 Z" fill="#000000" fill-rule="evenodd" fill-opacity="1" /><path clip-path="url(#clip590)" d="M 0 0 M7.97199 866.456 Q1.18621 866.456 -2.51102 864.743 Q-8.01178 862.353 -8.01178 856.717 Q-8.01178 855.522 -7.67362 854.282 Q-7.358 853.02 -6.11808 851.442 Q-4.87815 849.841 -2.84918 848.872 Q1.07349 847.023 7.97199 847.023 Q14.7127 847.023 18.3874 848.736 Q23.7529 851.239 23.7529 856.762 Q23.7529 858.836 22.6933 860.955 Q21.6337 863.052 19.0862 864.382 Q15.2763 866.456 7.97199 866.456 M7.40838 862.624 Q14.3745 862.624 17.1474 862.128 Q20.1458 861.564 21.4534 860.031 Q22.7384 858.475 22.7384 856.762 Q22.7384 854.913 21.3632 853.38 Q19.9654 851.825 16.9671 851.351 Q14.0138 850.833 7.40838 850.856 Q0.983314 850.856 -1.58671 851.306 Q-4.58508 851.915 -5.77992 853.538 Q-6.9973 855.139 -6.9973 856.762 Q-6.9973 857.371 -6.81695 858.025 Q-6.63659 858.656 -6.11808 859.58 Q-5.59956 860.504 -4.31455 861.226 Q-3.02954 861.925 -1.09074 862.263 Q1.41165 862.624 7.40838 862.624 Z" fill="#000000" fill-rule="evenodd" fill-opacity="1" /><path clip-path="url(#clip590)" d="M 0 0 M57.4874 770.939 L58.4117 771.503 Q56.9012 774.997 54.489 779.348 Q56.9012 783.699 58.4117 787.194 L57.4874 787.735 Q54.1734 783.925 51.6259 779.348 Q54.1959 774.727 57.4874 770.939 Z" fill="#000000" fill-rule="evenodd" fill-opacity="1" /><path clip-path="url(#clip590)" d="M 0 0 M68.5295 768.354 Q68.5617 768.354 69.7212 768.547 L98.9963 775.89 Q100.542 776.276 102.088 777.371 Q103.666 778.434 105.019 780.141 Q106.404 781.816 107.241 784.392 Q108.111 786.936 108.111 789.867 Q108.111 794.537 107.112 796.598 Q106.146 798.627 104.085 798.627 Q102.281 798.627 101.251 797.5 Q100.252 796.373 100.252 795.084 Q100.252 793.861 100.961 793.217 Q101.669 792.572 102.571 792.572 Q103.57 792.572 104.568 793.249 Q105.598 793.925 105.985 795.278 Q106.661 793.12 106.661 789.996 Q106.661 783.394 99.6726 780.56 Q99.576 780.495 99.5438 780.495 L90.816 778.305 L90.7516 778.402 Q91.3957 778.949 92.1364 779.819 Q92.845 780.656 93.7145 782.46 Q94.5841 784.263 94.5841 786.035 Q94.5841 789.738 91.75 792.283 Q88.8836 794.795 84.1494 794.795 Q80.7034 794.795 77.2573 793.41 Q73.7791 791.993 71.2348 789.803 Q68.6584 787.581 67.0481 784.746 Q65.4378 781.88 65.4378 779.11 Q65.4378 777.178 66.5972 775.536 Q67.7244 773.893 69.5923 772.991 Q68.0464 772.83 67.4023 771.961 Q66.7582 771.059 66.7582 770.286 Q66.7582 769.416 67.2413 768.901 Q67.6922 768.354 68.5295 768.354 M72.5553 773.764 Q72.362 773.764 71.8467 773.893 Q71.2992 774.022 70.4297 774.408 Q69.5601 774.763 68.7872 775.31 Q68.0142 775.858 67.4667 776.856 Q66.887 777.822 66.887 779.046 Q66.887 781.043 68.5617 783.04 Q70.2042 785.036 72.7485 786.421 Q75.1961 787.709 79.9304 788.933 Q84.6647 790.125 87.0801 790.125 Q89.4633 790.125 91.2991 789.094 Q93.1348 788.064 93.1348 785.841 Q93.1348 783.265 90.7516 780.495 Q88.2717 777.629 86.1461 777.146 L73.5536 773.957 Q72.7807 773.764 72.5553 773.764 Z" fill="#000000" fill-rule="evenodd" fill-opacity="1" /><path clip-path="url(#clip590)" d="M 0 0 M39.2712 760.318 Q31.4709 760.318 25.1811 757.41 Q22.5435 756.17 20.3341 754.434 Q18.1248 752.698 17.1554 751.548 Q16.186 750.399 16.186 750.083 Q16.186 749.632 16.6369 749.61 Q16.8623 749.61 17.4259 750.218 Q25.0008 757.658 39.2712 757.635 Q53.5867 757.635 60.8684 750.399 Q61.6575 749.61 61.9055 749.61 Q62.3563 749.61 62.3563 750.083 Q62.3563 750.399 61.432 751.503 Q60.5077 752.608 58.3886 754.321 Q56.2694 756.035 53.6769 757.275 Q47.3871 760.318 39.2712 760.318 Z" fill="#000000" fill-rule="evenodd" fill-opacity="1" /><path clip-path="url(#clip590)" d="M 0 0 M50.8138 742.589 Q49.9796 742.589 49.7316 742.521 Q49.4837 742.431 49.1004 742.07 L39.2261 733.21 Q33.7704 728.363 29.0136 728.363 Q25.9251 728.363 23.7158 729.987 Q21.5064 731.587 21.5064 734.541 Q21.5064 736.57 22.7464 738.283 Q23.9863 739.996 26.1956 740.785 Q26.1505 740.65 26.1505 740.177 Q26.1505 739.027 26.8719 738.396 Q27.5933 737.742 28.5627 737.742 Q29.8027 737.742 30.4114 738.553 Q30.9975 739.342 30.9975 740.132 Q30.9975 740.447 30.9299 740.875 Q30.8622 741.281 30.231 741.935 Q29.5772 742.589 28.4275 742.589 Q25.2037 742.589 22.6336 740.154 Q20.0636 737.697 20.0636 733.954 Q20.0636 729.716 22.5885 726.943 Q25.0909 724.148 29.0136 724.148 Q30.3888 724.148 31.6513 724.576 Q32.8912 724.982 33.8606 725.545 Q34.83 726.087 36.3855 727.574 Q37.9411 729.062 39.0457 730.257 Q40.1504 731.452 42.495 734.135 L47.2518 739.027 L47.2518 730.708 Q47.2518 726.65 46.8911 726.335 Q46.2373 725.884 42.7881 725.32 L42.7881 724.148 L50.8138 725.455 L50.8138 742.589 Z" fill="#000000" fill-rule="evenodd" fill-opacity="1" /><path clip-path="url(#clip590)" d="M 0 0 M61.9055 719.724 Q61.68 719.724 61.1164 719.138 Q53.5416 711.698 39.2712 711.698 Q24.9557 711.698 17.719 718.845 Q16.8849 719.724 16.6369 719.724 Q16.186 719.724 16.186 719.273 Q16.186 718.957 17.1103 717.853 Q18.0346 716.726 20.1538 715.035 Q22.2729 713.321 24.8655 712.059 Q31.1553 709.016 39.2712 709.016 Q47.0714 709.016 53.3612 711.924 Q55.9989 713.164 58.2082 714.9 Q60.4176 716.635 61.3869 717.785 Q62.3563 718.935 62.3563 719.273 Q62.3563 719.724 61.9055 719.724 Z" fill="#000000" fill-rule="evenodd" fill-opacity="1" /><path clip-path="url(#clip590)" d="M 0 0 M78.0947 694.955 Q66.9514 694.955 57.966 690.8 Q54.1979 689.029 51.0418 686.549 Q47.8856 684.069 46.5007 682.427 Q45.1159 680.784 45.1159 680.333 Q45.1159 679.689 45.76 679.657 Q46.082 679.657 46.8872 680.527 Q57.7084 691.154 78.0947 691.122 Q98.5454 691.122 108.948 680.784 Q110.075 679.657 110.429 679.657 Q111.073 679.657 111.073 680.333 Q111.073 680.784 109.753 682.362 Q108.433 683.94 105.405 686.388 Q102.378 688.836 98.6742 690.607 Q89.6888 694.955 78.0947 694.955 Z" fill="#000000" fill-rule="evenodd" fill-opacity="1" /><path clip-path="url(#clip590)" d="M 0 0 M67.2091 638.581 Q67.4989 638.581 68.4973 638.839 Q69.4635 639.064 71.3637 639.805 Q73.2316 640.513 75.325 641.608 Q77.3861 642.671 79.9948 644.636 Q82.6035 646.6 84.8901 649.048 Q89.2057 653.653 91.5245 658.581 Q93.8433 663.476 94.5841 667.663 L94.5841 668.597 Q94.5841 669.627 93.7789 669.627 L90.816 668.919 L74.6809 664.893 Q69.7534 663.637 69.3347 663.637 Q68.9482 663.637 68.755 663.798 Q68.5295 663.927 68.3685 664.7 Q68.2075 665.441 68.2075 666.922 Q68.2075 667.534 68.1753 667.824 Q68.1431 668.082 67.982 668.307 Q67.7888 668.532 67.4023 668.532 Q66.8548 668.532 66.565 668.307 Q66.2429 668.049 66.1785 667.856 Q66.1141 667.663 66.0819 667.276 Q66.0497 666.729 65.8887 664.893 Q65.6954 663.057 65.5666 661.479 Q65.4378 659.901 65.4378 659.225 Q65.4378 658.838 65.631 658.613 Q65.792 658.388 65.9853 658.388 L66.1463 658.355 L92.3941 664.829 Q91.6211 662.445 90.3329 660.094 Q89.0447 657.711 86.9191 655.135 Q84.7613 652.558 82.0882 650.368 Q79.4151 648.178 75.6792 646.246 Q71.9112 644.281 67.5956 643.058 Q66.726 642.832 66.2107 642.285 Q65.6954 641.705 65.5666 641.286 Q65.4378 640.868 65.4378 640.481 Q65.4378 639.612 65.9209 639.096 Q66.3717 638.581 67.2091 638.581 Z" fill="#000000" fill-rule="evenodd" fill-opacity="1" /><path clip-path="url(#clip590)" d="M 0 0 M110.429 637.378 Q110.107 637.378 109.302 636.541 Q98.481 625.913 78.0947 625.913 Q57.644 625.913 47.3059 636.122 Q46.1143 637.378 45.76 637.378 Q45.1159 637.378 45.1159 636.734 Q45.1159 636.283 46.4363 634.705 Q47.7568 633.095 50.7841 630.679 Q53.8115 628.232 57.5151 626.428 Q66.5006 622.08 78.0947 622.08 Q89.2379 622.08 98.2233 626.235 Q101.991 628.006 105.148 630.486 Q108.304 632.966 109.689 634.608 Q111.073 636.251 111.073 636.734 Q111.073 637.378 110.429 637.378 Z" fill="#000000" fill-rule="evenodd" fill-opacity="1" /><path clip-path="url(#clip590)" d="M 0 0 M513.171 14.0809 L513.171 22.0612 Q508.512 19.8332 504.38 18.7395 Q500.248 17.6457 496.4 17.6457 Q489.716 17.6457 486.07 20.2383 Q482.465 22.8309 482.465 27.611 Q482.465 31.6214 484.855 33.6873 Q487.285 35.7128 494.01 36.9686 L498.952 37.9813 Q508.107 39.7232 512.441 44.1387 Q516.816 48.5136 516.816 55.8863 Q516.816 64.6767 510.902 69.2137 Q505.028 73.7508 493.645 73.7508 Q489.351 73.7508 484.49 72.7785 Q479.67 71.8063 474.484 69.9024 L474.484 61.4765 Q479.467 64.2716 484.247 65.6895 Q489.027 67.1073 493.645 67.1073 Q500.653 67.1073 504.461 64.3527 Q508.269 61.598 508.269 56.4939 Q508.269 52.0379 505.514 49.5264 Q502.8 47.0148 496.562 45.759 L491.579 44.7868 Q482.424 42.9639 478.333 39.075 Q474.241 35.1862 474.241 28.2591 Q474.241 20.2383 479.872 15.6203 Q485.543 11.0023 495.468 11.0023 Q499.722 11.0023 504.137 11.7719 Q508.553 12.5416 513.171 14.0809 Z" fill="#000000" fill-rule="evenodd" fill-opacity="1" /><path clip-path="url(#clip590)" d="M 0 0 M528.483 54.671 L528.483 27.2059 L535.937 27.2059 L535.937 54.3874 Q535.937 60.8284 538.448 64.0691 Q540.96 67.2693 545.983 67.2693 Q552.019 67.2693 555.502 63.421 Q559.027 59.5726 559.027 52.9291 L559.027 27.2059 L566.48 27.2059 L566.48 72.576 L559.027 72.576 L559.027 65.6084 Q556.313 69.7404 552.707 71.7658 Q549.143 73.7508 544.403 73.7508 Q536.585 73.7508 532.534 68.8897 Q528.483 64.0286 528.483 54.671 M547.239 26.1121 L547.239 26.1121 Z" fill="#000000" fill-rule="evenodd" fill-opacity="1" /><path clip-path="url(#clip590)" d="M 0 0 M617.157 35.9153 Q619.952 30.8922 623.841 28.5022 Q627.73 26.1121 632.996 26.1121 Q640.085 26.1121 643.934 31.0947 Q647.782 36.0368 647.782 45.1919 L647.782 72.576 L640.288 72.576 L640.288 45.4349 Q640.288 38.913 637.979 35.7533 Q635.67 32.5936 630.93 32.5936 Q625.138 32.5936 621.775 36.4419 Q618.413 40.2903 618.413 46.9338 L618.413 72.576 L610.919 72.576 L610.919 45.4349 Q610.919 38.8725 608.61 35.7533 Q606.301 32.5936 601.48 32.5936 Q595.768 32.5936 592.406 36.4824 Q589.044 40.3308 589.044 46.9338 L589.044 72.576 L581.55 72.576 L581.55 27.2059 L589.044 27.2059 L589.044 34.2544 Q591.596 30.082 595.161 28.0971 Q598.726 26.1121 603.627 26.1121 Q608.569 26.1121 612.013 28.6237 Q615.496 31.1352 617.157 35.9153 Z" fill="#000000" fill-rule="evenodd" fill-opacity="1" /><path clip-path="url(#clip590)" d="M 0 0 M706.601 32.4315 Q700.606 32.4315 697.122 37.1306 Q693.638 41.7891 693.638 49.9314 Q693.638 58.0738 697.082 62.7728 Q700.565 67.4314 706.601 67.4314 Q712.556 67.4314 716.04 62.7323 Q719.524 58.0333 719.524 49.9314 Q719.524 41.8701 716.04 37.1711 Q712.556 32.4315 706.601 32.4315 M706.601 26.1121 Q716.323 26.1121 721.873 32.4315 Q727.423 38.7509 727.423 49.9314 Q727.423 61.0714 721.873 67.4314 Q716.323 73.7508 706.601 73.7508 Q696.839 73.7508 691.289 67.4314 Q685.78 61.0714 685.78 49.9314 Q685.78 38.7509 691.289 32.4315 Q696.839 26.1121 706.601 26.1121 Z" fill="#000000" fill-rule="evenodd" fill-opacity="1" /><path clip-path="url(#clip590)" d="M 0 0 M762.747 9.54393 L762.747 15.7418 L755.617 15.7418 Q751.607 15.7418 750.027 17.3622 Q748.488 18.9825 748.488 23.1955 L748.488 27.2059 L760.762 27.2059 L760.762 32.9987 L748.488 32.9987 L748.488 72.576 L740.993 72.576 L740.993 32.9987 L733.864 32.9987 L733.864 27.2059 L740.993 27.2059 L740.993 24.0462 Q740.993 16.471 744.518 13.0277 Q748.042 9.54393 755.698 9.54393 L762.747 9.54393 Z" fill="#000000" fill-rule="evenodd" fill-opacity="1" /><path clip-path="url(#clip590)" d="M 0 0 M803.863 18.8205 L803.863 41.5461 L814.153 41.5461 Q819.865 41.5461 822.984 38.5889 Q826.103 35.6318 826.103 30.163 Q826.103 24.7348 822.984 21.7777 Q819.865 18.8205 814.153 18.8205 L803.863 18.8205 M795.681 12.096 L814.153 12.096 Q824.32 12.096 829.506 16.714 Q834.731 21.2916 834.731 30.163 Q834.731 39.1155 829.506 43.6931 Q824.32 48.2706 814.153 48.2706 L803.863 48.2706 L803.863 72.576 L795.681 72.576 L795.681 12.096 Z" fill="#000000" fill-rule="evenodd" fill-opacity="1" /><path clip-path="url(#clip590)" d="M 0 0 M883.099 45.1919 L883.099 72.576 L875.645 72.576 L875.645 45.4349 Q875.645 38.994 873.134 35.7938 Q870.622 32.5936 865.599 32.5936 Q859.563 32.5936 856.08 36.4419 Q852.596 40.2903 852.596 46.9338 L852.596 72.576 L845.102 72.576 L845.102 9.54393 L852.596 9.54393 L852.596 34.2544 Q855.269 30.163 858.875 28.1376 Q862.521 26.1121 867.26 26.1121 Q875.078 26.1121 879.089 30.9732 Q883.099 35.7938 883.099 45.1919 Z" fill="#000000" fill-rule="evenodd" fill-opacity="1" /><path clip-path="url(#clip590)" d="M 0 0 M915.547 32.4315 Q909.552 32.4315 906.068 37.1306 Q902.584 41.7891 902.584 49.9314 Q902.584 58.0738 906.027 62.7728 Q909.511 67.4314 915.547 67.4314 Q921.502 67.4314 924.985 62.7323 Q928.469 58.0333 928.469 49.9314 Q928.469 41.8701 924.985 37.1711 Q921.502 32.4315 915.547 32.4315 M915.547 26.1121 Q925.269 26.1121 930.819 32.4315 Q936.369 38.7509 936.369 49.9314 Q936.369 61.0714 930.819 67.4314 Q925.269 73.7508 915.547 73.7508 Q905.784 73.7508 900.234 67.4314 Q894.725 61.0714 894.725 49.9314 Q894.725 38.7509 900.234 32.4315 Q905.784 26.1121 915.547 26.1121 Z" fill="#000000" fill-rule="evenodd" fill-opacity="1" /><path clip-path="url(#clip590)" d="M 0 0 M956.096 14.324 L956.096 27.2059 L971.449 27.2059 L971.449 32.9987 L956.096 32.9987 L956.096 57.6282 Q956.096 63.1779 957.595 64.7578 Q959.135 66.3376 963.793 66.3376 L971.449 66.3376 L971.449 72.576 L963.793 72.576 Q955.165 72.576 951.883 69.3758 Q948.602 66.1351 948.602 57.6282 L948.602 32.9987 L943.134 32.9987 L943.134 27.2059 L948.602 27.2059 L948.602 14.324 L956.096 14.324 Z" fill="#000000" fill-rule="evenodd" fill-opacity="1" /><path clip-path="url(#clip590)" d="M 0 0 M998.833 32.4315 Q992.838 32.4315 989.354 37.1306 Q985.871 41.7891 985.871 49.9314 Q985.871 58.0738 989.314 62.7728 Q992.798 67.4314 998.833 67.4314 Q1004.79 67.4314 1008.27 62.7323 Q1011.76 58.0333 1011.76 49.9314 Q1011.76 41.8701 1008.27 37.1711 Q1004.79 32.4315 998.833 32.4315 M998.833 26.1121 Q1008.56 26.1121 1014.11 32.4315 Q1019.66 38.7509 1019.66 49.9314 Q1019.66 61.0714 1014.11 67.4314 Q1008.56 73.7508 998.833 73.7508 Q989.071 73.7508 983.521 67.4314 Q978.012 61.0714 978.012 49.9314 Q978.012 38.7509 983.521 32.4315 Q989.071 26.1121 998.833 26.1121 Z" fill="#000000" fill-rule="evenodd" fill-opacity="1" /><path clip-path="url(#clip590)" d="M 0 0 M1069.72 45.1919 L1069.72 72.576 L1062.27 72.576 L1062.27 45.4349 Q1062.27 38.994 1059.76 35.7938 Q1057.25 32.5936 1052.22 32.5936 Q1046.19 32.5936 1042.7 36.4419 Q1039.22 40.2903 1039.22 46.9338 L1039.22 72.576 L1031.73 72.576 L1031.73 27.2059 L1039.22 27.2059 L1039.22 34.2544 Q1041.89 30.163 1045.5 28.1376 Q1049.15 26.1121 1053.89 26.1121 Q1061.7 26.1121 1065.71 30.9732 Q1069.72 35.7938 1069.72 45.1919 Z" fill="#000000" fill-rule="evenodd" fill-opacity="1" /><path clip-path="url(#clip590)" d="M 0 0 M1156.58 16.7545 L1156.58 25.383 Q1152.44 21.5346 1147.74 19.6307 Q1143.09 17.7268 1137.82 17.7268 Q1127.45 17.7268 1121.94 24.0867 Q1116.43 30.4061 1116.43 42.3968 Q1116.43 54.3469 1121.94 60.7069 Q1127.45 67.0263 1137.82 67.0263 Q1143.09 67.0263 1147.74 65.1223 Q1152.44 63.2184 1156.58 59.3701 L1156.58 67.9175 Q1152.28 70.8341 1147.46 72.2924 Q1142.68 73.7508 1137.33 73.7508 Q1123.6 73.7508 1115.7 65.3654 Q1107.8 56.9395 1107.8 42.3968 Q1107.8 27.8135 1115.7 19.4281 Q1123.6 11.0023 1137.33 11.0023 Q1142.76 11.0023 1147.54 12.4606 Q1152.36 13.8784 1156.58 16.7545 Z" fill="#000000" fill-rule="evenodd" fill-opacity="1" /><path clip-path="url(#clip590)" d="M 0 0 M1186.47 32.4315 Q1180.48 32.4315 1176.99 37.1306 Q1173.51 41.7891 1173.51 49.9314 Q1173.51 58.0738 1176.95 62.7728 Q1180.44 67.4314 1186.47 67.4314 Q1192.43 67.4314 1195.91 62.7323 Q1199.39 58.0333 1199.39 49.9314 Q1199.39 41.8701 1195.91 37.1711 Q1192.43 32.4315 1186.47 32.4315 M1186.47 26.1121 Q1196.19 26.1121 1201.74 32.4315 Q1207.29 38.7509 1207.29 49.9314 Q1207.29 61.0714 1201.74 67.4314 Q1196.19 73.7508 1186.47 73.7508 Q1176.71 73.7508 1171.16 67.4314 Q1165.65 61.0714 1165.65 49.9314 Q1165.65 38.7509 1171.16 32.4315 Q1176.71 26.1121 1186.47 26.1121 Z" fill="#000000" fill-rule="evenodd" fill-opacity="1" /><path clip-path="url(#clip590)" d="M 0 0 M1245.94 34.1734 Q1244.68 33.4443 1243.18 33.1202 Q1241.73 32.7556 1239.94 32.7556 Q1233.62 32.7556 1230.22 36.8875 Q1226.86 40.9789 1226.86 48.6757 L1226.86 72.576 L1219.36 72.576 L1219.36 27.2059 L1226.86 27.2059 L1226.86 34.2544 Q1229.21 30.1225 1232.98 28.1376 Q1236.74 26.1121 1242.13 26.1121 Q1242.9 26.1121 1243.83 26.2337 Q1244.76 26.3147 1245.9 26.5172 L1245.94 34.1734 Z" fill="#000000" fill-rule="evenodd" fill-opacity="1" /><path clip-path="url(#clip590)" d="M 0 0 M1278.59 34.1734 Q1277.33 33.4443 1275.83 33.1202 Q1274.38 32.7556 1272.59 32.7556 Q1266.27 32.7556 1262.87 36.8875 Q1259.51 40.9789 1259.51 48.6757 L1259.51 72.576 L1252.01 72.576 L1252.01 27.2059 L1259.51 27.2059 L1259.51 34.2544 Q1261.86 30.1225 1265.63 28.1376 Q1269.39 26.1121 1274.78 26.1121 Q1275.55 26.1121 1276.48 26.2337 Q1277.41 26.3147 1278.55 26.5172 L1278.59 34.1734 Z" fill="#000000" fill-rule="evenodd" fill-opacity="1" /><path clip-path="url(#clip590)" d="M 0 0 M1323.39 48.0275 L1323.39 51.6733 L1289.12 51.6733 Q1289.61 59.3701 1293.74 63.421 Q1297.91 67.4314 1305.32 67.4314 Q1309.62 67.4314 1313.63 66.3781 Q1317.68 65.3249 1321.65 63.2184 L1321.65 70.267 Q1317.64 71.9684 1313.43 72.8596 Q1309.21 73.7508 1304.88 73.7508 Q1294.02 73.7508 1287.66 67.4314 Q1281.34 61.1119 1281.34 50.3365 Q1281.34 39.1965 1287.34 32.6746 Q1293.37 26.1121 1303.58 26.1121 Q1312.74 26.1121 1318.04 32.0264 Q1323.39 37.9003 1323.39 48.0275 M1315.94 45.84 Q1315.86 39.7232 1312.49 36.0774 Q1309.17 32.4315 1303.66 32.4315 Q1297.43 32.4315 1293.66 35.9558 Q1289.93 39.4801 1289.36 45.8805 L1315.94 45.84 Z" fill="#000000" fill-rule="evenodd" fill-opacity="1" /><path clip-path="url(#clip590)" d="M 0 0 M1335.63 9.54393 L1343.08 9.54393 L1343.08 72.576 L1335.63 72.576 L1335.63 9.54393 Z" fill="#000000" fill-rule="evenodd" fill-opacity="1" /><path clip-path="url(#clip590)" d="M 0 0 M1379.29 49.7694 Q1370.26 49.7694 1366.78 51.8354 Q1363.29 53.9013 1363.29 58.8839 Q1363.29 62.8538 1365.89 65.2034 Q1368.52 67.5124 1373.02 67.5124 Q1379.21 67.5124 1382.94 63.1374 Q1386.71 58.7219 1386.71 51.4303 L1386.71 49.7694 L1379.29 49.7694 M1394.16 46.6907 L1394.16 72.576 L1386.71 72.576 L1386.71 65.6895 Q1384.16 69.8214 1380.35 71.8063 Q1376.54 73.7508 1371.03 73.7508 Q1364.06 73.7508 1359.93 69.8619 Q1355.84 65.9325 1355.84 59.3701 Q1355.84 51.7138 1360.94 47.825 Q1366.09 43.9361 1376.26 43.9361 L1386.71 43.9361 L1386.71 43.2069 Q1386.71 38.0623 1383.3 35.2672 Q1379.94 32.4315 1373.83 32.4315 Q1369.94 32.4315 1366.25 33.3632 Q1362.56 34.295 1359.16 36.1584 L1359.16 29.2718 Q1363.25 27.692 1367.1 26.9223 Q1370.95 26.1121 1374.6 26.1121 Q1384.44 26.1121 1389.3 31.2163 Q1394.16 36.3204 1394.16 46.6907 Z" fill="#000000" fill-rule="evenodd" fill-opacity="1" /><path clip-path="url(#clip590)" d="M 0 0 M1416.89 14.324 L1416.89 27.2059 L1432.24 27.2059 L1432.24 32.9987 L1416.89 32.9987 L1416.89 57.6282 Q1416.89 63.1779 1418.39 64.7578 Q1419.92 66.3376 1424.58 66.3376 L1432.24 66.3376 L1432.24 72.576 L1424.58 72.576 Q1415.96 72.576 1412.67 69.3758 Q1409.39 66.1351 1409.39 57.6282 L1409.39 32.9987 L1403.92 32.9987 L1403.92 27.2059 L1409.39 27.2059 L1409.39 14.324 L1416.89 14.324 Z" fill="#000000" fill-rule="evenodd" fill-opacity="1" /><path clip-path="url(#clip590)" d="M 0 0 M1442.04 27.2059 L1449.5 27.2059 L1449.5 72.576 L1442.04 72.576 L1442.04 27.2059 M1442.04 9.54393 L1449.5 9.54393 L1449.5 18.9825 L1442.04 18.9825 L1442.04 9.54393 Z" fill="#000000" fill-rule="evenodd" fill-opacity="1" /><path clip-path="url(#clip590)" d="M 0 0 M1482.67 32.4315 Q1476.68 32.4315 1473.19 37.1306 Q1469.71 41.7891 1469.71 49.9314 Q1469.71 58.0738 1473.15 62.7728 Q1476.64 67.4314 1482.67 67.4314 Q1488.63 67.4314 1492.11 62.7323 Q1495.6 58.0333 1495.6 49.9314 Q1495.6 41.8701 1492.11 37.1711 Q1488.63 32.4315 1482.67 32.4315 M1482.67 26.1121 Q1492.4 26.1121 1497.95 32.4315 Q1503.5 38.7509 1503.5 49.9314 Q1503.5 61.0714 1497.95 67.4314 Q1492.4 73.7508 1482.67 73.7508 Q1472.91 73.7508 1467.36 67.4314 Q1461.85 61.0714 1461.85 49.9314 Q1461.85 38.7509 1467.36 32.4315 Q1472.91 26.1121 1482.67 26.1121 Z" fill="#000000" fill-rule="evenodd" fill-opacity="1" /><path clip-path="url(#clip590)" d="M 0 0 M1553.56 45.1919 L1553.56 72.576 L1546.11 72.576 L1546.11 45.4349 Q1546.11 38.994 1543.6 35.7938 Q1541.09 32.5936 1536.06 32.5936 Q1530.03 32.5936 1526.54 36.4419 Q1523.06 40.2903 1523.06 46.9338 L1523.06 72.576 L1515.57 72.576 L1515.57 27.2059 L1523.06 27.2059 L1523.06 34.2544 Q1525.73 30.163 1529.34 28.1376 Q1532.99 26.1121 1537.73 26.1121 Q1545.54 26.1121 1549.55 30.9732 Q1553.56 35.7938 1553.56 45.1919 Z" fill="#000000" fill-rule="evenodd" fill-opacity="1" /><path clip-path="url(#clip590)" d="M 0 0 M1597.35 28.5427 L1597.35 35.5912 Q1594.19 33.9709 1590.79 33.1607 Q1587.39 32.3505 1583.74 32.3505 Q1578.19 32.3505 1575.4 34.0519 Q1572.64 35.7533 1572.64 39.156 Q1572.64 41.7486 1574.63 43.2475 Q1576.61 44.7058 1582.61 46.0426 L1585.16 46.6097 Q1593.1 48.3111 1596.42 51.4303 Q1599.79 54.509 1599.79 60.0587 Q1599.79 66.3781 1594.76 70.0644 Q1589.78 73.7508 1581.03 73.7508 Q1577.38 73.7508 1573.41 73.0216 Q1569.48 72.3329 1565.11 70.9151 L1565.11 63.2184 Q1569.24 65.3654 1573.25 66.4591 Q1577.26 67.5124 1581.19 67.5124 Q1586.46 67.5124 1589.29 65.73 Q1592.13 63.9071 1592.13 60.6258 Q1592.13 57.5877 1590.06 55.9673 Q1588.04 54.3469 1581.11 52.8481 L1578.52 52.2405 Q1571.59 50.7821 1568.51 47.7845 Q1565.43 44.7463 1565.43 39.4801 Q1565.43 33.0797 1569.97 29.5959 Q1574.51 26.1121 1582.85 26.1121 Q1586.98 26.1121 1590.63 26.7198 Q1594.28 27.3274 1597.35 28.5427 Z" fill="#000000" fill-rule="evenodd" fill-opacity="1" /><path clip-path="url(#clip590)" d="M 0 0 M1632.68 27.2059 L1640.58 27.2059 L1654.76 65.2844 L1668.93 27.2059 L1676.83 27.2059 L1659.82 72.576 L1649.69 72.576 L1632.68 27.2059 Z" fill="#000000" fill-rule="evenodd" fill-opacity="1" /><path clip-path="url(#clip590)" d="M 0 0 M1716.05 28.5427 L1716.05 35.5912 Q1712.89 33.9709 1709.48 33.1607 Q1706.08 32.3505 1702.44 32.3505 Q1696.89 32.3505 1694.09 34.0519 Q1691.34 35.7533 1691.34 39.156 Q1691.34 41.7486 1693.32 43.2475 Q1695.31 44.7058 1701.3 46.0426 L1703.85 46.6097 Q1711.79 48.3111 1715.11 51.4303 Q1718.48 54.509 1718.48 60.0587 Q1718.48 66.3781 1713.45 70.0644 Q1708.47 73.7508 1699.72 73.7508 Q1696.08 73.7508 1692.11 73.0216 Q1688.18 72.3329 1683.8 70.9151 L1683.8 63.2184 Q1687.93 65.3654 1691.94 66.4591 Q1695.95 67.5124 1699.88 67.5124 Q1705.15 67.5124 1707.98 65.73 Q1710.82 63.9071 1710.82 60.6258 Q1710.82 57.5877 1708.75 55.9673 Q1706.73 54.3469 1699.8 52.8481 L1697.21 52.2405 Q1690.28 50.7821 1687.2 47.7845 Q1684.12 44.7463 1684.12 39.4801 Q1684.12 33.0797 1688.66 29.5959 Q1693.2 26.1121 1701.54 26.1121 Q1705.68 26.1121 1709.32 26.7198 Q1712.97 27.3274 1716.05 28.5427 Z" fill="#000000" fill-rule="evenodd" fill-opacity="1" /><path clip-path="url(#clip590)" d="M 0 0 M1757.04 12.096 L1791.8 12.096 L1791.8 18.9825 L1765.22 18.9825 L1765.22 36.8065 L1789.21 36.8065 L1789.21 43.6931 L1765.22 43.6931 L1765.22 72.576 L1757.04 72.576 L1757.04 12.096 Z" fill="#000000" fill-rule="evenodd" fill-opacity="1" /><path clip-path="url(#clip590)" d="M 0 0 M1824.69 34.1734 Q1823.44 33.4443 1821.94 33.1202 Q1820.48 32.7556 1818.7 32.7556 Q1812.38 32.7556 1808.97 36.8875 Q1805.61 40.9789 1805.61 48.6757 L1805.61 72.576 L1798.12 72.576 L1798.12 27.2059 L1805.61 27.2059 L1805.61 34.2544 Q1807.96 30.1225 1811.73 28.1376 Q1815.5 26.1121 1820.88 26.1121 Q1821.65 26.1121 1822.58 26.2337 Q1823.52 26.3147 1824.65 26.5172 L1824.69 34.1734 Z" fill="#000000" fill-rule="evenodd" fill-opacity="1" /><path clip-path="url(#clip590)" d="M 0 0 M1869.49 48.0275 L1869.49 51.6733 L1835.22 51.6733 Q1835.71 59.3701 1839.84 63.421 Q1844.01 67.4314 1851.43 67.4314 Q1855.72 67.4314 1859.73 66.3781 Q1863.78 65.3249 1867.75 63.2184 L1867.75 70.267 Q1863.74 71.9684 1859.53 72.8596 Q1855.32 73.7508 1850.98 73.7508 Q1840.13 73.7508 1833.77 67.4314 Q1827.45 61.1119 1827.45 50.3365 Q1827.45 39.1965 1833.44 32.6746 Q1839.48 26.1121 1849.69 26.1121 Q1858.84 26.1121 1864.15 32.0264 Q1869.49 37.9003 1869.49 48.0275 M1862.04 45.84 Q1861.96 39.7232 1858.6 36.0774 Q1855.28 32.4315 1849.77 32.4315 Q1843.53 32.4315 1839.76 35.9558 Q1836.03 39.4801 1835.47 45.8805 L1862.04 45.84 Z" fill="#000000" fill-rule="evenodd" fill-opacity="1" /><path clip-path="url(#clip590)" d="M 0 0 M1886.18 49.9314 Q1886.18 58.1548 1889.55 62.8538 Q1892.95 67.5124 1898.86 67.5124 Q1904.78 67.5124 1908.18 62.8538 Q1911.58 58.1548 1911.58 49.9314 Q1911.58 41.7081 1908.18 37.0496 Q1904.78 32.3505 1898.86 32.3505 Q1892.95 32.3505 1889.55 37.0496 Q1886.18 41.7081 1886.18 49.9314 M1911.58 65.7705 Q1909.23 69.8214 1905.63 71.8063 Q1902.06 73.7508 1897.04 73.7508 Q1888.82 73.7508 1883.63 67.1883 Q1878.49 60.6258 1878.49 49.9314 Q1878.49 39.2371 1883.63 32.6746 Q1888.82 26.1121 1897.04 26.1121 Q1902.06 26.1121 1905.63 28.0971 Q1909.23 30.0415 1911.58 34.0924 L1911.58 27.2059 L1919.04 27.2059 L1919.04 89.8329 L1911.58 89.8329 L1911.58 65.7705 Z" fill="#000000" fill-rule="evenodd" fill-opacity="1" /><path clip-path="url(#clip590)" d="M 0 0 M1933.62 54.671 L1933.62 27.2059 L1941.07 27.2059 L1941.07 54.3874 Q1941.07 60.8284 1943.59 64.0691 Q1946.1 67.2693 1951.12 67.2693 Q1957.16 67.2693 1960.64 63.421 Q1964.16 59.5726 1964.16 52.9291 L1964.16 27.2059 L1971.62 27.2059 L1971.62 72.576 L1964.16 72.576 L1964.16 65.6084 Q1961.45 69.7404 1957.84 71.7658 Q1954.28 73.7508 1949.54 73.7508 Q1941.72 73.7508 1937.67 68.8897 Q1933.62 64.0286 1933.62 54.671 M1952.38 26.1121 L1952.38 26.1121 Z" fill="#000000" fill-rule="evenodd" fill-opacity="1" /><path clip-path="url(#clip590)" d="M 0 0 M2025.78 48.0275 L2025.78 51.6733 L1991.51 51.6733 Q1991.99 59.3701 1996.13 63.421 Q2000.3 67.4314 2007.71 67.4314 Q2012.01 67.4314 2016.02 66.3781 Q2020.07 65.3249 2024.04 63.2184 L2024.04 70.267 Q2020.03 71.9684 2015.81 72.8596 Q2011.6 73.7508 2007.27 73.7508 Q1996.41 73.7508 1990.05 67.4314 Q1983.73 61.1119 1983.73 50.3365 Q1983.73 39.1965 1989.73 32.6746 Q1995.76 26.1121 2005.97 26.1121 Q2015.12 26.1121 2020.43 32.0264 Q2025.78 37.9003 2025.78 48.0275 M2018.32 45.84 Q2018.24 39.7232 2014.88 36.0774 Q2011.56 32.4315 2006.05 32.4315 Q1999.81 32.4315 1996.04 35.9558 Q1992.32 39.4801 1991.75 45.8805 L2018.32 45.84 Z" fill="#000000" fill-rule="evenodd" fill-opacity="1" /><path clip-path="url(#clip590)" d="M 0 0 M2075.73 45.1919 L2075.73 72.576 L2068.27 72.576 L2068.27 45.4349 Q2068.27 38.994 2065.76 35.7938 Q2063.25 32.5936 2058.23 32.5936 Q2052.19 32.5936 2048.71 36.4419 Q2045.22 40.2903 2045.22 46.9338 L2045.22 72.576 L2037.73 72.576 L2037.73 27.2059 L2045.22 27.2059 L2045.22 34.2544 Q2047.9 30.163 2051.5 28.1376 Q2055.15 26.1121 2059.89 26.1121 Q2067.71 26.1121 2071.72 30.9732 Q2075.73 35.7938 2075.73 45.1919 Z" fill="#000000" fill-rule="evenodd" fill-opacity="1" /><path clip-path="url(#clip590)" d="M 0 0 M2123.24 28.9478 L2123.24 35.9153 Q2120.08 34.1734 2116.88 33.3227 Q2113.72 32.4315 2110.48 32.4315 Q2103.23 32.4315 2099.22 37.0496 Q2095.21 41.6271 2095.21 49.9314 Q2095.21 58.2358 2099.22 62.8538 Q2103.23 67.4314 2110.48 67.4314 Q2113.72 67.4314 2116.88 66.5807 Q2120.08 65.6895 2123.24 63.9476 L2123.24 70.8341 Q2120.12 72.2924 2116.76 73.0216 Q2113.44 73.7508 2109.67 73.7508 Q2099.42 73.7508 2093.39 67.3098 Q2087.35 60.8689 2087.35 49.9314 Q2087.35 38.832 2093.43 32.472 Q2099.55 26.1121 2110.16 26.1121 Q2113.6 26.1121 2116.88 26.8413 Q2120.16 27.5299 2123.24 28.9478 Z" fill="#000000" fill-rule="evenodd" fill-opacity="1" /><path clip-path="url(#clip590)" d="M 0 0 M2155.08 76.7889 Q2151.92 84.8907 2148.93 87.3618 Q2145.93 89.8329 2140.9 89.8329 L2134.95 89.8329 L2134.95 83.5945 L2139.33 83.5945 Q2142.4 83.5945 2144.11 82.1361 Q2145.81 80.6778 2147.87 75.2496 L2149.21 71.8468 L2130.86 27.2059 L2138.76 27.2059 L2152.94 62.6918 L2167.11 27.2059 L2175.01 27.2059 L2155.08 76.7889 Z" fill="#000000" fill-rule="evenodd" fill-opacity="1" /><polyline clip-path="url(#clip593)" style="stroke:#009af9; stroke-width:4; stroke-opacity:1; fill:none" points="
  354.695,1386.4 358.622,899.586 362.549,717.656 366.475,525.069 370.402,680.331 374.329,761.197 378.256,562.487 382.183,892.376 386.11,662.694 390.037,728.087 
  393.963,616.589 397.89,755.597 401.817,874.717 405.744,834.676 409.671,832.488 413.598,552.789 417.525,770.876 421.451,782.136 425.378,888.145 429.305,762.698 
  433.232,589.251 437.159,864.746 441.086,788.291 445.012,549.467 448.939,433.984 452.866,703.596 456.793,902.63 460.72,742.489 464.647,632.751 468.574,290.479 
  472.5,160.256 476.427,670.979 480.354,660.559 484.281,812.06 488.208,515.921 492.135,847.462 496.062,478.758 499.988,705.236 503.915,721.573 507.842,729.666 
  511.769,694.584 515.696,583.299 519.623,485.907 523.55,919.425 527.476,996.363 531.403,748.496 535.33,676.373 539.257,395.622 543.184,779.744 547.111,741.095 
  551.038,688.697 554.964,710.293 558.891,888.347 562.818,511.831 566.745,665.28 570.672,876.706 574.599,741.852 578.525,821.947 582.452,721.287 586.379,574.052 
  590.306,523.03 594.233,635.602 598.16,551.388 602.087,479.977 606.013,749.988 609.94,519.734 613.867,575.233 617.794,365.217 621.721,589.075 625.648,545.865 
  629.575,679.036 633.501,928.984 637.428,806.385 641.355,705.898 645.282,714.915 649.209,874.294 653.136,934.888 657.063,824.305 660.989,932.507 664.916,744.062 
  668.843,778.491 672.77,616.364 676.697,633.274 680.624,639.574 684.55,793.884 688.477,575.3 692.404,601.296 696.331,807.404 700.258,568.651 704.185,806.595 
  708.112,780.081 712.038,998.539 715.965,798.112 719.892,657.191 723.819,729.963 727.746,946.448 731.673,638.193 735.6,812.234 739.526,628.297 743.453,596.988 
  747.38,531.661 751.307,813.513 755.234,657.969 759.161,614.513 763.088,603.924 767.014,706.339 770.941,742.441 774.868,855.13 778.795,781.919 782.722,476.103 
  786.649,763.097 790.576,822.742 794.502,694.652 798.429,741.931 802.356,919.84 806.283,455.927 810.21,700.557 814.137,729.982 818.063,903.758 821.99,586.072 
  825.917,841.398 829.844,728.574 833.771,928.136 837.698,695.744 841.625,811.752 845.551,825.48 849.478,701.07 853.405,762.416 857.332,700.833 861.259,609.384 
  865.186,917.637 869.113,958.737 873.039,660.434 876.966,916.108 880.893,680.642 884.82,620.955 888.747,904.605 892.674,358.786 896.601,693.748 900.527,877.289 
  904.454,701.518 908.381,742.319 912.308,796.732 916.235,505.309 920.162,741.201 924.088,729.494 928.015,788.832 931.942,622.706 935.869,981.399 939.796,654.196 
  943.723,878.452 947.65,581.31 951.576,843.707 955.503,785.041 959.43,764.209 963.357,734.841 967.284,737.05 971.211,873.553 975.138,556.506 979.064,688.287 
  982.991,1054.04 986.918,735.336 990.845,901.792 994.772,781.679 998.699,621.865 1002.63,482.551 1006.55,427.773 1010.48,712.766 1014.41,761.398 1018.33,768.187 
  1022.26,796.084 1026.19,739.033 1030.11,645.034 1034.04,592.755 1037.97,750.824 1041.89,696.955 1045.82,844.862 1049.75,902.054 1053.67,784.209 1057.6,815.591 
  1061.53,574.921 1065.46,796.175 1069.38,729.226 1073.31,502.753 1077.24,759.61 1081.16,648.737 1085.09,738.253 1089.02,688.826 1092.94,529.92 1096.87,731.052 
  1100.8,879.881 1104.72,779.225 1108.65,650.749 1112.58,593.918 1116.5,665.02 1120.43,618.077 1124.36,977.894 1128.28,660.66 1132.21,681.481 1136.14,516.896 
  1140.07,776.411 1143.99,928.982 1147.92,779.983 1151.85,718.752 1155.77,709.295 1159.7,893.115 1163.63,742.866 1167.55,945.022 1171.48,878.851 1175.41,755.419 
  1179.33,729.851 1183.26,637.578 1187.19,675.674 1191.11,632.414 1195.04,645.119 1198.97,622.39 1202.89,537.685 1206.82,934.162 1210.75,711.304 1214.68,721.115 
  1218.6,872.822 1222.53,698.127 1226.46,780.661 1230.38,804.135 1234.31,783.981 1238.24,731.63 1242.16,828.526 1246.09,1019.1 1250.02,786.398 1253.94,907.081 
  1257.87,849.187 1261.8,591.095 1265.72,705.501 1269.65,790.579 1273.58,999.466 1277.51,769.904 1281.43,598.163 1285.36,692.576 1289.29,436.015 1293.21,805.27 
  1297.14,713.578 1301.07,786.592 1304.99,883.926 1308.92,973.193 1312.85,875.237 1316.77,1105.45 1320.7,712.958 1324.63,689.039 1328.55,622.889 1332.48,637.399 
  1336.41,626.557 1340.33,540.478 1344.26,671.681 1348.19,576.207 1352.12,865.319 1356.04,779.734 1359.97,791.274 1363.9,819.808 1367.82,644.064 1371.75,629.629 
  1375.68,563.338 1379.6,740.458 1383.53,531.03 1387.46,825.905 1391.38,743.804 1395.31,786.151 1399.24,758.058 1403.16,757.532 1407.09,911.943 1411.02,728.38 
  1414.95,714.918 1418.87,905.788 1422.8,703.156 1426.73,747.211 1430.65,542.756 1434.58,766.654 1438.51,512.871 1442.43,823.614 1446.36,615.138 1450.29,817.348 
  1454.21,915.49 1458.14,736.813 1462.07,872.083 1465.99,746.546 1469.92,615.237 1473.85,602.441 1477.77,616.877 1481.7,726.718 1485.63,731.771 1489.56,457.556 
  1493.48,536.287 1497.41,847.964 1501.34,900.125 1505.26,748.63 1509.19,688.222 1513.12,721.52 1517.04,878.432 1520.97,785.658 1524.9,740.655 1528.82,894.51 
  1532.75,661.777 1536.68,660.584 1540.6,747.085 1544.53,630.7 1548.46,691.758 1552.38,889.685 1556.31,798.762 1560.24,789.545 1564.17,812.572 1568.09,649.923 
  1572.02,536.581 1575.95,777.436 1579.87,712.8 1583.8,641.864 1587.73,593.039 1591.65,520.868 1595.58,805.577 1599.51,892.072 1603.43,739.937 1607.36,740.931 
  1611.29,548.638 1615.21,932.373 1619.14,639.486 1623.07,487.644 1627,918.259 1630.92,847.51 1634.85,793.074 1638.78,848.648 1642.7,646.889 1646.63,774.145 
  1650.56,932.458 1654.48,621.806 1658.41,573.032 1662.34,702.755 1666.26,460.373 1670.19,784.519 1674.12,800.987 1678.04,799.434 1681.97,525.982 1685.9,567.269 
  1689.82,794.374 1693.75,619.074 1697.68,766.708 1701.61,713.934 1705.53,918.09 1709.46,916.532 1713.39,694.359 1717.31,971.531 1721.24,777.3 1725.17,672.538 
  1729.09,771.398 1733.02,751.515 1736.95,757.593 1740.87,555.851 1744.8,912.145 1748.73,589.497 1752.65,521.522 1756.58,754.117 1760.51,670.634 1764.43,696.998 
  1768.36,608.416 1772.29,617.868 1776.22,778.913 1780.14,712.84 1784.07,473.859 1788,817.168 1791.92,528.983 1795.85,1011.37 1799.78,808.848 1803.7,977.871 
  1807.63,925.529 1811.56,883.308 1815.48,985.349 1819.41,826.255 1823.34,721.733 1827.26,910.226 1831.19,686.973 1835.12,870.907 1839.05,541.86 1842.97,476.584 
  1846.9,742.535 1850.83,575.267 1854.75,717.877 1858.68,711.245 1862.61,859.681 1866.53,726.993 1870.46,759.205 1874.39,839.784 1878.31,793.254 1882.24,641.324 
  1886.17,650.381 1890.09,840.643 1894.02,685.009 1897.95,668.294 1901.87,615.766 1905.8,724.157 1909.73,906.899 1913.66,838.732 1917.58,777.29 1921.51,958.297 
  1925.44,678.56 1929.36,659.457 1933.29,702.031 1937.22,506.682 1941.14,514.302 1945.07,711.156 1949,778.78 1952.92,592.232 1956.85,530.247 1960.78,740.589 
  1964.7,707.772 1968.63,545.069 1972.56,866.321 1976.48,737.466 1980.41,766.437 1984.34,870.309 1988.27,932.798 1992.19,902.087 1996.12,745.535 2000.05,707.62 
  2003.97,886.462 2007.9,806.329 2011.83,785.097 2015.75,787.056 2019.68,757.926 2023.61,386.79 2027.53,751.903 2031.46,805.256 2035.39,775.311 2039.31,948.184 
  2043.24,907.836 2047.17,777.01 2051.1,856.642 2055.02,745.238 2058.95,418.886 2062.88,699.062 2066.8,452.154 2070.73,854.249 2074.66,742.277 2078.58,575.167 
  2082.51,807.726 2086.44,914.997 2090.36,915.074 2094.29,841.588 2098.22,812.419 2102.14,808.361 2106.07,841.247 2110,655.213 2113.92,798.487 2117.85,816.145 
  2121.78,889.855 2125.71,595.641 2129.63,726.124 2133.56,713.623 2137.49,795.674 2141.41,610.681 2145.34,732.02 2149.27,729.076 2153.19,824.918 2157.12,738.847 
  2161.05,630.119 2164.97,549.459 2168.9,856.467 2172.83,664.909 2176.75,765.44 2180.68,712.449 2184.61,592.61 2188.53,797.933 2192.46,574.112 2196.39,951.168 
  2200.32,1016.86 2204.24,842.47 2208.17,771.618 2212.1,1041.28 2216.02,755.62 2219.95,822.813 2223.88,710.323 2227.8,824.617 2231.73,762.259 2235.66,790.09 
  2239.58,752.798 2243.51,811.391 2247.44,765.881 2251.36,768.295 2255.29,636.668 2259.22,606.507 2263.15,793.522 2267.07,746.004 2271,648.619 2274.93,670.689 
  2278.85,674.775 2282.78,869.648 2286.71,809.668 2290.63,837.646 2294.56,617.094 
  "/>
<polyline clip-path="url(#clip593)" style="stroke:#e26f46; stroke-width:4; stroke-opacity:1; fill:none" stroke-dasharray="16, 10" points="
  471.205,2722.89 471.205,-1176.24 
  "/>
<path clip-path="url(#clip590)" d="
M1702.76 287.756 L2284.21 287.756 L2284.21 166.796 L1702.76 166.796  Z
  " fill="#ffffff" fill-rule="evenodd" fill-opacity="1"/>
<polyline clip-path="url(#clip590)" style="stroke:#000000; stroke-width:4; stroke-opacity:1; fill:none" points="
  1702.76,287.756 2284.21,287.756 2284.21,166.796 1702.76,166.796 1702.76,287.756 
  "/>
<polyline clip-path="url(#clip590)" style="stroke:#e26f46; stroke-width:4; stroke-opacity:1; fill:none" stroke-dasharray="16, 10" points="
  1725.6,227.276 1862.69,227.276 
  "/>
<path clip-path="url(#clip590)" d="M 0 0 M1902.04 208.537 L1902.04 212.079 L1897.97 212.079 Q1895.67 212.079 1894.77 213.005 Q1893.89 213.931 1893.89 216.338 L1893.89 218.63 L1900.91 218.63 L1900.91 221.94 L1893.89 221.94 L1893.89 244.556 L1889.61 244.556 L1889.61 221.94 L1885.54 221.94 L1885.54 218.63 L1889.61 218.63 L1889.61 216.824 Q1889.61 212.496 1891.62 210.528 Q1893.64 208.537 1898.01 208.537 L1902.04 208.537 Z" fill="#000000" fill-rule="evenodd" fill-opacity="1" /><path clip-path="url(#clip590)" d="M 0 0 M1920.63 222.611 Q1919.91 222.195 1919.05 222.01 Q1918.22 221.801 1917.2 221.801 Q1913.59 221.801 1911.65 224.162 Q1909.72 226.5 1909.72 230.898 L1909.72 244.556 L1905.44 244.556 L1905.44 218.63 L1909.72 218.63 L1909.72 222.658 Q1911.07 220.297 1913.22 219.162 Q1915.37 218.005 1918.45 218.005 Q1918.89 218.005 1919.42 218.074 Q1919.96 218.121 1920.6 218.236 L1920.63 222.611 Z" fill="#000000" fill-rule="evenodd" fill-opacity="1" /><path clip-path="url(#clip590)" d="M 0 0 M1946.23 230.528 L1946.23 232.611 L1926.65 232.611 Q1926.92 237.009 1929.28 239.324 Q1931.67 241.616 1935.91 241.616 Q1938.36 241.616 1940.65 241.014 Q1942.97 240.412 1945.23 239.209 L1945.23 243.236 Q1942.94 244.208 1940.53 244.718 Q1938.13 245.227 1935.65 245.227 Q1929.45 245.227 1925.81 241.616 Q1922.2 238.005 1922.2 231.847 Q1922.2 225.482 1925.63 221.755 Q1929.08 218.005 1934.91 218.005 Q1940.14 218.005 1943.17 221.385 Q1946.23 224.741 1946.23 230.528 M1941.97 229.278 Q1941.92 225.783 1940 223.699 Q1938.1 221.616 1934.96 221.616 Q1931.39 221.616 1929.24 223.63 Q1927.11 225.644 1926.78 229.301 L1941.97 229.278 Z" fill="#000000" fill-rule="evenodd" fill-opacity="1" /><path clip-path="url(#clip590)" d="M 0 0 M1955.77 231.616 Q1955.77 236.315 1957.69 239 Q1959.63 241.662 1963.01 241.662 Q1966.39 241.662 1968.34 239 Q1970.28 236.315 1970.28 231.616 Q1970.28 226.917 1968.34 224.255 Q1966.39 221.57 1963.01 221.57 Q1959.63 221.57 1957.69 224.255 Q1955.77 226.917 1955.77 231.616 M1970.28 240.667 Q1968.94 242.982 1966.88 244.116 Q1964.84 245.227 1961.97 245.227 Q1957.27 245.227 1954.31 241.477 Q1951.37 237.727 1951.37 231.616 Q1951.37 225.505 1954.31 221.755 Q1957.27 218.005 1961.97 218.005 Q1964.84 218.005 1966.88 219.139 Q1968.94 220.25 1970.28 222.565 L1970.28 218.63 L1974.54 218.63 L1974.54 254.417 L1970.28 254.417 L1970.28 240.667 Z" fill="#000000" fill-rule="evenodd" fill-opacity="1" /><path clip-path="url(#clip590)" d="M 0 0 M1982.87 234.324 L1982.87 218.63 L1987.13 218.63 L1987.13 234.162 Q1987.13 237.843 1988.57 239.695 Q1990 241.523 1992.87 241.523 Q1996.32 241.523 1998.31 239.324 Q2000.33 237.125 2000.33 233.329 L2000.33 218.63 L2004.59 218.63 L2004.59 244.556 L2000.33 244.556 L2000.33 240.574 Q1998.78 242.935 1996.72 244.093 Q1994.68 245.227 1991.97 245.227 Q1987.5 245.227 1985.19 242.449 Q1982.87 239.671 1982.87 234.324 M1993.59 218.005 L1993.59 218.005 Z" fill="#000000" fill-rule="evenodd" fill-opacity="1" /><path clip-path="url(#clip590)" d="M 0 0 M2035.53 230.528 L2035.53 232.611 L2015.95 232.611 Q2016.23 237.009 2018.59 239.324 Q2020.97 241.616 2025.21 241.616 Q2027.66 241.616 2029.96 241.014 Q2032.27 240.412 2034.54 239.209 L2034.54 243.236 Q2032.25 244.208 2029.84 244.718 Q2027.43 245.227 2024.96 245.227 Q2018.75 245.227 2015.12 241.616 Q2011.51 238.005 2011.51 231.847 Q2011.51 225.482 2014.93 221.755 Q2018.38 218.005 2024.22 218.005 Q2029.45 218.005 2032.48 221.385 Q2035.53 224.741 2035.53 230.528 M2031.28 229.278 Q2031.23 225.783 2029.31 223.699 Q2027.41 221.616 2024.26 221.616 Q2020.7 221.616 2018.54 223.63 Q2016.41 225.644 2016.09 229.301 L2031.28 229.278 Z" fill="#000000" fill-rule="evenodd" fill-opacity="1" /><path clip-path="url(#clip590)" d="M 0 0 M2064.08 228.908 L2064.08 244.556 L2059.82 244.556 L2059.82 229.047 Q2059.82 225.366 2058.38 223.537 Q2056.95 221.709 2054.08 221.709 Q2050.63 221.709 2048.64 223.908 Q2046.65 226.107 2046.65 229.903 L2046.65 244.556 L2042.36 244.556 L2042.36 218.63 L2046.65 218.63 L2046.65 222.658 Q2048.17 220.32 2050.23 219.162 Q2052.32 218.005 2055.03 218.005 Q2059.49 218.005 2061.78 220.783 Q2064.08 223.537 2064.08 228.908 Z" fill="#000000" fill-rule="evenodd" fill-opacity="1" /><path clip-path="url(#clip590)" d="M 0 0 M2091.23 219.625 L2091.23 223.607 Q2089.42 222.611 2087.59 222.125 Q2085.79 221.616 2083.94 221.616 Q2079.79 221.616 2077.5 224.255 Q2075.21 226.871 2075.21 231.616 Q2075.21 236.361 2077.5 239 Q2079.79 241.616 2083.94 241.616 Q2085.79 241.616 2087.59 241.13 Q2089.42 240.621 2091.23 239.625 L2091.23 243.56 Q2089.45 244.394 2087.52 244.81 Q2085.63 245.227 2083.47 245.227 Q2077.62 245.227 2074.17 241.546 Q2070.72 237.866 2070.72 231.616 Q2070.72 225.273 2074.19 221.639 Q2077.69 218.005 2083.75 218.005 Q2085.72 218.005 2087.59 218.422 Q2089.47 218.815 2091.23 219.625 Z" fill="#000000" fill-rule="evenodd" fill-opacity="1" /><path clip-path="url(#clip590)" d="M 0 0 M2109.42 246.963 Q2107.62 251.593 2105.9 253.005 Q2104.19 254.417 2101.32 254.417 L2097.92 254.417 L2097.92 250.852 L2100.42 250.852 Q2102.18 250.852 2103.15 250.019 Q2104.12 249.185 2105.3 246.083 L2106.07 244.139 L2095.58 218.63 L2100.09 218.63 L2108.2 238.908 L2116.3 218.63 L2120.81 218.63 L2109.42 246.963 Z" fill="#000000" fill-rule="evenodd" fill-opacity="1" /><path clip-path="url(#clip590)" d="M 0 0 M2158.29 219.394 L2158.29 223.422 Q2156.48 222.496 2154.54 222.033 Q2152.59 221.57 2150.51 221.57 Q2147.34 221.57 2145.74 222.542 Q2144.17 223.514 2144.17 225.459 Q2144.17 226.94 2145.3 227.797 Q2146.44 228.63 2149.86 229.394 L2151.32 229.718 Q2155.86 230.69 2157.76 232.472 Q2159.68 234.232 2159.68 237.403 Q2159.68 241.014 2156.81 243.121 Q2153.96 245.227 2148.96 245.227 Q2146.88 245.227 2144.61 244.81 Q2142.36 244.417 2139.86 243.607 L2139.86 239.209 Q2142.22 240.435 2144.52 241.06 Q2146.81 241.662 2149.05 241.662 Q2152.06 241.662 2153.68 240.644 Q2155.3 239.602 2155.3 237.727 Q2155.3 235.991 2154.12 235.065 Q2152.96 234.139 2149.01 233.283 L2147.52 232.935 Q2143.57 232.102 2141.81 230.389 Q2140.05 228.653 2140.05 225.644 Q2140.05 221.986 2142.64 219.996 Q2145.23 218.005 2150 218.005 Q2152.36 218.005 2154.45 218.352 Q2156.53 218.699 2158.29 219.394 Z" fill="#000000" fill-rule="evenodd" fill-opacity="1" /><path clip-path="url(#clip590)" d="M 0 0 M2188.01 228.908 L2188.01 244.556 L2183.75 244.556 L2183.75 229.047 Q2183.75 225.366 2182.32 223.537 Q2180.88 221.709 2178.01 221.709 Q2174.56 221.709 2172.57 223.908 Q2170.58 226.107 2170.58 229.903 L2170.58 244.556 L2166.3 244.556 L2166.3 208.537 L2170.58 208.537 L2170.58 222.658 Q2172.11 220.32 2174.17 219.162 Q2176.25 218.005 2178.96 218.005 Q2183.43 218.005 2185.72 220.783 Q2188.01 223.537 2188.01 228.908 Z" fill="#000000" fill-rule="evenodd" fill-opacity="1" /><path clip-path="url(#clip590)" d="M 0 0 M2196.51 218.63 L2200.76 218.63 L2200.76 244.556 L2196.51 244.556 L2196.51 218.63 M2196.51 208.537 L2200.76 208.537 L2200.76 213.931 L2196.51 213.931 L2196.51 208.537 Z" fill="#000000" fill-rule="evenodd" fill-opacity="1" /><path clip-path="url(#clip590)" d="M 0 0 M2222.8 208.537 L2222.8 212.079 L2218.73 212.079 Q2216.44 212.079 2215.53 213.005 Q2214.65 213.931 2214.65 216.338 L2214.65 218.63 L2221.67 218.63 L2221.67 221.94 L2214.65 221.94 L2214.65 244.556 L2210.37 244.556 L2210.37 221.94 L2206.3 221.94 L2206.3 218.63 L2210.37 218.63 L2210.37 216.824 Q2210.37 212.496 2212.39 210.528 Q2214.4 208.537 2218.77 208.537 L2222.8 208.537 Z" fill="#000000" fill-rule="evenodd" fill-opacity="1" /><path clip-path="url(#clip590)" d="M 0 0 M2229.75 211.269 L2229.75 218.63 L2238.52 218.63 L2238.52 221.94 L2229.75 221.94 L2229.75 236.014 Q2229.75 239.185 2230.6 240.088 Q2231.48 240.991 2234.14 240.991 L2238.52 240.991 L2238.52 244.556 L2234.14 244.556 Q2229.21 244.556 2227.34 242.727 Q2225.46 240.875 2225.46 236.014 L2225.46 221.94 L2222.34 221.94 L2222.34 218.63 L2225.46 218.63 L2225.46 211.269 L2229.75 211.269 Z" fill="#000000" fill-rule="evenodd" fill-opacity="1" /></svg>
