<?xml version="1.0" encoding="utf-8"?>
<svg xmlns="http://www.w3.org/2000/svg" xmlns:xlink="http://www.w3.org/1999/xlink" width="600" height="400" viewBox="0 0 2400 1600">
<defs>
  <clipPath id="clip290">
    <rect x="0" y="0" width="2400" height="1600"/>
  </clipPath>
</defs>
<path clip-path="url(#clip290)" d="
M0 1600 L2400 1600 L2400 0 L0 0  Z
  " fill="#ffffff" fill-rule="evenodd" fill-opacity="1"/>
<defs>
  <clipPath id="clip291">
    <rect x="480" y="0" width="1681" height="1600"/>
  </clipPath>
</defs>
<defs>
  <clipPath id="clip292">
    <rect x="224" y="123" width="2130" height="1305"/>
  </clipPath>
</defs>
<path clip-path="url(#clip290)" d="
M265.087 1427.15 L2352.76 1427.15 L2352.76 123.472 L265.087 123.472  Z
  " fill="#ffffff" fill-rule="evenodd" fill-opacity="1"/>
<defs>
  <clipPath id="clip293">
    <rect x="265" y="123" width="2089" height="1305"/>
  </clipPath>
</defs>
<polyline clip-path="url(#clip293)" style="stroke:#000000; stroke-width:2; stroke-opacity:0.1; fill:none" points="
  324.172,1427.15 324.172,123.472 
  "/>
<polyline clip-path="url(#clip293)" style="stroke:#000000; stroke-width:2; stroke-opacity:0.1; fill:none" points="
  817.04,1427.15 817.04,123.472 
  "/>
<polyline clip-path="url(#clip293)" style="stroke:#000000; stroke-width:2; stroke-opacity:0.1; fill:none" points="
  1309.91,1427.15 1309.91,123.472 
  "/>
<polyline clip-path="url(#clip293)" style="stroke:#000000; stroke-width:2; stroke-opacity:0.1; fill:none" points="
  1802.77,1427.15 1802.77,123.472 
  "/>
<polyline clip-path="url(#clip293)" style="stroke:#000000; stroke-width:2; stroke-opacity:0.1; fill:none" points="
  2295.64,1427.15 2295.64,123.472 
  "/>
<polyline clip-path="url(#clip290)" style="stroke:#000000; stroke-width:4; stroke-opacity:1; fill:none" points="
  265.087,1427.15 2352.76,1427.15 
  "/>
<polyline clip-path="url(#clip290)" style="stroke:#000000; stroke-width:4; stroke-opacity:1; fill:none" points="
  324.172,1427.15 324.172,1411.5 
  "/>
<polyline clip-path="url(#clip290)" style="stroke:#000000; stroke-width:4; stroke-opacity:1; fill:none" points="
  817.04,1427.15 817.04,1411.5 
  "/>
<polyline clip-path="url(#clip290)" style="stroke:#000000; stroke-width:4; stroke-opacity:1; fill:none" points="
  1309.91,1427.15 1309.91,1411.5 
  "/>
<polyline clip-path="url(#clip290)" style="stroke:#000000; stroke-width:4; stroke-opacity:1; fill:none" points="
  1802.77,1427.15 1802.77,1411.5 
  "/>
<polyline clip-path="url(#clip290)" style="stroke:#000000; stroke-width:4; stroke-opacity:1; fill:none" points="
  2295.64,1427.15 2295.64,1411.5 
  "/>
<path clip-path="url(#clip290)" d="M 0 0 M301.556 1456.34 Q297.945 1456.34 296.117 1459.9 Q294.311 1463.44 294.311 1470.57 Q294.311 1477.68 296.117 1481.25 Q297.945 1484.79 301.556 1484.79 Q305.191 1484.79 306.996 1481.25 Q308.825 1477.68 308.825 1470.57 Q308.825 1463.44 306.996 1459.9 Q305.191 1456.34 301.556 1456.34 M301.556 1452.63 Q307.367 1452.63 310.422 1457.24 Q313.501 1461.82 313.501 1470.57 Q313.501 1479.3 310.422 1483.91 Q307.367 1488.49 301.556 1488.49 Q295.746 1488.49 292.668 1483.91 Q289.612 1479.3 289.612 1470.57 Q289.612 1461.82 292.668 1457.24 Q295.746 1452.63 301.556 1452.63 Z" fill="#000000" fill-rule="evenodd" fill-opacity="1" /><path clip-path="url(#clip290)" d="M 0 0 M321.718 1481.94 L326.603 1481.94 L326.603 1487.82 L321.718 1487.82 L321.718 1481.94 Z" fill="#000000" fill-rule="evenodd" fill-opacity="1" /><path clip-path="url(#clip290)" d="M 0 0 M346.788 1456.34 Q343.177 1456.34 341.348 1459.9 Q339.542 1463.44 339.542 1470.57 Q339.542 1477.68 341.348 1481.25 Q343.177 1484.79 346.788 1484.79 Q350.422 1484.79 352.227 1481.25 Q354.056 1477.68 354.056 1470.57 Q354.056 1463.44 352.227 1459.9 Q350.422 1456.34 346.788 1456.34 M346.788 1452.63 Q352.598 1452.63 355.653 1457.24 Q358.732 1461.82 358.732 1470.57 Q358.732 1479.3 355.653 1483.91 Q352.598 1488.49 346.788 1488.49 Q340.978 1488.49 337.899 1483.91 Q334.843 1479.3 334.843 1470.57 Q334.843 1461.82 337.899 1457.24 Q340.978 1452.63 346.788 1452.63 Z" fill="#000000" fill-rule="evenodd" fill-opacity="1" /><path clip-path="url(#clip290)" d="M 0 0 M788.776 1483.88 L805.095 1483.88 L805.095 1487.82 L783.151 1487.82 L783.151 1483.88 Q785.813 1481.13 790.396 1476.5 Q795.003 1471.85 796.183 1470.51 Q798.429 1467.98 799.308 1466.25 Q800.211 1464.49 800.211 1462.8 Q800.211 1460.04 798.267 1458.31 Q796.345 1456.57 793.243 1456.57 Q791.044 1456.57 788.591 1457.33 Q786.16 1458.1 783.382 1459.65 L783.382 1454.93 Q786.206 1453.79 788.66 1453.21 Q791.114 1452.63 793.151 1452.63 Q798.521 1452.63 801.716 1455.32 Q804.91 1458.01 804.91 1462.5 Q804.91 1464.63 804.1 1466.55 Q803.313 1468.44 801.206 1471.04 Q800.628 1471.71 797.526 1474.93 Q794.424 1478.12 788.776 1483.88 Z" fill="#000000" fill-rule="evenodd" fill-opacity="1" /><path clip-path="url(#clip290)" d="M 0 0 M814.91 1481.94 L819.794 1481.94 L819.794 1487.82 L814.91 1487.82 L814.91 1481.94 Z" fill="#000000" fill-rule="evenodd" fill-opacity="1" /><path clip-path="url(#clip290)" d="M 0 0 M830.026 1453.26 L848.382 1453.26 L848.382 1457.19 L834.308 1457.19 L834.308 1465.67 Q835.327 1465.32 836.345 1465.16 Q837.364 1464.97 838.382 1464.97 Q844.169 1464.97 847.549 1468.14 Q850.928 1471.32 850.928 1476.73 Q850.928 1482.31 847.456 1485.41 Q843.984 1488.49 837.665 1488.49 Q835.489 1488.49 833.22 1488.12 Q830.975 1487.75 828.567 1487.01 L828.567 1482.31 Q830.651 1483.44 832.873 1484 Q835.095 1484.56 837.572 1484.56 Q841.577 1484.56 843.914 1482.45 Q846.252 1480.34 846.252 1476.73 Q846.252 1473.12 843.914 1471.01 Q841.577 1468.91 837.572 1468.91 Q835.697 1468.91 833.822 1469.32 Q831.97 1469.74 830.026 1470.62 L830.026 1453.26 Z" fill="#000000" fill-rule="evenodd" fill-opacity="1" /><path clip-path="url(#clip290)" d="M 0 0 M1277.07 1453.26 L1295.43 1453.26 L1295.43 1457.19 L1281.35 1457.19 L1281.35 1465.67 Q1282.37 1465.32 1283.39 1465.16 Q1284.41 1464.97 1285.43 1464.97 Q1291.22 1464.97 1294.59 1468.14 Q1297.97 1471.32 1297.97 1476.73 Q1297.97 1482.31 1294.5 1485.41 Q1291.03 1488.49 1284.71 1488.49 Q1282.53 1488.49 1280.27 1488.12 Q1278.02 1487.75 1275.61 1487.01 L1275.61 1482.31 Q1277.7 1483.44 1279.92 1484 Q1282.14 1484.56 1284.62 1484.56 Q1288.62 1484.56 1290.96 1482.45 Q1293.3 1480.34 1293.3 1476.73 Q1293.3 1473.12 1290.96 1471.01 Q1288.62 1468.91 1284.62 1468.91 Q1282.74 1468.91 1280.87 1469.32 Q1279.02 1469.74 1277.07 1470.62 L1277.07 1453.26 Z" fill="#000000" fill-rule="evenodd" fill-opacity="1" /><path clip-path="url(#clip290)" d="M 0 0 M1307.19 1481.94 L1312.07 1481.94 L1312.07 1487.82 L1307.19 1487.82 L1307.19 1481.94 Z" fill="#000000" fill-rule="evenodd" fill-opacity="1" /><path clip-path="url(#clip290)" d="M 0 0 M1332.26 1456.34 Q1328.65 1456.34 1326.82 1459.9 Q1325.01 1463.44 1325.01 1470.57 Q1325.01 1477.68 1326.82 1481.25 Q1328.65 1484.79 1332.26 1484.79 Q1335.89 1484.79 1337.7 1481.25 Q1339.53 1477.68 1339.53 1470.57 Q1339.53 1463.44 1337.7 1459.9 Q1335.89 1456.34 1332.26 1456.34 M1332.26 1452.63 Q1338.07 1452.63 1341.12 1457.24 Q1344.2 1461.82 1344.2 1470.57 Q1344.2 1479.3 1341.12 1483.91 Q1338.07 1488.49 1332.26 1488.49 Q1326.45 1488.49 1323.37 1483.91 Q1320.31 1479.3 1320.31 1470.57 Q1320.31 1461.82 1323.37 1457.24 Q1326.45 1452.63 1332.26 1452.63 Z" fill="#000000" fill-rule="evenodd" fill-opacity="1" /><path clip-path="url(#clip290)" d="M 0 0 M1769.09 1453.26 L1791.32 1453.26 L1791.32 1455.25 L1778.77 1487.82 L1773.89 1487.82 L1785.69 1457.19 L1769.09 1457.19 L1769.09 1453.26 Z" fill="#000000" fill-rule="evenodd" fill-opacity="1" /><path clip-path="url(#clip290)" d="M 0 0 M1800.44 1481.94 L1805.32 1481.94 L1805.32 1487.82 L1800.44 1487.82 L1800.44 1481.94 Z" fill="#000000" fill-rule="evenodd" fill-opacity="1" /><path clip-path="url(#clip290)" d="M 0 0 M1815.55 1453.26 L1833.91 1453.26 L1833.91 1457.19 L1819.83 1457.19 L1819.83 1465.67 Q1820.85 1465.32 1821.87 1465.16 Q1822.89 1464.97 1823.91 1464.97 Q1829.7 1464.97 1833.08 1468.14 Q1836.46 1471.32 1836.46 1476.73 Q1836.46 1482.31 1832.98 1485.41 Q1829.51 1488.49 1823.19 1488.49 Q1821.02 1488.49 1818.75 1488.12 Q1816.5 1487.75 1814.09 1487.01 L1814.09 1482.31 Q1816.18 1483.44 1818.4 1484 Q1820.62 1484.56 1823.1 1484.56 Q1827.1 1484.56 1829.44 1482.45 Q1831.78 1480.34 1831.78 1476.73 Q1831.78 1473.12 1829.44 1471.01 Q1827.1 1468.91 1823.1 1468.91 Q1821.22 1468.91 1819.35 1469.32 Q1817.5 1469.74 1815.55 1470.62 L1815.55 1453.26 Z" fill="#000000" fill-rule="evenodd" fill-opacity="1" /><path clip-path="url(#clip290)" d="M 0 0 M2247.71 1483.88 L2255.35 1483.88 L2255.35 1457.52 L2247.04 1459.19 L2247.04 1454.93 L2255.31 1453.26 L2259.98 1453.26 L2259.98 1483.88 L2267.62 1483.88 L2267.62 1487.82 L2247.71 1487.82 L2247.71 1483.88 Z" fill="#000000" fill-rule="evenodd" fill-opacity="1" /><path clip-path="url(#clip290)" d="M 0 0 M2287.07 1456.34 Q2283.45 1456.34 2281.63 1459.9 Q2279.82 1463.44 2279.82 1470.57 Q2279.82 1477.68 2281.63 1481.25 Q2283.45 1484.79 2287.07 1484.79 Q2290.7 1484.79 2292.51 1481.25 Q2294.33 1477.68 2294.33 1470.57 Q2294.33 1463.44 2292.51 1459.9 Q2290.7 1456.34 2287.07 1456.34 M2287.07 1452.63 Q2292.88 1452.63 2295.93 1457.24 Q2299.01 1461.82 2299.01 1470.57 Q2299.01 1479.3 2295.93 1483.91 Q2292.88 1488.49 2287.07 1488.49 Q2281.26 1488.49 2278.18 1483.91 Q2275.12 1479.3 2275.12 1470.57 Q2275.12 1461.82 2278.18 1457.24 Q2281.26 1452.63 2287.07 1452.63 Z" fill="#000000" fill-rule="evenodd" fill-opacity="1" /><path clip-path="url(#clip290)" d="M 0 0 M2307.23 1481.94 L2312.11 1481.94 L2312.11 1487.82 L2307.23 1487.82 L2307.23 1481.94 Z" fill="#000000" fill-rule="evenodd" fill-opacity="1" /><path clip-path="url(#clip290)" d="M 0 0 M2332.3 1456.34 Q2328.69 1456.34 2326.86 1459.9 Q2325.05 1463.44 2325.05 1470.57 Q2325.05 1477.68 2326.86 1481.25 Q2328.69 1484.79 2332.3 1484.79 Q2335.93 1484.79 2337.74 1481.25 Q2339.57 1477.68 2339.57 1470.57 Q2339.57 1463.44 2337.74 1459.9 Q2335.93 1456.34 2332.3 1456.34 M2332.3 1452.63 Q2338.11 1452.63 2341.16 1457.24 Q2344.24 1461.82 2344.24 1470.57 Q2344.24 1479.3 2341.16 1483.91 Q2338.11 1488.49 2332.3 1488.49 Q2326.49 1488.49 2323.41 1483.91 Q2320.35 1479.3 2320.35 1470.57 Q2320.35 1461.82 2323.41 1457.24 Q2326.49 1452.63 2332.3 1452.63 Z" fill="#000000" fill-rule="evenodd" fill-opacity="1" /><path clip-path="url(#clip290)" d="M 0 0 M1259.45 1530.6 Q1259.45 1532.85 1256.2 1532.85 L1245.12 1532.85 L1240.7 1555.43 Q1240.61 1556.01 1240.48 1556.33 Q1240.38 1556.65 1240.09 1557.2 Q1239.84 1557.71 1239.29 1557.97 Q1238.77 1558.26 1238 1558.26 Q1237.03 1558.26 1236.55 1557.68 Q1236.1 1557.13 1236.1 1556.46 Q1236.1 1556.04 1236.74 1554.04 L1243.22 1532.85 L1237.74 1532.85 Q1232.59 1532.85 1229.37 1537.94 Q1228.85 1538.61 1228.56 1538.68 Q1228.43 1538.71 1228.31 1538.71 Q1227.95 1538.71 1227.73 1538.55 Q1227.53 1538.39 1227.53 1538.23 L1227.5 1538.07 Q1227.5 1537.84 1228.02 1536.94 Q1228.56 1536.01 1229.53 1534.62 Q1230.53 1533.24 1231.53 1532.14 Q1232.85 1530.72 1234.33 1529.98 Q1235.81 1529.21 1236.55 1529.11 Q1237.32 1529.02 1238.32 1529.02 L1256.81 1529.02 Q1257.65 1529.02 1258.1 1529.08 Q1258.55 1529.11 1259 1529.5 Q1259.45 1529.85 1259.45 1530.6 Z" fill="#000000" fill-rule="evenodd" fill-opacity="1" /><path clip-path="url(#clip290)" d="M 0 0 M1277.74 1540.97 Q1277.74 1529.82 1281.9 1520.84 Q1283.67 1517.07 1286.15 1513.91 Q1288.63 1510.76 1290.27 1509.37 Q1291.91 1507.99 1292.36 1507.99 Q1293.01 1507.99 1293.04 1508.63 Q1293.04 1508.95 1292.17 1509.76 Q1281.54 1520.58 1281.57 1540.97 Q1281.57 1561.42 1291.91 1571.82 Q1293.04 1572.95 1293.04 1573.3 Q1293.04 1573.94 1292.36 1573.94 Q1291.91 1573.94 1290.33 1572.62 Q1288.76 1571.3 1286.31 1568.28 Q1283.86 1565.25 1282.09 1561.55 Q1277.74 1552.56 1277.74 1540.97 Z" fill="#000000" fill-rule="evenodd" fill-opacity="1" /><path clip-path="url(#clip290)" d="M 0 0 M1303.07 1557.45 L1303.07 1555.43 Q1306.58 1555.43 1307.38 1555.01 Q1308.19 1554.56 1308.19 1552.43 L1308.19 1534.75 Q1308.19 1532.3 1307.32 1531.69 Q1306.48 1531.08 1303.07 1531.08 L1303.07 1529.02 L1312.34 1528.31 L1312.34 1535.23 Q1315.44 1528.31 1322.1 1528.31 Q1327.06 1528.31 1329.03 1530.76 Q1330.48 1532.4 1330.77 1534.23 Q1331.09 1536.07 1331.09 1540.84 L1331.09 1553.43 Q1331.15 1554.81 1332.21 1555.14 Q1333.28 1555.43 1336.24 1555.43 L1336.24 1557.45 Q1329.51 1557.26 1328.83 1557.26 Q1328.32 1557.26 1321.39 1557.45 L1321.39 1555.43 Q1324.9 1555.43 1325.71 1555.01 Q1326.55 1554.56 1326.55 1552.43 L1326.55 1537.07 Q1326.55 1533.72 1325.52 1531.75 Q1324.49 1529.76 1321.65 1529.76 Q1318.24 1529.76 1315.5 1532.62 Q1312.76 1535.49 1312.76 1540.32 L1312.76 1552.43 Q1312.76 1554.56 1313.57 1555.01 Q1314.4 1555.43 1317.88 1555.43 L1317.88 1557.45 Q1311.15 1557.26 1310.51 1557.26 Q1309.99 1557.26 1303.07 1557.45 Z" fill="#000000" fill-rule="evenodd" fill-opacity="1" /><path clip-path="url(#clip290)" d="M 0 0 M1339.3 1556.59 L1339.3 1547.89 Q1339.3 1547.15 1339.34 1546.89 Q1339.37 1546.63 1339.56 1546.44 Q1339.76 1546.25 1340.14 1546.25 Q1340.59 1546.25 1340.75 1546.44 Q1340.95 1546.63 1341.08 1547.37 Q1342.07 1551.92 1344.2 1554.33 Q1346.36 1556.71 1350.25 1556.71 Q1353.96 1556.71 1355.83 1555.07 Q1357.69 1553.43 1357.69 1550.72 Q1357.69 1545.89 1350.83 1544.67 Q1346.87 1543.86 1345.23 1543.35 Q1343.59 1542.8 1342.14 1541.61 Q1339.3 1539.29 1339.3 1536.01 Q1339.3 1532.72 1341.78 1530.31 Q1344.3 1527.89 1349.84 1527.89 Q1353.54 1527.89 1356.05 1529.76 Q1356.79 1529.18 1357.18 1528.7 Q1358.05 1527.89 1358.5 1527.89 Q1359.01 1527.89 1359.11 1528.24 Q1359.21 1528.57 1359.21 1529.5 L1359.21 1536.13 Q1359.21 1536.88 1359.18 1537.13 Q1359.14 1537.39 1358.95 1537.58 Q1358.76 1537.74 1358.34 1537.74 Q1357.6 1537.74 1357.57 1537.13 Q1357.05 1529.15 1349.84 1529.15 Q1345.94 1529.15 1344.2 1530.66 Q1342.46 1532.14 1342.46 1534.17 Q1342.46 1535.3 1342.98 1536.17 Q1343.52 1537 1344.2 1537.52 Q1344.91 1538 1346.2 1538.49 Q1347.49 1538.94 1348.26 1539.1 Q1349.06 1539.26 1350.58 1539.58 Q1355.86 1540.58 1358.08 1542.74 Q1360.85 1545.51 1360.85 1549.02 Q1360.85 1552.91 1358.21 1555.55 Q1355.57 1558.2 1350.25 1558.2 Q1345.97 1558.2 1342.98 1555.33 Q1342.59 1555.72 1342.3 1556.07 Q1342.01 1556.39 1341.88 1556.52 Q1341.78 1556.65 1341.75 1556.75 Q1341.72 1556.81 1341.66 1556.88 Q1340.34 1558.2 1340.01 1558.2 Q1339.5 1558.2 1339.4 1557.84 Q1339.3 1557.52 1339.3 1556.59 Z" fill="#000000" fill-rule="evenodd" fill-opacity="1" /><path clip-path="url(#clip290)" d="M 0 0 M1365.01 1573.3 Q1365.01 1572.98 1365.85 1572.17 Q1376.48 1561.35 1376.48 1540.97 Q1376.48 1520.51 1366.27 1510.18 Q1365.01 1508.99 1365.01 1508.63 Q1365.01 1507.99 1365.66 1507.99 Q1366.11 1507.99 1367.69 1509.31 Q1369.3 1510.63 1371.71 1513.65 Q1374.16 1516.68 1375.96 1520.39 Q1380.31 1529.37 1380.31 1540.97 Q1380.31 1552.11 1376.16 1561.09 Q1374.39 1564.86 1371.91 1568.02 Q1369.43 1571.17 1367.78 1572.56 Q1366.14 1573.94 1365.66 1573.94 Q1365.01 1573.94 1365.01 1573.3 Z" fill="#000000" fill-rule="evenodd" fill-opacity="1" /><polyline clip-path="url(#clip293)" style="stroke:#000000; stroke-width:2; stroke-opacity:0.1; fill:none" points="
  265.087,1281.53 2352.76,1281.53 
  "/>
<polyline clip-path="url(#clip293)" style="stroke:#000000; stroke-width:2; stroke-opacity:0.1; fill:none" points="
  265.087,1042.04 2352.76,1042.04 
  "/>
<polyline clip-path="url(#clip293)" style="stroke:#000000; stroke-width:2; stroke-opacity:0.1; fill:none" points="
  265.087,802.543 2352.76,802.543 
  "/>
<polyline clip-path="url(#clip293)" style="stroke:#000000; stroke-width:2; stroke-opacity:0.1; fill:none" points="
  265.087,563.05 2352.76,563.05 
  "/>
<polyline clip-path="url(#clip293)" style="stroke:#000000; stroke-width:2; stroke-opacity:0.1; fill:none" points="
  265.087,323.557 2352.76,323.557 
  "/>
<polyline clip-path="url(#clip290)" style="stroke:#000000; stroke-width:4; stroke-opacity:1; fill:none" points="
  265.087,1427.15 265.087,123.472 
  "/>
<polyline clip-path="url(#clip290)" style="stroke:#000000; stroke-width:4; stroke-opacity:1; fill:none" points="
  265.087,1281.53 290.139,1281.53 
  "/>
<polyline clip-path="url(#clip290)" style="stroke:#000000; stroke-width:4; stroke-opacity:1; fill:none" points="
  265.087,1042.04 290.139,1042.04 
  "/>
<polyline clip-path="url(#clip290)" style="stroke:#000000; stroke-width:4; stroke-opacity:1; fill:none" points="
  265.087,802.543 290.139,802.543 
  "/>
<polyline clip-path="url(#clip290)" style="stroke:#000000; stroke-width:4; stroke-opacity:1; fill:none" points="
  265.087,563.05 290.139,563.05 
  "/>
<polyline clip-path="url(#clip290)" style="stroke:#000000; stroke-width:4; stroke-opacity:1; fill:none" points="
  265.087,323.557 290.139,323.557 
  "/>
<path clip-path="url(#clip290)" d="M 0 0 M177.791 1294.87 L185.43 1294.87 L185.43 1268.51 L177.12 1270.17 L177.12 1265.91 L185.384 1264.25 L190.06 1264.25 L190.06 1294.87 L197.698 1294.87 L197.698 1298.81 L177.791 1298.81 L177.791 1294.87 Z" fill="#000000" fill-rule="evenodd" fill-opacity="1" /><path clip-path="url(#clip290)" d="M 0 0 M217.143 1267.33 Q213.532 1267.33 211.703 1270.89 Q209.897 1274.43 209.897 1281.56 Q209.897 1288.67 211.703 1292.23 Q213.532 1295.78 217.143 1295.78 Q220.777 1295.78 222.582 1292.23 Q224.411 1288.67 224.411 1281.56 Q224.411 1274.43 222.582 1270.89 Q220.777 1267.33 217.143 1267.33 M217.143 1263.62 Q222.953 1263.62 226.008 1268.23 Q229.087 1272.81 229.087 1281.56 Q229.087 1290.29 226.008 1294.9 Q222.953 1299.48 217.143 1299.48 Q211.333 1299.48 208.254 1294.9 Q205.198 1290.29 205.198 1281.56 Q205.198 1272.81 208.254 1268.23 Q211.333 1263.62 217.143 1263.62 Z" fill="#000000" fill-rule="evenodd" fill-opacity="1" /><path clip-path="url(#clip290)" d="M 0 0 M179.388 1055.38 L187.027 1055.38 L187.027 1029.01 L178.717 1030.68 L178.717 1026.42 L186.981 1024.76 L191.657 1024.76 L191.657 1055.38 L199.296 1055.38 L199.296 1059.32 L179.388 1059.32 L179.388 1055.38 Z" fill="#000000" fill-rule="evenodd" fill-opacity="1" /><path clip-path="url(#clip290)" d="M 0 0 M212.768 1055.38 L229.087 1055.38 L229.087 1059.32 L207.143 1059.32 L207.143 1055.38 Q209.805 1052.63 214.388 1048 Q218.995 1043.34 220.175 1042 Q222.42 1039.48 223.3 1037.74 Q224.203 1035.98 224.203 1034.29 Q224.203 1031.54 222.258 1029.8 Q220.337 1028.07 217.235 1028.07 Q215.036 1028.07 212.583 1028.83 Q210.152 1029.59 207.374 1031.14 L207.374 1026.42 Q210.198 1025.29 212.652 1024.71 Q215.106 1024.13 217.143 1024.13 Q222.513 1024.13 225.707 1026.82 Q228.902 1029.5 228.902 1033.99 Q228.902 1036.12 228.092 1038.04 Q227.305 1039.94 225.198 1042.53 Q224.62 1043.2 221.518 1046.42 Q218.416 1049.62 212.768 1055.38 Z" fill="#000000" fill-rule="evenodd" fill-opacity="1" /><path clip-path="url(#clip290)" d="M 0 0 M177.305 815.887 L184.944 815.887 L184.944 789.522 L176.634 791.188 L176.634 786.929 L184.897 785.263 L189.573 785.263 L189.573 815.887 L197.212 815.887 L197.212 819.823 L177.305 819.823 L177.305 815.887 Z" fill="#000000" fill-rule="evenodd" fill-opacity="1" /><path clip-path="url(#clip290)" d="M 0 0 M219.504 789.337 L207.698 807.786 L219.504 807.786 L219.504 789.337 M218.277 785.263 L224.157 785.263 L224.157 807.786 L229.087 807.786 L229.087 811.674 L224.157 811.674 L224.157 819.823 L219.504 819.823 L219.504 811.674 L203.902 811.674 L203.902 807.161 L218.277 785.263 Z" fill="#000000" fill-rule="evenodd" fill-opacity="1" /><path clip-path="url(#clip290)" d="M 0 0 M177.629 576.395 L185.268 576.395 L185.268 550.029 L176.958 551.696 L176.958 547.436 L185.222 545.77 L189.897 545.77 L189.897 576.395 L197.536 576.395 L197.536 580.33 L177.629 580.33 L177.629 576.395 Z" fill="#000000" fill-rule="evenodd" fill-opacity="1" /><path clip-path="url(#clip290)" d="M 0 0 M217.559 561.186 Q214.411 561.186 212.559 563.339 Q210.731 565.492 210.731 569.242 Q210.731 572.969 212.559 575.145 Q214.411 577.297 217.559 577.297 Q220.707 577.297 222.536 575.145 Q224.388 572.969 224.388 569.242 Q224.388 565.492 222.536 563.339 Q220.707 561.186 217.559 561.186 M226.842 546.534 L226.842 550.793 Q225.082 549.96 223.277 549.52 Q221.495 549.08 219.735 549.08 Q215.106 549.08 212.652 552.205 Q210.221 555.33 209.874 561.649 Q211.24 559.635 213.3 558.571 Q215.36 557.483 217.837 557.483 Q223.045 557.483 226.055 560.654 Q229.087 563.802 229.087 569.242 Q229.087 574.566 225.939 577.784 Q222.791 581.001 217.559 581.001 Q211.564 581.001 208.393 576.418 Q205.221 571.811 205.221 563.085 Q205.221 554.89 209.11 550.029 Q212.999 545.145 219.55 545.145 Q221.309 545.145 223.092 545.492 Q224.897 545.839 226.842 546.534 Z" fill="#000000" fill-rule="evenodd" fill-opacity="1" /><path clip-path="url(#clip290)" d="M 0 0 M177.884 336.902 L185.522 336.902 L185.522 310.536 L177.212 312.203 L177.212 307.944 L185.476 306.277 L190.152 306.277 L190.152 336.902 L197.791 336.902 L197.791 340.837 L177.884 340.837 L177.884 336.902 Z" fill="#000000" fill-rule="evenodd" fill-opacity="1" /><path clip-path="url(#clip290)" d="M 0 0 M217.235 324.425 Q213.902 324.425 211.981 326.208 Q210.083 327.99 210.083 331.115 Q210.083 334.24 211.981 336.022 Q213.902 337.805 217.235 337.805 Q220.569 337.805 222.49 336.022 Q224.411 334.217 224.411 331.115 Q224.411 327.99 222.49 326.208 Q220.592 324.425 217.235 324.425 M212.559 322.434 Q209.55 321.694 207.86 319.633 Q206.194 317.573 206.194 314.61 Q206.194 310.467 209.133 308.059 Q212.096 305.652 217.235 305.652 Q222.397 305.652 225.337 308.059 Q228.277 310.467 228.277 314.61 Q228.277 317.573 226.587 319.633 Q224.92 321.694 221.934 322.434 Q225.314 323.221 227.189 325.513 Q229.087 327.805 229.087 331.115 Q229.087 336.138 226.008 338.823 Q222.953 341.508 217.235 341.508 Q211.518 341.508 208.439 338.823 Q205.383 336.138 205.383 331.115 Q205.383 327.805 207.282 325.513 Q209.18 323.221 212.559 322.434 M210.846 315.05 Q210.846 317.735 212.513 319.24 Q214.203 320.745 217.235 320.745 Q220.245 320.745 221.934 319.24 Q223.647 317.735 223.647 315.05 Q223.647 312.365 221.934 310.86 Q220.245 309.356 217.235 309.356 Q214.203 309.356 212.513 310.86 Q210.846 312.365 210.846 315.05 Z" fill="#000000" fill-rule="evenodd" fill-opacity="1" /><path clip-path="url(#clip290)" d="M 0 0 M94.6485 828.016 L111.073 833.684 L111.073 888.37 Q111.073 889.111 111.041 889.4 Q111.009 889.69 110.848 889.916 Q110.687 890.141 110.333 890.141 Q110.043 890.141 109.302 889.561 L80.3491 866.148 L47.2415 890.206 Q45.7278 890.206 45.4379 889.948 Q45.1159 889.69 45.1159 888.37 L45.1159 833.684 L60.5425 828.016 L60.5425 829.658 Q58.5457 830.399 56.871 831.591 Q55.1641 832.75 53.9403 834.103 Q52.7165 835.423 51.7503 837.162 Q50.7519 838.869 50.14 840.48 Q49.4959 842.058 49.045 844.022 Q48.5619 845.987 48.3365 847.565 Q48.0788 849.111 47.95 851.043 Q47.8212 852.976 47.789 854.199 Q47.7568 855.423 47.7568 856.969 L47.7568 883.088 L77.1607 861.671 Q77.9014 861.188 78.0947 861.188 Q78.3845 861.188 79.1575 861.8 L107.434 884.666 L107.434 856.647 Q107.434 847.629 105.534 841.349 Q104.085 837.098 101.218 834.006 Q98.3522 830.882 94.6485 829.658 L94.6485 828.016 Z" fill="#000000" fill-rule="evenodd" fill-opacity="1" /><path clip-path="url(#clip290)" d="M 0 0 M127.747 901.215 Q128.739 901.215 129.483 902.026 Q130.204 902.815 130.204 903.672 Q130.204 904.461 129.731 904.957 Q129.235 905.431 128.536 905.431 Q127.612 905.431 126.845 904.642 Q126.079 903.853 126.079 902.928 Q126.079 902.162 126.552 901.688 Q127.026 901.215 127.747 901.215 M149.998 900.809 Q150.179 900.809 150.9 901.012 Q151.599 901.215 152.681 901.711 Q153.741 902.184 154.732 902.838 Q155.724 903.492 156.423 904.574 Q157.122 905.633 157.122 906.851 Q157.122 908.497 156.04 909.579 Q154.958 910.638 153.335 910.638 Q152.455 910.638 149.637 909.579 Q141.431 906.513 141.093 906.4 Q139.808 905.881 138.681 905.881 Q138.163 905.881 137.847 905.994 Q137.509 906.107 137.396 906.332 Q137.261 906.558 137.238 906.693 Q137.216 906.806 137.216 907.031 Q137.216 908.361 138.568 909.601 Q139.921 910.841 142.942 911.698 Q143.505 911.878 143.641 911.991 Q143.776 912.104 143.776 912.442 Q143.753 913.005 143.303 913.005 Q143.167 913.005 142.649 912.848 Q142.108 912.69 141.296 912.397 Q140.462 912.104 139.605 911.585 Q138.726 911.067 137.96 910.435 Q137.193 909.782 136.697 908.857 Q136.201 907.933 136.201 906.896 Q136.201 905.205 137.306 904.168 Q138.388 903.109 139.989 903.109 Q140.868 903.109 142.423 903.717 Q144.452 904.461 145.106 904.732 L149.953 906.535 Q151.712 907.189 152.253 907.392 Q152.771 907.572 153.402 907.73 Q154.011 907.865 154.575 907.865 Q155.364 907.865 155.724 907.617 Q156.085 907.347 156.085 906.761 Q156.085 905.138 154.484 903.943 Q152.861 902.748 150.381 902.049 Q150.314 902.026 150.201 902.004 Q149.637 901.824 149.57 901.643 Q149.547 901.553 149.547 901.373 Q149.547 900.809 149.998 900.809 Z" fill="#000000" fill-rule="evenodd" fill-opacity="1" /><path clip-path="url(#clip290)" d="M 0 0 M149.592 884.429 Q149.029 884.384 149.029 883.505 L149.029 855.212 Q149.029 853.882 149.547 853.86 Q150.111 853.86 150.088 855.122 L150.088 883.189 Q150.111 884.429 149.592 884.429 M140.575 884.429 Q140.011 884.429 140.034 883.46 L140.034 855.257 Q140.034 853.882 140.575 853.86 Q141.093 853.86 141.093 855.032 L141.093 883.505 Q141.093 884.429 140.575 884.429 Z" fill="#000000" fill-rule="evenodd" fill-opacity="1" /><path clip-path="url(#clip290)" d="M 0 0 M130.25 836.048 L128.807 836.048 Q128.807 830.502 125.853 827.639 Q125.853 826.85 126.034 826.714 Q126.214 826.579 127.048 826.579 L152.951 826.579 Q154.327 826.579 154.755 825.903 Q155.183 825.226 155.183 822.273 L155.183 820.808 L156.604 820.808 Q156.468 822.431 156.468 828.292 Q156.468 834.154 156.604 835.754 L155.183 835.754 L155.183 834.289 Q155.183 831.381 154.778 830.682 Q154.349 829.983 152.951 829.983 L129.032 829.983 Q130.25 832.395 130.25 836.048 Z" fill="#000000" fill-rule="evenodd" fill-opacity="1" /><path clip-path="url(#clip290)" d="M 0 0 M-3.61568 884.121 L-5.05851 884.121 Q-5.05851 878.576 -8.01178 875.712 Q-8.01178 874.923 -7.83143 874.788 Q-7.65108 874.653 -6.81695 874.653 L19.0862 874.653 Q20.4614 874.653 20.8898 873.977 Q21.3181 873.3 21.3181 870.347 L21.3181 868.882 L22.7384 868.882 Q22.6031 870.505 22.6031 876.366 Q22.6031 882.228 22.7384 883.828 L21.3181 883.828 L21.3181 882.363 Q21.3181 879.455 20.9123 878.756 Q20.484 878.057 19.0862 878.057 L-4.83306 878.057 Q-3.61568 880.469 -3.61568 884.121 Z" fill="#000000" fill-rule="evenodd" fill-opacity="1" /><path clip-path="url(#clip290)" d="M 0 0 M7.97199 864.932 Q1.18621 864.932 -2.51102 863.218 Q-8.01178 860.829 -8.01178 855.192 Q-8.01178 853.998 -7.67362 852.758 Q-7.358 851.495 -6.11808 849.917 Q-4.87815 848.317 -2.84918 847.347 Q1.07349 845.499 7.97199 845.499 Q14.7127 845.499 18.3874 847.212 Q23.7529 849.714 23.7529 855.238 Q23.7529 857.312 22.6933 859.431 Q21.6337 861.527 19.0862 862.857 Q15.2763 864.932 7.97199 864.932 M7.40838 861.099 Q14.3745 861.099 17.1474 860.603 Q20.1458 860.039 21.4534 858.506 Q22.7384 856.951 22.7384 855.238 Q22.7384 853.389 21.3632 851.856 Q19.9654 850.3 16.9671 849.827 Q14.0138 849.308 7.40838 849.331 Q0.983314 849.331 -1.58671 849.782 Q-4.58508 850.391 -5.77992 852.014 Q-6.9973 853.614 -6.9973 855.238 Q-6.9973 855.846 -6.81695 856.5 Q-6.63659 857.131 -6.11808 858.056 Q-5.59956 858.98 -4.31455 859.701 Q-3.02954 860.4 -1.09074 860.738 Q1.41165 861.099 7.40838 861.099 Z" fill="#000000" fill-rule="evenodd" fill-opacity="1" /><path clip-path="url(#clip290)" d="M 0 0 M68.5295 768.829 Q68.5617 768.829 69.7212 769.022 L98.9963 776.365 Q100.542 776.752 102.088 777.847 Q103.666 778.91 105.019 780.616 Q106.404 782.291 107.241 784.868 Q108.111 787.412 108.111 790.343 Q108.111 795.013 107.112 797.074 Q106.146 799.103 104.085 799.103 Q102.281 799.103 101.251 797.975 Q100.252 796.848 100.252 795.56 Q100.252 794.336 100.961 793.692 Q101.669 793.048 102.571 793.048 Q103.57 793.048 104.568 793.724 Q105.598 794.401 105.985 795.753 Q106.661 793.595 106.661 790.471 Q106.661 783.869 99.6726 781.035 Q99.576 780.971 99.5438 780.971 L90.816 778.781 L90.7516 778.877 Q91.3957 779.425 92.1364 780.294 Q92.845 781.132 93.7145 782.935 Q94.5841 784.739 94.5841 786.51 Q94.5841 790.214 91.75 792.758 Q88.8836 795.27 84.1494 795.27 Q80.7034 795.27 77.2573 793.885 Q73.7791 792.468 71.2348 790.278 Q68.6584 788.056 67.0481 785.222 Q65.4378 782.356 65.4378 779.586 Q65.4378 777.654 66.5972 776.011 Q67.7244 774.369 69.5923 773.467 Q68.0464 773.306 67.4023 772.436 Q66.7582 771.534 66.7582 770.762 Q66.7582 769.892 67.2413 769.377 Q67.6922 768.829 68.5295 768.829 M72.5553 774.24 Q72.362 774.24 71.8467 774.369 Q71.2992 774.497 70.4297 774.884 Q69.5601 775.238 68.7872 775.786 Q68.0142 776.333 67.4667 777.331 Q66.887 778.298 66.887 779.521 Q66.887 781.518 68.5617 783.515 Q70.2042 785.512 72.7485 786.897 Q75.1961 788.185 79.9304 789.409 Q84.6647 790.6 87.0801 790.6 Q89.4633 790.6 91.2991 789.57 Q93.1348 788.539 93.1348 786.317 Q93.1348 783.74 90.7516 780.971 Q88.2717 778.104 86.1461 777.621 L73.5536 774.433 Q72.7807 774.24 72.5553 774.24 Z" fill="#000000" fill-rule="evenodd" fill-opacity="1" /><path clip-path="url(#clip290)" d="M 0 0 M97.257 750.288 Q98.2489 750.288 98.9929 751.099 Q99.7143 751.888 99.7143 752.745 Q99.7143 753.534 99.2409 754.03 Q98.7449 754.503 98.046 754.503 Q97.1217 754.503 96.3552 753.714 Q95.5887 752.925 95.5887 752.001 Q95.5887 751.235 96.0622 750.761 Q96.5356 750.288 97.257 750.288 M119.508 749.882 Q119.688 749.882 120.41 750.085 Q121.109 750.288 122.191 750.784 Q123.25 751.257 124.242 751.911 Q125.234 752.565 125.933 753.647 Q126.632 754.706 126.632 755.924 Q126.632 757.569 125.55 758.652 Q124.468 759.711 122.845 759.711 Q121.965 759.711 119.147 758.652 Q110.941 755.586 110.603 755.473 Q109.318 754.954 108.191 754.954 Q107.672 754.954 107.357 755.067 Q107.019 755.18 106.906 755.405 Q106.771 755.631 106.748 755.766 Q106.726 755.879 106.726 756.104 Q106.726 757.434 108.078 758.674 Q109.431 759.914 112.452 760.771 Q113.015 760.951 113.151 761.064 Q113.286 761.177 113.286 761.515 Q113.263 762.078 112.812 762.078 Q112.677 762.078 112.159 761.92 Q111.618 761.763 110.806 761.47 Q109.972 761.177 109.115 760.658 Q108.236 760.139 107.469 759.508 Q106.703 758.854 106.207 757.93 Q105.711 757.006 105.711 755.969 Q105.711 754.278 106.816 753.241 Q107.898 752.181 109.498 752.181 Q110.378 752.181 111.933 752.79 Q113.962 753.534 114.616 753.805 L119.463 755.608 Q121.221 756.262 121.762 756.465 Q122.281 756.645 122.912 756.803 Q123.521 756.938 124.084 756.938 Q124.874 756.938 125.234 756.69 Q125.595 756.42 125.595 755.834 Q125.595 754.21 123.994 753.016 Q122.371 751.821 119.891 751.122 Q119.824 751.099 119.711 751.077 Q119.147 750.896 119.08 750.716 Q119.057 750.626 119.057 750.446 Q119.057 749.882 119.508 749.882 Z" fill="#000000" fill-rule="evenodd" fill-opacity="1" /><path clip-path="url(#clip290)" d="M 0 0 M53.0268 762.078 Q45.2265 762.078 38.9367 759.17 Q36.2991 757.93 34.0898 756.194 Q31.8804 754.458 30.911 753.309 Q29.9416 752.159 29.9416 751.843 Q29.9416 751.392 30.3925 751.37 Q30.618 751.37 31.1816 751.979 Q38.7564 759.418 53.0268 759.396 Q67.3423 759.396 74.6241 752.159 Q75.4131 751.37 75.6611 751.37 Q76.112 751.37 76.112 751.843 Q76.112 752.159 75.1877 753.264 Q74.2634 754.368 72.1442 756.082 Q70.0251 757.795 67.4325 759.035 Q61.1427 762.078 53.0268 762.078 Z" fill="#000000" fill-rule="evenodd" fill-opacity="1" /><path clip-path="url(#clip290)" d="M 0 0 M64.5694 744.349 Q63.7353 744.349 63.4873 744.281 Q63.2393 744.191 62.856 743.831 L52.9817 734.971 Q47.526 730.124 42.7692 730.124 Q39.6807 730.124 37.4714 731.747 Q35.2621 733.348 35.2621 736.301 Q35.2621 738.33 36.502 740.043 Q37.7419 741.757 39.9512 742.546 Q39.9061 742.41 39.9061 741.937 Q39.9061 740.787 40.6276 740.156 Q41.349 739.502 42.3184 739.502 Q43.5583 739.502 44.167 740.314 Q44.7531 741.103 44.7531 741.892 Q44.7531 742.207 44.6855 742.636 Q44.6179 743.042 43.9866 743.695 Q43.3328 744.349 42.1831 744.349 Q38.9593 744.349 36.3893 741.914 Q33.8192 739.457 33.8192 735.715 Q33.8192 731.476 36.3442 728.703 Q38.8466 725.908 42.7692 725.908 Q44.1444 725.908 45.4069 726.336 Q46.6468 726.742 47.6162 727.306 Q48.5856 727.847 50.1412 729.335 Q51.6967 730.823 52.8014 732.017 Q53.906 733.212 56.2506 735.895 L61.0074 740.787 L61.0074 732.468 Q61.0074 728.41 60.6467 728.095 Q59.9929 727.644 56.5437 727.08 L56.5437 725.908 L64.5694 727.216 L64.5694 744.349 Z" fill="#000000" fill-rule="evenodd" fill-opacity="1" /><path clip-path="url(#clip290)" d="M 0 0 M75.6611 721.484 Q75.4356 721.484 74.872 720.898 Q67.2972 713.459 53.0268 713.459 Q38.7113 713.459 31.4746 720.605 Q30.6405 721.484 30.3925 721.484 Q29.9416 721.484 29.9416 721.033 Q29.9416 720.718 30.866 719.613 Q31.7903 718.486 33.9094 716.795 Q36.0286 715.082 38.6211 713.819 Q44.9109 710.776 53.0268 710.776 Q60.8271 710.776 67.1169 713.684 Q69.7545 714.924 71.9639 716.66 Q74.1732 718.396 75.1426 719.545 Q76.112 720.695 76.112 721.033 Q76.112 721.484 75.6611 721.484 Z" fill="#000000" fill-rule="evenodd" fill-opacity="1" /><path clip-path="url(#clip290)" d="M 0 0 M78.0947 696.715 Q66.9514 696.715 57.966 692.561 Q54.1979 690.789 51.0418 688.309 Q47.8856 685.829 46.5007 684.187 Q45.1159 682.544 45.1159 682.094 Q45.1159 681.449 45.76 681.417 Q46.082 681.417 46.8872 682.287 Q57.7084 692.915 78.0947 692.883 Q98.5454 692.883 108.948 682.544 Q110.075 681.417 110.429 681.417 Q111.073 681.417 111.073 682.094 Q111.073 682.544 109.753 684.123 Q108.433 685.701 105.405 688.148 Q102.378 690.596 98.6742 692.367 Q89.6888 696.715 78.0947 696.715 Z" fill="#000000" fill-rule="evenodd" fill-opacity="1" /><path clip-path="url(#clip290)" d="M 0 0 M67.7244 639.439 Q69.9788 639.439 69.9788 642.692 L69.9788 653.771 L92.5551 658.183 Q93.1348 658.28 93.4569 658.409 Q93.7789 658.505 94.3264 658.795 Q94.8417 659.053 95.0994 659.6 Q95.3892 660.116 95.3892 660.889 Q95.3892 661.855 94.8095 662.338 Q94.262 662.789 93.5857 662.789 Q93.167 662.789 91.1703 662.145 L69.9788 655.671 L69.9788 661.146 Q69.9788 666.299 75.0673 669.52 Q75.7436 670.035 75.8081 670.325 Q75.8403 670.454 75.8403 670.583 Q75.8403 670.937 75.6792 671.162 Q75.5182 671.355 75.3572 671.355 L75.1961 671.388 Q74.9707 671.388 74.0689 670.872 Q73.135 670.325 71.7501 669.359 Q70.3653 668.36 69.2703 667.362 Q67.8532 666.041 67.1125 664.56 Q66.3395 663.079 66.2429 662.338 Q66.1463 661.565 66.1463 660.566 L66.1463 642.08 Q66.1463 641.243 66.2107 640.792 Q66.2429 640.341 66.6294 639.89 Q66.9837 639.439 67.7244 639.439 Z" fill="#000000" fill-rule="evenodd" fill-opacity="1" /><path clip-path="url(#clip290)" d="M 0 0 M110.429 642.87 Q110.107 642.87 109.302 642.033 Q98.481 631.405 78.0947 631.405 Q57.644 631.405 47.3059 641.614 Q46.1143 642.87 45.76 642.87 Q45.1159 642.87 45.1159 642.226 Q45.1159 641.775 46.4363 640.197 Q47.7568 638.587 50.7841 636.172 Q53.8115 633.724 57.5151 631.92 Q66.5006 627.573 78.0947 627.573 Q89.2379 627.573 98.2233 631.727 Q101.991 633.499 105.148 635.978 Q108.304 638.458 109.689 640.101 Q111.073 641.743 111.073 642.226 Q111.073 642.87 110.429 642.87 Z" fill="#000000" fill-rule="evenodd" fill-opacity="1" /><path clip-path="url(#clip290)" d="M 0 0 M471.559 14.0809 L471.559 22.0612 Q466.901 19.8332 462.769 18.7395 Q458.637 17.6457 454.788 17.6457 Q448.104 17.6457 444.459 20.2383 Q440.853 22.8309 440.853 27.611 Q440.853 31.6214 443.243 33.6873 Q445.674 35.7128 452.398 36.9686 L457.34 37.9813 Q466.495 39.7232 470.83 44.1387 Q475.205 48.5136 475.205 55.8863 Q475.205 64.6767 469.291 69.2137 Q463.417 73.7508 452.034 73.7508 Q447.74 73.7508 442.879 72.7785 Q438.058 71.8063 432.873 69.9024 L432.873 61.4765 Q437.856 64.2716 442.636 65.6895 Q447.416 67.1073 452.034 67.1073 Q459.042 67.1073 462.85 64.3527 Q466.657 61.598 466.657 56.4939 Q466.657 52.0379 463.903 49.5264 Q461.189 47.0148 454.95 45.759 L449.968 44.7868 Q440.813 42.9639 436.721 39.075 Q432.63 35.1862 432.63 28.2591 Q432.63 20.2383 438.261 15.6203 Q443.932 11.0023 453.857 11.0023 Q458.11 11.0023 462.526 11.7719 Q466.941 12.5416 471.559 14.0809 Z" fill="#000000" fill-rule="evenodd" fill-opacity="1" /><path clip-path="url(#clip290)" d="M 0 0 M486.871 54.671 L486.871 27.2059 L494.325 27.2059 L494.325 54.3874 Q494.325 60.8284 496.837 64.0691 Q499.348 67.2693 504.371 67.2693 Q510.407 67.2693 513.891 63.421 Q517.415 59.5726 517.415 52.9291 L517.415 27.2059 L524.869 27.2059 L524.869 72.576 L517.415 72.576 L517.415 65.6084 Q514.701 69.7404 511.096 71.7658 Q507.531 73.7508 502.792 73.7508 Q494.973 73.7508 490.922 68.8897 Q486.871 64.0286 486.871 54.671 M505.627 26.1121 L505.627 26.1121 Z" fill="#000000" fill-rule="evenodd" fill-opacity="1" /><path clip-path="url(#clip290)" d="M 0 0 M575.546 35.9153 Q578.341 30.8922 582.23 28.5022 Q586.119 26.1121 591.385 26.1121 Q598.474 26.1121 602.322 31.0947 Q606.171 36.0368 606.171 45.1919 L606.171 72.576 L598.676 72.576 L598.676 45.4349 Q598.676 38.913 596.367 35.7533 Q594.058 32.5936 589.319 32.5936 Q583.526 32.5936 580.164 36.4419 Q576.802 40.2903 576.802 46.9338 L576.802 72.576 L569.307 72.576 L569.307 45.4349 Q569.307 38.8725 566.998 35.7533 Q564.689 32.5936 559.869 32.5936 Q554.157 32.5936 550.795 36.4824 Q547.433 40.3308 547.433 46.9338 L547.433 72.576 L539.938 72.576 L539.938 27.2059 L547.433 27.2059 L547.433 34.2544 Q549.985 30.082 553.549 28.0971 Q557.114 26.1121 562.016 26.1121 Q566.958 26.1121 570.401 28.6237 Q573.885 31.1352 575.546 35.9153 Z" fill="#000000" fill-rule="evenodd" fill-opacity="1" /><path clip-path="url(#clip290)" d="M 0 0 M664.99 32.4315 Q658.994 32.4315 655.511 37.1306 Q652.027 41.7891 652.027 49.9314 Q652.027 58.0738 655.47 62.7728 Q658.954 67.4314 664.99 67.4314 Q670.945 67.4314 674.428 62.7323 Q677.912 58.0333 677.912 49.9314 Q677.912 41.8701 674.428 37.1711 Q670.945 32.4315 664.99 32.4315 M664.99 26.1121 Q674.712 26.1121 680.262 32.4315 Q685.811 38.7509 685.811 49.9314 Q685.811 61.0714 680.262 67.4314 Q674.712 73.7508 664.99 73.7508 Q655.227 73.7508 649.677 67.4314 Q644.168 61.0714 644.168 49.9314 Q644.168 38.7509 649.677 32.4315 Q655.227 26.1121 664.99 26.1121 Z" fill="#000000" fill-rule="evenodd" fill-opacity="1" /><path clip-path="url(#clip290)" d="M 0 0 M721.135 9.54393 L721.135 15.7418 L714.006 15.7418 Q709.995 15.7418 708.415 17.3622 Q706.876 18.9825 706.876 23.1955 L706.876 27.2059 L719.15 27.2059 L719.15 32.9987 L706.876 32.9987 L706.876 72.576 L699.382 72.576 L699.382 32.9987 L692.252 32.9987 L692.252 27.2059 L699.382 27.2059 L699.382 24.0462 Q699.382 16.471 702.906 13.0277 Q706.431 9.54393 714.087 9.54393 L721.135 9.54393 Z" fill="#000000" fill-rule="evenodd" fill-opacity="1" /><path clip-path="url(#clip290)" d="M 0 0 M762.252 18.8205 L762.252 41.5461 L772.541 41.5461 Q778.253 41.5461 781.372 38.5889 Q784.491 35.6318 784.491 30.163 Q784.491 24.7348 781.372 21.7777 Q778.253 18.8205 772.541 18.8205 L762.252 18.8205 M754.069 12.096 L772.541 12.096 Q782.709 12.096 787.894 16.714 Q793.12 21.2916 793.12 30.163 Q793.12 39.1155 787.894 43.6931 Q782.709 48.2706 772.541 48.2706 L762.252 48.2706 L762.252 72.576 L754.069 72.576 L754.069 12.096 Z" fill="#000000" fill-rule="evenodd" fill-opacity="1" /><path clip-path="url(#clip290)" d="M 0 0 M841.488 45.1919 L841.488 72.576 L834.034 72.576 L834.034 45.4349 Q834.034 38.994 831.522 35.7938 Q829.011 32.5936 823.988 32.5936 Q817.952 32.5936 814.468 36.4419 Q810.984 40.2903 810.984 46.9338 L810.984 72.576 L803.49 72.576 L803.49 9.54393 L810.984 9.54393 L810.984 34.2544 Q813.658 30.163 817.263 28.1376 Q820.909 26.1121 825.649 26.1121 Q833.467 26.1121 837.477 30.9732 Q841.488 35.7938 841.488 45.1919 Z" fill="#000000" fill-rule="evenodd" fill-opacity="1" /><path clip-path="url(#clip290)" d="M 0 0 M873.935 32.4315 Q867.94 32.4315 864.456 37.1306 Q860.972 41.7891 860.972 49.9314 Q860.972 58.0738 864.416 62.7728 Q867.9 67.4314 873.935 67.4314 Q879.89 67.4314 883.374 62.7323 Q886.858 58.0333 886.858 49.9314 Q886.858 41.8701 883.374 37.1711 Q879.89 32.4315 873.935 32.4315 M873.935 26.1121 Q883.658 26.1121 889.207 32.4315 Q894.757 38.7509 894.757 49.9314 Q894.757 61.0714 889.207 67.4314 Q883.658 73.7508 873.935 73.7508 Q864.173 73.7508 858.623 67.4314 Q853.114 61.0714 853.114 49.9314 Q853.114 38.7509 858.623 32.4315 Q864.173 26.1121 873.935 26.1121 Z" fill="#000000" fill-rule="evenodd" fill-opacity="1" /><path clip-path="url(#clip290)" d="M 0 0 M914.485 14.324 L914.485 27.2059 L929.838 27.2059 L929.838 32.9987 L914.485 32.9987 L914.485 57.6282 Q914.485 63.1779 915.984 64.7578 Q917.523 66.3376 922.182 66.3376 L929.838 66.3376 L929.838 72.576 L922.182 72.576 Q913.553 72.576 910.272 69.3758 Q906.991 66.1351 906.991 57.6282 L906.991 32.9987 L901.522 32.9987 L901.522 27.2059 L906.991 27.2059 L906.991 14.324 L914.485 14.324 Z" fill="#000000" fill-rule="evenodd" fill-opacity="1" /><path clip-path="url(#clip290)" d="M 0 0 M957.222 32.4315 Q951.227 32.4315 947.743 37.1306 Q944.259 41.7891 944.259 49.9314 Q944.259 58.0738 947.702 62.7728 Q951.186 67.4314 957.222 67.4314 Q963.177 67.4314 966.661 62.7323 Q970.144 58.0333 970.144 49.9314 Q970.144 41.8701 966.661 37.1711 Q963.177 32.4315 957.222 32.4315 M957.222 26.1121 Q966.944 26.1121 972.494 32.4315 Q978.044 38.7509 978.044 49.9314 Q978.044 61.0714 972.494 67.4314 Q966.944 73.7508 957.222 73.7508 Q947.459 73.7508 941.91 67.4314 Q936.4 61.0714 936.4 49.9314 Q936.4 38.7509 941.91 32.4315 Q947.459 26.1121 957.222 26.1121 Z" fill="#000000" fill-rule="evenodd" fill-opacity="1" /><path clip-path="url(#clip290)" d="M 0 0 M1028.11 45.1919 L1028.11 72.576 L1020.66 72.576 L1020.66 45.4349 Q1020.66 38.994 1018.15 35.7938 Q1015.64 32.5936 1010.61 32.5936 Q1004.58 32.5936 1001.09 36.4419 Q997.609 40.2903 997.609 46.9338 L997.609 72.576 L990.115 72.576 L990.115 27.2059 L997.609 27.2059 L997.609 34.2544 Q1000.28 30.163 1003.89 28.1376 Q1007.53 26.1121 1012.27 26.1121 Q1020.09 26.1121 1024.1 30.9732 Q1028.11 35.7938 1028.11 45.1919 Z" fill="#000000" fill-rule="evenodd" fill-opacity="1" /><path clip-path="url(#clip290)" d="M 0 0 M1114.96 16.7545 L1114.96 25.383 Q1110.83 21.5346 1106.13 19.6307 Q1101.47 17.7268 1096.21 17.7268 Q1085.84 17.7268 1080.33 24.0867 Q1074.82 30.4061 1074.82 42.3968 Q1074.82 54.3469 1080.33 60.7069 Q1085.84 67.0263 1096.21 67.0263 Q1101.47 67.0263 1106.13 65.1223 Q1110.83 63.2184 1114.96 59.3701 L1114.96 67.9175 Q1110.67 70.8341 1105.85 72.2924 Q1101.07 73.7508 1095.72 73.7508 Q1081.99 73.7508 1074.09 65.3654 Q1066.19 56.9395 1066.19 42.3968 Q1066.19 27.8135 1074.09 19.4281 Q1081.99 11.0023 1095.72 11.0023 Q1101.15 11.0023 1105.93 12.4606 Q1110.75 13.8784 1114.96 16.7545 Z" fill="#000000" fill-rule="evenodd" fill-opacity="1" /><path clip-path="url(#clip290)" d="M 0 0 M1144.86 32.4315 Q1138.86 32.4315 1135.38 37.1306 Q1131.9 41.7891 1131.9 49.9314 Q1131.9 58.0738 1135.34 62.7728 Q1138.82 67.4314 1144.86 67.4314 Q1150.81 67.4314 1154.3 62.7323 Q1157.78 58.0333 1157.78 49.9314 Q1157.78 41.8701 1154.3 37.1711 Q1150.81 32.4315 1144.86 32.4315 M1144.86 26.1121 Q1154.58 26.1121 1160.13 32.4315 Q1165.68 38.7509 1165.68 49.9314 Q1165.68 61.0714 1160.13 67.4314 Q1154.58 73.7508 1144.86 73.7508 Q1135.1 73.7508 1129.55 67.4314 Q1124.04 61.0714 1124.04 49.9314 Q1124.04 38.7509 1129.55 32.4315 Q1135.1 26.1121 1144.86 26.1121 Z" fill="#000000" fill-rule="evenodd" fill-opacity="1" /><path clip-path="url(#clip290)" d="M 0 0 M1204.33 34.1734 Q1203.07 33.4443 1201.57 33.1202 Q1200.11 32.7556 1198.33 32.7556 Q1192.01 32.7556 1188.61 36.8875 Q1185.25 40.9789 1185.25 48.6757 L1185.25 72.576 L1177.75 72.576 L1177.75 27.2059 L1185.25 27.2059 L1185.25 34.2544 Q1187.6 30.1225 1191.36 28.1376 Q1195.13 26.1121 1200.52 26.1121 Q1201.29 26.1121 1202.22 26.2337 Q1203.15 26.3147 1204.29 26.5172 L1204.33 34.1734 Z" fill="#000000" fill-rule="evenodd" fill-opacity="1" /><path clip-path="url(#clip290)" d="M 0 0 M1236.98 34.1734 Q1235.72 33.4443 1234.22 33.1202 Q1232.76 32.7556 1230.98 32.7556 Q1224.66 32.7556 1221.26 36.8875 Q1217.9 40.9789 1217.9 48.6757 L1217.9 72.576 L1210.4 72.576 L1210.4 27.2059 L1217.9 27.2059 L1217.9 34.2544 Q1220.25 30.1225 1224.01 28.1376 Q1227.78 26.1121 1233.17 26.1121 Q1233.94 26.1121 1234.87 26.2337 Q1235.8 26.3147 1236.94 26.5172 L1236.98 34.1734 Z" fill="#000000" fill-rule="evenodd" fill-opacity="1" /><path clip-path="url(#clip290)" d="M 0 0 M1281.78 48.0275 L1281.78 51.6733 L1247.51 51.6733 Q1248 59.3701 1252.13 63.421 Q1256.3 67.4314 1263.71 67.4314 Q1268.01 67.4314 1272.02 66.3781 Q1276.07 65.3249 1280.04 63.2184 L1280.04 70.267 Q1276.03 71.9684 1271.82 72.8596 Q1267.6 73.7508 1263.27 73.7508 Q1252.41 73.7508 1246.05 67.4314 Q1239.73 61.1119 1239.73 50.3365 Q1239.73 39.1965 1245.73 32.6746 Q1251.76 26.1121 1261.97 26.1121 Q1271.13 26.1121 1276.43 32.0264 Q1281.78 37.9003 1281.78 48.0275 M1274.33 45.84 Q1274.25 39.7232 1270.88 36.0774 Q1267.56 32.4315 1262.05 32.4315 Q1255.81 32.4315 1252.05 35.9558 Q1248.32 39.4801 1247.75 45.8805 L1274.33 45.84 Z" fill="#000000" fill-rule="evenodd" fill-opacity="1" /><path clip-path="url(#clip290)" d="M 0 0 M1294.01 9.54393 L1301.47 9.54393 L1301.47 72.576 L1294.01 72.576 L1294.01 9.54393 Z" fill="#000000" fill-rule="evenodd" fill-opacity="1" /><path clip-path="url(#clip290)" d="M 0 0 M1337.68 49.7694 Q1328.65 49.7694 1325.17 51.8354 Q1321.68 53.9013 1321.68 58.8839 Q1321.68 62.8538 1324.27 65.2034 Q1326.91 67.5124 1331.4 67.5124 Q1337.6 67.5124 1341.33 63.1374 Q1345.1 58.7219 1345.1 51.4303 L1345.1 49.7694 L1337.68 49.7694 M1352.55 46.6907 L1352.55 72.576 L1345.1 72.576 L1345.1 65.6895 Q1342.54 69.8214 1338.74 71.8063 Q1334.93 73.7508 1329.42 73.7508 Q1322.45 73.7508 1318.32 69.8619 Q1314.23 65.9325 1314.23 59.3701 Q1314.23 51.7138 1319.33 47.825 Q1324.48 43.9361 1334.64 43.9361 L1345.1 43.9361 L1345.1 43.2069 Q1345.1 38.0623 1341.69 35.2672 Q1338.33 32.4315 1332.21 32.4315 Q1328.33 32.4315 1324.64 33.3632 Q1320.95 34.295 1317.55 36.1584 L1317.55 29.2718 Q1321.64 27.692 1325.49 26.9223 Q1329.34 26.1121 1332.98 26.1121 Q1342.83 26.1121 1347.69 31.2163 Q1352.55 36.3204 1352.55 46.6907 Z" fill="#000000" fill-rule="evenodd" fill-opacity="1" /><path clip-path="url(#clip290)" d="M 0 0 M1375.28 14.324 L1375.28 27.2059 L1390.63 27.2059 L1390.63 32.9987 L1375.28 32.9987 L1375.28 57.6282 Q1375.28 63.1779 1376.77 64.7578 Q1378.31 66.3376 1382.97 66.3376 L1390.63 66.3376 L1390.63 72.576 L1382.97 72.576 Q1374.34 72.576 1371.06 69.3758 Q1367.78 66.1351 1367.78 57.6282 L1367.78 32.9987 L1362.31 32.9987 L1362.31 27.2059 L1367.78 27.2059 L1367.78 14.324 L1375.28 14.324 Z" fill="#000000" fill-rule="evenodd" fill-opacity="1" /><path clip-path="url(#clip290)" d="M 0 0 M1400.43 27.2059 L1407.89 27.2059 L1407.89 72.576 L1400.43 72.576 L1400.43 27.2059 M1400.43 9.54393 L1407.89 9.54393 L1407.89 18.9825 L1400.43 18.9825 L1400.43 9.54393 Z" fill="#000000" fill-rule="evenodd" fill-opacity="1" /><path clip-path="url(#clip290)" d="M 0 0 M1441.06 32.4315 Q1435.07 32.4315 1431.58 37.1306 Q1428.1 41.7891 1428.1 49.9314 Q1428.1 58.0738 1431.54 62.7728 Q1435.03 67.4314 1441.06 67.4314 Q1447.02 67.4314 1450.5 62.7323 Q1453.98 58.0333 1453.98 49.9314 Q1453.98 41.8701 1450.5 37.1711 Q1447.02 32.4315 1441.06 32.4315 M1441.06 26.1121 Q1450.78 26.1121 1456.33 32.4315 Q1461.88 38.7509 1461.88 49.9314 Q1461.88 61.0714 1456.33 67.4314 Q1450.78 73.7508 1441.06 73.7508 Q1431.3 73.7508 1425.75 67.4314 Q1420.24 61.0714 1420.24 49.9314 Q1420.24 38.7509 1425.75 32.4315 Q1431.3 26.1121 1441.06 26.1121 Z" fill="#000000" fill-rule="evenodd" fill-opacity="1" /><path clip-path="url(#clip290)" d="M 0 0 M1511.95 45.1919 L1511.95 72.576 L1504.5 72.576 L1504.5 45.4349 Q1504.5 38.994 1501.99 35.7938 Q1499.48 32.5936 1494.45 32.5936 Q1488.42 32.5936 1484.93 36.4419 Q1481.45 40.2903 1481.45 46.9338 L1481.45 72.576 L1473.96 72.576 L1473.96 27.2059 L1481.45 27.2059 L1481.45 34.2544 Q1484.12 30.163 1487.73 28.1376 Q1491.37 26.1121 1496.11 26.1121 Q1503.93 26.1121 1507.94 30.9732 Q1511.95 35.7938 1511.95 45.1919 Z" fill="#000000" fill-rule="evenodd" fill-opacity="1" /><path clip-path="url(#clip290)" d="M 0 0 M1555.74 28.5427 L1555.74 35.5912 Q1552.58 33.9709 1549.18 33.1607 Q1545.78 32.3505 1542.13 32.3505 Q1536.58 32.3505 1533.79 34.0519 Q1531.03 35.7533 1531.03 39.156 Q1531.03 41.7486 1533.02 43.2475 Q1535 44.7058 1541 46.0426 L1543.55 46.6097 Q1551.49 48.3111 1554.81 51.4303 Q1558.17 54.509 1558.17 60.0587 Q1558.17 66.3781 1553.15 70.0644 Q1548.17 73.7508 1539.42 73.7508 Q1535.77 73.7508 1531.8 73.0216 Q1527.87 72.3329 1523.5 70.9151 L1523.5 63.2184 Q1527.63 65.3654 1531.64 66.4591 Q1535.65 67.5124 1539.58 67.5124 Q1544.85 67.5124 1547.68 65.73 Q1550.52 63.9071 1550.52 60.6258 Q1550.52 57.5877 1548.45 55.9673 Q1546.43 54.3469 1539.5 52.8481 L1536.91 52.2405 Q1529.98 50.7821 1526.9 47.7845 Q1523.82 44.7463 1523.82 39.4801 Q1523.82 33.0797 1528.36 29.5959 Q1532.9 26.1121 1541.24 26.1121 Q1545.37 26.1121 1549.02 26.7198 Q1552.66 27.3274 1555.74 28.5427 Z" fill="#000000" fill-rule="evenodd" fill-opacity="1" /><path clip-path="url(#clip290)" d="M 0 0 M1591.07 27.2059 L1598.97 27.2059 L1613.14 65.2844 L1627.32 27.2059 L1635.22 27.2059 L1618.21 72.576 L1608.08 72.576 L1591.07 27.2059 Z" fill="#000000" fill-rule="evenodd" fill-opacity="1" /><path clip-path="url(#clip290)" d="M 0 0 M1674.43 28.5427 L1674.43 35.5912 Q1671.27 33.9709 1667.87 33.1607 Q1664.47 32.3505 1660.82 32.3505 Q1655.27 32.3505 1652.48 34.0519 Q1649.72 35.7533 1649.72 39.156 Q1649.72 41.7486 1651.71 43.2475 Q1653.69 44.7058 1659.69 46.0426 L1662.24 46.6097 Q1670.18 48.3111 1673.5 51.4303 Q1676.87 54.509 1676.87 60.0587 Q1676.87 66.3781 1671.84 70.0644 Q1666.86 73.7508 1658.11 73.7508 Q1654.46 73.7508 1650.49 73.0216 Q1646.56 72.3329 1642.19 70.9151 L1642.19 63.2184 Q1646.32 65.3654 1650.33 66.4591 Q1654.34 67.5124 1658.27 67.5124 Q1663.54 67.5124 1666.37 65.73 Q1669.21 63.9071 1669.21 60.6258 Q1669.21 57.5877 1667.14 55.9673 Q1665.12 54.3469 1658.19 52.8481 L1655.6 52.2405 Q1648.67 50.7821 1645.59 47.7845 Q1642.51 44.7463 1642.51 39.4801 Q1642.51 33.0797 1647.05 29.5959 Q1651.59 26.1121 1659.93 26.1121 Q1664.06 26.1121 1667.71 26.7198 Q1671.36 27.3274 1674.43 28.5427 Z" fill="#000000" fill-rule="evenodd" fill-opacity="1" /><path clip-path="url(#clip290)" d="M 0 0 M1707.04 12.096 L1758.21 12.096 L1758.21 18.9825 L1736.74 18.9825 L1736.74 72.576 L1728.51 72.576 L1728.51 18.9825 L1707.04 18.9825 L1707.04 12.096 Z" fill="#000000" fill-rule="evenodd" fill-opacity="1" /><path clip-path="url(#clip290)" d="M 0 0 M1763.23 27.2059 L1770.68 27.2059 L1770.68 72.576 L1763.23 72.576 L1763.23 27.2059 M1763.23 9.54393 L1770.68 9.54393 L1770.68 18.9825 L1763.23 18.9825 L1763.23 9.54393 Z" fill="#000000" fill-rule="evenodd" fill-opacity="1" /><path clip-path="url(#clip290)" d="M 0 0 M1821.6 35.9153 Q1824.4 30.8922 1828.29 28.5022 Q1832.18 26.1121 1837.44 26.1121 Q1844.53 26.1121 1848.38 31.0947 Q1852.23 36.0368 1852.23 45.1919 L1852.23 72.576 L1844.73 72.576 L1844.73 45.4349 Q1844.73 38.913 1842.43 35.7533 Q1840.12 32.5936 1835.38 32.5936 Q1829.58 32.5936 1826.22 36.4419 Q1822.86 40.2903 1822.86 46.9338 L1822.86 72.576 L1815.37 72.576 L1815.37 45.4349 Q1815.37 38.8725 1813.06 35.7533 Q1810.75 32.5936 1805.93 32.5936 Q1800.22 32.5936 1796.85 36.4824 Q1793.49 40.3308 1793.49 46.9338 L1793.49 72.576 L1786 72.576 L1786 27.2059 L1793.49 27.2059 L1793.49 34.2544 Q1796.04 30.082 1799.61 28.0971 Q1803.17 26.1121 1808.07 26.1121 Q1813.02 26.1121 1816.46 28.6237 Q1819.94 31.1352 1821.6 35.9153 Z" fill="#000000" fill-rule="evenodd" fill-opacity="1" /><path clip-path="url(#clip290)" d="M 0 0 M1905.9 48.0275 L1905.9 51.6733 L1871.63 51.6733 Q1872.12 59.3701 1876.25 63.421 Q1880.42 67.4314 1887.84 67.4314 Q1892.13 67.4314 1896.14 66.3781 Q1900.19 65.3249 1904.16 63.2184 L1904.16 70.267 Q1900.15 71.9684 1895.94 72.8596 Q1891.73 73.7508 1887.39 73.7508 Q1876.53 73.7508 1870.17 67.4314 Q1863.85 61.1119 1863.85 50.3365 Q1863.85 39.1965 1869.85 32.6746 Q1875.89 26.1121 1886.09 26.1121 Q1895.25 26.1121 1900.56 32.0264 Q1905.9 37.9003 1905.9 48.0275 M1898.45 45.84 Q1898.37 39.7232 1895.01 36.0774 Q1891.68 32.4315 1886.18 32.4315 Q1879.94 32.4315 1876.17 35.9558 Q1872.44 39.4801 1871.88 45.8805 L1898.45 45.84 Z" fill="#000000" fill-rule="evenodd" fill-opacity="1" /><path clip-path="url(#clip290)" d="M 0 0 M1969.38 17.6457 Q1960.47 17.6457 1955.2 24.2892 Q1949.98 30.9327 1949.98 42.3968 Q1949.98 53.8203 1955.2 60.4638 Q1960.47 67.1073 1969.38 67.1073 Q1978.29 67.1073 1983.48 60.4638 Q1988.7 53.8203 1988.7 42.3968 Q1988.7 30.9327 1983.48 24.2892 Q1978.29 17.6457 1969.38 17.6457 M1969.38 11.0023 Q1982.1 11.0023 1989.72 19.5497 Q1997.33 28.0566 1997.33 42.3968 Q1997.33 56.6965 1989.72 65.2439 Q1982.1 73.7508 1969.38 73.7508 Q1956.62 73.7508 1948.96 65.2439 Q1941.35 56.737 1941.35 42.3968 Q1941.35 28.0566 1948.96 19.5497 Q1956.62 11.0023 1969.38 11.0023 Z" fill="#000000" fill-rule="evenodd" fill-opacity="1" /><path clip-path="url(#clip290)" d="M 0 0 M2032.78 9.54393 L2032.78 15.7418 L2025.65 15.7418 Q2021.64 15.7418 2020.06 17.3622 Q2018.52 18.9825 2018.52 23.1955 L2018.52 27.2059 L2030.79 27.2059 L2030.79 32.9987 L2018.52 32.9987 L2018.52 72.576 L2011.02 72.576 L2011.02 32.9987 L2003.89 32.9987 L2003.89 27.2059 L2011.02 27.2059 L2011.02 24.0462 Q2011.02 16.471 2014.55 13.0277 Q2018.07 9.54393 2025.73 9.54393 L2032.78 9.54393 Z" fill="#000000" fill-rule="evenodd" fill-opacity="1" /><path clip-path="url(#clip290)" d="M 0 0 M2061.98 9.54393 L2061.98 15.7418 L2054.85 15.7418 Q2050.84 15.7418 2049.26 17.3622 Q2047.73 18.9825 2047.73 23.1955 L2047.73 27.2059 L2060 27.2059 L2060 32.9987 L2047.73 32.9987 L2047.73 72.576 L2040.23 72.576 L2040.23 32.9987 L2033.1 32.9987 L2033.1 27.2059 L2040.23 27.2059 L2040.23 24.0462 Q2040.23 16.471 2043.76 13.0277 Q2047.28 9.54393 2054.94 9.54393 L2061.98 9.54393 Z" fill="#000000" fill-rule="evenodd" fill-opacity="1" /><path clip-path="url(#clip290)" d="M 0 0 M2097.15 28.5427 L2097.15 35.5912 Q2093.99 33.9709 2090.58 33.1607 Q2087.18 32.3505 2083.54 32.3505 Q2077.99 32.3505 2075.19 34.0519 Q2072.44 35.7533 2072.44 39.156 Q2072.44 41.7486 2074.42 43.2475 Q2076.41 44.7058 2082.4 46.0426 L2084.95 46.6097 Q2092.89 48.3111 2096.21 51.4303 Q2099.58 54.509 2099.58 60.0587 Q2099.58 66.3781 2094.55 70.0644 Q2089.57 73.7508 2080.82 73.7508 Q2077.18 73.7508 2073.21 73.0216 Q2069.28 72.3329 2064.9 70.9151 L2064.9 63.2184 Q2069.03 65.3654 2073.04 66.4591 Q2077.05 67.5124 2080.98 67.5124 Q2086.25 67.5124 2089.09 65.73 Q2091.92 63.9071 2091.92 60.6258 Q2091.92 57.5877 2089.85 55.9673 Q2087.83 54.3469 2080.9 52.8481 L2078.31 52.2405 Q2071.38 50.7821 2068.3 47.7845 Q2065.23 44.7463 2065.23 39.4801 Q2065.23 33.0797 2069.76 29.5959 Q2074.3 26.1121 2082.64 26.1121 Q2086.78 26.1121 2090.42 26.7198 Q2094.07 27.3274 2097.15 28.5427 Z" fill="#000000" fill-rule="evenodd" fill-opacity="1" /><path clip-path="url(#clip290)" d="M 0 0 M2150.25 48.0275 L2150.25 51.6733 L2115.98 51.6733 Q2116.47 59.3701 2120.6 63.421 Q2124.77 67.4314 2132.19 67.4314 Q2136.48 67.4314 2140.49 66.3781 Q2144.54 65.3249 2148.51 63.2184 L2148.51 70.267 Q2144.5 71.9684 2140.29 72.8596 Q2136.08 73.7508 2131.74 73.7508 Q2120.88 73.7508 2114.52 67.4314 Q2108.21 61.1119 2108.21 50.3365 Q2108.21 39.1965 2114.2 32.6746 Q2120.24 26.1121 2130.44 26.1121 Q2139.6 26.1121 2144.91 32.0264 Q2150.25 37.9003 2150.25 48.0275 M2142.8 45.84 Q2142.72 39.7232 2139.36 36.0774 Q2136.04 32.4315 2130.53 32.4315 Q2124.29 32.4315 2120.52 35.9558 Q2116.79 39.4801 2116.23 45.8805 L2142.8 45.84 Z" fill="#000000" fill-rule="evenodd" fill-opacity="1" /><path clip-path="url(#clip290)" d="M 0 0 M2169.86 14.324 L2169.86 27.2059 L2185.21 27.2059 L2185.21 32.9987 L2169.86 32.9987 L2169.86 57.6282 Q2169.86 63.1779 2171.36 64.7578 Q2172.9 66.3376 2177.56 66.3376 L2185.21 66.3376 L2185.21 72.576 L2177.56 72.576 Q2168.93 72.576 2165.65 69.3758 Q2162.37 66.1351 2162.37 57.6282 L2162.37 32.9987 L2156.9 32.9987 L2156.9 27.2059 L2162.37 27.2059 L2162.37 14.324 L2169.86 14.324 Z" fill="#000000" fill-rule="evenodd" fill-opacity="1" /><polyline clip-path="url(#clip293)" style="stroke:#009af9; stroke-width:4; stroke-opacity:1; fill:none" points="
  324.172,160.369 326.144,1057.98 328.115,1232.54 330.086,1193.1 332.058,1312.23 334.029,1283.5 336.001,1304.21 337.972,1218.04 339.944,1286 341.915,1328.31 
  343.887,1282.09 345.858,1292.71 347.83,1327.04 349.801,1333.67 351.773,1346.4 353.744,1348.64 355.716,1354.75 357.687,1330.33 359.659,1331.34 361.63,1317.24 
  363.601,1297.28 365.573,1328.14 367.544,1350.04 369.516,1315.95 371.487,1311.36 373.459,1285.98 375.43,1253.74 377.402,1233 379.373,1194.41 381.345,1271.41 
  383.316,1230.21 385.288,1249.82 387.259,1271.3 389.231,1257.03 391.202,1257.72 393.173,1269.57 395.145,1201.78 397.116,1265.9 399.088,1217.43 401.059,1240 
  403.031,1250.48 405.002,1267.31 406.974,1317.18 408.945,1321.87 410.917,1326.63 412.888,1342.13 414.86,1367.67 416.831,1324.23 418.803,1300.87 420.774,1330.34 
  422.746,1318.56 424.717,1316.17 426.688,1336.15 428.66,1328.75 430.631,1355.07 432.603,1325.36 434.574,1283.92 436.546,1300.91 438.517,1234.07 440.489,1283.77 
  442.46,1244.52 444.432,1252.57 446.403,1249.12 448.375,1271.99 450.346,1223.49 452.318,1169.43 454.289,1154.25 456.261,1114.88 458.232,1136.4 460.203,1141.97 
  462.175,1273.56 464.146,1279.08 466.118,1248.81 468.089,1292.93 470.061,1264.4 472.032,1291.74 474.004,1260.7 475.975,1299.2 477.947,1324.07 479.918,1339.09 
  481.89,1334.2 483.861,1357.71 485.833,1376.07 487.804,1375.95 489.776,1319.05 491.747,1341.5 493.718,1293.96 495.69,1322.33 497.661,1328.54 499.633,1308.81 
  501.604,1318.99 503.576,1287.52 505.547,1290.15 507.519,1295.87 509.49,1246.92 511.462,1294.55 513.433,1273.81 515.405,1202.71 517.376,1240.59 519.348,1264.25 
  521.319,1190.84 523.291,1266.43 525.262,1244.09 527.233,1265.02 529.205,1256.15 531.176,1226.34 533.148,1295.9 535.119,1249.59 537.091,1281.75 539.062,1252.47 
  541.034,1307.42 543.005,1313.82 544.977,1288.53 546.948,1329.99 548.92,1294.68 550.891,1320.12 552.863,1362.39 554.834,1369.55 556.806,1349.32 558.777,1355 
  560.748,1341.18 562.72,1345.33 564.691,1312.18 566.663,1317.66 568.634,1272.41 570.606,1267.34 572.577,1261.42 574.549,1266.43 576.52,1234.12 578.492,1198.23 
  580.463,1257.61 582.435,1241.46 584.406,1240.42 586.378,1221.31 588.349,1182.64 590.321,1260.44 592.292,1237.84 594.263,1183.51 596.235,1277.1 598.206,1301.01 
  600.178,1233.75 602.149,1261.45 604.121,1279.26 606.092,1296.96 608.064,1350.56 610.035,1301.93 612.007,1372.94 613.978,1338.97 615.95,1316.96 617.921,1366.15 
  619.893,1328.96 621.864,1382.68 623.836,1364.58 625.807,1339.49 627.778,1310.45 629.75,1304.59 631.721,1309.02 633.693,1347.17 635.664,1317.81 637.636,1291.4 
  639.607,1223.32 641.579,1248.58 643.55,1169.75 645.522,1175.28 647.493,1206.44 649.465,1164.76 651.436,1251.39 653.408,1226.67 655.379,1245.91 657.351,1311.13 
  659.322,1250.19 661.293,1237.03 663.265,1241.08 665.236,1239.64 667.208,1280.67 669.179,1261.51 671.151,1257.4 673.122,1274.06 675.094,1283.5 677.065,1323.14 
  679.037,1356.39 681.008,1309.03 682.98,1345.21 684.951,1335.54 686.923,1346.65 688.894,1348.16 690.866,1338.02 692.837,1327.5 694.808,1310.97 696.78,1315.48 
  698.751,1305.08 700.723,1292.83 702.694,1283.6 704.666,1288.18 706.637,1244.26 708.609,1254.59 710.58,1216.84 712.552,1242.59 714.523,1149.71 716.495,1199.56 
  718.466,1208.57 720.438,1174.9 722.409,1214.27 724.381,1233.95 726.352,1281.42 728.323,1232.79 730.295,1272.27 732.266,1316.26 734.238,1294.31 736.209,1284.3 
  738.181,1322.21 740.152,1337.73 742.124,1321.29 744.095,1310.32 746.067,1327.61 748.038,1343.42 750.01,1336.76 751.981,1375.71 753.953,1364.65 755.924,1324.51 
  757.896,1340.15 759.867,1332.08 761.838,1341.27 763.81,1292.28 765.781,1267.94 767.753,1316.61 769.724,1268.42 771.696,1313.08 773.667,1258.89 775.639,1197.58 
  777.61,1289.51 779.582,1260.25 781.553,1256.13 783.525,1226.83 785.496,1219.49 787.468,1257.6 789.439,1229.18 791.411,1258 793.382,1279.68 795.353,1189.43 
  797.325,1287.41 799.296,1280.66 801.268,1274.63 803.239,1337.41 805.211,1321.48 807.182,1323.74 809.154,1329.38 811.125,1348.16 813.097,1336.29 815.068,1264 
  817.04,1335.98 819.011,1376.24 820.983,1325.6 822.954,1339.04 824.926,1331.32 826.897,1319.41 828.868,1295.91 830.84,1298.09 832.811,1340.87 834.783,1270.17 
  836.754,1245.08 838.726,1261.46 840.697,1232.43 842.669,1203.03 844.64,1258.82 846.612,1252.74 848.583,1177.58 850.555,1181.07 852.526,1235.93 854.498,1179.29 
  856.469,1153.83 858.441,1224.75 860.412,1283.78 862.383,1296.01 864.355,1285.75 866.326,1301.49 868.298,1322.05 870.269,1301.73 872.241,1316.73 874.212,1348.39 
  876.184,1363.41 878.155,1354.59 880.127,1360.44 882.098,1350.1 884.07,1363.64 886.041,1329.15 888.013,1342.3 889.984,1299.93 891.956,1313.76 893.927,1305.93 
  895.898,1262.16 897.87,1296.82 899.841,1294.18 901.813,1255.26 903.784,1274.69 905.756,1291.56 907.727,1218.47 909.699,1196.93 911.67,1251.79 913.642,1292.57 
  915.613,1240.79 917.585,1208.53 919.556,1240.37 921.528,1215.31 923.499,1205.67 925.471,1203.65 927.442,1267.41 929.413,1280.44 931.385,1307.79 933.356,1330.99 
  935.328,1305.73 937.299,1300.53 939.271,1314.46 941.242,1290.66 943.214,1357.01 945.185,1339.7 947.157,1349.27 949.128,1358.12 951.1,1322.82 953.071,1317.82 
  955.043,1383.87 957.014,1341.52 958.985,1343.94 960.957,1329.85 962.928,1306.34 964.9,1272.96 966.871,1226.31 968.843,1264.34 970.814,1232.75 972.786,1183.68 
  974.757,1173.05 976.729,1227.92 978.7,1250.79 980.672,1162.9 982.643,1239.43 984.615,1211.02 986.586,1164.69 988.558,1152.54 990.529,1161.21 992.5,1277.3 
  994.472,1314.74 996.443,1260.13 998.415,1323.2 1000.39,1288.53 1002.36,1286.67 1004.33,1318.78 1006.3,1308.9 1008.27,1357.45 1010.24,1342.39 1012.22,1335.61 
  1014.19,1365.69 1016.16,1363.46 1018.13,1354.3 1020.1,1317.78 1022.07,1311.81 1024.04,1317.09 1026.02,1304.23 1027.99,1305.3 1029.96,1286.93 1031.93,1312.76 
  1033.9,1244.92 1035.87,1198.46 1037.84,1269.59 1039.82,1144.75 1041.79,1181.01 1043.76,1256.59 1045.73,1259.11 1047.7,1214.93 1049.67,1189.95 1051.64,1212.17 
  1053.62,1220.14 1055.59,1205.12 1057.56,1260.91 1059.53,1267.15 1061.5,1214.2 1063.47,1277.25 1065.44,1282.83 1067.42,1298.91 1069.39,1323.5 1071.36,1336.31 
  1073.33,1360.26 1075.3,1317.06 1077.27,1333.8 1079.25,1390.25 1081.22,1348.28 1083.19,1345 1085.16,1331.18 1087.13,1330.42 1089.1,1342.6 1091.07,1304.41 
  1093.05,1312.32 1095.02,1276.39 1096.99,1287.17 1098.96,1253.47 1100.93,1266.77 1102.9,1239.65 1104.87,1247.44 1106.85,1203.21 1108.82,1282.06 1110.79,1153.17 
  1112.76,1254.59 1114.73,1192 1116.7,1149.47 1118.67,1197.38 1120.65,1243.67 1122.62,1282.94 1124.59,1302.35 1126.56,1282.44 1128.53,1282.81 1130.5,1298.8 
  1132.47,1289.41 1134.45,1295.81 1136.42,1339.82 1138.39,1328.43 1140.36,1355.05 1142.33,1349.83 1144.3,1353.59 1146.28,1341.11 1148.25,1322.77 1150.22,1339.91 
  1152.19,1333.34 1154.16,1357.07 1156.13,1332.83 1158.1,1317.53 1160.08,1323.69 1162.05,1263.6 1164.02,1285 1165.99,1263.63 1167.96,1270.33 1169.93,1181.69 
  1171.9,1180.77 1173.88,1199.98 1175.85,1240.14 1177.82,1278.24 1179.79,1207.84 1181.76,1184.74 1183.73,1271.11 1185.7,1280.58 1187.68,1269.6 1189.65,1278.78 
  1191.62,1299.94 1193.59,1291.37 1195.56,1294.52 1197.53,1258.55 1199.5,1287.42 1201.48,1304.86 1203.45,1321.33 1205.42,1302.68 1207.39,1346.65 1209.36,1359.97 
  1211.33,1358.69 1213.31,1367.1 1215.28,1338.16 1217.25,1365.69 1219.22,1328.17 1221.19,1293.36 1223.16,1326.68 1225.13,1308.72 1227.11,1293.45 1229.08,1294.88 
  1231.05,1243.94 1233.02,1221.24 1234.99,1218.1 1236.96,1278.32 1238.93,1302.52 1240.91,1198.18 1242.88,1180.48 1244.85,1219.94 1246.82,1190.81 1248.79,1192.4 
  1250.76,1261.09 1252.73,1213.83 1254.71,1276.23 1256.68,1272.51 1258.65,1285.6 1260.62,1254.03 1262.59,1281.99 1264.56,1319.39 1266.53,1280.45 1268.51,1309.83 
  1270.48,1370.1 1272.45,1364.48 1274.42,1370.19 1276.39,1330.04 1278.36,1365.89 1280.34,1327.11 1282.31,1326.84 1284.28,1368.24 1286.25,1332.35 1288.22,1309.7 
  1290.19,1317.61 1292.16,1304.59 1294.14,1292.97 1296.11,1297.5 1298.08,1279.77 1300.05,1252.92 1302.02,1233.67 1303.99,1233.34 1305.96,1198.28 1307.94,1227.93 
  1309.91,1213.06 1311.88,1155.89 1313.85,1203.92 1315.82,1223.23 1317.79,1225.35 1319.76,1249.14 1321.74,1271.39 1323.71,1276.44 1325.68,1289.37 1327.65,1284.89 
  1329.62,1327.31 1331.59,1290.59 1333.56,1334.29 1335.54,1318.97 1337.51,1316.91 1339.48,1339.39 1341.45,1361.88 1343.42,1332.34 1345.39,1349.78 1347.37,1326.24 
  1349.34,1337.08 1351.31,1359.38 1353.28,1342.62 1355.25,1335.29 1357.22,1302.97 1359.19,1241.53 1361.17,1227.6 1363.14,1249.24 1365.11,1256.2 1367.08,1238.79 
  1369.05,1271.31 1371.02,1197.87 1372.99,1193.42 1374.97,1223.07 1376.94,1220.42 1378.91,1228.11 1380.88,1157.44 1382.85,1237 1384.82,1199.79 1386.79,1204.51 
  1388.77,1290.92 1390.74,1285.96 1392.71,1303.22 1394.68,1341.23 1396.65,1312.1 1398.62,1321.14 1400.59,1319.53 1402.57,1329.25 1404.54,1362.21 1406.51,1350.41 
  1408.48,1355.61 1410.45,1339.56 1412.42,1334.41 1414.4,1313.6 1416.37,1312.97 1418.34,1341.01 1420.31,1304.78 1422.28,1294.51 1424.25,1334.71 1426.22,1307.25 
  1428.2,1306.32 1430.17,1274.46 1432.14,1272.83 1434.11,1262.47 1436.08,1237.01 1438.05,1236.42 1440.02,1168.08 1442,1178.04 1443.97,1182.57 1445.94,1294.39 
  1447.91,1279.17 1449.88,1240.12 1451.85,1276 1453.82,1266.34 1455.8,1217.04 1457.77,1242.62 1459.74,1281.68 1461.71,1331.05 1463.68,1317.68 1465.65,1324.65 
  1467.62,1314.7 1469.6,1356.22 1471.57,1346.33 1473.54,1333.33 1475.51,1358.33 1477.48,1341.79 1479.45,1324.44 1481.43,1313.4 1483.4,1340.46 1485.37,1323.78 
  1487.34,1276.75 1489.31,1293.65 1491.28,1283.22 1493.25,1260.09 1495.23,1258.17 1497.2,1280.43 1499.17,1305.29 1501.14,1215.07 1503.11,1231.18 1505.08,1241.09 
  1507.05,1207.36 1509.03,1273.68 1511,1241.49 1512.97,1222.21 1514.94,1227.79 1516.91,1227.37 1518.88,1256.4 1520.85,1217.47 1522.83,1301.5 1524.8,1308.22 
  1526.77,1323.11 1528.74,1314.6 1530.71,1329.38 1532.68,1361.96 1534.65,1318.8 1536.63,1320.98 1538.6,1345.66 1540.57,1352.41 1542.54,1359.5 1544.51,1330.28 
  1546.48,1310.26 1548.46,1346.17 1550.43,1308.68 1552.4,1316.57 1554.37,1306.78 1556.34,1301.32 1558.31,1249.03 1560.28,1267.29 1562.26,1285.82 1564.23,1244.66 
  1566.2,1185.07 1568.17,1164.22 1570.14,1171.49 1572.11,1162.66 1574.08,1209.33 1576.06,1234.08 1578.03,1298.04 1580,1277.54 1581.97,1211.92 1583.94,1274.4 
  1585.91,1272.66 1587.88,1215.97 1589.86,1230.2 1591.83,1267.46 1593.8,1292.84 1595.77,1322.97 1597.74,1334.65 1599.71,1335.82 1601.68,1311.1 1603.66,1327.84 
  1605.63,1318.76 1607.6,1325.27 1609.57,1343.1 1611.54,1365.22 1613.51,1301.34 1615.49,1323.9 1617.46,1307.79 1619.43,1313.44 1621.4,1317.76 1623.37,1262.77 
  1625.34,1243.93 1627.31,1292.71 1629.29,1216.64 1631.26,1265.59 1633.23,1260.6 1635.2,1204.39 1637.17,1280.4 1639.14,1168.58 1641.11,1245 1643.09,1245.12 
  1645.06,1261.05 1647.03,1223.49 1649,1258.64 1650.97,1228.57 1652.94,1218.38 1654.91,1288.19 1656.89,1293.62 1658.86,1324.85 1660.83,1330.54 1662.8,1294.97 
  1664.77,1312.59 1666.74,1331.76 1668.71,1323.73 1670.69,1379.87 1672.66,1335.09 1674.63,1372.55 1676.6,1349.25 1678.57,1312.2 1680.54,1320.14 1682.52,1311.57 
  1684.49,1283.31 1686.46,1271.34 1688.43,1293.62 1690.4,1287.74 1692.37,1221.91 1694.34,1239.98 1696.32,1274.4 1698.29,1242 1700.26,1214.46 1702.23,1232.06 
  1704.2,1109.59 1706.17,1128.13 1708.14,1251.77 1710.12,1270.13 1712.09,1258.6 1714.06,1289.31 1716.03,1264.31 1718,1210.98 1719.97,1280.94 1721.94,1268.2 
  1723.92,1279.82 1725.89,1286.77 1727.86,1292.34 1729.83,1340.34 1731.8,1315.5 1733.77,1295.77 1735.74,1338.12 1737.72,1325.83 1739.69,1299.48 1741.66,1353.15 
  1743.63,1336.37 1745.6,1333.92 1747.57,1335.98 1749.55,1356 1751.52,1300.43 1753.49,1289.9 1755.46,1316.13 1757.43,1256.61 1759.4,1265.62 1761.37,1211.12 
  1763.35,1251.51 1765.32,1160.79 1767.29,1169.81 1769.26,1274.74 1771.23,1224.94 1773.2,1199.24 1775.17,1243.2 1777.15,1294.43 1779.12,1178.58 1781.09,1236.4 
  1783.06,1242.1 1785.03,1236.52 1787,1285.27 1788.97,1312.15 1790.95,1314.18 1792.92,1321.75 1794.89,1320.83 1796.86,1340.67 1798.83,1321.41 1800.8,1333.21 
  1802.77,1365.37 1804.75,1351.03 1806.72,1361.17 1808.69,1332.07 1810.66,1333.32 1812.63,1305.4 1814.6,1304.08 1816.58,1319.69 1818.55,1270.7 1820.52,1277.62 
  1822.49,1299.23 1824.46,1244.11 1826.43,1223.2 1828.4,1220.59 1830.38,1197.65 1832.35,1240 1834.32,1236.77 1836.29,1225.38 1838.26,1236.66 1840.23,1198.24 
  1842.2,1248.34 1844.18,1245.45 1846.15,1240.34 1848.12,1259.71 1850.09,1271.2 1852.06,1291.72 1854.03,1252.12 1856,1310.1 1857.98,1314.71 1859.95,1309.99 
  1861.92,1311.47 1863.89,1307.53 1865.86,1349.64 1867.83,1355.73 1869.8,1331.67 1871.78,1335.47 1873.75,1366.27 1875.72,1328.13 1877.69,1335.71 1879.66,1349.34 
  1881.63,1289.12 1883.61,1261.4 1885.58,1251.04 1887.55,1278.44 1889.52,1229.22 1891.49,1246.86 1893.46,1234.92 1895.43,1265.51 1897.41,1236.02 1899.38,1212.75 
  1901.35,1240.96 1903.32,1235.56 1905.29,1207.39 1907.26,1190.9 1909.23,1210 1911.21,1188.63 1913.18,1222.9 1915.15,1241.07 1917.12,1279.69 1919.09,1298.75 
  1921.06,1321 1923.03,1310.77 1925.01,1296.96 1926.98,1328.81 1928.95,1340.58 1930.92,1306.36 1932.89,1340.7 1934.86,1362.82 1936.83,1361.45 1938.81,1359.44 
  1940.78,1332.3 1942.75,1303.37 1944.72,1293.83 1946.69,1310.98 1948.66,1319.95 1950.64,1324.77 1952.61,1307.46 1954.58,1250.56 1956.55,1246.95 1958.52,1193.52 
  1960.49,1216.22 1962.46,1181.88 1964.44,1173.06 1966.41,1244.2 1968.38,1212.72 1970.35,1280.94 1972.32,1245.29 1974.29,1256.16 1976.26,1198.6 1978.24,1198.81 
  1980.21,1254.3 1982.18,1223.84 1984.15,1263.57 1986.12,1248.36 1988.09,1286.34 1990.06,1292.89 1992.04,1322.17 1994.01,1347.08 1995.98,1332.94 1997.95,1339.91 
  1999.92,1325.67 2001.89,1354.33 2003.86,1351.39 2005.84,1329.72 2007.81,1344.1 2009.78,1337.94 2011.75,1333.91 2013.72,1332.32 2015.69,1302.38 2017.67,1345.06 
  2019.64,1303.18 2021.61,1207.92 2023.58,1295.06 2025.55,1247.95 2027.52,1217.34 2029.49,1224.47 2031.47,1249.75 2033.44,1234.45 2035.41,1165.79 2037.38,1147.3 
  2039.35,1264.52 2041.32,1180.91 2043.29,1224.64 2045.27,1294.12 2047.24,1254.92 2049.21,1263.64 2051.18,1292.29 2053.15,1307.15 2055.12,1289.73 2057.09,1325.48 
  2059.07,1318.48 2061.04,1315.02 2063.01,1348.69 2064.98,1371.31 2066.95,1359.39 2068.92,1363.82 2070.89,1359.82 2072.87,1329.84 2074.84,1304.48 2076.81,1301.77 
  2078.78,1282.32 2080.75,1259.72 2082.72,1233.27 2084.7,1274.65 2086.67,1230.86 2088.64,1241.15 2090.61,1232.7 2092.58,1226.97 2094.55,1245.49 2096.52,1195.4 
  2098.5,1247.76 2100.47,1170.95 2102.44,1263.6 2104.41,1224.29 2106.38,1181.15 2108.35,1213.47 2110.32,1256.54 2112.3,1279.92 2114.27,1249.56 2116.24,1285.41 
  2118.21,1348.64 2120.18,1339.48 2122.15,1313.66 2124.12,1344.38 2126.1,1351.43 2128.07,1365.98 2130.04,1324.87 2132.01,1346.86 2133.98,1328.17 2135.95,1306.26 
  2137.92,1332.63 2139.9,1338.74 2141.87,1341.61 2143.84,1306.92 2145.81,1285.92 2147.78,1314.68 2149.75,1321.43 2151.73,1273.65 2153.7,1266.09 2155.67,1270.85 
  2157.64,1235.68 2159.61,1204.92 2161.58,1298.33 2163.55,1240.78 2165.53,1264.4 2167.5,1230.41 2169.47,1159.32 2171.44,1265.99 2173.41,1283.07 2175.38,1263.46 
  2177.35,1232.39 2179.33,1286.86 2181.3,1338.29 2183.27,1263.84 2185.24,1316.03 2187.21,1318.35 2189.18,1356 2191.15,1339.38 2193.13,1334.13 2195.1,1357.41 
  2197.07,1341.84 2199.04,1359.1 2201.01,1337.24 2202.98,1329.04 2204.95,1340.11 2206.93,1282.46 2208.9,1286.29 2210.87,1277.71 2212.84,1266.4 2214.81,1280.88 
  2216.78,1194.94 2218.76,1219.18 2220.73,1306.3 2222.7,1229.1 2224.67,1246.05 2226.64,1258.09 2228.61,1268.18 2230.58,1126.05 2232.56,1178.19 2234.53,1244.84 
  2236.5,1232.09 2238.47,1262.41 2240.44,1306.94 2242.41,1303.3 2244.38,1269.07 2246.36,1239.55 2248.33,1279.43 2250.3,1264.19 2252.27,1256.6 2254.24,1316.71 
  2256.21,1314.16 2258.18,1315.42 2260.16,1341.94 2262.13,1336.67 2264.1,1333.35 2266.07,1315.23 2268.04,1346.46 2270.01,1343.88 2271.98,1303.38 2273.96,1345.98 
  2275.93,1330.57 2277.9,1288.58 2279.87,1287.45 2281.84,1281.72 2283.81,1320.21 2285.79,1277.99 2287.76,1316.32 2289.73,1287.42 2291.7,1210.99 2293.67,1289.01 
  
  "/>
</svg>
