<?xml version="1.0" encoding="utf-8"?>
<svg xmlns="http://www.w3.org/2000/svg" xmlns:xlink="http://www.w3.org/1999/xlink" width="600" height="400" viewBox="0 0 2400 1600">
<defs>
  <clipPath id="clip080">
    <rect x="0" y="0" width="2400" height="1600"/>
  </clipPath>
</defs>
<path clip-path="url(#clip080)" d="
M0 1600 L2400 1600 L2400 0 L0 0  Z
  " fill="#ffffff" fill-rule="evenodd" fill-opacity="1"/>
<defs>
  <clipPath id="clip081">
    <rect x="480" y="0" width="1681" height="1600"/>
  </clipPath>
</defs>
<defs>
  <clipPath id="clip082">
    <rect x="265" y="123" width="2089" height="1305"/>
  </clipPath>
</defs>
<path clip-path="url(#clip080)" d="
M217.64 1423.18 L2352.76 1423.18 L2352.76 123.472 L217.64 123.472  Z
  " fill="#ffffff" fill-rule="evenodd" fill-opacity="1"/>
<defs>
  <clipPath id="clip083">
    <rect x="217" y="123" width="2136" height="1301"/>
  </clipPath>
</defs>
<polyline clip-path="url(#clip083)" style="stroke:#000000; stroke-width:2; stroke-opacity:0.1; fill:none" points="
  278.068,1423.18 278.068,123.472 
  "/>
<polyline clip-path="url(#clip083)" style="stroke:#000000; stroke-width:2; stroke-opacity:0.1; fill:none" points="
  681.327,1423.18 681.327,123.472 
  "/>
<polyline clip-path="url(#clip083)" style="stroke:#000000; stroke-width:2; stroke-opacity:0.1; fill:none" points="
  1084.59,1423.18 1084.59,123.472 
  "/>
<polyline clip-path="url(#clip083)" style="stroke:#000000; stroke-width:2; stroke-opacity:0.1; fill:none" points="
  1487.85,1423.18 1487.85,123.472 
  "/>
<polyline clip-path="url(#clip083)" style="stroke:#000000; stroke-width:2; stroke-opacity:0.1; fill:none" points="
  1891.11,1423.18 1891.11,123.472 
  "/>
<polyline clip-path="url(#clip083)" style="stroke:#000000; stroke-width:2; stroke-opacity:0.1; fill:none" points="
  2294.37,1423.18 2294.37,123.472 
  "/>
<polyline clip-path="url(#clip080)" style="stroke:#000000; stroke-width:4; stroke-opacity:1; fill:none" points="
  217.64,1423.18 2352.76,1423.18 
  "/>
<polyline clip-path="url(#clip080)" style="stroke:#000000; stroke-width:4; stroke-opacity:1; fill:none" points="
  278.068,1423.18 278.068,1407.58 
  "/>
<polyline clip-path="url(#clip080)" style="stroke:#000000; stroke-width:4; stroke-opacity:1; fill:none" points="
  681.327,1423.18 681.327,1407.58 
  "/>
<polyline clip-path="url(#clip080)" style="stroke:#000000; stroke-width:4; stroke-opacity:1; fill:none" points="
  1084.59,1423.18 1084.59,1407.58 
  "/>
<polyline clip-path="url(#clip080)" style="stroke:#000000; stroke-width:4; stroke-opacity:1; fill:none" points="
  1487.85,1423.18 1487.85,1407.58 
  "/>
<polyline clip-path="url(#clip080)" style="stroke:#000000; stroke-width:4; stroke-opacity:1; fill:none" points="
  1891.11,1423.18 1891.11,1407.58 
  "/>
<polyline clip-path="url(#clip080)" style="stroke:#000000; stroke-width:4; stroke-opacity:1; fill:none" points="
  2294.37,1423.18 2294.37,1407.58 
  "/>
<path clip-path="url(#clip080)" d="M 0 0 M278.068 1452.37 Q274.456 1452.37 272.628 1455.94 Q270.822 1459.48 270.822 1466.61 Q270.822 1473.71 272.628 1477.28 Q274.456 1480.82 278.068 1480.82 Q281.702 1480.82 283.507 1477.28 Q285.336 1473.71 285.336 1466.61 Q285.336 1459.48 283.507 1455.94 Q281.702 1452.37 278.068 1452.37 M278.068 1448.67 Q283.878 1448.67 286.933 1453.27 Q290.012 1457.86 290.012 1466.61 Q290.012 1475.33 286.933 1479.94 Q283.878 1484.52 278.068 1484.52 Q272.257 1484.52 269.179 1479.94 Q266.123 1475.33 266.123 1466.61 Q266.123 1457.86 269.179 1453.27 Q272.257 1448.67 278.068 1448.67 Z" fill="#000000" fill-rule="evenodd" fill-opacity="1" /><path clip-path="url(#clip080)" d="M 0 0 M656.015 1479.92 L663.654 1479.92 L663.654 1453.55 L655.344 1455.22 L655.344 1450.96 L663.608 1449.29 L668.284 1449.29 L668.284 1479.92 L675.922 1479.92 L675.922 1483.85 L656.015 1483.85 L656.015 1479.92 Z" fill="#000000" fill-rule="evenodd" fill-opacity="1" /><path clip-path="url(#clip080)" d="M 0 0 M695.367 1452.37 Q691.756 1452.37 689.927 1455.94 Q688.121 1459.48 688.121 1466.61 Q688.121 1473.71 689.927 1477.28 Q691.756 1480.82 695.367 1480.82 Q699.001 1480.82 700.806 1477.28 Q702.635 1473.71 702.635 1466.61 Q702.635 1459.48 700.806 1455.94 Q699.001 1452.37 695.367 1452.37 M695.367 1448.67 Q701.177 1448.67 704.232 1453.27 Q707.311 1457.86 707.311 1466.61 Q707.311 1475.33 704.232 1479.94 Q701.177 1484.52 695.367 1484.52 Q689.557 1484.52 686.478 1479.94 Q683.422 1475.33 683.422 1466.61 Q683.422 1457.86 686.478 1453.27 Q689.557 1448.67 695.367 1448.67 Z" fill="#000000" fill-rule="evenodd" fill-opacity="1" /><path clip-path="url(#clip080)" d="M 0 0 M1063.36 1479.92 L1079.68 1479.92 L1079.68 1483.85 L1057.74 1483.85 L1057.74 1479.92 Q1060.4 1477.16 1064.98 1472.53 Q1069.59 1467.88 1070.77 1466.54 Q1073.01 1464.01 1073.89 1462.28 Q1074.8 1460.52 1074.8 1458.83 Q1074.8 1456.07 1072.85 1454.34 Q1070.93 1452.6 1067.83 1452.6 Q1065.63 1452.6 1063.18 1453.37 Q1060.74 1454.13 1057.97 1455.68 L1057.97 1450.96 Q1060.79 1449.82 1063.24 1449.25 Q1065.7 1448.67 1067.74 1448.67 Q1073.11 1448.67 1076.3 1451.35 Q1079.49 1454.04 1079.49 1458.53 Q1079.49 1460.66 1078.68 1462.58 Q1077.9 1464.48 1075.79 1467.07 Q1075.21 1467.74 1072.11 1470.96 Q1069.01 1474.15 1063.36 1479.92 Z" fill="#000000" fill-rule="evenodd" fill-opacity="1" /><path clip-path="url(#clip080)" d="M 0 0 M1099.49 1452.37 Q1095.88 1452.37 1094.05 1455.94 Q1092.25 1459.48 1092.25 1466.61 Q1092.25 1473.71 1094.05 1477.28 Q1095.88 1480.82 1099.49 1480.82 Q1103.13 1480.82 1104.93 1477.28 Q1106.76 1473.71 1106.76 1466.61 Q1106.76 1459.48 1104.93 1455.94 Q1103.13 1452.37 1099.49 1452.37 M1099.49 1448.67 Q1105.3 1448.67 1108.36 1453.27 Q1111.44 1457.86 1111.44 1466.61 Q1111.44 1475.33 1108.36 1479.94 Q1105.3 1484.52 1099.49 1484.52 Q1093.68 1484.52 1090.61 1479.94 Q1087.55 1475.33 1087.55 1466.61 Q1087.55 1457.86 1090.61 1453.27 Q1093.68 1448.67 1099.49 1448.67 Z" fill="#000000" fill-rule="evenodd" fill-opacity="1" /><path clip-path="url(#clip080)" d="M 0 0 M1476.69 1465.22 Q1480.05 1465.94 1481.92 1468.2 Q1483.82 1470.47 1483.82 1473.81 Q1483.82 1478.92 1480.3 1481.72 Q1476.78 1484.52 1470.3 1484.52 Q1468.13 1484.52 1465.81 1484.08 Q1463.52 1483.67 1461.06 1482.81 L1461.06 1478.3 Q1463.01 1479.43 1465.32 1480.01 Q1467.64 1480.59 1470.16 1480.59 Q1474.56 1480.59 1476.85 1478.85 Q1479.17 1477.12 1479.17 1473.81 Q1479.17 1470.75 1477.01 1469.04 Q1474.88 1467.3 1471.06 1467.3 L1467.04 1467.3 L1467.04 1463.46 L1471.25 1463.46 Q1474.7 1463.46 1476.53 1462.09 Q1478.36 1460.7 1478.36 1458.11 Q1478.36 1455.45 1476.46 1454.04 Q1474.58 1452.6 1471.06 1452.6 Q1469.14 1452.6 1466.94 1453.02 Q1464.75 1453.44 1462.11 1454.31 L1462.11 1450.15 Q1464.77 1449.41 1467.08 1449.04 Q1469.42 1448.67 1471.48 1448.67 Q1476.81 1448.67 1479.91 1451.1 Q1483.01 1453.5 1483.01 1457.63 Q1483.01 1460.5 1481.37 1462.49 Q1479.72 1464.45 1476.69 1465.22 Z" fill="#000000" fill-rule="evenodd" fill-opacity="1" /><path clip-path="url(#clip080)" d="M 0 0 M1502.69 1452.37 Q1499.07 1452.37 1497.25 1455.94 Q1495.44 1459.48 1495.44 1466.61 Q1495.44 1473.71 1497.25 1477.28 Q1499.07 1480.82 1502.69 1480.82 Q1506.32 1480.82 1508.12 1477.28 Q1509.95 1473.71 1509.95 1466.61 Q1509.95 1459.48 1508.12 1455.94 Q1506.32 1452.37 1502.69 1452.37 M1502.69 1448.67 Q1508.5 1448.67 1511.55 1453.27 Q1514.63 1457.86 1514.63 1466.61 Q1514.63 1475.33 1511.55 1479.94 Q1508.5 1484.52 1502.69 1484.52 Q1496.87 1484.52 1493.8 1479.94 Q1490.74 1475.33 1490.74 1466.61 Q1490.74 1457.86 1493.8 1453.27 Q1496.87 1448.67 1502.69 1448.67 Z" fill="#000000" fill-rule="evenodd" fill-opacity="1" /><path clip-path="url(#clip080)" d="M 0 0 M1879.28 1453.37 L1867.47 1471.81 L1879.28 1471.81 L1879.28 1453.37 M1878.05 1449.29 L1883.93 1449.29 L1883.93 1471.81 L1888.86 1471.81 L1888.86 1475.7 L1883.93 1475.7 L1883.93 1483.85 L1879.28 1483.85 L1879.28 1475.7 L1863.68 1475.7 L1863.68 1471.19 L1878.05 1449.29 Z" fill="#000000" fill-rule="evenodd" fill-opacity="1" /><path clip-path="url(#clip080)" d="M 0 0 M1906.59 1452.37 Q1902.98 1452.37 1901.15 1455.94 Q1899.35 1459.48 1899.35 1466.61 Q1899.35 1473.71 1901.15 1477.28 Q1902.98 1480.82 1906.59 1480.82 Q1910.23 1480.82 1912.03 1477.28 Q1913.86 1473.71 1913.86 1466.61 Q1913.86 1459.48 1912.03 1455.94 Q1910.23 1452.37 1906.59 1452.37 M1906.59 1448.67 Q1912.4 1448.67 1915.46 1453.27 Q1918.54 1457.86 1918.54 1466.61 Q1918.54 1475.33 1915.46 1479.94 Q1912.4 1484.52 1906.59 1484.52 Q1900.78 1484.52 1897.7 1479.94 Q1894.65 1475.33 1894.65 1466.61 Q1894.65 1457.86 1897.7 1453.27 Q1900.78 1448.67 1906.59 1448.67 Z" fill="#000000" fill-rule="evenodd" fill-opacity="1" /><path clip-path="url(#clip080)" d="M 0 0 M2269.07 1449.29 L2287.42 1449.29 L2287.42 1453.23 L2273.35 1453.23 L2273.35 1461.7 Q2274.37 1461.35 2275.39 1461.19 Q2276.4 1461 2277.42 1461 Q2283.21 1461 2286.59 1464.18 Q2289.97 1467.35 2289.97 1472.76 Q2289.97 1478.34 2286.5 1481.44 Q2283.02 1484.52 2276.7 1484.52 Q2274.53 1484.52 2272.26 1484.15 Q2270.02 1483.78 2267.61 1483.04 L2267.61 1478.34 Q2269.69 1479.48 2271.91 1480.03 Q2274.14 1480.59 2276.61 1480.59 Q2280.62 1480.59 2282.95 1478.48 Q2285.29 1476.38 2285.29 1472.76 Q2285.29 1469.15 2282.95 1467.05 Q2280.62 1464.94 2276.61 1464.94 Q2274.74 1464.94 2272.86 1465.36 Q2271.01 1465.77 2269.07 1466.65 L2269.07 1449.29 Z" fill="#000000" fill-rule="evenodd" fill-opacity="1" /><path clip-path="url(#clip080)" d="M 0 0 M2309.18 1452.37 Q2305.57 1452.37 2303.74 1455.94 Q2301.94 1459.48 2301.94 1466.61 Q2301.94 1473.71 2303.74 1477.28 Q2305.57 1480.82 2309.18 1480.82 Q2312.82 1480.82 2314.62 1477.28 Q2316.45 1473.71 2316.45 1466.61 Q2316.45 1459.48 2314.62 1455.94 Q2312.82 1452.37 2309.18 1452.37 M2309.18 1448.67 Q2314.99 1448.67 2318.05 1453.27 Q2321.13 1457.86 2321.13 1466.61 Q2321.13 1475.33 2318.05 1479.94 Q2314.99 1484.52 2309.18 1484.52 Q2303.37 1484.52 2300.29 1479.94 Q2297.24 1475.33 2297.24 1466.61 Q2297.24 1457.86 2300.29 1453.27 Q2303.37 1448.67 2309.18 1448.67 Z" fill="#000000" fill-rule="evenodd" fill-opacity="1" /><path clip-path="url(#clip080)" d="M 0 0 M1045.31 1518.52 L1045.31 1523.39 L1039.7 1523.39 Q1036.55 1523.39 1035.31 1524.66 Q1034.1 1525.93 1034.1 1529.24 L1034.1 1532.4 L1043.75 1532.4 L1043.75 1536.95 L1034.1 1536.95 L1034.1 1568.04 L1028.21 1568.04 L1028.21 1536.95 L1022.61 1536.95 L1022.61 1532.4 L1028.21 1532.4 L1028.21 1529.91 Q1028.21 1523.96 1030.98 1521.26 Q1033.75 1518.52 1039.77 1518.52 L1045.31 1518.52 Z" fill="#000000" fill-rule="evenodd" fill-opacity="1" /><path clip-path="url(#clip080)" d="M 0 0 M1070.86 1537.87 Q1069.88 1537.3 1068.7 1537.04 Q1067.55 1536.76 1066.15 1536.76 Q1061.19 1536.76 1058.52 1540 Q1055.87 1543.22 1055.87 1549.27 L1055.87 1568.04 L1049.98 1568.04 L1049.98 1532.4 L1055.87 1532.4 L1055.87 1537.93 Q1057.72 1534.69 1060.68 1533.13 Q1063.64 1531.54 1067.87 1531.54 Q1068.48 1531.54 1069.21 1531.63 Q1069.94 1531.7 1070.83 1531.85 L1070.86 1537.87 Z" fill="#000000" fill-rule="evenodd" fill-opacity="1" /><path clip-path="url(#clip080)" d="M 0 0 M1106.07 1548.76 L1106.07 1551.62 L1079.14 1551.62 Q1079.52 1557.67 1082.77 1560.85 Q1086.05 1564 1091.87 1564 Q1095.25 1564 1098.4 1563.17 Q1101.58 1562.35 1104.7 1560.69 L1104.7 1566.23 Q1101.55 1567.57 1098.24 1568.27 Q1094.93 1568.97 1091.52 1568.97 Q1082.99 1568.97 1077.99 1564 Q1073.03 1559.04 1073.03 1550.57 Q1073.03 1541.82 1077.74 1536.69 Q1082.48 1531.54 1090.5 1531.54 Q1097.7 1531.54 1101.87 1536.18 Q1106.07 1540.8 1106.07 1548.76 M1100.21 1547.04 Q1100.15 1542.23 1097.5 1539.37 Q1094.9 1536.5 1090.57 1536.5 Q1085.66 1536.5 1082.7 1539.27 Q1079.78 1542.04 1079.33 1547.07 L1100.21 1547.04 Z" fill="#000000" fill-rule="evenodd" fill-opacity="1" /><path clip-path="url(#clip080)" d="M 0 0 M1119.18 1550.25 Q1119.18 1556.71 1121.82 1560.4 Q1124.5 1564.07 1129.14 1564.07 Q1133.79 1564.07 1136.46 1560.4 Q1139.14 1556.71 1139.14 1550.25 Q1139.14 1543.79 1136.46 1540.13 Q1133.79 1536.44 1129.14 1536.44 Q1124.5 1536.44 1121.82 1540.13 Q1119.18 1543.79 1119.18 1550.25 M1139.14 1562.7 Q1137.29 1565.88 1134.46 1567.44 Q1131.66 1568.97 1127.71 1568.97 Q1121.25 1568.97 1117.18 1563.81 Q1113.13 1558.65 1113.13 1550.25 Q1113.13 1541.85 1117.18 1536.69 Q1121.25 1531.54 1127.71 1531.54 Q1131.66 1531.54 1134.46 1533.1 Q1137.29 1534.62 1139.14 1537.81 L1139.14 1532.4 L1144.99 1532.4 L1144.99 1581.6 L1139.14 1581.6 L1139.14 1562.7 Z" fill="#000000" fill-rule="evenodd" fill-opacity="1" /><path clip-path="url(#clip080)" d="M 0 0 M1156.45 1553.98 L1156.45 1532.4 L1162.31 1532.4 L1162.31 1553.75 Q1162.31 1558.81 1164.28 1561.36 Q1166.25 1563.87 1170.2 1563.87 Q1174.94 1563.87 1177.68 1560.85 Q1180.45 1557.83 1180.45 1552.61 L1180.45 1532.4 L1186.31 1532.4 L1186.31 1568.04 L1180.45 1568.04 L1180.45 1562.57 Q1178.32 1565.82 1175.48 1567.41 Q1172.68 1568.97 1168.96 1568.97 Q1162.82 1568.97 1159.63 1565.15 Q1156.45 1561.33 1156.45 1553.98 M1171.19 1531.54 L1171.19 1531.54 Z" fill="#000000" fill-rule="evenodd" fill-opacity="1" /><path clip-path="url(#clip080)" d="M 0 0 M1228.86 1548.76 L1228.86 1551.62 L1201.93 1551.62 Q1202.32 1557.67 1205.56 1560.85 Q1208.84 1564 1214.67 1564 Q1218.04 1564 1221.19 1563.17 Q1224.37 1562.35 1227.49 1560.69 L1227.49 1566.23 Q1224.34 1567.57 1221.03 1568.27 Q1217.72 1568.97 1214.32 1568.97 Q1205.79 1568.97 1200.79 1564 Q1195.82 1559.04 1195.82 1550.57 Q1195.82 1541.82 1200.53 1536.69 Q1205.28 1531.54 1213.3 1531.54 Q1220.49 1531.54 1224.66 1536.18 Q1228.86 1540.8 1228.86 1548.76 M1223 1547.04 Q1222.94 1542.23 1220.3 1539.37 Q1217.69 1536.5 1213.36 1536.5 Q1208.46 1536.5 1205.5 1539.27 Q1202.57 1542.04 1202.13 1547.07 L1223 1547.04 Z" fill="#000000" fill-rule="evenodd" fill-opacity="1" /><path clip-path="url(#clip080)" d="M 0 0 M1268.11 1546.53 L1268.11 1568.04 L1262.25 1568.04 L1262.25 1546.72 Q1262.25 1541.66 1260.28 1539.14 Q1258.3 1536.63 1254.36 1536.63 Q1249.61 1536.63 1246.88 1539.65 Q1244.14 1542.68 1244.14 1547.9 L1244.14 1568.04 L1238.25 1568.04 L1238.25 1532.4 L1244.14 1532.4 L1244.14 1537.93 Q1246.24 1534.72 1249.07 1533.13 Q1251.94 1531.54 1255.66 1531.54 Q1261.8 1531.54 1264.95 1535.36 Q1268.11 1539.14 1268.11 1546.53 Z" fill="#000000" fill-rule="evenodd" fill-opacity="1" /><path clip-path="url(#clip080)" d="M 0 0 M1305.44 1533.76 L1305.44 1539.24 Q1302.96 1537.87 1300.44 1537.2 Q1297.96 1536.5 1295.41 1536.5 Q1289.72 1536.5 1286.57 1540.13 Q1283.42 1543.73 1283.42 1550.25 Q1283.42 1556.78 1286.57 1560.4 Q1289.72 1564 1295.41 1564 Q1297.96 1564 1300.44 1563.33 Q1302.96 1562.63 1305.44 1561.26 L1305.44 1566.68 Q1302.99 1567.82 1300.35 1568.39 Q1297.74 1568.97 1294.78 1568.97 Q1286.73 1568.97 1281.98 1563.91 Q1277.24 1558.85 1277.24 1550.25 Q1277.24 1541.53 1282.01 1536.53 Q1286.82 1531.54 1295.16 1531.54 Q1297.87 1531.54 1300.44 1532.11 Q1303.02 1532.65 1305.44 1533.76 Z" fill="#000000" fill-rule="evenodd" fill-opacity="1" /><path clip-path="url(#clip080)" d="M 0 0 M1330.46 1571.35 Q1327.98 1577.72 1325.62 1579.66 Q1323.26 1581.6 1319.32 1581.6 L1314.64 1581.6 L1314.64 1576.7 L1318.08 1576.7 Q1320.5 1576.7 1321.83 1575.56 Q1323.17 1574.41 1324.79 1570.14 L1325.84 1567.47 L1311.42 1532.4 L1317.63 1532.4 L1328.77 1560.28 L1339.91 1532.4 L1346.12 1532.4 L1330.46 1571.35 Z" fill="#000000" fill-rule="evenodd" fill-opacity="1" /><path clip-path="url(#clip080)" d="M 0 0 M1388.99 1518.58 Q1384.73 1525.9 1382.66 1533.06 Q1380.59 1540.23 1380.59 1547.58 Q1380.59 1554.93 1382.66 1562.16 Q1384.76 1569.35 1388.99 1576.64 L1383.9 1576.64 Q1379.12 1569.16 1376.74 1561.93 Q1374.38 1554.71 1374.38 1547.58 Q1374.38 1540.48 1376.74 1533.29 Q1379.09 1526.09 1383.9 1518.58 L1388.99 1518.58 Z" fill="#000000" fill-rule="evenodd" fill-opacity="1" /><path clip-path="url(#clip080)" d="M 0 0 M1433.01 1561.26 L1433.01 1548.5 L1422.51 1548.5 L1422.51 1543.22 L1439.38 1543.22 L1439.38 1563.62 Q1435.65 1566.26 1431.16 1567.63 Q1426.68 1568.97 1421.58 1568.97 Q1410.44 1568.97 1404.14 1562.47 Q1397.87 1555.95 1397.87 1544.33 Q1397.87 1532.68 1404.14 1526.19 Q1410.44 1519.66 1421.58 1519.66 Q1426.23 1519.66 1430.4 1520.81 Q1434.6 1521.96 1438.13 1524.18 L1438.13 1531.03 Q1434.57 1528 1430.56 1526.48 Q1426.55 1524.95 1422.12 1524.95 Q1413.4 1524.95 1409.01 1529.82 Q1404.65 1534.69 1404.65 1544.33 Q1404.65 1553.94 1409.01 1558.81 Q1413.4 1563.68 1422.12 1563.68 Q1425.53 1563.68 1428.2 1563.11 Q1430.88 1562.51 1433.01 1561.26 Z" fill="#000000" fill-rule="evenodd" fill-opacity="1" /><path clip-path="url(#clip080)" d="M 0 0 M1451.12 1520.52 L1457.55 1520.52 L1457.55 1540 L1480.91 1540 L1480.91 1520.52 L1487.34 1520.52 L1487.34 1568.04 L1480.91 1568.04 L1480.91 1545.41 L1457.55 1545.41 L1457.55 1568.04 L1451.12 1568.04 L1451.12 1520.52 Z" fill="#000000" fill-rule="evenodd" fill-opacity="1" /><path clip-path="url(#clip080)" d="M 0 0 M1497.34 1532.4 L1525.15 1532.4 L1525.15 1537.74 L1503.13 1563.37 L1525.15 1563.37 L1525.15 1568.04 L1496.54 1568.04 L1496.54 1562.7 L1518.56 1537.07 L1497.34 1537.07 L1497.34 1532.4 Z" fill="#000000" fill-rule="evenodd" fill-opacity="1" /><path clip-path="url(#clip080)" d="M 0 0 M1533.17 1518.58 L1538.27 1518.58 Q1543.04 1526.09 1545.4 1533.29 Q1547.78 1540.48 1547.78 1547.58 Q1547.78 1554.71 1545.4 1561.93 Q1543.04 1569.16 1538.27 1576.64 L1533.17 1576.64 Q1537.41 1569.35 1539.48 1562.16 Q1541.58 1554.93 1541.58 1547.58 Q1541.58 1540.23 1539.48 1533.06 Q1537.41 1525.9 1533.17 1518.58 Z" fill="#000000" fill-rule="evenodd" fill-opacity="1" /><polyline clip-path="url(#clip083)" style="stroke:#000000; stroke-width:2; stroke-opacity:0.1; fill:none" points="
  217.64,1386.4 2352.76,1386.4 
  "/>
<polyline clip-path="url(#clip083)" style="stroke:#000000; stroke-width:2; stroke-opacity:0.1; fill:none" points="
  217.64,1198.67 2352.76,1198.67 
  "/>
<polyline clip-path="url(#clip083)" style="stroke:#000000; stroke-width:2; stroke-opacity:0.1; fill:none" points="
  217.64,1010.95 2352.76,1010.95 
  "/>
<polyline clip-path="url(#clip083)" style="stroke:#000000; stroke-width:2; stroke-opacity:0.1; fill:none" points="
  217.64,823.231 2352.76,823.231 
  "/>
<polyline clip-path="url(#clip083)" style="stroke:#000000; stroke-width:2; stroke-opacity:0.1; fill:none" points="
  217.64,635.51 2352.76,635.51 
  "/>
<polyline clip-path="url(#clip083)" style="stroke:#000000; stroke-width:2; stroke-opacity:0.1; fill:none" points="
  217.64,447.788 2352.76,447.788 
  "/>
<polyline clip-path="url(#clip083)" style="stroke:#000000; stroke-width:2; stroke-opacity:0.1; fill:none" points="
  217.64,260.066 2352.76,260.066 
  "/>
<polyline clip-path="url(#clip080)" style="stroke:#000000; stroke-width:4; stroke-opacity:1; fill:none" points="
  217.64,1423.18 217.64,123.472 
  "/>
<polyline clip-path="url(#clip080)" style="stroke:#000000; stroke-width:4; stroke-opacity:1; fill:none" points="
  217.64,1386.4 243.261,1386.4 
  "/>
<polyline clip-path="url(#clip080)" style="stroke:#000000; stroke-width:4; stroke-opacity:1; fill:none" points="
  217.64,1198.67 243.261,1198.67 
  "/>
<polyline clip-path="url(#clip080)" style="stroke:#000000; stroke-width:4; stroke-opacity:1; fill:none" points="
  217.64,1010.95 243.261,1010.95 
  "/>
<polyline clip-path="url(#clip080)" style="stroke:#000000; stroke-width:4; stroke-opacity:1; fill:none" points="
  217.64,823.231 243.261,823.231 
  "/>
<polyline clip-path="url(#clip080)" style="stroke:#000000; stroke-width:4; stroke-opacity:1; fill:none" points="
  217.64,635.51 243.261,635.51 
  "/>
<polyline clip-path="url(#clip080)" style="stroke:#000000; stroke-width:4; stroke-opacity:1; fill:none" points="
  217.64,447.788 243.261,447.788 
  "/>
<polyline clip-path="url(#clip080)" style="stroke:#000000; stroke-width:4; stroke-opacity:1; fill:none" points="
  217.64,260.066 243.261,260.066 
  "/>
<path clip-path="url(#clip080)" d="M 0 0 M169.695 1372.19 Q166.084 1372.19 164.256 1375.76 Q162.45 1379.3 162.45 1386.43 Q162.45 1393.54 164.256 1397.1 Q166.084 1400.64 169.695 1400.64 Q173.33 1400.64 175.135 1397.1 Q176.964 1393.54 176.964 1386.43 Q176.964 1379.3 175.135 1375.76 Q173.33 1372.19 169.695 1372.19 M169.695 1368.49 Q175.506 1368.49 178.561 1373.1 Q181.64 1377.68 181.64 1386.43 Q181.64 1395.16 178.561 1399.76 Q175.506 1404.35 169.695 1404.35 Q163.885 1404.35 160.807 1399.76 Q157.751 1395.16 157.751 1386.43 Q157.751 1377.68 160.807 1373.1 Q163.885 1368.49 169.695 1368.49 Z" fill="#000000" fill-rule="evenodd" fill-opacity="1" /><path clip-path="url(#clip080)" d="M 0 0 M165.32 1212.02 L181.64 1212.02 L181.64 1215.95 L159.695 1215.95 L159.695 1212.02 Q162.357 1209.26 166.941 1204.63 Q171.547 1199.98 172.728 1198.64 Q174.973 1196.12 175.853 1194.38 Q176.756 1192.62 176.756 1190.93 Q176.756 1188.18 174.811 1186.44 Q172.89 1184.7 169.788 1184.7 Q167.589 1184.7 165.135 1185.47 Q162.705 1186.23 159.927 1187.78 L159.927 1183.06 Q162.751 1181.93 165.205 1181.35 Q167.658 1180.77 169.695 1180.77 Q175.066 1180.77 178.26 1183.45 Q181.455 1186.14 181.455 1190.63 Q181.455 1192.76 180.644 1194.68 Q179.857 1196.58 177.751 1199.17 Q177.172 1199.84 174.07 1203.06 Q170.969 1206.26 165.32 1212.02 Z" fill="#000000" fill-rule="evenodd" fill-opacity="1" /><path clip-path="url(#clip080)" d="M 0 0 M172.056 997.747 L160.251 1016.2 L172.056 1016.2 L172.056 997.747 M170.83 993.673 L176.709 993.673 L176.709 1016.2 L181.64 1016.2 L181.64 1020.08 L176.709 1020.08 L176.709 1028.23 L172.056 1028.23 L172.056 1020.08 L156.455 1020.08 L156.455 1015.57 L170.83 993.673 Z" fill="#000000" fill-rule="evenodd" fill-opacity="1" /><path clip-path="url(#clip080)" d="M 0 0 M170.112 821.368 Q166.964 821.368 165.112 823.52 Q163.283 825.673 163.283 829.423 Q163.283 833.15 165.112 835.326 Q166.964 837.479 170.112 837.479 Q173.26 837.479 175.089 835.326 Q176.941 833.15 176.941 829.423 Q176.941 825.673 175.089 823.52 Q173.26 821.368 170.112 821.368 M179.394 806.715 L179.394 810.974 Q177.635 810.141 175.83 809.701 Q174.047 809.261 172.288 809.261 Q167.658 809.261 165.205 812.386 Q162.774 815.511 162.427 821.831 Q163.793 819.817 165.853 818.752 Q167.913 817.664 170.39 817.664 Q175.598 817.664 178.607 820.835 Q181.64 823.983 181.64 829.423 Q181.64 834.747 178.492 837.965 Q175.344 841.182 170.112 841.182 Q164.117 841.182 160.945 836.599 Q157.774 831.993 157.774 823.266 Q157.774 815.071 161.663 810.21 Q165.552 805.326 172.103 805.326 Q173.862 805.326 175.644 805.673 Q177.45 806.02 179.394 806.715 Z" fill="#000000" fill-rule="evenodd" fill-opacity="1" /><path clip-path="url(#clip080)" d="M 0 0 M169.788 636.378 Q166.455 636.378 164.533 638.16 Q162.635 639.942 162.635 643.067 Q162.635 646.192 164.533 647.975 Q166.455 649.757 169.788 649.757 Q173.121 649.757 175.043 647.975 Q176.964 646.169 176.964 643.067 Q176.964 639.942 175.043 638.16 Q173.144 636.378 169.788 636.378 M165.112 634.387 Q162.103 633.646 160.413 631.586 Q158.746 629.526 158.746 626.563 Q158.746 622.419 161.686 620.012 Q164.649 617.605 169.788 617.605 Q174.95 617.605 177.89 620.012 Q180.83 622.419 180.83 626.563 Q180.83 629.526 179.14 631.586 Q177.473 633.646 174.487 634.387 Q177.867 635.174 179.742 637.466 Q181.64 639.757 181.64 643.067 Q181.64 648.09 178.561 650.776 Q175.506 653.461 169.788 653.461 Q164.07 653.461 160.992 650.776 Q157.936 648.09 157.936 643.067 Q157.936 639.757 159.834 637.466 Q161.732 635.174 165.112 634.387 M163.399 627.003 Q163.399 629.688 165.066 631.192 Q166.756 632.697 169.788 632.697 Q172.797 632.697 174.487 631.192 Q176.2 629.688 176.2 627.003 Q176.2 624.317 174.487 622.813 Q172.797 621.308 169.788 621.308 Q166.756 621.308 165.066 622.813 Q163.399 624.317 163.399 627.003 Z" fill="#000000" fill-rule="evenodd" fill-opacity="1" /><path clip-path="url(#clip080)" d="M 0 0 M130.344 461.133 L137.983 461.133 L137.983 434.767 L129.672 436.434 L129.672 432.175 L137.936 430.508 L142.612 430.508 L142.612 461.133 L150.251 461.133 L150.251 465.068 L130.344 465.068 L130.344 461.133 Z" fill="#000000" fill-rule="evenodd" fill-opacity="1" /><path clip-path="url(#clip080)" d="M 0 0 M169.695 433.587 Q166.084 433.587 164.256 437.151 Q162.45 440.693 162.45 447.823 Q162.45 454.929 164.256 458.494 Q166.084 462.036 169.695 462.036 Q173.33 462.036 175.135 458.494 Q176.964 454.929 176.964 447.823 Q176.964 440.693 175.135 437.151 Q173.33 433.587 169.695 433.587 M169.695 429.883 Q175.506 429.883 178.561 434.489 Q181.64 439.073 181.64 447.823 Q181.64 456.549 178.561 461.156 Q175.506 465.739 169.695 465.739 Q163.885 465.739 160.807 461.156 Q157.751 456.549 157.751 447.823 Q157.751 439.073 160.807 434.489 Q163.885 429.883 169.695 429.883 Z" fill="#000000" fill-rule="evenodd" fill-opacity="1" /><path clip-path="url(#clip080)" d="M 0 0 M131.941 273.411 L139.58 273.411 L139.58 247.046 L131.27 248.712 L131.27 244.453 L139.534 242.786 L144.209 242.786 L144.209 273.411 L151.848 273.411 L151.848 277.346 L131.941 277.346 L131.941 273.411 Z" fill="#000000" fill-rule="evenodd" fill-opacity="1" /><path clip-path="url(#clip080)" d="M 0 0 M165.32 273.411 L181.64 273.411 L181.64 277.346 L159.695 277.346 L159.695 273.411 Q162.357 270.657 166.941 266.027 Q171.547 261.374 172.728 260.032 Q174.973 257.509 175.853 255.772 Q176.756 254.013 176.756 252.323 Q176.756 249.569 174.811 247.833 Q172.89 246.097 169.788 246.097 Q167.589 246.097 165.135 246.86 Q162.705 247.624 159.927 249.175 L159.927 244.453 Q162.751 243.319 165.205 242.74 Q167.658 242.161 169.695 242.161 Q175.066 242.161 178.26 244.847 Q181.455 247.532 181.455 252.022 Q181.455 254.152 180.644 256.073 Q179.857 257.972 177.751 260.564 Q177.172 261.235 174.07 264.453 Q170.969 267.647 165.32 273.411 Z" fill="#000000" fill-rule="evenodd" fill-opacity="1" /><path clip-path="url(#clip080)" d="M 0 0 M49.6875 837.926 L50.6118 838.49 Q49.1013 841.984 46.6891 846.335 Q49.1013 850.686 50.6118 854.181 L49.6875 854.722 Q46.3735 850.912 43.826 846.335 Q46.396 841.714 49.6875 837.926 Z" fill="#000000" fill-rule="evenodd" fill-opacity="1" /><path clip-path="url(#clip080)" d="M 0 0 M60.7296 835.341 Q60.7618 835.341 61.9212 835.534 L91.1964 842.877 Q92.7423 843.263 94.2881 844.358 Q95.8662 845.421 97.2189 847.128 Q98.6037 848.803 99.4411 851.379 Q100.311 853.924 100.311 856.854 Q100.311 861.524 99.3122 863.585 Q98.3461 865.614 96.2849 865.614 Q94.4814 865.614 93.4508 864.487 Q92.4524 863.36 92.4524 862.072 Q92.4524 860.848 93.1609 860.204 Q93.8695 859.56 94.7712 859.56 Q95.7696 859.56 96.768 860.236 Q97.7986 860.912 98.185 862.265 Q98.8614 860.107 98.8614 856.983 Q98.8614 850.381 91.8727 847.547 Q91.7761 847.482 91.7439 847.482 L83.0161 845.292 L82.9517 845.389 Q83.5958 845.936 84.3365 846.806 Q85.0451 847.643 85.9146 849.447 Q86.7842 851.25 86.7842 853.022 Q86.7842 856.725 83.9501 859.27 Q81.0837 861.782 76.3495 861.782 Q72.9034 861.782 69.4574 860.397 Q65.9792 858.98 63.4349 856.79 Q60.8584 854.568 59.2482 851.734 Q57.6379 848.867 57.6379 846.098 Q57.6379 844.165 58.7973 842.523 Q59.9245 840.88 61.7924 839.978 Q60.2465 839.817 59.6024 838.948 Q58.9583 838.046 58.9583 837.273 Q58.9583 836.404 59.4414 835.888 Q59.8923 835.341 60.7296 835.341 M64.7554 840.751 Q64.5621 840.751 64.0468 840.88 Q63.4993 841.009 62.6298 841.395 Q61.7602 841.75 60.9873 842.297 Q60.2143 842.845 59.6668 843.843 Q59.0871 844.809 59.0871 846.033 Q59.0871 848.03 60.7618 850.027 Q62.4043 852.023 64.9486 853.408 Q67.3962 854.696 72.1305 855.92 Q76.8648 857.112 79.2802 857.112 Q81.6634 857.112 83.4992 856.081 Q85.3349 855.051 85.3349 852.829 Q85.3349 850.252 82.9517 847.482 Q80.4718 844.616 78.3462 844.133 L65.7537 840.945 Q64.9808 840.751 64.7554 840.751 Z" fill="#000000" fill-rule="evenodd" fill-opacity="1" /><path clip-path="url(#clip080)" d="M 0 0 M31.4713 827.305 Q23.671 827.305 17.3812 824.397 Q14.7436 823.157 12.5342 821.421 Q10.3249 819.685 9.35551 818.535 Q8.38611 817.386 8.38611 817.07 Q8.38611 816.619 8.837 816.597 Q9.06244 816.597 9.62604 817.205 Q17.2009 824.645 31.4713 824.622 Q45.7868 824.622 53.0685 817.386 Q53.8576 816.597 54.1056 816.597 Q54.5564 816.597 54.5564 817.07 Q54.5564 817.386 53.6321 818.49 Q52.7078 819.595 50.5887 821.308 Q48.4695 823.022 45.877 824.262 Q39.5872 827.305 31.4713 827.305 Z" fill="#000000" fill-rule="evenodd" fill-opacity="1" /><path clip-path="url(#clip080)" d="M 0 0 M43.0139 809.576 Q42.1797 809.576 41.9317 809.508 Q41.6838 809.418 41.3005 809.057 L31.4262 800.198 Q25.9705 795.351 21.2137 795.351 Q18.1252 795.351 15.9158 796.974 Q13.7065 798.574 13.7065 801.528 Q13.7065 803.557 14.9464 805.27 Q16.1864 806.983 18.3957 807.772 Q18.3506 807.637 18.3506 807.164 Q18.3506 806.014 19.072 805.383 Q19.7934 804.729 20.7628 804.729 Q22.0028 804.729 22.6114 805.541 Q23.1976 806.33 23.1976 807.119 Q23.1976 807.434 23.13 807.863 Q23.0623 808.268 22.4311 808.922 Q21.7773 809.576 20.6276 809.576 Q17.4038 809.576 14.8337 807.141 Q12.2637 804.684 12.2637 800.942 Q12.2637 796.703 14.7886 793.93 Q17.291 791.135 21.2137 791.135 Q22.5889 791.135 23.8514 791.563 Q25.0913 791.969 26.0607 792.533 Q27.0301 793.074 28.5856 794.562 Q30.1412 796.049 31.2458 797.244 Q32.3505 798.439 34.6951 801.122 L39.4519 806.014 L39.4519 797.695 Q39.4519 793.637 39.0912 793.322 Q38.4374 792.871 34.9882 792.307 L34.9882 791.135 L43.0139 792.442 L43.0139 809.576 Z" fill="#000000" fill-rule="evenodd" fill-opacity="1" /><path clip-path="url(#clip080)" d="M 0 0 M54.1056 786.711 Q53.8801 786.711 53.3165 786.125 Q45.7417 778.685 31.4713 778.685 Q17.1558 778.685 9.91911 785.832 Q9.08498 786.711 8.837 786.711 Q8.38611 786.711 8.38611 786.26 Q8.38611 785.945 9.31042 784.84 Q10.2347 783.713 12.3539 782.022 Q14.473 780.309 17.0656 779.046 Q23.3554 776.003 31.4713 776.003 Q39.2715 776.003 45.5613 778.911 Q48.199 780.151 50.4083 781.887 Q52.6176 783.623 53.587 784.772 Q54.5564 785.922 54.5564 786.26 Q54.5564 786.711 54.1056 786.711 Z" fill="#000000" fill-rule="evenodd" fill-opacity="1" /><path clip-path="url(#clip080)" d="M 0 0 M70.2948 761.942 Q59.1515 761.942 50.1661 757.787 Q46.398 756.016 43.2418 753.536 Q40.0857 751.056 38.7008 749.414 Q37.316 747.771 37.316 747.32 Q37.316 746.676 37.9601 746.644 Q38.2821 746.644 39.0873 747.514 Q49.9085 758.142 70.2948 758.109 Q90.7455 758.109 101.148 747.771 Q102.275 746.644 102.629 746.644 Q103.274 746.644 103.274 747.32 Q103.274 747.771 101.953 749.349 Q100.633 750.927 97.6053 753.375 Q94.578 755.823 90.8743 757.594 Q81.8889 761.942 70.2948 761.942 Z" fill="#000000" fill-rule="evenodd" fill-opacity="1" /><path clip-path="url(#clip080)" d="M 0 0 M59.4092 705.568 Q59.699 705.568 60.6974 705.826 Q61.6636 706.051 63.5637 706.792 Q65.4317 707.5 67.5251 708.595 Q69.5862 709.658 72.1949 711.623 Q74.8036 713.587 77.0902 716.035 Q81.4058 720.64 83.7246 725.568 Q86.0434 730.463 86.7842 734.65 L86.7842 735.584 Q86.7842 736.614 85.979 736.614 L83.0161 735.906 L66.8809 731.88 Q61.9534 730.624 61.5348 730.624 Q61.1483 730.624 60.9551 730.785 Q60.7296 730.914 60.5686 731.687 Q60.4076 732.428 60.4076 733.909 Q60.4076 734.521 60.3754 734.811 Q60.3432 735.069 60.1821 735.294 Q59.9889 735.519 59.6024 735.519 Q59.0549 735.519 58.7651 735.294 Q58.443 735.036 58.3786 734.843 Q58.3142 734.65 58.282 734.263 Q58.2498 733.716 58.0887 731.88 Q57.8955 730.044 57.7667 728.466 Q57.6379 726.888 57.6379 726.212 Q57.6379 725.826 57.8311 725.6 Q57.9921 725.375 58.1854 725.375 L58.3464 725.342 L84.5942 731.816 Q83.8212 729.433 82.533 727.082 Q81.2448 724.698 79.1192 722.122 Q76.9614 719.545 74.2883 717.355 Q71.6152 715.165 67.8793 713.233 Q64.1112 711.268 59.7957 710.045 Q58.9261 709.819 58.4108 709.272 Q57.8955 708.692 57.7667 708.273 Q57.6379 707.855 57.6379 707.468 Q57.6379 706.599 58.121 706.083 Q58.5718 705.568 59.4092 705.568 Z" fill="#000000" fill-rule="evenodd" fill-opacity="1" /><path clip-path="url(#clip080)" d="M 0 0 M102.629 704.365 Q102.307 704.365 101.502 703.528 Q90.6811 692.9 70.2948 692.9 Q49.844 692.9 39.506 703.109 Q38.3143 704.365 37.9601 704.365 Q37.316 704.365 37.316 703.721 Q37.316 703.27 38.6364 701.692 Q39.9568 700.082 42.9842 697.666 Q46.0115 695.219 49.7152 693.415 Q58.7007 689.067 70.2948 689.067 Q81.438 689.067 90.4234 693.222 Q94.1915 694.993 97.3477 697.473 Q100.504 699.953 101.889 701.595 Q103.274 703.238 103.274 703.721 Q103.274 704.365 102.629 704.365 Z" fill="#000000" fill-rule="evenodd" fill-opacity="1" /><path clip-path="url(#clip080)" d="M 0 0 M603.714 18.8205 L603.714 41.5461 L614.004 41.5461 Q619.715 41.5461 622.834 38.5889 Q625.954 35.6318 625.954 30.163 Q625.954 24.7348 622.834 21.7777 Q619.715 18.8205 614.004 18.8205 L603.714 18.8205 M595.531 12.096 L614.004 12.096 Q624.171 12.096 629.356 16.714 Q634.582 21.2916 634.582 30.163 Q634.582 39.1155 629.356 43.6931 Q624.171 48.2706 614.004 48.2706 L603.714 48.2706 L603.714 72.576 L595.531 72.576 L595.531 12.096 Z" fill="#000000" fill-rule="evenodd" fill-opacity="1" /><path clip-path="url(#clip080)" d="M 0 0 M682.95 45.1919 L682.95 72.576 L675.496 72.576 L675.496 45.4349 Q675.496 38.994 672.985 35.7938 Q670.473 32.5936 665.45 32.5936 Q659.414 32.5936 655.93 36.4419 Q652.447 40.2903 652.447 46.9338 L652.447 72.576 L644.952 72.576 L644.952 9.54393 L652.447 9.54393 L652.447 34.2544 Q655.12 30.163 658.725 28.1376 Q662.371 26.1121 667.111 26.1121 Q674.929 26.1121 678.94 30.9732 Q682.95 35.7938 682.95 45.1919 Z" fill="#000000" fill-rule="evenodd" fill-opacity="1" /><path clip-path="url(#clip080)" d="M 0 0 M715.398 32.4315 Q709.402 32.4315 705.919 37.1306 Q702.435 41.7891 702.435 49.9314 Q702.435 58.0738 705.878 62.7728 Q709.362 67.4314 715.398 67.4314 Q721.352 67.4314 724.836 62.7323 Q728.32 58.0333 728.32 49.9314 Q728.32 41.8701 724.836 37.1711 Q721.352 32.4315 715.398 32.4315 M715.398 26.1121 Q725.12 26.1121 730.67 32.4315 Q736.219 38.7509 736.219 49.9314 Q736.219 61.0714 730.67 67.4314 Q725.12 73.7508 715.398 73.7508 Q705.635 73.7508 700.085 67.4314 Q694.576 61.0714 694.576 49.9314 Q694.576 38.7509 700.085 32.4315 Q705.635 26.1121 715.398 26.1121 Z" fill="#000000" fill-rule="evenodd" fill-opacity="1" /><path clip-path="url(#clip080)" d="M 0 0 M755.947 14.324 L755.947 27.2059 L771.3 27.2059 L771.3 32.9987 L755.947 32.9987 L755.947 57.6282 Q755.947 63.1779 757.446 64.7578 Q758.985 66.3376 763.644 66.3376 L771.3 66.3376 L771.3 72.576 L763.644 72.576 Q755.015 72.576 751.734 69.3758 Q748.453 66.1351 748.453 57.6282 L748.453 32.9987 L742.984 32.9987 L742.984 27.2059 L748.453 27.2059 L748.453 14.324 L755.947 14.324 Z" fill="#000000" fill-rule="evenodd" fill-opacity="1" /><path clip-path="url(#clip080)" d="M 0 0 M798.684 32.4315 Q792.689 32.4315 789.205 37.1306 Q785.721 41.7891 785.721 49.9314 Q785.721 58.0738 789.165 62.7728 Q792.648 67.4314 798.684 67.4314 Q804.639 67.4314 808.123 62.7323 Q811.607 58.0333 811.607 49.9314 Q811.607 41.8701 808.123 37.1711 Q804.639 32.4315 798.684 32.4315 M798.684 26.1121 Q808.406 26.1121 813.956 32.4315 Q819.506 38.7509 819.506 49.9314 Q819.506 61.0714 813.956 67.4314 Q808.406 73.7508 798.684 73.7508 Q788.922 73.7508 783.372 67.4314 Q777.863 61.0714 777.863 49.9314 Q777.863 38.7509 783.372 32.4315 Q788.922 26.1121 798.684 26.1121 Z" fill="#000000" fill-rule="evenodd" fill-opacity="1" /><path clip-path="url(#clip080)" d="M 0 0 M869.575 45.1919 L869.575 72.576 L862.121 72.576 L862.121 45.4349 Q862.121 38.994 859.61 35.7938 Q857.098 32.5936 852.075 32.5936 Q846.039 32.5936 842.556 36.4419 Q839.072 40.2903 839.072 46.9338 L839.072 72.576 L831.578 72.576 L831.578 27.2059 L839.072 27.2059 L839.072 34.2544 Q841.745 30.163 845.351 28.1376 Q848.996 26.1121 853.736 26.1121 Q861.554 26.1121 865.565 30.9732 Q869.575 35.7938 869.575 45.1919 Z" fill="#000000" fill-rule="evenodd" fill-opacity="1" /><path clip-path="url(#clip080)" d="M 0 0 M956.426 16.7545 L956.426 25.383 Q952.295 21.5346 947.595 19.6307 Q942.937 17.7268 937.671 17.7268 Q927.3 17.7268 921.791 24.0867 Q916.282 30.4061 916.282 42.3968 Q916.282 54.3469 921.791 60.7069 Q927.3 67.0263 937.671 67.0263 Q942.937 67.0263 947.595 65.1223 Q952.295 63.2184 956.426 59.3701 L956.426 67.9175 Q952.132 70.8341 947.312 72.2924 Q942.532 73.7508 937.185 73.7508 Q923.452 73.7508 915.553 65.3654 Q907.654 56.9395 907.654 42.3968 Q907.654 27.8135 915.553 19.4281 Q923.452 11.0023 937.185 11.0023 Q942.613 11.0023 947.393 12.4606 Q952.214 13.8784 956.426 16.7545 Z" fill="#000000" fill-rule="evenodd" fill-opacity="1" /><path clip-path="url(#clip080)" d="M 0 0 M986.322 32.4315 Q980.327 32.4315 976.843 37.1306 Q973.359 41.7891 973.359 49.9314 Q973.359 58.0738 976.802 62.7728 Q980.286 67.4314 986.322 67.4314 Q992.277 67.4314 995.761 62.7323 Q999.245 58.0333 999.245 49.9314 Q999.245 41.8701 995.761 37.1711 Q992.277 32.4315 986.322 32.4315 M986.322 26.1121 Q996.044 26.1121 1001.59 32.4315 Q1007.14 38.7509 1007.14 49.9314 Q1007.14 61.0714 1001.59 67.4314 Q996.044 73.7508 986.322 73.7508 Q976.559 73.7508 971.01 67.4314 Q965.5 61.0714 965.5 49.9314 Q965.5 38.7509 971.01 32.4315 Q976.559 26.1121 986.322 26.1121 Z" fill="#000000" fill-rule="evenodd" fill-opacity="1" /><path clip-path="url(#clip080)" d="M 0 0 M1045.79 34.1734 Q1044.53 33.4443 1043.03 33.1202 Q1041.58 32.7556 1039.79 32.7556 Q1033.47 32.7556 1030.07 36.8875 Q1026.71 40.9789 1026.71 48.6757 L1026.71 72.576 L1019.22 72.576 L1019.22 27.2059 L1026.71 27.2059 L1026.71 34.2544 Q1029.06 30.1225 1032.83 28.1376 Q1036.59 26.1121 1041.98 26.1121 Q1042.75 26.1121 1043.68 26.2337 Q1044.61 26.3147 1045.75 26.5172 L1045.79 34.1734 Z" fill="#000000" fill-rule="evenodd" fill-opacity="1" /><path clip-path="url(#clip080)" d="M 0 0 M1078.44 34.1734 Q1077.18 33.4443 1075.69 33.1202 Q1074.23 32.7556 1072.44 32.7556 Q1066.12 32.7556 1062.72 36.8875 Q1059.36 40.9789 1059.36 48.6757 L1059.36 72.576 L1051.87 72.576 L1051.87 27.2059 L1059.36 27.2059 L1059.36 34.2544 Q1061.71 30.1225 1065.48 28.1376 Q1069.24 26.1121 1074.63 26.1121 Q1075.4 26.1121 1076.33 26.2337 Q1077.26 26.3147 1078.4 26.5172 L1078.44 34.1734 Z" fill="#000000" fill-rule="evenodd" fill-opacity="1" /><path clip-path="url(#clip080)" d="M 0 0 M1123.24 48.0275 L1123.24 51.6733 L1088.97 51.6733 Q1089.46 59.3701 1093.59 63.421 Q1097.76 67.4314 1105.18 67.4314 Q1109.47 67.4314 1113.48 66.3781 Q1117.53 65.3249 1121.5 63.2184 L1121.5 70.267 Q1117.49 71.9684 1113.28 72.8596 Q1109.06 73.7508 1104.73 73.7508 Q1093.87 73.7508 1087.51 67.4314 Q1081.19 61.1119 1081.19 50.3365 Q1081.19 39.1965 1087.19 32.6746 Q1093.23 26.1121 1103.43 26.1121 Q1112.59 26.1121 1117.9 32.0264 Q1123.24 37.9003 1123.24 48.0275 M1115.79 45.84 Q1115.71 39.7232 1112.35 36.0774 Q1109.02 32.4315 1103.51 32.4315 Q1097.28 32.4315 1093.51 35.9558 Q1089.78 39.4801 1089.22 45.8805 L1115.79 45.84 Z" fill="#000000" fill-rule="evenodd" fill-opacity="1" /><path clip-path="url(#clip080)" d="M 0 0 M1135.48 9.54393 L1142.93 9.54393 L1142.93 72.576 L1135.48 72.576 L1135.48 9.54393 Z" fill="#000000" fill-rule="evenodd" fill-opacity="1" /><path clip-path="url(#clip080)" d="M 0 0 M1179.15 49.7694 Q1170.11 49.7694 1166.63 51.8354 Q1163.14 53.9013 1163.14 58.8839 Q1163.14 62.8538 1165.74 65.2034 Q1168.37 67.5124 1172.87 67.5124 Q1179.06 67.5124 1182.79 63.1374 Q1186.56 58.7219 1186.56 51.4303 L1186.56 49.7694 L1179.15 49.7694 M1194.01 46.6907 L1194.01 72.576 L1186.56 72.576 L1186.56 65.6895 Q1184.01 69.8214 1180.2 71.8063 Q1176.39 73.7508 1170.88 73.7508 Q1163.91 73.7508 1159.78 69.8619 Q1155.69 65.9325 1155.69 59.3701 Q1155.69 51.7138 1160.79 47.825 Q1165.94 43.9361 1176.11 43.9361 L1186.56 43.9361 L1186.56 43.2069 Q1186.56 38.0623 1183.16 35.2672 Q1179.79 32.4315 1173.68 32.4315 Q1169.79 32.4315 1166.1 33.3632 Q1162.41 34.295 1159.01 36.1584 L1159.01 29.2718 Q1163.1 27.692 1166.95 26.9223 Q1170.8 26.1121 1174.45 26.1121 Q1184.29 26.1121 1189.15 31.2163 Q1194.01 36.3204 1194.01 46.6907 Z" fill="#000000" fill-rule="evenodd" fill-opacity="1" /><path clip-path="url(#clip080)" d="M 0 0 M1216.74 14.324 L1216.74 27.2059 L1232.09 27.2059 L1232.09 32.9987 L1216.74 32.9987 L1216.74 57.6282 Q1216.74 63.1779 1218.24 64.7578 Q1219.78 66.3376 1224.43 66.3376 L1232.09 66.3376 L1232.09 72.576 L1224.43 72.576 Q1215.81 72.576 1212.52 69.3758 Q1209.24 66.1351 1209.24 57.6282 L1209.24 32.9987 L1203.77 32.9987 L1203.77 27.2059 L1209.24 27.2059 L1209.24 14.324 L1216.74 14.324 Z" fill="#000000" fill-rule="evenodd" fill-opacity="1" /><path clip-path="url(#clip080)" d="M 0 0 M1241.89 27.2059 L1249.35 27.2059 L1249.35 72.576 L1241.89 72.576 L1241.89 27.2059 M1241.89 9.54393 L1249.35 9.54393 L1249.35 18.9825 L1241.89 18.9825 L1241.89 9.54393 Z" fill="#000000" fill-rule="evenodd" fill-opacity="1" /><path clip-path="url(#clip080)" d="M 0 0 M1282.52 32.4315 Q1276.53 32.4315 1273.05 37.1306 Q1269.56 41.7891 1269.56 49.9314 Q1269.56 58.0738 1273 62.7728 Q1276.49 67.4314 1282.52 67.4314 Q1288.48 67.4314 1291.96 62.7323 Q1295.45 58.0333 1295.45 49.9314 Q1295.45 41.8701 1291.96 37.1711 Q1288.48 32.4315 1282.52 32.4315 M1282.52 26.1121 Q1292.25 26.1121 1297.8 32.4315 Q1303.35 38.7509 1303.35 49.9314 Q1303.35 61.0714 1297.8 67.4314 Q1292.25 73.7508 1282.52 73.7508 Q1272.76 73.7508 1267.21 67.4314 Q1261.7 61.0714 1261.7 49.9314 Q1261.7 38.7509 1267.21 32.4315 Q1272.76 26.1121 1282.52 26.1121 Z" fill="#000000" fill-rule="evenodd" fill-opacity="1" /><path clip-path="url(#clip080)" d="M 0 0 M1353.42 45.1919 L1353.42 72.576 L1345.96 72.576 L1345.96 45.4349 Q1345.96 38.994 1343.45 35.7938 Q1340.94 32.5936 1335.92 32.5936 Q1329.88 32.5936 1326.4 36.4419 Q1322.91 40.2903 1322.91 46.9338 L1322.91 72.576 L1315.42 72.576 L1315.42 27.2059 L1322.91 27.2059 L1322.91 34.2544 Q1325.59 30.163 1329.19 28.1376 Q1332.84 26.1121 1337.58 26.1121 Q1345.39 26.1121 1349.4 30.9732 Q1353.42 35.7938 1353.42 45.1919 Z" fill="#000000" fill-rule="evenodd" fill-opacity="1" /><path clip-path="url(#clip080)" d="M 0 0 M1397.21 28.5427 L1397.21 35.5912 Q1394.05 33.9709 1390.64 33.1607 Q1387.24 32.3505 1383.59 32.3505 Q1378.04 32.3505 1375.25 34.0519 Q1372.49 35.7533 1372.49 39.156 Q1372.49 41.7486 1374.48 43.2475 Q1376.46 44.7058 1382.46 46.0426 L1385.01 46.6097 Q1392.95 48.3111 1396.27 51.4303 Q1399.64 54.509 1399.64 60.0587 Q1399.64 66.3781 1394.61 70.0644 Q1389.63 73.7508 1380.88 73.7508 Q1377.23 73.7508 1373.26 73.0216 Q1369.34 72.3329 1364.96 70.9151 L1364.96 63.2184 Q1369.09 65.3654 1373.1 66.4591 Q1377.11 67.5124 1381.04 67.5124 Q1386.31 67.5124 1389.14 65.73 Q1391.98 63.9071 1391.98 60.6258 Q1391.98 57.5877 1389.91 55.9673 Q1387.89 54.3469 1380.96 52.8481 L1378.37 52.2405 Q1371.44 50.7821 1368.36 47.7845 Q1365.28 44.7463 1365.28 39.4801 Q1365.28 33.0797 1369.82 29.5959 Q1374.36 26.1121 1382.7 26.1121 Q1386.84 26.1121 1390.48 26.7198 Q1394.13 27.3274 1397.21 28.5427 Z" fill="#000000" fill-rule="evenodd" fill-opacity="1" /><path clip-path="url(#clip080)" d="M 0 0 M1432.53 27.2059 L1440.43 27.2059 L1454.61 65.2844 L1468.78 27.2059 L1476.68 27.2059 L1459.67 72.576 L1449.54 72.576 L1432.53 27.2059 Z" fill="#000000" fill-rule="evenodd" fill-opacity="1" /><path clip-path="url(#clip080)" d="M 0 0 M1515.9 28.5427 L1515.9 35.5912 Q1512.74 33.9709 1509.33 33.1607 Q1505.93 32.3505 1502.29 32.3505 Q1496.74 32.3505 1493.94 34.0519 Q1491.19 35.7533 1491.19 39.156 Q1491.19 41.7486 1493.17 43.2475 Q1495.16 44.7058 1501.15 46.0426 L1503.7 46.6097 Q1511.64 48.3111 1514.97 51.4303 Q1518.33 54.509 1518.33 60.0587 Q1518.33 66.3781 1513.3 70.0644 Q1508.32 73.7508 1499.57 73.7508 Q1495.93 73.7508 1491.96 73.0216 Q1488.03 72.3329 1483.65 70.9151 L1483.65 63.2184 Q1487.78 65.3654 1491.79 66.4591 Q1495.8 67.5124 1499.73 67.5124 Q1505 67.5124 1507.84 65.73 Q1510.67 63.9071 1510.67 60.6258 Q1510.67 57.5877 1508.61 55.9673 Q1506.58 54.3469 1499.65 52.8481 L1497.06 52.2405 Q1490.13 50.7821 1487.05 47.7845 Q1483.98 44.7463 1483.98 39.4801 Q1483.98 33.0797 1488.51 29.5959 Q1493.05 26.1121 1501.39 26.1121 Q1505.53 26.1121 1509.17 26.7198 Q1512.82 27.3274 1515.9 28.5427 Z" fill="#000000" fill-rule="evenodd" fill-opacity="1" /><path clip-path="url(#clip080)" d="M 0 0 M1556.89 12.096 L1591.65 12.096 L1591.65 18.9825 L1565.07 18.9825 L1565.07 36.8065 L1589.06 36.8065 L1589.06 43.6931 L1565.07 43.6931 L1565.07 72.576 L1556.89 72.576 L1556.89 12.096 Z" fill="#000000" fill-rule="evenodd" fill-opacity="1" /><path clip-path="url(#clip080)" d="M 0 0 M1624.54 34.1734 Q1623.29 33.4443 1621.79 33.1202 Q1620.33 32.7556 1618.55 32.7556 Q1612.23 32.7556 1608.82 36.8875 Q1605.46 40.9789 1605.46 48.6757 L1605.46 72.576 L1597.97 72.576 L1597.97 27.2059 L1605.46 27.2059 L1605.46 34.2544 Q1607.81 30.1225 1611.58 28.1376 Q1615.35 26.1121 1620.73 26.1121 Q1621.5 26.1121 1622.44 26.2337 Q1623.37 26.3147 1624.5 26.5172 L1624.54 34.1734 Z" fill="#000000" fill-rule="evenodd" fill-opacity="1" /><path clip-path="url(#clip080)" d="M 0 0 M1669.35 48.0275 L1669.35 51.6733 L1635.07 51.6733 Q1635.56 59.3701 1639.69 63.421 Q1643.86 67.4314 1651.28 67.4314 Q1655.57 67.4314 1659.58 66.3781 Q1663.63 65.3249 1667.6 63.2184 L1667.6 70.267 Q1663.59 71.9684 1659.38 72.8596 Q1655.17 73.7508 1650.83 73.7508 Q1639.98 73.7508 1633.62 67.4314 Q1627.3 61.1119 1627.3 50.3365 Q1627.3 39.1965 1633.29 32.6746 Q1639.33 26.1121 1649.54 26.1121 Q1658.69 26.1121 1664 32.0264 Q1669.35 37.9003 1669.35 48.0275 M1661.89 45.84 Q1661.81 39.7232 1658.45 36.0774 Q1655.13 32.4315 1649.62 32.4315 Q1643.38 32.4315 1639.61 35.9558 Q1635.88 39.4801 1635.32 45.8805 L1661.89 45.84 Z" fill="#000000" fill-rule="evenodd" fill-opacity="1" /><path clip-path="url(#clip080)" d="M 0 0 M1686.03 49.9314 Q1686.03 58.1548 1689.4 62.8538 Q1692.8 67.5124 1698.71 67.5124 Q1704.63 67.5124 1708.03 62.8538 Q1711.43 58.1548 1711.43 49.9314 Q1711.43 41.7081 1708.03 37.0496 Q1704.63 32.3505 1698.71 32.3505 Q1692.8 32.3505 1689.4 37.0496 Q1686.03 41.7081 1686.03 49.9314 M1711.43 65.7705 Q1709.08 69.8214 1705.48 71.8063 Q1701.91 73.7508 1696.89 73.7508 Q1688.67 73.7508 1683.48 67.1883 Q1678.34 60.6258 1678.34 49.9314 Q1678.34 39.2371 1683.48 32.6746 Q1688.67 26.1121 1696.89 26.1121 Q1701.91 26.1121 1705.48 28.0971 Q1709.08 30.0415 1711.43 34.0924 L1711.43 27.2059 L1718.89 27.2059 L1718.89 89.8329 L1711.43 89.8329 L1711.43 65.7705 Z" fill="#000000" fill-rule="evenodd" fill-opacity="1" /><path clip-path="url(#clip080)" d="M 0 0 M1733.47 54.671 L1733.47 27.2059 L1740.92 27.2059 L1740.92 54.3874 Q1740.92 60.8284 1743.44 64.0691 Q1745.95 67.2693 1750.97 67.2693 Q1757.01 67.2693 1760.49 63.421 Q1764.01 59.5726 1764.01 52.9291 L1764.01 27.2059 L1771.47 27.2059 L1771.47 72.576 L1764.01 72.576 L1764.01 65.6084 Q1761.3 69.7404 1757.7 71.7658 Q1754.13 73.7508 1749.39 73.7508 Q1741.57 73.7508 1737.52 68.8897 Q1733.47 64.0286 1733.47 54.671 M1752.23 26.1121 L1752.23 26.1121 Z" fill="#000000" fill-rule="evenodd" fill-opacity="1" /><path clip-path="url(#clip080)" d="M 0 0 M1825.63 48.0275 L1825.63 51.6733 L1791.36 51.6733 Q1791.84 59.3701 1795.98 63.421 Q1800.15 67.4314 1807.56 67.4314 Q1811.86 67.4314 1815.87 66.3781 Q1819.92 65.3249 1823.89 63.2184 L1823.89 70.267 Q1819.88 71.9684 1815.66 72.8596 Q1811.45 73.7508 1807.12 73.7508 Q1796.26 73.7508 1789.9 67.4314 Q1783.58 61.1119 1783.58 50.3365 Q1783.58 39.1965 1789.58 32.6746 Q1795.61 26.1121 1805.82 26.1121 Q1814.98 26.1121 1820.28 32.0264 Q1825.63 37.9003 1825.63 48.0275 M1818.18 45.84 Q1818.09 39.7232 1814.73 36.0774 Q1811.41 32.4315 1805.9 32.4315 Q1799.66 32.4315 1795.9 35.9558 Q1792.17 39.4801 1791.6 45.8805 L1818.18 45.84 Z" fill="#000000" fill-rule="evenodd" fill-opacity="1" /><path clip-path="url(#clip080)" d="M 0 0 M1875.58 45.1919 L1875.58 72.576 L1868.12 72.576 L1868.12 45.4349 Q1868.12 38.994 1865.61 35.7938 Q1863.1 32.5936 1858.08 32.5936 Q1852.04 32.5936 1848.56 36.4419 Q1845.07 40.2903 1845.07 46.9338 L1845.07 72.576 L1837.58 72.576 L1837.58 27.2059 L1845.07 27.2059 L1845.07 34.2544 Q1847.75 30.163 1851.35 28.1376 Q1855 26.1121 1859.74 26.1121 Q1867.56 26.1121 1871.57 30.9732 Q1875.58 35.7938 1875.58 45.1919 Z" fill="#000000" fill-rule="evenodd" fill-opacity="1" /><path clip-path="url(#clip080)" d="M 0 0 M1923.09 28.9478 L1923.09 35.9153 Q1919.93 34.1734 1916.73 33.3227 Q1913.57 32.4315 1910.33 32.4315 Q1903.08 32.4315 1899.07 37.0496 Q1895.06 41.6271 1895.06 49.9314 Q1895.06 58.2358 1899.07 62.8538 Q1903.08 67.4314 1910.33 67.4314 Q1913.57 67.4314 1916.73 66.5807 Q1919.93 65.6895 1923.09 63.9476 L1923.09 70.8341 Q1919.97 72.2924 1916.61 73.0216 Q1913.29 73.7508 1909.52 73.7508 Q1899.27 73.7508 1893.24 67.3098 Q1887.2 60.8689 1887.2 49.9314 Q1887.2 38.832 1893.28 32.472 Q1899.4 26.1121 1910.01 26.1121 Q1913.45 26.1121 1916.73 26.8413 Q1920.02 27.5299 1923.09 28.9478 Z" fill="#000000" fill-rule="evenodd" fill-opacity="1" /><path clip-path="url(#clip080)" d="M 0 0 M1954.93 76.7889 Q1951.77 84.8907 1948.78 87.3618 Q1945.78 89.8329 1940.76 89.8329 L1934.8 89.8329 L1934.8 83.5945 L1939.18 83.5945 Q1942.25 83.5945 1943.96 82.1361 Q1945.66 80.6778 1947.72 75.2496 L1949.06 71.8468 L1930.71 27.2059 L1938.61 27.2059 L1952.79 62.6918 L1966.97 27.2059 L1974.86 27.2059 L1954.93 76.7889 Z" fill="#000000" fill-rule="evenodd" fill-opacity="1" /><polyline clip-path="url(#clip083)" style="stroke:#009af9; stroke-width:4; stroke-opacity:1; fill:none" points="
  278.068,1386.4 282.145,1219.47 286.222,1164.27 290.3,1310.85 294.377,1332.23 298.455,1320 302.532,1168.71 306.61,1209.38 310.687,1295.41 314.765,1226.24 
  318.842,1199.55 322.92,1209.16 326.997,1273.83 331.074,1260.38 335.152,1281.69 339.229,1283.34 343.307,1266.6 347.384,1182.78 351.462,1294.3 355.539,1310.22 
  359.617,1161.86 363.694,1192.92 367.771,1161.18 371.849,568.87 375.926,1223.96 380.004,1123.07 384.081,1185.44 388.159,1161.13 392.236,1020.96 396.314,1011.61 
  400.391,850.884 404.469,1313.61 408.546,1037.46 412.623,1258.59 416.701,1333.61 420.778,1181.05 424.856,1279.56 428.933,1289.29 433.011,1214.05 437.088,1230.84 
  441.166,1182.33 445.243,1095.42 449.32,1317.01 453.398,1328.53 457.475,1334.66 461.553,1344.27 465.63,1351.01 469.708,1209.83 473.785,1306.57 477.863,1222.46 
  481.94,1282.14 486.018,1298.41 490.095,1305.11 494.172,1235.32 498.25,1299.22 502.327,1291.04 506.405,1281.27 510.482,1252.19 514.56,1131.91 518.637,1298.14 
  522.715,1210.31 526.792,1098.86 530.87,1029 534.947,1256.92 539.024,1306.49 543.102,1324.62 547.179,1323.53 551.257,1312.44 555.334,1288.91 559.412,1233.35 
  563.489,980.403 567.567,160.256 571.644,1285.43 575.721,1119.08 579.799,1260.53 583.876,1297.52 587.954,1314.61 592.031,1311.95 596.109,1276.6 600.186,946.606 
  604.264,1296.35 608.341,1333.95 612.419,1344.57 616.496,1353.73 620.573,1358.36 624.651,1363.91 628.728,1369.06 632.806,1374.89 636.883,1378.21 640.961,1362.21 
  645.038,1158.93 649.116,790.5 653.193,1307.79 657.27,1332.7 661.348,1339.82 665.425,1342.72 669.503,1345.13 673.58,1345.17 677.658,1338.85 681.735,1321.29 
  685.813,1239.1 689.89,1229.14 693.968,1168.95 698.045,1315.07 702.122,1338.3 706.2,1344.07 710.277,1344.53 714.355,1332.58 718.432,1246.92 722.51,1246.96 
  726.587,1320.02 730.665,1334.44 734.742,1337.77 738.819,1338.31 742.897,1337.92 746.974,1333.14 751.052,1328.85 755.129,1321.92 759.207,1306.44 763.284,1267.65 
  767.362,1004.18 771.439,1183.19 775.517,1333.84 779.594,1161.68 783.671,1348.44 787.749,1378.37 791.826,1379.37 795.904,1368.68 799.981,1356.5 804.059,1341.41 
  808.136,1317.23 812.214,1246.02 816.291,1220.23 820.368,1215.26 824.446,1322.63 828.523,1352.5 832.601,1368.56 836.678,1378.72 840.756,1375.51 844.833,1349.79 
  848.911,1164.85 852.988,1296.46 857.066,1337.33 861.143,1346.26 865.22,1344.94 869.298,1337.94 873.375,1326.35 877.453,1310.02 881.53,1276.7 885.608,1172.39 
  889.685,1354.55 893.763,1126.31 897.84,916.003 901.917,861.902 905.995,1162.32 910.072,1239.06 914.15,1274.07 918.227,1295.44 922.305,1313.52 926.382,1324.08 
  930.46,1344.92 934.537,1242.75 938.615,1080.38 942.692,1268.09 946.769,1195.25 950.847,1300.07 954.924,1317.78 959.002,1324.28 963.079,1332.48 967.157,1223.05 
  971.234,1300.53 975.312,1340.06 979.389,1338.83 983.467,1339.83 987.544,1339.82 991.621,1341.18 995.699,1340.86 999.776,1341.31 1003.85,1341.5 1007.93,1339.42 
  1012.01,1304.14 1016.09,782.505 1020.16,1370.48 1024.24,1241.97 1028.32,1262.58 1032.4,1268.19 1036.47,1260.55 1040.55,1250.52 1044.63,1226.07 1048.71,1182.58 
  1052.78,1041.36 1056.86,815.582 1060.94,1073.41 1065.02,1186.16 1069.09,1257.32 1073.17,1106.79 1077.25,810.631 1081.33,1225.2 1085.4,1308.95 1089.48,1326.91 
  1093.56,1192.47 1097.64,1272.65 1101.71,1244.77 1105.79,1294.2 1109.87,1312.59 1113.94,1320.68 1118.02,1327.77 1122.1,1330.38 1126.18,1332.72 1130.25,1328.25 
  1134.33,1312.2 1138.41,1208.27 1142.49,1366.67 1146.56,1359.9 1150.64,1354.87 1154.72,1348.97 1158.8,1341.46 1162.87,1331.44 1166.95,1299.69 1171.03,1213.64 
  1175.11,1203.26 1179.18,1261.71 1183.26,1357.93 1187.34,1195.09 1191.42,1298.19 1195.49,852.609 1199.57,1081.97 1203.65,1273.28 1207.73,1296.05 1211.8,1250.22 
  1215.88,1294.14 1219.96,913.183 1224.04,1361.46 1228.11,1368.3 1232.19,1364.25 1236.27,1343.72 1240.35,1199.04 1244.42,1266.22 1248.5,1326.74 1252.58,1342.1 
  1256.66,1347.91 1260.73,1350.1 1264.81,1350.89 1268.89,1350.92 1272.97,1350 1277.04,1346.82 1281.12,1343.26 1285.2,1330.15 1289.28,1283.54 1293.35,1321.04 
  1297.43,1325.13 1301.51,1272.15 1305.59,1214.99 1309.66,1377.18 1313.74,1331.39 1317.82,1322.12 1321.89,1112.83 1325.97,1178.48 1330.05,1307.48 1334.13,1334.63 
  1338.2,1277.96 1342.28,1163.49 1346.36,1304.88 1350.44,1331.75 1354.51,1339.88 1358.59,1361.3 1362.67,476.254 1366.75,1345.76 1370.82,1359.6 1374.9,1360.99 
  1378.98,1363.51 1383.06,1365.45 1387.13,1367.01 1391.21,1368.23 1395.29,1369.56 1399.37,1373 1403.44,1372.82 1407.52,1361.95 1411.6,1167.21 1415.68,1332.12 
  1419.75,1350.6 1423.83,1218.23 1427.91,1303.99 1431.99,1327.79 1436.06,1332.22 1440.14,1321.67 1444.22,1111.97 1448.3,1143.18 1452.37,1336.15 1456.45,1350.82 
  1460.53,1349.72 1464.61,1347.28 1468.68,1343.13 1472.76,1333.46 1476.84,1317.49 1480.92,1261.61 1484.99,1253.95 1489.07,1309.36 1493.15,1205.45 1497.23,1333.54 
  1501.3,1355.02 1505.38,1361.81 1509.46,1362.93 1513.54,1363.21 1517.61,1361.12 1521.69,1358.54 1525.77,1355.38 1529.84,1350.81 1533.92,1346.18 1538,1335.69 
  1542.08,1228.16 1546.15,1256.35 1550.23,1331.85 1554.31,1302.83 1558.39,1256.87 1562.46,1104.16 1566.54,976.016 1570.62,990.981 1574.7,1227.11 1578.77,1285.45 
  1582.85,1313.02 1586.93,1329.02 1591.01,1340.24 1595.08,1346.47 1599.16,1353.44 1603.24,1358.69 1607.32,1358.44 1611.39,1264.81 1615.47,1303.19 1619.55,1334.29 
  1623.63,1341.21 1627.7,1344.19 1631.78,1344.04 1635.86,1341.49 1639.94,1338.63 1644.01,1331.59 1648.09,1320.31 1652.17,1299.51 1656.25,1256.62 1660.32,1091.5 
  1664.4,1044.85 1668.48,1129.92 1672.56,1282.03 1676.63,1321.33 1680.71,1339.88 1684.79,1103.59 1688.87,1207.83 1692.94,1315.3 1697.02,1336.74 1701.1,1344.46 
  1705.18,1350.2 1709.25,1354.06 1713.33,1356.68 1717.41,1358.36 1721.49,1359.34 1725.56,1358.09 1729.64,1355.04 1733.72,1167.53 1737.79,1375.15 1741.87,1373.71 
  1745.95,1372.11 1750.03,1371.68 1754.1,1371.42 1758.18,1371.3 1762.26,1370.4 1766.34,1368.6 1770.41,1367.52 1774.49,1360.48 1778.57,1341.3 1782.65,1193.15 
  1786.72,1280.06 1790.8,1332.87 1794.88,1344.37 1798.96,1343.18 1803.03,1327.01 1807.11,1178.71 1811.19,1362.07 1815.27,1372.28 1819.34,1372.76 1823.42,1370.65 
  1827.5,1370.34 1831.58,1368.01 1835.65,1367.51 1839.73,1366.24 1843.81,1364.21 1847.89,1360.55 1851.96,1355.21 1856.04,1343.62 1860.12,1303.66 1864.2,1193.46 
  1868.27,1355.34 1872.35,1373.71 1876.43,1378.6 1880.51,1377.34 1884.58,1376.09 1888.66,1373.85 1892.74,1373.77 1896.82,1372.01 1900.89,1371.88 1904.97,1369.3 
  1909.05,1362.67 1913.13,1179.77 1917.2,1333.49 1921.28,1338.86 1925.36,1335.15 1929.44,1320.1 1933.51,1258.42 1937.59,1248.1 1941.67,1368.35 1945.74,1371.25 
  1949.82,1361.7 1953.9,1351.41 1957.98,1341.3 1962.05,1329.79 1966.13,1313.74 1970.21,1287.26 1974.29,1239.3 1978.36,1084.64 1982.44,896.365 1986.52,908.047 
  1990.6,1199.71 1994.67,1236.67 1998.75,1317.37 2002.83,1340.3 2006.91,1358.43 2010.98,1355.09 2015.06,1237.24 2019.14,1234.9 2023.22,1314.91 2027.29,1336.42 
  2031.37,1338.35 2035.45,1356.69 2039.53,1367.04 2043.6,1349.05 2047.68,1320.89 2051.76,1245.49 2055.84,694.894 2059.91,1056.85 2063.99,1237.67 2068.07,1289.95 
  2072.15,1313.74 2076.22,1328.81 2080.3,1341.06 2084.38,1337.5 2088.46,1182.65 2092.53,1326.75 2096.61,1321.14 2100.69,743.287 2104.77,1316.29 2108.84,1183.36 
  2112.92,1296.47 2117,1275.78 2121.08,1220.58 2125.15,1281.4 2129.23,1309.5 2133.31,1316.66 2137.38,559.099 2141.46,1130.35 2145.54,1173.38 2149.62,1306.58 
  2153.69,1260.02 2157.77,1227.75 2161.85,1150.37 2165.93,1227.14 2170,1285.67 2174.08,1297.91 2178.16,1278.4 2182.24,1258.87 2186.31,1270.59 2190.39,1292.28 
  2194.47,1281.58 2198.55,1272.61 2202.62,1222.85 2206.7,1238.86 2210.78,1226.79 2214.86,1234.36 2218.93,1157.87 2223.01,943.952 2227.09,1348.29 2231.17,726.702 
  2235.24,880.822 2239.32,1018.66 2243.4,575.912 2247.48,1290.03 2251.55,1315.19 2255.63,1042.73 2259.71,844.137 2263.79,1233.41 2267.86,1305.32 2271.94,1337.23 
  2276.02,1328.63 2280.1,1111.21 2284.17,678.063 2288.25,1215.87 2292.33,1263.05 
  "/>
<polyline clip-path="url(#clip083)" style="stroke:#e26f46; stroke-width:4; stroke-opacity:1; fill:none" stroke-dasharray="16, 10" points="
  399.046,2722.89 399.046,-1176.24 
  "/>
<path clip-path="url(#clip080)" d="
M1691.37 287.756 L2281.59 287.756 L2281.59 166.796 L1691.37 166.796  Z
  " fill="#ffffff" fill-rule="evenodd" fill-opacity="1"/>
<polyline clip-path="url(#clip080)" style="stroke:#000000; stroke-width:4; stroke-opacity:1; fill:none" points="
  1691.37,287.756 2281.59,287.756 2281.59,166.796 1691.37,166.796 1691.37,287.756 
  "/>
<polyline clip-path="url(#clip080)" style="stroke:#e26f46; stroke-width:4; stroke-opacity:1; fill:none" stroke-dasharray="16, 10" points="
  1715.09,227.276 1857.43,227.276 
  "/>
<path clip-path="url(#clip080)" d="M 0 0 M1897.66 208.537 L1897.66 212.079 L1893.58 212.079 Q1891.29 212.079 1890.39 213.005 Q1889.51 213.931 1889.51 216.338 L1889.51 218.63 L1896.52 218.63 L1896.52 221.94 L1889.51 221.94 L1889.51 244.556 L1885.23 244.556 L1885.23 221.94 L1881.15 221.94 L1881.15 218.63 L1885.23 218.63 L1885.23 216.824 Q1885.23 212.496 1887.24 210.528 Q1889.26 208.537 1893.63 208.537 L1897.66 208.537 Z" fill="#000000" fill-rule="evenodd" fill-opacity="1" /><path clip-path="url(#clip080)" d="M 0 0 M1916.25 222.611 Q1915.53 222.195 1914.67 222.01 Q1913.84 221.801 1912.82 221.801 Q1909.21 221.801 1907.27 224.162 Q1905.34 226.5 1905.34 230.898 L1905.34 244.556 L1901.06 244.556 L1901.06 218.63 L1905.34 218.63 L1905.34 222.658 Q1906.69 220.297 1908.84 219.162 Q1910.99 218.005 1914.07 218.005 Q1914.51 218.005 1915.04 218.074 Q1915.58 218.121 1916.22 218.236 L1916.25 222.611 Z" fill="#000000" fill-rule="evenodd" fill-opacity="1" /><path clip-path="url(#clip080)" d="M 0 0 M1941.85 230.528 L1941.85 232.611 L1922.27 232.611 Q1922.54 237.009 1924.9 239.324 Q1927.29 241.616 1931.52 241.616 Q1933.98 241.616 1936.27 241.014 Q1938.58 240.412 1940.85 239.209 L1940.85 243.236 Q1938.56 244.208 1936.15 244.718 Q1933.75 245.227 1931.27 245.227 Q1925.07 245.227 1921.43 241.616 Q1917.82 238.005 1917.82 231.847 Q1917.82 225.482 1921.25 221.755 Q1924.7 218.005 1930.53 218.005 Q1935.76 218.005 1938.79 221.385 Q1941.85 224.741 1941.85 230.528 M1937.59 229.278 Q1937.54 225.783 1935.62 223.699 Q1933.72 221.616 1930.58 221.616 Q1927.01 221.616 1924.86 223.63 Q1922.73 225.644 1922.4 229.301 L1937.59 229.278 Z" fill="#000000" fill-rule="evenodd" fill-opacity="1" /><path clip-path="url(#clip080)" d="M 0 0 M1951.39 231.616 Q1951.39 236.315 1953.31 239 Q1955.25 241.662 1958.63 241.662 Q1962.01 241.662 1963.95 239 Q1965.9 236.315 1965.9 231.616 Q1965.9 226.917 1963.95 224.255 Q1962.01 221.57 1958.63 221.57 Q1955.25 221.57 1953.31 224.255 Q1951.39 226.917 1951.39 231.616 M1965.9 240.667 Q1964.56 242.982 1962.5 244.116 Q1960.46 245.227 1957.59 245.227 Q1952.89 245.227 1949.93 241.477 Q1946.99 237.727 1946.99 231.616 Q1946.99 225.505 1949.93 221.755 Q1952.89 218.005 1957.59 218.005 Q1960.46 218.005 1962.5 219.139 Q1964.56 220.25 1965.9 222.565 L1965.9 218.63 L1970.16 218.63 L1970.16 254.417 L1965.9 254.417 L1965.9 240.667 Z" fill="#000000" fill-rule="evenodd" fill-opacity="1" /><path clip-path="url(#clip080)" d="M 0 0 M1978.49 234.324 L1978.49 218.63 L1982.75 218.63 L1982.75 234.162 Q1982.75 237.843 1984.19 239.695 Q1985.62 241.523 1988.49 241.523 Q1991.94 241.523 1993.93 239.324 Q1995.95 237.125 1995.95 233.329 L1995.95 218.63 L2000.2 218.63 L2000.2 244.556 L1995.95 244.556 L1995.95 240.574 Q1994.39 242.935 1992.33 244.093 Q1990.3 245.227 1987.59 245.227 Q1983.12 245.227 1980.81 242.449 Q1978.49 239.671 1978.49 234.324 M1989.21 218.005 L1989.21 218.005 Z" fill="#000000" fill-rule="evenodd" fill-opacity="1" /><path clip-path="url(#clip080)" d="M 0 0 M2031.15 230.528 L2031.15 232.611 L2011.57 232.611 Q2011.85 237.009 2014.21 239.324 Q2016.59 241.616 2020.83 241.616 Q2023.28 241.616 2025.57 241.014 Q2027.89 240.412 2030.16 239.209 L2030.16 243.236 Q2027.87 244.208 2025.46 244.718 Q2023.05 245.227 2020.57 245.227 Q2014.37 245.227 2010.74 241.616 Q2007.13 238.005 2007.13 231.847 Q2007.13 225.482 2010.55 221.755 Q2014 218.005 2019.83 218.005 Q2025.07 218.005 2028.1 221.385 Q2031.15 224.741 2031.15 230.528 M2026.89 229.278 Q2026.85 225.783 2024.93 223.699 Q2023.03 221.616 2019.88 221.616 Q2016.32 221.616 2014.16 223.63 Q2012.03 225.644 2011.71 229.301 L2026.89 229.278 Z" fill="#000000" fill-rule="evenodd" fill-opacity="1" /><path clip-path="url(#clip080)" d="M 0 0 M2059.69 228.908 L2059.69 244.556 L2055.44 244.556 L2055.44 229.047 Q2055.44 225.366 2054 223.537 Q2052.57 221.709 2049.69 221.709 Q2046.25 221.709 2044.26 223.908 Q2042.26 226.107 2042.26 229.903 L2042.26 244.556 L2037.98 244.556 L2037.98 218.63 L2042.26 218.63 L2042.26 222.658 Q2043.79 220.32 2045.85 219.162 Q2047.94 218.005 2050.64 218.005 Q2055.11 218.005 2057.4 220.783 Q2059.69 223.537 2059.69 228.908 Z" fill="#000000" fill-rule="evenodd" fill-opacity="1" /><path clip-path="url(#clip080)" d="M 0 0 M2086.85 219.625 L2086.85 223.607 Q2085.04 222.611 2083.21 222.125 Q2081.41 221.616 2079.56 221.616 Q2075.41 221.616 2073.12 224.255 Q2070.83 226.871 2070.83 231.616 Q2070.83 236.361 2073.12 239 Q2075.41 241.616 2079.56 241.616 Q2081.41 241.616 2083.21 241.13 Q2085.04 240.621 2086.85 239.625 L2086.85 243.56 Q2085.07 244.394 2083.14 244.81 Q2081.25 245.227 2079.09 245.227 Q2073.24 245.227 2069.79 241.546 Q2066.34 237.866 2066.34 231.616 Q2066.34 225.273 2069.81 221.639 Q2073.31 218.005 2079.37 218.005 Q2081.34 218.005 2083.21 218.422 Q2085.09 218.815 2086.85 219.625 Z" fill="#000000" fill-rule="evenodd" fill-opacity="1" /><path clip-path="url(#clip080)" d="M 0 0 M2105.04 246.963 Q2103.24 251.593 2101.52 253.005 Q2099.81 254.417 2096.94 254.417 L2093.54 254.417 L2093.54 250.852 L2096.04 250.852 Q2097.8 250.852 2098.77 250.019 Q2099.74 249.185 2100.92 246.083 L2101.69 244.139 L2091.2 218.63 L2095.71 218.63 L2103.81 238.908 L2111.92 218.63 L2116.43 218.63 L2105.04 246.963 Z" fill="#000000" fill-rule="evenodd" fill-opacity="1" /><path clip-path="url(#clip080)" d="M 0 0 M2153.91 219.394 L2153.91 223.422 Q2152.1 222.496 2150.16 222.033 Q2148.21 221.57 2146.13 221.57 Q2142.96 221.57 2141.36 222.542 Q2139.79 223.514 2139.79 225.459 Q2139.79 226.94 2140.92 227.797 Q2142.06 228.63 2145.48 229.394 L2146.94 229.718 Q2151.48 230.69 2153.37 232.472 Q2155.3 234.232 2155.3 237.403 Q2155.3 241.014 2152.43 243.121 Q2149.58 245.227 2144.58 245.227 Q2142.5 245.227 2140.23 244.81 Q2137.98 244.417 2135.48 243.607 L2135.48 239.209 Q2137.84 240.435 2140.13 241.06 Q2142.43 241.662 2144.67 241.662 Q2147.68 241.662 2149.3 240.644 Q2150.92 239.602 2150.92 237.727 Q2150.92 235.991 2149.74 235.065 Q2148.58 234.139 2144.62 233.283 L2143.14 232.935 Q2139.19 232.102 2137.43 230.389 Q2135.67 228.653 2135.67 225.644 Q2135.67 221.986 2138.26 219.996 Q2140.85 218.005 2145.62 218.005 Q2147.98 218.005 2150.06 218.352 Q2152.15 218.699 2153.91 219.394 Z" fill="#000000" fill-rule="evenodd" fill-opacity="1" /><path clip-path="url(#clip080)" d="M 0 0 M2183.63 228.908 L2183.63 244.556 L2179.37 244.556 L2179.37 229.047 Q2179.37 225.366 2177.93 223.537 Q2176.5 221.709 2173.63 221.709 Q2170.18 221.709 2168.19 223.908 Q2166.2 226.107 2166.2 229.903 L2166.2 244.556 L2161.92 244.556 L2161.92 208.537 L2166.2 208.537 L2166.2 222.658 Q2167.73 220.32 2169.79 219.162 Q2171.87 218.005 2174.58 218.005 Q2179.05 218.005 2181.34 220.783 Q2183.63 223.537 2183.63 228.908 Z" fill="#000000" fill-rule="evenodd" fill-opacity="1" /><path clip-path="url(#clip080)" d="M 0 0 M2192.12 218.63 L2196.38 218.63 L2196.38 244.556 L2192.12 244.556 L2192.12 218.63 M2192.12 208.537 L2196.38 208.537 L2196.38 213.931 L2192.12 213.931 L2192.12 208.537 Z" fill="#000000" fill-rule="evenodd" fill-opacity="1" /><path clip-path="url(#clip080)" d="M 0 0 M2218.42 208.537 L2218.42 212.079 L2214.35 212.079 Q2212.06 212.079 2211.15 213.005 Q2210.27 213.931 2210.27 216.338 L2210.27 218.63 L2217.29 218.63 L2217.29 221.94 L2210.27 221.94 L2210.27 244.556 L2205.99 244.556 L2205.99 221.94 L2201.92 221.94 L2201.92 218.63 L2205.99 218.63 L2205.99 216.824 Q2205.99 212.496 2208 210.528 Q2210.02 208.537 2214.39 208.537 L2218.42 208.537 Z" fill="#000000" fill-rule="evenodd" fill-opacity="1" /><path clip-path="url(#clip080)" d="M 0 0 M2225.37 211.269 L2225.37 218.63 L2234.14 218.63 L2234.14 221.94 L2225.37 221.94 L2225.37 236.014 Q2225.37 239.185 2226.22 240.088 Q2227.1 240.991 2229.76 240.991 L2234.14 240.991 L2234.14 244.556 L2229.76 244.556 Q2224.83 244.556 2222.96 242.727 Q2221.08 240.875 2221.08 236.014 L2221.08 221.94 L2217.96 221.94 L2217.96 218.63 L2221.08 218.63 L2221.08 211.269 L2225.37 211.269 Z" fill="#000000" fill-rule="evenodd" fill-opacity="1" /></svg>
