<?xml version="1.0" encoding="utf-8"?>
<svg xmlns="http://www.w3.org/2000/svg" xmlns:xlink="http://www.w3.org/1999/xlink" width="600" height="400" viewBox="0 0 2400 1600">
<defs>
  <clipPath id="clip020">
    <rect x="0" y="0" width="2400" height="1600"/>
  </clipPath>
</defs>
<path clip-path="url(#clip020)" d="
M0 1600 L2400 1600 L2400 0 L0 0  Z
  " fill="#ffffff" fill-rule="evenodd" fill-opacity="1"/>
<defs>
  <clipPath id="clip021">
    <rect x="480" y="0" width="1681" height="1600"/>
  </clipPath>
</defs>
<defs>
  <clipPath id="clip022">
    <rect x="327" y="123" width="2026" height="1301"/>
  </clipPath>
</defs>
<path clip-path="url(#clip020)" d="
M224.025 1427.15 L2352.76 1427.15 L2352.76 123.472 L224.025 123.472  Z
  " fill="#ffffff" fill-rule="evenodd" fill-opacity="1"/>
<defs>
  <clipPath id="clip023">
    <rect x="224" y="123" width="2130" height="1305"/>
  </clipPath>
</defs>
<polyline clip-path="url(#clip023)" style="stroke:#000000; stroke-width:2; stroke-opacity:0.1; fill:none" points="
  284.272,1427.15 284.272,123.472 
  "/>
<polyline clip-path="url(#clip023)" style="stroke:#000000; stroke-width:2; stroke-opacity:0.1; fill:none" points="
  786.834,1427.15 786.834,123.472 
  "/>
<polyline clip-path="url(#clip023)" style="stroke:#000000; stroke-width:2; stroke-opacity:0.1; fill:none" points="
  1289.4,1427.15 1289.4,123.472 
  "/>
<polyline clip-path="url(#clip023)" style="stroke:#000000; stroke-width:2; stroke-opacity:0.1; fill:none" points="
  1791.96,1427.15 1791.96,123.472 
  "/>
<polyline clip-path="url(#clip023)" style="stroke:#000000; stroke-width:2; stroke-opacity:0.1; fill:none" points="
  2294.52,1427.15 2294.52,123.472 
  "/>
<polyline clip-path="url(#clip020)" style="stroke:#000000; stroke-width:4; stroke-opacity:1; fill:none" points="
  224.025,1427.15 2352.76,1427.15 
  "/>
<polyline clip-path="url(#clip020)" style="stroke:#000000; stroke-width:4; stroke-opacity:1; fill:none" points="
  284.272,1427.15 284.272,1411.5 
  "/>
<polyline clip-path="url(#clip020)" style="stroke:#000000; stroke-width:4; stroke-opacity:1; fill:none" points="
  786.834,1427.15 786.834,1411.5 
  "/>
<polyline clip-path="url(#clip020)" style="stroke:#000000; stroke-width:4; stroke-opacity:1; fill:none" points="
  1289.4,1427.15 1289.4,1411.5 
  "/>
<polyline clip-path="url(#clip020)" style="stroke:#000000; stroke-width:4; stroke-opacity:1; fill:none" points="
  1791.96,1427.15 1791.96,1411.5 
  "/>
<polyline clip-path="url(#clip020)" style="stroke:#000000; stroke-width:4; stroke-opacity:1; fill:none" points="
  2294.52,1427.15 2294.52,1411.5 
  "/>
<path clip-path="url(#clip020)" d="M 0 0 M261.656 1456.34 Q258.045 1456.34 256.217 1459.9 Q254.411 1463.44 254.411 1470.57 Q254.411 1477.68 256.217 1481.25 Q258.045 1484.79 261.656 1484.79 Q265.291 1484.79 267.096 1481.25 Q268.925 1477.68 268.925 1470.57 Q268.925 1463.44 267.096 1459.9 Q265.291 1456.34 261.656 1456.34 M261.656 1452.63 Q267.466 1452.63 270.522 1457.24 Q273.601 1461.82 273.601 1470.57 Q273.601 1479.3 270.522 1483.91 Q267.466 1488.49 261.656 1488.49 Q255.846 1488.49 252.767 1483.91 Q249.712 1479.3 249.712 1470.57 Q249.712 1461.82 252.767 1457.24 Q255.846 1452.63 261.656 1452.63 Z" fill="#000000" fill-rule="evenodd" fill-opacity="1" /><path clip-path="url(#clip020)" d="M 0 0 M281.818 1481.94 L286.702 1481.94 L286.702 1487.82 L281.818 1487.82 L281.818 1481.94 Z" fill="#000000" fill-rule="evenodd" fill-opacity="1" /><path clip-path="url(#clip020)" d="M 0 0 M306.888 1456.34 Q303.276 1456.34 301.448 1459.9 Q299.642 1463.44 299.642 1470.57 Q299.642 1477.68 301.448 1481.25 Q303.276 1484.79 306.888 1484.79 Q310.522 1484.79 312.327 1481.25 Q314.156 1477.68 314.156 1470.57 Q314.156 1463.44 312.327 1459.9 Q310.522 1456.34 306.888 1456.34 M306.888 1452.63 Q312.698 1452.63 315.753 1457.24 Q318.832 1461.82 318.832 1470.57 Q318.832 1479.3 315.753 1483.91 Q312.698 1488.49 306.888 1488.49 Q301.077 1488.49 297.999 1483.91 Q294.943 1479.3 294.943 1470.57 Q294.943 1461.82 297.999 1457.24 Q301.077 1452.63 306.888 1452.63 Z" fill="#000000" fill-rule="evenodd" fill-opacity="1" /><path clip-path="url(#clip020)" d="M 0 0 M758.57 1483.88 L774.889 1483.88 L774.889 1487.82 L752.945 1487.82 L752.945 1483.88 Q755.607 1481.13 760.19 1476.5 Q764.797 1471.85 765.977 1470.51 Q768.223 1467.98 769.102 1466.25 Q770.005 1464.49 770.005 1462.8 Q770.005 1460.04 768.061 1458.31 Q766.139 1456.57 763.038 1456.57 Q760.838 1456.57 758.385 1457.33 Q755.954 1458.1 753.176 1459.65 L753.176 1454.93 Q756.001 1453.79 758.454 1453.21 Q760.908 1452.63 762.945 1452.63 Q768.315 1452.63 771.51 1455.32 Q774.704 1458.01 774.704 1462.5 Q774.704 1464.63 773.894 1466.55 Q773.107 1468.44 771 1471.04 Q770.422 1471.71 767.32 1474.93 Q764.218 1478.12 758.57 1483.88 Z" fill="#000000" fill-rule="evenodd" fill-opacity="1" /><path clip-path="url(#clip020)" d="M 0 0 M784.704 1481.94 L789.588 1481.94 L789.588 1487.82 L784.704 1487.82 L784.704 1481.94 Z" fill="#000000" fill-rule="evenodd" fill-opacity="1" /><path clip-path="url(#clip020)" d="M 0 0 M799.82 1453.26 L818.176 1453.26 L818.176 1457.19 L804.102 1457.19 L804.102 1465.67 Q805.121 1465.32 806.139 1465.16 Q807.158 1464.97 808.176 1464.97 Q813.963 1464.97 817.343 1468.14 Q820.722 1471.32 820.722 1476.73 Q820.722 1482.31 817.25 1485.41 Q813.778 1488.49 807.459 1488.49 Q805.283 1488.49 803.014 1488.12 Q800.769 1487.75 798.361 1487.01 L798.361 1482.31 Q800.445 1483.44 802.667 1484 Q804.889 1484.56 807.366 1484.56 Q811.371 1484.56 813.709 1482.45 Q816.047 1480.34 816.047 1476.73 Q816.047 1473.12 813.709 1471.01 Q811.371 1468.91 807.366 1468.91 Q805.491 1468.91 803.616 1469.32 Q801.764 1469.74 799.82 1470.62 L799.82 1453.26 Z" fill="#000000" fill-rule="evenodd" fill-opacity="1" /><path clip-path="url(#clip020)" d="M 0 0 M1256.56 1453.26 L1274.92 1453.26 L1274.92 1457.19 L1260.84 1457.19 L1260.84 1465.67 Q1261.86 1465.32 1262.88 1465.16 Q1263.9 1464.97 1264.92 1464.97 Q1270.7 1464.97 1274.08 1468.14 Q1277.46 1471.32 1277.46 1476.73 Q1277.46 1482.31 1273.99 1485.41 Q1270.52 1488.49 1264.2 1488.49 Q1262.02 1488.49 1259.75 1488.12 Q1257.51 1487.75 1255.1 1487.01 L1255.1 1482.31 Q1257.19 1483.44 1259.41 1484 Q1261.63 1484.56 1264.11 1484.56 Q1268.11 1484.56 1270.45 1482.45 Q1272.79 1480.34 1272.79 1476.73 Q1272.79 1473.12 1270.45 1471.01 Q1268.11 1468.91 1264.11 1468.91 Q1262.23 1468.91 1260.36 1469.32 Q1258.5 1469.74 1256.56 1470.62 L1256.56 1453.26 Z" fill="#000000" fill-rule="evenodd" fill-opacity="1" /><path clip-path="url(#clip020)" d="M 0 0 M1286.68 1481.94 L1291.56 1481.94 L1291.56 1487.82 L1286.68 1487.82 L1286.68 1481.94 Z" fill="#000000" fill-rule="evenodd" fill-opacity="1" /><path clip-path="url(#clip020)" d="M 0 0 M1311.74 1456.34 Q1308.13 1456.34 1306.31 1459.9 Q1304.5 1463.44 1304.5 1470.57 Q1304.5 1477.68 1306.31 1481.25 Q1308.13 1484.79 1311.74 1484.79 Q1315.38 1484.79 1317.18 1481.25 Q1319.01 1477.68 1319.01 1470.57 Q1319.01 1463.44 1317.18 1459.9 Q1315.38 1456.34 1311.74 1456.34 M1311.74 1452.63 Q1317.56 1452.63 1320.61 1457.24 Q1323.69 1461.82 1323.69 1470.57 Q1323.69 1479.3 1320.61 1483.91 Q1317.56 1488.49 1311.74 1488.49 Q1305.93 1488.49 1302.86 1483.91 Q1299.8 1479.3 1299.8 1470.57 Q1299.8 1461.82 1302.86 1457.24 Q1305.93 1452.63 1311.74 1452.63 Z" fill="#000000" fill-rule="evenodd" fill-opacity="1" /><path clip-path="url(#clip020)" d="M 0 0 M1758.28 1453.26 L1780.5 1453.26 L1780.5 1455.25 L1767.95 1487.82 L1763.07 1487.82 L1774.87 1457.19 L1758.28 1457.19 L1758.28 1453.26 Z" fill="#000000" fill-rule="evenodd" fill-opacity="1" /><path clip-path="url(#clip020)" d="M 0 0 M1789.62 1481.94 L1794.5 1481.94 L1794.5 1487.82 L1789.62 1487.82 L1789.62 1481.94 Z" fill="#000000" fill-rule="evenodd" fill-opacity="1" /><path clip-path="url(#clip020)" d="M 0 0 M1804.73 1453.26 L1823.09 1453.26 L1823.09 1457.19 L1809.02 1457.19 L1809.02 1465.67 Q1810.04 1465.32 1811.05 1465.16 Q1812.07 1464.97 1813.09 1464.97 Q1818.88 1464.97 1822.26 1468.14 Q1825.64 1471.32 1825.64 1476.73 Q1825.64 1482.31 1822.17 1485.41 Q1818.69 1488.49 1812.37 1488.49 Q1810.2 1488.49 1807.93 1488.12 Q1805.68 1487.75 1803.28 1487.01 L1803.28 1482.31 Q1805.36 1483.44 1807.58 1484 Q1809.8 1484.56 1812.28 1484.56 Q1816.29 1484.56 1818.62 1482.45 Q1820.96 1480.34 1820.96 1476.73 Q1820.96 1473.12 1818.62 1471.01 Q1816.29 1468.91 1812.28 1468.91 Q1810.41 1468.91 1808.53 1469.32 Q1806.68 1469.74 1804.73 1470.62 L1804.73 1453.26 Z" fill="#000000" fill-rule="evenodd" fill-opacity="1" /><path clip-path="url(#clip020)" d="M 0 0 M2246.59 1483.88 L2254.23 1483.88 L2254.23 1457.52 L2245.92 1459.19 L2245.92 1454.93 L2254.18 1453.26 L2258.86 1453.26 L2258.86 1483.88 L2266.5 1483.88 L2266.5 1487.82 L2246.59 1487.82 L2246.59 1483.88 Z" fill="#000000" fill-rule="evenodd" fill-opacity="1" /><path clip-path="url(#clip020)" d="M 0 0 M2285.94 1456.34 Q2282.33 1456.34 2280.5 1459.9 Q2278.7 1463.44 2278.7 1470.57 Q2278.7 1477.68 2280.5 1481.25 Q2282.33 1484.79 2285.94 1484.79 Q2289.58 1484.79 2291.38 1481.25 Q2293.21 1477.68 2293.21 1470.57 Q2293.21 1463.44 2291.38 1459.9 Q2289.58 1456.34 2285.94 1456.34 M2285.94 1452.63 Q2291.75 1452.63 2294.81 1457.24 Q2297.89 1461.82 2297.89 1470.57 Q2297.89 1479.3 2294.81 1483.91 Q2291.75 1488.49 2285.94 1488.49 Q2280.13 1488.49 2277.05 1483.91 Q2274 1479.3 2274 1470.57 Q2274 1461.82 2277.05 1457.24 Q2280.13 1452.63 2285.94 1452.63 Z" fill="#000000" fill-rule="evenodd" fill-opacity="1" /><path clip-path="url(#clip020)" d="M 0 0 M2306.1 1481.94 L2310.99 1481.94 L2310.99 1487.82 L2306.1 1487.82 L2306.1 1481.94 Z" fill="#000000" fill-rule="evenodd" fill-opacity="1" /><path clip-path="url(#clip020)" d="M 0 0 M2331.17 1456.34 Q2327.56 1456.34 2325.73 1459.9 Q2323.93 1463.44 2323.93 1470.57 Q2323.93 1477.68 2325.73 1481.25 Q2327.56 1484.79 2331.17 1484.79 Q2334.81 1484.79 2336.61 1481.25 Q2338.44 1477.68 2338.44 1470.57 Q2338.44 1463.44 2336.61 1459.9 Q2334.81 1456.34 2331.17 1456.34 M2331.17 1452.63 Q2336.98 1452.63 2340.04 1457.24 Q2343.12 1461.82 2343.12 1470.57 Q2343.12 1479.3 2340.04 1483.91 Q2336.98 1488.49 2331.17 1488.49 Q2325.36 1488.49 2322.29 1483.91 Q2319.23 1479.3 2319.23 1470.57 Q2319.23 1461.82 2322.29 1457.24 Q2325.36 1452.63 2331.17 1452.63 Z" fill="#000000" fill-rule="evenodd" fill-opacity="1" /><path clip-path="url(#clip020)" d="M 0 0 M1238.92 1530.6 Q1238.92 1532.85 1235.66 1532.85 L1224.59 1532.85 L1220.17 1555.43 Q1220.08 1556.01 1219.95 1556.33 Q1219.85 1556.65 1219.56 1557.2 Q1219.3 1557.71 1218.76 1557.97 Q1218.24 1558.26 1217.47 1558.26 Q1216.5 1558.26 1216.02 1557.68 Q1215.57 1557.13 1215.57 1556.46 Q1215.57 1556.04 1216.21 1554.04 L1222.69 1532.85 L1217.21 1532.85 Q1212.06 1532.85 1208.84 1537.94 Q1208.32 1538.61 1208.03 1538.68 Q1207.9 1538.71 1207.77 1538.71 Q1207.42 1538.71 1207.19 1538.55 Q1207 1538.39 1207 1538.23 L1206.97 1538.07 Q1206.97 1537.84 1207.48 1536.94 Q1208.03 1536.01 1209 1534.62 Q1210 1533.24 1211 1532.14 Q1212.32 1530.72 1213.8 1529.98 Q1215.28 1529.21 1216.02 1529.11 Q1216.79 1529.02 1217.79 1529.02 L1236.28 1529.02 Q1237.11 1529.02 1237.57 1529.08 Q1238.02 1529.11 1238.47 1529.5 Q1238.92 1529.85 1238.92 1530.6 Z" fill="#000000" fill-rule="evenodd" fill-opacity="1" /><path clip-path="url(#clip020)" d="M 0 0 M1257.21 1540.97 Q1257.21 1529.82 1261.36 1520.84 Q1263.14 1517.07 1265.62 1513.91 Q1268.1 1510.76 1269.74 1509.37 Q1271.38 1507.99 1271.83 1507.99 Q1272.48 1507.99 1272.51 1508.63 Q1272.51 1508.95 1271.64 1509.76 Q1261.01 1520.58 1261.04 1540.97 Q1261.04 1561.42 1271.38 1571.82 Q1272.51 1572.95 1272.51 1573.3 Q1272.51 1573.94 1271.83 1573.94 Q1271.38 1573.94 1269.8 1572.62 Q1268.22 1571.3 1265.78 1568.28 Q1263.33 1565.25 1261.56 1561.55 Q1257.21 1552.56 1257.21 1540.97 Z" fill="#000000" fill-rule="evenodd" fill-opacity="1" /><path clip-path="url(#clip020)" d="M 0 0 M1282.54 1557.45 L1282.54 1555.43 Q1286.05 1555.43 1286.85 1555.01 Q1287.66 1554.56 1287.66 1552.43 L1287.66 1534.75 Q1287.66 1532.3 1286.79 1531.69 Q1285.95 1531.08 1282.54 1531.08 L1282.54 1529.02 L1291.81 1528.31 L1291.81 1535.23 Q1294.9 1528.31 1301.57 1528.31 Q1306.53 1528.31 1308.49 1530.76 Q1309.94 1532.4 1310.23 1534.23 Q1310.56 1536.07 1310.56 1540.84 L1310.56 1553.43 Q1310.62 1554.81 1311.68 1555.14 Q1312.75 1555.43 1315.71 1555.43 L1315.71 1557.45 Q1308.98 1557.26 1308.3 1557.26 Q1307.79 1557.26 1300.86 1557.45 L1300.86 1555.43 Q1304.37 1555.43 1305.18 1555.01 Q1306.02 1554.56 1306.02 1552.43 L1306.02 1537.07 Q1306.02 1533.72 1304.98 1531.75 Q1303.95 1529.76 1301.12 1529.76 Q1297.71 1529.76 1294.97 1532.62 Q1292.23 1535.49 1292.23 1540.32 L1292.23 1552.43 Q1292.23 1554.56 1293.04 1555.01 Q1293.87 1555.43 1297.35 1555.43 L1297.35 1557.45 Q1290.62 1557.26 1289.98 1557.26 Q1289.46 1557.26 1282.54 1557.45 Z" fill="#000000" fill-rule="evenodd" fill-opacity="1" /><path clip-path="url(#clip020)" d="M 0 0 M1318.77 1556.59 L1318.77 1547.89 Q1318.77 1547.15 1318.81 1546.89 Q1318.84 1546.63 1319.03 1546.44 Q1319.22 1546.25 1319.61 1546.25 Q1320.06 1546.25 1320.22 1546.44 Q1320.42 1546.63 1320.55 1547.37 Q1321.54 1551.92 1323.67 1554.33 Q1325.83 1556.71 1329.72 1556.71 Q1333.43 1556.71 1335.3 1555.07 Q1337.16 1553.43 1337.16 1550.72 Q1337.16 1545.89 1330.3 1544.67 Q1326.34 1543.86 1324.7 1543.35 Q1323.06 1542.8 1321.61 1541.61 Q1318.77 1539.29 1318.77 1536.01 Q1318.77 1532.72 1321.25 1530.31 Q1323.77 1527.89 1329.3 1527.89 Q1333.01 1527.89 1335.52 1529.76 Q1336.26 1529.18 1336.65 1528.7 Q1337.52 1527.89 1337.97 1527.89 Q1338.48 1527.89 1338.58 1528.24 Q1338.68 1528.57 1338.68 1529.5 L1338.68 1536.13 Q1338.68 1536.88 1338.64 1537.13 Q1338.61 1537.39 1338.42 1537.58 Q1338.23 1537.74 1337.81 1537.74 Q1337.07 1537.74 1337.03 1537.13 Q1336.52 1529.15 1329.3 1529.15 Q1325.41 1529.15 1323.67 1530.66 Q1321.93 1532.14 1321.93 1534.17 Q1321.93 1535.3 1322.45 1536.17 Q1322.99 1537 1323.67 1537.52 Q1324.38 1538 1325.67 1538.49 Q1326.95 1538.94 1327.73 1539.1 Q1328.53 1539.26 1330.05 1539.58 Q1335.33 1540.58 1337.55 1542.74 Q1340.32 1545.51 1340.32 1549.02 Q1340.32 1552.91 1337.68 1555.55 Q1335.04 1558.2 1329.72 1558.2 Q1325.44 1558.2 1322.45 1555.33 Q1322.06 1555.72 1321.77 1556.07 Q1321.48 1556.39 1321.35 1556.52 Q1321.25 1556.65 1321.22 1556.75 Q1321.19 1556.81 1321.12 1556.88 Q1319.8 1558.2 1319.48 1558.2 Q1318.97 1558.2 1318.87 1557.84 Q1318.77 1557.52 1318.77 1556.59 Z" fill="#000000" fill-rule="evenodd" fill-opacity="1" /><path clip-path="url(#clip020)" d="M 0 0 M1344.48 1573.3 Q1344.48 1572.98 1345.32 1572.17 Q1355.95 1561.35 1355.95 1540.97 Q1355.95 1520.51 1345.74 1510.18 Q1344.48 1508.99 1344.48 1508.63 Q1344.48 1507.99 1345.13 1507.99 Q1345.58 1507.99 1347.16 1509.31 Q1348.77 1510.63 1351.18 1513.65 Q1353.63 1516.68 1355.43 1520.39 Q1359.78 1529.37 1359.78 1540.97 Q1359.78 1552.11 1355.63 1561.09 Q1353.86 1564.86 1351.38 1568.02 Q1348.9 1571.17 1347.25 1572.56 Q1345.61 1573.94 1345.13 1573.94 Q1344.48 1573.94 1344.48 1573.3 Z" fill="#000000" fill-rule="evenodd" fill-opacity="1" /><polyline clip-path="url(#clip023)" style="stroke:#000000; stroke-width:2; stroke-opacity:0.1; fill:none" points="
  224.025,1237.48 2352.76,1237.48 
  "/>
<polyline clip-path="url(#clip023)" style="stroke:#000000; stroke-width:2; stroke-opacity:0.1; fill:none" points="
  224.025,1005.73 2352.76,1005.73 
  "/>
<polyline clip-path="url(#clip023)" style="stroke:#000000; stroke-width:2; stroke-opacity:0.1; fill:none" points="
  224.025,773.972 2352.76,773.972 
  "/>
<polyline clip-path="url(#clip023)" style="stroke:#000000; stroke-width:2; stroke-opacity:0.1; fill:none" points="
  224.025,542.217 2352.76,542.217 
  "/>
<polyline clip-path="url(#clip023)" style="stroke:#000000; stroke-width:2; stroke-opacity:0.1; fill:none" points="
  224.025,310.463 2352.76,310.463 
  "/>
<polyline clip-path="url(#clip020)" style="stroke:#000000; stroke-width:4; stroke-opacity:1; fill:none" points="
  224.025,1427.15 224.025,123.472 
  "/>
<polyline clip-path="url(#clip020)" style="stroke:#000000; stroke-width:4; stroke-opacity:1; fill:none" points="
  224.025,1237.48 249.57,1237.48 
  "/>
<polyline clip-path="url(#clip020)" style="stroke:#000000; stroke-width:4; stroke-opacity:1; fill:none" points="
  224.025,1005.73 249.57,1005.73 
  "/>
<polyline clip-path="url(#clip020)" style="stroke:#000000; stroke-width:4; stroke-opacity:1; fill:none" points="
  224.025,773.972 249.57,773.972 
  "/>
<polyline clip-path="url(#clip020)" style="stroke:#000000; stroke-width:4; stroke-opacity:1; fill:none" points="
  224.025,542.217 249.57,542.217 
  "/>
<polyline clip-path="url(#clip020)" style="stroke:#000000; stroke-width:4; stroke-opacity:1; fill:none" points="
  224.025,310.463 249.57,310.463 
  "/>
<path clip-path="url(#clip020)" d="M 0 0 M121.659 1250.83 L129.298 1250.83 L129.298 1224.46 L120.988 1226.13 L120.988 1221.87 L129.252 1220.2 L133.928 1220.2 L133.928 1250.83 L141.567 1250.83 L141.567 1254.76 L121.659 1254.76 L121.659 1250.83 Z" fill="#000000" fill-rule="evenodd" fill-opacity="1" /><path clip-path="url(#clip020)" d="M 0 0 M151.011 1248.88 L155.895 1248.88 L155.895 1254.76 L151.011 1254.76 L151.011 1248.88 Z" fill="#000000" fill-rule="evenodd" fill-opacity="1" /><path clip-path="url(#clip020)" d="M 0 0 M176.08 1223.28 Q172.469 1223.28 170.641 1226.84 Q168.835 1230.39 168.835 1237.52 Q168.835 1244.62 170.641 1248.19 Q172.469 1251.73 176.08 1251.73 Q179.715 1251.73 181.52 1248.19 Q183.349 1244.62 183.349 1237.52 Q183.349 1230.39 181.52 1226.84 Q179.715 1223.28 176.08 1223.28 M176.08 1219.58 Q181.891 1219.58 184.946 1224.18 Q188.025 1228.77 188.025 1237.52 Q188.025 1246.24 184.946 1250.85 Q181.891 1255.43 176.08 1255.43 Q170.27 1255.43 167.192 1250.85 Q164.136 1246.24 164.136 1237.52 Q164.136 1228.77 167.192 1224.18 Q170.27 1219.58 176.08 1219.58 Z" fill="#000000" fill-rule="evenodd" fill-opacity="1" /><path clip-path="url(#clip020)" d="M 0 0 M123.257 1019.07 L130.895 1019.07 L130.895 992.706 L122.585 994.372 L122.585 990.113 L130.849 988.447 L135.525 988.447 L135.525 1019.07 L143.164 1019.07 L143.164 1023.01 L123.257 1023.01 L123.257 1019.07 Z" fill="#000000" fill-rule="evenodd" fill-opacity="1" /><path clip-path="url(#clip020)" d="M 0 0 M152.608 1017.13 L157.493 1017.13 L157.493 1023.01 L152.608 1023.01 L152.608 1017.13 Z" fill="#000000" fill-rule="evenodd" fill-opacity="1" /><path clip-path="url(#clip020)" d="M 0 0 M171.705 1019.07 L188.025 1019.07 L188.025 1023.01 L166.08 1023.01 L166.08 1019.07 Q168.743 1016.32 173.326 1011.69 Q177.932 1007.03 179.113 1005.69 Q181.358 1003.17 182.238 1001.43 Q183.141 999.673 183.141 997.983 Q183.141 995.229 181.196 993.493 Q179.275 991.757 176.173 991.757 Q173.974 991.757 171.52 992.521 Q169.09 993.284 166.312 994.835 L166.312 990.113 Q169.136 988.979 171.59 988.4 Q174.043 987.822 176.08 987.822 Q181.451 987.822 184.645 990.507 Q187.84 993.192 187.84 997.683 Q187.84 999.812 187.029 1001.73 Q186.242 1003.63 184.136 1006.22 Q183.557 1006.9 180.455 1010.11 Q177.354 1013.31 171.705 1019.07 Z" fill="#000000" fill-rule="evenodd" fill-opacity="1" /><path clip-path="url(#clip020)" d="M 0 0 M121.173 787.317 L128.812 787.317 L128.812 760.951 L120.502 762.618 L120.502 758.359 L128.766 756.692 L133.442 756.692 L133.442 787.317 L141.081 787.317 L141.081 791.252 L121.173 791.252 L121.173 787.317 Z" fill="#000000" fill-rule="evenodd" fill-opacity="1" /><path clip-path="url(#clip020)" d="M 0 0 M150.525 785.372 L155.409 785.372 L155.409 791.252 L150.525 791.252 L150.525 785.372 Z" fill="#000000" fill-rule="evenodd" fill-opacity="1" /><path clip-path="url(#clip020)" d="M 0 0 M178.442 760.766 L166.636 779.215 L178.442 779.215 L178.442 760.766 M177.215 756.692 L183.094 756.692 L183.094 779.215 L188.025 779.215 L188.025 783.104 L183.094 783.104 L183.094 791.252 L178.442 791.252 L178.442 783.104 L162.84 783.104 L162.84 778.59 L177.215 756.692 Z" fill="#000000" fill-rule="evenodd" fill-opacity="1" /><path clip-path="url(#clip020)" d="M 0 0 M121.497 555.562 L129.136 555.562 L129.136 529.197 L120.826 530.863 L120.826 526.604 L129.09 524.937 L133.766 524.937 L133.766 555.562 L141.405 555.562 L141.405 559.497 L121.497 559.497 L121.497 555.562 Z" fill="#000000" fill-rule="evenodd" fill-opacity="1" /><path clip-path="url(#clip020)" d="M 0 0 M150.849 553.618 L155.733 553.618 L155.733 559.497 L150.849 559.497 L150.849 553.618 Z" fill="#000000" fill-rule="evenodd" fill-opacity="1" /><path clip-path="url(#clip020)" d="M 0 0 M176.497 540.354 Q173.349 540.354 171.497 542.507 Q169.668 544.66 169.668 548.41 Q169.668 552.136 171.497 554.312 Q173.349 556.465 176.497 556.465 Q179.645 556.465 181.474 554.312 Q183.326 552.136 183.326 548.41 Q183.326 544.66 181.474 542.507 Q179.645 540.354 176.497 540.354 M185.779 525.701 L185.779 529.961 Q184.02 529.127 182.215 528.687 Q180.432 528.248 178.673 528.248 Q174.043 528.248 171.59 531.373 Q169.159 534.498 168.812 540.817 Q170.178 538.803 172.238 537.738 Q174.298 536.65 176.775 536.65 Q181.983 536.65 184.992 539.822 Q188.025 542.97 188.025 548.41 Q188.025 553.734 184.877 556.951 Q181.729 560.169 176.497 560.169 Q170.502 560.169 167.33 555.585 Q164.159 550.979 164.159 542.252 Q164.159 534.058 168.048 529.197 Q171.937 524.312 178.488 524.312 Q180.247 524.312 182.029 524.66 Q183.835 525.007 185.779 525.701 Z" fill="#000000" fill-rule="evenodd" fill-opacity="1" /><path clip-path="url(#clip020)" d="M 0 0 M121.752 323.808 L129.391 323.808 L129.391 297.442 L121.081 299.109 L121.081 294.85 L129.345 293.183 L134.02 293.183 L134.02 323.808 L141.659 323.808 L141.659 327.743 L121.752 327.743 L121.752 323.808 Z" fill="#000000" fill-rule="evenodd" fill-opacity="1" /><path clip-path="url(#clip020)" d="M 0 0 M151.104 321.863 L155.988 321.863 L155.988 327.743 L151.104 327.743 L151.104 321.863 Z" fill="#000000" fill-rule="evenodd" fill-opacity="1" /><path clip-path="url(#clip020)" d="M 0 0 M176.173 311.331 Q172.84 311.331 170.918 313.113 Q169.02 314.896 169.02 318.021 Q169.02 321.146 170.918 322.928 Q172.84 324.711 176.173 324.711 Q179.506 324.711 181.428 322.928 Q183.349 321.123 183.349 318.021 Q183.349 314.896 181.428 313.113 Q179.529 311.331 176.173 311.331 M171.497 309.34 Q168.488 308.599 166.798 306.539 Q165.131 304.479 165.131 301.516 Q165.131 297.373 168.071 294.965 Q171.034 292.558 176.173 292.558 Q181.335 292.558 184.275 294.965 Q187.215 297.373 187.215 301.516 Q187.215 304.479 185.525 306.539 Q183.858 308.599 180.872 309.34 Q184.252 310.127 186.127 312.419 Q188.025 314.711 188.025 318.021 Q188.025 323.044 184.946 325.729 Q181.891 328.414 176.173 328.414 Q170.455 328.414 167.377 325.729 Q164.321 323.044 164.321 318.021 Q164.321 314.711 166.219 312.419 Q168.118 310.127 171.497 309.34 M169.784 301.956 Q169.784 304.641 171.451 306.146 Q173.141 307.65 176.173 307.65 Q179.182 307.65 180.872 306.146 Q182.585 304.641 182.585 301.956 Q182.585 299.271 180.872 297.766 Q179.182 296.262 176.173 296.262 Q173.141 296.262 171.451 297.766 Q169.784 299.271 169.784 301.956 Z" fill="#000000" fill-rule="evenodd" fill-opacity="1" /><path clip-path="url(#clip020)" d="M 0 0 M50.1836 835.816 Q50.2159 835.816 51.3753 836.009 L80.6504 843.352 Q82.1963 843.739 83.7422 844.834 Q85.3202 845.897 86.6729 847.604 Q88.0577 849.278 88.8951 851.855 Q89.7647 854.399 89.7647 857.33 Q89.7647 862 88.7663 864.061 Q87.8001 866.09 85.7389 866.09 Q83.9354 866.09 82.9048 864.963 Q81.9064 863.835 81.9064 862.547 Q81.9064 861.323 82.6149 860.679 Q83.3235 860.035 84.2252 860.035 Q85.2236 860.035 86.222 860.711 Q87.2526 861.388 87.6391 862.74 Q88.3154 860.583 88.3154 857.459 Q88.3154 850.856 81.3267 848.022 Q81.2301 847.958 81.1979 847.958 L72.4701 845.768 L72.4057 845.864 Q73.0498 846.412 73.7905 847.282 Q74.4991 848.119 75.3686 849.922 Q76.2382 851.726 76.2382 853.497 Q76.2382 857.201 73.4041 859.745 Q70.5378 862.257 65.8035 862.257 Q62.3575 862.257 58.9114 860.872 Q55.4332 859.455 52.8889 857.265 Q50.3125 855.043 48.7022 852.209 Q47.0919 849.343 47.0919 846.573 Q47.0919 844.641 48.2513 842.998 Q49.3785 841.356 51.2464 840.454 Q49.7006 840.293 49.0564 839.423 Q48.4123 838.522 48.4123 837.749 Q48.4123 836.879 48.8954 836.364 Q49.3463 835.816 50.1836 835.816 M54.2094 841.227 Q54.0161 841.227 53.5009 841.356 Q52.9534 841.484 52.0838 841.871 Q51.2142 842.225 50.4413 842.773 Q49.6684 843.32 49.1209 844.319 Q48.5411 845.285 48.5411 846.509 Q48.5411 848.505 50.2159 850.502 Q51.8584 852.499 54.4026 853.884 Q56.8503 855.172 61.5845 856.396 Q66.3188 857.587 68.7342 857.587 Q71.1175 857.587 72.9532 856.557 Q74.7889 855.526 74.7889 853.304 Q74.7889 850.728 72.4057 847.958 Q69.9258 845.092 67.8003 844.608 L55.2078 841.42 Q54.4348 841.227 54.2094 841.227 Z" fill="#000000" fill-rule="evenodd" fill-opacity="1" /><path clip-path="url(#clip020)" d="M 0 0 M34.6809 829.065 Q26.8807 829.065 20.5909 826.157 Q17.9532 824.917 15.7439 823.181 Q13.5346 821.445 12.5652 820.296 Q11.5958 819.146 11.5958 818.83 Q11.5958 818.379 12.0466 818.357 Q12.2721 818.357 12.8357 818.966 Q20.4105 826.405 34.6809 826.383 Q48.9964 826.383 56.2782 819.146 Q57.0672 818.357 57.3152 818.357 Q57.7661 818.357 57.7661 818.83 Q57.7661 819.146 56.8418 820.251 Q55.9175 821.355 53.7983 823.069 Q51.6792 824.782 49.0866 826.022 Q42.7968 829.065 34.6809 829.065 Z" fill="#000000" fill-rule="evenodd" fill-opacity="1" /><path clip-path="url(#clip020)" d="M 0 0 M46.2235 811.336 Q45.3894 811.336 45.1414 811.269 Q44.8934 811.178 44.5101 810.818 L34.6358 801.958 Q29.1802 797.111 24.4234 797.111 Q21.3348 797.111 19.1255 798.734 Q16.9162 800.335 16.9162 803.288 Q16.9162 805.317 18.1561 807.03 Q19.396 808.744 21.6053 809.533 Q21.5603 809.397 21.5603 808.924 Q21.5603 807.774 22.2817 807.143 Q23.0031 806.489 23.9725 806.489 Q25.2124 806.489 25.8211 807.301 Q26.4072 808.09 26.4072 808.879 Q26.4072 809.195 26.3396 809.623 Q26.272 810.029 25.6407 810.682 Q24.987 811.336 23.8372 811.336 Q20.6134 811.336 18.0434 808.901 Q15.4733 806.444 15.4733 802.702 Q15.4733 798.464 17.9983 795.691 Q20.5007 792.895 24.4234 792.895 Q25.7985 792.895 27.061 793.323 Q28.3009 793.729 29.2703 794.293 Q30.2397 794.834 31.7953 796.322 Q33.3508 797.81 34.4555 799.005 Q35.5601 800.199 37.9047 802.882 L42.6615 807.774 L42.6615 799.455 Q42.6615 795.398 42.3008 795.082 Q41.647 794.631 38.1978 794.067 L38.1978 792.895 L46.2235 794.203 L46.2235 811.336 Z" fill="#000000" fill-rule="evenodd" fill-opacity="1" /><path clip-path="url(#clip020)" d="M 0 0 M57.3152 788.471 Q57.0898 788.471 56.5262 787.885 Q48.9513 780.446 34.6809 780.446 Q20.3654 780.446 13.1288 787.592 Q12.2946 788.471 12.0466 788.471 Q11.5958 788.471 11.5958 788.02 Q11.5958 787.705 12.5201 786.6 Q13.4444 785.473 15.5635 783.782 Q17.6827 782.069 20.2752 780.806 Q26.565 777.763 34.6809 777.763 Q42.4812 777.763 48.771 780.671 Q51.4086 781.911 53.618 783.647 Q55.8273 785.383 56.7967 786.533 Q57.7661 787.682 57.7661 788.02 Q57.7661 788.471 57.3152 788.471 Z" fill="#000000" fill-rule="evenodd" fill-opacity="1" /><path clip-path="url(#clip020)" d="M 0 0 M59.7488 763.702 Q48.6056 763.702 39.6201 759.548 Q35.852 757.776 32.6959 755.296 Q29.5397 752.817 28.1548 751.174 Q26.77 749.532 26.77 749.081 Q26.77 748.437 27.4141 748.404 Q27.7362 748.404 28.5413 749.274 Q39.3625 759.902 59.7488 759.87 Q80.1995 759.87 90.602 749.532 Q91.7292 748.404 92.0835 748.404 Q92.7276 748.404 92.7276 749.081 Q92.7276 749.532 91.4071 751.11 Q90.0867 752.688 87.0594 755.135 Q84.032 757.583 80.3283 759.354 Q71.3429 763.702 59.7488 763.702 Z" fill="#000000" fill-rule="evenodd" fill-opacity="1" /><path clip-path="url(#clip020)" d="M 0 0 M49.3785 706.427 Q51.6329 706.427 51.6329 709.679 L51.6329 720.758 L74.2092 725.17 Q74.7889 725.267 75.111 725.396 Q75.433 725.492 75.9805 725.782 Q76.4958 726.04 76.7535 726.587 Q77.0433 727.103 77.0433 727.876 Q77.0433 728.842 76.4636 729.325 Q75.9161 729.776 75.2398 729.776 Q74.8211 729.776 72.8244 729.132 L51.6329 722.658 L51.6329 728.133 Q51.6329 733.286 56.7214 736.507 Q57.3978 737.022 57.4622 737.312 Q57.4944 737.441 57.4944 737.57 Q57.4944 737.924 57.3333 738.149 Q57.1723 738.343 57.0113 738.343 L56.8503 738.375 Q56.6248 738.375 55.7231 737.859 Q54.7891 737.312 53.4042 736.346 Q52.0194 735.347 50.9244 734.349 Q49.5073 733.029 48.7666 731.547 Q47.9936 730.066 47.897 729.325 Q47.8004 728.552 47.8004 727.554 L47.8004 709.067 Q47.8004 708.23 47.8648 707.779 Q47.897 707.328 48.2835 706.877 Q48.6378 706.427 49.3785 706.427 Z" fill="#000000" fill-rule="evenodd" fill-opacity="1" /><path clip-path="url(#clip020)" d="M 0 0 M92.0835 709.858 Q91.7614 709.858 90.9563 709.02 Q80.1351 698.392 59.7488 698.392 Q39.2981 698.392 28.96 708.601 Q27.7684 709.858 27.4141 709.858 Q26.77 709.858 26.77 709.213 Q26.77 708.763 28.0904 707.184 Q29.4109 705.574 32.4382 703.159 Q35.4656 700.711 39.1692 698.908 Q48.1547 694.56 59.7488 694.56 Q70.892 694.56 79.8775 698.714 Q83.6455 700.486 86.8017 702.965 Q89.9579 705.445 91.3427 707.088 Q92.7276 708.73 92.7276 709.213 Q92.7276 709.858 92.0835 709.858 Z" fill="#000000" fill-rule="evenodd" fill-opacity="1" /><path clip-path="url(#clip020)" d="M 0 0 M581.001 18.8205 L581.001 41.5461 L591.291 41.5461 Q597.002 41.5461 600.121 38.5889 Q603.241 35.6318 603.241 30.163 Q603.241 24.7348 600.121 21.7777 Q597.002 18.8205 591.291 18.8205 L581.001 18.8205 M572.818 12.096 L591.291 12.096 Q601.458 12.096 606.643 16.714 Q611.869 21.2916 611.869 30.163 Q611.869 39.1155 606.643 43.6931 Q601.458 48.2706 591.291 48.2706 L581.001 48.2706 L581.001 72.576 L572.818 72.576 L572.818 12.096 Z" fill="#000000" fill-rule="evenodd" fill-opacity="1" /><path clip-path="url(#clip020)" d="M 0 0 M660.237 45.1919 L660.237 72.576 L652.783 72.576 L652.783 45.4349 Q652.783 38.994 650.272 35.7938 Q647.76 32.5936 642.737 32.5936 Q636.701 32.5936 633.217 36.4419 Q629.734 40.2903 629.734 46.9338 L629.734 72.576 L622.239 72.576 L622.239 9.54393 L629.734 9.54393 L629.734 34.2544 Q632.407 30.163 636.012 28.1376 Q639.658 26.1121 644.398 26.1121 Q652.216 26.1121 656.227 30.9732 Q660.237 35.7938 660.237 45.1919 Z" fill="#000000" fill-rule="evenodd" fill-opacity="1" /><path clip-path="url(#clip020)" d="M 0 0 M692.685 32.4315 Q686.689 32.4315 683.206 37.1306 Q679.722 41.7891 679.722 49.9314 Q679.722 58.0738 683.165 62.7728 Q686.649 67.4314 692.685 67.4314 Q698.639 67.4314 702.123 62.7323 Q705.607 58.0333 705.607 49.9314 Q705.607 41.8701 702.123 37.1711 Q698.639 32.4315 692.685 32.4315 M692.685 26.1121 Q702.407 26.1121 707.957 32.4315 Q713.506 38.7509 713.506 49.9314 Q713.506 61.0714 707.957 67.4314 Q702.407 73.7508 692.685 73.7508 Q682.922 73.7508 677.372 67.4314 Q671.863 61.0714 671.863 49.9314 Q671.863 38.7509 677.372 32.4315 Q682.922 26.1121 692.685 26.1121 Z" fill="#000000" fill-rule="evenodd" fill-opacity="1" /><path clip-path="url(#clip020)" d="M 0 0 M733.234 14.324 L733.234 27.2059 L748.587 27.2059 L748.587 32.9987 L733.234 32.9987 L733.234 57.6282 Q733.234 63.1779 734.733 64.7578 Q736.272 66.3376 740.931 66.3376 L748.587 66.3376 L748.587 72.576 L740.931 72.576 Q732.302 72.576 729.021 69.3758 Q725.74 66.1351 725.74 57.6282 L725.74 32.9987 L720.271 32.9987 L720.271 27.2059 L725.74 27.2059 L725.74 14.324 L733.234 14.324 Z" fill="#000000" fill-rule="evenodd" fill-opacity="1" /><path clip-path="url(#clip020)" d="M 0 0 M775.971 32.4315 Q769.976 32.4315 766.492 37.1306 Q763.008 41.7891 763.008 49.9314 Q763.008 58.0738 766.452 62.7728 Q769.935 67.4314 775.971 67.4314 Q781.926 67.4314 785.41 62.7323 Q788.894 58.0333 788.894 49.9314 Q788.894 41.8701 785.41 37.1711 Q781.926 32.4315 775.971 32.4315 M775.971 26.1121 Q785.693 26.1121 791.243 32.4315 Q796.793 38.7509 796.793 49.9314 Q796.793 61.0714 791.243 67.4314 Q785.693 73.7508 775.971 73.7508 Q766.209 73.7508 760.659 67.4314 Q755.15 61.0714 755.15 49.9314 Q755.15 38.7509 760.659 32.4315 Q766.209 26.1121 775.971 26.1121 Z" fill="#000000" fill-rule="evenodd" fill-opacity="1" /><path clip-path="url(#clip020)" d="M 0 0 M846.862 45.1919 L846.862 72.576 L839.408 72.576 L839.408 45.4349 Q839.408 38.994 836.897 35.7938 Q834.385 32.5936 829.362 32.5936 Q823.326 32.5936 819.843 36.4419 Q816.359 40.2903 816.359 46.9338 L816.359 72.576 L808.865 72.576 L808.865 27.2059 L816.359 27.2059 L816.359 34.2544 Q819.032 30.163 822.638 28.1376 Q826.283 26.1121 831.023 26.1121 Q838.841 26.1121 842.852 30.9732 Q846.862 35.7938 846.862 45.1919 Z" fill="#000000" fill-rule="evenodd" fill-opacity="1" /><path clip-path="url(#clip020)" d="M 0 0 M933.713 16.7545 L933.713 25.383 Q929.582 21.5346 924.882 19.6307 Q920.224 17.7268 914.958 17.7268 Q904.587 17.7268 899.078 24.0867 Q893.569 30.4061 893.569 42.3968 Q893.569 54.3469 899.078 60.7069 Q904.587 67.0263 914.958 67.0263 Q920.224 67.0263 924.882 65.1223 Q929.582 63.2184 933.713 59.3701 L933.713 67.9175 Q929.419 70.8341 924.599 72.2924 Q919.819 73.7508 914.472 73.7508 Q900.739 73.7508 892.84 65.3654 Q884.941 56.9395 884.941 42.3968 Q884.941 27.8135 892.84 19.4281 Q900.739 11.0023 914.472 11.0023 Q919.9 11.0023 924.68 12.4606 Q929.501 13.8784 933.713 16.7545 Z" fill="#000000" fill-rule="evenodd" fill-opacity="1" /><path clip-path="url(#clip020)" d="M 0 0 M963.609 32.4315 Q957.614 32.4315 954.13 37.1306 Q950.646 41.7891 950.646 49.9314 Q950.646 58.0738 954.089 62.7728 Q957.573 67.4314 963.609 67.4314 Q969.564 67.4314 973.048 62.7323 Q976.532 58.0333 976.532 49.9314 Q976.532 41.8701 973.048 37.1711 Q969.564 32.4315 963.609 32.4315 M963.609 26.1121 Q973.331 26.1121 978.881 32.4315 Q984.431 38.7509 984.431 49.9314 Q984.431 61.0714 978.881 67.4314 Q973.331 73.7508 963.609 73.7508 Q953.846 73.7508 948.297 67.4314 Q942.787 61.0714 942.787 49.9314 Q942.787 38.7509 948.297 32.4315 Q953.846 26.1121 963.609 26.1121 Z" fill="#000000" fill-rule="evenodd" fill-opacity="1" /><path clip-path="url(#clip020)" d="M 0 0 M1023.08 34.1734 Q1021.82 33.4443 1020.32 33.1202 Q1018.86 32.7556 1017.08 32.7556 Q1010.76 32.7556 1007.36 36.8875 Q1004 40.9789 1004 48.6757 L1004 72.576 L996.502 72.576 L996.502 27.2059 L1004 27.2059 L1004 34.2544 Q1006.35 30.1225 1010.11 28.1376 Q1013.88 26.1121 1019.27 26.1121 Q1020.04 26.1121 1020.97 26.2337 Q1021.9 26.3147 1023.04 26.5172 L1023.08 34.1734 Z" fill="#000000" fill-rule="evenodd" fill-opacity="1" /><path clip-path="url(#clip020)" d="M 0 0 M1055.73 34.1734 Q1054.47 33.4443 1052.97 33.1202 Q1051.51 32.7556 1049.73 32.7556 Q1043.41 32.7556 1040.01 36.8875 Q1036.65 40.9789 1036.65 48.6757 L1036.65 72.576 L1029.15 72.576 L1029.15 27.2059 L1036.65 27.2059 L1036.65 34.2544 Q1039 30.1225 1042.76 28.1376 Q1046.53 26.1121 1051.92 26.1121 Q1052.69 26.1121 1053.62 26.2337 Q1054.55 26.3147 1055.69 26.5172 L1055.73 34.1734 Z" fill="#000000" fill-rule="evenodd" fill-opacity="1" /><path clip-path="url(#clip020)" d="M 0 0 M1100.53 48.0275 L1100.53 51.6733 L1066.26 51.6733 Q1066.75 59.3701 1070.88 63.421 Q1075.05 67.4314 1082.46 67.4314 Q1086.76 67.4314 1090.77 66.3781 Q1094.82 65.3249 1098.79 63.2184 L1098.79 70.267 Q1094.78 71.9684 1090.56 72.8596 Q1086.35 73.7508 1082.02 73.7508 Q1071.16 73.7508 1064.8 67.4314 Q1058.48 61.1119 1058.48 50.3365 Q1058.48 39.1965 1064.48 32.6746 Q1070.51 26.1121 1080.72 26.1121 Q1089.88 26.1121 1095.18 32.0264 Q1100.53 37.9003 1100.53 48.0275 M1093.08 45.84 Q1092.99 39.7232 1089.63 36.0774 Q1086.31 32.4315 1080.8 32.4315 Q1074.56 32.4315 1070.8 35.9558 Q1067.07 39.4801 1066.5 45.8805 L1093.08 45.84 Z" fill="#000000" fill-rule="evenodd" fill-opacity="1" /><path clip-path="url(#clip020)" d="M 0 0 M1112.76 9.54393 L1120.22 9.54393 L1120.22 72.576 L1112.76 72.576 L1112.76 9.54393 Z" fill="#000000" fill-rule="evenodd" fill-opacity="1" /><path clip-path="url(#clip020)" d="M 0 0 M1156.43 49.7694 Q1147.4 49.7694 1143.91 51.8354 Q1140.43 53.9013 1140.43 58.8839 Q1140.43 62.8538 1143.02 65.2034 Q1145.66 67.5124 1150.15 67.5124 Q1156.35 67.5124 1160.08 63.1374 Q1163.85 58.7219 1163.85 51.4303 L1163.85 49.7694 L1156.43 49.7694 M1171.3 46.6907 L1171.3 72.576 L1163.85 72.576 L1163.85 65.6895 Q1161.29 69.8214 1157.49 71.8063 Q1153.68 73.7508 1148.17 73.7508 Q1141.2 73.7508 1137.07 69.8619 Q1132.98 65.9325 1132.98 59.3701 Q1132.98 51.7138 1138.08 47.825 Q1143.23 43.9361 1153.39 43.9361 L1163.85 43.9361 L1163.85 43.2069 Q1163.85 38.0623 1160.44 35.2672 Q1157.08 32.4315 1150.96 32.4315 Q1147.07 32.4315 1143.39 33.3632 Q1139.7 34.295 1136.3 36.1584 L1136.3 29.2718 Q1140.39 27.692 1144.24 26.9223 Q1148.09 26.1121 1151.73 26.1121 Q1161.58 26.1121 1166.44 31.2163 Q1171.3 36.3204 1171.3 46.6907 Z" fill="#000000" fill-rule="evenodd" fill-opacity="1" /><path clip-path="url(#clip020)" d="M 0 0 M1194.02 14.324 L1194.02 27.2059 L1209.38 27.2059 L1209.38 32.9987 L1194.02 32.9987 L1194.02 57.6282 Q1194.02 63.1779 1195.52 64.7578 Q1197.06 66.3376 1201.72 66.3376 L1209.38 66.3376 L1209.38 72.576 L1201.72 72.576 Q1193.09 72.576 1189.81 69.3758 Q1186.53 66.1351 1186.53 57.6282 L1186.53 32.9987 L1181.06 32.9987 L1181.06 27.2059 L1186.53 27.2059 L1186.53 14.324 L1194.02 14.324 Z" fill="#000000" fill-rule="evenodd" fill-opacity="1" /><path clip-path="url(#clip020)" d="M 0 0 M1219.18 27.2059 L1226.63 27.2059 L1226.63 72.576 L1219.18 72.576 L1219.18 27.2059 M1219.18 9.54393 L1226.63 9.54393 L1226.63 18.9825 L1219.18 18.9825 L1219.18 9.54393 Z" fill="#000000" fill-rule="evenodd" fill-opacity="1" /><path clip-path="url(#clip020)" d="M 0 0 M1259.81 32.4315 Q1253.82 32.4315 1250.33 37.1306 Q1246.85 41.7891 1246.85 49.9314 Q1246.85 58.0738 1250.29 62.7728 Q1253.78 67.4314 1259.81 67.4314 Q1265.77 67.4314 1269.25 62.7323 Q1272.73 58.0333 1272.73 49.9314 Q1272.73 41.8701 1269.25 37.1711 Q1265.77 32.4315 1259.81 32.4315 M1259.81 26.1121 Q1269.53 26.1121 1275.08 32.4315 Q1280.63 38.7509 1280.63 49.9314 Q1280.63 61.0714 1275.08 67.4314 Q1269.53 73.7508 1259.81 73.7508 Q1250.05 73.7508 1244.5 67.4314 Q1238.99 61.0714 1238.99 49.9314 Q1238.99 38.7509 1244.5 32.4315 Q1250.05 26.1121 1259.81 26.1121 Z" fill="#000000" fill-rule="evenodd" fill-opacity="1" /><path clip-path="url(#clip020)" d="M 0 0 M1330.7 45.1919 L1330.7 72.576 L1323.25 72.576 L1323.25 45.4349 Q1323.25 38.994 1320.74 35.7938 Q1318.23 32.5936 1313.2 32.5936 Q1307.17 32.5936 1303.68 36.4419 Q1300.2 40.2903 1300.2 46.9338 L1300.2 72.576 L1292.7 72.576 L1292.7 27.2059 L1300.2 27.2059 L1300.2 34.2544 Q1302.87 30.163 1306.48 28.1376 Q1310.12 26.1121 1314.86 26.1121 Q1322.68 26.1121 1326.69 30.9732 Q1330.7 35.7938 1330.7 45.1919 Z" fill="#000000" fill-rule="evenodd" fill-opacity="1" /><path clip-path="url(#clip020)" d="M 0 0 M1374.49 28.5427 L1374.49 35.5912 Q1371.33 33.9709 1367.93 33.1607 Q1364.53 32.3505 1360.88 32.3505 Q1355.33 32.3505 1352.54 34.0519 Q1349.78 35.7533 1349.78 39.156 Q1349.78 41.7486 1351.77 43.2475 Q1353.75 44.7058 1359.75 46.0426 L1362.3 46.6097 Q1370.24 48.3111 1373.56 51.4303 Q1376.92 54.509 1376.92 60.0587 Q1376.92 66.3781 1371.9 70.0644 Q1366.92 73.7508 1358.17 73.7508 Q1354.52 73.7508 1350.55 73.0216 Q1346.62 72.3329 1342.25 70.9151 L1342.25 63.2184 Q1346.38 65.3654 1350.39 66.4591 Q1354.4 67.5124 1358.33 67.5124 Q1363.6 67.5124 1366.43 65.73 Q1369.27 63.9071 1369.27 60.6258 Q1369.27 57.5877 1367.2 55.9673 Q1365.18 54.3469 1358.25 52.8481 L1355.66 52.2405 Q1348.73 50.7821 1345.65 47.7845 Q1342.57 44.7463 1342.57 39.4801 Q1342.57 33.0797 1347.11 29.5959 Q1351.65 26.1121 1359.99 26.1121 Q1364.12 26.1121 1367.77 26.7198 Q1371.41 27.3274 1374.49 28.5427 Z" fill="#000000" fill-rule="evenodd" fill-opacity="1" /><path clip-path="url(#clip020)" d="M 0 0 M1409.82 27.2059 L1417.72 27.2059 L1431.89 65.2844 L1446.07 27.2059 L1453.97 27.2059 L1436.96 72.576 L1426.83 72.576 L1409.82 27.2059 Z" fill="#000000" fill-rule="evenodd" fill-opacity="1" /><path clip-path="url(#clip020)" d="M 0 0 M1493.18 28.5427 L1493.18 35.5912 Q1490.02 33.9709 1486.62 33.1607 Q1483.22 32.3505 1479.57 32.3505 Q1474.02 32.3505 1471.23 34.0519 Q1468.47 35.7533 1468.47 39.156 Q1468.47 41.7486 1470.46 43.2475 Q1472.44 44.7058 1478.44 46.0426 L1480.99 46.6097 Q1488.93 48.3111 1492.25 51.4303 Q1495.61 54.509 1495.61 60.0587 Q1495.61 66.3781 1490.59 70.0644 Q1485.61 73.7508 1476.86 73.7508 Q1473.21 73.7508 1469.24 73.0216 Q1465.31 72.3329 1460.94 70.9151 L1460.94 63.2184 Q1465.07 65.3654 1469.08 66.4591 Q1473.09 67.5124 1477.02 67.5124 Q1482.29 67.5124 1485.12 65.73 Q1487.96 63.9071 1487.96 60.6258 Q1487.96 57.5877 1485.89 55.9673 Q1483.87 54.3469 1476.94 52.8481 L1474.35 52.2405 Q1467.42 50.7821 1464.34 47.7845 Q1461.26 44.7463 1461.26 39.4801 Q1461.26 33.0797 1465.8 29.5959 Q1470.34 26.1121 1478.68 26.1121 Q1482.81 26.1121 1486.46 26.7198 Q1490.11 27.3274 1493.18 28.5427 Z" fill="#000000" fill-rule="evenodd" fill-opacity="1" /><path clip-path="url(#clip020)" d="M 0 0 M1525.79 12.096 L1576.96 12.096 L1576.96 18.9825 L1555.49 18.9825 L1555.49 72.576 L1547.26 72.576 L1547.26 18.9825 L1525.79 18.9825 L1525.79 12.096 Z" fill="#000000" fill-rule="evenodd" fill-opacity="1" /><path clip-path="url(#clip020)" d="M 0 0 M1581.98 27.2059 L1589.43 27.2059 L1589.43 72.576 L1581.98 72.576 L1581.98 27.2059 M1581.98 9.54393 L1589.43 9.54393 L1589.43 18.9825 L1581.98 18.9825 L1581.98 9.54393 Z" fill="#000000" fill-rule="evenodd" fill-opacity="1" /><path clip-path="url(#clip020)" d="M 0 0 M1640.35 35.9153 Q1643.15 30.8922 1647.04 28.5022 Q1650.93 26.1121 1656.19 26.1121 Q1663.28 26.1121 1667.13 31.0947 Q1670.98 36.0368 1670.98 45.1919 L1670.98 72.576 L1663.48 72.576 L1663.48 45.4349 Q1663.48 38.913 1661.17 35.7533 Q1658.87 32.5936 1654.13 32.5936 Q1648.33 32.5936 1644.97 36.4419 Q1641.61 40.2903 1641.61 46.9338 L1641.61 72.576 L1634.11 72.576 L1634.11 45.4349 Q1634.11 38.8725 1631.81 35.7533 Q1629.5 32.5936 1624.68 32.5936 Q1618.96 32.5936 1615.6 36.4824 Q1612.24 40.3308 1612.24 46.9338 L1612.24 72.576 L1604.75 72.576 L1604.75 27.2059 L1612.24 27.2059 L1612.24 34.2544 Q1614.79 30.082 1618.36 28.0971 Q1621.92 26.1121 1626.82 26.1121 Q1631.77 26.1121 1635.21 28.6237 Q1638.69 31.1352 1640.35 35.9153 Z" fill="#000000" fill-rule="evenodd" fill-opacity="1" /><path clip-path="url(#clip020)" d="M 0 0 M1724.65 48.0275 L1724.65 51.6733 L1690.38 51.6733 Q1690.87 59.3701 1695 63.421 Q1699.17 67.4314 1706.59 67.4314 Q1710.88 67.4314 1714.89 66.3781 Q1718.94 65.3249 1722.91 63.2184 L1722.91 70.267 Q1718.9 71.9684 1714.69 72.8596 Q1710.47 73.7508 1706.14 73.7508 Q1695.28 73.7508 1688.92 67.4314 Q1682.6 61.1119 1682.6 50.3365 Q1682.6 39.1965 1688.6 32.6746 Q1694.64 26.1121 1704.84 26.1121 Q1714 26.1121 1719.31 32.0264 Q1724.65 37.9003 1724.65 48.0275 M1717.2 45.84 Q1717.12 39.7232 1713.76 36.0774 Q1710.43 32.4315 1704.92 32.4315 Q1698.69 32.4315 1694.92 35.9558 Q1691.19 39.4801 1690.62 45.8805 L1717.2 45.84 Z" fill="#000000" fill-rule="evenodd" fill-opacity="1" /><path clip-path="url(#clip020)" d="M 0 0 M1788.13 17.6457 Q1779.22 17.6457 1773.95 24.2892 Q1768.73 30.9327 1768.73 42.3968 Q1768.73 53.8203 1773.95 60.4638 Q1779.22 67.1073 1788.13 67.1073 Q1797.04 67.1073 1802.23 60.4638 Q1807.45 53.8203 1807.45 42.3968 Q1807.45 30.9327 1802.23 24.2892 Q1797.04 17.6457 1788.13 17.6457 M1788.13 11.0023 Q1800.85 11.0023 1808.47 19.5497 Q1816.08 28.0566 1816.08 42.3968 Q1816.08 56.6965 1808.47 65.2439 Q1800.85 73.7508 1788.13 73.7508 Q1775.37 73.7508 1767.71 65.2439 Q1760.1 56.737 1760.1 42.3968 Q1760.1 28.0566 1767.71 19.5497 Q1775.37 11.0023 1788.13 11.0023 Z" fill="#000000" fill-rule="evenodd" fill-opacity="1" /><path clip-path="url(#clip020)" d="M 0 0 M1851.53 9.54393 L1851.53 15.7418 L1844.4 15.7418 Q1840.39 15.7418 1838.81 17.3622 Q1837.27 18.9825 1837.27 23.1955 L1837.27 27.2059 L1849.54 27.2059 L1849.54 32.9987 L1837.27 32.9987 L1837.27 72.576 L1829.77 72.576 L1829.77 32.9987 L1822.64 32.9987 L1822.64 27.2059 L1829.77 27.2059 L1829.77 24.0462 Q1829.77 16.471 1833.3 13.0277 Q1836.82 9.54393 1844.48 9.54393 L1851.53 9.54393 Z" fill="#000000" fill-rule="evenodd" fill-opacity="1" /><path clip-path="url(#clip020)" d="M 0 0 M1880.73 9.54393 L1880.73 15.7418 L1873.6 15.7418 Q1869.59 15.7418 1868.01 17.3622 Q1866.47 18.9825 1866.47 23.1955 L1866.47 27.2059 L1878.75 27.2059 L1878.75 32.9987 L1866.47 32.9987 L1866.47 72.576 L1858.98 72.576 L1858.98 32.9987 L1851.85 32.9987 L1851.85 27.2059 L1858.98 27.2059 L1858.98 24.0462 Q1858.98 16.471 1862.5 13.0277 Q1866.03 9.54393 1873.69 9.54393 L1880.73 9.54393 Z" fill="#000000" fill-rule="evenodd" fill-opacity="1" /><path clip-path="url(#clip020)" d="M 0 0 M1915.9 28.5427 L1915.9 35.5912 Q1912.74 33.9709 1909.33 33.1607 Q1905.93 32.3505 1902.28 32.3505 Q1896.73 32.3505 1893.94 34.0519 Q1891.19 35.7533 1891.19 39.156 Q1891.19 41.7486 1893.17 43.2475 Q1895.16 44.7058 1901.15 46.0426 L1903.7 46.6097 Q1911.64 48.3111 1914.96 51.4303 Q1918.33 54.509 1918.33 60.0587 Q1918.33 66.3781 1913.3 70.0644 Q1908.32 73.7508 1899.57 73.7508 Q1895.92 73.7508 1891.95 73.0216 Q1888.03 72.3329 1883.65 70.9151 L1883.65 63.2184 Q1887.78 65.3654 1891.79 66.4591 Q1895.8 67.5124 1899.73 67.5124 Q1905 67.5124 1907.83 65.73 Q1910.67 63.9071 1910.67 60.6258 Q1910.67 57.5877 1908.6 55.9673 Q1906.58 54.3469 1899.65 52.8481 L1897.06 52.2405 Q1890.13 50.7821 1887.05 47.7845 Q1883.97 44.7463 1883.97 39.4801 Q1883.97 33.0797 1888.51 29.5959 Q1893.05 26.1121 1901.39 26.1121 Q1905.53 26.1121 1909.17 26.7198 Q1912.82 27.3274 1915.9 28.5427 Z" fill="#000000" fill-rule="evenodd" fill-opacity="1" /><path clip-path="url(#clip020)" d="M 0 0 M1969 48.0275 L1969 51.6733 L1934.73 51.6733 Q1935.22 59.3701 1939.35 63.421 Q1943.52 67.4314 1950.94 67.4314 Q1955.23 67.4314 1959.24 66.3781 Q1963.29 65.3249 1967.26 63.2184 L1967.26 70.267 Q1963.25 71.9684 1959.04 72.8596 Q1954.82 73.7508 1950.49 73.7508 Q1939.63 73.7508 1933.27 67.4314 Q1926.95 61.1119 1926.95 50.3365 Q1926.95 39.1965 1932.95 32.6746 Q1938.99 26.1121 1949.19 26.1121 Q1958.35 26.1121 1963.66 32.0264 Q1969 37.9003 1969 48.0275 M1961.55 45.84 Q1961.47 39.7232 1958.11 36.0774 Q1954.78 32.4315 1949.28 32.4315 Q1943.04 32.4315 1939.27 35.9558 Q1935.54 39.4801 1934.98 45.8805 L1961.55 45.84 Z" fill="#000000" fill-rule="evenodd" fill-opacity="1" /><path clip-path="url(#clip020)" d="M 0 0 M1988.61 14.324 L1988.61 27.2059 L2003.96 27.2059 L2003.96 32.9987 L1988.61 32.9987 L1988.61 57.6282 Q1988.61 63.1779 1990.11 64.7578 Q1991.65 66.3376 1996.31 66.3376 L2003.96 66.3376 L2003.96 72.576 L1996.31 72.576 Q1987.68 72.576 1984.4 69.3758 Q1981.12 66.1351 1981.12 57.6282 L1981.12 32.9987 L1975.65 32.9987 L1975.65 27.2059 L1981.12 27.2059 L1981.12 14.324 L1988.61 14.324 Z" fill="#000000" fill-rule="evenodd" fill-opacity="1" /><polyline clip-path="url(#clip023)" style="stroke:#009af9; stroke-width:4; stroke-opacity:1; fill:none" points="
  284.272,160.369 286.282,1209.42 288.292,990.876 290.303,1383.99 292.313,970.954 294.323,1288.14 296.333,1087.96 298.344,1325.77 300.354,1261.16 302.364,1273.19 
  304.374,1218.22 306.385,1226.99 308.395,1208.7 310.405,1283.86 312.415,1192.6 314.426,1215.12 316.436,1233.35 318.446,1290.85 320.456,1296.62 322.467,1324.51 
  324.477,1289.3 326.487,1287.26 328.497,1283.15 330.508,1345.59 332.518,1323.4 334.528,1220.12 336.538,1109.9 338.549,1205.77 340.559,1324.22 342.569,1210.1 
  344.579,1208.87 346.59,988.529 348.6,1238.26 350.61,1235.87 352.62,1300.23 354.631,1088.02 356.641,1350.89 358.651,1180.66 360.661,1257.19 362.672,1200.96 
  364.682,1187.51 366.692,1080.37 368.702,1254.02 370.713,1175.86 372.723,1248.25 374.733,1178.27 376.743,1251.41 378.754,1211.99 380.764,1309.94 382.774,1293.87 
  384.784,1250.4 386.795,1269.88 388.805,1170.59 390.815,1274.42 392.825,1259.41 394.836,1262.81 396.846,1152.84 398.856,1243.9 400.866,1281.8 402.877,1280.84 
  404.887,1253.18 406.897,1316.13 408.907,1304.93 410.917,1375.86 412.928,1211.29 414.938,1343.93 416.948,973.037 418.958,1218.63 420.969,1234.92 422.979,1340.17 
  424.989,1215.42 426.999,1242.99 429.01,1161.62 431.02,1267.72 433.03,1265.87 435.04,1298.72 437.051,1206.68 439.061,1270.07 441.071,1132.64 443.081,1314.65 
  445.092,1219.29 447.102,1242.47 449.112,1092.85 451.122,1212.28 453.133,1160.03 455.143,1234.15 457.153,1178.89 459.163,1211.12 461.174,1251.43 463.184,1264.65 
  465.194,1293.77 467.204,1241.81 469.215,1303.61 471.225,1145.87 473.235,1354.04 475.245,1277.54 477.256,1239.32 479.266,897.213 481.276,1087.44 483.286,998.379 
  485.297,1131.76 487.307,1343.22 489.317,1293.22 491.327,1241.76 493.338,1160.98 495.348,1330.64 497.358,1325.82 499.368,1268.56 501.379,1246.95 503.389,1140.89 
  505.399,1275.78 507.409,1122.93 509.42,1281.46 511.43,1171.96 513.44,1272.85 515.45,1253.9 517.461,1284.2 519.471,1291.86 521.481,1283.23 523.491,1279.16 
  525.502,1305.45 527.512,1299.07 529.522,1224.39 531.532,1192.81 533.543,1199.59 535.553,1172.52 537.563,1172.72 539.573,1178.98 541.584,1071.76 543.594,1206.24 
  545.604,1136.86 547.614,1207.89 549.625,1242.16 551.635,1343.01 553.645,1149.07 555.655,1237.89 557.666,1263.4 559.676,1157.32 561.686,1204.17 563.696,1248.54 
  565.707,1165.52 567.717,1139.66 569.727,1211.98 571.737,1265.76 573.748,1306.15 575.758,1264.21 577.768,1301.84 579.778,1311.75 581.788,1294.65 583.799,1234.06 
  585.809,1260.56 587.819,1265.06 589.829,1258.25 591.84,1224.9 593.85,1251.07 595.86,1251.8 597.87,1241.27 599.881,1247.99 601.891,1312.46 603.901,1246.73 
  605.911,1345.62 607.922,1259.1 609.932,1342.21 611.942,879.923 613.952,1251.8 615.963,1057.97 617.973,1148.96 619.983,1115.64 621.993,1269.21 624.004,1092.03 
  626.014,1269.43 628.024,1112.12 630.034,1231.45 632.045,1226.88 634.055,1319.03 636.065,998.584 638.075,1286.02 640.086,1154.35 642.096,1315.83 644.106,1233.08 
  646.116,1243.52 648.127,1157.17 650.137,1207.48 652.147,1246 654.157,1310.79 656.168,1270.05 658.178,1259.24 660.188,1276.43 662.198,1329.9 664.209,1266.6 
  666.219,1332.49 668.229,1289.07 670.239,1328.84 672.25,1137.99 674.26,1302.9 676.27,1171.53 678.28,1272.2 680.291,959.561 682.301,1329.02 684.311,1347.91 
  686.321,1325.12 688.332,1120.89 690.342,1302.56 692.352,1248.06 694.362,1234.49 696.373,1349.13 698.383,1119.36 700.393,1141.21 702.403,1085.44 704.414,1214.74 
  706.424,1231.52 708.434,1239.31 710.444,1144.76 712.455,1210.21 714.465,1302.82 716.475,1300.78 718.485,1254.23 720.496,1267.74 722.506,1265.93 724.516,1282.74 
  726.526,1270.3 728.537,1277.24 730.547,1209.87 732.557,1210.2 734.567,1189.51 736.578,1252.73 738.588,1281.82 740.598,1124.47 742.608,1252.51 744.619,1323.89 
  746.629,1363.74 748.639,1345.72 750.649,1230.52 752.66,1364.99 754.67,1229.22 756.68,1274.87 758.69,1291.31 760.7,1311.2 762.711,1114.1 764.721,1062.72 
  766.731,1254.73 768.741,1140.84 770.752,1296.75 772.762,1237.82 774.772,1334.61 776.782,1246.05 778.793,1277.83 780.803,1166.42 782.813,1242.97 784.823,1185.69 
  786.834,1277.53 788.844,1225.18 790.854,1184.51 792.864,1135.39 794.875,1238.33 796.885,1280.58 798.895,1234.72 800.905,1276.12 802.916,1303.27 804.926,1260.89 
  806.936,1271.37 808.946,1258.9 810.957,1228.85 812.967,1080.88 814.977,1302.76 816.987,1202.91 818.998,1332.02 821.008,1188.19 823.018,1300.89 825.028,1269.99 
  827.039,1336.74 829.049,1307.46 831.059,1193.23 833.069,1253.56 835.08,1162.99 837.09,1240.97 839.1,1317.66 841.11,1236.67 843.121,1221.49 845.131,1127.83 
  847.141,1275.27 849.151,1222.47 851.162,1271.46 853.172,1217.36 855.182,1267.8 857.192,1260.01 859.203,1265.97 861.213,1299.7 863.223,1263.68 865.233,1272.77 
  867.244,1183.86 869.254,1177.64 871.264,1249.52 873.274,1168.47 875.285,1168.08 877.295,1243.57 879.305,1326.91 881.315,1208.94 883.326,1287.42 885.336,1247.49 
  887.346,1239.62 889.356,1266.08 891.367,1337.59 893.377,1191.83 895.387,1177.38 897.397,1115.17 899.408,1115.78 901.418,1267.62 903.428,1186.74 905.438,1260.7 
  907.449,1221.69 909.459,1277.73 911.469,1169.38 913.479,1280.65 915.49,1304.07 917.5,1304.98 919.51,1236.53 921.52,1261.07 923.531,1282.22 925.541,1262.26 
  927.551,1257.59 929.561,1259.08 931.571,1239.44 933.582,1252.06 935.592,1200.75 937.602,1324.72 939.612,1244.14 941.623,1350.35 943.633,1254.37 945.643,1335.89 
  947.653,1258.84 949.664,1295.36 951.674,1175.82 953.684,1388.51 955.694,1094.75 957.705,1261.72 959.715,1120.72 961.725,1247.74 963.735,732.803 965.746,1247.07 
  967.756,1184.99 969.766,1336.48 971.776,1205.25 973.787,1211.03 975.797,1245.45 977.807,1256.28 979.817,1229.23 981.828,1256.42 983.838,1251.42 985.848,1251.5 
  987.858,1199.98 989.869,1277.32 991.879,1198.24 993.889,1300.19 995.899,1277.32 997.91,1316.37 999.92,1243.12 1001.93,1338.26 1003.94,1312.23 1005.95,1295.02 
  1007.96,1254.52 1009.97,1304.14 1011.98,1317.14 1013.99,1208.7 1016,1246.12 1018.01,1220.5 1020.02,1367.55 1022.03,1241.1 1024.04,1356.57 1026.05,1095.37 
  1028.06,1342.88 1030.07,1297.9 1032.08,1195.46 1034.09,1216.73 1036.1,1241.9 1038.11,1252.58 1040.12,1170.15 1042.14,1232.15 1044.15,1140.75 1046.16,1225.62 
  1048.17,1243.85 1050.18,1242.45 1052.19,1264.15 1054.2,1223.55 1056.21,1315.61 1058.22,1277.65 1060.23,1304.08 1062.24,1254.76 1064.25,1215.39 1066.26,1268.25 
  1068.27,1050.86 1070.28,1310.57 1072.29,1254.5 1074.3,1340.77 1076.31,1094.75 1078.32,1337.21 1080.33,1328.92 1082.34,1367.03 1084.35,1229.35 1086.36,1317.13 
  1088.37,1317.74 1090.38,1313.85 1092.39,1116.79 1094.4,1252.49 1096.41,1001.63 1098.42,1215.13 1100.43,1242.45 1102.44,1360.87 1104.45,1204.38 1106.46,1180.07 
  1108.47,1199.72 1110.48,1336.26 1112.49,1271.58 1114.5,1278.22 1116.51,1251.67 1118.52,1240.88 1120.53,1189.3 1122.54,1255.99 1124.56,1270.83 1126.57,1221.63 
  1128.58,1190.05 1130.59,1157.26 1132.6,1256.58 1134.61,1269.95 1136.62,1288.35 1138.63,1191.75 1140.64,1330.71 1142.65,1297.32 1144.66,1279.61 1146.67,1260.64 
  1148.68,1311.56 1150.69,1215.5 1152.7,1292.51 1154.71,1316.4 1156.72,1256 1158.73,1076.68 1160.74,1154.23 1162.75,1294.85 1164.76,1264.11 1166.77,1331.69 
  1168.78,1208.75 1170.79,1327.57 1172.8,1237.98 1174.81,1305.08 1176.82,1228.45 1178.83,1230.51 1180.84,1218.54 1182.85,1191.87 1184.86,1264.76 1186.87,1178.22 
  1188.88,1260.42 1190.89,1215.15 1192.9,1257.14 1194.91,1274.9 1196.92,1228.38 1198.93,1310.22 1200.94,1165.13 1202.95,1339.46 1204.97,1205.82 1206.98,1349.35 
  1208.99,1123.49 1211,1289.5 1213.01,1127.87 1215.02,1301.35 1217.03,1213.35 1219.04,1242.14 1221.05,1100.69 1223.06,1336.93 1225.07,1272.78 1227.08,1298.84 
  1229.09,1281.62 1231.1,1227.77 1233.11,1244.57 1235.12,1309.35 1237.13,1245.59 1239.14,1116.75 1241.15,1172.98 1243.16,1275.58 1245.17,1239.48 1247.18,1230.34 
  1249.19,1182.37 1251.2,1280.97 1253.21,1281.7 1255.22,1308.97 1257.23,1272.71 1259.24,1287.25 1261.25,1229.07 1263.26,1182.97 1265.27,1232.69 1267.28,1288.97 
  1269.29,1258.36 1271.3,1206.57 1273.31,1256.07 1275.32,1268.76 1277.33,1306.24 1279.34,1309.4 1281.35,1353.93 1283.36,1195.61 1285.37,1320.71 1287.39,1164.68 
  1289.4,1364.83 1291.41,828.471 1293.42,1187.83 1295.43,1023.85 1297.44,1319.38 1299.45,1052.94 1301.46,1163.78 1303.47,1152.68 1305.48,1317.57 1307.49,1191.52 
  1309.5,1248.85 1311.51,1272.43 1313.52,1275.04 1315.53,1193.33 1317.54,1271.29 1319.55,1217.52 1321.56,1287.13 1323.57,1267.18 1325.58,1246.78 1327.59,1228.66 
  1329.6,1246.31 1331.61,1278.05 1333.62,1276.11 1335.63,1324.07 1337.64,1271.43 1339.65,1251.91 1341.66,1318.86 1343.67,1248.76 1345.68,1230.76 1347.69,1241.4 
  1349.7,1234.52 1351.71,1117.52 1353.72,1151.57 1355.73,1283.56 1357.74,1336.11 1359.75,1190.85 1361.76,1261.62 1363.77,1374.06 1365.78,1294.59 1367.8,1282 
  1369.81,1209.3 1371.82,1292.12 1373.83,1222.74 1375.84,1285.82 1377.85,1116.26 1379.86,1230.44 1381.87,1174.23 1383.88,1277.92 1385.89,1275.37 1387.9,1255.25 
  1389.91,1230.9 1391.92,1221.25 1393.93,1298.31 1395.94,1222.72 1397.95,1285.65 1399.96,1211.65 1401.97,1233.72 1403.98,1155.17 1405.99,1216.03 1408,1256.48 
  1410.01,1214.07 1412.02,1273.31 1414.03,1053.23 1416.04,1313.65 1418.05,1300.38 1420.06,1231.06 1422.07,1274.66 1424.08,1373.41 1426.09,1373.74 1428.1,1296.71 
  1430.11,1296.73 1432.12,1275.22 1434.13,1304.39 1436.14,1250.13 1438.15,1317.61 1440.16,1230.3 1442.17,1282.64 1444.18,1226.6 1446.19,1328.85 1448.21,1212.57 
  1450.22,1288.13 1452.23,1251.28 1454.24,1333.58 1456.25,1235.07 1458.26,1219.34 1460.27,1171.06 1462.28,1237.83 1464.29,1159.87 1466.3,1227.25 1468.31,1219.66 
  1470.32,1243.71 1472.33,1116.55 1474.34,1290.73 1476.35,1275.2 1478.36,1296.51 1480.37,1227.02 1482.38,1277.43 1484.39,1128.29 1486.4,1239.86 1488.41,1160.46 
  1490.42,1299.74 1492.43,1043.3 1494.44,1227.1 1496.45,1119.99 1498.46,1376.78 1500.47,1157.59 1502.48,1276.35 1504.49,1277.03 1506.5,1348.27 1508.51,1276.52 
  1510.52,1178.36 1512.53,1260.39 1514.54,1201.63 1516.55,1303.21 1518.56,1246.85 1520.57,1248.85 1522.58,1229.39 1524.59,1245.37 1526.6,1246.75 1528.61,1270.76 
  1530.63,1307.76 1532.64,1248.07 1534.65,1217.76 1536.66,1264.12 1538.67,1225.6 1540.68,1268.25 1542.69,1189.2 1544.7,1191.05 1546.71,944.884 1548.72,983.856 
  1550.73,1221.9 1552.74,1218.45 1554.75,1176.72 1556.76,1179.81 1558.77,1307.64 1560.78,1272.72 1562.79,1271.18 1564.8,1194.54 1566.81,1234.84 1568.82,1260.14 
  1570.83,1197.2 1572.84,1167.93 1574.85,1177.63 1576.86,1182.25 1578.87,1181.39 1580.88,1329.7 1582.89,1237.63 1584.9,1276.95 1586.91,1231.35 1588.92,1265.53 
  1590.93,1241.42 1592.94,1244.87 1594.95,1305.58 1596.96,1180.17 1598.97,1239.29 1600.98,1125.29 1602.99,1316.76 1605,1175.44 1607.01,1331.54 1609.02,1128.53 
  1611.04,1327.12 1613.05,1248.48 1615.06,1254.63 1617.07,1323.68 1619.08,1270.81 1621.09,1362.95 1623.1,1309.21 1625.11,1319.24 1627.12,1150.88 1629.13,1224.52 
  1631.14,1278.8 1633.15,1297.94 1635.16,1208.42 1637.17,1243.92 1639.18,1291.45 1641.19,1274.98 1643.2,1183.39 1645.21,1248.69 1647.22,1256.67 1649.23,1252.72 
  1651.24,1282.68 1653.25,1211.73 1655.26,1274.78 1657.27,1173.95 1659.28,1196.65 1661.29,1189.01 1663.3,1283.08 1665.31,1225.93 1667.32,1176.08 1669.33,1273.39 
  1671.34,1229.02 1673.35,1322.35 1675.36,1282.6 1677.37,1260.46 1679.38,1098.34 1681.39,1262.26 1683.4,1215.76 1685.41,1371.33 1687.42,1194.31 1689.43,1269.59 
  1691.44,1209.63 1693.46,1360.77 1695.47,1195.69 1697.48,1285.92 1699.49,1350.61 1701.5,1332.31 1703.51,1282.2 1705.52,1182.54 1707.53,1309 1709.54,1267.48 
  1711.55,1218.25 1713.56,1274.97 1715.57,1280.81 1717.58,1271.64 1719.59,1200.68 1721.6,1219.36 1723.61,1293.5 1725.62,1295.43 1727.63,1265.48 1729.64,1205.03 
  1731.65,1243.03 1733.66,1201.96 1735.67,1269.52 1737.68,1246.36 1739.69,1241.78 1741.7,1034.67 1743.71,1056.07 1745.72,1139.92 1747.73,956.829 1749.74,1222.48 
  1751.75,1326.78 1753.76,1232.21 1755.77,1161.31 1757.78,1166.84 1759.79,1390.25 1761.8,1268.01 1763.81,1342.57 1765.82,1019.54 1767.83,1350.11 1769.84,1201.01 
  1771.85,1263.08 1773.87,1192.59 1775.88,1297.88 1777.89,1277.44 1779.9,1323.6 1781.91,1332.58 1783.92,1285.71 1785.93,1281.6 1787.94,1268.1 1789.95,1326.58 
  1791.96,1205.92 1793.97,1280.27 1795.98,1195.93 1797.99,1265.77 1800,1137.63 1802.01,1247.37 1804.02,1263.33 1806.03,1204.77 1808.04,1226.45 1810.05,1123.08 
  1812.06,1288.54 1814.07,1288.96 1816.08,1252.84 1818.09,1168.13 1820.1,1260.21 1822.11,1317.07 1824.12,1084.85 1826.13,1263.66 1828.14,1060.78 1830.15,1311.08 
  1832.16,1229.37 1834.17,1369.4 1836.18,1208.18 1838.19,1305.43 1840.2,1223.4 1842.21,1350.74 1844.22,1253.98 1846.23,1304.95 1848.24,1172.48 1850.25,1326.59 
  1852.26,1216.89 1854.27,1256.33 1856.29,1183.3 1858.3,1280.6 1860.31,1186.3 1862.32,1249.38 1864.33,1268.16 1866.34,1266.3 1868.35,1274.7 1870.36,1280.73 
  1872.37,1273.09 1874.38,1241.21 1876.39,1076.08 1878.4,1233.56 1880.41,1109.87 1882.42,1331.02 1884.43,1209.35 1886.44,1277.69 1888.45,1120.96 1890.46,1220.32 
  1892.47,1258.12 1894.48,1301.33 1896.49,1298.68 1898.5,1077.91 1900.51,1168.98 1902.52,1224.57 1904.53,1290 1906.54,1175.16 1908.55,1317.35 1910.56,1155.47 
  1912.57,1288.58 1914.58,1221 1916.59,1280.32 1918.6,1154.73 1920.61,1238.8 1922.62,1244.68 1924.63,1278.12 1926.64,1229.73 1928.65,1169.46 1930.66,1219.16 
  1932.67,1283.1 1934.68,1273.62 1936.7,1261.94 1938.71,1221.45 1940.72,1202.76 1942.73,1062.32 1944.74,1283.56 1946.75,1336.87 1948.76,1332.78 1950.77,1245.62 
  1952.78,1209.82 1954.79,1345.41 1956.8,1312.83 1958.81,1365.03 1960.82,1164.61 1962.83,1261.83 1964.84,1183.42 1966.85,1219.01 1968.86,1324.46 1970.87,1205.12 
  1972.88,1217.94 1974.89,1217.65 1976.9,1328.37 1978.91,1253.53 1980.92,1167.76 1982.93,1282.39 1984.94,1276.17 1986.95,1281.25 1988.96,1180.19 1990.97,1264.42 
  1992.98,1197.28 1994.99,1250.34 1997,1249.58 1999.01,1275.19 2001.02,1231.51 2003.03,1297.91 2005.04,1147.88 2007.05,1299.61 2009.06,1264.36 2011.07,1298.69 
  2013.08,1188.97 2015.09,1313.79 2017.1,1237.93 2019.12,1272.26 2021.13,1288.55 2023.14,1121.25 2025.15,1189.45 2027.16,1278.13 2029.17,1190.41 2031.18,1273.42 
  2033.19,1225.91 2035.2,1352.9 2037.21,1348.97 2039.22,1340.53 2041.23,1267.06 2043.24,1287.7 2045.25,1310.56 2047.26,1273.54 2049.27,1246.54 2051.28,1258.7 
  2053.29,1253.28 2055.3,1248.99 2057.31,1222.86 2059.32,1286.09 2061.33,1239.87 2063.34,1283.96 2065.35,1296.06 2067.36,1288.91 2069.37,1265.23 2071.38,1182.99 
  2073.39,1250.94 2075.4,996.487 2077.41,1250.81 2079.42,1209.83 2081.43,1231.81 2083.44,1096.07 2085.45,1084.86 2087.46,1208.19 2089.47,1294.97 2091.48,1341.11 
  2093.49,914.787 2095.5,1248.26 2097.51,1152.5 2099.53,1122 2101.54,1233.05 2103.55,1350.23 2105.56,1264.7 2107.57,1214.31 2109.58,1266.48 2111.59,1274.01 
  2113.6,1285.47 2115.61,1285.39 2117.62,1296.5 2119.63,1300.77 2121.64,1268.56 2123.65,1269.37 2125.66,1294.47 2127.67,1270.62 2129.68,1257.09 2131.69,1331.99 
  2133.7,1286.15 2135.71,1290.72 2137.72,1147.01 2139.73,1261.94 2141.74,1275.21 2143.75,1266.95 2145.76,1171.62 2147.77,1279.43 2149.78,1252.87 2151.79,1150.41 
  2153.8,1280.23 2155.81,1191.35 2157.82,1159.38 2159.83,1169.95 2161.84,1042.13 2163.85,1215.08 2165.86,1298.06 2167.87,1244.26 2169.88,1244.79 2171.89,1245.71 
  2173.9,1211.28 2175.91,1147.61 2177.92,1348.08 2179.93,1225.23 2181.95,1266.09 2183.96,1210.19 2185.97,1292.32 2187.98,1204.95 2189.99,1249.25 2192,1243.03 
  2194.01,1287.95 2196.02,1308.14 2198.03,1296.37 2200.04,1260.91 2202.05,1309.53 2204.06,1248.89 2206.07,1287.01 2208.08,1269.72 2210.09,1348.65 2212.1,1242.4 
  2214.11,1206.06 2216.12,1253.12 2218.13,1290.77 2220.14,1230.8 2222.15,1165.99 2224.16,1191.07 2226.17,1034.36 2228.18,1032.74 2230.19,1271.08 2232.2,1270.29 
  2234.21,1272.37 2236.22,1220.17 2238.23,1236.26 2240.24,1290.75 2242.25,1248.23 2244.26,1199.01 2246.27,1210.74 2248.28,1247.3 2250.29,1190.91 2252.3,1201.34 
  2254.31,1237.27 2256.32,1195.19 2258.33,1237.74 2260.34,1298.85 2262.36,1252.49 2264.37,1267.58 2266.38,1266.04 2268.39,1247.7 2270.4,1239.09 2272.41,1216.24 
  2274.42,1287.56 2276.43,1169.06 2278.44,1310.94 2280.45,1122.51 2282.46,1353.03 2284.47,1204.51 2286.48,1356.88 2288.49,1214.27 2290.5,1303.83 2292.51,1228.12 
  
  "/>
</svg>
