<?xml version="1.0" encoding="utf-8"?>
<svg xmlns="http://www.w3.org/2000/svg" xmlns:xlink="http://www.w3.org/1999/xlink" width="600" height="400" viewBox="0 0 2400 1600">
<defs>
  <clipPath id="clip740">
    <rect x="0" y="0" width="2400" height="1600"/>
  </clipPath>
</defs>
<path clip-path="url(#clip740)" d="
M0 1600 L2400 1600 L2400 0 L0 0  Z
  " fill="#ffffff" fill-rule="evenodd" fill-opacity="1"/>
<defs>
  <clipPath id="clip741">
    <rect x="480" y="0" width="1681" height="1600"/>
  </clipPath>
</defs>
<defs>
  <clipPath id="clip742">
    <rect x="311" y="123" width="2042" height="1301"/>
  </clipPath>
</defs>
<path clip-path="url(#clip740)" d="
M255.784 1427.15 L2352.76 1427.15 L2352.76 123.472 L255.784 123.472  Z
  " fill="#ffffff" fill-rule="evenodd" fill-opacity="1"/>
<defs>
  <clipPath id="clip743">
    <rect x="255" y="123" width="2098" height="1305"/>
  </clipPath>
</defs>
<polyline clip-path="url(#clip743)" style="stroke:#000000; stroke-width:2; stroke-opacity:0.1; fill:none" points="
  315.132,1427.15 315.132,123.472 
  "/>
<polyline clip-path="url(#clip743)" style="stroke:#000000; stroke-width:2; stroke-opacity:0.1; fill:none" points="
  809.701,1427.15 809.701,123.472 
  "/>
<polyline clip-path="url(#clip743)" style="stroke:#000000; stroke-width:2; stroke-opacity:0.1; fill:none" points="
  1304.27,1427.15 1304.27,123.472 
  "/>
<polyline clip-path="url(#clip743)" style="stroke:#000000; stroke-width:2; stroke-opacity:0.1; fill:none" points="
  1798.84,1427.15 1798.84,123.472 
  "/>
<polyline clip-path="url(#clip743)" style="stroke:#000000; stroke-width:2; stroke-opacity:0.1; fill:none" points="
  2293.41,1427.15 2293.41,123.472 
  "/>
<polyline clip-path="url(#clip740)" style="stroke:#000000; stroke-width:4; stroke-opacity:1; fill:none" points="
  255.784,1427.15 2352.76,1427.15 
  "/>
<polyline clip-path="url(#clip740)" style="stroke:#000000; stroke-width:4; stroke-opacity:1; fill:none" points="
  315.132,1427.15 315.132,1411.5 
  "/>
<polyline clip-path="url(#clip740)" style="stroke:#000000; stroke-width:4; stroke-opacity:1; fill:none" points="
  809.701,1427.15 809.701,1411.5 
  "/>
<polyline clip-path="url(#clip740)" style="stroke:#000000; stroke-width:4; stroke-opacity:1; fill:none" points="
  1304.27,1427.15 1304.27,1411.5 
  "/>
<polyline clip-path="url(#clip740)" style="stroke:#000000; stroke-width:4; stroke-opacity:1; fill:none" points="
  1798.84,1427.15 1798.84,1411.5 
  "/>
<polyline clip-path="url(#clip740)" style="stroke:#000000; stroke-width:4; stroke-opacity:1; fill:none" points="
  2293.41,1427.15 2293.41,1411.5 
  "/>
<path clip-path="url(#clip740)" d="M 0 0 M277.436 1456.34 Q273.825 1456.34 271.996 1459.9 Q270.19 1463.44 270.19 1470.57 Q270.19 1477.68 271.996 1481.25 Q273.825 1484.79 277.436 1484.79 Q281.07 1484.79 282.875 1481.25 Q284.704 1477.68 284.704 1470.57 Q284.704 1463.44 282.875 1459.9 Q281.07 1456.34 277.436 1456.34 M277.436 1452.63 Q283.246 1452.63 286.301 1457.24 Q289.38 1461.82 289.38 1470.57 Q289.38 1479.3 286.301 1483.91 Q283.246 1488.49 277.436 1488.49 Q271.625 1488.49 268.547 1483.91 Q265.491 1479.3 265.491 1470.57 Q265.491 1461.82 268.547 1457.24 Q271.625 1452.63 277.436 1452.63 Z" fill="#000000" fill-rule="evenodd" fill-opacity="1" /><path clip-path="url(#clip740)" d="M 0 0 M297.598 1481.94 L302.482 1481.94 L302.482 1487.82 L297.598 1487.82 L297.598 1481.94 Z" fill="#000000" fill-rule="evenodd" fill-opacity="1" /><path clip-path="url(#clip740)" d="M 0 0 M322.667 1456.34 Q319.056 1456.34 317.227 1459.9 Q315.422 1463.44 315.422 1470.57 Q315.422 1477.68 317.227 1481.25 Q319.056 1484.79 322.667 1484.79 Q326.301 1484.79 328.107 1481.25 Q329.935 1477.68 329.935 1470.57 Q329.935 1463.44 328.107 1459.9 Q326.301 1456.34 322.667 1456.34 M322.667 1452.63 Q328.477 1452.63 331.533 1457.24 Q334.611 1461.82 334.611 1470.57 Q334.611 1479.3 331.533 1483.91 Q328.477 1488.49 322.667 1488.49 Q316.857 1488.49 313.778 1483.91 Q310.722 1479.3 310.722 1470.57 Q310.722 1461.82 313.778 1457.24 Q316.857 1452.63 322.667 1452.63 Z" fill="#000000" fill-rule="evenodd" fill-opacity="1" /><path clip-path="url(#clip740)" d="M 0 0 M352.829 1456.34 Q349.218 1456.34 347.389 1459.9 Q345.583 1463.44 345.583 1470.57 Q345.583 1477.68 347.389 1481.25 Q349.218 1484.79 352.829 1484.79 Q356.463 1484.79 358.269 1481.25 Q360.097 1477.68 360.097 1470.57 Q360.097 1463.44 358.269 1459.9 Q356.463 1456.34 352.829 1456.34 M352.829 1452.63 Q358.639 1452.63 361.694 1457.24 Q364.773 1461.82 364.773 1470.57 Q364.773 1479.3 361.694 1483.91 Q358.639 1488.49 352.829 1488.49 Q347.019 1488.49 343.94 1483.91 Q340.884 1479.3 340.884 1470.57 Q340.884 1461.82 343.94 1457.24 Q347.019 1452.63 352.829 1452.63 Z" fill="#000000" fill-rule="evenodd" fill-opacity="1" /><path clip-path="url(#clip740)" d="M 0 0 M772.502 1456.34 Q768.891 1456.34 767.062 1459.9 Q765.257 1463.44 765.257 1470.57 Q765.257 1477.68 767.062 1481.25 Q768.891 1484.79 772.502 1484.79 Q776.136 1484.79 777.942 1481.25 Q779.771 1477.68 779.771 1470.57 Q779.771 1463.44 777.942 1459.9 Q776.136 1456.34 772.502 1456.34 M772.502 1452.63 Q778.312 1452.63 781.368 1457.24 Q784.447 1461.82 784.447 1470.57 Q784.447 1479.3 781.368 1483.91 Q778.312 1488.49 772.502 1488.49 Q766.692 1488.49 763.613 1483.91 Q760.558 1479.3 760.558 1470.57 Q760.558 1461.82 763.613 1457.24 Q766.692 1452.63 772.502 1452.63 Z" fill="#000000" fill-rule="evenodd" fill-opacity="1" /><path clip-path="url(#clip740)" d="M 0 0 M792.664 1481.94 L797.548 1481.94 L797.548 1487.82 L792.664 1487.82 L792.664 1481.94 Z" fill="#000000" fill-rule="evenodd" fill-opacity="1" /><path clip-path="url(#clip740)" d="M 0 0 M811.761 1483.88 L828.081 1483.88 L828.081 1487.82 L806.136 1487.82 L806.136 1483.88 Q808.798 1481.13 813.382 1476.5 Q817.988 1471.85 819.169 1470.51 Q821.414 1467.98 822.294 1466.25 Q823.196 1464.49 823.196 1462.8 Q823.196 1460.04 821.252 1458.31 Q819.331 1456.57 816.229 1456.57 Q814.03 1456.57 811.576 1457.33 Q809.145 1458.1 806.368 1459.65 L806.368 1454.93 Q809.192 1453.79 811.645 1453.21 Q814.099 1452.63 816.136 1452.63 Q821.507 1452.63 824.701 1455.32 Q827.895 1458.01 827.895 1462.5 Q827.895 1464.63 827.085 1466.55 Q826.298 1468.44 824.192 1471.04 Q823.613 1471.71 820.511 1474.93 Q817.409 1478.12 811.761 1483.88 Z" fill="#000000" fill-rule="evenodd" fill-opacity="1" /><path clip-path="url(#clip740)" d="M 0 0 M837.942 1453.26 L856.298 1453.26 L856.298 1457.19 L842.224 1457.19 L842.224 1465.67 Q843.243 1465.32 844.261 1465.16 Q845.28 1464.97 846.298 1464.97 Q852.085 1464.97 855.465 1468.14 Q858.844 1471.32 858.844 1476.73 Q858.844 1482.31 855.372 1485.41 Q851.9 1488.49 845.58 1488.49 Q843.405 1488.49 841.136 1488.12 Q838.891 1487.75 836.483 1487.01 L836.483 1482.31 Q838.567 1483.44 840.789 1484 Q843.011 1484.56 845.488 1484.56 Q849.492 1484.56 851.83 1482.45 Q854.168 1480.34 854.168 1476.73 Q854.168 1473.12 851.83 1471.01 Q849.492 1468.91 845.488 1468.91 Q843.613 1468.91 841.738 1469.32 Q839.886 1469.74 837.942 1470.62 L837.942 1453.26 Z" fill="#000000" fill-rule="evenodd" fill-opacity="1" /><path clip-path="url(#clip740)" d="M 0 0 M1266.57 1456.34 Q1262.96 1456.34 1261.13 1459.9 Q1259.33 1463.44 1259.33 1470.57 Q1259.33 1477.68 1261.13 1481.25 Q1262.96 1484.79 1266.57 1484.79 Q1270.21 1484.79 1272.01 1481.25 Q1273.84 1477.68 1273.84 1470.57 Q1273.84 1463.44 1272.01 1459.9 Q1270.21 1456.34 1266.57 1456.34 M1266.57 1452.63 Q1272.38 1452.63 1275.44 1457.24 Q1278.52 1461.82 1278.52 1470.57 Q1278.52 1479.3 1275.44 1483.91 Q1272.38 1488.49 1266.57 1488.49 Q1260.76 1488.49 1257.68 1483.91 Q1254.63 1479.3 1254.63 1470.57 Q1254.63 1461.82 1257.68 1457.24 Q1260.76 1452.63 1266.57 1452.63 Z" fill="#000000" fill-rule="evenodd" fill-opacity="1" /><path clip-path="url(#clip740)" d="M 0 0 M1286.74 1481.94 L1291.62 1481.94 L1291.62 1487.82 L1286.74 1487.82 L1286.74 1481.94 Z" fill="#000000" fill-rule="evenodd" fill-opacity="1" /><path clip-path="url(#clip740)" d="M 0 0 M1301.85 1453.26 L1320.21 1453.26 L1320.21 1457.19 L1306.13 1457.19 L1306.13 1465.67 Q1307.15 1465.32 1308.17 1465.16 Q1309.19 1464.97 1310.21 1464.97 Q1315.99 1464.97 1319.37 1468.14 Q1322.75 1471.32 1322.75 1476.73 Q1322.75 1482.31 1319.28 1485.41 Q1315.81 1488.49 1309.49 1488.49 Q1307.31 1488.49 1305.05 1488.12 Q1302.8 1487.75 1300.39 1487.01 L1300.39 1482.31 Q1302.48 1483.44 1304.7 1484 Q1306.92 1484.56 1309.4 1484.56 Q1313.4 1484.56 1315.74 1482.45 Q1318.08 1480.34 1318.08 1476.73 Q1318.08 1473.12 1315.74 1471.01 Q1313.4 1468.91 1309.4 1468.91 Q1307.52 1468.91 1305.65 1469.32 Q1303.8 1469.74 1301.85 1470.62 L1301.85 1453.26 Z" fill="#000000" fill-rule="evenodd" fill-opacity="1" /><path clip-path="url(#clip740)" d="M 0 0 M1341.97 1456.34 Q1338.36 1456.34 1336.53 1459.9 Q1334.72 1463.44 1334.72 1470.57 Q1334.72 1477.68 1336.53 1481.25 Q1338.36 1484.79 1341.97 1484.79 Q1345.6 1484.79 1347.41 1481.25 Q1349.23 1477.68 1349.23 1470.57 Q1349.23 1463.44 1347.41 1459.9 Q1345.6 1456.34 1341.97 1456.34 M1341.97 1452.63 Q1347.78 1452.63 1350.83 1457.24 Q1353.91 1461.82 1353.91 1470.57 Q1353.91 1479.3 1350.83 1483.91 Q1347.78 1488.49 1341.97 1488.49 Q1336.16 1488.49 1333.08 1483.91 Q1330.02 1479.3 1330.02 1470.57 Q1330.02 1461.82 1333.08 1457.24 Q1336.16 1452.63 1341.97 1452.63 Z" fill="#000000" fill-rule="evenodd" fill-opacity="1" /><path clip-path="url(#clip740)" d="M 0 0 M1761.64 1456.34 Q1758.03 1456.34 1756.2 1459.9 Q1754.39 1463.44 1754.39 1470.57 Q1754.39 1477.68 1756.2 1481.25 Q1758.03 1484.79 1761.64 1484.79 Q1765.27 1484.79 1767.08 1481.25 Q1768.91 1477.68 1768.91 1470.57 Q1768.91 1463.44 1767.08 1459.9 Q1765.27 1456.34 1761.64 1456.34 M1761.64 1452.63 Q1767.45 1452.63 1770.51 1457.24 Q1773.58 1461.82 1773.58 1470.57 Q1773.58 1479.3 1770.51 1483.91 Q1767.45 1488.49 1761.64 1488.49 Q1755.83 1488.49 1752.75 1483.91 Q1749.7 1479.3 1749.7 1470.57 Q1749.7 1461.82 1752.75 1457.24 Q1755.83 1452.63 1761.64 1452.63 Z" fill="#000000" fill-rule="evenodd" fill-opacity="1" /><path clip-path="url(#clip740)" d="M 0 0 M1781.8 1481.94 L1786.69 1481.94 L1786.69 1487.82 L1781.8 1487.82 L1781.8 1481.94 Z" fill="#000000" fill-rule="evenodd" fill-opacity="1" /><path clip-path="url(#clip740)" d="M 0 0 M1795.69 1453.26 L1817.91 1453.26 L1817.91 1455.25 L1805.37 1487.82 L1800.48 1487.82 L1812.29 1457.19 L1795.69 1457.19 L1795.69 1453.26 Z" fill="#000000" fill-rule="evenodd" fill-opacity="1" /><path clip-path="url(#clip740)" d="M 0 0 M1827.08 1453.26 L1845.44 1453.26 L1845.44 1457.19 L1831.36 1457.19 L1831.36 1465.67 Q1832.38 1465.32 1833.4 1465.16 Q1834.42 1464.97 1835.44 1464.97 Q1841.22 1464.97 1844.6 1468.14 Q1847.98 1471.32 1847.98 1476.73 Q1847.98 1482.31 1844.51 1485.41 Q1841.04 1488.49 1834.72 1488.49 Q1832.54 1488.49 1830.27 1488.12 Q1828.03 1487.75 1825.62 1487.01 L1825.62 1482.31 Q1827.7 1483.44 1829.93 1484 Q1832.15 1484.56 1834.63 1484.56 Q1838.63 1484.56 1840.97 1482.45 Q1843.31 1480.34 1843.31 1476.73 Q1843.31 1473.12 1840.97 1471.01 Q1838.63 1468.91 1834.63 1468.91 Q1832.75 1468.91 1830.88 1469.32 Q1829.02 1469.74 1827.08 1470.62 L1827.08 1453.26 Z" fill="#000000" fill-rule="evenodd" fill-opacity="1" /><path clip-path="url(#clip740)" d="M 0 0 M2245.48 1483.88 L2253.12 1483.88 L2253.12 1457.52 L2244.81 1459.19 L2244.81 1454.93 L2253.07 1453.26 L2257.75 1453.26 L2257.75 1483.88 L2265.39 1483.88 L2265.39 1487.82 L2245.48 1487.82 L2245.48 1483.88 Z" fill="#000000" fill-rule="evenodd" fill-opacity="1" /><path clip-path="url(#clip740)" d="M 0 0 M2274.83 1481.94 L2279.72 1481.94 L2279.72 1487.82 L2274.83 1487.82 L2274.83 1481.94 Z" fill="#000000" fill-rule="evenodd" fill-opacity="1" /><path clip-path="url(#clip740)" d="M 0 0 M2299.9 1456.34 Q2296.29 1456.34 2294.46 1459.9 Q2292.66 1463.44 2292.66 1470.57 Q2292.66 1477.68 2294.46 1481.25 Q2296.29 1484.79 2299.9 1484.79 Q2303.53 1484.79 2305.34 1481.25 Q2307.17 1477.68 2307.17 1470.57 Q2307.17 1463.44 2305.34 1459.9 Q2303.53 1456.34 2299.9 1456.34 M2299.9 1452.63 Q2305.71 1452.63 2308.77 1457.24 Q2311.85 1461.82 2311.85 1470.57 Q2311.85 1479.3 2308.77 1483.91 Q2305.71 1488.49 2299.9 1488.49 Q2294.09 1488.49 2291.01 1483.91 Q2287.96 1479.3 2287.96 1470.57 Q2287.96 1461.82 2291.01 1457.24 Q2294.09 1452.63 2299.9 1452.63 Z" fill="#000000" fill-rule="evenodd" fill-opacity="1" /><path clip-path="url(#clip740)" d="M 0 0 M2330.06 1456.34 Q2326.45 1456.34 2324.62 1459.9 Q2322.82 1463.44 2322.82 1470.57 Q2322.82 1477.68 2324.62 1481.25 Q2326.45 1484.79 2330.06 1484.79 Q2333.7 1484.79 2335.5 1481.25 Q2337.33 1477.68 2337.33 1470.57 Q2337.33 1463.44 2335.5 1459.9 Q2333.7 1456.34 2330.06 1456.34 M2330.06 1452.63 Q2335.87 1452.63 2338.93 1457.24 Q2342.01 1461.82 2342.01 1470.57 Q2342.01 1479.3 2338.93 1483.91 Q2335.87 1488.49 2330.06 1488.49 Q2324.25 1488.49 2321.17 1483.91 Q2318.12 1479.3 2318.12 1470.57 Q2318.12 1461.82 2321.17 1457.24 Q2324.25 1452.63 2330.06 1452.63 Z" fill="#000000" fill-rule="evenodd" fill-opacity="1" /><path clip-path="url(#clip740)" d="M 0 0 M1254.8 1530.6 Q1254.8 1532.85 1251.54 1532.85 L1240.47 1532.85 L1236.05 1555.43 Q1235.96 1556.01 1235.83 1556.33 Q1235.73 1556.65 1235.44 1557.2 Q1235.18 1557.71 1234.64 1557.97 Q1234.12 1558.26 1233.35 1558.26 Q1232.38 1558.26 1231.9 1557.68 Q1231.45 1557.13 1231.45 1556.46 Q1231.45 1556.04 1232.09 1554.04 L1238.57 1532.85 L1233.09 1532.85 Q1227.94 1532.85 1224.72 1537.94 Q1224.2 1538.61 1223.91 1538.68 Q1223.78 1538.71 1223.65 1538.71 Q1223.3 1538.71 1223.07 1538.55 Q1222.88 1538.39 1222.88 1538.23 L1222.85 1538.07 Q1222.85 1537.84 1223.36 1536.94 Q1223.91 1536.01 1224.88 1534.62 Q1225.88 1533.24 1226.87 1532.14 Q1228.2 1530.72 1229.68 1529.98 Q1231.16 1529.21 1231.9 1529.11 Q1232.67 1529.02 1233.67 1529.02 L1252.16 1529.02 Q1252.99 1529.02 1253.44 1529.08 Q1253.9 1529.11 1254.35 1529.5 Q1254.8 1529.85 1254.8 1530.6 Z" fill="#000000" fill-rule="evenodd" fill-opacity="1" /><path clip-path="url(#clip740)" d="M 0 0 M1273.09 1540.97 Q1273.09 1529.82 1277.24 1520.84 Q1279.01 1517.07 1281.49 1513.91 Q1283.97 1510.76 1285.62 1509.37 Q1287.26 1507.99 1287.71 1507.99 Q1288.35 1507.99 1288.39 1508.63 Q1288.39 1508.95 1287.52 1509.76 Q1276.89 1520.58 1276.92 1540.97 Q1276.92 1561.42 1287.26 1571.82 Q1288.39 1572.95 1288.39 1573.3 Q1288.39 1573.94 1287.71 1573.94 Q1287.26 1573.94 1285.68 1572.62 Q1284.1 1571.3 1281.66 1568.28 Q1279.21 1565.25 1277.44 1561.55 Q1273.09 1552.56 1273.09 1540.97 Z" fill="#000000" fill-rule="evenodd" fill-opacity="1" /><path clip-path="url(#clip740)" d="M 0 0 M1298.42 1557.45 L1298.42 1555.43 Q1301.93 1555.43 1302.73 1555.01 Q1303.54 1554.56 1303.54 1552.43 L1303.54 1534.75 Q1303.54 1532.3 1302.67 1531.69 Q1301.83 1531.08 1298.42 1531.08 L1298.42 1529.02 L1307.69 1528.31 L1307.69 1535.23 Q1310.78 1528.31 1317.45 1528.31 Q1322.41 1528.31 1324.37 1530.76 Q1325.82 1532.4 1326.11 1534.23 Q1326.44 1536.07 1326.44 1540.84 L1326.44 1553.43 Q1326.5 1554.81 1327.56 1555.14 Q1328.63 1555.43 1331.59 1555.43 L1331.59 1557.45 Q1324.86 1557.26 1324.18 1557.26 Q1323.67 1557.26 1316.74 1557.45 L1316.74 1555.43 Q1320.25 1555.43 1321.06 1555.01 Q1321.89 1554.56 1321.89 1552.43 L1321.89 1537.07 Q1321.89 1533.72 1320.86 1531.75 Q1319.83 1529.76 1317 1529.76 Q1313.59 1529.76 1310.85 1532.62 Q1308.11 1535.49 1308.11 1540.32 L1308.11 1552.43 Q1308.11 1554.56 1308.92 1555.01 Q1309.75 1555.43 1313.23 1555.43 L1313.23 1557.45 Q1306.5 1557.26 1305.86 1557.26 Q1305.34 1557.26 1298.42 1557.45 Z" fill="#000000" fill-rule="evenodd" fill-opacity="1" /><path clip-path="url(#clip740)" d="M 0 0 M1334.65 1556.59 L1334.65 1547.89 Q1334.65 1547.15 1334.69 1546.89 Q1334.72 1546.63 1334.91 1546.44 Q1335.1 1546.25 1335.49 1546.25 Q1335.94 1546.25 1336.1 1546.44 Q1336.3 1546.63 1336.42 1547.37 Q1337.42 1551.92 1339.55 1554.33 Q1341.71 1556.71 1345.6 1556.71 Q1349.31 1556.71 1351.17 1555.07 Q1353.04 1553.43 1353.04 1550.72 Q1353.04 1545.89 1346.18 1544.67 Q1342.22 1543.86 1340.58 1543.35 Q1338.94 1542.8 1337.49 1541.61 Q1334.65 1539.29 1334.65 1536.01 Q1334.65 1532.72 1337.13 1530.31 Q1339.65 1527.89 1345.18 1527.89 Q1348.89 1527.89 1351.4 1529.76 Q1352.14 1529.18 1352.53 1528.7 Q1353.4 1527.89 1353.85 1527.89 Q1354.36 1527.89 1354.46 1528.24 Q1354.56 1528.57 1354.56 1529.5 L1354.56 1536.13 Q1354.56 1536.88 1354.52 1537.13 Q1354.49 1537.39 1354.3 1537.58 Q1354.11 1537.74 1353.69 1537.74 Q1352.95 1537.74 1352.91 1537.13 Q1352.4 1529.15 1345.18 1529.15 Q1341.29 1529.15 1339.55 1530.66 Q1337.81 1532.14 1337.81 1534.17 Q1337.81 1535.3 1338.32 1536.17 Q1338.87 1537 1339.55 1537.52 Q1340.26 1538 1341.55 1538.49 Q1342.83 1538.94 1343.61 1539.1 Q1344.41 1539.26 1345.93 1539.58 Q1351.21 1540.58 1353.43 1542.74 Q1356.2 1545.51 1356.2 1549.02 Q1356.2 1552.91 1353.56 1555.55 Q1350.92 1558.2 1345.6 1558.2 Q1341.32 1558.2 1338.32 1555.33 Q1337.94 1555.72 1337.65 1556.07 Q1337.36 1556.39 1337.23 1556.52 Q1337.13 1556.65 1337.1 1556.75 Q1337.07 1556.81 1337 1556.88 Q1335.68 1558.2 1335.36 1558.2 Q1334.85 1558.2 1334.75 1557.84 Q1334.65 1557.52 1334.65 1556.59 Z" fill="#000000" fill-rule="evenodd" fill-opacity="1" /><path clip-path="url(#clip740)" d="M 0 0 M1360.36 1573.3 Q1360.36 1572.98 1361.2 1572.17 Q1371.83 1561.35 1371.83 1540.97 Q1371.83 1520.51 1361.62 1510.18 Q1360.36 1508.99 1360.36 1508.63 Q1360.36 1507.99 1361.01 1507.99 Q1361.46 1507.99 1363.04 1509.31 Q1364.65 1510.63 1367.06 1513.65 Q1369.51 1516.68 1371.31 1520.39 Q1375.66 1529.37 1375.66 1540.97 Q1375.66 1552.11 1371.51 1561.09 Q1369.74 1564.86 1367.26 1568.02 Q1364.78 1571.17 1363.13 1572.56 Q1361.49 1573.94 1361.01 1573.94 Q1360.36 1573.94 1360.36 1573.3 Z" fill="#000000" fill-rule="evenodd" fill-opacity="1" /><polyline clip-path="url(#clip743)" style="stroke:#000000; stroke-width:2; stroke-opacity:0.1; fill:none" points="
  255.784,1390.25 2352.76,1390.25 
  "/>
<polyline clip-path="url(#clip743)" style="stroke:#000000; stroke-width:2; stroke-opacity:0.1; fill:none" points="
  255.784,1082.78 2352.76,1082.78 
  "/>
<polyline clip-path="url(#clip743)" style="stroke:#000000; stroke-width:2; stroke-opacity:0.1; fill:none" points="
  255.784,775.31 2352.76,775.31 
  "/>
<polyline clip-path="url(#clip743)" style="stroke:#000000; stroke-width:2; stroke-opacity:0.1; fill:none" points="
  255.784,467.839 2352.76,467.839 
  "/>
<polyline clip-path="url(#clip743)" style="stroke:#000000; stroke-width:2; stroke-opacity:0.1; fill:none" points="
  255.784,160.369 2352.76,160.369 
  "/>
<polyline clip-path="url(#clip740)" style="stroke:#000000; stroke-width:4; stroke-opacity:1; fill:none" points="
  255.784,1427.15 255.784,123.472 
  "/>
<polyline clip-path="url(#clip740)" style="stroke:#000000; stroke-width:4; stroke-opacity:1; fill:none" points="
  255.784,1390.25 280.948,1390.25 
  "/>
<polyline clip-path="url(#clip740)" style="stroke:#000000; stroke-width:4; stroke-opacity:1; fill:none" points="
  255.784,1082.78 280.948,1082.78 
  "/>
<polyline clip-path="url(#clip740)" style="stroke:#000000; stroke-width:4; stroke-opacity:1; fill:none" points="
  255.784,775.31 280.948,775.31 
  "/>
<polyline clip-path="url(#clip740)" style="stroke:#000000; stroke-width:4; stroke-opacity:1; fill:none" points="
  255.784,467.839 280.948,467.839 
  "/>
<polyline clip-path="url(#clip740)" style="stroke:#000000; stroke-width:4; stroke-opacity:1; fill:none" points="
  255.784,160.369 280.948,160.369 
  "/>
<path clip-path="url(#clip740)" d="M 0 0 M132.446 1376.05 Q128.835 1376.05 127.007 1379.61 Q125.201 1383.16 125.201 1390.29 Q125.201 1397.39 127.007 1400.96 Q128.835 1404.5 132.446 1404.5 Q136.081 1404.5 137.886 1400.96 Q139.715 1397.39 139.715 1390.29 Q139.715 1383.16 137.886 1379.61 Q136.081 1376.05 132.446 1376.05 M132.446 1372.35 Q138.257 1372.35 141.312 1376.95 Q144.391 1381.54 144.391 1390.29 Q144.391 1399.01 141.312 1403.62 Q138.257 1408.2 132.446 1408.2 Q126.636 1408.2 123.558 1403.62 Q120.502 1399.01 120.502 1390.29 Q120.502 1381.54 123.558 1376.95 Q126.636 1372.35 132.446 1372.35 Z" fill="#000000" fill-rule="evenodd" fill-opacity="1" /><path clip-path="url(#clip740)" d="M 0 0 M152.608 1401.65 L157.493 1401.65 L157.493 1407.53 L152.608 1407.53 L152.608 1401.65 Z" fill="#000000" fill-rule="evenodd" fill-opacity="1" /><path clip-path="url(#clip740)" d="M 0 0 M177.678 1376.05 Q174.067 1376.05 172.238 1379.61 Q170.432 1383.16 170.432 1390.29 Q170.432 1397.39 172.238 1400.96 Q174.067 1404.5 177.678 1404.5 Q181.312 1404.5 183.117 1400.96 Q184.946 1397.39 184.946 1390.29 Q184.946 1383.16 183.117 1379.61 Q181.312 1376.05 177.678 1376.05 M177.678 1372.35 Q183.488 1372.35 186.543 1376.95 Q189.622 1381.54 189.622 1390.29 Q189.622 1399.01 186.543 1403.62 Q183.488 1408.2 177.678 1408.2 Q171.867 1408.2 168.789 1403.62 Q165.733 1399.01 165.733 1390.29 Q165.733 1381.54 168.789 1376.95 Q171.867 1372.35 177.678 1372.35 Z" fill="#000000" fill-rule="evenodd" fill-opacity="1" /><path clip-path="url(#clip740)" d="M 0 0 M207.84 1376.05 Q204.228 1376.05 202.4 1379.61 Q200.594 1383.16 200.594 1390.29 Q200.594 1397.39 202.4 1400.96 Q204.228 1404.5 207.84 1404.5 Q211.474 1404.5 213.279 1400.96 Q215.108 1397.39 215.108 1390.29 Q215.108 1383.16 213.279 1379.61 Q211.474 1376.05 207.84 1376.05 M207.84 1372.35 Q213.65 1372.35 216.705 1376.95 Q219.784 1381.54 219.784 1390.29 Q219.784 1399.01 216.705 1403.62 Q213.65 1408.2 207.84 1408.2 Q202.029 1408.2 198.951 1403.62 Q195.895 1399.01 195.895 1390.29 Q195.895 1381.54 198.951 1376.95 Q202.029 1372.35 207.84 1372.35 Z" fill="#000000" fill-rule="evenodd" fill-opacity="1" /><path clip-path="url(#clip740)" d="M 0 0 M133.442 1068.58 Q129.831 1068.58 128.002 1072.14 Q126.196 1075.69 126.196 1082.82 Q126.196 1089.92 128.002 1093.49 Q129.831 1097.03 133.442 1097.03 Q137.076 1097.03 138.882 1093.49 Q140.71 1089.92 140.71 1082.82 Q140.71 1075.69 138.882 1072.14 Q137.076 1068.58 133.442 1068.58 M133.442 1064.88 Q139.252 1064.88 142.307 1069.48 Q145.386 1074.07 145.386 1082.82 Q145.386 1091.54 142.307 1096.15 Q139.252 1100.73 133.442 1100.73 Q127.632 1100.73 124.553 1096.15 Q121.497 1091.54 121.497 1082.82 Q121.497 1074.07 124.553 1069.48 Q127.632 1064.88 133.442 1064.88 Z" fill="#000000" fill-rule="evenodd" fill-opacity="1" /><path clip-path="url(#clip740)" d="M 0 0 M153.604 1094.18 L158.488 1094.18 L158.488 1100.06 L153.604 1100.06 L153.604 1094.18 Z" fill="#000000" fill-rule="evenodd" fill-opacity="1" /><path clip-path="url(#clip740)" d="M 0 0 M172.701 1096.13 L189.02 1096.13 L189.02 1100.06 L167.076 1100.06 L167.076 1096.13 Q169.738 1093.37 174.321 1088.74 Q178.928 1084.09 180.108 1082.75 Q182.354 1080.22 183.233 1078.49 Q184.136 1076.73 184.136 1075.04 Q184.136 1072.28 182.192 1070.55 Q180.27 1068.81 177.168 1068.81 Q174.969 1068.81 172.516 1069.57 Q170.085 1070.34 167.307 1071.89 L167.307 1067.17 Q170.131 1066.03 172.585 1065.45 Q175.039 1064.88 177.076 1064.88 Q182.446 1064.88 185.641 1067.56 Q188.835 1070.25 188.835 1074.74 Q188.835 1076.87 188.025 1078.79 Q187.238 1080.69 185.131 1083.28 Q184.553 1083.95 181.451 1087.17 Q178.349 1090.36 172.701 1096.13 Z" fill="#000000" fill-rule="evenodd" fill-opacity="1" /><path clip-path="url(#clip740)" d="M 0 0 M198.881 1065.5 L217.238 1065.5 L217.238 1069.44 L203.164 1069.44 L203.164 1077.91 Q204.182 1077.56 205.201 1077.4 Q206.219 1077.21 207.238 1077.21 Q213.025 1077.21 216.404 1080.38 Q219.784 1083.56 219.784 1088.97 Q219.784 1094.55 216.312 1097.65 Q212.84 1100.73 206.52 1100.73 Q204.344 1100.73 202.076 1100.36 Q199.83 1099.99 197.423 1099.25 L197.423 1094.55 Q199.506 1095.69 201.728 1096.24 Q203.951 1096.8 206.427 1096.8 Q210.432 1096.8 212.77 1094.69 Q215.108 1092.58 215.108 1088.97 Q215.108 1085.36 212.77 1083.26 Q210.432 1081.15 206.427 1081.15 Q204.553 1081.15 202.678 1081.57 Q200.826 1081.98 198.881 1082.86 L198.881 1065.5 Z" fill="#000000" fill-rule="evenodd" fill-opacity="1" /><path clip-path="url(#clip740)" d="M 0 0 M132.446 761.109 Q128.835 761.109 127.007 764.673 Q125.201 768.215 125.201 775.345 Q125.201 782.451 127.007 786.016 Q128.835 789.558 132.446 789.558 Q136.081 789.558 137.886 786.016 Q139.715 782.451 139.715 775.345 Q139.715 768.215 137.886 764.673 Q136.081 761.109 132.446 761.109 M132.446 757.405 Q138.257 757.405 141.312 762.011 Q144.391 766.595 144.391 775.345 Q144.391 784.071 141.312 788.678 Q138.257 793.261 132.446 793.261 Q126.636 793.261 123.558 788.678 Q120.502 784.071 120.502 775.345 Q120.502 766.595 123.558 762.011 Q126.636 757.405 132.446 757.405 Z" fill="#000000" fill-rule="evenodd" fill-opacity="1" /><path clip-path="url(#clip740)" d="M 0 0 M152.608 786.71 L157.493 786.71 L157.493 792.59 L152.608 792.59 L152.608 786.71 Z" fill="#000000" fill-rule="evenodd" fill-opacity="1" /><path clip-path="url(#clip740)" d="M 0 0 M167.724 758.03 L186.08 758.03 L186.08 761.965 L172.006 761.965 L172.006 770.437 Q173.025 770.09 174.043 769.928 Q175.062 769.743 176.08 769.743 Q181.867 769.743 185.247 772.914 Q188.627 776.085 188.627 781.502 Q188.627 787.081 185.154 790.183 Q181.682 793.261 175.363 793.261 Q173.187 793.261 170.918 792.891 Q168.673 792.52 166.266 791.78 L166.266 787.081 Q168.349 788.215 170.571 788.771 Q172.793 789.326 175.27 789.326 Q179.275 789.326 181.613 787.22 Q183.951 785.113 183.951 781.502 Q183.951 777.891 181.613 775.784 Q179.275 773.678 175.27 773.678 Q173.395 773.678 171.52 774.095 Q169.668 774.511 167.724 775.391 L167.724 758.03 Z" fill="#000000" fill-rule="evenodd" fill-opacity="1" /><path clip-path="url(#clip740)" d="M 0 0 M207.84 761.109 Q204.228 761.109 202.4 764.673 Q200.594 768.215 200.594 775.345 Q200.594 782.451 202.4 786.016 Q204.228 789.558 207.84 789.558 Q211.474 789.558 213.279 786.016 Q215.108 782.451 215.108 775.345 Q215.108 768.215 213.279 764.673 Q211.474 761.109 207.84 761.109 M207.84 757.405 Q213.65 757.405 216.705 762.011 Q219.784 766.595 219.784 775.345 Q219.784 784.071 216.705 788.678 Q213.65 793.261 207.84 793.261 Q202.029 793.261 198.951 788.678 Q195.895 784.071 195.895 775.345 Q195.895 766.595 198.951 762.011 Q202.029 757.405 207.84 757.405 Z" fill="#000000" fill-rule="evenodd" fill-opacity="1" /><path clip-path="url(#clip740)" d="M 0 0 M133.442 453.638 Q129.831 453.638 128.002 457.203 Q126.196 460.744 126.196 467.874 Q126.196 474.98 128.002 478.545 Q129.831 482.087 133.442 482.087 Q137.076 482.087 138.882 478.545 Q140.71 474.98 140.71 467.874 Q140.71 460.744 138.882 457.203 Q137.076 453.638 133.442 453.638 M133.442 449.934 Q139.252 449.934 142.307 454.541 Q145.386 459.124 145.386 467.874 Q145.386 476.601 142.307 481.207 Q139.252 485.791 133.442 485.791 Q127.632 485.791 124.553 481.207 Q121.497 476.601 121.497 467.874 Q121.497 459.124 124.553 454.541 Q127.632 449.934 133.442 449.934 Z" fill="#000000" fill-rule="evenodd" fill-opacity="1" /><path clip-path="url(#clip740)" d="M 0 0 M153.604 479.24 L158.488 479.24 L158.488 485.119 L153.604 485.119 L153.604 479.24 Z" fill="#000000" fill-rule="evenodd" fill-opacity="1" /><path clip-path="url(#clip740)" d="M 0 0 M167.493 450.559 L189.715 450.559 L189.715 452.55 L177.168 485.119 L172.284 485.119 L184.09 454.494 L167.493 454.494 L167.493 450.559 Z" fill="#000000" fill-rule="evenodd" fill-opacity="1" /><path clip-path="url(#clip740)" d="M 0 0 M198.881 450.559 L217.238 450.559 L217.238 454.494 L203.164 454.494 L203.164 462.967 Q204.182 462.619 205.201 462.457 Q206.219 462.272 207.238 462.272 Q213.025 462.272 216.404 465.443 Q219.784 468.615 219.784 474.031 Q219.784 479.61 216.312 482.712 Q212.84 485.791 206.52 485.791 Q204.344 485.791 202.076 485.42 Q199.83 485.05 197.423 484.309 L197.423 479.61 Q199.506 480.744 201.728 481.3 Q203.951 481.855 206.427 481.855 Q210.432 481.855 212.77 479.749 Q215.108 477.642 215.108 474.031 Q215.108 470.42 212.77 468.314 Q210.432 466.207 206.427 466.207 Q204.553 466.207 202.678 466.624 Q200.826 467.041 198.881 467.92 L198.881 450.559 Z" fill="#000000" fill-rule="evenodd" fill-opacity="1" /><path clip-path="url(#clip740)" d="M 0 0 M123.257 173.713 L130.895 173.713 L130.895 147.348 L122.585 149.015 L122.585 144.755 L130.849 143.089 L135.525 143.089 L135.525 173.713 L143.164 173.713 L143.164 177.649 L123.257 177.649 L123.257 173.713 Z" fill="#000000" fill-rule="evenodd" fill-opacity="1" /><path clip-path="url(#clip740)" d="M 0 0 M152.608 171.769 L157.493 171.769 L157.493 177.649 L152.608 177.649 L152.608 171.769 Z" fill="#000000" fill-rule="evenodd" fill-opacity="1" /><path clip-path="url(#clip740)" d="M 0 0 M177.678 146.167 Q174.067 146.167 172.238 149.732 Q170.432 153.274 170.432 160.403 Q170.432 167.51 172.238 171.075 Q174.067 174.616 177.678 174.616 Q181.312 174.616 183.117 171.075 Q184.946 167.51 184.946 160.403 Q184.946 153.274 183.117 149.732 Q181.312 146.167 177.678 146.167 M177.678 142.464 Q183.488 142.464 186.543 147.07 Q189.622 151.653 189.622 160.403 Q189.622 169.13 186.543 173.737 Q183.488 178.32 177.678 178.32 Q171.867 178.32 168.789 173.737 Q165.733 169.13 165.733 160.403 Q165.733 151.653 168.789 147.07 Q171.867 142.464 177.678 142.464 Z" fill="#000000" fill-rule="evenodd" fill-opacity="1" /><path clip-path="url(#clip740)" d="M 0 0 M207.84 146.167 Q204.228 146.167 202.4 149.732 Q200.594 153.274 200.594 160.403 Q200.594 167.51 202.4 171.075 Q204.228 174.616 207.84 174.616 Q211.474 174.616 213.279 171.075 Q215.108 167.51 215.108 160.403 Q215.108 153.274 213.279 149.732 Q211.474 146.167 207.84 146.167 M207.84 142.464 Q213.65 142.464 216.705 147.07 Q219.784 151.653 219.784 160.403 Q219.784 169.13 216.705 173.737 Q213.65 178.32 207.84 178.32 Q202.029 178.32 198.951 173.737 Q195.895 169.13 195.895 160.403 Q195.895 151.653 198.951 147.07 Q202.029 142.464 207.84 142.464 Z" fill="#000000" fill-rule="evenodd" fill-opacity="1" /><path clip-path="url(#clip740)" d="M 0 0 M50.1836 835.816 Q50.2159 835.816 51.3753 836.009 L80.6504 843.352 Q82.1963 843.739 83.7422 844.834 Q85.3202 845.897 86.6729 847.604 Q88.0577 849.278 88.8951 851.855 Q89.7647 854.399 89.7647 857.33 Q89.7647 862 88.7663 864.061 Q87.8001 866.09 85.7389 866.09 Q83.9354 866.09 82.9048 864.963 Q81.9064 863.835 81.9064 862.547 Q81.9064 861.323 82.6149 860.679 Q83.3235 860.035 84.2252 860.035 Q85.2236 860.035 86.222 860.711 Q87.2526 861.388 87.6391 862.74 Q88.3154 860.583 88.3154 857.459 Q88.3154 850.856 81.3267 848.022 Q81.2301 847.958 81.1979 847.958 L72.4701 845.768 L72.4057 845.864 Q73.0498 846.412 73.7905 847.282 Q74.4991 848.119 75.3686 849.922 Q76.2382 851.726 76.2382 853.497 Q76.2382 857.201 73.4041 859.745 Q70.5378 862.257 65.8035 862.257 Q62.3575 862.257 58.9114 860.872 Q55.4332 859.455 52.8889 857.265 Q50.3125 855.043 48.7022 852.209 Q47.0919 849.343 47.0919 846.573 Q47.0919 844.641 48.2513 842.998 Q49.3785 841.356 51.2464 840.454 Q49.7006 840.293 49.0564 839.423 Q48.4123 838.522 48.4123 837.749 Q48.4123 836.879 48.8954 836.364 Q49.3463 835.816 50.1836 835.816 M54.2094 841.227 Q54.0161 841.227 53.5009 841.356 Q52.9534 841.484 52.0838 841.871 Q51.2142 842.225 50.4413 842.773 Q49.6684 843.32 49.1209 844.319 Q48.5411 845.285 48.5411 846.509 Q48.5411 848.505 50.2159 850.502 Q51.8584 852.499 54.4026 853.884 Q56.8503 855.172 61.5845 856.396 Q66.3188 857.587 68.7342 857.587 Q71.1175 857.587 72.9532 856.557 Q74.7889 855.526 74.7889 853.304 Q74.7889 850.728 72.4057 847.958 Q69.9258 845.092 67.8003 844.608 L55.2078 841.42 Q54.4348 841.227 54.2094 841.227 Z" fill="#000000" fill-rule="evenodd" fill-opacity="1" /><path clip-path="url(#clip740)" d="M 0 0 M34.6809 829.065 Q26.8807 829.065 20.5909 826.157 Q17.9532 824.917 15.7439 823.181 Q13.5346 821.445 12.5652 820.296 Q11.5958 819.146 11.5958 818.83 Q11.5958 818.379 12.0466 818.357 Q12.2721 818.357 12.8357 818.966 Q20.4105 826.405 34.6809 826.383 Q48.9964 826.383 56.2782 819.146 Q57.0672 818.357 57.3152 818.357 Q57.7661 818.357 57.7661 818.83 Q57.7661 819.146 56.8418 820.251 Q55.9175 821.355 53.7983 823.069 Q51.6792 824.782 49.0866 826.022 Q42.7968 829.065 34.6809 829.065 Z" fill="#000000" fill-rule="evenodd" fill-opacity="1" /><path clip-path="url(#clip740)" d="M 0 0 M46.2235 811.336 Q45.3894 811.336 45.1414 811.269 Q44.8934 811.178 44.5101 810.818 L34.6358 801.958 Q29.1802 797.111 24.4234 797.111 Q21.3348 797.111 19.1255 798.734 Q16.9162 800.335 16.9162 803.288 Q16.9162 805.317 18.1561 807.03 Q19.396 808.744 21.6053 809.533 Q21.5603 809.397 21.5603 808.924 Q21.5603 807.774 22.2817 807.143 Q23.0031 806.489 23.9725 806.489 Q25.2124 806.489 25.8211 807.301 Q26.4072 808.09 26.4072 808.879 Q26.4072 809.195 26.3396 809.623 Q26.272 810.029 25.6407 810.682 Q24.987 811.336 23.8372 811.336 Q20.6134 811.336 18.0434 808.901 Q15.4733 806.444 15.4733 802.702 Q15.4733 798.464 17.9983 795.691 Q20.5007 792.895 24.4234 792.895 Q25.7985 792.895 27.061 793.323 Q28.3009 793.729 29.2703 794.293 Q30.2397 794.834 31.7953 796.322 Q33.3508 797.81 34.4555 799.005 Q35.5601 800.199 37.9047 802.882 L42.6615 807.774 L42.6615 799.455 Q42.6615 795.398 42.3008 795.082 Q41.647 794.631 38.1978 794.067 L38.1978 792.895 L46.2235 794.203 L46.2235 811.336 Z" fill="#000000" fill-rule="evenodd" fill-opacity="1" /><path clip-path="url(#clip740)" d="M 0 0 M57.3152 788.471 Q57.0898 788.471 56.5262 787.885 Q48.9513 780.446 34.6809 780.446 Q20.3654 780.446 13.1288 787.592 Q12.2946 788.471 12.0466 788.471 Q11.5958 788.471 11.5958 788.02 Q11.5958 787.705 12.5201 786.6 Q13.4444 785.473 15.5635 783.782 Q17.6827 782.069 20.2752 780.806 Q26.565 777.763 34.6809 777.763 Q42.4812 777.763 48.771 780.671 Q51.4086 781.911 53.618 783.647 Q55.8273 785.383 56.7967 786.533 Q57.7661 787.682 57.7661 788.02 Q57.7661 788.471 57.3152 788.471 Z" fill="#000000" fill-rule="evenodd" fill-opacity="1" /><path clip-path="url(#clip740)" d="M 0 0 M59.7488 763.702 Q48.6056 763.702 39.6201 759.548 Q35.852 757.776 32.6959 755.296 Q29.5397 752.817 28.1548 751.174 Q26.77 749.532 26.77 749.081 Q26.77 748.437 27.4141 748.404 Q27.7362 748.404 28.5413 749.274 Q39.3625 759.902 59.7488 759.87 Q80.1995 759.87 90.602 749.532 Q91.7292 748.404 92.0835 748.404 Q92.7276 748.404 92.7276 749.081 Q92.7276 749.532 91.4071 751.11 Q90.0867 752.688 87.0594 755.135 Q84.032 757.583 80.3283 759.354 Q71.3429 763.702 59.7488 763.702 Z" fill="#000000" fill-rule="evenodd" fill-opacity="1" /><path clip-path="url(#clip740)" d="M 0 0 M49.3785 706.427 Q51.6329 706.427 51.6329 709.679 L51.6329 720.758 L74.2092 725.17 Q74.7889 725.267 75.111 725.396 Q75.433 725.492 75.9805 725.782 Q76.4958 726.04 76.7535 726.587 Q77.0433 727.103 77.0433 727.876 Q77.0433 728.842 76.4636 729.325 Q75.9161 729.776 75.2398 729.776 Q74.8211 729.776 72.8244 729.132 L51.6329 722.658 L51.6329 728.133 Q51.6329 733.286 56.7214 736.507 Q57.3978 737.022 57.4622 737.312 Q57.4944 737.441 57.4944 737.57 Q57.4944 737.924 57.3333 738.149 Q57.1723 738.343 57.0113 738.343 L56.8503 738.375 Q56.6248 738.375 55.7231 737.859 Q54.7891 737.312 53.4042 736.346 Q52.0194 735.347 50.9244 734.349 Q49.5073 733.029 48.7666 731.547 Q47.9936 730.066 47.897 729.325 Q47.8004 728.552 47.8004 727.554 L47.8004 709.067 Q47.8004 708.23 47.8648 707.779 Q47.897 707.328 48.2835 706.877 Q48.6378 706.427 49.3785 706.427 Z" fill="#000000" fill-rule="evenodd" fill-opacity="1" /><path clip-path="url(#clip740)" d="M 0 0 M92.0835 709.858 Q91.7614 709.858 90.9563 709.02 Q80.1351 698.392 59.7488 698.392 Q39.2981 698.392 28.96 708.601 Q27.7684 709.858 27.4141 709.858 Q26.77 709.858 26.77 709.213 Q26.77 708.763 28.0904 707.184 Q29.4109 705.574 32.4382 703.159 Q35.4656 700.711 39.1692 698.908 Q48.1547 694.56 59.7488 694.56 Q70.892 694.56 79.8775 698.714 Q83.6455 700.486 86.8017 702.965 Q89.9579 705.445 91.3427 707.088 Q92.7276 708.73 92.7276 709.213 Q92.7276 709.858 92.0835 709.858 Z" fill="#000000" fill-rule="evenodd" fill-opacity="1" /><path clip-path="url(#clip740)" d="M 0 0 M596.881 18.8205 L596.881 41.5461 L607.17 41.5461 Q612.882 41.5461 616.001 38.5889 Q619.12 35.6318 619.12 30.163 Q619.12 24.7348 616.001 21.7777 Q612.882 18.8205 607.17 18.8205 L596.881 18.8205 M588.698 12.096 L607.17 12.096 Q617.338 12.096 622.523 16.714 Q627.749 21.2916 627.749 30.163 Q627.749 39.1155 622.523 43.6931 Q617.338 48.2706 607.17 48.2706 L596.881 48.2706 L596.881 72.576 L588.698 72.576 L588.698 12.096 Z" fill="#000000" fill-rule="evenodd" fill-opacity="1" /><path clip-path="url(#clip740)" d="M 0 0 M676.116 45.1919 L676.116 72.576 L668.663 72.576 L668.663 45.4349 Q668.663 38.994 666.151 35.7938 Q663.64 32.5936 658.617 32.5936 Q652.581 32.5936 649.097 36.4419 Q645.613 40.2903 645.613 46.9338 L645.613 72.576 L638.119 72.576 L638.119 9.54393 L645.613 9.54393 L645.613 34.2544 Q648.287 30.163 651.892 28.1376 Q655.538 26.1121 660.277 26.1121 Q668.096 26.1121 672.106 30.9732 Q676.116 35.7938 676.116 45.1919 Z" fill="#000000" fill-rule="evenodd" fill-opacity="1" /><path clip-path="url(#clip740)" d="M 0 0 M708.564 32.4315 Q702.569 32.4315 699.085 37.1306 Q695.601 41.7891 695.601 49.9314 Q695.601 58.0738 699.045 62.7728 Q702.528 67.4314 708.564 67.4314 Q714.519 67.4314 718.003 62.7323 Q721.487 58.0333 721.487 49.9314 Q721.487 41.8701 718.003 37.1711 Q714.519 32.4315 708.564 32.4315 M708.564 26.1121 Q718.286 26.1121 723.836 32.4315 Q729.386 38.7509 729.386 49.9314 Q729.386 61.0714 723.836 67.4314 Q718.286 73.7508 708.564 73.7508 Q698.802 73.7508 693.252 67.4314 Q687.743 61.0714 687.743 49.9314 Q687.743 38.7509 693.252 32.4315 Q698.802 26.1121 708.564 26.1121 Z" fill="#000000" fill-rule="evenodd" fill-opacity="1" /><path clip-path="url(#clip740)" d="M 0 0 M749.114 14.324 L749.114 27.2059 L764.467 27.2059 L764.467 32.9987 L749.114 32.9987 L749.114 57.6282 Q749.114 63.1779 750.613 64.7578 Q752.152 66.3376 756.81 66.3376 L764.467 66.3376 L764.467 72.576 L756.81 72.576 Q748.182 72.576 744.901 69.3758 Q741.62 66.1351 741.62 57.6282 L741.62 32.9987 L736.151 32.9987 L736.151 27.2059 L741.62 27.2059 L741.62 14.324 L749.114 14.324 Z" fill="#000000" fill-rule="evenodd" fill-opacity="1" /><path clip-path="url(#clip740)" d="M 0 0 M791.851 32.4315 Q785.855 32.4315 782.372 37.1306 Q778.888 41.7891 778.888 49.9314 Q778.888 58.0738 782.331 62.7728 Q785.815 67.4314 791.851 67.4314 Q797.806 67.4314 801.289 62.7323 Q804.773 58.0333 804.773 49.9314 Q804.773 41.8701 801.289 37.1711 Q797.806 32.4315 791.851 32.4315 M791.851 26.1121 Q801.573 26.1121 807.123 32.4315 Q812.672 38.7509 812.672 49.9314 Q812.672 61.0714 807.123 67.4314 Q801.573 73.7508 791.851 73.7508 Q782.088 73.7508 776.538 67.4314 Q771.029 61.0714 771.029 49.9314 Q771.029 38.7509 776.538 32.4315 Q782.088 26.1121 791.851 26.1121 Z" fill="#000000" fill-rule="evenodd" fill-opacity="1" /><path clip-path="url(#clip740)" d="M 0 0 M862.742 45.1919 L862.742 72.576 L855.288 72.576 L855.288 45.4349 Q855.288 38.994 852.776 35.7938 Q850.265 32.5936 845.242 32.5936 Q839.206 32.5936 835.722 36.4419 Q832.238 40.2903 832.238 46.9338 L832.238 72.576 L824.744 72.576 L824.744 27.2059 L832.238 27.2059 L832.238 34.2544 Q834.912 30.163 838.517 28.1376 Q842.163 26.1121 846.903 26.1121 Q854.721 26.1121 858.731 30.9732 Q862.742 35.7938 862.742 45.1919 Z" fill="#000000" fill-rule="evenodd" fill-opacity="1" /><path clip-path="url(#clip740)" d="M 0 0 M949.593 16.7545 L949.593 25.383 Q945.461 21.5346 940.762 19.6307 Q936.103 17.7268 930.837 17.7268 Q920.467 17.7268 914.958 24.0867 Q909.449 30.4061 909.449 42.3968 Q909.449 54.3469 914.958 60.7069 Q920.467 67.0263 930.837 67.0263 Q936.103 67.0263 940.762 65.1223 Q945.461 63.2184 949.593 59.3701 L949.593 67.9175 Q945.299 70.8341 940.478 72.2924 Q935.698 73.7508 930.351 73.7508 Q916.619 73.7508 908.719 65.3654 Q900.82 56.9395 900.82 42.3968 Q900.82 27.8135 908.719 19.4281 Q916.619 11.0023 930.351 11.0023 Q935.779 11.0023 940.559 12.4606 Q945.38 13.8784 949.593 16.7545 Z" fill="#000000" fill-rule="evenodd" fill-opacity="1" /><path clip-path="url(#clip740)" d="M 0 0 M979.489 32.4315 Q973.493 32.4315 970.01 37.1306 Q966.526 41.7891 966.526 49.9314 Q966.526 58.0738 969.969 62.7728 Q973.453 67.4314 979.489 67.4314 Q985.443 67.4314 988.927 62.7323 Q992.411 58.0333 992.411 49.9314 Q992.411 41.8701 988.927 37.1711 Q985.443 32.4315 979.489 32.4315 M979.489 26.1121 Q989.211 26.1121 994.761 32.4315 Q1000.31 38.7509 1000.31 49.9314 Q1000.31 61.0714 994.761 67.4314 Q989.211 73.7508 979.489 73.7508 Q969.726 73.7508 964.176 67.4314 Q958.667 61.0714 958.667 49.9314 Q958.667 38.7509 964.176 32.4315 Q969.726 26.1121 979.489 26.1121 Z" fill="#000000" fill-rule="evenodd" fill-opacity="1" /><path clip-path="url(#clip740)" d="M 0 0 M1038.96 34.1734 Q1037.7 33.4443 1036.2 33.1202 Q1034.74 32.7556 1032.96 32.7556 Q1026.64 32.7556 1023.24 36.8875 Q1019.88 40.9789 1019.88 48.6757 L1019.88 72.576 L1012.38 72.576 L1012.38 27.2059 L1019.88 27.2059 L1019.88 34.2544 Q1022.23 30.1225 1025.99 28.1376 Q1029.76 26.1121 1035.15 26.1121 Q1035.92 26.1121 1036.85 26.2337 Q1037.78 26.3147 1038.92 26.5172 L1038.96 34.1734 Z" fill="#000000" fill-rule="evenodd" fill-opacity="1" /><path clip-path="url(#clip740)" d="M 0 0 M1071.61 34.1734 Q1070.35 33.4443 1068.85 33.1202 Q1067.39 32.7556 1065.61 32.7556 Q1059.29 32.7556 1055.89 36.8875 Q1052.53 40.9789 1052.53 48.6757 L1052.53 72.576 L1045.03 72.576 L1045.03 27.2059 L1052.53 27.2059 L1052.53 34.2544 Q1054.88 30.1225 1058.64 28.1376 Q1062.41 26.1121 1067.8 26.1121 Q1068.57 26.1121 1069.5 26.2337 Q1070.43 26.3147 1071.57 26.5172 L1071.61 34.1734 Z" fill="#000000" fill-rule="evenodd" fill-opacity="1" /><path clip-path="url(#clip740)" d="M 0 0 M1116.41 48.0275 L1116.41 51.6733 L1082.14 51.6733 Q1082.62 59.3701 1086.76 63.421 Q1090.93 67.4314 1098.34 67.4314 Q1102.64 67.4314 1106.65 66.3781 Q1110.7 65.3249 1114.67 63.2184 L1114.67 70.267 Q1110.66 71.9684 1106.44 72.8596 Q1102.23 73.7508 1097.9 73.7508 Q1087.04 73.7508 1080.68 67.4314 Q1074.36 61.1119 1074.36 50.3365 Q1074.36 39.1965 1080.36 32.6746 Q1086.39 26.1121 1096.6 26.1121 Q1105.76 26.1121 1111.06 32.0264 Q1116.41 37.9003 1116.41 48.0275 M1108.96 45.84 Q1108.87 39.7232 1105.51 36.0774 Q1102.19 32.4315 1096.68 32.4315 Q1090.44 32.4315 1086.68 35.9558 Q1082.95 39.4801 1082.38 45.8805 L1108.96 45.84 Z" fill="#000000" fill-rule="evenodd" fill-opacity="1" /><path clip-path="url(#clip740)" d="M 0 0 M1128.64 9.54393 L1136.1 9.54393 L1136.1 72.576 L1128.64 72.576 L1128.64 9.54393 Z" fill="#000000" fill-rule="evenodd" fill-opacity="1" /><path clip-path="url(#clip740)" d="M 0 0 M1172.31 49.7694 Q1163.28 49.7694 1159.79 51.8354 Q1156.31 53.9013 1156.31 58.8839 Q1156.31 62.8538 1158.9 65.2034 Q1161.54 67.5124 1166.03 67.5124 Q1172.23 67.5124 1175.96 63.1374 Q1179.72 58.7219 1179.72 51.4303 L1179.72 49.7694 L1172.31 49.7694 M1187.18 46.6907 L1187.18 72.576 L1179.72 72.576 L1179.72 65.6895 Q1177.17 69.8214 1173.36 71.8063 Q1169.56 73.7508 1164.05 73.7508 Q1157.08 73.7508 1152.95 69.8619 Q1148.86 65.9325 1148.86 59.3701 Q1148.86 51.7138 1153.96 47.825 Q1159.11 43.9361 1169.27 43.9361 L1179.72 43.9361 L1179.72 43.2069 Q1179.72 38.0623 1176.32 35.2672 Q1172.96 32.4315 1166.84 32.4315 Q1162.95 32.4315 1159.27 33.3632 Q1155.58 34.295 1152.18 36.1584 L1152.18 29.2718 Q1156.27 27.692 1160.12 26.9223 Q1163.97 26.1121 1167.61 26.1121 Q1177.46 26.1121 1182.32 31.2163 Q1187.18 36.3204 1187.18 46.6907 Z" fill="#000000" fill-rule="evenodd" fill-opacity="1" /><path clip-path="url(#clip740)" d="M 0 0 M1209.9 14.324 L1209.9 27.2059 L1225.26 27.2059 L1225.26 32.9987 L1209.9 32.9987 L1209.9 57.6282 Q1209.9 63.1779 1211.4 64.7578 Q1212.94 66.3376 1217.6 66.3376 L1225.26 66.3376 L1225.26 72.576 L1217.6 72.576 Q1208.97 72.576 1205.69 69.3758 Q1202.41 66.1351 1202.41 57.6282 L1202.41 32.9987 L1196.94 32.9987 L1196.94 27.2059 L1202.41 27.2059 L1202.41 14.324 L1209.9 14.324 Z" fill="#000000" fill-rule="evenodd" fill-opacity="1" /><path clip-path="url(#clip740)" d="M 0 0 M1235.06 27.2059 L1242.51 27.2059 L1242.51 72.576 L1235.06 72.576 L1235.06 27.2059 M1235.06 9.54393 L1242.51 9.54393 L1242.51 18.9825 L1235.06 18.9825 L1235.06 9.54393 Z" fill="#000000" fill-rule="evenodd" fill-opacity="1" /><path clip-path="url(#clip740)" d="M 0 0 M1275.69 32.4315 Q1269.7 32.4315 1266.21 37.1306 Q1262.73 41.7891 1262.73 49.9314 Q1262.73 58.0738 1266.17 62.7728 Q1269.65 67.4314 1275.69 67.4314 Q1281.65 67.4314 1285.13 62.7323 Q1288.61 58.0333 1288.61 49.9314 Q1288.61 41.8701 1285.13 37.1711 Q1281.65 32.4315 1275.69 32.4315 M1275.69 26.1121 Q1285.41 26.1121 1290.96 32.4315 Q1296.51 38.7509 1296.51 49.9314 Q1296.51 61.0714 1290.96 67.4314 Q1285.41 73.7508 1275.69 73.7508 Q1265.93 73.7508 1260.38 67.4314 Q1254.87 61.0714 1254.87 49.9314 Q1254.87 38.7509 1260.38 32.4315 Q1265.93 26.1121 1275.69 26.1121 Z" fill="#000000" fill-rule="evenodd" fill-opacity="1" /><path clip-path="url(#clip740)" d="M 0 0 M1346.58 45.1919 L1346.58 72.576 L1339.13 72.576 L1339.13 45.4349 Q1339.13 38.994 1336.62 35.7938 Q1334.1 32.5936 1329.08 32.5936 Q1323.05 32.5936 1319.56 36.4419 Q1316.08 40.2903 1316.08 46.9338 L1316.08 72.576 L1308.58 72.576 L1308.58 27.2059 L1316.08 27.2059 L1316.08 34.2544 Q1318.75 30.163 1322.36 28.1376 Q1326 26.1121 1330.74 26.1121 Q1338.56 26.1121 1342.57 30.9732 Q1346.58 35.7938 1346.58 45.1919 Z" fill="#000000" fill-rule="evenodd" fill-opacity="1" /><path clip-path="url(#clip740)" d="M 0 0 M1390.37 28.5427 L1390.37 35.5912 Q1387.21 33.9709 1383.81 33.1607 Q1380.41 32.3505 1376.76 32.3505 Q1371.21 32.3505 1368.42 34.0519 Q1365.66 35.7533 1365.66 39.156 Q1365.66 41.7486 1367.65 43.2475 Q1369.63 44.7058 1375.63 46.0426 L1378.18 46.6097 Q1386.12 48.3111 1389.44 51.4303 Q1392.8 54.509 1392.8 60.0587 Q1392.8 66.3781 1387.78 70.0644 Q1382.8 73.7508 1374.05 73.7508 Q1370.4 73.7508 1366.43 73.0216 Q1362.5 72.3329 1358.13 70.9151 L1358.13 63.2184 Q1362.26 65.3654 1366.27 66.4591 Q1370.28 67.5124 1374.21 67.5124 Q1379.47 67.5124 1382.31 65.73 Q1385.15 63.9071 1385.15 60.6258 Q1385.15 57.5877 1383.08 55.9673 Q1381.05 54.3469 1374.13 52.8481 L1371.54 52.2405 Q1364.61 50.7821 1361.53 47.7845 Q1358.45 44.7463 1358.45 39.4801 Q1358.45 33.0797 1362.99 29.5959 Q1367.52 26.1121 1375.87 26.1121 Q1380 26.1121 1383.65 26.7198 Q1387.29 27.3274 1390.37 28.5427 Z" fill="#000000" fill-rule="evenodd" fill-opacity="1" /><path clip-path="url(#clip740)" d="M 0 0 M1425.7 27.2059 L1433.6 27.2059 L1447.77 65.2844 L1461.95 27.2059 L1469.85 27.2059 L1452.84 72.576 L1442.71 72.576 L1425.7 27.2059 Z" fill="#000000" fill-rule="evenodd" fill-opacity="1" /><path clip-path="url(#clip740)" d="M 0 0 M1509.06 28.5427 L1509.06 35.5912 Q1505.9 33.9709 1502.5 33.1607 Q1499.1 32.3505 1495.45 32.3505 Q1489.9 32.3505 1487.11 34.0519 Q1484.35 35.7533 1484.35 39.156 Q1484.35 41.7486 1486.34 43.2475 Q1488.32 44.7058 1494.32 46.0426 L1496.87 46.6097 Q1504.81 48.3111 1508.13 51.4303 Q1511.49 54.509 1511.49 60.0587 Q1511.49 66.3781 1506.47 70.0644 Q1501.49 73.7508 1492.74 73.7508 Q1489.09 73.7508 1485.12 73.0216 Q1481.19 72.3329 1476.82 70.9151 L1476.82 63.2184 Q1480.95 65.3654 1484.96 66.4591 Q1488.97 67.5124 1492.9 67.5124 Q1498.17 67.5124 1501 65.73 Q1503.84 63.9071 1503.84 60.6258 Q1503.84 57.5877 1501.77 55.9673 Q1499.75 54.3469 1492.82 52.8481 L1490.23 52.2405 Q1483.3 50.7821 1480.22 47.7845 Q1477.14 44.7463 1477.14 39.4801 Q1477.14 33.0797 1481.68 29.5959 Q1486.22 26.1121 1494.56 26.1121 Q1498.69 26.1121 1502.34 26.7198 Q1505.98 27.3274 1509.06 28.5427 Z" fill="#000000" fill-rule="evenodd" fill-opacity="1" /><path clip-path="url(#clip740)" d="M 0 0 M1541.67 12.096 L1592.84 12.096 L1592.84 18.9825 L1571.37 18.9825 L1571.37 72.576 L1563.14 72.576 L1563.14 18.9825 L1541.67 18.9825 L1541.67 12.096 Z" fill="#000000" fill-rule="evenodd" fill-opacity="1" /><path clip-path="url(#clip740)" d="M 0 0 M1597.86 27.2059 L1605.31 27.2059 L1605.31 72.576 L1597.86 72.576 L1597.86 27.2059 M1597.86 9.54393 L1605.31 9.54393 L1605.31 18.9825 L1597.86 18.9825 L1597.86 9.54393 Z" fill="#000000" fill-rule="evenodd" fill-opacity="1" /><path clip-path="url(#clip740)" d="M 0 0 M1656.23 35.9153 Q1659.03 30.8922 1662.92 28.5022 Q1666.81 26.1121 1672.07 26.1121 Q1679.16 26.1121 1683.01 31.0947 Q1686.86 36.0368 1686.86 45.1919 L1686.86 72.576 L1679.36 72.576 L1679.36 45.4349 Q1679.36 38.913 1677.05 35.7533 Q1674.75 32.5936 1670.01 32.5936 Q1664.21 32.5936 1660.85 36.4419 Q1657.49 40.2903 1657.49 46.9338 L1657.49 72.576 L1649.99 72.576 L1649.99 45.4349 Q1649.99 38.8725 1647.69 35.7533 Q1645.38 32.5936 1640.56 32.5936 Q1634.84 32.5936 1631.48 36.4824 Q1628.12 40.3308 1628.12 46.9338 L1628.12 72.576 L1620.63 72.576 L1620.63 27.2059 L1628.12 27.2059 L1628.12 34.2544 Q1630.67 30.082 1634.24 28.0971 Q1637.8 26.1121 1642.7 26.1121 Q1647.64 26.1121 1651.09 28.6237 Q1654.57 31.1352 1656.23 35.9153 Z" fill="#000000" fill-rule="evenodd" fill-opacity="1" /><path clip-path="url(#clip740)" d="M 0 0 M1740.53 48.0275 L1740.53 51.6733 L1706.26 51.6733 Q1706.75 59.3701 1710.88 63.421 Q1715.05 67.4314 1722.47 67.4314 Q1726.76 67.4314 1730.77 66.3781 Q1734.82 65.3249 1738.79 63.2184 L1738.79 70.267 Q1734.78 71.9684 1730.57 72.8596 Q1726.35 73.7508 1722.02 73.7508 Q1711.16 73.7508 1704.8 67.4314 Q1698.48 61.1119 1698.48 50.3365 Q1698.48 39.1965 1704.48 32.6746 Q1710.51 26.1121 1720.72 26.1121 Q1729.88 26.1121 1735.18 32.0264 Q1740.53 37.9003 1740.53 48.0275 M1733.08 45.84 Q1733 39.7232 1729.64 36.0774 Q1726.31 32.4315 1720.8 32.4315 Q1714.57 32.4315 1710.8 35.9558 Q1707.07 39.4801 1706.5 45.8805 L1733.08 45.84 Z" fill="#000000" fill-rule="evenodd" fill-opacity="1" /><path clip-path="url(#clip740)" d="M 0 0 M1804.01 17.6457 Q1795.1 17.6457 1789.83 24.2892 Q1784.61 30.9327 1784.61 42.3968 Q1784.61 53.8203 1789.83 60.4638 Q1795.1 67.1073 1804.01 67.1073 Q1812.92 67.1073 1818.11 60.4638 Q1823.33 53.8203 1823.33 42.3968 Q1823.33 30.9327 1818.11 24.2892 Q1812.92 17.6457 1804.01 17.6457 M1804.01 11.0023 Q1816.73 11.0023 1824.35 19.5497 Q1831.96 28.0566 1831.96 42.3968 Q1831.96 56.6965 1824.35 65.2439 Q1816.73 73.7508 1804.01 73.7508 Q1791.25 73.7508 1783.59 65.2439 Q1775.98 56.737 1775.98 42.3968 Q1775.98 28.0566 1783.59 19.5497 Q1791.25 11.0023 1804.01 11.0023 Z" fill="#000000" fill-rule="evenodd" fill-opacity="1" /><path clip-path="url(#clip740)" d="M 0 0 M1867.41 9.54393 L1867.41 15.7418 L1860.28 15.7418 Q1856.27 15.7418 1854.69 17.3622 Q1853.15 18.9825 1853.15 23.1955 L1853.15 27.2059 L1865.42 27.2059 L1865.42 32.9987 L1853.15 32.9987 L1853.15 72.576 L1845.65 72.576 L1845.65 32.9987 L1838.52 32.9987 L1838.52 27.2059 L1845.65 27.2059 L1845.65 24.0462 Q1845.65 16.471 1849.18 13.0277 Q1852.7 9.54393 1860.36 9.54393 L1867.41 9.54393 Z" fill="#000000" fill-rule="evenodd" fill-opacity="1" /><path clip-path="url(#clip740)" d="M 0 0 M1896.61 9.54393 L1896.61 15.7418 L1889.48 15.7418 Q1885.47 15.7418 1883.89 17.3622 Q1882.35 18.9825 1882.35 23.1955 L1882.35 27.2059 L1894.63 27.2059 L1894.63 32.9987 L1882.35 32.9987 L1882.35 72.576 L1874.86 72.576 L1874.86 32.9987 L1867.73 32.9987 L1867.73 27.2059 L1874.86 27.2059 L1874.86 24.0462 Q1874.86 16.471 1878.38 13.0277 Q1881.91 9.54393 1889.56 9.54393 L1896.61 9.54393 Z" fill="#000000" fill-rule="evenodd" fill-opacity="1" /><path clip-path="url(#clip740)" d="M 0 0 M1931.78 28.5427 L1931.78 35.5912 Q1928.62 33.9709 1925.21 33.1607 Q1921.81 32.3505 1918.16 32.3505 Q1912.61 32.3505 1909.82 34.0519 Q1907.06 35.7533 1907.06 39.156 Q1907.06 41.7486 1909.05 43.2475 Q1911.03 44.7058 1917.03 46.0426 L1919.58 46.6097 Q1927.52 48.3111 1930.84 51.4303 Q1934.21 54.509 1934.21 60.0587 Q1934.21 66.3781 1929.18 70.0644 Q1924.2 73.7508 1915.45 73.7508 Q1911.8 73.7508 1907.83 73.0216 Q1903.91 72.3329 1899.53 70.9151 L1899.53 63.2184 Q1903.66 65.3654 1907.67 66.4591 Q1911.68 67.5124 1915.61 67.5124 Q1920.88 67.5124 1923.71 65.73 Q1926.55 63.9071 1926.55 60.6258 Q1926.55 57.5877 1924.48 55.9673 Q1922.46 54.3469 1915.53 52.8481 L1912.94 52.2405 Q1906.01 50.7821 1902.93 47.7845 Q1899.85 44.7463 1899.85 39.4801 Q1899.85 33.0797 1904.39 29.5959 Q1908.93 26.1121 1917.27 26.1121 Q1921.4 26.1121 1925.05 26.7198 Q1928.7 27.3274 1931.78 28.5427 Z" fill="#000000" fill-rule="evenodd" fill-opacity="1" /><path clip-path="url(#clip740)" d="M 0 0 M1984.88 48.0275 L1984.88 51.6733 L1950.61 51.6733 Q1951.1 59.3701 1955.23 63.421 Q1959.4 67.4314 1966.82 67.4314 Q1971.11 67.4314 1975.12 66.3781 Q1979.17 65.3249 1983.14 63.2184 L1983.14 70.267 Q1979.13 71.9684 1974.92 72.8596 Q1970.7 73.7508 1966.37 73.7508 Q1955.51 73.7508 1949.15 67.4314 Q1942.83 61.1119 1942.83 50.3365 Q1942.83 39.1965 1948.83 32.6746 Q1954.87 26.1121 1965.07 26.1121 Q1974.23 26.1121 1979.54 32.0264 Q1984.88 37.9003 1984.88 48.0275 M1977.43 45.84 Q1977.35 39.7232 1973.99 36.0774 Q1970.66 32.4315 1965.15 32.4315 Q1958.92 32.4315 1955.15 35.9558 Q1951.42 39.4801 1950.85 45.8805 L1977.43 45.84 Z" fill="#000000" fill-rule="evenodd" fill-opacity="1" /><path clip-path="url(#clip740)" d="M 0 0 M2004.49 14.324 L2004.49 27.2059 L2019.84 27.2059 L2019.84 32.9987 L2004.49 32.9987 L2004.49 57.6282 Q2004.49 63.1779 2005.99 64.7578 Q2007.53 66.3376 2012.19 66.3376 L2019.84 66.3376 L2019.84 72.576 L2012.19 72.576 Q2003.56 72.576 2000.28 69.3758 Q1996.99 66.1351 1996.99 57.6282 L1996.99 32.9987 L1991.53 32.9987 L1991.53 27.2059 L1996.99 27.2059 L1996.99 14.324 L2004.49 14.324 Z" fill="#000000" fill-rule="evenodd" fill-opacity="1" /></svg>
