<?xml version="1.0" encoding="utf-8"?>
<svg xmlns="http://www.w3.org/2000/svg" xmlns:xlink="http://www.w3.org/1999/xlink" width="600" height="400" viewBox="0 0 2400 1600">
<defs>
  <clipPath id="clip130">
    <rect x="0" y="0" width="2400" height="1600"/>
  </clipPath>
</defs>
<path clip-path="url(#clip130)" d="
M0 1600 L2400 1600 L2400 0 L0 0  Z
  " fill="#ffffff" fill-rule="evenodd" fill-opacity="1"/>
<defs>
  <clipPath id="clip131">
    <rect x="480" y="0" width="1681" height="1600"/>
  </clipPath>
</defs>
<defs>
  <clipPath id="clip132">
    <rect x="181" y="123" width="2172" height="1305"/>
  </clipPath>
</defs>
<path clip-path="url(#clip130)" d="
M267.494 1427.15 L2352.76 1427.15 L2352.76 123.472 L267.494 123.472  Z
  " fill="#ffffff" fill-rule="evenodd" fill-opacity="1"/>
<defs>
  <clipPath id="clip133">
    <rect x="267" y="123" width="2086" height="1305"/>
  </clipPath>
</defs>
<polyline clip-path="url(#clip133)" style="stroke:#000000; stroke-width:2; stroke-opacity:0.1; fill:none" points="
  326.511,1427.15 326.511,123.472 
  "/>
<polyline clip-path="url(#clip133)" style="stroke:#000000; stroke-width:2; stroke-opacity:0.1; fill:none" points="
  820.293,1427.15 820.293,123.472 
  "/>
<polyline clip-path="url(#clip133)" style="stroke:#000000; stroke-width:2; stroke-opacity:0.1; fill:none" points="
  1314.08,1427.15 1314.08,123.472 
  "/>
<polyline clip-path="url(#clip133)" style="stroke:#000000; stroke-width:2; stroke-opacity:0.1; fill:none" points="
  1807.86,1427.15 1807.86,123.472 
  "/>
<polyline clip-path="url(#clip133)" style="stroke:#000000; stroke-width:2; stroke-opacity:0.1; fill:none" points="
  2301.64,1427.15 2301.64,123.472 
  "/>
<polyline clip-path="url(#clip130)" style="stroke:#000000; stroke-width:4; stroke-opacity:1; fill:none" points="
  267.494,1427.15 2352.76,1427.15 
  "/>
<polyline clip-path="url(#clip130)" style="stroke:#000000; stroke-width:4; stroke-opacity:1; fill:none" points="
  326.511,1427.15 326.511,1411.5 
  "/>
<polyline clip-path="url(#clip130)" style="stroke:#000000; stroke-width:4; stroke-opacity:1; fill:none" points="
  820.293,1427.15 820.293,1411.5 
  "/>
<polyline clip-path="url(#clip130)" style="stroke:#000000; stroke-width:4; stroke-opacity:1; fill:none" points="
  1314.08,1427.15 1314.08,1411.5 
  "/>
<polyline clip-path="url(#clip130)" style="stroke:#000000; stroke-width:4; stroke-opacity:1; fill:none" points="
  1807.86,1427.15 1807.86,1411.5 
  "/>
<polyline clip-path="url(#clip130)" style="stroke:#000000; stroke-width:4; stroke-opacity:1; fill:none" points="
  2301.64,1427.15 2301.64,1411.5 
  "/>
<path clip-path="url(#clip130)" d="M 0 0 M303.896 1456.34 Q300.285 1456.34 298.456 1459.9 Q296.65 1463.44 296.65 1470.57 Q296.65 1477.68 298.456 1481.25 Q300.285 1484.79 303.896 1484.79 Q307.53 1484.79 309.335 1481.25 Q311.164 1477.68 311.164 1470.57 Q311.164 1463.44 309.335 1459.9 Q307.53 1456.34 303.896 1456.34 M303.896 1452.63 Q309.706 1452.63 312.761 1457.24 Q315.84 1461.82 315.84 1470.57 Q315.84 1479.3 312.761 1483.91 Q309.706 1488.49 303.896 1488.49 Q298.086 1488.49 295.007 1483.91 Q291.951 1479.3 291.951 1470.57 Q291.951 1461.82 295.007 1457.24 Q298.086 1452.63 303.896 1452.63 Z" fill="#000000" fill-rule="evenodd" fill-opacity="1" /><path clip-path="url(#clip130)" d="M 0 0 M324.058 1481.94 L328.942 1481.94 L328.942 1487.82 L324.058 1487.82 L324.058 1481.94 Z" fill="#000000" fill-rule="evenodd" fill-opacity="1" /><path clip-path="url(#clip130)" d="M 0 0 M349.127 1456.34 Q345.516 1456.34 343.687 1459.9 Q341.882 1463.44 341.882 1470.57 Q341.882 1477.68 343.687 1481.25 Q345.516 1484.79 349.127 1484.79 Q352.761 1484.79 354.567 1481.25 Q356.395 1477.68 356.395 1470.57 Q356.395 1463.44 354.567 1459.9 Q352.761 1456.34 349.127 1456.34 M349.127 1452.63 Q354.937 1452.63 357.993 1457.24 Q361.071 1461.82 361.071 1470.57 Q361.071 1479.3 357.993 1483.91 Q354.937 1488.49 349.127 1488.49 Q343.317 1488.49 340.238 1483.91 Q337.183 1479.3 337.183 1470.57 Q337.183 1461.82 340.238 1457.24 Q343.317 1452.63 349.127 1452.63 Z" fill="#000000" fill-rule="evenodd" fill-opacity="1" /><path clip-path="url(#clip130)" d="M 0 0 M792.03 1483.88 L808.349 1483.88 L808.349 1487.82 L786.405 1487.82 L786.405 1483.88 Q789.067 1481.13 793.65 1476.5 Q798.256 1471.85 799.437 1470.51 Q801.682 1467.98 802.562 1466.25 Q803.465 1464.49 803.465 1462.8 Q803.465 1460.04 801.52 1458.31 Q799.599 1456.57 796.497 1456.57 Q794.298 1456.57 791.844 1457.33 Q789.414 1458.1 786.636 1459.65 L786.636 1454.93 Q789.46 1453.79 791.914 1453.21 Q794.368 1452.63 796.405 1452.63 Q801.775 1452.63 804.969 1455.32 Q808.164 1458.01 808.164 1462.5 Q808.164 1464.63 807.354 1466.55 Q806.567 1468.44 804.46 1471.04 Q803.881 1471.71 800.78 1474.93 Q797.678 1478.12 792.03 1483.88 Z" fill="#000000" fill-rule="evenodd" fill-opacity="1" /><path clip-path="url(#clip130)" d="M 0 0 M818.164 1481.94 L823.048 1481.94 L823.048 1487.82 L818.164 1487.82 L818.164 1481.94 Z" fill="#000000" fill-rule="evenodd" fill-opacity="1" /><path clip-path="url(#clip130)" d="M 0 0 M833.279 1453.26 L851.636 1453.26 L851.636 1457.19 L837.562 1457.19 L837.562 1465.67 Q838.58 1465.32 839.599 1465.16 Q840.617 1464.97 841.636 1464.97 Q847.423 1464.97 850.802 1468.14 Q854.182 1471.32 854.182 1476.73 Q854.182 1482.31 850.71 1485.41 Q847.238 1488.49 840.918 1488.49 Q838.742 1488.49 836.474 1488.12 Q834.228 1487.75 831.821 1487.01 L831.821 1482.31 Q833.904 1483.44 836.127 1484 Q838.349 1484.56 840.826 1484.56 Q844.83 1484.56 847.168 1482.45 Q849.506 1480.34 849.506 1476.73 Q849.506 1473.12 847.168 1471.01 Q844.83 1468.91 840.826 1468.91 Q838.951 1468.91 837.076 1469.32 Q835.224 1469.74 833.279 1470.62 L833.279 1453.26 Z" fill="#000000" fill-rule="evenodd" fill-opacity="1" /><path clip-path="url(#clip130)" d="M 0 0 M1281.24 1453.26 L1299.6 1453.26 L1299.6 1457.19 L1285.52 1457.19 L1285.52 1465.67 Q1286.54 1465.32 1287.56 1465.16 Q1288.58 1464.97 1289.6 1464.97 Q1295.38 1464.97 1298.76 1468.14 Q1302.14 1471.32 1302.14 1476.73 Q1302.14 1482.31 1298.67 1485.41 Q1295.2 1488.49 1288.88 1488.49 Q1286.7 1488.49 1284.43 1488.12 Q1282.19 1487.75 1279.78 1487.01 L1279.78 1482.31 Q1281.86 1483.44 1284.09 1484 Q1286.31 1484.56 1288.79 1484.56 Q1292.79 1484.56 1295.13 1482.45 Q1297.47 1480.34 1297.47 1476.73 Q1297.47 1473.12 1295.13 1471.01 Q1292.79 1468.91 1288.79 1468.91 Q1286.91 1468.91 1285.04 1469.32 Q1283.18 1469.74 1281.24 1470.62 L1281.24 1453.26 Z" fill="#000000" fill-rule="evenodd" fill-opacity="1" /><path clip-path="url(#clip130)" d="M 0 0 M1311.36 1481.94 L1316.24 1481.94 L1316.24 1487.82 L1311.36 1487.82 L1311.36 1481.94 Z" fill="#000000" fill-rule="evenodd" fill-opacity="1" /><path clip-path="url(#clip130)" d="M 0 0 M1336.42 1456.34 Q1332.81 1456.34 1330.99 1459.9 Q1329.18 1463.44 1329.18 1470.57 Q1329.18 1477.68 1330.99 1481.25 Q1332.81 1484.79 1336.42 1484.79 Q1340.06 1484.79 1341.86 1481.25 Q1343.69 1477.68 1343.69 1470.57 Q1343.69 1463.44 1341.86 1459.9 Q1340.06 1456.34 1336.42 1456.34 M1336.42 1452.63 Q1342.24 1452.63 1345.29 1457.24 Q1348.37 1461.82 1348.37 1470.57 Q1348.37 1479.3 1345.29 1483.91 Q1342.24 1488.49 1336.42 1488.49 Q1330.61 1488.49 1327.54 1483.91 Q1324.48 1479.3 1324.48 1470.57 Q1324.48 1461.82 1327.54 1457.24 Q1330.61 1452.63 1336.42 1452.63 Z" fill="#000000" fill-rule="evenodd" fill-opacity="1" /><path clip-path="url(#clip130)" d="M 0 0 M1774.18 1453.26 L1796.4 1453.26 L1796.4 1455.25 L1783.85 1487.82 L1778.97 1487.82 L1790.77 1457.19 L1774.18 1457.19 L1774.18 1453.26 Z" fill="#000000" fill-rule="evenodd" fill-opacity="1" /><path clip-path="url(#clip130)" d="M 0 0 M1805.52 1481.94 L1810.4 1481.94 L1810.4 1487.82 L1805.52 1487.82 L1805.52 1481.94 Z" fill="#000000" fill-rule="evenodd" fill-opacity="1" /><path clip-path="url(#clip130)" d="M 0 0 M1820.64 1453.26 L1838.99 1453.26 L1838.99 1457.19 L1824.92 1457.19 L1824.92 1465.67 Q1825.94 1465.32 1826.95 1465.16 Q1827.97 1464.97 1828.99 1464.97 Q1834.78 1464.97 1838.16 1468.14 Q1841.54 1471.32 1841.54 1476.73 Q1841.54 1482.31 1838.07 1485.41 Q1834.59 1488.49 1828.27 1488.49 Q1826.1 1488.49 1823.83 1488.12 Q1821.58 1487.75 1819.18 1487.01 L1819.18 1482.31 Q1821.26 1483.44 1823.48 1484 Q1825.7 1484.56 1828.18 1484.56 Q1832.19 1484.56 1834.52 1482.45 Q1836.86 1480.34 1836.86 1476.73 Q1836.86 1473.12 1834.52 1471.01 Q1832.19 1468.91 1828.18 1468.91 Q1826.31 1468.91 1824.43 1469.32 Q1822.58 1469.74 1820.64 1470.62 L1820.64 1453.26 Z" fill="#000000" fill-rule="evenodd" fill-opacity="1" /><path clip-path="url(#clip130)" d="M 0 0 M2253.71 1483.88 L2261.35 1483.88 L2261.35 1457.52 L2253.04 1459.19 L2253.04 1454.93 L2261.3 1453.26 L2265.98 1453.26 L2265.98 1483.88 L2273.62 1483.88 L2273.62 1487.82 L2253.71 1487.82 L2253.71 1483.88 Z" fill="#000000" fill-rule="evenodd" fill-opacity="1" /><path clip-path="url(#clip130)" d="M 0 0 M2293.06 1456.34 Q2289.45 1456.34 2287.62 1459.9 Q2285.82 1463.44 2285.82 1470.57 Q2285.82 1477.68 2287.62 1481.25 Q2289.45 1484.79 2293.06 1484.79 Q2296.7 1484.79 2298.5 1481.25 Q2300.33 1477.68 2300.33 1470.57 Q2300.33 1463.44 2298.5 1459.9 Q2296.7 1456.34 2293.06 1456.34 M2293.06 1452.63 Q2298.87 1452.63 2301.93 1457.24 Q2305.01 1461.82 2305.01 1470.57 Q2305.01 1479.3 2301.93 1483.91 Q2298.87 1488.49 2293.06 1488.49 Q2287.25 1488.49 2284.17 1483.91 Q2281.12 1479.3 2281.12 1470.57 Q2281.12 1461.82 2284.17 1457.24 Q2287.25 1452.63 2293.06 1452.63 Z" fill="#000000" fill-rule="evenodd" fill-opacity="1" /><path clip-path="url(#clip130)" d="M 0 0 M2313.23 1481.94 L2318.11 1481.94 L2318.11 1487.82 L2313.23 1487.82 L2313.23 1481.94 Z" fill="#000000" fill-rule="evenodd" fill-opacity="1" /><path clip-path="url(#clip130)" d="M 0 0 M2338.29 1456.34 Q2334.68 1456.34 2332.85 1459.9 Q2331.05 1463.44 2331.05 1470.57 Q2331.05 1477.68 2332.85 1481.25 Q2334.68 1484.79 2338.29 1484.79 Q2341.93 1484.79 2343.73 1481.25 Q2345.56 1477.68 2345.56 1470.57 Q2345.56 1463.44 2343.73 1459.9 Q2341.93 1456.34 2338.29 1456.34 M2338.29 1452.63 Q2344.1 1452.63 2347.16 1457.24 Q2350.24 1461.82 2350.24 1470.57 Q2350.24 1479.3 2347.16 1483.91 Q2344.1 1488.49 2338.29 1488.49 Q2332.48 1488.49 2329.41 1483.91 Q2326.35 1479.3 2326.35 1470.57 Q2326.35 1461.82 2329.41 1457.24 Q2332.48 1452.63 2338.29 1452.63 Z" fill="#000000" fill-rule="evenodd" fill-opacity="1" /><path clip-path="url(#clip130)" d="M 0 0 M1260.65 1530.6 Q1260.65 1532.85 1257.4 1532.85 L1246.32 1532.85 L1241.91 1555.43 Q1241.81 1556.01 1241.68 1556.33 Q1241.59 1556.65 1241.3 1557.2 Q1241.04 1557.71 1240.49 1557.97 Q1239.98 1558.26 1239.2 1558.26 Q1238.24 1558.26 1237.75 1557.68 Q1237.3 1557.13 1237.3 1556.46 Q1237.3 1556.04 1237.95 1554.04 L1244.42 1532.85 L1238.95 1532.85 Q1233.79 1532.85 1230.57 1537.94 Q1230.06 1538.61 1229.77 1538.68 Q1229.64 1538.71 1229.51 1538.71 Q1229.16 1538.71 1228.93 1538.55 Q1228.74 1538.39 1228.74 1538.23 L1228.7 1538.07 Q1228.7 1537.84 1229.22 1536.94 Q1229.77 1536.01 1230.73 1534.62 Q1231.73 1533.24 1232.73 1532.14 Q1234.05 1530.72 1235.53 1529.98 Q1237.01 1529.21 1237.75 1529.11 Q1238.53 1529.02 1239.53 1529.02 L1258.01 1529.02 Q1258.85 1529.02 1259.3 1529.08 Q1259.75 1529.11 1260.2 1529.5 Q1260.65 1529.85 1260.65 1530.6 Z" fill="#000000" fill-rule="evenodd" fill-opacity="1" /><path clip-path="url(#clip130)" d="M 0 0 M1278.94 1540.97 Q1278.94 1529.82 1283.1 1520.84 Q1284.87 1517.07 1287.35 1513.91 Q1289.83 1510.76 1291.47 1509.37 Q1293.11 1507.99 1293.57 1507.99 Q1294.21 1507.99 1294.24 1508.63 Q1294.24 1508.95 1293.37 1509.76 Q1282.74 1520.58 1282.78 1540.97 Q1282.78 1561.42 1293.11 1571.82 Q1294.24 1572.95 1294.24 1573.3 Q1294.24 1573.94 1293.57 1573.94 Q1293.11 1573.94 1291.54 1572.62 Q1289.96 1571.3 1287.51 1568.28 Q1285.06 1565.25 1283.29 1561.55 Q1278.94 1552.56 1278.94 1540.97 Z" fill="#000000" fill-rule="evenodd" fill-opacity="1" /><path clip-path="url(#clip130)" d="M 0 0 M1304.27 1557.45 L1304.27 1555.43 Q1307.78 1555.43 1308.59 1555.01 Q1309.39 1554.56 1309.39 1552.43 L1309.39 1534.75 Q1309.39 1532.3 1308.52 1531.69 Q1307.69 1531.08 1304.27 1531.08 L1304.27 1529.02 L1313.55 1528.31 L1313.55 1535.23 Q1316.64 1528.31 1323.31 1528.31 Q1328.27 1528.31 1330.23 1530.76 Q1331.68 1532.4 1331.97 1534.23 Q1332.29 1536.07 1332.29 1540.84 L1332.29 1553.43 Q1332.36 1554.81 1333.42 1555.14 Q1334.48 1555.43 1337.44 1555.43 L1337.44 1557.45 Q1330.71 1557.26 1330.04 1557.26 Q1329.52 1557.26 1322.6 1557.45 L1322.6 1555.43 Q1326.11 1555.43 1326.91 1555.01 Q1327.75 1554.56 1327.75 1552.43 L1327.75 1537.07 Q1327.75 1533.72 1326.72 1531.75 Q1325.69 1529.76 1322.85 1529.76 Q1319.44 1529.76 1316.7 1532.62 Q1313.97 1535.49 1313.97 1540.32 L1313.97 1552.43 Q1313.97 1554.56 1314.77 1555.01 Q1315.61 1555.43 1319.09 1555.43 L1319.09 1557.45 Q1312.36 1557.26 1311.71 1557.26 Q1311.2 1557.26 1304.27 1557.45 Z" fill="#000000" fill-rule="evenodd" fill-opacity="1" /><path clip-path="url(#clip130)" d="M 0 0 M1340.51 1556.59 L1340.51 1547.89 Q1340.51 1547.15 1340.54 1546.89 Q1340.57 1546.63 1340.77 1546.44 Q1340.96 1546.25 1341.35 1546.25 Q1341.8 1546.25 1341.96 1546.44 Q1342.15 1546.63 1342.28 1547.37 Q1343.28 1551.92 1345.4 1554.33 Q1347.56 1556.71 1351.46 1556.71 Q1355.16 1556.71 1357.03 1555.07 Q1358.9 1553.43 1358.9 1550.72 Q1358.9 1545.89 1352.04 1544.67 Q1348.08 1543.86 1346.43 1543.35 Q1344.79 1542.8 1343.34 1541.61 Q1340.51 1539.29 1340.51 1536.01 Q1340.51 1532.72 1342.99 1530.31 Q1345.5 1527.89 1351.04 1527.89 Q1354.74 1527.89 1357.26 1529.76 Q1358 1529.18 1358.38 1528.7 Q1359.25 1527.89 1359.7 1527.89 Q1360.22 1527.89 1360.32 1528.24 Q1360.41 1528.57 1360.41 1529.5 L1360.41 1536.13 Q1360.41 1536.88 1360.38 1537.13 Q1360.35 1537.39 1360.15 1537.58 Q1359.96 1537.74 1359.54 1537.74 Q1358.8 1537.74 1358.77 1537.13 Q1358.25 1529.15 1351.04 1529.15 Q1347.14 1529.15 1345.4 1530.66 Q1343.66 1532.14 1343.66 1534.17 Q1343.66 1535.3 1344.18 1536.17 Q1344.73 1537 1345.4 1537.52 Q1346.11 1538 1347.4 1538.49 Q1348.69 1538.94 1349.46 1539.1 Q1350.27 1539.26 1351.78 1539.58 Q1357.06 1540.58 1359.28 1542.74 Q1362.05 1545.51 1362.05 1549.02 Q1362.05 1552.91 1359.41 1555.55 Q1356.77 1558.2 1351.46 1558.2 Q1347.18 1558.2 1344.18 1555.33 Q1343.79 1555.72 1343.5 1556.07 Q1343.21 1556.39 1343.08 1556.52 Q1342.99 1556.65 1342.96 1556.75 Q1342.92 1556.81 1342.86 1556.88 Q1341.54 1558.2 1341.22 1558.2 Q1340.7 1558.2 1340.61 1557.84 Q1340.51 1557.52 1340.51 1556.59 Z" fill="#000000" fill-rule="evenodd" fill-opacity="1" /><path clip-path="url(#clip130)" d="M 0 0 M1366.22 1573.3 Q1366.22 1572.98 1367.06 1572.17 Q1377.68 1561.35 1377.68 1540.97 Q1377.68 1520.51 1367.47 1510.18 Q1366.22 1508.99 1366.22 1508.63 Q1366.22 1507.99 1366.86 1507.99 Q1367.31 1507.99 1368.89 1509.31 Q1370.5 1510.63 1372.92 1513.65 Q1375.37 1516.68 1377.17 1520.39 Q1381.52 1529.37 1381.52 1540.97 Q1381.52 1552.11 1377.36 1561.09 Q1375.59 1564.86 1373.11 1568.02 Q1370.63 1571.17 1368.99 1572.56 Q1367.35 1573.94 1366.86 1573.94 Q1366.22 1573.94 1366.22 1573.3 Z" fill="#000000" fill-rule="evenodd" fill-opacity="1" /><polyline clip-path="url(#clip133)" style="stroke:#000000; stroke-width:2; stroke-opacity:0.1; fill:none" points="
  267.494,1295.67 2352.76,1295.67 
  "/>
<polyline clip-path="url(#clip133)" style="stroke:#000000; stroke-width:2; stroke-opacity:0.1; fill:none" points="
  267.494,975.033 2352.76,975.033 
  "/>
<polyline clip-path="url(#clip133)" style="stroke:#000000; stroke-width:2; stroke-opacity:0.1; fill:none" points="
  267.494,654.397 2352.76,654.397 
  "/>
<polyline clip-path="url(#clip133)" style="stroke:#000000; stroke-width:2; stroke-opacity:0.1; fill:none" points="
  267.494,333.762 2352.76,333.762 
  "/>
<polyline clip-path="url(#clip130)" style="stroke:#000000; stroke-width:4; stroke-opacity:1; fill:none" points="
  267.494,1427.15 267.494,123.472 
  "/>
<polyline clip-path="url(#clip130)" style="stroke:#000000; stroke-width:4; stroke-opacity:1; fill:none" points="
  267.494,1295.67 292.518,1295.67 
  "/>
<polyline clip-path="url(#clip130)" style="stroke:#000000; stroke-width:4; stroke-opacity:1; fill:none" points="
  267.494,975.033 292.518,975.033 
  "/>
<polyline clip-path="url(#clip130)" style="stroke:#000000; stroke-width:4; stroke-opacity:1; fill:none" points="
  267.494,654.397 292.518,654.397 
  "/>
<polyline clip-path="url(#clip130)" style="stroke:#000000; stroke-width:4; stroke-opacity:1; fill:none" points="
  267.494,333.762 292.518,333.762 
  "/>
<path clip-path="url(#clip130)" d="M 0 0 M192.235 1282.46 L180.43 1300.91 L192.235 1300.91 L192.235 1282.46 M191.009 1278.39 L196.888 1278.39 L196.888 1300.91 L201.819 1300.91 L201.819 1304.8 L196.888 1304.8 L196.888 1312.95 L192.235 1312.95 L192.235 1304.8 L176.634 1304.8 L176.634 1300.29 L191.009 1278.39 Z" fill="#000000" fill-rule="evenodd" fill-opacity="1" /><path clip-path="url(#clip130)" d="M 0 0 M219.55 1281.47 Q215.939 1281.47 214.11 1285.03 Q212.305 1288.57 212.305 1295.7 Q212.305 1302.81 214.11 1306.38 Q215.939 1309.92 219.55 1309.92 Q223.184 1309.92 224.99 1306.38 Q226.819 1302.81 226.819 1295.7 Q226.819 1288.57 224.99 1285.03 Q223.184 1281.47 219.55 1281.47 M219.55 1277.76 Q225.36 1277.76 228.416 1282.37 Q231.494 1286.95 231.494 1295.7 Q231.494 1304.43 228.416 1309.04 Q225.36 1313.62 219.55 1313.62 Q213.74 1313.62 210.661 1309.04 Q207.606 1304.43 207.606 1295.7 Q207.606 1286.95 210.661 1282.37 Q213.74 1277.76 219.55 1277.76 Z" fill="#000000" fill-rule="evenodd" fill-opacity="1" /><path clip-path="url(#clip130)" d="M 0 0 M179.435 957.753 L197.791 957.753 L197.791 961.688 L183.717 961.688 L183.717 970.161 Q184.735 969.813 185.754 969.651 Q186.772 969.466 187.791 969.466 Q193.578 969.466 196.958 972.637 Q200.337 975.809 200.337 981.225 Q200.337 986.804 196.865 989.906 Q193.393 992.985 187.073 992.985 Q184.897 992.985 182.629 992.614 Q180.384 992.244 177.976 991.503 L177.976 986.804 Q180.06 987.938 182.282 988.494 Q184.504 989.049 186.981 989.049 Q190.985 989.049 193.323 986.943 Q195.661 984.836 195.661 981.225 Q195.661 977.614 193.323 975.508 Q190.985 973.401 186.981 973.401 Q185.106 973.401 183.231 973.818 Q181.379 974.235 179.435 975.114 L179.435 957.753 Z" fill="#000000" fill-rule="evenodd" fill-opacity="1" /><path clip-path="url(#clip130)" d="M 0 0 M219.55 960.832 Q215.939 960.832 214.11 964.397 Q212.305 967.938 212.305 975.068 Q212.305 982.174 214.11 985.739 Q215.939 989.281 219.55 989.281 Q223.184 989.281 224.99 985.739 Q226.819 982.174 226.819 975.068 Q226.819 967.938 224.99 964.397 Q223.184 960.832 219.55 960.832 M219.55 957.128 Q225.36 957.128 228.416 961.735 Q231.494 966.318 231.494 975.068 Q231.494 983.795 228.416 988.401 Q225.36 992.985 219.55 992.985 Q213.74 992.985 210.661 988.401 Q207.606 983.795 207.606 975.068 Q207.606 966.318 210.661 961.735 Q213.74 957.128 219.55 957.128 Z" fill="#000000" fill-rule="evenodd" fill-opacity="1" /><path clip-path="url(#clip130)" d="M 0 0 M189.967 652.534 Q186.819 652.534 184.967 654.687 Q183.138 656.84 183.138 660.59 Q183.138 664.316 184.967 666.492 Q186.819 668.645 189.967 668.645 Q193.115 668.645 194.944 666.492 Q196.796 664.316 196.796 660.59 Q196.796 656.84 194.944 654.687 Q193.115 652.534 189.967 652.534 M199.249 637.881 L199.249 642.141 Q197.49 641.307 195.684 640.867 Q193.902 640.428 192.143 640.428 Q187.513 640.428 185.06 643.553 Q182.629 646.678 182.282 652.997 Q183.647 650.983 185.708 649.918 Q187.768 648.83 190.245 648.83 Q195.453 648.83 198.462 652.002 Q201.495 655.15 201.495 660.59 Q201.495 665.914 198.346 669.131 Q195.198 672.349 189.967 672.349 Q183.972 672.349 180.8 667.765 Q177.629 663.159 177.629 654.432 Q177.629 646.238 181.518 641.377 Q185.407 636.492 191.958 636.492 Q193.717 636.492 195.499 636.84 Q197.305 637.187 199.249 637.881 Z" fill="#000000" fill-rule="evenodd" fill-opacity="1" /><path clip-path="url(#clip130)" d="M 0 0 M219.55 640.196 Q215.939 640.196 214.11 643.761 Q212.305 647.303 212.305 654.432 Q212.305 661.539 214.11 665.103 Q215.939 668.645 219.55 668.645 Q223.184 668.645 224.99 665.103 Q226.819 661.539 226.819 654.432 Q226.819 647.303 224.99 643.761 Q223.184 640.196 219.55 640.196 M219.55 636.492 Q225.36 636.492 228.416 641.099 Q231.494 645.682 231.494 654.432 Q231.494 663.159 228.416 667.765 Q225.36 672.349 219.55 672.349 Q213.74 672.349 210.661 667.765 Q207.606 663.159 207.606 654.432 Q207.606 645.682 210.661 641.099 Q213.74 636.492 219.55 636.492 Z" fill="#000000" fill-rule="evenodd" fill-opacity="1" /><path clip-path="url(#clip130)" d="M 0 0 M178.208 316.482 L200.43 316.482 L200.43 318.472 L187.884 351.042 L182.999 351.042 L194.805 320.417 L178.208 320.417 L178.208 316.482 Z" fill="#000000" fill-rule="evenodd" fill-opacity="1" /><path clip-path="url(#clip130)" d="M 0 0 M219.55 319.56 Q215.939 319.56 214.11 323.125 Q212.305 326.667 212.305 333.796 Q212.305 340.903 214.11 344.468 Q215.939 348.009 219.55 348.009 Q223.184 348.009 224.99 344.468 Q226.819 340.903 226.819 333.796 Q226.819 326.667 224.99 323.125 Q223.184 319.56 219.55 319.56 M219.55 315.857 Q225.36 315.857 228.416 320.463 Q231.494 325.046 231.494 333.796 Q231.494 342.523 228.416 347.13 Q225.36 351.713 219.55 351.713 Q213.74 351.713 210.661 347.13 Q207.606 342.523 207.606 333.796 Q207.606 325.046 210.661 320.463 Q213.74 315.857 219.55 315.857 Z" fill="#000000" fill-rule="evenodd" fill-opacity="1" /><path clip-path="url(#clip130)" d="M 0 0 M94.6485 828.016 L111.073 833.684 L111.073 888.37 Q111.073 889.111 111.041 889.4 Q111.009 889.69 110.848 889.916 Q110.687 890.141 110.333 890.141 Q110.043 890.141 109.302 889.561 L80.3491 866.148 L47.2415 890.206 Q45.7278 890.206 45.4379 889.948 Q45.1159 889.69 45.1159 888.37 L45.1159 833.684 L60.5425 828.016 L60.5425 829.658 Q58.5457 830.399 56.871 831.591 Q55.1641 832.75 53.9403 834.103 Q52.7165 835.423 51.7503 837.162 Q50.7519 838.869 50.14 840.48 Q49.4959 842.058 49.045 844.022 Q48.5619 845.987 48.3365 847.565 Q48.0788 849.111 47.95 851.043 Q47.8212 852.976 47.789 854.199 Q47.7568 855.423 47.7568 856.969 L47.7568 883.088 L77.1607 861.671 Q77.9014 861.188 78.0947 861.188 Q78.3845 861.188 79.1575 861.8 L107.434 884.666 L107.434 856.647 Q107.434 847.629 105.534 841.349 Q104.085 837.098 101.218 834.006 Q98.3522 830.882 94.6485 829.658 L94.6485 828.016 Z" fill="#000000" fill-rule="evenodd" fill-opacity="1" /><path clip-path="url(#clip130)" d="M 0 0 M127.747 901.215 Q128.739 901.215 129.483 902.026 Q130.204 902.815 130.204 903.672 Q130.204 904.461 129.731 904.957 Q129.235 905.431 128.536 905.431 Q127.612 905.431 126.845 904.642 Q126.079 903.853 126.079 902.928 Q126.079 902.162 126.552 901.688 Q127.026 901.215 127.747 901.215 M149.998 900.809 Q150.179 900.809 150.9 901.012 Q151.599 901.215 152.681 901.711 Q153.741 902.184 154.732 902.838 Q155.724 903.492 156.423 904.574 Q157.122 905.633 157.122 906.851 Q157.122 908.497 156.04 909.579 Q154.958 910.638 153.335 910.638 Q152.455 910.638 149.637 909.579 Q141.431 906.513 141.093 906.4 Q139.808 905.881 138.681 905.881 Q138.163 905.881 137.847 905.994 Q137.509 906.107 137.396 906.332 Q137.261 906.558 137.238 906.693 Q137.216 906.806 137.216 907.031 Q137.216 908.361 138.568 909.601 Q139.921 910.841 142.942 911.698 Q143.505 911.878 143.641 911.991 Q143.776 912.104 143.776 912.442 Q143.753 913.005 143.303 913.005 Q143.167 913.005 142.649 912.848 Q142.108 912.69 141.296 912.397 Q140.462 912.104 139.605 911.585 Q138.726 911.067 137.96 910.435 Q137.193 909.782 136.697 908.857 Q136.201 907.933 136.201 906.896 Q136.201 905.205 137.306 904.168 Q138.388 903.109 139.989 903.109 Q140.868 903.109 142.423 903.717 Q144.452 904.461 145.106 904.732 L149.953 906.535 Q151.712 907.189 152.253 907.392 Q152.771 907.572 153.402 907.73 Q154.011 907.865 154.575 907.865 Q155.364 907.865 155.724 907.617 Q156.085 907.347 156.085 906.761 Q156.085 905.138 154.484 903.943 Q152.861 902.748 150.381 902.049 Q150.314 902.026 150.201 902.004 Q149.637 901.824 149.57 901.643 Q149.547 901.553 149.547 901.373 Q149.547 900.809 149.998 900.809 Z" fill="#000000" fill-rule="evenodd" fill-opacity="1" /><path clip-path="url(#clip130)" d="M 0 0 M149.592 884.429 Q149.029 884.384 149.029 883.505 L149.029 855.212 Q149.029 853.882 149.547 853.86 Q150.111 853.86 150.088 855.122 L150.088 883.189 Q150.111 884.429 149.592 884.429 M140.575 884.429 Q140.011 884.429 140.034 883.46 L140.034 855.257 Q140.034 853.882 140.575 853.86 Q141.093 853.86 141.093 855.032 L141.093 883.505 Q141.093 884.429 140.575 884.429 Z" fill="#000000" fill-rule="evenodd" fill-opacity="1" /><path clip-path="url(#clip130)" d="M 0 0 M130.25 836.048 L128.807 836.048 Q128.807 830.502 125.853 827.639 Q125.853 826.85 126.034 826.714 Q126.214 826.579 127.048 826.579 L152.951 826.579 Q154.327 826.579 154.755 825.903 Q155.183 825.226 155.183 822.273 L155.183 820.808 L156.604 820.808 Q156.468 822.431 156.468 828.292 Q156.468 834.154 156.604 835.754 L155.183 835.754 L155.183 834.289 Q155.183 831.381 154.778 830.682 Q154.349 829.983 152.951 829.983 L129.032 829.983 Q130.25 832.395 130.25 836.048 Z" fill="#000000" fill-rule="evenodd" fill-opacity="1" /><path clip-path="url(#clip130)" d="M 0 0 M-3.61568 884.121 L-5.05851 884.121 Q-5.05851 878.576 -8.01178 875.712 Q-8.01178 874.923 -7.83143 874.788 Q-7.65108 874.653 -6.81695 874.653 L19.0862 874.653 Q20.4614 874.653 20.8898 873.977 Q21.3181 873.3 21.3181 870.347 L21.3181 868.882 L22.7384 868.882 Q22.6031 870.505 22.6031 876.366 Q22.6031 882.228 22.7384 883.828 L21.3181 883.828 L21.3181 882.363 Q21.3181 879.455 20.9123 878.756 Q20.484 878.057 19.0862 878.057 L-4.83306 878.057 Q-3.61568 880.469 -3.61568 884.121 Z" fill="#000000" fill-rule="evenodd" fill-opacity="1" /><path clip-path="url(#clip130)" d="M 0 0 M7.97199 864.932 Q1.18621 864.932 -2.51102 863.218 Q-8.01178 860.829 -8.01178 855.192 Q-8.01178 853.998 -7.67362 852.758 Q-7.358 851.495 -6.11808 849.917 Q-4.87815 848.317 -2.84918 847.347 Q1.07349 845.499 7.97199 845.499 Q14.7127 845.499 18.3874 847.212 Q23.7529 849.714 23.7529 855.238 Q23.7529 857.312 22.6933 859.431 Q21.6337 861.527 19.0862 862.857 Q15.2763 864.932 7.97199 864.932 M7.40838 861.099 Q14.3745 861.099 17.1474 860.603 Q20.1458 860.039 21.4534 858.506 Q22.7384 856.951 22.7384 855.238 Q22.7384 853.389 21.3632 851.856 Q19.9654 850.3 16.9671 849.827 Q14.0138 849.308 7.40838 849.331 Q0.983314 849.331 -1.58671 849.782 Q-4.58508 850.391 -5.77992 852.014 Q-6.9973 853.614 -6.9973 855.238 Q-6.9973 855.846 -6.81695 856.5 Q-6.63659 857.131 -6.11808 858.056 Q-5.59956 858.98 -4.31455 859.701 Q-3.02954 860.4 -1.09074 860.738 Q1.41165 861.099 7.40838 861.099 Z" fill="#000000" fill-rule="evenodd" fill-opacity="1" /><path clip-path="url(#clip130)" d="M 0 0 M68.5295 768.829 Q68.5617 768.829 69.7212 769.022 L98.9963 776.365 Q100.542 776.752 102.088 777.847 Q103.666 778.91 105.019 780.616 Q106.404 782.291 107.241 784.868 Q108.111 787.412 108.111 790.343 Q108.111 795.013 107.112 797.074 Q106.146 799.103 104.085 799.103 Q102.281 799.103 101.251 797.975 Q100.252 796.848 100.252 795.56 Q100.252 794.336 100.961 793.692 Q101.669 793.048 102.571 793.048 Q103.57 793.048 104.568 793.724 Q105.598 794.401 105.985 795.753 Q106.661 793.595 106.661 790.471 Q106.661 783.869 99.6726 781.035 Q99.576 780.971 99.5438 780.971 L90.816 778.781 L90.7516 778.877 Q91.3957 779.425 92.1364 780.294 Q92.845 781.132 93.7145 782.935 Q94.5841 784.739 94.5841 786.51 Q94.5841 790.214 91.75 792.758 Q88.8836 795.27 84.1494 795.27 Q80.7034 795.27 77.2573 793.885 Q73.7791 792.468 71.2348 790.278 Q68.6584 788.056 67.0481 785.222 Q65.4378 782.356 65.4378 779.586 Q65.4378 777.654 66.5972 776.011 Q67.7244 774.369 69.5923 773.467 Q68.0464 773.306 67.4023 772.436 Q66.7582 771.534 66.7582 770.762 Q66.7582 769.892 67.2413 769.377 Q67.6922 768.829 68.5295 768.829 M72.5553 774.24 Q72.362 774.24 71.8467 774.369 Q71.2992 774.497 70.4297 774.884 Q69.5601 775.238 68.7872 775.786 Q68.0142 776.333 67.4667 777.331 Q66.887 778.298 66.887 779.521 Q66.887 781.518 68.5617 783.515 Q70.2042 785.512 72.7485 786.897 Q75.1961 788.185 79.9304 789.409 Q84.6647 790.6 87.0801 790.6 Q89.4633 790.6 91.2991 789.57 Q93.1348 788.539 93.1348 786.317 Q93.1348 783.74 90.7516 780.971 Q88.2717 778.104 86.1461 777.621 L73.5536 774.433 Q72.7807 774.24 72.5553 774.24 Z" fill="#000000" fill-rule="evenodd" fill-opacity="1" /><path clip-path="url(#clip130)" d="M 0 0 M97.257 750.288 Q98.2489 750.288 98.9929 751.099 Q99.7143 751.888 99.7143 752.745 Q99.7143 753.534 99.2409 754.03 Q98.7449 754.503 98.046 754.503 Q97.1217 754.503 96.3552 753.714 Q95.5887 752.925 95.5887 752.001 Q95.5887 751.235 96.0622 750.761 Q96.5356 750.288 97.257 750.288 M119.508 749.882 Q119.688 749.882 120.41 750.085 Q121.109 750.288 122.191 750.784 Q123.25 751.257 124.242 751.911 Q125.234 752.565 125.933 753.647 Q126.632 754.706 126.632 755.924 Q126.632 757.569 125.55 758.652 Q124.468 759.711 122.845 759.711 Q121.965 759.711 119.147 758.652 Q110.941 755.586 110.603 755.473 Q109.318 754.954 108.191 754.954 Q107.672 754.954 107.357 755.067 Q107.019 755.18 106.906 755.405 Q106.771 755.631 106.748 755.766 Q106.726 755.879 106.726 756.104 Q106.726 757.434 108.078 758.674 Q109.431 759.914 112.452 760.771 Q113.015 760.951 113.151 761.064 Q113.286 761.177 113.286 761.515 Q113.263 762.078 112.812 762.078 Q112.677 762.078 112.159 761.92 Q111.618 761.763 110.806 761.47 Q109.972 761.177 109.115 760.658 Q108.236 760.139 107.469 759.508 Q106.703 758.854 106.207 757.93 Q105.711 757.006 105.711 755.969 Q105.711 754.278 106.816 753.241 Q107.898 752.181 109.498 752.181 Q110.378 752.181 111.933 752.79 Q113.962 753.534 114.616 753.805 L119.463 755.608 Q121.221 756.262 121.762 756.465 Q122.281 756.645 122.912 756.803 Q123.521 756.938 124.084 756.938 Q124.874 756.938 125.234 756.69 Q125.595 756.42 125.595 755.834 Q125.595 754.21 123.994 753.016 Q122.371 751.821 119.891 751.122 Q119.824 751.099 119.711 751.077 Q119.147 750.896 119.08 750.716 Q119.057 750.626 119.057 750.446 Q119.057 749.882 119.508 749.882 Z" fill="#000000" fill-rule="evenodd" fill-opacity="1" /><path clip-path="url(#clip130)" d="M 0 0 M53.0268 762.078 Q45.2265 762.078 38.9367 759.17 Q36.2991 757.93 34.0898 756.194 Q31.8804 754.458 30.911 753.309 Q29.9416 752.159 29.9416 751.843 Q29.9416 751.392 30.3925 751.37 Q30.618 751.37 31.1816 751.979 Q38.7564 759.418 53.0268 759.396 Q67.3423 759.396 74.6241 752.159 Q75.4131 751.37 75.6611 751.37 Q76.112 751.37 76.112 751.843 Q76.112 752.159 75.1877 753.264 Q74.2634 754.368 72.1442 756.082 Q70.0251 757.795 67.4325 759.035 Q61.1427 762.078 53.0268 762.078 Z" fill="#000000" fill-rule="evenodd" fill-opacity="1" /><path clip-path="url(#clip130)" d="M 0 0 M64.5694 744.349 Q63.7353 744.349 63.4873 744.281 Q63.2393 744.191 62.856 743.831 L52.9817 734.971 Q47.526 730.124 42.7692 730.124 Q39.6807 730.124 37.4714 731.747 Q35.2621 733.348 35.2621 736.301 Q35.2621 738.33 36.502 740.043 Q37.7419 741.757 39.9512 742.546 Q39.9061 742.41 39.9061 741.937 Q39.9061 740.787 40.6276 740.156 Q41.349 739.502 42.3184 739.502 Q43.5583 739.502 44.167 740.314 Q44.7531 741.103 44.7531 741.892 Q44.7531 742.207 44.6855 742.636 Q44.6179 743.042 43.9866 743.695 Q43.3328 744.349 42.1831 744.349 Q38.9593 744.349 36.3893 741.914 Q33.8192 739.457 33.8192 735.715 Q33.8192 731.476 36.3442 728.703 Q38.8466 725.908 42.7692 725.908 Q44.1444 725.908 45.4069 726.336 Q46.6468 726.742 47.6162 727.306 Q48.5856 727.847 50.1412 729.335 Q51.6967 730.823 52.8014 732.017 Q53.906 733.212 56.2506 735.895 L61.0074 740.787 L61.0074 732.468 Q61.0074 728.41 60.6467 728.095 Q59.9929 727.644 56.5437 727.08 L56.5437 725.908 L64.5694 727.216 L64.5694 744.349 Z" fill="#000000" fill-rule="evenodd" fill-opacity="1" /><path clip-path="url(#clip130)" d="M 0 0 M75.6611 721.484 Q75.4356 721.484 74.872 720.898 Q67.2972 713.459 53.0268 713.459 Q38.7113 713.459 31.4746 720.605 Q30.6405 721.484 30.3925 721.484 Q29.9416 721.484 29.9416 721.033 Q29.9416 720.718 30.866 719.613 Q31.7903 718.486 33.9094 716.795 Q36.0286 715.082 38.6211 713.819 Q44.9109 710.776 53.0268 710.776 Q60.8271 710.776 67.1169 713.684 Q69.7545 714.924 71.9639 716.66 Q74.1732 718.396 75.1426 719.545 Q76.112 720.695 76.112 721.033 Q76.112 721.484 75.6611 721.484 Z" fill="#000000" fill-rule="evenodd" fill-opacity="1" /><path clip-path="url(#clip130)" d="M 0 0 M78.0947 696.715 Q66.9514 696.715 57.966 692.561 Q54.1979 690.789 51.0418 688.309 Q47.8856 685.829 46.5007 684.187 Q45.1159 682.544 45.1159 682.094 Q45.1159 681.449 45.76 681.417 Q46.082 681.417 46.8872 682.287 Q57.7084 692.915 78.0947 692.883 Q98.5454 692.883 108.948 682.544 Q110.075 681.417 110.429 681.417 Q111.073 681.417 111.073 682.094 Q111.073 682.544 109.753 684.123 Q108.433 685.701 105.405 688.148 Q102.378 690.596 98.6742 692.367 Q89.6888 696.715 78.0947 696.715 Z" fill="#000000" fill-rule="evenodd" fill-opacity="1" /><path clip-path="url(#clip130)" d="M 0 0 M67.7244 639.439 Q69.9788 639.439 69.9788 642.692 L69.9788 653.771 L92.5551 658.183 Q93.1348 658.28 93.4569 658.409 Q93.7789 658.505 94.3264 658.795 Q94.8417 659.053 95.0994 659.6 Q95.3892 660.116 95.3892 660.889 Q95.3892 661.855 94.8095 662.338 Q94.262 662.789 93.5857 662.789 Q93.167 662.789 91.1703 662.145 L69.9788 655.671 L69.9788 661.146 Q69.9788 666.299 75.0673 669.52 Q75.7436 670.035 75.8081 670.325 Q75.8403 670.454 75.8403 670.583 Q75.8403 670.937 75.6792 671.162 Q75.5182 671.355 75.3572 671.355 L75.1961 671.388 Q74.9707 671.388 74.0689 670.872 Q73.135 670.325 71.7501 669.359 Q70.3653 668.36 69.2703 667.362 Q67.8532 666.041 67.1125 664.56 Q66.3395 663.079 66.2429 662.338 Q66.1463 661.565 66.1463 660.566 L66.1463 642.08 Q66.1463 641.243 66.2107 640.792 Q66.2429 640.341 66.6294 639.89 Q66.9837 639.439 67.7244 639.439 Z" fill="#000000" fill-rule="evenodd" fill-opacity="1" /><path clip-path="url(#clip130)" d="M 0 0 M110.429 642.87 Q110.107 642.87 109.302 642.033 Q98.481 631.405 78.0947 631.405 Q57.644 631.405 47.3059 641.614 Q46.1143 642.87 45.76 642.87 Q45.1159 642.87 45.1159 642.226 Q45.1159 641.775 46.4363 640.197 Q47.7568 638.587 50.7841 636.172 Q53.8115 633.724 57.5151 631.92 Q66.5006 627.573 78.0947 627.573 Q89.2379 627.573 98.2233 631.727 Q101.991 633.499 105.148 635.978 Q108.304 638.458 109.689 640.101 Q111.073 641.743 111.073 642.226 Q111.073 642.87 110.429 642.87 Z" fill="#000000" fill-rule="evenodd" fill-opacity="1" /><path clip-path="url(#clip130)" d="M 0 0 M472.763 14.0809 L472.763 22.0612 Q468.104 19.8332 463.972 18.7395 Q459.84 17.6457 455.992 17.6457 Q449.308 17.6457 445.662 20.2383 Q442.057 22.8309 442.057 27.611 Q442.057 31.6214 444.447 33.6873 Q446.877 35.7128 453.602 36.9686 L458.544 37.9813 Q467.699 39.7232 472.034 44.1387 Q476.409 48.5136 476.409 55.8863 Q476.409 64.6767 470.494 69.2137 Q464.62 73.7508 453.237 73.7508 Q448.943 73.7508 444.082 72.7785 Q439.262 71.8063 434.077 69.9024 L434.077 61.4765 Q439.059 64.2716 443.839 65.6895 Q448.619 67.1073 453.237 67.1073 Q460.245 67.1073 464.053 64.3527 Q467.861 61.598 467.861 56.4939 Q467.861 52.0379 465.107 49.5264 Q462.392 47.0148 456.154 45.759 L451.171 44.7868 Q442.016 42.9639 437.925 39.075 Q433.834 35.1862 433.834 28.2591 Q433.834 20.2383 439.464 15.6203 Q445.136 11.0023 455.06 11.0023 Q459.314 11.0023 463.729 11.7719 Q468.145 12.5416 472.763 14.0809 Z" fill="#000000" fill-rule="evenodd" fill-opacity="1" /><path clip-path="url(#clip130)" d="M 0 0 M488.075 54.671 L488.075 27.2059 L495.529 27.2059 L495.529 54.3874 Q495.529 60.8284 498.04 64.0691 Q500.552 67.2693 505.575 67.2693 Q511.611 67.2693 515.095 63.421 Q518.619 59.5726 518.619 52.9291 L518.619 27.2059 L526.073 27.2059 L526.073 72.576 L518.619 72.576 L518.619 65.6084 Q515.905 69.7404 512.3 71.7658 Q508.735 73.7508 503.995 73.7508 Q496.177 73.7508 492.126 68.8897 Q488.075 64.0286 488.075 54.671 M506.831 26.1121 L506.831 26.1121 Z" fill="#000000" fill-rule="evenodd" fill-opacity="1" /><path clip-path="url(#clip130)" d="M 0 0 M576.749 35.9153 Q579.545 30.8922 583.433 28.5022 Q587.322 26.1121 592.589 26.1121 Q599.678 26.1121 603.526 31.0947 Q607.374 36.0368 607.374 45.1919 L607.374 72.576 L599.88 72.576 L599.88 45.4349 Q599.88 38.913 597.571 35.7533 Q595.262 32.5936 590.523 32.5936 Q584.73 32.5936 581.368 36.4419 Q578.005 40.2903 578.005 46.9338 L578.005 72.576 L570.511 72.576 L570.511 45.4349 Q570.511 38.8725 568.202 35.7533 Q565.893 32.5936 561.072 32.5936 Q555.361 32.5936 551.998 36.4824 Q548.636 40.3308 548.636 46.9338 L548.636 72.576 L541.142 72.576 L541.142 27.2059 L548.636 27.2059 L548.636 34.2544 Q551.188 30.082 554.753 28.0971 Q558.318 26.1121 563.219 26.1121 Q568.162 26.1121 571.605 28.6237 Q575.089 31.1352 576.749 35.9153 Z" fill="#000000" fill-rule="evenodd" fill-opacity="1" /><path clip-path="url(#clip130)" d="M 0 0 M666.193 32.4315 Q660.198 32.4315 656.714 37.1306 Q653.231 41.7891 653.231 49.9314 Q653.231 58.0738 656.674 62.7728 Q660.158 67.4314 666.193 67.4314 Q672.148 67.4314 675.632 62.7323 Q679.116 58.0333 679.116 49.9314 Q679.116 41.8701 675.632 37.1711 Q672.148 32.4315 666.193 32.4315 M666.193 26.1121 Q675.916 26.1121 681.465 32.4315 Q687.015 38.7509 687.015 49.9314 Q687.015 61.0714 681.465 67.4314 Q675.916 73.7508 666.193 73.7508 Q656.431 73.7508 650.881 67.4314 Q645.372 61.0714 645.372 49.9314 Q645.372 38.7509 650.881 32.4315 Q656.431 26.1121 666.193 26.1121 Z" fill="#000000" fill-rule="evenodd" fill-opacity="1" /><path clip-path="url(#clip130)" d="M 0 0 M722.339 9.54393 L722.339 15.7418 L715.209 15.7418 Q711.199 15.7418 709.619 17.3622 Q708.08 18.9825 708.08 23.1955 L708.08 27.2059 L720.354 27.2059 L720.354 32.9987 L708.08 32.9987 L708.08 72.576 L700.586 72.576 L700.586 32.9987 L693.456 32.9987 L693.456 27.2059 L700.586 27.2059 L700.586 24.0462 Q700.586 16.471 704.11 13.0277 Q707.634 9.54393 715.29 9.54393 L722.339 9.54393 Z" fill="#000000" fill-rule="evenodd" fill-opacity="1" /><path clip-path="url(#clip130)" d="M 0 0 M763.456 18.8205 L763.456 41.5461 L773.745 41.5461 Q779.457 41.5461 782.576 38.5889 Q785.695 35.6318 785.695 30.163 Q785.695 24.7348 782.576 21.7777 Q779.457 18.8205 773.745 18.8205 L763.456 18.8205 M755.273 12.096 L773.745 12.096 Q783.913 12.096 789.098 16.714 Q794.324 21.2916 794.324 30.163 Q794.324 39.1155 789.098 43.6931 Q783.913 48.2706 773.745 48.2706 L763.456 48.2706 L763.456 72.576 L755.273 72.576 L755.273 12.096 Z" fill="#000000" fill-rule="evenodd" fill-opacity="1" /><path clip-path="url(#clip130)" d="M 0 0 M842.691 45.1919 L842.691 72.576 L835.238 72.576 L835.238 45.4349 Q835.238 38.994 832.726 35.7938 Q830.215 32.5936 825.191 32.5936 Q819.156 32.5936 815.672 36.4419 Q812.188 40.2903 812.188 46.9338 L812.188 72.576 L804.694 72.576 L804.694 9.54393 L812.188 9.54393 L812.188 34.2544 Q814.862 30.163 818.467 28.1376 Q822.113 26.1121 826.852 26.1121 Q834.671 26.1121 838.681 30.9732 Q842.691 35.7938 842.691 45.1919 Z" fill="#000000" fill-rule="evenodd" fill-opacity="1" /><path clip-path="url(#clip130)" d="M 0 0 M875.139 32.4315 Q869.144 32.4315 865.66 37.1306 Q862.176 41.7891 862.176 49.9314 Q862.176 58.0738 865.619 62.7728 Q869.103 67.4314 875.139 67.4314 Q881.094 67.4314 884.578 62.7323 Q888.061 58.0333 888.061 49.9314 Q888.061 41.8701 884.578 37.1711 Q881.094 32.4315 875.139 32.4315 M875.139 26.1121 Q884.861 26.1121 890.411 32.4315 Q895.961 38.7509 895.961 49.9314 Q895.961 61.0714 890.411 67.4314 Q884.861 73.7508 875.139 73.7508 Q865.376 73.7508 859.827 67.4314 Q854.317 61.0714 854.317 49.9314 Q854.317 38.7509 859.827 32.4315 Q865.376 26.1121 875.139 26.1121 Z" fill="#000000" fill-rule="evenodd" fill-opacity="1" /><path clip-path="url(#clip130)" d="M 0 0 M915.689 14.324 L915.689 27.2059 L931.042 27.2059 L931.042 32.9987 L915.689 32.9987 L915.689 57.6282 Q915.689 63.1779 917.187 64.7578 Q918.727 66.3376 923.385 66.3376 L931.042 66.3376 L931.042 72.576 L923.385 72.576 Q914.757 72.576 911.476 69.3758 Q908.194 66.1351 908.194 57.6282 L908.194 32.9987 L902.726 32.9987 L902.726 27.2059 L908.194 27.2059 L908.194 14.324 L915.689 14.324 Z" fill="#000000" fill-rule="evenodd" fill-opacity="1" /><path clip-path="url(#clip130)" d="M 0 0 M958.426 32.4315 Q952.43 32.4315 948.947 37.1306 Q945.463 41.7891 945.463 49.9314 Q945.463 58.0738 948.906 62.7728 Q952.39 67.4314 958.426 67.4314 Q964.381 67.4314 967.864 62.7323 Q971.348 58.0333 971.348 49.9314 Q971.348 41.8701 967.864 37.1711 Q964.381 32.4315 958.426 32.4315 M958.426 26.1121 Q968.148 26.1121 973.698 32.4315 Q979.247 38.7509 979.247 49.9314 Q979.247 61.0714 973.698 67.4314 Q968.148 73.7508 958.426 73.7508 Q948.663 73.7508 943.113 67.4314 Q937.604 61.0714 937.604 49.9314 Q937.604 38.7509 943.113 32.4315 Q948.663 26.1121 958.426 26.1121 Z" fill="#000000" fill-rule="evenodd" fill-opacity="1" /><path clip-path="url(#clip130)" d="M 0 0 M1029.32 45.1919 L1029.32 72.576 L1021.86 72.576 L1021.86 45.4349 Q1021.86 38.994 1019.35 35.7938 Q1016.84 32.5936 1011.82 32.5936 Q1005.78 32.5936 1002.3 36.4419 Q998.813 40.2903 998.813 46.9338 L998.813 72.576 L991.319 72.576 L991.319 27.2059 L998.813 27.2059 L998.813 34.2544 Q1001.49 30.163 1005.09 28.1376 Q1008.74 26.1121 1013.48 26.1121 Q1021.3 26.1121 1025.31 30.9732 Q1029.32 35.7938 1029.32 45.1919 Z" fill="#000000" fill-rule="evenodd" fill-opacity="1" /><path clip-path="url(#clip130)" d="M 0 0 M1116.17 16.7545 L1116.17 25.383 Q1112.04 21.5346 1107.34 19.6307 Q1102.68 17.7268 1097.41 17.7268 Q1087.04 17.7268 1081.53 24.0867 Q1076.02 30.4061 1076.02 42.3968 Q1076.02 54.3469 1081.53 60.7069 Q1087.04 67.0263 1097.41 67.0263 Q1102.68 67.0263 1107.34 65.1223 Q1112.04 63.2184 1116.17 59.3701 L1116.17 67.9175 Q1111.87 70.8341 1107.05 72.2924 Q1102.27 73.7508 1096.93 73.7508 Q1083.19 73.7508 1075.29 65.3654 Q1067.4 56.9395 1067.4 42.3968 Q1067.4 27.8135 1075.29 19.4281 Q1083.19 11.0023 1096.93 11.0023 Q1102.35 11.0023 1107.13 12.4606 Q1111.95 13.8784 1116.17 16.7545 Z" fill="#000000" fill-rule="evenodd" fill-opacity="1" /><path clip-path="url(#clip130)" d="M 0 0 M1146.06 32.4315 Q1140.07 32.4315 1136.58 37.1306 Q1133.1 41.7891 1133.1 49.9314 Q1133.1 58.0738 1136.54 62.7728 Q1140.03 67.4314 1146.06 67.4314 Q1152.02 67.4314 1155.5 62.7323 Q1158.99 58.0333 1158.99 49.9314 Q1158.99 41.8701 1155.5 37.1711 Q1152.02 32.4315 1146.06 32.4315 M1146.06 26.1121 Q1155.79 26.1121 1161.34 32.4315 Q1166.89 38.7509 1166.89 49.9314 Q1166.89 61.0714 1161.34 67.4314 Q1155.79 73.7508 1146.06 73.7508 Q1136.3 73.7508 1130.75 67.4314 Q1125.24 61.0714 1125.24 49.9314 Q1125.24 38.7509 1130.75 32.4315 Q1136.3 26.1121 1146.06 26.1121 Z" fill="#000000" fill-rule="evenodd" fill-opacity="1" /><path clip-path="url(#clip130)" d="M 0 0 M1205.53 34.1734 Q1204.28 33.4443 1202.78 33.1202 Q1201.32 32.7556 1199.54 32.7556 Q1193.22 32.7556 1189.81 36.8875 Q1186.45 40.9789 1186.45 48.6757 L1186.45 72.576 L1178.96 72.576 L1178.96 27.2059 L1186.45 27.2059 L1186.45 34.2544 Q1188.8 30.1225 1192.57 28.1376 Q1196.34 26.1121 1201.72 26.1121 Q1202.49 26.1121 1203.42 26.2337 Q1204.36 26.3147 1205.49 26.5172 L1205.53 34.1734 Z" fill="#000000" fill-rule="evenodd" fill-opacity="1" /><path clip-path="url(#clip130)" d="M 0 0 M1238.18 34.1734 Q1236.93 33.4443 1235.43 33.1202 Q1233.97 32.7556 1232.19 32.7556 Q1225.87 32.7556 1222.46 36.8875 Q1219.1 40.9789 1219.1 48.6757 L1219.1 72.576 L1211.61 72.576 L1211.61 27.2059 L1219.1 27.2059 L1219.1 34.2544 Q1221.45 30.1225 1225.22 28.1376 Q1228.99 26.1121 1234.37 26.1121 Q1235.14 26.1121 1236.07 26.2337 Q1237.01 26.3147 1238.14 26.5172 L1238.18 34.1734 Z" fill="#000000" fill-rule="evenodd" fill-opacity="1" /><path clip-path="url(#clip130)" d="M 0 0 M1282.98 48.0275 L1282.98 51.6733 L1248.71 51.6733 Q1249.2 59.3701 1253.33 63.421 Q1257.5 67.4314 1264.92 67.4314 Q1269.21 67.4314 1273.22 66.3781 Q1277.27 65.3249 1281.24 63.2184 L1281.24 70.267 Q1277.23 71.9684 1273.02 72.8596 Q1268.81 73.7508 1264.47 73.7508 Q1253.62 73.7508 1247.26 67.4314 Q1240.94 61.1119 1240.94 50.3365 Q1240.94 39.1965 1246.93 32.6746 Q1252.97 26.1121 1263.18 26.1121 Q1272.33 26.1121 1277.64 32.0264 Q1282.98 37.9003 1282.98 48.0275 M1275.53 45.84 Q1275.45 39.7232 1272.09 36.0774 Q1268.77 32.4315 1263.26 32.4315 Q1257.02 32.4315 1253.25 35.9558 Q1249.52 39.4801 1248.96 45.8805 L1275.53 45.84 Z" fill="#000000" fill-rule="evenodd" fill-opacity="1" /><path clip-path="url(#clip130)" d="M 0 0 M1295.22 9.54393 L1302.67 9.54393 L1302.67 72.576 L1295.22 72.576 L1295.22 9.54393 Z" fill="#000000" fill-rule="evenodd" fill-opacity="1" /><path clip-path="url(#clip130)" d="M 0 0 M1338.89 49.7694 Q1329.85 49.7694 1326.37 51.8354 Q1322.89 53.9013 1322.89 58.8839 Q1322.89 62.8538 1325.48 65.2034 Q1328.11 67.5124 1332.61 67.5124 Q1338.81 67.5124 1342.53 63.1374 Q1346.3 58.7219 1346.3 51.4303 L1346.3 49.7694 L1338.89 49.7694 M1353.75 46.6907 L1353.75 72.576 L1346.3 72.576 L1346.3 65.6895 Q1343.75 69.8214 1339.94 71.8063 Q1336.13 73.7508 1330.62 73.7508 Q1323.66 73.7508 1319.52 69.8619 Q1315.43 65.9325 1315.43 59.3701 Q1315.43 51.7138 1320.54 47.825 Q1325.68 43.9361 1335.85 43.9361 L1346.3 43.9361 L1346.3 43.2069 Q1346.3 38.0623 1342.9 35.2672 Q1339.53 32.4315 1333.42 32.4315 Q1329.53 32.4315 1325.84 33.3632 Q1322.16 34.295 1318.75 36.1584 L1318.75 29.2718 Q1322.85 27.692 1326.69 26.9223 Q1330.54 26.1121 1334.19 26.1121 Q1344.03 26.1121 1348.89 31.2163 Q1353.75 36.3204 1353.75 46.6907 Z" fill="#000000" fill-rule="evenodd" fill-opacity="1" /><path clip-path="url(#clip130)" d="M 0 0 M1376.48 14.324 L1376.48 27.2059 L1391.83 27.2059 L1391.83 32.9987 L1376.48 32.9987 L1376.48 57.6282 Q1376.48 63.1779 1377.98 64.7578 Q1379.52 66.3376 1384.18 66.3376 L1391.83 66.3376 L1391.83 72.576 L1384.18 72.576 Q1375.55 72.576 1372.27 69.3758 Q1368.98 66.1351 1368.98 57.6282 L1368.98 32.9987 L1363.52 32.9987 L1363.52 27.2059 L1368.98 27.2059 L1368.98 14.324 L1376.48 14.324 Z" fill="#000000" fill-rule="evenodd" fill-opacity="1" /><path clip-path="url(#clip130)" d="M 0 0 M1401.64 27.2059 L1409.09 27.2059 L1409.09 72.576 L1401.64 72.576 L1401.64 27.2059 M1401.64 9.54393 L1409.09 9.54393 L1409.09 18.9825 L1401.64 18.9825 L1401.64 9.54393 Z" fill="#000000" fill-rule="evenodd" fill-opacity="1" /><path clip-path="url(#clip130)" d="M 0 0 M1442.27 32.4315 Q1436.27 32.4315 1432.79 37.1306 Q1429.3 41.7891 1429.3 49.9314 Q1429.3 58.0738 1432.75 62.7728 Q1436.23 67.4314 1442.27 67.4314 Q1448.22 67.4314 1451.7 62.7323 Q1455.19 58.0333 1455.19 49.9314 Q1455.19 41.8701 1451.7 37.1711 Q1448.22 32.4315 1442.27 32.4315 M1442.27 26.1121 Q1451.99 26.1121 1457.54 32.4315 Q1463.09 38.7509 1463.09 49.9314 Q1463.09 61.0714 1457.54 67.4314 Q1451.99 73.7508 1442.27 73.7508 Q1432.5 73.7508 1426.95 67.4314 Q1421.44 61.0714 1421.44 49.9314 Q1421.44 38.7509 1426.95 32.4315 Q1432.5 26.1121 1442.27 26.1121 Z" fill="#000000" fill-rule="evenodd" fill-opacity="1" /><path clip-path="url(#clip130)" d="M 0 0 M1513.16 45.1919 L1513.16 72.576 L1505.7 72.576 L1505.7 45.4349 Q1505.7 38.994 1503.19 35.7938 Q1500.68 32.5936 1495.66 32.5936 Q1489.62 32.5936 1486.14 36.4419 Q1482.65 40.2903 1482.65 46.9338 L1482.65 72.576 L1475.16 72.576 L1475.16 27.2059 L1482.65 27.2059 L1482.65 34.2544 Q1485.33 30.163 1488.93 28.1376 Q1492.58 26.1121 1497.32 26.1121 Q1505.14 26.1121 1509.15 30.9732 Q1513.16 35.7938 1513.16 45.1919 Z" fill="#000000" fill-rule="evenodd" fill-opacity="1" /><path clip-path="url(#clip130)" d="M 0 0 M1556.95 28.5427 L1556.95 35.5912 Q1553.79 33.9709 1550.38 33.1607 Q1546.98 32.3505 1543.34 32.3505 Q1537.79 32.3505 1534.99 34.0519 Q1532.24 35.7533 1532.24 39.156 Q1532.24 41.7486 1534.22 43.2475 Q1536.21 44.7058 1542.2 46.0426 L1544.75 46.6097 Q1552.69 48.3111 1556.02 51.4303 Q1559.38 54.509 1559.38 60.0587 Q1559.38 66.3781 1554.35 70.0644 Q1549.37 73.7508 1540.62 73.7508 Q1536.98 73.7508 1533.01 73.0216 Q1529.08 72.3329 1524.7 70.9151 L1524.7 63.2184 Q1528.83 65.3654 1532.84 66.4591 Q1536.85 67.5124 1540.78 67.5124 Q1546.05 67.5124 1548.89 65.73 Q1551.72 63.9071 1551.72 60.6258 Q1551.72 57.5877 1549.66 55.9673 Q1547.63 54.3469 1540.7 52.8481 L1538.11 52.2405 Q1531.18 50.7821 1528.1 47.7845 Q1525.03 44.7463 1525.03 39.4801 Q1525.03 33.0797 1529.56 29.5959 Q1534.1 26.1121 1542.44 26.1121 Q1546.58 26.1121 1550.22 26.7198 Q1553.87 27.3274 1556.95 28.5427 Z" fill="#000000" fill-rule="evenodd" fill-opacity="1" /><path clip-path="url(#clip130)" d="M 0 0 M1592.27 27.2059 L1600.17 27.2059 L1614.35 65.2844 L1628.53 27.2059 L1636.43 27.2059 L1619.41 72.576 L1609.28 72.576 L1592.27 27.2059 Z" fill="#000000" fill-rule="evenodd" fill-opacity="1" /><path clip-path="url(#clip130)" d="M 0 0 M1675.64 28.5427 L1675.64 35.5912 Q1672.48 33.9709 1669.08 33.1607 Q1665.67 32.3505 1662.03 32.3505 Q1656.48 32.3505 1653.68 34.0519 Q1650.93 35.7533 1650.93 39.156 Q1650.93 41.7486 1652.91 43.2475 Q1654.9 44.7058 1660.89 46.0426 L1663.45 46.6097 Q1671.38 48.3111 1674.71 51.4303 Q1678.07 54.509 1678.07 60.0587 Q1678.07 66.3781 1673.05 70.0644 Q1668.06 73.7508 1659.31 73.7508 Q1655.67 73.7508 1651.7 73.0216 Q1647.77 72.3329 1643.39 70.9151 L1643.39 63.2184 Q1647.52 65.3654 1651.54 66.4591 Q1655.55 67.5124 1659.48 67.5124 Q1664.74 67.5124 1667.58 65.73 Q1670.41 63.9071 1670.41 60.6258 Q1670.41 57.5877 1668.35 55.9673 Q1666.32 54.3469 1659.39 52.8481 L1656.8 52.2405 Q1649.87 50.7821 1646.8 47.7845 Q1643.72 44.7463 1643.72 39.4801 Q1643.72 33.0797 1648.25 29.5959 Q1652.79 26.1121 1661.14 26.1121 Q1665.27 26.1121 1668.91 26.7198 Q1672.56 27.3274 1675.64 28.5427 Z" fill="#000000" fill-rule="evenodd" fill-opacity="1" /><path clip-path="url(#clip130)" d="M 0 0 M1708.25 12.096 L1759.41 12.096 L1759.41 18.9825 L1737.94 18.9825 L1737.94 72.576 L1729.72 72.576 L1729.72 18.9825 L1708.25 18.9825 L1708.25 12.096 Z" fill="#000000" fill-rule="evenodd" fill-opacity="1" /><path clip-path="url(#clip130)" d="M 0 0 M1764.43 27.2059 L1771.89 27.2059 L1771.89 72.576 L1764.43 72.576 L1764.43 27.2059 M1764.43 9.54393 L1771.89 9.54393 L1771.89 18.9825 L1764.43 18.9825 L1764.43 9.54393 Z" fill="#000000" fill-rule="evenodd" fill-opacity="1" /><path clip-path="url(#clip130)" d="M 0 0 M1822.81 35.9153 Q1825.6 30.8922 1829.49 28.5022 Q1833.38 26.1121 1838.65 26.1121 Q1845.74 26.1121 1849.58 31.0947 Q1853.43 36.0368 1853.43 45.1919 L1853.43 72.576 L1845.94 72.576 L1845.94 45.4349 Q1845.94 38.913 1843.63 35.7533 Q1841.32 32.5936 1836.58 32.5936 Q1830.79 32.5936 1827.43 36.4419 Q1824.06 40.2903 1824.06 46.9338 L1824.06 72.576 L1816.57 72.576 L1816.57 45.4349 Q1816.57 38.8725 1814.26 35.7533 Q1811.95 32.5936 1807.13 32.5936 Q1801.42 32.5936 1798.06 36.4824 Q1794.69 40.3308 1794.69 46.9338 L1794.69 72.576 L1787.2 72.576 L1787.2 27.2059 L1794.69 27.2059 L1794.69 34.2544 Q1797.25 30.082 1800.81 28.0971 Q1804.38 26.1121 1809.28 26.1121 Q1814.22 26.1121 1817.66 28.6237 Q1821.15 31.1352 1822.81 35.9153 Z" fill="#000000" fill-rule="evenodd" fill-opacity="1" /><path clip-path="url(#clip130)" d="M 0 0 M1907.11 48.0275 L1907.11 51.6733 L1872.84 51.6733 Q1873.32 59.3701 1877.45 63.421 Q1881.63 67.4314 1889.04 67.4314 Q1893.33 67.4314 1897.34 66.3781 Q1901.4 65.3249 1905.37 63.2184 L1905.37 70.267 Q1901.35 71.9684 1897.14 72.8596 Q1892.93 73.7508 1888.59 73.7508 Q1877.74 73.7508 1871.38 67.4314 Q1865.06 61.1119 1865.06 50.3365 Q1865.06 39.1965 1871.05 32.6746 Q1877.09 26.1121 1887.3 26.1121 Q1896.45 26.1121 1901.76 32.0264 Q1907.11 37.9003 1907.11 48.0275 M1899.65 45.84 Q1899.57 39.7232 1896.21 36.0774 Q1892.89 32.4315 1887.38 32.4315 Q1881.14 32.4315 1877.37 35.9558 Q1873.65 39.4801 1873.08 45.8805 L1899.65 45.84 Z" fill="#000000" fill-rule="evenodd" fill-opacity="1" /><path clip-path="url(#clip130)" d="M 0 0 M1970.58 17.6457 Q1961.67 17.6457 1956.41 24.2892 Q1951.18 30.9327 1951.18 42.3968 Q1951.18 53.8203 1956.41 60.4638 Q1961.67 67.1073 1970.58 67.1073 Q1979.5 67.1073 1984.68 60.4638 Q1989.91 53.8203 1989.91 42.3968 Q1989.91 30.9327 1984.68 24.2892 Q1979.5 17.6457 1970.58 17.6457 M1970.58 11.0023 Q1983.3 11.0023 1990.92 19.5497 Q1998.54 28.0566 1998.54 42.3968 Q1998.54 56.6965 1990.92 65.2439 Q1983.3 73.7508 1970.58 73.7508 Q1957.82 73.7508 1950.17 65.2439 Q1942.55 56.737 1942.55 42.3968 Q1942.55 28.0566 1950.17 19.5497 Q1957.82 11.0023 1970.58 11.0023 Z" fill="#000000" fill-rule="evenodd" fill-opacity="1" /><path clip-path="url(#clip130)" d="M 0 0 M2033.98 9.54393 L2033.98 15.7418 L2026.85 15.7418 Q2022.84 15.7418 2021.26 17.3622 Q2019.72 18.9825 2019.72 23.1955 L2019.72 27.2059 L2032 27.2059 L2032 32.9987 L2019.72 32.9987 L2019.72 72.576 L2012.23 72.576 L2012.23 32.9987 L2005.1 32.9987 L2005.1 27.2059 L2012.23 27.2059 L2012.23 24.0462 Q2012.23 16.471 2015.75 13.0277 Q2019.28 9.54393 2026.93 9.54393 L2033.98 9.54393 Z" fill="#000000" fill-rule="evenodd" fill-opacity="1" /><path clip-path="url(#clip130)" d="M 0 0 M2063.19 9.54393 L2063.19 15.7418 L2056.06 15.7418 Q2052.05 15.7418 2050.47 17.3622 Q2048.93 18.9825 2048.93 23.1955 L2048.93 27.2059 L2061.2 27.2059 L2061.2 32.9987 L2048.93 32.9987 L2048.93 72.576 L2041.43 72.576 L2041.43 32.9987 L2034.31 32.9987 L2034.31 27.2059 L2041.43 27.2059 L2041.43 24.0462 Q2041.43 16.471 2044.96 13.0277 Q2048.48 9.54393 2056.14 9.54393 L2063.19 9.54393 Z" fill="#000000" fill-rule="evenodd" fill-opacity="1" /><path clip-path="url(#clip130)" d="M 0 0 M2098.35 28.5427 L2098.35 35.5912 Q2095.19 33.9709 2091.79 33.1607 Q2088.38 32.3505 2084.74 32.3505 Q2079.19 32.3505 2076.39 34.0519 Q2073.64 35.7533 2073.64 39.156 Q2073.64 41.7486 2075.62 43.2475 Q2077.61 44.7058 2083.6 46.0426 L2086.16 46.6097 Q2094.1 48.3111 2097.42 51.4303 Q2100.78 54.509 2100.78 60.0587 Q2100.78 66.3781 2095.76 70.0644 Q2090.77 73.7508 2082.02 73.7508 Q2078.38 73.7508 2074.41 73.0216 Q2070.48 72.3329 2066.1 70.9151 L2066.1 63.2184 Q2070.24 65.3654 2074.25 66.4591 Q2078.26 67.5124 2082.19 67.5124 Q2087.45 67.5124 2090.29 65.73 Q2093.12 63.9071 2093.12 60.6258 Q2093.12 57.5877 2091.06 55.9673 Q2089.03 54.3469 2082.11 52.8481 L2079.51 52.2405 Q2072.59 50.7821 2069.51 47.7845 Q2066.43 44.7463 2066.43 39.4801 Q2066.43 33.0797 2070.97 29.5959 Q2075.5 26.1121 2083.85 26.1121 Q2087.98 26.1121 2091.63 26.7198 Q2095.27 27.3274 2098.35 28.5427 Z" fill="#000000" fill-rule="evenodd" fill-opacity="1" /><path clip-path="url(#clip130)" d="M 0 0 M2151.46 48.0275 L2151.46 51.6733 L2117.19 51.6733 Q2117.67 59.3701 2121.8 63.421 Q2125.98 67.4314 2133.39 67.4314 Q2137.68 67.4314 2141.69 66.3781 Q2145.75 65.3249 2149.72 63.2184 L2149.72 70.267 Q2145.71 71.9684 2141.49 72.8596 Q2137.28 73.7508 2132.94 73.7508 Q2122.09 73.7508 2115.73 67.4314 Q2109.41 61.1119 2109.41 50.3365 Q2109.41 39.1965 2115.4 32.6746 Q2121.44 26.1121 2131.65 26.1121 Q2140.8 26.1121 2146.11 32.0264 Q2151.46 37.9003 2151.46 48.0275 M2144 45.84 Q2143.92 39.7232 2140.56 36.0774 Q2137.24 32.4315 2131.73 32.4315 Q2125.49 32.4315 2121.72 35.9558 Q2118 39.4801 2117.43 45.8805 L2144 45.84 Z" fill="#000000" fill-rule="evenodd" fill-opacity="1" /><path clip-path="url(#clip130)" d="M 0 0 M2171.06 14.324 L2171.06 27.2059 L2186.42 27.2059 L2186.42 32.9987 L2171.06 32.9987 L2171.06 57.6282 Q2171.06 63.1779 2172.56 64.7578 Q2174.1 66.3376 2178.76 66.3376 L2186.42 66.3376 L2186.42 72.576 L2178.76 72.576 Q2170.13 72.576 2166.85 69.3758 Q2163.57 66.1351 2163.57 57.6282 L2163.57 32.9987 L2158.1 32.9987 L2158.1 27.2059 L2163.57 27.2059 L2163.57 14.324 L2171.06 14.324 Z" fill="#000000" fill-rule="evenodd" fill-opacity="1" /><polyline clip-path="url(#clip133)" style="stroke:#009af9; stroke-width:4; stroke-opacity:1; fill:none" points="
  326.511,160.369 334.412,1326.64 342.312,1334.31 350.213,1331.81 358.113,1336.65 366.014,1279.92 373.914,1361.1 381.815,1227.32 389.715,1198.8 397.616,1248.38 
  405.516,1300.62 413.417,1336.48 421.317,1300.27 429.218,1312.8 437.118,1340.78 445.019,1233.75 452.92,1311.74 460.82,1222.07 468.721,1282.47 476.621,1360.63 
  484.522,1339.38 492.422,1358.28 500.323,1312.75 508.223,1317.86 516.124,1279.43 524.024,1079.84 531.925,1258.05 539.825,1268.49 547.726,1344.73 555.626,1369.64 
  563.527,1322.56 571.427,1354.54 579.328,1298.34 587.228,1274.48 595.129,1318.12 603.029,1213.74 610.93,1338.47 618.83,1332.49 626.731,1390.25 634.631,1307.38 
  642.532,1322.01 650.432,1240.25 658.333,1225.08 666.233,1299.96 674.134,1259.25 682.034,1328.97 689.935,1389.13 697.835,1319.67 705.736,1325.35 713.636,1210.18 
  721.537,1219.49 729.437,1273.83 737.338,1293.09 745.238,1320.52 753.139,1387.98 761.04,1355.42 768.94,1325.42 776.841,1275.87 784.741,1293.39 792.642,1287.95 
  800.542,1265.51 808.443,1324.45 816.343,1386.62 824.244,1370.57 832.144,1282.64 840.045,1304.95 847.945,1283.2 855.846,1235.32 863.746,1217.13 871.647,1273.69 
  879.547,1320.19 887.448,1385.76 895.348,1329.65 903.249,1341.84 911.149,1264.6 919.05,1219.15 926.95,1264.16 934.851,1283.77 942.751,1330.95 950.652,1371.79 
  958.552,1335.63 966.453,1319.03 974.353,1262.08 982.254,1278.66 990.154,1272.61 998.055,1275.67 1005.96,1329.55 1013.86,1356.28 1021.76,1363.95 1029.66,1328.86 
  1037.56,1334.39 1045.46,1297.26 1053.36,1247.31 1061.26,1193.73 1069.16,1244.26 1077.06,1341.05 1084.96,1376.11 1092.86,1327.95 1100.76,1297.23 1108.66,1310.64 
  1116.56,1232 1124.46,1250.67 1132.36,1283.8 1140.26,1342.55 1148.16,1348.99 1156.07,1275.76 1163.97,1323.27 1171.87,1208.19 1179.77,1267.9 1187.67,1165.69 
  1195.57,1285.64 1203.47,1348.78 1211.37,1354.5 1219.27,1352.53 1227.17,1297.93 1235.07,1334.67 1242.97,1173.11 1250.87,1193.44 1258.77,1239.22 1266.67,1267.44 
  1274.57,1369.72 1282.47,1343.98 1290.37,1308.14 1298.27,1347.58 1306.17,1266.61 1314.08,1293.39 1321.98,1277.69 1329.88,1263.33 1337.78,1337.58 1345.68,1312.93 
  1353.58,1336.01 1361.48,1317.9 1369.38,1309.03 1377.28,1290.39 1385.18,1214.41 1393.08,1317.98 1400.98,1345.16 1408.88,1364.81 1416.78,1349.63 1424.68,1332.46 
  1432.58,1338.99 1440.48,1252.82 1448.38,1164.96 1456.28,1220.77 1464.19,1277.13 1472.09,1319.84 1479.99,1360.38 1487.89,1389.34 1495.79,1283.57 1503.69,1253.85 
  1511.59,1243.71 1519.49,1288.27 1527.39,1321.29 1535.29,1314.73 1543.19,1364.64 1551.09,1373.92 1558.99,1333.19 1566.89,1277.97 1574.79,1267.97 1582.69,1276.56 
  1590.59,1280.56 1598.49,1374.44 1606.39,1367.58 1614.29,1333.12 1622.2,1288.89 1630.1,1327.56 1638,1282.64 1645.9,1255 1653.8,1292.5 1661.7,1345.34 
  1669.6,1334.66 1677.5,1367.67 1685.4,1334.42 1693.3,1283.27 1701.2,1230.83 1709.1,1278.68 1717,1297.7 1724.9,1287.87 1732.8,1321.86 1740.7,1353.74 
  1748.6,1353.57 1756.5,1283.92 1764.4,1303.33 1772.31,1257.09 1780.21,1206.81 1788.11,1287.31 1796.01,1305.77 1803.91,1328.73 1811.81,1385.92 1819.71,1312.17 
  1827.61,1278.18 1835.51,1171.89 1843.41,1205.9 1851.31,1257.17 1859.21,1296.53 1867.11,1353.18 1875.01,1346.16 1882.91,1335.74 1890.81,1300.72 1898.71,1212.94 
  1906.61,1323.82 1914.51,1241.15 1922.41,1294.84 1930.32,1344.9 1938.22,1328.95 1946.12,1346.93 1954.02,1304.41 1961.92,1316.59 1969.82,1215.48 1977.72,1138.94 
  1985.62,1307.35 1993.52,1342.42 2001.42,1338.52 2009.32,1378.88 2017.22,1273.04 2025.12,1301.3 2033.02,1189.82 2040.92,1272.51 2048.82,1304.06 2056.72,1298.5 
  2064.62,1348.11 2072.52,1364.33 2080.43,1328.23 2088.33,1255.34 2096.23,1246.73 2104.13,1269.44 2112.03,1277.42 2119.93,1294.17 2127.83,1323.61 2135.73,1363.96 
  2143.63,1360.82 2151.53,1300.29 2159.43,1306.51 2167.33,1254.56 2175.23,1182.24 2183.13,1311.69 2191.03,1363.54 2198.93,1385.14 2206.83,1342.6 2214.73,1281.06 
  2222.63,1313.01 2230.53,1280.38 2238.44,1268.44 2246.34,1260.61 2254.24,1318.52 2262.14,1362.06 2270.04,1351.93 2277.94,1323.25 2285.84,1267.61 2293.74,1314.91 
  
  "/>
</svg>
