<?xml version="1.0" encoding="utf-8"?>
<svg xmlns="http://www.w3.org/2000/svg" xmlns:xlink="http://www.w3.org/1999/xlink" width="600" height="400" viewBox="0 0 2400 1600">
<defs>
  <clipPath id="clip400">
    <rect x="0" y="0" width="2400" height="1600"/>
  </clipPath>
</defs>
<path clip-path="url(#clip400)" d="
M0 1600 L2400 1600 L2400 0 L0 0  Z
  " fill="#ffffff" fill-rule="evenodd" fill-opacity="1"/>
<defs>
  <clipPath id="clip401">
    <rect x="480" y="0" width="1681" height="1600"/>
  </clipPath>
</defs>
<defs>
  <clipPath id="clip402">
    <rect x="296" y="123" width="2057" height="1305"/>
  </clipPath>
</defs>
<path clip-path="url(#clip400)" d="
M250.695 1423.18 L2352.76 1423.18 L2352.76 123.472 L250.695 123.472  Z
  " fill="#ffffff" fill-rule="evenodd" fill-opacity="1"/>
<defs>
  <clipPath id="clip403">
    <rect x="250" y="123" width="2103" height="1301"/>
  </clipPath>
</defs>
<polyline clip-path="url(#clip403)" style="stroke:#000000; stroke-width:2; stroke-opacity:0.1; fill:none" points="
  310.187,1423.18 310.187,123.472 
  "/>
<polyline clip-path="url(#clip403)" style="stroke:#000000; stroke-width:2; stroke-opacity:0.1; fill:none" points="
  707.204,1423.18 707.204,123.472 
  "/>
<polyline clip-path="url(#clip403)" style="stroke:#000000; stroke-width:2; stroke-opacity:0.1; fill:none" points="
  1104.22,1423.18 1104.22,123.472 
  "/>
<polyline clip-path="url(#clip403)" style="stroke:#000000; stroke-width:2; stroke-opacity:0.1; fill:none" points="
  1501.24,1423.18 1501.24,123.472 
  "/>
<polyline clip-path="url(#clip403)" style="stroke:#000000; stroke-width:2; stroke-opacity:0.1; fill:none" points="
  1898.25,1423.18 1898.25,123.472 
  "/>
<polyline clip-path="url(#clip403)" style="stroke:#000000; stroke-width:2; stroke-opacity:0.1; fill:none" points="
  2295.27,1423.18 2295.27,123.472 
  "/>
<polyline clip-path="url(#clip400)" style="stroke:#000000; stroke-width:4; stroke-opacity:1; fill:none" points="
  250.695,1423.18 2352.76,1423.18 
  "/>
<polyline clip-path="url(#clip400)" style="stroke:#000000; stroke-width:4; stroke-opacity:1; fill:none" points="
  310.187,1423.18 310.187,1407.58 
  "/>
<polyline clip-path="url(#clip400)" style="stroke:#000000; stroke-width:4; stroke-opacity:1; fill:none" points="
  707.204,1423.18 707.204,1407.58 
  "/>
<polyline clip-path="url(#clip400)" style="stroke:#000000; stroke-width:4; stroke-opacity:1; fill:none" points="
  1104.22,1423.18 1104.22,1407.58 
  "/>
<polyline clip-path="url(#clip400)" style="stroke:#000000; stroke-width:4; stroke-opacity:1; fill:none" points="
  1501.24,1423.18 1501.24,1407.58 
  "/>
<polyline clip-path="url(#clip400)" style="stroke:#000000; stroke-width:4; stroke-opacity:1; fill:none" points="
  1898.25,1423.18 1898.25,1407.58 
  "/>
<polyline clip-path="url(#clip400)" style="stroke:#000000; stroke-width:4; stroke-opacity:1; fill:none" points="
  2295.27,1423.18 2295.27,1407.58 
  "/>
<path clip-path="url(#clip400)" d="M 0 0 M310.187 1452.37 Q306.576 1452.37 304.748 1455.94 Q302.942 1459.48 302.942 1466.61 Q302.942 1473.71 304.748 1477.28 Q306.576 1480.82 310.187 1480.82 Q313.822 1480.82 315.627 1477.28 Q317.456 1473.71 317.456 1466.61 Q317.456 1459.48 315.627 1455.94 Q313.822 1452.37 310.187 1452.37 M310.187 1448.67 Q315.998 1448.67 319.053 1453.27 Q322.132 1457.86 322.132 1466.61 Q322.132 1475.33 319.053 1479.94 Q315.998 1484.52 310.187 1484.52 Q304.377 1484.52 301.299 1479.94 Q298.243 1475.33 298.243 1466.61 Q298.243 1457.86 301.299 1453.27 Q304.377 1448.67 310.187 1448.67 Z" fill="#000000" fill-rule="evenodd" fill-opacity="1" /><path clip-path="url(#clip400)" d="M 0 0 M681.892 1479.92 L689.531 1479.92 L689.531 1453.55 L681.22 1455.22 L681.22 1450.96 L689.484 1449.29 L694.16 1449.29 L694.16 1479.92 L701.799 1479.92 L701.799 1483.85 L681.892 1483.85 L681.892 1479.92 Z" fill="#000000" fill-rule="evenodd" fill-opacity="1" /><path clip-path="url(#clip400)" d="M 0 0 M721.243 1452.37 Q717.632 1452.37 715.804 1455.94 Q713.998 1459.48 713.998 1466.61 Q713.998 1473.71 715.804 1477.28 Q717.632 1480.82 721.243 1480.82 Q724.878 1480.82 726.683 1477.28 Q728.512 1473.71 728.512 1466.61 Q728.512 1459.48 726.683 1455.94 Q724.878 1452.37 721.243 1452.37 M721.243 1448.67 Q727.054 1448.67 730.109 1453.27 Q733.188 1457.86 733.188 1466.61 Q733.188 1475.33 730.109 1479.94 Q727.054 1484.52 721.243 1484.52 Q715.433 1484.52 712.355 1479.94 Q709.299 1475.33 709.299 1466.61 Q709.299 1457.86 712.355 1453.27 Q715.433 1448.67 721.243 1448.67 Z" fill="#000000" fill-rule="evenodd" fill-opacity="1" /><path clip-path="url(#clip400)" d="M 0 0 M1082.99 1479.92 L1099.31 1479.92 L1099.31 1483.85 L1077.37 1483.85 L1077.37 1479.92 Q1080.03 1477.16 1084.61 1472.53 Q1089.22 1467.88 1090.4 1466.54 Q1092.65 1464.01 1093.53 1462.28 Q1094.43 1460.52 1094.43 1458.83 Q1094.43 1456.07 1092.48 1454.34 Q1090.56 1452.6 1087.46 1452.6 Q1085.26 1452.6 1082.81 1453.37 Q1080.38 1454.13 1077.6 1455.68 L1077.6 1450.96 Q1080.42 1449.82 1082.88 1449.25 Q1085.33 1448.67 1087.37 1448.67 Q1092.74 1448.67 1095.93 1451.35 Q1099.13 1454.04 1099.13 1458.53 Q1099.13 1460.66 1098.32 1462.58 Q1097.53 1464.48 1095.42 1467.07 Q1094.85 1467.74 1091.74 1470.96 Q1088.64 1474.15 1082.99 1479.92 Z" fill="#000000" fill-rule="evenodd" fill-opacity="1" /><path clip-path="url(#clip400)" d="M 0 0 M1119.13 1452.37 Q1115.52 1452.37 1113.69 1455.94 Q1111.88 1459.48 1111.88 1466.61 Q1111.88 1473.71 1113.69 1477.28 Q1115.52 1480.82 1119.13 1480.82 Q1122.76 1480.82 1124.57 1477.28 Q1126.4 1473.71 1126.4 1466.61 Q1126.4 1459.48 1124.57 1455.94 Q1122.76 1452.37 1119.13 1452.37 M1119.13 1448.67 Q1124.94 1448.67 1127.99 1453.27 Q1131.07 1457.86 1131.07 1466.61 Q1131.07 1475.33 1127.99 1479.94 Q1124.94 1484.52 1119.13 1484.52 Q1113.32 1484.52 1110.24 1479.94 Q1107.18 1475.33 1107.18 1466.61 Q1107.18 1457.86 1110.24 1453.27 Q1113.32 1448.67 1119.13 1448.67 Z" fill="#000000" fill-rule="evenodd" fill-opacity="1" /><path clip-path="url(#clip400)" d="M 0 0 M1490.08 1465.22 Q1493.44 1465.94 1495.31 1468.2 Q1497.21 1470.47 1497.21 1473.81 Q1497.21 1478.92 1493.69 1481.72 Q1490.17 1484.52 1483.69 1484.52 Q1481.52 1484.52 1479.2 1484.08 Q1476.91 1483.67 1474.46 1482.81 L1474.46 1478.3 Q1476.4 1479.43 1478.71 1480.01 Q1481.03 1480.59 1483.55 1480.59 Q1487.95 1480.59 1490.24 1478.85 Q1492.56 1477.12 1492.56 1473.81 Q1492.56 1470.75 1490.4 1469.04 Q1488.27 1467.3 1484.46 1467.3 L1480.43 1467.3 L1480.43 1463.46 L1484.64 1463.46 Q1488.09 1463.46 1489.92 1462.09 Q1491.75 1460.7 1491.75 1458.11 Q1491.75 1455.45 1489.85 1454.04 Q1487.97 1452.6 1484.46 1452.6 Q1482.53 1452.6 1480.33 1453.02 Q1478.14 1453.44 1475.5 1454.31 L1475.5 1450.15 Q1478.16 1449.41 1480.47 1449.04 Q1482.81 1448.67 1484.87 1448.67 Q1490.2 1448.67 1493.3 1451.1 Q1496.4 1453.5 1496.4 1457.63 Q1496.4 1460.5 1494.76 1462.49 Q1493.11 1464.45 1490.08 1465.22 Z" fill="#000000" fill-rule="evenodd" fill-opacity="1" /><path clip-path="url(#clip400)" d="M 0 0 M1516.08 1452.37 Q1512.46 1452.37 1510.64 1455.94 Q1508.83 1459.48 1508.83 1466.61 Q1508.83 1473.71 1510.64 1477.28 Q1512.46 1480.82 1516.08 1480.82 Q1519.71 1480.82 1521.52 1477.28 Q1523.34 1473.71 1523.34 1466.61 Q1523.34 1459.48 1521.52 1455.94 Q1519.71 1452.37 1516.08 1452.37 M1516.08 1448.67 Q1521.89 1448.67 1524.94 1453.27 Q1528.02 1457.86 1528.02 1466.61 Q1528.02 1475.33 1524.94 1479.94 Q1521.89 1484.52 1516.08 1484.52 Q1510.27 1484.52 1507.19 1479.94 Q1504.13 1475.33 1504.13 1466.61 Q1504.13 1457.86 1507.19 1453.27 Q1510.27 1448.67 1516.08 1448.67 Z" fill="#000000" fill-rule="evenodd" fill-opacity="1" /><path clip-path="url(#clip400)" d="M 0 0 M1886.43 1453.37 L1874.62 1471.81 L1886.43 1471.81 L1886.43 1453.37 M1885.2 1449.29 L1891.08 1449.29 L1891.08 1471.81 L1896.01 1471.81 L1896.01 1475.7 L1891.08 1475.7 L1891.08 1483.85 L1886.43 1483.85 L1886.43 1475.7 L1870.82 1475.7 L1870.82 1471.19 L1885.2 1449.29 Z" fill="#000000" fill-rule="evenodd" fill-opacity="1" /><path clip-path="url(#clip400)" d="M 0 0 M1913.74 1452.37 Q1910.13 1452.37 1908.3 1455.94 Q1906.49 1459.48 1906.49 1466.61 Q1906.49 1473.71 1908.3 1477.28 Q1910.13 1480.82 1913.74 1480.82 Q1917.37 1480.82 1919.18 1477.28 Q1921.01 1473.71 1921.01 1466.61 Q1921.01 1459.48 1919.18 1455.94 Q1917.37 1452.37 1913.74 1452.37 M1913.74 1448.67 Q1919.55 1448.67 1922.61 1453.27 Q1925.68 1457.86 1925.68 1466.61 Q1925.68 1475.33 1922.61 1479.94 Q1919.55 1484.52 1913.74 1484.52 Q1907.93 1484.52 1904.85 1479.94 Q1901.8 1475.33 1901.8 1466.61 Q1901.8 1457.86 1904.85 1453.27 Q1907.93 1448.67 1913.74 1448.67 Z" fill="#000000" fill-rule="evenodd" fill-opacity="1" /><path clip-path="url(#clip400)" d="M 0 0 M2269.97 1449.29 L2288.33 1449.29 L2288.33 1453.23 L2274.25 1453.23 L2274.25 1461.7 Q2275.27 1461.35 2276.29 1461.19 Q2277.31 1461 2278.33 1461 Q2284.11 1461 2287.49 1464.18 Q2290.87 1467.35 2290.87 1472.76 Q2290.87 1478.34 2287.4 1481.44 Q2283.93 1484.52 2277.61 1484.52 Q2275.43 1484.52 2273.16 1484.15 Q2270.92 1483.78 2268.51 1483.04 L2268.51 1478.34 Q2270.59 1479.48 2272.82 1480.03 Q2275.04 1480.59 2277.52 1480.59 Q2281.52 1480.59 2283.86 1478.48 Q2286.2 1476.38 2286.2 1472.76 Q2286.2 1469.15 2283.86 1467.05 Q2281.52 1464.94 2277.52 1464.94 Q2275.64 1464.94 2273.77 1465.36 Q2271.91 1465.77 2269.97 1466.65 L2269.97 1449.29 Z" fill="#000000" fill-rule="evenodd" fill-opacity="1" /><path clip-path="url(#clip400)" d="M 0 0 M2310.09 1452.37 Q2306.47 1452.37 2304.65 1455.94 Q2302.84 1459.48 2302.84 1466.61 Q2302.84 1473.71 2304.65 1477.28 Q2306.47 1480.82 2310.09 1480.82 Q2313.72 1480.82 2315.53 1477.28 Q2317.35 1473.71 2317.35 1466.61 Q2317.35 1459.48 2315.53 1455.94 Q2313.72 1452.37 2310.09 1452.37 M2310.09 1448.67 Q2315.9 1448.67 2318.95 1453.27 Q2322.03 1457.86 2322.03 1466.61 Q2322.03 1475.33 2318.95 1479.94 Q2315.9 1484.52 2310.09 1484.52 Q2304.28 1484.52 2301.2 1479.94 Q2298.14 1475.33 2298.14 1466.61 Q2298.14 1457.86 2301.2 1453.27 Q2304.28 1448.67 2310.09 1448.67 Z" fill="#000000" fill-rule="evenodd" fill-opacity="1" /><path clip-path="url(#clip400)" d="M 0 0 M1061.83 1518.52 L1061.83 1523.39 L1056.23 1523.39 Q1053.08 1523.39 1051.84 1524.66 Q1050.63 1525.93 1050.63 1529.24 L1050.63 1532.4 L1060.27 1532.4 L1060.27 1536.95 L1050.63 1536.95 L1050.63 1568.04 L1044.74 1568.04 L1044.74 1536.95 L1039.14 1536.95 L1039.14 1532.4 L1044.74 1532.4 L1044.74 1529.91 Q1044.74 1523.96 1047.51 1521.26 Q1050.28 1518.52 1056.3 1518.52 L1061.83 1518.52 Z" fill="#000000" fill-rule="evenodd" fill-opacity="1" /><path clip-path="url(#clip400)" d="M 0 0 M1087.39 1537.87 Q1086.41 1537.3 1085.23 1537.04 Q1084.08 1536.76 1082.68 1536.76 Q1077.72 1536.76 1075.04 1540 Q1072.4 1543.22 1072.4 1549.27 L1072.4 1568.04 L1066.51 1568.04 L1066.51 1532.4 L1072.4 1532.4 L1072.4 1537.93 Q1074.25 1534.69 1077.21 1533.13 Q1080.17 1531.54 1084.4 1531.54 Q1085.01 1531.54 1085.74 1531.63 Q1086.47 1531.7 1087.36 1531.85 L1087.39 1537.87 Z" fill="#000000" fill-rule="evenodd" fill-opacity="1" /><path clip-path="url(#clip400)" d="M 0 0 M1122.59 1548.76 L1122.59 1551.62 L1095.67 1551.62 Q1096.05 1557.67 1099.3 1560.85 Q1102.57 1564 1108.4 1564 Q1111.77 1564 1114.92 1563.17 Q1118.11 1562.35 1121.23 1560.69 L1121.23 1566.23 Q1118.07 1567.57 1114.76 1568.27 Q1111.45 1568.97 1108.05 1568.97 Q1099.52 1568.97 1094.52 1564 Q1089.56 1559.04 1089.56 1550.57 Q1089.56 1541.82 1094.27 1536.69 Q1099.01 1531.54 1107.03 1531.54 Q1114.22 1531.54 1118.39 1536.18 Q1122.59 1540.8 1122.59 1548.76 M1116.74 1547.04 Q1116.67 1542.23 1114.03 1539.37 Q1111.42 1536.5 1107.09 1536.5 Q1102.19 1536.5 1099.23 1539.27 Q1096.3 1542.04 1095.86 1547.07 L1116.74 1547.04 Z" fill="#000000" fill-rule="evenodd" fill-opacity="1" /><path clip-path="url(#clip400)" d="M 0 0 M1135.71 1550.25 Q1135.71 1556.71 1138.35 1560.4 Q1141.02 1564.07 1145.67 1564.07 Q1150.32 1564.07 1152.99 1560.4 Q1155.66 1556.71 1155.66 1550.25 Q1155.66 1543.79 1152.99 1540.13 Q1150.32 1536.44 1145.67 1536.44 Q1141.02 1536.44 1138.35 1540.13 Q1135.71 1543.79 1135.71 1550.25 M1155.66 1562.7 Q1153.82 1565.88 1150.99 1567.44 Q1148.18 1568.97 1144.24 1568.97 Q1137.78 1568.97 1133.7 1563.81 Q1129.66 1558.65 1129.66 1550.25 Q1129.66 1541.85 1133.7 1536.69 Q1137.78 1531.54 1144.24 1531.54 Q1148.18 1531.54 1150.99 1533.1 Q1153.82 1534.62 1155.66 1537.81 L1155.66 1532.4 L1161.52 1532.4 L1161.52 1581.6 L1155.66 1581.6 L1155.66 1562.7 Z" fill="#000000" fill-rule="evenodd" fill-opacity="1" /><path clip-path="url(#clip400)" d="M 0 0 M1172.98 1553.98 L1172.98 1532.4 L1178.84 1532.4 L1178.84 1553.75 Q1178.84 1558.81 1180.81 1561.36 Q1182.78 1563.87 1186.73 1563.87 Q1191.47 1563.87 1194.21 1560.85 Q1196.98 1557.83 1196.98 1552.61 L1196.98 1532.4 L1202.83 1532.4 L1202.83 1568.04 L1196.98 1568.04 L1196.98 1562.57 Q1194.85 1565.82 1192.01 1567.41 Q1189.21 1568.97 1185.49 1568.97 Q1179.34 1568.97 1176.16 1565.15 Q1172.98 1561.33 1172.98 1553.98 M1187.72 1531.54 L1187.72 1531.54 Z" fill="#000000" fill-rule="evenodd" fill-opacity="1" /><path clip-path="url(#clip400)" d="M 0 0 M1245.39 1548.76 L1245.39 1551.62 L1218.46 1551.62 Q1218.84 1557.67 1222.09 1560.85 Q1225.37 1564 1231.19 1564 Q1234.57 1564 1237.72 1563.17 Q1240.9 1562.35 1244.02 1560.69 L1244.02 1566.23 Q1240.87 1567.57 1237.56 1568.27 Q1234.25 1568.97 1230.84 1568.97 Q1222.31 1568.97 1217.32 1564 Q1212.35 1559.04 1212.35 1550.57 Q1212.35 1541.82 1217.06 1536.69 Q1221.8 1531.54 1229.82 1531.54 Q1237.02 1531.54 1241.19 1536.18 Q1245.39 1540.8 1245.39 1548.76 M1239.53 1547.04 Q1239.47 1542.23 1236.83 1539.37 Q1234.22 1536.5 1229.89 1536.5 Q1224.99 1536.5 1222.03 1539.27 Q1219.1 1542.04 1218.65 1547.07 L1239.53 1547.04 Z" fill="#000000" fill-rule="evenodd" fill-opacity="1" /><path clip-path="url(#clip400)" d="M 0 0 M1284.63 1546.53 L1284.63 1568.04 L1278.78 1568.04 L1278.78 1546.72 Q1278.78 1541.66 1276.8 1539.14 Q1274.83 1536.63 1270.88 1536.63 Q1266.14 1536.63 1263.4 1539.65 Q1260.67 1542.68 1260.67 1547.9 L1260.67 1568.04 L1254.78 1568.04 L1254.78 1532.4 L1260.67 1532.4 L1260.67 1537.93 Q1262.77 1534.72 1265.6 1533.13 Q1268.46 1531.54 1272.19 1531.54 Q1278.33 1531.54 1281.48 1535.36 Q1284.63 1539.14 1284.63 1546.53 Z" fill="#000000" fill-rule="evenodd" fill-opacity="1" /><path clip-path="url(#clip400)" d="M 0 0 M1321.97 1533.76 L1321.97 1539.24 Q1319.49 1537.87 1316.97 1537.2 Q1314.49 1536.5 1311.94 1536.5 Q1306.25 1536.5 1303.09 1540.13 Q1299.94 1543.73 1299.94 1550.25 Q1299.94 1556.78 1303.09 1560.4 Q1306.25 1564 1311.94 1564 Q1314.49 1564 1316.97 1563.33 Q1319.49 1562.63 1321.97 1561.26 L1321.97 1566.68 Q1319.52 1567.82 1316.88 1568.39 Q1314.27 1568.97 1311.31 1568.97 Q1303.25 1568.97 1298.51 1563.91 Q1293.77 1558.85 1293.77 1550.25 Q1293.77 1541.53 1298.54 1536.53 Q1303.35 1531.54 1311.69 1531.54 Q1314.39 1531.54 1316.97 1532.11 Q1319.55 1532.65 1321.97 1533.76 Z" fill="#000000" fill-rule="evenodd" fill-opacity="1" /><path clip-path="url(#clip400)" d="M 0 0 M1346.99 1571.35 Q1344.5 1577.72 1342.15 1579.66 Q1339.79 1581.6 1335.85 1581.6 L1331.17 1581.6 L1331.17 1576.7 L1334.6 1576.7 Q1337.02 1576.7 1338.36 1575.56 Q1339.7 1574.41 1341.32 1570.14 L1342.37 1567.47 L1327.95 1532.4 L1334.16 1532.4 L1345.3 1560.28 L1356.44 1532.4 L1362.65 1532.4 L1346.99 1571.35 Z" fill="#000000" fill-rule="evenodd" fill-opacity="1" /><path clip-path="url(#clip400)" d="M 0 0 M1405.52 1518.58 Q1401.25 1525.9 1399.18 1533.06 Q1397.12 1540.23 1397.12 1547.58 Q1397.12 1554.93 1399.18 1562.16 Q1401.29 1569.35 1405.52 1576.64 L1400.43 1576.64 Q1395.65 1569.16 1393.26 1561.93 Q1390.91 1554.71 1390.91 1547.58 Q1390.91 1540.48 1393.26 1533.29 Q1395.62 1526.09 1400.43 1518.58 L1405.52 1518.58 Z" fill="#000000" fill-rule="evenodd" fill-opacity="1" /><path clip-path="url(#clip400)" d="M 0 0 M1449.54 1561.26 L1449.54 1548.5 L1439.03 1548.5 L1439.03 1543.22 L1455.9 1543.22 L1455.9 1563.62 Q1452.18 1566.26 1447.69 1567.63 Q1443.2 1568.97 1438.11 1568.97 Q1426.97 1568.97 1420.67 1562.47 Q1414.4 1555.95 1414.4 1544.33 Q1414.4 1532.68 1420.67 1526.19 Q1426.97 1519.66 1438.11 1519.66 Q1442.76 1519.66 1446.93 1520.81 Q1451.13 1521.96 1454.66 1524.18 L1454.66 1531.03 Q1451.1 1528 1447.09 1526.48 Q1443.08 1524.95 1438.65 1524.95 Q1429.93 1524.95 1425.54 1529.82 Q1421.18 1534.69 1421.18 1544.33 Q1421.18 1553.94 1425.54 1558.81 Q1429.93 1563.68 1438.65 1563.68 Q1442.06 1563.68 1444.73 1563.11 Q1447.4 1562.51 1449.54 1561.26 Z" fill="#000000" fill-rule="evenodd" fill-opacity="1" /><path clip-path="url(#clip400)" d="M 0 0 M1467.65 1520.52 L1474.08 1520.52 L1474.08 1540 L1497.44 1540 L1497.44 1520.52 L1503.87 1520.52 L1503.87 1568.04 L1497.44 1568.04 L1497.44 1545.41 L1474.08 1545.41 L1474.08 1568.04 L1467.65 1568.04 L1467.65 1520.52 Z" fill="#000000" fill-rule="evenodd" fill-opacity="1" /><path clip-path="url(#clip400)" d="M 0 0 M1513.86 1532.4 L1541.68 1532.4 L1541.68 1537.74 L1519.66 1563.37 L1541.68 1563.37 L1541.68 1568.04 L1513.07 1568.04 L1513.07 1562.7 L1535.09 1537.07 L1513.86 1537.07 L1513.86 1532.4 Z" fill="#000000" fill-rule="evenodd" fill-opacity="1" /><path clip-path="url(#clip400)" d="M 0 0 M1549.7 1518.58 L1554.79 1518.58 Q1559.57 1526.09 1561.92 1533.29 Q1564.31 1540.48 1564.31 1547.58 Q1564.31 1554.71 1561.92 1561.93 Q1559.57 1569.16 1554.79 1576.64 L1549.7 1576.64 Q1553.93 1569.35 1556 1562.16 Q1558.1 1554.93 1558.1 1547.58 Q1558.1 1540.23 1556 1533.06 Q1553.93 1525.9 1549.7 1518.58 Z" fill="#000000" fill-rule="evenodd" fill-opacity="1" /><polyline clip-path="url(#clip403)" style="stroke:#000000; stroke-width:2; stroke-opacity:0.1; fill:none" points="
  250.695,1386.4 2352.76,1386.4 
  "/>
<polyline clip-path="url(#clip403)" style="stroke:#000000; stroke-width:2; stroke-opacity:0.1; fill:none" points="
  250.695,1133.66 2352.76,1133.66 
  "/>
<polyline clip-path="url(#clip403)" style="stroke:#000000; stroke-width:2; stroke-opacity:0.1; fill:none" points="
  250.695,880.934 2352.76,880.934 
  "/>
<polyline clip-path="url(#clip403)" style="stroke:#000000; stroke-width:2; stroke-opacity:0.1; fill:none" points="
  250.695,628.203 2352.76,628.203 
  "/>
<polyline clip-path="url(#clip403)" style="stroke:#000000; stroke-width:2; stroke-opacity:0.1; fill:none" points="
  250.695,375.473 2352.76,375.473 
  "/>
<polyline clip-path="url(#clip400)" style="stroke:#000000; stroke-width:4; stroke-opacity:1; fill:none" points="
  250.695,1423.18 250.695,123.472 
  "/>
<polyline clip-path="url(#clip400)" style="stroke:#000000; stroke-width:4; stroke-opacity:1; fill:none" points="
  250.695,1386.4 275.92,1386.4 
  "/>
<polyline clip-path="url(#clip400)" style="stroke:#000000; stroke-width:4; stroke-opacity:1; fill:none" points="
  250.695,1133.66 275.92,1133.66 
  "/>
<polyline clip-path="url(#clip400)" style="stroke:#000000; stroke-width:4; stroke-opacity:1; fill:none" points="
  250.695,880.934 275.92,880.934 
  "/>
<polyline clip-path="url(#clip400)" style="stroke:#000000; stroke-width:4; stroke-opacity:1; fill:none" points="
  250.695,628.203 275.92,628.203 
  "/>
<polyline clip-path="url(#clip400)" style="stroke:#000000; stroke-width:4; stroke-opacity:1; fill:none" points="
  250.695,375.473 275.92,375.473 
  "/>
<path clip-path="url(#clip400)" d="M 0 0 M202.751 1372.19 Q199.14 1372.19 197.311 1375.76 Q195.505 1379.3 195.505 1386.43 Q195.505 1393.54 197.311 1397.1 Q199.14 1400.64 202.751 1400.64 Q206.385 1400.64 208.191 1397.1 Q210.019 1393.54 210.019 1386.43 Q210.019 1379.3 208.191 1375.76 Q206.385 1372.19 202.751 1372.19 M202.751 1368.49 Q208.561 1368.49 211.616 1373.1 Q214.695 1377.68 214.695 1386.43 Q214.695 1395.16 211.616 1399.76 Q208.561 1404.35 202.751 1404.35 Q196.941 1404.35 193.862 1399.76 Q190.806 1395.16 190.806 1386.43 Q190.806 1377.68 193.862 1373.1 Q196.941 1368.49 202.751 1368.49 Z" fill="#000000" fill-rule="evenodd" fill-opacity="1" /><path clip-path="url(#clip400)" d="M 0 0 M136.455 1147.01 L152.774 1147.01 L152.774 1150.94 L130.83 1150.94 L130.83 1147.01 Q133.492 1144.26 138.075 1139.63 Q142.682 1134.97 143.862 1133.63 Q146.108 1131.11 146.987 1129.37 Q147.89 1127.61 147.89 1125.92 Q147.89 1123.17 145.946 1121.43 Q144.024 1119.7 140.922 1119.7 Q138.723 1119.7 136.27 1120.46 Q133.839 1121.22 131.061 1122.77 L131.061 1118.05 Q133.885 1116.92 136.339 1116.34 Q138.793 1115.76 140.83 1115.76 Q146.2 1115.76 149.395 1118.45 Q152.589 1121.13 152.589 1125.62 Q152.589 1127.75 151.779 1129.67 Q150.992 1131.57 148.885 1134.16 Q148.307 1134.83 145.205 1138.05 Q142.103 1141.25 136.455 1147.01 Z" fill="#000000" fill-rule="evenodd" fill-opacity="1" /><path clip-path="url(#clip400)" d="M 0 0 M172.589 1119.46 Q168.978 1119.46 167.149 1123.03 Q165.344 1126.57 165.344 1133.7 Q165.344 1140.81 167.149 1144.37 Q168.978 1147.91 172.589 1147.91 Q176.223 1147.91 178.029 1144.37 Q179.857 1140.81 179.857 1133.7 Q179.857 1126.57 178.029 1123.03 Q176.223 1119.46 172.589 1119.46 M172.589 1115.76 Q178.399 1115.76 181.455 1120.37 Q184.533 1124.95 184.533 1133.7 Q184.533 1142.43 181.455 1147.03 Q178.399 1151.62 172.589 1151.62 Q166.779 1151.62 163.7 1147.03 Q160.645 1142.43 160.645 1133.7 Q160.645 1124.95 163.7 1120.37 Q166.779 1115.76 172.589 1115.76 Z" fill="#000000" fill-rule="evenodd" fill-opacity="1" /><path clip-path="url(#clip400)" d="M 0 0 M202.751 1119.46 Q199.14 1119.46 197.311 1123.03 Q195.505 1126.57 195.505 1133.7 Q195.505 1140.81 197.311 1144.37 Q199.14 1147.91 202.751 1147.91 Q206.385 1147.91 208.191 1144.37 Q210.019 1140.81 210.019 1133.7 Q210.019 1126.57 208.191 1123.03 Q206.385 1119.46 202.751 1119.46 M202.751 1115.76 Q208.561 1115.76 211.616 1120.37 Q214.695 1124.95 214.695 1133.7 Q214.695 1142.43 211.616 1147.03 Q208.561 1151.62 202.751 1151.62 Q196.941 1151.62 193.862 1147.03 Q190.806 1142.43 190.806 1133.7 Q190.806 1124.95 193.862 1120.37 Q196.941 1115.76 202.751 1115.76 Z" fill="#000000" fill-rule="evenodd" fill-opacity="1" /><path clip-path="url(#clip400)" d="M 0 0 M145.274 867.728 L133.469 886.177 L145.274 886.177 L145.274 867.728 M144.047 863.654 L149.927 863.654 L149.927 886.177 L154.857 886.177 L154.857 890.066 L149.927 890.066 L149.927 898.214 L145.274 898.214 L145.274 890.066 L129.672 890.066 L129.672 885.552 L144.047 863.654 Z" fill="#000000" fill-rule="evenodd" fill-opacity="1" /><path clip-path="url(#clip400)" d="M 0 0 M172.589 866.733 Q168.978 866.733 167.149 870.298 Q165.344 873.839 165.344 880.969 Q165.344 888.075 167.149 891.64 Q168.978 895.182 172.589 895.182 Q176.223 895.182 178.029 891.64 Q179.857 888.075 179.857 880.969 Q179.857 873.839 178.029 870.298 Q176.223 866.733 172.589 866.733 M172.589 863.029 Q178.399 863.029 181.455 867.636 Q184.533 872.219 184.533 880.969 Q184.533 889.696 181.455 894.302 Q178.399 898.885 172.589 898.885 Q166.779 898.885 163.7 894.302 Q160.645 889.696 160.645 880.969 Q160.645 872.219 163.7 867.636 Q166.779 863.029 172.589 863.029 Z" fill="#000000" fill-rule="evenodd" fill-opacity="1" /><path clip-path="url(#clip400)" d="M 0 0 M202.751 866.733 Q199.14 866.733 197.311 870.298 Q195.505 873.839 195.505 880.969 Q195.505 888.075 197.311 891.64 Q199.14 895.182 202.751 895.182 Q206.385 895.182 208.191 891.64 Q210.019 888.075 210.019 880.969 Q210.019 873.839 208.191 870.298 Q206.385 866.733 202.751 866.733 M202.751 863.029 Q208.561 863.029 211.616 867.636 Q214.695 872.219 214.695 880.969 Q214.695 889.696 211.616 894.302 Q208.561 898.885 202.751 898.885 Q196.941 898.885 193.862 894.302 Q190.806 889.696 190.806 880.969 Q190.806 872.219 193.862 867.636 Q196.941 863.029 202.751 863.029 Z" fill="#000000" fill-rule="evenodd" fill-opacity="1" /><path clip-path="url(#clip400)" d="M 0 0 M143.006 626.34 Q139.858 626.34 138.006 628.493 Q136.177 630.646 136.177 634.396 Q136.177 638.122 138.006 640.298 Q139.858 642.451 143.006 642.451 Q146.154 642.451 147.983 640.298 Q149.834 638.122 149.834 634.396 Q149.834 630.646 147.983 628.493 Q146.154 626.34 143.006 626.34 M152.288 611.687 L152.288 615.947 Q150.529 615.113 148.723 614.673 Q146.941 614.234 145.182 614.234 Q140.552 614.234 138.098 617.359 Q135.668 620.484 135.321 626.803 Q136.686 624.789 138.746 623.724 Q140.807 622.636 143.283 622.636 Q148.492 622.636 151.501 625.808 Q154.533 628.956 154.533 634.396 Q154.533 639.72 151.385 642.937 Q148.237 646.155 143.006 646.155 Q137.01 646.155 133.839 641.571 Q130.668 636.965 130.668 628.238 Q130.668 620.044 134.557 615.183 Q138.446 610.298 144.996 610.298 Q146.756 610.298 148.538 610.646 Q150.344 610.993 152.288 611.687 Z" fill="#000000" fill-rule="evenodd" fill-opacity="1" /><path clip-path="url(#clip400)" d="M 0 0 M172.589 614.002 Q168.978 614.002 167.149 617.567 Q165.344 621.109 165.344 628.238 Q165.344 635.345 167.149 638.909 Q168.978 642.451 172.589 642.451 Q176.223 642.451 178.029 638.909 Q179.857 635.345 179.857 628.238 Q179.857 621.109 178.029 617.567 Q176.223 614.002 172.589 614.002 M172.589 610.298 Q178.399 610.298 181.455 614.905 Q184.533 619.488 184.533 628.238 Q184.533 636.965 181.455 641.571 Q178.399 646.155 172.589 646.155 Q166.779 646.155 163.7 641.571 Q160.645 636.965 160.645 628.238 Q160.645 619.488 163.7 614.905 Q166.779 610.298 172.589 610.298 Z" fill="#000000" fill-rule="evenodd" fill-opacity="1" /><path clip-path="url(#clip400)" d="M 0 0 M202.751 614.002 Q199.14 614.002 197.311 617.567 Q195.505 621.109 195.505 628.238 Q195.505 635.345 197.311 638.909 Q199.14 642.451 202.751 642.451 Q206.385 642.451 208.191 638.909 Q210.019 635.345 210.019 628.238 Q210.019 621.109 208.191 617.567 Q206.385 614.002 202.751 614.002 M202.751 610.298 Q208.561 610.298 211.616 614.905 Q214.695 619.488 214.695 628.238 Q214.695 636.965 211.616 641.571 Q208.561 646.155 202.751 646.155 Q196.941 646.155 193.862 641.571 Q190.806 636.965 190.806 628.238 Q190.806 619.488 193.862 614.905 Q196.941 610.298 202.751 610.298 Z" fill="#000000" fill-rule="evenodd" fill-opacity="1" /><path clip-path="url(#clip400)" d="M 0 0 M142.427 376.341 Q139.094 376.341 137.172 378.123 Q135.274 379.906 135.274 383.031 Q135.274 386.156 137.172 387.938 Q139.094 389.72 142.427 389.72 Q145.76 389.72 147.682 387.938 Q149.603 386.132 149.603 383.031 Q149.603 379.906 147.682 378.123 Q145.783 376.341 142.427 376.341 M137.751 374.35 Q134.742 373.609 133.052 371.549 Q131.385 369.489 131.385 366.526 Q131.385 362.383 134.325 359.975 Q137.288 357.568 142.427 357.568 Q147.589 357.568 150.529 359.975 Q153.469 362.383 153.469 366.526 Q153.469 369.489 151.779 371.549 Q150.112 373.609 147.126 374.35 Q150.506 375.137 152.381 377.429 Q154.279 379.72 154.279 383.031 Q154.279 388.054 151.2 390.739 Q148.145 393.424 142.427 393.424 Q136.709 393.424 133.631 390.739 Q130.575 388.054 130.575 383.031 Q130.575 379.72 132.473 377.429 Q134.371 375.137 137.751 374.35 M136.038 366.966 Q136.038 369.651 137.705 371.156 Q139.395 372.66 142.427 372.66 Q145.436 372.66 147.126 371.156 Q148.839 369.651 148.839 366.966 Q148.839 364.281 147.126 362.776 Q145.436 361.271 142.427 361.271 Q139.395 361.271 137.705 362.776 Q136.038 364.281 136.038 366.966 Z" fill="#000000" fill-rule="evenodd" fill-opacity="1" /><path clip-path="url(#clip400)" d="M 0 0 M172.589 361.271 Q168.978 361.271 167.149 364.836 Q165.344 368.378 165.344 375.507 Q165.344 382.614 167.149 386.179 Q168.978 389.72 172.589 389.72 Q176.223 389.72 178.029 386.179 Q179.857 382.614 179.857 375.507 Q179.857 368.378 178.029 364.836 Q176.223 361.271 172.589 361.271 M172.589 357.568 Q178.399 357.568 181.455 362.174 Q184.533 366.757 184.533 375.507 Q184.533 384.234 181.455 388.841 Q178.399 393.424 172.589 393.424 Q166.779 393.424 163.7 388.841 Q160.645 384.234 160.645 375.507 Q160.645 366.757 163.7 362.174 Q166.779 357.568 172.589 357.568 Z" fill="#000000" fill-rule="evenodd" fill-opacity="1" /><path clip-path="url(#clip400)" d="M 0 0 M202.751 361.271 Q199.14 361.271 197.311 364.836 Q195.505 368.378 195.505 375.507 Q195.505 382.614 197.311 386.179 Q199.14 389.72 202.751 389.72 Q206.385 389.72 208.191 386.179 Q210.019 382.614 210.019 375.507 Q210.019 368.378 208.191 364.836 Q206.385 361.271 202.751 361.271 M202.751 357.568 Q208.561 357.568 211.616 362.174 Q214.695 366.757 214.695 375.507 Q214.695 384.234 211.616 388.841 Q208.561 393.424 202.751 393.424 Q196.941 393.424 193.862 388.841 Q190.806 384.234 190.806 375.507 Q190.806 366.757 193.862 362.174 Q196.941 357.568 202.751 357.568 Z" fill="#000000" fill-rule="evenodd" fill-opacity="1" /><path clip-path="url(#clip400)" d="M 0 0 M49.6875 837.926 L50.6118 838.49 Q49.1013 841.984 46.6891 846.335 Q49.1013 850.686 50.6118 854.181 L49.6875 854.722 Q46.3735 850.912 43.826 846.335 Q46.396 841.714 49.6875 837.926 Z" fill="#000000" fill-rule="evenodd" fill-opacity="1" /><path clip-path="url(#clip400)" d="M 0 0 M60.7296 835.341 Q60.7618 835.341 61.9212 835.534 L91.1964 842.877 Q92.7423 843.263 94.2881 844.358 Q95.8662 845.421 97.2189 847.128 Q98.6037 848.803 99.4411 851.379 Q100.311 853.924 100.311 856.854 Q100.311 861.524 99.3122 863.585 Q98.3461 865.614 96.2849 865.614 Q94.4814 865.614 93.4508 864.487 Q92.4524 863.36 92.4524 862.072 Q92.4524 860.848 93.1609 860.204 Q93.8695 859.56 94.7712 859.56 Q95.7696 859.56 96.768 860.236 Q97.7986 860.912 98.185 862.265 Q98.8614 860.107 98.8614 856.983 Q98.8614 850.381 91.8727 847.547 Q91.7761 847.482 91.7439 847.482 L83.0161 845.292 L82.9517 845.389 Q83.5958 845.936 84.3365 846.806 Q85.0451 847.643 85.9146 849.447 Q86.7842 851.25 86.7842 853.022 Q86.7842 856.725 83.9501 859.27 Q81.0837 861.782 76.3495 861.782 Q72.9034 861.782 69.4574 860.397 Q65.9792 858.98 63.4349 856.79 Q60.8584 854.568 59.2482 851.734 Q57.6379 848.867 57.6379 846.098 Q57.6379 844.165 58.7973 842.523 Q59.9245 840.88 61.7924 839.978 Q60.2465 839.817 59.6024 838.948 Q58.9583 838.046 58.9583 837.273 Q58.9583 836.404 59.4414 835.888 Q59.8923 835.341 60.7296 835.341 M64.7554 840.751 Q64.5621 840.751 64.0468 840.88 Q63.4993 841.009 62.6298 841.395 Q61.7602 841.75 60.9873 842.297 Q60.2143 842.845 59.6668 843.843 Q59.0871 844.809 59.0871 846.033 Q59.0871 848.03 60.7618 850.027 Q62.4043 852.023 64.9486 853.408 Q67.3962 854.696 72.1305 855.92 Q76.8648 857.112 79.2802 857.112 Q81.6634 857.112 83.4992 856.081 Q85.3349 855.051 85.3349 852.829 Q85.3349 850.252 82.9517 847.482 Q80.4718 844.616 78.3462 844.133 L65.7537 840.945 Q64.9808 840.751 64.7554 840.751 Z" fill="#000000" fill-rule="evenodd" fill-opacity="1" /><path clip-path="url(#clip400)" d="M 0 0 M31.4713 827.305 Q23.671 827.305 17.3812 824.397 Q14.7436 823.157 12.5342 821.421 Q10.3249 819.685 9.35551 818.535 Q8.38611 817.386 8.38611 817.07 Q8.38611 816.619 8.837 816.597 Q9.06244 816.597 9.62604 817.205 Q17.2009 824.645 31.4713 824.622 Q45.7868 824.622 53.0685 817.386 Q53.8576 816.597 54.1056 816.597 Q54.5564 816.597 54.5564 817.07 Q54.5564 817.386 53.6321 818.49 Q52.7078 819.595 50.5887 821.308 Q48.4695 823.022 45.877 824.262 Q39.5872 827.305 31.4713 827.305 Z" fill="#000000" fill-rule="evenodd" fill-opacity="1" /><path clip-path="url(#clip400)" d="M 0 0 M43.0139 809.576 Q42.1797 809.576 41.9317 809.508 Q41.6838 809.418 41.3005 809.057 L31.4262 800.198 Q25.9705 795.351 21.2137 795.351 Q18.1252 795.351 15.9158 796.974 Q13.7065 798.574 13.7065 801.528 Q13.7065 803.557 14.9464 805.27 Q16.1864 806.983 18.3957 807.772 Q18.3506 807.637 18.3506 807.164 Q18.3506 806.014 19.072 805.383 Q19.7934 804.729 20.7628 804.729 Q22.0028 804.729 22.6114 805.541 Q23.1976 806.33 23.1976 807.119 Q23.1976 807.434 23.13 807.863 Q23.0623 808.268 22.4311 808.922 Q21.7773 809.576 20.6276 809.576 Q17.4038 809.576 14.8337 807.141 Q12.2637 804.684 12.2637 800.942 Q12.2637 796.703 14.7886 793.93 Q17.291 791.135 21.2137 791.135 Q22.5889 791.135 23.8514 791.563 Q25.0913 791.969 26.0607 792.533 Q27.0301 793.074 28.5856 794.562 Q30.1412 796.049 31.2458 797.244 Q32.3505 798.439 34.6951 801.122 L39.4519 806.014 L39.4519 797.695 Q39.4519 793.637 39.0912 793.322 Q38.4374 792.871 34.9882 792.307 L34.9882 791.135 L43.0139 792.442 L43.0139 809.576 Z" fill="#000000" fill-rule="evenodd" fill-opacity="1" /><path clip-path="url(#clip400)" d="M 0 0 M54.1056 786.711 Q53.8801 786.711 53.3165 786.125 Q45.7417 778.685 31.4713 778.685 Q17.1558 778.685 9.91911 785.832 Q9.08498 786.711 8.837 786.711 Q8.38611 786.711 8.38611 786.26 Q8.38611 785.945 9.31042 784.84 Q10.2347 783.713 12.3539 782.022 Q14.473 780.309 17.0656 779.046 Q23.3554 776.003 31.4713 776.003 Q39.2715 776.003 45.5613 778.911 Q48.199 780.151 50.4083 781.887 Q52.6176 783.623 53.587 784.772 Q54.5564 785.922 54.5564 786.26 Q54.5564 786.711 54.1056 786.711 Z" fill="#000000" fill-rule="evenodd" fill-opacity="1" /><path clip-path="url(#clip400)" d="M 0 0 M70.2948 761.942 Q59.1515 761.942 50.1661 757.787 Q46.398 756.016 43.2418 753.536 Q40.0857 751.056 38.7008 749.414 Q37.316 747.771 37.316 747.32 Q37.316 746.676 37.9601 746.644 Q38.2821 746.644 39.0873 747.514 Q49.9085 758.142 70.2948 758.109 Q90.7455 758.109 101.148 747.771 Q102.275 746.644 102.629 746.644 Q103.274 746.644 103.274 747.32 Q103.274 747.771 101.953 749.349 Q100.633 750.927 97.6053 753.375 Q94.578 755.823 90.8743 757.594 Q81.8889 761.942 70.2948 761.942 Z" fill="#000000" fill-rule="evenodd" fill-opacity="1" /><path clip-path="url(#clip400)" d="M 0 0 M59.4092 705.568 Q59.699 705.568 60.6974 705.826 Q61.6636 706.051 63.5637 706.792 Q65.4317 707.5 67.5251 708.595 Q69.5862 709.658 72.1949 711.623 Q74.8036 713.587 77.0902 716.035 Q81.4058 720.64 83.7246 725.568 Q86.0434 730.463 86.7842 734.65 L86.7842 735.584 Q86.7842 736.614 85.979 736.614 L83.0161 735.906 L66.8809 731.88 Q61.9534 730.624 61.5348 730.624 Q61.1483 730.624 60.9551 730.785 Q60.7296 730.914 60.5686 731.687 Q60.4076 732.428 60.4076 733.909 Q60.4076 734.521 60.3754 734.811 Q60.3432 735.069 60.1821 735.294 Q59.9889 735.519 59.6024 735.519 Q59.0549 735.519 58.7651 735.294 Q58.443 735.036 58.3786 734.843 Q58.3142 734.65 58.282 734.263 Q58.2498 733.716 58.0887 731.88 Q57.8955 730.044 57.7667 728.466 Q57.6379 726.888 57.6379 726.212 Q57.6379 725.826 57.8311 725.6 Q57.9921 725.375 58.1854 725.375 L58.3464 725.342 L84.5942 731.816 Q83.8212 729.433 82.533 727.082 Q81.2448 724.698 79.1192 722.122 Q76.9614 719.545 74.2883 717.355 Q71.6152 715.165 67.8793 713.233 Q64.1112 711.268 59.7957 710.045 Q58.9261 709.819 58.4108 709.272 Q57.8955 708.692 57.7667 708.273 Q57.6379 707.855 57.6379 707.468 Q57.6379 706.599 58.121 706.083 Q58.5718 705.568 59.4092 705.568 Z" fill="#000000" fill-rule="evenodd" fill-opacity="1" /><path clip-path="url(#clip400)" d="M 0 0 M102.629 704.365 Q102.307 704.365 101.502 703.528 Q90.6811 692.9 70.2948 692.9 Q49.844 692.9 39.506 703.109 Q38.3143 704.365 37.9601 704.365 Q37.316 704.365 37.316 703.721 Q37.316 703.27 38.6364 701.692 Q39.9568 700.082 42.9842 697.666 Q46.0115 695.219 49.7152 693.415 Q58.7007 689.067 70.2948 689.067 Q81.438 689.067 90.4234 693.222 Q94.1915 694.993 97.3477 697.473 Q100.504 699.953 101.889 701.595 Q103.274 703.238 103.274 703.721 Q103.274 704.365 102.629 704.365 Z" fill="#000000" fill-rule="evenodd" fill-opacity="1" /><path clip-path="url(#clip400)" d="M 0 0 M620.242 18.8205 L620.242 41.5461 L630.531 41.5461 Q636.243 41.5461 639.362 38.5889 Q642.481 35.6318 642.481 30.163 Q642.481 24.7348 639.362 21.7777 Q636.243 18.8205 630.531 18.8205 L620.242 18.8205 M612.059 12.096 L630.531 12.096 Q640.699 12.096 645.884 16.714 Q651.11 21.2916 651.11 30.163 Q651.11 39.1155 645.884 43.6931 Q640.699 48.2706 630.531 48.2706 L620.242 48.2706 L620.242 72.576 L612.059 72.576 L612.059 12.096 Z" fill="#000000" fill-rule="evenodd" fill-opacity="1" /><path clip-path="url(#clip400)" d="M 0 0 M699.478 45.1919 L699.478 72.576 L692.024 72.576 L692.024 45.4349 Q692.024 38.994 689.512 35.7938 Q687.001 32.5936 681.978 32.5936 Q675.942 32.5936 672.458 36.4419 Q668.974 40.2903 668.974 46.9338 L668.974 72.576 L661.48 72.576 L661.48 9.54393 L668.974 9.54393 L668.974 34.2544 Q671.648 30.163 675.253 28.1376 Q678.899 26.1121 683.639 26.1121 Q691.457 26.1121 695.467 30.9732 Q699.478 35.7938 699.478 45.1919 Z" fill="#000000" fill-rule="evenodd" fill-opacity="1" /><path clip-path="url(#clip400)" d="M 0 0 M731.925 32.4315 Q725.93 32.4315 722.446 37.1306 Q718.962 41.7891 718.962 49.9314 Q718.962 58.0738 722.406 62.7728 Q725.889 67.4314 731.925 67.4314 Q737.88 67.4314 741.364 62.7323 Q744.848 58.0333 744.848 49.9314 Q744.848 41.8701 741.364 37.1711 Q737.88 32.4315 731.925 32.4315 M731.925 26.1121 Q741.648 26.1121 747.197 32.4315 Q752.747 38.7509 752.747 49.9314 Q752.747 61.0714 747.197 67.4314 Q741.648 73.7508 731.925 73.7508 Q722.163 73.7508 716.613 67.4314 Q711.104 61.0714 711.104 49.9314 Q711.104 38.7509 716.613 32.4315 Q722.163 26.1121 731.925 26.1121 Z" fill="#000000" fill-rule="evenodd" fill-opacity="1" /><path clip-path="url(#clip400)" d="M 0 0 M772.475 14.324 L772.475 27.2059 L787.828 27.2059 L787.828 32.9987 L772.475 32.9987 L772.475 57.6282 Q772.475 63.1779 773.974 64.7578 Q775.513 66.3376 780.172 66.3376 L787.828 66.3376 L787.828 72.576 L780.172 72.576 Q771.543 72.576 768.262 69.3758 Q764.981 66.1351 764.981 57.6282 L764.981 32.9987 L759.512 32.9987 L759.512 27.2059 L764.981 27.2059 L764.981 14.324 L772.475 14.324 Z" fill="#000000" fill-rule="evenodd" fill-opacity="1" /><path clip-path="url(#clip400)" d="M 0 0 M815.212 32.4315 Q809.217 32.4315 805.733 37.1306 Q802.249 41.7891 802.249 49.9314 Q802.249 58.0738 805.692 62.7728 Q809.176 67.4314 815.212 67.4314 Q821.167 67.4314 824.651 62.7323 Q828.134 58.0333 828.134 49.9314 Q828.134 41.8701 824.651 37.1711 Q821.167 32.4315 815.212 32.4315 M815.212 26.1121 Q824.934 26.1121 830.484 32.4315 Q836.034 38.7509 836.034 49.9314 Q836.034 61.0714 830.484 67.4314 Q824.934 73.7508 815.212 73.7508 Q805.449 73.7508 799.9 67.4314 Q794.39 61.0714 794.39 49.9314 Q794.39 38.7509 799.9 32.4315 Q805.449 26.1121 815.212 26.1121 Z" fill="#000000" fill-rule="evenodd" fill-opacity="1" /><path clip-path="url(#clip400)" d="M 0 0 M886.103 45.1919 L886.103 72.576 L878.649 72.576 L878.649 45.4349 Q878.649 38.994 876.138 35.7938 Q873.626 32.5936 868.603 32.5936 Q862.567 32.5936 859.083 36.4419 Q855.599 40.2903 855.599 46.9338 L855.599 72.576 L848.105 72.576 L848.105 27.2059 L855.599 27.2059 L855.599 34.2544 Q858.273 30.163 861.878 28.1376 Q865.524 26.1121 870.264 26.1121 Q878.082 26.1121 882.092 30.9732 Q886.103 35.7938 886.103 45.1919 Z" fill="#000000" fill-rule="evenodd" fill-opacity="1" /><path clip-path="url(#clip400)" d="M 0 0 M972.954 16.7545 L972.954 25.383 Q968.822 21.5346 964.123 19.6307 Q959.465 17.7268 954.198 17.7268 Q943.828 17.7268 938.319 24.0867 Q932.81 30.4061 932.81 42.3968 Q932.81 54.3469 938.319 60.7069 Q943.828 67.0263 954.198 67.0263 Q959.465 67.0263 964.123 65.1223 Q968.822 63.2184 972.954 59.3701 L972.954 67.9175 Q968.66 70.8341 963.84 72.2924 Q959.06 73.7508 953.712 73.7508 Q939.98 73.7508 932.081 65.3654 Q924.181 56.9395 924.181 42.3968 Q924.181 27.8135 932.081 19.4281 Q939.98 11.0023 953.712 11.0023 Q959.141 11.0023 963.921 12.4606 Q968.741 13.8784 972.954 16.7545 Z" fill="#000000" fill-rule="evenodd" fill-opacity="1" /><path clip-path="url(#clip400)" d="M 0 0 M1002.85 32.4315 Q996.854 32.4315 993.371 37.1306 Q989.887 41.7891 989.887 49.9314 Q989.887 58.0738 993.33 62.7728 Q996.814 67.4314 1002.85 67.4314 Q1008.8 67.4314 1012.29 62.7323 Q1015.77 58.0333 1015.77 49.9314 Q1015.77 41.8701 1012.29 37.1711 Q1008.8 32.4315 1002.85 32.4315 M1002.85 26.1121 Q1012.57 26.1121 1018.12 32.4315 Q1023.67 38.7509 1023.67 49.9314 Q1023.67 61.0714 1018.12 67.4314 Q1012.57 73.7508 1002.85 73.7508 Q993.087 73.7508 987.537 67.4314 Q982.028 61.0714 982.028 49.9314 Q982.028 38.7509 987.537 32.4315 Q993.087 26.1121 1002.85 26.1121 Z" fill="#000000" fill-rule="evenodd" fill-opacity="1" /><path clip-path="url(#clip400)" d="M 0 0 M1062.32 34.1734 Q1061.06 33.4443 1059.56 33.1202 Q1058.1 32.7556 1056.32 32.7556 Q1050 32.7556 1046.6 36.8875 Q1043.24 40.9789 1043.24 48.6757 L1043.24 72.576 L1035.74 72.576 L1035.74 27.2059 L1043.24 27.2059 L1043.24 34.2544 Q1045.59 30.1225 1049.35 28.1376 Q1053.12 26.1121 1058.51 26.1121 Q1059.28 26.1121 1060.21 26.2337 Q1061.14 26.3147 1062.28 26.5172 L1062.32 34.1734 Z" fill="#000000" fill-rule="evenodd" fill-opacity="1" /><path clip-path="url(#clip400)" d="M 0 0 M1094.97 34.1734 Q1093.71 33.4443 1092.21 33.1202 Q1090.75 32.7556 1088.97 32.7556 Q1082.65 32.7556 1079.25 36.8875 Q1075.89 40.9789 1075.89 48.6757 L1075.89 72.576 L1068.39 72.576 L1068.39 27.2059 L1075.89 27.2059 L1075.89 34.2544 Q1078.24 30.1225 1082 28.1376 Q1085.77 26.1121 1091.16 26.1121 Q1091.93 26.1121 1092.86 26.2337 Q1093.79 26.3147 1094.93 26.5172 L1094.97 34.1734 Z" fill="#000000" fill-rule="evenodd" fill-opacity="1" /><path clip-path="url(#clip400)" d="M 0 0 M1139.77 48.0275 L1139.77 51.6733 L1105.5 51.6733 Q1105.99 59.3701 1110.12 63.421 Q1114.29 67.4314 1121.7 67.4314 Q1126 67.4314 1130.01 66.3781 Q1134.06 65.3249 1138.03 63.2184 L1138.03 70.267 Q1134.02 71.9684 1129.81 72.8596 Q1125.59 73.7508 1121.26 73.7508 Q1110.4 73.7508 1104.04 67.4314 Q1097.72 61.1119 1097.72 50.3365 Q1097.72 39.1965 1103.72 32.6746 Q1109.75 26.1121 1119.96 26.1121 Q1129.12 26.1121 1134.42 32.0264 Q1139.77 37.9003 1139.77 48.0275 M1132.32 45.84 Q1132.24 39.7232 1128.87 36.0774 Q1125.55 32.4315 1120.04 32.4315 Q1113.8 32.4315 1110.04 35.9558 Q1106.31 39.4801 1105.74 45.8805 L1132.32 45.84 Z" fill="#000000" fill-rule="evenodd" fill-opacity="1" /><path clip-path="url(#clip400)" d="M 0 0 M1152 9.54393 L1159.46 9.54393 L1159.46 72.576 L1152 72.576 L1152 9.54393 Z" fill="#000000" fill-rule="evenodd" fill-opacity="1" /><path clip-path="url(#clip400)" d="M 0 0 M1195.67 49.7694 Q1186.64 49.7694 1183.16 51.8354 Q1179.67 53.9013 1179.67 58.8839 Q1179.67 62.8538 1182.26 65.2034 Q1184.9 67.5124 1189.39 67.5124 Q1195.59 67.5124 1199.32 63.1374 Q1203.09 58.7219 1203.09 51.4303 L1203.09 49.7694 L1195.67 49.7694 M1210.54 46.6907 L1210.54 72.576 L1203.09 72.576 L1203.09 65.6895 Q1200.53 69.8214 1196.73 71.8063 Q1192.92 73.7508 1187.41 73.7508 Q1180.44 73.7508 1176.31 69.8619 Q1172.22 65.9325 1172.22 59.3701 Q1172.22 51.7138 1177.32 47.825 Q1182.47 43.9361 1192.63 43.9361 L1203.09 43.9361 L1203.09 43.2069 Q1203.09 38.0623 1199.68 35.2672 Q1196.32 32.4315 1190.2 32.4315 Q1186.32 32.4315 1182.63 33.3632 Q1178.94 34.295 1175.54 36.1584 L1175.54 29.2718 Q1179.63 27.692 1183.48 26.9223 Q1187.33 26.1121 1190.97 26.1121 Q1200.82 26.1121 1205.68 31.2163 Q1210.54 36.3204 1210.54 46.6907 Z" fill="#000000" fill-rule="evenodd" fill-opacity="1" /><path clip-path="url(#clip400)" d="M 0 0 M1233.27 14.324 L1233.27 27.2059 L1248.62 27.2059 L1248.62 32.9987 L1233.27 32.9987 L1233.27 57.6282 Q1233.27 63.1779 1234.76 64.7578 Q1236.3 66.3376 1240.96 66.3376 L1248.62 66.3376 L1248.62 72.576 L1240.96 72.576 Q1232.33 72.576 1229.05 69.3758 Q1225.77 66.1351 1225.77 57.6282 L1225.77 32.9987 L1220.3 32.9987 L1220.3 27.2059 L1225.77 27.2059 L1225.77 14.324 L1233.27 14.324 Z" fill="#000000" fill-rule="evenodd" fill-opacity="1" /><path clip-path="url(#clip400)" d="M 0 0 M1258.42 27.2059 L1265.88 27.2059 L1265.88 72.576 L1258.42 72.576 L1258.42 27.2059 M1258.42 9.54393 L1265.88 9.54393 L1265.88 18.9825 L1258.42 18.9825 L1258.42 9.54393 Z" fill="#000000" fill-rule="evenodd" fill-opacity="1" /><path clip-path="url(#clip400)" d="M 0 0 M1299.05 32.4315 Q1293.06 32.4315 1289.57 37.1306 Q1286.09 41.7891 1286.09 49.9314 Q1286.09 58.0738 1289.53 62.7728 Q1293.02 67.4314 1299.05 67.4314 Q1305.01 67.4314 1308.49 62.7323 Q1311.97 58.0333 1311.97 49.9314 Q1311.97 41.8701 1308.49 37.1711 Q1305.01 32.4315 1299.05 32.4315 M1299.05 26.1121 Q1308.77 26.1121 1314.32 32.4315 Q1319.87 38.7509 1319.87 49.9314 Q1319.87 61.0714 1314.32 67.4314 Q1308.77 73.7508 1299.05 73.7508 Q1289.29 73.7508 1283.74 67.4314 Q1278.23 61.0714 1278.23 49.9314 Q1278.23 38.7509 1283.74 32.4315 Q1289.29 26.1121 1299.05 26.1121 Z" fill="#000000" fill-rule="evenodd" fill-opacity="1" /><path clip-path="url(#clip400)" d="M 0 0 M1369.94 45.1919 L1369.94 72.576 L1362.49 72.576 L1362.49 45.4349 Q1362.49 38.994 1359.98 35.7938 Q1357.47 32.5936 1352.44 32.5936 Q1346.41 32.5936 1342.92 36.4419 Q1339.44 40.2903 1339.44 46.9338 L1339.44 72.576 L1331.95 72.576 L1331.95 27.2059 L1339.44 27.2059 L1339.44 34.2544 Q1342.11 30.163 1345.72 28.1376 Q1349.36 26.1121 1354.1 26.1121 Q1361.92 26.1121 1365.93 30.9732 Q1369.94 35.7938 1369.94 45.1919 Z" fill="#000000" fill-rule="evenodd" fill-opacity="1" /><path clip-path="url(#clip400)" d="M 0 0 M1413.73 28.5427 L1413.73 35.5912 Q1410.57 33.9709 1407.17 33.1607 Q1403.77 32.3505 1400.12 32.3505 Q1394.57 32.3505 1391.78 34.0519 Q1389.02 35.7533 1389.02 39.156 Q1389.02 41.7486 1391.01 43.2475 Q1392.99 44.7058 1398.99 46.0426 L1401.54 46.6097 Q1409.48 48.3111 1412.8 51.4303 Q1416.16 54.509 1416.16 60.0587 Q1416.16 66.3781 1411.14 70.0644 Q1406.16 73.7508 1397.41 73.7508 Q1393.76 73.7508 1389.79 73.0216 Q1385.86 72.3329 1381.49 70.9151 L1381.49 63.2184 Q1385.62 65.3654 1389.63 66.4591 Q1393.64 67.5124 1397.57 67.5124 Q1402.84 67.5124 1405.67 65.73 Q1408.51 63.9071 1408.51 60.6258 Q1408.51 57.5877 1406.44 55.9673 Q1404.42 54.3469 1397.49 52.8481 L1394.9 52.2405 Q1387.97 50.7821 1384.89 47.7845 Q1381.81 44.7463 1381.81 39.4801 Q1381.81 33.0797 1386.35 29.5959 Q1390.89 26.1121 1399.23 26.1121 Q1403.36 26.1121 1407.01 26.7198 Q1410.65 27.3274 1413.73 28.5427 Z" fill="#000000" fill-rule="evenodd" fill-opacity="1" /><path clip-path="url(#clip400)" d="M 0 0 M1449.06 27.2059 L1456.96 27.2059 L1471.13 65.2844 L1485.31 27.2059 L1493.21 27.2059 L1476.2 72.576 L1466.07 72.576 L1449.06 27.2059 Z" fill="#000000" fill-rule="evenodd" fill-opacity="1" /><path clip-path="url(#clip400)" d="M 0 0 M1532.42 28.5427 L1532.42 35.5912 Q1529.26 33.9709 1525.86 33.1607 Q1522.46 32.3505 1518.81 32.3505 Q1513.26 32.3505 1510.47 34.0519 Q1507.71 35.7533 1507.71 39.156 Q1507.71 41.7486 1509.7 43.2475 Q1511.68 44.7058 1517.68 46.0426 L1520.23 46.6097 Q1528.17 48.3111 1531.49 51.4303 Q1534.86 54.509 1534.86 60.0587 Q1534.86 66.3781 1529.83 70.0644 Q1524.85 73.7508 1516.1 73.7508 Q1512.45 73.7508 1508.48 73.0216 Q1504.55 72.3329 1500.18 70.9151 L1500.18 63.2184 Q1504.31 65.3654 1508.32 66.4591 Q1512.33 67.5124 1516.26 67.5124 Q1521.53 67.5124 1524.36 65.73 Q1527.2 63.9071 1527.2 60.6258 Q1527.2 57.5877 1525.13 55.9673 Q1523.11 54.3469 1516.18 52.8481 L1513.59 52.2405 Q1506.66 50.7821 1503.58 47.7845 Q1500.5 44.7463 1500.5 39.4801 Q1500.5 33.0797 1505.04 29.5959 Q1509.58 26.1121 1517.92 26.1121 Q1522.05 26.1121 1525.7 26.7198 Q1529.35 27.3274 1532.42 28.5427 Z" fill="#000000" fill-rule="evenodd" fill-opacity="1" /><path clip-path="url(#clip400)" d="M 0 0 M1573.42 12.096 L1608.18 12.096 L1608.18 18.9825 L1581.6 18.9825 L1581.6 36.8065 L1605.58 36.8065 L1605.58 43.6931 L1581.6 43.6931 L1581.6 72.576 L1573.42 72.576 L1573.42 12.096 Z" fill="#000000" fill-rule="evenodd" fill-opacity="1" /><path clip-path="url(#clip400)" d="M 0 0 M1641.07 34.1734 Q1639.81 33.4443 1638.32 33.1202 Q1636.86 32.7556 1635.07 32.7556 Q1628.76 32.7556 1625.35 36.8875 Q1621.99 40.9789 1621.99 48.6757 L1621.99 72.576 L1614.5 72.576 L1614.5 27.2059 L1621.99 27.2059 L1621.99 34.2544 Q1624.34 30.1225 1628.11 28.1376 Q1631.87 26.1121 1637.26 26.1121 Q1638.03 26.1121 1638.96 26.2337 Q1639.9 26.3147 1641.03 26.5172 L1641.07 34.1734 Z" fill="#000000" fill-rule="evenodd" fill-opacity="1" /><path clip-path="url(#clip400)" d="M 0 0 M1685.87 48.0275 L1685.87 51.6733 L1651.6 51.6733 Q1652.09 59.3701 1656.22 63.421 Q1660.39 67.4314 1667.81 67.4314 Q1672.1 67.4314 1676.11 66.3781 Q1680.16 65.3249 1684.13 63.2184 L1684.13 70.267 Q1680.12 71.9684 1675.91 72.8596 Q1671.69 73.7508 1667.36 73.7508 Q1656.5 73.7508 1650.14 67.4314 Q1643.82 61.1119 1643.82 50.3365 Q1643.82 39.1965 1649.82 32.6746 Q1655.86 26.1121 1666.06 26.1121 Q1675.22 26.1121 1680.53 32.0264 Q1685.87 37.9003 1685.87 48.0275 M1678.42 45.84 Q1678.34 39.7232 1674.98 36.0774 Q1671.65 32.4315 1666.14 32.4315 Q1659.91 32.4315 1656.14 35.9558 Q1652.41 39.4801 1651.85 45.8805 L1678.42 45.84 Z" fill="#000000" fill-rule="evenodd" fill-opacity="1" /><path clip-path="url(#clip400)" d="M 0 0 M1702.56 49.9314 Q1702.56 58.1548 1705.92 62.8538 Q1709.33 67.5124 1715.24 67.5124 Q1721.16 67.5124 1724.56 62.8538 Q1727.96 58.1548 1727.96 49.9314 Q1727.96 41.7081 1724.56 37.0496 Q1721.16 32.3505 1715.24 32.3505 Q1709.33 32.3505 1705.92 37.0496 Q1702.56 41.7081 1702.56 49.9314 M1727.96 65.7705 Q1725.61 69.8214 1722.01 71.8063 Q1718.44 73.7508 1713.42 73.7508 Q1705.2 73.7508 1700.01 67.1883 Q1694.87 60.6258 1694.87 49.9314 Q1694.87 39.2371 1700.01 32.6746 Q1705.2 26.1121 1713.42 26.1121 Q1718.44 26.1121 1722.01 28.0971 Q1725.61 30.0415 1727.96 34.0924 L1727.96 27.2059 L1735.42 27.2059 L1735.42 89.8329 L1727.96 89.8329 L1727.96 65.7705 Z" fill="#000000" fill-rule="evenodd" fill-opacity="1" /><path clip-path="url(#clip400)" d="M 0 0 M1750 54.671 L1750 27.2059 L1757.45 27.2059 L1757.45 54.3874 Q1757.45 60.8284 1759.96 64.0691 Q1762.48 67.2693 1767.5 67.2693 Q1773.53 67.2693 1777.02 63.421 Q1780.54 59.5726 1780.54 52.9291 L1780.54 27.2059 L1788 27.2059 L1788 72.576 L1780.54 72.576 L1780.54 65.6084 Q1777.83 69.7404 1774.22 71.7658 Q1770.66 73.7508 1765.92 73.7508 Q1758.1 73.7508 1754.05 68.8897 Q1750 64.0286 1750 54.671 M1768.75 26.1121 L1768.75 26.1121 Z" fill="#000000" fill-rule="evenodd" fill-opacity="1" /><path clip-path="url(#clip400)" d="M 0 0 M1842.16 48.0275 L1842.16 51.6733 L1807.89 51.6733 Q1808.37 59.3701 1812.5 63.421 Q1816.68 67.4314 1824.09 67.4314 Q1828.38 67.4314 1832.39 66.3781 Q1836.44 65.3249 1840.41 63.2184 L1840.41 70.267 Q1836.4 71.9684 1832.19 72.8596 Q1827.98 73.7508 1823.64 73.7508 Q1812.79 73.7508 1806.43 67.4314 Q1800.11 61.1119 1800.11 50.3365 Q1800.11 39.1965 1806.1 32.6746 Q1812.14 26.1121 1822.35 26.1121 Q1831.5 26.1121 1836.81 32.0264 Q1842.16 37.9003 1842.16 48.0275 M1834.7 45.84 Q1834.62 39.7232 1831.26 36.0774 Q1827.94 32.4315 1822.43 32.4315 Q1816.19 32.4315 1812.42 35.9558 Q1808.7 39.4801 1808.13 45.8805 L1834.7 45.84 Z" fill="#000000" fill-rule="evenodd" fill-opacity="1" /><path clip-path="url(#clip400)" d="M 0 0 M1892.1 45.1919 L1892.1 72.576 L1884.65 72.576 L1884.65 45.4349 Q1884.65 38.994 1882.14 35.7938 Q1879.63 32.5936 1874.6 32.5936 Q1868.57 32.5936 1865.08 36.4419 Q1861.6 40.2903 1861.6 46.9338 L1861.6 72.576 L1854.11 72.576 L1854.11 27.2059 L1861.6 27.2059 L1861.6 34.2544 Q1864.27 30.163 1867.88 28.1376 Q1871.53 26.1121 1876.27 26.1121 Q1884.08 26.1121 1888.09 30.9732 Q1892.1 35.7938 1892.1 45.1919 Z" fill="#000000" fill-rule="evenodd" fill-opacity="1" /><path clip-path="url(#clip400)" d="M 0 0 M1939.62 28.9478 L1939.62 35.9153 Q1936.46 34.1734 1933.26 33.3227 Q1930.1 32.4315 1926.86 32.4315 Q1919.61 32.4315 1915.6 37.0496 Q1911.59 41.6271 1911.59 49.9314 Q1911.59 58.2358 1915.6 62.8538 Q1919.61 67.4314 1926.86 67.4314 Q1930.1 67.4314 1933.26 66.5807 Q1936.46 65.6895 1939.62 63.9476 L1939.62 70.8341 Q1936.5 72.2924 1933.14 73.0216 Q1929.82 73.7508 1926.05 73.7508 Q1915.8 73.7508 1909.77 67.3098 Q1903.73 60.8689 1903.73 49.9314 Q1903.73 38.832 1909.81 32.472 Q1915.92 26.1121 1926.54 26.1121 Q1929.98 26.1121 1933.26 26.8413 Q1936.54 27.5299 1939.62 28.9478 Z" fill="#000000" fill-rule="evenodd" fill-opacity="1" /><path clip-path="url(#clip400)" d="M 0 0 M1971.46 76.7889 Q1968.3 84.8907 1965.3 87.3618 Q1962.31 89.8329 1957.28 89.8329 L1951.33 89.8329 L1951.33 83.5945 L1955.7 83.5945 Q1958.78 83.5945 1960.48 82.1361 Q1962.18 80.6778 1964.25 75.2496 L1965.59 71.8468 L1947.24 27.2059 L1955.14 27.2059 L1969.31 62.6918 L1983.49 27.2059 L1991.39 27.2059 L1971.46 76.7889 Z" fill="#000000" fill-rule="evenodd" fill-opacity="1" /><polyline clip-path="url(#clip403)" style="stroke:#009af9; stroke-width:4; stroke-opacity:1; fill:none" points="
  310.187,1386.4 314.202,1369.86 318.216,1375.55 322.23,1378.66 326.245,1385.66 330.259,1384.73 334.273,1377 338.288,1343.39 342.302,1381.53 346.316,1352.58 
  350.331,1369.43 354.345,1375.24 358.359,1381.57 362.374,1370.54 366.388,1375.84 370.402,1374.69 374.417,1379.94 378.431,1378.71 382.445,1377.99 386.46,1378.28 
  390.474,1375.55 394.488,1377.86 398.503,1380.92 402.517,1385.65 406.531,1380.6 410.546,1378.9 414.56,1382.49 418.574,1358.31 422.589,1376.2 426.603,1378.11 
  430.617,1375.97 434.631,1381.97 438.646,1380.64 442.66,1380.75 446.674,1382.46 450.689,1382.52 454.703,1381.66 458.717,1379.25 462.732,1380.35 466.746,1378.6 
  470.76,1380.6 474.775,1380.21 478.789,1376.43 482.803,1382.98 486.818,1380.56 490.832,1384.35 494.846,1378.8 498.861,1381.94 502.875,1379.18 506.889,1382.74 
  510.904,1377.81 514.918,1374.12 518.932,1381.35 522.947,1374.67 526.961,1376.72 530.975,1380.01 534.99,1381.06 539.004,1385.67 543.018,1375.18 547.033,1378.33 
  551.047,1382.44 555.061,1383.42 559.076,1372.41 563.09,1363.84 567.104,1378.27 571.119,1383.82 575.133,1378.56 579.147,1380.62 583.161,1385.14 587.176,1377.75 
  591.19,1382.01 595.204,1377.19 599.219,1377.57 603.233,1379.53 607.247,1376.97 611.262,1378.49 615.276,1371.29 619.29,1367.61 623.305,1370.37 627.319,1384.93 
  631.333,1361.6 635.348,1353.28 639.362,1368.77 643.376,1353.93 647.391,1366.34 651.405,1362.14 655.419,1356.38 659.434,1354.15 663.448,1337.92 667.462,1268.92 
  671.477,160.256 675.491,1278.28 679.505,1322.72 683.52,1341.72 687.534,1358.51 691.548,1366.41 695.563,1368.45 699.577,1331.17 703.591,1368.33 707.606,1346.91 
  711.62,1369.51 715.634,1363.78 719.649,1379.34 723.663,1368.67 727.677,1375.57 731.691,1368.56 735.706,1375.86 739.72,1373.48 743.734,1374.02 747.749,1375.68 
  751.763,1369.5 755.777,1373.95 759.792,1374.55 763.806,1379.59 767.82,1378.81 771.835,1373.95 775.849,1386.18 779.863,1353.46 783.878,1376.06 787.892,1372.85 
  791.906,1369.54 795.921,1377.62 799.935,1383.9 803.949,1375.55 807.964,1377.86 811.978,1378.46 815.992,1381.99 820.007,1383.91 824.021,1376.86 828.035,1383.17 
  832.05,1383.49 836.064,1377.67 840.078,1373.2 844.093,1379.47 848.107,1379.78 852.121,1380.67 856.136,1375.84 860.15,1377.88 864.164,1380.13 868.179,1384.26 
  872.193,1375.44 876.207,1370.17 880.221,1379.35 884.236,1370.66 888.25,1371.72 892.264,1374.96 896.279,1376.01 900.293,1381.54 904.307,1369.95 908.322,1371.99 
  912.336,1381.89 916.35,1382.2 920.365,1366.66 924.379,1369.55 928.393,1373.99 932.408,1382.69 936.422,1374.59 940.436,1374.5 944.451,1378.58 948.465,1373.44 
  952.479,1383.79 956.494,1373.18 960.508,1373.12 964.522,1374.84 968.537,1370.55 972.551,1376.3 976.565,1365.15 980.58,1362.05 984.594,1359.63 988.608,1374.13 
  992.623,1351.17 996.637,1348.73 1000.65,1351.76 1004.67,1358.3 1008.68,1350.88 1012.69,1340.44 1016.71,1327.55 1020.72,1314.74 1024.74,1277.77 1028.75,1130.69 
  1032.77,210.392 1036.78,1201.24 1040.79,1278.71 1044.81,1310.03 1048.82,1333.9 1052.84,1347.38 1056.85,1355.93 1060.87,1320.2 1064.88,1354.01 1068.89,1339.28 
  1072.91,1363.29 1076.92,1353.63 1080.94,1369.23 1084.95,1363.76 1088.97,1371.54 1092.98,1362.68 1096.99,1370.17 1101.01,1368.01 1105.02,1369.18 1109.04,1372.06 
  1113.05,1364.42 1117.07,1369.42 1121.08,1369.02 1125.1,1374.14 1129.11,1375.55 1133.12,1369.66 1137.14,1383.66 1141.15,1349.72 1145.17,1373.26 1149.18,1368.51 
  1153.2,1364 1157.21,1371.75 1161.22,1380.27 1165.24,1370.94 1169.25,1372.86 1173.27,1373.27 1177.28,1377.34 1181.3,1383.91 1185.31,1372.88 1189.32,1384.28 
  1193.34,1385.66 1197.35,1375.49 1201.37,1370.28 1205.38,1375.62 1209.4,1377.47 1213.41,1377.42 1217.42,1372.93 1221.44,1373.86 1225.45,1378.78 1229.47,1383.47 
  1233.48,1373.77 1237.5,1367.05 1241.51,1376.85 1245.52,1367.58 1249.54,1367.56 1253.55,1370.38 1257.57,1371.23 1261.58,1377.26 1265.6,1365.56 1269.61,1366.06 
  1273.63,1375.93 1277.64,1377.15 1281.65,1360.6 1285.67,1374.88 1289.68,1370.05 1293.7,1378.21 1297.71,1370.66 1301.73,1369.11 1305.74,1372.7 1309.75,1368.2 
  1313.77,1378.02 1317.78,1368.66 1321.8,1368.01 1325.81,1369.4 1329.83,1364.25 1333.84,1371.36 1337.85,1359.43 1341.87,1356.45 1345.88,1350.37 1349.9,1364.22 
  1353.91,1341.18 1357.93,1341.79 1361.94,1336.08 1365.95,1354.66 1369.97,1336.72 1373.98,1321.48 1378,1301.93 1382.01,1278.88 1386.03,1220.91 1390.04,980.803 
  1394.05,291.218 1398.07,1149.11 1402.08,1246.4 1406.1,1285.83 1410.11,1314.61 1414.13,1332.35 1418.14,1346.08 1422.16,1312.17 1426.17,1342.57 1430.18,1332.32 
  1434.2,1356.56 1438.21,1345.58 1442.23,1360.74 1446.24,1358.55 1450.26,1367.24 1454.27,1358.04 1458.28,1365.4 1462.3,1363.62 1466.31,1365.12 1470.33,1369.13 
  1474.34,1360.73 1478.36,1365.77 1482.37,1364.77 1486.38,1369.79 1490.4,1372.73 1494.41,1366.41 1498.43,1381.85 1502.44,1347.42 1506.46,1370.37 1510.47,1365.5 
  1514.48,1359.83 1518.5,1366.69 1522.51,1376.29 1526.53,1367.32 1530.54,1368.72 1534.56,1368.75 1538.57,1372.65 1542.58,1380.04 1546.6,1369.26 1550.61,1380.45 
  1554.63,1383.96 1558.64,1373.97 1562.66,1368.1 1566.67,1372.42 1570.69,1375.17 1574.7,1374.92 1578.71,1370.65 1582.73,1370.52 1586.74,1376.6 1590.76,1382.14 
  1594.77,1373 1598.79,1365.01 1602.8,1375.07 1606.81,1365.73 1610.83,1364.66 1614.84,1366.92 1618.86,1367.47 1622.87,1374.08 1626.89,1362.42 1630.9,1361.3 
  1634.91,1370.67 1638.93,1372.84 1642.94,1355.12 1646.96,1379.13 1650.97,1366.85 1654.99,1374.46 1659,1367.57 1663.01,1364.89 1667.03,1367.96 1671.04,1363.56 
  1675.06,1373.1 1679.07,1364.86 1683.09,1363.73 1687.1,1364.93 1691.11,1359.13 1695.13,1366.91 1699.14,1355.09 1703.16,1352.28 1707.17,1343.35 1711.19,1356.53 
  1715.2,1333.14 1719.22,1335.43 1723.23,1323.06 1727.24,1347.57 1731.26,1325.74 1735.27,1306.94 1739.29,1281.78 1743.3,1249.71 1747.32,1172.34 1751.33,825.805 
  1755.34,398.798 1759.36,1122.12 1763.37,1227.37 1767.39,1270.59 1771.4,1301.89 1775.42,1322.35 1779.43,1340.21 1783.44,1308.12 1787.46,1334.82 1791.47,1327.63 
  1795.49,1351.85 1799.5,1340.26 1803.52,1354.56 1807.53,1354.56 1811.54,1364.21 1815.56,1355.17 1819.57,1362.28 1823.59,1360.82 1827.6,1362.47 1831.62,1367.57 
  1835.63,1358.72 1839.64,1363.63 1843.66,1362.11 1847.67,1366.84 1851.69,1371.03 1855.7,1364.43 1859.72,1381.21 1863.73,1346.8 1867.75,1368.59 1871.76,1364.13 
  1875.77,1357.36 1879.79,1363.03 1883.8,1373.45 1887.82,1365.02 1891.83,1365.87 1895.85,1365.4 1899.86,1368.87 1903.87,1376.99 1907.89,1366.44 1911.9,1377.1 
  1915.92,1382.3 1919.93,1373.28 1923.95,1366.94 1927.96,1370.21 1931.97,1373.55 1935.99,1373.38 1940,1369.33 1944.02,1368.16 1948.03,1374.7 1952.05,1381.37 
  1956.06,1373.27 1960.07,1364.21 1964.09,1374.42 1968.1,1365.3 1972.12,1363.28 1976.13,1364.93 1980.15,1365.07 1984.16,1372.3 1988.17,1360.86 1992.19,1358.12 
  1996.2,1366.78 2000.22,1369.82 2004.23,1350.78 2008.25,1381.35 2012.26,1364.71 2016.28,1371.89 2020.29,1365.76 2024.3,1362.19 2028.32,1364.73 2032.33,1360.23 
  2036.35,1369.57 2040.36,1362.37 2044.38,1360.91 2048.39,1362.06 2052.4,1355.73 2056.42,1364 2060.43,1352.69 2064.45,1350.33 2068.46,1339.13 2072.48,1351.71 
  2076.49,1327.94 2080.5,1331.53 2084.52,1313.67 2088.53,1341.53 2092.55,1319.2 2096.56,1298.25 2100.58,1269 2104.59,1230.03 2108.6,1136.87 2112.62,672.53 
  2116.63,527.948 2120.65,1118.91 2124.66,1222.09 2128.68,1265 2132.69,1296.41 2136.7,1317.94 2140.72,1338.76 2144.73,1308.59 2148.75,1331.16 2152.76,1326.07 
  2156.78,1350.12 2160.79,1338.06 2164.81,1351.04 2168.82,1352.51 2172.83,1363.07 2176.85,1354.37 2180.86,1361.14 2184.88,1359.9 2188.89,1361.53 2192.91,1367.69 
  2196.92,1358.55 2200.93,1363.25 2204.95,1361.23 2208.96,1365.49 2212.98,1370.72 2216.99,1363.86 2221.01,1381.45 2225.02,1347.94 2229.03,1368.37 2233.05,1364.56 
  2237.06,1356.77 2241.08,1361.05 2245.09,1372.08 2249.11,1364.24 2253.12,1364.57 2257.13,1363.53 2261.15,1366.36 2265.16,1375.07 2269.18,1364.71 2273.19,1374.66 
  2277.21,1381.41 2281.22,1373.53 2285.23,1366.94 2289.25,1369.17 2293.26,1372.92 
  "/>
<polyline clip-path="url(#clip403)" style="stroke:#e26f46; stroke-width:4; stroke-opacity:1; fill:none" stroke-dasharray="16, 10" points="
  429.292,2722.89 429.292,-1176.24 
  "/>
<path clip-path="url(#clip400)" d="
M1696.14 287.756 L2282.69 287.756 L2282.69 166.796 L1696.14 166.796  Z
  " fill="#ffffff" fill-rule="evenodd" fill-opacity="1"/>
<polyline clip-path="url(#clip400)" style="stroke:#000000; stroke-width:4; stroke-opacity:1; fill:none" points="
  1696.14,287.756 2282.69,287.756 2282.69,166.796 1696.14,166.796 1696.14,287.756 
  "/>
<polyline clip-path="url(#clip400)" style="stroke:#e26f46; stroke-width:4; stroke-opacity:1; fill:none" stroke-dasharray="16, 10" points="
  1719.5,227.276 1859.63,227.276 
  "/>
<path clip-path="url(#clip400)" d="M 0 0 M1899.5 208.537 L1899.5 212.079 L1895.42 212.079 Q1893.13 212.079 1892.23 213.005 Q1891.35 213.931 1891.35 216.338 L1891.35 218.63 L1898.36 218.63 L1898.36 221.94 L1891.35 221.94 L1891.35 244.556 L1887.06 244.556 L1887.06 221.94 L1882.99 221.94 L1882.99 218.63 L1887.06 218.63 L1887.06 216.824 Q1887.06 212.496 1889.08 210.528 Q1891.09 208.537 1895.47 208.537 L1899.5 208.537 Z" fill="#000000" fill-rule="evenodd" fill-opacity="1" /><path clip-path="url(#clip400)" d="M 0 0 M1918.08 222.611 Q1917.37 222.195 1916.51 222.01 Q1915.68 221.801 1914.66 221.801 Q1911.05 221.801 1909.1 224.162 Q1907.18 226.5 1907.18 230.898 L1907.18 244.556 L1902.9 244.556 L1902.9 218.63 L1907.18 218.63 L1907.18 222.658 Q1908.52 220.297 1910.68 219.162 Q1912.83 218.005 1915.91 218.005 Q1916.35 218.005 1916.88 218.074 Q1917.41 218.121 1918.06 218.236 L1918.08 222.611 Z" fill="#000000" fill-rule="evenodd" fill-opacity="1" /><path clip-path="url(#clip400)" d="M 0 0 M1943.68 230.528 L1943.68 232.611 L1924.1 232.611 Q1924.38 237.009 1926.74 239.324 Q1929.12 241.616 1933.36 241.616 Q1935.81 241.616 1938.11 241.014 Q1940.42 240.412 1942.69 239.209 L1942.69 243.236 Q1940.4 244.208 1937.99 244.718 Q1935.58 245.227 1933.11 245.227 Q1926.9 245.227 1923.27 241.616 Q1919.66 238.005 1919.66 231.847 Q1919.66 225.482 1923.08 221.755 Q1926.53 218.005 1932.37 218.005 Q1937.6 218.005 1940.63 221.385 Q1943.68 224.741 1943.68 230.528 M1939.43 229.278 Q1939.38 225.783 1937.46 223.699 Q1935.56 221.616 1932.41 221.616 Q1928.85 221.616 1926.69 223.63 Q1924.56 225.644 1924.24 229.301 L1939.43 229.278 Z" fill="#000000" fill-rule="evenodd" fill-opacity="1" /><path clip-path="url(#clip400)" d="M 0 0 M1953.22 231.616 Q1953.22 236.315 1955.14 239 Q1957.09 241.662 1960.47 241.662 Q1963.85 241.662 1965.79 239 Q1967.74 236.315 1967.74 231.616 Q1967.74 226.917 1965.79 224.255 Q1963.85 221.57 1960.47 221.57 Q1957.09 221.57 1955.14 224.255 Q1953.22 226.917 1953.22 231.616 M1967.74 240.667 Q1966.39 242.982 1964.33 244.116 Q1962.3 245.227 1959.43 245.227 Q1954.73 245.227 1951.76 241.477 Q1948.82 237.727 1948.82 231.616 Q1948.82 225.505 1951.76 221.755 Q1954.73 218.005 1959.43 218.005 Q1962.3 218.005 1964.33 219.139 Q1966.39 220.25 1967.74 222.565 L1967.74 218.63 L1971.99 218.63 L1971.99 254.417 L1967.74 254.417 L1967.74 240.667 Z" fill="#000000" fill-rule="evenodd" fill-opacity="1" /><path clip-path="url(#clip400)" d="M 0 0 M1980.33 234.324 L1980.33 218.63 L1984.59 218.63 L1984.59 234.162 Q1984.59 237.843 1986.02 239.695 Q1987.46 241.523 1990.33 241.523 Q1993.78 241.523 1995.77 239.324 Q1997.78 237.125 1997.78 233.329 L1997.78 218.63 L2002.04 218.63 L2002.04 244.556 L1997.78 244.556 L1997.78 240.574 Q1996.23 242.935 1994.17 244.093 Q1992.13 245.227 1989.43 245.227 Q1984.96 245.227 1982.64 242.449 Q1980.33 239.671 1980.33 234.324 M1991.05 218.005 L1991.05 218.005 Z" fill="#000000" fill-rule="evenodd" fill-opacity="1" /><path clip-path="url(#clip400)" d="M 0 0 M2032.99 230.528 L2032.99 232.611 L2013.41 232.611 Q2013.68 237.009 2016.05 239.324 Q2018.43 241.616 2022.67 241.616 Q2025.12 241.616 2027.41 241.014 Q2029.73 240.412 2031.99 239.209 L2031.99 243.236 Q2029.7 244.208 2027.3 244.718 Q2024.89 245.227 2022.41 245.227 Q2016.21 245.227 2012.57 241.616 Q2008.96 238.005 2008.96 231.847 Q2008.96 225.482 2012.39 221.755 Q2015.84 218.005 2021.67 218.005 Q2026.9 218.005 2029.93 221.385 Q2032.99 224.741 2032.99 230.528 M2028.73 229.278 Q2028.68 225.783 2026.76 223.699 Q2024.86 221.616 2021.72 221.616 Q2018.15 221.616 2016 223.63 Q2013.87 225.644 2013.55 229.301 L2028.73 229.278 Z" fill="#000000" fill-rule="evenodd" fill-opacity="1" /><path clip-path="url(#clip400)" d="M 0 0 M2061.53 228.908 L2061.53 244.556 L2057.27 244.556 L2057.27 229.047 Q2057.27 225.366 2055.84 223.537 Q2054.4 221.709 2051.53 221.709 Q2048.08 221.709 2046.09 223.908 Q2044.1 226.107 2044.1 229.903 L2044.1 244.556 L2039.82 244.556 L2039.82 218.63 L2044.1 218.63 L2044.1 222.658 Q2045.63 220.32 2047.69 219.162 Q2049.77 218.005 2052.48 218.005 Q2056.95 218.005 2059.24 220.783 Q2061.53 223.537 2061.53 228.908 Z" fill="#000000" fill-rule="evenodd" fill-opacity="1" /><path clip-path="url(#clip400)" d="M 0 0 M2088.68 219.625 L2088.68 223.607 Q2086.88 222.611 2085.05 222.125 Q2083.24 221.616 2081.39 221.616 Q2077.25 221.616 2074.96 224.255 Q2072.67 226.871 2072.67 231.616 Q2072.67 236.361 2074.96 239 Q2077.25 241.616 2081.39 241.616 Q2083.24 241.616 2085.05 241.13 Q2086.88 240.621 2088.68 239.625 L2088.68 243.56 Q2086.9 244.394 2084.98 244.81 Q2083.08 245.227 2080.93 245.227 Q2075.07 245.227 2071.62 241.546 Q2068.17 237.866 2068.17 231.616 Q2068.17 225.273 2071.65 221.639 Q2075.14 218.005 2081.21 218.005 Q2083.17 218.005 2085.05 218.422 Q2086.92 218.815 2088.68 219.625 Z" fill="#000000" fill-rule="evenodd" fill-opacity="1" /><path clip-path="url(#clip400)" d="M 0 0 M2106.88 246.963 Q2105.07 251.593 2103.36 253.005 Q2101.65 254.417 2098.78 254.417 L2095.37 254.417 L2095.37 250.852 L2097.87 250.852 Q2099.63 250.852 2100.61 250.019 Q2101.58 249.185 2102.76 246.083 L2103.52 244.139 L2093.04 218.63 L2097.55 218.63 L2105.65 238.908 L2113.75 218.63 L2118.27 218.63 L2106.88 246.963 Z" fill="#000000" fill-rule="evenodd" fill-opacity="1" /><path clip-path="url(#clip400)" d="M 0 0 M2155.74 219.394 L2155.74 223.422 Q2153.94 222.496 2151.99 222.033 Q2150.05 221.57 2147.97 221.57 Q2144.79 221.57 2143.2 222.542 Q2141.62 223.514 2141.62 225.459 Q2141.62 226.94 2142.76 227.797 Q2143.89 228.63 2147.32 229.394 L2148.78 229.718 Q2153.31 230.69 2155.21 232.472 Q2157.13 234.232 2157.13 237.403 Q2157.13 241.014 2154.26 243.121 Q2151.42 245.227 2146.42 245.227 Q2144.33 245.227 2142.06 244.81 Q2139.82 244.417 2137.32 243.607 L2137.32 239.209 Q2139.68 240.435 2141.97 241.06 Q2144.26 241.662 2146.51 241.662 Q2149.52 241.662 2151.14 240.644 Q2152.76 239.602 2152.76 237.727 Q2152.76 235.991 2151.58 235.065 Q2150.42 234.139 2146.46 233.283 L2144.98 232.935 Q2141.02 232.102 2139.26 230.389 Q2137.5 228.653 2137.5 225.644 Q2137.5 221.986 2140.1 219.996 Q2142.69 218.005 2147.46 218.005 Q2149.82 218.005 2151.9 218.352 Q2153.98 218.699 2155.74 219.394 Z" fill="#000000" fill-rule="evenodd" fill-opacity="1" /><path clip-path="url(#clip400)" d="M 0 0 M2185.47 228.908 L2185.47 244.556 L2181.21 244.556 L2181.21 229.047 Q2181.21 225.366 2179.77 223.537 Q2178.34 221.709 2175.47 221.709 Q2172.02 221.709 2170.03 223.908 Q2168.04 226.107 2168.04 229.903 L2168.04 244.556 L2163.75 244.556 L2163.75 208.537 L2168.04 208.537 L2168.04 222.658 Q2169.56 220.32 2171.62 219.162 Q2173.71 218.005 2176.41 218.005 Q2180.88 218.005 2183.17 220.783 Q2185.47 223.537 2185.47 228.908 Z" fill="#000000" fill-rule="evenodd" fill-opacity="1" /><path clip-path="url(#clip400)" d="M 0 0 M2193.96 218.63 L2198.22 218.63 L2198.22 244.556 L2193.96 244.556 L2193.96 218.63 M2193.96 208.537 L2198.22 208.537 L2198.22 213.931 L2193.96 213.931 L2193.96 208.537 Z" fill="#000000" fill-rule="evenodd" fill-opacity="1" /><path clip-path="url(#clip400)" d="M 0 0 M2220.26 208.537 L2220.26 212.079 L2216.18 212.079 Q2213.89 212.079 2212.99 213.005 Q2212.11 213.931 2212.11 216.338 L2212.11 218.63 L2219.12 218.63 L2219.12 221.94 L2212.11 221.94 L2212.11 244.556 L2207.83 244.556 L2207.83 221.94 L2203.75 221.94 L2203.75 218.63 L2207.83 218.63 L2207.83 216.824 Q2207.83 212.496 2209.84 210.528 Q2211.85 208.537 2216.23 208.537 L2220.26 208.537 Z" fill="#000000" fill-rule="evenodd" fill-opacity="1" /><path clip-path="url(#clip400)" d="M 0 0 M2227.2 211.269 L2227.2 218.63 L2235.97 218.63 L2235.97 221.94 L2227.2 221.94 L2227.2 236.014 Q2227.2 239.185 2228.06 240.088 Q2228.94 240.991 2231.6 240.991 L2235.97 240.991 L2235.97 244.556 L2231.6 244.556 Q2226.67 244.556 2224.79 242.727 Q2222.92 240.875 2222.92 236.014 L2222.92 221.94 L2219.79 221.94 L2219.79 218.63 L2222.92 218.63 L2222.92 211.269 L2227.2 211.269 Z" fill="#000000" fill-rule="evenodd" fill-opacity="1" /></svg>
