<?xml version="1.0" encoding="utf-8"?>
<svg xmlns="http://www.w3.org/2000/svg" xmlns:xlink="http://www.w3.org/1999/xlink" width="600" height="400" viewBox="0 0 2400 1600">
<defs>
  <clipPath id="clip980">
    <rect x="0" y="0" width="2400" height="1600"/>
  </clipPath>
</defs>
<path clip-path="url(#clip980)" d="
M0 1600 L2400 1600 L2400 0 L0 0  Z
  " fill="#ffffff" fill-rule="evenodd" fill-opacity="1"/>
<defs>
  <clipPath id="clip981">
    <rect x="480" y="0" width="1681" height="1600"/>
  </clipPath>
</defs>
<defs>
  <clipPath id="clip982">
    <rect x="296" y="123" width="2057" height="1301"/>
  </clipPath>
</defs>
<path clip-path="url(#clip980)" d="
M226.432 1427.15 L2352.76 1427.15 L2352.76 123.472 L226.432 123.472  Z
  " fill="#ffffff" fill-rule="evenodd" fill-opacity="1"/>
<defs>
  <clipPath id="clip983">
    <rect x="226" y="123" width="2127" height="1305"/>
  </clipPath>
</defs>
<polyline clip-path="url(#clip983)" style="stroke:#000000; stroke-width:2; stroke-opacity:0.1; fill:none" points="
  286.611,1427.15 286.611,123.472 
  "/>
<polyline clip-path="url(#clip983)" style="stroke:#000000; stroke-width:2; stroke-opacity:0.1; fill:none" points="
  789.108,1427.15 789.108,123.472 
  "/>
<polyline clip-path="url(#clip983)" style="stroke:#000000; stroke-width:2; stroke-opacity:0.1; fill:none" points="
  1291.6,1427.15 1291.6,123.472 
  "/>
<polyline clip-path="url(#clip983)" style="stroke:#000000; stroke-width:2; stroke-opacity:0.1; fill:none" points="
  1794.1,1427.15 1794.1,123.472 
  "/>
<polyline clip-path="url(#clip983)" style="stroke:#000000; stroke-width:2; stroke-opacity:0.1; fill:none" points="
  2296.6,1427.15 2296.6,123.472 
  "/>
<polyline clip-path="url(#clip980)" style="stroke:#000000; stroke-width:4; stroke-opacity:1; fill:none" points="
  226.432,1427.15 2352.76,1427.15 
  "/>
<polyline clip-path="url(#clip980)" style="stroke:#000000; stroke-width:4; stroke-opacity:1; fill:none" points="
  286.611,1427.15 286.611,1411.5 
  "/>
<polyline clip-path="url(#clip980)" style="stroke:#000000; stroke-width:4; stroke-opacity:1; fill:none" points="
  789.108,1427.15 789.108,1411.5 
  "/>
<polyline clip-path="url(#clip980)" style="stroke:#000000; stroke-width:4; stroke-opacity:1; fill:none" points="
  1291.6,1427.15 1291.6,1411.5 
  "/>
<polyline clip-path="url(#clip980)" style="stroke:#000000; stroke-width:4; stroke-opacity:1; fill:none" points="
  1794.1,1427.15 1794.1,1411.5 
  "/>
<polyline clip-path="url(#clip980)" style="stroke:#000000; stroke-width:4; stroke-opacity:1; fill:none" points="
  2296.6,1427.15 2296.6,1411.5 
  "/>
<path clip-path="url(#clip980)" d="M 0 0 M263.996 1456.34 Q260.384 1456.34 258.556 1459.9 Q256.75 1463.44 256.75 1470.57 Q256.75 1477.68 258.556 1481.25 Q260.384 1484.79 263.996 1484.79 Q267.63 1484.79 269.435 1481.25 Q271.264 1477.68 271.264 1470.57 Q271.264 1463.44 269.435 1459.9 Q267.63 1456.34 263.996 1456.34 M263.996 1452.63 Q269.806 1452.63 272.861 1457.24 Q275.94 1461.82 275.94 1470.57 Q275.94 1479.3 272.861 1483.91 Q269.806 1488.49 263.996 1488.49 Q258.185 1488.49 255.107 1483.91 Q252.051 1479.3 252.051 1470.57 Q252.051 1461.82 255.107 1457.24 Q258.185 1452.63 263.996 1452.63 Z" fill="#000000" fill-rule="evenodd" fill-opacity="1" /><path clip-path="url(#clip980)" d="M 0 0 M284.157 1481.94 L289.042 1481.94 L289.042 1487.82 L284.157 1487.82 L284.157 1481.94 Z" fill="#000000" fill-rule="evenodd" fill-opacity="1" /><path clip-path="url(#clip980)" d="M 0 0 M309.227 1456.34 Q305.616 1456.34 303.787 1459.9 Q301.981 1463.44 301.981 1470.57 Q301.981 1477.68 303.787 1481.25 Q305.616 1484.79 309.227 1484.79 Q312.861 1484.79 314.667 1481.25 Q316.495 1477.68 316.495 1470.57 Q316.495 1463.44 314.667 1459.9 Q312.861 1456.34 309.227 1456.34 M309.227 1452.63 Q315.037 1452.63 318.092 1457.24 Q321.171 1461.82 321.171 1470.57 Q321.171 1479.3 318.092 1483.91 Q315.037 1488.49 309.227 1488.49 Q303.417 1488.49 300.338 1483.91 Q297.282 1479.3 297.282 1470.57 Q297.282 1461.82 300.338 1457.24 Q303.417 1452.63 309.227 1452.63 Z" fill="#000000" fill-rule="evenodd" fill-opacity="1" /><path clip-path="url(#clip980)" d="M 0 0 M760.844 1483.88 L777.163 1483.88 L777.163 1487.82 L755.219 1487.82 L755.219 1483.88 Q757.881 1481.13 762.464 1476.5 Q767.071 1471.85 768.251 1470.51 Q770.497 1467.98 771.376 1466.25 Q772.279 1464.49 772.279 1462.8 Q772.279 1460.04 770.335 1458.31 Q768.413 1456.57 765.311 1456.57 Q763.112 1456.57 760.659 1457.33 Q758.228 1458.1 755.45 1459.65 L755.45 1454.93 Q758.274 1453.79 760.728 1453.21 Q763.182 1452.63 765.219 1452.63 Q770.589 1452.63 773.784 1455.32 Q776.978 1458.01 776.978 1462.5 Q776.978 1464.63 776.168 1466.55 Q775.381 1468.44 773.274 1471.04 Q772.696 1471.71 769.594 1474.93 Q766.492 1478.12 760.844 1483.88 Z" fill="#000000" fill-rule="evenodd" fill-opacity="1" /><path clip-path="url(#clip980)" d="M 0 0 M786.978 1481.94 L791.862 1481.94 L791.862 1487.82 L786.978 1487.82 L786.978 1481.94 Z" fill="#000000" fill-rule="evenodd" fill-opacity="1" /><path clip-path="url(#clip980)" d="M 0 0 M802.094 1453.26 L820.45 1453.26 L820.45 1457.19 L806.376 1457.19 L806.376 1465.67 Q807.395 1465.32 808.413 1465.16 Q809.432 1464.97 810.45 1464.97 Q816.237 1464.97 819.617 1468.14 Q822.996 1471.32 822.996 1476.73 Q822.996 1482.31 819.524 1485.41 Q816.052 1488.49 809.733 1488.49 Q807.557 1488.49 805.288 1488.12 Q803.043 1487.75 800.635 1487.01 L800.635 1482.31 Q802.719 1483.44 804.941 1484 Q807.163 1484.56 809.64 1484.56 Q813.645 1484.56 815.982 1482.45 Q818.32 1480.34 818.32 1476.73 Q818.32 1473.12 815.982 1471.01 Q813.645 1468.91 809.64 1468.91 Q807.765 1468.91 805.89 1469.32 Q804.038 1469.74 802.094 1470.62 L802.094 1453.26 Z" fill="#000000" fill-rule="evenodd" fill-opacity="1" /><path clip-path="url(#clip980)" d="M 0 0 M1258.77 1453.26 L1277.12 1453.26 L1277.12 1457.19 L1263.05 1457.19 L1263.05 1465.67 Q1264.07 1465.32 1265.09 1465.16 Q1266.11 1464.97 1267.13 1464.97 Q1272.91 1464.97 1276.29 1468.14 Q1279.67 1471.32 1279.67 1476.73 Q1279.67 1482.31 1276.2 1485.41 Q1272.73 1488.49 1266.41 1488.49 Q1264.23 1488.49 1261.96 1488.12 Q1259.72 1487.75 1257.31 1487.01 L1257.31 1482.31 Q1259.39 1483.44 1261.62 1484 Q1263.84 1484.56 1266.31 1484.56 Q1270.32 1484.56 1272.66 1482.45 Q1275 1480.34 1275 1476.73 Q1275 1473.12 1272.66 1471.01 Q1270.32 1468.91 1266.31 1468.91 Q1264.44 1468.91 1262.56 1469.32 Q1260.71 1469.74 1258.77 1470.62 L1258.77 1453.26 Z" fill="#000000" fill-rule="evenodd" fill-opacity="1" /><path clip-path="url(#clip980)" d="M 0 0 M1288.88 1481.94 L1293.77 1481.94 L1293.77 1487.82 L1288.88 1487.82 L1288.88 1481.94 Z" fill="#000000" fill-rule="evenodd" fill-opacity="1" /><path clip-path="url(#clip980)" d="M 0 0 M1313.95 1456.34 Q1310.34 1456.34 1308.51 1459.9 Q1306.71 1463.44 1306.71 1470.57 Q1306.71 1477.68 1308.51 1481.25 Q1310.34 1484.79 1313.95 1484.79 Q1317.59 1484.79 1319.39 1481.25 Q1321.22 1477.68 1321.22 1470.57 Q1321.22 1463.44 1319.39 1459.9 Q1317.59 1456.34 1313.95 1456.34 M1313.95 1452.63 Q1319.76 1452.63 1322.82 1457.24 Q1325.9 1461.82 1325.9 1470.57 Q1325.9 1479.3 1322.82 1483.91 Q1319.76 1488.49 1313.95 1488.49 Q1308.14 1488.49 1305.06 1483.91 Q1302.01 1479.3 1302.01 1470.57 Q1302.01 1461.82 1305.06 1457.24 Q1308.14 1452.63 1313.95 1452.63 Z" fill="#000000" fill-rule="evenodd" fill-opacity="1" /><path clip-path="url(#clip980)" d="M 0 0 M1760.42 1453.26 L1782.64 1453.26 L1782.64 1455.25 L1770.1 1487.82 L1765.21 1487.82 L1777.02 1457.19 L1760.42 1457.19 L1760.42 1453.26 Z" fill="#000000" fill-rule="evenodd" fill-opacity="1" /><path clip-path="url(#clip980)" d="M 0 0 M1791.76 1481.94 L1796.65 1481.94 L1796.65 1487.82 L1791.76 1487.82 L1791.76 1481.94 Z" fill="#000000" fill-rule="evenodd" fill-opacity="1" /><path clip-path="url(#clip980)" d="M 0 0 M1806.88 1453.26 L1825.23 1453.26 L1825.23 1457.19 L1811.16 1457.19 L1811.16 1465.67 Q1812.18 1465.32 1813.2 1465.16 Q1814.22 1464.97 1815.23 1464.97 Q1821.02 1464.97 1824.4 1468.14 Q1827.78 1471.32 1827.78 1476.73 Q1827.78 1482.31 1824.31 1485.41 Q1820.84 1488.49 1814.52 1488.49 Q1812.34 1488.49 1810.07 1488.12 Q1807.83 1487.75 1805.42 1487.01 L1805.42 1482.31 Q1807.5 1483.44 1809.73 1484 Q1811.95 1484.56 1814.42 1484.56 Q1818.43 1484.56 1820.77 1482.45 Q1823.1 1480.34 1823.1 1476.73 Q1823.1 1473.12 1820.77 1471.01 Q1818.43 1468.91 1814.42 1468.91 Q1812.55 1468.91 1810.67 1469.32 Q1808.82 1469.74 1806.88 1470.62 L1806.88 1453.26 Z" fill="#000000" fill-rule="evenodd" fill-opacity="1" /><path clip-path="url(#clip980)" d="M 0 0 M2248.67 1483.88 L2256.31 1483.88 L2256.31 1457.52 L2248 1459.19 L2248 1454.93 L2256.26 1453.26 L2260.94 1453.26 L2260.94 1483.88 L2268.58 1483.88 L2268.58 1487.82 L2248.67 1487.82 L2248.67 1483.88 Z" fill="#000000" fill-rule="evenodd" fill-opacity="1" /><path clip-path="url(#clip980)" d="M 0 0 M2288.02 1456.34 Q2284.41 1456.34 2282.58 1459.9 Q2280.78 1463.44 2280.78 1470.57 Q2280.78 1477.68 2282.58 1481.25 Q2284.41 1484.79 2288.02 1484.79 Q2291.65 1484.79 2293.46 1481.25 Q2295.29 1477.68 2295.29 1470.57 Q2295.29 1463.44 2293.46 1459.9 Q2291.65 1456.34 2288.02 1456.34 M2288.02 1452.63 Q2293.83 1452.63 2296.89 1457.24 Q2299.96 1461.82 2299.96 1470.57 Q2299.96 1479.3 2296.89 1483.91 Q2293.83 1488.49 2288.02 1488.49 Q2282.21 1488.49 2279.13 1483.91 Q2276.08 1479.3 2276.08 1470.57 Q2276.08 1461.82 2279.13 1457.24 Q2282.21 1452.63 2288.02 1452.63 Z" fill="#000000" fill-rule="evenodd" fill-opacity="1" /><path clip-path="url(#clip980)" d="M 0 0 M2308.18 1481.94 L2313.07 1481.94 L2313.07 1487.82 L2308.18 1487.82 L2308.18 1481.94 Z" fill="#000000" fill-rule="evenodd" fill-opacity="1" /><path clip-path="url(#clip980)" d="M 0 0 M2333.25 1456.34 Q2329.64 1456.34 2327.81 1459.9 Q2326.01 1463.44 2326.01 1470.57 Q2326.01 1477.68 2327.81 1481.25 Q2329.64 1484.79 2333.25 1484.79 Q2336.89 1484.79 2338.69 1481.25 Q2340.52 1477.68 2340.52 1470.57 Q2340.52 1463.44 2338.69 1459.9 Q2336.89 1456.34 2333.25 1456.34 M2333.25 1452.63 Q2339.06 1452.63 2342.12 1457.24 Q2345.2 1461.82 2345.2 1470.57 Q2345.2 1479.3 2342.12 1483.91 Q2339.06 1488.49 2333.25 1488.49 Q2327.44 1488.49 2324.36 1483.91 Q2321.31 1479.3 2321.31 1470.57 Q2321.31 1461.82 2324.36 1457.24 Q2327.44 1452.63 2333.25 1452.63 Z" fill="#000000" fill-rule="evenodd" fill-opacity="1" /><path clip-path="url(#clip980)" d="M 0 0 M1240.12 1530.6 Q1240.12 1532.85 1236.87 1532.85 L1225.79 1532.85 L1221.38 1555.43 Q1221.28 1556.01 1221.15 1556.33 Q1221.06 1556.65 1220.77 1557.2 Q1220.51 1557.71 1219.96 1557.97 Q1219.45 1558.26 1218.67 1558.26 Q1217.71 1558.26 1217.22 1557.68 Q1216.77 1557.13 1216.77 1556.46 Q1216.77 1556.04 1217.42 1554.04 L1223.89 1532.85 L1218.41 1532.85 Q1213.26 1532.85 1210.04 1537.94 Q1209.53 1538.61 1209.24 1538.68 Q1209.11 1538.71 1208.98 1538.71 Q1208.62 1538.71 1208.4 1538.55 Q1208.21 1538.39 1208.21 1538.23 L1208.17 1538.07 Q1208.17 1537.84 1208.69 1536.94 Q1209.24 1536.01 1210.2 1534.62 Q1211.2 1533.24 1212.2 1532.14 Q1213.52 1530.72 1215 1529.98 Q1216.48 1529.21 1217.22 1529.11 Q1218 1529.02 1218.99 1529.02 L1237.48 1529.02 Q1238.32 1529.02 1238.77 1529.08 Q1239.22 1529.11 1239.67 1529.5 Q1240.12 1529.85 1240.12 1530.6 Z" fill="#000000" fill-rule="evenodd" fill-opacity="1" /><path clip-path="url(#clip980)" d="M 0 0 M1258.41 1540.97 Q1258.41 1529.82 1262.57 1520.84 Q1264.34 1517.07 1266.82 1513.91 Q1269.3 1510.76 1270.94 1509.37 Q1272.58 1507.99 1273.03 1507.99 Q1273.68 1507.99 1273.71 1508.63 Q1273.71 1508.95 1272.84 1509.76 Q1262.21 1520.58 1262.25 1540.97 Q1262.25 1561.42 1272.58 1571.82 Q1273.71 1572.95 1273.71 1573.3 Q1273.71 1573.94 1273.03 1573.94 Q1272.58 1573.94 1271.01 1572.62 Q1269.43 1571.3 1266.98 1568.28 Q1264.53 1565.25 1262.76 1561.55 Q1258.41 1552.56 1258.41 1540.97 Z" fill="#000000" fill-rule="evenodd" fill-opacity="1" /><path clip-path="url(#clip980)" d="M 0 0 M1283.74 1557.45 L1283.74 1555.43 Q1287.25 1555.43 1288.06 1555.01 Q1288.86 1554.56 1288.86 1552.43 L1288.86 1534.75 Q1288.86 1532.3 1287.99 1531.69 Q1287.15 1531.08 1283.74 1531.08 L1283.74 1529.02 L1293.02 1528.31 L1293.02 1535.23 Q1296.11 1528.31 1302.77 1528.31 Q1307.73 1528.31 1309.7 1530.76 Q1311.15 1532.4 1311.44 1534.23 Q1311.76 1536.07 1311.76 1540.84 L1311.76 1553.43 Q1311.82 1554.81 1312.89 1555.14 Q1313.95 1555.43 1316.91 1555.43 L1316.91 1557.45 Q1310.18 1557.26 1309.51 1557.26 Q1308.99 1557.26 1302.07 1557.45 L1302.07 1555.43 Q1305.58 1555.43 1306.38 1555.01 Q1307.22 1554.56 1307.22 1552.43 L1307.22 1537.07 Q1307.22 1533.72 1306.19 1531.75 Q1305.16 1529.76 1302.32 1529.76 Q1298.91 1529.76 1296.17 1532.62 Q1293.43 1535.49 1293.43 1540.32 L1293.43 1552.43 Q1293.43 1554.56 1294.24 1555.01 Q1295.08 1555.43 1298.56 1555.43 L1298.56 1557.45 Q1291.82 1557.26 1291.18 1557.26 Q1290.66 1557.26 1283.74 1557.45 Z" fill="#000000" fill-rule="evenodd" fill-opacity="1" /><path clip-path="url(#clip980)" d="M 0 0 M1319.98 1556.59 L1319.98 1547.89 Q1319.98 1547.15 1320.01 1546.89 Q1320.04 1546.63 1320.24 1546.44 Q1320.43 1546.25 1320.81 1546.25 Q1321.27 1546.25 1321.43 1546.44 Q1321.62 1546.63 1321.75 1547.37 Q1322.75 1551.92 1324.87 1554.33 Q1327.03 1556.71 1330.93 1556.71 Q1334.63 1556.71 1336.5 1555.07 Q1338.37 1553.43 1338.37 1550.72 Q1338.37 1545.89 1331.51 1544.67 Q1327.55 1543.86 1325.9 1543.35 Q1324.26 1542.8 1322.81 1541.61 Q1319.98 1539.29 1319.98 1536.01 Q1319.98 1532.72 1322.46 1530.31 Q1324.97 1527.89 1330.51 1527.89 Q1334.21 1527.89 1336.72 1529.76 Q1337.47 1529.18 1337.85 1528.7 Q1338.72 1527.89 1339.17 1527.89 Q1339.69 1527.89 1339.78 1528.24 Q1339.88 1528.57 1339.88 1529.5 L1339.88 1536.13 Q1339.88 1536.88 1339.85 1537.13 Q1339.82 1537.39 1339.62 1537.58 Q1339.43 1537.74 1339.01 1537.74 Q1338.27 1537.74 1338.24 1537.13 Q1337.72 1529.15 1330.51 1529.15 Q1326.61 1529.15 1324.87 1530.66 Q1323.13 1532.14 1323.13 1534.17 Q1323.13 1535.3 1323.65 1536.17 Q1324.2 1537 1324.87 1537.52 Q1325.58 1538 1326.87 1538.49 Q1328.16 1538.94 1328.93 1539.1 Q1329.74 1539.26 1331.25 1539.58 Q1336.53 1540.58 1338.75 1542.74 Q1341.52 1545.51 1341.52 1549.02 Q1341.52 1552.91 1338.88 1555.55 Q1336.24 1558.2 1330.93 1558.2 Q1326.64 1558.2 1323.65 1555.33 Q1323.26 1555.72 1322.97 1556.07 Q1322.68 1556.39 1322.55 1556.52 Q1322.46 1556.65 1322.43 1556.75 Q1322.39 1556.81 1322.33 1556.88 Q1321.01 1558.2 1320.69 1558.2 Q1320.17 1558.2 1320.07 1557.84 Q1319.98 1557.52 1319.98 1556.59 Z" fill="#000000" fill-rule="evenodd" fill-opacity="1" /><path clip-path="url(#clip980)" d="M 0 0 M1345.69 1573.3 Q1345.69 1572.98 1346.52 1572.17 Q1357.15 1561.35 1357.15 1540.97 Q1357.15 1520.51 1346.94 1510.18 Q1345.69 1508.99 1345.69 1508.63 Q1345.69 1507.99 1346.33 1507.99 Q1346.78 1507.99 1348.36 1509.31 Q1349.97 1510.63 1352.39 1513.65 Q1354.83 1516.68 1356.64 1520.39 Q1360.99 1529.37 1360.99 1540.97 Q1360.99 1552.11 1356.83 1561.09 Q1355.06 1564.86 1352.58 1568.02 Q1350.1 1571.17 1348.46 1572.56 Q1346.81 1573.94 1346.33 1573.94 Q1345.69 1573.94 1345.69 1573.3 Z" fill="#000000" fill-rule="evenodd" fill-opacity="1" /><polyline clip-path="url(#clip983)" style="stroke:#000000; stroke-width:2; stroke-opacity:0.1; fill:none" points="
  226.432,1228.16 2352.76,1228.16 
  "/>
<polyline clip-path="url(#clip983)" style="stroke:#000000; stroke-width:2; stroke-opacity:0.1; fill:none" points="
  226.432,981.531 2352.76,981.531 
  "/>
<polyline clip-path="url(#clip983)" style="stroke:#000000; stroke-width:2; stroke-opacity:0.1; fill:none" points="
  226.432,734.904 2352.76,734.904 
  "/>
<polyline clip-path="url(#clip983)" style="stroke:#000000; stroke-width:2; stroke-opacity:0.1; fill:none" points="
  226.432,488.278 2352.76,488.278 
  "/>
<polyline clip-path="url(#clip983)" style="stroke:#000000; stroke-width:2; stroke-opacity:0.1; fill:none" points="
  226.432,241.651 2352.76,241.651 
  "/>
<polyline clip-path="url(#clip980)" style="stroke:#000000; stroke-width:4; stroke-opacity:1; fill:none" points="
  226.432,1427.15 226.432,123.472 
  "/>
<polyline clip-path="url(#clip980)" style="stroke:#000000; stroke-width:4; stroke-opacity:1; fill:none" points="
  226.432,1228.16 251.948,1228.16 
  "/>
<polyline clip-path="url(#clip980)" style="stroke:#000000; stroke-width:4; stroke-opacity:1; fill:none" points="
  226.432,981.531 251.948,981.531 
  "/>
<polyline clip-path="url(#clip980)" style="stroke:#000000; stroke-width:4; stroke-opacity:1; fill:none" points="
  226.432,734.904 251.948,734.904 
  "/>
<polyline clip-path="url(#clip980)" style="stroke:#000000; stroke-width:4; stroke-opacity:1; fill:none" points="
  226.432,488.278 251.948,488.278 
  "/>
<polyline clip-path="url(#clip980)" style="stroke:#000000; stroke-width:4; stroke-opacity:1; fill:none" points="
  226.432,241.651 251.948,241.651 
  "/>
<path clip-path="url(#clip980)" d="M 0 0 M127.284 1241.5 L143.604 1241.5 L143.604 1245.44 L121.659 1245.44 L121.659 1241.5 Q124.321 1238.75 128.905 1234.12 Q133.511 1229.47 134.692 1228.12 Q136.937 1225.6 137.817 1223.86 Q138.72 1222.1 138.72 1220.41 Q138.72 1217.66 136.775 1215.92 Q134.854 1214.19 131.752 1214.19 Q129.553 1214.19 127.099 1214.95 Q124.669 1215.72 121.891 1217.27 L121.891 1212.54 Q124.715 1211.41 127.169 1210.83 Q129.622 1210.25 131.659 1210.25 Q137.03 1210.25 140.224 1212.94 Q143.419 1215.62 143.419 1220.11 Q143.419 1222.24 142.608 1224.16 Q141.821 1226.06 139.715 1228.66 Q139.136 1229.33 136.034 1232.54 Q132.933 1235.74 127.284 1241.5 Z" fill="#000000" fill-rule="evenodd" fill-opacity="1" /><path clip-path="url(#clip980)" d="M 0 0 M153.419 1239.56 L158.303 1239.56 L158.303 1245.44 L153.419 1245.44 L153.419 1239.56 Z" fill="#000000" fill-rule="evenodd" fill-opacity="1" /><path clip-path="url(#clip980)" d="M 0 0 M178.488 1213.96 Q174.877 1213.96 173.048 1217.52 Q171.243 1221.06 171.243 1228.19 Q171.243 1235.3 173.048 1238.86 Q174.877 1242.41 178.488 1242.41 Q182.122 1242.41 183.928 1238.86 Q185.756 1235.3 185.756 1228.19 Q185.756 1221.06 183.928 1217.52 Q182.122 1213.96 178.488 1213.96 M178.488 1210.25 Q184.298 1210.25 187.354 1214.86 Q190.432 1219.44 190.432 1228.19 Q190.432 1236.92 187.354 1241.53 Q184.298 1246.11 178.488 1246.11 Q172.678 1246.11 169.599 1241.53 Q166.543 1236.92 166.543 1228.19 Q166.543 1219.44 169.599 1214.86 Q172.678 1210.25 178.488 1210.25 Z" fill="#000000" fill-rule="evenodd" fill-opacity="1" /><path clip-path="url(#clip980)" d="M 0 0 M128.28 994.876 L144.599 994.876 L144.599 998.811 L122.655 998.811 L122.655 994.876 Q125.317 992.121 129.9 987.492 Q134.507 982.839 135.687 981.496 Q137.932 978.973 138.812 977.237 Q139.715 975.478 139.715 973.788 Q139.715 971.034 137.77 969.297 Q135.849 967.561 132.747 967.561 Q130.548 967.561 128.095 968.325 Q125.664 969.089 122.886 970.64 L122.886 965.918 Q125.71 964.784 128.164 964.205 Q130.618 963.626 132.655 963.626 Q138.025 963.626 141.22 966.311 Q144.414 968.996 144.414 973.487 Q144.414 975.617 143.604 977.538 Q142.817 979.436 140.71 982.029 Q140.132 982.7 137.03 985.918 Q133.928 989.112 128.28 994.876 Z" fill="#000000" fill-rule="evenodd" fill-opacity="1" /><path clip-path="url(#clip980)" d="M 0 0 M154.414 992.932 L159.298 992.932 L159.298 998.811 L154.414 998.811 L154.414 992.932 Z" fill="#000000" fill-rule="evenodd" fill-opacity="1" /><path clip-path="url(#clip980)" d="M 0 0 M169.53 964.251 L187.886 964.251 L187.886 968.186 L173.812 968.186 L173.812 976.658 Q174.83 976.311 175.849 976.149 Q176.867 975.964 177.886 975.964 Q183.673 975.964 187.053 979.135 Q190.432 982.307 190.432 987.723 Q190.432 993.302 186.96 996.404 Q183.488 999.482 177.168 999.482 Q174.992 999.482 172.724 999.112 Q170.479 998.742 168.071 998.001 L168.071 993.302 Q170.155 994.436 172.377 994.992 Q174.599 995.547 177.076 995.547 Q181.08 995.547 183.418 993.441 Q185.756 991.334 185.756 987.723 Q185.756 984.112 183.418 982.006 Q181.08 979.899 177.076 979.899 Q175.201 979.899 173.326 980.316 Q171.474 980.733 169.53 981.612 L169.53 964.251 Z" fill="#000000" fill-rule="evenodd" fill-opacity="1" /><path clip-path="url(#clip980)" d="M 0 0 M137.423 733.55 Q140.78 734.268 142.655 736.536 Q144.553 738.805 144.553 742.138 Q144.553 747.254 141.034 750.055 Q137.516 752.856 131.034 752.856 Q128.858 752.856 126.544 752.416 Q124.252 751.999 121.798 751.143 L121.798 746.629 Q123.743 747.763 126.058 748.342 Q128.372 748.921 130.895 748.921 Q135.294 748.921 137.585 747.184 Q139.9 745.448 139.9 742.138 Q139.9 739.083 137.747 737.37 Q135.618 735.634 131.798 735.634 L127.771 735.634 L127.771 731.791 L131.983 731.791 Q135.433 731.791 137.261 730.425 Q139.09 729.036 139.09 726.444 Q139.09 723.782 137.192 722.37 Q135.317 720.935 131.798 720.935 Q129.877 720.935 127.678 721.351 Q125.479 721.768 122.84 722.648 L122.84 718.481 Q125.502 717.74 127.817 717.37 Q130.155 716.999 132.215 716.999 Q137.539 716.999 140.641 719.43 Q143.743 721.837 143.743 725.958 Q143.743 728.828 142.099 730.819 Q140.456 732.786 137.423 733.55 Z" fill="#000000" fill-rule="evenodd" fill-opacity="1" /><path clip-path="url(#clip980)" d="M 0 0 M153.419 746.305 L158.303 746.305 L158.303 752.184 L153.419 752.184 L153.419 746.305 Z" fill="#000000" fill-rule="evenodd" fill-opacity="1" /><path clip-path="url(#clip980)" d="M 0 0 M178.488 720.703 Q174.877 720.703 173.048 724.268 Q171.243 727.81 171.243 734.939 Q171.243 742.046 173.048 745.61 Q174.877 749.152 178.488 749.152 Q182.122 749.152 183.928 745.61 Q185.756 742.046 185.756 734.939 Q185.756 727.81 183.928 724.268 Q182.122 720.703 178.488 720.703 M178.488 716.999 Q184.298 716.999 187.354 721.606 Q190.432 726.189 190.432 734.939 Q190.432 743.666 187.354 748.272 Q184.298 752.856 178.488 752.856 Q172.678 752.856 169.599 748.272 Q166.543 743.666 166.543 734.939 Q166.543 726.189 169.599 721.606 Q172.678 716.999 178.488 716.999 Z" fill="#000000" fill-rule="evenodd" fill-opacity="1" /><path clip-path="url(#clip980)" d="M 0 0 M138.419 486.924 Q141.775 487.641 143.65 489.91 Q145.548 492.178 145.548 495.511 Q145.548 500.627 142.03 503.428 Q138.511 506.229 132.03 506.229 Q129.854 506.229 127.539 505.789 Q125.247 505.372 122.794 504.516 L122.794 500.002 Q124.738 501.136 127.053 501.715 Q129.368 502.294 131.891 502.294 Q136.289 502.294 138.581 500.558 Q140.895 498.822 140.895 495.511 Q140.895 492.456 138.743 490.743 Q136.613 489.007 132.794 489.007 L128.766 489.007 L128.766 485.164 L132.979 485.164 Q136.428 485.164 138.257 483.799 Q140.085 482.41 140.085 479.817 Q140.085 477.155 138.187 475.743 Q136.312 474.308 132.794 474.308 Q130.872 474.308 128.673 474.725 Q126.474 475.141 123.835 476.021 L123.835 471.854 Q126.497 471.113 128.812 470.743 Q131.15 470.373 133.21 470.373 Q138.534 470.373 141.636 472.803 Q144.738 475.211 144.738 479.331 Q144.738 482.201 143.095 484.192 Q141.451 486.16 138.419 486.924 Z" fill="#000000" fill-rule="evenodd" fill-opacity="1" /><path clip-path="url(#clip980)" d="M 0 0 M154.414 499.678 L159.298 499.678 L159.298 505.558 L154.414 505.558 L154.414 499.678 Z" fill="#000000" fill-rule="evenodd" fill-opacity="1" /><path clip-path="url(#clip980)" d="M 0 0 M169.53 470.998 L187.886 470.998 L187.886 474.933 L173.812 474.933 L173.812 483.405 Q174.83 483.058 175.849 482.896 Q176.867 482.711 177.886 482.711 Q183.673 482.711 187.053 485.882 Q190.432 489.053 190.432 494.47 Q190.432 500.048 186.96 503.15 Q183.488 506.229 177.168 506.229 Q174.992 506.229 172.724 505.859 Q170.479 505.488 168.071 504.747 L168.071 500.048 Q170.155 501.183 172.377 501.738 Q174.599 502.294 177.076 502.294 Q181.08 502.294 183.418 500.187 Q185.756 498.081 185.756 494.47 Q185.756 490.859 183.418 488.752 Q181.08 486.646 177.076 486.646 Q175.201 486.646 173.326 487.062 Q171.474 487.479 169.53 488.359 L169.53 470.998 Z" fill="#000000" fill-rule="evenodd" fill-opacity="1" /><path clip-path="url(#clip980)" d="M 0 0 M136.104 228.445 L124.298 246.894 L136.104 246.894 L136.104 228.445 M134.877 224.371 L140.757 224.371 L140.757 246.894 L145.687 246.894 L145.687 250.783 L140.757 250.783 L140.757 258.931 L136.104 258.931 L136.104 250.783 L120.502 250.783 L120.502 246.269 L134.877 224.371 Z" fill="#000000" fill-rule="evenodd" fill-opacity="1" /><path clip-path="url(#clip980)" d="M 0 0 M153.419 253.051 L158.303 253.051 L158.303 258.931 L153.419 258.931 L153.419 253.051 Z" fill="#000000" fill-rule="evenodd" fill-opacity="1" /><path clip-path="url(#clip980)" d="M 0 0 M178.488 227.45 Q174.877 227.45 173.048 231.014 Q171.243 234.556 171.243 241.686 Q171.243 248.792 173.048 252.357 Q174.877 255.899 178.488 255.899 Q182.122 255.899 183.928 252.357 Q185.756 248.792 185.756 241.686 Q185.756 234.556 183.928 231.014 Q182.122 227.45 178.488 227.45 M178.488 223.746 Q184.298 223.746 187.354 228.352 Q190.432 232.936 190.432 241.686 Q190.432 250.412 187.354 255.019 Q184.298 259.602 178.488 259.602 Q172.678 259.602 169.599 255.019 Q166.543 250.412 166.543 241.686 Q166.543 232.936 169.599 228.352 Q172.678 223.746 178.488 223.746 Z" fill="#000000" fill-rule="evenodd" fill-opacity="1" /><path clip-path="url(#clip980)" d="M 0 0 M50.1836 835.816 Q50.2159 835.816 51.3753 836.009 L80.6504 843.352 Q82.1963 843.739 83.7422 844.834 Q85.3202 845.897 86.6729 847.604 Q88.0577 849.278 88.8951 851.855 Q89.7647 854.399 89.7647 857.33 Q89.7647 862 88.7663 864.061 Q87.8001 866.09 85.7389 866.09 Q83.9354 866.09 82.9048 864.963 Q81.9064 863.835 81.9064 862.547 Q81.9064 861.323 82.6149 860.679 Q83.3235 860.035 84.2252 860.035 Q85.2236 860.035 86.222 860.711 Q87.2526 861.388 87.6391 862.74 Q88.3154 860.583 88.3154 857.459 Q88.3154 850.856 81.3267 848.022 Q81.2301 847.958 81.1979 847.958 L72.4701 845.768 L72.4057 845.864 Q73.0498 846.412 73.7905 847.282 Q74.4991 848.119 75.3686 849.922 Q76.2382 851.726 76.2382 853.497 Q76.2382 857.201 73.4041 859.745 Q70.5378 862.257 65.8035 862.257 Q62.3575 862.257 58.9114 860.872 Q55.4332 859.455 52.8889 857.265 Q50.3125 855.043 48.7022 852.209 Q47.0919 849.343 47.0919 846.573 Q47.0919 844.641 48.2513 842.998 Q49.3785 841.356 51.2464 840.454 Q49.7006 840.293 49.0564 839.423 Q48.4123 838.522 48.4123 837.749 Q48.4123 836.879 48.8954 836.364 Q49.3463 835.816 50.1836 835.816 M54.2094 841.227 Q54.0161 841.227 53.5009 841.356 Q52.9534 841.484 52.0838 841.871 Q51.2142 842.225 50.4413 842.773 Q49.6684 843.32 49.1209 844.319 Q48.5411 845.285 48.5411 846.509 Q48.5411 848.505 50.2159 850.502 Q51.8584 852.499 54.4026 853.884 Q56.8503 855.172 61.5845 856.396 Q66.3188 857.587 68.7342 857.587 Q71.1175 857.587 72.9532 856.557 Q74.7889 855.526 74.7889 853.304 Q74.7889 850.728 72.4057 847.958 Q69.9258 845.092 67.8003 844.608 L55.2078 841.42 Q54.4348 841.227 54.2094 841.227 Z" fill="#000000" fill-rule="evenodd" fill-opacity="1" /><path clip-path="url(#clip980)" d="M 0 0 M34.6809 829.065 Q26.8807 829.065 20.5909 826.157 Q17.9532 824.917 15.7439 823.181 Q13.5346 821.445 12.5652 820.296 Q11.5958 819.146 11.5958 818.83 Q11.5958 818.379 12.0466 818.357 Q12.2721 818.357 12.8357 818.966 Q20.4105 826.405 34.6809 826.383 Q48.9964 826.383 56.2782 819.146 Q57.0672 818.357 57.3152 818.357 Q57.7661 818.357 57.7661 818.83 Q57.7661 819.146 56.8418 820.251 Q55.9175 821.355 53.7983 823.069 Q51.6792 824.782 49.0866 826.022 Q42.7968 829.065 34.6809 829.065 Z" fill="#000000" fill-rule="evenodd" fill-opacity="1" /><path clip-path="url(#clip980)" d="M 0 0 M46.2235 811.336 Q45.3894 811.336 45.1414 811.269 Q44.8934 811.178 44.5101 810.818 L34.6358 801.958 Q29.1802 797.111 24.4234 797.111 Q21.3348 797.111 19.1255 798.734 Q16.9162 800.335 16.9162 803.288 Q16.9162 805.317 18.1561 807.03 Q19.396 808.744 21.6053 809.533 Q21.5603 809.397 21.5603 808.924 Q21.5603 807.774 22.2817 807.143 Q23.0031 806.489 23.9725 806.489 Q25.2124 806.489 25.8211 807.301 Q26.4072 808.09 26.4072 808.879 Q26.4072 809.195 26.3396 809.623 Q26.272 810.029 25.6407 810.682 Q24.987 811.336 23.8372 811.336 Q20.6134 811.336 18.0434 808.901 Q15.4733 806.444 15.4733 802.702 Q15.4733 798.464 17.9983 795.691 Q20.5007 792.895 24.4234 792.895 Q25.7985 792.895 27.061 793.323 Q28.3009 793.729 29.2703 794.293 Q30.2397 794.834 31.7953 796.322 Q33.3508 797.81 34.4555 799.005 Q35.5601 800.199 37.9047 802.882 L42.6615 807.774 L42.6615 799.455 Q42.6615 795.398 42.3008 795.082 Q41.647 794.631 38.1978 794.067 L38.1978 792.895 L46.2235 794.203 L46.2235 811.336 Z" fill="#000000" fill-rule="evenodd" fill-opacity="1" /><path clip-path="url(#clip980)" d="M 0 0 M57.3152 788.471 Q57.0898 788.471 56.5262 787.885 Q48.9513 780.446 34.6809 780.446 Q20.3654 780.446 13.1288 787.592 Q12.2946 788.471 12.0466 788.471 Q11.5958 788.471 11.5958 788.02 Q11.5958 787.705 12.5201 786.6 Q13.4444 785.473 15.5635 783.782 Q17.6827 782.069 20.2752 780.806 Q26.565 777.763 34.6809 777.763 Q42.4812 777.763 48.771 780.671 Q51.4086 781.911 53.618 783.647 Q55.8273 785.383 56.7967 786.533 Q57.7661 787.682 57.7661 788.02 Q57.7661 788.471 57.3152 788.471 Z" fill="#000000" fill-rule="evenodd" fill-opacity="1" /><path clip-path="url(#clip980)" d="M 0 0 M59.7488 763.702 Q48.6056 763.702 39.6201 759.548 Q35.852 757.776 32.6959 755.296 Q29.5397 752.817 28.1548 751.174 Q26.77 749.532 26.77 749.081 Q26.77 748.437 27.4141 748.404 Q27.7362 748.404 28.5413 749.274 Q39.3625 759.902 59.7488 759.87 Q80.1995 759.87 90.602 749.532 Q91.7292 748.404 92.0835 748.404 Q92.7276 748.404 92.7276 749.081 Q92.7276 749.532 91.4071 751.11 Q90.0867 752.688 87.0594 755.135 Q84.032 757.583 80.3283 759.354 Q71.3429 763.702 59.7488 763.702 Z" fill="#000000" fill-rule="evenodd" fill-opacity="1" /><path clip-path="url(#clip980)" d="M 0 0 M49.3785 706.427 Q51.6329 706.427 51.6329 709.679 L51.6329 720.758 L74.2092 725.17 Q74.7889 725.267 75.111 725.396 Q75.433 725.492 75.9805 725.782 Q76.4958 726.04 76.7535 726.587 Q77.0433 727.103 77.0433 727.876 Q77.0433 728.842 76.4636 729.325 Q75.9161 729.776 75.2398 729.776 Q74.8211 729.776 72.8244 729.132 L51.6329 722.658 L51.6329 728.133 Q51.6329 733.286 56.7214 736.507 Q57.3978 737.022 57.4622 737.312 Q57.4944 737.441 57.4944 737.57 Q57.4944 737.924 57.3333 738.149 Q57.1723 738.343 57.0113 738.343 L56.8503 738.375 Q56.6248 738.375 55.7231 737.859 Q54.7891 737.312 53.4042 736.346 Q52.0194 735.347 50.9244 734.349 Q49.5073 733.029 48.7666 731.547 Q47.9936 730.066 47.897 729.325 Q47.8004 728.552 47.8004 727.554 L47.8004 709.067 Q47.8004 708.23 47.8648 707.779 Q47.897 707.328 48.2835 706.877 Q48.6378 706.427 49.3785 706.427 Z" fill="#000000" fill-rule="evenodd" fill-opacity="1" /><path clip-path="url(#clip980)" d="M 0 0 M92.0835 709.858 Q91.7614 709.858 90.9563 709.02 Q80.1351 698.392 59.7488 698.392 Q39.2981 698.392 28.96 708.601 Q27.7684 709.858 27.4141 709.858 Q26.77 709.858 26.77 709.213 Q26.77 708.763 28.0904 707.184 Q29.4109 705.574 32.4382 703.159 Q35.4656 700.711 39.1692 698.908 Q48.1547 694.56 59.7488 694.56 Q70.892 694.56 79.8775 698.714 Q83.6455 700.486 86.8017 702.965 Q89.9579 705.445 91.3427 707.088 Q92.7276 708.73 92.7276 709.213 Q92.7276 709.858 92.0835 709.858 Z" fill="#000000" fill-rule="evenodd" fill-opacity="1" /><path clip-path="url(#clip980)" d="M 0 0 M582.205 18.8205 L582.205 41.5461 L592.494 41.5461 Q598.206 41.5461 601.325 38.5889 Q604.444 35.6318 604.444 30.163 Q604.444 24.7348 601.325 21.7777 Q598.206 18.8205 592.494 18.8205 L582.205 18.8205 M574.022 12.096 L592.494 12.096 Q602.662 12.096 607.847 16.714 Q613.073 21.2916 613.073 30.163 Q613.073 39.1155 607.847 43.6931 Q602.662 48.2706 592.494 48.2706 L582.205 48.2706 L582.205 72.576 L574.022 72.576 L574.022 12.096 Z" fill="#000000" fill-rule="evenodd" fill-opacity="1" /><path clip-path="url(#clip980)" d="M 0 0 M661.441 45.1919 L661.441 72.576 L653.987 72.576 L653.987 45.4349 Q653.987 38.994 651.475 35.7938 Q648.964 32.5936 643.941 32.5936 Q637.905 32.5936 634.421 36.4419 Q630.937 40.2903 630.937 46.9338 L630.937 72.576 L623.443 72.576 L623.443 9.54393 L630.937 9.54393 L630.937 34.2544 Q633.611 30.163 637.216 28.1376 Q640.862 26.1121 645.602 26.1121 Q653.42 26.1121 657.43 30.9732 Q661.441 35.7938 661.441 45.1919 Z" fill="#000000" fill-rule="evenodd" fill-opacity="1" /><path clip-path="url(#clip980)" d="M 0 0 M693.888 32.4315 Q687.893 32.4315 684.409 37.1306 Q680.925 41.7891 680.925 49.9314 Q680.925 58.0738 684.369 62.7728 Q687.852 67.4314 693.888 67.4314 Q699.843 67.4314 703.327 62.7323 Q706.811 58.0333 706.811 49.9314 Q706.811 41.8701 703.327 37.1711 Q699.843 32.4315 693.888 32.4315 M693.888 26.1121 Q703.611 26.1121 709.16 32.4315 Q714.71 38.7509 714.71 49.9314 Q714.71 61.0714 709.16 67.4314 Q703.611 73.7508 693.888 73.7508 Q684.126 73.7508 678.576 67.4314 Q673.067 61.0714 673.067 49.9314 Q673.067 38.7509 678.576 32.4315 Q684.126 26.1121 693.888 26.1121 Z" fill="#000000" fill-rule="evenodd" fill-opacity="1" /><path clip-path="url(#clip980)" d="M 0 0 M734.438 14.324 L734.438 27.2059 L749.791 27.2059 L749.791 32.9987 L734.438 32.9987 L734.438 57.6282 Q734.438 63.1779 735.937 64.7578 Q737.476 66.3376 742.135 66.3376 L749.791 66.3376 L749.791 72.576 L742.135 72.576 Q733.506 72.576 730.225 69.3758 Q726.944 66.1351 726.944 57.6282 L726.944 32.9987 L721.475 32.9987 L721.475 27.2059 L726.944 27.2059 L726.944 14.324 L734.438 14.324 Z" fill="#000000" fill-rule="evenodd" fill-opacity="1" /><path clip-path="url(#clip980)" d="M 0 0 M777.175 32.4315 Q771.18 32.4315 767.696 37.1306 Q764.212 41.7891 764.212 49.9314 Q764.212 58.0738 767.655 62.7728 Q771.139 67.4314 777.175 67.4314 Q783.13 67.4314 786.614 62.7323 Q790.097 58.0333 790.097 49.9314 Q790.097 41.8701 786.614 37.1711 Q783.13 32.4315 777.175 32.4315 M777.175 26.1121 Q786.897 26.1121 792.447 32.4315 Q797.997 38.7509 797.997 49.9314 Q797.997 61.0714 792.447 67.4314 Q786.897 73.7508 777.175 73.7508 Q767.412 73.7508 761.863 67.4314 Q756.353 61.0714 756.353 49.9314 Q756.353 38.7509 761.863 32.4315 Q767.412 26.1121 777.175 26.1121 Z" fill="#000000" fill-rule="evenodd" fill-opacity="1" /><path clip-path="url(#clip980)" d="M 0 0 M848.066 45.1919 L848.066 72.576 L840.612 72.576 L840.612 45.4349 Q840.612 38.994 838.101 35.7938 Q835.589 32.5936 830.566 32.5936 Q824.53 32.5936 821.046 36.4419 Q817.562 40.2903 817.562 46.9338 L817.562 72.576 L810.068 72.576 L810.068 27.2059 L817.562 27.2059 L817.562 34.2544 Q820.236 30.163 823.841 28.1376 Q827.487 26.1121 832.227 26.1121 Q840.045 26.1121 844.055 30.9732 Q848.066 35.7938 848.066 45.1919 Z" fill="#000000" fill-rule="evenodd" fill-opacity="1" /><path clip-path="url(#clip980)" d="M 0 0 M934.917 16.7545 L934.917 25.383 Q930.785 21.5346 926.086 19.6307 Q921.428 17.7268 916.161 17.7268 Q905.791 17.7268 900.282 24.0867 Q894.773 30.4061 894.773 42.3968 Q894.773 54.3469 900.282 60.7069 Q905.791 67.0263 916.161 67.0263 Q921.428 67.0263 926.086 65.1223 Q930.785 63.2184 934.917 59.3701 L934.917 67.9175 Q930.623 70.8341 925.803 72.2924 Q921.023 73.7508 915.675 73.7508 Q901.943 73.7508 894.044 65.3654 Q886.144 56.9395 886.144 42.3968 Q886.144 27.8135 894.044 19.4281 Q901.943 11.0023 915.675 11.0023 Q921.104 11.0023 925.884 12.4606 Q930.704 13.8784 934.917 16.7545 Z" fill="#000000" fill-rule="evenodd" fill-opacity="1" /><path clip-path="url(#clip980)" d="M 0 0 M964.813 32.4315 Q958.817 32.4315 955.334 37.1306 Q951.85 41.7891 951.85 49.9314 Q951.85 58.0738 955.293 62.7728 Q958.777 67.4314 964.813 67.4314 Q970.768 67.4314 974.251 62.7323 Q977.735 58.0333 977.735 49.9314 Q977.735 41.8701 974.251 37.1711 Q970.768 32.4315 964.813 32.4315 M964.813 26.1121 Q974.535 26.1121 980.085 32.4315 Q985.634 38.7509 985.634 49.9314 Q985.634 61.0714 980.085 67.4314 Q974.535 73.7508 964.813 73.7508 Q955.05 73.7508 949.5 67.4314 Q943.991 61.0714 943.991 49.9314 Q943.991 38.7509 949.5 32.4315 Q955.05 26.1121 964.813 26.1121 Z" fill="#000000" fill-rule="evenodd" fill-opacity="1" /><path clip-path="url(#clip980)" d="M 0 0 M1024.28 34.1734 Q1023.02 33.4443 1021.53 33.1202 Q1020.07 32.7556 1018.28 32.7556 Q1011.97 32.7556 1008.56 36.8875 Q1005.2 40.9789 1005.2 48.6757 L1005.2 72.576 L997.706 72.576 L997.706 27.2059 L1005.2 27.2059 L1005.2 34.2544 Q1007.55 30.1225 1011.32 28.1376 Q1015.08 26.1121 1020.47 26.1121 Q1021.24 26.1121 1022.17 26.2337 Q1023.11 26.3147 1024.24 26.5172 L1024.28 34.1734 Z" fill="#000000" fill-rule="evenodd" fill-opacity="1" /><path clip-path="url(#clip980)" d="M 0 0 M1056.93 34.1734 Q1055.67 33.4443 1054.18 33.1202 Q1052.72 32.7556 1050.94 32.7556 Q1044.62 32.7556 1041.21 36.8875 Q1037.85 40.9789 1037.85 48.6757 L1037.85 72.576 L1030.36 72.576 L1030.36 27.2059 L1037.85 27.2059 L1037.85 34.2544 Q1040.2 30.1225 1043.97 28.1376 Q1047.73 26.1121 1053.12 26.1121 Q1053.89 26.1121 1054.82 26.2337 Q1055.76 26.3147 1056.89 26.5172 L1056.93 34.1734 Z" fill="#000000" fill-rule="evenodd" fill-opacity="1" /><path clip-path="url(#clip980)" d="M 0 0 M1101.73 48.0275 L1101.73 51.6733 L1067.46 51.6733 Q1067.95 59.3701 1072.08 63.421 Q1076.25 67.4314 1083.67 67.4314 Q1087.96 67.4314 1091.97 66.3781 Q1096.02 65.3249 1099.99 63.2184 L1099.99 70.267 Q1095.98 71.9684 1091.77 72.8596 Q1087.56 73.7508 1083.22 73.7508 Q1072.36 73.7508 1066 67.4314 Q1059.68 61.1119 1059.68 50.3365 Q1059.68 39.1965 1065.68 32.6746 Q1071.72 26.1121 1081.92 26.1121 Q1091.08 26.1121 1096.39 32.0264 Q1101.73 37.9003 1101.73 48.0275 M1094.28 45.84 Q1094.2 39.7232 1090.84 36.0774 Q1087.51 32.4315 1082.01 32.4315 Q1075.77 32.4315 1072 35.9558 Q1068.27 39.4801 1067.71 45.8805 L1094.28 45.84 Z" fill="#000000" fill-rule="evenodd" fill-opacity="1" /><path clip-path="url(#clip980)" d="M 0 0 M1113.97 9.54393 L1121.42 9.54393 L1121.42 72.576 L1113.97 72.576 L1113.97 9.54393 Z" fill="#000000" fill-rule="evenodd" fill-opacity="1" /><path clip-path="url(#clip980)" d="M 0 0 M1157.64 49.7694 Q1148.6 49.7694 1145.12 51.8354 Q1141.63 53.9013 1141.63 58.8839 Q1141.63 62.8538 1144.23 65.2034 Q1146.86 67.5124 1151.36 67.5124 Q1157.55 67.5124 1161.28 63.1374 Q1165.05 58.7219 1165.05 51.4303 L1165.05 49.7694 L1157.64 49.7694 M1172.5 46.6907 L1172.5 72.576 L1165.05 72.576 L1165.05 65.6895 Q1162.5 69.8214 1158.69 71.8063 Q1154.88 73.7508 1149.37 73.7508 Q1142.4 73.7508 1138.27 69.8619 Q1134.18 65.9325 1134.18 59.3701 Q1134.18 51.7138 1139.29 47.825 Q1144.43 43.9361 1154.6 43.9361 L1165.05 43.9361 L1165.05 43.2069 Q1165.05 38.0623 1161.65 35.2672 Q1158.28 32.4315 1152.17 32.4315 Q1148.28 32.4315 1144.59 33.3632 Q1140.91 34.295 1137.5 36.1584 L1137.5 29.2718 Q1141.59 27.692 1145.44 26.9223 Q1149.29 26.1121 1152.94 26.1121 Q1162.78 26.1121 1167.64 31.2163 Q1172.5 36.3204 1172.5 46.6907 Z" fill="#000000" fill-rule="evenodd" fill-opacity="1" /><path clip-path="url(#clip980)" d="M 0 0 M1195.23 14.324 L1195.23 27.2059 L1210.58 27.2059 L1210.58 32.9987 L1195.23 32.9987 L1195.23 57.6282 Q1195.23 63.1779 1196.73 64.7578 Q1198.27 66.3376 1202.92 66.3376 L1210.58 66.3376 L1210.58 72.576 L1202.92 72.576 Q1194.3 72.576 1191.02 69.3758 Q1187.73 66.1351 1187.73 57.6282 L1187.73 32.9987 L1182.27 32.9987 L1182.27 27.2059 L1187.73 27.2059 L1187.73 14.324 L1195.23 14.324 Z" fill="#000000" fill-rule="evenodd" fill-opacity="1" /><path clip-path="url(#clip980)" d="M 0 0 M1220.38 27.2059 L1227.84 27.2059 L1227.84 72.576 L1220.38 72.576 L1220.38 27.2059 M1220.38 9.54393 L1227.84 9.54393 L1227.84 18.9825 L1220.38 18.9825 L1220.38 9.54393 Z" fill="#000000" fill-rule="evenodd" fill-opacity="1" /><path clip-path="url(#clip980)" d="M 0 0 M1261.01 32.4315 Q1255.02 32.4315 1251.54 37.1306 Q1248.05 41.7891 1248.05 49.9314 Q1248.05 58.0738 1251.5 62.7728 Q1254.98 67.4314 1261.01 67.4314 Q1266.97 67.4314 1270.45 62.7323 Q1273.94 58.0333 1273.94 49.9314 Q1273.94 41.8701 1270.45 37.1711 Q1266.97 32.4315 1261.01 32.4315 M1261.01 26.1121 Q1270.74 26.1121 1276.29 32.4315 Q1281.84 38.7509 1281.84 49.9314 Q1281.84 61.0714 1276.29 67.4314 Q1270.74 73.7508 1261.01 73.7508 Q1251.25 73.7508 1245.7 67.4314 Q1240.19 61.0714 1240.19 49.9314 Q1240.19 38.7509 1245.7 32.4315 Q1251.25 26.1121 1261.01 26.1121 Z" fill="#000000" fill-rule="evenodd" fill-opacity="1" /><path clip-path="url(#clip980)" d="M 0 0 M1331.91 45.1919 L1331.91 72.576 L1324.45 72.576 L1324.45 45.4349 Q1324.45 38.994 1321.94 35.7938 Q1319.43 32.5936 1314.41 32.5936 Q1308.37 32.5936 1304.89 36.4419 Q1301.4 40.2903 1301.4 46.9338 L1301.4 72.576 L1293.91 72.576 L1293.91 27.2059 L1301.4 27.2059 L1301.4 34.2544 Q1304.08 30.163 1307.68 28.1376 Q1311.33 26.1121 1316.07 26.1121 Q1323.88 26.1121 1327.9 30.9732 Q1331.91 35.7938 1331.91 45.1919 Z" fill="#000000" fill-rule="evenodd" fill-opacity="1" /><path clip-path="url(#clip980)" d="M 0 0 M1375.7 28.5427 L1375.7 35.5912 Q1372.54 33.9709 1369.13 33.1607 Q1365.73 32.3505 1362.08 32.3505 Q1356.54 32.3505 1353.74 34.0519 Q1350.99 35.7533 1350.99 39.156 Q1350.99 41.7486 1352.97 43.2475 Q1354.96 44.7058 1360.95 46.0426 L1363.5 46.6097 Q1371.44 48.3111 1374.76 51.4303 Q1378.13 54.509 1378.13 60.0587 Q1378.13 66.3781 1373.1 70.0644 Q1368.12 73.7508 1359.37 73.7508 Q1355.73 73.7508 1351.76 73.0216 Q1347.83 72.3329 1343.45 70.9151 L1343.45 63.2184 Q1347.58 65.3654 1351.59 66.4591 Q1355.6 67.5124 1359.53 67.5124 Q1364.8 67.5124 1367.63 65.73 Q1370.47 63.9071 1370.47 60.6258 Q1370.47 57.5877 1368.4 55.9673 Q1366.38 54.3469 1359.45 52.8481 L1356.86 52.2405 Q1349.93 50.7821 1346.85 47.7845 Q1343.77 44.7463 1343.77 39.4801 Q1343.77 33.0797 1348.31 29.5959 Q1352.85 26.1121 1361.19 26.1121 Q1365.33 26.1121 1368.97 26.7198 Q1372.62 27.3274 1375.7 28.5427 Z" fill="#000000" fill-rule="evenodd" fill-opacity="1" /><path clip-path="url(#clip980)" d="M 0 0 M1411.02 27.2059 L1418.92 27.2059 L1433.1 65.2844 L1447.28 27.2059 L1455.17 27.2059 L1438.16 72.576 L1428.03 72.576 L1411.02 27.2059 Z" fill="#000000" fill-rule="evenodd" fill-opacity="1" /><path clip-path="url(#clip980)" d="M 0 0 M1494.39 28.5427 L1494.39 35.5912 Q1491.23 33.9709 1487.83 33.1607 Q1484.42 32.3505 1480.78 32.3505 Q1475.23 32.3505 1472.43 34.0519 Q1469.68 35.7533 1469.68 39.156 Q1469.68 41.7486 1471.66 43.2475 Q1473.65 44.7058 1479.64 46.0426 L1482.19 46.6097 Q1490.13 48.3111 1493.46 51.4303 Q1496.82 54.509 1496.82 60.0587 Q1496.82 66.3781 1491.79 70.0644 Q1486.81 73.7508 1478.06 73.7508 Q1474.42 73.7508 1470.45 73.0216 Q1466.52 72.3329 1462.14 70.9151 L1462.14 63.2184 Q1466.27 65.3654 1470.28 66.4591 Q1474.3 67.5124 1478.22 67.5124 Q1483.49 67.5124 1486.33 65.73 Q1489.16 63.9071 1489.16 60.6258 Q1489.16 57.5877 1487.1 55.9673 Q1485.07 54.3469 1478.14 52.8481 L1475.55 52.2405 Q1468.62 50.7821 1465.55 47.7845 Q1462.47 44.7463 1462.47 39.4801 Q1462.47 33.0797 1467 29.5959 Q1471.54 26.1121 1479.89 26.1121 Q1484.02 26.1121 1487.66 26.7198 Q1491.31 27.3274 1494.39 28.5427 Z" fill="#000000" fill-rule="evenodd" fill-opacity="1" /><path clip-path="url(#clip980)" d="M 0 0 M1527 12.096 L1578.16 12.096 L1578.16 18.9825 L1556.69 18.9825 L1556.69 72.576 L1548.47 72.576 L1548.47 18.9825 L1527 18.9825 L1527 12.096 Z" fill="#000000" fill-rule="evenodd" fill-opacity="1" /><path clip-path="url(#clip980)" d="M 0 0 M1583.18 27.2059 L1590.64 27.2059 L1590.64 72.576 L1583.18 72.576 L1583.18 27.2059 M1583.18 9.54393 L1590.64 9.54393 L1590.64 18.9825 L1583.18 18.9825 L1583.18 9.54393 Z" fill="#000000" fill-rule="evenodd" fill-opacity="1" /><path clip-path="url(#clip980)" d="M 0 0 M1641.56 35.9153 Q1644.35 30.8922 1648.24 28.5022 Q1652.13 26.1121 1657.4 26.1121 Q1664.48 26.1121 1668.33 31.0947 Q1672.18 36.0368 1672.18 45.1919 L1672.18 72.576 L1664.69 72.576 L1664.69 45.4349 Q1664.69 38.913 1662.38 35.7533 Q1660.07 32.5936 1655.33 32.5936 Q1649.54 32.5936 1646.17 36.4419 Q1642.81 40.2903 1642.81 46.9338 L1642.81 72.576 L1635.32 72.576 L1635.32 45.4349 Q1635.32 38.8725 1633.01 35.7533 Q1630.7 32.5936 1625.88 32.5936 Q1620.17 32.5936 1616.81 36.4824 Q1613.44 40.3308 1613.44 46.9338 L1613.44 72.576 L1605.95 72.576 L1605.95 27.2059 L1613.44 27.2059 L1613.44 34.2544 Q1616 30.082 1619.56 28.0971 Q1623.13 26.1121 1628.03 26.1121 Q1632.97 26.1121 1636.41 28.6237 Q1639.9 31.1352 1641.56 35.9153 Z" fill="#000000" fill-rule="evenodd" fill-opacity="1" /><path clip-path="url(#clip980)" d="M 0 0 M1725.86 48.0275 L1725.86 51.6733 L1691.59 51.6733 Q1692.07 59.3701 1696.2 63.421 Q1700.38 67.4314 1707.79 67.4314 Q1712.08 67.4314 1716.09 66.3781 Q1720.14 65.3249 1724.11 63.2184 L1724.11 70.267 Q1720.1 71.9684 1715.89 72.8596 Q1711.68 73.7508 1707.34 73.7508 Q1696.49 73.7508 1690.13 67.4314 Q1683.81 61.1119 1683.81 50.3365 Q1683.81 39.1965 1689.8 32.6746 Q1695.84 26.1121 1706.05 26.1121 Q1715.2 26.1121 1720.51 32.0264 Q1725.86 37.9003 1725.86 48.0275 M1718.4 45.84 Q1718.32 39.7232 1714.96 36.0774 Q1711.64 32.4315 1706.13 32.4315 Q1699.89 32.4315 1696.12 35.9558 Q1692.4 39.4801 1691.83 45.8805 L1718.4 45.84 Z" fill="#000000" fill-rule="evenodd" fill-opacity="1" /><path clip-path="url(#clip980)" d="M 0 0 M1789.33 17.6457 Q1780.42 17.6457 1775.16 24.2892 Q1769.93 30.9327 1769.93 42.3968 Q1769.93 53.8203 1775.16 60.4638 Q1780.42 67.1073 1789.33 67.1073 Q1798.25 67.1073 1803.43 60.4638 Q1808.66 53.8203 1808.66 42.3968 Q1808.66 30.9327 1803.43 24.2892 Q1798.25 17.6457 1789.33 17.6457 M1789.33 11.0023 Q1802.05 11.0023 1809.67 19.5497 Q1817.29 28.0566 1817.29 42.3968 Q1817.29 56.6965 1809.67 65.2439 Q1802.05 73.7508 1789.33 73.7508 Q1776.57 73.7508 1768.92 65.2439 Q1761.3 56.737 1761.3 42.3968 Q1761.3 28.0566 1768.92 19.5497 Q1776.57 11.0023 1789.33 11.0023 Z" fill="#000000" fill-rule="evenodd" fill-opacity="1" /><path clip-path="url(#clip980)" d="M 0 0 M1852.73 9.54393 L1852.73 15.7418 L1845.6 15.7418 Q1841.59 15.7418 1840.01 17.3622 Q1838.47 18.9825 1838.47 23.1955 L1838.47 27.2059 L1850.75 27.2059 L1850.75 32.9987 L1838.47 32.9987 L1838.47 72.576 L1830.98 72.576 L1830.98 32.9987 L1823.85 32.9987 L1823.85 27.2059 L1830.98 27.2059 L1830.98 24.0462 Q1830.98 16.471 1834.5 13.0277 Q1838.03 9.54393 1845.68 9.54393 L1852.73 9.54393 Z" fill="#000000" fill-rule="evenodd" fill-opacity="1" /><path clip-path="url(#clip980)" d="M 0 0 M1881.94 9.54393 L1881.94 15.7418 L1874.81 15.7418 Q1870.8 15.7418 1869.22 17.3622 Q1867.68 18.9825 1867.68 23.1955 L1867.68 27.2059 L1879.95 27.2059 L1879.95 32.9987 L1867.68 32.9987 L1867.68 72.576 L1860.18 72.576 L1860.18 32.9987 L1853.05 32.9987 L1853.05 27.2059 L1860.18 27.2059 L1860.18 24.0462 Q1860.18 16.471 1863.71 13.0277 Q1867.23 9.54393 1874.89 9.54393 L1881.94 9.54393 Z" fill="#000000" fill-rule="evenodd" fill-opacity="1" /><path clip-path="url(#clip980)" d="M 0 0 M1917.1 28.5427 L1917.1 35.5912 Q1913.94 33.9709 1910.54 33.1607 Q1907.13 32.3505 1903.49 32.3505 Q1897.94 32.3505 1895.14 34.0519 Q1892.39 35.7533 1892.39 39.156 Q1892.39 41.7486 1894.37 43.2475 Q1896.36 44.7058 1902.35 46.0426 L1904.91 46.6097 Q1912.85 48.3111 1916.17 51.4303 Q1919.53 54.509 1919.53 60.0587 Q1919.53 66.3781 1914.51 70.0644 Q1909.52 73.7508 1900.77 73.7508 Q1897.13 73.7508 1893.16 73.0216 Q1889.23 72.3329 1884.85 70.9151 L1884.85 63.2184 Q1888.99 65.3654 1893 66.4591 Q1897.01 67.5124 1900.94 67.5124 Q1906.2 67.5124 1909.04 65.73 Q1911.87 63.9071 1911.87 60.6258 Q1911.87 57.5877 1909.81 55.9673 Q1907.78 54.3469 1900.86 52.8481 L1898.26 52.2405 Q1891.34 50.7821 1888.26 47.7845 Q1885.18 44.7463 1885.18 39.4801 Q1885.18 33.0797 1889.72 29.5959 Q1894.25 26.1121 1902.6 26.1121 Q1906.73 26.1121 1910.37 26.7198 Q1914.02 27.3274 1917.1 28.5427 Z" fill="#000000" fill-rule="evenodd" fill-opacity="1" /><path clip-path="url(#clip980)" d="M 0 0 M1970.21 48.0275 L1970.21 51.6733 L1935.94 51.6733 Q1936.42 59.3701 1940.55 63.421 Q1944.73 67.4314 1952.14 67.4314 Q1956.43 67.4314 1960.44 66.3781 Q1964.49 65.3249 1968.46 63.2184 L1968.46 70.267 Q1964.45 71.9684 1960.24 72.8596 Q1956.03 73.7508 1951.69 73.7508 Q1940.84 73.7508 1934.48 67.4314 Q1928.16 61.1119 1928.16 50.3365 Q1928.16 39.1965 1934.15 32.6746 Q1940.19 26.1121 1950.4 26.1121 Q1959.55 26.1121 1964.86 32.0264 Q1970.21 37.9003 1970.21 48.0275 M1962.75 45.84 Q1962.67 39.7232 1959.31 36.0774 Q1955.99 32.4315 1950.48 32.4315 Q1944.24 32.4315 1940.47 35.9558 Q1936.75 39.4801 1936.18 45.8805 L1962.75 45.84 Z" fill="#000000" fill-rule="evenodd" fill-opacity="1" /><path clip-path="url(#clip980)" d="M 0 0 M1989.81 14.324 L1989.81 27.2059 L2005.17 27.2059 L2005.17 32.9987 L1989.81 32.9987 L1989.81 57.6282 Q1989.81 63.1779 1991.31 64.7578 Q1992.85 66.3376 1997.51 66.3376 L2005.17 66.3376 L2005.17 72.576 L1997.51 72.576 Q1988.88 72.576 1985.6 69.3758 Q1982.32 66.1351 1982.32 57.6282 L1982.32 32.9987 L1976.85 32.9987 L1976.85 27.2059 L1982.32 27.2059 L1982.32 14.324 L1989.81 14.324 Z" fill="#000000" fill-rule="evenodd" fill-opacity="1" /><polyline clip-path="url(#clip983)" style="stroke:#009af9; stroke-width:4; stroke-opacity:1; fill:none" points="
  286.611,160.369 290.631,1257.51 294.651,1291.74 298.671,1268.08 302.691,1160.54 306.711,1285.38 310.731,1184.92 314.751,1374.7 318.771,1373.65 322.791,1275.49 
  326.811,1351.47 330.831,1263.12 334.851,1215.37 338.871,1164.14 342.891,1331.09 346.911,1089.78 350.931,1106.87 354.951,1262.21 358.971,1140.42 362.991,1008.77 
  367.011,1187.75 371.031,1387.52 375.051,1288.62 379.071,1304.7 383.091,1301.46 387.11,1337.46 391.13,1347.44 395.15,1226.32 399.17,1282.68 403.19,1247.51 
  407.21,1322.04 411.23,895.848 415.25,1125.97 419.27,1193.37 423.29,1202.64 427.31,1059.69 431.33,1237.96 435.35,1213.99 439.37,1220.68 443.39,1253.96 
  447.41,1279.3 451.43,1350.44 455.45,1271.01 459.47,1267.49 463.49,1292.68 467.51,1290.15 471.53,1155.41 475.55,1193.57 479.57,1179.64 483.59,1261.3 
  487.61,1063.25 491.63,1014.31 495.65,1286.03 499.67,1238.02 503.69,1210.57 507.71,1325.64 511.73,1320.39 515.75,1322.62 519.77,1353.85 523.79,1294.59 
  527.809,1344.73 531.829,1292.67 535.849,1128.64 539.869,1238.37 543.889,1264.43 547.909,1172.91 551.929,953.174 555.949,1244.87 559.969,1261.51 563.989,1206.44 
  568.009,1105.86 572.029,1257.13 576.049,1249.6 580.069,1331.07 584.089,1346.57 588.109,1270.81 592.129,1296.1 596.149,1275.31 600.169,1301.61 604.189,1212.23 
  608.209,1105.78 612.229,874.479 616.249,1170.09 620.269,1252.08 624.289,1281.44 628.309,1047.59 632.329,1130.56 636.349,1291.05 640.369,1284.46 644.389,1344.2 
  648.409,1311.65 652.429,1279.09 656.449,1288.31 660.469,1283.9 664.489,1293.59 668.508,1294.31 672.528,1298.01 676.548,1116.66 680.568,1089.99 684.588,1249.98 
  688.608,1273.42 692.628,1054.93 696.648,1355.04 700.668,1239.68 704.688,1089.07 708.708,1289.09 712.728,1281 716.748,1251.62 720.768,1339.56 724.788,1277.16 
  728.808,1223.59 732.828,1313.21 736.848,1160.78 740.868,1127.28 744.888,1243.24 748.908,1215.01 752.928,1105.08 756.948,1053.7 760.968,1195.01 764.988,1135.8 
  769.008,1289.53 773.028,1256.76 777.048,1240.59 781.068,1178.38 785.088,1326.3 789.108,1331.65 793.128,1305.74 797.148,1276.11 801.168,1230.61 805.188,1298.53 
  809.207,1285.99 813.227,1219.23 817.247,1004.45 821.267,1321.38 825.287,1204.38 829.307,1256.3 833.327,1152.7 837.347,1182.7 841.367,1206.3 845.387,1338.66 
  849.407,1273.48 853.427,1287.56 857.447,1328.15 861.467,1291.45 865.487,1312.27 869.507,1275.92 873.527,1164.97 877.547,1142.98 881.567,1339.05 885.587,1095.46 
  889.607,1143.58 893.627,1157.57 897.647,1167.59 901.667,1259.57 905.687,1245.71 909.707,1115.15 913.727,1234.15 917.747,1270.41 921.767,1278.06 925.787,1327.73 
  929.807,1271.72 933.827,1250.17 937.847,1277.98 941.867,1167.15 945.887,1296.39 949.906,1233.48 953.926,1109.07 957.946,1164.13 961.966,1235.38 965.986,1186.21 
  970.006,1297.28 974.026,1257.14 978.046,1222.4 982.066,1223.7 986.086,1286.43 990.106,1372.69 994.126,1320.6 998.146,1341.02 1002.17,1165.03 1006.19,1243.19 
  1010.21,1328.93 1014.23,1313.12 1018.25,1079.78 1022.27,1232.84 1026.29,1094.39 1030.31,1137.91 1034.33,1171.59 1038.35,1252.09 1042.37,1177.81 1046.39,1150.44 
  1050.41,1294.14 1054.43,1288.76 1058.45,1252.85 1062.47,1290.86 1066.49,1304.69 1070.51,1251.81 1074.53,1329.6 1078.55,1096.74 1082.57,1002.9 1086.59,1213.51 
  1090.61,1240.27 1094.63,1240.01 1098.65,1040.8 1102.67,1182.44 1106.69,1107.73 1110.71,1322.39 1114.73,1368.06 1118.75,1298 1122.77,1196.03 1126.79,1390.25 
  1130.81,1334.39 1134.83,1300.67 1138.85,1325.45 1142.87,1189.66 1146.89,1269.25 1150.91,1233.28 1154.93,1132.86 1158.94,945.718 1162.96,1277.15 1166.98,1188.85 
  1171,1091.34 1175.02,1114.93 1179.04,1228.26 1183.06,1290.5 1187.08,1311.64 1191.1,1338.34 1195.12,1226.11 1199.14,1349.63 1203.16,1329.89 1207.18,1190.28 
  1211.2,1162.11 1215.22,1258.33 1219.24,1109.16 1223.26,1088.63 1227.28,1297.52 1231.3,943.577 1235.32,1099.56 1239.34,1222.6 1243.36,1214.72 1247.38,1216.5 
  1251.4,1352.19 1255.42,1269.25 1259.44,1349.89 1263.46,1333.72 1267.48,1250.65 1271.5,1334.71 1275.52,1318.65 1279.54,1216.48 1283.56,1047.74 1287.58,1291.11 
  1291.6,1207.96 1295.62,1199.95 1299.64,1137.45 1303.66,1033.32 1307.68,1219.61 1311.7,1276.77 1315.72,1315.21 1319.74,1359 1323.76,1326.05 1327.78,1214.19 
  1331.8,1356.3 1335.82,1349.5 1339.84,1320.79 1343.86,1193.31 1347.88,958.939 1351.9,1215.62 1355.92,1219.58 1359.94,1148.46 1363.96,1097.23 1367.98,1198.45 
  1372,992.7 1376.02,1304.65 1380.04,1202.19 1384.06,1310.43 1388.08,1277.46 1392.1,1329.7 1396.12,1338.7 1400.14,1280.64 1404.16,1251.55 1408.18,1132.8 
  1412.2,1300 1416.22,1310.21 1420.24,1206.7 1424.26,753.27 1428.28,1223.49 1432.3,1255.75 1436.32,1275.69 1440.34,1198.17 1444.36,1304.99 1448.38,1170.41 
  1452.4,1368.73 1456.42,1380.76 1460.44,1318.37 1464.46,1349.15 1468.48,1380.3 1472.5,1140.7 1476.52,1211.68 1480.54,1225.5 1484.56,1158.6 1488.58,1104.76 
  1492.6,1313.68 1496.62,828.182 1500.64,995.025 1504.66,1157.2 1508.68,1308.6 1512.7,1203.83 1516.72,1308.17 1520.74,1263.19 1524.76,1315.28 1528.78,1382.46 
  1532.8,1214.23 1536.82,1304.04 1540.84,1214.45 1544.86,1337.05 1548.88,951.648 1552.9,1153.17 1556.92,1105.93 1560.94,1285.97 1564.96,962.215 1568.98,1297.6 
  1573,1211.57 1577.02,1185.97 1581.04,1325.37 1585.06,1309.55 1589.08,1334.8 1593.1,1356.18 1597.12,1331.92 1601.14,1295.19 1605.16,1279.04 1609.18,1169.19 
  1613.2,1200.98 1617.22,1295.97 1621.24,1271.37 1625.26,1045.99 1629.28,846.622 1633.3,1273.49 1637.32,1217.53 1641.34,1268.47 1645.36,1307.26 1649.38,1189.49 
  1653.4,1253.11 1657.42,1331.31 1661.44,1336.06 1665.46,1309.94 1669.48,1243.6 1673.5,1090.13 1677.52,1277.56 1681.54,1233.26 1685.56,1214.09 1689.58,1056.74 
  1693.6,1183.82 1697.62,1180.64 1701.64,1194.63 1705.66,1094.89 1709.68,1194.4 1713.7,1286.66 1717.72,1342.66 1721.74,1304.56 1725.76,1303.24 1729.78,1352.93 
  1733.8,1294.29 1737.82,1307.18 1741.84,1249.5 1745.86,1192.5 1749.88,1155.44 1753.9,1170.22 1757.92,1243.37 1761.94,1276.18 1765.96,1081.28 1769.98,1237.26 
  1774,1165.12 1778.02,1252.32 1782.04,1290.27 1786.06,1319.46 1790.08,1294.57 1794.1,1339.21 1798.12,1291.37 1802.14,1269.88 1806.16,1318.03 1810.18,1315.57 
  1814.2,1085.98 1818.22,1084.61 1822.24,1075.88 1826.26,1241.98 1830.28,1104.46 1834.3,1159.21 1838.32,1207.59 1842.34,1116.45 1846.36,1277.9 1850.38,1306.19 
  1854.4,1282.71 1858.42,1302.44 1862.44,1345.31 1866.46,1198.72 1870.48,1350.41 1874.5,1210.06 1878.52,1153.96 1882.54,1274.28 1886.56,1320.61 1890.58,980.195 
  1894.6,1222.39 1898.62,1246.09 1902.64,1141.09 1906.66,1352.48 1910.68,1283.2 1914.7,1199.83 1918.72,1270.09 1922.74,1377.96 1926.76,1232.66 1930.78,1307.37 
  1934.8,1303.87 1938.82,1241.19 1942.84,1316.92 1946.86,1251.74 1950.88,1072.66 1954.9,1094.78 1958.92,1178.48 1962.94,1263.55 1966.96,1189.81 1970.98,1030.45 
  1975,1067.8 1979.02,1226.23 1983.04,1307.26 1987.06,1352.66 1991.08,1169.83 1995.1,1276.83 1999.12,1344.26 2003.14,1224.56 2007.16,1303.9 2011.18,1267.63 
  2015.2,1237.66 2019.22,1196.25 2023.24,1165.54 2027.26,1058.46 2031.28,1262.29 2035.3,1171.69 2039.32,1214.61 2043.34,1189.93 2047.36,1200.35 2051.38,1260.61 
  2055.4,1316.21 2059.42,1351.29 2063.44,1293.46 2067.46,1314.87 2071.48,1324.19 2075.5,1336.3 2079.52,1219.51 2083.54,1267.18 2087.56,1191.36 2091.58,1247.22 
  2095.6,1054.8 2099.62,971.37 2103.64,1135.82 2107.66,1297.19 2111.68,1306.59 2115.7,1188.09 2119.72,1200.36 2123.74,1287.95 2127.76,1277.09 2131.78,1337.44 
  2135.8,1329.85 2139.82,1132.87 2143.84,1246.55 2147.86,1269.06 2151.88,1269.03 2155.9,1190.98 2159.92,1226.42 2163.94,972.278 2167.96,1131.36 2171.98,1265.61 
  2176,1214.24 2180.02,1207.04 2184.04,1272.15 2188.06,1296.6 2192.08,1281.43 2196.1,1326.25 2200.12,1316.54 2204.14,1327.37 2208.16,1287.02 2212.18,1274.95 
  2216.2,1182.67 2220.22,1179 2224.24,1251.02 2228.26,1160.38 2232.28,1291.81 2236.3,1156.9 2240.32,1130.68 2244.34,1144.98 2248.36,1339.52 2252.38,1235.48 
  2256.4,1232.54 2260.42,1233.19 2264.44,1349.57 2268.46,1348.68 2272.48,1194.48 2276.5,1307.14 2280.52,1259.27 2284.54,1223.43 2288.56,1266.08 2292.58,997.546 
  
  "/>
</svg>
