<?xml version="1.0" encoding="utf-8"?>
<svg xmlns="http://www.w3.org/2000/svg" xmlns:xlink="http://www.w3.org/1999/xlink" width="600" height="400" viewBox="0 0 2400 1600">
<defs>
  <clipPath id="clip010">
    <rect x="0" y="0" width="2400" height="1600"/>
  </clipPath>
</defs>
<path clip-path="url(#clip010)" d="
M0 1600 L2400 1600 L2400 0 L0 0  Z
  " fill="#ffffff" fill-rule="evenodd" fill-opacity="1"/>
<defs>
  <clipPath id="clip011">
    <rect x="480" y="0" width="1681" height="1600"/>
  </clipPath>
</defs>
<defs>
  <clipPath id="clip012">
    <rect x="226" y="123" width="2127" height="1305"/>
  </clipPath>
</defs>
<path clip-path="url(#clip010)" d="
M266.337 1427.15 L2352.76 1427.15 L2352.76 123.472 L266.337 123.472  Z
  " fill="#ffffff" fill-rule="evenodd" fill-opacity="1"/>
<defs>
  <clipPath id="clip013">
    <rect x="266" y="123" width="2087" height="1305"/>
  </clipPath>
</defs>
<polyline clip-path="url(#clip013)" style="stroke:#000000; stroke-width:2; stroke-opacity:0.1; fill:none" points="
  325.387,1427.15 325.387,123.472 
  "/>
<polyline clip-path="url(#clip013)" style="stroke:#000000; stroke-width:2; stroke-opacity:0.1; fill:none" points="
  818.453,1427.15 818.453,123.472 
  "/>
<polyline clip-path="url(#clip013)" style="stroke:#000000; stroke-width:2; stroke-opacity:0.1; fill:none" points="
  1311.52,1427.15 1311.52,123.472 
  "/>
<polyline clip-path="url(#clip013)" style="stroke:#000000; stroke-width:2; stroke-opacity:0.1; fill:none" points="
  1804.58,1427.15 1804.58,123.472 
  "/>
<polyline clip-path="url(#clip013)" style="stroke:#000000; stroke-width:2; stroke-opacity:0.1; fill:none" points="
  2297.65,1427.15 2297.65,123.472 
  "/>
<polyline clip-path="url(#clip010)" style="stroke:#000000; stroke-width:4; stroke-opacity:1; fill:none" points="
  266.337,1427.15 2352.76,1427.15 
  "/>
<polyline clip-path="url(#clip010)" style="stroke:#000000; stroke-width:4; stroke-opacity:1; fill:none" points="
  325.387,1427.15 325.387,1411.5 
  "/>
<polyline clip-path="url(#clip010)" style="stroke:#000000; stroke-width:4; stroke-opacity:1; fill:none" points="
  818.453,1427.15 818.453,1411.5 
  "/>
<polyline clip-path="url(#clip010)" style="stroke:#000000; stroke-width:4; stroke-opacity:1; fill:none" points="
  1311.52,1427.15 1311.52,1411.5 
  "/>
<polyline clip-path="url(#clip010)" style="stroke:#000000; stroke-width:4; stroke-opacity:1; fill:none" points="
  1804.58,1427.15 1804.58,1411.5 
  "/>
<polyline clip-path="url(#clip010)" style="stroke:#000000; stroke-width:4; stroke-opacity:1; fill:none" points="
  2297.65,1427.15 2297.65,1411.5 
  "/>
<path clip-path="url(#clip010)" d="M 0 0 M302.771 1456.34 Q299.16 1456.34 297.331 1459.9 Q295.526 1463.44 295.526 1470.57 Q295.526 1477.68 297.331 1481.25 Q299.16 1484.79 302.771 1484.79 Q306.405 1484.79 308.211 1481.25 Q310.04 1477.68 310.04 1470.57 Q310.04 1463.44 308.211 1459.9 Q306.405 1456.34 302.771 1456.34 M302.771 1452.63 Q308.581 1452.63 311.637 1457.24 Q314.715 1461.82 314.715 1470.57 Q314.715 1479.3 311.637 1483.91 Q308.581 1488.49 302.771 1488.49 Q296.961 1488.49 293.882 1483.91 Q290.827 1479.3 290.827 1470.57 Q290.827 1461.82 293.882 1457.24 Q296.961 1452.63 302.771 1452.63 Z" fill="#000000" fill-rule="evenodd" fill-opacity="1" /><path clip-path="url(#clip010)" d="M 0 0 M322.933 1481.94 L327.817 1481.94 L327.817 1487.82 L322.933 1487.82 L322.933 1481.94 Z" fill="#000000" fill-rule="evenodd" fill-opacity="1" /><path clip-path="url(#clip010)" d="M 0 0 M348.002 1456.34 Q344.391 1456.34 342.562 1459.9 Q340.757 1463.44 340.757 1470.57 Q340.757 1477.68 342.562 1481.25 Q344.391 1484.79 348.002 1484.79 Q351.637 1484.79 353.442 1481.25 Q355.271 1477.68 355.271 1470.57 Q355.271 1463.44 353.442 1459.9 Q351.637 1456.34 348.002 1456.34 M348.002 1452.63 Q353.812 1452.63 356.868 1457.24 Q359.947 1461.82 359.947 1470.57 Q359.947 1479.3 356.868 1483.91 Q353.812 1488.49 348.002 1488.49 Q342.192 1488.49 339.113 1483.91 Q336.058 1479.3 336.058 1470.57 Q336.058 1461.82 339.113 1457.24 Q342.192 1452.63 348.002 1452.63 Z" fill="#000000" fill-rule="evenodd" fill-opacity="1" /><path clip-path="url(#clip010)" d="M 0 0 M790.189 1483.88 L806.508 1483.88 L806.508 1487.82 L784.564 1487.82 L784.564 1483.88 Q787.226 1481.13 791.809 1476.5 Q796.416 1471.85 797.596 1470.51 Q799.842 1467.98 800.721 1466.25 Q801.624 1464.49 801.624 1462.8 Q801.624 1460.04 799.68 1458.31 Q797.758 1456.57 794.657 1456.57 Q792.457 1456.57 790.004 1457.33 Q787.573 1458.1 784.795 1459.65 L784.795 1454.93 Q787.62 1453.79 790.073 1453.21 Q792.527 1452.63 794.564 1452.63 Q799.934 1452.63 803.129 1455.32 Q806.323 1458.01 806.323 1462.5 Q806.323 1464.63 805.513 1466.55 Q804.726 1468.44 802.619 1471.04 Q802.041 1471.71 798.939 1474.93 Q795.837 1478.12 790.189 1483.88 Z" fill="#000000" fill-rule="evenodd" fill-opacity="1" /><path clip-path="url(#clip010)" d="M 0 0 M816.323 1481.94 L821.207 1481.94 L821.207 1487.82 L816.323 1487.82 L816.323 1481.94 Z" fill="#000000" fill-rule="evenodd" fill-opacity="1" /><path clip-path="url(#clip010)" d="M 0 0 M831.439 1453.26 L849.795 1453.26 L849.795 1457.19 L835.721 1457.19 L835.721 1465.67 Q836.74 1465.32 837.758 1465.16 Q838.777 1464.97 839.795 1464.97 Q845.582 1464.97 848.962 1468.14 Q852.341 1471.32 852.341 1476.73 Q852.341 1482.31 848.869 1485.41 Q845.397 1488.49 839.078 1488.49 Q836.902 1488.49 834.633 1488.12 Q832.388 1487.75 829.98 1487.01 L829.98 1482.31 Q832.064 1483.44 834.286 1484 Q836.508 1484.56 838.985 1484.56 Q842.99 1484.56 845.328 1482.45 Q847.666 1480.34 847.666 1476.73 Q847.666 1473.12 845.328 1471.01 Q842.99 1468.91 838.985 1468.91 Q837.11 1468.91 835.235 1469.32 Q833.383 1469.74 831.439 1470.62 L831.439 1453.26 Z" fill="#000000" fill-rule="evenodd" fill-opacity="1" /><path clip-path="url(#clip010)" d="M 0 0 M1278.68 1453.26 L1297.04 1453.26 L1297.04 1457.19 L1282.97 1457.19 L1282.97 1465.67 Q1283.98 1465.32 1285 1465.16 Q1286.02 1464.97 1287.04 1464.97 Q1292.83 1464.97 1296.21 1468.14 Q1299.59 1471.32 1299.59 1476.73 Q1299.59 1482.31 1296.11 1485.41 Q1292.64 1488.49 1286.32 1488.49 Q1284.15 1488.49 1281.88 1488.12 Q1279.63 1487.75 1277.22 1487.01 L1277.22 1482.31 Q1279.31 1483.44 1281.53 1484 Q1283.75 1484.56 1286.23 1484.56 Q1290.23 1484.56 1292.57 1482.45 Q1294.91 1480.34 1294.91 1476.73 Q1294.91 1473.12 1292.57 1471.01 Q1290.23 1468.91 1286.23 1468.91 Q1284.35 1468.91 1282.48 1469.32 Q1280.63 1469.74 1278.68 1470.62 L1278.68 1453.26 Z" fill="#000000" fill-rule="evenodd" fill-opacity="1" /><path clip-path="url(#clip010)" d="M 0 0 M1308.8 1481.94 L1313.68 1481.94 L1313.68 1487.82 L1308.8 1487.82 L1308.8 1481.94 Z" fill="#000000" fill-rule="evenodd" fill-opacity="1" /><path clip-path="url(#clip010)" d="M 0 0 M1333.87 1456.34 Q1330.26 1456.34 1328.43 1459.9 Q1326.62 1463.44 1326.62 1470.57 Q1326.62 1477.68 1328.43 1481.25 Q1330.26 1484.79 1333.87 1484.79 Q1337.5 1484.79 1339.31 1481.25 Q1341.14 1477.68 1341.14 1470.57 Q1341.14 1463.44 1339.31 1459.9 Q1337.5 1456.34 1333.87 1456.34 M1333.87 1452.63 Q1339.68 1452.63 1342.73 1457.24 Q1345.81 1461.82 1345.81 1470.57 Q1345.81 1479.3 1342.73 1483.91 Q1339.68 1488.49 1333.87 1488.49 Q1328.06 1488.49 1324.98 1483.91 Q1321.92 1479.3 1321.92 1470.57 Q1321.92 1461.82 1324.98 1457.24 Q1328.06 1452.63 1333.87 1452.63 Z" fill="#000000" fill-rule="evenodd" fill-opacity="1" /><path clip-path="url(#clip010)" d="M 0 0 M1770.9 1453.26 L1793.13 1453.26 L1793.13 1455.25 L1780.58 1487.82 L1775.7 1487.82 L1787.5 1457.19 L1770.9 1457.19 L1770.9 1453.26 Z" fill="#000000" fill-rule="evenodd" fill-opacity="1" /><path clip-path="url(#clip010)" d="M 0 0 M1802.25 1481.94 L1807.13 1481.94 L1807.13 1487.82 L1802.25 1487.82 L1802.25 1481.94 Z" fill="#000000" fill-rule="evenodd" fill-opacity="1" /><path clip-path="url(#clip010)" d="M 0 0 M1817.36 1453.26 L1835.72 1453.26 L1835.72 1457.19 L1821.64 1457.19 L1821.64 1465.67 Q1822.66 1465.32 1823.68 1465.16 Q1824.7 1464.97 1825.72 1464.97 Q1831.51 1464.97 1834.89 1468.14 Q1838.27 1471.32 1838.27 1476.73 Q1838.27 1482.31 1834.79 1485.41 Q1831.32 1488.49 1825 1488.49 Q1822.83 1488.49 1820.56 1488.12 Q1818.31 1487.75 1815.9 1487.01 L1815.9 1482.31 Q1817.99 1483.44 1820.21 1484 Q1822.43 1484.56 1824.91 1484.56 Q1828.91 1484.56 1831.25 1482.45 Q1833.59 1480.34 1833.59 1476.73 Q1833.59 1473.12 1831.25 1471.01 Q1828.91 1468.91 1824.91 1468.91 Q1823.03 1468.91 1821.16 1469.32 Q1819.31 1469.74 1817.36 1470.62 L1817.36 1453.26 Z" fill="#000000" fill-rule="evenodd" fill-opacity="1" /><path clip-path="url(#clip010)" d="M 0 0 M2249.72 1483.88 L2257.36 1483.88 L2257.36 1457.52 L2249.05 1459.19 L2249.05 1454.93 L2257.32 1453.26 L2261.99 1453.26 L2261.99 1483.88 L2269.63 1483.88 L2269.63 1487.82 L2249.72 1487.82 L2249.72 1483.88 Z" fill="#000000" fill-rule="evenodd" fill-opacity="1" /><path clip-path="url(#clip010)" d="M 0 0 M2289.07 1456.34 Q2285.46 1456.34 2283.63 1459.9 Q2281.83 1463.44 2281.83 1470.57 Q2281.83 1477.68 2283.63 1481.25 Q2285.46 1484.79 2289.07 1484.79 Q2292.71 1484.79 2294.51 1481.25 Q2296.34 1477.68 2296.34 1470.57 Q2296.34 1463.44 2294.51 1459.9 Q2292.71 1456.34 2289.07 1456.34 M2289.07 1452.63 Q2294.88 1452.63 2297.94 1457.24 Q2301.02 1461.82 2301.02 1470.57 Q2301.02 1479.3 2297.94 1483.91 Q2294.88 1488.49 2289.07 1488.49 Q2283.26 1488.49 2280.19 1483.91 Q2277.13 1479.3 2277.13 1470.57 Q2277.13 1461.82 2280.19 1457.24 Q2283.26 1452.63 2289.07 1452.63 Z" fill="#000000" fill-rule="evenodd" fill-opacity="1" /><path clip-path="url(#clip010)" d="M 0 0 M2309.24 1481.94 L2314.12 1481.94 L2314.12 1487.82 L2309.24 1487.82 L2309.24 1481.94 Z" fill="#000000" fill-rule="evenodd" fill-opacity="1" /><path clip-path="url(#clip010)" d="M 0 0 M2334.31 1456.34 Q2330.69 1456.34 2328.87 1459.9 Q2327.06 1463.44 2327.06 1470.57 Q2327.06 1477.68 2328.87 1481.25 Q2330.69 1484.79 2334.31 1484.79 Q2337.94 1484.79 2339.75 1481.25 Q2341.57 1477.68 2341.57 1470.57 Q2341.57 1463.44 2339.75 1459.9 Q2337.94 1456.34 2334.31 1456.34 M2334.31 1452.63 Q2340.12 1452.63 2343.17 1457.24 Q2346.25 1461.82 2346.25 1470.57 Q2346.25 1479.3 2343.17 1483.91 Q2340.12 1488.49 2334.31 1488.49 Q2328.5 1488.49 2325.42 1483.91 Q2322.36 1479.3 2322.36 1470.57 Q2322.36 1461.82 2325.42 1457.24 Q2328.5 1452.63 2334.31 1452.63 Z" fill="#000000" fill-rule="evenodd" fill-opacity="1" /><path clip-path="url(#clip010)" d="M 0 0 M1260.07 1530.6 Q1260.07 1532.85 1256.82 1532.85 L1245.74 1532.85 L1241.33 1555.43 Q1241.23 1556.01 1241.1 1556.33 Q1241.01 1556.65 1240.72 1557.2 Q1240.46 1557.71 1239.91 1557.97 Q1239.4 1558.26 1238.62 1558.26 Q1237.66 1558.26 1237.18 1557.68 Q1236.72 1557.13 1236.72 1556.46 Q1236.72 1556.04 1237.37 1554.04 L1243.84 1532.85 L1238.37 1532.85 Q1233.21 1532.85 1229.99 1537.94 Q1229.48 1538.61 1229.19 1538.68 Q1229.06 1538.71 1228.93 1538.71 Q1228.58 1538.71 1228.35 1538.55 Q1228.16 1538.39 1228.16 1538.23 L1228.13 1538.07 Q1228.13 1537.84 1228.64 1536.94 Q1229.19 1536.01 1230.15 1534.62 Q1231.15 1533.24 1232.15 1532.14 Q1233.47 1530.72 1234.95 1529.98 Q1236.43 1529.21 1237.18 1529.11 Q1237.95 1529.02 1238.95 1529.02 L1257.43 1529.02 Q1258.27 1529.02 1258.72 1529.08 Q1259.17 1529.11 1259.62 1529.5 Q1260.07 1529.85 1260.07 1530.6 Z" fill="#000000" fill-rule="evenodd" fill-opacity="1" /><path clip-path="url(#clip010)" d="M 0 0 M1278.37 1540.97 Q1278.37 1529.82 1282.52 1520.84 Q1284.29 1517.07 1286.77 1513.91 Q1289.25 1510.76 1290.89 1509.37 Q1292.54 1507.99 1292.99 1507.99 Q1293.63 1507.99 1293.66 1508.63 Q1293.66 1508.95 1292.79 1509.76 Q1282.17 1520.58 1282.2 1540.97 Q1282.2 1561.42 1292.54 1571.82 Q1293.66 1572.95 1293.66 1573.3 Q1293.66 1573.94 1292.99 1573.94 Q1292.54 1573.94 1290.96 1572.62 Q1289.38 1571.3 1286.93 1568.28 Q1284.48 1565.25 1282.71 1561.55 Q1278.37 1552.56 1278.37 1540.97 Z" fill="#000000" fill-rule="evenodd" fill-opacity="1" /><path clip-path="url(#clip010)" d="M 0 0 M1303.69 1557.45 L1303.69 1555.43 Q1307.2 1555.43 1308.01 1555.01 Q1308.81 1554.56 1308.81 1552.43 L1308.81 1534.75 Q1308.81 1532.3 1307.94 1531.69 Q1307.11 1531.08 1303.69 1531.08 L1303.69 1529.02 L1312.97 1528.31 L1312.97 1535.23 Q1316.06 1528.31 1322.73 1528.31 Q1327.69 1528.31 1329.65 1530.76 Q1331.1 1532.4 1331.39 1534.23 Q1331.71 1536.07 1331.71 1540.84 L1331.71 1553.43 Q1331.78 1554.81 1332.84 1555.14 Q1333.9 1555.43 1336.87 1555.43 L1336.87 1557.45 Q1330.13 1557.26 1329.46 1557.26 Q1328.94 1557.26 1322.02 1557.45 L1322.02 1555.43 Q1325.53 1555.43 1326.33 1555.01 Q1327.17 1554.56 1327.17 1552.43 L1327.17 1537.07 Q1327.17 1533.72 1326.14 1531.75 Q1325.11 1529.76 1322.28 1529.76 Q1318.86 1529.76 1316.12 1532.62 Q1313.39 1535.49 1313.39 1540.32 L1313.39 1552.43 Q1313.39 1554.56 1314.19 1555.01 Q1315.03 1555.43 1318.51 1555.43 L1318.51 1557.45 Q1311.78 1557.26 1311.13 1557.26 Q1310.62 1557.26 1303.69 1557.45 Z" fill="#000000" fill-rule="evenodd" fill-opacity="1" /><path clip-path="url(#clip010)" d="M 0 0 M1339.93 1556.59 L1339.93 1547.89 Q1339.93 1547.15 1339.96 1546.89 Q1339.99 1546.63 1340.19 1546.44 Q1340.38 1546.25 1340.77 1546.25 Q1341.22 1546.25 1341.38 1546.44 Q1341.57 1546.63 1341.7 1547.37 Q1342.7 1551.92 1344.83 1554.33 Q1346.98 1556.71 1350.88 1556.71 Q1354.58 1556.71 1356.45 1555.07 Q1358.32 1553.43 1358.32 1550.72 Q1358.32 1545.89 1351.46 1544.67 Q1347.5 1543.86 1345.86 1543.35 Q1344.21 1542.8 1342.76 1541.61 Q1339.93 1539.29 1339.93 1536.01 Q1339.93 1532.72 1342.41 1530.31 Q1344.92 1527.89 1350.46 1527.89 Q1354.16 1527.89 1356.68 1529.76 Q1357.42 1529.18 1357.8 1528.7 Q1358.67 1527.89 1359.12 1527.89 Q1359.64 1527.89 1359.74 1528.24 Q1359.83 1528.57 1359.83 1529.5 L1359.83 1536.13 Q1359.83 1536.88 1359.8 1537.13 Q1359.77 1537.39 1359.58 1537.58 Q1359.38 1537.74 1358.96 1537.74 Q1358.22 1537.74 1358.19 1537.13 Q1357.68 1529.15 1350.46 1529.15 Q1346.56 1529.15 1344.83 1530.66 Q1343.09 1532.14 1343.09 1534.17 Q1343.09 1535.3 1343.6 1536.17 Q1344.15 1537 1344.83 1537.52 Q1345.53 1538 1346.82 1538.49 Q1348.11 1538.94 1348.88 1539.1 Q1349.69 1539.26 1351.2 1539.58 Q1356.48 1540.58 1358.71 1542.74 Q1361.48 1545.51 1361.48 1549.02 Q1361.48 1552.91 1358.83 1555.55 Q1356.19 1558.2 1350.88 1558.2 Q1346.6 1558.2 1343.6 1555.33 Q1343.21 1555.72 1342.92 1556.07 Q1342.64 1556.39 1342.51 1556.52 Q1342.41 1556.65 1342.38 1556.75 Q1342.35 1556.81 1342.28 1556.88 Q1340.96 1558.2 1340.64 1558.2 Q1340.12 1558.2 1340.03 1557.84 Q1339.93 1557.52 1339.93 1556.59 Z" fill="#000000" fill-rule="evenodd" fill-opacity="1" /><path clip-path="url(#clip010)" d="M 0 0 M1365.64 1573.3 Q1365.64 1572.98 1366.48 1572.17 Q1377.11 1561.35 1377.11 1540.97 Q1377.11 1520.51 1366.9 1510.18 Q1365.64 1508.99 1365.64 1508.63 Q1365.64 1507.99 1366.28 1507.99 Q1366.73 1507.99 1368.31 1509.31 Q1369.92 1510.63 1372.34 1513.65 Q1374.79 1516.68 1376.59 1520.39 Q1380.94 1529.37 1380.94 1540.97 Q1380.94 1552.11 1376.78 1561.09 Q1375.01 1564.86 1372.53 1568.02 Q1370.05 1571.17 1368.41 1572.56 Q1366.77 1573.94 1366.28 1573.94 Q1365.64 1573.94 1365.64 1573.3 Z" fill="#000000" fill-rule="evenodd" fill-opacity="1" /><polyline clip-path="url(#clip013)" style="stroke:#000000; stroke-width:2; stroke-opacity:0.1; fill:none" points="
  266.337,1287.53 2352.76,1287.53 
  "/>
<polyline clip-path="url(#clip013)" style="stroke:#000000; stroke-width:2; stroke-opacity:0.1; fill:none" points="
  266.337,972.406 2352.76,972.406 
  "/>
<polyline clip-path="url(#clip013)" style="stroke:#000000; stroke-width:2; stroke-opacity:0.1; fill:none" points="
  266.337,657.282 2352.76,657.282 
  "/>
<polyline clip-path="url(#clip013)" style="stroke:#000000; stroke-width:2; stroke-opacity:0.1; fill:none" points="
  266.337,342.159 2352.76,342.159 
  "/>
<polyline clip-path="url(#clip010)" style="stroke:#000000; stroke-width:4; stroke-opacity:1; fill:none" points="
  266.337,1427.15 266.337,123.472 
  "/>
<polyline clip-path="url(#clip010)" style="stroke:#000000; stroke-width:4; stroke-opacity:1; fill:none" points="
  266.337,1287.53 291.374,1287.53 
  "/>
<polyline clip-path="url(#clip010)" style="stroke:#000000; stroke-width:4; stroke-opacity:1; fill:none" points="
  266.337,972.406 291.374,972.406 
  "/>
<polyline clip-path="url(#clip010)" style="stroke:#000000; stroke-width:4; stroke-opacity:1; fill:none" points="
  266.337,657.282 291.374,657.282 
  "/>
<polyline clip-path="url(#clip010)" style="stroke:#000000; stroke-width:4; stroke-opacity:1; fill:none" points="
  266.337,342.159 291.374,342.159 
  "/>
<path clip-path="url(#clip010)" d="M 0 0 M182.259 1300.87 L198.578 1300.87 L198.578 1304.81 L176.634 1304.81 L176.634 1300.87 Q179.296 1298.12 183.879 1293.49 Q188.485 1288.84 189.666 1287.5 Q191.911 1284.97 192.791 1283.24 Q193.694 1281.48 193.694 1279.79 Q193.694 1277.03 191.749 1275.3 Q189.828 1273.56 186.726 1273.56 Q184.527 1273.56 182.073 1274.32 Q179.643 1275.09 176.865 1276.64 L176.865 1271.92 Q179.689 1270.78 182.143 1270.2 Q184.597 1269.63 186.634 1269.63 Q192.004 1269.63 195.198 1272.31 Q198.393 1275 198.393 1279.49 Q198.393 1281.62 197.583 1283.54 Q196.796 1285.44 194.689 1288.03 Q194.11 1288.7 191.009 1291.92 Q187.907 1295.11 182.259 1300.87 Z" fill="#000000" fill-rule="evenodd" fill-opacity="1" /><path clip-path="url(#clip010)" d="M 0 0 M218.393 1273.33 Q214.782 1273.33 212.953 1276.89 Q211.147 1280.44 211.147 1287.56 Q211.147 1294.67 212.953 1298.24 Q214.782 1301.78 218.393 1301.78 Q222.027 1301.78 223.832 1298.24 Q225.661 1294.67 225.661 1287.56 Q225.661 1280.44 223.832 1276.89 Q222.027 1273.33 218.393 1273.33 M218.393 1269.63 Q224.203 1269.63 227.258 1274.23 Q230.337 1278.81 230.337 1287.56 Q230.337 1296.29 227.258 1300.9 Q224.203 1305.48 218.393 1305.48 Q212.583 1305.48 209.504 1300.9 Q206.448 1296.29 206.448 1287.56 Q206.448 1278.81 209.504 1274.23 Q212.583 1269.63 218.393 1269.63 Z" fill="#000000" fill-rule="evenodd" fill-opacity="1" /><path clip-path="url(#clip010)" d="M 0 0 M183.254 985.751 L199.573 985.751 L199.573 989.686 L177.629 989.686 L177.629 985.751 Q180.291 982.996 184.874 978.367 Q189.481 973.714 190.661 972.372 Q192.907 969.848 193.786 968.112 Q194.689 966.353 194.689 964.663 Q194.689 961.909 192.745 960.173 Q190.823 958.436 187.722 958.436 Q185.522 958.436 183.069 959.2 Q180.638 959.964 177.86 961.515 L177.86 956.793 Q180.685 955.659 183.138 955.08 Q185.592 954.501 187.629 954.501 Q192.999 954.501 196.194 957.186 Q199.388 959.872 199.388 964.362 Q199.388 966.492 198.578 968.413 Q197.791 970.311 195.684 972.904 Q195.106 973.575 192.004 976.793 Q188.902 979.987 183.254 985.751 Z" fill="#000000" fill-rule="evenodd" fill-opacity="1" /><path clip-path="url(#clip010)" d="M 0 0 M209.434 955.126 L227.791 955.126 L227.791 959.061 L213.717 959.061 L213.717 967.534 Q214.735 967.186 215.754 967.024 Q216.772 966.839 217.791 966.839 Q223.578 966.839 226.957 970.01 Q230.337 973.182 230.337 978.598 Q230.337 984.177 226.865 987.279 Q223.393 990.358 217.073 990.358 Q214.897 990.358 212.629 989.987 Q210.383 989.617 207.976 988.876 L207.976 984.177 Q210.059 985.311 212.282 985.867 Q214.504 986.422 216.981 986.422 Q220.985 986.422 223.323 984.316 Q225.661 982.209 225.661 978.598 Q225.661 974.987 223.323 972.881 Q220.985 970.774 216.981 970.774 Q215.106 970.774 213.231 971.191 Q211.379 971.608 209.434 972.487 L209.434 955.126 Z" fill="#000000" fill-rule="evenodd" fill-opacity="1" /><path clip-path="url(#clip010)" d="M 0 0 M192.397 655.928 Q195.754 656.646 197.629 658.914 Q199.527 661.183 199.527 664.516 Q199.527 669.632 196.009 672.433 Q192.49 675.234 186.009 675.234 Q183.833 675.234 181.518 674.794 Q179.226 674.377 176.773 673.521 L176.773 669.007 Q178.717 670.141 181.032 670.72 Q183.347 671.299 185.87 671.299 Q190.268 671.299 192.559 669.562 Q194.874 667.826 194.874 664.516 Q194.874 661.461 192.722 659.748 Q190.592 658.012 186.772 658.012 L182.745 658.012 L182.745 654.169 L186.958 654.169 Q190.407 654.169 192.235 652.803 Q194.064 651.414 194.064 648.822 Q194.064 646.16 192.166 644.748 Q190.291 643.313 186.772 643.313 Q184.851 643.313 182.652 643.729 Q180.453 644.146 177.814 645.026 L177.814 640.859 Q180.476 640.118 182.791 639.748 Q185.129 639.377 187.189 639.377 Q192.513 639.377 195.615 641.808 Q198.717 644.215 198.717 648.336 Q198.717 651.206 197.073 653.197 Q195.43 655.164 192.397 655.928 Z" fill="#000000" fill-rule="evenodd" fill-opacity="1" /><path clip-path="url(#clip010)" d="M 0 0 M218.393 643.081 Q214.782 643.081 212.953 646.646 Q211.147 650.188 211.147 657.317 Q211.147 664.424 212.953 667.988 Q214.782 671.53 218.393 671.53 Q222.027 671.53 223.832 667.988 Q225.661 664.424 225.661 657.317 Q225.661 650.188 223.832 646.646 Q222.027 643.081 218.393 643.081 M218.393 639.377 Q224.203 639.377 227.258 643.984 Q230.337 648.567 230.337 657.317 Q230.337 666.044 227.258 670.65 Q224.203 675.234 218.393 675.234 Q212.583 675.234 209.504 670.65 Q206.448 666.044 206.448 657.317 Q206.448 648.567 209.504 643.984 Q212.583 639.377 218.393 639.377 Z" fill="#000000" fill-rule="evenodd" fill-opacity="1" /><path clip-path="url(#clip010)" d="M 0 0 M193.393 340.804 Q196.749 341.522 198.624 343.791 Q200.522 346.059 200.522 349.392 Q200.522 354.508 197.004 357.309 Q193.485 360.11 187.004 360.11 Q184.828 360.11 182.513 359.67 Q180.222 359.253 177.768 358.397 L177.768 353.883 Q179.712 355.017 182.027 355.596 Q184.342 356.175 186.865 356.175 Q191.263 356.175 193.555 354.439 Q195.87 352.703 195.87 349.392 Q195.87 346.337 193.717 344.624 Q191.587 342.888 187.768 342.888 L183.74 342.888 L183.74 339.045 L187.953 339.045 Q191.402 339.045 193.231 337.68 Q195.059 336.291 195.059 333.698 Q195.059 331.036 193.161 329.624 Q191.286 328.189 187.768 328.189 Q185.847 328.189 183.647 328.605 Q181.448 329.022 178.81 329.902 L178.81 325.735 Q181.472 324.994 183.786 324.624 Q186.124 324.254 188.185 324.254 Q193.509 324.254 196.61 326.684 Q199.712 329.092 199.712 333.212 Q199.712 336.082 198.069 338.073 Q196.425 340.041 193.393 340.804 Z" fill="#000000" fill-rule="evenodd" fill-opacity="1" /><path clip-path="url(#clip010)" d="M 0 0 M209.434 324.879 L227.791 324.879 L227.791 328.814 L213.717 328.814 L213.717 337.286 Q214.735 336.939 215.754 336.777 Q216.772 336.592 217.791 336.592 Q223.578 336.592 226.957 339.763 Q230.337 342.934 230.337 348.351 Q230.337 353.929 226.865 357.031 Q223.393 360.11 217.073 360.11 Q214.897 360.11 212.629 359.74 Q210.383 359.369 207.976 358.628 L207.976 353.929 Q210.059 355.064 212.282 355.619 Q214.504 356.175 216.981 356.175 Q220.985 356.175 223.323 354.068 Q225.661 351.962 225.661 348.351 Q225.661 344.74 223.323 342.633 Q220.985 340.527 216.981 340.527 Q215.106 340.527 213.231 340.943 Q211.379 341.36 209.434 342.24 L209.434 324.879 Z" fill="#000000" fill-rule="evenodd" fill-opacity="1" /><path clip-path="url(#clip010)" d="M 0 0 M94.6485 828.016 L111.073 833.684 L111.073 888.37 Q111.073 889.111 111.041 889.4 Q111.009 889.69 110.848 889.916 Q110.687 890.141 110.333 890.141 Q110.043 890.141 109.302 889.561 L80.3491 866.148 L47.2415 890.206 Q45.7278 890.206 45.4379 889.948 Q45.1159 889.69 45.1159 888.37 L45.1159 833.684 L60.5425 828.016 L60.5425 829.658 Q58.5457 830.399 56.871 831.591 Q55.1641 832.75 53.9403 834.103 Q52.7165 835.423 51.7503 837.162 Q50.7519 838.869 50.14 840.48 Q49.4959 842.058 49.045 844.022 Q48.5619 845.987 48.3365 847.565 Q48.0788 849.111 47.95 851.043 Q47.8212 852.976 47.789 854.199 Q47.7568 855.423 47.7568 856.969 L47.7568 883.088 L77.1607 861.671 Q77.9014 861.188 78.0947 861.188 Q78.3845 861.188 79.1575 861.8 L107.434 884.666 L107.434 856.647 Q107.434 847.629 105.534 841.349 Q104.085 837.098 101.218 834.006 Q98.3522 830.882 94.6485 829.658 L94.6485 828.016 Z" fill="#000000" fill-rule="evenodd" fill-opacity="1" /><path clip-path="url(#clip010)" d="M 0 0 M127.747 901.215 Q128.739 901.215 129.483 902.026 Q130.204 902.815 130.204 903.672 Q130.204 904.461 129.731 904.957 Q129.235 905.431 128.536 905.431 Q127.612 905.431 126.845 904.642 Q126.079 903.853 126.079 902.928 Q126.079 902.162 126.552 901.688 Q127.026 901.215 127.747 901.215 M149.998 900.809 Q150.179 900.809 150.9 901.012 Q151.599 901.215 152.681 901.711 Q153.741 902.184 154.732 902.838 Q155.724 903.492 156.423 904.574 Q157.122 905.633 157.122 906.851 Q157.122 908.497 156.04 909.579 Q154.958 910.638 153.335 910.638 Q152.455 910.638 149.637 909.579 Q141.431 906.513 141.093 906.4 Q139.808 905.881 138.681 905.881 Q138.163 905.881 137.847 905.994 Q137.509 906.107 137.396 906.332 Q137.261 906.558 137.238 906.693 Q137.216 906.806 137.216 907.031 Q137.216 908.361 138.568 909.601 Q139.921 910.841 142.942 911.698 Q143.505 911.878 143.641 911.991 Q143.776 912.104 143.776 912.442 Q143.753 913.005 143.303 913.005 Q143.167 913.005 142.649 912.848 Q142.108 912.69 141.296 912.397 Q140.462 912.104 139.605 911.585 Q138.726 911.067 137.96 910.435 Q137.193 909.782 136.697 908.857 Q136.201 907.933 136.201 906.896 Q136.201 905.205 137.306 904.168 Q138.388 903.109 139.989 903.109 Q140.868 903.109 142.423 903.717 Q144.452 904.461 145.106 904.732 L149.953 906.535 Q151.712 907.189 152.253 907.392 Q152.771 907.572 153.402 907.73 Q154.011 907.865 154.575 907.865 Q155.364 907.865 155.724 907.617 Q156.085 907.347 156.085 906.761 Q156.085 905.138 154.484 903.943 Q152.861 902.748 150.381 902.049 Q150.314 902.026 150.201 902.004 Q149.637 901.824 149.57 901.643 Q149.547 901.553 149.547 901.373 Q149.547 900.809 149.998 900.809 Z" fill="#000000" fill-rule="evenodd" fill-opacity="1" /><path clip-path="url(#clip010)" d="M 0 0 M149.592 884.429 Q149.029 884.384 149.029 883.505 L149.029 855.212 Q149.029 853.882 149.547 853.86 Q150.111 853.86 150.088 855.122 L150.088 883.189 Q150.111 884.429 149.592 884.429 M140.575 884.429 Q140.011 884.429 140.034 883.46 L140.034 855.257 Q140.034 853.882 140.575 853.86 Q141.093 853.86 141.093 855.032 L141.093 883.505 Q141.093 884.429 140.575 884.429 Z" fill="#000000" fill-rule="evenodd" fill-opacity="1" /><path clip-path="url(#clip010)" d="M 0 0 M130.25 836.048 L128.807 836.048 Q128.807 830.502 125.853 827.639 Q125.853 826.85 126.034 826.714 Q126.214 826.579 127.048 826.579 L152.951 826.579 Q154.327 826.579 154.755 825.903 Q155.183 825.226 155.183 822.273 L155.183 820.808 L156.604 820.808 Q156.468 822.431 156.468 828.292 Q156.468 834.154 156.604 835.754 L155.183 835.754 L155.183 834.289 Q155.183 831.381 154.778 830.682 Q154.349 829.983 152.951 829.983 L129.032 829.983 Q130.25 832.395 130.25 836.048 Z" fill="#000000" fill-rule="evenodd" fill-opacity="1" /><path clip-path="url(#clip010)" d="M 0 0 M-3.61568 884.121 L-5.05851 884.121 Q-5.05851 878.576 -8.01178 875.712 Q-8.01178 874.923 -7.83143 874.788 Q-7.65108 874.653 -6.81695 874.653 L19.0862 874.653 Q20.4614 874.653 20.8898 873.977 Q21.3181 873.3 21.3181 870.347 L21.3181 868.882 L22.7384 868.882 Q22.6031 870.505 22.6031 876.366 Q22.6031 882.228 22.7384 883.828 L21.3181 883.828 L21.3181 882.363 Q21.3181 879.455 20.9123 878.756 Q20.484 878.057 19.0862 878.057 L-4.83306 878.057 Q-3.61568 880.469 -3.61568 884.121 Z" fill="#000000" fill-rule="evenodd" fill-opacity="1" /><path clip-path="url(#clip010)" d="M 0 0 M7.97199 864.932 Q1.18621 864.932 -2.51102 863.218 Q-8.01178 860.829 -8.01178 855.192 Q-8.01178 853.998 -7.67362 852.758 Q-7.358 851.495 -6.11808 849.917 Q-4.87815 848.317 -2.84918 847.347 Q1.07349 845.499 7.97199 845.499 Q14.7127 845.499 18.3874 847.212 Q23.7529 849.714 23.7529 855.238 Q23.7529 857.312 22.6933 859.431 Q21.6337 861.527 19.0862 862.857 Q15.2763 864.932 7.97199 864.932 M7.40838 861.099 Q14.3745 861.099 17.1474 860.603 Q20.1458 860.039 21.4534 858.506 Q22.7384 856.951 22.7384 855.238 Q22.7384 853.389 21.3632 851.856 Q19.9654 850.3 16.9671 849.827 Q14.0138 849.308 7.40838 849.331 Q0.983314 849.331 -1.58671 849.782 Q-4.58508 850.391 -5.77992 852.014 Q-6.9973 853.614 -6.9973 855.238 Q-6.9973 855.846 -6.81695 856.5 Q-6.63659 857.131 -6.11808 858.056 Q-5.59956 858.98 -4.31455 859.701 Q-3.02954 860.4 -1.09074 860.738 Q1.41165 861.099 7.40838 861.099 Z" fill="#000000" fill-rule="evenodd" fill-opacity="1" /><path clip-path="url(#clip010)" d="M 0 0 M68.5295 768.829 Q68.5617 768.829 69.7212 769.022 L98.9963 776.365 Q100.542 776.752 102.088 777.847 Q103.666 778.91 105.019 780.616 Q106.404 782.291 107.241 784.868 Q108.111 787.412 108.111 790.343 Q108.111 795.013 107.112 797.074 Q106.146 799.103 104.085 799.103 Q102.281 799.103 101.251 797.975 Q100.252 796.848 100.252 795.56 Q100.252 794.336 100.961 793.692 Q101.669 793.048 102.571 793.048 Q103.57 793.048 104.568 793.724 Q105.598 794.401 105.985 795.753 Q106.661 793.595 106.661 790.471 Q106.661 783.869 99.6726 781.035 Q99.576 780.971 99.5438 780.971 L90.816 778.781 L90.7516 778.877 Q91.3957 779.425 92.1364 780.294 Q92.845 781.132 93.7145 782.935 Q94.5841 784.739 94.5841 786.51 Q94.5841 790.214 91.75 792.758 Q88.8836 795.27 84.1494 795.27 Q80.7034 795.27 77.2573 793.885 Q73.7791 792.468 71.2348 790.278 Q68.6584 788.056 67.0481 785.222 Q65.4378 782.356 65.4378 779.586 Q65.4378 777.654 66.5972 776.011 Q67.7244 774.369 69.5923 773.467 Q68.0464 773.306 67.4023 772.436 Q66.7582 771.534 66.7582 770.762 Q66.7582 769.892 67.2413 769.377 Q67.6922 768.829 68.5295 768.829 M72.5553 774.24 Q72.362 774.24 71.8467 774.369 Q71.2992 774.497 70.4297 774.884 Q69.5601 775.238 68.7872 775.786 Q68.0142 776.333 67.4667 777.331 Q66.887 778.298 66.887 779.521 Q66.887 781.518 68.5617 783.515 Q70.2042 785.512 72.7485 786.897 Q75.1961 788.185 79.9304 789.409 Q84.6647 790.6 87.0801 790.6 Q89.4633 790.6 91.2991 789.57 Q93.1348 788.539 93.1348 786.317 Q93.1348 783.74 90.7516 780.971 Q88.2717 778.104 86.1461 777.621 L73.5536 774.433 Q72.7807 774.24 72.5553 774.24 Z" fill="#000000" fill-rule="evenodd" fill-opacity="1" /><path clip-path="url(#clip010)" d="M 0 0 M97.257 750.288 Q98.2489 750.288 98.9929 751.099 Q99.7143 751.888 99.7143 752.745 Q99.7143 753.534 99.2409 754.03 Q98.7449 754.503 98.046 754.503 Q97.1217 754.503 96.3552 753.714 Q95.5887 752.925 95.5887 752.001 Q95.5887 751.235 96.0622 750.761 Q96.5356 750.288 97.257 750.288 M119.508 749.882 Q119.688 749.882 120.41 750.085 Q121.109 750.288 122.191 750.784 Q123.25 751.257 124.242 751.911 Q125.234 752.565 125.933 753.647 Q126.632 754.706 126.632 755.924 Q126.632 757.569 125.55 758.652 Q124.468 759.711 122.845 759.711 Q121.965 759.711 119.147 758.652 Q110.941 755.586 110.603 755.473 Q109.318 754.954 108.191 754.954 Q107.672 754.954 107.357 755.067 Q107.019 755.18 106.906 755.405 Q106.771 755.631 106.748 755.766 Q106.726 755.879 106.726 756.104 Q106.726 757.434 108.078 758.674 Q109.431 759.914 112.452 760.771 Q113.015 760.951 113.151 761.064 Q113.286 761.177 113.286 761.515 Q113.263 762.078 112.812 762.078 Q112.677 762.078 112.159 761.92 Q111.618 761.763 110.806 761.47 Q109.972 761.177 109.115 760.658 Q108.236 760.139 107.469 759.508 Q106.703 758.854 106.207 757.93 Q105.711 757.006 105.711 755.969 Q105.711 754.278 106.816 753.241 Q107.898 752.181 109.498 752.181 Q110.378 752.181 111.933 752.79 Q113.962 753.534 114.616 753.805 L119.463 755.608 Q121.221 756.262 121.762 756.465 Q122.281 756.645 122.912 756.803 Q123.521 756.938 124.084 756.938 Q124.874 756.938 125.234 756.69 Q125.595 756.42 125.595 755.834 Q125.595 754.21 123.994 753.016 Q122.371 751.821 119.891 751.122 Q119.824 751.099 119.711 751.077 Q119.147 750.896 119.08 750.716 Q119.057 750.626 119.057 750.446 Q119.057 749.882 119.508 749.882 Z" fill="#000000" fill-rule="evenodd" fill-opacity="1" /><path clip-path="url(#clip010)" d="M 0 0 M53.0268 762.078 Q45.2265 762.078 38.9367 759.17 Q36.2991 757.93 34.0898 756.194 Q31.8804 754.458 30.911 753.309 Q29.9416 752.159 29.9416 751.843 Q29.9416 751.392 30.3925 751.37 Q30.618 751.37 31.1816 751.979 Q38.7564 759.418 53.0268 759.396 Q67.3423 759.396 74.6241 752.159 Q75.4131 751.37 75.6611 751.37 Q76.112 751.37 76.112 751.843 Q76.112 752.159 75.1877 753.264 Q74.2634 754.368 72.1442 756.082 Q70.0251 757.795 67.4325 759.035 Q61.1427 762.078 53.0268 762.078 Z" fill="#000000" fill-rule="evenodd" fill-opacity="1" /><path clip-path="url(#clip010)" d="M 0 0 M64.5694 744.349 Q63.7353 744.349 63.4873 744.281 Q63.2393 744.191 62.856 743.831 L52.9817 734.971 Q47.526 730.124 42.7692 730.124 Q39.6807 730.124 37.4714 731.747 Q35.2621 733.348 35.2621 736.301 Q35.2621 738.33 36.502 740.043 Q37.7419 741.757 39.9512 742.546 Q39.9061 742.41 39.9061 741.937 Q39.9061 740.787 40.6276 740.156 Q41.349 739.502 42.3184 739.502 Q43.5583 739.502 44.167 740.314 Q44.7531 741.103 44.7531 741.892 Q44.7531 742.207 44.6855 742.636 Q44.6179 743.042 43.9866 743.695 Q43.3328 744.349 42.1831 744.349 Q38.9593 744.349 36.3893 741.914 Q33.8192 739.457 33.8192 735.715 Q33.8192 731.476 36.3442 728.703 Q38.8466 725.908 42.7692 725.908 Q44.1444 725.908 45.4069 726.336 Q46.6468 726.742 47.6162 727.306 Q48.5856 727.847 50.1412 729.335 Q51.6967 730.823 52.8014 732.017 Q53.906 733.212 56.2506 735.895 L61.0074 740.787 L61.0074 732.468 Q61.0074 728.41 60.6467 728.095 Q59.9929 727.644 56.5437 727.08 L56.5437 725.908 L64.5694 727.216 L64.5694 744.349 Z" fill="#000000" fill-rule="evenodd" fill-opacity="1" /><path clip-path="url(#clip010)" d="M 0 0 M75.6611 721.484 Q75.4356 721.484 74.872 720.898 Q67.2972 713.459 53.0268 713.459 Q38.7113 713.459 31.4746 720.605 Q30.6405 721.484 30.3925 721.484 Q29.9416 721.484 29.9416 721.033 Q29.9416 720.718 30.866 719.613 Q31.7903 718.486 33.9094 716.795 Q36.0286 715.082 38.6211 713.819 Q44.9109 710.776 53.0268 710.776 Q60.8271 710.776 67.1169 713.684 Q69.7545 714.924 71.9639 716.66 Q74.1732 718.396 75.1426 719.545 Q76.112 720.695 76.112 721.033 Q76.112 721.484 75.6611 721.484 Z" fill="#000000" fill-rule="evenodd" fill-opacity="1" /><path clip-path="url(#clip010)" d="M 0 0 M78.0947 696.715 Q66.9514 696.715 57.966 692.561 Q54.1979 690.789 51.0418 688.309 Q47.8856 685.829 46.5007 684.187 Q45.1159 682.544 45.1159 682.094 Q45.1159 681.449 45.76 681.417 Q46.082 681.417 46.8872 682.287 Q57.7084 692.915 78.0947 692.883 Q98.5454 692.883 108.948 682.544 Q110.075 681.417 110.429 681.417 Q111.073 681.417 111.073 682.094 Q111.073 682.544 109.753 684.123 Q108.433 685.701 105.405 688.148 Q102.378 690.596 98.6742 692.367 Q89.6888 696.715 78.0947 696.715 Z" fill="#000000" fill-rule="evenodd" fill-opacity="1" /><path clip-path="url(#clip010)" d="M 0 0 M67.7244 639.439 Q69.9788 639.439 69.9788 642.692 L69.9788 653.771 L92.5551 658.183 Q93.1348 658.28 93.4569 658.409 Q93.7789 658.505 94.3264 658.795 Q94.8417 659.053 95.0994 659.6 Q95.3892 660.116 95.3892 660.889 Q95.3892 661.855 94.8095 662.338 Q94.262 662.789 93.5857 662.789 Q93.167 662.789 91.1703 662.145 L69.9788 655.671 L69.9788 661.146 Q69.9788 666.299 75.0673 669.52 Q75.7436 670.035 75.8081 670.325 Q75.8403 670.454 75.8403 670.583 Q75.8403 670.937 75.6792 671.162 Q75.5182 671.355 75.3572 671.355 L75.1961 671.388 Q74.9707 671.388 74.0689 670.872 Q73.135 670.325 71.7501 669.359 Q70.3653 668.36 69.2703 667.362 Q67.8532 666.041 67.1125 664.56 Q66.3395 663.079 66.2429 662.338 Q66.1463 661.565 66.1463 660.566 L66.1463 642.08 Q66.1463 641.243 66.2107 640.792 Q66.2429 640.341 66.6294 639.89 Q66.9837 639.439 67.7244 639.439 Z" fill="#000000" fill-rule="evenodd" fill-opacity="1" /><path clip-path="url(#clip010)" d="M 0 0 M110.429 642.87 Q110.107 642.87 109.302 642.033 Q98.481 631.405 78.0947 631.405 Q57.644 631.405 47.3059 641.614 Q46.1143 642.87 45.76 642.87 Q45.1159 642.87 45.1159 642.226 Q45.1159 641.775 46.4363 640.197 Q47.7568 638.587 50.7841 636.172 Q53.8115 633.724 57.5151 631.92 Q66.5006 627.573 78.0947 627.573 Q89.2379 627.573 98.2233 631.727 Q101.991 633.499 105.148 635.978 Q108.304 638.458 109.689 640.101 Q111.073 641.743 111.073 642.226 Q111.073 642.87 110.429 642.87 Z" fill="#000000" fill-rule="evenodd" fill-opacity="1" /><path clip-path="url(#clip010)" d="M 0 0 M472.184 14.0809 L472.184 22.0612 Q467.526 19.8332 463.394 18.7395 Q459.262 17.6457 455.413 17.6457 Q448.729 17.6457 445.084 20.2383 Q441.478 22.8309 441.478 27.611 Q441.478 31.6214 443.868 33.6873 Q446.299 35.7128 453.023 36.9686 L457.965 37.9813 Q467.12 39.7232 471.455 44.1387 Q475.83 48.5136 475.83 55.8863 Q475.83 64.6767 469.916 69.2137 Q464.042 73.7508 452.659 73.7508 Q448.365 73.7508 443.504 72.7785 Q438.683 71.8063 433.498 69.9024 L433.498 61.4765 Q438.481 64.2716 443.261 65.6895 Q448.041 67.1073 452.659 67.1073 Q459.667 67.1073 463.475 64.3527 Q467.282 61.598 467.282 56.4939 Q467.282 52.0379 464.528 49.5264 Q461.814 47.0148 455.575 45.759 L450.593 44.7868 Q441.438 42.9639 437.346 39.075 Q433.255 35.1862 433.255 28.2591 Q433.255 20.2383 438.886 15.6203 Q444.557 11.0023 454.482 11.0023 Q458.735 11.0023 463.151 11.7719 Q467.566 12.5416 472.184 14.0809 Z" fill="#000000" fill-rule="evenodd" fill-opacity="1" /><path clip-path="url(#clip010)" d="M 0 0 M487.496 54.671 L487.496 27.2059 L494.95 27.2059 L494.95 54.3874 Q494.95 60.8284 497.462 64.0691 Q499.973 67.2693 504.996 67.2693 Q511.032 67.2693 514.516 63.421 Q518.04 59.5726 518.04 52.9291 L518.04 27.2059 L525.494 27.2059 L525.494 72.576 L518.04 72.576 L518.04 65.6084 Q515.326 69.7404 511.721 71.7658 Q508.156 73.7508 503.417 73.7508 Q495.598 73.7508 491.547 68.8897 Q487.496 64.0286 487.496 54.671 M506.252 26.1121 L506.252 26.1121 Z" fill="#000000" fill-rule="evenodd" fill-opacity="1" /><path clip-path="url(#clip010)" d="M 0 0 M576.171 35.9153 Q578.966 30.8922 582.855 28.5022 Q586.744 26.1121 592.01 26.1121 Q599.099 26.1121 602.947 31.0947 Q606.796 36.0368 606.796 45.1919 L606.796 72.576 L599.301 72.576 L599.301 45.4349 Q599.301 38.913 596.992 35.7533 Q594.683 32.5936 589.944 32.5936 Q584.151 32.5936 580.789 36.4419 Q577.427 40.2903 577.427 46.9338 L577.427 72.576 L569.932 72.576 L569.932 45.4349 Q569.932 38.8725 567.623 35.7533 Q565.314 32.5936 560.494 32.5936 Q554.782 32.5936 551.42 36.4824 Q548.058 40.3308 548.058 46.9338 L548.058 72.576 L540.563 72.576 L540.563 27.2059 L548.058 27.2059 L548.058 34.2544 Q550.61 30.082 554.174 28.0971 Q557.739 26.1121 562.641 26.1121 Q567.583 26.1121 571.026 28.6237 Q574.51 31.1352 576.171 35.9153 Z" fill="#000000" fill-rule="evenodd" fill-opacity="1" /><path clip-path="url(#clip010)" d="M 0 0 M665.615 32.4315 Q659.619 32.4315 656.136 37.1306 Q652.652 41.7891 652.652 49.9314 Q652.652 58.0738 656.095 62.7728 Q659.579 67.4314 665.615 67.4314 Q671.57 67.4314 675.053 62.7323 Q678.537 58.0333 678.537 49.9314 Q678.537 41.8701 675.053 37.1711 Q671.57 32.4315 665.615 32.4315 M665.615 26.1121 Q675.337 26.1121 680.887 32.4315 Q686.436 38.7509 686.436 49.9314 Q686.436 61.0714 680.887 67.4314 Q675.337 73.7508 665.615 73.7508 Q655.852 73.7508 650.302 67.4314 Q644.793 61.0714 644.793 49.9314 Q644.793 38.7509 650.302 32.4315 Q655.852 26.1121 665.615 26.1121 Z" fill="#000000" fill-rule="evenodd" fill-opacity="1" /><path clip-path="url(#clip010)" d="M 0 0 M721.76 9.54393 L721.76 15.7418 L714.631 15.7418 Q710.62 15.7418 709.04 17.3622 Q707.501 18.9825 707.501 23.1955 L707.501 27.2059 L719.775 27.2059 L719.775 32.9987 L707.501 32.9987 L707.501 72.576 L700.007 72.576 L700.007 32.9987 L692.877 32.9987 L692.877 27.2059 L700.007 27.2059 L700.007 24.0462 Q700.007 16.471 703.531 13.0277 Q707.055 9.54393 714.712 9.54393 L721.76 9.54393 Z" fill="#000000" fill-rule="evenodd" fill-opacity="1" /><path clip-path="url(#clip010)" d="M 0 0 M762.877 18.8205 L762.877 41.5461 L773.166 41.5461 Q778.878 41.5461 781.997 38.5889 Q785.116 35.6318 785.116 30.163 Q785.116 24.7348 781.997 21.7777 Q778.878 18.8205 773.166 18.8205 L762.877 18.8205 M754.694 12.096 L773.166 12.096 Q783.334 12.096 788.519 16.714 Q793.745 21.2916 793.745 30.163 Q793.745 39.1155 788.519 43.6931 Q783.334 48.2706 773.166 48.2706 L762.877 48.2706 L762.877 72.576 L754.694 72.576 L754.694 12.096 Z" fill="#000000" fill-rule="evenodd" fill-opacity="1" /><path clip-path="url(#clip010)" d="M 0 0 M842.113 45.1919 L842.113 72.576 L834.659 72.576 L834.659 45.4349 Q834.659 38.994 832.147 35.7938 Q829.636 32.5936 824.613 32.5936 Q818.577 32.5936 815.093 36.4419 Q811.609 40.2903 811.609 46.9338 L811.609 72.576 L804.115 72.576 L804.115 9.54393 L811.609 9.54393 L811.609 34.2544 Q814.283 30.163 817.888 28.1376 Q821.534 26.1121 826.274 26.1121 Q834.092 26.1121 838.102 30.9732 Q842.113 35.7938 842.113 45.1919 Z" fill="#000000" fill-rule="evenodd" fill-opacity="1" /><path clip-path="url(#clip010)" d="M 0 0 M874.56 32.4315 Q868.565 32.4315 865.081 37.1306 Q861.597 41.7891 861.597 49.9314 Q861.597 58.0738 865.041 62.7728 Q868.525 67.4314 874.56 67.4314 Q880.515 67.4314 883.999 62.7323 Q887.483 58.0333 887.483 49.9314 Q887.483 41.8701 883.999 37.1711 Q880.515 32.4315 874.56 32.4315 M874.56 26.1121 Q884.283 26.1121 889.832 32.4315 Q895.382 38.7509 895.382 49.9314 Q895.382 61.0714 889.832 67.4314 Q884.283 73.7508 874.56 73.7508 Q864.798 73.7508 859.248 67.4314 Q853.739 61.0714 853.739 49.9314 Q853.739 38.7509 859.248 32.4315 Q864.798 26.1121 874.56 26.1121 Z" fill="#000000" fill-rule="evenodd" fill-opacity="1" /><path clip-path="url(#clip010)" d="M 0 0 M915.11 14.324 L915.11 27.2059 L930.463 27.2059 L930.463 32.9987 L915.11 32.9987 L915.11 57.6282 Q915.11 63.1779 916.609 64.7578 Q918.148 66.3376 922.807 66.3376 L930.463 66.3376 L930.463 72.576 L922.807 72.576 Q914.178 72.576 910.897 69.3758 Q907.616 66.1351 907.616 57.6282 L907.616 32.9987 L902.147 32.9987 L902.147 27.2059 L907.616 27.2059 L907.616 14.324 L915.11 14.324 Z" fill="#000000" fill-rule="evenodd" fill-opacity="1" /><path clip-path="url(#clip010)" d="M 0 0 M957.847 32.4315 Q951.852 32.4315 948.368 37.1306 Q944.884 41.7891 944.884 49.9314 Q944.884 58.0738 948.327 62.7728 Q951.811 67.4314 957.847 67.4314 Q963.802 67.4314 967.286 62.7323 Q970.769 58.0333 970.769 49.9314 Q970.769 41.8701 967.286 37.1711 Q963.802 32.4315 957.847 32.4315 M957.847 26.1121 Q967.569 26.1121 973.119 32.4315 Q978.669 38.7509 978.669 49.9314 Q978.669 61.0714 973.119 67.4314 Q967.569 73.7508 957.847 73.7508 Q948.084 73.7508 942.535 67.4314 Q937.025 61.0714 937.025 49.9314 Q937.025 38.7509 942.535 32.4315 Q948.084 26.1121 957.847 26.1121 Z" fill="#000000" fill-rule="evenodd" fill-opacity="1" /><path clip-path="url(#clip010)" d="M 0 0 M1028.74 45.1919 L1028.74 72.576 L1021.28 72.576 L1021.28 45.4349 Q1021.28 38.994 1018.77 35.7938 Q1016.26 32.5936 1011.24 32.5936 Q1005.2 32.5936 1001.72 36.4419 Q998.234 40.2903 998.234 46.9338 L998.234 72.576 L990.74 72.576 L990.74 27.2059 L998.234 27.2059 L998.234 34.2544 Q1000.91 30.163 1004.51 28.1376 Q1008.16 26.1121 1012.9 26.1121 Q1020.72 26.1121 1024.73 30.9732 Q1028.74 35.7938 1028.74 45.1919 Z" fill="#000000" fill-rule="evenodd" fill-opacity="1" /><path clip-path="url(#clip010)" d="M 0 0 M1115.59 16.7545 L1115.59 25.383 Q1111.46 21.5346 1106.76 19.6307 Q1102.1 17.7268 1096.83 17.7268 Q1086.46 17.7268 1080.95 24.0867 Q1075.44 30.4061 1075.44 42.3968 Q1075.44 54.3469 1080.95 60.7069 Q1086.46 67.0263 1096.83 67.0263 Q1102.1 67.0263 1106.76 65.1223 Q1111.46 63.2184 1115.59 59.3701 L1115.59 67.9175 Q1111.3 70.8341 1106.47 72.2924 Q1101.69 73.7508 1096.35 73.7508 Q1082.61 73.7508 1074.72 65.3654 Q1066.82 56.9395 1066.82 42.3968 Q1066.82 27.8135 1074.72 19.4281 Q1082.61 11.0023 1096.35 11.0023 Q1101.78 11.0023 1106.56 12.4606 Q1111.38 13.8784 1115.59 16.7545 Z" fill="#000000" fill-rule="evenodd" fill-opacity="1" /><path clip-path="url(#clip010)" d="M 0 0 M1145.48 32.4315 Q1139.49 32.4315 1136.01 37.1306 Q1132.52 41.7891 1132.52 49.9314 Q1132.52 58.0738 1135.97 62.7728 Q1139.45 67.4314 1145.48 67.4314 Q1151.44 67.4314 1154.92 62.7323 Q1158.41 58.0333 1158.41 49.9314 Q1158.41 41.8701 1154.92 37.1711 Q1151.44 32.4315 1145.48 32.4315 M1145.48 26.1121 Q1155.21 26.1121 1160.76 32.4315 Q1166.31 38.7509 1166.31 49.9314 Q1166.31 61.0714 1160.76 67.4314 Q1155.21 73.7508 1145.48 73.7508 Q1135.72 73.7508 1130.17 67.4314 Q1124.66 61.0714 1124.66 49.9314 Q1124.66 38.7509 1130.17 32.4315 Q1135.72 26.1121 1145.48 26.1121 Z" fill="#000000" fill-rule="evenodd" fill-opacity="1" /><path clip-path="url(#clip010)" d="M 0 0 M1204.95 34.1734 Q1203.7 33.4443 1202.2 33.1202 Q1200.74 32.7556 1198.96 32.7556 Q1192.64 32.7556 1189.23 36.8875 Q1185.87 40.9789 1185.87 48.6757 L1185.87 72.576 L1178.38 72.576 L1178.38 27.2059 L1185.87 27.2059 L1185.87 34.2544 Q1188.22 30.1225 1191.99 28.1376 Q1195.76 26.1121 1201.14 26.1121 Q1201.91 26.1121 1202.85 26.2337 Q1203.78 26.3147 1204.91 26.5172 L1204.95 34.1734 Z" fill="#000000" fill-rule="evenodd" fill-opacity="1" /><path clip-path="url(#clip010)" d="M 0 0 M1237.6 34.1734 Q1236.35 33.4443 1234.85 33.1202 Q1233.39 32.7556 1231.61 32.7556 Q1225.29 32.7556 1221.88 36.8875 Q1218.52 40.9789 1218.52 48.6757 L1218.52 72.576 L1211.03 72.576 L1211.03 27.2059 L1218.52 27.2059 L1218.52 34.2544 Q1220.87 30.1225 1224.64 28.1376 Q1228.41 26.1121 1233.79 26.1121 Q1234.56 26.1121 1235.5 26.2337 Q1236.43 26.3147 1237.56 26.5172 L1237.6 34.1734 Z" fill="#000000" fill-rule="evenodd" fill-opacity="1" /><path clip-path="url(#clip010)" d="M 0 0 M1282.41 48.0275 L1282.41 51.6733 L1248.13 51.6733 Q1248.62 59.3701 1252.75 63.421 Q1256.93 67.4314 1264.34 67.4314 Q1268.63 67.4314 1272.64 66.3781 Q1276.69 65.3249 1280.66 63.2184 L1280.66 70.267 Q1276.65 71.9684 1272.44 72.8596 Q1268.23 73.7508 1263.89 73.7508 Q1253.04 73.7508 1246.68 67.4314 Q1240.36 61.1119 1240.36 50.3365 Q1240.36 39.1965 1246.35 32.6746 Q1252.39 26.1121 1262.6 26.1121 Q1271.75 26.1121 1277.06 32.0264 Q1282.41 37.9003 1282.41 48.0275 M1274.95 45.84 Q1274.87 39.7232 1271.51 36.0774 Q1268.19 32.4315 1262.68 32.4315 Q1256.44 32.4315 1252.67 35.9558 Q1248.94 39.4801 1248.38 45.8805 L1274.95 45.84 Z" fill="#000000" fill-rule="evenodd" fill-opacity="1" /><path clip-path="url(#clip010)" d="M 0 0 M1294.64 9.54393 L1302.09 9.54393 L1302.09 72.576 L1294.64 72.576 L1294.64 9.54393 Z" fill="#000000" fill-rule="evenodd" fill-opacity="1" /><path clip-path="url(#clip010)" d="M 0 0 M1338.31 49.7694 Q1329.27 49.7694 1325.79 51.8354 Q1322.31 53.9013 1322.31 58.8839 Q1322.31 62.8538 1324.9 65.2034 Q1327.53 67.5124 1332.03 67.5124 Q1338.23 67.5124 1341.95 63.1374 Q1345.72 58.7219 1345.72 51.4303 L1345.72 49.7694 L1338.31 49.7694 M1353.17 46.6907 L1353.17 72.576 L1345.72 72.576 L1345.72 65.6895 Q1343.17 69.8214 1339.36 71.8063 Q1335.55 73.7508 1330.04 73.7508 Q1323.08 73.7508 1318.94 69.8619 Q1314.85 65.9325 1314.85 59.3701 Q1314.85 51.7138 1319.96 47.825 Q1325.1 43.9361 1335.27 43.9361 L1345.72 43.9361 L1345.72 43.2069 Q1345.72 38.0623 1342.32 35.2672 Q1338.96 32.4315 1332.84 32.4315 Q1328.95 32.4315 1325.26 33.3632 Q1321.58 34.295 1318.17 36.1584 L1318.17 29.2718 Q1322.27 27.692 1326.11 26.9223 Q1329.96 26.1121 1333.61 26.1121 Q1343.45 26.1121 1348.31 31.2163 Q1353.17 36.3204 1353.17 46.6907 Z" fill="#000000" fill-rule="evenodd" fill-opacity="1" /><path clip-path="url(#clip010)" d="M 0 0 M1375.9 14.324 L1375.9 27.2059 L1391.25 27.2059 L1391.25 32.9987 L1375.9 32.9987 L1375.9 57.6282 Q1375.9 63.1779 1377.4 64.7578 Q1378.94 66.3376 1383.6 66.3376 L1391.25 66.3376 L1391.25 72.576 L1383.6 72.576 Q1374.97 72.576 1371.69 69.3758 Q1368.41 66.1351 1368.41 57.6282 L1368.41 32.9987 L1362.94 32.9987 L1362.94 27.2059 L1368.41 27.2059 L1368.41 14.324 L1375.9 14.324 Z" fill="#000000" fill-rule="evenodd" fill-opacity="1" /><path clip-path="url(#clip010)" d="M 0 0 M1401.06 27.2059 L1408.51 27.2059 L1408.51 72.576 L1401.06 72.576 L1401.06 27.2059 M1401.06 9.54393 L1408.51 9.54393 L1408.51 18.9825 L1401.06 18.9825 L1401.06 9.54393 Z" fill="#000000" fill-rule="evenodd" fill-opacity="1" /><path clip-path="url(#clip010)" d="M 0 0 M1441.69 32.4315 Q1435.69 32.4315 1432.21 37.1306 Q1428.72 41.7891 1428.72 49.9314 Q1428.72 58.0738 1432.17 62.7728 Q1435.65 67.4314 1441.69 67.4314 Q1447.64 67.4314 1451.13 62.7323 Q1454.61 58.0333 1454.61 49.9314 Q1454.61 41.8701 1451.13 37.1711 Q1447.64 32.4315 1441.69 32.4315 M1441.69 26.1121 Q1451.41 26.1121 1456.96 32.4315 Q1462.51 38.7509 1462.51 49.9314 Q1462.51 61.0714 1456.96 67.4314 Q1451.41 73.7508 1441.69 73.7508 Q1431.92 73.7508 1426.37 67.4314 Q1420.87 61.0714 1420.87 49.9314 Q1420.87 38.7509 1426.37 32.4315 Q1431.92 26.1121 1441.69 26.1121 Z" fill="#000000" fill-rule="evenodd" fill-opacity="1" /><path clip-path="url(#clip010)" d="M 0 0 M1512.58 45.1919 L1512.58 72.576 L1505.12 72.576 L1505.12 45.4349 Q1505.12 38.994 1502.61 35.7938 Q1500.1 32.5936 1495.08 32.5936 Q1489.04 32.5936 1485.56 36.4419 Q1482.07 40.2903 1482.07 46.9338 L1482.07 72.576 L1474.58 72.576 L1474.58 27.2059 L1482.07 27.2059 L1482.07 34.2544 Q1484.75 30.163 1488.35 28.1376 Q1492 26.1121 1496.74 26.1121 Q1504.56 26.1121 1508.57 30.9732 Q1512.58 35.7938 1512.58 45.1919 Z" fill="#000000" fill-rule="evenodd" fill-opacity="1" /><path clip-path="url(#clip010)" d="M 0 0 M1556.37 28.5427 L1556.37 35.5912 Q1553.21 33.9709 1549.81 33.1607 Q1546.4 32.3505 1542.76 32.3505 Q1537.21 32.3505 1534.41 34.0519 Q1531.66 35.7533 1531.66 39.156 Q1531.66 41.7486 1533.64 43.2475 Q1535.63 44.7058 1541.62 46.0426 L1544.17 46.6097 Q1552.11 48.3111 1555.44 51.4303 Q1558.8 54.509 1558.8 60.0587 Q1558.8 66.3781 1553.78 70.0644 Q1548.79 73.7508 1540.04 73.7508 Q1536.4 73.7508 1532.43 73.0216 Q1528.5 72.3329 1524.12 70.9151 L1524.12 63.2184 Q1528.25 65.3654 1532.27 66.4591 Q1536.28 67.5124 1540.2 67.5124 Q1545.47 67.5124 1548.31 65.73 Q1551.14 63.9071 1551.14 60.6258 Q1551.14 57.5877 1549.08 55.9673 Q1547.05 54.3469 1540.12 52.8481 L1537.53 52.2405 Q1530.6 50.7821 1527.53 47.7845 Q1524.45 44.7463 1524.45 39.4801 Q1524.45 33.0797 1528.98 29.5959 Q1533.52 26.1121 1541.87 26.1121 Q1546 26.1121 1549.64 26.7198 Q1553.29 27.3274 1556.37 28.5427 Z" fill="#000000" fill-rule="evenodd" fill-opacity="1" /><path clip-path="url(#clip010)" d="M 0 0 M1591.69 27.2059 L1599.59 27.2059 L1613.77 65.2844 L1627.95 27.2059 L1635.85 27.2059 L1618.83 72.576 L1608.71 72.576 L1591.69 27.2059 Z" fill="#000000" fill-rule="evenodd" fill-opacity="1" /><path clip-path="url(#clip010)" d="M 0 0 M1675.06 28.5427 L1675.06 35.5912 Q1671.9 33.9709 1668.5 33.1607 Q1665.09 32.3505 1661.45 32.3505 Q1655.9 32.3505 1653.1 34.0519 Q1650.35 35.7533 1650.35 39.156 Q1650.35 41.7486 1652.33 43.2475 Q1654.32 44.7058 1660.31 46.0426 L1662.87 46.6097 Q1670.81 48.3111 1674.13 51.4303 Q1677.49 54.509 1677.49 60.0587 Q1677.49 66.3781 1672.47 70.0644 Q1667.48 73.7508 1658.73 73.7508 Q1655.09 73.7508 1651.12 73.0216 Q1647.19 72.3329 1642.81 70.9151 L1642.81 63.2184 Q1646.95 65.3654 1650.96 66.4591 Q1654.97 67.5124 1658.9 67.5124 Q1664.16 67.5124 1667 65.73 Q1669.83 63.9071 1669.83 60.6258 Q1669.83 57.5877 1667.77 55.9673 Q1665.74 54.3469 1658.82 52.8481 L1656.22 52.2405 Q1649.3 50.7821 1646.22 47.7845 Q1643.14 44.7463 1643.14 39.4801 Q1643.14 33.0797 1647.68 29.5959 Q1652.21 26.1121 1660.56 26.1121 Q1664.69 26.1121 1668.34 26.7198 Q1671.98 27.3274 1675.06 28.5427 Z" fill="#000000" fill-rule="evenodd" fill-opacity="1" /><path clip-path="url(#clip010)" d="M 0 0 M1707.67 12.096 L1758.83 12.096 L1758.83 18.9825 L1737.36 18.9825 L1737.36 72.576 L1729.14 72.576 L1729.14 18.9825 L1707.67 18.9825 L1707.67 12.096 Z" fill="#000000" fill-rule="evenodd" fill-opacity="1" /><path clip-path="url(#clip010)" d="M 0 0 M1763.86 27.2059 L1771.31 27.2059 L1771.31 72.576 L1763.86 72.576 L1763.86 27.2059 M1763.86 9.54393 L1771.31 9.54393 L1771.31 18.9825 L1763.86 18.9825 L1763.86 9.54393 Z" fill="#000000" fill-rule="evenodd" fill-opacity="1" /><path clip-path="url(#clip010)" d="M 0 0 M1822.23 35.9153 Q1825.02 30.8922 1828.91 28.5022 Q1832.8 26.1121 1838.07 26.1121 Q1845.16 26.1121 1849.01 31.0947 Q1852.85 36.0368 1852.85 45.1919 L1852.85 72.576 L1845.36 72.576 L1845.36 45.4349 Q1845.36 38.913 1843.05 35.7533 Q1840.74 32.5936 1836 32.5936 Q1830.21 32.5936 1826.85 36.4419 Q1823.48 40.2903 1823.48 46.9338 L1823.48 72.576 L1815.99 72.576 L1815.99 45.4349 Q1815.99 38.8725 1813.68 35.7533 Q1811.37 32.5936 1806.55 32.5936 Q1800.84 32.5936 1797.48 36.4824 Q1794.12 40.3308 1794.12 46.9338 L1794.12 72.576 L1786.62 72.576 L1786.62 27.2059 L1794.12 27.2059 L1794.12 34.2544 Q1796.67 30.082 1800.23 28.0971 Q1803.8 26.1121 1808.7 26.1121 Q1813.64 26.1121 1817.08 28.6237 Q1820.57 31.1352 1822.23 35.9153 Z" fill="#000000" fill-rule="evenodd" fill-opacity="1" /><path clip-path="url(#clip010)" d="M 0 0 M1906.53 48.0275 L1906.53 51.6733 L1872.26 51.6733 Q1872.74 59.3701 1876.88 63.421 Q1881.05 67.4314 1888.46 67.4314 Q1892.76 67.4314 1896.77 66.3781 Q1900.82 65.3249 1904.79 63.2184 L1904.79 70.267 Q1900.78 71.9684 1896.56 72.8596 Q1892.35 73.7508 1888.02 73.7508 Q1877.16 73.7508 1870.8 67.4314 Q1864.48 61.1119 1864.48 50.3365 Q1864.48 39.1965 1870.48 32.6746 Q1876.51 26.1121 1886.72 26.1121 Q1895.87 26.1121 1901.18 32.0264 Q1906.53 37.9003 1906.53 48.0275 M1899.07 45.84 Q1898.99 39.7232 1895.63 36.0774 Q1892.31 32.4315 1886.8 32.4315 Q1880.56 32.4315 1876.79 35.9558 Q1873.07 39.4801 1872.5 45.8805 L1899.07 45.84 Z" fill="#000000" fill-rule="evenodd" fill-opacity="1" /><path clip-path="url(#clip010)" d="M 0 0 M1970.01 17.6457 Q1961.09 17.6457 1955.83 24.2892 Q1950.6 30.9327 1950.6 42.3968 Q1950.6 53.8203 1955.83 60.4638 Q1961.09 67.1073 1970.01 67.1073 Q1978.92 67.1073 1984.1 60.4638 Q1989.33 53.8203 1989.33 42.3968 Q1989.33 30.9327 1984.1 24.2892 Q1978.92 17.6457 1970.01 17.6457 M1970.01 11.0023 Q1982.73 11.0023 1990.34 19.5497 Q1997.96 28.0566 1997.96 42.3968 Q1997.96 56.6965 1990.34 65.2439 Q1982.73 73.7508 1970.01 73.7508 Q1957.25 73.7508 1949.59 65.2439 Q1941.97 56.737 1941.97 42.3968 Q1941.97 28.0566 1949.59 19.5497 Q1957.25 11.0023 1970.01 11.0023 Z" fill="#000000" fill-rule="evenodd" fill-opacity="1" /><path clip-path="url(#clip010)" d="M 0 0 M2033.4 9.54393 L2033.4 15.7418 L2026.27 15.7418 Q2022.26 15.7418 2020.68 17.3622 Q2019.14 18.9825 2019.14 23.1955 L2019.14 27.2059 L2031.42 27.2059 L2031.42 32.9987 L2019.14 32.9987 L2019.14 72.576 L2011.65 72.576 L2011.65 32.9987 L2004.52 32.9987 L2004.52 27.2059 L2011.65 27.2059 L2011.65 24.0462 Q2011.65 16.471 2015.17 13.0277 Q2018.7 9.54393 2026.35 9.54393 L2033.4 9.54393 Z" fill="#000000" fill-rule="evenodd" fill-opacity="1" /><path clip-path="url(#clip010)" d="M 0 0 M2062.61 9.54393 L2062.61 15.7418 L2055.48 15.7418 Q2051.47 15.7418 2049.89 17.3622 Q2048.35 18.9825 2048.35 23.1955 L2048.35 27.2059 L2060.62 27.2059 L2060.62 32.9987 L2048.35 32.9987 L2048.35 72.576 L2040.86 72.576 L2040.86 32.9987 L2033.73 32.9987 L2033.73 27.2059 L2040.86 27.2059 L2040.86 24.0462 Q2040.86 16.471 2044.38 13.0277 Q2047.9 9.54393 2055.56 9.54393 L2062.61 9.54393 Z" fill="#000000" fill-rule="evenodd" fill-opacity="1" /><path clip-path="url(#clip010)" d="M 0 0 M2097.77 28.5427 L2097.77 35.5912 Q2094.61 33.9709 2091.21 33.1607 Q2087.81 32.3505 2084.16 32.3505 Q2078.61 32.3505 2075.82 34.0519 Q2073.06 35.7533 2073.06 39.156 Q2073.06 41.7486 2075.05 43.2475 Q2077.03 44.7058 2083.03 46.0426 L2085.58 46.6097 Q2093.52 48.3111 2096.84 51.4303 Q2100.2 54.509 2100.2 60.0587 Q2100.2 66.3781 2095.18 70.0644 Q2090.2 73.7508 2081.45 73.7508 Q2077.8 73.7508 2073.83 73.0216 Q2069.9 72.3329 2065.53 70.9151 L2065.53 63.2184 Q2069.66 65.3654 2073.67 66.4591 Q2077.68 67.5124 2081.61 67.5124 Q2086.87 67.5124 2089.71 65.73 Q2092.55 63.9071 2092.55 60.6258 Q2092.55 57.5877 2090.48 55.9673 Q2088.45 54.3469 2081.53 52.8481 L2078.93 52.2405 Q2072.01 50.7821 2068.93 47.7845 Q2065.85 44.7463 2065.85 39.4801 Q2065.85 33.0797 2070.39 29.5959 Q2074.92 26.1121 2083.27 26.1121 Q2087.4 26.1121 2091.05 26.7198 Q2094.69 27.3274 2097.77 28.5427 Z" fill="#000000" fill-rule="evenodd" fill-opacity="1" /><path clip-path="url(#clip010)" d="M 0 0 M2150.88 48.0275 L2150.88 51.6733 L2116.61 51.6733 Q2117.09 59.3701 2121.23 63.421 Q2125.4 67.4314 2132.81 67.4314 Q2137.11 67.4314 2141.12 66.3781 Q2145.17 65.3249 2149.14 63.2184 L2149.14 70.267 Q2145.13 71.9684 2140.91 72.8596 Q2136.7 73.7508 2132.37 73.7508 Q2121.51 73.7508 2115.15 67.4314 Q2108.83 61.1119 2108.83 50.3365 Q2108.83 39.1965 2114.83 32.6746 Q2120.86 26.1121 2131.07 26.1121 Q2140.22 26.1121 2145.53 32.0264 Q2150.88 37.9003 2150.88 48.0275 M2143.43 45.84 Q2143.34 39.7232 2139.98 36.0774 Q2136.66 32.4315 2131.15 32.4315 Q2124.91 32.4315 2121.15 35.9558 Q2117.42 39.4801 2116.85 45.8805 L2143.43 45.84 Z" fill="#000000" fill-rule="evenodd" fill-opacity="1" /><path clip-path="url(#clip010)" d="M 0 0 M2170.49 14.324 L2170.49 27.2059 L2185.84 27.2059 L2185.84 32.9987 L2170.49 32.9987 L2170.49 57.6282 Q2170.49 63.1779 2171.98 64.7578 Q2173.52 66.3376 2178.18 66.3376 L2185.84 66.3376 L2185.84 72.576 L2178.18 72.576 Q2169.55 72.576 2166.27 69.3758 Q2162.99 66.1351 2162.99 57.6282 L2162.99 32.9987 L2157.52 32.9987 L2157.52 27.2059 L2162.99 27.2059 L2162.99 14.324 L2170.49 14.324 Z" fill="#000000" fill-rule="evenodd" fill-opacity="1" /><polyline clip-path="url(#clip013)" style="stroke:#009af9; stroke-width:4; stroke-opacity:1; fill:none" points="
  325.387,160.369 329.331,1258.72 333.276,1237.29 337.22,1279.32 341.165,1289.65 345.109,1321.64 349.054,1291.17 352.998,1346.42 356.943,1324.92 360.887,1344.04 
  364.832,1339.3 368.776,1294.86 372.721,1305.15 376.666,1274.18 380.61,1303.36 384.555,1224.73 388.499,1273.75 392.444,1248.99 396.388,1254.76 400.333,1181.38 
  404.277,1247.28 408.222,1292.07 412.166,1285.59 416.111,1293.66 420.055,1361.07 424,1333.35 427.944,1313.97 431.889,1304.2 435.833,1312.67 439.778,1307.47 
  443.723,1283.24 447.667,1197.07 451.612,1220.53 455.556,1217.71 459.501,1220.82 463.445,1265.54 467.39,1249.16 471.334,1270.57 475.279,1309.35 479.223,1315.75 
  483.168,1320.66 487.112,1349.7 491.057,1347.6 495.001,1311.97 498.946,1327.64 502.89,1305.64 506.835,1247.47 510.779,1222.55 514.724,1277.18 518.669,1258.42 
  522.613,1244.07 526.558,1240.55 530.502,1233.4 534.447,1300.59 538.391,1274.43 542.336,1316.34 546.28,1293.09 550.225,1350.48 554.169,1331.52 558.114,1348.11 
  562.058,1336.77 566.003,1353.14 569.947,1282.38 573.892,1330.45 577.836,1250.58 581.781,1281.88 585.726,1188.22 589.67,1322.94 593.615,1300.95 597.559,1253.12 
  601.504,1271.27 605.448,1277.28 609.393,1297.2 613.337,1368.67 617.282,1338.23 621.226,1368.47 625.171,1326.24 629.115,1344.6 633.06,1329.53 637.004,1320.51 
  640.949,1270.95 644.893,1231.07 648.838,1231.46 652.783,1233.75 656.727,1249.76 660.672,1266.12 664.616,1241.14 668.561,1345.25 672.505,1290.03 676.45,1322.17 
  680.394,1352.56 684.339,1327.84 688.283,1361.12 692.228,1349.18 696.172,1280.13 700.117,1330.28 704.061,1291.61 708.006,1223.26 711.95,1261.75 715.895,1225.75 
  719.839,1284.33 723.784,1240.17 727.729,1254 731.673,1239.56 735.618,1312.16 739.562,1290.39 743.507,1332.42 747.451,1326.66 751.396,1351.19 755.34,1347.18 
  759.285,1310.33 763.229,1317.3 767.174,1312.8 771.118,1280.6 775.063,1247.62 779.007,1221.18 782.952,1180.53 786.896,1231.47 790.841,1192.18 794.786,1261.53 
  798.73,1316.62 802.675,1294.28 806.619,1308.74 810.564,1333.8 814.508,1351.43 818.453,1327.45 822.397,1302.13 826.342,1308.17 830.286,1277.37 834.231,1310.04 
  838.175,1268.86 842.12,1242.58 846.064,1279.51 850.009,1277.49 853.953,1302.73 857.898,1289.27 861.843,1223.16 865.787,1299.91 869.732,1254.43 873.676,1343.44 
  877.621,1320.5 881.565,1306.61 885.51,1349.64 889.454,1346.58 893.399,1314.33 897.343,1305.19 901.288,1254.82 905.232,1255.43 909.177,1301.06 913.121,1155.27 
  917.066,1197.99 921.01,1259.79 924.955,1236.97 928.899,1226.69 932.844,1297.78 936.789,1307.41 940.733,1317.55 944.678,1352.94 948.622,1356.72 952.567,1333.59 
  956.511,1283.51 960.456,1307.18 964.4,1303.77 968.345,1271.24 972.289,1285.3 976.234,1253.54 980.178,1268.76 984.123,1224.22 988.067,1249.64 992.012,1238.74 
  995.956,1315.26 999.901,1291.24 1003.85,1262.77 1007.79,1326.91 1011.73,1331.88 1015.68,1339.68 1019.62,1330.09 1023.57,1354.79 1027.51,1329.68 1031.46,1237.38 
  1035.4,1291.68 1039.35,1322.61 1043.29,1197.38 1047.24,1284.84 1051.18,1228.01 1055.12,1239.14 1059.07,1288.8 1063.01,1275.34 1066.96,1283.12 1070.9,1304.69 
  1074.85,1295.92 1078.79,1345.93 1082.74,1353.78 1086.68,1332.84 1090.63,1345.27 1094.57,1312.7 1098.51,1311.38 1102.46,1270.48 1106.4,1236.36 1110.35,1207.09 
  1114.29,1331.75 1118.24,1278.26 1122.18,1239.08 1126.13,1222.48 1130.07,1293.56 1134.01,1336.59 1137.96,1337.06 1141.9,1332.88 1145.85,1325.38 1149.79,1356.71 
  1153.74,1307.87 1157.68,1325.25 1161.63,1302.09 1165.57,1274.96 1169.52,1278.34 1173.46,1252.83 1177.4,1226.74 1181.35,1292.18 1185.29,1268.38 1189.24,1269.97 
  1193.18,1276.53 1197.13,1231.08 1201.07,1299.95 1205.02,1313.17 1208.96,1327.51 1212.91,1330.49 1216.85,1367.96 1220.79,1356.29 1224.74,1341.28 1228.68,1300.78 
  1232.63,1289.46 1236.57,1273.41 1240.52,1272.94 1244.46,1212.84 1248.41,1250.93 1252.35,1236.82 1256.3,1213.04 1260.24,1290.59 1264.18,1299.71 1268.13,1322.02 
  1272.07,1357.89 1276.02,1355.99 1279.96,1344.99 1283.91,1321.15 1287.85,1266.03 1291.8,1330.28 1295.74,1343.76 1299.69,1264.69 1303.63,1277.85 1307.57,1296.19 
  1311.52,1246.84 1315.46,1231.89 1319.41,1286.68 1323.35,1223.78 1327.3,1264.28 1331.24,1291.19 1335.19,1320.41 1339.13,1373.41 1343.07,1328.53 1347.02,1322.72 
  1350.96,1337.87 1354.91,1301.67 1358.85,1296.46 1362.8,1292.97 1366.74,1245.71 1370.69,1249.3 1374.63,1260.47 1378.58,1253.06 1382.52,1226.15 1386.46,1229.25 
  1390.41,1207.16 1394.35,1334.7 1398.3,1310.8 1402.24,1349.36 1406.19,1317.6 1410.13,1331.98 1414.08,1332.82 1418.02,1277.96 1421.97,1321.9 1425.91,1258.45 
  1429.85,1276.36 1433.8,1237.19 1437.74,1282.38 1441.69,1207.67 1445.63,1286.86 1449.58,1267.47 1453.52,1239.16 1457.47,1232.04 1461.41,1357.54 1465.36,1320.09 
  1469.3,1337.58 1473.24,1349.19 1477.19,1332.64 1481.13,1309.53 1485.08,1355.56 1489.02,1264.54 1492.97,1280.99 1496.91,1278.38 1500.86,1248.93 1504.8,1223.6 
  1508.75,1215.88 1512.69,1190.24 1516.63,1201.05 1520.58,1275.13 1524.52,1274.81 1528.47,1277.15 1532.41,1323.68 1536.36,1349.68 1540.3,1347.05 1544.25,1308.74 
  1548.19,1314.18 1552.13,1349.22 1556.08,1291.5 1560.02,1230.2 1563.97,1273.54 1567.91,1301.17 1571.86,1210.71 1575.8,1269.61 1579.75,1242.22 1583.69,1286.21 
  1587.64,1230.9 1591.58,1254.29 1595.52,1303.92 1599.47,1361.76 1603.41,1308.43 1607.36,1334.39 1611.3,1338.76 1615.25,1336.69 1619.19,1292.97 1623.14,1278.28 
  1627.08,1275.85 1631.03,1295.57 1634.97,1225.71 1638.91,1205.48 1642.86,1252.01 1646.8,1277.33 1650.75,1295.58 1654.69,1312.18 1658.64,1313.54 1662.58,1275.18 
  1666.53,1361.6 1670.47,1338.89 1674.42,1332.8 1678.36,1353.71 1682.3,1318.56 1686.25,1324.54 1690.19,1297.07 1694.14,1241.36 1698.08,1267.72 1702.03,1170.76 
  1705.97,1217.21 1709.92,1220.22 1713.86,1193.17 1717.81,1277.45 1721.75,1328.81 1725.69,1327.31 1729.64,1313.22 1733.58,1366.46 1737.53,1350.19 1741.47,1354.84 
  1745.42,1351.4 1749.36,1303.38 1753.31,1291.68 1757.25,1239.5 1761.19,1347.65 1765.14,1300.43 1769.08,1284.49 1773.03,1276.65 1776.97,1249.55 1780.92,1199.7 
  1784.86,1308.82 1788.81,1295.64 1792.75,1321.1 1796.7,1337.46 1800.64,1298.83 1804.58,1347.46 1808.53,1352.75 1812.47,1354.68 1816.42,1312.38 1820.36,1309.22 
  1824.31,1258.92 1828.25,1251.01 1832.2,1197.75 1836.14,1328.84 1840.09,1260.66 1844.03,1253.1 1847.97,1243.89 1851.92,1300.14 1855.86,1328.45 1859.81,1314.87 
  1863.75,1326.62 1867.7,1349.77 1871.64,1310.07 1875.59,1312.81 1879.53,1324.02 1883.48,1302.75 1887.42,1253.39 1891.36,1248.85 1895.31,1282.87 1899.25,1240.71 
  1903.2,1278.61 1907.14,1309.54 1911.09,1265.71 1915.03,1285.62 1918.98,1318.16 1922.92,1291.31 1926.87,1341.06 1930.81,1336.91 1934.75,1317.62 1938.7,1352.41 
  1942.64,1323.52 1946.59,1318.79 1950.53,1253.55 1954.48,1255.59 1958.42,1228.6 1962.37,1180.56 1966.31,1270.92 1970.25,1299.95 1974.2,1217.8 1978.14,1213.07 
  1982.09,1265.6 1986.03,1296.47 1989.98,1304.96 1993.92,1293.5 1997.87,1318.97 2001.81,1353.43 2005.76,1357.77 2009.7,1291.5 2013.64,1331.3 2017.59,1315.3 
  2021.53,1270.85 2025.48,1242.94 2029.42,1243.43 2033.37,1167.35 2037.31,1264.88 2041.26,1230.67 2045.2,1292.99 2049.15,1286.07 2053.09,1316.3 2057.03,1345.21 
  2060.98,1319.22 2064.92,1355.04 2068.87,1334.4 2072.81,1329.86 2076.76,1344.28 2080.7,1319.54 2084.65,1251.33 2088.59,1295.46 2092.54,1176.63 2096.48,1237.02 
  2100.42,1188.31 2104.37,1244.92 2108.31,1238.53 2112.26,1282.82 2116.2,1283.81 2120.15,1295.85 2124.09,1355.68 2128.04,1338.34 2131.98,1319.41 2135.93,1390.25 
  2139.87,1348.71 2143.81,1359.68 2147.76,1298.54 2151.7,1283.22 2155.65,1288.67 2159.59,1245.78 2163.54,1272.13 2167.48,1220.87 2171.43,1190.62 2175.37,1285.87 
  2179.31,1313.7 2183.26,1267.72 2187.2,1316.79 2191.15,1346.06 2195.09,1346.77 2199.04,1347.94 2202.98,1351.37 2206.93,1359.13 2210.87,1341.77 2214.82,1321.36 
  2218.76,1176.35 2222.7,1263.91 2226.65,1319.1 2230.59,1291.64 2234.54,1319.08 2238.48,1279.47 2242.43,1330.86 2246.37,1295.93 2250.32,1313.02 2254.26,1333.24 
  2258.21,1342.42 2262.15,1350.63 2266.09,1363.57 2270.04,1365.73 2273.98,1335.28 2277.93,1305.01 2281.87,1310.09 2285.82,1289.59 2289.76,1287.45 2293.71,1240.86 
  
  "/>
</svg>
