<?xml version="1.0" encoding="utf-8"?>
<svg xmlns="http://www.w3.org/2000/svg" xmlns:xlink="http://www.w3.org/1999/xlink" width="600" height="400" viewBox="0 0 2400 1600">
<defs>
  <clipPath id="clip100">
    <rect x="0" y="0" width="2400" height="1600"/>
  </clipPath>
</defs>
<path clip-path="url(#clip100)" d="
M0 1600 L2400 1600 L2400 0 L0 0  Z
  " fill="#ffffff" fill-rule="evenodd" fill-opacity="1"/>
<defs>
  <clipPath id="clip101">
    <rect x="480" y="0" width="1681" height="1600"/>
  </clipPath>
</defs>
<defs>
  <clipPath id="clip102">
    <rect x="327" y="123" width="2026" height="1301"/>
  </clipPath>
</defs>
<path clip-path="url(#clip100)" d="
M181.687 1427.15 L2352.76 1427.15 L2352.76 123.472 L181.687 123.472  Z
  " fill="#ffffff" fill-rule="evenodd" fill-opacity="1"/>
<defs>
  <clipPath id="clip103">
    <rect x="181" y="123" width="2172" height="1305"/>
  </clipPath>
</defs>
<polyline clip-path="url(#clip103)" style="stroke:#000000; stroke-width:2; stroke-opacity:0.1; fill:none" points="
  243.132,1427.15 243.132,123.472 
  "/>
<polyline clip-path="url(#clip103)" style="stroke:#000000; stroke-width:2; stroke-opacity:0.1; fill:none" points="
  757.233,1427.15 757.233,123.472 
  "/>
<polyline clip-path="url(#clip103)" style="stroke:#000000; stroke-width:2; stroke-opacity:0.1; fill:none" points="
  1271.33,1427.15 1271.33,123.472 
  "/>
<polyline clip-path="url(#clip103)" style="stroke:#000000; stroke-width:2; stroke-opacity:0.1; fill:none" points="
  1785.44,1427.15 1785.44,123.472 
  "/>
<polyline clip-path="url(#clip103)" style="stroke:#000000; stroke-width:2; stroke-opacity:0.1; fill:none" points="
  2299.54,1427.15 2299.54,123.472 
  "/>
<polyline clip-path="url(#clip100)" style="stroke:#000000; stroke-width:4; stroke-opacity:1; fill:none" points="
  181.687,1427.15 2352.76,1427.15 
  "/>
<polyline clip-path="url(#clip100)" style="stroke:#000000; stroke-width:4; stroke-opacity:1; fill:none" points="
  243.132,1427.15 243.132,1411.5 
  "/>
<polyline clip-path="url(#clip100)" style="stroke:#000000; stroke-width:4; stroke-opacity:1; fill:none" points="
  757.233,1427.15 757.233,1411.5 
  "/>
<polyline clip-path="url(#clip100)" style="stroke:#000000; stroke-width:4; stroke-opacity:1; fill:none" points="
  1271.33,1427.15 1271.33,1411.5 
  "/>
<polyline clip-path="url(#clip100)" style="stroke:#000000; stroke-width:4; stroke-opacity:1; fill:none" points="
  1785.44,1427.15 1785.44,1411.5 
  "/>
<polyline clip-path="url(#clip100)" style="stroke:#000000; stroke-width:4; stroke-opacity:1; fill:none" points="
  2299.54,1427.15 2299.54,1411.5 
  "/>
<path clip-path="url(#clip100)" d="M 0 0 M220.517 1456.34 Q216.906 1456.34 215.077 1459.9 Q213.271 1463.44 213.271 1470.57 Q213.271 1477.68 215.077 1481.25 Q216.906 1484.79 220.517 1484.79 Q224.151 1484.79 225.957 1481.25 Q227.785 1477.68 227.785 1470.57 Q227.785 1463.44 225.957 1459.9 Q224.151 1456.34 220.517 1456.34 M220.517 1452.63 Q226.327 1452.63 229.383 1457.24 Q232.461 1461.82 232.461 1470.57 Q232.461 1479.3 229.383 1483.91 Q226.327 1488.49 220.517 1488.49 Q214.707 1488.49 211.628 1483.91 Q208.572 1479.3 208.572 1470.57 Q208.572 1461.82 211.628 1457.24 Q214.707 1452.63 220.517 1452.63 Z" fill="#000000" fill-rule="evenodd" fill-opacity="1" /><path clip-path="url(#clip100)" d="M 0 0 M240.679 1481.94 L245.563 1481.94 L245.563 1487.82 L240.679 1487.82 L240.679 1481.94 Z" fill="#000000" fill-rule="evenodd" fill-opacity="1" /><path clip-path="url(#clip100)" d="M 0 0 M265.748 1456.34 Q262.137 1456.34 260.308 1459.9 Q258.503 1463.44 258.503 1470.57 Q258.503 1477.68 260.308 1481.25 Q262.137 1484.79 265.748 1484.79 Q269.382 1484.79 271.188 1481.25 Q273.017 1477.68 273.017 1470.57 Q273.017 1463.44 271.188 1459.9 Q269.382 1456.34 265.748 1456.34 M265.748 1452.63 Q271.558 1452.63 274.614 1457.24 Q277.692 1461.82 277.692 1470.57 Q277.692 1479.3 274.614 1483.91 Q271.558 1488.49 265.748 1488.49 Q259.938 1488.49 256.859 1483.91 Q253.804 1479.3 253.804 1470.57 Q253.804 1461.82 256.859 1457.24 Q259.938 1452.63 265.748 1452.63 Z" fill="#000000" fill-rule="evenodd" fill-opacity="1" /><path clip-path="url(#clip100)" d="M 0 0 M728.97 1483.88 L745.289 1483.88 L745.289 1487.82 L723.345 1487.82 L723.345 1483.88 Q726.007 1481.13 730.59 1476.5 Q735.196 1471.85 736.377 1470.51 Q738.622 1467.98 739.502 1466.25 Q740.405 1464.49 740.405 1462.8 Q740.405 1460.04 738.46 1458.31 Q736.539 1456.57 733.437 1456.57 Q731.238 1456.57 728.784 1457.33 Q726.354 1458.1 723.576 1459.65 L723.576 1454.93 Q726.4 1453.79 728.854 1453.21 Q731.308 1452.63 733.345 1452.63 Q738.715 1452.63 741.909 1455.32 Q745.104 1458.01 745.104 1462.5 Q745.104 1464.63 744.294 1466.55 Q743.507 1468.44 741.4 1471.04 Q740.821 1471.71 737.72 1474.93 Q734.618 1478.12 728.97 1483.88 Z" fill="#000000" fill-rule="evenodd" fill-opacity="1" /><path clip-path="url(#clip100)" d="M 0 0 M755.104 1481.94 L759.988 1481.94 L759.988 1487.82 L755.104 1487.82 L755.104 1481.94 Z" fill="#000000" fill-rule="evenodd" fill-opacity="1" /><path clip-path="url(#clip100)" d="M 0 0 M770.219 1453.26 L788.576 1453.26 L788.576 1457.19 L774.502 1457.19 L774.502 1465.67 Q775.52 1465.32 776.539 1465.16 Q777.557 1464.97 778.576 1464.97 Q784.363 1464.97 787.742 1468.14 Q791.122 1471.32 791.122 1476.73 Q791.122 1482.31 787.65 1485.41 Q784.178 1488.49 777.858 1488.49 Q775.682 1488.49 773.414 1488.12 Q771.168 1487.75 768.761 1487.01 L768.761 1482.31 Q770.844 1483.44 773.067 1484 Q775.289 1484.56 777.766 1484.56 Q781.77 1484.56 784.108 1482.45 Q786.446 1480.34 786.446 1476.73 Q786.446 1473.12 784.108 1471.01 Q781.77 1468.91 777.766 1468.91 Q775.891 1468.91 774.016 1469.32 Q772.164 1469.74 770.219 1470.62 L770.219 1453.26 Z" fill="#000000" fill-rule="evenodd" fill-opacity="1" /><path clip-path="url(#clip100)" d="M 0 0 M1238.5 1453.26 L1256.86 1453.26 L1256.86 1457.19 L1242.78 1457.19 L1242.78 1465.67 Q1243.8 1465.32 1244.82 1465.16 Q1245.84 1464.97 1246.86 1464.97 Q1252.64 1464.97 1256.02 1468.14 Q1259.4 1471.32 1259.4 1476.73 Q1259.4 1482.31 1255.93 1485.41 Q1252.46 1488.49 1246.14 1488.49 Q1243.96 1488.49 1241.69 1488.12 Q1239.45 1487.75 1237.04 1487.01 L1237.04 1482.31 Q1239.12 1483.44 1241.35 1484 Q1243.57 1484.56 1246.05 1484.56 Q1250.05 1484.56 1252.39 1482.45 Q1254.73 1480.34 1254.73 1476.73 Q1254.73 1473.12 1252.39 1471.01 Q1250.05 1468.91 1246.05 1468.91 Q1244.17 1468.91 1242.3 1469.32 Q1240.44 1469.74 1238.5 1470.62 L1238.5 1453.26 Z" fill="#000000" fill-rule="evenodd" fill-opacity="1" /><path clip-path="url(#clip100)" d="M 0 0 M1268.61 1481.94 L1273.5 1481.94 L1273.5 1487.82 L1268.61 1487.82 L1268.61 1481.94 Z" fill="#000000" fill-rule="evenodd" fill-opacity="1" /><path clip-path="url(#clip100)" d="M 0 0 M1293.68 1456.34 Q1290.07 1456.34 1288.24 1459.9 Q1286.44 1463.44 1286.44 1470.57 Q1286.44 1477.68 1288.24 1481.25 Q1290.07 1484.79 1293.68 1484.79 Q1297.32 1484.79 1299.12 1481.25 Q1300.95 1477.68 1300.95 1470.57 Q1300.95 1463.44 1299.12 1459.9 Q1297.32 1456.34 1293.68 1456.34 M1293.68 1452.63 Q1299.49 1452.63 1302.55 1457.24 Q1305.63 1461.82 1305.63 1470.57 Q1305.63 1479.3 1302.55 1483.91 Q1299.49 1488.49 1293.68 1488.49 Q1287.87 1488.49 1284.79 1483.91 Q1281.74 1479.3 1281.74 1470.57 Q1281.74 1461.82 1284.79 1457.24 Q1287.87 1452.63 1293.68 1452.63 Z" fill="#000000" fill-rule="evenodd" fill-opacity="1" /><path clip-path="url(#clip100)" d="M 0 0 M1751.75 1453.26 L1773.98 1453.26 L1773.98 1455.25 L1761.43 1487.82 L1756.55 1487.82 L1768.35 1457.19 L1751.75 1457.19 L1751.75 1453.26 Z" fill="#000000" fill-rule="evenodd" fill-opacity="1" /><path clip-path="url(#clip100)" d="M 0 0 M1783.1 1481.94 L1787.98 1481.94 L1787.98 1487.82 L1783.1 1487.82 L1783.1 1481.94 Z" fill="#000000" fill-rule="evenodd" fill-opacity="1" /><path clip-path="url(#clip100)" d="M 0 0 M1798.21 1453.26 L1816.57 1453.26 L1816.57 1457.19 L1802.5 1457.19 L1802.5 1465.67 Q1803.51 1465.32 1804.53 1465.16 Q1805.55 1464.97 1806.57 1464.97 Q1812.36 1464.97 1815.74 1468.14 Q1819.12 1471.32 1819.12 1476.73 Q1819.12 1482.31 1815.64 1485.41 Q1812.17 1488.49 1805.85 1488.49 Q1803.68 1488.49 1801.41 1488.12 Q1799.16 1487.75 1796.75 1487.01 L1796.75 1482.31 Q1798.84 1483.44 1801.06 1484 Q1803.28 1484.56 1805.76 1484.56 Q1809.76 1484.56 1812.1 1482.45 Q1814.44 1480.34 1814.44 1476.73 Q1814.44 1473.12 1812.1 1471.01 Q1809.76 1468.91 1805.76 1468.91 Q1803.88 1468.91 1802.01 1469.32 Q1800.16 1469.74 1798.21 1470.62 L1798.21 1453.26 Z" fill="#000000" fill-rule="evenodd" fill-opacity="1" /><path clip-path="url(#clip100)" d="M 0 0 M2251.61 1483.88 L2259.25 1483.88 L2259.25 1457.52 L2250.94 1459.19 L2250.94 1454.93 L2259.2 1453.26 L2263.88 1453.26 L2263.88 1483.88 L2271.52 1483.88 L2271.52 1487.82 L2251.61 1487.82 L2251.61 1483.88 Z" fill="#000000" fill-rule="evenodd" fill-opacity="1" /><path clip-path="url(#clip100)" d="M 0 0 M2290.96 1456.34 Q2287.35 1456.34 2285.52 1459.9 Q2283.71 1463.44 2283.71 1470.57 Q2283.71 1477.68 2285.52 1481.25 Q2287.35 1484.79 2290.96 1484.79 Q2294.59 1484.79 2296.4 1481.25 Q2298.23 1477.68 2298.23 1470.57 Q2298.23 1463.44 2296.4 1459.9 Q2294.59 1456.34 2290.96 1456.34 M2290.96 1452.63 Q2296.77 1452.63 2299.83 1457.24 Q2302.9 1461.82 2302.9 1470.57 Q2302.9 1479.3 2299.83 1483.91 Q2296.77 1488.49 2290.96 1488.49 Q2285.15 1488.49 2282.07 1483.91 Q2279.02 1479.3 2279.02 1470.57 Q2279.02 1461.82 2282.07 1457.24 Q2285.15 1452.63 2290.96 1452.63 Z" fill="#000000" fill-rule="evenodd" fill-opacity="1" /><path clip-path="url(#clip100)" d="M 0 0 M2311.12 1481.94 L2316.01 1481.94 L2316.01 1487.82 L2311.12 1487.82 L2311.12 1481.94 Z" fill="#000000" fill-rule="evenodd" fill-opacity="1" /><path clip-path="url(#clip100)" d="M 0 0 M2336.19 1456.34 Q2332.58 1456.34 2330.75 1459.9 Q2328.95 1463.44 2328.95 1470.57 Q2328.95 1477.68 2330.75 1481.25 Q2332.58 1484.79 2336.19 1484.79 Q2339.83 1484.79 2341.63 1481.25 Q2343.46 1477.68 2343.46 1470.57 Q2343.46 1463.44 2341.63 1459.9 Q2339.83 1456.34 2336.19 1456.34 M2336.19 1452.63 Q2342 1452.63 2345.06 1457.24 Q2348.14 1461.82 2348.14 1470.57 Q2348.14 1479.3 2345.06 1483.91 Q2342 1488.49 2336.19 1488.49 Q2330.38 1488.49 2327.3 1483.91 Q2324.25 1479.3 2324.25 1470.57 Q2324.25 1461.82 2327.3 1457.24 Q2330.38 1452.63 2336.19 1452.63 Z" fill="#000000" fill-rule="evenodd" fill-opacity="1" /><path clip-path="url(#clip100)" d="M 0 0 M1217.75 1530.6 Q1217.75 1532.85 1214.5 1532.85 L1203.42 1532.85 L1199 1555.43 Q1198.91 1556.01 1198.78 1556.33 Q1198.68 1556.65 1198.39 1557.2 Q1198.14 1557.71 1197.59 1557.97 Q1197.07 1558.26 1196.3 1558.26 Q1195.33 1558.26 1194.85 1557.68 Q1194.4 1557.13 1194.4 1556.46 Q1194.4 1556.04 1195.04 1554.04 L1201.52 1532.85 L1196.04 1532.85 Q1190.89 1532.85 1187.67 1537.94 Q1187.15 1538.61 1186.86 1538.68 Q1186.73 1538.71 1186.61 1538.71 Q1186.25 1538.71 1186.03 1538.55 Q1185.83 1538.39 1185.83 1538.23 L1185.8 1538.07 Q1185.8 1537.84 1186.32 1536.94 Q1186.86 1536.01 1187.83 1534.62 Q1188.83 1533.24 1189.83 1532.14 Q1191.15 1530.72 1192.63 1529.98 Q1194.11 1529.21 1194.85 1529.11 Q1195.62 1529.02 1196.62 1529.02 L1215.11 1529.02 Q1215.95 1529.02 1216.4 1529.08 Q1216.85 1529.11 1217.3 1529.5 Q1217.75 1529.85 1217.75 1530.6 Z" fill="#000000" fill-rule="evenodd" fill-opacity="1" /><path clip-path="url(#clip100)" d="M 0 0 M1236.04 1540.97 Q1236.04 1529.82 1240.2 1520.84 Q1241.97 1517.07 1244.45 1513.91 Q1246.93 1510.76 1248.57 1509.37 Q1250.21 1507.99 1250.66 1507.99 Q1251.31 1507.99 1251.34 1508.63 Q1251.34 1508.95 1250.47 1509.76 Q1239.84 1520.58 1239.87 1540.97 Q1239.87 1561.42 1250.21 1571.82 Q1251.34 1572.95 1251.34 1573.3 Q1251.34 1573.94 1250.66 1573.94 Q1250.21 1573.94 1248.63 1572.62 Q1247.06 1571.3 1244.61 1568.28 Q1242.16 1565.25 1240.39 1561.55 Q1236.04 1552.56 1236.04 1540.97 Z" fill="#000000" fill-rule="evenodd" fill-opacity="1" /><path clip-path="url(#clip100)" d="M 0 0 M1261.37 1557.45 L1261.37 1555.43 Q1264.88 1555.43 1265.68 1555.01 Q1266.49 1554.56 1266.49 1552.43 L1266.49 1534.75 Q1266.49 1532.3 1265.62 1531.69 Q1264.78 1531.08 1261.37 1531.08 L1261.37 1529.02 L1270.64 1528.31 L1270.64 1535.23 Q1273.74 1528.31 1280.4 1528.31 Q1285.36 1528.31 1287.33 1530.76 Q1288.78 1532.4 1289.07 1534.23 Q1289.39 1536.07 1289.39 1540.84 L1289.39 1553.43 Q1289.45 1554.81 1290.51 1555.14 Q1291.58 1555.43 1294.54 1555.43 L1294.54 1557.45 Q1287.81 1557.26 1287.13 1557.26 Q1286.62 1557.26 1279.69 1557.45 L1279.69 1555.43 Q1283.2 1555.43 1284.01 1555.01 Q1284.85 1554.56 1284.85 1552.43 L1284.85 1537.07 Q1284.85 1533.72 1283.82 1531.75 Q1282.79 1529.76 1279.95 1529.76 Q1276.54 1529.76 1273.8 1532.62 Q1271.06 1535.49 1271.06 1540.32 L1271.06 1552.43 Q1271.06 1554.56 1271.87 1555.01 Q1272.7 1555.43 1276.18 1555.43 L1276.18 1557.45 Q1269.45 1557.26 1268.81 1557.26 Q1268.29 1557.26 1261.37 1557.45 Z" fill="#000000" fill-rule="evenodd" fill-opacity="1" /><path clip-path="url(#clip100)" d="M 0 0 M1297.6 1556.59 L1297.6 1547.89 Q1297.6 1547.15 1297.64 1546.89 Q1297.67 1546.63 1297.86 1546.44 Q1298.06 1546.25 1298.44 1546.25 Q1298.89 1546.25 1299.05 1546.44 Q1299.25 1546.63 1299.38 1547.37 Q1300.37 1551.92 1302.5 1554.33 Q1304.66 1556.71 1308.55 1556.71 Q1312.26 1556.71 1314.13 1555.07 Q1315.99 1553.43 1315.99 1550.72 Q1315.99 1545.89 1309.13 1544.67 Q1305.17 1543.86 1303.53 1543.35 Q1301.89 1542.8 1300.44 1541.61 Q1297.6 1539.29 1297.6 1536.01 Q1297.6 1532.72 1300.08 1530.31 Q1302.6 1527.89 1308.14 1527.89 Q1311.84 1527.89 1314.35 1529.76 Q1315.09 1529.18 1315.48 1528.7 Q1316.35 1527.89 1316.8 1527.89 Q1317.31 1527.89 1317.41 1528.24 Q1317.51 1528.57 1317.51 1529.5 L1317.51 1536.13 Q1317.51 1536.88 1317.48 1537.13 Q1317.44 1537.39 1317.25 1537.58 Q1317.06 1537.74 1316.64 1537.74 Q1315.9 1537.74 1315.87 1537.13 Q1315.35 1529.15 1308.14 1529.15 Q1304.24 1529.15 1302.5 1530.66 Q1300.76 1532.14 1300.76 1534.17 Q1300.76 1535.3 1301.28 1536.17 Q1301.82 1537 1302.5 1537.52 Q1303.21 1538 1304.5 1538.49 Q1305.79 1538.94 1306.56 1539.1 Q1307.36 1539.26 1308.88 1539.58 Q1314.16 1540.58 1316.38 1542.74 Q1319.15 1545.51 1319.15 1549.02 Q1319.15 1552.91 1316.51 1555.55 Q1313.87 1558.2 1308.55 1558.2 Q1304.27 1558.2 1301.28 1555.33 Q1300.89 1555.72 1300.6 1556.07 Q1300.31 1556.39 1300.18 1556.52 Q1300.08 1556.65 1300.05 1556.75 Q1300.02 1556.81 1299.96 1556.88 Q1298.64 1558.2 1298.31 1558.2 Q1297.8 1558.2 1297.7 1557.84 Q1297.6 1557.52 1297.6 1556.59 Z" fill="#000000" fill-rule="evenodd" fill-opacity="1" /><path clip-path="url(#clip100)" d="M 0 0 M1323.31 1573.3 Q1323.31 1572.98 1324.15 1572.17 Q1334.78 1561.35 1334.78 1540.97 Q1334.78 1520.51 1324.57 1510.18 Q1323.31 1508.99 1323.31 1508.63 Q1323.31 1507.99 1323.96 1507.99 Q1324.41 1507.99 1325.99 1509.31 Q1327.6 1510.63 1330.01 1513.65 Q1332.46 1516.68 1334.26 1520.39 Q1338.61 1529.37 1338.61 1540.97 Q1338.61 1552.11 1334.46 1561.09 Q1332.69 1564.86 1330.21 1568.02 Q1327.73 1571.17 1326.08 1572.56 Q1324.44 1573.94 1323.96 1573.94 Q1323.31 1573.94 1323.31 1573.3 Z" fill="#000000" fill-rule="evenodd" fill-opacity="1" /><polyline clip-path="url(#clip103)" style="stroke:#000000; stroke-width:2; stroke-opacity:0.1; fill:none" points="
  181.687,1190.96 2352.76,1190.96 
  "/>
<polyline clip-path="url(#clip103)" style="stroke:#000000; stroke-width:2; stroke-opacity:0.1; fill:none" points="
  181.687,907.842 2352.76,907.842 
  "/>
<polyline clip-path="url(#clip103)" style="stroke:#000000; stroke-width:2; stroke-opacity:0.1; fill:none" points="
  181.687,624.728 2352.76,624.728 
  "/>
<polyline clip-path="url(#clip103)" style="stroke:#000000; stroke-width:2; stroke-opacity:0.1; fill:none" points="
  181.687,341.615 2352.76,341.615 
  "/>
<polyline clip-path="url(#clip100)" style="stroke:#000000; stroke-width:4; stroke-opacity:1; fill:none" points="
  181.687,1427.15 181.687,123.472 
  "/>
<polyline clip-path="url(#clip100)" style="stroke:#000000; stroke-width:4; stroke-opacity:1; fill:none" points="
  181.687,1190.96 207.74,1190.96 
  "/>
<polyline clip-path="url(#clip100)" style="stroke:#000000; stroke-width:4; stroke-opacity:1; fill:none" points="
  181.687,907.842 207.74,907.842 
  "/>
<polyline clip-path="url(#clip100)" style="stroke:#000000; stroke-width:4; stroke-opacity:1; fill:none" points="
  181.687,624.728 207.74,624.728 
  "/>
<polyline clip-path="url(#clip100)" style="stroke:#000000; stroke-width:4; stroke-opacity:1; fill:none" points="
  181.687,341.615 207.74,341.615 
  "/>
<path clip-path="url(#clip100)" d="M 0 0 M136.104 1177.75 L124.298 1196.2 L136.104 1196.2 L136.104 1177.75 M134.877 1173.68 L140.757 1173.68 L140.757 1196.2 L145.687 1196.2 L145.687 1200.09 L140.757 1200.09 L140.757 1208.24 L136.104 1208.24 L136.104 1200.09 L120.502 1200.09 L120.502 1195.57 L134.877 1173.68 Z" fill="#000000" fill-rule="evenodd" fill-opacity="1" /><path clip-path="url(#clip100)" d="M 0 0 M124.784 890.562 L143.141 890.562 L143.141 894.497 L129.067 894.497 L129.067 902.969 Q130.085 902.622 131.104 902.46 Q132.122 902.275 133.141 902.275 Q138.928 902.275 142.307 905.446 Q145.687 908.617 145.687 914.034 Q145.687 919.612 142.215 922.714 Q138.743 925.793 132.423 925.793 Q130.247 925.793 127.979 925.423 Q125.733 925.052 123.326 924.312 L123.326 919.612 Q125.409 920.747 127.632 921.302 Q129.854 921.858 132.331 921.858 Q136.335 921.858 138.673 919.751 Q141.011 917.645 141.011 914.034 Q141.011 910.423 138.673 908.316 Q136.335 906.21 132.331 906.21 Q130.456 906.21 128.581 906.626 Q126.729 907.043 124.784 907.923 L124.784 890.562 Z" fill="#000000" fill-rule="evenodd" fill-opacity="1" /><path clip-path="url(#clip100)" d="M 0 0 M134.159 622.865 Q131.011 622.865 129.159 625.018 Q127.331 627.17 127.331 630.92 Q127.331 634.647 129.159 636.823 Q131.011 638.976 134.159 638.976 Q137.307 638.976 139.136 636.823 Q140.988 634.647 140.988 630.92 Q140.988 627.17 139.136 625.018 Q137.307 622.865 134.159 622.865 M143.442 608.212 L143.442 612.471 Q141.682 611.638 139.877 611.198 Q138.095 610.758 136.335 610.758 Q131.706 610.758 129.252 613.883 Q126.821 617.008 126.474 623.328 Q127.84 621.314 129.9 620.249 Q131.96 619.161 134.437 619.161 Q139.645 619.161 142.655 622.332 Q145.687 625.481 145.687 630.92 Q145.687 636.244 142.539 639.462 Q139.391 642.679 134.159 642.679 Q128.164 642.679 124.993 638.096 Q121.821 633.49 121.821 624.763 Q121.821 616.569 125.71 611.707 Q129.599 606.823 136.15 606.823 Q137.909 606.823 139.692 607.17 Q141.497 607.518 143.442 608.212 Z" fill="#000000" fill-rule="evenodd" fill-opacity="1" /><path clip-path="url(#clip100)" d="M 0 0 M123.465 324.335 L145.687 324.335 L145.687 326.325 L133.141 358.895 L128.257 358.895 L140.062 328.27 L123.465 328.27 L123.465 324.335 Z" fill="#000000" fill-rule="evenodd" fill-opacity="1" /><path clip-path="url(#clip100)" d="M 0 0 M50.1836 835.816 Q50.2159 835.816 51.3753 836.009 L80.6504 843.352 Q82.1963 843.739 83.7422 844.834 Q85.3202 845.897 86.6729 847.604 Q88.0577 849.278 88.8951 851.855 Q89.7647 854.399 89.7647 857.33 Q89.7647 862 88.7663 864.061 Q87.8001 866.09 85.7389 866.09 Q83.9354 866.09 82.9048 864.963 Q81.9064 863.835 81.9064 862.547 Q81.9064 861.323 82.6149 860.679 Q83.3235 860.035 84.2252 860.035 Q85.2236 860.035 86.222 860.711 Q87.2526 861.388 87.6391 862.74 Q88.3154 860.583 88.3154 857.459 Q88.3154 850.856 81.3267 848.022 Q81.2301 847.958 81.1979 847.958 L72.4701 845.768 L72.4057 845.864 Q73.0498 846.412 73.7905 847.282 Q74.4991 848.119 75.3686 849.922 Q76.2382 851.726 76.2382 853.497 Q76.2382 857.201 73.4041 859.745 Q70.5378 862.257 65.8035 862.257 Q62.3575 862.257 58.9114 860.872 Q55.4332 859.455 52.8889 857.265 Q50.3125 855.043 48.7022 852.209 Q47.0919 849.343 47.0919 846.573 Q47.0919 844.641 48.2513 842.998 Q49.3785 841.356 51.2464 840.454 Q49.7006 840.293 49.0564 839.423 Q48.4123 838.522 48.4123 837.749 Q48.4123 836.879 48.8954 836.364 Q49.3463 835.816 50.1836 835.816 M54.2094 841.227 Q54.0161 841.227 53.5009 841.356 Q52.9534 841.484 52.0838 841.871 Q51.2142 842.225 50.4413 842.773 Q49.6684 843.32 49.1209 844.319 Q48.5411 845.285 48.5411 846.509 Q48.5411 848.505 50.2159 850.502 Q51.8584 852.499 54.4026 853.884 Q56.8503 855.172 61.5845 856.396 Q66.3188 857.587 68.7342 857.587 Q71.1175 857.587 72.9532 856.557 Q74.7889 855.526 74.7889 853.304 Q74.7889 850.728 72.4057 847.958 Q69.9258 845.092 67.8003 844.608 L55.2078 841.42 Q54.4348 841.227 54.2094 841.227 Z" fill="#000000" fill-rule="evenodd" fill-opacity="1" /><path clip-path="url(#clip100)" d="M 0 0 M34.6809 829.065 Q26.8807 829.065 20.5909 826.157 Q17.9532 824.917 15.7439 823.181 Q13.5346 821.445 12.5652 820.296 Q11.5958 819.146 11.5958 818.83 Q11.5958 818.379 12.0466 818.357 Q12.2721 818.357 12.8357 818.966 Q20.4105 826.405 34.6809 826.383 Q48.9964 826.383 56.2782 819.146 Q57.0672 818.357 57.3152 818.357 Q57.7661 818.357 57.7661 818.83 Q57.7661 819.146 56.8418 820.251 Q55.9175 821.355 53.7983 823.069 Q51.6792 824.782 49.0866 826.022 Q42.7968 829.065 34.6809 829.065 Z" fill="#000000" fill-rule="evenodd" fill-opacity="1" /><path clip-path="url(#clip100)" d="M 0 0 M46.2235 811.336 Q45.3894 811.336 45.1414 811.269 Q44.8934 811.178 44.5101 810.818 L34.6358 801.958 Q29.1802 797.111 24.4234 797.111 Q21.3348 797.111 19.1255 798.734 Q16.9162 800.335 16.9162 803.288 Q16.9162 805.317 18.1561 807.03 Q19.396 808.744 21.6053 809.533 Q21.5603 809.397 21.5603 808.924 Q21.5603 807.774 22.2817 807.143 Q23.0031 806.489 23.9725 806.489 Q25.2124 806.489 25.8211 807.301 Q26.4072 808.09 26.4072 808.879 Q26.4072 809.195 26.3396 809.623 Q26.272 810.029 25.6407 810.682 Q24.987 811.336 23.8372 811.336 Q20.6134 811.336 18.0434 808.901 Q15.4733 806.444 15.4733 802.702 Q15.4733 798.464 17.9983 795.691 Q20.5007 792.895 24.4234 792.895 Q25.7985 792.895 27.061 793.323 Q28.3009 793.729 29.2703 794.293 Q30.2397 794.834 31.7953 796.322 Q33.3508 797.81 34.4555 799.005 Q35.5601 800.199 37.9047 802.882 L42.6615 807.774 L42.6615 799.455 Q42.6615 795.398 42.3008 795.082 Q41.647 794.631 38.1978 794.067 L38.1978 792.895 L46.2235 794.203 L46.2235 811.336 Z" fill="#000000" fill-rule="evenodd" fill-opacity="1" /><path clip-path="url(#clip100)" d="M 0 0 M57.3152 788.471 Q57.0898 788.471 56.5262 787.885 Q48.9513 780.446 34.6809 780.446 Q20.3654 780.446 13.1288 787.592 Q12.2946 788.471 12.0466 788.471 Q11.5958 788.471 11.5958 788.02 Q11.5958 787.705 12.5201 786.6 Q13.4444 785.473 15.5635 783.782 Q17.6827 782.069 20.2752 780.806 Q26.565 777.763 34.6809 777.763 Q42.4812 777.763 48.771 780.671 Q51.4086 781.911 53.618 783.647 Q55.8273 785.383 56.7967 786.533 Q57.7661 787.682 57.7661 788.02 Q57.7661 788.471 57.3152 788.471 Z" fill="#000000" fill-rule="evenodd" fill-opacity="1" /><path clip-path="url(#clip100)" d="M 0 0 M59.7488 763.702 Q48.6056 763.702 39.6201 759.548 Q35.852 757.776 32.6959 755.296 Q29.5397 752.817 28.1548 751.174 Q26.77 749.532 26.77 749.081 Q26.77 748.437 27.4141 748.404 Q27.7362 748.404 28.5413 749.274 Q39.3625 759.902 59.7488 759.87 Q80.1995 759.87 90.602 749.532 Q91.7292 748.404 92.0835 748.404 Q92.7276 748.404 92.7276 749.081 Q92.7276 749.532 91.4071 751.11 Q90.0867 752.688 87.0594 755.135 Q84.032 757.583 80.3283 759.354 Q71.3429 763.702 59.7488 763.702 Z" fill="#000000" fill-rule="evenodd" fill-opacity="1" /><path clip-path="url(#clip100)" d="M 0 0 M49.3785 706.427 Q51.6329 706.427 51.6329 709.679 L51.6329 720.758 L74.2092 725.17 Q74.7889 725.267 75.111 725.396 Q75.433 725.492 75.9805 725.782 Q76.4958 726.04 76.7535 726.587 Q77.0433 727.103 77.0433 727.876 Q77.0433 728.842 76.4636 729.325 Q75.9161 729.776 75.2398 729.776 Q74.8211 729.776 72.8244 729.132 L51.6329 722.658 L51.6329 728.133 Q51.6329 733.286 56.7214 736.507 Q57.3978 737.022 57.4622 737.312 Q57.4944 737.441 57.4944 737.57 Q57.4944 737.924 57.3333 738.149 Q57.1723 738.343 57.0113 738.343 L56.8503 738.375 Q56.6248 738.375 55.7231 737.859 Q54.7891 737.312 53.4042 736.346 Q52.0194 735.347 50.9244 734.349 Q49.5073 733.029 48.7666 731.547 Q47.9936 730.066 47.897 729.325 Q47.8004 728.552 47.8004 727.554 L47.8004 709.067 Q47.8004 708.23 47.8648 707.779 Q47.897 707.328 48.2835 706.877 Q48.6378 706.427 49.3785 706.427 Z" fill="#000000" fill-rule="evenodd" fill-opacity="1" /><path clip-path="url(#clip100)" d="M 0 0 M92.0835 709.858 Q91.7614 709.858 90.9563 709.02 Q80.1351 698.392 59.7488 698.392 Q39.2981 698.392 28.96 708.601 Q27.7684 709.858 27.4141 709.858 Q26.77 709.858 26.77 709.213 Q26.77 708.763 28.0904 707.184 Q29.4109 705.574 32.4382 703.159 Q35.4656 700.711 39.1692 698.908 Q48.1547 694.56 59.7488 694.56 Q70.892 694.56 79.8775 698.714 Q83.6455 700.486 86.8017 702.965 Q89.9579 705.445 91.3427 707.088 Q92.7276 708.73 92.7276 709.213 Q92.7276 709.858 92.0835 709.858 Z" fill="#000000" fill-rule="evenodd" fill-opacity="1" /><path clip-path="url(#clip100)" d="M 0 0 M559.832 18.8205 L559.832 41.5461 L570.122 41.5461 Q575.833 41.5461 578.953 38.5889 Q582.072 35.6318 582.072 30.163 Q582.072 24.7348 578.953 21.7777 Q575.833 18.8205 570.122 18.8205 L559.832 18.8205 M551.65 12.096 L570.122 12.096 Q580.289 12.096 585.475 16.714 Q590.7 21.2916 590.7 30.163 Q590.7 39.1155 585.475 43.6931 Q580.289 48.2706 570.122 48.2706 L559.832 48.2706 L559.832 72.576 L551.65 72.576 L551.65 12.096 Z" fill="#000000" fill-rule="evenodd" fill-opacity="1" /><path clip-path="url(#clip100)" d="M 0 0 M639.068 45.1919 L639.068 72.576 L631.614 72.576 L631.614 45.4349 Q631.614 38.994 629.103 35.7938 Q626.591 32.5936 621.568 32.5936 Q615.532 32.5936 612.049 36.4419 Q608.565 40.2903 608.565 46.9338 L608.565 72.576 L601.071 72.576 L601.071 9.54393 L608.565 9.54393 L608.565 34.2544 Q611.238 30.163 614.844 28.1376 Q618.489 26.1121 623.229 26.1121 Q631.047 26.1121 635.058 30.9732 Q639.068 35.7938 639.068 45.1919 Z" fill="#000000" fill-rule="evenodd" fill-opacity="1" /><path clip-path="url(#clip100)" d="M 0 0 M671.516 32.4315 Q665.52 32.4315 662.037 37.1306 Q658.553 41.7891 658.553 49.9314 Q658.553 58.0738 661.996 62.7728 Q665.48 67.4314 671.516 67.4314 Q677.471 67.4314 680.954 62.7323 Q684.438 58.0333 684.438 49.9314 Q684.438 41.8701 680.954 37.1711 Q677.471 32.4315 671.516 32.4315 M671.516 26.1121 Q681.238 26.1121 686.788 32.4315 Q692.337 38.7509 692.337 49.9314 Q692.337 61.0714 686.788 67.4314 Q681.238 73.7508 671.516 73.7508 Q661.753 73.7508 656.203 67.4314 Q650.694 61.0714 650.694 49.9314 Q650.694 38.7509 656.203 32.4315 Q661.753 26.1121 671.516 26.1121 Z" fill="#000000" fill-rule="evenodd" fill-opacity="1" /><path clip-path="url(#clip100)" d="M 0 0 M712.065 14.324 L712.065 27.2059 L727.418 27.2059 L727.418 32.9987 L712.065 32.9987 L712.065 57.6282 Q712.065 63.1779 713.564 64.7578 Q715.104 66.3376 719.762 66.3376 L727.418 66.3376 L727.418 72.576 L719.762 72.576 Q711.134 72.576 707.852 69.3758 Q704.571 66.1351 704.571 57.6282 L704.571 32.9987 L699.102 32.9987 L699.102 27.2059 L704.571 27.2059 L704.571 14.324 L712.065 14.324 Z" fill="#000000" fill-rule="evenodd" fill-opacity="1" /><path clip-path="url(#clip100)" d="M 0 0 M754.802 32.4315 Q748.807 32.4315 745.323 37.1306 Q741.839 41.7891 741.839 49.9314 Q741.839 58.0738 745.283 62.7728 Q748.767 67.4314 754.802 67.4314 Q760.757 67.4314 764.241 62.7323 Q767.725 58.0333 767.725 49.9314 Q767.725 41.8701 764.241 37.1711 Q760.757 32.4315 754.802 32.4315 M754.802 26.1121 Q764.525 26.1121 770.074 32.4315 Q775.624 38.7509 775.624 49.9314 Q775.624 61.0714 770.074 67.4314 Q764.525 73.7508 754.802 73.7508 Q745.04 73.7508 739.49 67.4314 Q733.981 61.0714 733.981 49.9314 Q733.981 38.7509 739.49 32.4315 Q745.04 26.1121 754.802 26.1121 Z" fill="#000000" fill-rule="evenodd" fill-opacity="1" /><path clip-path="url(#clip100)" d="M 0 0 M825.693 45.1919 L825.693 72.576 L818.24 72.576 L818.24 45.4349 Q818.24 38.994 815.728 35.7938 Q813.216 32.5936 808.193 32.5936 Q802.157 32.5936 798.674 36.4419 Q795.19 40.2903 795.19 46.9338 L795.19 72.576 L787.696 72.576 L787.696 27.2059 L795.19 27.2059 L795.19 34.2544 Q797.863 30.163 801.469 28.1376 Q805.115 26.1121 809.854 26.1121 Q817.672 26.1121 821.683 30.9732 Q825.693 35.7938 825.693 45.1919 Z" fill="#000000" fill-rule="evenodd" fill-opacity="1" /><path clip-path="url(#clip100)" d="M 0 0 M912.545 16.7545 L912.545 25.383 Q908.413 21.5346 903.714 19.6307 Q899.055 17.7268 893.789 17.7268 Q883.419 17.7268 877.909 24.0867 Q872.4 30.4061 872.4 42.3968 Q872.4 54.3469 877.909 60.7069 Q883.419 67.0263 893.789 67.0263 Q899.055 67.0263 903.714 65.1223 Q908.413 63.2184 912.545 59.3701 L912.545 67.9175 Q908.251 70.8341 903.43 72.2924 Q898.65 73.7508 893.303 73.7508 Q879.57 73.7508 871.671 65.3654 Q863.772 56.9395 863.772 42.3968 Q863.772 27.8135 871.671 19.4281 Q879.57 11.0023 893.303 11.0023 Q898.731 11.0023 903.511 12.4606 Q908.332 13.8784 912.545 16.7545 Z" fill="#000000" fill-rule="evenodd" fill-opacity="1" /><path clip-path="url(#clip100)" d="M 0 0 M942.44 32.4315 Q936.445 32.4315 932.961 37.1306 Q929.477 41.7891 929.477 49.9314 Q929.477 58.0738 932.921 62.7728 Q936.404 67.4314 942.44 67.4314 Q948.395 67.4314 951.879 62.7323 Q955.363 58.0333 955.363 49.9314 Q955.363 41.8701 951.879 37.1711 Q948.395 32.4315 942.44 32.4315 M942.44 26.1121 Q952.162 26.1121 957.712 32.4315 Q963.262 38.7509 963.262 49.9314 Q963.262 61.0714 957.712 67.4314 Q952.162 73.7508 942.44 73.7508 Q932.678 73.7508 927.128 67.4314 Q921.619 61.0714 921.619 49.9314 Q921.619 38.7509 927.128 32.4315 Q932.678 26.1121 942.44 26.1121 Z" fill="#000000" fill-rule="evenodd" fill-opacity="1" /><path clip-path="url(#clip100)" d="M 0 0 M1001.91 34.1734 Q1000.65 33.4443 999.153 33.1202 Q997.695 32.7556 995.912 32.7556 Q989.593 32.7556 986.19 36.8875 Q982.828 40.9789 982.828 48.6757 L982.828 72.576 L975.334 72.576 L975.334 27.2059 L982.828 27.2059 L982.828 34.2544 Q985.177 30.1225 988.945 28.1376 Q992.712 26.1121 998.1 26.1121 Q998.869 26.1121 999.801 26.2337 Q1000.73 26.3147 1001.87 26.5172 L1001.91 34.1734 Z" fill="#000000" fill-rule="evenodd" fill-opacity="1" /><path clip-path="url(#clip100)" d="M 0 0 M1034.56 34.1734 Q1033.3 33.4443 1031.8 33.1202 Q1030.34 32.7556 1028.56 32.7556 Q1022.24 32.7556 1018.84 36.8875 Q1015.48 40.9789 1015.48 48.6757 L1015.48 72.576 L1007.98 72.576 L1007.98 27.2059 L1015.48 27.2059 L1015.48 34.2544 Q1017.83 30.1225 1021.59 28.1376 Q1025.36 26.1121 1030.75 26.1121 Q1031.52 26.1121 1032.45 26.2337 Q1033.38 26.3147 1034.52 26.5172 L1034.56 34.1734 Z" fill="#000000" fill-rule="evenodd" fill-opacity="1" /><path clip-path="url(#clip100)" d="M 0 0 M1079.36 48.0275 L1079.36 51.6733 L1045.09 51.6733 Q1045.58 59.3701 1049.71 63.421 Q1053.88 67.4314 1061.29 67.4314 Q1065.59 67.4314 1069.6 66.3781 Q1073.65 65.3249 1077.62 63.2184 L1077.62 70.267 Q1073.61 71.9684 1069.4 72.8596 Q1065.18 73.7508 1060.85 73.7508 Q1049.99 73.7508 1043.63 67.4314 Q1037.31 61.1119 1037.31 50.3365 Q1037.31 39.1965 1043.31 32.6746 Q1049.34 26.1121 1059.55 26.1121 Q1068.71 26.1121 1074.01 32.0264 Q1079.36 37.9003 1079.36 48.0275 M1071.91 45.84 Q1071.83 39.7232 1068.46 36.0774 Q1065.14 32.4315 1059.63 32.4315 Q1053.39 32.4315 1049.63 35.9558 Q1045.9 39.4801 1045.33 45.8805 L1071.91 45.84 Z" fill="#000000" fill-rule="evenodd" fill-opacity="1" /><path clip-path="url(#clip100)" d="M 0 0 M1091.59 9.54393 L1099.05 9.54393 L1099.05 72.576 L1091.59 72.576 L1091.59 9.54393 Z" fill="#000000" fill-rule="evenodd" fill-opacity="1" /><path clip-path="url(#clip100)" d="M 0 0 M1135.26 49.7694 Q1126.23 49.7694 1122.75 51.8354 Q1119.26 53.9013 1119.26 58.8839 Q1119.26 62.8538 1121.85 65.2034 Q1124.49 67.5124 1128.98 67.5124 Q1135.18 67.5124 1138.91 63.1374 Q1142.68 58.7219 1142.68 51.4303 L1142.68 49.7694 L1135.26 49.7694 M1150.13 46.6907 L1150.13 72.576 L1142.68 72.576 L1142.68 65.6895 Q1140.12 69.8214 1136.32 71.8063 Q1132.51 73.7508 1127 73.7508 Q1120.03 73.7508 1115.9 69.8619 Q1111.81 65.9325 1111.81 59.3701 Q1111.81 51.7138 1116.91 47.825 Q1122.06 43.9361 1132.23 43.9361 L1142.68 43.9361 L1142.68 43.2069 Q1142.68 38.0623 1139.27 35.2672 Q1135.91 32.4315 1129.79 32.4315 Q1125.91 32.4315 1122.22 33.3632 Q1118.53 34.295 1115.13 36.1584 L1115.13 29.2718 Q1119.22 27.692 1123.07 26.9223 Q1126.92 26.1121 1130.56 26.1121 Q1140.41 26.1121 1145.27 31.2163 Q1150.13 36.3204 1150.13 46.6907 Z" fill="#000000" fill-rule="evenodd" fill-opacity="1" /><path clip-path="url(#clip100)" d="M 0 0 M1172.86 14.324 L1172.86 27.2059 L1188.21 27.2059 L1188.21 32.9987 L1172.86 32.9987 L1172.86 57.6282 Q1172.86 63.1779 1174.35 64.7578 Q1175.89 66.3376 1180.55 66.3376 L1188.21 66.3376 L1188.21 72.576 L1180.55 72.576 Q1171.92 72.576 1168.64 69.3758 Q1165.36 66.1351 1165.36 57.6282 L1165.36 32.9987 L1159.89 32.9987 L1159.89 27.2059 L1165.36 27.2059 L1165.36 14.324 L1172.86 14.324 Z" fill="#000000" fill-rule="evenodd" fill-opacity="1" /><path clip-path="url(#clip100)" d="M 0 0 M1198.01 27.2059 L1205.47 27.2059 L1205.47 72.576 L1198.01 72.576 L1198.01 27.2059 M1198.01 9.54393 L1205.47 9.54393 L1205.47 18.9825 L1198.01 18.9825 L1198.01 9.54393 Z" fill="#000000" fill-rule="evenodd" fill-opacity="1" /><path clip-path="url(#clip100)" d="M 0 0 M1238.64 32.4315 Q1232.65 32.4315 1229.16 37.1306 Q1225.68 41.7891 1225.68 49.9314 Q1225.68 58.0738 1229.12 62.7728 Q1232.61 67.4314 1238.64 67.4314 Q1244.6 67.4314 1248.08 62.7323 Q1251.56 58.0333 1251.56 49.9314 Q1251.56 41.8701 1248.08 37.1711 Q1244.6 32.4315 1238.64 32.4315 M1238.64 26.1121 Q1248.36 26.1121 1253.91 32.4315 Q1259.46 38.7509 1259.46 49.9314 Q1259.46 61.0714 1253.91 67.4314 Q1248.36 73.7508 1238.64 73.7508 Q1228.88 73.7508 1223.33 67.4314 Q1217.82 61.0714 1217.82 49.9314 Q1217.82 38.7509 1223.33 32.4315 Q1228.88 26.1121 1238.64 26.1121 Z" fill="#000000" fill-rule="evenodd" fill-opacity="1" /><path clip-path="url(#clip100)" d="M 0 0 M1309.53 45.1919 L1309.53 72.576 L1302.08 72.576 L1302.08 45.4349 Q1302.08 38.994 1299.57 35.7938 Q1297.06 32.5936 1292.03 32.5936 Q1286 32.5936 1282.51 36.4419 Q1279.03 40.2903 1279.03 46.9338 L1279.03 72.576 L1271.54 72.576 L1271.54 27.2059 L1279.03 27.2059 L1279.03 34.2544 Q1281.7 30.163 1285.31 28.1376 Q1288.95 26.1121 1293.69 26.1121 Q1301.51 26.1121 1305.52 30.9732 Q1309.53 35.7938 1309.53 45.1919 Z" fill="#000000" fill-rule="evenodd" fill-opacity="1" /><path clip-path="url(#clip100)" d="M 0 0 M1353.32 28.5427 L1353.32 35.5912 Q1350.16 33.9709 1346.76 33.1607 Q1343.36 32.3505 1339.71 32.3505 Q1334.16 32.3505 1331.37 34.0519 Q1328.61 35.7533 1328.61 39.156 Q1328.61 41.7486 1330.6 43.2475 Q1332.58 44.7058 1338.58 46.0426 L1341.13 46.6097 Q1349.07 48.3111 1352.39 51.4303 Q1355.75 54.509 1355.75 60.0587 Q1355.75 66.3781 1350.73 70.0644 Q1345.75 73.7508 1337 73.7508 Q1333.35 73.7508 1329.38 73.0216 Q1325.45 72.3329 1321.08 70.9151 L1321.08 63.2184 Q1325.21 65.3654 1329.22 66.4591 Q1333.23 67.5124 1337.16 67.5124 Q1342.43 67.5124 1345.26 65.73 Q1348.1 63.9071 1348.1 60.6258 Q1348.1 57.5877 1346.03 55.9673 Q1344.01 54.3469 1337.08 52.8481 L1334.49 52.2405 Q1327.56 50.7821 1324.48 47.7845 Q1321.4 44.7463 1321.4 39.4801 Q1321.4 33.0797 1325.94 29.5959 Q1330.48 26.1121 1338.82 26.1121 Q1342.95 26.1121 1346.6 26.7198 Q1350.24 27.3274 1353.32 28.5427 Z" fill="#000000" fill-rule="evenodd" fill-opacity="1" /><path clip-path="url(#clip100)" d="M 0 0 M1388.65 27.2059 L1396.55 27.2059 L1410.72 65.2844 L1424.9 27.2059 L1432.8 27.2059 L1415.79 72.576 L1405.66 72.576 L1388.65 27.2059 Z" fill="#000000" fill-rule="evenodd" fill-opacity="1" /><path clip-path="url(#clip100)" d="M 0 0 M1472.01 28.5427 L1472.01 35.5912 Q1468.86 33.9709 1465.45 33.1607 Q1462.05 32.3505 1458.4 32.3505 Q1452.85 32.3505 1450.06 34.0519 Q1447.3 35.7533 1447.3 39.156 Q1447.3 41.7486 1449.29 43.2475 Q1451.27 44.7058 1457.27 46.0426 L1459.82 46.6097 Q1467.76 48.3111 1471.08 51.4303 Q1474.45 54.509 1474.45 60.0587 Q1474.45 66.3781 1469.42 70.0644 Q1464.44 73.7508 1455.69 73.7508 Q1452.04 73.7508 1448.07 73.0216 Q1444.14 72.3329 1439.77 70.9151 L1439.77 63.2184 Q1443.9 65.3654 1447.91 66.4591 Q1451.92 67.5124 1455.85 67.5124 Q1461.12 67.5124 1463.95 65.73 Q1466.79 63.9071 1466.79 60.6258 Q1466.79 57.5877 1464.72 55.9673 Q1462.7 54.3469 1455.77 52.8481 L1453.18 52.2405 Q1446.25 50.7821 1443.17 47.7845 Q1440.09 44.7463 1440.09 39.4801 Q1440.09 33.0797 1444.63 29.5959 Q1449.17 26.1121 1457.51 26.1121 Q1461.64 26.1121 1465.29 26.7198 Q1468.94 27.3274 1472.01 28.5427 Z" fill="#000000" fill-rule="evenodd" fill-opacity="1" /><path clip-path="url(#clip100)" d="M 0 0 M1504.62 12.096 L1555.79 12.096 L1555.79 18.9825 L1534.32 18.9825 L1534.32 72.576 L1526.09 72.576 L1526.09 18.9825 L1504.62 18.9825 L1504.62 12.096 Z" fill="#000000" fill-rule="evenodd" fill-opacity="1" /><path clip-path="url(#clip100)" d="M 0 0 M1560.81 27.2059 L1568.26 27.2059 L1568.26 72.576 L1560.81 72.576 L1560.81 27.2059 M1560.81 9.54393 L1568.26 9.54393 L1568.26 18.9825 L1560.81 18.9825 L1560.81 9.54393 Z" fill="#000000" fill-rule="evenodd" fill-opacity="1" /><path clip-path="url(#clip100)" d="M 0 0 M1619.18 35.9153 Q1621.98 30.8922 1625.87 28.5022 Q1629.76 26.1121 1635.02 26.1121 Q1642.11 26.1121 1645.96 31.0947 Q1649.81 36.0368 1649.81 45.1919 L1649.81 72.576 L1642.31 72.576 L1642.31 45.4349 Q1642.31 38.913 1640.01 35.7533 Q1637.7 32.5936 1632.96 32.5936 Q1627.16 32.5936 1623.8 36.4419 Q1620.44 40.2903 1620.44 46.9338 L1620.44 72.576 L1612.95 72.576 L1612.95 45.4349 Q1612.95 38.8725 1610.64 35.7533 Q1608.33 32.5936 1603.51 32.5936 Q1597.8 32.5936 1594.43 36.4824 Q1591.07 40.3308 1591.07 46.9338 L1591.07 72.576 L1583.58 72.576 L1583.58 27.2059 L1591.07 27.2059 L1591.07 34.2544 Q1593.62 30.082 1597.19 28.0971 Q1600.75 26.1121 1605.65 26.1121 Q1610.6 26.1121 1614.04 28.6237 Q1617.52 31.1352 1619.18 35.9153 Z" fill="#000000" fill-rule="evenodd" fill-opacity="1" /><path clip-path="url(#clip100)" d="M 0 0 M1703.48 48.0275 L1703.48 51.6733 L1669.21 51.6733 Q1669.7 59.3701 1673.83 63.421 Q1678 67.4314 1685.42 67.4314 Q1689.71 67.4314 1693.72 66.3781 Q1697.77 65.3249 1701.74 63.2184 L1701.74 70.267 Q1697.73 71.9684 1693.52 72.8596 Q1689.31 73.7508 1684.97 73.7508 Q1674.11 73.7508 1667.75 67.4314 Q1661.44 61.1119 1661.44 50.3365 Q1661.44 39.1965 1667.43 32.6746 Q1673.47 26.1121 1683.67 26.1121 Q1692.83 26.1121 1698.14 32.0264 Q1703.48 37.9003 1703.48 48.0275 M1696.03 45.84 Q1695.95 39.7232 1692.59 36.0774 Q1689.26 32.4315 1683.76 32.4315 Q1677.52 32.4315 1673.75 35.9558 Q1670.02 39.4801 1669.46 45.8805 L1696.03 45.84 Z" fill="#000000" fill-rule="evenodd" fill-opacity="1" /><path clip-path="url(#clip100)" d="M 0 0 M1766.96 17.6457 Q1758.05 17.6457 1752.78 24.2892 Q1747.56 30.9327 1747.56 42.3968 Q1747.56 53.8203 1752.78 60.4638 Q1758.05 67.1073 1766.96 67.1073 Q1775.87 67.1073 1781.06 60.4638 Q1786.28 53.8203 1786.28 42.3968 Q1786.28 30.9327 1781.06 24.2892 Q1775.87 17.6457 1766.96 17.6457 M1766.96 11.0023 Q1779.68 11.0023 1787.3 19.5497 Q1794.91 28.0566 1794.91 42.3968 Q1794.91 56.6965 1787.3 65.2439 Q1779.68 73.7508 1766.96 73.7508 Q1754.2 73.7508 1746.54 65.2439 Q1738.93 56.737 1738.93 42.3968 Q1738.93 28.0566 1746.54 19.5497 Q1754.2 11.0023 1766.96 11.0023 Z" fill="#000000" fill-rule="evenodd" fill-opacity="1" /><path clip-path="url(#clip100)" d="M 0 0 M1830.36 9.54393 L1830.36 15.7418 L1823.23 15.7418 Q1819.22 15.7418 1817.64 17.3622 Q1816.1 18.9825 1816.1 23.1955 L1816.1 27.2059 L1828.37 27.2059 L1828.37 32.9987 L1816.1 32.9987 L1816.1 72.576 L1808.6 72.576 L1808.6 32.9987 L1801.47 32.9987 L1801.47 27.2059 L1808.6 27.2059 L1808.6 24.0462 Q1808.6 16.471 1812.13 13.0277 Q1815.65 9.54393 1823.31 9.54393 L1830.36 9.54393 Z" fill="#000000" fill-rule="evenodd" fill-opacity="1" /><path clip-path="url(#clip100)" d="M 0 0 M1859.56 9.54393 L1859.56 15.7418 L1852.44 15.7418 Q1848.42 15.7418 1846.85 17.3622 Q1845.31 18.9825 1845.31 23.1955 L1845.31 27.2059 L1857.58 27.2059 L1857.58 32.9987 L1845.31 32.9987 L1845.31 72.576 L1837.81 72.576 L1837.81 32.9987 L1830.68 32.9987 L1830.68 27.2059 L1837.81 27.2059 L1837.81 24.0462 Q1837.81 16.471 1841.34 13.0277 Q1844.86 9.54393 1852.52 9.54393 L1859.56 9.54393 Z" fill="#000000" fill-rule="evenodd" fill-opacity="1" /><path clip-path="url(#clip100)" d="M 0 0 M1894.73 28.5427 L1894.73 35.5912 Q1891.57 33.9709 1888.16 33.1607 Q1884.76 32.3505 1881.12 32.3505 Q1875.57 32.3505 1872.77 34.0519 Q1870.02 35.7533 1870.02 39.156 Q1870.02 41.7486 1872 43.2475 Q1873.99 44.7058 1879.98 46.0426 L1882.53 46.6097 Q1890.47 48.3111 1893.8 51.4303 Q1897.16 54.509 1897.16 60.0587 Q1897.16 66.3781 1892.13 70.0644 Q1887.15 73.7508 1878.4 73.7508 Q1874.76 73.7508 1870.79 73.0216 Q1866.86 72.3329 1862.48 70.9151 L1862.48 63.2184 Q1866.61 65.3654 1870.62 66.4591 Q1874.63 67.5124 1878.56 67.5124 Q1883.83 67.5124 1886.67 65.73 Q1889.5 63.9071 1889.5 60.6258 Q1889.5 57.5877 1887.44 55.9673 Q1885.41 54.3469 1878.48 52.8481 L1875.89 52.2405 Q1868.96 50.7821 1865.88 47.7845 Q1862.81 44.7463 1862.81 39.4801 Q1862.81 33.0797 1867.34 29.5959 Q1871.88 26.1121 1880.22 26.1121 Q1884.36 26.1121 1888 26.7198 Q1891.65 27.3274 1894.73 28.5427 Z" fill="#000000" fill-rule="evenodd" fill-opacity="1" /><path clip-path="url(#clip100)" d="M 0 0 M1947.83 48.0275 L1947.83 51.6733 L1913.56 51.6733 Q1914.05 59.3701 1918.18 63.421 Q1922.35 67.4314 1929.77 67.4314 Q1934.06 67.4314 1938.07 66.3781 Q1942.12 65.3249 1946.09 63.2184 L1946.09 70.267 Q1942.08 71.9684 1937.87 72.8596 Q1933.66 73.7508 1929.32 73.7508 Q1918.47 73.7508 1912.11 67.4314 Q1905.79 61.1119 1905.79 50.3365 Q1905.79 39.1965 1911.78 32.6746 Q1917.82 26.1121 1928.03 26.1121 Q1937.18 26.1121 1942.49 32.0264 Q1947.83 37.9003 1947.83 48.0275 M1940.38 45.84 Q1940.3 39.7232 1936.94 36.0774 Q1933.62 32.4315 1928.11 32.4315 Q1921.87 32.4315 1918.1 35.9558 Q1914.37 39.4801 1913.81 45.8805 L1940.38 45.84 Z" fill="#000000" fill-rule="evenodd" fill-opacity="1" /><path clip-path="url(#clip100)" d="M 0 0 M1967.44 14.324 L1967.44 27.2059 L1982.79 27.2059 L1982.79 32.9987 L1967.44 32.9987 L1967.44 57.6282 Q1967.44 63.1779 1968.94 64.7578 Q1970.48 66.3376 1975.14 66.3376 L1982.79 66.3376 L1982.79 72.576 L1975.14 72.576 Q1966.51 72.576 1963.23 69.3758 Q1959.95 66.1351 1959.95 57.6282 L1959.95 32.9987 L1954.48 32.9987 L1954.48 27.2059 L1959.95 27.2059 L1959.95 14.324 L1967.44 14.324 Z" fill="#000000" fill-rule="evenodd" fill-opacity="1" /><polyline clip-path="url(#clip103)" style="stroke:#009af9; stroke-width:4; stroke-opacity:1; fill:none" points="
  243.132,160.369 251.358,1235.9 259.584,1149.07 267.809,1231.98 276.035,1231.09 284.261,1173.6 292.486,1220.65 300.712,1107.62 308.937,1203.66 317.163,1019.99 
  325.389,1052.74 333.614,1305.77 341.84,1210.23 350.065,1185.55 358.291,1249.02 366.517,1100.88 374.742,1269.18 382.968,1154.89 391.193,1288.66 399.419,1303.11 
  407.645,1212.82 415.87,1284.49 424.096,1187.71 432.322,1196.87 440.547,1386.79 448.773,895.026 456.998,1182.21 465.224,1207.88 473.45,1292.2 481.675,1317.7 
  489.901,1187.79 498.126,1247.44 506.352,1090.42 514.578,1348.42 522.803,1191.74 531.029,868.604 539.255,1360.49 547.48,1251.62 555.706,1325.96 563.931,1228.08 
  572.157,1201.43 580.383,1263.83 588.608,1085.95 596.834,1293.62 605.059,1092.48 613.285,1250.1 621.511,1334.11 629.736,1196.96 637.962,1193.61 646.188,1201.26 
  654.413,992.137 662.639,1182.79 670.864,1088.76 679.09,1338.26 687.316,1307.57 695.541,1238.9 703.767,1198.75 711.992,1099.22 720.218,1109.72 728.444,1289.55 
  736.669,1030.17 744.895,1214.62 753.121,1176.47 761.346,1269.5 769.572,1207.09 777.797,1192.61 786.023,1320.73 794.249,1144.83 802.474,1318.19 810.7,1108.24 
  818.925,1128.77 827.151,1291.68 835.377,1178.27 843.602,1228.67 851.828,1096.42 860.054,1096.2 868.279,1182.89 876.505,1139.63 884.73,1244.25 892.956,1295.28 
  901.182,1299.25 909.407,1151.29 917.633,1190.15 925.858,952.3 934.084,1154.59 942.31,1185.02 950.535,1203.32 958.761,1176.13 966.987,1339.72 975.212,1326.37 
  983.438,1135.98 991.663,1258.65 999.889,1081.66 1008.11,1196.05 1016.34,1223.78 1024.57,1190.57 1032.79,1230.46 1041.02,1194.4 1049.24,1247.21 1057.47,1159.55 
  1065.69,1012.71 1073.92,1241.57 1082.15,1150.9 1090.37,1282.76 1098.6,1167.35 1106.82,1229.23 1115.05,1173.45 1123.27,1004.87 1131.5,1025.45 1139.72,1158.43 
  1147.95,1168.92 1156.18,1268.7 1164.4,1209.56 1172.63,1176.46 1180.85,1241.57 1189.08,1163.35 1197.3,1192.99 1205.53,1089.66 1213.75,1137.78 1221.98,1279.93 
  1230.21,1241.84 1238.43,1319.01 1246.66,1086.3 1254.88,1319.63 1263.11,1286.77 1271.33,1068.06 1279.56,1325.51 1287.79,1064.16 1296.01,1295.02 1304.24,1371.08 
  1312.46,1276.41 1320.69,1317.33 1328.91,1011.47 1337.14,1190.02 1345.36,1135.39 1353.59,1256.43 1361.82,1270.22 1370.04,1279.97 1378.27,1339.24 1386.49,1117.38 
  1394.72,1340.9 1402.94,1239.35 1411.17,975.686 1419.4,1201.53 1427.62,1198.15 1435.85,1165.42 1444.07,1370.77 1452.3,1194.12 1460.52,1193.16 1468.75,1133.97 
  1476.97,1141.64 1485.2,1213.86 1493.43,979.562 1501.65,1255.61 1509.88,1169.51 1518.1,1304.79 1526.33,1277.08 1534.55,935.391 1542.78,1072.52 1551.01,1076.73 
  1559.23,1228.91 1567.46,1292.26 1575.68,1149.11 1583.91,1304.73 1592.13,1014.32 1600.36,1314.16 1608.58,1263.4 1616.81,821.177 1625.04,1275.1 1633.26,1161.73 
  1641.49,1280.39 1649.71,1292.58 1657.94,1211.1 1666.16,1248 1674.39,905.271 1682.62,1311.82 1690.84,1077.83 1699.07,1041.64 1707.29,1286.44 1715.52,1215.07 
  1723.74,1204.58 1731.97,1270.48 1740.19,1120.48 1748.42,994.723 1756.65,906.725 1764.87,1250.35 1773.1,1250.74 1781.32,1198.14 1789.55,1344.7 1797.77,976.414 
  1806,1290.55 1814.22,1199 1822.45,1069.48 1830.68,1188.89 1838.9,1094.45 1847.13,1258.31 1855.35,1222.59 1863.58,1276.73 1871.8,1206.23 1880.03,953.134 
  1888.26,1390.25 1896.48,1244.64 1904.71,1064.96 1912.93,1290.52 1921.16,1214.47 1929.38,1314.25 1937.61,1182.16 1945.83,1224.15 1954.06,968.706 1962.29,1065.48 
  1970.51,1316.99 1978.74,1144.09 1986.96,1244.5 1995.19,1330.5 2003.41,1071.56 2011.64,1223.21 2019.87,1152.38 2028.09,1197.75 2036.32,1266.56 2044.54,1135.24 
  2052.77,1288.4 2060.99,1270.33 2069.22,1231.37 2077.44,1269.85 2085.67,971.377 2093.9,1216.39 2102.12,1115.08 2110.35,1238.59 2118.57,1201.5 2126.8,1300.95 
  2135.02,1284.3 2143.25,1245.59 2151.48,1304.46 2159.7,1002.23 2167.93,1030.06 2176.15,1246.4 2184.38,1257.64 2192.6,1216.28 2200.83,1270.99 2209.05,1174.94 
  2217.28,1320.46 2225.51,1144.03 2233.73,1145.32 2241.96,1129.01 2250.18,1252.58 2258.41,1222.33 2266.63,1284.51 2274.86,1149.4 2283.08,1321.92 2291.31,1163.16 
  
  "/>
</svg>
