<?xml version="1.0" encoding="utf-8"?>
<svg xmlns="http://www.w3.org/2000/svg" xmlns:xlink="http://www.w3.org/1999/xlink" width="600" height="400" viewBox="0 0 2400 1600">
<defs>
  <clipPath id="clip920">
    <rect x="0" y="0" width="2400" height="1600"/>
  </clipPath>
</defs>
<path clip-path="url(#clip920)" d="
M0 1600 L2400 1600 L2400 0 L0 0  Z
  " fill="#ffffff" fill-rule="evenodd" fill-opacity="1"/>
<defs>
  <clipPath id="clip921">
    <rect x="480" y="0" width="1681" height="1600"/>
  </clipPath>
</defs>
<defs>
  <clipPath id="clip922">
    <rect x="311" y="123" width="2042" height="1305"/>
  </clipPath>
</defs>
<path clip-path="url(#clip920)" d="
M220.533 1423.18 L2352.76 1423.18 L2352.76 123.472 L220.533 123.472  Z
  " fill="#ffffff" fill-rule="evenodd" fill-opacity="1"/>
<defs>
  <clipPath id="clip923">
    <rect x="220" y="123" width="2133" height="1301"/>
  </clipPath>
</defs>
<polyline clip-path="url(#clip923)" style="stroke:#000000; stroke-width:2; stroke-opacity:0.1; fill:none" points="
  280.879,1423.18 280.879,123.472 
  "/>
<polyline clip-path="url(#clip923)" style="stroke:#000000; stroke-width:2; stroke-opacity:0.1; fill:none" points="
  683.593,1423.18 683.593,123.472 
  "/>
<polyline clip-path="url(#clip923)" style="stroke:#000000; stroke-width:2; stroke-opacity:0.1; fill:none" points="
  1086.31,1423.18 1086.31,123.472 
  "/>
<polyline clip-path="url(#clip923)" style="stroke:#000000; stroke-width:2; stroke-opacity:0.1; fill:none" points="
  1489.02,1423.18 1489.02,123.472 
  "/>
<polyline clip-path="url(#clip923)" style="stroke:#000000; stroke-width:2; stroke-opacity:0.1; fill:none" points="
  1891.73,1423.18 1891.73,123.472 
  "/>
<polyline clip-path="url(#clip923)" style="stroke:#000000; stroke-width:2; stroke-opacity:0.1; fill:none" points="
  2294.45,1423.18 2294.45,123.472 
  "/>
<polyline clip-path="url(#clip920)" style="stroke:#000000; stroke-width:4; stroke-opacity:1; fill:none" points="
  220.533,1423.18 2352.76,1423.18 
  "/>
<polyline clip-path="url(#clip920)" style="stroke:#000000; stroke-width:4; stroke-opacity:1; fill:none" points="
  280.879,1423.18 280.879,1407.58 
  "/>
<polyline clip-path="url(#clip920)" style="stroke:#000000; stroke-width:4; stroke-opacity:1; fill:none" points="
  683.593,1423.18 683.593,1407.58 
  "/>
<polyline clip-path="url(#clip920)" style="stroke:#000000; stroke-width:4; stroke-opacity:1; fill:none" points="
  1086.31,1423.18 1086.31,1407.58 
  "/>
<polyline clip-path="url(#clip920)" style="stroke:#000000; stroke-width:4; stroke-opacity:1; fill:none" points="
  1489.02,1423.18 1489.02,1407.58 
  "/>
<polyline clip-path="url(#clip920)" style="stroke:#000000; stroke-width:4; stroke-opacity:1; fill:none" points="
  1891.73,1423.18 1891.73,1407.58 
  "/>
<polyline clip-path="url(#clip920)" style="stroke:#000000; stroke-width:4; stroke-opacity:1; fill:none" points="
  2294.45,1423.18 2294.45,1407.58 
  "/>
<path clip-path="url(#clip920)" d="M 0 0 M280.879 1452.37 Q277.268 1452.37 275.439 1455.94 Q273.634 1459.48 273.634 1466.61 Q273.634 1473.71 275.439 1477.28 Q277.268 1480.82 280.879 1480.82 Q284.513 1480.82 286.319 1477.28 Q288.148 1473.71 288.148 1466.61 Q288.148 1459.48 286.319 1455.94 Q284.513 1452.37 280.879 1452.37 M280.879 1448.67 Q286.689 1448.67 289.745 1453.27 Q292.824 1457.86 292.824 1466.61 Q292.824 1475.33 289.745 1479.94 Q286.689 1484.52 280.879 1484.52 Q275.069 1484.52 271.99 1479.94 Q268.935 1475.33 268.935 1466.61 Q268.935 1457.86 271.99 1453.27 Q275.069 1448.67 280.879 1448.67 Z" fill="#000000" fill-rule="evenodd" fill-opacity="1" /><path clip-path="url(#clip920)" d="M 0 0 M658.28 1479.92 L665.919 1479.92 L665.919 1453.55 L657.609 1455.22 L657.609 1450.96 L665.873 1449.29 L670.549 1449.29 L670.549 1479.92 L678.187 1479.92 L678.187 1483.85 L658.28 1483.85 L658.28 1479.92 Z" fill="#000000" fill-rule="evenodd" fill-opacity="1" /><path clip-path="url(#clip920)" d="M 0 0 M697.632 1452.37 Q694.021 1452.37 692.192 1455.94 Q690.386 1459.48 690.386 1466.61 Q690.386 1473.71 692.192 1477.28 Q694.021 1480.82 697.632 1480.82 Q701.266 1480.82 703.072 1477.28 Q704.9 1473.71 704.9 1466.61 Q704.9 1459.48 703.072 1455.94 Q701.266 1452.37 697.632 1452.37 M697.632 1448.67 Q703.442 1448.67 706.498 1453.27 Q709.576 1457.86 709.576 1466.61 Q709.576 1475.33 706.498 1479.94 Q703.442 1484.52 697.632 1484.52 Q691.822 1484.52 688.743 1479.94 Q685.687 1475.33 685.687 1466.61 Q685.687 1457.86 688.743 1453.27 Q691.822 1448.67 697.632 1448.67 Z" fill="#000000" fill-rule="evenodd" fill-opacity="1" /><path clip-path="url(#clip920)" d="M 0 0 M1065.08 1479.92 L1081.4 1479.92 L1081.4 1483.85 L1059.45 1483.85 L1059.45 1479.92 Q1062.12 1477.16 1066.7 1472.53 Q1071.31 1467.88 1072.49 1466.54 Q1074.73 1464.01 1075.61 1462.28 Q1076.51 1460.52 1076.51 1458.83 Q1076.51 1456.07 1074.57 1454.34 Q1072.65 1452.6 1069.55 1452.6 Q1067.35 1452.6 1064.89 1453.37 Q1062.46 1454.13 1059.69 1455.68 L1059.69 1450.96 Q1062.51 1449.82 1064.96 1449.25 Q1067.42 1448.67 1069.45 1448.67 Q1074.82 1448.67 1078.02 1451.35 Q1081.21 1454.04 1081.21 1458.53 Q1081.21 1460.66 1080.4 1462.58 Q1079.62 1464.48 1077.51 1467.07 Q1076.93 1467.74 1073.83 1470.96 Q1070.73 1474.15 1065.08 1479.92 Z" fill="#000000" fill-rule="evenodd" fill-opacity="1" /><path clip-path="url(#clip920)" d="M 0 0 M1101.21 1452.37 Q1097.6 1452.37 1095.77 1455.94 Q1093.97 1459.48 1093.97 1466.61 Q1093.97 1473.71 1095.77 1477.28 Q1097.6 1480.82 1101.21 1480.82 Q1104.85 1480.82 1106.65 1477.28 Q1108.48 1473.71 1108.48 1466.61 Q1108.48 1459.48 1106.65 1455.94 Q1104.85 1452.37 1101.21 1452.37 M1101.21 1448.67 Q1107.02 1448.67 1110.08 1453.27 Q1113.16 1457.86 1113.16 1466.61 Q1113.16 1475.33 1110.08 1479.94 Q1107.02 1484.52 1101.21 1484.52 Q1095.4 1484.52 1092.32 1479.94 Q1089.27 1475.33 1089.27 1466.61 Q1089.27 1457.86 1092.32 1453.27 Q1095.4 1448.67 1101.21 1448.67 Z" fill="#000000" fill-rule="evenodd" fill-opacity="1" /><path clip-path="url(#clip920)" d="M 0 0 M1477.86 1465.22 Q1481.22 1465.94 1483.09 1468.2 Q1484.99 1470.47 1484.99 1473.81 Q1484.99 1478.92 1481.47 1481.72 Q1477.95 1484.52 1471.47 1484.52 Q1469.3 1484.52 1466.98 1484.08 Q1464.69 1483.67 1462.24 1482.81 L1462.24 1478.3 Q1464.18 1479.43 1466.5 1480.01 Q1468.81 1480.59 1471.33 1480.59 Q1475.73 1480.59 1478.02 1478.85 Q1480.34 1477.12 1480.34 1473.81 Q1480.34 1470.75 1478.19 1469.04 Q1476.06 1467.3 1472.24 1467.3 L1468.21 1467.3 L1468.21 1463.46 L1472.42 1463.46 Q1475.87 1463.46 1477.7 1462.09 Q1479.53 1460.7 1479.53 1458.11 Q1479.53 1455.45 1477.63 1454.04 Q1475.76 1452.6 1472.24 1452.6 Q1470.32 1452.6 1468.12 1453.02 Q1465.92 1453.44 1463.28 1454.31 L1463.28 1450.15 Q1465.94 1449.41 1468.26 1449.04 Q1470.59 1448.67 1472.65 1448.67 Q1477.98 1448.67 1481.08 1451.1 Q1484.18 1453.5 1484.18 1457.63 Q1484.18 1460.5 1482.54 1462.49 Q1480.89 1464.45 1477.86 1465.22 Z" fill="#000000" fill-rule="evenodd" fill-opacity="1" /><path clip-path="url(#clip920)" d="M 0 0 M1503.86 1452.37 Q1500.25 1452.37 1498.42 1455.94 Q1496.61 1459.48 1496.61 1466.61 Q1496.61 1473.71 1498.42 1477.28 Q1500.25 1480.82 1503.86 1480.82 Q1507.49 1480.82 1509.3 1477.28 Q1511.13 1473.71 1511.13 1466.61 Q1511.13 1459.48 1509.3 1455.94 Q1507.49 1452.37 1503.86 1452.37 M1503.86 1448.67 Q1509.67 1448.67 1512.72 1453.27 Q1515.8 1457.86 1515.8 1466.61 Q1515.8 1475.33 1512.72 1479.94 Q1509.67 1484.52 1503.86 1484.52 Q1498.05 1484.52 1494.97 1479.94 Q1491.91 1475.33 1491.91 1466.61 Q1491.91 1457.86 1494.97 1453.27 Q1498.05 1448.67 1503.86 1448.67 Z" fill="#000000" fill-rule="evenodd" fill-opacity="1" /><path clip-path="url(#clip920)" d="M 0 0 M1879.9 1453.37 L1868.1 1471.81 L1879.9 1471.81 L1879.9 1453.37 M1878.68 1449.29 L1884.56 1449.29 L1884.56 1471.81 L1889.49 1471.81 L1889.49 1475.7 L1884.56 1475.7 L1884.56 1483.85 L1879.9 1483.85 L1879.9 1475.7 L1864.3 1475.7 L1864.3 1471.19 L1878.68 1449.29 Z" fill="#000000" fill-rule="evenodd" fill-opacity="1" /><path clip-path="url(#clip920)" d="M 0 0 M1907.22 1452.37 Q1903.61 1452.37 1901.78 1455.94 Q1899.97 1459.48 1899.97 1466.61 Q1899.97 1473.71 1901.78 1477.28 Q1903.61 1480.82 1907.22 1480.82 Q1910.85 1480.82 1912.66 1477.28 Q1914.49 1473.71 1914.49 1466.61 Q1914.49 1459.48 1912.66 1455.94 Q1910.85 1452.37 1907.22 1452.37 M1907.22 1448.67 Q1913.03 1448.67 1916.08 1453.27 Q1919.16 1457.86 1919.16 1466.61 Q1919.16 1475.33 1916.08 1479.94 Q1913.03 1484.52 1907.22 1484.52 Q1901.41 1484.52 1898.33 1479.94 Q1895.27 1475.33 1895.27 1466.61 Q1895.27 1457.86 1898.33 1453.27 Q1901.41 1448.67 1907.22 1448.67 Z" fill="#000000" fill-rule="evenodd" fill-opacity="1" /><path clip-path="url(#clip920)" d="M 0 0 M2269.15 1449.29 L2287.5 1449.29 L2287.5 1453.23 L2273.43 1453.23 L2273.43 1461.7 Q2274.45 1461.35 2275.46 1461.19 Q2276.48 1461 2277.5 1461 Q2283.29 1461 2286.67 1464.18 Q2290.05 1467.35 2290.05 1472.76 Q2290.05 1478.34 2286.58 1481.44 Q2283.1 1484.52 2276.78 1484.52 Q2274.61 1484.52 2272.34 1484.15 Q2270.09 1483.78 2267.69 1483.04 L2267.69 1478.34 Q2269.77 1479.48 2271.99 1480.03 Q2274.21 1480.59 2276.69 1480.59 Q2280.7 1480.59 2283.03 1478.48 Q2285.37 1476.38 2285.37 1472.76 Q2285.37 1469.15 2283.03 1467.05 Q2280.7 1464.94 2276.69 1464.94 Q2274.82 1464.94 2272.94 1465.36 Q2271.09 1465.77 2269.15 1466.65 L2269.15 1449.29 Z" fill="#000000" fill-rule="evenodd" fill-opacity="1" /><path clip-path="url(#clip920)" d="M 0 0 M2309.26 1452.37 Q2305.65 1452.37 2303.82 1455.94 Q2302.02 1459.48 2302.02 1466.61 Q2302.02 1473.71 2303.82 1477.28 Q2305.65 1480.82 2309.26 1480.82 Q2312.89 1480.82 2314.7 1477.28 Q2316.53 1473.71 2316.53 1466.61 Q2316.53 1459.48 2314.7 1455.94 Q2312.89 1452.37 2309.26 1452.37 M2309.26 1448.67 Q2315.07 1448.67 2318.13 1453.27 Q2321.21 1457.86 2321.21 1466.61 Q2321.21 1475.33 2318.13 1479.94 Q2315.07 1484.52 2309.26 1484.52 Q2303.45 1484.52 2300.37 1479.94 Q2297.32 1475.33 2297.32 1466.61 Q2297.32 1457.86 2300.37 1453.27 Q2303.45 1448.67 2309.26 1448.67 Z" fill="#000000" fill-rule="evenodd" fill-opacity="1" /><path clip-path="url(#clip920)" d="M 0 0 M1046.75 1518.52 L1046.75 1523.39 L1041.15 1523.39 Q1038 1523.39 1036.76 1524.66 Q1035.55 1525.93 1035.55 1529.24 L1035.55 1532.4 L1045.19 1532.4 L1045.19 1536.95 L1035.55 1536.95 L1035.55 1568.04 L1029.66 1568.04 L1029.66 1536.95 L1024.06 1536.95 L1024.06 1532.4 L1029.66 1532.4 L1029.66 1529.91 Q1029.66 1523.96 1032.43 1521.26 Q1035.2 1518.52 1041.21 1518.52 L1046.75 1518.52 Z" fill="#000000" fill-rule="evenodd" fill-opacity="1" /><path clip-path="url(#clip920)" d="M 0 0 M1072.31 1537.87 Q1071.32 1537.3 1070.15 1537.04 Q1069 1536.76 1067.6 1536.76 Q1062.64 1536.76 1059.96 1540 Q1057.32 1543.22 1057.32 1549.27 L1057.32 1568.04 L1051.43 1568.04 L1051.43 1532.4 L1057.32 1532.4 L1057.32 1537.93 Q1059.17 1534.69 1062.13 1533.13 Q1065.09 1531.54 1069.32 1531.54 Q1069.92 1531.54 1070.66 1531.63 Q1071.39 1531.7 1072.28 1531.85 L1072.31 1537.87 Z" fill="#000000" fill-rule="evenodd" fill-opacity="1" /><path clip-path="url(#clip920)" d="M 0 0 M1107.51 1548.76 L1107.51 1551.62 L1080.59 1551.62 Q1080.97 1557.67 1084.22 1560.85 Q1087.49 1564 1093.32 1564 Q1096.69 1564 1099.84 1563.17 Q1103.03 1562.35 1106.14 1560.69 L1106.14 1566.23 Q1102.99 1567.57 1099.68 1568.27 Q1096.37 1568.97 1092.97 1568.97 Q1084.44 1568.97 1079.44 1564 Q1074.48 1559.04 1074.48 1550.57 Q1074.48 1541.82 1079.19 1536.69 Q1083.93 1531.54 1091.95 1531.54 Q1099.14 1531.54 1103.31 1536.18 Q1107.51 1540.8 1107.51 1548.76 M1101.66 1547.04 Q1101.59 1542.23 1098.95 1539.37 Q1096.34 1536.5 1092.01 1536.5 Q1087.11 1536.5 1084.15 1539.27 Q1081.22 1542.04 1080.78 1547.07 L1101.66 1547.04 Z" fill="#000000" fill-rule="evenodd" fill-opacity="1" /><path clip-path="url(#clip920)" d="M 0 0 M1120.63 1550.25 Q1120.63 1556.71 1123.27 1560.4 Q1125.94 1564.07 1130.59 1564.07 Q1135.24 1564.07 1137.91 1560.4 Q1140.58 1556.71 1140.58 1550.25 Q1140.58 1543.79 1137.91 1540.13 Q1135.24 1536.44 1130.59 1536.44 Q1125.94 1536.44 1123.27 1540.13 Q1120.63 1543.79 1120.63 1550.25 M1140.58 1562.7 Q1138.74 1565.88 1135.9 1567.44 Q1133.1 1568.97 1129.16 1568.97 Q1122.7 1568.97 1118.62 1563.81 Q1114.58 1558.65 1114.58 1550.25 Q1114.58 1541.85 1118.62 1536.69 Q1122.7 1531.54 1129.16 1531.54 Q1133.1 1531.54 1135.9 1533.1 Q1138.74 1534.62 1140.58 1537.81 L1140.58 1532.4 L1146.44 1532.4 L1146.44 1581.6 L1140.58 1581.6 L1140.58 1562.7 Z" fill="#000000" fill-rule="evenodd" fill-opacity="1" /><path clip-path="url(#clip920)" d="M 0 0 M1157.9 1553.98 L1157.9 1532.4 L1163.75 1532.4 L1163.75 1553.75 Q1163.75 1558.81 1165.73 1561.36 Q1167.7 1563.87 1171.65 1563.87 Q1176.39 1563.87 1179.13 1560.85 Q1181.9 1557.83 1181.9 1552.61 L1181.9 1532.4 L1187.75 1532.4 L1187.75 1568.04 L1181.9 1568.04 L1181.9 1562.57 Q1179.76 1565.82 1176.93 1567.41 Q1174.13 1568.97 1170.41 1568.97 Q1164.26 1568.97 1161.08 1565.15 Q1157.9 1561.33 1157.9 1553.98 M1172.63 1531.54 L1172.63 1531.54 Z" fill="#000000" fill-rule="evenodd" fill-opacity="1" /><path clip-path="url(#clip920)" d="M 0 0 M1230.31 1548.76 L1230.31 1551.62 L1203.38 1551.62 Q1203.76 1557.67 1207.01 1560.85 Q1210.29 1564 1216.11 1564 Q1219.49 1564 1222.64 1563.17 Q1225.82 1562.35 1228.94 1560.69 L1228.94 1566.23 Q1225.79 1567.57 1222.48 1568.27 Q1219.17 1568.97 1215.76 1568.97 Q1207.23 1568.97 1202.24 1564 Q1197.27 1559.04 1197.27 1550.57 Q1197.27 1541.82 1201.98 1536.69 Q1206.72 1531.54 1214.74 1531.54 Q1221.94 1531.54 1226.11 1536.18 Q1230.31 1540.8 1230.31 1548.76 M1224.45 1547.04 Q1224.39 1542.23 1221.75 1539.37 Q1219.14 1536.5 1214.81 1536.5 Q1209.91 1536.5 1206.95 1539.27 Q1204.02 1542.04 1203.57 1547.07 L1224.45 1547.04 Z" fill="#000000" fill-rule="evenodd" fill-opacity="1" /><path clip-path="url(#clip920)" d="M 0 0 M1269.55 1546.53 L1269.55 1568.04 L1263.7 1568.04 L1263.7 1546.72 Q1263.7 1541.66 1261.72 1539.14 Q1259.75 1536.63 1255.8 1536.63 Q1251.06 1536.63 1248.32 1539.65 Q1245.59 1542.68 1245.59 1547.9 L1245.59 1568.04 L1239.7 1568.04 L1239.7 1532.4 L1245.59 1532.4 L1245.59 1537.93 Q1247.69 1534.72 1250.52 1533.13 Q1253.38 1531.54 1257.11 1531.54 Q1263.25 1531.54 1266.4 1535.36 Q1269.55 1539.14 1269.55 1546.53 Z" fill="#000000" fill-rule="evenodd" fill-opacity="1" /><path clip-path="url(#clip920)" d="M 0 0 M1306.89 1533.76 L1306.89 1539.24 Q1304.4 1537.87 1301.89 1537.2 Q1299.41 1536.5 1296.86 1536.5 Q1291.16 1536.5 1288.01 1540.13 Q1284.86 1543.73 1284.86 1550.25 Q1284.86 1556.78 1288.01 1560.4 Q1291.16 1564 1296.86 1564 Q1299.41 1564 1301.89 1563.33 Q1304.4 1562.63 1306.89 1561.26 L1306.89 1566.68 Q1304.44 1567.82 1301.79 1568.39 Q1299.19 1568.97 1296.22 1568.97 Q1288.17 1568.97 1283.43 1563.91 Q1278.69 1558.85 1278.69 1550.25 Q1278.69 1541.53 1283.46 1536.53 Q1288.27 1531.54 1296.61 1531.54 Q1299.31 1531.54 1301.89 1532.11 Q1304.47 1532.65 1306.89 1533.76 Z" fill="#000000" fill-rule="evenodd" fill-opacity="1" /><path clip-path="url(#clip920)" d="M 0 0 M1331.9 1571.35 Q1329.42 1577.72 1327.07 1579.66 Q1324.71 1581.6 1320.76 1581.6 L1316.09 1581.6 L1316.09 1576.7 L1319.52 1576.7 Q1321.94 1576.7 1323.28 1575.56 Q1324.62 1574.41 1326.24 1570.14 L1327.29 1567.47 L1312.87 1532.4 L1319.08 1532.4 L1330.22 1560.28 L1341.36 1532.4 L1347.56 1532.4 L1331.9 1571.35 Z" fill="#000000" fill-rule="evenodd" fill-opacity="1" /><path clip-path="url(#clip920)" d="M 0 0 M1390.44 1518.58 Q1386.17 1525.9 1384.1 1533.06 Q1382.03 1540.23 1382.03 1547.58 Q1382.03 1554.93 1384.1 1562.16 Q1386.2 1569.35 1390.44 1576.64 L1385.34 1576.64 Q1380.57 1569.16 1378.18 1561.93 Q1375.83 1554.71 1375.83 1547.58 Q1375.83 1540.48 1378.18 1533.29 Q1380.54 1526.09 1385.34 1518.58 L1390.44 1518.58 Z" fill="#000000" fill-rule="evenodd" fill-opacity="1" /><path clip-path="url(#clip920)" d="M 0 0 M1434.46 1561.26 L1434.46 1548.5 L1423.95 1548.5 L1423.95 1543.22 L1440.82 1543.22 L1440.82 1563.62 Q1437.1 1566.26 1432.61 1567.63 Q1428.12 1568.97 1423.03 1568.97 Q1411.89 1568.97 1405.59 1562.47 Q1399.32 1555.95 1399.32 1544.33 Q1399.32 1532.68 1405.59 1526.19 Q1411.89 1519.66 1423.03 1519.66 Q1427.68 1519.66 1431.85 1520.81 Q1436.05 1521.96 1439.58 1524.18 L1439.58 1531.03 Q1436.02 1528 1432.01 1526.48 Q1428 1524.95 1423.57 1524.95 Q1414.85 1524.95 1410.46 1529.82 Q1406.1 1534.69 1406.1 1544.33 Q1406.1 1553.94 1410.46 1558.81 Q1414.85 1563.68 1423.57 1563.68 Q1426.98 1563.68 1429.65 1563.11 Q1432.32 1562.51 1434.46 1561.26 Z" fill="#000000" fill-rule="evenodd" fill-opacity="1" /><path clip-path="url(#clip920)" d="M 0 0 M1452.57 1520.52 L1459 1520.52 L1459 1540 L1482.36 1540 L1482.36 1520.52 L1488.79 1520.52 L1488.79 1568.04 L1482.36 1568.04 L1482.36 1545.41 L1459 1545.41 L1459 1568.04 L1452.57 1568.04 L1452.57 1520.52 Z" fill="#000000" fill-rule="evenodd" fill-opacity="1" /><path clip-path="url(#clip920)" d="M 0 0 M1498.78 1532.4 L1526.6 1532.4 L1526.6 1537.74 L1504.57 1563.37 L1526.6 1563.37 L1526.6 1568.04 L1497.99 1568.04 L1497.99 1562.7 L1520.01 1537.07 L1498.78 1537.07 L1498.78 1532.4 Z" fill="#000000" fill-rule="evenodd" fill-opacity="1" /><path clip-path="url(#clip920)" d="M 0 0 M1534.62 1518.58 L1539.71 1518.58 Q1544.49 1526.09 1546.84 1533.29 Q1549.23 1540.48 1549.23 1547.58 Q1549.23 1554.71 1546.84 1561.93 Q1544.49 1569.16 1539.71 1576.64 L1534.62 1576.64 Q1538.85 1569.35 1540.92 1562.16 Q1543.02 1554.93 1543.02 1547.58 Q1543.02 1540.23 1540.92 1533.06 Q1538.85 1525.9 1534.62 1518.58 Z" fill="#000000" fill-rule="evenodd" fill-opacity="1" /><polyline clip-path="url(#clip923)" style="stroke:#000000; stroke-width:2; stroke-opacity:0.1; fill:none" points="
  220.533,1386.4 2352.76,1386.4 
  "/>
<polyline clip-path="url(#clip923)" style="stroke:#000000; stroke-width:2; stroke-opacity:0.1; fill:none" points="
  220.533,1164.06 2352.76,1164.06 
  "/>
<polyline clip-path="url(#clip923)" style="stroke:#000000; stroke-width:2; stroke-opacity:0.1; fill:none" points="
  220.533,941.726 2352.76,941.726 
  "/>
<polyline clip-path="url(#clip923)" style="stroke:#000000; stroke-width:2; stroke-opacity:0.1; fill:none" points="
  220.533,719.392 2352.76,719.392 
  "/>
<polyline clip-path="url(#clip923)" style="stroke:#000000; stroke-width:2; stroke-opacity:0.1; fill:none" points="
  220.533,497.057 2352.76,497.057 
  "/>
<polyline clip-path="url(#clip923)" style="stroke:#000000; stroke-width:2; stroke-opacity:0.1; fill:none" points="
  220.533,274.722 2352.76,274.722 
  "/>
<polyline clip-path="url(#clip920)" style="stroke:#000000; stroke-width:4; stroke-opacity:1; fill:none" points="
  220.533,1423.18 220.533,123.472 
  "/>
<polyline clip-path="url(#clip920)" style="stroke:#000000; stroke-width:4; stroke-opacity:1; fill:none" points="
  220.533,1386.4 246.12,1386.4 
  "/>
<polyline clip-path="url(#clip920)" style="stroke:#000000; stroke-width:4; stroke-opacity:1; fill:none" points="
  220.533,1164.06 246.12,1164.06 
  "/>
<polyline clip-path="url(#clip920)" style="stroke:#000000; stroke-width:4; stroke-opacity:1; fill:none" points="
  220.533,941.726 246.12,941.726 
  "/>
<polyline clip-path="url(#clip920)" style="stroke:#000000; stroke-width:4; stroke-opacity:1; fill:none" points="
  220.533,719.392 246.12,719.392 
  "/>
<polyline clip-path="url(#clip920)" style="stroke:#000000; stroke-width:4; stroke-opacity:1; fill:none" points="
  220.533,497.057 246.12,497.057 
  "/>
<polyline clip-path="url(#clip920)" style="stroke:#000000; stroke-width:4; stroke-opacity:1; fill:none" points="
  220.533,274.722 246.12,274.722 
  "/>
<path clip-path="url(#clip920)" d="M 0 0 M172.589 1372.19 Q168.978 1372.19 167.149 1375.76 Q165.344 1379.3 165.344 1386.43 Q165.344 1393.54 167.149 1397.1 Q168.978 1400.64 172.589 1400.64 Q176.223 1400.64 178.029 1397.1 Q179.857 1393.54 179.857 1386.43 Q179.857 1379.3 178.029 1375.76 Q176.223 1372.19 172.589 1372.19 M172.589 1368.49 Q178.399 1368.49 181.455 1373.1 Q184.533 1377.68 184.533 1386.43 Q184.533 1395.16 181.455 1399.76 Q178.399 1404.35 172.589 1404.35 Q166.779 1404.35 163.7 1399.76 Q160.645 1395.16 160.645 1386.43 Q160.645 1377.68 163.7 1373.1 Q166.779 1368.49 172.589 1368.49 Z" fill="#000000" fill-rule="evenodd" fill-opacity="1" /><path clip-path="url(#clip920)" d="M 0 0 M133.237 1177.41 L140.876 1177.41 L140.876 1151.04 L132.566 1152.71 L132.566 1148.45 L140.83 1146.78 L145.506 1146.78 L145.506 1177.41 L153.145 1177.41 L153.145 1181.34 L133.237 1181.34 L133.237 1177.41 Z" fill="#000000" fill-rule="evenodd" fill-opacity="1" /><path clip-path="url(#clip920)" d="M 0 0 M172.589 1149.86 Q168.978 1149.86 167.149 1153.42 Q165.344 1156.97 165.344 1164.1 Q165.344 1171.2 167.149 1174.77 Q168.978 1178.31 172.589 1178.31 Q176.223 1178.31 178.029 1174.77 Q179.857 1171.2 179.857 1164.1 Q179.857 1156.97 178.029 1153.42 Q176.223 1149.86 172.589 1149.86 M172.589 1146.16 Q178.399 1146.16 181.455 1150.76 Q184.533 1155.35 184.533 1164.1 Q184.533 1172.82 181.455 1177.43 Q178.399 1182.01 172.589 1182.01 Q166.779 1182.01 163.7 1177.43 Q160.645 1172.82 160.645 1164.1 Q160.645 1155.35 163.7 1150.76 Q166.779 1146.16 172.589 1146.16 Z" fill="#000000" fill-rule="evenodd" fill-opacity="1" /><path clip-path="url(#clip920)" d="M 0 0 M136.455 955.071 L152.774 955.071 L152.774 959.006 L130.83 959.006 L130.83 955.071 Q133.492 952.317 138.075 947.687 Q142.682 943.034 143.862 941.692 Q146.108 939.168 146.987 937.432 Q147.89 935.673 147.89 933.983 Q147.89 931.229 145.946 929.493 Q144.024 927.757 140.922 927.757 Q138.723 927.757 136.27 928.52 Q133.839 929.284 131.061 930.835 L131.061 926.113 Q133.885 924.979 136.339 924.4 Q138.793 923.821 140.83 923.821 Q146.2 923.821 149.395 926.507 Q152.589 929.192 152.589 933.682 Q152.589 935.812 151.779 937.733 Q150.992 939.631 148.885 942.224 Q148.307 942.895 145.205 946.113 Q142.103 949.307 136.455 955.071 Z" fill="#000000" fill-rule="evenodd" fill-opacity="1" /><path clip-path="url(#clip920)" d="M 0 0 M172.589 927.525 Q168.978 927.525 167.149 931.09 Q165.344 934.631 165.344 941.761 Q165.344 948.868 167.149 952.432 Q168.978 955.974 172.589 955.974 Q176.223 955.974 178.029 952.432 Q179.857 948.868 179.857 941.761 Q179.857 934.631 178.029 931.09 Q176.223 927.525 172.589 927.525 M172.589 923.821 Q178.399 923.821 181.455 928.428 Q184.533 933.011 184.533 941.761 Q184.533 950.488 181.455 955.094 Q178.399 959.678 172.589 959.678 Q166.779 959.678 163.7 955.094 Q160.645 950.488 160.645 941.761 Q160.645 933.011 163.7 928.428 Q166.779 923.821 172.589 923.821 Z" fill="#000000" fill-rule="evenodd" fill-opacity="1" /><path clip-path="url(#clip920)" d="M 0 0 M146.594 718.038 Q149.95 718.755 151.825 721.024 Q153.723 723.292 153.723 726.625 Q153.723 731.741 150.205 734.542 Q146.686 737.343 140.205 737.343 Q138.029 737.343 135.714 736.903 Q133.422 736.486 130.969 735.63 L130.969 731.116 Q132.913 732.25 135.228 732.829 Q137.543 733.408 140.066 733.408 Q144.464 733.408 146.756 731.672 Q149.07 729.936 149.07 726.625 Q149.07 723.57 146.918 721.857 Q144.788 720.121 140.969 720.121 L136.941 720.121 L136.941 716.278 L141.154 716.278 Q144.603 716.278 146.432 714.913 Q148.26 713.524 148.26 710.931 Q148.26 708.269 146.362 706.857 Q144.487 705.422 140.969 705.422 Q139.047 705.422 136.848 705.839 Q134.649 706.255 132.01 707.135 L132.01 702.968 Q134.672 702.227 136.987 701.857 Q139.325 701.487 141.385 701.487 Q146.709 701.487 149.811 703.917 Q152.913 706.325 152.913 710.445 Q152.913 713.315 151.27 715.306 Q149.626 717.274 146.594 718.038 Z" fill="#000000" fill-rule="evenodd" fill-opacity="1" /><path clip-path="url(#clip920)" d="M 0 0 M172.589 705.19 Q168.978 705.19 167.149 708.755 Q165.344 712.297 165.344 719.426 Q165.344 726.533 167.149 730.098 Q168.978 733.639 172.589 733.639 Q176.223 733.639 178.029 730.098 Q179.857 726.533 179.857 719.426 Q179.857 712.297 178.029 708.755 Q176.223 705.19 172.589 705.19 M172.589 701.487 Q178.399 701.487 181.455 706.093 Q184.533 710.676 184.533 719.426 Q184.533 728.153 181.455 732.76 Q178.399 737.343 172.589 737.343 Q166.779 737.343 163.7 732.76 Q160.645 728.153 160.645 719.426 Q160.645 710.676 163.7 706.093 Q166.779 701.487 172.589 701.487 Z" fill="#000000" fill-rule="evenodd" fill-opacity="1" /><path clip-path="url(#clip920)" d="M 0 0 M145.274 483.851 L133.469 502.3 L145.274 502.3 L145.274 483.851 M144.047 479.777 L149.927 479.777 L149.927 502.3 L154.857 502.3 L154.857 506.189 L149.927 506.189 L149.927 514.337 L145.274 514.337 L145.274 506.189 L129.672 506.189 L129.672 501.675 L144.047 479.777 Z" fill="#000000" fill-rule="evenodd" fill-opacity="1" /><path clip-path="url(#clip920)" d="M 0 0 M172.589 482.856 Q168.978 482.856 167.149 486.42 Q165.344 489.962 165.344 497.092 Q165.344 504.198 167.149 507.763 Q168.978 511.305 172.589 511.305 Q176.223 511.305 178.029 507.763 Q179.857 504.198 179.857 497.092 Q179.857 489.962 178.029 486.42 Q176.223 482.856 172.589 482.856 M172.589 479.152 Q178.399 479.152 181.455 483.758 Q184.533 488.342 184.533 497.092 Q184.533 505.819 181.455 510.425 Q178.399 515.008 172.589 515.008 Q166.779 515.008 163.7 510.425 Q160.645 505.819 160.645 497.092 Q160.645 488.342 163.7 483.758 Q166.779 479.152 172.589 479.152 Z" fill="#000000" fill-rule="evenodd" fill-opacity="1" /><path clip-path="url(#clip920)" d="M 0 0 M132.473 257.442 L150.83 257.442 L150.83 261.378 L136.756 261.378 L136.756 269.85 Q137.774 269.502 138.793 269.34 Q139.811 269.155 140.83 269.155 Q146.617 269.155 149.996 272.327 Q153.376 275.498 153.376 280.914 Q153.376 286.493 149.904 289.595 Q146.432 292.674 140.112 292.674 Q137.936 292.674 135.668 292.303 Q133.422 291.933 131.015 291.192 L131.015 286.493 Q133.098 287.627 135.321 288.183 Q137.543 288.738 140.02 288.738 Q144.024 288.738 146.362 286.632 Q148.7 284.526 148.7 280.914 Q148.7 277.303 146.362 275.197 Q144.024 273.09 140.02 273.09 Q138.145 273.09 136.27 273.507 Q134.418 273.924 132.473 274.803 L132.473 257.442 Z" fill="#000000" fill-rule="evenodd" fill-opacity="1" /><path clip-path="url(#clip920)" d="M 0 0 M172.589 260.521 Q168.978 260.521 167.149 264.086 Q165.344 267.627 165.344 274.757 Q165.344 281.864 167.149 285.428 Q168.978 288.97 172.589 288.97 Q176.223 288.97 178.029 285.428 Q179.857 281.864 179.857 274.757 Q179.857 267.627 178.029 264.086 Q176.223 260.521 172.589 260.521 M172.589 256.817 Q178.399 256.817 181.455 261.424 Q184.533 266.007 184.533 274.757 Q184.533 283.484 181.455 288.09 Q178.399 292.674 172.589 292.674 Q166.779 292.674 163.7 288.09 Q160.645 283.484 160.645 274.757 Q160.645 266.007 163.7 261.424 Q166.779 256.817 172.589 256.817 Z" fill="#000000" fill-rule="evenodd" fill-opacity="1" /><path clip-path="url(#clip920)" d="M 0 0 M49.6875 837.926 L50.6118 838.49 Q49.1013 841.984 46.6891 846.335 Q49.1013 850.686 50.6118 854.181 L49.6875 854.722 Q46.3735 850.912 43.826 846.335 Q46.396 841.714 49.6875 837.926 Z" fill="#000000" fill-rule="evenodd" fill-opacity="1" /><path clip-path="url(#clip920)" d="M 0 0 M60.7296 835.341 Q60.7618 835.341 61.9212 835.534 L91.1964 842.877 Q92.7423 843.263 94.2881 844.358 Q95.8662 845.421 97.2189 847.128 Q98.6037 848.803 99.4411 851.379 Q100.311 853.924 100.311 856.854 Q100.311 861.524 99.3122 863.585 Q98.3461 865.614 96.2849 865.614 Q94.4814 865.614 93.4508 864.487 Q92.4524 863.36 92.4524 862.072 Q92.4524 860.848 93.1609 860.204 Q93.8695 859.56 94.7712 859.56 Q95.7696 859.56 96.768 860.236 Q97.7986 860.912 98.185 862.265 Q98.8614 860.107 98.8614 856.983 Q98.8614 850.381 91.8727 847.547 Q91.7761 847.482 91.7439 847.482 L83.0161 845.292 L82.9517 845.389 Q83.5958 845.936 84.3365 846.806 Q85.0451 847.643 85.9146 849.447 Q86.7842 851.25 86.7842 853.022 Q86.7842 856.725 83.9501 859.27 Q81.0837 861.782 76.3495 861.782 Q72.9034 861.782 69.4574 860.397 Q65.9792 858.98 63.4349 856.79 Q60.8584 854.568 59.2482 851.734 Q57.6379 848.867 57.6379 846.098 Q57.6379 844.165 58.7973 842.523 Q59.9245 840.88 61.7924 839.978 Q60.2465 839.817 59.6024 838.948 Q58.9583 838.046 58.9583 837.273 Q58.9583 836.404 59.4414 835.888 Q59.8923 835.341 60.7296 835.341 M64.7554 840.751 Q64.5621 840.751 64.0468 840.88 Q63.4993 841.009 62.6298 841.395 Q61.7602 841.75 60.9873 842.297 Q60.2143 842.845 59.6668 843.843 Q59.0871 844.809 59.0871 846.033 Q59.0871 848.03 60.7618 850.027 Q62.4043 852.023 64.9486 853.408 Q67.3962 854.696 72.1305 855.92 Q76.8648 857.112 79.2802 857.112 Q81.6634 857.112 83.4992 856.081 Q85.3349 855.051 85.3349 852.829 Q85.3349 850.252 82.9517 847.482 Q80.4718 844.616 78.3462 844.133 L65.7537 840.945 Q64.9808 840.751 64.7554 840.751 Z" fill="#000000" fill-rule="evenodd" fill-opacity="1" /><path clip-path="url(#clip920)" d="M 0 0 M31.4713 827.305 Q23.671 827.305 17.3812 824.397 Q14.7436 823.157 12.5342 821.421 Q10.3249 819.685 9.35551 818.535 Q8.38611 817.386 8.38611 817.07 Q8.38611 816.619 8.837 816.597 Q9.06244 816.597 9.62604 817.205 Q17.2009 824.645 31.4713 824.622 Q45.7868 824.622 53.0685 817.386 Q53.8576 816.597 54.1056 816.597 Q54.5564 816.597 54.5564 817.07 Q54.5564 817.386 53.6321 818.49 Q52.7078 819.595 50.5887 821.308 Q48.4695 823.022 45.877 824.262 Q39.5872 827.305 31.4713 827.305 Z" fill="#000000" fill-rule="evenodd" fill-opacity="1" /><path clip-path="url(#clip920)" d="M 0 0 M43.0139 809.576 Q42.1797 809.576 41.9317 809.508 Q41.6838 809.418 41.3005 809.057 L31.4262 800.198 Q25.9705 795.351 21.2137 795.351 Q18.1252 795.351 15.9158 796.974 Q13.7065 798.574 13.7065 801.528 Q13.7065 803.557 14.9464 805.27 Q16.1864 806.983 18.3957 807.772 Q18.3506 807.637 18.3506 807.164 Q18.3506 806.014 19.072 805.383 Q19.7934 804.729 20.7628 804.729 Q22.0028 804.729 22.6114 805.541 Q23.1976 806.33 23.1976 807.119 Q23.1976 807.434 23.13 807.863 Q23.0623 808.268 22.4311 808.922 Q21.7773 809.576 20.6276 809.576 Q17.4038 809.576 14.8337 807.141 Q12.2637 804.684 12.2637 800.942 Q12.2637 796.703 14.7886 793.93 Q17.291 791.135 21.2137 791.135 Q22.5889 791.135 23.8514 791.563 Q25.0913 791.969 26.0607 792.533 Q27.0301 793.074 28.5856 794.562 Q30.1412 796.049 31.2458 797.244 Q32.3505 798.439 34.6951 801.122 L39.4519 806.014 L39.4519 797.695 Q39.4519 793.637 39.0912 793.322 Q38.4374 792.871 34.9882 792.307 L34.9882 791.135 L43.0139 792.442 L43.0139 809.576 Z" fill="#000000" fill-rule="evenodd" fill-opacity="1" /><path clip-path="url(#clip920)" d="M 0 0 M54.1056 786.711 Q53.8801 786.711 53.3165 786.125 Q45.7417 778.685 31.4713 778.685 Q17.1558 778.685 9.91911 785.832 Q9.08498 786.711 8.837 786.711 Q8.38611 786.711 8.38611 786.26 Q8.38611 785.945 9.31042 784.84 Q10.2347 783.713 12.3539 782.022 Q14.473 780.309 17.0656 779.046 Q23.3554 776.003 31.4713 776.003 Q39.2715 776.003 45.5613 778.911 Q48.199 780.151 50.4083 781.887 Q52.6176 783.623 53.587 784.772 Q54.5564 785.922 54.5564 786.26 Q54.5564 786.711 54.1056 786.711 Z" fill="#000000" fill-rule="evenodd" fill-opacity="1" /><path clip-path="url(#clip920)" d="M 0 0 M70.2948 761.942 Q59.1515 761.942 50.1661 757.787 Q46.398 756.016 43.2418 753.536 Q40.0857 751.056 38.7008 749.414 Q37.316 747.771 37.316 747.32 Q37.316 746.676 37.9601 746.644 Q38.2821 746.644 39.0873 747.514 Q49.9085 758.142 70.2948 758.109 Q90.7455 758.109 101.148 747.771 Q102.275 746.644 102.629 746.644 Q103.274 746.644 103.274 747.32 Q103.274 747.771 101.953 749.349 Q100.633 750.927 97.6053 753.375 Q94.578 755.823 90.8743 757.594 Q81.8889 761.942 70.2948 761.942 Z" fill="#000000" fill-rule="evenodd" fill-opacity="1" /><path clip-path="url(#clip920)" d="M 0 0 M59.4092 705.568 Q59.699 705.568 60.6974 705.826 Q61.6636 706.051 63.5637 706.792 Q65.4317 707.5 67.5251 708.595 Q69.5862 709.658 72.1949 711.623 Q74.8036 713.587 77.0902 716.035 Q81.4058 720.64 83.7246 725.568 Q86.0434 730.463 86.7842 734.65 L86.7842 735.584 Q86.7842 736.614 85.979 736.614 L83.0161 735.906 L66.8809 731.88 Q61.9534 730.624 61.5348 730.624 Q61.1483 730.624 60.9551 730.785 Q60.7296 730.914 60.5686 731.687 Q60.4076 732.428 60.4076 733.909 Q60.4076 734.521 60.3754 734.811 Q60.3432 735.069 60.1821 735.294 Q59.9889 735.519 59.6024 735.519 Q59.0549 735.519 58.7651 735.294 Q58.443 735.036 58.3786 734.843 Q58.3142 734.65 58.282 734.263 Q58.2498 733.716 58.0887 731.88 Q57.8955 730.044 57.7667 728.466 Q57.6379 726.888 57.6379 726.212 Q57.6379 725.826 57.8311 725.6 Q57.9921 725.375 58.1854 725.375 L58.3464 725.342 L84.5942 731.816 Q83.8212 729.433 82.533 727.082 Q81.2448 724.698 79.1192 722.122 Q76.9614 719.545 74.2883 717.355 Q71.6152 715.165 67.8793 713.233 Q64.1112 711.268 59.7957 710.045 Q58.9261 709.819 58.4108 709.272 Q57.8955 708.692 57.7667 708.273 Q57.6379 707.855 57.6379 707.468 Q57.6379 706.599 58.121 706.083 Q58.5718 705.568 59.4092 705.568 Z" fill="#000000" fill-rule="evenodd" fill-opacity="1" /><path clip-path="url(#clip920)" d="M 0 0 M102.629 704.365 Q102.307 704.365 101.502 703.528 Q90.6811 692.9 70.2948 692.9 Q49.844 692.9 39.506 703.109 Q38.3143 704.365 37.9601 704.365 Q37.316 704.365 37.316 703.721 Q37.316 703.27 38.6364 701.692 Q39.9568 700.082 42.9842 697.666 Q46.0115 695.219 49.7152 693.415 Q58.7007 689.067 70.2948 689.067 Q81.438 689.067 90.4234 693.222 Q94.1915 694.993 97.3477 697.473 Q100.504 699.953 101.889 701.595 Q103.274 703.238 103.274 703.721 Q103.274 704.365 102.629 704.365 Z" fill="#000000" fill-rule="evenodd" fill-opacity="1" /><path clip-path="url(#clip920)" d="M 0 0 M605.161 18.8205 L605.161 41.5461 L615.45 41.5461 Q621.162 41.5461 624.281 38.5889 Q627.4 35.6318 627.4 30.163 Q627.4 24.7348 624.281 21.7777 Q621.162 18.8205 615.45 18.8205 L605.161 18.8205 M596.978 12.096 L615.45 12.096 Q625.618 12.096 630.803 16.714 Q636.029 21.2916 636.029 30.163 Q636.029 39.1155 630.803 43.6931 Q625.618 48.2706 615.45 48.2706 L605.161 48.2706 L605.161 72.576 L596.978 72.576 L596.978 12.096 Z" fill="#000000" fill-rule="evenodd" fill-opacity="1" /><path clip-path="url(#clip920)" d="M 0 0 M684.397 45.1919 L684.397 72.576 L676.943 72.576 L676.943 45.4349 Q676.943 38.994 674.431 35.7938 Q671.92 32.5936 666.897 32.5936 Q660.861 32.5936 657.377 36.4419 Q653.893 40.2903 653.893 46.9338 L653.893 72.576 L646.399 72.576 L646.399 9.54393 L653.893 9.54393 L653.893 34.2544 Q656.567 30.163 660.172 28.1376 Q663.818 26.1121 668.558 26.1121 Q676.376 26.1121 680.386 30.9732 Q684.397 35.7938 684.397 45.1919 Z" fill="#000000" fill-rule="evenodd" fill-opacity="1" /><path clip-path="url(#clip920)" d="M 0 0 M716.844 32.4315 Q710.849 32.4315 707.365 37.1306 Q703.882 41.7891 703.882 49.9314 Q703.882 58.0738 707.325 62.7728 Q710.809 67.4314 716.844 67.4314 Q722.799 67.4314 726.283 62.7323 Q729.767 58.0333 729.767 49.9314 Q729.767 41.8701 726.283 37.1711 Q722.799 32.4315 716.844 32.4315 M716.844 26.1121 Q726.567 26.1121 732.116 32.4315 Q737.666 38.7509 737.666 49.9314 Q737.666 61.0714 732.116 67.4314 Q726.567 73.7508 716.844 73.7508 Q707.082 73.7508 701.532 67.4314 Q696.023 61.0714 696.023 49.9314 Q696.023 38.7509 701.532 32.4315 Q707.082 26.1121 716.844 26.1121 Z" fill="#000000" fill-rule="evenodd" fill-opacity="1" /><path clip-path="url(#clip920)" d="M 0 0 M757.394 14.324 L757.394 27.2059 L772.747 27.2059 L772.747 32.9987 L757.394 32.9987 L757.394 57.6282 Q757.394 63.1779 758.893 64.7578 Q760.432 66.3376 765.091 66.3376 L772.747 66.3376 L772.747 72.576 L765.091 72.576 Q756.462 72.576 753.181 69.3758 Q749.9 66.1351 749.9 57.6282 L749.9 32.9987 L744.431 32.9987 L744.431 27.2059 L749.9 27.2059 L749.9 14.324 L757.394 14.324 Z" fill="#000000" fill-rule="evenodd" fill-opacity="1" /><path clip-path="url(#clip920)" d="M 0 0 M800.131 32.4315 Q794.136 32.4315 790.652 37.1306 Q787.168 41.7891 787.168 49.9314 Q787.168 58.0738 790.611 62.7728 Q794.095 67.4314 800.131 67.4314 Q806.086 67.4314 809.57 62.7323 Q813.053 58.0333 813.053 49.9314 Q813.053 41.8701 809.57 37.1711 Q806.086 32.4315 800.131 32.4315 M800.131 26.1121 Q809.853 26.1121 815.403 32.4315 Q820.953 38.7509 820.953 49.9314 Q820.953 61.0714 815.403 67.4314 Q809.853 73.7508 800.131 73.7508 Q790.368 73.7508 784.819 67.4314 Q779.309 61.0714 779.309 49.9314 Q779.309 38.7509 784.819 32.4315 Q790.368 26.1121 800.131 26.1121 Z" fill="#000000" fill-rule="evenodd" fill-opacity="1" /><path clip-path="url(#clip920)" d="M 0 0 M871.022 45.1919 L871.022 72.576 L863.568 72.576 L863.568 45.4349 Q863.568 38.994 861.057 35.7938 Q858.545 32.5936 853.522 32.5936 Q847.486 32.5936 844.002 36.4419 Q840.519 40.2903 840.519 46.9338 L840.519 72.576 L833.024 72.576 L833.024 27.2059 L840.519 27.2059 L840.519 34.2544 Q843.192 30.163 846.797 28.1376 Q850.443 26.1121 855.183 26.1121 Q863.001 26.1121 867.011 30.9732 Q871.022 35.7938 871.022 45.1919 Z" fill="#000000" fill-rule="evenodd" fill-opacity="1" /><path clip-path="url(#clip920)" d="M 0 0 M957.873 16.7545 L957.873 25.383 Q953.741 21.5346 949.042 19.6307 Q944.384 17.7268 939.118 17.7268 Q928.747 17.7268 923.238 24.0867 Q917.729 30.4061 917.729 42.3968 Q917.729 54.3469 923.238 60.7069 Q928.747 67.0263 939.118 67.0263 Q944.384 67.0263 949.042 65.1223 Q953.741 63.2184 957.873 59.3701 L957.873 67.9175 Q953.579 70.8341 948.759 72.2924 Q943.979 73.7508 938.631 73.7508 Q924.899 73.7508 917 65.3654 Q909.1 56.9395 909.1 42.3968 Q909.1 27.8135 917 19.4281 Q924.899 11.0023 938.631 11.0023 Q944.06 11.0023 948.84 12.4606 Q953.66 13.8784 957.873 16.7545 Z" fill="#000000" fill-rule="evenodd" fill-opacity="1" /><path clip-path="url(#clip920)" d="M 0 0 M987.769 32.4315 Q981.774 32.4315 978.29 37.1306 Q974.806 41.7891 974.806 49.9314 Q974.806 58.0738 978.249 62.7728 Q981.733 67.4314 987.769 67.4314 Q993.724 67.4314 997.207 62.7323 Q1000.69 58.0333 1000.69 49.9314 Q1000.69 41.8701 997.207 37.1711 Q993.724 32.4315 987.769 32.4315 M987.769 26.1121 Q997.491 26.1121 1003.04 32.4315 Q1008.59 38.7509 1008.59 49.9314 Q1008.59 61.0714 1003.04 67.4314 Q997.491 73.7508 987.769 73.7508 Q978.006 73.7508 972.456 67.4314 Q966.947 61.0714 966.947 49.9314 Q966.947 38.7509 972.456 32.4315 Q978.006 26.1121 987.769 26.1121 Z" fill="#000000" fill-rule="evenodd" fill-opacity="1" /><path clip-path="url(#clip920)" d="M 0 0 M1047.24 34.1734 Q1045.98 33.4443 1044.48 33.1202 Q1043.02 32.7556 1041.24 32.7556 Q1034.92 32.7556 1031.52 36.8875 Q1028.16 40.9789 1028.16 48.6757 L1028.16 72.576 L1020.66 72.576 L1020.66 27.2059 L1028.16 27.2059 L1028.16 34.2544 Q1030.51 30.1225 1034.27 28.1376 Q1038.04 26.1121 1043.43 26.1121 Q1044.2 26.1121 1045.13 26.2337 Q1046.06 26.3147 1047.2 26.5172 L1047.24 34.1734 Z" fill="#000000" fill-rule="evenodd" fill-opacity="1" /><path clip-path="url(#clip920)" d="M 0 0 M1079.89 34.1734 Q1078.63 33.4443 1077.13 33.1202 Q1075.67 32.7556 1073.89 32.7556 Q1067.57 32.7556 1064.17 36.8875 Q1060.81 40.9789 1060.81 48.6757 L1060.81 72.576 L1053.31 72.576 L1053.31 27.2059 L1060.81 27.2059 L1060.81 34.2544 Q1063.16 30.1225 1066.92 28.1376 Q1070.69 26.1121 1076.08 26.1121 Q1076.85 26.1121 1077.78 26.2337 Q1078.71 26.3147 1079.85 26.5172 L1079.89 34.1734 Z" fill="#000000" fill-rule="evenodd" fill-opacity="1" /><path clip-path="url(#clip920)" d="M 0 0 M1124.69 48.0275 L1124.69 51.6733 L1090.42 51.6733 Q1090.9 59.3701 1095.04 63.421 Q1099.21 67.4314 1106.62 67.4314 Q1110.92 67.4314 1114.93 66.3781 Q1118.98 65.3249 1122.95 63.2184 L1122.95 70.267 Q1118.94 71.9684 1114.72 72.8596 Q1110.51 73.7508 1106.18 73.7508 Q1095.32 73.7508 1088.96 67.4314 Q1082.64 61.1119 1082.64 50.3365 Q1082.64 39.1965 1088.64 32.6746 Q1094.67 26.1121 1104.88 26.1121 Q1114.04 26.1121 1119.34 32.0264 Q1124.69 37.9003 1124.69 48.0275 M1117.24 45.84 Q1117.15 39.7232 1113.79 36.0774 Q1110.47 32.4315 1104.96 32.4315 Q1098.72 32.4315 1094.96 35.9558 Q1091.23 39.4801 1090.66 45.8805 L1117.24 45.84 Z" fill="#000000" fill-rule="evenodd" fill-opacity="1" /><path clip-path="url(#clip920)" d="M 0 0 M1136.92 9.54393 L1144.38 9.54393 L1144.38 72.576 L1136.92 72.576 L1136.92 9.54393 Z" fill="#000000" fill-rule="evenodd" fill-opacity="1" /><path clip-path="url(#clip920)" d="M 0 0 M1180.59 49.7694 Q1171.56 49.7694 1168.07 51.8354 Q1164.59 53.9013 1164.59 58.8839 Q1164.59 62.8538 1167.18 65.2034 Q1169.82 67.5124 1174.31 67.5124 Q1180.51 67.5124 1184.24 63.1374 Q1188.01 58.7219 1188.01 51.4303 L1188.01 49.7694 L1180.59 49.7694 M1195.46 46.6907 L1195.46 72.576 L1188.01 72.576 L1188.01 65.6895 Q1185.45 69.8214 1181.65 71.8063 Q1177.84 73.7508 1172.33 73.7508 Q1165.36 73.7508 1161.23 69.8619 Q1157.14 65.9325 1157.14 59.3701 Q1157.14 51.7138 1162.24 47.825 Q1167.39 43.9361 1177.55 43.9361 L1188.01 43.9361 L1188.01 43.2069 Q1188.01 38.0623 1184.6 35.2672 Q1181.24 32.4315 1175.12 32.4315 Q1171.23 32.4315 1167.55 33.3632 Q1163.86 34.295 1160.46 36.1584 L1160.46 29.2718 Q1164.55 27.692 1168.4 26.9223 Q1172.25 26.1121 1175.89 26.1121 Q1185.74 26.1121 1190.6 31.2163 Q1195.46 36.3204 1195.46 46.6907 Z" fill="#000000" fill-rule="evenodd" fill-opacity="1" /><path clip-path="url(#clip920)" d="M 0 0 M1218.18 14.324 L1218.18 27.2059 L1233.54 27.2059 L1233.54 32.9987 L1218.18 32.9987 L1218.18 57.6282 Q1218.18 63.1779 1219.68 64.7578 Q1221.22 66.3376 1225.88 66.3376 L1233.54 66.3376 L1233.54 72.576 L1225.88 72.576 Q1217.25 72.576 1213.97 69.3758 Q1210.69 66.1351 1210.69 57.6282 L1210.69 32.9987 L1205.22 32.9987 L1205.22 27.2059 L1210.69 27.2059 L1210.69 14.324 L1218.18 14.324 Z" fill="#000000" fill-rule="evenodd" fill-opacity="1" /><path clip-path="url(#clip920)" d="M 0 0 M1243.34 27.2059 L1250.79 27.2059 L1250.79 72.576 L1243.34 72.576 L1243.34 27.2059 M1243.34 9.54393 L1250.79 9.54393 L1250.79 18.9825 L1243.34 18.9825 L1243.34 9.54393 Z" fill="#000000" fill-rule="evenodd" fill-opacity="1" /><path clip-path="url(#clip920)" d="M 0 0 M1283.97 32.4315 Q1277.98 32.4315 1274.49 37.1306 Q1271.01 41.7891 1271.01 49.9314 Q1271.01 58.0738 1274.45 62.7728 Q1277.94 67.4314 1283.97 67.4314 Q1289.93 67.4314 1293.41 62.7323 Q1296.89 58.0333 1296.89 49.9314 Q1296.89 41.8701 1293.41 37.1711 Q1289.93 32.4315 1283.97 32.4315 M1283.97 26.1121 Q1293.69 26.1121 1299.24 32.4315 Q1304.79 38.7509 1304.79 49.9314 Q1304.79 61.0714 1299.24 67.4314 Q1293.69 73.7508 1283.97 73.7508 Q1274.21 73.7508 1268.66 67.4314 Q1263.15 61.0714 1263.15 49.9314 Q1263.15 38.7509 1268.66 32.4315 Q1274.21 26.1121 1283.97 26.1121 Z" fill="#000000" fill-rule="evenodd" fill-opacity="1" /><path clip-path="url(#clip920)" d="M 0 0 M1354.86 45.1919 L1354.86 72.576 L1347.41 72.576 L1347.41 45.4349 Q1347.41 38.994 1344.9 35.7938 Q1342.39 32.5936 1337.36 32.5936 Q1331.33 32.5936 1327.84 36.4419 Q1324.36 40.2903 1324.36 46.9338 L1324.36 72.576 L1316.86 72.576 L1316.86 27.2059 L1324.36 27.2059 L1324.36 34.2544 Q1327.03 30.163 1330.64 28.1376 Q1334.28 26.1121 1339.02 26.1121 Q1346.84 26.1121 1350.85 30.9732 Q1354.86 35.7938 1354.86 45.1919 Z" fill="#000000" fill-rule="evenodd" fill-opacity="1" /><path clip-path="url(#clip920)" d="M 0 0 M1398.65 28.5427 L1398.65 35.5912 Q1395.49 33.9709 1392.09 33.1607 Q1388.69 32.3505 1385.04 32.3505 Q1379.49 32.3505 1376.7 34.0519 Q1373.94 35.7533 1373.94 39.156 Q1373.94 41.7486 1375.93 43.2475 Q1377.91 44.7058 1383.91 46.0426 L1386.46 46.6097 Q1394.4 48.3111 1397.72 51.4303 Q1401.08 54.509 1401.08 60.0587 Q1401.08 66.3781 1396.06 70.0644 Q1391.08 73.7508 1382.33 73.7508 Q1378.68 73.7508 1374.71 73.0216 Q1370.78 72.3329 1366.41 70.9151 L1366.41 63.2184 Q1370.54 65.3654 1374.55 66.4591 Q1378.56 67.5124 1382.49 67.5124 Q1387.76 67.5124 1390.59 65.73 Q1393.43 63.9071 1393.43 60.6258 Q1393.43 57.5877 1391.36 55.9673 Q1389.34 54.3469 1382.41 52.8481 L1379.82 52.2405 Q1372.89 50.7821 1369.81 47.7845 Q1366.73 44.7463 1366.73 39.4801 Q1366.73 33.0797 1371.27 29.5959 Q1375.8 26.1121 1384.15 26.1121 Q1388.28 26.1121 1391.93 26.7198 Q1395.57 27.3274 1398.65 28.5427 Z" fill="#000000" fill-rule="evenodd" fill-opacity="1" /><path clip-path="url(#clip920)" d="M 0 0 M1433.98 27.2059 L1441.88 27.2059 L1456.05 65.2844 L1470.23 27.2059 L1478.13 27.2059 L1461.12 72.576 L1450.99 72.576 L1433.98 27.2059 Z" fill="#000000" fill-rule="evenodd" fill-opacity="1" /><path clip-path="url(#clip920)" d="M 0 0 M1517.34 28.5427 L1517.34 35.5912 Q1514.18 33.9709 1510.78 33.1607 Q1507.38 32.3505 1503.73 32.3505 Q1498.18 32.3505 1495.39 34.0519 Q1492.63 35.7533 1492.63 39.156 Q1492.63 41.7486 1494.62 43.2475 Q1496.6 44.7058 1502.6 46.0426 L1505.15 46.6097 Q1513.09 48.3111 1516.41 51.4303 Q1519.77 54.509 1519.77 60.0587 Q1519.77 66.3781 1514.75 70.0644 Q1509.77 73.7508 1501.02 73.7508 Q1497.37 73.7508 1493.4 73.0216 Q1489.47 72.3329 1485.1 70.9151 L1485.1 63.2184 Q1489.23 65.3654 1493.24 66.4591 Q1497.25 67.5124 1501.18 67.5124 Q1506.45 67.5124 1509.28 65.73 Q1512.12 63.9071 1512.12 60.6258 Q1512.12 57.5877 1510.05 55.9673 Q1508.03 54.3469 1501.1 52.8481 L1498.51 52.2405 Q1491.58 50.7821 1488.5 47.7845 Q1485.42 44.7463 1485.42 39.4801 Q1485.42 33.0797 1489.96 29.5959 Q1494.5 26.1121 1502.84 26.1121 Q1506.97 26.1121 1510.62 26.7198 Q1514.26 27.3274 1517.34 28.5427 Z" fill="#000000" fill-rule="evenodd" fill-opacity="1" /><path clip-path="url(#clip920)" d="M 0 0 M1558.34 12.096 L1593.1 12.096 L1593.1 18.9825 L1566.52 18.9825 L1566.52 36.8065 L1590.5 36.8065 L1590.5 43.6931 L1566.52 43.6931 L1566.52 72.576 L1558.34 72.576 L1558.34 12.096 Z" fill="#000000" fill-rule="evenodd" fill-opacity="1" /><path clip-path="url(#clip920)" d="M 0 0 M1625.99 34.1734 Q1624.73 33.4443 1623.23 33.1202 Q1621.78 32.7556 1619.99 32.7556 Q1613.67 32.7556 1610.27 36.8875 Q1606.91 40.9789 1606.91 48.6757 L1606.91 72.576 L1599.41 72.576 L1599.41 27.2059 L1606.91 27.2059 L1606.91 34.2544 Q1609.26 30.1225 1613.03 28.1376 Q1616.79 26.1121 1622.18 26.1121 Q1622.95 26.1121 1623.88 26.2337 Q1624.81 26.3147 1625.95 26.5172 L1625.99 34.1734 Z" fill="#000000" fill-rule="evenodd" fill-opacity="1" /><path clip-path="url(#clip920)" d="M 0 0 M1670.79 48.0275 L1670.79 51.6733 L1636.52 51.6733 Q1637.01 59.3701 1641.14 63.421 Q1645.31 67.4314 1652.72 67.4314 Q1657.02 67.4314 1661.03 66.3781 Q1665.08 65.3249 1669.05 63.2184 L1669.05 70.267 Q1665.04 71.9684 1660.83 72.8596 Q1656.61 73.7508 1652.28 73.7508 Q1641.42 73.7508 1635.06 67.4314 Q1628.74 61.1119 1628.74 50.3365 Q1628.74 39.1965 1634.74 32.6746 Q1640.77 26.1121 1650.98 26.1121 Q1660.14 26.1121 1665.44 32.0264 Q1670.79 37.9003 1670.79 48.0275 M1663.34 45.84 Q1663.26 39.7232 1659.89 36.0774 Q1656.57 32.4315 1651.06 32.4315 Q1644.83 32.4315 1641.06 35.9558 Q1637.33 39.4801 1636.76 45.8805 L1663.34 45.84 Z" fill="#000000" fill-rule="evenodd" fill-opacity="1" /><path clip-path="url(#clip920)" d="M 0 0 M1687.48 49.9314 Q1687.48 58.1548 1690.84 62.8538 Q1694.25 67.5124 1700.16 67.5124 Q1706.08 67.5124 1709.48 62.8538 Q1712.88 58.1548 1712.88 49.9314 Q1712.88 41.7081 1709.48 37.0496 Q1706.08 32.3505 1700.16 32.3505 Q1694.25 32.3505 1690.84 37.0496 Q1687.48 41.7081 1687.48 49.9314 M1712.88 65.7705 Q1710.53 69.8214 1706.93 71.8063 Q1703.36 73.7508 1698.34 73.7508 Q1690.11 73.7508 1684.93 67.1883 Q1679.78 60.6258 1679.78 49.9314 Q1679.78 39.2371 1684.93 32.6746 Q1690.11 26.1121 1698.34 26.1121 Q1703.36 26.1121 1706.93 28.0971 Q1710.53 30.0415 1712.88 34.0924 L1712.88 27.2059 L1720.33 27.2059 L1720.33 89.8329 L1712.88 89.8329 L1712.88 65.7705 Z" fill="#000000" fill-rule="evenodd" fill-opacity="1" /><path clip-path="url(#clip920)" d="M 0 0 M1734.92 54.671 L1734.92 27.2059 L1742.37 27.2059 L1742.37 54.3874 Q1742.37 60.8284 1744.88 64.0691 Q1747.39 67.2693 1752.42 67.2693 Q1758.45 67.2693 1761.94 63.421 Q1765.46 59.5726 1765.46 52.9291 L1765.46 27.2059 L1772.92 27.2059 L1772.92 72.576 L1765.46 72.576 L1765.46 65.6084 Q1762.75 69.7404 1759.14 71.7658 Q1755.58 73.7508 1750.84 73.7508 Q1743.02 73.7508 1738.97 68.8897 Q1734.92 64.0286 1734.92 54.671 M1753.67 26.1121 L1753.67 26.1121 Z" fill="#000000" fill-rule="evenodd" fill-opacity="1" /><path clip-path="url(#clip920)" d="M 0 0 M1827.08 48.0275 L1827.08 51.6733 L1792.81 51.6733 Q1793.29 59.3701 1797.42 63.421 Q1801.6 67.4314 1809.01 67.4314 Q1813.3 67.4314 1817.31 66.3781 Q1821.36 65.3249 1825.33 63.2184 L1825.33 70.267 Q1821.32 71.9684 1817.11 72.8596 Q1812.9 73.7508 1808.56 73.7508 Q1797.71 73.7508 1791.35 67.4314 Q1785.03 61.1119 1785.03 50.3365 Q1785.03 39.1965 1791.02 32.6746 Q1797.06 26.1121 1807.27 26.1121 Q1816.42 26.1121 1821.73 32.0264 Q1827.08 37.9003 1827.08 48.0275 M1819.62 45.84 Q1819.54 39.7232 1816.18 36.0774 Q1812.86 32.4315 1807.35 32.4315 Q1801.11 32.4315 1797.34 35.9558 Q1793.62 39.4801 1793.05 45.8805 L1819.62 45.84 Z" fill="#000000" fill-rule="evenodd" fill-opacity="1" /><path clip-path="url(#clip920)" d="M 0 0 M1877.02 45.1919 L1877.02 72.576 L1869.57 72.576 L1869.57 45.4349 Q1869.57 38.994 1867.06 35.7938 Q1864.55 32.5936 1859.52 32.5936 Q1853.49 32.5936 1850 36.4419 Q1846.52 40.2903 1846.52 46.9338 L1846.52 72.576 L1839.03 72.576 L1839.03 27.2059 L1846.52 27.2059 L1846.52 34.2544 Q1849.19 30.163 1852.8 28.1376 Q1856.44 26.1121 1861.18 26.1121 Q1869 26.1121 1873.01 30.9732 Q1877.02 35.7938 1877.02 45.1919 Z" fill="#000000" fill-rule="evenodd" fill-opacity="1" /><path clip-path="url(#clip920)" d="M 0 0 M1924.54 28.9478 L1924.54 35.9153 Q1921.38 34.1734 1918.18 33.3227 Q1915.02 32.4315 1911.78 32.4315 Q1904.53 32.4315 1900.52 37.0496 Q1896.51 41.6271 1896.51 49.9314 Q1896.51 58.2358 1900.52 62.8538 Q1904.53 67.4314 1911.78 67.4314 Q1915.02 67.4314 1918.18 66.5807 Q1921.38 65.6895 1924.54 63.9476 L1924.54 70.8341 Q1921.42 72.2924 1918.06 73.0216 Q1914.74 73.7508 1910.97 73.7508 Q1900.72 73.7508 1894.69 67.3098 Q1888.65 60.8689 1888.65 49.9314 Q1888.65 38.832 1894.73 32.472 Q1900.84 26.1121 1911.46 26.1121 Q1914.9 26.1121 1918.18 26.8413 Q1921.46 27.5299 1924.54 28.9478 Z" fill="#000000" fill-rule="evenodd" fill-opacity="1" /><path clip-path="url(#clip920)" d="M 0 0 M1956.38 76.7889 Q1953.22 84.8907 1950.22 87.3618 Q1947.23 89.8329 1942.2 89.8329 L1936.25 89.8329 L1936.25 83.5945 L1940.62 83.5945 Q1943.7 83.5945 1945.4 82.1361 Q1947.1 80.6778 1949.17 75.2496 L1950.51 71.8468 L1932.16 27.2059 L1940.06 27.2059 L1954.23 62.6918 L1968.41 27.2059 L1976.31 27.2059 L1956.38 76.7889 Z" fill="#000000" fill-rule="evenodd" fill-opacity="1" /><polyline clip-path="url(#clip923)" style="stroke:#009af9; stroke-width:4; stroke-opacity:1; fill:none" points="
  280.879,1386.4 284.951,1329.17 289.023,1324.5 293.095,1330.94 297.167,1363.9 301.239,1269.87 305.311,1080.03 309.383,1366.45 313.455,1357.86 317.527,1354.49 
  321.598,1329.13 325.67,1299.52 329.742,1337.81 333.814,1345.54 337.886,1313.57 341.958,1362.99 346.03,1341.63 350.102,1337.43 354.174,1334.73 358.246,1332.03 
  362.318,1347.31 366.39,1317.03 370.462,1304.62 374.533,1315.91 378.605,1328.29 382.677,1252.33 386.749,1279.92 390.821,1322.19 394.893,1130.83 398.965,743.581 
  403.037,160.256 407.109,1141.85 411.181,1269.17 415.253,1137.24 419.325,1232.79 423.397,1311.64 427.468,1263.25 431.54,1221.29 435.612,1273.57 439.684,1325.06 
  443.756,1317.21 447.828,1340.54 451.9,1355.18 455.972,1267.67 460.044,1295.12 464.116,1261.1 468.188,1319.86 472.26,1331.59 476.332,1347.5 480.403,1341.07 
  484.475,1333.94 488.547,1346.21 492.619,1314.07 496.691,1280.75 500.763,1384.46 504.835,1271.99 508.907,1284.29 512.979,1320.87 517.051,1377.5 521.123,1320.37 
  525.195,1353.8 529.267,1242.64 533.339,1330.72 537.41,1338.8 541.482,1330.19 545.554,1370.24 549.626,1336.6 553.698,1362.25 557.77,1350.51 561.842,1352.31 
  565.914,1350 569.986,1348.09 574.058,1339.71 578.13,1356.74 582.202,1336.94 586.274,1352.97 590.345,1354.59 594.417,1351.7 598.489,1353.81 602.561,1352.18 
  606.633,1349.12 610.705,1341.81 614.777,1299.86 618.849,1340.6 622.921,1329.92 626.993,1325.91 631.065,1369.09 635.137,1369.93 639.209,1248.87 643.28,1365.85 
  647.352,1365.8 651.424,1361.8 655.496,1340.9 659.568,1361.99 663.64,1371.67 667.712,1365.1 671.784,1356.89 675.856,1342.31 679.928,1259.94 684,1356.12 
  688.072,1336.25 692.144,1376.35 696.216,1383.65 700.287,1380.43 704.359,1376.61 708.431,1372.41 712.503,1319.62 716.575,1373.75 720.647,1368.22 724.719,1361.47 
  728.791,1323.9 732.863,1381.83 736.935,1358.71 741.007,1186.87 745.079,1314.62 749.151,1374.24 753.222,1367.39 757.294,1357.47 761.366,1325.64 765.438,1365.53 
  769.51,1332.47 773.582,1373.03 777.654,1376.05 781.726,1378 785.798,1379.61 789.87,1380.35 793.942,1381.78 798.014,1381.49 802.086,1318.09 806.157,1294.44 
  810.229,1340.59 814.301,1360.26 818.373,1365.33 822.445,1367.92 826.517,1366.74 830.589,1331.07 834.661,1372.44 838.733,1370.41 842.805,1370.27 846.877,1367.43 
  850.949,1182.71 855.021,1371.55 859.092,1360.95 863.164,1214.65 867.236,1370.5 871.308,1312.1 875.38,1186.69 879.452,1370.81 883.524,1375.1 887.596,1366.93 
  891.668,1338.5 895.74,1374.83 899.812,1374.78 903.884,1355.12 907.956,1348.1 912.028,1349.32 916.099,1368.85 920.171,1365.34 924.243,1360.49 928.315,1346.36 
  932.387,1363.93 936.459,1343.18 940.531,1370.17 944.603,1355.21 948.675,1297.28 952.747,1250.35 956.819,1346.27 960.891,1361.08 964.963,1377.33 969.034,1341.31 
  973.106,1350.97 977.178,1351.51 981.25,1316.66 985.322,1229.45 989.394,1376.57 993.466,1360.03 997.538,1327.01 1001.61,1362.28 1005.68,1370.94 1009.75,1373.91 
  1013.83,1373.4 1017.9,1373 1021.97,1366.36 1026.04,1213.37 1030.11,1255.1 1034.19,1281.15 1038.26,1354.71 1042.33,1356.97 1046.4,1341.18 1050.47,1380.92 
  1054.54,1333.37 1058.62,1326.46 1062.69,1356.94 1066.76,1367.09 1070.83,1360.4 1074.9,1350.54 1078.98,1357.35 1083.05,1351.73 1087.12,1292.03 1091.19,1378.72 
  1095.26,1371.03 1099.34,1363.43 1103.41,1335.06 1107.48,1366.6 1111.55,1341.11 1115.62,1370.67 1119.7,1375.94 1123.77,1376.34 1127.84,1375.11 1131.91,1373.31 
  1135.98,1369.72 1140.06,1365.51 1144.13,1349.9 1148.2,1332.79 1152.27,1308.75 1156.34,1373.52 1160.41,1348.03 1164.49,1189.74 1168.56,1325.06 1172.63,1353.95 
  1176.7,1358.95 1180.77,1359.82 1184.85,1365.7 1188.92,1346.97 1192.99,1349.63 1197.06,1369.04 1201.13,1373.29 1205.21,1374.72 1209.28,1377.29 1213.35,1345.86 
  1217.42,1358.09 1221.49,1371.71 1225.57,1375.67 1229.64,1379.62 1233.71,1374.44 1237.78,1376.17 1241.85,1377.24 1245.93,1377.57 1250,1377.53 1254.07,1377.23 
  1258.14,1376.96 1262.21,1376.35 1266.28,1373.83 1270.36,1370.71 1274.43,1353.63 1278.5,1342.29 1282.57,1380.53 1286.64,1320.37 1290.72,1379.64 1294.79,1380.32 
  1298.86,1380.13 1302.93,1375.71 1307,1367.74 1311.08,1220.8 1315.15,1371.73 1319.22,1379.68 1323.29,1330.38 1327.36,1372.19 1331.44,1364.16 1335.51,1191.68 
  1339.58,1371 1343.65,1372.65 1347.72,1368.58 1351.8,1335.58 1355.87,1381.44 1359.94,1374.32 1364.01,1350.97 1368.08,1343.96 1372.16,1371.83 1376.23,1377.34 
  1380.3,1378.53 1384.37,1379.56 1388.44,1380.13 1392.51,1380.54 1396.59,1380.59 1400.66,1378.23 1404.73,1379.05 1408.8,1377.94 1412.87,1377.76 1416.95,1376.38 
  1421.02,1344.95 1425.09,1374.3 1429.16,1364.94 1433.23,1347.69 1437.31,1380.64 1441.38,1368.86 1445.45,1270.14 1449.52,1383.15 1453.59,1367.81 1457.67,1334.75 
  1461.74,1373.22 1465.81,1379.6 1469.88,1381.6 1473.95,1380.29 1478.03,1373.96 1482.1,1358.87 1486.17,1197.33 1490.24,1329.2 1494.31,1356.26 1498.38,1360.69 
  1502.46,1350.46 1506.53,1373.65 1510.6,1372.34 1514.67,1370.14 1518.74,1351.07 1522.82,1359 1526.89,1351.57 1530.96,1374.59 1535.03,1360.87 1539.1,1315.51 
  1543.18,1254.08 1547.25,1353.03 1551.32,1368.39 1555.39,1376.71 1559.46,1380.7 1563.54,1365.17 1567.61,1340.44 1571.68,1367.38 1575.75,1372.26 1579.82,1375.31 
  1583.9,1376.35 1587.97,1377.02 1592.04,1377.63 1596.11,1377.38 1600.18,1376.72 1604.25,1373.23 1608.33,1340.97 1612.4,1382.63 1616.47,1381.19 1620.54,1376.27 
  1624.61,1379.87 1628.69,1377.37 1632.76,1363.26 1636.83,1347.7 1640.9,1379.23 1644.97,1381.59 1649.05,1377.63 1653.12,1383.82 1657.19,1381.36 1661.26,1348.44 
  1665.33,1361.5 1669.41,1373.57 1673.48,1375.88 1677.55,1342.75 1681.62,1381.41 1685.69,1381.28 1689.77,1381.41 1693.84,1381.74 1697.91,1381.85 1701.98,1382.3 
  1706.05,1382.23 1710.12,1382.33 1714.2,1382.13 1718.27,1382.2 1722.34,1381.79 1726.41,1381.62 1730.48,1380.97 1734.56,1379.18 1738.63,1375.44 1742.7,1332.95 
  1746.77,1374.42 1750.84,1378.75 1754.92,1357.06 1758.99,1373.04 1763.06,1384.02 1767.13,1337.22 1771.2,1374.76 1775.28,1378.8 1779.35,1379.91 1783.42,1380.8 
  1787.49,1381.04 1791.56,1380.69 1795.64,1378.52 1799.71,1382.23 1803.78,1384.36 1807.85,1383.97 1811.92,1383.85 1815.99,1383.72 1820.07,1383.69 1824.14,1383.73 
  1828.21,1383.65 1832.28,1383.69 1836.35,1383.81 1840.43,1383.77 1844.5,1383.87 1848.57,1383.68 1852.64,1383.83 1856.71,1383.65 1860.79,1383.7 1864.86,1383.65 
  1868.93,1383.62 1873,1383.76 1877.07,1331.28 1881.15,1382.87 1885.22,1382.96 1889.29,1383.12 1893.36,1382.82 1897.43,1382.3 1901.51,1381.77 1905.58,1381.08 
  1909.65,1378.95 1913.72,1374.64 1917.79,1339.76 1921.86,1367.65 1925.94,1379.11 1930.01,1381.76 1934.08,1383.19 1938.15,1383.87 1942.22,1384.19 1946.3,1384.42 
  1950.37,1384.71 1954.44,1384.7 1958.51,1384.8 1962.58,1384.7 1966.66,1384.78 1970.73,1384.8 1974.8,1384.73 1978.87,1384.84 1982.94,1384.8 1987.02,1384.79 
  1991.09,1384.77 1995.16,1384.79 1999.23,1384.78 2003.3,1384.82 2007.38,1384.8 2011.45,1384.8 2015.52,1384.84 2019.59,1384.84 2023.66,1384.79 2027.73,1384.84 
  2031.81,1384.85 2035.88,1384.86 2039.95,1384.75 2044.02,1384.81 2048.09,1384.86 2052.17,1384.83 2056.24,1384.88 2060.31,1384.82 2064.38,1384.81 2068.45,1384.8 
  2072.53,1384.88 2076.6,1384.86 2080.67,1384.83 2084.74,1384.85 2088.81,1384.87 2092.89,1384.88 2096.96,1384.83 2101.03,1384.84 2105.1,1384.84 2109.17,1384.87 
  2113.25,1384.83 2117.32,1384.81 2121.39,1384.84 2125.46,1384.86 2129.53,1384.88 2133.6,1384.88 2137.68,1384.85 2141.75,1384.89 2145.82,1384.84 2149.89,1384.85 
  2153.96,1384.88 2158.04,1384.87 2162.11,1384.87 2166.18,1384.87 2170.25,1384.88 2174.32,1384.82 2178.4,1384.89 2182.47,1384.86 2186.54,1384.88 2190.61,1384.88 
  2194.68,1384.84 2198.76,1384.91 2202.83,1384.87 2206.9,1384.85 2210.97,1384.92 2215.04,1384.89 2219.12,1384.85 2223.19,1384.86 2227.26,1384.85 2231.33,1384.9 
  2235.4,1384.87 2239.47,1384.87 2243.55,1384.84 2247.62,1384.87 2251.69,1384.88 2255.76,1384.91 2259.83,1384.84 2263.91,1384.94 2267.98,1384.9 2272.05,1384.85 
  2276.12,1384.88 2280.19,1384.88 2284.27,1384.87 2288.34,1384.88 2292.41,1384.88 
  "/>
<polyline clip-path="url(#clip923)" style="stroke:#e26f46; stroke-width:4; stroke-opacity:1; fill:none" stroke-dasharray="16, 10" points="
  401.693,2722.89 401.693,-1176.24 
  "/>
<path clip-path="url(#clip920)" d="
M1691.78 287.756 L2281.68 287.756 L2281.68 166.796 L1691.78 166.796  Z
  " fill="#ffffff" fill-rule="evenodd" fill-opacity="1"/>
<polyline clip-path="url(#clip920)" style="stroke:#000000; stroke-width:4; stroke-opacity:1; fill:none" points="
  1691.78,287.756 2281.68,287.756 2281.68,166.796 1691.78,166.796 1691.78,287.756 
  "/>
<polyline clip-path="url(#clip920)" style="stroke:#e26f46; stroke-width:4; stroke-opacity:1; fill:none" stroke-dasharray="16, 10" points="
  1715.48,227.276 1857.62,227.276 
  "/>
<path clip-path="url(#clip920)" d="M 0 0 M1897.82 208.537 L1897.82 212.079 L1893.75 212.079 Q1891.45 212.079 1890.55 213.005 Q1889.67 213.931 1889.67 216.338 L1889.67 218.63 L1896.69 218.63 L1896.69 221.94 L1889.67 221.94 L1889.67 244.556 L1885.39 244.556 L1885.39 221.94 L1881.31 221.94 L1881.31 218.63 L1885.39 218.63 L1885.39 216.824 Q1885.39 212.496 1887.4 210.528 Q1889.42 208.537 1893.79 208.537 L1897.82 208.537 Z" fill="#000000" fill-rule="evenodd" fill-opacity="1" /><path clip-path="url(#clip920)" d="M 0 0 M1916.41 222.611 Q1915.69 222.195 1914.83 222.01 Q1914 221.801 1912.98 221.801 Q1909.37 221.801 1907.43 224.162 Q1905.5 226.5 1905.5 230.898 L1905.5 244.556 L1901.22 244.556 L1901.22 218.63 L1905.5 218.63 L1905.5 222.658 Q1906.85 220.297 1909 219.162 Q1911.15 218.005 1914.23 218.005 Q1914.67 218.005 1915.2 218.074 Q1915.74 218.121 1916.38 218.236 L1916.41 222.611 Z" fill="#000000" fill-rule="evenodd" fill-opacity="1" /><path clip-path="url(#clip920)" d="M 0 0 M1942.01 230.528 L1942.01 232.611 L1922.43 232.611 Q1922.7 237.009 1925.06 239.324 Q1927.45 241.616 1931.68 241.616 Q1934.14 241.616 1936.43 241.014 Q1938.75 240.412 1941.01 239.209 L1941.01 243.236 Q1938.72 244.208 1936.31 244.718 Q1933.91 245.227 1931.43 245.227 Q1925.23 245.227 1921.59 241.616 Q1917.98 238.005 1917.98 231.847 Q1917.98 225.482 1921.41 221.755 Q1924.86 218.005 1930.69 218.005 Q1935.92 218.005 1938.95 221.385 Q1942.01 224.741 1942.01 230.528 M1937.75 229.278 Q1937.7 225.783 1935.78 223.699 Q1933.88 221.616 1930.74 221.616 Q1927.17 221.616 1925.02 223.63 Q1922.89 225.644 1922.56 229.301 L1937.75 229.278 Z" fill="#000000" fill-rule="evenodd" fill-opacity="1" /><path clip-path="url(#clip920)" d="M 0 0 M1951.55 231.616 Q1951.55 236.315 1953.47 239 Q1955.41 241.662 1958.79 241.662 Q1962.17 241.662 1964.12 239 Q1966.06 236.315 1966.06 231.616 Q1966.06 226.917 1964.12 224.255 Q1962.17 221.57 1958.79 221.57 Q1955.41 221.57 1953.47 224.255 Q1951.55 226.917 1951.55 231.616 M1966.06 240.667 Q1964.72 242.982 1962.66 244.116 Q1960.62 245.227 1957.75 245.227 Q1953.05 245.227 1950.09 241.477 Q1947.15 237.727 1947.15 231.616 Q1947.15 225.505 1950.09 221.755 Q1953.05 218.005 1957.75 218.005 Q1960.62 218.005 1962.66 219.139 Q1964.72 220.25 1966.06 222.565 L1966.06 218.63 L1970.32 218.63 L1970.32 254.417 L1966.06 254.417 L1966.06 240.667 Z" fill="#000000" fill-rule="evenodd" fill-opacity="1" /><path clip-path="url(#clip920)" d="M 0 0 M1978.65 234.324 L1978.65 218.63 L1982.91 218.63 L1982.91 234.162 Q1982.91 237.843 1984.35 239.695 Q1985.78 241.523 1988.65 241.523 Q1992.1 241.523 1994.09 239.324 Q1996.11 237.125 1996.11 233.329 L1996.11 218.63 L2000.37 218.63 L2000.37 244.556 L1996.11 244.556 L1996.11 240.574 Q1994.56 242.935 1992.49 244.093 Q1990.46 245.227 1987.75 245.227 Q1983.28 245.227 1980.97 242.449 Q1978.65 239.671 1978.65 234.324 M1989.37 218.005 L1989.37 218.005 Z" fill="#000000" fill-rule="evenodd" fill-opacity="1" /><path clip-path="url(#clip920)" d="M 0 0 M2031.31 230.528 L2031.31 232.611 L2011.73 232.611 Q2012.01 237.009 2014.37 239.324 Q2016.75 241.616 2020.99 241.616 Q2023.44 241.616 2025.74 241.014 Q2028.05 240.412 2030.32 239.209 L2030.32 243.236 Q2028.03 244.208 2025.62 244.718 Q2023.21 245.227 2020.74 245.227 Q2014.53 245.227 2010.9 241.616 Q2007.29 238.005 2007.29 231.847 Q2007.29 225.482 2010.71 221.755 Q2014.16 218.005 2019.99 218.005 Q2025.23 218.005 2028.26 221.385 Q2031.31 224.741 2031.31 230.528 M2027.05 229.278 Q2027.01 225.783 2025.09 223.699 Q2023.19 221.616 2020.04 221.616 Q2016.48 221.616 2014.32 223.63 Q2012.19 225.644 2011.87 229.301 L2027.05 229.278 Z" fill="#000000" fill-rule="evenodd" fill-opacity="1" /><path clip-path="url(#clip920)" d="M 0 0 M2059.86 228.908 L2059.86 244.556 L2055.6 244.556 L2055.6 229.047 Q2055.6 225.366 2054.16 223.537 Q2052.73 221.709 2049.86 221.709 Q2046.41 221.709 2044.42 223.908 Q2042.43 226.107 2042.43 229.903 L2042.43 244.556 L2038.14 244.556 L2038.14 218.63 L2042.43 218.63 L2042.43 222.658 Q2043.95 220.32 2046.01 219.162 Q2048.1 218.005 2050.8 218.005 Q2055.27 218.005 2057.56 220.783 Q2059.86 223.537 2059.86 228.908 Z" fill="#000000" fill-rule="evenodd" fill-opacity="1" /><path clip-path="url(#clip920)" d="M 0 0 M2087.01 219.625 L2087.01 223.607 Q2085.2 222.611 2083.37 222.125 Q2081.57 221.616 2079.72 221.616 Q2075.57 221.616 2073.28 224.255 Q2070.99 226.871 2070.99 231.616 Q2070.99 236.361 2073.28 239 Q2075.57 241.616 2079.72 241.616 Q2081.57 241.616 2083.37 241.13 Q2085.2 240.621 2087.01 239.625 L2087.01 243.56 Q2085.23 244.394 2083.3 244.81 Q2081.41 245.227 2079.25 245.227 Q2073.4 245.227 2069.95 241.546 Q2066.5 237.866 2066.5 231.616 Q2066.5 225.273 2069.97 221.639 Q2073.47 218.005 2079.53 218.005 Q2081.5 218.005 2083.37 218.422 Q2085.25 218.815 2087.01 219.625 Z" fill="#000000" fill-rule="evenodd" fill-opacity="1" /><path clip-path="url(#clip920)" d="M 0 0 M2105.2 246.963 Q2103.4 251.593 2101.68 253.005 Q2099.97 254.417 2097.1 254.417 L2093.7 254.417 L2093.7 250.852 L2096.2 250.852 Q2097.96 250.852 2098.93 250.019 Q2099.9 249.185 2101.08 246.083 L2101.85 244.139 L2091.36 218.63 L2095.87 218.63 L2103.98 238.908 L2112.08 218.63 L2116.59 218.63 L2105.2 246.963 Z" fill="#000000" fill-rule="evenodd" fill-opacity="1" /><path clip-path="url(#clip920)" d="M 0 0 M2154.07 219.394 L2154.07 223.422 Q2152.26 222.496 2150.32 222.033 Q2148.37 221.57 2146.29 221.57 Q2143.12 221.57 2141.52 222.542 Q2139.95 223.514 2139.95 225.459 Q2139.95 226.94 2141.08 227.797 Q2142.22 228.63 2145.64 229.394 L2147.1 229.718 Q2151.64 230.69 2153.54 232.472 Q2155.46 234.232 2155.46 237.403 Q2155.46 241.014 2152.59 243.121 Q2149.74 245.227 2144.74 245.227 Q2142.66 245.227 2140.39 244.81 Q2138.14 244.417 2135.64 243.607 L2135.64 239.209 Q2138 240.435 2140.29 241.06 Q2142.59 241.662 2144.83 241.662 Q2147.84 241.662 2149.46 240.644 Q2151.08 239.602 2151.08 237.727 Q2151.08 235.991 2149.9 235.065 Q2148.74 234.139 2144.79 233.283 L2143.3 232.935 Q2139.35 232.102 2137.59 230.389 Q2135.83 228.653 2135.83 225.644 Q2135.83 221.986 2138.42 219.996 Q2141.01 218.005 2145.78 218.005 Q2148.14 218.005 2150.23 218.352 Q2152.31 218.699 2154.07 219.394 Z" fill="#000000" fill-rule="evenodd" fill-opacity="1" /><path clip-path="url(#clip920)" d="M 0 0 M2183.79 228.908 L2183.79 244.556 L2179.53 244.556 L2179.53 229.047 Q2179.53 225.366 2178.1 223.537 Q2176.66 221.709 2173.79 221.709 Q2170.34 221.709 2168.35 223.908 Q2166.36 226.107 2166.36 229.903 L2166.36 244.556 L2162.08 244.556 L2162.08 208.537 L2166.36 208.537 L2166.36 222.658 Q2167.89 220.32 2169.95 219.162 Q2172.03 218.005 2174.74 218.005 Q2179.21 218.005 2181.5 220.783 Q2183.79 223.537 2183.79 228.908 Z" fill="#000000" fill-rule="evenodd" fill-opacity="1" /><path clip-path="url(#clip920)" d="M 0 0 M2192.29 218.63 L2196.54 218.63 L2196.54 244.556 L2192.29 244.556 L2192.29 218.63 M2192.29 208.537 L2196.54 208.537 L2196.54 213.931 L2192.29 213.931 L2192.29 208.537 Z" fill="#000000" fill-rule="evenodd" fill-opacity="1" /><path clip-path="url(#clip920)" d="M 0 0 M2218.58 208.537 L2218.58 212.079 L2214.51 212.079 Q2212.22 212.079 2211.31 213.005 Q2210.43 213.931 2210.43 216.338 L2210.43 218.63 L2217.45 218.63 L2217.45 221.94 L2210.43 221.94 L2210.43 244.556 L2206.15 244.556 L2206.15 221.94 L2202.08 221.94 L2202.08 218.63 L2206.15 218.63 L2206.15 216.824 Q2206.15 212.496 2208.16 210.528 Q2210.18 208.537 2214.55 208.537 L2218.58 208.537 Z" fill="#000000" fill-rule="evenodd" fill-opacity="1" /><path clip-path="url(#clip920)" d="M 0 0 M2225.53 211.269 L2225.53 218.63 L2234.3 218.63 L2234.3 221.94 L2225.53 221.94 L2225.53 236.014 Q2225.53 239.185 2226.38 240.088 Q2227.26 240.991 2229.92 240.991 L2234.3 240.991 L2234.3 244.556 L2229.92 244.556 Q2224.99 244.556 2223.12 242.727 Q2221.24 240.875 2221.24 236.014 L2221.24 221.94 L2218.12 221.94 L2218.12 218.63 L2221.24 218.63 L2221.24 211.269 L2225.53 211.269 Z" fill="#000000" fill-rule="evenodd" fill-opacity="1" /></svg>
