<?xml version="1.0" encoding="utf-8"?>
<svg xmlns="http://www.w3.org/2000/svg" xmlns:xlink="http://www.w3.org/1999/xlink" width="576" height="384" viewBox="0 0 2304 1536">
<defs>
  <clipPath id="clip380">
    <rect x="0" y="0" width="2304" height="1536"/>
  </clipPath>
</defs>
<path clip-path="url(#clip380)" d="
M0 1536 L2304 1536 L2304 0 L0 0  Z
  " fill="#ffffff" fill-rule="evenodd" fill-opacity="1"/>
<defs>
  <clipPath id="clip381">
    <rect x="460" y="0" width="1614" height="1536"/>
  </clipPath>
</defs>
<path clip-path="url(#clip380)" d="
M368.743 1359.82 L2256.76 1359.82 L2256.76 123.472 L368.743 123.472  Z
  " fill="#ffffff" fill-rule="evenodd" fill-opacity="1"/>
<defs>
  <clipPath id="clip382">
    <rect x="368" y="123" width="1889" height="1237"/>
  </clipPath>
</defs>
<polyline clip-path="url(#clip382)" style="stroke:#000000; stroke-width:2; stroke-opacity:0.1; fill:none" points="
  422.178,1359.82 422.178,123.472 
  "/>
<polyline clip-path="url(#clip382)" style="stroke:#000000; stroke-width:2; stroke-opacity:0.1; fill:none" points="
  867.464,1359.82 867.464,123.472 
  "/>
<polyline clip-path="url(#clip382)" style="stroke:#000000; stroke-width:2; stroke-opacity:0.1; fill:none" points="
  1312.75,1359.82 1312.75,123.472 
  "/>
<polyline clip-path="url(#clip382)" style="stroke:#000000; stroke-width:2; stroke-opacity:0.1; fill:none" points="
  1758.04,1359.82 1758.04,123.472 
  "/>
<polyline clip-path="url(#clip382)" style="stroke:#000000; stroke-width:2; stroke-opacity:0.1; fill:none" points="
  2203.32,1359.82 2203.32,123.472 
  "/>
<polyline clip-path="url(#clip380)" style="stroke:#000000; stroke-width:4; stroke-opacity:1; fill:none" points="
  368.743,1359.82 2256.76,1359.82 
  "/>
<polyline clip-path="url(#clip380)" style="stroke:#000000; stroke-width:4; stroke-opacity:1; fill:none" points="
  422.178,1359.82 422.178,1344.98 
  "/>
<polyline clip-path="url(#clip380)" style="stroke:#000000; stroke-width:4; stroke-opacity:1; fill:none" points="
  867.464,1359.82 867.464,1344.98 
  "/>
<polyline clip-path="url(#clip380)" style="stroke:#000000; stroke-width:4; stroke-opacity:1; fill:none" points="
  1312.75,1359.82 1312.75,1344.98 
  "/>
<polyline clip-path="url(#clip380)" style="stroke:#000000; stroke-width:4; stroke-opacity:1; fill:none" points="
  1758.04,1359.82 1758.04,1344.98 
  "/>
<polyline clip-path="url(#clip380)" style="stroke:#000000; stroke-width:4; stroke-opacity:1; fill:none" points="
  2203.32,1359.82 2203.32,1344.98 
  "/>
<path clip-path="url(#clip380)" d="M 0 0 M422.178 1388.24 Q418.567 1388.24 416.738 1391.81 Q414.932 1395.35 414.932 1402.48 Q414.932 1409.59 416.738 1413.15 Q418.567 1416.69 422.178 1416.69 Q425.812 1416.69 427.618 1413.15 Q429.446 1409.59 429.446 1402.48 Q429.446 1395.35 427.618 1391.81 Q425.812 1388.24 422.178 1388.24 M422.178 1384.54 Q427.988 1384.54 431.043 1389.15 Q434.122 1393.73 434.122 1402.48 Q434.122 1411.21 431.043 1415.81 Q427.988 1420.4 422.178 1420.4 Q416.368 1420.4 413.289 1415.81 Q410.233 1411.21 410.233 1402.48 Q410.233 1393.73 413.289 1389.15 Q416.368 1384.54 422.178 1384.54 Z" fill="#000000" fill-rule="evenodd" fill-opacity="1" /><path clip-path="url(#clip380)" d="M 0 0 M857.742 1385.16 L876.098 1385.16 L876.098 1389.1 L862.024 1389.1 L862.024 1397.57 Q863.042 1397.22 864.061 1397.06 Q865.079 1396.88 866.098 1396.88 Q871.885 1396.88 875.265 1400.05 Q878.644 1403.22 878.644 1408.64 Q878.644 1414.21 875.172 1417.32 Q871.7 1420.4 865.38 1420.4 Q863.204 1420.4 860.936 1420.02 Q858.691 1419.65 856.283 1418.91 L856.283 1414.21 Q858.367 1415.35 860.589 1415.9 Q862.811 1416.46 865.288 1416.46 Q869.292 1416.46 871.63 1414.35 Q873.968 1412.25 873.968 1408.64 Q873.968 1405.02 871.63 1402.92 Q869.292 1400.81 865.288 1400.81 Q863.413 1400.81 861.538 1401.23 Q859.686 1401.65 857.742 1402.52 L857.742 1385.16 Z" fill="#000000" fill-rule="evenodd" fill-opacity="1" /><path clip-path="url(#clip380)" d="M 0 0 M1287.44 1415.79 L1295.08 1415.79 L1295.08 1389.42 L1286.77 1391.09 L1286.77 1386.83 L1295.03 1385.16 L1299.71 1385.16 L1299.71 1415.79 L1307.34 1415.79 L1307.34 1419.72 L1287.44 1419.72 L1287.44 1415.79 Z" fill="#000000" fill-rule="evenodd" fill-opacity="1" /><path clip-path="url(#clip380)" d="M 0 0 M1326.79 1388.24 Q1323.18 1388.24 1321.35 1391.81 Q1319.54 1395.35 1319.54 1402.48 Q1319.54 1409.59 1321.35 1413.15 Q1323.18 1416.69 1326.79 1416.69 Q1330.42 1416.69 1332.23 1413.15 Q1334.06 1409.59 1334.06 1402.48 Q1334.06 1395.35 1332.23 1391.81 Q1330.42 1388.24 1326.79 1388.24 M1326.79 1384.54 Q1332.6 1384.54 1335.65 1389.15 Q1338.73 1393.73 1338.73 1402.48 Q1338.73 1411.21 1335.65 1415.81 Q1332.6 1420.4 1326.79 1420.4 Q1320.98 1420.4 1317.9 1415.81 Q1314.84 1411.21 1314.84 1402.48 Q1314.84 1393.73 1317.9 1389.15 Q1320.98 1384.54 1326.79 1384.54 Z" fill="#000000" fill-rule="evenodd" fill-opacity="1" /><path clip-path="url(#clip380)" d="M 0 0 M1733.22 1415.79 L1740.86 1415.79 L1740.86 1389.42 L1732.55 1391.09 L1732.55 1386.83 L1740.81 1385.16 L1745.49 1385.16 L1745.49 1415.79 L1753.13 1415.79 L1753.13 1419.72 L1733.22 1419.72 L1733.22 1415.79 Z" fill="#000000" fill-rule="evenodd" fill-opacity="1" /><path clip-path="url(#clip380)" d="M 0 0 M1762.62 1385.16 L1780.98 1385.16 L1780.98 1389.1 L1766.9 1389.1 L1766.9 1397.57 Q1767.92 1397.22 1768.94 1397.06 Q1769.96 1396.88 1770.98 1396.88 Q1776.76 1396.88 1780.14 1400.05 Q1783.52 1403.22 1783.52 1408.64 Q1783.52 1414.21 1780.05 1417.32 Q1776.58 1420.4 1770.26 1420.4 Q1768.08 1420.4 1765.81 1420.02 Q1763.57 1419.65 1761.16 1418.91 L1761.16 1414.21 Q1763.24 1415.35 1765.47 1415.9 Q1767.69 1416.46 1770.17 1416.46 Q1774.17 1416.46 1776.51 1414.35 Q1778.85 1412.25 1778.85 1408.64 Q1778.85 1405.02 1776.51 1402.92 Q1774.17 1400.81 1770.17 1400.81 Q1768.29 1400.81 1766.42 1401.23 Q1764.56 1401.65 1762.62 1402.52 L1762.62 1385.16 Z" fill="#000000" fill-rule="evenodd" fill-opacity="1" /><path clip-path="url(#clip380)" d="M 0 0 M2182.09 1415.79 L2198.41 1415.79 L2198.41 1419.72 L2176.47 1419.72 L2176.47 1415.79 Q2179.13 1413.03 2183.72 1408.4 Q2188.32 1403.75 2189.5 1402.41 Q2191.75 1399.89 2192.63 1398.15 Q2193.53 1396.39 2193.53 1394.7 Q2193.53 1391.95 2191.59 1390.21 Q2189.66 1388.47 2186.56 1388.47 Q2184.36 1388.47 2181.91 1389.24 Q2179.48 1390 2176.7 1391.55 L2176.7 1386.83 Q2179.53 1385.7 2181.98 1385.12 Q2184.43 1384.54 2186.47 1384.54 Q2191.84 1384.54 2195.03 1387.22 Q2198.23 1389.91 2198.23 1394.4 Q2198.23 1396.53 2197.42 1398.45 Q2196.63 1400.35 2194.53 1402.94 Q2193.95 1403.61 2190.84 1406.83 Q2187.74 1410.02 2182.09 1415.79 Z" fill="#000000" fill-rule="evenodd" fill-opacity="1" /><path clip-path="url(#clip380)" d="M 0 0 M2218.23 1388.24 Q2214.62 1388.24 2212.79 1391.81 Q2210.98 1395.35 2210.98 1402.48 Q2210.98 1409.59 2212.79 1413.15 Q2214.62 1416.69 2218.23 1416.69 Q2221.86 1416.69 2223.67 1413.15 Q2225.5 1409.59 2225.5 1402.48 Q2225.5 1395.35 2223.67 1391.81 Q2221.86 1388.24 2218.23 1388.24 M2218.23 1384.54 Q2224.04 1384.54 2227.09 1389.15 Q2230.17 1393.73 2230.17 1402.48 Q2230.17 1411.21 2227.09 1415.81 Q2224.04 1420.4 2218.23 1420.4 Q2212.42 1420.4 2209.34 1415.81 Q2206.28 1411.21 2206.28 1402.48 Q2206.28 1393.73 2209.34 1389.15 Q2212.42 1384.54 2218.23 1384.54 Z" fill="#000000" fill-rule="evenodd" fill-opacity="1" /><path clip-path="url(#clip380)" d="M 0 0 M1179.55 1457.47 L1179.55 1467.6 L1191.61 1467.6 L1191.61 1472.15 L1179.55 1472.15 L1179.55 1491.5 Q1179.55 1495.86 1180.72 1497.1 Q1181.93 1498.34 1185.59 1498.34 L1191.61 1498.34 L1191.61 1503.24 L1185.59 1503.24 Q1178.82 1503.24 1176.24 1500.73 Q1173.66 1498.18 1173.66 1491.5 L1173.66 1472.15 L1169.36 1472.15 L1169.36 1467.6 L1173.66 1467.6 L1173.66 1457.47 L1179.55 1457.47 Z" fill="#000000" fill-rule="evenodd" fill-opacity="1" /><path clip-path="url(#clip380)" d="M 0 0 M1199.31 1467.6 L1205.17 1467.6 L1205.17 1503.24 L1199.31 1503.24 L1199.31 1467.6 M1199.31 1453.72 L1205.17 1453.72 L1205.17 1461.13 L1199.31 1461.13 L1199.31 1453.72 Z" fill="#000000" fill-rule="evenodd" fill-opacity="1" /><path clip-path="url(#clip380)" d="M 0 0 M1245.18 1474.44 Q1247.37 1470.49 1250.43 1468.61 Q1253.48 1466.74 1257.62 1466.74 Q1263.19 1466.74 1266.22 1470.65 Q1269.24 1474.53 1269.24 1481.73 L1269.24 1503.24 L1263.35 1503.24 L1263.35 1481.92 Q1263.35 1476.79 1261.54 1474.31 Q1259.72 1471.83 1256 1471.83 Q1251.45 1471.83 1248.81 1474.85 Q1246.16 1477.88 1246.16 1483.1 L1246.16 1503.24 L1240.28 1503.24 L1240.28 1481.92 Q1240.28 1476.76 1238.46 1474.31 Q1236.65 1471.83 1232.86 1471.83 Q1228.37 1471.83 1225.73 1474.88 Q1223.09 1477.91 1223.09 1483.1 L1223.09 1503.24 L1217.2 1503.24 L1217.2 1467.6 L1223.09 1467.6 L1223.09 1473.13 Q1225.09 1469.86 1227.89 1468.3 Q1230.7 1466.74 1234.55 1466.74 Q1238.43 1466.74 1241.14 1468.71 Q1243.87 1470.68 1245.18 1474.44 Z" fill="#000000" fill-rule="evenodd" fill-opacity="1" /><path clip-path="url(#clip380)" d="M 0 0 M1311.41 1483.96 L1311.41 1486.82 L1284.49 1486.82 Q1284.87 1492.87 1288.11 1496.05 Q1291.39 1499.2 1297.22 1499.2 Q1300.59 1499.2 1303.74 1498.37 Q1306.93 1497.55 1310.04 1495.89 L1310.04 1501.43 Q1306.89 1502.77 1303.58 1503.47 Q1300.27 1504.17 1296.87 1504.17 Q1288.34 1504.17 1283.34 1499.2 Q1278.37 1494.24 1278.37 1485.77 Q1278.37 1477.02 1283.09 1471.89 Q1287.83 1466.74 1295.85 1466.74 Q1303.04 1466.74 1307.21 1471.38 Q1311.41 1476 1311.41 1483.96 M1305.56 1482.24 Q1305.49 1477.43 1302.85 1474.57 Q1300.24 1471.7 1295.91 1471.7 Q1291.01 1471.7 1288.05 1474.47 Q1285.12 1477.24 1284.68 1482.27 L1305.56 1482.24 Z" fill="#000000" fill-rule="evenodd" fill-opacity="1" /><path clip-path="url(#clip380)" d="M 0 0 M1355.81 1453.78 Q1351.55 1461.1 1349.48 1468.26 Q1347.41 1475.43 1347.41 1482.78 Q1347.41 1490.13 1349.48 1497.36 Q1351.58 1504.55 1355.81 1511.84 L1350.72 1511.84 Q1345.95 1504.36 1343.56 1497.13 Q1341.2 1489.91 1341.2 1482.78 Q1341.2 1475.68 1343.56 1468.49 Q1345.91 1461.29 1350.72 1453.78 L1355.81 1453.78 Z" fill="#000000" fill-rule="evenodd" fill-opacity="1" /><path clip-path="url(#clip380)" d="M 0 0 M1396.81 1481.73 L1396.81 1503.24 L1390.95 1503.24 L1390.95 1481.92 Q1390.95 1476.86 1388.98 1474.34 Q1387.01 1471.83 1383.06 1471.83 Q1378.32 1471.83 1375.58 1474.85 Q1372.84 1477.88 1372.84 1483.1 L1372.84 1503.24 L1366.95 1503.24 L1366.95 1467.6 L1372.84 1467.6 L1372.84 1473.13 Q1374.94 1469.92 1377.78 1468.33 Q1380.64 1466.74 1384.36 1466.74 Q1390.51 1466.74 1393.66 1470.56 Q1396.81 1474.34 1396.81 1481.73 Z" fill="#000000" fill-rule="evenodd" fill-opacity="1" /><path clip-path="url(#clip380)" d="M 0 0 M1431.22 1468.65 L1431.22 1474.18 Q1428.73 1472.91 1426.06 1472.27 Q1423.39 1471.64 1420.52 1471.64 Q1416.16 1471.64 1413.96 1472.97 Q1411.8 1474.31 1411.8 1476.99 Q1411.8 1479.02 1413.36 1480.2 Q1414.92 1481.35 1419.63 1482.4 L1421.64 1482.84 Q1427.87 1484.18 1430.48 1486.63 Q1433.13 1489.05 1433.13 1493.41 Q1433.13 1498.37 1429.18 1501.27 Q1425.26 1504.17 1418.39 1504.17 Q1415.52 1504.17 1412.4 1503.59 Q1409.32 1503.05 1405.88 1501.94 L1405.88 1495.89 Q1409.13 1497.58 1412.28 1498.44 Q1415.43 1499.27 1418.52 1499.27 Q1422.65 1499.27 1424.88 1497.86 Q1427.11 1496.43 1427.11 1493.85 Q1427.11 1491.47 1425.49 1490.19 Q1423.89 1488.92 1418.45 1487.74 L1416.42 1487.27 Q1410.97 1486.12 1408.55 1483.76 Q1406.13 1481.38 1406.13 1477.24 Q1406.13 1472.21 1409.7 1469.47 Q1413.26 1466.74 1419.82 1466.74 Q1423.07 1466.74 1425.93 1467.21 Q1428.8 1467.69 1431.22 1468.65 Z" fill="#000000" fill-rule="evenodd" fill-opacity="1" /><path clip-path="url(#clip380)" d="M 0 0 M1441.53 1453.78 L1446.62 1453.78 Q1451.39 1461.29 1453.75 1468.49 Q1456.14 1475.68 1456.14 1482.78 Q1456.14 1489.91 1453.75 1497.13 Q1451.39 1504.36 1446.62 1511.84 L1441.53 1511.84 Q1445.76 1504.55 1447.83 1497.36 Q1449.93 1490.13 1449.93 1482.78 Q1449.93 1475.43 1447.83 1468.26 Q1445.76 1461.1 1441.53 1453.78 Z" fill="#000000" fill-rule="evenodd" fill-opacity="1" /><polyline clip-path="url(#clip382)" style="stroke:#000000; stroke-width:2; stroke-opacity:0.1; fill:none" points="
  368.743,1324.89 2256.76,1324.89 
  "/>
<polyline clip-path="url(#clip382)" style="stroke:#000000; stroke-width:2; stroke-opacity:0.1; fill:none" points="
  368.743,1037.68 2256.76,1037.68 
  "/>
<polyline clip-path="url(#clip382)" style="stroke:#000000; stroke-width:2; stroke-opacity:0.1; fill:none" points="
  368.743,750.467 2256.76,750.467 
  "/>
<polyline clip-path="url(#clip382)" style="stroke:#000000; stroke-width:2; stroke-opacity:0.1; fill:none" points="
  368.743,463.254 2256.76,463.254 
  "/>
<polyline clip-path="url(#clip382)" style="stroke:#000000; stroke-width:2; stroke-opacity:0.1; fill:none" points="
  368.743,176.041 2256.76,176.041 
  "/>
<polyline clip-path="url(#clip380)" style="stroke:#000000; stroke-width:4; stroke-opacity:1; fill:none" points="
  368.743,1359.82 368.743,123.472 
  "/>
<polyline clip-path="url(#clip380)" style="stroke:#000000; stroke-width:4; stroke-opacity:1; fill:none" points="
  368.743,1324.89 391.4,1324.89 
  "/>
<polyline clip-path="url(#clip380)" style="stroke:#000000; stroke-width:4; stroke-opacity:1; fill:none" points="
  368.743,1037.68 391.4,1037.68 
  "/>
<polyline clip-path="url(#clip380)" style="stroke:#000000; stroke-width:4; stroke-opacity:1; fill:none" points="
  368.743,750.467 391.4,750.467 
  "/>
<polyline clip-path="url(#clip380)" style="stroke:#000000; stroke-width:4; stroke-opacity:1; fill:none" points="
  368.743,463.254 391.4,463.254 
  "/>
<polyline clip-path="url(#clip380)" style="stroke:#000000; stroke-width:4; stroke-opacity:1; fill:none" points="
  368.743,176.041 391.4,176.041 
  "/>
<path clip-path="url(#clip380)" d="M 0 0 M322.239 1310.69 Q318.628 1310.69 316.799 1314.26 Q314.994 1317.8 314.994 1324.93 Q314.994 1332.03 316.799 1335.6 Q318.628 1339.14 322.239 1339.14 Q325.873 1339.14 327.679 1335.6 Q329.508 1332.03 329.508 1324.93 Q329.508 1317.8 327.679 1314.26 Q325.873 1310.69 322.239 1310.69 M322.239 1306.99 Q328.049 1306.99 331.105 1311.59 Q334.183 1316.18 334.183 1324.93 Q334.183 1333.65 331.105 1338.26 Q328.049 1342.84 322.239 1342.84 Q316.429 1342.84 313.35 1338.26 Q310.295 1333.65 310.295 1324.93 Q310.295 1316.18 313.35 1311.59 Q316.429 1306.99 322.239 1306.99 Z" fill="#000000" fill-rule="evenodd" fill-opacity="1" /><path clip-path="url(#clip380)" d="M 0 0 M120.365 1057.47 L136.684 1057.47 L136.684 1061.41 L114.74 1061.41 L114.74 1057.47 Q117.402 1054.72 121.985 1050.09 Q126.592 1045.44 127.772 1044.09 Q130.018 1041.57 130.897 1039.83 Q131.8 1038.07 131.8 1036.38 Q131.8 1033.63 129.856 1031.89 Q127.935 1030.16 124.833 1030.16 Q122.634 1030.16 120.18 1030.92 Q117.749 1031.69 114.972 1033.24 L114.972 1028.51 Q117.796 1027.38 120.249 1026.8 Q122.703 1026.22 124.74 1026.22 Q130.11 1026.22 133.305 1028.91 Q136.499 1031.59 136.499 1036.08 Q136.499 1038.21 135.689 1040.13 Q134.902 1042.03 132.796 1044.63 Q132.217 1045.3 129.115 1048.51 Q126.013 1051.71 120.365 1057.47 Z" fill="#000000" fill-rule="evenodd" fill-opacity="1" /><path clip-path="url(#clip380)" d="M 0 0 M146.499 1055.53 L151.383 1055.53 L151.383 1061.41 L146.499 1061.41 L146.499 1055.53 Z" fill="#000000" fill-rule="evenodd" fill-opacity="1" /><path clip-path="url(#clip380)" d="M 0 0 M161.615 1026.85 L179.971 1026.85 L179.971 1030.78 L165.897 1030.78 L165.897 1039.25 Q166.916 1038.91 167.934 1038.75 Q168.953 1038.56 169.971 1038.56 Q175.758 1038.56 179.138 1041.73 Q182.518 1044.9 182.518 1050.32 Q182.518 1055.9 179.045 1059 Q175.573 1062.08 169.254 1062.08 Q167.078 1062.08 164.809 1061.71 Q162.564 1061.34 160.157 1060.6 L160.157 1055.9 Q162.24 1057.03 164.462 1057.59 Q166.684 1058.14 169.161 1058.14 Q173.166 1058.14 175.504 1056.04 Q177.842 1053.93 177.842 1050.32 Q177.842 1046.71 175.504 1044.6 Q173.166 1042.5 169.161 1042.5 Q167.286 1042.5 165.411 1042.91 Q163.559 1043.33 161.615 1044.21 L161.615 1026.85 Z" fill="#000000" fill-rule="evenodd" fill-opacity="1" /><path clip-path="url(#clip380)" d="M 0 0 M201.73 1029.93 Q198.119 1029.93 196.291 1033.49 Q194.485 1037.03 194.485 1044.16 Q194.485 1051.27 196.291 1054.83 Q198.119 1058.38 201.73 1058.38 Q205.365 1058.38 207.17 1054.83 Q208.999 1051.27 208.999 1044.16 Q208.999 1037.03 207.17 1033.49 Q205.365 1029.93 201.73 1029.93 M201.73 1026.22 Q207.541 1026.22 210.596 1030.83 Q213.675 1035.41 213.675 1044.16 Q213.675 1052.89 210.596 1057.5 Q207.541 1062.08 201.73 1062.08 Q195.92 1062.08 192.842 1057.5 Q189.786 1052.89 189.786 1044.16 Q189.786 1035.41 192.842 1030.83 Q195.92 1026.22 201.73 1026.22 Z" fill="#000000" fill-rule="evenodd" fill-opacity="1" /><path clip-path="url(#clip380)" d="M 0 0 M250.064 1035.94 L239.485 1046.57 L250.064 1057.15 L247.309 1059.95 L236.684 1049.32 L226.059 1059.95 L223.328 1057.15 L233.883 1046.57 L223.328 1035.94 L226.059 1033.14 L236.684 1043.77 L247.309 1033.14 L250.064 1035.94 Z" fill="#000000" fill-rule="evenodd" fill-opacity="1" /><path clip-path="url(#clip380)" d="M 0 0 M262.425 1057.47 L270.063 1057.47 L270.063 1031.11 L261.753 1032.77 L261.753 1028.51 L270.017 1026.85 L274.693 1026.85 L274.693 1057.47 L282.332 1057.47 L282.332 1061.41 L262.425 1061.41 L262.425 1057.47 Z" fill="#000000" fill-rule="evenodd" fill-opacity="1" /><path clip-path="url(#clip380)" d="M 0 0 M301.776 1029.93 Q298.165 1029.93 296.336 1033.49 Q294.531 1037.03 294.531 1044.16 Q294.531 1051.27 296.336 1054.83 Q298.165 1058.38 301.776 1058.38 Q305.41 1058.38 307.216 1054.83 Q309.045 1051.27 309.045 1044.16 Q309.045 1037.03 307.216 1033.49 Q305.41 1029.93 301.776 1029.93 M301.776 1026.22 Q307.586 1026.22 310.642 1030.83 Q313.721 1035.41 313.721 1044.16 Q313.721 1052.89 310.642 1057.5 Q307.586 1062.08 301.776 1062.08 Q295.966 1062.08 292.887 1057.5 Q289.832 1052.89 289.832 1044.16 Q289.832 1035.41 292.887 1030.83 Q295.966 1026.22 301.776 1026.22 Z" fill="#000000" fill-rule="evenodd" fill-opacity="1" /><path clip-path="url(#clip380)" d="M 0 0 M326.397 1009.23 L316.805 1024.22 L326.397 1024.22 L326.397 1009.23 M325.4 1005.92 L330.177 1005.92 L330.177 1024.22 L334.183 1024.22 L334.183 1027.38 L330.177 1027.38 L330.177 1034 L326.397 1034 L326.397 1027.38 L313.721 1027.38 L313.721 1023.71 L325.4 1005.92 Z" fill="#000000" fill-rule="evenodd" fill-opacity="1" /><path clip-path="url(#clip380)" d="M 0 0 M116.384 739.635 L134.74 739.635 L134.74 743.57 L120.666 743.57 L120.666 752.042 Q121.685 751.695 122.703 751.533 Q123.722 751.347 124.74 751.347 Q130.527 751.347 133.907 754.519 Q137.286 757.69 137.286 763.107 Q137.286 768.685 133.814 771.787 Q130.342 774.866 124.023 774.866 Q121.847 774.866 119.578 774.495 Q117.333 774.125 114.925 773.384 L114.925 768.685 Q117.009 769.82 119.231 770.375 Q121.453 770.931 123.93 770.931 Q127.935 770.931 130.272 768.824 Q132.61 766.718 132.61 763.107 Q132.61 759.496 130.272 757.389 Q127.935 755.283 123.93 755.283 Q122.055 755.283 120.18 755.699 Q118.328 756.116 116.384 756.996 L116.384 739.635 Z" fill="#000000" fill-rule="evenodd" fill-opacity="1" /><path clip-path="url(#clip380)" d="M 0 0 M146.499 768.315 L151.383 768.315 L151.383 774.195 L146.499 774.195 L146.499 768.315 Z" fill="#000000" fill-rule="evenodd" fill-opacity="1" /><path clip-path="url(#clip380)" d="M 0 0 M171.569 742.713 Q167.957 742.713 166.129 746.278 Q164.323 749.82 164.323 756.949 Q164.323 764.056 166.129 767.621 Q167.957 771.162 171.569 771.162 Q175.203 771.162 177.008 767.621 Q178.837 764.056 178.837 756.949 Q178.837 749.82 177.008 746.278 Q175.203 742.713 171.569 742.713 M171.569 739.01 Q177.379 739.01 180.434 743.616 Q183.513 748.199 183.513 756.949 Q183.513 765.676 180.434 770.283 Q177.379 774.866 171.569 774.866 Q165.758 774.866 162.68 770.283 Q159.624 765.676 159.624 756.949 Q159.624 748.199 162.68 743.616 Q165.758 739.01 171.569 739.01 Z" fill="#000000" fill-rule="evenodd" fill-opacity="1" /><path clip-path="url(#clip380)" d="M 0 0 M201.73 742.713 Q198.119 742.713 196.291 746.278 Q194.485 749.82 194.485 756.949 Q194.485 764.056 196.291 767.621 Q198.119 771.162 201.73 771.162 Q205.365 771.162 207.17 767.621 Q208.999 764.056 208.999 756.949 Q208.999 749.82 207.17 746.278 Q205.365 742.713 201.73 742.713 M201.73 739.01 Q207.541 739.01 210.596 743.616 Q213.675 748.199 213.675 756.949 Q213.675 765.676 210.596 770.283 Q207.541 774.866 201.73 774.866 Q195.92 774.866 192.842 770.283 Q189.786 765.676 189.786 756.949 Q189.786 748.199 192.842 743.616 Q195.92 739.01 201.73 739.01 Z" fill="#000000" fill-rule="evenodd" fill-opacity="1" /><path clip-path="url(#clip380)" d="M 0 0 M250.064 748.732 L239.485 759.357 L250.064 769.935 L247.309 772.736 L236.684 762.111 L226.059 772.736 L223.328 769.935 L233.883 759.357 L223.328 748.732 L226.059 745.931 L236.684 756.556 L247.309 745.931 L250.064 748.732 Z" fill="#000000" fill-rule="evenodd" fill-opacity="1" /><path clip-path="url(#clip380)" d="M 0 0 M262.425 770.259 L270.063 770.259 L270.063 743.894 L261.753 745.56 L261.753 741.301 L270.017 739.635 L274.693 739.635 L274.693 770.259 L282.332 770.259 L282.332 774.195 L262.425 774.195 L262.425 770.259 Z" fill="#000000" fill-rule="evenodd" fill-opacity="1" /><path clip-path="url(#clip380)" d="M 0 0 M301.776 742.713 Q298.165 742.713 296.336 746.278 Q294.531 749.82 294.531 756.949 Q294.531 764.056 296.336 767.621 Q298.165 771.162 301.776 771.162 Q305.41 771.162 307.216 767.621 Q309.045 764.056 309.045 756.949 Q309.045 749.82 307.216 746.278 Q305.41 742.713 301.776 742.713 M301.776 739.01 Q307.586 739.01 310.642 743.616 Q313.721 748.199 313.721 756.949 Q313.721 765.676 310.642 770.283 Q307.586 774.866 301.776 774.866 Q295.966 774.866 292.887 770.283 Q289.832 765.676 289.832 756.949 Q289.832 748.199 292.887 743.616 Q295.966 739.01 301.776 739.01 Z" fill="#000000" fill-rule="evenodd" fill-opacity="1" /><path clip-path="url(#clip380)" d="M 0 0 M326.397 722.014 L316.805 737.004 L326.397 737.004 L326.397 722.014 M325.4 718.704 L330.177 718.704 L330.177 737.004 L334.183 737.004 L334.183 740.164 L330.177 740.164 L330.177 746.784 L326.397 746.784 L326.397 740.164 L313.721 740.164 L313.721 736.496 L325.4 718.704 Z" fill="#000000" fill-rule="evenodd" fill-opacity="1" /><path clip-path="url(#clip380)" d="M 0 0 M115.157 452.421 L137.379 452.421 L137.379 454.412 L124.833 486.981 L119.948 486.981 L131.754 456.357 L115.157 456.357 L115.157 452.421 Z" fill="#000000" fill-rule="evenodd" fill-opacity="1" /><path clip-path="url(#clip380)" d="M 0 0 M146.499 481.102 L151.383 481.102 L151.383 486.981 L146.499 486.981 L146.499 481.102 Z" fill="#000000" fill-rule="evenodd" fill-opacity="1" /><path clip-path="url(#clip380)" d="M 0 0 M161.615 452.421 L179.971 452.421 L179.971 456.357 L165.897 456.357 L165.897 464.829 Q166.916 464.482 167.934 464.32 Q168.953 464.134 169.971 464.134 Q175.758 464.134 179.138 467.306 Q182.518 470.477 182.518 475.894 Q182.518 481.472 179.045 484.574 Q175.573 487.653 169.254 487.653 Q167.078 487.653 164.809 487.282 Q162.564 486.912 160.157 486.171 L160.157 481.472 Q162.24 482.606 164.462 483.162 Q166.684 483.718 169.161 483.718 Q173.166 483.718 175.504 481.611 Q177.842 479.505 177.842 475.894 Q177.842 472.282 175.504 470.176 Q173.166 468.07 169.161 468.07 Q167.286 468.07 165.411 468.486 Q163.559 468.903 161.615 469.782 L161.615 452.421 Z" fill="#000000" fill-rule="evenodd" fill-opacity="1" /><path clip-path="url(#clip380)" d="M 0 0 M201.73 455.5 Q198.119 455.5 196.291 459.065 Q194.485 462.607 194.485 469.736 Q194.485 476.843 196.291 480.407 Q198.119 483.949 201.73 483.949 Q205.365 483.949 207.17 480.407 Q208.999 476.843 208.999 469.736 Q208.999 462.607 207.17 459.065 Q205.365 455.5 201.73 455.5 M201.73 451.796 Q207.541 451.796 210.596 456.403 Q213.675 460.986 213.675 469.736 Q213.675 478.463 210.596 483.069 Q207.541 487.653 201.73 487.653 Q195.92 487.653 192.842 483.069 Q189.786 478.463 189.786 469.736 Q189.786 460.986 192.842 456.403 Q195.92 451.796 201.73 451.796 Z" fill="#000000" fill-rule="evenodd" fill-opacity="1" /><path clip-path="url(#clip380)" d="M 0 0 M250.064 461.519 L239.485 472.144 L250.064 482.722 L247.309 485.523 L236.684 474.898 L226.059 485.523 L223.328 482.722 L233.883 472.144 L223.328 461.519 L226.059 458.718 L236.684 469.343 L247.309 458.718 L250.064 461.519 Z" fill="#000000" fill-rule="evenodd" fill-opacity="1" /><path clip-path="url(#clip380)" d="M 0 0 M262.425 483.046 L270.063 483.046 L270.063 456.681 L261.753 458.347 L261.753 454.088 L270.017 452.421 L274.693 452.421 L274.693 483.046 L282.332 483.046 L282.332 486.981 L262.425 486.981 L262.425 483.046 Z" fill="#000000" fill-rule="evenodd" fill-opacity="1" /><path clip-path="url(#clip380)" d="M 0 0 M301.776 455.5 Q298.165 455.5 296.336 459.065 Q294.531 462.607 294.531 469.736 Q294.531 476.843 296.336 480.407 Q298.165 483.949 301.776 483.949 Q305.41 483.949 307.216 480.407 Q309.045 476.843 309.045 469.736 Q309.045 462.607 307.216 459.065 Q305.41 455.5 301.776 455.5 M301.776 451.796 Q307.586 451.796 310.642 456.403 Q313.721 460.986 313.721 469.736 Q313.721 478.463 310.642 483.069 Q307.586 487.653 301.776 487.653 Q295.966 487.653 292.887 483.069 Q289.832 478.463 289.832 469.736 Q289.832 460.986 292.887 456.403 Q295.966 451.796 301.776 451.796 Z" fill="#000000" fill-rule="evenodd" fill-opacity="1" /><path clip-path="url(#clip380)" d="M 0 0 M326.397 434.801 L316.805 449.791 L326.397 449.791 L326.397 434.801 M325.4 431.491 L330.177 431.491 L330.177 449.791 L334.183 449.791 L334.183 452.951 L330.177 452.951 L330.177 459.571 L326.397 459.571 L326.397 452.951 L313.721 452.951 L313.721 449.283 L325.4 431.491 Z" fill="#000000" fill-rule="evenodd" fill-opacity="1" /><path clip-path="url(#clip380)" d="M 0 0 M119.442 195.833 L127.081 195.833 L127.081 169.468 L118.771 171.134 L118.771 166.875 L127.035 165.208 L131.711 165.208 L131.711 195.833 L139.349 195.833 L139.349 199.768 L119.442 199.768 L119.442 195.833 Z" fill="#000000" fill-rule="evenodd" fill-opacity="1" /><path clip-path="url(#clip380)" d="M 0 0 M148.794 193.889 L153.678 193.889 L153.678 199.768 L148.794 199.768 L148.794 193.889 Z" fill="#000000" fill-rule="evenodd" fill-opacity="1" /><path clip-path="url(#clip380)" d="M 0 0 M173.863 168.287 Q170.252 168.287 168.423 171.852 Q166.618 175.394 166.618 182.523 Q166.618 189.63 168.423 193.194 Q170.252 196.736 173.863 196.736 Q177.497 196.736 179.303 193.194 Q181.132 189.63 181.132 182.523 Q181.132 175.394 179.303 171.852 Q177.497 168.287 173.863 168.287 M173.863 164.583 Q179.673 164.583 182.729 169.19 Q185.807 173.773 185.807 182.523 Q185.807 191.25 182.729 195.856 Q179.673 200.44 173.863 200.44 Q168.053 200.44 164.974 195.856 Q161.919 191.25 161.919 182.523 Q161.919 173.773 164.974 169.19 Q168.053 164.583 173.863 164.583 Z" fill="#000000" fill-rule="evenodd" fill-opacity="1" /><path clip-path="url(#clip380)" d="M 0 0 M204.025 168.287 Q200.414 168.287 198.585 171.852 Q196.78 175.394 196.78 182.523 Q196.78 189.63 198.585 193.194 Q200.414 196.736 204.025 196.736 Q207.659 196.736 209.465 193.194 Q211.293 189.63 211.293 182.523 Q211.293 175.394 209.465 171.852 Q207.659 168.287 204.025 168.287 M204.025 164.583 Q209.835 164.583 212.891 169.19 Q215.969 173.773 215.969 182.523 Q215.969 191.25 212.891 195.856 Q209.835 200.44 204.025 200.44 Q198.215 200.44 195.136 195.856 Q192.081 191.25 192.081 182.523 Q192.081 173.773 195.136 169.19 Q198.215 164.583 204.025 164.583 Z" fill="#000000" fill-rule="evenodd" fill-opacity="1" /><path clip-path="url(#clip380)" d="M 0 0 M252.358 174.306 L241.779 184.931 L252.358 195.509 L249.603 198.31 L238.978 187.685 L228.354 198.31 L225.622 195.509 L236.178 184.931 L225.622 174.306 L228.354 171.505 L238.978 182.13 L249.603 171.505 L252.358 174.306 Z" fill="#000000" fill-rule="evenodd" fill-opacity="1" /><path clip-path="url(#clip380)" d="M 0 0 M264.719 195.833 L272.358 195.833 L272.358 169.468 L264.048 171.134 L264.048 166.875 L272.312 165.208 L276.988 165.208 L276.988 195.833 L284.626 195.833 L284.626 199.768 L264.719 199.768 L264.719 195.833 Z" fill="#000000" fill-rule="evenodd" fill-opacity="1" /><path clip-path="url(#clip380)" d="M 0 0 M304.071 168.287 Q300.46 168.287 298.631 171.852 Q296.825 175.394 296.825 182.523 Q296.825 189.63 298.631 193.194 Q300.46 196.736 304.071 196.736 Q307.705 196.736 309.511 193.194 Q311.339 189.63 311.339 182.523 Q311.339 175.394 309.511 171.852 Q307.705 168.287 304.071 168.287 M304.071 164.583 Q309.881 164.583 312.936 169.19 Q316.015 173.773 316.015 182.523 Q316.015 191.25 312.936 195.856 Q309.881 200.44 304.071 200.44 Q298.261 200.44 295.182 195.856 Q292.126 191.25 292.126 182.523 Q292.126 173.773 295.182 169.19 Q298.261 164.583 304.071 164.583 Z" fill="#000000" fill-rule="evenodd" fill-opacity="1" /><path clip-path="url(#clip380)" d="M 0 0 M317.2 144.278 L332.115 144.278 L332.115 147.475 L320.679 147.475 L320.679 154.359 Q321.507 154.077 322.335 153.945 Q323.162 153.795 323.99 153.795 Q328.692 153.795 331.437 156.371 Q334.183 158.948 334.183 163.349 Q334.183 167.882 331.362 170.402 Q328.541 172.903 323.407 172.903 Q321.639 172.903 319.795 172.602 Q317.971 172.302 316.015 171.7 L316.015 167.882 Q317.708 168.803 319.513 169.255 Q321.319 169.706 323.331 169.706 Q326.585 169.706 328.485 167.995 Q330.384 166.283 330.384 163.349 Q330.384 160.415 328.485 158.704 Q326.585 156.992 323.331 156.992 Q321.808 156.992 320.284 157.331 Q318.78 157.669 317.2 158.384 L317.2 144.278 Z" fill="#000000" fill-rule="evenodd" fill-opacity="1" /><path clip-path="url(#clip380)" d="M 0 0 M24.738 1022.71 L48.3866 1031.43 L48.3866 1013.95 L24.738 1022.71 M18.4042 1026.34 L18.4042 1019.05 L65.9242 1000.94 L65.9242 1007.62 L53.7338 1011.95 L53.7338 1033.37 L65.9242 1037.7 L65.9242 1044.48 L18.4042 1026.34 Z" fill="#000000" fill-rule="evenodd" fill-opacity="1" /><path clip-path="url(#clip380)" d="M 0 0 M30.2762 1002.27 L30.2762 996.067 L60.195 984.927 L30.2762 973.787 L30.2762 967.581 L65.9242 980.949 L65.9242 988.906 L30.2762 1002.27 Z" fill="#000000" fill-rule="evenodd" fill-opacity="1" /><path clip-path="url(#clip380)" d="M 0 0 M47.6864 936.039 Q41.3207 936.039 37.8196 938.681 Q34.3184 941.29 34.3184 946.033 Q34.3184 950.744 37.8196 953.385 Q41.3207 955.995 47.6864 955.995 Q54.0203 955.995 57.5214 953.385 Q61.0226 950.744 61.0226 946.033 Q61.0226 941.29 57.5214 938.681 Q54.0203 936.039 47.6864 936.039 M61.5 930.182 Q70.603 930.182 75.0271 934.225 Q79.4831 938.267 79.4831 946.606 Q79.4831 949.693 79.0057 952.43 Q78.5601 955.168 77.6052 957.746 L71.9079 957.746 Q73.3084 955.168 73.9768 952.653 Q74.6452 950.139 74.6452 947.529 Q74.6452 941.768 71.6215 938.903 Q68.6296 936.039 62.5503 936.039 L59.6539 936.039 Q62.805 937.853 64.3646 940.686 Q65.9242 943.518 65.9242 947.465 Q65.9242 954.022 60.9271 958.032 Q55.93 962.043 47.6864 962.043 Q39.411 962.043 34.4139 958.032 Q29.4168 954.022 29.4168 947.465 Q29.4168 943.518 30.9764 940.686 Q32.536 937.853 35.6871 936.039 L30.2762 936.039 L30.2762 930.182 L61.5 930.182 Z" fill="#000000" fill-rule="evenodd" fill-opacity="1" /><path clip-path="url(#clip380)" d="M 0 0 M60.577 891.733 L79.4831 891.733 L79.4831 897.622 L30.2762 897.622 L30.2762 891.733 L35.6871 891.733 Q32.5042 889.887 30.9764 887.086 Q29.4168 884.254 29.4168 880.339 Q29.4168 873.846 34.5731 869.804 Q39.7293 865.73 48.132 865.73 Q56.5347 865.73 61.691 869.804 Q66.8472 873.846 66.8472 880.339 Q66.8472 884.254 65.3194 887.086 Q63.7598 889.887 60.577 891.733 M48.132 871.809 Q41.6708 871.809 38.0105 874.482 Q34.3184 877.124 34.3184 881.771 Q34.3184 886.418 38.0105 889.092 Q41.6708 891.733 48.132 891.733 Q54.5932 891.733 58.2853 889.092 Q61.9456 886.418 61.9456 881.771 Q61.9456 877.124 58.2853 874.482 Q54.5932 871.809 48.132 871.809 Z" fill="#000000" fill-rule="evenodd" fill-opacity="1" /><path clip-path="url(#clip380)" d="M 0 0 M44.4081 826.389 L65.9242 826.389 L65.9242 832.246 L44.599 832.246 Q39.5383 832.246 37.0238 834.219 Q34.5094 836.193 34.5094 840.139 Q34.5094 844.882 37.5331 847.619 Q40.5568 850.356 45.7767 850.356 L65.9242 850.356 L65.9242 856.245 L16.399 856.245 L16.399 850.356 L35.8144 850.356 Q32.5997 848.256 31.0083 845.423 Q29.4168 842.558 29.4168 838.834 Q29.4168 832.692 33.2363 829.54 Q37.0238 826.389 44.4081 826.389 Z" fill="#000000" fill-rule="evenodd" fill-opacity="1" /><path clip-path="url(#clip380)" d="M 0 0 M34.3821 800.895 Q34.3821 805.605 38.0742 808.343 Q41.7345 811.08 48.132 811.08 Q54.5295 811.08 58.2217 808.375 Q61.8819 805.637 61.8819 800.895 Q61.8819 796.216 58.1898 793.479 Q54.4977 790.741 48.132 790.741 Q41.7981 790.741 38.106 793.479 Q34.3821 796.216 34.3821 800.895 M29.4168 800.895 Q29.4168 793.256 34.3821 788.895 Q39.3473 784.535 48.132 784.535 Q56.8849 784.535 61.8819 788.895 Q66.8472 793.256 66.8472 800.895 Q66.8472 808.565 61.8819 812.926 Q56.8849 817.255 48.132 817.255 Q39.3473 817.255 34.3821 812.926 Q29.4168 808.565 29.4168 800.895 Z" fill="#000000" fill-rule="evenodd" fill-opacity="1" /><path clip-path="url(#clip380)" d="M 0 0 M20.1547 769.034 L30.2762 769.034 L30.2762 756.971 L34.8277 756.971 L34.8277 769.034 L54.1794 769.034 Q58.5399 769.034 59.7813 767.857 Q61.0226 766.647 61.0226 762.987 L61.0226 756.971 L65.9242 756.971 L65.9242 762.987 Q65.9242 769.766 63.4097 772.345 Q60.8634 774.923 54.1794 774.923 L34.8277 774.923 L34.8277 779.22 L30.2762 779.22 L30.2762 774.923 L20.1547 774.923 L20.1547 769.034 Z" fill="#000000" fill-rule="evenodd" fill-opacity="1" /><path clip-path="url(#clip380)" d="M 0 0 M34.3821 735.455 Q34.3821 740.166 38.0742 742.903 Q41.7345 745.64 48.132 745.64 Q54.5295 745.64 58.2217 742.935 Q61.8819 740.198 61.8819 735.455 Q61.8819 730.777 58.1898 728.039 Q54.4977 725.302 48.132 725.302 Q41.7981 725.302 38.106 728.039 Q34.3821 730.777 34.3821 735.455 M29.4168 735.455 Q29.4168 727.816 34.3821 723.456 Q39.3473 719.095 48.132 719.095 Q56.8849 719.095 61.8819 723.456 Q66.8472 727.816 66.8472 735.455 Q66.8472 743.126 61.8819 747.487 Q56.8849 751.815 48.132 751.815 Q39.3473 751.815 34.3821 747.487 Q29.4168 743.126 29.4168 735.455 Z" fill="#000000" fill-rule="evenodd" fill-opacity="1" /><path clip-path="url(#clip380)" d="M 0 0 M44.4081 679.755 L65.9242 679.755 L65.9242 685.612 L44.599 685.612 Q39.5383 685.612 37.0238 687.585 Q34.5094 689.559 34.5094 693.505 Q34.5094 698.248 37.5331 700.985 Q40.5568 703.722 45.7767 703.722 L65.9242 703.722 L65.9242 709.611 L30.2762 709.611 L30.2762 703.722 L35.8144 703.722 Q32.5997 701.622 31.0083 698.789 Q29.4168 695.924 29.4168 692.2 Q29.4168 686.057 33.2363 682.906 Q37.0238 679.755 44.4081 679.755 Z" fill="#000000" fill-rule="evenodd" fill-opacity="1" /><path clip-path="url(#clip380)" d="M 0 0 M31.6448 621.7 L37.1193 621.7 Q35.7507 624.183 35.0823 626.697 Q34.3821 629.18 34.3821 631.726 Q34.3821 637.423 38.0105 640.574 Q41.6072 643.726 48.132 643.726 Q54.6569 643.726 58.2853 640.574 Q61.8819 637.423 61.8819 631.726 Q61.8819 629.18 61.2135 626.697 Q60.5133 624.183 59.1447 621.7 L64.5555 621.7 Q65.7014 624.151 66.2743 626.793 Q66.8472 629.403 66.8472 632.363 Q66.8472 640.415 61.7864 645.158 Q56.7257 649.9 48.132 649.9 Q39.411 649.9 34.4139 645.126 Q29.4168 640.32 29.4168 631.981 Q29.4168 629.275 29.9897 626.697 Q30.5308 624.119 31.6448 621.7 Z" fill="#000000" fill-rule="evenodd" fill-opacity="1" /><path clip-path="url(#clip380)" d="M 0 0 M34.3821 597.701 Q34.3821 602.412 38.0742 605.149 Q41.7345 607.887 48.132 607.887 Q54.5295 607.887 58.2217 605.181 Q61.8819 602.444 61.8819 597.701 Q61.8819 593.023 58.1898 590.285 Q54.4977 587.548 48.132 587.548 Q41.7981 587.548 38.106 590.285 Q34.3821 593.023 34.3821 597.701 M29.4168 597.701 Q29.4168 590.063 34.3821 585.702 Q39.3473 581.342 48.132 581.342 Q56.8849 581.342 61.8819 585.702 Q66.8472 590.063 66.8472 597.701 Q66.8472 605.372 61.8819 609.733 Q56.8849 614.061 48.132 614.061 Q39.3473 614.061 34.3821 609.733 Q29.4168 605.372 29.4168 597.701 Z" fill="#000000" fill-rule="evenodd" fill-opacity="1" /><path clip-path="url(#clip380)" d="M 0 0 M51.8559 572.239 L30.2762 572.239 L30.2762 566.382 L51.6331 566.382 Q56.6939 566.382 59.2402 564.409 Q61.7546 562.435 61.7546 558.489 Q61.7546 553.746 58.7309 551.009 Q55.7072 548.24 50.4873 548.24 L30.2762 548.24 L30.2762 542.383 L65.9242 542.383 L65.9242 548.24 L60.4496 548.24 Q63.6962 550.372 65.2876 553.205 Q66.8472 556.006 66.8472 559.73 Q66.8472 565.873 63.0278 569.056 Q59.2083 572.239 51.8559 572.239 M29.4168 557.502 L29.4168 557.502 Z" fill="#000000" fill-rule="evenodd" fill-opacity="1" /><path clip-path="url(#clip380)" d="M 0 0 M44.4081 500.688 L65.9242 500.688 L65.9242 506.545 L44.599 506.545 Q39.5383 506.545 37.0238 508.518 Q34.5094 510.491 34.5094 514.438 Q34.5094 519.18 37.5331 521.918 Q40.5568 524.655 45.7767 524.655 L65.9242 524.655 L65.9242 530.543 L30.2762 530.543 L30.2762 524.655 L35.8144 524.655 Q32.5997 522.554 31.0083 519.722 Q29.4168 516.857 29.4168 513.133 Q29.4168 506.99 33.2363 503.839 Q37.0238 500.688 44.4081 500.688 Z" fill="#000000" fill-rule="evenodd" fill-opacity="1" /><path clip-path="url(#clip380)" d="M 0 0 M20.1547 483.214 L30.2762 483.214 L30.2762 471.151 L34.8277 471.151 L34.8277 483.214 L54.1794 483.214 Q58.5399 483.214 59.7813 482.037 Q61.0226 480.827 61.0226 477.167 L61.0226 471.151 L65.9242 471.151 L65.9242 477.167 Q65.9242 483.946 63.4097 486.524 Q60.8634 489.102 54.1794 489.102 L34.8277 489.102 L34.8277 493.399 L30.2762 493.399 L30.2762 489.102 L20.1547 489.102 L20.1547 483.214 Z" fill="#000000" fill-rule="evenodd" fill-opacity="1" /><path clip-path="url(#clip380)" d="M 0 0 M31.3265 440.723 L36.8647 440.723 Q35.5916 443.206 34.955 445.879 Q34.3184 448.553 34.3184 451.418 Q34.3184 455.778 35.6552 457.974 Q36.992 460.139 39.6656 460.139 Q41.7026 460.139 42.8803 458.579 Q44.0261 457.019 45.0765 452.309 L45.5221 450.304 Q46.8589 444.065 49.3097 441.455 Q51.7286 438.813 56.0891 438.813 Q61.0544 438.813 63.9508 442.76 Q66.8472 446.675 66.8472 453.55 Q66.8472 456.415 66.2743 459.534 Q65.7332 462.621 64.6192 466.059 L58.5718 466.059 Q60.2587 462.812 61.118 459.661 Q61.9456 456.51 61.9456 453.423 Q61.9456 449.285 60.5451 447.057 Q59.1129 444.829 56.5347 444.829 Q54.1476 444.829 52.8745 446.452 Q51.6013 448.044 50.4237 453.486 L49.9462 455.523 Q48.8004 460.966 46.4451 463.385 Q44.058 465.804 39.9202 465.804 Q34.8913 465.804 32.1541 462.239 Q29.4168 458.674 29.4168 452.118 Q29.4168 448.871 29.8943 446.007 Q30.3717 443.142 31.3265 440.723 Z" fill="#000000" fill-rule="evenodd" fill-opacity="1" /><path clip-path="url(#clip380)" d="M 0 0 M682.814 20.1573 L671.714 50.2555 L693.954 50.2555 L682.814 20.1573 M678.196 12.096 L687.472 12.096 L710.522 72.576 L702.015 72.576 L696.506 57.061 L669.243 57.061 L663.734 72.576 L655.106 72.576 L678.196 12.096 Z" fill="#000000" fill-rule="evenodd" fill-opacity="1" /><path clip-path="url(#clip380)" d="M 0 0 M708.821 27.2059 L716.72 27.2059 L730.898 65.2844 L745.076 27.2059 L752.975 27.2059 L735.962 72.576 L725.834 72.576 L708.821 27.2059 Z" fill="#000000" fill-rule="evenodd" fill-opacity="1" /><path clip-path="url(#clip380)" d="M 0 0 M802.072 48.0275 L802.072 51.6733 L767.802 51.6733 Q768.288 59.3701 772.42 63.421 Q776.592 67.4314 784.005 67.4314 Q788.299 67.4314 792.31 66.3781 Q796.361 65.3249 800.331 63.2184 L800.331 70.267 Q796.32 71.9684 792.107 72.8596 Q787.894 73.7508 783.56 73.7508 Q772.703 73.7508 766.343 67.4314 Q760.024 61.1119 760.024 50.3365 Q760.024 39.1965 766.019 32.6746 Q772.055 26.1121 782.264 26.1121 Q791.419 26.1121 796.725 32.0264 Q802.072 37.9003 802.072 48.0275 M794.619 45.84 Q794.538 39.7232 791.175 36.0774 Q787.854 32.4315 782.345 32.4315 Q776.106 32.4315 772.339 35.9558 Q768.612 39.4801 768.045 45.8805 L794.619 45.84 Z" fill="#000000" fill-rule="evenodd" fill-opacity="1" /><path clip-path="url(#clip380)" d="M 0 0 M840.597 34.1734 Q839.341 33.4443 837.842 33.1202 Q836.384 32.7556 834.601 32.7556 Q828.282 32.7556 824.879 36.8875 Q821.517 40.9789 821.517 48.6757 L821.517 72.576 L814.023 72.576 L814.023 27.2059 L821.517 27.2059 L821.517 34.2544 Q823.866 30.1225 827.634 28.1376 Q831.401 26.1121 836.789 26.1121 Q837.558 26.1121 838.49 26.2337 Q839.422 26.3147 840.556 26.5172 L840.597 34.1734 Z" fill="#000000" fill-rule="evenodd" fill-opacity="1" /><path clip-path="url(#clip380)" d="M 0 0 M869.034 49.7694 Q860 49.7694 856.517 51.8354 Q853.033 53.9013 853.033 58.8839 Q853.033 62.8538 855.625 65.2034 Q858.258 67.5124 862.755 67.5124 Q868.953 67.5124 872.68 63.1374 Q876.447 58.7219 876.447 51.4303 L876.447 49.7694 L869.034 49.7694 M883.901 46.6907 L883.901 72.576 L876.447 72.576 L876.447 65.6895 Q873.895 69.8214 870.087 71.8063 Q866.279 73.7508 860.77 73.7508 Q853.802 73.7508 849.671 69.8619 Q845.579 65.9325 845.579 59.3701 Q845.579 51.7138 850.683 47.825 Q855.828 43.9361 865.996 43.9361 L876.447 43.9361 L876.447 43.2069 Q876.447 38.0623 873.044 35.2672 Q869.682 32.4315 863.565 32.4315 Q859.676 32.4315 855.99 33.3632 Q852.304 34.295 848.901 36.1584 L848.901 29.2718 Q852.992 27.692 856.841 26.9223 Q860.689 26.1121 864.335 26.1121 Q874.179 26.1121 879.04 31.2163 Q883.901 36.3204 883.901 46.6907 Z" fill="#000000" fill-rule="evenodd" fill-opacity="1" /><path clip-path="url(#clip380)" d="M 0 0 M929.109 49.3643 Q929.109 41.2625 925.747 36.8065 Q922.425 32.3505 916.389 32.3505 Q910.394 32.3505 907.031 36.8065 Q903.71 41.2625 903.71 49.3643 Q903.71 57.4256 907.031 61.8816 Q910.394 66.3376 916.389 66.3376 Q922.425 66.3376 925.747 61.8816 Q929.109 57.4256 929.109 49.3643 M936.562 66.9452 Q936.562 78.5308 931.418 84.1616 Q926.273 89.8329 915.66 89.8329 Q911.73 89.8329 908.247 89.2252 Q904.763 88.6581 901.482 87.4428 L901.482 80.1917 Q904.763 81.9741 907.963 82.8248 Q911.163 83.6755 914.485 83.6755 Q921.817 83.6755 925.463 79.8271 Q929.109 76.0193 929.109 68.282 L929.109 64.5957 Q926.8 68.6061 923.194 70.5911 Q919.589 72.576 914.566 72.576 Q906.221 72.576 901.117 66.2161 Q896.013 59.8562 896.013 49.3643 Q896.013 38.832 901.117 32.472 Q906.221 26.1121 914.566 26.1121 Q919.589 26.1121 923.194 28.0971 Q926.8 30.082 929.109 34.0924 L929.109 27.2059 L936.562 27.2059 L936.562 66.9452 Z" fill="#000000" fill-rule="evenodd" fill-opacity="1" /><path clip-path="url(#clip380)" d="M 0 0 M990.723 48.0275 L990.723 51.6733 L956.452 51.6733 Q956.938 59.3701 961.07 63.421 Q965.243 67.4314 972.656 67.4314 Q976.95 67.4314 980.96 66.3781 Q985.011 65.3249 988.981 63.2184 L988.981 70.267 Q984.971 71.9684 980.758 72.8596 Q976.545 73.7508 972.21 73.7508 Q961.354 73.7508 954.994 67.4314 Q948.675 61.1119 948.675 50.3365 Q948.675 39.1965 954.67 32.6746 Q960.706 26.1121 970.914 26.1121 Q980.069 26.1121 985.376 32.0264 Q990.723 37.9003 990.723 48.0275 M983.269 45.84 Q983.188 39.7232 979.826 36.0774 Q976.504 32.4315 970.995 32.4315 Q964.757 32.4315 960.989 35.9558 Q957.263 39.4801 956.695 45.8805 L983.269 45.84 Z" fill="#000000" fill-rule="evenodd" fill-opacity="1" /><path clip-path="url(#clip380)" d="M 0 0 M1037.84 18.8205 L1037.84 41.5461 L1048.12 41.5461 Q1053.84 41.5461 1056.96 38.5889 Q1060.07 35.6318 1060.07 30.163 Q1060.07 24.7348 1056.96 21.7777 Q1053.84 18.8205 1048.12 18.8205 L1037.84 18.8205 M1029.65 12.096 L1048.12 12.096 Q1058.29 12.096 1063.48 16.714 Q1068.7 21.2916 1068.7 30.163 Q1068.7 39.1155 1063.48 43.6931 Q1058.29 48.2706 1048.12 48.2706 L1037.84 48.2706 L1037.84 72.576 L1029.65 72.576 L1029.65 12.096 Z" fill="#000000" fill-rule="evenodd" fill-opacity="1" /><path clip-path="url(#clip380)" d="M 0 0 M1117.07 45.1919 L1117.07 72.576 L1109.62 72.576 L1109.62 45.4349 Q1109.62 38.994 1107.11 35.7938 Q1104.59 32.5936 1099.57 32.5936 Q1093.53 32.5936 1090.05 36.4419 Q1086.57 40.2903 1086.57 46.9338 L1086.57 72.576 L1079.07 72.576 L1079.07 9.54393 L1086.57 9.54393 L1086.57 34.2544 Q1089.24 30.163 1092.85 28.1376 Q1096.49 26.1121 1101.23 26.1121 Q1109.05 26.1121 1113.06 30.9732 Q1117.07 35.7938 1117.07 45.1919 Z" fill="#000000" fill-rule="evenodd" fill-opacity="1" /><path clip-path="url(#clip380)" d="M 0 0 M1149.52 32.4315 Q1143.52 32.4315 1140.04 37.1306 Q1136.56 41.7891 1136.56 49.9314 Q1136.56 58.0738 1140 62.7728 Q1143.48 67.4314 1149.52 67.4314 Q1155.47 67.4314 1158.96 62.7323 Q1162.44 58.0333 1162.44 49.9314 Q1162.44 41.8701 1158.96 37.1711 Q1155.47 32.4315 1149.52 32.4315 M1149.52 26.1121 Q1159.24 26.1121 1164.79 32.4315 Q1170.34 38.7509 1170.34 49.9314 Q1170.34 61.0714 1164.79 67.4314 Q1159.24 73.7508 1149.52 73.7508 Q1139.76 73.7508 1134.21 67.4314 Q1128.7 61.0714 1128.7 49.9314 Q1128.7 38.7509 1134.21 32.4315 Q1139.76 26.1121 1149.52 26.1121 Z" fill="#000000" fill-rule="evenodd" fill-opacity="1" /><path clip-path="url(#clip380)" d="M 0 0 M1190.07 14.324 L1190.07 27.2059 L1205.42 27.2059 L1205.42 32.9987 L1190.07 32.9987 L1190.07 57.6282 Q1190.07 63.1779 1191.57 64.7578 Q1193.11 66.3376 1197.76 66.3376 L1205.42 66.3376 L1205.42 72.576 L1197.76 72.576 Q1189.14 72.576 1185.86 69.3758 Q1182.57 66.1351 1182.57 57.6282 L1182.57 32.9987 L1177.11 32.9987 L1177.11 27.2059 L1182.57 27.2059 L1182.57 14.324 L1190.07 14.324 Z" fill="#000000" fill-rule="evenodd" fill-opacity="1" /><path clip-path="url(#clip380)" d="M 0 0 M1232.81 32.4315 Q1226.81 32.4315 1223.33 37.1306 Q1219.84 41.7891 1219.84 49.9314 Q1219.84 58.0738 1223.29 62.7728 Q1226.77 67.4314 1232.81 67.4314 Q1238.76 67.4314 1242.24 62.7323 Q1245.73 58.0333 1245.73 49.9314 Q1245.73 41.8701 1242.24 37.1711 Q1238.76 32.4315 1232.81 32.4315 M1232.81 26.1121 Q1242.53 26.1121 1248.08 32.4315 Q1253.63 38.7509 1253.63 49.9314 Q1253.63 61.0714 1248.08 67.4314 Q1242.53 73.7508 1232.81 73.7508 Q1223.04 73.7508 1217.49 67.4314 Q1211.98 61.0714 1211.98 49.9314 Q1211.98 38.7509 1217.49 32.4315 Q1223.04 26.1121 1232.81 26.1121 Z" fill="#000000" fill-rule="evenodd" fill-opacity="1" /><path clip-path="url(#clip380)" d="M 0 0 M1303.7 45.1919 L1303.7 72.576 L1296.24 72.576 L1296.24 45.4349 Q1296.24 38.994 1293.73 35.7938 Q1291.22 32.5936 1286.2 32.5936 Q1280.16 32.5936 1276.68 36.4419 Q1273.19 40.2903 1273.19 46.9338 L1273.19 72.576 L1265.7 72.576 L1265.7 27.2059 L1273.19 27.2059 L1273.19 34.2544 Q1275.87 30.163 1279.47 28.1376 Q1283.12 26.1121 1287.86 26.1121 Q1295.68 26.1121 1299.69 30.9732 Q1303.7 35.7938 1303.7 45.1919 Z" fill="#000000" fill-rule="evenodd" fill-opacity="1" /><path clip-path="url(#clip380)" d="M 0 0 M1390.55 16.7545 L1390.55 25.383 Q1386.42 21.5346 1381.72 19.6307 Q1377.06 17.7268 1371.79 17.7268 Q1361.42 17.7268 1355.91 24.0867 Q1350.4 30.4061 1350.4 42.3968 Q1350.4 54.3469 1355.91 60.7069 Q1361.42 67.0263 1371.79 67.0263 Q1377.06 67.0263 1381.72 65.1223 Q1386.42 63.2184 1390.55 59.3701 L1390.55 67.9175 Q1386.25 70.8341 1381.43 72.2924 Q1376.65 73.7508 1371.31 73.7508 Q1357.57 73.7508 1349.67 65.3654 Q1341.77 56.9395 1341.77 42.3968 Q1341.77 27.8135 1349.67 19.4281 Q1357.57 11.0023 1371.31 11.0023 Q1376.73 11.0023 1381.51 12.4606 Q1386.33 13.8784 1390.55 16.7545 Z" fill="#000000" fill-rule="evenodd" fill-opacity="1" /><path clip-path="url(#clip380)" d="M 0 0 M1420.44 32.4315 Q1414.45 32.4315 1410.96 37.1306 Q1407.48 41.7891 1407.48 49.9314 Q1407.48 58.0738 1410.92 62.7728 Q1414.41 67.4314 1420.44 67.4314 Q1426.4 67.4314 1429.88 62.7323 Q1433.37 58.0333 1433.37 49.9314 Q1433.37 41.8701 1429.88 37.1711 Q1426.4 32.4315 1420.44 32.4315 M1420.44 26.1121 Q1430.17 26.1121 1435.71 32.4315 Q1441.26 38.7509 1441.26 49.9314 Q1441.26 61.0714 1435.71 67.4314 Q1430.17 73.7508 1420.44 73.7508 Q1410.68 73.7508 1405.13 67.4314 Q1399.62 61.0714 1399.62 49.9314 Q1399.62 38.7509 1405.13 32.4315 Q1410.68 26.1121 1420.44 26.1121 Z" fill="#000000" fill-rule="evenodd" fill-opacity="1" /><path clip-path="url(#clip380)" d="M 0 0 M1452.85 54.671 L1452.85 27.2059 L1460.3 27.2059 L1460.3 54.3874 Q1460.3 60.8284 1462.82 64.0691 Q1465.33 67.2693 1470.35 67.2693 Q1476.39 67.2693 1479.87 63.421 Q1483.39 59.5726 1483.39 52.9291 L1483.39 27.2059 L1490.85 27.2059 L1490.85 72.576 L1483.39 72.576 L1483.39 65.6084 Q1480.68 69.7404 1477.07 71.7658 Q1473.51 73.7508 1468.77 73.7508 Q1460.95 73.7508 1456.9 68.8897 Q1452.85 64.0286 1452.85 54.671 M1471.61 26.1121 L1471.61 26.1121 Z" fill="#000000" fill-rule="evenodd" fill-opacity="1" /><path clip-path="url(#clip380)" d="M 0 0 M1543.91 45.1919 L1543.91 72.576 L1536.46 72.576 L1536.46 45.4349 Q1536.46 38.994 1533.95 35.7938 Q1531.44 32.5936 1526.41 32.5936 Q1520.38 32.5936 1516.89 36.4419 Q1513.41 40.2903 1513.41 46.9338 L1513.41 72.576 L1505.92 72.576 L1505.92 27.2059 L1513.41 27.2059 L1513.41 34.2544 Q1516.08 30.163 1519.69 28.1376 Q1523.34 26.1121 1528.08 26.1121 Q1535.89 26.1121 1539.9 30.9732 Q1543.91 35.7938 1543.91 45.1919 Z" fill="#000000" fill-rule="evenodd" fill-opacity="1" /><path clip-path="url(#clip380)" d="M 0 0 M1566.15 14.324 L1566.15 27.2059 L1581.51 27.2059 L1581.51 32.9987 L1566.15 32.9987 L1566.15 57.6282 Q1566.15 63.1779 1567.65 64.7578 Q1569.19 66.3376 1573.85 66.3376 L1581.51 66.3376 L1581.51 72.576 L1573.85 72.576 Q1565.22 72.576 1561.94 69.3758 Q1558.66 66.1351 1558.66 57.6282 L1558.66 32.9987 L1553.19 32.9987 L1553.19 27.2059 L1558.66 27.2059 L1558.66 14.324 L1566.15 14.324 Z" fill="#000000" fill-rule="evenodd" fill-opacity="1" /><path clip-path="url(#clip380)" d="M 0 0 M1620.23 28.5427 L1620.23 35.5912 Q1617.07 33.9709 1613.67 33.1607 Q1610.27 32.3505 1606.62 32.3505 Q1601.07 32.3505 1598.28 34.0519 Q1595.52 35.7533 1595.52 39.156 Q1595.52 41.7486 1597.51 43.2475 Q1599.49 44.7058 1605.49 46.0426 L1608.04 46.6097 Q1615.98 48.3111 1619.3 51.4303 Q1622.66 54.509 1622.66 60.0587 Q1622.66 66.3781 1617.64 70.0644 Q1612.66 73.7508 1603.91 73.7508 Q1600.26 73.7508 1596.29 73.0216 Q1592.36 72.3329 1587.99 70.9151 L1587.99 63.2184 Q1592.12 65.3654 1596.13 66.4591 Q1600.14 67.5124 1604.07 67.5124 Q1609.34 67.5124 1612.17 65.73 Q1615.01 63.9071 1615.01 60.6258 Q1615.01 57.5877 1612.94 55.9673 Q1610.92 54.3469 1603.99 52.8481 L1601.4 52.2405 Q1594.47 50.7821 1591.39 47.7845 Q1588.31 44.7463 1588.31 39.4801 Q1588.31 33.0797 1592.85 29.5959 Q1597.39 26.1121 1605.73 26.1121 Q1609.86 26.1121 1613.51 26.7198 Q1617.15 27.3274 1620.23 28.5427 Z" fill="#000000" fill-rule="evenodd" fill-opacity="1" /><path clip-path="url(#clip380)" d="M 0 0 M1655.56 27.2059 L1663.46 27.2059 L1677.63 65.2844 L1691.81 27.2059 L1699.71 27.2059 L1682.7 72.576 L1672.57 72.576 L1655.56 27.2059 Z" fill="#000000" fill-rule="evenodd" fill-opacity="1" /><path clip-path="url(#clip380)" d="M 0 0 M1738.93 28.5427 L1738.93 35.5912 Q1735.77 33.9709 1732.36 33.1607 Q1728.96 32.3505 1725.31 32.3505 Q1719.76 32.3505 1716.97 34.0519 Q1714.21 35.7533 1714.21 39.156 Q1714.21 41.7486 1716.2 43.2475 Q1718.18 44.7058 1724.18 46.0426 L1726.73 46.6097 Q1734.67 48.3111 1737.99 51.4303 Q1741.36 54.509 1741.36 60.0587 Q1741.36 66.3781 1736.33 70.0644 Q1731.35 73.7508 1722.6 73.7508 Q1718.95 73.7508 1714.98 73.0216 Q1711.05 72.3329 1706.68 70.9151 L1706.68 63.2184 Q1710.81 65.3654 1714.82 66.4591 Q1718.83 67.5124 1722.76 67.5124 Q1728.03 67.5124 1730.86 65.73 Q1733.7 63.9071 1733.7 60.6258 Q1733.7 57.5877 1731.63 55.9673 Q1729.61 54.3469 1722.68 52.8481 L1720.09 52.2405 Q1713.16 50.7821 1710.08 47.7845 Q1707 44.7463 1707 39.4801 Q1707 33.0797 1711.54 29.5959 Q1716.08 26.1121 1724.42 26.1121 Q1728.55 26.1121 1732.2 26.7198 Q1735.85 27.3274 1738.93 28.5427 Z" fill="#000000" fill-rule="evenodd" fill-opacity="1" /><path clip-path="url(#clip380)" d="M 0 0 M1771.53 12.096 L1822.7 12.096 L1822.7 18.9825 L1801.23 18.9825 L1801.23 72.576 L1793 72.576 L1793 18.9825 L1771.53 18.9825 L1771.53 12.096 Z" fill="#000000" fill-rule="evenodd" fill-opacity="1" /><path clip-path="url(#clip380)" d="M 0 0 M1827.72 27.2059 L1835.17 27.2059 L1835.17 72.576 L1827.72 72.576 L1827.72 27.2059 M1827.72 9.54393 L1835.17 9.54393 L1835.17 18.9825 L1827.72 18.9825 L1827.72 9.54393 Z" fill="#000000" fill-rule="evenodd" fill-opacity="1" /><path clip-path="url(#clip380)" d="M 0 0 M1886.09 35.9153 Q1888.89 30.8922 1892.78 28.5022 Q1896.67 26.1121 1901.93 26.1121 Q1909.02 26.1121 1912.87 31.0947 Q1916.72 36.0368 1916.72 45.1919 L1916.72 72.576 L1909.23 72.576 L1909.23 45.4349 Q1909.23 38.913 1906.92 35.7533 Q1904.61 32.5936 1899.87 32.5936 Q1894.07 32.5936 1890.71 36.4419 Q1887.35 40.2903 1887.35 46.9338 L1887.35 72.576 L1879.86 72.576 L1879.86 45.4349 Q1879.86 38.8725 1877.55 35.7533 Q1875.24 32.5936 1870.42 32.5936 Q1864.71 32.5936 1861.34 36.4824 Q1857.98 40.3308 1857.98 46.9338 L1857.98 72.576 L1850.49 72.576 L1850.49 27.2059 L1857.98 27.2059 L1857.98 34.2544 Q1860.53 30.082 1864.1 28.0971 Q1867.66 26.1121 1872.56 26.1121 Q1877.51 26.1121 1880.95 28.6237 Q1884.43 31.1352 1886.09 35.9153 Z" fill="#000000" fill-rule="evenodd" fill-opacity="1" /><path clip-path="url(#clip380)" d="M 0 0 M1970.39 48.0275 L1970.39 51.6733 L1936.12 51.6733 Q1936.61 59.3701 1940.74 63.421 Q1944.91 67.4314 1952.33 67.4314 Q1956.62 67.4314 1960.63 66.3781 Q1964.68 65.3249 1968.65 63.2184 L1968.65 70.267 Q1964.64 71.9684 1960.43 72.8596 Q1956.22 73.7508 1951.88 73.7508 Q1941.02 73.7508 1934.66 67.4314 Q1928.35 61.1119 1928.35 50.3365 Q1928.35 39.1965 1934.34 32.6746 Q1940.38 26.1121 1950.58 26.1121 Q1959.74 26.1121 1965.05 32.0264 Q1970.39 37.9003 1970.39 48.0275 M1962.94 45.84 Q1962.86 39.7232 1959.5 36.0774 Q1956.18 32.4315 1950.67 32.4315 Q1944.43 32.4315 1940.66 35.9558 Q1936.93 39.4801 1936.37 45.8805 L1962.94 45.84 Z" fill="#000000" fill-rule="evenodd" fill-opacity="1" /><polyline clip-path="url(#clip382)" style="stroke:#009af9; stroke-width:4; stroke-opacity:1; fill:none" points="
  422.178,1183.47 423.068,1109.61 423.959,1277.26 424.849,1298.06 425.74,1287.73 426.631,1260.01 427.521,1225.85 428.412,1189.82 429.302,1316.19 430.193,1222.53 
  431.083,1169.33 431.974,1320.74 432.865,1274.33 433.755,1171.54 434.646,1208.53 435.536,1067.88 436.427,1262.95 437.317,1259.62 438.208,1263.12 439.099,1189.89 
  439.989,1190.3 440.88,1260.5 441.77,1030.94 442.661,1173.62 443.551,971.649 444.442,1170.68 445.333,978.787 446.223,1189.67 447.114,1060.57 448.004,1186.28 
  448.895,1284.48 449.785,1299.68 450.676,1180.53 451.567,982.777 452.457,1069.85 453.348,1146.05 454.238,1276.43 455.129,1265.61 456.019,1197.32 456.91,1251.43 
  457.801,1276.19 458.691,1111.15 459.582,1242.64 460.472,1213.12 461.363,1294.53 462.253,1239.82 463.144,1248.96 464.035,1260.96 464.925,1281.16 465.816,1254.58 
  466.706,1241.37 467.597,1264.36 468.487,1211.67 469.378,1232.76 470.269,961.812 471.159,1131.32 472.05,1311.56 472.94,923.825 473.831,1231.28 474.721,1316.73 
  475.612,1021.55 476.503,1249.14 477.393,1301.68 478.284,989.96 479.174,1120.92 480.065,1272.89 480.955,1136.94 481.846,1284.89 482.737,1130.2 483.627,1021.74 
  484.518,1262.67 485.408,570.339 486.299,1293.59 487.189,1069.38 488.08,990.08 488.971,1279.08 489.861,1160.61 490.752,1293.53 491.642,1261.69 492.533,1269.34 
  493.423,1247.38 494.314,1263.43 495.205,1102.76 496.095,1060.18 496.986,1016.48 497.876,1273.66 498.767,1157.25 499.657,1287.7 500.548,1069.55 501.439,1314.96 
  502.329,925.254 503.22,942.584 504.11,890.771 505.001,1204.31 505.892,1237.99 506.782,1311.31 507.673,1186.54 508.563,997.106 509.454,664.232 510.344,1308.23 
  511.235,1291.94 512.126,1198.68 513.016,1197.98 513.907,1139.36 514.797,1044.7 515.688,1117.57 516.578,1228.29 517.469,1322.13 518.36,1023.36 519.25,1294.85 
  520.141,1139.32 521.031,1196 521.922,1288.57 522.812,1019.3 523.703,1303.04 524.594,922.888 525.484,1306.22 526.375,904.614 527.265,1299.89 528.156,1102.82 
  529.046,1164.99 529.937,1264.14 530.828,948.978 531.718,1074.46 532.609,479.866 533.499,1185.96 534.39,1322.23 535.28,1099.64 536.171,1291.91 537.062,1274.33 
  537.952,1194.35 538.843,1127.25 539.733,1271.01 540.624,1310.71 541.514,1203.46 542.405,1244.88 543.296,1215.41 544.186,1276.4 545.077,1164.37 545.967,1236.66 
  546.858,1235.38 547.748,1067.47 548.639,1282.06 549.53,1146.12 550.42,1290.92 551.311,1241.77 552.201,1260.29 553.092,1292.85 553.982,1136.99 554.873,1324.83 
  555.764,884.665 556.654,1281.3 557.545,1009.86 558.435,1120.71 559.326,1166.59 560.216,1209.79 561.107,946.9 561.998,1284.46 562.888,1160.17 563.779,1323.32 
  564.669,1236.46 565.56,761.547 566.45,875.138 567.341,1169.61 568.232,1297.8 569.122,1254.22 570.013,1304.17 570.903,1226.14 571.794,932.36 572.684,1195.51 
  573.575,1229.63 574.466,1283.54 575.356,1266.51 576.247,1292.49 577.137,1292.77 578.028,1312.87 578.918,1295.25 579.809,1249.64 580.7,1306.97 581.59,1252.31 
  582.481,1282.31 583.371,1147.6 584.262,1233.99 585.152,864.738 586.043,1321.34 586.934,1159.25 587.824,1296.7 588.715,1036.94 589.605,1029.36 590.496,1181.05 
  591.386,1209.47 592.277,1318.74 593.168,1200.99 594.058,1104.38 594.949,1018.56 595.839,1189.71 596.73,1195.64 597.62,1291.74 598.511,1313.66 599.402,1320.78 
  600.292,1315.56 601.183,1030.32 602.073,1184.99 602.964,1200.53 603.854,1267.58 604.745,1313.01 605.636,1252.24 606.526,1281.1 607.417,1214.65 608.307,1302.63 
  609.198,1095.59 610.088,1251.46 610.979,1308.83 611.87,1171.93 612.76,1277.65 613.651,1236.23 614.541,1281.86 615.432,1315.72 616.322,1205.49 617.213,1234.64 
  618.104,1194.48 618.994,1204.2 619.885,1156.55 620.775,1127.45 621.666,1169.75 622.556,1017.82 623.447,792.354 624.338,1246.44 625.228,1217.31 626.119,1167.6 
  627.009,1315.12 627.9,1058.82 628.79,1025.21 629.681,1118.48 630.572,1290.21 631.462,1202.82 632.353,1181.59 633.243,1311.52 634.134,894.062 635.024,1013.13 
  635.915,1111.09 636.806,792.663 637.696,1265.44 638.587,883.913 639.477,1212.22 640.368,1247.9 641.258,1254.47 642.149,1309.22 643.04,1259.22 643.93,1286.77 
  644.821,1098.79 645.711,993.824 646.602,860.994 647.492,1244.59 648.383,1302.28 649.274,1223.59 650.164,1300.5 651.055,804.684 651.945,1200.01 652.836,804.319 
  653.726,1152.06 654.617,1104.78 655.508,1301.93 656.398,1136.5 657.289,1239 658.179,1148.33 659.07,972.606 659.96,1226.77 660.851,1297.59 661.742,1309.26 
  662.632,1297.34 663.523,1034.57 664.413,1322.92 665.304,1171.19 666.194,1216.95 667.085,1284.99 667.976,1186.62 668.866,1297.78 669.757,1141.44 670.647,1321.31 
  671.538,1261.25 672.428,1253.85 673.319,1240.07 674.21,1135.41 675.1,1239.82 675.991,1261.83 676.881,1069.88 677.772,1313.82 678.662,1210.49 679.553,1007.95 
  680.444,1280.07 681.334,1060.79 682.225,857.605 683.115,1035.09 684.006,1137.98 684.896,1253.18 685.787,1006.55 686.678,1317.1 687.568,1301.35 688.459,1197.02 
  689.349,1226.82 690.24,1311.73 691.13,1292 692.021,1166.66 692.912,1319.23 693.802,1224.3 694.693,1261.5 695.583,1304.51 696.474,1198.88 697.364,1251.69 
  698.255,1263.3 699.146,1170.13 700.036,1252.73 700.927,1231.95 701.817,1314.01 702.708,1294.7 703.598,1188.88 704.489,1201.84 705.38,1113.6 706.27,1174.34 
  707.161,669.941 708.051,1206.86 708.942,958.945 709.832,871.294 710.723,1311.76 711.614,679.936 712.504,1156.13 713.395,910.872 714.285,1312.84 715.176,864.251 
  716.066,922.101 716.957,973.36 717.848,1279.76 718.738,1128.73 719.629,1291.78 720.519,1297.05 721.41,1166.98 722.3,1097.38 723.191,1225.45 724.082,1242.31 
  724.972,1174.2 725.863,1202.22 726.753,1286.89 727.644,1200.15 728.534,1273.59 729.425,1280.84 730.316,1303.82 731.206,1244.22 732.097,1244.35 732.987,1270.5 
  733.878,769.178 734.768,1132.32 735.659,1024.51 736.55,895.793 737.44,1221.6 738.331,1299.77 739.221,396.285 740.112,1257.11 741.002,1027.79 741.893,1215.72 
  742.784,1181.36 743.674,1271.99 744.565,1016.31 745.455,1050.39 746.346,1282.22 747.236,1273.43 748.127,1193.41 749.018,1312.25 749.908,1305.58 750.799,1087.45 
  751.689,1129.74 752.58,1188.5 753.47,1307.81 754.361,1189.89 755.252,1268.87 756.142,1308.66 757.033,1176.53 757.923,1307.58 758.814,1098.95 759.705,1322.42 
  760.595,1106.91 761.486,1211 762.376,1302.09 763.267,1097.45 764.157,1236.97 765.048,1273.76 765.939,1142.18 766.829,1075.59 767.72,1142.88 768.61,1270.82 
  769.501,776.656 770.391,1286.34 771.282,1278.15 772.173,680.463 773.063,1049.92 773.954,887.731 774.844,1009.17 775.735,1214.32 776.625,1233.38 777.516,1046.18 
  778.407,1154.74 779.297,1030.14 780.188,1312.62 781.078,1070.3 781.969,1308.85 782.859,1233.21 783.75,1047.12 784.641,1248.75 785.531,901.453 786.422,1216.41 
  787.312,1000.3 788.203,828.334 789.093,1282.45 789.984,940.15 790.875,1295.55 791.765,1273.85 792.656,1208.93 793.546,1310.16 794.437,1047.14 795.327,1035.33 
  796.218,702.357 797.109,1077.83 797.999,1310.2 798.89,1264.45 799.78,1212.74 800.671,1134.24 801.561,631.812 802.452,1249.97 803.343,976.541 804.233,1311.91 
  805.124,1064.19 806.014,1292.7 806.905,1031.39 807.795,1161.15 808.686,1246.14 809.577,1137.23 810.467,1276.43 811.358,1297.36 812.248,1312.01 813.139,1078.17 
  814.029,1266.61 814.92,1243.36 815.811,1189.1 816.701,1200.26 817.592,1217.97 818.482,1237.5 819.373,1214.14 820.263,1284.35 821.154,1219.44 822.045,1292.09 
  822.935,1284.46 823.826,1168.34 824.716,1168.79 825.607,1315.81 826.497,1305.52 827.388,1105.66 828.279,1296.14 829.169,1266.62 830.06,898.52 830.95,1293.8 
  831.841,1080.06 832.731,982.396 833.622,1224.98 834.513,1058.78 835.403,1162.61 836.294,1039.03 837.184,1237.56 838.075,1238.73 838.965,1071.44 839.856,1242.25 
  840.747,1255.91 841.637,1271.82 842.528,1150.73 843.418,1263.05 844.309,1266.87 845.199,1219.41 846.09,1275.76 846.981,1306.9 847.871,1250.96 848.762,1228.94 
  849.652,1230.7 850.543,1231.23 851.433,1295.23 852.324,1308.54 853.215,1255.99 854.105,1126.18 854.996,1319.13 855.886,1066.2 856.777,1263.85 857.667,413.216 
  858.558,1306.36 859.449,1060.15 860.339,888.488 861.23,1127.32 862.12,1068.86 863.011,501.612 863.901,1090.05 864.792,1307.93 865.683,678.752 866.573,1275.81 
  867.464,1053.1 868.354,1199.1 869.245,1125.87 870.135,1322.13 871.026,1282.79 871.917,1158.22 872.807,1209.68 873.698,1245.51 874.588,1210.73 875.479,1139.64 
  876.369,1237.1 877.26,1123.08 878.151,1199.68 879.041,1232.85 879.932,1323.12 880.822,1304.39 881.713,1261.62 882.603,1285.87 883.494,984.261 884.385,1159.62 
  885.275,706.405 886.166,1274.27 887.056,721.574 887.947,1081.63 888.837,1302.17 889.728,346.945 890.619,1238.42 891.509,1202.55 892.4,893.079 893.29,1169.79 
  894.181,1284.84 895.071,983.312 895.962,1151.15 896.853,1256.12 897.743,1268.96 898.634,1089.6 899.524,1252.03 900.415,1284.39 901.305,884.085 902.196,1250.55 
  903.087,1284.46 903.977,1110.66 904.868,1300.97 905.758,1229.93 906.649,1256.93 907.539,1220.53 908.43,1222.67 909.321,1234.46 910.211,1100.95 911.102,1308.6 
  911.992,1141.59 912.883,1221.19 913.773,1292.27 914.664,839.501 915.555,1271.9 916.445,948.072 917.336,1264.98 918.226,912.823 919.117,1259.53 920.007,477.793 
  920.898,1291.35 921.789,1155.56 922.679,759.104 923.57,970.576 924.46,1247.65 925.351,579.508 926.241,1276.43 927.132,1164.04 928.023,990.375 928.913,1324.52 
  929.804,1155.33 930.694,1258.68 931.585,1121.99 932.475,1272.71 933.366,1294.39 934.257,1068.52 935.147,1276.65 936.038,1284.39 936.928,952.047 937.819,1277.25 
  938.709,862.907 939.6,1181.28 940.491,1162.91 941.381,1252.78 942.272,1115.56 943.162,1317.48 944.053,996.465 944.943,1163.9 945.834,764.258 946.725,1126.44 
  947.615,1022.06 948.506,1308.79 949.396,1158.26 950.287,1149.58 951.177,975.588 952.068,921.707 952.959,1293.03 953.849,1134.78 954.74,1160.84 955.63,1042.79 
  956.521,1201.61 957.411,1073.14 958.302,1153.42 959.193,1225.2 960.083,1194 960.974,1217.44 961.864,1220.6 962.755,1269.07 963.645,1099.2 964.536,1208.57 
  965.427,1314.93 966.317,994.21 967.208,1287.07 968.098,1091.61 968.989,1253.72 969.879,1186.27 970.77,1153.07 971.661,1261.59 972.551,1158.29 973.442,1220.51 
  974.332,1131.88 975.223,1123.24 976.113,1178.28 977.004,1043.76 977.895,1134.82 978.785,1205.89 979.676,1243.08 980.566,971.883 981.457,1124.09 982.347,967.514 
  983.238,1057.33 984.129,1150.2 985.019,1082.81 985.91,1092.58 986.8,1204.13 987.691,839.219 988.581,1194.19 989.472,847.806 990.363,1313.6 991.253,1086.17 
  992.144,1127.56 993.034,1259.75 993.925,1037 994.815,1323.87 995.706,1120.26 996.597,1281.08 997.487,1097.48 998.378,1309 999.268,998.225 1000.16,1253.37 
  1001.05,1167 1001.94,1299.12 1002.83,1145.3 1003.72,1119.19 1004.61,1209.01 1005.5,1201.62 1006.39,1148.32 1007.28,1020.42 1008.17,806.664 1009.06,1305.89 
  1009.96,1163.29 1010.85,1258.21 1011.74,811.795 1012.63,1235.69 1013.52,552.539 1014.41,1210.88 1015.3,1286.83 1016.19,981.285 1017.08,1231.41 1017.97,1169.88 
  1018.86,1195.09 1019.75,1264.33 1020.64,1265.28 1021.53,1285.49 1022.42,1188.27 1023.31,1318.7 1024.2,1182.97 1025.09,1255.58 1025.99,1238.85 1026.88,1041.6 
  1027.77,1258.08 1028.66,1132.47 1029.55,1315.9 1030.44,1295.42 1031.33,1299.82 1032.22,1313.23 1033.11,1281.27 1034,1121.13 1034.89,1272.94 1035.78,926.182 
  1036.67,955.006 1037.56,1251.97 1038.45,876.749 1039.34,1132.16 1040.23,1000.53 1041.13,1012.23 1042.02,1321.22 1042.91,960.62 1043.8,1188.91 1044.69,1275.59 
  1045.58,1009.45 1046.47,1246.55 1047.36,1280.32 1048.25,1169.64 1049.14,1297.47 1050.03,1187.58 1050.92,1096.74 1051.81,1184.4 1052.7,1222.59 1053.59,1212.84 
  1054.48,1250.79 1055.37,1259.22 1056.26,1282.73 1057.16,1240.59 1058.05,1243.27 1058.94,1152.75 1059.83,1218.73 1060.72,1194.72 1061.61,1263.49 1062.5,1296.62 
  1063.39,1284.64 1064.28,878.979 1065.17,992.962 1066.06,1044.71 1066.95,1237.66 1067.84,1262.63 1068.73,1001.12 1069.62,758.06 1070.51,756.53 1071.4,1257.08 
  1072.3,1062.77 1073.19,1239.5 1074.08,934.281 1074.97,1240.21 1075.86,603.332 1076.75,1310.97 1077.64,1145.64 1078.53,1189.99 1079.42,1314.07 1080.31,1225.65 
  1081.2,1216.06 1082.09,1248.01 1082.98,1267.14 1083.87,1278.86 1084.76,1264.18 1085.65,1304.51 1086.54,1237.03 1087.43,1281.38 1088.33,965.438 1089.22,1292.96 
  1090.11,1225.45 1091,1215.12 1091.89,1299.83 1092.78,1047.38 1093.67,1116.1 1094.56,1067.06 1095.45,1311.73 1096.34,969.13 1097.23,1323.21 1098.12,1078.83 
  1099.01,1224.59 1099.9,1079.9 1100.79,1275.76 1101.68,1105.41 1102.57,1123.12 1103.47,1271.05 1104.36,1287.98 1105.25,816.03 1106.14,1291.15 1107.03,1197.99 
  1107.92,970.626 1108.81,1237.96 1109.7,1149.37 1110.59,1244.59 1111.48,1157.68 1112.37,1299.57 1113.26,1148.86 1114.15,1292.64 1115.04,1197.77 1115.93,1191.41 
  1116.82,1279.31 1117.71,1062.29 1118.6,1308.94 1119.5,1102.36 1120.39,1323.02 1121.28,914.33 1122.17,1321.99 1123.06,1259.73 1123.95,999.133 1124.84,1312.8 
  1125.73,1026.22 1126.62,561.759 1127.51,1032.22 1128.4,1239.3 1129.29,1097.04 1130.18,1293.99 1131.07,1169.72 1131.96,613.088 1132.85,1076.8 1133.74,1077.36 
  1134.64,1120.61 1135.53,1216.2 1136.42,1025.98 1137.31,1313.78 1138.2,491.956 1139.09,1213.41 1139.98,1048.7 1140.87,929.598 1141.76,1214.35 1142.65,932.581 
  1143.54,1304.92 1144.43,1102.34 1145.32,1158.47 1146.21,1244.84 1147.1,1010.72 1147.99,1200.76 1148.88,892.561 1149.78,1177.25 1150.67,944.167 1151.56,1205.6 
  1152.45,1295.75 1153.34,827.087 1154.23,1254.51 1155.12,934.684 1156.01,1142.87 1156.9,1079.64 1157.79,1108.36 1158.68,1171.75 1159.57,1314.97 1160.46,1289.69 
  1161.35,1260.11 1162.24,844.651 1163.13,1216.14 1164.02,1030.56 1164.91,1187.71 1165.81,1241.12 1166.7,1293.65 1167.59,1022.43 1168.48,1313.73 1169.37,1295.5 
  1170.26,1197.09 1171.15,1249.69 1172.04,1294.56 1172.93,1271.23 1173.82,1249.37 1174.71,1299.31 1175.6,1129.3 1176.49,1291.62 1177.38,1089.22 1178.27,1122.88 
  1179.16,1260.28 1180.05,1241.07 1180.95,1184.93 1181.84,1293.73 1182.73,1312.74 1183.62,1144.13 1184.51,1313.44 1185.4,1222.59 1186.29,1098.91 1187.18,1161.64 
  1188.07,1225.71 1188.96,908.724 1189.85,1102.18 1190.74,1275.06 1191.63,1140.59 1192.52,1308.02 1193.41,1242.75 1194.3,1126.91 1195.19,1239.18 1196.08,1058.5 
  1196.98,1307.36 1197.87,1291.38 1198.76,1273.75 1199.65,1318.62 1200.54,1222.57 1201.43,1228.4 1202.32,1234.71 1203.21,1276.72 1204.1,1197.81 1204.99,1268.55 
  1205.88,1321.81 1206.77,1199.34 1207.66,1186.44 1208.55,1089.81 1209.44,1198.19 1210.33,1161.88 1211.22,1206.45 1212.12,1247.28 1213.01,1313.05 1213.9,1029.76 
  1214.79,791.444 1215.68,1091 1216.57,1231.03 1217.46,1294.46 1218.35,1168.6 1219.24,1035.93 1220.13,549.777 1221.02,1217.71 1221.91,1288.14 1222.8,1214.33 
  1223.69,1308.25 1224.58,1119.58 1225.47,1031.83 1226.36,1005.98 1227.25,1255.35 1228.15,1323.96 1229.04,1123.23 1229.93,1270.51 1230.82,1295.19 1231.71,1098.89 
  1232.6,1318.39 1233.49,1294.68 1234.38,1244.46 1235.27,1323.08 1236.16,1238.24 1237.05,1267.36 1237.94,1071.3 1238.83,1224.96 1239.72,1276.36 1240.61,1270.85 
  1241.5,1273.84 1242.39,1125.56 1243.29,984.147 1244.18,1079.91 1245.07,1318.74 1245.96,1278.87 1246.85,1245.56 1247.74,1274.14 1248.63,1193.48 1249.52,1194.29 
  1250.41,1255.59 1251.3,1300.99 1252.19,1183.12 1253.08,1211.92 1253.97,1214.39 1254.86,1260.36 1255.75,964.458 1256.64,1223.72 1257.53,1318.5 1258.42,806.176 
  1259.32,1292.62 1260.21,1229.4 1261.1,1154.74 1261.99,1249.38 1262.88,1255.24 1263.77,1300.15 1264.66,1240.53 1265.55,1317.61 1266.44,1242.57 1267.33,1244.18 
  1268.22,1253.96 1269.11,1188.76 1270,1185.37 1270.89,1237.12 1271.78,1045.69 1272.67,1304.7 1273.56,1311.01 1274.46,1236.56 1275.35,1100.79 1276.24,806.319 
  1277.13,452.177 1278.02,1184.27 1278.91,1296.37 1279.8,1244.22 1280.69,1244.68 1281.58,1142.93 1282.47,584.418 1283.36,1275.42 1284.25,1214.31 1285.14,1139.27 
  1286.03,1294.97 1286.92,1178.2 1287.81,1015.97 1288.7,1026.87 1289.59,1017.42 1290.49,1310.39 1291.38,794.087 1292.27,1184.85 1293.16,1166.6 1294.05,1196.36 
  1294.94,1324.53 1295.83,1090.57 1296.72,1298.84 1297.61,1033.2 1298.5,1294.36 1299.39,648.919 1300.28,1264.13 1301.17,1049.05 1302.06,1103.73 1302.95,1309.48 
  1303.84,987.564 1304.73,995.953 1305.63,876.511 1306.52,1187.51 1307.41,1144.11 1308.3,1280.25 1309.19,1321.51 1310.08,1311.8 1310.97,1319.78 1311.86,1112.21 
  1312.75,1144.22 1313.64,1267.46 1314.53,1177.35 1315.42,1270.74 1316.31,1231.66 1317.2,1243.03 1318.09,1192.22 1318.98,1236.55 1319.87,1303.22 1320.76,1128.14 
  1321.66,1320.88 1322.55,1265.99 1323.44,1313.32 1324.33,1254.5 1325.22,1256.91 1326.11,1250.15 1327,1095.62 1327.89,1314.28 1328.78,851.028 1329.67,1215 
  1330.56,1291.14 1331.45,976.077 1332.34,1160.2 1333.23,1298.26 1334.12,763.485 1335.01,1315.1 1335.9,1266.99 1336.8,1157.26 1337.69,1295.35 1338.58,964.429 
  1339.47,920.059 1340.36,1146.48 1341.25,1324.01 1342.14,1223.27 1343.03,1318.28 1343.92,1318.15 1344.81,1053.04 1345.7,1179.1 1346.59,1111.84 1347.48,1311.13 
  1348.37,1235.96 1349.26,1307.36 1350.15,1323.96 1351.04,1293.88 1351.93,1299.39 1352.83,1270.04 1353.72,1194.4 1354.61,1300.1 1355.5,1284.66 1356.39,978.044 
  1357.28,1304.83 1358.17,726.899 1359.06,1309.46 1359.95,1000.76 1360.84,1318 1361.73,807.247 1362.62,1260.3 1363.51,1154.66 1364.4,712.404 1365.29,1156.84 
  1366.18,1158.35 1367.07,1164.86 1367.97,1238.23 1368.86,1141.45 1369.75,837.498 1370.64,1095.51 1371.53,1307.01 1372.42,1300.98 1373.31,1311.85 1374.2,1246.41 
  1375.09,1173.58 1375.98,1086.59 1376.87,1286 1377.76,1290.85 1378.65,1171.85 1379.54,1274 1380.43,1128.76 1381.32,1179 1382.21,1211.43 1383.1,1180.31 
  1384,1303.05 1384.89,1235.37 1385.78,1194.67 1386.67,1198.51 1387.56,1071.12 1388.45,1196.23 1389.34,1030.16 1390.23,1243.5 1391.12,1095.18 1392.01,1067.74 
  1392.9,1132.14 1393.79,840.513 1394.68,1263.84 1395.57,1249.82 1396.46,1030.16 1397.35,1322.27 1398.24,1289.98 1399.14,1177.5 1400.03,1292.02 1400.92,1295.7 
  1401.81,1200.66 1402.7,1075.37 1403.59,1301.03 1404.48,1241.91 1405.37,998.774 1406.26,1322.11 1407.15,1153.27 1408.04,968.348 1408.93,1244.9 1409.82,1022.1 
  1410.71,1277.38 1411.6,1078.98 1412.49,1262.93 1413.38,1209.58 1414.27,1255.98 1415.17,1301.39 1416.06,1246.58 1416.95,1186.84 1417.84,1256.1 1418.73,978.875 
  1419.62,1168.6 1420.51,1135.36 1421.4,1251.53 1422.29,1136.86 1423.18,1271.75 1424.07,1207.19 1424.96,1322.17 1425.85,825.148 1426.74,734.594 1427.63,871.852 
  1428.52,1278.08 1429.41,1180.92 1430.31,1307.95 1431.2,1264.49 1432.09,948.54 1432.98,1140.28 1433.87,1267.97 1434.76,1297.73 1435.65,1179.27 1436.54,1268.48 
  1437.43,1313.73 1438.32,991.343 1439.21,1309.37 1440.1,1230.61 1440.99,962.016 1441.88,1289.14 1442.77,1021.45 1443.66,1313.85 1444.55,1323.5 1445.44,1195.31 
  1446.34,1273.56 1447.23,1265.99 1448.12,1253.51 1449.01,1196.29 1449.9,864.058 1450.79,1275.37 1451.68,1272.46 1452.57,1105.35 1453.46,1287.15 1454.35,1218.34 
  1455.24,809.653 1456.13,1091.71 1457.02,1293.54 1457.91,1237.19 1458.8,1268.91 1459.69,1298.2 1460.58,1321.18 1461.48,1276.93 1462.37,1087.77 1463.26,1314.86 
  1464.15,1300.71 1465.04,1188.72 1465.93,1274.15 1466.82,1312.98 1467.71,1175.94 1468.6,1243.19 1469.49,1273.7 1470.38,1111.29 1471.27,1319.95 1472.16,1203.21 
  1473.05,1324.01 1473.94,1283.12 1474.83,1323.06 1475.72,1255.8 1476.61,1296.6 1477.51,1178.05 1478.4,948.671 1479.29,1218.38 1480.18,756.353 1481.07,1299.08 
  1481.96,1108.25 1482.85,745.967 1483.74,1176.63 1484.63,711.41 1485.52,1095.86 1486.41,1238.92 1487.3,1250.12 1488.19,1012.49 1489.08,944.741 1489.97,944.643 
  1490.86,1233.52 1491.75,1198.47 1492.65,1172.69 1493.54,1293.33 1494.43,1298.99 1495.32,922.018 1496.21,1182.2 1497.1,1191.32 1497.99,1130.41 1498.88,1235.57 
  1499.77,1230.09 1500.66,1310.47 1501.55,1291.33 1502.44,1248.02 1503.33,1312.15 1504.22,1257.73 1505.11,1261.57 1506,1143.33 1506.89,817.416 1507.78,937.231 
  1508.68,1065.13 1509.57,1128.58 1510.46,1055.52 1511.35,1234.09 1512.24,525.189 1513.13,1313.12 1514.02,859.607 1514.91,1154.98 1515.8,991.128 1516.69,1312.65 
  1517.58,1023.66 1518.47,1136.15 1519.36,1147.37 1520.25,1074.17 1521.14,1299.47 1522.03,1298.64 1522.92,1292.67 1523.82,1290.8 1524.71,1222.06 1525.6,1195.48 
  1526.49,1295.45 1527.38,1307.54 1528.27,1282.11 1529.16,1232.6 1530.05,1181.73 1530.94,1268.24 1531.83,1042.37 1532.72,1292.59 1533.61,1215.04 1534.5,1192.14 
  1535.39,1276.72 1536.28,1066.88 1537.17,1294.16 1538.06,962.312 1538.95,1232.2 1539.85,929.118 1540.74,770.209 1541.63,1299.1 1542.52,696.045 1543.41,1081.93 
  1544.3,1194.1 1545.19,859.779 1546.08,1159.5 1546.97,965.197 1547.86,1213.03 1548.75,1307.21 1549.64,1139.25 1550.53,1243.16 1551.42,1281.94 1552.31,1014.97 
  1553.2,1290 1554.09,1143.95 1554.99,1205.67 1555.88,1184.18 1556.77,1129.49 1557.66,1279.9 1558.55,1017.4 1559.44,1157.94 1560.33,1236.94 1561.22,909.047 
  1562.11,1319.03 1563,949.353 1563.89,1315.22 1564.78,1166.16 1565.67,1156.9 1566.56,1306.73 1567.45,984.268 1568.34,833.937 1569.23,834.192 1570.12,1137.73 
  1571.02,1066.75 1571.91,1320.16 1572.8,1033.42 1573.69,1028.11 1574.58,1007.3 1575.47,1317.5 1576.36,606.4 1577.25,1176.83 1578.14,933.448 1579.03,1282.64 
  1579.92,968.442 1580.81,1289.19 1581.7,1255.43 1582.59,1036.81 1583.48,1311.01 1584.37,1197.69 1585.26,1296.53 1586.16,1113.3 1587.05,1271.74 1587.94,1280.71 
  1588.83,1131.53 1589.72,1222.77 1590.61,1227 1591.5,1139.14 1592.39,1087.22 1593.28,1276.4 1594.17,1268.19 1595.06,1076.88 1595.95,1314.75 1596.84,1140.93 
  1597.73,1228.66 1598.62,1257.67 1599.51,1276.29 1600.4,1003.26 1601.29,1311.76 1602.19,1309.78 1603.08,1095.54 1603.97,1223.33 1604.86,1282.94 1605.75,972.754 
  1606.64,1145.88 1607.53,1285.22 1608.42,1285.26 1609.31,995.258 1610.2,1322.88 1611.09,1270.4 1611.98,1055.38 1612.87,1159.02 1613.76,1278.06 1614.65,1287.1 
  1615.54,1186.54 1616.43,1250.42 1617.33,1266.76 1618.22,1254.42 1619.11,1130.53 1620,1229.22 1620.89,1214.29 1621.78,1090.42 1622.67,1305.59 1623.56,1217.48 
  1624.45,1317.05 1625.34,1263.39 1626.23,1307.66 1627.12,1238.03 1628.01,1185.07 1628.9,934.001 1629.79,1163.73 1630.68,561.918 1631.57,1236.38 1632.46,1208.66 
  1633.36,666.544 1634.25,942.34 1635.14,1123.17 1636.03,597.896 1636.92,1254.75 1637.81,1291.68 1638.7,761.881 1639.59,1172.61 1640.48,1020.18 1641.37,1282.21 
  1642.26,929.008 1643.15,1276.91 1644.04,1256.67 1644.93,1061.39 1645.82,1067.37 1646.71,1071.17 1647.6,1286.08 1648.5,990.464 1649.39,1199.63 1650.28,1150.71 
  1651.17,1215.96 1652.06,1230.95 1652.95,1290.74 1653.84,1263.82 1654.73,1321.73 1655.62,1286.15 1656.51,719.625 1657.4,1094.97 1658.29,822.332 1659.18,1304.03 
  1660.07,1014.04 1660.96,1196.47 1661.85,1036.43 1662.74,727.837 1663.64,1304.86 1664.53,1029.56 1665.42,1228.6 1666.31,996.071 1667.2,1282.86 1668.09,1073.17 
  1668.98,1146.78 1669.87,1213.03 1670.76,1316.74 1671.65,1214.41 1672.54,1308.26 1673.43,1313.61 1674.32,1208.89 1675.21,1241.26 1676.1,1317.82 1676.99,1321.64 
  1677.88,1308.77 1678.77,1298.73 1679.67,1285.13 1680.56,1241.02 1681.45,1221.29 1682.34,1272.68 1683.23,1144.79 1684.12,1315.47 1685.01,1299.1 1685.9,1188.55 
  1686.79,1172.13 1687.68,1275.85 1688.57,1167.03 1689.46,854.261 1690.35,1253.29 1691.24,625.756 1692.13,1150.11 1693.02,769.616 1693.91,1092.84 1694.81,1143.11 
  1695.7,921.217 1696.59,1022.62 1697.48,1228.7 1698.37,979.898 1699.26,1297.78 1700.15,1058.26 1701.04,1230.21 1701.93,1317.47 1702.82,1131.48 1703.71,1283.86 
  1704.6,1252.87 1705.49,1165.97 1706.38,1317.41 1707.27,1203.82 1708.16,1227.37 1709.05,1324.2 1709.94,1083.53 1710.84,1192 1711.73,1077.68 1712.62,1171.53 
  1713.51,1055.16 1714.4,1294.72 1715.29,1182.98 1716.18,1250.14 1717.07,942.882 1717.96,1202.7 1718.85,158.463 1719.74,1266.69 1720.63,1138.79 1721.52,1127.95 
  1722.41,1068.21 1723.3,1136.85 1724.19,618.017 1725.08,1131.07 1725.98,1315.23 1726.87,742.11 1727.76,1288.32 1728.65,1023.31 1729.54,1074.98 1730.43,1020.41 
  1731.32,1287.23 1732.21,1263.16 1733.1,998.435 1733.99,1301.92 1734.88,1196.81 1735.77,1108.03 1736.66,1272.97 1737.55,1141.69 1738.44,1285.59 1739.33,1101.17 
  1740.22,1288.33 1741.11,1041.63 1742.01,1298.54 1742.9,1130.94 1743.79,1071.76 1744.68,1316.15 1745.57,1027.47 1746.46,979.434 1747.35,1219.51 1748.24,1043.76 
  1749.13,1164.84 1750.02,1273.39 1750.91,1077.92 1751.8,1171.7 1752.69,1305.38 1753.58,1035.55 1754.47,1192.64 1755.36,1238.67 1756.25,1002.28 1757.15,1129.18 
  1758.04,1180.99 1758.93,1171.09 1759.82,995.078 1760.71,1049.48 1761.6,1288.39 1762.49,690.631 1763.38,1321.2 1764.27,1186.41 1765.16,1173.63 1766.05,1213.67 
  1766.94,1222.29 1767.83,1261.08 1768.72,1129.88 1769.61,1305.42 1770.5,905.864 1771.39,1257.27 1772.28,1029.19 1773.18,1196 1774.07,1155.68 1774.96,1315.58 
  1775.85,1035.47 1776.74,1298.53 1777.63,1227.93 1778.52,1253.83 1779.41,925.013 1780.3,783.52 1781.19,721.345 1782.08,1289.49 1782.97,1092.8 1783.86,1088.19 
  1784.75,798.767 1785.64,1255.26 1786.53,475.056 1787.42,1286.64 1788.32,1266.06 1789.21,862.196 1790.1,1322.29 1790.99,1112.93 1791.88,1180.31 1792.77,1052.1 
  1793.66,1232.33 1794.55,1293.95 1795.44,829.578 1796.33,1307.96 1797.22,1099.94 1798.11,1093.12 1799,1274.03 1799.89,838.087 1800.78,1310.64 1801.67,1076.95 
  1802.56,1322.97 1803.45,1102.85 1804.35,1315.88 1805.24,1322.96 1806.13,1063.36 1807.02,959.573 1807.91,1159.5 1808.8,1099.92 1809.69,1093.36 1810.58,1211.61 
  1811.47,1258.23 1812.36,1051.92 1813.25,1098 1814.14,1266.92 1815.03,1268.81 1815.92,1041.5 1816.81,1190.22 1817.7,1301.25 1818.59,1080.03 1819.49,1250.89 
  1820.38,1295.9 1821.27,1256.41 1822.16,1280.63 1823.05,1269.63 1823.94,1246.95 1824.83,1199.62 1825.72,1320.93 1826.61,1275.14 1827.5,1314.84 1828.39,1291.08 
  1829.28,1280.73 1830.17,1299.44 1831.06,1191.92 1831.95,1238.52 1832.84,1076.77 1833.73,1298.32 1834.62,1293.21 1835.52,1296.41 1836.41,1309.6 1837.3,887.372 
  1838.19,1238.09 1839.08,1218.17 1839.97,991.176 1840.86,1276.75 1841.75,1040.4 1842.64,633.733 1843.53,983.788 1844.42,1172.16 1845.31,1071.53 1846.2,1217.41 
  1847.09,1109.02 1847.98,1322.26 1848.87,817.892 1849.76,1205.3 1850.66,1150.03 1851.55,1262.23 1852.44,1302.06 1853.33,1269.19 1854.22,1280.44 1855.11,1315.66 
  1856,1314.31 1856.89,1269.49 1857.78,1324.07 1858.67,1323.92 1859.56,1220.86 1860.45,1206.1 1861.34,1049.93 1862.23,1244.16 1863.12,1216.81 1864.01,1255.65 
  1864.9,1249.03 1865.79,1292.46 1866.69,1199.13 1867.58,923.991 1868.47,1061.06 1869.36,779.82 1870.25,1289.69 1871.14,1272.48 1872.03,1297.53 1872.92,770.527 
  1873.81,1230.63 1874.7,930.254 1875.59,1177.56 1876.48,1272.42 1877.37,1170.92 1878.26,1009.71 1879.15,1274.39 1880.04,1027.96 1880.93,1251.68 1881.83,1261.42 
  1882.72,1132.95 1883.61,1225.84 1884.5,1100.42 1885.39,1307.95 1886.28,1110.53 1887.17,1268.05 1888.06,1267.34 1888.95,1186.38 1889.84,1310.51 1890.73,1171.26 
  1891.62,1269.18 1892.51,1176.9 1893.4,1308.74 1894.29,923.635 1895.18,1182.27 1896.07,1306.48 1896.96,719.63 1897.86,1193.45 1898.75,1248.49 1899.64,704.738 
  1900.53,1219.94 1901.42,1236.8 1902.31,1068.05 1903.2,1296.15 1904.09,1216.57 1904.98,976.948 1905.87,1230.85 1906.76,881.198 1907.65,1239.08 1908.54,1204.64 
  1909.43,905.392 1910.32,1320.73 1911.21,733.559 1912.1,1083.37 1913,1049.19 1913.89,1002.02 1914.78,1303.34 1915.67,1057.08 1916.56,1304.65 1917.45,1242.89 
  1918.34,1233.19 1919.23,1268.12 1920.12,985.566 1921.01,1177.15 1921.9,842.421 1922.79,1295.79 1923.68,991.936 1924.57,1142.9 1925.46,1197.19 1926.35,946.389 
  1927.24,1312.87 1928.13,1261.22 1929.03,1256.12 1929.92,732.092 1930.81,695.383 1931.7,1100.28 1932.59,1310.34 1933.48,1150.65 1934.37,1322.29 1935.26,883.62 
  1936.15,1139.32 1937.04,816.807 1937.93,1292.8 1938.82,1204.18 1939.71,1159.15 1940.6,1204.72 1941.49,1276.03 1942.38,1140.19 1943.27,1283.37 1944.17,1157.66 
  1945.06,1231.66 1945.95,1125.16 1946.84,1179.21 1947.73,1315.75 1948.62,1039.67 1949.51,1176.88 1950.4,1078.92 1951.29,1196.56 1952.18,1201.37 1953.07,1263 
  1953.96,980.199 1954.85,1309.45 1955.74,1294.17 1956.63,1010.94 1957.52,1250.46 1958.41,1245.58 1959.3,1065.98 1960.2,1212.18 1961.09,1299.79 1961.98,1263.74 
  1962.87,1219.9 1963.76,1179.62 1964.65,1284.53 1965.54,1322.41 1966.43,1052.29 1967.32,1267.69 1968.21,1315.65 1969.1,1094.97 1969.99,1278.79 1970.88,1310.5 
  1971.77,1262.32 1972.66,1315.01 1973.55,1163.51 1974.44,1280.47 1975.34,1226.96 1976.23,1243.69 1977.12,1281.46 1978.01,1236.71 1978.9,1274.57 1979.79,1220.31 
  1980.68,1176.83 1981.57,1045.64 1982.46,902.49 1983.35,1176.31 1984.24,1122.42 1985.13,1310.47 1986.02,1321.11 1986.91,768.81 1987.8,794.284 1988.69,1059.96 
  1989.58,1324.66 1990.47,1254.73 1991.37,1203.59 1992.26,1078.3 1993.15,445.619 1994.04,1154.38 1994.93,1241.9 1995.82,1219.83 1996.71,1290.99 1997.6,1211.09 
  1998.49,1179.17 1999.38,847.146 2000.27,1135.08 2001.16,1282.64 2002.05,1173.69 2002.94,1161.01 2003.83,1306.56 2004.72,1278.08 2005.61,1304.06 2006.51,1289.81 
  2007.4,1279.6 2008.29,1318.94 2009.18,1116.06 2010.07,1207.95 2010.96,820.819 2011.85,1188.83 2012.74,1260.36 2013.63,1276.47 2014.52,1256.43 2015.41,1259.62 
  2016.3,1101.53 2017.19,1146.55 2018.08,1160.63 2018.97,1163.73 2019.86,1307.48 2020.75,1286.06 2021.64,1322.53 2022.54,1191.43 2023.43,1050.93 2024.32,1258 
  2025.21,1266.25 2026.1,1218 2026.99,1236.91 2027.88,1303.66 2028.77,1088.79 2029.66,1288.55 2030.55,1283.58 2031.44,1203.19 2032.33,1312.59 2033.22,1148.08 
  2034.11,1246.54 2035,1237.46 2035.89,1124.23 2036.78,1314.13 2037.68,1233.96 2038.57,1273.33 2039.46,1313.42 2040.35,1262.65 2041.24,1313.5 2042.13,1311.09 
  2043.02,1239.16 2043.91,1052.25 2044.8,1010.29 2045.69,1252.4 2046.58,1218.72 2047.47,1086.59 2048.36,1179.48 2049.25,966.718 2050.14,673.595 2051.03,1177.65 
  2051.92,1322.78 2052.81,1246.2 2053.71,1292.83 2054.6,1300.47 2055.49,871.943 2056.38,1219.03 2057.27,1114.71 2058.16,1144.23 2059.05,1322.31 2059.94,1087.32 
  2060.83,1014.6 2061.72,1200.19 2062.61,873.078 2063.5,1257.39 2064.39,1006.63 2065.28,1147.21 2066.17,1260.17 2067.06,1294.03 2067.95,1297.61 2068.85,1253.72 
  2069.74,1248.09 2070.63,1004.53 2071.52,1192.74 2072.41,826.059 2073.3,1207.46 2074.19,1129.17 2075.08,1104.12 2075.97,1090.08 2076.86,1203.55 2077.75,1187.53 
  2078.64,1257.38 2079.53,1125.5 2080.42,752.85 2081.31,1005.63 2082.2,1308.21 2083.09,1315.91 2083.98,1291.33 2084.88,1185.3 2085.77,1193.39 2086.66,1100.31 
  2087.55,1081.62 2088.44,1282.64 2089.33,1278.09 2090.22,1117.83 2091.11,1266.94 2092,1273.05 2092.89,1227.24 2093.78,1228.45 2094.67,1321.55 2095.56,1199.96 
  2096.45,1323.75 2097.34,1280.33 2098.23,1161.11 2099.12,1278.13 2100.02,1066.04 2100.91,1285.78 2101.8,1140.8 2102.69,1222.75 2103.58,1205.01 2104.47,1047.49 
  2105.36,1215.48 2106.25,1272.62 2107.14,1014.16 2108.03,1277.04 2108.92,1305.43 2109.81,1126.07 2110.7,1320.57 2111.59,1281.96 2112.48,1208.21 2113.37,1137.37 
  2114.26,1264.28 2115.15,1227.59 2116.05,1291.57 2116.94,1165 2117.83,1199.87 2118.72,1312.18 2119.61,1103.24 2120.5,1297.83 2121.39,1298.48 2122.28,1317.32 
  2123.17,1208.89 2124.06,1305.3 2124.95,1156.73 2125.84,1316.29 2126.73,1199.83 2127.62,1268.75 2128.51,1273.36 2129.4,1129.06 2130.29,1303.7 2131.19,644.015 
  2132.08,1263.11 2132.97,560.778 2133.86,1292.02 2134.75,957.911 2135.64,1246.9 2136.53,1026.83 2137.42,377.541 2138.31,827.517 2139.2,1216.75 2140.09,1196.88 
  2140.98,1322.24 2141.87,1173.84 2142.76,792.979 2143.65,842.139 2144.54,1266.42 2145.43,1299.48 2146.32,1218.41 2147.22,1321.27 2148.11,1183.18 2149,1036.89 
  2149.89,1034.5 2150.78,1220.9 2151.67,1132.44 2152.56,1098.92 2153.45,1159.76 2154.34,1150.29 2155.23,1301.14 2156.12,1259.57 2157.01,1248.79 2157.9,1218.05 
  2158.79,1152.56 2159.68,1166.13 2160.57,493.814 2161.46,1168.83 2162.36,986.409 2163.25,1170.54 2164.14,1244.33 2165.03,1055.29 2165.92,1170.56 2166.81,862.839 
  2167.7,1320.13 2168.59,1235.75 2169.48,1275.28 2170.37,1304.79 2171.26,1318.94 2172.15,1246.07 2173.04,1187.83 2173.93,1290.57 2174.82,1305.28 2175.71,1180.03 
  2176.6,1287.89 2177.5,1302.34 2178.39,1140.56 2179.28,1311.08 2180.17,1312.05 2181.06,1205.09 2181.95,1314.45 2182.84,1197.25 2183.73,1317.24 2184.62,1105.41 
  2185.51,1208.69 2186.4,1232.76 2187.29,1098.41 2188.18,1270.66 2189.07,1292.86 2189.96,1066.9 2190.85,1301.94 2191.74,1226.88 2192.63,1318.5 2193.53,826.675 
  2194.42,1116.28 2195.31,901.058 2196.2,1243.2 2197.09,1250.5 2197.98,1255.97 2198.87,992.463 2199.76,733.953 2200.65,869.009 2201.54,1257.92 2202.43,1259.36 
  2203.32,1317.52 
  "/>
</svg>
