<?xml version="1.0" encoding="utf-8"?>
<svg xmlns="http://www.w3.org/2000/svg" xmlns:xlink="http://www.w3.org/1999/xlink" width="576" height="384" viewBox="0 0 2304 1536">
<defs>
  <clipPath id="clip320">
    <rect x="0" y="0" width="2304" height="1536"/>
  </clipPath>
</defs>
<path clip-path="url(#clip320)" d="
M0 1536 L2304 1536 L2304 0 L0 0  Z
  " fill="#ffffff" fill-rule="evenodd" fill-opacity="1"/>
<defs>
  <clipPath id="clip321">
    <rect x="460" y="0" width="1614" height="1536"/>
  </clipPath>
</defs>
<defs>
  <clipPath id="clip322">
    <rect x="266" y="123" width="1991" height="1241"/>
  </clipPath>
</defs>
<path clip-path="url(#clip320)" d="
M249.733 1359.82 L2256.76 1359.82 L2256.76 123.472 L249.733 123.472  Z
  " fill="#ffffff" fill-rule="evenodd" fill-opacity="1"/>
<defs>
  <clipPath id="clip323">
    <rect x="249" y="123" width="2008" height="1237"/>
  </clipPath>
</defs>
<polyline clip-path="url(#clip323)" style="stroke:#000000; stroke-width:2; stroke-opacity:0.1; fill:none" points="
  306.535,1359.82 306.535,123.472 
  "/>
<polyline clip-path="url(#clip323)" style="stroke:#000000; stroke-width:2; stroke-opacity:0.1; fill:none" points="
  685.602,1359.82 685.602,123.472 
  "/>
<polyline clip-path="url(#clip323)" style="stroke:#000000; stroke-width:2; stroke-opacity:0.1; fill:none" points="
  1064.67,1359.82 1064.67,123.472 
  "/>
<polyline clip-path="url(#clip323)" style="stroke:#000000; stroke-width:2; stroke-opacity:0.1; fill:none" points="
  1443.74,1359.82 1443.74,123.472 
  "/>
<polyline clip-path="url(#clip323)" style="stroke:#000000; stroke-width:2; stroke-opacity:0.1; fill:none" points="
  1822.8,1359.82 1822.8,123.472 
  "/>
<polyline clip-path="url(#clip323)" style="stroke:#000000; stroke-width:2; stroke-opacity:0.1; fill:none" points="
  2201.87,1359.82 2201.87,123.472 
  "/>
<polyline clip-path="url(#clip320)" style="stroke:#000000; stroke-width:4; stroke-opacity:1; fill:none" points="
  249.733,1359.82 2256.76,1359.82 
  "/>
<polyline clip-path="url(#clip320)" style="stroke:#000000; stroke-width:4; stroke-opacity:1; fill:none" points="
  306.535,1359.82 306.535,1344.98 
  "/>
<polyline clip-path="url(#clip320)" style="stroke:#000000; stroke-width:4; stroke-opacity:1; fill:none" points="
  685.602,1359.82 685.602,1344.98 
  "/>
<polyline clip-path="url(#clip320)" style="stroke:#000000; stroke-width:4; stroke-opacity:1; fill:none" points="
  1064.67,1359.82 1064.67,1344.98 
  "/>
<polyline clip-path="url(#clip320)" style="stroke:#000000; stroke-width:4; stroke-opacity:1; fill:none" points="
  1443.74,1359.82 1443.74,1344.98 
  "/>
<polyline clip-path="url(#clip320)" style="stroke:#000000; stroke-width:4; stroke-opacity:1; fill:none" points="
  1822.8,1359.82 1822.8,1344.98 
  "/>
<polyline clip-path="url(#clip320)" style="stroke:#000000; stroke-width:4; stroke-opacity:1; fill:none" points="
  2201.87,1359.82 2201.87,1344.98 
  "/>
<path clip-path="url(#clip320)" d="M 0 0 M306.535 1388.24 Q302.924 1388.24 301.095 1391.81 Q299.29 1395.35 299.29 1402.48 Q299.29 1409.59 301.095 1413.15 Q302.924 1416.69 306.535 1416.69 Q310.169 1416.69 311.975 1413.15 Q313.804 1409.59 313.804 1402.48 Q313.804 1395.35 311.975 1391.81 Q310.169 1388.24 306.535 1388.24 M306.535 1384.54 Q312.345 1384.54 315.401 1389.15 Q318.48 1393.73 318.48 1402.48 Q318.48 1411.21 315.401 1415.81 Q312.345 1420.4 306.535 1420.4 Q300.725 1420.4 297.646 1415.81 Q294.591 1411.21 294.591 1402.48 Q294.591 1393.73 297.646 1389.15 Q300.725 1384.54 306.535 1384.54 Z" fill="#000000" fill-rule="evenodd" fill-opacity="1" /><path clip-path="url(#clip320)" d="M 0 0 M660.29 1415.79 L667.929 1415.79 L667.929 1389.42 L659.618 1391.09 L659.618 1386.83 L667.882 1385.16 L672.558 1385.16 L672.558 1415.79 L680.197 1415.79 L680.197 1419.72 L660.29 1419.72 L660.29 1415.79 Z" fill="#000000" fill-rule="evenodd" fill-opacity="1" /><path clip-path="url(#clip320)" d="M 0 0 M699.641 1388.24 Q696.03 1388.24 694.202 1391.81 Q692.396 1395.35 692.396 1402.48 Q692.396 1409.59 694.202 1413.15 Q696.03 1416.69 699.641 1416.69 Q703.276 1416.69 705.081 1413.15 Q706.91 1409.59 706.91 1402.48 Q706.91 1395.35 705.081 1391.81 Q703.276 1388.24 699.641 1388.24 M699.641 1384.54 Q705.451 1384.54 708.507 1389.15 Q711.586 1393.73 711.586 1402.48 Q711.586 1411.21 708.507 1415.81 Q705.451 1420.4 699.641 1420.4 Q693.831 1420.4 690.752 1415.81 Q687.697 1411.21 687.697 1402.48 Q687.697 1393.73 690.752 1389.15 Q693.831 1384.54 699.641 1384.54 Z" fill="#000000" fill-rule="evenodd" fill-opacity="1" /><path clip-path="url(#clip320)" d="M 0 0 M1043.44 1415.79 L1059.76 1415.79 L1059.76 1419.72 L1037.82 1419.72 L1037.82 1415.79 Q1040.48 1413.03 1045.06 1408.4 Q1049.67 1403.75 1050.85 1402.41 Q1053.09 1399.89 1053.97 1398.15 Q1054.88 1396.39 1054.88 1394.7 Q1054.88 1391.95 1052.93 1390.21 Q1051.01 1388.47 1047.91 1388.47 Q1045.71 1388.47 1043.26 1389.24 Q1040.83 1390 1038.05 1391.55 L1038.05 1386.83 Q1040.87 1385.7 1043.33 1385.12 Q1045.78 1384.54 1047.82 1384.54 Q1053.19 1384.54 1056.38 1387.22 Q1059.58 1389.91 1059.58 1394.4 Q1059.58 1396.53 1058.77 1398.45 Q1057.98 1400.35 1055.87 1402.94 Q1055.29 1403.61 1052.19 1406.83 Q1049.09 1410.02 1043.44 1415.79 Z" fill="#000000" fill-rule="evenodd" fill-opacity="1" /><path clip-path="url(#clip320)" d="M 0 0 M1079.58 1388.24 Q1075.97 1388.24 1074.14 1391.81 Q1072.33 1395.35 1072.33 1402.48 Q1072.33 1409.59 1074.14 1413.15 Q1075.97 1416.69 1079.58 1416.69 Q1083.21 1416.69 1085.02 1413.15 Q1086.84 1409.59 1086.84 1402.48 Q1086.84 1395.35 1085.02 1391.81 Q1083.21 1388.24 1079.58 1388.24 M1079.58 1384.54 Q1085.39 1384.54 1088.44 1389.15 Q1091.52 1393.73 1091.52 1402.48 Q1091.52 1411.21 1088.44 1415.81 Q1085.39 1420.4 1079.58 1420.4 Q1073.77 1420.4 1070.69 1415.81 Q1067.63 1411.21 1067.63 1402.48 Q1067.63 1393.73 1070.69 1389.15 Q1073.77 1384.54 1079.58 1384.54 Z" fill="#000000" fill-rule="evenodd" fill-opacity="1" /><path clip-path="url(#clip320)" d="M 0 0 M1432.58 1401.09 Q1435.94 1401.81 1437.81 1404.08 Q1439.71 1406.34 1439.71 1409.68 Q1439.71 1414.79 1436.19 1417.59 Q1432.67 1420.4 1426.19 1420.4 Q1424.01 1420.4 1421.7 1419.96 Q1419.41 1419.54 1416.95 1418.68 L1416.95 1414.17 Q1418.9 1415.3 1421.21 1415.88 Q1423.53 1416.46 1426.05 1416.46 Q1430.45 1416.46 1432.74 1414.72 Q1435.06 1412.99 1435.06 1409.68 Q1435.06 1406.62 1432.9 1404.91 Q1430.77 1403.17 1426.95 1403.17 L1422.93 1403.17 L1422.93 1399.33 L1427.14 1399.33 Q1430.59 1399.33 1432.42 1397.96 Q1434.25 1396.58 1434.25 1393.98 Q1434.25 1391.32 1432.35 1389.91 Q1430.47 1388.47 1426.95 1388.47 Q1425.03 1388.47 1422.83 1388.89 Q1420.63 1389.31 1418 1390.19 L1418 1386.02 Q1420.66 1385.28 1422.97 1384.91 Q1425.31 1384.54 1427.37 1384.54 Q1432.69 1384.54 1435.8 1386.97 Q1438.9 1389.38 1438.9 1393.5 Q1438.9 1396.37 1437.25 1398.36 Q1435.61 1400.33 1432.58 1401.09 Z" fill="#000000" fill-rule="evenodd" fill-opacity="1" /><path clip-path="url(#clip320)" d="M 0 0 M1458.57 1388.24 Q1454.96 1388.24 1453.13 1391.81 Q1451.33 1395.35 1451.33 1402.48 Q1451.33 1409.59 1453.13 1413.15 Q1454.96 1416.69 1458.57 1416.69 Q1462.21 1416.69 1464.01 1413.15 Q1465.84 1409.59 1465.84 1402.48 Q1465.84 1395.35 1464.01 1391.81 Q1462.21 1388.24 1458.57 1388.24 M1458.57 1384.54 Q1464.38 1384.54 1467.44 1389.15 Q1470.52 1393.73 1470.52 1402.48 Q1470.52 1411.21 1467.44 1415.81 Q1464.38 1420.4 1458.57 1420.4 Q1452.76 1420.4 1449.68 1415.81 Q1446.63 1411.21 1446.63 1402.48 Q1446.63 1393.73 1449.68 1389.15 Q1452.76 1384.54 1458.57 1384.54 Z" fill="#000000" fill-rule="evenodd" fill-opacity="1" /><path clip-path="url(#clip320)" d="M 0 0 M1810.97 1389.24 L1799.17 1407.69 L1810.97 1407.69 L1810.97 1389.24 M1809.75 1385.16 L1815.63 1385.16 L1815.63 1407.69 L1820.56 1407.69 L1820.56 1411.58 L1815.63 1411.58 L1815.63 1419.72 L1810.97 1419.72 L1810.97 1411.58 L1795.37 1411.58 L1795.37 1407.06 L1809.75 1385.16 Z" fill="#000000" fill-rule="evenodd" fill-opacity="1" /><path clip-path="url(#clip320)" d="M 0 0 M1838.29 1388.24 Q1834.68 1388.24 1832.85 1391.81 Q1831.04 1395.35 1831.04 1402.48 Q1831.04 1409.59 1832.85 1413.15 Q1834.68 1416.69 1838.29 1416.69 Q1841.92 1416.69 1843.73 1413.15 Q1845.56 1409.59 1845.56 1402.48 Q1845.56 1395.35 1843.73 1391.81 Q1841.92 1388.24 1838.29 1388.24 M1838.29 1384.54 Q1844.1 1384.54 1847.15 1389.15 Q1850.23 1393.73 1850.23 1402.48 Q1850.23 1411.21 1847.15 1415.81 Q1844.1 1420.4 1838.29 1420.4 Q1832.48 1420.4 1829.4 1415.81 Q1826.34 1411.21 1826.34 1402.48 Q1826.34 1393.73 1829.4 1389.15 Q1832.48 1384.54 1838.29 1384.54 Z" fill="#000000" fill-rule="evenodd" fill-opacity="1" /><path clip-path="url(#clip320)" d="M 0 0 M2176.57 1385.16 L2194.93 1385.16 L2194.93 1389.1 L2180.85 1389.1 L2180.85 1397.57 Q2181.87 1397.22 2182.89 1397.06 Q2183.91 1396.88 2184.93 1396.88 Q2190.71 1396.88 2194.09 1400.05 Q2197.47 1403.22 2197.47 1408.64 Q2197.47 1414.21 2194 1417.32 Q2190.53 1420.4 2184.21 1420.4 Q2182.03 1420.4 2179.76 1420.02 Q2177.52 1419.65 2175.11 1418.91 L2175.11 1414.21 Q2177.19 1415.35 2179.42 1415.9 Q2181.64 1416.46 2184.12 1416.46 Q2188.12 1416.46 2190.46 1414.35 Q2192.8 1412.25 2192.8 1408.64 Q2192.8 1405.02 2190.46 1402.92 Q2188.12 1400.81 2184.12 1400.81 Q2182.24 1400.81 2180.37 1401.23 Q2178.51 1401.65 2176.57 1402.52 L2176.57 1385.16 Z" fill="#000000" fill-rule="evenodd" fill-opacity="1" /><path clip-path="url(#clip320)" d="M 0 0 M2216.68 1388.24 Q2213.07 1388.24 2211.24 1391.81 Q2209.44 1395.35 2209.44 1402.48 Q2209.44 1409.59 2211.24 1413.15 Q2213.07 1416.69 2216.68 1416.69 Q2220.32 1416.69 2222.12 1413.15 Q2223.95 1409.59 2223.95 1402.48 Q2223.95 1395.35 2222.12 1391.81 Q2220.32 1388.24 2216.68 1388.24 M2216.68 1384.54 Q2222.49 1384.54 2225.55 1389.15 Q2228.63 1393.73 2228.63 1402.48 Q2228.63 1411.21 2225.55 1415.81 Q2222.49 1420.4 2216.68 1420.4 Q2210.87 1420.4 2207.8 1415.81 Q2204.74 1411.21 2204.74 1402.48 Q2204.74 1393.73 2207.8 1389.15 Q2210.87 1384.54 2216.68 1384.54 Z" fill="#000000" fill-rule="evenodd" fill-opacity="1" /><path clip-path="url(#clip320)" d="M 0 0 M1013.35 1453.72 L1013.35 1458.59 L1007.75 1458.59 Q1004.6 1458.59 1003.36 1459.86 Q1002.15 1461.13 1002.15 1464.44 L1002.15 1467.6 L1011.79 1467.6 L1011.79 1472.15 L1002.15 1472.15 L1002.15 1503.24 L996.261 1503.24 L996.261 1472.15 L990.659 1472.15 L990.659 1467.6 L996.261 1467.6 L996.261 1465.11 Q996.261 1459.16 999.03 1456.46 Q1001.8 1453.72 1007.81 1453.72 L1013.35 1453.72 Z" fill="#000000" fill-rule="evenodd" fill-opacity="1" /><path clip-path="url(#clip320)" d="M 0 0 M1038.91 1473.07 Q1037.92 1472.5 1036.75 1472.24 Q1035.6 1471.96 1034.2 1471.96 Q1029.24 1471.96 1026.56 1475.2 Q1023.92 1478.42 1023.92 1484.47 L1023.92 1503.24 L1018.03 1503.24 L1018.03 1467.6 L1023.92 1467.6 L1023.92 1473.13 Q1025.77 1469.89 1028.73 1468.33 Q1031.69 1466.74 1035.92 1466.74 Q1036.52 1466.74 1037.26 1466.83 Q1037.99 1466.9 1038.88 1467.05 L1038.91 1473.07 Z" fill="#000000" fill-rule="evenodd" fill-opacity="1" /><path clip-path="url(#clip320)" d="M 0 0 M1074.11 1483.96 L1074.11 1486.82 L1047.19 1486.82 Q1047.57 1492.87 1050.81 1496.05 Q1054.09 1499.2 1059.92 1499.2 Q1063.29 1499.2 1066.44 1498.37 Q1069.63 1497.55 1072.74 1495.89 L1072.74 1501.43 Q1069.59 1502.77 1066.28 1503.47 Q1062.97 1504.17 1059.57 1504.17 Q1051.04 1504.17 1046.04 1499.2 Q1041.08 1494.24 1041.08 1485.77 Q1041.08 1477.02 1045.79 1471.89 Q1050.53 1466.74 1058.55 1466.74 Q1065.74 1466.74 1069.91 1471.38 Q1074.11 1476 1074.11 1483.96 M1068.26 1482.24 Q1068.19 1477.43 1065.55 1474.57 Q1062.94 1471.7 1058.61 1471.7 Q1053.71 1471.7 1050.75 1474.47 Q1047.82 1477.24 1047.38 1482.27 L1068.26 1482.24 Z" fill="#000000" fill-rule="evenodd" fill-opacity="1" /><path clip-path="url(#clip320)" d="M 0 0 M1087.23 1485.45 Q1087.23 1491.91 1089.87 1495.6 Q1092.54 1499.27 1097.19 1499.27 Q1101.84 1499.27 1104.51 1495.6 Q1107.18 1491.91 1107.18 1485.45 Q1107.18 1478.99 1104.51 1475.33 Q1101.84 1471.64 1097.19 1471.64 Q1092.54 1471.64 1089.87 1475.33 Q1087.23 1478.99 1087.23 1485.45 M1107.18 1497.9 Q1105.34 1501.08 1102.5 1502.64 Q1099.7 1504.17 1095.76 1504.17 Q1089.3 1504.17 1085.22 1499.01 Q1081.18 1493.85 1081.18 1485.45 Q1081.18 1477.05 1085.22 1471.89 Q1089.3 1466.74 1095.76 1466.74 Q1099.7 1466.74 1102.5 1468.3 Q1105.34 1469.82 1107.18 1473.01 L1107.18 1467.6 L1113.04 1467.6 L1113.04 1516.8 L1107.18 1516.8 L1107.18 1497.9 Z" fill="#000000" fill-rule="evenodd" fill-opacity="1" /><path clip-path="url(#clip320)" d="M 0 0 M1124.5 1489.18 L1124.5 1467.6 L1130.35 1467.6 L1130.35 1488.95 Q1130.35 1494.01 1132.33 1496.56 Q1134.3 1499.07 1138.25 1499.07 Q1142.99 1499.07 1145.73 1496.05 Q1148.5 1493.03 1148.5 1487.81 L1148.5 1467.6 L1154.35 1467.6 L1154.35 1503.24 L1148.5 1503.24 L1148.5 1497.77 Q1146.36 1501.02 1143.53 1502.61 Q1140.73 1504.17 1137.01 1504.17 Q1130.86 1504.17 1127.68 1500.35 Q1124.5 1496.53 1124.5 1489.18 M1139.23 1466.74 L1139.23 1466.74 Z" fill="#000000" fill-rule="evenodd" fill-opacity="1" /><path clip-path="url(#clip320)" d="M 0 0 M1196.91 1483.96 L1196.91 1486.82 L1169.98 1486.82 Q1170.36 1492.87 1173.61 1496.05 Q1176.89 1499.2 1182.71 1499.2 Q1186.09 1499.2 1189.24 1498.37 Q1192.42 1497.55 1195.54 1495.89 L1195.54 1501.43 Q1192.39 1502.77 1189.08 1503.47 Q1185.77 1504.17 1182.36 1504.17 Q1173.83 1504.17 1168.83 1499.2 Q1163.87 1494.24 1163.87 1485.77 Q1163.87 1477.02 1168.58 1471.89 Q1173.32 1466.74 1181.34 1466.74 Q1188.54 1466.74 1192.71 1471.38 Q1196.91 1476 1196.91 1483.96 M1191.05 1482.24 Q1190.99 1477.43 1188.35 1474.57 Q1185.74 1471.7 1181.41 1471.7 Q1176.51 1471.7 1173.55 1474.47 Q1170.62 1477.24 1170.17 1482.27 L1191.05 1482.24 Z" fill="#000000" fill-rule="evenodd" fill-opacity="1" /><path clip-path="url(#clip320)" d="M 0 0 M1236.15 1481.73 L1236.15 1503.24 L1230.3 1503.24 L1230.3 1481.92 Q1230.3 1476.86 1228.32 1474.34 Q1226.35 1471.83 1222.4 1471.83 Q1217.66 1471.83 1214.92 1474.85 Q1212.19 1477.88 1212.19 1483.1 L1212.19 1503.24 L1206.3 1503.24 L1206.3 1467.6 L1212.19 1467.6 L1212.19 1473.13 Q1214.29 1469.92 1217.12 1468.33 Q1219.98 1466.74 1223.71 1466.74 Q1229.85 1466.74 1233 1470.56 Q1236.15 1474.34 1236.15 1481.73 Z" fill="#000000" fill-rule="evenodd" fill-opacity="1" /><path clip-path="url(#clip320)" d="M 0 0 M1273.49 1468.96 L1273.49 1474.44 Q1271 1473.07 1268.49 1472.4 Q1266.01 1471.7 1263.46 1471.7 Q1257.76 1471.7 1254.61 1475.33 Q1251.46 1478.93 1251.46 1485.45 Q1251.46 1491.98 1254.61 1495.6 Q1257.76 1499.2 1263.46 1499.2 Q1266.01 1499.2 1268.49 1498.53 Q1271 1497.83 1273.49 1496.46 L1273.49 1501.88 Q1271.04 1503.02 1268.39 1503.59 Q1265.78 1504.17 1262.82 1504.17 Q1254.77 1504.17 1250.03 1499.11 Q1245.29 1494.05 1245.29 1485.45 Q1245.29 1476.73 1250.06 1471.73 Q1254.87 1466.74 1263.21 1466.74 Q1265.91 1466.74 1268.49 1467.31 Q1271.07 1467.85 1273.49 1468.96 Z" fill="#000000" fill-rule="evenodd" fill-opacity="1" /><path clip-path="url(#clip320)" d="M 0 0 M1298.5 1506.55 Q1296.02 1512.92 1293.67 1514.86 Q1291.31 1516.8 1287.36 1516.8 L1282.69 1516.8 L1282.69 1511.9 L1286.12 1511.9 Q1288.54 1511.9 1289.88 1510.76 Q1291.22 1509.61 1292.84 1505.34 L1293.89 1502.67 L1279.47 1467.6 L1285.68 1467.6 L1296.82 1495.48 L1307.96 1467.6 L1314.16 1467.6 L1298.5 1506.55 Z" fill="#000000" fill-rule="evenodd" fill-opacity="1" /><path clip-path="url(#clip320)" d="M 0 0 M1357.04 1453.78 Q1352.77 1461.1 1350.7 1468.26 Q1348.63 1475.43 1348.63 1482.78 Q1348.63 1490.13 1350.7 1497.36 Q1352.8 1504.55 1357.04 1511.84 L1351.94 1511.84 Q1347.17 1504.36 1344.78 1497.13 Q1342.43 1489.91 1342.43 1482.78 Q1342.43 1475.68 1344.78 1468.49 Q1347.14 1461.29 1351.94 1453.78 L1357.04 1453.78 Z" fill="#000000" fill-rule="evenodd" fill-opacity="1" /><path clip-path="url(#clip320)" d="M 0 0 M1401.06 1496.46 L1401.06 1483.7 L1390.55 1483.7 L1390.55 1478.42 L1407.42 1478.42 L1407.42 1498.82 Q1403.7 1501.46 1399.21 1502.83 Q1394.72 1504.17 1389.63 1504.17 Q1378.49 1504.17 1372.19 1497.67 Q1365.92 1491.15 1365.92 1479.53 Q1365.92 1467.88 1372.19 1461.39 Q1378.49 1454.86 1389.63 1454.86 Q1394.28 1454.86 1398.45 1456.01 Q1402.65 1457.16 1406.18 1459.38 L1406.18 1466.23 Q1402.62 1463.2 1398.61 1461.68 Q1394.59 1460.15 1390.17 1460.15 Q1381.45 1460.15 1377.06 1465.02 Q1372.7 1469.89 1372.7 1479.53 Q1372.7 1489.14 1377.06 1494.01 Q1381.45 1498.88 1390.17 1498.88 Q1393.58 1498.88 1396.25 1498.31 Q1398.92 1497.71 1401.06 1496.46 Z" fill="#000000" fill-rule="evenodd" fill-opacity="1" /><path clip-path="url(#clip320)" d="M 0 0 M1419.17 1455.72 L1425.6 1455.72 L1425.6 1475.2 L1448.96 1475.2 L1448.96 1455.72 L1455.39 1455.72 L1455.39 1503.24 L1448.96 1503.24 L1448.96 1480.61 L1425.6 1480.61 L1425.6 1503.24 L1419.17 1503.24 L1419.17 1455.72 Z" fill="#000000" fill-rule="evenodd" fill-opacity="1" /><path clip-path="url(#clip320)" d="M 0 0 M1465.38 1467.6 L1493.2 1467.6 L1493.2 1472.94 L1471.17 1498.57 L1493.2 1498.57 L1493.2 1503.24 L1464.59 1503.24 L1464.59 1497.9 L1486.61 1472.27 L1465.38 1472.27 L1465.38 1467.6 Z" fill="#000000" fill-rule="evenodd" fill-opacity="1" /><path clip-path="url(#clip320)" d="M 0 0 M1501.22 1453.78 L1506.31 1453.78 Q1511.09 1461.29 1513.44 1468.49 Q1515.83 1475.68 1515.83 1482.78 Q1515.83 1489.91 1513.44 1497.13 Q1511.09 1504.36 1506.31 1511.84 L1501.22 1511.84 Q1505.45 1504.55 1507.52 1497.36 Q1509.62 1490.13 1509.62 1482.78 Q1509.62 1475.43 1507.52 1468.26 Q1505.45 1461.1 1501.22 1453.78 Z" fill="#000000" fill-rule="evenodd" fill-opacity="1" /><polyline clip-path="url(#clip323)" style="stroke:#000000; stroke-width:2; stroke-opacity:0.1; fill:none" points="
  249.733,1324.83 2256.76,1324.83 
  "/>
<polyline clip-path="url(#clip323)" style="stroke:#000000; stroke-width:2; stroke-opacity:0.1; fill:none" points="
  249.733,1139.58 2256.76,1139.58 
  "/>
<polyline clip-path="url(#clip323)" style="stroke:#000000; stroke-width:2; stroke-opacity:0.1; fill:none" points="
  249.733,954.34 2256.76,954.34 
  "/>
<polyline clip-path="url(#clip323)" style="stroke:#000000; stroke-width:2; stroke-opacity:0.1; fill:none" points="
  249.733,769.096 2256.76,769.096 
  "/>
<polyline clip-path="url(#clip323)" style="stroke:#000000; stroke-width:2; stroke-opacity:0.1; fill:none" points="
  249.733,583.851 2256.76,583.851 
  "/>
<polyline clip-path="url(#clip323)" style="stroke:#000000; stroke-width:2; stroke-opacity:0.1; fill:none" points="
  249.733,398.607 2256.76,398.607 
  "/>
<polyline clip-path="url(#clip323)" style="stroke:#000000; stroke-width:2; stroke-opacity:0.1; fill:none" points="
  249.733,213.362 2256.76,213.362 
  "/>
<polyline clip-path="url(#clip320)" style="stroke:#000000; stroke-width:4; stroke-opacity:1; fill:none" points="
  249.733,1359.82 249.733,123.472 
  "/>
<polyline clip-path="url(#clip320)" style="stroke:#000000; stroke-width:4; stroke-opacity:1; fill:none" points="
  249.733,1324.83 273.817,1324.83 
  "/>
<polyline clip-path="url(#clip320)" style="stroke:#000000; stroke-width:4; stroke-opacity:1; fill:none" points="
  249.733,1139.58 273.817,1139.58 
  "/>
<polyline clip-path="url(#clip320)" style="stroke:#000000; stroke-width:4; stroke-opacity:1; fill:none" points="
  249.733,954.34 273.817,954.34 
  "/>
<polyline clip-path="url(#clip320)" style="stroke:#000000; stroke-width:4; stroke-opacity:1; fill:none" points="
  249.733,769.096 273.817,769.096 
  "/>
<polyline clip-path="url(#clip320)" style="stroke:#000000; stroke-width:4; stroke-opacity:1; fill:none" points="
  249.733,583.851 273.817,583.851 
  "/>
<polyline clip-path="url(#clip320)" style="stroke:#000000; stroke-width:4; stroke-opacity:1; fill:none" points="
  249.733,398.607 273.817,398.607 
  "/>
<polyline clip-path="url(#clip320)" style="stroke:#000000; stroke-width:4; stroke-opacity:1; fill:none" points="
  249.733,213.362 273.817,213.362 
  "/>
<path clip-path="url(#clip320)" d="M 0 0 M203.228 1310.63 Q199.617 1310.63 197.788 1314.19 Q195.983 1317.73 195.983 1324.86 Q195.983 1331.97 197.788 1335.53 Q199.617 1339.08 203.228 1339.08 Q206.862 1339.08 208.668 1335.53 Q210.497 1331.97 210.497 1324.86 Q210.497 1317.73 208.668 1314.19 Q206.862 1310.63 203.228 1310.63 M203.228 1306.92 Q209.038 1306.92 212.094 1311.53 Q215.173 1316.11 215.173 1324.86 Q215.173 1333.59 212.094 1338.2 Q209.038 1342.78 203.228 1342.78 Q197.418 1342.78 194.339 1338.2 Q191.284 1333.59 191.284 1324.86 Q191.284 1316.11 194.339 1311.53 Q197.418 1306.92 203.228 1306.92 Z" fill="#000000" fill-rule="evenodd" fill-opacity="1" /><path clip-path="url(#clip320)" d="M 0 0 M133.715 1152.93 L141.354 1152.93 L141.354 1126.56 L133.043 1128.23 L133.043 1123.97 L141.307 1122.3 L145.983 1122.3 L145.983 1152.93 L153.622 1152.93 L153.622 1156.86 L133.715 1156.86 L133.715 1152.93 Z" fill="#000000" fill-rule="evenodd" fill-opacity="1" /><path clip-path="url(#clip320)" d="M 0 0 M173.066 1125.38 Q169.455 1125.38 167.627 1128.95 Q165.821 1132.49 165.821 1139.62 Q165.821 1146.73 167.627 1150.29 Q169.455 1153.83 173.066 1153.83 Q176.701 1153.83 178.506 1150.29 Q180.335 1146.73 180.335 1139.62 Q180.335 1132.49 178.506 1128.95 Q176.701 1125.38 173.066 1125.38 M173.066 1121.68 Q178.876 1121.68 181.932 1126.29 Q185.011 1130.87 185.011 1139.62 Q185.011 1148.35 181.932 1152.95 Q178.876 1157.54 173.066 1157.54 Q167.256 1157.54 164.177 1152.95 Q161.122 1148.35 161.122 1139.62 Q161.122 1130.87 164.177 1126.29 Q167.256 1121.68 173.066 1121.68 Z" fill="#000000" fill-rule="evenodd" fill-opacity="1" /><path clip-path="url(#clip320)" d="M 0 0 M203.228 1125.38 Q199.617 1125.38 197.788 1128.95 Q195.983 1132.49 195.983 1139.62 Q195.983 1146.73 197.788 1150.29 Q199.617 1153.83 203.228 1153.83 Q206.862 1153.83 208.668 1150.29 Q210.497 1146.73 210.497 1139.62 Q210.497 1132.49 208.668 1128.95 Q206.862 1125.38 203.228 1125.38 M203.228 1121.68 Q209.038 1121.68 212.094 1126.29 Q215.173 1130.87 215.173 1139.62 Q215.173 1148.35 212.094 1152.95 Q209.038 1157.54 203.228 1157.54 Q197.418 1157.54 194.339 1152.95 Q191.284 1148.35 191.284 1139.62 Q191.284 1130.87 194.339 1126.29 Q197.418 1121.68 203.228 1121.68 Z" fill="#000000" fill-rule="evenodd" fill-opacity="1" /><path clip-path="url(#clip320)" d="M 0 0 M136.932 967.685 L153.252 967.685 L153.252 971.62 L131.307 971.62 L131.307 967.685 Q133.969 964.93 138.553 960.301 Q143.159 955.648 144.34 954.305 Q146.585 951.782 147.465 950.046 Q148.367 948.287 148.367 946.597 Q148.367 943.842 146.423 942.106 Q144.502 940.37 141.4 940.37 Q139.201 940.37 136.747 941.134 Q134.317 941.898 131.539 943.449 L131.539 938.727 Q134.363 937.592 136.817 937.014 Q139.27 936.435 141.307 936.435 Q146.678 936.435 149.872 939.12 Q153.066 941.805 153.066 946.296 Q153.066 948.426 152.256 950.347 Q151.469 952.245 149.363 954.838 Q148.784 955.509 145.682 958.727 Q142.58 961.921 136.932 967.685 Z" fill="#000000" fill-rule="evenodd" fill-opacity="1" /><path clip-path="url(#clip320)" d="M 0 0 M173.066 940.139 Q169.455 940.139 167.627 943.703 Q165.821 947.245 165.821 954.375 Q165.821 961.481 167.627 965.046 Q169.455 968.588 173.066 968.588 Q176.701 968.588 178.506 965.046 Q180.335 961.481 180.335 954.375 Q180.335 947.245 178.506 943.703 Q176.701 940.139 173.066 940.139 M173.066 936.435 Q178.876 936.435 181.932 941.041 Q185.011 945.625 185.011 954.375 Q185.011 963.102 181.932 967.708 Q178.876 972.291 173.066 972.291 Q167.256 972.291 164.177 967.708 Q161.122 963.102 161.122 954.375 Q161.122 945.625 164.177 941.041 Q167.256 936.435 173.066 936.435 Z" fill="#000000" fill-rule="evenodd" fill-opacity="1" /><path clip-path="url(#clip320)" d="M 0 0 M203.228 940.139 Q199.617 940.139 197.788 943.703 Q195.983 947.245 195.983 954.375 Q195.983 961.481 197.788 965.046 Q199.617 968.588 203.228 968.588 Q206.862 968.588 208.668 965.046 Q210.497 961.481 210.497 954.375 Q210.497 947.245 208.668 943.703 Q206.862 940.139 203.228 940.139 M203.228 936.435 Q209.038 936.435 212.094 941.041 Q215.173 945.625 215.173 954.375 Q215.173 963.102 212.094 967.708 Q209.038 972.291 203.228 972.291 Q197.418 972.291 194.339 967.708 Q191.284 963.102 191.284 954.375 Q191.284 945.625 194.339 941.041 Q197.418 936.435 203.228 936.435 Z" fill="#000000" fill-rule="evenodd" fill-opacity="1" /><path clip-path="url(#clip320)" d="M 0 0 M147.071 767.741 Q150.428 768.459 152.303 770.727 Q154.201 772.996 154.201 776.329 Q154.201 781.445 150.682 784.246 Q147.164 787.047 140.682 787.047 Q138.506 787.047 136.192 786.607 Q133.9 786.19 131.446 785.334 L131.446 780.82 Q133.391 781.954 135.705 782.533 Q138.02 783.112 140.543 783.112 Q144.941 783.112 147.233 781.376 Q149.548 779.639 149.548 776.329 Q149.548 773.274 147.395 771.561 Q145.266 769.825 141.446 769.825 L137.418 769.825 L137.418 765.982 L141.631 765.982 Q145.08 765.982 146.909 764.616 Q148.738 763.228 148.738 760.635 Q148.738 757.973 146.84 756.561 Q144.965 755.126 141.446 755.126 Q139.525 755.126 137.326 755.542 Q135.127 755.959 132.488 756.839 L132.488 752.672 Q135.15 751.931 137.465 751.561 Q139.803 751.191 141.863 751.191 Q147.187 751.191 150.289 753.621 Q153.391 756.028 153.391 760.149 Q153.391 763.019 151.747 765.01 Q150.103 766.977 147.071 767.741 Z" fill="#000000" fill-rule="evenodd" fill-opacity="1" /><path clip-path="url(#clip320)" d="M 0 0 M173.066 754.894 Q169.455 754.894 167.627 758.459 Q165.821 762.001 165.821 769.13 Q165.821 776.237 167.627 779.802 Q169.455 783.343 173.066 783.343 Q176.701 783.343 178.506 779.802 Q180.335 776.237 180.335 769.13 Q180.335 762.001 178.506 758.459 Q176.701 754.894 173.066 754.894 M173.066 751.191 Q178.876 751.191 181.932 755.797 Q185.011 760.38 185.011 769.13 Q185.011 777.857 181.932 782.464 Q178.876 787.047 173.066 787.047 Q167.256 787.047 164.177 782.464 Q161.122 777.857 161.122 769.13 Q161.122 760.38 164.177 755.797 Q167.256 751.191 173.066 751.191 Z" fill="#000000" fill-rule="evenodd" fill-opacity="1" /><path clip-path="url(#clip320)" d="M 0 0 M203.228 754.894 Q199.617 754.894 197.788 758.459 Q195.983 762.001 195.983 769.13 Q195.983 776.237 197.788 779.802 Q199.617 783.343 203.228 783.343 Q206.862 783.343 208.668 779.802 Q210.497 776.237 210.497 769.13 Q210.497 762.001 208.668 758.459 Q206.862 754.894 203.228 754.894 M203.228 751.191 Q209.038 751.191 212.094 755.797 Q215.173 760.38 215.173 769.13 Q215.173 777.857 212.094 782.464 Q209.038 787.047 203.228 787.047 Q197.418 787.047 194.339 782.464 Q191.284 777.857 191.284 769.13 Q191.284 760.38 194.339 755.797 Q197.418 751.191 203.228 751.191 Z" fill="#000000" fill-rule="evenodd" fill-opacity="1" /><path clip-path="url(#clip320)" d="M 0 0 M145.752 570.645 L133.946 589.094 L145.752 589.094 L145.752 570.645 M144.525 566.571 L150.404 566.571 L150.404 589.094 L155.335 589.094 L155.335 592.983 L150.404 592.983 L150.404 601.131 L145.752 601.131 L145.752 592.983 L130.15 592.983 L130.15 588.469 L144.525 566.571 Z" fill="#000000" fill-rule="evenodd" fill-opacity="1" /><path clip-path="url(#clip320)" d="M 0 0 M173.066 569.65 Q169.455 569.65 167.627 573.215 Q165.821 576.756 165.821 583.886 Q165.821 590.992 167.627 594.557 Q169.455 598.099 173.066 598.099 Q176.701 598.099 178.506 594.557 Q180.335 590.992 180.335 583.886 Q180.335 576.756 178.506 573.215 Q176.701 569.65 173.066 569.65 M173.066 565.946 Q178.876 565.946 181.932 570.553 Q185.011 575.136 185.011 583.886 Q185.011 592.613 181.932 597.219 Q178.876 601.802 173.066 601.802 Q167.256 601.802 164.177 597.219 Q161.122 592.613 161.122 583.886 Q161.122 575.136 164.177 570.553 Q167.256 565.946 173.066 565.946 Z" fill="#000000" fill-rule="evenodd" fill-opacity="1" /><path clip-path="url(#clip320)" d="M 0 0 M203.228 569.65 Q199.617 569.65 197.788 573.215 Q195.983 576.756 195.983 583.886 Q195.983 590.992 197.788 594.557 Q199.617 598.099 203.228 598.099 Q206.862 598.099 208.668 594.557 Q210.497 590.992 210.497 583.886 Q210.497 576.756 208.668 573.215 Q206.862 569.65 203.228 569.65 M203.228 565.946 Q209.038 565.946 212.094 570.553 Q215.173 575.136 215.173 583.886 Q215.173 592.613 212.094 597.219 Q209.038 601.802 203.228 601.802 Q197.418 601.802 194.339 597.219 Q191.284 592.613 191.284 583.886 Q191.284 575.136 194.339 570.553 Q197.418 565.946 203.228 565.946 Z" fill="#000000" fill-rule="evenodd" fill-opacity="1" /><path clip-path="url(#clip320)" d="M 0 0 M132.951 381.327 L151.307 381.327 L151.307 385.262 L137.233 385.262 L137.233 393.734 Q138.252 393.387 139.27 393.225 Q140.289 393.04 141.307 393.04 Q147.094 393.04 150.474 396.211 Q153.853 399.382 153.853 404.799 Q153.853 410.377 150.381 413.479 Q146.909 416.558 140.59 416.558 Q138.414 416.558 136.145 416.188 Q133.9 415.817 131.492 415.076 L131.492 410.377 Q133.576 411.512 135.798 412.067 Q138.02 412.623 140.497 412.623 Q144.502 412.623 146.84 410.516 Q149.178 408.41 149.178 404.799 Q149.178 401.188 146.84 399.081 Q144.502 396.975 140.497 396.975 Q138.622 396.975 136.747 397.391 Q134.895 397.808 132.951 398.688 L132.951 381.327 Z" fill="#000000" fill-rule="evenodd" fill-opacity="1" /><path clip-path="url(#clip320)" d="M 0 0 M173.066 384.405 Q169.455 384.405 167.627 387.97 Q165.821 391.512 165.821 398.641 Q165.821 405.748 167.627 409.313 Q169.455 412.854 173.066 412.854 Q176.701 412.854 178.506 409.313 Q180.335 405.748 180.335 398.641 Q180.335 391.512 178.506 387.97 Q176.701 384.405 173.066 384.405 M173.066 380.702 Q178.876 380.702 181.932 385.308 Q185.011 389.891 185.011 398.641 Q185.011 407.368 181.932 411.975 Q178.876 416.558 173.066 416.558 Q167.256 416.558 164.177 411.975 Q161.122 407.368 161.122 398.641 Q161.122 389.891 164.177 385.308 Q167.256 380.702 173.066 380.702 Z" fill="#000000" fill-rule="evenodd" fill-opacity="1" /><path clip-path="url(#clip320)" d="M 0 0 M203.228 384.405 Q199.617 384.405 197.788 387.97 Q195.983 391.512 195.983 398.641 Q195.983 405.748 197.788 409.313 Q199.617 412.854 203.228 412.854 Q206.862 412.854 208.668 409.313 Q210.497 405.748 210.497 398.641 Q210.497 391.512 208.668 387.97 Q206.862 384.405 203.228 384.405 M203.228 380.702 Q209.038 380.702 212.094 385.308 Q215.173 389.891 215.173 398.641 Q215.173 407.368 212.094 411.975 Q209.038 416.558 203.228 416.558 Q197.418 416.558 194.339 411.975 Q191.284 407.368 191.284 398.641 Q191.284 389.891 194.339 385.308 Q197.418 380.702 203.228 380.702 Z" fill="#000000" fill-rule="evenodd" fill-opacity="1" /><path clip-path="url(#clip320)" d="M 0 0 M143.483 211.499 Q140.335 211.499 138.483 213.652 Q136.654 215.804 136.654 219.554 Q136.654 223.281 138.483 225.457 Q140.335 227.61 143.483 227.61 Q146.631 227.61 148.46 225.457 Q150.312 223.281 150.312 219.554 Q150.312 215.804 148.46 213.652 Q146.631 211.499 143.483 211.499 M152.766 196.846 L152.766 201.105 Q151.006 200.272 149.201 199.832 Q147.418 199.392 145.659 199.392 Q141.029 199.392 138.576 202.517 Q136.145 205.642 135.798 211.962 Q137.164 209.948 139.224 208.883 Q141.284 207.795 143.761 207.795 Q148.969 207.795 151.978 210.966 Q155.011 214.115 155.011 219.554 Q155.011 224.878 151.863 228.096 Q148.715 231.314 143.483 231.314 Q137.488 231.314 134.317 226.73 Q131.145 222.124 131.145 213.397 Q131.145 205.203 135.034 200.341 Q138.923 195.457 145.474 195.457 Q147.233 195.457 149.016 195.804 Q150.821 196.152 152.766 196.846 Z" fill="#000000" fill-rule="evenodd" fill-opacity="1" /><path clip-path="url(#clip320)" d="M 0 0 M173.066 199.161 Q169.455 199.161 167.627 202.726 Q165.821 206.267 165.821 213.397 Q165.821 220.503 167.627 224.068 Q169.455 227.61 173.066 227.61 Q176.701 227.61 178.506 224.068 Q180.335 220.503 180.335 213.397 Q180.335 206.267 178.506 202.726 Q176.701 199.161 173.066 199.161 M173.066 195.457 Q178.876 195.457 181.932 200.064 Q185.011 204.647 185.011 213.397 Q185.011 222.124 181.932 226.73 Q178.876 231.314 173.066 231.314 Q167.256 231.314 164.177 226.73 Q161.122 222.124 161.122 213.397 Q161.122 204.647 164.177 200.064 Q167.256 195.457 173.066 195.457 Z" fill="#000000" fill-rule="evenodd" fill-opacity="1" /><path clip-path="url(#clip320)" d="M 0 0 M203.228 199.161 Q199.617 199.161 197.788 202.726 Q195.983 206.267 195.983 213.397 Q195.983 220.503 197.788 224.068 Q199.617 227.61 203.228 227.61 Q206.862 227.61 208.668 224.068 Q210.497 220.503 210.497 213.397 Q210.497 206.267 208.668 202.726 Q206.862 199.161 203.228 199.161 M203.228 195.457 Q209.038 195.457 212.094 200.064 Q215.173 204.647 215.173 213.397 Q215.173 222.124 212.094 226.73 Q209.038 231.314 203.228 231.314 Q197.418 231.314 194.339 226.73 Q191.284 222.124 191.284 213.397 Q191.284 204.647 194.339 200.064 Q197.418 195.457 203.228 195.457 Z" fill="#000000" fill-rule="evenodd" fill-opacity="1" /><path clip-path="url(#clip320)" d="M 0 0 M51.61 806.247 L52.5343 806.81 Q51.0239 810.305 48.6117 814.656 Q51.0239 819.007 52.5343 822.501 L51.61 823.042 Q48.296 819.232 45.7486 814.656 Q48.3186 810.034 51.61 806.247 Z" fill="#000000" fill-rule="evenodd" fill-opacity="1" /><path clip-path="url(#clip320)" d="M 0 0 M62.6398 803.737 Q62.672 803.737 63.8314 803.931 L93.1066 811.274 Q94.6524 811.66 96.1983 812.755 Q97.7764 813.818 99.129 815.525 Q100.514 817.199 101.351 819.776 Q102.221 822.32 102.221 825.251 Q102.221 829.921 101.222 831.982 Q100.256 834.011 98.1951 834.011 Q96.3916 834.011 95.361 832.884 Q94.3626 831.757 94.3626 830.468 Q94.3626 829.244 95.0711 828.6 Q95.7796 827.956 96.6814 827.956 Q97.6798 827.956 98.6782 828.633 Q99.7088 829.309 100.095 830.662 Q100.772 828.504 100.772 825.38 Q100.772 818.778 93.7829 815.943 Q93.6863 815.879 93.6541 815.879 L84.9263 813.689 L84.8619 813.786 Q85.506 814.333 86.2467 815.203 Q86.9552 816.04 87.8248 817.844 Q88.6944 819.647 88.6944 821.418 Q88.6944 825.122 85.8602 827.666 Q82.9939 830.178 78.2597 830.178 Q74.8136 830.178 71.3676 828.794 Q67.8894 827.377 65.3451 825.187 Q62.7686 822.964 61.1583 820.13 Q59.548 817.264 59.548 814.494 Q59.548 812.562 60.7075 810.919 Q61.8347 809.277 63.7026 808.375 Q62.1567 808.214 61.5126 807.344 Q60.8685 806.443 60.8685 805.67 Q60.8685 804.8 61.3516 804.285 Q61.8025 803.737 62.6398 803.737 M66.6655 809.148 Q66.4723 809.148 65.957 809.277 Q65.4095 809.406 64.54 809.792 Q63.6704 810.146 62.8975 810.694 Q62.1245 811.241 61.577 812.24 Q60.9973 813.206 60.9973 814.43 Q60.9973 816.427 62.672 818.423 Q64.3145 820.42 66.8588 821.805 Q69.3064 823.093 74.0407 824.317 Q78.7749 825.509 81.1904 825.509 Q83.5736 825.509 85.4094 824.478 Q87.2451 823.447 87.2451 821.225 Q87.2451 818.649 84.8619 815.879 Q82.382 813.013 80.2564 812.53 L67.6639 809.341 Q66.891 809.148 66.6655 809.148 Z" fill="#000000" fill-rule="evenodd" fill-opacity="1" /><path clip-path="url(#clip320)" d="M 0 0 M33.3852 795.622 Q25.5849 795.622 19.2951 792.713 Q16.6574 791.474 14.4481 789.738 Q12.2388 788.002 11.2694 786.852 Q10.3 785.702 10.3 785.387 Q10.3 784.936 10.7509 784.913 Q10.9763 784.913 11.5399 785.522 Q19.1148 792.961 33.3852 792.939 Q47.7007 792.939 54.9824 785.702 Q55.7715 784.913 56.0194 784.913 Q56.4703 784.913 56.4703 785.387 Q56.4703 785.702 55.546 786.807 Q54.6217 787.912 52.5026 789.625 Q50.3834 791.338 47.7909 792.578 Q41.501 795.622 33.3852 795.622 Z" fill="#000000" fill-rule="evenodd" fill-opacity="1" /><path clip-path="url(#clip320)" d="M 0 0 M44.9278 777.893 Q44.0936 777.893 43.8456 777.826 Q43.5976 777.736 43.2144 777.375 L33.3401 768.515 Q27.8844 763.668 23.1276 763.668 Q20.0391 763.668 17.8297 765.291 Q15.6204 766.892 15.6204 769.845 Q15.6204 771.874 16.8603 773.587 Q18.1003 775.301 20.3096 776.09 Q20.2645 775.955 20.2645 775.481 Q20.2645 774.331 20.9859 773.7 Q21.7073 773.046 22.6767 773.046 Q23.9166 773.046 24.5253 773.858 Q25.1115 774.647 25.1115 775.436 Q25.1115 775.752 25.0439 776.18 Q24.9762 776.586 24.345 777.24 Q23.6912 777.893 22.5415 777.893 Q19.3176 777.893 16.7476 775.459 Q14.1776 773.001 14.1776 769.259 Q14.1776 765.021 16.7025 762.248 Q19.2049 759.452 23.1276 759.452 Q24.5028 759.452 25.7653 759.881 Q27.0052 760.286 27.9746 760.85 Q28.944 761.391 30.4995 762.879 Q32.0551 764.367 33.1597 765.562 Q34.2644 766.757 36.609 769.439 L41.3658 774.331 L41.3658 766.013 Q41.3658 761.955 41.0051 761.639 Q40.3513 761.188 36.9021 760.625 L36.9021 759.452 L44.9278 760.76 L44.9278 777.893 Z" fill="#000000" fill-rule="evenodd" fill-opacity="1" /><path clip-path="url(#clip320)" d="M 0 0 M56.0194 755.03 Q55.794 755.03 55.2304 754.443 Q47.6556 747.004 33.3852 747.004 Q19.0697 747.004 11.833 754.15 Q10.9989 755.03 10.7509 755.03 Q10.3 755.03 10.3 754.579 Q10.3 754.263 11.2243 753.158 Q12.1486 752.031 14.2678 750.34 Q16.3869 748.627 18.9795 747.365 Q25.2693 744.321 33.3852 744.321 Q41.1854 744.321 47.4752 747.229 Q50.1129 748.469 52.3222 750.205 Q54.5315 751.941 55.5009 753.091 Q56.4703 754.241 56.4703 754.579 Q56.4703 755.03 56.0194 755.03 Z" fill="#000000" fill-rule="evenodd" fill-opacity="1" /><path clip-path="url(#clip320)" d="M 0 0 M72.2049 730.261 Q61.0617 730.261 52.0763 726.107 Q48.3082 724.335 45.152 721.856 Q41.9959 719.376 40.611 717.733 Q39.2261 716.091 39.2261 715.64 Q39.2261 714.996 39.8703 714.963 Q40.1923 714.963 40.9975 715.833 Q51.8186 726.461 72.2049 726.429 Q92.6557 726.429 103.058 716.091 Q104.185 714.963 104.54 714.963 Q105.184 714.963 105.184 715.64 Q105.184 716.091 103.863 717.669 Q102.543 719.247 99.5155 721.695 Q96.4882 724.142 92.7845 725.913 Q83.7991 730.261 72.2049 730.261 Z" fill="#000000" fill-rule="evenodd" fill-opacity="1" /><path clip-path="url(#clip320)" d="M 0 0 M61.3194 673.889 Q61.6092 673.889 62.6076 674.146 Q63.5738 674.372 65.4739 675.112 Q67.3419 675.821 69.4352 676.916 Q71.4964 677.979 74.1051 679.943 Q76.7138 681.908 79.0004 684.356 Q83.316 688.961 85.6348 693.888 Q87.9536 698.784 88.6944 702.971 L88.6944 703.904 Q88.6944 704.935 87.8892 704.935 L84.9263 704.227 L68.7911 700.201 Q63.8636 698.945 63.445 698.945 Q63.0585 698.945 62.8653 699.106 Q62.6398 699.235 62.4788 700.008 Q62.3178 700.748 62.3178 702.23 Q62.3178 702.842 62.2855 703.132 Q62.2533 703.389 62.0923 703.615 Q61.8991 703.84 61.5126 703.84 Q60.9651 703.84 60.6753 703.615 Q60.3532 703.357 60.2888 703.164 Q60.2244 702.971 60.1922 702.584 Q60.16 702.037 59.9989 700.201 Q59.8057 698.365 59.6769 696.787 Q59.548 695.209 59.548 694.533 Q59.548 694.146 59.7413 693.921 Q59.9023 693.695 60.0955 693.695 L60.2566 693.663 L86.5044 700.136 Q85.7314 697.753 84.4432 695.402 Q83.1549 693.019 81.0294 690.442 Q78.8716 687.866 76.1985 685.676 Q73.5254 683.486 69.7895 681.554 Q66.0214 679.589 61.7058 678.365 Q60.8363 678.14 60.321 677.592 Q59.8057 677.013 59.6769 676.594 Q59.548 676.175 59.548 675.789 Q59.548 674.919 60.0311 674.404 Q60.482 673.889 61.3194 673.889 Z" fill="#000000" fill-rule="evenodd" fill-opacity="1" /><path clip-path="url(#clip320)" d="M 0 0 M104.54 672.687 Q104.218 672.687 103.412 671.85 Q92.5913 661.222 72.2049 661.222 Q51.7542 661.222 41.4161 671.431 Q40.2245 672.687 39.8703 672.687 Q39.2261 672.687 39.2261 672.043 Q39.2261 671.592 40.5466 670.014 Q41.867 668.404 44.8944 665.988 Q47.9217 663.541 51.6254 661.737 Q60.6108 657.389 72.2049 657.389 Q83.3482 657.389 92.3336 661.544 Q96.1017 663.315 99.2579 665.795 Q102.414 668.275 103.799 669.918 Q105.184 671.56 105.184 672.043 Q105.184 672.687 104.54 672.687 Z" fill="#000000" fill-rule="evenodd" fill-opacity="1" /><path clip-path="url(#clip320)" d="M 0 0 M571.761 18.8205 L571.761 41.5461 L582.05 41.5461 Q587.762 41.5461 590.881 38.5889 Q594 35.6318 594 30.163 Q594 24.7348 590.881 21.7777 Q587.762 18.8205 582.05 18.8205 L571.761 18.8205 M563.578 12.096 L582.05 12.096 Q592.218 12.096 597.403 16.714 Q602.629 21.2916 602.629 30.163 Q602.629 39.1155 597.403 43.6931 Q592.218 48.2706 582.05 48.2706 L571.761 48.2706 L571.761 72.576 L563.578 72.576 L563.578 12.096 Z" fill="#000000" fill-rule="evenodd" fill-opacity="1" /><path clip-path="url(#clip320)" d="M 0 0 M650.996 45.1919 L650.996 72.576 L643.543 72.576 L643.543 45.4349 Q643.543 38.994 641.031 35.7938 Q638.52 32.5936 633.496 32.5936 Q627.461 32.5936 623.977 36.4419 Q620.493 40.2903 620.493 46.9338 L620.493 72.576 L612.999 72.576 L612.999 9.54393 L620.493 9.54393 L620.493 34.2544 Q623.167 30.163 626.772 28.1376 Q630.418 26.1121 635.157 26.1121 Q642.976 26.1121 646.986 30.9732 Q650.996 35.7938 650.996 45.1919 Z" fill="#000000" fill-rule="evenodd" fill-opacity="1" /><path clip-path="url(#clip320)" d="M 0 0 M683.444 32.4315 Q677.449 32.4315 673.965 37.1306 Q670.481 41.7891 670.481 49.9314 Q670.481 58.0738 673.924 62.7728 Q677.408 67.4314 683.444 67.4314 Q689.399 67.4314 692.883 62.7323 Q696.366 58.0333 696.366 49.9314 Q696.366 41.8701 692.883 37.1711 Q689.399 32.4315 683.444 32.4315 M683.444 26.1121 Q693.166 26.1121 698.716 32.4315 Q704.266 38.7509 704.266 49.9314 Q704.266 61.0714 698.716 67.4314 Q693.166 73.7508 683.444 73.7508 Q673.681 73.7508 668.132 67.4314 Q662.622 61.0714 662.622 49.9314 Q662.622 38.7509 668.132 32.4315 Q673.681 26.1121 683.444 26.1121 Z" fill="#000000" fill-rule="evenodd" fill-opacity="1" /><path clip-path="url(#clip320)" d="M 0 0 M723.994 14.324 L723.994 27.2059 L739.347 27.2059 L739.347 32.9987 L723.994 32.9987 L723.994 57.6282 Q723.994 63.1779 725.492 64.7578 Q727.032 66.3376 731.69 66.3376 L739.347 66.3376 L739.347 72.576 L731.69 72.576 Q723.062 72.576 719.781 69.3758 Q716.499 66.1351 716.499 57.6282 L716.499 32.9987 L711.031 32.9987 L711.031 27.2059 L716.499 27.2059 L716.499 14.324 L723.994 14.324 Z" fill="#000000" fill-rule="evenodd" fill-opacity="1" /><path clip-path="url(#clip320)" d="M 0 0 M766.731 32.4315 Q760.735 32.4315 757.252 37.1306 Q753.768 41.7891 753.768 49.9314 Q753.768 58.0738 757.211 62.7728 Q760.695 67.4314 766.731 67.4314 Q772.685 67.4314 776.169 62.7323 Q779.653 58.0333 779.653 49.9314 Q779.653 41.8701 776.169 37.1711 Q772.685 32.4315 766.731 32.4315 M766.731 26.1121 Q776.453 26.1121 782.003 32.4315 Q787.552 38.7509 787.552 49.9314 Q787.552 61.0714 782.003 67.4314 Q776.453 73.7508 766.731 73.7508 Q756.968 73.7508 751.418 67.4314 Q745.909 61.0714 745.909 49.9314 Q745.909 38.7509 751.418 32.4315 Q756.968 26.1121 766.731 26.1121 Z" fill="#000000" fill-rule="evenodd" fill-opacity="1" /><path clip-path="url(#clip320)" d="M 0 0 M837.621 45.1919 L837.621 72.576 L830.168 72.576 L830.168 45.4349 Q830.168 38.994 827.656 35.7938 Q825.145 32.5936 820.122 32.5936 Q814.086 32.5936 810.602 36.4419 Q807.118 40.2903 807.118 46.9338 L807.118 72.576 L799.624 72.576 L799.624 27.2059 L807.118 27.2059 L807.118 34.2544 Q809.792 30.163 813.397 28.1376 Q817.043 26.1121 821.782 26.1121 Q829.601 26.1121 833.611 30.9732 Q837.621 35.7938 837.621 45.1919 Z" fill="#000000" fill-rule="evenodd" fill-opacity="1" /><path clip-path="url(#clip320)" d="M 0 0 M924.473 16.7545 L924.473 25.383 Q920.341 21.5346 915.642 19.6307 Q910.983 17.7268 905.717 17.7268 Q895.347 17.7268 889.838 24.0867 Q884.328 30.4061 884.328 42.3968 Q884.328 54.3469 889.838 60.7069 Q895.347 67.0263 905.717 67.0263 Q910.983 67.0263 915.642 65.1223 Q920.341 63.2184 924.473 59.3701 L924.473 67.9175 Q920.179 70.8341 915.358 72.2924 Q910.578 73.7508 905.231 73.7508 Q891.498 73.7508 883.599 65.3654 Q875.7 56.9395 875.7 42.3968 Q875.7 27.8135 883.599 19.4281 Q891.498 11.0023 905.231 11.0023 Q910.659 11.0023 915.439 12.4606 Q920.26 13.8784 924.473 16.7545 Z" fill="#000000" fill-rule="evenodd" fill-opacity="1" /><path clip-path="url(#clip320)" d="M 0 0 M954.369 32.4315 Q948.373 32.4315 944.889 37.1306 Q941.406 41.7891 941.406 49.9314 Q941.406 58.0738 944.849 62.7728 Q948.333 67.4314 954.369 67.4314 Q960.323 67.4314 963.807 62.7323 Q967.291 58.0333 967.291 49.9314 Q967.291 41.8701 963.807 37.1711 Q960.323 32.4315 954.369 32.4315 M954.369 26.1121 Q964.091 26.1121 969.64 32.4315 Q975.19 38.7509 975.19 49.9314 Q975.19 61.0714 969.64 67.4314 Q964.091 73.7508 954.369 73.7508 Q944.606 73.7508 939.056 67.4314 Q933.547 61.0714 933.547 49.9314 Q933.547 38.7509 939.056 32.4315 Q944.606 26.1121 954.369 26.1121 Z" fill="#000000" fill-rule="evenodd" fill-opacity="1" /><path clip-path="url(#clip320)" d="M 0 0 M1013.84 34.1734 Q1012.58 33.4443 1011.08 33.1202 Q1009.62 32.7556 1007.84 32.7556 Q1001.52 32.7556 998.118 36.8875 Q994.756 40.9789 994.756 48.6757 L994.756 72.576 L987.262 72.576 L987.262 27.2059 L994.756 27.2059 L994.756 34.2544 Q997.106 30.1225 1000.87 28.1376 Q1004.64 26.1121 1010.03 26.1121 Q1010.8 26.1121 1011.73 26.2337 Q1012.66 26.3147 1013.8 26.5172 L1013.84 34.1734 Z" fill="#000000" fill-rule="evenodd" fill-opacity="1" /><path clip-path="url(#clip320)" d="M 0 0 M1046.49 34.1734 Q1045.23 33.4443 1043.73 33.1202 Q1042.27 32.7556 1040.49 32.7556 Q1034.17 32.7556 1030.77 36.8875 Q1027.41 40.9789 1027.41 48.6757 L1027.41 72.576 L1019.91 72.576 L1019.91 27.2059 L1027.41 27.2059 L1027.41 34.2544 Q1029.76 30.1225 1033.52 28.1376 Q1037.29 26.1121 1042.68 26.1121 Q1043.45 26.1121 1044.38 26.2337 Q1045.31 26.3147 1046.45 26.5172 L1046.49 34.1734 Z" fill="#000000" fill-rule="evenodd" fill-opacity="1" /><path clip-path="url(#clip320)" d="M 0 0 M1091.29 48.0275 L1091.29 51.6733 L1057.02 51.6733 Q1057.5 59.3701 1061.64 63.421 Q1065.81 67.4314 1073.22 67.4314 Q1077.52 67.4314 1081.53 66.3781 Q1085.58 65.3249 1089.55 63.2184 L1089.55 70.267 Q1085.54 71.9684 1081.32 72.8596 Q1077.11 73.7508 1072.78 73.7508 Q1061.92 73.7508 1055.56 67.4314 Q1049.24 61.1119 1049.24 50.3365 Q1049.24 39.1965 1055.24 32.6746 Q1061.27 26.1121 1071.48 26.1121 Q1080.64 26.1121 1085.94 32.0264 Q1091.29 37.9003 1091.29 48.0275 M1083.84 45.84 Q1083.75 39.7232 1080.39 36.0774 Q1077.07 32.4315 1071.56 32.4315 Q1065.32 32.4315 1061.56 35.9558 Q1057.83 39.4801 1057.26 45.8805 L1083.84 45.84 Z" fill="#000000" fill-rule="evenodd" fill-opacity="1" /><path clip-path="url(#clip320)" d="M 0 0 M1103.52 9.54393 L1110.98 9.54393 L1110.98 72.576 L1103.52 72.576 L1103.52 9.54393 Z" fill="#000000" fill-rule="evenodd" fill-opacity="1" /><path clip-path="url(#clip320)" d="M 0 0 M1147.19 49.7694 Q1138.16 49.7694 1134.67 51.8354 Q1131.19 53.9013 1131.19 58.8839 Q1131.19 62.8538 1133.78 65.2034 Q1136.42 67.5124 1140.91 67.5124 Q1147.11 67.5124 1150.84 63.1374 Q1154.6 58.7219 1154.6 51.4303 L1154.6 49.7694 L1147.19 49.7694 M1162.06 46.6907 L1162.06 72.576 L1154.6 72.576 L1154.6 65.6895 Q1152.05 69.8214 1148.24 71.8063 Q1144.44 73.7508 1138.93 73.7508 Q1131.96 73.7508 1127.83 69.8619 Q1123.74 65.9325 1123.74 59.3701 Q1123.74 51.7138 1128.84 47.825 Q1133.99 43.9361 1144.15 43.9361 L1154.6 43.9361 L1154.6 43.2069 Q1154.6 38.0623 1151.2 35.2672 Q1147.84 32.4315 1141.72 32.4315 Q1137.83 32.4315 1134.15 33.3632 Q1130.46 34.295 1127.06 36.1584 L1127.06 29.2718 Q1131.15 27.692 1135 26.9223 Q1138.85 26.1121 1142.49 26.1121 Q1152.34 26.1121 1157.2 31.2163 Q1162.06 36.3204 1162.06 46.6907 Z" fill="#000000" fill-rule="evenodd" fill-opacity="1" /><path clip-path="url(#clip320)" d="M 0 0 M1184.78 14.324 L1184.78 27.2059 L1200.14 27.2059 L1200.14 32.9987 L1184.78 32.9987 L1184.78 57.6282 Q1184.78 63.1779 1186.28 64.7578 Q1187.82 66.3376 1192.48 66.3376 L1200.14 66.3376 L1200.14 72.576 L1192.48 72.576 Q1183.85 72.576 1180.57 69.3758 Q1177.29 66.1351 1177.29 57.6282 L1177.29 32.9987 L1171.82 32.9987 L1171.82 27.2059 L1177.29 27.2059 L1177.29 14.324 L1184.78 14.324 Z" fill="#000000" fill-rule="evenodd" fill-opacity="1" /><path clip-path="url(#clip320)" d="M 0 0 M1209.94 27.2059 L1217.39 27.2059 L1217.39 72.576 L1209.94 72.576 L1209.94 27.2059 M1209.94 9.54393 L1217.39 9.54393 L1217.39 18.9825 L1209.94 18.9825 L1209.94 9.54393 Z" fill="#000000" fill-rule="evenodd" fill-opacity="1" /><path clip-path="url(#clip320)" d="M 0 0 M1250.57 32.4315 Q1244.58 32.4315 1241.09 37.1306 Q1237.61 41.7891 1237.61 49.9314 Q1237.61 58.0738 1241.05 62.7728 Q1244.53 67.4314 1250.57 67.4314 Q1256.53 67.4314 1260.01 62.7323 Q1263.49 58.0333 1263.49 49.9314 Q1263.49 41.8701 1260.01 37.1711 Q1256.53 32.4315 1250.57 32.4315 M1250.57 26.1121 Q1260.29 26.1121 1265.84 32.4315 Q1271.39 38.7509 1271.39 49.9314 Q1271.39 61.0714 1265.84 67.4314 Q1260.29 73.7508 1250.57 73.7508 Q1240.81 73.7508 1235.26 67.4314 Q1229.75 61.0714 1229.75 49.9314 Q1229.75 38.7509 1235.26 32.4315 Q1240.81 26.1121 1250.57 26.1121 Z" fill="#000000" fill-rule="evenodd" fill-opacity="1" /><path clip-path="url(#clip320)" d="M 0 0 M1321.46 45.1919 L1321.46 72.576 L1314.01 72.576 L1314.01 45.4349 Q1314.01 38.994 1311.5 35.7938 Q1308.98 32.5936 1303.96 32.5936 Q1297.93 32.5936 1294.44 36.4419 Q1290.96 40.2903 1290.96 46.9338 L1290.96 72.576 L1283.46 72.576 L1283.46 27.2059 L1290.96 27.2059 L1290.96 34.2544 Q1293.63 30.163 1297.24 28.1376 Q1300.88 26.1121 1305.62 26.1121 Q1313.44 26.1121 1317.45 30.9732 Q1321.46 35.7938 1321.46 45.1919 Z" fill="#000000" fill-rule="evenodd" fill-opacity="1" /><path clip-path="url(#clip320)" d="M 0 0 M1365.25 28.5427 L1365.25 35.5912 Q1362.09 33.9709 1358.69 33.1607 Q1355.29 32.3505 1351.64 32.3505 Q1346.09 32.3505 1343.3 34.0519 Q1340.54 35.7533 1340.54 39.156 Q1340.54 41.7486 1342.53 43.2475 Q1344.51 44.7058 1350.51 46.0426 L1353.06 46.6097 Q1361 48.3111 1364.32 51.4303 Q1367.68 54.509 1367.68 60.0587 Q1367.68 66.3781 1362.66 70.0644 Q1357.68 73.7508 1348.93 73.7508 Q1345.28 73.7508 1341.31 73.0216 Q1337.38 72.3329 1333.01 70.9151 L1333.01 63.2184 Q1337.14 65.3654 1341.15 66.4591 Q1345.16 67.5124 1349.09 67.5124 Q1354.35 67.5124 1357.19 65.73 Q1360.03 63.9071 1360.03 60.6258 Q1360.03 57.5877 1357.96 55.9673 Q1355.93 54.3469 1349.01 52.8481 L1346.42 52.2405 Q1339.49 50.7821 1336.41 47.7845 Q1333.33 44.7463 1333.33 39.4801 Q1333.33 33.0797 1337.87 29.5959 Q1342.4 26.1121 1350.75 26.1121 Q1354.88 26.1121 1358.53 26.7198 Q1362.17 27.3274 1365.25 28.5427 Z" fill="#000000" fill-rule="evenodd" fill-opacity="1" /><path clip-path="url(#clip320)" d="M 0 0 M1400.58 27.2059 L1408.47 27.2059 L1422.65 65.2844 L1436.83 27.2059 L1444.73 27.2059 L1427.72 72.576 L1417.59 72.576 L1400.58 27.2059 Z" fill="#000000" fill-rule="evenodd" fill-opacity="1" /><path clip-path="url(#clip320)" d="M 0 0 M1483.94 28.5427 L1483.94 35.5912 Q1480.78 33.9709 1477.38 33.1607 Q1473.98 32.3505 1470.33 32.3505 Q1464.78 32.3505 1461.99 34.0519 Q1459.23 35.7533 1459.23 39.156 Q1459.23 41.7486 1461.22 43.2475 Q1463.2 44.7058 1469.2 46.0426 L1471.75 46.6097 Q1479.69 48.3111 1483.01 51.4303 Q1486.37 54.509 1486.37 60.0587 Q1486.37 66.3781 1481.35 70.0644 Q1476.37 73.7508 1467.62 73.7508 Q1463.97 73.7508 1460 73.0216 Q1456.07 72.3329 1451.7 70.9151 L1451.7 63.2184 Q1455.83 65.3654 1459.84 66.4591 Q1463.85 67.5124 1467.78 67.5124 Q1473.05 67.5124 1475.88 65.73 Q1478.72 63.9071 1478.72 60.6258 Q1478.72 57.5877 1476.65 55.9673 Q1474.63 54.3469 1467.7 52.8481 L1465.11 52.2405 Q1458.18 50.7821 1455.1 47.7845 Q1452.02 44.7463 1452.02 39.4801 Q1452.02 33.0797 1456.56 29.5959 Q1461.1 26.1121 1469.44 26.1121 Q1473.57 26.1121 1477.22 26.7198 Q1480.86 27.3274 1483.94 28.5427 Z" fill="#000000" fill-rule="evenodd" fill-opacity="1" /><path clip-path="url(#clip320)" d="M 0 0 M1524.94 12.096 L1559.7 12.096 L1559.7 18.9825 L1533.12 18.9825 L1533.12 36.8065 L1557.1 36.8065 L1557.1 43.6931 L1533.12 43.6931 L1533.12 72.576 L1524.94 72.576 L1524.94 12.096 Z" fill="#000000" fill-rule="evenodd" fill-opacity="1" /><path clip-path="url(#clip320)" d="M 0 0 M1592.59 34.1734 Q1591.33 33.4443 1589.83 33.1202 Q1588.38 32.7556 1586.59 32.7556 Q1580.27 32.7556 1576.87 36.8875 Q1573.51 40.9789 1573.51 48.6757 L1573.51 72.576 L1566.01 72.576 L1566.01 27.2059 L1573.51 27.2059 L1573.51 34.2544 Q1575.86 30.1225 1579.63 28.1376 Q1583.39 26.1121 1588.78 26.1121 Q1589.55 26.1121 1590.48 26.2337 Q1591.41 26.3147 1592.55 26.5172 L1592.59 34.1734 Z" fill="#000000" fill-rule="evenodd" fill-opacity="1" /><path clip-path="url(#clip320)" d="M 0 0 M1637.39 48.0275 L1637.39 51.6733 L1603.12 51.6733 Q1603.61 59.3701 1607.74 63.421 Q1611.91 67.4314 1619.32 67.4314 Q1623.62 67.4314 1627.63 66.3781 Q1631.68 65.3249 1635.65 63.2184 L1635.65 70.267 Q1631.64 71.9684 1627.43 72.8596 Q1623.21 73.7508 1618.88 73.7508 Q1608.02 73.7508 1601.66 67.4314 Q1595.34 61.1119 1595.34 50.3365 Q1595.34 39.1965 1601.34 32.6746 Q1607.37 26.1121 1617.58 26.1121 Q1626.74 26.1121 1632.04 32.0264 Q1637.39 37.9003 1637.39 48.0275 M1629.94 45.84 Q1629.86 39.7232 1626.49 36.0774 Q1623.17 32.4315 1617.66 32.4315 Q1611.43 32.4315 1607.66 35.9558 Q1603.93 39.4801 1603.36 45.8805 L1629.94 45.84 Z" fill="#000000" fill-rule="evenodd" fill-opacity="1" /><path clip-path="url(#clip320)" d="M 0 0 M1654.08 49.9314 Q1654.08 58.1548 1657.44 62.8538 Q1660.85 67.5124 1666.76 67.5124 Q1672.67 67.5124 1676.08 62.8538 Q1679.48 58.1548 1679.48 49.9314 Q1679.48 41.7081 1676.08 37.0496 Q1672.67 32.3505 1666.76 32.3505 Q1660.85 32.3505 1657.44 37.0496 Q1654.08 41.7081 1654.08 49.9314 M1679.48 65.7705 Q1677.13 69.8214 1673.53 71.8063 Q1669.96 73.7508 1664.94 73.7508 Q1656.71 73.7508 1651.53 67.1883 Q1646.38 60.6258 1646.38 49.9314 Q1646.38 39.2371 1651.53 32.6746 Q1656.71 26.1121 1664.94 26.1121 Q1669.96 26.1121 1673.53 28.0971 Q1677.13 30.0415 1679.48 34.0924 L1679.48 27.2059 L1686.93 27.2059 L1686.93 89.8329 L1679.48 89.8329 L1679.48 65.7705 Z" fill="#000000" fill-rule="evenodd" fill-opacity="1" /><path clip-path="url(#clip320)" d="M 0 0 M1701.52 54.671 L1701.52 27.2059 L1708.97 27.2059 L1708.97 54.3874 Q1708.97 60.8284 1711.48 64.0691 Q1713.99 67.2693 1719.02 67.2693 Q1725.05 67.2693 1728.54 63.421 Q1732.06 59.5726 1732.06 52.9291 L1732.06 27.2059 L1739.51 27.2059 L1739.51 72.576 L1732.06 72.576 L1732.06 65.6084 Q1729.35 69.7404 1725.74 71.7658 Q1722.18 73.7508 1717.44 73.7508 Q1709.62 73.7508 1705.57 68.8897 Q1701.52 64.0286 1701.52 54.671 M1720.27 26.1121 L1720.27 26.1121 Z" fill="#000000" fill-rule="evenodd" fill-opacity="1" /><path clip-path="url(#clip320)" d="M 0 0 M1793.68 48.0275 L1793.68 51.6733 L1759.4 51.6733 Q1759.89 59.3701 1764.02 63.421 Q1768.2 67.4314 1775.61 67.4314 Q1779.9 67.4314 1783.91 66.3781 Q1787.96 65.3249 1791.93 63.2184 L1791.93 70.267 Q1787.92 71.9684 1783.71 72.8596 Q1779.5 73.7508 1775.16 73.7508 Q1764.31 73.7508 1757.95 67.4314 Q1751.63 61.1119 1751.63 50.3365 Q1751.63 39.1965 1757.62 32.6746 Q1763.66 26.1121 1773.87 26.1121 Q1783.02 26.1121 1788.33 32.0264 Q1793.68 37.9003 1793.68 48.0275 M1786.22 45.84 Q1786.14 39.7232 1782.78 36.0774 Q1779.46 32.4315 1773.95 32.4315 Q1767.71 32.4315 1763.94 35.9558 Q1760.21 39.4801 1759.65 45.8805 L1786.22 45.84 Z" fill="#000000" fill-rule="evenodd" fill-opacity="1" /><path clip-path="url(#clip320)" d="M 0 0 M1843.62 45.1919 L1843.62 72.576 L1836.17 72.576 L1836.17 45.4349 Q1836.17 38.994 1833.66 35.7938 Q1831.15 32.5936 1826.12 32.5936 Q1820.09 32.5936 1816.6 36.4419 Q1813.12 40.2903 1813.12 46.9338 L1813.12 72.576 L1805.63 72.576 L1805.63 27.2059 L1813.12 27.2059 L1813.12 34.2544 Q1815.79 30.163 1819.4 28.1376 Q1823.04 26.1121 1827.78 26.1121 Q1835.6 26.1121 1839.61 30.9732 Q1843.62 35.7938 1843.62 45.1919 Z" fill="#000000" fill-rule="evenodd" fill-opacity="1" /><path clip-path="url(#clip320)" d="M 0 0 M1891.14 28.9478 L1891.14 35.9153 Q1887.98 34.1734 1884.78 33.3227 Q1881.62 32.4315 1878.38 32.4315 Q1871.13 32.4315 1867.12 37.0496 Q1863.11 41.6271 1863.11 49.9314 Q1863.11 58.2358 1867.12 62.8538 Q1871.13 67.4314 1878.38 67.4314 Q1881.62 67.4314 1884.78 66.5807 Q1887.98 65.6895 1891.14 63.9476 L1891.14 70.8341 Q1888.02 72.2924 1884.66 73.0216 Q1881.34 73.7508 1877.57 73.7508 Q1867.32 73.7508 1861.28 67.3098 Q1855.25 60.8689 1855.25 49.9314 Q1855.25 38.832 1861.33 32.472 Q1867.44 26.1121 1878.06 26.1121 Q1881.5 26.1121 1884.78 26.8413 Q1888.06 27.5299 1891.14 28.9478 Z" fill="#000000" fill-rule="evenodd" fill-opacity="1" /><path clip-path="url(#clip320)" d="M 0 0 M1922.98 76.7889 Q1919.82 84.8907 1916.82 87.3618 Q1913.83 89.8329 1908.8 89.8329 L1902.85 89.8329 L1902.85 83.5945 L1907.22 83.5945 Q1910.3 83.5945 1912 82.1361 Q1913.7 80.6778 1915.77 75.2496 L1917.11 71.8468 L1898.76 27.2059 L1906.66 27.2059 L1920.83 62.6918 L1935.01 27.2059 L1942.91 27.2059 L1922.98 76.7889 Z" fill="#000000" fill-rule="evenodd" fill-opacity="1" /><polyline clip-path="url(#clip323)" style="stroke:#009af9; stroke-width:4; stroke-opacity:1; fill:none" points="
  306.535,1324.83 310.368,1322.22 314.201,1322.22 318.034,1322.18 321.866,1322.16 325.699,1322.12 329.532,1322.07 333.365,1321.99 337.198,1321.89 341.031,1321.7 
  344.863,1321.88 348.696,1321.19 352.529,1320.26 356.362,1315.37 360.195,1321.59 364.028,1323.03 367.86,1315.11 371.693,1320.97 375.526,1322.6 379.359,1322.2 
  383.192,1322.76 387.025,1323.52 390.857,1320.11 394.69,1322.63 398.523,1322.68 402.356,1322.48 406.189,1322.08 410.022,1321.68 413.854,1320.84 417.687,1321.78 
  421.52,1313.07 425.353,1322.24 429.186,1318.72 433.019,1323.73 436.851,1323.63 440.684,1323.56 444.517,1323.43 448.35,1323.29 452.183,1322.96 456.016,1321.04 
  459.848,1321.51 463.681,1323.44 467.514,1323.51 471.347,1320.03 475.18,1323.67 479.012,1320.07 482.845,1323.53 486.678,1324.67 490.511,1322.6 494.344,1321.02 
  498.177,1322.96 502.009,1323.52 505.842,1322.12 509.675,1323.78 513.508,1324.01 517.341,1319.63 521.174,1323.7 525.006,1322.32 528.839,1323.96 532.672,1322.53 
  536.505,1322.37 540.338,1320.28 544.171,1308.4 548.003,1320.31 551.836,1320.12 555.669,1317.16 559.502,1321.01 563.335,1321.55 567.168,1321.75 571,1321.89 
  574.833,1321.85 578.666,1321.55 582.499,1319.66 586.332,1315.23 590.165,1322.19 593.997,1314.62 597.83,1322.02 601.663,1322.95 605.496,1322.36 609.329,1321.97 
  613.162,1322.13 616.994,1321 620.827,1321.68 624.66,1320.5 628.493,1311.76 632.326,1315.96 636.159,1309.64 639.991,1311.5 643.824,1321.41 647.657,1317.52 
  651.49,1318.5 655.323,1317.4 659.156,1318.16 662.988,1313.83 666.821,1309.87 670.654,1310.34 674.487,1318.3 678.32,1319.76 682.153,1320.27 685.985,1320.46 
  689.818,1320.56 693.651,1320.35 697.484,1318.25 701.317,1319.95 705.149,1319 708.982,1319.51 712.815,1320.03 716.648,1319.24 720.481,1323.54 724.314,1318.99 
  728.146,1312.7 731.979,1315.76 735.812,1324.3 739.645,1322.19 743.478,1305.09 747.311,1323.55 751.143,1318.46 754.976,1319.82 758.809,1321.48 762.642,1321.63 
  766.475,1321.49 770.308,1319.24 774.14,1320.32 777.973,1318.69 781.806,1280.38 785.639,1322.13 789.472,1322.66 793.305,1322.56 797.137,1322.47 800.97,1322.36 
  804.803,1322.2 808.636,1321.93 812.469,1318.4 816.302,1322.37 820.134,1321.95 823.967,1321.53 827.8,1320.76 831.633,1317.39 835.466,1315.92 839.299,1319.85 
  843.131,1319.79 846.964,1319.66 850.797,1324.18 854.63,1324.33 858.463,1319.66 862.296,1321.21 866.128,1312.38 869.961,1322.42 873.794,1323.82 877.627,1324.11 
  881.46,1324.2 885.293,1318.61 889.125,1323.66 892.958,1322.52 896.791,1321.96 900.624,1307.18 904.457,1318.77 908.29,1319.67 912.122,1319.64 915.955,1320.82 
  919.788,1321.27 923.621,1321.5 927.454,1321.72 931.286,1321.88 935.119,1322.07 938.952,1322.37 942.785,1322.96 946.618,1319.57 950.451,1317.34 954.283,1321.9 
  958.116,1320.04 961.949,1319.87 965.782,1321.25 969.615,1320.18 973.448,1320.96 977.28,1318.29 981.113,1301.41 984.946,1321.54 988.779,1321.62 992.612,1320.95 
  996.445,1315.82 1000.28,1307.8 1004.11,1321.51 1007.94,1321.37 1011.78,1320.82 1015.61,1317.03 1019.44,1318.65 1023.27,1319.75 1027.11,1319.18 1030.94,1318.92 
  1034.77,1322.59 1038.61,1319.35 1042.44,1318.72 1046.27,1317.98 1050.1,1316.75 1053.94,1314.28 1057.77,1308.96 1061.6,1268.48 1065.44,1316.29 1069.27,1317.54 
  1073.1,1321.38 1076.93,1320.94 1080.77,1323.52 1084.6,1312.73 1088.43,1318.44 1092.27,1319.38 1096.1,1322.65 1099.93,1321.67 1103.76,1320.73 1107.6,1317.2 
  1111.43,1314.46 1115.26,1317.81 1119.1,1320.81 1122.93,1321.68 1126.76,1321.07 1130.59,1320.96 1134.43,1321.36 1138.26,1322.34 1142.09,1320.35 1145.92,1314.25 
  1149.76,1321.25 1153.59,1321.29 1157.42,1320.28 1161.26,1319.02 1165.09,1316.76 1168.92,1309.27 1172.75,1312.58 1176.59,1312.89 1180.42,1321.8 1184.25,1317.44 
  1188.09,1317.87 1191.92,1322.26 1195.75,1322.76 1199.58,1321.18 1203.42,1323.47 1207.25,1321.51 1211.08,1322.47 1214.92,1323.18 1218.75,1322.35 1222.58,1307.97 
  1226.41,1322.61 1230.25,1323.98 1234.08,1323.97 1237.91,1319.2 1241.75,1322.93 1245.58,1319.13 1249.41,1321.16 1253.24,1324.28 1257.08,1323.05 1260.91,1321.06 
  1264.74,1321.8 1268.58,1324.14 1272.41,1318.73 1276.24,1322.91 1280.07,1323.64 1283.91,1314.06 1287.74,1314.42 1291.57,1319.29 1295.41,1320.68 1299.24,1322.23 
  1303.07,1321.27 1306.9,1322.86 1310.74,1320.57 1314.57,1320.24 1318.4,1321.12 1322.24,1317.18 1326.07,1319.39 1329.9,1319.36 1333.73,1317.2 1337.57,1301.48 
  1341.4,1320.63 1345.23,1321.27 1349.07,1321.46 1352.9,1321.51 1356.73,1321.46 1360.56,1318.38 1364.4,1318.28 1368.23,1320.42 1372.06,1321.88 1375.89,1320.16 
  1379.73,1320.76 1383.56,1321.06 1387.39,1320.86 1391.23,1321.32 1395.06,1313.46 1398.89,1321.75 1402.72,1318.33 1406.56,1318.61 1410.39,1318.4 1414.22,1322.09 
  1418.06,1318.1 1421.89,1309.76 1425.72,1315.07 1429.55,1316.53 1433.39,1316.74 1437.22,1315.88 1441.05,1316.75 1444.89,1296.08 1448.72,1274.69 1452.55,1311.92 
  1456.38,1319.24 1460.22,1321.7 1464.05,1322.69 1467.88,1322.74 1471.72,1321.47 1475.55,1322.24 1479.38,1323.09 1483.21,1322.44 1487.05,1322.79 1490.88,1322.08 
  1494.71,1319.34 1498.55,1320.51 1502.38,1321.14 1506.21,1314.59 1510.04,1307.75 1513.88,1323.87 1517.71,1321.9 1521.54,1319.59 1525.38,1311.52 1529.21,1307.08 
  1533.04,1317.35 1536.87,1317.79 1540.71,1323.04 1544.54,1322.85 1548.37,1319.35 1552.21,1320.86 1556.04,1321.81 1559.87,1314.6 1563.7,1321.24 1567.54,1322.64 
  1571.37,1322.96 1575.2,1323.03 1579.03,1323.15 1582.87,1323.23 1586.7,1323.31 1590.53,1323.47 1594.37,1323.57 1598.2,1319.92 1602.03,1322.47 1605.86,1322.19 
  1609.7,1307.13 1613.53,1316.89 1617.36,1320.86 1621.2,1323.23 1625.03,1317.9 1628.86,1321.04 1632.69,1322.08 1636.53,1322.99 1640.36,1316.61 1644.19,1317.93 
  1648.03,1321.06 1651.86,1318.43 1655.69,1321.57 1659.52,1323.67 1663.36,1322.78 1667.19,1320.97 1671.02,1320.8 1674.86,1316.89 1678.69,1318.35 1682.52,1319.17 
  1686.35,1319.61 1690.19,1320.07 1694.02,1321.23 1697.85,1317.92 1701.69,1318.99 1705.52,1319.15 1709.35,1319.05 1713.18,1318.6 1717.02,1317.32 1720.85,1312.96 
  1724.68,1295.39 1728.52,1299.56 1732.35,1310.6 1736.18,1318.6 1740.01,1314.94 1743.85,1317.21 1747.68,1318.12 1751.51,1318.64 1755.35,1317.79 1759.18,1317.34 
  1763.01,1313.88 1766.84,1309.9 1770.68,1314.48 1774.51,1314.99 1778.34,1316.21 1782.17,1317.69 1786.01,1316.43 1789.84,1320.36 1793.67,1318.57 1797.51,1318.28 
  1801.34,1319.19 1805.17,1317.75 1809,1317.83 1812.84,1317.04 1816.67,1317 1820.5,1316.84 1824.34,1316.52 1828.17,1316.05 1832,1315.33 1835.83,1313.8 
  1839.67,1301.49 1843.5,1311.57 1847.33,1317.22 1851.17,1317.26 1855,1319.48 1858.83,1317.87 1862.66,1313.85 1866.5,1317.93 1870.33,1297.44 1874.16,1322.01 
  1878,1305.27 1881.83,1319.53 1885.66,1318.97 1889.49,1314.69 1893.33,1320.91 1897.16,1318.69 1900.99,1315.55 1904.83,1321.31 1908.66,1319.89 1912.49,1319.12 
  1916.32,1313.46 1920.16,1319.65 1923.99,1308.88 1927.82,1316.32 1931.66,1316.94 1935.49,1317.17 1939.32,1317.32 1943.15,1317.41 1946.99,1317.71 1950.82,1318.59 
  1954.65,1313.09 1958.49,1314.6 1962.32,1319.86 1966.15,1299.39 1969.98,1312.55 1973.82,1310.84 1977.65,1314.8 1981.48,1315.11 1985.31,1313.18 1989.15,1315.73 
  1992.98,1310 1996.81,1313.13 2000.65,1313.97 2004.48,1311.38 2008.31,1312.6 2012.14,1312.72 2015.98,1310.84 2019.81,1312.86 2023.64,1313.68 2027.48,1314.35 
  2031.31,1310.42 2035.14,1312.92 2038.97,1308.23 2042.81,1309.34 2046.64,1309.32 2050.47,1311.3 2054.31,1308.97 2058.14,1308.64 2061.97,1308.26 2065.8,1307.82 
  2069.64,1307.41 2073.47,1307.01 2077.3,1307.06 2081.14,1303.81 2084.97,1302.95 2088.8,1307.64 2092.63,1305.07 2096.47,1303.87 2100.3,1302.51 2104.13,1301.87 
  2107.97,1300.96 2111.8,1300.05 2115.63,1300.13 2119.46,1296 2123.3,1294.45 2127.13,1297.29 2130.96,1293.44 2134.8,1291.27 2138.63,1291.12 2142.46,1288.75 
  2146.29,1284.93 2150.13,1289.58 2153.96,1278.45 2157.79,1274.27 2161.63,1269.27 2165.46,1263.87 2169.29,1256.38 2173.12,1247.18 2176.96,1235.19 2180.79,1218.86 
  2184.62,1195.28 2188.45,1158.23 2192.29,1091.56 2196.12,936.058 2199.95,158.463 
  "/>
<polyline clip-path="url(#clip323)" style="stroke:#e26f46; stroke-width:4; stroke-opacity:1; fill:none" stroke-dasharray="16, 10" points="
  420.255,2596.17 420.255,-1112.88 
  "/>
<path clip-path="url(#clip320)" d="
M1613.87 285.644 L2189.86 285.644 L2189.86 164.684 L1613.87 164.684  Z
  " fill="#ffffff" fill-rule="evenodd" fill-opacity="1"/>
<polyline clip-path="url(#clip320)" style="stroke:#000000; stroke-width:4; stroke-opacity:1; fill:none" points="
  1613.87,285.644 2189.86,285.644 2189.86,164.684 1613.87,164.684 1613.87,285.644 
  "/>
<polyline clip-path="url(#clip320)" style="stroke:#e26f46; stroke-width:4; stroke-opacity:1; fill:none" stroke-dasharray="16, 10" points="
  1636.17,225.164 1769.97,225.164 
  "/>
<path clip-path="url(#clip320)" d="M 0 0 M1808.77 206.425 L1808.77 209.967 L1804.7 209.967 Q1802.41 209.967 1801.51 210.893 Q1800.63 211.819 1800.63 214.226 L1800.63 216.518 L1807.64 216.518 L1807.64 219.828 L1800.63 219.828 L1800.63 242.444 L1796.34 242.444 L1796.34 219.828 L1792.27 219.828 L1792.27 216.518 L1796.34 216.518 L1796.34 214.712 Q1796.34 210.384 1798.36 208.416 Q1800.37 206.425 1804.75 206.425 L1808.77 206.425 Z" fill="#000000" fill-rule="evenodd" fill-opacity="1" /><path clip-path="url(#clip320)" d="M 0 0 M1827.36 220.499 Q1826.65 220.083 1825.79 219.898 Q1824.96 219.689 1823.94 219.689 Q1820.33 219.689 1818.38 222.05 Q1816.46 224.388 1816.46 228.786 L1816.46 242.444 L1812.18 242.444 L1812.18 216.518 L1816.46 216.518 L1816.46 220.546 Q1817.8 218.185 1819.96 217.05 Q1822.11 215.893 1825.19 215.893 Q1825.63 215.893 1826.16 215.962 Q1826.69 216.009 1827.34 216.124 L1827.36 220.499 Z" fill="#000000" fill-rule="evenodd" fill-opacity="1" /><path clip-path="url(#clip320)" d="M 0 0 M1852.96 228.416 L1852.96 230.499 L1833.38 230.499 Q1833.66 234.897 1836.02 237.212 Q1838.4 239.504 1842.64 239.504 Q1845.09 239.504 1847.39 238.902 Q1849.7 238.3 1851.97 237.097 L1851.97 241.124 Q1849.68 242.096 1847.27 242.606 Q1844.86 243.115 1842.39 243.115 Q1836.18 243.115 1832.55 239.504 Q1828.94 235.893 1828.94 229.735 Q1828.94 223.37 1832.36 219.643 Q1835.81 215.893 1841.65 215.893 Q1846.88 215.893 1849.91 219.273 Q1852.96 222.629 1852.96 228.416 M1848.71 227.166 Q1848.66 223.671 1846.74 221.587 Q1844.84 219.504 1841.69 219.504 Q1838.13 219.504 1835.97 221.518 Q1833.84 223.532 1833.52 227.189 L1848.71 227.166 Z" fill="#000000" fill-rule="evenodd" fill-opacity="1" /><path clip-path="url(#clip320)" d="M 0 0 M1862.5 229.504 Q1862.5 234.203 1864.42 236.888 Q1866.37 239.55 1869.75 239.55 Q1873.13 239.55 1875.07 236.888 Q1877.02 234.203 1877.02 229.504 Q1877.02 224.805 1875.07 222.143 Q1873.13 219.458 1869.75 219.458 Q1866.37 219.458 1864.42 222.143 Q1862.5 224.805 1862.5 229.504 M1877.02 238.555 Q1875.67 240.87 1873.61 242.004 Q1871.58 243.115 1868.71 243.115 Q1864.01 243.115 1861.04 239.365 Q1858.1 235.615 1858.1 229.504 Q1858.1 223.393 1861.04 219.643 Q1864.01 215.893 1868.71 215.893 Q1871.58 215.893 1873.61 217.027 Q1875.67 218.138 1877.02 220.453 L1877.02 216.518 L1881.27 216.518 L1881.27 252.305 L1877.02 252.305 L1877.02 238.555 Z" fill="#000000" fill-rule="evenodd" fill-opacity="1" /><path clip-path="url(#clip320)" d="M 0 0 M1889.61 232.212 L1889.61 216.518 L1893.87 216.518 L1893.87 232.05 Q1893.87 235.731 1895.3 237.583 Q1896.74 239.411 1899.61 239.411 Q1903.06 239.411 1905.05 237.212 Q1907.06 235.013 1907.06 231.217 L1907.06 216.518 L1911.32 216.518 L1911.32 242.444 L1907.06 242.444 L1907.06 238.462 Q1905.51 240.823 1903.45 241.981 Q1901.41 243.115 1898.71 243.115 Q1894.24 243.115 1891.92 240.337 Q1889.61 237.559 1889.61 232.212 M1900.33 215.893 L1900.33 215.893 Z" fill="#000000" fill-rule="evenodd" fill-opacity="1" /><path clip-path="url(#clip320)" d="M 0 0 M1942.27 228.416 L1942.27 230.499 L1922.69 230.499 Q1922.96 234.897 1925.33 237.212 Q1927.71 239.504 1931.95 239.504 Q1934.4 239.504 1936.69 238.902 Q1939.01 238.3 1941.27 237.097 L1941.27 241.124 Q1938.98 242.096 1936.58 242.606 Q1934.17 243.115 1931.69 243.115 Q1925.49 243.115 1921.85 239.504 Q1918.24 235.893 1918.24 229.735 Q1918.24 223.37 1921.67 219.643 Q1925.12 215.893 1930.95 215.893 Q1936.18 215.893 1939.21 219.273 Q1942.27 222.629 1942.27 228.416 M1938.01 227.166 Q1937.96 223.671 1936.04 221.587 Q1934.14 219.504 1931 219.504 Q1927.43 219.504 1925.28 221.518 Q1923.15 223.532 1922.83 227.189 L1938.01 227.166 Z" fill="#000000" fill-rule="evenodd" fill-opacity="1" /><path clip-path="url(#clip320)" d="M 0 0 M1970.81 226.796 L1970.81 242.444 L1966.55 242.444 L1966.55 226.935 Q1966.55 223.254 1965.12 221.425 Q1963.68 219.597 1960.81 219.597 Q1957.36 219.597 1955.37 221.796 Q1953.38 223.995 1953.38 227.791 L1953.38 242.444 L1949.1 242.444 L1949.1 216.518 L1953.38 216.518 L1953.38 220.546 Q1954.91 218.208 1956.97 217.05 Q1959.05 215.893 1961.76 215.893 Q1966.23 215.893 1968.52 218.671 Q1970.81 221.425 1970.81 226.796 Z" fill="#000000" fill-rule="evenodd" fill-opacity="1" /><path clip-path="url(#clip320)" d="M 0 0 M1997.96 217.513 L1997.96 221.495 Q1996.16 220.499 1994.33 220.013 Q1992.52 219.504 1990.67 219.504 Q1986.53 219.504 1984.24 222.143 Q1981.95 224.759 1981.95 229.504 Q1981.95 234.249 1984.24 236.888 Q1986.53 239.504 1990.67 239.504 Q1992.52 239.504 1994.33 239.018 Q1996.16 238.509 1997.96 237.513 L1997.96 241.448 Q1996.18 242.282 1994.26 242.698 Q1992.36 243.115 1990.21 243.115 Q1984.35 243.115 1980.9 239.434 Q1977.45 235.754 1977.45 229.504 Q1977.45 223.161 1980.93 219.527 Q1984.42 215.893 1990.49 215.893 Q1992.45 215.893 1994.33 216.31 Q1996.2 216.703 1997.96 217.513 Z" fill="#000000" fill-rule="evenodd" fill-opacity="1" /><path clip-path="url(#clip320)" d="M 0 0 M2016.16 244.851 Q2014.35 249.481 2012.64 250.893 Q2010.93 252.305 2008.06 252.305 L2004.65 252.305 L2004.65 248.74 L2007.15 248.74 Q2008.91 248.74 2009.88 247.907 Q2010.86 247.073 2012.04 243.971 L2012.8 242.027 L2002.32 216.518 L2006.83 216.518 L2014.93 236.796 L2023.03 216.518 L2027.55 216.518 L2016.16 244.851 Z" fill="#000000" fill-rule="evenodd" fill-opacity="1" /><path clip-path="url(#clip320)" d="M 0 0 M2065.02 217.282 L2065.02 221.31 Q2063.22 220.384 2061.27 219.921 Q2059.33 219.458 2057.25 219.458 Q2054.07 219.458 2052.48 220.43 Q2050.9 221.402 2050.9 223.347 Q2050.9 224.828 2052.04 225.685 Q2053.17 226.518 2056.6 227.282 L2058.06 227.606 Q2062.59 228.578 2064.49 230.36 Q2066.41 232.12 2066.41 235.291 Q2066.41 238.902 2063.54 241.009 Q2060.69 243.115 2055.69 243.115 Q2053.61 243.115 2051.34 242.698 Q2049.1 242.305 2046.6 241.495 L2046.6 237.097 Q2048.96 238.323 2051.25 238.948 Q2053.54 239.55 2055.79 239.55 Q2058.8 239.55 2060.42 238.532 Q2062.04 237.49 2062.04 235.615 Q2062.04 233.879 2060.86 232.953 Q2059.7 232.027 2055.74 231.171 L2054.26 230.823 Q2050.3 229.99 2048.54 228.277 Q2046.78 226.541 2046.78 223.532 Q2046.78 219.874 2049.38 217.884 Q2051.97 215.893 2056.74 215.893 Q2059.1 215.893 2061.18 216.24 Q2063.26 216.587 2065.02 217.282 Z" fill="#000000" fill-rule="evenodd" fill-opacity="1" /><path clip-path="url(#clip320)" d="M 0 0 M2094.75 226.796 L2094.75 242.444 L2090.49 242.444 L2090.49 226.935 Q2090.49 223.254 2089.05 221.425 Q2087.62 219.597 2084.75 219.597 Q2081.3 219.597 2079.31 221.796 Q2077.32 223.995 2077.32 227.791 L2077.32 242.444 L2073.03 242.444 L2073.03 206.425 L2077.32 206.425 L2077.32 220.546 Q2078.84 218.208 2080.9 217.05 Q2082.99 215.893 2085.69 215.893 Q2090.16 215.893 2092.45 218.671 Q2094.75 221.425 2094.75 226.796 Z" fill="#000000" fill-rule="evenodd" fill-opacity="1" /><path clip-path="url(#clip320)" d="M 0 0 M2103.24 216.518 L2107.5 216.518 L2107.5 242.444 L2103.24 242.444 L2103.24 216.518 M2103.24 206.425 L2107.5 206.425 L2107.5 211.819 L2103.24 211.819 L2103.24 206.425 Z" fill="#000000" fill-rule="evenodd" fill-opacity="1" /><path clip-path="url(#clip320)" d="M 0 0 M2129.54 206.425 L2129.54 209.967 L2125.46 209.967 Q2123.17 209.967 2122.27 210.893 Q2121.39 211.819 2121.39 214.226 L2121.39 216.518 L2128.4 216.518 L2128.4 219.828 L2121.39 219.828 L2121.39 242.444 L2117.11 242.444 L2117.11 219.828 L2113.03 219.828 L2113.03 216.518 L2117.11 216.518 L2117.11 214.712 Q2117.11 210.384 2119.12 208.416 Q2121.13 206.425 2125.51 206.425 L2129.54 206.425 Z" fill="#000000" fill-rule="evenodd" fill-opacity="1" /><path clip-path="url(#clip320)" d="M 0 0 M2136.48 209.157 L2136.48 216.518 L2145.25 216.518 L2145.25 219.828 L2136.48 219.828 L2136.48 233.902 Q2136.48 237.073 2137.34 237.976 Q2138.22 238.879 2140.88 238.879 L2145.25 238.879 L2145.25 242.444 L2140.88 242.444 Q2135.95 242.444 2134.07 240.615 Q2132.2 238.763 2132.2 233.902 L2132.2 219.828 L2129.07 219.828 L2129.07 216.518 L2132.2 216.518 L2132.2 209.157 L2136.48 209.157 Z" fill="#000000" fill-rule="evenodd" fill-opacity="1" /></svg>
