<?xml version="1.0" encoding="utf-8"?>
<svg xmlns="http://www.w3.org/2000/svg" xmlns:xlink="http://www.w3.org/1999/xlink" width="576" height="384" viewBox="0 0 2304 1536">
<defs>
  <clipPath id="clip440">
    <rect x="0" y="0" width="2304" height="1536"/>
  </clipPath>
</defs>
<path clip-path="url(#clip440)" d="
M0 1536 L2304 1536 L2304 0 L0 0  Z
  " fill="#ffffff" fill-rule="evenodd" fill-opacity="1"/>
<defs>
  <clipPath id="clip441">
    <rect x="460" y="0" width="1614" height="1536"/>
  </clipPath>
</defs>
<defs>
  <clipPath id="clip442">
    <rect x="207" y="123" width="2050" height="1241"/>
  </clipPath>
</defs>
<path clip-path="url(#clip440)" d="
M293.777 1363.79 L2256.76 1363.79 L2256.76 123.472 L293.777 123.472  Z
  " fill="#ffffff" fill-rule="evenodd" fill-opacity="1"/>
<defs>
  <clipPath id="clip443">
    <rect x="293" y="123" width="1964" height="1241"/>
  </clipPath>
</defs>
<polyline clip-path="url(#clip443)" style="stroke:#000000; stroke-width:2; stroke-opacity:0.1; fill:none" points="
  349.333,1363.79 349.333,123.472 
  "/>
<polyline clip-path="url(#clip443)" style="stroke:#000000; stroke-width:2; stroke-opacity:0.1; fill:none" points="
  814.159,1363.79 814.159,123.472 
  "/>
<polyline clip-path="url(#clip443)" style="stroke:#000000; stroke-width:2; stroke-opacity:0.1; fill:none" points="
  1278.99,1363.79 1278.99,123.472 
  "/>
<polyline clip-path="url(#clip443)" style="stroke:#000000; stroke-width:2; stroke-opacity:0.1; fill:none" points="
  1743.81,1363.79 1743.81,123.472 
  "/>
<polyline clip-path="url(#clip443)" style="stroke:#000000; stroke-width:2; stroke-opacity:0.1; fill:none" points="
  2208.64,1363.79 2208.64,123.472 
  "/>
<polyline clip-path="url(#clip440)" style="stroke:#000000; stroke-width:4; stroke-opacity:1; fill:none" points="
  293.777,1363.79 2256.76,1363.79 
  "/>
<polyline clip-path="url(#clip440)" style="stroke:#000000; stroke-width:4; stroke-opacity:1; fill:none" points="
  349.333,1363.79 349.333,1348.91 
  "/>
<polyline clip-path="url(#clip440)" style="stroke:#000000; stroke-width:4; stroke-opacity:1; fill:none" points="
  814.159,1363.79 814.159,1348.91 
  "/>
<polyline clip-path="url(#clip440)" style="stroke:#000000; stroke-width:4; stroke-opacity:1; fill:none" points="
  1278.99,1363.79 1278.99,1348.91 
  "/>
<polyline clip-path="url(#clip440)" style="stroke:#000000; stroke-width:4; stroke-opacity:1; fill:none" points="
  1743.81,1363.79 1743.81,1348.91 
  "/>
<polyline clip-path="url(#clip440)" style="stroke:#000000; stroke-width:4; stroke-opacity:1; fill:none" points="
  2208.64,1363.79 2208.64,1348.91 
  "/>
<path clip-path="url(#clip440)" d="M 0 0 M326.718 1392.21 Q323.107 1392.21 321.278 1395.78 Q319.472 1399.32 319.472 1406.45 Q319.472 1413.56 321.278 1417.12 Q323.107 1420.66 326.718 1420.66 Q330.352 1420.66 332.158 1417.12 Q333.986 1413.56 333.986 1406.45 Q333.986 1399.32 332.158 1395.78 Q330.352 1392.21 326.718 1392.21 M326.718 1388.51 Q332.528 1388.51 335.583 1393.12 Q338.662 1397.7 338.662 1406.45 Q338.662 1415.18 335.583 1419.78 Q332.528 1424.37 326.718 1424.37 Q320.908 1424.37 317.829 1419.78 Q314.773 1415.18 314.773 1406.45 Q314.773 1397.7 317.829 1393.12 Q320.908 1388.51 326.718 1388.51 Z" fill="#000000" fill-rule="evenodd" fill-opacity="1" /><path clip-path="url(#clip440)" d="M 0 0 M346.88 1417.81 L351.764 1417.81 L351.764 1423.69 L346.88 1423.69 L346.88 1417.81 Z" fill="#000000" fill-rule="evenodd" fill-opacity="1" /><path clip-path="url(#clip440)" d="M 0 0 M371.949 1392.21 Q368.338 1392.21 366.509 1395.78 Q364.704 1399.32 364.704 1406.45 Q364.704 1413.56 366.509 1417.12 Q368.338 1420.66 371.949 1420.66 Q375.583 1420.66 377.389 1417.12 Q379.217 1413.56 379.217 1406.45 Q379.217 1399.32 377.389 1395.78 Q375.583 1392.21 371.949 1392.21 M371.949 1388.51 Q377.759 1388.51 380.815 1393.12 Q383.893 1397.7 383.893 1406.45 Q383.893 1415.18 380.815 1419.78 Q377.759 1424.37 371.949 1424.37 Q366.139 1424.37 363.06 1419.78 Q360.005 1415.18 360.005 1406.45 Q360.005 1397.7 363.06 1393.12 Q366.139 1388.51 371.949 1388.51 Z" fill="#000000" fill-rule="evenodd" fill-opacity="1" /><path clip-path="url(#clip440)" d="M 0 0 M785.896 1419.76 L802.215 1419.76 L802.215 1423.69 L780.271 1423.69 L780.271 1419.76 Q782.933 1417 787.516 1412.37 Q792.122 1407.72 793.303 1406.38 Q795.548 1403.86 796.428 1402.12 Q797.331 1400.36 797.331 1398.67 Q797.331 1395.92 795.386 1394.18 Q793.465 1392.44 790.363 1392.44 Q788.164 1392.44 785.71 1393.21 Q783.28 1393.97 780.502 1395.52 L780.502 1390.8 Q783.326 1389.67 785.78 1389.09 Q788.234 1388.51 790.271 1388.51 Q795.641 1388.51 798.835 1391.19 Q802.03 1393.88 802.03 1398.37 Q802.03 1400.5 801.22 1402.42 Q800.433 1404.32 798.326 1406.91 Q797.747 1407.58 794.646 1410.8 Q791.544 1413.99 785.896 1419.76 Z" fill="#000000" fill-rule="evenodd" fill-opacity="1" /><path clip-path="url(#clip440)" d="M 0 0 M812.03 1417.81 L816.914 1417.81 L816.914 1423.69 L812.03 1423.69 L812.03 1417.81 Z" fill="#000000" fill-rule="evenodd" fill-opacity="1" /><path clip-path="url(#clip440)" d="M 0 0 M827.145 1389.13 L845.502 1389.13 L845.502 1393.07 L831.428 1393.07 L831.428 1401.54 Q832.446 1401.19 833.465 1401.03 Q834.483 1400.85 835.502 1400.85 Q841.289 1400.85 844.668 1404.02 Q848.048 1407.19 848.048 1412.61 Q848.048 1418.18 844.576 1421.29 Q841.104 1424.37 834.784 1424.37 Q832.608 1424.37 830.34 1423.99 Q828.094 1423.62 825.687 1422.88 L825.687 1418.18 Q827.77 1419.32 829.993 1419.87 Q832.215 1420.43 834.692 1420.43 Q838.696 1420.43 841.034 1418.32 Q843.372 1416.22 843.372 1412.61 Q843.372 1408.99 841.034 1406.89 Q838.696 1404.78 834.692 1404.78 Q832.817 1404.78 830.942 1405.2 Q829.09 1405.62 827.145 1406.49 L827.145 1389.13 Z" fill="#000000" fill-rule="evenodd" fill-opacity="1" /><path clip-path="url(#clip440)" d="M 0 0 M1246.15 1389.13 L1264.51 1389.13 L1264.51 1393.07 L1250.43 1393.07 L1250.43 1401.54 Q1251.45 1401.19 1252.47 1401.03 Q1253.49 1400.85 1254.51 1400.85 Q1260.29 1400.85 1263.67 1404.02 Q1267.05 1407.19 1267.05 1412.61 Q1267.05 1418.18 1263.58 1421.29 Q1260.11 1424.37 1253.79 1424.37 Q1251.61 1424.37 1249.34 1423.99 Q1247.1 1423.62 1244.69 1422.88 L1244.69 1418.18 Q1246.77 1419.32 1249 1419.87 Q1251.22 1420.43 1253.7 1420.43 Q1257.7 1420.43 1260.04 1418.32 Q1262.38 1416.22 1262.38 1412.61 Q1262.38 1408.99 1260.04 1406.89 Q1257.7 1404.78 1253.7 1404.78 Q1251.82 1404.78 1249.95 1405.2 Q1248.09 1405.62 1246.15 1406.49 L1246.15 1389.13 Z" fill="#000000" fill-rule="evenodd" fill-opacity="1" /><path clip-path="url(#clip440)" d="M 0 0 M1276.27 1417.81 L1281.15 1417.81 L1281.15 1423.69 L1276.27 1423.69 L1276.27 1417.81 Z" fill="#000000" fill-rule="evenodd" fill-opacity="1" /><path clip-path="url(#clip440)" d="M 0 0 M1301.33 1392.21 Q1297.72 1392.21 1295.89 1395.78 Q1294.09 1399.32 1294.09 1406.45 Q1294.09 1413.56 1295.89 1417.12 Q1297.72 1420.66 1301.33 1420.66 Q1304.97 1420.66 1306.77 1417.12 Q1308.6 1413.56 1308.6 1406.45 Q1308.6 1399.32 1306.77 1395.78 Q1304.97 1392.21 1301.33 1392.21 M1301.33 1388.51 Q1307.14 1388.51 1310.2 1393.12 Q1313.28 1397.7 1313.28 1406.45 Q1313.28 1415.18 1310.2 1419.78 Q1307.14 1424.37 1301.33 1424.37 Q1295.52 1424.37 1292.45 1419.78 Q1289.39 1415.18 1289.39 1406.45 Q1289.39 1397.7 1292.45 1393.12 Q1295.52 1388.51 1301.33 1388.51 Z" fill="#000000" fill-rule="evenodd" fill-opacity="1" /><path clip-path="url(#clip440)" d="M 0 0 M1710.13 1389.13 L1732.35 1389.13 L1732.35 1391.12 L1719.81 1423.69 L1714.92 1423.69 L1726.73 1393.07 L1710.13 1393.07 L1710.13 1389.13 Z" fill="#000000" fill-rule="evenodd" fill-opacity="1" /><path clip-path="url(#clip440)" d="M 0 0 M1741.47 1417.81 L1746.36 1417.81 L1746.36 1423.69 L1741.47 1423.69 L1741.47 1417.81 Z" fill="#000000" fill-rule="evenodd" fill-opacity="1" /><path clip-path="url(#clip440)" d="M 0 0 M1756.59 1389.13 L1774.95 1389.13 L1774.95 1393.07 L1760.87 1393.07 L1760.87 1401.54 Q1761.89 1401.19 1762.91 1401.03 Q1763.93 1400.85 1764.95 1400.85 Q1770.73 1400.85 1774.11 1404.02 Q1777.49 1407.19 1777.49 1412.61 Q1777.49 1418.18 1774.02 1421.29 Q1770.55 1424.37 1764.23 1424.37 Q1762.05 1424.37 1759.78 1423.99 Q1757.54 1423.62 1755.13 1422.88 L1755.13 1418.18 Q1757.21 1419.32 1759.44 1419.87 Q1761.66 1420.43 1764.14 1420.43 Q1768.14 1420.43 1770.48 1418.32 Q1772.82 1416.22 1772.82 1412.61 Q1772.82 1408.99 1770.48 1406.89 Q1768.14 1404.78 1764.14 1404.78 Q1762.26 1404.78 1760.39 1405.2 Q1758.53 1405.62 1756.59 1406.49 L1756.59 1389.13 Z" fill="#000000" fill-rule="evenodd" fill-opacity="1" /><path clip-path="url(#clip440)" d="M 0 0 M2160.71 1419.76 L2168.35 1419.76 L2168.35 1393.39 L2160.04 1395.06 L2160.04 1390.8 L2168.3 1389.13 L2172.98 1389.13 L2172.98 1419.76 L2180.62 1419.76 L2180.62 1423.69 L2160.71 1423.69 L2160.71 1419.76 Z" fill="#000000" fill-rule="evenodd" fill-opacity="1" /><path clip-path="url(#clip440)" d="M 0 0 M2200.06 1392.21 Q2196.45 1392.21 2194.62 1395.78 Q2192.82 1399.32 2192.82 1406.45 Q2192.82 1413.56 2194.62 1417.12 Q2196.45 1420.66 2200.06 1420.66 Q2203.7 1420.66 2205.5 1417.12 Q2207.33 1413.56 2207.33 1406.45 Q2207.33 1399.32 2205.5 1395.78 Q2203.7 1392.21 2200.06 1392.21 M2200.06 1388.51 Q2205.87 1388.51 2208.93 1393.12 Q2212.01 1397.7 2212.01 1406.45 Q2212.01 1415.18 2208.93 1419.78 Q2205.87 1424.37 2200.06 1424.37 Q2194.25 1424.37 2191.17 1419.78 Q2188.12 1415.18 2188.12 1406.45 Q2188.12 1397.7 2191.17 1393.12 Q2194.25 1388.51 2200.06 1388.51 Z" fill="#000000" fill-rule="evenodd" fill-opacity="1" /><path clip-path="url(#clip440)" d="M 0 0 M2220.22 1417.81 L2225.11 1417.81 L2225.11 1423.69 L2220.22 1423.69 L2220.22 1417.81 Z" fill="#000000" fill-rule="evenodd" fill-opacity="1" /><path clip-path="url(#clip440)" d="M 0 0 M2245.29 1392.21 Q2241.68 1392.21 2239.85 1395.78 Q2238.05 1399.32 2238.05 1406.45 Q2238.05 1413.56 2239.85 1417.12 Q2241.68 1420.66 2245.29 1420.66 Q2248.93 1420.66 2250.73 1417.12 Q2252.56 1413.56 2252.56 1406.45 Q2252.56 1399.32 2250.73 1395.78 Q2248.93 1392.21 2245.29 1392.21 M2245.29 1388.51 Q2251.1 1388.51 2254.16 1393.12 Q2257.24 1397.7 2257.24 1406.45 Q2257.24 1415.18 2254.16 1419.78 Q2251.1 1424.37 2245.29 1424.37 Q2239.48 1424.37 2236.4 1419.78 Q2233.35 1415.18 2233.35 1406.45 Q2233.35 1397.7 2236.4 1393.12 Q2239.48 1388.51 2245.29 1388.51 Z" fill="#000000" fill-rule="evenodd" fill-opacity="1" /><path clip-path="url(#clip440)" d="M 0 0 M1225.8 1465.79 Q1225.8 1468.04 1222.55 1468.04 L1211.47 1468.04 L1207.05 1490.62 Q1206.96 1491.2 1206.83 1491.52 Q1206.73 1491.84 1206.44 1492.39 Q1206.18 1492.9 1205.64 1493.16 Q1205.12 1493.45 1204.35 1493.45 Q1203.38 1493.45 1202.9 1492.87 Q1202.45 1492.33 1202.45 1491.65 Q1202.45 1491.23 1203.09 1489.23 L1209.57 1468.04 L1204.09 1468.04 Q1198.94 1468.04 1195.72 1473.13 Q1195.2 1473.81 1194.91 1473.87 Q1194.78 1473.9 1194.65 1473.9 Q1194.3 1473.9 1194.08 1473.74 Q1193.88 1473.58 1193.88 1473.42 L1193.85 1473.26 Q1193.85 1473.03 1194.36 1472.13 Q1194.91 1471.2 1195.88 1469.81 Q1196.88 1468.43 1197.88 1467.33 Q1199.2 1465.92 1200.68 1465.18 Q1202.16 1464.4 1202.9 1464.31 Q1203.67 1464.21 1204.67 1464.21 L1223.16 1464.21 Q1223.99 1464.21 1224.45 1464.27 Q1224.9 1464.31 1225.35 1464.69 Q1225.8 1465.05 1225.8 1465.79 Z" fill="#000000" fill-rule="evenodd" fill-opacity="1" /><path clip-path="url(#clip440)" d="M 0 0 M1244.09 1476.16 Q1244.09 1465.01 1248.24 1456.03 Q1250.01 1452.26 1252.49 1449.11 Q1254.97 1445.95 1256.62 1444.56 Q1258.26 1443.18 1258.71 1443.18 Q1259.35 1443.18 1259.39 1443.82 Q1259.39 1444.15 1258.52 1444.95 Q1247.89 1455.77 1247.92 1476.16 Q1247.92 1496.61 1258.26 1507.01 Q1259.39 1508.14 1259.39 1508.49 Q1259.39 1509.14 1258.71 1509.14 Q1258.26 1509.14 1256.68 1507.82 Q1255.1 1506.5 1252.65 1503.47 Q1250.21 1500.44 1248.44 1496.74 Q1244.09 1487.75 1244.09 1476.16 Z" fill="#000000" fill-rule="evenodd" fill-opacity="1" /><path clip-path="url(#clip440)" d="M 0 0 M1269.41 1492.65 L1269.41 1490.62 Q1272.92 1490.62 1273.73 1490.2 Q1274.53 1489.75 1274.53 1487.62 L1274.53 1469.94 Q1274.53 1467.49 1273.66 1466.88 Q1272.83 1466.27 1269.41 1466.27 L1269.41 1464.21 L1278.69 1463.5 L1278.69 1470.43 Q1281.78 1463.5 1288.45 1463.5 Q1293.41 1463.5 1295.37 1465.95 Q1296.82 1467.59 1297.11 1469.43 Q1297.43 1471.26 1297.43 1476.03 L1297.43 1488.62 Q1297.5 1490.01 1298.56 1490.33 Q1299.62 1490.62 1302.59 1490.62 L1302.59 1492.65 Q1295.85 1492.45 1295.18 1492.45 Q1294.66 1492.45 1287.74 1492.65 L1287.74 1490.62 Q1291.25 1490.62 1292.05 1490.2 Q1292.89 1489.75 1292.89 1487.62 L1292.89 1472.26 Q1292.89 1468.91 1291.86 1466.95 Q1290.83 1464.95 1288 1464.95 Q1284.58 1464.95 1281.84 1467.82 Q1279.11 1470.68 1279.11 1475.51 L1279.11 1487.62 Q1279.11 1489.75 1279.91 1490.2 Q1280.75 1490.62 1284.23 1490.62 L1284.23 1492.65 Q1277.5 1492.45 1276.85 1492.45 Q1276.34 1492.45 1269.41 1492.65 Z" fill="#000000" fill-rule="evenodd" fill-opacity="1" /><path clip-path="url(#clip440)" d="M 0 0 M1305.65 1491.78 L1305.65 1483.08 Q1305.65 1482.34 1305.68 1482.08 Q1305.71 1481.83 1305.91 1481.63 Q1306.1 1481.44 1306.49 1481.44 Q1306.94 1481.44 1307.1 1481.63 Q1307.29 1481.83 1307.42 1482.57 Q1308.42 1487.11 1310.54 1489.52 Q1312.7 1491.91 1316.6 1491.91 Q1320.3 1491.91 1322.17 1490.26 Q1324.04 1488.62 1324.04 1485.92 Q1324.04 1481.09 1317.18 1479.86 Q1313.22 1479.06 1311.57 1478.54 Q1309.93 1477.99 1308.48 1476.8 Q1305.65 1474.48 1305.65 1471.2 Q1305.65 1467.91 1308.13 1465.5 Q1310.64 1463.08 1316.18 1463.08 Q1319.88 1463.08 1322.4 1464.95 Q1323.14 1464.37 1323.52 1463.89 Q1324.39 1463.08 1324.84 1463.08 Q1325.36 1463.08 1325.46 1463.44 Q1325.55 1463.76 1325.55 1464.69 L1325.55 1471.33 Q1325.55 1472.07 1325.52 1472.33 Q1325.49 1472.58 1325.29 1472.78 Q1325.1 1472.94 1324.68 1472.94 Q1323.94 1472.94 1323.91 1472.33 Q1323.39 1464.34 1316.18 1464.34 Q1312.28 1464.34 1310.54 1465.85 Q1308.8 1467.33 1308.8 1469.36 Q1308.8 1470.49 1309.32 1471.36 Q1309.87 1472.2 1310.54 1472.71 Q1311.25 1473.2 1312.54 1473.68 Q1313.83 1474.13 1314.6 1474.29 Q1315.41 1474.45 1316.92 1474.77 Q1322.2 1475.77 1324.42 1477.93 Q1327.19 1480.7 1327.19 1484.21 Q1327.19 1488.11 1324.55 1490.75 Q1321.91 1493.39 1316.6 1493.39 Q1312.32 1493.39 1309.32 1490.52 Q1308.93 1490.91 1308.64 1491.26 Q1308.35 1491.58 1308.22 1491.71 Q1308.13 1491.84 1308.1 1491.94 Q1308.06 1492 1308 1492.07 Q1306.68 1493.39 1306.36 1493.39 Q1305.84 1493.39 1305.75 1493.03 Q1305.65 1492.71 1305.65 1491.78 Z" fill="#000000" fill-rule="evenodd" fill-opacity="1" /><path clip-path="url(#clip440)" d="M 0 0 M1331.36 1508.49 Q1331.36 1508.17 1332.19 1507.37 Q1342.82 1496.54 1342.82 1476.16 Q1342.82 1455.71 1332.61 1445.37 Q1331.36 1444.18 1331.36 1443.82 Q1331.36 1443.18 1332 1443.18 Q1332.45 1443.18 1334.03 1444.5 Q1335.64 1445.82 1338.06 1448.85 Q1340.5 1451.87 1342.31 1455.58 Q1346.66 1464.56 1346.66 1476.16 Q1346.66 1487.3 1342.5 1496.29 Q1340.73 1500.05 1338.25 1503.21 Q1335.77 1506.37 1334.13 1507.75 Q1332.48 1509.14 1332 1509.14 Q1331.36 1509.14 1331.36 1508.49 Z" fill="#000000" fill-rule="evenodd" fill-opacity="1" /><polyline clip-path="url(#clip443)" style="stroke:#000000; stroke-width:2; stroke-opacity:0.1; fill:none" points="
  293.777,1207.78 2256.76,1207.78 
  "/>
<polyline clip-path="url(#clip443)" style="stroke:#000000; stroke-width:2; stroke-opacity:0.1; fill:none" points="
  293.777,1018.6 2256.76,1018.6 
  "/>
<polyline clip-path="url(#clip443)" style="stroke:#000000; stroke-width:2; stroke-opacity:0.1; fill:none" points="
  293.777,829.413 2256.76,829.413 
  "/>
<polyline clip-path="url(#clip443)" style="stroke:#000000; stroke-width:2; stroke-opacity:0.1; fill:none" points="
  293.777,640.23 2256.76,640.23 
  "/>
<polyline clip-path="url(#clip443)" style="stroke:#000000; stroke-width:2; stroke-opacity:0.1; fill:none" points="
  293.777,451.047 2256.76,451.047 
  "/>
<polyline clip-path="url(#clip443)" style="stroke:#000000; stroke-width:2; stroke-opacity:0.1; fill:none" points="
  293.777,261.863 2256.76,261.863 
  "/>
<polyline clip-path="url(#clip440)" style="stroke:#000000; stroke-width:4; stroke-opacity:1; fill:none" points="
  293.777,1363.79 293.777,123.472 
  "/>
<polyline clip-path="url(#clip440)" style="stroke:#000000; stroke-width:4; stroke-opacity:1; fill:none" points="
  293.777,1207.78 317.333,1207.78 
  "/>
<polyline clip-path="url(#clip440)" style="stroke:#000000; stroke-width:4; stroke-opacity:1; fill:none" points="
  293.777,1018.6 317.333,1018.6 
  "/>
<polyline clip-path="url(#clip440)" style="stroke:#000000; stroke-width:4; stroke-opacity:1; fill:none" points="
  293.777,829.413 317.333,829.413 
  "/>
<polyline clip-path="url(#clip440)" style="stroke:#000000; stroke-width:4; stroke-opacity:1; fill:none" points="
  293.777,640.23 317.333,640.23 
  "/>
<polyline clip-path="url(#clip440)" style="stroke:#000000; stroke-width:4; stroke-opacity:1; fill:none" points="
  293.777,451.047 317.333,451.047 
  "/>
<polyline clip-path="url(#clip440)" style="stroke:#000000; stroke-width:4; stroke-opacity:1; fill:none" points="
  293.777,261.863 317.333,261.863 
  "/>
<path clip-path="url(#clip440)" d="M 0 0 M217.69 1205.92 Q214.542 1205.92 212.69 1208.07 Q210.861 1210.22 210.861 1213.97 Q210.861 1217.7 212.69 1219.87 Q214.542 1222.03 217.69 1222.03 Q220.838 1222.03 222.667 1219.87 Q224.518 1217.7 224.518 1213.97 Q224.518 1210.22 222.667 1208.07 Q220.838 1205.92 217.69 1205.92 M226.972 1191.26 L226.972 1195.52 Q225.213 1194.69 223.407 1194.25 Q221.625 1193.81 219.866 1193.81 Q215.236 1193.81 212.782 1196.93 Q210.352 1200.06 210.005 1206.38 Q211.37 1204.37 213.431 1203.3 Q215.491 1202.21 217.968 1202.21 Q223.176 1202.21 226.185 1205.38 Q229.218 1208.53 229.218 1213.97 Q229.218 1219.3 226.069 1222.51 Q222.921 1225.73 217.69 1225.73 Q211.694 1225.73 208.523 1221.15 Q205.352 1216.54 205.352 1207.81 Q205.352 1199.62 209.241 1194.76 Q213.13 1189.87 219.681 1189.87 Q221.44 1189.87 223.222 1190.22 Q225.028 1190.57 226.972 1191.26 Z" fill="#000000" fill-rule="evenodd" fill-opacity="1" /><path clip-path="url(#clip440)" d="M 0 0 M247.273 1193.58 Q243.662 1193.58 241.833 1197.14 Q240.028 1200.68 240.028 1207.81 Q240.028 1214.92 241.833 1218.49 Q243.662 1222.03 247.273 1222.03 Q250.907 1222.03 252.713 1218.49 Q254.541 1214.92 254.541 1207.81 Q254.541 1200.68 252.713 1197.14 Q250.907 1193.58 247.273 1193.58 M247.273 1189.87 Q253.083 1189.87 256.139 1194.48 Q259.217 1199.06 259.217 1207.81 Q259.217 1216.54 256.139 1221.15 Q253.083 1225.73 247.273 1225.73 Q241.463 1225.73 238.384 1221.15 Q235.329 1216.54 235.329 1207.81 Q235.329 1199.06 238.384 1194.48 Q241.463 1189.87 247.273 1189.87 Z" fill="#000000" fill-rule="evenodd" fill-opacity="1" /><path clip-path="url(#clip440)" d="M 0 0 M205.931 1001.32 L228.153 1001.32 L228.153 1003.31 L215.606 1035.88 L210.722 1035.88 L222.528 1005.25 L205.931 1005.25 L205.931 1001.32 Z" fill="#000000" fill-rule="evenodd" fill-opacity="1" /><path clip-path="url(#clip440)" d="M 0 0 M247.273 1004.4 Q243.662 1004.4 241.833 1007.96 Q240.028 1011.5 240.028 1018.63 Q240.028 1025.74 241.833 1029.3 Q243.662 1032.84 247.273 1032.84 Q250.907 1032.84 252.713 1029.3 Q254.541 1025.74 254.541 1018.63 Q254.541 1011.5 252.713 1007.96 Q250.907 1004.4 247.273 1004.4 M247.273 1000.69 Q253.083 1000.69 256.139 1005.3 Q259.217 1009.88 259.217 1018.63 Q259.217 1027.36 256.139 1031.96 Q253.083 1036.55 247.273 1036.55 Q241.463 1036.55 238.384 1031.96 Q235.329 1027.36 235.329 1018.63 Q235.329 1009.88 238.384 1005.3 Q241.463 1000.69 247.273 1000.69 Z" fill="#000000" fill-rule="evenodd" fill-opacity="1" /><path clip-path="url(#clip440)" d="M 0 0 M217.111 830.281 Q213.778 830.281 211.856 832.064 Q209.958 833.846 209.958 836.971 Q209.958 840.096 211.856 841.878 Q213.778 843.661 217.111 843.661 Q220.444 843.661 222.366 841.878 Q224.287 840.073 224.287 836.971 Q224.287 833.846 222.366 832.064 Q220.468 830.281 217.111 830.281 M212.435 828.29 Q209.426 827.55 207.736 825.49 Q206.069 823.429 206.069 820.466 Q206.069 816.323 209.009 813.916 Q211.972 811.508 217.111 811.508 Q222.273 811.508 225.213 813.916 Q228.153 816.323 228.153 820.466 Q228.153 823.429 226.463 825.49 Q224.796 827.55 221.81 828.29 Q225.19 829.077 227.065 831.369 Q228.963 833.661 228.963 836.971 Q228.963 841.994 225.884 844.679 Q222.829 847.364 217.111 847.364 Q211.394 847.364 208.315 844.679 Q205.259 841.994 205.259 836.971 Q205.259 833.661 207.157 831.369 Q209.056 829.077 212.435 828.29 M210.722 820.906 Q210.722 823.591 212.389 825.096 Q214.079 826.601 217.111 826.601 Q220.12 826.601 221.81 825.096 Q223.523 823.591 223.523 820.906 Q223.523 818.221 221.81 816.716 Q220.12 815.212 217.111 815.212 Q214.079 815.212 212.389 816.716 Q210.722 818.221 210.722 820.906 Z" fill="#000000" fill-rule="evenodd" fill-opacity="1" /><path clip-path="url(#clip440)" d="M 0 0 M247.273 815.212 Q243.662 815.212 241.833 818.777 Q240.028 822.318 240.028 829.448 Q240.028 836.554 241.833 840.119 Q243.662 843.661 247.273 843.661 Q250.907 843.661 252.713 840.119 Q254.541 836.554 254.541 829.448 Q254.541 822.318 252.713 818.777 Q250.907 815.212 247.273 815.212 M247.273 811.508 Q253.083 811.508 256.139 816.115 Q259.217 820.698 259.217 829.448 Q259.217 838.175 256.139 842.781 Q253.083 847.364 247.273 847.364 Q241.463 847.364 238.384 842.781 Q235.329 838.175 235.329 829.448 Q235.329 820.698 238.384 816.115 Q241.463 811.508 247.273 811.508 Z" fill="#000000" fill-rule="evenodd" fill-opacity="1" /><path clip-path="url(#clip440)" d="M 0 0 M207.25 656.792 L207.25 652.533 Q209.009 653.366 210.815 653.806 Q212.62 654.246 214.356 654.246 Q218.986 654.246 221.417 651.144 Q223.87 648.019 224.218 641.677 Q222.875 643.667 220.815 644.732 Q218.755 645.797 216.255 645.797 Q211.069 645.797 208.037 642.672 Q205.028 639.524 205.028 634.084 Q205.028 628.76 208.176 625.542 Q211.324 622.325 216.556 622.325 Q222.551 622.325 225.699 626.931 Q228.87 631.515 228.87 640.265 Q228.87 648.436 224.981 653.32 Q221.116 658.181 214.565 658.181 Q212.806 658.181 211 657.834 Q209.194 657.487 207.25 656.792 M216.556 642.14 Q219.704 642.14 221.532 639.987 Q223.384 637.834 223.384 634.084 Q223.384 630.357 221.532 628.204 Q219.704 626.029 216.556 626.029 Q213.407 626.029 211.556 628.204 Q209.727 630.357 209.727 634.084 Q209.727 637.834 211.556 639.987 Q213.407 642.14 216.556 642.14 Z" fill="#000000" fill-rule="evenodd" fill-opacity="1" /><path clip-path="url(#clip440)" d="M 0 0 M247.273 626.029 Q243.662 626.029 241.833 629.593 Q240.028 633.135 240.028 640.265 Q240.028 647.371 241.833 650.936 Q243.662 654.477 247.273 654.477 Q250.907 654.477 252.713 650.936 Q254.541 647.371 254.541 640.265 Q254.541 633.135 252.713 629.593 Q250.907 626.029 247.273 626.029 M247.273 622.325 Q253.083 622.325 256.139 626.931 Q259.217 631.515 259.217 640.265 Q259.217 648.991 256.139 653.598 Q253.083 658.181 247.273 658.181 Q241.463 658.181 238.384 653.598 Q235.329 648.991 235.329 640.265 Q235.329 631.515 238.384 626.931 Q241.463 622.325 247.273 622.325 Z" fill="#000000" fill-rule="evenodd" fill-opacity="1" /><path clip-path="url(#clip440)" d="M 0 0 M177.759 464.391 L185.398 464.391 L185.398 438.026 L177.088 439.692 L177.088 435.433 L185.352 433.767 L190.028 433.767 L190.028 464.391 L197.667 464.391 L197.667 468.327 L177.759 468.327 L177.759 464.391 Z" fill="#000000" fill-rule="evenodd" fill-opacity="1" /><path clip-path="url(#clip440)" d="M 0 0 M217.111 436.845 Q213.5 436.845 211.671 440.41 Q209.866 443.952 209.866 451.081 Q209.866 458.188 211.671 461.753 Q213.5 465.294 217.111 465.294 Q220.745 465.294 222.551 461.753 Q224.38 458.188 224.38 451.081 Q224.38 443.952 222.551 440.41 Q220.745 436.845 217.111 436.845 M217.111 433.142 Q222.921 433.142 225.977 437.748 Q229.055 442.331 229.055 451.081 Q229.055 459.808 225.977 464.415 Q222.921 468.998 217.111 468.998 Q211.301 468.998 208.222 464.415 Q205.167 459.808 205.167 451.081 Q205.167 442.331 208.222 437.748 Q211.301 433.142 217.111 433.142 Z" fill="#000000" fill-rule="evenodd" fill-opacity="1" /><path clip-path="url(#clip440)" d="M 0 0 M247.273 436.845 Q243.662 436.845 241.833 440.41 Q240.028 443.952 240.028 451.081 Q240.028 458.188 241.833 461.753 Q243.662 465.294 247.273 465.294 Q250.907 465.294 252.713 461.753 Q254.541 458.188 254.541 451.081 Q254.541 443.952 252.713 440.41 Q250.907 436.845 247.273 436.845 M247.273 433.142 Q253.083 433.142 256.139 437.748 Q259.217 442.331 259.217 451.081 Q259.217 459.808 256.139 464.415 Q253.083 468.998 247.273 468.998 Q241.463 468.998 238.384 464.415 Q235.329 459.808 235.329 451.081 Q235.329 442.331 238.384 437.748 Q241.463 433.142 247.273 433.142 Z" fill="#000000" fill-rule="evenodd" fill-opacity="1" /><path clip-path="url(#clip440)" d="M 0 0 M177.759 275.208 L185.398 275.208 L185.398 248.843 L177.088 250.509 L177.088 246.25 L185.352 244.583 L190.028 244.583 L190.028 275.208 L197.667 275.208 L197.667 279.143 L177.759 279.143 L177.759 275.208 Z" fill="#000000" fill-rule="evenodd" fill-opacity="1" /><path clip-path="url(#clip440)" d="M 0 0 M207.921 275.208 L215.56 275.208 L215.56 248.843 L207.25 250.509 L207.25 246.25 L215.514 244.583 L220.19 244.583 L220.19 275.208 L227.829 275.208 L227.829 279.143 L207.921 279.143 L207.921 275.208 Z" fill="#000000" fill-rule="evenodd" fill-opacity="1" /><path clip-path="url(#clip440)" d="M 0 0 M247.273 247.662 Q243.662 247.662 241.833 251.227 Q240.028 254.768 240.028 261.898 Q240.028 269.004 241.833 272.569 Q243.662 276.111 247.273 276.111 Q250.907 276.111 252.713 272.569 Q254.541 269.004 254.541 261.898 Q254.541 254.768 252.713 251.227 Q250.907 247.662 247.273 247.662 M247.273 243.958 Q253.083 243.958 256.139 248.565 Q259.217 253.148 259.217 261.898 Q259.217 270.625 256.139 275.231 Q253.083 279.815 247.273 279.815 Q241.463 279.815 238.384 275.231 Q235.329 270.625 235.329 261.898 Q235.329 253.148 238.384 248.565 Q241.463 243.958 247.273 243.958 Z" fill="#000000" fill-rule="evenodd" fill-opacity="1" /><path clip-path="url(#clip440)" d="M 0 0 M96.5483 796.326 L112.973 801.994 L112.973 856.679 Q112.973 857.42 112.941 857.71 Q112.909 858 112.748 858.225 Q112.587 858.451 112.233 858.451 Q111.943 858.451 111.202 857.871 L82.2489 834.457 L49.1412 858.515 Q47.6276 858.515 47.3377 858.257 Q47.0157 858 47.0157 856.679 L47.0157 801.994 L62.4423 796.326 L62.4423 797.968 Q60.4455 798.709 58.7708 799.9 Q57.0639 801.06 55.8401 802.412 Q54.6162 803.733 53.6501 805.472 Q52.6517 807.179 52.0398 808.789 Q51.3957 810.367 50.9448 812.332 Q50.4617 814.296 50.2362 815.874 Q49.9786 817.42 49.8498 819.353 Q49.7209 821.285 49.6887 822.509 Q49.6565 823.733 49.6565 825.279 L49.6565 851.398 L79.0605 829.981 Q79.8012 829.498 79.9945 829.498 Q80.2843 829.498 81.0572 830.109 L109.334 852.976 L109.334 824.957 Q109.334 815.939 107.434 809.659 Q105.985 805.408 103.118 802.316 Q100.252 799.192 96.5483 797.968 L96.5483 796.326 Z" fill="#000000" fill-rule="evenodd" fill-opacity="1" /><path clip-path="url(#clip440)" d="M 0 0 M129.637 869.523 Q130.629 869.523 131.373 870.334 Q132.095 871.123 132.095 871.98 Q132.095 872.769 131.621 873.265 Q131.125 873.738 130.426 873.738 Q129.502 873.738 128.736 872.949 Q127.969 872.16 127.969 871.236 Q127.969 870.469 128.443 869.996 Q128.916 869.523 129.637 869.523 M151.888 869.117 Q152.069 869.117 152.79 869.32 Q153.489 869.523 154.571 870.018 Q155.631 870.492 156.623 871.146 Q157.615 871.799 158.314 872.882 Q159.012 873.941 159.012 875.159 Q159.012 876.804 157.93 877.886 Q156.848 878.946 155.225 878.946 Q154.346 878.946 151.528 877.886 Q143.322 874.82 142.984 874.708 Q141.699 874.189 140.571 874.189 Q140.053 874.189 139.737 874.302 Q139.399 874.415 139.286 874.64 Q139.151 874.865 139.128 875.001 Q139.106 875.113 139.106 875.339 Q139.106 876.669 140.459 877.909 Q141.811 879.149 144.832 880.006 Q145.396 880.186 145.531 880.299 Q145.666 880.411 145.666 880.749 Q145.644 881.313 145.193 881.313 Q145.058 881.313 144.539 881.155 Q143.998 880.997 143.186 880.704 Q142.352 880.411 141.496 879.893 Q140.616 879.374 139.85 878.743 Q139.083 878.089 138.587 877.165 Q138.091 876.241 138.091 875.204 Q138.091 873.513 139.196 872.476 Q140.278 871.416 141.879 871.416 Q142.758 871.416 144.314 872.025 Q146.343 872.769 146.996 873.039 L151.843 874.843 Q153.602 875.497 154.143 875.7 Q154.661 875.88 155.293 876.038 Q155.901 876.173 156.465 876.173 Q157.254 876.173 157.615 875.925 Q157.975 875.655 157.975 875.068 Q157.975 873.445 156.375 872.25 Q154.752 871.056 152.272 870.357 Q152.204 870.334 152.091 870.312 Q151.528 870.131 151.46 869.951 Q151.438 869.861 151.438 869.68 Q151.438 869.117 151.888 869.117 Z" fill="#000000" fill-rule="evenodd" fill-opacity="1" /><path clip-path="url(#clip440)" d="M 0 0 M151.483 852.74 Q150.919 852.695 150.919 851.816 L150.919 823.523 Q150.919 822.193 151.438 822.17 Q152.001 822.17 151.979 823.433 L151.979 851.5 Q152.001 852.74 151.483 852.74 M142.465 852.74 Q141.901 852.74 141.924 851.771 L141.924 823.568 Q141.924 822.193 142.465 822.17 Q142.984 822.17 142.984 823.342 L142.984 851.816 Q142.984 852.74 142.465 852.74 Z" fill="#000000" fill-rule="evenodd" fill-opacity="1" /><path clip-path="url(#clip440)" d="M 0 0 M132.14 804.362 L130.697 804.362 Q130.697 798.816 127.744 795.953 Q127.744 795.164 127.924 795.029 Q128.104 794.893 128.939 794.893 L154.842 794.893 Q156.217 794.893 156.645 794.217 Q157.074 793.541 157.074 790.588 L157.074 789.122 L158.494 789.122 Q158.359 790.745 158.359 796.607 Q158.359 802.468 158.494 804.069 L157.074 804.069 L157.074 802.604 Q157.074 799.695 156.668 798.996 Q156.239 798.298 154.842 798.298 L130.922 798.298 Q132.14 800.71 132.14 804.362 Z" fill="#000000" fill-rule="evenodd" fill-opacity="1" /><path clip-path="url(#clip440)" d="M 0 0 M-1.6977 852.421 L-3.14052 852.421 Q-3.14052 846.876 -6.0938 844.012 Q-6.0938 843.223 -5.91345 843.088 Q-5.73309 842.953 -4.89896 842.953 L21.0042 842.953 Q22.3794 842.953 22.8077 842.277 Q23.2361 841.6 23.2361 838.647 L23.2361 837.182 L24.6564 837.182 Q24.5211 838.805 24.5211 844.666 Q24.5211 850.528 24.6564 852.128 L23.2361 852.128 L23.2361 850.663 Q23.2361 847.755 22.8303 847.056 Q22.4019 846.357 21.0042 846.357 L-2.91508 846.357 Q-1.6977 848.769 -1.6977 852.421 Z" fill="#000000" fill-rule="evenodd" fill-opacity="1" /><path clip-path="url(#clip440)" d="M 0 0 M9.88997 833.254 Q3.1042 833.254 -0.593038 831.54 Q-6.0938 829.151 -6.0938 823.515 Q-6.0938 822.32 -5.75564 821.08 Q-5.44002 819.817 -4.20009 818.239 Q-2.96017 816.639 -0.931199 815.669 Q2.99147 813.821 9.88997 813.821 Q16.6307 813.821 20.3053 815.534 Q25.6708 818.036 25.6708 823.56 Q25.6708 825.634 24.6113 827.753 Q23.5517 829.849 21.0042 831.18 Q17.1943 833.254 9.88997 833.254 M9.32637 829.421 Q16.2925 829.421 19.0654 828.925 Q22.0638 828.362 23.3713 826.829 Q24.6564 825.273 24.6564 823.56 Q24.6564 821.711 23.2812 820.178 Q21.8834 818.623 18.8851 818.149 Q15.9318 817.631 9.32637 817.653 Q2.9013 817.653 0.33127 818.104 Q-2.6671 818.713 -3.86193 820.336 Q-5.07931 821.937 -5.07931 823.56 Q-5.07931 824.168 -4.89896 824.822 Q-4.71861 825.453 -4.20009 826.378 Q-3.68158 827.302 -2.39657 828.023 Q-1.11155 828.722 0.827241 829.06 Q3.32964 829.421 9.32637 829.421 Z" fill="#000000" fill-rule="evenodd" fill-opacity="1" /><path clip-path="url(#clip440)" d="M 0 0 M70.4293 737.145 Q70.4615 737.145 71.6209 737.338 L100.896 744.681 Q102.442 745.067 103.988 746.162 Q105.566 747.225 106.919 748.932 Q108.303 750.607 109.141 753.183 Q110.01 755.727 110.01 758.658 Q110.01 763.328 109.012 765.389 Q108.046 767.418 105.985 767.418 Q104.181 767.418 103.15 766.291 Q102.152 765.164 102.152 763.876 Q102.152 762.652 102.861 762.008 Q103.569 761.364 104.471 761.364 Q105.469 761.364 106.468 762.04 Q107.498 762.716 107.885 764.069 Q108.561 761.911 108.561 758.787 Q108.561 752.185 101.572 749.351 Q101.476 749.286 101.444 749.286 L92.7158 747.096 L92.6514 747.193 Q93.2955 747.74 94.0362 748.61 Q94.7447 749.447 95.6143 751.251 Q96.4839 753.054 96.4839 754.826 Q96.4839 758.529 93.6497 761.074 Q90.7834 763.586 86.0492 763.586 Q82.6031 763.586 79.1571 762.201 Q75.6789 760.784 73.1346 758.594 Q70.5581 756.372 68.9478 753.537 Q67.3376 750.671 67.3376 747.901 Q67.3376 745.969 68.497 744.327 Q69.6242 742.684 71.4921 741.782 Q69.9462 741.621 69.3021 740.752 Q68.658 739.85 68.658 739.077 Q68.658 738.208 69.1411 737.692 Q69.592 737.145 70.4293 737.145 M74.455 742.555 Q74.2618 742.555 73.7465 742.684 Q73.199 742.813 72.3295 743.199 Q71.4599 743.554 70.687 744.101 Q69.914 744.649 69.3665 745.647 Q68.7868 746.613 68.7868 747.837 Q68.7868 749.834 70.4615 751.831 Q72.104 753.827 74.6483 755.212 Q77.0959 756.5 81.8302 757.724 Q86.5645 758.916 88.9799 758.916 Q91.3631 758.916 93.1989 757.885 Q95.0346 756.855 95.0346 754.632 Q95.0346 752.056 92.6514 749.286 Q90.1715 746.42 88.0459 745.937 L75.4534 742.749 Q74.6805 742.555 74.455 742.555 Z" fill="#000000" fill-rule="evenodd" fill-opacity="1" /><path clip-path="url(#clip440)" d="M 0 0 M99.1601 718.618 Q100.152 718.618 100.896 719.429 Q101.617 720.218 101.617 721.075 Q101.617 721.864 101.144 722.36 Q100.648 722.833 99.9491 722.833 Q99.0248 722.833 98.2583 722.044 Q97.4918 721.255 97.4918 720.331 Q97.4918 719.565 97.9653 719.091 Q98.4387 718.618 99.1601 718.618 M121.411 718.212 Q121.591 718.212 122.313 718.415 Q123.012 718.618 124.094 719.114 Q125.153 719.587 126.145 720.241 Q127.137 720.895 127.836 721.977 Q128.535 723.036 128.535 724.254 Q128.535 725.899 127.453 726.982 Q126.371 728.041 124.748 728.041 Q123.868 728.041 121.05 726.982 Q112.844 723.916 112.506 723.803 Q111.221 723.284 110.094 723.284 Q109.575 723.284 109.26 723.397 Q108.922 723.51 108.809 723.735 Q108.674 723.961 108.651 724.096 Q108.629 724.209 108.629 724.434 Q108.629 725.764 109.981 727.004 Q111.334 728.244 114.355 729.101 Q114.918 729.281 115.054 729.394 Q115.189 729.506 115.189 729.845 Q115.166 730.408 114.716 730.408 Q114.58 730.408 114.062 730.25 Q113.521 730.093 112.709 729.8 Q111.875 729.506 111.018 728.988 Q110.139 728.469 109.373 727.838 Q108.606 727.184 108.11 726.26 Q107.614 725.336 107.614 724.299 Q107.614 722.608 108.719 721.571 Q109.801 720.511 111.402 720.511 Q112.281 720.511 113.836 721.12 Q115.865 721.864 116.519 722.135 L121.366 723.938 Q123.124 724.592 123.666 724.795 Q124.184 724.975 124.815 725.133 Q125.424 725.268 125.988 725.268 Q126.777 725.268 127.137 725.02 Q127.498 724.75 127.498 724.164 Q127.498 722.54 125.897 721.345 Q124.274 720.151 121.794 719.452 Q121.727 719.429 121.614 719.407 Q121.05 719.226 120.983 719.046 Q120.96 718.956 120.96 718.775 Q120.96 718.212 121.411 718.212 Z" fill="#000000" fill-rule="evenodd" fill-opacity="1" /><path clip-path="url(#clip440)" d="M 0 0 M54.9347 730.408 Q47.1344 730.408 40.8446 727.5 Q38.207 726.26 35.9976 724.524 Q33.7883 722.788 32.8189 721.639 Q31.8495 720.489 31.8495 720.173 Q31.8495 719.722 32.3004 719.7 Q32.5258 719.7 33.0894 720.308 Q40.6643 727.748 54.9347 727.725 Q69.2502 727.725 76.5319 720.489 Q77.321 719.7 77.569 719.7 Q78.0198 719.7 78.0198 720.173 Q78.0198 720.489 77.0955 721.593 Q76.1712 722.698 74.0521 724.411 Q71.9329 726.125 69.3404 727.365 Q63.0506 730.408 54.9347 730.408 Z" fill="#000000" fill-rule="evenodd" fill-opacity="1" /><path clip-path="url(#clip440)" d="M 0 0 M66.4773 712.68 Q65.6431 712.68 65.3951 712.612 Q65.1472 712.522 64.7639 712.161 L54.8896 703.302 Q49.4339 698.455 44.6771 698.455 Q41.5886 698.455 39.3792 700.078 Q37.1699 701.678 37.1699 704.632 Q37.1699 706.661 38.4098 708.374 Q39.6498 710.087 41.8591 710.876 Q41.814 710.741 41.814 710.268 Q41.814 709.118 42.5354 708.487 Q43.2568 707.833 44.2262 707.833 Q45.4662 707.833 46.0748 708.644 Q46.661 709.434 46.661 710.223 Q46.661 710.538 46.5934 710.967 Q46.5257 711.372 45.8945 712.026 Q45.2407 712.68 44.091 712.68 Q40.8672 712.68 38.2971 710.245 Q35.7271 707.788 35.7271 704.045 Q35.7271 699.807 38.252 697.034 Q40.7544 694.239 44.6771 694.239 Q46.0523 694.239 47.3148 694.667 Q48.5547 695.073 49.5241 695.637 Q50.4935 696.178 52.049 697.666 Q53.6046 699.153 54.7092 700.348 Q55.8139 701.543 58.1585 704.226 L62.9153 709.118 L62.9153 700.799 Q62.9153 696.741 62.5546 696.426 Q61.9008 695.975 58.4516 695.411 L58.4516 694.239 L66.4773 695.546 L66.4773 712.68 Z" fill="#000000" fill-rule="evenodd" fill-opacity="1" /><path clip-path="url(#clip440)" d="M 0 0 M77.569 689.816 Q77.3435 689.816 76.7799 689.23 Q69.2051 681.79 54.9347 681.79 Q40.6192 681.79 33.3825 688.937 Q32.5484 689.816 32.3004 689.816 Q31.8495 689.816 31.8495 689.365 Q31.8495 689.05 32.7738 687.945 Q33.6981 686.818 35.8173 685.127 Q37.9364 683.414 40.529 682.151 Q46.8188 679.108 54.9347 679.108 Q62.7349 679.108 69.0247 682.016 Q71.6624 683.256 73.8717 684.992 Q76.081 686.728 77.0504 687.877 Q78.0198 689.027 78.0198 689.365 Q78.0198 689.816 77.569 689.816 Z" fill="#000000" fill-rule="evenodd" fill-opacity="1" /><path clip-path="url(#clip440)" d="M 0 0 M79.9945 665.048 Q68.8512 665.048 59.8658 660.893 Q56.0977 659.122 52.9415 656.642 Q49.7854 654.162 48.4005 652.52 Q47.0157 650.877 47.0157 650.426 Q47.0157 649.782 47.6598 649.75 Q47.9818 649.75 48.787 650.62 Q59.6081 661.248 79.9945 661.215 Q100.445 661.215 110.848 650.877 Q111.975 649.75 112.329 649.75 Q112.973 649.75 112.973 650.426 Q112.973 650.877 111.653 652.455 Q110.332 654.033 107.305 656.481 Q104.278 658.929 100.574 660.7 Q91.5886 665.048 79.9945 665.048 Z" fill="#000000" fill-rule="evenodd" fill-opacity="1" /><path clip-path="url(#clip440)" d="M 0 0 M69.6242 607.773 Q71.8786 607.773 71.8786 611.026 L71.8786 622.105 L94.4549 626.517 Q95.0346 626.614 95.3567 626.743 Q95.6787 626.839 96.2262 627.129 Q96.7415 627.387 96.9992 627.934 Q97.289 628.45 97.289 629.222 Q97.289 630.189 96.7093 630.672 Q96.1618 631.123 95.4855 631.123 Q95.0668 631.123 93.07 630.479 L71.8786 624.005 L71.8786 629.48 Q71.8786 634.633 76.9671 637.854 Q77.6434 638.369 77.7078 638.659 Q77.74 638.788 77.74 638.916 Q77.74 639.271 77.579 639.496 Q77.418 639.689 77.257 639.689 L77.0959 639.722 Q76.8705 639.722 75.9687 639.206 Q75.0348 638.659 73.6499 637.693 Q72.265 636.694 71.1701 635.696 Q69.753 634.375 69.0123 632.894 Q68.2393 631.412 68.1427 630.672 Q68.0461 629.899 68.0461 628.9 L68.0461 610.414 Q68.0461 609.577 68.1105 609.126 Q68.1427 608.675 68.5292 608.224 Q68.8834 607.773 69.6242 607.773 Z" fill="#000000" fill-rule="evenodd" fill-opacity="1" /><path clip-path="url(#clip440)" d="M 0 0 M112.329 611.206 Q112.007 611.206 111.202 610.368 Q100.381 599.74 79.9945 599.74 Q59.5437 599.74 49.2057 609.95 Q48.014 611.206 47.6598 611.206 Q47.0157 611.206 47.0157 610.562 Q47.0157 610.111 48.3361 608.533 Q49.6565 606.922 52.6839 604.507 Q55.7112 602.059 59.4149 600.256 Q68.4003 595.908 79.9945 595.908 Q91.1377 595.908 100.123 600.062 Q103.891 601.834 107.047 604.314 Q110.204 606.794 111.588 608.436 Q112.973 610.079 112.973 610.562 Q112.973 611.206 112.329 611.206 Z" fill="#000000" fill-rule="evenodd" fill-opacity="1" /><path clip-path="url(#clip440)" d="M 0 0 M437.904 14.0809 L437.904 22.0612 Q433.246 19.8332 429.114 18.7395 Q424.982 17.6457 421.133 17.6457 Q414.449 17.6457 410.804 20.2383 Q407.198 22.8309 407.198 27.611 Q407.198 31.6214 409.588 33.6873 Q412.019 35.7128 418.743 36.9686 L423.686 37.9813 Q432.841 39.7232 437.175 44.1387 Q441.55 48.5136 441.55 55.8863 Q441.55 64.6767 435.636 69.2137 Q429.762 73.7508 418.379 73.7508 Q414.085 73.7508 409.224 72.7785 Q404.403 71.8063 399.218 69.9024 L399.218 61.4765 Q404.201 64.2716 408.981 65.6895 Q413.761 67.1073 418.379 67.1073 Q425.387 67.1073 429.195 64.3527 Q433.003 61.598 433.003 56.4939 Q433.003 52.0379 430.248 49.5264 Q427.534 47.0148 421.296 45.759 L416.313 44.7868 Q407.158 42.9639 403.066 39.075 Q398.975 35.1862 398.975 28.2591 Q398.975 20.2383 404.606 15.6203 Q410.277 11.0023 420.202 11.0023 Q424.455 11.0023 428.871 11.7719 Q433.286 12.5416 437.904 14.0809 Z" fill="#000000" fill-rule="evenodd" fill-opacity="1" /><path clip-path="url(#clip440)" d="M 0 0 M453.217 54.671 L453.217 27.2059 L460.67 27.2059 L460.67 54.3874 Q460.67 60.8284 463.182 64.0691 Q465.693 67.2693 470.717 67.2693 Q476.752 67.2693 480.236 63.421 Q483.76 59.5726 483.76 52.9291 L483.76 27.2059 L491.214 27.2059 L491.214 72.576 L483.76 72.576 L483.76 65.6084 Q481.046 69.7404 477.441 71.7658 Q473.876 73.7508 469.137 73.7508 Q461.318 73.7508 457.268 68.8897 Q453.217 64.0286 453.217 54.671 M471.972 26.1121 L471.972 26.1121 Z" fill="#000000" fill-rule="evenodd" fill-opacity="1" /><path clip-path="url(#clip440)" d="M 0 0 M541.891 35.9153 Q544.686 30.8922 548.575 28.5022 Q552.464 26.1121 557.73 26.1121 Q564.819 26.1121 568.667 31.0947 Q572.516 36.0368 572.516 45.1919 L572.516 72.576 L565.022 72.576 L565.022 45.4349 Q565.022 38.913 562.713 35.7533 Q560.404 32.5936 555.664 32.5936 Q549.871 32.5936 546.509 36.4419 Q543.147 40.2903 543.147 46.9338 L543.147 72.576 L535.653 72.576 L535.653 45.4349 Q535.653 38.8725 533.344 35.7533 Q531.035 32.5936 526.214 32.5936 Q520.502 32.5936 517.14 36.4824 Q513.778 40.3308 513.778 46.9338 L513.778 72.576 L506.283 72.576 L506.283 27.2059 L513.778 27.2059 L513.778 34.2544 Q516.33 30.082 519.895 28.0971 Q523.459 26.1121 528.361 26.1121 Q533.303 26.1121 536.746 28.6237 Q540.23 31.1352 541.891 35.9153 Z" fill="#000000" fill-rule="evenodd" fill-opacity="1" /><path clip-path="url(#clip440)" d="M 0 0 M631.335 32.4315 Q625.34 32.4315 621.856 37.1306 Q618.372 41.7891 618.372 49.9314 Q618.372 58.0738 621.815 62.7728 Q625.299 67.4314 631.335 67.4314 Q637.29 67.4314 640.773 62.7323 Q644.257 58.0333 644.257 49.9314 Q644.257 41.8701 640.773 37.1711 Q637.29 32.4315 631.335 32.4315 M631.335 26.1121 Q641.057 26.1121 646.607 32.4315 Q652.157 38.7509 652.157 49.9314 Q652.157 61.0714 646.607 67.4314 Q641.057 73.7508 631.335 73.7508 Q621.572 73.7508 616.022 67.4314 Q610.513 61.0714 610.513 49.9314 Q610.513 38.7509 616.022 32.4315 Q621.572 26.1121 631.335 26.1121 Z" fill="#000000" fill-rule="evenodd" fill-opacity="1" /><path clip-path="url(#clip440)" d="M 0 0 M687.48 9.54393 L687.48 15.7418 L680.351 15.7418 Q676.34 15.7418 674.761 17.3622 Q673.221 18.9825 673.221 23.1955 L673.221 27.2059 L685.495 27.2059 L685.495 32.9987 L673.221 32.9987 L673.221 72.576 L665.727 72.576 L665.727 32.9987 L658.597 32.9987 L658.597 27.2059 L665.727 27.2059 L665.727 24.0462 Q665.727 16.471 669.251 13.0277 Q672.776 9.54393 680.432 9.54393 L687.48 9.54393 Z" fill="#000000" fill-rule="evenodd" fill-opacity="1" /><path clip-path="url(#clip440)" d="M 0 0 M728.597 18.8205 L728.597 41.5461 L738.886 41.5461 Q744.598 41.5461 747.717 38.5889 Q750.837 35.6318 750.837 30.163 Q750.837 24.7348 747.717 21.7777 Q744.598 18.8205 738.886 18.8205 L728.597 18.8205 M720.414 12.096 L738.886 12.096 Q749.054 12.096 754.239 16.714 Q759.465 21.2916 759.465 30.163 Q759.465 39.1155 754.239 43.6931 Q749.054 48.2706 738.886 48.2706 L728.597 48.2706 L728.597 72.576 L720.414 72.576 L720.414 12.096 Z" fill="#000000" fill-rule="evenodd" fill-opacity="1" /><path clip-path="url(#clip440)" d="M 0 0 M807.833 45.1919 L807.833 72.576 L800.379 72.576 L800.379 45.4349 Q800.379 38.994 797.868 35.7938 Q795.356 32.5936 790.333 32.5936 Q784.297 32.5936 780.813 36.4419 Q777.329 40.2903 777.329 46.9338 L777.329 72.576 L769.835 72.576 L769.835 9.54393 L777.329 9.54393 L777.329 34.2544 Q780.003 30.163 783.608 28.1376 Q787.254 26.1121 791.994 26.1121 Q799.812 26.1121 803.822 30.9732 Q807.833 35.7938 807.833 45.1919 Z" fill="#000000" fill-rule="evenodd" fill-opacity="1" /><path clip-path="url(#clip440)" d="M 0 0 M840.281 32.4315 Q834.285 32.4315 830.801 37.1306 Q827.318 41.7891 827.318 49.9314 Q827.318 58.0738 830.761 62.7728 Q834.245 67.4314 840.281 67.4314 Q846.235 67.4314 849.719 62.7323 Q853.203 58.0333 853.203 49.9314 Q853.203 41.8701 849.719 37.1711 Q846.235 32.4315 840.281 32.4315 M840.281 26.1121 Q850.003 26.1121 855.552 32.4315 Q861.102 38.7509 861.102 49.9314 Q861.102 61.0714 855.552 67.4314 Q850.003 73.7508 840.281 73.7508 Q830.518 73.7508 824.968 67.4314 Q819.459 61.0714 819.459 49.9314 Q819.459 38.7509 824.968 32.4315 Q830.518 26.1121 840.281 26.1121 Z" fill="#000000" fill-rule="evenodd" fill-opacity="1" /><path clip-path="url(#clip440)" d="M 0 0 M880.83 14.324 L880.83 27.2059 L896.183 27.2059 L896.183 32.9987 L880.83 32.9987 L880.83 57.6282 Q880.83 63.1779 882.329 64.7578 Q883.868 66.3376 888.527 66.3376 L896.183 66.3376 L896.183 72.576 L888.527 72.576 Q879.898 72.576 876.617 69.3758 Q873.336 66.1351 873.336 57.6282 L873.336 32.9987 L867.867 32.9987 L867.867 27.2059 L873.336 27.2059 L873.336 14.324 L880.83 14.324 Z" fill="#000000" fill-rule="evenodd" fill-opacity="1" /><path clip-path="url(#clip440)" d="M 0 0 M923.567 32.4315 Q917.572 32.4315 914.088 37.1306 Q910.604 41.7891 910.604 49.9314 Q910.604 58.0738 914.047 62.7728 Q917.531 67.4314 923.567 67.4314 Q929.522 67.4314 933.006 62.7323 Q936.49 58.0333 936.49 49.9314 Q936.49 41.8701 933.006 37.1711 Q929.522 32.4315 923.567 32.4315 M923.567 26.1121 Q933.289 26.1121 938.839 32.4315 Q944.389 38.7509 944.389 49.9314 Q944.389 61.0714 938.839 67.4314 Q933.289 73.7508 923.567 73.7508 Q913.804 73.7508 908.255 67.4314 Q902.745 61.0714 902.745 49.9314 Q902.745 38.7509 908.255 32.4315 Q913.804 26.1121 923.567 26.1121 Z" fill="#000000" fill-rule="evenodd" fill-opacity="1" /><path clip-path="url(#clip440)" d="M 0 0 M994.458 45.1919 L994.458 72.576 L987.004 72.576 L987.004 45.4349 Q987.004 38.994 984.493 35.7938 Q981.981 32.5936 976.958 32.5936 Q970.922 32.5936 967.438 36.4419 Q963.955 40.2903 963.955 46.9338 L963.955 72.576 L956.46 72.576 L956.46 27.2059 L963.955 27.2059 L963.955 34.2544 Q966.628 30.163 970.234 28.1376 Q973.879 26.1121 978.619 26.1121 Q986.437 26.1121 990.448 30.9732 Q994.458 35.7938 994.458 45.1919 Z" fill="#000000" fill-rule="evenodd" fill-opacity="1" /><path clip-path="url(#clip440)" d="M 0 0 M1081.31 16.7545 L1081.31 25.383 Q1077.18 21.5346 1072.48 19.6307 Q1067.82 17.7268 1062.55 17.7268 Q1052.18 17.7268 1046.67 24.0867 Q1041.16 30.4061 1041.16 42.3968 Q1041.16 54.3469 1046.67 60.7069 Q1052.18 67.0263 1062.55 67.0263 Q1067.82 67.0263 1072.48 65.1223 Q1077.18 63.2184 1081.31 59.3701 L1081.31 67.9175 Q1077.02 70.8341 1072.19 72.2924 Q1067.41 73.7508 1062.07 73.7508 Q1048.33 73.7508 1040.44 65.3654 Q1032.54 56.9395 1032.54 42.3968 Q1032.54 27.8135 1040.44 19.4281 Q1048.33 11.0023 1062.07 11.0023 Q1067.5 11.0023 1072.28 12.4606 Q1077.1 13.8784 1081.31 16.7545 Z" fill="#000000" fill-rule="evenodd" fill-opacity="1" /><path clip-path="url(#clip440)" d="M 0 0 M1111.21 32.4315 Q1105.21 32.4315 1101.73 37.1306 Q1098.24 41.7891 1098.24 49.9314 Q1098.24 58.0738 1101.69 62.7728 Q1105.17 67.4314 1111.21 67.4314 Q1117.16 67.4314 1120.64 62.7323 Q1124.13 58.0333 1124.13 49.9314 Q1124.13 41.8701 1120.64 37.1711 Q1117.16 32.4315 1111.21 32.4315 M1111.21 26.1121 Q1120.93 26.1121 1126.48 32.4315 Q1132.03 38.7509 1132.03 49.9314 Q1132.03 61.0714 1126.48 67.4314 Q1120.93 73.7508 1111.21 73.7508 Q1101.44 73.7508 1095.89 67.4314 Q1090.38 61.0714 1090.38 49.9314 Q1090.38 38.7509 1095.89 32.4315 Q1101.44 26.1121 1111.21 26.1121 Z" fill="#000000" fill-rule="evenodd" fill-opacity="1" /><path clip-path="url(#clip440)" d="M 0 0 M1170.67 34.1734 Q1169.42 33.4443 1167.92 33.1202 Q1166.46 32.7556 1164.68 32.7556 Q1158.36 32.7556 1154.95 36.8875 Q1151.59 40.9789 1151.59 48.6757 L1151.59 72.576 L1144.1 72.576 L1144.1 27.2059 L1151.59 27.2059 L1151.59 34.2544 Q1153.94 30.1225 1157.71 28.1376 Q1161.48 26.1121 1166.86 26.1121 Q1167.63 26.1121 1168.57 26.2337 Q1169.5 26.3147 1170.63 26.5172 L1170.67 34.1734 Z" fill="#000000" fill-rule="evenodd" fill-opacity="1" /><path clip-path="url(#clip440)" d="M 0 0 M1203.32 34.1734 Q1202.07 33.4443 1200.57 33.1202 Q1199.11 32.7556 1197.33 32.7556 Q1191.01 32.7556 1187.61 36.8875 Q1184.24 40.9789 1184.24 48.6757 L1184.24 72.576 L1176.75 72.576 L1176.75 27.2059 L1184.24 27.2059 L1184.24 34.2544 Q1186.59 30.1225 1190.36 28.1376 Q1194.13 26.1121 1199.51 26.1121 Q1200.28 26.1121 1201.22 26.2337 Q1202.15 26.3147 1203.28 26.5172 L1203.32 34.1734 Z" fill="#000000" fill-rule="evenodd" fill-opacity="1" /><path clip-path="url(#clip440)" d="M 0 0 M1248.13 48.0275 L1248.13 51.6733 L1213.85 51.6733 Q1214.34 59.3701 1218.47 63.421 Q1222.65 67.4314 1230.06 67.4314 Q1234.35 67.4314 1238.36 66.3781 Q1242.41 65.3249 1246.38 63.2184 L1246.38 70.267 Q1242.37 71.9684 1238.16 72.8596 Q1233.95 73.7508 1229.61 73.7508 Q1218.76 73.7508 1212.4 67.4314 Q1206.08 61.1119 1206.08 50.3365 Q1206.08 39.1965 1212.07 32.6746 Q1218.11 26.1121 1228.32 26.1121 Q1237.47 26.1121 1242.78 32.0264 Q1248.13 37.9003 1248.13 48.0275 M1240.67 45.84 Q1240.59 39.7232 1237.23 36.0774 Q1233.91 32.4315 1228.4 32.4315 Q1222.16 32.4315 1218.39 35.9558 Q1214.67 39.4801 1214.1 45.8805 L1240.67 45.84 Z" fill="#000000" fill-rule="evenodd" fill-opacity="1" /><path clip-path="url(#clip440)" d="M 0 0 M1260.36 9.54393 L1267.81 9.54393 L1267.81 72.576 L1260.36 72.576 L1260.36 9.54393 Z" fill="#000000" fill-rule="evenodd" fill-opacity="1" /><path clip-path="url(#clip440)" d="M 0 0 M1304.03 49.7694 Q1294.99 49.7694 1291.51 51.8354 Q1288.03 53.9013 1288.03 58.8839 Q1288.03 62.8538 1290.62 65.2034 Q1293.25 67.5124 1297.75 67.5124 Q1303.95 67.5124 1307.67 63.1374 Q1311.44 58.7219 1311.44 51.4303 L1311.44 49.7694 L1304.03 49.7694 M1318.89 46.6907 L1318.89 72.576 L1311.44 72.576 L1311.44 65.6895 Q1308.89 69.8214 1305.08 71.8063 Q1301.27 73.7508 1295.76 73.7508 Q1288.8 73.7508 1284.66 69.8619 Q1280.57 65.9325 1280.57 59.3701 Q1280.57 51.7138 1285.68 47.825 Q1290.82 43.9361 1300.99 43.9361 L1311.44 43.9361 L1311.44 43.2069 Q1311.44 38.0623 1308.04 35.2672 Q1304.68 32.4315 1298.56 32.4315 Q1294.67 32.4315 1290.98 33.3632 Q1287.3 34.295 1283.9 36.1584 L1283.9 29.2718 Q1287.99 27.692 1291.83 26.9223 Q1295.68 26.1121 1299.33 26.1121 Q1309.17 26.1121 1314.03 31.2163 Q1318.89 36.3204 1318.89 46.6907 Z" fill="#000000" fill-rule="evenodd" fill-opacity="1" /><path clip-path="url(#clip440)" d="M 0 0 M1341.62 14.324 L1341.62 27.2059 L1356.97 27.2059 L1356.97 32.9987 L1341.62 32.9987 L1341.62 57.6282 Q1341.62 63.1779 1343.12 64.7578 Q1344.66 66.3376 1349.32 66.3376 L1356.97 66.3376 L1356.97 72.576 L1349.32 72.576 Q1340.69 72.576 1337.41 69.3758 Q1334.13 66.1351 1334.13 57.6282 L1334.13 32.9987 L1328.66 32.9987 L1328.66 27.2059 L1334.13 27.2059 L1334.13 14.324 L1341.62 14.324 Z" fill="#000000" fill-rule="evenodd" fill-opacity="1" /><path clip-path="url(#clip440)" d="M 0 0 M1366.78 27.2059 L1374.23 27.2059 L1374.23 72.576 L1366.78 72.576 L1366.78 27.2059 M1366.78 9.54393 L1374.23 9.54393 L1374.23 18.9825 L1366.78 18.9825 L1366.78 9.54393 Z" fill="#000000" fill-rule="evenodd" fill-opacity="1" /><path clip-path="url(#clip440)" d="M 0 0 M1407.41 32.4315 Q1401.41 32.4315 1397.93 37.1306 Q1394.44 41.7891 1394.44 49.9314 Q1394.44 58.0738 1397.89 62.7728 Q1401.37 67.4314 1407.41 67.4314 Q1413.36 67.4314 1416.85 62.7323 Q1420.33 58.0333 1420.33 49.9314 Q1420.33 41.8701 1416.85 37.1711 Q1413.36 32.4315 1407.41 32.4315 M1407.41 26.1121 Q1417.13 26.1121 1422.68 32.4315 Q1428.23 38.7509 1428.23 49.9314 Q1428.23 61.0714 1422.68 67.4314 Q1417.13 73.7508 1407.41 73.7508 Q1397.64 73.7508 1392.09 67.4314 Q1386.59 61.0714 1386.59 49.9314 Q1386.59 38.7509 1392.09 32.4315 Q1397.64 26.1121 1407.41 26.1121 Z" fill="#000000" fill-rule="evenodd" fill-opacity="1" /><path clip-path="url(#clip440)" d="M 0 0 M1478.3 45.1919 L1478.3 72.576 L1470.84 72.576 L1470.84 45.4349 Q1470.84 38.994 1468.33 35.7938 Q1465.82 32.5936 1460.8 32.5936 Q1454.76 32.5936 1451.28 36.4419 Q1447.79 40.2903 1447.79 46.9338 L1447.79 72.576 L1440.3 72.576 L1440.3 27.2059 L1447.79 27.2059 L1447.79 34.2544 Q1450.47 30.163 1454.07 28.1376 Q1457.72 26.1121 1462.46 26.1121 Q1470.28 26.1121 1474.29 30.9732 Q1478.3 35.7938 1478.3 45.1919 Z" fill="#000000" fill-rule="evenodd" fill-opacity="1" /><path clip-path="url(#clip440)" d="M 0 0 M1522.09 28.5427 L1522.09 35.5912 Q1518.93 33.9709 1515.53 33.1607 Q1512.12 32.3505 1508.48 32.3505 Q1502.93 32.3505 1500.13 34.0519 Q1497.38 35.7533 1497.38 39.156 Q1497.38 41.7486 1499.36 43.2475 Q1501.35 44.7058 1507.34 46.0426 L1509.89 46.6097 Q1517.83 48.3111 1521.16 51.4303 Q1524.52 54.509 1524.52 60.0587 Q1524.52 66.3781 1519.5 70.0644 Q1514.51 73.7508 1505.76 73.7508 Q1502.12 73.7508 1498.15 73.0216 Q1494.22 72.3329 1489.84 70.9151 L1489.84 63.2184 Q1493.97 65.3654 1497.99 66.4591 Q1502 67.5124 1505.93 67.5124 Q1511.19 67.5124 1514.03 65.73 Q1516.86 63.9071 1516.86 60.6258 Q1516.86 57.5877 1514.8 55.9673 Q1512.77 54.3469 1505.84 52.8481 L1503.25 52.2405 Q1496.32 50.7821 1493.25 47.7845 Q1490.17 44.7463 1490.17 39.4801 Q1490.17 33.0797 1494.7 29.5959 Q1499.24 26.1121 1507.59 26.1121 Q1511.72 26.1121 1515.36 26.7198 Q1519.01 27.3274 1522.09 28.5427 Z" fill="#000000" fill-rule="evenodd" fill-opacity="1" /><path clip-path="url(#clip440)" d="M 0 0 M1557.41 27.2059 L1565.31 27.2059 L1579.49 65.2844 L1593.67 27.2059 L1601.57 27.2059 L1584.55 72.576 L1574.43 72.576 L1557.41 27.2059 Z" fill="#000000" fill-rule="evenodd" fill-opacity="1" /><path clip-path="url(#clip440)" d="M 0 0 M1640.78 28.5427 L1640.78 35.5912 Q1637.62 33.9709 1634.22 33.1607 Q1630.81 32.3505 1627.17 32.3505 Q1621.62 32.3505 1618.82 34.0519 Q1616.07 35.7533 1616.07 39.156 Q1616.07 41.7486 1618.05 43.2475 Q1620.04 44.7058 1626.03 46.0426 L1628.59 46.6097 Q1636.53 48.3111 1639.85 51.4303 Q1643.21 54.509 1643.21 60.0587 Q1643.21 66.3781 1638.19 70.0644 Q1633.2 73.7508 1624.45 73.7508 Q1620.81 73.7508 1616.84 73.0216 Q1612.91 72.3329 1608.53 70.9151 L1608.53 63.2184 Q1612.67 65.3654 1616.68 66.4591 Q1620.69 67.5124 1624.62 67.5124 Q1629.88 67.5124 1632.72 65.73 Q1635.55 63.9071 1635.55 60.6258 Q1635.55 57.5877 1633.49 55.9673 Q1631.46 54.3469 1624.54 52.8481 L1621.94 52.2405 Q1615.02 50.7821 1611.94 47.7845 Q1608.86 44.7463 1608.86 39.4801 Q1608.86 33.0797 1613.4 29.5959 Q1617.93 26.1121 1626.28 26.1121 Q1630.41 26.1121 1634.06 26.7198 Q1637.7 27.3274 1640.78 28.5427 Z" fill="#000000" fill-rule="evenodd" fill-opacity="1" /><path clip-path="url(#clip440)" d="M 0 0 M1673.39 12.096 L1724.55 12.096 L1724.55 18.9825 L1703.08 18.9825 L1703.08 72.576 L1694.86 72.576 L1694.86 18.9825 L1673.39 18.9825 L1673.39 12.096 Z" fill="#000000" fill-rule="evenodd" fill-opacity="1" /><path clip-path="url(#clip440)" d="M 0 0 M1729.58 27.2059 L1737.03 27.2059 L1737.03 72.576 L1729.58 72.576 L1729.58 27.2059 M1729.58 9.54393 L1737.03 9.54393 L1737.03 18.9825 L1729.58 18.9825 L1729.58 9.54393 Z" fill="#000000" fill-rule="evenodd" fill-opacity="1" /><path clip-path="url(#clip440)" d="M 0 0 M1787.95 35.9153 Q1790.74 30.8922 1794.63 28.5022 Q1798.52 26.1121 1803.79 26.1121 Q1810.88 26.1121 1814.73 31.0947 Q1818.57 36.0368 1818.57 45.1919 L1818.57 72.576 L1811.08 72.576 L1811.08 45.4349 Q1811.08 38.913 1808.77 35.7533 Q1806.46 32.5936 1801.72 32.5936 Q1795.93 32.5936 1792.57 36.4419 Q1789.2 40.2903 1789.2 46.9338 L1789.2 72.576 L1781.71 72.576 L1781.71 45.4349 Q1781.71 38.8725 1779.4 35.7533 Q1777.09 32.5936 1772.27 32.5936 Q1766.56 32.5936 1763.2 36.4824 Q1759.84 40.3308 1759.84 46.9338 L1759.84 72.576 L1752.34 72.576 L1752.34 27.2059 L1759.84 27.2059 L1759.84 34.2544 Q1762.39 30.082 1765.95 28.0971 Q1769.52 26.1121 1774.42 26.1121 Q1779.36 26.1121 1782.8 28.6237 Q1786.29 31.1352 1787.95 35.9153 Z" fill="#000000" fill-rule="evenodd" fill-opacity="1" /><path clip-path="url(#clip440)" d="M 0 0 M1872.25 48.0275 L1872.25 51.6733 L1837.98 51.6733 Q1838.46 59.3701 1842.6 63.421 Q1846.77 67.4314 1854.18 67.4314 Q1858.48 67.4314 1862.49 66.3781 Q1866.54 65.3249 1870.51 63.2184 L1870.51 70.267 Q1866.5 71.9684 1862.28 72.8596 Q1858.07 73.7508 1853.74 73.7508 Q1842.88 73.7508 1836.52 67.4314 Q1830.2 61.1119 1830.2 50.3365 Q1830.2 39.1965 1836.2 32.6746 Q1842.23 26.1121 1852.44 26.1121 Q1861.59 26.1121 1866.9 32.0264 Q1872.25 37.9003 1872.25 48.0275 M1864.79 45.84 Q1864.71 39.7232 1861.35 36.0774 Q1858.03 32.4315 1852.52 32.4315 Q1846.28 32.4315 1842.51 35.9558 Q1838.79 39.4801 1838.22 45.8805 L1864.79 45.84 Z" fill="#000000" fill-rule="evenodd" fill-opacity="1" /><path clip-path="url(#clip440)" d="M 0 0 M1935.73 17.6457 Q1926.81 17.6457 1921.55 24.2892 Q1916.32 30.9327 1916.32 42.3968 Q1916.32 53.8203 1921.55 60.4638 Q1926.81 67.1073 1935.73 67.1073 Q1944.64 67.1073 1949.82 60.4638 Q1955.05 53.8203 1955.05 42.3968 Q1955.05 30.9327 1949.82 24.2892 Q1944.64 17.6457 1935.73 17.6457 M1935.73 11.0023 Q1948.45 11.0023 1956.06 19.5497 Q1963.68 28.0566 1963.68 42.3968 Q1963.68 56.6965 1956.06 65.2439 Q1948.45 73.7508 1935.73 73.7508 Q1922.97 73.7508 1915.31 65.2439 Q1907.69 56.737 1907.69 42.3968 Q1907.69 28.0566 1915.31 19.5497 Q1922.97 11.0023 1935.73 11.0023 Z" fill="#000000" fill-rule="evenodd" fill-opacity="1" /><path clip-path="url(#clip440)" d="M 0 0 M1999.12 9.54393 L1999.12 15.7418 L1991.99 15.7418 Q1987.98 15.7418 1986.4 17.3622 Q1984.86 18.9825 1984.86 23.1955 L1984.86 27.2059 L1997.14 27.2059 L1997.14 32.9987 L1984.86 32.9987 L1984.86 72.576 L1977.37 72.576 L1977.37 32.9987 L1970.24 32.9987 L1970.24 27.2059 L1977.37 27.2059 L1977.37 24.0462 Q1977.37 16.471 1980.89 13.0277 Q1984.42 9.54393 1992.07 9.54393 L1999.12 9.54393 Z" fill="#000000" fill-rule="evenodd" fill-opacity="1" /><path clip-path="url(#clip440)" d="M 0 0 M2028.33 9.54393 L2028.33 15.7418 L2021.2 15.7418 Q2017.19 15.7418 2015.61 17.3622 Q2014.07 18.9825 2014.07 23.1955 L2014.07 27.2059 L2026.34 27.2059 L2026.34 32.9987 L2014.07 32.9987 L2014.07 72.576 L2006.58 72.576 L2006.58 32.9987 L1999.45 32.9987 L1999.45 27.2059 L2006.58 27.2059 L2006.58 24.0462 Q2006.58 16.471 2010.1 13.0277 Q2013.62 9.54393 2021.28 9.54393 L2028.33 9.54393 Z" fill="#000000" fill-rule="evenodd" fill-opacity="1" /><path clip-path="url(#clip440)" d="M 0 0 M2063.49 28.5427 L2063.49 35.5912 Q2060.33 33.9709 2056.93 33.1607 Q2053.53 32.3505 2049.88 32.3505 Q2044.33 32.3505 2041.54 34.0519 Q2038.78 35.7533 2038.78 39.156 Q2038.78 41.7486 2040.77 43.2475 Q2042.75 44.7058 2048.75 46.0426 L2051.3 46.6097 Q2059.24 48.3111 2062.56 51.4303 Q2065.92 54.509 2065.92 60.0587 Q2065.92 66.3781 2060.9 70.0644 Q2055.92 73.7508 2047.17 73.7508 Q2043.52 73.7508 2039.55 73.0216 Q2035.62 72.3329 2031.25 70.9151 L2031.25 63.2184 Q2035.38 65.3654 2039.39 66.4591 Q2043.4 67.5124 2047.33 67.5124 Q2052.59 67.5124 2055.43 65.73 Q2058.27 63.9071 2058.27 60.6258 Q2058.27 57.5877 2056.2 55.9673 Q2054.17 54.3469 2047.25 52.8481 L2044.65 52.2405 Q2037.73 50.7821 2034.65 47.7845 Q2031.57 44.7463 2031.57 39.4801 Q2031.57 33.0797 2036.11 29.5959 Q2040.64 26.1121 2048.99 26.1121 Q2053.12 26.1121 2056.77 26.7198 Q2060.41 27.3274 2063.49 28.5427 Z" fill="#000000" fill-rule="evenodd" fill-opacity="1" /><path clip-path="url(#clip440)" d="M 0 0 M2116.6 48.0275 L2116.6 51.6733 L2082.33 51.6733 Q2082.81 59.3701 2086.95 63.421 Q2091.12 67.4314 2098.53 67.4314 Q2102.83 67.4314 2106.84 66.3781 Q2110.89 65.3249 2114.86 63.2184 L2114.86 70.267 Q2110.85 71.9684 2106.63 72.8596 Q2102.42 73.7508 2098.09 73.7508 Q2087.23 73.7508 2080.87 67.4314 Q2074.55 61.1119 2074.55 50.3365 Q2074.55 39.1965 2080.55 32.6746 Q2086.58 26.1121 2096.79 26.1121 Q2105.95 26.1121 2111.25 32.0264 Q2116.6 37.9003 2116.6 48.0275 M2109.15 45.84 Q2109.06 39.7232 2105.7 36.0774 Q2102.38 32.4315 2096.87 32.4315 Q2090.63 32.4315 2086.87 35.9558 Q2083.14 39.4801 2082.57 45.8805 L2109.15 45.84 Z" fill="#000000" fill-rule="evenodd" fill-opacity="1" /><path clip-path="url(#clip440)" d="M 0 0 M2136.21 14.324 L2136.21 27.2059 L2151.56 27.2059 L2151.56 32.9987 L2136.21 32.9987 L2136.21 57.6282 Q2136.21 63.1779 2137.7 64.7578 Q2139.24 66.3376 2143.9 66.3376 L2151.56 66.3376 L2151.56 72.576 L2143.9 72.576 Q2135.27 72.576 2131.99 69.3758 Q2128.71 66.1351 2128.71 57.6282 L2128.71 32.9987 L2123.24 32.9987 L2123.24 27.2059 L2128.71 27.2059 L2128.71 14.324 L2136.21 14.324 Z" fill="#000000" fill-rule="evenodd" fill-opacity="1" /><polyline clip-path="url(#clip443)" style="stroke:#009af9; stroke-width:4; stroke-opacity:1; fill:none" points="
  349.333,158.575 360.489,1138.05 371.645,1255.25 382.801,1259.84 393.957,1214.3 405.112,1178.37 416.268,1259.62 427.424,1235.89 438.58,1248.14 449.736,1328.69 
  460.892,1175.24 472.047,1163.48 483.203,1177.69 494.359,1248.99 505.515,1267.12 516.671,1194.63 527.827,1195.62 538.982,1166.83 550.138,1237.91 561.294,1266.23 
  572.45,1253.01 583.606,1215.52 594.761,1105.35 605.917,1237.37 617.073,1230.5 628.229,1276.66 639.385,1221.57 650.541,1137.87 661.696,1161.29 672.852,1219.22 
  684.008,1270.69 695.164,1250.76 706.32,1273.72 717.475,1207.34 728.631,1228.99 739.787,1212.36 750.943,1299.02 762.099,1235.61 773.255,1171.74 784.41,1193.13 
  795.566,1211.24 806.722,1207.95 817.878,1297.67 829.034,1248.17 840.19,1161.52 851.345,1116.95 862.501,1234.8 873.657,1264.39 884.813,1236.94 895.969,1194.2 
  907.124,1199.23 918.28,1178.24 929.436,1233.64 940.592,1237.77 951.748,1224.74 962.904,1131.96 974.059,1134.16 985.215,1199.78 996.371,1276.34 1007.53,1297.78 
  1018.68,1212.19 1029.84,1175.18 1040.99,1155.5 1052.15,1242.5 1063.31,1263.73 1074.46,1243.41 1085.62,1127.25 1096.77,1205.09 1107.93,1194.04 1119.09,1236.19 
  1130.24,1221.04 1141.4,1212.68 1152.55,1209.02 1163.71,1135.63 1174.86,1272.06 1186.02,1273.9 1197.18,1218.98 1208.33,1207.59 1219.49,1166.33 1230.64,1160.12 
  1241.8,1249.93 1252.95,1262.41 1264.11,1197.23 1275.27,1174.36 1286.42,1175.67 1297.58,1254.84 1308.73,1293.66 1319.89,1259.98 1331.05,1216.63 1342.2,1199.71 
  1353.36,1162.31 1364.51,1259.45 1375.67,1262.52 1386.82,1231.52 1397.98,1126.49 1409.14,1149.11 1420.29,1270.02 1431.45,1231.39 1442.6,1249.36 1453.76,1223.08 
  1464.92,1226.44 1476.07,1169.42 1487.23,1261.39 1498.38,1291.93 1509.54,1253.92 1520.69,1123.7 1531.85,1082.08 1543.01,1223.68 1554.16,1280.2 1565.32,1256.72 
  1576.47,1253.56 1587.63,1176.13 1598.79,1242.93 1609.94,1261.41 1621.1,1260.44 1632.25,1200.13 1643.41,1103.77 1654.56,1084.18 1665.72,1155.19 1676.88,1215.15 
  1688.03,1236.9 1699.19,1180.11 1710.34,1206.72 1721.5,1168.93 1732.66,1226.86 1743.81,1238.01 1754.97,1240.89 1766.12,1202.43 1777.28,1191.05 1788.43,1193.83 
  1799.59,1254.41 1810.75,1210.74 1821.9,1167.45 1833.06,1134.91 1844.21,1173.19 1855.37,1234.47 1866.53,1262.68 1877.68,1215.01 1888.84,1177.77 1899.99,1199.28 
  1911.15,1293.22 1922.3,1228.57 1933.46,1252.65 1944.62,1209.32 1955.77,1154.24 1966.93,1062.75 1978.08,1173.19 1989.24,1254.26 2000.4,1266.49 2011.55,1185.83 
  2022.71,1088.45 2033.86,1143.1 2045.02,1256.59 2056.17,1270.62 2067.33,1278.6 2078.49,1191.48 2089.64,1185.3 2100.8,1213.2 2111.95,1233 2123.11,1216.39 
  2134.26,1212.79 2145.42,1147.94 2156.58,1194.75 2167.73,1190.52 2178.89,1267.56 2190.04,1217.55 2201.2,1164.4 
  "/>
</svg>
