<?xml version="1.0" encoding="utf-8"?>
<svg xmlns="http://www.w3.org/2000/svg" xmlns:xlink="http://www.w3.org/1999/xlink" width="576" height="384" viewBox="0 0 2304 1536">
<defs>
  <clipPath id="clip470">
    <rect x="0" y="0" width="2304" height="1536"/>
  </clipPath>
</defs>
<path clip-path="url(#clip470)" d="
M0 1536 L2304 1536 L2304 0 L0 0  Z
  " fill="#ffffff" fill-rule="evenodd" fill-opacity="1"/>
<defs>
  <clipPath id="clip471">
    <rect x="460" y="0" width="1614" height="1536"/>
  </clipPath>
</defs>
<defs>
  <clipPath id="clip472">
    <rect x="293" y="123" width="1964" height="1241"/>
  </clipPath>
</defs>
<path clip-path="url(#clip470)" d="
M249.733 1359.82 L2256.76 1359.82 L2256.76 123.472 L249.733 123.472  Z
  " fill="#ffffff" fill-rule="evenodd" fill-opacity="1"/>
<defs>
  <clipPath id="clip473">
    <rect x="249" y="123" width="2008" height="1237"/>
  </clipPath>
</defs>
<polyline clip-path="url(#clip473)" style="stroke:#000000; stroke-width:2; stroke-opacity:0.1; fill:none" points="
  306.535,1359.82 306.535,123.472 
  "/>
<polyline clip-path="url(#clip473)" style="stroke:#000000; stroke-width:2; stroke-opacity:0.1; fill:none" points="
  685.602,1359.82 685.602,123.472 
  "/>
<polyline clip-path="url(#clip473)" style="stroke:#000000; stroke-width:2; stroke-opacity:0.1; fill:none" points="
  1064.67,1359.82 1064.67,123.472 
  "/>
<polyline clip-path="url(#clip473)" style="stroke:#000000; stroke-width:2; stroke-opacity:0.1; fill:none" points="
  1443.74,1359.82 1443.74,123.472 
  "/>
<polyline clip-path="url(#clip473)" style="stroke:#000000; stroke-width:2; stroke-opacity:0.1; fill:none" points="
  1822.8,1359.82 1822.8,123.472 
  "/>
<polyline clip-path="url(#clip473)" style="stroke:#000000; stroke-width:2; stroke-opacity:0.1; fill:none" points="
  2201.87,1359.82 2201.87,123.472 
  "/>
<polyline clip-path="url(#clip470)" style="stroke:#000000; stroke-width:4; stroke-opacity:1; fill:none" points="
  249.733,1359.82 2256.76,1359.82 
  "/>
<polyline clip-path="url(#clip470)" style="stroke:#000000; stroke-width:4; stroke-opacity:1; fill:none" points="
  306.535,1359.82 306.535,1344.98 
  "/>
<polyline clip-path="url(#clip470)" style="stroke:#000000; stroke-width:4; stroke-opacity:1; fill:none" points="
  685.602,1359.82 685.602,1344.98 
  "/>
<polyline clip-path="url(#clip470)" style="stroke:#000000; stroke-width:4; stroke-opacity:1; fill:none" points="
  1064.67,1359.82 1064.67,1344.98 
  "/>
<polyline clip-path="url(#clip470)" style="stroke:#000000; stroke-width:4; stroke-opacity:1; fill:none" points="
  1443.74,1359.82 1443.74,1344.98 
  "/>
<polyline clip-path="url(#clip470)" style="stroke:#000000; stroke-width:4; stroke-opacity:1; fill:none" points="
  1822.8,1359.82 1822.8,1344.98 
  "/>
<polyline clip-path="url(#clip470)" style="stroke:#000000; stroke-width:4; stroke-opacity:1; fill:none" points="
  2201.87,1359.82 2201.87,1344.98 
  "/>
<path clip-path="url(#clip470)" d="M 0 0 M306.535 1388.24 Q302.924 1388.24 301.095 1391.81 Q299.29 1395.35 299.29 1402.48 Q299.29 1409.59 301.095 1413.15 Q302.924 1416.69 306.535 1416.69 Q310.169 1416.69 311.975 1413.15 Q313.804 1409.59 313.804 1402.48 Q313.804 1395.35 311.975 1391.81 Q310.169 1388.24 306.535 1388.24 M306.535 1384.54 Q312.345 1384.54 315.401 1389.15 Q318.48 1393.73 318.48 1402.48 Q318.48 1411.21 315.401 1415.81 Q312.345 1420.4 306.535 1420.4 Q300.725 1420.4 297.646 1415.81 Q294.591 1411.21 294.591 1402.48 Q294.591 1393.73 297.646 1389.15 Q300.725 1384.54 306.535 1384.54 Z" fill="#000000" fill-rule="evenodd" fill-opacity="1" /><path clip-path="url(#clip470)" d="M 0 0 M660.29 1415.79 L667.929 1415.79 L667.929 1389.42 L659.618 1391.09 L659.618 1386.83 L667.882 1385.16 L672.558 1385.16 L672.558 1415.79 L680.197 1415.79 L680.197 1419.72 L660.29 1419.72 L660.29 1415.79 Z" fill="#000000" fill-rule="evenodd" fill-opacity="1" /><path clip-path="url(#clip470)" d="M 0 0 M699.641 1388.24 Q696.03 1388.24 694.202 1391.81 Q692.396 1395.35 692.396 1402.48 Q692.396 1409.59 694.202 1413.15 Q696.03 1416.69 699.641 1416.69 Q703.276 1416.69 705.081 1413.15 Q706.91 1409.59 706.91 1402.48 Q706.91 1395.35 705.081 1391.81 Q703.276 1388.24 699.641 1388.24 M699.641 1384.54 Q705.451 1384.54 708.507 1389.15 Q711.586 1393.73 711.586 1402.48 Q711.586 1411.21 708.507 1415.81 Q705.451 1420.4 699.641 1420.4 Q693.831 1420.4 690.752 1415.81 Q687.697 1411.21 687.697 1402.48 Q687.697 1393.73 690.752 1389.15 Q693.831 1384.54 699.641 1384.54 Z" fill="#000000" fill-rule="evenodd" fill-opacity="1" /><path clip-path="url(#clip470)" d="M 0 0 M1043.44 1415.79 L1059.76 1415.79 L1059.76 1419.72 L1037.82 1419.72 L1037.82 1415.79 Q1040.48 1413.03 1045.06 1408.4 Q1049.67 1403.75 1050.85 1402.41 Q1053.09 1399.89 1053.97 1398.15 Q1054.88 1396.39 1054.88 1394.7 Q1054.88 1391.95 1052.93 1390.21 Q1051.01 1388.47 1047.91 1388.47 Q1045.71 1388.47 1043.26 1389.24 Q1040.83 1390 1038.05 1391.55 L1038.05 1386.83 Q1040.87 1385.7 1043.33 1385.12 Q1045.78 1384.54 1047.82 1384.54 Q1053.19 1384.54 1056.38 1387.22 Q1059.58 1389.91 1059.58 1394.4 Q1059.58 1396.53 1058.77 1398.45 Q1057.98 1400.35 1055.87 1402.94 Q1055.29 1403.61 1052.19 1406.83 Q1049.09 1410.02 1043.44 1415.79 Z" fill="#000000" fill-rule="evenodd" fill-opacity="1" /><path clip-path="url(#clip470)" d="M 0 0 M1079.58 1388.24 Q1075.97 1388.24 1074.14 1391.81 Q1072.33 1395.35 1072.33 1402.48 Q1072.33 1409.59 1074.14 1413.15 Q1075.97 1416.69 1079.58 1416.69 Q1083.21 1416.69 1085.02 1413.15 Q1086.84 1409.59 1086.84 1402.48 Q1086.84 1395.35 1085.02 1391.81 Q1083.21 1388.24 1079.58 1388.24 M1079.58 1384.54 Q1085.39 1384.54 1088.44 1389.15 Q1091.52 1393.73 1091.52 1402.48 Q1091.52 1411.21 1088.44 1415.81 Q1085.39 1420.4 1079.58 1420.4 Q1073.77 1420.4 1070.69 1415.81 Q1067.63 1411.21 1067.63 1402.48 Q1067.63 1393.73 1070.69 1389.15 Q1073.77 1384.54 1079.58 1384.54 Z" fill="#000000" fill-rule="evenodd" fill-opacity="1" /><path clip-path="url(#clip470)" d="M 0 0 M1432.58 1401.09 Q1435.94 1401.81 1437.81 1404.08 Q1439.71 1406.34 1439.71 1409.68 Q1439.71 1414.79 1436.19 1417.59 Q1432.67 1420.4 1426.19 1420.4 Q1424.01 1420.4 1421.7 1419.96 Q1419.41 1419.54 1416.95 1418.68 L1416.95 1414.17 Q1418.9 1415.3 1421.21 1415.88 Q1423.53 1416.46 1426.05 1416.46 Q1430.45 1416.46 1432.74 1414.72 Q1435.06 1412.99 1435.06 1409.68 Q1435.06 1406.62 1432.9 1404.91 Q1430.77 1403.17 1426.95 1403.17 L1422.93 1403.17 L1422.93 1399.33 L1427.14 1399.33 Q1430.59 1399.33 1432.42 1397.96 Q1434.25 1396.58 1434.25 1393.98 Q1434.25 1391.32 1432.35 1389.91 Q1430.47 1388.47 1426.95 1388.47 Q1425.03 1388.47 1422.83 1388.89 Q1420.63 1389.31 1418 1390.19 L1418 1386.02 Q1420.66 1385.28 1422.97 1384.91 Q1425.31 1384.54 1427.37 1384.54 Q1432.69 1384.54 1435.8 1386.97 Q1438.9 1389.38 1438.9 1393.5 Q1438.9 1396.37 1437.25 1398.36 Q1435.61 1400.33 1432.58 1401.09 Z" fill="#000000" fill-rule="evenodd" fill-opacity="1" /><path clip-path="url(#clip470)" d="M 0 0 M1458.57 1388.24 Q1454.96 1388.24 1453.13 1391.81 Q1451.33 1395.35 1451.33 1402.48 Q1451.33 1409.59 1453.13 1413.15 Q1454.96 1416.69 1458.57 1416.69 Q1462.21 1416.69 1464.01 1413.15 Q1465.84 1409.59 1465.84 1402.48 Q1465.84 1395.35 1464.01 1391.81 Q1462.21 1388.24 1458.57 1388.24 M1458.57 1384.54 Q1464.38 1384.54 1467.44 1389.15 Q1470.52 1393.73 1470.52 1402.48 Q1470.52 1411.21 1467.44 1415.81 Q1464.38 1420.4 1458.57 1420.4 Q1452.76 1420.4 1449.68 1415.81 Q1446.63 1411.21 1446.63 1402.48 Q1446.63 1393.73 1449.68 1389.15 Q1452.76 1384.54 1458.57 1384.54 Z" fill="#000000" fill-rule="evenodd" fill-opacity="1" /><path clip-path="url(#clip470)" d="M 0 0 M1810.97 1389.24 L1799.17 1407.69 L1810.97 1407.69 L1810.97 1389.24 M1809.75 1385.16 L1815.63 1385.16 L1815.63 1407.69 L1820.56 1407.69 L1820.56 1411.58 L1815.63 1411.58 L1815.63 1419.72 L1810.97 1419.72 L1810.97 1411.58 L1795.37 1411.58 L1795.37 1407.06 L1809.75 1385.16 Z" fill="#000000" fill-rule="evenodd" fill-opacity="1" /><path clip-path="url(#clip470)" d="M 0 0 M1838.29 1388.24 Q1834.68 1388.24 1832.85 1391.81 Q1831.04 1395.35 1831.04 1402.48 Q1831.04 1409.59 1832.85 1413.15 Q1834.68 1416.69 1838.29 1416.69 Q1841.92 1416.69 1843.73 1413.15 Q1845.56 1409.59 1845.56 1402.48 Q1845.56 1395.35 1843.73 1391.81 Q1841.92 1388.24 1838.29 1388.24 M1838.29 1384.54 Q1844.1 1384.54 1847.15 1389.15 Q1850.23 1393.73 1850.23 1402.48 Q1850.23 1411.21 1847.15 1415.81 Q1844.1 1420.4 1838.29 1420.4 Q1832.48 1420.4 1829.4 1415.81 Q1826.34 1411.21 1826.34 1402.48 Q1826.34 1393.73 1829.4 1389.15 Q1832.48 1384.54 1838.29 1384.54 Z" fill="#000000" fill-rule="evenodd" fill-opacity="1" /><path clip-path="url(#clip470)" d="M 0 0 M2176.57 1385.16 L2194.93 1385.16 L2194.93 1389.1 L2180.85 1389.1 L2180.85 1397.57 Q2181.87 1397.22 2182.89 1397.06 Q2183.91 1396.88 2184.93 1396.88 Q2190.71 1396.88 2194.09 1400.05 Q2197.47 1403.22 2197.47 1408.64 Q2197.47 1414.21 2194 1417.32 Q2190.53 1420.4 2184.21 1420.4 Q2182.03 1420.4 2179.76 1420.02 Q2177.52 1419.65 2175.11 1418.91 L2175.11 1414.21 Q2177.19 1415.35 2179.42 1415.9 Q2181.64 1416.46 2184.12 1416.46 Q2188.12 1416.46 2190.46 1414.35 Q2192.8 1412.25 2192.8 1408.64 Q2192.8 1405.02 2190.46 1402.92 Q2188.12 1400.81 2184.12 1400.81 Q2182.24 1400.81 2180.37 1401.23 Q2178.51 1401.65 2176.57 1402.52 L2176.57 1385.16 Z" fill="#000000" fill-rule="evenodd" fill-opacity="1" /><path clip-path="url(#clip470)" d="M 0 0 M2216.68 1388.24 Q2213.07 1388.24 2211.24 1391.81 Q2209.44 1395.35 2209.44 1402.48 Q2209.44 1409.59 2211.24 1413.15 Q2213.07 1416.69 2216.68 1416.69 Q2220.32 1416.69 2222.12 1413.15 Q2223.95 1409.59 2223.95 1402.48 Q2223.95 1395.35 2222.12 1391.81 Q2220.32 1388.24 2216.68 1388.24 M2216.68 1384.54 Q2222.49 1384.54 2225.55 1389.15 Q2228.63 1393.73 2228.63 1402.48 Q2228.63 1411.21 2225.55 1415.81 Q2222.49 1420.4 2216.68 1420.4 Q2210.87 1420.4 2207.8 1415.81 Q2204.74 1411.21 2204.74 1402.48 Q2204.74 1393.73 2207.8 1389.15 Q2210.87 1384.54 2216.68 1384.54 Z" fill="#000000" fill-rule="evenodd" fill-opacity="1" /><path clip-path="url(#clip470)" d="M 0 0 M1013.35 1453.72 L1013.35 1458.59 L1007.75 1458.59 Q1004.6 1458.59 1003.36 1459.86 Q1002.15 1461.13 1002.15 1464.44 L1002.15 1467.6 L1011.79 1467.6 L1011.79 1472.15 L1002.15 1472.15 L1002.15 1503.24 L996.261 1503.24 L996.261 1472.15 L990.659 1472.15 L990.659 1467.6 L996.261 1467.6 L996.261 1465.11 Q996.261 1459.16 999.03 1456.46 Q1001.8 1453.72 1007.81 1453.72 L1013.35 1453.72 Z" fill="#000000" fill-rule="evenodd" fill-opacity="1" /><path clip-path="url(#clip470)" d="M 0 0 M1038.91 1473.07 Q1037.92 1472.5 1036.75 1472.24 Q1035.6 1471.96 1034.2 1471.96 Q1029.24 1471.96 1026.56 1475.2 Q1023.92 1478.42 1023.92 1484.47 L1023.92 1503.24 L1018.03 1503.24 L1018.03 1467.6 L1023.92 1467.6 L1023.92 1473.13 Q1025.77 1469.89 1028.73 1468.33 Q1031.69 1466.74 1035.92 1466.74 Q1036.52 1466.74 1037.26 1466.83 Q1037.99 1466.9 1038.88 1467.05 L1038.91 1473.07 Z" fill="#000000" fill-rule="evenodd" fill-opacity="1" /><path clip-path="url(#clip470)" d="M 0 0 M1074.11 1483.96 L1074.11 1486.82 L1047.19 1486.82 Q1047.57 1492.87 1050.81 1496.05 Q1054.09 1499.2 1059.92 1499.2 Q1063.29 1499.2 1066.44 1498.37 Q1069.63 1497.55 1072.74 1495.89 L1072.74 1501.43 Q1069.59 1502.77 1066.28 1503.47 Q1062.97 1504.17 1059.57 1504.17 Q1051.04 1504.17 1046.04 1499.2 Q1041.08 1494.24 1041.08 1485.77 Q1041.08 1477.02 1045.79 1471.89 Q1050.53 1466.74 1058.55 1466.74 Q1065.74 1466.74 1069.91 1471.38 Q1074.11 1476 1074.11 1483.96 M1068.26 1482.24 Q1068.19 1477.43 1065.55 1474.57 Q1062.94 1471.7 1058.61 1471.7 Q1053.71 1471.7 1050.75 1474.47 Q1047.82 1477.24 1047.38 1482.27 L1068.26 1482.24 Z" fill="#000000" fill-rule="evenodd" fill-opacity="1" /><path clip-path="url(#clip470)" d="M 0 0 M1087.23 1485.45 Q1087.23 1491.91 1089.87 1495.6 Q1092.54 1499.27 1097.19 1499.27 Q1101.84 1499.27 1104.51 1495.6 Q1107.18 1491.91 1107.18 1485.45 Q1107.18 1478.99 1104.51 1475.33 Q1101.84 1471.64 1097.19 1471.64 Q1092.54 1471.64 1089.87 1475.33 Q1087.23 1478.99 1087.23 1485.45 M1107.18 1497.9 Q1105.34 1501.08 1102.5 1502.64 Q1099.7 1504.17 1095.76 1504.17 Q1089.3 1504.17 1085.22 1499.01 Q1081.18 1493.85 1081.18 1485.45 Q1081.18 1477.05 1085.22 1471.89 Q1089.3 1466.74 1095.76 1466.74 Q1099.7 1466.74 1102.5 1468.3 Q1105.34 1469.82 1107.18 1473.01 L1107.18 1467.6 L1113.04 1467.6 L1113.04 1516.8 L1107.18 1516.8 L1107.18 1497.9 Z" fill="#000000" fill-rule="evenodd" fill-opacity="1" /><path clip-path="url(#clip470)" d="M 0 0 M1124.5 1489.18 L1124.5 1467.6 L1130.35 1467.6 L1130.35 1488.95 Q1130.35 1494.01 1132.33 1496.56 Q1134.3 1499.07 1138.25 1499.07 Q1142.99 1499.07 1145.73 1496.05 Q1148.5 1493.03 1148.5 1487.81 L1148.5 1467.6 L1154.35 1467.6 L1154.35 1503.24 L1148.5 1503.24 L1148.5 1497.77 Q1146.36 1501.02 1143.53 1502.61 Q1140.73 1504.17 1137.01 1504.17 Q1130.86 1504.17 1127.68 1500.35 Q1124.5 1496.53 1124.5 1489.18 M1139.23 1466.74 L1139.23 1466.74 Z" fill="#000000" fill-rule="evenodd" fill-opacity="1" /><path clip-path="url(#clip470)" d="M 0 0 M1196.91 1483.96 L1196.91 1486.82 L1169.98 1486.82 Q1170.36 1492.87 1173.61 1496.05 Q1176.89 1499.2 1182.71 1499.2 Q1186.09 1499.2 1189.24 1498.37 Q1192.42 1497.55 1195.54 1495.89 L1195.54 1501.43 Q1192.39 1502.77 1189.08 1503.47 Q1185.77 1504.17 1182.36 1504.17 Q1173.83 1504.17 1168.83 1499.2 Q1163.87 1494.24 1163.87 1485.77 Q1163.87 1477.02 1168.58 1471.89 Q1173.32 1466.74 1181.34 1466.74 Q1188.54 1466.74 1192.71 1471.38 Q1196.91 1476 1196.91 1483.96 M1191.05 1482.24 Q1190.99 1477.43 1188.35 1474.57 Q1185.74 1471.7 1181.41 1471.7 Q1176.51 1471.7 1173.55 1474.47 Q1170.62 1477.24 1170.17 1482.27 L1191.05 1482.24 Z" fill="#000000" fill-rule="evenodd" fill-opacity="1" /><path clip-path="url(#clip470)" d="M 0 0 M1236.15 1481.73 L1236.15 1503.24 L1230.3 1503.24 L1230.3 1481.92 Q1230.3 1476.86 1228.32 1474.34 Q1226.35 1471.83 1222.4 1471.83 Q1217.66 1471.83 1214.92 1474.85 Q1212.19 1477.88 1212.19 1483.1 L1212.19 1503.24 L1206.3 1503.24 L1206.3 1467.6 L1212.19 1467.6 L1212.19 1473.13 Q1214.29 1469.92 1217.12 1468.33 Q1219.98 1466.74 1223.71 1466.74 Q1229.85 1466.74 1233 1470.56 Q1236.15 1474.34 1236.15 1481.73 Z" fill="#000000" fill-rule="evenodd" fill-opacity="1" /><path clip-path="url(#clip470)" d="M 0 0 M1273.49 1468.96 L1273.49 1474.44 Q1271 1473.07 1268.49 1472.4 Q1266.01 1471.7 1263.46 1471.7 Q1257.76 1471.7 1254.61 1475.33 Q1251.46 1478.93 1251.46 1485.45 Q1251.46 1491.98 1254.61 1495.6 Q1257.76 1499.2 1263.46 1499.2 Q1266.01 1499.2 1268.49 1498.53 Q1271 1497.83 1273.49 1496.46 L1273.49 1501.88 Q1271.04 1503.02 1268.39 1503.59 Q1265.78 1504.17 1262.82 1504.17 Q1254.77 1504.17 1250.03 1499.11 Q1245.29 1494.05 1245.29 1485.45 Q1245.29 1476.73 1250.06 1471.73 Q1254.87 1466.74 1263.21 1466.74 Q1265.91 1466.74 1268.49 1467.31 Q1271.07 1467.85 1273.49 1468.96 Z" fill="#000000" fill-rule="evenodd" fill-opacity="1" /><path clip-path="url(#clip470)" d="M 0 0 M1298.5 1506.55 Q1296.02 1512.92 1293.67 1514.86 Q1291.31 1516.8 1287.36 1516.8 L1282.69 1516.8 L1282.69 1511.9 L1286.12 1511.9 Q1288.54 1511.9 1289.88 1510.76 Q1291.22 1509.61 1292.84 1505.34 L1293.89 1502.67 L1279.47 1467.6 L1285.68 1467.6 L1296.82 1495.48 L1307.96 1467.6 L1314.16 1467.6 L1298.5 1506.55 Z" fill="#000000" fill-rule="evenodd" fill-opacity="1" /><path clip-path="url(#clip470)" d="M 0 0 M1357.04 1453.78 Q1352.77 1461.1 1350.7 1468.26 Q1348.63 1475.43 1348.63 1482.78 Q1348.63 1490.13 1350.7 1497.36 Q1352.8 1504.55 1357.04 1511.84 L1351.94 1511.84 Q1347.17 1504.36 1344.78 1497.13 Q1342.43 1489.91 1342.43 1482.78 Q1342.43 1475.68 1344.78 1468.49 Q1347.14 1461.29 1351.94 1453.78 L1357.04 1453.78 Z" fill="#000000" fill-rule="evenodd" fill-opacity="1" /><path clip-path="url(#clip470)" d="M 0 0 M1401.06 1496.46 L1401.06 1483.7 L1390.55 1483.7 L1390.55 1478.42 L1407.42 1478.42 L1407.42 1498.82 Q1403.7 1501.46 1399.21 1502.83 Q1394.72 1504.17 1389.63 1504.17 Q1378.49 1504.17 1372.19 1497.67 Q1365.92 1491.15 1365.92 1479.53 Q1365.92 1467.88 1372.19 1461.39 Q1378.49 1454.86 1389.63 1454.86 Q1394.28 1454.86 1398.45 1456.01 Q1402.65 1457.16 1406.18 1459.38 L1406.18 1466.23 Q1402.62 1463.2 1398.61 1461.68 Q1394.59 1460.15 1390.17 1460.15 Q1381.45 1460.15 1377.06 1465.02 Q1372.7 1469.89 1372.7 1479.53 Q1372.7 1489.14 1377.06 1494.01 Q1381.45 1498.88 1390.17 1498.88 Q1393.58 1498.88 1396.25 1498.31 Q1398.92 1497.71 1401.06 1496.46 Z" fill="#000000" fill-rule="evenodd" fill-opacity="1" /><path clip-path="url(#clip470)" d="M 0 0 M1419.17 1455.72 L1425.6 1455.72 L1425.6 1475.2 L1448.96 1475.2 L1448.96 1455.72 L1455.39 1455.72 L1455.39 1503.24 L1448.96 1503.24 L1448.96 1480.61 L1425.6 1480.61 L1425.6 1503.24 L1419.17 1503.24 L1419.17 1455.72 Z" fill="#000000" fill-rule="evenodd" fill-opacity="1" /><path clip-path="url(#clip470)" d="M 0 0 M1465.38 1467.6 L1493.2 1467.6 L1493.2 1472.94 L1471.17 1498.57 L1493.2 1498.57 L1493.2 1503.24 L1464.59 1503.24 L1464.59 1497.9 L1486.61 1472.27 L1465.38 1472.27 L1465.38 1467.6 Z" fill="#000000" fill-rule="evenodd" fill-opacity="1" /><path clip-path="url(#clip470)" d="M 0 0 M1501.22 1453.78 L1506.31 1453.78 Q1511.09 1461.29 1513.44 1468.49 Q1515.83 1475.68 1515.83 1482.78 Q1515.83 1489.91 1513.44 1497.13 Q1511.09 1504.36 1506.31 1511.84 L1501.22 1511.84 Q1505.45 1504.55 1507.52 1497.36 Q1509.62 1490.13 1509.62 1482.78 Q1509.62 1475.43 1507.52 1468.26 Q1505.45 1461.1 1501.22 1453.78 Z" fill="#000000" fill-rule="evenodd" fill-opacity="1" /><polyline clip-path="url(#clip473)" style="stroke:#000000; stroke-width:2; stroke-opacity:0.1; fill:none" points="
  249.733,1324.83 2256.76,1324.83 
  "/>
<polyline clip-path="url(#clip473)" style="stroke:#000000; stroke-width:2; stroke-opacity:0.1; fill:none" points="
  249.733,1076.54 2256.76,1076.54 
  "/>
<polyline clip-path="url(#clip473)" style="stroke:#000000; stroke-width:2; stroke-opacity:0.1; fill:none" points="
  249.733,828.259 2256.76,828.259 
  "/>
<polyline clip-path="url(#clip473)" style="stroke:#000000; stroke-width:2; stroke-opacity:0.1; fill:none" points="
  249.733,579.974 2256.76,579.974 
  "/>
<polyline clip-path="url(#clip473)" style="stroke:#000000; stroke-width:2; stroke-opacity:0.1; fill:none" points="
  249.733,331.689 2256.76,331.689 
  "/>
<polyline clip-path="url(#clip470)" style="stroke:#000000; stroke-width:4; stroke-opacity:1; fill:none" points="
  249.733,1359.82 249.733,123.472 
  "/>
<polyline clip-path="url(#clip470)" style="stroke:#000000; stroke-width:4; stroke-opacity:1; fill:none" points="
  249.733,1324.83 273.817,1324.83 
  "/>
<polyline clip-path="url(#clip470)" style="stroke:#000000; stroke-width:4; stroke-opacity:1; fill:none" points="
  249.733,1076.54 273.817,1076.54 
  "/>
<polyline clip-path="url(#clip470)" style="stroke:#000000; stroke-width:4; stroke-opacity:1; fill:none" points="
  249.733,828.259 273.817,828.259 
  "/>
<polyline clip-path="url(#clip470)" style="stroke:#000000; stroke-width:4; stroke-opacity:1; fill:none" points="
  249.733,579.974 273.817,579.974 
  "/>
<polyline clip-path="url(#clip470)" style="stroke:#000000; stroke-width:4; stroke-opacity:1; fill:none" points="
  249.733,331.689 273.817,331.689 
  "/>
<path clip-path="url(#clip470)" d="M 0 0 M203.228 1310.63 Q199.617 1310.63 197.788 1314.19 Q195.983 1317.73 195.983 1324.86 Q195.983 1331.97 197.788 1335.53 Q199.617 1339.08 203.228 1339.08 Q206.862 1339.08 208.668 1335.53 Q210.497 1331.97 210.497 1324.86 Q210.497 1317.73 208.668 1314.19 Q206.862 1310.63 203.228 1310.63 M203.228 1306.92 Q209.038 1306.92 212.094 1311.53 Q215.173 1316.11 215.173 1324.86 Q215.173 1333.59 212.094 1338.2 Q209.038 1342.78 203.228 1342.78 Q197.418 1342.78 194.339 1338.2 Q191.284 1333.59 191.284 1324.86 Q191.284 1316.11 194.339 1311.53 Q197.418 1306.92 203.228 1306.92 Z" fill="#000000" fill-rule="evenodd" fill-opacity="1" /><path clip-path="url(#clip470)" d="M 0 0 M136.932 1089.89 L153.252 1089.89 L153.252 1093.82 L131.307 1093.82 L131.307 1089.89 Q133.969 1087.13 138.553 1082.5 Q143.159 1077.85 144.34 1076.51 Q146.585 1073.99 147.465 1072.25 Q148.367 1070.49 148.367 1068.8 Q148.367 1066.05 146.423 1064.31 Q144.502 1062.57 141.4 1062.57 Q139.201 1062.57 136.747 1063.34 Q134.317 1064.1 131.539 1065.65 L131.539 1060.93 Q134.363 1059.8 136.817 1059.22 Q139.27 1058.64 141.307 1058.64 Q146.678 1058.64 149.872 1061.32 Q153.066 1064.01 153.066 1068.5 Q153.066 1070.63 152.256 1072.55 Q151.469 1074.45 149.363 1077.04 Q148.784 1077.71 145.682 1080.93 Q142.58 1084.12 136.932 1089.89 Z" fill="#000000" fill-rule="evenodd" fill-opacity="1" /><path clip-path="url(#clip470)" d="M 0 0 M173.066 1062.34 Q169.455 1062.34 167.627 1065.91 Q165.821 1069.45 165.821 1076.58 Q165.821 1083.68 167.627 1087.25 Q169.455 1090.79 173.066 1090.79 Q176.701 1090.79 178.506 1087.25 Q180.335 1083.68 180.335 1076.58 Q180.335 1069.45 178.506 1065.91 Q176.701 1062.34 173.066 1062.34 M173.066 1058.64 Q178.876 1058.64 181.932 1063.25 Q185.011 1067.83 185.011 1076.58 Q185.011 1085.31 181.932 1089.91 Q178.876 1094.5 173.066 1094.5 Q167.256 1094.5 164.177 1089.91 Q161.122 1085.31 161.122 1076.58 Q161.122 1067.83 164.177 1063.25 Q167.256 1058.64 173.066 1058.64 Z" fill="#000000" fill-rule="evenodd" fill-opacity="1" /><path clip-path="url(#clip470)" d="M 0 0 M203.228 1062.34 Q199.617 1062.34 197.788 1065.91 Q195.983 1069.45 195.983 1076.58 Q195.983 1083.68 197.788 1087.25 Q199.617 1090.79 203.228 1090.79 Q206.862 1090.79 208.668 1087.25 Q210.497 1083.68 210.497 1076.58 Q210.497 1069.45 208.668 1065.91 Q206.862 1062.34 203.228 1062.34 M203.228 1058.64 Q209.038 1058.64 212.094 1063.25 Q215.173 1067.83 215.173 1076.58 Q215.173 1085.31 212.094 1089.91 Q209.038 1094.5 203.228 1094.5 Q197.418 1094.5 194.339 1089.91 Q191.284 1085.31 191.284 1076.58 Q191.284 1067.83 194.339 1063.25 Q197.418 1058.64 203.228 1058.64 Z" fill="#000000" fill-rule="evenodd" fill-opacity="1" /><path clip-path="url(#clip470)" d="M 0 0 M145.752 815.053 L133.946 833.502 L145.752 833.502 L145.752 815.053 M144.525 810.979 L150.404 810.979 L150.404 833.502 L155.335 833.502 L155.335 837.391 L150.404 837.391 L150.404 845.539 L145.752 845.539 L145.752 837.391 L130.15 837.391 L130.15 832.877 L144.525 810.979 Z" fill="#000000" fill-rule="evenodd" fill-opacity="1" /><path clip-path="url(#clip470)" d="M 0 0 M173.066 814.057 Q169.455 814.057 167.627 817.622 Q165.821 821.164 165.821 828.293 Q165.821 835.4 167.627 838.965 Q169.455 842.506 173.066 842.506 Q176.701 842.506 178.506 838.965 Q180.335 835.4 180.335 828.293 Q180.335 821.164 178.506 817.622 Q176.701 814.057 173.066 814.057 M173.066 810.354 Q178.876 810.354 181.932 814.96 Q185.011 819.543 185.011 828.293 Q185.011 837.02 181.932 841.627 Q178.876 846.21 173.066 846.21 Q167.256 846.21 164.177 841.627 Q161.122 837.02 161.122 828.293 Q161.122 819.543 164.177 814.96 Q167.256 810.354 173.066 810.354 Z" fill="#000000" fill-rule="evenodd" fill-opacity="1" /><path clip-path="url(#clip470)" d="M 0 0 M203.228 814.057 Q199.617 814.057 197.788 817.622 Q195.983 821.164 195.983 828.293 Q195.983 835.4 197.788 838.965 Q199.617 842.506 203.228 842.506 Q206.862 842.506 208.668 838.965 Q210.497 835.4 210.497 828.293 Q210.497 821.164 208.668 817.622 Q206.862 814.057 203.228 814.057 M203.228 810.354 Q209.038 810.354 212.094 814.96 Q215.173 819.543 215.173 828.293 Q215.173 837.02 212.094 841.627 Q209.038 846.21 203.228 846.21 Q197.418 846.21 194.339 841.627 Q191.284 837.02 191.284 828.293 Q191.284 819.543 194.339 814.96 Q197.418 810.354 203.228 810.354 Z" fill="#000000" fill-rule="evenodd" fill-opacity="1" /><path clip-path="url(#clip470)" d="M 0 0 M143.483 578.11 Q140.335 578.11 138.483 580.263 Q136.654 582.416 136.654 586.166 Q136.654 589.893 138.483 592.068 Q140.335 594.221 143.483 594.221 Q146.631 594.221 148.46 592.068 Q150.312 589.893 150.312 586.166 Q150.312 582.416 148.46 580.263 Q146.631 578.11 143.483 578.11 M152.766 563.458 L152.766 567.717 Q151.006 566.883 149.201 566.444 Q147.418 566.004 145.659 566.004 Q141.029 566.004 138.576 569.129 Q136.145 572.254 135.798 578.573 Q137.164 576.559 139.224 575.494 Q141.284 574.407 143.761 574.407 Q148.969 574.407 151.978 577.578 Q155.011 580.726 155.011 586.166 Q155.011 591.49 151.863 594.707 Q148.715 597.925 143.483 597.925 Q137.488 597.925 134.317 593.342 Q131.145 588.735 131.145 580.008 Q131.145 571.814 135.034 566.953 Q138.923 562.069 145.474 562.069 Q147.233 562.069 149.016 562.416 Q150.821 562.763 152.766 563.458 Z" fill="#000000" fill-rule="evenodd" fill-opacity="1" /><path clip-path="url(#clip470)" d="M 0 0 M173.066 565.772 Q169.455 565.772 167.627 569.337 Q165.821 572.879 165.821 580.008 Q165.821 587.115 167.627 590.68 Q169.455 594.221 173.066 594.221 Q176.701 594.221 178.506 590.68 Q180.335 587.115 180.335 580.008 Q180.335 572.879 178.506 569.337 Q176.701 565.772 173.066 565.772 M173.066 562.069 Q178.876 562.069 181.932 566.675 Q185.011 571.258 185.011 580.008 Q185.011 588.735 181.932 593.342 Q178.876 597.925 173.066 597.925 Q167.256 597.925 164.177 593.342 Q161.122 588.735 161.122 580.008 Q161.122 571.258 164.177 566.675 Q167.256 562.069 173.066 562.069 Z" fill="#000000" fill-rule="evenodd" fill-opacity="1" /><path clip-path="url(#clip470)" d="M 0 0 M203.228 565.772 Q199.617 565.772 197.788 569.337 Q195.983 572.879 195.983 580.008 Q195.983 587.115 197.788 590.68 Q199.617 594.221 203.228 594.221 Q206.862 594.221 208.668 590.68 Q210.497 587.115 210.497 580.008 Q210.497 572.879 208.668 569.337 Q206.862 565.772 203.228 565.772 M203.228 562.069 Q209.038 562.069 212.094 566.675 Q215.173 571.258 215.173 580.008 Q215.173 588.735 212.094 593.342 Q209.038 597.925 203.228 597.925 Q197.418 597.925 194.339 593.342 Q191.284 588.735 191.284 580.008 Q191.284 571.258 194.339 566.675 Q197.418 562.069 203.228 562.069 Z" fill="#000000" fill-rule="evenodd" fill-opacity="1" /><path clip-path="url(#clip470)" d="M 0 0 M142.904 332.557 Q139.571 332.557 137.65 334.339 Q135.752 336.121 135.752 339.246 Q135.752 342.371 137.65 344.154 Q139.571 345.936 142.904 345.936 Q146.238 345.936 148.159 344.154 Q150.08 342.348 150.08 339.246 Q150.08 336.121 148.159 334.339 Q146.261 332.557 142.904 332.557 M138.229 330.566 Q135.219 329.825 133.53 327.765 Q131.863 325.705 131.863 322.742 Q131.863 318.598 134.803 316.191 Q137.766 313.784 142.904 313.784 Q148.066 313.784 151.006 316.191 Q153.946 318.598 153.946 322.742 Q153.946 325.705 152.256 327.765 Q150.59 329.825 147.604 330.566 Q150.983 331.353 152.858 333.645 Q154.756 335.936 154.756 339.246 Q154.756 344.27 151.678 346.955 Q148.622 349.64 142.904 349.64 Q137.187 349.64 134.108 346.955 Q131.053 344.27 131.053 339.246 Q131.053 335.936 132.951 333.645 Q134.849 331.353 138.229 330.566 M136.516 323.182 Q136.516 325.867 138.182 327.371 Q139.872 328.876 142.904 328.876 Q145.914 328.876 147.604 327.371 Q149.316 325.867 149.316 323.182 Q149.316 320.496 147.604 318.992 Q145.914 317.487 142.904 317.487 Q139.872 317.487 138.182 318.992 Q136.516 320.496 136.516 323.182 Z" fill="#000000" fill-rule="evenodd" fill-opacity="1" /><path clip-path="url(#clip470)" d="M 0 0 M173.066 317.487 Q169.455 317.487 167.627 321.052 Q165.821 324.594 165.821 331.723 Q165.821 338.83 167.627 342.395 Q169.455 345.936 173.066 345.936 Q176.701 345.936 178.506 342.395 Q180.335 338.83 180.335 331.723 Q180.335 324.594 178.506 321.052 Q176.701 317.487 173.066 317.487 M173.066 313.784 Q178.876 313.784 181.932 318.39 Q185.011 322.973 185.011 331.723 Q185.011 340.45 181.932 345.057 Q178.876 349.64 173.066 349.64 Q167.256 349.64 164.177 345.057 Q161.122 340.45 161.122 331.723 Q161.122 322.973 164.177 318.39 Q167.256 313.784 173.066 313.784 Z" fill="#000000" fill-rule="evenodd" fill-opacity="1" /><path clip-path="url(#clip470)" d="M 0 0 M203.228 317.487 Q199.617 317.487 197.788 321.052 Q195.983 324.594 195.983 331.723 Q195.983 338.83 197.788 342.395 Q199.617 345.936 203.228 345.936 Q206.862 345.936 208.668 342.395 Q210.497 338.83 210.497 331.723 Q210.497 324.594 208.668 321.052 Q206.862 317.487 203.228 317.487 M203.228 313.784 Q209.038 313.784 212.094 318.39 Q215.173 322.973 215.173 331.723 Q215.173 340.45 212.094 345.057 Q209.038 349.64 203.228 349.64 Q197.418 349.64 194.339 345.057 Q191.284 340.45 191.284 331.723 Q191.284 322.973 194.339 318.39 Q197.418 313.784 203.228 313.784 Z" fill="#000000" fill-rule="evenodd" fill-opacity="1" /><path clip-path="url(#clip470)" d="M 0 0 M51.61 806.247 L52.5343 806.81 Q51.0239 810.305 48.6117 814.656 Q51.0239 819.007 52.5343 822.501 L51.61 823.042 Q48.296 819.232 45.7486 814.656 Q48.3186 810.034 51.61 806.247 Z" fill="#000000" fill-rule="evenodd" fill-opacity="1" /><path clip-path="url(#clip470)" d="M 0 0 M62.6398 803.737 Q62.672 803.737 63.8314 803.931 L93.1066 811.274 Q94.6524 811.66 96.1983 812.755 Q97.7764 813.818 99.129 815.525 Q100.514 817.199 101.351 819.776 Q102.221 822.32 102.221 825.251 Q102.221 829.921 101.222 831.982 Q100.256 834.011 98.1951 834.011 Q96.3916 834.011 95.361 832.884 Q94.3626 831.757 94.3626 830.468 Q94.3626 829.244 95.0711 828.6 Q95.7796 827.956 96.6814 827.956 Q97.6798 827.956 98.6782 828.633 Q99.7088 829.309 100.095 830.662 Q100.772 828.504 100.772 825.38 Q100.772 818.778 93.7829 815.943 Q93.6863 815.879 93.6541 815.879 L84.9263 813.689 L84.8619 813.786 Q85.506 814.333 86.2467 815.203 Q86.9552 816.04 87.8248 817.844 Q88.6944 819.647 88.6944 821.418 Q88.6944 825.122 85.8602 827.666 Q82.9939 830.178 78.2597 830.178 Q74.8136 830.178 71.3676 828.794 Q67.8894 827.377 65.3451 825.187 Q62.7686 822.964 61.1583 820.13 Q59.548 817.264 59.548 814.494 Q59.548 812.562 60.7075 810.919 Q61.8347 809.277 63.7026 808.375 Q62.1567 808.214 61.5126 807.344 Q60.8685 806.443 60.8685 805.67 Q60.8685 804.8 61.3516 804.285 Q61.8025 803.737 62.6398 803.737 M66.6655 809.148 Q66.4723 809.148 65.957 809.277 Q65.4095 809.406 64.54 809.792 Q63.6704 810.146 62.8975 810.694 Q62.1245 811.241 61.577 812.24 Q60.9973 813.206 60.9973 814.43 Q60.9973 816.427 62.672 818.423 Q64.3145 820.42 66.8588 821.805 Q69.3064 823.093 74.0407 824.317 Q78.7749 825.509 81.1904 825.509 Q83.5736 825.509 85.4094 824.478 Q87.2451 823.447 87.2451 821.225 Q87.2451 818.649 84.8619 815.879 Q82.382 813.013 80.2564 812.53 L67.6639 809.341 Q66.891 809.148 66.6655 809.148 Z" fill="#000000" fill-rule="evenodd" fill-opacity="1" /><path clip-path="url(#clip470)" d="M 0 0 M33.3852 795.622 Q25.5849 795.622 19.2951 792.713 Q16.6574 791.474 14.4481 789.738 Q12.2388 788.002 11.2694 786.852 Q10.3 785.702 10.3 785.387 Q10.3 784.936 10.7509 784.913 Q10.9763 784.913 11.5399 785.522 Q19.1148 792.961 33.3852 792.939 Q47.7007 792.939 54.9824 785.702 Q55.7715 784.913 56.0194 784.913 Q56.4703 784.913 56.4703 785.387 Q56.4703 785.702 55.546 786.807 Q54.6217 787.912 52.5026 789.625 Q50.3834 791.338 47.7909 792.578 Q41.501 795.622 33.3852 795.622 Z" fill="#000000" fill-rule="evenodd" fill-opacity="1" /><path clip-path="url(#clip470)" d="M 0 0 M44.9278 777.893 Q44.0936 777.893 43.8456 777.826 Q43.5976 777.736 43.2144 777.375 L33.3401 768.515 Q27.8844 763.668 23.1276 763.668 Q20.0391 763.668 17.8297 765.291 Q15.6204 766.892 15.6204 769.845 Q15.6204 771.874 16.8603 773.587 Q18.1003 775.301 20.3096 776.09 Q20.2645 775.955 20.2645 775.481 Q20.2645 774.331 20.9859 773.7 Q21.7073 773.046 22.6767 773.046 Q23.9166 773.046 24.5253 773.858 Q25.1115 774.647 25.1115 775.436 Q25.1115 775.752 25.0439 776.18 Q24.9762 776.586 24.345 777.24 Q23.6912 777.893 22.5415 777.893 Q19.3176 777.893 16.7476 775.459 Q14.1776 773.001 14.1776 769.259 Q14.1776 765.021 16.7025 762.248 Q19.2049 759.452 23.1276 759.452 Q24.5028 759.452 25.7653 759.881 Q27.0052 760.286 27.9746 760.85 Q28.944 761.391 30.4995 762.879 Q32.0551 764.367 33.1597 765.562 Q34.2644 766.757 36.609 769.439 L41.3658 774.331 L41.3658 766.013 Q41.3658 761.955 41.0051 761.639 Q40.3513 761.188 36.9021 760.625 L36.9021 759.452 L44.9278 760.76 L44.9278 777.893 Z" fill="#000000" fill-rule="evenodd" fill-opacity="1" /><path clip-path="url(#clip470)" d="M 0 0 M56.0194 755.03 Q55.794 755.03 55.2304 754.443 Q47.6556 747.004 33.3852 747.004 Q19.0697 747.004 11.833 754.15 Q10.9989 755.03 10.7509 755.03 Q10.3 755.03 10.3 754.579 Q10.3 754.263 11.2243 753.158 Q12.1486 752.031 14.2678 750.34 Q16.3869 748.627 18.9795 747.365 Q25.2693 744.321 33.3852 744.321 Q41.1854 744.321 47.4752 747.229 Q50.1129 748.469 52.3222 750.205 Q54.5315 751.941 55.5009 753.091 Q56.4703 754.241 56.4703 754.579 Q56.4703 755.03 56.0194 755.03 Z" fill="#000000" fill-rule="evenodd" fill-opacity="1" /><path clip-path="url(#clip470)" d="M 0 0 M72.2049 730.261 Q61.0617 730.261 52.0763 726.107 Q48.3082 724.335 45.152 721.856 Q41.9959 719.376 40.611 717.733 Q39.2261 716.091 39.2261 715.64 Q39.2261 714.996 39.8703 714.963 Q40.1923 714.963 40.9975 715.833 Q51.8186 726.461 72.2049 726.429 Q92.6557 726.429 103.058 716.091 Q104.185 714.963 104.54 714.963 Q105.184 714.963 105.184 715.64 Q105.184 716.091 103.863 717.669 Q102.543 719.247 99.5155 721.695 Q96.4882 724.142 92.7845 725.913 Q83.7991 730.261 72.2049 730.261 Z" fill="#000000" fill-rule="evenodd" fill-opacity="1" /><path clip-path="url(#clip470)" d="M 0 0 M61.3194 673.889 Q61.6092 673.889 62.6076 674.146 Q63.5738 674.372 65.4739 675.112 Q67.3419 675.821 69.4352 676.916 Q71.4964 677.979 74.1051 679.943 Q76.7138 681.908 79.0004 684.356 Q83.316 688.961 85.6348 693.888 Q87.9536 698.784 88.6944 702.971 L88.6944 703.904 Q88.6944 704.935 87.8892 704.935 L84.9263 704.227 L68.7911 700.201 Q63.8636 698.945 63.445 698.945 Q63.0585 698.945 62.8653 699.106 Q62.6398 699.235 62.4788 700.008 Q62.3178 700.748 62.3178 702.23 Q62.3178 702.842 62.2855 703.132 Q62.2533 703.389 62.0923 703.615 Q61.8991 703.84 61.5126 703.84 Q60.9651 703.84 60.6753 703.615 Q60.3532 703.357 60.2888 703.164 Q60.2244 702.971 60.1922 702.584 Q60.16 702.037 59.9989 700.201 Q59.8057 698.365 59.6769 696.787 Q59.548 695.209 59.548 694.533 Q59.548 694.146 59.7413 693.921 Q59.9023 693.695 60.0955 693.695 L60.2566 693.663 L86.5044 700.136 Q85.7314 697.753 84.4432 695.402 Q83.1549 693.019 81.0294 690.442 Q78.8716 687.866 76.1985 685.676 Q73.5254 683.486 69.7895 681.554 Q66.0214 679.589 61.7058 678.365 Q60.8363 678.14 60.321 677.592 Q59.8057 677.013 59.6769 676.594 Q59.548 676.175 59.548 675.789 Q59.548 674.919 60.0311 674.404 Q60.482 673.889 61.3194 673.889 Z" fill="#000000" fill-rule="evenodd" fill-opacity="1" /><path clip-path="url(#clip470)" d="M 0 0 M104.54 672.687 Q104.218 672.687 103.412 671.85 Q92.5913 661.222 72.2049 661.222 Q51.7542 661.222 41.4161 671.431 Q40.2245 672.687 39.8703 672.687 Q39.2261 672.687 39.2261 672.043 Q39.2261 671.592 40.5466 670.014 Q41.867 668.404 44.8944 665.988 Q47.9217 663.541 51.6254 661.737 Q60.6108 657.389 72.2049 657.389 Q83.3482 657.389 92.3336 661.544 Q96.1017 663.315 99.2579 665.795 Q102.414 668.275 103.799 669.918 Q105.184 671.56 105.184 672.043 Q105.184 672.687 104.54 672.687 Z" fill="#000000" fill-rule="evenodd" fill-opacity="1" /><path clip-path="url(#clip470)" d="M 0 0 M571.761 18.8205 L571.761 41.5461 L582.05 41.5461 Q587.762 41.5461 590.881 38.5889 Q594 35.6318 594 30.163 Q594 24.7348 590.881 21.7777 Q587.762 18.8205 582.05 18.8205 L571.761 18.8205 M563.578 12.096 L582.05 12.096 Q592.218 12.096 597.403 16.714 Q602.629 21.2916 602.629 30.163 Q602.629 39.1155 597.403 43.6931 Q592.218 48.2706 582.05 48.2706 L571.761 48.2706 L571.761 72.576 L563.578 72.576 L563.578 12.096 Z" fill="#000000" fill-rule="evenodd" fill-opacity="1" /><path clip-path="url(#clip470)" d="M 0 0 M650.996 45.1919 L650.996 72.576 L643.543 72.576 L643.543 45.4349 Q643.543 38.994 641.031 35.7938 Q638.52 32.5936 633.496 32.5936 Q627.461 32.5936 623.977 36.4419 Q620.493 40.2903 620.493 46.9338 L620.493 72.576 L612.999 72.576 L612.999 9.54393 L620.493 9.54393 L620.493 34.2544 Q623.167 30.163 626.772 28.1376 Q630.418 26.1121 635.157 26.1121 Q642.976 26.1121 646.986 30.9732 Q650.996 35.7938 650.996 45.1919 Z" fill="#000000" fill-rule="evenodd" fill-opacity="1" /><path clip-path="url(#clip470)" d="M 0 0 M683.444 32.4315 Q677.449 32.4315 673.965 37.1306 Q670.481 41.7891 670.481 49.9314 Q670.481 58.0738 673.924 62.7728 Q677.408 67.4314 683.444 67.4314 Q689.399 67.4314 692.883 62.7323 Q696.366 58.0333 696.366 49.9314 Q696.366 41.8701 692.883 37.1711 Q689.399 32.4315 683.444 32.4315 M683.444 26.1121 Q693.166 26.1121 698.716 32.4315 Q704.266 38.7509 704.266 49.9314 Q704.266 61.0714 698.716 67.4314 Q693.166 73.7508 683.444 73.7508 Q673.681 73.7508 668.132 67.4314 Q662.622 61.0714 662.622 49.9314 Q662.622 38.7509 668.132 32.4315 Q673.681 26.1121 683.444 26.1121 Z" fill="#000000" fill-rule="evenodd" fill-opacity="1" /><path clip-path="url(#clip470)" d="M 0 0 M723.994 14.324 L723.994 27.2059 L739.347 27.2059 L739.347 32.9987 L723.994 32.9987 L723.994 57.6282 Q723.994 63.1779 725.492 64.7578 Q727.032 66.3376 731.69 66.3376 L739.347 66.3376 L739.347 72.576 L731.69 72.576 Q723.062 72.576 719.781 69.3758 Q716.499 66.1351 716.499 57.6282 L716.499 32.9987 L711.031 32.9987 L711.031 27.2059 L716.499 27.2059 L716.499 14.324 L723.994 14.324 Z" fill="#000000" fill-rule="evenodd" fill-opacity="1" /><path clip-path="url(#clip470)" d="M 0 0 M766.731 32.4315 Q760.735 32.4315 757.252 37.1306 Q753.768 41.7891 753.768 49.9314 Q753.768 58.0738 757.211 62.7728 Q760.695 67.4314 766.731 67.4314 Q772.685 67.4314 776.169 62.7323 Q779.653 58.0333 779.653 49.9314 Q779.653 41.8701 776.169 37.1711 Q772.685 32.4315 766.731 32.4315 M766.731 26.1121 Q776.453 26.1121 782.003 32.4315 Q787.552 38.7509 787.552 49.9314 Q787.552 61.0714 782.003 67.4314 Q776.453 73.7508 766.731 73.7508 Q756.968 73.7508 751.418 67.4314 Q745.909 61.0714 745.909 49.9314 Q745.909 38.7509 751.418 32.4315 Q756.968 26.1121 766.731 26.1121 Z" fill="#000000" fill-rule="evenodd" fill-opacity="1" /><path clip-path="url(#clip470)" d="M 0 0 M837.621 45.1919 L837.621 72.576 L830.168 72.576 L830.168 45.4349 Q830.168 38.994 827.656 35.7938 Q825.145 32.5936 820.122 32.5936 Q814.086 32.5936 810.602 36.4419 Q807.118 40.2903 807.118 46.9338 L807.118 72.576 L799.624 72.576 L799.624 27.2059 L807.118 27.2059 L807.118 34.2544 Q809.792 30.163 813.397 28.1376 Q817.043 26.1121 821.782 26.1121 Q829.601 26.1121 833.611 30.9732 Q837.621 35.7938 837.621 45.1919 Z" fill="#000000" fill-rule="evenodd" fill-opacity="1" /><path clip-path="url(#clip470)" d="M 0 0 M924.473 16.7545 L924.473 25.383 Q920.341 21.5346 915.642 19.6307 Q910.983 17.7268 905.717 17.7268 Q895.347 17.7268 889.838 24.0867 Q884.328 30.4061 884.328 42.3968 Q884.328 54.3469 889.838 60.7069 Q895.347 67.0263 905.717 67.0263 Q910.983 67.0263 915.642 65.1223 Q920.341 63.2184 924.473 59.3701 L924.473 67.9175 Q920.179 70.8341 915.358 72.2924 Q910.578 73.7508 905.231 73.7508 Q891.498 73.7508 883.599 65.3654 Q875.7 56.9395 875.7 42.3968 Q875.7 27.8135 883.599 19.4281 Q891.498 11.0023 905.231 11.0023 Q910.659 11.0023 915.439 12.4606 Q920.26 13.8784 924.473 16.7545 Z" fill="#000000" fill-rule="evenodd" fill-opacity="1" /><path clip-path="url(#clip470)" d="M 0 0 M954.369 32.4315 Q948.373 32.4315 944.889 37.1306 Q941.406 41.7891 941.406 49.9314 Q941.406 58.0738 944.849 62.7728 Q948.333 67.4314 954.369 67.4314 Q960.323 67.4314 963.807 62.7323 Q967.291 58.0333 967.291 49.9314 Q967.291 41.8701 963.807 37.1711 Q960.323 32.4315 954.369 32.4315 M954.369 26.1121 Q964.091 26.1121 969.64 32.4315 Q975.19 38.7509 975.19 49.9314 Q975.19 61.0714 969.64 67.4314 Q964.091 73.7508 954.369 73.7508 Q944.606 73.7508 939.056 67.4314 Q933.547 61.0714 933.547 49.9314 Q933.547 38.7509 939.056 32.4315 Q944.606 26.1121 954.369 26.1121 Z" fill="#000000" fill-rule="evenodd" fill-opacity="1" /><path clip-path="url(#clip470)" d="M 0 0 M1013.84 34.1734 Q1012.58 33.4443 1011.08 33.1202 Q1009.62 32.7556 1007.84 32.7556 Q1001.52 32.7556 998.118 36.8875 Q994.756 40.9789 994.756 48.6757 L994.756 72.576 L987.262 72.576 L987.262 27.2059 L994.756 27.2059 L994.756 34.2544 Q997.106 30.1225 1000.87 28.1376 Q1004.64 26.1121 1010.03 26.1121 Q1010.8 26.1121 1011.73 26.2337 Q1012.66 26.3147 1013.8 26.5172 L1013.84 34.1734 Z" fill="#000000" fill-rule="evenodd" fill-opacity="1" /><path clip-path="url(#clip470)" d="M 0 0 M1046.49 34.1734 Q1045.23 33.4443 1043.73 33.1202 Q1042.27 32.7556 1040.49 32.7556 Q1034.17 32.7556 1030.77 36.8875 Q1027.41 40.9789 1027.41 48.6757 L1027.41 72.576 L1019.91 72.576 L1019.91 27.2059 L1027.41 27.2059 L1027.41 34.2544 Q1029.76 30.1225 1033.52 28.1376 Q1037.29 26.1121 1042.68 26.1121 Q1043.45 26.1121 1044.38 26.2337 Q1045.31 26.3147 1046.45 26.5172 L1046.49 34.1734 Z" fill="#000000" fill-rule="evenodd" fill-opacity="1" /><path clip-path="url(#clip470)" d="M 0 0 M1091.29 48.0275 L1091.29 51.6733 L1057.02 51.6733 Q1057.5 59.3701 1061.64 63.421 Q1065.81 67.4314 1073.22 67.4314 Q1077.52 67.4314 1081.53 66.3781 Q1085.58 65.3249 1089.55 63.2184 L1089.55 70.267 Q1085.54 71.9684 1081.32 72.8596 Q1077.11 73.7508 1072.78 73.7508 Q1061.92 73.7508 1055.56 67.4314 Q1049.24 61.1119 1049.24 50.3365 Q1049.24 39.1965 1055.24 32.6746 Q1061.27 26.1121 1071.48 26.1121 Q1080.64 26.1121 1085.94 32.0264 Q1091.29 37.9003 1091.29 48.0275 M1083.84 45.84 Q1083.75 39.7232 1080.39 36.0774 Q1077.07 32.4315 1071.56 32.4315 Q1065.32 32.4315 1061.56 35.9558 Q1057.83 39.4801 1057.26 45.8805 L1083.84 45.84 Z" fill="#000000" fill-rule="evenodd" fill-opacity="1" /><path clip-path="url(#clip470)" d="M 0 0 M1103.52 9.54393 L1110.98 9.54393 L1110.98 72.576 L1103.52 72.576 L1103.52 9.54393 Z" fill="#000000" fill-rule="evenodd" fill-opacity="1" /><path clip-path="url(#clip470)" d="M 0 0 M1147.19 49.7694 Q1138.16 49.7694 1134.67 51.8354 Q1131.19 53.9013 1131.19 58.8839 Q1131.19 62.8538 1133.78 65.2034 Q1136.42 67.5124 1140.91 67.5124 Q1147.11 67.5124 1150.84 63.1374 Q1154.6 58.7219 1154.6 51.4303 L1154.6 49.7694 L1147.19 49.7694 M1162.06 46.6907 L1162.06 72.576 L1154.6 72.576 L1154.6 65.6895 Q1152.05 69.8214 1148.24 71.8063 Q1144.44 73.7508 1138.93 73.7508 Q1131.96 73.7508 1127.83 69.8619 Q1123.74 65.9325 1123.74 59.3701 Q1123.74 51.7138 1128.84 47.825 Q1133.99 43.9361 1144.15 43.9361 L1154.6 43.9361 L1154.6 43.2069 Q1154.6 38.0623 1151.2 35.2672 Q1147.84 32.4315 1141.72 32.4315 Q1137.83 32.4315 1134.15 33.3632 Q1130.46 34.295 1127.06 36.1584 L1127.06 29.2718 Q1131.15 27.692 1135 26.9223 Q1138.85 26.1121 1142.49 26.1121 Q1152.34 26.1121 1157.2 31.2163 Q1162.06 36.3204 1162.06 46.6907 Z" fill="#000000" fill-rule="evenodd" fill-opacity="1" /><path clip-path="url(#clip470)" d="M 0 0 M1184.78 14.324 L1184.78 27.2059 L1200.14 27.2059 L1200.14 32.9987 L1184.78 32.9987 L1184.78 57.6282 Q1184.78 63.1779 1186.28 64.7578 Q1187.82 66.3376 1192.48 66.3376 L1200.14 66.3376 L1200.14 72.576 L1192.48 72.576 Q1183.85 72.576 1180.57 69.3758 Q1177.29 66.1351 1177.29 57.6282 L1177.29 32.9987 L1171.82 32.9987 L1171.82 27.2059 L1177.29 27.2059 L1177.29 14.324 L1184.78 14.324 Z" fill="#000000" fill-rule="evenodd" fill-opacity="1" /><path clip-path="url(#clip470)" d="M 0 0 M1209.94 27.2059 L1217.39 27.2059 L1217.39 72.576 L1209.94 72.576 L1209.94 27.2059 M1209.94 9.54393 L1217.39 9.54393 L1217.39 18.9825 L1209.94 18.9825 L1209.94 9.54393 Z" fill="#000000" fill-rule="evenodd" fill-opacity="1" /><path clip-path="url(#clip470)" d="M 0 0 M1250.57 32.4315 Q1244.58 32.4315 1241.09 37.1306 Q1237.61 41.7891 1237.61 49.9314 Q1237.61 58.0738 1241.05 62.7728 Q1244.53 67.4314 1250.57 67.4314 Q1256.53 67.4314 1260.01 62.7323 Q1263.49 58.0333 1263.49 49.9314 Q1263.49 41.8701 1260.01 37.1711 Q1256.53 32.4315 1250.57 32.4315 M1250.57 26.1121 Q1260.29 26.1121 1265.84 32.4315 Q1271.39 38.7509 1271.39 49.9314 Q1271.39 61.0714 1265.84 67.4314 Q1260.29 73.7508 1250.57 73.7508 Q1240.81 73.7508 1235.26 67.4314 Q1229.75 61.0714 1229.75 49.9314 Q1229.75 38.7509 1235.26 32.4315 Q1240.81 26.1121 1250.57 26.1121 Z" fill="#000000" fill-rule="evenodd" fill-opacity="1" /><path clip-path="url(#clip470)" d="M 0 0 M1321.46 45.1919 L1321.46 72.576 L1314.01 72.576 L1314.01 45.4349 Q1314.01 38.994 1311.5 35.7938 Q1308.98 32.5936 1303.96 32.5936 Q1297.93 32.5936 1294.44 36.4419 Q1290.96 40.2903 1290.96 46.9338 L1290.96 72.576 L1283.46 72.576 L1283.46 27.2059 L1290.96 27.2059 L1290.96 34.2544 Q1293.63 30.163 1297.24 28.1376 Q1300.88 26.1121 1305.62 26.1121 Q1313.44 26.1121 1317.45 30.9732 Q1321.46 35.7938 1321.46 45.1919 Z" fill="#000000" fill-rule="evenodd" fill-opacity="1" /><path clip-path="url(#clip470)" d="M 0 0 M1365.25 28.5427 L1365.25 35.5912 Q1362.09 33.9709 1358.69 33.1607 Q1355.29 32.3505 1351.64 32.3505 Q1346.09 32.3505 1343.3 34.0519 Q1340.54 35.7533 1340.54 39.156 Q1340.54 41.7486 1342.53 43.2475 Q1344.51 44.7058 1350.51 46.0426 L1353.06 46.6097 Q1361 48.3111 1364.32 51.4303 Q1367.68 54.509 1367.68 60.0587 Q1367.68 66.3781 1362.66 70.0644 Q1357.68 73.7508 1348.93 73.7508 Q1345.28 73.7508 1341.31 73.0216 Q1337.38 72.3329 1333.01 70.9151 L1333.01 63.2184 Q1337.14 65.3654 1341.15 66.4591 Q1345.16 67.5124 1349.09 67.5124 Q1354.35 67.5124 1357.19 65.73 Q1360.03 63.9071 1360.03 60.6258 Q1360.03 57.5877 1357.96 55.9673 Q1355.93 54.3469 1349.01 52.8481 L1346.42 52.2405 Q1339.49 50.7821 1336.41 47.7845 Q1333.33 44.7463 1333.33 39.4801 Q1333.33 33.0797 1337.87 29.5959 Q1342.4 26.1121 1350.75 26.1121 Q1354.88 26.1121 1358.53 26.7198 Q1362.17 27.3274 1365.25 28.5427 Z" fill="#000000" fill-rule="evenodd" fill-opacity="1" /><path clip-path="url(#clip470)" d="M 0 0 M1400.58 27.2059 L1408.47 27.2059 L1422.65 65.2844 L1436.83 27.2059 L1444.73 27.2059 L1427.72 72.576 L1417.59 72.576 L1400.58 27.2059 Z" fill="#000000" fill-rule="evenodd" fill-opacity="1" /><path clip-path="url(#clip470)" d="M 0 0 M1483.94 28.5427 L1483.94 35.5912 Q1480.78 33.9709 1477.38 33.1607 Q1473.98 32.3505 1470.33 32.3505 Q1464.78 32.3505 1461.99 34.0519 Q1459.23 35.7533 1459.23 39.156 Q1459.23 41.7486 1461.22 43.2475 Q1463.2 44.7058 1469.2 46.0426 L1471.75 46.6097 Q1479.69 48.3111 1483.01 51.4303 Q1486.37 54.509 1486.37 60.0587 Q1486.37 66.3781 1481.35 70.0644 Q1476.37 73.7508 1467.62 73.7508 Q1463.97 73.7508 1460 73.0216 Q1456.07 72.3329 1451.7 70.9151 L1451.7 63.2184 Q1455.83 65.3654 1459.84 66.4591 Q1463.85 67.5124 1467.78 67.5124 Q1473.05 67.5124 1475.88 65.73 Q1478.72 63.9071 1478.72 60.6258 Q1478.72 57.5877 1476.65 55.9673 Q1474.63 54.3469 1467.7 52.8481 L1465.11 52.2405 Q1458.18 50.7821 1455.1 47.7845 Q1452.02 44.7463 1452.02 39.4801 Q1452.02 33.0797 1456.56 29.5959 Q1461.1 26.1121 1469.44 26.1121 Q1473.57 26.1121 1477.22 26.7198 Q1480.86 27.3274 1483.94 28.5427 Z" fill="#000000" fill-rule="evenodd" fill-opacity="1" /><path clip-path="url(#clip470)" d="M 0 0 M1524.94 12.096 L1559.7 12.096 L1559.7 18.9825 L1533.12 18.9825 L1533.12 36.8065 L1557.1 36.8065 L1557.1 43.6931 L1533.12 43.6931 L1533.12 72.576 L1524.94 72.576 L1524.94 12.096 Z" fill="#000000" fill-rule="evenodd" fill-opacity="1" /><path clip-path="url(#clip470)" d="M 0 0 M1592.59 34.1734 Q1591.33 33.4443 1589.83 33.1202 Q1588.38 32.7556 1586.59 32.7556 Q1580.27 32.7556 1576.87 36.8875 Q1573.51 40.9789 1573.51 48.6757 L1573.51 72.576 L1566.01 72.576 L1566.01 27.2059 L1573.51 27.2059 L1573.51 34.2544 Q1575.86 30.1225 1579.63 28.1376 Q1583.39 26.1121 1588.78 26.1121 Q1589.55 26.1121 1590.48 26.2337 Q1591.41 26.3147 1592.55 26.5172 L1592.59 34.1734 Z" fill="#000000" fill-rule="evenodd" fill-opacity="1" /><path clip-path="url(#clip470)" d="M 0 0 M1637.39 48.0275 L1637.39 51.6733 L1603.12 51.6733 Q1603.61 59.3701 1607.74 63.421 Q1611.91 67.4314 1619.32 67.4314 Q1623.62 67.4314 1627.63 66.3781 Q1631.68 65.3249 1635.65 63.2184 L1635.65 70.267 Q1631.64 71.9684 1627.43 72.8596 Q1623.21 73.7508 1618.88 73.7508 Q1608.02 73.7508 1601.66 67.4314 Q1595.34 61.1119 1595.34 50.3365 Q1595.34 39.1965 1601.34 32.6746 Q1607.37 26.1121 1617.58 26.1121 Q1626.74 26.1121 1632.04 32.0264 Q1637.39 37.9003 1637.39 48.0275 M1629.94 45.84 Q1629.86 39.7232 1626.49 36.0774 Q1623.17 32.4315 1617.66 32.4315 Q1611.43 32.4315 1607.66 35.9558 Q1603.93 39.4801 1603.36 45.8805 L1629.94 45.84 Z" fill="#000000" fill-rule="evenodd" fill-opacity="1" /><path clip-path="url(#clip470)" d="M 0 0 M1654.08 49.9314 Q1654.08 58.1548 1657.44 62.8538 Q1660.85 67.5124 1666.76 67.5124 Q1672.67 67.5124 1676.08 62.8538 Q1679.48 58.1548 1679.48 49.9314 Q1679.48 41.7081 1676.08 37.0496 Q1672.67 32.3505 1666.76 32.3505 Q1660.85 32.3505 1657.44 37.0496 Q1654.08 41.7081 1654.08 49.9314 M1679.48 65.7705 Q1677.13 69.8214 1673.53 71.8063 Q1669.96 73.7508 1664.94 73.7508 Q1656.71 73.7508 1651.53 67.1883 Q1646.38 60.6258 1646.38 49.9314 Q1646.38 39.2371 1651.53 32.6746 Q1656.71 26.1121 1664.94 26.1121 Q1669.96 26.1121 1673.53 28.0971 Q1677.13 30.0415 1679.48 34.0924 L1679.48 27.2059 L1686.93 27.2059 L1686.93 89.8329 L1679.48 89.8329 L1679.48 65.7705 Z" fill="#000000" fill-rule="evenodd" fill-opacity="1" /><path clip-path="url(#clip470)" d="M 0 0 M1701.52 54.671 L1701.52 27.2059 L1708.97 27.2059 L1708.97 54.3874 Q1708.97 60.8284 1711.48 64.0691 Q1713.99 67.2693 1719.02 67.2693 Q1725.05 67.2693 1728.54 63.421 Q1732.06 59.5726 1732.06 52.9291 L1732.06 27.2059 L1739.51 27.2059 L1739.51 72.576 L1732.06 72.576 L1732.06 65.6084 Q1729.35 69.7404 1725.74 71.7658 Q1722.18 73.7508 1717.44 73.7508 Q1709.62 73.7508 1705.57 68.8897 Q1701.52 64.0286 1701.52 54.671 M1720.27 26.1121 L1720.27 26.1121 Z" fill="#000000" fill-rule="evenodd" fill-opacity="1" /><path clip-path="url(#clip470)" d="M 0 0 M1793.68 48.0275 L1793.68 51.6733 L1759.4 51.6733 Q1759.89 59.3701 1764.02 63.421 Q1768.2 67.4314 1775.61 67.4314 Q1779.9 67.4314 1783.91 66.3781 Q1787.96 65.3249 1791.93 63.2184 L1791.93 70.267 Q1787.92 71.9684 1783.71 72.8596 Q1779.5 73.7508 1775.16 73.7508 Q1764.31 73.7508 1757.95 67.4314 Q1751.63 61.1119 1751.63 50.3365 Q1751.63 39.1965 1757.62 32.6746 Q1763.66 26.1121 1773.87 26.1121 Q1783.02 26.1121 1788.33 32.0264 Q1793.68 37.9003 1793.68 48.0275 M1786.22 45.84 Q1786.14 39.7232 1782.78 36.0774 Q1779.46 32.4315 1773.95 32.4315 Q1767.71 32.4315 1763.94 35.9558 Q1760.21 39.4801 1759.65 45.8805 L1786.22 45.84 Z" fill="#000000" fill-rule="evenodd" fill-opacity="1" /><path clip-path="url(#clip470)" d="M 0 0 M1843.62 45.1919 L1843.62 72.576 L1836.17 72.576 L1836.17 45.4349 Q1836.17 38.994 1833.66 35.7938 Q1831.15 32.5936 1826.12 32.5936 Q1820.09 32.5936 1816.6 36.4419 Q1813.12 40.2903 1813.12 46.9338 L1813.12 72.576 L1805.63 72.576 L1805.63 27.2059 L1813.12 27.2059 L1813.12 34.2544 Q1815.79 30.163 1819.4 28.1376 Q1823.04 26.1121 1827.78 26.1121 Q1835.6 26.1121 1839.61 30.9732 Q1843.62 35.7938 1843.62 45.1919 Z" fill="#000000" fill-rule="evenodd" fill-opacity="1" /><path clip-path="url(#clip470)" d="M 0 0 M1891.14 28.9478 L1891.14 35.9153 Q1887.98 34.1734 1884.78 33.3227 Q1881.62 32.4315 1878.38 32.4315 Q1871.13 32.4315 1867.12 37.0496 Q1863.11 41.6271 1863.11 49.9314 Q1863.11 58.2358 1867.12 62.8538 Q1871.13 67.4314 1878.38 67.4314 Q1881.62 67.4314 1884.78 66.5807 Q1887.98 65.6895 1891.14 63.9476 L1891.14 70.8341 Q1888.02 72.2924 1884.66 73.0216 Q1881.34 73.7508 1877.57 73.7508 Q1867.32 73.7508 1861.28 67.3098 Q1855.25 60.8689 1855.25 49.9314 Q1855.25 38.832 1861.33 32.472 Q1867.44 26.1121 1878.06 26.1121 Q1881.5 26.1121 1884.78 26.8413 Q1888.06 27.5299 1891.14 28.9478 Z" fill="#000000" fill-rule="evenodd" fill-opacity="1" /><path clip-path="url(#clip470)" d="M 0 0 M1922.98 76.7889 Q1919.82 84.8907 1916.82 87.3618 Q1913.83 89.8329 1908.8 89.8329 L1902.85 89.8329 L1902.85 83.5945 L1907.22 83.5945 Q1910.3 83.5945 1912 82.1361 Q1913.7 80.6778 1915.77 75.2496 L1917.11 71.8468 L1898.76 27.2059 L1906.66 27.2059 L1920.83 62.6918 L1935.01 27.2059 L1942.91 27.2059 L1922.98 76.7889 Z" fill="#000000" fill-rule="evenodd" fill-opacity="1" /><polyline clip-path="url(#clip473)" style="stroke:#009af9; stroke-width:4; stroke-opacity:1; fill:none" points="
  306.535,1324.83 310.368,1320.79 314.201,1316.86 318.034,1322.71 321.866,1323.51 325.699,1309.37 329.532,1319.56 333.365,1305.46 337.198,1312.89 341.031,1313.33 
  344.863,1317.7 348.696,1295.76 352.529,1292.97 356.362,1289.45 360.195,1311.29 364.028,1316.26 367.86,1323.23 371.693,1314.29 375.526,1306.34 379.359,1296.67 
  383.192,1314.4 387.025,1324.29 390.857,1318.47 394.69,1314 398.523,1312.88 402.356,1316.67 406.189,1317.5 410.022,1318.39 413.854,1312.35 417.687,1311.76 
  421.52,1287.25 425.353,1311.33 429.186,1314.46 433.019,1316.22 436.851,1322.07 440.684,1317.43 444.517,1309.29 448.35,1322.21 452.183,1311.92 456.016,1311.62 
  459.848,1318.19 463.681,1315.09 467.514,1311.5 471.347,1316.95 475.18,1319.54 479.012,1320 482.845,1320.04 486.678,1316.47 490.511,1320.54 494.344,1318.26 
  498.177,1318.16 502.009,1322.48 505.842,1320.95 509.675,1316.45 513.508,1315.98 517.341,1317.61 521.174,1321.2 525.006,1320.12 528.839,1319 532.672,1319.24 
  536.505,1318.58 540.338,1319.13 544.171,1317.23 548.003,1318.24 551.836,1316.76 555.669,1318.83 559.502,1318.13 563.335,1315.44 567.168,1313.81 571,1307.84 
  574.833,1300.08 578.666,1320.77 582.499,1321.27 586.332,1322.33 590.165,1322.43 593.997,1317.61 597.83,1316.52 601.663,1317.43 605.496,1321.99 609.329,1321.52 
  613.162,1321.63 616.994,1322.3 620.827,1322.95 624.66,1321.89 628.493,1319.01 632.326,1323.32 636.159,1324.05 639.991,1319.26 643.824,1313.34 647.657,1320.6 
  651.49,1319.24 655.323,1320.2 659.156,1323.21 662.988,1319.39 666.821,1319.58 670.654,1292.71 674.487,1314.36 678.32,1316.92 682.153,1310.04 685.985,1314.34 
  689.818,1322.13 693.651,1322.12 697.484,1323.49 701.317,1322.71 705.149,1322.92 708.982,1323.53 712.815,1321.62 716.648,1320.1 720.481,1323.42 724.314,1320.67 
  728.146,1319.66 731.979,1321.03 735.812,1319.52 739.645,1318.32 743.478,1321.6 747.311,1321.14 751.143,1321.5 754.976,1321.49 758.809,1315.28 762.642,1321.94 
  766.475,1320.31 770.308,1323.6 774.14,1318.76 777.973,1308.52 781.806,1312.76 785.639,1323.72 789.472,1315.18 793.305,1308.89 797.137,1315.14 800.97,1309.02 
  804.803,1319.85 808.636,1317.67 812.469,1321.78 816.302,1321.41 820.134,1312.98 823.967,1287.06 827.8,1314.18 831.633,1312.12 835.466,1314.08 839.299,1311.04 
  843.131,1320.75 846.964,1320.08 850.797,1313.34 854.63,1312.12 858.463,1314.39 862.296,1314.59 866.128,1298.66 869.961,1303.05 873.794,1303.37 877.627,1311.69 
  881.46,1306.58 885.293,1316.2 889.125,1276.36 892.958,1290.54 896.791,1293.49 900.624,1300.27 904.457,1311.8 908.29,1287.39 912.122,1305.63 915.955,1291.34 
  919.788,1288.25 923.621,1277.7 927.454,1257.11 931.286,1213.36 935.119,1088.59 938.952,158.463 942.785,1160.35 946.618,1242.49 950.451,1267.48 954.283,1279.39 
  958.116,1281.04 961.949,1295.21 965.782,1280.31 969.615,1310.24 973.448,1293.21 977.28,1304.13 981.113,1288.15 984.946,1283.78 988.779,1301.77 992.612,1301.43 
  996.445,1311.23 1000.28,1311.3 1004.11,1321.52 1007.94,1308.16 1011.78,1295.53 1015.61,1307.7 1019.44,1315.77 1023.27,1319.66 1027.11,1313.64 1030.94,1307.27 
  1034.77,1308.25 1038.61,1316.44 1042.44,1317.65 1046.27,1311.18 1050.1,1305.72 1053.94,1289.87 1057.77,1308.57 1061.6,1308.93 1065.44,1309.36 1069.27,1316.1 
  1073.1,1311.21 1076.93,1307.07 1080.77,1317.91 1084.6,1315.06 1088.43,1309.04 1092.27,1311.61 1096.1,1312.86 1099.93,1314.36 1103.76,1315.14 1107.6,1315.59 
  1111.43,1316.83 1115.26,1315.72 1119.1,1316.16 1122.93,1318.11 1126.76,1315.27 1130.59,1314.46 1134.43,1317.78 1138.26,1321.71 1142.09,1314.62 1145.92,1312.32 
  1149.76,1313.93 1153.59,1317.68 1157.42,1316.23 1161.26,1316.26 1165.09,1316.22 1168.92,1314.86 1172.75,1315.39 1176.59,1313 1180.42,1313.35 1184.25,1311.16 
  1188.09,1311.34 1191.92,1314.03 1195.75,1320.91 1199.58,1310.78 1203.42,1299.21 1207.25,1308.95 1211.08,1322.79 1214.92,1323.15 1218.75,1319.92 1222.58,1322.46 
  1226.41,1316.11 1230.25,1312.04 1234.08,1319.69 1237.91,1324.09 1241.75,1319.04 1245.58,1318.03 1249.41,1322.62 1253.24,1321.59 1257.08,1320.2 1260.91,1316.25 
  1264.74,1320.15 1268.58,1322.87 1272.41,1317.48 1276.24,1309.87 1280.07,1320.01 1283.91,1320.04 1287.74,1318.2 1291.57,1322.06 1295.41,1318.69 1299.24,1320.78 
  1303.07,1288.4 1306.9,1314.09 1310.74,1318.82 1314.57,1306.44 1318.4,1308.72 1322.24,1314.59 1326.07,1317.6 1329.9,1318.08 1333.73,1320.24 1337.57,1319.03 
  1341.4,1320.6 1345.23,1319.03 1349.07,1317.49 1352.9,1319.47 1356.73,1316.21 1360.56,1316.48 1364.4,1321.81 1368.23,1322.25 1372.06,1315.57 1375.89,1316.66 
  1379.73,1318.74 1383.56,1320.64 1387.39,1319 1391.23,1313.25 1395.06,1318.25 1398.89,1316.89 1402.72,1319.86 1406.56,1319.02 1410.39,1306.58 1414.22,1308.82 
  1418.06,1316.55 1421.89,1318.05 1425.72,1307.22 1429.55,1308.83 1433.39,1306.77 1437.22,1315.16 1441.05,1310.62 1444.89,1315.17 1448.72,1318.12 1452.55,1309.04 
  1456.38,1289.13 1460.22,1312.47 1464.05,1311.2 1467.88,1310.12 1471.72,1304.66 1475.55,1312.88 1479.38,1321.64 1483.21,1312.17 1487.05,1307.18 1490.88,1306.38 
  1494.71,1307.22 1498.55,1300.94 1502.38,1301.64 1506.21,1296.39 1510.04,1302.42 1513.88,1296.75 1517.71,1312.28 1521.54,1267.42 1525.38,1281.84 1529.21,1286.03 
  1533.04,1283.54 1536.87,1295.28 1540.71,1266.85 1544.54,1283.81 1548.37,1265.23 1552.21,1258 1556.04,1238.24 1559.87,1202.11 1563.7,1119.42 1567.54,817.352 
  1571.37,314.059 1575.2,1073.03 1579.03,1187.6 1582.87,1229.33 1586.7,1250.58 1590.53,1258.4 1594.37,1276.2 1598.2,1262.29 1602.03,1293.58 1605.86,1279.26 
  1609.7,1289.36 1613.53,1279.52 1617.36,1272.16 1621.2,1308.07 1625.03,1293.99 1628.86,1302.59 1632.69,1300.68 1636.53,1311.47 1640.36,1306.69 1644.19,1296.44 
  1648.03,1302.76 1651.86,1308.79 1655.69,1315.19 1659.52,1313.97 1663.36,1305 1667.19,1302.74 1671.02,1311.52 1674.86,1313.84 1678.69,1310.03 1682.52,1299 
  1686.35,1294.92 1690.19,1308.41 1694.02,1307 1697.85,1305.7 1701.69,1312.1 1705.52,1306.77 1709.35,1304.97 1713.18,1311.7 1717.02,1317.46 1720.85,1308.69 
  1724.68,1307.49 1728.52,1309.06 1732.35,1316.43 1736.18,1314.72 1740.01,1313.64 1743.85,1314.94 1747.68,1312.83 1751.51,1315.76 1755.35,1317.07 1759.18,1314.2 
  1763.01,1312.64 1766.84,1314.83 1770.68,1321.55 1774.51,1314.91 1778.34,1311.16 1782.17,1312.08 1786.01,1315.76 1789.84,1314.35 1793.67,1315 1797.51,1315.19 
  1801.34,1313.59 1805.17,1314.17 1809,1311.56 1812.84,1311.38 1816.67,1308.49 1820.5,1306.62 1824.34,1308.66 1828.17,1322.46 1832,1309.5 1835.83,1292.01 
  1839.67,1317.58 1843.5,1321.7 1847.33,1322.65 1851.17,1318.02 1855,1321.04 1858.83,1315.82 1862.66,1309.02 1866.5,1318.62 1870.33,1322.53 1874.16,1317.71 
  1878,1315.61 1881.83,1320.5 1885.66,1320.37 1889.49,1319.58 1893.33,1314.98 1897.16,1318.06 1900.99,1321.94 1904.83,1317.29 1908.66,1308.26 1912.49,1317.25 
  1916.32,1320.28 1920.16,1317.38 1923.99,1321.77 1927.82,1319.57 1931.66,1323.78 1935.49,1288.13 1939.32,1310.86 1943.15,1320.24 1946.99,1305.85 1950.82,1305.73 
  1954.65,1309.67 1958.49,1312.94 1962.32,1313.39 1966.15,1315.94 1969.98,1315.13 1973.82,1316.76 1977.65,1316.04 1981.48,1314.92 1985.31,1316.42 1989.15,1312.92 
  1992.98,1312.77 1996.81,1317.54 2000.65,1322.24 2004.48,1314.14 2008.31,1313.41 2012.14,1315.51 2015.98,1318.07 2019.81,1316.65 2023.64,1312.07 2027.48,1315.43 
  2031.31,1314.17 2035.14,1316.32 2038.97,1317.93 2042.81,1306.67 2046.64,1306.61 2050.47,1311.24 2054.31,1318.73 2058.14,1308 2061.97,1305.29 2065.8,1305.39 
  2069.64,1311.83 2073.47,1306.19 2077.3,1309.27 2081.14,1311.82 2084.97,1301.84 2088.8,1293.23 2092.63,1310.4 2096.47,1311.44 2100.3,1309.04 2104.13,1301.5 
  2107.97,1306.94 2111.8,1316.59 2115.63,1312.42 2119.46,1305.8 2123.3,1302.19 2127.13,1300.37 2130.96,1303.69 2134.8,1304.27 2138.63,1295.33 2142.46,1299.13 
  2146.29,1292.12 2150.13,1309.47 2153.96,1265.8 2157.79,1276.91 2161.63,1283.22 2165.46,1275.75 2169.29,1288.24 2173.12,1257.5 2176.96,1272.25 2180.79,1252.83 
  2184.62,1243.39 2188.45,1219.67 2192.29,1175.03 2196.12,1064.42 2199.95,545.686 
  "/>
<polyline clip-path="url(#clip473)" style="stroke:#e26f46; stroke-width:4; stroke-opacity:1; fill:none" stroke-dasharray="16, 10" points="
  420.255,2596.17 420.255,-1112.88 
  "/>
<path clip-path="url(#clip470)" d="
M1613.87 285.644 L2189.86 285.644 L2189.86 164.684 L1613.87 164.684  Z
  " fill="#ffffff" fill-rule="evenodd" fill-opacity="1"/>
<polyline clip-path="url(#clip470)" style="stroke:#000000; stroke-width:4; stroke-opacity:1; fill:none" points="
  1613.87,285.644 2189.86,285.644 2189.86,164.684 1613.87,164.684 1613.87,285.644 
  "/>
<polyline clip-path="url(#clip470)" style="stroke:#e26f46; stroke-width:4; stroke-opacity:1; fill:none" stroke-dasharray="16, 10" points="
  1636.17,225.164 1769.97,225.164 
  "/>
<path clip-path="url(#clip470)" d="M 0 0 M1808.77 206.425 L1808.77 209.967 L1804.7 209.967 Q1802.41 209.967 1801.51 210.893 Q1800.63 211.819 1800.63 214.226 L1800.63 216.518 L1807.64 216.518 L1807.64 219.828 L1800.63 219.828 L1800.63 242.444 L1796.34 242.444 L1796.34 219.828 L1792.27 219.828 L1792.27 216.518 L1796.34 216.518 L1796.34 214.712 Q1796.34 210.384 1798.36 208.416 Q1800.37 206.425 1804.75 206.425 L1808.77 206.425 Z" fill="#000000" fill-rule="evenodd" fill-opacity="1" /><path clip-path="url(#clip470)" d="M 0 0 M1827.36 220.499 Q1826.65 220.083 1825.79 219.898 Q1824.96 219.689 1823.94 219.689 Q1820.33 219.689 1818.38 222.05 Q1816.46 224.388 1816.46 228.786 L1816.46 242.444 L1812.18 242.444 L1812.18 216.518 L1816.46 216.518 L1816.46 220.546 Q1817.8 218.185 1819.96 217.05 Q1822.11 215.893 1825.19 215.893 Q1825.63 215.893 1826.16 215.962 Q1826.69 216.009 1827.34 216.124 L1827.36 220.499 Z" fill="#000000" fill-rule="evenodd" fill-opacity="1" /><path clip-path="url(#clip470)" d="M 0 0 M1852.96 228.416 L1852.96 230.499 L1833.38 230.499 Q1833.66 234.897 1836.02 237.212 Q1838.4 239.504 1842.64 239.504 Q1845.09 239.504 1847.39 238.902 Q1849.7 238.3 1851.97 237.097 L1851.97 241.124 Q1849.68 242.096 1847.27 242.606 Q1844.86 243.115 1842.39 243.115 Q1836.18 243.115 1832.55 239.504 Q1828.94 235.893 1828.94 229.735 Q1828.94 223.37 1832.36 219.643 Q1835.81 215.893 1841.65 215.893 Q1846.88 215.893 1849.91 219.273 Q1852.96 222.629 1852.96 228.416 M1848.71 227.166 Q1848.66 223.671 1846.74 221.587 Q1844.84 219.504 1841.69 219.504 Q1838.13 219.504 1835.97 221.518 Q1833.84 223.532 1833.52 227.189 L1848.71 227.166 Z" fill="#000000" fill-rule="evenodd" fill-opacity="1" /><path clip-path="url(#clip470)" d="M 0 0 M1862.5 229.504 Q1862.5 234.203 1864.42 236.888 Q1866.37 239.55 1869.75 239.55 Q1873.13 239.55 1875.07 236.888 Q1877.02 234.203 1877.02 229.504 Q1877.02 224.805 1875.07 222.143 Q1873.13 219.458 1869.75 219.458 Q1866.37 219.458 1864.42 222.143 Q1862.5 224.805 1862.5 229.504 M1877.02 238.555 Q1875.67 240.87 1873.61 242.004 Q1871.58 243.115 1868.71 243.115 Q1864.01 243.115 1861.04 239.365 Q1858.1 235.615 1858.1 229.504 Q1858.1 223.393 1861.04 219.643 Q1864.01 215.893 1868.71 215.893 Q1871.58 215.893 1873.61 217.027 Q1875.67 218.138 1877.02 220.453 L1877.02 216.518 L1881.27 216.518 L1881.27 252.305 L1877.02 252.305 L1877.02 238.555 Z" fill="#000000" fill-rule="evenodd" fill-opacity="1" /><path clip-path="url(#clip470)" d="M 0 0 M1889.61 232.212 L1889.61 216.518 L1893.87 216.518 L1893.87 232.05 Q1893.87 235.731 1895.3 237.583 Q1896.74 239.411 1899.61 239.411 Q1903.06 239.411 1905.05 237.212 Q1907.06 235.013 1907.06 231.217 L1907.06 216.518 L1911.32 216.518 L1911.32 242.444 L1907.06 242.444 L1907.06 238.462 Q1905.51 240.823 1903.45 241.981 Q1901.41 243.115 1898.71 243.115 Q1894.24 243.115 1891.92 240.337 Q1889.61 237.559 1889.61 232.212 M1900.33 215.893 L1900.33 215.893 Z" fill="#000000" fill-rule="evenodd" fill-opacity="1" /><path clip-path="url(#clip470)" d="M 0 0 M1942.27 228.416 L1942.27 230.499 L1922.69 230.499 Q1922.96 234.897 1925.33 237.212 Q1927.71 239.504 1931.95 239.504 Q1934.4 239.504 1936.69 238.902 Q1939.01 238.3 1941.27 237.097 L1941.27 241.124 Q1938.98 242.096 1936.58 242.606 Q1934.17 243.115 1931.69 243.115 Q1925.49 243.115 1921.85 239.504 Q1918.24 235.893 1918.24 229.735 Q1918.24 223.37 1921.67 219.643 Q1925.12 215.893 1930.95 215.893 Q1936.18 215.893 1939.21 219.273 Q1942.27 222.629 1942.27 228.416 M1938.01 227.166 Q1937.96 223.671 1936.04 221.587 Q1934.14 219.504 1931 219.504 Q1927.43 219.504 1925.28 221.518 Q1923.15 223.532 1922.83 227.189 L1938.01 227.166 Z" fill="#000000" fill-rule="evenodd" fill-opacity="1" /><path clip-path="url(#clip470)" d="M 0 0 M1970.81 226.796 L1970.81 242.444 L1966.55 242.444 L1966.55 226.935 Q1966.55 223.254 1965.12 221.425 Q1963.68 219.597 1960.81 219.597 Q1957.36 219.597 1955.37 221.796 Q1953.38 223.995 1953.38 227.791 L1953.38 242.444 L1949.1 242.444 L1949.1 216.518 L1953.38 216.518 L1953.38 220.546 Q1954.91 218.208 1956.97 217.05 Q1959.05 215.893 1961.76 215.893 Q1966.23 215.893 1968.52 218.671 Q1970.81 221.425 1970.81 226.796 Z" fill="#000000" fill-rule="evenodd" fill-opacity="1" /><path clip-path="url(#clip470)" d="M 0 0 M1997.96 217.513 L1997.96 221.495 Q1996.16 220.499 1994.33 220.013 Q1992.52 219.504 1990.67 219.504 Q1986.53 219.504 1984.24 222.143 Q1981.95 224.759 1981.95 229.504 Q1981.95 234.249 1984.24 236.888 Q1986.53 239.504 1990.67 239.504 Q1992.52 239.504 1994.33 239.018 Q1996.16 238.509 1997.96 237.513 L1997.96 241.448 Q1996.18 242.282 1994.26 242.698 Q1992.36 243.115 1990.21 243.115 Q1984.35 243.115 1980.9 239.434 Q1977.45 235.754 1977.45 229.504 Q1977.45 223.161 1980.93 219.527 Q1984.42 215.893 1990.49 215.893 Q1992.45 215.893 1994.33 216.31 Q1996.2 216.703 1997.96 217.513 Z" fill="#000000" fill-rule="evenodd" fill-opacity="1" /><path clip-path="url(#clip470)" d="M 0 0 M2016.16 244.851 Q2014.35 249.481 2012.64 250.893 Q2010.93 252.305 2008.06 252.305 L2004.65 252.305 L2004.65 248.74 L2007.15 248.74 Q2008.91 248.74 2009.88 247.907 Q2010.86 247.073 2012.04 243.971 L2012.8 242.027 L2002.32 216.518 L2006.83 216.518 L2014.93 236.796 L2023.03 216.518 L2027.55 216.518 L2016.16 244.851 Z" fill="#000000" fill-rule="evenodd" fill-opacity="1" /><path clip-path="url(#clip470)" d="M 0 0 M2065.02 217.282 L2065.02 221.31 Q2063.22 220.384 2061.27 219.921 Q2059.33 219.458 2057.25 219.458 Q2054.07 219.458 2052.48 220.43 Q2050.9 221.402 2050.9 223.347 Q2050.9 224.828 2052.04 225.685 Q2053.17 226.518 2056.6 227.282 L2058.06 227.606 Q2062.59 228.578 2064.49 230.36 Q2066.41 232.12 2066.41 235.291 Q2066.41 238.902 2063.54 241.009 Q2060.69 243.115 2055.69 243.115 Q2053.61 243.115 2051.34 242.698 Q2049.1 242.305 2046.6 241.495 L2046.6 237.097 Q2048.96 238.323 2051.25 238.948 Q2053.54 239.55 2055.79 239.55 Q2058.8 239.55 2060.42 238.532 Q2062.04 237.49 2062.04 235.615 Q2062.04 233.879 2060.86 232.953 Q2059.7 232.027 2055.74 231.171 L2054.26 230.823 Q2050.3 229.99 2048.54 228.277 Q2046.78 226.541 2046.78 223.532 Q2046.78 219.874 2049.38 217.884 Q2051.97 215.893 2056.74 215.893 Q2059.1 215.893 2061.18 216.24 Q2063.26 216.587 2065.02 217.282 Z" fill="#000000" fill-rule="evenodd" fill-opacity="1" /><path clip-path="url(#clip470)" d="M 0 0 M2094.75 226.796 L2094.75 242.444 L2090.49 242.444 L2090.49 226.935 Q2090.49 223.254 2089.05 221.425 Q2087.62 219.597 2084.75 219.597 Q2081.3 219.597 2079.31 221.796 Q2077.32 223.995 2077.32 227.791 L2077.32 242.444 L2073.03 242.444 L2073.03 206.425 L2077.32 206.425 L2077.32 220.546 Q2078.84 218.208 2080.9 217.05 Q2082.99 215.893 2085.69 215.893 Q2090.16 215.893 2092.45 218.671 Q2094.75 221.425 2094.75 226.796 Z" fill="#000000" fill-rule="evenodd" fill-opacity="1" /><path clip-path="url(#clip470)" d="M 0 0 M2103.24 216.518 L2107.5 216.518 L2107.5 242.444 L2103.24 242.444 L2103.24 216.518 M2103.24 206.425 L2107.5 206.425 L2107.5 211.819 L2103.24 211.819 L2103.24 206.425 Z" fill="#000000" fill-rule="evenodd" fill-opacity="1" /><path clip-path="url(#clip470)" d="M 0 0 M2129.54 206.425 L2129.54 209.967 L2125.46 209.967 Q2123.17 209.967 2122.27 210.893 Q2121.39 211.819 2121.39 214.226 L2121.39 216.518 L2128.4 216.518 L2128.4 219.828 L2121.39 219.828 L2121.39 242.444 L2117.11 242.444 L2117.11 219.828 L2113.03 219.828 L2113.03 216.518 L2117.11 216.518 L2117.11 214.712 Q2117.11 210.384 2119.12 208.416 Q2121.13 206.425 2125.51 206.425 L2129.54 206.425 Z" fill="#000000" fill-rule="evenodd" fill-opacity="1" /><path clip-path="url(#clip470)" d="M 0 0 M2136.48 209.157 L2136.48 216.518 L2145.25 216.518 L2145.25 219.828 L2136.48 219.828 L2136.48 233.902 Q2136.48 237.073 2137.34 237.976 Q2138.22 238.879 2140.88 238.879 L2145.25 238.879 L2145.25 242.444 L2140.88 242.444 Q2135.95 242.444 2134.07 240.615 Q2132.2 238.763 2132.2 233.902 L2132.2 219.828 L2129.07 219.828 L2129.07 216.518 L2132.2 216.518 L2132.2 209.157 L2136.48 209.157 Z" fill="#000000" fill-rule="evenodd" fill-opacity="1" /></svg>
