<?xml version="1.0" encoding="utf-8"?>
<svg xmlns="http://www.w3.org/2000/svg" xmlns:xlink="http://www.w3.org/1999/xlink" width="576" height="384" viewBox="0 0 2304 1536">
<defs>
  <clipPath id="clip500">
    <rect x="0" y="0" width="2304" height="1536"/>
  </clipPath>
</defs>
<path clip-path="url(#clip500)" d="
M0 1536 L2304 1536 L2304 0 L0 0  Z
  " fill="#ffffff" fill-rule="evenodd" fill-opacity="1"/>
<defs>
  <clipPath id="clip501">
    <rect x="460" y="0" width="1614" height="1536"/>
  </clipPath>
</defs>
<defs>
  <clipPath id="clip502">
    <rect x="249" y="123" width="2008" height="1237"/>
  </clipPath>
</defs>
<path clip-path="url(#clip500)" d="
M326.833 1359.82 L2256.76 1359.82 L2256.76 123.472 L326.833 123.472  Z
  " fill="#ffffff" fill-rule="evenodd" fill-opacity="1"/>
<defs>
  <clipPath id="clip503">
    <rect x="326" y="123" width="1931" height="1237"/>
  </clipPath>
</defs>
<polyline clip-path="url(#clip503)" style="stroke:#000000; stroke-width:2; stroke-opacity:0.1; fill:none" points="
  381.453,1359.82 381.453,123.472 
  "/>
<polyline clip-path="url(#clip503)" style="stroke:#000000; stroke-width:2; stroke-opacity:0.1; fill:none" points="
  745.958,1359.82 745.958,123.472 
  "/>
<polyline clip-path="url(#clip503)" style="stroke:#000000; stroke-width:2; stroke-opacity:0.1; fill:none" points="
  1110.46,1359.82 1110.46,123.472 
  "/>
<polyline clip-path="url(#clip503)" style="stroke:#000000; stroke-width:2; stroke-opacity:0.1; fill:none" points="
  1474.97,1359.82 1474.97,123.472 
  "/>
<polyline clip-path="url(#clip503)" style="stroke:#000000; stroke-width:2; stroke-opacity:0.1; fill:none" points="
  1839.47,1359.82 1839.47,123.472 
  "/>
<polyline clip-path="url(#clip503)" style="stroke:#000000; stroke-width:2; stroke-opacity:0.1; fill:none" points="
  2203.98,1359.82 2203.98,123.472 
  "/>
<polyline clip-path="url(#clip500)" style="stroke:#000000; stroke-width:4; stroke-opacity:1; fill:none" points="
  326.833,1359.82 2256.76,1359.82 
  "/>
<polyline clip-path="url(#clip500)" style="stroke:#000000; stroke-width:4; stroke-opacity:1; fill:none" points="
  381.453,1359.82 381.453,1344.98 
  "/>
<polyline clip-path="url(#clip500)" style="stroke:#000000; stroke-width:4; stroke-opacity:1; fill:none" points="
  745.958,1359.82 745.958,1344.98 
  "/>
<polyline clip-path="url(#clip500)" style="stroke:#000000; stroke-width:4; stroke-opacity:1; fill:none" points="
  1110.46,1359.82 1110.46,1344.98 
  "/>
<polyline clip-path="url(#clip500)" style="stroke:#000000; stroke-width:4; stroke-opacity:1; fill:none" points="
  1474.97,1359.82 1474.97,1344.98 
  "/>
<polyline clip-path="url(#clip500)" style="stroke:#000000; stroke-width:4; stroke-opacity:1; fill:none" points="
  1839.47,1359.82 1839.47,1344.98 
  "/>
<polyline clip-path="url(#clip500)" style="stroke:#000000; stroke-width:4; stroke-opacity:1; fill:none" points="
  2203.98,1359.82 2203.98,1344.98 
  "/>
<path clip-path="url(#clip500)" d="M 0 0 M381.453 1388.24 Q377.842 1388.24 376.013 1391.81 Q374.208 1395.35 374.208 1402.48 Q374.208 1409.59 376.013 1413.15 Q377.842 1416.69 381.453 1416.69 Q385.087 1416.69 386.893 1413.15 Q388.722 1409.59 388.722 1402.48 Q388.722 1395.35 386.893 1391.81 Q385.087 1388.24 381.453 1388.24 M381.453 1384.54 Q387.263 1384.54 390.319 1389.15 Q393.398 1393.73 393.398 1402.48 Q393.398 1411.21 390.319 1415.81 Q387.263 1420.4 381.453 1420.4 Q375.643 1420.4 372.564 1415.81 Q369.509 1411.21 369.509 1402.48 Q369.509 1393.73 372.564 1389.15 Q375.643 1384.54 381.453 1384.54 Z" fill="#000000" fill-rule="evenodd" fill-opacity="1" /><path clip-path="url(#clip500)" d="M 0 0 M720.646 1415.79 L728.285 1415.79 L728.285 1389.42 L719.975 1391.09 L719.975 1386.83 L728.238 1385.16 L732.914 1385.16 L732.914 1415.79 L740.553 1415.79 L740.553 1419.72 L720.646 1419.72 L720.646 1415.79 Z" fill="#000000" fill-rule="evenodd" fill-opacity="1" /><path clip-path="url(#clip500)" d="M 0 0 M759.997 1388.24 Q756.386 1388.24 754.558 1391.81 Q752.752 1395.35 752.752 1402.48 Q752.752 1409.59 754.558 1413.15 Q756.386 1416.69 759.997 1416.69 Q763.632 1416.69 765.437 1413.15 Q767.266 1409.59 767.266 1402.48 Q767.266 1395.35 765.437 1391.81 Q763.632 1388.24 759.997 1388.24 M759.997 1384.54 Q765.808 1384.54 768.863 1389.15 Q771.942 1393.73 771.942 1402.48 Q771.942 1411.21 768.863 1415.81 Q765.808 1420.4 759.997 1420.4 Q754.187 1420.4 751.109 1415.81 Q748.053 1411.21 748.053 1402.48 Q748.053 1393.73 751.109 1389.15 Q754.187 1384.54 759.997 1384.54 Z" fill="#000000" fill-rule="evenodd" fill-opacity="1" /><path clip-path="url(#clip500)" d="M 0 0 M1089.24 1415.79 L1105.56 1415.79 L1105.56 1419.72 L1083.61 1419.72 L1083.61 1415.79 Q1086.27 1413.03 1090.86 1408.4 Q1095.46 1403.75 1096.64 1402.41 Q1098.89 1399.89 1099.77 1398.15 Q1100.67 1396.39 1100.67 1394.7 Q1100.67 1391.95 1098.73 1390.21 Q1096.81 1388.47 1093.7 1388.47 Q1091.5 1388.47 1089.05 1389.24 Q1086.62 1390 1083.84 1391.55 L1083.84 1386.83 Q1086.67 1385.7 1089.12 1385.12 Q1091.57 1384.54 1093.61 1384.54 Q1098.98 1384.54 1102.18 1387.22 Q1105.37 1389.91 1105.37 1394.4 Q1105.37 1396.53 1104.56 1398.45 Q1103.77 1400.35 1101.67 1402.94 Q1101.09 1403.61 1097.99 1406.83 Q1094.88 1410.02 1089.24 1415.79 Z" fill="#000000" fill-rule="evenodd" fill-opacity="1" /><path clip-path="url(#clip500)" d="M 0 0 M1125.37 1388.24 Q1121.76 1388.24 1119.93 1391.81 Q1118.13 1395.35 1118.13 1402.48 Q1118.13 1409.59 1119.93 1413.15 Q1121.76 1416.69 1125.37 1416.69 Q1129 1416.69 1130.81 1413.15 Q1132.64 1409.59 1132.64 1402.48 Q1132.64 1395.35 1130.81 1391.81 Q1129 1388.24 1125.37 1388.24 M1125.37 1384.54 Q1131.18 1384.54 1134.24 1389.15 Q1137.31 1393.73 1137.31 1402.48 Q1137.31 1411.21 1134.24 1415.81 Q1131.18 1420.4 1125.37 1420.4 Q1119.56 1420.4 1116.48 1415.81 Q1113.43 1411.21 1113.43 1402.48 Q1113.43 1393.73 1116.48 1389.15 Q1119.56 1384.54 1125.37 1384.54 Z" fill="#000000" fill-rule="evenodd" fill-opacity="1" /><path clip-path="url(#clip500)" d="M 0 0 M1463.81 1401.09 Q1467.17 1401.81 1469.04 1404.08 Q1470.94 1406.34 1470.94 1409.68 Q1470.94 1414.79 1467.42 1417.59 Q1463.9 1420.4 1457.42 1420.4 Q1455.25 1420.4 1452.93 1419.96 Q1450.64 1419.54 1448.19 1418.68 L1448.19 1414.17 Q1450.13 1415.3 1452.45 1415.88 Q1454.76 1416.46 1457.28 1416.46 Q1461.68 1416.46 1463.97 1414.72 Q1466.29 1412.99 1466.29 1409.68 Q1466.29 1406.62 1464.13 1404.91 Q1462.01 1403.17 1458.19 1403.17 L1454.16 1403.17 L1454.16 1399.33 L1458.37 1399.33 Q1461.82 1399.33 1463.65 1397.96 Q1465.48 1396.58 1465.48 1393.98 Q1465.48 1391.32 1463.58 1389.91 Q1461.7 1388.47 1458.19 1388.47 Q1456.26 1388.47 1454.07 1388.89 Q1451.87 1389.31 1449.23 1390.19 L1449.23 1386.02 Q1451.89 1385.28 1454.2 1384.91 Q1456.54 1384.54 1458.6 1384.54 Q1463.93 1384.54 1467.03 1386.97 Q1470.13 1389.38 1470.13 1393.5 Q1470.13 1396.37 1468.49 1398.36 Q1466.84 1400.33 1463.81 1401.09 Z" fill="#000000" fill-rule="evenodd" fill-opacity="1" /><path clip-path="url(#clip500)" d="M 0 0 M1489.81 1388.24 Q1486.2 1388.24 1484.37 1391.81 Q1482.56 1395.35 1482.56 1402.48 Q1482.56 1409.59 1484.37 1413.15 Q1486.2 1416.69 1489.81 1416.69 Q1493.44 1416.69 1495.25 1413.15 Q1497.07 1409.59 1497.07 1402.48 Q1497.07 1395.35 1495.25 1391.81 Q1493.44 1388.24 1489.81 1388.24 M1489.81 1384.54 Q1495.62 1384.54 1498.67 1389.15 Q1501.75 1393.73 1501.75 1402.48 Q1501.75 1411.21 1498.67 1415.81 Q1495.62 1420.4 1489.81 1420.4 Q1484 1420.4 1480.92 1415.81 Q1477.86 1411.21 1477.86 1402.48 Q1477.86 1393.73 1480.92 1389.15 Q1484 1384.54 1489.81 1384.54 Z" fill="#000000" fill-rule="evenodd" fill-opacity="1" /><path clip-path="url(#clip500)" d="M 0 0 M1827.64 1389.24 L1815.84 1407.69 L1827.64 1407.69 L1827.64 1389.24 M1826.42 1385.16 L1832.3 1385.16 L1832.3 1407.69 L1837.23 1407.69 L1837.23 1411.58 L1832.3 1411.58 L1832.3 1419.72 L1827.64 1419.72 L1827.64 1411.58 L1812.04 1411.58 L1812.04 1407.06 L1826.42 1385.16 Z" fill="#000000" fill-rule="evenodd" fill-opacity="1" /><path clip-path="url(#clip500)" d="M 0 0 M1854.96 1388.24 Q1851.35 1388.24 1849.52 1391.81 Q1847.71 1395.35 1847.71 1402.48 Q1847.71 1409.59 1849.52 1413.15 Q1851.35 1416.69 1854.96 1416.69 Q1858.59 1416.69 1860.4 1413.15 Q1862.23 1409.59 1862.23 1402.48 Q1862.23 1395.35 1860.4 1391.81 Q1858.59 1388.24 1854.96 1388.24 M1854.96 1384.54 Q1860.77 1384.54 1863.82 1389.15 Q1866.9 1393.73 1866.9 1402.48 Q1866.9 1411.21 1863.82 1415.81 Q1860.77 1420.4 1854.96 1420.4 Q1849.15 1420.4 1846.07 1415.81 Q1843.01 1411.21 1843.01 1402.48 Q1843.01 1393.73 1846.07 1389.15 Q1849.15 1384.54 1854.96 1384.54 Z" fill="#000000" fill-rule="evenodd" fill-opacity="1" /><path clip-path="url(#clip500)" d="M 0 0 M2178.68 1385.16 L2197.03 1385.16 L2197.03 1389.1 L2182.96 1389.1 L2182.96 1397.57 Q2183.98 1397.22 2185 1397.06 Q2186.02 1396.88 2187.03 1396.88 Q2192.82 1396.88 2196.2 1400.05 Q2199.58 1403.22 2199.58 1408.64 Q2199.58 1414.21 2196.11 1417.32 Q2192.64 1420.4 2186.32 1420.4 Q2184.14 1420.4 2181.87 1420.02 Q2179.63 1419.65 2177.22 1418.91 L2177.22 1414.21 Q2179.3 1415.35 2181.52 1415.9 Q2183.75 1416.46 2186.22 1416.46 Q2190.23 1416.46 2192.57 1414.35 Q2194.9 1412.25 2194.9 1408.64 Q2194.9 1405.02 2192.57 1402.92 Q2190.23 1400.81 2186.22 1400.81 Q2184.35 1400.81 2182.47 1401.23 Q2180.62 1401.65 2178.68 1402.52 L2178.68 1385.16 Z" fill="#000000" fill-rule="evenodd" fill-opacity="1" /><path clip-path="url(#clip500)" d="M 0 0 M2218.79 1388.24 Q2215.18 1388.24 2213.35 1391.81 Q2211.55 1395.35 2211.55 1402.48 Q2211.55 1409.59 2213.35 1413.15 Q2215.18 1416.69 2218.79 1416.69 Q2222.43 1416.69 2224.23 1413.15 Q2226.06 1409.59 2226.06 1402.48 Q2226.06 1395.35 2224.23 1391.81 Q2222.43 1388.24 2218.79 1388.24 M2218.79 1384.54 Q2224.6 1384.54 2227.66 1389.15 Q2230.74 1393.73 2230.74 1402.48 Q2230.74 1411.21 2227.66 1415.81 Q2224.6 1420.4 2218.79 1420.4 Q2212.98 1420.4 2209.9 1415.81 Q2206.85 1411.21 2206.85 1402.48 Q2206.85 1393.73 2209.9 1389.15 Q2212.98 1384.54 2218.79 1384.54 Z" fill="#000000" fill-rule="evenodd" fill-opacity="1" /><path clip-path="url(#clip500)" d="M 0 0 M1051.9 1453.72 L1051.9 1458.59 L1046.3 1458.59 Q1043.15 1458.59 1041.91 1459.86 Q1040.7 1461.13 1040.7 1464.44 L1040.7 1467.6 L1050.34 1467.6 L1050.34 1472.15 L1040.7 1472.15 L1040.7 1503.24 L1034.81 1503.24 L1034.81 1472.15 L1029.21 1472.15 L1029.21 1467.6 L1034.81 1467.6 L1034.81 1465.11 Q1034.81 1459.16 1037.58 1456.46 Q1040.35 1453.72 1046.36 1453.72 L1051.9 1453.72 Z" fill="#000000" fill-rule="evenodd" fill-opacity="1" /><path clip-path="url(#clip500)" d="M 0 0 M1077.46 1473.07 Q1076.47 1472.5 1075.3 1472.24 Q1074.15 1471.96 1072.75 1471.96 Q1067.79 1471.96 1065.11 1475.2 Q1062.47 1478.42 1062.47 1484.47 L1062.47 1503.24 L1056.58 1503.24 L1056.58 1467.6 L1062.47 1467.6 L1062.47 1473.13 Q1064.32 1469.89 1067.28 1468.33 Q1070.24 1466.74 1074.47 1466.74 Q1075.07 1466.74 1075.81 1466.83 Q1076.54 1466.9 1077.43 1467.05 L1077.46 1473.07 Z" fill="#000000" fill-rule="evenodd" fill-opacity="1" /><path clip-path="url(#clip500)" d="M 0 0 M1112.66 1483.96 L1112.66 1486.82 L1085.74 1486.82 Q1086.12 1492.87 1089.36 1496.05 Q1092.64 1499.2 1098.47 1499.2 Q1101.84 1499.2 1104.99 1498.37 Q1108.18 1497.55 1111.29 1495.89 L1111.29 1501.43 Q1108.14 1502.77 1104.83 1503.47 Q1101.52 1504.17 1098.12 1504.17 Q1089.59 1504.17 1084.59 1499.2 Q1079.63 1494.24 1079.63 1485.77 Q1079.63 1477.02 1084.34 1471.89 Q1089.08 1466.74 1097.1 1466.74 Q1104.29 1466.74 1108.46 1471.38 Q1112.66 1476 1112.66 1483.96 M1106.81 1482.24 Q1106.74 1477.43 1104.1 1474.57 Q1101.49 1471.7 1097.16 1471.7 Q1092.26 1471.7 1089.3 1474.47 Q1086.37 1477.24 1085.93 1482.27 L1106.81 1482.24 Z" fill="#000000" fill-rule="evenodd" fill-opacity="1" /><path clip-path="url(#clip500)" d="M 0 0 M1125.78 1485.45 Q1125.78 1491.91 1128.42 1495.6 Q1131.09 1499.27 1135.74 1499.27 Q1140.39 1499.27 1143.06 1495.6 Q1145.73 1491.91 1145.73 1485.45 Q1145.73 1478.99 1143.06 1475.33 Q1140.39 1471.64 1135.74 1471.64 Q1131.09 1471.64 1128.42 1475.33 Q1125.78 1478.99 1125.78 1485.45 M1145.73 1497.9 Q1143.89 1501.08 1141.05 1502.64 Q1138.25 1504.17 1134.31 1504.17 Q1127.85 1504.17 1123.77 1499.01 Q1119.73 1493.85 1119.73 1485.45 Q1119.73 1477.05 1123.77 1471.89 Q1127.85 1466.74 1134.31 1466.74 Q1138.25 1466.74 1141.05 1468.3 Q1143.89 1469.82 1145.73 1473.01 L1145.73 1467.6 L1151.59 1467.6 L1151.59 1516.8 L1145.73 1516.8 L1145.73 1497.9 Z" fill="#000000" fill-rule="evenodd" fill-opacity="1" /><path clip-path="url(#clip500)" d="M 0 0 M1163.05 1489.18 L1163.05 1467.6 L1168.9 1467.6 L1168.9 1488.95 Q1168.9 1494.01 1170.88 1496.56 Q1172.85 1499.07 1176.8 1499.07 Q1181.54 1499.07 1184.28 1496.05 Q1187.05 1493.03 1187.05 1487.81 L1187.05 1467.6 L1192.9 1467.6 L1192.9 1503.24 L1187.05 1503.24 L1187.05 1497.77 Q1184.91 1501.02 1182.08 1502.61 Q1179.28 1504.17 1175.56 1504.17 Q1169.41 1504.17 1166.23 1500.35 Q1163.05 1496.53 1163.05 1489.18 M1177.78 1466.74 L1177.78 1466.74 Z" fill="#000000" fill-rule="evenodd" fill-opacity="1" /><path clip-path="url(#clip500)" d="M 0 0 M1235.46 1483.96 L1235.46 1486.82 L1208.53 1486.82 Q1208.91 1492.87 1212.16 1496.05 Q1215.44 1499.2 1221.26 1499.2 Q1224.64 1499.2 1227.79 1498.37 Q1230.97 1497.55 1234.09 1495.89 L1234.09 1501.43 Q1230.94 1502.77 1227.63 1503.47 Q1224.32 1504.17 1220.91 1504.17 Q1212.38 1504.17 1207.39 1499.2 Q1202.42 1494.24 1202.42 1485.77 Q1202.42 1477.02 1207.13 1471.89 Q1211.87 1466.74 1219.89 1466.74 Q1227.09 1466.74 1231.26 1471.38 Q1235.46 1476 1235.46 1483.96 M1229.6 1482.24 Q1229.54 1477.43 1226.9 1474.57 Q1224.29 1471.7 1219.96 1471.7 Q1215.06 1471.7 1212.1 1474.47 Q1209.17 1477.24 1208.72 1482.27 L1229.6 1482.24 Z" fill="#000000" fill-rule="evenodd" fill-opacity="1" /><path clip-path="url(#clip500)" d="M 0 0 M1274.7 1481.73 L1274.7 1503.24 L1268.85 1503.24 L1268.85 1481.92 Q1268.85 1476.86 1266.87 1474.34 Q1264.9 1471.83 1260.95 1471.83 Q1256.21 1471.83 1253.47 1474.85 Q1250.74 1477.88 1250.74 1483.1 L1250.74 1503.24 L1244.85 1503.24 L1244.85 1467.6 L1250.74 1467.6 L1250.74 1473.13 Q1252.84 1469.92 1255.67 1468.33 Q1258.53 1466.74 1262.26 1466.74 Q1268.4 1466.74 1271.55 1470.56 Q1274.7 1474.34 1274.7 1481.73 Z" fill="#000000" fill-rule="evenodd" fill-opacity="1" /><path clip-path="url(#clip500)" d="M 0 0 M1312.04 1468.96 L1312.04 1474.44 Q1309.55 1473.07 1307.04 1472.4 Q1304.56 1471.7 1302.01 1471.7 Q1296.31 1471.7 1293.16 1475.33 Q1290.01 1478.93 1290.01 1485.45 Q1290.01 1491.98 1293.16 1495.6 Q1296.31 1499.2 1302.01 1499.2 Q1304.56 1499.2 1307.04 1498.53 Q1309.55 1497.83 1312.04 1496.46 L1312.04 1501.88 Q1309.59 1503.02 1306.94 1503.59 Q1304.33 1504.17 1301.37 1504.17 Q1293.32 1504.17 1288.58 1499.11 Q1283.84 1494.05 1283.84 1485.45 Q1283.84 1476.73 1288.61 1471.73 Q1293.42 1466.74 1301.76 1466.74 Q1304.46 1466.74 1307.04 1467.31 Q1309.62 1467.85 1312.04 1468.96 Z" fill="#000000" fill-rule="evenodd" fill-opacity="1" /><path clip-path="url(#clip500)" d="M 0 0 M1337.05 1506.55 Q1334.57 1512.92 1332.22 1514.86 Q1329.86 1516.8 1325.91 1516.8 L1321.24 1516.8 L1321.24 1511.9 L1324.67 1511.9 Q1327.09 1511.9 1328.43 1510.76 Q1329.77 1509.61 1331.39 1505.34 L1332.44 1502.67 L1318.02 1467.6 L1324.23 1467.6 L1335.37 1495.48 L1346.51 1467.6 L1352.71 1467.6 L1337.05 1506.55 Z" fill="#000000" fill-rule="evenodd" fill-opacity="1" /><path clip-path="url(#clip500)" d="M 0 0 M1395.59 1453.78 Q1391.32 1461.1 1389.25 1468.26 Q1387.18 1475.43 1387.18 1482.78 Q1387.18 1490.13 1389.25 1497.36 Q1391.35 1504.55 1395.59 1511.84 L1390.49 1511.84 Q1385.72 1504.36 1383.33 1497.13 Q1380.98 1489.91 1380.98 1482.78 Q1380.98 1475.68 1383.33 1468.49 Q1385.69 1461.29 1390.49 1453.78 L1395.59 1453.78 Z" fill="#000000" fill-rule="evenodd" fill-opacity="1" /><path clip-path="url(#clip500)" d="M 0 0 M1439.61 1496.46 L1439.61 1483.7 L1429.1 1483.7 L1429.1 1478.42 L1445.97 1478.42 L1445.97 1498.82 Q1442.25 1501.46 1437.76 1502.83 Q1433.27 1504.17 1428.18 1504.17 Q1417.04 1504.17 1410.74 1497.67 Q1404.47 1491.15 1404.47 1479.53 Q1404.47 1467.88 1410.74 1461.39 Q1417.04 1454.86 1428.18 1454.86 Q1432.83 1454.86 1437 1456.01 Q1441.2 1457.16 1444.73 1459.38 L1444.73 1466.23 Q1441.17 1463.2 1437.16 1461.68 Q1433.14 1460.15 1428.72 1460.15 Q1420 1460.15 1415.61 1465.02 Q1411.25 1469.89 1411.25 1479.53 Q1411.25 1489.14 1415.61 1494.01 Q1420 1498.88 1428.72 1498.88 Q1432.13 1498.88 1434.8 1498.31 Q1437.47 1497.71 1439.61 1496.46 Z" fill="#000000" fill-rule="evenodd" fill-opacity="1" /><path clip-path="url(#clip500)" d="M 0 0 M1457.72 1455.72 L1464.15 1455.72 L1464.15 1475.2 L1487.51 1475.2 L1487.51 1455.72 L1493.94 1455.72 L1493.94 1503.24 L1487.51 1503.24 L1487.51 1480.61 L1464.15 1480.61 L1464.15 1503.24 L1457.72 1503.24 L1457.72 1455.72 Z" fill="#000000" fill-rule="evenodd" fill-opacity="1" /><path clip-path="url(#clip500)" d="M 0 0 M1503.93 1467.6 L1531.75 1467.6 L1531.75 1472.94 L1509.72 1498.57 L1531.75 1498.57 L1531.75 1503.24 L1503.14 1503.24 L1503.14 1497.9 L1525.16 1472.27 L1503.93 1472.27 L1503.93 1467.6 Z" fill="#000000" fill-rule="evenodd" fill-opacity="1" /><path clip-path="url(#clip500)" d="M 0 0 M1539.77 1453.78 L1544.86 1453.78 Q1549.64 1461.29 1551.99 1468.49 Q1554.38 1475.68 1554.38 1482.78 Q1554.38 1489.91 1551.99 1497.13 Q1549.64 1504.36 1544.86 1511.84 L1539.77 1511.84 Q1544 1504.55 1546.07 1497.36 Q1548.17 1490.13 1548.17 1482.78 Q1548.17 1475.43 1546.07 1468.26 Q1544 1461.1 1539.77 1453.78 Z" fill="#000000" fill-rule="evenodd" fill-opacity="1" /><polyline clip-path="url(#clip503)" style="stroke:#000000; stroke-width:2; stroke-opacity:0.1; fill:none" points="
  326.833,1324.83 2256.76,1324.83 
  "/>
<polyline clip-path="url(#clip503)" style="stroke:#000000; stroke-width:2; stroke-opacity:0.1; fill:none" points="
  326.833,1076.93 2256.76,1076.93 
  "/>
<polyline clip-path="url(#clip503)" style="stroke:#000000; stroke-width:2; stroke-opacity:0.1; fill:none" points="
  326.833,829.041 2256.76,829.041 
  "/>
<polyline clip-path="url(#clip503)" style="stroke:#000000; stroke-width:2; stroke-opacity:0.1; fill:none" points="
  326.833,581.147 2256.76,581.147 
  "/>
<polyline clip-path="url(#clip503)" style="stroke:#000000; stroke-width:2; stroke-opacity:0.1; fill:none" points="
  326.833,333.253 2256.76,333.253 
  "/>
<polyline clip-path="url(#clip500)" style="stroke:#000000; stroke-width:4; stroke-opacity:1; fill:none" points="
  326.833,1359.82 326.833,123.472 
  "/>
<polyline clip-path="url(#clip500)" style="stroke:#000000; stroke-width:4; stroke-opacity:1; fill:none" points="
  326.833,1324.83 349.992,1324.83 
  "/>
<polyline clip-path="url(#clip500)" style="stroke:#000000; stroke-width:4; stroke-opacity:1; fill:none" points="
  326.833,1076.93 349.992,1076.93 
  "/>
<polyline clip-path="url(#clip500)" style="stroke:#000000; stroke-width:4; stroke-opacity:1; fill:none" points="
  326.833,829.041 349.992,829.041 
  "/>
<polyline clip-path="url(#clip500)" style="stroke:#000000; stroke-width:4; stroke-opacity:1; fill:none" points="
  326.833,581.147 349.992,581.147 
  "/>
<polyline clip-path="url(#clip500)" style="stroke:#000000; stroke-width:4; stroke-opacity:1; fill:none" points="
  326.833,333.253 349.992,333.253 
  "/>
<path clip-path="url(#clip500)" d="M 0 0 M280.328 1310.63 Q276.717 1310.63 274.889 1314.19 Q273.083 1317.73 273.083 1324.86 Q273.083 1331.97 274.889 1335.53 Q276.717 1339.08 280.328 1339.08 Q283.963 1339.08 285.768 1335.53 Q287.597 1331.97 287.597 1324.86 Q287.597 1317.73 285.768 1314.19 Q283.963 1310.63 280.328 1310.63 M280.328 1306.92 Q286.138 1306.92 289.194 1311.53 Q292.273 1316.11 292.273 1324.86 Q292.273 1333.59 289.194 1338.2 Q286.138 1342.78 280.328 1342.78 Q274.518 1342.78 271.44 1338.2 Q268.384 1333.59 268.384 1324.86 Q268.384 1316.11 271.44 1311.53 Q274.518 1306.92 280.328 1306.92 Z" fill="#000000" fill-rule="evenodd" fill-opacity="1" /><path clip-path="url(#clip500)" d="M 0 0 M183.871 1090.28 L200.19 1090.28 L200.19 1094.21 L178.246 1094.21 L178.246 1090.28 Q180.908 1087.53 185.491 1082.9 Q190.097 1078.24 191.278 1076.9 Q193.523 1074.38 194.403 1072.64 Q195.306 1070.88 195.306 1069.19 Q195.306 1066.44 193.361 1064.7 Q191.44 1062.97 188.338 1062.97 Q186.139 1062.97 183.685 1063.73 Q181.255 1064.49 178.477 1066.04 L178.477 1061.32 Q181.301 1060.19 183.755 1059.61 Q186.208 1059.03 188.246 1059.03 Q193.616 1059.03 196.81 1061.72 Q200.005 1064.4 200.005 1068.89 Q200.005 1071.02 199.195 1072.94 Q198.407 1074.84 196.301 1077.43 Q195.722 1078.1 192.62 1081.32 Q189.519 1084.52 183.871 1090.28 Z" fill="#000000" fill-rule="evenodd" fill-opacity="1" /><path clip-path="url(#clip500)" d="M 0 0 M220.005 1062.73 Q216.394 1062.73 214.565 1066.3 Q212.759 1069.84 212.759 1076.97 Q212.759 1084.08 214.565 1087.64 Q216.394 1091.18 220.005 1091.18 Q223.639 1091.18 225.444 1087.64 Q227.273 1084.08 227.273 1076.97 Q227.273 1069.84 225.444 1066.3 Q223.639 1062.73 220.005 1062.73 M220.005 1059.03 Q225.815 1059.03 228.87 1063.64 Q231.949 1068.22 231.949 1076.97 Q231.949 1085.7 228.87 1090.3 Q225.815 1094.89 220.005 1094.89 Q214.194 1094.89 211.116 1090.3 Q208.06 1085.7 208.06 1076.97 Q208.06 1068.22 211.116 1063.64 Q214.194 1059.03 220.005 1059.03 Z" fill="#000000" fill-rule="evenodd" fill-opacity="1" /><path clip-path="url(#clip500)" d="M 0 0 M250.166 1062.73 Q246.555 1062.73 244.727 1066.3 Q242.921 1069.84 242.921 1076.97 Q242.921 1084.08 244.727 1087.64 Q246.555 1091.18 250.166 1091.18 Q253.801 1091.18 255.606 1087.64 Q257.435 1084.08 257.435 1076.97 Q257.435 1069.84 255.606 1066.3 Q253.801 1062.73 250.166 1062.73 M250.166 1059.03 Q255.977 1059.03 259.032 1063.64 Q262.111 1068.22 262.111 1076.97 Q262.111 1085.7 259.032 1090.3 Q255.977 1094.89 250.166 1094.89 Q244.356 1094.89 241.278 1090.3 Q238.222 1085.7 238.222 1076.97 Q238.222 1068.22 241.278 1063.64 Q244.356 1059.03 250.166 1059.03 Z" fill="#000000" fill-rule="evenodd" fill-opacity="1" /><path clip-path="url(#clip500)" d="M 0 0 M280.328 1062.73 Q276.717 1062.73 274.889 1066.3 Q273.083 1069.84 273.083 1076.97 Q273.083 1084.08 274.889 1087.64 Q276.717 1091.18 280.328 1091.18 Q283.963 1091.18 285.768 1087.64 Q287.597 1084.08 287.597 1076.97 Q287.597 1069.84 285.768 1066.3 Q283.963 1062.73 280.328 1062.73 M280.328 1059.03 Q286.138 1059.03 289.194 1063.64 Q292.273 1068.22 292.273 1076.97 Q292.273 1085.7 289.194 1090.3 Q286.138 1094.89 280.328 1094.89 Q274.518 1094.89 271.44 1090.3 Q268.384 1085.7 268.384 1076.97 Q268.384 1068.22 271.44 1063.64 Q274.518 1059.03 280.328 1059.03 Z" fill="#000000" fill-rule="evenodd" fill-opacity="1" /><path clip-path="url(#clip500)" d="M 0 0 M192.69 815.835 L180.884 834.284 L192.69 834.284 L192.69 815.835 M191.463 811.761 L197.343 811.761 L197.343 834.284 L202.273 834.284 L202.273 838.173 L197.343 838.173 L197.343 846.321 L192.69 846.321 L192.69 838.173 L177.088 838.173 L177.088 833.659 L191.463 811.761 Z" fill="#000000" fill-rule="evenodd" fill-opacity="1" /><path clip-path="url(#clip500)" d="M 0 0 M220.005 814.84 Q216.394 814.84 214.565 818.405 Q212.759 821.946 212.759 829.076 Q212.759 836.182 214.565 839.747 Q216.394 843.289 220.005 843.289 Q223.639 843.289 225.444 839.747 Q227.273 836.182 227.273 829.076 Q227.273 821.946 225.444 818.405 Q223.639 814.84 220.005 814.84 M220.005 811.136 Q225.815 811.136 228.87 815.743 Q231.949 820.326 231.949 829.076 Q231.949 837.803 228.87 842.409 Q225.815 846.992 220.005 846.992 Q214.194 846.992 211.116 842.409 Q208.06 837.803 208.06 829.076 Q208.06 820.326 211.116 815.743 Q214.194 811.136 220.005 811.136 Z" fill="#000000" fill-rule="evenodd" fill-opacity="1" /><path clip-path="url(#clip500)" d="M 0 0 M250.166 814.84 Q246.555 814.84 244.727 818.405 Q242.921 821.946 242.921 829.076 Q242.921 836.182 244.727 839.747 Q246.555 843.289 250.166 843.289 Q253.801 843.289 255.606 839.747 Q257.435 836.182 257.435 829.076 Q257.435 821.946 255.606 818.405 Q253.801 814.84 250.166 814.84 M250.166 811.136 Q255.977 811.136 259.032 815.743 Q262.111 820.326 262.111 829.076 Q262.111 837.803 259.032 842.409 Q255.977 846.992 250.166 846.992 Q244.356 846.992 241.278 842.409 Q238.222 837.803 238.222 829.076 Q238.222 820.326 241.278 815.743 Q244.356 811.136 250.166 811.136 Z" fill="#000000" fill-rule="evenodd" fill-opacity="1" /><path clip-path="url(#clip500)" d="M 0 0 M280.328 814.84 Q276.717 814.84 274.889 818.405 Q273.083 821.946 273.083 829.076 Q273.083 836.182 274.889 839.747 Q276.717 843.289 280.328 843.289 Q283.963 843.289 285.768 839.747 Q287.597 836.182 287.597 829.076 Q287.597 821.946 285.768 818.405 Q283.963 814.84 280.328 814.84 M280.328 811.136 Q286.138 811.136 289.194 815.743 Q292.273 820.326 292.273 829.076 Q292.273 837.803 289.194 842.409 Q286.138 846.992 280.328 846.992 Q274.518 846.992 271.44 842.409 Q268.384 837.803 268.384 829.076 Q268.384 820.326 271.44 815.743 Q274.518 811.136 280.328 811.136 Z" fill="#000000" fill-rule="evenodd" fill-opacity="1" /><path clip-path="url(#clip500)" d="M 0 0 M190.421 579.284 Q187.273 579.284 185.421 581.437 Q183.593 583.589 183.593 587.339 Q183.593 591.066 185.421 593.242 Q187.273 595.395 190.421 595.395 Q193.57 595.395 195.398 593.242 Q197.25 591.066 197.25 587.339 Q197.25 583.589 195.398 581.437 Q193.57 579.284 190.421 579.284 M199.704 564.631 L199.704 568.89 Q197.945 568.057 196.139 567.617 Q194.357 567.177 192.597 567.177 Q187.968 567.177 185.514 570.302 Q183.083 573.427 182.736 579.747 Q184.102 577.733 186.162 576.668 Q188.222 575.58 190.699 575.58 Q195.908 575.58 198.917 578.751 Q201.949 581.9 201.949 587.339 Q201.949 592.663 198.801 595.881 Q195.653 599.099 190.421 599.099 Q184.426 599.099 181.255 594.515 Q178.084 589.909 178.084 581.182 Q178.084 572.988 181.972 568.126 Q185.861 563.242 192.412 563.242 Q194.171 563.242 195.954 563.589 Q197.759 563.937 199.704 564.631 Z" fill="#000000" fill-rule="evenodd" fill-opacity="1" /><path clip-path="url(#clip500)" d="M 0 0 M220.005 566.946 Q216.394 566.946 214.565 570.511 Q212.759 574.052 212.759 581.182 Q212.759 588.288 214.565 591.853 Q216.394 595.395 220.005 595.395 Q223.639 595.395 225.444 591.853 Q227.273 588.288 227.273 581.182 Q227.273 574.052 225.444 570.511 Q223.639 566.946 220.005 566.946 M220.005 563.242 Q225.815 563.242 228.87 567.849 Q231.949 572.432 231.949 581.182 Q231.949 589.909 228.87 594.515 Q225.815 599.099 220.005 599.099 Q214.194 599.099 211.116 594.515 Q208.06 589.909 208.06 581.182 Q208.06 572.432 211.116 567.849 Q214.194 563.242 220.005 563.242 Z" fill="#000000" fill-rule="evenodd" fill-opacity="1" /><path clip-path="url(#clip500)" d="M 0 0 M250.166 566.946 Q246.555 566.946 244.727 570.511 Q242.921 574.052 242.921 581.182 Q242.921 588.288 244.727 591.853 Q246.555 595.395 250.166 595.395 Q253.801 595.395 255.606 591.853 Q257.435 588.288 257.435 581.182 Q257.435 574.052 255.606 570.511 Q253.801 566.946 250.166 566.946 M250.166 563.242 Q255.977 563.242 259.032 567.849 Q262.111 572.432 262.111 581.182 Q262.111 589.909 259.032 594.515 Q255.977 599.099 250.166 599.099 Q244.356 599.099 241.278 594.515 Q238.222 589.909 238.222 581.182 Q238.222 572.432 241.278 567.849 Q244.356 563.242 250.166 563.242 Z" fill="#000000" fill-rule="evenodd" fill-opacity="1" /><path clip-path="url(#clip500)" d="M 0 0 M280.328 566.946 Q276.717 566.946 274.889 570.511 Q273.083 574.052 273.083 581.182 Q273.083 588.288 274.889 591.853 Q276.717 595.395 280.328 595.395 Q283.963 595.395 285.768 591.853 Q287.597 588.288 287.597 581.182 Q287.597 574.052 285.768 570.511 Q283.963 566.946 280.328 566.946 M280.328 563.242 Q286.138 563.242 289.194 567.849 Q292.273 572.432 292.273 581.182 Q292.273 589.909 289.194 594.515 Q286.138 599.099 280.328 599.099 Q274.518 599.099 271.44 594.515 Q268.384 589.909 268.384 581.182 Q268.384 572.432 271.44 567.849 Q274.518 563.242 280.328 563.242 Z" fill="#000000" fill-rule="evenodd" fill-opacity="1" /><path clip-path="url(#clip500)" d="M 0 0 M189.843 334.121 Q186.509 334.121 184.588 335.904 Q182.69 337.686 182.69 340.811 Q182.69 343.936 184.588 345.719 Q186.509 347.501 189.843 347.501 Q193.176 347.501 195.097 345.719 Q197.019 343.913 197.019 340.811 Q197.019 337.686 195.097 335.904 Q193.199 334.121 189.843 334.121 M185.167 332.131 Q182.158 331.39 180.468 329.33 Q178.801 327.27 178.801 324.307 Q178.801 320.163 181.741 317.756 Q184.704 315.348 189.843 315.348 Q195.005 315.348 197.945 317.756 Q200.884 320.163 200.884 324.307 Q200.884 327.27 199.195 329.33 Q197.528 331.39 194.542 332.131 Q197.921 332.918 199.796 335.209 Q201.695 337.501 201.695 340.811 Q201.695 345.834 198.616 348.519 Q195.56 351.205 189.843 351.205 Q184.125 351.205 181.046 348.519 Q177.991 345.834 177.991 340.811 Q177.991 337.501 179.889 335.209 Q181.787 332.918 185.167 332.131 M183.454 324.746 Q183.454 327.432 185.121 328.936 Q186.81 330.441 189.843 330.441 Q192.852 330.441 194.542 328.936 Q196.255 327.432 196.255 324.746 Q196.255 322.061 194.542 320.557 Q192.852 319.052 189.843 319.052 Q186.81 319.052 185.121 320.557 Q183.454 322.061 183.454 324.746 Z" fill="#000000" fill-rule="evenodd" fill-opacity="1" /><path clip-path="url(#clip500)" d="M 0 0 M220.005 319.052 Q216.394 319.052 214.565 322.617 Q212.759 326.158 212.759 333.288 Q212.759 340.395 214.565 343.959 Q216.394 347.501 220.005 347.501 Q223.639 347.501 225.444 343.959 Q227.273 340.395 227.273 333.288 Q227.273 326.158 225.444 322.617 Q223.639 319.052 220.005 319.052 M220.005 315.348 Q225.815 315.348 228.87 319.955 Q231.949 324.538 231.949 333.288 Q231.949 342.015 228.87 346.621 Q225.815 351.205 220.005 351.205 Q214.194 351.205 211.116 346.621 Q208.06 342.015 208.06 333.288 Q208.06 324.538 211.116 319.955 Q214.194 315.348 220.005 315.348 Z" fill="#000000" fill-rule="evenodd" fill-opacity="1" /><path clip-path="url(#clip500)" d="M 0 0 M250.166 319.052 Q246.555 319.052 244.727 322.617 Q242.921 326.158 242.921 333.288 Q242.921 340.395 244.727 343.959 Q246.555 347.501 250.166 347.501 Q253.801 347.501 255.606 343.959 Q257.435 340.395 257.435 333.288 Q257.435 326.158 255.606 322.617 Q253.801 319.052 250.166 319.052 M250.166 315.348 Q255.977 315.348 259.032 319.955 Q262.111 324.538 262.111 333.288 Q262.111 342.015 259.032 346.621 Q255.977 351.205 250.166 351.205 Q244.356 351.205 241.278 346.621 Q238.222 342.015 238.222 333.288 Q238.222 324.538 241.278 319.955 Q244.356 315.348 250.166 315.348 Z" fill="#000000" fill-rule="evenodd" fill-opacity="1" /><path clip-path="url(#clip500)" d="M 0 0 M280.328 319.052 Q276.717 319.052 274.889 322.617 Q273.083 326.158 273.083 333.288 Q273.083 340.395 274.889 343.959 Q276.717 347.501 280.328 347.501 Q283.963 347.501 285.768 343.959 Q287.597 340.395 287.597 333.288 Q287.597 326.158 285.768 322.617 Q283.963 319.052 280.328 319.052 M280.328 315.348 Q286.138 315.348 289.194 319.955 Q292.273 324.538 292.273 333.288 Q292.273 342.015 289.194 346.621 Q286.138 351.205 280.328 351.205 Q274.518 351.205 271.44 346.621 Q268.384 342.015 268.384 333.288 Q268.384 324.538 271.44 319.955 Q274.518 315.348 280.328 315.348 Z" fill="#000000" fill-rule="evenodd" fill-opacity="1" /><path clip-path="url(#clip500)" d="M 0 0 M96.5483 797.856 L112.973 803.524 L112.973 858.21 Q112.973 858.951 112.941 859.24 Q112.909 859.53 112.748 859.756 Q112.587 859.981 112.233 859.981 Q111.943 859.981 111.202 859.402 L82.2489 835.988 L49.1412 860.046 Q47.6276 860.046 47.3377 859.788 Q47.0157 859.53 47.0157 858.21 L47.0157 803.524 L62.4423 797.856 L62.4423 799.499 Q60.4455 800.239 58.7708 801.431 Q57.0639 802.59 55.8401 803.943 Q54.6162 805.263 53.6501 807.003 Q52.6517 808.709 52.0398 810.32 Q51.3957 811.898 50.9448 813.862 Q50.4617 815.827 50.2362 817.405 Q49.9786 818.951 49.8498 820.883 Q49.7209 822.816 49.6887 824.039 Q49.6565 825.263 49.6565 826.809 L49.6565 852.928 L79.0605 831.511 Q79.8012 831.028 79.9945 831.028 Q80.2843 831.028 81.0572 831.64 L109.334 854.506 L109.334 826.487 Q109.334 817.469 107.434 811.189 Q105.985 806.938 103.118 803.846 Q100.252 800.722 96.5483 799.499 L96.5483 797.856 Z" fill="#000000" fill-rule="evenodd" fill-opacity="1" /><path clip-path="url(#clip500)" d="M 0 0 M129.637 871.053 Q130.629 871.053 131.373 871.865 Q132.095 872.654 132.095 873.51 Q132.095 874.299 131.621 874.795 Q131.125 875.269 130.426 875.269 Q129.502 875.269 128.736 874.48 Q127.969 873.691 127.969 872.766 Q127.969 872 128.443 871.527 Q128.916 871.053 129.637 871.053 M151.888 870.647 Q152.069 870.647 152.79 870.85 Q153.489 871.053 154.571 871.549 Q155.631 872.023 156.623 872.676 Q157.615 873.33 158.314 874.412 Q159.012 875.472 159.012 876.689 Q159.012 878.335 157.93 879.417 Q156.848 880.477 155.225 880.477 Q154.346 880.477 151.528 879.417 Q143.322 876.351 142.984 876.238 Q141.699 875.72 140.571 875.72 Q140.053 875.72 139.737 875.832 Q139.399 875.945 139.286 876.171 Q139.151 876.396 139.128 876.531 Q139.106 876.644 139.106 876.869 Q139.106 878.2 140.459 879.44 Q141.811 880.679 144.832 881.536 Q145.396 881.716 145.531 881.829 Q145.666 881.942 145.666 882.28 Q145.644 882.844 145.193 882.844 Q145.058 882.844 144.539 882.686 Q143.998 882.528 143.186 882.235 Q142.352 881.942 141.496 881.423 Q140.616 880.905 139.85 880.274 Q139.083 879.62 138.587 878.696 Q138.091 877.771 138.091 876.734 Q138.091 875.043 139.196 874.006 Q140.278 872.947 141.879 872.947 Q142.758 872.947 144.314 873.556 Q146.343 874.299 146.996 874.57 L151.843 876.374 Q153.602 877.027 154.143 877.23 Q154.661 877.411 155.293 877.568 Q155.901 877.704 156.465 877.704 Q157.254 877.704 157.615 877.456 Q157.975 877.185 157.975 876.599 Q157.975 874.976 156.375 873.781 Q154.752 872.586 152.272 871.887 Q152.204 871.865 152.091 871.842 Q151.528 871.662 151.46 871.481 Q151.438 871.391 151.438 871.211 Q151.438 870.647 151.888 870.647 Z" fill="#000000" fill-rule="evenodd" fill-opacity="1" /><path clip-path="url(#clip500)" d="M 0 0 M151.483 854.271 Q150.919 854.225 150.919 853.346 L150.919 825.053 Q150.919 823.723 151.438 823.701 Q152.001 823.701 151.979 824.963 L151.979 853.031 Q152.001 854.271 151.483 854.271 M142.465 854.271 Q141.901 854.271 141.924 853.301 L141.924 825.098 Q141.924 823.723 142.465 823.701 Q142.984 823.701 142.984 824.873 L142.984 853.346 Q142.984 854.271 142.465 854.271 Z" fill="#000000" fill-rule="evenodd" fill-opacity="1" /><path clip-path="url(#clip500)" d="M 0 0 M132.14 805.893 L130.697 805.893 Q130.697 800.347 127.744 797.484 Q127.744 796.695 127.924 796.559 Q128.104 796.424 128.939 796.424 L154.842 796.424 Q156.217 796.424 156.645 795.748 Q157.074 795.071 157.074 792.118 L157.074 790.653 L158.494 790.653 Q158.359 792.276 158.359 798.137 Q158.359 803.999 158.494 805.599 L157.074 805.599 L157.074 804.134 Q157.074 801.226 156.668 800.527 Q156.239 799.828 154.842 799.828 L130.922 799.828 Q132.14 802.24 132.14 805.893 Z" fill="#000000" fill-rule="evenodd" fill-opacity="1" /><path clip-path="url(#clip500)" d="M 0 0 M-1.6977 853.952 L-3.14052 853.952 Q-3.14052 848.406 -6.0938 845.543 Q-6.0938 844.754 -5.91345 844.619 Q-5.73309 844.483 -4.89896 844.483 L21.0042 844.483 Q22.3794 844.483 22.8077 843.807 Q23.2361 843.131 23.2361 840.178 L23.2361 838.712 L24.6564 838.712 Q24.5211 840.335 24.5211 846.197 Q24.5211 852.058 24.6564 853.659 L23.2361 853.659 L23.2361 852.194 Q23.2361 849.285 22.8303 848.587 Q22.4019 847.888 21.0042 847.888 L-2.91508 847.888 Q-1.6977 850.3 -1.6977 853.952 Z" fill="#000000" fill-rule="evenodd" fill-opacity="1" /><path clip-path="url(#clip500)" d="M 0 0 M9.88997 834.784 Q3.1042 834.784 -0.593038 833.071 Q-6.0938 830.681 -6.0938 825.045 Q-6.0938 823.85 -5.75564 822.61 Q-5.44002 821.348 -4.20009 819.77 Q-2.96017 818.169 -0.931199 817.2 Q2.99147 815.351 9.88997 815.351 Q16.6307 815.351 20.3053 817.065 Q25.6708 819.567 25.6708 825.09 Q25.6708 827.164 24.6113 829.283 Q23.5517 831.38 21.0042 832.71 Q17.1943 834.784 9.88997 834.784 M9.32637 830.952 Q16.2925 830.952 19.0654 830.456 Q22.0638 829.892 23.3713 828.359 Q24.6564 826.804 24.6564 825.09 Q24.6564 823.242 23.2812 821.709 Q21.8834 820.153 18.8851 819.68 Q15.9318 819.161 9.32637 819.184 Q2.9013 819.184 0.33127 819.635 Q-2.6671 820.243 -3.86193 821.866 Q-5.07931 823.467 -5.07931 825.09 Q-5.07931 825.699 -4.89896 826.353 Q-4.71861 826.984 -4.20009 827.908 Q-3.68158 828.833 -2.39657 829.554 Q-1.11155 830.253 0.827241 830.591 Q3.32964 830.952 9.32637 830.952 Z" fill="#000000" fill-rule="evenodd" fill-opacity="1" /><path clip-path="url(#clip500)" d="M 0 0 M59.3995 739.265 L60.3238 739.828 Q58.8134 743.323 56.4012 747.674 Q58.8134 752.025 60.3238 755.519 L59.3995 756.06 Q56.0856 752.25 53.5381 747.674 Q56.1081 743.052 59.3995 739.265 Z" fill="#000000" fill-rule="evenodd" fill-opacity="1" /><path clip-path="url(#clip500)" d="M 0 0 M70.4293 736.755 Q70.4615 736.755 71.6209 736.949 L100.896 744.291 Q102.442 744.678 103.988 745.773 Q105.566 746.836 106.919 748.543 Q108.303 750.217 109.141 752.794 Q110.01 755.338 110.01 758.269 Q110.01 762.939 109.012 765 Q108.046 767.029 105.985 767.029 Q104.181 767.029 103.15 765.902 Q102.152 764.774 102.152 763.486 Q102.152 762.262 102.861 761.618 Q103.569 760.974 104.471 760.974 Q105.469 760.974 106.468 761.65 Q107.498 762.327 107.885 763.679 Q108.561 761.522 108.561 758.398 Q108.561 751.795 101.572 748.961 Q101.476 748.897 101.444 748.897 L92.7158 746.707 L92.6514 746.804 Q93.2955 747.351 94.0362 748.221 Q94.7447 749.058 95.6143 750.861 Q96.4839 752.665 96.4839 754.436 Q96.4839 758.14 93.6497 760.684 Q90.7834 763.196 86.0492 763.196 Q82.6031 763.196 79.1571 761.811 Q75.6789 760.394 73.1346 758.204 Q70.5581 755.982 68.9478 753.148 Q67.3376 750.282 67.3376 747.512 Q67.3376 745.58 68.497 743.937 Q69.6242 742.295 71.4921 741.393 Q69.9462 741.232 69.3021 740.362 Q68.658 739.461 68.658 738.688 Q68.658 737.818 69.1411 737.303 Q69.592 736.755 70.4293 736.755 M74.455 742.166 Q74.2618 742.166 73.7465 742.295 Q73.199 742.424 72.3295 742.81 Q71.4599 743.164 70.687 743.712 Q69.914 744.259 69.3665 745.258 Q68.7868 746.224 68.7868 747.448 Q68.7868 749.444 70.4615 751.441 Q72.104 753.438 74.6483 754.823 Q77.0959 756.111 81.8302 757.335 Q86.5645 758.526 88.9799 758.526 Q91.3631 758.526 93.1989 757.496 Q95.0346 756.465 95.0346 754.243 Q95.0346 751.667 92.6514 748.897 Q90.1715 746.031 88.0459 745.548 L75.4534 742.359 Q74.6805 742.166 74.455 742.166 Z" fill="#000000" fill-rule="evenodd" fill-opacity="1" /><path clip-path="url(#clip500)" d="M 0 0 M41.1747 728.64 Q33.3744 728.64 27.0846 725.731 Q24.447 724.491 22.2376 722.756 Q20.0283 721.02 19.0589 719.87 Q18.0895 718.72 18.0895 718.405 Q18.0895 717.954 18.5404 717.931 Q18.7658 717.931 19.3294 718.54 Q26.9043 725.979 41.1747 725.957 Q55.4902 725.957 62.7719 718.72 Q63.561 717.931 63.809 717.931 Q64.2598 717.931 64.2598 718.405 Q64.2598 718.72 63.3355 719.825 Q62.4112 720.929 60.2921 722.643 Q58.1729 724.356 55.5804 725.596 Q49.2906 728.64 41.1747 728.64 Z" fill="#000000" fill-rule="evenodd" fill-opacity="1" /><path clip-path="url(#clip500)" d="M 0 0 M52.7173 710.911 Q51.8831 710.911 51.6351 710.844 Q51.3872 710.753 51.0039 710.393 L41.1296 701.533 Q35.6739 696.686 30.9171 696.686 Q27.8286 696.686 25.6192 698.309 Q23.4099 699.91 23.4099 702.863 Q23.4099 704.892 24.6498 706.605 Q25.8898 708.319 28.0991 709.108 Q28.054 708.972 28.054 708.499 Q28.054 707.349 28.7754 706.718 Q29.4968 706.064 30.4662 706.064 Q31.7062 706.064 32.3148 706.876 Q32.901 707.665 32.901 708.454 Q32.901 708.77 32.8334 709.198 Q32.7657 709.604 32.1345 710.257 Q31.4807 710.911 30.331 710.911 Q27.1072 710.911 24.5371 708.476 Q21.9671 706.019 21.9671 702.277 Q21.9671 698.039 24.492 695.266 Q26.9944 692.47 30.9171 692.47 Q32.2923 692.47 33.5548 692.898 Q34.7947 693.304 35.7641 693.868 Q36.7335 694.409 38.289 695.897 Q39.8446 697.385 40.9492 698.58 Q42.0539 699.774 44.3985 702.457 L49.1553 707.349 L49.1553 699.03 Q49.1553 694.973 48.7946 694.657 Q48.1408 694.206 44.6916 693.642 L44.6916 692.47 L52.7173 693.778 L52.7173 710.911 Z" fill="#000000" fill-rule="evenodd" fill-opacity="1" /><path clip-path="url(#clip500)" d="M 0 0 M63.809 688.047 Q63.5835 688.047 63.0199 687.461 Q55.4451 680.022 41.1747 680.022 Q26.8592 680.022 19.6225 687.168 Q18.7884 688.047 18.5404 688.047 Q18.0895 688.047 18.0895 687.597 Q18.0895 687.281 19.0138 686.176 Q19.9381 685.049 22.0573 683.358 Q24.1764 681.645 26.769 680.382 Q33.0588 677.339 41.1747 677.339 Q48.9749 677.339 55.2647 680.247 Q57.9024 681.487 60.1117 683.223 Q62.321 684.959 63.2904 686.109 Q64.2598 687.258 64.2598 687.597 Q64.2598 688.047 63.809 688.047 Z" fill="#000000" fill-rule="evenodd" fill-opacity="1" /><path clip-path="url(#clip500)" d="M 0 0 M79.9945 663.279 Q68.8512 663.279 59.8658 659.125 Q56.0977 657.353 52.9415 654.873 Q49.7854 652.394 48.4005 650.751 Q47.0157 649.109 47.0157 648.658 Q47.0157 648.014 47.6598 647.981 Q47.9818 647.981 48.787 648.851 Q59.6081 659.479 79.9945 659.447 Q100.445 659.447 110.848 649.109 Q111.975 647.981 112.329 647.981 Q112.973 647.981 112.973 648.658 Q112.973 649.109 111.653 650.687 Q110.332 652.265 107.305 654.712 Q104.278 657.16 100.574 658.931 Q91.5886 663.279 79.9945 663.279 Z" fill="#000000" fill-rule="evenodd" fill-opacity="1" /><path clip-path="url(#clip500)" d="M 0 0 M69.1089 606.906 Q69.3987 606.906 70.3971 607.164 Q71.3633 607.39 73.2634 608.13 Q75.1314 608.839 77.2248 609.934 Q79.2859 610.997 81.8946 612.961 Q84.5033 614.926 86.7899 617.373 Q91.1055 621.979 93.4243 626.906 Q95.7431 631.802 96.4839 635.988 L96.4839 636.922 Q96.4839 637.953 95.6787 637.953 L92.7158 637.244 L76.5806 633.219 Q71.6531 631.963 71.2345 631.963 Q70.848 631.963 70.6548 632.124 Q70.4293 632.253 70.2683 633.025 Q70.1073 633.766 70.1073 635.248 Q70.1073 635.86 70.0751 636.149 Q70.0428 636.407 69.8818 636.633 Q69.6886 636.858 69.3021 636.858 Q68.7546 636.858 68.4648 636.633 Q68.1427 636.375 68.0783 636.182 Q68.0139 635.988 67.9817 635.602 Q67.9495 635.054 67.7884 633.219 Q67.5952 631.383 67.4664 629.805 Q67.3376 628.227 67.3376 627.55 Q67.3376 627.164 67.5308 626.939 Q67.6918 626.713 67.8851 626.713 L68.0461 626.681 L94.2939 633.154 Q93.5209 630.771 92.2327 628.42 Q90.9444 626.037 88.8189 623.46 Q86.6611 620.884 83.988 618.694 Q81.3149 616.504 77.579 614.571 Q73.8109 612.607 69.4953 611.383 Q68.6258 611.158 68.1105 610.61 Q67.5952 610.03 67.4664 609.612 Q67.3376 609.193 67.3376 608.807 Q67.3376 607.937 67.8206 607.422 Q68.2715 606.906 69.1089 606.906 Z" fill="#000000" fill-rule="evenodd" fill-opacity="1" /><path clip-path="url(#clip500)" d="M 0 0 M112.329 605.705 Q112.007 605.705 111.202 604.868 Q100.381 594.24 79.9945 594.24 Q59.5437 594.24 49.2057 604.449 Q48.014 605.705 47.6598 605.705 Q47.0157 605.705 47.0157 605.061 Q47.0157 604.61 48.3361 603.032 Q49.6565 601.422 52.6839 599.006 Q55.7112 596.559 59.4149 594.755 Q68.4003 590.407 79.9945 590.407 Q91.1377 590.407 100.123 594.562 Q103.891 596.333 107.047 598.813 Q110.204 601.293 111.588 602.935 Q112.973 604.578 112.973 605.061 Q112.973 605.705 112.329 605.705 Z" fill="#000000" fill-rule="evenodd" fill-opacity="1" /><path clip-path="url(#clip500)" d="M 0 0 M480.337 14.0809 L480.337 22.0612 Q475.679 19.8332 471.547 18.7395 Q467.415 17.6457 463.567 17.6457 Q456.883 17.6457 453.237 20.2383 Q449.632 22.8309 449.632 27.611 Q449.632 31.6214 452.022 33.6873 Q454.452 35.7128 461.177 36.9686 L466.119 37.9813 Q475.274 39.7232 479.608 44.1387 Q483.983 48.5136 483.983 55.8863 Q483.983 64.6767 478.069 69.2137 Q472.195 73.7508 460.812 73.7508 Q456.518 73.7508 451.657 72.7785 Q446.836 71.8063 441.651 69.9024 L441.651 61.4765 Q446.634 64.2716 451.414 65.6895 Q456.194 67.1073 460.812 67.1073 Q467.82 67.1073 471.628 64.3527 Q475.436 61.598 475.436 56.4939 Q475.436 52.0379 472.681 49.5264 Q469.967 47.0148 463.729 45.759 L458.746 44.7868 Q449.591 42.9639 445.5 39.075 Q441.408 35.1862 441.408 28.2591 Q441.408 20.2383 447.039 15.6203 Q452.71 11.0023 462.635 11.0023 Q466.888 11.0023 471.304 11.7719 Q475.719 12.5416 480.337 14.0809 Z" fill="#000000" fill-rule="evenodd" fill-opacity="1" /><path clip-path="url(#clip500)" d="M 0 0 M495.65 54.671 L495.65 27.2059 L503.104 27.2059 L503.104 54.3874 Q503.104 60.8284 505.615 64.0691 Q508.127 67.2693 513.15 67.2693 Q519.186 67.2693 522.669 63.421 Q526.194 59.5726 526.194 52.9291 L526.194 27.2059 L533.647 27.2059 L533.647 72.576 L526.194 72.576 L526.194 65.6084 Q523.48 69.7404 519.874 71.7658 Q516.309 73.7508 511.57 73.7508 Q503.752 73.7508 499.701 68.8897 Q495.65 64.0286 495.65 54.671 M514.406 26.1121 L514.406 26.1121 Z" fill="#000000" fill-rule="evenodd" fill-opacity="1" /><path clip-path="url(#clip500)" d="M 0 0 M584.324 35.9153 Q587.119 30.8922 591.008 28.5022 Q594.897 26.1121 600.163 26.1121 Q607.252 26.1121 611.101 31.0947 Q614.949 36.0368 614.949 45.1919 L614.949 72.576 L607.455 72.576 L607.455 45.4349 Q607.455 38.913 605.146 35.7533 Q602.837 32.5936 598.097 32.5936 Q592.304 32.5936 588.942 36.4419 Q585.58 40.2903 585.58 46.9338 L585.58 72.576 L578.086 72.576 L578.086 45.4349 Q578.086 38.8725 575.777 35.7533 Q573.468 32.5936 568.647 32.5936 Q562.935 32.5936 559.573 36.4824 Q556.211 40.3308 556.211 46.9338 L556.211 72.576 L548.717 72.576 L548.717 27.2059 L556.211 27.2059 L556.211 34.2544 Q558.763 30.082 562.328 28.0971 Q565.893 26.1121 570.794 26.1121 Q575.736 26.1121 579.179 28.6237 Q582.663 31.1352 584.324 35.9153 Z" fill="#000000" fill-rule="evenodd" fill-opacity="1" /><path clip-path="url(#clip500)" d="M 0 0 M673.768 32.4315 Q667.773 32.4315 664.289 37.1306 Q660.805 41.7891 660.805 49.9314 Q660.805 58.0738 664.248 62.7728 Q667.732 67.4314 673.768 67.4314 Q679.723 67.4314 683.207 62.7323 Q686.69 58.0333 686.69 49.9314 Q686.69 41.8701 683.207 37.1711 Q679.723 32.4315 673.768 32.4315 M673.768 26.1121 Q683.49 26.1121 689.04 32.4315 Q694.59 38.7509 694.59 49.9314 Q694.59 61.0714 689.04 67.4314 Q683.49 73.7508 673.768 73.7508 Q664.005 73.7508 658.456 67.4314 Q652.946 61.0714 652.946 49.9314 Q652.946 38.7509 658.456 32.4315 Q664.005 26.1121 673.768 26.1121 Z" fill="#000000" fill-rule="evenodd" fill-opacity="1" /><path clip-path="url(#clip500)" d="M 0 0 M729.914 9.54393 L729.914 15.7418 L722.784 15.7418 Q718.774 15.7418 717.194 17.3622 Q715.654 18.9825 715.654 23.1955 L715.654 27.2059 L727.929 27.2059 L727.929 32.9987 L715.654 32.9987 L715.654 72.576 L708.16 72.576 L708.16 32.9987 L701.031 32.9987 L701.031 27.2059 L708.16 27.2059 L708.16 24.0462 Q708.16 16.471 711.685 13.0277 Q715.209 9.54393 722.865 9.54393 L729.914 9.54393 Z" fill="#000000" fill-rule="evenodd" fill-opacity="1" /><path clip-path="url(#clip500)" d="M 0 0 M771.03 18.8205 L771.03 41.5461 L781.32 41.5461 Q787.031 41.5461 790.151 38.5889 Q793.27 35.6318 793.27 30.163 Q793.27 24.7348 790.151 21.7777 Q787.031 18.8205 781.32 18.8205 L771.03 18.8205 M762.847 12.096 L781.32 12.096 Q791.487 12.096 796.673 16.714 Q801.898 21.2916 801.898 30.163 Q801.898 39.1155 796.673 43.6931 Q791.487 48.2706 781.32 48.2706 L771.03 48.2706 L771.03 72.576 L762.847 72.576 L762.847 12.096 Z" fill="#000000" fill-rule="evenodd" fill-opacity="1" /><path clip-path="url(#clip500)" d="M 0 0 M850.266 45.1919 L850.266 72.576 L842.812 72.576 L842.812 45.4349 Q842.812 38.994 840.301 35.7938 Q837.789 32.5936 832.766 32.5936 Q826.73 32.5936 823.246 36.4419 Q819.763 40.2903 819.763 46.9338 L819.763 72.576 L812.269 72.576 L812.269 9.54393 L819.763 9.54393 L819.763 34.2544 Q822.436 30.163 826.042 28.1376 Q829.687 26.1121 834.427 26.1121 Q842.245 26.1121 846.256 30.9732 Q850.266 35.7938 850.266 45.1919 Z" fill="#000000" fill-rule="evenodd" fill-opacity="1" /><path clip-path="url(#clip500)" d="M 0 0 M882.714 32.4315 Q876.718 32.4315 873.235 37.1306 Q869.751 41.7891 869.751 49.9314 Q869.751 58.0738 873.194 62.7728 Q876.678 67.4314 882.714 67.4314 Q888.669 67.4314 892.152 62.7323 Q895.636 58.0333 895.636 49.9314 Q895.636 41.8701 892.152 37.1711 Q888.669 32.4315 882.714 32.4315 M882.714 26.1121 Q892.436 26.1121 897.986 32.4315 Q903.535 38.7509 903.535 49.9314 Q903.535 61.0714 897.986 67.4314 Q892.436 73.7508 882.714 73.7508 Q872.951 73.7508 867.401 67.4314 Q861.892 61.0714 861.892 49.9314 Q861.892 38.7509 867.401 32.4315 Q872.951 26.1121 882.714 26.1121 Z" fill="#000000" fill-rule="evenodd" fill-opacity="1" /><path clip-path="url(#clip500)" d="M 0 0 M923.263 14.324 L923.263 27.2059 L938.616 27.2059 L938.616 32.9987 L923.263 32.9987 L923.263 57.6282 Q923.263 63.1779 924.762 64.7578 Q926.301 66.3376 930.96 66.3376 L938.616 66.3376 L938.616 72.576 L930.96 72.576 Q922.332 72.576 919.05 69.3758 Q915.769 66.1351 915.769 57.6282 L915.769 32.9987 L910.3 32.9987 L910.3 27.2059 L915.769 27.2059 L915.769 14.324 L923.263 14.324 Z" fill="#000000" fill-rule="evenodd" fill-opacity="1" /><path clip-path="url(#clip500)" d="M 0 0 M966 32.4315 Q960.005 32.4315 956.521 37.1306 Q953.037 41.7891 953.037 49.9314 Q953.037 58.0738 956.481 62.7728 Q959.964 67.4314 966 67.4314 Q971.955 67.4314 975.439 62.7323 Q978.923 58.0333 978.923 49.9314 Q978.923 41.8701 975.439 37.1711 Q971.955 32.4315 966 32.4315 M966 26.1121 Q975.723 26.1121 981.272 32.4315 Q986.822 38.7509 986.822 49.9314 Q986.822 61.0714 981.272 67.4314 Q975.723 73.7508 966 73.7508 Q956.238 73.7508 950.688 67.4314 Q945.179 61.0714 945.179 49.9314 Q945.179 38.7509 950.688 32.4315 Q956.238 26.1121 966 26.1121 Z" fill="#000000" fill-rule="evenodd" fill-opacity="1" /><path clip-path="url(#clip500)" d="M 0 0 M1036.89 45.1919 L1036.89 72.576 L1029.44 72.576 L1029.44 45.4349 Q1029.44 38.994 1026.93 35.7938 Q1024.41 32.5936 1019.39 32.5936 Q1013.36 32.5936 1009.87 36.4419 Q1006.39 40.2903 1006.39 46.9338 L1006.39 72.576 L998.894 72.576 L998.894 27.2059 L1006.39 27.2059 L1006.39 34.2544 Q1009.06 30.163 1012.67 28.1376 Q1016.31 26.1121 1021.05 26.1121 Q1028.87 26.1121 1032.88 30.9732 Q1036.89 35.7938 1036.89 45.1919 Z" fill="#000000" fill-rule="evenodd" fill-opacity="1" /><path clip-path="url(#clip500)" d="M 0 0 M1123.74 16.7545 L1123.74 25.383 Q1119.61 21.5346 1114.91 19.6307 Q1110.25 17.7268 1104.99 17.7268 Q1094.62 17.7268 1089.11 24.0867 Q1083.6 30.4061 1083.6 42.3968 Q1083.6 54.3469 1089.11 60.7069 Q1094.62 67.0263 1104.99 67.0263 Q1110.25 67.0263 1114.91 65.1223 Q1119.61 63.2184 1123.74 59.3701 L1123.74 67.9175 Q1119.45 70.8341 1114.63 72.2924 Q1109.85 73.7508 1104.5 73.7508 Q1090.77 73.7508 1082.87 65.3654 Q1074.97 56.9395 1074.97 42.3968 Q1074.97 27.8135 1082.87 19.4281 Q1090.77 11.0023 1104.5 11.0023 Q1109.93 11.0023 1114.71 12.4606 Q1119.53 13.8784 1123.74 16.7545 Z" fill="#000000" fill-rule="evenodd" fill-opacity="1" /><path clip-path="url(#clip500)" d="M 0 0 M1153.64 32.4315 Q1147.64 32.4315 1144.16 37.1306 Q1140.68 41.7891 1140.68 49.9314 Q1140.68 58.0738 1144.12 62.7728 Q1147.6 67.4314 1153.64 67.4314 Q1159.59 67.4314 1163.08 62.7323 Q1166.56 58.0333 1166.56 49.9314 Q1166.56 41.8701 1163.08 37.1711 Q1159.59 32.4315 1153.64 32.4315 M1153.64 26.1121 Q1163.36 26.1121 1168.91 32.4315 Q1174.46 38.7509 1174.46 49.9314 Q1174.46 61.0714 1168.91 67.4314 Q1163.36 73.7508 1153.64 73.7508 Q1143.88 73.7508 1138.33 67.4314 Q1132.82 61.0714 1132.82 49.9314 Q1132.82 38.7509 1138.33 32.4315 Q1143.88 26.1121 1153.64 26.1121 Z" fill="#000000" fill-rule="evenodd" fill-opacity="1" /><path clip-path="url(#clip500)" d="M 0 0 M1213.11 34.1734 Q1211.85 33.4443 1210.35 33.1202 Q1208.89 32.7556 1207.11 32.7556 Q1200.79 32.7556 1197.39 36.8875 Q1194.03 40.9789 1194.03 48.6757 L1194.03 72.576 L1186.53 72.576 L1186.53 27.2059 L1194.03 27.2059 L1194.03 34.2544 Q1196.38 30.1225 1200.14 28.1376 Q1203.91 26.1121 1209.3 26.1121 Q1210.07 26.1121 1211 26.2337 Q1211.93 26.3147 1213.06 26.5172 L1213.11 34.1734 Z" fill="#000000" fill-rule="evenodd" fill-opacity="1" /><path clip-path="url(#clip500)" d="M 0 0 M1245.76 34.1734 Q1244.5 33.4443 1243 33.1202 Q1241.54 32.7556 1239.76 32.7556 Q1233.44 32.7556 1230.04 36.8875 Q1226.68 40.9789 1226.68 48.6757 L1226.68 72.576 L1219.18 72.576 L1219.18 27.2059 L1226.68 27.2059 L1226.68 34.2544 Q1229.03 30.1225 1232.79 28.1376 Q1236.56 26.1121 1241.95 26.1121 Q1242.72 26.1121 1243.65 26.2337 Q1244.58 26.3147 1245.72 26.5172 L1245.76 34.1734 Z" fill="#000000" fill-rule="evenodd" fill-opacity="1" /><path clip-path="url(#clip500)" d="M 0 0 M1290.56 48.0275 L1290.56 51.6733 L1256.29 51.6733 Q1256.77 59.3701 1260.91 63.421 Q1265.08 67.4314 1272.49 67.4314 Q1276.79 67.4314 1280.8 66.3781 Q1284.85 65.3249 1288.82 63.2184 L1288.82 70.267 Q1284.81 71.9684 1280.59 72.8596 Q1276.38 73.7508 1272.05 73.7508 Q1261.19 73.7508 1254.83 67.4314 Q1248.51 61.1119 1248.51 50.3365 Q1248.51 39.1965 1254.51 32.6746 Q1260.54 26.1121 1270.75 26.1121 Q1279.9 26.1121 1285.21 32.0264 Q1290.56 37.9003 1290.56 48.0275 M1283.11 45.84 Q1283.02 39.7232 1279.66 36.0774 Q1276.34 32.4315 1270.83 32.4315 Q1264.59 32.4315 1260.83 35.9558 Q1257.1 39.4801 1256.53 45.8805 L1283.11 45.84 Z" fill="#000000" fill-rule="evenodd" fill-opacity="1" /><path clip-path="url(#clip500)" d="M 0 0 M1302.79 9.54393 L1310.25 9.54393 L1310.25 72.576 L1302.79 72.576 L1302.79 9.54393 Z" fill="#000000" fill-rule="evenodd" fill-opacity="1" /><path clip-path="url(#clip500)" d="M 0 0 M1346.46 49.7694 Q1337.43 49.7694 1333.94 51.8354 Q1330.46 53.9013 1330.46 58.8839 Q1330.46 62.8538 1333.05 65.2034 Q1335.69 67.5124 1340.18 67.5124 Q1346.38 67.5124 1350.11 63.1374 Q1353.87 58.7219 1353.87 51.4303 L1353.87 49.7694 L1346.46 49.7694 M1361.33 46.6907 L1361.33 72.576 L1353.87 72.576 L1353.87 65.6895 Q1351.32 69.8214 1347.51 71.8063 Q1343.71 73.7508 1338.2 73.7508 Q1331.23 73.7508 1327.1 69.8619 Q1323.01 65.9325 1323.01 59.3701 Q1323.01 51.7138 1328.11 47.825 Q1333.26 43.9361 1343.42 43.9361 L1353.87 43.9361 L1353.87 43.2069 Q1353.87 38.0623 1350.47 35.2672 Q1347.11 32.4315 1340.99 32.4315 Q1337.1 32.4315 1333.42 33.3632 Q1329.73 34.295 1326.33 36.1584 L1326.33 29.2718 Q1330.42 27.692 1334.27 26.9223 Q1338.12 26.1121 1341.76 26.1121 Q1351.61 26.1121 1356.47 31.2163 Q1361.33 36.3204 1361.33 46.6907 Z" fill="#000000" fill-rule="evenodd" fill-opacity="1" /><path clip-path="url(#clip500)" d="M 0 0 M1384.05 14.324 L1384.05 27.2059 L1399.41 27.2059 L1399.41 32.9987 L1384.05 32.9987 L1384.05 57.6282 Q1384.05 63.1779 1385.55 64.7578 Q1387.09 66.3376 1391.75 66.3376 L1399.41 66.3376 L1399.41 72.576 L1391.75 72.576 Q1383.12 72.576 1379.84 69.3758 Q1376.56 66.1351 1376.56 57.6282 L1376.56 32.9987 L1371.09 32.9987 L1371.09 27.2059 L1376.56 27.2059 L1376.56 14.324 L1384.05 14.324 Z" fill="#000000" fill-rule="evenodd" fill-opacity="1" /><path clip-path="url(#clip500)" d="M 0 0 M1409.21 27.2059 L1416.66 27.2059 L1416.66 72.576 L1409.21 72.576 L1409.21 27.2059 M1409.21 9.54393 L1416.66 9.54393 L1416.66 18.9825 L1409.21 18.9825 L1409.21 9.54393 Z" fill="#000000" fill-rule="evenodd" fill-opacity="1" /><path clip-path="url(#clip500)" d="M 0 0 M1449.84 32.4315 Q1443.85 32.4315 1440.36 37.1306 Q1436.88 41.7891 1436.88 49.9314 Q1436.88 58.0738 1440.32 62.7728 Q1443.8 67.4314 1449.84 67.4314 Q1455.8 67.4314 1459.28 62.7323 Q1462.76 58.0333 1462.76 49.9314 Q1462.76 41.8701 1459.28 37.1711 Q1455.8 32.4315 1449.84 32.4315 M1449.84 26.1121 Q1459.56 26.1121 1465.11 32.4315 Q1470.66 38.7509 1470.66 49.9314 Q1470.66 61.0714 1465.11 67.4314 Q1459.56 73.7508 1449.84 73.7508 Q1440.08 73.7508 1434.53 67.4314 Q1429.02 61.0714 1429.02 49.9314 Q1429.02 38.7509 1434.53 32.4315 Q1440.08 26.1121 1449.84 26.1121 Z" fill="#000000" fill-rule="evenodd" fill-opacity="1" /><path clip-path="url(#clip500)" d="M 0 0 M1520.73 45.1919 L1520.73 72.576 L1513.28 72.576 L1513.28 45.4349 Q1513.28 38.994 1510.77 35.7938 Q1508.25 32.5936 1503.23 32.5936 Q1497.2 32.5936 1493.71 36.4419 Q1490.23 40.2903 1490.23 46.9338 L1490.23 72.576 L1482.73 72.576 L1482.73 27.2059 L1490.23 27.2059 L1490.23 34.2544 Q1492.9 30.163 1496.51 28.1376 Q1500.15 26.1121 1504.89 26.1121 Q1512.71 26.1121 1516.72 30.9732 Q1520.73 35.7938 1520.73 45.1919 Z" fill="#000000" fill-rule="evenodd" fill-opacity="1" /><path clip-path="url(#clip500)" d="M 0 0 M1564.52 28.5427 L1564.52 35.5912 Q1561.36 33.9709 1557.96 33.1607 Q1554.56 32.3505 1550.91 32.3505 Q1545.36 32.3505 1542.57 34.0519 Q1539.81 35.7533 1539.81 39.156 Q1539.81 41.7486 1541.8 43.2475 Q1543.78 44.7058 1549.78 46.0426 L1552.33 46.6097 Q1560.27 48.3111 1563.59 51.4303 Q1566.95 54.509 1566.95 60.0587 Q1566.95 66.3781 1561.93 70.0644 Q1556.95 73.7508 1548.2 73.7508 Q1544.55 73.7508 1540.58 73.0216 Q1536.65 72.3329 1532.28 70.9151 L1532.28 63.2184 Q1536.41 65.3654 1540.42 66.4591 Q1544.43 67.5124 1548.36 67.5124 Q1553.62 67.5124 1556.46 65.73 Q1559.3 63.9071 1559.3 60.6258 Q1559.3 57.5877 1557.23 55.9673 Q1555.2 54.3469 1548.28 52.8481 L1545.68 52.2405 Q1538.76 50.7821 1535.68 47.7845 Q1532.6 44.7463 1532.6 39.4801 Q1532.6 33.0797 1537.14 29.5959 Q1541.67 26.1121 1550.02 26.1121 Q1554.15 26.1121 1557.8 26.7198 Q1561.44 27.3274 1564.52 28.5427 Z" fill="#000000" fill-rule="evenodd" fill-opacity="1" /><path clip-path="url(#clip500)" d="M 0 0 M1599.85 27.2059 L1607.74 27.2059 L1621.92 65.2844 L1636.1 27.2059 L1644 27.2059 L1626.99 72.576 L1616.86 72.576 L1599.85 27.2059 Z" fill="#000000" fill-rule="evenodd" fill-opacity="1" /><path clip-path="url(#clip500)" d="M 0 0 M1683.21 28.5427 L1683.21 35.5912 Q1680.05 33.9709 1676.65 33.1607 Q1673.25 32.3505 1669.6 32.3505 Q1664.05 32.3505 1661.26 34.0519 Q1658.5 35.7533 1658.5 39.156 Q1658.5 41.7486 1660.49 43.2475 Q1662.47 44.7058 1668.47 46.0426 L1671.02 46.6097 Q1678.96 48.3111 1682.28 51.4303 Q1685.64 54.509 1685.64 60.0587 Q1685.64 66.3781 1680.62 70.0644 Q1675.64 73.7508 1666.89 73.7508 Q1663.24 73.7508 1659.27 73.0216 Q1655.34 72.3329 1650.97 70.9151 L1650.97 63.2184 Q1655.1 65.3654 1659.11 66.4591 Q1663.12 67.5124 1667.05 67.5124 Q1672.32 67.5124 1675.15 65.73 Q1677.99 63.9071 1677.99 60.6258 Q1677.99 57.5877 1675.92 55.9673 Q1673.9 54.3469 1666.97 52.8481 L1664.38 52.2405 Q1657.45 50.7821 1654.37 47.7845 Q1651.29 44.7463 1651.29 39.4801 Q1651.29 33.0797 1655.83 29.5959 Q1660.37 26.1121 1668.71 26.1121 Q1672.84 26.1121 1676.49 26.7198 Q1680.13 27.3274 1683.21 28.5427 Z" fill="#000000" fill-rule="evenodd" fill-opacity="1" /><path clip-path="url(#clip500)" d="M 0 0 M1724.21 12.096 L1758.96 12.096 L1758.96 18.9825 L1732.39 18.9825 L1732.39 36.8065 L1756.37 36.8065 L1756.37 43.6931 L1732.39 43.6931 L1732.39 72.576 L1724.21 72.576 L1724.21 12.096 Z" fill="#000000" fill-rule="evenodd" fill-opacity="1" /><path clip-path="url(#clip500)" d="M 0 0 M1791.86 34.1734 Q1790.6 33.4443 1789.1 33.1202 Q1787.65 32.7556 1785.86 32.7556 Q1779.54 32.7556 1776.14 36.8875 Q1772.78 40.9789 1772.78 48.6757 L1772.78 72.576 L1765.28 72.576 L1765.28 27.2059 L1772.78 27.2059 L1772.78 34.2544 Q1775.13 30.1225 1778.9 28.1376 Q1782.66 26.1121 1788.05 26.1121 Q1788.82 26.1121 1789.75 26.2337 Q1790.68 26.3147 1791.82 26.5172 L1791.86 34.1734 Z" fill="#000000" fill-rule="evenodd" fill-opacity="1" /><path clip-path="url(#clip500)" d="M 0 0 M1836.66 48.0275 L1836.66 51.6733 L1802.39 51.6733 Q1802.88 59.3701 1807.01 63.421 Q1811.18 67.4314 1818.59 67.4314 Q1822.89 67.4314 1826.9 66.3781 Q1830.95 65.3249 1834.92 63.2184 L1834.92 70.267 Q1830.91 71.9684 1826.7 72.8596 Q1822.48 73.7508 1818.15 73.7508 Q1807.29 73.7508 1800.93 67.4314 Q1794.61 61.1119 1794.61 50.3365 Q1794.61 39.1965 1800.61 32.6746 Q1806.64 26.1121 1816.85 26.1121 Q1826.01 26.1121 1831.31 32.0264 Q1836.66 37.9003 1836.66 48.0275 M1829.21 45.84 Q1829.13 39.7232 1825.76 36.0774 Q1822.44 32.4315 1816.93 32.4315 Q1810.69 32.4315 1806.93 35.9558 Q1803.2 39.4801 1802.63 45.8805 L1829.21 45.84 Z" fill="#000000" fill-rule="evenodd" fill-opacity="1" /><path clip-path="url(#clip500)" d="M 0 0 M1853.35 49.9314 Q1853.35 58.1548 1856.71 62.8538 Q1860.12 67.5124 1866.03 67.5124 Q1871.94 67.5124 1875.35 62.8538 Q1878.75 58.1548 1878.75 49.9314 Q1878.75 41.7081 1875.35 37.0496 Q1871.94 32.3505 1866.03 32.3505 Q1860.12 32.3505 1856.71 37.0496 Q1853.35 41.7081 1853.35 49.9314 M1878.75 65.7705 Q1876.4 69.8214 1872.8 71.8063 Q1869.23 73.7508 1864.21 73.7508 Q1855.98 73.7508 1850.8 67.1883 Q1845.65 60.6258 1845.65 49.9314 Q1845.65 39.2371 1850.8 32.6746 Q1855.98 26.1121 1864.21 26.1121 Q1869.23 26.1121 1872.8 28.0971 Q1876.4 30.0415 1878.75 34.0924 L1878.75 27.2059 L1886.2 27.2059 L1886.2 89.8329 L1878.75 89.8329 L1878.75 65.7705 Z" fill="#000000" fill-rule="evenodd" fill-opacity="1" /><path clip-path="url(#clip500)" d="M 0 0 M1900.79 54.671 L1900.79 27.2059 L1908.24 27.2059 L1908.24 54.3874 Q1908.24 60.8284 1910.75 64.0691 Q1913.26 67.2693 1918.29 67.2693 Q1924.32 67.2693 1927.81 63.421 Q1931.33 59.5726 1931.33 52.9291 L1931.33 27.2059 L1938.78 27.2059 L1938.78 72.576 L1931.33 72.576 L1931.33 65.6084 Q1928.62 69.7404 1925.01 71.7658 Q1921.45 73.7508 1916.71 73.7508 Q1908.89 73.7508 1904.84 68.8897 Q1900.79 64.0286 1900.79 54.671 M1919.54 26.1121 L1919.54 26.1121 Z" fill="#000000" fill-rule="evenodd" fill-opacity="1" /><path clip-path="url(#clip500)" d="M 0 0 M1992.95 48.0275 L1992.95 51.6733 L1958.67 51.6733 Q1959.16 59.3701 1963.29 63.421 Q1967.46 67.4314 1974.88 67.4314 Q1979.17 67.4314 1983.18 66.3781 Q1987.23 65.3249 1991.2 63.2184 L1991.2 70.267 Q1987.19 71.9684 1982.98 72.8596 Q1978.77 73.7508 1974.43 73.7508 Q1963.58 73.7508 1957.22 67.4314 Q1950.9 61.1119 1950.9 50.3365 Q1950.9 39.1965 1956.89 32.6746 Q1962.93 26.1121 1973.14 26.1121 Q1982.29 26.1121 1987.6 32.0264 Q1992.95 37.9003 1992.95 48.0275 M1985.49 45.84 Q1985.41 39.7232 1982.05 36.0774 Q1978.73 32.4315 1973.22 32.4315 Q1966.98 32.4315 1963.21 35.9558 Q1959.48 39.4801 1958.92 45.8805 L1985.49 45.84 Z" fill="#000000" fill-rule="evenodd" fill-opacity="1" /><path clip-path="url(#clip500)" d="M 0 0 M2042.89 45.1919 L2042.89 72.576 L2035.44 72.576 L2035.44 45.4349 Q2035.44 38.994 2032.93 35.7938 Q2030.42 32.5936 2025.39 32.5936 Q2019.36 32.5936 2015.87 36.4419 Q2012.39 40.2903 2012.39 46.9338 L2012.39 72.576 L2004.9 72.576 L2004.9 27.2059 L2012.39 27.2059 L2012.39 34.2544 Q2015.06 30.163 2018.67 28.1376 Q2022.31 26.1121 2027.05 26.1121 Q2034.87 26.1121 2038.88 30.9732 Q2042.89 35.7938 2042.89 45.1919 Z" fill="#000000" fill-rule="evenodd" fill-opacity="1" /><path clip-path="url(#clip500)" d="M 0 0 M2090.41 28.9478 L2090.41 35.9153 Q2087.25 34.1734 2084.05 33.3227 Q2080.89 32.4315 2077.65 32.4315 Q2070.4 32.4315 2066.39 37.0496 Q2062.38 41.6271 2062.38 49.9314 Q2062.38 58.2358 2066.39 62.8538 Q2070.4 67.4314 2077.65 67.4314 Q2080.89 67.4314 2084.05 66.5807 Q2087.25 65.6895 2090.41 63.9476 L2090.41 70.8341 Q2087.29 72.2924 2083.93 73.0216 Q2080.61 73.7508 2076.84 73.7508 Q2066.59 73.7508 2060.55 67.3098 Q2054.52 60.8689 2054.52 49.9314 Q2054.52 38.832 2060.6 32.472 Q2066.71 26.1121 2077.33 26.1121 Q2080.77 26.1121 2084.05 26.8413 Q2087.33 27.5299 2090.41 28.9478 Z" fill="#000000" fill-rule="evenodd" fill-opacity="1" /><path clip-path="url(#clip500)" d="M 0 0 M2122.25 76.7889 Q2119.09 84.8907 2116.09 87.3618 Q2113.09 89.8329 2108.07 89.8329 L2102.12 89.8329 L2102.12 83.5945 L2106.49 83.5945 Q2109.57 83.5945 2111.27 82.1361 Q2112.97 80.6778 2115.04 75.2496 L2116.38 71.8468 L2098.03 27.2059 L2105.92 27.2059 L2120.1 62.6918 L2134.28 27.2059 L2142.18 27.2059 L2122.25 76.7889 Z" fill="#000000" fill-rule="evenodd" fill-opacity="1" /><polyline clip-path="url(#clip503)" style="stroke:#009af9; stroke-width:4; stroke-opacity:1; fill:none" points="
  381.453,1324.83 385.139,1318.95 388.824,1319 392.51,1318.75 396.196,1319.15 399.881,1318.54 403.567,1317.94 407.252,1316.74 410.938,1317.25 414.624,1316.48 
  418.309,1317.02 421.995,1315.7 425.68,1315.44 429.366,1313.86 433.051,1316.42 436.737,1318.78 440.423,1316.43 444.108,1317.14 447.794,1316.98 451.479,1317.75 
  455.165,1318.67 458.851,1320.45 462.536,1317.17 466.222,1317.62 469.907,1315.98 473.593,1317.52 477.279,1317.68 480.964,1318.72 484.65,1316.66 488.335,1308.88 
  492.021,1298.9 495.707,1316.09 499.392,1316.01 503.078,1313.82 506.763,1318.78 510.449,1319.95 514.134,1317.75 517.82,1316.05 521.506,1316.9 525.191,1316.95 
  528.877,1317.99 532.562,1317.09 536.248,1316.91 539.934,1315.34 543.619,1312.3 547.305,1317.45 550.99,1316.01 554.676,1318.89 558.362,1314.88 562.047,1318.52 
  565.733,1318.76 569.418,1319.81 573.104,1316.65 576.79,1317.62 580.475,1319.25 584.161,1319.65 587.846,1319.4 591.532,1318.84 595.218,1318.27 598.903,1319.21 
  602.589,1318.41 606.274,1316.73 609.96,1317.38 613.645,1317.37 617.331,1317.93 621.017,1318.44 624.702,1319.07 628.388,1316.66 632.073,1317.09 635.759,1317.46 
  639.445,1317.36 643.13,1319.88 646.816,1318.96 650.501,1320.72 654.187,1319.49 657.873,1316.38 661.558,1319.38 665.244,1319.46 668.929,1321.07 672.615,1320.16 
  676.301,1317.02 679.986,1318.03 683.672,1320.04 687.357,1318.46 691.043,1316.46 694.728,1318.76 698.414,1321.05 702.1,1320.38 705.785,1318.94 709.471,1319.57 
  713.156,1315.81 716.842,1321.07 720.528,1321.35 724.213,1319.94 727.899,1320.59 731.584,1317.26 735.27,1317.46 738.956,1316.18 742.641,1316.1 746.327,1317.78 
  750.012,1318.7 753.698,1319.65 757.384,1318.03 761.069,1319.03 764.755,1316.65 768.44,1321 772.126,1319.61 775.811,1319.38 779.497,1319.94 783.183,1319.57 
  786.868,1319.33 790.554,1319.95 794.239,1318.49 797.925,1317.71 801.611,1322.13 805.296,1320.33 808.982,1318.96 812.667,1314.9 816.353,1317.61 820.039,1317.65 
  823.724,1316.64 827.41,1313.16 831.095,1315.91 834.781,1316.55 838.467,1315.91 842.152,1318.73 845.838,1317.87 849.523,1314.92 853.209,1315.1 856.895,1316.42 
  860.58,1317.76 864.266,1316.46 867.951,1316.07 871.637,1316.33 875.322,1316.26 879.008,1296.71 882.694,1311.3 886.379,1314.13 890.065,1314.16 893.75,1312.36 
  897.436,1312.24 901.122,1313.51 904.807,1312.97 908.493,1314.2 912.178,1313.63 915.864,1313.79 919.55,1313.72 923.235,1310.29 926.921,1311.32 930.606,1311.27 
  934.292,1310.03 937.978,1309.82 941.663,1306.83 945.349,1304.13 949.034,1303.5 952.72,1306.58 956.405,1303.28 960.091,1300.68 963.777,1300.42 967.462,1292 
  971.148,1282.02 974.833,1273.46 978.519,1258.19 982.205,1217.55 985.89,1092.58 989.576,158.463 993.261,1156.8 996.947,1236.33 1000.63,1261.41 1004.32,1277.08 
  1008,1289.48 1011.69,1294.16 1015.37,1294 1019.06,1299.14 1022.75,1301.23 1026.43,1301.31 1030.12,1303.76 1033.8,1306.32 1037.49,1305.51 1041.17,1306.3 
  1044.86,1310.97 1048.55,1308.67 1052.23,1309.64 1055.92,1311.55 1059.6,1309.82 1063.29,1312.22 1066.97,1314.91 1070.66,1311.24 1074.34,1311.49 1078.03,1310.64 
  1081.72,1314.29 1085.4,1315.84 1089.09,1316.54 1092.77,1315.45 1096.46,1303.52 1100.14,1299.79 1103.83,1311.05 1107.51,1312.21 1111.2,1309.22 1114.89,1314.01 
  1118.57,1316.19 1122.26,1314.44 1125.94,1312.58 1129.63,1314.9 1133.31,1313.4 1137,1313.9 1140.69,1313.49 1144.37,1313.89 1148.06,1311.73 1151.74,1310.33 
  1155.43,1315.22 1159.11,1312.82 1162.8,1316.15 1166.48,1313.42 1170.17,1316.49 1173.86,1316.5 1177.54,1315.84 1181.23,1315.13 1184.91,1315.79 1188.6,1316.67 
  1192.28,1317.41 1195.97,1317.17 1199.65,1316.29 1203.34,1315.79 1207.03,1317.45 1210.71,1314.27 1214.4,1316.14 1218.08,1314.61 1221.77,1316.08 1225.45,1314.59 
  1229.14,1315.87 1232.82,1316.74 1236.51,1315.64 1240.2,1316.8 1243.88,1316.89 1247.57,1317 1251.25,1318.48 1254.94,1317.89 1258.62,1318.35 1262.31,1316.7 
  1266,1315.95 1269.68,1317.41 1273.37,1318.91 1277.05,1320.04 1280.74,1318.14 1284.42,1314.7 1288.11,1318.35 1291.79,1320.1 1295.48,1316.82 1299.17,1314.45 
  1302.85,1318.53 1306.54,1319.99 1310.22,1318.58 1313.91,1317.32 1317.59,1318.64 1321.28,1314.56 1324.96,1319.49 1328.65,1319.24 1332.34,1318.84 1336.02,1319.59 
  1339.71,1315.94 1343.39,1315.96 1347.08,1314.6 1350.76,1314.19 1354.45,1314.85 1358.13,1315.3 1361.82,1317.58 1365.51,1315.07 1369.19,1317.67 1372.88,1313.82 
  1376.56,1318.66 1380.25,1316.96 1383.93,1317.29 1387.62,1317.63 1391.31,1316.97 1394.99,1316.56 1398.68,1317.51 1402.36,1316.79 1406.05,1315.57 1409.73,1318.68 
  1413.42,1318.09 1417.1,1317.16 1420.79,1313.61 1424.48,1314.43 1428.16,1315.99 1431.85,1313.16 1435.53,1310.17 1439.22,1312.99 1442.9,1312.63 1446.59,1312.25 
  1450.27,1314.82 1453.96,1315.93 1457.65,1311.46 1461.33,1311.42 1465.02,1312.61 1468.7,1312.4 1472.39,1311.38 1476.07,1312.5 1479.76,1311.95 1483.45,1311.16 
  1487.13,1295.39 1490.82,1311.16 1494.5,1311.34 1498.19,1310.08 1501.87,1307.42 1505.56,1306.06 1509.24,1308.28 1512.93,1306.72 1516.62,1308.92 1520.3,1306.83 
  1523.99,1306.08 1527.67,1306.55 1531.36,1302.85 1535.04,1302.89 1538.73,1303.58 1542.41,1299.99 1546.1,1300.35 1549.79,1297.02 1553.47,1292.61 1557.16,1290.2 
  1560.84,1290.8 1564.53,1286.7 1568.21,1281.07 1571.9,1278.62 1575.58,1267.15 1579.27,1250.69 1582.96,1232.2 1586.64,1200.55 1590.33,1121.61 1594.01,820.577 
  1597.7,314.934 1601.38,1070.96 1605.07,1182.06 1608.76,1222.19 1612.44,1245.86 1616.13,1264.26 1619.81,1274.16 1623.5,1276.6 1627.18,1283.44 1630.87,1287.34 
  1634.55,1288.41 1638.24,1291.92 1641.93,1296.17 1645.61,1297.95 1649.3,1297.69 1652.98,1302.51 1656.67,1301.33 1660.35,1302.12 1664.04,1305.29 1667.72,1303.62 
  1671.41,1305.92 1675.1,1308.69 1678.78,1305.63 1682.47,1306.41 1686.15,1305.17 1689.84,1308.57 1693.52,1311.35 1697.21,1312.75 1700.89,1312.93 1704.58,1298.78 
  1708.27,1301.62 1711.95,1308.29 1715.64,1309.4 1719.32,1306.88 1723.01,1310.14 1726.69,1311.98 1730.38,1310.93 1734.07,1309.91 1737.75,1313.78 1741.44,1311.17 
  1745.12,1310.64 1748.81,1310.8 1752.49,1311.61 1756.18,1309.08 1759.86,1309.52 1763.55,1313.79 1767.24,1311.11 1770.92,1313.58 1774.61,1313.05 1778.29,1315.3 
  1781.98,1315.36 1785.66,1313.39 1789.35,1314.62 1793.03,1314.9 1796.72,1314.52 1800.41,1315.37 1804.09,1315.35 1807.78,1314.66 1811.46,1314.26 1815.15,1315.98 
  1818.83,1311.77 1822.52,1316 1826.21,1312.7 1829.89,1315.06 1833.58,1312.61 1837.26,1313.51 1840.95,1314 1844.63,1314.38 1848.32,1315.83 1852,1315.87 
  1855.69,1317.29 1859.38,1317.41 1863.06,1317.1 1866.75,1316.9 1870.43,1314.37 1874.12,1315.85 1877.8,1315.81 1881.49,1317.82 1885.17,1318.58 1888.86,1316.69 
  1892.55,1313.29 1896.23,1317.29 1899.92,1320.01 1903.6,1316.45 1907.29,1313.12 1910.97,1316.93 1914.66,1318.59 1918.34,1317.51 1922.03,1315.77 1925.72,1316.7 
  1929.4,1313.9 1933.09,1317.27 1936.77,1317.46 1940.46,1317.39 1944.14,1318.4 1947.83,1315.29 1951.52,1315.1 1955.2,1313.81 1958.89,1313.04 1962.57,1313.02 
  1966.26,1312.85 1969.94,1315.64 1973.63,1312.83 1977.31,1316.11 1981,1311.64 1984.69,1316.39 1988.37,1314.64 1992.06,1315.01 1995.74,1315.52 1999.43,1315.13 
  2003.11,1314.52 2006.8,1315.42 2010.48,1315.06 2014.17,1313.32 2017.86,1316.06 2021.54,1315.92 2025.23,1314.45 2028.91,1312.62 2032.6,1311.68 2036.28,1314.08 
  2039.97,1310.44 2043.65,1308.47 2047.34,1311.25 2051.03,1310.36 2054.71,1310.05 2058.4,1311.62 2062.08,1314.44 2065.77,1309.49 2069.45,1309.75 2073.14,1310.69 
  2076.83,1309.5 2080.51,1307.64 2084.2,1309.64 2087.88,1308.67 2091.57,1305.64 2095.25,1295.96 2098.94,1311.43 2102.62,1310.7 2106.31,1309.03 2110,1305.96 
  2113.68,1303.4 2117.37,1305.21 2121.05,1303.94 2124.74,1306.61 2128.42,1303.87 2132.11,1302.22 2135.79,1303.36 2139.48,1299.64 2143.17,1299.08 2146.85,1299.87 
  2150.54,1295.36 2154.22,1295.81 2157.91,1292.72 2161.59,1287.88 2165.28,1284.38 2168.97,1283.59 2172.65,1279.03 2176.34,1272.04 2180.02,1268.68 2183.71,1256.51 
  2187.39,1236.85 2191.08,1212.55 2194.76,1171.11 2198.45,1064.38 2202.14,547.749 
  "/>
<polyline clip-path="url(#clip503)" style="stroke:#e26f46; stroke-width:4; stroke-opacity:1; fill:none" stroke-dasharray="16, 10" points="
  490.805,2596.17 490.805,-1112.88 
  "/>
<path clip-path="url(#clip500)" d="
M1625.01 285.644 L2192.43 285.644 L2192.43 164.684 L1625.01 164.684  Z
  " fill="#ffffff" fill-rule="evenodd" fill-opacity="1"/>
<polyline clip-path="url(#clip500)" style="stroke:#000000; stroke-width:4; stroke-opacity:1; fill:none" points="
  1625.01,285.644 2192.43,285.644 2192.43,164.684 1625.01,164.684 1625.01,285.644 
  "/>
<polyline clip-path="url(#clip500)" style="stroke:#e26f46; stroke-width:4; stroke-opacity:1; fill:none" stroke-dasharray="16, 10" points="
  1646.45,225.164 1775.11,225.164 
  "/>
<path clip-path="url(#clip500)" d="M 0 0 M1813.06 206.425 L1813.06 209.967 L1808.98 209.967 Q1806.69 209.967 1805.79 210.893 Q1804.91 211.819 1804.91 214.226 L1804.91 216.518 L1811.92 216.518 L1811.92 219.828 L1804.91 219.828 L1804.91 242.444 L1800.63 242.444 L1800.63 219.828 L1796.55 219.828 L1796.55 216.518 L1800.63 216.518 L1800.63 214.712 Q1800.63 210.384 1802.64 208.416 Q1804.66 206.425 1809.03 206.425 L1813.06 206.425 Z" fill="#000000" fill-rule="evenodd" fill-opacity="1" /><path clip-path="url(#clip500)" d="M 0 0 M1831.65 220.499 Q1830.93 220.083 1830.07 219.898 Q1829.24 219.689 1828.22 219.689 Q1824.61 219.689 1822.66 222.05 Q1820.74 224.388 1820.74 228.786 L1820.74 242.444 L1816.46 242.444 L1816.46 216.518 L1820.74 216.518 L1820.74 220.546 Q1822.09 218.185 1824.24 217.05 Q1826.39 215.893 1829.47 215.893 Q1829.91 215.893 1830.44 215.962 Q1830.97 216.009 1831.62 216.124 L1831.65 220.499 Z" fill="#000000" fill-rule="evenodd" fill-opacity="1" /><path clip-path="url(#clip500)" d="M 0 0 M1857.25 228.416 L1857.25 230.499 L1837.66 230.499 Q1837.94 234.897 1840.3 237.212 Q1842.69 239.504 1846.92 239.504 Q1849.38 239.504 1851.67 238.902 Q1853.98 238.3 1856.25 237.097 L1856.25 241.124 Q1853.96 242.096 1851.55 242.606 Q1849.15 243.115 1846.67 243.115 Q1840.47 243.115 1836.83 239.504 Q1833.22 235.893 1833.22 229.735 Q1833.22 223.37 1836.65 219.643 Q1840.1 215.893 1845.93 215.893 Q1851.16 215.893 1854.19 219.273 Q1857.25 222.629 1857.25 228.416 M1852.99 227.166 Q1852.94 223.671 1851.02 221.587 Q1849.12 219.504 1845.97 219.504 Q1842.41 219.504 1840.26 221.518 Q1838.13 223.532 1837.8 227.189 L1852.99 227.166 Z" fill="#000000" fill-rule="evenodd" fill-opacity="1" /><path clip-path="url(#clip500)" d="M 0 0 M1866.78 229.504 Q1866.78 234.203 1868.71 236.888 Q1870.65 239.55 1874.03 239.55 Q1877.41 239.55 1879.35 236.888 Q1881.3 234.203 1881.3 229.504 Q1881.3 224.805 1879.35 222.143 Q1877.41 219.458 1874.03 219.458 Q1870.65 219.458 1868.71 222.143 Q1866.78 224.805 1866.78 229.504 M1881.3 238.555 Q1879.96 240.87 1877.9 242.004 Q1875.86 243.115 1872.99 243.115 Q1868.29 243.115 1865.33 239.365 Q1862.39 235.615 1862.39 229.504 Q1862.39 223.393 1865.33 219.643 Q1868.29 215.893 1872.99 215.893 Q1875.86 215.893 1877.9 217.027 Q1879.96 218.138 1881.3 220.453 L1881.3 216.518 L1885.56 216.518 L1885.56 252.305 L1881.3 252.305 L1881.3 238.555 Z" fill="#000000" fill-rule="evenodd" fill-opacity="1" /><path clip-path="url(#clip500)" d="M 0 0 M1893.89 232.212 L1893.89 216.518 L1898.15 216.518 L1898.15 232.05 Q1898.15 235.731 1899.59 237.583 Q1901.02 239.411 1903.89 239.411 Q1907.34 239.411 1909.33 237.212 Q1911.34 235.013 1911.34 231.217 L1911.34 216.518 L1915.6 216.518 L1915.6 242.444 L1911.34 242.444 L1911.34 238.462 Q1909.79 240.823 1907.73 241.981 Q1905.7 243.115 1902.99 243.115 Q1898.52 243.115 1896.21 240.337 Q1893.89 237.559 1893.89 232.212 M1904.61 215.893 L1904.61 215.893 Z" fill="#000000" fill-rule="evenodd" fill-opacity="1" /><path clip-path="url(#clip500)" d="M 0 0 M1946.55 228.416 L1946.55 230.499 L1926.97 230.499 Q1927.25 234.897 1929.61 237.212 Q1931.99 239.504 1936.23 239.504 Q1938.68 239.504 1940.97 238.902 Q1943.29 238.3 1945.56 237.097 L1945.56 241.124 Q1943.27 242.096 1940.86 242.606 Q1938.45 243.115 1935.97 243.115 Q1929.77 243.115 1926.14 239.504 Q1922.53 235.893 1922.53 229.735 Q1922.53 223.37 1925.95 219.643 Q1929.4 215.893 1935.23 215.893 Q1940.46 215.893 1943.5 219.273 Q1946.55 222.629 1946.55 228.416 M1942.29 227.166 Q1942.25 223.671 1940.33 221.587 Q1938.43 219.504 1935.28 219.504 Q1931.72 219.504 1929.56 221.518 Q1927.43 223.532 1927.11 227.189 L1942.29 227.166 Z" fill="#000000" fill-rule="evenodd" fill-opacity="1" /><path clip-path="url(#clip500)" d="M 0 0 M1975.09 226.796 L1975.09 242.444 L1970.84 242.444 L1970.84 226.935 Q1970.84 223.254 1969.4 221.425 Q1967.96 219.597 1965.09 219.597 Q1961.65 219.597 1959.65 221.796 Q1957.66 223.995 1957.66 227.791 L1957.66 242.444 L1953.38 242.444 L1953.38 216.518 L1957.66 216.518 L1957.66 220.546 Q1959.19 218.208 1961.25 217.05 Q1963.34 215.893 1966.04 215.893 Q1970.51 215.893 1972.8 218.671 Q1975.09 221.425 1975.09 226.796 Z" fill="#000000" fill-rule="evenodd" fill-opacity="1" /><path clip-path="url(#clip500)" d="M 0 0 M2002.25 217.513 L2002.25 221.495 Q2000.44 220.499 1998.61 220.013 Q1996.81 219.504 1994.96 219.504 Q1990.81 219.504 1988.52 222.143 Q1986.23 224.759 1986.23 229.504 Q1986.23 234.249 1988.52 236.888 Q1990.81 239.504 1994.96 239.504 Q1996.81 239.504 1998.61 239.018 Q2000.44 238.509 2002.25 237.513 L2002.25 241.448 Q2000.46 242.282 1998.54 242.698 Q1996.65 243.115 1994.49 243.115 Q1988.64 243.115 1985.19 239.434 Q1981.74 235.754 1981.74 229.504 Q1981.74 223.161 1985.21 219.527 Q1988.71 215.893 1994.77 215.893 Q1996.74 215.893 1998.61 216.31 Q2000.49 216.703 2002.25 217.513 Z" fill="#000000" fill-rule="evenodd" fill-opacity="1" /><path clip-path="url(#clip500)" d="M 0 0 M2020.44 244.851 Q2018.64 249.481 2016.92 250.893 Q2015.21 252.305 2012.34 252.305 L2008.94 252.305 L2008.94 248.74 L2011.44 248.74 Q2013.2 248.74 2014.17 247.907 Q2015.14 247.073 2016.32 243.971 L2017.08 242.027 L2006.6 216.518 L2011.11 216.518 L2019.21 236.796 L2027.32 216.518 L2031.83 216.518 L2020.44 244.851 Z" fill="#000000" fill-rule="evenodd" fill-opacity="1" /><path clip-path="url(#clip500)" d="M 0 0 M2069.31 217.282 L2069.31 221.31 Q2067.5 220.384 2065.56 219.921 Q2063.61 219.458 2061.53 219.458 Q2058.36 219.458 2056.76 220.43 Q2055.19 221.402 2055.19 223.347 Q2055.19 224.828 2056.32 225.685 Q2057.46 226.518 2060.88 227.282 L2062.34 227.606 Q2066.88 228.578 2068.77 230.36 Q2070.7 232.12 2070.7 235.291 Q2070.7 238.902 2067.83 241.009 Q2064.98 243.115 2059.98 243.115 Q2057.89 243.115 2055.63 242.698 Q2053.38 242.305 2050.88 241.495 L2050.88 237.097 Q2053.24 238.323 2055.53 238.948 Q2057.83 239.55 2060.07 239.55 Q2063.08 239.55 2064.7 238.532 Q2066.32 237.49 2066.32 235.615 Q2066.32 233.879 2065.14 232.953 Q2063.98 232.027 2060.02 231.171 L2058.54 230.823 Q2054.58 229.99 2052.83 228.277 Q2051.07 226.541 2051.07 223.532 Q2051.07 219.874 2053.66 217.884 Q2056.25 215.893 2061.02 215.893 Q2063.38 215.893 2065.46 216.24 Q2067.55 216.587 2069.31 217.282 Z" fill="#000000" fill-rule="evenodd" fill-opacity="1" /><path clip-path="url(#clip500)" d="M 0 0 M2099.03 226.796 L2099.03 242.444 L2094.77 242.444 L2094.77 226.935 Q2094.77 223.254 2093.33 221.425 Q2091.9 219.597 2089.03 219.597 Q2085.58 219.597 2083.59 221.796 Q2081.6 223.995 2081.6 227.791 L2081.6 242.444 L2077.32 242.444 L2077.32 206.425 L2081.6 206.425 L2081.6 220.546 Q2083.13 218.208 2085.19 217.05 Q2087.27 215.893 2089.98 215.893 Q2094.45 215.893 2096.74 218.671 Q2099.03 221.425 2099.03 226.796 Z" fill="#000000" fill-rule="evenodd" fill-opacity="1" /><path clip-path="url(#clip500)" d="M 0 0 M2107.52 216.518 L2111.78 216.518 L2111.78 242.444 L2107.52 242.444 L2107.52 216.518 M2107.52 206.425 L2111.78 206.425 L2111.78 211.819 L2107.52 211.819 L2107.52 206.425 Z" fill="#000000" fill-rule="evenodd" fill-opacity="1" /><path clip-path="url(#clip500)" d="M 0 0 M2133.82 206.425 L2133.82 209.967 L2129.75 209.967 Q2127.45 209.967 2126.55 210.893 Q2125.67 211.819 2125.67 214.226 L2125.67 216.518 L2132.69 216.518 L2132.69 219.828 L2125.67 219.828 L2125.67 242.444 L2121.39 242.444 L2121.39 219.828 L2117.32 219.828 L2117.32 216.518 L2121.39 216.518 L2121.39 214.712 Q2121.39 210.384 2123.4 208.416 Q2125.42 206.425 2129.79 206.425 L2133.82 206.425 Z" fill="#000000" fill-rule="evenodd" fill-opacity="1" /><path clip-path="url(#clip500)" d="M 0 0 M2140.76 209.157 L2140.76 216.518 L2149.54 216.518 L2149.54 219.828 L2140.76 219.828 L2140.76 233.902 Q2140.76 237.073 2141.62 237.976 Q2142.5 238.879 2145.16 238.879 L2149.54 238.879 L2149.54 242.444 L2145.16 242.444 Q2140.23 242.444 2138.36 240.615 Q2136.48 238.763 2136.48 233.902 L2136.48 219.828 L2133.36 219.828 L2133.36 216.518 L2136.48 216.518 L2136.48 209.157 L2140.76 209.157 Z" fill="#000000" fill-rule="evenodd" fill-opacity="1" /></svg>
