<?xml version="1.0" encoding="utf-8"?>
<svg xmlns="http://www.w3.org/2000/svg" xmlns:xlink="http://www.w3.org/1999/xlink" width="576" height="384" viewBox="0 0 2304 1536">
<defs>
  <clipPath id="clip230">
    <rect x="0" y="0" width="2304" height="1536"/>
  </clipPath>
</defs>
<path clip-path="url(#clip230)" d="
M0 1536 L2304 1536 L2304 0 L0 0  Z
  " fill="#ffffff" fill-rule="evenodd" fill-opacity="1"/>
<defs>
  <clipPath id="clip231">
    <rect x="460" y="0" width="1614" height="1536"/>
  </clipPath>
</defs>
<path clip-path="url(#clip230)" d="
M339.739 1359.82 L2256.76 1359.82 L2256.76 123.472 L339.739 123.472  Z
  " fill="#ffffff" fill-rule="evenodd" fill-opacity="1"/>
<defs>
  <clipPath id="clip232">
    <rect x="339" y="123" width="1918" height="1237"/>
  </clipPath>
</defs>
<polyline clip-path="url(#clip232)" style="stroke:#000000; stroke-width:2; stroke-opacity:0.1; fill:none" points="
  393.994,1359.82 393.994,123.472 
  "/>
<polyline clip-path="url(#clip232)" style="stroke:#000000; stroke-width:2; stroke-opacity:0.1; fill:none" points="
  846.121,1359.82 846.121,123.472 
  "/>
<polyline clip-path="url(#clip232)" style="stroke:#000000; stroke-width:2; stroke-opacity:0.1; fill:none" points="
  1298.25,1359.82 1298.25,123.472 
  "/>
<polyline clip-path="url(#clip232)" style="stroke:#000000; stroke-width:2; stroke-opacity:0.1; fill:none" points="
  1750.37,1359.82 1750.37,123.472 
  "/>
<polyline clip-path="url(#clip232)" style="stroke:#000000; stroke-width:2; stroke-opacity:0.1; fill:none" points="
  2202.5,1359.82 2202.5,123.472 
  "/>
<polyline clip-path="url(#clip230)" style="stroke:#000000; stroke-width:4; stroke-opacity:1; fill:none" points="
  339.739,1359.82 2256.76,1359.82 
  "/>
<polyline clip-path="url(#clip230)" style="stroke:#000000; stroke-width:4; stroke-opacity:1; fill:none" points="
  393.994,1359.82 393.994,1344.98 
  "/>
<polyline clip-path="url(#clip230)" style="stroke:#000000; stroke-width:4; stroke-opacity:1; fill:none" points="
  846.121,1359.82 846.121,1344.98 
  "/>
<polyline clip-path="url(#clip230)" style="stroke:#000000; stroke-width:4; stroke-opacity:1; fill:none" points="
  1298.25,1359.82 1298.25,1344.98 
  "/>
<polyline clip-path="url(#clip230)" style="stroke:#000000; stroke-width:4; stroke-opacity:1; fill:none" points="
  1750.37,1359.82 1750.37,1344.98 
  "/>
<polyline clip-path="url(#clip230)" style="stroke:#000000; stroke-width:4; stroke-opacity:1; fill:none" points="
  2202.5,1359.82 2202.5,1344.98 
  "/>
<path clip-path="url(#clip230)" d="M 0 0 M393.994 1388.24 Q390.383 1388.24 388.554 1391.81 Q386.749 1395.35 386.749 1402.48 Q386.749 1409.59 388.554 1413.15 Q390.383 1416.69 393.994 1416.69 Q397.628 1416.69 399.434 1413.15 Q401.263 1409.59 401.263 1402.48 Q401.263 1395.35 399.434 1391.81 Q397.628 1388.24 393.994 1388.24 M393.994 1384.54 Q399.804 1384.54 402.86 1389.15 Q405.939 1393.73 405.939 1402.48 Q405.939 1411.21 402.86 1415.81 Q399.804 1420.4 393.994 1420.4 Q388.184 1420.4 385.105 1415.81 Q382.05 1411.21 382.05 1402.48 Q382.05 1393.73 385.105 1389.15 Q388.184 1384.54 393.994 1384.54 Z" fill="#000000" fill-rule="evenodd" fill-opacity="1" /><path clip-path="url(#clip230)" d="M 0 0 M836.399 1385.16 L854.755 1385.16 L854.755 1389.1 L840.681 1389.1 L840.681 1397.57 Q841.7 1397.22 842.718 1397.06 Q843.737 1396.88 844.755 1396.88 Q850.542 1396.88 853.922 1400.05 Q857.301 1403.22 857.301 1408.64 Q857.301 1414.21 853.829 1417.32 Q850.357 1420.4 844.037 1420.4 Q841.862 1420.4 839.593 1420.02 Q837.348 1419.65 834.94 1418.91 L834.94 1414.21 Q837.024 1415.35 839.246 1415.9 Q841.468 1416.46 843.945 1416.46 Q847.949 1416.46 850.287 1414.35 Q852.625 1412.25 852.625 1408.64 Q852.625 1405.02 850.287 1402.92 Q847.949 1400.81 843.945 1400.81 Q842.07 1400.81 840.195 1401.23 Q838.343 1401.65 836.399 1402.52 L836.399 1385.16 Z" fill="#000000" fill-rule="evenodd" fill-opacity="1" /><path clip-path="url(#clip230)" d="M 0 0 M1272.94 1415.79 L1280.57 1415.79 L1280.57 1389.42 L1272.26 1391.09 L1272.26 1386.83 L1280.53 1385.16 L1285.2 1385.16 L1285.2 1415.79 L1292.84 1415.79 L1292.84 1419.72 L1272.94 1419.72 L1272.94 1415.79 Z" fill="#000000" fill-rule="evenodd" fill-opacity="1" /><path clip-path="url(#clip230)" d="M 0 0 M1312.29 1388.24 Q1308.68 1388.24 1306.85 1391.81 Q1305.04 1395.35 1305.04 1402.48 Q1305.04 1409.59 1306.85 1413.15 Q1308.68 1416.69 1312.29 1416.69 Q1315.92 1416.69 1317.73 1413.15 Q1319.56 1409.59 1319.56 1402.48 Q1319.56 1395.35 1317.73 1391.81 Q1315.92 1388.24 1312.29 1388.24 M1312.29 1384.54 Q1318.1 1384.54 1321.15 1389.15 Q1324.23 1393.73 1324.23 1402.48 Q1324.23 1411.21 1321.15 1415.81 Q1318.1 1420.4 1312.29 1420.4 Q1306.48 1420.4 1303.4 1415.81 Q1300.34 1411.21 1300.34 1402.48 Q1300.34 1393.73 1303.4 1389.15 Q1306.48 1384.54 1312.29 1384.54 Z" fill="#000000" fill-rule="evenodd" fill-opacity="1" /><path clip-path="url(#clip230)" d="M 0 0 M1725.56 1415.79 L1733.2 1415.79 L1733.2 1389.42 L1724.89 1391.09 L1724.89 1386.83 L1733.15 1385.16 L1737.83 1385.16 L1737.83 1415.79 L1745.47 1415.79 L1745.47 1419.72 L1725.56 1419.72 L1725.56 1415.79 Z" fill="#000000" fill-rule="evenodd" fill-opacity="1" /><path clip-path="url(#clip230)" d="M 0 0 M1754.96 1385.16 L1773.31 1385.16 L1773.31 1389.1 L1759.24 1389.1 L1759.24 1397.57 Q1760.26 1397.22 1761.28 1397.06 Q1762.3 1396.88 1763.31 1396.88 Q1769.1 1396.88 1772.48 1400.05 Q1775.86 1403.22 1775.86 1408.64 Q1775.86 1414.21 1772.39 1417.32 Q1768.92 1420.4 1762.6 1420.4 Q1760.42 1420.4 1758.15 1420.02 Q1755.91 1419.65 1753.5 1418.91 L1753.5 1414.21 Q1755.58 1415.35 1757.8 1415.9 Q1760.03 1416.46 1762.5 1416.46 Q1766.51 1416.46 1768.85 1414.35 Q1771.18 1412.25 1771.18 1408.64 Q1771.18 1405.02 1768.85 1402.92 Q1766.51 1400.81 1762.5 1400.81 Q1760.63 1400.81 1758.75 1401.23 Q1756.9 1401.65 1754.96 1402.52 L1754.96 1385.16 Z" fill="#000000" fill-rule="evenodd" fill-opacity="1" /><path clip-path="url(#clip230)" d="M 0 0 M2181.27 1415.79 L2197.59 1415.79 L2197.59 1419.72 L2175.65 1419.72 L2175.65 1415.79 Q2178.31 1413.03 2182.89 1408.4 Q2187.5 1403.75 2188.68 1402.41 Q2190.93 1399.89 2191.81 1398.15 Q2192.71 1396.39 2192.71 1394.7 Q2192.71 1391.95 2190.76 1390.21 Q2188.84 1388.47 2185.74 1388.47 Q2183.54 1388.47 2181.09 1389.24 Q2178.66 1390 2175.88 1391.55 L2175.88 1386.83 Q2178.7 1385.7 2181.16 1385.12 Q2183.61 1384.54 2185.65 1384.54 Q2191.02 1384.54 2194.21 1387.22 Q2197.41 1389.91 2197.41 1394.4 Q2197.41 1396.53 2196.6 1398.45 Q2195.81 1400.35 2193.7 1402.94 Q2193.13 1403.61 2190.02 1406.83 Q2186.92 1410.02 2181.27 1415.79 Z" fill="#000000" fill-rule="evenodd" fill-opacity="1" /><path clip-path="url(#clip230)" d="M 0 0 M2217.41 1388.24 Q2213.8 1388.24 2211.97 1391.81 Q2210.16 1395.35 2210.16 1402.48 Q2210.16 1409.59 2211.97 1413.15 Q2213.8 1416.69 2217.41 1416.69 Q2221.04 1416.69 2222.85 1413.15 Q2224.68 1409.59 2224.68 1402.48 Q2224.68 1395.35 2222.85 1391.81 Q2221.04 1388.24 2217.41 1388.24 M2217.41 1384.54 Q2223.22 1384.54 2226.27 1389.15 Q2229.35 1393.73 2229.35 1402.48 Q2229.35 1411.21 2226.27 1415.81 Q2223.22 1420.4 2217.41 1420.4 Q2211.6 1420.4 2208.52 1415.81 Q2205.46 1411.21 2205.46 1402.48 Q2205.46 1393.73 2208.52 1389.15 Q2211.6 1384.54 2217.41 1384.54 Z" fill="#000000" fill-rule="evenodd" fill-opacity="1" /><path clip-path="url(#clip230)" d="M 0 0 M1165.05 1457.47 L1165.05 1467.6 L1177.11 1467.6 L1177.11 1472.15 L1165.05 1472.15 L1165.05 1491.5 Q1165.05 1495.86 1166.22 1497.1 Q1167.43 1498.34 1171.09 1498.34 L1177.11 1498.34 L1177.11 1503.24 L1171.09 1503.24 Q1164.31 1503.24 1161.73 1500.73 Q1159.16 1498.18 1159.16 1491.5 L1159.16 1472.15 L1154.86 1472.15 L1154.86 1467.6 L1159.16 1467.6 L1159.16 1457.47 L1165.05 1457.47 Z" fill="#000000" fill-rule="evenodd" fill-opacity="1" /><path clip-path="url(#clip230)" d="M 0 0 M1184.81 1467.6 L1190.67 1467.6 L1190.67 1503.24 L1184.81 1503.24 L1184.81 1467.6 M1184.81 1453.72 L1190.67 1453.72 L1190.67 1461.13 L1184.81 1461.13 L1184.81 1453.72 Z" fill="#000000" fill-rule="evenodd" fill-opacity="1" /><path clip-path="url(#clip230)" d="M 0 0 M1230.68 1474.44 Q1232.87 1470.49 1235.93 1468.61 Q1238.98 1466.74 1243.12 1466.74 Q1248.69 1466.74 1251.71 1470.65 Q1254.74 1474.53 1254.74 1481.73 L1254.74 1503.24 L1248.85 1503.24 L1248.85 1481.92 Q1248.85 1476.79 1247.04 1474.31 Q1245.22 1471.83 1241.5 1471.83 Q1236.95 1471.83 1234.3 1474.85 Q1231.66 1477.88 1231.66 1483.1 L1231.66 1503.24 L1225.77 1503.24 L1225.77 1481.92 Q1225.77 1476.76 1223.96 1474.31 Q1222.15 1471.83 1218.36 1471.83 Q1213.87 1471.83 1211.23 1474.88 Q1208.59 1477.91 1208.59 1483.1 L1208.59 1503.24 L1202.7 1503.24 L1202.7 1467.6 L1208.59 1467.6 L1208.59 1473.13 Q1210.59 1469.86 1213.39 1468.3 Q1216.19 1466.74 1220.04 1466.74 Q1223.93 1466.74 1226.63 1468.71 Q1229.37 1470.68 1230.68 1474.44 Z" fill="#000000" fill-rule="evenodd" fill-opacity="1" /><path clip-path="url(#clip230)" d="M 0 0 M1296.91 1483.96 L1296.91 1486.82 L1269.98 1486.82 Q1270.37 1492.87 1273.61 1496.05 Q1276.89 1499.2 1282.72 1499.2 Q1286.09 1499.2 1289.24 1498.37 Q1292.42 1497.55 1295.54 1495.89 L1295.54 1501.43 Q1292.39 1502.77 1289.08 1503.47 Q1285.77 1504.17 1282.36 1504.17 Q1273.83 1504.17 1268.84 1499.2 Q1263.87 1494.24 1263.87 1485.77 Q1263.87 1477.02 1268.58 1471.89 Q1273.33 1466.74 1281.35 1466.74 Q1288.54 1466.74 1292.71 1471.38 Q1296.91 1476 1296.91 1483.96 M1291.05 1482.24 Q1290.99 1477.43 1288.35 1474.57 Q1285.74 1471.7 1281.41 1471.7 Q1276.51 1471.7 1273.55 1474.47 Q1270.62 1477.24 1270.17 1482.27 L1291.05 1482.24 Z" fill="#000000" fill-rule="evenodd" fill-opacity="1" /><path clip-path="url(#clip230)" d="M 0 0 M1341.31 1453.78 Q1337.05 1461.1 1334.98 1468.26 Q1332.91 1475.43 1332.91 1482.78 Q1332.91 1490.13 1334.98 1497.36 Q1337.08 1504.55 1341.31 1511.84 L1336.22 1511.84 Q1331.44 1504.36 1329.06 1497.13 Q1326.7 1489.91 1326.7 1482.78 Q1326.7 1475.68 1329.06 1468.49 Q1331.41 1461.29 1336.22 1453.78 L1341.31 1453.78 Z" fill="#000000" fill-rule="evenodd" fill-opacity="1" /><path clip-path="url(#clip230)" d="M 0 0 M1382.31 1481.73 L1382.31 1503.24 L1376.45 1503.24 L1376.45 1481.92 Q1376.45 1476.86 1374.48 1474.34 Q1372.5 1471.83 1368.56 1471.83 Q1363.81 1471.83 1361.08 1474.85 Q1358.34 1477.88 1358.34 1483.1 L1358.34 1503.24 L1352.45 1503.24 L1352.45 1467.6 L1358.34 1467.6 L1358.34 1473.13 Q1360.44 1469.92 1363.27 1468.33 Q1366.14 1466.74 1369.86 1466.74 Q1376 1466.74 1379.16 1470.56 Q1382.31 1474.34 1382.31 1481.73 Z" fill="#000000" fill-rule="evenodd" fill-opacity="1" /><path clip-path="url(#clip230)" d="M 0 0 M1416.71 1468.65 L1416.71 1474.18 Q1414.23 1472.91 1411.56 1472.27 Q1408.88 1471.64 1406.02 1471.64 Q1401.66 1471.64 1399.46 1472.97 Q1397.3 1474.31 1397.3 1476.99 Q1397.3 1479.02 1398.86 1480.2 Q1400.42 1481.35 1405.13 1482.4 L1407.13 1482.84 Q1413.37 1484.18 1415.98 1486.63 Q1418.62 1489.05 1418.62 1493.41 Q1418.62 1498.37 1414.68 1501.27 Q1410.76 1504.17 1403.89 1504.17 Q1401.02 1504.17 1397.9 1503.59 Q1394.82 1503.05 1391.38 1501.94 L1391.38 1495.89 Q1394.62 1497.58 1397.78 1498.44 Q1400.93 1499.27 1404.01 1499.27 Q1408.15 1499.27 1410.38 1497.86 Q1412.61 1496.43 1412.61 1493.85 Q1412.61 1491.47 1410.98 1490.19 Q1409.39 1488.92 1403.95 1487.74 L1401.91 1487.27 Q1396.47 1486.12 1394.05 1483.76 Q1391.63 1481.38 1391.63 1477.24 Q1391.63 1472.21 1395.2 1469.47 Q1398.76 1466.74 1405.32 1466.74 Q1408.57 1466.74 1411.43 1467.21 Q1414.29 1467.69 1416.71 1468.65 Z" fill="#000000" fill-rule="evenodd" fill-opacity="1" /><path clip-path="url(#clip230)" d="M 0 0 M1427.03 1453.78 L1432.12 1453.78 Q1436.89 1461.29 1439.25 1468.49 Q1441.63 1475.68 1441.63 1482.78 Q1441.63 1489.91 1439.25 1497.13 Q1436.89 1504.36 1432.12 1511.84 L1427.03 1511.84 Q1431.26 1504.55 1433.33 1497.36 Q1435.43 1490.13 1435.43 1482.78 Q1435.43 1475.43 1433.33 1468.26 Q1431.26 1461.1 1427.03 1453.78 Z" fill="#000000" fill-rule="evenodd" fill-opacity="1" /><polyline clip-path="url(#clip232)" style="stroke:#000000; stroke-width:2; stroke-opacity:0.1; fill:none" points="
  339.739,1324.85 2256.76,1324.85 
  "/>
<polyline clip-path="url(#clip232)" style="stroke:#000000; stroke-width:2; stroke-opacity:0.1; fill:none" points="
  339.739,1013.51 2256.76,1013.51 
  "/>
<polyline clip-path="url(#clip232)" style="stroke:#000000; stroke-width:2; stroke-opacity:0.1; fill:none" points="
  339.739,702.164 2256.76,702.164 
  "/>
<polyline clip-path="url(#clip232)" style="stroke:#000000; stroke-width:2; stroke-opacity:0.1; fill:none" points="
  339.739,390.822 2256.76,390.822 
  "/>
<polyline clip-path="url(#clip230)" style="stroke:#000000; stroke-width:4; stroke-opacity:1; fill:none" points="
  339.739,1359.82 339.739,123.472 
  "/>
<polyline clip-path="url(#clip230)" style="stroke:#000000; stroke-width:4; stroke-opacity:1; fill:none" points="
  339.739,1324.85 362.743,1324.85 
  "/>
<polyline clip-path="url(#clip230)" style="stroke:#000000; stroke-width:4; stroke-opacity:1; fill:none" points="
  339.739,1013.51 362.743,1013.51 
  "/>
<polyline clip-path="url(#clip230)" style="stroke:#000000; stroke-width:4; stroke-opacity:1; fill:none" points="
  339.739,702.164 362.743,702.164 
  "/>
<polyline clip-path="url(#clip230)" style="stroke:#000000; stroke-width:4; stroke-opacity:1; fill:none" points="
  339.739,390.822 362.743,390.822 
  "/>
<path clip-path="url(#clip230)" d="M 0 0 M293.235 1310.65 Q289.623 1310.65 287.795 1314.21 Q285.989 1317.75 285.989 1324.88 Q285.989 1331.99 287.795 1335.55 Q289.623 1339.1 293.235 1339.1 Q296.869 1339.1 298.674 1335.55 Q300.503 1331.99 300.503 1324.88 Q300.503 1317.75 298.674 1314.21 Q296.869 1310.65 293.235 1310.65 M293.235 1306.94 Q299.045 1306.94 302.1 1311.55 Q305.179 1316.13 305.179 1324.88 Q305.179 1333.61 302.1 1338.22 Q299.045 1342.8 293.235 1342.8 Q287.424 1342.8 284.346 1338.22 Q281.29 1333.61 281.29 1324.88 Q281.29 1316.13 284.346 1311.55 Q287.424 1306.94 293.235 1306.94 Z" fill="#000000" fill-rule="evenodd" fill-opacity="1" /><path clip-path="url(#clip230)" d="M 0 0 M121.523 1033.3 L137.842 1033.3 L137.842 1037.23 L115.898 1037.23 L115.898 1033.3 Q118.56 1030.54 123.143 1025.91 Q127.749 1021.26 128.93 1019.92 Q131.175 1017.4 132.055 1015.66 Q132.958 1013.9 132.958 1012.21 Q132.958 1009.46 131.013 1007.72 Q129.092 1005.98 125.99 1005.98 Q123.791 1005.98 121.337 1006.75 Q118.907 1007.51 116.129 1009.06 L116.129 1004.34 Q118.953 1003.21 121.407 1002.63 Q123.86 1002.05 125.898 1002.05 Q131.268 1002.05 134.462 1004.73 Q137.657 1007.42 137.657 1011.91 Q137.657 1014.04 136.847 1015.96 Q136.059 1017.86 133.953 1020.45 Q133.374 1021.12 130.272 1024.34 Q127.171 1027.53 121.523 1033.3 Z" fill="#000000" fill-rule="evenodd" fill-opacity="1" /><path clip-path="url(#clip230)" d="M 0 0 M147.657 1031.35 L152.541 1031.35 L152.541 1037.23 L147.657 1037.23 L147.657 1031.35 Z" fill="#000000" fill-rule="evenodd" fill-opacity="1" /><path clip-path="url(#clip230)" d="M 0 0 M172.726 1005.75 Q169.115 1005.75 167.286 1009.32 Q165.481 1012.86 165.481 1019.99 Q165.481 1027.09 167.286 1030.66 Q169.115 1034.2 172.726 1034.2 Q176.36 1034.2 178.166 1030.66 Q179.994 1027.09 179.994 1019.99 Q179.994 1012.86 178.166 1009.32 Q176.36 1005.75 172.726 1005.75 M172.726 1002.05 Q178.536 1002.05 181.592 1006.65 Q184.67 1011.24 184.67 1019.99 Q184.67 1028.71 181.592 1033.32 Q178.536 1037.9 172.726 1037.9 Q166.916 1037.9 163.837 1033.32 Q160.782 1028.71 160.782 1019.99 Q160.782 1011.24 163.837 1006.65 Q166.916 1002.05 172.726 1002.05 Z" fill="#000000" fill-rule="evenodd" fill-opacity="1" /><path clip-path="url(#clip230)" d="M 0 0 M221.059 1011.77 L210.48 1022.4 L221.059 1032.97 L218.304 1035.78 L207.679 1025.15 L197.055 1035.78 L194.323 1032.97 L204.879 1022.4 L194.323 1011.77 L197.055 1008.97 L207.679 1019.59 L218.304 1008.97 L221.059 1011.77 Z" fill="#000000" fill-rule="evenodd" fill-opacity="1" /><path clip-path="url(#clip230)" d="M 0 0 M233.42 1033.3 L241.059 1033.3 L241.059 1006.93 L232.749 1008.6 L232.749 1004.34 L241.013 1002.67 L245.689 1002.67 L245.689 1033.3 L253.327 1033.3 L253.327 1037.23 L233.42 1037.23 L233.42 1033.3 Z" fill="#000000" fill-rule="evenodd" fill-opacity="1" /><path clip-path="url(#clip230)" d="M 0 0 M272.772 1005.75 Q269.161 1005.75 267.332 1009.32 Q265.526 1012.86 265.526 1019.99 Q265.526 1027.09 267.332 1030.66 Q269.161 1034.2 272.772 1034.2 Q276.406 1034.2 278.212 1030.66 Q280.04 1027.09 280.04 1019.99 Q280.04 1012.86 278.212 1009.32 Q276.406 1005.75 272.772 1005.75 M272.772 1002.05 Q278.582 1002.05 281.637 1006.65 Q284.716 1011.24 284.716 1019.99 Q284.716 1028.71 281.637 1033.32 Q278.582 1037.9 272.772 1037.9 Q266.962 1037.9 263.883 1033.32 Q260.827 1028.71 260.827 1019.99 Q260.827 1011.24 263.883 1006.65 Q266.962 1002.05 272.772 1002.05 Z" fill="#000000" fill-rule="evenodd" fill-opacity="1" /><path clip-path="url(#clip230)" d="M 0 0 M297.393 985.053 L287.801 1000.04 L297.393 1000.04 L297.393 985.053 M296.396 981.743 L301.173 981.743 L301.173 1000.04 L305.179 1000.04 L305.179 1003.2 L301.173 1003.2 L301.173 1009.82 L297.393 1009.82 L297.393 1003.2 L284.716 1003.2 L284.716 999.535 L296.396 981.743 Z" fill="#000000" fill-rule="evenodd" fill-opacity="1" /><path clip-path="url(#clip230)" d="M 0 0 M130.342 695.406 L118.536 713.855 L130.342 713.855 L130.342 695.406 M129.115 691.332 L134.995 691.332 L134.995 713.855 L139.925 713.855 L139.925 717.744 L134.995 717.744 L134.995 725.892 L130.342 725.892 L130.342 717.744 L114.74 717.744 L114.74 713.23 L129.115 691.332 Z" fill="#000000" fill-rule="evenodd" fill-opacity="1" /><path clip-path="url(#clip230)" d="M 0 0 M147.657 720.012 L152.541 720.012 L152.541 725.892 L147.657 725.892 L147.657 720.012 Z" fill="#000000" fill-rule="evenodd" fill-opacity="1" /><path clip-path="url(#clip230)" d="M 0 0 M172.726 694.41 Q169.115 694.41 167.286 697.975 Q165.481 701.517 165.481 708.646 Q165.481 715.753 167.286 719.318 Q169.115 722.859 172.726 722.859 Q176.36 722.859 178.166 719.318 Q179.994 715.753 179.994 708.646 Q179.994 701.517 178.166 697.975 Q176.36 694.41 172.726 694.41 M172.726 690.707 Q178.536 690.707 181.592 695.313 Q184.67 699.896 184.67 708.646 Q184.67 717.373 181.592 721.98 Q178.536 726.563 172.726 726.563 Q166.916 726.563 163.837 721.98 Q160.782 717.373 160.782 708.646 Q160.782 699.896 163.837 695.313 Q166.916 690.707 172.726 690.707 Z" fill="#000000" fill-rule="evenodd" fill-opacity="1" /><path clip-path="url(#clip230)" d="M 0 0 M221.059 700.429 L210.48 711.054 L221.059 721.632 L218.304 724.433 L207.679 713.808 L197.055 724.433 L194.323 721.632 L204.879 711.054 L194.323 700.429 L197.055 697.628 L207.679 708.253 L218.304 697.628 L221.059 700.429 Z" fill="#000000" fill-rule="evenodd" fill-opacity="1" /><path clip-path="url(#clip230)" d="M 0 0 M233.42 721.956 L241.059 721.956 L241.059 695.591 L232.749 697.258 L232.749 692.998 L241.013 691.332 L245.689 691.332 L245.689 721.956 L253.327 721.956 L253.327 725.892 L233.42 725.892 L233.42 721.956 Z" fill="#000000" fill-rule="evenodd" fill-opacity="1" /><path clip-path="url(#clip230)" d="M 0 0 M272.772 694.41 Q269.161 694.41 267.332 697.975 Q265.526 701.517 265.526 708.646 Q265.526 715.753 267.332 719.318 Q269.161 722.859 272.772 722.859 Q276.406 722.859 278.212 719.318 Q280.04 715.753 280.04 708.646 Q280.04 701.517 278.212 697.975 Q276.406 694.41 272.772 694.41 M272.772 690.707 Q278.582 690.707 281.637 695.313 Q284.716 699.896 284.716 708.646 Q284.716 717.373 281.637 721.98 Q278.582 726.563 272.772 726.563 Q266.962 726.563 263.883 721.98 Q260.827 717.373 260.827 708.646 Q260.827 699.896 263.883 695.313 Q266.962 690.707 272.772 690.707 Z" fill="#000000" fill-rule="evenodd" fill-opacity="1" /><path clip-path="url(#clip230)" d="M 0 0 M297.393 673.711 L287.801 688.701 L297.393 688.701 L297.393 673.711 M296.396 670.401 L301.173 670.401 L301.173 688.701 L305.179 688.701 L305.179 691.861 L301.173 691.861 L301.173 698.481 L297.393 698.481 L297.393 691.861 L284.716 691.861 L284.716 688.193 L296.396 670.401 Z" fill="#000000" fill-rule="evenodd" fill-opacity="1" /><path clip-path="url(#clip230)" d="M 0 0 M128.073 395.406 Q124.925 395.406 123.073 397.559 Q121.245 399.712 121.245 403.462 Q121.245 407.189 123.073 409.365 Q124.925 411.517 128.073 411.517 Q131.222 411.517 133.05 409.365 Q134.902 407.189 134.902 403.462 Q134.902 399.712 133.05 397.559 Q131.222 395.406 128.073 395.406 M137.356 380.754 L137.356 385.013 Q135.597 384.18 133.791 383.74 Q132.009 383.3 130.249 383.3 Q125.62 383.3 123.166 386.425 Q120.735 389.55 120.388 395.869 Q121.754 393.855 123.814 392.791 Q125.874 391.703 128.351 391.703 Q133.56 391.703 136.569 394.874 Q139.601 398.022 139.601 403.462 Q139.601 408.786 136.453 412.004 Q133.305 415.221 128.073 415.221 Q122.078 415.221 118.907 410.638 Q115.736 406.031 115.736 397.305 Q115.736 389.11 119.624 384.249 Q123.513 379.365 130.064 379.365 Q131.823 379.365 133.606 379.712 Q135.411 380.059 137.356 380.754 Z" fill="#000000" fill-rule="evenodd" fill-opacity="1" /><path clip-path="url(#clip230)" d="M 0 0 M147.657 408.67 L152.541 408.67 L152.541 414.55 L147.657 414.55 L147.657 408.67 Z" fill="#000000" fill-rule="evenodd" fill-opacity="1" /><path clip-path="url(#clip230)" d="M 0 0 M172.726 383.068 Q169.115 383.068 167.286 386.633 Q165.481 390.175 165.481 397.305 Q165.481 404.411 167.286 407.976 Q169.115 411.517 172.726 411.517 Q176.36 411.517 178.166 407.976 Q179.994 404.411 179.994 397.305 Q179.994 390.175 178.166 386.633 Q176.36 383.068 172.726 383.068 M172.726 379.365 Q178.536 379.365 181.592 383.971 Q184.67 388.555 184.67 397.305 Q184.67 406.031 181.592 410.638 Q178.536 415.221 172.726 415.221 Q166.916 415.221 163.837 410.638 Q160.782 406.031 160.782 397.305 Q160.782 388.555 163.837 383.971 Q166.916 379.365 172.726 379.365 Z" fill="#000000" fill-rule="evenodd" fill-opacity="1" /><path clip-path="url(#clip230)" d="M 0 0 M221.059 389.087 L210.48 399.712 L221.059 410.291 L218.304 413.091 L207.679 402.467 L197.055 413.091 L194.323 410.291 L204.879 399.712 L194.323 389.087 L197.055 386.286 L207.679 396.911 L218.304 386.286 L221.059 389.087 Z" fill="#000000" fill-rule="evenodd" fill-opacity="1" /><path clip-path="url(#clip230)" d="M 0 0 M233.42 410.615 L241.059 410.615 L241.059 384.249 L232.749 385.916 L232.749 381.656 L241.013 379.99 L245.689 379.99 L245.689 410.615 L253.327 410.615 L253.327 414.55 L233.42 414.55 L233.42 410.615 Z" fill="#000000" fill-rule="evenodd" fill-opacity="1" /><path clip-path="url(#clip230)" d="M 0 0 M272.772 383.068 Q269.161 383.068 267.332 386.633 Q265.526 390.175 265.526 397.305 Q265.526 404.411 267.332 407.976 Q269.161 411.517 272.772 411.517 Q276.406 411.517 278.212 407.976 Q280.04 404.411 280.04 397.305 Q280.04 390.175 278.212 386.633 Q276.406 383.068 272.772 383.068 M272.772 379.365 Q278.582 379.365 281.637 383.971 Q284.716 388.555 284.716 397.305 Q284.716 406.031 281.637 410.638 Q278.582 415.221 272.772 415.221 Q266.962 415.221 263.883 410.638 Q260.827 406.031 260.827 397.305 Q260.827 388.555 263.883 383.971 Q266.962 379.365 272.772 379.365 Z" fill="#000000" fill-rule="evenodd" fill-opacity="1" /><path clip-path="url(#clip230)" d="M 0 0 M297.393 362.37 L287.801 377.359 L297.393 377.359 L297.393 362.37 M296.396 359.059 L301.173 359.059 L301.173 377.359 L305.179 377.359 L305.179 380.519 L301.173 380.519 L301.173 387.139 L297.393 387.139 L297.393 380.519 L284.716 380.519 L284.716 376.852 L296.396 359.059 Z" fill="#000000" fill-rule="evenodd" fill-opacity="1" /><path clip-path="url(#clip230)" d="M 0 0 M24.738 1022.71 L48.3866 1031.43 L48.3866 1013.95 L24.738 1022.71 M18.4042 1026.34 L18.4042 1019.05 L65.9242 1000.94 L65.9242 1007.62 L53.7338 1011.95 L53.7338 1033.37 L65.9242 1037.7 L65.9242 1044.48 L18.4042 1026.34 Z" fill="#000000" fill-rule="evenodd" fill-opacity="1" /><path clip-path="url(#clip230)" d="M 0 0 M30.2762 1002.27 L30.2762 996.067 L60.195 984.927 L30.2762 973.787 L30.2762 967.581 L65.9242 980.949 L65.9242 988.906 L30.2762 1002.27 Z" fill="#000000" fill-rule="evenodd" fill-opacity="1" /><path clip-path="url(#clip230)" d="M 0 0 M47.6864 936.039 Q41.3207 936.039 37.8196 938.681 Q34.3184 941.29 34.3184 946.033 Q34.3184 950.744 37.8196 953.385 Q41.3207 955.995 47.6864 955.995 Q54.0203 955.995 57.5214 953.385 Q61.0226 950.744 61.0226 946.033 Q61.0226 941.29 57.5214 938.681 Q54.0203 936.039 47.6864 936.039 M61.5 930.182 Q70.603 930.182 75.0271 934.225 Q79.4831 938.267 79.4831 946.606 Q79.4831 949.693 79.0057 952.43 Q78.5601 955.168 77.6052 957.746 L71.9079 957.746 Q73.3084 955.168 73.9768 952.653 Q74.6452 950.139 74.6452 947.529 Q74.6452 941.768 71.6215 938.903 Q68.6296 936.039 62.5503 936.039 L59.6539 936.039 Q62.805 937.853 64.3646 940.686 Q65.9242 943.518 65.9242 947.465 Q65.9242 954.022 60.9271 958.032 Q55.93 962.043 47.6864 962.043 Q39.411 962.043 34.4139 958.032 Q29.4168 954.022 29.4168 947.465 Q29.4168 943.518 30.9764 940.686 Q32.536 937.853 35.6871 936.039 L30.2762 936.039 L30.2762 930.182 L61.5 930.182 Z" fill="#000000" fill-rule="evenodd" fill-opacity="1" /><path clip-path="url(#clip230)" d="M 0 0 M60.577 891.733 L79.4831 891.733 L79.4831 897.622 L30.2762 897.622 L30.2762 891.733 L35.6871 891.733 Q32.5042 889.887 30.9764 887.086 Q29.4168 884.254 29.4168 880.339 Q29.4168 873.846 34.5731 869.804 Q39.7293 865.73 48.132 865.73 Q56.5347 865.73 61.691 869.804 Q66.8472 873.846 66.8472 880.339 Q66.8472 884.254 65.3194 887.086 Q63.7598 889.887 60.577 891.733 M48.132 871.809 Q41.6708 871.809 38.0105 874.482 Q34.3184 877.124 34.3184 881.771 Q34.3184 886.418 38.0105 889.092 Q41.6708 891.733 48.132 891.733 Q54.5932 891.733 58.2853 889.092 Q61.9456 886.418 61.9456 881.771 Q61.9456 877.124 58.2853 874.482 Q54.5932 871.809 48.132 871.809 Z" fill="#000000" fill-rule="evenodd" fill-opacity="1" /><path clip-path="url(#clip230)" d="M 0 0 M44.4081 826.389 L65.9242 826.389 L65.9242 832.246 L44.599 832.246 Q39.5383 832.246 37.0238 834.219 Q34.5094 836.193 34.5094 840.139 Q34.5094 844.882 37.5331 847.619 Q40.5568 850.356 45.7767 850.356 L65.9242 850.356 L65.9242 856.245 L16.399 856.245 L16.399 850.356 L35.8144 850.356 Q32.5997 848.256 31.0083 845.423 Q29.4168 842.558 29.4168 838.834 Q29.4168 832.692 33.2363 829.54 Q37.0238 826.389 44.4081 826.389 Z" fill="#000000" fill-rule="evenodd" fill-opacity="1" /><path clip-path="url(#clip230)" d="M 0 0 M34.3821 800.895 Q34.3821 805.605 38.0742 808.343 Q41.7345 811.08 48.132 811.08 Q54.5295 811.08 58.2217 808.375 Q61.8819 805.637 61.8819 800.895 Q61.8819 796.216 58.1898 793.479 Q54.4977 790.741 48.132 790.741 Q41.7981 790.741 38.106 793.479 Q34.3821 796.216 34.3821 800.895 M29.4168 800.895 Q29.4168 793.256 34.3821 788.895 Q39.3473 784.535 48.132 784.535 Q56.8849 784.535 61.8819 788.895 Q66.8472 793.256 66.8472 800.895 Q66.8472 808.565 61.8819 812.926 Q56.8849 817.255 48.132 817.255 Q39.3473 817.255 34.3821 812.926 Q29.4168 808.565 29.4168 800.895 Z" fill="#000000" fill-rule="evenodd" fill-opacity="1" /><path clip-path="url(#clip230)" d="M 0 0 M20.1547 769.034 L30.2762 769.034 L30.2762 756.971 L34.8277 756.971 L34.8277 769.034 L54.1794 769.034 Q58.5399 769.034 59.7813 767.857 Q61.0226 766.647 61.0226 762.987 L61.0226 756.971 L65.9242 756.971 L65.9242 762.987 Q65.9242 769.766 63.4097 772.345 Q60.8634 774.923 54.1794 774.923 L34.8277 774.923 L34.8277 779.22 L30.2762 779.22 L30.2762 774.923 L20.1547 774.923 L20.1547 769.034 Z" fill="#000000" fill-rule="evenodd" fill-opacity="1" /><path clip-path="url(#clip230)" d="M 0 0 M34.3821 735.455 Q34.3821 740.166 38.0742 742.903 Q41.7345 745.64 48.132 745.64 Q54.5295 745.64 58.2217 742.935 Q61.8819 740.198 61.8819 735.455 Q61.8819 730.777 58.1898 728.039 Q54.4977 725.302 48.132 725.302 Q41.7981 725.302 38.106 728.039 Q34.3821 730.777 34.3821 735.455 M29.4168 735.455 Q29.4168 727.816 34.3821 723.456 Q39.3473 719.095 48.132 719.095 Q56.8849 719.095 61.8819 723.456 Q66.8472 727.816 66.8472 735.455 Q66.8472 743.126 61.8819 747.487 Q56.8849 751.815 48.132 751.815 Q39.3473 751.815 34.3821 747.487 Q29.4168 743.126 29.4168 735.455 Z" fill="#000000" fill-rule="evenodd" fill-opacity="1" /><path clip-path="url(#clip230)" d="M 0 0 M44.4081 679.755 L65.9242 679.755 L65.9242 685.612 L44.599 685.612 Q39.5383 685.612 37.0238 687.585 Q34.5094 689.559 34.5094 693.505 Q34.5094 698.248 37.5331 700.985 Q40.5568 703.722 45.7767 703.722 L65.9242 703.722 L65.9242 709.611 L30.2762 709.611 L30.2762 703.722 L35.8144 703.722 Q32.5997 701.622 31.0083 698.789 Q29.4168 695.924 29.4168 692.2 Q29.4168 686.057 33.2363 682.906 Q37.0238 679.755 44.4081 679.755 Z" fill="#000000" fill-rule="evenodd" fill-opacity="1" /><path clip-path="url(#clip230)" d="M 0 0 M31.6448 621.7 L37.1193 621.7 Q35.7507 624.183 35.0823 626.697 Q34.3821 629.18 34.3821 631.726 Q34.3821 637.423 38.0105 640.574 Q41.6072 643.726 48.132 643.726 Q54.6569 643.726 58.2853 640.574 Q61.8819 637.423 61.8819 631.726 Q61.8819 629.18 61.2135 626.697 Q60.5133 624.183 59.1447 621.7 L64.5555 621.7 Q65.7014 624.151 66.2743 626.793 Q66.8472 629.403 66.8472 632.363 Q66.8472 640.415 61.7864 645.158 Q56.7257 649.9 48.132 649.9 Q39.411 649.9 34.4139 645.126 Q29.4168 640.32 29.4168 631.981 Q29.4168 629.275 29.9897 626.697 Q30.5308 624.119 31.6448 621.7 Z" fill="#000000" fill-rule="evenodd" fill-opacity="1" /><path clip-path="url(#clip230)" d="M 0 0 M34.3821 597.701 Q34.3821 602.412 38.0742 605.149 Q41.7345 607.887 48.132 607.887 Q54.5295 607.887 58.2217 605.181 Q61.8819 602.444 61.8819 597.701 Q61.8819 593.023 58.1898 590.285 Q54.4977 587.548 48.132 587.548 Q41.7981 587.548 38.106 590.285 Q34.3821 593.023 34.3821 597.701 M29.4168 597.701 Q29.4168 590.063 34.3821 585.702 Q39.3473 581.342 48.132 581.342 Q56.8849 581.342 61.8819 585.702 Q66.8472 590.063 66.8472 597.701 Q66.8472 605.372 61.8819 609.733 Q56.8849 614.061 48.132 614.061 Q39.3473 614.061 34.3821 609.733 Q29.4168 605.372 29.4168 597.701 Z" fill="#000000" fill-rule="evenodd" fill-opacity="1" /><path clip-path="url(#clip230)" d="M 0 0 M51.8559 572.239 L30.2762 572.239 L30.2762 566.382 L51.6331 566.382 Q56.6939 566.382 59.2402 564.409 Q61.7546 562.435 61.7546 558.489 Q61.7546 553.746 58.7309 551.009 Q55.7072 548.24 50.4873 548.24 L30.2762 548.24 L30.2762 542.383 L65.9242 542.383 L65.9242 548.24 L60.4496 548.24 Q63.6962 550.372 65.2876 553.205 Q66.8472 556.006 66.8472 559.73 Q66.8472 565.873 63.0278 569.056 Q59.2083 572.239 51.8559 572.239 M29.4168 557.502 L29.4168 557.502 Z" fill="#000000" fill-rule="evenodd" fill-opacity="1" /><path clip-path="url(#clip230)" d="M 0 0 M44.4081 500.688 L65.9242 500.688 L65.9242 506.545 L44.599 506.545 Q39.5383 506.545 37.0238 508.518 Q34.5094 510.491 34.5094 514.438 Q34.5094 519.18 37.5331 521.918 Q40.5568 524.655 45.7767 524.655 L65.9242 524.655 L65.9242 530.543 L30.2762 530.543 L30.2762 524.655 L35.8144 524.655 Q32.5997 522.554 31.0083 519.722 Q29.4168 516.857 29.4168 513.133 Q29.4168 506.99 33.2363 503.839 Q37.0238 500.688 44.4081 500.688 Z" fill="#000000" fill-rule="evenodd" fill-opacity="1" /><path clip-path="url(#clip230)" d="M 0 0 M20.1547 483.214 L30.2762 483.214 L30.2762 471.151 L34.8277 471.151 L34.8277 483.214 L54.1794 483.214 Q58.5399 483.214 59.7813 482.037 Q61.0226 480.827 61.0226 477.167 L61.0226 471.151 L65.9242 471.151 L65.9242 477.167 Q65.9242 483.946 63.4097 486.524 Q60.8634 489.102 54.1794 489.102 L34.8277 489.102 L34.8277 493.399 L30.2762 493.399 L30.2762 489.102 L20.1547 489.102 L20.1547 483.214 Z" fill="#000000" fill-rule="evenodd" fill-opacity="1" /><path clip-path="url(#clip230)" d="M 0 0 M31.3265 440.723 L36.8647 440.723 Q35.5916 443.206 34.955 445.879 Q34.3184 448.553 34.3184 451.418 Q34.3184 455.778 35.6552 457.974 Q36.992 460.139 39.6656 460.139 Q41.7026 460.139 42.8803 458.579 Q44.0261 457.019 45.0765 452.309 L45.5221 450.304 Q46.8589 444.065 49.3097 441.455 Q51.7286 438.813 56.0891 438.813 Q61.0544 438.813 63.9508 442.76 Q66.8472 446.675 66.8472 453.55 Q66.8472 456.415 66.2743 459.534 Q65.7332 462.621 64.6192 466.059 L58.5718 466.059 Q60.2587 462.812 61.118 459.661 Q61.9456 456.51 61.9456 453.423 Q61.9456 449.285 60.5451 447.057 Q59.1129 444.829 56.5347 444.829 Q54.1476 444.829 52.8745 446.452 Q51.6013 448.044 50.4237 453.486 L49.9462 455.523 Q48.8004 460.966 46.4451 463.385 Q44.058 465.804 39.9202 465.804 Q34.8913 465.804 32.1541 462.239 Q29.4168 458.674 29.4168 452.118 Q29.4168 448.871 29.8943 446.007 Q30.3717 443.142 31.3265 440.723 Z" fill="#000000" fill-rule="evenodd" fill-opacity="1" /><path clip-path="url(#clip230)" d="M 0 0 M668.312 20.1573 L657.212 50.2555 L679.452 50.2555 L668.312 20.1573 M663.694 12.096 L672.97 12.096 L696.02 72.576 L687.513 72.576 L682.004 57.061 L654.741 57.061 L649.232 72.576 L640.603 72.576 L663.694 12.096 Z" fill="#000000" fill-rule="evenodd" fill-opacity="1" /><path clip-path="url(#clip230)" d="M 0 0 M694.318 27.2059 L702.218 27.2059 L716.396 65.2844 L730.574 27.2059 L738.473 27.2059 L721.459 72.576 L711.332 72.576 L694.318 27.2059 Z" fill="#000000" fill-rule="evenodd" fill-opacity="1" /><path clip-path="url(#clip230)" d="M 0 0 M787.57 48.0275 L787.57 51.6733 L753.3 51.6733 Q753.786 59.3701 757.918 63.421 Q762.09 67.4314 769.503 67.4314 Q773.797 67.4314 777.808 66.3781 Q781.858 65.3249 785.828 63.2184 L785.828 70.267 Q781.818 71.9684 777.605 72.8596 Q773.392 73.7508 769.058 73.7508 Q758.201 73.7508 751.841 67.4314 Q745.522 61.1119 745.522 50.3365 Q745.522 39.1965 751.517 32.6746 Q757.553 26.1121 767.761 26.1121 Q776.916 26.1121 782.223 32.0264 Q787.57 37.9003 787.57 48.0275 M780.117 45.84 Q780.036 39.7232 776.673 36.0774 Q773.352 32.4315 767.842 32.4315 Q761.604 32.4315 757.837 35.9558 Q754.11 39.4801 753.543 45.8805 L780.117 45.84 Z" fill="#000000" fill-rule="evenodd" fill-opacity="1" /><path clip-path="url(#clip230)" d="M 0 0 M826.094 34.1734 Q824.839 33.4443 823.34 33.1202 Q821.881 32.7556 820.099 32.7556 Q813.78 32.7556 810.377 36.8875 Q807.015 40.9789 807.015 48.6757 L807.015 72.576 L799.52 72.576 L799.52 27.2059 L807.015 27.2059 L807.015 34.2544 Q809.364 30.1225 813.131 28.1376 Q816.899 26.1121 822.286 26.1121 Q823.056 26.1121 823.988 26.2337 Q824.92 26.3147 826.054 26.5172 L826.094 34.1734 Z" fill="#000000" fill-rule="evenodd" fill-opacity="1" /><path clip-path="url(#clip230)" d="M 0 0 M854.532 49.7694 Q845.498 49.7694 842.014 51.8354 Q838.531 53.9013 838.531 58.8839 Q838.531 62.8538 841.123 65.2034 Q843.756 67.5124 848.253 67.5124 Q854.451 67.5124 858.177 63.1374 Q861.945 58.7219 861.945 51.4303 L861.945 49.7694 L854.532 49.7694 M869.398 46.6907 L869.398 72.576 L861.945 72.576 L861.945 65.6895 Q859.393 69.8214 855.585 71.8063 Q851.777 73.7508 846.268 73.7508 Q839.3 73.7508 835.168 69.8619 Q831.077 65.9325 831.077 59.3701 Q831.077 51.7138 836.181 47.825 Q841.326 43.9361 851.493 43.9361 L861.945 43.9361 L861.945 43.2069 Q861.945 38.0623 858.542 35.2672 Q855.18 32.4315 849.063 32.4315 Q845.174 32.4315 841.488 33.3632 Q837.801 34.295 834.399 36.1584 L834.399 29.2718 Q838.49 27.692 842.338 26.9223 Q846.187 26.1121 849.833 26.1121 Q859.676 26.1121 864.537 31.2163 Q869.398 36.3204 869.398 46.6907 Z" fill="#000000" fill-rule="evenodd" fill-opacity="1" /><path clip-path="url(#clip230)" d="M 0 0 M914.607 49.3643 Q914.607 41.2625 911.244 36.8065 Q907.923 32.3505 901.887 32.3505 Q895.891 32.3505 892.529 36.8065 Q889.207 41.2625 889.207 49.3643 Q889.207 57.4256 892.529 61.8816 Q895.891 66.3376 901.887 66.3376 Q907.923 66.3376 911.244 61.8816 Q914.607 57.4256 914.607 49.3643 M922.06 66.9452 Q922.06 78.5308 916.916 84.1616 Q911.771 89.8329 901.158 89.8329 Q897.228 89.8329 893.744 89.2252 Q890.261 88.6581 886.979 87.4428 L886.979 80.1917 Q890.261 81.9741 893.461 82.8248 Q896.661 83.6755 899.983 83.6755 Q907.315 83.6755 910.961 79.8271 Q914.607 76.0193 914.607 68.282 L914.607 64.5957 Q912.298 68.6061 908.692 70.5911 Q905.087 72.576 900.064 72.576 Q891.719 72.576 886.615 66.2161 Q881.511 59.8562 881.511 49.3643 Q881.511 38.832 886.615 32.472 Q891.719 26.1121 900.064 26.1121 Q905.087 26.1121 908.692 28.0971 Q912.298 30.082 914.607 34.0924 L914.607 27.2059 L922.06 27.2059 L922.06 66.9452 Z" fill="#000000" fill-rule="evenodd" fill-opacity="1" /><path clip-path="url(#clip230)" d="M 0 0 M976.221 48.0275 L976.221 51.6733 L941.95 51.6733 Q942.436 59.3701 946.568 63.421 Q950.741 67.4314 958.154 67.4314 Q962.448 67.4314 966.458 66.3781 Q970.509 65.3249 974.479 63.2184 L974.479 70.267 Q970.469 71.9684 966.256 72.8596 Q962.043 73.7508 957.708 73.7508 Q946.852 73.7508 940.492 67.4314 Q934.172 61.1119 934.172 50.3365 Q934.172 39.1965 940.168 32.6746 Q946.204 26.1121 956.412 26.1121 Q965.567 26.1121 970.874 32.0264 Q976.221 37.9003 976.221 48.0275 M968.767 45.84 Q968.686 39.7232 965.324 36.0774 Q962.002 32.4315 956.493 32.4315 Q950.255 32.4315 946.487 35.9558 Q942.76 39.4801 942.193 45.8805 L968.767 45.84 Z" fill="#000000" fill-rule="evenodd" fill-opacity="1" /><path clip-path="url(#clip230)" d="M 0 0 M1023.33 18.8205 L1023.33 41.5461 L1033.62 41.5461 Q1039.33 41.5461 1042.45 38.5889 Q1045.57 35.6318 1045.57 30.163 Q1045.57 24.7348 1042.45 21.7777 Q1039.33 18.8205 1033.62 18.8205 L1023.33 18.8205 M1015.15 12.096 L1033.62 12.096 Q1043.79 12.096 1048.98 16.714 Q1054.2 21.2916 1054.2 30.163 Q1054.2 39.1155 1048.98 43.6931 Q1043.79 48.2706 1033.62 48.2706 L1023.33 48.2706 L1023.33 72.576 L1015.15 72.576 L1015.15 12.096 Z" fill="#000000" fill-rule="evenodd" fill-opacity="1" /><path clip-path="url(#clip230)" d="M 0 0 M1102.57 45.1919 L1102.57 72.576 L1095.11 72.576 L1095.11 45.4349 Q1095.11 38.994 1092.6 35.7938 Q1090.09 32.5936 1085.07 32.5936 Q1079.03 32.5936 1075.55 36.4419 Q1072.07 40.2903 1072.07 46.9338 L1072.07 72.576 L1064.57 72.576 L1064.57 9.54393 L1072.07 9.54393 L1072.07 34.2544 Q1074.74 30.163 1078.34 28.1376 Q1081.99 26.1121 1086.73 26.1121 Q1094.55 26.1121 1098.56 30.9732 Q1102.57 35.7938 1102.57 45.1919 Z" fill="#000000" fill-rule="evenodd" fill-opacity="1" /><path clip-path="url(#clip230)" d="M 0 0 M1135.02 32.4315 Q1129.02 32.4315 1125.54 37.1306 Q1122.05 41.7891 1122.05 49.9314 Q1122.05 58.0738 1125.5 62.7728 Q1128.98 67.4314 1135.02 67.4314 Q1140.97 67.4314 1144.45 62.7323 Q1147.94 58.0333 1147.94 49.9314 Q1147.94 41.8701 1144.45 37.1711 Q1140.97 32.4315 1135.02 32.4315 M1135.02 26.1121 Q1144.74 26.1121 1150.29 32.4315 Q1155.84 38.7509 1155.84 49.9314 Q1155.84 61.0714 1150.29 67.4314 Q1144.74 73.7508 1135.02 73.7508 Q1125.25 73.7508 1119.7 67.4314 Q1114.19 61.0714 1114.19 49.9314 Q1114.19 38.7509 1119.7 32.4315 Q1125.25 26.1121 1135.02 26.1121 Z" fill="#000000" fill-rule="evenodd" fill-opacity="1" /><path clip-path="url(#clip230)" d="M 0 0 M1175.57 14.324 L1175.57 27.2059 L1190.92 27.2059 L1190.92 32.9987 L1175.57 32.9987 L1175.57 57.6282 Q1175.57 63.1779 1177.06 64.7578 Q1178.6 66.3376 1183.26 66.3376 L1190.92 66.3376 L1190.92 72.576 L1183.26 72.576 Q1174.63 72.576 1171.35 69.3758 Q1168.07 66.1351 1168.07 57.6282 L1168.07 32.9987 L1162.6 32.9987 L1162.6 27.2059 L1168.07 27.2059 L1168.07 14.324 L1175.57 14.324 Z" fill="#000000" fill-rule="evenodd" fill-opacity="1" /><path clip-path="url(#clip230)" d="M 0 0 M1218.3 32.4315 Q1212.31 32.4315 1208.82 37.1306 Q1205.34 41.7891 1205.34 49.9314 Q1205.34 58.0738 1208.78 62.7728 Q1212.27 67.4314 1218.3 67.4314 Q1224.26 67.4314 1227.74 62.7323 Q1231.23 58.0333 1231.23 49.9314 Q1231.23 41.8701 1227.74 37.1711 Q1224.26 32.4315 1218.3 32.4315 M1218.3 26.1121 Q1228.03 26.1121 1233.57 32.4315 Q1239.12 38.7509 1239.12 49.9314 Q1239.12 61.0714 1233.57 67.4314 Q1228.03 73.7508 1218.3 73.7508 Q1208.54 73.7508 1202.99 67.4314 Q1197.48 61.0714 1197.48 49.9314 Q1197.48 38.7509 1202.99 32.4315 Q1208.54 26.1121 1218.3 26.1121 Z" fill="#000000" fill-rule="evenodd" fill-opacity="1" /><path clip-path="url(#clip230)" d="M 0 0 M1289.19 45.1919 L1289.19 72.576 L1281.74 72.576 L1281.74 45.4349 Q1281.74 38.994 1279.23 35.7938 Q1276.72 32.5936 1271.69 32.5936 Q1265.66 32.5936 1262.17 36.4419 Q1258.69 40.2903 1258.69 46.9338 L1258.69 72.576 L1251.2 72.576 L1251.2 27.2059 L1258.69 27.2059 L1258.69 34.2544 Q1261.36 30.163 1264.97 28.1376 Q1268.62 26.1121 1273.35 26.1121 Q1281.17 26.1121 1285.18 30.9732 Q1289.19 35.7938 1289.19 45.1919 Z" fill="#000000" fill-rule="evenodd" fill-opacity="1" /><path clip-path="url(#clip230)" d="M 0 0 M1376.05 16.7545 L1376.05 25.383 Q1371.91 21.5346 1367.21 19.6307 Q1362.56 17.7268 1357.29 17.7268 Q1346.92 17.7268 1341.41 24.0867 Q1335.9 30.4061 1335.9 42.3968 Q1335.9 54.3469 1341.41 60.7069 Q1346.92 67.0263 1357.29 67.0263 Q1362.56 67.0263 1367.21 65.1223 Q1371.91 63.2184 1376.05 59.3701 L1376.05 67.9175 Q1371.75 70.8341 1366.93 72.2924 Q1362.15 73.7508 1356.8 73.7508 Q1343.07 73.7508 1335.17 65.3654 Q1327.27 56.9395 1327.27 42.3968 Q1327.27 27.8135 1335.17 19.4281 Q1343.07 11.0023 1356.8 11.0023 Q1362.23 11.0023 1367.01 12.4606 Q1371.83 13.8784 1376.05 16.7545 Z" fill="#000000" fill-rule="evenodd" fill-opacity="1" /><path clip-path="url(#clip230)" d="M 0 0 M1405.94 32.4315 Q1399.95 32.4315 1396.46 37.1306 Q1392.98 41.7891 1392.98 49.9314 Q1392.98 58.0738 1396.42 62.7728 Q1399.9 67.4314 1405.94 67.4314 Q1411.9 67.4314 1415.38 62.7323 Q1418.86 58.0333 1418.86 49.9314 Q1418.86 41.8701 1415.38 37.1711 Q1411.9 32.4315 1405.94 32.4315 M1405.94 26.1121 Q1415.66 26.1121 1421.21 32.4315 Q1426.76 38.7509 1426.76 49.9314 Q1426.76 61.0714 1421.21 67.4314 Q1415.66 73.7508 1405.94 73.7508 Q1396.18 73.7508 1390.63 67.4314 Q1385.12 61.0714 1385.12 49.9314 Q1385.12 38.7509 1390.63 32.4315 Q1396.18 26.1121 1405.94 26.1121 Z" fill="#000000" fill-rule="evenodd" fill-opacity="1" /><path clip-path="url(#clip230)" d="M 0 0 M1438.35 54.671 L1438.35 27.2059 L1445.8 27.2059 L1445.8 54.3874 Q1445.8 60.8284 1448.31 64.0691 Q1450.82 67.2693 1455.85 67.2693 Q1461.88 67.2693 1465.37 63.421 Q1468.89 59.5726 1468.89 52.9291 L1468.89 27.2059 L1476.35 27.2059 L1476.35 72.576 L1468.89 72.576 L1468.89 65.6084 Q1466.18 69.7404 1462.57 71.7658 Q1459.01 73.7508 1454.27 73.7508 Q1446.45 73.7508 1442.4 68.8897 Q1438.35 64.0286 1438.35 54.671 M1457.1 26.1121 L1457.1 26.1121 Z" fill="#000000" fill-rule="evenodd" fill-opacity="1" /><path clip-path="url(#clip230)" d="M 0 0 M1529.41 45.1919 L1529.41 72.576 L1521.96 72.576 L1521.96 45.4349 Q1521.96 38.994 1519.45 35.7938 Q1516.94 32.5936 1511.91 32.5936 Q1505.88 32.5936 1502.39 36.4419 Q1498.91 40.2903 1498.91 46.9338 L1498.91 72.576 L1491.41 72.576 L1491.41 27.2059 L1498.91 27.2059 L1498.91 34.2544 Q1501.58 30.163 1505.19 28.1376 Q1508.83 26.1121 1513.57 26.1121 Q1521.39 26.1121 1525.4 30.9732 Q1529.41 35.7938 1529.41 45.1919 Z" fill="#000000" fill-rule="evenodd" fill-opacity="1" /><path clip-path="url(#clip230)" d="M 0 0 M1551.65 14.324 L1551.65 27.2059 L1567 27.2059 L1567 32.9987 L1551.65 32.9987 L1551.65 57.6282 Q1551.65 63.1779 1553.15 64.7578 Q1554.69 66.3376 1559.35 66.3376 L1567 66.3376 L1567 72.576 L1559.35 72.576 Q1550.72 72.576 1547.44 69.3758 Q1544.16 66.1351 1544.16 57.6282 L1544.16 32.9987 L1538.69 32.9987 L1538.69 27.2059 L1544.16 27.2059 L1544.16 14.324 L1551.65 14.324 Z" fill="#000000" fill-rule="evenodd" fill-opacity="1" /><path clip-path="url(#clip230)" d="M 0 0 M1605.73 28.5427 L1605.73 35.5912 Q1602.57 33.9709 1599.17 33.1607 Q1595.77 32.3505 1592.12 32.3505 Q1586.57 32.3505 1583.78 34.0519 Q1581.02 35.7533 1581.02 39.156 Q1581.02 41.7486 1583.01 43.2475 Q1584.99 44.7058 1590.99 46.0426 L1593.54 46.6097 Q1601.48 48.3111 1604.8 51.4303 Q1608.16 54.509 1608.16 60.0587 Q1608.16 66.3781 1603.14 70.0644 Q1598.16 73.7508 1589.41 73.7508 Q1585.76 73.7508 1581.79 73.0216 Q1577.86 72.3329 1573.49 70.9151 L1573.49 63.2184 Q1577.62 65.3654 1581.63 66.4591 Q1585.64 67.5124 1589.57 67.5124 Q1594.83 67.5124 1597.67 65.73 Q1600.51 63.9071 1600.51 60.6258 Q1600.51 57.5877 1598.44 55.9673 Q1596.41 54.3469 1589.49 52.8481 L1586.89 52.2405 Q1579.97 50.7821 1576.89 47.7845 Q1573.81 44.7463 1573.81 39.4801 Q1573.81 33.0797 1578.35 29.5959 Q1582.88 26.1121 1591.23 26.1121 Q1595.36 26.1121 1599.01 26.7198 Q1602.65 27.3274 1605.73 28.5427 Z" fill="#000000" fill-rule="evenodd" fill-opacity="1" /><path clip-path="url(#clip230)" d="M 0 0 M1641.06 27.2059 L1648.95 27.2059 L1663.13 65.2844 L1677.31 27.2059 L1685.21 27.2059 L1668.2 72.576 L1658.07 72.576 L1641.06 27.2059 Z" fill="#000000" fill-rule="evenodd" fill-opacity="1" /><path clip-path="url(#clip230)" d="M 0 0 M1724.42 28.5427 L1724.42 35.5912 Q1721.26 33.9709 1717.86 33.1607 Q1714.46 32.3505 1710.81 32.3505 Q1705.26 32.3505 1702.47 34.0519 Q1699.71 35.7533 1699.71 39.156 Q1699.71 41.7486 1701.7 43.2475 Q1703.68 44.7058 1709.68 46.0426 L1712.23 46.6097 Q1720.17 48.3111 1723.49 51.4303 Q1726.85 54.509 1726.85 60.0587 Q1726.85 66.3781 1721.83 70.0644 Q1716.85 73.7508 1708.1 73.7508 Q1704.45 73.7508 1700.48 73.0216 Q1696.55 72.3329 1692.18 70.9151 L1692.18 63.2184 Q1696.31 65.3654 1700.32 66.4591 Q1704.33 67.5124 1708.26 67.5124 Q1713.53 67.5124 1716.36 65.73 Q1719.2 63.9071 1719.2 60.6258 Q1719.2 57.5877 1717.13 55.9673 Q1715.11 54.3469 1708.18 52.8481 L1705.59 52.2405 Q1698.66 50.7821 1695.58 47.7845 Q1692.5 44.7463 1692.5 39.4801 Q1692.5 33.0797 1697.04 29.5959 Q1701.58 26.1121 1709.92 26.1121 Q1714.05 26.1121 1717.7 26.7198 Q1721.34 27.3274 1724.42 28.5427 Z" fill="#000000" fill-rule="evenodd" fill-opacity="1" /><path clip-path="url(#clip230)" d="M 0 0 M1757.03 12.096 L1808.2 12.096 L1808.2 18.9825 L1786.73 18.9825 L1786.73 72.576 L1778.5 72.576 L1778.5 18.9825 L1757.03 18.9825 L1757.03 12.096 Z" fill="#000000" fill-rule="evenodd" fill-opacity="1" /><path clip-path="url(#clip230)" d="M 0 0 M1813.22 27.2059 L1820.67 27.2059 L1820.67 72.576 L1813.22 72.576 L1813.22 27.2059 M1813.22 9.54393 L1820.67 9.54393 L1820.67 18.9825 L1813.22 18.9825 L1813.22 9.54393 Z" fill="#000000" fill-rule="evenodd" fill-opacity="1" /><path clip-path="url(#clip230)" d="M 0 0 M1871.59 35.9153 Q1874.39 30.8922 1878.28 28.5022 Q1882.17 26.1121 1887.43 26.1121 Q1894.52 26.1121 1898.37 31.0947 Q1902.22 36.0368 1902.22 45.1919 L1902.22 72.576 L1894.72 72.576 L1894.72 45.4349 Q1894.72 38.913 1892.41 35.7533 Q1890.1 32.5936 1885.37 32.5936 Q1879.57 32.5936 1876.21 36.4419 Q1872.85 40.2903 1872.85 46.9338 L1872.85 72.576 L1865.35 72.576 L1865.35 45.4349 Q1865.35 38.8725 1863.04 35.7533 Q1860.74 32.5936 1855.92 32.5936 Q1850.2 32.5936 1846.84 36.4824 Q1843.48 40.3308 1843.48 46.9338 L1843.48 72.576 L1835.98 72.576 L1835.98 27.2059 L1843.48 27.2059 L1843.48 34.2544 Q1846.03 30.082 1849.6 28.0971 Q1853.16 26.1121 1858.06 26.1121 Q1863 26.1121 1866.45 28.6237 Q1869.93 31.1352 1871.59 35.9153 Z" fill="#000000" fill-rule="evenodd" fill-opacity="1" /><path clip-path="url(#clip230)" d="M 0 0 M1955.89 48.0275 L1955.89 51.6733 L1921.62 51.6733 Q1922.11 59.3701 1926.24 63.421 Q1930.41 67.4314 1937.82 67.4314 Q1942.12 67.4314 1946.13 66.3781 Q1950.18 65.3249 1954.15 63.2184 L1954.15 70.267 Q1950.14 71.9684 1945.93 72.8596 Q1941.71 73.7508 1937.38 73.7508 Q1926.52 73.7508 1920.16 67.4314 Q1913.84 61.1119 1913.84 50.3365 Q1913.84 39.1965 1919.84 32.6746 Q1925.87 26.1121 1936.08 26.1121 Q1945.24 26.1121 1950.54 32.0264 Q1955.89 37.9003 1955.89 48.0275 M1948.44 45.84 Q1948.36 39.7232 1944.99 36.0774 Q1941.67 32.4315 1936.16 32.4315 Q1929.93 32.4315 1926.16 35.9558 Q1922.43 39.4801 1921.86 45.8805 L1948.44 45.84 Z" fill="#000000" fill-rule="evenodd" fill-opacity="1" /><polyline clip-path="url(#clip232)" style="stroke:#009af9; stroke-width:4; stroke-opacity:1; fill:none" points="
  393.994,1293.29 394.898,1299.77 395.803,1251.88 396.707,753.921 397.611,1060.91 398.515,940.839 399.42,824.568 400.324,1104.51 401.228,964.421 402.132,1039.32 
  403.037,1015.88 403.941,1074.44 404.845,1171.97 405.749,584.007 406.654,1212.56 407.558,1280.53 408.462,772.522 409.366,1288.16 410.271,1123.71 411.175,1191.55 
  412.079,1148.2 412.983,1128.88 413.888,1265.53 414.792,1312.68 415.696,1181.29 416.6,941.73 417.505,1097.56 418.409,1285.16 419.313,850.485 420.217,1319.65 
  421.122,1204.06 422.026,1209.99 422.93,1299.16 423.835,1182.91 424.739,1210.3 425.643,1315.89 426.547,780.773 427.452,1034.43 428.356,1102.36 429.26,849.224 
  430.164,1222.72 431.069,1250.3 431.973,1062.14 432.877,940.587 433.781,1238.9 434.686,774.366 435.59,911.351 436.494,1064.81 437.398,1193.51 438.303,1172.47 
  439.207,1110.66 440.111,1110.79 441.015,983.076 441.92,1311.04 442.824,1135.9 443.728,1269.62 444.632,994.021 445.537,696.637 446.441,955.198 447.345,784.261 
  448.249,1299.11 449.154,1235.68 450.058,1186.5 450.962,1255.68 451.866,1307.91 452.771,1224.27 453.675,739.658 454.579,1073.55 455.483,1284.19 456.388,969.696 
  457.292,1087.02 458.196,1168.24 459.1,1144.53 460.005,1189.82 460.909,1308.78 461.813,1193.29 462.717,1272.27 463.622,1306.63 464.526,963.481 465.43,744.251 
  466.334,1320.47 467.239,1268.21 468.143,826.666 469.047,1060.78 469.951,1311.41 470.856,1206.06 471.76,1120.54 472.664,1324.74 473.568,692.215 474.473,1110.54 
  475.377,1222.02 476.281,562.479 477.185,992.292 478.09,1161.67 478.994,1269.78 479.898,1245.8 480.802,1163.96 481.707,1199.45 482.611,1089.88 483.515,864.403 
  484.419,1167.91 485.324,1161.72 486.228,1132.41 487.132,1176.86 488.036,1263 488.941,1114.03 489.845,905.295 490.749,973.342 491.654,1228.35 492.558,832.718 
  493.462,923.346 494.366,1116.75 495.271,1259.9 496.175,1178.75 497.079,1228.2 497.983,1098.34 498.888,940.479 499.792,1010.98 500.696,1309.58 501.6,1211.58 
  502.505,1260.69 503.409,863.079 504.313,334.251 505.217,1296.99 506.122,1273.24 507.026,1055.65 507.93,1271.89 508.834,1276.57 509.739,1319.57 510.643,1165.96 
  511.547,798.233 512.451,1307.32 513.356,877.316 514.26,1206.31 515.164,1216.41 516.068,1245.39 516.973,1305.61 517.877,1304.99 518.781,1189.31 519.685,692.951 
  520.59,1118.74 521.494,991.598 522.398,872.084 523.302,1144.56 524.207,1090.06 525.111,1149.62 526.015,1247.29 526.919,1293.95 527.824,908.834 528.728,1168.82 
  529.632,1274.28 530.536,1108.08 531.441,785.678 532.345,950.384 533.249,1134.88 534.153,562.592 535.058,946.679 535.962,1282.41 536.866,1289.13 537.77,1271.63 
  538.675,1246.31 539.579,1093.41 540.483,930.393 541.387,343.519 542.292,1273.26 543.196,1243.04 544.1,1298.3 545.004,1272.15 545.909,1308.05 546.813,1181.17 
  547.717,1235.51 548.621,1259.34 549.526,1155.09 550.43,1235.33 551.334,1217.01 552.238,870.155 553.143,1225.28 554.047,1235.42 554.951,1143.4 555.855,792.393 
  556.76,1301.19 557.664,1315.96 558.568,1277.89 559.472,1285.9 560.377,1105.22 561.281,708.641 562.185,476.807 563.09,1049 563.994,925.889 564.898,1145.61 
  565.802,1250.97 566.707,1232.39 567.611,718.563 568.515,1268.54 569.419,1209.28 570.324,960.622 571.228,761.99 572.132,1269.38 573.036,1246.82 573.941,1282.62 
  574.845,1257.41 575.749,1295.08 576.653,670.072 577.558,1005.58 578.462,1272.95 579.366,1269.37 580.27,1088.25 581.175,1150.94 582.079,1264.13 582.983,1276.95 
  583.887,1283.7 584.792,931.735 585.696,935.199 586.6,1152.18 587.504,1249.32 588.409,1131.55 589.313,1172.86 590.217,1320.14 591.121,439.188 592.026,513.566 
  592.93,1163.35 593.834,1117.82 594.738,1190.93 595.643,1179.02 596.547,1243.7 597.451,1088.37 598.355,1310.57 599.26,703.293 600.164,1223.33 601.068,1053.86 
  601.972,1258.46 602.877,1324.73 603.781,1109.33 604.685,1032.67 605.589,1279.16 606.494,497.084 607.398,956.68 608.302,1300.64 609.206,1289.39 610.111,1166.65 
  611.015,1180.43 611.919,1187.44 612.823,1258.6 613.728,1254.56 614.632,1087.78 615.536,711.87 616.44,1307.65 617.345,1252.08 618.249,1294.88 619.153,909.17 
  620.057,1160.07 620.962,1174.58 621.866,432.755 622.77,1154.21 623.674,1319.92 624.579,1252.17 625.483,712.712 626.387,1269.73 627.291,915.573 628.196,1204.02 
  629.1,1113.48 630.004,831.07 630.909,1288.66 631.813,1315.2 632.717,1309.48 633.621,1209.31 634.526,536.921 635.43,1241 636.334,675.202 637.238,1157.52 
  638.143,1294.27 639.047,1324.83 639.951,1221.35 640.855,1174.99 641.76,1257.9 642.664,920.486 643.568,1183.51 644.472,1248.04 645.377,1265.27 646.281,1283.3 
  647.185,840.535 648.089,989.567 648.994,1170.42 649.898,844.114 650.802,947.425 651.706,1239.11 652.611,1232.3 653.515,1195.8 654.419,1076.87 655.323,599.43 
  656.228,1202.56 657.132,1251.13 658.036,1140.51 658.94,1185.56 659.845,1227 660.749,1225.7 661.653,1219.83 662.557,1168.97 663.462,1225.34 664.366,321.022 
  665.27,1160.5 666.174,1131.58 667.079,1274.66 667.983,1201.58 668.887,1310.69 669.791,1097.09 670.696,1185.26 671.6,1191.4 672.504,1040.2 673.408,1038.26 
  674.313,1249.56 675.217,1275.24 676.121,843.045 677.025,909.901 677.93,805.875 678.834,461.502 679.738,1209.4 680.642,1265.52 681.547,1080.61 682.451,1221.42 
  683.355,1236.94 684.259,1294.88 685.164,813.287 686.068,1206.96 686.972,1061.48 687.876,1168.9 688.781,1100.53 689.685,1157.1 690.589,1081.4 691.493,1271.28 
  692.398,1143.3 693.302,1266.24 694.206,725.793 695.11,1080.18 696.015,1282.85 696.919,1231.1 697.823,1064.15 698.728,1289.33 699.632,972.139 700.536,984.829 
  701.44,1274.98 702.345,932.97 703.249,1245.97 704.153,1242.31 705.057,1314.63 705.962,1285.46 706.866,850.794 707.77,926.164 708.674,715.678 709.579,973.909 
  710.483,1208.62 711.387,1319.26 712.291,1274.25 713.196,804.019 714.1,1299.75 715.004,1157.69 715.908,1272.04 716.813,1132.48 717.717,703.619 718.621,982.357 
  719.525,1083.54 720.43,1174.72 721.334,1133.92 722.238,899.152 723.142,1232.36 724.047,891.888 724.951,1286.75 725.855,1310.88 726.759,1088.34 727.664,925.405 
  728.568,1259.82 729.472,876.315 730.376,1014.61 731.281,1276.59 732.185,1248.47 733.089,1278.51 733.993,1034.44 734.898,962.492 735.802,1307.09 736.706,1239.18 
  737.61,918.985 738.515,912.524 739.419,1180.6 740.323,1198.98 741.227,1074.45 742.132,1246.39 743.036,1230.7 743.94,1205.28 744.844,1173.68 745.749,1151.31 
  746.653,1128.66 747.557,1096.84 748.461,811.576 749.366,1020.09 750.27,800.621 751.174,1250.49 752.078,1263.72 752.983,1079.42 753.887,1265.47 754.791,1305.57 
  755.695,1319.63 756.6,1144.41 757.504,816.921 758.408,1137.6 759.312,1044.97 760.217,1015.37 761.121,1287.09 762.025,1262.72 762.929,989.645 763.834,548.881 
  764.738,993.288 765.642,694.706 766.547,1024.76 767.451,1317.04 768.355,1248.11 769.259,1301.53 770.164,680.491 771.068,1225.98 771.972,1228.6 772.876,1161.6 
  773.781,1209.94 774.685,1247.06 775.589,1166.01 776.493,529.158 777.398,1120.57 778.302,1045.83 779.206,1169.86 780.11,1289.51 781.015,1047.69 781.919,1300.52 
  782.823,1317.69 783.727,1268.74 784.632,956.423 785.536,1274.25 786.44,1185.55 787.344,922.507 788.249,1057.09 789.153,1196.61 790.057,1219.65 790.961,1262.59 
  791.866,1321.59 792.77,1066.9 793.674,989.905 794.578,827.38 795.483,914.208 796.387,867.012 797.291,1288.84 798.195,1115.7 799.1,1214.19 800.004,1211.24 
  800.908,910.745 801.812,1294.37 802.717,1296.99 803.621,1294.96 804.525,423.724 805.429,1130.13 806.334,1160.8 807.238,675.644 808.142,1138.35 809.046,825.894 
  809.951,1299.18 810.855,1154.8 811.759,966.047 812.663,1269.09 813.568,1025.02 814.472,741.382 815.376,1306.8 816.28,1276.7 817.185,1122.44 818.089,1089.19 
  818.993,1317.69 819.897,1258.38 820.802,1022.31 821.706,1186.41 822.61,1298.94 823.514,1235.26 824.419,1106.87 825.323,858.945 826.227,1300.98 827.131,1213.95 
  828.036,1221.65 828.94,1251.99 829.844,1143.13 830.748,1293.19 831.653,1273.33 832.557,1153.13 833.461,1016.27 834.365,858.934 835.27,552.638 836.174,1134.04 
  837.078,1228.35 837.983,879.919 838.887,1165.3 839.791,1047.76 840.695,958.134 841.6,1211.24 842.504,1126.4 843.408,1218.75 844.312,486.199 845.217,1298.25 
  846.121,1247.61 847.025,1218.4 847.929,1262.3 848.834,1316.4 849.738,1049.02 850.642,501.29 851.546,1066.15 852.451,1128.79 853.355,1131.64 854.259,1256.06 
  855.163,1241.73 856.068,1317.5 856.972,1039.71 857.876,913.903 858.78,1247.04 859.685,1298.35 860.589,1152.85 861.493,914.359 862.397,1245.9 863.302,1278.83 
  864.206,478.255 865.11,1062.81 866.014,1146.11 866.919,1184.76 867.823,1281.37 868.727,1093.7 869.631,1246.93 870.536,1023.1 871.44,1115.17 872.344,543.906 
  873.248,1188.87 874.153,995.782 875.057,1305.23 875.961,1256.82 876.865,1254.58 877.77,1295.92 878.674,1318.38 879.578,887.839 880.482,745.189 881.387,1139.14 
  882.291,1182.26 883.195,1003.4 884.099,1211.84 885.004,1292.13 885.908,1163.9 886.812,1019.58 887.716,1143.15 888.621,1127.99 889.525,1238.4 890.429,1283.87 
  891.333,1043.86 892.238,601.44 893.142,1294.6 894.046,1301.95 894.95,832.209 895.855,1145.7 896.759,1019.26 897.663,1235.34 898.567,676.419 899.472,1057.16 
  900.376,1117.19 901.28,1101.09 902.184,611.041 903.089,1059.88 903.993,1208.19 904.897,1299.99 905.802,1272.57 906.706,1190.55 907.61,844.012 908.514,1238.71 
  909.419,1058.72 910.323,1091.52 911.227,1286.32 912.131,1235.64 913.036,1277.01 913.94,1262.8 914.844,1321.93 915.748,1284.01 916.653,1208.01 917.557,1146.99 
  918.461,1297.6 919.365,1173.85 920.27,778.777 921.174,1058.45 922.078,997.012 922.982,873.756 923.887,1261.05 924.791,1284.57 925.695,1188.58 926.599,1157.06 
  927.504,591.017 928.408,816.071 929.312,1304.25 930.216,911.605 931.121,1304.31 932.025,572.169 932.929,1151.72 933.833,1297.7 934.738,1108.06 935.642,1288.8 
  936.546,1159.58 937.45,389.009 938.355,1033.36 939.259,1233.35 940.163,1317.13 941.067,1232.53 941.972,1281.74 942.876,1251.04 943.78,1113.2 944.684,1124.01 
  945.589,1296.66 946.493,1076.91 947.397,1254.73 948.301,1101.42 949.206,915.721 950.11,1103.67 951.014,1100.16 951.918,1111.53 952.823,963.411 953.727,1140.12 
  954.631,1278.78 955.535,1019.26 956.44,1302.34 957.344,1247.28 958.248,351.208 959.152,1292.87 960.057,925.472 960.961,1078.03 961.865,1307.71 962.769,1114.64 
  963.674,1283.48 964.578,1157.39 965.482,1045.53 966.386,1314.15 967.291,216.774 968.195,973.087 969.099,1291.38 970.003,1318.41 970.908,1194.55 971.812,1278.64 
  972.716,1048.74 973.621,682.646 974.525,1253.92 975.429,1215 976.333,1316.15 977.238,1156.54 978.142,1191.95 979.046,1112.58 979.95,1010.14 980.855,1315.55 
  981.759,1143.48 982.663,1250.29 983.567,843.063 984.472,1149.29 985.376,1145.13 986.28,675.607 987.184,1234.1 988.089,1139.04 988.993,1265.8 989.897,870.32 
  990.801,986.733 991.706,1313.38 992.61,1272.8 993.514,1198.87 994.418,959.752 995.323,619.123 996.227,1256.5 997.131,736.462 998.035,1139.35 998.94,1280.87 
  999.844,1271.84 1000.75,1141.73 1001.65,1321.54 1002.56,1031.29 1003.46,938.15 1004.37,1186.95 1005.27,1320.96 1006.17,1320.57 1007.08,804.534 1007.98,807.294 
  1008.89,1322.54 1009.79,1233.42 1010.69,1314.42 1011.6,1278.07 1012.5,907.027 1013.41,1110.99 1014.31,1081.59 1015.22,899.506 1016.12,1053.76 1017.02,1215.13 
  1017.93,953.09 1018.83,1320.14 1019.74,1257.63 1020.64,1041.06 1021.55,946.504 1022.45,1227.57 1023.35,1049.61 1024.26,1283.98 1025.16,872.736 1026.07,1032.92 
  1026.97,1126.66 1027.88,1280.06 1028.78,1221.16 1029.68,1194.1 1030.59,801.887 1031.49,1099.55 1032.4,1195.14 1033.3,862.226 1034.21,1271.61 1035.11,1306.29 
  1036.01,1135.9 1036.92,875.502 1037.82,888.27 1038.73,1091.5 1039.63,1185.72 1040.54,967.984 1041.44,1313.24 1042.34,1106.83 1043.25,390.605 1044.15,1288.25 
  1045.06,1305.62 1045.96,903.349 1046.87,1271.36 1047.77,1290.65 1048.67,1082.29 1049.58,1196.04 1050.48,1293.88 1051.39,1032.02 1052.29,1086.93 1053.19,1030.83 
  1054.1,1228.3 1055,936.559 1055.91,1200.81 1056.81,1260.71 1057.72,1151.19 1058.62,1196.51 1059.52,1227.75 1060.43,435.376 1061.33,838.331 1062.24,1264.71 
  1063.14,1193.16 1064.05,1285.4 1064.95,1319.88 1065.85,1312.07 1066.76,982.475 1067.66,1212.3 1068.57,1046.33 1069.47,991.992 1070.38,1027.01 1071.28,761.388 
  1072.18,1220.57 1073.09,1019.21 1073.99,1000.13 1074.9,1204.86 1075.8,1323.92 1076.71,1295.73 1077.61,1085.21 1078.51,1300.91 1079.42,1205.51 1080.32,1237.4 
  1081.23,373.994 1082.13,821.113 1083.04,1215.82 1083.94,1062.74 1084.84,1208.33 1085.75,1227.65 1086.65,1288.54 1087.56,1052.83 1088.46,1107.45 1089.36,1316.35 
  1090.27,650.808 1091.17,763.277 1092.08,1314.95 1092.98,1197.98 1093.89,1107.37 1094.79,997.901 1095.69,1313.53 1096.6,1151.98 1097.5,1280.03 1098.41,1312.6 
  1099.31,1183.36 1100.22,897.021 1101.12,687.811 1102.02,1231.13 1102.93,989.083 1103.83,1291.17 1104.74,1308.04 1105.64,1206.88 1106.55,1237.97 1107.45,1227.63 
  1108.35,1168.42 1109.26,998.593 1110.16,1305.02 1111.07,774.437 1111.97,795.443 1112.88,1274.54 1113.78,1127.43 1114.68,1205.23 1115.59,1252.37 1116.49,1259.2 
  1117.4,849.651 1118.3,1069.31 1119.21,1264.48 1120.11,1034.8 1121.01,975.459 1121.92,1324.43 1122.82,1204.15 1123.73,640.225 1124.63,1042.54 1125.54,1062.94 
  1126.44,1043.3 1127.34,1027.66 1128.25,1177.14 1129.15,1273.79 1130.06,597.574 1130.96,579.939 1131.86,1183.33 1132.77,1316.97 1133.67,1174.94 1134.58,1237.36 
  1135.48,1270.19 1136.39,1321.39 1137.29,1173.92 1138.19,1136.02 1139.1,1116.15 1140,1007.39 1140.91,1029.09 1141.81,1118.53 1142.72,1212.42 1143.62,1215.79 
  1144.52,968.328 1145.43,927.274 1146.33,1309.02 1147.24,1090.93 1148.14,1162.34 1149.05,1100.8 1149.95,1287.98 1150.85,1265.87 1151.76,1290.45 1152.66,1255.48 
  1153.57,854.924 1154.47,1017.15 1155.38,1128.75 1156.28,588.711 1157.18,1232.24 1158.09,1120.88 1158.99,1064 1159.9,1138.15 1160.8,813.224 1161.71,1247.92 
  1162.61,1124.26 1163.51,1304.62 1164.42,1158.7 1165.32,1268.37 1166.23,954.242 1167.13,1310.12 1168.03,1271.68 1168.94,231.691 1169.84,1064.99 1170.75,1286.34 
  1171.65,927.2 1172.56,1229.21 1173.46,1320.24 1174.36,1046.39 1175.27,300.798 1176.17,1307.98 1177.08,1110.98 1177.98,1219.74 1178.89,1153.98 1179.79,1286.66 
  1180.69,1225.33 1181.6,1072.17 1182.5,1304.87 1183.41,952.396 1184.31,1173.03 1185.22,1208.6 1186.12,1087.2 1187.02,1119.14 1187.93,1249.03 1188.83,1195.48 
  1189.74,1105.23 1190.64,1135.27 1191.55,1258.19 1192.45,1300.87 1193.35,1196.12 1194.26,1183.56 1195.16,1035.35 1196.07,1110.49 1196.97,882.994 1197.88,1215 
  1198.78,1087.45 1199.68,734.145 1200.59,1205.24 1201.49,1201.6 1202.4,1207.31 1203.3,1094.07 1204.21,908.607 1205.11,326.266 1206.01,1253.31 1206.92,1283.79 
  1207.82,1267.01 1208.73,1279.08 1209.63,1237.07 1210.53,831.77 1211.44,899.54 1212.34,1323.36 1213.25,1103.53 1214.15,876.017 1215.06,1063.06 1215.96,1152.09 
  1216.86,918.029 1217.77,813.963 1218.67,1323.51 1219.58,1140.6 1220.48,1254.05 1221.39,1257.52 1222.29,1277.08 1223.19,1280.21 1224.1,1233.57 1225,1311.02 
  1225.91,498.625 1226.81,1018.78 1227.72,1121.62 1228.62,1175.82 1229.52,1305.26 1230.43,1151.84 1231.33,1048.63 1232.24,1110.54 1233.14,1036.67 1234.05,1204.83 
  1234.95,797.541 1235.85,1268.53 1236.76,1244.78 1237.66,1140.56 1238.57,1188.73 1239.47,1297.14 1240.38,648.096 1241.28,936.129 1242.18,1306.61 1243.09,1084.24 
  1243.99,962.983 1244.9,1255.43 1245.8,1030.22 1246.7,797.372 1247.61,1102.75 1248.51,1218.49 1249.42,1150.15 1250.32,1245.36 1251.23,1280.88 1252.13,1184.83 
  1253.03,1299.99 1253.94,796.579 1254.84,1321.56 1255.75,1162.5 1256.65,361.304 1257.56,1270.79 1258.46,1070.56 1259.36,1118.78 1260.27,1274.01 1261.17,1295.05 
  1262.08,1234.54 1262.98,274.788 1263.89,1254.25 1264.79,1168 1265.69,1199.84 1266.6,1314.54 1267.5,881.431 1268.41,806.173 1269.31,1300.87 1270.22,868.662 
  1271.12,1190.58 1272.02,1200.12 1272.93,1251.38 1273.83,1268.3 1274.74,1291.64 1275.64,1283.03 1276.55,995.745 1277.45,970.602 1278.35,1294.45 1279.26,1184.12 
  1280.16,1174.02 1281.07,1312.22 1281.97,1228.12 1282.88,1254.13 1283.78,867.317 1284.68,739.454 1285.59,1148.8 1286.49,1152.85 1287.4,1113.8 1288.3,1288.67 
  1289.2,669.439 1290.11,1277.66 1291.01,1070.19 1291.92,1037.37 1292.82,980.378 1293.73,952.856 1294.63,1308.95 1295.53,1207.96 1296.44,1314.47 1297.34,1167.29 
  1298.25,341.728 1299.15,1132.1 1300.06,1066.49 1300.96,1306.78 1301.86,1062.36 1302.77,1081.25 1303.67,1063.68 1304.58,975.04 1305.48,1278.65 1306.39,989.999 
  1307.29,1188.9 1308.19,1314.18 1309.1,1262.93 1310,1296.89 1310.91,1152.64 1311.81,1259.24 1312.72,837.302 1313.62,645.673 1314.52,1048.07 1315.43,1039.76 
  1316.33,1215.86 1317.24,1136.63 1318.14,1280.91 1319.05,1206.47 1319.95,881.512 1320.85,1258.76 1321.76,1244.49 1322.66,1109.79 1323.57,1299.48 1324.47,1278.56 
  1325.38,959.688 1326.28,996.855 1327.18,1286.63 1328.09,512.979 1328.99,1076.93 1329.9,1202.24 1330.8,1320.21 1331.7,1174.3 1332.61,1087.96 1333.51,514.611 
  1334.42,899.261 1335.32,1323.49 1336.23,1175.16 1337.13,1070.14 1338.03,1283.47 1338.94,1270.28 1339.84,1129.62 1340.75,1279.1 1341.65,988.681 1342.56,1172.13 
  1343.46,595.227 1344.36,967.336 1345.27,1320.62 1346.17,1162.42 1347.08,1210.31 1347.98,871.938 1348.89,1269.42 1349.79,1273.13 1350.69,1007.43 1351.6,1198.29 
  1352.5,1231.18 1353.41,1291.69 1354.31,803.13 1355.22,1051.69 1356.12,1071.57 1357.02,1206.13 1357.93,914.704 1358.83,1166.88 1359.74,1230.05 1360.64,1246.63 
  1361.55,1180.7 1362.45,1292.94 1363.35,704.204 1364.26,723.909 1365.16,1269.38 1366.07,1145.32 1366.97,1321.34 1367.87,1267.7 1368.78,1140.89 1369.68,970.78 
  1370.59,1223.12 1371.49,1010.48 1372.4,978.702 1373.3,1129.48 1374.2,736.499 1375.11,1324.55 1376.01,1246.47 1376.92,811.168 1377.82,1063.96 1378.73,1133.71 
  1379.63,1065.75 1380.53,1323.1 1381.44,1199.46 1382.34,1279.09 1383.25,1284.9 1384.15,1055.59 1385.06,1023.22 1385.96,947.161 1386.86,1209.86 1387.77,1114.17 
  1388.67,1265.62 1389.58,1279.53 1390.48,1096.91 1391.39,817.144 1392.29,1263.47 1393.19,923.642 1394.1,1015.41 1395,1305.76 1395.91,1231.93 1396.81,1281.65 
  1397.72,1206.33 1398.62,1145.56 1399.52,557.123 1400.43,457.888 1401.33,1180.77 1402.24,1198.23 1403.14,914.005 1404.05,1190.55 1404.95,829.874 1405.85,1238.36 
  1406.76,1230.9 1407.66,725.898 1408.57,1321.87 1409.47,1314.29 1410.37,1272.69 1411.28,1243.87 1412.18,1012.09 1413.09,1125.37 1413.99,962.476 1414.9,1304.08 
  1415.8,1204.67 1416.7,1091.26 1417.61,1269.55 1418.51,1201.02 1419.42,1271.17 1420.32,1140.05 1421.23,624.486 1422.13,1069.88 1423.03,1208.3 1423.94,1117.65 
  1424.84,1277.51 1425.75,1210.13 1426.65,1189.88 1427.56,1201.81 1428.46,990.999 1429.36,625.733 1430.27,995.561 1431.17,882.956 1432.08,1296.7 1432.98,1322.66 
  1433.89,1064.37 1434.79,1096.88 1435.69,573.327 1436.6,1302.36 1437.5,1236.27 1438.41,1237.57 1439.31,981.01 1440.22,1240.27 1441.12,1265.68 1442.02,579.408 
  1442.93,1074.07 1443.83,1323.41 1444.74,1180.28 1445.64,1158.54 1446.54,1283.32 1447.45,1165.68 1448.35,760.108 1449.26,1252.3 1450.16,1224.14 1451.07,897.211 
  1451.97,1033.11 1452.87,1273.98 1453.78,1308.78 1454.68,1166.98 1455.59,1233.3 1456.49,842.194 1457.4,1105.9 1458.3,1198.32 1459.2,812.393 1460.11,1173.4 
  1461.01,1185.02 1461.92,988.746 1462.82,1107.43 1463.73,1198.16 1464.63,1135.58 1465.53,1051.17 1466.44,955.561 1467.34,1210.56 1468.25,1183.88 1469.15,1164.72 
  1470.06,1288.59 1470.96,1059.98 1471.86,957.099 1472.77,938.159 1473.67,1216.79 1474.58,1262.86 1475.48,1134.16 1476.39,1279.53 1477.29,1050.94 1478.19,778.304 
  1479.1,1279.17 1480,1254.58 1480.91,1217.69 1481.81,1207.25 1482.72,1314.47 1483.62,1270.64 1484.52,1095.17 1485.43,1176.71 1486.33,731.698 1487.24,254.823 
  1488.14,969.301 1489.04,1270.37 1489.95,1138.96 1490.85,1208.5 1491.76,1048.14 1492.66,846.257 1493.57,989.662 1494.47,1116.58 1495.37,1121.17 1496.28,1288.43 
  1497.18,1057.46 1498.09,1252.35 1498.99,803.802 1499.9,1076.28 1500.8,1281.65 1501.7,1075.09 1502.61,1161.3 1503.51,1162.84 1504.42,1287.16 1505.32,1230.15 
  1506.23,1075.09 1507.13,1288.89 1508.03,691.678 1508.94,1282.42 1509.84,1203.29 1510.75,1236.45 1511.65,1312.46 1512.56,1300.35 1513.46,1243.09 1514.36,987.133 
  1515.27,1322.65 1516.17,594.433 1517.08,717.105 1517.98,1184.12 1518.89,1247.22 1519.79,1313.02 1520.69,1199.72 1521.6,1265.96 1522.5,510.165 1523.41,879.766 
  1524.31,1318.77 1525.22,1234.27 1526.12,985.77 1527.02,903.744 1527.93,1280.35 1528.83,1047.47 1529.74,980.938 1530.64,909.832 1531.54,1194.07 1532.45,1255.21 
  1533.35,1060.84 1534.26,1311.93 1535.16,910.698 1536.07,455.271 1536.97,1206.16 1537.87,1099.55 1538.78,1307.74 1539.68,1216.47 1540.59,1113.91 1541.49,1113.42 
  1542.4,1232.4 1543.3,1230.42 1544.2,1109.15 1545.11,1218.14 1546.01,1059.2 1546.92,964.329 1547.82,1316.35 1548.73,1239.49 1549.63,1308.75 1550.53,1165.09 
  1551.44,1157.75 1552.34,1070.17 1553.25,1122.81 1554.15,1172.46 1555.06,1300.78 1555.96,1250.17 1556.86,459.694 1557.77,1193.32 1558.67,1151.77 1559.58,1183.78 
  1560.48,1279.73 1561.39,855.346 1562.29,764.125 1563.19,1319.46 1564.1,1298.52 1565,986.308 1565.91,665.549 1566.81,1136.56 1567.71,1172.64 1568.62,1252.34 
  1569.52,1298.41 1570.43,1103.19 1571.33,706.657 1572.24,1119.16 1573.14,1242.95 1574.04,1027.45 1574.95,861.751 1575.85,1190.58 1576.76,1236.58 1577.66,1061.35 
  1578.57,1205.13 1579.47,922.388 1580.37,1074.12 1581.28,1214 1582.18,919.459 1583.09,1302.82 1583.99,1315.33 1584.9,1081.69 1585.8,1089.34 1586.7,940.27 
  1587.61,947.752 1588.51,1311.84 1589.42,1077.7 1590.32,977.746 1591.23,1275.74 1592.13,1188.87 1593.03,1214.06 1593.94,1066.36 1594.84,1251.04 1595.75,849.274 
  1596.65,1187.14 1597.56,1319.96 1598.46,881.513 1599.36,1197.46 1600.27,1259.98 1601.17,667.056 1602.08,1129.69 1602.98,1188.79 1603.89,1218.56 1604.79,1170.31 
  1605.69,1201.85 1606.6,1209.55 1607.5,1083.25 1608.41,1188.9 1609.31,858.524 1610.21,412.136 1611.12,1235.86 1612.02,1267.97 1612.93,1174.56 1613.83,1194.44 
  1614.74,1228.77 1615.64,1286.99 1616.54,947.226 1617.45,1303.74 1618.35,966.714 1619.26,1164.38 1620.16,550.71 1621.07,987.94 1621.97,1199.24 1622.87,1175.32 
  1623.78,1084.72 1624.68,796.328 1625.59,1297.89 1626.49,1239.37 1627.4,1279.48 1628.3,986.964 1629.2,830.063 1630.11,1303.43 1631.01,773.134 1631.92,1245.18 
  1632.82,1150.99 1633.73,1276.73 1634.63,1285.65 1635.53,1307.76 1636.44,1233.9 1637.34,1169.13 1638.25,1261.43 1639.15,895.872 1640.06,1078.04 1640.96,1305.53 
  1641.86,924.889 1642.77,1248.91 1643.67,1253.35 1644.58,915.544 1645.48,1307.45 1646.38,1307.33 1647.29,1238.69 1648.19,1067.66 1649.1,746.239 1650,536.294 
  1650.91,839.31 1651.81,1307.71 1652.71,1152.27 1653.62,1103.12 1654.52,1071.9 1655.43,1238.7 1656.33,1210.44 1657.24,1260.96 1658.14,999.164 1659.04,690.592 
  1659.95,1187.39 1660.85,1039.6 1661.76,1304.78 1662.66,1141.97 1663.57,1122.57 1664.47,798.028 1665.37,1173.69 1666.28,1242.42 1667.18,1209.82 1668.09,1214.02 
  1668.99,1046.58 1669.9,1072.58 1670.8,1222.4 1671.7,1226.29 1672.61,740.353 1673.51,1100.2 1674.42,1290.71 1675.32,1223.67 1676.23,1275.65 1677.13,1044.16 
  1678.03,822.303 1678.94,1173.9 1679.84,819.235 1680.75,908.569 1681.65,1162.29 1682.56,1215.06 1683.46,1245.76 1684.36,1069.61 1685.27,1096.72 1686.17,1189.26 
  1687.08,1282.36 1687.98,1323.01 1688.88,926.378 1689.79,1068.72 1690.69,1181.76 1691.6,1288.47 1692.5,1192.15 1693.41,1108.34 1694.31,569.128 1695.21,900.775 
  1696.12,1225.11 1697.02,933.536 1697.93,1049.27 1698.83,1181.64 1699.74,1257.43 1700.64,1277.15 1701.54,1138.45 1702.45,1180.88 1703.35,1119.86 1704.26,1277.69 
  1705.16,910.553 1706.07,1146.71 1706.97,1309.73 1707.87,250.816 1708.78,960.705 1709.68,1298.85 1710.59,1083.5 1711.49,1318.33 1712.4,698.428 1713.3,1226.91 
  1714.2,1310.49 1715.11,1199.74 1716.01,978.586 1716.92,1238.29 1717.82,1307.82 1718.73,895.379 1719.63,1236.58 1720.53,1262.59 1721.44,1090.51 1722.34,1080.63 
  1723.25,1293.65 1724.15,782.734 1725.05,1138.56 1725.96,1126.95 1726.86,1216.58 1727.77,1294.83 1728.67,1083.74 1729.58,1077.52 1730.48,1177.39 1731.38,1264.02 
  1732.29,1146.93 1733.19,1252.67 1734.1,1113.91 1735,994.808 1735.91,435.56 1736.81,1171.37 1737.71,1100.26 1738.62,599.549 1739.52,1298.76 1740.43,1216.43 
  1741.33,1265.84 1742.24,1147.49 1743.14,982.213 1744.04,1078.23 1744.95,936.631 1745.85,1189.73 1746.76,1250.09 1747.66,1153.49 1748.57,1186.71 1749.47,1283.2 
  1750.37,1318.32 1751.28,972.64 1752.18,818.106 1753.09,1268.09 1753.99,1178.75 1754.9,1232.4 1755.8,1224.09 1756.7,1218.79 1757.61,1198.57 1758.51,1118.35 
  1759.42,956.039 1760.32,703.183 1761.23,1307.88 1762.13,1270.76 1763.03,1270.43 1763.94,1214.06 1764.84,441.142 1765.75,701.893 1766.65,708.112 1767.55,1101.67 
  1768.46,1247.13 1769.36,1289.18 1770.27,1223.2 1771.17,1032.02 1772.08,1102.95 1772.98,1043.53 1773.88,1046.83 1774.79,1247.34 1775.69,1074.34 1776.6,1227.82 
  1777.5,1256.96 1778.41,1166.33 1779.31,1134.55 1780.21,1305.75 1781.12,873.985 1782.02,890.446 1782.93,1135.6 1783.83,1218.13 1784.74,1289.86 1785.64,1169.13 
  1786.54,1290.27 1787.45,1102.4 1788.35,1270.95 1789.26,1048.44 1790.16,1021.15 1791.07,1265.39 1791.97,1212.89 1792.87,691.212 1793.78,1265.66 1794.68,1248.36 
  1795.59,158.463 1796.49,1082.63 1797.4,1235.04 1798.3,1272.73 1799.2,1056.07 1800.11,1216.16 1801.01,1274.63 1801.92,1065.23 1802.82,1196.52 1803.73,455.411 
  1804.63,1236.47 1805.53,1245.58 1806.44,857.414 1807.34,1285.21 1808.25,932.145 1809.15,902.678 1810.05,1318.32 1810.96,1131.34 1811.86,1191.21 1812.77,1166.29 
  1813.67,1207.21 1814.58,1306.61 1815.48,1157.02 1816.38,1232.48 1817.29,1075.06 1818.19,1119.96 1819.1,1197.32 1820,1200.09 1820.91,1101.07 1821.81,1004.23 
  1822.71,994.378 1823.62,853.474 1824.52,1298.48 1825.43,1212 1826.33,932.496 1827.24,1317.08 1828.14,1176.52 1829.04,1213.47 1829.95,882.05 1830.85,1151.62 
  1831.76,1077.48 1832.66,1115.95 1833.57,951.065 1834.47,737.772 1835.37,1147.77 1836.28,1232.39 1837.18,1321.76 1838.09,1195.07 1838.99,546.139 1839.9,1316.39 
  1840.8,1171.03 1841.7,1293.86 1842.61,1302.16 1843.51,1242.02 1844.42,1179.73 1845.32,947.817 1846.22,1304.5 1847.13,800.916 1848.03,1088.85 1848.94,1321.52 
  1849.84,1301.99 1850.75,1099.46 1851.65,591.311 1852.55,734.495 1853.46,870.499 1854.36,1057.76 1855.27,1197.58 1856.17,1295.23 1857.08,1306.57 1857.98,1312.09 
  1858.88,794.392 1859.79,1220.07 1860.69,1161.67 1861.6,765.69 1862.5,1169.41 1863.41,1066.07 1864.31,1122.78 1865.21,1260.77 1866.12,1098.96 1867.02,905.26 
  1867.93,1203.44 1868.83,903.035 1869.74,1260.36 1870.64,1256.59 1871.54,1074.43 1872.45,1263.29 1873.35,1298.61 1874.26,1025.25 1875.16,1030.57 1876.07,1321.38 
  1876.97,1157.17 1877.87,1110.08 1878.78,1320.49 1879.68,1208.39 1880.59,912.353 1881.49,1142.79 1882.4,744.606 1883.3,638.766 1884.2,1285.31 1885.11,1310.28 
  1886.01,1314.11 1886.92,1079.58 1887.82,1292.86 1888.72,1268.9 1889.63,929.303 1890.53,1196.96 1891.44,718.999 1892.34,926.699 1893.25,785.44 1894.15,1141.8 
  1895.05,1205.42 1895.96,1117.1 1896.86,803.375 1897.77,952.013 1898.67,1128.15 1899.58,1281.23 1900.48,1261.62 1901.38,863.263 1902.29,926.101 1903.19,1312.1 
  1904.1,1026.28 1905,1064.61 1905.91,1236.35 1906.81,1288.02 1907.71,1300.43 1908.62,1013.46 1909.52,1262.03 1910.43,1299.88 1911.33,1252.17 1912.24,1214.1 
  1913.14,1020.36 1914.04,1318.53 1914.95,1033.52 1915.85,1198.44 1916.76,1309.3 1917.66,1173.65 1918.57,999.213 1919.47,1219.51 1920.37,1303.1 1921.28,766.607 
  1922.18,692.553 1923.09,1098.23 1923.99,1224.15 1924.89,1210.85 1925.8,1293.3 1926.7,582.726 1927.61,923.772 1928.51,1226.91 1929.42,1017.92 1930.32,1322.07 
  1931.22,898.94 1932.13,722.006 1933.03,1229.9 1933.94,1068.93 1934.84,1215.5 1935.75,1246.34 1936.65,1176.92 1937.55,1018.7 1938.46,813.995 1939.36,969.793 
  1940.27,1209.55 1941.17,1044.6 1942.08,1207.53 1942.98,1245.09 1943.88,1033.13 1944.79,1211.76 1945.69,1263.74 1946.6,1161.25 1947.5,1282.2 1948.41,1229.62 
  1949.31,797.946 1950.21,1140.56 1951.12,1235.11 1952.02,1188.39 1952.93,889.935 1953.83,1316.49 1954.74,887.606 1955.64,1161.26 1956.54,1296.53 1957.45,777.695 
  1958.35,1316.72 1959.26,1027.13 1960.16,1212.6 1961.07,1257.48 1961.97,579.082 1962.87,1170.74 1963.78,1145.32 1964.68,1282.46 1965.59,1299.18 1966.49,1245.37 
  1967.39,720.124 1968.3,764.773 1969.2,1186.69 1970.11,787.405 1971.01,1188.32 1971.92,1304.67 1972.82,1301.76 1973.72,1240.36 1974.63,829.532 1975.53,1312.56 
  1976.44,1324.66 1977.34,1256.03 1978.25,861.693 1979.15,1155.55 1980.05,1015.12 1980.96,697.06 1981.86,1290.42 1982.77,1168.04 1983.67,1289.4 1984.58,861.49 
  1985.48,665.581 1986.38,1299.74 1987.29,1224.5 1988.19,1251.98 1989.1,732.47 1990,1025.48 1990.91,1299.53 1991.81,816.646 1992.71,1191.73 1993.62,1240.99 
  1994.52,1127.73 1995.43,992.753 1996.33,1292.78 1997.24,1095.47 1998.14,1202.5 1999.04,1280.35 1999.95,1170.06 2000.85,1208.43 2001.76,1180.14 2002.66,1176.12 
  2003.56,1110.48 2004.47,1284.19 2005.37,1239.08 2006.28,1059.71 2007.18,1249.1 2008.09,1149 2008.99,704.898 2009.89,1290.68 2010.8,1150.93 2011.7,965.647 
  2012.61,909.065 2013.51,1249.96 2014.42,1161.54 2015.32,575.938 2016.22,942.781 2017.13,1163.7 2018.03,1143.1 2018.94,1175.3 2019.84,1164.13 2020.75,1150.03 
  2021.65,1043.72 2022.55,1265.34 2023.46,1284.6 2024.36,831.59 2025.27,416.411 2026.17,1117.76 2027.08,1261.81 2027.98,1151.56 2028.88,1210.92 2029.79,1271.22 
  2030.69,1221.75 2031.6,1026.88 2032.5,1185.52 2033.41,1292.23 2034.31,1108.79 2035.21,1211.41 2036.12,1137.36 2037.02,1033.65 2037.93,932.769 2038.83,1047.92 
  2039.74,1114.79 2040.64,1199.2 2041.54,1176.35 2042.45,1054.07 2043.35,980.465 2044.26,1162.87 2045.16,996.826 2046.06,1156.92 2046.97,1056.91 2047.87,1268.36 
  2048.78,1209.2 2049.68,1110.79 2050.59,1199.68 2051.49,1147.69 2052.39,1223.59 2053.3,1282.98 2054.2,875.884 2055.11,230.923 2056.01,1040.16 2056.92,1140.3 
  2057.82,1207.06 2058.72,1319.08 2059.63,1265.93 2060.53,1215.56 2061.44,887.075 2062.34,1169.04 2063.25,1200.78 2064.15,1322.56 2065.05,911.333 2065.96,727.294 
  2066.86,1289.88 2067.77,1278.62 2068.67,1029.02 2069.58,879.844 2070.48,1158.32 2071.38,1306.76 2072.29,943.707 2073.19,1103.13 2074.1,1231.89 2075,1210.6 
  2075.91,724.429 2076.81,825.244 2077.71,1285.43 2078.62,1224.66 2079.52,1179.83 2080.43,1121.37 2081.33,1235.11 2082.24,1087.49 2083.14,1154.94 2084.04,1172.16 
  2084.95,816.532 2085.85,1119.11 2086.76,1252.86 2087.66,1219.37 2088.56,1275.25 2089.47,1303.73 2090.37,1025.41 2091.28,870.224 2092.18,1290.09 2093.09,1276.2 
  2093.99,1144.6 2094.89,1171.06 2095.8,682.999 2096.7,1121.74 2097.61,1043.78 2098.51,1275.86 2099.42,1151.85 2100.32,768.229 2101.22,1168.71 2102.13,1248.57 
  2103.03,857.837 2103.94,1014.26 2104.84,1312.81 2105.75,1026.49 2106.65,771.518 2107.55,1295.96 2108.46,1144.01 2109.36,1120.52 2110.27,1315.02 2111.17,1173.35 
  2112.08,714.761 2112.98,1070.49 2113.88,1290.29 2114.79,1209.87 2115.69,1225.88 2116.6,1295.22 2117.5,1246.23 2118.41,846.837 2119.31,1301.11 2120.21,1126.8 
  2121.12,996.156 2122.02,1164.98 2122.93,1311.02 2123.83,985.465 2124.73,863.21 2125.64,1113.19 2126.54,733.933 2127.45,1027.42 2128.35,1031.79 2129.26,1074.61 
  2130.16,1247.45 2131.06,1174.45 2131.97,955.544 2132.87,1308.1 2133.78,1256.16 2134.68,807.103 2135.59,1226.14 2136.49,1118.16 2137.39,1113.43 2138.3,1169.79 
  2139.2,760.991 2140.11,1147.6 2141.01,1273.09 2141.92,891.28 2142.82,1180.91 2143.72,1233.3 2144.63,1248.47 2145.53,1291.07 2146.44,1323.35 2147.34,1110.45 
  2148.25,681.087 2149.15,1093.99 2150.05,1175.37 2150.96,1004.02 2151.86,1246.27 2152.77,1061.79 2153.67,1142.48 2154.58,1312.33 2155.48,1205.41 2156.38,1247.11 
  2157.29,462.239 2158.19,1087.95 2159.1,1112.62 2160,1097.33 2160.91,1280.12 2161.81,1251.95 2162.71,1157.39 2163.62,793.303 2164.52,1040.9 2165.43,1036.8 
  2166.33,1135.08 2167.23,1240.28 2168.14,1134.38 2169.04,916.596 2169.95,641.172 2170.85,1311.69 2171.76,931.405 2172.66,1315.7 2173.56,1266.5 2174.47,1171.46 
  2175.37,1296.44 2176.28,1284.35 2177.18,1109.51 2178.09,453.934 2178.99,1104.08 2179.89,1316.25 2180.8,1265.38 2181.7,1127.7 2182.61,1165.88 2183.51,1224.73 
  2184.42,1281.67 2185.32,1120.89 2186.22,1223.49 2187.13,1181.07 2188.03,595.264 2188.94,1110.6 2189.84,1153.22 2190.75,1290.15 2191.65,962.129 2192.55,1272.59 
  2193.46,1230.62 2194.36,726.347 2195.27,1242.28 2196.17,1320.69 2197.08,1208.18 2197.98,1154.7 2198.88,863.632 2199.79,565.562 2200.69,1157.7 2201.6,1247.22 
  2202.5,1196.66 
  "/>
</svg>
