<?xml version="1.0" encoding="utf-8"?>
<svg xmlns="http://www.w3.org/2000/svg" xmlns:xlink="http://www.w3.org/1999/xlink" width="576" height="384" viewBox="0 0 2304 1536">
<defs>
  <clipPath id="clip080">
    <rect x="0" y="0" width="2304" height="1536"/>
  </clipPath>
</defs>
<path clip-path="url(#clip080)" d="
M0 1536 L2304 1536 L2304 0 L0 0  Z
  " fill="#ffffff" fill-rule="evenodd" fill-opacity="1"/>
<defs>
  <clipPath id="clip081">
    <rect x="460" y="0" width="1614" height="1536"/>
  </clipPath>
</defs>
<path clip-path="url(#clip080)" d="
M339.739 1359.82 L2256.76 1359.82 L2256.76 123.472 L339.739 123.472  Z
  " fill="#ffffff" fill-rule="evenodd" fill-opacity="1"/>
<defs>
  <clipPath id="clip082">
    <rect x="339" y="123" width="1918" height="1237"/>
  </clipPath>
</defs>
<polyline clip-path="url(#clip082)" style="stroke:#000000; stroke-width:2; stroke-opacity:0.1; fill:none" points="
  393.994,1359.82 393.994,123.472 
  "/>
<polyline clip-path="url(#clip082)" style="stroke:#000000; stroke-width:2; stroke-opacity:0.1; fill:none" points="
  846.121,1359.82 846.121,123.472 
  "/>
<polyline clip-path="url(#clip082)" style="stroke:#000000; stroke-width:2; stroke-opacity:0.1; fill:none" points="
  1298.25,1359.82 1298.25,123.472 
  "/>
<polyline clip-path="url(#clip082)" style="stroke:#000000; stroke-width:2; stroke-opacity:0.1; fill:none" points="
  1750.37,1359.82 1750.37,123.472 
  "/>
<polyline clip-path="url(#clip082)" style="stroke:#000000; stroke-width:2; stroke-opacity:0.1; fill:none" points="
  2202.5,1359.82 2202.5,123.472 
  "/>
<polyline clip-path="url(#clip080)" style="stroke:#000000; stroke-width:4; stroke-opacity:1; fill:none" points="
  339.739,1359.82 2256.76,1359.82 
  "/>
<polyline clip-path="url(#clip080)" style="stroke:#000000; stroke-width:4; stroke-opacity:1; fill:none" points="
  393.994,1359.82 393.994,1344.98 
  "/>
<polyline clip-path="url(#clip080)" style="stroke:#000000; stroke-width:4; stroke-opacity:1; fill:none" points="
  846.121,1359.82 846.121,1344.98 
  "/>
<polyline clip-path="url(#clip080)" style="stroke:#000000; stroke-width:4; stroke-opacity:1; fill:none" points="
  1298.25,1359.82 1298.25,1344.98 
  "/>
<polyline clip-path="url(#clip080)" style="stroke:#000000; stroke-width:4; stroke-opacity:1; fill:none" points="
  1750.37,1359.82 1750.37,1344.98 
  "/>
<polyline clip-path="url(#clip080)" style="stroke:#000000; stroke-width:4; stroke-opacity:1; fill:none" points="
  2202.5,1359.82 2202.5,1344.98 
  "/>
<path clip-path="url(#clip080)" d="M 0 0 M393.994 1388.24 Q390.383 1388.24 388.554 1391.81 Q386.749 1395.35 386.749 1402.48 Q386.749 1409.59 388.554 1413.15 Q390.383 1416.69 393.994 1416.69 Q397.628 1416.69 399.434 1413.15 Q401.263 1409.59 401.263 1402.48 Q401.263 1395.35 399.434 1391.81 Q397.628 1388.24 393.994 1388.24 M393.994 1384.54 Q399.804 1384.54 402.86 1389.15 Q405.939 1393.73 405.939 1402.48 Q405.939 1411.21 402.86 1415.81 Q399.804 1420.4 393.994 1420.4 Q388.184 1420.4 385.105 1415.81 Q382.05 1411.21 382.05 1402.48 Q382.05 1393.73 385.105 1389.15 Q388.184 1384.54 393.994 1384.54 Z" fill="#000000" fill-rule="evenodd" fill-opacity="1" /><path clip-path="url(#clip080)" d="M 0 0 M836.399 1385.16 L854.755 1385.16 L854.755 1389.1 L840.681 1389.1 L840.681 1397.57 Q841.7 1397.22 842.718 1397.06 Q843.737 1396.88 844.755 1396.88 Q850.542 1396.88 853.922 1400.05 Q857.301 1403.22 857.301 1408.64 Q857.301 1414.21 853.829 1417.32 Q850.357 1420.4 844.037 1420.4 Q841.862 1420.4 839.593 1420.02 Q837.348 1419.65 834.94 1418.91 L834.94 1414.21 Q837.024 1415.35 839.246 1415.9 Q841.468 1416.46 843.945 1416.46 Q847.949 1416.46 850.287 1414.35 Q852.625 1412.25 852.625 1408.64 Q852.625 1405.02 850.287 1402.92 Q847.949 1400.81 843.945 1400.81 Q842.07 1400.81 840.195 1401.23 Q838.343 1401.65 836.399 1402.52 L836.399 1385.16 Z" fill="#000000" fill-rule="evenodd" fill-opacity="1" /><path clip-path="url(#clip080)" d="M 0 0 M1272.94 1415.79 L1280.57 1415.79 L1280.57 1389.42 L1272.26 1391.09 L1272.26 1386.83 L1280.53 1385.16 L1285.2 1385.16 L1285.2 1415.79 L1292.84 1415.79 L1292.84 1419.72 L1272.94 1419.72 L1272.94 1415.79 Z" fill="#000000" fill-rule="evenodd" fill-opacity="1" /><path clip-path="url(#clip080)" d="M 0 0 M1312.29 1388.24 Q1308.68 1388.24 1306.85 1391.81 Q1305.04 1395.35 1305.04 1402.48 Q1305.04 1409.59 1306.85 1413.15 Q1308.68 1416.69 1312.29 1416.69 Q1315.92 1416.69 1317.73 1413.15 Q1319.56 1409.59 1319.56 1402.48 Q1319.56 1395.35 1317.73 1391.81 Q1315.92 1388.24 1312.29 1388.24 M1312.29 1384.54 Q1318.1 1384.54 1321.15 1389.15 Q1324.23 1393.73 1324.23 1402.48 Q1324.23 1411.21 1321.15 1415.81 Q1318.1 1420.4 1312.29 1420.4 Q1306.48 1420.4 1303.4 1415.81 Q1300.34 1411.21 1300.34 1402.48 Q1300.34 1393.73 1303.4 1389.15 Q1306.48 1384.54 1312.29 1384.54 Z" fill="#000000" fill-rule="evenodd" fill-opacity="1" /><path clip-path="url(#clip080)" d="M 0 0 M1725.56 1415.79 L1733.2 1415.79 L1733.2 1389.42 L1724.89 1391.09 L1724.89 1386.83 L1733.15 1385.16 L1737.83 1385.16 L1737.83 1415.79 L1745.47 1415.79 L1745.47 1419.72 L1725.56 1419.72 L1725.56 1415.79 Z" fill="#000000" fill-rule="evenodd" fill-opacity="1" /><path clip-path="url(#clip080)" d="M 0 0 M1754.96 1385.16 L1773.31 1385.16 L1773.31 1389.1 L1759.24 1389.1 L1759.24 1397.57 Q1760.26 1397.22 1761.28 1397.06 Q1762.3 1396.88 1763.31 1396.88 Q1769.1 1396.88 1772.48 1400.05 Q1775.86 1403.22 1775.86 1408.64 Q1775.86 1414.21 1772.39 1417.32 Q1768.92 1420.4 1762.6 1420.4 Q1760.42 1420.4 1758.15 1420.02 Q1755.91 1419.65 1753.5 1418.91 L1753.5 1414.21 Q1755.58 1415.35 1757.8 1415.9 Q1760.03 1416.46 1762.5 1416.46 Q1766.51 1416.46 1768.85 1414.35 Q1771.18 1412.25 1771.18 1408.64 Q1771.18 1405.02 1768.85 1402.92 Q1766.51 1400.81 1762.5 1400.81 Q1760.63 1400.81 1758.75 1401.23 Q1756.9 1401.65 1754.96 1402.52 L1754.96 1385.16 Z" fill="#000000" fill-rule="evenodd" fill-opacity="1" /><path clip-path="url(#clip080)" d="M 0 0 M2181.27 1415.79 L2197.59 1415.79 L2197.59 1419.72 L2175.65 1419.72 L2175.65 1415.79 Q2178.31 1413.03 2182.89 1408.4 Q2187.5 1403.75 2188.68 1402.41 Q2190.93 1399.89 2191.81 1398.15 Q2192.71 1396.39 2192.71 1394.7 Q2192.71 1391.95 2190.76 1390.21 Q2188.84 1388.47 2185.74 1388.47 Q2183.54 1388.47 2181.09 1389.24 Q2178.66 1390 2175.88 1391.55 L2175.88 1386.83 Q2178.7 1385.7 2181.16 1385.12 Q2183.61 1384.54 2185.65 1384.54 Q2191.02 1384.54 2194.21 1387.22 Q2197.41 1389.91 2197.41 1394.4 Q2197.41 1396.53 2196.6 1398.45 Q2195.81 1400.35 2193.7 1402.94 Q2193.13 1403.61 2190.02 1406.83 Q2186.92 1410.02 2181.27 1415.79 Z" fill="#000000" fill-rule="evenodd" fill-opacity="1" /><path clip-path="url(#clip080)" d="M 0 0 M2217.41 1388.24 Q2213.8 1388.24 2211.97 1391.81 Q2210.16 1395.35 2210.16 1402.48 Q2210.16 1409.59 2211.97 1413.15 Q2213.8 1416.69 2217.41 1416.69 Q2221.04 1416.69 2222.85 1413.15 Q2224.68 1409.59 2224.68 1402.48 Q2224.68 1395.35 2222.85 1391.81 Q2221.04 1388.24 2217.41 1388.24 M2217.41 1384.54 Q2223.22 1384.54 2226.27 1389.15 Q2229.35 1393.73 2229.35 1402.48 Q2229.35 1411.21 2226.27 1415.81 Q2223.22 1420.4 2217.41 1420.4 Q2211.6 1420.4 2208.52 1415.81 Q2205.46 1411.21 2205.46 1402.48 Q2205.46 1393.73 2208.52 1389.15 Q2211.6 1384.54 2217.41 1384.54 Z" fill="#000000" fill-rule="evenodd" fill-opacity="1" /><path clip-path="url(#clip080)" d="M 0 0 M1165.05 1457.47 L1165.05 1467.6 L1177.11 1467.6 L1177.11 1472.15 L1165.05 1472.15 L1165.05 1491.5 Q1165.05 1495.86 1166.22 1497.1 Q1167.43 1498.34 1171.09 1498.34 L1177.11 1498.34 L1177.11 1503.24 L1171.09 1503.24 Q1164.31 1503.24 1161.73 1500.73 Q1159.16 1498.18 1159.16 1491.5 L1159.16 1472.15 L1154.86 1472.15 L1154.86 1467.6 L1159.16 1467.6 L1159.16 1457.47 L1165.05 1457.47 Z" fill="#000000" fill-rule="evenodd" fill-opacity="1" /><path clip-path="url(#clip080)" d="M 0 0 M1184.81 1467.6 L1190.67 1467.6 L1190.67 1503.24 L1184.81 1503.24 L1184.81 1467.6 M1184.81 1453.72 L1190.67 1453.72 L1190.67 1461.13 L1184.81 1461.13 L1184.81 1453.72 Z" fill="#000000" fill-rule="evenodd" fill-opacity="1" /><path clip-path="url(#clip080)" d="M 0 0 M1230.68 1474.44 Q1232.87 1470.49 1235.93 1468.61 Q1238.98 1466.74 1243.12 1466.74 Q1248.69 1466.74 1251.71 1470.65 Q1254.74 1474.53 1254.74 1481.73 L1254.74 1503.24 L1248.85 1503.24 L1248.85 1481.92 Q1248.85 1476.79 1247.04 1474.31 Q1245.22 1471.83 1241.5 1471.83 Q1236.95 1471.83 1234.3 1474.85 Q1231.66 1477.88 1231.66 1483.1 L1231.66 1503.24 L1225.77 1503.24 L1225.77 1481.92 Q1225.77 1476.76 1223.96 1474.31 Q1222.15 1471.83 1218.36 1471.83 Q1213.87 1471.83 1211.23 1474.88 Q1208.59 1477.91 1208.59 1483.1 L1208.59 1503.24 L1202.7 1503.24 L1202.7 1467.6 L1208.59 1467.6 L1208.59 1473.13 Q1210.59 1469.86 1213.39 1468.3 Q1216.19 1466.74 1220.04 1466.74 Q1223.93 1466.74 1226.63 1468.71 Q1229.37 1470.68 1230.68 1474.44 Z" fill="#000000" fill-rule="evenodd" fill-opacity="1" /><path clip-path="url(#clip080)" d="M 0 0 M1296.91 1483.96 L1296.91 1486.82 L1269.98 1486.82 Q1270.37 1492.87 1273.61 1496.05 Q1276.89 1499.2 1282.72 1499.2 Q1286.09 1499.2 1289.24 1498.37 Q1292.42 1497.55 1295.54 1495.89 L1295.54 1501.43 Q1292.39 1502.77 1289.08 1503.47 Q1285.77 1504.17 1282.36 1504.17 Q1273.83 1504.17 1268.84 1499.2 Q1263.87 1494.24 1263.87 1485.77 Q1263.87 1477.02 1268.58 1471.89 Q1273.33 1466.74 1281.35 1466.74 Q1288.54 1466.74 1292.71 1471.38 Q1296.91 1476 1296.91 1483.96 M1291.05 1482.24 Q1290.99 1477.43 1288.35 1474.57 Q1285.74 1471.7 1281.41 1471.7 Q1276.51 1471.7 1273.55 1474.47 Q1270.62 1477.24 1270.17 1482.27 L1291.05 1482.24 Z" fill="#000000" fill-rule="evenodd" fill-opacity="1" /><path clip-path="url(#clip080)" d="M 0 0 M1341.31 1453.78 Q1337.05 1461.1 1334.98 1468.26 Q1332.91 1475.43 1332.91 1482.78 Q1332.91 1490.13 1334.98 1497.36 Q1337.08 1504.55 1341.31 1511.84 L1336.22 1511.84 Q1331.44 1504.36 1329.06 1497.13 Q1326.7 1489.91 1326.7 1482.78 Q1326.7 1475.68 1329.06 1468.49 Q1331.41 1461.29 1336.22 1453.78 L1341.31 1453.78 Z" fill="#000000" fill-rule="evenodd" fill-opacity="1" /><path clip-path="url(#clip080)" d="M 0 0 M1382.31 1481.73 L1382.31 1503.24 L1376.45 1503.24 L1376.45 1481.92 Q1376.45 1476.86 1374.48 1474.34 Q1372.5 1471.83 1368.56 1471.83 Q1363.81 1471.83 1361.08 1474.85 Q1358.34 1477.88 1358.34 1483.1 L1358.34 1503.24 L1352.45 1503.24 L1352.45 1467.6 L1358.34 1467.6 L1358.34 1473.13 Q1360.44 1469.92 1363.27 1468.33 Q1366.14 1466.74 1369.86 1466.74 Q1376 1466.74 1379.16 1470.56 Q1382.31 1474.34 1382.31 1481.73 Z" fill="#000000" fill-rule="evenodd" fill-opacity="1" /><path clip-path="url(#clip080)" d="M 0 0 M1416.71 1468.65 L1416.71 1474.18 Q1414.23 1472.91 1411.56 1472.27 Q1408.88 1471.64 1406.02 1471.64 Q1401.66 1471.64 1399.46 1472.97 Q1397.3 1474.31 1397.3 1476.99 Q1397.3 1479.02 1398.86 1480.2 Q1400.42 1481.35 1405.13 1482.4 L1407.13 1482.84 Q1413.37 1484.18 1415.98 1486.63 Q1418.62 1489.05 1418.62 1493.41 Q1418.62 1498.37 1414.68 1501.27 Q1410.76 1504.17 1403.89 1504.17 Q1401.02 1504.17 1397.9 1503.59 Q1394.82 1503.05 1391.38 1501.94 L1391.38 1495.89 Q1394.62 1497.58 1397.78 1498.44 Q1400.93 1499.27 1404.01 1499.27 Q1408.15 1499.27 1410.38 1497.86 Q1412.61 1496.43 1412.61 1493.85 Q1412.61 1491.47 1410.98 1490.19 Q1409.39 1488.92 1403.95 1487.74 L1401.91 1487.27 Q1396.47 1486.12 1394.05 1483.76 Q1391.63 1481.38 1391.63 1477.24 Q1391.63 1472.21 1395.2 1469.47 Q1398.76 1466.74 1405.32 1466.74 Q1408.57 1466.74 1411.43 1467.21 Q1414.29 1467.69 1416.71 1468.65 Z" fill="#000000" fill-rule="evenodd" fill-opacity="1" /><path clip-path="url(#clip080)" d="M 0 0 M1427.03 1453.78 L1432.12 1453.78 Q1436.89 1461.29 1439.25 1468.49 Q1441.63 1475.68 1441.63 1482.78 Q1441.63 1489.91 1439.25 1497.13 Q1436.89 1504.36 1432.12 1511.84 L1427.03 1511.84 Q1431.26 1504.55 1433.33 1497.36 Q1435.43 1490.13 1435.43 1482.78 Q1435.43 1475.43 1433.33 1468.26 Q1431.26 1461.1 1427.03 1453.78 Z" fill="#000000" fill-rule="evenodd" fill-opacity="1" /><polyline clip-path="url(#clip082)" style="stroke:#000000; stroke-width:2; stroke-opacity:0.1; fill:none" points="
  339.739,1324.85 2256.76,1324.85 
  "/>
<polyline clip-path="url(#clip082)" style="stroke:#000000; stroke-width:2; stroke-opacity:0.1; fill:none" points="
  339.739,1080.98 2256.76,1080.98 
  "/>
<polyline clip-path="url(#clip082)" style="stroke:#000000; stroke-width:2; stroke-opacity:0.1; fill:none" points="
  339.739,837.102 2256.76,837.102 
  "/>
<polyline clip-path="url(#clip082)" style="stroke:#000000; stroke-width:2; stroke-opacity:0.1; fill:none" points="
  339.739,593.229 2256.76,593.229 
  "/>
<polyline clip-path="url(#clip082)" style="stroke:#000000; stroke-width:2; stroke-opacity:0.1; fill:none" points="
  339.739,349.356 2256.76,349.356 
  "/>
<polyline clip-path="url(#clip080)" style="stroke:#000000; stroke-width:4; stroke-opacity:1; fill:none" points="
  339.739,1359.82 339.739,123.472 
  "/>
<polyline clip-path="url(#clip080)" style="stroke:#000000; stroke-width:4; stroke-opacity:1; fill:none" points="
  339.739,1324.85 362.743,1324.85 
  "/>
<polyline clip-path="url(#clip080)" style="stroke:#000000; stroke-width:4; stroke-opacity:1; fill:none" points="
  339.739,1080.98 362.743,1080.98 
  "/>
<polyline clip-path="url(#clip080)" style="stroke:#000000; stroke-width:4; stroke-opacity:1; fill:none" points="
  339.739,837.102 362.743,837.102 
  "/>
<polyline clip-path="url(#clip080)" style="stroke:#000000; stroke-width:4; stroke-opacity:1; fill:none" points="
  339.739,593.229 362.743,593.229 
  "/>
<polyline clip-path="url(#clip080)" style="stroke:#000000; stroke-width:4; stroke-opacity:1; fill:none" points="
  339.739,349.356 362.743,349.356 
  "/>
<path clip-path="url(#clip080)" d="M 0 0 M293.235 1310.65 Q289.623 1310.65 287.795 1314.21 Q285.989 1317.75 285.989 1324.88 Q285.989 1331.99 287.795 1335.55 Q289.623 1339.1 293.235 1339.1 Q296.869 1339.1 298.674 1335.55 Q300.503 1331.99 300.503 1324.88 Q300.503 1317.75 298.674 1314.21 Q296.869 1310.65 293.235 1310.65 M293.235 1306.94 Q299.045 1306.94 302.1 1311.55 Q305.179 1316.13 305.179 1324.88 Q305.179 1333.61 302.1 1338.22 Q299.045 1342.8 293.235 1342.8 Q287.424 1342.8 284.346 1338.22 Q281.29 1333.61 281.29 1324.88 Q281.29 1316.13 284.346 1311.55 Q287.424 1306.94 293.235 1306.94 Z" fill="#000000" fill-rule="evenodd" fill-opacity="1" /><path clip-path="url(#clip080)" d="M 0 0 M121.523 1100.77 L137.842 1100.77 L137.842 1104.7 L115.898 1104.7 L115.898 1100.77 Q118.56 1098.01 123.143 1093.38 Q127.749 1088.73 128.93 1087.39 Q131.175 1084.86 132.055 1083.13 Q132.958 1081.37 132.958 1079.68 Q132.958 1076.93 131.013 1075.19 Q129.092 1073.45 125.99 1073.45 Q123.791 1073.45 121.337 1074.22 Q118.907 1074.98 116.129 1076.53 L116.129 1071.81 Q118.953 1070.68 121.407 1070.1 Q123.86 1069.52 125.898 1069.52 Q131.268 1069.52 134.462 1072.2 Q137.657 1074.89 137.657 1079.38 Q137.657 1081.51 136.847 1083.43 Q136.059 1085.33 133.953 1087.92 Q133.374 1088.59 130.272 1091.81 Q127.171 1095 121.523 1100.77 Z" fill="#000000" fill-rule="evenodd" fill-opacity="1" /><path clip-path="url(#clip080)" d="M 0 0 M147.657 1098.82 L152.541 1098.82 L152.541 1104.7 L147.657 1104.7 L147.657 1098.82 Z" fill="#000000" fill-rule="evenodd" fill-opacity="1" /><path clip-path="url(#clip080)" d="M 0 0 M172.726 1073.22 Q169.115 1073.22 167.286 1076.79 Q165.481 1080.33 165.481 1087.46 Q165.481 1094.56 167.286 1098.13 Q169.115 1101.67 172.726 1101.67 Q176.36 1101.67 178.166 1098.13 Q179.994 1094.56 179.994 1087.46 Q179.994 1080.33 178.166 1076.79 Q176.36 1073.22 172.726 1073.22 M172.726 1069.52 Q178.536 1069.52 181.592 1074.12 Q184.67 1078.71 184.67 1087.46 Q184.67 1096.18 181.592 1100.79 Q178.536 1105.37 172.726 1105.37 Q166.916 1105.37 163.837 1100.79 Q160.782 1096.18 160.782 1087.46 Q160.782 1078.71 163.837 1074.12 Q166.916 1069.52 172.726 1069.52 Z" fill="#000000" fill-rule="evenodd" fill-opacity="1" /><path clip-path="url(#clip080)" d="M 0 0 M221.059 1079.24 L210.48 1089.86 L221.059 1100.44 L218.304 1103.24 L207.679 1092.62 L197.055 1103.24 L194.323 1100.44 L204.879 1089.86 L194.323 1079.24 L197.055 1076.44 L207.679 1087.06 L218.304 1076.44 L221.059 1079.24 Z" fill="#000000" fill-rule="evenodd" fill-opacity="1" /><path clip-path="url(#clip080)" d="M 0 0 M233.42 1100.77 L241.059 1100.77 L241.059 1074.4 L232.749 1076.07 L232.749 1071.81 L241.013 1070.14 L245.689 1070.14 L245.689 1100.77 L253.327 1100.77 L253.327 1104.7 L233.42 1104.7 L233.42 1100.77 Z" fill="#000000" fill-rule="evenodd" fill-opacity="1" /><path clip-path="url(#clip080)" d="M 0 0 M272.772 1073.22 Q269.161 1073.22 267.332 1076.79 Q265.526 1080.33 265.526 1087.46 Q265.526 1094.56 267.332 1098.13 Q269.161 1101.67 272.772 1101.67 Q276.406 1101.67 278.212 1098.13 Q280.04 1094.56 280.04 1087.46 Q280.04 1080.33 278.212 1076.79 Q276.406 1073.22 272.772 1073.22 M272.772 1069.52 Q278.582 1069.52 281.637 1074.12 Q284.716 1078.71 284.716 1087.46 Q284.716 1096.18 281.637 1100.79 Q278.582 1105.37 272.772 1105.37 Q266.962 1105.37 263.883 1100.79 Q260.827 1096.18 260.827 1087.46 Q260.827 1078.71 263.883 1074.12 Q266.962 1069.52 272.772 1069.52 Z" fill="#000000" fill-rule="evenodd" fill-opacity="1" /><path clip-path="url(#clip080)" d="M 0 0 M297.393 1052.52 L287.801 1067.51 L297.393 1067.51 L297.393 1052.52 M296.396 1049.21 L301.173 1049.21 L301.173 1067.51 L305.179 1067.51 L305.179 1070.67 L301.173 1070.67 L301.173 1077.29 L297.393 1077.29 L297.393 1070.67 L284.716 1070.67 L284.716 1067 L296.396 1049.21 Z" fill="#000000" fill-rule="evenodd" fill-opacity="1" /><path clip-path="url(#clip080)" d="M 0 0 M130.342 830.344 L118.536 848.793 L130.342 848.793 L130.342 830.344 M129.115 826.27 L134.995 826.27 L134.995 848.793 L139.925 848.793 L139.925 852.682 L134.995 852.682 L134.995 860.83 L130.342 860.83 L130.342 852.682 L114.74 852.682 L114.74 848.168 L129.115 826.27 Z" fill="#000000" fill-rule="evenodd" fill-opacity="1" /><path clip-path="url(#clip080)" d="M 0 0 M147.657 854.95 L152.541 854.95 L152.541 860.83 L147.657 860.83 L147.657 854.95 Z" fill="#000000" fill-rule="evenodd" fill-opacity="1" /><path clip-path="url(#clip080)" d="M 0 0 M172.726 829.348 Q169.115 829.348 167.286 832.913 Q165.481 836.455 165.481 843.584 Q165.481 850.691 167.286 854.256 Q169.115 857.797 172.726 857.797 Q176.36 857.797 178.166 854.256 Q179.994 850.691 179.994 843.584 Q179.994 836.455 178.166 832.913 Q176.36 829.348 172.726 829.348 M172.726 825.645 Q178.536 825.645 181.592 830.251 Q184.67 834.835 184.67 843.584 Q184.67 852.311 181.592 856.918 Q178.536 861.501 172.726 861.501 Q166.916 861.501 163.837 856.918 Q160.782 852.311 160.782 843.584 Q160.782 834.835 163.837 830.251 Q166.916 825.645 172.726 825.645 Z" fill="#000000" fill-rule="evenodd" fill-opacity="1" /><path clip-path="url(#clip080)" d="M 0 0 M221.059 835.367 L210.48 845.992 L221.059 856.571 L218.304 859.371 L207.679 848.746 L197.055 859.371 L194.323 856.571 L204.879 845.992 L194.323 835.367 L197.055 832.566 L207.679 843.191 L218.304 832.566 L221.059 835.367 Z" fill="#000000" fill-rule="evenodd" fill-opacity="1" /><path clip-path="url(#clip080)" d="M 0 0 M233.42 856.895 L241.059 856.895 L241.059 830.529 L232.749 832.196 L232.749 827.936 L241.013 826.27 L245.689 826.27 L245.689 856.895 L253.327 856.895 L253.327 860.83 L233.42 860.83 L233.42 856.895 Z" fill="#000000" fill-rule="evenodd" fill-opacity="1" /><path clip-path="url(#clip080)" d="M 0 0 M272.772 829.348 Q269.161 829.348 267.332 832.913 Q265.526 836.455 265.526 843.584 Q265.526 850.691 267.332 854.256 Q269.161 857.797 272.772 857.797 Q276.406 857.797 278.212 854.256 Q280.04 850.691 280.04 843.584 Q280.04 836.455 278.212 832.913 Q276.406 829.348 272.772 829.348 M272.772 825.645 Q278.582 825.645 281.637 830.251 Q284.716 834.835 284.716 843.584 Q284.716 852.311 281.637 856.918 Q278.582 861.501 272.772 861.501 Q266.962 861.501 263.883 856.918 Q260.827 852.311 260.827 843.584 Q260.827 834.835 263.883 830.251 Q266.962 825.645 272.772 825.645 Z" fill="#000000" fill-rule="evenodd" fill-opacity="1" /><path clip-path="url(#clip080)" d="M 0 0 M297.393 808.65 L287.801 823.639 L297.393 823.639 L297.393 808.65 M296.396 805.339 L301.173 805.339 L301.173 823.639 L305.179 823.639 L305.179 826.799 L301.173 826.799 L301.173 833.419 L297.393 833.419 L297.393 826.799 L284.716 826.799 L284.716 823.132 L296.396 805.339 Z" fill="#000000" fill-rule="evenodd" fill-opacity="1" /><path clip-path="url(#clip080)" d="M 0 0 M128.073 597.813 Q124.925 597.813 123.073 599.966 Q121.245 602.119 121.245 605.869 Q121.245 609.596 123.073 611.772 Q124.925 613.924 128.073 613.924 Q131.222 613.924 133.05 611.772 Q134.902 609.596 134.902 605.869 Q134.902 602.119 133.05 599.966 Q131.222 597.813 128.073 597.813 M137.356 583.161 L137.356 587.42 Q135.597 586.587 133.791 586.147 Q132.009 585.707 130.249 585.707 Q125.62 585.707 123.166 588.832 Q120.735 591.957 120.388 598.276 Q121.754 596.262 123.814 595.198 Q125.874 594.11 128.351 594.11 Q133.56 594.11 136.569 597.281 Q139.601 600.429 139.601 605.869 Q139.601 611.193 136.453 614.41 Q133.305 617.628 128.073 617.628 Q122.078 617.628 118.907 613.045 Q115.736 608.438 115.736 599.711 Q115.736 591.517 119.624 586.656 Q123.513 581.772 130.064 581.772 Q131.823 581.772 133.606 582.119 Q135.411 582.466 137.356 583.161 Z" fill="#000000" fill-rule="evenodd" fill-opacity="1" /><path clip-path="url(#clip080)" d="M 0 0 M147.657 611.077 L152.541 611.077 L152.541 616.957 L147.657 616.957 L147.657 611.077 Z" fill="#000000" fill-rule="evenodd" fill-opacity="1" /><path clip-path="url(#clip080)" d="M 0 0 M172.726 585.475 Q169.115 585.475 167.286 589.04 Q165.481 592.582 165.481 599.711 Q165.481 606.818 167.286 610.383 Q169.115 613.924 172.726 613.924 Q176.36 613.924 178.166 610.383 Q179.994 606.818 179.994 599.711 Q179.994 592.582 178.166 589.04 Q176.36 585.475 172.726 585.475 M172.726 581.772 Q178.536 581.772 181.592 586.378 Q184.67 590.961 184.67 599.711 Q184.67 608.438 181.592 613.045 Q178.536 617.628 172.726 617.628 Q166.916 617.628 163.837 613.045 Q160.782 608.438 160.782 599.711 Q160.782 590.961 163.837 586.378 Q166.916 581.772 172.726 581.772 Z" fill="#000000" fill-rule="evenodd" fill-opacity="1" /><path clip-path="url(#clip080)" d="M 0 0 M221.059 591.494 L210.48 602.119 L221.059 612.697 L218.304 615.498 L207.679 604.873 L197.055 615.498 L194.323 612.697 L204.879 602.119 L194.323 591.494 L197.055 588.693 L207.679 599.318 L218.304 588.693 L221.059 591.494 Z" fill="#000000" fill-rule="evenodd" fill-opacity="1" /><path clip-path="url(#clip080)" d="M 0 0 M233.42 613.022 L241.059 613.022 L241.059 586.656 L232.749 588.323 L232.749 584.063 L241.013 582.397 L245.689 582.397 L245.689 613.022 L253.327 613.022 L253.327 616.957 L233.42 616.957 L233.42 613.022 Z" fill="#000000" fill-rule="evenodd" fill-opacity="1" /><path clip-path="url(#clip080)" d="M 0 0 M272.772 585.475 Q269.161 585.475 267.332 589.04 Q265.526 592.582 265.526 599.711 Q265.526 606.818 267.332 610.383 Q269.161 613.924 272.772 613.924 Q276.406 613.924 278.212 610.383 Q280.04 606.818 280.04 599.711 Q280.04 592.582 278.212 589.04 Q276.406 585.475 272.772 585.475 M272.772 581.772 Q278.582 581.772 281.637 586.378 Q284.716 590.961 284.716 599.711 Q284.716 608.438 281.637 613.045 Q278.582 617.628 272.772 617.628 Q266.962 617.628 263.883 613.045 Q260.827 608.438 260.827 599.711 Q260.827 590.961 263.883 586.378 Q266.962 581.772 272.772 581.772 Z" fill="#000000" fill-rule="evenodd" fill-opacity="1" /><path clip-path="url(#clip080)" d="M 0 0 M297.393 564.776 L287.801 579.766 L297.393 579.766 L297.393 564.776 M296.396 561.466 L301.173 561.466 L301.173 579.766 L305.179 579.766 L305.179 582.926 L301.173 582.926 L301.173 589.546 L297.393 589.546 L297.393 582.926 L284.716 582.926 L284.716 579.258 L296.396 561.466 Z" fill="#000000" fill-rule="evenodd" fill-opacity="1" /><path clip-path="url(#clip080)" d="M 0 0 M127.495 356.672 Q124.161 356.672 122.24 358.454 Q120.342 360.237 120.342 363.362 Q120.342 366.486 122.24 368.269 Q124.161 370.051 127.495 370.051 Q130.828 370.051 132.749 368.269 Q134.671 366.463 134.671 363.362 Q134.671 360.237 132.749 358.454 Q130.851 356.672 127.495 356.672 M122.819 354.681 Q119.81 353.94 118.12 351.88 Q116.453 349.82 116.453 346.857 Q116.453 342.713 119.393 340.306 Q122.356 337.899 127.495 337.899 Q132.657 337.899 135.597 340.306 Q138.536 342.713 138.536 346.857 Q138.536 349.82 136.847 351.88 Q135.18 353.94 132.194 354.681 Q135.573 355.468 137.448 357.76 Q139.347 360.051 139.347 363.362 Q139.347 368.385 136.268 371.07 Q133.212 373.755 127.495 373.755 Q121.777 373.755 118.698 371.07 Q115.643 368.385 115.643 363.362 Q115.643 360.051 117.541 357.76 Q119.439 355.468 122.819 354.681 M121.106 347.297 Q121.106 349.982 122.773 351.487 Q124.462 352.991 127.495 352.991 Q130.504 352.991 132.194 351.487 Q133.907 349.982 133.907 347.297 Q133.907 344.612 132.194 343.107 Q130.504 341.602 127.495 341.602 Q124.462 341.602 122.773 343.107 Q121.106 344.612 121.106 347.297 Z" fill="#000000" fill-rule="evenodd" fill-opacity="1" /><path clip-path="url(#clip080)" d="M 0 0 M147.657 367.204 L152.541 367.204 L152.541 373.084 L147.657 373.084 L147.657 367.204 Z" fill="#000000" fill-rule="evenodd" fill-opacity="1" /><path clip-path="url(#clip080)" d="M 0 0 M172.726 341.602 Q169.115 341.602 167.286 345.167 Q165.481 348.709 165.481 355.838 Q165.481 362.945 167.286 366.51 Q169.115 370.051 172.726 370.051 Q176.36 370.051 178.166 366.51 Q179.994 362.945 179.994 355.838 Q179.994 348.709 178.166 345.167 Q176.36 341.602 172.726 341.602 M172.726 337.899 Q178.536 337.899 181.592 342.505 Q184.67 347.088 184.67 355.838 Q184.67 364.565 181.592 369.172 Q178.536 373.755 172.726 373.755 Q166.916 373.755 163.837 369.172 Q160.782 364.565 160.782 355.838 Q160.782 347.088 163.837 342.505 Q166.916 337.899 172.726 337.899 Z" fill="#000000" fill-rule="evenodd" fill-opacity="1" /><path clip-path="url(#clip080)" d="M 0 0 M221.059 347.621 L210.48 358.246 L221.059 368.824 L218.304 371.625 L207.679 361 L197.055 371.625 L194.323 368.824 L204.879 358.246 L194.323 347.621 L197.055 344.82 L207.679 355.445 L218.304 344.82 L221.059 347.621 Z" fill="#000000" fill-rule="evenodd" fill-opacity="1" /><path clip-path="url(#clip080)" d="M 0 0 M233.42 369.149 L241.059 369.149 L241.059 342.783 L232.749 344.45 L232.749 340.19 L241.013 338.524 L245.689 338.524 L245.689 369.149 L253.327 369.149 L253.327 373.084 L233.42 373.084 L233.42 369.149 Z" fill="#000000" fill-rule="evenodd" fill-opacity="1" /><path clip-path="url(#clip080)" d="M 0 0 M272.772 341.602 Q269.161 341.602 267.332 345.167 Q265.526 348.709 265.526 355.838 Q265.526 362.945 267.332 366.51 Q269.161 370.051 272.772 370.051 Q276.406 370.051 278.212 366.51 Q280.04 362.945 280.04 355.838 Q280.04 348.709 278.212 345.167 Q276.406 341.602 272.772 341.602 M272.772 337.899 Q278.582 337.899 281.637 342.505 Q284.716 347.088 284.716 355.838 Q284.716 364.565 281.637 369.172 Q278.582 373.755 272.772 373.755 Q266.962 373.755 263.883 369.172 Q260.827 364.565 260.827 355.838 Q260.827 347.088 263.883 342.505 Q266.962 337.899 272.772 337.899 Z" fill="#000000" fill-rule="evenodd" fill-opacity="1" /><path clip-path="url(#clip080)" d="M 0 0 M297.393 320.903 L287.801 335.893 L297.393 335.893 L297.393 320.903 M296.396 317.593 L301.173 317.593 L301.173 335.893 L305.179 335.893 L305.179 339.053 L301.173 339.053 L301.173 345.673 L297.393 345.673 L297.393 339.053 L284.716 339.053 L284.716 335.385 L296.396 317.593 Z" fill="#000000" fill-rule="evenodd" fill-opacity="1" /><path clip-path="url(#clip080)" d="M 0 0 M24.738 1022.71 L48.3866 1031.43 L48.3866 1013.95 L24.738 1022.71 M18.4042 1026.34 L18.4042 1019.05 L65.9242 1000.94 L65.9242 1007.62 L53.7338 1011.95 L53.7338 1033.37 L65.9242 1037.7 L65.9242 1044.48 L18.4042 1026.34 Z" fill="#000000" fill-rule="evenodd" fill-opacity="1" /><path clip-path="url(#clip080)" d="M 0 0 M30.2762 1002.27 L30.2762 996.067 L60.195 984.927 L30.2762 973.787 L30.2762 967.581 L65.9242 980.949 L65.9242 988.906 L30.2762 1002.27 Z" fill="#000000" fill-rule="evenodd" fill-opacity="1" /><path clip-path="url(#clip080)" d="M 0 0 M47.6864 936.039 Q41.3207 936.039 37.8196 938.681 Q34.3184 941.29 34.3184 946.033 Q34.3184 950.744 37.8196 953.385 Q41.3207 955.995 47.6864 955.995 Q54.0203 955.995 57.5214 953.385 Q61.0226 950.744 61.0226 946.033 Q61.0226 941.29 57.5214 938.681 Q54.0203 936.039 47.6864 936.039 M61.5 930.182 Q70.603 930.182 75.0271 934.225 Q79.4831 938.267 79.4831 946.606 Q79.4831 949.693 79.0057 952.43 Q78.5601 955.168 77.6052 957.746 L71.9079 957.746 Q73.3084 955.168 73.9768 952.653 Q74.6452 950.139 74.6452 947.529 Q74.6452 941.768 71.6215 938.903 Q68.6296 936.039 62.5503 936.039 L59.6539 936.039 Q62.805 937.853 64.3646 940.686 Q65.9242 943.518 65.9242 947.465 Q65.9242 954.022 60.9271 958.032 Q55.93 962.043 47.6864 962.043 Q39.411 962.043 34.4139 958.032 Q29.4168 954.022 29.4168 947.465 Q29.4168 943.518 30.9764 940.686 Q32.536 937.853 35.6871 936.039 L30.2762 936.039 L30.2762 930.182 L61.5 930.182 Z" fill="#000000" fill-rule="evenodd" fill-opacity="1" /><path clip-path="url(#clip080)" d="M 0 0 M60.577 891.733 L79.4831 891.733 L79.4831 897.622 L30.2762 897.622 L30.2762 891.733 L35.6871 891.733 Q32.5042 889.887 30.9764 887.086 Q29.4168 884.254 29.4168 880.339 Q29.4168 873.846 34.5731 869.804 Q39.7293 865.73 48.132 865.73 Q56.5347 865.73 61.691 869.804 Q66.8472 873.846 66.8472 880.339 Q66.8472 884.254 65.3194 887.086 Q63.7598 889.887 60.577 891.733 M48.132 871.809 Q41.6708 871.809 38.0105 874.482 Q34.3184 877.124 34.3184 881.771 Q34.3184 886.418 38.0105 889.092 Q41.6708 891.733 48.132 891.733 Q54.5932 891.733 58.2853 889.092 Q61.9456 886.418 61.9456 881.771 Q61.9456 877.124 58.2853 874.482 Q54.5932 871.809 48.132 871.809 Z" fill="#000000" fill-rule="evenodd" fill-opacity="1" /><path clip-path="url(#clip080)" d="M 0 0 M44.4081 826.389 L65.9242 826.389 L65.9242 832.246 L44.599 832.246 Q39.5383 832.246 37.0238 834.219 Q34.5094 836.193 34.5094 840.139 Q34.5094 844.882 37.5331 847.619 Q40.5568 850.356 45.7767 850.356 L65.9242 850.356 L65.9242 856.245 L16.399 856.245 L16.399 850.356 L35.8144 850.356 Q32.5997 848.256 31.0083 845.423 Q29.4168 842.558 29.4168 838.834 Q29.4168 832.692 33.2363 829.54 Q37.0238 826.389 44.4081 826.389 Z" fill="#000000" fill-rule="evenodd" fill-opacity="1" /><path clip-path="url(#clip080)" d="M 0 0 M34.3821 800.895 Q34.3821 805.605 38.0742 808.343 Q41.7345 811.08 48.132 811.08 Q54.5295 811.08 58.2217 808.375 Q61.8819 805.637 61.8819 800.895 Q61.8819 796.216 58.1898 793.479 Q54.4977 790.741 48.132 790.741 Q41.7981 790.741 38.106 793.479 Q34.3821 796.216 34.3821 800.895 M29.4168 800.895 Q29.4168 793.256 34.3821 788.895 Q39.3473 784.535 48.132 784.535 Q56.8849 784.535 61.8819 788.895 Q66.8472 793.256 66.8472 800.895 Q66.8472 808.565 61.8819 812.926 Q56.8849 817.255 48.132 817.255 Q39.3473 817.255 34.3821 812.926 Q29.4168 808.565 29.4168 800.895 Z" fill="#000000" fill-rule="evenodd" fill-opacity="1" /><path clip-path="url(#clip080)" d="M 0 0 M20.1547 769.034 L30.2762 769.034 L30.2762 756.971 L34.8277 756.971 L34.8277 769.034 L54.1794 769.034 Q58.5399 769.034 59.7813 767.857 Q61.0226 766.647 61.0226 762.987 L61.0226 756.971 L65.9242 756.971 L65.9242 762.987 Q65.9242 769.766 63.4097 772.345 Q60.8634 774.923 54.1794 774.923 L34.8277 774.923 L34.8277 779.22 L30.2762 779.22 L30.2762 774.923 L20.1547 774.923 L20.1547 769.034 Z" fill="#000000" fill-rule="evenodd" fill-opacity="1" /><path clip-path="url(#clip080)" d="M 0 0 M34.3821 735.455 Q34.3821 740.166 38.0742 742.903 Q41.7345 745.64 48.132 745.64 Q54.5295 745.64 58.2217 742.935 Q61.8819 740.198 61.8819 735.455 Q61.8819 730.777 58.1898 728.039 Q54.4977 725.302 48.132 725.302 Q41.7981 725.302 38.106 728.039 Q34.3821 730.777 34.3821 735.455 M29.4168 735.455 Q29.4168 727.816 34.3821 723.456 Q39.3473 719.095 48.132 719.095 Q56.8849 719.095 61.8819 723.456 Q66.8472 727.816 66.8472 735.455 Q66.8472 743.126 61.8819 747.487 Q56.8849 751.815 48.132 751.815 Q39.3473 751.815 34.3821 747.487 Q29.4168 743.126 29.4168 735.455 Z" fill="#000000" fill-rule="evenodd" fill-opacity="1" /><path clip-path="url(#clip080)" d="M 0 0 M44.4081 679.755 L65.9242 679.755 L65.9242 685.612 L44.599 685.612 Q39.5383 685.612 37.0238 687.585 Q34.5094 689.559 34.5094 693.505 Q34.5094 698.248 37.5331 700.985 Q40.5568 703.722 45.7767 703.722 L65.9242 703.722 L65.9242 709.611 L30.2762 709.611 L30.2762 703.722 L35.8144 703.722 Q32.5997 701.622 31.0083 698.789 Q29.4168 695.924 29.4168 692.2 Q29.4168 686.057 33.2363 682.906 Q37.0238 679.755 44.4081 679.755 Z" fill="#000000" fill-rule="evenodd" fill-opacity="1" /><path clip-path="url(#clip080)" d="M 0 0 M31.6448 621.7 L37.1193 621.7 Q35.7507 624.183 35.0823 626.697 Q34.3821 629.18 34.3821 631.726 Q34.3821 637.423 38.0105 640.574 Q41.6072 643.726 48.132 643.726 Q54.6569 643.726 58.2853 640.574 Q61.8819 637.423 61.8819 631.726 Q61.8819 629.18 61.2135 626.697 Q60.5133 624.183 59.1447 621.7 L64.5555 621.7 Q65.7014 624.151 66.2743 626.793 Q66.8472 629.403 66.8472 632.363 Q66.8472 640.415 61.7864 645.158 Q56.7257 649.9 48.132 649.9 Q39.411 649.9 34.4139 645.126 Q29.4168 640.32 29.4168 631.981 Q29.4168 629.275 29.9897 626.697 Q30.5308 624.119 31.6448 621.7 Z" fill="#000000" fill-rule="evenodd" fill-opacity="1" /><path clip-path="url(#clip080)" d="M 0 0 M34.3821 597.701 Q34.3821 602.412 38.0742 605.149 Q41.7345 607.887 48.132 607.887 Q54.5295 607.887 58.2217 605.181 Q61.8819 602.444 61.8819 597.701 Q61.8819 593.023 58.1898 590.285 Q54.4977 587.548 48.132 587.548 Q41.7981 587.548 38.106 590.285 Q34.3821 593.023 34.3821 597.701 M29.4168 597.701 Q29.4168 590.063 34.3821 585.702 Q39.3473 581.342 48.132 581.342 Q56.8849 581.342 61.8819 585.702 Q66.8472 590.063 66.8472 597.701 Q66.8472 605.372 61.8819 609.733 Q56.8849 614.061 48.132 614.061 Q39.3473 614.061 34.3821 609.733 Q29.4168 605.372 29.4168 597.701 Z" fill="#000000" fill-rule="evenodd" fill-opacity="1" /><path clip-path="url(#clip080)" d="M 0 0 M51.8559 572.239 L30.2762 572.239 L30.2762 566.382 L51.6331 566.382 Q56.6939 566.382 59.2402 564.409 Q61.7546 562.435 61.7546 558.489 Q61.7546 553.746 58.7309 551.009 Q55.7072 548.24 50.4873 548.24 L30.2762 548.24 L30.2762 542.383 L65.9242 542.383 L65.9242 548.24 L60.4496 548.24 Q63.6962 550.372 65.2876 553.205 Q66.8472 556.006 66.8472 559.73 Q66.8472 565.873 63.0278 569.056 Q59.2083 572.239 51.8559 572.239 M29.4168 557.502 L29.4168 557.502 Z" fill="#000000" fill-rule="evenodd" fill-opacity="1" /><path clip-path="url(#clip080)" d="M 0 0 M44.4081 500.688 L65.9242 500.688 L65.9242 506.545 L44.599 506.545 Q39.5383 506.545 37.0238 508.518 Q34.5094 510.491 34.5094 514.438 Q34.5094 519.18 37.5331 521.918 Q40.5568 524.655 45.7767 524.655 L65.9242 524.655 L65.9242 530.543 L30.2762 530.543 L30.2762 524.655 L35.8144 524.655 Q32.5997 522.554 31.0083 519.722 Q29.4168 516.857 29.4168 513.133 Q29.4168 506.99 33.2363 503.839 Q37.0238 500.688 44.4081 500.688 Z" fill="#000000" fill-rule="evenodd" fill-opacity="1" /><path clip-path="url(#clip080)" d="M 0 0 M20.1547 483.214 L30.2762 483.214 L30.2762 471.151 L34.8277 471.151 L34.8277 483.214 L54.1794 483.214 Q58.5399 483.214 59.7813 482.037 Q61.0226 480.827 61.0226 477.167 L61.0226 471.151 L65.9242 471.151 L65.9242 477.167 Q65.9242 483.946 63.4097 486.524 Q60.8634 489.102 54.1794 489.102 L34.8277 489.102 L34.8277 493.399 L30.2762 493.399 L30.2762 489.102 L20.1547 489.102 L20.1547 483.214 Z" fill="#000000" fill-rule="evenodd" fill-opacity="1" /><path clip-path="url(#clip080)" d="M 0 0 M31.3265 440.723 L36.8647 440.723 Q35.5916 443.206 34.955 445.879 Q34.3184 448.553 34.3184 451.418 Q34.3184 455.778 35.6552 457.974 Q36.992 460.139 39.6656 460.139 Q41.7026 460.139 42.8803 458.579 Q44.0261 457.019 45.0765 452.309 L45.5221 450.304 Q46.8589 444.065 49.3097 441.455 Q51.7286 438.813 56.0891 438.813 Q61.0544 438.813 63.9508 442.76 Q66.8472 446.675 66.8472 453.55 Q66.8472 456.415 66.2743 459.534 Q65.7332 462.621 64.6192 466.059 L58.5718 466.059 Q60.2587 462.812 61.118 459.661 Q61.9456 456.51 61.9456 453.423 Q61.9456 449.285 60.5451 447.057 Q59.1129 444.829 56.5347 444.829 Q54.1476 444.829 52.8745 446.452 Q51.6013 448.044 50.4237 453.486 L49.9462 455.523 Q48.8004 460.966 46.4451 463.385 Q44.058 465.804 39.9202 465.804 Q34.8913 465.804 32.1541 462.239 Q29.4168 458.674 29.4168 452.118 Q29.4168 448.871 29.8943 446.007 Q30.3717 443.142 31.3265 440.723 Z" fill="#000000" fill-rule="evenodd" fill-opacity="1" /><path clip-path="url(#clip080)" d="M 0 0 M668.312 20.1573 L657.212 50.2555 L679.452 50.2555 L668.312 20.1573 M663.694 12.096 L672.97 12.096 L696.02 72.576 L687.513 72.576 L682.004 57.061 L654.741 57.061 L649.232 72.576 L640.603 72.576 L663.694 12.096 Z" fill="#000000" fill-rule="evenodd" fill-opacity="1" /><path clip-path="url(#clip080)" d="M 0 0 M694.318 27.2059 L702.218 27.2059 L716.396 65.2844 L730.574 27.2059 L738.473 27.2059 L721.459 72.576 L711.332 72.576 L694.318 27.2059 Z" fill="#000000" fill-rule="evenodd" fill-opacity="1" /><path clip-path="url(#clip080)" d="M 0 0 M787.57 48.0275 L787.57 51.6733 L753.3 51.6733 Q753.786 59.3701 757.918 63.421 Q762.09 67.4314 769.503 67.4314 Q773.797 67.4314 777.808 66.3781 Q781.858 65.3249 785.828 63.2184 L785.828 70.267 Q781.818 71.9684 777.605 72.8596 Q773.392 73.7508 769.058 73.7508 Q758.201 73.7508 751.841 67.4314 Q745.522 61.1119 745.522 50.3365 Q745.522 39.1965 751.517 32.6746 Q757.553 26.1121 767.761 26.1121 Q776.916 26.1121 782.223 32.0264 Q787.57 37.9003 787.57 48.0275 M780.117 45.84 Q780.036 39.7232 776.673 36.0774 Q773.352 32.4315 767.842 32.4315 Q761.604 32.4315 757.837 35.9558 Q754.11 39.4801 753.543 45.8805 L780.117 45.84 Z" fill="#000000" fill-rule="evenodd" fill-opacity="1" /><path clip-path="url(#clip080)" d="M 0 0 M826.094 34.1734 Q824.839 33.4443 823.34 33.1202 Q821.881 32.7556 820.099 32.7556 Q813.78 32.7556 810.377 36.8875 Q807.015 40.9789 807.015 48.6757 L807.015 72.576 L799.52 72.576 L799.52 27.2059 L807.015 27.2059 L807.015 34.2544 Q809.364 30.1225 813.131 28.1376 Q816.899 26.1121 822.286 26.1121 Q823.056 26.1121 823.988 26.2337 Q824.92 26.3147 826.054 26.5172 L826.094 34.1734 Z" fill="#000000" fill-rule="evenodd" fill-opacity="1" /><path clip-path="url(#clip080)" d="M 0 0 M854.532 49.7694 Q845.498 49.7694 842.014 51.8354 Q838.531 53.9013 838.531 58.8839 Q838.531 62.8538 841.123 65.2034 Q843.756 67.5124 848.253 67.5124 Q854.451 67.5124 858.177 63.1374 Q861.945 58.7219 861.945 51.4303 L861.945 49.7694 L854.532 49.7694 M869.398 46.6907 L869.398 72.576 L861.945 72.576 L861.945 65.6895 Q859.393 69.8214 855.585 71.8063 Q851.777 73.7508 846.268 73.7508 Q839.3 73.7508 835.168 69.8619 Q831.077 65.9325 831.077 59.3701 Q831.077 51.7138 836.181 47.825 Q841.326 43.9361 851.493 43.9361 L861.945 43.9361 L861.945 43.2069 Q861.945 38.0623 858.542 35.2672 Q855.18 32.4315 849.063 32.4315 Q845.174 32.4315 841.488 33.3632 Q837.801 34.295 834.399 36.1584 L834.399 29.2718 Q838.49 27.692 842.338 26.9223 Q846.187 26.1121 849.833 26.1121 Q859.676 26.1121 864.537 31.2163 Q869.398 36.3204 869.398 46.6907 Z" fill="#000000" fill-rule="evenodd" fill-opacity="1" /><path clip-path="url(#clip080)" d="M 0 0 M914.607 49.3643 Q914.607 41.2625 911.244 36.8065 Q907.923 32.3505 901.887 32.3505 Q895.891 32.3505 892.529 36.8065 Q889.207 41.2625 889.207 49.3643 Q889.207 57.4256 892.529 61.8816 Q895.891 66.3376 901.887 66.3376 Q907.923 66.3376 911.244 61.8816 Q914.607 57.4256 914.607 49.3643 M922.06 66.9452 Q922.06 78.5308 916.916 84.1616 Q911.771 89.8329 901.158 89.8329 Q897.228 89.8329 893.744 89.2252 Q890.261 88.6581 886.979 87.4428 L886.979 80.1917 Q890.261 81.9741 893.461 82.8248 Q896.661 83.6755 899.983 83.6755 Q907.315 83.6755 910.961 79.8271 Q914.607 76.0193 914.607 68.282 L914.607 64.5957 Q912.298 68.6061 908.692 70.5911 Q905.087 72.576 900.064 72.576 Q891.719 72.576 886.615 66.2161 Q881.511 59.8562 881.511 49.3643 Q881.511 38.832 886.615 32.472 Q891.719 26.1121 900.064 26.1121 Q905.087 26.1121 908.692 28.0971 Q912.298 30.082 914.607 34.0924 L914.607 27.2059 L922.06 27.2059 L922.06 66.9452 Z" fill="#000000" fill-rule="evenodd" fill-opacity="1" /><path clip-path="url(#clip080)" d="M 0 0 M976.221 48.0275 L976.221 51.6733 L941.95 51.6733 Q942.436 59.3701 946.568 63.421 Q950.741 67.4314 958.154 67.4314 Q962.448 67.4314 966.458 66.3781 Q970.509 65.3249 974.479 63.2184 L974.479 70.267 Q970.469 71.9684 966.256 72.8596 Q962.043 73.7508 957.708 73.7508 Q946.852 73.7508 940.492 67.4314 Q934.172 61.1119 934.172 50.3365 Q934.172 39.1965 940.168 32.6746 Q946.204 26.1121 956.412 26.1121 Q965.567 26.1121 970.874 32.0264 Q976.221 37.9003 976.221 48.0275 M968.767 45.84 Q968.686 39.7232 965.324 36.0774 Q962.002 32.4315 956.493 32.4315 Q950.255 32.4315 946.487 35.9558 Q942.76 39.4801 942.193 45.8805 L968.767 45.84 Z" fill="#000000" fill-rule="evenodd" fill-opacity="1" /><path clip-path="url(#clip080)" d="M 0 0 M1023.33 18.8205 L1023.33 41.5461 L1033.62 41.5461 Q1039.33 41.5461 1042.45 38.5889 Q1045.57 35.6318 1045.57 30.163 Q1045.57 24.7348 1042.45 21.7777 Q1039.33 18.8205 1033.62 18.8205 L1023.33 18.8205 M1015.15 12.096 L1033.62 12.096 Q1043.79 12.096 1048.98 16.714 Q1054.2 21.2916 1054.2 30.163 Q1054.2 39.1155 1048.98 43.6931 Q1043.79 48.2706 1033.62 48.2706 L1023.33 48.2706 L1023.33 72.576 L1015.15 72.576 L1015.15 12.096 Z" fill="#000000" fill-rule="evenodd" fill-opacity="1" /><path clip-path="url(#clip080)" d="M 0 0 M1102.57 45.1919 L1102.57 72.576 L1095.11 72.576 L1095.11 45.4349 Q1095.11 38.994 1092.6 35.7938 Q1090.09 32.5936 1085.07 32.5936 Q1079.03 32.5936 1075.55 36.4419 Q1072.07 40.2903 1072.07 46.9338 L1072.07 72.576 L1064.57 72.576 L1064.57 9.54393 L1072.07 9.54393 L1072.07 34.2544 Q1074.74 30.163 1078.34 28.1376 Q1081.99 26.1121 1086.73 26.1121 Q1094.55 26.1121 1098.56 30.9732 Q1102.57 35.7938 1102.57 45.1919 Z" fill="#000000" fill-rule="evenodd" fill-opacity="1" /><path clip-path="url(#clip080)" d="M 0 0 M1135.02 32.4315 Q1129.02 32.4315 1125.54 37.1306 Q1122.05 41.7891 1122.05 49.9314 Q1122.05 58.0738 1125.5 62.7728 Q1128.98 67.4314 1135.02 67.4314 Q1140.97 67.4314 1144.45 62.7323 Q1147.94 58.0333 1147.94 49.9314 Q1147.94 41.8701 1144.45 37.1711 Q1140.97 32.4315 1135.02 32.4315 M1135.02 26.1121 Q1144.74 26.1121 1150.29 32.4315 Q1155.84 38.7509 1155.84 49.9314 Q1155.84 61.0714 1150.29 67.4314 Q1144.74 73.7508 1135.02 73.7508 Q1125.25 73.7508 1119.7 67.4314 Q1114.19 61.0714 1114.19 49.9314 Q1114.19 38.7509 1119.7 32.4315 Q1125.25 26.1121 1135.02 26.1121 Z" fill="#000000" fill-rule="evenodd" fill-opacity="1" /><path clip-path="url(#clip080)" d="M 0 0 M1175.57 14.324 L1175.57 27.2059 L1190.92 27.2059 L1190.92 32.9987 L1175.57 32.9987 L1175.57 57.6282 Q1175.57 63.1779 1177.06 64.7578 Q1178.6 66.3376 1183.26 66.3376 L1190.92 66.3376 L1190.92 72.576 L1183.26 72.576 Q1174.63 72.576 1171.35 69.3758 Q1168.07 66.1351 1168.07 57.6282 L1168.07 32.9987 L1162.6 32.9987 L1162.6 27.2059 L1168.07 27.2059 L1168.07 14.324 L1175.57 14.324 Z" fill="#000000" fill-rule="evenodd" fill-opacity="1" /><path clip-path="url(#clip080)" d="M 0 0 M1218.3 32.4315 Q1212.31 32.4315 1208.82 37.1306 Q1205.34 41.7891 1205.34 49.9314 Q1205.34 58.0738 1208.78 62.7728 Q1212.27 67.4314 1218.3 67.4314 Q1224.26 67.4314 1227.74 62.7323 Q1231.23 58.0333 1231.23 49.9314 Q1231.23 41.8701 1227.74 37.1711 Q1224.26 32.4315 1218.3 32.4315 M1218.3 26.1121 Q1228.03 26.1121 1233.57 32.4315 Q1239.12 38.7509 1239.12 49.9314 Q1239.12 61.0714 1233.57 67.4314 Q1228.03 73.7508 1218.3 73.7508 Q1208.54 73.7508 1202.99 67.4314 Q1197.48 61.0714 1197.48 49.9314 Q1197.48 38.7509 1202.99 32.4315 Q1208.54 26.1121 1218.3 26.1121 Z" fill="#000000" fill-rule="evenodd" fill-opacity="1" /><path clip-path="url(#clip080)" d="M 0 0 M1289.19 45.1919 L1289.19 72.576 L1281.74 72.576 L1281.74 45.4349 Q1281.74 38.994 1279.23 35.7938 Q1276.72 32.5936 1271.69 32.5936 Q1265.66 32.5936 1262.17 36.4419 Q1258.69 40.2903 1258.69 46.9338 L1258.69 72.576 L1251.2 72.576 L1251.2 27.2059 L1258.69 27.2059 L1258.69 34.2544 Q1261.36 30.163 1264.97 28.1376 Q1268.62 26.1121 1273.35 26.1121 Q1281.17 26.1121 1285.18 30.9732 Q1289.19 35.7938 1289.19 45.1919 Z" fill="#000000" fill-rule="evenodd" fill-opacity="1" /><path clip-path="url(#clip080)" d="M 0 0 M1376.05 16.7545 L1376.05 25.383 Q1371.91 21.5346 1367.21 19.6307 Q1362.56 17.7268 1357.29 17.7268 Q1346.92 17.7268 1341.41 24.0867 Q1335.9 30.4061 1335.9 42.3968 Q1335.9 54.3469 1341.41 60.7069 Q1346.92 67.0263 1357.29 67.0263 Q1362.56 67.0263 1367.21 65.1223 Q1371.91 63.2184 1376.05 59.3701 L1376.05 67.9175 Q1371.75 70.8341 1366.93 72.2924 Q1362.15 73.7508 1356.8 73.7508 Q1343.07 73.7508 1335.17 65.3654 Q1327.27 56.9395 1327.27 42.3968 Q1327.27 27.8135 1335.17 19.4281 Q1343.07 11.0023 1356.8 11.0023 Q1362.23 11.0023 1367.01 12.4606 Q1371.83 13.8784 1376.05 16.7545 Z" fill="#000000" fill-rule="evenodd" fill-opacity="1" /><path clip-path="url(#clip080)" d="M 0 0 M1405.94 32.4315 Q1399.95 32.4315 1396.46 37.1306 Q1392.98 41.7891 1392.98 49.9314 Q1392.98 58.0738 1396.42 62.7728 Q1399.9 67.4314 1405.94 67.4314 Q1411.9 67.4314 1415.38 62.7323 Q1418.86 58.0333 1418.86 49.9314 Q1418.86 41.8701 1415.38 37.1711 Q1411.9 32.4315 1405.94 32.4315 M1405.94 26.1121 Q1415.66 26.1121 1421.21 32.4315 Q1426.76 38.7509 1426.76 49.9314 Q1426.76 61.0714 1421.21 67.4314 Q1415.66 73.7508 1405.94 73.7508 Q1396.18 73.7508 1390.63 67.4314 Q1385.12 61.0714 1385.12 49.9314 Q1385.12 38.7509 1390.63 32.4315 Q1396.18 26.1121 1405.94 26.1121 Z" fill="#000000" fill-rule="evenodd" fill-opacity="1" /><path clip-path="url(#clip080)" d="M 0 0 M1438.35 54.671 L1438.35 27.2059 L1445.8 27.2059 L1445.8 54.3874 Q1445.8 60.8284 1448.31 64.0691 Q1450.82 67.2693 1455.85 67.2693 Q1461.88 67.2693 1465.37 63.421 Q1468.89 59.5726 1468.89 52.9291 L1468.89 27.2059 L1476.35 27.2059 L1476.35 72.576 L1468.89 72.576 L1468.89 65.6084 Q1466.18 69.7404 1462.57 71.7658 Q1459.01 73.7508 1454.27 73.7508 Q1446.45 73.7508 1442.4 68.8897 Q1438.35 64.0286 1438.35 54.671 M1457.1 26.1121 L1457.1 26.1121 Z" fill="#000000" fill-rule="evenodd" fill-opacity="1" /><path clip-path="url(#clip080)" d="M 0 0 M1529.41 45.1919 L1529.41 72.576 L1521.96 72.576 L1521.96 45.4349 Q1521.96 38.994 1519.45 35.7938 Q1516.94 32.5936 1511.91 32.5936 Q1505.88 32.5936 1502.39 36.4419 Q1498.91 40.2903 1498.91 46.9338 L1498.91 72.576 L1491.41 72.576 L1491.41 27.2059 L1498.91 27.2059 L1498.91 34.2544 Q1501.58 30.163 1505.19 28.1376 Q1508.83 26.1121 1513.57 26.1121 Q1521.39 26.1121 1525.4 30.9732 Q1529.41 35.7938 1529.41 45.1919 Z" fill="#000000" fill-rule="evenodd" fill-opacity="1" /><path clip-path="url(#clip080)" d="M 0 0 M1551.65 14.324 L1551.65 27.2059 L1567 27.2059 L1567 32.9987 L1551.65 32.9987 L1551.65 57.6282 Q1551.65 63.1779 1553.15 64.7578 Q1554.69 66.3376 1559.35 66.3376 L1567 66.3376 L1567 72.576 L1559.35 72.576 Q1550.72 72.576 1547.44 69.3758 Q1544.16 66.1351 1544.16 57.6282 L1544.16 32.9987 L1538.69 32.9987 L1538.69 27.2059 L1544.16 27.2059 L1544.16 14.324 L1551.65 14.324 Z" fill="#000000" fill-rule="evenodd" fill-opacity="1" /><path clip-path="url(#clip080)" d="M 0 0 M1605.73 28.5427 L1605.73 35.5912 Q1602.57 33.9709 1599.17 33.1607 Q1595.77 32.3505 1592.12 32.3505 Q1586.57 32.3505 1583.78 34.0519 Q1581.02 35.7533 1581.02 39.156 Q1581.02 41.7486 1583.01 43.2475 Q1584.99 44.7058 1590.99 46.0426 L1593.54 46.6097 Q1601.48 48.3111 1604.8 51.4303 Q1608.16 54.509 1608.16 60.0587 Q1608.16 66.3781 1603.14 70.0644 Q1598.16 73.7508 1589.41 73.7508 Q1585.76 73.7508 1581.79 73.0216 Q1577.86 72.3329 1573.49 70.9151 L1573.49 63.2184 Q1577.62 65.3654 1581.63 66.4591 Q1585.64 67.5124 1589.57 67.5124 Q1594.83 67.5124 1597.67 65.73 Q1600.51 63.9071 1600.51 60.6258 Q1600.51 57.5877 1598.44 55.9673 Q1596.41 54.3469 1589.49 52.8481 L1586.89 52.2405 Q1579.97 50.7821 1576.89 47.7845 Q1573.81 44.7463 1573.81 39.4801 Q1573.81 33.0797 1578.35 29.5959 Q1582.88 26.1121 1591.23 26.1121 Q1595.36 26.1121 1599.01 26.7198 Q1602.65 27.3274 1605.73 28.5427 Z" fill="#000000" fill-rule="evenodd" fill-opacity="1" /><path clip-path="url(#clip080)" d="M 0 0 M1641.06 27.2059 L1648.95 27.2059 L1663.13 65.2844 L1677.31 27.2059 L1685.21 27.2059 L1668.2 72.576 L1658.07 72.576 L1641.06 27.2059 Z" fill="#000000" fill-rule="evenodd" fill-opacity="1" /><path clip-path="url(#clip080)" d="M 0 0 M1724.42 28.5427 L1724.42 35.5912 Q1721.26 33.9709 1717.86 33.1607 Q1714.46 32.3505 1710.81 32.3505 Q1705.26 32.3505 1702.47 34.0519 Q1699.71 35.7533 1699.71 39.156 Q1699.71 41.7486 1701.7 43.2475 Q1703.68 44.7058 1709.68 46.0426 L1712.23 46.6097 Q1720.17 48.3111 1723.49 51.4303 Q1726.85 54.509 1726.85 60.0587 Q1726.85 66.3781 1721.83 70.0644 Q1716.85 73.7508 1708.1 73.7508 Q1704.45 73.7508 1700.48 73.0216 Q1696.55 72.3329 1692.18 70.9151 L1692.18 63.2184 Q1696.31 65.3654 1700.32 66.4591 Q1704.33 67.5124 1708.26 67.5124 Q1713.53 67.5124 1716.36 65.73 Q1719.2 63.9071 1719.2 60.6258 Q1719.2 57.5877 1717.13 55.9673 Q1715.11 54.3469 1708.18 52.8481 L1705.59 52.2405 Q1698.66 50.7821 1695.58 47.7845 Q1692.5 44.7463 1692.5 39.4801 Q1692.5 33.0797 1697.04 29.5959 Q1701.58 26.1121 1709.92 26.1121 Q1714.05 26.1121 1717.7 26.7198 Q1721.34 27.3274 1724.42 28.5427 Z" fill="#000000" fill-rule="evenodd" fill-opacity="1" /><path clip-path="url(#clip080)" d="M 0 0 M1757.03 12.096 L1808.2 12.096 L1808.2 18.9825 L1786.73 18.9825 L1786.73 72.576 L1778.5 72.576 L1778.5 18.9825 L1757.03 18.9825 L1757.03 12.096 Z" fill="#000000" fill-rule="evenodd" fill-opacity="1" /><path clip-path="url(#clip080)" d="M 0 0 M1813.22 27.2059 L1820.67 27.2059 L1820.67 72.576 L1813.22 72.576 L1813.22 27.2059 M1813.22 9.54393 L1820.67 9.54393 L1820.67 18.9825 L1813.22 18.9825 L1813.22 9.54393 Z" fill="#000000" fill-rule="evenodd" fill-opacity="1" /><path clip-path="url(#clip080)" d="M 0 0 M1871.59 35.9153 Q1874.39 30.8922 1878.28 28.5022 Q1882.17 26.1121 1887.43 26.1121 Q1894.52 26.1121 1898.37 31.0947 Q1902.22 36.0368 1902.22 45.1919 L1902.22 72.576 L1894.72 72.576 L1894.72 45.4349 Q1894.72 38.913 1892.41 35.7533 Q1890.1 32.5936 1885.37 32.5936 Q1879.57 32.5936 1876.21 36.4419 Q1872.85 40.2903 1872.85 46.9338 L1872.85 72.576 L1865.35 72.576 L1865.35 45.4349 Q1865.35 38.8725 1863.04 35.7533 Q1860.74 32.5936 1855.92 32.5936 Q1850.2 32.5936 1846.84 36.4824 Q1843.48 40.3308 1843.48 46.9338 L1843.48 72.576 L1835.98 72.576 L1835.98 27.2059 L1843.48 27.2059 L1843.48 34.2544 Q1846.03 30.082 1849.6 28.0971 Q1853.16 26.1121 1858.06 26.1121 Q1863 26.1121 1866.45 28.6237 Q1869.93 31.1352 1871.59 35.9153 Z" fill="#000000" fill-rule="evenodd" fill-opacity="1" /><path clip-path="url(#clip080)" d="M 0 0 M1955.89 48.0275 L1955.89 51.6733 L1921.62 51.6733 Q1922.11 59.3701 1926.24 63.421 Q1930.41 67.4314 1937.82 67.4314 Q1942.12 67.4314 1946.13 66.3781 Q1950.18 65.3249 1954.15 63.2184 L1954.15 70.267 Q1950.14 71.9684 1945.93 72.8596 Q1941.71 73.7508 1937.38 73.7508 Q1926.52 73.7508 1920.16 67.4314 Q1913.84 61.1119 1913.84 50.3365 Q1913.84 39.1965 1919.84 32.6746 Q1925.87 26.1121 1936.08 26.1121 Q1945.24 26.1121 1950.54 32.0264 Q1955.89 37.9003 1955.89 48.0275 M1948.44 45.84 Q1948.36 39.7232 1944.99 36.0774 Q1941.67 32.4315 1936.16 32.4315 Q1929.93 32.4315 1926.16 35.9558 Q1922.43 39.4801 1921.86 45.8805 L1948.44 45.84 Z" fill="#000000" fill-rule="evenodd" fill-opacity="1" /><polyline clip-path="url(#clip082)" style="stroke:#009af9; stroke-width:4; stroke-opacity:1; fill:none" points="
  393.994,959.146 394.898,928.873 395.803,945.382 396.707,1046.09 397.611,1307.52 398.515,1262.53 399.42,1320.16 400.324,1250.19 401.228,1235.96 402.132,1137.36 
  403.037,1213.26 403.941,1187.42 404.845,1049.17 405.749,1161.4 406.654,1230.4 407.558,1314.63 408.462,1313.35 409.366,1287.99 410.271,1198.51 411.175,1063.75 
  412.079,1085.83 412.983,1295.18 413.888,1288.67 414.792,1288.67 415.696,1298.05 416.6,1300.38 417.505,1225.48 418.409,1162.9 419.313,1183.24 420.217,1178.75 
  421.122,1242.48 422.026,1014.26 422.93,1179.93 423.835,1040.76 424.739,570.863 425.643,1050.62 426.547,1230.64 427.452,800.365 428.356,1096.41 429.26,976.272 
  430.164,718.106 431.069,1242.6 431.973,1148.17 432.877,1086.48 433.781,1181.23 434.686,1180.77 435.59,1279.95 436.494,1289.88 437.398,1265.93 438.303,1266.94 
  439.207,1312.57 440.111,1101.64 441.015,859.408 441.92,1063.47 442.824,1194.5 443.728,1021.06 444.632,1269.81 445.537,1184.87 446.441,1099.27 447.345,1314.45 
  448.249,1243.95 449.154,1275.52 450.058,1256.82 450.962,830.588 451.866,676.285 452.771,1155.47 453.675,1294.44 454.579,1287.65 455.483,1313.2 456.388,1321.18 
  457.292,1246.42 458.196,1070.35 459.1,1097.1 460.005,1121.76 460.909,970.314 461.813,1117.81 462.717,1244.27 463.622,1097.82 464.526,1229.64 465.43,866.115 
  466.334,696.685 467.239,1011.12 468.143,1218.69 469.047,1248.26 469.951,1140.36 470.856,1243.67 471.76,1241.29 472.664,1114.23 473.568,1063.19 474.473,1239.24 
  475.377,1316.12 476.281,1245.29 477.185,1143.03 478.09,1209.3 478.994,1316.21 479.898,1314.56 480.802,1245.14 481.707,1105.15 482.611,1124.26 483.515,1274.03 
  484.419,1028.83 485.324,706.789 486.228,1131.91 487.132,1306.06 488.036,1300.32 488.941,1164.97 489.845,1101.12 490.749,1310.02 491.654,1118.03 492.558,1081.28 
  493.462,1211.87 494.366,1298.62 495.271,1323.66 496.175,1282.15 497.079,1075.6 497.983,1030.56 498.888,1171.58 499.792,1228.58 500.696,1231.14 501.6,1090.33 
  502.505,739.906 503.409,919.987 504.313,1320.15 505.217,1115.48 506.122,1169.12 507.026,1289.59 507.93,1319.02 508.834,1134.02 509.739,1103.75 510.643,1304.79 
  511.547,1161.66 512.451,1112.79 513.356,1142.21 514.26,1172.43 515.164,1221.66 516.068,1195.7 516.973,1222.12 517.877,1266.08 518.781,1034.91 519.685,1112 
  520.59,1299.53 521.494,1301.03 522.398,1121.98 523.302,1063.11 524.207,1289.24 525.111,1264.48 526.015,1269.93 526.919,1216.83 527.824,1264.65 528.728,1324.27 
  529.632,1288.35 530.536,1161 531.441,1212.6 532.345,1309.31 533.249,1240.84 534.153,1309.7 535.058,1242.9 535.962,1198.39 536.866,1232.08 537.77,1290.56 
  538.675,1169.15 539.579,1146.29 540.483,1281.05 541.387,1289.33 542.292,1138.19 543.196,949.159 544.1,963.492 545.004,1181.57 545.909,1106.45 546.813,1017.29 
  547.717,1248.31 548.621,1296.54 549.526,1234.3 550.43,639.435 551.334,745.689 552.238,1246.04 553.143,1136.46 554.047,1258.52 554.951,1196.72 555.855,1162.83 
  556.76,1254.14 557.664,1296.86 558.568,1310.65 559.472,1292.31 560.377,1302.51 561.281,1276.89 562.185,1275.59 563.09,1307.1 563.994,1165.11 564.898,1205.88 
  565.802,1161.4 566.707,1113.29 567.611,1242.83 568.515,1195.88 569.419,1236.96 570.324,746.275 571.228,863.441 572.132,1295.38 573.036,1133.33 573.941,1269.52 
  574.845,1289.17 575.749,1175.6 576.653,1035.05 577.558,1029.25 578.462,1261.35 579.366,1310.73 580.27,1305.98 581.175,1265.93 582.079,1154.37 582.983,1187.87 
  583.887,880.787 584.792,1058.33 585.696,1237.86 586.6,841.055 587.504,847.621 588.409,970.456 589.313,1220.25 590.217,1203.34 591.121,1178.58 592.026,1087.23 
  592.93,1084.48 593.834,1315.77 594.738,1180.96 595.643,1114.51 596.547,1258.53 597.451,1302.94 598.355,1112.98 599.26,1149.24 600.164,1121.12 601.068,894.055 
  601.972,1180.31 602.877,1043.15 603.781,695.78 604.685,1205.18 605.589,804.896 606.494,771.035 607.398,1296.91 608.302,831.29 609.206,1045.95 610.111,1280.7 
  611.015,1241.11 611.919,1172.11 612.823,1090.16 613.728,1264.98 614.632,1320.66 615.536,1309.14 616.44,1279.97 617.345,1289.75 618.249,1275.45 619.153,1262.6 
  620.057,1273 620.962,1305.27 621.866,1317.32 622.77,1178.86 623.674,1133.59 624.579,1285.09 625.483,1065.7 626.387,1233.2 627.291,1223.63 628.196,1067.91 
  629.1,1323.4 630.004,1108.05 630.909,1231.96 631.813,756.84 632.717,275.988 633.621,967.802 634.526,1283.07 635.43,1187.6 636.334,1158.46 637.238,1219.62 
  638.143,1306.2 639.047,867.872 639.951,762.032 640.855,1081.07 641.76,1075.54 642.664,1268.65 643.568,1273.2 644.472,1277.08 645.377,1295.44 646.281,1299.59 
  647.185,1207.45 648.089,1071.71 648.994,1178.73 649.898,1246.53 650.802,1222.23 651.706,963.206 652.611,1104.33 653.515,1203.28 654.419,1141.14 655.323,1261.31 
  656.228,1241.34 657.132,1092.62 658.036,1050.93 658.94,1198.14 659.845,1217.81 660.749,1241.01 661.653,1241.27 662.557,896.56 663.462,996.074 664.366,1307.26 
  665.27,739.154 666.174,691.572 667.079,1083.71 667.983,1258.7 668.887,1315.52 669.791,1272.16 670.696,1244.12 671.6,1141.67 672.504,1251.58 673.408,978.097 
  674.313,979.277 675.217,1179.44 676.121,1083.15 677.025,1060.88 677.93,1023.01 678.834,1133.11 679.738,1281.07 680.642,1324.04 681.547,1279.97 682.451,1231.08 
  683.355,1257.98 684.259,1027.04 685.164,1026.3 686.068,1268.2 686.972,714.436 687.876,859.616 688.781,1257.15 689.685,1199.1 690.589,1301.1 691.493,1118.32 
  692.398,1282.94 693.302,1160.67 694.206,887.484 695.11,1065.89 696.015,1222.61 696.919,1290.22 697.823,1291.18 698.728,1295.39 699.632,1261.79 700.536,1102.24 
  701.44,1214.71 702.345,1317.19 703.249,1315.53 704.153,1222.19 705.057,1021.57 705.962,1281.9 706.866,1146.86 707.77,920.354 708.674,733.531 709.579,735.894 
  710.483,1060.84 711.387,1128.15 712.291,1133.41 713.196,852.035 714.1,950.431 715.004,1294.44 715.908,1260.31 716.813,1100.71 717.717,1193.39 718.621,1314.2 
  719.525,1176.56 720.43,1176.16 721.334,1259.66 722.238,1275.5 723.142,1260.87 724.047,617.435 724.951,658.52 725.855,1322.95 726.759,764.062 727.664,857.966 
  728.568,1274.44 729.472,1225.13 730.376,1276.16 731.281,1148.01 732.185,1193.43 733.089,1250.56 733.993,1314.43 734.898,1314.05 735.802,1301.6 736.706,1223.46 
  737.61,1197.96 738.515,1275.28 739.419,1306.46 740.323,1291.6 741.227,1275.09 742.132,1297.87 743.036,1296.94 743.94,1013.54 744.844,1113.04 745.749,1291.2 
  746.653,1043.64 747.557,1289.95 748.461,965.91 749.366,808.907 750.27,1155.39 751.174,1127.15 752.078,1268.65 752.983,1205.89 753.887,1190.39 754.791,1314.82 
  755.695,1233.82 756.6,1009.49 757.504,613.733 758.408,799.077 759.312,1315.81 760.217,1102.85 761.121,1200.5 762.025,1198.42 762.929,1070.35 763.834,1309.76 
  764.738,1227.77 765.642,1265.33 766.547,1324.52 767.451,1291.62 768.355,1146 769.259,1088.77 770.164,1069.21 771.068,1194.37 771.972,1263.2 772.876,1147.82 
  773.781,1182 774.685,1161.12 775.589,1206.73 776.493,1263 777.398,1159.5 778.302,1039.63 779.206,1071.2 780.11,1172.81 781.015,1318.56 781.919,1109.08 
  782.823,1177.58 783.727,1297.78 784.632,1006.34 785.536,952.026 786.44,890.124 787.344,1044.16 788.249,1310.4 789.153,1198.23 790.057,1086.03 790.961,1236.49 
  791.866,1101.97 792.77,1207.14 793.674,1173.3 794.578,920.968 795.483,1126.87 796.387,1184.02 797.291,1140.56 798.195,957.309 799.1,923.367 800.004,1131.27 
  800.908,1284.26 801.812,1318.32 802.717,1324.37 803.621,1321.18 804.525,1251.86 805.429,762.163 806.334,678.85 807.238,1238.5 808.142,1260.18 809.046,1276.5 
  809.951,1299.01 810.855,1247.88 811.759,1308.47 812.663,1238.82 813.568,1014.4 814.472,1051.76 815.376,1222.25 816.28,1289.45 817.185,1285.89 818.089,1212.91 
  818.993,1189.22 819.897,1016.61 820.802,1129.52 821.706,1301.9 822.61,1316.69 823.514,1300.29 824.419,1317.4 825.323,1129.64 826.227,1089.2 827.131,1303.7 
  828.036,1301.82 828.94,1249.59 829.844,994.77 830.748,1000.14 831.653,1148.72 832.557,1281.07 833.461,1261.3 834.365,1108.33 835.27,1174.68 836.174,1278.49 
  837.078,1295.37 837.983,1309.1 838.887,1043.96 839.791,862.355 840.695,1201.81 841.6,1213.54 842.504,1280.16 843.408,1244.15 844.312,1003.34 845.217,1221.71 
  846.121,1176.76 847.025,522.352 847.929,639.273 848.834,1260.97 849.738,1293.89 850.642,1318.05 851.546,1285.83 852.451,1302.13 853.355,1268.09 854.259,1270.56 
  855.163,1313.31 856.068,1316.43 856.972,1286.97 857.876,1151.77 858.78,1106.13 859.685,1137.09 860.589,1267.23 861.493,1313.12 862.397,1213.57 863.302,1097.53 
  864.206,1292.49 865.11,1272.25 866.014,1308.53 866.919,1110.38 867.823,593.629 868.727,894.878 869.631,1283.15 870.536,1323.26 871.44,1321.93 872.344,1306.96 
  873.248,1300.08 874.153,1307.09 875.057,1206.03 875.961,1152.38 876.865,1117.24 877.77,1189.4 878.674,1186.32 879.578,1279.54 880.482,1168.16 881.387,929.559 
  882.291,1264.13 883.195,1131.36 884.099,1138.99 885.004,1304.7 885.908,1240.04 886.812,1320.29 887.716,1242.89 888.621,1189.31 889.525,1207.51 890.429,1147.79 
  891.333,1145.53 892.238,1291.05 893.142,1297.11 894.046,1200.13 894.95,1046.89 895.855,1055.21 896.759,1232.12 897.663,1179.71 898.567,824.216 899.472,1156.15 
  900.376,1169.52 901.28,757.208 902.184,1240.53 903.089,1211.7 903.993,1254.08 904.897,1152.83 905.802,624.421 906.706,1104.65 907.61,1215.27 908.514,726.866 
  909.419,1070.39 910.323,1322.44 911.227,1282.36 912.131,1232.16 913.036,1177.04 913.94,1268.46 914.844,902.284 915.748,853.165 916.653,1047.23 917.557,1225.25 
  918.461,1205.68 919.365,896.21 920.27,824.903 921.174,1046.25 922.078,1294.33 922.982,1268.15 923.887,1231.12 924.791,1040.11 925.695,1107.15 926.599,1220.07 
  927.504,1210.65 928.408,1322.56 929.312,1130.97 930.216,959.709 931.121,1120.27 932.025,1151.94 932.929,1234.19 933.833,1235.69 934.738,1106.21 935.642,1228.31 
  936.546,1202.39 937.45,1165.11 938.355,630.66 939.259,621.678 940.163,1261.32 941.067,1175.69 941.972,1077.83 942.876,1255.27 943.78,1309.81 944.684,1243.8 
  945.589,1258.94 946.493,1191.71 947.397,1246.47 948.301,1252.62 949.206,1264.89 950.11,1297.74 951.014,1227.67 951.918,1208.78 952.823,1242.18 953.727,1321.04 
  954.631,1222.31 955.535,1079.34 956.44,1116.14 957.344,1169.21 958.248,1167.54 959.152,1274.74 960.057,658.764 960.961,719.04 961.865,1312.76 962.769,827.821 
  963.674,1004.62 964.578,1203.23 965.482,845.981 966.386,1173.24 967.291,1041.96 968.195,637.32 969.099,1155.42 970.003,1185.45 970.908,1023.76 971.812,1101.68 
  972.716,1064.07 973.621,1238.79 974.525,1316.48 975.429,1271.41 976.333,1182.34 977.238,1264.25 978.142,1295.81 979.046,1228.04 979.95,985.979 980.855,861.38 
  981.759,955.588 982.663,1215.81 983.567,1244.59 984.472,1044.65 985.376,1166.14 986.28,1008.88 987.184,958.105 988.089,1124.78 988.993,1195.18 989.897,1259.49 
  990.801,1318.15 991.706,1316.86 992.61,1278.22 993.514,1117.82 994.418,1117.12 995.323,1272.53 996.227,1288.91 997.131,1321.69 998.035,1281.04 998.94,1219.93 
  999.844,1118.32 1000.75,1148.26 1001.65,1052.33 1002.56,1247.69 1003.46,1196.93 1004.37,905.116 1005.27,1080.93 1006.17,916.428 1007.08,1038.93 1007.98,1313.13 
  1008.89,1287.99 1009.79,1269.42 1010.69,1180.65 1011.6,1003.18 1012.5,1012.24 1013.41,1182.23 1014.31,1284.8 1015.22,1179.86 1016.12,935.123 1017.02,712.909 
  1017.93,1008.83 1018.83,1296.12 1019.74,982.212 1020.64,1187.8 1021.55,1064.45 1022.45,1023.57 1023.35,1324.06 1024.26,1078 1025.16,1211 1026.07,1287.78 
  1026.97,1070.21 1027.88,1106.75 1028.78,1079.39 1029.68,1082.49 1030.59,1288.38 1031.49,1279.82 1032.4,1246.48 1033.3,1127.85 1034.21,1217.75 1035.11,1270.94 
  1036.01,1119.84 1036.92,977.924 1037.82,865.05 1038.73,1143 1039.63,1233.3 1040.54,1077.97 1041.44,847.526 1042.34,967.854 1043.25,1166.38 1044.15,1269.63 
  1045.06,1294.36 1045.96,1118.35 1046.87,1240.92 1047.77,1309.89 1048.67,1126.59 1049.58,1064.25 1050.48,1242.79 1051.39,1316.8 1052.29,1309.86 1053.19,1313.37 
  1054.1,1274.45 1055,1049.57 1055.91,1097.3 1056.81,1198.48 1057.72,1224.86 1058.62,1277.44 1059.52,1052.58 1060.43,1150.27 1061.33,1155.28 1062.24,1030.54 
  1063.14,1155.88 1064.05,1274.49 1064.95,1013.35 1065.85,1027.69 1066.76,1284.46 1067.66,1284.71 1068.57,1321.34 1069.47,1196.48 1070.38,1234.64 1071.28,1322.04 
  1072.18,1307.68 1073.09,1191.36 1073.99,1086.52 1074.9,1178.42 1075.8,1314.57 1076.71,1253.1 1077.61,1214.07 1078.51,942.502 1079.42,865.583 1080.32,1272.77 
  1081.23,1007.86 1082.13,900.043 1083.04,1177.97 1083.94,1268.85 1084.84,1321.18 1085.75,1148.54 1086.65,960.837 1087.56,1266.9 1088.46,1138.74 1089.36,816.489 
  1090.27,1178.4 1091.17,1316.04 1092.08,1298.82 1092.98,1219.04 1093.89,1250.9 1094.79,1249.72 1095.69,1090.32 1096.6,1078.36 1097.5,1152.51 1098.41,1170.44 
  1099.31,1246.59 1100.22,1290.7 1101.12,1128.54 1102.02,944.736 1102.93,899.996 1103.83,1223.68 1104.74,1316.76 1105.64,1310.84 1106.55,1191.99 1107.45,1143.36 
  1108.35,1217.59 1109.26,1190.46 1110.16,1318.58 1111.07,1218.53 1111.97,1096.59 1112.88,1083.21 1113.78,1250.17 1114.68,1252.93 1115.59,1153.23 1116.49,1286.29 
  1117.4,1315.36 1118.3,1321.53 1119.21,1126.28 1120.11,702.93 1121.01,1138.42 1121.92,1158.25 1122.82,647.507 1123.73,1168.46 1124.63,1277.51 1125.54,1217.48 
  1126.44,917.677 1127.34,652.98 1128.25,1110.86 1129.15,1281.74 1130.06,1314.8 1130.96,1275.48 1131.86,1218.75 1132.77,1208.78 1133.67,1176.22 1134.58,1193.67 
  1135.48,1237.54 1136.39,1277.64 1137.29,1315.18 1138.19,1202.53 1139.1,1273.38 1140,1248.43 1140.91,1051.3 1141.81,1020.99 1142.72,1206.95 1143.62,1147.69 
  1144.52,825.951 1145.43,1146.02 1146.33,998.805 1147.24,910.988 1148.14,1268.72 1149.05,1177.62 1149.95,1207.89 1150.85,1306.99 1151.76,1285.35 1152.66,1197.62 
  1153.57,974.373 1154.47,981.747 1155.38,1252.27 1156.28,1286.46 1157.18,1324.83 1158.09,1193.48 1158.99,1122.82 1159.9,1208.99 1160.8,1290.1 1161.71,1261.57 
  1162.61,1169.36 1163.51,1196.99 1164.42,1185.56 1165.32,1296.68 1166.23,1269.42 1167.13,1307.6 1168.03,1168.24 1168.94,1197.36 1169.84,1306.77 1170.75,1073.52 
  1171.65,1119.35 1172.56,1291.35 1173.46,1263.81 1174.36,954.102 1175.27,953.693 1176.17,1239.17 1177.08,1118.18 1177.98,1116.2 1178.89,1298.1 1179.79,972.433 
  1180.69,996.699 1181.6,1058.41 1182.5,1089.91 1183.41,1316.34 1184.31,1258.49 1185.22,1261.65 1186.12,1173.46 1187.02,1173.03 1187.93,974.04 1188.83,1080.56 
  1189.74,1298.89 1190.64,1134 1191.55,1112.03 1192.45,1102.3 1193.35,1204.87 1194.26,1319.71 1195.16,1224.51 1196.07,1158.67 1196.97,1277.2 1197.88,1289.7 
  1198.78,1299.38 1199.68,1246.45 1200.59,1028.15 1201.49,875.43 1202.4,1107.01 1203.3,1167.13 1204.21,1233.45 1205.11,1275.72 1206.01,1057.84 1206.92,1276.95 
  1207.82,1142.23 1208.73,1007.33 1209.63,1141.15 1210.53,1242.42 1211.44,1298.38 1212.34,1269.49 1213.25,1250.62 1214.15,1216.98 1215.06,1251.1 1215.96,1154.05 
  1216.86,1156.12 1217.77,1231.22 1218.67,1187.29 1219.58,1172.91 1220.48,1285.04 1221.39,1263.79 1222.29,1100.66 1223.19,756.155 1224.1,903.394 1225,1190.99 
  1225.91,1209.68 1226.81,1235.06 1227.72,1002.2 1228.62,1247.84 1229.52,1186.79 1230.43,980.778 1231.33,1179.96 1232.24,1242.01 1233.14,1151.14 1234.05,1146.72 
  1234.95,1314.87 1235.85,910.119 1236.76,776.464 1237.66,1133.01 1238.57,847.404 1239.47,1057.69 1240.38,1264.95 1241.28,864.521 1242.18,1206.53 1243.09,836.133 
  1243.99,677.145 1244.9,1152.83 1245.8,1150.54 1246.7,1320.7 1247.61,1086.1 1248.51,1063.08 1249.42,1127.62 1250.32,1159.89 1251.23,1294.85 1252.13,1126.53 
  1253.03,1088.21 1253.94,1226.99 1254.84,1298.85 1255.75,1302.75 1256.65,1309.11 1257.56,1302.19 1258.46,1289.92 1259.36,1308.9 1260.27,1204.05 1261.17,1249.21 
  1262.08,1090.59 1262.98,368.912 1263.89,857.975 1264.79,1312.65 1265.69,1178.93 1266.6,1232.85 1267.5,826.778 1268.41,1091.94 1269.31,1126.87 1270.22,677.064 
  1271.12,846.045 1272.02,1118.59 1272.93,1271.5 1273.83,1300.74 1274.74,1180.76 1275.64,1278.71 1276.55,1155.79 1277.45,1062.03 1278.35,1290.23 1279.26,1312.14 
  1280.16,1288.71 1281.07,1259.91 1281.97,1321 1282.88,1274.54 1283.78,1202.24 1284.68,948.351 1285.59,1040.5 1286.49,1267.24 1287.4,1200.48 1288.3,1218.87 
  1289.2,1024.27 1290.11,1196.07 1291.01,1298.19 1291.92,1006.07 1292.82,783.599 1293.73,967.847 1294.63,1315.21 1295.53,1147.57 1296.44,1101.71 1297.34,1311.8 
  1298.25,1145 1299.15,1266.72 1300.06,887.713 1300.96,365.08 1301.86,1100.1 1302.77,1240.88 1303.67,1005.18 1304.58,1127.53 1305.48,1265.73 1306.39,1323.2 
  1307.29,1307.75 1308.19,1126.96 1309.1,868.374 1310,1108.4 1310.91,1185.12 1311.81,1150.07 1312.72,1078.45 1313.62,877.61 1314.52,942.09 1315.43,1231.74 
  1316.33,1319.94 1317.24,1277.06 1318.14,1306.3 1319.05,1287.14 1319.95,1075.52 1320.85,1090.93 1321.76,1166.31 1322.66,1058.7 1323.57,1289.93 1324.47,1013.56 
  1325.38,895.373 1326.28,1245.29 1327.18,1294.71 1328.09,1228.84 1328.99,1216.8 1329.9,1297.51 1330.8,1317.88 1331.7,1309.92 1332.61,1229.25 1333.51,1011.49 
  1334.42,754.902 1335.32,1085.37 1336.23,1318.17 1337.13,1226.84 1338.03,1287.81 1338.94,1261.18 1339.84,1200.79 1340.75,1227.09 1341.65,1262.08 1342.56,1292.65 
  1343.46,1136.72 1344.36,820.818 1345.27,963.963 1346.17,966.645 1347.08,1080.49 1347.98,1137.02 1348.89,991.337 1349.79,1201.07 1350.69,1268.39 1351.6,1296.9 
  1352.5,1318.57 1353.41,1200 1354.31,918.393 1355.22,932.161 1356.12,1163.73 1357.02,1246.94 1357.93,1288.57 1358.83,1227.5 1359.74,1207.79 1360.64,1304.14 
  1361.55,732.506 1362.45,583.9 1363.35,1194.87 1364.26,1208.32 1365.16,1297.67 1366.07,1199.09 1366.97,1195.67 1367.87,1269.44 1368.78,1190.84 1369.68,1208.67 
  1370.59,1053.22 1371.49,1194.26 1372.4,1311.66 1373.3,1234.04 1374.2,1241.53 1375.11,1283.84 1376.01,1251.73 1376.92,1215.45 1377.82,1257.16 1378.73,1312.06 
  1379.63,1216.05 1380.53,1302.2 1381.44,965.006 1382.34,651.944 1383.25,956.355 1384.15,1053.63 1385.06,1280.22 1385.96,1254.39 1386.86,1214.03 1387.77,1307.37 
  1388.67,1267.56 1389.58,1235.25 1390.48,1172.99 1391.39,1206.27 1392.29,1205.24 1393.19,1171.15 1394.1,1268.74 1395,1112.27 1395.91,995.386 1396.81,1311.01 
  1397.72,1143.91 1398.62,1104.03 1399.52,1271.19 1400.43,1309.53 1401.33,1289.45 1402.24,1216.02 1403.14,1275.06 1404.05,1304.69 1404.95,1288.21 1405.85,1068.05 
  1406.76,1138.66 1407.66,1283.31 1408.57,1315.49 1409.47,1216.95 1410.37,1059.21 1411.28,1122.84 1412.18,1204.28 1413.09,1251.02 1413.99,1317.9 1414.9,1231.71 
  1415.8,1110.88 1416.7,992.528 1417.61,974.349 1418.51,1302.36 1419.42,1159.16 1420.32,1157.16 1421.23,1269.38 1422.13,1217.11 1423.03,1232.51 1423.94,932.958 
  1424.84,938.024 1425.75,1211.08 1426.65,1293.81 1427.56,1280.71 1428.46,1267.27 1429.36,983.105 1430.27,973.273 1431.17,1122.69 1432.08,1168.42 1432.98,1271.87 
  1433.89,1107.91 1434.79,921.937 1435.69,1149.56 1436.6,1320.68 1437.5,1253.5 1438.41,1314.55 1439.31,1225.64 1440.22,1298.55 1441.12,1052.06 1442.02,1110.08 
  1442.93,1231.7 1443.83,478.006 1444.74,617.412 1445.64,1257.21 1446.54,1286.27 1447.45,1293.7 1448.35,1245.61 1449.26,1238.09 1450.16,1225.95 1451.07,863.706 
  1451.97,914.122 1452.87,1118.29 1453.78,1307.04 1454.68,1124.67 1455.59,956.439 1456.49,1304.11 1457.4,1172.42 1458.3,1209.43 1459.2,1266.8 1460.11,1183.63 
  1461.01,1261.52 1461.92,1290.44 1462.82,1267.34 1463.73,1306.33 1464.63,1301.12 1465.53,1260.86 1466.44,1263.93 1467.34,1194.2 1468.25,1273.89 1469.15,1324.55 
  1470.06,1307.83 1470.96,1259.57 1471.86,1276.04 1472.77,1256.23 1473.67,972.139 1474.58,536.443 1475.48,1009.62 1476.39,1230.07 1477.29,595.833 1478.19,1009.95 
  1479.1,1307.5 1480,1224.62 1480.91,1304.94 1481.81,800.839 1482.72,687.777 1483.62,1271.73 1484.52,1104.99 1485.43,1014.7 1486.33,1299.81 1487.24,1241.11 
  1488.14,1286.41 1489.04,1285.47 1489.95,1318.5 1490.85,1159.58 1491.76,1108.94 1492.66,1283.42 1493.57,1311.91 1494.47,1277.72 1495.37,1226.85 1496.28,1117.42 
  1497.18,1267.59 1498.09,1170.92 1498.99,942.01 1499.9,1194.17 1500.8,1126.69 1501.7,1226.43 1502.61,1038.58 1503.51,787.674 1504.42,1241.46 1505.32,1180.1 
  1506.23,828.285 1507.13,999.222 1508.03,1132.3 1508.94,1211.71 1509.84,1323.34 1510.75,1268.28 1511.65,1317.94 1512.56,1279.02 1513.46,1307.24 1514.36,1295.32 
  1515.27,1212.22 1516.17,1008.57 1517.08,1178.17 1517.98,1266.45 1518.89,909.008 1519.79,983.563 1520.69,1003.81 1521.6,1177.6 1522.5,1306.91 1523.41,1262.22 
  1524.31,1194.51 1525.22,1114.23 1526.12,1212.44 1527.02,1277.18 1527.93,1298.45 1528.83,1291.11 1529.74,1233.66 1530.64,1209.25 1531.54,1224.46 1532.45,1276.71 
  1533.35,1317.64 1534.26,1302.51 1535.16,1201.76 1536.07,548.126 1536.97,773.801 1537.87,1316.58 1538.78,1019.63 1539.68,1124.6 1540.59,1291.71 1541.49,1312.71 
  1542.4,1193 1543.3,1050.42 1544.2,1071.16 1545.11,1203.44 1546.01,1288.11 1546.92,1314.24 1547.82,1319.32 1548.73,1322.17 1549.63,1198.07 1550.53,1043.67 
  1551.44,987.553 1552.34,845.521 1553.25,1036.32 1554.15,1218.31 1555.06,890.357 1555.96,662.285 1556.86,1090.64 1557.77,1110.33 1558.67,1195.48 1559.58,1222.22 
  1560.48,818.269 1561.39,1161.5 1562.29,1134.59 1563.19,1096.82 1564.1,1152.95 1565,789.403 1565.91,1047.62 1566.81,1284.63 1567.71,1066.85 1568.62,943.511 
  1569.52,833.466 1570.43,1152.72 1571.33,1302.1 1572.24,1189.86 1573.14,1152.38 1574.04,1064.6 1574.95,1316.66 1575.85,1061.39 1576.76,1105.75 1577.66,1317.95 
  1578.57,1239.46 1579.47,1321.41 1580.37,1140.08 1581.28,1124.13 1582.18,1178.03 1583.09,1251.93 1583.99,1319.51 1584.9,1312.32 1585.8,1316.05 1586.7,1280.35 
  1587.61,1139.77 1588.51,1119.55 1589.42,1250 1590.32,1292.21 1591.23,1108.34 1592.13,1062.19 1593.03,1073.65 1593.94,1214.22 1594.84,1256.69 1595.75,919.997 
  1596.65,1259.87 1597.56,782.742 1598.46,360.083 1599.36,1157.11 1600.27,1018.36 1601.17,906.094 1602.08,1308.55 1602.98,1008.81 1603.89,1063.09 1604.79,1311.13 
  1605.69,976.163 1606.6,1125.63 1607.5,1241.96 1608.41,1183.11 1609.31,1163.13 1610.21,1172.67 1611.12,1262.03 1612.02,1177.26 1612.93,1166.53 1613.83,1212.38 
  1614.74,1261.2 1615.64,1277.75 1616.54,963.14 1617.45,603.042 1618.35,1091.62 1619.26,1306.63 1620.16,1249.17 1621.07,1233.91 1621.97,931.407 1622.87,1169.13 
  1623.78,1296.82 1624.68,1032.78 1625.59,1070.63 1626.49,1264.64 1627.4,1271.58 1628.3,1261.71 1629.2,1256.52 1630.11,1288.83 1631.01,1023.91 1631.92,969.79 
  1632.82,1250.03 1633.73,1267.81 1634.63,1275.81 1635.53,1313.99 1636.44,1106.78 1637.34,953.435 1638.25,1288.81 1639.15,1182.51 1640.06,1049.36 1640.96,897.332 
  1641.86,713.028 1642.77,1015.16 1643.67,1204.32 1644.58,1314.37 1645.48,1209.63 1646.38,1112.31 1647.29,1172.06 1648.19,1218.18 1649.1,1237.04 1650,1242.25 
  1650.91,1256.21 1651.81,1324.02 1652.71,1209.74 1653.62,1229.03 1654.52,1146.5 1655.43,938.648 1656.33,1154.1 1657.24,1167.32 1658.14,968.511 1659.04,868.423 
  1659.95,1120.72 1660.85,1302.23 1661.76,1314.19 1662.66,1125.13 1663.57,1122.98 1664.47,1311.7 1665.37,1083.05 1666.28,1123.15 1667.18,1284.63 1668.09,1298.44 
  1668.99,1290.79 1669.9,1320.59 1670.8,1318.51 1671.7,1290.41 1672.61,1047.81 1673.51,820.606 1674.42,978.96 1675.32,1215.61 1676.23,1039.34 1677.13,995.345 
  1678.03,1059.08 1678.94,660.049 1679.84,961.731 1680.75,1302.77 1681.65,1308.38 1682.56,1285.61 1683.46,1153.25 1684.36,1192.07 1685.27,1187.47 1686.17,1247.65 
  1687.08,1240.9 1687.98,1186.61 1688.88,1127.97 1689.79,1083.66 1690.69,1239.64 1691.6,1286.06 1692.5,1122.22 1693.41,1275.64 1694.31,1255.74 1695.21,1283.16 
  1696.12,1196.96 1697.02,1072.26 1697.93,1319.2 1698.83,1105.27 1699.74,1157.33 1700.64,1304.08 1701.54,1251.88 1702.45,1175.88 1703.35,1162.43 1704.26,1292.24 
  1705.16,1318.39 1706.07,1293.39 1706.97,1258.32 1707.87,1285.85 1708.78,1138.69 1709.68,894.092 1710.59,987.207 1711.49,1271.42 1712.4,1247.5 1713.3,1307.46 
  1714.2,1276.24 1715.11,1271.15 1716.01,1187.12 1716.92,898.956 1717.82,984.747 1718.73,1153.82 1719.63,1198.94 1720.53,1120.26 1721.44,1195.89 1722.34,1316.51 
  1723.25,1227.92 1724.15,981.3 1725.05,1199.8 1725.96,1238.02 1726.86,986.554 1727.77,1175.07 1728.67,1310.3 1729.58,1272.88 1730.48,1010.87 1731.38,1039.15 
  1732.29,1256.49 1733.19,1315.96 1734.1,1288.98 1735,1242.93 1735.91,1256.97 1736.81,1282.56 1737.71,1056.35 1738.62,1041.41 1739.52,1304.34 1740.43,1265.05 
  1741.33,1234.14 1742.24,1240.65 1743.14,1321.77 1744.04,1161.48 1744.95,1205.19 1745.85,1284.34 1746.76,1170.17 1747.66,1289.09 1748.57,1309.43 1749.47,1151.55 
  1750.37,921.297 1751.28,1073.35 1752.18,1293.83 1753.09,1295.03 1753.99,1307.52 1754.9,1300.11 1755.8,1309.89 1756.7,1184.3 1757.61,648.504 1758.51,849.238 
  1759.42,1249.83 1760.32,1160.82 1761.23,1269.42 1762.13,983.202 1763.03,864.197 1763.94,929.063 1764.84,1151.3 1765.75,1295.14 1766.65,1117.4 1767.55,1180.7 
  1768.46,1274.83 1769.36,1301.81 1770.27,1313.27 1771.17,1106.78 1772.08,929.258 1772.98,1220.99 1773.88,1224.81 1774.79,1181.8 1775.69,1309.05 1776.6,900.277 
  1777.5,855.457 1778.41,1163.51 1779.31,606.466 1780.21,817.489 1781.12,1241.83 1782.02,876.232 1782.93,1177.86 1783.83,1097.16 1784.74,1073.7 1785.64,1284.19 
  1786.54,1214.3 1787.45,1259.36 1788.35,1226.76 1789.26,1262.57 1790.16,1296.01 1791.07,1265.06 1791.97,1247.9 1792.87,1291.02 1793.78,1250.44 1794.68,1172.04 
  1795.59,1205.54 1796.49,1292.1 1797.4,1293.69 1798.3,1296.76 1799.2,935.634 1800.11,962.783 1801.01,1294.42 1801.92,1301.2 1802.82,1289.14 1803.73,1153.47 
  1804.63,1307.64 1805.53,925.769 1806.44,672.304 1807.34,1098.97 1808.25,1272.03 1809.15,1199.79 1810.05,1043.61 1810.96,1258 1811.86,1172.99 1812.77,685.122 
  1813.67,992.803 1814.58,1034.12 1815.48,803.632 1816.38,1250.9 1817.29,1176.27 1818.19,1219.01 1819.1,1170.27 1820,970.231 1820.91,1230.65 1821.81,1323.32 
  1822.71,1269.29 1823.62,1082.92 1824.52,1159.14 1825.43,1261.65 1826.33,1310.57 1827.24,1148.09 1828.14,883.642 1829.04,1034.19 1829.95,1308.54 1830.85,1242.31 
  1831.76,1227.18 1832.66,1319.38 1833.57,1178.97 1834.47,1276.4 1835.37,1236.85 1836.28,928.108 1837.18,1152.84 1838.09,1226.43 1838.99,610.33 1839.9,869.442 
  1840.8,1224.15 1841.7,1171.96 1842.61,1311.92 1843.51,1224.26 1844.42,1272.06 1845.32,1321.92 1846.22,1221.9 1847.13,949.083 1848.03,875.363 1848.94,932.973 
  1849.84,1168.45 1850.75,1306.56 1851.65,1154.54 1852.55,1163.27 1853.46,1144.79 1854.36,1183.11 1855.27,1262.54 1856.17,1298.44 1857.08,1297.68 1857.98,1161.39 
  1858.88,1146.77 1859.79,1281.13 1860.69,972.793 1861.6,1097.3 1862.5,1311.32 1863.41,1231.28 1864.31,1300.66 1865.21,1184.2 1866.12,1310.15 1867.02,1155.32 
  1867.93,924.403 1868.83,986.342 1869.74,1170.86 1870.64,1252.3 1871.54,1150.06 1872.45,1236.27 1873.35,1226.3 1874.26,1125.5 1875.16,1274.16 1876.07,1146.44 
  1876.97,1020.55 1877.87,1169.17 1878.78,1165.94 1879.68,1278.95 1880.59,976.99 1881.49,1008.36 1882.4,1228.75 1883.3,1076.17 1884.2,874.084 1885.11,629.289 
  1886.01,949.15 1886.92,1162.14 1887.82,1129.81 1888.72,1150.54 1889.63,1032.24 1890.53,901.746 1891.44,1162.68 1892.34,1284.46 1893.25,1129.12 1894.15,1262.5 
  1895.05,1307.66 1895.96,1312.69 1896.86,1148.81 1897.77,521.241 1898.67,799.533 1899.58,1308.97 1900.48,777.825 1901.38,1038.01 1902.29,1314.69 1903.19,1236.35 
  1904.1,1200.04 1905,925.282 1905.91,1152.93 1906.81,1282.62 1907.71,1266.83 1908.62,1273.86 1909.52,1259.62 1910.43,1217.08 1911.33,1236.98 1912.24,1269.64 
  1913.14,1262.61 1914.04,1290.94 1914.95,1281.56 1915.85,1230.16 1916.76,1222.08 1917.66,1170.52 1918.57,1276.32 1919.47,1179.52 1920.37,810.894 1921.28,1175.49 
  1922.18,1228.45 1923.09,1146.24 1923.99,1166.87 1924.89,1086.32 1925.8,1305.25 1926.7,1261.12 1927.61,1238.7 1928.51,1234.27 1929.42,1207.37 1930.32,882.339 
  1931.22,570.809 1932.13,1090.66 1933.03,1264.33 1933.94,997.834 1934.84,1301.13 1935.75,1108.32 1936.65,1090.13 1937.55,1058.38 1938.46,543.036 1939.36,970.553 
  1940.27,1290.51 1941.17,1297.56 1942.08,1308.18 1942.98,1318.77 1943.88,1262.37 1944.79,1121.41 1945.69,1084.95 1946.6,1087.95 1947.5,1274.11 1948.41,1268.74 
  1949.31,1089.09 1950.21,1161.98 1951.12,1323.74 1952.02,1200.39 1952.93,1187.92 1953.83,1290.77 1954.74,1258.34 1955.64,1111.33 1956.54,1270.68 1957.45,1236.89 
  1958.35,1015.09 1959.26,935.212 1960.16,736.985 1961.07,1110.13 1961.97,1311.73 1962.87,1168.28 1963.78,1231.07 1964.68,1206.8 1965.59,1087.93 1966.49,1228.5 
  1967.39,1300.48 1968.3,1195.34 1969.2,979.717 1970.11,863.216 1971.01,1110.14 1971.92,1088.55 1972.82,1175.29 1973.72,1208.05 1974.63,1102.65 1975.53,1159.57 
  1976.44,1223.92 1977.34,1262.68 1978.25,1322.88 1979.15,1238.14 1980.05,1251 1980.96,1279.6 1981.86,962.996 1982.77,1128.95 1983.67,1311.05 1984.58,1278.45 
  1985.48,1204.61 1986.38,1051.97 1987.29,1081.6 1988.19,1165.83 1989.1,1198.02 1990,1299.29 1990.91,1247.34 1991.81,1116.08 1992.71,1089.79 1993.62,910.858 
  1994.52,1157.68 1995.43,1299.42 1996.33,1138.43 1997.24,1155.31 1998.14,1296.7 1999.04,1286.11 1999.95,1267.88 2000.85,1250.59 2001.76,1062.3 2002.66,1162.06 
  2003.56,1208.83 2004.47,1242.57 2005.37,1026.63 2006.28,822.372 2007.18,983.785 2008.09,1127.32 2008.99,1246.26 2009.89,1316.9 2010.8,1188.59 2011.7,1107.42 
  2012.61,1115.4 2013.51,1098.38 2014.42,1279.73 2015.32,1285 2016.22,1319.99 2017.13,1048.09 2018.03,924.337 2018.94,1299.85 2019.84,1055.17 2020.75,599.206 
  2021.65,900.691 2022.55,1303.79 2023.46,1285.58 2024.36,1321.91 2025.27,1283.04 2026.17,1307.46 2027.08,1142.41 2027.98,1087.54 2028.88,1263.77 2029.79,1302.9 
  2030.69,1217.83 2031.6,1192.77 2032.5,1315.69 2033.41,1258.33 2034.31,1232.06 2035.21,1237.05 2036.12,1305.84 2037.02,1320.06 2037.93,1246.2 2038.83,1040.7 
  2039.74,1202.64 2040.64,1269.88 2041.54,1009.55 2042.45,1202.17 2043.35,1281.31 2044.26,1291.22 2045.16,1323.26 2046.06,1322.34 2046.97,1302.46 2047.87,1240.37 
  2048.78,1225.41 2049.68,1157.69 2050.59,955.884 2051.49,1058.16 2052.39,1236.34 2053.3,1201.26 2054.2,951.047 2055.11,870.364 2056.01,1260.74 2056.92,1258.93 
  2057.82,1303.14 2058.72,1051.44 2059.63,911.135 2060.53,1269.37 2061.44,1279.18 2062.34,1303.74 2063.25,1315.64 2064.15,1293.01 2065.05,1280.24 2065.96,1243.4 
  2066.86,1164.5 2067.77,1213.32 2068.67,1318.87 2069.58,1257.14 2070.48,1224.16 2071.38,1324.57 2072.29,1199.51 2073.19,1295.26 2074.1,1034.52 2075,722.903 
  2075.91,1237.51 2076.81,1276.07 2077.71,1324.01 2078.62,882.005 2079.52,513.328 2080.43,1204.12 2081.33,1146.09 2082.24,811.563 2083.14,1104.56 2084.04,1296.55 
  2084.95,1305.4 2085.85,1128.73 2086.76,1083.75 2087.66,1199.98 2088.56,1127 2089.47,1259.15 2090.37,1144.67 2091.28,1150.5 2092.18,1066.47 2093.09,995.376 
  2093.99,1233.57 2094.89,1070.37 2095.8,961.283 2096.7,1017.98 2097.61,1253.13 2098.51,1306.01 2099.42,1314.87 2100.32,1270.28 2101.22,1199.71 2102.13,1265.86 
  2103.03,1128.62 2103.94,1061.5 2104.84,1093.66 2105.75,1157.6 2106.65,1299.81 2107.55,1301.84 2108.46,1289.96 2109.36,1177.72 2110.27,1146.53 2111.17,1122.74 
  2112.08,158.463 2112.98,413.992 2113.88,1314.5 2114.79,1051.64 2115.69,1187.88 2116.6,1265.05 2117.5,1205.42 2118.41,1318.75 2119.31,1203.5 2120.21,1104.02 
  2121.12,1273.04 2122.02,1280.31 2122.93,1224.83 2123.83,1244.4 2124.73,1270.22 2125.64,1319.8 2126.54,1187.46 2127.45,1113.53 2128.35,1157.02 2129.26,1243.08 
  2130.16,1316.39 2131.06,1107.7 2131.97,888.538 2132.87,1237.13 2133.78,1056.05 2134.68,1102.37 2135.59,1192.64 2136.49,646.119 2137.39,1096.43 2138.3,1184.91 
  2139.2,1053.68 2140.11,1285.15 2141.01,749.071 2141.92,705.227 2142.82,1184.88 2143.72,965.802 2144.63,818.133 2145.53,802.501 2146.44,1052 2147.34,1323.7 
  2148.25,1172.41 2149.15,1236.56 2150.05,1270.94 2150.96,1303.32 2151.86,1224.31 2152.77,1277.56 2153.67,1308.1 2154.58,1239.79 2155.48,1115.17 2156.38,982.279 
  2157.29,1082.53 2158.19,1198.46 2159.1,1314.25 2160,1095.15 2160.91,1126.48 2161.81,1318.8 2162.71,1304.35 2163.62,1314.85 2164.52,1300.66 2165.43,1251.65 
  2166.33,1108.29 2167.23,954.454 2168.14,1133.84 2169.04,1273.79 2169.95,1286.07 2170.85,1278.54 2171.76,1116.32 2172.66,1256.5 2173.56,913.336 2174.47,606.033 
  2175.37,968.56 2176.28,1297.44 2177.18,1164.32 2178.09,1136.21 2178.99,1314.71 2179.89,1044.86 2180.8,1164.56 2181.7,1275 2182.61,1209.29 2183.51,1310.09 
  2184.42,1310.39 2185.32,1291.46 2186.22,1261.11 2187.13,1137.14 2188.03,1025.16 2188.94,1111.83 2189.84,1239.24 2190.75,1075.66 2191.65,1129.57 2192.55,1033.91 
  2193.46,560.495 2194.36,1042.27 2195.27,1072.75 2196.17,987.16 2197.08,1256.8 2197.98,998.759 2198.88,1219.44 2199.79,1258.22 2200.69,1114.74 2201.6,1182.97 
  2202.5,1062.11 
  "/>
</svg>
