<?xml version="1.0" encoding="utf-8"?>
<svg xmlns="http://www.w3.org/2000/svg" xmlns:xlink="http://www.w3.org/1999/xlink" width="600" height="400" viewBox="0 0 2400 1600">
<defs>
  <clipPath id="clip700">
    <rect x="0" y="0" width="2400" height="1600"/>
  </clipPath>
</defs>
<path clip-path="url(#clip700)" d="
M0 1600 L2400 1600 L2400 0 L0 0  Z
  " fill="#ffffff" fill-rule="evenodd" fill-opacity="1"/>
<defs>
  <clipPath id="clip701">
    <rect x="480" y="0" width="1681" height="1600"/>
  </clipPath>
</defs>
<path clip-path="url(#clip700)" d="
M140.696 1486.45 L2352.76 1486.45 L2352.76 47.2441 L140.696 47.2441  Z
  " fill="#ffffff" fill-rule="evenodd" fill-opacity="1"/>
<defs>
  <clipPath id="clip702">
    <rect x="140" y="47" width="2213" height="1440"/>
  </clipPath>
</defs>
<polyline clip-path="url(#clip702)" style="stroke:#000000; stroke-width:2; stroke-opacity:0.1; fill:none" points="
  203.301,1486.45 203.301,47.2441 
  "/>
<polyline clip-path="url(#clip702)" style="stroke:#000000; stroke-width:2; stroke-opacity:0.1; fill:none" points="
  621.111,1486.45 621.111,47.2441 
  "/>
<polyline clip-path="url(#clip702)" style="stroke:#000000; stroke-width:2; stroke-opacity:0.1; fill:none" points="
  1038.92,1486.45 1038.92,47.2441 
  "/>
<polyline clip-path="url(#clip702)" style="stroke:#000000; stroke-width:2; stroke-opacity:0.1; fill:none" points="
  1456.73,1486.45 1456.73,47.2441 
  "/>
<polyline clip-path="url(#clip702)" style="stroke:#000000; stroke-width:2; stroke-opacity:0.1; fill:none" points="
  1874.54,1486.45 1874.54,47.2441 
  "/>
<polyline clip-path="url(#clip702)" style="stroke:#000000; stroke-width:2; stroke-opacity:0.1; fill:none" points="
  2292.35,1486.45 2292.35,47.2441 
  "/>
<polyline clip-path="url(#clip700)" style="stroke:#000000; stroke-width:4; stroke-opacity:1; fill:none" points="
  140.696,1486.45 2352.76,1486.45 
  "/>
<polyline clip-path="url(#clip700)" style="stroke:#000000; stroke-width:4; stroke-opacity:1; fill:none" points="
  203.301,1486.45 203.301,1469.18 
  "/>
<polyline clip-path="url(#clip700)" style="stroke:#000000; stroke-width:4; stroke-opacity:1; fill:none" points="
  621.111,1486.45 621.111,1469.18 
  "/>
<polyline clip-path="url(#clip700)" style="stroke:#000000; stroke-width:4; stroke-opacity:1; fill:none" points="
  1038.92,1486.45 1038.92,1469.18 
  "/>
<polyline clip-path="url(#clip700)" style="stroke:#000000; stroke-width:4; stroke-opacity:1; fill:none" points="
  1456.73,1486.45 1456.73,1469.18 
  "/>
<polyline clip-path="url(#clip700)" style="stroke:#000000; stroke-width:4; stroke-opacity:1; fill:none" points="
  1874.54,1486.45 1874.54,1469.18 
  "/>
<polyline clip-path="url(#clip700)" style="stroke:#000000; stroke-width:4; stroke-opacity:1; fill:none" points="
  2292.35,1486.45 2292.35,1469.18 
  "/>
<path clip-path="url(#clip700)" d="M 0 0 M203.301 1515.64 Q199.69 1515.64 197.861 1519.2 Q196.056 1522.75 196.056 1529.87 Q196.056 1536.98 197.861 1540.55 Q199.69 1544.09 203.301 1544.09 Q206.935 1544.09 208.741 1540.55 Q210.57 1536.98 210.57 1529.87 Q210.57 1522.75 208.741 1519.2 Q206.935 1515.64 203.301 1515.64 M203.301 1511.93 Q209.111 1511.93 212.167 1516.54 Q215.245 1521.12 215.245 1529.87 Q215.245 1538.6 212.167 1543.21 Q209.111 1547.79 203.301 1547.79 Q197.491 1547.79 194.412 1543.21 Q191.357 1538.6 191.357 1529.87 Q191.357 1521.12 194.412 1516.54 Q197.491 1511.93 203.301 1511.93 Z" fill="#000000" fill-rule="evenodd" fill-opacity="1" /><path clip-path="url(#clip700)" d="M 0 0 M595.798 1543.18 L603.437 1543.18 L603.437 1516.82 L595.127 1518.49 L595.127 1514.23 L603.391 1512.56 L608.067 1512.56 L608.067 1543.18 L615.706 1543.18 L615.706 1547.12 L595.798 1547.12 L595.798 1543.18 Z" fill="#000000" fill-rule="evenodd" fill-opacity="1" /><path clip-path="url(#clip700)" d="M 0 0 M635.15 1515.64 Q631.539 1515.64 629.71 1519.2 Q627.905 1522.75 627.905 1529.87 Q627.905 1536.98 629.71 1540.55 Q631.539 1544.09 635.15 1544.09 Q638.784 1544.09 640.59 1540.55 Q642.418 1536.98 642.418 1529.87 Q642.418 1522.75 640.59 1519.2 Q638.784 1515.64 635.15 1515.64 M635.15 1511.93 Q640.96 1511.93 644.016 1516.54 Q647.094 1521.12 647.094 1529.87 Q647.094 1538.6 644.016 1543.21 Q640.96 1547.79 635.15 1547.79 Q629.34 1547.79 626.261 1543.21 Q623.206 1538.6 623.206 1529.87 Q623.206 1521.12 626.261 1516.54 Q629.34 1511.93 635.15 1511.93 Z" fill="#000000" fill-rule="evenodd" fill-opacity="1" /><path clip-path="url(#clip700)" d="M 0 0 M1017.69 1543.18 L1034.01 1543.18 L1034.01 1547.12 L1012.07 1547.12 L1012.07 1543.18 Q1014.73 1540.43 1019.31 1535.8 Q1023.92 1531.15 1025.1 1529.81 Q1027.35 1527.28 1028.23 1525.55 Q1029.13 1523.79 1029.13 1522.1 Q1029.13 1519.34 1027.18 1517.61 Q1025.26 1515.87 1022.16 1515.87 Q1019.96 1515.87 1017.51 1516.63 Q1015.08 1517.4 1012.3 1518.95 L1012.3 1514.23 Q1015.12 1513.09 1017.58 1512.51 Q1020.03 1511.93 1022.07 1511.93 Q1027.44 1511.93 1030.63 1514.62 Q1033.83 1517.31 1033.83 1521.8 Q1033.83 1523.93 1033.02 1525.85 Q1032.23 1527.74 1030.12 1530.34 Q1029.55 1531.01 1026.44 1534.23 Q1023.34 1537.42 1017.69 1543.18 Z" fill="#000000" fill-rule="evenodd" fill-opacity="1" /><path clip-path="url(#clip700)" d="M 0 0 M1053.83 1515.64 Q1050.22 1515.64 1048.39 1519.2 Q1046.58 1522.75 1046.58 1529.87 Q1046.58 1536.98 1048.39 1540.55 Q1050.22 1544.09 1053.83 1544.09 Q1057.46 1544.09 1059.27 1540.55 Q1061.1 1536.98 1061.1 1529.87 Q1061.1 1522.75 1059.27 1519.2 Q1057.46 1515.64 1053.83 1515.64 M1053.83 1511.93 Q1059.64 1511.93 1062.69 1516.54 Q1065.77 1521.12 1065.77 1529.87 Q1065.77 1538.6 1062.69 1543.21 Q1059.64 1547.79 1053.83 1547.79 Q1048.02 1547.79 1044.94 1543.21 Q1041.88 1538.6 1041.88 1529.87 Q1041.88 1521.12 1044.94 1516.54 Q1048.02 1511.93 1053.83 1511.93 Z" fill="#000000" fill-rule="evenodd" fill-opacity="1" /><path clip-path="url(#clip700)" d="M 0 0 M1445.57 1528.49 Q1448.93 1529.2 1450.8 1531.47 Q1452.7 1533.74 1452.7 1537.07 Q1452.7 1542.19 1449.18 1544.99 Q1445.67 1547.79 1439.18 1547.79 Q1437.01 1547.79 1434.69 1547.35 Q1432.4 1546.93 1429.95 1546.08 L1429.95 1541.56 Q1431.89 1542.7 1434.21 1543.28 Q1436.52 1543.86 1439.04 1543.86 Q1443.44 1543.86 1445.73 1542.12 Q1448.05 1540.38 1448.05 1537.07 Q1448.05 1534.02 1445.9 1532.31 Q1443.77 1530.57 1439.95 1530.57 L1435.92 1530.57 L1435.92 1526.73 L1440.13 1526.73 Q1443.58 1526.73 1445.41 1525.36 Q1447.24 1523.97 1447.24 1521.38 Q1447.24 1518.72 1445.34 1517.31 Q1443.47 1515.87 1439.95 1515.87 Q1438.03 1515.87 1435.83 1516.29 Q1433.63 1516.7 1430.99 1517.58 L1430.99 1513.42 Q1433.65 1512.68 1435.97 1512.31 Q1438.3 1511.93 1440.36 1511.93 Q1445.69 1511.93 1448.79 1514.37 Q1451.89 1516.77 1451.89 1520.89 Q1451.89 1523.76 1450.25 1525.75 Q1448.61 1527.72 1445.57 1528.49 Z" fill="#000000" fill-rule="evenodd" fill-opacity="1" /><path clip-path="url(#clip700)" d="M 0 0 M1471.57 1515.64 Q1467.96 1515.64 1466.13 1519.2 Q1464.32 1522.75 1464.32 1529.87 Q1464.32 1536.98 1466.13 1540.55 Q1467.96 1544.09 1471.57 1544.09 Q1475.2 1544.09 1477.01 1540.55 Q1478.84 1536.98 1478.84 1529.87 Q1478.84 1522.75 1477.01 1519.2 Q1475.2 1515.64 1471.57 1515.64 M1471.57 1511.93 Q1477.38 1511.93 1480.43 1516.54 Q1483.51 1521.12 1483.51 1529.87 Q1483.51 1538.6 1480.43 1543.21 Q1477.38 1547.79 1471.57 1547.79 Q1465.76 1547.79 1462.68 1543.21 Q1459.62 1538.6 1459.62 1529.87 Q1459.62 1521.12 1462.68 1516.54 Q1465.76 1511.93 1471.57 1511.93 Z" fill="#000000" fill-rule="evenodd" fill-opacity="1" /><path clip-path="url(#clip700)" d="M 0 0 M1862.71 1516.63 L1850.91 1535.08 L1862.71 1535.08 L1862.71 1516.63 M1861.48 1512.56 L1867.36 1512.56 L1867.36 1535.08 L1872.29 1535.08 L1872.29 1538.97 L1867.36 1538.97 L1867.36 1547.12 L1862.71 1547.12 L1862.71 1538.97 L1847.11 1538.97 L1847.11 1534.46 L1861.48 1512.56 Z" fill="#000000" fill-rule="evenodd" fill-opacity="1" /><path clip-path="url(#clip700)" d="M 0 0 M1890.03 1515.64 Q1886.41 1515.64 1884.59 1519.2 Q1882.78 1522.75 1882.78 1529.87 Q1882.78 1536.98 1884.59 1540.55 Q1886.41 1544.09 1890.03 1544.09 Q1893.66 1544.09 1895.47 1540.55 Q1897.29 1536.98 1897.29 1529.87 Q1897.29 1522.75 1895.47 1519.2 Q1893.66 1515.64 1890.03 1515.64 M1890.03 1511.93 Q1895.84 1511.93 1898.89 1516.54 Q1901.97 1521.12 1901.97 1529.87 Q1901.97 1538.6 1898.89 1543.21 Q1895.84 1547.79 1890.03 1547.79 Q1884.22 1547.79 1881.14 1543.21 Q1878.08 1538.6 1878.08 1529.87 Q1878.08 1521.12 1881.14 1516.54 Q1884.22 1511.93 1890.03 1511.93 Z" fill="#000000" fill-rule="evenodd" fill-opacity="1" /><path clip-path="url(#clip700)" d="M 0 0 M2267.05 1512.56 L2285.41 1512.56 L2285.41 1516.5 L2271.33 1516.5 L2271.33 1524.97 Q2272.35 1524.62 2273.37 1524.46 Q2274.39 1524.27 2275.41 1524.27 Q2281.19 1524.27 2284.57 1527.44 Q2287.95 1530.62 2287.95 1536.03 Q2287.95 1541.61 2284.48 1544.71 Q2281.01 1547.79 2274.69 1547.79 Q2272.51 1547.79 2270.24 1547.42 Q2268 1547.05 2265.59 1546.31 L2265.59 1541.61 Q2267.67 1542.74 2269.9 1543.3 Q2272.12 1543.86 2274.59 1543.86 Q2278.6 1543.86 2280.94 1541.75 Q2283.28 1539.64 2283.28 1536.03 Q2283.28 1532.42 2280.94 1530.31 Q2278.6 1528.21 2274.59 1528.21 Q2272.72 1528.21 2270.84 1528.62 Q2268.99 1529.04 2267.05 1529.92 L2267.05 1512.56 Z" fill="#000000" fill-rule="evenodd" fill-opacity="1" /><path clip-path="url(#clip700)" d="M 0 0 M2307.16 1515.64 Q2303.55 1515.64 2301.72 1519.2 Q2299.92 1522.75 2299.92 1529.87 Q2299.92 1536.98 2301.72 1540.55 Q2303.55 1544.09 2307.16 1544.09 Q2310.8 1544.09 2312.6 1540.55 Q2314.43 1536.98 2314.43 1529.87 Q2314.43 1522.75 2312.6 1519.2 Q2310.8 1515.64 2307.16 1515.64 M2307.16 1511.93 Q2312.97 1511.93 2316.03 1516.54 Q2319.11 1521.12 2319.11 1529.87 Q2319.11 1538.6 2316.03 1543.21 Q2312.97 1547.79 2307.16 1547.79 Q2301.35 1547.79 2298.28 1543.21 Q2295.22 1538.6 2295.22 1529.87 Q2295.22 1521.12 2298.28 1516.54 Q2301.35 1511.93 2307.16 1511.93 Z" fill="#000000" fill-rule="evenodd" fill-opacity="1" /><polyline clip-path="url(#clip702)" style="stroke:#000000; stroke-width:2; stroke-opacity:0.1; fill:none" points="
  140.696,1445.72 2352.76,1445.72 
  "/>
<polyline clip-path="url(#clip702)" style="stroke:#000000; stroke-width:2; stroke-opacity:0.1; fill:none" points="
  140.696,1104.58 2352.76,1104.58 
  "/>
<polyline clip-path="url(#clip702)" style="stroke:#000000; stroke-width:2; stroke-opacity:0.1; fill:none" points="
  140.696,763.441 2352.76,763.441 
  "/>
<polyline clip-path="url(#clip702)" style="stroke:#000000; stroke-width:2; stroke-opacity:0.1; fill:none" points="
  140.696,422.303 2352.76,422.303 
  "/>
<polyline clip-path="url(#clip702)" style="stroke:#000000; stroke-width:2; stroke-opacity:0.1; fill:none" points="
  140.696,81.1657 2352.76,81.1657 
  "/>
<polyline clip-path="url(#clip700)" style="stroke:#000000; stroke-width:4; stroke-opacity:1; fill:none" points="
  140.696,1486.45 140.696,47.2441 
  "/>
<polyline clip-path="url(#clip700)" style="stroke:#000000; stroke-width:4; stroke-opacity:1; fill:none" points="
  140.696,1445.72 167.24,1445.72 
  "/>
<polyline clip-path="url(#clip700)" style="stroke:#000000; stroke-width:4; stroke-opacity:1; fill:none" points="
  140.696,1104.58 167.24,1104.58 
  "/>
<polyline clip-path="url(#clip700)" style="stroke:#000000; stroke-width:4; stroke-opacity:1; fill:none" points="
  140.696,763.441 167.24,763.441 
  "/>
<polyline clip-path="url(#clip700)" style="stroke:#000000; stroke-width:4; stroke-opacity:1; fill:none" points="
  140.696,422.303 167.24,422.303 
  "/>
<polyline clip-path="url(#clip700)" style="stroke:#000000; stroke-width:4; stroke-opacity:1; fill:none" points="
  140.696,81.1657 167.24,81.1657 
  "/>
<path clip-path="url(#clip700)" d="M 0 0 M92.7512 1431.51 Q89.1401 1431.51 87.3114 1435.08 Q85.5058 1438.62 85.5058 1445.75 Q85.5058 1452.86 87.3114 1456.42 Q89.1401 1459.96 92.7512 1459.96 Q96.3854 1459.96 98.1909 1456.42 Q100.02 1452.86 100.02 1445.75 Q100.02 1438.62 98.1909 1435.08 Q96.3854 1431.51 92.7512 1431.51 M92.7512 1427.81 Q98.5613 1427.81 101.617 1432.42 Q104.696 1437 104.696 1445.75 Q104.696 1454.48 101.617 1459.08 Q98.5613 1463.67 92.7512 1463.67 Q86.941 1463.67 83.8623 1459.08 Q80.8068 1454.48 80.8068 1445.75 Q80.8068 1437 83.8623 1432.42 Q86.941 1427.81 92.7512 1427.81 Z" fill="#000000" fill-rule="evenodd" fill-opacity="1" /><path clip-path="url(#clip700)" d="M 0 0 M83.7929 1087.3 L102.149 1087.3 L102.149 1091.23 L88.0753 1091.23 L88.0753 1099.71 Q89.0938 1099.36 90.1123 1099.2 Q91.1308 1099.01 92.1493 1099.01 Q97.9363 1099.01 101.316 1102.18 Q104.696 1105.35 104.696 1110.77 Q104.696 1116.35 101.223 1119.45 Q97.7511 1122.53 91.4317 1122.53 Q89.2558 1122.53 86.9873 1122.16 Q84.7419 1121.79 82.3346 1121.05 L82.3346 1116.35 Q84.4179 1117.48 86.6401 1118.04 Q88.8623 1118.59 91.3391 1118.59 Q95.3437 1118.59 97.6817 1116.49 Q100.02 1114.38 100.02 1110.77 Q100.02 1107.16 97.6817 1105.05 Q95.3437 1102.95 91.3391 1102.95 Q89.4641 1102.95 87.5892 1103.36 Q85.7373 1103.78 83.7929 1104.66 L83.7929 1087.3 Z" fill="#000000" fill-rule="evenodd" fill-opacity="1" /><path clip-path="url(#clip700)" d="M 0 0 M53.3995 776.786 L61.0384 776.786 L61.0384 750.42 L52.7282 752.087 L52.7282 747.827 L60.9921 746.161 L65.668 746.161 L65.668 776.786 L73.3068 776.786 L73.3068 780.721 L53.3995 780.721 L53.3995 776.786 Z" fill="#000000" fill-rule="evenodd" fill-opacity="1" /><path clip-path="url(#clip700)" d="M 0 0 M92.7512 749.239 Q89.1401 749.239 87.3114 752.804 Q85.5058 756.346 85.5058 763.475 Q85.5058 770.582 87.3114 774.147 Q89.1401 777.688 92.7512 777.688 Q96.3854 777.688 98.1909 774.147 Q100.02 770.582 100.02 763.475 Q100.02 756.346 98.1909 752.804 Q96.3854 749.239 92.7512 749.239 M92.7512 745.536 Q98.5613 745.536 101.617 750.142 Q104.696 754.725 104.696 763.475 Q104.696 772.202 101.617 776.809 Q98.5613 781.392 92.7512 781.392 Q86.941 781.392 83.8623 776.809 Q80.8068 772.202 80.8068 763.475 Q80.8068 754.725 83.8623 750.142 Q86.941 745.536 92.7512 745.536 Z" fill="#000000" fill-rule="evenodd" fill-opacity="1" /><path clip-path="url(#clip700)" d="M 0 0 M54.3949 435.648 L62.0337 435.648 L62.0337 409.282 L53.7236 410.949 L53.7236 406.69 L61.9874 405.023 L66.6633 405.023 L66.6633 435.648 L74.3022 435.648 L74.3022 439.583 L54.3949 439.583 L54.3949 435.648 Z" fill="#000000" fill-rule="evenodd" fill-opacity="1" /><path clip-path="url(#clip700)" d="M 0 0 M83.7929 405.023 L102.149 405.023 L102.149 408.958 L88.0753 408.958 L88.0753 417.431 Q89.0938 417.083 90.1123 416.921 Q91.1308 416.736 92.1493 416.736 Q97.9363 416.736 101.316 419.907 Q104.696 423.079 104.696 428.495 Q104.696 434.074 101.223 437.176 Q97.7511 440.254 91.4317 440.254 Q89.2558 440.254 86.9873 439.884 Q84.7419 439.514 82.3346 438.773 L82.3346 434.074 Q84.4179 435.208 86.6401 435.764 Q88.8623 436.319 91.3391 436.319 Q95.3437 436.319 97.6817 434.213 Q100.02 432.106 100.02 428.495 Q100.02 424.884 97.6817 422.778 Q95.3437 420.671 91.3391 420.671 Q89.4641 420.671 87.5892 421.088 Q85.7373 421.505 83.7929 422.384 L83.7929 405.023 Z" fill="#000000" fill-rule="evenodd" fill-opacity="1" /><path clip-path="url(#clip700)" d="M 0 0 M56.6171 94.5105 L72.9365 94.5105 L72.9365 98.4457 L50.9921 98.4457 L50.9921 94.5105 Q53.6541 91.7559 58.2375 87.1263 Q62.8439 82.4735 64.0245 81.131 Q66.2698 78.6078 67.1494 76.8717 Q68.0522 75.1125 68.0522 73.4227 Q68.0522 70.6681 66.1078 68.9319 Q64.1865 67.1958 61.0847 67.1958 Q58.8856 67.1958 56.4319 67.9597 Q54.0014 68.7236 51.2236 70.2745 L51.2236 65.5523 Q54.0477 64.4181 56.5014 63.8394 Q58.955 63.2607 60.9921 63.2607 Q66.3624 63.2607 69.5568 65.9459 Q72.7513 68.631 72.7513 73.1217 Q72.7513 75.2514 71.9411 77.1726 Q71.1541 79.0708 69.0476 81.6634 Q68.4689 82.3347 65.367 85.5522 Q62.2652 88.7467 56.6171 94.5105 Z" fill="#000000" fill-rule="evenodd" fill-opacity="1" /><path clip-path="url(#clip700)" d="M 0 0 M92.7512 66.9644 Q89.1401 66.9644 87.3114 70.5292 Q85.5058 74.0708 85.5058 81.2004 Q85.5058 88.3068 87.3114 91.8716 Q89.1401 95.4133 92.7512 95.4133 Q96.3854 95.4133 98.1909 91.8716 Q100.02 88.3068 100.02 81.2004 Q100.02 74.0708 98.1909 70.5292 Q96.3854 66.9644 92.7512 66.9644 M92.7512 63.2607 Q98.5613 63.2607 101.617 67.8671 Q104.696 72.4504 104.696 81.2004 Q104.696 89.9272 101.617 94.5337 Q98.5613 99.117 92.7512 99.117 Q86.941 99.117 83.8623 94.5337 Q80.8068 89.9272 80.8068 81.2004 Q80.8068 72.4504 83.8623 67.8671 Q86.941 63.2607 92.7512 63.2607 Z" fill="#000000" fill-rule="evenodd" fill-opacity="1" /><polyline clip-path="url(#clip702)" style="stroke:#009af9; stroke-width:4; stroke-opacity:1; fill:none" points="
  203.301,1445.72 205.5,150.351 207.699,87.9763 209.898,475.237 212.097,1102.34 214.296,1107.79 216.495,1302.29 218.694,1335.3 220.893,1289.64 223.092,1100.75 
  225.291,814.751 227.49,967.999 229.689,1238.84 231.888,1164.44 234.087,1308.67 236.286,1198.81 238.485,1264.76 240.684,1052.95 242.883,1052.25 245.082,976.74 
  247.281,1210.77 249.48,1063.88 251.679,1154.81 253.878,1255.25 256.077,1276.19 258.276,1189.8 260.475,1384.24 262.674,998.029 264.873,1200.02 267.072,989.025 
  269.271,1024.95 271.47,1080.66 273.669,1256.16 275.868,1285.17 278.067,710.188 280.266,1214.66 282.465,1171.72 284.664,888.632 286.863,991.887 289.062,926.85 
  291.261,1054.52 293.46,1187.05 295.659,1308.75 297.858,1166.16 300.057,738.94 302.256,1235.66 304.455,1037.15 306.654,757.363 308.853,1003.44 311.052,661.056 
  313.251,1075.66 315.45,1195.87 317.649,1275.36 319.848,1389.97 322.047,918.179 324.246,678.067 326.445,1107.58 328.644,1027.87 330.843,1146.54 333.042,1394.16 
  335.241,1139.8 337.44,1261.32 339.639,1290.58 341.838,1332.27 344.037,1163.65 346.236,1211.52 348.435,979.611 350.634,586.584 352.833,802.985 355.032,1239.9 
  357.231,1399.67 359.43,755.131 361.629,1168.57 363.828,1080.45 366.027,1113.79 368.226,1264.12 370.425,1388.55 372.624,1144.16 374.823,1310.13 377.022,1177.23 
  379.221,1224.75 381.42,738.809 383.619,1292.66 385.818,1028.48 388.017,893.515 390.216,898.937 392.415,1094.1 394.614,1034.29 396.813,927.367 399.012,1129.73 
  401.211,1058.83 403.41,619.895 405.609,1238.15 407.808,902.045 410.007,1287.19 412.206,1130.46 414.405,1030.27 416.604,1354.08 418.803,1186.19 421.002,1008.91 
  423.201,1289.53 425.4,1162.77 427.599,1188.99 429.798,1191.62 431.997,1300.77 434.196,1377.98 436.395,1377.84 438.594,1259.75 440.793,1073.36 442.992,1164.54 
  445.191,1396.64 447.39,1190.72 449.589,982.219 451.788,1210.57 453.987,1027.24 456.186,1268.46 458.385,1173.53 460.584,1126.55 462.783,804.322 464.982,1051.61 
  467.181,1177.2 469.38,1124.22 471.579,1242.98 473.778,1209.99 475.977,1237.1 478.176,1289.7 480.375,1345.52 482.574,1149.54 484.773,1361.7 486.972,1382.85 
  489.171,1034.35 491.37,1200.45 493.569,1330.68 495.768,1377.71 497.967,1407.49 500.166,1017.85 502.365,1214.31 504.564,1174.03 506.763,997.377 508.962,1278.09 
  511.161,1085.69 513.36,1352.21 515.559,1385.31 517.758,1420.1 519.957,1371.66 522.156,1304.27 524.355,1224.04 526.554,1277.74 528.753,1246.85 530.952,1103.8 
  533.151,1352.58 535.35,1317.69 537.549,1266.91 539.748,1062.76 541.947,1106.26 544.146,1212.49 546.345,1210.38 548.544,1373.95 550.743,1290.78 552.942,1371.01 
  555.141,1341.26 557.34,1251.86 559.539,1140.92 561.738,897.174 563.937,1037.19 566.136,1390.52 568.335,1418.76 570.534,1412.05 572.733,1342.73 574.932,1199.97 
  577.131,1207.66 579.33,1151.68 581.529,1301.93 583.728,1247.33 585.927,1112.97 588.126,1134.78 590.325,1350.85 592.524,1369.03 594.723,1388.91 596.922,1375.06 
  599.121,1351.01 601.32,1398.77 603.519,1388.94 605.718,1364.05 607.917,1392.38 610.116,1381.49 612.315,1373.22 614.514,1422.5 616.713,1387.27 618.912,1406.19 
  621.111,1419.14 623.31,1278.31 625.509,1218.16 627.708,1377.75 629.907,1383.77 632.106,1374.27 634.305,1410.64 636.504,1441.11 638.703,1406.55 640.902,1409.02 
  643.101,1369.41 645.3,1379.12 647.499,1363.22 649.698,1256.56 651.897,1304.52 654.096,1325.49 656.295,1398.94 658.494,1379.42 660.693,1347.82 662.892,1395.24 
  665.091,1369.85 667.29,1170.12 669.489,1359.43 671.688,1397.78 673.887,1424.04 676.086,1439.82 678.285,1394.48 680.484,1406.98 682.683,1413.1 684.882,1424.51 
  687.081,1430.34 689.28,1443.09 691.479,1388.3 693.678,1424.47 695.877,1386.35 698.076,1431.72 700.275,1406.17 702.474,1435.47 704.673,1414.35 706.872,1258.76 
  709.071,1387.62 711.27,1348.36 713.469,1385.34 715.668,1355.37 717.867,1318.51 720.066,1311.44 722.265,1405.91 724.464,1405.89 726.663,1440.36 728.862,1418.43 
  731.061,1408.37 733.26,1407.89 735.459,1417.52 737.658,1429.15 739.857,1408.03 742.056,1425.9 744.255,1417.38 746.454,1378.13 748.653,1371.93 750.852,1371.24 
  753.051,1389.59 755.25,1389.68 757.449,1413.6 759.648,1414.6 761.847,1421.18 764.046,1392.53 766.245,1393.67 768.444,1424.37 770.643,1347.93 772.842,1402.59 
  775.041,1427.36 777.24,1441.67 779.439,1424.44 781.638,1433.69 783.837,1440.47 786.036,1409.34 788.235,1430.11 790.434,1413.52 792.633,1426.79 794.832,1418.32 
  797.031,1430.89 799.23,1434.19 801.429,1431.4 803.628,1418.18 805.827,1433.06 808.026,1429.37 810.225,1434.28 812.424,1422.22 814.623,1425.07 816.822,1438.91 
  819.021,1441.64 821.22,1434.57 823.419,1415.59 825.618,1418.48 827.817,1439.37 830.016,1436.92 832.215,1436.15 834.414,1434.94 836.613,1426.92 838.812,1433.31 
  841.011,1437.69 843.21,1438.53 845.409,1440.98 847.608,1438.68 849.807,1436.94 852.006,1437.97 854.205,1436.06 856.404,1440.81 858.603,1441.64 860.802,1441.03 
  863.001,1440.54 865.2,1432.83 867.399,1438.29 869.598,1437.05 871.797,1439.9 873.996,1437.31 876.195,1438.28 878.394,1432.45 880.593,1426.38 882.792,1442.79 
  884.991,1427.03 887.189,1426.76 889.388,1437.2 891.587,1436.14 893.786,1434.38 895.985,1442.58 898.184,1435.17 900.383,1440.1 902.582,1444.52 904.781,1444.18 
  906.98,1438.11 909.179,1439.19 911.378,1445.06 913.577,1437.57 915.776,1442.05 917.975,1442.13 920.174,1442.26 922.373,1441.68 924.572,1444.76 926.771,1439.9 
  928.97,1438.52 931.169,1436.15 933.368,1443.39 935.567,1441.71 937.766,1443.57 939.965,1442.61 942.164,1445.09 944.363,1445.09 946.562,1442.06 948.761,1439.9 
  950.96,1443.19 953.159,1445.01 955.358,1443.53 957.557,1443.92 959.756,1443.94 961.955,1444.29 964.154,1436.93 966.353,1442.8 968.552,1442.55 970.751,1432.04 
  972.95,1436.64 975.149,1444.68 977.348,1442.9 979.547,1442.13 981.746,1433.85 983.945,1442.02 986.144,1443.52 988.343,1444.81 990.542,1445.15 992.741,1445.06 
  994.94,1445.11 997.139,1441.07 999.338,1445.11 1001.54,1445.44 1003.74,1444.74 1005.94,1441.91 1008.13,1444.18 1010.33,1444.83 1012.53,1443.19 1014.73,1443.47 
  1016.93,1444.06 1019.13,1444.25 1021.33,1444.34 1023.53,1444.38 1025.73,1444.39 1027.93,1444.33 1030.12,1444.11 1032.32,1443.17 1034.52,1443.53 1036.72,1442.64 
  1038.92,1444.21 1041.12,1444.57 1043.32,1444.74 1045.52,1444.89 1047.72,1445.01 1049.92,1442.46 1052.11,1442.81 1054.31,1442.23 1056.51,1444.15 1058.71,1444.23 
  1060.91,1444.04 1063.11,1442.22 1065.31,1443.91 1067.51,1444.11 1069.71,1442.78 1071.91,1445.01 1074.1,1442.82 1076.3,1443.04 1078.5,1445.14 1080.7,1445.33 
  1082.9,1445.34 1085.1,1445.32 1087.3,1445.3 1089.5,1445.28 1091.7,1445.27 1093.9,1445.26 1096.09,1445.26 1098.29,1445.26 1100.49,1445.26 1102.69,1445.26 
  1104.89,1445.26 1107.09,1445.27 1109.29,1445.28 1111.49,1445.3 1113.69,1445.35 1115.89,1445.47 1118.08,1441.73 1120.28,1444.99 1122.48,1445.09 1124.68,1445.12 
  1126.88,1445.12 1129.08,1445.06 1131.28,1444.81 1133.48,1442.53 1135.68,1445.38 1137.88,1443.83 1140.07,1442.99 1142.27,1444.43 1144.47,1444.68 1146.67,1444.73 
  1148.87,1444.66 1151.07,1444.4 1153.27,1442.7 1155.47,1444.25 1157.67,1445.48 1159.87,1445.62 1162.06,1445.54 1164.26,1445.49 1166.46,1445.46 1168.66,1445.44 
  1170.86,1445.43 1173.06,1445.42 1175.26,1445.41 1177.46,1445.41 1179.66,1445.4 1181.86,1445.4 1184.05,1445.4 1186.25,1445.4 1188.45,1445.4 1190.65,1445.4 
  1192.85,1445.4 1195.05,1445.4 1197.25,1445.4 1199.45,1445.4 1201.65,1445.41 1203.85,1445.41 1206.04,1445.41 1208.24,1445.41 1210.44,1445.41 1212.64,1445.42 
  1214.84,1445.42 1217.04,1445.42 1219.24,1445.42 1221.44,1445.42 1223.64,1445.43 1225.84,1445.43 1228.03,1445.43 1230.23,1445.43 1232.43,1445.43 1234.63,1445.44 
  1236.83,1445.44 1239.03,1445.44 1241.23,1445.44 1243.43,1445.44 1245.63,1445.45 1247.83,1445.45 1250.02,1445.45 1252.22,1445.45 1254.42,1445.46 1256.62,1445.46 
  1258.82,1445.46 1261.02,1445.46 1263.22,1445.46 1265.42,1445.47 1267.62,1445.47 1269.82,1445.47 1272.01,1445.47 1274.21,1445.47 1276.41,1445.47 1278.61,1445.48 
  1280.81,1445.48 1283.01,1445.48 1285.21,1445.48 1287.41,1445.48 1289.61,1445.49 1291.81,1445.49 1294,1445.49 1296.2,1445.49 1298.4,1445.49 1300.6,1445.49 
  1302.8,1445.5 1305,1445.5 1307.2,1445.5 1309.4,1445.5 1311.6,1445.5 1313.8,1445.5 1315.99,1445.51 1318.19,1445.51 1320.39,1445.51 1322.59,1445.51 
  1324.79,1445.51 1326.99,1445.51 1329.19,1445.52 1331.39,1445.52 1333.59,1445.52 1335.79,1445.52 1337.98,1445.52 1340.18,1445.52 1342.38,1445.53 1344.58,1445.53 
  1346.78,1445.53 1348.98,1445.53 1351.18,1445.53 1353.38,1445.53 1355.58,1445.53 1357.78,1445.53 1359.97,1445.54 1362.17,1445.54 1364.37,1445.54 1366.57,1445.54 
  1368.77,1445.54 1370.97,1445.54 1373.17,1445.54 1375.37,1445.55 1377.57,1445.55 1379.77,1445.55 1381.96,1445.55 1384.16,1445.55 1386.36,1445.55 1388.56,1445.55 
  1390.76,1445.55 1392.96,1445.56 1395.16,1445.56 1397.36,1445.56 1399.56,1445.56 1401.76,1445.56 1403.95,1445.56 1406.15,1445.56 1408.35,1445.56 1410.55,1445.56 
  1412.75,1445.57 1414.95,1445.57 1417.15,1445.57 1419.35,1445.57 1421.55,1445.57 1423.75,1445.57 1425.94,1445.57 1428.14,1445.57 1430.34,1445.57 1432.54,1445.57 
  1434.74,1445.58 1436.94,1445.58 1439.14,1445.58 1441.34,1445.58 1443.54,1445.58 1445.74,1445.58 1447.93,1445.58 1450.13,1445.58 1452.33,1445.58 1454.53,1445.58 
  1456.73,1445.59 1458.93,1445.59 1461.13,1445.59 1463.33,1445.59 1465.53,1445.59 1467.73,1445.59 1469.92,1445.59 1472.12,1445.59 1474.32,1445.59 1476.52,1445.59 
  1478.72,1445.59 1480.92,1445.6 1483.12,1445.6 1485.32,1445.6 1487.52,1445.6 1489.72,1445.6 1491.91,1445.6 1494.11,1445.6 1496.31,1445.6 1498.51,1445.6 
  1500.71,1445.6 1502.91,1445.6 1505.11,1445.6 1507.31,1445.6 1509.51,1445.61 1511.71,1445.61 1513.9,1445.61 1516.1,1445.61 1518.3,1445.61 1520.5,1445.61 
  1522.7,1445.61 1524.9,1445.61 1527.1,1445.61 1529.3,1445.61 1531.5,1445.61 1533.7,1445.61 1535.89,1445.61 1538.09,1445.62 1540.29,1445.62 1542.49,1445.62 
  1544.69,1445.62 1546.89,1445.62 1549.09,1445.62 1551.29,1445.62 1553.49,1445.62 1555.68,1445.62 1557.88,1445.62 1560.08,1445.62 1562.28,1445.62 1564.48,1445.62 
  1566.68,1445.62 1568.88,1445.62 1571.08,1445.62 1573.28,1445.63 1575.48,1445.63 1577.67,1445.63 1579.87,1445.63 1582.07,1445.63 1584.27,1445.63 1586.47,1445.63 
  1588.67,1445.63 1590.87,1445.63 1593.07,1445.63 1595.27,1445.63 1597.47,1445.63 1599.66,1445.63 1601.86,1445.63 1604.06,1445.63 1606.26,1445.63 1608.46,1445.63 
  1610.66,1445.64 1612.86,1445.64 1615.06,1445.64 1617.26,1445.64 1619.46,1445.64 1621.65,1445.64 1623.85,1445.64 1626.05,1445.64 1628.25,1445.64 1630.45,1445.64 
  1632.65,1445.64 1634.85,1445.64 1637.05,1445.64 1639.25,1445.64 1641.45,1445.64 1643.64,1445.64 1645.84,1445.64 1648.04,1445.64 1650.24,1445.64 1652.44,1445.64 
  1654.64,1445.65 1656.84,1445.65 1659.04,1445.65 1661.24,1445.65 1663.44,1445.65 1665.63,1445.65 1667.83,1445.65 1670.03,1445.65 1672.23,1445.65 1674.43,1445.65 
  1676.63,1445.65 1678.83,1445.65 1681.03,1445.65 1683.23,1445.65 1685.43,1445.65 1687.62,1445.65 1689.82,1445.65 1692.02,1445.65 1694.22,1445.65 1696.42,1445.65 
  1698.62,1445.65 1700.82,1445.65 1703.02,1445.65 1705.22,1445.66 1707.42,1445.66 1709.61,1445.66 1711.81,1445.66 1714.01,1445.66 1716.21,1445.66 1718.41,1445.66 
  1720.61,1445.66 1722.81,1445.66 1725.01,1445.66 1727.21,1445.66 1729.41,1445.66 1731.6,1445.66 1733.8,1445.66 1736,1445.66 1738.2,1445.66 1740.4,1445.66 
  1742.6,1445.66 1744.8,1445.66 1747,1445.66 1749.2,1445.66 1751.4,1445.66 1753.59,1445.66 1755.79,1445.66 1757.99,1445.66 1760.19,1445.66 1762.39,1445.66 
  1764.59,1445.67 1766.79,1445.67 1768.99,1445.67 1771.19,1445.67 1773.39,1445.67 1775.58,1445.67 1777.78,1445.67 1779.98,1445.67 1782.18,1445.67 1784.38,1445.67 
  1786.58,1445.67 1788.78,1445.67 1790.98,1445.67 1793.18,1445.67 1795.38,1445.67 1797.57,1445.67 1799.77,1445.67 1801.97,1445.67 1804.17,1445.67 1806.37,1445.67 
  1808.57,1445.67 1810.77,1445.67 1812.97,1445.67 1815.17,1445.67 1817.37,1445.67 1819.56,1445.67 1821.76,1445.67 1823.96,1445.67 1826.16,1445.67 1828.36,1445.67 
  1830.56,1445.67 1832.76,1445.67 1834.96,1445.68 1837.16,1445.68 1839.36,1445.68 1841.55,1445.68 1843.75,1445.68 1845.95,1445.68 1848.15,1445.68 1850.35,1445.68 
  1852.55,1445.68 1854.75,1445.68 1856.95,1445.68 1859.15,1445.68 1861.35,1445.68 1863.54,1445.68 1865.74,1445.68 1867.94,1445.68 1870.14,1445.68 1872.34,1445.68 
  1874.54,1445.68 1876.74,1445.68 1878.94,1445.68 1881.14,1445.68 1883.34,1445.68 1885.53,1445.68 1887.73,1445.68 1889.93,1445.68 1892.13,1445.68 1894.33,1445.68 
  1896.53,1445.68 1898.73,1445.68 1900.93,1445.68 1903.13,1445.68 1905.33,1445.68 1907.52,1445.68 1909.72,1445.68 1911.92,1445.68 1914.12,1445.68 1916.32,1445.68 
  1918.52,1445.69 1920.72,1445.69 1922.92,1445.69 1925.12,1445.69 1927.32,1445.69 1929.51,1445.69 1931.71,1445.69 1933.91,1445.69 1936.11,1445.69 1938.31,1445.69 
  1940.51,1445.69 1942.71,1445.69 1944.91,1445.69 1947.11,1445.69 1949.31,1445.69 1951.5,1445.69 1953.7,1445.69 1955.9,1445.69 1958.1,1445.69 1960.3,1445.69 
  1962.5,1445.69 1964.7,1445.69 1966.9,1445.69 1969.1,1445.69 1971.3,1445.69 1973.49,1445.69 1975.69,1445.69 1977.89,1445.69 1980.09,1445.69 1982.29,1445.69 
  1984.49,1445.69 1986.69,1445.69 1988.89,1445.69 1991.09,1445.69 1993.29,1445.69 1995.48,1445.69 1997.68,1445.69 1999.88,1445.69 2002.08,1445.69 2004.28,1445.69 
  2006.48,1445.69 2008.68,1445.69 2010.88,1445.69 2013.08,1445.69 2015.28,1445.69 2017.47,1445.69 2019.67,1445.69 2021.87,1445.69 2024.07,1445.7 2026.27,1445.7 
  2028.47,1445.7 2030.67,1445.7 2032.87,1445.7 2035.07,1445.7 2037.27,1445.7 2039.46,1445.7 2041.66,1445.7 2043.86,1445.7 2046.06,1445.7 2048.26,1445.7 
  2050.46,1445.7 2052.66,1445.7 2054.86,1445.7 2057.06,1445.7 2059.26,1445.7 2061.45,1445.7 2063.65,1445.7 2065.85,1445.7 2068.05,1445.7 2070.25,1445.7 
  2072.45,1445.7 2074.65,1445.7 2076.85,1445.7 2079.05,1445.7 2081.25,1445.7 2083.44,1445.7 2085.64,1445.7 2087.84,1445.7 2090.04,1445.7 2092.24,1445.7 
  2094.44,1445.7 2096.64,1445.7 2098.84,1445.7 2101.04,1445.7 2103.24,1445.7 2105.43,1445.7 2107.63,1445.7 2109.83,1445.7 2112.03,1445.7 2114.23,1445.7 
  2116.43,1445.7 2118.63,1445.7 2120.83,1445.7 2123.03,1445.7 2125.23,1445.7 2127.42,1445.7 2129.62,1445.7 2131.82,1445.7 2134.02,1445.7 2136.22,1445.7 
  2138.42,1445.7 2140.62,1445.7 2142.82,1445.7 2145.02,1445.7 2147.22,1445.7 2149.41,1445.7 2151.61,1445.7 2153.81,1445.7 2156.01,1445.71 2158.21,1445.71 
  2160.41,1445.71 2162.61,1445.71 2164.81,1445.71 2167.01,1445.71 2169.21,1445.71 2171.4,1445.71 2173.6,1445.71 2175.8,1445.71 2178,1445.71 2180.2,1445.71 
  2182.4,1445.71 2184.6,1445.71 2186.8,1445.71 2189,1445.71 2191.2,1445.71 2193.39,1445.71 2195.59,1445.71 2197.79,1445.71 2199.99,1445.71 2202.19,1445.71 
  2204.39,1445.71 2206.59,1445.71 2208.79,1445.71 2210.99,1445.71 2213.19,1445.71 2215.38,1445.71 2217.58,1445.71 2219.78,1445.71 2221.98,1445.71 2224.18,1445.71 
  2226.38,1445.71 2228.58,1445.71 2230.78,1445.71 2232.98,1445.71 2235.18,1445.71 2237.37,1445.71 2239.57,1445.71 2241.77,1445.71 2243.97,1445.71 2246.17,1445.71 
  2248.37,1445.71 2250.57,1445.71 2252.77,1445.71 2254.97,1445.71 2257.17,1445.71 2259.36,1445.71 2261.56,1445.71 2263.76,1445.71 2265.96,1445.71 2268.16,1445.71 
  2270.36,1445.71 2272.56,1445.71 2274.76,1445.71 2276.96,1445.71 2279.16,1445.71 2281.35,1445.71 2283.55,1445.71 2285.75,1445.71 2287.95,1445.71 2290.15,1445.71 
  
  "/>
<path clip-path="url(#clip700)" d="
M1980.81 216.178 L2279.02 216.178 L2279.02 95.2176 L1980.81 95.2176  Z
  " fill="#ffffff" fill-rule="evenodd" fill-opacity="1"/>
<polyline clip-path="url(#clip700)" style="stroke:#000000; stroke-width:4; stroke-opacity:1; fill:none" points="
  1980.81,216.178 2279.02,216.178 2279.02,95.2176 1980.81,95.2176 1980.81,216.178 
  "/>
<polyline clip-path="url(#clip700)" style="stroke:#009af9; stroke-width:4; stroke-opacity:1; fill:none" points="
  2005.38,155.698 2152.85,155.698 
  "/>
<path clip-path="url(#clip700)" d="M 0 0 M2191.28 175.385 Q2189.47 180.015 2187.76 181.427 Q2186.04 182.839 2183.17 182.839 L2179.77 182.839 L2179.77 179.274 L2182.27 179.274 Q2184.03 179.274 2185 178.44 Q2185.98 177.607 2187.16 174.505 L2187.92 172.561 L2177.43 147.052 L2181.95 147.052 L2190.05 167.329 L2198.15 147.052 L2202.66 147.052 L2191.28 175.385 Z" fill="#000000" fill-rule="evenodd" fill-opacity="1" /><path clip-path="url(#clip700)" d="M 0 0 M2209.96 169.042 L2217.6 169.042 L2217.6 142.677 L2209.29 144.343 L2209.29 140.084 L2217.55 138.418 L2222.22 138.418 L2222.22 169.042 L2229.86 169.042 L2229.86 172.978 L2209.96 172.978 L2209.96 169.042 Z" fill="#000000" fill-rule="evenodd" fill-opacity="1" /></svg>
