<?xml version="1.0" encoding="utf-8"?>
<svg xmlns="http://www.w3.org/2000/svg" xmlns:xlink="http://www.w3.org/1999/xlink" width="600" height="400" viewBox="0 0 2400 1600">
<defs>
  <clipPath id="clip670">
    <rect x="0" y="0" width="2400" height="1600"/>
  </clipPath>
</defs>
<path clip-path="url(#clip670)" d="
M0 1600 L2400 1600 L2400 0 L0 0  Z
  " fill="#ffffff" fill-rule="evenodd" fill-opacity="1"/>
<defs>
  <clipPath id="clip671">
    <rect x="480" y="0" width="1681" height="1600"/>
  </clipPath>
</defs>
<path clip-path="url(#clip670)" d="
M172.015 1486.45 L2352.76 1486.45 L2352.76 47.2441 L172.015 47.2441  Z
  " fill="#ffffff" fill-rule="evenodd" fill-opacity="1"/>
<defs>
  <clipPath id="clip672">
    <rect x="172" y="47" width="2182" height="1440"/>
  </clipPath>
</defs>
<polyline clip-path="url(#clip672)" style="stroke:#000000; stroke-width:2; stroke-opacity:0.1; fill:none" points="
  233.734,1486.45 233.734,47.2441 
  "/>
<polyline clip-path="url(#clip672)" style="stroke:#000000; stroke-width:2; stroke-opacity:0.1; fill:none" points="
  645.628,1486.45 645.628,47.2441 
  "/>
<polyline clip-path="url(#clip672)" style="stroke:#000000; stroke-width:2; stroke-opacity:0.1; fill:none" points="
  1057.52,1486.45 1057.52,47.2441 
  "/>
<polyline clip-path="url(#clip672)" style="stroke:#000000; stroke-width:2; stroke-opacity:0.1; fill:none" points="
  1469.42,1486.45 1469.42,47.2441 
  "/>
<polyline clip-path="url(#clip672)" style="stroke:#000000; stroke-width:2; stroke-opacity:0.1; fill:none" points="
  1881.31,1486.45 1881.31,47.2441 
  "/>
<polyline clip-path="url(#clip672)" style="stroke:#000000; stroke-width:2; stroke-opacity:0.1; fill:none" points="
  2293.2,1486.45 2293.2,47.2441 
  "/>
<polyline clip-path="url(#clip670)" style="stroke:#000000; stroke-width:4; stroke-opacity:1; fill:none" points="
  172.015,1486.45 2352.76,1486.45 
  "/>
<polyline clip-path="url(#clip670)" style="stroke:#000000; stroke-width:4; stroke-opacity:1; fill:none" points="
  233.734,1486.45 233.734,1469.18 
  "/>
<polyline clip-path="url(#clip670)" style="stroke:#000000; stroke-width:4; stroke-opacity:1; fill:none" points="
  645.628,1486.45 645.628,1469.18 
  "/>
<polyline clip-path="url(#clip670)" style="stroke:#000000; stroke-width:4; stroke-opacity:1; fill:none" points="
  1057.52,1486.45 1057.52,1469.18 
  "/>
<polyline clip-path="url(#clip670)" style="stroke:#000000; stroke-width:4; stroke-opacity:1; fill:none" points="
  1469.42,1486.45 1469.42,1469.18 
  "/>
<polyline clip-path="url(#clip670)" style="stroke:#000000; stroke-width:4; stroke-opacity:1; fill:none" points="
  1881.31,1486.45 1881.31,1469.18 
  "/>
<polyline clip-path="url(#clip670)" style="stroke:#000000; stroke-width:4; stroke-opacity:1; fill:none" points="
  2293.2,1486.45 2293.2,1469.18 
  "/>
<path clip-path="url(#clip670)" d="M 0 0 M233.734 1515.64 Q230.123 1515.64 228.294 1519.2 Q226.489 1522.75 226.489 1529.87 Q226.489 1536.98 228.294 1540.55 Q230.123 1544.09 233.734 1544.09 Q237.368 1544.09 239.174 1540.55 Q241.002 1536.98 241.002 1529.87 Q241.002 1522.75 239.174 1519.2 Q237.368 1515.64 233.734 1515.64 M233.734 1511.93 Q239.544 1511.93 242.6 1516.54 Q245.678 1521.12 245.678 1529.87 Q245.678 1538.6 242.6 1543.21 Q239.544 1547.79 233.734 1547.79 Q227.924 1547.79 224.845 1543.21 Q221.79 1538.6 221.79 1529.87 Q221.79 1521.12 224.845 1516.54 Q227.924 1511.93 233.734 1511.93 Z" fill="#000000" fill-rule="evenodd" fill-opacity="1" /><path clip-path="url(#clip670)" d="M 0 0 M620.316 1543.18 L627.955 1543.18 L627.955 1516.82 L619.644 1518.49 L619.644 1514.23 L627.908 1512.56 L632.584 1512.56 L632.584 1543.18 L640.223 1543.18 L640.223 1547.12 L620.316 1547.12 L620.316 1543.18 Z" fill="#000000" fill-rule="evenodd" fill-opacity="1" /><path clip-path="url(#clip670)" d="M 0 0 M659.667 1515.64 Q656.056 1515.64 654.228 1519.2 Q652.422 1522.75 652.422 1529.87 Q652.422 1536.98 654.228 1540.55 Q656.056 1544.09 659.667 1544.09 Q663.302 1544.09 665.107 1540.55 Q666.936 1536.98 666.936 1529.87 Q666.936 1522.75 665.107 1519.2 Q663.302 1515.64 659.667 1515.64 M659.667 1511.93 Q665.477 1511.93 668.533 1516.54 Q671.612 1521.12 671.612 1529.87 Q671.612 1538.6 668.533 1543.21 Q665.477 1547.79 659.667 1547.79 Q653.857 1547.79 650.778 1543.21 Q647.723 1538.6 647.723 1529.87 Q647.723 1521.12 650.778 1516.54 Q653.857 1511.93 659.667 1511.93 Z" fill="#000000" fill-rule="evenodd" fill-opacity="1" /><path clip-path="url(#clip670)" d="M 0 0 M1036.3 1543.18 L1052.61 1543.18 L1052.61 1547.12 L1030.67 1547.12 L1030.67 1543.18 Q1033.33 1540.43 1037.92 1535.8 Q1042.52 1531.15 1043.7 1529.81 Q1045.95 1527.28 1046.83 1525.55 Q1047.73 1523.79 1047.73 1522.1 Q1047.73 1519.34 1045.79 1517.61 Q1043.86 1515.87 1040.76 1515.87 Q1038.56 1515.87 1036.11 1516.63 Q1033.68 1517.4 1030.9 1518.95 L1030.9 1514.23 Q1033.73 1513.09 1036.18 1512.51 Q1038.63 1511.93 1040.67 1511.93 Q1046.04 1511.93 1049.24 1514.62 Q1052.43 1517.31 1052.43 1521.8 Q1052.43 1523.93 1051.62 1525.85 Q1050.83 1527.74 1048.73 1530.34 Q1048.15 1531.01 1045.05 1534.23 Q1041.94 1537.42 1036.3 1543.18 Z" fill="#000000" fill-rule="evenodd" fill-opacity="1" /><path clip-path="url(#clip670)" d="M 0 0 M1072.43 1515.64 Q1068.82 1515.64 1066.99 1519.2 Q1065.18 1522.75 1065.18 1529.87 Q1065.18 1536.98 1066.99 1540.55 Q1068.82 1544.09 1072.43 1544.09 Q1076.06 1544.09 1077.87 1540.55 Q1079.7 1536.98 1079.7 1529.87 Q1079.7 1522.75 1077.87 1519.2 Q1076.06 1515.64 1072.43 1515.64 M1072.43 1511.93 Q1078.24 1511.93 1081.3 1516.54 Q1084.37 1521.12 1084.37 1529.87 Q1084.37 1538.6 1081.3 1543.21 Q1078.24 1547.79 1072.43 1547.79 Q1066.62 1547.79 1063.54 1543.21 Q1060.49 1538.6 1060.49 1529.87 Q1060.49 1521.12 1063.54 1516.54 Q1066.62 1511.93 1072.43 1511.93 Z" fill="#000000" fill-rule="evenodd" fill-opacity="1" /><path clip-path="url(#clip670)" d="M 0 0 M1458.26 1528.49 Q1461.62 1529.2 1463.49 1531.47 Q1465.39 1533.74 1465.39 1537.07 Q1465.39 1542.19 1461.87 1544.99 Q1458.35 1547.79 1451.87 1547.79 Q1449.69 1547.79 1447.38 1547.35 Q1445.09 1546.93 1442.63 1546.08 L1442.63 1541.56 Q1444.58 1542.7 1446.89 1543.28 Q1449.21 1543.86 1451.73 1543.86 Q1456.13 1543.86 1458.42 1542.12 Q1460.74 1540.38 1460.74 1537.07 Q1460.74 1534.02 1458.58 1532.31 Q1456.45 1530.57 1452.63 1530.57 L1448.61 1530.57 L1448.61 1526.73 L1452.82 1526.73 Q1456.27 1526.73 1458.1 1525.36 Q1459.93 1523.97 1459.93 1521.38 Q1459.93 1518.72 1458.03 1517.31 Q1456.15 1515.87 1452.63 1515.87 Q1450.71 1515.87 1448.51 1516.29 Q1446.31 1516.7 1443.68 1517.58 L1443.68 1513.42 Q1446.34 1512.68 1448.65 1512.31 Q1450.99 1511.93 1453.05 1511.93 Q1458.37 1511.93 1461.48 1514.37 Q1464.58 1516.77 1464.58 1520.89 Q1464.58 1523.76 1462.93 1525.75 Q1461.29 1527.72 1458.26 1528.49 Z" fill="#000000" fill-rule="evenodd" fill-opacity="1" /><path clip-path="url(#clip670)" d="M 0 0 M1484.25 1515.64 Q1480.64 1515.64 1478.81 1519.2 Q1477.01 1522.75 1477.01 1529.87 Q1477.01 1536.98 1478.81 1540.55 Q1480.64 1544.09 1484.25 1544.09 Q1487.89 1544.09 1489.69 1540.55 Q1491.52 1536.98 1491.52 1529.87 Q1491.52 1522.75 1489.69 1519.2 Q1487.89 1515.64 1484.25 1515.64 M1484.25 1511.93 Q1490.06 1511.93 1493.12 1516.54 Q1496.2 1521.12 1496.2 1529.87 Q1496.2 1538.6 1493.12 1543.21 Q1490.06 1547.79 1484.25 1547.79 Q1478.44 1547.79 1475.37 1543.21 Q1472.31 1538.6 1472.31 1529.87 Q1472.31 1521.12 1475.37 1516.54 Q1478.44 1511.93 1484.25 1511.93 Z" fill="#000000" fill-rule="evenodd" fill-opacity="1" /><path clip-path="url(#clip670)" d="M 0 0 M1869.48 1516.63 L1857.68 1535.08 L1869.48 1535.08 L1869.48 1516.63 M1868.26 1512.56 L1874.13 1512.56 L1874.13 1535.08 L1879.07 1535.08 L1879.07 1538.97 L1874.13 1538.97 L1874.13 1547.12 L1869.48 1547.12 L1869.48 1538.97 L1853.88 1538.97 L1853.88 1534.46 L1868.26 1512.56 Z" fill="#000000" fill-rule="evenodd" fill-opacity="1" /><path clip-path="url(#clip670)" d="M 0 0 M1896.8 1515.64 Q1893.19 1515.64 1891.36 1519.2 Q1889.55 1522.75 1889.55 1529.87 Q1889.55 1536.98 1891.36 1540.55 Q1893.19 1544.09 1896.8 1544.09 Q1900.43 1544.09 1902.24 1540.55 Q1904.07 1536.98 1904.07 1529.87 Q1904.07 1522.75 1902.24 1519.2 Q1900.43 1515.64 1896.8 1515.64 M1896.8 1511.93 Q1902.61 1511.93 1905.66 1516.54 Q1908.74 1521.12 1908.74 1529.87 Q1908.74 1538.6 1905.66 1543.21 Q1902.61 1547.79 1896.8 1547.79 Q1890.99 1547.79 1887.91 1543.21 Q1884.85 1538.6 1884.85 1529.87 Q1884.85 1521.12 1887.91 1516.54 Q1890.99 1511.93 1896.8 1511.93 Z" fill="#000000" fill-rule="evenodd" fill-opacity="1" /><path clip-path="url(#clip670)" d="M 0 0 M2267.9 1512.56 L2286.26 1512.56 L2286.26 1516.5 L2272.19 1516.5 L2272.19 1524.97 Q2273.2 1524.62 2274.22 1524.46 Q2275.24 1524.27 2276.26 1524.27 Q2282.05 1524.27 2285.43 1527.44 Q2288.81 1530.62 2288.81 1536.03 Q2288.81 1541.61 2285.33 1544.71 Q2281.86 1547.79 2275.54 1547.79 Q2273.37 1547.79 2271.1 1547.42 Q2268.85 1547.05 2266.45 1546.31 L2266.45 1541.61 Q2268.53 1542.74 2270.75 1543.3 Q2272.97 1543.86 2275.45 1543.86 Q2279.45 1543.86 2281.79 1541.75 Q2284.13 1539.64 2284.13 1536.03 Q2284.13 1532.42 2281.79 1530.31 Q2279.45 1528.21 2275.45 1528.21 Q2273.58 1528.21 2271.7 1528.62 Q2269.85 1529.04 2267.9 1529.92 L2267.9 1512.56 Z" fill="#000000" fill-rule="evenodd" fill-opacity="1" /><path clip-path="url(#clip670)" d="M 0 0 M2308.02 1515.64 Q2304.41 1515.64 2302.58 1519.2 Q2300.77 1522.75 2300.77 1529.87 Q2300.77 1536.98 2302.58 1540.55 Q2304.41 1544.09 2308.02 1544.09 Q2311.65 1544.09 2313.46 1540.55 Q2315.29 1536.98 2315.29 1529.87 Q2315.29 1522.75 2313.46 1519.2 Q2311.65 1515.64 2308.02 1515.64 M2308.02 1511.93 Q2313.83 1511.93 2316.89 1516.54 Q2319.96 1521.12 2319.96 1529.87 Q2319.96 1538.6 2316.89 1543.21 Q2313.83 1547.79 2308.02 1547.79 Q2302.21 1547.79 2299.13 1543.21 Q2296.08 1538.6 2296.08 1529.87 Q2296.08 1521.12 2299.13 1516.54 Q2302.21 1511.93 2308.02 1511.93 Z" fill="#000000" fill-rule="evenodd" fill-opacity="1" /><polyline clip-path="url(#clip672)" style="stroke:#000000; stroke-width:2; stroke-opacity:0.1; fill:none" points="
  172.015,1445.72 2352.76,1445.72 
  "/>
<polyline clip-path="url(#clip672)" style="stroke:#000000; stroke-width:2; stroke-opacity:0.1; fill:none" points="
  172.015,1178.22 2352.76,1178.22 
  "/>
<polyline clip-path="url(#clip672)" style="stroke:#000000; stroke-width:2; stroke-opacity:0.1; fill:none" points="
  172.015,910.721 2352.76,910.721 
  "/>
<polyline clip-path="url(#clip672)" style="stroke:#000000; stroke-width:2; stroke-opacity:0.1; fill:none" points="
  172.015,643.223 2352.76,643.223 
  "/>
<polyline clip-path="url(#clip672)" style="stroke:#000000; stroke-width:2; stroke-opacity:0.1; fill:none" points="
  172.015,375.726 2352.76,375.726 
  "/>
<polyline clip-path="url(#clip672)" style="stroke:#000000; stroke-width:2; stroke-opacity:0.1; fill:none" points="
  172.015,108.228 2352.76,108.228 
  "/>
<polyline clip-path="url(#clip670)" style="stroke:#000000; stroke-width:4; stroke-opacity:1; fill:none" points="
  172.015,1486.45 172.015,47.2441 
  "/>
<polyline clip-path="url(#clip670)" style="stroke:#000000; stroke-width:4; stroke-opacity:1; fill:none" points="
  172.015,1445.72 198.184,1445.72 
  "/>
<polyline clip-path="url(#clip670)" style="stroke:#000000; stroke-width:4; stroke-opacity:1; fill:none" points="
  172.015,1178.22 198.184,1178.22 
  "/>
<polyline clip-path="url(#clip670)" style="stroke:#000000; stroke-width:4; stroke-opacity:1; fill:none" points="
  172.015,910.721 198.184,910.721 
  "/>
<polyline clip-path="url(#clip670)" style="stroke:#000000; stroke-width:4; stroke-opacity:1; fill:none" points="
  172.015,643.223 198.184,643.223 
  "/>
<polyline clip-path="url(#clip670)" style="stroke:#000000; stroke-width:4; stroke-opacity:1; fill:none" points="
  172.015,375.726 198.184,375.726 
  "/>
<polyline clip-path="url(#clip670)" style="stroke:#000000; stroke-width:4; stroke-opacity:1; fill:none" points="
  172.015,108.228 198.184,108.228 
  "/>
<path clip-path="url(#clip670)" d="M 0 0 M124.07 1431.51 Q120.459 1431.51 118.631 1435.08 Q116.825 1438.62 116.825 1445.75 Q116.825 1452.86 118.631 1456.42 Q120.459 1459.96 124.07 1459.96 Q127.705 1459.96 129.51 1456.42 Q131.339 1452.86 131.339 1445.75 Q131.339 1438.62 129.51 1435.08 Q127.705 1431.51 124.07 1431.51 M124.07 1427.81 Q129.881 1427.81 132.936 1432.42 Q136.015 1437 136.015 1445.75 Q136.015 1454.48 132.936 1459.08 Q129.881 1463.67 124.07 1463.67 Q118.26 1463.67 115.182 1459.08 Q112.126 1454.48 112.126 1445.75 Q112.126 1437 115.182 1432.42 Q118.26 1427.81 124.07 1427.81 Z" fill="#000000" fill-rule="evenodd" fill-opacity="1" /><path clip-path="url(#clip670)" d="M 0 0 M54.5569 1191.56 L62.1958 1191.56 L62.1958 1165.2 L53.8856 1166.86 L53.8856 1162.6 L62.1495 1160.94 L66.8254 1160.94 L66.8254 1191.56 L74.4642 1191.56 L74.4642 1195.5 L54.5569 1195.5 L54.5569 1191.56 Z" fill="#000000" fill-rule="evenodd" fill-opacity="1" /><path clip-path="url(#clip670)" d="M 0 0 M93.9086 1164.02 Q90.2975 1164.02 88.4688 1167.58 Q86.6632 1171.12 86.6632 1178.25 Q86.6632 1185.36 88.4688 1188.92 Q90.2975 1192.47 93.9086 1192.47 Q97.5428 1192.47 99.3483 1188.92 Q101.177 1185.36 101.177 1178.25 Q101.177 1171.12 99.3483 1167.58 Q97.5428 1164.02 93.9086 1164.02 M93.9086 1160.31 Q99.7187 1160.31 102.774 1164.92 Q105.853 1169.5 105.853 1178.25 Q105.853 1186.98 102.774 1191.59 Q99.7187 1196.17 93.9086 1196.17 Q88.0984 1196.17 85.0197 1191.59 Q81.9642 1186.98 81.9642 1178.25 Q81.9642 1169.5 85.0197 1164.92 Q88.0984 1160.31 93.9086 1160.31 Z" fill="#000000" fill-rule="evenodd" fill-opacity="1" /><path clip-path="url(#clip670)" d="M 0 0 M124.07 1164.02 Q120.459 1164.02 118.631 1167.58 Q116.825 1171.12 116.825 1178.25 Q116.825 1185.36 118.631 1188.92 Q120.459 1192.47 124.07 1192.47 Q127.705 1192.47 129.51 1188.92 Q131.339 1185.36 131.339 1178.25 Q131.339 1171.12 129.51 1167.58 Q127.705 1164.02 124.07 1164.02 M124.07 1160.31 Q129.881 1160.31 132.936 1164.92 Q136.015 1169.5 136.015 1178.25 Q136.015 1186.98 132.936 1191.59 Q129.881 1196.17 124.07 1196.17 Q118.26 1196.17 115.182 1191.59 Q112.126 1186.98 112.126 1178.25 Q112.126 1169.5 115.182 1164.92 Q118.26 1160.31 124.07 1160.31 Z" fill="#000000" fill-rule="evenodd" fill-opacity="1" /><path clip-path="url(#clip670)" d="M 0 0 M57.7745 924.066 L74.0939 924.066 L74.0939 928.001 L52.1495 928.001 L52.1495 924.066 Q54.8115 921.311 59.3949 916.681 Q64.0013 912.029 65.1819 910.686 Q67.4272 908.163 68.3068 906.427 Q69.2096 904.668 69.2096 902.978 Q69.2096 900.223 67.2652 898.487 Q65.3439 896.751 62.2421 896.751 Q60.043 896.751 57.5893 897.515 Q55.1588 898.279 52.381 899.83 L52.381 895.107 Q55.2051 893.973 57.6588 893.395 Q60.1124 892.816 62.1495 892.816 Q67.5198 892.816 70.7142 895.501 Q73.9087 898.186 73.9087 902.677 Q73.9087 904.806 73.0985 906.728 Q72.3115 908.626 70.205 911.218 Q69.6263 911.89 66.5245 915.107 Q63.4226 918.302 57.7745 924.066 Z" fill="#000000" fill-rule="evenodd" fill-opacity="1" /><path clip-path="url(#clip670)" d="M 0 0 M93.9086 896.519 Q90.2975 896.519 88.4688 900.084 Q86.6632 903.626 86.6632 910.756 Q86.6632 917.862 88.4688 921.427 Q90.2975 924.968 93.9086 924.968 Q97.5428 924.968 99.3483 921.427 Q101.177 917.862 101.177 910.756 Q101.177 903.626 99.3483 900.084 Q97.5428 896.519 93.9086 896.519 M93.9086 892.816 Q99.7187 892.816 102.774 897.422 Q105.853 902.006 105.853 910.756 Q105.853 919.482 102.774 924.089 Q99.7187 928.672 93.9086 928.672 Q88.0984 928.672 85.0197 924.089 Q81.9642 919.482 81.9642 910.756 Q81.9642 902.006 85.0197 897.422 Q88.0984 892.816 93.9086 892.816 Z" fill="#000000" fill-rule="evenodd" fill-opacity="1" /><path clip-path="url(#clip670)" d="M 0 0 M124.07 896.519 Q120.459 896.519 118.631 900.084 Q116.825 903.626 116.825 910.756 Q116.825 917.862 118.631 921.427 Q120.459 924.968 124.07 924.968 Q127.705 924.968 129.51 921.427 Q131.339 917.862 131.339 910.756 Q131.339 903.626 129.51 900.084 Q127.705 896.519 124.07 896.519 M124.07 892.816 Q129.881 892.816 132.936 897.422 Q136.015 902.006 136.015 910.756 Q136.015 919.482 132.936 924.089 Q129.881 928.672 124.07 928.672 Q118.26 928.672 115.182 924.089 Q112.126 919.482 112.126 910.756 Q112.126 902.006 115.182 897.422 Q118.26 892.816 124.07 892.816 Z" fill="#000000" fill-rule="evenodd" fill-opacity="1" /><path clip-path="url(#clip670)" d="M 0 0 M67.9133 641.869 Q71.2698 642.587 73.1448 644.855 Q75.0429 647.124 75.0429 650.457 Q75.0429 655.573 71.5244 658.374 Q68.0059 661.175 61.5245 661.175 Q59.3486 661.175 57.0338 660.735 Q54.7421 660.318 52.2884 659.462 L52.2884 654.948 Q54.2328 656.082 56.5477 656.661 Q58.8625 657.239 61.3856 657.239 Q65.7837 657.239 68.0754 655.503 Q70.3902 653.767 70.3902 650.457 Q70.3902 647.402 68.2374 645.689 Q66.1078 643.953 62.2884 643.953 L58.2606 643.953 L58.2606 640.11 L62.4735 640.11 Q65.9226 640.11 67.7513 638.744 Q69.58 637.355 69.58 634.763 Q69.58 632.101 67.6819 630.689 Q65.8069 629.254 62.2884 629.254 Q60.3671 629.254 58.168 629.67 Q55.969 630.087 53.3301 630.966 L53.3301 626.8 Q55.9921 626.059 58.3069 625.689 Q60.6449 625.318 62.705 625.318 Q68.0291 625.318 71.1309 627.749 Q74.2327 630.156 74.2327 634.277 Q74.2327 637.147 72.5892 639.138 Q70.9457 641.105 67.9133 641.869 Z" fill="#000000" fill-rule="evenodd" fill-opacity="1" /><path clip-path="url(#clip670)" d="M 0 0 M93.9086 629.022 Q90.2975 629.022 88.4688 632.587 Q86.6632 636.128 86.6632 643.258 Q86.6632 650.365 88.4688 653.929 Q90.2975 657.471 93.9086 657.471 Q97.5428 657.471 99.3483 653.929 Q101.177 650.365 101.177 643.258 Q101.177 636.128 99.3483 632.587 Q97.5428 629.022 93.9086 629.022 M93.9086 625.318 Q99.7187 625.318 102.774 629.925 Q105.853 634.508 105.853 643.258 Q105.853 651.985 102.774 656.591 Q99.7187 661.175 93.9086 661.175 Q88.0984 661.175 85.0197 656.591 Q81.9642 651.985 81.9642 643.258 Q81.9642 634.508 85.0197 629.925 Q88.0984 625.318 93.9086 625.318 Z" fill="#000000" fill-rule="evenodd" fill-opacity="1" /><path clip-path="url(#clip670)" d="M 0 0 M124.07 629.022 Q120.459 629.022 118.631 632.587 Q116.825 636.128 116.825 643.258 Q116.825 650.365 118.631 653.929 Q120.459 657.471 124.07 657.471 Q127.705 657.471 129.51 653.929 Q131.339 650.365 131.339 643.258 Q131.339 636.128 129.51 632.587 Q127.705 629.022 124.07 629.022 M124.07 625.318 Q129.881 625.318 132.936 629.925 Q136.015 634.508 136.015 643.258 Q136.015 651.985 132.936 656.591 Q129.881 661.175 124.07 661.175 Q118.26 661.175 115.182 656.591 Q112.126 651.985 112.126 643.258 Q112.126 634.508 115.182 629.925 Q118.26 625.318 124.07 625.318 Z" fill="#000000" fill-rule="evenodd" fill-opacity="1" /><path clip-path="url(#clip670)" d="M 0 0 M66.5939 362.52 L54.7884 380.969 L66.5939 380.969 L66.5939 362.52 M65.367 358.446 L71.2466 358.446 L71.2466 380.969 L76.1772 380.969 L76.1772 384.858 L71.2466 384.858 L71.2466 393.006 L66.5939 393.006 L66.5939 384.858 L50.9921 384.858 L50.9921 380.344 L65.367 358.446 Z" fill="#000000" fill-rule="evenodd" fill-opacity="1" /><path clip-path="url(#clip670)" d="M 0 0 M93.9086 361.525 Q90.2975 361.525 88.4688 365.089 Q86.6632 368.631 86.6632 375.761 Q86.6632 382.867 88.4688 386.432 Q90.2975 389.974 93.9086 389.974 Q97.5428 389.974 99.3483 386.432 Q101.177 382.867 101.177 375.761 Q101.177 368.631 99.3483 365.089 Q97.5428 361.525 93.9086 361.525 M93.9086 357.821 Q99.7187 357.821 102.774 362.427 Q105.853 367.011 105.853 375.761 Q105.853 384.487 102.774 389.094 Q99.7187 393.677 93.9086 393.677 Q88.0984 393.677 85.0197 389.094 Q81.9642 384.487 81.9642 375.761 Q81.9642 367.011 85.0197 362.427 Q88.0984 357.821 93.9086 357.821 Z" fill="#000000" fill-rule="evenodd" fill-opacity="1" /><path clip-path="url(#clip670)" d="M 0 0 M124.07 361.525 Q120.459 361.525 118.631 365.089 Q116.825 368.631 116.825 375.761 Q116.825 382.867 118.631 386.432 Q120.459 389.974 124.07 389.974 Q127.705 389.974 129.51 386.432 Q131.339 382.867 131.339 375.761 Q131.339 368.631 129.51 365.089 Q127.705 361.525 124.07 361.525 M124.07 357.821 Q129.881 357.821 132.936 362.427 Q136.015 367.011 136.015 375.761 Q136.015 384.487 132.936 389.094 Q129.881 393.677 124.07 393.677 Q118.26 393.677 115.182 389.094 Q112.126 384.487 112.126 375.761 Q112.126 367.011 115.182 362.427 Q118.26 357.821 124.07 357.821 Z" fill="#000000" fill-rule="evenodd" fill-opacity="1" /><path clip-path="url(#clip670)" d="M 0 0 M53.793 90.9485 L72.1494 90.9485 L72.1494 94.8836 L58.0754 94.8836 L58.0754 103.356 Q59.0939 103.009 60.1124 102.847 Q61.131 102.661 62.1495 102.661 Q67.9365 102.661 71.3161 105.833 Q74.6957 109.004 74.6957 114.421 Q74.6957 119.999 71.2235 123.101 Q67.7513 126.18 61.4319 126.18 Q59.256 126.18 56.9875 125.809 Q54.7421 125.439 52.3347 124.698 L52.3347 119.999 Q54.418 121.133 56.6402 121.689 Q58.8625 122.245 61.3393 122.245 Q65.3439 122.245 67.6819 120.138 Q70.0198 118.032 70.0198 114.421 Q70.0198 110.809 67.6819 108.703 Q65.3439 106.597 61.3393 106.597 Q59.4643 106.597 57.5893 107.013 Q55.7375 107.43 53.793 108.309 L53.793 90.9485 Z" fill="#000000" fill-rule="evenodd" fill-opacity="1" /><path clip-path="url(#clip670)" d="M 0 0 M93.9086 94.0272 Q90.2975 94.0272 88.4688 97.592 Q86.6632 101.134 86.6632 108.263 Q86.6632 115.37 88.4688 118.934 Q90.2975 122.476 93.9086 122.476 Q97.5428 122.476 99.3483 118.934 Q101.177 115.37 101.177 108.263 Q101.177 101.134 99.3483 97.592 Q97.5428 94.0272 93.9086 94.0272 M93.9086 90.3235 Q99.7187 90.3235 102.774 94.9299 Q105.853 99.5132 105.853 108.263 Q105.853 116.99 102.774 121.596 Q99.7187 126.18 93.9086 126.18 Q88.0984 126.18 85.0197 121.596 Q81.9642 116.99 81.9642 108.263 Q81.9642 99.5132 85.0197 94.9299 Q88.0984 90.3235 93.9086 90.3235 Z" fill="#000000" fill-rule="evenodd" fill-opacity="1" /><path clip-path="url(#clip670)" d="M 0 0 M124.07 94.0272 Q120.459 94.0272 118.631 97.592 Q116.825 101.134 116.825 108.263 Q116.825 115.37 118.631 118.934 Q120.459 122.476 124.07 122.476 Q127.705 122.476 129.51 118.934 Q131.339 115.37 131.339 108.263 Q131.339 101.134 129.51 97.592 Q127.705 94.0272 124.07 94.0272 M124.07 90.3235 Q129.881 90.3235 132.936 94.9299 Q136.015 99.5132 136.015 108.263 Q136.015 116.99 132.936 121.596 Q129.881 126.18 124.07 126.18 Q118.26 126.18 115.182 121.596 Q112.126 116.99 112.126 108.263 Q112.126 99.5132 115.182 94.9299 Q118.26 90.3235 124.07 90.3235 Z" fill="#000000" fill-rule="evenodd" fill-opacity="1" /><polyline clip-path="url(#clip672)" style="stroke:#009af9; stroke-width:4; stroke-opacity:1; fill:none" points="
  233.734,1445.72 235.902,750.639 238.07,1087.47 240.237,1108.66 242.405,1283.43 244.573,1256.43 246.741,1214.85 248.909,1323.77 251.077,1360.58 253.245,1292.13 
  255.413,1400.34 257.58,1281.26 259.748,1336.21 261.916,1375.22 264.084,1417.33 266.252,1319.3 268.42,1276.61 270.588,1391.08 272.755,1283.72 274.923,1321.4 
  277.091,1313.67 279.259,1161.28 281.427,1177.69 283.595,1394.1 285.763,1289.03 287.931,1233.2 290.098,1269.28 292.266,1178.35 294.434,1389.93 296.602,1332.46 
  298.77,1324.34 300.938,1267.1 303.106,1348.51 305.273,1319.79 307.441,1372.74 309.609,1325.64 311.777,1336.99 313.945,1199.72 316.113,1356.32 318.281,1383.62 
  320.448,1359.98 322.616,1395.21 324.784,1321.74 326.952,1329.86 329.12,1228.95 331.288,1274.78 333.456,1356.54 335.624,1389.62 337.791,1207.08 339.959,1199.06 
  342.127,1387.95 344.295,1402.88 346.463,1381.21 348.631,1202.47 350.799,1338.98 352.966,1380.06 355.134,1431.83 357.302,1144.28 359.47,1346.46 361.638,1325.24 
  363.806,1410.6 365.974,1382.3 368.141,1378.13 370.309,1364.98 372.477,1267.26 374.645,1349.63 376.813,1313.18 378.981,1306.1 381.149,1349.47 383.317,1329.3 
  385.484,1395.98 387.652,1209.46 389.82,1340.2 391.988,1366.55 394.156,1397.24 396.324,1388.68 398.492,87.9763 400.659,1337.3 402.827,1403.79 404.995,1139.43 
  407.163,1415.19 409.331,1360.85 411.499,1300.27 413.667,1395.49 415.834,1378.69 418.002,1338.8 420.17,1342.54 422.338,1324.88 424.506,1320.62 426.674,1299.19 
  428.842,1348.93 431.01,1359.71 433.177,1228.18 435.345,1327.4 437.513,1352.95 439.681,1359.59 441.849,1293.83 444.017,1324.05 446.185,1405.91 448.352,1375.12 
  450.52,1354.26 452.688,1241.35 454.856,1313.24 457.024,1413.57 459.192,1330.37 461.36,1392.85 463.527,1338.67 465.695,1364.71 467.863,1417.7 470.031,1342.6 
  472.199,1374.71 474.367,1293.72 476.535,1358.05 478.703,1407.13 480.87,1355.12 483.038,1364.67 485.206,1313.71 487.374,1349.46 489.542,1309.6 491.71,1389.49 
  493.878,1254.45 496.045,1377.76 498.213,1346.99 500.381,1321.14 502.549,1342.32 504.717,1424.97 506.885,1357.12 509.053,1309.99 511.22,1413.2 513.388,1311.52 
  515.556,1379.23 517.724,1383.52 519.892,1350.51 522.06,1428.65 524.228,1434.72 526.396,1357.77 528.563,1417.28 530.731,1406.16 532.899,1297.69 535.067,1433.46 
  537.235,1406.56 539.403,1364.02 541.571,1350.05 543.738,1302.95 545.906,1401.81 548.074,1361.64 550.242,1382.97 552.41,1418.37 554.578,1412.28 556.746,1363.89 
  558.914,1333.33 561.081,1414.43 563.249,1366.61 565.417,1334.35 567.585,1427.11 569.753,1431.53 571.921,1399.06 574.089,1405.15 576.256,1406.92 578.424,1406.93 
  580.592,1412.41 582.76,1352.77 584.928,1351.57 587.096,1417.41 589.264,1372.14 591.431,1357.02 593.599,1352.72 595.767,1400.93 597.935,1425.09 600.103,1391.97 
  602.271,1407.65 604.439,1390.88 606.607,1320.21 608.774,1427.96 610.942,1423.2 613.11,1379.03 615.278,1413.95 617.446,1409.67 619.614,1371.28 621.782,1423.35 
  623.949,1355.65 626.117,1408.62 628.285,1423.3 630.453,1360.74 632.621,1397.54 634.789,1442.44 636.957,1424.8 639.124,1400.23 641.292,1394.53 643.46,1384.8 
  645.628,1419.12 647.796,1425.83 649.964,1434.88 652.132,1403.24 654.3,1387.37 656.467,1423.25 658.635,1355.88 660.803,1410.83 662.971,1401.22 665.139,1431.46 
  667.307,1386.88 669.475,1368.79 671.642,1406.28 673.81,1432.79 675.978,1429.2 678.146,1434.6 680.314,1422.34 682.482,1429.05 684.65,1424.12 686.817,1391.23 
  688.985,1367.88 691.153,1397.58 693.321,1419.18 695.489,1428.58 697.657,1425.92 699.825,1424.03 701.993,1412.46 704.16,1398.6 706.328,1405.87 708.496,1421.39 
  710.664,1352.51 712.832,1422.37 715,1440.22 717.168,1414.41 719.335,1399.05 721.503,1424.65 723.671,1401.11 725.839,1418.89 728.007,1429.53 730.175,1428.08 
  732.343,1419.89 734.51,1424.76 736.678,1407.8 738.846,1385.04 741.014,1391.64 743.182,1440.18 745.35,1407.64 747.518,1432.83 749.686,1426.89 751.853,1410.97 
  754.021,1405.59 756.189,1426.19 758.357,1440 760.525,1434.08 762.693,1422.26 764.861,1419.62 767.028,1440.37 769.196,1425.56 771.364,1405.26 773.532,1432.14 
  775.7,1428.77 777.868,1407.04 780.036,1437.16 782.203,1402.48 784.371,1430.95 786.539,1424.78 788.707,1406.94 790.875,1435.39 793.043,1426.62 795.211,1425.77 
  797.379,1435.73 799.546,1403.85 801.714,1437.37 803.882,1430.89 806.05,1429.04 808.218,1412.87 810.386,1429.87 812.554,1434.96 814.721,1428.26 816.889,1429.99 
  819.057,1440.83 821.225,1431.62 823.393,1440.2 825.561,1435.2 827.729,1435.33 829.896,1423.55 832.064,1435.15 834.232,1436.51 836.4,1426.32 838.568,1413.88 
  840.736,1438.69 842.904,1416.7 845.072,1416.23 847.239,1404.98 849.407,1431.78 851.575,1434.29 853.743,1432.58 855.911,1439.45 858.079,1435.43 860.247,1441.41 
  862.414,1428.15 864.582,1442.39 866.75,1431.04 868.918,1421.36 871.086,1441.51 873.254,1436.43 875.422,1432.33 877.59,1429.18 879.757,1435.61 881.925,1434.57 
  884.093,1429.79 886.261,1433.91 888.429,1434.1 890.597,1440.74 892.765,1431.21 894.932,1436.61 897.1,1440.2 899.268,1431.17 901.436,1442.15 903.604,1430.22 
  905.772,1435.42 907.94,1430.34 910.107,1441.55 912.275,1442.45 914.443,1431.33 916.611,1438.25 918.779,1440.55 920.947,1443.5 923.115,1441.37 925.283,1429.06 
  927.45,1439.84 929.618,1438.21 931.786,1440.52 933.954,1442.14 936.122,1434.28 938.29,1440.73 940.458,1435.91 942.625,1440.3 944.793,1437.7 946.961,1438.19 
  949.129,1440.94 951.297,1444.37 953.465,1443.94 955.633,1440.25 957.8,1442.39 959.968,1433.25 962.136,1441.72 964.304,1438.89 966.472,1437.87 968.64,1438.06 
  970.808,1443.72 972.976,1439.68 975.143,1435.05 977.311,1440.82 979.479,1439.31 981.647,1438.29 983.815,1439.09 985.983,1440.86 988.151,1440.08 990.318,1441.55 
  992.486,1445.14 994.654,1440.63 996.822,1444.65 998.99,1440.37 1001.16,1440.93 1003.33,1441.93 1005.49,1442.38 1007.66,1440.65 1009.83,1444.96 1012,1439.61 
  1014.16,1441.82 1016.33,1440.74 1018.5,1442.45 1020.67,1440.16 1022.84,1445.28 1025,1443.24 1027.17,1444.01 1029.34,1443.98 1031.51,1442.68 1033.68,1442.42 
  1035.84,1441.82 1038.01,1442.2 1040.18,1442.72 1042.35,1443.49 1044.52,1443.25 1046.68,1442.58 1048.85,1441.01 1051.02,1442.27 1053.19,1441.68 1055.35,1442.48 
  1057.52,1442.29 1059.69,1441.93 1061.86,1444.37 1064.03,1441.94 1066.19,1441.47 1068.36,1444.78 1070.53,1444.11 1072.7,1444.54 1074.87,1443.23 1077.03,1444.11 
  1079.2,1442.95 1081.37,1443.49 1083.54,1443.17 1085.7,1444.45 1087.87,1443.19 1090.04,1443.84 1092.21,1443.77 1094.38,1442.87 1096.54,1444.06 1098.71,1444.55 
  1100.88,1444.66 1103.05,1443.42 1105.22,1444.87 1107.38,1442.84 1109.55,1444.5 1111.72,1444.02 1113.89,1442.53 1116.05,1444.58 1118.22,1444.77 1120.39,1443.23 
  1122.56,1444.14 1124.73,1444.21 1126.89,1444.19 1129.06,1445.22 1131.23,1445.33 1133.4,1445.27 1135.57,1443.69 1137.73,1442.42 1139.9,1444.45 1142.07,1444.42 
  1144.24,1444.19 1146.4,1444.54 1148.57,1444.26 1150.74,1443.94 1152.91,1443.83 1155.08,1444.75 1157.24,1443.99 1159.41,1445.17 1161.58,1445.06 1163.75,1445.3 
  1165.92,1443.4 1168.08,1444.82 1170.25,1445.04 1172.42,1445.51 1174.59,1444.92 1176.75,1444.68 1178.92,1443.67 1181.09,1444.18 1183.26,1444.67 1185.43,1443.78 
  1187.59,1445.05 1189.76,1445.22 1191.93,1445.68 1194.1,1444.47 1196.27,1443.9 1198.43,1445.5 1200.6,1444.86 1202.77,1445.54 1204.94,1444.94 1207.1,1445.01 
  1209.27,1444.58 1211.44,1444.06 1213.61,1444.5 1215.78,1444.9 1217.94,1443.8 1220.11,1444.56 1222.28,1445.14 1224.45,1444 1226.62,1444.68 1228.78,1444.33 
  1230.95,1445.19 1233.12,1444.59 1235.29,1445.37 1237.45,1444.58 1239.62,1444.73 1241.79,1444.4 1243.96,1444.46 1246.13,1444.98 1248.29,1444.25 1250.46,1445.4 
  1252.63,1444.74 1254.8,1444.32 1256.97,1444.51 1259.13,1445.06 1261.3,1444.94 1263.47,1445.58 1265.64,1444.72 1267.81,1445.42 1269.97,1445.31 1272.14,1445.05 
  1274.31,1444.5 1276.48,1444.8 1278.64,1445.16 1280.81,1444.69 1282.98,1444.92 1285.15,1444.88 1287.32,1444.78 1289.48,1444.89 1291.65,1444.8 1293.82,1444.69 
  1295.99,1444.82 1298.16,1444.99 1300.32,1445.21 1302.49,1444.46 1304.66,1444.84 1306.83,1444.81 1308.99,1444.68 1311.16,1444.63 1313.33,1444.98 1315.5,1445.04 
  1317.67,1444.97 1319.83,1445.36 1322,1444.62 1324.17,1444.84 1326.34,1445.47 1328.51,1445.1 1330.67,1444.93 1332.84,1445.02 1335.01,1444.57 1337.18,1445.25 
  1339.34,1445.05 1341.51,1445.34 1343.68,1444.87 1345.85,1445.16 1348.02,1444.78 1350.18,1445.04 1352.35,1445.18 1354.52,1444.88 1356.69,1444.99 1358.86,1445.26 
  1361.02,1444.95 1363.19,1445.1 1365.36,1445.03 1367.53,1444.91 1369.69,1444.87 1371.86,1445 1374.03,1445.03 1376.2,1444.7 1378.37,1444.82 1380.53,1445.14 
  1382.7,1444.86 1384.87,1445.13 1387.04,1445.07 1389.21,1444.71 1391.37,1444.92 1393.54,1445.06 1395.71,1444.95 1397.88,1444.82 1400.04,1445.05 1402.21,1444.97 
  1404.38,1444.96 1406.55,1445.03 1408.72,1444.91 1410.88,1444.9 1413.05,1444.8 1415.22,1445.04 1417.39,1445 1419.56,1445.15 1421.72,1444.99 1423.89,1445.09 
  1426.06,1445.09 1428.23,1445.1 1430.39,1445.04 1432.56,1444.99 1434.73,1445.02 1436.9,1445.12 1439.07,1445.06 1441.23,1445.06 1443.4,1445.2 1445.57,1445.43 
  1447.74,1445.03 1449.91,1445.12 1452.07,1445.05 1454.24,1445.04 1456.41,1444.96 1458.58,1445.01 1460.74,1445.1 1462.91,1445.12 1465.08,1445.12 1467.25,1444.9 
  1469.42,1444.91 1471.58,1445.02 1473.75,1445.03 1475.92,1445.04 1478.09,1445.04 1480.26,1445.04 1482.42,1445.04 1484.59,1445.14 1486.76,1445.04 1488.93,1445.03 
  1491.1,1445.18 1493.26,1445.07 1495.43,1445.06 1497.6,1445.06 1499.77,1445.06 1501.93,1445.06 1504.1,1445.07 1506.27,1445.07 1508.44,1445.07 1510.61,1445.08 
  1512.77,1445.09 1514.94,1445.16 1517.11,1445.03 1519.28,1445.07 1521.45,1445.23 1523.61,1444.99 1525.78,1445.03 1527.95,1445.04 1530.12,1445.05 1532.28,1445.05 
  1534.45,1445.05 1536.62,1445.05 1538.79,1445.06 1540.96,1445.06 1543.12,1445.06 1545.29,1445.06 1547.46,1445.06 1549.63,1445.06 1551.8,1445.06 1553.96,1445.06 
  1556.13,1445.06 1558.3,1445.06 1560.47,1445.06 1562.63,1445.06 1564.8,1445.09 1566.97,1445.07 1569.14,1445.07 1571.31,1445.07 1573.47,1445.07 1575.64,1445.07 
  1577.81,1445.07 1579.98,1445.07 1582.15,1445.08 1584.31,1445.08 1586.48,1445.08 1588.65,1445.08 1590.82,1445.08 1592.98,1445.08 1595.15,1445.08 1597.32,1445.08 
  1599.49,1445.08 1601.66,1445.08 1603.82,1445.08 1605.99,1445.08 1608.16,1445.08 1610.33,1445.08 1612.5,1445.08 1614.66,1445.08 1616.83,1445.09 1619,1445.09 
  1621.17,1445.09 1623.33,1445.09 1625.5,1445.09 1627.67,1445.09 1629.84,1445.09 1632.01,1445.09 1634.17,1445.09 1636.34,1445.09 1638.51,1445.09 1640.68,1445.09 
  1642.85,1445.09 1645.01,1445.09 1647.18,1445.09 1649.35,1445.09 1651.52,1445.1 1653.68,1445.1 1655.85,1445.1 1658.02,1445.1 1660.19,1445.1 1662.36,1445.1 
  1664.52,1445.1 1666.69,1445.1 1668.86,1445.1 1671.03,1445.1 1673.2,1445.1 1675.36,1445.11 1677.53,1445.11 1679.7,1445.14 1681.87,1445.08 1684.03,1445.09 
  1686.2,1445.1 1688.37,1445.1 1690.54,1445.1 1692.71,1445.1 1694.87,1445.1 1697.04,1445.1 1699.21,1445.1 1701.38,1445.1 1703.55,1445.11 1705.71,1445.11 
  1707.88,1445.11 1710.05,1445.11 1712.22,1445.11 1714.39,1445.11 1716.55,1445.11 1718.72,1445.11 1720.89,1445.11 1723.06,1445.11 1725.22,1445.11 1727.39,1445.11 
  1729.56,1445.11 1731.73,1445.11 1733.9,1445.11 1736.06,1445.11 1738.23,1445.11 1740.4,1445.11 1742.57,1445.11 1744.74,1445.12 1746.9,1445.12 1749.07,1445.12 
  1751.24,1445.12 1753.41,1445.12 1755.57,1445.12 1757.74,1445.12 1759.91,1445.12 1762.08,1445.12 1764.25,1445.12 1766.41,1445.12 1768.58,1445.12 1770.75,1445.12 
  1772.92,1445.12 1775.09,1445.12 1777.25,1445.12 1779.42,1445.12 1781.59,1445.12 1783.76,1445.12 1785.92,1445.12 1788.09,1445.12 1790.26,1445.12 1792.43,1445.12 
  1794.6,1445.13 1796.76,1445.13 1798.93,1445.13 1801.1,1445.13 1803.27,1445.13 1805.44,1445.13 1807.6,1445.13 1809.77,1445.13 1811.94,1445.13 1814.11,1445.13 
  1816.27,1445.13 1818.44,1445.13 1820.61,1445.13 1822.78,1445.13 1824.95,1445.13 1827.11,1445.13 1829.28,1445.13 1831.45,1445.13 1833.62,1445.13 1835.79,1445.13 
  1837.95,1445.13 1840.12,1445.13 1842.29,1445.13 1844.46,1445.13 1846.62,1445.13 1848.79,1445.13 1850.96,1445.14 1853.13,1445.14 1855.3,1445.14 1857.46,1445.14 
  1859.63,1445.14 1861.8,1445.14 1863.97,1445.14 1866.14,1445.14 1868.3,1445.14 1870.47,1445.14 1872.64,1445.14 1874.81,1445.14 1876.97,1445.14 1879.14,1445.14 
  1881.31,1445.14 1883.48,1445.14 1885.65,1445.14 1887.81,1445.14 1889.98,1445.14 1892.15,1445.14 1894.32,1445.14 1896.49,1445.14 1898.65,1445.14 1900.82,1445.14 
  1902.99,1445.14 1905.16,1445.14 1907.32,1445.14 1909.49,1445.14 1911.66,1445.14 1913.83,1445.14 1916,1445.14 1918.16,1445.15 1920.33,1445.15 1922.5,1445.15 
  1924.67,1445.15 1926.84,1445.15 1929,1445.15 1931.17,1445.15 1933.34,1445.15 1935.51,1445.15 1937.67,1445.15 1939.84,1445.15 1942.01,1445.15 1944.18,1445.15 
  1946.35,1445.15 1948.51,1445.15 1950.68,1445.15 1952.85,1445.15 1955.02,1445.15 1957.19,1445.15 1959.35,1445.15 1961.52,1445.15 1963.69,1445.15 1965.86,1445.15 
  1968.03,1445.15 1970.19,1445.15 1972.36,1445.15 1974.53,1445.15 1976.7,1445.15 1978.86,1445.15 1981.03,1445.15 1983.2,1445.15 1985.37,1445.15 1987.54,1445.15 
  1989.7,1445.15 1991.87,1445.15 1994.04,1445.15 1996.21,1445.15 1998.38,1445.15 2000.54,1445.15 2002.71,1445.16 2004.88,1445.16 2007.05,1445.16 2009.21,1445.16 
  2011.38,1445.16 2013.55,1445.16 2015.72,1445.16 2017.89,1445.16 2020.05,1445.16 2022.22,1445.16 2024.39,1445.16 2026.56,1445.16 2028.73,1445.16 2030.89,1445.16 
  2033.06,1445.16 2035.23,1445.16 2037.4,1445.16 2039.56,1445.16 2041.73,1445.16 2043.9,1445.16 2046.07,1445.16 2048.24,1445.16 2050.4,1445.16 2052.57,1445.16 
  2054.74,1445.16 2056.91,1445.16 2059.08,1445.16 2061.24,1445.16 2063.41,1445.16 2065.58,1445.16 2067.75,1445.16 2069.91,1445.16 2072.08,1445.16 2074.25,1445.16 
  2076.42,1445.16 2078.59,1445.16 2080.75,1445.16 2082.92,1445.16 2085.09,1445.16 2087.26,1445.16 2089.43,1445.16 2091.59,1445.16 2093.76,1445.16 2095.93,1445.16 
  2098.1,1445.16 2100.26,1445.16 2102.43,1445.16 2104.6,1445.16 2106.77,1445.16 2108.94,1445.16 2111.1,1445.16 2113.27,1445.16 2115.44,1445.16 2117.61,1445.16 
  2119.78,1445.16 2121.94,1445.16 2124.11,1445.16 2126.28,1445.16 2128.45,1445.16 2130.61,1445.16 2132.78,1445.17 2134.95,1445.17 2137.12,1445.17 2139.29,1445.17 
  2141.45,1445.17 2143.62,1445.17 2145.79,1445.17 2147.96,1445.17 2150.13,1445.17 2152.29,1445.17 2154.46,1445.17 2156.63,1445.17 2158.8,1445.17 2160.96,1445.17 
  2163.13,1445.17 2165.3,1445.17 2167.47,1445.17 2169.64,1445.17 2171.8,1445.17 2173.97,1445.17 2176.14,1445.17 2178.31,1445.17 2180.48,1445.17 2182.64,1445.17 
  2184.81,1445.17 2186.98,1445.17 2189.15,1445.17 2191.32,1445.17 2193.48,1445.17 2195.65,1445.17 2197.82,1445.17 2199.99,1445.17 2202.15,1445.17 2204.32,1445.17 
  2206.49,1445.17 2208.66,1445.17 2210.83,1445.17 2212.99,1445.17 2215.16,1445.17 2217.33,1445.17 2219.5,1445.17 2221.67,1445.17 2223.83,1445.17 2226,1445.17 
  2228.17,1445.17 2230.34,1445.17 2232.5,1445.17 2234.67,1445.17 2236.84,1445.17 2239.01,1445.17 2241.18,1445.17 2243.34,1445.17 2245.51,1445.17 2247.68,1445.17 
  2249.85,1445.17 2252.02,1445.17 2254.18,1445.17 2256.35,1445.17 2258.52,1445.17 2260.69,1445.17 2262.85,1445.17 2265.02,1445.17 2267.19,1445.17 2269.36,1445.17 
  2271.53,1445.17 2273.69,1445.17 2275.86,1445.17 2278.03,1445.17 2280.2,1445.17 2282.37,1445.17 2284.53,1445.17 2286.7,1445.17 2288.87,1445.17 2291.04,1445.17 
  
  "/>
<path clip-path="url(#clip670)" d="
M1985.33 216.178 L2280.06 216.178 L2280.06 95.2176 L1985.33 95.2176  Z
  " fill="#ffffff" fill-rule="evenodd" fill-opacity="1"/>
<polyline clip-path="url(#clip670)" style="stroke:#000000; stroke-width:4; stroke-opacity:1; fill:none" points="
  1985.33,216.178 2280.06,216.178 2280.06,95.2176 1985.33,95.2176 1985.33,216.178 
  "/>
<polyline clip-path="url(#clip670)" style="stroke:#009af9; stroke-width:4; stroke-opacity:1; fill:none" points="
  2009.56,155.698 2154.94,155.698 
  "/>
<path clip-path="url(#clip670)" d="M 0 0 M2193.02 175.385 Q2191.21 180.015 2189.5 181.427 Q2187.78 182.839 2184.91 182.839 L2181.51 182.839 L2181.51 179.274 L2184.01 179.274 Q2185.77 179.274 2186.74 178.44 Q2187.71 177.607 2188.9 174.505 L2189.66 172.561 L2179.17 147.052 L2183.69 147.052 L2191.79 167.329 L2199.89 147.052 L2204.4 147.052 L2193.02 175.385 Z" fill="#000000" fill-rule="evenodd" fill-opacity="1" /><path clip-path="url(#clip670)" d="M 0 0 M2211.7 169.042 L2219.34 169.042 L2219.34 142.677 L2211.03 144.343 L2211.03 140.084 L2219.29 138.418 L2223.96 138.418 L2223.96 169.042 L2231.6 169.042 L2231.6 172.978 L2211.7 172.978 L2211.7 169.042 Z" fill="#000000" fill-rule="evenodd" fill-opacity="1" /></svg>
