<?xml version="1.0" encoding="utf-8"?>
<svg xmlns="http://www.w3.org/2000/svg" xmlns:xlink="http://www.w3.org/1999/xlink" width="600" height="400" viewBox="0 0 2400 1600">
<defs>
  <clipPath id="clip140">
    <rect x="0" y="0" width="2400" height="1600"/>
  </clipPath>
</defs>
<path clip-path="url(#clip140)" d="
M0 1600 L2400 1600 L2400 0 L0 0  Z
  " fill="#ffffff" fill-rule="evenodd" fill-opacity="1"/>
<defs>
  <clipPath id="clip141">
    <rect x="480" y="0" width="1681" height="1600"/>
  </clipPath>
</defs>
<defs>
  <clipPath id="clip142">
    <rect x="224" y="123" width="2130" height="1305"/>
  </clipPath>
</defs>
<path clip-path="url(#clip140)" d="
M266.337 1427.15 L2352.76 1427.15 L2352.76 123.472 L266.337 123.472  Z
  " fill="#ffffff" fill-rule="evenodd" fill-opacity="1"/>
<defs>
  <clipPath id="clip143">
    <rect x="266" y="123" width="2087" height="1305"/>
  </clipPath>
</defs>
<polyline clip-path="url(#clip143)" style="stroke:#000000; stroke-width:2; stroke-opacity:0.1; fill:none" points="
  325.387,1427.15 325.387,123.472 
  "/>
<polyline clip-path="url(#clip143)" style="stroke:#000000; stroke-width:2; stroke-opacity:0.1; fill:none" points="
  817.959,1427.15 817.959,123.472 
  "/>
<polyline clip-path="url(#clip143)" style="stroke:#000000; stroke-width:2; stroke-opacity:0.1; fill:none" points="
  1310.53,1427.15 1310.53,123.472 
  "/>
<polyline clip-path="url(#clip143)" style="stroke:#000000; stroke-width:2; stroke-opacity:0.1; fill:none" points="
  1803.1,1427.15 1803.1,123.472 
  "/>
<polyline clip-path="url(#clip143)" style="stroke:#000000; stroke-width:2; stroke-opacity:0.1; fill:none" points="
  2295.68,1427.15 2295.68,123.472 
  "/>
<polyline clip-path="url(#clip140)" style="stroke:#000000; stroke-width:4; stroke-opacity:1; fill:none" points="
  266.337,1427.15 2352.76,1427.15 
  "/>
<polyline clip-path="url(#clip140)" style="stroke:#000000; stroke-width:4; stroke-opacity:1; fill:none" points="
  325.387,1427.15 325.387,1411.5 
  "/>
<polyline clip-path="url(#clip140)" style="stroke:#000000; stroke-width:4; stroke-opacity:1; fill:none" points="
  817.959,1427.15 817.959,1411.5 
  "/>
<polyline clip-path="url(#clip140)" style="stroke:#000000; stroke-width:4; stroke-opacity:1; fill:none" points="
  1310.53,1427.15 1310.53,1411.5 
  "/>
<polyline clip-path="url(#clip140)" style="stroke:#000000; stroke-width:4; stroke-opacity:1; fill:none" points="
  1803.1,1427.15 1803.1,1411.5 
  "/>
<polyline clip-path="url(#clip140)" style="stroke:#000000; stroke-width:4; stroke-opacity:1; fill:none" points="
  2295.68,1427.15 2295.68,1411.5 
  "/>
<path clip-path="url(#clip140)" d="M 0 0 M302.771 1456.34 Q299.16 1456.34 297.331 1459.9 Q295.526 1463.44 295.526 1470.57 Q295.526 1477.68 297.331 1481.25 Q299.16 1484.79 302.771 1484.79 Q306.405 1484.79 308.211 1481.25 Q310.04 1477.68 310.04 1470.57 Q310.04 1463.44 308.211 1459.9 Q306.405 1456.34 302.771 1456.34 M302.771 1452.63 Q308.581 1452.63 311.637 1457.24 Q314.715 1461.82 314.715 1470.57 Q314.715 1479.3 311.637 1483.91 Q308.581 1488.49 302.771 1488.49 Q296.961 1488.49 293.882 1483.91 Q290.827 1479.3 290.827 1470.57 Q290.827 1461.82 293.882 1457.24 Q296.961 1452.63 302.771 1452.63 Z" fill="#000000" fill-rule="evenodd" fill-opacity="1" /><path clip-path="url(#clip140)" d="M 0 0 M322.933 1481.94 L327.817 1481.94 L327.817 1487.82 L322.933 1487.82 L322.933 1481.94 Z" fill="#000000" fill-rule="evenodd" fill-opacity="1" /><path clip-path="url(#clip140)" d="M 0 0 M348.002 1456.34 Q344.391 1456.34 342.562 1459.9 Q340.757 1463.44 340.757 1470.57 Q340.757 1477.68 342.562 1481.25 Q344.391 1484.79 348.002 1484.79 Q351.637 1484.79 353.442 1481.25 Q355.271 1477.68 355.271 1470.57 Q355.271 1463.44 353.442 1459.9 Q351.637 1456.34 348.002 1456.34 M348.002 1452.63 Q353.812 1452.63 356.868 1457.24 Q359.947 1461.82 359.947 1470.57 Q359.947 1479.3 356.868 1483.91 Q353.812 1488.49 348.002 1488.49 Q342.192 1488.49 339.113 1483.91 Q336.058 1479.3 336.058 1470.57 Q336.058 1461.82 339.113 1457.24 Q342.192 1452.63 348.002 1452.63 Z" fill="#000000" fill-rule="evenodd" fill-opacity="1" /><path clip-path="url(#clip140)" d="M 0 0 M789.695 1483.88 L806.015 1483.88 L806.015 1487.82 L784.07 1487.82 L784.07 1483.88 Q786.732 1481.13 791.316 1476.5 Q795.922 1471.85 797.103 1470.51 Q799.348 1467.98 800.228 1466.25 Q801.131 1464.49 801.131 1462.8 Q801.131 1460.04 799.186 1458.31 Q797.265 1456.57 794.163 1456.57 Q791.964 1456.57 789.51 1457.33 Q787.08 1458.1 784.302 1459.65 L784.302 1454.93 Q787.126 1453.79 789.58 1453.21 Q792.033 1452.63 794.07 1452.63 Q799.441 1452.63 802.635 1455.32 Q805.83 1458.01 805.83 1462.5 Q805.83 1464.63 805.019 1466.55 Q804.232 1468.44 802.126 1471.04 Q801.547 1471.71 798.445 1474.93 Q795.344 1478.12 789.695 1483.88 Z" fill="#000000" fill-rule="evenodd" fill-opacity="1" /><path clip-path="url(#clip140)" d="M 0 0 M815.83 1481.94 L820.714 1481.94 L820.714 1487.82 L815.83 1487.82 L815.83 1481.94 Z" fill="#000000" fill-rule="evenodd" fill-opacity="1" /><path clip-path="url(#clip140)" d="M 0 0 M830.945 1453.26 L849.302 1453.26 L849.302 1457.19 L835.228 1457.19 L835.228 1465.67 Q836.246 1465.32 837.265 1465.16 Q838.283 1464.97 839.302 1464.97 Q845.089 1464.97 848.468 1468.14 Q851.848 1471.32 851.848 1476.73 Q851.848 1482.31 848.376 1485.41 Q844.903 1488.49 838.584 1488.49 Q836.408 1488.49 834.14 1488.12 Q831.894 1487.75 829.487 1487.01 L829.487 1482.31 Q831.57 1483.44 833.792 1484 Q836.015 1484.56 838.491 1484.56 Q842.496 1484.56 844.834 1482.45 Q847.172 1480.34 847.172 1476.73 Q847.172 1473.12 844.834 1471.01 Q842.496 1468.91 838.491 1468.91 Q836.616 1468.91 834.741 1469.32 Q832.89 1469.74 830.945 1470.62 L830.945 1453.26 Z" fill="#000000" fill-rule="evenodd" fill-opacity="1" /><path clip-path="url(#clip140)" d="M 0 0 M1277.7 1453.26 L1296.05 1453.26 L1296.05 1457.19 L1281.98 1457.19 L1281.98 1465.67 Q1283 1465.32 1284.02 1465.16 Q1285.03 1464.97 1286.05 1464.97 Q1291.84 1464.97 1295.22 1468.14 Q1298.6 1471.32 1298.6 1476.73 Q1298.6 1482.31 1295.13 1485.41 Q1291.65 1488.49 1285.34 1488.49 Q1283.16 1488.49 1280.89 1488.12 Q1278.65 1487.75 1276.24 1487.01 L1276.24 1482.31 Q1278.32 1483.44 1280.54 1484 Q1282.77 1484.56 1285.24 1484.56 Q1289.25 1484.56 1291.58 1482.45 Q1293.92 1480.34 1293.92 1476.73 Q1293.92 1473.12 1291.58 1471.01 Q1289.25 1468.91 1285.24 1468.91 Q1283.37 1468.91 1281.49 1469.32 Q1279.64 1469.74 1277.7 1470.62 L1277.7 1453.26 Z" fill="#000000" fill-rule="evenodd" fill-opacity="1" /><path clip-path="url(#clip140)" d="M 0 0 M1307.81 1481.94 L1312.7 1481.94 L1312.7 1487.82 L1307.81 1487.82 L1307.81 1481.94 Z" fill="#000000" fill-rule="evenodd" fill-opacity="1" /><path clip-path="url(#clip140)" d="M 0 0 M1332.88 1456.34 Q1329.27 1456.34 1327.44 1459.9 Q1325.64 1463.44 1325.64 1470.57 Q1325.64 1477.68 1327.44 1481.25 Q1329.27 1484.79 1332.88 1484.79 Q1336.52 1484.79 1338.32 1481.25 Q1340.15 1477.68 1340.15 1470.57 Q1340.15 1463.44 1338.32 1459.9 Q1336.52 1456.34 1332.88 1456.34 M1332.88 1452.63 Q1338.69 1452.63 1341.75 1457.24 Q1344.83 1461.82 1344.83 1470.57 Q1344.83 1479.3 1341.75 1483.91 Q1338.69 1488.49 1332.88 1488.49 Q1327.07 1488.49 1323.99 1483.91 Q1320.94 1479.3 1320.94 1470.57 Q1320.94 1461.82 1323.99 1457.24 Q1327.07 1452.63 1332.88 1452.63 Z" fill="#000000" fill-rule="evenodd" fill-opacity="1" /><path clip-path="url(#clip140)" d="M 0 0 M1769.42 1453.26 L1791.65 1453.26 L1791.65 1455.25 L1779.1 1487.82 L1774.22 1487.82 L1786.02 1457.19 L1769.42 1457.19 L1769.42 1453.26 Z" fill="#000000" fill-rule="evenodd" fill-opacity="1" /><path clip-path="url(#clip140)" d="M 0 0 M1800.77 1481.94 L1805.65 1481.94 L1805.65 1487.82 L1800.77 1487.82 L1800.77 1481.94 Z" fill="#000000" fill-rule="evenodd" fill-opacity="1" /><path clip-path="url(#clip140)" d="M 0 0 M1815.88 1453.26 L1834.24 1453.26 L1834.24 1457.19 L1820.16 1457.19 L1820.16 1465.67 Q1821.18 1465.32 1822.2 1465.16 Q1823.22 1464.97 1824.24 1464.97 Q1830.03 1464.97 1833.4 1468.14 Q1836.78 1471.32 1836.78 1476.73 Q1836.78 1482.31 1833.31 1485.41 Q1829.84 1488.49 1823.52 1488.49 Q1821.34 1488.49 1819.08 1488.12 Q1816.83 1487.75 1814.42 1487.01 L1814.42 1482.31 Q1816.51 1483.44 1818.73 1484 Q1820.95 1484.56 1823.43 1484.56 Q1827.43 1484.56 1829.77 1482.45 Q1832.11 1480.34 1832.11 1476.73 Q1832.11 1473.12 1829.77 1471.01 Q1827.43 1468.91 1823.43 1468.91 Q1821.55 1468.91 1819.68 1469.32 Q1817.83 1469.74 1815.88 1470.62 L1815.88 1453.26 Z" fill="#000000" fill-rule="evenodd" fill-opacity="1" /><path clip-path="url(#clip140)" d="M 0 0 M2247.75 1483.88 L2255.39 1483.88 L2255.39 1457.52 L2247.08 1459.19 L2247.08 1454.93 L2255.34 1453.26 L2260.02 1453.26 L2260.02 1483.88 L2267.66 1483.88 L2267.66 1487.82 L2247.75 1487.82 L2247.75 1483.88 Z" fill="#000000" fill-rule="evenodd" fill-opacity="1" /><path clip-path="url(#clip140)" d="M 0 0 M2287.1 1456.34 Q2283.49 1456.34 2281.66 1459.9 Q2279.85 1463.44 2279.85 1470.57 Q2279.85 1477.68 2281.66 1481.25 Q2283.49 1484.79 2287.1 1484.79 Q2290.73 1484.79 2292.54 1481.25 Q2294.37 1477.68 2294.37 1470.57 Q2294.37 1463.44 2292.54 1459.9 Q2290.73 1456.34 2287.1 1456.34 M2287.1 1452.63 Q2292.91 1452.63 2295.97 1457.24 Q2299.04 1461.82 2299.04 1470.57 Q2299.04 1479.3 2295.97 1483.91 Q2292.91 1488.49 2287.1 1488.49 Q2281.29 1488.49 2278.21 1483.91 Q2275.16 1479.3 2275.16 1470.57 Q2275.16 1461.82 2278.21 1457.24 Q2281.29 1452.63 2287.1 1452.63 Z" fill="#000000" fill-rule="evenodd" fill-opacity="1" /><path clip-path="url(#clip140)" d="M 0 0 M2307.26 1481.94 L2312.15 1481.94 L2312.15 1487.82 L2307.26 1487.82 L2307.26 1481.94 Z" fill="#000000" fill-rule="evenodd" fill-opacity="1" /><path clip-path="url(#clip140)" d="M 0 0 M2332.33 1456.34 Q2328.72 1456.34 2326.89 1459.9 Q2325.09 1463.44 2325.09 1470.57 Q2325.09 1477.68 2326.89 1481.25 Q2328.72 1484.79 2332.33 1484.79 Q2335.97 1484.79 2337.77 1481.25 Q2339.6 1477.68 2339.6 1470.57 Q2339.6 1463.44 2337.77 1459.9 Q2335.97 1456.34 2332.33 1456.34 M2332.33 1452.63 Q2338.14 1452.63 2341.2 1457.24 Q2344.28 1461.82 2344.28 1470.57 Q2344.28 1479.3 2341.2 1483.91 Q2338.14 1488.49 2332.33 1488.49 Q2326.52 1488.49 2323.44 1483.91 Q2320.39 1479.3 2320.39 1470.57 Q2320.39 1461.82 2323.44 1457.24 Q2326.52 1452.63 2332.33 1452.63 Z" fill="#000000" fill-rule="evenodd" fill-opacity="1" /><path clip-path="url(#clip140)" d="M 0 0 M1260.07 1530.6 Q1260.07 1532.85 1256.82 1532.85 L1245.74 1532.85 L1241.33 1555.43 Q1241.23 1556.01 1241.1 1556.33 Q1241.01 1556.65 1240.72 1557.2 Q1240.46 1557.71 1239.91 1557.97 Q1239.4 1558.26 1238.62 1558.26 Q1237.66 1558.26 1237.18 1557.68 Q1236.72 1557.13 1236.72 1556.46 Q1236.72 1556.04 1237.37 1554.04 L1243.84 1532.85 L1238.37 1532.85 Q1233.21 1532.85 1229.99 1537.94 Q1229.48 1538.61 1229.19 1538.68 Q1229.06 1538.71 1228.93 1538.71 Q1228.58 1538.71 1228.35 1538.55 Q1228.16 1538.39 1228.16 1538.23 L1228.13 1538.07 Q1228.13 1537.84 1228.64 1536.94 Q1229.19 1536.01 1230.15 1534.62 Q1231.15 1533.24 1232.15 1532.14 Q1233.47 1530.72 1234.95 1529.98 Q1236.43 1529.21 1237.18 1529.11 Q1237.95 1529.02 1238.95 1529.02 L1257.43 1529.02 Q1258.27 1529.02 1258.72 1529.08 Q1259.17 1529.11 1259.62 1529.5 Q1260.07 1529.85 1260.07 1530.6 Z" fill="#000000" fill-rule="evenodd" fill-opacity="1" /><path clip-path="url(#clip140)" d="M 0 0 M1278.37 1540.97 Q1278.37 1529.82 1282.52 1520.84 Q1284.29 1517.07 1286.77 1513.91 Q1289.25 1510.76 1290.89 1509.37 Q1292.54 1507.99 1292.99 1507.99 Q1293.63 1507.99 1293.66 1508.63 Q1293.66 1508.95 1292.79 1509.76 Q1282.17 1520.58 1282.2 1540.97 Q1282.2 1561.42 1292.54 1571.82 Q1293.66 1572.95 1293.66 1573.3 Q1293.66 1573.94 1292.99 1573.94 Q1292.54 1573.94 1290.96 1572.62 Q1289.38 1571.3 1286.93 1568.28 Q1284.48 1565.25 1282.71 1561.55 Q1278.37 1552.56 1278.37 1540.97 Z" fill="#000000" fill-rule="evenodd" fill-opacity="1" /><path clip-path="url(#clip140)" d="M 0 0 M1303.69 1557.45 L1303.69 1555.43 Q1307.2 1555.43 1308.01 1555.01 Q1308.81 1554.56 1308.81 1552.43 L1308.81 1534.75 Q1308.81 1532.3 1307.94 1531.69 Q1307.11 1531.08 1303.69 1531.08 L1303.69 1529.02 L1312.97 1528.31 L1312.97 1535.23 Q1316.06 1528.31 1322.73 1528.31 Q1327.69 1528.31 1329.65 1530.76 Q1331.1 1532.4 1331.39 1534.23 Q1331.71 1536.07 1331.71 1540.84 L1331.71 1553.43 Q1331.78 1554.81 1332.84 1555.14 Q1333.9 1555.43 1336.87 1555.43 L1336.87 1557.45 Q1330.13 1557.26 1329.46 1557.26 Q1328.94 1557.26 1322.02 1557.45 L1322.02 1555.43 Q1325.53 1555.43 1326.33 1555.01 Q1327.17 1554.56 1327.17 1552.43 L1327.17 1537.07 Q1327.17 1533.72 1326.14 1531.75 Q1325.11 1529.76 1322.28 1529.76 Q1318.86 1529.76 1316.12 1532.62 Q1313.39 1535.49 1313.39 1540.32 L1313.39 1552.43 Q1313.39 1554.56 1314.19 1555.01 Q1315.03 1555.43 1318.51 1555.43 L1318.51 1557.45 Q1311.78 1557.26 1311.13 1557.26 Q1310.62 1557.26 1303.69 1557.45 Z" fill="#000000" fill-rule="evenodd" fill-opacity="1" /><path clip-path="url(#clip140)" d="M 0 0 M1339.93 1556.59 L1339.93 1547.89 Q1339.93 1547.15 1339.96 1546.89 Q1339.99 1546.63 1340.19 1546.44 Q1340.38 1546.25 1340.77 1546.25 Q1341.22 1546.25 1341.38 1546.44 Q1341.57 1546.63 1341.7 1547.37 Q1342.7 1551.92 1344.83 1554.33 Q1346.98 1556.71 1350.88 1556.71 Q1354.58 1556.71 1356.45 1555.07 Q1358.32 1553.43 1358.32 1550.72 Q1358.32 1545.89 1351.46 1544.67 Q1347.5 1543.86 1345.86 1543.35 Q1344.21 1542.8 1342.76 1541.61 Q1339.93 1539.29 1339.93 1536.01 Q1339.93 1532.72 1342.41 1530.31 Q1344.92 1527.89 1350.46 1527.89 Q1354.16 1527.89 1356.68 1529.76 Q1357.42 1529.18 1357.8 1528.7 Q1358.67 1527.89 1359.12 1527.89 Q1359.64 1527.89 1359.74 1528.24 Q1359.83 1528.57 1359.83 1529.5 L1359.83 1536.13 Q1359.83 1536.88 1359.8 1537.13 Q1359.77 1537.39 1359.58 1537.58 Q1359.38 1537.74 1358.96 1537.74 Q1358.22 1537.74 1358.19 1537.13 Q1357.68 1529.15 1350.46 1529.15 Q1346.56 1529.15 1344.83 1530.66 Q1343.09 1532.14 1343.09 1534.17 Q1343.09 1535.3 1343.6 1536.17 Q1344.15 1537 1344.83 1537.52 Q1345.53 1538 1346.82 1538.49 Q1348.11 1538.94 1348.88 1539.1 Q1349.69 1539.26 1351.2 1539.58 Q1356.48 1540.58 1358.71 1542.74 Q1361.48 1545.51 1361.48 1549.02 Q1361.48 1552.91 1358.83 1555.55 Q1356.19 1558.2 1350.88 1558.2 Q1346.6 1558.2 1343.6 1555.33 Q1343.21 1555.72 1342.92 1556.07 Q1342.64 1556.39 1342.51 1556.52 Q1342.41 1556.65 1342.38 1556.75 Q1342.35 1556.81 1342.28 1556.88 Q1340.96 1558.2 1340.64 1558.2 Q1340.12 1558.2 1340.03 1557.84 Q1339.93 1557.52 1339.93 1556.59 Z" fill="#000000" fill-rule="evenodd" fill-opacity="1" /><path clip-path="url(#clip140)" d="M 0 0 M1365.64 1573.3 Q1365.64 1572.98 1366.48 1572.17 Q1377.11 1561.35 1377.11 1540.97 Q1377.11 1520.51 1366.9 1510.18 Q1365.64 1508.99 1365.64 1508.63 Q1365.64 1507.99 1366.28 1507.99 Q1366.73 1507.99 1368.31 1509.31 Q1369.92 1510.63 1372.34 1513.65 Q1374.79 1516.68 1376.59 1520.39 Q1380.94 1529.37 1380.94 1540.97 Q1380.94 1552.11 1376.78 1561.09 Q1375.01 1564.86 1372.53 1568.02 Q1370.05 1571.17 1368.41 1572.56 Q1366.77 1573.94 1366.28 1573.94 Q1365.64 1573.94 1365.64 1573.3 Z" fill="#000000" fill-rule="evenodd" fill-opacity="1" /><polyline clip-path="url(#clip143)" style="stroke:#000000; stroke-width:2; stroke-opacity:0.1; fill:none" points="
  266.337,1351.01 2352.76,1351.01 
  "/>
<polyline clip-path="url(#clip143)" style="stroke:#000000; stroke-width:2; stroke-opacity:0.1; fill:none" points="
  266.337,1043 2352.76,1043 
  "/>
<polyline clip-path="url(#clip143)" style="stroke:#000000; stroke-width:2; stroke-opacity:0.1; fill:none" points="
  266.337,734.983 2352.76,734.983 
  "/>
<polyline clip-path="url(#clip143)" style="stroke:#000000; stroke-width:2; stroke-opacity:0.1; fill:none" points="
  266.337,426.969 2352.76,426.969 
  "/>
<polyline clip-path="url(#clip140)" style="stroke:#000000; stroke-width:4; stroke-opacity:1; fill:none" points="
  266.337,1427.15 266.337,123.472 
  "/>
<polyline clip-path="url(#clip140)" style="stroke:#000000; stroke-width:4; stroke-opacity:1; fill:none" points="
  266.337,1351.01 291.374,1351.01 
  "/>
<polyline clip-path="url(#clip140)" style="stroke:#000000; stroke-width:4; stroke-opacity:1; fill:none" points="
  266.337,1043 291.374,1043 
  "/>
<polyline clip-path="url(#clip140)" style="stroke:#000000; stroke-width:4; stroke-opacity:1; fill:none" points="
  266.337,734.983 291.374,734.983 
  "/>
<polyline clip-path="url(#clip140)" style="stroke:#000000; stroke-width:4; stroke-opacity:1; fill:none" points="
  266.337,426.969 291.374,426.969 
  "/>
<path clip-path="url(#clip140)" d="M 0 0 M182.259 1364.36 L198.578 1364.36 L198.578 1368.29 L176.634 1368.29 L176.634 1364.36 Q179.296 1361.6 183.879 1356.97 Q188.485 1352.32 189.666 1350.98 Q191.911 1348.45 192.791 1346.72 Q193.694 1344.96 193.694 1343.27 Q193.694 1340.51 191.749 1338.78 Q189.828 1337.04 186.726 1337.04 Q184.527 1337.04 182.073 1337.81 Q179.643 1338.57 176.865 1340.12 L176.865 1335.4 Q179.689 1334.26 182.143 1333.69 Q184.597 1333.11 186.634 1333.11 Q192.004 1333.11 195.198 1335.79 Q198.393 1338.48 198.393 1342.97 Q198.393 1345.1 197.583 1347.02 Q196.796 1348.92 194.689 1351.51 Q194.11 1352.18 191.009 1355.4 Q187.907 1358.59 182.259 1364.36 Z" fill="#000000" fill-rule="evenodd" fill-opacity="1" /><path clip-path="url(#clip140)" d="M 0 0 M218.393 1336.81 Q214.782 1336.81 212.953 1340.38 Q211.147 1343.92 211.147 1351.05 Q211.147 1358.15 212.953 1361.72 Q214.782 1365.26 218.393 1365.26 Q222.027 1365.26 223.832 1361.72 Q225.661 1358.15 225.661 1351.05 Q225.661 1343.92 223.832 1340.38 Q222.027 1336.81 218.393 1336.81 M218.393 1333.11 Q224.203 1333.11 227.258 1337.71 Q230.337 1342.3 230.337 1351.05 Q230.337 1359.77 227.258 1364.38 Q224.203 1368.96 218.393 1368.96 Q212.583 1368.96 209.504 1364.38 Q206.448 1359.77 206.448 1351.05 Q206.448 1342.3 209.504 1337.71 Q212.583 1333.11 218.393 1333.11 Z" fill="#000000" fill-rule="evenodd" fill-opacity="1" /><path clip-path="url(#clip140)" d="M 0 0 M183.254 1056.34 L199.573 1056.34 L199.573 1060.28 L177.629 1060.28 L177.629 1056.34 Q180.291 1053.59 184.874 1048.96 Q189.481 1044.31 190.661 1042.96 Q192.907 1040.44 193.786 1038.7 Q194.689 1036.94 194.689 1035.25 Q194.689 1032.5 192.745 1030.76 Q190.823 1029.03 187.722 1029.03 Q185.522 1029.03 183.069 1029.79 Q180.638 1030.56 177.86 1032.11 L177.86 1027.38 Q180.685 1026.25 183.138 1025.67 Q185.592 1025.09 187.629 1025.09 Q192.999 1025.09 196.194 1027.78 Q199.388 1030.46 199.388 1034.95 Q199.388 1037.08 198.578 1039 Q197.791 1040.9 195.684 1043.5 Q195.106 1044.17 192.004 1047.38 Q188.902 1050.58 183.254 1056.34 Z" fill="#000000" fill-rule="evenodd" fill-opacity="1" /><path clip-path="url(#clip140)" d="M 0 0 M209.434 1025.72 L227.791 1025.72 L227.791 1029.65 L213.717 1029.65 L213.717 1038.12 Q214.735 1037.78 215.754 1037.62 Q216.772 1037.43 217.791 1037.43 Q223.578 1037.43 226.957 1040.6 Q230.337 1043.77 230.337 1049.19 Q230.337 1054.77 226.865 1057.87 Q223.393 1060.95 217.073 1060.95 Q214.897 1060.95 212.629 1060.58 Q210.383 1060.21 207.976 1059.47 L207.976 1054.77 Q210.059 1055.9 212.282 1056.46 Q214.504 1057.01 216.981 1057.01 Q220.985 1057.01 223.323 1054.91 Q225.661 1052.8 225.661 1049.19 Q225.661 1045.58 223.323 1043.47 Q220.985 1041.37 216.981 1041.37 Q215.106 1041.37 213.231 1041.78 Q211.379 1042.2 209.434 1043.08 L209.434 1025.72 Z" fill="#000000" fill-rule="evenodd" fill-opacity="1" /><path clip-path="url(#clip140)" d="M 0 0 M192.397 733.629 Q195.754 734.347 197.629 736.615 Q199.527 738.884 199.527 742.217 Q199.527 747.333 196.009 750.134 Q192.49 752.934 186.009 752.934 Q183.833 752.934 181.518 752.495 Q179.226 752.078 176.773 751.222 L176.773 746.708 Q178.717 747.842 181.032 748.421 Q183.347 748.999 185.87 748.999 Q190.268 748.999 192.559 747.263 Q194.874 745.527 194.874 742.217 Q194.874 739.161 192.722 737.448 Q190.592 735.712 186.772 735.712 L182.745 735.712 L182.745 731.87 L186.958 731.87 Q190.407 731.87 192.235 730.504 Q194.064 729.115 194.064 726.523 Q194.064 723.861 192.166 722.449 Q190.291 721.013 186.772 721.013 Q184.851 721.013 182.652 721.43 Q180.453 721.847 177.814 722.726 L177.814 718.56 Q180.476 717.819 182.791 717.449 Q185.129 717.078 187.189 717.078 Q192.513 717.078 195.615 719.509 Q198.717 721.916 198.717 726.036 Q198.717 728.907 197.073 730.898 Q195.43 732.865 192.397 733.629 Z" fill="#000000" fill-rule="evenodd" fill-opacity="1" /><path clip-path="url(#clip140)" d="M 0 0 M218.393 720.782 Q214.782 720.782 212.953 724.347 Q211.147 727.888 211.147 735.018 Q211.147 742.124 212.953 745.689 Q214.782 749.231 218.393 749.231 Q222.027 749.231 223.832 745.689 Q225.661 742.124 225.661 735.018 Q225.661 727.888 223.832 724.347 Q222.027 720.782 218.393 720.782 M218.393 717.078 Q224.203 717.078 227.258 721.685 Q230.337 726.268 230.337 735.018 Q230.337 743.745 227.258 748.351 Q224.203 752.934 218.393 752.934 Q212.583 752.934 209.504 748.351 Q206.448 743.745 206.448 735.018 Q206.448 726.268 209.504 721.685 Q212.583 717.078 218.393 717.078 Z" fill="#000000" fill-rule="evenodd" fill-opacity="1" /><path clip-path="url(#clip140)" d="M 0 0 M193.393 425.615 Q196.749 426.332 198.624 428.601 Q200.522 430.869 200.522 434.203 Q200.522 439.318 197.004 442.119 Q193.485 444.92 187.004 444.92 Q184.828 444.92 182.513 444.48 Q180.222 444.064 177.768 443.207 L177.768 438.693 Q179.712 439.828 182.027 440.406 Q184.342 440.985 186.865 440.985 Q191.263 440.985 193.555 439.249 Q195.87 437.513 195.87 434.203 Q195.87 431.147 193.717 429.434 Q191.587 427.698 187.768 427.698 L183.74 427.698 L183.74 423.856 L187.953 423.856 Q191.402 423.856 193.231 422.49 Q195.059 421.101 195.059 418.508 Q195.059 415.846 193.161 414.434 Q191.286 412.999 187.768 412.999 Q185.847 412.999 183.647 413.416 Q181.448 413.832 178.81 414.712 L178.81 410.545 Q181.472 409.805 183.786 409.434 Q186.124 409.064 188.185 409.064 Q193.509 409.064 196.61 411.495 Q199.712 413.902 199.712 418.022 Q199.712 420.893 198.069 422.883 Q196.425 424.851 193.393 425.615 Z" fill="#000000" fill-rule="evenodd" fill-opacity="1" /><path clip-path="url(#clip140)" d="M 0 0 M209.434 409.689 L227.791 409.689 L227.791 413.624 L213.717 413.624 L213.717 422.096 Q214.735 421.749 215.754 421.587 Q216.772 421.402 217.791 421.402 Q223.578 421.402 226.957 424.573 Q230.337 427.744 230.337 433.161 Q230.337 438.74 226.865 441.842 Q223.393 444.92 217.073 444.92 Q214.897 444.92 212.629 444.55 Q210.383 444.18 207.976 443.439 L207.976 438.74 Q210.059 439.874 212.282 440.43 Q214.504 440.985 216.981 440.985 Q220.985 440.985 223.323 438.879 Q225.661 436.772 225.661 433.161 Q225.661 429.55 223.323 427.443 Q220.985 425.337 216.981 425.337 Q215.106 425.337 213.231 425.754 Q211.379 426.17 209.434 427.05 L209.434 409.689 Z" fill="#000000" fill-rule="evenodd" fill-opacity="1" /><path clip-path="url(#clip140)" d="M 0 0 M94.6485 828.016 L111.073 833.684 L111.073 888.37 Q111.073 889.111 111.041 889.4 Q111.009 889.69 110.848 889.916 Q110.687 890.141 110.333 890.141 Q110.043 890.141 109.302 889.561 L80.3491 866.148 L47.2415 890.206 Q45.7278 890.206 45.4379 889.948 Q45.1159 889.69 45.1159 888.37 L45.1159 833.684 L60.5425 828.016 L60.5425 829.658 Q58.5457 830.399 56.871 831.591 Q55.1641 832.75 53.9403 834.103 Q52.7165 835.423 51.7503 837.162 Q50.7519 838.869 50.14 840.48 Q49.4959 842.058 49.045 844.022 Q48.5619 845.987 48.3365 847.565 Q48.0788 849.111 47.95 851.043 Q47.8212 852.976 47.789 854.199 Q47.7568 855.423 47.7568 856.969 L47.7568 883.088 L77.1607 861.671 Q77.9014 861.188 78.0947 861.188 Q78.3845 861.188 79.1575 861.8 L107.434 884.666 L107.434 856.647 Q107.434 847.629 105.534 841.349 Q104.085 837.098 101.218 834.006 Q98.3522 830.882 94.6485 829.658 L94.6485 828.016 Z" fill="#000000" fill-rule="evenodd" fill-opacity="1" /><path clip-path="url(#clip140)" d="M 0 0 M127.747 901.215 Q128.739 901.215 129.483 902.026 Q130.204 902.815 130.204 903.672 Q130.204 904.461 129.731 904.957 Q129.235 905.431 128.536 905.431 Q127.612 905.431 126.845 904.642 Q126.079 903.853 126.079 902.928 Q126.079 902.162 126.552 901.688 Q127.026 901.215 127.747 901.215 M149.998 900.809 Q150.179 900.809 150.9 901.012 Q151.599 901.215 152.681 901.711 Q153.741 902.184 154.732 902.838 Q155.724 903.492 156.423 904.574 Q157.122 905.633 157.122 906.851 Q157.122 908.497 156.04 909.579 Q154.958 910.638 153.335 910.638 Q152.455 910.638 149.637 909.579 Q141.431 906.513 141.093 906.4 Q139.808 905.881 138.681 905.881 Q138.163 905.881 137.847 905.994 Q137.509 906.107 137.396 906.332 Q137.261 906.558 137.238 906.693 Q137.216 906.806 137.216 907.031 Q137.216 908.361 138.568 909.601 Q139.921 910.841 142.942 911.698 Q143.505 911.878 143.641 911.991 Q143.776 912.104 143.776 912.442 Q143.753 913.005 143.303 913.005 Q143.167 913.005 142.649 912.848 Q142.108 912.69 141.296 912.397 Q140.462 912.104 139.605 911.585 Q138.726 911.067 137.96 910.435 Q137.193 909.782 136.697 908.857 Q136.201 907.933 136.201 906.896 Q136.201 905.205 137.306 904.168 Q138.388 903.109 139.989 903.109 Q140.868 903.109 142.423 903.717 Q144.452 904.461 145.106 904.732 L149.953 906.535 Q151.712 907.189 152.253 907.392 Q152.771 907.572 153.402 907.73 Q154.011 907.865 154.575 907.865 Q155.364 907.865 155.724 907.617 Q156.085 907.347 156.085 906.761 Q156.085 905.138 154.484 903.943 Q152.861 902.748 150.381 902.049 Q150.314 902.026 150.201 902.004 Q149.637 901.824 149.57 901.643 Q149.547 901.553 149.547 901.373 Q149.547 900.809 149.998 900.809 Z" fill="#000000" fill-rule="evenodd" fill-opacity="1" /><path clip-path="url(#clip140)" d="M 0 0 M149.592 884.429 Q149.029 884.384 149.029 883.505 L149.029 855.212 Q149.029 853.882 149.547 853.86 Q150.111 853.86 150.088 855.122 L150.088 883.189 Q150.111 884.429 149.592 884.429 M140.575 884.429 Q140.011 884.429 140.034 883.46 L140.034 855.257 Q140.034 853.882 140.575 853.86 Q141.093 853.86 141.093 855.032 L141.093 883.505 Q141.093 884.429 140.575 884.429 Z" fill="#000000" fill-rule="evenodd" fill-opacity="1" /><path clip-path="url(#clip140)" d="M 0 0 M130.25 836.048 L128.807 836.048 Q128.807 830.502 125.853 827.639 Q125.853 826.85 126.034 826.714 Q126.214 826.579 127.048 826.579 L152.951 826.579 Q154.327 826.579 154.755 825.903 Q155.183 825.226 155.183 822.273 L155.183 820.808 L156.604 820.808 Q156.468 822.431 156.468 828.292 Q156.468 834.154 156.604 835.754 L155.183 835.754 L155.183 834.289 Q155.183 831.381 154.778 830.682 Q154.349 829.983 152.951 829.983 L129.032 829.983 Q130.25 832.395 130.25 836.048 Z" fill="#000000" fill-rule="evenodd" fill-opacity="1" /><path clip-path="url(#clip140)" d="M 0 0 M22.7384 885.959 Q21.9042 885.959 21.6563 885.891 Q21.4083 885.801 21.025 885.44 L11.1507 876.581 Q5.69503 871.734 0.938226 871.734 Q-2.15032 871.734 -4.35964 873.357 Q-6.56896 874.957 -6.56896 877.911 Q-6.56896 879.94 -5.32903 881.653 Q-4.08911 883.366 -1.87979 884.155 Q-1.92487 884.02 -1.92487 883.547 Q-1.92487 882.397 -1.20346 881.766 Q-0.482052 881.112 0.487344 881.112 Q1.72727 881.112 2.33596 881.923 Q2.92211 882.713 2.92211 883.502 Q2.92211 883.817 2.85447 884.246 Q2.78684 884.651 2.15561 885.305 Q1.50183 885.959 0.352079 885.959 Q-2.87173 885.959 -5.44176 883.524 Q-8.01178 881.067 -8.01178 877.324 Q-8.01178 873.086 -5.48684 870.313 Q-2.98445 867.518 0.938226 867.518 Q2.31342 867.518 3.57589 867.946 Q4.81581 868.352 5.78521 868.916 Q6.7546 869.457 8.31015 870.945 Q9.86569 872.432 10.9704 873.627 Q12.075 874.822 14.4196 877.505 L19.1764 882.397 L19.1764 874.078 Q19.1764 870.02 18.8157 869.705 Q18.1619 869.254 14.7127 868.69 L14.7127 867.518 L22.7384 868.825 L22.7384 885.959 Z" fill="#000000" fill-rule="evenodd" fill-opacity="1" /><path clip-path="url(#clip140)" d="M 0 0 M7.97199 863.094 Q1.18621 863.094 -2.51102 861.381 Q-8.01178 858.991 -8.01178 853.355 Q-8.01178 852.16 -7.67362 850.92 Q-7.358 849.658 -6.11808 848.08 Q-4.87815 846.479 -2.84918 845.51 Q1.07349 843.661 7.97199 843.661 Q14.7127 843.661 18.3874 845.374 Q23.7529 847.877 23.7529 853.4 Q23.7529 855.474 22.6933 857.593 Q21.6337 859.69 19.0862 861.02 Q15.2763 863.094 7.97199 863.094 M7.40838 859.262 Q14.3745 859.262 17.1474 858.766 Q20.1458 858.202 21.4534 856.669 Q22.7384 855.113 22.7384 853.4 Q22.7384 851.551 21.3632 850.018 Q19.9654 848.463 16.9671 847.989 Q14.0138 847.471 7.40838 847.494 Q0.983314 847.494 -1.58671 847.944 Q-4.58508 848.553 -5.77992 850.176 Q-6.9973 851.777 -6.9973 853.4 Q-6.9973 854.009 -6.81695 854.663 Q-6.63659 855.294 -6.11808 856.218 Q-5.59956 857.142 -4.31455 857.864 Q-3.02954 858.563 -1.09074 858.901 Q1.41165 859.262 7.40838 859.262 Z" fill="#000000" fill-rule="evenodd" fill-opacity="1" /><path clip-path="url(#clip140)" d="M 0 0 M68.5295 768.829 Q68.5617 768.829 69.7212 769.022 L98.9963 776.365 Q100.542 776.752 102.088 777.847 Q103.666 778.91 105.019 780.616 Q106.404 782.291 107.241 784.868 Q108.111 787.412 108.111 790.343 Q108.111 795.013 107.112 797.074 Q106.146 799.103 104.085 799.103 Q102.281 799.103 101.251 797.975 Q100.252 796.848 100.252 795.56 Q100.252 794.336 100.961 793.692 Q101.669 793.048 102.571 793.048 Q103.57 793.048 104.568 793.724 Q105.598 794.401 105.985 795.753 Q106.661 793.595 106.661 790.471 Q106.661 783.869 99.6726 781.035 Q99.576 780.971 99.5438 780.971 L90.816 778.781 L90.7516 778.877 Q91.3957 779.425 92.1364 780.294 Q92.845 781.132 93.7145 782.935 Q94.5841 784.739 94.5841 786.51 Q94.5841 790.214 91.75 792.758 Q88.8836 795.27 84.1494 795.27 Q80.7034 795.27 77.2573 793.885 Q73.7791 792.468 71.2348 790.278 Q68.6584 788.056 67.0481 785.222 Q65.4378 782.356 65.4378 779.586 Q65.4378 777.654 66.5972 776.011 Q67.7244 774.369 69.5923 773.467 Q68.0464 773.306 67.4023 772.436 Q66.7582 771.534 66.7582 770.762 Q66.7582 769.892 67.2413 769.377 Q67.6922 768.829 68.5295 768.829 M72.5553 774.24 Q72.362 774.24 71.8467 774.369 Q71.2992 774.497 70.4297 774.884 Q69.5601 775.238 68.7872 775.786 Q68.0142 776.333 67.4667 777.331 Q66.887 778.298 66.887 779.521 Q66.887 781.518 68.5617 783.515 Q70.2042 785.512 72.7485 786.897 Q75.1961 788.185 79.9304 789.409 Q84.6647 790.6 87.0801 790.6 Q89.4633 790.6 91.2991 789.57 Q93.1348 788.539 93.1348 786.317 Q93.1348 783.74 90.7516 780.971 Q88.2717 778.104 86.1461 777.621 L73.5536 774.433 Q72.7807 774.24 72.5553 774.24 Z" fill="#000000" fill-rule="evenodd" fill-opacity="1" /><path clip-path="url(#clip140)" d="M 0 0 M97.257 750.288 Q98.2489 750.288 98.9929 751.099 Q99.7143 751.888 99.7143 752.745 Q99.7143 753.534 99.2409 754.03 Q98.7449 754.503 98.046 754.503 Q97.1217 754.503 96.3552 753.714 Q95.5887 752.925 95.5887 752.001 Q95.5887 751.235 96.0622 750.761 Q96.5356 750.288 97.257 750.288 M119.508 749.882 Q119.688 749.882 120.41 750.085 Q121.109 750.288 122.191 750.784 Q123.25 751.257 124.242 751.911 Q125.234 752.565 125.933 753.647 Q126.632 754.706 126.632 755.924 Q126.632 757.569 125.55 758.652 Q124.468 759.711 122.845 759.711 Q121.965 759.711 119.147 758.652 Q110.941 755.586 110.603 755.473 Q109.318 754.954 108.191 754.954 Q107.672 754.954 107.357 755.067 Q107.019 755.18 106.906 755.405 Q106.771 755.631 106.748 755.766 Q106.726 755.879 106.726 756.104 Q106.726 757.434 108.078 758.674 Q109.431 759.914 112.452 760.771 Q113.015 760.951 113.151 761.064 Q113.286 761.177 113.286 761.515 Q113.263 762.078 112.812 762.078 Q112.677 762.078 112.159 761.92 Q111.618 761.763 110.806 761.47 Q109.972 761.177 109.115 760.658 Q108.236 760.139 107.469 759.508 Q106.703 758.854 106.207 757.93 Q105.711 757.006 105.711 755.969 Q105.711 754.278 106.816 753.241 Q107.898 752.181 109.498 752.181 Q110.378 752.181 111.933 752.79 Q113.962 753.534 114.616 753.805 L119.463 755.608 Q121.221 756.262 121.762 756.465 Q122.281 756.645 122.912 756.803 Q123.521 756.938 124.084 756.938 Q124.874 756.938 125.234 756.69 Q125.595 756.42 125.595 755.834 Q125.595 754.21 123.994 753.016 Q122.371 751.821 119.891 751.122 Q119.824 751.099 119.711 751.077 Q119.147 750.896 119.08 750.716 Q119.057 750.626 119.057 750.446 Q119.057 749.882 119.508 749.882 Z" fill="#000000" fill-rule="evenodd" fill-opacity="1" /><path clip-path="url(#clip140)" d="M 0 0 M53.0268 762.078 Q45.2265 762.078 38.9367 759.17 Q36.2991 757.93 34.0898 756.194 Q31.8804 754.458 30.911 753.309 Q29.9416 752.159 29.9416 751.843 Q29.9416 751.392 30.3925 751.37 Q30.618 751.37 31.1816 751.979 Q38.7564 759.418 53.0268 759.396 Q67.3423 759.396 74.6241 752.159 Q75.4131 751.37 75.6611 751.37 Q76.112 751.37 76.112 751.843 Q76.112 752.159 75.1877 753.264 Q74.2634 754.368 72.1442 756.082 Q70.0251 757.795 67.4325 759.035 Q61.1427 762.078 53.0268 762.078 Z" fill="#000000" fill-rule="evenodd" fill-opacity="1" /><path clip-path="url(#clip140)" d="M 0 0 M64.5694 744.349 Q63.7353 744.349 63.4873 744.281 Q63.2393 744.191 62.856 743.831 L52.9817 734.971 Q47.526 730.124 42.7692 730.124 Q39.6807 730.124 37.4714 731.747 Q35.2621 733.348 35.2621 736.301 Q35.2621 738.33 36.502 740.043 Q37.7419 741.757 39.9512 742.546 Q39.9061 742.41 39.9061 741.937 Q39.9061 740.787 40.6276 740.156 Q41.349 739.502 42.3184 739.502 Q43.5583 739.502 44.167 740.314 Q44.7531 741.103 44.7531 741.892 Q44.7531 742.207 44.6855 742.636 Q44.6179 743.042 43.9866 743.695 Q43.3328 744.349 42.1831 744.349 Q38.9593 744.349 36.3893 741.914 Q33.8192 739.457 33.8192 735.715 Q33.8192 731.476 36.3442 728.703 Q38.8466 725.908 42.7692 725.908 Q44.1444 725.908 45.4069 726.336 Q46.6468 726.742 47.6162 727.306 Q48.5856 727.847 50.1412 729.335 Q51.6967 730.823 52.8014 732.017 Q53.906 733.212 56.2506 735.895 L61.0074 740.787 L61.0074 732.468 Q61.0074 728.41 60.6467 728.095 Q59.9929 727.644 56.5437 727.08 L56.5437 725.908 L64.5694 727.216 L64.5694 744.349 Z" fill="#000000" fill-rule="evenodd" fill-opacity="1" /><path clip-path="url(#clip140)" d="M 0 0 M75.6611 721.484 Q75.4356 721.484 74.872 720.898 Q67.2972 713.459 53.0268 713.459 Q38.7113 713.459 31.4746 720.605 Q30.6405 721.484 30.3925 721.484 Q29.9416 721.484 29.9416 721.033 Q29.9416 720.718 30.866 719.613 Q31.7903 718.486 33.9094 716.795 Q36.0286 715.082 38.6211 713.819 Q44.9109 710.776 53.0268 710.776 Q60.8271 710.776 67.1169 713.684 Q69.7545 714.924 71.9639 716.66 Q74.1732 718.396 75.1426 719.545 Q76.112 720.695 76.112 721.033 Q76.112 721.484 75.6611 721.484 Z" fill="#000000" fill-rule="evenodd" fill-opacity="1" /><path clip-path="url(#clip140)" d="M 0 0 M78.0947 696.715 Q66.9514 696.715 57.966 692.561 Q54.1979 690.789 51.0418 688.309 Q47.8856 685.829 46.5007 684.187 Q45.1159 682.544 45.1159 682.094 Q45.1159 681.449 45.76 681.417 Q46.082 681.417 46.8872 682.287 Q57.7084 692.915 78.0947 692.883 Q98.5454 692.883 108.948 682.544 Q110.075 681.417 110.429 681.417 Q111.073 681.417 111.073 682.094 Q111.073 682.544 109.753 684.123 Q108.433 685.701 105.405 688.148 Q102.378 690.596 98.6742 692.367 Q89.6888 696.715 78.0947 696.715 Z" fill="#000000" fill-rule="evenodd" fill-opacity="1" /><path clip-path="url(#clip140)" d="M 0 0 M67.7244 639.439 Q69.9788 639.439 69.9788 642.692 L69.9788 653.771 L92.5551 658.183 Q93.1348 658.28 93.4569 658.409 Q93.7789 658.505 94.3264 658.795 Q94.8417 659.053 95.0994 659.6 Q95.3892 660.116 95.3892 660.889 Q95.3892 661.855 94.8095 662.338 Q94.262 662.789 93.5857 662.789 Q93.167 662.789 91.1703 662.145 L69.9788 655.671 L69.9788 661.146 Q69.9788 666.299 75.0673 669.52 Q75.7436 670.035 75.8081 670.325 Q75.8403 670.454 75.8403 670.583 Q75.8403 670.937 75.6792 671.162 Q75.5182 671.355 75.3572 671.355 L75.1961 671.388 Q74.9707 671.388 74.0689 670.872 Q73.135 670.325 71.7501 669.359 Q70.3653 668.36 69.2703 667.362 Q67.8532 666.041 67.1125 664.56 Q66.3395 663.079 66.2429 662.338 Q66.1463 661.565 66.1463 660.566 L66.1463 642.08 Q66.1463 641.243 66.2107 640.792 Q66.2429 640.341 66.6294 639.89 Q66.9837 639.439 67.7244 639.439 Z" fill="#000000" fill-rule="evenodd" fill-opacity="1" /><path clip-path="url(#clip140)" d="M 0 0 M110.429 642.87 Q110.107 642.87 109.302 642.033 Q98.481 631.405 78.0947 631.405 Q57.644 631.405 47.3059 641.614 Q46.1143 642.87 45.76 642.87 Q45.1159 642.87 45.1159 642.226 Q45.1159 641.775 46.4363 640.197 Q47.7568 638.587 50.7841 636.172 Q53.8115 633.724 57.5151 631.92 Q66.5006 627.573 78.0947 627.573 Q89.2379 627.573 98.2233 631.727 Q101.991 633.499 105.148 635.978 Q108.304 638.458 109.689 640.101 Q111.073 641.743 111.073 642.226 Q111.073 642.87 110.429 642.87 Z" fill="#000000" fill-rule="evenodd" fill-opacity="1" /><path clip-path="url(#clip140)" d="M 0 0 M472.184 14.0809 L472.184 22.0612 Q467.526 19.8332 463.394 18.7395 Q459.262 17.6457 455.413 17.6457 Q448.729 17.6457 445.084 20.2383 Q441.478 22.8309 441.478 27.611 Q441.478 31.6214 443.868 33.6873 Q446.299 35.7128 453.023 36.9686 L457.965 37.9813 Q467.12 39.7232 471.455 44.1387 Q475.83 48.5136 475.83 55.8863 Q475.83 64.6767 469.916 69.2137 Q464.042 73.7508 452.659 73.7508 Q448.365 73.7508 443.504 72.7785 Q438.683 71.8063 433.498 69.9024 L433.498 61.4765 Q438.481 64.2716 443.261 65.6895 Q448.041 67.1073 452.659 67.1073 Q459.667 67.1073 463.475 64.3527 Q467.282 61.598 467.282 56.4939 Q467.282 52.0379 464.528 49.5264 Q461.814 47.0148 455.575 45.759 L450.593 44.7868 Q441.438 42.9639 437.346 39.075 Q433.255 35.1862 433.255 28.2591 Q433.255 20.2383 438.886 15.6203 Q444.557 11.0023 454.482 11.0023 Q458.735 11.0023 463.151 11.7719 Q467.566 12.5416 472.184 14.0809 Z" fill="#000000" fill-rule="evenodd" fill-opacity="1" /><path clip-path="url(#clip140)" d="M 0 0 M487.496 54.671 L487.496 27.2059 L494.95 27.2059 L494.95 54.3874 Q494.95 60.8284 497.462 64.0691 Q499.973 67.2693 504.996 67.2693 Q511.032 67.2693 514.516 63.421 Q518.04 59.5726 518.04 52.9291 L518.04 27.2059 L525.494 27.2059 L525.494 72.576 L518.04 72.576 L518.04 65.6084 Q515.326 69.7404 511.721 71.7658 Q508.156 73.7508 503.417 73.7508 Q495.598 73.7508 491.547 68.8897 Q487.496 64.0286 487.496 54.671 M506.252 26.1121 L506.252 26.1121 Z" fill="#000000" fill-rule="evenodd" fill-opacity="1" /><path clip-path="url(#clip140)" d="M 0 0 M576.171 35.9153 Q578.966 30.8922 582.855 28.5022 Q586.744 26.1121 592.01 26.1121 Q599.099 26.1121 602.947 31.0947 Q606.796 36.0368 606.796 45.1919 L606.796 72.576 L599.301 72.576 L599.301 45.4349 Q599.301 38.913 596.992 35.7533 Q594.683 32.5936 589.944 32.5936 Q584.151 32.5936 580.789 36.4419 Q577.427 40.2903 577.427 46.9338 L577.427 72.576 L569.932 72.576 L569.932 45.4349 Q569.932 38.8725 567.623 35.7533 Q565.314 32.5936 560.494 32.5936 Q554.782 32.5936 551.42 36.4824 Q548.058 40.3308 548.058 46.9338 L548.058 72.576 L540.563 72.576 L540.563 27.2059 L548.058 27.2059 L548.058 34.2544 Q550.61 30.082 554.174 28.0971 Q557.739 26.1121 562.641 26.1121 Q567.583 26.1121 571.026 28.6237 Q574.51 31.1352 576.171 35.9153 Z" fill="#000000" fill-rule="evenodd" fill-opacity="1" /><path clip-path="url(#clip140)" d="M 0 0 M665.615 32.4315 Q659.619 32.4315 656.136 37.1306 Q652.652 41.7891 652.652 49.9314 Q652.652 58.0738 656.095 62.7728 Q659.579 67.4314 665.615 67.4314 Q671.57 67.4314 675.053 62.7323 Q678.537 58.0333 678.537 49.9314 Q678.537 41.8701 675.053 37.1711 Q671.57 32.4315 665.615 32.4315 M665.615 26.1121 Q675.337 26.1121 680.887 32.4315 Q686.436 38.7509 686.436 49.9314 Q686.436 61.0714 680.887 67.4314 Q675.337 73.7508 665.615 73.7508 Q655.852 73.7508 650.302 67.4314 Q644.793 61.0714 644.793 49.9314 Q644.793 38.7509 650.302 32.4315 Q655.852 26.1121 665.615 26.1121 Z" fill="#000000" fill-rule="evenodd" fill-opacity="1" /><path clip-path="url(#clip140)" d="M 0 0 M721.76 9.54393 L721.76 15.7418 L714.631 15.7418 Q710.62 15.7418 709.04 17.3622 Q707.501 18.9825 707.501 23.1955 L707.501 27.2059 L719.775 27.2059 L719.775 32.9987 L707.501 32.9987 L707.501 72.576 L700.007 72.576 L700.007 32.9987 L692.877 32.9987 L692.877 27.2059 L700.007 27.2059 L700.007 24.0462 Q700.007 16.471 703.531 13.0277 Q707.055 9.54393 714.712 9.54393 L721.76 9.54393 Z" fill="#000000" fill-rule="evenodd" fill-opacity="1" /><path clip-path="url(#clip140)" d="M 0 0 M762.877 18.8205 L762.877 41.5461 L773.166 41.5461 Q778.878 41.5461 781.997 38.5889 Q785.116 35.6318 785.116 30.163 Q785.116 24.7348 781.997 21.7777 Q778.878 18.8205 773.166 18.8205 L762.877 18.8205 M754.694 12.096 L773.166 12.096 Q783.334 12.096 788.519 16.714 Q793.745 21.2916 793.745 30.163 Q793.745 39.1155 788.519 43.6931 Q783.334 48.2706 773.166 48.2706 L762.877 48.2706 L762.877 72.576 L754.694 72.576 L754.694 12.096 Z" fill="#000000" fill-rule="evenodd" fill-opacity="1" /><path clip-path="url(#clip140)" d="M 0 0 M842.113 45.1919 L842.113 72.576 L834.659 72.576 L834.659 45.4349 Q834.659 38.994 832.147 35.7938 Q829.636 32.5936 824.613 32.5936 Q818.577 32.5936 815.093 36.4419 Q811.609 40.2903 811.609 46.9338 L811.609 72.576 L804.115 72.576 L804.115 9.54393 L811.609 9.54393 L811.609 34.2544 Q814.283 30.163 817.888 28.1376 Q821.534 26.1121 826.274 26.1121 Q834.092 26.1121 838.102 30.9732 Q842.113 35.7938 842.113 45.1919 Z" fill="#000000" fill-rule="evenodd" fill-opacity="1" /><path clip-path="url(#clip140)" d="M 0 0 M874.56 32.4315 Q868.565 32.4315 865.081 37.1306 Q861.597 41.7891 861.597 49.9314 Q861.597 58.0738 865.041 62.7728 Q868.525 67.4314 874.56 67.4314 Q880.515 67.4314 883.999 62.7323 Q887.483 58.0333 887.483 49.9314 Q887.483 41.8701 883.999 37.1711 Q880.515 32.4315 874.56 32.4315 M874.56 26.1121 Q884.283 26.1121 889.832 32.4315 Q895.382 38.7509 895.382 49.9314 Q895.382 61.0714 889.832 67.4314 Q884.283 73.7508 874.56 73.7508 Q864.798 73.7508 859.248 67.4314 Q853.739 61.0714 853.739 49.9314 Q853.739 38.7509 859.248 32.4315 Q864.798 26.1121 874.56 26.1121 Z" fill="#000000" fill-rule="evenodd" fill-opacity="1" /><path clip-path="url(#clip140)" d="M 0 0 M915.11 14.324 L915.11 27.2059 L930.463 27.2059 L930.463 32.9987 L915.11 32.9987 L915.11 57.6282 Q915.11 63.1779 916.609 64.7578 Q918.148 66.3376 922.807 66.3376 L930.463 66.3376 L930.463 72.576 L922.807 72.576 Q914.178 72.576 910.897 69.3758 Q907.616 66.1351 907.616 57.6282 L907.616 32.9987 L902.147 32.9987 L902.147 27.2059 L907.616 27.2059 L907.616 14.324 L915.11 14.324 Z" fill="#000000" fill-rule="evenodd" fill-opacity="1" /><path clip-path="url(#clip140)" d="M 0 0 M957.847 32.4315 Q951.852 32.4315 948.368 37.1306 Q944.884 41.7891 944.884 49.9314 Q944.884 58.0738 948.327 62.7728 Q951.811 67.4314 957.847 67.4314 Q963.802 67.4314 967.286 62.7323 Q970.769 58.0333 970.769 49.9314 Q970.769 41.8701 967.286 37.1711 Q963.802 32.4315 957.847 32.4315 M957.847 26.1121 Q967.569 26.1121 973.119 32.4315 Q978.669 38.7509 978.669 49.9314 Q978.669 61.0714 973.119 67.4314 Q967.569 73.7508 957.847 73.7508 Q948.084 73.7508 942.535 67.4314 Q937.025 61.0714 937.025 49.9314 Q937.025 38.7509 942.535 32.4315 Q948.084 26.1121 957.847 26.1121 Z" fill="#000000" fill-rule="evenodd" fill-opacity="1" /><path clip-path="url(#clip140)" d="M 0 0 M1028.74 45.1919 L1028.74 72.576 L1021.28 72.576 L1021.28 45.4349 Q1021.28 38.994 1018.77 35.7938 Q1016.26 32.5936 1011.24 32.5936 Q1005.2 32.5936 1001.72 36.4419 Q998.234 40.2903 998.234 46.9338 L998.234 72.576 L990.74 72.576 L990.74 27.2059 L998.234 27.2059 L998.234 34.2544 Q1000.91 30.163 1004.51 28.1376 Q1008.16 26.1121 1012.9 26.1121 Q1020.72 26.1121 1024.73 30.9732 Q1028.74 35.7938 1028.74 45.1919 Z" fill="#000000" fill-rule="evenodd" fill-opacity="1" /><path clip-path="url(#clip140)" d="M 0 0 M1115.59 16.7545 L1115.59 25.383 Q1111.46 21.5346 1106.76 19.6307 Q1102.1 17.7268 1096.83 17.7268 Q1086.46 17.7268 1080.95 24.0867 Q1075.44 30.4061 1075.44 42.3968 Q1075.44 54.3469 1080.95 60.7069 Q1086.46 67.0263 1096.83 67.0263 Q1102.1 67.0263 1106.76 65.1223 Q1111.46 63.2184 1115.59 59.3701 L1115.59 67.9175 Q1111.3 70.8341 1106.47 72.2924 Q1101.69 73.7508 1096.35 73.7508 Q1082.61 73.7508 1074.72 65.3654 Q1066.82 56.9395 1066.82 42.3968 Q1066.82 27.8135 1074.72 19.4281 Q1082.61 11.0023 1096.35 11.0023 Q1101.78 11.0023 1106.56 12.4606 Q1111.38 13.8784 1115.59 16.7545 Z" fill="#000000" fill-rule="evenodd" fill-opacity="1" /><path clip-path="url(#clip140)" d="M 0 0 M1145.48 32.4315 Q1139.49 32.4315 1136.01 37.1306 Q1132.52 41.7891 1132.52 49.9314 Q1132.52 58.0738 1135.97 62.7728 Q1139.45 67.4314 1145.48 67.4314 Q1151.44 67.4314 1154.92 62.7323 Q1158.41 58.0333 1158.41 49.9314 Q1158.41 41.8701 1154.92 37.1711 Q1151.44 32.4315 1145.48 32.4315 M1145.48 26.1121 Q1155.21 26.1121 1160.76 32.4315 Q1166.31 38.7509 1166.31 49.9314 Q1166.31 61.0714 1160.76 67.4314 Q1155.21 73.7508 1145.48 73.7508 Q1135.72 73.7508 1130.17 67.4314 Q1124.66 61.0714 1124.66 49.9314 Q1124.66 38.7509 1130.17 32.4315 Q1135.72 26.1121 1145.48 26.1121 Z" fill="#000000" fill-rule="evenodd" fill-opacity="1" /><path clip-path="url(#clip140)" d="M 0 0 M1204.95 34.1734 Q1203.7 33.4443 1202.2 33.1202 Q1200.74 32.7556 1198.96 32.7556 Q1192.64 32.7556 1189.23 36.8875 Q1185.87 40.9789 1185.87 48.6757 L1185.87 72.576 L1178.38 72.576 L1178.38 27.2059 L1185.87 27.2059 L1185.87 34.2544 Q1188.22 30.1225 1191.99 28.1376 Q1195.76 26.1121 1201.14 26.1121 Q1201.91 26.1121 1202.85 26.2337 Q1203.78 26.3147 1204.91 26.5172 L1204.95 34.1734 Z" fill="#000000" fill-rule="evenodd" fill-opacity="1" /><path clip-path="url(#clip140)" d="M 0 0 M1237.6 34.1734 Q1236.35 33.4443 1234.85 33.1202 Q1233.39 32.7556 1231.61 32.7556 Q1225.29 32.7556 1221.88 36.8875 Q1218.52 40.9789 1218.52 48.6757 L1218.52 72.576 L1211.03 72.576 L1211.03 27.2059 L1218.52 27.2059 L1218.52 34.2544 Q1220.87 30.1225 1224.64 28.1376 Q1228.41 26.1121 1233.79 26.1121 Q1234.56 26.1121 1235.5 26.2337 Q1236.43 26.3147 1237.56 26.5172 L1237.6 34.1734 Z" fill="#000000" fill-rule="evenodd" fill-opacity="1" /><path clip-path="url(#clip140)" d="M 0 0 M1282.41 48.0275 L1282.41 51.6733 L1248.13 51.6733 Q1248.62 59.3701 1252.75 63.421 Q1256.93 67.4314 1264.34 67.4314 Q1268.63 67.4314 1272.64 66.3781 Q1276.69 65.3249 1280.66 63.2184 L1280.66 70.267 Q1276.65 71.9684 1272.44 72.8596 Q1268.23 73.7508 1263.89 73.7508 Q1253.04 73.7508 1246.68 67.4314 Q1240.36 61.1119 1240.36 50.3365 Q1240.36 39.1965 1246.35 32.6746 Q1252.39 26.1121 1262.6 26.1121 Q1271.75 26.1121 1277.06 32.0264 Q1282.41 37.9003 1282.41 48.0275 M1274.95 45.84 Q1274.87 39.7232 1271.51 36.0774 Q1268.19 32.4315 1262.68 32.4315 Q1256.44 32.4315 1252.67 35.9558 Q1248.94 39.4801 1248.38 45.8805 L1274.95 45.84 Z" fill="#000000" fill-rule="evenodd" fill-opacity="1" /><path clip-path="url(#clip140)" d="M 0 0 M1294.64 9.54393 L1302.09 9.54393 L1302.09 72.576 L1294.64 72.576 L1294.64 9.54393 Z" fill="#000000" fill-rule="evenodd" fill-opacity="1" /><path clip-path="url(#clip140)" d="M 0 0 M1338.31 49.7694 Q1329.27 49.7694 1325.79 51.8354 Q1322.31 53.9013 1322.31 58.8839 Q1322.31 62.8538 1324.9 65.2034 Q1327.53 67.5124 1332.03 67.5124 Q1338.23 67.5124 1341.95 63.1374 Q1345.72 58.7219 1345.72 51.4303 L1345.72 49.7694 L1338.31 49.7694 M1353.17 46.6907 L1353.17 72.576 L1345.72 72.576 L1345.72 65.6895 Q1343.17 69.8214 1339.36 71.8063 Q1335.55 73.7508 1330.04 73.7508 Q1323.08 73.7508 1318.94 69.8619 Q1314.85 65.9325 1314.85 59.3701 Q1314.85 51.7138 1319.96 47.825 Q1325.1 43.9361 1335.27 43.9361 L1345.72 43.9361 L1345.72 43.2069 Q1345.72 38.0623 1342.32 35.2672 Q1338.96 32.4315 1332.84 32.4315 Q1328.95 32.4315 1325.26 33.3632 Q1321.58 34.295 1318.17 36.1584 L1318.17 29.2718 Q1322.27 27.692 1326.11 26.9223 Q1329.96 26.1121 1333.61 26.1121 Q1343.45 26.1121 1348.31 31.2163 Q1353.17 36.3204 1353.17 46.6907 Z" fill="#000000" fill-rule="evenodd" fill-opacity="1" /><path clip-path="url(#clip140)" d="M 0 0 M1375.9 14.324 L1375.9 27.2059 L1391.25 27.2059 L1391.25 32.9987 L1375.9 32.9987 L1375.9 57.6282 Q1375.9 63.1779 1377.4 64.7578 Q1378.94 66.3376 1383.6 66.3376 L1391.25 66.3376 L1391.25 72.576 L1383.6 72.576 Q1374.97 72.576 1371.69 69.3758 Q1368.41 66.1351 1368.41 57.6282 L1368.41 32.9987 L1362.94 32.9987 L1362.94 27.2059 L1368.41 27.2059 L1368.41 14.324 L1375.9 14.324 Z" fill="#000000" fill-rule="evenodd" fill-opacity="1" /><path clip-path="url(#clip140)" d="M 0 0 M1401.06 27.2059 L1408.51 27.2059 L1408.51 72.576 L1401.06 72.576 L1401.06 27.2059 M1401.06 9.54393 L1408.51 9.54393 L1408.51 18.9825 L1401.06 18.9825 L1401.06 9.54393 Z" fill="#000000" fill-rule="evenodd" fill-opacity="1" /><path clip-path="url(#clip140)" d="M 0 0 M1441.69 32.4315 Q1435.69 32.4315 1432.21 37.1306 Q1428.72 41.7891 1428.72 49.9314 Q1428.72 58.0738 1432.17 62.7728 Q1435.65 67.4314 1441.69 67.4314 Q1447.64 67.4314 1451.13 62.7323 Q1454.61 58.0333 1454.61 49.9314 Q1454.61 41.8701 1451.13 37.1711 Q1447.64 32.4315 1441.69 32.4315 M1441.69 26.1121 Q1451.41 26.1121 1456.96 32.4315 Q1462.51 38.7509 1462.51 49.9314 Q1462.51 61.0714 1456.96 67.4314 Q1451.41 73.7508 1441.69 73.7508 Q1431.92 73.7508 1426.37 67.4314 Q1420.87 61.0714 1420.87 49.9314 Q1420.87 38.7509 1426.37 32.4315 Q1431.92 26.1121 1441.69 26.1121 Z" fill="#000000" fill-rule="evenodd" fill-opacity="1" /><path clip-path="url(#clip140)" d="M 0 0 M1512.58 45.1919 L1512.58 72.576 L1505.12 72.576 L1505.12 45.4349 Q1505.12 38.994 1502.61 35.7938 Q1500.1 32.5936 1495.08 32.5936 Q1489.04 32.5936 1485.56 36.4419 Q1482.07 40.2903 1482.07 46.9338 L1482.07 72.576 L1474.58 72.576 L1474.58 27.2059 L1482.07 27.2059 L1482.07 34.2544 Q1484.75 30.163 1488.35 28.1376 Q1492 26.1121 1496.74 26.1121 Q1504.56 26.1121 1508.57 30.9732 Q1512.58 35.7938 1512.58 45.1919 Z" fill="#000000" fill-rule="evenodd" fill-opacity="1" /><path clip-path="url(#clip140)" d="M 0 0 M1556.37 28.5427 L1556.37 35.5912 Q1553.21 33.9709 1549.81 33.1607 Q1546.4 32.3505 1542.76 32.3505 Q1537.21 32.3505 1534.41 34.0519 Q1531.66 35.7533 1531.66 39.156 Q1531.66 41.7486 1533.64 43.2475 Q1535.63 44.7058 1541.62 46.0426 L1544.17 46.6097 Q1552.11 48.3111 1555.44 51.4303 Q1558.8 54.509 1558.8 60.0587 Q1558.8 66.3781 1553.78 70.0644 Q1548.79 73.7508 1540.04 73.7508 Q1536.4 73.7508 1532.43 73.0216 Q1528.5 72.3329 1524.12 70.9151 L1524.12 63.2184 Q1528.25 65.3654 1532.27 66.4591 Q1536.28 67.5124 1540.2 67.5124 Q1545.47 67.5124 1548.31 65.73 Q1551.14 63.9071 1551.14 60.6258 Q1551.14 57.5877 1549.08 55.9673 Q1547.05 54.3469 1540.12 52.8481 L1537.53 52.2405 Q1530.6 50.7821 1527.53 47.7845 Q1524.45 44.7463 1524.45 39.4801 Q1524.45 33.0797 1528.98 29.5959 Q1533.52 26.1121 1541.87 26.1121 Q1546 26.1121 1549.64 26.7198 Q1553.29 27.3274 1556.37 28.5427 Z" fill="#000000" fill-rule="evenodd" fill-opacity="1" /><path clip-path="url(#clip140)" d="M 0 0 M1591.69 27.2059 L1599.59 27.2059 L1613.77 65.2844 L1627.95 27.2059 L1635.85 27.2059 L1618.83 72.576 L1608.71 72.576 L1591.69 27.2059 Z" fill="#000000" fill-rule="evenodd" fill-opacity="1" /><path clip-path="url(#clip140)" d="M 0 0 M1675.06 28.5427 L1675.06 35.5912 Q1671.9 33.9709 1668.5 33.1607 Q1665.09 32.3505 1661.45 32.3505 Q1655.9 32.3505 1653.1 34.0519 Q1650.35 35.7533 1650.35 39.156 Q1650.35 41.7486 1652.33 43.2475 Q1654.32 44.7058 1660.31 46.0426 L1662.87 46.6097 Q1670.81 48.3111 1674.13 51.4303 Q1677.49 54.509 1677.49 60.0587 Q1677.49 66.3781 1672.47 70.0644 Q1667.48 73.7508 1658.73 73.7508 Q1655.09 73.7508 1651.12 73.0216 Q1647.19 72.3329 1642.81 70.9151 L1642.81 63.2184 Q1646.95 65.3654 1650.96 66.4591 Q1654.97 67.5124 1658.9 67.5124 Q1664.16 67.5124 1667 65.73 Q1669.83 63.9071 1669.83 60.6258 Q1669.83 57.5877 1667.77 55.9673 Q1665.74 54.3469 1658.82 52.8481 L1656.22 52.2405 Q1649.3 50.7821 1646.22 47.7845 Q1643.14 44.7463 1643.14 39.4801 Q1643.14 33.0797 1647.68 29.5959 Q1652.21 26.1121 1660.56 26.1121 Q1664.69 26.1121 1668.34 26.7198 Q1671.98 27.3274 1675.06 28.5427 Z" fill="#000000" fill-rule="evenodd" fill-opacity="1" /><path clip-path="url(#clip140)" d="M 0 0 M1707.67 12.096 L1758.83 12.096 L1758.83 18.9825 L1737.36 18.9825 L1737.36 72.576 L1729.14 72.576 L1729.14 18.9825 L1707.67 18.9825 L1707.67 12.096 Z" fill="#000000" fill-rule="evenodd" fill-opacity="1" /><path clip-path="url(#clip140)" d="M 0 0 M1763.86 27.2059 L1771.31 27.2059 L1771.31 72.576 L1763.86 72.576 L1763.86 27.2059 M1763.86 9.54393 L1771.31 9.54393 L1771.31 18.9825 L1763.86 18.9825 L1763.86 9.54393 Z" fill="#000000" fill-rule="evenodd" fill-opacity="1" /><path clip-path="url(#clip140)" d="M 0 0 M1822.23 35.9153 Q1825.02 30.8922 1828.91 28.5022 Q1832.8 26.1121 1838.07 26.1121 Q1845.16 26.1121 1849.01 31.0947 Q1852.85 36.0368 1852.85 45.1919 L1852.85 72.576 L1845.36 72.576 L1845.36 45.4349 Q1845.36 38.913 1843.05 35.7533 Q1840.74 32.5936 1836 32.5936 Q1830.21 32.5936 1826.85 36.4419 Q1823.48 40.2903 1823.48 46.9338 L1823.48 72.576 L1815.99 72.576 L1815.99 45.4349 Q1815.99 38.8725 1813.68 35.7533 Q1811.37 32.5936 1806.55 32.5936 Q1800.84 32.5936 1797.48 36.4824 Q1794.12 40.3308 1794.12 46.9338 L1794.12 72.576 L1786.62 72.576 L1786.62 27.2059 L1794.12 27.2059 L1794.12 34.2544 Q1796.67 30.082 1800.23 28.0971 Q1803.8 26.1121 1808.7 26.1121 Q1813.64 26.1121 1817.08 28.6237 Q1820.57 31.1352 1822.23 35.9153 Z" fill="#000000" fill-rule="evenodd" fill-opacity="1" /><path clip-path="url(#clip140)" d="M 0 0 M1906.53 48.0275 L1906.53 51.6733 L1872.26 51.6733 Q1872.74 59.3701 1876.88 63.421 Q1881.05 67.4314 1888.46 67.4314 Q1892.76 67.4314 1896.77 66.3781 Q1900.82 65.3249 1904.79 63.2184 L1904.79 70.267 Q1900.78 71.9684 1896.56 72.8596 Q1892.35 73.7508 1888.02 73.7508 Q1877.16 73.7508 1870.8 67.4314 Q1864.48 61.1119 1864.48 50.3365 Q1864.48 39.1965 1870.48 32.6746 Q1876.51 26.1121 1886.72 26.1121 Q1895.87 26.1121 1901.18 32.0264 Q1906.53 37.9003 1906.53 48.0275 M1899.07 45.84 Q1898.99 39.7232 1895.63 36.0774 Q1892.31 32.4315 1886.8 32.4315 Q1880.56 32.4315 1876.79 35.9558 Q1873.07 39.4801 1872.5 45.8805 L1899.07 45.84 Z" fill="#000000" fill-rule="evenodd" fill-opacity="1" /><path clip-path="url(#clip140)" d="M 0 0 M1970.01 17.6457 Q1961.09 17.6457 1955.83 24.2892 Q1950.6 30.9327 1950.6 42.3968 Q1950.6 53.8203 1955.83 60.4638 Q1961.09 67.1073 1970.01 67.1073 Q1978.92 67.1073 1984.1 60.4638 Q1989.33 53.8203 1989.33 42.3968 Q1989.33 30.9327 1984.1 24.2892 Q1978.92 17.6457 1970.01 17.6457 M1970.01 11.0023 Q1982.73 11.0023 1990.34 19.5497 Q1997.96 28.0566 1997.96 42.3968 Q1997.96 56.6965 1990.34 65.2439 Q1982.73 73.7508 1970.01 73.7508 Q1957.25 73.7508 1949.59 65.2439 Q1941.97 56.737 1941.97 42.3968 Q1941.97 28.0566 1949.59 19.5497 Q1957.25 11.0023 1970.01 11.0023 Z" fill="#000000" fill-rule="evenodd" fill-opacity="1" /><path clip-path="url(#clip140)" d="M 0 0 M2033.4 9.54393 L2033.4 15.7418 L2026.27 15.7418 Q2022.26 15.7418 2020.68 17.3622 Q2019.14 18.9825 2019.14 23.1955 L2019.14 27.2059 L2031.42 27.2059 L2031.42 32.9987 L2019.14 32.9987 L2019.14 72.576 L2011.65 72.576 L2011.65 32.9987 L2004.52 32.9987 L2004.52 27.2059 L2011.65 27.2059 L2011.65 24.0462 Q2011.65 16.471 2015.17 13.0277 Q2018.7 9.54393 2026.35 9.54393 L2033.4 9.54393 Z" fill="#000000" fill-rule="evenodd" fill-opacity="1" /><path clip-path="url(#clip140)" d="M 0 0 M2062.61 9.54393 L2062.61 15.7418 L2055.48 15.7418 Q2051.47 15.7418 2049.89 17.3622 Q2048.35 18.9825 2048.35 23.1955 L2048.35 27.2059 L2060.62 27.2059 L2060.62 32.9987 L2048.35 32.9987 L2048.35 72.576 L2040.86 72.576 L2040.86 32.9987 L2033.73 32.9987 L2033.73 27.2059 L2040.86 27.2059 L2040.86 24.0462 Q2040.86 16.471 2044.38 13.0277 Q2047.9 9.54393 2055.56 9.54393 L2062.61 9.54393 Z" fill="#000000" fill-rule="evenodd" fill-opacity="1" /><path clip-path="url(#clip140)" d="M 0 0 M2097.77 28.5427 L2097.77 35.5912 Q2094.61 33.9709 2091.21 33.1607 Q2087.81 32.3505 2084.16 32.3505 Q2078.61 32.3505 2075.82 34.0519 Q2073.06 35.7533 2073.06 39.156 Q2073.06 41.7486 2075.05 43.2475 Q2077.03 44.7058 2083.03 46.0426 L2085.58 46.6097 Q2093.52 48.3111 2096.84 51.4303 Q2100.2 54.509 2100.2 60.0587 Q2100.2 66.3781 2095.18 70.0644 Q2090.2 73.7508 2081.45 73.7508 Q2077.8 73.7508 2073.83 73.0216 Q2069.9 72.3329 2065.53 70.9151 L2065.53 63.2184 Q2069.66 65.3654 2073.67 66.4591 Q2077.68 67.5124 2081.61 67.5124 Q2086.87 67.5124 2089.71 65.73 Q2092.55 63.9071 2092.55 60.6258 Q2092.55 57.5877 2090.48 55.9673 Q2088.45 54.3469 2081.53 52.8481 L2078.93 52.2405 Q2072.01 50.7821 2068.93 47.7845 Q2065.85 44.7463 2065.85 39.4801 Q2065.85 33.0797 2070.39 29.5959 Q2074.92 26.1121 2083.27 26.1121 Q2087.4 26.1121 2091.05 26.7198 Q2094.69 27.3274 2097.77 28.5427 Z" fill="#000000" fill-rule="evenodd" fill-opacity="1" /><path clip-path="url(#clip140)" d="M 0 0 M2150.88 48.0275 L2150.88 51.6733 L2116.61 51.6733 Q2117.09 59.3701 2121.23 63.421 Q2125.4 67.4314 2132.81 67.4314 Q2137.11 67.4314 2141.12 66.3781 Q2145.17 65.3249 2149.14 63.2184 L2149.14 70.267 Q2145.13 71.9684 2140.91 72.8596 Q2136.7 73.7508 2132.37 73.7508 Q2121.51 73.7508 2115.15 67.4314 Q2108.83 61.1119 2108.83 50.3365 Q2108.83 39.1965 2114.83 32.6746 Q2120.86 26.1121 2131.07 26.1121 Q2140.22 26.1121 2145.53 32.0264 Q2150.88 37.9003 2150.88 48.0275 M2143.43 45.84 Q2143.34 39.7232 2139.98 36.0774 Q2136.66 32.4315 2131.15 32.4315 Q2124.91 32.4315 2121.15 35.9558 Q2117.42 39.4801 2116.85 45.8805 L2143.43 45.84 Z" fill="#000000" fill-rule="evenodd" fill-opacity="1" /><path clip-path="url(#clip140)" d="M 0 0 M2170.49 14.324 L2170.49 27.2059 L2185.84 27.2059 L2185.84 32.9987 L2170.49 32.9987 L2170.49 57.6282 Q2170.49 63.1779 2171.98 64.7578 Q2173.52 66.3376 2178.18 66.3376 L2185.84 66.3376 L2185.84 72.576 L2178.18 72.576 Q2169.55 72.576 2166.27 69.3758 Q2162.99 66.1351 2162.99 57.6282 L2162.99 32.9987 L2157.52 32.9987 L2157.52 27.2059 L2162.99 27.2059 L2162.99 14.324 L2170.49 14.324 Z" fill="#000000" fill-rule="evenodd" fill-opacity="1" /><polyline clip-path="url(#clip143)" style="stroke:#009af9; stroke-width:4; stroke-opacity:1; fill:none" points="
  325.387,160.369 327.357,1105.69 329.327,1345.95 331.298,1348.06 333.268,1361.39 335.238,1357.79 337.208,1367.27 339.179,1378.92 341.149,1360.64 343.119,1344.83 
  345.09,1344.3 347.06,1355.54 349.03,1361.91 351,1362.28 352.971,1345.59 354.941,1363.03 356.911,1365.64 358.882,1348.38 360.852,1362.97 362.822,1347.97 
  364.792,1337.06 366.763,1355.66 368.733,1360.29 370.703,1345.49 372.674,1349.62 374.644,1358.73 376.614,1347.42 378.584,1374.5 380.555,1352.87 382.525,1348.94 
  384.495,1344.15 386.466,1348.24 388.436,1353.03 390.406,1363.93 392.377,1339.79 394.347,1360.67 396.317,1366.39 398.287,1354.7 400.258,1347.22 402.228,1344.39 
  404.198,1349.69 406.169,1370.15 408.139,1344.53 410.109,1350 412.079,1350.63 414.05,1374.48 416.02,1354.75 417.99,1332.01 419.961,1333.26 421.931,1331.16 
  423.901,1348.31 425.871,1339.81 427.842,1335.48 429.812,1350.47 431.782,1386.42 433.753,1356.12 435.723,1359.35 437.693,1363.44 439.663,1353.36 441.634,1357.16 
  443.604,1356.02 445.574,1365.53 447.545,1356.52 449.515,1357.02 451.485,1348.83 453.455,1363.76 455.426,1360.65 457.396,1351.29 459.366,1352.62 461.337,1360.5 
  463.307,1352.54 465.277,1346.72 467.248,1337.84 469.218,1351.78 471.188,1349.01 473.158,1346.41 475.129,1340.31 477.099,1352.04 479.069,1366.25 481.04,1359.48 
  483.01,1353.73 484.98,1356.79 486.95,1354.36 488.921,1337.44 490.891,1347.41 492.861,1361.65 494.832,1357.84 496.802,1350.24 498.772,1361.07 500.742,1343.92 
  502.713,1346.23 504.683,1352.71 506.653,1343.56 508.624,1345.05 510.594,1345.72 512.564,1353.96 514.534,1366.65 516.505,1347.01 518.475,1329.23 520.445,1342.43 
  522.416,1344.41 524.386,1340.42 526.356,1328.69 528.327,1351.78 530.297,1354 532.267,1366.8 534.237,1366.82 536.208,1348.1 538.178,1364.85 540.148,1362.65 
  542.119,1357.77 544.089,1355.29 546.059,1345.68 548.029,1357.58 550,1355.2 551.97,1357.66 553.94,1338.63 555.911,1363.75 557.881,1347.95 559.851,1346.38 
  561.821,1342.12 563.792,1350.22 565.762,1343.39 567.732,1347.51 569.703,1362.79 571.673,1361.96 573.643,1351.91 575.613,1345.58 577.584,1369.36 579.554,1359.83 
  581.524,1357.26 583.495,1352.55 585.465,1361.26 587.435,1370.75 589.406,1352.93 591.376,1357.12 593.346,1343.44 595.316,1349.66 597.287,1353.54 599.257,1350.98 
  601.227,1357.13 603.198,1363.62 605.168,1343.5 607.138,1357.89 609.108,1357.36 611.079,1354.4 613.049,1349.52 615.019,1349.15 616.99,1344.72 618.96,1354.38 
  620.93,1358.63 622.9,1342.45 624.871,1344.94 626.841,1340.42 628.811,1343.02 630.782,1374.67 632.752,1361.48 634.722,1353.23 636.692,1346.51 638.663,1361.75 
  640.633,1337.21 642.603,1338.27 644.574,1336.83 646.544,1361.26 648.514,1351.68 650.484,1344.39 652.455,1359.76 654.425,1364.47 656.395,1326.99 658.366,1356.26 
  660.336,1359.41 662.306,1366.24 664.277,1356.91 666.247,1361.9 668.217,1360.71 670.187,1366.26 672.158,1362.32 674.128,1354.49 676.098,1320.13 678.069,1346.6 
  680.039,1348.42 682.009,1332.56 683.979,1350.93 685.95,1357.99 687.92,1332.78 689.89,1350.09 691.861,1357.34 693.831,1352.12 695.801,1347.37 697.771,1365.36 
  699.742,1359.67 701.712,1347.97 703.682,1348.85 705.653,1353.48 707.623,1361.33 709.593,1354.87 711.563,1362.6 713.534,1356.78 715.504,1355.34 717.474,1340.72 
  719.445,1350.01 721.415,1343.77 723.385,1351.02 725.356,1344.9 727.326,1350.24 729.296,1364.58 731.266,1362.41 733.237,1355.05 735.207,1349.87 737.177,1352.05 
  739.148,1351.4 741.118,1354.07 743.088,1350.9 745.058,1357.86 747.029,1336.88 748.999,1350.62 750.969,1340.86 752.94,1346.51 754.91,1358.01 756.88,1348.49 
  758.85,1333.24 760.821,1347.63 762.791,1328.55 764.761,1348.38 766.732,1363.24 768.702,1343.47 770.672,1349.77 772.642,1354.72 774.613,1365.19 776.583,1338.75 
  778.553,1334.62 780.524,1350.96 782.494,1346.03 784.464,1344.43 786.435,1340.91 788.405,1352.55 790.375,1358.81 792.345,1354.42 794.316,1348.15 796.286,1338.1 
  798.256,1347.16 800.227,1359.85 802.197,1359.24 804.167,1344.76 806.137,1356.18 808.108,1332.73 810.078,1349.8 812.048,1338.23 814.019,1357.8 815.989,1365.62 
  817.959,1358.35 819.929,1355.03 821.9,1353.03 823.87,1347.49 825.84,1357.24 827.811,1363.39 829.781,1355.3 831.751,1348.86 833.721,1359.69 835.692,1390.25 
  837.662,1382 839.632,1370.21 841.603,1358.76 843.573,1350.51 845.543,1351.48 847.513,1338.83 849.484,1354.5 851.454,1348.35 853.424,1341.48 855.395,1329.7 
  857.365,1355.54 859.335,1374.7 861.306,1361.65 863.276,1353.69 865.246,1337.7 867.216,1351.99 869.187,1341.96 871.157,1344.72 873.127,1337.07 875.098,1340.14 
  877.068,1352.11 879.038,1342.48 881.008,1347.35 882.979,1362.26 884.949,1352.05 886.919,1350.84 888.89,1342.82 890.86,1354.37 892.83,1351.51 894.8,1358.76 
  896.771,1346.33 898.741,1346.48 900.711,1357.94 902.682,1350.54 904.652,1373.12 906.622,1350.16 908.592,1370.1 910.563,1365.86 912.533,1348.91 914.503,1336.59 
  916.474,1327.87 918.444,1336.56 920.414,1322.05 922.385,1357.34 924.355,1338.95 926.325,1341.35 928.295,1371.8 930.266,1352.11 932.236,1357.75 934.206,1355.94 
  936.177,1346.27 938.147,1350.13 940.117,1346.81 942.087,1360.03 944.058,1362.18 946.028,1350.37 947.998,1357.99 949.969,1368.55 951.939,1360.07 953.909,1363.87 
  955.879,1346.59 957.85,1333.64 959.82,1352.64 961.79,1340.42 963.761,1353.99 965.731,1341.77 967.701,1348.77 969.671,1367.06 971.642,1361.08 973.612,1337.91 
  975.582,1343.88 977.553,1347.78 979.523,1349.3 981.493,1341.69 983.463,1348.46 985.434,1370.74 987.404,1373.99 989.374,1353.97 991.345,1361.47 993.315,1338.33 
  995.285,1351.83 997.256,1346.24 999.226,1362.86 1001.2,1356.37 1003.17,1358.88 1005.14,1375.36 1007.11,1355.21 1009.08,1375.63 1011.05,1347.23 1013.02,1334.28 
  1014.99,1349.76 1016.96,1352.2 1018.93,1332.7 1020.9,1353.49 1022.87,1354.51 1024.84,1339.91 1026.81,1355.96 1028.78,1356.97 1030.75,1340.12 1032.72,1336.97 
  1034.69,1358.02 1036.66,1366.6 1038.63,1364.3 1040.6,1345.63 1042.57,1353.5 1044.54,1345.32 1046.51,1344.98 1048.48,1347 1050.45,1337.41 1052.42,1338.51 
  1054.39,1352.21 1056.36,1359.07 1058.33,1360.67 1060.3,1343.1 1062.28,1361.55 1064.25,1351.9 1066.22,1357.15 1068.19,1360.88 1070.16,1353.24 1072.13,1357.69 
  1074.1,1361.16 1076.07,1366.18 1078.04,1346.99 1080.01,1356.06 1081.98,1354.34 1083.95,1366.01 1085.92,1363.62 1087.89,1367.74 1089.86,1340.54 1091.83,1338.2 
  1093.8,1340.75 1095.77,1343.88 1097.74,1352.62 1099.71,1371.12 1101.68,1361.55 1103.65,1348.32 1105.62,1346.47 1107.59,1332.15 1109.56,1347.28 1111.53,1359.82 
  1113.5,1349.29 1115.47,1342.5 1117.44,1351.46 1119.41,1355.97 1121.38,1354.55 1123.35,1358.53 1125.32,1358.33 1127.29,1364.86 1129.26,1357.81 1131.24,1341.91 
  1133.21,1365.16 1135.18,1338.77 1137.15,1353.22 1139.12,1355.74 1141.09,1345.08 1143.06,1354.86 1145.03,1347.6 1147,1346.19 1148.97,1352.29 1150.94,1353.65 
  1152.91,1364.59 1154.88,1359.51 1156.85,1353.77 1158.82,1355.27 1160.79,1349.67 1162.76,1342.26 1164.73,1336.59 1166.7,1337.86 1168.67,1341.71 1170.64,1358.03 
  1172.61,1355.05 1174.58,1344.35 1176.55,1334.91 1178.52,1338.18 1180.49,1347.84 1182.46,1363.28 1184.43,1365.73 1186.4,1356.56 1188.37,1377.94 1190.34,1375.24 
  1192.31,1353.51 1194.28,1339.75 1196.25,1337.32 1198.23,1342.7 1200.2,1356.41 1202.17,1352.49 1204.14,1350.62 1206.11,1345.47 1208.08,1337.89 1210.05,1349.8 
  1212.02,1336.5 1213.99,1342.09 1215.96,1349.41 1217.93,1339.97 1219.9,1336.37 1221.87,1360.99 1223.84,1353.16 1225.81,1350.02 1227.78,1338.32 1229.75,1348.64 
  1231.72,1360.04 1233.69,1360.53 1235.66,1356.22 1237.63,1349.31 1239.6,1356.16 1241.57,1360.22 1243.54,1349.4 1245.51,1347.25 1247.48,1372.7 1249.45,1355.47 
  1251.42,1346.08 1253.39,1336.16 1255.36,1340.04 1257.33,1365 1259.3,1359.81 1261.27,1362.99 1263.24,1360.25 1265.21,1355.45 1267.19,1364.16 1269.16,1364.78 
  1271.13,1358.64 1273.1,1342.11 1275.07,1348.23 1277.04,1359.44 1279.01,1354.43 1280.98,1362.58 1282.95,1356.82 1284.92,1370.75 1286.89,1345.89 1288.86,1353.84 
  1290.83,1354.03 1292.8,1357.75 1294.77,1333.1 1296.74,1337.93 1298.71,1352.59 1300.68,1361.85 1302.65,1355.82 1304.62,1337.52 1306.59,1335.66 1308.56,1344.37 
  1310.53,1346.96 1312.5,1338.37 1314.47,1326.42 1316.44,1334.65 1318.41,1351.47 1320.38,1359.37 1322.35,1351.78 1324.32,1346.93 1326.29,1343.44 1328.26,1354.72 
  1330.23,1366.11 1332.2,1357.04 1334.18,1352.14 1336.15,1366.65 1338.12,1360.68 1340.09,1362.92 1342.06,1358.58 1344.03,1355.35 1346,1335.91 1347.97,1353.91 
  1349.94,1341.1 1351.91,1369.57 1353.88,1357.91 1355.85,1348.63 1357.82,1338.91 1359.79,1364.37 1361.76,1356.24 1363.73,1348.33 1365.7,1353.83 1367.67,1341.12 
  1369.64,1322.91 1371.61,1346.04 1373.58,1344.82 1375.55,1343.08 1377.52,1344.83 1379.49,1355.62 1381.46,1363.78 1383.43,1335.25 1385.4,1334.24 1387.37,1344.62 
  1389.34,1354.5 1391.31,1349.89 1393.28,1353.09 1395.25,1353.79 1397.22,1356.94 1399.19,1336.44 1401.16,1357.02 1403.14,1371.14 1405.11,1367.61 1407.08,1357.69 
  1409.05,1356.24 1411.02,1358.88 1412.99,1353.9 1414.96,1345.7 1416.93,1358.54 1418.9,1359.63 1420.87,1357.1 1422.84,1367.51 1424.81,1363.37 1426.78,1343.39 
  1428.75,1352.08 1430.72,1344.93 1432.69,1353.43 1434.66,1345.67 1436.63,1362.83 1438.6,1358.23 1440.57,1338.93 1442.54,1332.83 1444.51,1345.44 1446.48,1353.52 
  1448.45,1354.3 1450.42,1331.66 1452.39,1345.09 1454.36,1337.35 1456.33,1355.46 1458.3,1361.68 1460.27,1360.87 1462.24,1348.28 1464.21,1332.13 1466.18,1328.59 
  1468.15,1372.25 1470.13,1349.1 1472.1,1365.54 1474.07,1376.14 1476.04,1343.53 1478.01,1337.41 1479.98,1353.04 1481.95,1362.44 1483.92,1345.41 1485.89,1353.76 
  1487.86,1363.44 1489.83,1361.8 1491.8,1335.8 1493.77,1341.49 1495.74,1343.21 1497.71,1327.32 1499.68,1346.01 1501.65,1349.47 1503.62,1341.18 1505.59,1357.43 
  1507.56,1335.75 1509.53,1331.52 1511.5,1332.79 1513.47,1350.92 1515.44,1364.55 1517.41,1346.82 1519.38,1349.67 1521.35,1350.87 1523.32,1341.48 1525.29,1333.74 
  1527.26,1330.26 1529.23,1344.1 1531.2,1340.89 1533.17,1338.09 1535.14,1352.11 1537.11,1347.15 1539.09,1356.43 1541.06,1349.42 1543.03,1342.58 1545,1361.32 
  1546.97,1346.43 1548.94,1358.98 1550.91,1356.58 1552.88,1357.83 1554.85,1348.03 1556.82,1348.81 1558.79,1348.04 1560.76,1334.06 1562.73,1341.36 1564.7,1350.94 
  1566.67,1351.56 1568.64,1340.58 1570.61,1353.45 1572.58,1345.59 1574.55,1344.39 1576.52,1340.22 1578.49,1339.59 1580.46,1343.9 1582.43,1361.76 1584.4,1368.88 
  1586.37,1359.89 1588.34,1371.01 1590.31,1360.05 1592.28,1353.05 1594.25,1358.27 1596.22,1356.83 1598.19,1356.04 1600.16,1340.15 1602.13,1347.62 1604.1,1348.69 
  1606.08,1346.39 1608.05,1347.44 1610.02,1344.4 1611.99,1361.37 1613.96,1356.32 1615.93,1366.64 1617.9,1359.15 1619.87,1351.07 1621.84,1353.94 1623.81,1350.45 
  1625.78,1344.18 1627.75,1366.34 1629.72,1354.18 1631.69,1352.38 1633.66,1343.88 1635.63,1356.54 1637.6,1356.61 1639.57,1362.39 1641.54,1348.23 1643.51,1349.84 
  1645.48,1347.01 1647.45,1364.31 1649.42,1365.71 1651.39,1362.02 1653.36,1365.15 1655.33,1359.18 1657.3,1362.16 1659.27,1338.39 1661.24,1333.57 1663.21,1342.29 
  1665.18,1348.82 1667.15,1365.62 1669.12,1344.68 1671.09,1364.94 1673.06,1355.17 1675.04,1353.87 1677.01,1360.33 1678.98,1362.14 1680.95,1352.92 1682.92,1341.92 
  1684.89,1356.6 1686.86,1368.89 1688.83,1357.76 1690.8,1344.95 1692.77,1350.2 1694.74,1352.32 1696.71,1337.12 1698.68,1329.24 1700.65,1334.65 1702.62,1345 
  1704.59,1349.78 1706.56,1342.4 1708.53,1363.12 1710.5,1350.39 1712.47,1340.13 1714.44,1346.55 1716.41,1348.33 1718.38,1345.97 1720.35,1344.96 1722.32,1354.49 
  1724.29,1349.36 1726.26,1340.26 1728.23,1336.57 1730.2,1358.02 1732.17,1348.09 1734.14,1380.5 1736.11,1360.86 1738.08,1344.84 1740.05,1353.19 1742.03,1350.77 
  1744,1344.38 1745.97,1343.65 1747.94,1356.32 1749.91,1362.94 1751.88,1350.02 1753.85,1362.01 1755.82,1356.21 1757.79,1369.14 1759.76,1356.45 1761.73,1338.36 
  1763.7,1353.04 1765.67,1339.83 1767.64,1345.46 1769.61,1349.41 1771.58,1350.04 1773.55,1342.33 1775.52,1345.58 1777.49,1342.72 1779.46,1368.39 1781.43,1359.72 
  1783.4,1355.79 1785.37,1360.65 1787.34,1360.5 1789.31,1364.61 1791.28,1347.53 1793.25,1338.48 1795.22,1351.19 1797.19,1356.89 1799.16,1351.19 1801.13,1350.07 
  1803.1,1347.24 1805.07,1347.31 1807.04,1356.16 1809.01,1359.87 1810.99,1351.74 1812.96,1364.09 1814.93,1359 1816.9,1356.16 1818.87,1355.67 1820.84,1355.71 
  1822.81,1351.09 1824.78,1348.85 1826.75,1369.37 1828.72,1365.33 1830.69,1348.13 1832.66,1347.41 1834.63,1352.36 1836.6,1346.93 1838.57,1358.77 1840.54,1336.05 
  1842.51,1336.42 1844.48,1350.62 1846.45,1365.01 1848.42,1364.72 1850.39,1357.38 1852.36,1345.06 1854.33,1352.2 1856.3,1347.01 1858.27,1343.76 1860.24,1342.44 
  1862.21,1334.77 1864.18,1345.98 1866.15,1341.48 1868.12,1337.7 1870.09,1326.29 1872.06,1334.42 1874.03,1355.78 1876,1362.09 1877.98,1366.7 1879.95,1359.77 
  1881.92,1348.74 1883.89,1356.62 1885.86,1365.43 1887.83,1340.45 1889.8,1357.51 1891.77,1340.09 1893.74,1340.82 1895.71,1338.98 1897.68,1333.4 1899.65,1325.17 
  1901.62,1331.79 1903.59,1344.55 1905.56,1336.95 1907.53,1350.05 1909.5,1348.55 1911.47,1362.55 1913.44,1354.98 1915.41,1352.31 1917.38,1357.16 1919.35,1356.41 
  1921.32,1369.82 1923.29,1353.99 1925.26,1347.07 1927.23,1345.56 1929.2,1354.97 1931.17,1337.28 1933.14,1347.68 1935.11,1342.81 1937.08,1361.45 1939.05,1340.33 
  1941.02,1340.07 1942.99,1349.77 1944.96,1349.03 1946.94,1340.08 1948.91,1342.57 1950.88,1352.52 1952.85,1351.58 1954.82,1357.76 1956.79,1366.59 1958.76,1350.89 
  1960.73,1347.38 1962.7,1339.42 1964.67,1363.5 1966.64,1346.82 1968.61,1338.1 1970.58,1343.97 1972.55,1338.94 1974.52,1355.91 1976.49,1360.3 1978.46,1366.87 
  1980.43,1353.39 1982.4,1342.99 1984.37,1354.12 1986.34,1364.04 1988.31,1358.67 1990.28,1351.85 1992.25,1335.65 1994.22,1333.53 1996.19,1346.37 1998.16,1350.11 
  2000.13,1343.69 2002.1,1347.87 2004.07,1355.13 2006.04,1354.64 2008.01,1356.3 2009.98,1345.86 2011.95,1370.62 2013.93,1355.69 2015.9,1359.97 2017.87,1345.19 
  2019.84,1344.59 2021.81,1339.53 2023.78,1334.48 2025.75,1342.92 2027.72,1351.48 2029.69,1344.13 2031.66,1352.76 2033.63,1356.29 2035.6,1351.09 2037.57,1360.75 
  2039.54,1350.11 2041.51,1352.78 2043.48,1335 2045.45,1324.32 2047.42,1337.38 2049.39,1342.72 2051.36,1340.12 2053.33,1363.19 2055.3,1353.68 2057.27,1357.12 
  2059.24,1366.82 2061.21,1364.54 2063.18,1335.38 2065.15,1352.8 2067.12,1350.59 2069.09,1339.79 2071.06,1349.94 2073.03,1360 2075,1350.83 2076.97,1348.59 
  2078.94,1348.97 2080.92,1361.5 2082.89,1348.55 2084.86,1350.95 2086.83,1357.32 2088.8,1353.49 2090.77,1327.39 2092.74,1340.55 2094.71,1337.97 2096.68,1336.27 
  2098.65,1350.08 2100.62,1354.05 2102.59,1345.95 2104.56,1362.9 2106.53,1375.54 2108.5,1365.45 2110.47,1354.17 2112.44,1357.02 2114.41,1359.74 2116.38,1358.25 
  2118.35,1369.24 2120.32,1349.51 2122.29,1352.06 2124.26,1344.53 2126.23,1333.82 2128.2,1342.68 2130.17,1359.08 2132.14,1353.61 2134.11,1333.16 2136.08,1330.51 
  2138.05,1342.36 2140.02,1333.45 2141.99,1342.08 2143.96,1347.97 2145.93,1347.16 2147.9,1356.79 2149.88,1364.45 2151.85,1359.41 2153.82,1349 2155.79,1345.91 
  2157.76,1353.92 2159.73,1348.04 2161.7,1329.68 2163.67,1335.06 2165.64,1355.52 2167.61,1360.56 2169.58,1346.47 2171.55,1342.55 2173.52,1346.33 2175.49,1345.92 
  2177.46,1367.17 2179.43,1378.43 2181.4,1361.57 2183.37,1329.23 2185.34,1336.13 2187.31,1338.5 2189.28,1342.53 2191.25,1344.43 2193.22,1342.21 2195.19,1362.42 
  2197.16,1353.24 2199.13,1337.01 2201.1,1362.75 2203.07,1362.88 2205.04,1372.25 2207.01,1359.43 2208.98,1350.63 2210.95,1348.02 2212.92,1355.77 2214.89,1361.46 
  2216.87,1369.61 2218.84,1348.46 2220.81,1343.12 2222.78,1346.42 2224.75,1346.05 2226.72,1350.76 2228.69,1357.8 2230.66,1331.2 2232.63,1333 2234.6,1346.28 
  2236.57,1348.62 2238.54,1360.63 2240.51,1358.46 2242.48,1346.3 2244.45,1350.91 2246.42,1380.85 2248.39,1360.54 2250.36,1340.11 2252.33,1358.96 2254.3,1358.72 
  2256.27,1365.72 2258.24,1352.27 2260.21,1352.81 2262.18,1380.14 2264.15,1373.14 2266.12,1353.62 2268.09,1330.12 2270.06,1343.62 2272.03,1350.79 2274,1351.59 
  2275.97,1371.85 2277.94,1368.25 2279.91,1355.77 2281.88,1356.85 2283.85,1358.52 2285.83,1350.64 2287.8,1346.66 2289.77,1354.42 2291.74,1353.95 2293.71,1354.65 
  
  "/>
</svg>
