<?xml version="1.0" encoding="utf-8"?>
<svg xmlns="http://www.w3.org/2000/svg" xmlns:xlink="http://www.w3.org/1999/xlink" width="600" height="400" viewBox="0 0 2400 1600">
<defs>
  <clipPath id="clip620">
    <rect x="0" y="0" width="2400" height="1600"/>
  </clipPath>
</defs>
<path clip-path="url(#clip620)" d="
M0 1600 L2400 1600 L2400 0 L0 0  Z
  " fill="#ffffff" fill-rule="evenodd" fill-opacity="1"/>
<defs>
  <clipPath id="clip621">
    <rect x="480" y="0" width="1681" height="1600"/>
  </clipPath>
</defs>
<defs>
  <clipPath id="clip622">
    <rect x="311" y="123" width="2042" height="1305"/>
  </clipPath>
</defs>
<path clip-path="url(#clip620)" d="
M264.954 1423.18 L2352.76 1423.18 L2352.76 123.472 L264.954 123.472  Z
  " fill="#ffffff" fill-rule="evenodd" fill-opacity="1"/>
<defs>
  <clipPath id="clip623">
    <rect x="264" y="123" width="2089" height="1301"/>
  </clipPath>
</defs>
<polyline clip-path="url(#clip623)" style="stroke:#000000; stroke-width:2; stroke-opacity:0.1; fill:none" points="
  324.043,1423.18 324.043,123.472 
  "/>
<polyline clip-path="url(#clip623)" style="stroke:#000000; stroke-width:2; stroke-opacity:0.1; fill:none" points="
  718.367,1423.18 718.367,123.472 
  "/>
<polyline clip-path="url(#clip623)" style="stroke:#000000; stroke-width:2; stroke-opacity:0.1; fill:none" points="
  1112.69,1423.18 1112.69,123.472 
  "/>
<polyline clip-path="url(#clip623)" style="stroke:#000000; stroke-width:2; stroke-opacity:0.1; fill:none" points="
  1507.01,1423.18 1507.01,123.472 
  "/>
<polyline clip-path="url(#clip623)" style="stroke:#000000; stroke-width:2; stroke-opacity:0.1; fill:none" points="
  1901.34,1423.18 1901.34,123.472 
  "/>
<polyline clip-path="url(#clip623)" style="stroke:#000000; stroke-width:2; stroke-opacity:0.1; fill:none" points="
  2295.66,1423.18 2295.66,123.472 
  "/>
<polyline clip-path="url(#clip620)" style="stroke:#000000; stroke-width:4; stroke-opacity:1; fill:none" points="
  264.954,1423.18 2352.76,1423.18 
  "/>
<polyline clip-path="url(#clip620)" style="stroke:#000000; stroke-width:4; stroke-opacity:1; fill:none" points="
  324.043,1423.18 324.043,1407.58 
  "/>
<polyline clip-path="url(#clip620)" style="stroke:#000000; stroke-width:4; stroke-opacity:1; fill:none" points="
  718.367,1423.18 718.367,1407.58 
  "/>
<polyline clip-path="url(#clip620)" style="stroke:#000000; stroke-width:4; stroke-opacity:1; fill:none" points="
  1112.69,1423.18 1112.69,1407.58 
  "/>
<polyline clip-path="url(#clip620)" style="stroke:#000000; stroke-width:4; stroke-opacity:1; fill:none" points="
  1507.01,1423.18 1507.01,1407.58 
  "/>
<polyline clip-path="url(#clip620)" style="stroke:#000000; stroke-width:4; stroke-opacity:1; fill:none" points="
  1901.34,1423.18 1901.34,1407.58 
  "/>
<polyline clip-path="url(#clip620)" style="stroke:#000000; stroke-width:4; stroke-opacity:1; fill:none" points="
  2295.66,1423.18 2295.66,1407.58 
  "/>
<path clip-path="url(#clip620)" d="M 0 0 M324.043 1452.37 Q320.432 1452.37 318.603 1455.94 Q316.798 1459.48 316.798 1466.61 Q316.798 1473.71 318.603 1477.28 Q320.432 1480.82 324.043 1480.82 Q327.677 1480.82 329.483 1477.28 Q331.312 1473.71 331.312 1466.61 Q331.312 1459.48 329.483 1455.94 Q327.677 1452.37 324.043 1452.37 M324.043 1448.67 Q329.853 1448.67 332.909 1453.27 Q335.987 1457.86 335.987 1466.61 Q335.987 1475.33 332.909 1479.94 Q329.853 1484.52 324.043 1484.52 Q318.233 1484.52 315.154 1479.94 Q312.099 1475.33 312.099 1466.61 Q312.099 1457.86 315.154 1453.27 Q318.233 1448.67 324.043 1448.67 Z" fill="#000000" fill-rule="evenodd" fill-opacity="1" /><path clip-path="url(#clip620)" d="M 0 0 M693.054 1479.92 L700.693 1479.92 L700.693 1453.55 L692.383 1455.22 L692.383 1450.96 L700.647 1449.29 L705.323 1449.29 L705.323 1479.92 L712.962 1479.92 L712.962 1483.85 L693.054 1483.85 L693.054 1479.92 Z" fill="#000000" fill-rule="evenodd" fill-opacity="1" /><path clip-path="url(#clip620)" d="M 0 0 M732.406 1452.37 Q728.795 1452.37 726.966 1455.94 Q725.161 1459.48 725.161 1466.61 Q725.161 1473.71 726.966 1477.28 Q728.795 1480.82 732.406 1480.82 Q736.04 1480.82 737.846 1477.28 Q739.674 1473.71 739.674 1466.61 Q739.674 1459.48 737.846 1455.94 Q736.04 1452.37 732.406 1452.37 M732.406 1448.67 Q738.216 1448.67 741.272 1453.27 Q744.35 1457.86 744.35 1466.61 Q744.35 1475.33 741.272 1479.94 Q738.216 1484.52 732.406 1484.52 Q726.596 1484.52 723.517 1479.94 Q720.461 1475.33 720.461 1466.61 Q720.461 1457.86 723.517 1453.27 Q726.596 1448.67 732.406 1448.67 Z" fill="#000000" fill-rule="evenodd" fill-opacity="1" /><path clip-path="url(#clip620)" d="M 0 0 M1091.46 1479.92 L1107.78 1479.92 L1107.78 1483.85 L1085.84 1483.85 L1085.84 1479.92 Q1088.5 1477.16 1093.08 1472.53 Q1097.69 1467.88 1098.87 1466.54 Q1101.12 1464.01 1102 1462.28 Q1102.9 1460.52 1102.9 1458.83 Q1102.9 1456.07 1100.95 1454.34 Q1099.03 1452.6 1095.93 1452.6 Q1093.73 1452.6 1091.28 1453.37 Q1088.85 1454.13 1086.07 1455.68 L1086.07 1450.96 Q1088.89 1449.82 1091.35 1449.25 Q1093.8 1448.67 1095.84 1448.67 Q1101.21 1448.67 1104.4 1451.35 Q1107.6 1454.04 1107.6 1458.53 Q1107.6 1460.66 1106.79 1462.58 Q1106 1464.48 1103.89 1467.07 Q1103.32 1467.74 1100.21 1470.96 Q1097.11 1474.15 1091.46 1479.92 Z" fill="#000000" fill-rule="evenodd" fill-opacity="1" /><path clip-path="url(#clip620)" d="M 0 0 M1127.6 1452.37 Q1123.99 1452.37 1122.16 1455.94 Q1120.35 1459.48 1120.35 1466.61 Q1120.35 1473.71 1122.16 1477.28 Q1123.99 1480.82 1127.6 1480.82 Q1131.23 1480.82 1133.04 1477.28 Q1134.87 1473.71 1134.87 1466.61 Q1134.87 1459.48 1133.04 1455.94 Q1131.23 1452.37 1127.6 1452.37 M1127.6 1448.67 Q1133.41 1448.67 1136.46 1453.27 Q1139.54 1457.86 1139.54 1466.61 Q1139.54 1475.33 1136.46 1479.94 Q1133.41 1484.52 1127.6 1484.52 Q1121.79 1484.52 1118.71 1479.94 Q1115.65 1475.33 1115.65 1466.61 Q1115.65 1457.86 1118.71 1453.27 Q1121.79 1448.67 1127.6 1448.67 Z" fill="#000000" fill-rule="evenodd" fill-opacity="1" /><path clip-path="url(#clip620)" d="M 0 0 M1495.86 1465.22 Q1499.21 1465.94 1501.09 1468.2 Q1502.99 1470.47 1502.99 1473.81 Q1502.99 1478.92 1499.47 1481.72 Q1495.95 1484.52 1489.47 1484.52 Q1487.29 1484.52 1484.98 1484.08 Q1482.69 1483.67 1480.23 1482.81 L1480.23 1478.3 Q1482.18 1479.43 1484.49 1480.01 Q1486.81 1480.59 1489.33 1480.59 Q1493.73 1480.59 1496.02 1478.85 Q1498.33 1477.12 1498.33 1473.81 Q1498.33 1470.75 1496.18 1469.04 Q1494.05 1467.3 1490.23 1467.3 L1486.2 1467.3 L1486.2 1463.46 L1490.42 1463.46 Q1493.87 1463.46 1495.69 1462.09 Q1497.52 1460.7 1497.52 1458.11 Q1497.52 1455.45 1495.62 1454.04 Q1493.75 1452.6 1490.23 1452.6 Q1488.31 1452.6 1486.11 1453.02 Q1483.91 1453.44 1481.27 1454.31 L1481.27 1450.15 Q1483.94 1449.41 1486.25 1449.04 Q1488.59 1448.67 1490.65 1448.67 Q1495.97 1448.67 1499.07 1451.1 Q1502.18 1453.5 1502.18 1457.63 Q1502.18 1460.5 1500.53 1462.49 Q1498.89 1464.45 1495.86 1465.22 Z" fill="#000000" fill-rule="evenodd" fill-opacity="1" /><path clip-path="url(#clip620)" d="M 0 0 M1521.85 1452.37 Q1518.24 1452.37 1516.41 1455.94 Q1514.61 1459.48 1514.61 1466.61 Q1514.61 1473.71 1516.41 1477.28 Q1518.24 1480.82 1521.85 1480.82 Q1525.49 1480.82 1527.29 1477.28 Q1529.12 1473.71 1529.12 1466.61 Q1529.12 1459.48 1527.29 1455.94 Q1525.49 1452.37 1521.85 1452.37 M1521.85 1448.67 Q1527.66 1448.67 1530.72 1453.27 Q1533.8 1457.86 1533.8 1466.61 Q1533.8 1475.33 1530.72 1479.94 Q1527.66 1484.52 1521.85 1484.52 Q1516.04 1484.52 1512.96 1479.94 Q1509.91 1475.33 1509.91 1466.61 Q1509.91 1457.86 1512.96 1453.27 Q1516.04 1448.67 1521.85 1448.67 Z" fill="#000000" fill-rule="evenodd" fill-opacity="1" /><path clip-path="url(#clip620)" d="M 0 0 M1889.51 1453.37 L1877.7 1471.81 L1889.51 1471.81 L1889.51 1453.37 M1888.28 1449.29 L1894.16 1449.29 L1894.16 1471.81 L1899.09 1471.81 L1899.09 1475.7 L1894.16 1475.7 L1894.16 1483.85 L1889.51 1483.85 L1889.51 1475.7 L1873.91 1475.7 L1873.91 1471.19 L1888.28 1449.29 Z" fill="#000000" fill-rule="evenodd" fill-opacity="1" /><path clip-path="url(#clip620)" d="M 0 0 M1916.82 1452.37 Q1913.21 1452.37 1911.38 1455.94 Q1909.58 1459.48 1909.58 1466.61 Q1909.58 1473.71 1911.38 1477.28 Q1913.21 1480.82 1916.82 1480.82 Q1920.46 1480.82 1922.26 1477.28 Q1924.09 1473.71 1924.09 1466.61 Q1924.09 1459.48 1922.26 1455.94 Q1920.46 1452.37 1916.82 1452.37 M1916.82 1448.67 Q1922.63 1448.67 1925.69 1453.27 Q1928.77 1457.86 1928.77 1466.61 Q1928.77 1475.33 1925.69 1479.94 Q1922.63 1484.52 1916.82 1484.52 Q1911.01 1484.52 1907.93 1479.94 Q1904.88 1475.33 1904.88 1466.61 Q1904.88 1457.86 1907.93 1453.27 Q1911.01 1448.67 1916.82 1448.67 Z" fill="#000000" fill-rule="evenodd" fill-opacity="1" /><path clip-path="url(#clip620)" d="M 0 0 M2270.36 1449.29 L2288.72 1449.29 L2288.72 1453.23 L2274.64 1453.23 L2274.64 1461.7 Q2275.66 1461.35 2276.68 1461.19 Q2277.7 1461 2278.72 1461 Q2284.5 1461 2287.88 1464.18 Q2291.26 1467.35 2291.26 1472.76 Q2291.26 1478.34 2287.79 1481.44 Q2284.32 1484.52 2278 1484.52 Q2275.82 1484.52 2273.55 1484.15 Q2271.31 1483.78 2268.9 1483.04 L2268.9 1478.34 Q2270.98 1479.48 2273.21 1480.03 Q2275.43 1480.59 2277.91 1480.59 Q2281.91 1480.59 2284.25 1478.48 Q2286.59 1476.38 2286.59 1472.76 Q2286.59 1469.15 2284.25 1467.05 Q2281.91 1464.94 2277.91 1464.94 Q2276.03 1464.94 2274.16 1465.36 Q2272.3 1465.77 2270.36 1466.65 L2270.36 1449.29 Z" fill="#000000" fill-rule="evenodd" fill-opacity="1" /><path clip-path="url(#clip620)" d="M 0 0 M2310.48 1452.37 Q2306.86 1452.37 2305.04 1455.94 Q2303.23 1459.48 2303.23 1466.61 Q2303.23 1473.71 2305.04 1477.28 Q2306.86 1480.82 2310.48 1480.82 Q2314.11 1480.82 2315.92 1477.28 Q2317.74 1473.71 2317.74 1466.61 Q2317.74 1459.48 2315.92 1455.94 Q2314.11 1452.37 2310.48 1452.37 M2310.48 1448.67 Q2316.29 1448.67 2319.34 1453.27 Q2322.42 1457.86 2322.42 1466.61 Q2322.42 1475.33 2319.34 1479.94 Q2316.29 1484.52 2310.48 1484.52 Q2304.67 1484.52 2301.59 1479.94 Q2298.53 1475.33 2298.53 1466.61 Q2298.53 1457.86 2301.59 1453.27 Q2304.67 1448.67 2310.48 1448.67 Z" fill="#000000" fill-rule="evenodd" fill-opacity="1" /><path clip-path="url(#clip620)" d="M 0 0 M1068.96 1518.52 L1068.96 1523.39 L1063.36 1523.39 Q1060.21 1523.39 1058.97 1524.66 Q1057.76 1525.93 1057.76 1529.24 L1057.76 1532.4 L1067.4 1532.4 L1067.4 1536.95 L1057.76 1536.95 L1057.76 1568.04 L1051.87 1568.04 L1051.87 1536.95 L1046.27 1536.95 L1046.27 1532.4 L1051.87 1532.4 L1051.87 1529.91 Q1051.87 1523.96 1054.64 1521.26 Q1057.41 1518.52 1063.43 1518.52 L1068.96 1518.52 Z" fill="#000000" fill-rule="evenodd" fill-opacity="1" /><path clip-path="url(#clip620)" d="M 0 0 M1094.52 1537.87 Q1093.54 1537.3 1092.36 1537.04 Q1091.21 1536.76 1089.81 1536.76 Q1084.85 1536.76 1082.17 1540 Q1079.53 1543.22 1079.53 1549.27 L1079.53 1568.04 L1073.64 1568.04 L1073.64 1532.4 L1079.53 1532.4 L1079.53 1537.93 Q1081.38 1534.69 1084.34 1533.13 Q1087.3 1531.54 1091.53 1531.54 Q1092.13 1531.54 1092.87 1531.63 Q1093.6 1531.7 1094.49 1531.85 L1094.52 1537.87 Z" fill="#000000" fill-rule="evenodd" fill-opacity="1" /><path clip-path="url(#clip620)" d="M 0 0 M1129.72 1548.76 L1129.72 1551.62 L1102.8 1551.62 Q1103.18 1557.67 1106.43 1560.85 Q1109.7 1564 1115.53 1564 Q1118.9 1564 1122.05 1563.17 Q1125.24 1562.35 1128.36 1560.69 L1128.36 1566.23 Q1125.2 1567.57 1121.89 1568.27 Q1118.58 1568.97 1115.18 1568.97 Q1106.65 1568.97 1101.65 1564 Q1096.69 1559.04 1096.69 1550.57 Q1096.69 1541.82 1101.4 1536.69 Q1106.14 1531.54 1114.16 1531.54 Q1121.35 1531.54 1125.52 1536.18 Q1129.72 1540.8 1129.72 1548.76 M1123.87 1547.04 Q1123.8 1542.23 1121.16 1539.37 Q1118.55 1536.5 1114.22 1536.5 Q1109.32 1536.5 1106.36 1539.27 Q1103.43 1542.04 1102.99 1547.07 L1123.87 1547.04 Z" fill="#000000" fill-rule="evenodd" fill-opacity="1" /><path clip-path="url(#clip620)" d="M 0 0 M1142.84 1550.25 Q1142.84 1556.71 1145.48 1560.4 Q1148.15 1564.07 1152.8 1564.07 Q1157.45 1564.07 1160.12 1560.4 Q1162.79 1556.71 1162.79 1550.25 Q1162.79 1543.79 1160.12 1540.13 Q1157.45 1536.44 1152.8 1536.44 Q1148.15 1536.44 1145.48 1540.13 Q1142.84 1543.79 1142.84 1550.25 M1162.79 1562.7 Q1160.95 1565.88 1158.12 1567.44 Q1155.31 1568.97 1151.37 1568.97 Q1144.91 1568.97 1140.83 1563.81 Q1136.79 1558.65 1136.79 1550.25 Q1136.79 1541.85 1140.83 1536.69 Q1144.91 1531.54 1151.37 1531.54 Q1155.31 1531.54 1158.12 1533.1 Q1160.95 1534.62 1162.79 1537.81 L1162.79 1532.4 L1168.65 1532.4 L1168.65 1581.6 L1162.79 1581.6 L1162.79 1562.7 Z" fill="#000000" fill-rule="evenodd" fill-opacity="1" /><path clip-path="url(#clip620)" d="M 0 0 M1180.11 1553.98 L1180.11 1532.4 L1185.97 1532.4 L1185.97 1553.75 Q1185.97 1558.81 1187.94 1561.36 Q1189.91 1563.87 1193.86 1563.87 Q1198.6 1563.87 1201.34 1560.85 Q1204.11 1557.83 1204.11 1552.61 L1204.11 1532.4 L1209.96 1532.4 L1209.96 1568.04 L1204.11 1568.04 L1204.11 1562.57 Q1201.97 1565.82 1199.14 1567.41 Q1196.34 1568.97 1192.62 1568.97 Q1186.47 1568.97 1183.29 1565.15 Q1180.11 1561.33 1180.11 1553.98 M1194.85 1531.54 L1194.85 1531.54 Z" fill="#000000" fill-rule="evenodd" fill-opacity="1" /><path clip-path="url(#clip620)" d="M 0 0 M1252.52 1548.76 L1252.52 1551.62 L1225.59 1551.62 Q1225.97 1557.67 1229.22 1560.85 Q1232.5 1564 1238.32 1564 Q1241.7 1564 1244.85 1563.17 Q1248.03 1562.35 1251.15 1560.69 L1251.15 1566.23 Q1248 1567.57 1244.69 1568.27 Q1241.38 1568.97 1237.97 1568.97 Q1229.44 1568.97 1224.45 1564 Q1219.48 1559.04 1219.48 1550.57 Q1219.48 1541.82 1224.19 1536.69 Q1228.93 1531.54 1236.95 1531.54 Q1244.15 1531.54 1248.32 1536.18 Q1252.52 1540.8 1252.52 1548.76 M1246.66 1547.04 Q1246.6 1542.23 1243.96 1539.37 Q1241.35 1536.5 1237.02 1536.5 Q1232.12 1536.5 1229.16 1539.27 Q1226.23 1542.04 1225.78 1547.07 L1246.66 1547.04 Z" fill="#000000" fill-rule="evenodd" fill-opacity="1" /><path clip-path="url(#clip620)" d="M 0 0 M1291.76 1546.53 L1291.76 1568.04 L1285.91 1568.04 L1285.91 1546.72 Q1285.91 1541.66 1283.93 1539.14 Q1281.96 1536.63 1278.01 1536.63 Q1273.27 1536.63 1270.53 1539.65 Q1267.8 1542.68 1267.8 1547.9 L1267.8 1568.04 L1261.91 1568.04 L1261.91 1532.4 L1267.8 1532.4 L1267.8 1537.93 Q1269.9 1534.72 1272.73 1533.13 Q1275.59 1531.54 1279.32 1531.54 Q1285.46 1531.54 1288.61 1535.36 Q1291.76 1539.14 1291.76 1546.53 Z" fill="#000000" fill-rule="evenodd" fill-opacity="1" /><path clip-path="url(#clip620)" d="M 0 0 M1329.1 1533.76 L1329.1 1539.24 Q1326.62 1537.87 1324.1 1537.2 Q1321.62 1536.5 1319.07 1536.5 Q1313.37 1536.5 1310.22 1540.13 Q1307.07 1543.73 1307.07 1550.25 Q1307.07 1556.78 1310.22 1560.4 Q1313.37 1564 1319.07 1564 Q1321.62 1564 1324.1 1563.33 Q1326.62 1562.63 1329.1 1561.26 L1329.1 1566.68 Q1326.65 1567.82 1324.01 1568.39 Q1321.4 1568.97 1318.44 1568.97 Q1310.38 1568.97 1305.64 1563.91 Q1300.9 1558.85 1300.9 1550.25 Q1300.9 1541.53 1305.67 1536.53 Q1310.48 1531.54 1318.82 1531.54 Q1321.52 1531.54 1324.1 1532.11 Q1326.68 1532.65 1329.1 1533.76 Z" fill="#000000" fill-rule="evenodd" fill-opacity="1" /><path clip-path="url(#clip620)" d="M 0 0 M1354.12 1571.35 Q1351.63 1577.72 1349.28 1579.66 Q1346.92 1581.6 1342.98 1581.6 L1338.3 1581.6 L1338.3 1576.7 L1341.73 1576.7 Q1344.15 1576.7 1345.49 1575.56 Q1346.83 1574.41 1348.45 1570.14 L1349.5 1567.47 L1335.08 1532.4 L1341.29 1532.4 L1352.43 1560.28 L1363.57 1532.4 L1369.77 1532.4 L1354.12 1571.35 Z" fill="#000000" fill-rule="evenodd" fill-opacity="1" /><path clip-path="url(#clip620)" d="M 0 0 M1412.65 1518.58 Q1408.38 1525.9 1406.31 1533.06 Q1404.25 1540.23 1404.25 1547.58 Q1404.25 1554.93 1406.31 1562.16 Q1408.41 1569.35 1412.65 1576.64 L1407.56 1576.64 Q1402.78 1569.16 1400.39 1561.93 Q1398.04 1554.71 1398.04 1547.58 Q1398.04 1540.48 1400.39 1533.29 Q1402.75 1526.09 1407.56 1518.58 L1412.65 1518.58 Z" fill="#000000" fill-rule="evenodd" fill-opacity="1" /><path clip-path="url(#clip620)" d="M 0 0 M1456.67 1561.26 L1456.67 1548.5 L1446.16 1548.5 L1446.16 1543.22 L1463.03 1543.22 L1463.03 1563.62 Q1459.31 1566.26 1454.82 1567.63 Q1450.33 1568.97 1445.24 1568.97 Q1434.1 1568.97 1427.8 1562.47 Q1421.53 1555.95 1421.53 1544.33 Q1421.53 1532.68 1427.8 1526.19 Q1434.1 1519.66 1445.24 1519.66 Q1449.89 1519.66 1454.06 1520.81 Q1458.26 1521.96 1461.79 1524.18 L1461.79 1531.03 Q1458.23 1528 1454.22 1526.48 Q1450.21 1524.95 1445.78 1524.95 Q1437.06 1524.95 1432.67 1529.82 Q1428.31 1534.69 1428.31 1544.33 Q1428.31 1553.94 1432.67 1558.81 Q1437.06 1563.68 1445.78 1563.68 Q1449.19 1563.68 1451.86 1563.11 Q1454.53 1562.51 1456.67 1561.26 Z" fill="#000000" fill-rule="evenodd" fill-opacity="1" /><path clip-path="url(#clip620)" d="M 0 0 M1474.78 1520.52 L1481.21 1520.52 L1481.21 1540 L1504.57 1540 L1504.57 1520.52 L1511 1520.52 L1511 1568.04 L1504.57 1568.04 L1504.57 1545.41 L1481.21 1545.41 L1481.21 1568.04 L1474.78 1568.04 L1474.78 1520.52 Z" fill="#000000" fill-rule="evenodd" fill-opacity="1" /><path clip-path="url(#clip620)" d="M 0 0 M1520.99 1532.4 L1548.81 1532.4 L1548.81 1537.74 L1526.79 1563.37 L1548.81 1563.37 L1548.81 1568.04 L1520.2 1568.04 L1520.2 1562.7 L1542.22 1537.07 L1520.99 1537.07 L1520.99 1532.4 Z" fill="#000000" fill-rule="evenodd" fill-opacity="1" /><path clip-path="url(#clip620)" d="M 0 0 M1556.83 1518.58 L1561.92 1518.58 Q1566.7 1526.09 1569.05 1533.29 Q1571.44 1540.48 1571.44 1547.58 Q1571.44 1554.71 1569.05 1561.93 Q1566.7 1569.16 1561.92 1576.64 L1556.83 1576.64 Q1561.06 1569.35 1563.13 1562.16 Q1565.23 1554.93 1565.23 1547.58 Q1565.23 1540.23 1563.13 1533.06 Q1561.06 1525.9 1556.83 1518.58 Z" fill="#000000" fill-rule="evenodd" fill-opacity="1" /><polyline clip-path="url(#clip623)" style="stroke:#000000; stroke-width:2; stroke-opacity:0.1; fill:none" points="
  264.954,1386.4 2352.76,1386.4 
  "/>
<polyline clip-path="url(#clip623)" style="stroke:#000000; stroke-width:2; stroke-opacity:0.1; fill:none" points="
  264.954,1079.86 2352.76,1079.86 
  "/>
<polyline clip-path="url(#clip623)" style="stroke:#000000; stroke-width:2; stroke-opacity:0.1; fill:none" points="
  264.954,773.326 2352.76,773.326 
  "/>
<polyline clip-path="url(#clip623)" style="stroke:#000000; stroke-width:2; stroke-opacity:0.1; fill:none" points="
  264.954,466.791 2352.76,466.791 
  "/>
<polyline clip-path="url(#clip623)" style="stroke:#000000; stroke-width:2; stroke-opacity:0.1; fill:none" points="
  264.954,160.256 2352.76,160.256 
  "/>
<polyline clip-path="url(#clip620)" style="stroke:#000000; stroke-width:4; stroke-opacity:1; fill:none" points="
  264.954,1423.18 264.954,123.472 
  "/>
<polyline clip-path="url(#clip620)" style="stroke:#000000; stroke-width:4; stroke-opacity:1; fill:none" points="
  264.954,1386.4 290.008,1386.4 
  "/>
<polyline clip-path="url(#clip620)" style="stroke:#000000; stroke-width:4; stroke-opacity:1; fill:none" points="
  264.954,1079.86 290.008,1079.86 
  "/>
<polyline clip-path="url(#clip620)" style="stroke:#000000; stroke-width:4; stroke-opacity:1; fill:none" points="
  264.954,773.326 290.008,773.326 
  "/>
<polyline clip-path="url(#clip620)" style="stroke:#000000; stroke-width:4; stroke-opacity:1; fill:none" points="
  264.954,466.791 290.008,466.791 
  "/>
<polyline clip-path="url(#clip620)" style="stroke:#000000; stroke-width:4; stroke-opacity:1; fill:none" points="
  264.954,160.256 290.008,160.256 
  "/>
<path clip-path="url(#clip620)" d="M 0 0 M141.617 1372.19 Q138.006 1372.19 136.177 1375.76 Q134.371 1379.3 134.371 1386.43 Q134.371 1393.54 136.177 1397.1 Q138.006 1400.64 141.617 1400.64 Q145.251 1400.64 147.057 1397.1 Q148.885 1393.54 148.885 1386.43 Q148.885 1379.3 147.057 1375.76 Q145.251 1372.19 141.617 1372.19 M141.617 1368.49 Q147.427 1368.49 150.483 1373.1 Q153.561 1377.68 153.561 1386.43 Q153.561 1395.16 150.483 1399.76 Q147.427 1404.35 141.617 1404.35 Q135.807 1404.35 132.728 1399.76 Q129.672 1395.16 129.672 1386.43 Q129.672 1377.68 132.728 1373.1 Q135.807 1368.49 141.617 1368.49 Z" fill="#000000" fill-rule="evenodd" fill-opacity="1" /><path clip-path="url(#clip620)" d="M 0 0 M161.779 1397.8 L166.663 1397.8 L166.663 1403.68 L161.779 1403.68 L161.779 1397.8 Z" fill="#000000" fill-rule="evenodd" fill-opacity="1" /><path clip-path="url(#clip620)" d="M 0 0 M186.848 1372.19 Q183.237 1372.19 181.408 1375.76 Q179.603 1379.3 179.603 1386.43 Q179.603 1393.54 181.408 1397.1 Q183.237 1400.64 186.848 1400.64 Q190.482 1400.64 192.288 1397.1 Q194.117 1393.54 194.117 1386.43 Q194.117 1379.3 192.288 1375.76 Q190.482 1372.19 186.848 1372.19 M186.848 1368.49 Q192.658 1368.49 195.714 1373.1 Q198.792 1377.68 198.792 1386.43 Q198.792 1395.16 195.714 1399.76 Q192.658 1404.35 186.848 1404.35 Q181.038 1404.35 177.959 1399.76 Q174.904 1395.16 174.904 1386.43 Q174.904 1377.68 177.959 1373.1 Q181.038 1368.49 186.848 1368.49 Z" fill="#000000" fill-rule="evenodd" fill-opacity="1" /><path clip-path="url(#clip620)" d="M 0 0 M217.01 1372.19 Q213.399 1372.19 211.57 1375.76 Q209.765 1379.3 209.765 1386.43 Q209.765 1393.54 211.57 1397.1 Q213.399 1400.64 217.01 1400.64 Q220.644 1400.64 222.45 1397.1 Q224.278 1393.54 224.278 1386.43 Q224.278 1379.3 222.45 1375.76 Q220.644 1372.19 217.01 1372.19 M217.01 1368.49 Q222.82 1368.49 225.876 1373.1 Q228.954 1377.68 228.954 1386.43 Q228.954 1395.16 225.876 1399.76 Q222.82 1404.35 217.01 1404.35 Q211.2 1404.35 208.121 1399.76 Q205.066 1395.16 205.066 1386.43 Q205.066 1377.68 208.121 1373.1 Q211.2 1368.49 217.01 1368.49 Z" fill="#000000" fill-rule="evenodd" fill-opacity="1" /><path clip-path="url(#clip620)" d="M 0 0 M142.612 1065.66 Q139.001 1065.66 137.172 1069.22 Q135.367 1072.77 135.367 1079.9 Q135.367 1087 137.172 1090.57 Q139.001 1094.11 142.612 1094.11 Q146.246 1094.11 148.052 1090.57 Q149.881 1087 149.881 1079.9 Q149.881 1072.77 148.052 1069.22 Q146.246 1065.66 142.612 1065.66 M142.612 1061.96 Q148.422 1061.96 151.478 1066.56 Q154.557 1071.15 154.557 1079.9 Q154.557 1088.62 151.478 1093.23 Q148.422 1097.81 142.612 1097.81 Q136.802 1097.81 133.723 1093.23 Q130.668 1088.62 130.668 1079.9 Q130.668 1071.15 133.723 1066.56 Q136.802 1061.96 142.612 1061.96 Z" fill="#000000" fill-rule="evenodd" fill-opacity="1" /><path clip-path="url(#clip620)" d="M 0 0 M162.774 1091.26 L167.658 1091.26 L167.658 1097.14 L162.774 1097.14 L162.774 1091.26 Z" fill="#000000" fill-rule="evenodd" fill-opacity="1" /><path clip-path="url(#clip620)" d="M 0 0 M181.871 1093.21 L198.191 1093.21 L198.191 1097.14 L176.246 1097.14 L176.246 1093.21 Q178.908 1090.45 183.492 1085.82 Q188.098 1081.17 189.279 1079.83 Q191.524 1077.3 192.404 1075.57 Q193.306 1073.81 193.306 1072.12 Q193.306 1069.36 191.362 1067.63 Q189.441 1065.89 186.339 1065.89 Q184.14 1065.89 181.686 1066.65 Q179.256 1067.42 176.478 1068.97 L176.478 1064.25 Q179.302 1063.11 181.756 1062.53 Q184.209 1061.96 186.246 1061.96 Q191.617 1061.96 194.811 1064.64 Q198.005 1067.33 198.005 1071.82 Q198.005 1073.95 197.195 1075.87 Q196.408 1077.77 194.302 1080.36 Q193.723 1081.03 190.621 1084.25 Q187.519 1087.44 181.871 1093.21 Z" fill="#000000" fill-rule="evenodd" fill-opacity="1" /><path clip-path="url(#clip620)" d="M 0 0 M208.052 1062.58 L226.408 1062.58 L226.408 1066.52 L212.334 1066.52 L212.334 1074.99 Q213.353 1074.64 214.371 1074.48 Q215.39 1074.29 216.408 1074.29 Q222.195 1074.29 225.575 1077.47 Q228.954 1080.64 228.954 1086.05 Q228.954 1091.63 225.482 1094.73 Q222.01 1097.81 215.691 1097.81 Q213.515 1097.81 211.246 1097.44 Q209.001 1097.07 206.593 1096.33 L206.593 1091.63 Q208.677 1092.77 210.899 1093.32 Q213.121 1093.88 215.598 1093.88 Q219.603 1093.88 221.94 1091.77 Q224.278 1089.66 224.278 1086.05 Q224.278 1082.44 221.94 1080.34 Q219.603 1078.23 215.598 1078.23 Q213.723 1078.23 211.848 1078.65 Q209.996 1079.06 208.052 1079.94 L208.052 1062.58 Z" fill="#000000" fill-rule="evenodd" fill-opacity="1" /><path clip-path="url(#clip620)" d="M 0 0 M141.617 759.125 Q138.006 759.125 136.177 762.689 Q134.371 766.231 134.371 773.361 Q134.371 780.467 136.177 784.032 Q138.006 787.574 141.617 787.574 Q145.251 787.574 147.057 784.032 Q148.885 780.467 148.885 773.361 Q148.885 766.231 147.057 762.689 Q145.251 759.125 141.617 759.125 M141.617 755.421 Q147.427 755.421 150.483 760.027 Q153.561 764.611 153.561 773.361 Q153.561 782.088 150.483 786.694 Q147.427 791.277 141.617 791.277 Q135.807 791.277 132.728 786.694 Q129.672 782.088 129.672 773.361 Q129.672 764.611 132.728 760.027 Q135.807 755.421 141.617 755.421 Z" fill="#000000" fill-rule="evenodd" fill-opacity="1" /><path clip-path="url(#clip620)" d="M 0 0 M161.779 784.726 L166.663 784.726 L166.663 790.606 L161.779 790.606 L161.779 784.726 Z" fill="#000000" fill-rule="evenodd" fill-opacity="1" /><path clip-path="url(#clip620)" d="M 0 0 M176.894 756.046 L195.251 756.046 L195.251 759.981 L181.177 759.981 L181.177 768.453 Q182.195 768.106 183.214 767.944 Q184.232 767.759 185.251 767.759 Q191.038 767.759 194.417 770.93 Q197.797 774.101 197.797 779.518 Q197.797 785.097 194.325 788.199 Q190.853 791.277 184.533 791.277 Q182.357 791.277 180.089 790.907 Q177.843 790.537 175.436 789.796 L175.436 785.097 Q177.519 786.231 179.742 786.787 Q181.964 787.342 184.441 787.342 Q188.445 787.342 190.783 785.236 Q193.121 783.129 193.121 779.518 Q193.121 775.907 190.783 773.801 Q188.445 771.694 184.441 771.694 Q182.566 771.694 180.691 772.111 Q178.839 772.527 176.894 773.407 L176.894 756.046 Z" fill="#000000" fill-rule="evenodd" fill-opacity="1" /><path clip-path="url(#clip620)" d="M 0 0 M217.01 759.125 Q213.399 759.125 211.57 762.689 Q209.765 766.231 209.765 773.361 Q209.765 780.467 211.57 784.032 Q213.399 787.574 217.01 787.574 Q220.644 787.574 222.45 784.032 Q224.278 780.467 224.278 773.361 Q224.278 766.231 222.45 762.689 Q220.644 759.125 217.01 759.125 M217.01 755.421 Q222.82 755.421 225.876 760.027 Q228.954 764.611 228.954 773.361 Q228.954 782.088 225.876 786.694 Q222.82 791.277 217.01 791.277 Q211.2 791.277 208.121 786.694 Q205.066 782.088 205.066 773.361 Q205.066 764.611 208.121 760.027 Q211.2 755.421 217.01 755.421 Z" fill="#000000" fill-rule="evenodd" fill-opacity="1" /><path clip-path="url(#clip620)" d="M 0 0 M142.612 452.59 Q139.001 452.59 137.172 456.155 Q135.367 459.696 135.367 466.826 Q135.367 473.932 137.172 477.497 Q139.001 481.039 142.612 481.039 Q146.246 481.039 148.052 477.497 Q149.881 473.932 149.881 466.826 Q149.881 459.696 148.052 456.155 Q146.246 452.59 142.612 452.59 M142.612 448.886 Q148.422 448.886 151.478 453.493 Q154.557 458.076 154.557 466.826 Q154.557 475.553 151.478 480.159 Q148.422 484.742 142.612 484.742 Q136.802 484.742 133.723 480.159 Q130.668 475.553 130.668 466.826 Q130.668 458.076 133.723 453.493 Q136.802 448.886 142.612 448.886 Z" fill="#000000" fill-rule="evenodd" fill-opacity="1" /><path clip-path="url(#clip620)" d="M 0 0 M162.774 478.192 L167.658 478.192 L167.658 484.071 L162.774 484.071 L162.774 478.192 Z" fill="#000000" fill-rule="evenodd" fill-opacity="1" /><path clip-path="url(#clip620)" d="M 0 0 M176.663 449.511 L198.885 449.511 L198.885 451.502 L186.339 484.071 L181.455 484.071 L193.26 453.446 L176.663 453.446 L176.663 449.511 Z" fill="#000000" fill-rule="evenodd" fill-opacity="1" /><path clip-path="url(#clip620)" d="M 0 0 M208.052 449.511 L226.408 449.511 L226.408 453.446 L212.334 453.446 L212.334 461.918 Q213.353 461.571 214.371 461.409 Q215.39 461.224 216.408 461.224 Q222.195 461.224 225.575 464.395 Q228.954 467.567 228.954 472.983 Q228.954 478.562 225.482 481.664 Q222.01 484.742 215.691 484.742 Q213.515 484.742 211.246 484.372 Q209.001 484.002 206.593 483.261 L206.593 478.562 Q208.677 479.696 210.899 480.252 Q213.121 480.807 215.598 480.807 Q219.603 480.807 221.94 478.701 Q224.278 476.594 224.278 472.983 Q224.278 469.372 221.94 467.266 Q219.603 465.159 215.598 465.159 Q213.723 465.159 211.848 465.576 Q209.996 465.993 208.052 466.872 L208.052 449.511 Z" fill="#000000" fill-rule="evenodd" fill-opacity="1" /><path clip-path="url(#clip620)" d="M 0 0 M132.427 173.601 L140.066 173.601 L140.066 147.236 L131.756 148.902 L131.756 144.643 L140.02 142.976 L144.696 142.976 L144.696 173.601 L152.334 173.601 L152.334 177.536 L132.427 177.536 L132.427 173.601 Z" fill="#000000" fill-rule="evenodd" fill-opacity="1" /><path clip-path="url(#clip620)" d="M 0 0 M161.779 171.657 L166.663 171.657 L166.663 177.536 L161.779 177.536 L161.779 171.657 Z" fill="#000000" fill-rule="evenodd" fill-opacity="1" /><path clip-path="url(#clip620)" d="M 0 0 M186.848 146.055 Q183.237 146.055 181.408 149.62 Q179.603 153.161 179.603 160.291 Q179.603 167.397 181.408 170.962 Q183.237 174.504 186.848 174.504 Q190.482 174.504 192.288 170.962 Q194.117 167.397 194.117 160.291 Q194.117 153.161 192.288 149.62 Q190.482 146.055 186.848 146.055 M186.848 142.351 Q192.658 142.351 195.714 146.958 Q198.792 151.541 198.792 160.291 Q198.792 169.018 195.714 173.624 Q192.658 178.208 186.848 178.208 Q181.038 178.208 177.959 173.624 Q174.904 169.018 174.904 160.291 Q174.904 151.541 177.959 146.958 Q181.038 142.351 186.848 142.351 Z" fill="#000000" fill-rule="evenodd" fill-opacity="1" /><path clip-path="url(#clip620)" d="M 0 0 M217.01 146.055 Q213.399 146.055 211.57 149.62 Q209.765 153.161 209.765 160.291 Q209.765 167.397 211.57 170.962 Q213.399 174.504 217.01 174.504 Q220.644 174.504 222.45 170.962 Q224.278 167.397 224.278 160.291 Q224.278 153.161 222.45 149.62 Q220.644 146.055 217.01 146.055 M217.01 142.351 Q222.82 142.351 225.876 146.958 Q228.954 151.541 228.954 160.291 Q228.954 169.018 225.876 173.624 Q222.82 178.208 217.01 178.208 Q211.2 178.208 208.121 173.624 Q205.066 169.018 205.066 160.291 Q205.066 151.541 208.121 146.958 Q211.2 142.351 217.01 142.351 Z" fill="#000000" fill-rule="evenodd" fill-opacity="1" /><path clip-path="url(#clip620)" d="M 0 0 M49.6875 837.926 L50.6118 838.49 Q49.1013 841.984 46.6891 846.335 Q49.1013 850.686 50.6118 854.181 L49.6875 854.722 Q46.3735 850.912 43.826 846.335 Q46.396 841.714 49.6875 837.926 Z" fill="#000000" fill-rule="evenodd" fill-opacity="1" /><path clip-path="url(#clip620)" d="M 0 0 M60.7296 835.341 Q60.7618 835.341 61.9212 835.534 L91.1964 842.877 Q92.7423 843.263 94.2881 844.358 Q95.8662 845.421 97.2189 847.128 Q98.6037 848.803 99.4411 851.379 Q100.311 853.924 100.311 856.854 Q100.311 861.524 99.3122 863.585 Q98.3461 865.614 96.2849 865.614 Q94.4814 865.614 93.4508 864.487 Q92.4524 863.36 92.4524 862.072 Q92.4524 860.848 93.1609 860.204 Q93.8695 859.56 94.7712 859.56 Q95.7696 859.56 96.768 860.236 Q97.7986 860.912 98.185 862.265 Q98.8614 860.107 98.8614 856.983 Q98.8614 850.381 91.8727 847.547 Q91.7761 847.482 91.7439 847.482 L83.0161 845.292 L82.9517 845.389 Q83.5958 845.936 84.3365 846.806 Q85.0451 847.643 85.9146 849.447 Q86.7842 851.25 86.7842 853.022 Q86.7842 856.725 83.9501 859.27 Q81.0837 861.782 76.3495 861.782 Q72.9034 861.782 69.4574 860.397 Q65.9792 858.98 63.4349 856.79 Q60.8584 854.568 59.2482 851.734 Q57.6379 848.867 57.6379 846.098 Q57.6379 844.165 58.7973 842.523 Q59.9245 840.88 61.7924 839.978 Q60.2465 839.817 59.6024 838.948 Q58.9583 838.046 58.9583 837.273 Q58.9583 836.404 59.4414 835.888 Q59.8923 835.341 60.7296 835.341 M64.7554 840.751 Q64.5621 840.751 64.0468 840.88 Q63.4993 841.009 62.6298 841.395 Q61.7602 841.75 60.9873 842.297 Q60.2143 842.845 59.6668 843.843 Q59.0871 844.809 59.0871 846.033 Q59.0871 848.03 60.7618 850.027 Q62.4043 852.023 64.9486 853.408 Q67.3962 854.696 72.1305 855.92 Q76.8648 857.112 79.2802 857.112 Q81.6634 857.112 83.4992 856.081 Q85.3349 855.051 85.3349 852.829 Q85.3349 850.252 82.9517 847.482 Q80.4718 844.616 78.3462 844.133 L65.7537 840.945 Q64.9808 840.751 64.7554 840.751 Z" fill="#000000" fill-rule="evenodd" fill-opacity="1" /><path clip-path="url(#clip620)" d="M 0 0 M31.4713 827.305 Q23.671 827.305 17.3812 824.397 Q14.7436 823.157 12.5342 821.421 Q10.3249 819.685 9.35551 818.535 Q8.38611 817.386 8.38611 817.07 Q8.38611 816.619 8.837 816.597 Q9.06244 816.597 9.62604 817.205 Q17.2009 824.645 31.4713 824.622 Q45.7868 824.622 53.0685 817.386 Q53.8576 816.597 54.1056 816.597 Q54.5564 816.597 54.5564 817.07 Q54.5564 817.386 53.6321 818.49 Q52.7078 819.595 50.5887 821.308 Q48.4695 823.022 45.877 824.262 Q39.5872 827.305 31.4713 827.305 Z" fill="#000000" fill-rule="evenodd" fill-opacity="1" /><path clip-path="url(#clip620)" d="M 0 0 M43.0139 809.576 Q42.1797 809.576 41.9317 809.508 Q41.6838 809.418 41.3005 809.057 L31.4262 800.198 Q25.9705 795.351 21.2137 795.351 Q18.1252 795.351 15.9158 796.974 Q13.7065 798.574 13.7065 801.528 Q13.7065 803.557 14.9464 805.27 Q16.1864 806.983 18.3957 807.772 Q18.3506 807.637 18.3506 807.164 Q18.3506 806.014 19.072 805.383 Q19.7934 804.729 20.7628 804.729 Q22.0028 804.729 22.6114 805.541 Q23.1976 806.33 23.1976 807.119 Q23.1976 807.434 23.13 807.863 Q23.0623 808.268 22.4311 808.922 Q21.7773 809.576 20.6276 809.576 Q17.4038 809.576 14.8337 807.141 Q12.2637 804.684 12.2637 800.942 Q12.2637 796.703 14.7886 793.93 Q17.291 791.135 21.2137 791.135 Q22.5889 791.135 23.8514 791.563 Q25.0913 791.969 26.0607 792.533 Q27.0301 793.074 28.5856 794.562 Q30.1412 796.049 31.2458 797.244 Q32.3505 798.439 34.6951 801.122 L39.4519 806.014 L39.4519 797.695 Q39.4519 793.637 39.0912 793.322 Q38.4374 792.871 34.9882 792.307 L34.9882 791.135 L43.0139 792.442 L43.0139 809.576 Z" fill="#000000" fill-rule="evenodd" fill-opacity="1" /><path clip-path="url(#clip620)" d="M 0 0 M54.1056 786.711 Q53.8801 786.711 53.3165 786.125 Q45.7417 778.685 31.4713 778.685 Q17.1558 778.685 9.91911 785.832 Q9.08498 786.711 8.837 786.711 Q8.38611 786.711 8.38611 786.26 Q8.38611 785.945 9.31042 784.84 Q10.2347 783.713 12.3539 782.022 Q14.473 780.309 17.0656 779.046 Q23.3554 776.003 31.4713 776.003 Q39.2715 776.003 45.5613 778.911 Q48.199 780.151 50.4083 781.887 Q52.6176 783.623 53.587 784.772 Q54.5564 785.922 54.5564 786.26 Q54.5564 786.711 54.1056 786.711 Z" fill="#000000" fill-rule="evenodd" fill-opacity="1" /><path clip-path="url(#clip620)" d="M 0 0 M70.2948 761.942 Q59.1515 761.942 50.1661 757.787 Q46.398 756.016 43.2418 753.536 Q40.0857 751.056 38.7008 749.414 Q37.316 747.771 37.316 747.32 Q37.316 746.676 37.9601 746.644 Q38.2821 746.644 39.0873 747.514 Q49.9085 758.142 70.2948 758.109 Q90.7455 758.109 101.148 747.771 Q102.275 746.644 102.629 746.644 Q103.274 746.644 103.274 747.32 Q103.274 747.771 101.953 749.349 Q100.633 750.927 97.6053 753.375 Q94.578 755.823 90.8743 757.594 Q81.8889 761.942 70.2948 761.942 Z" fill="#000000" fill-rule="evenodd" fill-opacity="1" /><path clip-path="url(#clip620)" d="M 0 0 M59.4092 705.568 Q59.699 705.568 60.6974 705.826 Q61.6636 706.051 63.5637 706.792 Q65.4317 707.5 67.5251 708.595 Q69.5862 709.658 72.1949 711.623 Q74.8036 713.587 77.0902 716.035 Q81.4058 720.64 83.7246 725.568 Q86.0434 730.463 86.7842 734.65 L86.7842 735.584 Q86.7842 736.614 85.979 736.614 L83.0161 735.906 L66.8809 731.88 Q61.9534 730.624 61.5348 730.624 Q61.1483 730.624 60.9551 730.785 Q60.7296 730.914 60.5686 731.687 Q60.4076 732.428 60.4076 733.909 Q60.4076 734.521 60.3754 734.811 Q60.3432 735.069 60.1821 735.294 Q59.9889 735.519 59.6024 735.519 Q59.0549 735.519 58.7651 735.294 Q58.443 735.036 58.3786 734.843 Q58.3142 734.65 58.282 734.263 Q58.2498 733.716 58.0887 731.88 Q57.8955 730.044 57.7667 728.466 Q57.6379 726.888 57.6379 726.212 Q57.6379 725.826 57.8311 725.6 Q57.9921 725.375 58.1854 725.375 L58.3464 725.342 L84.5942 731.816 Q83.8212 729.433 82.533 727.082 Q81.2448 724.698 79.1192 722.122 Q76.9614 719.545 74.2883 717.355 Q71.6152 715.165 67.8793 713.233 Q64.1112 711.268 59.7957 710.045 Q58.9261 709.819 58.4108 709.272 Q57.8955 708.692 57.7667 708.273 Q57.6379 707.855 57.6379 707.468 Q57.6379 706.599 58.121 706.083 Q58.5718 705.568 59.4092 705.568 Z" fill="#000000" fill-rule="evenodd" fill-opacity="1" /><path clip-path="url(#clip620)" d="M 0 0 M102.629 704.365 Q102.307 704.365 101.502 703.528 Q90.6811 692.9 70.2948 692.9 Q49.844 692.9 39.506 703.109 Q38.3143 704.365 37.9601 704.365 Q37.316 704.365 37.316 703.721 Q37.316 703.27 38.6364 701.692 Q39.9568 700.082 42.9842 697.666 Q46.0115 695.219 49.7152 693.415 Q58.7007 689.067 70.2948 689.067 Q81.438 689.067 90.4234 693.222 Q94.1915 694.993 97.3477 697.473 Q100.504 699.953 101.889 701.595 Q103.274 703.238 103.274 703.721 Q103.274 704.365 102.629 704.365 Z" fill="#000000" fill-rule="evenodd" fill-opacity="1" /><path clip-path="url(#clip620)" d="M 0 0 M627.371 18.8205 L627.371 41.5461 L637.661 41.5461 Q643.373 41.5461 646.492 38.5889 Q649.611 35.6318 649.611 30.163 Q649.611 24.7348 646.492 21.7777 Q643.373 18.8205 637.661 18.8205 L627.371 18.8205 M619.189 12.096 L637.661 12.096 Q647.829 12.096 653.014 16.714 Q658.239 21.2916 658.239 30.163 Q658.239 39.1155 653.014 43.6931 Q647.829 48.2706 637.661 48.2706 L627.371 48.2706 L627.371 72.576 L619.189 72.576 L619.189 12.096 Z" fill="#000000" fill-rule="evenodd" fill-opacity="1" /><path clip-path="url(#clip620)" d="M 0 0 M706.607 45.1919 L706.607 72.576 L699.154 72.576 L699.154 45.4349 Q699.154 38.994 696.642 35.7938 Q694.13 32.5936 689.107 32.5936 Q683.071 32.5936 679.588 36.4419 Q676.104 40.2903 676.104 46.9338 L676.104 72.576 L668.61 72.576 L668.61 9.54393 L676.104 9.54393 L676.104 34.2544 Q678.777 30.163 682.383 28.1376 Q686.029 26.1121 690.768 26.1121 Q698.586 26.1121 702.597 30.9732 Q706.607 35.7938 706.607 45.1919 Z" fill="#000000" fill-rule="evenodd" fill-opacity="1" /><path clip-path="url(#clip620)" d="M 0 0 M739.055 32.4315 Q733.06 32.4315 729.576 37.1306 Q726.092 41.7891 726.092 49.9314 Q726.092 58.0738 729.535 62.7728 Q733.019 67.4314 739.055 67.4314 Q745.01 67.4314 748.494 62.7323 Q751.977 58.0333 751.977 49.9314 Q751.977 41.8701 748.494 37.1711 Q745.01 32.4315 739.055 32.4315 M739.055 26.1121 Q748.777 26.1121 754.327 32.4315 Q759.877 38.7509 759.877 49.9314 Q759.877 61.0714 754.327 67.4314 Q748.777 73.7508 739.055 73.7508 Q729.292 73.7508 723.743 67.4314 Q718.233 61.0714 718.233 49.9314 Q718.233 38.7509 723.743 32.4315 Q729.292 26.1121 739.055 26.1121 Z" fill="#000000" fill-rule="evenodd" fill-opacity="1" /><path clip-path="url(#clip620)" d="M 0 0 M779.604 14.324 L779.604 27.2059 L794.957 27.2059 L794.957 32.9987 L779.604 32.9987 L779.604 57.6282 Q779.604 63.1779 781.103 64.7578 Q782.643 66.3376 787.301 66.3376 L794.957 66.3376 L794.957 72.576 L787.301 72.576 Q778.673 72.576 775.392 69.3758 Q772.11 66.1351 772.11 57.6282 L772.11 32.9987 L766.642 32.9987 L766.642 27.2059 L772.11 27.2059 L772.11 14.324 L779.604 14.324 Z" fill="#000000" fill-rule="evenodd" fill-opacity="1" /><path clip-path="url(#clip620)" d="M 0 0 M822.342 32.4315 Q816.346 32.4315 812.862 37.1306 Q809.379 41.7891 809.379 49.9314 Q809.379 58.0738 812.822 62.7728 Q816.306 67.4314 822.342 67.4314 Q828.296 67.4314 831.78 62.7323 Q835.264 58.0333 835.264 49.9314 Q835.264 41.8701 831.78 37.1711 Q828.296 32.4315 822.342 32.4315 M822.342 26.1121 Q832.064 26.1121 837.613 32.4315 Q843.163 38.7509 843.163 49.9314 Q843.163 61.0714 837.613 67.4314 Q832.064 73.7508 822.342 73.7508 Q812.579 73.7508 807.029 67.4314 Q801.52 61.0714 801.52 49.9314 Q801.52 38.7509 807.029 32.4315 Q812.579 26.1121 822.342 26.1121 Z" fill="#000000" fill-rule="evenodd" fill-opacity="1" /><path clip-path="url(#clip620)" d="M 0 0 M893.232 45.1919 L893.232 72.576 L885.779 72.576 L885.779 45.4349 Q885.779 38.994 883.267 35.7938 Q880.756 32.5936 875.732 32.5936 Q869.697 32.5936 866.213 36.4419 Q862.729 40.2903 862.729 46.9338 L862.729 72.576 L855.235 72.576 L855.235 27.2059 L862.729 27.2059 L862.729 34.2544 Q865.403 30.163 869.008 28.1376 Q872.654 26.1121 877.393 26.1121 Q885.212 26.1121 889.222 30.9732 Q893.232 35.7938 893.232 45.1919 Z" fill="#000000" fill-rule="evenodd" fill-opacity="1" /><path clip-path="url(#clip620)" d="M 0 0 M980.084 16.7545 L980.084 25.383 Q975.952 21.5346 971.253 19.6307 Q966.594 17.7268 961.328 17.7268 Q950.958 17.7268 945.448 24.0867 Q939.939 30.4061 939.939 42.3968 Q939.939 54.3469 945.448 60.7069 Q950.958 67.0263 961.328 67.0263 Q966.594 67.0263 971.253 65.1223 Q975.952 63.2184 980.084 59.3701 L980.084 67.9175 Q975.79 70.8341 970.969 72.2924 Q966.189 73.7508 960.842 73.7508 Q947.109 73.7508 939.21 65.3654 Q931.311 56.9395 931.311 42.3968 Q931.311 27.8135 939.21 19.4281 Q947.109 11.0023 960.842 11.0023 Q966.27 11.0023 971.05 12.4606 Q975.871 13.8784 980.084 16.7545 Z" fill="#000000" fill-rule="evenodd" fill-opacity="1" /><path clip-path="url(#clip620)" d="M 0 0 M1009.98 32.4315 Q1003.98 32.4315 1000.5 37.1306 Q997.017 41.7891 997.017 49.9314 Q997.017 58.0738 1000.46 62.7728 Q1003.94 67.4314 1009.98 67.4314 Q1015.93 67.4314 1019.42 62.7323 Q1022.9 58.0333 1022.9 49.9314 Q1022.9 41.8701 1019.42 37.1711 Q1015.93 32.4315 1009.98 32.4315 M1009.98 26.1121 Q1019.7 26.1121 1025.25 32.4315 Q1030.8 38.7509 1030.8 49.9314 Q1030.8 61.0714 1025.25 67.4314 Q1019.7 73.7508 1009.98 73.7508 Q1000.22 73.7508 994.667 67.4314 Q989.158 61.0714 989.158 49.9314 Q989.158 38.7509 994.667 32.4315 Q1000.22 26.1121 1009.98 26.1121 Z" fill="#000000" fill-rule="evenodd" fill-opacity="1" /><path clip-path="url(#clip620)" d="M 0 0 M1069.45 34.1734 Q1068.19 33.4443 1066.69 33.1202 Q1065.23 32.7556 1063.45 32.7556 Q1057.13 32.7556 1053.73 36.8875 Q1050.37 40.9789 1050.37 48.6757 L1050.37 72.576 L1042.87 72.576 L1042.87 27.2059 L1050.37 27.2059 L1050.37 34.2544 Q1052.72 30.1225 1056.48 28.1376 Q1060.25 26.1121 1065.64 26.1121 Q1066.41 26.1121 1067.34 26.2337 Q1068.27 26.3147 1069.41 26.5172 L1069.45 34.1734 Z" fill="#000000" fill-rule="evenodd" fill-opacity="1" /><path clip-path="url(#clip620)" d="M 0 0 M1102.1 34.1734 Q1100.84 33.4443 1099.34 33.1202 Q1097.88 32.7556 1096.1 32.7556 Q1089.78 32.7556 1086.38 36.8875 Q1083.02 40.9789 1083.02 48.6757 L1083.02 72.576 L1075.52 72.576 L1075.52 27.2059 L1083.02 27.2059 L1083.02 34.2544 Q1085.37 30.1225 1089.13 28.1376 Q1092.9 26.1121 1098.29 26.1121 Q1099.06 26.1121 1099.99 26.2337 Q1100.92 26.3147 1102.06 26.5172 L1102.1 34.1734 Z" fill="#000000" fill-rule="evenodd" fill-opacity="1" /><path clip-path="url(#clip620)" d="M 0 0 M1146.9 48.0275 L1146.9 51.6733 L1112.63 51.6733 Q1113.12 59.3701 1117.25 63.421 Q1121.42 67.4314 1128.83 67.4314 Q1133.13 67.4314 1137.14 66.3781 Q1141.19 65.3249 1145.16 63.2184 L1145.16 70.267 Q1141.15 71.9684 1136.93 72.8596 Q1132.72 73.7508 1128.39 73.7508 Q1117.53 73.7508 1111.17 67.4314 Q1104.85 61.1119 1104.85 50.3365 Q1104.85 39.1965 1110.85 32.6746 Q1116.88 26.1121 1127.09 26.1121 Q1136.25 26.1121 1141.55 32.0264 Q1146.9 37.9003 1146.9 48.0275 M1139.45 45.84 Q1139.37 39.7232 1136 36.0774 Q1132.68 32.4315 1127.17 32.4315 Q1120.93 32.4315 1117.17 35.9558 Q1113.44 39.4801 1112.87 45.8805 L1139.45 45.84 Z" fill="#000000" fill-rule="evenodd" fill-opacity="1" /><path clip-path="url(#clip620)" d="M 0 0 M1159.13 9.54393 L1166.59 9.54393 L1166.59 72.576 L1159.13 72.576 L1159.13 9.54393 Z" fill="#000000" fill-rule="evenodd" fill-opacity="1" /><path clip-path="url(#clip620)" d="M 0 0 M1202.8 49.7694 Q1193.77 49.7694 1190.29 51.8354 Q1186.8 53.9013 1186.8 58.8839 Q1186.8 62.8538 1189.39 65.2034 Q1192.03 67.5124 1196.52 67.5124 Q1202.72 67.5124 1206.45 63.1374 Q1210.22 58.7219 1210.22 51.4303 L1210.22 49.7694 L1202.8 49.7694 M1217.67 46.6907 L1217.67 72.576 L1210.22 72.576 L1210.22 65.6895 Q1207.66 69.8214 1203.86 71.8063 Q1200.05 73.7508 1194.54 73.7508 Q1187.57 73.7508 1183.44 69.8619 Q1179.35 65.9325 1179.35 59.3701 Q1179.35 51.7138 1184.45 47.825 Q1189.6 43.9361 1199.76 43.9361 L1210.22 43.9361 L1210.22 43.2069 Q1210.22 38.0623 1206.81 35.2672 Q1203.45 32.4315 1197.33 32.4315 Q1193.44 32.4315 1189.76 33.3632 Q1186.07 34.295 1182.67 36.1584 L1182.67 29.2718 Q1186.76 27.692 1190.61 26.9223 Q1194.46 26.1121 1198.1 26.1121 Q1207.95 26.1121 1212.81 31.2163 Q1217.67 36.3204 1217.67 46.6907 Z" fill="#000000" fill-rule="evenodd" fill-opacity="1" /><path clip-path="url(#clip620)" d="M 0 0 M1240.39 14.324 L1240.39 27.2059 L1255.75 27.2059 L1255.75 32.9987 L1240.39 32.9987 L1240.39 57.6282 Q1240.39 63.1779 1241.89 64.7578 Q1243.43 66.3376 1248.09 66.3376 L1255.75 66.3376 L1255.75 72.576 L1248.09 72.576 Q1239.46 72.576 1236.18 69.3758 Q1232.9 66.1351 1232.9 57.6282 L1232.9 32.9987 L1227.43 32.9987 L1227.43 27.2059 L1232.9 27.2059 L1232.9 14.324 L1240.39 14.324 Z" fill="#000000" fill-rule="evenodd" fill-opacity="1" /><path clip-path="url(#clip620)" d="M 0 0 M1265.55 27.2059 L1273 27.2059 L1273 72.576 L1265.55 72.576 L1265.55 27.2059 M1265.55 9.54393 L1273 9.54393 L1273 18.9825 L1265.55 18.9825 L1265.55 9.54393 Z" fill="#000000" fill-rule="evenodd" fill-opacity="1" /><path clip-path="url(#clip620)" d="M 0 0 M1306.18 32.4315 Q1300.19 32.4315 1296.7 37.1306 Q1293.22 41.7891 1293.22 49.9314 Q1293.22 58.0738 1296.66 62.7728 Q1300.15 67.4314 1306.18 67.4314 Q1312.14 67.4314 1315.62 62.7323 Q1319.1 58.0333 1319.1 49.9314 Q1319.1 41.8701 1315.62 37.1711 Q1312.14 32.4315 1306.18 32.4315 M1306.18 26.1121 Q1315.9 26.1121 1321.45 32.4315 Q1327 38.7509 1327 49.9314 Q1327 61.0714 1321.45 67.4314 Q1315.9 73.7508 1306.18 73.7508 Q1296.42 73.7508 1290.87 67.4314 Q1285.36 61.0714 1285.36 49.9314 Q1285.36 38.7509 1290.87 32.4315 Q1296.42 26.1121 1306.18 26.1121 Z" fill="#000000" fill-rule="evenodd" fill-opacity="1" /><path clip-path="url(#clip620)" d="M 0 0 M1377.07 45.1919 L1377.07 72.576 L1369.62 72.576 L1369.62 45.4349 Q1369.62 38.994 1367.11 35.7938 Q1364.6 32.5936 1359.57 32.5936 Q1353.54 32.5936 1350.05 36.4419 Q1346.57 40.2903 1346.57 46.9338 L1346.57 72.576 L1339.07 72.576 L1339.07 27.2059 L1346.57 27.2059 L1346.57 34.2544 Q1349.24 30.163 1352.85 28.1376 Q1356.49 26.1121 1361.23 26.1121 Q1369.05 26.1121 1373.06 30.9732 Q1377.07 35.7938 1377.07 45.1919 Z" fill="#000000" fill-rule="evenodd" fill-opacity="1" /><path clip-path="url(#clip620)" d="M 0 0 M1420.86 28.5427 L1420.86 35.5912 Q1417.7 33.9709 1414.3 33.1607 Q1410.9 32.3505 1407.25 32.3505 Q1401.7 32.3505 1398.91 34.0519 Q1396.15 35.7533 1396.15 39.156 Q1396.15 41.7486 1398.14 43.2475 Q1400.12 44.7058 1406.12 46.0426 L1408.67 46.6097 Q1416.61 48.3111 1419.93 51.4303 Q1423.29 54.509 1423.29 60.0587 Q1423.29 66.3781 1418.27 70.0644 Q1413.29 73.7508 1404.54 73.7508 Q1400.89 73.7508 1396.92 73.0216 Q1392.99 72.3329 1388.62 70.9151 L1388.62 63.2184 Q1392.75 65.3654 1396.76 66.4591 Q1400.77 67.5124 1404.7 67.5124 Q1409.97 67.5124 1412.8 65.73 Q1415.64 63.9071 1415.64 60.6258 Q1415.64 57.5877 1413.57 55.9673 Q1411.55 54.3469 1404.62 52.8481 L1402.03 52.2405 Q1395.1 50.7821 1392.02 47.7845 Q1388.94 44.7463 1388.94 39.4801 Q1388.94 33.0797 1393.48 29.5959 Q1398.02 26.1121 1406.36 26.1121 Q1410.49 26.1121 1414.14 26.7198 Q1417.78 27.3274 1420.86 28.5427 Z" fill="#000000" fill-rule="evenodd" fill-opacity="1" /><path clip-path="url(#clip620)" d="M 0 0 M1456.19 27.2059 L1464.09 27.2059 L1478.26 65.2844 L1492.44 27.2059 L1500.34 27.2059 L1483.33 72.576 L1473.2 72.576 L1456.19 27.2059 Z" fill="#000000" fill-rule="evenodd" fill-opacity="1" /><path clip-path="url(#clip620)" d="M 0 0 M1539.55 28.5427 L1539.55 35.5912 Q1536.39 33.9709 1532.99 33.1607 Q1529.59 32.3505 1525.94 32.3505 Q1520.39 32.3505 1517.6 34.0519 Q1514.84 35.7533 1514.84 39.156 Q1514.84 41.7486 1516.83 43.2475 Q1518.81 44.7058 1524.81 46.0426 L1527.36 46.6097 Q1535.3 48.3111 1538.62 51.4303 Q1541.98 54.509 1541.98 60.0587 Q1541.98 66.3781 1536.96 70.0644 Q1531.98 73.7508 1523.23 73.7508 Q1519.58 73.7508 1515.61 73.0216 Q1511.68 72.3329 1507.31 70.9151 L1507.31 63.2184 Q1511.44 65.3654 1515.45 66.4591 Q1519.46 67.5124 1523.39 67.5124 Q1528.66 67.5124 1531.49 65.73 Q1534.33 63.9071 1534.33 60.6258 Q1534.33 57.5877 1532.26 55.9673 Q1530.24 54.3469 1523.31 52.8481 L1520.72 52.2405 Q1513.79 50.7821 1510.71 47.7845 Q1507.63 44.7463 1507.63 39.4801 Q1507.63 33.0797 1512.17 29.5959 Q1516.71 26.1121 1525.05 26.1121 Q1529.18 26.1121 1532.83 26.7198 Q1536.48 27.3274 1539.55 28.5427 Z" fill="#000000" fill-rule="evenodd" fill-opacity="1" /><path clip-path="url(#clip620)" d="M 0 0 M1580.55 12.096 L1615.31 12.096 L1615.31 18.9825 L1588.73 18.9825 L1588.73 36.8065 L1612.71 36.8065 L1612.71 43.6931 L1588.73 43.6931 L1588.73 72.576 L1580.55 72.576 L1580.55 12.096 Z" fill="#000000" fill-rule="evenodd" fill-opacity="1" /><path clip-path="url(#clip620)" d="M 0 0 M1648.2 34.1734 Q1646.94 33.4443 1645.44 33.1202 Q1643.99 32.7556 1642.2 32.7556 Q1635.88 32.7556 1632.48 36.8875 Q1629.12 40.9789 1629.12 48.6757 L1629.12 72.576 L1621.63 72.576 L1621.63 27.2059 L1629.12 27.2059 L1629.12 34.2544 Q1631.47 30.1225 1635.24 28.1376 Q1639 26.1121 1644.39 26.1121 Q1645.16 26.1121 1646.09 26.2337 Q1647.02 26.3147 1648.16 26.5172 L1648.2 34.1734 Z" fill="#000000" fill-rule="evenodd" fill-opacity="1" /><path clip-path="url(#clip620)" d="M 0 0 M1693 48.0275 L1693 51.6733 L1658.73 51.6733 Q1659.22 59.3701 1663.35 63.421 Q1667.52 67.4314 1674.94 67.4314 Q1679.23 67.4314 1683.24 66.3781 Q1687.29 65.3249 1691.26 63.2184 L1691.26 70.267 Q1687.25 71.9684 1683.04 72.8596 Q1678.82 73.7508 1674.49 73.7508 Q1663.63 73.7508 1657.27 67.4314 Q1650.95 61.1119 1650.95 50.3365 Q1650.95 39.1965 1656.95 32.6746 Q1662.99 26.1121 1673.19 26.1121 Q1682.35 26.1121 1687.66 32.0264 Q1693 37.9003 1693 48.0275 M1685.55 45.84 Q1685.47 39.7232 1682.11 36.0774 Q1678.78 32.4315 1673.27 32.4315 Q1667.04 32.4315 1663.27 35.9558 Q1659.54 39.4801 1658.97 45.8805 L1685.55 45.84 Z" fill="#000000" fill-rule="evenodd" fill-opacity="1" /><path clip-path="url(#clip620)" d="M 0 0 M1709.69 49.9314 Q1709.69 58.1548 1713.05 62.8538 Q1716.46 67.5124 1722.37 67.5124 Q1728.29 67.5124 1731.69 62.8538 Q1735.09 58.1548 1735.09 49.9314 Q1735.09 41.7081 1731.69 37.0496 Q1728.29 32.3505 1722.37 32.3505 Q1716.46 32.3505 1713.05 37.0496 Q1709.69 41.7081 1709.69 49.9314 M1735.09 65.7705 Q1732.74 69.8214 1729.14 71.8063 Q1725.57 73.7508 1720.55 73.7508 Q1712.33 73.7508 1707.14 67.1883 Q1702 60.6258 1702 49.9314 Q1702 39.2371 1707.14 32.6746 Q1712.33 26.1121 1720.55 26.1121 Q1725.57 26.1121 1729.14 28.0971 Q1732.74 30.0415 1735.09 34.0924 L1735.09 27.2059 L1742.54 27.2059 L1742.54 89.8329 L1735.09 89.8329 L1735.09 65.7705 Z" fill="#000000" fill-rule="evenodd" fill-opacity="1" /><path clip-path="url(#clip620)" d="M 0 0 M1757.13 54.671 L1757.13 27.2059 L1764.58 27.2059 L1764.58 54.3874 Q1764.58 60.8284 1767.09 64.0691 Q1769.6 67.2693 1774.63 67.2693 Q1780.66 67.2693 1784.15 63.421 Q1787.67 59.5726 1787.67 52.9291 L1787.67 27.2059 L1795.13 27.2059 L1795.13 72.576 L1787.67 72.576 L1787.67 65.6084 Q1784.96 69.7404 1781.35 71.7658 Q1777.79 73.7508 1773.05 73.7508 Q1765.23 73.7508 1761.18 68.8897 Q1757.13 64.0286 1757.13 54.671 M1775.88 26.1121 L1775.88 26.1121 Z" fill="#000000" fill-rule="evenodd" fill-opacity="1" /><path clip-path="url(#clip620)" d="M 0 0 M1849.29 48.0275 L1849.29 51.6733 L1815.02 51.6733 Q1815.5 59.3701 1819.63 63.421 Q1823.81 67.4314 1831.22 67.4314 Q1835.51 67.4314 1839.52 66.3781 Q1843.57 65.3249 1847.54 63.2184 L1847.54 70.267 Q1843.53 71.9684 1839.32 72.8596 Q1835.11 73.7508 1830.77 73.7508 Q1819.92 73.7508 1813.56 67.4314 Q1807.24 61.1119 1807.24 50.3365 Q1807.24 39.1965 1813.23 32.6746 Q1819.27 26.1121 1829.48 26.1121 Q1838.63 26.1121 1843.94 32.0264 Q1849.29 37.9003 1849.29 48.0275 M1841.83 45.84 Q1841.75 39.7232 1838.39 36.0774 Q1835.07 32.4315 1829.56 32.4315 Q1823.32 32.4315 1819.55 35.9558 Q1815.83 39.4801 1815.26 45.8805 L1841.83 45.84 Z" fill="#000000" fill-rule="evenodd" fill-opacity="1" /><path clip-path="url(#clip620)" d="M 0 0 M1899.23 45.1919 L1899.23 72.576 L1891.78 72.576 L1891.78 45.4349 Q1891.78 38.994 1889.27 35.7938 Q1886.76 32.5936 1881.73 32.5936 Q1875.7 32.5936 1872.21 36.4419 Q1868.73 40.2903 1868.73 46.9338 L1868.73 72.576 L1861.24 72.576 L1861.24 27.2059 L1868.73 27.2059 L1868.73 34.2544 Q1871.4 30.163 1875.01 28.1376 Q1878.66 26.1121 1883.39 26.1121 Q1891.21 26.1121 1895.22 30.9732 Q1899.23 35.7938 1899.23 45.1919 Z" fill="#000000" fill-rule="evenodd" fill-opacity="1" /><path clip-path="url(#clip620)" d="M 0 0 M1946.75 28.9478 L1946.75 35.9153 Q1943.59 34.1734 1940.39 33.3227 Q1937.23 32.4315 1933.99 32.4315 Q1926.74 32.4315 1922.73 37.0496 Q1918.72 41.6271 1918.72 49.9314 Q1918.72 58.2358 1922.73 62.8538 Q1926.74 67.4314 1933.99 67.4314 Q1937.23 67.4314 1940.39 66.5807 Q1943.59 65.6895 1946.75 63.9476 L1946.75 70.8341 Q1943.63 72.2924 1940.27 73.0216 Q1936.95 73.7508 1933.18 73.7508 Q1922.93 73.7508 1916.9 67.3098 Q1910.86 60.8689 1910.86 49.9314 Q1910.86 38.832 1916.94 32.472 Q1923.05 26.1121 1933.67 26.1121 Q1937.11 26.1121 1940.39 26.8413 Q1943.67 27.5299 1946.75 28.9478 Z" fill="#000000" fill-rule="evenodd" fill-opacity="1" /><path clip-path="url(#clip620)" d="M 0 0 M1978.59 76.7889 Q1975.43 84.8907 1972.43 87.3618 Q1969.44 89.8329 1964.41 89.8329 L1958.46 89.8329 L1958.46 83.5945 L1962.83 83.5945 Q1965.91 83.5945 1967.61 82.1361 Q1969.31 80.6778 1971.38 75.2496 L1972.72 71.8468 L1954.37 27.2059 L1962.27 27.2059 L1976.44 62.6918 L1990.62 27.2059 L1998.52 27.2059 L1978.59 76.7889 Z" fill="#000000" fill-rule="evenodd" fill-opacity="1" /><polyline clip-path="url(#clip623)" style="stroke:#e26f46; stroke-width:4; stroke-opacity:1; fill:none" stroke-dasharray="16, 10" points="
  481.772,2722.89 481.772,-1176.24 
  "/>
<polyline clip-path="url(#clip623)" style="stroke:#e26f46; stroke-width:4; stroke-opacity:1; fill:none" stroke-dasharray="16, 10" points="
  363.475,2722.89 363.475,-1176.24 
  "/>
<polyline clip-path="url(#clip623)" style="stroke:#e26f46; stroke-width:4; stroke-opacity:1; fill:none" stroke-dasharray="16, 10" points="
  718.367,2722.89 718.367,-1176.24 
  "/>
<polyline clip-path="url(#clip623)" style="stroke:#e26f46; stroke-width:4; stroke-opacity:1; fill:none" stroke-dasharray="16, 10" points="
  442.34,2722.89 442.34,-1176.24 
  "/>
<polyline clip-path="url(#clip623)" style="stroke:#e26f46; stroke-width:4; stroke-opacity:1; fill:none" stroke-dasharray="16, 10" points="
  560.637,2722.89 560.637,-1176.24 
  "/>
<polyline clip-path="url(#clip623)" style="stroke:#e26f46; stroke-width:4; stroke-opacity:1; fill:none" stroke-dasharray="16, 10" points="
  678.934,2722.89 678.934,-1176.24 
  "/>
<path clip-path="url(#clip620)" d="
M1674.68 287.756 L2283.16 287.756 L2283.16 166.796 L1674.68 166.796  Z
  " fill="#ffffff" fill-rule="evenodd" fill-opacity="1"/>
<polyline clip-path="url(#clip620)" style="stroke:#000000; stroke-width:4; stroke-opacity:1; fill:none" points="
  1674.68,287.756 2283.16,287.756 2283.16,166.796 1674.68,166.796 1674.68,287.756 
  "/>
<polyline clip-path="url(#clip620)" style="stroke:#e26f46; stroke-width:4; stroke-opacity:1; fill:none" stroke-dasharray="16, 10" points="
  1697.88,227.276 1837.07,227.276 
  "/>
<path clip-path="url(#clip620)" d="M 0 0 M1876.77 208.537 L1876.77 212.079 L1872.69 212.079 Q1870.4 212.079 1869.5 213.005 Q1868.62 213.931 1868.62 216.338 L1868.62 218.63 L1875.63 218.63 L1875.63 221.94 L1868.62 221.94 L1868.62 244.556 L1864.34 244.556 L1864.34 221.94 L1860.26 221.94 L1860.26 218.63 L1864.34 218.63 L1864.34 216.824 Q1864.34 212.496 1866.35 210.528 Q1868.37 208.537 1872.74 208.537 L1876.77 208.537 Z" fill="#000000" fill-rule="evenodd" fill-opacity="1" /><path clip-path="url(#clip620)" d="M 0 0 M1895.36 222.611 Q1894.64 222.195 1893.78 222.01 Q1892.95 221.801 1891.93 221.801 Q1888.32 221.801 1886.38 224.162 Q1884.45 226.5 1884.45 230.898 L1884.45 244.556 L1880.17 244.556 L1880.17 218.63 L1884.45 218.63 L1884.45 222.658 Q1885.8 220.297 1887.95 219.162 Q1890.1 218.005 1893.18 218.005 Q1893.62 218.005 1894.15 218.074 Q1894.69 218.121 1895.33 218.236 L1895.36 222.611 Z" fill="#000000" fill-rule="evenodd" fill-opacity="1" /><path clip-path="url(#clip620)" d="M 0 0 M1920.96 230.528 L1920.96 232.611 L1901.38 232.611 Q1901.65 237.009 1904.01 239.324 Q1906.4 241.616 1910.63 241.616 Q1913.09 241.616 1915.38 241.014 Q1917.69 240.412 1919.96 239.209 L1919.96 243.236 Q1917.67 244.208 1915.26 244.718 Q1912.86 245.227 1910.38 245.227 Q1904.18 245.227 1900.54 241.616 Q1896.93 238.005 1896.93 231.847 Q1896.93 225.482 1900.36 221.755 Q1903.81 218.005 1909.64 218.005 Q1914.87 218.005 1917.9 221.385 Q1920.96 224.741 1920.96 230.528 M1916.7 229.278 Q1916.65 225.783 1914.73 223.699 Q1912.83 221.616 1909.69 221.616 Q1906.12 221.616 1903.97 223.63 Q1901.84 225.644 1901.51 229.301 L1916.7 229.278 Z" fill="#000000" fill-rule="evenodd" fill-opacity="1" /><path clip-path="url(#clip620)" d="M 0 0 M1930.5 231.616 Q1930.5 236.315 1932.42 239 Q1934.36 241.662 1937.74 241.662 Q1941.12 241.662 1943.06 239 Q1945.01 236.315 1945.01 231.616 Q1945.01 226.917 1943.06 224.255 Q1941.12 221.57 1937.74 221.57 Q1934.36 221.57 1932.42 224.255 Q1930.5 226.917 1930.5 231.616 M1945.01 240.667 Q1943.67 242.982 1941.61 244.116 Q1939.57 245.227 1936.7 245.227 Q1932 245.227 1929.04 241.477 Q1926.1 237.727 1926.1 231.616 Q1926.1 225.505 1929.04 221.755 Q1932 218.005 1936.7 218.005 Q1939.57 218.005 1941.61 219.139 Q1943.67 220.25 1945.01 222.565 L1945.01 218.63 L1949.27 218.63 L1949.27 254.417 L1945.01 254.417 L1945.01 240.667 Z" fill="#000000" fill-rule="evenodd" fill-opacity="1" /><path clip-path="url(#clip620)" d="M 0 0 M1957.6 234.324 L1957.6 218.63 L1961.86 218.63 L1961.86 234.162 Q1961.86 237.843 1963.3 239.695 Q1964.73 241.523 1967.6 241.523 Q1971.05 241.523 1973.04 239.324 Q1975.06 237.125 1975.06 233.329 L1975.06 218.63 L1979.31 218.63 L1979.31 244.556 L1975.06 244.556 L1975.06 240.574 Q1973.5 242.935 1971.44 244.093 Q1969.41 245.227 1966.7 245.227 Q1962.23 245.227 1959.92 242.449 Q1957.6 239.671 1957.6 234.324 M1968.32 218.005 L1968.32 218.005 Z" fill="#000000" fill-rule="evenodd" fill-opacity="1" /><path clip-path="url(#clip620)" d="M 0 0 M2010.26 230.528 L2010.26 232.611 L1990.68 232.611 Q1990.96 237.009 1993.32 239.324 Q1995.7 241.616 1999.94 241.616 Q2002.39 241.616 2004.68 241.014 Q2007 240.412 2009.27 239.209 L2009.27 243.236 Q2006.98 244.208 2004.57 244.718 Q2002.16 245.227 1999.68 245.227 Q1993.48 245.227 1989.85 241.616 Q1986.24 238.005 1986.24 231.847 Q1986.24 225.482 1989.66 221.755 Q1993.11 218.005 1998.94 218.005 Q2004.18 218.005 2007.21 221.385 Q2010.26 224.741 2010.26 230.528 M2006 229.278 Q2005.96 225.783 2004.04 223.699 Q2002.14 221.616 1998.99 221.616 Q1995.43 221.616 1993.27 223.63 Q1991.14 225.644 1990.82 229.301 L2006 229.278 Z" fill="#000000" fill-rule="evenodd" fill-opacity="1" /><path clip-path="url(#clip620)" d="M 0 0 M2038.81 228.908 L2038.81 244.556 L2034.55 244.556 L2034.55 229.047 Q2034.55 225.366 2033.11 223.537 Q2031.68 221.709 2028.81 221.709 Q2025.36 221.709 2023.37 223.908 Q2021.37 226.107 2021.37 229.903 L2021.37 244.556 L2017.09 244.556 L2017.09 218.63 L2021.37 218.63 L2021.37 222.658 Q2022.9 220.32 2024.96 219.162 Q2027.05 218.005 2029.75 218.005 Q2034.22 218.005 2036.51 220.783 Q2038.81 223.537 2038.81 228.908 Z" fill="#000000" fill-rule="evenodd" fill-opacity="1" /><path clip-path="url(#clip620)" d="M 0 0 M2065.96 219.625 L2065.96 223.607 Q2064.15 222.611 2062.32 222.125 Q2060.52 221.616 2058.67 221.616 Q2054.52 221.616 2052.23 224.255 Q2049.94 226.871 2049.94 231.616 Q2049.94 236.361 2052.23 239 Q2054.52 241.616 2058.67 241.616 Q2060.52 241.616 2062.32 241.13 Q2064.15 240.621 2065.96 239.625 L2065.96 243.56 Q2064.18 244.394 2062.25 244.81 Q2060.36 245.227 2058.2 245.227 Q2052.35 245.227 2048.9 241.546 Q2045.45 237.866 2045.45 231.616 Q2045.45 225.273 2048.92 221.639 Q2052.42 218.005 2058.48 218.005 Q2060.45 218.005 2062.32 218.422 Q2064.2 218.815 2065.96 219.625 Z" fill="#000000" fill-rule="evenodd" fill-opacity="1" /><path clip-path="url(#clip620)" d="M 0 0 M2084.15 246.963 Q2082.35 251.593 2080.63 253.005 Q2078.92 254.417 2076.05 254.417 L2072.65 254.417 L2072.65 250.852 L2075.15 250.852 Q2076.91 250.852 2077.88 250.019 Q2078.85 249.185 2080.03 246.083 L2080.8 244.139 L2070.31 218.63 L2074.82 218.63 L2082.93 238.908 L2091.03 218.63 L2095.54 218.63 L2084.15 246.963 Z" fill="#000000" fill-rule="evenodd" fill-opacity="1" /><path clip-path="url(#clip620)" d="M 0 0 M2133.02 219.394 L2133.02 223.422 Q2131.21 222.496 2129.27 222.033 Q2127.32 221.57 2125.24 221.57 Q2122.07 221.57 2120.47 222.542 Q2118.9 223.514 2118.9 225.459 Q2118.9 226.94 2120.03 227.797 Q2121.17 228.63 2124.59 229.394 L2126.05 229.718 Q2130.59 230.69 2132.49 232.472 Q2134.41 234.232 2134.41 237.403 Q2134.41 241.014 2131.54 243.121 Q2128.69 245.227 2123.69 245.227 Q2121.61 245.227 2119.34 244.81 Q2117.09 244.417 2114.59 243.607 L2114.59 239.209 Q2116.95 240.435 2119.24 241.06 Q2121.54 241.662 2123.78 241.662 Q2126.79 241.662 2128.41 240.644 Q2130.03 239.602 2130.03 237.727 Q2130.03 235.991 2128.85 235.065 Q2127.69 234.139 2123.74 233.283 L2122.25 232.935 Q2118.3 232.102 2116.54 230.389 Q2114.78 228.653 2114.78 225.644 Q2114.78 221.986 2117.37 219.996 Q2119.96 218.005 2124.73 218.005 Q2127.09 218.005 2129.17 218.352 Q2131.26 218.699 2133.02 219.394 Z" fill="#000000" fill-rule="evenodd" fill-opacity="1" /><path clip-path="url(#clip620)" d="M 0 0 M2162.74 228.908 L2162.74 244.556 L2158.48 244.556 L2158.48 229.047 Q2158.48 225.366 2157.05 223.537 Q2155.61 221.709 2152.74 221.709 Q2149.29 221.709 2147.3 223.908 Q2145.31 226.107 2145.31 229.903 L2145.31 244.556 L2141.03 244.556 L2141.03 208.537 L2145.31 208.537 L2145.31 222.658 Q2146.84 220.32 2148.9 219.162 Q2150.98 218.005 2153.69 218.005 Q2158.16 218.005 2160.45 220.783 Q2162.74 223.537 2162.74 228.908 Z" fill="#000000" fill-rule="evenodd" fill-opacity="1" /><path clip-path="url(#clip620)" d="M 0 0 M2171.23 218.63 L2175.49 218.63 L2175.49 244.556 L2171.23 244.556 L2171.23 218.63 M2171.23 208.537 L2175.49 208.537 L2175.49 213.931 L2171.23 213.931 L2171.23 208.537 Z" fill="#000000" fill-rule="evenodd" fill-opacity="1" /><path clip-path="url(#clip620)" d="M 0 0 M2197.53 208.537 L2197.53 212.079 L2193.46 212.079 Q2191.17 212.079 2190.26 213.005 Q2189.38 213.931 2189.38 216.338 L2189.38 218.63 L2196.4 218.63 L2196.4 221.94 L2189.38 221.94 L2189.38 244.556 L2185.1 244.556 L2185.1 221.94 L2181.03 221.94 L2181.03 218.63 L2185.1 218.63 L2185.1 216.824 Q2185.1 212.496 2187.11 210.528 Q2189.13 208.537 2193.5 208.537 L2197.53 208.537 Z" fill="#000000" fill-rule="evenodd" fill-opacity="1" /><path clip-path="url(#clip620)" d="M 0 0 M2204.48 211.269 L2204.48 218.63 L2213.25 218.63 L2213.25 221.94 L2204.48 221.94 L2204.48 236.014 Q2204.48 239.185 2205.33 240.088 Q2206.21 240.991 2208.87 240.991 L2213.25 240.991 L2213.25 244.556 L2208.87 244.556 Q2203.94 244.556 2202.07 242.727 Q2200.19 240.875 2200.19 236.014 L2200.19 221.94 L2197.07 221.94 L2197.07 218.63 L2200.19 218.63 L2200.19 211.269 L2204.48 211.269 Z" fill="#000000" fill-rule="evenodd" fill-opacity="1" /><path clip-path="url(#clip620)" d="M 0 0 M2235.38 219.394 L2235.38 223.422 Q2233.57 222.496 2231.63 222.033 Q2229.68 221.57 2227.6 221.57 Q2224.43 221.57 2222.83 222.542 Q2221.26 223.514 2221.26 225.459 Q2221.26 226.94 2222.39 227.797 Q2223.53 228.63 2226.95 229.394 L2228.41 229.718 Q2232.95 230.69 2234.85 232.472 Q2236.77 234.232 2236.77 237.403 Q2236.77 241.014 2233.9 243.121 Q2231.05 245.227 2226.05 245.227 Q2223.97 245.227 2221.7 244.81 Q2219.45 244.417 2216.95 243.607 L2216.95 239.209 Q2219.31 240.435 2221.6 241.06 Q2223.9 241.662 2226.14 241.662 Q2229.15 241.662 2230.77 240.644 Q2232.39 239.602 2232.39 237.727 Q2232.39 235.991 2231.21 235.065 Q2230.05 234.139 2226.1 233.283 L2224.61 232.935 Q2220.66 232.102 2218.9 230.389 Q2217.14 228.653 2217.14 225.644 Q2217.14 221.986 2219.73 219.996 Q2222.32 218.005 2227.09 218.005 Q2229.45 218.005 2231.54 218.352 Q2233.62 218.699 2235.38 219.394 Z" fill="#000000" fill-rule="evenodd" fill-opacity="1" /></svg>
