<?xml version="1.0" encoding="utf-8"?>
<svg xmlns="http://www.w3.org/2000/svg" xmlns:xlink="http://www.w3.org/1999/xlink" width="600" height="400" viewBox="0 0 2400 1600">
<defs>
  <clipPath id="clip410">
    <rect x="0" y="0" width="2400" height="1600"/>
  </clipPath>
</defs>
<path clip-path="url(#clip410)" d="
M0 1600 L2400 1600 L2400 0 L0 0  Z
  " fill="#ffffff" fill-rule="evenodd" fill-opacity="1"/>
<defs>
  <clipPath id="clip411">
    <rect x="480" y="0" width="1681" height="1600"/>
  </clipPath>
</defs>
<defs>
  <clipPath id="clip412">
    <rect x="249" y="123" width="2104" height="1301"/>
  </clipPath>
</defs>
<path clip-path="url(#clip410)" d="
M211.363 1427.15 L2352.76 1427.15 L2352.76 123.472 L211.363 123.472  Z
  " fill="#ffffff" fill-rule="evenodd" fill-opacity="1"/>
<defs>
  <clipPath id="clip413">
    <rect x="211" y="123" width="2142" height="1305"/>
  </clipPath>
</defs>
<polyline clip-path="url(#clip413)" style="stroke:#000000; stroke-width:2; stroke-opacity:0.1; fill:none" points="
  622.105,1427.15 622.105,123.472 
  "/>
<polyline clip-path="url(#clip413)" style="stroke:#000000; stroke-width:2; stroke-opacity:0.1; fill:none" points="
  1046.51,1427.15 1046.51,123.472 
  "/>
<polyline clip-path="url(#clip413)" style="stroke:#000000; stroke-width:2; stroke-opacity:0.1; fill:none" points="
  1470.92,1427.15 1470.92,123.472 
  "/>
<polyline clip-path="url(#clip413)" style="stroke:#000000; stroke-width:2; stroke-opacity:0.1; fill:none" points="
  1895.33,1427.15 1895.33,123.472 
  "/>
<polyline clip-path="url(#clip413)" style="stroke:#000000; stroke-width:2; stroke-opacity:0.1; fill:none" points="
  2319.74,1427.15 2319.74,123.472 
  "/>
<polyline clip-path="url(#clip410)" style="stroke:#000000; stroke-width:4; stroke-opacity:1; fill:none" points="
  211.363,1427.15 2352.76,1427.15 
  "/>
<polyline clip-path="url(#clip410)" style="stroke:#000000; stroke-width:4; stroke-opacity:1; fill:none" points="
  622.105,1427.15 622.105,1411.5 
  "/>
<polyline clip-path="url(#clip410)" style="stroke:#000000; stroke-width:4; stroke-opacity:1; fill:none" points="
  1046.51,1427.15 1046.51,1411.5 
  "/>
<polyline clip-path="url(#clip410)" style="stroke:#000000; stroke-width:4; stroke-opacity:1; fill:none" points="
  1470.92,1427.15 1470.92,1411.5 
  "/>
<polyline clip-path="url(#clip410)" style="stroke:#000000; stroke-width:4; stroke-opacity:1; fill:none" points="
  1895.33,1427.15 1895.33,1411.5 
  "/>
<polyline clip-path="url(#clip410)" style="stroke:#000000; stroke-width:4; stroke-opacity:1; fill:none" points="
  2319.74,1427.15 2319.74,1411.5 
  "/>
<path clip-path="url(#clip410)" d="M 0 0 M616.758 1483.88 L633.077 1483.88 L633.077 1487.82 L611.133 1487.82 L611.133 1483.88 Q613.795 1481.13 618.378 1476.5 Q622.985 1471.85 624.165 1470.51 Q626.41 1467.98 627.29 1466.25 Q628.193 1464.49 628.193 1462.8 Q628.193 1460.04 626.248 1458.31 Q624.327 1456.57 621.225 1456.57 Q619.026 1456.57 616.573 1457.33 Q614.142 1458.1 611.364 1459.65 L611.364 1454.93 Q614.188 1453.79 616.642 1453.21 Q619.096 1452.63 621.133 1452.63 Q626.503 1452.63 629.697 1455.32 Q632.892 1458.01 632.892 1462.5 Q632.892 1464.63 632.082 1466.55 Q631.295 1468.44 629.188 1471.04 Q628.61 1471.71 625.508 1474.93 Q622.406 1478.12 616.758 1483.88 Z" fill="#000000" fill-rule="evenodd" fill-opacity="1" /><path clip-path="url(#clip410)" d="M 0 0 M1049.52 1457.33 L1037.72 1475.78 L1049.52 1475.78 L1049.52 1457.33 M1048.3 1453.26 L1054.17 1453.26 L1054.17 1475.78 L1059.11 1475.78 L1059.11 1479.67 L1054.17 1479.67 L1054.17 1487.82 L1049.52 1487.82 L1049.52 1479.67 L1033.92 1479.67 L1033.92 1475.16 L1048.3 1453.26 Z" fill="#000000" fill-rule="evenodd" fill-opacity="1" /><path clip-path="url(#clip410)" d="M 0 0 M1471.33 1468.68 Q1468.18 1468.68 1466.33 1470.83 Q1464.5 1472.98 1464.5 1476.73 Q1464.5 1480.46 1466.33 1482.63 Q1468.18 1484.79 1471.33 1484.79 Q1474.47 1484.79 1476.3 1482.63 Q1478.15 1480.46 1478.15 1476.73 Q1478.15 1472.98 1476.3 1470.83 Q1474.47 1468.68 1471.33 1468.68 M1480.61 1454.02 L1480.61 1458.28 Q1478.85 1457.45 1477.04 1457.01 Q1475.26 1456.57 1473.5 1456.57 Q1468.87 1456.57 1466.42 1459.69 Q1463.99 1462.82 1463.64 1469.14 Q1465.01 1467.13 1467.07 1466.06 Q1469.13 1464.97 1471.6 1464.97 Q1476.81 1464.97 1479.82 1468.14 Q1482.85 1471.29 1482.85 1476.73 Q1482.85 1482.06 1479.71 1485.27 Q1476.56 1488.49 1471.33 1488.49 Q1465.33 1488.49 1462.16 1483.91 Q1458.99 1479.3 1458.99 1470.57 Q1458.99 1462.38 1462.88 1457.52 Q1466.77 1452.63 1473.32 1452.63 Q1475.08 1452.63 1476.86 1452.98 Q1478.66 1453.33 1480.61 1454.02 Z" fill="#000000" fill-rule="evenodd" fill-opacity="1" /><path clip-path="url(#clip410)" d="M 0 0 M1895.33 1471.41 Q1892 1471.41 1890.07 1473.19 Q1888.18 1474.97 1888.18 1478.1 Q1888.18 1481.22 1890.07 1483 Q1892 1484.79 1895.33 1484.79 Q1898.66 1484.79 1900.58 1483 Q1902.5 1481.2 1902.5 1478.1 Q1902.5 1474.97 1900.58 1473.19 Q1898.69 1471.41 1895.33 1471.41 M1890.65 1469.42 Q1887.64 1468.68 1885.95 1466.62 Q1884.29 1464.56 1884.29 1461.59 Q1884.29 1457.45 1887.23 1455.04 Q1890.19 1452.63 1895.33 1452.63 Q1900.49 1452.63 1903.43 1455.04 Q1906.37 1457.45 1906.37 1461.59 Q1906.37 1464.56 1904.68 1466.62 Q1903.01 1468.68 1900.03 1469.42 Q1903.41 1470.2 1905.28 1472.5 Q1907.18 1474.79 1907.18 1478.1 Q1907.18 1483.12 1904.1 1485.81 Q1901.05 1488.49 1895.33 1488.49 Q1889.61 1488.49 1886.53 1485.81 Q1883.48 1483.12 1883.48 1478.1 Q1883.48 1474.79 1885.38 1472.5 Q1887.27 1470.2 1890.65 1469.42 M1888.94 1462.03 Q1888.94 1464.72 1890.61 1466.22 Q1892.3 1467.73 1895.33 1467.73 Q1898.34 1467.73 1900.03 1466.22 Q1901.74 1464.72 1901.74 1462.03 Q1901.74 1459.35 1900.03 1457.84 Q1898.34 1456.34 1895.33 1456.34 Q1892.3 1456.34 1890.61 1457.84 Q1888.94 1459.35 1888.94 1462.03 Z" fill="#000000" fill-rule="evenodd" fill-opacity="1" /><path clip-path="url(#clip410)" d="M 0 0 M2294.42 1483.88 L2302.06 1483.88 L2302.06 1457.52 L2293.75 1459.19 L2293.75 1454.93 L2302.02 1453.26 L2306.69 1453.26 L2306.69 1483.88 L2314.33 1483.88 L2314.33 1487.82 L2294.42 1487.82 L2294.42 1483.88 Z" fill="#000000" fill-rule="evenodd" fill-opacity="1" /><path clip-path="url(#clip410)" d="M 0 0 M2333.78 1456.34 Q2330.17 1456.34 2328.34 1459.9 Q2326.53 1463.44 2326.53 1470.57 Q2326.53 1477.68 2328.34 1481.25 Q2330.17 1484.79 2333.78 1484.79 Q2337.41 1484.79 2339.22 1481.25 Q2341.04 1477.68 2341.04 1470.57 Q2341.04 1463.44 2339.22 1459.9 Q2337.41 1456.34 2333.78 1456.34 M2333.78 1452.63 Q2339.59 1452.63 2342.64 1457.24 Q2345.72 1461.82 2345.72 1470.57 Q2345.72 1479.3 2342.64 1483.91 Q2339.59 1488.49 2333.78 1488.49 Q2327.97 1488.49 2324.89 1483.91 Q2321.83 1479.3 2321.83 1470.57 Q2321.83 1461.82 2324.89 1457.24 Q2327.97 1452.63 2333.78 1452.63 Z" fill="#000000" fill-rule="evenodd" fill-opacity="1" /><path clip-path="url(#clip410)" d="M 0 0 M1232.59 1530.6 Q1232.59 1532.85 1229.33 1532.85 L1218.26 1532.85 L1213.84 1555.43 Q1213.75 1556.01 1213.62 1556.33 Q1213.52 1556.65 1213.23 1557.2 Q1212.97 1557.71 1212.43 1557.97 Q1211.91 1558.26 1211.14 1558.26 Q1210.17 1558.26 1209.69 1557.68 Q1209.24 1557.13 1209.24 1556.46 Q1209.24 1556.04 1209.88 1554.04 L1216.35 1532.85 L1210.88 1532.85 Q1205.73 1532.85 1202.51 1537.94 Q1201.99 1538.61 1201.7 1538.68 Q1201.57 1538.71 1201.44 1538.71 Q1201.09 1538.71 1200.86 1538.55 Q1200.67 1538.39 1200.67 1538.23 L1200.64 1538.07 Q1200.64 1537.84 1201.15 1536.94 Q1201.7 1536.01 1202.67 1534.62 Q1203.67 1533.24 1204.66 1532.14 Q1205.98 1530.72 1207.47 1529.98 Q1208.95 1529.21 1209.69 1529.11 Q1210.46 1529.02 1211.46 1529.02 L1229.95 1529.02 Q1230.78 1529.02 1231.23 1529.08 Q1231.68 1529.11 1232.14 1529.5 Q1232.59 1529.85 1232.59 1530.6 Z" fill="#000000" fill-rule="evenodd" fill-opacity="1" /><path clip-path="url(#clip410)" d="M 0 0 M1250.88 1540.97 Q1250.88 1529.82 1255.03 1520.84 Q1256.8 1517.07 1259.28 1513.91 Q1261.76 1510.76 1263.41 1509.37 Q1265.05 1507.99 1265.5 1507.99 Q1266.14 1507.99 1266.18 1508.63 Q1266.18 1508.95 1265.31 1509.76 Q1254.68 1520.58 1254.71 1540.97 Q1254.71 1561.42 1265.05 1571.82 Q1266.18 1572.95 1266.18 1573.3 Q1266.18 1573.94 1265.5 1573.94 Q1265.05 1573.94 1263.47 1572.62 Q1261.89 1571.3 1259.45 1568.28 Q1257 1565.25 1255.23 1561.55 Q1250.88 1552.56 1250.88 1540.97 Z" fill="#000000" fill-rule="evenodd" fill-opacity="1" /><path clip-path="url(#clip410)" d="M 0 0 M1276.21 1557.45 L1276.21 1555.43 Q1279.72 1555.43 1280.52 1555.01 Q1281.33 1554.56 1281.33 1552.43 L1281.33 1534.75 Q1281.33 1532.3 1280.46 1531.69 Q1279.62 1531.08 1276.21 1531.08 L1276.21 1529.02 L1285.48 1528.31 L1285.48 1535.23 Q1288.57 1528.31 1295.24 1528.31 Q1300.2 1528.31 1302.16 1530.76 Q1303.61 1532.4 1303.9 1534.23 Q1304.23 1536.07 1304.23 1540.84 L1304.23 1553.43 Q1304.29 1554.81 1305.35 1555.14 Q1306.42 1555.43 1309.38 1555.43 L1309.38 1557.45 Q1302.65 1557.26 1301.97 1557.26 Q1301.46 1557.26 1294.53 1557.45 L1294.53 1555.43 Q1298.04 1555.43 1298.85 1555.01 Q1299.68 1554.56 1299.68 1552.43 L1299.68 1537.07 Q1299.68 1533.72 1298.65 1531.75 Q1297.62 1529.76 1294.79 1529.76 Q1291.37 1529.76 1288.64 1532.62 Q1285.9 1535.49 1285.9 1540.32 L1285.9 1552.43 Q1285.9 1554.56 1286.71 1555.01 Q1287.54 1555.43 1291.02 1555.43 L1291.02 1557.45 Q1284.29 1557.26 1283.65 1557.26 Q1283.13 1557.26 1276.21 1557.45 Z" fill="#000000" fill-rule="evenodd" fill-opacity="1" /><path clip-path="url(#clip410)" d="M 0 0 M1312.44 1556.59 L1312.44 1547.89 Q1312.44 1547.15 1312.47 1546.89 Q1312.51 1546.63 1312.7 1546.44 Q1312.89 1546.25 1313.28 1546.25 Q1313.73 1546.25 1313.89 1546.44 Q1314.09 1546.63 1314.21 1547.37 Q1315.21 1551.92 1317.34 1554.33 Q1319.5 1556.71 1323.39 1556.71 Q1327.1 1556.71 1328.96 1555.07 Q1330.83 1553.43 1330.83 1550.72 Q1330.83 1545.89 1323.97 1544.67 Q1320.01 1543.86 1318.37 1543.35 Q1316.73 1542.8 1315.28 1541.61 Q1312.44 1539.29 1312.44 1536.01 Q1312.44 1532.72 1314.92 1530.31 Q1317.43 1527.89 1322.97 1527.89 Q1326.68 1527.89 1329.19 1529.76 Q1329.93 1529.18 1330.32 1528.7 Q1331.19 1527.89 1331.64 1527.89 Q1332.15 1527.89 1332.25 1528.24 Q1332.35 1528.57 1332.35 1529.5 L1332.35 1536.13 Q1332.35 1536.88 1332.31 1537.13 Q1332.28 1537.39 1332.09 1537.58 Q1331.9 1537.74 1331.48 1537.74 Q1330.74 1537.74 1330.7 1537.13 Q1330.19 1529.15 1322.97 1529.15 Q1319.08 1529.15 1317.34 1530.66 Q1315.6 1532.14 1315.6 1534.17 Q1315.6 1535.3 1316.11 1536.17 Q1316.66 1537 1317.34 1537.52 Q1318.05 1538 1319.33 1538.49 Q1320.62 1538.94 1321.4 1539.1 Q1322.2 1539.26 1323.71 1539.58 Q1329 1540.58 1331.22 1542.74 Q1333.99 1545.51 1333.99 1549.02 Q1333.99 1552.91 1331.35 1555.55 Q1328.71 1558.2 1323.39 1558.2 Q1319.11 1558.2 1316.11 1555.33 Q1315.73 1555.72 1315.44 1556.07 Q1315.15 1556.39 1315.02 1556.52 Q1314.92 1556.65 1314.89 1556.75 Q1314.86 1556.81 1314.79 1556.88 Q1313.47 1558.2 1313.15 1558.2 Q1312.64 1558.2 1312.54 1557.84 Q1312.44 1557.52 1312.44 1556.59 Z" fill="#000000" fill-rule="evenodd" fill-opacity="1" /><path clip-path="url(#clip410)" d="M 0 0 M1338.15 1573.3 Q1338.15 1572.98 1338.99 1572.17 Q1349.62 1561.35 1349.62 1540.97 Q1349.62 1520.51 1339.41 1510.18 Q1338.15 1508.99 1338.15 1508.63 Q1338.15 1507.99 1338.8 1507.99 Q1339.25 1507.99 1340.83 1509.31 Q1342.44 1510.63 1344.85 1513.65 Q1347.3 1516.68 1349.1 1520.39 Q1353.45 1529.37 1353.45 1540.97 Q1353.45 1552.11 1349.3 1561.09 Q1347.52 1564.86 1345.04 1568.02 Q1342.57 1571.17 1340.92 1572.56 Q1339.28 1573.94 1338.8 1573.94 Q1338.15 1573.94 1338.15 1573.3 Z" fill="#000000" fill-rule="evenodd" fill-opacity="1" /><polyline clip-path="url(#clip413)" style="stroke:#000000; stroke-width:2; stroke-opacity:0.1; fill:none" points="
  211.363,1341.06 2352.76,1341.06 
  "/>
<polyline clip-path="url(#clip413)" style="stroke:#000000; stroke-width:2; stroke-opacity:0.1; fill:none" points="
  211.363,1008.99 2352.76,1008.99 
  "/>
<polyline clip-path="url(#clip413)" style="stroke:#000000; stroke-width:2; stroke-opacity:0.1; fill:none" points="
  211.363,676.919 2352.76,676.919 
  "/>
<polyline clip-path="url(#clip413)" style="stroke:#000000; stroke-width:2; stroke-opacity:0.1; fill:none" points="
  211.363,344.851 2352.76,344.851 
  "/>
<polyline clip-path="url(#clip410)" style="stroke:#000000; stroke-width:4; stroke-opacity:1; fill:none" points="
  211.363,1427.15 211.363,123.472 
  "/>
<polyline clip-path="url(#clip410)" style="stroke:#000000; stroke-width:4; stroke-opacity:1; fill:none" points="
  211.363,1341.06 237.06,1341.06 
  "/>
<polyline clip-path="url(#clip410)" style="stroke:#000000; stroke-width:4; stroke-opacity:1; fill:none" points="
  211.363,1008.99 237.06,1008.99 
  "/>
<polyline clip-path="url(#clip410)" style="stroke:#000000; stroke-width:4; stroke-opacity:1; fill:none" points="
  211.363,676.919 237.06,676.919 
  "/>
<polyline clip-path="url(#clip410)" style="stroke:#000000; stroke-width:4; stroke-opacity:1; fill:none" points="
  211.363,344.851 237.06,344.851 
  "/>
<path clip-path="url(#clip410)" d="M 0 0 M127.284 1354.4 L143.604 1354.4 L143.604 1358.34 L121.659 1358.34 L121.659 1354.4 Q124.321 1351.65 128.905 1347.02 Q133.511 1342.36 134.692 1341.02 Q136.937 1338.5 137.817 1336.76 Q138.72 1335 138.72 1333.31 Q138.72 1330.56 136.775 1328.82 Q134.854 1327.09 131.752 1327.09 Q129.553 1327.09 127.099 1327.85 Q124.669 1328.61 121.891 1330.16 L121.891 1325.44 Q124.715 1324.31 127.169 1323.73 Q129.622 1323.15 131.659 1323.15 Q137.03 1323.15 140.224 1325.84 Q143.419 1328.52 143.419 1333.01 Q143.419 1335.14 142.608 1337.06 Q141.821 1338.96 139.715 1341.55 Q139.136 1342.22 136.034 1345.44 Q132.933 1348.64 127.284 1354.4 Z" fill="#000000" fill-rule="evenodd" fill-opacity="1" /><path clip-path="url(#clip410)" d="M 0 0 M163.418 1326.85 Q159.807 1326.85 157.979 1330.42 Q156.173 1333.96 156.173 1341.09 Q156.173 1348.2 157.979 1351.76 Q159.807 1355.3 163.418 1355.3 Q167.053 1355.3 168.858 1351.76 Q170.687 1348.2 170.687 1341.09 Q170.687 1333.96 168.858 1330.42 Q167.053 1326.85 163.418 1326.85 M163.418 1323.15 Q169.229 1323.15 172.284 1327.76 Q175.363 1332.34 175.363 1341.09 Q175.363 1349.82 172.284 1354.42 Q169.229 1359.01 163.418 1359.01 Q157.608 1359.01 154.53 1354.42 Q151.474 1349.82 151.474 1341.09 Q151.474 1332.34 154.53 1327.76 Q157.608 1323.15 163.418 1323.15 Z" fill="#000000" fill-rule="evenodd" fill-opacity="1" /><path clip-path="url(#clip410)" d="M 0 0 M137.423 1007.63 Q140.78 1008.35 142.655 1010.62 Q144.553 1012.89 144.553 1016.22 Q144.553 1021.34 141.034 1024.14 Q137.516 1026.94 131.034 1026.94 Q128.858 1026.94 126.544 1026.5 Q124.252 1026.08 121.798 1025.23 L121.798 1020.71 Q123.743 1021.85 126.058 1022.43 Q128.372 1023 130.895 1023 Q135.294 1023 137.585 1021.27 Q139.9 1019.53 139.9 1016.22 Q139.9 1013.17 137.747 1011.45 Q135.618 1009.72 131.798 1009.72 L127.771 1009.72 L127.771 1005.87 L131.983 1005.87 Q135.433 1005.87 137.261 1004.51 Q139.09 1003.12 139.09 1000.53 Q139.09 997.865 137.192 996.453 Q135.317 995.018 131.798 995.018 Q129.877 995.018 127.678 995.434 Q125.479 995.851 122.84 996.731 L122.84 992.564 Q125.502 991.823 127.817 991.453 Q130.155 991.083 132.215 991.083 Q137.539 991.083 140.641 993.513 Q143.743 995.921 143.743 1000.04 Q143.743 1002.91 142.099 1004.9 Q140.456 1006.87 137.423 1007.63 Z" fill="#000000" fill-rule="evenodd" fill-opacity="1" /><path clip-path="url(#clip410)" d="M 0 0 M163.418 994.786 Q159.807 994.786 157.979 998.351 Q156.173 1001.89 156.173 1009.02 Q156.173 1016.13 157.979 1019.69 Q159.807 1023.24 163.418 1023.24 Q167.053 1023.24 168.858 1019.69 Q170.687 1016.13 170.687 1009.02 Q170.687 1001.89 168.858 998.351 Q167.053 994.786 163.418 994.786 M163.418 991.083 Q169.229 991.083 172.284 995.689 Q175.363 1000.27 175.363 1009.02 Q175.363 1017.75 172.284 1022.36 Q169.229 1026.94 163.418 1026.94 Q157.608 1026.94 154.53 1022.36 Q151.474 1017.75 151.474 1009.02 Q151.474 1000.27 154.53 995.689 Q157.608 991.083 163.418 991.083 Z" fill="#000000" fill-rule="evenodd" fill-opacity="1" /><path clip-path="url(#clip410)" d="M 0 0 M136.104 663.713 L124.298 682.162 L136.104 682.162 L136.104 663.713 M134.877 659.639 L140.757 659.639 L140.757 682.162 L145.687 682.162 L145.687 686.051 L140.757 686.051 L140.757 694.199 L136.104 694.199 L136.104 686.051 L120.502 686.051 L120.502 681.537 L134.877 659.639 Z" fill="#000000" fill-rule="evenodd" fill-opacity="1" /><path clip-path="url(#clip410)" d="M 0 0 M163.418 662.718 Q159.807 662.718 157.979 666.283 Q156.173 669.824 156.173 676.954 Q156.173 684.06 157.979 687.625 Q159.807 691.167 163.418 691.167 Q167.053 691.167 168.858 687.625 Q170.687 684.06 170.687 676.954 Q170.687 669.824 168.858 666.283 Q167.053 662.718 163.418 662.718 M163.418 659.014 Q169.229 659.014 172.284 663.621 Q175.363 668.204 175.363 676.954 Q175.363 685.681 172.284 690.287 Q169.229 694.871 163.418 694.871 Q157.608 694.871 154.53 690.287 Q151.474 685.681 151.474 676.954 Q151.474 668.204 154.53 663.621 Q157.608 659.014 163.418 659.014 Z" fill="#000000" fill-rule="evenodd" fill-opacity="1" /><path clip-path="url(#clip410)" d="M 0 0 M123.303 327.571 L141.659 327.571 L141.659 331.506 L127.585 331.506 L127.585 339.978 Q128.604 339.631 129.622 339.469 Q130.641 339.284 131.659 339.284 Q137.446 339.284 140.826 342.455 Q144.206 345.626 144.206 351.043 Q144.206 356.622 140.733 359.724 Q137.261 362.802 130.942 362.802 Q128.766 362.802 126.497 362.432 Q124.252 362.062 121.845 361.321 L121.845 356.622 Q123.928 357.756 126.15 358.312 Q128.372 358.867 130.849 358.867 Q134.854 358.867 137.192 356.761 Q139.53 354.654 139.53 351.043 Q139.53 347.432 137.192 345.326 Q134.854 343.219 130.849 343.219 Q128.974 343.219 127.099 343.636 Q125.247 344.052 123.303 344.932 L123.303 327.571 Z" fill="#000000" fill-rule="evenodd" fill-opacity="1" /><path clip-path="url(#clip410)" d="M 0 0 M163.418 330.65 Q159.807 330.65 157.979 334.214 Q156.173 337.756 156.173 344.886 Q156.173 351.992 157.979 355.557 Q159.807 359.099 163.418 359.099 Q167.053 359.099 168.858 355.557 Q170.687 351.992 170.687 344.886 Q170.687 337.756 168.858 334.214 Q167.053 330.65 163.418 330.65 M163.418 326.946 Q169.229 326.946 172.284 331.552 Q175.363 336.136 175.363 344.886 Q175.363 353.613 172.284 358.219 Q169.229 362.802 163.418 362.802 Q157.608 362.802 154.53 358.219 Q151.474 353.613 151.474 344.886 Q151.474 336.136 154.53 331.552 Q157.608 326.946 163.418 326.946 Z" fill="#000000" fill-rule="evenodd" fill-opacity="1" /><path clip-path="url(#clip410)" d="M 0 0 M50.1836 835.816 Q50.2159 835.816 51.3753 836.009 L80.6504 843.352 Q82.1963 843.739 83.7422 844.834 Q85.3202 845.897 86.6729 847.604 Q88.0577 849.278 88.8951 851.855 Q89.7647 854.399 89.7647 857.33 Q89.7647 862 88.7663 864.061 Q87.8001 866.09 85.7389 866.09 Q83.9354 866.09 82.9048 864.963 Q81.9064 863.835 81.9064 862.547 Q81.9064 861.323 82.6149 860.679 Q83.3235 860.035 84.2252 860.035 Q85.2236 860.035 86.222 860.711 Q87.2526 861.388 87.6391 862.74 Q88.3154 860.583 88.3154 857.459 Q88.3154 850.856 81.3267 848.022 Q81.2301 847.958 81.1979 847.958 L72.4701 845.768 L72.4057 845.864 Q73.0498 846.412 73.7905 847.282 Q74.4991 848.119 75.3686 849.922 Q76.2382 851.726 76.2382 853.497 Q76.2382 857.201 73.4041 859.745 Q70.5378 862.257 65.8035 862.257 Q62.3575 862.257 58.9114 860.872 Q55.4332 859.455 52.8889 857.265 Q50.3125 855.043 48.7022 852.209 Q47.0919 849.343 47.0919 846.573 Q47.0919 844.641 48.2513 842.998 Q49.3785 841.356 51.2464 840.454 Q49.7006 840.293 49.0564 839.423 Q48.4123 838.522 48.4123 837.749 Q48.4123 836.879 48.8954 836.364 Q49.3463 835.816 50.1836 835.816 M54.2094 841.227 Q54.0161 841.227 53.5009 841.356 Q52.9534 841.484 52.0838 841.871 Q51.2142 842.225 50.4413 842.773 Q49.6684 843.32 49.1209 844.319 Q48.5411 845.285 48.5411 846.509 Q48.5411 848.505 50.2159 850.502 Q51.8584 852.499 54.4026 853.884 Q56.8503 855.172 61.5845 856.396 Q66.3188 857.587 68.7342 857.587 Q71.1175 857.587 72.9532 856.557 Q74.7889 855.526 74.7889 853.304 Q74.7889 850.728 72.4057 847.958 Q69.9258 845.092 67.8003 844.608 L55.2078 841.42 Q54.4348 841.227 54.2094 841.227 Z" fill="#000000" fill-rule="evenodd" fill-opacity="1" /><path clip-path="url(#clip410)" d="M 0 0 M34.6809 829.065 Q26.8807 829.065 20.5909 826.157 Q17.9532 824.917 15.7439 823.181 Q13.5346 821.445 12.5652 820.296 Q11.5958 819.146 11.5958 818.83 Q11.5958 818.379 12.0466 818.357 Q12.2721 818.357 12.8357 818.966 Q20.4105 826.405 34.6809 826.383 Q48.9964 826.383 56.2782 819.146 Q57.0672 818.357 57.3152 818.357 Q57.7661 818.357 57.7661 818.83 Q57.7661 819.146 56.8418 820.251 Q55.9175 821.355 53.7983 823.069 Q51.6792 824.782 49.0866 826.022 Q42.7968 829.065 34.6809 829.065 Z" fill="#000000" fill-rule="evenodd" fill-opacity="1" /><path clip-path="url(#clip410)" d="M 0 0 M46.2235 811.336 Q45.3894 811.336 45.1414 811.269 Q44.8934 811.178 44.5101 810.818 L34.6358 801.958 Q29.1802 797.111 24.4234 797.111 Q21.3348 797.111 19.1255 798.734 Q16.9162 800.335 16.9162 803.288 Q16.9162 805.317 18.1561 807.03 Q19.396 808.744 21.6053 809.533 Q21.5603 809.397 21.5603 808.924 Q21.5603 807.774 22.2817 807.143 Q23.0031 806.489 23.9725 806.489 Q25.2124 806.489 25.8211 807.301 Q26.4072 808.09 26.4072 808.879 Q26.4072 809.195 26.3396 809.623 Q26.272 810.029 25.6407 810.682 Q24.987 811.336 23.8372 811.336 Q20.6134 811.336 18.0434 808.901 Q15.4733 806.444 15.4733 802.702 Q15.4733 798.464 17.9983 795.691 Q20.5007 792.895 24.4234 792.895 Q25.7985 792.895 27.061 793.323 Q28.3009 793.729 29.2703 794.293 Q30.2397 794.834 31.7953 796.322 Q33.3508 797.81 34.4555 799.005 Q35.5601 800.199 37.9047 802.882 L42.6615 807.774 L42.6615 799.455 Q42.6615 795.398 42.3008 795.082 Q41.647 794.631 38.1978 794.067 L38.1978 792.895 L46.2235 794.203 L46.2235 811.336 Z" fill="#000000" fill-rule="evenodd" fill-opacity="1" /><path clip-path="url(#clip410)" d="M 0 0 M57.3152 788.471 Q57.0898 788.471 56.5262 787.885 Q48.9513 780.446 34.6809 780.446 Q20.3654 780.446 13.1288 787.592 Q12.2946 788.471 12.0466 788.471 Q11.5958 788.471 11.5958 788.02 Q11.5958 787.705 12.5201 786.6 Q13.4444 785.473 15.5635 783.782 Q17.6827 782.069 20.2752 780.806 Q26.565 777.763 34.6809 777.763 Q42.4812 777.763 48.771 780.671 Q51.4086 781.911 53.618 783.647 Q55.8273 785.383 56.7967 786.533 Q57.7661 787.682 57.7661 788.02 Q57.7661 788.471 57.3152 788.471 Z" fill="#000000" fill-rule="evenodd" fill-opacity="1" /><path clip-path="url(#clip410)" d="M 0 0 M59.7488 763.702 Q48.6056 763.702 39.6201 759.548 Q35.852 757.776 32.6959 755.296 Q29.5397 752.817 28.1548 751.174 Q26.77 749.532 26.77 749.081 Q26.77 748.437 27.4141 748.404 Q27.7362 748.404 28.5413 749.274 Q39.3625 759.902 59.7488 759.87 Q80.1995 759.87 90.602 749.532 Q91.7292 748.404 92.0835 748.404 Q92.7276 748.404 92.7276 749.081 Q92.7276 749.532 91.4071 751.11 Q90.0867 752.688 87.0594 755.135 Q84.032 757.583 80.3283 759.354 Q71.3429 763.702 59.7488 763.702 Z" fill="#000000" fill-rule="evenodd" fill-opacity="1" /><path clip-path="url(#clip410)" d="M 0 0 M49.3785 706.427 Q51.6329 706.427 51.6329 709.679 L51.6329 720.758 L74.2092 725.17 Q74.7889 725.267 75.111 725.396 Q75.433 725.492 75.9805 725.782 Q76.4958 726.04 76.7535 726.587 Q77.0433 727.103 77.0433 727.876 Q77.0433 728.842 76.4636 729.325 Q75.9161 729.776 75.2398 729.776 Q74.8211 729.776 72.8244 729.132 L51.6329 722.658 L51.6329 728.133 Q51.6329 733.286 56.7214 736.507 Q57.3978 737.022 57.4622 737.312 Q57.4944 737.441 57.4944 737.57 Q57.4944 737.924 57.3333 738.149 Q57.1723 738.343 57.0113 738.343 L56.8503 738.375 Q56.6248 738.375 55.7231 737.859 Q54.7891 737.312 53.4042 736.346 Q52.0194 735.347 50.9244 734.349 Q49.5073 733.029 48.7666 731.547 Q47.9936 730.066 47.897 729.325 Q47.8004 728.552 47.8004 727.554 L47.8004 709.067 Q47.8004 708.23 47.8648 707.779 Q47.897 707.328 48.2835 706.877 Q48.6378 706.427 49.3785 706.427 Z" fill="#000000" fill-rule="evenodd" fill-opacity="1" /><path clip-path="url(#clip410)" d="M 0 0 M92.0835 709.858 Q91.7614 709.858 90.9563 709.02 Q80.1351 698.392 59.7488 698.392 Q39.2981 698.392 28.96 708.601 Q27.7684 709.858 27.4141 709.858 Q26.77 709.858 26.77 709.213 Q26.77 708.763 28.0904 707.184 Q29.4109 705.574 32.4382 703.159 Q35.4656 700.711 39.1692 698.908 Q48.1547 694.56 59.7488 694.56 Q70.892 694.56 79.8775 698.714 Q83.6455 700.486 86.8017 702.965 Q89.9579 705.445 91.3427 707.088 Q92.7276 708.73 92.7276 709.213 Q92.7276 709.858 92.0835 709.858 Z" fill="#000000" fill-rule="evenodd" fill-opacity="1" /><path clip-path="url(#clip410)" d="M 0 0 M574.67 18.8205 L574.67 41.5461 L584.96 41.5461 Q590.671 41.5461 593.79 38.5889 Q596.91 35.6318 596.91 30.163 Q596.91 24.7348 593.79 21.7777 Q590.671 18.8205 584.96 18.8205 L574.67 18.8205 M566.487 12.096 L584.96 12.096 Q595.127 12.096 600.312 16.714 Q605.538 21.2916 605.538 30.163 Q605.538 39.1155 600.312 43.6931 Q595.127 48.2706 584.96 48.2706 L574.67 48.2706 L574.67 72.576 L566.487 72.576 L566.487 12.096 Z" fill="#000000" fill-rule="evenodd" fill-opacity="1" /><path clip-path="url(#clip410)" d="M 0 0 M653.906 45.1919 L653.906 72.576 L646.452 72.576 L646.452 45.4349 Q646.452 38.994 643.941 35.7938 Q641.429 32.5936 636.406 32.5936 Q630.37 32.5936 626.886 36.4419 Q623.403 40.2903 623.403 46.9338 L623.403 72.576 L615.908 72.576 L615.908 9.54393 L623.403 9.54393 L623.403 34.2544 Q626.076 30.163 629.682 28.1376 Q633.327 26.1121 638.067 26.1121 Q645.885 26.1121 649.896 30.9732 Q653.906 35.7938 653.906 45.1919 Z" fill="#000000" fill-rule="evenodd" fill-opacity="1" /><path clip-path="url(#clip410)" d="M 0 0 M686.354 32.4315 Q680.358 32.4315 676.875 37.1306 Q673.391 41.7891 673.391 49.9314 Q673.391 58.0738 676.834 62.7728 Q680.318 67.4314 686.354 67.4314 Q692.308 67.4314 695.792 62.7323 Q699.276 58.0333 699.276 49.9314 Q699.276 41.8701 695.792 37.1711 Q692.308 32.4315 686.354 32.4315 M686.354 26.1121 Q696.076 26.1121 701.626 32.4315 Q707.175 38.7509 707.175 49.9314 Q707.175 61.0714 701.626 67.4314 Q696.076 73.7508 686.354 73.7508 Q676.591 73.7508 671.041 67.4314 Q665.532 61.0714 665.532 49.9314 Q665.532 38.7509 671.041 32.4315 Q676.591 26.1121 686.354 26.1121 Z" fill="#000000" fill-rule="evenodd" fill-opacity="1" /><path clip-path="url(#clip410)" d="M 0 0 M726.903 14.324 L726.903 27.2059 L742.256 27.2059 L742.256 32.9987 L726.903 32.9987 L726.903 57.6282 Q726.903 63.1779 728.402 64.7578 Q729.941 66.3376 734.6 66.3376 L742.256 66.3376 L742.256 72.576 L734.6 72.576 Q725.972 72.576 722.69 69.3758 Q719.409 66.1351 719.409 57.6282 L719.409 32.9987 L713.94 32.9987 L713.94 27.2059 L719.409 27.2059 L719.409 14.324 L726.903 14.324 Z" fill="#000000" fill-rule="evenodd" fill-opacity="1" /><path clip-path="url(#clip410)" d="M 0 0 M769.64 32.4315 Q763.645 32.4315 760.161 37.1306 Q756.677 41.7891 756.677 49.9314 Q756.677 58.0738 760.121 62.7728 Q763.604 67.4314 769.64 67.4314 Q775.595 67.4314 779.079 62.7323 Q782.563 58.0333 782.563 49.9314 Q782.563 41.8701 779.079 37.1711 Q775.595 32.4315 769.64 32.4315 M769.64 26.1121 Q779.362 26.1121 784.912 32.4315 Q790.462 38.7509 790.462 49.9314 Q790.462 61.0714 784.912 67.4314 Q779.362 73.7508 769.64 73.7508 Q759.878 73.7508 754.328 67.4314 Q748.819 61.0714 748.819 49.9314 Q748.819 38.7509 754.328 32.4315 Q759.878 26.1121 769.64 26.1121 Z" fill="#000000" fill-rule="evenodd" fill-opacity="1" /><path clip-path="url(#clip410)" d="M 0 0 M840.531 45.1919 L840.531 72.576 L833.077 72.576 L833.077 45.4349 Q833.077 38.994 830.566 35.7938 Q828.054 32.5936 823.031 32.5936 Q816.995 32.5936 813.512 36.4419 Q810.028 40.2903 810.028 46.9338 L810.028 72.576 L802.534 72.576 L802.534 27.2059 L810.028 27.2059 L810.028 34.2544 Q812.701 30.163 816.307 28.1376 Q819.952 26.1121 824.692 26.1121 Q832.51 26.1121 836.521 30.9732 Q840.531 35.7938 840.531 45.1919 Z" fill="#000000" fill-rule="evenodd" fill-opacity="1" /><path clip-path="url(#clip410)" d="M 0 0 M927.382 16.7545 L927.382 25.383 Q923.251 21.5346 918.551 19.6307 Q913.893 17.7268 908.627 17.7268 Q898.256 17.7268 892.747 24.0867 Q887.238 30.4061 887.238 42.3968 Q887.238 54.3469 892.747 60.7069 Q898.256 67.0263 908.627 67.0263 Q913.893 67.0263 918.551 65.1223 Q923.251 63.2184 927.382 59.3701 L927.382 67.9175 Q923.089 70.8341 918.268 72.2924 Q913.488 73.7508 908.141 73.7508 Q894.408 73.7508 886.509 65.3654 Q878.61 56.9395 878.61 42.3968 Q878.61 27.8135 886.509 19.4281 Q894.408 11.0023 908.141 11.0023 Q913.569 11.0023 918.349 12.4606 Q923.17 13.8784 927.382 16.7545 Z" fill="#000000" fill-rule="evenodd" fill-opacity="1" /><path clip-path="url(#clip410)" d="M 0 0 M957.278 32.4315 Q951.283 32.4315 947.799 37.1306 Q944.315 41.7891 944.315 49.9314 Q944.315 58.0738 947.759 62.7728 Q951.242 67.4314 957.278 67.4314 Q963.233 67.4314 966.717 62.7323 Q970.201 58.0333 970.201 49.9314 Q970.201 41.8701 966.717 37.1711 Q963.233 32.4315 957.278 32.4315 M957.278 26.1121 Q967 26.1121 972.55 32.4315 Q978.1 38.7509 978.1 49.9314 Q978.1 61.0714 972.55 67.4314 Q967 73.7508 957.278 73.7508 Q947.515 73.7508 941.966 67.4314 Q936.456 61.0714 936.456 49.9314 Q936.456 38.7509 941.966 32.4315 Q947.515 26.1121 957.278 26.1121 Z" fill="#000000" fill-rule="evenodd" fill-opacity="1" /><path clip-path="url(#clip410)" d="M 0 0 M1016.75 34.1734 Q1015.49 33.4443 1013.99 33.1202 Q1012.53 32.7556 1010.75 32.7556 Q1004.43 32.7556 1001.03 36.8875 Q997.666 40.9789 997.666 48.6757 L997.666 72.576 L990.171 72.576 L990.171 27.2059 L997.666 27.2059 L997.666 34.2544 Q1000.02 30.1225 1003.78 28.1376 Q1007.55 26.1121 1012.94 26.1121 Q1013.71 26.1121 1014.64 26.2337 Q1015.57 26.3147 1016.7 26.5172 L1016.75 34.1734 Z" fill="#000000" fill-rule="evenodd" fill-opacity="1" /><path clip-path="url(#clip410)" d="M 0 0 M1049.4 34.1734 Q1048.14 33.4443 1046.64 33.1202 Q1045.18 32.7556 1043.4 32.7556 Q1037.08 32.7556 1033.68 36.8875 Q1030.32 40.9789 1030.32 48.6757 L1030.32 72.576 L1022.82 72.576 L1022.82 27.2059 L1030.32 27.2059 L1030.32 34.2544 Q1032.67 30.1225 1036.43 28.1376 Q1040.2 26.1121 1045.59 26.1121 Q1046.36 26.1121 1047.29 26.2337 Q1048.22 26.3147 1049.36 26.5172 L1049.4 34.1734 Z" fill="#000000" fill-rule="evenodd" fill-opacity="1" /><path clip-path="url(#clip410)" d="M 0 0 M1094.2 48.0275 L1094.2 51.6733 L1059.93 51.6733 Q1060.41 59.3701 1064.55 63.421 Q1068.72 67.4314 1076.13 67.4314 Q1080.43 67.4314 1084.44 66.3781 Q1088.49 65.3249 1092.46 63.2184 L1092.46 70.267 Q1088.45 71.9684 1084.23 72.8596 Q1080.02 73.7508 1075.69 73.7508 Q1064.83 73.7508 1058.47 67.4314 Q1052.15 61.1119 1052.15 50.3365 Q1052.15 39.1965 1058.15 32.6746 Q1064.18 26.1121 1074.39 26.1121 Q1083.54 26.1121 1088.85 32.0264 Q1094.2 37.9003 1094.2 48.0275 M1086.75 45.84 Q1086.66 39.7232 1083.3 36.0774 Q1079.98 32.4315 1074.47 32.4315 Q1068.23 32.4315 1064.47 35.9558 Q1060.74 39.4801 1060.17 45.8805 L1086.75 45.84 Z" fill="#000000" fill-rule="evenodd" fill-opacity="1" /><path clip-path="url(#clip410)" d="M 0 0 M1106.43 9.54393 L1113.89 9.54393 L1113.89 72.576 L1106.43 72.576 L1106.43 9.54393 Z" fill="#000000" fill-rule="evenodd" fill-opacity="1" /><path clip-path="url(#clip410)" d="M 0 0 M1150.1 49.7694 Q1141.07 49.7694 1137.58 51.8354 Q1134.1 53.9013 1134.1 58.8839 Q1134.1 62.8538 1136.69 65.2034 Q1139.33 67.5124 1143.82 67.5124 Q1150.02 67.5124 1153.75 63.1374 Q1157.51 58.7219 1157.51 51.4303 L1157.51 49.7694 L1150.1 49.7694 M1164.97 46.6907 L1164.97 72.576 L1157.51 72.576 L1157.51 65.6895 Q1154.96 69.8214 1151.15 71.8063 Q1147.35 73.7508 1141.84 73.7508 Q1134.87 73.7508 1130.74 69.8619 Q1126.65 65.9325 1126.65 59.3701 Q1126.65 51.7138 1131.75 47.825 Q1136.9 43.9361 1147.06 43.9361 L1157.51 43.9361 L1157.51 43.2069 Q1157.51 38.0623 1154.11 35.2672 Q1150.75 32.4315 1144.63 32.4315 Q1140.74 32.4315 1137.06 33.3632 Q1133.37 34.295 1129.97 36.1584 L1129.97 29.2718 Q1134.06 27.692 1137.91 26.9223 Q1141.76 26.1121 1145.4 26.1121 Q1155.25 26.1121 1160.11 31.2163 Q1164.97 36.3204 1164.97 46.6907 Z" fill="#000000" fill-rule="evenodd" fill-opacity="1" /><path clip-path="url(#clip410)" d="M 0 0 M1187.69 14.324 L1187.69 27.2059 L1203.05 27.2059 L1203.05 32.9987 L1187.69 32.9987 L1187.69 57.6282 Q1187.69 63.1779 1189.19 64.7578 Q1190.73 66.3376 1195.39 66.3376 L1203.05 66.3376 L1203.05 72.576 L1195.39 72.576 Q1186.76 72.576 1183.48 69.3758 Q1180.2 66.1351 1180.2 57.6282 L1180.2 32.9987 L1174.73 32.9987 L1174.73 27.2059 L1180.2 27.2059 L1180.2 14.324 L1187.69 14.324 Z" fill="#000000" fill-rule="evenodd" fill-opacity="1" /><path clip-path="url(#clip410)" d="M 0 0 M1212.85 27.2059 L1220.3 27.2059 L1220.3 72.576 L1212.85 72.576 L1212.85 27.2059 M1212.85 9.54393 L1220.3 9.54393 L1220.3 18.9825 L1212.85 18.9825 L1212.85 9.54393 Z" fill="#000000" fill-rule="evenodd" fill-opacity="1" /><path clip-path="url(#clip410)" d="M 0 0 M1253.48 32.4315 Q1247.48 32.4315 1244 37.1306 Q1240.52 41.7891 1240.52 49.9314 Q1240.52 58.0738 1243.96 62.7728 Q1247.44 67.4314 1253.48 67.4314 Q1259.44 67.4314 1262.92 62.7323 Q1266.4 58.0333 1266.4 49.9314 Q1266.4 41.8701 1262.92 37.1711 Q1259.44 32.4315 1253.48 32.4315 M1253.48 26.1121 Q1263.2 26.1121 1268.75 32.4315 Q1274.3 38.7509 1274.3 49.9314 Q1274.3 61.0714 1268.75 67.4314 Q1263.2 73.7508 1253.48 73.7508 Q1243.72 73.7508 1238.17 67.4314 Q1232.66 61.0714 1232.66 49.9314 Q1232.66 38.7509 1238.17 32.4315 Q1243.72 26.1121 1253.48 26.1121 Z" fill="#000000" fill-rule="evenodd" fill-opacity="1" /><path clip-path="url(#clip410)" d="M 0 0 M1324.37 45.1919 L1324.37 72.576 L1316.92 72.576 L1316.92 45.4349 Q1316.92 38.994 1314.41 35.7938 Q1311.89 32.5936 1306.87 32.5936 Q1300.84 32.5936 1297.35 36.4419 Q1293.87 40.2903 1293.87 46.9338 L1293.87 72.576 L1286.37 72.576 L1286.37 27.2059 L1293.87 27.2059 L1293.87 34.2544 Q1296.54 30.163 1300.15 28.1376 Q1303.79 26.1121 1308.53 26.1121 Q1316.35 26.1121 1320.36 30.9732 Q1324.37 35.7938 1324.37 45.1919 Z" fill="#000000" fill-rule="evenodd" fill-opacity="1" /><path clip-path="url(#clip410)" d="M 0 0 M1368.16 28.5427 L1368.16 35.5912 Q1365 33.9709 1361.6 33.1607 Q1358.2 32.3505 1354.55 32.3505 Q1349 32.3505 1346.21 34.0519 Q1343.45 35.7533 1343.45 39.156 Q1343.45 41.7486 1345.44 43.2475 Q1347.42 44.7058 1353.42 46.0426 L1355.97 46.6097 Q1363.91 48.3111 1367.23 51.4303 Q1370.59 54.509 1370.59 60.0587 Q1370.59 66.3781 1365.57 70.0644 Q1360.59 73.7508 1351.84 73.7508 Q1348.19 73.7508 1344.22 73.0216 Q1340.29 72.3329 1335.92 70.9151 L1335.92 63.2184 Q1340.05 65.3654 1344.06 66.4591 Q1348.07 67.5124 1352 67.5124 Q1357.26 67.5124 1360.1 65.73 Q1362.94 63.9071 1362.94 60.6258 Q1362.94 57.5877 1360.87 55.9673 Q1358.84 54.3469 1351.92 52.8481 L1349.32 52.2405 Q1342.4 50.7821 1339.32 47.7845 Q1336.24 44.7463 1336.24 39.4801 Q1336.24 33.0797 1340.78 29.5959 Q1345.31 26.1121 1353.66 26.1121 Q1357.79 26.1121 1361.44 26.7198 Q1365.08 27.3274 1368.16 28.5427 Z" fill="#000000" fill-rule="evenodd" fill-opacity="1" /><path clip-path="url(#clip410)" d="M 0 0 M1403.49 27.2059 L1411.38 27.2059 L1425.56 65.2844 L1439.74 27.2059 L1447.64 27.2059 L1430.63 72.576 L1420.5 72.576 L1403.49 27.2059 Z" fill="#000000" fill-rule="evenodd" fill-opacity="1" /><path clip-path="url(#clip410)" d="M 0 0 M1486.85 28.5427 L1486.85 35.5912 Q1483.69 33.9709 1480.29 33.1607 Q1476.89 32.3505 1473.24 32.3505 Q1467.69 32.3505 1464.9 34.0519 Q1462.14 35.7533 1462.14 39.156 Q1462.14 41.7486 1464.13 43.2475 Q1466.11 44.7058 1472.11 46.0426 L1474.66 46.6097 Q1482.6 48.3111 1485.92 51.4303 Q1489.28 54.509 1489.28 60.0587 Q1489.28 66.3781 1484.26 70.0644 Q1479.28 73.7508 1470.53 73.7508 Q1466.88 73.7508 1462.91 73.0216 Q1458.98 72.3329 1454.61 70.9151 L1454.61 63.2184 Q1458.74 65.3654 1462.75 66.4591 Q1466.76 67.5124 1470.69 67.5124 Q1475.96 67.5124 1478.79 65.73 Q1481.63 63.9071 1481.63 60.6258 Q1481.63 57.5877 1479.56 55.9673 Q1477.54 54.3469 1470.61 52.8481 L1468.02 52.2405 Q1461.09 50.7821 1458.01 47.7845 Q1454.93 44.7463 1454.93 39.4801 Q1454.93 33.0797 1459.47 29.5959 Q1464.01 26.1121 1472.35 26.1121 Q1476.48 26.1121 1480.13 26.7198 Q1483.77 27.3274 1486.85 28.5427 Z" fill="#000000" fill-rule="evenodd" fill-opacity="1" /><path clip-path="url(#clip410)" d="M 0 0 M1519.46 12.096 L1570.63 12.096 L1570.63 18.9825 L1549.16 18.9825 L1549.16 72.576 L1540.93 72.576 L1540.93 18.9825 L1519.46 18.9825 L1519.46 12.096 Z" fill="#000000" fill-rule="evenodd" fill-opacity="1" /><path clip-path="url(#clip410)" d="M 0 0 M1575.65 27.2059 L1583.1 27.2059 L1583.1 72.576 L1575.65 72.576 L1575.65 27.2059 M1575.65 9.54393 L1583.1 9.54393 L1583.1 18.9825 L1575.65 18.9825 L1575.65 9.54393 Z" fill="#000000" fill-rule="evenodd" fill-opacity="1" /><path clip-path="url(#clip410)" d="M 0 0 M1634.02 35.9153 Q1636.82 30.8922 1640.71 28.5022 Q1644.6 26.1121 1649.86 26.1121 Q1656.95 26.1121 1660.8 31.0947 Q1664.65 36.0368 1664.65 45.1919 L1664.65 72.576 L1657.15 72.576 L1657.15 45.4349 Q1657.15 38.913 1654.84 35.7533 Q1652.53 32.5936 1647.8 32.5936 Q1642 32.5936 1638.64 36.4419 Q1635.28 40.2903 1635.28 46.9338 L1635.28 72.576 L1627.78 72.576 L1627.78 45.4349 Q1627.78 38.8725 1625.47 35.7533 Q1623.17 32.5936 1618.35 32.5936 Q1612.63 32.5936 1609.27 36.4824 Q1605.91 40.3308 1605.91 46.9338 L1605.91 72.576 L1598.41 72.576 L1598.41 27.2059 L1605.91 27.2059 L1605.91 34.2544 Q1608.46 30.082 1612.03 28.0971 Q1615.59 26.1121 1620.49 26.1121 Q1625.43 26.1121 1628.88 28.6237 Q1632.36 31.1352 1634.02 35.9153 Z" fill="#000000" fill-rule="evenodd" fill-opacity="1" /><path clip-path="url(#clip410)" d="M 0 0 M1718.32 48.0275 L1718.32 51.6733 L1684.05 51.6733 Q1684.54 59.3701 1688.67 63.421 Q1692.84 67.4314 1700.25 67.4314 Q1704.55 67.4314 1708.56 66.3781 Q1712.61 65.3249 1716.58 63.2184 L1716.58 70.267 Q1712.57 71.9684 1708.36 72.8596 Q1704.14 73.7508 1699.81 73.7508 Q1688.95 73.7508 1682.59 67.4314 Q1676.27 61.1119 1676.27 50.3365 Q1676.27 39.1965 1682.27 32.6746 Q1688.3 26.1121 1698.51 26.1121 Q1707.67 26.1121 1712.97 32.0264 Q1718.32 37.9003 1718.32 48.0275 M1710.87 45.84 Q1710.79 39.7232 1707.42 36.0774 Q1704.1 32.4315 1698.59 32.4315 Q1692.36 32.4315 1688.59 35.9558 Q1684.86 39.4801 1684.29 45.8805 L1710.87 45.84 Z" fill="#000000" fill-rule="evenodd" fill-opacity="1" /><path clip-path="url(#clip410)" d="M 0 0 M1781.8 17.6457 Q1772.89 17.6457 1767.62 24.2892 Q1762.4 30.9327 1762.4 42.3968 Q1762.4 53.8203 1767.62 60.4638 Q1772.89 67.1073 1781.8 67.1073 Q1790.71 67.1073 1795.9 60.4638 Q1801.12 53.8203 1801.12 42.3968 Q1801.12 30.9327 1795.9 24.2892 Q1790.71 17.6457 1781.8 17.6457 M1781.8 11.0023 Q1794.52 11.0023 1802.13 19.5497 Q1809.75 28.0566 1809.75 42.3968 Q1809.75 56.6965 1802.13 65.2439 Q1794.52 73.7508 1781.8 73.7508 Q1769.04 73.7508 1761.38 65.2439 Q1753.77 56.737 1753.77 42.3968 Q1753.77 28.0566 1761.38 19.5497 Q1769.04 11.0023 1781.8 11.0023 Z" fill="#000000" fill-rule="evenodd" fill-opacity="1" /><path clip-path="url(#clip410)" d="M 0 0 M1845.2 9.54393 L1845.2 15.7418 L1838.07 15.7418 Q1834.06 15.7418 1832.48 17.3622 Q1830.94 18.9825 1830.94 23.1955 L1830.94 27.2059 L1843.21 27.2059 L1843.21 32.9987 L1830.94 32.9987 L1830.94 72.576 L1823.44 72.576 L1823.44 32.9987 L1816.31 32.9987 L1816.31 27.2059 L1823.44 27.2059 L1823.44 24.0462 Q1823.44 16.471 1826.97 13.0277 Q1830.49 9.54393 1838.15 9.54393 L1845.2 9.54393 Z" fill="#000000" fill-rule="evenodd" fill-opacity="1" /><path clip-path="url(#clip410)" d="M 0 0 M1874.4 9.54393 L1874.4 15.7418 L1867.27 15.7418 Q1863.26 15.7418 1861.68 17.3622 Q1860.14 18.9825 1860.14 23.1955 L1860.14 27.2059 L1872.42 27.2059 L1872.42 32.9987 L1860.14 32.9987 L1860.14 72.576 L1852.65 72.576 L1852.65 32.9987 L1845.52 32.9987 L1845.52 27.2059 L1852.65 27.2059 L1852.65 24.0462 Q1852.65 16.471 1856.17 13.0277 Q1859.7 9.54393 1867.35 9.54393 L1874.4 9.54393 Z" fill="#000000" fill-rule="evenodd" fill-opacity="1" /><path clip-path="url(#clip410)" d="M 0 0 M1909.56 28.5427 L1909.56 35.5912 Q1906.4 33.9709 1903 33.1607 Q1899.6 32.3505 1895.95 32.3505 Q1890.4 32.3505 1887.61 34.0519 Q1884.85 35.7533 1884.85 39.156 Q1884.85 41.7486 1886.84 43.2475 Q1888.82 44.7058 1894.82 46.0426 L1897.37 46.6097 Q1905.31 48.3111 1908.63 51.4303 Q1912 54.509 1912 60.0587 Q1912 66.3781 1906.97 70.0644 Q1901.99 73.7508 1893.24 73.7508 Q1889.59 73.7508 1885.62 73.0216 Q1881.69 72.3329 1877.32 70.9151 L1877.32 63.2184 Q1881.45 65.3654 1885.46 66.4591 Q1889.47 67.5124 1893.4 67.5124 Q1898.67 67.5124 1901.5 65.73 Q1904.34 63.9071 1904.34 60.6258 Q1904.34 57.5877 1902.27 55.9673 Q1900.25 54.3469 1893.32 52.8481 L1890.73 52.2405 Q1883.8 50.7821 1880.72 47.7845 Q1877.64 44.7463 1877.64 39.4801 Q1877.64 33.0797 1882.18 29.5959 Q1886.72 26.1121 1895.06 26.1121 Q1899.19 26.1121 1902.84 26.7198 Q1906.49 27.3274 1909.56 28.5427 Z" fill="#000000" fill-rule="evenodd" fill-opacity="1" /><path clip-path="url(#clip410)" d="M 0 0 M1962.67 48.0275 L1962.67 51.6733 L1928.4 51.6733 Q1928.89 59.3701 1933.02 63.421 Q1937.19 67.4314 1944.61 67.4314 Q1948.9 67.4314 1952.91 66.3781 Q1956.96 65.3249 1960.93 63.2184 L1960.93 70.267 Q1956.92 71.9684 1952.71 72.8596 Q1948.49 73.7508 1944.16 73.7508 Q1933.3 73.7508 1926.94 67.4314 Q1920.62 61.1119 1920.62 50.3365 Q1920.62 39.1965 1926.62 32.6746 Q1932.65 26.1121 1942.86 26.1121 Q1952.02 26.1121 1957.32 32.0264 Q1962.67 37.9003 1962.67 48.0275 M1955.22 45.84 Q1955.14 39.7232 1951.78 36.0774 Q1948.45 32.4315 1942.94 32.4315 Q1936.71 32.4315 1932.94 35.9558 Q1929.21 39.4801 1928.64 45.8805 L1955.22 45.84 Z" fill="#000000" fill-rule="evenodd" fill-opacity="1" /><path clip-path="url(#clip410)" d="M 0 0 M1982.28 14.324 L1982.28 27.2059 L1997.63 27.2059 L1997.63 32.9987 L1982.28 32.9987 L1982.28 57.6282 Q1982.28 63.1779 1983.78 64.7578 Q1985.32 66.3376 1989.98 66.3376 L1997.63 66.3376 L1997.63 72.576 L1989.98 72.576 Q1981.35 72.576 1978.07 69.3758 Q1974.78 66.1351 1974.78 57.6282 L1974.78 32.9987 L1969.32 32.9987 L1969.32 27.2059 L1974.78 27.2059 L1974.78 14.324 L1982.28 14.324 Z" fill="#000000" fill-rule="evenodd" fill-opacity="1" /><polyline clip-path="url(#clip413)" style="stroke:#009af9; stroke-width:4; stroke-opacity:1; fill:none" points="
  271.968,1313.38 320.775,1313.38 329.263,1313.38 380.192,1390.25 428.999,1313.38 537.223,621.575 554.2,1313.38 624.227,1313.38 651.813,1214.55 681.522,1214.55 
  728.207,1214.55 730.329,1214.55 738.817,1214.55 870.384,1313.38 906.458,1313.38 1059.25,1313.38 1061.37,1313.38 1093.2,1214.55 1137.76,1214.55 1175.96,1214.55 
  1224.76,1214.55 1233.25,1214.55 1284.18,1214.55 1347.84,1214.55 1470.92,1214.55 1538.83,1214.55 1632.2,1214.55 1693.74,1214.55 1697.98,1214.55 1746.79,1082.78 
  1755.27,1082.78 1850.77,898.298 1948.38,160.369 1965.36,1082.78 2126.63,1313.38 2154.22,1313.38 2179.68,1214.55 2188.17,1214.55 2292.15,1214.55 
  "/>
</svg>
