<?xml version="1.0" encoding="utf-8"?>
<svg xmlns="http://www.w3.org/2000/svg" xmlns:xlink="http://www.w3.org/1999/xlink" width="600" height="400" viewBox="0 0 2400 1600">
<defs>
  <clipPath id="clip870">
    <rect x="0" y="0" width="2400" height="1600"/>
  </clipPath>
</defs>
<path clip-path="url(#clip870)" d="
M0 1600 L2400 1600 L2400 0 L0 0  Z
  " fill="#ffffff" fill-rule="evenodd" fill-opacity="1"/>
<defs>
  <clipPath id="clip871">
    <rect x="480" y="0" width="1681" height="1600"/>
  </clipPath>
</defs>
<defs>
  <clipPath id="clip872">
    <rect x="267" y="123" width="2086" height="1305"/>
  </clipPath>
</defs>
<path clip-path="url(#clip870)" d="
M190.857 1423.18 L2352.76 1423.18 L2352.76 123.472 L190.857 123.472  Z
  " fill="#ffffff" fill-rule="evenodd" fill-opacity="1"/>
<defs>
  <clipPath id="clip873">
    <rect x="190" y="123" width="2163" height="1301"/>
  </clipPath>
</defs>
<polyline clip-path="url(#clip873)" style="stroke:#000000; stroke-width:2; stroke-opacity:0.1; fill:none" points="
  252.043,1423.18 252.043,123.472 
  "/>
<polyline clip-path="url(#clip873)" style="stroke:#000000; stroke-width:2; stroke-opacity:0.1; fill:none" points="
  660.362,1423.18 660.362,123.472 
  "/>
<polyline clip-path="url(#clip873)" style="stroke:#000000; stroke-width:2; stroke-opacity:0.1; fill:none" points="
  1068.68,1423.18 1068.68,123.472 
  "/>
<polyline clip-path="url(#clip873)" style="stroke:#000000; stroke-width:2; stroke-opacity:0.1; fill:none" points="
  1477,1423.18 1477,123.472 
  "/>
<polyline clip-path="url(#clip873)" style="stroke:#000000; stroke-width:2; stroke-opacity:0.1; fill:none" points="
  1885.32,1423.18 1885.32,123.472 
  "/>
<polyline clip-path="url(#clip873)" style="stroke:#000000; stroke-width:2; stroke-opacity:0.1; fill:none" points="
  2293.63,1423.18 2293.63,123.472 
  "/>
<polyline clip-path="url(#clip870)" style="stroke:#000000; stroke-width:4; stroke-opacity:1; fill:none" points="
  190.857,1423.18 2352.76,1423.18 
  "/>
<polyline clip-path="url(#clip870)" style="stroke:#000000; stroke-width:4; stroke-opacity:1; fill:none" points="
  252.043,1423.18 252.043,1407.58 
  "/>
<polyline clip-path="url(#clip870)" style="stroke:#000000; stroke-width:4; stroke-opacity:1; fill:none" points="
  660.362,1423.18 660.362,1407.58 
  "/>
<polyline clip-path="url(#clip870)" style="stroke:#000000; stroke-width:4; stroke-opacity:1; fill:none" points="
  1068.68,1423.18 1068.68,1407.58 
  "/>
<polyline clip-path="url(#clip870)" style="stroke:#000000; stroke-width:4; stroke-opacity:1; fill:none" points="
  1477,1423.18 1477,1407.58 
  "/>
<polyline clip-path="url(#clip870)" style="stroke:#000000; stroke-width:4; stroke-opacity:1; fill:none" points="
  1885.32,1423.18 1885.32,1407.58 
  "/>
<polyline clip-path="url(#clip870)" style="stroke:#000000; stroke-width:4; stroke-opacity:1; fill:none" points="
  2293.63,1423.18 2293.63,1407.58 
  "/>
<path clip-path="url(#clip870)" d="M 0 0 M252.043 1452.37 Q248.432 1452.37 246.604 1455.94 Q244.798 1459.48 244.798 1466.61 Q244.798 1473.71 246.604 1477.28 Q248.432 1480.82 252.043 1480.82 Q255.678 1480.82 257.483 1477.28 Q259.312 1473.71 259.312 1466.61 Q259.312 1459.48 257.483 1455.94 Q255.678 1452.37 252.043 1452.37 M252.043 1448.67 Q257.853 1448.67 260.909 1453.27 Q263.988 1457.86 263.988 1466.61 Q263.988 1475.33 260.909 1479.94 Q257.853 1484.52 252.043 1484.52 Q246.233 1484.52 243.154 1479.94 Q240.099 1475.33 240.099 1466.61 Q240.099 1457.86 243.154 1453.27 Q246.233 1448.67 252.043 1448.67 Z" fill="#000000" fill-rule="evenodd" fill-opacity="1" /><path clip-path="url(#clip870)" d="M 0 0 M635.049 1479.92 L642.688 1479.92 L642.688 1453.55 L634.378 1455.22 L634.378 1450.96 L642.642 1449.29 L647.318 1449.29 L647.318 1479.92 L654.956 1479.92 L654.956 1483.85 L635.049 1483.85 L635.049 1479.92 Z" fill="#000000" fill-rule="evenodd" fill-opacity="1" /><path clip-path="url(#clip870)" d="M 0 0 M674.401 1452.37 Q670.79 1452.37 668.961 1455.94 Q667.155 1459.48 667.155 1466.61 Q667.155 1473.71 668.961 1477.28 Q670.79 1480.82 674.401 1480.82 Q678.035 1480.82 679.841 1477.28 Q681.669 1473.71 681.669 1466.61 Q681.669 1459.48 679.841 1455.94 Q678.035 1452.37 674.401 1452.37 M674.401 1448.67 Q680.211 1448.67 683.266 1453.27 Q686.345 1457.86 686.345 1466.61 Q686.345 1475.33 683.266 1479.94 Q680.211 1484.52 674.401 1484.52 Q668.591 1484.52 665.512 1479.94 Q662.456 1475.33 662.456 1466.61 Q662.456 1457.86 665.512 1453.27 Q668.591 1448.67 674.401 1448.67 Z" fill="#000000" fill-rule="evenodd" fill-opacity="1" /><path clip-path="url(#clip870)" d="M 0 0 M1047.45 1479.92 L1063.77 1479.92 L1063.77 1483.85 L1041.83 1483.85 L1041.83 1479.92 Q1044.49 1477.16 1049.07 1472.53 Q1053.68 1467.88 1054.86 1466.54 Q1057.11 1464.01 1057.99 1462.28 Q1058.89 1460.52 1058.89 1458.83 Q1058.89 1456.07 1056.94 1454.34 Q1055.02 1452.6 1051.92 1452.6 Q1049.72 1452.6 1047.27 1453.37 Q1044.84 1454.13 1042.06 1455.68 L1042.06 1450.96 Q1044.88 1449.82 1047.34 1449.25 Q1049.79 1448.67 1051.83 1448.67 Q1057.2 1448.67 1060.39 1451.35 Q1063.59 1454.04 1063.59 1458.53 Q1063.59 1460.66 1062.78 1462.58 Q1061.99 1464.48 1059.88 1467.07 Q1059.3 1467.74 1056.2 1470.96 Q1053.1 1474.15 1047.45 1479.92 Z" fill="#000000" fill-rule="evenodd" fill-opacity="1" /><path clip-path="url(#clip870)" d="M 0 0 M1083.59 1452.37 Q1079.98 1452.37 1078.15 1455.94 Q1076.34 1459.48 1076.34 1466.61 Q1076.34 1473.71 1078.15 1477.28 Q1079.98 1480.82 1083.59 1480.82 Q1087.22 1480.82 1089.03 1477.28 Q1090.86 1473.71 1090.86 1466.61 Q1090.86 1459.48 1089.03 1455.94 Q1087.22 1452.37 1083.59 1452.37 M1083.59 1448.67 Q1089.4 1448.67 1092.45 1453.27 Q1095.53 1457.86 1095.53 1466.61 Q1095.53 1475.33 1092.45 1479.94 Q1089.4 1484.52 1083.59 1484.52 Q1077.78 1484.52 1074.7 1479.94 Q1071.64 1475.33 1071.64 1466.61 Q1071.64 1457.86 1074.7 1453.27 Q1077.78 1448.67 1083.59 1448.67 Z" fill="#000000" fill-rule="evenodd" fill-opacity="1" /><path clip-path="url(#clip870)" d="M 0 0 M1465.84 1465.22 Q1469.2 1465.94 1471.07 1468.2 Q1472.97 1470.47 1472.97 1473.81 Q1472.97 1478.92 1469.45 1481.72 Q1465.93 1484.52 1459.45 1484.52 Q1457.28 1484.52 1454.96 1484.08 Q1452.67 1483.67 1450.22 1482.81 L1450.22 1478.3 Q1452.16 1479.43 1454.47 1480.01 Q1456.79 1480.59 1459.31 1480.59 Q1463.71 1480.59 1466 1478.85 Q1468.32 1477.12 1468.32 1473.81 Q1468.32 1470.75 1466.16 1469.04 Q1464.04 1467.3 1460.22 1467.3 L1456.19 1467.3 L1456.19 1463.46 L1460.4 1463.46 Q1463.85 1463.46 1465.68 1462.09 Q1467.51 1460.7 1467.51 1458.11 Q1467.51 1455.45 1465.61 1454.04 Q1463.73 1452.6 1460.22 1452.6 Q1458.29 1452.6 1456.1 1453.02 Q1453.9 1453.44 1451.26 1454.31 L1451.26 1450.15 Q1453.92 1449.41 1456.23 1449.04 Q1458.57 1448.67 1460.63 1448.67 Q1465.96 1448.67 1469.06 1451.1 Q1472.16 1453.5 1472.16 1457.63 Q1472.16 1460.5 1470.52 1462.49 Q1468.87 1464.45 1465.84 1465.22 Z" fill="#000000" fill-rule="evenodd" fill-opacity="1" /><path clip-path="url(#clip870)" d="M 0 0 M1491.84 1452.37 Q1488.22 1452.37 1486.4 1455.94 Q1484.59 1459.48 1484.59 1466.61 Q1484.59 1473.71 1486.4 1477.28 Q1488.22 1480.82 1491.84 1480.82 Q1495.47 1480.82 1497.28 1477.28 Q1499.1 1473.71 1499.1 1466.61 Q1499.1 1459.48 1497.28 1455.94 Q1495.47 1452.37 1491.84 1452.37 M1491.84 1448.67 Q1497.65 1448.67 1500.7 1453.27 Q1503.78 1457.86 1503.78 1466.61 Q1503.78 1475.33 1500.7 1479.94 Q1497.65 1484.52 1491.84 1484.52 Q1486.03 1484.52 1482.95 1479.94 Q1479.89 1475.33 1479.89 1466.61 Q1479.89 1457.86 1482.95 1453.27 Q1486.03 1448.67 1491.84 1448.67 Z" fill="#000000" fill-rule="evenodd" fill-opacity="1" /><path clip-path="url(#clip870)" d="M 0 0 M1873.49 1453.37 L1861.68 1471.81 L1873.49 1471.81 L1873.49 1453.37 M1872.26 1449.29 L1878.14 1449.29 L1878.14 1471.81 L1883.07 1471.81 L1883.07 1475.7 L1878.14 1475.7 L1878.14 1483.85 L1873.49 1483.85 L1873.49 1475.7 L1857.89 1475.7 L1857.89 1471.19 L1872.26 1449.29 Z" fill="#000000" fill-rule="evenodd" fill-opacity="1" /><path clip-path="url(#clip870)" d="M 0 0 M1900.8 1452.37 Q1897.19 1452.37 1895.36 1455.94 Q1893.56 1459.48 1893.56 1466.61 Q1893.56 1473.71 1895.36 1477.28 Q1897.19 1480.82 1900.8 1480.82 Q1904.44 1480.82 1906.24 1477.28 Q1908.07 1473.71 1908.07 1466.61 Q1908.07 1459.48 1906.24 1455.94 Q1904.44 1452.37 1900.8 1452.37 M1900.8 1448.67 Q1906.61 1448.67 1909.67 1453.27 Q1912.75 1457.86 1912.75 1466.61 Q1912.75 1475.33 1909.67 1479.94 Q1906.61 1484.52 1900.8 1484.52 Q1894.99 1484.52 1891.91 1479.94 Q1888.86 1475.33 1888.86 1466.61 Q1888.86 1457.86 1891.91 1453.27 Q1894.99 1448.67 1900.8 1448.67 Z" fill="#000000" fill-rule="evenodd" fill-opacity="1" /><path clip-path="url(#clip870)" d="M 0 0 M2268.33 1449.29 L2286.69 1449.29 L2286.69 1453.23 L2272.62 1453.23 L2272.62 1461.7 Q2273.63 1461.35 2274.65 1461.19 Q2275.67 1461 2276.69 1461 Q2282.48 1461 2285.86 1464.18 Q2289.24 1467.35 2289.24 1472.76 Q2289.24 1478.34 2285.76 1481.44 Q2282.29 1484.52 2275.97 1484.52 Q2273.8 1484.52 2271.53 1484.15 Q2269.28 1483.78 2266.88 1483.04 L2266.88 1478.34 Q2268.96 1479.48 2271.18 1480.03 Q2273.4 1480.59 2275.88 1480.59 Q2279.88 1480.59 2282.22 1478.48 Q2284.56 1476.38 2284.56 1472.76 Q2284.56 1469.15 2282.22 1467.05 Q2279.88 1464.94 2275.88 1464.94 Q2274 1464.94 2272.13 1465.36 Q2270.28 1465.77 2268.33 1466.65 L2268.33 1449.29 Z" fill="#000000" fill-rule="evenodd" fill-opacity="1" /><path clip-path="url(#clip870)" d="M 0 0 M2308.45 1452.37 Q2304.84 1452.37 2303.01 1455.94 Q2301.2 1459.48 2301.2 1466.61 Q2301.2 1473.71 2303.01 1477.28 Q2304.84 1480.82 2308.45 1480.82 Q2312.08 1480.82 2313.89 1477.28 Q2315.72 1473.71 2315.72 1466.61 Q2315.72 1459.48 2313.89 1455.94 Q2312.08 1452.37 2308.45 1452.37 M2308.45 1448.67 Q2314.26 1448.67 2317.31 1453.27 Q2320.39 1457.86 2320.39 1466.61 Q2320.39 1475.33 2317.31 1479.94 Q2314.26 1484.52 2308.45 1484.52 Q2302.64 1484.52 2299.56 1479.94 Q2296.5 1475.33 2296.5 1466.61 Q2296.5 1457.86 2299.56 1453.27 Q2302.64 1448.67 2308.45 1448.67 Z" fill="#000000" fill-rule="evenodd" fill-opacity="1" /><path clip-path="url(#clip870)" d="M 0 0 M1031.92 1518.52 L1031.92 1523.39 L1026.31 1523.39 Q1023.16 1523.39 1021.92 1524.66 Q1020.71 1525.93 1020.71 1529.24 L1020.71 1532.4 L1030.36 1532.4 L1030.36 1536.95 L1020.71 1536.95 L1020.71 1568.04 L1014.82 1568.04 L1014.82 1536.95 L1009.22 1536.95 L1009.22 1532.4 L1014.82 1532.4 L1014.82 1529.91 Q1014.82 1523.96 1017.59 1521.26 Q1020.36 1518.52 1026.38 1518.52 L1031.92 1518.52 Z" fill="#000000" fill-rule="evenodd" fill-opacity="1" /><path clip-path="url(#clip870)" d="M 0 0 M1057.47 1537.87 Q1056.49 1537.3 1055.31 1537.04 Q1054.16 1536.76 1052.76 1536.76 Q1047.8 1536.76 1045.12 1540 Q1042.48 1543.22 1042.48 1549.27 L1042.48 1568.04 L1036.59 1568.04 L1036.59 1532.4 L1042.48 1532.4 L1042.48 1537.93 Q1044.33 1534.69 1047.29 1533.13 Q1050.25 1531.54 1054.48 1531.54 Q1055.09 1531.54 1055.82 1531.63 Q1056.55 1531.7 1057.44 1531.85 L1057.47 1537.87 Z" fill="#000000" fill-rule="evenodd" fill-opacity="1" /><path clip-path="url(#clip870)" d="M 0 0 M1092.68 1548.76 L1092.68 1551.62 L1065.75 1551.62 Q1066.13 1557.67 1069.38 1560.85 Q1072.66 1564 1078.48 1564 Q1081.85 1564 1085.01 1563.17 Q1088.19 1562.35 1091.31 1560.69 L1091.31 1566.23 Q1088.16 1567.57 1084.85 1568.27 Q1081.54 1568.97 1078.13 1568.97 Q1069.6 1568.97 1064.6 1564 Q1059.64 1559.04 1059.64 1550.57 Q1059.64 1541.82 1064.35 1536.69 Q1069.09 1531.54 1077.11 1531.54 Q1084.3 1531.54 1088.47 1536.18 Q1092.68 1540.8 1092.68 1548.76 M1086.82 1547.04 Q1086.76 1542.23 1084.11 1539.37 Q1081.5 1536.5 1077.18 1536.5 Q1072.27 1536.5 1069.31 1539.27 Q1066.39 1542.04 1065.94 1547.07 L1086.82 1547.04 Z" fill="#000000" fill-rule="evenodd" fill-opacity="1" /><path clip-path="url(#clip870)" d="M 0 0 M1105.79 1550.25 Q1105.79 1556.71 1108.43 1560.4 Q1111.1 1564.07 1115.75 1564.07 Q1120.4 1564.07 1123.07 1560.4 Q1125.75 1556.71 1125.75 1550.25 Q1125.75 1543.79 1123.07 1540.13 Q1120.4 1536.44 1115.75 1536.44 Q1111.1 1536.44 1108.43 1540.13 Q1105.79 1543.79 1105.79 1550.25 M1125.75 1562.7 Q1123.9 1565.88 1121.07 1567.44 Q1118.27 1568.97 1114.32 1568.97 Q1107.86 1568.97 1103.78 1563.81 Q1099.74 1558.65 1099.74 1550.25 Q1099.74 1541.85 1103.78 1536.69 Q1107.86 1531.54 1114.32 1531.54 Q1118.27 1531.54 1121.07 1533.1 Q1123.9 1534.62 1125.75 1537.81 L1125.75 1532.4 L1131.6 1532.4 L1131.6 1581.6 L1125.75 1581.6 L1125.75 1562.7 Z" fill="#000000" fill-rule="evenodd" fill-opacity="1" /><path clip-path="url(#clip870)" d="M 0 0 M1143.06 1553.98 L1143.06 1532.4 L1148.92 1532.4 L1148.92 1553.75 Q1148.92 1558.81 1150.89 1561.36 Q1152.86 1563.87 1156.81 1563.87 Q1161.55 1563.87 1164.29 1560.85 Q1167.06 1557.83 1167.06 1552.61 L1167.06 1532.4 L1172.92 1532.4 L1172.92 1568.04 L1167.06 1568.04 L1167.06 1562.57 Q1164.93 1565.82 1162.09 1567.41 Q1159.29 1568.97 1155.57 1568.97 Q1149.43 1568.97 1146.24 1565.15 Q1143.06 1561.33 1143.06 1553.98 M1157.8 1531.54 L1157.8 1531.54 Z" fill="#000000" fill-rule="evenodd" fill-opacity="1" /><path clip-path="url(#clip870)" d="M 0 0 M1215.47 1548.76 L1215.47 1551.62 L1188.54 1551.62 Q1188.93 1557.67 1192.17 1560.85 Q1195.45 1564 1201.27 1564 Q1204.65 1564 1207.8 1563.17 Q1210.98 1562.35 1214.1 1560.69 L1214.1 1566.23 Q1210.95 1567.57 1207.64 1568.27 Q1204.33 1568.97 1200.92 1568.97 Q1192.39 1568.97 1187.4 1564 Q1182.43 1559.04 1182.43 1550.57 Q1182.43 1541.82 1187.14 1536.69 Q1191.89 1531.54 1199.91 1531.54 Q1207.1 1531.54 1211.27 1536.18 Q1215.47 1540.8 1215.47 1548.76 M1209.61 1547.04 Q1209.55 1542.23 1206.91 1539.37 Q1204.3 1536.5 1199.97 1536.5 Q1195.07 1536.5 1192.11 1539.27 Q1189.18 1542.04 1188.73 1547.07 L1209.61 1547.04 Z" fill="#000000" fill-rule="evenodd" fill-opacity="1" /><path clip-path="url(#clip870)" d="M 0 0 M1254.71 1546.53 L1254.71 1568.04 L1248.86 1568.04 L1248.86 1546.72 Q1248.86 1541.66 1246.88 1539.14 Q1244.91 1536.63 1240.96 1536.63 Q1236.22 1536.63 1233.49 1539.65 Q1230.75 1542.68 1230.75 1547.9 L1230.75 1568.04 L1224.86 1568.04 L1224.86 1532.4 L1230.75 1532.4 L1230.75 1537.93 Q1232.85 1534.72 1235.68 1533.13 Q1238.55 1531.54 1242.27 1531.54 Q1248.41 1531.54 1251.56 1535.36 Q1254.71 1539.14 1254.71 1546.53 Z" fill="#000000" fill-rule="evenodd" fill-opacity="1" /><path clip-path="url(#clip870)" d="M 0 0 M1292.05 1533.76 L1292.05 1539.24 Q1289.57 1537.87 1287.05 1537.2 Q1284.57 1536.5 1282.02 1536.5 Q1276.33 1536.5 1273.18 1540.13 Q1270.02 1543.73 1270.02 1550.25 Q1270.02 1556.78 1273.18 1560.4 Q1276.33 1564 1282.02 1564 Q1284.57 1564 1287.05 1563.33 Q1289.57 1562.63 1292.05 1561.26 L1292.05 1566.68 Q1289.6 1567.82 1286.96 1568.39 Q1284.35 1568.97 1281.39 1568.97 Q1273.33 1568.97 1268.59 1563.91 Q1263.85 1558.85 1263.85 1550.25 Q1263.85 1541.53 1268.62 1536.53 Q1273.43 1531.54 1281.77 1531.54 Q1284.47 1531.54 1287.05 1532.11 Q1289.63 1532.65 1292.05 1533.76 Z" fill="#000000" fill-rule="evenodd" fill-opacity="1" /><path clip-path="url(#clip870)" d="M 0 0 M1317.07 1571.35 Q1314.58 1577.72 1312.23 1579.66 Q1309.87 1581.6 1305.93 1581.6 L1301.25 1581.6 L1301.25 1576.7 L1304.69 1576.7 Q1307.1 1576.7 1308.44 1575.56 Q1309.78 1574.41 1311.4 1570.14 L1312.45 1567.47 L1298.03 1532.4 L1304.24 1532.4 L1315.38 1560.28 L1326.52 1532.4 L1332.73 1532.4 L1317.07 1571.35 Z" fill="#000000" fill-rule="evenodd" fill-opacity="1" /><path clip-path="url(#clip870)" d="M 0 0 M1375.6 1518.58 Q1371.33 1525.9 1369.27 1533.06 Q1367.2 1540.23 1367.2 1547.58 Q1367.2 1554.93 1369.27 1562.16 Q1371.37 1569.35 1375.6 1576.64 L1370.51 1576.64 Q1365.73 1569.16 1363.35 1561.93 Q1360.99 1554.71 1360.99 1547.58 Q1360.99 1540.48 1363.35 1533.29 Q1365.7 1526.09 1370.51 1518.58 L1375.6 1518.58 Z" fill="#000000" fill-rule="evenodd" fill-opacity="1" /><path clip-path="url(#clip870)" d="M 0 0 M1419.62 1561.26 L1419.62 1548.5 L1409.11 1548.5 L1409.11 1543.22 L1425.98 1543.22 L1425.98 1563.62 Q1422.26 1566.26 1417.77 1567.63 Q1413.28 1568.97 1408.19 1568.97 Q1397.05 1568.97 1390.75 1562.47 Q1384.48 1555.95 1384.48 1544.33 Q1384.48 1532.68 1390.75 1526.19 Q1397.05 1519.66 1408.19 1519.66 Q1412.84 1519.66 1417.01 1520.81 Q1421.21 1521.96 1424.74 1524.18 L1424.74 1531.03 Q1421.18 1528 1417.17 1526.48 Q1413.16 1524.95 1408.73 1524.95 Q1400.01 1524.95 1395.62 1529.82 Q1391.26 1534.69 1391.26 1544.33 Q1391.26 1553.94 1395.62 1558.81 Q1400.01 1563.68 1408.73 1563.68 Q1412.14 1563.68 1414.81 1563.11 Q1417.49 1562.51 1419.62 1561.26 Z" fill="#000000" fill-rule="evenodd" fill-opacity="1" /><path clip-path="url(#clip870)" d="M 0 0 M1437.73 1520.52 L1444.16 1520.52 L1444.16 1540 L1467.52 1540 L1467.52 1520.52 L1473.95 1520.52 L1473.95 1568.04 L1467.52 1568.04 L1467.52 1545.41 L1444.16 1545.41 L1444.16 1568.04 L1437.73 1568.04 L1437.73 1520.52 Z" fill="#000000" fill-rule="evenodd" fill-opacity="1" /><path clip-path="url(#clip870)" d="M 0 0 M1483.94 1532.4 L1511.76 1532.4 L1511.76 1537.74 L1489.74 1563.37 L1511.76 1563.37 L1511.76 1568.04 L1483.15 1568.04 L1483.15 1562.7 L1505.17 1537.07 L1483.94 1537.07 L1483.94 1532.4 Z" fill="#000000" fill-rule="evenodd" fill-opacity="1" /><path clip-path="url(#clip870)" d="M 0 0 M1519.78 1518.58 L1524.88 1518.58 Q1529.65 1526.09 1532 1533.29 Q1534.39 1540.48 1534.39 1547.58 Q1534.39 1554.71 1532 1561.93 Q1529.65 1569.16 1524.88 1576.64 L1519.78 1576.64 Q1524.02 1569.35 1526.08 1562.16 Q1528.19 1554.93 1528.19 1547.58 Q1528.19 1540.23 1526.08 1533.06 Q1524.02 1525.9 1519.78 1518.58 Z" fill="#000000" fill-rule="evenodd" fill-opacity="1" /><polyline clip-path="url(#clip873)" style="stroke:#000000; stroke-width:2; stroke-opacity:0.1; fill:none" points="
  190.857,1386.4 2352.76,1386.4 
  "/>
<polyline clip-path="url(#clip873)" style="stroke:#000000; stroke-width:2; stroke-opacity:0.1; fill:none" points="
  190.857,1104.4 2352.76,1104.4 
  "/>
<polyline clip-path="url(#clip873)" style="stroke:#000000; stroke-width:2; stroke-opacity:0.1; fill:none" points="
  190.857,822.409 2352.76,822.409 
  "/>
<polyline clip-path="url(#clip873)" style="stroke:#000000; stroke-width:2; stroke-opacity:0.1; fill:none" points="
  190.857,540.415 2352.76,540.415 
  "/>
<polyline clip-path="url(#clip873)" style="stroke:#000000; stroke-width:2; stroke-opacity:0.1; fill:none" points="
  190.857,258.422 2352.76,258.422 
  "/>
<polyline clip-path="url(#clip870)" style="stroke:#000000; stroke-width:4; stroke-opacity:1; fill:none" points="
  190.857,1423.18 190.857,123.472 
  "/>
<polyline clip-path="url(#clip870)" style="stroke:#000000; stroke-width:4; stroke-opacity:1; fill:none" points="
  190.857,1386.4 216.8,1386.4 
  "/>
<polyline clip-path="url(#clip870)" style="stroke:#000000; stroke-width:4; stroke-opacity:1; fill:none" points="
  190.857,1104.4 216.8,1104.4 
  "/>
<polyline clip-path="url(#clip870)" style="stroke:#000000; stroke-width:4; stroke-opacity:1; fill:none" points="
  190.857,822.409 216.8,822.409 
  "/>
<polyline clip-path="url(#clip870)" style="stroke:#000000; stroke-width:4; stroke-opacity:1; fill:none" points="
  190.857,540.415 216.8,540.415 
  "/>
<polyline clip-path="url(#clip870)" style="stroke:#000000; stroke-width:4; stroke-opacity:1; fill:none" points="
  190.857,258.422 216.8,258.422 
  "/>
<path clip-path="url(#clip870)" d="M 0 0 M142.913 1372.19 Q139.302 1372.19 137.473 1375.76 Q135.668 1379.3 135.668 1386.43 Q135.668 1393.54 137.473 1397.1 Q139.302 1400.64 142.913 1400.64 Q146.547 1400.64 148.353 1397.1 Q150.182 1393.54 150.182 1386.43 Q150.182 1379.3 148.353 1375.76 Q146.547 1372.19 142.913 1372.19 M142.913 1368.49 Q148.723 1368.49 151.779 1373.1 Q154.857 1377.68 154.857 1386.43 Q154.857 1395.16 151.779 1399.76 Q148.723 1404.35 142.913 1404.35 Q137.103 1404.35 134.024 1399.76 Q130.969 1395.16 130.969 1386.43 Q130.969 1377.68 134.024 1373.1 Q137.103 1368.49 142.913 1368.49 Z" fill="#000000" fill-rule="evenodd" fill-opacity="1" /><path clip-path="url(#clip870)" d="M 0 0 M134.95 1117.75 L142.589 1117.75 L142.589 1091.38 L134.279 1093.05 L134.279 1088.79 L142.543 1087.12 L147.219 1087.12 L147.219 1117.75 L154.857 1117.75 L154.857 1121.68 L134.95 1121.68 L134.95 1117.75 Z" fill="#000000" fill-rule="evenodd" fill-opacity="1" /><path clip-path="url(#clip870)" d="M 0 0 M138.538 835.754 L154.857 835.754 L154.857 839.689 L132.913 839.689 L132.913 835.754 Q135.575 832.999 140.159 828.369 Q144.765 823.717 145.946 822.374 Q148.191 819.851 149.07 818.115 Q149.973 816.356 149.973 814.666 Q149.973 811.911 148.029 810.175 Q146.108 808.439 143.006 808.439 Q140.807 808.439 138.353 809.203 Q135.922 809.967 133.145 811.518 L133.145 806.796 Q135.969 805.661 138.422 805.083 Q140.876 804.504 142.913 804.504 Q148.283 804.504 151.478 807.189 Q154.672 809.874 154.672 814.365 Q154.672 816.495 153.862 818.416 Q153.075 820.314 150.969 822.907 Q150.39 823.578 147.288 826.795 Q144.186 829.99 138.538 835.754 Z" fill="#000000" fill-rule="evenodd" fill-opacity="1" /><path clip-path="url(#clip870)" d="M 0 0 M147.728 539.061 Q151.084 539.779 152.959 542.047 Q154.857 544.316 154.857 547.649 Q154.857 552.765 151.339 555.566 Q147.821 558.367 141.339 558.367 Q139.163 558.367 136.848 557.927 Q134.557 557.51 132.103 556.654 L132.103 552.14 Q134.047 553.274 136.362 553.853 Q138.677 554.432 141.2 554.432 Q145.598 554.432 147.89 552.695 Q150.205 550.959 150.205 547.649 Q150.205 544.594 148.052 542.881 Q145.922 541.145 142.103 541.145 L138.075 541.145 L138.075 537.302 L142.288 537.302 Q145.737 537.302 147.566 535.936 Q149.395 534.547 149.395 531.955 Q149.395 529.293 147.496 527.881 Q145.621 526.446 142.103 526.446 Q140.182 526.446 137.983 526.862 Q135.784 527.279 133.145 528.159 L133.145 523.992 Q135.807 523.251 138.121 522.881 Q140.459 522.51 142.52 522.51 Q147.844 522.51 150.945 524.941 Q154.047 527.348 154.047 531.469 Q154.047 534.339 152.404 536.33 Q150.76 538.297 147.728 539.061 Z" fill="#000000" fill-rule="evenodd" fill-opacity="1" /><path clip-path="url(#clip870)" d="M 0 0 M145.274 245.216 L133.469 263.665 L145.274 263.665 L145.274 245.216 M144.047 241.142 L149.927 241.142 L149.927 263.665 L154.857 263.665 L154.857 267.554 L149.927 267.554 L149.927 275.702 L145.274 275.702 L145.274 267.554 L129.672 267.554 L129.672 263.04 L144.047 241.142 Z" fill="#000000" fill-rule="evenodd" fill-opacity="1" /><path clip-path="url(#clip870)" d="M 0 0 M49.6875 837.926 L50.6118 838.49 Q49.1013 841.984 46.6891 846.335 Q49.1013 850.686 50.6118 854.181 L49.6875 854.722 Q46.3735 850.912 43.826 846.335 Q46.396 841.714 49.6875 837.926 Z" fill="#000000" fill-rule="evenodd" fill-opacity="1" /><path clip-path="url(#clip870)" d="M 0 0 M60.7296 835.341 Q60.7618 835.341 61.9212 835.534 L91.1964 842.877 Q92.7423 843.263 94.2881 844.358 Q95.8662 845.421 97.2189 847.128 Q98.6037 848.803 99.4411 851.379 Q100.311 853.924 100.311 856.854 Q100.311 861.524 99.3122 863.585 Q98.3461 865.614 96.2849 865.614 Q94.4814 865.614 93.4508 864.487 Q92.4524 863.36 92.4524 862.072 Q92.4524 860.848 93.1609 860.204 Q93.8695 859.56 94.7712 859.56 Q95.7696 859.56 96.768 860.236 Q97.7986 860.912 98.185 862.265 Q98.8614 860.107 98.8614 856.983 Q98.8614 850.381 91.8727 847.547 Q91.7761 847.482 91.7439 847.482 L83.0161 845.292 L82.9517 845.389 Q83.5958 845.936 84.3365 846.806 Q85.0451 847.643 85.9146 849.447 Q86.7842 851.25 86.7842 853.022 Q86.7842 856.725 83.9501 859.27 Q81.0837 861.782 76.3495 861.782 Q72.9034 861.782 69.4574 860.397 Q65.9792 858.98 63.4349 856.79 Q60.8584 854.568 59.2482 851.734 Q57.6379 848.867 57.6379 846.098 Q57.6379 844.165 58.7973 842.523 Q59.9245 840.88 61.7924 839.978 Q60.2465 839.817 59.6024 838.948 Q58.9583 838.046 58.9583 837.273 Q58.9583 836.404 59.4414 835.888 Q59.8923 835.341 60.7296 835.341 M64.7554 840.751 Q64.5621 840.751 64.0468 840.88 Q63.4993 841.009 62.6298 841.395 Q61.7602 841.75 60.9873 842.297 Q60.2143 842.845 59.6668 843.843 Q59.0871 844.809 59.0871 846.033 Q59.0871 848.03 60.7618 850.027 Q62.4043 852.023 64.9486 853.408 Q67.3962 854.696 72.1305 855.92 Q76.8648 857.112 79.2802 857.112 Q81.6634 857.112 83.4992 856.081 Q85.3349 855.051 85.3349 852.829 Q85.3349 850.252 82.9517 847.482 Q80.4718 844.616 78.3462 844.133 L65.7537 840.945 Q64.9808 840.751 64.7554 840.751 Z" fill="#000000" fill-rule="evenodd" fill-opacity="1" /><path clip-path="url(#clip870)" d="M 0 0 M31.4713 827.305 Q23.671 827.305 17.3812 824.397 Q14.7436 823.157 12.5342 821.421 Q10.3249 819.685 9.35551 818.535 Q8.38611 817.386 8.38611 817.07 Q8.38611 816.619 8.837 816.597 Q9.06244 816.597 9.62604 817.205 Q17.2009 824.645 31.4713 824.622 Q45.7868 824.622 53.0685 817.386 Q53.8576 816.597 54.1056 816.597 Q54.5564 816.597 54.5564 817.07 Q54.5564 817.386 53.6321 818.49 Q52.7078 819.595 50.5887 821.308 Q48.4695 823.022 45.877 824.262 Q39.5872 827.305 31.4713 827.305 Z" fill="#000000" fill-rule="evenodd" fill-opacity="1" /><path clip-path="url(#clip870)" d="M 0 0 M43.0139 809.576 Q42.1797 809.576 41.9317 809.508 Q41.6838 809.418 41.3005 809.057 L31.4262 800.198 Q25.9705 795.351 21.2137 795.351 Q18.1252 795.351 15.9158 796.974 Q13.7065 798.574 13.7065 801.528 Q13.7065 803.557 14.9464 805.27 Q16.1864 806.983 18.3957 807.772 Q18.3506 807.637 18.3506 807.164 Q18.3506 806.014 19.072 805.383 Q19.7934 804.729 20.7628 804.729 Q22.0028 804.729 22.6114 805.541 Q23.1976 806.33 23.1976 807.119 Q23.1976 807.434 23.13 807.863 Q23.0623 808.268 22.4311 808.922 Q21.7773 809.576 20.6276 809.576 Q17.4038 809.576 14.8337 807.141 Q12.2637 804.684 12.2637 800.942 Q12.2637 796.703 14.7886 793.93 Q17.291 791.135 21.2137 791.135 Q22.5889 791.135 23.8514 791.563 Q25.0913 791.969 26.0607 792.533 Q27.0301 793.074 28.5856 794.562 Q30.1412 796.049 31.2458 797.244 Q32.3505 798.439 34.6951 801.122 L39.4519 806.014 L39.4519 797.695 Q39.4519 793.637 39.0912 793.322 Q38.4374 792.871 34.9882 792.307 L34.9882 791.135 L43.0139 792.442 L43.0139 809.576 Z" fill="#000000" fill-rule="evenodd" fill-opacity="1" /><path clip-path="url(#clip870)" d="M 0 0 M54.1056 786.711 Q53.8801 786.711 53.3165 786.125 Q45.7417 778.685 31.4713 778.685 Q17.1558 778.685 9.91911 785.832 Q9.08498 786.711 8.837 786.711 Q8.38611 786.711 8.38611 786.26 Q8.38611 785.945 9.31042 784.84 Q10.2347 783.713 12.3539 782.022 Q14.473 780.309 17.0656 779.046 Q23.3554 776.003 31.4713 776.003 Q39.2715 776.003 45.5613 778.911 Q48.199 780.151 50.4083 781.887 Q52.6176 783.623 53.587 784.772 Q54.5564 785.922 54.5564 786.26 Q54.5564 786.711 54.1056 786.711 Z" fill="#000000" fill-rule="evenodd" fill-opacity="1" /><path clip-path="url(#clip870)" d="M 0 0 M70.2948 761.942 Q59.1515 761.942 50.1661 757.787 Q46.398 756.016 43.2418 753.536 Q40.0857 751.056 38.7008 749.414 Q37.316 747.771 37.316 747.32 Q37.316 746.676 37.9601 746.644 Q38.2821 746.644 39.0873 747.514 Q49.9085 758.142 70.2948 758.109 Q90.7455 758.109 101.148 747.771 Q102.275 746.644 102.629 746.644 Q103.274 746.644 103.274 747.32 Q103.274 747.771 101.953 749.349 Q100.633 750.927 97.6053 753.375 Q94.578 755.823 90.8743 757.594 Q81.8889 761.942 70.2948 761.942 Z" fill="#000000" fill-rule="evenodd" fill-opacity="1" /><path clip-path="url(#clip870)" d="M 0 0 M59.4092 705.568 Q59.699 705.568 60.6974 705.826 Q61.6636 706.051 63.5637 706.792 Q65.4317 707.5 67.5251 708.595 Q69.5862 709.658 72.1949 711.623 Q74.8036 713.587 77.0902 716.035 Q81.4058 720.64 83.7246 725.568 Q86.0434 730.463 86.7842 734.65 L86.7842 735.584 Q86.7842 736.614 85.979 736.614 L83.0161 735.906 L66.8809 731.88 Q61.9534 730.624 61.5348 730.624 Q61.1483 730.624 60.9551 730.785 Q60.7296 730.914 60.5686 731.687 Q60.4076 732.428 60.4076 733.909 Q60.4076 734.521 60.3754 734.811 Q60.3432 735.069 60.1821 735.294 Q59.9889 735.519 59.6024 735.519 Q59.0549 735.519 58.7651 735.294 Q58.443 735.036 58.3786 734.843 Q58.3142 734.65 58.282 734.263 Q58.2498 733.716 58.0887 731.88 Q57.8955 730.044 57.7667 728.466 Q57.6379 726.888 57.6379 726.212 Q57.6379 725.826 57.8311 725.6 Q57.9921 725.375 58.1854 725.375 L58.3464 725.342 L84.5942 731.816 Q83.8212 729.433 82.533 727.082 Q81.2448 724.698 79.1192 722.122 Q76.9614 719.545 74.2883 717.355 Q71.6152 715.165 67.8793 713.233 Q64.1112 711.268 59.7957 710.045 Q58.9261 709.819 58.4108 709.272 Q57.8955 708.692 57.7667 708.273 Q57.6379 707.855 57.6379 707.468 Q57.6379 706.599 58.121 706.083 Q58.5718 705.568 59.4092 705.568 Z" fill="#000000" fill-rule="evenodd" fill-opacity="1" /><path clip-path="url(#clip870)" d="M 0 0 M102.629 704.365 Q102.307 704.365 101.502 703.528 Q90.6811 692.9 70.2948 692.9 Q49.844 692.9 39.506 703.109 Q38.3143 704.365 37.9601 704.365 Q37.316 704.365 37.316 703.721 Q37.316 703.27 38.6364 701.692 Q39.9568 700.082 42.9842 697.666 Q46.0115 695.219 49.7152 693.415 Q58.7007 689.067 70.2948 689.067 Q81.438 689.067 90.4234 693.222 Q94.1915 694.993 97.3477 697.473 Q100.504 699.953 101.889 701.595 Q103.274 703.238 103.274 703.721 Q103.274 704.365 102.629 704.365 Z" fill="#000000" fill-rule="evenodd" fill-opacity="1" /><path clip-path="url(#clip870)" d="M 0 0 M590.323 18.8205 L590.323 41.5461 L600.612 41.5461 Q606.324 41.5461 609.443 38.5889 Q612.563 35.6318 612.563 30.163 Q612.563 24.7348 609.443 21.7777 Q606.324 18.8205 600.612 18.8205 L590.323 18.8205 M582.14 12.096 L600.612 12.096 Q610.78 12.096 615.965 16.714 Q621.191 21.2916 621.191 30.163 Q621.191 39.1155 615.965 43.6931 Q610.78 48.2706 600.612 48.2706 L590.323 48.2706 L590.323 72.576 L582.14 72.576 L582.14 12.096 Z" fill="#000000" fill-rule="evenodd" fill-opacity="1" /><path clip-path="url(#clip870)" d="M 0 0 M669.559 45.1919 L669.559 72.576 L662.105 72.576 L662.105 45.4349 Q662.105 38.994 659.594 35.7938 Q657.082 32.5936 652.059 32.5936 Q646.023 32.5936 642.539 36.4419 Q639.055 40.2903 639.055 46.9338 L639.055 72.576 L631.561 72.576 L631.561 9.54393 L639.055 9.54393 L639.055 34.2544 Q641.729 30.163 645.334 28.1376 Q648.98 26.1121 653.72 26.1121 Q661.538 26.1121 665.548 30.9732 Q669.559 35.7938 669.559 45.1919 Z" fill="#000000" fill-rule="evenodd" fill-opacity="1" /><path clip-path="url(#clip870)" d="M 0 0 M702.007 32.4315 Q696.011 32.4315 692.527 37.1306 Q689.044 41.7891 689.044 49.9314 Q689.044 58.0738 692.487 62.7728 Q695.971 67.4314 702.007 67.4314 Q707.961 67.4314 711.445 62.7323 Q714.929 58.0333 714.929 49.9314 Q714.929 41.8701 711.445 37.1711 Q707.961 32.4315 702.007 32.4315 M702.007 26.1121 Q711.729 26.1121 717.278 32.4315 Q722.828 38.7509 722.828 49.9314 Q722.828 61.0714 717.278 67.4314 Q711.729 73.7508 702.007 73.7508 Q692.244 73.7508 686.694 67.4314 Q681.185 61.0714 681.185 49.9314 Q681.185 38.7509 686.694 32.4315 Q692.244 26.1121 702.007 26.1121 Z" fill="#000000" fill-rule="evenodd" fill-opacity="1" /><path clip-path="url(#clip870)" d="M 0 0 M742.556 14.324 L742.556 27.2059 L757.909 27.2059 L757.909 32.9987 L742.556 32.9987 L742.556 57.6282 Q742.556 63.1779 744.055 64.7578 Q745.594 66.3376 750.253 66.3376 L757.909 66.3376 L757.909 72.576 L750.253 72.576 Q741.624 72.576 738.343 69.3758 Q735.062 66.1351 735.062 57.6282 L735.062 32.9987 L729.593 32.9987 L729.593 27.2059 L735.062 27.2059 L735.062 14.324 L742.556 14.324 Z" fill="#000000" fill-rule="evenodd" fill-opacity="1" /><path clip-path="url(#clip870)" d="M 0 0 M785.293 32.4315 Q779.298 32.4315 775.814 37.1306 Q772.33 41.7891 772.33 49.9314 Q772.33 58.0738 775.773 62.7728 Q779.257 67.4314 785.293 67.4314 Q791.248 67.4314 794.732 62.7323 Q798.215 58.0333 798.215 49.9314 Q798.215 41.8701 794.732 37.1711 Q791.248 32.4315 785.293 32.4315 M785.293 26.1121 Q795.015 26.1121 800.565 32.4315 Q806.115 38.7509 806.115 49.9314 Q806.115 61.0714 800.565 67.4314 Q795.015 73.7508 785.293 73.7508 Q775.53 73.7508 769.981 67.4314 Q764.471 61.0714 764.471 49.9314 Q764.471 38.7509 769.981 32.4315 Q775.53 26.1121 785.293 26.1121 Z" fill="#000000" fill-rule="evenodd" fill-opacity="1" /><path clip-path="url(#clip870)" d="M 0 0 M856.184 45.1919 L856.184 72.576 L848.73 72.576 L848.73 45.4349 Q848.73 38.994 846.219 35.7938 Q843.707 32.5936 838.684 32.5936 Q832.648 32.5936 829.164 36.4419 Q825.681 40.2903 825.681 46.9338 L825.681 72.576 L818.186 72.576 L818.186 27.2059 L825.681 27.2059 L825.681 34.2544 Q828.354 30.163 831.96 28.1376 Q835.605 26.1121 840.345 26.1121 Q848.163 26.1121 852.174 30.9732 Q856.184 35.7938 856.184 45.1919 Z" fill="#000000" fill-rule="evenodd" fill-opacity="1" /><path clip-path="url(#clip870)" d="M 0 0 M943.035 16.7545 L943.035 25.383 Q938.903 21.5346 934.204 19.6307 Q929.546 17.7268 924.28 17.7268 Q913.909 17.7268 908.4 24.0867 Q902.891 30.4061 902.891 42.3968 Q902.891 54.3469 908.4 60.7069 Q913.909 67.0263 924.28 67.0263 Q929.546 67.0263 934.204 65.1223 Q938.903 63.2184 943.035 59.3701 L943.035 67.9175 Q938.741 70.8341 933.921 72.2924 Q929.141 73.7508 923.794 73.7508 Q910.061 73.7508 902.162 65.3654 Q894.262 56.9395 894.262 42.3968 Q894.262 27.8135 902.162 19.4281 Q910.061 11.0023 923.794 11.0023 Q929.222 11.0023 934.002 12.4606 Q938.822 13.8784 943.035 16.7545 Z" fill="#000000" fill-rule="evenodd" fill-opacity="1" /><path clip-path="url(#clip870)" d="M 0 0 M972.931 32.4315 Q966.936 32.4315 963.452 37.1306 Q959.968 41.7891 959.968 49.9314 Q959.968 58.0738 963.411 62.7728 Q966.895 67.4314 972.931 67.4314 Q978.886 67.4314 982.37 62.7323 Q985.853 58.0333 985.853 49.9314 Q985.853 41.8701 982.37 37.1711 Q978.886 32.4315 972.931 32.4315 M972.931 26.1121 Q982.653 26.1121 988.203 32.4315 Q993.753 38.7509 993.753 49.9314 Q993.753 61.0714 988.203 67.4314 Q982.653 73.7508 972.931 73.7508 Q963.168 73.7508 957.619 67.4314 Q952.109 61.0714 952.109 49.9314 Q952.109 38.7509 957.619 32.4315 Q963.168 26.1121 972.931 26.1121 Z" fill="#000000" fill-rule="evenodd" fill-opacity="1" /><path clip-path="url(#clip870)" d="M 0 0 M1032.4 34.1734 Q1031.14 33.4443 1029.64 33.1202 Q1028.19 32.7556 1026.4 32.7556 Q1020.08 32.7556 1016.68 36.8875 Q1013.32 40.9789 1013.32 48.6757 L1013.32 72.576 L1005.82 72.576 L1005.82 27.2059 L1013.32 27.2059 L1013.32 34.2544 Q1015.67 30.1225 1019.44 28.1376 Q1023.2 26.1121 1028.59 26.1121 Q1029.36 26.1121 1030.29 26.2337 Q1031.22 26.3147 1032.36 26.5172 L1032.4 34.1734 Z" fill="#000000" fill-rule="evenodd" fill-opacity="1" /><path clip-path="url(#clip870)" d="M 0 0 M1065.05 34.1734 Q1063.79 33.4443 1062.29 33.1202 Q1060.84 32.7556 1059.05 32.7556 Q1052.73 32.7556 1049.33 36.8875 Q1045.97 40.9789 1045.97 48.6757 L1045.97 72.576 L1038.47 72.576 L1038.47 27.2059 L1045.97 27.2059 L1045.97 34.2544 Q1048.32 30.1225 1052.09 28.1376 Q1055.85 26.1121 1061.24 26.1121 Q1062.01 26.1121 1062.94 26.2337 Q1063.87 26.3147 1065.01 26.5172 L1065.05 34.1734 Z" fill="#000000" fill-rule="evenodd" fill-opacity="1" /><path clip-path="url(#clip870)" d="M 0 0 M1109.85 48.0275 L1109.85 51.6733 L1075.58 51.6733 Q1076.07 59.3701 1080.2 63.421 Q1084.37 67.4314 1091.78 67.4314 Q1096.08 67.4314 1100.09 66.3781 Q1104.14 65.3249 1108.11 63.2184 L1108.11 70.267 Q1104.1 71.9684 1099.89 72.8596 Q1095.67 73.7508 1091.34 73.7508 Q1080.48 73.7508 1074.12 67.4314 Q1067.8 61.1119 1067.8 50.3365 Q1067.8 39.1965 1073.8 32.6746 Q1079.83 26.1121 1090.04 26.1121 Q1099.2 26.1121 1104.5 32.0264 Q1109.85 37.9003 1109.85 48.0275 M1102.4 45.84 Q1102.32 39.7232 1098.95 36.0774 Q1095.63 32.4315 1090.12 32.4315 Q1083.89 32.4315 1080.12 35.9558 Q1076.39 39.4801 1075.82 45.8805 L1102.4 45.84 Z" fill="#000000" fill-rule="evenodd" fill-opacity="1" /><path clip-path="url(#clip870)" d="M 0 0 M1122.09 9.54393 L1129.54 9.54393 L1129.54 72.576 L1122.09 72.576 L1122.09 9.54393 Z" fill="#000000" fill-rule="evenodd" fill-opacity="1" /><path clip-path="url(#clip870)" d="M 0 0 M1165.75 49.7694 Q1156.72 49.7694 1153.24 51.8354 Q1149.75 53.9013 1149.75 58.8839 Q1149.75 62.8538 1152.35 65.2034 Q1154.98 67.5124 1159.48 67.5124 Q1165.67 67.5124 1169.4 63.1374 Q1173.17 58.7219 1173.17 51.4303 L1173.17 49.7694 L1165.75 49.7694 M1180.62 46.6907 L1180.62 72.576 L1173.17 72.576 L1173.17 65.6895 Q1170.62 69.8214 1166.81 71.8063 Q1163 73.7508 1157.49 73.7508 Q1150.52 73.7508 1146.39 69.8619 Q1142.3 65.9325 1142.3 59.3701 Q1142.3 51.7138 1147.4 47.825 Q1152.55 43.9361 1162.72 43.9361 L1173.17 43.9361 L1173.17 43.2069 Q1173.17 38.0623 1169.76 35.2672 Q1166.4 32.4315 1160.29 32.4315 Q1156.4 32.4315 1152.71 33.3632 Q1149.02 34.295 1145.62 36.1584 L1145.62 29.2718 Q1149.71 27.692 1153.56 26.9223 Q1157.41 26.1121 1161.05 26.1121 Q1170.9 26.1121 1175.76 31.2163 Q1180.62 36.3204 1180.62 46.6907 Z" fill="#000000" fill-rule="evenodd" fill-opacity="1" /><path clip-path="url(#clip870)" d="M 0 0 M1203.35 14.324 L1203.35 27.2059 L1218.7 27.2059 L1218.7 32.9987 L1203.35 32.9987 L1203.35 57.6282 Q1203.35 63.1779 1204.85 64.7578 Q1206.38 66.3376 1211.04 66.3376 L1218.7 66.3376 L1218.7 72.576 L1211.04 72.576 Q1202.41 72.576 1199.13 69.3758 Q1195.85 66.1351 1195.85 57.6282 L1195.85 32.9987 L1190.38 32.9987 L1190.38 27.2059 L1195.85 27.2059 L1195.85 14.324 L1203.35 14.324 Z" fill="#000000" fill-rule="evenodd" fill-opacity="1" /><path clip-path="url(#clip870)" d="M 0 0 M1228.5 27.2059 L1235.96 27.2059 L1235.96 72.576 L1228.5 72.576 L1228.5 27.2059 M1228.5 9.54393 L1235.96 9.54393 L1235.96 18.9825 L1228.5 18.9825 L1228.5 9.54393 Z" fill="#000000" fill-rule="evenodd" fill-opacity="1" /><path clip-path="url(#clip870)" d="M 0 0 M1269.13 32.4315 Q1263.14 32.4315 1259.65 37.1306 Q1256.17 41.7891 1256.17 49.9314 Q1256.17 58.0738 1259.61 62.7728 Q1263.1 67.4314 1269.13 67.4314 Q1275.09 67.4314 1278.57 62.7323 Q1282.06 58.0333 1282.06 49.9314 Q1282.06 41.8701 1278.57 37.1711 Q1275.09 32.4315 1269.13 32.4315 M1269.13 26.1121 Q1278.86 26.1121 1284.41 32.4315 Q1289.95 38.7509 1289.95 49.9314 Q1289.95 61.0714 1284.41 67.4314 Q1278.86 73.7508 1269.13 73.7508 Q1259.37 73.7508 1253.82 67.4314 Q1248.31 61.0714 1248.31 49.9314 Q1248.31 38.7509 1253.82 32.4315 Q1259.37 26.1121 1269.13 26.1121 Z" fill="#000000" fill-rule="evenodd" fill-opacity="1" /><path clip-path="url(#clip870)" d="M 0 0 M1340.02 45.1919 L1340.02 72.576 L1332.57 72.576 L1332.57 45.4349 Q1332.57 38.994 1330.06 35.7938 Q1327.55 32.5936 1322.52 32.5936 Q1316.49 32.5936 1313 36.4419 Q1309.52 40.2903 1309.52 46.9338 L1309.52 72.576 L1302.03 72.576 L1302.03 27.2059 L1309.52 27.2059 L1309.52 34.2544 Q1312.19 30.163 1315.8 28.1376 Q1319.45 26.1121 1324.18 26.1121 Q1332 26.1121 1336.01 30.9732 Q1340.02 35.7938 1340.02 45.1919 Z" fill="#000000" fill-rule="evenodd" fill-opacity="1" /><path clip-path="url(#clip870)" d="M 0 0 M1383.81 28.5427 L1383.81 35.5912 Q1380.65 33.9709 1377.25 33.1607 Q1373.85 32.3505 1370.2 32.3505 Q1364.65 32.3505 1361.86 34.0519 Q1359.1 35.7533 1359.1 39.156 Q1359.1 41.7486 1361.09 43.2475 Q1363.07 44.7058 1369.07 46.0426 L1371.62 46.6097 Q1379.56 48.3111 1382.88 51.4303 Q1386.24 54.509 1386.24 60.0587 Q1386.24 66.3781 1381.22 70.0644 Q1376.24 73.7508 1367.49 73.7508 Q1363.84 73.7508 1359.87 73.0216 Q1355.94 72.3329 1351.57 70.9151 L1351.57 63.2184 Q1355.7 65.3654 1359.71 66.4591 Q1363.72 67.5124 1367.65 67.5124 Q1372.92 67.5124 1375.75 65.73 Q1378.59 63.9071 1378.59 60.6258 Q1378.59 57.5877 1376.52 55.9673 Q1374.5 54.3469 1367.57 52.8481 L1364.98 52.2405 Q1358.05 50.7821 1354.97 47.7845 Q1351.89 44.7463 1351.89 39.4801 Q1351.89 33.0797 1356.43 29.5959 Q1360.97 26.1121 1369.31 26.1121 Q1373.44 26.1121 1377.09 26.7198 Q1380.74 27.3274 1383.81 28.5427 Z" fill="#000000" fill-rule="evenodd" fill-opacity="1" /><path clip-path="url(#clip870)" d="M 0 0 M1419.14 27.2059 L1427.04 27.2059 L1441.22 65.2844 L1455.39 27.2059 L1463.29 27.2059 L1446.28 72.576 L1436.15 72.576 L1419.14 27.2059 Z" fill="#000000" fill-rule="evenodd" fill-opacity="1" /><path clip-path="url(#clip870)" d="M 0 0 M1502.51 28.5427 L1502.51 35.5912 Q1499.35 33.9709 1495.94 33.1607 Q1492.54 32.3505 1488.89 32.3505 Q1483.34 32.3505 1480.55 34.0519 Q1477.8 35.7533 1477.8 39.156 Q1477.8 41.7486 1479.78 43.2475 Q1481.77 44.7058 1487.76 46.0426 L1490.31 46.6097 Q1498.25 48.3111 1501.57 51.4303 Q1504.94 54.509 1504.94 60.0587 Q1504.94 66.3781 1499.91 70.0644 Q1494.93 73.7508 1486.18 73.7508 Q1482.53 73.7508 1478.56 73.0216 Q1474.64 72.3329 1470.26 70.9151 L1470.26 63.2184 Q1474.39 65.3654 1478.4 66.4591 Q1482.41 67.5124 1486.34 67.5124 Q1491.61 67.5124 1494.44 65.73 Q1497.28 63.9071 1497.28 60.6258 Q1497.28 57.5877 1495.21 55.9673 Q1493.19 54.3469 1486.26 52.8481 L1483.67 52.2405 Q1476.74 50.7821 1473.66 47.7845 Q1470.58 44.7463 1470.58 39.4801 Q1470.58 33.0797 1475.12 29.5959 Q1479.66 26.1121 1488 26.1121 Q1492.14 26.1121 1495.78 26.7198 Q1499.43 27.3274 1502.51 28.5427 Z" fill="#000000" fill-rule="evenodd" fill-opacity="1" /><path clip-path="url(#clip870)" d="M 0 0 M1543.5 12.096 L1578.26 12.096 L1578.26 18.9825 L1551.68 18.9825 L1551.68 36.8065 L1575.67 36.8065 L1575.67 43.6931 L1551.68 43.6931 L1551.68 72.576 L1543.5 72.576 L1543.5 12.096 Z" fill="#000000" fill-rule="evenodd" fill-opacity="1" /><path clip-path="url(#clip870)" d="M 0 0 M1611.15 34.1734 Q1609.9 33.4443 1608.4 33.1202 Q1606.94 32.7556 1605.16 32.7556 Q1598.84 32.7556 1595.43 36.8875 Q1592.07 40.9789 1592.07 48.6757 L1592.07 72.576 L1584.58 72.576 L1584.58 27.2059 L1592.07 27.2059 L1592.07 34.2544 Q1594.42 30.1225 1598.19 28.1376 Q1601.96 26.1121 1607.34 26.1121 Q1608.11 26.1121 1609.04 26.2337 Q1609.98 26.3147 1611.11 26.5172 L1611.15 34.1734 Z" fill="#000000" fill-rule="evenodd" fill-opacity="1" /><path clip-path="url(#clip870)" d="M 0 0 M1655.95 48.0275 L1655.95 51.6733 L1621.68 51.6733 Q1622.17 59.3701 1626.3 63.421 Q1630.47 67.4314 1637.89 67.4314 Q1642.18 67.4314 1646.19 66.3781 Q1650.24 65.3249 1654.21 63.2184 L1654.21 70.267 Q1650.2 71.9684 1645.99 72.8596 Q1641.78 73.7508 1637.44 73.7508 Q1626.58 73.7508 1620.22 67.4314 Q1613.91 61.1119 1613.91 50.3365 Q1613.91 39.1965 1619.9 32.6746 Q1625.94 26.1121 1636.15 26.1121 Q1645.3 26.1121 1650.61 32.0264 Q1655.95 37.9003 1655.95 48.0275 M1648.5 45.84 Q1648.42 39.7232 1645.06 36.0774 Q1641.74 32.4315 1636.23 32.4315 Q1629.99 32.4315 1626.22 35.9558 Q1622.49 39.4801 1621.93 45.8805 L1648.5 45.84 Z" fill="#000000" fill-rule="evenodd" fill-opacity="1" /><path clip-path="url(#clip870)" d="M 0 0 M1672.64 49.9314 Q1672.64 58.1548 1676.01 62.8538 Q1679.41 67.5124 1685.32 67.5124 Q1691.24 67.5124 1694.64 62.8538 Q1698.04 58.1548 1698.04 49.9314 Q1698.04 41.7081 1694.64 37.0496 Q1691.24 32.3505 1685.32 32.3505 Q1679.41 32.3505 1676.01 37.0496 Q1672.64 41.7081 1672.64 49.9314 M1698.04 65.7705 Q1695.69 69.8214 1692.09 71.8063 Q1688.52 73.7508 1683.5 73.7508 Q1675.28 73.7508 1670.09 67.1883 Q1664.95 60.6258 1664.95 49.9314 Q1664.95 39.2371 1670.09 32.6746 Q1675.28 26.1121 1683.5 26.1121 Q1688.52 26.1121 1692.09 28.0971 Q1695.69 30.0415 1698.04 34.0924 L1698.04 27.2059 L1705.5 27.2059 L1705.5 89.8329 L1698.04 89.8329 L1698.04 65.7705 Z" fill="#000000" fill-rule="evenodd" fill-opacity="1" /><path clip-path="url(#clip870)" d="M 0 0 M1720.08 54.671 L1720.08 27.2059 L1727.53 27.2059 L1727.53 54.3874 Q1727.53 60.8284 1730.04 64.0691 Q1732.56 67.2693 1737.58 67.2693 Q1743.62 67.2693 1747.1 63.421 Q1750.62 59.5726 1750.62 52.9291 L1750.62 27.2059 L1758.08 27.2059 L1758.08 72.576 L1750.62 72.576 L1750.62 65.6084 Q1747.91 69.7404 1744.3 71.7658 Q1740.74 73.7508 1736 73.7508 Q1728.18 73.7508 1724.13 68.8897 Q1720.08 64.0286 1720.08 54.671 M1738.84 26.1121 L1738.84 26.1121 Z" fill="#000000" fill-rule="evenodd" fill-opacity="1" /><path clip-path="url(#clip870)" d="M 0 0 M1812.24 48.0275 L1812.24 51.6733 L1777.97 51.6733 Q1778.45 59.3701 1782.59 63.421 Q1786.76 67.4314 1794.17 67.4314 Q1798.46 67.4314 1802.48 66.3781 Q1806.53 65.3249 1810.5 63.2184 L1810.5 70.267 Q1806.49 71.9684 1802.27 72.8596 Q1798.06 73.7508 1793.73 73.7508 Q1782.87 73.7508 1776.51 67.4314 Q1770.19 61.1119 1770.19 50.3365 Q1770.19 39.1965 1776.18 32.6746 Q1782.22 26.1121 1792.43 26.1121 Q1801.58 26.1121 1806.89 32.0264 Q1812.24 37.9003 1812.24 48.0275 M1804.78 45.84 Q1804.7 39.7232 1801.34 36.0774 Q1798.02 32.4315 1792.51 32.4315 Q1786.27 32.4315 1782.5 35.9558 Q1778.78 39.4801 1778.21 45.8805 L1804.78 45.84 Z" fill="#000000" fill-rule="evenodd" fill-opacity="1" /><path clip-path="url(#clip870)" d="M 0 0 M1862.19 45.1919 L1862.19 72.576 L1854.73 72.576 L1854.73 45.4349 Q1854.73 38.994 1852.22 35.7938 Q1849.71 32.5936 1844.69 32.5936 Q1838.65 32.5936 1835.17 36.4419 Q1831.68 40.2903 1831.68 46.9338 L1831.68 72.576 L1824.19 72.576 L1824.19 27.2059 L1831.68 27.2059 L1831.68 34.2544 Q1834.36 30.163 1837.96 28.1376 Q1841.61 26.1121 1846.35 26.1121 Q1854.16 26.1121 1858.18 30.9732 Q1862.19 35.7938 1862.19 45.1919 Z" fill="#000000" fill-rule="evenodd" fill-opacity="1" /><path clip-path="url(#clip870)" d="M 0 0 M1909.7 28.9478 L1909.7 35.9153 Q1906.54 34.1734 1903.34 33.3227 Q1900.18 32.4315 1896.94 32.4315 Q1889.69 32.4315 1885.68 37.0496 Q1881.67 41.6271 1881.67 49.9314 Q1881.67 58.2358 1885.68 62.8538 Q1889.69 67.4314 1896.94 67.4314 Q1900.18 67.4314 1903.34 66.5807 Q1906.54 65.6895 1909.7 63.9476 L1909.7 70.8341 Q1906.58 72.2924 1903.22 73.0216 Q1899.9 73.7508 1896.13 73.7508 Q1885.88 73.7508 1879.85 67.3098 Q1873.81 60.8689 1873.81 49.9314 Q1873.81 38.832 1879.89 32.472 Q1886 26.1121 1896.62 26.1121 Q1900.06 26.1121 1903.34 26.8413 Q1906.62 27.5299 1909.7 28.9478 Z" fill="#000000" fill-rule="evenodd" fill-opacity="1" /><path clip-path="url(#clip870)" d="M 0 0 M1941.54 76.7889 Q1938.38 84.8907 1935.39 87.3618 Q1932.39 89.8329 1927.36 89.8329 L1921.41 89.8329 L1921.41 83.5945 L1925.78 83.5945 Q1928.86 83.5945 1930.56 82.1361 Q1932.27 80.6778 1934.33 75.2496 L1935.67 71.8468 L1917.32 27.2059 L1925.22 27.2059 L1939.4 62.6918 L1953.57 27.2059 L1961.47 27.2059 L1941.54 76.7889 Z" fill="#000000" fill-rule="evenodd" fill-opacity="1" /><polyline clip-path="url(#clip873)" style="stroke:#009af9; stroke-width:4; stroke-opacity:1; fill:none" points="
  252.043,1386.4 256.172,160.256 260.3,891.738 264.429,1293.32 268.558,917.028 272.686,1114.21 276.815,1161.3 280.943,1129.68 285.072,1130.13 289.201,1217.59 
  293.329,1351.26 297.458,1009.96 301.586,1179.54 305.715,1339.64 309.844,602.733 313.972,1136.8 318.101,1125.51 322.229,1294.71 326.358,1183.09 330.487,972.335 
  334.615,1144.14 338.744,538.508 342.872,935.598 347.001,1310.64 351.13,1296.84 355.258,1195.2 359.387,1227.25 363.515,1206.31 367.644,1277.46 371.773,1160.72 
  375.901,629.064 380.03,710.092 384.158,933.176 388.287,1039.47 392.416,1057.23 396.544,1114.53 400.673,1136.83 404.801,1270.42 408.93,1162.64 413.059,1015 
  417.187,1081.81 421.316,963.181 425.444,1268.95 429.573,1184.97 433.702,1109.83 437.83,1199.34 441.959,1008.65 446.087,778.558 450.216,847.104 454.345,1200.54 
  458.473,1257.65 462.602,584.425 466.73,966.698 470.859,1279.23 474.988,1210.12 479.116,941.077 483.245,1112.01 487.373,1152.6 491.502,1258.26 495.631,1295.91 
  499.759,1242.83 503.888,1001.36 508.016,1054.96 512.145,1112.94 516.273,1132.11 520.402,1306.96 524.531,1048.36 528.659,1219.42 532.788,1232.7 536.916,1352.45 
  541.045,1134.5 545.174,1254.6 549.302,1050.68 553.431,1300.67 557.559,1167.98 561.688,1089.39 565.817,1118.58 569.945,908.687 574.074,1270.29 578.202,649.98 
  582.331,1213.57 586.46,1070.33 590.588,1215.62 594.717,1024.55 598.845,1268.86 602.974,1055.34 607.103,1123.19 611.231,1184.23 615.36,1219.63 619.488,1247.17 
  623.617,883.452 627.746,1113.17 631.874,793.155 636.003,668.337 640.131,883.691 644.26,1148.69 648.389,1198.71 652.517,1095.67 656.646,1301.38 660.774,438.759 
  664.903,881.811 669.032,1335.29 673.16,1312.32 677.289,1332.25 681.417,1188.38 685.546,1168.72 689.675,917.267 693.803,1216.65 697.932,995.832 702.06,1002.36 
  706.189,1225.08 710.318,725.761 714.446,1328.84 718.575,1139.17 722.703,1162.66 726.832,1105.16 730.961,1330.45 735.089,694.85 739.218,1214.3 743.346,582.174 
  747.475,967.722 751.604,1253.16 755.732,1223.29 759.861,1059.63 763.989,1223.7 768.118,962.003 772.246,784.962 776.375,992.163 780.504,1162.71 784.632,1207.9 
  788.761,1206.84 792.889,1101.82 797.018,1190.21 801.147,1084.22 805.275,1229.62 809.404,1188.85 813.532,1155.15 817.661,1006.39 821.79,1309.27 825.918,1360.72 
  830.047,1123.81 834.175,1350.13 838.304,1282.66 842.433,1291.23 846.561,1196.12 850.69,1248.11 854.818,1165.12 858.947,984.424 863.076,1068.19 867.204,729.199 
  871.333,1084.06 875.461,1108.14 879.59,881.573 883.719,1259.32 887.847,1277.99 891.976,1330.91 896.104,1097.82 900.233,881.24 904.362,1278.09 908.49,1128.56 
  912.619,1149.91 916.747,1098.47 920.876,1298.68 925.005,1235.87 929.133,1044.13 933.262,1008.48 937.39,1027.67 941.519,872.147 945.648,1205.35 949.776,1340.43 
  953.905,1361.89 958.033,972.524 962.162,1237.31 966.291,1213.96 970.419,1245.08 974.548,1166.63 978.676,1338 982.805,1121.34 986.934,1166.54 991.062,1288.26 
  995.191,1288.25 999.319,1173.58 1003.45,1179.52 1007.58,1166.01 1011.71,1048.63 1015.83,1160.84 1019.96,1118.55 1024.09,1265.85 1028.22,1366.72 1032.35,1313.44 
  1036.48,1268.18 1040.61,1188.12 1044.73,1085.87 1048.86,198.272 1052.99,866.273 1057.12,1192.51 1061.25,1332.3 1065.38,1081.47 1069.51,1206.81 1073.63,1287.27 
  1077.76,1172.7 1081.89,1248.81 1086.02,1204.81 1090.15,1249.86 1094.28,1137.01 1098.41,1174.07 1102.53,999.294 1106.66,1278.95 1110.79,1212.42 1114.92,1252.23 
  1119.05,1102.77 1123.18,893.298 1127.31,699.055 1131.43,1148.09 1135.56,937.643 1139.69,1355.57 1143.82,1236.37 1147.95,1075.06 1152.08,1241.3 1156.21,864.968 
  1160.33,1198.96 1164.46,1133.64 1168.59,1074.43 1172.72,1086.03 1176.85,1278.29 1180.98,1323.07 1185.11,1259.55 1189.23,1249.55 1193.36,1219.92 1197.49,1132.96 
  1201.62,1294.53 1205.75,987.76 1209.88,1366.27 1214.01,1249.64 1218.13,1037.16 1222.26,1237.51 1226.39,1296.14 1230.52,1309.57 1234.65,1045.45 1238.78,1017.71 
  1242.91,1005.6 1247.04,1041.71 1251.16,1081.94 1255.29,1152.63 1259.42,1091.31 1263.55,1187.31 1267.68,1248.86 1271.81,1195.15 1275.94,1116.36 1280.06,1227.7 
  1284.19,1241.97 1288.32,1206.07 1292.45,1089.49 1296.58,1039.34 1300.71,1202.16 1304.84,946.441 1308.96,949.2 1313.09,1207.21 1317.22,1103.9 1321.35,1218.13 
  1325.48,1270.65 1329.61,1258.31 1333.74,1088.25 1337.86,814.575 1341.99,968.38 1346.12,1270.99 1350.25,1194.54 1354.38,822.081 1358.51,1218.42 1362.64,962.392 
  1366.76,1040.92 1370.89,566.501 1375.02,1307.41 1379.15,1134.54 1383.28,905.407 1387.41,1312.95 1391.54,1050.78 1395.66,1239.08 1399.79,1212.53 1403.92,843.282 
  1408.05,1147.27 1412.18,1011.64 1416.31,778.246 1420.44,870.141 1424.56,1289.78 1428.69,1257.61 1432.82,998.238 1436.95,1132.99 1441.08,1227.4 1445.21,1217.03 
  1449.34,1061.42 1453.46,1266.99 1457.59,1164.67 1461.72,1128.31 1465.85,992.517 1469.98,1293.32 1474.11,1330.94 1478.24,1196.7 1482.37,1202.36 1486.49,1288.77 
  1490.62,1289.16 1494.75,1160.27 1498.88,1125.29 1503.01,1244.5 1507.14,1312.63 1511.27,942.7 1515.39,1174.04 1519.52,1323.95 1523.65,864.711 1527.78,789.491 
  1531.91,1117.78 1536.04,1149.16 1540.17,1162.5 1544.29,1257.58 1548.42,1055.72 1552.55,1161.97 1556.68,998.348 1560.81,1174.85 1564.94,734.445 1569.07,1321.6 
  1573.19,1292.17 1577.32,1169.61 1581.45,1255.6 1585.58,1156.02 1589.71,1159.19 1593.84,794.625 1597.97,1058.44 1602.09,1187.21 1606.22,1354.17 1610.35,1136.22 
  1614.48,1024.52 1618.61,1017.12 1622.74,1325.27 1626.87,1300.08 1630.99,1365.78 1635.12,904.829 1639.25,1305.39 1643.38,1325.3 1647.51,1192.15 1651.64,1210.62 
  1655.77,1143.98 1659.89,1308.87 1664.02,1217.77 1668.15,1182.29 1672.28,1220.08 1676.41,1296.14 1680.54,1243.93 1684.67,1239.75 1688.79,506.887 1692.92,1023.58 
  1697.05,741.967 1701.18,1182.28 1705.31,1299.09 1709.44,1207.45 1713.57,1328.13 1717.7,1229.25 1721.82,1184.15 1725.95,1028.88 1730.08,1203.58 1734.21,1085.54 
  1738.34,1204.5 1742.47,1260.4 1746.6,1376.07 1750.72,1173.3 1754.85,1217.18 1758.98,1351.09 1763.11,1298.81 1767.24,1169.02 1771.37,1220.34 1775.5,1141.63 
  1779.62,1144.53 1783.75,1255.58 1787.88,1237.26 1792.01,1245.48 1796.14,1168.26 1800.27,1352.33 1804.4,1194.49 1808.52,1261.26 1812.65,1302 1816.78,841.542 
  1820.91,1096.99 1825.04,1003.2 1829.17,984.33 1833.3,1100.16 1837.42,1127.54 1841.55,1187.17 1845.68,965.442 1849.81,1219.64 1853.94,1221.79 1858.07,1319.19 
  1862.2,1288.19 1866.32,1057.5 1870.45,1233.57 1874.58,1180.14 1878.71,1282.63 1882.84,1218.2 1886.97,1288.15 1891.1,1238.96 1895.22,1239.44 1899.35,1293.64 
  1903.48,1339.11 1907.61,1130.27 1911.74,1296.96 1915.87,1009.83 1920,1174.7 1924.12,1324.25 1928.25,1319.22 1932.38,965.798 1936.51,951.394 1940.64,1339.75 
  1944.77,1368.39 1948.9,1301.29 1953.03,1100.83 1957.15,1174.29 1961.28,1038.27 1965.41,1237.29 1969.54,1232.8 1973.67,1215.97 1977.8,1227.12 1981.93,1182.92 
  1986.05,1289.76 1990.18,1118.26 1994.31,1060.68 1998.44,1091.83 2002.57,1272.67 2006.7,1321.31 2010.83,1312.77 2014.95,1297.35 2019.08,1155.29 2023.21,1248.47 
  2027.34,1353.54 2031.47,1237.91 2035.6,1248.84 2039.73,1275.04 2043.85,1151.53 2047.98,1068.54 2052.11,1347.05 2056.24,1034.8 2060.37,1256.39 2064.5,1249.1 
  2068.63,1290.57 2072.75,1203.96 2076.88,1295.88 2081.01,1288.91 2085.14,1243.39 2089.27,1267.9 2093.4,1232.09 2097.53,1281.18 2101.65,1300.63 2105.78,1341.86 
  2109.91,1209.35 2114.04,1193.47 2118.17,1176.04 2122.3,1190.05 2126.43,1243.75 2130.55,1203.03 2134.68,1240.85 2138.81,1222.78 2142.94,1149.83 2147.07,1039.4 
  2151.2,1251.67 2155.33,1132.29 2159.46,1230.2 2163.58,1227.26 2167.71,1176.98 2171.84,1362.65 2175.97,1274.65 2180.1,966.448 2184.23,1207.46 2188.36,1250.13 
  2192.48,1155.38 2196.61,1318.23 2200.74,1351.32 2204.87,1275.68 2209,1209.69 2213.13,1227.3 2217.26,1189.15 2221.38,1117.08 2225.51,1046.66 2229.64,1369.6 
  2233.77,1294.78 2237.9,1290.3 2242.03,1305.36 2246.16,928.523 2250.28,1192.21 2254.41,1248.63 2258.54,1287.37 2262.67,1361.89 2266.8,1259.79 2270.93,1052.06 
  2275.06,1328.86 2279.18,1204.53 2283.31,1252.09 2287.44,1299.69 2291.57,1334.71 
  "/>
<polyline clip-path="url(#clip873)" style="stroke:#e26f46; stroke-width:4; stroke-opacity:1; fill:none" stroke-dasharray="16, 10" points="
  415.371,2722.89 415.371,-1176.24 
  "/>
<polyline clip-path="url(#clip873)" style="stroke:#e26f46; stroke-width:4; stroke-opacity:1; fill:none" stroke-dasharray="16, 10" points="
  292.875,2722.89 292.875,-1176.24 
  "/>
<polyline clip-path="url(#clip873)" style="stroke:#e26f46; stroke-width:4; stroke-opacity:1; fill:none" stroke-dasharray="16, 10" points="
  660.362,2722.89 660.362,-1176.24 
  "/>
<polyline clip-path="url(#clip873)" style="stroke:#e26f46; stroke-width:4; stroke-opacity:1; fill:none" stroke-dasharray="16, 10" points="
  374.539,2722.89 374.539,-1176.24 
  "/>
<polyline clip-path="url(#clip873)" style="stroke:#e26f46; stroke-width:4; stroke-opacity:1; fill:none" stroke-dasharray="16, 10" points="
  497.034,2722.89 497.034,-1176.24 
  "/>
<polyline clip-path="url(#clip873)" style="stroke:#e26f46; stroke-width:4; stroke-opacity:1; fill:none" stroke-dasharray="16, 10" points="
  619.53,2722.89 619.53,-1176.24 
  "/>
<path clip-path="url(#clip870)" d="
M1663.98 287.756 L2280.69 287.756 L2280.69 166.796 L1663.98 166.796  Z
  " fill="#ffffff" fill-rule="evenodd" fill-opacity="1"/>
<polyline clip-path="url(#clip870)" style="stroke:#000000; stroke-width:4; stroke-opacity:1; fill:none" points="
  1663.98,287.756 2280.69,287.756 2280.69,166.796 1663.98,166.796 1663.98,287.756 
  "/>
<polyline clip-path="url(#clip870)" style="stroke:#e26f46; stroke-width:4; stroke-opacity:1; fill:none" stroke-dasharray="16, 10" points="
  1688,227.276 1832.13,227.276 
  "/>
<path clip-path="url(#clip870)" d="M 0 0 M1872.65 208.537 L1872.65 212.079 L1868.58 212.079 Q1866.29 212.079 1865.38 213.005 Q1864.5 213.931 1864.5 216.338 L1864.5 218.63 L1871.52 218.63 L1871.52 221.94 L1864.5 221.94 L1864.5 244.556 L1860.22 244.556 L1860.22 221.94 L1856.15 221.94 L1856.15 218.63 L1860.22 218.63 L1860.22 216.824 Q1860.22 212.496 1862.24 210.528 Q1864.25 208.537 1868.62 208.537 L1872.65 208.537 Z" fill="#000000" fill-rule="evenodd" fill-opacity="1" /><path clip-path="url(#clip870)" d="M 0 0 M1891.24 222.611 Q1890.52 222.195 1889.67 222.01 Q1888.83 221.801 1887.81 221.801 Q1884.2 221.801 1882.26 224.162 Q1880.34 226.5 1880.34 230.898 L1880.34 244.556 L1876.06 244.556 L1876.06 218.63 L1880.34 218.63 L1880.34 222.658 Q1881.68 220.297 1883.83 219.162 Q1885.99 218.005 1889.06 218.005 Q1889.5 218.005 1890.04 218.074 Q1890.57 218.121 1891.22 218.236 L1891.24 222.611 Z" fill="#000000" fill-rule="evenodd" fill-opacity="1" /><path clip-path="url(#clip870)" d="M 0 0 M1916.84 230.528 L1916.84 232.611 L1897.26 232.611 Q1897.54 237.009 1899.9 239.324 Q1902.28 241.616 1906.52 241.616 Q1908.97 241.616 1911.26 241.014 Q1913.58 240.412 1915.85 239.209 L1915.85 243.236 Q1913.55 244.208 1911.15 244.718 Q1908.74 245.227 1906.26 245.227 Q1900.06 245.227 1896.43 241.616 Q1892.81 238.005 1892.81 231.847 Q1892.81 225.482 1896.24 221.755 Q1899.69 218.005 1905.52 218.005 Q1910.75 218.005 1913.79 221.385 Q1916.84 224.741 1916.84 230.528 M1912.58 229.278 Q1912.54 225.783 1910.62 223.699 Q1908.72 221.616 1905.57 221.616 Q1902 221.616 1899.85 223.63 Q1897.72 225.644 1897.4 229.301 L1912.58 229.278 Z" fill="#000000" fill-rule="evenodd" fill-opacity="1" /><path clip-path="url(#clip870)" d="M 0 0 M1926.38 231.616 Q1926.38 236.315 1928.3 239 Q1930.24 241.662 1933.62 241.662 Q1937 241.662 1938.95 239 Q1940.89 236.315 1940.89 231.616 Q1940.89 226.917 1938.95 224.255 Q1937 221.57 1933.62 221.57 Q1930.24 221.57 1928.3 224.255 Q1926.38 226.917 1926.38 231.616 M1940.89 240.667 Q1939.55 242.982 1937.49 244.116 Q1935.45 245.227 1932.58 245.227 Q1927.88 245.227 1924.92 241.477 Q1921.98 237.727 1921.98 231.616 Q1921.98 225.505 1924.92 221.755 Q1927.88 218.005 1932.58 218.005 Q1935.45 218.005 1937.49 219.139 Q1939.55 220.25 1940.89 222.565 L1940.89 218.63 L1945.15 218.63 L1945.15 254.417 L1940.89 254.417 L1940.89 240.667 Z" fill="#000000" fill-rule="evenodd" fill-opacity="1" /><path clip-path="url(#clip870)" d="M 0 0 M1953.49 234.324 L1953.49 218.63 L1957.74 218.63 L1957.74 234.162 Q1957.74 237.843 1959.18 239.695 Q1960.61 241.523 1963.49 241.523 Q1966.93 241.523 1968.92 239.324 Q1970.94 237.125 1970.94 233.329 L1970.94 218.63 L1975.2 218.63 L1975.2 244.556 L1970.94 244.556 L1970.94 240.574 Q1969.39 242.935 1967.33 244.093 Q1965.29 245.227 1962.58 245.227 Q1958.11 245.227 1955.8 242.449 Q1953.49 239.671 1953.49 234.324 M1964.2 218.005 L1964.2 218.005 Z" fill="#000000" fill-rule="evenodd" fill-opacity="1" /><path clip-path="url(#clip870)" d="M 0 0 M2006.15 230.528 L2006.15 232.611 L1986.56 232.611 Q1986.84 237.009 1989.2 239.324 Q1991.59 241.616 1995.82 241.616 Q1998.28 241.616 2000.57 241.014 Q2002.88 240.412 2005.15 239.209 L2005.15 243.236 Q2002.86 244.208 2000.45 244.718 Q1998.05 245.227 1995.57 245.227 Q1989.36 245.227 1985.73 241.616 Q1982.12 238.005 1982.12 231.847 Q1982.12 225.482 1985.55 221.755 Q1988.99 218.005 1994.83 218.005 Q2000.06 218.005 2003.09 221.385 Q2006.15 224.741 2006.15 230.528 M2001.89 229.278 Q2001.84 225.783 1999.92 223.699 Q1998.02 221.616 1994.87 221.616 Q1991.31 221.616 1989.16 223.63 Q1987.03 225.644 1986.7 229.301 L2001.89 229.278 Z" fill="#000000" fill-rule="evenodd" fill-opacity="1" /><path clip-path="url(#clip870)" d="M 0 0 M2034.69 228.908 L2034.69 244.556 L2030.43 244.556 L2030.43 229.047 Q2030.43 225.366 2028.99 223.537 Q2027.56 221.709 2024.69 221.709 Q2021.24 221.709 2019.25 223.908 Q2017.26 226.107 2017.26 229.903 L2017.26 244.556 L2012.98 244.556 L2012.98 218.63 L2017.26 218.63 L2017.26 222.658 Q2018.79 220.32 2020.85 219.162 Q2022.93 218.005 2025.64 218.005 Q2030.11 218.005 2032.4 220.783 Q2034.69 223.537 2034.69 228.908 Z" fill="#000000" fill-rule="evenodd" fill-opacity="1" /><path clip-path="url(#clip870)" d="M 0 0 M2061.84 219.625 L2061.84 223.607 Q2060.04 222.611 2058.21 222.125 Q2056.4 221.616 2054.55 221.616 Q2050.41 221.616 2048.11 224.255 Q2045.82 226.871 2045.82 231.616 Q2045.82 236.361 2048.11 239 Q2050.41 241.616 2054.55 241.616 Q2056.4 241.616 2058.21 241.13 Q2060.04 240.621 2061.84 239.625 L2061.84 243.56 Q2060.06 244.394 2058.14 244.81 Q2056.24 245.227 2054.09 245.227 Q2048.23 245.227 2044.78 241.546 Q2041.33 237.866 2041.33 231.616 Q2041.33 225.273 2044.8 221.639 Q2048.3 218.005 2054.36 218.005 Q2056.33 218.005 2058.21 218.422 Q2060.08 218.815 2061.84 219.625 Z" fill="#000000" fill-rule="evenodd" fill-opacity="1" /><path clip-path="url(#clip870)" d="M 0 0 M2080.04 246.963 Q2078.23 251.593 2076.52 253.005 Q2074.8 254.417 2071.93 254.417 L2068.53 254.417 L2068.53 250.852 L2071.03 250.852 Q2072.79 250.852 2073.76 250.019 Q2074.73 249.185 2075.92 246.083 L2076.68 244.139 L2066.19 218.63 L2070.71 218.63 L2078.81 238.908 L2086.91 218.63 L2091.42 218.63 L2080.04 246.963 Z" fill="#000000" fill-rule="evenodd" fill-opacity="1" /><path clip-path="url(#clip870)" d="M 0 0 M2128.9 219.394 L2128.9 223.422 Q2127.1 222.496 2125.15 222.033 Q2123.21 221.57 2121.12 221.57 Q2117.95 221.57 2116.35 222.542 Q2114.78 223.514 2114.78 225.459 Q2114.78 226.94 2115.91 227.797 Q2117.05 228.63 2120.48 229.394 L2121.93 229.718 Q2126.47 230.69 2128.37 232.472 Q2130.29 234.232 2130.29 237.403 Q2130.29 241.014 2127.42 243.121 Q2124.57 245.227 2119.57 245.227 Q2117.49 245.227 2115.22 244.81 Q2112.98 244.417 2110.48 243.607 L2110.48 239.209 Q2112.84 240.435 2115.13 241.06 Q2117.42 241.662 2119.66 241.662 Q2122.67 241.662 2124.29 240.644 Q2125.91 239.602 2125.91 237.727 Q2125.91 235.991 2124.73 235.065 Q2123.58 234.139 2119.62 233.283 L2118.14 232.935 Q2114.18 232.102 2112.42 230.389 Q2110.66 228.653 2110.66 225.644 Q2110.66 221.986 2113.25 219.996 Q2115.85 218.005 2120.61 218.005 Q2122.98 218.005 2125.06 218.352 Q2127.14 218.699 2128.9 219.394 Z" fill="#000000" fill-rule="evenodd" fill-opacity="1" /><path clip-path="url(#clip870)" d="M 0 0 M2158.62 228.908 L2158.62 244.556 L2154.36 244.556 L2154.36 229.047 Q2154.36 225.366 2152.93 223.537 Q2151.49 221.709 2148.62 221.709 Q2145.17 221.709 2143.18 223.908 Q2141.19 226.107 2141.19 229.903 L2141.19 244.556 L2136.91 244.556 L2136.91 208.537 L2141.19 208.537 L2141.19 222.658 Q2142.72 220.32 2144.78 219.162 Q2146.86 218.005 2149.57 218.005 Q2154.04 218.005 2156.33 220.783 Q2158.62 223.537 2158.62 228.908 Z" fill="#000000" fill-rule="evenodd" fill-opacity="1" /><path clip-path="url(#clip870)" d="M 0 0 M2167.12 218.63 L2171.38 218.63 L2171.38 244.556 L2167.12 244.556 L2167.12 218.63 M2167.12 208.537 L2171.38 208.537 L2171.38 213.931 L2167.12 213.931 L2167.12 208.537 Z" fill="#000000" fill-rule="evenodd" fill-opacity="1" /><path clip-path="url(#clip870)" d="M 0 0 M2193.41 208.537 L2193.41 212.079 L2189.34 212.079 Q2187.05 212.079 2186.15 213.005 Q2185.27 213.931 2185.27 216.338 L2185.27 218.63 L2192.28 218.63 L2192.28 221.94 L2185.27 221.94 L2185.27 244.556 L2180.98 244.556 L2180.98 221.94 L2176.91 221.94 L2176.91 218.63 L2180.98 218.63 L2180.98 216.824 Q2180.98 212.496 2183 210.528 Q2185.01 208.537 2189.39 208.537 L2193.41 208.537 Z" fill="#000000" fill-rule="evenodd" fill-opacity="1" /><path clip-path="url(#clip870)" d="M 0 0 M2200.36 211.269 L2200.36 218.63 L2209.13 218.63 L2209.13 221.94 L2200.36 221.94 L2200.36 236.014 Q2200.36 239.185 2201.22 240.088 Q2202.1 240.991 2204.76 240.991 L2209.13 240.991 L2209.13 244.556 L2204.76 244.556 Q2199.83 244.556 2197.95 242.727 Q2196.08 240.875 2196.08 236.014 L2196.08 221.94 L2192.95 221.94 L2192.95 218.63 L2196.08 218.63 L2196.08 211.269 L2200.36 211.269 Z" fill="#000000" fill-rule="evenodd" fill-opacity="1" /><path clip-path="url(#clip870)" d="M 0 0 M2231.26 219.394 L2231.26 223.422 Q2229.46 222.496 2227.51 222.033 Q2225.57 221.57 2223.48 221.57 Q2220.31 221.57 2218.72 222.542 Q2217.14 223.514 2217.14 225.459 Q2217.14 226.94 2218.28 227.797 Q2219.41 228.63 2222.84 229.394 L2224.29 229.718 Q2228.83 230.69 2230.73 232.472 Q2232.65 234.232 2232.65 237.403 Q2232.65 241.014 2229.78 243.121 Q2226.93 245.227 2221.93 245.227 Q2219.85 245.227 2217.58 244.81 Q2215.34 244.417 2212.84 243.607 L2212.84 239.209 Q2215.2 240.435 2217.49 241.06 Q2219.78 241.662 2222.03 241.662 Q2225.03 241.662 2226.66 240.644 Q2228.28 239.602 2228.28 237.727 Q2228.28 235.991 2227.09 235.065 Q2225.94 234.139 2221.98 233.283 L2220.5 232.935 Q2216.54 232.102 2214.78 230.389 Q2213.02 228.653 2213.02 225.644 Q2213.02 221.986 2215.61 219.996 Q2218.21 218.005 2222.97 218.005 Q2225.34 218.005 2227.42 218.352 Q2229.5 218.699 2231.26 219.394 Z" fill="#000000" fill-rule="evenodd" fill-opacity="1" /></svg>
