<?xml version="1.0" encoding="utf-8"?>
<svg xmlns="http://www.w3.org/2000/svg" xmlns:xlink="http://www.w3.org/1999/xlink" width="600" height="400" viewBox="0 0 2400 1600">
<defs>
  <clipPath id="clip440">
    <rect x="0" y="0" width="2400" height="1600"/>
  </clipPath>
</defs>
<path clip-path="url(#clip440)" d="
M0 1600 L2400 1600 L2400 0 L0 0  Z
  " fill="#ffffff" fill-rule="evenodd" fill-opacity="1"/>
<defs>
  <clipPath id="clip441">
    <rect x="480" y="0" width="1681" height="1600"/>
  </clipPath>
</defs>
<defs>
  <clipPath id="clip442">
    <rect x="211" y="123" width="2142" height="1305"/>
  </clipPath>
</defs>
<path clip-path="url(#clip440)" d="
M294.763 1427.15 L2352.76 1427.15 L2352.76 123.472 L294.763 123.472  Z
  " fill="#ffffff" fill-rule="evenodd" fill-opacity="1"/>
<defs>
  <clipPath id="clip443">
    <rect x="294" y="123" width="2059" height="1305"/>
  </clipPath>
</defs>
<polyline clip-path="url(#clip443)" style="stroke:#000000; stroke-width:2; stroke-opacity:0.1; fill:none" points="
  689.508,1427.15 689.508,123.472 
  "/>
<polyline clip-path="url(#clip443)" style="stroke:#000000; stroke-width:2; stroke-opacity:0.1; fill:none" points="
  1097.39,1427.15 1097.39,123.472 
  "/>
<polyline clip-path="url(#clip443)" style="stroke:#000000; stroke-width:2; stroke-opacity:0.1; fill:none" points="
  1505.27,1427.15 1505.27,123.472 
  "/>
<polyline clip-path="url(#clip443)" style="stroke:#000000; stroke-width:2; stroke-opacity:0.1; fill:none" points="
  1913.14,1427.15 1913.14,123.472 
  "/>
<polyline clip-path="url(#clip443)" style="stroke:#000000; stroke-width:2; stroke-opacity:0.1; fill:none" points="
  2321.02,1427.15 2321.02,123.472 
  "/>
<polyline clip-path="url(#clip440)" style="stroke:#000000; stroke-width:4; stroke-opacity:1; fill:none" points="
  294.763,1427.15 2352.76,1427.15 
  "/>
<polyline clip-path="url(#clip440)" style="stroke:#000000; stroke-width:4; stroke-opacity:1; fill:none" points="
  689.508,1427.15 689.508,1411.5 
  "/>
<polyline clip-path="url(#clip440)" style="stroke:#000000; stroke-width:4; stroke-opacity:1; fill:none" points="
  1097.39,1427.15 1097.39,1411.5 
  "/>
<polyline clip-path="url(#clip440)" style="stroke:#000000; stroke-width:4; stroke-opacity:1; fill:none" points="
  1505.27,1427.15 1505.27,1411.5 
  "/>
<polyline clip-path="url(#clip440)" style="stroke:#000000; stroke-width:4; stroke-opacity:1; fill:none" points="
  1913.14,1427.15 1913.14,1411.5 
  "/>
<polyline clip-path="url(#clip440)" style="stroke:#000000; stroke-width:4; stroke-opacity:1; fill:none" points="
  2321.02,1427.15 2321.02,1411.5 
  "/>
<path clip-path="url(#clip440)" d="M 0 0 M684.161 1483.88 L700.48 1483.88 L700.48 1487.82 L678.536 1487.82 L678.536 1483.88 Q681.198 1481.13 685.781 1476.5 Q690.388 1471.85 691.568 1470.51 Q693.813 1467.98 694.693 1466.25 Q695.596 1464.49 695.596 1462.8 Q695.596 1460.04 693.651 1458.31 Q691.73 1456.57 688.628 1456.57 Q686.429 1456.57 683.976 1457.33 Q681.545 1458.1 678.767 1459.65 L678.767 1454.93 Q681.591 1453.79 684.045 1453.21 Q686.499 1452.63 688.536 1452.63 Q693.906 1452.63 697.1 1455.32 Q700.295 1458.01 700.295 1462.5 Q700.295 1464.63 699.485 1466.55 Q698.698 1468.44 696.591 1471.04 Q696.012 1471.71 692.911 1474.93 Q689.809 1478.12 684.161 1483.88 Z" fill="#000000" fill-rule="evenodd" fill-opacity="1" /><path clip-path="url(#clip440)" d="M 0 0 M1100.4 1457.33 L1088.59 1475.78 L1100.4 1475.78 L1100.4 1457.33 M1099.17 1453.26 L1105.05 1453.26 L1105.05 1475.78 L1109.98 1475.78 L1109.98 1479.67 L1105.05 1479.67 L1105.05 1487.82 L1100.4 1487.82 L1100.4 1479.67 L1084.79 1479.67 L1084.79 1475.16 L1099.17 1453.26 Z" fill="#000000" fill-rule="evenodd" fill-opacity="1" /><path clip-path="url(#clip440)" d="M 0 0 M1505.67 1468.68 Q1502.52 1468.68 1500.67 1470.83 Q1498.84 1472.98 1498.84 1476.73 Q1498.84 1480.46 1500.67 1482.63 Q1502.52 1484.79 1505.67 1484.79 Q1508.82 1484.79 1510.65 1482.63 Q1512.5 1480.46 1512.5 1476.73 Q1512.5 1472.98 1510.65 1470.83 Q1508.82 1468.68 1505.67 1468.68 M1514.95 1454.02 L1514.95 1458.28 Q1513.19 1457.45 1511.39 1457.01 Q1509.61 1456.57 1507.85 1456.57 Q1503.22 1456.57 1500.76 1459.69 Q1498.33 1462.82 1497.99 1469.14 Q1499.35 1467.13 1501.41 1466.06 Q1503.47 1464.97 1505.95 1464.97 Q1511.16 1464.97 1514.17 1468.14 Q1517.2 1471.29 1517.2 1476.73 Q1517.2 1482.06 1514.05 1485.27 Q1510.9 1488.49 1505.67 1488.49 Q1499.68 1488.49 1496.5 1483.91 Q1493.33 1479.3 1493.33 1470.57 Q1493.33 1462.38 1497.22 1457.52 Q1501.11 1452.63 1507.66 1452.63 Q1509.42 1452.63 1511.2 1452.98 Q1513.01 1453.33 1514.95 1454.02 Z" fill="#000000" fill-rule="evenodd" fill-opacity="1" /><path clip-path="url(#clip440)" d="M 0 0 M1913.14 1471.41 Q1909.81 1471.41 1907.89 1473.19 Q1905.99 1474.97 1905.99 1478.1 Q1905.99 1481.22 1907.89 1483 Q1909.81 1484.79 1913.14 1484.79 Q1916.48 1484.79 1918.4 1483 Q1920.32 1481.2 1920.32 1478.1 Q1920.32 1474.97 1918.4 1473.19 Q1916.5 1471.41 1913.14 1471.41 M1908.47 1469.42 Q1905.46 1468.68 1903.77 1466.62 Q1902.1 1464.56 1902.1 1461.59 Q1902.1 1457.45 1905.04 1455.04 Q1908.01 1452.63 1913.14 1452.63 Q1918.31 1452.63 1921.25 1455.04 Q1924.19 1457.45 1924.19 1461.59 Q1924.19 1464.56 1922.5 1466.62 Q1920.83 1468.68 1917.84 1469.42 Q1921.22 1470.2 1923.1 1472.5 Q1925 1474.79 1925 1478.1 Q1925 1483.12 1921.92 1485.81 Q1918.86 1488.49 1913.14 1488.49 Q1907.43 1488.49 1904.35 1485.81 Q1901.29 1483.12 1901.29 1478.1 Q1901.29 1474.79 1903.19 1472.5 Q1905.09 1470.2 1908.47 1469.42 M1906.76 1462.03 Q1906.76 1464.72 1908.42 1466.22 Q1910.11 1467.73 1913.14 1467.73 Q1916.15 1467.73 1917.84 1466.22 Q1919.56 1464.72 1919.56 1462.03 Q1919.56 1459.35 1917.84 1457.84 Q1916.15 1456.34 1913.14 1456.34 Q1910.11 1456.34 1908.42 1457.84 Q1906.76 1459.35 1906.76 1462.03 Z" fill="#000000" fill-rule="evenodd" fill-opacity="1" /><path clip-path="url(#clip440)" d="M 0 0 M2295.71 1483.88 L2303.35 1483.88 L2303.35 1457.52 L2295.04 1459.19 L2295.04 1454.93 L2303.3 1453.26 L2307.98 1453.26 L2307.98 1483.88 L2315.62 1483.88 L2315.62 1487.82 L2295.71 1487.82 L2295.71 1483.88 Z" fill="#000000" fill-rule="evenodd" fill-opacity="1" /><path clip-path="url(#clip440)" d="M 0 0 M2335.06 1456.34 Q2331.45 1456.34 2329.62 1459.9 Q2327.82 1463.44 2327.82 1470.57 Q2327.82 1477.68 2329.62 1481.25 Q2331.45 1484.79 2335.06 1484.79 Q2338.7 1484.79 2340.5 1481.25 Q2342.33 1477.68 2342.33 1470.57 Q2342.33 1463.44 2340.5 1459.9 Q2338.7 1456.34 2335.06 1456.34 M2335.06 1452.63 Q2340.87 1452.63 2343.93 1457.24 Q2347.01 1461.82 2347.01 1470.57 Q2347.01 1479.3 2343.93 1483.91 Q2340.87 1488.49 2335.06 1488.49 Q2329.25 1488.49 2326.17 1483.91 Q2323.12 1479.3 2323.12 1470.57 Q2323.12 1461.82 2326.17 1457.24 Q2329.25 1452.63 2335.06 1452.63 Z" fill="#000000" fill-rule="evenodd" fill-opacity="1" /><path clip-path="url(#clip440)" d="M 0 0 M1274.29 1530.6 Q1274.29 1532.85 1271.03 1532.85 L1259.96 1532.85 L1255.54 1555.43 Q1255.45 1556.01 1255.32 1556.33 Q1255.22 1556.65 1254.93 1557.2 Q1254.67 1557.71 1254.13 1557.97 Q1253.61 1558.26 1252.84 1558.26 Q1251.87 1558.26 1251.39 1557.68 Q1250.94 1557.13 1250.94 1556.46 Q1250.94 1556.04 1251.58 1554.04 L1258.05 1532.85 L1252.58 1532.85 Q1247.43 1532.85 1244.21 1537.94 Q1243.69 1538.61 1243.4 1538.68 Q1243.27 1538.71 1243.14 1538.71 Q1242.79 1538.71 1242.56 1538.55 Q1242.37 1538.39 1242.37 1538.23 L1242.34 1538.07 Q1242.34 1537.84 1242.85 1536.94 Q1243.4 1536.01 1244.37 1534.62 Q1245.37 1533.24 1246.36 1532.14 Q1247.68 1530.72 1249.17 1529.98 Q1250.65 1529.21 1251.39 1529.11 Q1252.16 1529.02 1253.16 1529.02 L1271.65 1529.02 Q1272.48 1529.02 1272.93 1529.08 Q1273.38 1529.11 1273.84 1529.5 Q1274.29 1529.85 1274.29 1530.6 Z" fill="#000000" fill-rule="evenodd" fill-opacity="1" /><path clip-path="url(#clip440)" d="M 0 0 M1292.58 1540.97 Q1292.58 1529.82 1296.73 1520.84 Q1298.5 1517.07 1300.98 1513.91 Q1303.46 1510.76 1305.11 1509.37 Q1306.75 1507.99 1307.2 1507.99 Q1307.84 1507.99 1307.88 1508.63 Q1307.88 1508.95 1307.01 1509.76 Q1296.38 1520.58 1296.41 1540.97 Q1296.41 1561.42 1306.75 1571.82 Q1307.88 1572.95 1307.88 1573.3 Q1307.88 1573.94 1307.2 1573.94 Q1306.75 1573.94 1305.17 1572.62 Q1303.59 1571.3 1301.15 1568.28 Q1298.7 1565.25 1296.93 1561.55 Q1292.58 1552.56 1292.58 1540.97 Z" fill="#000000" fill-rule="evenodd" fill-opacity="1" /><path clip-path="url(#clip440)" d="M 0 0 M1317.91 1557.45 L1317.91 1555.43 Q1321.42 1555.43 1322.22 1555.01 Q1323.03 1554.56 1323.03 1552.43 L1323.03 1534.75 Q1323.03 1532.3 1322.16 1531.69 Q1321.32 1531.08 1317.91 1531.08 L1317.91 1529.02 L1327.18 1528.31 L1327.18 1535.23 Q1330.27 1528.31 1336.94 1528.31 Q1341.9 1528.31 1343.86 1530.76 Q1345.31 1532.4 1345.6 1534.23 Q1345.93 1536.07 1345.93 1540.84 L1345.93 1553.43 Q1345.99 1554.81 1347.05 1555.14 Q1348.12 1555.43 1351.08 1555.43 L1351.08 1557.45 Q1344.35 1557.26 1343.67 1557.26 Q1343.16 1557.26 1336.23 1557.45 L1336.23 1555.43 Q1339.74 1555.43 1340.55 1555.01 Q1341.38 1554.56 1341.38 1552.43 L1341.38 1537.07 Q1341.38 1533.72 1340.35 1531.75 Q1339.32 1529.76 1336.49 1529.76 Q1333.07 1529.76 1330.34 1532.62 Q1327.6 1535.49 1327.6 1540.32 L1327.6 1552.43 Q1327.6 1554.56 1328.41 1555.01 Q1329.24 1555.43 1332.72 1555.43 L1332.72 1557.45 Q1325.99 1557.26 1325.35 1557.26 Q1324.83 1557.26 1317.91 1557.45 Z" fill="#000000" fill-rule="evenodd" fill-opacity="1" /><path clip-path="url(#clip440)" d="M 0 0 M1354.14 1556.59 L1354.14 1547.89 Q1354.14 1547.15 1354.17 1546.89 Q1354.21 1546.63 1354.4 1546.44 Q1354.59 1546.25 1354.98 1546.25 Q1355.43 1546.25 1355.59 1546.44 Q1355.79 1546.63 1355.91 1547.37 Q1356.91 1551.92 1359.04 1554.33 Q1361.2 1556.71 1365.09 1556.71 Q1368.8 1556.71 1370.66 1555.07 Q1372.53 1553.43 1372.53 1550.72 Q1372.53 1545.89 1365.67 1544.67 Q1361.71 1543.86 1360.07 1543.35 Q1358.43 1542.8 1356.98 1541.61 Q1354.14 1539.29 1354.14 1536.01 Q1354.14 1532.72 1356.62 1530.31 Q1359.13 1527.89 1364.67 1527.89 Q1368.38 1527.89 1370.89 1529.76 Q1371.63 1529.18 1372.02 1528.7 Q1372.89 1527.89 1373.34 1527.89 Q1373.85 1527.89 1373.95 1528.24 Q1374.05 1528.57 1374.05 1529.5 L1374.05 1536.13 Q1374.05 1536.88 1374.01 1537.13 Q1373.98 1537.39 1373.79 1537.58 Q1373.6 1537.74 1373.18 1537.74 Q1372.44 1537.74 1372.4 1537.13 Q1371.89 1529.15 1364.67 1529.15 Q1360.78 1529.15 1359.04 1530.66 Q1357.3 1532.14 1357.3 1534.17 Q1357.3 1535.3 1357.81 1536.17 Q1358.36 1537 1359.04 1537.52 Q1359.75 1538 1361.03 1538.49 Q1362.32 1538.94 1363.1 1539.1 Q1363.9 1539.26 1365.41 1539.58 Q1370.7 1540.58 1372.92 1542.74 Q1375.69 1545.51 1375.69 1549.02 Q1375.69 1552.91 1373.05 1555.55 Q1370.41 1558.2 1365.09 1558.2 Q1360.81 1558.2 1357.81 1555.33 Q1357.43 1555.72 1357.14 1556.07 Q1356.85 1556.39 1356.72 1556.52 Q1356.62 1556.65 1356.59 1556.75 Q1356.56 1556.81 1356.49 1556.88 Q1355.17 1558.2 1354.85 1558.2 Q1354.34 1558.2 1354.24 1557.84 Q1354.14 1557.52 1354.14 1556.59 Z" fill="#000000" fill-rule="evenodd" fill-opacity="1" /><path clip-path="url(#clip440)" d="M 0 0 M1379.85 1573.3 Q1379.85 1572.98 1380.69 1572.17 Q1391.32 1561.35 1391.32 1540.97 Q1391.32 1520.51 1381.11 1510.18 Q1379.85 1508.99 1379.85 1508.63 Q1379.85 1507.99 1380.5 1507.99 Q1380.95 1507.99 1382.53 1509.31 Q1384.14 1510.63 1386.55 1513.65 Q1389 1516.68 1390.8 1520.39 Q1395.15 1529.37 1395.15 1540.97 Q1395.15 1552.11 1391 1561.09 Q1389.22 1564.86 1386.74 1568.02 Q1384.27 1571.17 1382.62 1572.56 Q1380.98 1573.94 1380.5 1573.94 Q1379.85 1573.94 1379.85 1573.3 Z" fill="#000000" fill-rule="evenodd" fill-opacity="1" /><polyline clip-path="url(#clip443)" style="stroke:#000000; stroke-width:2; stroke-opacity:0.1; fill:none" points="
  294.763,1369.69 2352.76,1369.69 
  "/>
<polyline clip-path="url(#clip443)" style="stroke:#000000; stroke-width:2; stroke-opacity:0.1; fill:none" points="
  294.763,1092.14 2352.76,1092.14 
  "/>
<polyline clip-path="url(#clip443)" style="stroke:#000000; stroke-width:2; stroke-opacity:0.1; fill:none" points="
  294.763,814.593 2352.76,814.593 
  "/>
<polyline clip-path="url(#clip443)" style="stroke:#000000; stroke-width:2; stroke-opacity:0.1; fill:none" points="
  294.763,537.043 2352.76,537.043 
  "/>
<polyline clip-path="url(#clip443)" style="stroke:#000000; stroke-width:2; stroke-opacity:0.1; fill:none" points="
  294.763,259.493 2352.76,259.493 
  "/>
<polyline clip-path="url(#clip440)" style="stroke:#000000; stroke-width:4; stroke-opacity:1; fill:none" points="
  294.763,1427.15 294.763,123.472 
  "/>
<polyline clip-path="url(#clip440)" style="stroke:#000000; stroke-width:4; stroke-opacity:1; fill:none" points="
  294.763,1369.69 319.459,1369.69 
  "/>
<polyline clip-path="url(#clip440)" style="stroke:#000000; stroke-width:4; stroke-opacity:1; fill:none" points="
  294.763,1092.14 319.459,1092.14 
  "/>
<polyline clip-path="url(#clip440)" style="stroke:#000000; stroke-width:4; stroke-opacity:1; fill:none" points="
  294.763,814.593 319.459,814.593 
  "/>
<polyline clip-path="url(#clip440)" style="stroke:#000000; stroke-width:4; stroke-opacity:1; fill:none" points="
  294.763,537.043 319.459,537.043 
  "/>
<polyline clip-path="url(#clip440)" style="stroke:#000000; stroke-width:4; stroke-opacity:1; fill:none" points="
  294.763,259.493 319.459,259.493 
  "/>
<path clip-path="url(#clip440)" d="M 0 0 M210.684 1383.04 L227.004 1383.04 L227.004 1386.97 L205.059 1386.97 L205.059 1383.04 Q207.721 1380.28 212.305 1375.65 Q216.911 1371 218.092 1369.66 Q220.337 1367.13 221.217 1365.4 Q222.12 1363.64 222.12 1361.95 Q222.12 1359.19 220.175 1357.46 Q218.254 1355.72 215.152 1355.72 Q212.953 1355.72 210.499 1356.49 Q208.069 1357.25 205.291 1358.8 L205.291 1354.08 Q208.115 1352.94 210.569 1352.37 Q213.022 1351.79 215.059 1351.79 Q220.43 1351.79 223.624 1354.47 Q226.819 1357.16 226.819 1361.65 Q226.819 1363.78 226.008 1365.7 Q225.221 1367.6 223.115 1370.19 Q222.536 1370.86 219.434 1374.08 Q216.333 1377.27 210.684 1383.04 Z" fill="#000000" fill-rule="evenodd" fill-opacity="1" /><path clip-path="url(#clip440)" d="M 0 0 M246.818 1355.49 Q243.207 1355.49 241.379 1359.06 Q239.573 1362.6 239.573 1369.73 Q239.573 1376.83 241.379 1380.4 Q243.207 1383.94 246.818 1383.94 Q250.453 1383.94 252.258 1380.4 Q254.087 1376.83 254.087 1369.73 Q254.087 1362.6 252.258 1359.06 Q250.453 1355.49 246.818 1355.49 M246.818 1351.79 Q252.629 1351.79 255.684 1356.39 Q258.763 1360.98 258.763 1369.73 Q258.763 1378.45 255.684 1383.06 Q252.629 1387.64 246.818 1387.64 Q241.008 1387.64 237.93 1383.06 Q234.874 1378.45 234.874 1369.73 Q234.874 1360.98 237.93 1356.39 Q241.008 1351.79 246.818 1351.79 Z" fill="#000000" fill-rule="evenodd" fill-opacity="1" /><path clip-path="url(#clip440)" d="M 0 0 M219.504 1078.94 L207.698 1097.39 L219.504 1097.39 L219.504 1078.94 M218.277 1074.86 L224.157 1074.86 L224.157 1097.39 L229.087 1097.39 L229.087 1101.27 L224.157 1101.27 L224.157 1109.42 L219.504 1109.42 L219.504 1101.27 L203.902 1101.27 L203.902 1096.76 L218.277 1074.86 Z" fill="#000000" fill-rule="evenodd" fill-opacity="1" /><path clip-path="url(#clip440)" d="M 0 0 M246.818 1077.94 Q243.207 1077.94 241.379 1081.51 Q239.573 1085.05 239.573 1092.18 Q239.573 1099.28 241.379 1102.85 Q243.207 1106.39 246.818 1106.39 Q250.453 1106.39 252.258 1102.85 Q254.087 1099.28 254.087 1092.18 Q254.087 1085.05 252.258 1081.51 Q250.453 1077.94 246.818 1077.94 M246.818 1074.24 Q252.629 1074.24 255.684 1078.84 Q258.763 1083.43 258.763 1092.18 Q258.763 1100.9 255.684 1105.51 Q252.629 1110.09 246.818 1110.09 Q241.008 1110.09 237.93 1105.51 Q234.874 1100.9 234.874 1092.18 Q234.874 1083.43 237.93 1078.84 Q241.008 1074.24 246.818 1074.24 Z" fill="#000000" fill-rule="evenodd" fill-opacity="1" /><path clip-path="url(#clip440)" d="M 0 0 M217.235 812.729 Q214.087 812.729 212.235 814.882 Q210.407 817.035 210.407 820.785 Q210.407 824.512 212.235 826.688 Q214.087 828.84 217.235 828.84 Q220.383 828.84 222.212 826.688 Q224.064 824.512 224.064 820.785 Q224.064 817.035 222.212 814.882 Q220.383 812.729 217.235 812.729 M226.518 798.077 L226.518 802.336 Q224.758 801.503 222.953 801.063 Q221.17 800.623 219.411 800.623 Q214.782 800.623 212.328 803.748 Q209.897 806.873 209.55 813.192 Q210.916 811.178 212.976 810.114 Q215.036 809.026 217.513 809.026 Q222.721 809.026 225.731 812.197 Q228.763 815.345 228.763 820.785 Q228.763 826.109 225.615 829.326 Q222.467 832.544 217.235 832.544 Q211.24 832.544 208.069 827.961 Q204.897 823.354 204.897 814.627 Q204.897 806.433 208.786 801.572 Q212.675 796.688 219.226 796.688 Q220.985 796.688 222.768 797.035 Q224.573 797.382 226.518 798.077 Z" fill="#000000" fill-rule="evenodd" fill-opacity="1" /><path clip-path="url(#clip440)" d="M 0 0 M246.818 800.391 Q243.207 800.391 241.379 803.956 Q239.573 807.498 239.573 814.627 Q239.573 821.734 241.379 825.299 Q243.207 828.84 246.818 828.84 Q250.453 828.84 252.258 825.299 Q254.087 821.734 254.087 814.627 Q254.087 807.498 252.258 803.956 Q250.453 800.391 246.818 800.391 M246.818 796.688 Q252.629 796.688 255.684 801.294 Q258.763 805.878 258.763 814.627 Q258.763 823.354 255.684 827.961 Q252.629 832.544 246.818 832.544 Q241.008 832.544 237.93 827.961 Q234.874 823.354 234.874 814.627 Q234.874 805.878 237.93 801.294 Q241.008 796.688 246.818 796.688 Z" fill="#000000" fill-rule="evenodd" fill-opacity="1" /><path clip-path="url(#clip440)" d="M 0 0 M216.657 537.911 Q213.323 537.911 211.402 539.694 Q209.504 541.476 209.504 544.601 Q209.504 547.726 211.402 549.508 Q213.323 551.291 216.657 551.291 Q219.99 551.291 221.911 549.508 Q223.832 547.703 223.832 544.601 Q223.832 541.476 221.911 539.694 Q220.013 537.911 216.657 537.911 M211.981 535.92 Q208.971 535.18 207.282 533.12 Q205.615 531.059 205.615 528.096 Q205.615 523.953 208.555 521.546 Q211.518 519.138 216.657 519.138 Q221.819 519.138 224.758 521.546 Q227.698 523.953 227.698 528.096 Q227.698 531.059 226.008 533.12 Q224.342 535.18 221.356 535.92 Q224.735 536.707 226.61 538.999 Q228.508 541.291 228.508 544.601 Q228.508 549.624 225.43 552.309 Q222.374 554.994 216.657 554.994 Q210.939 554.994 207.86 552.309 Q204.805 549.624 204.805 544.601 Q204.805 541.291 206.703 538.999 Q208.601 536.707 211.981 535.92 M210.268 528.536 Q210.268 531.221 211.934 532.726 Q213.624 534.231 216.657 534.231 Q219.666 534.231 221.356 532.726 Q223.069 531.221 223.069 528.536 Q223.069 525.851 221.356 524.346 Q219.666 522.842 216.657 522.842 Q213.624 522.842 211.934 524.346 Q210.268 525.851 210.268 528.536 Z" fill="#000000" fill-rule="evenodd" fill-opacity="1" /><path clip-path="url(#clip440)" d="M 0 0 M246.818 522.842 Q243.207 522.842 241.379 526.407 Q239.573 529.948 239.573 537.078 Q239.573 544.184 241.379 547.749 Q243.207 551.291 246.818 551.291 Q250.453 551.291 252.258 547.749 Q254.087 544.184 254.087 537.078 Q254.087 529.948 252.258 526.407 Q250.453 522.842 246.818 522.842 M246.818 519.138 Q252.629 519.138 255.684 523.745 Q258.763 528.328 258.763 537.078 Q258.763 545.805 255.684 550.411 Q252.629 554.994 246.818 554.994 Q241.008 554.994 237.93 550.411 Q234.874 545.805 234.874 537.078 Q234.874 528.328 237.93 523.745 Q241.008 519.138 246.818 519.138 Z" fill="#000000" fill-rule="evenodd" fill-opacity="1" /><path clip-path="url(#clip440)" d="M 0 0 M177.305 272.838 L184.944 272.838 L184.944 246.473 L176.634 248.139 L176.634 243.88 L184.897 242.213 L189.573 242.213 L189.573 272.838 L197.212 272.838 L197.212 276.773 L177.305 276.773 L177.305 272.838 Z" fill="#000000" fill-rule="evenodd" fill-opacity="1" /><path clip-path="url(#clip440)" d="M 0 0 M216.657 245.292 Q213.045 245.292 211.217 248.857 Q209.411 252.399 209.411 259.528 Q209.411 266.635 211.217 270.199 Q213.045 273.741 216.657 273.741 Q220.291 273.741 222.096 270.199 Q223.925 266.635 223.925 259.528 Q223.925 252.399 222.096 248.857 Q220.291 245.292 216.657 245.292 M216.657 241.588 Q222.467 241.588 225.522 246.195 Q228.601 250.778 228.601 259.528 Q228.601 268.255 225.522 272.861 Q222.467 277.445 216.657 277.445 Q210.846 277.445 207.768 272.861 Q204.712 268.255 204.712 259.528 Q204.712 250.778 207.768 246.195 Q210.846 241.588 216.657 241.588 Z" fill="#000000" fill-rule="evenodd" fill-opacity="1" /><path clip-path="url(#clip440)" d="M 0 0 M246.818 245.292 Q243.207 245.292 241.379 248.857 Q239.573 252.399 239.573 259.528 Q239.573 266.635 241.379 270.199 Q243.207 273.741 246.818 273.741 Q250.453 273.741 252.258 270.199 Q254.087 266.635 254.087 259.528 Q254.087 252.399 252.258 248.857 Q250.453 245.292 246.818 245.292 M246.818 241.588 Q252.629 241.588 255.684 246.195 Q258.763 250.778 258.763 259.528 Q258.763 268.255 255.684 272.861 Q252.629 277.445 246.818 277.445 Q241.008 277.445 237.93 272.861 Q234.874 268.255 234.874 259.528 Q234.874 250.778 237.93 246.195 Q241.008 241.588 246.818 241.588 Z" fill="#000000" fill-rule="evenodd" fill-opacity="1" /><path clip-path="url(#clip440)" d="M 0 0 M94.6485 828.016 L111.073 833.684 L111.073 888.37 Q111.073 889.111 111.041 889.4 Q111.009 889.69 110.848 889.916 Q110.687 890.141 110.333 890.141 Q110.043 890.141 109.302 889.561 L80.3491 866.148 L47.2415 890.206 Q45.7278 890.206 45.4379 889.948 Q45.1159 889.69 45.1159 888.37 L45.1159 833.684 L60.5425 828.016 L60.5425 829.658 Q58.5457 830.399 56.871 831.591 Q55.1641 832.75 53.9403 834.103 Q52.7165 835.423 51.7503 837.162 Q50.7519 838.869 50.14 840.48 Q49.4959 842.058 49.045 844.022 Q48.5619 845.987 48.3365 847.565 Q48.0788 849.111 47.95 851.043 Q47.8212 852.976 47.789 854.199 Q47.7568 855.423 47.7568 856.969 L47.7568 883.088 L77.1607 861.671 Q77.9014 861.188 78.0947 861.188 Q78.3845 861.188 79.1575 861.8 L107.434 884.666 L107.434 856.647 Q107.434 847.629 105.534 841.349 Q104.085 837.098 101.218 834.006 Q98.3522 830.882 94.6485 829.658 L94.6485 828.016 Z" fill="#000000" fill-rule="evenodd" fill-opacity="1" /><path clip-path="url(#clip440)" d="M 0 0 M127.747 901.215 Q128.739 901.215 129.483 902.026 Q130.204 902.815 130.204 903.672 Q130.204 904.461 129.731 904.957 Q129.235 905.431 128.536 905.431 Q127.612 905.431 126.845 904.642 Q126.079 903.853 126.079 902.928 Q126.079 902.162 126.552 901.688 Q127.026 901.215 127.747 901.215 M149.998 900.809 Q150.179 900.809 150.9 901.012 Q151.599 901.215 152.681 901.711 Q153.741 902.184 154.732 902.838 Q155.724 903.492 156.423 904.574 Q157.122 905.633 157.122 906.851 Q157.122 908.497 156.04 909.579 Q154.958 910.638 153.335 910.638 Q152.455 910.638 149.637 909.579 Q141.431 906.513 141.093 906.4 Q139.808 905.881 138.681 905.881 Q138.163 905.881 137.847 905.994 Q137.509 906.107 137.396 906.332 Q137.261 906.558 137.238 906.693 Q137.216 906.806 137.216 907.031 Q137.216 908.361 138.568 909.601 Q139.921 910.841 142.942 911.698 Q143.505 911.878 143.641 911.991 Q143.776 912.104 143.776 912.442 Q143.753 913.005 143.303 913.005 Q143.167 913.005 142.649 912.848 Q142.108 912.69 141.296 912.397 Q140.462 912.104 139.605 911.585 Q138.726 911.067 137.96 910.435 Q137.193 909.782 136.697 908.857 Q136.201 907.933 136.201 906.896 Q136.201 905.205 137.306 904.168 Q138.388 903.109 139.989 903.109 Q140.868 903.109 142.423 903.717 Q144.452 904.461 145.106 904.732 L149.953 906.535 Q151.712 907.189 152.253 907.392 Q152.771 907.572 153.402 907.73 Q154.011 907.865 154.575 907.865 Q155.364 907.865 155.724 907.617 Q156.085 907.347 156.085 906.761 Q156.085 905.138 154.484 903.943 Q152.861 902.748 150.381 902.049 Q150.314 902.026 150.201 902.004 Q149.637 901.824 149.57 901.643 Q149.547 901.553 149.547 901.373 Q149.547 900.809 149.998 900.809 Z" fill="#000000" fill-rule="evenodd" fill-opacity="1" /><path clip-path="url(#clip440)" d="M 0 0 M149.592 884.429 Q149.029 884.384 149.029 883.505 L149.029 855.212 Q149.029 853.882 149.547 853.86 Q150.111 853.86 150.088 855.122 L150.088 883.189 Q150.111 884.429 149.592 884.429 M140.575 884.429 Q140.011 884.429 140.034 883.46 L140.034 855.257 Q140.034 853.882 140.575 853.86 Q141.093 853.86 141.093 855.032 L141.093 883.505 Q141.093 884.429 140.575 884.429 Z" fill="#000000" fill-rule="evenodd" fill-opacity="1" /><path clip-path="url(#clip440)" d="M 0 0 M130.25 836.048 L128.807 836.048 Q128.807 830.502 125.853 827.639 Q125.853 826.85 126.034 826.714 Q126.214 826.579 127.048 826.579 L152.951 826.579 Q154.327 826.579 154.755 825.903 Q155.183 825.226 155.183 822.273 L155.183 820.808 L156.604 820.808 Q156.468 822.431 156.468 828.292 Q156.468 834.154 156.604 835.754 L155.183 835.754 L155.183 834.289 Q155.183 831.381 154.778 830.682 Q154.349 829.983 152.951 829.983 L129.032 829.983 Q130.25 832.395 130.25 836.048 Z" fill="#000000" fill-rule="evenodd" fill-opacity="1" /><path clip-path="url(#clip440)" d="M 0 0 M22.7384 885.959 Q21.9042 885.959 21.6563 885.891 Q21.4083 885.801 21.025 885.44 L11.1507 876.581 Q5.69503 871.734 0.938226 871.734 Q-2.15032 871.734 -4.35964 873.357 Q-6.56896 874.957 -6.56896 877.911 Q-6.56896 879.94 -5.32903 881.653 Q-4.08911 883.366 -1.87979 884.155 Q-1.92487 884.02 -1.92487 883.547 Q-1.92487 882.397 -1.20346 881.766 Q-0.482052 881.112 0.487344 881.112 Q1.72727 881.112 2.33596 881.923 Q2.92211 882.713 2.92211 883.502 Q2.92211 883.817 2.85447 884.246 Q2.78684 884.651 2.15561 885.305 Q1.50183 885.959 0.352079 885.959 Q-2.87173 885.959 -5.44176 883.524 Q-8.01178 881.067 -8.01178 877.324 Q-8.01178 873.086 -5.48684 870.313 Q-2.98445 867.518 0.938226 867.518 Q2.31342 867.518 3.57589 867.946 Q4.81581 868.352 5.78521 868.916 Q6.7546 869.457 8.31015 870.945 Q9.86569 872.432 10.9704 873.627 Q12.075 874.822 14.4196 877.505 L19.1764 882.397 L19.1764 874.078 Q19.1764 870.02 18.8157 869.705 Q18.1619 869.254 14.7127 868.69 L14.7127 867.518 L22.7384 868.825 L22.7384 885.959 Z" fill="#000000" fill-rule="evenodd" fill-opacity="1" /><path clip-path="url(#clip440)" d="M 0 0 M7.97199 863.094 Q1.18621 863.094 -2.51102 861.381 Q-8.01178 858.991 -8.01178 853.355 Q-8.01178 852.16 -7.67362 850.92 Q-7.358 849.658 -6.11808 848.08 Q-4.87815 846.479 -2.84918 845.51 Q1.07349 843.661 7.97199 843.661 Q14.7127 843.661 18.3874 845.374 Q23.7529 847.877 23.7529 853.4 Q23.7529 855.474 22.6933 857.593 Q21.6337 859.69 19.0862 861.02 Q15.2763 863.094 7.97199 863.094 M7.40838 859.262 Q14.3745 859.262 17.1474 858.766 Q20.1458 858.202 21.4534 856.669 Q22.7384 855.113 22.7384 853.4 Q22.7384 851.551 21.3632 850.018 Q19.9654 848.463 16.9671 847.989 Q14.0138 847.471 7.40838 847.494 Q0.983314 847.494 -1.58671 847.944 Q-4.58508 848.553 -5.77992 850.176 Q-6.9973 851.777 -6.9973 853.4 Q-6.9973 854.009 -6.81695 854.663 Q-6.63659 855.294 -6.11808 856.218 Q-5.59956 857.142 -4.31455 857.864 Q-3.02954 858.563 -1.09074 858.901 Q1.41165 859.262 7.40838 859.262 Z" fill="#000000" fill-rule="evenodd" fill-opacity="1" /><path clip-path="url(#clip440)" d="M 0 0 M68.5295 768.829 Q68.5617 768.829 69.7212 769.022 L98.9963 776.365 Q100.542 776.752 102.088 777.847 Q103.666 778.91 105.019 780.616 Q106.404 782.291 107.241 784.868 Q108.111 787.412 108.111 790.343 Q108.111 795.013 107.112 797.074 Q106.146 799.103 104.085 799.103 Q102.281 799.103 101.251 797.975 Q100.252 796.848 100.252 795.56 Q100.252 794.336 100.961 793.692 Q101.669 793.048 102.571 793.048 Q103.57 793.048 104.568 793.724 Q105.598 794.401 105.985 795.753 Q106.661 793.595 106.661 790.471 Q106.661 783.869 99.6726 781.035 Q99.576 780.971 99.5438 780.971 L90.816 778.781 L90.7516 778.877 Q91.3957 779.425 92.1364 780.294 Q92.845 781.132 93.7145 782.935 Q94.5841 784.739 94.5841 786.51 Q94.5841 790.214 91.75 792.758 Q88.8836 795.27 84.1494 795.27 Q80.7034 795.27 77.2573 793.885 Q73.7791 792.468 71.2348 790.278 Q68.6584 788.056 67.0481 785.222 Q65.4378 782.356 65.4378 779.586 Q65.4378 777.654 66.5972 776.011 Q67.7244 774.369 69.5923 773.467 Q68.0464 773.306 67.4023 772.436 Q66.7582 771.534 66.7582 770.762 Q66.7582 769.892 67.2413 769.377 Q67.6922 768.829 68.5295 768.829 M72.5553 774.24 Q72.362 774.24 71.8467 774.369 Q71.2992 774.497 70.4297 774.884 Q69.5601 775.238 68.7872 775.786 Q68.0142 776.333 67.4667 777.331 Q66.887 778.298 66.887 779.521 Q66.887 781.518 68.5617 783.515 Q70.2042 785.512 72.7485 786.897 Q75.1961 788.185 79.9304 789.409 Q84.6647 790.6 87.0801 790.6 Q89.4633 790.6 91.2991 789.57 Q93.1348 788.539 93.1348 786.317 Q93.1348 783.74 90.7516 780.971 Q88.2717 778.104 86.1461 777.621 L73.5536 774.433 Q72.7807 774.24 72.5553 774.24 Z" fill="#000000" fill-rule="evenodd" fill-opacity="1" /><path clip-path="url(#clip440)" d="M 0 0 M97.257 750.288 Q98.2489 750.288 98.9929 751.099 Q99.7143 751.888 99.7143 752.745 Q99.7143 753.534 99.2409 754.03 Q98.7449 754.503 98.046 754.503 Q97.1217 754.503 96.3552 753.714 Q95.5887 752.925 95.5887 752.001 Q95.5887 751.235 96.0622 750.761 Q96.5356 750.288 97.257 750.288 M119.508 749.882 Q119.688 749.882 120.41 750.085 Q121.109 750.288 122.191 750.784 Q123.25 751.257 124.242 751.911 Q125.234 752.565 125.933 753.647 Q126.632 754.706 126.632 755.924 Q126.632 757.569 125.55 758.652 Q124.468 759.711 122.845 759.711 Q121.965 759.711 119.147 758.652 Q110.941 755.586 110.603 755.473 Q109.318 754.954 108.191 754.954 Q107.672 754.954 107.357 755.067 Q107.019 755.18 106.906 755.405 Q106.771 755.631 106.748 755.766 Q106.726 755.879 106.726 756.104 Q106.726 757.434 108.078 758.674 Q109.431 759.914 112.452 760.771 Q113.015 760.951 113.151 761.064 Q113.286 761.177 113.286 761.515 Q113.263 762.078 112.812 762.078 Q112.677 762.078 112.159 761.92 Q111.618 761.763 110.806 761.47 Q109.972 761.177 109.115 760.658 Q108.236 760.139 107.469 759.508 Q106.703 758.854 106.207 757.93 Q105.711 757.006 105.711 755.969 Q105.711 754.278 106.816 753.241 Q107.898 752.181 109.498 752.181 Q110.378 752.181 111.933 752.79 Q113.962 753.534 114.616 753.805 L119.463 755.608 Q121.221 756.262 121.762 756.465 Q122.281 756.645 122.912 756.803 Q123.521 756.938 124.084 756.938 Q124.874 756.938 125.234 756.69 Q125.595 756.42 125.595 755.834 Q125.595 754.21 123.994 753.016 Q122.371 751.821 119.891 751.122 Q119.824 751.099 119.711 751.077 Q119.147 750.896 119.08 750.716 Q119.057 750.626 119.057 750.446 Q119.057 749.882 119.508 749.882 Z" fill="#000000" fill-rule="evenodd" fill-opacity="1" /><path clip-path="url(#clip440)" d="M 0 0 M53.0268 762.078 Q45.2265 762.078 38.9367 759.17 Q36.2991 757.93 34.0898 756.194 Q31.8804 754.458 30.911 753.309 Q29.9416 752.159 29.9416 751.843 Q29.9416 751.392 30.3925 751.37 Q30.618 751.37 31.1816 751.979 Q38.7564 759.418 53.0268 759.396 Q67.3423 759.396 74.6241 752.159 Q75.4131 751.37 75.6611 751.37 Q76.112 751.37 76.112 751.843 Q76.112 752.159 75.1877 753.264 Q74.2634 754.368 72.1442 756.082 Q70.0251 757.795 67.4325 759.035 Q61.1427 762.078 53.0268 762.078 Z" fill="#000000" fill-rule="evenodd" fill-opacity="1" /><path clip-path="url(#clip440)" d="M 0 0 M64.5694 744.349 Q63.7353 744.349 63.4873 744.281 Q63.2393 744.191 62.856 743.831 L52.9817 734.971 Q47.526 730.124 42.7692 730.124 Q39.6807 730.124 37.4714 731.747 Q35.2621 733.348 35.2621 736.301 Q35.2621 738.33 36.502 740.043 Q37.7419 741.757 39.9512 742.546 Q39.9061 742.41 39.9061 741.937 Q39.9061 740.787 40.6276 740.156 Q41.349 739.502 42.3184 739.502 Q43.5583 739.502 44.167 740.314 Q44.7531 741.103 44.7531 741.892 Q44.7531 742.207 44.6855 742.636 Q44.6179 743.042 43.9866 743.695 Q43.3328 744.349 42.1831 744.349 Q38.9593 744.349 36.3893 741.914 Q33.8192 739.457 33.8192 735.715 Q33.8192 731.476 36.3442 728.703 Q38.8466 725.908 42.7692 725.908 Q44.1444 725.908 45.4069 726.336 Q46.6468 726.742 47.6162 727.306 Q48.5856 727.847 50.1412 729.335 Q51.6967 730.823 52.8014 732.017 Q53.906 733.212 56.2506 735.895 L61.0074 740.787 L61.0074 732.468 Q61.0074 728.41 60.6467 728.095 Q59.9929 727.644 56.5437 727.08 L56.5437 725.908 L64.5694 727.216 L64.5694 744.349 Z" fill="#000000" fill-rule="evenodd" fill-opacity="1" /><path clip-path="url(#clip440)" d="M 0 0 M75.6611 721.484 Q75.4356 721.484 74.872 720.898 Q67.2972 713.459 53.0268 713.459 Q38.7113 713.459 31.4746 720.605 Q30.6405 721.484 30.3925 721.484 Q29.9416 721.484 29.9416 721.033 Q29.9416 720.718 30.866 719.613 Q31.7903 718.486 33.9094 716.795 Q36.0286 715.082 38.6211 713.819 Q44.9109 710.776 53.0268 710.776 Q60.8271 710.776 67.1169 713.684 Q69.7545 714.924 71.9639 716.66 Q74.1732 718.396 75.1426 719.545 Q76.112 720.695 76.112 721.033 Q76.112 721.484 75.6611 721.484 Z" fill="#000000" fill-rule="evenodd" fill-opacity="1" /><path clip-path="url(#clip440)" d="M 0 0 M78.0947 696.715 Q66.9514 696.715 57.966 692.561 Q54.1979 690.789 51.0418 688.309 Q47.8856 685.829 46.5007 684.187 Q45.1159 682.544 45.1159 682.094 Q45.1159 681.449 45.76 681.417 Q46.082 681.417 46.8872 682.287 Q57.7084 692.915 78.0947 692.883 Q98.5454 692.883 108.948 682.544 Q110.075 681.417 110.429 681.417 Q111.073 681.417 111.073 682.094 Q111.073 682.544 109.753 684.123 Q108.433 685.701 105.405 688.148 Q102.378 690.596 98.6742 692.367 Q89.6888 696.715 78.0947 696.715 Z" fill="#000000" fill-rule="evenodd" fill-opacity="1" /><path clip-path="url(#clip440)" d="M 0 0 M67.7244 639.439 Q69.9788 639.439 69.9788 642.692 L69.9788 653.771 L92.5551 658.183 Q93.1348 658.28 93.4569 658.409 Q93.7789 658.505 94.3264 658.795 Q94.8417 659.053 95.0994 659.6 Q95.3892 660.116 95.3892 660.889 Q95.3892 661.855 94.8095 662.338 Q94.262 662.789 93.5857 662.789 Q93.167 662.789 91.1703 662.145 L69.9788 655.671 L69.9788 661.146 Q69.9788 666.299 75.0673 669.52 Q75.7436 670.035 75.8081 670.325 Q75.8403 670.454 75.8403 670.583 Q75.8403 670.937 75.6792 671.162 Q75.5182 671.355 75.3572 671.355 L75.1961 671.388 Q74.9707 671.388 74.0689 670.872 Q73.135 670.325 71.7501 669.359 Q70.3653 668.36 69.2703 667.362 Q67.8532 666.041 67.1125 664.56 Q66.3395 663.079 66.2429 662.338 Q66.1463 661.565 66.1463 660.566 L66.1463 642.08 Q66.1463 641.243 66.2107 640.792 Q66.2429 640.341 66.6294 639.89 Q66.9837 639.439 67.7244 639.439 Z" fill="#000000" fill-rule="evenodd" fill-opacity="1" /><path clip-path="url(#clip440)" d="M 0 0 M110.429 642.87 Q110.107 642.87 109.302 642.033 Q98.481 631.405 78.0947 631.405 Q57.644 631.405 47.3059 641.614 Q46.1143 642.87 45.76 642.87 Q45.1159 642.87 45.1159 642.226 Q45.1159 641.775 46.4363 640.197 Q47.7568 638.587 50.7841 636.172 Q53.8115 633.724 57.5151 631.92 Q66.5006 627.573 78.0947 627.573 Q89.2379 627.573 98.2233 631.727 Q101.991 633.499 105.148 635.978 Q108.304 638.458 109.689 640.101 Q111.073 641.743 111.073 642.226 Q111.073 642.87 110.429 642.87 Z" fill="#000000" fill-rule="evenodd" fill-opacity="1" /><path clip-path="url(#clip440)" d="M 0 0 M486.397 14.0809 L486.397 22.0612 Q481.738 19.8332 477.606 18.7395 Q473.475 17.6457 469.626 17.6457 Q462.942 17.6457 459.296 20.2383 Q455.691 22.8309 455.691 27.611 Q455.691 31.6214 458.081 33.6873 Q460.512 35.7128 467.236 36.9686 L472.178 37.9813 Q481.333 39.7232 485.668 44.1387 Q490.043 48.5136 490.043 55.8863 Q490.043 64.6767 484.128 69.2137 Q478.255 73.7508 466.872 73.7508 Q462.578 73.7508 457.717 72.7785 Q452.896 71.8063 447.711 69.9024 L447.711 61.4765 Q452.693 64.2716 457.474 65.6895 Q462.254 67.1073 466.872 67.1073 Q473.88 67.1073 477.688 64.3527 Q481.495 61.598 481.495 56.4939 Q481.495 52.0379 478.741 49.5264 Q476.027 47.0148 469.788 45.759 L464.806 44.7868 Q455.651 42.9639 451.559 39.075 Q447.468 35.1862 447.468 28.2591 Q447.468 20.2383 453.099 15.6203 Q458.77 11.0023 468.695 11.0023 Q472.948 11.0023 477.363 11.7719 Q481.779 12.5416 486.397 14.0809 Z" fill="#000000" fill-rule="evenodd" fill-opacity="1" /><path clip-path="url(#clip440)" d="M 0 0 M501.709 54.671 L501.709 27.2059 L509.163 27.2059 L509.163 54.3874 Q509.163 60.8284 511.675 64.0691 Q514.186 67.2693 519.209 67.2693 Q525.245 67.2693 528.729 63.421 Q532.253 59.5726 532.253 52.9291 L532.253 27.2059 L539.707 27.2059 L539.707 72.576 L532.253 72.576 L532.253 65.6084 Q529.539 69.7404 525.934 71.7658 Q522.369 73.7508 517.629 73.7508 Q509.811 73.7508 505.76 68.8897 Q501.709 64.0286 501.709 54.671 M520.465 26.1121 L520.465 26.1121 Z" fill="#000000" fill-rule="evenodd" fill-opacity="1" /><path clip-path="url(#clip440)" d="M 0 0 M590.384 35.9153 Q593.179 30.8922 597.068 28.5022 Q600.957 26.1121 606.223 26.1121 Q613.312 26.1121 617.16 31.0947 Q621.009 36.0368 621.009 45.1919 L621.009 72.576 L613.514 72.576 L613.514 45.4349 Q613.514 38.913 611.205 35.7533 Q608.896 32.5936 604.157 32.5936 Q598.364 32.5936 595.002 36.4419 Q591.639 40.2903 591.639 46.9338 L591.639 72.576 L584.145 72.576 L584.145 45.4349 Q584.145 38.8725 581.836 35.7533 Q579.527 32.5936 574.707 32.5936 Q568.995 32.5936 565.633 36.4824 Q562.27 40.3308 562.27 46.9338 L562.27 72.576 L554.776 72.576 L554.776 27.2059 L562.27 27.2059 L562.27 34.2544 Q564.822 30.082 568.387 28.0971 Q571.952 26.1121 576.854 26.1121 Q581.796 26.1121 585.239 28.6237 Q588.723 31.1352 590.384 35.9153 Z" fill="#000000" fill-rule="evenodd" fill-opacity="1" /><path clip-path="url(#clip440)" d="M 0 0 M679.828 32.4315 Q673.832 32.4315 670.349 37.1306 Q666.865 41.7891 666.865 49.9314 Q666.865 58.0738 670.308 62.7728 Q673.792 67.4314 679.828 67.4314 Q685.782 67.4314 689.266 62.7323 Q692.75 58.0333 692.75 49.9314 Q692.75 41.8701 689.266 37.1711 Q685.782 32.4315 679.828 32.4315 M679.828 26.1121 Q689.55 26.1121 695.1 32.4315 Q700.649 38.7509 700.649 49.9314 Q700.649 61.0714 695.1 67.4314 Q689.55 73.7508 679.828 73.7508 Q670.065 73.7508 664.515 67.4314 Q659.006 61.0714 659.006 49.9314 Q659.006 38.7509 664.515 32.4315 Q670.065 26.1121 679.828 26.1121 Z" fill="#000000" fill-rule="evenodd" fill-opacity="1" /><path clip-path="url(#clip440)" d="M 0 0 M735.973 9.54393 L735.973 15.7418 L728.844 15.7418 Q724.833 15.7418 723.253 17.3622 Q721.714 18.9825 721.714 23.1955 L721.714 27.2059 L733.988 27.2059 L733.988 32.9987 L721.714 32.9987 L721.714 72.576 L714.22 72.576 L714.22 32.9987 L707.09 32.9987 L707.09 27.2059 L714.22 27.2059 L714.22 24.0462 Q714.22 16.471 717.744 13.0277 Q721.268 9.54393 728.925 9.54393 L735.973 9.54393 Z" fill="#000000" fill-rule="evenodd" fill-opacity="1" /><path clip-path="url(#clip440)" d="M 0 0 M777.09 18.8205 L777.09 41.5461 L787.379 41.5461 Q793.091 41.5461 796.21 38.5889 Q799.329 35.6318 799.329 30.163 Q799.329 24.7348 796.21 21.7777 Q793.091 18.8205 787.379 18.8205 L777.09 18.8205 M768.907 12.096 L787.379 12.096 Q797.547 12.096 802.732 16.714 Q807.958 21.2916 807.958 30.163 Q807.958 39.1155 802.732 43.6931 Q797.547 48.2706 787.379 48.2706 L777.09 48.2706 L777.09 72.576 L768.907 72.576 L768.907 12.096 Z" fill="#000000" fill-rule="evenodd" fill-opacity="1" /><path clip-path="url(#clip440)" d="M 0 0 M856.326 45.1919 L856.326 72.576 L848.872 72.576 L848.872 45.4349 Q848.872 38.994 846.36 35.7938 Q843.849 32.5936 838.826 32.5936 Q832.79 32.5936 829.306 36.4419 Q825.822 40.2903 825.822 46.9338 L825.822 72.576 L818.328 72.576 L818.328 9.54393 L825.822 9.54393 L825.822 34.2544 Q828.496 30.163 832.101 28.1376 Q835.747 26.1121 840.486 26.1121 Q848.305 26.1121 852.315 30.9732 Q856.326 35.7938 856.326 45.1919 Z" fill="#000000" fill-rule="evenodd" fill-opacity="1" /><path clip-path="url(#clip440)" d="M 0 0 M888.773 32.4315 Q882.778 32.4315 879.294 37.1306 Q875.81 41.7891 875.81 49.9314 Q875.81 58.0738 879.254 62.7728 Q882.737 67.4314 888.773 67.4314 Q894.728 67.4314 898.212 62.7323 Q901.696 58.0333 901.696 49.9314 Q901.696 41.8701 898.212 37.1711 Q894.728 32.4315 888.773 32.4315 M888.773 26.1121 Q898.495 26.1121 904.045 32.4315 Q909.595 38.7509 909.595 49.9314 Q909.595 61.0714 904.045 67.4314 Q898.495 73.7508 888.773 73.7508 Q879.011 73.7508 873.461 67.4314 Q867.952 61.0714 867.952 49.9314 Q867.952 38.7509 873.461 32.4315 Q879.011 26.1121 888.773 26.1121 Z" fill="#000000" fill-rule="evenodd" fill-opacity="1" /><path clip-path="url(#clip440)" d="M 0 0 M929.323 14.324 L929.323 27.2059 L944.676 27.2059 L944.676 32.9987 L929.323 32.9987 L929.323 57.6282 Q929.323 63.1779 930.822 64.7578 Q932.361 66.3376 937.02 66.3376 L944.676 66.3376 L944.676 72.576 L937.02 72.576 Q928.391 72.576 925.11 69.3758 Q921.829 66.1351 921.829 57.6282 L921.829 32.9987 L916.36 32.9987 L916.36 27.2059 L921.829 27.2059 L921.829 14.324 L929.323 14.324 Z" fill="#000000" fill-rule="evenodd" fill-opacity="1" /><path clip-path="url(#clip440)" d="M 0 0 M972.06 32.4315 Q966.065 32.4315 962.581 37.1306 Q959.097 41.7891 959.097 49.9314 Q959.097 58.0738 962.54 62.7728 Q966.024 67.4314 972.06 67.4314 Q978.015 67.4314 981.498 62.7323 Q984.982 58.0333 984.982 49.9314 Q984.982 41.8701 981.498 37.1711 Q978.015 32.4315 972.06 32.4315 M972.06 26.1121 Q981.782 26.1121 987.332 32.4315 Q992.882 38.7509 992.882 49.9314 Q992.882 61.0714 987.332 67.4314 Q981.782 73.7508 972.06 73.7508 Q962.297 73.7508 956.747 67.4314 Q951.238 61.0714 951.238 49.9314 Q951.238 38.7509 956.747 32.4315 Q962.297 26.1121 972.06 26.1121 Z" fill="#000000" fill-rule="evenodd" fill-opacity="1" /><path clip-path="url(#clip440)" d="M 0 0 M1042.95 45.1919 L1042.95 72.576 L1035.5 72.576 L1035.5 45.4349 Q1035.5 38.994 1032.99 35.7938 Q1030.47 32.5936 1025.45 32.5936 Q1019.41 32.5936 1015.93 36.4419 Q1012.45 40.2903 1012.45 46.9338 L1012.45 72.576 L1004.95 72.576 L1004.95 27.2059 L1012.45 27.2059 L1012.45 34.2544 Q1015.12 30.163 1018.73 28.1376 Q1022.37 26.1121 1027.11 26.1121 Q1034.93 26.1121 1038.94 30.9732 Q1042.95 35.7938 1042.95 45.1919 Z" fill="#000000" fill-rule="evenodd" fill-opacity="1" /><path clip-path="url(#clip440)" d="M 0 0 M1129.8 16.7545 L1129.8 25.383 Q1125.67 21.5346 1120.97 19.6307 Q1116.31 17.7268 1111.05 17.7268 Q1100.68 17.7268 1095.17 24.0867 Q1089.66 30.4061 1089.66 42.3968 Q1089.66 54.3469 1095.17 60.7069 Q1100.68 67.0263 1111.05 67.0263 Q1116.31 67.0263 1120.97 65.1223 Q1125.67 63.2184 1129.8 59.3701 L1129.8 67.9175 Q1125.51 70.8341 1120.69 72.2924 Q1115.91 73.7508 1110.56 73.7508 Q1096.83 73.7508 1088.93 65.3654 Q1081.03 56.9395 1081.03 42.3968 Q1081.03 27.8135 1088.93 19.4281 Q1096.83 11.0023 1110.56 11.0023 Q1115.99 11.0023 1120.77 12.4606 Q1125.59 13.8784 1129.8 16.7545 Z" fill="#000000" fill-rule="evenodd" fill-opacity="1" /><path clip-path="url(#clip440)" d="M 0 0 M1159.7 32.4315 Q1153.7 32.4315 1150.22 37.1306 Q1146.73 41.7891 1146.73 49.9314 Q1146.73 58.0738 1150.18 62.7728 Q1153.66 67.4314 1159.7 67.4314 Q1165.65 67.4314 1169.14 62.7323 Q1172.62 58.0333 1172.62 49.9314 Q1172.62 41.8701 1169.14 37.1711 Q1165.65 32.4315 1159.7 32.4315 M1159.7 26.1121 Q1169.42 26.1121 1174.97 32.4315 Q1180.52 38.7509 1180.52 49.9314 Q1180.52 61.0714 1174.97 67.4314 Q1169.42 73.7508 1159.7 73.7508 Q1149.94 73.7508 1144.39 67.4314 Q1138.88 61.0714 1138.88 49.9314 Q1138.88 38.7509 1144.39 32.4315 Q1149.94 26.1121 1159.7 26.1121 Z" fill="#000000" fill-rule="evenodd" fill-opacity="1" /><path clip-path="url(#clip440)" d="M 0 0 M1219.17 34.1734 Q1217.91 33.4443 1216.41 33.1202 Q1214.95 32.7556 1213.17 32.7556 Q1206.85 32.7556 1203.45 36.8875 Q1200.09 40.9789 1200.09 48.6757 L1200.09 72.576 L1192.59 72.576 L1192.59 27.2059 L1200.09 27.2059 L1200.09 34.2544 Q1202.43 30.1225 1206.2 28.1376 Q1209.97 26.1121 1215.36 26.1121 Q1216.13 26.1121 1217.06 26.2337 Q1217.99 26.3147 1219.12 26.5172 L1219.17 34.1734 Z" fill="#000000" fill-rule="evenodd" fill-opacity="1" /><path clip-path="url(#clip440)" d="M 0 0 M1251.82 34.1734 Q1250.56 33.4443 1249.06 33.1202 Q1247.6 32.7556 1245.82 32.7556 Q1239.5 32.7556 1236.1 36.8875 Q1232.74 40.9789 1232.74 48.6757 L1232.74 72.576 L1225.24 72.576 L1225.24 27.2059 L1232.74 27.2059 L1232.74 34.2544 Q1235.09 30.1225 1238.85 28.1376 Q1242.62 26.1121 1248.01 26.1121 Q1248.78 26.1121 1249.71 26.2337 Q1250.64 26.3147 1251.77 26.5172 L1251.82 34.1734 Z" fill="#000000" fill-rule="evenodd" fill-opacity="1" /><path clip-path="url(#clip440)" d="M 0 0 M1296.62 48.0275 L1296.62 51.6733 L1262.35 51.6733 Q1262.83 59.3701 1266.97 63.421 Q1271.14 67.4314 1278.55 67.4314 Q1282.85 67.4314 1286.86 66.3781 Q1290.91 65.3249 1294.88 63.2184 L1294.88 70.267 Q1290.87 71.9684 1286.65 72.8596 Q1282.44 73.7508 1278.11 73.7508 Q1267.25 73.7508 1260.89 67.4314 Q1254.57 61.1119 1254.57 50.3365 Q1254.57 39.1965 1260.57 32.6746 Q1266.6 26.1121 1276.81 26.1121 Q1285.96 26.1121 1291.27 32.0264 Q1296.62 37.9003 1296.62 48.0275 M1289.16 45.84 Q1289.08 39.7232 1285.72 36.0774 Q1282.4 32.4315 1276.89 32.4315 Q1270.65 32.4315 1266.88 35.9558 Q1263.16 39.4801 1262.59 45.8805 L1289.16 45.84 Z" fill="#000000" fill-rule="evenodd" fill-opacity="1" /><path clip-path="url(#clip440)" d="M 0 0 M1308.85 9.54393 L1316.31 9.54393 L1316.31 72.576 L1308.85 72.576 L1308.85 9.54393 Z" fill="#000000" fill-rule="evenodd" fill-opacity="1" /><path clip-path="url(#clip440)" d="M 0 0 M1352.52 49.7694 Q1343.49 49.7694 1340 51.8354 Q1336.52 53.9013 1336.52 58.8839 Q1336.52 62.8538 1339.11 65.2034 Q1341.75 67.5124 1346.24 67.5124 Q1352.44 67.5124 1356.17 63.1374 Q1359.93 58.7219 1359.93 51.4303 L1359.93 49.7694 L1352.52 49.7694 M1367.39 46.6907 L1367.39 72.576 L1359.93 72.576 L1359.93 65.6895 Q1357.38 69.8214 1353.57 71.8063 Q1349.77 73.7508 1344.26 73.7508 Q1337.29 73.7508 1333.16 69.8619 Q1329.07 65.9325 1329.07 59.3701 Q1329.07 51.7138 1334.17 47.825 Q1339.31 43.9361 1349.48 43.9361 L1359.93 43.9361 L1359.93 43.2069 Q1359.93 38.0623 1356.53 35.2672 Q1353.17 32.4315 1347.05 32.4315 Q1343.16 32.4315 1339.48 33.3632 Q1335.79 34.295 1332.39 36.1584 L1332.39 29.2718 Q1336.48 27.692 1340.33 26.9223 Q1344.18 26.1121 1347.82 26.1121 Q1357.67 26.1121 1362.53 31.2163 Q1367.39 36.3204 1367.39 46.6907 Z" fill="#000000" fill-rule="evenodd" fill-opacity="1" /><path clip-path="url(#clip440)" d="M 0 0 M1390.11 14.324 L1390.11 27.2059 L1405.47 27.2059 L1405.47 32.9987 L1390.11 32.9987 L1390.11 57.6282 Q1390.11 63.1779 1391.61 64.7578 Q1393.15 66.3376 1397.81 66.3376 L1405.47 66.3376 L1405.47 72.576 L1397.81 72.576 Q1389.18 72.576 1385.9 69.3758 Q1382.62 66.1351 1382.62 57.6282 L1382.62 32.9987 L1377.15 32.9987 L1377.15 27.2059 L1382.62 27.2059 L1382.62 14.324 L1390.11 14.324 Z" fill="#000000" fill-rule="evenodd" fill-opacity="1" /><path clip-path="url(#clip440)" d="M 0 0 M1415.27 27.2059 L1422.72 27.2059 L1422.72 72.576 L1415.27 72.576 L1415.27 27.2059 M1415.27 9.54393 L1422.72 9.54393 L1422.72 18.9825 L1415.27 18.9825 L1415.27 9.54393 Z" fill="#000000" fill-rule="evenodd" fill-opacity="1" /><path clip-path="url(#clip440)" d="M 0 0 M1455.9 32.4315 Q1449.9 32.4315 1446.42 37.1306 Q1442.94 41.7891 1442.94 49.9314 Q1442.94 58.0738 1446.38 62.7728 Q1449.86 67.4314 1455.9 67.4314 Q1461.85 67.4314 1465.34 62.7323 Q1468.82 58.0333 1468.82 49.9314 Q1468.82 41.8701 1465.34 37.1711 Q1461.85 32.4315 1455.9 32.4315 M1455.9 26.1121 Q1465.62 26.1121 1471.17 32.4315 Q1476.72 38.7509 1476.72 49.9314 Q1476.72 61.0714 1471.17 67.4314 Q1465.62 73.7508 1455.9 73.7508 Q1446.14 73.7508 1440.59 67.4314 Q1435.08 61.0714 1435.08 49.9314 Q1435.08 38.7509 1440.59 32.4315 Q1446.14 26.1121 1455.9 26.1121 Z" fill="#000000" fill-rule="evenodd" fill-opacity="1" /><path clip-path="url(#clip440)" d="M 0 0 M1526.79 45.1919 L1526.79 72.576 L1519.34 72.576 L1519.34 45.4349 Q1519.34 38.994 1516.83 35.7938 Q1514.31 32.5936 1509.29 32.5936 Q1503.25 32.5936 1499.77 36.4419 Q1496.29 40.2903 1496.29 46.9338 L1496.29 72.576 L1488.79 72.576 L1488.79 27.2059 L1496.29 27.2059 L1496.29 34.2544 Q1498.96 30.163 1502.57 28.1376 Q1506.21 26.1121 1510.95 26.1121 Q1518.77 26.1121 1522.78 30.9732 Q1526.79 35.7938 1526.79 45.1919 Z" fill="#000000" fill-rule="evenodd" fill-opacity="1" /><path clip-path="url(#clip440)" d="M 0 0 M1570.58 28.5427 L1570.58 35.5912 Q1567.42 33.9709 1564.02 33.1607 Q1560.62 32.3505 1556.97 32.3505 Q1551.42 32.3505 1548.63 34.0519 Q1545.87 35.7533 1545.87 39.156 Q1545.87 41.7486 1547.86 43.2475 Q1549.84 44.7058 1555.84 46.0426 L1558.39 46.6097 Q1566.33 48.3111 1569.65 51.4303 Q1573.01 54.509 1573.01 60.0587 Q1573.01 66.3781 1567.99 70.0644 Q1563.01 73.7508 1554.26 73.7508 Q1550.61 73.7508 1546.64 73.0216 Q1542.71 72.3329 1538.34 70.9151 L1538.34 63.2184 Q1542.47 65.3654 1546.48 66.4591 Q1550.49 67.5124 1554.42 67.5124 Q1559.68 67.5124 1562.52 65.73 Q1565.36 63.9071 1565.36 60.6258 Q1565.36 57.5877 1563.29 55.9673 Q1561.26 54.3469 1554.34 52.8481 L1551.74 52.2405 Q1544.82 50.7821 1541.74 47.7845 Q1538.66 44.7463 1538.66 39.4801 Q1538.66 33.0797 1543.2 29.5959 Q1547.73 26.1121 1556.08 26.1121 Q1560.21 26.1121 1563.86 26.7198 Q1567.5 27.3274 1570.58 28.5427 Z" fill="#000000" fill-rule="evenodd" fill-opacity="1" /><path clip-path="url(#clip440)" d="M 0 0 M1605.9 27.2059 L1613.8 27.2059 L1627.98 65.2844 L1642.16 27.2059 L1650.06 27.2059 L1633.05 72.576 L1622.92 72.576 L1605.9 27.2059 Z" fill="#000000" fill-rule="evenodd" fill-opacity="1" /><path clip-path="url(#clip440)" d="M 0 0 M1689.27 28.5427 L1689.27 35.5912 Q1686.11 33.9709 1682.71 33.1607 Q1679.31 32.3505 1675.66 32.3505 Q1670.11 32.3505 1667.32 34.0519 Q1664.56 35.7533 1664.56 39.156 Q1664.56 41.7486 1666.55 43.2475 Q1668.53 44.7058 1674.53 46.0426 L1677.08 46.6097 Q1685.02 48.3111 1688.34 51.4303 Q1691.7 54.509 1691.7 60.0587 Q1691.7 66.3781 1686.68 70.0644 Q1681.7 73.7508 1672.95 73.7508 Q1669.3 73.7508 1665.33 73.0216 Q1661.4 72.3329 1657.03 70.9151 L1657.03 63.2184 Q1661.16 65.3654 1665.17 66.4591 Q1669.18 67.5124 1673.11 67.5124 Q1678.38 67.5124 1681.21 65.73 Q1684.05 63.9071 1684.05 60.6258 Q1684.05 57.5877 1681.98 55.9673 Q1679.96 54.3469 1673.03 52.8481 L1670.44 52.2405 Q1663.51 50.7821 1660.43 47.7845 Q1657.35 44.7463 1657.35 39.4801 Q1657.35 33.0797 1661.89 29.5959 Q1666.43 26.1121 1674.77 26.1121 Q1678.9 26.1121 1682.55 26.7198 Q1686.19 27.3274 1689.27 28.5427 Z" fill="#000000" fill-rule="evenodd" fill-opacity="1" /><path clip-path="url(#clip440)" d="M 0 0 M1721.88 12.096 L1773.05 12.096 L1773.05 18.9825 L1751.58 18.9825 L1751.58 72.576 L1743.35 72.576 L1743.35 18.9825 L1721.88 18.9825 L1721.88 12.096 Z" fill="#000000" fill-rule="evenodd" fill-opacity="1" /><path clip-path="url(#clip440)" d="M 0 0 M1778.07 27.2059 L1785.52 27.2059 L1785.52 72.576 L1778.07 72.576 L1778.07 27.2059 M1778.07 9.54393 L1785.52 9.54393 L1785.52 18.9825 L1778.07 18.9825 L1778.07 9.54393 Z" fill="#000000" fill-rule="evenodd" fill-opacity="1" /><path clip-path="url(#clip440)" d="M 0 0 M1836.44 35.9153 Q1839.24 30.8922 1843.13 28.5022 Q1847.01 26.1121 1852.28 26.1121 Q1859.37 26.1121 1863.22 31.0947 Q1867.07 36.0368 1867.07 45.1919 L1867.07 72.576 L1859.57 72.576 L1859.57 45.4349 Q1859.57 38.913 1857.26 35.7533 Q1854.95 32.5936 1850.21 32.5936 Q1844.42 32.5936 1841.06 36.4419 Q1837.7 40.2903 1837.7 46.9338 L1837.7 72.576 L1830.2 72.576 L1830.2 45.4349 Q1830.2 38.8725 1827.89 35.7533 Q1825.59 32.5936 1820.76 32.5936 Q1815.05 32.5936 1811.69 36.4824 Q1808.33 40.3308 1808.33 46.9338 L1808.33 72.576 L1800.83 72.576 L1800.83 27.2059 L1808.33 27.2059 L1808.33 34.2544 Q1810.88 30.082 1814.45 28.0971 Q1818.01 26.1121 1822.91 26.1121 Q1827.85 26.1121 1831.3 28.6237 Q1834.78 31.1352 1836.44 35.9153 Z" fill="#000000" fill-rule="evenodd" fill-opacity="1" /><path clip-path="url(#clip440)" d="M 0 0 M1920.74 48.0275 L1920.74 51.6733 L1886.47 51.6733 Q1886.96 59.3701 1891.09 63.421 Q1895.26 67.4314 1902.67 67.4314 Q1906.97 67.4314 1910.98 66.3781 Q1915.03 65.3249 1919 63.2184 L1919 70.267 Q1914.99 71.9684 1910.78 72.8596 Q1906.56 73.7508 1902.23 73.7508 Q1891.37 73.7508 1885.01 67.4314 Q1878.69 61.1119 1878.69 50.3365 Q1878.69 39.1965 1884.69 32.6746 Q1890.72 26.1121 1900.93 26.1121 Q1910.09 26.1121 1915.39 32.0264 Q1920.74 37.9003 1920.74 48.0275 M1913.29 45.84 Q1913.21 39.7232 1909.84 36.0774 Q1906.52 32.4315 1901.01 32.4315 Q1894.77 32.4315 1891.01 35.9558 Q1887.28 39.4801 1886.71 45.8805 L1913.29 45.84 Z" fill="#000000" fill-rule="evenodd" fill-opacity="1" /><path clip-path="url(#clip440)" d="M 0 0 M1984.22 17.6457 Q1975.31 17.6457 1970.04 24.2892 Q1964.81 30.9327 1964.81 42.3968 Q1964.81 53.8203 1970.04 60.4638 Q1975.31 67.1073 1984.22 67.1073 Q1993.13 67.1073 1998.32 60.4638 Q2003.54 53.8203 2003.54 42.3968 Q2003.54 30.9327 1998.32 24.2892 Q1993.13 17.6457 1984.22 17.6457 M1984.22 11.0023 Q1996.94 11.0023 2004.55 19.5497 Q2012.17 28.0566 2012.17 42.3968 Q2012.17 56.6965 2004.55 65.2439 Q1996.94 73.7508 1984.22 73.7508 Q1971.46 73.7508 1963.8 65.2439 Q1956.19 56.737 1956.19 42.3968 Q1956.19 28.0566 1963.8 19.5497 Q1971.46 11.0023 1984.22 11.0023 Z" fill="#000000" fill-rule="evenodd" fill-opacity="1" /><path clip-path="url(#clip440)" d="M 0 0 M2047.62 9.54393 L2047.62 15.7418 L2040.49 15.7418 Q2036.48 15.7418 2034.9 17.3622 Q2033.36 18.9825 2033.36 23.1955 L2033.36 27.2059 L2045.63 27.2059 L2045.63 32.9987 L2033.36 32.9987 L2033.36 72.576 L2025.86 72.576 L2025.86 32.9987 L2018.73 32.9987 L2018.73 27.2059 L2025.86 27.2059 L2025.86 24.0462 Q2025.86 16.471 2029.39 13.0277 Q2032.91 9.54393 2040.57 9.54393 L2047.62 9.54393 Z" fill="#000000" fill-rule="evenodd" fill-opacity="1" /><path clip-path="url(#clip440)" d="M 0 0 M2076.82 9.54393 L2076.82 15.7418 L2069.69 15.7418 Q2065.68 15.7418 2064.1 17.3622 Q2062.56 18.9825 2062.56 23.1955 L2062.56 27.2059 L2074.84 27.2059 L2074.84 32.9987 L2062.56 32.9987 L2062.56 72.576 L2055.07 72.576 L2055.07 32.9987 L2047.94 32.9987 L2047.94 27.2059 L2055.07 27.2059 L2055.07 24.0462 Q2055.07 16.471 2058.59 13.0277 Q2062.12 9.54393 2069.77 9.54393 L2076.82 9.54393 Z" fill="#000000" fill-rule="evenodd" fill-opacity="1" /><path clip-path="url(#clip440)" d="M 0 0 M2111.98 28.5427 L2111.98 35.5912 Q2108.82 33.9709 2105.42 33.1607 Q2102.02 32.3505 2098.37 32.3505 Q2092.82 32.3505 2090.03 34.0519 Q2087.27 35.7533 2087.27 39.156 Q2087.27 41.7486 2089.26 43.2475 Q2091.24 44.7058 2097.24 46.0426 L2099.79 46.6097 Q2107.73 48.3111 2111.05 51.4303 Q2114.41 54.509 2114.41 60.0587 Q2114.41 66.3781 2109.39 70.0644 Q2104.41 73.7508 2095.66 73.7508 Q2092.01 73.7508 2088.04 73.0216 Q2084.11 72.3329 2079.74 70.9151 L2079.74 63.2184 Q2083.87 65.3654 2087.88 66.4591 Q2091.89 67.5124 2095.82 67.5124 Q2101.09 67.5124 2103.92 65.73 Q2106.76 63.9071 2106.76 60.6258 Q2106.76 57.5877 2104.69 55.9673 Q2102.67 54.3469 2095.74 52.8481 L2093.15 52.2405 Q2086.22 50.7821 2083.14 47.7845 Q2080.06 44.7463 2080.06 39.4801 Q2080.06 33.0797 2084.6 29.5959 Q2089.14 26.1121 2097.48 26.1121 Q2101.61 26.1121 2105.26 26.7198 Q2108.91 27.3274 2111.98 28.5427 Z" fill="#000000" fill-rule="evenodd" fill-opacity="1" /><path clip-path="url(#clip440)" d="M 0 0 M2165.09 48.0275 L2165.09 51.6733 L2130.82 51.6733 Q2131.31 59.3701 2135.44 63.421 Q2139.61 67.4314 2147.02 67.4314 Q2151.32 67.4314 2155.33 66.3781 Q2159.38 65.3249 2163.35 63.2184 L2163.35 70.267 Q2159.34 71.9684 2155.13 72.8596 Q2150.91 73.7508 2146.58 73.7508 Q2135.72 73.7508 2129.36 67.4314 Q2123.04 61.1119 2123.04 50.3365 Q2123.04 39.1965 2129.04 32.6746 Q2135.07 26.1121 2145.28 26.1121 Q2154.44 26.1121 2159.74 32.0264 Q2165.09 37.9003 2165.09 48.0275 M2157.64 45.84 Q2157.56 39.7232 2154.19 36.0774 Q2150.87 32.4315 2145.36 32.4315 Q2139.13 32.4315 2135.36 35.9558 Q2131.63 39.4801 2131.06 45.8805 L2157.64 45.84 Z" fill="#000000" fill-rule="evenodd" fill-opacity="1" /><path clip-path="url(#clip440)" d="M 0 0 M2184.7 14.324 L2184.7 27.2059 L2200.05 27.2059 L2200.05 32.9987 L2184.7 32.9987 L2184.7 57.6282 Q2184.7 63.1779 2186.2 64.7578 Q2187.74 66.3376 2192.39 66.3376 L2200.05 66.3376 L2200.05 72.576 L2192.39 72.576 Q2183.77 72.576 2180.49 69.3758 Q2177.2 66.1351 2177.2 57.6282 L2177.2 32.9987 L2171.74 32.9987 L2171.74 27.2059 L2177.2 27.2059 L2177.2 14.324 L2184.7 14.324 Z" fill="#000000" fill-rule="evenodd" fill-opacity="1" /><polyline clip-path="url(#clip443)" style="stroke:#009af9; stroke-width:4; stroke-opacity:1; fill:none" points="
  353.008,1137.85 399.914,1358.13 408.072,1137.85 457.017,1390.25 503.923,1358.13 607.932,257.992 624.247,1358.13 691.547,1358.13 718.059,1316.83 746.611,1176.65 
  791.478,1316.83 793.517,1316.83 801.675,1316.83 928.117,779.899 962.787,1137.85 1109.62,1110.32 1111.66,587.156 1142.25,1316.83 1185.08,1069.01 1221.79,1176.65 
  1268.7,160.369 1276.85,931.34 1325.8,1316.83 1386.98,1316.83 1505.27,679.46 1570.53,1316.83 1660.26,1316.83 1719.4,1316.83 1723.48,1316.83 1770.39,1261.76 
  1778.54,799.173 1870.32,1184.66 1964.13,262.372 1980.44,1081.53 2135.44,601.174 2161.95,1358.13 2186.42,1316.83 2194.58,251.483 2294.51,973.831 
  "/>
</svg>
