<?xml version="1.0" encoding="utf-8"?>
<svg xmlns="http://www.w3.org/2000/svg" xmlns:xlink="http://www.w3.org/1999/xlink" width="600" height="400" viewBox="0 0 2400 1600">
<defs>
  <clipPath id="clip320">
    <rect x="0" y="0" width="2400" height="1600"/>
  </clipPath>
</defs>
<path clip-path="url(#clip320)" d="
M0 1600 L2400 1600 L2400 0 L0 0  Z
  " fill="#ffffff" fill-rule="evenodd" fill-opacity="1"/>
<defs>
  <clipPath id="clip321">
    <rect x="480" y="0" width="1681" height="1600"/>
  </clipPath>
</defs>
<defs>
  <clipPath id="clip322">
    <rect x="267" y="123" width="2086" height="1305"/>
  </clipPath>
</defs>
<path clip-path="url(#clip320)" d="
M220.533 1423.18 L2352.76 1423.18 L2352.76 123.472 L220.533 123.472  Z
  " fill="#ffffff" fill-rule="evenodd" fill-opacity="1"/>
<defs>
  <clipPath id="clip323">
    <rect x="220" y="123" width="2133" height="1301"/>
  </clipPath>
</defs>
<polyline clip-path="url(#clip323)" style="stroke:#000000; stroke-width:2; stroke-opacity:0.1; fill:none" points="
  280.879,1423.18 280.879,123.472 
  "/>
<polyline clip-path="url(#clip323)" style="stroke:#000000; stroke-width:2; stroke-opacity:0.1; fill:none" points="
  683.593,1423.18 683.593,123.472 
  "/>
<polyline clip-path="url(#clip323)" style="stroke:#000000; stroke-width:2; stroke-opacity:0.1; fill:none" points="
  1086.31,1423.18 1086.31,123.472 
  "/>
<polyline clip-path="url(#clip323)" style="stroke:#000000; stroke-width:2; stroke-opacity:0.1; fill:none" points="
  1489.02,1423.18 1489.02,123.472 
  "/>
<polyline clip-path="url(#clip323)" style="stroke:#000000; stroke-width:2; stroke-opacity:0.1; fill:none" points="
  1891.73,1423.18 1891.73,123.472 
  "/>
<polyline clip-path="url(#clip323)" style="stroke:#000000; stroke-width:2; stroke-opacity:0.1; fill:none" points="
  2294.45,1423.18 2294.45,123.472 
  "/>
<polyline clip-path="url(#clip320)" style="stroke:#000000; stroke-width:4; stroke-opacity:1; fill:none" points="
  220.533,1423.18 2352.76,1423.18 
  "/>
<polyline clip-path="url(#clip320)" style="stroke:#000000; stroke-width:4; stroke-opacity:1; fill:none" points="
  280.879,1423.18 280.879,1407.58 
  "/>
<polyline clip-path="url(#clip320)" style="stroke:#000000; stroke-width:4; stroke-opacity:1; fill:none" points="
  683.593,1423.18 683.593,1407.58 
  "/>
<polyline clip-path="url(#clip320)" style="stroke:#000000; stroke-width:4; stroke-opacity:1; fill:none" points="
  1086.31,1423.18 1086.31,1407.58 
  "/>
<polyline clip-path="url(#clip320)" style="stroke:#000000; stroke-width:4; stroke-opacity:1; fill:none" points="
  1489.02,1423.18 1489.02,1407.58 
  "/>
<polyline clip-path="url(#clip320)" style="stroke:#000000; stroke-width:4; stroke-opacity:1; fill:none" points="
  1891.73,1423.18 1891.73,1407.58 
  "/>
<polyline clip-path="url(#clip320)" style="stroke:#000000; stroke-width:4; stroke-opacity:1; fill:none" points="
  2294.45,1423.18 2294.45,1407.58 
  "/>
<path clip-path="url(#clip320)" d="M 0 0 M280.879 1452.37 Q277.268 1452.37 275.439 1455.94 Q273.634 1459.48 273.634 1466.61 Q273.634 1473.71 275.439 1477.28 Q277.268 1480.82 280.879 1480.82 Q284.513 1480.82 286.319 1477.28 Q288.148 1473.71 288.148 1466.61 Q288.148 1459.48 286.319 1455.94 Q284.513 1452.37 280.879 1452.37 M280.879 1448.67 Q286.689 1448.67 289.745 1453.27 Q292.824 1457.86 292.824 1466.61 Q292.824 1475.33 289.745 1479.94 Q286.689 1484.52 280.879 1484.52 Q275.069 1484.52 271.99 1479.94 Q268.935 1475.33 268.935 1466.61 Q268.935 1457.86 271.99 1453.27 Q275.069 1448.67 280.879 1448.67 Z" fill="#000000" fill-rule="evenodd" fill-opacity="1" /><path clip-path="url(#clip320)" d="M 0 0 M658.28 1479.92 L665.919 1479.92 L665.919 1453.55 L657.609 1455.22 L657.609 1450.96 L665.873 1449.29 L670.549 1449.29 L670.549 1479.92 L678.187 1479.92 L678.187 1483.85 L658.28 1483.85 L658.28 1479.92 Z" fill="#000000" fill-rule="evenodd" fill-opacity="1" /><path clip-path="url(#clip320)" d="M 0 0 M697.632 1452.37 Q694.021 1452.37 692.192 1455.94 Q690.386 1459.48 690.386 1466.61 Q690.386 1473.71 692.192 1477.28 Q694.021 1480.82 697.632 1480.82 Q701.266 1480.82 703.072 1477.28 Q704.9 1473.71 704.9 1466.61 Q704.9 1459.48 703.072 1455.94 Q701.266 1452.37 697.632 1452.37 M697.632 1448.67 Q703.442 1448.67 706.498 1453.27 Q709.576 1457.86 709.576 1466.61 Q709.576 1475.33 706.498 1479.94 Q703.442 1484.52 697.632 1484.52 Q691.822 1484.52 688.743 1479.94 Q685.687 1475.33 685.687 1466.61 Q685.687 1457.86 688.743 1453.27 Q691.822 1448.67 697.632 1448.67 Z" fill="#000000" fill-rule="evenodd" fill-opacity="1" /><path clip-path="url(#clip320)" d="M 0 0 M1065.08 1479.92 L1081.4 1479.92 L1081.4 1483.85 L1059.45 1483.85 L1059.45 1479.92 Q1062.12 1477.16 1066.7 1472.53 Q1071.31 1467.88 1072.49 1466.54 Q1074.73 1464.01 1075.61 1462.28 Q1076.51 1460.52 1076.51 1458.83 Q1076.51 1456.07 1074.57 1454.34 Q1072.65 1452.6 1069.55 1452.6 Q1067.35 1452.6 1064.89 1453.37 Q1062.46 1454.13 1059.69 1455.68 L1059.69 1450.96 Q1062.51 1449.82 1064.96 1449.25 Q1067.42 1448.67 1069.45 1448.67 Q1074.82 1448.67 1078.02 1451.35 Q1081.21 1454.04 1081.21 1458.53 Q1081.21 1460.66 1080.4 1462.58 Q1079.62 1464.48 1077.51 1467.07 Q1076.93 1467.74 1073.83 1470.96 Q1070.73 1474.15 1065.08 1479.92 Z" fill="#000000" fill-rule="evenodd" fill-opacity="1" /><path clip-path="url(#clip320)" d="M 0 0 M1101.21 1452.37 Q1097.6 1452.37 1095.77 1455.94 Q1093.97 1459.48 1093.97 1466.61 Q1093.97 1473.71 1095.77 1477.28 Q1097.6 1480.82 1101.21 1480.82 Q1104.85 1480.82 1106.65 1477.28 Q1108.48 1473.71 1108.48 1466.61 Q1108.48 1459.48 1106.65 1455.94 Q1104.85 1452.37 1101.21 1452.37 M1101.21 1448.67 Q1107.02 1448.67 1110.08 1453.27 Q1113.16 1457.86 1113.16 1466.61 Q1113.16 1475.33 1110.08 1479.94 Q1107.02 1484.52 1101.21 1484.52 Q1095.4 1484.52 1092.32 1479.94 Q1089.27 1475.33 1089.27 1466.61 Q1089.27 1457.86 1092.32 1453.27 Q1095.4 1448.67 1101.21 1448.67 Z" fill="#000000" fill-rule="evenodd" fill-opacity="1" /><path clip-path="url(#clip320)" d="M 0 0 M1477.86 1465.22 Q1481.22 1465.94 1483.09 1468.2 Q1484.99 1470.47 1484.99 1473.81 Q1484.99 1478.92 1481.47 1481.72 Q1477.95 1484.52 1471.47 1484.52 Q1469.3 1484.52 1466.98 1484.08 Q1464.69 1483.67 1462.24 1482.81 L1462.24 1478.3 Q1464.18 1479.43 1466.5 1480.01 Q1468.81 1480.59 1471.33 1480.59 Q1475.73 1480.59 1478.02 1478.85 Q1480.34 1477.12 1480.34 1473.81 Q1480.34 1470.75 1478.19 1469.04 Q1476.06 1467.3 1472.24 1467.3 L1468.21 1467.3 L1468.21 1463.46 L1472.42 1463.46 Q1475.87 1463.46 1477.7 1462.09 Q1479.53 1460.7 1479.53 1458.11 Q1479.53 1455.45 1477.63 1454.04 Q1475.76 1452.6 1472.24 1452.6 Q1470.32 1452.6 1468.12 1453.02 Q1465.92 1453.44 1463.28 1454.31 L1463.28 1450.15 Q1465.94 1449.41 1468.26 1449.04 Q1470.59 1448.67 1472.65 1448.67 Q1477.98 1448.67 1481.08 1451.1 Q1484.18 1453.5 1484.18 1457.63 Q1484.18 1460.5 1482.54 1462.49 Q1480.89 1464.45 1477.86 1465.22 Z" fill="#000000" fill-rule="evenodd" fill-opacity="1" /><path clip-path="url(#clip320)" d="M 0 0 M1503.86 1452.37 Q1500.25 1452.37 1498.42 1455.94 Q1496.61 1459.48 1496.61 1466.61 Q1496.61 1473.71 1498.42 1477.28 Q1500.25 1480.82 1503.86 1480.82 Q1507.49 1480.82 1509.3 1477.28 Q1511.13 1473.71 1511.13 1466.61 Q1511.13 1459.48 1509.3 1455.94 Q1507.49 1452.37 1503.86 1452.37 M1503.86 1448.67 Q1509.67 1448.67 1512.72 1453.27 Q1515.8 1457.86 1515.8 1466.61 Q1515.8 1475.33 1512.72 1479.94 Q1509.67 1484.52 1503.86 1484.52 Q1498.05 1484.52 1494.97 1479.94 Q1491.91 1475.33 1491.91 1466.61 Q1491.91 1457.86 1494.97 1453.27 Q1498.05 1448.67 1503.86 1448.67 Z" fill="#000000" fill-rule="evenodd" fill-opacity="1" /><path clip-path="url(#clip320)" d="M 0 0 M1879.9 1453.37 L1868.1 1471.81 L1879.9 1471.81 L1879.9 1453.37 M1878.68 1449.29 L1884.56 1449.29 L1884.56 1471.81 L1889.49 1471.81 L1889.49 1475.7 L1884.56 1475.7 L1884.56 1483.85 L1879.9 1483.85 L1879.9 1475.7 L1864.3 1475.7 L1864.3 1471.19 L1878.68 1449.29 Z" fill="#000000" fill-rule="evenodd" fill-opacity="1" /><path clip-path="url(#clip320)" d="M 0 0 M1907.22 1452.37 Q1903.61 1452.37 1901.78 1455.94 Q1899.97 1459.48 1899.97 1466.61 Q1899.97 1473.71 1901.78 1477.28 Q1903.61 1480.82 1907.22 1480.82 Q1910.85 1480.82 1912.66 1477.28 Q1914.49 1473.71 1914.49 1466.61 Q1914.49 1459.48 1912.66 1455.94 Q1910.85 1452.37 1907.22 1452.37 M1907.22 1448.67 Q1913.03 1448.67 1916.08 1453.27 Q1919.16 1457.86 1919.16 1466.61 Q1919.16 1475.33 1916.08 1479.94 Q1913.03 1484.52 1907.22 1484.52 Q1901.41 1484.52 1898.33 1479.94 Q1895.27 1475.33 1895.27 1466.61 Q1895.27 1457.86 1898.33 1453.27 Q1901.41 1448.67 1907.22 1448.67 Z" fill="#000000" fill-rule="evenodd" fill-opacity="1" /><path clip-path="url(#clip320)" d="M 0 0 M2269.15 1449.29 L2287.5 1449.29 L2287.5 1453.23 L2273.43 1453.23 L2273.43 1461.7 Q2274.45 1461.35 2275.46 1461.19 Q2276.48 1461 2277.5 1461 Q2283.29 1461 2286.67 1464.18 Q2290.05 1467.35 2290.05 1472.76 Q2290.05 1478.34 2286.58 1481.44 Q2283.1 1484.52 2276.78 1484.52 Q2274.61 1484.52 2272.34 1484.15 Q2270.09 1483.78 2267.69 1483.04 L2267.69 1478.34 Q2269.77 1479.48 2271.99 1480.03 Q2274.21 1480.59 2276.69 1480.59 Q2280.7 1480.59 2283.03 1478.48 Q2285.37 1476.38 2285.37 1472.76 Q2285.37 1469.15 2283.03 1467.05 Q2280.7 1464.94 2276.69 1464.94 Q2274.82 1464.94 2272.94 1465.36 Q2271.09 1465.77 2269.15 1466.65 L2269.15 1449.29 Z" fill="#000000" fill-rule="evenodd" fill-opacity="1" /><path clip-path="url(#clip320)" d="M 0 0 M2309.26 1452.37 Q2305.65 1452.37 2303.82 1455.94 Q2302.02 1459.48 2302.02 1466.61 Q2302.02 1473.71 2303.82 1477.28 Q2305.65 1480.82 2309.26 1480.82 Q2312.89 1480.82 2314.7 1477.28 Q2316.53 1473.71 2316.53 1466.61 Q2316.53 1459.48 2314.7 1455.94 Q2312.89 1452.37 2309.26 1452.37 M2309.26 1448.67 Q2315.07 1448.67 2318.13 1453.27 Q2321.21 1457.86 2321.21 1466.61 Q2321.21 1475.33 2318.13 1479.94 Q2315.07 1484.52 2309.26 1484.52 Q2303.45 1484.52 2300.37 1479.94 Q2297.32 1475.33 2297.32 1466.61 Q2297.32 1457.86 2300.37 1453.27 Q2303.45 1448.67 2309.26 1448.67 Z" fill="#000000" fill-rule="evenodd" fill-opacity="1" /><path clip-path="url(#clip320)" d="M 0 0 M1046.75 1518.52 L1046.75 1523.39 L1041.15 1523.39 Q1038 1523.39 1036.76 1524.66 Q1035.55 1525.93 1035.55 1529.24 L1035.55 1532.4 L1045.19 1532.4 L1045.19 1536.95 L1035.55 1536.95 L1035.55 1568.04 L1029.66 1568.04 L1029.66 1536.95 L1024.06 1536.95 L1024.06 1532.4 L1029.66 1532.4 L1029.66 1529.91 Q1029.66 1523.96 1032.43 1521.26 Q1035.2 1518.52 1041.21 1518.52 L1046.75 1518.52 Z" fill="#000000" fill-rule="evenodd" fill-opacity="1" /><path clip-path="url(#clip320)" d="M 0 0 M1072.31 1537.87 Q1071.32 1537.3 1070.15 1537.04 Q1069 1536.76 1067.6 1536.76 Q1062.64 1536.76 1059.96 1540 Q1057.32 1543.22 1057.32 1549.27 L1057.32 1568.04 L1051.43 1568.04 L1051.43 1532.4 L1057.32 1532.4 L1057.32 1537.93 Q1059.17 1534.69 1062.13 1533.13 Q1065.09 1531.54 1069.32 1531.54 Q1069.92 1531.54 1070.66 1531.63 Q1071.39 1531.7 1072.28 1531.85 L1072.31 1537.87 Z" fill="#000000" fill-rule="evenodd" fill-opacity="1" /><path clip-path="url(#clip320)" d="M 0 0 M1107.51 1548.76 L1107.51 1551.62 L1080.59 1551.62 Q1080.97 1557.67 1084.22 1560.85 Q1087.49 1564 1093.32 1564 Q1096.69 1564 1099.84 1563.17 Q1103.03 1562.35 1106.14 1560.69 L1106.14 1566.23 Q1102.99 1567.57 1099.68 1568.27 Q1096.37 1568.97 1092.97 1568.97 Q1084.44 1568.97 1079.44 1564 Q1074.48 1559.04 1074.48 1550.57 Q1074.48 1541.82 1079.19 1536.69 Q1083.93 1531.54 1091.95 1531.54 Q1099.14 1531.54 1103.31 1536.18 Q1107.51 1540.8 1107.51 1548.76 M1101.66 1547.04 Q1101.59 1542.23 1098.95 1539.37 Q1096.34 1536.5 1092.01 1536.5 Q1087.11 1536.5 1084.15 1539.27 Q1081.22 1542.04 1080.78 1547.07 L1101.66 1547.04 Z" fill="#000000" fill-rule="evenodd" fill-opacity="1" /><path clip-path="url(#clip320)" d="M 0 0 M1120.63 1550.25 Q1120.63 1556.71 1123.27 1560.4 Q1125.94 1564.07 1130.59 1564.07 Q1135.24 1564.07 1137.91 1560.4 Q1140.58 1556.71 1140.58 1550.25 Q1140.58 1543.79 1137.91 1540.13 Q1135.24 1536.44 1130.59 1536.44 Q1125.94 1536.44 1123.27 1540.13 Q1120.63 1543.79 1120.63 1550.25 M1140.58 1562.7 Q1138.74 1565.88 1135.9 1567.44 Q1133.1 1568.97 1129.16 1568.97 Q1122.7 1568.97 1118.62 1563.81 Q1114.58 1558.65 1114.58 1550.25 Q1114.58 1541.85 1118.62 1536.69 Q1122.7 1531.54 1129.16 1531.54 Q1133.1 1531.54 1135.9 1533.1 Q1138.74 1534.62 1140.58 1537.81 L1140.58 1532.4 L1146.44 1532.4 L1146.44 1581.6 L1140.58 1581.6 L1140.58 1562.7 Z" fill="#000000" fill-rule="evenodd" fill-opacity="1" /><path clip-path="url(#clip320)" d="M 0 0 M1157.9 1553.98 L1157.9 1532.4 L1163.75 1532.4 L1163.75 1553.75 Q1163.75 1558.81 1165.73 1561.36 Q1167.7 1563.87 1171.65 1563.87 Q1176.39 1563.87 1179.13 1560.85 Q1181.9 1557.83 1181.9 1552.61 L1181.9 1532.4 L1187.75 1532.4 L1187.75 1568.04 L1181.9 1568.04 L1181.9 1562.57 Q1179.76 1565.82 1176.93 1567.41 Q1174.13 1568.97 1170.41 1568.97 Q1164.26 1568.97 1161.08 1565.15 Q1157.9 1561.33 1157.9 1553.98 M1172.63 1531.54 L1172.63 1531.54 Z" fill="#000000" fill-rule="evenodd" fill-opacity="1" /><path clip-path="url(#clip320)" d="M 0 0 M1230.31 1548.76 L1230.31 1551.62 L1203.38 1551.62 Q1203.76 1557.67 1207.01 1560.85 Q1210.29 1564 1216.11 1564 Q1219.49 1564 1222.64 1563.17 Q1225.82 1562.35 1228.94 1560.69 L1228.94 1566.23 Q1225.79 1567.57 1222.48 1568.27 Q1219.17 1568.97 1215.76 1568.97 Q1207.23 1568.97 1202.24 1564 Q1197.27 1559.04 1197.27 1550.57 Q1197.27 1541.82 1201.98 1536.69 Q1206.72 1531.54 1214.74 1531.54 Q1221.94 1531.54 1226.11 1536.18 Q1230.31 1540.8 1230.31 1548.76 M1224.45 1547.04 Q1224.39 1542.23 1221.75 1539.37 Q1219.14 1536.5 1214.81 1536.5 Q1209.91 1536.5 1206.95 1539.27 Q1204.02 1542.04 1203.57 1547.07 L1224.45 1547.04 Z" fill="#000000" fill-rule="evenodd" fill-opacity="1" /><path clip-path="url(#clip320)" d="M 0 0 M1269.55 1546.53 L1269.55 1568.04 L1263.7 1568.04 L1263.7 1546.72 Q1263.7 1541.66 1261.72 1539.14 Q1259.75 1536.63 1255.8 1536.63 Q1251.06 1536.63 1248.32 1539.65 Q1245.59 1542.68 1245.59 1547.9 L1245.59 1568.04 L1239.7 1568.04 L1239.7 1532.4 L1245.59 1532.4 L1245.59 1537.93 Q1247.69 1534.72 1250.52 1533.13 Q1253.38 1531.54 1257.11 1531.54 Q1263.25 1531.54 1266.4 1535.36 Q1269.55 1539.14 1269.55 1546.53 Z" fill="#000000" fill-rule="evenodd" fill-opacity="1" /><path clip-path="url(#clip320)" d="M 0 0 M1306.89 1533.76 L1306.89 1539.24 Q1304.4 1537.87 1301.89 1537.2 Q1299.41 1536.5 1296.86 1536.5 Q1291.16 1536.5 1288.01 1540.13 Q1284.86 1543.73 1284.86 1550.25 Q1284.86 1556.78 1288.01 1560.4 Q1291.16 1564 1296.86 1564 Q1299.41 1564 1301.89 1563.33 Q1304.4 1562.63 1306.89 1561.26 L1306.89 1566.68 Q1304.44 1567.82 1301.79 1568.39 Q1299.19 1568.97 1296.22 1568.97 Q1288.17 1568.97 1283.43 1563.91 Q1278.69 1558.85 1278.69 1550.25 Q1278.69 1541.53 1283.46 1536.53 Q1288.27 1531.54 1296.61 1531.54 Q1299.31 1531.54 1301.89 1532.11 Q1304.47 1532.65 1306.89 1533.76 Z" fill="#000000" fill-rule="evenodd" fill-opacity="1" /><path clip-path="url(#clip320)" d="M 0 0 M1331.9 1571.35 Q1329.42 1577.72 1327.07 1579.66 Q1324.71 1581.6 1320.76 1581.6 L1316.09 1581.6 L1316.09 1576.7 L1319.52 1576.7 Q1321.94 1576.7 1323.28 1575.56 Q1324.62 1574.41 1326.24 1570.14 L1327.29 1567.47 L1312.87 1532.4 L1319.08 1532.4 L1330.22 1560.28 L1341.36 1532.4 L1347.56 1532.4 L1331.9 1571.35 Z" fill="#000000" fill-rule="evenodd" fill-opacity="1" /><path clip-path="url(#clip320)" d="M 0 0 M1390.44 1518.58 Q1386.17 1525.9 1384.1 1533.06 Q1382.03 1540.23 1382.03 1547.58 Q1382.03 1554.93 1384.1 1562.16 Q1386.2 1569.35 1390.44 1576.64 L1385.34 1576.64 Q1380.57 1569.16 1378.18 1561.93 Q1375.83 1554.71 1375.83 1547.58 Q1375.83 1540.48 1378.18 1533.29 Q1380.54 1526.09 1385.34 1518.58 L1390.44 1518.58 Z" fill="#000000" fill-rule="evenodd" fill-opacity="1" /><path clip-path="url(#clip320)" d="M 0 0 M1434.46 1561.26 L1434.46 1548.5 L1423.95 1548.5 L1423.95 1543.22 L1440.82 1543.22 L1440.82 1563.62 Q1437.1 1566.26 1432.61 1567.63 Q1428.12 1568.97 1423.03 1568.97 Q1411.89 1568.97 1405.59 1562.47 Q1399.32 1555.95 1399.32 1544.33 Q1399.32 1532.68 1405.59 1526.19 Q1411.89 1519.66 1423.03 1519.66 Q1427.68 1519.66 1431.85 1520.81 Q1436.05 1521.96 1439.58 1524.18 L1439.58 1531.03 Q1436.02 1528 1432.01 1526.48 Q1428 1524.95 1423.57 1524.95 Q1414.85 1524.95 1410.46 1529.82 Q1406.1 1534.69 1406.1 1544.33 Q1406.1 1553.94 1410.46 1558.81 Q1414.85 1563.68 1423.57 1563.68 Q1426.98 1563.68 1429.65 1563.11 Q1432.32 1562.51 1434.46 1561.26 Z" fill="#000000" fill-rule="evenodd" fill-opacity="1" /><path clip-path="url(#clip320)" d="M 0 0 M1452.57 1520.52 L1459 1520.52 L1459 1540 L1482.36 1540 L1482.36 1520.52 L1488.79 1520.52 L1488.79 1568.04 L1482.36 1568.04 L1482.36 1545.41 L1459 1545.41 L1459 1568.04 L1452.57 1568.04 L1452.57 1520.52 Z" fill="#000000" fill-rule="evenodd" fill-opacity="1" /><path clip-path="url(#clip320)" d="M 0 0 M1498.78 1532.4 L1526.6 1532.4 L1526.6 1537.74 L1504.57 1563.37 L1526.6 1563.37 L1526.6 1568.04 L1497.99 1568.04 L1497.99 1562.7 L1520.01 1537.07 L1498.78 1537.07 L1498.78 1532.4 Z" fill="#000000" fill-rule="evenodd" fill-opacity="1" /><path clip-path="url(#clip320)" d="M 0 0 M1534.62 1518.58 L1539.71 1518.58 Q1544.49 1526.09 1546.84 1533.29 Q1549.23 1540.48 1549.23 1547.58 Q1549.23 1554.71 1546.84 1561.93 Q1544.49 1569.16 1539.71 1576.64 L1534.62 1576.64 Q1538.85 1569.35 1540.92 1562.16 Q1543.02 1554.93 1543.02 1547.58 Q1543.02 1540.23 1540.92 1533.06 Q1538.85 1525.9 1534.62 1518.58 Z" fill="#000000" fill-rule="evenodd" fill-opacity="1" /><polyline clip-path="url(#clip323)" style="stroke:#000000; stroke-width:2; stroke-opacity:0.1; fill:none" points="
  220.533,1386.4 2352.76,1386.4 
  "/>
<polyline clip-path="url(#clip323)" style="stroke:#000000; stroke-width:2; stroke-opacity:0.1; fill:none" points="
  220.533,1133.77 2352.76,1133.77 
  "/>
<polyline clip-path="url(#clip323)" style="stroke:#000000; stroke-width:2; stroke-opacity:0.1; fill:none" points="
  220.533,881.145 2352.76,881.145 
  "/>
<polyline clip-path="url(#clip323)" style="stroke:#000000; stroke-width:2; stroke-opacity:0.1; fill:none" points="
  220.533,628.52 2352.76,628.52 
  "/>
<polyline clip-path="url(#clip323)" style="stroke:#000000; stroke-width:2; stroke-opacity:0.1; fill:none" points="
  220.533,375.895 2352.76,375.895 
  "/>
<polyline clip-path="url(#clip320)" style="stroke:#000000; stroke-width:4; stroke-opacity:1; fill:none" points="
  220.533,1423.18 220.533,123.472 
  "/>
<polyline clip-path="url(#clip320)" style="stroke:#000000; stroke-width:4; stroke-opacity:1; fill:none" points="
  220.533,1386.4 246.12,1386.4 
  "/>
<polyline clip-path="url(#clip320)" style="stroke:#000000; stroke-width:4; stroke-opacity:1; fill:none" points="
  220.533,1133.77 246.12,1133.77 
  "/>
<polyline clip-path="url(#clip320)" style="stroke:#000000; stroke-width:4; stroke-opacity:1; fill:none" points="
  220.533,881.145 246.12,881.145 
  "/>
<polyline clip-path="url(#clip320)" style="stroke:#000000; stroke-width:4; stroke-opacity:1; fill:none" points="
  220.533,628.52 246.12,628.52 
  "/>
<polyline clip-path="url(#clip320)" style="stroke:#000000; stroke-width:4; stroke-opacity:1; fill:none" points="
  220.533,375.895 246.12,375.895 
  "/>
<path clip-path="url(#clip320)" d="M 0 0 M172.589 1372.19 Q168.978 1372.19 167.149 1375.76 Q165.344 1379.3 165.344 1386.43 Q165.344 1393.54 167.149 1397.1 Q168.978 1400.64 172.589 1400.64 Q176.223 1400.64 178.029 1397.1 Q179.857 1393.54 179.857 1386.43 Q179.857 1379.3 178.029 1375.76 Q176.223 1372.19 172.589 1372.19 M172.589 1368.49 Q178.399 1368.49 181.455 1373.1 Q184.533 1377.68 184.533 1386.43 Q184.533 1395.16 181.455 1399.76 Q178.399 1404.35 172.589 1404.35 Q166.779 1404.35 163.7 1399.76 Q160.645 1395.16 160.645 1386.43 Q160.645 1377.68 163.7 1373.1 Q166.779 1368.49 172.589 1368.49 Z" fill="#000000" fill-rule="evenodd" fill-opacity="1" /><path clip-path="url(#clip320)" d="M 0 0 M133.237 1147.12 L140.876 1147.12 L140.876 1120.75 L132.566 1122.42 L132.566 1118.16 L140.83 1116.49 L145.506 1116.49 L145.506 1147.12 L153.145 1147.12 L153.145 1151.05 L133.237 1151.05 L133.237 1147.12 Z" fill="#000000" fill-rule="evenodd" fill-opacity="1" /><path clip-path="url(#clip320)" d="M 0 0 M172.589 1119.57 Q168.978 1119.57 167.149 1123.13 Q165.344 1126.68 165.344 1133.81 Q165.344 1140.91 167.149 1144.48 Q168.978 1148.02 172.589 1148.02 Q176.223 1148.02 178.029 1144.48 Q179.857 1140.91 179.857 1133.81 Q179.857 1126.68 178.029 1123.13 Q176.223 1119.57 172.589 1119.57 M172.589 1115.87 Q178.399 1115.87 181.455 1120.47 Q184.533 1125.06 184.533 1133.81 Q184.533 1142.53 181.455 1147.14 Q178.399 1151.72 172.589 1151.72 Q166.779 1151.72 163.7 1147.14 Q160.645 1142.53 160.645 1133.81 Q160.645 1125.06 163.7 1120.47 Q166.779 1115.87 172.589 1115.87 Z" fill="#000000" fill-rule="evenodd" fill-opacity="1" /><path clip-path="url(#clip320)" d="M 0 0 M136.455 894.49 L152.774 894.49 L152.774 898.425 L130.83 898.425 L130.83 894.49 Q133.492 891.736 138.075 887.106 Q142.682 882.453 143.862 881.111 Q146.108 878.588 146.987 876.851 Q147.89 875.092 147.89 873.402 Q147.89 870.648 145.946 868.912 Q144.024 867.176 140.922 867.176 Q138.723 867.176 136.27 867.939 Q133.839 868.703 131.061 870.254 L131.061 865.532 Q133.885 864.398 136.339 863.819 Q138.793 863.24 140.83 863.24 Q146.2 863.24 149.395 865.926 Q152.589 868.611 152.589 873.101 Q152.589 875.231 151.779 877.152 Q150.992 879.051 148.885 881.643 Q148.307 882.314 145.205 885.532 Q142.103 888.726 136.455 894.49 Z" fill="#000000" fill-rule="evenodd" fill-opacity="1" /><path clip-path="url(#clip320)" d="M 0 0 M172.589 866.944 Q168.978 866.944 167.149 870.509 Q165.344 874.051 165.344 881.18 Q165.344 888.287 167.149 891.851 Q168.978 895.393 172.589 895.393 Q176.223 895.393 178.029 891.851 Q179.857 888.287 179.857 881.18 Q179.857 874.051 178.029 870.509 Q176.223 866.944 172.589 866.944 M172.589 863.24 Q178.399 863.24 181.455 867.847 Q184.533 872.43 184.533 881.18 Q184.533 889.907 181.455 894.513 Q178.399 899.097 172.589 899.097 Q166.779 899.097 163.7 894.513 Q160.645 889.907 160.645 881.18 Q160.645 872.43 163.7 867.847 Q166.779 863.24 172.589 863.24 Z" fill="#000000" fill-rule="evenodd" fill-opacity="1" /><path clip-path="url(#clip320)" d="M 0 0 M146.594 627.166 Q149.95 627.884 151.825 630.152 Q153.723 632.421 153.723 635.754 Q153.723 640.87 150.205 643.671 Q146.686 646.472 140.205 646.472 Q138.029 646.472 135.714 646.032 Q133.422 645.615 130.969 644.759 L130.969 640.245 Q132.913 641.379 135.228 641.958 Q137.543 642.536 140.066 642.536 Q144.464 642.536 146.756 640.8 Q149.07 639.064 149.07 635.754 Q149.07 632.699 146.918 630.986 Q144.788 629.249 140.969 629.249 L136.941 629.249 L136.941 625.407 L141.154 625.407 Q144.603 625.407 146.432 624.041 Q148.26 622.652 148.26 620.06 Q148.26 617.398 146.362 615.986 Q144.487 614.55 140.969 614.55 Q139.047 614.55 136.848 614.967 Q134.649 615.384 132.01 616.263 L132.01 612.097 Q134.672 611.356 136.987 610.986 Q139.325 610.615 141.385 610.615 Q146.709 610.615 149.811 613.046 Q152.913 615.453 152.913 619.574 Q152.913 622.444 151.27 624.435 Q149.626 626.402 146.594 627.166 Z" fill="#000000" fill-rule="evenodd" fill-opacity="1" /><path clip-path="url(#clip320)" d="M 0 0 M172.589 614.319 Q168.978 614.319 167.149 617.884 Q165.344 621.425 165.344 628.555 Q165.344 635.661 167.149 639.226 Q168.978 642.768 172.589 642.768 Q176.223 642.768 178.029 639.226 Q179.857 635.661 179.857 628.555 Q179.857 621.425 178.029 617.884 Q176.223 614.319 172.589 614.319 M172.589 610.615 Q178.399 610.615 181.455 615.222 Q184.533 619.805 184.533 628.555 Q184.533 637.282 181.455 641.888 Q178.399 646.472 172.589 646.472 Q166.779 646.472 163.7 641.888 Q160.645 637.282 160.645 628.555 Q160.645 619.805 163.7 615.222 Q166.779 610.615 172.589 610.615 Z" fill="#000000" fill-rule="evenodd" fill-opacity="1" /><path clip-path="url(#clip320)" d="M 0 0 M145.274 362.689 L133.469 381.138 L145.274 381.138 L145.274 362.689 M144.047 358.615 L149.927 358.615 L149.927 381.138 L154.857 381.138 L154.857 385.027 L149.927 385.027 L149.927 393.175 L145.274 393.175 L145.274 385.027 L129.672 385.027 L129.672 380.513 L144.047 358.615 Z" fill="#000000" fill-rule="evenodd" fill-opacity="1" /><path clip-path="url(#clip320)" d="M 0 0 M172.589 361.694 Q168.978 361.694 167.149 365.259 Q165.344 368.8 165.344 375.93 Q165.344 383.036 167.149 386.601 Q168.978 390.143 172.589 390.143 Q176.223 390.143 178.029 386.601 Q179.857 383.036 179.857 375.93 Q179.857 368.8 178.029 365.259 Q176.223 361.694 172.589 361.694 M172.589 357.99 Q178.399 357.99 181.455 362.597 Q184.533 367.18 184.533 375.93 Q184.533 384.657 181.455 389.263 Q178.399 393.846 172.589 393.846 Q166.779 393.846 163.7 389.263 Q160.645 384.657 160.645 375.93 Q160.645 367.18 163.7 362.597 Q166.779 357.99 172.589 357.99 Z" fill="#000000" fill-rule="evenodd" fill-opacity="1" /><path clip-path="url(#clip320)" d="M 0 0 M49.6875 837.926 L50.6118 838.49 Q49.1013 841.984 46.6891 846.335 Q49.1013 850.686 50.6118 854.181 L49.6875 854.722 Q46.3735 850.912 43.826 846.335 Q46.396 841.714 49.6875 837.926 Z" fill="#000000" fill-rule="evenodd" fill-opacity="1" /><path clip-path="url(#clip320)" d="M 0 0 M60.7296 835.341 Q60.7618 835.341 61.9212 835.534 L91.1964 842.877 Q92.7423 843.263 94.2881 844.358 Q95.8662 845.421 97.2189 847.128 Q98.6037 848.803 99.4411 851.379 Q100.311 853.924 100.311 856.854 Q100.311 861.524 99.3122 863.585 Q98.3461 865.614 96.2849 865.614 Q94.4814 865.614 93.4508 864.487 Q92.4524 863.36 92.4524 862.072 Q92.4524 860.848 93.1609 860.204 Q93.8695 859.56 94.7712 859.56 Q95.7696 859.56 96.768 860.236 Q97.7986 860.912 98.185 862.265 Q98.8614 860.107 98.8614 856.983 Q98.8614 850.381 91.8727 847.547 Q91.7761 847.482 91.7439 847.482 L83.0161 845.292 L82.9517 845.389 Q83.5958 845.936 84.3365 846.806 Q85.0451 847.643 85.9146 849.447 Q86.7842 851.25 86.7842 853.022 Q86.7842 856.725 83.9501 859.27 Q81.0837 861.782 76.3495 861.782 Q72.9034 861.782 69.4574 860.397 Q65.9792 858.98 63.4349 856.79 Q60.8584 854.568 59.2482 851.734 Q57.6379 848.867 57.6379 846.098 Q57.6379 844.165 58.7973 842.523 Q59.9245 840.88 61.7924 839.978 Q60.2465 839.817 59.6024 838.948 Q58.9583 838.046 58.9583 837.273 Q58.9583 836.404 59.4414 835.888 Q59.8923 835.341 60.7296 835.341 M64.7554 840.751 Q64.5621 840.751 64.0468 840.88 Q63.4993 841.009 62.6298 841.395 Q61.7602 841.75 60.9873 842.297 Q60.2143 842.845 59.6668 843.843 Q59.0871 844.809 59.0871 846.033 Q59.0871 848.03 60.7618 850.027 Q62.4043 852.023 64.9486 853.408 Q67.3962 854.696 72.1305 855.92 Q76.8648 857.112 79.2802 857.112 Q81.6634 857.112 83.4992 856.081 Q85.3349 855.051 85.3349 852.829 Q85.3349 850.252 82.9517 847.482 Q80.4718 844.616 78.3462 844.133 L65.7537 840.945 Q64.9808 840.751 64.7554 840.751 Z" fill="#000000" fill-rule="evenodd" fill-opacity="1" /><path clip-path="url(#clip320)" d="M 0 0 M31.4713 827.305 Q23.671 827.305 17.3812 824.397 Q14.7436 823.157 12.5342 821.421 Q10.3249 819.685 9.35551 818.535 Q8.38611 817.386 8.38611 817.07 Q8.38611 816.619 8.837 816.597 Q9.06244 816.597 9.62604 817.205 Q17.2009 824.645 31.4713 824.622 Q45.7868 824.622 53.0685 817.386 Q53.8576 816.597 54.1056 816.597 Q54.5564 816.597 54.5564 817.07 Q54.5564 817.386 53.6321 818.49 Q52.7078 819.595 50.5887 821.308 Q48.4695 823.022 45.877 824.262 Q39.5872 827.305 31.4713 827.305 Z" fill="#000000" fill-rule="evenodd" fill-opacity="1" /><path clip-path="url(#clip320)" d="M 0 0 M43.0139 809.576 Q42.1797 809.576 41.9317 809.508 Q41.6838 809.418 41.3005 809.057 L31.4262 800.198 Q25.9705 795.351 21.2137 795.351 Q18.1252 795.351 15.9158 796.974 Q13.7065 798.574 13.7065 801.528 Q13.7065 803.557 14.9464 805.27 Q16.1864 806.983 18.3957 807.772 Q18.3506 807.637 18.3506 807.164 Q18.3506 806.014 19.072 805.383 Q19.7934 804.729 20.7628 804.729 Q22.0028 804.729 22.6114 805.541 Q23.1976 806.33 23.1976 807.119 Q23.1976 807.434 23.13 807.863 Q23.0623 808.268 22.4311 808.922 Q21.7773 809.576 20.6276 809.576 Q17.4038 809.576 14.8337 807.141 Q12.2637 804.684 12.2637 800.942 Q12.2637 796.703 14.7886 793.93 Q17.291 791.135 21.2137 791.135 Q22.5889 791.135 23.8514 791.563 Q25.0913 791.969 26.0607 792.533 Q27.0301 793.074 28.5856 794.562 Q30.1412 796.049 31.2458 797.244 Q32.3505 798.439 34.6951 801.122 L39.4519 806.014 L39.4519 797.695 Q39.4519 793.637 39.0912 793.322 Q38.4374 792.871 34.9882 792.307 L34.9882 791.135 L43.0139 792.442 L43.0139 809.576 Z" fill="#000000" fill-rule="evenodd" fill-opacity="1" /><path clip-path="url(#clip320)" d="M 0 0 M54.1056 786.711 Q53.8801 786.711 53.3165 786.125 Q45.7417 778.685 31.4713 778.685 Q17.1558 778.685 9.91911 785.832 Q9.08498 786.711 8.837 786.711 Q8.38611 786.711 8.38611 786.26 Q8.38611 785.945 9.31042 784.84 Q10.2347 783.713 12.3539 782.022 Q14.473 780.309 17.0656 779.046 Q23.3554 776.003 31.4713 776.003 Q39.2715 776.003 45.5613 778.911 Q48.199 780.151 50.4083 781.887 Q52.6176 783.623 53.587 784.772 Q54.5564 785.922 54.5564 786.26 Q54.5564 786.711 54.1056 786.711 Z" fill="#000000" fill-rule="evenodd" fill-opacity="1" /><path clip-path="url(#clip320)" d="M 0 0 M70.2948 761.942 Q59.1515 761.942 50.1661 757.787 Q46.398 756.016 43.2418 753.536 Q40.0857 751.056 38.7008 749.414 Q37.316 747.771 37.316 747.32 Q37.316 746.676 37.9601 746.644 Q38.2821 746.644 39.0873 747.514 Q49.9085 758.142 70.2948 758.109 Q90.7455 758.109 101.148 747.771 Q102.275 746.644 102.629 746.644 Q103.274 746.644 103.274 747.32 Q103.274 747.771 101.953 749.349 Q100.633 750.927 97.6053 753.375 Q94.578 755.823 90.8743 757.594 Q81.8889 761.942 70.2948 761.942 Z" fill="#000000" fill-rule="evenodd" fill-opacity="1" /><path clip-path="url(#clip320)" d="M 0 0 M59.4092 705.568 Q59.699 705.568 60.6974 705.826 Q61.6636 706.051 63.5637 706.792 Q65.4317 707.5 67.5251 708.595 Q69.5862 709.658 72.1949 711.623 Q74.8036 713.587 77.0902 716.035 Q81.4058 720.64 83.7246 725.568 Q86.0434 730.463 86.7842 734.65 L86.7842 735.584 Q86.7842 736.614 85.979 736.614 L83.0161 735.906 L66.8809 731.88 Q61.9534 730.624 61.5348 730.624 Q61.1483 730.624 60.9551 730.785 Q60.7296 730.914 60.5686 731.687 Q60.4076 732.428 60.4076 733.909 Q60.4076 734.521 60.3754 734.811 Q60.3432 735.069 60.1821 735.294 Q59.9889 735.519 59.6024 735.519 Q59.0549 735.519 58.7651 735.294 Q58.443 735.036 58.3786 734.843 Q58.3142 734.65 58.282 734.263 Q58.2498 733.716 58.0887 731.88 Q57.8955 730.044 57.7667 728.466 Q57.6379 726.888 57.6379 726.212 Q57.6379 725.826 57.8311 725.6 Q57.9921 725.375 58.1854 725.375 L58.3464 725.342 L84.5942 731.816 Q83.8212 729.433 82.533 727.082 Q81.2448 724.698 79.1192 722.122 Q76.9614 719.545 74.2883 717.355 Q71.6152 715.165 67.8793 713.233 Q64.1112 711.268 59.7957 710.045 Q58.9261 709.819 58.4108 709.272 Q57.8955 708.692 57.7667 708.273 Q57.6379 707.855 57.6379 707.468 Q57.6379 706.599 58.121 706.083 Q58.5718 705.568 59.4092 705.568 Z" fill="#000000" fill-rule="evenodd" fill-opacity="1" /><path clip-path="url(#clip320)" d="M 0 0 M102.629 704.365 Q102.307 704.365 101.502 703.528 Q90.6811 692.9 70.2948 692.9 Q49.844 692.9 39.506 703.109 Q38.3143 704.365 37.9601 704.365 Q37.316 704.365 37.316 703.721 Q37.316 703.27 38.6364 701.692 Q39.9568 700.082 42.9842 697.666 Q46.0115 695.219 49.7152 693.415 Q58.7007 689.067 70.2948 689.067 Q81.438 689.067 90.4234 693.222 Q94.1915 694.993 97.3477 697.473 Q100.504 699.953 101.889 701.595 Q103.274 703.238 103.274 703.721 Q103.274 704.365 102.629 704.365 Z" fill="#000000" fill-rule="evenodd" fill-opacity="1" /><path clip-path="url(#clip320)" d="M 0 0 M605.161 18.8205 L605.161 41.5461 L615.45 41.5461 Q621.162 41.5461 624.281 38.5889 Q627.4 35.6318 627.4 30.163 Q627.4 24.7348 624.281 21.7777 Q621.162 18.8205 615.45 18.8205 L605.161 18.8205 M596.978 12.096 L615.45 12.096 Q625.618 12.096 630.803 16.714 Q636.029 21.2916 636.029 30.163 Q636.029 39.1155 630.803 43.6931 Q625.618 48.2706 615.45 48.2706 L605.161 48.2706 L605.161 72.576 L596.978 72.576 L596.978 12.096 Z" fill="#000000" fill-rule="evenodd" fill-opacity="1" /><path clip-path="url(#clip320)" d="M 0 0 M684.397 45.1919 L684.397 72.576 L676.943 72.576 L676.943 45.4349 Q676.943 38.994 674.431 35.7938 Q671.92 32.5936 666.897 32.5936 Q660.861 32.5936 657.377 36.4419 Q653.893 40.2903 653.893 46.9338 L653.893 72.576 L646.399 72.576 L646.399 9.54393 L653.893 9.54393 L653.893 34.2544 Q656.567 30.163 660.172 28.1376 Q663.818 26.1121 668.558 26.1121 Q676.376 26.1121 680.386 30.9732 Q684.397 35.7938 684.397 45.1919 Z" fill="#000000" fill-rule="evenodd" fill-opacity="1" /><path clip-path="url(#clip320)" d="M 0 0 M716.844 32.4315 Q710.849 32.4315 707.365 37.1306 Q703.882 41.7891 703.882 49.9314 Q703.882 58.0738 707.325 62.7728 Q710.809 67.4314 716.844 67.4314 Q722.799 67.4314 726.283 62.7323 Q729.767 58.0333 729.767 49.9314 Q729.767 41.8701 726.283 37.1711 Q722.799 32.4315 716.844 32.4315 M716.844 26.1121 Q726.567 26.1121 732.116 32.4315 Q737.666 38.7509 737.666 49.9314 Q737.666 61.0714 732.116 67.4314 Q726.567 73.7508 716.844 73.7508 Q707.082 73.7508 701.532 67.4314 Q696.023 61.0714 696.023 49.9314 Q696.023 38.7509 701.532 32.4315 Q707.082 26.1121 716.844 26.1121 Z" fill="#000000" fill-rule="evenodd" fill-opacity="1" /><path clip-path="url(#clip320)" d="M 0 0 M757.394 14.324 L757.394 27.2059 L772.747 27.2059 L772.747 32.9987 L757.394 32.9987 L757.394 57.6282 Q757.394 63.1779 758.893 64.7578 Q760.432 66.3376 765.091 66.3376 L772.747 66.3376 L772.747 72.576 L765.091 72.576 Q756.462 72.576 753.181 69.3758 Q749.9 66.1351 749.9 57.6282 L749.9 32.9987 L744.431 32.9987 L744.431 27.2059 L749.9 27.2059 L749.9 14.324 L757.394 14.324 Z" fill="#000000" fill-rule="evenodd" fill-opacity="1" /><path clip-path="url(#clip320)" d="M 0 0 M800.131 32.4315 Q794.136 32.4315 790.652 37.1306 Q787.168 41.7891 787.168 49.9314 Q787.168 58.0738 790.611 62.7728 Q794.095 67.4314 800.131 67.4314 Q806.086 67.4314 809.57 62.7323 Q813.053 58.0333 813.053 49.9314 Q813.053 41.8701 809.57 37.1711 Q806.086 32.4315 800.131 32.4315 M800.131 26.1121 Q809.853 26.1121 815.403 32.4315 Q820.953 38.7509 820.953 49.9314 Q820.953 61.0714 815.403 67.4314 Q809.853 73.7508 800.131 73.7508 Q790.368 73.7508 784.819 67.4314 Q779.309 61.0714 779.309 49.9314 Q779.309 38.7509 784.819 32.4315 Q790.368 26.1121 800.131 26.1121 Z" fill="#000000" fill-rule="evenodd" fill-opacity="1" /><path clip-path="url(#clip320)" d="M 0 0 M871.022 45.1919 L871.022 72.576 L863.568 72.576 L863.568 45.4349 Q863.568 38.994 861.057 35.7938 Q858.545 32.5936 853.522 32.5936 Q847.486 32.5936 844.002 36.4419 Q840.519 40.2903 840.519 46.9338 L840.519 72.576 L833.024 72.576 L833.024 27.2059 L840.519 27.2059 L840.519 34.2544 Q843.192 30.163 846.797 28.1376 Q850.443 26.1121 855.183 26.1121 Q863.001 26.1121 867.011 30.9732 Q871.022 35.7938 871.022 45.1919 Z" fill="#000000" fill-rule="evenodd" fill-opacity="1" /><path clip-path="url(#clip320)" d="M 0 0 M957.873 16.7545 L957.873 25.383 Q953.741 21.5346 949.042 19.6307 Q944.384 17.7268 939.118 17.7268 Q928.747 17.7268 923.238 24.0867 Q917.729 30.4061 917.729 42.3968 Q917.729 54.3469 923.238 60.7069 Q928.747 67.0263 939.118 67.0263 Q944.384 67.0263 949.042 65.1223 Q953.741 63.2184 957.873 59.3701 L957.873 67.9175 Q953.579 70.8341 948.759 72.2924 Q943.979 73.7508 938.631 73.7508 Q924.899 73.7508 917 65.3654 Q909.1 56.9395 909.1 42.3968 Q909.1 27.8135 917 19.4281 Q924.899 11.0023 938.631 11.0023 Q944.06 11.0023 948.84 12.4606 Q953.66 13.8784 957.873 16.7545 Z" fill="#000000" fill-rule="evenodd" fill-opacity="1" /><path clip-path="url(#clip320)" d="M 0 0 M987.769 32.4315 Q981.774 32.4315 978.29 37.1306 Q974.806 41.7891 974.806 49.9314 Q974.806 58.0738 978.249 62.7728 Q981.733 67.4314 987.769 67.4314 Q993.724 67.4314 997.207 62.7323 Q1000.69 58.0333 1000.69 49.9314 Q1000.69 41.8701 997.207 37.1711 Q993.724 32.4315 987.769 32.4315 M987.769 26.1121 Q997.491 26.1121 1003.04 32.4315 Q1008.59 38.7509 1008.59 49.9314 Q1008.59 61.0714 1003.04 67.4314 Q997.491 73.7508 987.769 73.7508 Q978.006 73.7508 972.456 67.4314 Q966.947 61.0714 966.947 49.9314 Q966.947 38.7509 972.456 32.4315 Q978.006 26.1121 987.769 26.1121 Z" fill="#000000" fill-rule="evenodd" fill-opacity="1" /><path clip-path="url(#clip320)" d="M 0 0 M1047.24 34.1734 Q1045.98 33.4443 1044.48 33.1202 Q1043.02 32.7556 1041.24 32.7556 Q1034.92 32.7556 1031.52 36.8875 Q1028.16 40.9789 1028.16 48.6757 L1028.16 72.576 L1020.66 72.576 L1020.66 27.2059 L1028.16 27.2059 L1028.16 34.2544 Q1030.51 30.1225 1034.27 28.1376 Q1038.04 26.1121 1043.43 26.1121 Q1044.2 26.1121 1045.13 26.2337 Q1046.06 26.3147 1047.2 26.5172 L1047.24 34.1734 Z" fill="#000000" fill-rule="evenodd" fill-opacity="1" /><path clip-path="url(#clip320)" d="M 0 0 M1079.89 34.1734 Q1078.63 33.4443 1077.13 33.1202 Q1075.67 32.7556 1073.89 32.7556 Q1067.57 32.7556 1064.17 36.8875 Q1060.81 40.9789 1060.81 48.6757 L1060.81 72.576 L1053.31 72.576 L1053.31 27.2059 L1060.81 27.2059 L1060.81 34.2544 Q1063.16 30.1225 1066.92 28.1376 Q1070.69 26.1121 1076.08 26.1121 Q1076.85 26.1121 1077.78 26.2337 Q1078.71 26.3147 1079.85 26.5172 L1079.89 34.1734 Z" fill="#000000" fill-rule="evenodd" fill-opacity="1" /><path clip-path="url(#clip320)" d="M 0 0 M1124.69 48.0275 L1124.69 51.6733 L1090.42 51.6733 Q1090.9 59.3701 1095.04 63.421 Q1099.21 67.4314 1106.62 67.4314 Q1110.92 67.4314 1114.93 66.3781 Q1118.98 65.3249 1122.95 63.2184 L1122.95 70.267 Q1118.94 71.9684 1114.72 72.8596 Q1110.51 73.7508 1106.18 73.7508 Q1095.32 73.7508 1088.96 67.4314 Q1082.64 61.1119 1082.64 50.3365 Q1082.64 39.1965 1088.64 32.6746 Q1094.67 26.1121 1104.88 26.1121 Q1114.04 26.1121 1119.34 32.0264 Q1124.69 37.9003 1124.69 48.0275 M1117.24 45.84 Q1117.15 39.7232 1113.79 36.0774 Q1110.47 32.4315 1104.96 32.4315 Q1098.72 32.4315 1094.96 35.9558 Q1091.23 39.4801 1090.66 45.8805 L1117.24 45.84 Z" fill="#000000" fill-rule="evenodd" fill-opacity="1" /><path clip-path="url(#clip320)" d="M 0 0 M1136.92 9.54393 L1144.38 9.54393 L1144.38 72.576 L1136.92 72.576 L1136.92 9.54393 Z" fill="#000000" fill-rule="evenodd" fill-opacity="1" /><path clip-path="url(#clip320)" d="M 0 0 M1180.59 49.7694 Q1171.56 49.7694 1168.07 51.8354 Q1164.59 53.9013 1164.59 58.8839 Q1164.59 62.8538 1167.18 65.2034 Q1169.82 67.5124 1174.31 67.5124 Q1180.51 67.5124 1184.24 63.1374 Q1188.01 58.7219 1188.01 51.4303 L1188.01 49.7694 L1180.59 49.7694 M1195.46 46.6907 L1195.46 72.576 L1188.01 72.576 L1188.01 65.6895 Q1185.45 69.8214 1181.65 71.8063 Q1177.84 73.7508 1172.33 73.7508 Q1165.36 73.7508 1161.23 69.8619 Q1157.14 65.9325 1157.14 59.3701 Q1157.14 51.7138 1162.24 47.825 Q1167.39 43.9361 1177.55 43.9361 L1188.01 43.9361 L1188.01 43.2069 Q1188.01 38.0623 1184.6 35.2672 Q1181.24 32.4315 1175.12 32.4315 Q1171.23 32.4315 1167.55 33.3632 Q1163.86 34.295 1160.46 36.1584 L1160.46 29.2718 Q1164.55 27.692 1168.4 26.9223 Q1172.25 26.1121 1175.89 26.1121 Q1185.74 26.1121 1190.6 31.2163 Q1195.46 36.3204 1195.46 46.6907 Z" fill="#000000" fill-rule="evenodd" fill-opacity="1" /><path clip-path="url(#clip320)" d="M 0 0 M1218.18 14.324 L1218.18 27.2059 L1233.54 27.2059 L1233.54 32.9987 L1218.18 32.9987 L1218.18 57.6282 Q1218.18 63.1779 1219.68 64.7578 Q1221.22 66.3376 1225.88 66.3376 L1233.54 66.3376 L1233.54 72.576 L1225.88 72.576 Q1217.25 72.576 1213.97 69.3758 Q1210.69 66.1351 1210.69 57.6282 L1210.69 32.9987 L1205.22 32.9987 L1205.22 27.2059 L1210.69 27.2059 L1210.69 14.324 L1218.18 14.324 Z" fill="#000000" fill-rule="evenodd" fill-opacity="1" /><path clip-path="url(#clip320)" d="M 0 0 M1243.34 27.2059 L1250.79 27.2059 L1250.79 72.576 L1243.34 72.576 L1243.34 27.2059 M1243.34 9.54393 L1250.79 9.54393 L1250.79 18.9825 L1243.34 18.9825 L1243.34 9.54393 Z" fill="#000000" fill-rule="evenodd" fill-opacity="1" /><path clip-path="url(#clip320)" d="M 0 0 M1283.97 32.4315 Q1277.98 32.4315 1274.49 37.1306 Q1271.01 41.7891 1271.01 49.9314 Q1271.01 58.0738 1274.45 62.7728 Q1277.94 67.4314 1283.97 67.4314 Q1289.93 67.4314 1293.41 62.7323 Q1296.89 58.0333 1296.89 49.9314 Q1296.89 41.8701 1293.41 37.1711 Q1289.93 32.4315 1283.97 32.4315 M1283.97 26.1121 Q1293.69 26.1121 1299.24 32.4315 Q1304.79 38.7509 1304.79 49.9314 Q1304.79 61.0714 1299.24 67.4314 Q1293.69 73.7508 1283.97 73.7508 Q1274.21 73.7508 1268.66 67.4314 Q1263.15 61.0714 1263.15 49.9314 Q1263.15 38.7509 1268.66 32.4315 Q1274.21 26.1121 1283.97 26.1121 Z" fill="#000000" fill-rule="evenodd" fill-opacity="1" /><path clip-path="url(#clip320)" d="M 0 0 M1354.86 45.1919 L1354.86 72.576 L1347.41 72.576 L1347.41 45.4349 Q1347.41 38.994 1344.9 35.7938 Q1342.39 32.5936 1337.36 32.5936 Q1331.33 32.5936 1327.84 36.4419 Q1324.36 40.2903 1324.36 46.9338 L1324.36 72.576 L1316.86 72.576 L1316.86 27.2059 L1324.36 27.2059 L1324.36 34.2544 Q1327.03 30.163 1330.64 28.1376 Q1334.28 26.1121 1339.02 26.1121 Q1346.84 26.1121 1350.85 30.9732 Q1354.86 35.7938 1354.86 45.1919 Z" fill="#000000" fill-rule="evenodd" fill-opacity="1" /><path clip-path="url(#clip320)" d="M 0 0 M1398.65 28.5427 L1398.65 35.5912 Q1395.49 33.9709 1392.09 33.1607 Q1388.69 32.3505 1385.04 32.3505 Q1379.49 32.3505 1376.7 34.0519 Q1373.94 35.7533 1373.94 39.156 Q1373.94 41.7486 1375.93 43.2475 Q1377.91 44.7058 1383.91 46.0426 L1386.46 46.6097 Q1394.4 48.3111 1397.72 51.4303 Q1401.08 54.509 1401.08 60.0587 Q1401.08 66.3781 1396.06 70.0644 Q1391.08 73.7508 1382.33 73.7508 Q1378.68 73.7508 1374.71 73.0216 Q1370.78 72.3329 1366.41 70.9151 L1366.41 63.2184 Q1370.54 65.3654 1374.55 66.4591 Q1378.56 67.5124 1382.49 67.5124 Q1387.76 67.5124 1390.59 65.73 Q1393.43 63.9071 1393.43 60.6258 Q1393.43 57.5877 1391.36 55.9673 Q1389.34 54.3469 1382.41 52.8481 L1379.82 52.2405 Q1372.89 50.7821 1369.81 47.7845 Q1366.73 44.7463 1366.73 39.4801 Q1366.73 33.0797 1371.27 29.5959 Q1375.8 26.1121 1384.15 26.1121 Q1388.28 26.1121 1391.93 26.7198 Q1395.57 27.3274 1398.65 28.5427 Z" fill="#000000" fill-rule="evenodd" fill-opacity="1" /><path clip-path="url(#clip320)" d="M 0 0 M1433.98 27.2059 L1441.88 27.2059 L1456.05 65.2844 L1470.23 27.2059 L1478.13 27.2059 L1461.12 72.576 L1450.99 72.576 L1433.98 27.2059 Z" fill="#000000" fill-rule="evenodd" fill-opacity="1" /><path clip-path="url(#clip320)" d="M 0 0 M1517.34 28.5427 L1517.34 35.5912 Q1514.18 33.9709 1510.78 33.1607 Q1507.38 32.3505 1503.73 32.3505 Q1498.18 32.3505 1495.39 34.0519 Q1492.63 35.7533 1492.63 39.156 Q1492.63 41.7486 1494.62 43.2475 Q1496.6 44.7058 1502.6 46.0426 L1505.15 46.6097 Q1513.09 48.3111 1516.41 51.4303 Q1519.77 54.509 1519.77 60.0587 Q1519.77 66.3781 1514.75 70.0644 Q1509.77 73.7508 1501.02 73.7508 Q1497.37 73.7508 1493.4 73.0216 Q1489.47 72.3329 1485.1 70.9151 L1485.1 63.2184 Q1489.23 65.3654 1493.24 66.4591 Q1497.25 67.5124 1501.18 67.5124 Q1506.45 67.5124 1509.28 65.73 Q1512.12 63.9071 1512.12 60.6258 Q1512.12 57.5877 1510.05 55.9673 Q1508.03 54.3469 1501.1 52.8481 L1498.51 52.2405 Q1491.58 50.7821 1488.5 47.7845 Q1485.42 44.7463 1485.42 39.4801 Q1485.42 33.0797 1489.96 29.5959 Q1494.5 26.1121 1502.84 26.1121 Q1506.97 26.1121 1510.62 26.7198 Q1514.26 27.3274 1517.34 28.5427 Z" fill="#000000" fill-rule="evenodd" fill-opacity="1" /><path clip-path="url(#clip320)" d="M 0 0 M1558.34 12.096 L1593.1 12.096 L1593.1 18.9825 L1566.52 18.9825 L1566.52 36.8065 L1590.5 36.8065 L1590.5 43.6931 L1566.52 43.6931 L1566.52 72.576 L1558.34 72.576 L1558.34 12.096 Z" fill="#000000" fill-rule="evenodd" fill-opacity="1" /><path clip-path="url(#clip320)" d="M 0 0 M1625.99 34.1734 Q1624.73 33.4443 1623.23 33.1202 Q1621.78 32.7556 1619.99 32.7556 Q1613.67 32.7556 1610.27 36.8875 Q1606.91 40.9789 1606.91 48.6757 L1606.91 72.576 L1599.41 72.576 L1599.41 27.2059 L1606.91 27.2059 L1606.91 34.2544 Q1609.26 30.1225 1613.03 28.1376 Q1616.79 26.1121 1622.18 26.1121 Q1622.95 26.1121 1623.88 26.2337 Q1624.81 26.3147 1625.95 26.5172 L1625.99 34.1734 Z" fill="#000000" fill-rule="evenodd" fill-opacity="1" /><path clip-path="url(#clip320)" d="M 0 0 M1670.79 48.0275 L1670.79 51.6733 L1636.52 51.6733 Q1637.01 59.3701 1641.14 63.421 Q1645.31 67.4314 1652.72 67.4314 Q1657.02 67.4314 1661.03 66.3781 Q1665.08 65.3249 1669.05 63.2184 L1669.05 70.267 Q1665.04 71.9684 1660.83 72.8596 Q1656.61 73.7508 1652.28 73.7508 Q1641.42 73.7508 1635.06 67.4314 Q1628.74 61.1119 1628.74 50.3365 Q1628.74 39.1965 1634.74 32.6746 Q1640.77 26.1121 1650.98 26.1121 Q1660.14 26.1121 1665.44 32.0264 Q1670.79 37.9003 1670.79 48.0275 M1663.34 45.84 Q1663.26 39.7232 1659.89 36.0774 Q1656.57 32.4315 1651.06 32.4315 Q1644.83 32.4315 1641.06 35.9558 Q1637.33 39.4801 1636.76 45.8805 L1663.34 45.84 Z" fill="#000000" fill-rule="evenodd" fill-opacity="1" /><path clip-path="url(#clip320)" d="M 0 0 M1687.48 49.9314 Q1687.48 58.1548 1690.84 62.8538 Q1694.25 67.5124 1700.16 67.5124 Q1706.08 67.5124 1709.48 62.8538 Q1712.88 58.1548 1712.88 49.9314 Q1712.88 41.7081 1709.48 37.0496 Q1706.08 32.3505 1700.16 32.3505 Q1694.25 32.3505 1690.84 37.0496 Q1687.48 41.7081 1687.48 49.9314 M1712.88 65.7705 Q1710.53 69.8214 1706.93 71.8063 Q1703.36 73.7508 1698.34 73.7508 Q1690.11 73.7508 1684.93 67.1883 Q1679.78 60.6258 1679.78 49.9314 Q1679.78 39.2371 1684.93 32.6746 Q1690.11 26.1121 1698.34 26.1121 Q1703.36 26.1121 1706.93 28.0971 Q1710.53 30.0415 1712.88 34.0924 L1712.88 27.2059 L1720.33 27.2059 L1720.33 89.8329 L1712.88 89.8329 L1712.88 65.7705 Z" fill="#000000" fill-rule="evenodd" fill-opacity="1" /><path clip-path="url(#clip320)" d="M 0 0 M1734.92 54.671 L1734.92 27.2059 L1742.37 27.2059 L1742.37 54.3874 Q1742.37 60.8284 1744.88 64.0691 Q1747.39 67.2693 1752.42 67.2693 Q1758.45 67.2693 1761.94 63.421 Q1765.46 59.5726 1765.46 52.9291 L1765.46 27.2059 L1772.92 27.2059 L1772.92 72.576 L1765.46 72.576 L1765.46 65.6084 Q1762.75 69.7404 1759.14 71.7658 Q1755.58 73.7508 1750.84 73.7508 Q1743.02 73.7508 1738.97 68.8897 Q1734.92 64.0286 1734.92 54.671 M1753.67 26.1121 L1753.67 26.1121 Z" fill="#000000" fill-rule="evenodd" fill-opacity="1" /><path clip-path="url(#clip320)" d="M 0 0 M1827.08 48.0275 L1827.08 51.6733 L1792.81 51.6733 Q1793.29 59.3701 1797.42 63.421 Q1801.6 67.4314 1809.01 67.4314 Q1813.3 67.4314 1817.31 66.3781 Q1821.36 65.3249 1825.33 63.2184 L1825.33 70.267 Q1821.32 71.9684 1817.11 72.8596 Q1812.9 73.7508 1808.56 73.7508 Q1797.71 73.7508 1791.35 67.4314 Q1785.03 61.1119 1785.03 50.3365 Q1785.03 39.1965 1791.02 32.6746 Q1797.06 26.1121 1807.27 26.1121 Q1816.42 26.1121 1821.73 32.0264 Q1827.08 37.9003 1827.08 48.0275 M1819.62 45.84 Q1819.54 39.7232 1816.18 36.0774 Q1812.86 32.4315 1807.35 32.4315 Q1801.11 32.4315 1797.34 35.9558 Q1793.62 39.4801 1793.05 45.8805 L1819.62 45.84 Z" fill="#000000" fill-rule="evenodd" fill-opacity="1" /><path clip-path="url(#clip320)" d="M 0 0 M1877.02 45.1919 L1877.02 72.576 L1869.57 72.576 L1869.57 45.4349 Q1869.57 38.994 1867.06 35.7938 Q1864.55 32.5936 1859.52 32.5936 Q1853.49 32.5936 1850 36.4419 Q1846.52 40.2903 1846.52 46.9338 L1846.52 72.576 L1839.03 72.576 L1839.03 27.2059 L1846.52 27.2059 L1846.52 34.2544 Q1849.19 30.163 1852.8 28.1376 Q1856.44 26.1121 1861.18 26.1121 Q1869 26.1121 1873.01 30.9732 Q1877.02 35.7938 1877.02 45.1919 Z" fill="#000000" fill-rule="evenodd" fill-opacity="1" /><path clip-path="url(#clip320)" d="M 0 0 M1924.54 28.9478 L1924.54 35.9153 Q1921.38 34.1734 1918.18 33.3227 Q1915.02 32.4315 1911.78 32.4315 Q1904.53 32.4315 1900.52 37.0496 Q1896.51 41.6271 1896.51 49.9314 Q1896.51 58.2358 1900.52 62.8538 Q1904.53 67.4314 1911.78 67.4314 Q1915.02 67.4314 1918.18 66.5807 Q1921.38 65.6895 1924.54 63.9476 L1924.54 70.8341 Q1921.42 72.2924 1918.06 73.0216 Q1914.74 73.7508 1910.97 73.7508 Q1900.72 73.7508 1894.69 67.3098 Q1888.65 60.8689 1888.65 49.9314 Q1888.65 38.832 1894.73 32.472 Q1900.84 26.1121 1911.46 26.1121 Q1914.9 26.1121 1918.18 26.8413 Q1921.46 27.5299 1924.54 28.9478 Z" fill="#000000" fill-rule="evenodd" fill-opacity="1" /><path clip-path="url(#clip320)" d="M 0 0 M1956.38 76.7889 Q1953.22 84.8907 1950.22 87.3618 Q1947.23 89.8329 1942.2 89.8329 L1936.25 89.8329 L1936.25 83.5945 L1940.62 83.5945 Q1943.7 83.5945 1945.4 82.1361 Q1947.1 80.6778 1949.17 75.2496 L1950.51 71.8468 L1932.16 27.2059 L1940.06 27.2059 L1954.23 62.6918 L1968.41 27.2059 L1976.31 27.2059 L1956.38 76.7889 Z" fill="#000000" fill-rule="evenodd" fill-opacity="1" /><polyline clip-path="url(#clip323)" style="stroke:#009af9; stroke-width:4; stroke-opacity:1; fill:none" points="
  280.879,1386.4 284.951,883.787 289.023,1339.72 293.095,914.095 297.167,1131.87 301.239,1105.57 305.311,935.11 309.383,929.533 313.455,1060.77 317.527,858.008 
  321.598,747.448 325.67,1104.41 329.742,949.79 333.814,1169.2 337.886,787.053 341.958,1264.75 346.03,1201.13 350.102,1207.86 354.174,1060.65 358.246,1167.71 
  362.318,511.283 366.39,1136.83 370.462,1265.72 374.533,664.99 378.605,1112.76 382.677,1111.89 386.749,1060.46 390.821,1145.69 394.893,1313.65 398.965,1070.07 
  403.037,817.345 407.109,850.081 411.181,1020.14 415.253,1102.25 419.325,970.796 423.397,1214.74 427.468,992.797 431.54,803.714 435.612,1174.22 439.684,771.064 
  443.756,925.897 447.828,1088.51 451.9,1168.91 455.972,1195.34 460.044,1103.9 464.116,904.248 468.188,1133.22 472.26,1181.07 476.332,1052.75 480.403,966.939 
  484.475,1080.61 488.547,1323.47 492.619,935.525 496.691,1004.08 500.763,829.162 504.835,1170.69 508.907,843.547 512.979,1021.93 517.051,1233.65 521.123,982.888 
  525.195,1363.46 529.267,1008.23 533.339,1182.52 537.41,1049.29 541.482,1339.68 545.554,931.876 549.626,940.913 553.698,1299.36 557.77,1255.45 561.842,1112.23 
  565.914,1168.5 569.986,1086.53 574.058,1158.49 578.13,919.313 582.202,962.124 586.274,1305.25 590.345,1088.79 594.417,1228.96 598.489,1204.97 602.561,1203.66 
  606.633,1289.66 610.705,1217 614.777,1218.68 618.849,557.896 622.921,874.066 626.993,1263.42 631.065,1175.41 635.137,1216.84 639.209,1258.56 643.28,1124.85 
  647.352,1047.18 651.424,1186.37 655.496,962.295 659.568,1274.82 663.64,1331.88 667.712,1250.63 671.784,1266.9 675.856,1196.96 679.928,1344.29 684,1133.4 
  688.072,861.948 692.144,1215.02 696.216,1176.96 700.287,1211.74 704.359,1152.82 708.431,1271.4 712.503,931.019 716.575,1066.72 720.647,973.088 724.719,1001.42 
  728.791,1306.77 732.863,974.943 736.935,860.589 741.007,1193.04 745.079,1263.29 749.151,1149.11 753.222,1245 757.294,1235.99 761.366,1277.57 765.438,1324.38 
  769.51,1263.15 773.582,1282.66 777.654,708.816 781.726,1069.03 785.798,438.959 789.87,566.824 793.942,1250.37 798.014,1318.82 802.086,1115.3 806.157,1195.82 
  810.229,811.271 814.301,917.621 818.373,1011.56 822.445,1240.96 826.517,1265.43 830.589,1195 834.661,894.904 838.733,1211.75 842.805,1090.32 846.877,1056.42 
  850.949,1175.72 855.021,1316.39 859.092,1280.53 863.164,769.021 867.236,1089.61 871.308,1024.02 875.38,786.296 879.452,1142.37 883.524,1228.84 887.596,1104.99 
  891.668,962.717 895.74,1267.41 899.812,814.461 903.884,849.205 907.956,1024.72 912.028,870.476 916.099,1230.83 920.171,1162.44 924.243,1007.62 928.315,1033.56 
  932.387,885.711 936.459,1189.03 940.531,1178.6 944.603,1301.82 948.675,1157.43 952.747,1216.89 956.819,1288.25 960.891,702.106 964.963,841.31 969.034,1215.94 
  973.106,1005.89 977.178,1339.59 981.25,1160.21 985.322,1173.11 989.394,1274.64 993.466,1184.82 997.538,1113.67 1001.61,879.4 1005.68,781.491 1009.75,664.242 
  1013.83,160.256 1017.9,625.206 1021.97,1055.17 1026.04,779.314 1030.11,1048.22 1034.19,1116.47 1038.26,1212.39 1042.33,1049.34 1046.4,1105.51 1050.47,1168.24 
  1054.54,1342.25 1058.62,1005.23 1062.69,1109.41 1066.76,1282 1070.83,1024.54 1074.9,1241.09 1078.98,819.276 1083.05,1329.22 1087.12,1178.37 1091.19,1294.49 
  1095.26,1205.34 1099.34,921.804 1103.41,1179.25 1107.48,795.747 1111.55,1173.3 1115.62,925.962 1119.7,694.051 1123.77,1284.94 1127.84,753.155 1131.91,1050.05 
  1135.98,765.821 1140.06,1077.93 1144.13,1230.09 1148.2,934.19 1152.27,1307.12 1156.34,1061.05 1160.41,1339.38 1164.49,1336.39 1168.56,1331.63 1172.63,1107.07 
  1176.7,977.472 1180.77,1104.57 1184.85,843.417 1188.92,1151.58 1192.99,1241.99 1197.06,1131.2 1201.13,1037.56 1205.21,1177.46 1209.28,1181.75 1213.35,1258.51 
  1217.42,1311.49 1221.49,949.654 1225.57,1227.79 1229.64,1372.38 1233.71,1278.55 1237.78,1134.49 1241.85,1032.9 1245.93,890.016 1250,1158.47 1254.07,1123.86 
  1258.14,1072.93 1262.21,1315.15 1266.28,1175.33 1270.36,1290.18 1274.43,1142.89 1278.5,1202.78 1282.57,1122.31 1286.64,1295.56 1290.72,632.545 1294.79,1196.25 
  1298.86,880.94 1302.93,1346.5 1307,1096.01 1311.08,1141.34 1315.15,1318.8 1319.22,1145.12 1323.29,1222.24 1327.36,1048.38 1331.44,1182.96 1335.51,1050.11 
  1339.58,1109.7 1343.65,1022.62 1347.72,1216.36 1351.8,1092.84 1355.87,1188.47 1359.94,1196.95 1364.01,1141.65 1368.08,1288.59 1372.16,777.472 1376.23,1192.41 
  1380.3,1143.07 1384.37,1266.17 1388.44,755.041 1392.51,1073.86 1396.59,1266.04 1400.66,939.969 1404.73,1342.43 1408.8,1247.91 1412.87,1248.7 1416.95,1114.08 
  1421.02,888.67 1425.09,1090 1429.16,1025.03 1433.23,1151.55 1437.31,959.23 1441.38,1179.38 1445.45,961.187 1449.52,1065.53 1453.59,1218.54 1457.67,1123.26 
  1461.74,1312.66 1465.81,1111.21 1469.88,644.576 1473.95,808.44 1478.03,801.748 1482.1,954.347 1486.17,816.977 1490.24,1179.66 1494.31,1018.34 1498.38,1274.15 
  1502.46,1159.25 1506.53,1115.13 1510.6,1189.53 1514.67,1052.29 1518.74,1073.23 1522.82,1267.45 1526.89,1318.52 1530.96,1209.53 1535.03,1106.25 1539.1,1173.76 
  1543.18,1123.58 1547.25,1313.28 1551.32,1006.02 1555.39,1168.49 1559.46,1225.24 1563.54,1177.58 1567.61,1217.15 1571.68,782.426 1575.75,620.095 1579.82,718.938 
  1583.9,1047.66 1587.97,1326.96 1592.04,1143.71 1596.11,1039.46 1600.18,1327.16 1604.25,1303.28 1608.33,1237.39 1612.4,1152.13 1616.47,1282.12 1620.54,1093.38 
  1624.61,959.274 1628.69,1227.81 1632.76,1226.04 1636.83,1190.75 1640.9,888.683 1644.97,791.293 1649.05,1203.25 1653.12,931.783 1657.19,776.569 1661.26,661.172 
  1665.33,1174.27 1669.41,916.055 1673.48,1313.69 1677.55,1143 1681.62,1129.17 1685.69,1230.19 1689.77,1223.61 1693.84,1061.86 1697.91,1227.81 1701.98,1161.35 
  1706.05,1281.82 1710.12,1269.68 1714.2,1305.04 1718.27,1094.62 1722.34,901.587 1726.41,1159.07 1730.48,1133.72 1734.56,1032.94 1738.63,1193.09 1742.7,1282.01 
  1746.77,1193.59 1750.84,1158.65 1754.92,1319.81 1758.99,1061.22 1763.06,1083.11 1767.13,1094.83 1771.2,588.936 1775.28,1015.3 1779.35,866.808 1783.42,1201.88 
  1787.49,1154.05 1791.56,1090.56 1795.64,1202.51 1799.71,1063.9 1803.78,988.297 1807.85,992.986 1811.92,1165.28 1815.99,1290.49 1820.07,1031.25 1824.14,998.657 
  1828.21,1109.22 1832.28,1273.9 1836.35,1178.52 1840.43,1230.6 1844.5,1028.97 1848.57,1132.66 1852.64,1252.44 1856.71,1247.14 1860.79,1311.11 1864.86,1214.48 
  1868.93,1363.76 1873,1207 1877.07,1024.48 1881.15,1078.75 1885.22,966.777 1889.29,1067.17 1893.36,1227.62 1897.43,1273.52 1901.51,1169.6 1905.58,828.661 
  1909.65,861.076 1913.72,1064.42 1917.79,988.883 1921.86,800.853 1925.94,1129.46 1930.01,1026.91 1934.08,1142.61 1938.15,1162.68 1942.22,1229.25 1946.3,1154.36 
  1950.37,1276.81 1954.44,1287.25 1958.51,1202.46 1962.58,1169.66 1966.66,1141.89 1970.73,1214.68 1974.8,1358.83 1978.87,1235.83 1982.94,1188.43 1987.02,1333.8 
  1991.09,1294.81 1995.16,1299.79 1999.23,1364.43 2003.3,1309.02 2007.38,1243.72 2011.45,1378.01 2015.52,1257.82 2019.59,1295.22 2023.66,1132.56 2027.73,1287.52 
  2031.81,1179.51 2035.88,1154.8 2039.95,1351.98 2044.02,1344.38 2048.09,1351.69 2052.17,1234.2 2056.24,1281.73 2060.31,1127.2 2064.38,1196.23 2068.45,1208.44 
  2072.53,1258.36 2076.6,1154.64 2080.67,1144.8 2084.74,1227.93 2088.81,1305.5 2092.89,1316.35 2096.96,1140.83 2101.03,936.356 2105.1,961.613 2109.17,909.47 
  2113.25,1087.01 2117.32,1143.71 2121.39,1073.45 2125.46,1072.72 2129.53,1204.23 2133.6,1072.75 2137.68,1056.08 2141.75,1246.83 2145.82,463.614 2149.89,824.394 
  2153.96,1135.48 2158.04,841.136 2162.11,827.398 2166.18,782.128 2170.25,879.755 2174.32,969.017 2178.4,1166.19 2182.47,1066.31 2186.54,807.089 2190.61,271.736 
  2194.68,974.566 2198.76,1243.4 2202.83,1070.9 2206.9,1051.71 2210.97,1187.91 2215.04,1194.53 2219.12,1234.41 2223.19,1168.2 2227.26,1208.15 2231.33,937.187 
  2235.4,1131.52 2239.47,1190.07 2243.55,1246.4 2247.62,1316.12 2251.69,1070.59 2255.76,773.508 2259.83,1156.85 2263.91,743.192 2267.98,711.176 2272.05,1068.48 
  2276.12,1115.7 2280.19,1170.15 2284.27,1104.2 2288.34,1328.85 2292.41,1148.69 
  "/>
<polyline clip-path="url(#clip323)" style="stroke:#e26f46; stroke-width:4; stroke-opacity:1; fill:none" stroke-dasharray="16, 10" points="
  441.965,2722.89 441.965,-1176.24 
  "/>
<polyline clip-path="url(#clip323)" style="stroke:#e26f46; stroke-width:4; stroke-opacity:1; fill:none" stroke-dasharray="16, 10" points="
  321.151,2722.89 321.151,-1176.24 
  "/>
<polyline clip-path="url(#clip323)" style="stroke:#e26f46; stroke-width:4; stroke-opacity:1; fill:none" stroke-dasharray="16, 10" points="
  683.593,2722.89 683.593,-1176.24 
  "/>
<polyline clip-path="url(#clip323)" style="stroke:#e26f46; stroke-width:4; stroke-opacity:1; fill:none" stroke-dasharray="16, 10" points="
  401.693,2722.89 401.693,-1176.24 
  "/>
<polyline clip-path="url(#clip323)" style="stroke:#e26f46; stroke-width:4; stroke-opacity:1; fill:none" stroke-dasharray="16, 10" points="
  522.507,2722.89 522.507,-1176.24 
  "/>
<polyline clip-path="url(#clip323)" style="stroke:#e26f46; stroke-width:4; stroke-opacity:1; fill:none" stroke-dasharray="16, 10" points="
  643.321,2722.89 643.321,-1176.24 
  "/>
<path clip-path="url(#clip320)" d="
M1668.27 287.756 L2281.68 287.756 L2281.68 166.796 L1668.27 166.796  Z
  " fill="#ffffff" fill-rule="evenodd" fill-opacity="1"/>
<polyline clip-path="url(#clip320)" style="stroke:#000000; stroke-width:4; stroke-opacity:1; fill:none" points="
  1668.27,287.756 2281.68,287.756 2281.68,166.796 1668.27,166.796 1668.27,287.756 
  "/>
<polyline clip-path="url(#clip320)" style="stroke:#e26f46; stroke-width:4; stroke-opacity:1; fill:none" stroke-dasharray="16, 10" points="
  1691.96,227.276 1834.11,227.276 
  "/>
<path clip-path="url(#clip320)" d="M 0 0 M1874.3 208.537 L1874.3 212.079 L1870.23 212.079 Q1867.94 212.079 1867.03 213.005 Q1866.15 213.931 1866.15 216.338 L1866.15 218.63 L1873.17 218.63 L1873.17 221.94 L1866.15 221.94 L1866.15 244.556 L1861.87 244.556 L1861.87 221.94 L1857.8 221.94 L1857.8 218.63 L1861.87 218.63 L1861.87 216.824 Q1861.87 212.496 1863.88 210.528 Q1865.9 208.537 1870.27 208.537 L1874.3 208.537 Z" fill="#000000" fill-rule="evenodd" fill-opacity="1" /><path clip-path="url(#clip320)" d="M 0 0 M1892.89 222.611 Q1892.17 222.195 1891.31 222.01 Q1890.48 221.801 1889.46 221.801 Q1885.85 221.801 1883.91 224.162 Q1881.99 226.5 1881.99 230.898 L1881.99 244.556 L1877.7 244.556 L1877.7 218.63 L1881.99 218.63 L1881.99 222.658 Q1883.33 220.297 1885.48 219.162 Q1887.63 218.005 1890.71 218.005 Q1891.15 218.005 1891.69 218.074 Q1892.22 218.121 1892.87 218.236 L1892.89 222.611 Z" fill="#000000" fill-rule="evenodd" fill-opacity="1" /><path clip-path="url(#clip320)" d="M 0 0 M1918.49 230.528 L1918.49 232.611 L1898.91 232.611 Q1899.19 237.009 1901.55 239.324 Q1903.93 241.616 1908.17 241.616 Q1910.62 241.616 1912.91 241.014 Q1915.23 240.412 1917.5 239.209 L1917.5 243.236 Q1915.2 244.208 1912.8 244.718 Q1910.39 245.227 1907.91 245.227 Q1901.71 245.227 1898.07 241.616 Q1894.46 238.005 1894.46 231.847 Q1894.46 225.482 1897.89 221.755 Q1901.34 218.005 1907.17 218.005 Q1912.4 218.005 1915.44 221.385 Q1918.49 224.741 1918.49 230.528 M1914.23 229.278 Q1914.19 225.783 1912.26 223.699 Q1910.37 221.616 1907.22 221.616 Q1903.65 221.616 1901.5 223.63 Q1899.37 225.644 1899.05 229.301 L1914.23 229.278 Z" fill="#000000" fill-rule="evenodd" fill-opacity="1" /><path clip-path="url(#clip320)" d="M 0 0 M1928.03 231.616 Q1928.03 236.315 1929.95 239 Q1931.89 241.662 1935.27 241.662 Q1938.65 241.662 1940.6 239 Q1942.54 236.315 1942.54 231.616 Q1942.54 226.917 1940.6 224.255 Q1938.65 221.57 1935.27 221.57 Q1931.89 221.57 1929.95 224.255 Q1928.03 226.917 1928.03 231.616 M1942.54 240.667 Q1941.2 242.982 1939.14 244.116 Q1937.1 245.227 1934.23 245.227 Q1929.53 245.227 1926.57 241.477 Q1923.63 237.727 1923.63 231.616 Q1923.63 225.505 1926.57 221.755 Q1929.53 218.005 1934.23 218.005 Q1937.1 218.005 1939.14 219.139 Q1941.2 220.25 1942.54 222.565 L1942.54 218.63 L1946.8 218.63 L1946.8 254.417 L1942.54 254.417 L1942.54 240.667 Z" fill="#000000" fill-rule="evenodd" fill-opacity="1" /><path clip-path="url(#clip320)" d="M 0 0 M1955.13 234.324 L1955.13 218.63 L1959.39 218.63 L1959.39 234.162 Q1959.39 237.843 1960.83 239.695 Q1962.26 241.523 1965.13 241.523 Q1968.58 241.523 1970.57 239.324 Q1972.59 237.125 1972.59 233.329 L1972.59 218.63 L1976.85 218.63 L1976.85 244.556 L1972.59 244.556 L1972.59 240.574 Q1971.04 242.935 1968.98 244.093 Q1966.94 245.227 1964.23 245.227 Q1959.76 245.227 1957.45 242.449 Q1955.13 239.671 1955.13 234.324 M1965.85 218.005 L1965.85 218.005 Z" fill="#000000" fill-rule="evenodd" fill-opacity="1" /><path clip-path="url(#clip320)" d="M 0 0 M2007.8 230.528 L2007.8 232.611 L1988.21 232.611 Q1988.49 237.009 1990.85 239.324 Q1993.24 241.616 1997.47 241.616 Q1999.93 241.616 2002.22 241.014 Q2004.53 240.412 2006.8 239.209 L2006.8 243.236 Q2004.51 244.208 2002.1 244.718 Q1999.69 245.227 1997.22 245.227 Q1991.01 245.227 1987.38 241.616 Q1983.77 238.005 1983.77 231.847 Q1983.77 225.482 1987.19 221.755 Q1990.64 218.005 1996.48 218.005 Q2001.71 218.005 2004.74 221.385 Q2007.8 224.741 2007.8 230.528 M2003.54 229.278 Q2003.49 225.783 2001.57 223.699 Q1999.67 221.616 1996.52 221.616 Q1992.96 221.616 1990.81 223.63 Q1988.68 225.644 1988.35 229.301 L2003.54 229.278 Z" fill="#000000" fill-rule="evenodd" fill-opacity="1" /><path clip-path="url(#clip320)" d="M 0 0 M2036.34 228.908 L2036.34 244.556 L2032.08 244.556 L2032.08 229.047 Q2032.08 225.366 2030.64 223.537 Q2029.21 221.709 2026.34 221.709 Q2022.89 221.709 2020.9 223.908 Q2018.91 226.107 2018.91 229.903 L2018.91 244.556 L2014.62 244.556 L2014.62 218.63 L2018.91 218.63 L2018.91 222.658 Q2020.43 220.32 2022.49 219.162 Q2024.58 218.005 2027.29 218.005 Q2031.75 218.005 2034.05 220.783 Q2036.34 223.537 2036.34 228.908 Z" fill="#000000" fill-rule="evenodd" fill-opacity="1" /><path clip-path="url(#clip320)" d="M 0 0 M2063.49 219.625 L2063.49 223.607 Q2061.68 222.611 2059.86 222.125 Q2058.05 221.616 2056.2 221.616 Q2052.05 221.616 2049.76 224.255 Q2047.47 226.871 2047.47 231.616 Q2047.47 236.361 2049.76 239 Q2052.05 241.616 2056.2 241.616 Q2058.05 241.616 2059.86 241.13 Q2061.68 240.621 2063.49 239.625 L2063.49 243.56 Q2061.71 244.394 2059.79 244.81 Q2057.89 245.227 2055.74 245.227 Q2049.88 245.227 2046.43 241.546 Q2042.98 237.866 2042.98 231.616 Q2042.98 225.273 2046.45 221.639 Q2049.95 218.005 2056.01 218.005 Q2057.98 218.005 2059.86 218.422 Q2061.73 218.815 2063.49 219.625 Z" fill="#000000" fill-rule="evenodd" fill-opacity="1" /><path clip-path="url(#clip320)" d="M 0 0 M2081.68 246.963 Q2079.88 251.593 2078.17 253.005 Q2076.45 254.417 2073.58 254.417 L2070.18 254.417 L2070.18 250.852 L2072.68 250.852 Q2074.44 250.852 2075.41 250.019 Q2076.38 249.185 2077.56 246.083 L2078.33 244.139 L2067.84 218.63 L2072.36 218.63 L2080.46 238.908 L2088.56 218.63 L2093.07 218.63 L2081.68 246.963 Z" fill="#000000" fill-rule="evenodd" fill-opacity="1" /><path clip-path="url(#clip320)" d="M 0 0 M2130.55 219.394 L2130.55 223.422 Q2128.74 222.496 2126.8 222.033 Q2124.86 221.57 2122.77 221.57 Q2119.6 221.57 2118 222.542 Q2116.43 223.514 2116.43 225.459 Q2116.43 226.94 2117.56 227.797 Q2118.7 228.63 2122.12 229.394 L2123.58 229.718 Q2128.12 230.69 2130.02 232.472 Q2131.94 234.232 2131.94 237.403 Q2131.94 241.014 2129.07 243.121 Q2126.22 245.227 2121.22 245.227 Q2119.14 245.227 2116.87 244.81 Q2114.62 244.417 2112.12 243.607 L2112.12 239.209 Q2114.48 240.435 2116.78 241.06 Q2119.07 241.662 2121.31 241.662 Q2124.32 241.662 2125.94 240.644 Q2127.56 239.602 2127.56 237.727 Q2127.56 235.991 2126.38 235.065 Q2125.23 234.139 2121.27 233.283 L2119.79 232.935 Q2115.83 232.102 2114.07 230.389 Q2112.31 228.653 2112.31 225.644 Q2112.31 221.986 2114.9 219.996 Q2117.49 218.005 2122.26 218.005 Q2124.62 218.005 2126.71 218.352 Q2128.79 218.699 2130.55 219.394 Z" fill="#000000" fill-rule="evenodd" fill-opacity="1" /><path clip-path="url(#clip320)" d="M 0 0 M2160.27 228.908 L2160.27 244.556 L2156.01 244.556 L2156.01 229.047 Q2156.01 225.366 2154.58 223.537 Q2153.14 221.709 2150.27 221.709 Q2146.82 221.709 2144.83 223.908 Q2142.84 226.107 2142.84 229.903 L2142.84 244.556 L2138.56 244.556 L2138.56 208.537 L2142.84 208.537 L2142.84 222.658 Q2144.37 220.32 2146.43 219.162 Q2148.51 218.005 2151.22 218.005 Q2155.69 218.005 2157.98 220.783 Q2160.27 223.537 2160.27 228.908 Z" fill="#000000" fill-rule="evenodd" fill-opacity="1" /><path clip-path="url(#clip320)" d="M 0 0 M2168.77 218.63 L2173.03 218.63 L2173.03 244.556 L2168.77 244.556 L2168.77 218.63 M2168.77 208.537 L2173.03 208.537 L2173.03 213.931 L2168.77 213.931 L2168.77 208.537 Z" fill="#000000" fill-rule="evenodd" fill-opacity="1" /><path clip-path="url(#clip320)" d="M 0 0 M2195.06 208.537 L2195.06 212.079 L2190.99 212.079 Q2188.7 212.079 2187.79 213.005 Q2186.92 213.931 2186.92 216.338 L2186.92 218.63 L2193.93 218.63 L2193.93 221.94 L2186.92 221.94 L2186.92 244.556 L2182.63 244.556 L2182.63 221.94 L2178.56 221.94 L2178.56 218.63 L2182.63 218.63 L2182.63 216.824 Q2182.63 212.496 2184.65 210.528 Q2186.66 208.537 2191.04 208.537 L2195.06 208.537 Z" fill="#000000" fill-rule="evenodd" fill-opacity="1" /><path clip-path="url(#clip320)" d="M 0 0 M2202.01 211.269 L2202.01 218.63 L2210.78 218.63 L2210.78 221.94 L2202.01 221.94 L2202.01 236.014 Q2202.01 239.185 2202.86 240.088 Q2203.74 240.991 2206.41 240.991 L2210.78 240.991 L2210.78 244.556 L2206.41 244.556 Q2201.48 244.556 2199.6 242.727 Q2197.73 240.875 2197.73 236.014 L2197.73 221.94 L2194.6 221.94 L2194.6 218.63 L2197.73 218.63 L2197.73 211.269 L2202.01 211.269 Z" fill="#000000" fill-rule="evenodd" fill-opacity="1" /><path clip-path="url(#clip320)" d="M 0 0 M2232.91 219.394 L2232.91 223.422 Q2231.1 222.496 2229.16 222.033 Q2227.22 221.57 2225.13 221.57 Q2221.96 221.57 2220.36 222.542 Q2218.79 223.514 2218.79 225.459 Q2218.79 226.94 2219.92 227.797 Q2221.06 228.63 2224.48 229.394 L2225.94 229.718 Q2230.48 230.69 2232.38 232.472 Q2234.3 234.232 2234.3 237.403 Q2234.3 241.014 2231.43 243.121 Q2228.58 245.227 2223.58 245.227 Q2221.5 245.227 2219.23 244.81 Q2216.98 244.417 2214.48 243.607 L2214.48 239.209 Q2216.85 240.435 2219.14 241.06 Q2221.43 241.662 2223.67 241.662 Q2226.68 241.662 2228.3 240.644 Q2229.92 239.602 2229.92 237.727 Q2229.92 235.991 2228.74 235.065 Q2227.59 234.139 2223.63 233.283 L2222.15 232.935 Q2218.19 232.102 2216.43 230.389 Q2214.67 228.653 2214.67 225.644 Q2214.67 221.986 2217.26 219.996 Q2219.85 218.005 2224.62 218.005 Q2226.98 218.005 2229.07 218.352 Q2231.15 218.699 2232.91 219.394 Z" fill="#000000" fill-rule="evenodd" fill-opacity="1" /></svg>
