<?xml version="1.0" encoding="utf-8"?>
<svg xmlns="http://www.w3.org/2000/svg" xmlns:xlink="http://www.w3.org/1999/xlink" width="600" height="400" viewBox="0 0 2400 1600">
<defs>
  <clipPath id="clip900">
    <rect x="0" y="0" width="2400" height="1600"/>
  </clipPath>
</defs>
<path clip-path="url(#clip900)" d="
M0 1600 L2400 1600 L2400 0 L0 0  Z
  " fill="#ffffff" fill-rule="evenodd" fill-opacity="1"/>
<defs>
  <clipPath id="clip901">
    <rect x="480" y="0" width="1681" height="1600"/>
  </clipPath>
</defs>
<defs>
  <clipPath id="clip902">
    <rect x="190" y="123" width="2163" height="1301"/>
  </clipPath>
</defs>
<path clip-path="url(#clip900)" d="
M266.337 1423.18 L2352.76 1423.18 L2352.76 123.472 L266.337 123.472  Z
  " fill="#ffffff" fill-rule="evenodd" fill-opacity="1"/>
<defs>
  <clipPath id="clip903">
    <rect x="266" y="123" width="2087" height="1301"/>
  </clipPath>
</defs>
<polyline clip-path="url(#clip903)" style="stroke:#000000; stroke-width:2; stroke-opacity:0.1; fill:none" points="
  325.387,1423.18 325.387,123.472 
  "/>
<polyline clip-path="url(#clip903)" style="stroke:#000000; stroke-width:2; stroke-opacity:0.1; fill:none" points="
  719.449,1423.18 719.449,123.472 
  "/>
<polyline clip-path="url(#clip903)" style="stroke:#000000; stroke-width:2; stroke-opacity:0.1; fill:none" points="
  1113.51,1423.18 1113.51,123.472 
  "/>
<polyline clip-path="url(#clip903)" style="stroke:#000000; stroke-width:2; stroke-opacity:0.1; fill:none" points="
  1507.57,1423.18 1507.57,123.472 
  "/>
<polyline clip-path="url(#clip903)" style="stroke:#000000; stroke-width:2; stroke-opacity:0.1; fill:none" points="
  1901.64,1423.18 1901.64,123.472 
  "/>
<polyline clip-path="url(#clip903)" style="stroke:#000000; stroke-width:2; stroke-opacity:0.1; fill:none" points="
  2295.7,1423.18 2295.7,123.472 
  "/>
<polyline clip-path="url(#clip900)" style="stroke:#000000; stroke-width:4; stroke-opacity:1; fill:none" points="
  266.337,1423.18 2352.76,1423.18 
  "/>
<polyline clip-path="url(#clip900)" style="stroke:#000000; stroke-width:4; stroke-opacity:1; fill:none" points="
  325.387,1423.18 325.387,1407.58 
  "/>
<polyline clip-path="url(#clip900)" style="stroke:#000000; stroke-width:4; stroke-opacity:1; fill:none" points="
  719.449,1423.18 719.449,1407.58 
  "/>
<polyline clip-path="url(#clip900)" style="stroke:#000000; stroke-width:4; stroke-opacity:1; fill:none" points="
  1113.51,1423.18 1113.51,1407.58 
  "/>
<polyline clip-path="url(#clip900)" style="stroke:#000000; stroke-width:4; stroke-opacity:1; fill:none" points="
  1507.57,1423.18 1507.57,1407.58 
  "/>
<polyline clip-path="url(#clip900)" style="stroke:#000000; stroke-width:4; stroke-opacity:1; fill:none" points="
  1901.64,1423.18 1901.64,1407.58 
  "/>
<polyline clip-path="url(#clip900)" style="stroke:#000000; stroke-width:4; stroke-opacity:1; fill:none" points="
  2295.7,1423.18 2295.7,1407.58 
  "/>
<path clip-path="url(#clip900)" d="M 0 0 M325.387 1452.37 Q321.776 1452.37 319.947 1455.94 Q318.141 1459.48 318.141 1466.61 Q318.141 1473.71 319.947 1477.28 Q321.776 1480.82 325.387 1480.82 Q329.021 1480.82 330.826 1477.28 Q332.655 1473.71 332.655 1466.61 Q332.655 1459.48 330.826 1455.94 Q329.021 1452.37 325.387 1452.37 M325.387 1448.67 Q331.197 1448.67 334.252 1453.27 Q337.331 1457.86 337.331 1466.61 Q337.331 1475.33 334.252 1479.94 Q331.197 1484.52 325.387 1484.52 Q319.576 1484.52 316.498 1479.94 Q313.442 1475.33 313.442 1466.61 Q313.442 1457.86 316.498 1453.27 Q319.576 1448.67 325.387 1448.67 Z" fill="#000000" fill-rule="evenodd" fill-opacity="1" /><path clip-path="url(#clip900)" d="M 0 0 M694.137 1479.92 L701.776 1479.92 L701.776 1453.55 L693.465 1455.22 L693.465 1450.96 L701.729 1449.29 L706.405 1449.29 L706.405 1479.92 L714.044 1479.92 L714.044 1483.85 L694.137 1483.85 L694.137 1479.92 Z" fill="#000000" fill-rule="evenodd" fill-opacity="1" /><path clip-path="url(#clip900)" d="M 0 0 M733.488 1452.37 Q729.877 1452.37 728.049 1455.94 Q726.243 1459.48 726.243 1466.61 Q726.243 1473.71 728.049 1477.28 Q729.877 1480.82 733.488 1480.82 Q737.123 1480.82 738.928 1477.28 Q740.757 1473.71 740.757 1466.61 Q740.757 1459.48 738.928 1455.94 Q737.123 1452.37 733.488 1452.37 M733.488 1448.67 Q739.298 1448.67 742.354 1453.27 Q745.433 1457.86 745.433 1466.61 Q745.433 1475.33 742.354 1479.94 Q739.298 1484.52 733.488 1484.52 Q727.678 1484.52 724.599 1479.94 Q721.544 1475.33 721.544 1466.61 Q721.544 1457.86 724.599 1453.27 Q727.678 1448.67 733.488 1448.67 Z" fill="#000000" fill-rule="evenodd" fill-opacity="1" /><path clip-path="url(#clip900)" d="M 0 0 M1092.28 1479.92 L1108.6 1479.92 L1108.6 1483.85 L1086.66 1483.85 L1086.66 1479.92 Q1089.32 1477.16 1093.91 1472.53 Q1098.51 1467.88 1099.69 1466.54 Q1101.94 1464.01 1102.82 1462.28 Q1103.72 1460.52 1103.72 1458.83 Q1103.72 1456.07 1101.78 1454.34 Q1099.85 1452.6 1096.75 1452.6 Q1094.55 1452.6 1092.1 1453.37 Q1089.67 1454.13 1086.89 1455.68 L1086.89 1450.96 Q1089.72 1449.82 1092.17 1449.25 Q1094.62 1448.67 1096.66 1448.67 Q1102.03 1448.67 1105.22 1451.35 Q1108.42 1454.04 1108.42 1458.53 Q1108.42 1460.66 1107.61 1462.58 Q1106.82 1464.48 1104.72 1467.07 Q1104.14 1467.74 1101.03 1470.96 Q1097.93 1474.15 1092.28 1479.92 Z" fill="#000000" fill-rule="evenodd" fill-opacity="1" /><path clip-path="url(#clip900)" d="M 0 0 M1128.42 1452.37 Q1124.81 1452.37 1122.98 1455.94 Q1121.17 1459.48 1121.17 1466.61 Q1121.17 1473.71 1122.98 1477.28 Q1124.81 1480.82 1128.42 1480.82 Q1132.05 1480.82 1133.86 1477.28 Q1135.69 1473.71 1135.69 1466.61 Q1135.69 1459.48 1133.86 1455.94 Q1132.05 1452.37 1128.42 1452.37 M1128.42 1448.67 Q1134.23 1448.67 1137.28 1453.27 Q1140.36 1457.86 1140.36 1466.61 Q1140.36 1475.33 1137.28 1479.94 Q1134.23 1484.52 1128.42 1484.52 Q1122.61 1484.52 1119.53 1479.94 Q1116.47 1475.33 1116.47 1466.61 Q1116.47 1457.86 1119.53 1453.27 Q1122.61 1448.67 1128.42 1448.67 Z" fill="#000000" fill-rule="evenodd" fill-opacity="1" /><path clip-path="url(#clip900)" d="M 0 0 M1496.42 1465.22 Q1499.77 1465.94 1501.65 1468.2 Q1503.55 1470.47 1503.55 1473.81 Q1503.55 1478.92 1500.03 1481.72 Q1496.51 1484.52 1490.03 1484.52 Q1487.85 1484.52 1485.54 1484.08 Q1483.25 1483.67 1480.79 1482.81 L1480.79 1478.3 Q1482.74 1479.43 1485.05 1480.01 Q1487.37 1480.59 1489.89 1480.59 Q1494.29 1480.59 1496.58 1478.85 Q1498.89 1477.12 1498.89 1473.81 Q1498.89 1470.75 1496.74 1469.04 Q1494.61 1467.3 1490.79 1467.3 L1486.76 1467.3 L1486.76 1463.46 L1490.98 1463.46 Q1494.43 1463.46 1496.25 1462.09 Q1498.08 1460.7 1498.08 1458.11 Q1498.08 1455.45 1496.18 1454.04 Q1494.31 1452.6 1490.79 1452.6 Q1488.87 1452.6 1486.67 1453.02 Q1484.47 1453.44 1481.83 1454.31 L1481.83 1450.15 Q1484.5 1449.41 1486.81 1449.04 Q1489.15 1448.67 1491.21 1448.67 Q1496.53 1448.67 1499.63 1451.1 Q1502.74 1453.5 1502.74 1457.63 Q1502.74 1460.5 1501.09 1462.49 Q1499.45 1464.45 1496.42 1465.22 Z" fill="#000000" fill-rule="evenodd" fill-opacity="1" /><path clip-path="url(#clip900)" d="M 0 0 M1522.41 1452.37 Q1518.8 1452.37 1516.97 1455.94 Q1515.17 1459.48 1515.17 1466.61 Q1515.17 1473.71 1516.97 1477.28 Q1518.8 1480.82 1522.41 1480.82 Q1526.05 1480.82 1527.85 1477.28 Q1529.68 1473.71 1529.68 1466.61 Q1529.68 1459.48 1527.85 1455.94 Q1526.05 1452.37 1522.41 1452.37 M1522.41 1448.67 Q1528.22 1448.67 1531.28 1453.27 Q1534.36 1457.86 1534.36 1466.61 Q1534.36 1475.33 1531.28 1479.94 Q1528.22 1484.52 1522.41 1484.52 Q1516.6 1484.52 1513.52 1479.94 Q1510.47 1475.33 1510.47 1466.61 Q1510.47 1457.86 1513.52 1453.27 Q1516.6 1448.67 1522.41 1448.67 Z" fill="#000000" fill-rule="evenodd" fill-opacity="1" /><path clip-path="url(#clip900)" d="M 0 0 M1889.81 1453.37 L1878 1471.81 L1889.81 1471.81 L1889.81 1453.37 M1888.58 1449.29 L1894.46 1449.29 L1894.46 1471.81 L1899.39 1471.81 L1899.39 1475.7 L1894.46 1475.7 L1894.46 1483.85 L1889.81 1483.85 L1889.81 1475.7 L1874.21 1475.7 L1874.21 1471.19 L1888.58 1449.29 Z" fill="#000000" fill-rule="evenodd" fill-opacity="1" /><path clip-path="url(#clip900)" d="M 0 0 M1917.12 1452.37 Q1913.51 1452.37 1911.68 1455.94 Q1909.88 1459.48 1909.88 1466.61 Q1909.88 1473.71 1911.68 1477.28 Q1913.51 1480.82 1917.12 1480.82 Q1920.76 1480.82 1922.56 1477.28 Q1924.39 1473.71 1924.39 1466.61 Q1924.39 1459.48 1922.56 1455.94 Q1920.76 1452.37 1917.12 1452.37 M1917.12 1448.67 Q1922.93 1448.67 1925.99 1453.27 Q1929.07 1457.86 1929.07 1466.61 Q1929.07 1475.33 1925.99 1479.94 Q1922.93 1484.52 1917.12 1484.52 Q1911.31 1484.52 1908.23 1479.94 Q1905.18 1475.33 1905.18 1466.61 Q1905.18 1457.86 1908.23 1453.27 Q1911.31 1448.67 1917.12 1448.67 Z" fill="#000000" fill-rule="evenodd" fill-opacity="1" /><path clip-path="url(#clip900)" d="M 0 0 M2270.4 1449.29 L2288.75 1449.29 L2288.75 1453.23 L2274.68 1453.23 L2274.68 1461.7 Q2275.7 1461.35 2276.72 1461.19 Q2277.74 1461 2278.75 1461 Q2284.54 1461 2287.92 1464.18 Q2291.3 1467.35 2291.3 1472.76 Q2291.3 1478.34 2287.83 1481.44 Q2284.36 1484.52 2278.04 1484.52 Q2275.86 1484.52 2273.59 1484.15 Q2271.35 1483.78 2268.94 1483.04 L2268.94 1478.34 Q2271.02 1479.48 2273.24 1480.03 Q2275.47 1480.59 2277.94 1480.59 Q2281.95 1480.59 2284.29 1478.48 Q2286.62 1476.38 2286.62 1472.76 Q2286.62 1469.15 2284.29 1467.05 Q2281.95 1464.94 2277.94 1464.94 Q2276.07 1464.94 2274.19 1465.36 Q2272.34 1465.77 2270.4 1466.65 L2270.4 1449.29 Z" fill="#000000" fill-rule="evenodd" fill-opacity="1" /><path clip-path="url(#clip900)" d="M 0 0 M2310.51 1452.37 Q2306.9 1452.37 2305.07 1455.94 Q2303.27 1459.48 2303.27 1466.61 Q2303.27 1473.71 2305.07 1477.28 Q2306.9 1480.82 2310.51 1480.82 Q2314.15 1480.82 2315.95 1477.28 Q2317.78 1473.71 2317.78 1466.61 Q2317.78 1459.48 2315.95 1455.94 Q2314.15 1452.37 2310.51 1452.37 M2310.51 1448.67 Q2316.32 1448.67 2319.38 1453.27 Q2322.46 1457.86 2322.46 1466.61 Q2322.46 1475.33 2319.38 1479.94 Q2316.32 1484.52 2310.51 1484.52 Q2304.7 1484.52 2301.62 1479.94 Q2298.57 1475.33 2298.57 1466.61 Q2298.57 1457.86 2301.62 1453.27 Q2304.7 1448.67 2310.51 1448.67 Z" fill="#000000" fill-rule="evenodd" fill-opacity="1" /><path clip-path="url(#clip900)" d="M 0 0 M1069.65 1518.52 L1069.65 1523.39 L1064.05 1523.39 Q1060.9 1523.39 1059.66 1524.66 Q1058.45 1525.93 1058.45 1529.24 L1058.45 1532.4 L1068.1 1532.4 L1068.1 1536.95 L1058.45 1536.95 L1058.45 1568.04 L1052.56 1568.04 L1052.56 1536.95 L1046.96 1536.95 L1046.96 1532.4 L1052.56 1532.4 L1052.56 1529.91 Q1052.56 1523.96 1055.33 1521.26 Q1058.1 1518.52 1064.12 1518.52 L1069.65 1518.52 Z" fill="#000000" fill-rule="evenodd" fill-opacity="1" /><path clip-path="url(#clip900)" d="M 0 0 M1095.21 1537.87 Q1094.23 1537.3 1093.05 1537.04 Q1091.9 1536.76 1090.5 1536.76 Q1085.54 1536.76 1082.86 1540 Q1080.22 1543.22 1080.22 1549.27 L1080.22 1568.04 L1074.33 1568.04 L1074.33 1532.4 L1080.22 1532.4 L1080.22 1537.93 Q1082.07 1534.69 1085.03 1533.13 Q1087.99 1531.54 1092.22 1531.54 Q1092.83 1531.54 1093.56 1531.63 Q1094.29 1531.7 1095.18 1531.85 L1095.21 1537.87 Z" fill="#000000" fill-rule="evenodd" fill-opacity="1" /><path clip-path="url(#clip900)" d="M 0 0 M1130.42 1548.76 L1130.42 1551.62 L1103.49 1551.62 Q1103.87 1557.67 1107.12 1560.85 Q1110.4 1564 1116.22 1564 Q1119.59 1564 1122.74 1563.17 Q1125.93 1562.35 1129.05 1560.69 L1129.05 1566.23 Q1125.9 1567.57 1122.59 1568.27 Q1119.28 1568.97 1115.87 1568.97 Q1107.34 1568.97 1102.34 1564 Q1097.38 1559.04 1097.38 1550.57 Q1097.38 1541.82 1102.09 1536.69 Q1106.83 1531.54 1114.85 1531.54 Q1122.04 1531.54 1126.21 1536.18 Q1130.42 1540.8 1130.42 1548.76 M1124.56 1547.04 Q1124.5 1542.23 1121.85 1539.37 Q1119.24 1536.5 1114.92 1536.5 Q1110.01 1536.5 1107.05 1539.27 Q1104.13 1542.04 1103.68 1547.07 L1124.56 1547.04 Z" fill="#000000" fill-rule="evenodd" fill-opacity="1" /><path clip-path="url(#clip900)" d="M 0 0 M1143.53 1550.25 Q1143.53 1556.71 1146.17 1560.4 Q1148.84 1564.07 1153.49 1564.07 Q1158.14 1564.07 1160.81 1560.4 Q1163.49 1556.71 1163.49 1550.25 Q1163.49 1543.79 1160.81 1540.13 Q1158.14 1536.44 1153.49 1536.44 Q1148.84 1536.44 1146.17 1540.13 Q1143.53 1543.79 1143.53 1550.25 M1163.49 1562.7 Q1161.64 1565.88 1158.81 1567.44 Q1156.01 1568.97 1152.06 1568.97 Q1145.6 1568.97 1141.52 1563.81 Q1137.48 1558.65 1137.48 1550.25 Q1137.48 1541.85 1141.52 1536.69 Q1145.6 1531.54 1152.06 1531.54 Q1156.01 1531.54 1158.81 1533.1 Q1161.64 1534.62 1163.49 1537.81 L1163.49 1532.4 L1169.34 1532.4 L1169.34 1581.6 L1163.49 1581.6 L1163.49 1562.7 Z" fill="#000000" fill-rule="evenodd" fill-opacity="1" /><path clip-path="url(#clip900)" d="M 0 0 M1180.8 1553.98 L1180.8 1532.4 L1186.66 1532.4 L1186.66 1553.75 Q1186.66 1558.81 1188.63 1561.36 Q1190.6 1563.87 1194.55 1563.87 Q1199.29 1563.87 1202.03 1560.85 Q1204.8 1557.83 1204.8 1552.61 L1204.8 1532.4 L1210.66 1532.4 L1210.66 1568.04 L1204.8 1568.04 L1204.8 1562.57 Q1202.67 1565.82 1199.83 1567.41 Q1197.03 1568.97 1193.31 1568.97 Q1187.17 1568.97 1183.98 1565.15 Q1180.8 1561.33 1180.8 1553.98 M1195.54 1531.54 L1195.54 1531.54 Z" fill="#000000" fill-rule="evenodd" fill-opacity="1" /><path clip-path="url(#clip900)" d="M 0 0 M1253.21 1548.76 L1253.21 1551.62 L1226.28 1551.62 Q1226.66 1557.67 1229.91 1560.85 Q1233.19 1564 1239.01 1564 Q1242.39 1564 1245.54 1563.17 Q1248.72 1562.35 1251.84 1560.69 L1251.84 1566.23 Q1248.69 1567.57 1245.38 1568.27 Q1242.07 1568.97 1238.66 1568.97 Q1230.13 1568.97 1225.14 1564 Q1220.17 1559.04 1220.17 1550.57 Q1220.17 1541.82 1224.88 1536.69 Q1229.63 1531.54 1237.65 1531.54 Q1244.84 1531.54 1249.01 1536.18 Q1253.21 1540.8 1253.21 1548.76 M1247.35 1547.04 Q1247.29 1542.23 1244.65 1539.37 Q1242.04 1536.5 1237.71 1536.5 Q1232.81 1536.5 1229.85 1539.27 Q1226.92 1542.04 1226.47 1547.07 L1247.35 1547.04 Z" fill="#000000" fill-rule="evenodd" fill-opacity="1" /><path clip-path="url(#clip900)" d="M 0 0 M1292.45 1546.53 L1292.45 1568.04 L1286.6 1568.04 L1286.6 1546.72 Q1286.6 1541.66 1284.62 1539.14 Q1282.65 1536.63 1278.7 1536.63 Q1273.96 1536.63 1271.22 1539.65 Q1268.49 1542.68 1268.49 1547.9 L1268.49 1568.04 L1262.6 1568.04 L1262.6 1532.4 L1268.49 1532.4 L1268.49 1537.93 Q1270.59 1534.72 1273.42 1533.13 Q1276.29 1531.54 1280.01 1531.54 Q1286.15 1531.54 1289.3 1535.36 Q1292.45 1539.14 1292.45 1546.53 Z" fill="#000000" fill-rule="evenodd" fill-opacity="1" /><path clip-path="url(#clip900)" d="M 0 0 M1329.79 1533.76 L1329.79 1539.24 Q1327.31 1537.87 1324.79 1537.2 Q1322.31 1536.5 1319.76 1536.5 Q1314.07 1536.5 1310.92 1540.13 Q1307.76 1543.73 1307.76 1550.25 Q1307.76 1556.78 1310.92 1560.4 Q1314.07 1564 1319.76 1564 Q1322.31 1564 1324.79 1563.33 Q1327.31 1562.63 1329.79 1561.26 L1329.79 1566.68 Q1327.34 1567.82 1324.7 1568.39 Q1322.09 1568.97 1319.13 1568.97 Q1311.07 1568.97 1306.33 1563.91 Q1301.59 1558.85 1301.59 1550.25 Q1301.59 1541.53 1306.36 1536.53 Q1311.17 1531.54 1319.51 1531.54 Q1322.21 1531.54 1324.79 1532.11 Q1327.37 1532.65 1329.79 1533.76 Z" fill="#000000" fill-rule="evenodd" fill-opacity="1" /><path clip-path="url(#clip900)" d="M 0 0 M1354.81 1571.35 Q1352.32 1577.72 1349.97 1579.66 Q1347.61 1581.6 1343.67 1581.6 L1338.99 1581.6 L1338.99 1576.7 L1342.43 1576.7 Q1344.84 1576.7 1346.18 1575.56 Q1347.52 1574.41 1349.14 1570.14 L1350.19 1567.47 L1335.77 1532.4 L1341.98 1532.4 L1353.12 1560.28 L1364.26 1532.4 L1370.47 1532.4 L1354.81 1571.35 Z" fill="#000000" fill-rule="evenodd" fill-opacity="1" /><path clip-path="url(#clip900)" d="M 0 0 M1413.34 1518.58 Q1409.07 1525.9 1407.01 1533.06 Q1404.94 1540.23 1404.94 1547.58 Q1404.94 1554.93 1407.01 1562.16 Q1409.11 1569.35 1413.34 1576.64 L1408.25 1576.64 Q1403.47 1569.16 1401.09 1561.93 Q1398.73 1554.71 1398.73 1547.58 Q1398.73 1540.48 1401.09 1533.29 Q1403.44 1526.09 1408.25 1518.58 L1413.34 1518.58 Z" fill="#000000" fill-rule="evenodd" fill-opacity="1" /><path clip-path="url(#clip900)" d="M 0 0 M1457.36 1561.26 L1457.36 1548.5 L1446.85 1548.5 L1446.85 1543.22 L1463.72 1543.22 L1463.72 1563.62 Q1460 1566.26 1455.51 1567.63 Q1451.02 1568.97 1445.93 1568.97 Q1434.79 1568.97 1428.49 1562.47 Q1422.22 1555.95 1422.22 1544.33 Q1422.22 1532.68 1428.49 1526.19 Q1434.79 1519.66 1445.93 1519.66 Q1450.58 1519.66 1454.75 1520.81 Q1458.95 1521.96 1462.48 1524.18 L1462.48 1531.03 Q1458.92 1528 1454.91 1526.48 Q1450.9 1524.95 1446.47 1524.95 Q1437.75 1524.95 1433.36 1529.82 Q1429 1534.69 1429 1544.33 Q1429 1553.94 1433.36 1558.81 Q1437.75 1563.68 1446.47 1563.68 Q1449.88 1563.68 1452.55 1563.11 Q1455.23 1562.51 1457.36 1561.26 Z" fill="#000000" fill-rule="evenodd" fill-opacity="1" /><path clip-path="url(#clip900)" d="M 0 0 M1475.47 1520.52 L1481.9 1520.52 L1481.9 1540 L1505.26 1540 L1505.26 1520.52 L1511.69 1520.52 L1511.69 1568.04 L1505.26 1568.04 L1505.26 1545.41 L1481.9 1545.41 L1481.9 1568.04 L1475.47 1568.04 L1475.47 1520.52 Z" fill="#000000" fill-rule="evenodd" fill-opacity="1" /><path clip-path="url(#clip900)" d="M 0 0 M1521.68 1532.4 L1549.5 1532.4 L1549.5 1537.74 L1527.48 1563.37 L1549.5 1563.37 L1549.5 1568.04 L1520.89 1568.04 L1520.89 1562.7 L1542.91 1537.07 L1521.68 1537.07 L1521.68 1532.4 Z" fill="#000000" fill-rule="evenodd" fill-opacity="1" /><path clip-path="url(#clip900)" d="M 0 0 M1557.52 1518.58 L1562.62 1518.58 Q1567.39 1526.09 1569.74 1533.29 Q1572.13 1540.48 1572.13 1547.58 Q1572.13 1554.71 1569.74 1561.93 Q1567.39 1569.16 1562.62 1576.64 L1557.52 1576.64 Q1561.76 1569.35 1563.82 1562.16 Q1565.93 1554.93 1565.93 1547.58 Q1565.93 1540.23 1563.82 1533.06 Q1561.76 1525.9 1557.52 1518.58 Z" fill="#000000" fill-rule="evenodd" fill-opacity="1" /><polyline clip-path="url(#clip903)" style="stroke:#000000; stroke-width:2; stroke-opacity:0.1; fill:none" points="
  266.337,1386.4 2352.76,1386.4 
  "/>
<polyline clip-path="url(#clip903)" style="stroke:#000000; stroke-width:2; stroke-opacity:0.1; fill:none" points="
  266.337,1008.74 2352.76,1008.74 
  "/>
<polyline clip-path="url(#clip903)" style="stroke:#000000; stroke-width:2; stroke-opacity:0.1; fill:none" points="
  266.337,631.077 2352.76,631.077 
  "/>
<polyline clip-path="url(#clip903)" style="stroke:#000000; stroke-width:2; stroke-opacity:0.1; fill:none" points="
  266.337,253.418 2352.76,253.418 
  "/>
<polyline clip-path="url(#clip900)" style="stroke:#000000; stroke-width:4; stroke-opacity:1; fill:none" points="
  266.337,1423.18 266.337,123.472 
  "/>
<polyline clip-path="url(#clip900)" style="stroke:#000000; stroke-width:4; stroke-opacity:1; fill:none" points="
  266.337,1386.4 291.374,1386.4 
  "/>
<polyline clip-path="url(#clip900)" style="stroke:#000000; stroke-width:4; stroke-opacity:1; fill:none" points="
  266.337,1008.74 291.374,1008.74 
  "/>
<polyline clip-path="url(#clip900)" style="stroke:#000000; stroke-width:4; stroke-opacity:1; fill:none" points="
  266.337,631.077 291.374,631.077 
  "/>
<polyline clip-path="url(#clip900)" style="stroke:#000000; stroke-width:4; stroke-opacity:1; fill:none" points="
  266.337,253.418 291.374,253.418 
  "/>
<path clip-path="url(#clip900)" d="M 0 0 M218.393 1372.19 Q214.782 1372.19 212.953 1375.76 Q211.147 1379.3 211.147 1386.43 Q211.147 1393.54 212.953 1397.1 Q214.782 1400.64 218.393 1400.64 Q222.027 1400.64 223.832 1397.1 Q225.661 1393.54 225.661 1386.43 Q225.661 1379.3 223.832 1375.76 Q222.027 1372.19 218.393 1372.19 M218.393 1368.49 Q224.203 1368.49 227.258 1373.1 Q230.337 1377.68 230.337 1386.43 Q230.337 1395.16 227.258 1399.76 Q224.203 1404.35 218.393 1404.35 Q212.583 1404.35 209.504 1399.76 Q206.448 1395.16 206.448 1386.43 Q206.448 1377.68 209.504 1373.1 Q212.583 1368.49 218.393 1368.49 Z" fill="#000000" fill-rule="evenodd" fill-opacity="1" /><path clip-path="url(#clip900)" d="M 0 0 M179.041 1022.08 L186.68 1022.08 L186.68 995.716 L178.37 997.382 L178.37 993.123 L186.634 991.456 L191.309 991.456 L191.309 1022.08 L198.948 1022.08 L198.948 1026.02 L179.041 1026.02 L179.041 1022.08 Z" fill="#000000" fill-rule="evenodd" fill-opacity="1" /><path clip-path="url(#clip900)" d="M 0 0 M218.393 994.535 Q214.782 994.535 212.953 998.1 Q211.147 1001.64 211.147 1008.77 Q211.147 1015.88 212.953 1019.44 Q214.782 1022.98 218.393 1022.98 Q222.027 1022.98 223.832 1019.44 Q225.661 1015.88 225.661 1008.77 Q225.661 1001.64 223.832 998.1 Q222.027 994.535 218.393 994.535 M218.393 990.831 Q224.203 990.831 227.258 995.438 Q230.337 1000.02 230.337 1008.77 Q230.337 1017.5 227.258 1022.1 Q224.203 1026.69 218.393 1026.69 Q212.583 1026.69 209.504 1022.1 Q206.448 1017.5 206.448 1008.77 Q206.448 1000.02 209.504 995.438 Q212.583 990.831 218.393 990.831 Z" fill="#000000" fill-rule="evenodd" fill-opacity="1" /><path clip-path="url(#clip900)" d="M 0 0 M182.259 644.422 L198.578 644.422 L198.578 648.357 L176.634 648.357 L176.634 644.422 Q179.296 641.667 183.879 637.038 Q188.485 632.385 189.666 631.042 Q191.911 628.519 192.791 626.783 Q193.694 625.024 193.694 623.334 Q193.694 620.579 191.749 618.843 Q189.828 617.107 186.726 617.107 Q184.527 617.107 182.073 617.871 Q179.643 618.635 176.865 620.186 L176.865 615.464 Q179.689 614.329 182.143 613.751 Q184.597 613.172 186.634 613.172 Q192.004 613.172 195.198 615.857 Q198.393 618.542 198.393 623.033 Q198.393 625.163 197.583 627.084 Q196.796 628.982 194.689 631.575 Q194.11 632.246 191.009 635.464 Q187.907 638.658 182.259 644.422 Z" fill="#000000" fill-rule="evenodd" fill-opacity="1" /><path clip-path="url(#clip900)" d="M 0 0 M218.393 616.876 Q214.782 616.876 212.953 620.441 Q211.147 623.982 211.147 631.112 Q211.147 638.218 212.953 641.783 Q214.782 645.325 218.393 645.325 Q222.027 645.325 223.832 641.783 Q225.661 638.218 225.661 631.112 Q225.661 623.982 223.832 620.441 Q222.027 616.876 218.393 616.876 M218.393 613.172 Q224.203 613.172 227.258 617.779 Q230.337 622.362 230.337 631.112 Q230.337 639.839 227.258 644.445 Q224.203 649.028 218.393 649.028 Q212.583 649.028 209.504 644.445 Q206.448 639.839 206.448 631.112 Q206.448 622.362 209.504 617.779 Q212.583 613.172 218.393 613.172 Z" fill="#000000" fill-rule="evenodd" fill-opacity="1" /><path clip-path="url(#clip900)" d="M 0 0 M192.397 252.064 Q195.754 252.781 197.629 255.05 Q199.527 257.318 199.527 260.652 Q199.527 265.767 196.009 268.568 Q192.49 271.369 186.009 271.369 Q183.833 271.369 181.518 270.929 Q179.226 270.513 176.773 269.656 L176.773 265.142 Q178.717 266.277 181.032 266.855 Q183.347 267.434 185.87 267.434 Q190.268 267.434 192.559 265.698 Q194.874 263.962 194.874 260.652 Q194.874 257.596 192.722 255.883 Q190.592 254.147 186.772 254.147 L182.745 254.147 L182.745 250.304 L186.958 250.304 Q190.407 250.304 192.235 248.939 Q194.064 247.55 194.064 244.957 Q194.064 242.295 192.166 240.883 Q190.291 239.448 186.772 239.448 Q184.851 239.448 182.652 239.865 Q180.453 240.281 177.814 241.161 L177.814 236.994 Q180.476 236.254 182.791 235.883 Q185.129 235.513 187.189 235.513 Q192.513 235.513 195.615 237.943 Q198.717 240.351 198.717 244.471 Q198.717 247.341 197.073 249.332 Q195.43 251.3 192.397 252.064 Z" fill="#000000" fill-rule="evenodd" fill-opacity="1" /><path clip-path="url(#clip900)" d="M 0 0 M218.393 239.216 Q214.782 239.216 212.953 242.781 Q211.147 246.323 211.147 253.453 Q211.147 260.559 212.953 264.124 Q214.782 267.665 218.393 267.665 Q222.027 267.665 223.832 264.124 Q225.661 260.559 225.661 253.453 Q225.661 246.323 223.832 242.781 Q222.027 239.216 218.393 239.216 M218.393 235.513 Q224.203 235.513 227.258 240.119 Q230.337 244.703 230.337 253.453 Q230.337 262.179 227.258 266.786 Q224.203 271.369 218.393 271.369 Q212.583 271.369 209.504 266.786 Q206.448 262.179 206.448 253.453 Q206.448 244.703 209.504 240.119 Q212.583 235.513 218.393 235.513 Z" fill="#000000" fill-rule="evenodd" fill-opacity="1" /><path clip-path="url(#clip900)" d="M 0 0 M94.6485 829.54 L111.073 835.209 L111.073 889.894 Q111.073 890.635 111.041 890.925 Q111.009 891.215 110.848 891.44 Q110.687 891.666 110.333 891.666 Q110.043 891.666 109.302 891.086 L80.3491 867.672 L47.2415 891.73 Q45.7278 891.73 45.4379 891.472 Q45.1159 891.215 45.1159 889.894 L45.1159 835.209 L60.5425 829.54 L60.5425 831.183 Q58.5457 831.924 56.871 833.115 Q55.1641 834.275 53.9403 835.627 Q52.7165 836.948 51.7503 838.687 Q50.7519 840.394 50.14 842.004 Q49.4959 843.582 49.045 845.547 Q48.5619 847.511 48.3365 849.089 Q48.0788 850.635 47.95 852.568 Q47.8212 854.5 47.789 855.724 Q47.7568 856.948 47.7568 858.494 L47.7568 884.612 L77.1607 863.196 Q77.9014 862.713 78.0947 862.713 Q78.3845 862.713 79.1575 863.324 L107.434 886.191 L107.434 858.171 Q107.434 849.154 105.534 842.874 Q104.085 838.623 101.218 835.531 Q98.3522 832.407 94.6485 831.183 L94.6485 829.54 Z" fill="#000000" fill-rule="evenodd" fill-opacity="1" /><path clip-path="url(#clip900)" d="M 0 0 M127.747 902.739 Q128.739 902.739 129.483 903.551 Q130.204 904.34 130.204 905.197 Q130.204 905.986 129.731 906.482 Q129.235 906.955 128.536 906.955 Q127.612 906.955 126.845 906.166 Q126.079 905.377 126.079 904.453 Q126.079 903.686 126.552 903.213 Q127.026 902.739 127.747 902.739 M149.998 902.334 Q150.179 902.334 150.9 902.536 Q151.599 902.739 152.681 903.235 Q153.741 903.709 154.732 904.363 Q155.724 905.016 156.423 906.098 Q157.122 907.158 157.122 908.375 Q157.122 910.021 156.04 911.103 Q154.958 912.163 153.335 912.163 Q152.455 912.163 149.637 911.103 Q141.431 908.037 141.093 907.924 Q139.808 907.406 138.681 907.406 Q138.163 907.406 137.847 907.519 Q137.509 907.631 137.396 907.857 Q137.261 908.082 137.238 908.218 Q137.216 908.33 137.216 908.556 Q137.216 909.886 138.568 911.126 Q139.921 912.366 142.942 913.222 Q143.505 913.403 143.641 913.515 Q143.776 913.628 143.776 913.966 Q143.753 914.53 143.303 914.53 Q143.167 914.53 142.649 914.372 Q142.108 914.214 141.296 913.921 Q140.462 913.628 139.605 913.11 Q138.726 912.591 137.96 911.96 Q137.193 911.306 136.697 910.382 Q136.201 909.457 136.201 908.42 Q136.201 906.73 137.306 905.693 Q138.388 904.633 139.989 904.633 Q140.868 904.633 142.423 905.242 Q144.452 905.986 145.106 906.256 L149.953 908.06 Q151.712 908.714 152.253 908.916 Q152.771 909.097 153.402 909.255 Q154.011 909.39 154.575 909.39 Q155.364 909.39 155.724 909.142 Q156.085 908.871 156.085 908.285 Q156.085 906.662 154.484 905.467 Q152.861 904.272 150.381 903.573 Q150.314 903.551 150.201 903.528 Q149.637 903.348 149.57 903.168 Q149.547 903.077 149.547 902.897 Q149.547 902.334 149.998 902.334 Z" fill="#000000" fill-rule="evenodd" fill-opacity="1" /><path clip-path="url(#clip900)" d="M 0 0 M149.592 885.954 Q149.029 885.909 149.029 885.03 L149.029 856.737 Q149.029 855.407 149.547 855.384 Q150.111 855.384 150.088 856.646 L150.088 884.714 Q150.111 885.954 149.592 885.954 M140.575 885.954 Q140.011 885.954 140.034 884.984 L140.034 856.782 Q140.034 855.407 140.575 855.384 Q141.093 855.384 141.093 856.556 L141.093 885.03 Q141.093 885.954 140.575 885.954 Z" fill="#000000" fill-rule="evenodd" fill-opacity="1" /><path clip-path="url(#clip900)" d="M 0 0 M130.25 837.572 L128.807 837.572 Q128.807 832.026 125.853 829.163 Q125.853 828.374 126.034 828.239 Q126.214 828.103 127.048 828.103 L152.951 828.103 Q154.327 828.103 154.755 827.427 Q155.183 826.751 155.183 823.798 L155.183 822.332 L156.604 822.332 Q156.468 823.955 156.468 829.817 Q156.468 835.678 156.604 837.279 L155.183 837.279 L155.183 835.814 Q155.183 832.905 154.778 832.206 Q154.349 831.508 152.951 831.508 L129.032 831.508 Q130.25 833.92 130.25 837.572 Z" fill="#000000" fill-rule="evenodd" fill-opacity="1" /><path clip-path="url(#clip900)" d="M 0 0 M22.7384 887.483 Q21.9042 887.483 21.6563 887.416 Q21.4083 887.326 21.025 886.965 L11.1507 878.105 Q5.69503 873.258 0.938226 873.258 Q-2.15032 873.258 -4.35964 874.881 Q-6.56896 876.482 -6.56896 879.435 Q-6.56896 881.464 -5.32903 883.177 Q-4.08911 884.891 -1.87979 885.68 Q-1.92487 885.545 -1.92487 885.071 Q-1.92487 883.921 -1.20346 883.29 Q-0.482052 882.636 0.487344 882.636 Q1.72727 882.636 2.33596 883.448 Q2.92211 884.237 2.92211 885.026 Q2.92211 885.342 2.85447 885.77 Q2.78684 886.176 2.15561 886.83 Q1.50183 887.483 0.352079 887.483 Q-2.87173 887.483 -5.44176 885.049 Q-8.01178 882.591 -8.01178 878.849 Q-8.01178 874.611 -5.48684 871.838 Q-2.98445 869.042 0.938226 869.042 Q2.31342 869.042 3.57589 869.471 Q4.81581 869.876 5.78521 870.44 Q6.7546 870.981 8.31015 872.469 Q9.86569 873.957 10.9704 875.152 Q12.075 876.347 14.4196 879.029 L19.1764 883.921 L19.1764 875.603 Q19.1764 871.545 18.8157 871.229 Q18.1619 870.778 14.7127 870.215 L14.7127 869.042 L22.7384 870.35 L22.7384 887.483 Z" fill="#000000" fill-rule="evenodd" fill-opacity="1" /><path clip-path="url(#clip900)" d="M 0 0 M7.97199 864.619 Q1.18621 864.619 -2.51102 862.905 Q-8.01178 860.515 -8.01178 854.879 Q-8.01178 853.685 -7.67362 852.445 Q-7.358 851.182 -6.11808 849.604 Q-4.87815 848.004 -2.84918 847.034 Q1.07349 845.186 7.97199 845.186 Q14.7127 845.186 18.3874 846.899 Q23.7529 849.401 23.7529 854.925 Q23.7529 856.999 22.6933 859.118 Q21.6337 861.214 19.0862 862.544 Q15.2763 864.619 7.97199 864.619 M7.40838 860.786 Q14.3745 860.786 17.1474 860.29 Q20.1458 859.726 21.4534 858.193 Q22.7384 856.638 22.7384 854.925 Q22.7384 853.076 21.3632 851.543 Q19.9654 849.987 16.9671 849.514 Q14.0138 848.995 7.40838 849.018 Q0.983314 849.018 -1.58671 849.469 Q-4.58508 850.078 -5.77992 851.701 Q-6.9973 853.301 -6.9973 854.925 Q-6.9973 855.533 -6.81695 856.187 Q-6.63659 856.818 -6.11808 857.743 Q-5.59956 858.667 -4.31455 859.388 Q-3.02954 860.087 -1.09074 860.425 Q1.41165 860.786 7.40838 860.786 Z" fill="#000000" fill-rule="evenodd" fill-opacity="1" /><path clip-path="url(#clip900)" d="M 0 0 M57.4874 770.939 L58.4117 771.503 Q56.9012 774.997 54.489 779.348 Q56.9012 783.699 58.4117 787.194 L57.4874 787.735 Q54.1734 783.925 51.6259 779.348 Q54.1959 774.727 57.4874 770.939 Z" fill="#000000" fill-rule="evenodd" fill-opacity="1" /><path clip-path="url(#clip900)" d="M 0 0 M68.5295 768.354 Q68.5617 768.354 69.7212 768.547 L98.9963 775.89 Q100.542 776.276 102.088 777.371 Q103.666 778.434 105.019 780.141 Q106.404 781.816 107.241 784.392 Q108.111 786.936 108.111 789.867 Q108.111 794.537 107.112 796.598 Q106.146 798.627 104.085 798.627 Q102.281 798.627 101.251 797.5 Q100.252 796.373 100.252 795.084 Q100.252 793.861 100.961 793.217 Q101.669 792.572 102.571 792.572 Q103.57 792.572 104.568 793.249 Q105.598 793.925 105.985 795.278 Q106.661 793.12 106.661 789.996 Q106.661 783.394 99.6726 780.56 Q99.576 780.495 99.5438 780.495 L90.816 778.305 L90.7516 778.402 Q91.3957 778.949 92.1364 779.819 Q92.845 780.656 93.7145 782.46 Q94.5841 784.263 94.5841 786.035 Q94.5841 789.738 91.75 792.283 Q88.8836 794.795 84.1494 794.795 Q80.7034 794.795 77.2573 793.41 Q73.7791 791.993 71.2348 789.803 Q68.6584 787.581 67.0481 784.746 Q65.4378 781.88 65.4378 779.11 Q65.4378 777.178 66.5972 775.536 Q67.7244 773.893 69.5923 772.991 Q68.0464 772.83 67.4023 771.961 Q66.7582 771.059 66.7582 770.286 Q66.7582 769.416 67.2413 768.901 Q67.6922 768.354 68.5295 768.354 M72.5553 773.764 Q72.362 773.764 71.8467 773.893 Q71.2992 774.022 70.4297 774.408 Q69.5601 774.763 68.7872 775.31 Q68.0142 775.858 67.4667 776.856 Q66.887 777.822 66.887 779.046 Q66.887 781.043 68.5617 783.04 Q70.2042 785.036 72.7485 786.421 Q75.1961 787.709 79.9304 788.933 Q84.6647 790.125 87.0801 790.125 Q89.4633 790.125 91.2991 789.094 Q93.1348 788.064 93.1348 785.841 Q93.1348 783.265 90.7516 780.495 Q88.2717 777.629 86.1461 777.146 L73.5536 773.957 Q72.7807 773.764 72.5553 773.764 Z" fill="#000000" fill-rule="evenodd" fill-opacity="1" /><path clip-path="url(#clip900)" d="M 0 0 M39.2712 760.318 Q31.4709 760.318 25.1811 757.41 Q22.5435 756.17 20.3341 754.434 Q18.1248 752.698 17.1554 751.548 Q16.186 750.399 16.186 750.083 Q16.186 749.632 16.6369 749.61 Q16.8623 749.61 17.4259 750.218 Q25.0008 757.658 39.2712 757.635 Q53.5867 757.635 60.8684 750.399 Q61.6575 749.61 61.9055 749.61 Q62.3563 749.61 62.3563 750.083 Q62.3563 750.399 61.432 751.503 Q60.5077 752.608 58.3886 754.321 Q56.2694 756.035 53.6769 757.275 Q47.3871 760.318 39.2712 760.318 Z" fill="#000000" fill-rule="evenodd" fill-opacity="1" /><path clip-path="url(#clip900)" d="M 0 0 M50.8138 742.589 Q49.9796 742.589 49.7316 742.521 Q49.4837 742.431 49.1004 742.07 L39.2261 733.21 Q33.7704 728.363 29.0136 728.363 Q25.9251 728.363 23.7158 729.987 Q21.5064 731.587 21.5064 734.541 Q21.5064 736.57 22.7464 738.283 Q23.9863 739.996 26.1956 740.785 Q26.1505 740.65 26.1505 740.177 Q26.1505 739.027 26.8719 738.396 Q27.5933 737.742 28.5627 737.742 Q29.8027 737.742 30.4114 738.553 Q30.9975 739.342 30.9975 740.132 Q30.9975 740.447 30.9299 740.875 Q30.8622 741.281 30.231 741.935 Q29.5772 742.589 28.4275 742.589 Q25.2037 742.589 22.6336 740.154 Q20.0636 737.697 20.0636 733.954 Q20.0636 729.716 22.5885 726.943 Q25.0909 724.148 29.0136 724.148 Q30.3888 724.148 31.6513 724.576 Q32.8912 724.982 33.8606 725.545 Q34.83 726.087 36.3855 727.574 Q37.9411 729.062 39.0457 730.257 Q40.1504 731.452 42.495 734.135 L47.2518 739.027 L47.2518 730.708 Q47.2518 726.65 46.8911 726.335 Q46.2373 725.884 42.7881 725.32 L42.7881 724.148 L50.8138 725.455 L50.8138 742.589 Z" fill="#000000" fill-rule="evenodd" fill-opacity="1" /><path clip-path="url(#clip900)" d="M 0 0 M61.9055 719.724 Q61.68 719.724 61.1164 719.138 Q53.5416 711.698 39.2712 711.698 Q24.9557 711.698 17.719 718.845 Q16.8849 719.724 16.6369 719.724 Q16.186 719.724 16.186 719.273 Q16.186 718.957 17.1103 717.853 Q18.0346 716.726 20.1538 715.035 Q22.2729 713.321 24.8655 712.059 Q31.1553 709.016 39.2712 709.016 Q47.0714 709.016 53.3612 711.924 Q55.9989 713.164 58.2082 714.9 Q60.4176 716.635 61.3869 717.785 Q62.3563 718.935 62.3563 719.273 Q62.3563 719.724 61.9055 719.724 Z" fill="#000000" fill-rule="evenodd" fill-opacity="1" /><path clip-path="url(#clip900)" d="M 0 0 M78.0947 694.955 Q66.9514 694.955 57.966 690.8 Q54.1979 689.029 51.0418 686.549 Q47.8856 684.069 46.5007 682.427 Q45.1159 680.784 45.1159 680.333 Q45.1159 679.689 45.76 679.657 Q46.082 679.657 46.8872 680.527 Q57.7084 691.154 78.0947 691.122 Q98.5454 691.122 108.948 680.784 Q110.075 679.657 110.429 679.657 Q111.073 679.657 111.073 680.333 Q111.073 680.784 109.753 682.362 Q108.433 683.94 105.405 686.388 Q102.378 688.836 98.6742 690.607 Q89.6888 694.955 78.0947 694.955 Z" fill="#000000" fill-rule="evenodd" fill-opacity="1" /><path clip-path="url(#clip900)" d="M 0 0 M67.2091 638.581 Q67.4989 638.581 68.4973 638.839 Q69.4635 639.064 71.3637 639.805 Q73.2316 640.513 75.325 641.608 Q77.3861 642.671 79.9948 644.636 Q82.6035 646.6 84.8901 649.048 Q89.2057 653.653 91.5245 658.581 Q93.8433 663.476 94.5841 667.663 L94.5841 668.597 Q94.5841 669.627 93.7789 669.627 L90.816 668.919 L74.6809 664.893 Q69.7534 663.637 69.3347 663.637 Q68.9482 663.637 68.755 663.798 Q68.5295 663.927 68.3685 664.7 Q68.2075 665.441 68.2075 666.922 Q68.2075 667.534 68.1753 667.824 Q68.1431 668.082 67.982 668.307 Q67.7888 668.532 67.4023 668.532 Q66.8548 668.532 66.565 668.307 Q66.2429 668.049 66.1785 667.856 Q66.1141 667.663 66.0819 667.276 Q66.0497 666.729 65.8887 664.893 Q65.6954 663.057 65.5666 661.479 Q65.4378 659.901 65.4378 659.225 Q65.4378 658.838 65.631 658.613 Q65.792 658.388 65.9853 658.388 L66.1463 658.355 L92.3941 664.829 Q91.6211 662.445 90.3329 660.094 Q89.0447 657.711 86.9191 655.135 Q84.7613 652.558 82.0882 650.368 Q79.4151 648.178 75.6792 646.246 Q71.9112 644.281 67.5956 643.058 Q66.726 642.832 66.2107 642.285 Q65.6954 641.705 65.5666 641.286 Q65.4378 640.868 65.4378 640.481 Q65.4378 639.612 65.9209 639.096 Q66.3717 638.581 67.2091 638.581 Z" fill="#000000" fill-rule="evenodd" fill-opacity="1" /><path clip-path="url(#clip900)" d="M 0 0 M110.429 637.378 Q110.107 637.378 109.302 636.541 Q98.481 625.913 78.0947 625.913 Q57.644 625.913 47.3059 636.122 Q46.1143 637.378 45.76 637.378 Q45.1159 637.378 45.1159 636.734 Q45.1159 636.283 46.4363 634.705 Q47.7568 633.095 50.7841 630.679 Q53.8115 628.232 57.5151 626.428 Q66.5006 622.08 78.0947 622.08 Q89.2379 622.08 98.2233 626.235 Q101.991 628.006 105.148 630.486 Q108.304 632.966 109.689 634.608 Q111.073 636.251 111.073 636.734 Q111.073 637.378 110.429 637.378 Z" fill="#000000" fill-rule="evenodd" fill-opacity="1" /><path clip-path="url(#clip900)" d="M 0 0 M498.09 14.0809 L498.09 22.0612 Q493.431 19.8332 489.299 18.7395 Q485.167 17.6457 481.319 17.6457 Q474.635 17.6457 470.989 20.2383 Q467.384 22.8309 467.384 27.611 Q467.384 31.6214 469.774 33.6873 Q472.204 35.7128 478.929 36.9686 L483.871 37.9813 Q493.026 39.7232 497.36 44.1387 Q501.735 48.5136 501.735 55.8863 Q501.735 64.6767 495.821 69.2137 Q489.947 73.7508 478.564 73.7508 Q474.27 73.7508 469.409 72.7785 Q464.589 71.8063 459.403 69.9024 L459.403 61.4765 Q464.386 64.2716 469.166 65.6895 Q473.946 67.1073 478.564 67.1073 Q485.572 67.1073 489.38 64.3527 Q493.188 61.598 493.188 56.4939 Q493.188 52.0379 490.433 49.5264 Q487.719 47.0148 481.481 45.759 L476.498 44.7868 Q467.343 42.9639 463.252 39.075 Q459.16 35.1862 459.16 28.2591 Q459.16 20.2383 464.791 15.6203 Q470.462 11.0023 480.387 11.0023 Q484.641 11.0023 489.056 11.7719 Q493.472 12.5416 498.09 14.0809 Z" fill="#000000" fill-rule="evenodd" fill-opacity="1" /><path clip-path="url(#clip900)" d="M 0 0 M513.402 54.671 L513.402 27.2059 L520.856 27.2059 L520.856 54.3874 Q520.856 60.8284 523.367 64.0691 Q525.879 67.2693 530.902 67.2693 Q536.938 67.2693 540.422 63.421 Q543.946 59.5726 543.946 52.9291 L543.946 27.2059 L551.4 27.2059 L551.4 72.576 L543.946 72.576 L543.946 65.6084 Q541.232 69.7404 537.626 71.7658 Q534.062 73.7508 529.322 73.7508 Q521.504 73.7508 517.453 68.8897 Q513.402 64.0286 513.402 54.671 M532.158 26.1121 L532.158 26.1121 Z" fill="#000000" fill-rule="evenodd" fill-opacity="1" /><path clip-path="url(#clip900)" d="M 0 0 M602.076 35.9153 Q604.871 30.8922 608.76 28.5022 Q612.649 26.1121 617.915 26.1121 Q625.004 26.1121 628.853 31.0947 Q632.701 36.0368 632.701 45.1919 L632.701 72.576 L625.207 72.576 L625.207 45.4349 Q625.207 38.913 622.898 35.7533 Q620.589 32.5936 615.849 32.5936 Q610.057 32.5936 606.694 36.4419 Q603.332 40.2903 603.332 46.9338 L603.332 72.576 L595.838 72.576 L595.838 45.4349 Q595.838 38.8725 593.529 35.7533 Q591.22 32.5936 586.399 32.5936 Q580.688 32.5936 577.325 36.4824 Q573.963 40.3308 573.963 46.9338 L573.963 72.576 L566.469 72.576 L566.469 27.2059 L573.963 27.2059 L573.963 34.2544 Q576.515 30.082 580.08 28.0971 Q583.645 26.1121 588.546 26.1121 Q593.488 26.1121 596.932 28.6237 Q600.415 31.1352 602.076 35.9153 Z" fill="#000000" fill-rule="evenodd" fill-opacity="1" /><path clip-path="url(#clip900)" d="M 0 0 M691.52 32.4315 Q685.525 32.4315 682.041 37.1306 Q678.557 41.7891 678.557 49.9314 Q678.557 58.0738 682.001 62.7728 Q685.484 67.4314 691.52 67.4314 Q697.475 67.4314 700.959 62.7323 Q704.443 58.0333 704.443 49.9314 Q704.443 41.8701 700.959 37.1711 Q697.475 32.4315 691.52 32.4315 M691.52 26.1121 Q701.242 26.1121 706.792 32.4315 Q712.342 38.7509 712.342 49.9314 Q712.342 61.0714 706.792 67.4314 Q701.242 73.7508 691.52 73.7508 Q681.758 73.7508 676.208 67.4314 Q670.699 61.0714 670.699 49.9314 Q670.699 38.7509 676.208 32.4315 Q681.758 26.1121 691.52 26.1121 Z" fill="#000000" fill-rule="evenodd" fill-opacity="1" /><path clip-path="url(#clip900)" d="M 0 0 M747.666 9.54393 L747.666 15.7418 L740.536 15.7418 Q736.526 15.7418 734.946 17.3622 Q733.407 18.9825 733.407 23.1955 L733.407 27.2059 L745.681 27.2059 L745.681 32.9987 L733.407 32.9987 L733.407 72.576 L725.912 72.576 L725.912 32.9987 L718.783 32.9987 L718.783 27.2059 L725.912 27.2059 L725.912 24.0462 Q725.912 16.471 729.437 13.0277 Q732.961 9.54393 740.617 9.54393 L747.666 9.54393 Z" fill="#000000" fill-rule="evenodd" fill-opacity="1" /><path clip-path="url(#clip900)" d="M 0 0 M788.782 18.8205 L788.782 41.5461 L799.072 41.5461 Q804.784 41.5461 807.903 38.5889 Q811.022 35.6318 811.022 30.163 Q811.022 24.7348 807.903 21.7777 Q804.784 18.8205 799.072 18.8205 L788.782 18.8205 M780.6 12.096 L799.072 12.096 Q809.24 12.096 814.425 16.714 Q819.65 21.2916 819.65 30.163 Q819.65 39.1155 814.425 43.6931 Q809.24 48.2706 799.072 48.2706 L788.782 48.2706 L788.782 72.576 L780.6 72.576 L780.6 12.096 Z" fill="#000000" fill-rule="evenodd" fill-opacity="1" /><path clip-path="url(#clip900)" d="M 0 0 M868.018 45.1919 L868.018 72.576 L860.565 72.576 L860.565 45.4349 Q860.565 38.994 858.053 35.7938 Q855.541 32.5936 850.518 32.5936 Q844.482 32.5936 840.999 36.4419 Q837.515 40.2903 837.515 46.9338 L837.515 72.576 L830.021 72.576 L830.021 9.54393 L837.515 9.54393 L837.515 34.2544 Q840.188 30.163 843.794 28.1376 Q847.44 26.1121 852.179 26.1121 Q859.997 26.1121 864.008 30.9732 Q868.018 35.7938 868.018 45.1919 Z" fill="#000000" fill-rule="evenodd" fill-opacity="1" /><path clip-path="url(#clip900)" d="M 0 0 M900.466 32.4315 Q894.471 32.4315 890.987 37.1306 Q887.503 41.7891 887.503 49.9314 Q887.503 58.0738 890.946 62.7728 Q894.43 67.4314 900.466 67.4314 Q906.421 67.4314 909.905 62.7323 Q913.388 58.0333 913.388 49.9314 Q913.388 41.8701 909.905 37.1711 Q906.421 32.4315 900.466 32.4315 M900.466 26.1121 Q910.188 26.1121 915.738 32.4315 Q921.288 38.7509 921.288 49.9314 Q921.288 61.0714 915.738 67.4314 Q910.188 73.7508 900.466 73.7508 Q890.703 73.7508 885.154 67.4314 Q879.644 61.0714 879.644 49.9314 Q879.644 38.7509 885.154 32.4315 Q890.703 26.1121 900.466 26.1121 Z" fill="#000000" fill-rule="evenodd" fill-opacity="1" /><path clip-path="url(#clip900)" d="M 0 0 M941.015 14.324 L941.015 27.2059 L956.368 27.2059 L956.368 32.9987 L941.015 32.9987 L941.015 57.6282 Q941.015 63.1779 942.514 64.7578 Q944.054 66.3376 948.712 66.3376 L956.368 66.3376 L956.368 72.576 L948.712 72.576 Q940.084 72.576 936.803 69.3758 Q933.521 66.1351 933.521 57.6282 L933.521 32.9987 L928.053 32.9987 L928.053 27.2059 L933.521 27.2059 L933.521 14.324 L941.015 14.324 Z" fill="#000000" fill-rule="evenodd" fill-opacity="1" /><path clip-path="url(#clip900)" d="M 0 0 M983.753 32.4315 Q977.757 32.4315 974.273 37.1306 Q970.79 41.7891 970.79 49.9314 Q970.79 58.0738 974.233 62.7728 Q977.717 67.4314 983.753 67.4314 Q989.707 67.4314 993.191 62.7323 Q996.675 58.0333 996.675 49.9314 Q996.675 41.8701 993.191 37.1711 Q989.707 32.4315 983.753 32.4315 M983.753 26.1121 Q993.475 26.1121 999.024 32.4315 Q1004.57 38.7509 1004.57 49.9314 Q1004.57 61.0714 999.024 67.4314 Q993.475 73.7508 983.753 73.7508 Q973.99 73.7508 968.44 67.4314 Q962.931 61.0714 962.931 49.9314 Q962.931 38.7509 968.44 32.4315 Q973.99 26.1121 983.753 26.1121 Z" fill="#000000" fill-rule="evenodd" fill-opacity="1" /><path clip-path="url(#clip900)" d="M 0 0 M1054.64 45.1919 L1054.64 72.576 L1047.19 72.576 L1047.19 45.4349 Q1047.19 38.994 1044.68 35.7938 Q1042.17 32.5936 1037.14 32.5936 Q1031.11 32.5936 1027.62 36.4419 Q1024.14 40.2903 1024.14 46.9338 L1024.14 72.576 L1016.65 72.576 L1016.65 27.2059 L1024.14 27.2059 L1024.14 34.2544 Q1026.81 30.163 1030.42 28.1376 Q1034.06 26.1121 1038.8 26.1121 Q1046.62 26.1121 1050.63 30.9732 Q1054.64 35.7938 1054.64 45.1919 Z" fill="#000000" fill-rule="evenodd" fill-opacity="1" /><path clip-path="url(#clip900)" d="M 0 0 M1141.49 16.7545 L1141.49 25.383 Q1137.36 21.5346 1132.66 19.6307 Q1128.01 17.7268 1122.74 17.7268 Q1112.37 17.7268 1106.86 24.0867 Q1101.35 30.4061 1101.35 42.3968 Q1101.35 54.3469 1106.86 60.7069 Q1112.37 67.0263 1122.74 67.0263 Q1128.01 67.0263 1132.66 65.1223 Q1137.36 63.2184 1141.49 59.3701 L1141.49 67.9175 Q1137.2 70.8341 1132.38 72.2924 Q1127.6 73.7508 1122.25 73.7508 Q1108.52 73.7508 1100.62 65.3654 Q1092.72 56.9395 1092.72 42.3968 Q1092.72 27.8135 1100.62 19.4281 Q1108.52 11.0023 1122.25 11.0023 Q1127.68 11.0023 1132.46 12.4606 Q1137.28 13.8784 1141.49 16.7545 Z" fill="#000000" fill-rule="evenodd" fill-opacity="1" /><path clip-path="url(#clip900)" d="M 0 0 M1171.39 32.4315 Q1165.4 32.4315 1161.91 37.1306 Q1158.43 41.7891 1158.43 49.9314 Q1158.43 58.0738 1161.87 62.7728 Q1165.35 67.4314 1171.39 67.4314 Q1177.35 67.4314 1180.83 62.7323 Q1184.31 58.0333 1184.31 49.9314 Q1184.31 41.8701 1180.83 37.1711 Q1177.35 32.4315 1171.39 32.4315 M1171.39 26.1121 Q1181.11 26.1121 1186.66 32.4315 Q1192.21 38.7509 1192.21 49.9314 Q1192.21 61.0714 1186.66 67.4314 Q1181.11 73.7508 1171.39 73.7508 Q1161.63 73.7508 1156.08 67.4314 Q1150.57 61.0714 1150.57 49.9314 Q1150.57 38.7509 1156.08 32.4315 Q1161.63 26.1121 1171.39 26.1121 Z" fill="#000000" fill-rule="evenodd" fill-opacity="1" /><path clip-path="url(#clip900)" d="M 0 0 M1230.86 34.1734 Q1229.6 33.4443 1228.1 33.1202 Q1226.64 32.7556 1224.86 32.7556 Q1218.54 32.7556 1215.14 36.8875 Q1211.78 40.9789 1211.78 48.6757 L1211.78 72.576 L1204.28 72.576 L1204.28 27.2059 L1211.78 27.2059 L1211.78 34.2544 Q1214.13 30.1225 1217.89 28.1376 Q1221.66 26.1121 1227.05 26.1121 Q1227.82 26.1121 1228.75 26.2337 Q1229.68 26.3147 1230.82 26.5172 L1230.86 34.1734 Z" fill="#000000" fill-rule="evenodd" fill-opacity="1" /><path clip-path="url(#clip900)" d="M 0 0 M1263.51 34.1734 Q1262.25 33.4443 1260.75 33.1202 Q1259.3 32.7556 1257.51 32.7556 Q1251.19 32.7556 1247.79 36.8875 Q1244.43 40.9789 1244.43 48.6757 L1244.43 72.576 L1236.93 72.576 L1236.93 27.2059 L1244.43 27.2059 L1244.43 34.2544 Q1246.78 30.1225 1250.55 28.1376 Q1254.31 26.1121 1259.7 26.1121 Q1260.47 26.1121 1261.4 26.2337 Q1262.33 26.3147 1263.47 26.5172 L1263.51 34.1734 Z" fill="#000000" fill-rule="evenodd" fill-opacity="1" /><path clip-path="url(#clip900)" d="M 0 0 M1308.31 48.0275 L1308.31 51.6733 L1274.04 51.6733 Q1274.53 59.3701 1278.66 63.421 Q1282.83 67.4314 1290.24 67.4314 Q1294.54 67.4314 1298.55 66.3781 Q1302.6 65.3249 1306.57 63.2184 L1306.57 70.267 Q1302.56 71.9684 1298.35 72.8596 Q1294.13 73.7508 1289.8 73.7508 Q1278.94 73.7508 1272.58 67.4314 Q1266.26 61.1119 1266.26 50.3365 Q1266.26 39.1965 1272.26 32.6746 Q1278.29 26.1121 1288.5 26.1121 Q1297.66 26.1121 1302.96 32.0264 Q1308.31 37.9003 1308.31 48.0275 M1300.86 45.84 Q1300.78 39.7232 1297.41 36.0774 Q1294.09 32.4315 1288.58 32.4315 Q1282.34 32.4315 1278.58 35.9558 Q1274.85 39.4801 1274.28 45.8805 L1300.86 45.84 Z" fill="#000000" fill-rule="evenodd" fill-opacity="1" /><path clip-path="url(#clip900)" d="M 0 0 M1320.54 9.54393 L1328 9.54393 L1328 72.576 L1320.54 72.576 L1320.54 9.54393 Z" fill="#000000" fill-rule="evenodd" fill-opacity="1" /><path clip-path="url(#clip900)" d="M 0 0 M1364.21 49.7694 Q1355.18 49.7694 1351.7 51.8354 Q1348.21 53.9013 1348.21 58.8839 Q1348.21 62.8538 1350.8 65.2034 Q1353.44 67.5124 1357.93 67.5124 Q1364.13 67.5124 1367.86 63.1374 Q1371.63 58.7219 1371.63 51.4303 L1371.63 49.7694 L1364.21 49.7694 M1379.08 46.6907 L1379.08 72.576 L1371.63 72.576 L1371.63 65.6895 Q1369.07 69.8214 1365.27 71.8063 Q1361.46 73.7508 1355.95 73.7508 Q1348.98 73.7508 1344.85 69.8619 Q1340.76 65.9325 1340.76 59.3701 Q1340.76 51.7138 1345.86 47.825 Q1351.01 43.9361 1361.18 43.9361 L1371.63 43.9361 L1371.63 43.2069 Q1371.63 38.0623 1368.22 35.2672 Q1364.86 32.4315 1358.74 32.4315 Q1354.86 32.4315 1351.17 33.3632 Q1347.48 34.295 1344.08 36.1584 L1344.08 29.2718 Q1348.17 27.692 1352.02 26.9223 Q1355.87 26.1121 1359.51 26.1121 Q1369.36 26.1121 1374.22 31.2163 Q1379.08 36.3204 1379.08 46.6907 Z" fill="#000000" fill-rule="evenodd" fill-opacity="1" /><path clip-path="url(#clip900)" d="M 0 0 M1401.81 14.324 L1401.81 27.2059 L1417.16 27.2059 L1417.16 32.9987 L1401.81 32.9987 L1401.81 57.6282 Q1401.81 63.1779 1403.3 64.7578 Q1404.84 66.3376 1409.5 66.3376 L1417.16 66.3376 L1417.16 72.576 L1409.5 72.576 Q1400.87 72.576 1397.59 69.3758 Q1394.31 66.1351 1394.31 57.6282 L1394.31 32.9987 L1388.84 32.9987 L1388.84 27.2059 L1394.31 27.2059 L1394.31 14.324 L1401.81 14.324 Z" fill="#000000" fill-rule="evenodd" fill-opacity="1" /><path clip-path="url(#clip900)" d="M 0 0 M1426.96 27.2059 L1434.42 27.2059 L1434.42 72.576 L1426.96 72.576 L1426.96 27.2059 M1426.96 9.54393 L1434.42 9.54393 L1434.42 18.9825 L1426.96 18.9825 L1426.96 9.54393 Z" fill="#000000" fill-rule="evenodd" fill-opacity="1" /><path clip-path="url(#clip900)" d="M 0 0 M1467.59 32.4315 Q1461.6 32.4315 1458.11 37.1306 Q1454.63 41.7891 1454.63 49.9314 Q1454.63 58.0738 1458.07 62.7728 Q1461.56 67.4314 1467.59 67.4314 Q1473.55 67.4314 1477.03 62.7323 Q1480.51 58.0333 1480.51 49.9314 Q1480.51 41.8701 1477.03 37.1711 Q1473.55 32.4315 1467.59 32.4315 M1467.59 26.1121 Q1477.31 26.1121 1482.86 32.4315 Q1488.41 38.7509 1488.41 49.9314 Q1488.41 61.0714 1482.86 67.4314 Q1477.31 73.7508 1467.59 73.7508 Q1457.83 73.7508 1452.28 67.4314 Q1446.77 61.0714 1446.77 49.9314 Q1446.77 38.7509 1452.28 32.4315 Q1457.83 26.1121 1467.59 26.1121 Z" fill="#000000" fill-rule="evenodd" fill-opacity="1" /><path clip-path="url(#clip900)" d="M 0 0 M1538.48 45.1919 L1538.48 72.576 L1531.03 72.576 L1531.03 45.4349 Q1531.03 38.994 1528.52 35.7938 Q1526.01 32.5936 1520.98 32.5936 Q1514.95 32.5936 1511.46 36.4419 Q1507.98 40.2903 1507.98 46.9338 L1507.98 72.576 L1500.49 72.576 L1500.49 27.2059 L1507.98 27.2059 L1507.98 34.2544 Q1510.65 30.163 1514.26 28.1376 Q1517.9 26.1121 1522.64 26.1121 Q1530.46 26.1121 1534.47 30.9732 Q1538.48 35.7938 1538.48 45.1919 Z" fill="#000000" fill-rule="evenodd" fill-opacity="1" /><path clip-path="url(#clip900)" d="M 0 0 M1582.27 28.5427 L1582.27 35.5912 Q1579.11 33.9709 1575.71 33.1607 Q1572.31 32.3505 1568.66 32.3505 Q1563.11 32.3505 1560.32 34.0519 Q1557.56 35.7533 1557.56 39.156 Q1557.56 41.7486 1559.55 43.2475 Q1561.53 44.7058 1567.53 46.0426 L1570.08 46.6097 Q1578.02 48.3111 1581.34 51.4303 Q1584.7 54.509 1584.7 60.0587 Q1584.7 66.3781 1579.68 70.0644 Q1574.7 73.7508 1565.95 73.7508 Q1562.3 73.7508 1558.33 73.0216 Q1554.4 72.3329 1550.03 70.9151 L1550.03 63.2184 Q1554.16 65.3654 1558.17 66.4591 Q1562.18 67.5124 1566.11 67.5124 Q1571.38 67.5124 1574.21 65.73 Q1577.05 63.9071 1577.05 60.6258 Q1577.05 57.5877 1574.98 55.9673 Q1572.96 54.3469 1566.03 52.8481 L1563.44 52.2405 Q1556.51 50.7821 1553.43 47.7845 Q1550.35 44.7463 1550.35 39.4801 Q1550.35 33.0797 1554.89 29.5959 Q1559.43 26.1121 1567.77 26.1121 Q1571.9 26.1121 1575.55 26.7198 Q1579.19 27.3274 1582.27 28.5427 Z" fill="#000000" fill-rule="evenodd" fill-opacity="1" /><path clip-path="url(#clip900)" d="M 0 0 M1617.6 27.2059 L1625.5 27.2059 L1639.67 65.2844 L1653.85 27.2059 L1661.75 27.2059 L1644.74 72.576 L1634.61 72.576 L1617.6 27.2059 Z" fill="#000000" fill-rule="evenodd" fill-opacity="1" /><path clip-path="url(#clip900)" d="M 0 0 M1700.97 28.5427 L1700.97 35.5912 Q1697.81 33.9709 1694.4 33.1607 Q1691 32.3505 1687.35 32.3505 Q1681.8 32.3505 1679.01 34.0519 Q1676.25 35.7533 1676.25 39.156 Q1676.25 41.7486 1678.24 43.2475 Q1680.22 44.7058 1686.22 46.0426 L1688.77 46.6097 Q1696.71 48.3111 1700.03 51.4303 Q1703.4 54.509 1703.4 60.0587 Q1703.4 66.3781 1698.37 70.0644 Q1693.39 73.7508 1684.64 73.7508 Q1680.99 73.7508 1677.02 73.0216 Q1673.09 72.3329 1668.72 70.9151 L1668.72 63.2184 Q1672.85 65.3654 1676.86 66.4591 Q1680.87 67.5124 1684.8 67.5124 Q1690.07 67.5124 1692.9 65.73 Q1695.74 63.9071 1695.74 60.6258 Q1695.74 57.5877 1693.67 55.9673 Q1691.65 54.3469 1684.72 52.8481 L1682.13 52.2405 Q1675.2 50.7821 1672.12 47.7845 Q1669.04 44.7463 1669.04 39.4801 Q1669.04 33.0797 1673.58 29.5959 Q1678.12 26.1121 1686.46 26.1121 Q1690.59 26.1121 1694.24 26.7198 Q1697.89 27.3274 1700.97 28.5427 Z" fill="#000000" fill-rule="evenodd" fill-opacity="1" /><path clip-path="url(#clip900)" d="M 0 0 M1741.96 12.096 L1776.72 12.096 L1776.72 18.9825 L1750.14 18.9825 L1750.14 36.8065 L1774.12 36.8065 L1774.12 43.6931 L1750.14 43.6931 L1750.14 72.576 L1741.96 72.576 L1741.96 12.096 Z" fill="#000000" fill-rule="evenodd" fill-opacity="1" /><path clip-path="url(#clip900)" d="M 0 0 M1809.61 34.1734 Q1808.35 33.4443 1806.86 33.1202 Q1805.4 32.7556 1803.62 32.7556 Q1797.3 32.7556 1793.89 36.8875 Q1790.53 40.9789 1790.53 48.6757 L1790.53 72.576 L1783.04 72.576 L1783.04 27.2059 L1790.53 27.2059 L1790.53 34.2544 Q1792.88 30.1225 1796.65 28.1376 Q1800.41 26.1121 1805.8 26.1121 Q1806.57 26.1121 1807.5 26.2337 Q1808.44 26.3147 1809.57 26.5172 L1809.61 34.1734 Z" fill="#000000" fill-rule="evenodd" fill-opacity="1" /><path clip-path="url(#clip900)" d="M 0 0 M1854.41 48.0275 L1854.41 51.6733 L1820.14 51.6733 Q1820.63 59.3701 1824.76 63.421 Q1828.93 67.4314 1836.35 67.4314 Q1840.64 67.4314 1844.65 66.3781 Q1848.7 65.3249 1852.67 63.2184 L1852.67 70.267 Q1848.66 71.9684 1844.45 72.8596 Q1840.24 73.7508 1835.9 73.7508 Q1825.04 73.7508 1818.68 67.4314 Q1812.36 61.1119 1812.36 50.3365 Q1812.36 39.1965 1818.36 32.6746 Q1824.4 26.1121 1834.6 26.1121 Q1843.76 26.1121 1849.07 32.0264 Q1854.41 37.9003 1854.41 48.0275 M1846.96 45.84 Q1846.88 39.7232 1843.52 36.0774 Q1840.19 32.4315 1834.69 32.4315 Q1828.45 32.4315 1824.68 35.9558 Q1820.95 39.4801 1820.39 45.8805 L1846.96 45.84 Z" fill="#000000" fill-rule="evenodd" fill-opacity="1" /><path clip-path="url(#clip900)" d="M 0 0 M1871.1 49.9314 Q1871.1 58.1548 1874.47 62.8538 Q1877.87 67.5124 1883.78 67.5124 Q1889.7 67.5124 1893.1 62.8538 Q1896.5 58.1548 1896.5 49.9314 Q1896.5 41.7081 1893.1 37.0496 Q1889.7 32.3505 1883.78 32.3505 Q1877.87 32.3505 1874.47 37.0496 Q1871.1 41.7081 1871.1 49.9314 M1896.5 65.7705 Q1894.15 69.8214 1890.55 71.8063 Q1886.98 73.7508 1881.96 73.7508 Q1873.74 73.7508 1868.55 67.1883 Q1863.41 60.6258 1863.41 49.9314 Q1863.41 39.2371 1868.55 32.6746 Q1873.74 26.1121 1881.96 26.1121 Q1886.98 26.1121 1890.55 28.0971 Q1894.15 30.0415 1896.5 34.0924 L1896.5 27.2059 L1903.96 27.2059 L1903.96 89.8329 L1896.5 89.8329 L1896.5 65.7705 Z" fill="#000000" fill-rule="evenodd" fill-opacity="1" /><path clip-path="url(#clip900)" d="M 0 0 M1918.54 54.671 L1918.54 27.2059 L1925.99 27.2059 L1925.99 54.3874 Q1925.99 60.8284 1928.5 64.0691 Q1931.02 67.2693 1936.04 67.2693 Q1942.07 67.2693 1945.56 63.421 Q1949.08 59.5726 1949.08 52.9291 L1949.08 27.2059 L1956.54 27.2059 L1956.54 72.576 L1949.08 72.576 L1949.08 65.6084 Q1946.37 69.7404 1942.76 71.7658 Q1939.2 73.7508 1934.46 73.7508 Q1926.64 73.7508 1922.59 68.8897 Q1918.54 64.0286 1918.54 54.671 M1937.29 26.1121 L1937.29 26.1121 Z" fill="#000000" fill-rule="evenodd" fill-opacity="1" /><path clip-path="url(#clip900)" d="M 0 0 M2010.7 48.0275 L2010.7 51.6733 L1976.43 51.6733 Q1976.91 59.3701 1981.04 63.421 Q1985.22 67.4314 1992.63 67.4314 Q1996.92 67.4314 2000.93 66.3781 Q2004.99 65.3249 2008.96 63.2184 L2008.96 70.267 Q2004.94 71.9684 2000.73 72.8596 Q1996.52 73.7508 1992.18 73.7508 Q1981.33 73.7508 1974.97 67.4314 Q1968.65 61.1119 1968.65 50.3365 Q1968.65 39.1965 1974.64 32.6746 Q1980.68 26.1121 1990.89 26.1121 Q2000.04 26.1121 2005.35 32.0264 Q2010.7 37.9003 2010.7 48.0275 M2003.24 45.84 Q2003.16 39.7232 1999.8 36.0774 Q1996.48 32.4315 1990.97 32.4315 Q1984.73 32.4315 1980.96 35.9558 Q1977.24 39.4801 1976.67 45.8805 L2003.24 45.84 Z" fill="#000000" fill-rule="evenodd" fill-opacity="1" /><path clip-path="url(#clip900)" d="M 0 0 M2060.64 45.1919 L2060.64 72.576 L2053.19 72.576 L2053.19 45.4349 Q2053.19 38.994 2050.68 35.7938 Q2048.17 32.5936 2043.14 32.5936 Q2037.11 32.5936 2033.63 36.4419 Q2030.14 40.2903 2030.14 46.9338 L2030.14 72.576 L2022.65 72.576 L2022.65 27.2059 L2030.14 27.2059 L2030.14 34.2544 Q2032.82 30.163 2036.42 28.1376 Q2040.07 26.1121 2044.81 26.1121 Q2052.62 26.1121 2056.63 30.9732 Q2060.64 35.7938 2060.64 45.1919 Z" fill="#000000" fill-rule="evenodd" fill-opacity="1" /><path clip-path="url(#clip900)" d="M 0 0 M2108.16 28.9478 L2108.16 35.9153 Q2105 34.1734 2101.8 33.3227 Q2098.64 32.4315 2095.4 32.4315 Q2088.15 32.4315 2084.14 37.0496 Q2080.13 41.6271 2080.13 49.9314 Q2080.13 58.2358 2084.14 62.8538 Q2088.15 67.4314 2095.4 67.4314 Q2098.64 67.4314 2101.8 66.5807 Q2105 65.6895 2108.16 63.9476 L2108.16 70.8341 Q2105.04 72.2924 2101.68 73.0216 Q2098.36 73.7508 2094.59 73.7508 Q2084.34 73.7508 2078.31 67.3098 Q2072.27 60.8689 2072.27 49.9314 Q2072.27 38.832 2078.35 32.472 Q2084.46 26.1121 2095.08 26.1121 Q2098.52 26.1121 2101.8 26.8413 Q2105.08 27.5299 2108.16 28.9478 Z" fill="#000000" fill-rule="evenodd" fill-opacity="1" /><path clip-path="url(#clip900)" d="M 0 0 M2140 76.7889 Q2136.84 84.8907 2133.84 87.3618 Q2130.85 89.8329 2125.82 89.8329 L2119.87 89.8329 L2119.87 83.5945 L2124.24 83.5945 Q2127.32 83.5945 2129.02 82.1361 Q2130.73 80.6778 2132.79 75.2496 L2134.13 71.8468 L2115.78 27.2059 L2123.68 27.2059 L2137.86 62.6918 L2152.03 27.2059 L2159.93 27.2059 L2140 76.7889 Z" fill="#000000" fill-rule="evenodd" fill-opacity="1" /><polyline clip-path="url(#clip903)" style="stroke:#009af9; stroke-width:4; stroke-opacity:1; fill:none" points="
  325.387,1386.4 329.371,453.758 333.356,641.336 337.34,670.308 341.324,590.076 345.309,568.577 349.293,747.136 353.278,553.934 357.262,437.457 361.247,578.63 
  365.231,402.035 369.216,487.603 373.2,488.33 377.185,529.375 381.169,431.25 385.153,452.613 389.138,460.218 393.122,410.252 397.107,603.084 401.091,659.196 
  405.076,349.812 409.06,459.387 413.045,448.869 417.029,592.911 421.014,786.788 424.998,562.534 428.982,678.143 432.967,507.147 436.951,451 440.936,247.83 
  444.92,367.19 448.905,656.182 452.889,572.05 456.874,758.64 460.858,514.406 464.842,332.253 468.827,651.105 472.811,706.194 476.796,642.309 480.78,651.053 
  484.765,480.245 488.749,575.466 492.734,610.015 496.718,675.542 500.703,522.49 504.687,337.725 508.671,414.92 512.656,558.604 516.64,441.931 520.625,584.135 
  524.609,599.25 528.594,572.818 532.578,671.739 536.563,463.292 540.547,570.348 544.532,698.84 548.516,563.238 552.5,596.52 556.485,434.143 560.469,356.125 
  564.454,407.482 568.438,667.886 572.423,511.558 576.407,573.991 580.392,447.182 584.376,582.597 588.361,377.957 592.345,350.785 596.329,347.131 600.314,513.594 
  604.298,643.443 608.283,454.995 612.267,449.763 616.252,628.466 620.236,451.127 624.221,495.335 628.205,447.57 632.19,333.463 636.174,667.259 640.158,485.761 
  644.143,656.95 648.127,635.629 652.112,421.519 656.096,225.694 660.081,480.395 664.065,533.726 668.05,604.019 672.034,528.705 676.018,618.776 680.003,160.256 
  683.987,624.932 687.972,410.739 691.956,415.153 695.941,621.397 699.925,555.425 703.91,646.188 707.894,588.714 711.879,588.904 715.863,495.32 719.847,599.879 
  723.832,406.395 727.816,547.655 731.801,724.147 735.785,650.881 739.77,662.447 743.754,406.634 747.739,274.733 751.723,577.993 755.708,623.143 759.692,544.704 
  763.676,654.072 767.661,580.974 771.645,638.534 775.63,554.307 779.614,713.432 783.599,680.294 787.583,754.79 791.568,692.844 795.552,704.779 799.537,676.447 
  803.521,513.692 807.505,712.713 811.49,607.591 815.474,694.406 819.459,721.849 823.443,642.566 827.428,624.241 831.412,736.231 835.397,647.5 839.381,530.847 
  843.366,628.103 847.35,472.443 851.334,614.041 855.319,561.731 859.303,584.555 863.288,414.393 867.272,553.626 871.257,491.998 875.241,461.59 879.226,648.147 
  883.21,734.728 887.194,483.451 891.179,563.243 895.163,659.337 899.148,781.101 903.132,692.615 907.117,757.695 911.101,735.138 915.086,435.236 919.07,611.258 
  923.055,621.938 927.039,416.737 931.023,614.511 935.008,722.66 938.992,776.41 942.977,601.801 946.961,646.842 950.946,476.983 954.93,669.899 958.915,746.52 
  962.899,732.826 966.884,831.837 970.868,784.062 974.852,869.984 978.837,706.648 982.821,792.516 986.806,678.135 990.79,664.992 994.775,697.636 998.759,749.39 
  1002.74,592.661 1006.73,648.642 1010.71,736.759 1014.7,532.379 1018.68,706.905 1022.67,702.849 1026.65,825.723 1030.63,563.825 1034.62,672.053 1038.6,708.006 
  1042.59,702.983 1046.57,723.078 1050.56,514.675 1054.54,367.645 1058.53,527.608 1062.51,716.349 1066.49,808.75 1070.48,745.177 1074.46,592.373 1078.45,654.654 
  1082.43,628.732 1086.42,810.601 1090.4,724.182 1094.39,352.794 1098.37,500.909 1102.35,597.674 1106.34,640.987 1110.32,371.719 1114.31,695.627 1118.29,576.867 
  1122.28,550.97 1126.26,697.944 1130.25,621.849 1134.23,695.685 1138.22,596.644 1142.2,621.018 1146.18,835.136 1150.17,583.908 1154.15,679.709 1158.14,594.901 
  1162.12,765.119 1166.11,464.836 1170.09,648.505 1174.08,637.485 1178.06,659.092 1182.04,731.467 1186.03,800.851 1190.01,842.547 1194,799.909 1197.98,821.518 
  1201.97,804.362 1205.95,681.051 1209.94,781.918 1213.92,642.772 1217.9,535.502 1221.89,808.683 1225.87,905.452 1229.86,624.126 1233.84,695.799 1237.83,680.564 
  1241.81,756.542 1245.8,739.042 1249.78,959.954 1253.76,706.676 1257.75,842.516 1261.73,727.827 1265.72,718.519 1269.7,722.351 1273.69,849.54 1277.67,747.984 
  1281.66,801.508 1285.64,666.005 1289.62,676.759 1293.61,689.959 1297.59,731.545 1301.58,771.25 1305.56,906.221 1309.55,831.745 1313.53,728.859 1317.52,905.923 
  1321.5,731.571 1325.48,695.207 1329.47,732.985 1333.45,957.303 1337.44,936.145 1341.42,852.814 1345.41,878.747 1349.39,914.964 1353.38,853.732 1357.36,892.964 
  1361.34,923.841 1365.33,784.664 1369.31,889.495 1373.3,741.93 1377.28,728.365 1381.27,710.345 1385.25,845.295 1389.24,782.923 1393.22,868.184 1397.2,806.474 
  1401.19,706.78 1405.17,749.228 1409.16,808.183 1413.14,956.238 1417.13,711.724 1421.11,893.582 1425.1,822.663 1429.08,818.145 1433.06,663.107 1437.05,757.061 
  1441.03,714.969 1445.02,722.316 1449,718.129 1452.99,739.403 1456.97,802.801 1460.96,907.953 1464.94,770.571 1468.92,644.648 1472.91,873.613 1476.89,699.111 
  1480.88,844.529 1484.86,645.334 1488.85,763.026 1492.83,852.727 1496.82,720.083 1500.8,902.134 1504.78,806.899 1508.77,892.748 1512.75,801.424 1516.74,818.969 
  1520.72,974.02 1524.71,840.068 1528.69,924.666 1532.68,804.868 1536.66,938.68 1540.64,993.89 1544.63,841.937 1548.61,920.254 1552.6,880.766 1556.58,997.176 
  1560.57,712.924 1564.55,738.924 1568.54,867.019 1572.52,911.096 1576.5,893.262 1580.49,958.162 1584.47,863.402 1588.46,892.202 1592.44,759.243 1596.43,973.379 
  1600.41,917.61 1604.4,981.047 1608.38,906.52 1612.36,974.968 1616.35,844.212 1620.33,755.222 1624.32,870.279 1628.3,815.536 1632.29,869.692 1636.27,764.605 
  1640.26,817.074 1644.24,855.899 1648.22,868.158 1652.21,977.633 1656.19,896.822 1660.18,697.417 1664.16,859.883 1668.15,847.539 1672.13,917.488 1676.12,971.874 
  1680.1,970.116 1684.09,909.178 1688.07,1001.09 1692.05,1033.67 1696.04,937.012 1700.02,933.727 1704.01,974.476 1707.99,869.403 1711.98,733.124 1715.96,956.687 
  1719.95,966.369 1723.93,901.889 1727.91,892.414 1731.9,880.389 1735.88,903.957 1739.87,840.791 1743.85,872.141 1747.84,1030.78 1751.82,997.82 1755.81,957.646 
  1759.79,839.497 1763.77,867.415 1767.76,936.691 1771.74,899.568 1775.73,920.163 1779.71,805.589 1783.7,749.595 1787.68,941.231 1791.67,903.283 1795.65,953.912 
  1799.63,938.004 1803.62,824.455 1807.6,896.376 1811.59,847.013 1815.57,898.85 1819.56,938.87 1823.54,916.236 1827.53,973.844 1831.51,993.057 1835.49,966.005 
  1839.48,1041.6 1843.46,947.003 1847.45,932.742 1851.43,894.663 1855.42,989.463 1859.4,847.048 1863.39,844.531 1867.37,1011.6 1871.35,906.414 1875.34,999.901 
  1879.32,964.387 1883.31,807.922 1887.29,948.106 1891.28,943.522 1895.26,830.599 1899.25,963.29 1903.23,886.277 1907.21,957.622 1911.2,955.649 1915.18,1008.98 
  1919.17,965.971 1923.15,992.607 1927.14,1039.09 1931.12,882.829 1935.11,938.768 1939.09,955.659 1943.07,980.635 1947.06,876.053 1951.04,898.855 1955.03,1011.31 
  1959.01,917.974 1963,1015.76 1966.98,1030.5 1970.97,983.442 1974.95,950.6 1978.93,943.466 1982.92,993.619 1986.9,1031.27 1990.89,1006.02 1994.87,957.065 
  1998.86,1026.89 2002.84,908.592 2006.83,952.88 2010.81,924.21 2014.79,1012.68 2018.78,1072.3 2022.76,913.236 2026.75,1020.51 2030.73,1045.62 2034.72,992.271 
  2038.7,980.422 2042.69,943.818 2046.67,950.463 2050.65,1055.67 2054.64,1048.41 2058.62,1072.86 2062.61,1038.22 2066.59,934.194 2070.58,857.149 2074.56,1017.64 
  2078.55,1067.38 2082.53,883.199 2086.51,1057.97 2090.5,908.175 2094.48,963.432 2098.47,983.09 2102.45,1001.71 2106.44,1006.05 2110.42,923.7 2114.41,960.701 
  2118.39,1028.82 2122.37,990.691 2126.36,1040.51 2130.34,1017.53 2134.33,1012.13 2138.31,1033.95 2142.3,1027.59 2146.28,1021.66 2150.27,1043.17 2154.25,984.611 
  2158.23,973.606 2162.22,919.896 2166.2,986.458 2170.19,961.374 2174.17,868.612 2178.16,918.154 2182.14,1035.12 2186.13,954.813 2190.11,866.947 2194.09,981.459 
  2198.08,912.427 2202.06,919.79 2206.05,1064.84 2210.03,967.204 2214.02,1042.63 2218,964.355 2221.99,1078.21 2225.97,1003.3 2229.96,925.773 2233.94,1056.49 
  2237.92,890.831 2241.91,1007.82 2245.89,1034.8 2249.88,993.879 2253.86,979.149 2257.85,913.293 2261.83,944.25 2265.82,1032.1 2269.8,914.75 2273.78,1012.19 
  2277.77,1083.26 2281.75,992.656 2285.74,1007.3 2289.72,992.095 2293.71,1043.33 
  "/>
<polyline clip-path="url(#clip903)" style="stroke:#e26f46; stroke-width:4; stroke-opacity:1; fill:none" stroke-dasharray="16, 10" points="
  483.012,2722.89 483.012,-1176.24 
  "/>
<polyline clip-path="url(#clip903)" style="stroke:#e26f46; stroke-width:4; stroke-opacity:1; fill:none" stroke-dasharray="16, 10" points="
  364.793,2722.89 364.793,-1176.24 
  "/>
<polyline clip-path="url(#clip903)" style="stroke:#e26f46; stroke-width:4; stroke-opacity:1; fill:none" stroke-dasharray="16, 10" points="
  719.449,2722.89 719.449,-1176.24 
  "/>
<polyline clip-path="url(#clip903)" style="stroke:#e26f46; stroke-width:4; stroke-opacity:1; fill:none" stroke-dasharray="16, 10" points="
  443.605,2722.89 443.605,-1176.24 
  "/>
<polyline clip-path="url(#clip903)" style="stroke:#e26f46; stroke-width:4; stroke-opacity:1; fill:none" stroke-dasharray="16, 10" points="
  561.824,2722.89 561.824,-1176.24 
  "/>
<polyline clip-path="url(#clip903)" style="stroke:#e26f46; stroke-width:4; stroke-opacity:1; fill:none" stroke-dasharray="16, 10" points="
  680.043,2722.89 680.043,-1176.24 
  "/>
<path clip-path="url(#clip900)" d="
M1674.88 287.756 L2283.21 287.756 L2283.21 166.796 L1674.88 166.796  Z
  " fill="#ffffff" fill-rule="evenodd" fill-opacity="1"/>
<polyline clip-path="url(#clip900)" style="stroke:#000000; stroke-width:4; stroke-opacity:1; fill:none" points="
  1674.88,287.756 2283.21,287.756 2283.21,166.796 1674.88,166.796 1674.88,287.756 
  "/>
<polyline clip-path="url(#clip900)" style="stroke:#e26f46; stroke-width:4; stroke-opacity:1; fill:none" stroke-dasharray="16, 10" points="
  1698.06,227.276 1837.16,227.276 
  "/>
<path clip-path="url(#clip900)" d="M 0 0 M1876.85 208.537 L1876.85 212.079 L1872.77 212.079 Q1870.48 212.079 1869.58 213.005 Q1868.7 213.931 1868.7 216.338 L1868.7 218.63 L1875.71 218.63 L1875.71 221.94 L1868.7 221.94 L1868.7 244.556 L1864.42 244.556 L1864.42 221.94 L1860.34 221.94 L1860.34 218.63 L1864.42 218.63 L1864.42 216.824 Q1864.42 212.496 1866.43 210.528 Q1868.44 208.537 1872.82 208.537 L1876.85 208.537 Z" fill="#000000" fill-rule="evenodd" fill-opacity="1" /><path clip-path="url(#clip900)" d="M 0 0 M1895.43 222.611 Q1894.72 222.195 1893.86 222.01 Q1893.03 221.801 1892.01 221.801 Q1888.4 221.801 1886.45 224.162 Q1884.53 226.5 1884.53 230.898 L1884.53 244.556 L1880.25 244.556 L1880.25 218.63 L1884.53 218.63 L1884.53 222.658 Q1885.87 220.297 1888.03 219.162 Q1890.18 218.005 1893.26 218.005 Q1893.7 218.005 1894.23 218.074 Q1894.76 218.121 1895.41 218.236 L1895.43 222.611 Z" fill="#000000" fill-rule="evenodd" fill-opacity="1" /><path clip-path="url(#clip900)" d="M 0 0 M1921.04 230.528 L1921.04 232.611 L1901.45 232.611 Q1901.73 237.009 1904.09 239.324 Q1906.48 241.616 1910.71 241.616 Q1913.16 241.616 1915.46 241.014 Q1917.77 240.412 1920.04 239.209 L1920.04 243.236 Q1917.75 244.208 1915.34 244.718 Q1912.93 245.227 1910.46 245.227 Q1904.25 245.227 1900.62 241.616 Q1897.01 238.005 1897.01 231.847 Q1897.01 225.482 1900.43 221.755 Q1903.88 218.005 1909.72 218.005 Q1914.95 218.005 1917.98 221.385 Q1921.04 224.741 1921.04 230.528 M1916.78 229.278 Q1916.73 225.783 1914.81 223.699 Q1912.91 221.616 1909.76 221.616 Q1906.2 221.616 1904.04 223.63 Q1901.91 225.644 1901.59 229.301 L1916.78 229.278 Z" fill="#000000" fill-rule="evenodd" fill-opacity="1" /><path clip-path="url(#clip900)" d="M 0 0 M1930.57 231.616 Q1930.57 236.315 1932.49 239 Q1934.44 241.662 1937.82 241.662 Q1941.2 241.662 1943.14 239 Q1945.09 236.315 1945.09 231.616 Q1945.09 226.917 1943.14 224.255 Q1941.2 221.57 1937.82 221.57 Q1934.44 221.57 1932.49 224.255 Q1930.57 226.917 1930.57 231.616 M1945.09 240.667 Q1943.74 242.982 1941.68 244.116 Q1939.65 245.227 1936.78 245.227 Q1932.08 245.227 1929.11 241.477 Q1926.17 237.727 1926.17 231.616 Q1926.17 225.505 1929.11 221.755 Q1932.08 218.005 1936.78 218.005 Q1939.65 218.005 1941.68 219.139 Q1943.74 220.25 1945.09 222.565 L1945.09 218.63 L1949.35 218.63 L1949.35 254.417 L1945.09 254.417 L1945.09 240.667 Z" fill="#000000" fill-rule="evenodd" fill-opacity="1" /><path clip-path="url(#clip900)" d="M 0 0 M1957.68 234.324 L1957.68 218.63 L1961.94 218.63 L1961.94 234.162 Q1961.94 237.843 1963.37 239.695 Q1964.81 241.523 1967.68 241.523 Q1971.13 241.523 1973.12 239.324 Q1975.13 237.125 1975.13 233.329 L1975.13 218.63 L1979.39 218.63 L1979.39 244.556 L1975.13 244.556 L1975.13 240.574 Q1973.58 242.935 1971.52 244.093 Q1969.48 245.227 1966.78 245.227 Q1962.31 245.227 1959.99 242.449 Q1957.68 239.671 1957.68 234.324 M1968.4 218.005 L1968.4 218.005 Z" fill="#000000" fill-rule="evenodd" fill-opacity="1" /><path clip-path="url(#clip900)" d="M 0 0 M2010.34 230.528 L2010.34 232.611 L1990.76 232.611 Q1991.03 237.009 1993.4 239.324 Q1995.78 241.616 2000.02 241.616 Q2002.47 241.616 2004.76 241.014 Q2007.08 240.412 2009.34 239.209 L2009.34 243.236 Q2007.05 244.208 2004.65 244.718 Q2002.24 245.227 1999.76 245.227 Q1993.56 245.227 1989.92 241.616 Q1986.31 238.005 1986.31 231.847 Q1986.31 225.482 1989.74 221.755 Q1993.19 218.005 1999.02 218.005 Q2004.25 218.005 2007.28 221.385 Q2010.34 224.741 2010.34 230.528 M2006.08 229.278 Q2006.03 225.783 2004.11 223.699 Q2002.22 221.616 1999.07 221.616 Q1995.5 221.616 1993.35 223.63 Q1991.22 225.644 1990.9 229.301 L2006.08 229.278 Z" fill="#000000" fill-rule="evenodd" fill-opacity="1" /><path clip-path="url(#clip900)" d="M 0 0 M2038.88 228.908 L2038.88 244.556 L2034.62 244.556 L2034.62 229.047 Q2034.62 225.366 2033.19 223.537 Q2031.75 221.709 2028.88 221.709 Q2025.43 221.709 2023.44 223.908 Q2021.45 226.107 2021.45 229.903 L2021.45 244.556 L2017.17 244.556 L2017.17 218.63 L2021.45 218.63 L2021.45 222.658 Q2022.98 220.32 2025.04 219.162 Q2027.12 218.005 2029.83 218.005 Q2034.3 218.005 2036.59 220.783 Q2038.88 223.537 2038.88 228.908 Z" fill="#000000" fill-rule="evenodd" fill-opacity="1" /><path clip-path="url(#clip900)" d="M 0 0 M2066.03 219.625 L2066.03 223.607 Q2064.23 222.611 2062.4 222.125 Q2060.59 221.616 2058.74 221.616 Q2054.6 221.616 2052.31 224.255 Q2050.02 226.871 2050.02 231.616 Q2050.02 236.361 2052.31 239 Q2054.6 241.616 2058.74 241.616 Q2060.59 241.616 2062.4 241.13 Q2064.23 240.621 2066.03 239.625 L2066.03 243.56 Q2064.25 244.394 2062.33 244.81 Q2060.43 245.227 2058.28 245.227 Q2052.42 245.227 2048.97 241.546 Q2045.53 237.866 2045.53 231.616 Q2045.53 225.273 2049 221.639 Q2052.49 218.005 2058.56 218.005 Q2060.53 218.005 2062.4 218.422 Q2064.28 218.815 2066.03 219.625 Z" fill="#000000" fill-rule="evenodd" fill-opacity="1" /><path clip-path="url(#clip900)" d="M 0 0 M2084.23 246.963 Q2082.42 251.593 2080.71 253.005 Q2079 254.417 2076.13 254.417 L2072.72 254.417 L2072.72 250.852 L2075.22 250.852 Q2076.98 250.852 2077.96 250.019 Q2078.93 249.185 2080.11 246.083 L2080.87 244.139 L2070.39 218.63 L2074.9 218.63 L2083 238.908 L2091.1 218.63 L2095.62 218.63 L2084.23 246.963 Z" fill="#000000" fill-rule="evenodd" fill-opacity="1" /><path clip-path="url(#clip900)" d="M 0 0 M2133.09 219.394 L2133.09 223.422 Q2131.29 222.496 2129.34 222.033 Q2127.4 221.57 2125.32 221.57 Q2122.15 221.57 2120.55 222.542 Q2118.97 223.514 2118.97 225.459 Q2118.97 226.94 2120.11 227.797 Q2121.24 228.63 2124.67 229.394 L2126.13 229.718 Q2130.66 230.69 2132.56 232.472 Q2134.48 234.232 2134.48 237.403 Q2134.48 241.014 2131.61 243.121 Q2128.77 245.227 2123.77 245.227 Q2121.68 245.227 2119.41 244.81 Q2117.17 244.417 2114.67 243.607 L2114.67 239.209 Q2117.03 240.435 2119.32 241.06 Q2121.61 241.662 2123.86 241.662 Q2126.87 241.662 2128.49 240.644 Q2130.11 239.602 2130.11 237.727 Q2130.11 235.991 2128.93 235.065 Q2127.77 234.139 2123.81 233.283 L2122.33 232.935 Q2118.37 232.102 2116.61 230.389 Q2114.85 228.653 2114.85 225.644 Q2114.85 221.986 2117.45 219.996 Q2120.04 218.005 2124.81 218.005 Q2127.17 218.005 2129.25 218.352 Q2131.34 218.699 2133.09 219.394 Z" fill="#000000" fill-rule="evenodd" fill-opacity="1" /><path clip-path="url(#clip900)" d="M 0 0 M2162.82 228.908 L2162.82 244.556 L2158.56 244.556 L2158.56 229.047 Q2158.56 225.366 2157.12 223.537 Q2155.69 221.709 2152.82 221.709 Q2149.37 221.709 2147.38 223.908 Q2145.39 226.107 2145.39 229.903 L2145.39 244.556 L2141.1 244.556 L2141.1 208.537 L2145.39 208.537 L2145.39 222.658 Q2146.91 220.32 2148.97 219.162 Q2151.06 218.005 2153.77 218.005 Q2158.23 218.005 2160.52 220.783 Q2162.82 223.537 2162.82 228.908 Z" fill="#000000" fill-rule="evenodd" fill-opacity="1" /><path clip-path="url(#clip900)" d="M 0 0 M2171.31 218.63 L2175.57 218.63 L2175.57 244.556 L2171.31 244.556 L2171.31 218.63 M2171.31 208.537 L2175.57 208.537 L2175.57 213.931 L2171.31 213.931 L2171.31 208.537 Z" fill="#000000" fill-rule="evenodd" fill-opacity="1" /><path clip-path="url(#clip900)" d="M 0 0 M2197.61 208.537 L2197.61 212.079 L2193.53 212.079 Q2191.24 212.079 2190.34 213.005 Q2189.46 213.931 2189.46 216.338 L2189.46 218.63 L2196.47 218.63 L2196.47 221.94 L2189.46 221.94 L2189.46 244.556 L2185.18 244.556 L2185.18 221.94 L2181.1 221.94 L2181.1 218.63 L2185.18 218.63 L2185.18 216.824 Q2185.18 212.496 2187.19 210.528 Q2189.21 208.537 2193.58 208.537 L2197.61 208.537 Z" fill="#000000" fill-rule="evenodd" fill-opacity="1" /><path clip-path="url(#clip900)" d="M 0 0 M2204.55 211.269 L2204.55 218.63 L2213.33 218.63 L2213.33 221.94 L2204.55 221.94 L2204.55 236.014 Q2204.55 239.185 2205.41 240.088 Q2206.29 240.991 2208.95 240.991 L2213.33 240.991 L2213.33 244.556 L2208.95 244.556 Q2204.02 244.556 2202.14 242.727 Q2200.27 240.875 2200.27 236.014 L2200.27 221.94 L2197.14 221.94 L2197.14 218.63 L2200.27 218.63 L2200.27 211.269 L2204.55 211.269 Z" fill="#000000" fill-rule="evenodd" fill-opacity="1" /><path clip-path="url(#clip900)" d="M 0 0 M2235.45 219.394 L2235.45 223.422 Q2233.65 222.496 2231.7 222.033 Q2229.76 221.57 2227.68 221.57 Q2224.51 221.57 2222.91 222.542 Q2221.33 223.514 2221.33 225.459 Q2221.33 226.94 2222.47 227.797 Q2223.6 228.63 2227.03 229.394 L2228.49 229.718 Q2233.02 230.69 2234.92 232.472 Q2236.84 234.232 2236.84 237.403 Q2236.84 241.014 2233.97 243.121 Q2231.13 245.227 2226.13 245.227 Q2224.04 245.227 2221.77 244.81 Q2219.53 244.417 2217.03 243.607 L2217.03 239.209 Q2219.39 240.435 2221.68 241.06 Q2223.97 241.662 2226.22 241.662 Q2229.23 241.662 2230.85 240.644 Q2232.47 239.602 2232.47 237.727 Q2232.47 235.991 2231.29 235.065 Q2230.13 234.139 2226.17 233.283 L2224.69 232.935 Q2220.73 232.102 2218.97 230.389 Q2217.21 228.653 2217.21 225.644 Q2217.21 221.986 2219.81 219.996 Q2222.4 218.005 2227.17 218.005 Q2229.53 218.005 2231.61 218.352 Q2233.7 218.699 2235.45 219.394 Z" fill="#000000" fill-rule="evenodd" fill-opacity="1" /></svg>
