<?xml version="1.0" encoding="utf-8"?>
<svg xmlns="http://www.w3.org/2000/svg" xmlns:xlink="http://www.w3.org/1999/xlink" width="600" height="400" viewBox="0 0 2400 1600">
<defs>
  <clipPath id="clip420">
    <rect x="0" y="0" width="2400" height="1600"/>
  </clipPath>
</defs>
<path clip-path="url(#clip420)" d="
M0 1600 L2400 1600 L2400 0 L0 0  Z
  " fill="#ffffff" fill-rule="evenodd" fill-opacity="1"/>
<defs>
  <clipPath id="clip421">
    <rect x="480" y="0" width="1681" height="1600"/>
  </clipPath>
</defs>
<path clip-path="url(#clip420)" d="
M216.922 1423.18 L2352.76 1423.18 L2352.76 123.472 L216.922 123.472  Z
  " fill="#ffffff" fill-rule="evenodd" fill-opacity="1"/>
<defs>
  <clipPath id="clip422">
    <rect x="216" y="123" width="2137" height="1301"/>
  </clipPath>
</defs>
<polyline clip-path="url(#clip422)" style="stroke:#000000; stroke-width:2; stroke-opacity:0.1; fill:none" points="
  277.37,1423.18 277.37,123.472 
  "/>
<polyline clip-path="url(#clip422)" style="stroke:#000000; stroke-width:2; stroke-opacity:0.1; fill:none" points="
  681.165,1423.18 681.165,123.472 
  "/>
<polyline clip-path="url(#clip422)" style="stroke:#000000; stroke-width:2; stroke-opacity:0.1; fill:none" points="
  1084.96,1423.18 1084.96,123.472 
  "/>
<polyline clip-path="url(#clip422)" style="stroke:#000000; stroke-width:2; stroke-opacity:0.1; fill:none" points="
  1488.76,1423.18 1488.76,123.472 
  "/>
<polyline clip-path="url(#clip422)" style="stroke:#000000; stroke-width:2; stroke-opacity:0.1; fill:none" points="
  1892.55,1423.18 1892.55,123.472 
  "/>
<polyline clip-path="url(#clip422)" style="stroke:#000000; stroke-width:2; stroke-opacity:0.1; fill:none" points="
  2296.35,1423.18 2296.35,123.472 
  "/>
<polyline clip-path="url(#clip420)" style="stroke:#000000; stroke-width:4; stroke-opacity:1; fill:none" points="
  216.922,1423.18 2352.76,1423.18 
  "/>
<polyline clip-path="url(#clip420)" style="stroke:#000000; stroke-width:4; stroke-opacity:1; fill:none" points="
  277.37,1423.18 277.37,1407.58 
  "/>
<polyline clip-path="url(#clip420)" style="stroke:#000000; stroke-width:4; stroke-opacity:1; fill:none" points="
  681.165,1423.18 681.165,1407.58 
  "/>
<polyline clip-path="url(#clip420)" style="stroke:#000000; stroke-width:4; stroke-opacity:1; fill:none" points="
  1084.96,1423.18 1084.96,1407.58 
  "/>
<polyline clip-path="url(#clip420)" style="stroke:#000000; stroke-width:4; stroke-opacity:1; fill:none" points="
  1488.76,1423.18 1488.76,1407.58 
  "/>
<polyline clip-path="url(#clip420)" style="stroke:#000000; stroke-width:4; stroke-opacity:1; fill:none" points="
  1892.55,1423.18 1892.55,1407.58 
  "/>
<polyline clip-path="url(#clip420)" style="stroke:#000000; stroke-width:4; stroke-opacity:1; fill:none" points="
  2296.35,1423.18 2296.35,1407.58 
  "/>
<path clip-path="url(#clip420)" d="M 0 0 M277.37 1452.37 Q273.759 1452.37 271.93 1455.94 Q270.125 1459.48 270.125 1466.61 Q270.125 1473.71 271.93 1477.28 Q273.759 1480.82 277.37 1480.82 Q281.004 1480.82 282.81 1477.28 Q284.639 1473.71 284.639 1466.61 Q284.639 1459.48 282.81 1455.94 Q281.004 1452.37 277.37 1452.37 M277.37 1448.67 Q283.18 1448.67 286.236 1453.27 Q289.314 1457.86 289.314 1466.61 Q289.314 1475.33 286.236 1479.94 Q283.18 1484.52 277.37 1484.52 Q271.56 1484.52 268.481 1479.94 Q265.426 1475.33 265.426 1466.61 Q265.426 1457.86 268.481 1453.27 Q271.56 1448.67 277.37 1448.67 Z" fill="#000000" fill-rule="evenodd" fill-opacity="1" /><path clip-path="url(#clip420)" d="M 0 0 M655.853 1479.92 L663.492 1479.92 L663.492 1453.55 L655.182 1455.22 L655.182 1450.96 L663.445 1449.29 L668.121 1449.29 L668.121 1479.92 L675.76 1479.92 L675.76 1483.85 L655.853 1483.85 L655.853 1479.92 Z" fill="#000000" fill-rule="evenodd" fill-opacity="1" /><path clip-path="url(#clip420)" d="M 0 0 M695.205 1452.37 Q691.593 1452.37 689.765 1455.94 Q687.959 1459.48 687.959 1466.61 Q687.959 1473.71 689.765 1477.28 Q691.593 1480.82 695.205 1480.82 Q698.839 1480.82 700.644 1477.28 Q702.473 1473.71 702.473 1466.61 Q702.473 1459.48 700.644 1455.94 Q698.839 1452.37 695.205 1452.37 M695.205 1448.67 Q701.015 1448.67 704.07 1453.27 Q707.149 1457.86 707.149 1466.61 Q707.149 1475.33 704.07 1479.94 Q701.015 1484.52 695.205 1484.52 Q689.394 1484.52 686.316 1479.94 Q683.26 1475.33 683.26 1466.61 Q683.26 1457.86 686.316 1453.27 Q689.394 1448.67 695.205 1448.67 Z" fill="#000000" fill-rule="evenodd" fill-opacity="1" /><path clip-path="url(#clip420)" d="M 0 0 M1063.73 1479.92 L1080.05 1479.92 L1080.05 1483.85 L1058.11 1483.85 L1058.11 1479.92 Q1060.77 1477.16 1065.35 1472.53 Q1069.96 1467.88 1071.14 1466.54 Q1073.39 1464.01 1074.27 1462.28 Q1075.17 1460.52 1075.17 1458.83 Q1075.17 1456.07 1073.22 1454.34 Q1071.3 1452.6 1068.2 1452.6 Q1066 1452.6 1063.55 1453.37 Q1061.12 1454.13 1058.34 1455.68 L1058.34 1450.96 Q1061.16 1449.82 1063.62 1449.25 Q1066.07 1448.67 1068.11 1448.67 Q1073.48 1448.67 1076.67 1451.35 Q1079.87 1454.04 1079.87 1458.53 Q1079.87 1460.66 1079.06 1462.58 Q1078.27 1464.48 1076.16 1467.07 Q1075.59 1467.74 1072.48 1470.96 Q1069.38 1474.15 1063.73 1479.92 Z" fill="#000000" fill-rule="evenodd" fill-opacity="1" /><path clip-path="url(#clip420)" d="M 0 0 M1099.87 1452.37 Q1096.26 1452.37 1094.43 1455.94 Q1092.62 1459.48 1092.62 1466.61 Q1092.62 1473.71 1094.43 1477.28 Q1096.26 1480.82 1099.87 1480.82 Q1103.5 1480.82 1105.31 1477.28 Q1107.14 1473.71 1107.14 1466.61 Q1107.14 1459.48 1105.31 1455.94 Q1103.5 1452.37 1099.87 1452.37 M1099.87 1448.67 Q1105.68 1448.67 1108.73 1453.27 Q1111.81 1457.86 1111.81 1466.61 Q1111.81 1475.33 1108.73 1479.94 Q1105.68 1484.52 1099.87 1484.52 Q1094.06 1484.52 1090.98 1479.94 Q1087.92 1475.33 1087.92 1466.61 Q1087.92 1457.86 1090.98 1453.27 Q1094.06 1448.67 1099.87 1448.67 Z" fill="#000000" fill-rule="evenodd" fill-opacity="1" /><path clip-path="url(#clip420)" d="M 0 0 M1477.6 1465.22 Q1480.95 1465.94 1482.83 1468.2 Q1484.73 1470.47 1484.73 1473.81 Q1484.73 1478.92 1481.21 1481.72 Q1477.69 1484.52 1471.21 1484.52 Q1469.03 1484.52 1466.72 1484.08 Q1464.43 1483.67 1461.97 1482.81 L1461.97 1478.3 Q1463.92 1479.43 1466.23 1480.01 Q1468.55 1480.59 1471.07 1480.59 Q1475.47 1480.59 1477.76 1478.85 Q1480.07 1477.12 1480.07 1473.81 Q1480.07 1470.75 1477.92 1469.04 Q1475.79 1467.3 1471.97 1467.3 L1467.95 1467.3 L1467.95 1463.46 L1472.16 1463.46 Q1475.61 1463.46 1477.44 1462.09 Q1479.26 1460.7 1479.26 1458.11 Q1479.26 1455.45 1477.37 1454.04 Q1475.49 1452.6 1471.97 1452.6 Q1470.05 1452.6 1467.85 1453.02 Q1465.65 1453.44 1463.01 1454.31 L1463.01 1450.15 Q1465.68 1449.41 1467.99 1449.04 Q1470.33 1448.67 1472.39 1448.67 Q1477.71 1448.67 1480.82 1451.1 Q1483.92 1453.5 1483.92 1457.63 Q1483.92 1460.5 1482.27 1462.49 Q1480.63 1464.45 1477.6 1465.22 Z" fill="#000000" fill-rule="evenodd" fill-opacity="1" /><path clip-path="url(#clip420)" d="M 0 0 M1503.59 1452.37 Q1499.98 1452.37 1498.15 1455.94 Q1496.35 1459.48 1496.35 1466.61 Q1496.35 1473.71 1498.15 1477.28 Q1499.98 1480.82 1503.59 1480.82 Q1507.23 1480.82 1509.03 1477.28 Q1510.86 1473.71 1510.86 1466.61 Q1510.86 1459.48 1509.03 1455.94 Q1507.23 1452.37 1503.59 1452.37 M1503.59 1448.67 Q1509.4 1448.67 1512.46 1453.27 Q1515.54 1457.86 1515.54 1466.61 Q1515.54 1475.33 1512.46 1479.94 Q1509.4 1484.52 1503.59 1484.52 Q1497.78 1484.52 1494.7 1479.94 Q1491.65 1475.33 1491.65 1466.61 Q1491.65 1457.86 1494.7 1453.27 Q1497.78 1448.67 1503.59 1448.67 Z" fill="#000000" fill-rule="evenodd" fill-opacity="1" /><path clip-path="url(#clip420)" d="M 0 0 M1880.72 1453.37 L1868.92 1471.81 L1880.72 1471.81 L1880.72 1453.37 M1879.5 1449.29 L1885.37 1449.29 L1885.37 1471.81 L1890.31 1471.81 L1890.31 1475.7 L1885.37 1475.7 L1885.37 1483.85 L1880.72 1483.85 L1880.72 1475.7 L1865.12 1475.7 L1865.12 1471.19 L1879.5 1449.29 Z" fill="#000000" fill-rule="evenodd" fill-opacity="1" /><path clip-path="url(#clip420)" d="M 0 0 M1908.04 1452.37 Q1904.43 1452.37 1902.6 1455.94 Q1900.79 1459.48 1900.79 1466.61 Q1900.79 1473.71 1902.6 1477.28 Q1904.43 1480.82 1908.04 1480.82 Q1911.67 1480.82 1913.48 1477.28 Q1915.31 1473.71 1915.31 1466.61 Q1915.31 1459.48 1913.48 1455.94 Q1911.67 1452.37 1908.04 1452.37 M1908.04 1448.67 Q1913.85 1448.67 1916.9 1453.27 Q1919.98 1457.86 1919.98 1466.61 Q1919.98 1475.33 1916.9 1479.94 Q1913.85 1484.52 1908.04 1484.52 Q1902.23 1484.52 1899.15 1479.94 Q1896.09 1475.33 1896.09 1466.61 Q1896.09 1457.86 1899.15 1453.27 Q1902.23 1448.67 1908.04 1448.67 Z" fill="#000000" fill-rule="evenodd" fill-opacity="1" /><path clip-path="url(#clip420)" d="M 0 0 M2271.04 1449.29 L2289.4 1449.29 L2289.4 1453.23 L2275.33 1453.23 L2275.33 1461.7 Q2276.35 1461.35 2277.36 1461.19 Q2278.38 1461 2279.4 1461 Q2285.19 1461 2288.57 1464.18 Q2291.95 1467.35 2291.95 1472.76 Q2291.95 1478.34 2288.48 1481.44 Q2285 1484.52 2278.68 1484.52 Q2276.51 1484.52 2274.24 1484.15 Q2271.99 1483.78 2269.59 1483.04 L2269.59 1478.34 Q2271.67 1479.48 2273.89 1480.03 Q2276.11 1480.59 2278.59 1480.59 Q2282.6 1480.59 2284.93 1478.48 Q2287.27 1476.38 2287.27 1472.76 Q2287.27 1469.15 2284.93 1467.05 Q2282.6 1464.94 2278.59 1464.94 Q2276.72 1464.94 2274.84 1465.36 Q2272.99 1465.77 2271.04 1466.65 L2271.04 1449.29 Z" fill="#000000" fill-rule="evenodd" fill-opacity="1" /><path clip-path="url(#clip420)" d="M 0 0 M2311.16 1452.37 Q2307.55 1452.37 2305.72 1455.94 Q2303.92 1459.48 2303.92 1466.61 Q2303.92 1473.71 2305.72 1477.28 Q2307.55 1480.82 2311.16 1480.82 Q2314.79 1480.82 2316.6 1477.28 Q2318.43 1473.71 2318.43 1466.61 Q2318.43 1459.48 2316.6 1455.94 Q2314.79 1452.37 2311.16 1452.37 M2311.16 1448.67 Q2316.97 1448.67 2320.03 1453.27 Q2323.1 1457.86 2323.1 1466.61 Q2323.1 1475.33 2320.03 1479.94 Q2316.97 1484.52 2311.16 1484.52 Q2305.35 1484.52 2302.27 1479.94 Q2299.22 1475.33 2299.22 1466.61 Q2299.22 1457.86 2302.27 1453.27 Q2305.35 1448.67 2311.16 1448.67 Z" fill="#000000" fill-rule="evenodd" fill-opacity="1" /><path clip-path="url(#clip420)" d="M 0 0 M1044.95 1518.52 L1044.95 1523.39 L1039.35 1523.39 Q1036.19 1523.39 1034.95 1524.66 Q1033.74 1525.93 1033.74 1529.24 L1033.74 1532.4 L1043.39 1532.4 L1043.39 1536.95 L1033.74 1536.95 L1033.74 1568.04 L1027.86 1568.04 L1027.86 1536.95 L1022.25 1536.95 L1022.25 1532.4 L1027.86 1532.4 L1027.86 1529.91 Q1027.86 1523.96 1030.62 1521.26 Q1033.39 1518.52 1039.41 1518.52 L1044.95 1518.52 Z" fill="#000000" fill-rule="evenodd" fill-opacity="1" /><path clip-path="url(#clip420)" d="M 0 0 M1070.51 1537.87 Q1069.52 1537.3 1068.34 1537.04 Q1067.2 1536.76 1065.79 1536.76 Q1060.83 1536.76 1058.16 1540 Q1055.51 1543.22 1055.51 1549.27 L1055.51 1568.04 L1049.63 1568.04 L1049.63 1532.4 L1055.51 1532.4 L1055.51 1537.93 Q1057.36 1534.69 1060.32 1533.13 Q1063.28 1531.54 1067.51 1531.54 Q1068.12 1531.54 1068.85 1531.63 Q1069.58 1531.7 1070.47 1531.85 L1070.51 1537.87 Z" fill="#000000" fill-rule="evenodd" fill-opacity="1" /><path clip-path="url(#clip420)" d="M 0 0 M1105.71 1548.76 L1105.71 1551.62 L1078.78 1551.62 Q1079.16 1557.67 1082.41 1560.85 Q1085.69 1564 1091.51 1564 Q1094.89 1564 1098.04 1563.17 Q1101.22 1562.35 1104.34 1560.69 L1104.34 1566.23 Q1101.19 1567.57 1097.88 1568.27 Q1094.57 1568.97 1091.16 1568.97 Q1082.63 1568.97 1077.64 1564 Q1072.67 1559.04 1072.67 1550.57 Q1072.67 1541.82 1077.38 1536.69 Q1082.12 1531.54 1090.14 1531.54 Q1097.34 1531.54 1101.51 1536.18 Q1105.71 1540.8 1105.71 1548.76 M1099.85 1547.04 Q1099.79 1542.23 1097.15 1539.37 Q1094.54 1536.5 1090.21 1536.5 Q1085.31 1536.5 1082.35 1539.27 Q1079.42 1542.04 1078.97 1547.07 L1099.85 1547.04 Z" fill="#000000" fill-rule="evenodd" fill-opacity="1" /><path clip-path="url(#clip420)" d="M 0 0 M1118.82 1550.25 Q1118.82 1556.71 1121.46 1560.4 Q1124.14 1564.07 1128.78 1564.07 Q1133.43 1564.07 1136.1 1560.4 Q1138.78 1556.71 1138.78 1550.25 Q1138.78 1543.79 1136.1 1540.13 Q1133.43 1536.44 1128.78 1536.44 Q1124.14 1536.44 1121.46 1540.13 Q1118.82 1543.79 1118.82 1550.25 M1138.78 1562.7 Q1136.93 1565.88 1134.1 1567.44 Q1131.3 1568.97 1127.35 1568.97 Q1120.89 1568.97 1116.82 1563.81 Q1112.77 1558.65 1112.77 1550.25 Q1112.77 1541.85 1116.82 1536.69 Q1120.89 1531.54 1127.35 1531.54 Q1131.3 1531.54 1134.1 1533.1 Q1136.93 1534.62 1138.78 1537.81 L1138.78 1532.4 L1144.63 1532.4 L1144.63 1581.6 L1138.78 1581.6 L1138.78 1562.7 Z" fill="#000000" fill-rule="evenodd" fill-opacity="1" /><path clip-path="url(#clip420)" d="M 0 0 M1156.09 1553.98 L1156.09 1532.4 L1161.95 1532.4 L1161.95 1553.75 Q1161.95 1558.81 1163.92 1561.36 Q1165.9 1563.87 1169.84 1563.87 Q1174.58 1563.87 1177.32 1560.85 Q1180.09 1557.83 1180.09 1552.61 L1180.09 1532.4 L1185.95 1532.4 L1185.95 1568.04 L1180.09 1568.04 L1180.09 1562.57 Q1177.96 1565.82 1175.13 1567.41 Q1172.33 1568.97 1168.6 1568.97 Q1162.46 1568.97 1159.28 1565.15 Q1156.09 1561.33 1156.09 1553.98 M1170.83 1531.54 L1170.83 1531.54 Z" fill="#000000" fill-rule="evenodd" fill-opacity="1" /><path clip-path="url(#clip420)" d="M 0 0 M1228.5 1548.76 L1228.5 1551.62 L1201.58 1551.62 Q1201.96 1557.67 1205.2 1560.85 Q1208.48 1564 1214.31 1564 Q1217.68 1564 1220.83 1563.17 Q1224.01 1562.35 1227.13 1560.69 L1227.13 1566.23 Q1223.98 1567.57 1220.67 1568.27 Q1217.36 1568.97 1213.96 1568.97 Q1205.43 1568.97 1200.43 1564 Q1195.46 1559.04 1195.46 1550.57 Q1195.46 1541.82 1200.18 1536.69 Q1204.92 1531.54 1212.94 1531.54 Q1220.13 1531.54 1224.3 1536.18 Q1228.5 1540.8 1228.5 1548.76 M1222.65 1547.04 Q1222.58 1542.23 1219.94 1539.37 Q1217.33 1536.5 1213 1536.5 Q1208.1 1536.5 1205.14 1539.27 Q1202.21 1542.04 1201.77 1547.07 L1222.65 1547.04 Z" fill="#000000" fill-rule="evenodd" fill-opacity="1" /><path clip-path="url(#clip420)" d="M 0 0 M1267.75 1546.53 L1267.75 1568.04 L1261.89 1568.04 L1261.89 1546.72 Q1261.89 1541.66 1259.92 1539.14 Q1257.94 1536.63 1254 1536.63 Q1249.25 1536.63 1246.52 1539.65 Q1243.78 1542.68 1243.78 1547.9 L1243.78 1568.04 L1237.89 1568.04 L1237.89 1532.4 L1243.78 1532.4 L1243.78 1537.93 Q1245.88 1534.72 1248.71 1533.13 Q1251.58 1531.54 1255.3 1531.54 Q1261.44 1531.54 1264.6 1535.36 Q1267.75 1539.14 1267.75 1546.53 Z" fill="#000000" fill-rule="evenodd" fill-opacity="1" /><path clip-path="url(#clip420)" d="M 0 0 M1305.08 1533.76 L1305.08 1539.24 Q1302.6 1537.87 1300.08 1537.2 Q1297.6 1536.5 1295.06 1536.5 Q1289.36 1536.5 1286.21 1540.13 Q1283.06 1543.73 1283.06 1550.25 Q1283.06 1556.78 1286.21 1560.4 Q1289.36 1564 1295.06 1564 Q1297.6 1564 1300.08 1563.33 Q1302.6 1562.63 1305.08 1561.26 L1305.08 1566.68 Q1302.63 1567.82 1299.99 1568.39 Q1297.38 1568.97 1294.42 1568.97 Q1286.37 1568.97 1281.62 1563.91 Q1276.88 1558.85 1276.88 1550.25 Q1276.88 1541.53 1281.66 1536.53 Q1286.46 1531.54 1294.8 1531.54 Q1297.51 1531.54 1300.08 1532.11 Q1302.66 1532.65 1305.08 1533.76 Z" fill="#000000" fill-rule="evenodd" fill-opacity="1" /><path clip-path="url(#clip420)" d="M 0 0 M1330.1 1571.35 Q1327.62 1577.72 1325.26 1579.66 Q1322.91 1581.6 1318.96 1581.6 L1314.28 1581.6 L1314.28 1576.7 L1317.72 1576.7 Q1320.14 1576.7 1321.47 1575.56 Q1322.81 1574.41 1324.43 1570.14 L1325.48 1567.47 L1311.07 1532.4 L1317.27 1532.4 L1328.41 1560.28 L1339.55 1532.4 L1345.76 1532.4 L1330.1 1571.35 Z" fill="#000000" fill-rule="evenodd" fill-opacity="1" /><path clip-path="url(#clip420)" d="M 0 0 M1388.63 1518.58 Q1384.37 1525.9 1382.3 1533.06 Q1380.23 1540.23 1380.23 1547.58 Q1380.23 1554.93 1382.3 1562.16 Q1384.4 1569.35 1388.63 1576.64 L1383.54 1576.64 Q1378.76 1569.16 1376.38 1561.93 Q1374.02 1554.71 1374.02 1547.58 Q1374.02 1540.48 1376.38 1533.29 Q1378.73 1526.09 1383.54 1518.58 L1388.63 1518.58 Z" fill="#000000" fill-rule="evenodd" fill-opacity="1" /><path clip-path="url(#clip420)" d="M 0 0 M1432.65 1561.26 L1432.65 1548.5 L1422.15 1548.5 L1422.15 1543.22 L1439.02 1543.22 L1439.02 1563.62 Q1435.29 1566.26 1430.8 1567.63 Q1426.32 1568.97 1421.22 1568.97 Q1410.08 1568.97 1403.78 1562.47 Q1397.51 1555.95 1397.51 1544.33 Q1397.51 1532.68 1403.78 1526.19 Q1410.08 1519.66 1421.22 1519.66 Q1425.87 1519.66 1430.04 1520.81 Q1434.24 1521.96 1437.78 1524.18 L1437.78 1531.03 Q1434.21 1528 1430.2 1526.48 Q1426.19 1524.95 1421.77 1524.95 Q1413.04 1524.95 1408.65 1529.82 Q1404.29 1534.69 1404.29 1544.33 Q1404.29 1553.94 1408.65 1558.81 Q1413.04 1563.68 1421.77 1563.68 Q1425.17 1563.68 1427.84 1563.11 Q1430.52 1562.51 1432.65 1561.26 Z" fill="#000000" fill-rule="evenodd" fill-opacity="1" /><path clip-path="url(#clip420)" d="M 0 0 M1450.76 1520.52 L1457.19 1520.52 L1457.19 1540 L1480.55 1540 L1480.55 1520.52 L1486.98 1520.52 L1486.98 1568.04 L1480.55 1568.04 L1480.55 1545.41 L1457.19 1545.41 L1457.19 1568.04 L1450.76 1568.04 L1450.76 1520.52 Z" fill="#000000" fill-rule="evenodd" fill-opacity="1" /><path clip-path="url(#clip420)" d="M 0 0 M1496.98 1532.4 L1524.79 1532.4 L1524.79 1537.74 L1502.77 1563.37 L1524.79 1563.37 L1524.79 1568.04 L1496.18 1568.04 L1496.18 1562.7 L1518.21 1537.07 L1496.98 1537.07 L1496.98 1532.4 Z" fill="#000000" fill-rule="evenodd" fill-opacity="1" /><path clip-path="url(#clip420)" d="M 0 0 M1532.82 1518.58 L1537.91 1518.58 Q1542.68 1526.09 1545.04 1533.29 Q1547.42 1540.48 1547.42 1547.58 Q1547.42 1554.71 1545.04 1561.93 Q1542.68 1569.16 1537.91 1576.64 L1532.82 1576.64 Q1537.05 1569.35 1539.12 1562.16 Q1541.22 1554.93 1541.22 1547.58 Q1541.22 1540.23 1539.12 1533.06 Q1537.05 1525.9 1532.82 1518.58 Z" fill="#000000" fill-rule="evenodd" fill-opacity="1" /><polyline clip-path="url(#clip422)" style="stroke:#000000; stroke-width:2; stroke-opacity:0.1; fill:none" points="
  216.922,1386.4 2352.76,1386.4 
  "/>
<polyline clip-path="url(#clip422)" style="stroke:#000000; stroke-width:2; stroke-opacity:0.1; fill:none" points="
  216.922,1109.46 2352.76,1109.46 
  "/>
<polyline clip-path="url(#clip422)" style="stroke:#000000; stroke-width:2; stroke-opacity:0.1; fill:none" points="
  216.922,832.53 2352.76,832.53 
  "/>
<polyline clip-path="url(#clip422)" style="stroke:#000000; stroke-width:2; stroke-opacity:0.1; fill:none" points="
  216.922,555.598 2352.76,555.598 
  "/>
<polyline clip-path="url(#clip422)" style="stroke:#000000; stroke-width:2; stroke-opacity:0.1; fill:none" points="
  216.922,278.665 2352.76,278.665 
  "/>
<polyline clip-path="url(#clip420)" style="stroke:#000000; stroke-width:4; stroke-opacity:1; fill:none" points="
  216.922,1423.18 216.922,123.472 
  "/>
<polyline clip-path="url(#clip420)" style="stroke:#000000; stroke-width:4; stroke-opacity:1; fill:none" points="
  216.922,1386.4 242.552,1386.4 
  "/>
<polyline clip-path="url(#clip420)" style="stroke:#000000; stroke-width:4; stroke-opacity:1; fill:none" points="
  216.922,1109.46 242.552,1109.46 
  "/>
<polyline clip-path="url(#clip420)" style="stroke:#000000; stroke-width:4; stroke-opacity:1; fill:none" points="
  216.922,832.53 242.552,832.53 
  "/>
<polyline clip-path="url(#clip420)" style="stroke:#000000; stroke-width:4; stroke-opacity:1; fill:none" points="
  216.922,555.598 242.552,555.598 
  "/>
<polyline clip-path="url(#clip420)" style="stroke:#000000; stroke-width:4; stroke-opacity:1; fill:none" points="
  216.922,278.665 242.552,278.665 
  "/>
<path clip-path="url(#clip420)" d="M 0 0 M63.4226 1372.19 Q59.8115 1372.19 57.9828 1375.76 Q56.1773 1379.3 56.1773 1386.43 Q56.1773 1393.54 57.9828 1397.1 Q59.8115 1400.64 63.4226 1400.64 Q67.0569 1400.64 68.8624 1397.1 Q70.6911 1393.54 70.6911 1386.43 Q70.6911 1379.3 68.8624 1375.76 Q67.0569 1372.19 63.4226 1372.19 M63.4226 1368.49 Q69.2328 1368.49 72.2883 1373.1 Q75.367 1377.68 75.367 1386.43 Q75.367 1395.16 72.2883 1399.76 Q69.2328 1404.35 63.4226 1404.35 Q57.6125 1404.35 54.5338 1399.76 Q51.4782 1395.16 51.4782 1386.43 Q51.4782 1377.68 54.5338 1373.1 Q57.6125 1368.49 63.4226 1368.49 Z" fill="#000000" fill-rule="evenodd" fill-opacity="1" /><path clip-path="url(#clip420)" d="M 0 0 M83.5845 1397.8 L88.4688 1397.8 L88.4688 1403.68 L83.5845 1403.68 L83.5845 1397.8 Z" fill="#000000" fill-rule="evenodd" fill-opacity="1" /><path clip-path="url(#clip420)" d="M 0 0 M108.654 1372.19 Q105.043 1372.19 103.214 1375.76 Q101.409 1379.3 101.409 1386.43 Q101.409 1393.54 103.214 1397.1 Q105.043 1400.64 108.654 1400.64 Q112.288 1400.64 114.094 1397.1 Q115.922 1393.54 115.922 1386.43 Q115.922 1379.3 114.094 1375.76 Q112.288 1372.19 108.654 1372.19 M108.654 1368.49 Q114.464 1368.49 117.52 1373.1 Q120.598 1377.68 120.598 1386.43 Q120.598 1395.16 117.52 1399.76 Q114.464 1404.35 108.654 1404.35 Q102.844 1404.35 99.765 1399.76 Q96.7095 1395.16 96.7095 1386.43 Q96.7095 1377.68 99.765 1373.1 Q102.844 1368.49 108.654 1368.49 Z" fill="#000000" fill-rule="evenodd" fill-opacity="1" /><path clip-path="url(#clip420)" d="M 0 0 M138.816 1372.19 Q135.205 1372.19 133.376 1375.76 Q131.57 1379.3 131.57 1386.43 Q131.57 1393.54 133.376 1397.1 Q135.205 1400.64 138.816 1400.64 Q142.45 1400.64 144.256 1397.1 Q146.084 1393.54 146.084 1386.43 Q146.084 1379.3 144.256 1375.76 Q142.45 1372.19 138.816 1372.19 M138.816 1368.49 Q144.626 1368.49 147.681 1373.1 Q150.76 1377.68 150.76 1386.43 Q150.76 1395.16 147.681 1399.76 Q144.626 1404.35 138.816 1404.35 Q133.006 1404.35 129.927 1399.76 Q126.871 1395.16 126.871 1386.43 Q126.871 1377.68 129.927 1373.1 Q133.006 1368.49 138.816 1368.49 Z" fill="#000000" fill-rule="evenodd" fill-opacity="1" /><path clip-path="url(#clip420)" d="M 0 0 M168.978 1372.19 Q165.367 1372.19 163.538 1375.76 Q161.732 1379.3 161.732 1386.43 Q161.732 1393.54 163.538 1397.1 Q165.367 1400.64 168.978 1400.64 Q172.612 1400.64 174.417 1397.1 Q176.246 1393.54 176.246 1386.43 Q176.246 1379.3 174.417 1375.76 Q172.612 1372.19 168.978 1372.19 M168.978 1368.49 Q174.788 1368.49 177.843 1373.1 Q180.922 1377.68 180.922 1386.43 Q180.922 1395.16 177.843 1399.76 Q174.788 1404.35 168.978 1404.35 Q163.167 1404.35 160.089 1399.76 Q157.033 1395.16 157.033 1386.43 Q157.033 1377.68 160.089 1373.1 Q163.167 1368.49 168.978 1368.49 Z" fill="#000000" fill-rule="evenodd" fill-opacity="1" /><path clip-path="url(#clip420)" d="M 0 0 M64.6495 1095.26 Q61.0384 1095.26 59.2097 1098.83 Q57.4041 1102.37 57.4041 1109.5 Q57.4041 1116.6 59.2097 1120.17 Q61.0384 1123.71 64.6495 1123.71 Q68.2837 1123.71 70.0892 1120.17 Q71.9179 1116.6 71.9179 1109.5 Q71.9179 1102.37 70.0892 1098.83 Q68.2837 1095.26 64.6495 1095.26 M64.6495 1091.56 Q70.4596 1091.56 73.5152 1096.16 Q76.5938 1100.75 76.5938 1109.5 Q76.5938 1118.22 73.5152 1122.83 Q70.4596 1127.41 64.6495 1127.41 Q58.8393 1127.41 55.7606 1122.83 Q52.7051 1118.22 52.7051 1109.5 Q52.7051 1100.75 55.7606 1096.16 Q58.8393 1091.56 64.6495 1091.56 Z" fill="#000000" fill-rule="evenodd" fill-opacity="1" /><path clip-path="url(#clip420)" d="M 0 0 M84.8114 1120.86 L89.6956 1120.86 L89.6956 1126.74 L84.8114 1126.74 L84.8114 1120.86 Z" fill="#000000" fill-rule="evenodd" fill-opacity="1" /><path clip-path="url(#clip420)" d="M 0 0 M109.881 1095.26 Q106.27 1095.26 104.441 1098.83 Q102.635 1102.37 102.635 1109.5 Q102.635 1116.6 104.441 1120.17 Q106.27 1123.71 109.881 1123.71 Q113.515 1123.71 115.32 1120.17 Q117.149 1116.6 117.149 1109.5 Q117.149 1102.37 115.32 1098.83 Q113.515 1095.26 109.881 1095.26 M109.881 1091.56 Q115.691 1091.56 118.746 1096.16 Q121.825 1100.75 121.825 1109.5 Q121.825 1118.22 118.746 1122.83 Q115.691 1127.41 109.881 1127.41 Q104.071 1127.41 100.992 1122.83 Q97.9363 1118.22 97.9363 1109.5 Q97.9363 1100.75 100.992 1096.16 Q104.071 1091.56 109.881 1091.56 Z" fill="#000000" fill-rule="evenodd" fill-opacity="1" /><path clip-path="url(#clip420)" d="M 0 0 M140.043 1095.26 Q136.431 1095.26 134.603 1098.83 Q132.797 1102.37 132.797 1109.5 Q132.797 1116.6 134.603 1120.17 Q136.431 1123.71 140.043 1123.71 Q143.677 1123.71 145.482 1120.17 Q147.311 1116.6 147.311 1109.5 Q147.311 1102.37 145.482 1098.83 Q143.677 1095.26 140.043 1095.26 M140.043 1091.56 Q145.853 1091.56 148.908 1096.16 Q151.987 1100.75 151.987 1109.5 Q151.987 1118.22 148.908 1122.83 Q145.853 1127.41 140.043 1127.41 Q134.232 1127.41 131.154 1122.83 Q128.098 1118.22 128.098 1109.5 Q128.098 1100.75 131.154 1096.16 Q134.232 1091.56 140.043 1091.56 Z" fill="#000000" fill-rule="evenodd" fill-opacity="1" /><path clip-path="url(#clip420)" d="M 0 0 M161.015 1122.81 L168.654 1122.81 L168.654 1096.44 L160.343 1098.11 L160.343 1093.85 L168.607 1092.18 L173.283 1092.18 L173.283 1122.81 L180.922 1122.81 L180.922 1126.74 L161.015 1126.74 L161.015 1122.81 Z" fill="#000000" fill-rule="evenodd" fill-opacity="1" /><path clip-path="url(#clip420)" d="M 0 0 M65.0198 818.329 Q61.4087 818.329 59.58 821.894 Q57.7745 825.436 57.7745 832.565 Q57.7745 839.672 59.58 843.236 Q61.4087 846.778 65.0198 846.778 Q68.6541 846.778 70.4596 843.236 Q72.2883 839.672 72.2883 832.565 Q72.2883 825.436 70.4596 821.894 Q68.6541 818.329 65.0198 818.329 M65.0198 814.625 Q70.83 814.625 73.8855 819.232 Q76.9642 823.815 76.9642 832.565 Q76.9642 841.292 73.8855 845.898 Q70.83 850.482 65.0198 850.482 Q59.2097 850.482 56.131 845.898 Q53.0754 841.292 53.0754 832.565 Q53.0754 823.815 56.131 819.232 Q59.2097 814.625 65.0198 814.625 Z" fill="#000000" fill-rule="evenodd" fill-opacity="1" /><path clip-path="url(#clip420)" d="M 0 0 M85.1818 843.931 L90.066 843.931 L90.066 849.81 L85.1818 849.81 L85.1818 843.931 Z" fill="#000000" fill-rule="evenodd" fill-opacity="1" /><path clip-path="url(#clip420)" d="M 0 0 M110.251 818.329 Q106.64 818.329 104.811 821.894 Q103.006 825.436 103.006 832.565 Q103.006 839.672 104.811 843.236 Q106.64 846.778 110.251 846.778 Q113.885 846.778 115.691 843.236 Q117.52 839.672 117.52 832.565 Q117.52 825.436 115.691 821.894 Q113.885 818.329 110.251 818.329 M110.251 814.625 Q116.061 814.625 119.117 819.232 Q122.195 823.815 122.195 832.565 Q122.195 841.292 119.117 845.898 Q116.061 850.482 110.251 850.482 Q104.441 850.482 101.362 845.898 Q98.3067 841.292 98.3067 832.565 Q98.3067 823.815 101.362 819.232 Q104.441 814.625 110.251 814.625 Z" fill="#000000" fill-rule="evenodd" fill-opacity="1" /><path clip-path="url(#clip420)" d="M 0 0 M140.413 818.329 Q136.802 818.329 134.973 821.894 Q133.168 825.436 133.168 832.565 Q133.168 839.672 134.973 843.236 Q136.802 846.778 140.413 846.778 Q144.047 846.778 145.853 843.236 Q147.681 839.672 147.681 832.565 Q147.681 825.436 145.853 821.894 Q144.047 818.329 140.413 818.329 M140.413 814.625 Q146.223 814.625 149.279 819.232 Q152.357 823.815 152.357 832.565 Q152.357 841.292 149.279 845.898 Q146.223 850.482 140.413 850.482 Q134.603 850.482 131.524 845.898 Q128.469 841.292 128.469 832.565 Q128.469 823.815 131.524 819.232 Q134.603 814.625 140.413 814.625 Z" fill="#000000" fill-rule="evenodd" fill-opacity="1" /><path clip-path="url(#clip420)" d="M 0 0 M164.603 845.875 L180.922 845.875 L180.922 849.81 L158.978 849.81 L158.978 845.875 Q161.64 843.121 166.223 838.491 Q170.829 833.838 172.01 832.496 Q174.255 829.973 175.135 828.236 Q176.038 826.477 176.038 824.787 Q176.038 822.033 174.093 820.297 Q172.172 818.561 169.07 818.561 Q166.871 818.561 164.417 819.324 Q161.987 820.088 159.209 821.639 L159.209 816.917 Q162.033 815.783 164.487 815.204 Q166.941 814.625 168.978 814.625 Q174.348 814.625 177.542 817.311 Q180.737 819.996 180.737 824.486 Q180.737 826.616 179.927 828.537 Q179.14 830.436 177.033 833.028 Q176.454 833.699 173.353 836.917 Q170.251 840.111 164.603 845.875 Z" fill="#000000" fill-rule="evenodd" fill-opacity="1" /><path clip-path="url(#clip420)" d="M 0 0 M64.0708 541.396 Q60.4597 541.396 58.631 544.961 Q56.8254 548.503 56.8254 555.632 Q56.8254 562.739 58.631 566.304 Q60.4597 569.845 64.0708 569.845 Q67.705 569.845 69.5105 566.304 Q71.3392 562.739 71.3392 555.632 Q71.3392 548.503 69.5105 544.961 Q67.705 541.396 64.0708 541.396 M64.0708 537.693 Q69.8809 537.693 72.9365 542.299 Q76.0151 546.883 76.0151 555.632 Q76.0151 564.359 72.9365 568.966 Q69.8809 573.549 64.0708 573.549 Q58.2606 573.549 55.1819 568.966 Q52.1264 564.359 52.1264 555.632 Q52.1264 546.883 55.1819 542.299 Q58.2606 537.693 64.0708 537.693 Z" fill="#000000" fill-rule="evenodd" fill-opacity="1" /><path clip-path="url(#clip420)" d="M 0 0 M84.2327 566.998 L89.1169 566.998 L89.1169 572.878 L84.2327 572.878 L84.2327 566.998 Z" fill="#000000" fill-rule="evenodd" fill-opacity="1" /><path clip-path="url(#clip420)" d="M 0 0 M109.302 541.396 Q105.691 541.396 103.862 544.961 Q102.057 548.503 102.057 555.632 Q102.057 562.739 103.862 566.304 Q105.691 569.845 109.302 569.845 Q112.936 569.845 114.742 566.304 Q116.57 562.739 116.57 555.632 Q116.57 548.503 114.742 544.961 Q112.936 541.396 109.302 541.396 M109.302 537.693 Q115.112 537.693 118.168 542.299 Q121.246 546.883 121.246 555.632 Q121.246 564.359 118.168 568.966 Q115.112 573.549 109.302 573.549 Q103.492 573.549 100.413 568.966 Q97.3576 564.359 97.3576 555.632 Q97.3576 546.883 100.413 542.299 Q103.492 537.693 109.302 537.693 Z" fill="#000000" fill-rule="evenodd" fill-opacity="1" /><path clip-path="url(#clip420)" d="M 0 0 M139.464 541.396 Q135.853 541.396 134.024 544.961 Q132.219 548.503 132.219 555.632 Q132.219 562.739 134.024 566.304 Q135.853 569.845 139.464 569.845 Q143.098 569.845 144.904 566.304 Q146.732 562.739 146.732 555.632 Q146.732 548.503 144.904 544.961 Q143.098 541.396 139.464 541.396 M139.464 537.693 Q145.274 537.693 148.33 542.299 Q151.408 546.883 151.408 555.632 Q151.408 564.359 148.33 568.966 Q145.274 573.549 139.464 573.549 Q133.654 573.549 130.575 568.966 Q127.519 564.359 127.519 555.632 Q127.519 546.883 130.575 542.299 Q133.654 537.693 139.464 537.693 Z" fill="#000000" fill-rule="evenodd" fill-opacity="1" /><path clip-path="url(#clip420)" d="M 0 0 M173.792 554.244 Q177.149 554.961 179.024 557.23 Q180.922 559.498 180.922 562.832 Q180.922 567.947 177.403 570.748 Q173.885 573.549 167.404 573.549 Q165.228 573.549 162.913 573.109 Q160.621 572.693 158.167 571.836 L158.167 567.322 Q160.112 568.456 162.427 569.035 Q164.742 569.614 167.265 569.614 Q171.663 569.614 173.954 567.878 Q176.269 566.142 176.269 562.832 Q176.269 559.776 174.116 558.063 Q171.987 556.327 168.167 556.327 L164.14 556.327 L164.14 552.484 L168.353 552.484 Q171.802 552.484 173.63 551.119 Q175.459 549.73 175.459 547.137 Q175.459 544.475 173.561 543.063 Q171.686 541.628 168.167 541.628 Q166.246 541.628 164.047 542.045 Q161.848 542.461 159.209 543.341 L159.209 539.174 Q161.871 538.434 164.186 538.063 Q166.524 537.693 168.584 537.693 Q173.908 537.693 177.01 540.123 Q180.112 542.531 180.112 546.651 Q180.112 549.521 178.468 551.512 Q176.825 553.48 173.792 554.244 Z" fill="#000000" fill-rule="evenodd" fill-opacity="1" /><path clip-path="url(#clip420)" d="M 0 0 M62.9365 264.464 Q59.3254 264.464 57.4967 268.029 Q55.6912 271.57 55.6912 278.7 Q55.6912 285.806 57.4967 289.371 Q59.3254 292.913 62.9365 292.913 Q66.5707 292.913 68.3763 289.371 Q70.205 285.806 70.205 278.7 Q70.205 271.57 68.3763 268.029 Q66.5707 264.464 62.9365 264.464 M62.9365 260.76 Q68.7467 260.76 71.8022 265.367 Q74.8809 269.95 74.8809 278.7 Q74.8809 287.427 71.8022 292.033 Q68.7467 296.616 62.9365 296.616 Q57.1264 296.616 54.0477 292.033 Q50.9921 287.427 50.9921 278.7 Q50.9921 269.95 54.0477 265.367 Q57.1264 260.76 62.9365 260.76 Z" fill="#000000" fill-rule="evenodd" fill-opacity="1" /><path clip-path="url(#clip420)" d="M 0 0 M83.0984 290.066 L87.9827 290.066 L87.9827 295.945 L83.0984 295.945 L83.0984 290.066 Z" fill="#000000" fill-rule="evenodd" fill-opacity="1" /><path clip-path="url(#clip420)" d="M 0 0 M108.168 264.464 Q104.557 264.464 102.728 268.029 Q100.922 271.57 100.922 278.7 Q100.922 285.806 102.728 289.371 Q104.557 292.913 108.168 292.913 Q111.802 292.913 113.608 289.371 Q115.436 285.806 115.436 278.7 Q115.436 271.57 113.608 268.029 Q111.802 264.464 108.168 264.464 M108.168 260.76 Q113.978 260.76 117.033 265.367 Q120.112 269.95 120.112 278.7 Q120.112 287.427 117.033 292.033 Q113.978 296.616 108.168 296.616 Q102.358 296.616 99.2789 292.033 Q96.2234 287.427 96.2234 278.7 Q96.2234 269.95 99.2789 265.367 Q102.358 260.76 108.168 260.76 Z" fill="#000000" fill-rule="evenodd" fill-opacity="1" /><path clip-path="url(#clip420)" d="M 0 0 M138.33 264.464 Q134.719 264.464 132.89 268.029 Q131.084 271.57 131.084 278.7 Q131.084 285.806 132.89 289.371 Q134.719 292.913 138.33 292.913 Q141.964 292.913 143.769 289.371 Q145.598 285.806 145.598 278.7 Q145.598 271.57 143.769 268.029 Q141.964 264.464 138.33 264.464 M138.33 260.76 Q144.14 260.76 147.195 265.367 Q150.274 269.95 150.274 278.7 Q150.274 287.427 147.195 292.033 Q144.14 296.616 138.33 296.616 Q132.519 296.616 129.441 292.033 Q126.385 287.427 126.385 278.7 Q126.385 269.95 129.441 265.367 Q132.519 260.76 138.33 260.76 Z" fill="#000000" fill-rule="evenodd" fill-opacity="1" /><path clip-path="url(#clip420)" d="M 0 0 M171.339 265.459 L159.533 283.908 L171.339 283.908 L171.339 265.459 M170.112 261.385 L175.991 261.385 L175.991 283.908 L180.922 283.908 L180.922 287.797 L175.991 287.797 L175.991 295.945 L171.339 295.945 L171.339 287.797 L155.737 287.797 L155.737 283.283 L170.112 261.385 Z" fill="#000000" fill-rule="evenodd" fill-opacity="1" /><path clip-path="url(#clip420)" d="M 0 0 M459.528 12.096 L494.285 12.096 L494.285 18.9825 L467.711 18.9825 L467.711 36.8065 L491.692 36.8065 L491.692 43.6931 L467.711 43.6931 L467.711 72.576 L459.528 72.576 L459.528 12.096 Z" fill="#000000" fill-rule="evenodd" fill-opacity="1" /><path clip-path="url(#clip420)" d="M 0 0 M521.547 32.4315 Q515.552 32.4315 512.068 37.1306 Q508.584 41.7891 508.584 49.9314 Q508.584 58.0738 512.028 62.7728 Q515.511 67.4314 521.547 67.4314 Q527.502 67.4314 530.986 62.7323 Q534.47 58.0333 534.47 49.9314 Q534.47 41.8701 530.986 37.1711 Q527.502 32.4315 521.547 32.4315 M521.547 26.1121 Q531.269 26.1121 536.819 32.4315 Q542.369 38.7509 542.369 49.9314 Q542.369 61.0714 536.819 67.4314 Q531.269 73.7508 521.547 73.7508 Q511.785 73.7508 506.235 67.4314 Q500.726 61.0714 500.726 49.9314 Q500.726 38.7509 506.235 32.4315 Q511.785 26.1121 521.547 26.1121 Z" fill="#000000" fill-rule="evenodd" fill-opacity="1" /><path clip-path="url(#clip420)" d="M 0 0 M553.955 54.671 L553.955 27.2059 L561.408 27.2059 L561.408 54.3874 Q561.408 60.8284 563.92 64.0691 Q566.431 67.2693 571.454 67.2693 Q577.49 67.2693 580.974 63.421 Q584.498 59.5726 584.498 52.9291 L584.498 27.2059 L591.952 27.2059 L591.952 72.576 L584.498 72.576 L584.498 65.6084 Q581.784 69.7404 578.179 71.7658 Q574.614 73.7508 569.875 73.7508 Q562.056 73.7508 558.005 68.8897 Q553.955 64.0286 553.955 54.671 M572.71 26.1121 L572.71 26.1121 Z" fill="#000000" fill-rule="evenodd" fill-opacity="1" /><path clip-path="url(#clip420)" d="M 0 0 M633.595 34.1734 Q632.34 33.4443 630.841 33.1202 Q629.382 32.7556 627.6 32.7556 Q621.281 32.7556 617.878 36.8875 Q614.516 40.9789 614.516 48.6757 L614.516 72.576 L607.021 72.576 L607.021 27.2059 L614.516 27.2059 L614.516 34.2544 Q616.865 30.1225 620.632 28.1376 Q624.4 26.1121 629.787 26.1121 Q630.557 26.1121 631.489 26.2337 Q632.421 26.3147 633.555 26.5172 L633.595 34.1734 Z" fill="#000000" fill-rule="evenodd" fill-opacity="1" /><path clip-path="url(#clip420)" d="M 0 0 M641.414 27.2059 L648.867 27.2059 L648.867 72.576 L641.414 72.576 L641.414 27.2059 M641.414 9.54393 L648.867 9.54393 L648.867 18.9825 L641.414 18.9825 L641.414 9.54393 Z" fill="#000000" fill-rule="evenodd" fill-opacity="1" /><path clip-path="url(#clip420)" d="M 0 0 M703.271 48.0275 L703.271 51.6733 L669 51.6733 Q669.486 59.3701 673.618 63.421 Q677.791 67.4314 685.204 67.4314 Q689.498 67.4314 693.508 66.3781 Q697.559 65.3249 701.529 63.2184 L701.529 70.267 Q697.519 71.9684 693.306 72.8596 Q689.093 73.7508 684.758 73.7508 Q673.902 73.7508 667.542 67.4314 Q661.222 61.1119 661.222 50.3365 Q661.222 39.1965 667.218 32.6746 Q673.254 26.1121 683.462 26.1121 Q692.617 26.1121 697.924 32.0264 Q703.271 37.9003 703.271 48.0275 M695.817 45.84 Q695.736 39.7232 692.374 36.0774 Q689.052 32.4315 683.543 32.4315 Q677.305 32.4315 673.537 35.9558 Q669.81 39.4801 669.243 45.8805 L695.817 45.84 Z" fill="#000000" fill-rule="evenodd" fill-opacity="1" /><path clip-path="url(#clip420)" d="M 0 0 M741.795 34.1734 Q740.539 33.4443 739.04 33.1202 Q737.582 32.7556 735.8 32.7556 Q729.48 32.7556 726.077 36.8875 Q722.715 40.9789 722.715 48.6757 L722.715 72.576 L715.221 72.576 L715.221 27.2059 L722.715 27.2059 L722.715 34.2544 Q725.065 30.1225 728.832 28.1376 Q732.599 26.1121 737.987 26.1121 Q738.757 26.1121 739.689 26.2337 Q740.62 26.3147 741.754 26.5172 L741.795 34.1734 Z" fill="#000000" fill-rule="evenodd" fill-opacity="1" /><path clip-path="url(#clip420)" d="M 0 0 M783.357 14.324 L783.357 27.2059 L798.71 27.2059 L798.71 32.9987 L783.357 32.9987 L783.357 57.6282 Q783.357 63.1779 784.856 64.7578 Q786.395 66.3376 791.054 66.3376 L798.71 66.3376 L798.71 72.576 L791.054 72.576 Q782.426 72.576 779.144 69.3758 Q775.863 66.1351 775.863 57.6282 L775.863 32.9987 L770.394 32.9987 L770.394 27.2059 L775.863 27.2059 L775.863 14.324 L783.357 14.324 Z" fill="#000000" fill-rule="evenodd" fill-opacity="1" /><path clip-path="url(#clip420)" d="M 0 0 M834.804 34.1734 Q833.548 33.4443 832.049 33.1202 Q830.591 32.7556 828.808 32.7556 Q822.489 32.7556 819.086 36.8875 Q815.724 40.9789 815.724 48.6757 L815.724 72.576 L808.23 72.576 L808.23 27.2059 L815.724 27.2059 L815.724 34.2544 Q818.074 30.1225 821.841 28.1376 Q825.608 26.1121 830.996 26.1121 Q831.766 26.1121 832.697 26.2337 Q833.629 26.3147 834.763 26.5172 L834.804 34.1734 Z" fill="#000000" fill-rule="evenodd" fill-opacity="1" /><path clip-path="url(#clip420)" d="M 0 0 M863.241 49.7694 Q854.208 49.7694 850.724 51.8354 Q847.24 53.9013 847.24 58.8839 Q847.24 62.8538 849.833 65.2034 Q852.466 67.5124 856.962 67.5124 Q863.16 67.5124 866.887 63.1374 Q870.654 58.7219 870.654 51.4303 L870.654 49.7694 L863.241 49.7694 M878.108 46.6907 L878.108 72.576 L870.654 72.576 L870.654 65.6895 Q868.102 69.8214 864.294 71.8063 Q860.486 73.7508 854.977 73.7508 Q848.01 73.7508 843.878 69.8619 Q839.786 65.9325 839.786 59.3701 Q839.786 51.7138 844.89 47.825 Q850.035 43.9361 860.203 43.9361 L870.654 43.9361 L870.654 43.2069 Q870.654 38.0623 867.251 35.2672 Q863.889 32.4315 857.772 32.4315 Q853.884 32.4315 850.197 33.3632 Q846.511 34.295 843.108 36.1584 L843.108 29.2718 Q847.2 27.692 851.048 26.9223 Q854.896 26.1121 858.542 26.1121 Q868.386 26.1121 873.247 31.2163 Q878.108 36.3204 878.108 46.6907 Z" fill="#000000" fill-rule="evenodd" fill-opacity="1" /><path clip-path="url(#clip420)" d="M 0 0 M931.175 45.1919 L931.175 72.576 L923.721 72.576 L923.721 45.4349 Q923.721 38.994 921.21 35.7938 Q918.698 32.5936 913.675 32.5936 Q907.639 32.5936 904.155 36.4419 Q900.671 40.2903 900.671 46.9338 L900.671 72.576 L893.177 72.576 L893.177 27.2059 L900.671 27.2059 L900.671 34.2544 Q903.345 30.163 906.95 28.1376 Q910.596 26.1121 915.336 26.1121 Q923.154 26.1121 927.164 30.9732 Q931.175 35.7938 931.175 45.1919 Z" fill="#000000" fill-rule="evenodd" fill-opacity="1" /><path clip-path="url(#clip420)" d="M 0 0 M974.965 28.5427 L974.965 35.5912 Q971.805 33.9709 968.403 33.1607 Q965 32.3505 961.354 32.3505 Q955.804 32.3505 953.009 34.0519 Q950.255 35.7533 950.255 39.156 Q950.255 41.7486 952.239 43.2475 Q954.224 44.7058 960.22 46.0426 L962.772 46.6097 Q970.712 48.3111 974.033 51.4303 Q977.396 54.509 977.396 60.0587 Q977.396 66.3781 972.372 70.0644 Q967.39 73.7508 958.64 73.7508 Q954.994 73.7508 951.024 73.0216 Q947.095 72.3329 942.72 70.9151 L942.72 63.2184 Q946.852 65.3654 950.862 66.4591 Q954.873 67.5124 958.802 67.5124 Q964.068 67.5124 966.904 65.73 Q969.739 63.9071 969.739 60.6258 Q969.739 57.5877 967.673 55.9673 Q965.648 54.3469 958.721 52.8481 L956.128 52.2405 Q949.201 50.7821 946.123 47.7845 Q943.044 44.7463 943.044 39.4801 Q943.044 33.0797 947.581 29.5959 Q952.118 26.1121 960.463 26.1121 Q964.595 26.1121 968.241 26.7198 Q971.886 27.3274 974.965 28.5427 Z" fill="#000000" fill-rule="evenodd" fill-opacity="1" /><path clip-path="url(#clip420)" d="M 0 0 M1012.23 9.54393 L1012.23 15.7418 L1005.1 15.7418 Q1001.09 15.7418 999.514 17.3622 Q997.974 18.9825 997.974 23.1955 L997.974 27.2059 L1010.25 27.2059 L1010.25 32.9987 L997.974 32.9987 L997.974 72.576 L990.48 72.576 L990.48 32.9987 L983.35 32.9987 L983.35 27.2059 L990.48 27.2059 L990.48 24.0462 Q990.48 16.471 994.004 13.0277 Q997.529 9.54393 1005.18 9.54393 L1012.23 9.54393 Z" fill="#000000" fill-rule="evenodd" fill-opacity="1" /><path clip-path="url(#clip420)" d="M 0 0 M1036.05 32.4315 Q1030.06 32.4315 1026.57 37.1306 Q1023.09 41.7891 1023.09 49.9314 Q1023.09 58.0738 1026.53 62.7728 Q1030.02 67.4314 1036.05 67.4314 Q1042.01 67.4314 1045.49 62.7323 Q1048.98 58.0333 1048.98 49.9314 Q1048.98 41.8701 1045.49 37.1711 Q1042.01 32.4315 1036.05 32.4315 M1036.05 26.1121 Q1045.77 26.1121 1051.32 32.4315 Q1056.87 38.7509 1056.87 49.9314 Q1056.87 61.0714 1051.32 67.4314 Q1045.77 73.7508 1036.05 73.7508 Q1026.29 73.7508 1020.74 67.4314 Q1015.23 61.0714 1015.23 49.9314 Q1015.23 38.7509 1020.74 32.4315 Q1026.29 26.1121 1036.05 26.1121 Z" fill="#000000" fill-rule="evenodd" fill-opacity="1" /><path clip-path="url(#clip420)" d="M 0 0 M1095.52 34.1734 Q1094.26 33.4443 1092.77 33.1202 Q1091.31 32.7556 1089.52 32.7556 Q1083.21 32.7556 1079.8 36.8875 Q1076.44 40.9789 1076.44 48.6757 L1076.44 72.576 L1068.95 72.576 L1068.95 27.2059 L1076.44 27.2059 L1076.44 34.2544 Q1078.79 30.1225 1082.56 28.1376 Q1086.32 26.1121 1091.71 26.1121 Q1092.48 26.1121 1093.41 26.2337 Q1094.35 26.3147 1095.48 26.5172 L1095.52 34.1734 Z" fill="#000000" fill-rule="evenodd" fill-opacity="1" /><path clip-path="url(#clip420)" d="M 0 0 M1137.2 35.9153 Q1140 30.8922 1143.89 28.5022 Q1147.78 26.1121 1153.04 26.1121 Q1160.13 26.1121 1163.98 31.0947 Q1167.83 36.0368 1167.83 45.1919 L1167.83 72.576 L1160.33 72.576 L1160.33 45.4349 Q1160.33 38.913 1158.03 35.7533 Q1155.72 32.5936 1150.98 32.5936 Q1145.18 32.5936 1141.82 36.4419 Q1138.46 40.2903 1138.46 46.9338 L1138.46 72.576 L1130.97 72.576 L1130.97 45.4349 Q1130.97 38.8725 1128.66 35.7533 Q1126.35 32.5936 1121.53 32.5936 Q1115.81 32.5936 1112.45 36.4824 Q1109.09 40.3308 1109.09 46.9338 L1109.09 72.576 L1101.6 72.576 L1101.6 27.2059 L1109.09 27.2059 L1109.09 34.2544 Q1111.64 30.082 1115.21 28.0971 Q1118.77 26.1121 1123.67 26.1121 Q1128.62 26.1121 1132.06 28.6237 Q1135.54 31.1352 1137.2 35.9153 Z" fill="#000000" fill-rule="evenodd" fill-opacity="1" /><path clip-path="url(#clip420)" d="M 0 0 M1226.65 32.4315 Q1220.65 32.4315 1217.17 37.1306 Q1213.68 41.7891 1213.68 49.9314 Q1213.68 58.0738 1217.13 62.7728 Q1220.61 67.4314 1226.65 67.4314 Q1232.6 67.4314 1236.09 62.7323 Q1239.57 58.0333 1239.57 49.9314 Q1239.57 41.8701 1236.09 37.1711 Q1232.6 32.4315 1226.65 32.4315 M1226.65 26.1121 Q1236.37 26.1121 1241.92 32.4315 Q1247.47 38.7509 1247.47 49.9314 Q1247.47 61.0714 1241.92 67.4314 Q1236.37 73.7508 1226.65 73.7508 Q1216.89 73.7508 1211.34 67.4314 Q1205.83 61.0714 1205.83 49.9314 Q1205.83 38.7509 1211.34 32.4315 Q1216.89 26.1121 1226.65 26.1121 Z" fill="#000000" fill-rule="evenodd" fill-opacity="1" /><path clip-path="url(#clip420)" d="M 0 0 M1282.79 9.54393 L1282.79 15.7418 L1275.66 15.7418 Q1271.65 15.7418 1270.07 17.3622 Q1268.53 18.9825 1268.53 23.1955 L1268.53 27.2059 L1280.81 27.2059 L1280.81 32.9987 L1268.53 32.9987 L1268.53 72.576 L1261.04 72.576 L1261.04 32.9987 L1253.91 32.9987 L1253.91 27.2059 L1261.04 27.2059 L1261.04 24.0462 Q1261.04 16.471 1264.56 13.0277 Q1268.09 9.54393 1275.74 9.54393 L1282.79 9.54393 Z" fill="#000000" fill-rule="evenodd" fill-opacity="1" /><path clip-path="url(#clip420)" d="M 0 0 M1322.61 65.7705 L1322.61 89.8329 L1315.12 89.8329 L1315.12 27.2059 L1322.61 27.2059 L1322.61 34.0924 Q1324.96 30.0415 1328.53 28.0971 Q1332.13 26.1121 1337.12 26.1121 Q1345.38 26.1121 1350.52 32.6746 Q1355.71 39.2371 1355.71 49.9314 Q1355.71 60.6258 1350.52 67.1883 Q1345.38 73.7508 1337.12 73.7508 Q1332.13 73.7508 1328.53 71.8063 Q1324.96 69.8214 1322.61 65.7705 M1347.97 49.9314 Q1347.97 41.7081 1344.57 37.0496 Q1341.21 32.3505 1335.29 32.3505 Q1329.38 32.3505 1325.98 37.0496 Q1322.61 41.7081 1322.61 49.9314 Q1322.61 58.1548 1325.98 62.8538 Q1329.38 67.5124 1335.29 67.5124 Q1341.21 67.5124 1344.57 62.8538 Q1347.97 58.1548 1347.97 49.9314 Z" fill="#000000" fill-rule="evenodd" fill-opacity="1" /><path clip-path="url(#clip420)" d="M 0 0 M1405.78 45.1919 L1405.78 72.576 L1398.33 72.576 L1398.33 45.4349 Q1398.33 38.994 1395.81 35.7938 Q1393.3 32.5936 1388.28 32.5936 Q1382.24 32.5936 1378.76 36.4419 Q1375.28 40.2903 1375.28 46.9338 L1375.28 72.576 L1367.78 72.576 L1367.78 9.54393 L1375.28 9.54393 L1375.28 34.2544 Q1377.95 30.163 1381.55 28.1376 Q1385.2 26.1121 1389.94 26.1121 Q1397.76 26.1121 1401.77 30.9732 Q1405.78 35.7938 1405.78 45.1919 Z" fill="#000000" fill-rule="evenodd" fill-opacity="1" /><path clip-path="url(#clip420)" d="M 0 0 M1438.23 32.4315 Q1432.23 32.4315 1428.75 37.1306 Q1425.26 41.7891 1425.26 49.9314 Q1425.26 58.0738 1428.71 62.7728 Q1432.19 67.4314 1438.23 67.4314 Q1444.18 67.4314 1447.67 62.7323 Q1451.15 58.0333 1451.15 49.9314 Q1451.15 41.8701 1447.67 37.1711 Q1444.18 32.4315 1438.23 32.4315 M1438.23 26.1121 Q1447.95 26.1121 1453.5 32.4315 Q1459.05 38.7509 1459.05 49.9314 Q1459.05 61.0714 1453.5 67.4314 Q1447.95 73.7508 1438.23 73.7508 Q1428.46 73.7508 1422.91 67.4314 Q1417.4 61.0714 1417.4 49.9314 Q1417.4 38.7509 1422.91 32.4315 Q1428.46 26.1121 1438.23 26.1121 Z" fill="#000000" fill-rule="evenodd" fill-opacity="1" /><path clip-path="url(#clip420)" d="M 0 0 M1478.78 14.324 L1478.78 27.2059 L1494.13 27.2059 L1494.13 32.9987 L1478.78 32.9987 L1478.78 57.6282 Q1478.78 63.1779 1480.27 64.7578 Q1481.81 66.3376 1486.47 66.3376 L1494.13 66.3376 L1494.13 72.576 L1486.47 72.576 Q1477.84 72.576 1474.56 69.3758 Q1471.28 66.1351 1471.28 57.6282 L1471.28 32.9987 L1465.81 32.9987 L1465.81 27.2059 L1471.28 27.2059 L1471.28 14.324 L1478.78 14.324 Z" fill="#000000" fill-rule="evenodd" fill-opacity="1" /><path clip-path="url(#clip420)" d="M 0 0 M1521.51 32.4315 Q1515.52 32.4315 1512.03 37.1306 Q1508.55 41.7891 1508.55 49.9314 Q1508.55 58.0738 1511.99 62.7728 Q1515.48 67.4314 1521.51 67.4314 Q1527.47 67.4314 1530.95 62.7323 Q1534.44 58.0333 1534.44 49.9314 Q1534.44 41.8701 1530.95 37.1711 Q1527.47 32.4315 1521.51 32.4315 M1521.51 26.1121 Q1531.24 26.1121 1536.78 32.4315 Q1542.33 38.7509 1542.33 49.9314 Q1542.33 61.0714 1536.78 67.4314 Q1531.24 73.7508 1521.51 73.7508 Q1511.75 73.7508 1506.2 67.4314 Q1500.69 61.0714 1500.69 49.9314 Q1500.69 38.7509 1506.2 32.4315 Q1511.75 26.1121 1521.51 26.1121 Z" fill="#000000" fill-rule="evenodd" fill-opacity="1" /><path clip-path="url(#clip420)" d="M 0 0 M1592.4 45.1919 L1592.4 72.576 L1584.95 72.576 L1584.95 45.4349 Q1584.95 38.994 1582.44 35.7938 Q1579.93 32.5936 1574.9 32.5936 Q1568.87 32.5936 1565.38 36.4419 Q1561.9 40.2903 1561.9 46.9338 L1561.9 72.576 L1554.41 72.576 L1554.41 27.2059 L1561.9 27.2059 L1561.9 34.2544 Q1564.57 30.163 1568.18 28.1376 Q1571.83 26.1121 1576.56 26.1121 Q1584.38 26.1121 1588.39 30.9732 Q1592.4 35.7938 1592.4 45.1919 Z" fill="#000000" fill-rule="evenodd" fill-opacity="1" /><path clip-path="url(#clip420)" d="M 0 0 M1666.29 28.9478 L1666.29 35.9153 Q1663.13 34.1734 1659.93 33.3227 Q1656.77 32.4315 1653.53 32.4315 Q1646.28 32.4315 1642.27 37.0496 Q1638.26 41.6271 1638.26 49.9314 Q1638.26 58.2358 1642.27 62.8538 Q1646.28 67.4314 1653.53 67.4314 Q1656.77 67.4314 1659.93 66.5807 Q1663.13 65.6895 1666.29 63.9476 L1666.29 70.8341 Q1663.17 72.2924 1659.81 73.0216 Q1656.49 73.7508 1652.72 73.7508 Q1642.47 73.7508 1636.44 67.3098 Q1630.4 60.8689 1630.4 49.9314 Q1630.4 38.832 1636.48 32.472 Q1642.59 26.1121 1653.21 26.1121 Q1656.65 26.1121 1659.93 26.8413 Q1663.21 27.5299 1666.29 28.9478 Z" fill="#000000" fill-rule="evenodd" fill-opacity="1" /><path clip-path="url(#clip420)" d="M 0 0 M1696.84 32.4315 Q1690.84 32.4315 1687.36 37.1306 Q1683.87 41.7891 1683.87 49.9314 Q1683.87 58.0738 1687.32 62.7728 Q1690.8 67.4314 1696.84 67.4314 Q1702.79 67.4314 1706.27 62.7323 Q1709.76 58.0333 1709.76 49.9314 Q1709.76 41.8701 1706.27 37.1711 Q1702.79 32.4315 1696.84 32.4315 M1696.84 26.1121 Q1706.56 26.1121 1712.11 32.4315 Q1717.66 38.7509 1717.66 49.9314 Q1717.66 61.0714 1712.11 67.4314 Q1706.56 73.7508 1696.84 73.7508 Q1687.07 73.7508 1681.52 67.4314 Q1676.01 61.0714 1676.01 49.9314 Q1676.01 38.7509 1681.52 32.4315 Q1687.07 26.1121 1696.84 26.1121 Z" fill="#000000" fill-rule="evenodd" fill-opacity="1" /><path clip-path="url(#clip420)" d="M 0 0 M1756.3 34.1734 Q1755.05 33.4443 1753.55 33.1202 Q1752.09 32.7556 1750.31 32.7556 Q1743.99 32.7556 1740.59 36.8875 Q1737.22 40.9789 1737.22 48.6757 L1737.22 72.576 L1729.73 72.576 L1729.73 27.2059 L1737.22 27.2059 L1737.22 34.2544 Q1739.57 30.1225 1743.34 28.1376 Q1747.11 26.1121 1752.5 26.1121 Q1753.27 26.1121 1754.2 26.2337 Q1755.13 26.3147 1756.26 26.5172 L1756.3 34.1734 Z" fill="#000000" fill-rule="evenodd" fill-opacity="1" /><path clip-path="url(#clip420)" d="M 0 0 M1788.95 34.1734 Q1787.7 33.4443 1786.2 33.1202 Q1784.74 32.7556 1782.96 32.7556 Q1776.64 32.7556 1773.24 36.8875 Q1769.87 40.9789 1769.87 48.6757 L1769.87 72.576 L1762.38 72.576 L1762.38 27.2059 L1769.87 27.2059 L1769.87 34.2544 Q1772.22 30.1225 1775.99 28.1376 Q1779.76 26.1121 1785.15 26.1121 Q1785.92 26.1121 1786.85 26.2337 Q1787.78 26.3147 1788.91 26.5172 L1788.95 34.1734 Z" fill="#000000" fill-rule="evenodd" fill-opacity="1" /><path clip-path="url(#clip420)" d="M 0 0 M1833.76 48.0275 L1833.76 51.6733 L1799.49 51.6733 Q1799.97 59.3701 1804.1 63.421 Q1808.28 67.4314 1815.69 67.4314 Q1819.98 67.4314 1823.99 66.3781 Q1828.04 65.3249 1832.01 63.2184 L1832.01 70.267 Q1828 71.9684 1823.79 72.8596 Q1819.58 73.7508 1815.24 73.7508 Q1804.39 73.7508 1798.03 67.4314 Q1791.71 61.1119 1791.71 50.3365 Q1791.71 39.1965 1797.7 32.6746 Q1803.74 26.1121 1813.95 26.1121 Q1823.1 26.1121 1828.41 32.0264 Q1833.76 37.9003 1833.76 48.0275 M1826.3 45.84 Q1826.22 39.7232 1822.86 36.0774 Q1819.54 32.4315 1814.03 32.4315 Q1807.79 32.4315 1804.02 35.9558 Q1800.3 39.4801 1799.73 45.8805 L1826.3 45.84 Z" fill="#000000" fill-rule="evenodd" fill-opacity="1" /><path clip-path="url(#clip420)" d="M 0 0 M1845.99 9.54393 L1853.44 9.54393 L1853.44 72.576 L1845.99 72.576 L1845.99 9.54393 Z" fill="#000000" fill-rule="evenodd" fill-opacity="1" /><path clip-path="url(#clip420)" d="M 0 0 M1889.66 49.7694 Q1880.63 49.7694 1877.14 51.8354 Q1873.66 53.9013 1873.66 58.8839 Q1873.66 62.8538 1876.25 65.2034 Q1878.88 67.5124 1883.38 67.5124 Q1889.58 67.5124 1893.31 63.1374 Q1897.07 58.7219 1897.07 51.4303 L1897.07 49.7694 L1889.66 49.7694 M1904.53 46.6907 L1904.53 72.576 L1897.07 72.576 L1897.07 65.6895 Q1894.52 69.8214 1890.71 71.8063 Q1886.9 73.7508 1881.4 73.7508 Q1874.43 73.7508 1870.3 69.8619 Q1866.2 65.9325 1866.2 59.3701 Q1866.2 51.7138 1871.31 47.825 Q1876.45 43.9361 1886.62 43.9361 L1897.07 43.9361 L1897.07 43.2069 Q1897.07 38.0623 1893.67 35.2672 Q1890.31 32.4315 1884.19 32.4315 Q1880.3 32.4315 1876.62 33.3632 Q1872.93 34.295 1869.53 36.1584 L1869.53 29.2718 Q1873.62 27.692 1877.47 26.9223 Q1881.31 26.1121 1884.96 26.1121 Q1894.8 26.1121 1899.66 31.2163 Q1904.53 36.3204 1904.53 46.6907 Z" fill="#000000" fill-rule="evenodd" fill-opacity="1" /><path clip-path="url(#clip420)" d="M 0 0 M1927.25 14.324 L1927.25 27.2059 L1942.6 27.2059 L1942.6 32.9987 L1927.25 32.9987 L1927.25 57.6282 Q1927.25 63.1779 1928.75 64.7578 Q1930.29 66.3376 1934.95 66.3376 L1942.6 66.3376 L1942.6 72.576 L1934.95 72.576 Q1926.32 72.576 1923.04 69.3758 Q1919.76 66.1351 1919.76 57.6282 L1919.76 32.9987 L1914.29 32.9987 L1914.29 27.2059 L1919.76 27.2059 L1919.76 14.324 L1927.25 14.324 Z" fill="#000000" fill-rule="evenodd" fill-opacity="1" /><path clip-path="url(#clip420)" d="M 0 0 M1952.41 27.2059 L1959.86 27.2059 L1959.86 72.576 L1952.41 72.576 L1952.41 27.2059 M1952.41 9.54393 L1959.86 9.54393 L1959.86 18.9825 L1952.41 18.9825 L1952.41 9.54393 Z" fill="#000000" fill-rule="evenodd" fill-opacity="1" /><path clip-path="url(#clip420)" d="M 0 0 M1993.04 32.4315 Q1987.04 32.4315 1983.56 37.1306 Q1980.08 41.7891 1980.08 49.9314 Q1980.08 58.0738 1983.52 62.7728 Q1987 67.4314 1993.04 67.4314 Q1998.99 67.4314 2002.48 62.7323 Q2005.96 58.0333 2005.96 49.9314 Q2005.96 41.8701 2002.48 37.1711 Q1998.99 32.4315 1993.04 32.4315 M1993.04 26.1121 Q2002.76 26.1121 2008.31 32.4315 Q2013.86 38.7509 2013.86 49.9314 Q2013.86 61.0714 2008.31 67.4314 Q2002.76 73.7508 1993.04 73.7508 Q1983.28 73.7508 1977.73 67.4314 Q1972.22 61.0714 1972.22 49.9314 Q1972.22 38.7509 1977.73 32.4315 Q1983.28 26.1121 1993.04 26.1121 Z" fill="#000000" fill-rule="evenodd" fill-opacity="1" /><path clip-path="url(#clip420)" d="M 0 0 M2063.93 45.1919 L2063.93 72.576 L2056.48 72.576 L2056.48 45.4349 Q2056.48 38.994 2053.96 35.7938 Q2051.45 32.5936 2046.43 32.5936 Q2040.39 32.5936 2036.91 36.4419 Q2033.43 40.2903 2033.43 46.9338 L2033.43 72.576 L2025.93 72.576 L2025.93 27.2059 L2033.43 27.2059 L2033.43 34.2544 Q2036.1 30.163 2039.7 28.1376 Q2043.35 26.1121 2048.09 26.1121 Q2055.91 26.1121 2059.92 30.9732 Q2063.93 35.7938 2063.93 45.1919 Z" fill="#000000" fill-rule="evenodd" fill-opacity="1" /><path clip-path="url(#clip420)" d="M 0 0 M2107.72 28.5427 L2107.72 35.5912 Q2104.56 33.9709 2101.16 33.1607 Q2097.75 32.3505 2094.11 32.3505 Q2088.56 32.3505 2085.76 34.0519 Q2083.01 35.7533 2083.01 39.156 Q2083.01 41.7486 2084.99 43.2475 Q2086.98 44.7058 2092.97 46.0426 L2095.53 46.6097 Q2103.47 48.3111 2106.79 51.4303 Q2110.15 54.509 2110.15 60.0587 Q2110.15 66.3781 2105.13 70.0644 Q2100.14 73.7508 2091.39 73.7508 Q2087.75 73.7508 2083.78 73.0216 Q2079.85 72.3329 2075.47 70.9151 L2075.47 63.2184 Q2079.61 65.3654 2083.62 66.4591 Q2087.63 67.5124 2091.56 67.5124 Q2096.82 67.5124 2099.66 65.73 Q2102.49 63.9071 2102.49 60.6258 Q2102.49 57.5877 2100.43 55.9673 Q2098.4 54.3469 2091.48 52.8481 L2088.88 52.2405 Q2081.96 50.7821 2078.88 47.7845 Q2075.8 44.7463 2075.8 39.4801 Q2075.8 33.0797 2080.34 29.5959 Q2084.87 26.1121 2093.22 26.1121 Q2097.35 26.1121 2100.99 26.7198 Q2104.64 27.3274 2107.72 28.5427 Z" fill="#000000" fill-rule="evenodd" fill-opacity="1" /><polyline clip-path="url(#clip422)" style="stroke:#009af9; stroke-width:4; stroke-opacity:1; fill:none" points="
  277.37,1386.4 281.408,433.262 285.446,987.861 289.484,967.872 293.522,1180.47 297.56,600.647 301.598,1118.08 305.636,1069.06 309.674,564.668 313.712,1286.33 
  317.75,1307.54 321.788,1292.55 325.826,1275.79 329.863,614.742 333.901,907.971 337.939,1011.54 341.977,757.387 346.015,1322.35 350.053,898.324 354.091,1230.57 
  358.129,1150.08 362.167,796.117 366.205,1032.5 370.243,902.544 374.281,712.29 378.319,1055.2 382.357,1285.47 386.395,1105.61 390.433,900.203 394.471,984.969 
  398.509,665.598 402.547,1233.86 406.585,847.754 410.623,651.161 414.66,1091.15 418.698,922.219 422.736,1220.1 426.774,1202.35 430.812,1057.53 434.85,713.792 
  438.888,1056.59 442.926,494.853 446.964,1030.02 451.002,1196.14 455.04,1195.89 459.078,842.07 463.116,1293.38 467.154,583.785 471.192,1022.66 475.23,1131.95 
  479.268,1094.31 483.306,1042.23 487.344,860.451 491.382,907.937 495.419,1086.98 499.457,967.742 503.495,861.603 507.533,754.802 511.571,1008.45 515.609,1118.93 
  519.647,974.379 523.685,926.429 527.723,944.704 531.761,1047.72 535.799,878.261 539.837,981.457 543.875,1074.42 547.913,996.483 551.951,708.569 555.989,696.047 
  560.027,936.338 564.065,1135.13 568.103,1301.01 572.141,1073.36 576.179,1059.11 580.216,1260.76 584.254,514.745 588.292,807.629 592.33,950.402 596.368,1005.33 
  600.406,545.182 604.444,642.839 608.482,794.301 612.52,1165.29 616.558,783.065 620.596,1201.25 624.634,892.807 628.672,636.327 632.71,953.658 636.748,915.178 
  640.786,1010.7 644.824,793.057 648.862,327.025 652.9,848.637 656.938,1001.93 660.975,1008.23 665.013,1133.74 669.051,662.98 673.089,1062.81 677.127,1239.12 
  681.165,1026.54 685.203,1271.3 689.241,1023.28 693.279,821.919 697.317,667.905 701.355,1241.98 705.393,881.248 709.431,914.953 713.469,312.169 717.507,711.326 
  721.545,1039.69 725.583,1073.91 729.621,1169.39 733.659,1218.74 737.697,683.654 741.735,440.273 745.772,1228.55 749.81,787.221 753.848,713.13 757.886,1135.74 
  761.924,1153.08 765.962,1170.27 770,1032.4 774.038,923.944 778.076,921.381 782.114,1091.61 786.152,811.642 790.19,881.794 794.228,1200.97 798.266,941.843 
  802.304,1114.89 806.342,1211.16 810.38,1262.07 814.418,1032.42 818.456,1187.66 822.494,1214.4 826.531,1235.18 830.569,1148.44 834.607,826.47 838.645,823.724 
  842.683,1204.58 846.721,968.699 850.759,1316.08 854.797,985.052 858.835,339.075 862.873,1221.69 866.911,1104.17 870.949,1267.21 874.987,1009.19 879.025,938.373 
  883.063,553.533 887.101,906.247 891.139,926.36 895.177,885.08 899.215,695.476 903.253,1286.95 907.291,674.355 911.328,1153.38 915.366,951.265 919.404,845.14 
  923.442,283.153 927.48,1342.28 931.518,1158.21 935.556,1030.09 939.594,1134.49 943.632,948.545 947.67,553.91 951.708,1120.14 955.746,1141.93 959.784,721.392 
  963.822,1115.24 967.86,1232.77 971.898,948.848 975.936,614.342 979.974,460.294 984.012,972.418 988.05,812.979 992.087,1263.98 996.125,404.19 1000.16,937.893 
  1004.2,839.671 1008.24,713.35 1012.28,1050.99 1016.32,1170.44 1020.35,1341.13 1024.39,1309.72 1028.43,614.527 1032.47,932.086 1036.5,1178.17 1040.54,836.013 
  1044.58,1017.46 1048.62,651.242 1052.66,1093.92 1056.69,1019.89 1060.73,765.304 1064.77,921.588 1068.81,521.619 1072.85,839.328 1076.88,938.662 1080.92,737.211 
  1084.96,802.156 1089,912.959 1093.04,1118.97 1097.07,217.254 1101.11,1316.86 1105.15,1248.58 1109.19,946.117 1113.23,699.11 1117.26,1124.59 1121.3,1292.64 
  1125.34,958.013 1129.38,1281.03 1133.42,1164.78 1137.45,1234.5 1141.49,815.389 1145.53,1023.72 1149.57,1031.88 1153.61,781.337 1157.64,667.77 1161.68,1376.65 
  1165.72,1087.64 1169.76,779.496 1173.8,1011.23 1177.83,1023.84 1181.87,1204.58 1185.91,800.668 1189.95,1099.43 1193.99,1137.37 1198.02,1277.96 1202.06,1126.05 
  1206.1,1040.3 1210.14,1268.04 1214.17,1148.71 1218.21,843.578 1222.25,1060.31 1226.29,1035.62 1230.33,1027.47 1234.36,799.952 1238.4,935.475 1242.44,1234.43 
  1246.48,988.762 1250.52,814.766 1254.55,636.779 1258.59,1225.51 1262.63,931.172 1266.67,1226.58 1270.71,1070.87 1274.74,1228.75 1278.78,855.968 1282.82,1157.15 
  1286.86,975.907 1290.9,1133.59 1294.93,1226.69 1298.97,1226.68 1303.01,1141.75 1307.05,595.839 1311.09,1225.49 1315.12,827.842 1319.16,1100.47 1323.2,1022.97 
  1327.24,1001.06 1331.28,749.528 1335.31,1008.34 1339.35,1155.55 1343.39,1123.69 1347.43,894.796 1351.47,1094.13 1355.5,999.887 1359.54,1323.31 1363.58,859.143 
  1367.62,1066.95 1371.65,801.59 1375.69,996.163 1379.73,722.493 1383.77,669.048 1387.81,1187.82 1391.84,687.255 1395.88,1267.38 1399.92,815.046 1403.96,1196.73 
  1408,1015.5 1412.03,926.424 1416.07,726.296 1420.11,977.537 1424.15,1276.13 1428.19,1236.12 1432.22,1207.43 1436.26,1196.67 1440.3,711.256 1444.34,1119.11 
  1448.38,160.256 1452.41,896.426 1456.45,578.189 1460.49,975.68 1464.53,1006.8 1468.57,932.711 1472.6,1192.79 1476.64,859.82 1480.68,929.885 1484.72,1088.28 
  1488.76,826.649 1492.79,1265.95 1496.83,1142.41 1500.87,711.295 1504.91,1329.66 1508.95,875.05 1512.98,1210.63 1517.02,1033.96 1521.06,896.615 1525.1,1196.86 
  1529.13,1151.71 1533.17,1228.5 1537.21,953.475 1541.25,911.116 1545.29,845.211 1549.32,1216.79 1553.36,971.267 1557.4,998.637 1561.44,788.317 1565.48,996.89 
  1569.51,1022.33 1573.55,1337.15 1577.59,1113.06 1581.63,610.395 1585.67,1089.9 1589.7,291.494 1593.74,734.183 1597.78,846.747 1601.82,616.599 1605.86,940.157 
  1609.89,976.379 1613.93,887.356 1617.97,1019.81 1622.01,1037.98 1626.05,797.567 1630.08,1038.66 1634.12,1285.01 1638.16,527.52 1642.2,1190.36 1646.24,1214.86 
  1650.27,824.777 1654.31,1184.64 1658.35,988.347 1662.39,1143.33 1666.43,1037.16 1670.46,750.144 1674.5,695.792 1678.54,920.493 1682.58,658.733 1686.62,1140.21 
  1690.65,826.979 1694.69,922.372 1698.73,905.528 1702.77,971.881 1706.8,1058.88 1710.84,1124.08 1714.88,759.721 1718.92,831.667 1722.96,1098.51 1726.99,761.064 
  1731.03,788.419 1735.07,1301.25 1739.11,1092.51 1743.15,1011.36 1747.18,906.07 1751.22,1002.66 1755.26,839.122 1759.3,1008.97 1763.34,1254.84 1767.37,1372.65 
  1771.41,1006.02 1775.45,1056.48 1779.49,1229.46 1783.53,848.116 1787.56,771.11 1791.6,1157.57 1795.64,968.803 1799.68,926.458 1803.72,980.544 1807.75,1237.58 
  1811.79,1002.43 1815.83,535.978 1819.87,1273.54 1823.91,1041.12 1827.94,468.597 1831.98,687.54 1836.02,994.055 1840.06,1173.82 1844.1,1252.32 1848.13,935.644 
  1852.17,1217.2 1856.21,537.75 1860.25,803.565 1864.28,890.482 1868.32,1049.79 1872.36,1042.37 1876.4,1163.8 1880.44,1238.66 1884.47,787.203 1888.51,1247.15 
  1892.55,1035.12 1896.59,890.794 1900.63,1062.78 1904.66,797.883 1908.7,1293.7 1912.74,1039.97 1916.78,1319.71 1920.82,1157.57 1924.85,1180.12 1928.89,1213.3 
  1932.93,1297.86 1936.97,1141.09 1941.01,1271.76 1945.04,1003.39 1949.08,1033.46 1953.12,793.061 1957.16,1029.85 1961.2,1003.88 1965.23,950.585 1969.27,1050.6 
  1973.31,990.598 1977.35,731.42 1981.39,363.25 1985.42,825.235 1989.46,1135.06 1993.5,1108.26 1997.54,900.369 2001.58,977.106 2005.61,1048.23 2009.65,904.043 
  2013.69,942.311 2017.73,1100.27 2021.77,1065.33 2025.8,1323.03 2029.84,762.34 2033.88,1095.63 2037.92,714.077 2041.95,1239.55 2045.99,973.996 2050.03,571.87 
  2054.07,1003.81 2058.11,778.012 2062.14,1134.26 2066.18,881.306 2070.22,1258.09 2074.26,974.778 2078.3,870.494 2082.33,372.462 2086.37,746.577 2090.41,502.692 
  2094.45,562.823 2098.49,1035.23 2102.52,1319.8 2106.56,964.424 2110.6,789.499 2114.64,1046.26 2118.68,735.698 2122.71,1024.59 2126.75,748.237 2130.79,797.752 
  2134.83,409.835 2138.87,449.109 2142.9,873.341 2146.94,260.228 2150.98,797.486 2155.02,968.151 2159.06,862.179 2163.09,1194.05 2167.13,774.613 2171.17,1224.19 
  2175.21,1105.84 2179.25,1110.05 2183.28,1043.01 2187.32,881.83 2191.36,968.835 2195.4,1289.53 2199.43,892.95 2203.47,922.234 2207.51,1017.39 2211.55,1164.73 
  2215.59,560.728 2219.62,1279.86 2223.66,709.934 2227.7,1162.83 2231.74,969.544 2235.78,532.038 2239.81,1276.02 2243.85,677.582 2247.89,1203.64 2251.93,1305.54 
  2255.97,1183.32 2260,1095.7 2264.04,1023.8 2268.08,836.314 2272.12,798.941 2276.16,1075.72 2280.19,705.162 2284.23,1201.42 2288.27,1038.81 2292.31,1039.23 
  
  "/>
<polyline clip-path="url(#clip422)" style="stroke:#e26f46; stroke-width:4; stroke-opacity:1; fill:none" stroke-dasharray="16, 10" points="
  438.888,2722.89 438.888,-1176.24 
  "/>
<path clip-path="url(#clip420)" d="
M1687.7 287.756 L2281.56 287.756 L2281.56 166.796 L1687.7 166.796  Z
  " fill="#ffffff" fill-rule="evenodd" fill-opacity="1"/>
<polyline clip-path="url(#clip420)" style="stroke:#000000; stroke-width:4; stroke-opacity:1; fill:none" points="
  1687.7,287.756 2281.56,287.756 2281.56,166.796 1687.7,166.796 1687.7,287.756 
  "/>
<polyline clip-path="url(#clip420)" style="stroke:#e26f46; stroke-width:4; stroke-opacity:1; fill:none" stroke-dasharray="16, 10" points="
  1711.43,227.276 1853.82,227.276 
  "/>
<path clip-path="url(#clip420)" d="M 0 0 M1877.55 209.996 L1897.41 209.996 L1897.41 213.931 L1882.23 213.931 L1882.23 224.116 L1895.93 224.116 L1895.93 228.051 L1882.23 228.051 L1882.23 244.556 L1877.55 244.556 L1877.55 209.996 Z" fill="#000000" fill-rule="evenodd" fill-opacity="1" /><path clip-path="url(#clip420)" d="M 0 0 M1916.21 222.611 Q1915.49 222.195 1914.63 222.01 Q1913.8 221.801 1912.78 221.801 Q1909.17 221.801 1907.23 224.162 Q1905.3 226.5 1905.3 230.898 L1905.3 244.556 L1901.02 244.556 L1901.02 218.63 L1905.3 218.63 L1905.3 222.658 Q1906.65 220.297 1908.8 219.162 Q1910.95 218.005 1914.03 218.005 Q1914.47 218.005 1915 218.074 Q1915.54 218.121 1916.18 218.236 L1916.21 222.611 Z" fill="#000000" fill-rule="evenodd" fill-opacity="1" /><path clip-path="url(#clip420)" d="M 0 0 M1941.81 230.528 L1941.81 232.611 L1922.23 232.611 Q1922.5 237.009 1924.86 239.324 Q1927.25 241.616 1931.48 241.616 Q1933.94 241.616 1936.23 241.014 Q1938.54 240.412 1940.81 239.209 L1940.81 243.236 Q1938.52 244.208 1936.11 244.718 Q1933.71 245.227 1931.23 245.227 Q1925.03 245.227 1921.39 241.616 Q1917.78 238.005 1917.78 231.847 Q1917.78 225.482 1921.21 221.755 Q1924.66 218.005 1930.49 218.005 Q1935.72 218.005 1938.75 221.385 Q1941.81 224.741 1941.81 230.528 M1937.55 229.278 Q1937.5 225.783 1935.58 223.699 Q1933.68 221.616 1930.54 221.616 Q1926.97 221.616 1924.82 223.63 Q1922.69 225.644 1922.36 229.301 L1937.55 229.278 Z" fill="#000000" fill-rule="evenodd" fill-opacity="1" /><path clip-path="url(#clip420)" d="M 0 0 M1951.35 231.616 Q1951.35 236.315 1953.27 239 Q1955.21 241.662 1958.59 241.662 Q1961.97 241.662 1963.91 239 Q1965.86 236.315 1965.86 231.616 Q1965.86 226.917 1963.91 224.255 Q1961.97 221.57 1958.59 221.57 Q1955.21 221.57 1953.27 224.255 Q1951.35 226.917 1951.35 231.616 M1965.86 240.667 Q1964.52 242.982 1962.46 244.116 Q1960.42 245.227 1957.55 245.227 Q1952.85 245.227 1949.89 241.477 Q1946.95 237.727 1946.95 231.616 Q1946.95 225.505 1949.89 221.755 Q1952.85 218.005 1957.55 218.005 Q1960.42 218.005 1962.46 219.139 Q1964.52 220.25 1965.86 222.565 L1965.86 218.63 L1970.12 218.63 L1970.12 254.417 L1965.86 254.417 L1965.86 240.667 Z" fill="#000000" fill-rule="evenodd" fill-opacity="1" /><path clip-path="url(#clip420)" d="M 0 0 M1978.45 234.324 L1978.45 218.63 L1982.71 218.63 L1982.71 234.162 Q1982.71 237.843 1984.15 239.695 Q1985.58 241.523 1988.45 241.523 Q1991.9 241.523 1993.89 239.324 Q1995.91 237.125 1995.91 233.329 L1995.91 218.63 L2000.16 218.63 L2000.16 244.556 L1995.91 244.556 L1995.91 240.574 Q1994.35 242.935 1992.29 244.093 Q1990.26 245.227 1987.55 245.227 Q1983.08 245.227 1980.77 242.449 Q1978.45 239.671 1978.45 234.324 M1989.17 218.005 L1989.17 218.005 Z" fill="#000000" fill-rule="evenodd" fill-opacity="1" /><path clip-path="url(#clip420)" d="M 0 0 M2031.11 230.528 L2031.11 232.611 L2011.53 232.611 Q2011.81 237.009 2014.17 239.324 Q2016.55 241.616 2020.79 241.616 Q2023.24 241.616 2025.53 241.014 Q2027.85 240.412 2030.12 239.209 L2030.12 243.236 Q2027.83 244.208 2025.42 244.718 Q2023.01 245.227 2020.53 245.227 Q2014.33 245.227 2010.7 241.616 Q2007.09 238.005 2007.09 231.847 Q2007.09 225.482 2010.51 221.755 Q2013.96 218.005 2019.79 218.005 Q2025.03 218.005 2028.06 221.385 Q2031.11 224.741 2031.11 230.528 M2026.85 229.278 Q2026.81 225.783 2024.89 223.699 Q2022.99 221.616 2019.84 221.616 Q2016.28 221.616 2014.12 223.63 Q2011.99 225.644 2011.67 229.301 L2026.85 229.278 Z" fill="#000000" fill-rule="evenodd" fill-opacity="1" /><path clip-path="url(#clip420)" d="M 0 0 M2059.65 228.908 L2059.65 244.556 L2055.4 244.556 L2055.4 229.047 Q2055.4 225.366 2053.96 223.537 Q2052.53 221.709 2049.66 221.709 Q2046.21 221.709 2044.22 223.908 Q2042.22 226.107 2042.22 229.903 L2042.22 244.556 L2037.94 244.556 L2037.94 218.63 L2042.22 218.63 L2042.22 222.658 Q2043.75 220.32 2045.81 219.162 Q2047.9 218.005 2050.6 218.005 Q2055.07 218.005 2057.36 220.783 Q2059.65 223.537 2059.65 228.908 Z" fill="#000000" fill-rule="evenodd" fill-opacity="1" /><path clip-path="url(#clip420)" d="M 0 0 M2086.81 219.625 L2086.81 223.607 Q2085 222.611 2083.17 222.125 Q2081.37 221.616 2079.52 221.616 Q2075.37 221.616 2073.08 224.255 Q2070.79 226.871 2070.79 231.616 Q2070.79 236.361 2073.08 239 Q2075.37 241.616 2079.52 241.616 Q2081.37 241.616 2083.17 241.13 Q2085 240.621 2086.81 239.625 L2086.81 243.56 Q2085.03 244.394 2083.1 244.81 Q2081.21 245.227 2079.05 245.227 Q2073.2 245.227 2069.75 241.546 Q2066.3 237.866 2066.3 231.616 Q2066.3 225.273 2069.77 221.639 Q2073.27 218.005 2079.33 218.005 Q2081.3 218.005 2083.17 218.422 Q2085.05 218.815 2086.81 219.625 Z" fill="#000000" fill-rule="evenodd" fill-opacity="1" /><path clip-path="url(#clip420)" d="M 0 0 M2105 246.963 Q2103.2 251.593 2101.48 253.005 Q2099.77 254.417 2096.9 254.417 L2093.5 254.417 L2093.5 250.852 L2096 250.852 Q2097.76 250.852 2098.73 250.019 Q2099.7 249.185 2100.88 246.083 L2101.65 244.139 L2091.16 218.63 L2095.67 218.63 L2103.78 238.908 L2111.88 218.63 L2116.39 218.63 L2105 246.963 Z" fill="#000000" fill-rule="evenodd" fill-opacity="1" /><path clip-path="url(#clip420)" d="M 0 0 M2153.87 219.394 L2153.87 223.422 Q2152.06 222.496 2150.12 222.033 Q2148.17 221.57 2146.09 221.57 Q2142.92 221.57 2141.32 222.542 Q2139.75 223.514 2139.75 225.459 Q2139.75 226.94 2140.88 227.797 Q2142.02 228.63 2145.44 229.394 L2146.9 229.718 Q2151.44 230.69 2153.34 232.472 Q2155.26 234.232 2155.26 237.403 Q2155.26 241.014 2152.39 243.121 Q2149.54 245.227 2144.54 245.227 Q2142.46 245.227 2140.19 244.81 Q2137.94 244.417 2135.44 243.607 L2135.44 239.209 Q2137.8 240.435 2140.09 241.06 Q2142.39 241.662 2144.63 241.662 Q2147.64 241.662 2149.26 240.644 Q2150.88 239.602 2150.88 237.727 Q2150.88 235.991 2149.7 235.065 Q2148.54 234.139 2144.59 233.283 L2143.1 232.935 Q2139.15 232.102 2137.39 230.389 Q2135.63 228.653 2135.63 225.644 Q2135.63 221.986 2138.22 219.996 Q2140.81 218.005 2145.58 218.005 Q2147.94 218.005 2150.02 218.352 Q2152.11 218.699 2153.87 219.394 Z" fill="#000000" fill-rule="evenodd" fill-opacity="1" /><path clip-path="url(#clip420)" d="M 0 0 M2183.59 228.908 L2183.59 244.556 L2179.33 244.556 L2179.33 229.047 Q2179.33 225.366 2177.9 223.537 Q2176.46 221.709 2173.59 221.709 Q2170.14 221.709 2168.15 223.908 Q2166.16 226.107 2166.16 229.903 L2166.16 244.556 L2161.88 244.556 L2161.88 208.537 L2166.16 208.537 L2166.16 222.658 Q2167.69 220.32 2169.75 219.162 Q2171.83 218.005 2174.54 218.005 Q2179.01 218.005 2181.3 220.783 Q2183.59 223.537 2183.59 228.908 Z" fill="#000000" fill-rule="evenodd" fill-opacity="1" /><path clip-path="url(#clip420)" d="M 0 0 M2192.08 218.63 L2196.34 218.63 L2196.34 244.556 L2192.08 244.556 L2192.08 218.63 M2192.08 208.537 L2196.34 208.537 L2196.34 213.931 L2192.08 213.931 L2192.08 208.537 Z" fill="#000000" fill-rule="evenodd" fill-opacity="1" /><path clip-path="url(#clip420)" d="M 0 0 M2218.38 208.537 L2218.38 212.079 L2214.31 212.079 Q2212.02 212.079 2211.11 213.005 Q2210.23 213.931 2210.23 216.338 L2210.23 218.63 L2217.25 218.63 L2217.25 221.94 L2210.23 221.94 L2210.23 244.556 L2205.95 244.556 L2205.95 221.94 L2201.88 221.94 L2201.88 218.63 L2205.95 218.63 L2205.95 216.824 Q2205.95 212.496 2207.96 210.528 Q2209.98 208.537 2214.35 208.537 L2218.38 208.537 Z" fill="#000000" fill-rule="evenodd" fill-opacity="1" /><path clip-path="url(#clip420)" d="M 0 0 M2225.33 211.269 L2225.33 218.63 L2234.1 218.63 L2234.1 221.94 L2225.33 221.94 L2225.33 236.014 Q2225.33 239.185 2226.18 240.088 Q2227.06 240.991 2229.72 240.991 L2234.1 240.991 L2234.1 244.556 L2229.72 244.556 Q2224.79 244.556 2222.92 242.727 Q2221.04 240.875 2221.04 236.014 L2221.04 221.94 L2217.92 221.94 L2217.92 218.63 L2221.04 218.63 L2221.04 211.269 L2225.33 211.269 Z" fill="#000000" fill-rule="evenodd" fill-opacity="1" /></svg>
