<?xml version="1.0" encoding="utf-8"?>
<svg xmlns="http://www.w3.org/2000/svg" xmlns:xlink="http://www.w3.org/1999/xlink" width="600" height="400" viewBox="0 0 2400 1600">
<defs>
  <clipPath id="clip360">
    <rect x="0" y="0" width="2400" height="1600"/>
  </clipPath>
</defs>
<path clip-path="url(#clip360)" d="
M0 1600 L2400 1600 L2400 0 L0 0  Z
  " fill="#ffffff" fill-rule="evenodd" fill-opacity="1"/>
<defs>
  <clipPath id="clip361">
    <rect x="480" y="0" width="1681" height="1600"/>
  </clipPath>
</defs>
<defs>
  <clipPath id="clip362">
    <rect x="140" y="123" width="2213" height="1301"/>
  </clipPath>
</defs>
<path clip-path="url(#clip360)" d="
M138.959 1423.18 L2352.76 1423.18 L2352.76 142.953 L138.959 142.953  Z
  " fill="#ffffff" fill-rule="evenodd" fill-opacity="1"/>
<defs>
  <clipPath id="clip363">
    <rect x="138" y="142" width="2215" height="1281"/>
  </clipPath>
</defs>
<polyline clip-path="url(#clip363)" style="stroke:#000000; stroke-width:2; stroke-opacity:0.1; fill:none" points="
  201.614,1423.18 201.614,142.953 
  "/>
<polyline clip-path="url(#clip363)" style="stroke:#000000; stroke-width:2; stroke-opacity:0.1; fill:none" points="
  620.242,1423.18 620.242,142.953 
  "/>
<polyline clip-path="url(#clip363)" style="stroke:#000000; stroke-width:2; stroke-opacity:0.1; fill:none" points="
  1038.87,1423.18 1038.87,142.953 
  "/>
<polyline clip-path="url(#clip363)" style="stroke:#000000; stroke-width:2; stroke-opacity:0.1; fill:none" points="
  1457.5,1423.18 1457.5,142.953 
  "/>
<polyline clip-path="url(#clip363)" style="stroke:#000000; stroke-width:2; stroke-opacity:0.1; fill:none" points="
  1876.12,1423.18 1876.12,142.953 
  "/>
<polyline clip-path="url(#clip363)" style="stroke:#000000; stroke-width:2; stroke-opacity:0.1; fill:none" points="
  2294.75,1423.18 2294.75,142.953 
  "/>
<polyline clip-path="url(#clip360)" style="stroke:#000000; stroke-width:4; stroke-opacity:1; fill:none" points="
  138.959,1423.18 2352.76,1423.18 
  "/>
<polyline clip-path="url(#clip360)" style="stroke:#000000; stroke-width:4; stroke-opacity:1; fill:none" points="
  201.614,1423.18 201.614,1407.82 
  "/>
<polyline clip-path="url(#clip360)" style="stroke:#000000; stroke-width:4; stroke-opacity:1; fill:none" points="
  620.242,1423.18 620.242,1407.82 
  "/>
<polyline clip-path="url(#clip360)" style="stroke:#000000; stroke-width:4; stroke-opacity:1; fill:none" points="
  1038.87,1423.18 1038.87,1407.82 
  "/>
<polyline clip-path="url(#clip360)" style="stroke:#000000; stroke-width:4; stroke-opacity:1; fill:none" points="
  1457.5,1423.18 1457.5,1407.82 
  "/>
<polyline clip-path="url(#clip360)" style="stroke:#000000; stroke-width:4; stroke-opacity:1; fill:none" points="
  1876.12,1423.18 1876.12,1407.82 
  "/>
<polyline clip-path="url(#clip360)" style="stroke:#000000; stroke-width:4; stroke-opacity:1; fill:none" points="
  2294.75,1423.18 2294.75,1407.82 
  "/>
<path clip-path="url(#clip360)" d="M 0 0 M201.614 1452.37 Q198.003 1452.37 196.174 1455.94 Q194.369 1459.48 194.369 1466.61 Q194.369 1473.71 196.174 1477.28 Q198.003 1480.82 201.614 1480.82 Q205.248 1480.82 207.054 1477.28 Q208.883 1473.71 208.883 1466.61 Q208.883 1459.48 207.054 1455.94 Q205.248 1452.37 201.614 1452.37 M201.614 1448.67 Q207.424 1448.67 210.48 1453.27 Q213.558 1457.86 213.558 1466.61 Q213.558 1475.33 210.48 1479.94 Q207.424 1484.52 201.614 1484.52 Q195.804 1484.52 192.725 1479.94 Q189.67 1475.33 189.67 1466.61 Q189.67 1457.86 192.725 1453.27 Q195.804 1448.67 201.614 1448.67 Z" fill="#000000" fill-rule="evenodd" fill-opacity="1" /><path clip-path="url(#clip360)" d="M 0 0 M594.929 1479.92 L602.568 1479.92 L602.568 1453.55 L594.258 1455.22 L594.258 1450.96 L602.522 1449.29 L607.198 1449.29 L607.198 1479.92 L614.837 1479.92 L614.837 1483.85 L594.929 1483.85 L594.929 1479.92 Z" fill="#000000" fill-rule="evenodd" fill-opacity="1" /><path clip-path="url(#clip360)" d="M 0 0 M634.281 1452.37 Q630.67 1452.37 628.841 1455.94 Q627.036 1459.48 627.036 1466.61 Q627.036 1473.71 628.841 1477.28 Q630.67 1480.82 634.281 1480.82 Q637.915 1480.82 639.721 1477.28 Q641.55 1473.71 641.55 1466.61 Q641.55 1459.48 639.721 1455.94 Q637.915 1452.37 634.281 1452.37 M634.281 1448.67 Q640.091 1448.67 643.147 1453.27 Q646.225 1457.86 646.225 1466.61 Q646.225 1475.33 643.147 1479.94 Q640.091 1484.52 634.281 1484.52 Q628.471 1484.52 625.392 1479.94 Q622.337 1475.33 622.337 1466.61 Q622.337 1457.86 625.392 1453.27 Q628.471 1448.67 634.281 1448.67 Z" fill="#000000" fill-rule="evenodd" fill-opacity="1" /><path clip-path="url(#clip360)" d="M 0 0 M1017.64 1479.92 L1033.96 1479.92 L1033.96 1483.85 L1012.02 1483.85 L1012.02 1479.92 Q1014.68 1477.16 1019.26 1472.53 Q1023.87 1467.88 1025.05 1466.54 Q1027.3 1464.01 1028.18 1462.28 Q1029.08 1460.52 1029.08 1458.83 Q1029.08 1456.07 1027.13 1454.34 Q1025.21 1452.6 1022.11 1452.6 Q1019.91 1452.6 1017.46 1453.37 Q1015.03 1454.13 1012.25 1455.68 L1012.25 1450.96 Q1015.07 1449.82 1017.53 1449.25 Q1019.98 1448.67 1022.02 1448.67 Q1027.39 1448.67 1030.58 1451.35 Q1033.78 1454.04 1033.78 1458.53 Q1033.78 1460.66 1032.97 1462.58 Q1032.18 1464.48 1030.07 1467.07 Q1029.49 1467.74 1026.39 1470.96 Q1023.29 1474.15 1017.64 1479.92 Z" fill="#000000" fill-rule="evenodd" fill-opacity="1" /><path clip-path="url(#clip360)" d="M 0 0 M1053.78 1452.37 Q1050.17 1452.37 1048.34 1455.94 Q1046.53 1459.48 1046.53 1466.61 Q1046.53 1473.71 1048.34 1477.28 Q1050.17 1480.82 1053.78 1480.82 Q1057.41 1480.82 1059.22 1477.28 Q1061.05 1473.71 1061.05 1466.61 Q1061.05 1459.48 1059.22 1455.94 Q1057.41 1452.37 1053.78 1452.37 M1053.78 1448.67 Q1059.59 1448.67 1062.64 1453.27 Q1065.72 1457.86 1065.72 1466.61 Q1065.72 1475.33 1062.64 1479.94 Q1059.59 1484.52 1053.78 1484.52 Q1047.97 1484.52 1044.89 1479.94 Q1041.83 1475.33 1041.83 1466.61 Q1041.83 1457.86 1044.89 1453.27 Q1047.97 1448.67 1053.78 1448.67 Z" fill="#000000" fill-rule="evenodd" fill-opacity="1" /><path clip-path="url(#clip360)" d="M 0 0 M1446.34 1465.22 Q1449.7 1465.94 1451.57 1468.2 Q1453.47 1470.47 1453.47 1473.81 Q1453.47 1478.92 1449.95 1481.72 Q1446.43 1484.52 1439.95 1484.52 Q1437.78 1484.52 1435.46 1484.08 Q1433.17 1483.67 1430.71 1482.81 L1430.71 1478.3 Q1432.66 1479.43 1434.97 1480.01 Q1437.29 1480.59 1439.81 1480.59 Q1444.21 1480.59 1446.5 1478.85 Q1448.82 1477.12 1448.82 1473.81 Q1448.82 1470.75 1446.66 1469.04 Q1444.53 1467.3 1440.71 1467.3 L1436.69 1467.3 L1436.69 1463.46 L1440.9 1463.46 Q1444.35 1463.46 1446.18 1462.09 Q1448.01 1460.7 1448.01 1458.11 Q1448.01 1455.45 1446.11 1454.04 Q1444.23 1452.6 1440.71 1452.6 Q1438.79 1452.6 1436.59 1453.02 Q1434.4 1453.44 1431.76 1454.31 L1431.76 1450.15 Q1434.42 1449.41 1436.73 1449.04 Q1439.07 1448.67 1441.13 1448.67 Q1446.46 1448.67 1449.56 1451.1 Q1452.66 1453.5 1452.66 1457.63 Q1452.66 1460.5 1451.02 1462.49 Q1449.37 1464.45 1446.34 1465.22 Z" fill="#000000" fill-rule="evenodd" fill-opacity="1" /><path clip-path="url(#clip360)" d="M 0 0 M1472.34 1452.37 Q1468.72 1452.37 1466.9 1455.94 Q1465.09 1459.48 1465.09 1466.61 Q1465.09 1473.71 1466.9 1477.28 Q1468.72 1480.82 1472.34 1480.82 Q1475.97 1480.82 1477.77 1477.28 Q1479.6 1473.71 1479.6 1466.61 Q1479.6 1459.48 1477.77 1455.94 Q1475.97 1452.37 1472.34 1452.37 M1472.34 1448.67 Q1478.15 1448.67 1481.2 1453.27 Q1484.28 1457.86 1484.28 1466.61 Q1484.28 1475.33 1481.2 1479.94 Q1478.15 1484.52 1472.34 1484.52 Q1466.52 1484.52 1463.45 1479.94 Q1460.39 1475.33 1460.39 1466.61 Q1460.39 1457.86 1463.45 1453.27 Q1466.52 1448.67 1472.34 1448.67 Z" fill="#000000" fill-rule="evenodd" fill-opacity="1" /><path clip-path="url(#clip360)" d="M 0 0 M1864.3 1453.37 L1852.49 1471.81 L1864.3 1471.81 L1864.3 1453.37 M1863.07 1449.29 L1868.95 1449.29 L1868.95 1471.81 L1873.88 1471.81 L1873.88 1475.7 L1868.95 1475.7 L1868.95 1483.85 L1864.3 1483.85 L1864.3 1475.7 L1848.69 1475.7 L1848.69 1471.19 L1863.07 1449.29 Z" fill="#000000" fill-rule="evenodd" fill-opacity="1" /><path clip-path="url(#clip360)" d="M 0 0 M1891.61 1452.37 Q1888 1452.37 1886.17 1455.94 Q1884.37 1459.48 1884.37 1466.61 Q1884.37 1473.71 1886.17 1477.28 Q1888 1480.82 1891.61 1480.82 Q1895.25 1480.82 1897.05 1477.28 Q1898.88 1473.71 1898.88 1466.61 Q1898.88 1459.48 1897.05 1455.94 Q1895.25 1452.37 1891.61 1452.37 M1891.61 1448.67 Q1897.42 1448.67 1900.48 1453.27 Q1903.56 1457.86 1903.56 1466.61 Q1903.56 1475.33 1900.48 1479.94 Q1897.42 1484.52 1891.61 1484.52 Q1885.8 1484.52 1882.72 1479.94 Q1879.67 1475.33 1879.67 1466.61 Q1879.67 1457.86 1882.72 1453.27 Q1885.8 1448.67 1891.61 1448.67 Z" fill="#000000" fill-rule="evenodd" fill-opacity="1" /><path clip-path="url(#clip360)" d="M 0 0 M2269.45 1449.29 L2287.81 1449.29 L2287.81 1453.23 L2273.73 1453.23 L2273.73 1461.7 Q2274.75 1461.35 2275.77 1461.19 Q2276.79 1461 2277.81 1461 Q2283.6 1461 2286.97 1464.18 Q2290.35 1467.35 2290.35 1472.76 Q2290.35 1478.34 2286.88 1481.44 Q2283.41 1484.52 2277.09 1484.52 Q2274.91 1484.52 2272.65 1484.15 Q2270.4 1483.78 2267.99 1483.04 L2267.99 1478.34 Q2270.08 1479.48 2272.3 1480.03 Q2274.52 1480.59 2277 1480.59 Q2281 1480.59 2283.34 1478.48 Q2285.68 1476.38 2285.68 1472.76 Q2285.68 1469.15 2283.34 1467.05 Q2281 1464.94 2277 1464.94 Q2275.12 1464.94 2273.25 1465.36 Q2271.4 1465.77 2269.45 1466.65 L2269.45 1449.29 Z" fill="#000000" fill-rule="evenodd" fill-opacity="1" /><path clip-path="url(#clip360)" d="M 0 0 M2309.57 1452.37 Q2305.96 1452.37 2304.13 1455.94 Q2302.32 1459.48 2302.32 1466.61 Q2302.32 1473.71 2304.13 1477.28 Q2305.96 1480.82 2309.57 1480.82 Q2313.2 1480.82 2315.01 1477.28 Q2316.84 1473.71 2316.84 1466.61 Q2316.84 1459.48 2315.01 1455.94 Q2313.2 1452.37 2309.57 1452.37 M2309.57 1448.67 Q2315.38 1448.67 2318.43 1453.27 Q2321.51 1457.86 2321.51 1466.61 Q2321.51 1475.33 2318.43 1479.94 Q2315.38 1484.52 2309.57 1484.52 Q2303.76 1484.52 2300.68 1479.94 Q2297.62 1475.33 2297.62 1466.61 Q2297.62 1457.86 2300.68 1453.27 Q2303.76 1448.67 2309.57 1448.67 Z" fill="#000000" fill-rule="evenodd" fill-opacity="1" /><path clip-path="url(#clip360)" d="M 0 0 M1005.97 1518.52 L1005.97 1523.39 L1000.36 1523.39 Q997.213 1523.39 995.972 1524.66 Q994.762 1525.93 994.762 1529.24 L994.762 1532.4 L1004.41 1532.4 L1004.41 1536.95 L994.762 1536.95 L994.762 1568.04 L988.874 1568.04 L988.874 1536.95 L983.272 1536.95 L983.272 1532.4 L988.874 1532.4 L988.874 1529.91 Q988.874 1523.96 991.643 1521.26 Q994.412 1518.52 1000.43 1518.52 L1005.97 1518.52 Z" fill="#000000" fill-rule="evenodd" fill-opacity="1" /><path clip-path="url(#clip360)" d="M 0 0 M1031.52 1537.87 Q1030.54 1537.3 1029.36 1537.04 Q1028.21 1536.76 1026.81 1536.76 Q1021.85 1536.76 1019.17 1540 Q1016.53 1543.22 1016.53 1549.27 L1016.53 1568.04 L1010.64 1568.04 L1010.64 1532.4 L1016.53 1532.4 L1016.53 1537.93 Q1018.38 1534.69 1021.34 1533.13 Q1024.3 1531.54 1028.53 1531.54 Q1029.14 1531.54 1029.87 1531.63 Q1030.6 1531.7 1031.49 1531.85 L1031.52 1537.87 Z" fill="#000000" fill-rule="evenodd" fill-opacity="1" /><path clip-path="url(#clip360)" d="M 0 0 M1066.73 1548.76 L1066.73 1551.62 L1039.8 1551.62 Q1040.18 1557.67 1043.43 1560.85 Q1046.71 1564 1052.53 1564 Q1055.9 1564 1059.06 1563.17 Q1062.24 1562.35 1065.36 1560.69 L1065.36 1566.23 Q1062.21 1567.57 1058.9 1568.27 Q1055.59 1568.97 1052.18 1568.97 Q1043.65 1568.97 1038.65 1564 Q1033.69 1559.04 1033.69 1550.57 Q1033.69 1541.82 1038.4 1536.69 Q1043.14 1531.54 1051.16 1531.54 Q1058.36 1531.54 1062.53 1536.18 Q1066.73 1540.8 1066.73 1548.76 M1060.87 1547.04 Q1060.81 1542.23 1058.16 1539.37 Q1055.55 1536.5 1051.23 1536.5 Q1046.32 1536.5 1043.36 1539.27 Q1040.44 1542.04 1039.99 1547.07 L1060.87 1547.04 Z" fill="#000000" fill-rule="evenodd" fill-opacity="1" /><path clip-path="url(#clip360)" d="M 0 0 M1079.84 1550.25 Q1079.84 1556.71 1082.48 1560.4 Q1085.16 1564.07 1089.8 1564.07 Q1094.45 1564.07 1097.12 1560.4 Q1099.8 1556.71 1099.8 1550.25 Q1099.8 1543.79 1097.12 1540.13 Q1094.45 1536.44 1089.8 1536.44 Q1085.16 1536.44 1082.48 1540.13 Q1079.84 1543.79 1079.84 1550.25 M1099.8 1562.7 Q1097.95 1565.88 1095.12 1567.44 Q1092.32 1568.97 1088.37 1568.97 Q1081.91 1568.97 1077.83 1563.81 Q1073.79 1558.65 1073.79 1550.25 Q1073.79 1541.85 1077.83 1536.69 Q1081.91 1531.54 1088.37 1531.54 Q1092.32 1531.54 1095.12 1533.1 Q1097.95 1534.62 1099.8 1537.81 L1099.8 1532.4 L1105.65 1532.4 L1105.65 1581.6 L1099.8 1581.6 L1099.8 1562.7 Z" fill="#000000" fill-rule="evenodd" fill-opacity="1" /><path clip-path="url(#clip360)" d="M 0 0 M1117.11 1553.98 L1117.11 1532.4 L1122.97 1532.4 L1122.97 1553.75 Q1122.97 1558.81 1124.94 1561.36 Q1126.91 1563.87 1130.86 1563.87 Q1135.6 1563.87 1138.34 1560.85 Q1141.11 1557.83 1141.11 1552.61 L1141.11 1532.4 L1146.97 1532.4 L1146.97 1568.04 L1141.11 1568.04 L1141.11 1562.57 Q1138.98 1565.82 1136.14 1567.41 Q1133.34 1568.97 1129.62 1568.97 Q1123.48 1568.97 1120.29 1565.15 Q1117.11 1561.33 1117.11 1553.98 M1131.85 1531.54 L1131.85 1531.54 Z" fill="#000000" fill-rule="evenodd" fill-opacity="1" /><path clip-path="url(#clip360)" d="M 0 0 M1189.52 1548.76 L1189.52 1551.62 L1162.59 1551.62 Q1162.98 1557.67 1166.22 1560.85 Q1169.5 1564 1175.33 1564 Q1178.7 1564 1181.85 1563.17 Q1185.03 1562.35 1188.15 1560.69 L1188.15 1566.23 Q1185 1567.57 1181.69 1568.27 Q1178.38 1568.97 1174.98 1568.97 Q1166.45 1568.97 1161.45 1564 Q1156.48 1559.04 1156.48 1550.57 Q1156.48 1541.82 1161.19 1536.69 Q1165.94 1531.54 1173.96 1531.54 Q1181.15 1531.54 1185.32 1536.18 Q1189.52 1540.8 1189.52 1548.76 M1183.66 1547.04 Q1183.6 1542.23 1180.96 1539.37 Q1178.35 1536.5 1174.02 1536.5 Q1169.12 1536.5 1166.16 1539.27 Q1163.23 1542.04 1162.79 1547.07 L1183.66 1547.04 Z" fill="#000000" fill-rule="evenodd" fill-opacity="1" /><path clip-path="url(#clip360)" d="M 0 0 M1228.77 1546.53 L1228.77 1568.04 L1222.91 1568.04 L1222.91 1546.72 Q1222.91 1541.66 1220.94 1539.14 Q1218.96 1536.63 1215.02 1536.63 Q1210.27 1536.63 1207.54 1539.65 Q1204.8 1542.68 1204.8 1547.9 L1204.8 1568.04 L1198.91 1568.04 L1198.91 1532.4 L1204.8 1532.4 L1204.8 1537.93 Q1206.9 1534.72 1209.73 1533.13 Q1212.6 1531.54 1216.32 1531.54 Q1222.46 1531.54 1225.61 1535.36 Q1228.77 1539.14 1228.77 1546.53 Z" fill="#000000" fill-rule="evenodd" fill-opacity="1" /><path clip-path="url(#clip360)" d="M 0 0 M1266.1 1533.76 L1266.1 1539.24 Q1263.62 1537.87 1261.1 1537.2 Q1258.62 1536.5 1256.07 1536.5 Q1250.38 1536.5 1247.23 1540.13 Q1244.08 1543.73 1244.08 1550.25 Q1244.08 1556.78 1247.23 1560.4 Q1250.38 1564 1256.07 1564 Q1258.62 1564 1261.1 1563.33 Q1263.62 1562.63 1266.1 1561.26 L1266.1 1566.68 Q1263.65 1567.82 1261.01 1568.39 Q1258.4 1568.97 1255.44 1568.97 Q1247.39 1568.97 1242.64 1563.91 Q1237.9 1558.85 1237.9 1550.25 Q1237.9 1541.53 1242.67 1536.53 Q1247.48 1531.54 1255.82 1531.54 Q1258.53 1531.54 1261.1 1532.11 Q1263.68 1532.65 1266.1 1533.76 Z" fill="#000000" fill-rule="evenodd" fill-opacity="1" /><path clip-path="url(#clip360)" d="M 0 0 M1291.12 1571.35 Q1288.64 1577.72 1286.28 1579.66 Q1283.92 1581.6 1279.98 1581.6 L1275.3 1581.6 L1275.3 1576.7 L1278.74 1576.7 Q1281.16 1576.7 1282.49 1575.56 Q1283.83 1574.41 1285.45 1570.14 L1286.5 1567.47 L1272.08 1532.4 L1278.29 1532.4 L1289.43 1560.28 L1300.57 1532.4 L1306.78 1532.4 L1291.12 1571.35 Z" fill="#000000" fill-rule="evenodd" fill-opacity="1" /><path clip-path="url(#clip360)" d="M 0 0 M1349.65 1518.58 Q1345.39 1525.9 1343.32 1533.06 Q1341.25 1540.23 1341.25 1547.58 Q1341.25 1554.93 1343.32 1562.16 Q1345.42 1569.35 1349.65 1576.64 L1344.56 1576.64 Q1339.78 1569.16 1337.4 1561.93 Q1335.04 1554.71 1335.04 1547.58 Q1335.04 1540.48 1337.4 1533.29 Q1339.75 1526.09 1344.56 1518.58 L1349.65 1518.58 Z" fill="#000000" fill-rule="evenodd" fill-opacity="1" /><path clip-path="url(#clip360)" d="M 0 0 M1393.67 1561.26 L1393.67 1548.5 L1383.17 1548.5 L1383.17 1543.22 L1400.04 1543.22 L1400.04 1563.62 Q1396.31 1566.26 1391.82 1567.63 Q1387.34 1568.97 1382.24 1568.97 Q1371.1 1568.97 1364.8 1562.47 Q1358.53 1555.95 1358.53 1544.33 Q1358.53 1532.68 1364.8 1526.19 Q1371.1 1519.66 1382.24 1519.66 Q1386.89 1519.66 1391.06 1520.81 Q1395.26 1521.96 1398.79 1524.18 L1398.79 1531.03 Q1395.23 1528 1391.22 1526.48 Q1387.21 1524.95 1382.78 1524.95 Q1374.06 1524.95 1369.67 1529.82 Q1365.31 1534.69 1365.31 1544.33 Q1365.31 1553.94 1369.67 1558.81 Q1374.06 1563.68 1382.78 1563.68 Q1386.19 1563.68 1388.86 1563.11 Q1391.54 1562.51 1393.67 1561.26 Z" fill="#000000" fill-rule="evenodd" fill-opacity="1" /><path clip-path="url(#clip360)" d="M 0 0 M1411.78 1520.52 L1418.21 1520.52 L1418.21 1540 L1441.57 1540 L1441.57 1520.52 L1448 1520.52 L1448 1568.04 L1441.57 1568.04 L1441.57 1545.41 L1418.21 1545.41 L1418.21 1568.04 L1411.78 1568.04 L1411.78 1520.52 Z" fill="#000000" fill-rule="evenodd" fill-opacity="1" /><path clip-path="url(#clip360)" d="M 0 0 M1457.99 1532.4 L1485.81 1532.4 L1485.81 1537.74 L1463.79 1563.37 L1485.81 1563.37 L1485.81 1568.04 L1457.2 1568.04 L1457.2 1562.7 L1479.22 1537.07 L1457.99 1537.07 L1457.99 1532.4 Z" fill="#000000" fill-rule="evenodd" fill-opacity="1" /><path clip-path="url(#clip360)" d="M 0 0 M1493.83 1518.58 L1498.93 1518.58 Q1503.7 1526.09 1506.06 1533.29 Q1508.44 1540.48 1508.44 1547.58 Q1508.44 1554.71 1506.06 1561.93 Q1503.7 1569.16 1498.93 1576.64 L1493.83 1576.64 Q1498.07 1569.35 1500.14 1562.16 Q1502.24 1554.93 1502.24 1547.58 Q1502.24 1540.23 1500.14 1533.06 Q1498.07 1525.9 1493.83 1518.58 Z" fill="#000000" fill-rule="evenodd" fill-opacity="1" /><polyline clip-path="url(#clip363)" style="stroke:#000000; stroke-width:2; stroke-opacity:0.1; fill:none" points="
  138.959,1386.95 2352.76,1386.95 
  "/>
<polyline clip-path="url(#clip363)" style="stroke:#000000; stroke-width:2; stroke-opacity:0.1; fill:none" points="
  138.959,1059.68 2352.76,1059.68 
  "/>
<polyline clip-path="url(#clip363)" style="stroke:#000000; stroke-width:2; stroke-opacity:0.1; fill:none" points="
  138.959,732.41 2352.76,732.41 
  "/>
<polyline clip-path="url(#clip363)" style="stroke:#000000; stroke-width:2; stroke-opacity:0.1; fill:none" points="
  138.959,405.141 2352.76,405.141 
  "/>
<polyline clip-path="url(#clip360)" style="stroke:#000000; stroke-width:4; stroke-opacity:1; fill:none" points="
  138.959,1423.18 138.959,142.953 
  "/>
<polyline clip-path="url(#clip360)" style="stroke:#000000; stroke-width:4; stroke-opacity:1; fill:none" points="
  138.959,1386.95 165.525,1386.95 
  "/>
<polyline clip-path="url(#clip360)" style="stroke:#000000; stroke-width:4; stroke-opacity:1; fill:none" points="
  138.959,1059.68 165.525,1059.68 
  "/>
<polyline clip-path="url(#clip360)" style="stroke:#000000; stroke-width:4; stroke-opacity:1; fill:none" points="
  138.959,732.41 165.525,732.41 
  "/>
<polyline clip-path="url(#clip360)" style="stroke:#000000; stroke-width:4; stroke-opacity:1; fill:none" points="
  138.959,405.141 165.525,405.141 
  "/>
<path clip-path="url(#clip360)" d="M 0 0 M91.0151 1372.75 Q87.404 1372.75 85.5753 1376.31 Q83.7697 1379.85 83.7697 1386.98 Q83.7697 1394.09 85.5753 1397.65 Q87.404 1401.19 91.0151 1401.19 Q94.6493 1401.19 96.4548 1397.65 Q98.2835 1394.09 98.2835 1386.98 Q98.2835 1379.85 96.4548 1376.31 Q94.6493 1372.75 91.0151 1372.75 M91.0151 1369.04 Q96.8252 1369.04 99.8808 1373.65 Q102.959 1378.23 102.959 1386.98 Q102.959 1395.71 99.8808 1400.31 Q96.8252 1404.9 91.0151 1404.9 Q85.2049 1404.9 82.1262 1400.31 Q79.0707 1395.71 79.0707 1386.98 Q79.0707 1378.23 82.1262 1373.65 Q85.2049 1369.04 91.0151 1369.04 Z" fill="#000000" fill-rule="evenodd" fill-opacity="1" /><path clip-path="url(#clip360)" d="M 0 0 M82.0568 1042.4 L100.413 1042.4 L100.413 1046.33 L86.3392 1046.33 L86.3392 1054.81 Q87.3577 1054.46 88.3762 1054.3 Q89.3947 1054.11 90.4132 1054.11 Q96.2002 1054.11 99.5798 1057.28 Q102.959 1060.45 102.959 1065.87 Q102.959 1071.45 99.4872 1074.55 Q96.015 1077.63 89.6956 1077.63 Q87.5197 1077.63 85.2512 1077.26 Q83.0058 1076.89 80.5984 1076.15 L80.5984 1071.45 Q82.6818 1072.58 84.904 1073.14 Q87.1262 1073.69 89.603 1073.69 Q93.6076 1073.69 95.9456 1071.59 Q98.2835 1069.48 98.2835 1065.87 Q98.2835 1062.26 95.9456 1060.15 Q93.6076 1058.05 89.603 1058.05 Q87.728 1058.05 85.8531 1058.46 Q84.0012 1058.88 82.0568 1059.76 L82.0568 1042.4 Z" fill="#000000" fill-rule="evenodd" fill-opacity="1" /><path clip-path="url(#clip360)" d="M 0 0 M51.6634 745.755 L59.3023 745.755 L59.3023 719.389 L50.9921 721.056 L50.9921 716.797 L59.256 715.13 L63.9319 715.13 L63.9319 745.755 L71.5707 745.755 L71.5707 749.69 L51.6634 749.69 L51.6634 745.755 Z" fill="#000000" fill-rule="evenodd" fill-opacity="1" /><path clip-path="url(#clip360)" d="M 0 0 M91.0151 718.209 Q87.404 718.209 85.5753 721.773 Q83.7697 725.315 83.7697 732.445 Q83.7697 739.551 85.5753 743.116 Q87.404 746.658 91.0151 746.658 Q94.6493 746.658 96.4548 743.116 Q98.2835 739.551 98.2835 732.445 Q98.2835 725.315 96.4548 721.773 Q94.6493 718.209 91.0151 718.209 M91.0151 714.505 Q96.8252 714.505 99.8808 719.111 Q102.959 723.695 102.959 732.445 Q102.959 741.171 99.8808 745.778 Q96.8252 750.361 91.0151 750.361 Q85.2049 750.361 82.1262 745.778 Q79.0707 741.171 79.0707 732.445 Q79.0707 723.695 82.1262 719.111 Q85.2049 714.505 91.0151 714.505 Z" fill="#000000" fill-rule="evenodd" fill-opacity="1" /><path clip-path="url(#clip360)" d="M 0 0 M52.6588 418.486 L60.2976 418.486 L60.2976 392.121 L51.9875 393.787 L51.9875 389.528 L60.2513 387.861 L64.9272 387.861 L64.9272 418.486 L72.5661 418.486 L72.5661 422.421 L52.6588 422.421 L52.6588 418.486 Z" fill="#000000" fill-rule="evenodd" fill-opacity="1" /><path clip-path="url(#clip360)" d="M 0 0 M82.0568 387.861 L100.413 387.861 L100.413 391.797 L86.3392 391.797 L86.3392 400.269 Q87.3577 399.921 88.3762 399.759 Q89.3947 399.574 90.4132 399.574 Q96.2002 399.574 99.5798 402.746 Q102.959 405.917 102.959 411.333 Q102.959 416.912 99.4872 420.014 Q96.015 423.093 89.6956 423.093 Q87.5197 423.093 85.2512 422.722 Q83.0058 422.352 80.5984 421.611 L80.5984 416.912 Q82.6818 418.046 84.904 418.602 Q87.1262 419.157 89.603 419.157 Q93.6076 419.157 95.9456 417.051 Q98.2835 414.945 98.2835 411.333 Q98.2835 407.722 95.9456 405.616 Q93.6076 403.509 89.603 403.509 Q87.728 403.509 85.8531 403.926 Q84.0012 404.343 82.0568 405.222 L82.0568 387.861 Z" fill="#000000" fill-rule="evenodd" fill-opacity="1" /><path clip-path="url(#clip360)" d="M 0 0 M1163.66 63.9912 L1162.94 65.1676 Q1158.49 63.2452 1152.95 60.1751 Q1147.42 63.2452 1142.97 65.1676 L1142.28 63.9912 Q1147.13 59.7734 1152.95 56.5311 Q1158.84 59.8021 1163.66 63.9912 Z" fill="#000000" fill-rule="evenodd" fill-opacity="1" /><path clip-path="url(#clip360)" d="M 0 0 M1166.41 78.0244 Q1166.41 78.0654 1166.16 79.541 L1156.82 116.8 Q1156.33 118.768 1154.93 120.735 Q1153.58 122.744 1151.41 124.465 Q1149.28 126.228 1146 127.293 Q1142.76 128.4 1139.03 128.4 Q1133.09 128.4 1130.46 127.13 Q1127.88 125.9 1127.88 123.277 Q1127.88 120.981 1129.32 119.669 Q1130.75 118.399 1132.39 118.399 Q1133.95 118.399 1134.77 119.301 Q1135.59 120.202 1135.59 121.35 Q1135.59 122.621 1134.73 123.891 Q1133.86 125.203 1132.14 125.695 Q1134.89 126.556 1138.87 126.556 Q1147.27 126.556 1150.88 117.661 Q1150.96 117.538 1150.96 117.497 L1153.74 106.389 L1153.62 106.307 Q1152.92 107.127 1151.82 108.07 Q1150.75 108.971 1148.46 110.078 Q1146.16 111.185 1143.91 111.185 Q1139.19 111.185 1135.96 107.578 Q1132.76 103.93 1132.76 97.9042 Q1132.76 93.5183 1134.52 89.1325 Q1136.32 84.7056 1139.11 81.4675 Q1141.94 78.1883 1145.55 76.1389 Q1149.19 74.0894 1152.72 74.0894 Q1155.18 74.0894 1157.27 75.565 Q1159.36 76.9996 1160.51 79.377 Q1160.71 77.4095 1161.82 76.5897 Q1162.97 75.77 1163.95 75.77 Q1165.06 75.77 1165.71 76.3848 Q1166.41 76.9586 1166.41 78.0244 M1159.52 83.148 Q1159.52 82.9021 1159.36 82.2463 Q1159.2 81.5494 1158.7 80.4427 Q1158.25 79.336 1157.56 78.3523 Q1156.86 77.3685 1155.59 76.6717 Q1154.36 75.9339 1152.8 75.9339 Q1150.26 75.9339 1147.72 78.0654 Q1145.18 80.1558 1143.42 83.394 Q1141.78 86.5091 1140.22 92.5346 Q1138.7 98.56 1138.7 101.634 Q1138.7 104.667 1140.01 107.004 Q1141.32 109.34 1144.15 109.34 Q1147.43 109.34 1150.96 106.307 Q1154.61 103.151 1155.22 100.445 L1159.28 84.4187 Q1159.52 83.4349 1159.52 83.148 Z" fill="#000000" fill-rule="evenodd" fill-opacity="1" /><path clip-path="url(#clip360)" d="M 0 0 M1177.17 40.8785 Q1177.17 30.9509 1180.88 22.9457 Q1182.45 19.5887 1184.66 16.7768 Q1186.87 13.9649 1188.34 12.7312 Q1189.8 11.4974 1190.2 11.4974 Q1190.77 11.4974 1190.8 12.0712 Q1190.8 12.3582 1190.03 13.0755 Q1180.56 22.7162 1180.59 40.8785 Q1180.59 59.0982 1189.8 68.3659 Q1190.8 69.3702 1190.8 69.6858 Q1190.8 70.2596 1190.2 70.2596 Q1189.8 70.2596 1188.39 69.0832 Q1186.99 67.9068 1184.81 65.2097 Q1182.63 62.5126 1181.05 59.213 Q1177.17 51.2078 1177.17 40.8785 Z" fill="#000000" fill-rule="evenodd" fill-opacity="1" /><path clip-path="url(#clip360)" d="M 0 0 M1199.73 55.5691 Q1199.73 54.5074 1199.82 54.1918 Q1199.93 53.8762 1200.39 53.3884 L1211.67 40.8211 Q1217.84 33.8775 1217.84 27.8234 Q1217.84 23.8925 1215.77 21.0807 Q1213.73 18.2688 1209.98 18.2688 Q1207.39 18.2688 1205.21 19.8469 Q1203.03 21.425 1202.03 24.2369 Q1202.2 24.1795 1202.8 24.1795 Q1204.27 24.1795 1205.07 25.0976 Q1205.9 26.0158 1205.9 27.2496 Q1205.9 28.8277 1204.87 29.6024 Q1203.86 30.3484 1202.86 30.3484 Q1202.46 30.3484 1201.91 30.2623 Q1201.4 30.1762 1200.57 29.3728 Q1199.73 28.5407 1199.73 27.0774 Q1199.73 22.9744 1202.83 19.7034 Q1205.96 16.4325 1210.72 16.4325 Q1216.12 16.4325 1219.65 19.6461 Q1223.2 22.8309 1223.2 27.8234 Q1223.2 29.5737 1222.66 31.1804 Q1222.14 32.7585 1221.42 33.9923 Q1220.74 35.2261 1218.84 37.2059 Q1216.95 39.1856 1215.43 40.5916 Q1213.91 41.9975 1210.49 44.9815 L1204.27 51.0356 L1214.85 51.0356 Q1220.02 51.0356 1220.42 50.5766 Q1220.99 49.7445 1221.71 45.3545 L1223.2 45.3545 L1221.54 55.5691 L1199.73 55.5691 Z" fill="#000000" fill-rule="evenodd" fill-opacity="1" /><path clip-path="url(#clip360)" d="M 0 0 M1228.83 69.6858 Q1228.83 69.3988 1229.57 68.6815 Q1239.04 59.0409 1239.04 40.8785 Q1239.04 22.6588 1229.95 13.4485 Q1228.83 12.3869 1228.83 12.0712 Q1228.83 11.4974 1229.4 11.4974 Q1229.8 11.4974 1231.21 12.6738 Q1232.64 13.8502 1234.79 16.5473 Q1236.98 19.2444 1238.58 22.544 Q1242.46 30.5492 1242.46 40.8785 Q1242.46 50.8061 1238.75 58.8113 Q1237.18 62.1683 1234.97 64.9802 Q1232.76 67.7921 1231.29 69.0258 Q1229.83 70.2596 1229.4 70.2596 Q1228.83 70.2596 1228.83 69.6858 Z" fill="#000000" fill-rule="evenodd" fill-opacity="1" /><path clip-path="url(#clip360)" d="M 0 0 M1260.35 90.1982 Q1260.35 76.0159 1265.63 64.5799 Q1267.89 59.7841 1271.04 55.7672 Q1274.2 51.7502 1276.29 49.9877 Q1278.38 48.2252 1278.95 48.2252 Q1279.77 48.2252 1279.82 49.0449 Q1279.82 49.4548 1278.71 50.4796 Q1265.18 64.252 1265.22 90.1982 Q1265.22 116.226 1278.38 129.466 Q1279.82 130.901 1279.82 131.351 Q1279.82 132.171 1278.95 132.171 Q1278.38 132.171 1276.37 130.491 Q1274.36 128.81 1271.25 124.957 Q1268.13 121.104 1265.88 116.39 Q1260.35 104.954 1260.35 90.1982 Z" fill="#000000" fill-rule="evenodd" fill-opacity="1" /><path clip-path="url(#clip360)" d="M 0 0 M1332.09 76.3438 Q1332.09 76.7127 1331.76 77.9834 Q1331.47 79.2131 1330.53 81.6314 Q1329.63 84.0088 1328.23 86.6731 Q1326.88 89.2964 1324.38 92.6165 Q1321.88 95.9367 1318.77 98.8469 Q1312.9 104.339 1306.63 107.291 Q1300.4 110.242 1295.07 111.185 L1293.88 111.185 Q1292.57 111.185 1292.57 110.16 L1293.47 106.389 L1298.6 85.8533 Q1300.2 79.582 1300.2 79.0491 Q1300.2 78.5572 1299.99 78.3113 Q1299.83 78.0244 1298.84 77.8194 Q1297.9 77.6145 1296.02 77.6145 Q1295.24 77.6145 1294.87 77.5735 Q1294.54 77.5325 1294.25 77.3275 Q1293.97 77.0816 1293.97 76.5897 Q1293.97 75.8929 1294.25 75.524 Q1294.58 75.1141 1294.83 75.0321 Q1295.07 74.9502 1295.57 74.9092 Q1296.26 74.8682 1298.6 74.6632 Q1300.93 74.4173 1302.94 74.2533 Q1304.95 74.0894 1305.81 74.0894 Q1306.3 74.0894 1306.59 74.3353 Q1306.88 74.5403 1306.88 74.7862 L1306.92 74.9912 L1298.68 108.397 Q1301.71 107.414 1304.71 105.774 Q1307.74 104.135 1311.02 101.429 Q1314.3 98.683 1317.08 95.2808 Q1319.87 91.8787 1322.33 87.124 Q1324.83 82.3282 1326.39 76.8357 Q1326.68 75.729 1327.37 75.0731 Q1328.11 74.4173 1328.64 74.2533 Q1329.18 74.0894 1329.67 74.0894 Q1330.77 74.0894 1331.43 74.7042 Q1332.09 75.2781 1332.09 76.3438 Z" fill="#000000" fill-rule="evenodd" fill-opacity="1" /><path clip-path="url(#clip360)" d="M 0 0 M1333.61 131.351 Q1333.61 130.942 1334.67 129.917 Q1348.2 116.144 1348.2 90.1982 Q1348.2 64.17 1335.21 51.0124 Q1333.61 49.4958 1333.61 49.0449 Q1333.61 48.2252 1334.43 48.2252 Q1335 48.2252 1337.01 49.9057 Q1339.06 51.5863 1342.13 55.4393 Q1345.25 59.2923 1347.54 64.006 Q1353.08 75.442 1353.08 90.1982 Q1353.08 104.38 1347.79 115.816 Q1345.54 120.612 1342.38 124.629 Q1339.22 128.646 1337.13 130.409 Q1335.04 132.171 1334.43 132.171 Q1333.61 132.171 1333.61 131.351 Z" fill="#000000" fill-rule="evenodd" fill-opacity="1" /><polyline clip-path="url(#clip363)" style="stroke:#009af9; stroke-width:4; stroke-opacity:1; fill:none" points="
  201.614,1386.95 206.265,1125.67 210.917,967.61 215.568,1214.11 220.22,1251.12 224.871,1112.4 229.523,1227.92 234.174,1262.96 238.825,1208.35 243.477,1167.17 
  248.128,1277.66 252.78,1252.56 257.431,1097.48 262.083,951.931 266.734,498.52 271.385,1298.46 276.037,1315.48 280.688,1342.11 285.34,1272.21 289.991,1232.48 
  294.642,992.797 299.294,1255.77 303.945,1159.49 308.597,1295.5 313.248,1227.52 317.9,1185.64 322.551,1218.58 327.202,1120.21 331.854,1261.24 336.505,1235.41 
  341.157,1318.97 345.808,1268.32 350.459,1299.65 355.111,1322.69 359.762,1308.3 364.414,1245.46 369.065,1295.27 373.717,1227.96 378.368,1243.05 383.019,1358.12 
  387.671,1353.96 392.322,992.217 396.974,993.175 401.625,1265.38 406.277,1257.69 410.928,1355.67 415.579,1294.27 420.231,1253.52 424.882,1300.86 429.534,1250.37 
  434.185,926.744 438.836,1324.53 443.488,1332.98 448.139,1264.94 452.791,812.187 457.442,1115.89 462.094,1316.71 466.745,1124.7 471.396,865.023 476.048,1101.42 
  480.699,948.225 485.351,887.702 490.002,992.682 494.653,1176.56 499.305,1141.33 503.956,1191.46 508.608,1219.28 513.259,1066.32 517.911,1272.79 522.562,1327.22 
  527.213,1188.6 531.865,1297.84 536.516,1285.05 541.168,1224.78 545.819,901.124 550.47,179.185 555.122,1172.18 559.773,1239.94 564.425,1274.18 569.076,1137.81 
  573.728,1305.85 578.379,986.138 583.03,1269.06 587.682,1257.04 592.333,1269.54 596.985,1332.33 601.636,1259.86 606.288,1259.93 610.939,1232.31 615.59,706.66 
  620.242,1321.63 624.893,1196.6 629.545,1267.49 634.196,1266.32 638.847,1289.32 643.499,1345.35 648.15,1330.76 652.802,1348.39 657.453,1311.87 662.105,1003.24 
  666.756,1292.22 671.407,1196.83 676.059,1248.35 680.71,1308.44 685.362,1312.56 690.013,1276.88 694.664,1142.09 699.316,1304.25 703.967,1346.22 708.619,1340.87 
  713.27,1254.9 717.922,1306.59 722.573,1310.88 727.224,1324.86 731.876,1319.43 736.527,1286.49 741.179,822.233 745.83,1284.73 750.482,1239.2 755.133,1290.68 
  759.784,1290.87 764.436,1350.25 769.087,1356.67 773.739,1343.01 778.39,1359.35 783.041,1164.05 787.693,1335 792.344,1355.77 796.996,1357.52 801.647,1352.63 
  806.299,1331.59 810.95,1252.72 815.601,1379.84 820.253,1237.62 824.904,1343.17 829.556,1281.17 834.207,1298.28 838.858,1341.35 843.51,1310.98 848.161,1072.27 
  852.813,1365.26 857.464,1375.78 862.116,1255.44 866.767,1325.03 871.418,1326.02 876.07,1287.9 880.721,1349.26 885.373,1259.42 890.024,1354.57 894.676,1344.34 
  899.327,1271.21 903.978,1382.74 908.63,1300.03 913.281,1346.84 917.933,1286.72 922.584,1314.34 927.235,1350.08 931.887,1350.32 936.538,1334.63 941.19,1244.82 
  945.841,1330.77 950.493,1202.12 955.144,1310.82 959.795,1312.62 964.447,1289.16 969.098,1346.85 973.75,1298.43 978.401,936.976 983.052,1299.37 987.704,1328.38 
  992.355,1336.71 997.007,1336.99 1001.66,1326.7 1006.31,1230.5 1010.96,1321.68 1015.61,1216.55 1020.26,1349.63 1024.92,1346.58 1029.57,1334.27 1034.22,1305.54 
  1038.87,1192.91 1043.52,931.623 1048.17,1282.14 1052.82,1326.41 1057.48,1342.06 1062.13,1344.16 1066.78,1340.09 1071.43,1372.17 1076.08,1372.54 1080.73,1373.49 
  1085.38,1374.45 1090.04,1375.28 1094.69,1375.99 1099.34,1376.58 1103.99,1377.07 1108.64,1377.46 1113.29,1377.8 1117.94,1378.12 1122.6,1378.65 1127.25,1380.04 
  1131.9,1353.01 1136.55,1363.84 1141.2,1348.03 1145.85,1249.79 1150.5,1367.91 1155.15,1377.34 1159.81,1380.42 1164.46,1381.75 1169.11,1382.38 1173.76,1382.63 
  1178.41,1382.58 1183.06,1382.18 1187.71,1381.27 1192.37,1379.49 1197.02,1375.95 1201.67,1367.71 1206.32,1334.74 1210.97,1246.85 1215.62,1349.73 1220.27,1361.42 
  1224.93,1362.53 1229.58,1348.64 1234.23,1253.83 1238.88,1365.09 1243.53,1373.53 1248.18,1376.24 1252.83,1377.47 1257.49,1378.11 1262.14,1378.4 1266.79,1378.41 
  1271.44,1378.11 1276.09,1377.36 1280.74,1375.84 1285.39,1372.71 1290.05,1365.14 1294.7,1334.24 1299.35,1262.32 1304,1356.81 1308.65,1368.91 1313.3,1373.54 
  1317.95,1375.94 1322.61,1377.39 1327.26,1378.35 1331.91,1379.03 1336.56,1379.54 1341.21,1379.94 1345.86,1380.26 1350.51,1380.52 1355.17,1380.74 1359.82,1380.92 
  1364.47,1381.08 1369.12,1381.23 1373.77,1381.35 1378.42,1381.47 1383.07,1381.57 1387.73,1381.66 1392.38,1381.75 1397.03,1381.83 1401.68,1381.9 1406.33,1381.97 
  1410.98,1382.03 1415.63,1382.09 1420.29,1382.15 1424.94,1382.2 1429.59,1382.25 1434.24,1382.3 1438.89,1382.35 1443.54,1382.39 1448.19,1382.43 1452.85,1382.47 
  1457.5,1382.51 1462.15,1382.55 1466.8,1382.58 1471.45,1382.62 1476.1,1382.65 1480.75,1382.68 1485.41,1382.71 1490.06,1382.74 1494.71,1382.77 1499.36,1382.8 
  1504.01,1382.83 1508.66,1382.85 1513.31,1382.88 1517.97,1382.9 1522.62,1382.93 1527.27,1382.95 1531.92,1382.97 1536.57,1382.99 1541.22,1383.02 1545.87,1383.04 
  1550.53,1383.06 1555.18,1383.08 1559.83,1383.1 1564.48,1383.12 1569.13,1383.14 1573.78,1383.15 1578.43,1383.17 1583.09,1383.19 1587.74,1383.21 1592.39,1383.22 
  1597.04,1383.24 1601.69,1383.26 1606.34,1383.27 1610.99,1383.29 1615.65,1383.3 1620.3,1383.32 1624.95,1383.33 1629.6,1383.35 1634.25,1383.36 1638.9,1383.38 
  1643.55,1383.39 1648.21,1383.4 1652.86,1383.42 1657.51,1383.43 1662.16,1383.44 1666.81,1383.45 1671.46,1383.47 1676.11,1383.48 1680.77,1383.49 1685.42,1383.5 
  1690.07,1383.51 1694.72,1383.52 1699.37,1383.53 1704.02,1383.54 1708.67,1383.56 1713.33,1383.57 1717.98,1383.58 1722.63,1383.59 1727.28,1383.6 1731.93,1383.61 
  1736.58,1383.62 1741.23,1383.62 1745.89,1383.63 1750.54,1383.64 1755.19,1383.65 1759.84,1383.66 1764.49,1383.67 1769.14,1383.68 1773.79,1383.69 1778.45,1383.7 
  1783.1,1383.7 1787.75,1383.71 1792.4,1383.72 1797.05,1383.73 1801.7,1383.73 1806.35,1383.74 1811.01,1383.75 1815.66,1383.76 1820.31,1383.76 1824.96,1383.77 
  1829.61,1383.78 1834.26,1383.79 1838.91,1383.79 1843.57,1383.8 1848.22,1383.81 1852.87,1383.81 1857.52,1383.82 1862.17,1383.82 1866.82,1383.83 1871.47,1383.84 
  1876.12,1383.84 1880.78,1383.85 1885.43,1383.85 1890.08,1383.86 1894.73,1383.87 1899.38,1383.87 1904.03,1383.88 1908.68,1383.88 1913.34,1383.89 1917.99,1383.89 
  1922.64,1383.9 1927.29,1383.9 1931.94,1383.91 1936.59,1383.91 1941.24,1383.92 1945.9,1383.92 1950.55,1383.93 1955.2,1383.93 1959.85,1383.93 1964.5,1383.94 
  1969.15,1383.94 1973.8,1383.95 1978.46,1383.95 1983.11,1383.96 1987.76,1383.96 1992.41,1383.96 1997.06,1383.97 2001.71,1383.97 2006.36,1383.97 2011.02,1383.98 
  2015.67,1383.98 2020.32,1383.99 2024.97,1383.99 2029.62,1383.99 2034.27,1384 2038.92,1384 2043.58,1384 2048.23,1384 2052.88,1384.01 2057.53,1384.01 
  2062.18,1384.01 2066.83,1384.02 2071.48,1384.02 2076.14,1384.02 2080.79,1384.02 2085.44,1384.03 2090.09,1384.03 2094.74,1384.03 2099.39,1384.03 2104.04,1384.04 
  2108.7,1384.04 2113.35,1384.04 2118,1384.04 2122.65,1384.05 2127.3,1384.05 2131.95,1384.05 2136.6,1384.05 2141.26,1384.05 2145.91,1384.05 2150.56,1384.06 
  2155.21,1384.06 2159.86,1384.06 2164.51,1384.06 2169.16,1384.06 2173.82,1384.06 2178.47,1384.07 2183.12,1384.07 2187.77,1384.07 2192.42,1384.07 2197.07,1384.07 
  2201.72,1384.07 2206.38,1384.07 2211.03,1384.07 2215.68,1384.08 2220.33,1384.08 2224.98,1384.08 2229.63,1384.08 2234.28,1384.08 2238.94,1384.08 2243.59,1384.08 
  2248.24,1384.08 2252.89,1384.08 2257.54,1384.08 2262.19,1384.08 2266.84,1384.08 2271.5,1384.08 2276.15,1384.08 2280.8,1384.08 2285.45,1384.08 2290.1,1384.08 
  
  "/>
<polyline clip-path="url(#clip363)" style="stroke:#e26f46; stroke-width:4; stroke-opacity:1; fill:none" stroke-dasharray="16, 10" points="
  369.065,2703.41 369.065,-1137.27 
  "/>
<path clip-path="url(#clip360)" d="
M1676.44 306.587 L2278.96 306.587 L2278.96 185.627 L1676.44 185.627  Z
  " fill="#ffffff" fill-rule="evenodd" fill-opacity="1"/>
<polyline clip-path="url(#clip360)" style="stroke:#000000; stroke-width:4; stroke-opacity:1; fill:none" points="
  1676.44,306.587 2278.96,306.587 2278.96,185.627 1676.44,185.627 1676.44,306.587 
  "/>
<polyline clip-path="url(#clip360)" style="stroke:#e26f46; stroke-width:4; stroke-opacity:1; fill:none" stroke-dasharray="16, 10" points="
  1701.03,246.107 1848.62,246.107 
  "/>
<path clip-path="url(#clip360)" d="M 0 0 M1873.22 228.827 L1893.08 228.827 L1893.08 232.762 L1877.89 232.762 L1877.89 242.947 L1891.6 242.947 L1891.6 246.882 L1877.89 246.882 L1877.89 263.387 L1873.22 263.387 L1873.22 228.827 Z" fill="#000000" fill-rule="evenodd" fill-opacity="1" /><path clip-path="url(#clip360)" d="M 0 0 M1911.88 241.442 Q1911.16 241.026 1910.3 240.841 Q1909.47 240.632 1908.45 240.632 Q1904.84 240.632 1902.89 242.993 Q1900.97 245.331 1900.97 249.729 L1900.97 263.387 L1896.69 263.387 L1896.69 237.461 L1900.97 237.461 L1900.97 241.489 Q1902.32 239.128 1904.47 237.993 Q1906.62 236.836 1909.7 236.836 Q1910.14 236.836 1910.67 236.905 Q1911.2 236.952 1911.85 237.067 L1911.88 241.442 Z" fill="#000000" fill-rule="evenodd" fill-opacity="1" /><path clip-path="url(#clip360)" d="M 0 0 M1937.48 249.359 L1937.48 251.442 L1917.89 251.442 Q1918.17 255.841 1920.53 258.155 Q1922.92 260.447 1927.15 260.447 Q1929.61 260.447 1931.9 259.845 Q1934.21 259.243 1936.48 258.04 L1936.48 262.067 Q1934.19 263.04 1931.78 263.549 Q1929.38 264.058 1926.9 264.058 Q1920.69 264.058 1917.06 260.447 Q1913.45 256.836 1913.45 250.679 Q1913.45 244.313 1916.88 240.586 Q1920.32 236.836 1926.16 236.836 Q1931.39 236.836 1934.42 240.216 Q1937.48 243.572 1937.48 249.359 M1933.22 248.109 Q1933.17 244.614 1931.25 242.53 Q1929.35 240.447 1926.2 240.447 Q1922.64 240.447 1920.49 242.461 Q1918.36 244.475 1918.03 248.132 L1933.22 248.109 Z" fill="#000000" fill-rule="evenodd" fill-opacity="1" /><path clip-path="url(#clip360)" d="M 0 0 M1947.01 250.447 Q1947.01 255.146 1948.94 257.831 Q1950.88 260.493 1954.26 260.493 Q1957.64 260.493 1959.58 257.831 Q1961.53 255.146 1961.53 250.447 Q1961.53 245.748 1959.58 243.086 Q1957.64 240.401 1954.26 240.401 Q1950.88 240.401 1948.94 243.086 Q1947.01 245.748 1947.01 250.447 M1961.53 259.498 Q1960.19 261.813 1958.13 262.947 Q1956.09 264.058 1953.22 264.058 Q1948.52 264.058 1945.56 260.308 Q1942.62 256.558 1942.62 250.447 Q1942.62 244.336 1945.56 240.586 Q1948.52 236.836 1953.22 236.836 Q1956.09 236.836 1958.13 237.97 Q1960.19 239.081 1961.53 241.396 L1961.53 237.461 L1965.79 237.461 L1965.79 273.248 L1961.53 273.248 L1961.53 259.498 Z" fill="#000000" fill-rule="evenodd" fill-opacity="1" /><path clip-path="url(#clip360)" d="M 0 0 M1974.12 253.155 L1974.12 237.461 L1978.38 237.461 L1978.38 252.993 Q1978.38 256.674 1979.81 258.526 Q1981.25 260.354 1984.12 260.354 Q1987.57 260.354 1989.56 258.155 Q1991.57 255.956 1991.57 252.16 L1991.57 237.461 L1995.83 237.461 L1995.83 263.387 L1991.57 263.387 L1991.57 259.405 Q1990.02 261.766 1987.96 262.924 Q1985.93 264.058 1983.22 264.058 Q1978.75 264.058 1976.44 261.28 Q1974.12 258.503 1974.12 253.155 M1984.84 236.836 L1984.84 236.836 Z" fill="#000000" fill-rule="evenodd" fill-opacity="1" /><path clip-path="url(#clip360)" d="M 0 0 M2026.78 249.359 L2026.78 251.442 L2007.2 251.442 Q2007.48 255.841 2009.84 258.155 Q2012.22 260.447 2016.46 260.447 Q2018.91 260.447 2021.2 259.845 Q2023.52 259.243 2025.79 258.04 L2025.79 262.067 Q2023.5 263.04 2021.09 263.549 Q2018.68 264.058 2016.2 264.058 Q2010 264.058 2006.37 260.447 Q2002.75 256.836 2002.75 250.679 Q2002.75 244.313 2006.18 240.586 Q2009.63 236.836 2015.46 236.836 Q2020.69 236.836 2023.73 240.216 Q2026.78 243.572 2026.78 249.359 M2022.52 248.109 Q2022.48 244.614 2020.56 242.53 Q2018.66 240.447 2015.51 240.447 Q2011.94 240.447 2009.79 242.461 Q2007.66 244.475 2007.34 248.132 L2022.52 248.109 Z" fill="#000000" fill-rule="evenodd" fill-opacity="1" /><path clip-path="url(#clip360)" d="M 0 0 M2055.32 247.739 L2055.32 263.387 L2051.06 263.387 L2051.06 247.878 Q2051.06 244.197 2049.63 242.368 Q2048.19 240.54 2045.32 240.54 Q2041.87 240.54 2039.88 242.739 Q2037.89 244.938 2037.89 248.734 L2037.89 263.387 L2033.61 263.387 L2033.61 237.461 L2037.89 237.461 L2037.89 241.489 Q2039.42 239.151 2041.48 237.993 Q2043.56 236.836 2046.27 236.836 Q2050.74 236.836 2053.03 239.614 Q2055.32 242.368 2055.32 247.739 Z" fill="#000000" fill-rule="evenodd" fill-opacity="1" /><path clip-path="url(#clip360)" d="M 0 0 M2082.48 238.456 L2082.48 242.438 Q2080.67 241.442 2078.84 240.956 Q2077.04 240.447 2075.18 240.447 Q2071.04 240.447 2068.75 243.086 Q2066.46 245.702 2066.46 250.447 Q2066.46 255.192 2068.75 257.831 Q2071.04 260.447 2075.18 260.447 Q2077.04 260.447 2078.84 259.961 Q2080.67 259.452 2082.48 258.456 L2082.48 262.391 Q2080.69 263.225 2078.77 263.641 Q2076.87 264.058 2074.72 264.058 Q2068.87 264.058 2065.42 260.378 Q2061.97 256.697 2061.97 250.447 Q2061.97 244.104 2065.44 240.47 Q2068.93 236.836 2075 236.836 Q2076.97 236.836 2078.84 237.253 Q2080.72 237.646 2082.48 238.456 Z" fill="#000000" fill-rule="evenodd" fill-opacity="1" /><path clip-path="url(#clip360)" d="M 0 0 M2100.67 265.794 Q2098.87 270.424 2097.15 271.836 Q2095.44 273.248 2092.57 273.248 L2089.17 273.248 L2089.17 269.683 L2091.67 269.683 Q2093.43 269.683 2094.4 268.85 Q2095.37 268.016 2096.55 264.915 L2097.31 262.97 L2086.83 237.461 L2091.34 237.461 L2099.44 257.739 L2107.55 237.461 L2112.06 237.461 L2100.67 265.794 Z" fill="#000000" fill-rule="evenodd" fill-opacity="1" /><path clip-path="url(#clip360)" d="M 0 0 M2149.54 238.225 L2149.54 242.253 Q2147.73 241.327 2145.79 240.864 Q2143.84 240.401 2141.76 240.401 Q2138.59 240.401 2136.99 241.373 Q2135.42 242.345 2135.42 244.29 Q2135.42 245.771 2136.55 246.628 Q2137.68 247.461 2141.11 248.225 L2142.57 248.549 Q2147.11 249.521 2149 251.304 Q2150.93 253.063 2150.93 256.234 Q2150.93 259.845 2148.05 261.952 Q2145.21 264.058 2140.21 264.058 Q2138.12 264.058 2135.86 263.641 Q2133.61 263.248 2131.11 262.438 L2131.11 258.04 Q2133.47 259.266 2135.76 259.891 Q2138.05 260.493 2140.3 260.493 Q2143.31 260.493 2144.93 259.475 Q2146.55 258.433 2146.55 256.558 Q2146.55 254.822 2145.37 253.896 Q2144.21 252.97 2140.25 252.114 L2138.77 251.766 Q2134.81 250.933 2133.05 249.22 Q2131.3 247.484 2131.3 244.475 Q2131.3 240.817 2133.89 238.827 Q2136.48 236.836 2141.25 236.836 Q2143.61 236.836 2145.69 237.183 Q2147.78 237.53 2149.54 238.225 Z" fill="#000000" fill-rule="evenodd" fill-opacity="1" /><path clip-path="url(#clip360)" d="M 0 0 M2179.26 247.739 L2179.26 263.387 L2175 263.387 L2175 247.878 Q2175 244.197 2173.56 242.368 Q2172.13 240.54 2169.26 240.54 Q2165.81 240.54 2163.82 242.739 Q2161.83 244.938 2161.83 248.734 L2161.83 263.387 L2157.55 263.387 L2157.55 227.368 L2161.83 227.368 L2161.83 241.489 Q2163.36 239.151 2165.42 237.993 Q2167.5 236.836 2170.21 236.836 Q2174.67 236.836 2176.97 239.614 Q2179.26 242.368 2179.26 247.739 Z" fill="#000000" fill-rule="evenodd" fill-opacity="1" /><path clip-path="url(#clip360)" d="M 0 0 M2187.75 237.461 L2192.01 237.461 L2192.01 263.387 L2187.75 263.387 L2187.75 237.461 M2187.75 227.368 L2192.01 227.368 L2192.01 232.762 L2187.75 232.762 L2187.75 227.368 Z" fill="#000000" fill-rule="evenodd" fill-opacity="1" /><path clip-path="url(#clip360)" d="M 0 0 M2214.05 227.368 L2214.05 230.91 L2209.98 230.91 Q2207.68 230.91 2206.78 231.836 Q2205.9 232.762 2205.9 235.169 L2205.9 237.461 L2212.92 237.461 L2212.92 240.771 L2205.9 240.771 L2205.9 263.387 L2201.62 263.387 L2201.62 240.771 L2197.55 240.771 L2197.55 237.461 L2201.62 237.461 L2201.62 235.655 Q2201.62 231.327 2203.63 229.359 Q2205.65 227.368 2210.02 227.368 L2214.05 227.368 Z" fill="#000000" fill-rule="evenodd" fill-opacity="1" /><path clip-path="url(#clip360)" d="M 0 0 M2220.99 230.1 L2220.99 237.461 L2229.77 237.461 L2229.77 240.771 L2220.99 240.771 L2220.99 254.845 Q2220.99 258.016 2221.85 258.919 Q2222.73 259.822 2225.39 259.822 L2229.77 259.822 L2229.77 263.387 L2225.39 263.387 Q2220.46 263.387 2218.59 261.558 Q2216.71 259.706 2216.71 254.845 L2216.71 240.771 L2213.59 240.771 L2213.59 237.461 L2216.71 237.461 L2216.71 230.1 L2220.99 230.1 Z" fill="#000000" fill-rule="evenodd" fill-opacity="1" /></svg>
