<?xml version="1.0" encoding="utf-8"?>
<svg xmlns="http://www.w3.org/2000/svg" xmlns:xlink="http://www.w3.org/1999/xlink" width="600" height="400" viewBox="0 0 2400 1600">
<defs>
  <clipPath id="clip270">
    <rect x="0" y="0" width="2400" height="1600"/>
  </clipPath>
</defs>
<path clip-path="url(#clip270)" d="
M0 1600 L2400 1600 L2400 0 L0 0  Z
  " fill="#ffffff" fill-rule="evenodd" fill-opacity="1"/>
<defs>
  <clipPath id="clip271">
    <rect x="480" y="0" width="1681" height="1600"/>
  </clipPath>
</defs>
<defs>
  <clipPath id="clip272">
    <rect x="141" y="142" width="2212" height="1281"/>
  </clipPath>
</defs>
<path clip-path="url(#clip270)" d="
M306.25 1423.18 L2352.76 1423.18 L2352.76 202.606 L306.25 202.606  Z
  " fill="#ffffff" fill-rule="evenodd" fill-opacity="1"/>
<defs>
  <clipPath id="clip273">
    <rect x="306" y="202" width="2048" height="1222"/>
  </clipPath>
</defs>
<polyline clip-path="url(#clip273)" style="stroke:#000000; stroke-width:2; stroke-opacity:0.1; fill:none" points="
  364.17,1423.18 364.17,202.606 
  "/>
<polyline clip-path="url(#clip273)" style="stroke:#000000; stroke-width:2; stroke-opacity:0.1; fill:none" points="
  751.163,1423.18 751.163,202.606 
  "/>
<polyline clip-path="url(#clip273)" style="stroke:#000000; stroke-width:2; stroke-opacity:0.1; fill:none" points="
  1138.16,1423.18 1138.16,202.606 
  "/>
<polyline clip-path="url(#clip273)" style="stroke:#000000; stroke-width:2; stroke-opacity:0.1; fill:none" points="
  1525.15,1423.18 1525.15,202.606 
  "/>
<polyline clip-path="url(#clip273)" style="stroke:#000000; stroke-width:2; stroke-opacity:0.1; fill:none" points="
  1912.14,1423.18 1912.14,202.606 
  "/>
<polyline clip-path="url(#clip273)" style="stroke:#000000; stroke-width:2; stroke-opacity:0.1; fill:none" points="
  2299.14,1423.18 2299.14,202.606 
  "/>
<polyline clip-path="url(#clip270)" style="stroke:#000000; stroke-width:4; stroke-opacity:1; fill:none" points="
  306.25,1423.18 2352.76,1423.18 
  "/>
<polyline clip-path="url(#clip270)" style="stroke:#000000; stroke-width:4; stroke-opacity:1; fill:none" points="
  364.17,1423.18 364.17,1408.53 
  "/>
<polyline clip-path="url(#clip270)" style="stroke:#000000; stroke-width:4; stroke-opacity:1; fill:none" points="
  751.163,1423.18 751.163,1408.53 
  "/>
<polyline clip-path="url(#clip270)" style="stroke:#000000; stroke-width:4; stroke-opacity:1; fill:none" points="
  1138.16,1423.18 1138.16,1408.53 
  "/>
<polyline clip-path="url(#clip270)" style="stroke:#000000; stroke-width:4; stroke-opacity:1; fill:none" points="
  1525.15,1423.18 1525.15,1408.53 
  "/>
<polyline clip-path="url(#clip270)" style="stroke:#000000; stroke-width:4; stroke-opacity:1; fill:none" points="
  1912.14,1423.18 1912.14,1408.53 
  "/>
<polyline clip-path="url(#clip270)" style="stroke:#000000; stroke-width:4; stroke-opacity:1; fill:none" points="
  2299.14,1423.18 2299.14,1408.53 
  "/>
<path clip-path="url(#clip270)" d="M 0 0 M364.17 1452.37 Q360.559 1452.37 358.73 1455.94 Q356.925 1459.48 356.925 1466.61 Q356.925 1473.71 358.73 1477.28 Q360.559 1480.82 364.17 1480.82 Q367.804 1480.82 369.61 1477.28 Q371.439 1473.71 371.439 1466.61 Q371.439 1459.48 369.61 1455.94 Q367.804 1452.37 364.17 1452.37 M364.17 1448.67 Q369.98 1448.67 373.036 1453.27 Q376.115 1457.86 376.115 1466.61 Q376.115 1475.33 373.036 1479.94 Q369.98 1484.52 364.17 1484.52 Q358.36 1484.52 355.281 1479.94 Q352.226 1475.33 352.226 1466.61 Q352.226 1457.86 355.281 1453.27 Q358.36 1448.67 364.17 1448.67 Z" fill="#000000" fill-rule="evenodd" fill-opacity="1" /><path clip-path="url(#clip270)" d="M 0 0 M725.851 1479.92 L733.49 1479.92 L733.49 1453.55 L725.18 1455.22 L725.18 1450.96 L733.444 1449.29 L738.119 1449.29 L738.119 1479.92 L745.758 1479.92 L745.758 1483.85 L725.851 1483.85 L725.851 1479.92 Z" fill="#000000" fill-rule="evenodd" fill-opacity="1" /><path clip-path="url(#clip270)" d="M 0 0 M765.203 1452.37 Q761.592 1452.37 759.763 1455.94 Q757.957 1459.48 757.957 1466.61 Q757.957 1473.71 759.763 1477.28 Q761.592 1480.82 765.203 1480.82 Q768.837 1480.82 770.642 1477.28 Q772.471 1473.71 772.471 1466.61 Q772.471 1459.48 770.642 1455.94 Q768.837 1452.37 765.203 1452.37 M765.203 1448.67 Q771.013 1448.67 774.068 1453.27 Q777.147 1457.86 777.147 1466.61 Q777.147 1475.33 774.068 1479.94 Q771.013 1484.52 765.203 1484.52 Q759.392 1484.52 756.314 1479.94 Q753.258 1475.33 753.258 1466.61 Q753.258 1457.86 756.314 1453.27 Q759.392 1448.67 765.203 1448.67 Z" fill="#000000" fill-rule="evenodd" fill-opacity="1" /><path clip-path="url(#clip270)" d="M 0 0 M1116.93 1479.92 L1133.25 1479.92 L1133.25 1483.85 L1111.3 1483.85 L1111.3 1479.92 Q1113.97 1477.16 1118.55 1472.53 Q1123.16 1467.88 1124.34 1466.54 Q1126.58 1464.01 1127.46 1462.28 Q1128.36 1460.52 1128.36 1458.83 Q1128.36 1456.07 1126.42 1454.34 Q1124.5 1452.6 1121.4 1452.6 Q1119.2 1452.6 1116.74 1453.37 Q1114.31 1454.13 1111.54 1455.68 L1111.54 1450.96 Q1114.36 1449.82 1116.81 1449.25 Q1119.27 1448.67 1121.3 1448.67 Q1126.68 1448.67 1129.87 1451.35 Q1133.06 1454.04 1133.06 1458.53 Q1133.06 1460.66 1132.25 1462.58 Q1131.47 1464.48 1129.36 1467.07 Q1128.78 1467.74 1125.68 1470.96 Q1122.58 1474.15 1116.93 1479.92 Z" fill="#000000" fill-rule="evenodd" fill-opacity="1" /><path clip-path="url(#clip270)" d="M 0 0 M1153.06 1452.37 Q1149.45 1452.37 1147.62 1455.94 Q1145.82 1459.48 1145.82 1466.61 Q1145.82 1473.71 1147.62 1477.28 Q1149.45 1480.82 1153.06 1480.82 Q1156.7 1480.82 1158.5 1477.28 Q1160.33 1473.71 1160.33 1466.61 Q1160.33 1459.48 1158.5 1455.94 Q1156.7 1452.37 1153.06 1452.37 M1153.06 1448.67 Q1158.87 1448.67 1161.93 1453.27 Q1165.01 1457.86 1165.01 1466.61 Q1165.01 1475.33 1161.93 1479.94 Q1158.87 1484.52 1153.06 1484.52 Q1147.25 1484.52 1144.17 1479.94 Q1141.12 1475.33 1141.12 1466.61 Q1141.12 1457.86 1144.17 1453.27 Q1147.25 1448.67 1153.06 1448.67 Z" fill="#000000" fill-rule="evenodd" fill-opacity="1" /><path clip-path="url(#clip270)" d="M 0 0 M1513.99 1465.22 Q1517.35 1465.94 1519.22 1468.2 Q1521.12 1470.47 1521.12 1473.81 Q1521.12 1478.92 1517.6 1481.72 Q1514.08 1484.52 1507.6 1484.52 Q1505.43 1484.52 1503.11 1484.08 Q1500.82 1483.67 1498.37 1482.81 L1498.37 1478.3 Q1500.31 1479.43 1502.63 1480.01 Q1504.94 1480.59 1507.46 1480.59 Q1511.86 1480.59 1514.15 1478.85 Q1516.47 1477.12 1516.47 1473.81 Q1516.47 1470.75 1514.32 1469.04 Q1512.19 1467.3 1508.37 1467.3 L1504.34 1467.3 L1504.34 1463.46 L1508.55 1463.46 Q1512 1463.46 1513.83 1462.09 Q1515.66 1460.7 1515.66 1458.11 Q1515.66 1455.45 1513.76 1454.04 Q1511.89 1452.6 1508.37 1452.6 Q1506.45 1452.6 1504.25 1453.02 Q1502.05 1453.44 1499.41 1454.31 L1499.41 1450.15 Q1502.07 1449.41 1504.39 1449.04 Q1506.72 1448.67 1508.78 1448.67 Q1514.11 1448.67 1517.21 1451.1 Q1520.31 1453.5 1520.31 1457.63 Q1520.31 1460.5 1518.67 1462.49 Q1517.02 1464.45 1513.99 1465.22 Z" fill="#000000" fill-rule="evenodd" fill-opacity="1" /><path clip-path="url(#clip270)" d="M 0 0 M1539.99 1452.37 Q1536.38 1452.37 1534.55 1455.94 Q1532.74 1459.48 1532.74 1466.61 Q1532.74 1473.71 1534.55 1477.28 Q1536.38 1480.82 1539.99 1480.82 Q1543.62 1480.82 1545.43 1477.28 Q1547.26 1473.71 1547.26 1466.61 Q1547.26 1459.48 1545.43 1455.94 Q1543.62 1452.37 1539.99 1452.37 M1539.99 1448.67 Q1545.8 1448.67 1548.85 1453.27 Q1551.93 1457.86 1551.93 1466.61 Q1551.93 1475.33 1548.85 1479.94 Q1545.8 1484.52 1539.99 1484.52 Q1534.18 1484.52 1531.1 1479.94 Q1528.04 1475.33 1528.04 1466.61 Q1528.04 1457.86 1531.1 1453.27 Q1534.18 1448.67 1539.99 1448.67 Z" fill="#000000" fill-rule="evenodd" fill-opacity="1" /><path clip-path="url(#clip270)" d="M 0 0 M1900.31 1453.37 L1888.51 1471.81 L1900.31 1471.81 L1900.31 1453.37 M1899.09 1449.29 L1904.97 1449.29 L1904.97 1471.81 L1909.9 1471.81 L1909.9 1475.7 L1904.97 1475.7 L1904.97 1483.85 L1900.31 1483.85 L1900.31 1475.7 L1884.71 1475.7 L1884.71 1471.19 L1899.09 1449.29 Z" fill="#000000" fill-rule="evenodd" fill-opacity="1" /><path clip-path="url(#clip270)" d="M 0 0 M1927.63 1452.37 Q1924.02 1452.37 1922.19 1455.94 Q1920.38 1459.48 1920.38 1466.61 Q1920.38 1473.71 1922.19 1477.28 Q1924.02 1480.82 1927.63 1480.82 Q1931.26 1480.82 1933.07 1477.28 Q1934.9 1473.71 1934.9 1466.61 Q1934.9 1459.48 1933.07 1455.94 Q1931.26 1452.37 1927.63 1452.37 M1927.63 1448.67 Q1933.44 1448.67 1936.49 1453.27 Q1939.57 1457.86 1939.57 1466.61 Q1939.57 1475.33 1936.49 1479.94 Q1933.44 1484.52 1927.63 1484.52 Q1921.82 1484.52 1918.74 1479.94 Q1915.68 1475.33 1915.68 1466.61 Q1915.68 1457.86 1918.74 1453.27 Q1921.82 1448.67 1927.63 1448.67 Z" fill="#000000" fill-rule="evenodd" fill-opacity="1" /><path clip-path="url(#clip270)" d="M 0 0 M2273.84 1449.29 L2292.19 1449.29 L2292.19 1453.23 L2278.12 1453.23 L2278.12 1461.7 Q2279.14 1461.35 2280.15 1461.19 Q2281.17 1461 2282.19 1461 Q2287.98 1461 2291.36 1464.18 Q2294.74 1467.35 2294.74 1472.76 Q2294.74 1478.34 2291.27 1481.44 Q2287.79 1484.52 2281.47 1484.52 Q2279.3 1484.52 2277.03 1484.15 Q2274.78 1483.78 2272.38 1483.04 L2272.38 1478.34 Q2274.46 1479.48 2276.68 1480.03 Q2278.9 1480.59 2281.38 1480.59 Q2285.39 1480.59 2287.72 1478.48 Q2290.06 1476.38 2290.06 1472.76 Q2290.06 1469.15 2287.72 1467.05 Q2285.39 1464.94 2281.38 1464.94 Q2279.51 1464.94 2277.63 1465.36 Q2275.78 1465.77 2273.84 1466.65 L2273.84 1449.29 Z" fill="#000000" fill-rule="evenodd" fill-opacity="1" /><path clip-path="url(#clip270)" d="M 0 0 M2313.95 1452.37 Q2310.34 1452.37 2308.51 1455.94 Q2306.71 1459.48 2306.71 1466.61 Q2306.71 1473.71 2308.51 1477.28 Q2310.34 1480.82 2313.95 1480.82 Q2317.58 1480.82 2319.39 1477.28 Q2321.22 1473.71 2321.22 1466.61 Q2321.22 1459.48 2319.39 1455.94 Q2317.58 1452.37 2313.95 1452.37 M2313.95 1448.67 Q2319.76 1448.67 2322.82 1453.27 Q2325.89 1457.86 2325.89 1466.61 Q2325.89 1475.33 2322.82 1479.94 Q2319.76 1484.52 2313.95 1484.52 Q2308.14 1484.52 2305.06 1479.94 Q2302.01 1475.33 2302.01 1466.61 Q2302.01 1457.86 2305.06 1453.27 Q2308.14 1448.67 2313.95 1448.67 Z" fill="#000000" fill-rule="evenodd" fill-opacity="1" /><path clip-path="url(#clip270)" d="M 0 0 M1089.61 1518.52 L1089.61 1523.39 L1084.01 1523.39 Q1080.86 1523.39 1079.62 1524.66 Q1078.41 1525.93 1078.41 1529.24 L1078.41 1532.4 L1088.05 1532.4 L1088.05 1536.95 L1078.41 1536.95 L1078.41 1568.04 L1072.52 1568.04 L1072.52 1536.95 L1066.92 1536.95 L1066.92 1532.4 L1072.52 1532.4 L1072.52 1529.91 Q1072.52 1523.96 1075.29 1521.26 Q1078.06 1518.52 1084.07 1518.52 L1089.61 1518.52 Z" fill="#000000" fill-rule="evenodd" fill-opacity="1" /><path clip-path="url(#clip270)" d="M 0 0 M1115.17 1537.87 Q1114.18 1537.3 1113.01 1537.04 Q1111.86 1536.76 1110.46 1536.76 Q1105.49 1536.76 1102.82 1540 Q1100.18 1543.22 1100.18 1549.27 L1100.18 1568.04 L1094.29 1568.04 L1094.29 1532.4 L1100.18 1532.4 L1100.18 1537.93 Q1102.02 1534.69 1104.98 1533.13 Q1107.94 1531.54 1112.18 1531.54 Q1112.78 1531.54 1113.51 1531.63 Q1114.25 1531.7 1115.14 1531.85 L1115.17 1537.87 Z" fill="#000000" fill-rule="evenodd" fill-opacity="1" /><path clip-path="url(#clip270)" d="M 0 0 M1150.37 1548.76 L1150.37 1551.62 L1123.45 1551.62 Q1123.83 1557.67 1127.07 1560.85 Q1130.35 1564 1136.18 1564 Q1139.55 1564 1142.7 1563.17 Q1145.88 1562.35 1149 1560.69 L1149 1566.23 Q1145.85 1567.57 1142.54 1568.27 Q1139.23 1568.97 1135.83 1568.97 Q1127.3 1568.97 1122.3 1564 Q1117.33 1559.04 1117.33 1550.57 Q1117.33 1541.82 1122.04 1536.69 Q1126.79 1531.54 1134.81 1531.54 Q1142 1531.54 1146.17 1536.18 Q1150.37 1540.8 1150.37 1548.76 M1144.52 1547.04 Q1144.45 1542.23 1141.81 1539.37 Q1139.2 1536.5 1134.87 1536.5 Q1129.97 1536.5 1127.01 1539.27 Q1124.08 1542.04 1123.64 1547.07 L1144.52 1547.04 Z" fill="#000000" fill-rule="evenodd" fill-opacity="1" /><path clip-path="url(#clip270)" d="M 0 0 M1163.49 1550.25 Q1163.49 1556.71 1166.13 1560.4 Q1168.8 1564.07 1173.45 1564.07 Q1178.09 1564.07 1180.77 1560.4 Q1183.44 1556.71 1183.44 1550.25 Q1183.44 1543.79 1180.77 1540.13 Q1178.09 1536.44 1173.45 1536.44 Q1168.8 1536.44 1166.13 1540.13 Q1163.49 1543.79 1163.49 1550.25 M1183.44 1562.7 Q1181.6 1565.88 1178.76 1567.44 Q1175.96 1568.97 1172.02 1568.97 Q1165.55 1568.97 1161.48 1563.81 Q1157.44 1558.65 1157.44 1550.25 Q1157.44 1541.85 1161.48 1536.69 Q1165.55 1531.54 1172.02 1531.54 Q1175.96 1531.54 1178.76 1533.1 Q1181.6 1534.62 1183.44 1537.81 L1183.44 1532.4 L1189.3 1532.4 L1189.3 1581.6 L1183.44 1581.6 L1183.44 1562.7 Z" fill="#000000" fill-rule="evenodd" fill-opacity="1" /><path clip-path="url(#clip270)" d="M 0 0 M1200.76 1553.98 L1200.76 1532.4 L1206.61 1532.4 L1206.61 1553.75 Q1206.61 1558.81 1208.59 1561.36 Q1210.56 1563.87 1214.51 1563.87 Q1219.25 1563.87 1221.99 1560.85 Q1224.76 1557.83 1224.76 1552.61 L1224.76 1532.4 L1230.61 1532.4 L1230.61 1568.04 L1224.76 1568.04 L1224.76 1562.57 Q1222.62 1565.82 1219.79 1567.41 Q1216.99 1568.97 1213.27 1568.97 Q1207.12 1568.97 1203.94 1565.15 Q1200.76 1561.33 1200.76 1553.98 M1215.49 1531.54 L1215.49 1531.54 Z" fill="#000000" fill-rule="evenodd" fill-opacity="1" /><path clip-path="url(#clip270)" d="M 0 0 M1273.17 1548.76 L1273.17 1551.62 L1246.24 1551.62 Q1246.62 1557.67 1249.87 1560.85 Q1253.15 1564 1258.97 1564 Q1262.34 1564 1265.5 1563.17 Q1268.68 1562.35 1271.8 1560.69 L1271.8 1566.23 Q1268.65 1567.57 1265.34 1568.27 Q1262.03 1568.97 1258.62 1568.97 Q1250.09 1568.97 1245.09 1564 Q1240.13 1559.04 1240.13 1550.57 Q1240.13 1541.82 1244.84 1536.69 Q1249.58 1531.54 1257.6 1531.54 Q1264.8 1531.54 1268.97 1536.18 Q1273.17 1540.8 1273.17 1548.76 M1267.31 1547.04 Q1267.25 1542.23 1264.6 1539.37 Q1261.99 1536.5 1257.67 1536.5 Q1252.76 1536.5 1249.8 1539.27 Q1246.88 1542.04 1246.43 1547.07 L1267.31 1547.04 Z" fill="#000000" fill-rule="evenodd" fill-opacity="1" /><path clip-path="url(#clip270)" d="M 0 0 M1312.41 1546.53 L1312.41 1568.04 L1306.55 1568.04 L1306.55 1546.72 Q1306.55 1541.66 1304.58 1539.14 Q1302.61 1536.63 1298.66 1536.63 Q1293.92 1536.63 1291.18 1539.65 Q1288.44 1542.68 1288.44 1547.9 L1288.44 1568.04 L1282.56 1568.04 L1282.56 1532.4 L1288.44 1532.4 L1288.44 1537.93 Q1290.54 1534.72 1293.38 1533.13 Q1296.24 1531.54 1299.97 1531.54 Q1306.11 1531.54 1309.26 1535.36 Q1312.41 1539.14 1312.41 1546.53 Z" fill="#000000" fill-rule="evenodd" fill-opacity="1" /><path clip-path="url(#clip270)" d="M 0 0 M1349.75 1533.76 L1349.75 1539.24 Q1347.26 1537.87 1344.75 1537.2 Q1342.27 1536.5 1339.72 1536.5 Q1334.02 1536.5 1330.87 1540.13 Q1327.72 1543.73 1327.72 1550.25 Q1327.72 1556.78 1330.87 1560.4 Q1334.02 1564 1339.72 1564 Q1342.27 1564 1344.75 1563.33 Q1347.26 1562.63 1349.75 1561.26 L1349.75 1566.68 Q1347.3 1567.82 1344.65 1568.39 Q1342.04 1568.97 1339.08 1568.97 Q1331.03 1568.97 1326.29 1563.91 Q1321.55 1558.85 1321.55 1550.25 Q1321.55 1541.53 1326.32 1536.53 Q1331.13 1531.54 1339.47 1531.54 Q1342.17 1531.54 1344.75 1532.11 Q1347.33 1532.65 1349.75 1533.76 Z" fill="#000000" fill-rule="evenodd" fill-opacity="1" /><path clip-path="url(#clip270)" d="M 0 0 M1374.76 1571.35 Q1372.28 1577.72 1369.93 1579.66 Q1367.57 1581.6 1363.62 1581.6 L1358.94 1581.6 L1358.94 1576.7 L1362.38 1576.7 Q1364.8 1576.7 1366.14 1575.56 Q1367.47 1574.41 1369.1 1570.14 L1370.15 1567.47 L1355.73 1532.4 L1361.94 1532.4 L1373.08 1560.28 L1384.22 1532.4 L1390.42 1532.4 L1374.76 1571.35 Z" fill="#000000" fill-rule="evenodd" fill-opacity="1" /><path clip-path="url(#clip270)" d="M 0 0 M1433.3 1518.58 Q1429.03 1525.9 1426.96 1533.06 Q1424.89 1540.23 1424.89 1547.58 Q1424.89 1554.93 1426.96 1562.16 Q1429.06 1569.35 1433.3 1576.64 L1428.2 1576.64 Q1423.43 1569.16 1421.04 1561.93 Q1418.69 1554.71 1418.69 1547.58 Q1418.69 1540.48 1421.04 1533.29 Q1423.4 1526.09 1428.2 1518.58 L1433.3 1518.58 Z" fill="#000000" fill-rule="evenodd" fill-opacity="1" /><path clip-path="url(#clip270)" d="M 0 0 M1477.31 1561.26 L1477.31 1548.5 L1466.81 1548.5 L1466.81 1543.22 L1483.68 1543.22 L1483.68 1563.62 Q1479.96 1566.26 1475.47 1567.63 Q1470.98 1568.97 1465.89 1568.97 Q1454.75 1568.97 1448.45 1562.47 Q1442.18 1555.95 1442.18 1544.33 Q1442.18 1532.68 1448.45 1526.19 Q1454.75 1519.66 1465.89 1519.66 Q1470.54 1519.66 1474.7 1520.81 Q1478.91 1521.96 1482.44 1524.18 L1482.44 1531.03 Q1478.87 1528 1474.86 1526.48 Q1470.85 1524.95 1466.43 1524.95 Q1457.71 1524.95 1453.32 1529.82 Q1448.96 1534.69 1448.96 1544.33 Q1448.96 1553.94 1453.32 1558.81 Q1457.71 1563.68 1466.43 1563.68 Q1469.84 1563.68 1472.51 1563.11 Q1475.18 1562.51 1477.31 1561.26 Z" fill="#000000" fill-rule="evenodd" fill-opacity="1" /><path clip-path="url(#clip270)" d="M 0 0 M1495.43 1520.52 L1501.85 1520.52 L1501.85 1540 L1525.22 1540 L1525.22 1520.52 L1531.65 1520.52 L1531.65 1568.04 L1525.22 1568.04 L1525.22 1545.41 L1501.85 1545.41 L1501.85 1568.04 L1495.43 1568.04 L1495.43 1520.52 Z" fill="#000000" fill-rule="evenodd" fill-opacity="1" /><path clip-path="url(#clip270)" d="M 0 0 M1541.64 1532.4 L1569.46 1532.4 L1569.46 1537.74 L1547.43 1563.37 L1569.46 1563.37 L1569.46 1568.04 L1540.84 1568.04 L1540.84 1562.7 L1562.87 1537.07 L1541.64 1537.07 L1541.64 1532.4 Z" fill="#000000" fill-rule="evenodd" fill-opacity="1" /><path clip-path="url(#clip270)" d="M 0 0 M1577.48 1518.58 L1582.57 1518.58 Q1587.35 1526.09 1589.7 1533.29 Q1592.09 1540.48 1592.09 1547.58 Q1592.09 1554.71 1589.7 1561.93 Q1587.35 1569.16 1582.57 1576.64 L1577.48 1576.64 Q1581.71 1569.35 1583.78 1562.16 Q1585.88 1554.93 1585.88 1547.58 Q1585.88 1540.23 1583.78 1533.06 Q1581.71 1525.9 1577.48 1518.58 Z" fill="#000000" fill-rule="evenodd" fill-opacity="1" /><polyline clip-path="url(#clip273)" style="stroke:#000000; stroke-width:2; stroke-opacity:0.1; fill:none" points="
  306.25,1388.64 2352.76,1388.64 
  "/>
<polyline clip-path="url(#clip273)" style="stroke:#000000; stroke-width:2; stroke-opacity:0.1; fill:none" points="
  306.25,1127.52 2352.76,1127.52 
  "/>
<polyline clip-path="url(#clip273)" style="stroke:#000000; stroke-width:2; stroke-opacity:0.1; fill:none" points="
  306.25,866.408 2352.76,866.408 
  "/>
<polyline clip-path="url(#clip273)" style="stroke:#000000; stroke-width:2; stroke-opacity:0.1; fill:none" points="
  306.25,605.294 2352.76,605.294 
  "/>
<polyline clip-path="url(#clip273)" style="stroke:#000000; stroke-width:2; stroke-opacity:0.1; fill:none" points="
  306.25,344.18 2352.76,344.18 
  "/>
<polyline clip-path="url(#clip270)" style="stroke:#000000; stroke-width:4; stroke-opacity:1; fill:none" points="
  306.25,1423.18 306.25,202.606 
  "/>
<polyline clip-path="url(#clip270)" style="stroke:#000000; stroke-width:4; stroke-opacity:1; fill:none" points="
  306.25,1388.64 330.808,1388.64 
  "/>
<polyline clip-path="url(#clip270)" style="stroke:#000000; stroke-width:4; stroke-opacity:1; fill:none" points="
  306.25,1127.52 330.808,1127.52 
  "/>
<polyline clip-path="url(#clip270)" style="stroke:#000000; stroke-width:4; stroke-opacity:1; fill:none" points="
  306.25,866.408 330.808,866.408 
  "/>
<polyline clip-path="url(#clip270)" style="stroke:#000000; stroke-width:4; stroke-opacity:1; fill:none" points="
  306.25,605.294 330.808,605.294 
  "/>
<polyline clip-path="url(#clip270)" style="stroke:#000000; stroke-width:4; stroke-opacity:1; fill:none" points="
  306.25,344.18 330.808,344.18 
  "/>
<path clip-path="url(#clip270)" d="M 0 0 M258.306 1374.43 Q254.695 1374.43 252.866 1378 Q251.06 1381.54 251.06 1388.67 Q251.06 1395.78 252.866 1399.34 Q254.695 1402.88 258.306 1402.88 Q261.94 1402.88 263.746 1399.34 Q265.574 1395.78 265.574 1388.67 Q265.574 1381.54 263.746 1378 Q261.94 1374.43 258.306 1374.43 M258.306 1370.73 Q264.116 1370.73 267.172 1375.34 Q270.25 1379.92 270.25 1388.67 Q270.25 1397.4 267.172 1402 Q264.116 1406.59 258.306 1406.59 Q252.496 1406.59 249.417 1402 Q246.361 1397.4 246.361 1388.67 Q246.361 1379.92 249.417 1375.34 Q252.496 1370.73 258.306 1370.73 Z" fill="#000000" fill-rule="evenodd" fill-opacity="1" /><path clip-path="url(#clip270)" d="M 0 0 M52.4505 1116.69 L70.8068 1116.69 L70.8068 1120.62 L56.7328 1120.62 L56.7328 1129.1 Q57.7513 1128.75 58.7699 1128.59 Q59.7884 1128.4 60.8069 1128.4 Q66.5939 1128.4 69.9735 1131.57 Q73.3531 1134.74 73.3531 1140.16 Q73.3531 1145.74 69.8809 1148.84 Q66.4087 1151.92 60.0893 1151.92 Q57.9134 1151.92 55.6449 1151.55 Q53.3995 1151.18 50.9921 1150.44 L50.9921 1145.74 Q53.0754 1146.87 55.2977 1147.43 Q57.5199 1147.99 59.9967 1147.99 Q64.0013 1147.99 66.3393 1145.88 Q68.6772 1143.77 68.6772 1140.16 Q68.6772 1136.55 66.3393 1134.44 Q64.0013 1132.34 59.9967 1132.34 Q58.1217 1132.34 56.2467 1132.75 Q54.3949 1133.17 52.4505 1134.05 L52.4505 1116.69 Z" fill="#000000" fill-rule="evenodd" fill-opacity="1" /><path clip-path="url(#clip270)" d="M 0 0 M82.566 1145.37 L87.4503 1145.37 L87.4503 1151.25 L82.566 1151.25 L82.566 1145.37 Z" fill="#000000" fill-rule="evenodd" fill-opacity="1" /><path clip-path="url(#clip270)" d="M 0 0 M107.635 1119.77 Q104.024 1119.77 102.196 1123.33 Q100.39 1126.87 100.39 1134 Q100.39 1141.11 102.196 1144.67 Q104.024 1148.22 107.635 1148.22 Q111.27 1148.22 113.075 1144.67 Q114.904 1141.11 114.904 1134 Q114.904 1126.87 113.075 1123.33 Q111.27 1119.77 107.635 1119.77 M107.635 1116.06 Q113.445 1116.06 116.501 1120.67 Q119.58 1125.25 119.58 1134 Q119.58 1142.73 116.501 1147.34 Q113.445 1151.92 107.635 1151.92 Q101.825 1151.92 98.7465 1147.34 Q95.691 1142.73 95.691 1134 Q95.691 1125.25 98.7465 1120.67 Q101.825 1116.06 107.635 1116.06 Z" fill="#000000" fill-rule="evenodd" fill-opacity="1" /><path clip-path="url(#clip270)" d="M 0 0 M137.797 1119.77 Q134.186 1119.77 132.357 1123.33 Q130.552 1126.87 130.552 1134 Q130.552 1141.11 132.357 1144.67 Q134.186 1148.22 137.797 1148.22 Q141.431 1148.22 143.237 1144.67 Q145.066 1141.11 145.066 1134 Q145.066 1126.87 143.237 1123.33 Q141.431 1119.77 137.797 1119.77 M137.797 1116.06 Q143.607 1116.06 146.663 1120.67 Q149.742 1125.25 149.742 1134 Q149.742 1142.73 146.663 1147.34 Q143.607 1151.92 137.797 1151.92 Q131.987 1151.92 128.908 1147.34 Q125.853 1142.73 125.853 1134 Q125.853 1125.25 128.908 1120.67 Q131.987 1116.06 137.797 1116.06 Z" fill="#000000" fill-rule="evenodd" fill-opacity="1" /><path clip-path="url(#clip270)" d="M 0 0 M186.13 1125.79 L175.552 1136.41 L186.13 1146.99 L183.376 1149.79 L172.751 1139.17 L162.126 1149.79 L159.394 1146.99 L169.95 1136.41 L159.394 1125.79 L162.126 1122.99 L172.751 1133.61 L183.376 1122.99 L186.13 1125.79 Z" fill="#000000" fill-rule="evenodd" fill-opacity="1" /><path clip-path="url(#clip270)" d="M 0 0 M198.491 1147.31 L206.13 1147.31 L206.13 1120.95 L197.82 1122.61 L197.82 1118.36 L206.084 1116.69 L210.76 1116.69 L210.76 1147.31 L218.399 1147.31 L218.399 1151.25 L198.491 1151.25 L198.491 1147.31 Z" fill="#000000" fill-rule="evenodd" fill-opacity="1" /><path clip-path="url(#clip270)" d="M 0 0 M237.843 1119.77 Q234.232 1119.77 232.403 1123.33 Q230.598 1126.87 230.598 1134 Q230.598 1141.11 232.403 1144.67 Q234.232 1148.22 237.843 1148.22 Q241.477 1148.22 243.283 1144.67 Q245.111 1141.11 245.111 1134 Q245.111 1126.87 243.283 1123.33 Q241.477 1119.77 237.843 1119.77 M237.843 1116.06 Q243.653 1116.06 246.709 1120.67 Q249.787 1125.25 249.787 1134 Q249.787 1142.73 246.709 1147.34 Q243.653 1151.92 237.843 1151.92 Q232.033 1151.92 228.954 1147.34 Q225.899 1142.73 225.899 1134 Q225.899 1125.25 228.954 1120.67 Q232.033 1116.06 237.843 1116.06 Z" fill="#000000" fill-rule="evenodd" fill-opacity="1" /><path clip-path="url(#clip270)" d="M 0 0 M262.464 1099.07 L252.872 1114.06 L262.464 1114.06 L262.464 1099.07 M261.467 1095.76 L266.244 1095.76 L266.244 1114.06 L270.25 1114.06 L270.25 1117.22 L266.244 1117.22 L266.244 1123.84 L262.464 1123.84 L262.464 1117.22 L249.787 1117.22 L249.787 1113.55 L261.467 1095.76 Z" fill="#000000" fill-rule="evenodd" fill-opacity="1" /><path clip-path="url(#clip270)" d="M 0 0 M55.5089 886.2 L63.1477 886.2 L63.1477 859.834 L54.8376 861.501 L54.8376 857.242 L63.1014 855.575 L67.7773 855.575 L67.7773 886.2 L75.4162 886.2 L75.4162 890.135 L55.5089 890.135 L55.5089 886.2 Z" fill="#000000" fill-rule="evenodd" fill-opacity="1" /><path clip-path="url(#clip270)" d="M 0 0 M84.8606 884.256 L89.7448 884.256 L89.7448 890.135 L84.8606 890.135 L84.8606 884.256 Z" fill="#000000" fill-rule="evenodd" fill-opacity="1" /><path clip-path="url(#clip270)" d="M 0 0 M109.93 858.654 Q106.319 858.654 104.49 862.219 Q102.685 865.76 102.685 872.89 Q102.685 879.996 104.49 883.561 Q106.319 887.103 109.93 887.103 Q113.564 887.103 115.37 883.561 Q117.198 879.996 117.198 872.89 Q117.198 865.76 115.37 862.219 Q113.564 858.654 109.93 858.654 M109.93 854.95 Q115.74 854.95 118.796 859.557 Q121.874 864.14 121.874 872.89 Q121.874 881.617 118.796 886.223 Q115.74 890.806 109.93 890.806 Q104.12 890.806 101.041 886.223 Q97.9855 881.617 97.9855 872.89 Q97.9855 864.14 101.041 859.557 Q104.12 854.95 109.93 854.95 Z" fill="#000000" fill-rule="evenodd" fill-opacity="1" /><path clip-path="url(#clip270)" d="M 0 0 M140.092 858.654 Q136.481 858.654 134.652 862.219 Q132.846 865.76 132.846 872.89 Q132.846 879.996 134.652 883.561 Q136.481 887.103 140.092 887.103 Q143.726 887.103 145.532 883.561 Q147.36 879.996 147.36 872.89 Q147.36 865.76 145.532 862.219 Q143.726 858.654 140.092 858.654 M140.092 854.95 Q145.902 854.95 148.957 859.557 Q152.036 864.14 152.036 872.89 Q152.036 881.617 148.957 886.223 Q145.902 890.806 140.092 890.806 Q134.282 890.806 131.203 886.223 Q128.147 881.617 128.147 872.89 Q128.147 864.14 131.203 859.557 Q134.282 854.95 140.092 854.95 Z" fill="#000000" fill-rule="evenodd" fill-opacity="1" /><path clip-path="url(#clip270)" d="M 0 0 M188.425 864.672 L177.846 875.297 L188.425 885.876 L185.67 888.677 L175.045 878.052 L164.42 888.677 L161.689 885.876 L172.244 875.297 L161.689 864.672 L164.42 861.871 L175.045 872.496 L185.67 861.871 L188.425 864.672 Z" fill="#000000" fill-rule="evenodd" fill-opacity="1" /><path clip-path="url(#clip270)" d="M 0 0 M200.786 886.2 L208.425 886.2 L208.425 859.834 L200.115 861.501 L200.115 857.242 L208.378 855.575 L213.054 855.575 L213.054 886.2 L220.693 886.2 L220.693 890.135 L200.786 890.135 L200.786 886.2 Z" fill="#000000" fill-rule="evenodd" fill-opacity="1" /><path clip-path="url(#clip270)" d="M 0 0 M240.138 858.654 Q236.526 858.654 234.698 862.219 Q232.892 865.76 232.892 872.89 Q232.892 879.996 234.698 883.561 Q236.526 887.103 240.138 887.103 Q243.772 887.103 245.577 883.561 Q247.406 879.996 247.406 872.89 Q247.406 865.76 245.577 862.219 Q243.772 858.654 240.138 858.654 M240.138 854.95 Q245.948 854.95 249.003 859.557 Q252.082 864.14 252.082 872.89 Q252.082 881.617 249.003 886.223 Q245.948 890.806 240.138 890.806 Q234.327 890.806 231.249 886.223 Q228.193 881.617 228.193 872.89 Q228.193 864.14 231.249 859.557 Q234.327 854.95 240.138 854.95 Z" fill="#000000" fill-rule="evenodd" fill-opacity="1" /><path clip-path="url(#clip270)" d="M 0 0 M253.267 834.645 L268.181 834.645 L268.181 837.842 L256.746 837.842 L256.746 844.726 Q257.574 844.444 258.401 844.312 Q259.229 844.161 260.056 844.161 Q264.758 844.161 267.504 846.738 Q270.25 849.315 270.25 853.716 Q270.25 858.248 267.429 860.769 Q264.608 863.27 259.473 863.27 Q257.705 863.27 255.862 862.969 Q254.038 862.668 252.082 862.066 L252.082 858.248 Q253.775 859.17 255.58 859.621 Q257.386 860.073 259.398 860.073 Q262.652 860.073 264.551 858.361 Q266.451 856.65 266.451 853.716 Q266.451 850.782 264.551 849.07 Q262.652 847.359 259.398 847.359 Q257.875 847.359 256.351 847.697 Q254.847 848.036 253.267 848.751 L253.267 834.645 Z" fill="#000000" fill-rule="evenodd" fill-opacity="1" /><path clip-path="url(#clip270)" d="M 0 0 M55.5089 625.086 L63.1477 625.086 L63.1477 598.72 L54.8376 600.387 L54.8376 596.128 L63.1014 594.461 L67.7773 594.461 L67.7773 625.086 L75.4162 625.086 L75.4162 629.021 L55.5089 629.021 L55.5089 625.086 Z" fill="#000000" fill-rule="evenodd" fill-opacity="1" /><path clip-path="url(#clip270)" d="M 0 0 M84.8606 623.142 L89.7448 623.142 L89.7448 629.021 L84.8606 629.021 L84.8606 623.142 Z" fill="#000000" fill-rule="evenodd" fill-opacity="1" /><path clip-path="url(#clip270)" d="M 0 0 M99.9762 594.461 L118.333 594.461 L118.333 598.396 L104.259 598.396 L104.259 606.869 Q105.277 606.521 106.296 606.359 Q107.314 606.174 108.333 606.174 Q114.12 606.174 117.499 609.345 Q120.879 612.517 120.879 617.933 Q120.879 623.512 117.407 626.614 Q113.934 629.693 107.615 629.693 Q105.439 629.693 103.171 629.322 Q100.925 628.952 98.5179 628.211 L98.5179 623.512 Q100.601 624.646 102.823 625.202 Q105.046 625.757 107.522 625.757 Q111.527 625.757 113.865 623.651 Q116.203 621.544 116.203 617.933 Q116.203 614.322 113.865 612.216 Q111.527 610.109 107.522 610.109 Q105.648 610.109 103.773 610.526 Q101.921 610.943 99.9762 611.822 L99.9762 594.461 Z" fill="#000000" fill-rule="evenodd" fill-opacity="1" /><path clip-path="url(#clip270)" d="M 0 0 M140.092 597.54 Q136.481 597.54 134.652 601.105 Q132.846 604.646 132.846 611.776 Q132.846 618.882 134.652 622.447 Q136.481 625.989 140.092 625.989 Q143.726 625.989 145.532 622.447 Q147.36 618.882 147.36 611.776 Q147.36 604.646 145.532 601.105 Q143.726 597.54 140.092 597.54 M140.092 593.836 Q145.902 593.836 148.957 598.443 Q152.036 603.026 152.036 611.776 Q152.036 620.503 148.957 625.109 Q145.902 629.693 140.092 629.693 Q134.282 629.693 131.203 625.109 Q128.147 620.503 128.147 611.776 Q128.147 603.026 131.203 598.443 Q134.282 593.836 140.092 593.836 Z" fill="#000000" fill-rule="evenodd" fill-opacity="1" /><path clip-path="url(#clip270)" d="M 0 0 M188.425 603.558 L177.846 614.183 L188.425 624.762 L185.67 627.563 L175.045 616.938 L164.42 627.563 L161.689 624.762 L172.244 614.183 L161.689 603.558 L164.42 600.757 L175.045 611.382 L185.67 600.757 L188.425 603.558 Z" fill="#000000" fill-rule="evenodd" fill-opacity="1" /><path clip-path="url(#clip270)" d="M 0 0 M200.786 625.086 L208.425 625.086 L208.425 598.72 L200.115 600.387 L200.115 596.128 L208.378 594.461 L213.054 594.461 L213.054 625.086 L220.693 625.086 L220.693 629.021 L200.786 629.021 L200.786 625.086 Z" fill="#000000" fill-rule="evenodd" fill-opacity="1" /><path clip-path="url(#clip270)" d="M 0 0 M240.138 597.54 Q236.526 597.54 234.698 601.105 Q232.892 604.646 232.892 611.776 Q232.892 618.882 234.698 622.447 Q236.526 625.989 240.138 625.989 Q243.772 625.989 245.577 622.447 Q247.406 618.882 247.406 611.776 Q247.406 604.646 245.577 601.105 Q243.772 597.54 240.138 597.54 M240.138 593.836 Q245.948 593.836 249.003 598.443 Q252.082 603.026 252.082 611.776 Q252.082 620.503 249.003 625.109 Q245.948 629.693 240.138 629.693 Q234.327 629.693 231.249 625.109 Q228.193 620.503 228.193 611.776 Q228.193 603.026 231.249 598.443 Q234.327 593.836 240.138 593.836 Z" fill="#000000" fill-rule="evenodd" fill-opacity="1" /><path clip-path="url(#clip270)" d="M 0 0 M253.267 573.531 L268.181 573.531 L268.181 576.728 L256.746 576.728 L256.746 583.612 Q257.574 583.33 258.401 583.198 Q259.229 583.048 260.056 583.048 Q264.758 583.048 267.504 585.624 Q270.25 588.201 270.25 592.602 Q270.25 597.135 267.429 599.655 Q264.608 602.156 259.473 602.156 Q257.705 602.156 255.862 601.855 Q254.038 601.554 252.082 600.953 L252.082 597.135 Q253.775 598.056 255.58 598.508 Q257.386 598.959 259.398 598.959 Q262.652 598.959 264.551 597.247 Q266.451 595.536 266.451 592.602 Q266.451 589.668 264.551 587.956 Q262.652 586.245 259.398 586.245 Q257.875 586.245 256.351 586.583 Q254.847 586.922 253.267 587.637 L253.267 573.531 Z" fill="#000000" fill-rule="evenodd" fill-opacity="1" /><path clip-path="url(#clip270)" d="M 0 0 M58.7265 363.972 L75.0458 363.972 L75.0458 367.907 L53.1015 367.907 L53.1015 363.972 Q55.7635 361.218 60.3468 356.588 Q64.9533 351.935 66.1338 350.593 Q68.3792 348.069 69.2588 346.333 Q70.1616 344.574 70.1616 342.884 Q70.1616 340.13 68.2171 338.394 Q66.2959 336.658 63.194 336.658 Q60.995 336.658 58.5413 337.421 Q56.1107 338.185 53.333 339.736 L53.333 335.014 Q56.157 333.88 58.6107 333.301 Q61.0644 332.722 63.1014 332.722 Q68.4718 332.722 71.6662 335.408 Q74.8606 338.093 74.8606 342.583 Q74.8606 344.713 74.0505 346.634 Q73.2634 348.532 71.1569 351.125 Q70.5782 351.796 67.4764 355.014 Q64.3746 358.208 58.7265 363.972 Z" fill="#000000" fill-rule="evenodd" fill-opacity="1" /><path clip-path="url(#clip270)" d="M 0 0 M84.8606 362.028 L89.7448 362.028 L89.7448 367.907 L84.8606 367.907 L84.8606 362.028 Z" fill="#000000" fill-rule="evenodd" fill-opacity="1" /><path clip-path="url(#clip270)" d="M 0 0 M109.93 336.426 Q106.319 336.426 104.49 339.991 Q102.685 343.532 102.685 350.662 Q102.685 357.769 104.49 361.333 Q106.319 364.875 109.93 364.875 Q113.564 364.875 115.37 361.333 Q117.198 357.769 117.198 350.662 Q117.198 343.532 115.37 339.991 Q113.564 336.426 109.93 336.426 M109.93 332.722 Q115.74 332.722 118.796 337.329 Q121.874 341.912 121.874 350.662 Q121.874 359.389 118.796 363.995 Q115.74 368.579 109.93 368.579 Q104.12 368.579 101.041 363.995 Q97.9855 359.389 97.9855 350.662 Q97.9855 341.912 101.041 337.329 Q104.12 332.722 109.93 332.722 Z" fill="#000000" fill-rule="evenodd" fill-opacity="1" /><path clip-path="url(#clip270)" d="M 0 0 M140.092 336.426 Q136.481 336.426 134.652 339.991 Q132.846 343.532 132.846 350.662 Q132.846 357.769 134.652 361.333 Q136.481 364.875 140.092 364.875 Q143.726 364.875 145.532 361.333 Q147.36 357.769 147.36 350.662 Q147.36 343.532 145.532 339.991 Q143.726 336.426 140.092 336.426 M140.092 332.722 Q145.902 332.722 148.957 337.329 Q152.036 341.912 152.036 350.662 Q152.036 359.389 148.957 363.995 Q145.902 368.579 140.092 368.579 Q134.282 368.579 131.203 363.995 Q128.147 359.389 128.147 350.662 Q128.147 341.912 131.203 337.329 Q134.282 332.722 140.092 332.722 Z" fill="#000000" fill-rule="evenodd" fill-opacity="1" /><path clip-path="url(#clip270)" d="M 0 0 M188.425 342.445 L177.846 353.069 L188.425 363.648 L185.67 366.449 L175.045 355.824 L164.42 366.449 L161.689 363.648 L172.244 353.069 L161.689 342.445 L164.42 339.644 L175.045 350.269 L185.67 339.644 L188.425 342.445 Z" fill="#000000" fill-rule="evenodd" fill-opacity="1" /><path clip-path="url(#clip270)" d="M 0 0 M200.786 363.972 L208.425 363.972 L208.425 337.607 L200.115 339.273 L200.115 335.014 L208.378 333.347 L213.054 333.347 L213.054 363.972 L220.693 363.972 L220.693 367.907 L200.786 367.907 L200.786 363.972 Z" fill="#000000" fill-rule="evenodd" fill-opacity="1" /><path clip-path="url(#clip270)" d="M 0 0 M240.138 336.426 Q236.526 336.426 234.698 339.991 Q232.892 343.532 232.892 350.662 Q232.892 357.769 234.698 361.333 Q236.526 364.875 240.138 364.875 Q243.772 364.875 245.577 361.333 Q247.406 357.769 247.406 350.662 Q247.406 343.532 245.577 339.991 Q243.772 336.426 240.138 336.426 M240.138 332.722 Q245.948 332.722 249.003 337.329 Q252.082 341.912 252.082 350.662 Q252.082 359.389 249.003 363.995 Q245.948 368.579 240.138 368.579 Q234.327 368.579 231.249 363.995 Q228.193 359.389 228.193 350.662 Q228.193 341.912 231.249 337.329 Q234.327 332.722 240.138 332.722 Z" fill="#000000" fill-rule="evenodd" fill-opacity="1" /><path clip-path="url(#clip270)" d="M 0 0 M253.267 312.417 L268.181 312.417 L268.181 315.614 L256.746 315.614 L256.746 322.498 Q257.574 322.216 258.401 322.084 Q259.229 321.934 260.056 321.934 Q264.758 321.934 267.504 324.51 Q270.25 327.087 270.25 331.488 Q270.25 336.021 267.429 338.541 Q264.608 341.042 259.473 341.042 Q257.705 341.042 255.862 340.741 Q254.038 340.441 252.082 339.839 L252.082 336.021 Q253.775 336.942 255.58 337.394 Q257.386 337.845 259.398 337.845 Q262.652 337.845 264.551 336.134 Q266.451 334.422 266.451 331.488 Q266.451 328.554 264.551 326.843 Q262.652 325.131 259.398 325.131 Q257.875 325.131 256.351 325.47 Q254.847 325.808 253.267 326.523 L253.267 312.417 Z" fill="#000000" fill-rule="evenodd" fill-opacity="1" /><path clip-path="url(#clip270)" d="M 0 0 M1261.42 150.994 L1254.21 171.898 L1184.61 171.898 Q1183.66 171.898 1183.29 171.857 Q1182.92 171.816 1182.64 171.611 Q1182.35 171.406 1182.35 170.955 Q1182.35 170.586 1183.09 169.644 L1212.89 132.794 L1182.27 90.6574 Q1182.27 88.7309 1182.6 88.362 Q1182.92 87.9521 1184.61 87.9521 L1254.21 87.9521 L1261.42 107.586 L1259.33 107.586 Q1258.39 105.045 1256.87 102.913 Q1255.39 100.741 1253.67 99.1832 Q1251.99 97.6256 1249.78 96.3959 Q1247.61 95.1252 1245.56 94.3464 Q1243.55 93.5267 1241.05 92.9528 Q1238.55 92.338 1236.54 92.051 Q1234.57 91.7231 1232.11 91.5592 Q1229.65 91.3952 1228.09 91.3542 Q1226.54 91.3132 1224.57 91.3132 L1191.33 91.3132 L1218.59 128.736 Q1219.2 129.679 1219.2 129.925 Q1219.2 130.294 1218.42 131.278 L1189.32 167.266 L1224.98 167.266 Q1236.46 167.266 1244.45 164.848 Q1249.86 163.003 1253.8 159.355 Q1257.77 155.707 1259.33 150.994 L1261.42 150.994 Z" fill="#000000" fill-rule="evenodd" fill-opacity="1" /><path clip-path="url(#clip270)" d="M 0 0 M1168.27 192.981 Q1168.27 194.243 1167.23 195.19 Q1166.23 196.108 1165.14 196.108 Q1164.14 196.108 1163.5 195.505 Q1162.9 194.874 1162.9 193.985 Q1162.9 192.808 1163.91 191.833 Q1164.91 190.857 1166.09 190.857 Q1167.06 190.857 1167.67 191.46 Q1168.27 192.062 1168.27 192.981 M1168.78 221.3 Q1168.78 221.53 1168.53 222.448 Q1168.27 223.337 1167.64 224.714 Q1167.03 226.063 1166.2 227.325 Q1165.37 228.588 1163.99 229.477 Q1162.64 230.367 1161.09 230.367 Q1159 230.367 1157.62 228.99 Q1156.27 227.612 1156.27 225.547 Q1156.27 224.428 1157.62 220.841 Q1161.52 210.397 1161.67 209.967 Q1162.33 208.331 1162.33 206.896 Q1162.33 206.236 1162.18 205.835 Q1162.04 205.404 1161.75 205.261 Q1161.47 205.089 1161.3 205.06 Q1161.15 205.031 1160.86 205.031 Q1159.17 205.031 1157.59 206.753 Q1156.02 208.475 1154.93 212.319 Q1154.7 213.037 1154.55 213.209 Q1154.41 213.381 1153.98 213.381 Q1153.26 213.352 1153.26 212.778 Q1153.26 212.606 1153.46 211.946 Q1153.66 211.258 1154.04 210.225 Q1154.41 209.163 1155.07 208.073 Q1155.73 206.954 1156.53 205.978 Q1157.36 205.003 1158.54 204.371 Q1159.72 203.74 1161.04 203.74 Q1163.19 203.74 1164.51 205.146 Q1165.86 206.523 1165.86 208.561 Q1165.86 209.68 1165.08 211.659 Q1164.14 214.242 1163.79 215.074 L1161.5 221.243 Q1160.66 223.481 1160.41 224.169 Q1160.18 224.829 1159.98 225.633 Q1159.8 226.407 1159.8 227.125 Q1159.8 228.129 1160.12 228.588 Q1160.46 229.047 1161.21 229.047 Q1163.28 229.047 1164.8 227.01 Q1166.32 224.944 1167.21 221.788 Q1167.23 221.702 1167.26 221.558 Q1167.49 220.841 1167.72 220.755 Q1167.84 220.726 1168.07 220.726 Q1168.78 220.726 1168.78 221.3 Z" fill="#000000" fill-rule="evenodd" fill-opacity="1" /><path clip-path="url(#clip270)" d="M 0 0 M1189.62 220.784 Q1189.68 220.066 1190.8 220.066 L1226.81 220.066 Q1228.5 220.066 1228.53 220.726 Q1228.53 221.444 1226.92 221.415 L1191.2 221.415 Q1189.62 221.444 1189.62 220.784 M1189.62 209.307 Q1189.62 208.589 1190.85 208.618 L1226.75 208.618 Q1228.5 208.618 1228.53 209.307 Q1228.53 209.967 1227.04 209.967 L1190.8 209.967 Q1189.62 209.967 1189.62 209.307 Z" fill="#000000" fill-rule="evenodd" fill-opacity="1" /><path clip-path="url(#clip270)" d="M 0 0 M1251.18 196.165 L1251.18 194.329 Q1258.24 194.329 1261.88 190.57 Q1262.89 190.57 1263.06 190.8 Q1263.23 191.029 1263.23 192.091 L1263.23 225.059 Q1263.23 226.809 1264.09 227.354 Q1264.95 227.899 1268.71 227.899 L1270.58 227.899 L1270.58 229.707 Q1268.51 229.535 1261.05 229.535 Q1253.59 229.535 1251.55 229.707 L1251.55 227.899 L1253.42 227.899 Q1257.12 227.899 1258.01 227.383 Q1258.9 226.838 1258.9 225.059 L1258.9 194.616 Q1255.83 196.165 1251.18 196.165 Z" fill="#000000" fill-rule="evenodd" fill-opacity="1" /><path clip-path="url(#clip270)" d="M 0 0 M1146.4 26.0975 L1146.4 24.2611 Q1153.45 24.2611 1157.1 20.5024 Q1158.1 20.5024 1158.27 20.732 Q1158.45 20.9615 1158.45 22.0231 L1158.45 54.9908 Q1158.45 56.741 1159.31 57.2862 Q1160.17 57.8314 1163.93 57.8314 L1165.79 57.8314 L1165.79 59.639 Q1163.73 59.4668 1156.27 59.4668 Q1148.81 59.4668 1146.77 59.639 L1146.77 57.8314 L1148.63 57.8314 Q1152.34 57.8314 1153.22 57.3149 Q1154.11 56.7697 1154.11 54.9908 L1154.11 24.5481 Q1151.04 26.0975 1146.4 26.0975 Z" fill="#000000" fill-rule="evenodd" fill-opacity="1" /><path clip-path="url(#clip270)" d="M 0 0 M1170.76 40.8454 Q1170.76 32.209 1172.95 27.5034 Q1175.99 20.5024 1183.16 20.5024 Q1184.68 20.5024 1186.26 20.9328 Q1187.87 21.3345 1189.87 22.9126 Q1191.91 24.4907 1193.14 27.073 Q1195.5 32.0655 1195.5 40.8454 Q1195.5 49.4245 1193.32 54.1013 Q1190.13 60.9301 1183.1 60.9301 Q1180.46 60.9301 1177.77 59.5816 Q1175.1 58.2331 1173.4 54.9908 Q1170.76 50.1418 1170.76 40.8454 M1175.64 40.1281 Q1175.64 48.9941 1176.27 52.5232 Q1176.99 56.3393 1178.94 58.0035 Q1180.92 59.639 1183.1 59.639 Q1185.46 59.639 1187.41 57.8887 Q1189.39 56.1098 1189.99 52.2937 Q1190.65 48.535 1190.62 40.1281 Q1190.62 31.9507 1190.05 28.6798 Q1189.27 24.8637 1187.21 23.343 Q1185.17 21.7936 1183.1 21.7936 Q1182.33 21.7936 1181.5 22.0231 Q1180.69 22.2527 1179.52 22.9126 Q1178.34 23.5725 1177.42 25.208 Q1176.53 26.8435 1176.1 29.311 Q1175.64 32.4959 1175.64 40.1281 Z" fill="#000000" fill-rule="evenodd" fill-opacity="1" /><path clip-path="url(#clip270)" d="M 0 0 M1199.86 40.8454 Q1199.86 32.209 1202.04 27.5034 Q1205.08 20.5024 1212.25 20.5024 Q1213.77 20.5024 1215.35 20.9328 Q1216.96 21.3345 1218.97 22.9126 Q1221 24.4907 1222.24 27.073 Q1224.59 32.0655 1224.59 40.8454 Q1224.59 49.4245 1222.41 54.1013 Q1219.23 60.9301 1212.2 60.9301 Q1209.56 60.9301 1206.86 59.5816 Q1204.19 58.2331 1202.5 54.9908 Q1199.86 50.1418 1199.86 40.8454 M1204.74 40.1281 Q1204.74 48.9941 1205.37 52.5232 Q1206.08 56.3393 1208.04 58.0035 Q1210.02 59.639 1212.2 59.639 Q1214.55 59.639 1216.5 57.8887 Q1218.48 56.1098 1219.08 52.2937 Q1219.74 48.535 1219.71 40.1281 Q1219.71 31.9507 1219.14 28.6798 Q1218.37 24.8637 1216.3 23.343 Q1214.26 21.7936 1212.2 21.7936 Q1211.42 21.7936 1210.59 22.0231 Q1209.79 22.2527 1208.61 22.9126 Q1207.43 23.5725 1206.52 25.208 Q1205.63 26.8435 1205.2 29.311 Q1204.74 32.4959 1204.74 40.1281 Z" fill="#000000" fill-rule="evenodd" fill-opacity="1" /><path clip-path="url(#clip270)" d="M 0 0 M1228.95 40.8454 Q1228.95 32.209 1231.13 27.5034 Q1234.17 20.5024 1241.35 20.5024 Q1242.87 20.5024 1244.45 20.9328 Q1246.05 21.3345 1248.06 22.9126 Q1250.1 24.4907 1251.33 27.073 Q1253.69 32.0655 1253.69 40.8454 Q1253.69 49.4245 1251.5 54.1013 Q1248.32 60.9301 1241.29 60.9301 Q1238.65 60.9301 1235.95 59.5816 Q1233.28 58.2331 1231.59 54.9908 Q1228.95 50.1418 1228.95 40.8454 M1233.83 40.1281 Q1233.83 48.9941 1234.46 52.5232 Q1235.18 56.3393 1237.13 58.0035 Q1239.11 59.639 1241.29 59.639 Q1243.64 59.639 1245.59 57.8887 Q1247.57 56.1098 1248.18 52.2937 Q1248.84 48.535 1248.81 40.1281 Q1248.81 31.9507 1248.23 28.6798 Q1247.46 24.8637 1245.39 23.343 Q1243.36 21.7936 1241.29 21.7936 Q1240.52 21.7936 1239.68 22.0231 Q1238.88 22.2527 1237.7 22.9126 Q1236.53 23.5725 1235.61 25.208 Q1234.72 26.8435 1234.29 29.311 Q1233.83 32.4959 1233.83 40.1281 Z" fill="#000000" fill-rule="evenodd" fill-opacity="1" /><path clip-path="url(#clip270)" d="M 0 0 M1258.05 40.8454 Q1258.05 32.209 1260.23 27.5034 Q1263.27 20.5024 1270.44 20.5024 Q1271.96 20.5024 1273.54 20.9328 Q1275.15 21.3345 1277.16 22.9126 Q1279.19 24.4907 1280.43 27.073 Q1282.78 32.0655 1282.78 40.8454 Q1282.78 49.4245 1280.6 54.1013 Q1277.41 60.9301 1270.38 60.9301 Q1267.74 60.9301 1265.05 59.5816 Q1262.38 58.2331 1260.69 54.9908 Q1258.05 50.1418 1258.05 40.8454 M1262.92 40.1281 Q1262.92 48.9941 1263.56 52.5232 Q1264.27 56.3393 1266.22 58.0035 Q1268.2 59.639 1270.38 59.639 Q1272.74 59.639 1274.69 57.8887 Q1276.67 56.1098 1277.27 52.2937 Q1277.93 48.535 1277.9 40.1281 Q1277.9 31.9507 1277.33 28.6798 Q1276.55 24.8637 1274.49 23.343 Q1272.45 21.7936 1270.38 21.7936 Q1269.61 21.7936 1268.78 22.0231 Q1267.97 22.2527 1266.8 22.9126 Q1265.62 23.5725 1264.7 25.208 Q1263.81 26.8435 1263.38 29.311 Q1262.92 32.4959 1262.92 40.1281 Z" fill="#000000" fill-rule="evenodd" fill-opacity="1" /><path clip-path="url(#clip270)" d="M 0 0 M1335.97 103.718 L1335.25 104.895 Q1330.81 102.972 1325.27 99.902 Q1319.73 102.972 1315.28 104.895 L1314.6 103.718 Q1319.44 99.5003 1325.27 96.2581 Q1331.15 99.529 1335.97 103.718 Z" fill="#000000" fill-rule="evenodd" fill-opacity="1" /><path clip-path="url(#clip270)" d="M 0 0 M1338.72 117.751 Q1338.72 117.792 1338.48 119.268 L1329.13 156.527 Q1328.64 158.495 1327.25 160.462 Q1325.89 162.471 1323.72 164.192 Q1321.59 165.955 1318.31 167.02 Q1315.07 168.127 1311.34 168.127 Q1305.4 168.127 1302.78 166.856 Q1300.19 165.627 1300.19 163.003 Q1300.19 160.708 1301.63 159.396 Q1303.06 158.126 1304.7 158.126 Q1306.26 158.126 1307.08 159.028 Q1307.9 159.929 1307.9 161.077 Q1307.9 162.348 1307.04 163.618 Q1306.18 164.93 1304.46 165.422 Q1307.2 166.283 1311.18 166.283 Q1319.58 166.283 1323.19 157.388 Q1323.27 157.265 1323.27 157.224 L1326.06 146.116 L1325.94 146.034 Q1325.24 146.854 1324.13 147.796 Q1323.07 148.698 1320.77 149.805 Q1318.48 150.912 1316.22 150.912 Q1311.51 150.912 1308.27 147.305 Q1305.07 143.657 1305.07 137.631 Q1305.07 133.245 1306.83 128.859 Q1308.64 124.433 1311.43 121.194 Q1314.25 117.915 1317.86 115.866 Q1321.51 113.816 1325.03 113.816 Q1327.49 113.816 1329.58 115.292 Q1331.67 116.727 1332.82 119.104 Q1333.03 117.136 1334.13 116.317 Q1335.28 115.497 1336.26 115.497 Q1337.37 115.497 1338.03 116.112 Q1338.72 116.686 1338.72 117.751 M1331.84 122.875 Q1331.84 122.629 1331.67 121.973 Q1331.51 121.276 1331.02 120.17 Q1330.57 119.063 1329.87 118.079 Q1329.17 117.095 1327.9 116.399 Q1326.67 115.661 1325.12 115.661 Q1322.57 115.661 1320.03 117.792 Q1317.49 119.883 1315.73 123.121 Q1314.09 126.236 1312.53 132.262 Q1311.02 138.287 1311.02 141.361 Q1311.02 144.394 1312.33 146.731 Q1313.64 149.067 1316.47 149.067 Q1319.75 149.067 1323.27 146.034 Q1326.92 142.878 1327.53 140.172 L1331.59 124.146 Q1331.84 123.162 1331.84 122.875 Z" fill="#000000" fill-rule="evenodd" fill-opacity="1" /><path clip-path="url(#clip270)" d="M 0 0 M1364.49 154.248 Q1364.49 155.511 1363.46 156.458 Q1362.46 157.376 1361.37 157.376 Q1360.36 157.376 1359.73 156.773 Q1359.13 156.142 1359.13 155.253 Q1359.13 154.076 1360.13 153.101 Q1361.14 152.125 1362.31 152.125 Q1363.29 152.125 1363.89 152.728 Q1364.49 153.33 1364.49 154.248 M1365.01 182.568 Q1365.01 182.797 1364.75 183.716 Q1364.49 184.605 1363.86 185.982 Q1363.26 187.331 1362.43 188.593 Q1361.6 189.856 1360.22 190.745 Q1358.87 191.635 1357.32 191.635 Q1355.23 191.635 1353.85 190.257 Q1352.5 188.88 1352.5 186.814 Q1352.5 185.695 1353.85 182.109 Q1357.75 171.665 1357.89 171.234 Q1358.55 169.599 1358.55 168.164 Q1358.55 167.504 1358.41 167.103 Q1358.27 166.672 1357.98 166.529 Q1357.69 166.357 1357.52 166.328 Q1357.38 166.299 1357.09 166.299 Q1355.4 166.299 1353.82 168.021 Q1352.24 169.742 1351.15 173.587 Q1350.92 174.304 1350.78 174.477 Q1350.64 174.649 1350.21 174.649 Q1349.49 174.62 1349.49 174.046 Q1349.49 173.874 1349.69 173.214 Q1349.89 172.525 1350.26 171.493 Q1350.64 170.431 1351.3 169.341 Q1351.96 168.222 1352.76 167.246 Q1353.59 166.271 1354.77 165.639 Q1355.94 165.008 1357.26 165.008 Q1359.42 165.008 1360.74 166.414 Q1362.08 167.791 1362.08 169.828 Q1362.08 170.947 1361.31 172.927 Q1360.36 175.51 1360.02 176.342 L1357.72 182.51 Q1356.89 184.748 1356.63 185.437 Q1356.4 186.097 1356.2 186.9 Q1356.03 187.675 1356.03 188.392 Q1356.03 189.397 1356.35 189.856 Q1356.69 190.315 1357.44 190.315 Q1359.5 190.315 1361.02 188.278 Q1362.54 186.212 1363.43 183.056 Q1363.46 182.97 1363.49 182.826 Q1363.72 182.109 1363.95 182.023 Q1364.06 181.994 1364.29 181.994 Q1365.01 181.994 1365.01 182.568 Z" fill="#000000" fill-rule="evenodd" fill-opacity="1" /><path clip-path="url(#clip270)" d="M 0 0 M1349.49 80.6055 Q1349.49 70.6779 1353.19 62.6726 Q1354.77 59.3156 1356.98 56.5038 Q1359.19 53.6919 1360.65 52.4581 Q1362.11 51.2243 1362.51 51.2243 Q1363.09 51.2243 1363.12 51.7982 Q1363.12 52.0851 1362.34 52.8024 Q1352.87 62.4431 1352.9 80.6055 Q1352.9 98.8252 1362.11 108.093 Q1363.12 109.097 1363.12 109.413 Q1363.12 109.987 1362.51 109.987 Q1362.11 109.987 1360.71 108.81 Q1359.3 107.634 1357.12 104.937 Q1354.94 102.24 1353.36 98.94 Q1349.49 90.9348 1349.49 80.6055 Z" fill="#000000" fill-rule="evenodd" fill-opacity="1" /><path clip-path="url(#clip270)" d="M 0 0 M1372.05 95.296 Q1372.05 94.2344 1372.13 93.9188 Q1372.25 93.6032 1372.71 93.1154 L1383.98 80.5481 Q1390.15 73.6045 1390.15 67.5504 Q1390.15 63.6195 1388.09 60.8076 Q1386.05 57.9958 1382.29 57.9958 Q1379.71 57.9958 1377.53 59.5739 Q1375.35 61.1519 1374.34 63.9638 Q1374.51 63.9064 1375.12 63.9064 Q1376.58 63.9064 1377.38 64.8246 Q1378.22 65.7427 1378.22 66.9765 Q1378.22 68.5546 1377.18 69.3293 Q1376.18 70.0753 1375.17 70.0753 Q1374.77 70.0753 1374.23 69.9892 Q1373.71 69.9032 1372.88 69.0998 Q1372.05 68.2677 1372.05 66.8044 Q1372.05 62.7013 1375.15 59.4304 Q1378.27 56.1595 1383.04 56.1595 Q1388.43 56.1595 1391.96 59.373 Q1395.52 62.5579 1395.52 67.5504 Q1395.52 69.3006 1394.97 70.9074 Q1394.46 72.4855 1393.74 73.7193 Q1393.05 74.953 1391.16 76.9328 Q1389.26 78.9126 1387.74 80.3185 Q1386.22 81.7245 1382.81 84.7085 L1376.58 90.7626 L1387.17 90.7626 Q1392.33 90.7626 1392.73 90.3035 Q1393.31 89.4714 1394.03 85.0815 L1395.52 85.0815 L1393.85 95.296 L1372.05 95.296 Z" fill="#000000" fill-rule="evenodd" fill-opacity="1" /><path clip-path="url(#clip270)" d="M 0 0 M1401.14 109.413 Q1401.14 109.126 1401.89 108.408 Q1411.36 98.7678 1411.36 80.6055 Q1411.36 62.3857 1402.26 53.1754 Q1401.14 52.1138 1401.14 51.7982 Q1401.14 51.2243 1401.71 51.2243 Q1402.12 51.2243 1403.52 52.4007 Q1404.96 53.5771 1407.11 56.2742 Q1409.29 58.9713 1410.9 62.271 Q1414.77 70.2762 1414.77 80.6055 Q1414.77 90.5331 1411.07 98.5383 Q1409.49 101.895 1407.28 104.707 Q1405.07 107.519 1403.61 108.753 Q1402.15 109.987 1401.71 109.987 Q1401.14 109.987 1401.14 109.413 Z" fill="#000000" fill-rule="evenodd" fill-opacity="1" /><path clip-path="url(#clip270)" d="M 0 0 M1432.66 129.925 Q1432.66 115.743 1437.95 104.307 Q1440.2 99.5111 1443.36 95.4941 Q1446.51 91.4772 1448.6 89.7146 Q1450.7 87.9521 1451.27 87.9521 Q1452.09 87.9521 1452.13 88.7719 Q1452.13 89.1818 1451.02 90.2065 Q1437.5 103.979 1437.54 129.925 Q1437.54 155.953 1450.7 169.193 Q1452.13 170.627 1452.13 171.078 Q1452.13 171.898 1451.27 171.898 Q1450.7 171.898 1448.69 170.218 Q1446.68 168.537 1443.56 164.684 Q1440.45 160.831 1438.19 156.117 Q1432.66 144.681 1432.66 129.925 Z" fill="#000000" fill-rule="evenodd" fill-opacity="1" /><path clip-path="url(#clip270)" d="M 0 0 M1504.4 116.071 Q1504.4 116.44 1504.07 117.71 Q1503.79 118.94 1502.84 121.358 Q1501.94 123.736 1500.55 126.4 Q1499.2 129.023 1496.69 132.343 Q1494.19 135.664 1491.08 138.574 Q1485.22 144.066 1478.95 147.018 Q1472.72 149.969 1467.39 150.912 L1466.2 150.912 Q1464.89 150.912 1464.89 149.887 L1465.79 146.116 L1470.91 125.58 Q1472.51 119.309 1472.51 118.776 Q1472.51 118.284 1472.31 118.038 Q1472.14 117.751 1471.16 117.546 Q1470.22 117.341 1468.33 117.341 Q1467.55 117.341 1467.18 117.3 Q1466.85 117.259 1466.57 117.054 Q1466.28 116.809 1466.28 116.317 Q1466.28 115.62 1466.57 115.251 Q1466.9 114.841 1467.14 114.759 Q1467.39 114.677 1467.88 114.636 Q1468.58 114.595 1470.91 114.39 Q1473.25 114.144 1475.26 113.98 Q1477.27 113.816 1478.13 113.816 Q1478.62 113.816 1478.91 114.062 Q1479.19 114.267 1479.19 114.513 L1479.23 114.718 L1470.99 148.124 Q1474.03 147.141 1477.02 145.501 Q1480.05 143.861 1483.33 141.156 Q1486.61 138.41 1489.4 135.008 Q1492.19 131.606 1494.65 126.851 Q1497.15 122.055 1498.7 116.563 Q1498.99 115.456 1499.69 114.8 Q1500.42 114.144 1500.96 113.98 Q1501.49 113.816 1501.98 113.816 Q1503.09 113.816 1503.74 114.431 Q1504.4 115.005 1504.4 116.071 Z" fill="#000000" fill-rule="evenodd" fill-opacity="1" /><path clip-path="url(#clip270)" d="M 0 0 M1505.92 171.078 Q1505.92 170.668 1506.99 169.644 Q1520.51 155.871 1520.51 129.925 Q1520.51 103.897 1507.52 90.7394 Q1505.92 89.2228 1505.92 88.7719 Q1505.92 87.9521 1506.74 87.9521 Q1507.32 87.9521 1509.32 89.6327 Q1511.37 91.3132 1514.45 95.1662 Q1517.56 99.0192 1519.86 103.733 Q1525.39 115.169 1525.39 129.925 Q1525.39 144.107 1520.1 155.543 Q1517.85 160.339 1514.69 164.356 Q1511.54 168.373 1509.45 170.136 Q1507.36 171.898 1506.74 171.898 Q1505.92 171.898 1505.92 171.078 Z" fill="#000000" fill-rule="evenodd" fill-opacity="1" /><polyline clip-path="url(#clip273)" style="stroke:#009af9; stroke-width:4; stroke-opacity:1; fill:none" points="
  364.17,1388.64 368.47,1383.17 372.77,1383.44 377.07,1385.32 381.37,1384.81 385.67,1385.43 389.97,1388.12 394.27,1387.32 398.57,1388.4 402.869,1385 
  407.169,1388.08 411.469,1386.05 415.769,1387.76 420.069,1387.69 424.369,1385.52 428.669,1388.19 432.969,1386.97 437.269,1386.88 441.569,1387.32 445.869,1386.68 
  450.169,1386.34 454.469,1385.28 458.769,1386.53 463.068,1386.43 467.368,1385.65 471.668,1386.32 475.968,1387.52 480.268,1387.32 484.568,1385.72 488.868,1387.08 
  493.168,1386.42 497.468,1387.56 501.768,1387.58 506.068,1387.25 510.368,1387.62 514.668,1387.95 518.967,237.151 523.267,1387.31 527.567,1387.89 531.867,1387.17 
  536.167,1386.2 540.467,1387.1 544.767,1388.01 549.067,1387.1 553.367,1386.35 557.667,1386.32 561.967,1385.55 566.267,1386.53 570.567,1386.52 574.866,1387.92 
  579.166,1387.4 583.466,1386.95 587.766,1387.33 592.066,1388.47 596.366,1387.37 600.666,1386.72 604.966,1386.92 609.266,1385.07 613.566,1388.26 617.866,1386.52 
  622.166,1386.87 626.466,1387.91 630.765,1386.66 635.065,1386.33 639.365,1386.24 643.665,1387.36 647.965,1386.21 652.265,1385.34 656.565,1387.87 660.865,1386.42 
  665.165,1385.43 669.465,1387.57 673.765,1386.05 678.065,1388.44 682.365,1385.37 686.664,1386.2 690.964,1387.35 695.264,1386.72 699.564,1388.37 703.864,1386.27 
  708.164,1387.74 712.464,1387.24 716.764,1386.84 721.064,1387.37 725.364,1387.27 729.664,1387.76 733.964,1386.19 738.264,1385.33 742.563,1386.81 746.863,1385.97 
  751.163,1388.19 755.463,1387.63 759.763,1387.11 764.063,1386.01 768.363,1386.58 772.663,1386.71 776.963,1386.65 781.263,1386.07 785.563,1387.62 789.863,1387.94 
  794.163,1385.7 798.462,1387.96 802.762,1387.11 807.062,1387.06 811.362,1386.13 815.662,1388.51 819.962,1385.86 824.262,1388.46 828.562,1387.12 832.862,1386.7 
  837.162,1385.84 841.462,1387.64 845.762,1387.64 850.062,1387.01 854.361,1387.01 858.661,1387.67 862.961,1387.19 867.261,1388.01 871.561,1387.26 875.861,1387.57 
  880.161,1386.12 884.461,1387.05 888.761,1387.88 893.061,1385.71 897.361,1387.06 901.661,1388.16 905.961,1387.56 910.26,1387.61 914.56,1387.33 918.86,1388.26 
  923.16,1386.38 927.46,1387.59 931.76,1388.2 936.06,1386.86 940.36,1386.71 944.66,1388.28 948.96,1386.77 953.26,1386.69 957.56,1388 961.86,1386.76 
  966.16,1386.52 970.459,1386.91 974.759,1387.34 979.059,1387.77 983.359,1386.16 987.659,1387.55 991.959,1386.1 996.259,1388.37 1000.56,1388.37 1004.86,1388.11 
  1009.16,1386.92 1013.46,1387.64 1017.76,1386.58 1022.06,1386.03 1026.36,1388.03 1030.66,1387.35 1034.96,1387.15 1039.26,1386.61 1043.56,1386.77 1047.86,1388.12 
  1052.16,1388.21 1056.46,1388.21 1060.76,1388.03 1065.06,1388.24 1069.36,1388.4 1073.66,1388.15 1077.96,1387.25 1082.26,1387.84 1086.56,1387.43 1090.86,1386.85 
  1095.16,1386.87 1099.46,1387.51 1103.76,1387.05 1108.06,1388.18 1112.36,1387.41 1116.66,1387.86 1120.96,1387.33 1125.26,1387.11 1129.56,1388.2 1133.86,1387.98 
  1138.16,1387.63 1142.46,1388.36 1146.76,1387.54 1151.06,1388.09 1155.36,1386.81 1159.66,1387.59 1163.96,1388.19 1168.26,1388.01 1172.56,1387.65 1176.86,1387.15 
  1181.16,1387.81 1185.46,1387.88 1189.76,1388.04 1194.06,1387.94 1198.36,1387.4 1202.66,1388.35 1206.96,1388.48 1211.26,1388.26 1215.56,1388.32 1219.86,1388.09 
  1224.15,1388.37 1228.45,1387.64 1232.75,1388.27 1237.05,1387.98 1241.35,1386.99 1245.65,1387.62 1249.95,1387.52 1254.25,1388.37 1258.55,1387.93 1262.85,1387.76 
  1267.15,1387.48 1271.45,1387.51 1275.75,1387.8 1280.05,1387.41 1284.35,1387.43 1288.65,1388.18 1292.95,1387.88 1297.25,1388.38 1301.55,1388.39 1305.85,1388.31 
  1310.15,1387.48 1314.45,1387.83 1318.75,1387.67 1323.05,1387.75 1327.35,1388.56 1331.65,1387.52 1335.95,1387.72 1340.25,1388.2 1344.55,1387.74 1348.85,1388.45 
  1353.15,1388.29 1357.45,1388.5 1361.75,1388.17 1366.05,1388.11 1370.35,1387.82 1374.65,1387.3 1378.95,1388.32 1383.25,1387.94 1387.55,1388.38 1391.85,1388.38 
  1396.15,1387.24 1400.45,1387.74 1404.75,1388.52 1409.05,1388.04 1413.35,1388.32 1417.65,1388.22 1421.95,1388.17 1426.25,1387.9 1430.55,1388.23 1434.85,1387.76 
  1439.15,1387.86 1443.45,1387.92 1447.75,1387.78 1452.05,1388.05 1456.35,1388.28 1460.65,1388.22 1464.95,1388.16 1469.25,1388.11 1473.55,1388.36 1477.85,1388.22 
  1482.15,1388.37 1486.45,1387.63 1490.75,1387.88 1495.05,1387.84 1499.35,1388.19 1503.65,1388.5 1507.95,1388.35 1512.25,1388.05 1516.55,1388.25 1520.85,1387.99 
  1525.15,1388.15 1529.45,1387.92 1533.75,1388.07 1538.05,1388.32 1542.35,1388.4 1546.65,1388.09 1550.95,1388.03 1555.25,1388.05 1559.55,1388.52 1563.85,1388.29 
  1568.15,1387.97 1572.45,1387.72 1576.75,1388.26 1581.05,1388.23 1585.35,1388.33 1589.65,1388.59 1593.95,1388.33 1598.25,1388.32 1602.55,1388.34 1606.85,1388.31 
  1611.15,1388.27 1615.45,1388.55 1619.75,1388.31 1624.05,1388.34 1628.35,1388.53 1632.65,1388.2 1636.95,1388.12 1641.25,1388.42 1645.55,1388.08 1649.85,1388.36 
  1654.15,1388.37 1658.45,1388.34 1662.75,1388.33 1667.05,1388.02 1671.35,1388.11 1675.65,1388.18 1679.95,1388.15 1684.25,1388.36 1688.55,1388.36 1692.85,1388.28 
  1697.15,1388.43 1701.45,1388.01 1705.75,1388.14 1710.05,1388.49 1714.35,1388.42 1718.65,1388.3 1722.95,1388.28 1727.25,1388.23 1731.55,1387.93 1735.85,1388.17 
  1740.15,1388.07 1744.45,1388.36 1748.75,1388.52 1753.05,1388.27 1757.35,1388.37 1761.65,1388.42 1765.95,1388.42 1770.25,1388.37 1774.55,1388.44 1778.85,1388.42 
  1783.15,1388.1 1787.44,1388.31 1791.74,1388 1796.04,1388.37 1800.34,1388.24 1804.64,1388.23 1808.94,1388.39 1813.24,1388.36 1817.54,1388.5 1821.84,1388.18 
  1826.14,1388.51 1830.44,1388.34 1834.74,1388.47 1839.04,1388.34 1843.34,1388.2 1847.64,1388.29 1851.94,1388.4 1856.24,1388.48 1860.54,1388.56 1864.84,1388.54 
  1869.14,1388.25 1873.44,1388.23 1877.74,1388.42 1882.04,1388.49 1886.34,1388.41 1890.64,1388.34 1894.94,1388.26 1899.24,1388.49 1903.54,1388.53 1907.84,1388.41 
  1912.14,1388.14 1916.44,1388.59 1920.74,1388.61 1925.04,1388.46 1929.34,1388.5 1933.64,1388.47 1937.94,1388.44 1942.24,1388.31 1946.54,1388.37 1950.84,1388.49 
  1955.14,1388.2 1959.44,1388.36 1963.74,1388.36 1968.04,1388.46 1972.34,1388.45 1976.64,1388.17 1980.94,1388.35 1985.24,1388.32 1989.54,1388.49 1993.84,1388.54 
  1998.14,1388.41 2002.44,1388.35 2006.74,1388.4 2011.04,1388.37 2015.34,1388.49 2019.64,1388.48 2023.94,1388.45 2028.24,1388.48 2032.54,1388.36 2036.84,1388.46 
  2041.14,1388.46 2045.44,1388.34 2049.74,1388.54 2054.04,1388.6 2058.34,1388.56 2062.64,1388.48 2066.94,1388.51 2071.24,1388.46 2075.54,1388.62 2079.84,1388.57 
  2084.14,1388.48 2088.44,1388.58 2092.74,1388.58 2097.04,1388.33 2101.34,1388.49 2105.64,1388.58 2109.94,1388.44 2114.24,1388.49 2118.54,1388.59 2122.84,1388.53 
  2127.14,1388.34 2131.44,1388.49 2135.74,1388.46 2140.04,1388.61 2144.34,1388.45 2148.64,1388.45 2152.94,1388.52 2157.24,1388.46 2161.54,1388.48 2165.84,1388.5 
  2170.14,1388.47 2174.44,1388.58 2178.74,1388.59 2183.04,1388.52 2187.34,1388.51 2191.64,1388.57 2195.94,1388.42 2200.24,1388.43 2204.54,1388.58 2208.84,1388.55 
  2213.14,1388.54 2217.44,1388.56 2221.74,1388.58 2226.04,1388.48 2230.34,1388.55 2234.64,1388.5 2238.94,1388.61 2243.24,1388.6 2247.54,1388.49 2251.84,1388.56 
  2256.14,1388.55 2260.44,1388.59 2264.74,1388.52 2269.04,1388.55 2273.34,1388.53 2277.64,1388.5 2281.94,1388.51 2286.24,1388.53 2290.54,1388.56 2294.84,1388.53 
  
  "/>
<polyline clip-path="url(#clip273)" style="stroke:#e26f46; stroke-width:4; stroke-opacity:1; fill:none" stroke-dasharray="16, 10" points="
  518.967,2643.75 518.967,-1017.97 
  "/>
<path clip-path="url(#clip270)" d="
M1700.6 364.252 L2284.54 364.252 L2284.54 243.292 L1700.6 243.292  Z
  " fill="#ffffff" fill-rule="evenodd" fill-opacity="1"/>
<polyline clip-path="url(#clip270)" style="stroke:#000000; stroke-width:4; stroke-opacity:1; fill:none" points="
  1700.6,364.252 2284.54,364.252 2284.54,243.292 1700.6,243.292 1700.6,364.252 
  "/>
<polyline clip-path="url(#clip270)" style="stroke:#e26f46; stroke-width:4; stroke-opacity:1; fill:none" stroke-dasharray="16, 10" points="
  1723.34,303.772 1859.77,303.772 
  "/>
<path clip-path="url(#clip270)" d="M 0 0 M1882.51 286.492 L1902.37 286.492 L1902.37 290.427 L1887.19 290.427 L1887.19 300.612 L1900.89 300.612 L1900.89 304.547 L1887.19 304.547 L1887.19 321.052 L1882.51 321.052 L1882.51 286.492 Z" fill="#000000" fill-rule="evenodd" fill-opacity="1" /><path clip-path="url(#clip270)" d="M 0 0 M1921.17 299.108 Q1920.45 298.691 1919.6 298.506 Q1918.76 298.297 1917.74 298.297 Q1914.13 298.297 1912.19 300.659 Q1910.27 302.997 1910.27 307.395 L1910.27 321.052 L1905.98 321.052 L1905.98 295.126 L1910.27 295.126 L1910.27 299.154 Q1911.61 296.793 1913.76 295.659 Q1915.91 294.501 1918.99 294.501 Q1919.43 294.501 1919.97 294.571 Q1920.5 294.617 1921.15 294.733 L1921.17 299.108 Z" fill="#000000" fill-rule="evenodd" fill-opacity="1" /><path clip-path="url(#clip270)" d="M 0 0 M1946.77 307.024 L1946.77 309.108 L1927.19 309.108 Q1927.47 313.506 1929.83 315.821 Q1932.21 318.112 1936.45 318.112 Q1938.9 318.112 1941.19 317.51 Q1943.51 316.908 1945.78 315.705 L1945.78 319.733 Q1943.48 320.705 1941.08 321.214 Q1938.67 321.723 1936.19 321.723 Q1929.99 321.723 1926.35 318.112 Q1922.74 314.501 1922.74 308.344 Q1922.74 301.978 1926.17 298.251 Q1929.62 294.501 1935.45 294.501 Q1940.68 294.501 1943.72 297.881 Q1946.77 301.237 1946.77 307.024 M1942.51 305.774 Q1942.47 302.279 1940.54 300.196 Q1938.65 298.112 1935.5 298.112 Q1931.93 298.112 1929.78 300.126 Q1927.65 302.14 1927.33 305.797 L1942.51 305.774 Z" fill="#000000" fill-rule="evenodd" fill-opacity="1" /><path clip-path="url(#clip270)" d="M 0 0 M1956.31 308.112 Q1956.31 312.811 1958.23 315.496 Q1960.17 318.158 1963.55 318.158 Q1966.93 318.158 1968.88 315.496 Q1970.82 312.811 1970.82 308.112 Q1970.82 303.413 1968.88 300.751 Q1966.93 298.066 1963.55 298.066 Q1960.17 298.066 1958.23 300.751 Q1956.31 303.413 1956.31 308.112 M1970.82 317.163 Q1969.48 319.478 1967.42 320.612 Q1965.38 321.723 1962.51 321.723 Q1957.81 321.723 1954.85 317.973 Q1951.91 314.223 1951.91 308.112 Q1951.91 302.001 1954.85 298.251 Q1957.81 294.501 1962.51 294.501 Q1965.38 294.501 1967.42 295.635 Q1969.48 296.747 1970.82 299.061 L1970.82 295.126 L1975.08 295.126 L1975.08 330.913 L1970.82 330.913 L1970.82 317.163 Z" fill="#000000" fill-rule="evenodd" fill-opacity="1" /><path clip-path="url(#clip270)" d="M 0 0 M1983.41 310.821 L1983.41 295.126 L1987.67 295.126 L1987.67 310.659 Q1987.67 314.339 1989.11 316.191 Q1990.54 318.02 1993.41 318.02 Q1996.86 318.02 1998.85 315.821 Q2000.87 313.621 2000.87 309.825 L2000.87 295.126 L2005.13 295.126 L2005.13 321.052 L2000.87 321.052 L2000.87 317.071 Q1999.32 319.432 1997.26 320.589 Q1995.22 321.723 1992.51 321.723 Q1988.04 321.723 1985.73 318.946 Q1983.41 316.168 1983.41 310.821 M1994.13 294.501 L1994.13 294.501 Z" fill="#000000" fill-rule="evenodd" fill-opacity="1" /><path clip-path="url(#clip270)" d="M 0 0 M2036.08 307.024 L2036.08 309.108 L2016.49 309.108 Q2016.77 313.506 2019.13 315.821 Q2021.52 318.112 2025.75 318.112 Q2028.21 318.112 2030.5 317.51 Q2032.81 316.908 2035.08 315.705 L2035.08 319.733 Q2032.79 320.705 2030.38 321.214 Q2027.97 321.723 2025.5 321.723 Q2019.29 321.723 2015.66 318.112 Q2012.05 314.501 2012.05 308.344 Q2012.05 301.978 2015.47 298.251 Q2018.92 294.501 2024.76 294.501 Q2029.99 294.501 2033.02 297.881 Q2036.08 301.237 2036.08 307.024 M2031.82 305.774 Q2031.77 302.279 2029.85 300.196 Q2027.95 298.112 2024.8 298.112 Q2021.24 298.112 2019.09 300.126 Q2016.96 302.14 2016.63 305.797 L2031.82 305.774 Z" fill="#000000" fill-rule="evenodd" fill-opacity="1" /><path clip-path="url(#clip270)" d="M 0 0 M2064.62 305.404 L2064.62 321.052 L2060.36 321.052 L2060.36 305.543 Q2060.36 301.862 2058.92 300.034 Q2057.49 298.205 2054.62 298.205 Q2051.17 298.205 2049.18 300.404 Q2047.19 302.603 2047.19 306.399 L2047.19 321.052 L2042.9 321.052 L2042.9 295.126 L2047.19 295.126 L2047.19 299.154 Q2048.71 296.816 2050.78 295.659 Q2052.86 294.501 2055.57 294.501 Q2060.03 294.501 2062.33 297.279 Q2064.62 300.034 2064.62 305.404 Z" fill="#000000" fill-rule="evenodd" fill-opacity="1" /><path clip-path="url(#clip270)" d="M 0 0 M2091.77 296.122 L2091.77 300.103 Q2089.96 299.108 2088.14 298.622 Q2086.33 298.112 2084.48 298.112 Q2080.34 298.112 2078.04 300.751 Q2075.75 303.367 2075.75 308.112 Q2075.75 312.858 2078.04 315.496 Q2080.34 318.112 2084.48 318.112 Q2086.33 318.112 2088.14 317.626 Q2089.96 317.117 2091.77 316.121 L2091.77 320.057 Q2089.99 320.89 2088.07 321.307 Q2086.17 321.723 2084.02 321.723 Q2078.16 321.723 2074.71 318.043 Q2071.26 314.362 2071.26 308.112 Q2071.26 301.77 2074.73 298.135 Q2078.23 294.501 2084.29 294.501 Q2086.26 294.501 2088.14 294.918 Q2090.01 295.311 2091.77 296.122 Z" fill="#000000" fill-rule="evenodd" fill-opacity="1" /><path clip-path="url(#clip270)" d="M 0 0 M2109.96 323.459 Q2108.16 328.089 2106.45 329.501 Q2104.73 330.913 2101.86 330.913 L2098.46 330.913 L2098.46 327.348 L2100.96 327.348 Q2102.72 327.348 2103.69 326.515 Q2104.66 325.682 2105.84 322.58 L2106.61 320.635 L2096.12 295.126 L2100.64 295.126 L2108.74 315.404 L2116.84 295.126 L2121.35 295.126 L2109.96 323.459 Z" fill="#000000" fill-rule="evenodd" fill-opacity="1" /><path clip-path="url(#clip270)" d="M 0 0 M2158.83 295.89 L2158.83 299.918 Q2157.02 298.992 2155.08 298.529 Q2153.14 298.066 2151.05 298.066 Q2147.88 298.066 2146.28 299.038 Q2144.71 300.01 2144.71 301.955 Q2144.71 303.436 2145.84 304.293 Q2146.98 305.126 2150.4 305.89 L2151.86 306.214 Q2156.4 307.186 2158.3 308.969 Q2160.22 310.728 2160.22 313.899 Q2160.22 317.51 2157.35 319.617 Q2154.5 321.723 2149.5 321.723 Q2147.42 321.723 2145.15 321.307 Q2142.9 320.913 2140.4 320.103 L2140.4 315.705 Q2142.77 316.932 2145.06 317.557 Q2147.35 318.158 2149.59 318.158 Q2152.6 318.158 2154.22 317.14 Q2155.84 316.098 2155.84 314.223 Q2155.84 312.487 2154.66 311.561 Q2153.51 310.635 2149.55 309.779 L2148.07 309.432 Q2144.11 308.598 2142.35 306.885 Q2140.59 305.149 2140.59 302.14 Q2140.59 298.483 2143.18 296.492 Q2145.77 294.501 2150.54 294.501 Q2152.9 294.501 2154.99 294.848 Q2157.07 295.196 2158.83 295.89 Z" fill="#000000" fill-rule="evenodd" fill-opacity="1" /><path clip-path="url(#clip270)" d="M 0 0 M2188.55 305.404 L2188.55 321.052 L2184.29 321.052 L2184.29 305.543 Q2184.29 301.862 2182.86 300.034 Q2181.42 298.205 2178.55 298.205 Q2175.1 298.205 2173.11 300.404 Q2171.12 302.603 2171.12 306.399 L2171.12 321.052 L2166.84 321.052 L2166.84 285.034 L2171.12 285.034 L2171.12 299.154 Q2172.65 296.816 2174.71 295.659 Q2176.79 294.501 2179.5 294.501 Q2183.97 294.501 2186.26 297.279 Q2188.55 300.034 2188.55 305.404 Z" fill="#000000" fill-rule="evenodd" fill-opacity="1" /><path clip-path="url(#clip270)" d="M 0 0 M2197.05 295.126 L2201.31 295.126 L2201.31 321.052 L2197.05 321.052 L2197.05 295.126 M2197.05 285.034 L2201.31 285.034 L2201.31 290.427 L2197.05 290.427 L2197.05 285.034 Z" fill="#000000" fill-rule="evenodd" fill-opacity="1" /><path clip-path="url(#clip270)" d="M 0 0 M2223.34 285.034 L2223.34 288.575 L2219.27 288.575 Q2216.98 288.575 2216.08 289.501 Q2215.2 290.427 2215.2 292.835 L2215.2 295.126 L2222.21 295.126 L2222.21 298.436 L2215.2 298.436 L2215.2 321.052 L2210.91 321.052 L2210.91 298.436 L2206.84 298.436 L2206.84 295.126 L2210.91 295.126 L2210.91 293.321 Q2210.91 288.992 2212.93 287.024 Q2214.94 285.034 2219.32 285.034 L2223.34 285.034 Z" fill="#000000" fill-rule="evenodd" fill-opacity="1" /><path clip-path="url(#clip270)" d="M 0 0 M2230.29 287.765 L2230.29 295.126 L2239.06 295.126 L2239.06 298.436 L2230.29 298.436 L2230.29 312.51 Q2230.29 315.682 2231.14 316.584 Q2232.02 317.487 2234.69 317.487 L2239.06 317.487 L2239.06 321.052 L2234.69 321.052 Q2229.76 321.052 2227.88 319.223 Q2226.01 317.371 2226.01 312.51 L2226.01 298.436 L2222.88 298.436 L2222.88 295.126 L2226.01 295.126 L2226.01 287.765 L2230.29 287.765 Z" fill="#000000" fill-rule="evenodd" fill-opacity="1" /></svg>
