<?xml version="1.0" encoding="utf-8"?>
<svg xmlns="http://www.w3.org/2000/svg" xmlns:xlink="http://www.w3.org/1999/xlink" width="600" height="400" viewBox="0 0 2400 1600">
<defs>
  <clipPath id="clip330">
    <rect x="0" y="0" width="2400" height="1600"/>
  </clipPath>
</defs>
<path clip-path="url(#clip330)" d="
M0 1600 L2400 1600 L2400 0 L0 0  Z
  " fill="#ffffff" fill-rule="evenodd" fill-opacity="1"/>
<defs>
  <clipPath id="clip331">
    <rect x="480" y="0" width="1681" height="1600"/>
  </clipPath>
</defs>
<defs>
  <clipPath id="clip332">
    <rect x="140" y="142" width="2213" height="1281"/>
  </clipPath>
</defs>
<path clip-path="url(#clip330)" d="
M170.857 1423.18 L2352.76 1423.18 L2352.76 202.606 L170.857 202.606  Z
  " fill="#ffffff" fill-rule="evenodd" fill-opacity="1"/>
<defs>
  <clipPath id="clip333">
    <rect x="170" y="202" width="2183" height="1222"/>
  </clipPath>
</defs>
<polyline clip-path="url(#clip333)" style="stroke:#000000; stroke-width:2; stroke-opacity:0.1; fill:none" points="
  232.609,1423.18 232.609,202.606 
  "/>
<polyline clip-path="url(#clip333)" style="stroke:#000000; stroke-width:2; stroke-opacity:0.1; fill:none" points="
  645.205,1423.18 645.205,202.606 
  "/>
<polyline clip-path="url(#clip333)" style="stroke:#000000; stroke-width:2; stroke-opacity:0.1; fill:none" points="
  1057.8,1423.18 1057.8,202.606 
  "/>
<polyline clip-path="url(#clip333)" style="stroke:#000000; stroke-width:2; stroke-opacity:0.1; fill:none" points="
  1470.4,1423.18 1470.4,202.606 
  "/>
<polyline clip-path="url(#clip333)" style="stroke:#000000; stroke-width:2; stroke-opacity:0.1; fill:none" points="
  1882.99,1423.18 1882.99,202.606 
  "/>
<polyline clip-path="url(#clip333)" style="stroke:#000000; stroke-width:2; stroke-opacity:0.1; fill:none" points="
  2295.59,1423.18 2295.59,202.606 
  "/>
<polyline clip-path="url(#clip330)" style="stroke:#000000; stroke-width:4; stroke-opacity:1; fill:none" points="
  170.857,1423.18 2352.76,1423.18 
  "/>
<polyline clip-path="url(#clip330)" style="stroke:#000000; stroke-width:4; stroke-opacity:1; fill:none" points="
  232.609,1423.18 232.609,1408.53 
  "/>
<polyline clip-path="url(#clip330)" style="stroke:#000000; stroke-width:4; stroke-opacity:1; fill:none" points="
  645.205,1423.18 645.205,1408.53 
  "/>
<polyline clip-path="url(#clip330)" style="stroke:#000000; stroke-width:4; stroke-opacity:1; fill:none" points="
  1057.8,1423.18 1057.8,1408.53 
  "/>
<polyline clip-path="url(#clip330)" style="stroke:#000000; stroke-width:4; stroke-opacity:1; fill:none" points="
  1470.4,1423.18 1470.4,1408.53 
  "/>
<polyline clip-path="url(#clip330)" style="stroke:#000000; stroke-width:4; stroke-opacity:1; fill:none" points="
  1882.99,1423.18 1882.99,1408.53 
  "/>
<polyline clip-path="url(#clip330)" style="stroke:#000000; stroke-width:4; stroke-opacity:1; fill:none" points="
  2295.59,1423.18 2295.59,1408.53 
  "/>
<path clip-path="url(#clip330)" d="M 0 0 M232.609 1452.37 Q228.998 1452.37 227.169 1455.94 Q225.364 1459.48 225.364 1466.61 Q225.364 1473.71 227.169 1477.28 Q228.998 1480.82 232.609 1480.82 Q236.244 1480.82 238.049 1477.28 Q239.878 1473.71 239.878 1466.61 Q239.878 1459.48 238.049 1455.94 Q236.244 1452.37 232.609 1452.37 M232.609 1448.67 Q238.419 1448.67 241.475 1453.27 Q244.554 1457.86 244.554 1466.61 Q244.554 1475.33 241.475 1479.94 Q238.419 1484.52 232.609 1484.52 Q226.799 1484.52 223.72 1479.94 Q220.665 1475.33 220.665 1466.61 Q220.665 1457.86 223.72 1453.27 Q226.799 1448.67 232.609 1448.67 Z" fill="#000000" fill-rule="evenodd" fill-opacity="1" /><path clip-path="url(#clip330)" d="M 0 0 M619.893 1479.92 L627.532 1479.92 L627.532 1453.55 L619.221 1455.22 L619.221 1450.96 L627.485 1449.29 L632.161 1449.29 L632.161 1479.92 L639.8 1479.92 L639.8 1483.85 L619.893 1483.85 L619.893 1479.92 Z" fill="#000000" fill-rule="evenodd" fill-opacity="1" /><path clip-path="url(#clip330)" d="M 0 0 M659.244 1452.37 Q655.633 1452.37 653.805 1455.94 Q651.999 1459.48 651.999 1466.61 Q651.999 1473.71 653.805 1477.28 Q655.633 1480.82 659.244 1480.82 Q662.879 1480.82 664.684 1477.28 Q666.513 1473.71 666.513 1466.61 Q666.513 1459.48 664.684 1455.94 Q662.879 1452.37 659.244 1452.37 M659.244 1448.67 Q665.055 1448.67 668.11 1453.27 Q671.189 1457.86 671.189 1466.61 Q671.189 1475.33 668.11 1479.94 Q665.055 1484.52 659.244 1484.52 Q653.434 1484.52 650.356 1479.94 Q647.3 1475.33 647.3 1466.61 Q647.3 1457.86 650.356 1453.27 Q653.434 1448.67 659.244 1448.67 Z" fill="#000000" fill-rule="evenodd" fill-opacity="1" /><path clip-path="url(#clip330)" d="M 0 0 M1036.57 1479.92 L1052.89 1479.92 L1052.89 1483.85 L1030.95 1483.85 L1030.95 1479.92 Q1033.61 1477.16 1038.19 1472.53 Q1042.8 1467.88 1043.98 1466.54 Q1046.23 1464.01 1047.11 1462.28 Q1048.01 1460.52 1048.01 1458.83 Q1048.01 1456.07 1046.06 1454.34 Q1044.14 1452.6 1041.04 1452.6 Q1038.84 1452.6 1036.39 1453.37 Q1033.96 1454.13 1031.18 1455.68 L1031.18 1450.96 Q1034 1449.82 1036.46 1449.25 Q1038.91 1448.67 1040.95 1448.67 Q1046.32 1448.67 1049.51 1451.35 Q1052.71 1454.04 1052.71 1458.53 Q1052.71 1460.66 1051.9 1462.58 Q1051.11 1464.48 1049 1467.07 Q1048.43 1467.74 1045.32 1470.96 Q1042.22 1474.15 1036.57 1479.92 Z" fill="#000000" fill-rule="evenodd" fill-opacity="1" /><path clip-path="url(#clip330)" d="M 0 0 M1072.71 1452.37 Q1069.1 1452.37 1067.27 1455.94 Q1065.46 1459.48 1065.46 1466.61 Q1065.46 1473.71 1067.27 1477.28 Q1069.1 1480.82 1072.71 1480.82 Q1076.34 1480.82 1078.15 1477.28 Q1079.98 1473.71 1079.98 1466.61 Q1079.98 1459.48 1078.15 1455.94 Q1076.34 1452.37 1072.71 1452.37 M1072.71 1448.67 Q1078.52 1448.67 1081.57 1453.27 Q1084.65 1457.86 1084.65 1466.61 Q1084.65 1475.33 1081.57 1479.94 Q1078.52 1484.52 1072.71 1484.52 Q1066.9 1484.52 1063.82 1479.94 Q1060.76 1475.33 1060.76 1466.61 Q1060.76 1457.86 1063.82 1453.27 Q1066.9 1448.67 1072.71 1448.67 Z" fill="#000000" fill-rule="evenodd" fill-opacity="1" /><path clip-path="url(#clip330)" d="M 0 0 M1459.24 1465.22 Q1462.6 1465.94 1464.47 1468.2 Q1466.37 1470.47 1466.37 1473.81 Q1466.37 1478.92 1462.85 1481.72 Q1459.33 1484.52 1452.85 1484.52 Q1450.67 1484.52 1448.36 1484.08 Q1446.07 1483.67 1443.61 1482.81 L1443.61 1478.3 Q1445.56 1479.43 1447.87 1480.01 Q1450.19 1480.59 1452.71 1480.59 Q1457.11 1480.59 1459.4 1478.85 Q1461.72 1477.12 1461.72 1473.81 Q1461.72 1470.75 1459.56 1469.04 Q1457.43 1467.3 1453.61 1467.3 L1449.59 1467.3 L1449.59 1463.46 L1453.8 1463.46 Q1457.25 1463.46 1459.08 1462.09 Q1460.91 1460.7 1460.91 1458.11 Q1460.91 1455.45 1459.01 1454.04 Q1457.13 1452.6 1453.61 1452.6 Q1451.69 1452.6 1449.49 1453.02 Q1447.3 1453.44 1444.66 1454.31 L1444.66 1450.15 Q1447.32 1449.41 1449.63 1449.04 Q1451.97 1448.67 1454.03 1448.67 Q1459.36 1448.67 1462.46 1451.1 Q1465.56 1453.5 1465.56 1457.63 Q1465.56 1460.5 1463.92 1462.49 Q1462.27 1464.45 1459.24 1465.22 Z" fill="#000000" fill-rule="evenodd" fill-opacity="1" /><path clip-path="url(#clip330)" d="M 0 0 M1485.23 1452.37 Q1481.62 1452.37 1479.79 1455.94 Q1477.99 1459.48 1477.99 1466.61 Q1477.99 1473.71 1479.79 1477.28 Q1481.62 1480.82 1485.23 1480.82 Q1488.87 1480.82 1490.67 1477.28 Q1492.5 1473.71 1492.5 1466.61 Q1492.5 1459.48 1490.67 1455.94 Q1488.87 1452.37 1485.23 1452.37 M1485.23 1448.67 Q1491.04 1448.67 1494.1 1453.27 Q1497.18 1457.86 1497.18 1466.61 Q1497.18 1475.33 1494.1 1479.94 Q1491.04 1484.52 1485.23 1484.52 Q1479.42 1484.52 1476.35 1479.94 Q1473.29 1475.33 1473.29 1466.61 Q1473.29 1457.86 1476.35 1453.27 Q1479.42 1448.67 1485.23 1448.67 Z" fill="#000000" fill-rule="evenodd" fill-opacity="1" /><path clip-path="url(#clip330)" d="M 0 0 M1871.16 1453.37 L1859.36 1471.81 L1871.16 1471.81 L1871.16 1453.37 M1869.94 1449.29 L1875.82 1449.29 L1875.82 1471.81 L1880.75 1471.81 L1880.75 1475.7 L1875.82 1475.7 L1875.82 1483.85 L1871.16 1483.85 L1871.16 1475.7 L1855.56 1475.7 L1855.56 1471.19 L1869.94 1449.29 Z" fill="#000000" fill-rule="evenodd" fill-opacity="1" /><path clip-path="url(#clip330)" d="M 0 0 M1898.48 1452.37 Q1894.87 1452.37 1893.04 1455.94 Q1891.23 1459.48 1891.23 1466.61 Q1891.23 1473.71 1893.04 1477.28 Q1894.87 1480.82 1898.48 1480.82 Q1902.11 1480.82 1903.92 1477.28 Q1905.75 1473.71 1905.75 1466.61 Q1905.75 1459.48 1903.92 1455.94 Q1902.11 1452.37 1898.48 1452.37 M1898.48 1448.67 Q1904.29 1448.67 1907.34 1453.27 Q1910.42 1457.86 1910.42 1466.61 Q1910.42 1475.33 1907.34 1479.94 Q1904.29 1484.52 1898.48 1484.52 Q1892.67 1484.52 1889.59 1479.94 Q1886.53 1475.33 1886.53 1466.61 Q1886.53 1457.86 1889.59 1453.27 Q1892.67 1448.67 1898.48 1448.67 Z" fill="#000000" fill-rule="evenodd" fill-opacity="1" /><path clip-path="url(#clip330)" d="M 0 0 M2270.29 1449.29 L2288.64 1449.29 L2288.64 1453.23 L2274.57 1453.23 L2274.57 1461.7 Q2275.59 1461.35 2276.61 1461.19 Q2277.63 1461 2278.64 1461 Q2284.43 1461 2287.81 1464.18 Q2291.19 1467.35 2291.19 1472.76 Q2291.19 1478.34 2287.72 1481.44 Q2284.25 1484.52 2277.93 1484.52 Q2275.75 1484.52 2273.48 1484.15 Q2271.24 1483.78 2268.83 1483.04 L2268.83 1478.34 Q2270.91 1479.48 2273.13 1480.03 Q2275.36 1480.59 2277.83 1480.59 Q2281.84 1480.59 2284.18 1478.48 Q2286.51 1476.38 2286.51 1472.76 Q2286.51 1469.15 2284.18 1467.05 Q2281.84 1464.94 2277.83 1464.94 Q2275.96 1464.94 2274.08 1465.36 Q2272.23 1465.77 2270.29 1466.65 L2270.29 1449.29 Z" fill="#000000" fill-rule="evenodd" fill-opacity="1" /><path clip-path="url(#clip330)" d="M 0 0 M2310.4 1452.37 Q2306.79 1452.37 2304.96 1455.94 Q2303.16 1459.48 2303.16 1466.61 Q2303.16 1473.71 2304.96 1477.28 Q2306.79 1480.82 2310.4 1480.82 Q2314.04 1480.82 2315.84 1477.28 Q2317.67 1473.71 2317.67 1466.61 Q2317.67 1459.48 2315.84 1455.94 Q2314.04 1452.37 2310.4 1452.37 M2310.4 1448.67 Q2316.21 1448.67 2319.27 1453.27 Q2322.35 1457.86 2322.35 1466.61 Q2322.35 1475.33 2319.27 1479.94 Q2316.21 1484.52 2310.4 1484.52 Q2304.59 1484.52 2301.51 1479.94 Q2298.46 1475.33 2298.46 1466.61 Q2298.46 1457.86 2301.51 1453.27 Q2304.59 1448.67 2310.4 1448.67 Z" fill="#000000" fill-rule="evenodd" fill-opacity="1" /><path clip-path="url(#clip330)" d="M 0 0 M1021.92 1518.52 L1021.92 1523.39 L1016.31 1523.39 Q1013.16 1523.39 1011.92 1524.66 Q1010.71 1525.93 1010.71 1529.24 L1010.71 1532.4 L1020.36 1532.4 L1020.36 1536.95 L1010.71 1536.95 L1010.71 1568.04 L1004.82 1568.04 L1004.82 1536.95 L999.221 1536.95 L999.221 1532.4 L1004.82 1532.4 L1004.82 1529.91 Q1004.82 1523.96 1007.59 1521.26 Q1010.36 1518.52 1016.38 1518.52 L1021.92 1518.52 Z" fill="#000000" fill-rule="evenodd" fill-opacity="1" /><path clip-path="url(#clip330)" d="M 0 0 M1047.47 1537.87 Q1046.49 1537.3 1045.31 1537.04 Q1044.16 1536.76 1042.76 1536.76 Q1037.8 1536.76 1035.12 1540 Q1032.48 1543.22 1032.48 1549.27 L1032.48 1568.04 L1026.59 1568.04 L1026.59 1532.4 L1032.48 1532.4 L1032.48 1537.93 Q1034.33 1534.69 1037.29 1533.13 Q1040.25 1531.54 1044.48 1531.54 Q1045.09 1531.54 1045.82 1531.63 Q1046.55 1531.7 1047.44 1531.85 L1047.47 1537.87 Z" fill="#000000" fill-rule="evenodd" fill-opacity="1" /><path clip-path="url(#clip330)" d="M 0 0 M1082.68 1548.76 L1082.68 1551.62 L1055.75 1551.62 Q1056.13 1557.67 1059.38 1560.85 Q1062.66 1564 1068.48 1564 Q1071.85 1564 1075.01 1563.17 Q1078.19 1562.35 1081.31 1560.69 L1081.31 1566.23 Q1078.16 1567.57 1074.85 1568.27 Q1071.54 1568.97 1068.13 1568.97 Q1059.6 1568.97 1054.6 1564 Q1049.64 1559.04 1049.64 1550.57 Q1049.64 1541.82 1054.35 1536.69 Q1059.09 1531.54 1067.11 1531.54 Q1074.3 1531.54 1078.47 1536.18 Q1082.68 1540.8 1082.68 1548.76 M1076.82 1547.04 Q1076.76 1542.23 1074.11 1539.37 Q1071.5 1536.5 1067.18 1536.5 Q1062.27 1536.5 1059.31 1539.27 Q1056.39 1542.04 1055.94 1547.07 L1076.82 1547.04 Z" fill="#000000" fill-rule="evenodd" fill-opacity="1" /><path clip-path="url(#clip330)" d="M 0 0 M1095.79 1550.25 Q1095.79 1556.71 1098.43 1560.4 Q1101.1 1564.07 1105.75 1564.07 Q1110.4 1564.07 1113.07 1560.4 Q1115.75 1556.71 1115.75 1550.25 Q1115.75 1543.79 1113.07 1540.13 Q1110.4 1536.44 1105.75 1536.44 Q1101.1 1536.44 1098.43 1540.13 Q1095.79 1543.79 1095.79 1550.25 M1115.75 1562.7 Q1113.9 1565.88 1111.07 1567.44 Q1108.27 1568.97 1104.32 1568.97 Q1097.86 1568.97 1093.78 1563.81 Q1089.74 1558.65 1089.74 1550.25 Q1089.74 1541.85 1093.78 1536.69 Q1097.86 1531.54 1104.32 1531.54 Q1108.27 1531.54 1111.07 1533.1 Q1113.9 1534.62 1115.75 1537.81 L1115.75 1532.4 L1121.6 1532.4 L1121.6 1581.6 L1115.75 1581.6 L1115.75 1562.7 Z" fill="#000000" fill-rule="evenodd" fill-opacity="1" /><path clip-path="url(#clip330)" d="M 0 0 M1133.06 1553.98 L1133.06 1532.4 L1138.92 1532.4 L1138.92 1553.75 Q1138.92 1558.81 1140.89 1561.36 Q1142.86 1563.87 1146.81 1563.87 Q1151.55 1563.87 1154.29 1560.85 Q1157.06 1557.83 1157.06 1552.61 L1157.06 1532.4 L1162.92 1532.4 L1162.92 1568.04 L1157.06 1568.04 L1157.06 1562.57 Q1154.93 1565.82 1152.09 1567.41 Q1149.29 1568.97 1145.57 1568.97 Q1139.43 1568.97 1136.24 1565.15 Q1133.06 1561.33 1133.06 1553.98 M1147.8 1531.54 L1147.8 1531.54 Z" fill="#000000" fill-rule="evenodd" fill-opacity="1" /><path clip-path="url(#clip330)" d="M 0 0 M1205.47 1548.76 L1205.47 1551.62 L1178.54 1551.62 Q1178.93 1557.67 1182.17 1560.85 Q1185.45 1564 1191.27 1564 Q1194.65 1564 1197.8 1563.17 Q1200.98 1562.35 1204.1 1560.69 L1204.1 1566.23 Q1200.95 1567.57 1197.64 1568.27 Q1194.33 1568.97 1190.92 1568.97 Q1182.39 1568.97 1177.4 1564 Q1172.43 1559.04 1172.43 1550.57 Q1172.43 1541.82 1177.14 1536.69 Q1181.89 1531.54 1189.91 1531.54 Q1197.1 1531.54 1201.27 1536.18 Q1205.47 1540.8 1205.47 1548.76 M1199.61 1547.04 Q1199.55 1542.23 1196.91 1539.37 Q1194.3 1536.5 1189.97 1536.5 Q1185.07 1536.5 1182.11 1539.27 Q1179.18 1542.04 1178.73 1547.07 L1199.61 1547.04 Z" fill="#000000" fill-rule="evenodd" fill-opacity="1" /><path clip-path="url(#clip330)" d="M 0 0 M1244.71 1546.53 L1244.71 1568.04 L1238.86 1568.04 L1238.86 1546.72 Q1238.86 1541.66 1236.88 1539.14 Q1234.91 1536.63 1230.96 1536.63 Q1226.22 1536.63 1223.49 1539.65 Q1220.75 1542.68 1220.75 1547.9 L1220.75 1568.04 L1214.86 1568.04 L1214.86 1532.4 L1220.75 1532.4 L1220.75 1537.93 Q1222.85 1534.72 1225.68 1533.13 Q1228.55 1531.54 1232.27 1531.54 Q1238.41 1531.54 1241.56 1535.36 Q1244.71 1539.14 1244.71 1546.53 Z" fill="#000000" fill-rule="evenodd" fill-opacity="1" /><path clip-path="url(#clip330)" d="M 0 0 M1282.05 1533.76 L1282.05 1539.24 Q1279.57 1537.87 1277.05 1537.2 Q1274.57 1536.5 1272.02 1536.5 Q1266.33 1536.5 1263.18 1540.13 Q1260.02 1543.73 1260.02 1550.25 Q1260.02 1556.78 1263.18 1560.4 Q1266.33 1564 1272.02 1564 Q1274.57 1564 1277.05 1563.33 Q1279.57 1562.63 1282.05 1561.26 L1282.05 1566.68 Q1279.6 1567.82 1276.96 1568.39 Q1274.35 1568.97 1271.39 1568.97 Q1263.33 1568.97 1258.59 1563.91 Q1253.85 1558.85 1253.85 1550.25 Q1253.85 1541.53 1258.62 1536.53 Q1263.43 1531.54 1271.77 1531.54 Q1274.47 1531.54 1277.05 1532.11 Q1279.63 1532.65 1282.05 1533.76 Z" fill="#000000" fill-rule="evenodd" fill-opacity="1" /><path clip-path="url(#clip330)" d="M 0 0 M1307.07 1571.35 Q1304.58 1577.72 1302.23 1579.66 Q1299.87 1581.6 1295.93 1581.6 L1291.25 1581.6 L1291.25 1576.7 L1294.69 1576.7 Q1297.1 1576.7 1298.44 1575.56 Q1299.78 1574.41 1301.4 1570.14 L1302.45 1567.47 L1288.03 1532.4 L1294.24 1532.4 L1305.38 1560.28 L1316.52 1532.4 L1322.73 1532.4 L1307.07 1571.35 Z" fill="#000000" fill-rule="evenodd" fill-opacity="1" /><path clip-path="url(#clip330)" d="M 0 0 M1365.6 1518.58 Q1361.33 1525.9 1359.27 1533.06 Q1357.2 1540.23 1357.2 1547.58 Q1357.2 1554.93 1359.27 1562.16 Q1361.37 1569.35 1365.6 1576.64 L1360.51 1576.64 Q1355.73 1569.16 1353.35 1561.93 Q1350.99 1554.71 1350.99 1547.58 Q1350.99 1540.48 1353.35 1533.29 Q1355.7 1526.09 1360.51 1518.58 L1365.6 1518.58 Z" fill="#000000" fill-rule="evenodd" fill-opacity="1" /><path clip-path="url(#clip330)" d="M 0 0 M1409.62 1561.26 L1409.62 1548.5 L1399.11 1548.5 L1399.11 1543.22 L1415.98 1543.22 L1415.98 1563.62 Q1412.26 1566.26 1407.77 1567.63 Q1403.28 1568.97 1398.19 1568.97 Q1387.05 1568.97 1380.75 1562.47 Q1374.48 1555.95 1374.48 1544.33 Q1374.48 1532.68 1380.75 1526.19 Q1387.05 1519.66 1398.19 1519.66 Q1402.84 1519.66 1407.01 1520.81 Q1411.21 1521.96 1414.74 1524.18 L1414.74 1531.03 Q1411.18 1528 1407.17 1526.48 Q1403.16 1524.95 1398.73 1524.95 Q1390.01 1524.95 1385.62 1529.82 Q1381.26 1534.69 1381.26 1544.33 Q1381.26 1553.94 1385.62 1558.81 Q1390.01 1563.68 1398.73 1563.68 Q1402.14 1563.68 1404.81 1563.11 Q1407.49 1562.51 1409.62 1561.26 Z" fill="#000000" fill-rule="evenodd" fill-opacity="1" /><path clip-path="url(#clip330)" d="M 0 0 M1427.73 1520.52 L1434.16 1520.52 L1434.16 1540 L1457.52 1540 L1457.52 1520.52 L1463.95 1520.52 L1463.95 1568.04 L1457.52 1568.04 L1457.52 1545.41 L1434.16 1545.41 L1434.16 1568.04 L1427.73 1568.04 L1427.73 1520.52 Z" fill="#000000" fill-rule="evenodd" fill-opacity="1" /><path clip-path="url(#clip330)" d="M 0 0 M1473.94 1532.4 L1501.76 1532.4 L1501.76 1537.74 L1479.74 1563.37 L1501.76 1563.37 L1501.76 1568.04 L1473.15 1568.04 L1473.15 1562.7 L1495.17 1537.07 L1473.94 1537.07 L1473.94 1532.4 Z" fill="#000000" fill-rule="evenodd" fill-opacity="1" /><path clip-path="url(#clip330)" d="M 0 0 M1509.78 1518.58 L1514.88 1518.58 Q1519.65 1526.09 1522 1533.29 Q1524.39 1540.48 1524.39 1547.58 Q1524.39 1554.71 1522 1561.93 Q1519.65 1569.16 1514.88 1576.64 L1509.78 1576.64 Q1514.02 1569.35 1516.08 1562.16 Q1518.19 1554.93 1518.19 1547.58 Q1518.19 1540.23 1516.08 1533.06 Q1514.02 1525.9 1509.78 1518.58 Z" fill="#000000" fill-rule="evenodd" fill-opacity="1" /><polyline clip-path="url(#clip333)" style="stroke:#000000; stroke-width:2; stroke-opacity:0.1; fill:none" points="
  170.857,1388.64 2352.76,1388.64 
  "/>
<polyline clip-path="url(#clip333)" style="stroke:#000000; stroke-width:2; stroke-opacity:0.1; fill:none" points="
  170.857,1056.46 2352.76,1056.46 
  "/>
<polyline clip-path="url(#clip333)" style="stroke:#000000; stroke-width:2; stroke-opacity:0.1; fill:none" points="
  170.857,724.288 2352.76,724.288 
  "/>
<polyline clip-path="url(#clip333)" style="stroke:#000000; stroke-width:2; stroke-opacity:0.1; fill:none" points="
  170.857,392.114 2352.76,392.114 
  "/>
<polyline clip-path="url(#clip330)" style="stroke:#000000; stroke-width:4; stroke-opacity:1; fill:none" points="
  170.857,1423.18 170.857,202.606 
  "/>
<polyline clip-path="url(#clip330)" style="stroke:#000000; stroke-width:4; stroke-opacity:1; fill:none" points="
  170.857,1388.64 197.04,1388.64 
  "/>
<polyline clip-path="url(#clip330)" style="stroke:#000000; stroke-width:4; stroke-opacity:1; fill:none" points="
  170.857,1056.46 197.04,1056.46 
  "/>
<polyline clip-path="url(#clip330)" style="stroke:#000000; stroke-width:4; stroke-opacity:1; fill:none" points="
  170.857,724.288 197.04,724.288 
  "/>
<polyline clip-path="url(#clip330)" style="stroke:#000000; stroke-width:4; stroke-opacity:1; fill:none" points="
  170.857,392.114 197.04,392.114 
  "/>
<path clip-path="url(#clip330)" d="M 0 0 M122.913 1374.43 Q119.302 1374.43 117.473 1378 Q115.668 1381.54 115.668 1388.67 Q115.668 1395.78 117.473 1399.34 Q119.302 1402.88 122.913 1402.88 Q126.547 1402.88 128.353 1399.34 Q130.182 1395.78 130.182 1388.67 Q130.182 1381.54 128.353 1378 Q126.547 1374.43 122.913 1374.43 M122.913 1370.73 Q128.723 1370.73 131.779 1375.34 Q134.857 1379.92 134.857 1388.67 Q134.857 1397.4 131.779 1402 Q128.723 1406.59 122.913 1406.59 Q117.103 1406.59 114.024 1402 Q110.969 1397.4 110.969 1388.67 Q110.969 1379.92 114.024 1375.34 Q117.103 1370.73 122.913 1370.73 Z" fill="#000000" fill-rule="evenodd" fill-opacity="1" /><path clip-path="url(#clip330)" d="M 0 0 M53.3995 1069.81 L61.0384 1069.81 L61.0384 1043.44 L52.7282 1045.11 L52.7282 1040.85 L60.9921 1039.18 L65.668 1039.18 L65.668 1069.81 L73.3068 1069.81 L73.3068 1073.74 L53.3995 1073.74 L53.3995 1069.81 Z" fill="#000000" fill-rule="evenodd" fill-opacity="1" /><path clip-path="url(#clip330)" d="M 0 0 M92.7512 1042.26 Q89.1401 1042.26 87.3114 1045.83 Q85.5058 1049.37 85.5058 1056.5 Q85.5058 1063.6 87.3114 1067.17 Q89.1401 1070.71 92.7512 1070.71 Q96.3854 1070.71 98.1909 1067.17 Q100.02 1063.6 100.02 1056.5 Q100.02 1049.37 98.1909 1045.83 Q96.3854 1042.26 92.7512 1042.26 M92.7512 1038.56 Q98.5613 1038.56 101.617 1043.16 Q104.696 1047.75 104.696 1056.5 Q104.696 1065.22 101.617 1069.83 Q98.5613 1074.41 92.7512 1074.41 Q86.941 1074.41 83.8623 1069.83 Q80.8068 1065.22 80.8068 1056.5 Q80.8068 1047.75 83.8623 1043.16 Q86.941 1038.56 92.7512 1038.56 Z" fill="#000000" fill-rule="evenodd" fill-opacity="1" /><path clip-path="url(#clip330)" d="M 0 0 M122.913 1042.26 Q119.302 1042.26 117.473 1045.83 Q115.668 1049.37 115.668 1056.5 Q115.668 1063.6 117.473 1067.17 Q119.302 1070.71 122.913 1070.71 Q126.547 1070.71 128.353 1067.17 Q130.182 1063.6 130.182 1056.5 Q130.182 1049.37 128.353 1045.83 Q126.547 1042.26 122.913 1042.26 M122.913 1038.56 Q128.723 1038.56 131.779 1043.16 Q134.857 1047.75 134.857 1056.5 Q134.857 1065.22 131.779 1069.83 Q128.723 1074.41 122.913 1074.41 Q117.103 1074.41 114.024 1069.83 Q110.969 1065.22 110.969 1056.5 Q110.969 1047.75 114.024 1043.16 Q117.103 1038.56 122.913 1038.56 Z" fill="#000000" fill-rule="evenodd" fill-opacity="1" /><path clip-path="url(#clip330)" d="M 0 0 M56.6171 737.633 L72.9365 737.633 L72.9365 741.568 L50.9921 741.568 L50.9921 737.633 Q53.6541 734.878 58.2375 730.249 Q62.8439 725.596 64.0245 724.253 Q66.2698 721.73 67.1494 719.994 Q68.0522 718.235 68.0522 716.545 Q68.0522 713.79 66.1078 712.054 Q64.1865 710.318 61.0847 710.318 Q58.8856 710.318 56.4319 711.082 Q54.0014 711.846 51.2236 713.397 L51.2236 708.675 Q54.0477 707.54 56.5014 706.962 Q58.955 706.383 60.9921 706.383 Q66.3624 706.383 69.5568 709.068 Q72.7513 711.753 72.7513 716.244 Q72.7513 718.374 71.9411 720.295 Q71.1541 722.193 69.0476 724.786 Q68.4689 725.457 65.367 728.674 Q62.2652 731.869 56.6171 737.633 Z" fill="#000000" fill-rule="evenodd" fill-opacity="1" /><path clip-path="url(#clip330)" d="M 0 0 M92.7512 710.087 Q89.1401 710.087 87.3114 713.651 Q85.5058 717.193 85.5058 724.323 Q85.5058 731.429 87.3114 734.994 Q89.1401 738.536 92.7512 738.536 Q96.3854 738.536 98.1909 734.994 Q100.02 731.429 100.02 724.323 Q100.02 717.193 98.1909 713.651 Q96.3854 710.087 92.7512 710.087 M92.7512 706.383 Q98.5613 706.383 101.617 710.989 Q104.696 715.573 104.696 724.323 Q104.696 733.049 101.617 737.656 Q98.5613 742.239 92.7512 742.239 Q86.941 742.239 83.8623 737.656 Q80.8068 733.049 80.8068 724.323 Q80.8068 715.573 83.8623 710.989 Q86.941 706.383 92.7512 706.383 Z" fill="#000000" fill-rule="evenodd" fill-opacity="1" /><path clip-path="url(#clip330)" d="M 0 0 M122.913 710.087 Q119.302 710.087 117.473 713.651 Q115.668 717.193 115.668 724.323 Q115.668 731.429 117.473 734.994 Q119.302 738.536 122.913 738.536 Q126.547 738.536 128.353 734.994 Q130.182 731.429 130.182 724.323 Q130.182 717.193 128.353 713.651 Q126.547 710.087 122.913 710.087 M122.913 706.383 Q128.723 706.383 131.779 710.989 Q134.857 715.573 134.857 724.323 Q134.857 733.049 131.779 737.656 Q128.723 742.239 122.913 742.239 Q117.103 742.239 114.024 737.656 Q110.969 733.049 110.969 724.323 Q110.969 715.573 114.024 710.989 Q117.103 706.383 122.913 706.383 Z" fill="#000000" fill-rule="evenodd" fill-opacity="1" /><path clip-path="url(#clip330)" d="M 0 0 M66.7559 390.76 Q70.1124 391.478 71.9874 393.746 Q73.8855 396.015 73.8855 399.348 Q73.8855 404.464 70.367 407.265 Q66.8485 410.065 60.3671 410.065 Q58.1912 410.065 55.8764 409.626 Q53.5847 409.209 51.131 408.353 L51.131 403.839 Q53.0754 404.973 55.3903 405.552 Q57.7051 406.13 60.2282 406.13 Q64.6263 406.13 66.918 404.394 Q69.2328 402.658 69.2328 399.348 Q69.2328 396.292 67.08 394.579 Q64.9504 392.843 61.131 392.843 L57.1032 392.843 L57.1032 389.001 L61.3161 389.001 Q64.7652 389.001 66.5939 387.635 Q68.4226 386.246 68.4226 383.654 Q68.4226 380.992 66.5245 379.58 Q64.6495 378.144 61.131 378.144 Q59.2097 378.144 57.0106 378.561 Q54.8115 378.978 52.1727 379.857 L52.1727 375.691 Q54.8347 374.95 57.1495 374.58 Q59.4875 374.209 61.5476 374.209 Q66.8717 374.209 69.9735 376.64 Q73.0753 379.047 73.0753 383.167 Q73.0753 386.038 71.4318 388.029 Q69.7883 389.996 66.7559 390.76 Z" fill="#000000" fill-rule="evenodd" fill-opacity="1" /><path clip-path="url(#clip330)" d="M 0 0 M92.7512 377.913 Q89.1401 377.913 87.3114 381.478 Q85.5058 385.019 85.5058 392.149 Q85.5058 399.255 87.3114 402.82 Q89.1401 406.362 92.7512 406.362 Q96.3854 406.362 98.1909 402.82 Q100.02 399.255 100.02 392.149 Q100.02 385.019 98.1909 381.478 Q96.3854 377.913 92.7512 377.913 M92.7512 374.209 Q98.5613 374.209 101.617 378.816 Q104.696 383.399 104.696 392.149 Q104.696 400.876 101.617 405.482 Q98.5613 410.065 92.7512 410.065 Q86.941 410.065 83.8623 405.482 Q80.8068 400.876 80.8068 392.149 Q80.8068 383.399 83.8623 378.816 Q86.941 374.209 92.7512 374.209 Z" fill="#000000" fill-rule="evenodd" fill-opacity="1" /><path clip-path="url(#clip330)" d="M 0 0 M122.913 377.913 Q119.302 377.913 117.473 381.478 Q115.668 385.019 115.668 392.149 Q115.668 399.255 117.473 402.82 Q119.302 406.362 122.913 406.362 Q126.547 406.362 128.353 402.82 Q130.182 399.255 130.182 392.149 Q130.182 385.019 128.353 381.478 Q126.547 377.913 122.913 377.913 M122.913 374.209 Q128.723 374.209 131.779 378.816 Q134.857 383.399 134.857 392.149 Q134.857 400.876 131.779 405.482 Q128.723 410.065 122.913 410.065 Q117.103 410.065 114.024 405.482 Q110.969 400.876 110.969 392.149 Q110.969 383.399 114.024 378.816 Q117.103 374.209 122.913 374.209 Z" fill="#000000" fill-rule="evenodd" fill-opacity="1" /><path clip-path="url(#clip330)" d="M 0 0 M1190.29 150.994 L1183.08 171.898 L1113.48 171.898 Q1112.53 171.898 1112.16 171.857 Q1111.8 171.816 1111.51 171.611 Q1111.22 171.406 1111.22 170.955 Q1111.22 170.586 1111.96 169.644 L1141.76 132.794 L1111.14 90.6574 Q1111.14 88.7309 1111.47 88.362 Q1111.8 87.9521 1113.48 87.9521 L1183.08 87.9521 L1190.29 107.586 L1188.2 107.586 Q1187.26 105.045 1185.74 102.913 Q1184.26 100.741 1182.54 99.1832 Q1180.86 97.6256 1178.65 96.3959 Q1176.48 95.1252 1174.43 94.3464 Q1172.42 93.5267 1169.92 92.9528 Q1167.42 92.338 1165.41 92.051 Q1163.44 91.7231 1160.98 91.5592 Q1158.52 91.3952 1156.97 91.3542 Q1155.41 91.3132 1153.44 91.3132 L1120.2 91.3132 L1147.46 128.736 Q1148.07 129.679 1148.07 129.925 Q1148.07 130.294 1147.29 131.278 L1118.19 167.266 L1153.85 167.266 Q1165.33 167.266 1173.32 164.848 Q1178.73 163.003 1182.67 159.355 Q1186.64 155.707 1188.2 150.994 L1190.29 150.994 Z" fill="#000000" fill-rule="evenodd" fill-opacity="1" /><path clip-path="url(#clip330)" d="M 0 0 M1097.14 192.981 Q1097.14 194.243 1096.11 195.19 Q1095.1 196.108 1094.01 196.108 Q1093.01 196.108 1092.38 195.505 Q1091.77 194.874 1091.77 193.985 Q1091.77 192.808 1092.78 191.833 Q1093.78 190.857 1094.96 190.857 Q1095.93 190.857 1096.54 191.46 Q1097.14 192.062 1097.14 192.981 M1097.66 221.3 Q1097.66 221.53 1097.4 222.448 Q1097.14 223.337 1096.51 224.714 Q1095.9 226.063 1095.07 227.325 Q1094.24 228.588 1092.86 229.477 Q1091.51 230.367 1089.97 230.367 Q1087.87 230.367 1086.49 228.99 Q1085.15 227.612 1085.15 225.547 Q1085.15 224.428 1086.49 220.841 Q1090.4 210.397 1090.54 209.967 Q1091.2 208.331 1091.2 206.896 Q1091.2 206.236 1091.06 205.835 Q1090.91 205.404 1090.63 205.261 Q1090.34 205.089 1090.17 205.06 Q1090.02 205.031 1089.74 205.031 Q1088.04 205.031 1086.46 206.753 Q1084.89 208.475 1083.8 212.319 Q1083.57 213.037 1083.42 213.209 Q1083.28 213.381 1082.85 213.381 Q1082.13 213.352 1082.13 212.778 Q1082.13 212.606 1082.33 211.946 Q1082.53 211.258 1082.91 210.225 Q1083.28 209.163 1083.94 208.073 Q1084.6 206.954 1085.4 205.978 Q1086.24 205.003 1087.41 204.371 Q1088.59 203.74 1089.91 203.74 Q1092.06 203.74 1093.38 205.146 Q1094.73 206.523 1094.73 208.561 Q1094.73 209.68 1093.95 211.659 Q1093.01 214.242 1092.66 215.074 L1090.37 221.243 Q1089.54 223.481 1089.28 224.169 Q1089.05 224.829 1088.85 225.633 Q1088.67 226.407 1088.67 227.125 Q1088.67 228.129 1088.99 228.588 Q1089.33 229.047 1090.08 229.047 Q1092.15 229.047 1093.67 227.01 Q1095.19 224.944 1096.08 221.788 Q1096.11 221.702 1096.13 221.558 Q1096.36 220.841 1096.59 220.755 Q1096.71 220.726 1096.94 220.726 Q1097.66 220.726 1097.66 221.3 Z" fill="#000000" fill-rule="evenodd" fill-opacity="1" /><path clip-path="url(#clip330)" d="M 0 0 M1118.49 220.784 Q1118.55 220.066 1119.67 220.066 L1155.68 220.066 Q1157.37 220.066 1157.4 220.726 Q1157.4 221.444 1155.79 221.415 L1120.07 221.415 Q1118.49 221.444 1118.49 220.784 M1118.49 209.307 Q1118.49 208.589 1119.73 208.618 L1155.62 208.618 Q1157.37 208.618 1157.4 209.307 Q1157.4 209.967 1155.91 209.967 L1119.67 209.967 Q1118.49 209.967 1118.49 209.307 Z" fill="#000000" fill-rule="evenodd" fill-opacity="1" /><path clip-path="url(#clip330)" d="M 0 0 M1180.05 196.165 L1180.05 194.329 Q1187.11 194.329 1190.75 190.57 Q1191.76 190.57 1191.93 190.8 Q1192.1 191.029 1192.1 192.091 L1192.1 225.059 Q1192.1 226.809 1192.96 227.354 Q1193.82 227.899 1197.58 227.899 L1199.45 227.899 L1199.45 229.707 Q1197.38 229.535 1189.92 229.535 Q1182.46 229.535 1180.42 229.707 L1180.42 227.899 L1182.29 227.899 Q1185.99 227.899 1186.88 227.383 Q1187.77 226.838 1187.77 225.059 L1187.77 194.616 Q1184.7 196.165 1180.05 196.165 Z" fill="#000000" fill-rule="evenodd" fill-opacity="1" /><path clip-path="url(#clip330)" d="M 0 0 M1116.55 59.639 Q1116.55 58.5774 1116.63 58.2617 Q1116.75 57.9461 1117.21 57.4584 L1128.48 44.891 Q1134.65 37.9475 1134.65 31.8933 Q1134.65 27.9625 1132.58 25.1506 Q1130.55 22.3387 1126.79 22.3387 Q1124.21 22.3387 1122.03 23.9168 Q1119.84 25.4949 1118.84 28.3068 Q1119.01 28.2494 1119.62 28.2494 Q1121.08 28.2494 1121.88 29.1676 Q1122.71 30.0857 1122.71 31.3195 Q1122.71 32.8976 1121.68 33.6723 Q1120.68 34.4183 1119.67 34.4183 Q1119.27 34.4183 1118.73 34.3322 Q1118.21 34.2461 1117.38 33.4427 Q1116.55 32.6107 1116.55 31.1473 Q1116.55 27.0443 1119.64 23.7734 Q1122.77 20.5024 1127.53 20.5024 Q1132.93 20.5024 1136.46 23.716 Q1140.02 26.9008 1140.02 31.8933 Q1140.02 33.6436 1139.47 35.2504 Q1138.95 36.8285 1138.24 38.0622 Q1137.55 39.296 1135.65 41.2758 Q1133.76 43.2556 1132.24 44.6615 Q1130.72 46.0674 1127.3 49.0515 L1121.08 55.1056 L1131.67 55.1056 Q1136.83 55.1056 1137.23 54.6465 Q1137.81 53.8144 1138.52 49.4245 L1140.02 49.4245 L1138.35 59.639 L1116.55 59.639 Z" fill="#000000" fill-rule="evenodd" fill-opacity="1" /><path clip-path="url(#clip330)" d="M 0 0 M1145.64 40.8454 Q1145.64 32.209 1147.82 27.5034 Q1150.86 20.5024 1158.03 20.5024 Q1159.55 20.5024 1161.13 20.9328 Q1162.74 21.3345 1164.75 22.9126 Q1166.79 24.4907 1168.02 27.073 Q1170.37 32.0655 1170.37 40.8454 Q1170.37 49.4245 1168.19 54.1013 Q1165.01 60.9301 1157.98 60.9301 Q1155.34 60.9301 1152.64 59.5816 Q1149.97 58.2331 1148.28 54.9908 Q1145.64 50.1418 1145.64 40.8454 M1150.52 40.1281 Q1150.52 48.9941 1151.15 52.5232 Q1151.87 56.3393 1153.82 58.0035 Q1155.8 59.639 1157.98 59.639 Q1160.33 59.639 1162.28 57.8887 Q1164.26 56.1098 1164.86 52.2937 Q1165.52 48.535 1165.49 40.1281 Q1165.49 31.9507 1164.92 28.6798 Q1164.15 24.8637 1162.08 23.343 Q1160.04 21.7936 1157.98 21.7936 Q1157.2 21.7936 1156.37 22.0231 Q1155.57 22.2527 1154.39 22.9126 Q1153.21 23.5725 1152.3 25.208 Q1151.41 26.8435 1150.98 29.311 Q1150.52 32.4959 1150.52 40.1281 Z" fill="#000000" fill-rule="evenodd" fill-opacity="1" /><path clip-path="url(#clip330)" d="M 0 0 M1264.84 103.718 L1264.12 104.895 Q1259.68 102.972 1254.14 99.902 Q1248.6 102.972 1244.15 104.895 L1243.47 103.718 Q1248.32 99.5003 1254.14 96.2581 Q1260.02 99.529 1264.84 103.718 Z" fill="#000000" fill-rule="evenodd" fill-opacity="1" /><path clip-path="url(#clip330)" d="M 0 0 M1267.6 117.751 Q1267.6 117.792 1267.35 119.268 L1258 156.527 Q1257.51 158.495 1256.12 160.462 Q1254.77 162.471 1252.59 164.192 Q1250.46 165.955 1247.18 167.02 Q1243.94 168.127 1240.21 168.127 Q1234.27 168.127 1231.65 166.856 Q1229.07 165.627 1229.07 163.003 Q1229.07 160.708 1230.5 159.396 Q1231.93 158.126 1233.57 158.126 Q1235.13 158.126 1235.95 159.028 Q1236.77 159.929 1236.77 161.077 Q1236.77 162.348 1235.91 163.618 Q1235.05 164.93 1233.33 165.422 Q1236.07 166.283 1240.05 166.283 Q1248.45 166.283 1252.06 157.388 Q1252.14 157.265 1252.14 157.224 L1254.93 146.116 L1254.81 146.034 Q1254.11 146.854 1253 147.796 Q1251.94 148.698 1249.64 149.805 Q1247.35 150.912 1245.09 150.912 Q1240.38 150.912 1237.14 147.305 Q1233.94 143.657 1233.94 137.631 Q1233.94 133.245 1235.71 128.859 Q1237.51 124.433 1240.3 121.194 Q1243.12 117.915 1246.73 115.866 Q1250.38 113.816 1253.9 113.816 Q1256.36 113.816 1258.45 115.292 Q1260.55 116.727 1261.69 119.104 Q1261.9 117.136 1263 116.317 Q1264.15 115.497 1265.14 115.497 Q1266.24 115.497 1266.9 116.112 Q1267.6 116.686 1267.6 117.751 M1260.71 122.875 Q1260.71 122.629 1260.55 121.973 Q1260.38 121.276 1259.89 120.17 Q1259.44 119.063 1258.74 118.079 Q1258.04 117.095 1256.77 116.399 Q1255.54 115.661 1253.99 115.661 Q1251.45 115.661 1248.9 117.792 Q1246.36 119.883 1244.6 123.121 Q1242.96 126.236 1241.4 132.262 Q1239.89 138.287 1239.89 141.361 Q1239.89 144.394 1241.2 146.731 Q1242.51 149.067 1245.34 149.067 Q1248.62 149.067 1252.14 146.034 Q1255.79 142.878 1256.41 140.172 L1260.46 124.146 Q1260.71 123.162 1260.71 122.875 Z" fill="#000000" fill-rule="evenodd" fill-opacity="1" /><path clip-path="url(#clip330)" d="M 0 0 M1293.37 154.248 Q1293.37 155.511 1292.33 156.458 Q1291.33 157.376 1290.24 157.376 Q1289.23 157.376 1288.6 156.773 Q1288 156.142 1288 155.253 Q1288 154.076 1289 153.101 Q1290.01 152.125 1291.18 152.125 Q1292.16 152.125 1292.76 152.728 Q1293.37 153.33 1293.37 154.248 M1293.88 182.568 Q1293.88 182.797 1293.62 183.716 Q1293.37 184.605 1292.73 185.982 Q1292.13 187.331 1291.3 188.593 Q1290.47 189.856 1289.09 190.745 Q1287.74 191.635 1286.19 191.635 Q1284.1 191.635 1282.72 190.257 Q1281.37 188.88 1281.37 186.814 Q1281.37 185.695 1282.72 182.109 Q1286.62 171.665 1286.77 171.234 Q1287.43 169.599 1287.43 168.164 Q1287.43 167.504 1287.28 167.103 Q1287.14 166.672 1286.85 166.529 Q1286.56 166.357 1286.39 166.328 Q1286.25 166.299 1285.96 166.299 Q1284.27 166.299 1282.69 168.021 Q1281.11 169.742 1280.02 173.587 Q1279.79 174.304 1279.65 174.477 Q1279.51 174.649 1279.08 174.649 Q1278.36 174.62 1278.36 174.046 Q1278.36 173.874 1278.56 173.214 Q1278.76 172.525 1279.13 171.493 Q1279.51 170.431 1280.17 169.341 Q1280.83 168.222 1281.63 167.246 Q1282.46 166.271 1283.64 165.639 Q1284.81 165.008 1286.13 165.008 Q1288.29 165.008 1289.61 166.414 Q1290.95 167.791 1290.95 169.828 Q1290.95 170.947 1290.18 172.927 Q1289.23 175.51 1288.89 176.342 L1286.59 182.51 Q1285.76 184.748 1285.5 185.437 Q1285.27 186.097 1285.07 186.9 Q1284.9 187.675 1284.9 188.392 Q1284.9 189.397 1285.22 189.856 Q1285.56 190.315 1286.31 190.315 Q1288.37 190.315 1289.89 188.278 Q1291.41 186.212 1292.3 183.056 Q1292.33 182.97 1292.36 182.826 Q1292.59 182.109 1292.82 182.023 Q1292.93 181.994 1293.16 181.994 Q1293.88 181.994 1293.88 182.568 Z" fill="#000000" fill-rule="evenodd" fill-opacity="1" /><path clip-path="url(#clip330)" d="M 0 0 M1278.36 80.6055 Q1278.36 70.6779 1282.06 62.6726 Q1283.64 59.3156 1285.85 56.5038 Q1288.06 53.6919 1289.52 52.4581 Q1290.98 51.2243 1291.39 51.2243 Q1291.96 51.2243 1291.99 51.7982 Q1291.99 52.0851 1291.21 52.8024 Q1281.74 62.4431 1281.77 80.6055 Q1281.77 98.8252 1290.98 108.093 Q1291.99 109.097 1291.99 109.413 Q1291.99 109.987 1291.39 109.987 Q1290.98 109.987 1289.58 108.81 Q1288.17 107.634 1285.99 104.937 Q1283.81 102.24 1282.23 98.94 Q1278.36 90.9348 1278.36 80.6055 Z" fill="#000000" fill-rule="evenodd" fill-opacity="1" /><path clip-path="url(#clip330)" d="M 0 0 M1300.92 95.296 Q1300.92 94.2344 1301 93.9188 Q1301.12 93.6032 1301.58 93.1154 L1312.85 80.5481 Q1319.02 73.6045 1319.02 67.5504 Q1319.02 63.6195 1316.96 60.8076 Q1314.92 57.9958 1311.16 57.9958 Q1308.58 57.9958 1306.4 59.5739 Q1304.22 61.1519 1303.21 63.9638 Q1303.39 63.9064 1303.99 63.9064 Q1305.45 63.9064 1306.25 64.8246 Q1307.09 65.7427 1307.09 66.9765 Q1307.09 68.5546 1306.05 69.3293 Q1305.05 70.0753 1304.05 70.0753 Q1303.64 70.0753 1303.1 69.9892 Q1302.58 69.9032 1301.75 69.0998 Q1300.92 68.2677 1300.92 66.8044 Q1300.92 62.7013 1304.02 59.4304 Q1307.14 56.1595 1311.91 56.1595 Q1317.3 56.1595 1320.83 59.373 Q1324.39 62.5579 1324.39 67.5504 Q1324.39 69.3006 1323.84 70.9074 Q1323.33 72.4855 1322.61 73.7193 Q1321.92 74.953 1320.03 76.9328 Q1318.13 78.9126 1316.61 80.3185 Q1315.09 81.7245 1311.68 84.7085 L1305.45 90.7626 L1316.04 90.7626 Q1321.2 90.7626 1321.61 90.3035 Q1322.18 89.4714 1322.9 85.0815 L1324.39 85.0815 L1322.72 95.296 L1300.92 95.296 Z" fill="#000000" fill-rule="evenodd" fill-opacity="1" /><path clip-path="url(#clip330)" d="M 0 0 M1330.01 109.413 Q1330.01 109.126 1330.76 108.408 Q1340.23 98.7678 1340.23 80.6055 Q1340.23 62.3857 1331.13 53.1754 Q1330.01 52.1138 1330.01 51.7982 Q1330.01 51.2243 1330.59 51.2243 Q1330.99 51.2243 1332.39 52.4007 Q1333.83 53.5771 1335.98 56.2742 Q1338.16 58.9713 1339.77 62.271 Q1343.64 70.2762 1343.64 80.6055 Q1343.64 90.5331 1339.94 98.5383 Q1338.36 101.895 1336.15 104.707 Q1333.94 107.519 1332.48 108.753 Q1331.02 109.987 1330.59 109.987 Q1330.01 109.987 1330.01 109.413 Z" fill="#000000" fill-rule="evenodd" fill-opacity="1" /><path clip-path="url(#clip330)" d="M 0 0 M1361.53 129.925 Q1361.53 115.743 1366.82 104.307 Q1369.07 99.5111 1372.23 95.4941 Q1375.39 91.4772 1377.48 89.7146 Q1379.57 87.9521 1380.14 87.9521 Q1380.96 87.9521 1381 88.7719 Q1381 89.1818 1379.89 90.2065 Q1366.37 103.979 1366.41 129.925 Q1366.41 155.953 1379.57 169.193 Q1381 170.627 1381 171.078 Q1381 171.898 1380.14 171.898 Q1379.57 171.898 1377.56 170.218 Q1375.55 168.537 1372.43 164.684 Q1369.32 160.831 1367.06 156.117 Q1361.53 144.681 1361.53 129.925 Z" fill="#000000" fill-rule="evenodd" fill-opacity="1" /><path clip-path="url(#clip330)" d="M 0 0 M1433.27 116.071 Q1433.27 116.44 1432.94 117.71 Q1432.66 118.94 1431.71 121.358 Q1430.81 123.736 1429.42 126.4 Q1428.07 129.023 1425.57 132.343 Q1423.07 135.664 1419.95 138.574 Q1414.09 144.066 1407.82 147.018 Q1401.59 149.969 1396.26 150.912 L1395.07 150.912 Q1393.76 150.912 1393.76 149.887 L1394.66 146.116 L1399.78 125.58 Q1401.38 119.309 1401.38 118.776 Q1401.38 118.284 1401.18 118.038 Q1401.01 117.751 1400.03 117.546 Q1399.09 117.341 1397.2 117.341 Q1396.42 117.341 1396.05 117.3 Q1395.73 117.259 1395.44 117.054 Q1395.15 116.809 1395.15 116.317 Q1395.15 115.62 1395.44 115.251 Q1395.77 114.841 1396.01 114.759 Q1396.26 114.677 1396.75 114.636 Q1397.45 114.595 1399.78 114.39 Q1402.12 114.144 1404.13 113.98 Q1406.14 113.816 1407 113.816 Q1407.49 113.816 1407.78 114.062 Q1408.06 114.267 1408.06 114.513 L1408.1 114.718 L1399.87 148.124 Q1402.9 147.141 1405.89 145.501 Q1408.92 143.861 1412.2 141.156 Q1415.48 138.41 1418.27 135.008 Q1421.06 131.606 1423.52 126.851 Q1426.02 122.055 1427.57 116.563 Q1427.86 115.456 1428.56 114.8 Q1429.3 114.144 1429.83 113.98 Q1430.36 113.816 1430.85 113.816 Q1431.96 113.816 1432.62 114.431 Q1433.27 115.005 1433.27 116.071 Z" fill="#000000" fill-rule="evenodd" fill-opacity="1" /><path clip-path="url(#clip330)" d="M 0 0 M1434.79 171.078 Q1434.79 170.668 1435.86 169.644 Q1449.38 155.871 1449.38 129.925 Q1449.38 103.897 1436.39 90.7394 Q1434.79 89.2228 1434.79 88.7719 Q1434.79 87.9521 1435.61 87.9521 Q1436.19 87.9521 1438.19 89.6327 Q1440.24 91.3132 1443.32 95.1662 Q1446.43 99.0192 1448.73 103.733 Q1454.26 115.169 1454.26 129.925 Q1454.26 144.107 1448.98 155.543 Q1446.72 160.339 1443.56 164.356 Q1440.41 168.373 1438.32 170.136 Q1436.23 171.898 1435.61 171.898 Q1434.79 171.898 1434.79 171.078 Z" fill="#000000" fill-rule="evenodd" fill-opacity="1" /><polyline clip-path="url(#clip333)" style="stroke:#009af9; stroke-width:4; stroke-opacity:1; fill:none" points="
  232.609,1388.64 237.194,1268.03 241.778,1310.05 246.362,1329.5 250.947,1383.73 255.531,1262.78 260.116,1347.93 264.7,1306.35 269.284,1286.17 273.869,1288.08 
  278.453,1277.04 283.038,1350.04 287.622,1273.85 292.206,1330.34 296.791,1339.73 301.375,1341.24 305.96,1329.46 310.544,1362.23 315.128,1292.37 319.713,1356.24 
  324.297,1312.55 328.882,1302.52 333.466,1337.8 338.05,1304.59 342.635,1313.5 347.219,1289.59 351.804,1340.25 356.388,1354.32 360.972,1337.98 365.557,1358.63 
  370.141,1375.21 374.726,1375.42 379.31,1328.07 383.894,1297.2 388.479,1345.01 393.063,1322.78 397.648,237.151 402.232,1343.12 406.816,1364.64 411.401,1325.31 
  415.985,1356.19 420.57,1324.33 425.154,1324.21 429.738,1325.87 434.323,1313.89 438.907,1322.85 443.492,1338.86 448.076,1372.79 452.66,1371.14 457.245,1355.96 
  461.829,1383.56 466.414,1325.34 470.998,1339.53 475.582,1371.87 480.167,1338.76 484.751,1336.35 489.336,1346.31 493.92,1359.54 498.504,1368.84 503.089,1332.02 
  507.673,1356.31 512.258,1299.07 516.842,1351.26 521.426,1324.58 526.011,1352.33 530.595,1316.91 535.18,1281.81 539.764,1335.64 544.348,1337.52 548.933,1273.12 
  553.517,1347.32 558.102,1338.54 562.686,1348.72 567.27,1375.26 571.855,1300.16 576.439,1302.38 581.024,1339.97 585.608,1358.79 590.192,1365.11 594.777,1325.39 
  599.361,1368.67 603.946,1315.67 608.53,1359.24 613.114,1358.32 617.699,1354.96 622.283,1304.75 626.868,1376.17 631.452,1293.89 636.036,1337.96 640.621,1357.21 
  645.205,1357.21 649.789,1354.84 654.374,1358.03 658.958,1362.71 663.543,1383.5 668.127,1361.02 672.711,1350.96 677.296,1355.12 681.88,1304.2 686.465,1321.83 
  691.049,1364.15 695.633,1341.35 700.218,1354.44 704.802,1291.33 709.387,1374.66 713.971,1364.4 718.555,1339.52 723.14,1378.96 727.724,1351.19 732.309,1347.72 
  736.893,1350.3 741.477,1325.82 746.062,1347.76 750.646,1292.24 755.231,1370.5 759.815,1374.46 764.399,1361.89 768.984,1328.41 773.568,1377.36 778.153,1345.9 
  782.737,1370.53 787.321,1299 791.906,1285.4 796.49,1321.41 801.075,1335.73 805.659,1336.37 810.243,1377.55 814.828,1379.17 819.412,1324.95 823.997,1357.13 
  828.581,1369.74 833.165,1338.45 837.75,1382.75 842.334,1375.8 846.919,1262.71 851.503,1332.94 856.087,1364.33 860.672,1345.28 865.256,1335.33 869.841,1376.7 
  874.425,1323.9 879.009,1346.91 883.594,1380.26 888.178,1324.7 892.763,1331.8 897.347,1322.32 901.931,1353.75 906.516,1376.91 911.1,1369.89 915.685,1368.82 
  920.269,1353.54 924.853,1338.87 929.438,1361.64 934.022,1365.78 938.607,1355.77 943.191,1364.3 947.775,1362.97 952.36,1339.3 956.944,1363.16 961.529,1383.45 
  966.113,1330.31 970.697,1339.58 975.282,1363.66 979.866,1379.1 984.451,1387.55 989.035,1357.53 993.619,1370.55 998.204,1352.93 1002.79,1343.04 1007.37,1371.84 
  1011.96,1364.62 1016.54,1370.35 1021.13,1364.37 1025.71,1351.48 1030.29,1375.25 1034.88,1379.27 1039.46,1361.74 1044.05,1373.73 1048.63,1328.23 1053.22,1343.32 
  1057.8,1373.82 1062.39,1344.71 1066.97,1382.1 1071.55,1365.38 1076.14,1361.85 1080.72,1383.14 1085.31,1327.83 1089.89,1335.98 1094.48,1368.82 1099.06,1362.37 
  1103.64,1372.7 1108.23,1372.21 1112.81,1376.35 1117.4,1359.52 1121.98,1369.04 1126.57,1345.68 1131.15,1381.4 1135.74,1350.6 1140.32,1377.82 1144.9,1366.32 
  1149.49,1357.01 1154.07,1381.75 1158.66,1376.68 1163.24,1347 1167.83,1364.99 1172.41,1372.5 1177,1358.24 1181.58,1359.39 1186.16,1361.52 1190.75,1382.57 
  1195.33,1372.46 1199.92,1362.66 1204.5,1362.07 1209.09,1385.25 1213.67,1373.74 1218.25,1369.62 1222.84,1373.75 1227.42,1370.77 1232.01,1373.57 1236.59,1377.5 
  1241.18,1380.48 1245.76,1375.21 1250.35,1369.65 1254.93,1371.41 1259.51,1376.72 1264.1,1372.45 1268.68,1352.69 1273.27,1359.72 1277.85,1368.08 1282.44,1369.18 
  1287.02,1363.19 1291.61,1343.3 1296.19,1381.57 1300.77,1374.58 1305.36,1377.6 1309.94,1383.7 1314.53,1359.87 1319.11,1384.19 1323.7,1380 1328.28,1374.5 
  1332.86,1355.89 1337.45,1378.74 1342.03,1374.98 1346.62,1367.58 1351.2,1337.21 1355.79,1374.57 1360.37,1375.36 1364.96,1355.37 1369.54,1374.17 1374.12,1373.46 
  1378.71,1381.91 1383.29,1369.41 1387.88,1351.77 1392.46,1356.34 1397.05,1364.69 1401.63,1352.28 1406.22,1374.06 1410.8,1380.96 1415.38,1381.56 1419.97,1361.47 
  1424.55,1364.47 1429.14,1380.55 1433.72,1369.34 1438.31,1372.85 1442.89,1365.81 1447.47,1383.45 1452.06,1368.33 1456.64,1384.42 1461.23,1373.09 1465.81,1371.03 
  1470.4,1374.78 1474.98,1380.78 1479.57,1386.82 1484.15,1386.74 1488.73,1381.87 1493.32,1380.6 1497.9,1362.86 1502.49,1355.21 1507.07,1379.77 1511.66,1387.5 
  1516.24,1380.02 1520.83,1385.19 1525.41,1377.19 1529.99,1357.05 1534.58,1378.28 1539.16,1380.53 1543.75,1381.01 1548.33,1380.48 1552.92,1377.95 1557.5,1379.81 
  1562.08,1383.62 1566.67,1378.44 1571.25,1382.58 1575.84,1384.01 1580.42,1381.76 1585.01,1377.65 1589.59,1367.41 1594.18,1381.97 1598.76,1382.76 1603.34,1385.77 
  1607.93,1379.18 1612.51,1370.68 1617.1,1379.61 1621.68,1380.87 1626.27,1374.83 1630.85,1382.73 1635.44,1377.37 1640.02,1381.11 1644.6,1380.87 1649.19,1386.34 
  1653.77,1380.6 1658.36,1384.2 1662.94,1380.03 1667.53,1372.65 1672.11,1384.83 1676.69,1385.35 1681.28,1385.52 1685.86,1384.75 1690.45,1384.79 1695.03,1380.75 
  1699.62,1382.77 1704.2,1359.07 1708.79,1385.01 1713.37,1388.32 1717.95,1381.85 1722.54,1386.76 1727.12,1383.99 1731.71,1383.35 1736.29,1385.5 1740.88,1385.82 
  1745.46,1385.43 1750.05,1383.77 1754.63,1383.14 1759.21,1385.85 1763.8,1386.31 1768.38,1386.53 1772.97,1386.71 1777.55,1374.88 1782.14,1386.78 1786.72,1387.17 
  1791.3,1379.86 1795.89,1385.56 1800.47,1386.05 1805.06,1385.07 1809.64,1378.8 1814.23,1371.88 1818.81,1385.4 1823.4,1386.15 1827.98,1385.69 1832.56,1381.42 
  1837.15,1386.26 1841.73,1386.51 1846.32,1386.5 1850.9,1386.18 1855.49,1382.65 1860.07,1384.22 1864.66,1385.87 1869.24,1380.47 1873.82,1386.9 1878.41,1387.1 
  1882.99,1387.14 1887.58,1387.18 1892.16,1387.22 1896.75,1387.26 1901.33,1387.3 1905.91,1387.3 1910.5,1386.97 1915.08,1381.1 1919.67,1386.97 1924.25,1387.36 
  1928.84,1387.54 1933.42,1387.7 1938.01,1387.86 1942.59,1388.05 1947.17,1388.28 1951.76,1388.41 1956.34,1387.97 1960.93,1386.99 1965.51,1384.6 1970.1,1370.61 
  1974.68,1371.63 1979.26,1381.8 1983.85,1384.37 1988.43,1385.13 1993.02,1385.58 1997.6,1385.87 2002.19,1386.02 2006.77,1385.95 2011.36,1385.39 2015.94,1383.2 
  2020.52,1367.54 2025.11,1372.51 2029.69,1381.54 2034.28,1383.58 2038.86,1384.48 2043.45,1385 2048.03,1385.36 2052.62,1385.67 2057.2,1379.69 2061.78,1385.49 
  2066.37,1385.75 2070.95,1385.89 2075.54,1386 2080.12,1386.08 2084.71,1386.16 2089.29,1386.23 2093.87,1386.3 2098.46,1386.36 2103.04,1386.43 2107.63,1386.5 
  2112.21,1386.58 2116.8,1386.68 2121.38,1386.82 2125.97,1387.01 2130.55,1387.28 2135.13,1384.58 2139.72,1382.67 2144.3,1385.14 2148.89,1385.7 2153.47,1385.96 
  2158.06,1386.12 2162.64,1386.25 2167.23,1386.36 2171.81,1386.48 2176.39,1386.63 2180.98,1386.81 2185.56,1384.49 2190.15,1383.18 2194.73,1385.14 2199.32,1385.4 
  2203.9,1379.58 2208.48,1386.57 2213.07,1386.48 2217.65,1386 2222.24,1360.98 2226.82,1384.69 2231.41,1385.52 2235.99,1385.79 2240.58,1385.92 2245.16,1386 
  2249.74,1386.05 2254.33,1386.09 2258.91,1386.12 2263.5,1386.14 2268.08,1386.16 2272.67,1386.17 2277.25,1386.18 2281.84,1386.19 2286.42,1386.19 2291,1386.19 
  
  "/>
<polyline clip-path="url(#clip333)" style="stroke:#e26f46; stroke-width:4; stroke-opacity:1; fill:none" stroke-dasharray="16, 10" points="
  397.648,2643.75 397.648,-1017.97 
  "/>
<path clip-path="url(#clip330)" d="
M1681.04 364.252 L2280.03 364.252 L2280.03 243.292 L1681.04 243.292  Z
  " fill="#ffffff" fill-rule="evenodd" fill-opacity="1"/>
<polyline clip-path="url(#clip330)" style="stroke:#000000; stroke-width:4; stroke-opacity:1; fill:none" points="
  1681.04,364.252 2280.03,364.252 2280.03,243.292 1681.04,243.292 1681.04,364.252 
  "/>
<polyline clip-path="url(#clip330)" style="stroke:#e26f46; stroke-width:4; stroke-opacity:1; fill:none" stroke-dasharray="16, 10" points="
  1705.29,303.772 1850.75,303.772 
  "/>
<path clip-path="url(#clip330)" d="M 0 0 M1874.99 286.492 L1894.85 286.492 L1894.85 290.427 L1879.67 290.427 L1879.67 300.612 L1893.37 300.612 L1893.37 304.547 L1879.67 304.547 L1879.67 321.052 L1874.99 321.052 L1874.99 286.492 Z" fill="#000000" fill-rule="evenodd" fill-opacity="1" /><path clip-path="url(#clip330)" d="M 0 0 M1913.65 299.108 Q1912.93 298.691 1912.07 298.506 Q1911.24 298.297 1910.22 298.297 Q1906.61 298.297 1904.67 300.659 Q1902.74 302.997 1902.74 307.395 L1902.74 321.052 L1898.46 321.052 L1898.46 295.126 L1902.74 295.126 L1902.74 299.154 Q1904.09 296.793 1906.24 295.659 Q1908.39 294.501 1911.47 294.501 Q1911.91 294.501 1912.44 294.571 Q1912.98 294.617 1913.62 294.733 L1913.65 299.108 Z" fill="#000000" fill-rule="evenodd" fill-opacity="1" /><path clip-path="url(#clip330)" d="M 0 0 M1939.25 307.024 L1939.25 309.108 L1919.67 309.108 Q1919.94 313.506 1922.3 315.821 Q1924.69 318.112 1928.93 318.112 Q1931.38 318.112 1933.67 317.51 Q1935.99 316.908 1938.25 315.705 L1938.25 319.733 Q1935.96 320.705 1933.55 321.214 Q1931.15 321.723 1928.67 321.723 Q1922.47 321.723 1918.83 318.112 Q1915.22 314.501 1915.22 308.344 Q1915.22 301.978 1918.65 298.251 Q1922.1 294.501 1927.93 294.501 Q1933.16 294.501 1936.19 297.881 Q1939.25 301.237 1939.25 307.024 M1934.99 305.774 Q1934.94 302.279 1933.02 300.196 Q1931.12 298.112 1927.98 298.112 Q1924.41 298.112 1922.26 300.126 Q1920.13 302.14 1919.8 305.797 L1934.99 305.774 Z" fill="#000000" fill-rule="evenodd" fill-opacity="1" /><path clip-path="url(#clip330)" d="M 0 0 M1948.79 308.112 Q1948.79 312.811 1950.71 315.496 Q1952.65 318.158 1956.03 318.158 Q1959.41 318.158 1961.36 315.496 Q1963.3 312.811 1963.3 308.112 Q1963.3 303.413 1961.36 300.751 Q1959.41 298.066 1956.03 298.066 Q1952.65 298.066 1950.71 300.751 Q1948.79 303.413 1948.79 308.112 M1963.3 317.163 Q1961.96 319.478 1959.9 320.612 Q1957.86 321.723 1954.99 321.723 Q1950.29 321.723 1947.33 317.973 Q1944.39 314.223 1944.39 308.112 Q1944.39 302.001 1947.33 298.251 Q1950.29 294.501 1954.99 294.501 Q1957.86 294.501 1959.9 295.635 Q1961.96 296.747 1963.3 299.061 L1963.3 295.126 L1967.56 295.126 L1967.56 330.913 L1963.3 330.913 L1963.3 317.163 Z" fill="#000000" fill-rule="evenodd" fill-opacity="1" /><path clip-path="url(#clip330)" d="M 0 0 M1975.89 310.821 L1975.89 295.126 L1980.15 295.126 L1980.15 310.659 Q1980.15 314.339 1981.59 316.191 Q1983.02 318.02 1985.89 318.02 Q1989.34 318.02 1991.33 315.821 Q1993.35 313.621 1993.35 309.825 L1993.35 295.126 L1997.61 295.126 L1997.61 321.052 L1993.35 321.052 L1993.35 317.071 Q1991.8 319.432 1989.74 320.589 Q1987.7 321.723 1984.99 321.723 Q1980.52 321.723 1978.21 318.946 Q1975.89 316.168 1975.89 310.821 M1986.61 294.501 L1986.61 294.501 Z" fill="#000000" fill-rule="evenodd" fill-opacity="1" /><path clip-path="url(#clip330)" d="M 0 0 M2028.55 307.024 L2028.55 309.108 L2008.97 309.108 Q2009.25 313.506 2011.61 315.821 Q2013.99 318.112 2018.23 318.112 Q2020.68 318.112 2022.98 317.51 Q2025.29 316.908 2027.56 315.705 L2027.56 319.733 Q2025.27 320.705 2022.86 321.214 Q2020.45 321.723 2017.98 321.723 Q2011.77 321.723 2008.14 318.112 Q2004.53 314.501 2004.53 308.344 Q2004.53 301.978 2007.95 298.251 Q2011.4 294.501 2017.23 294.501 Q2022.47 294.501 2025.5 297.881 Q2028.55 301.237 2028.55 307.024 M2024.3 305.774 Q2024.25 302.279 2022.33 300.196 Q2020.43 298.112 2017.28 298.112 Q2013.72 298.112 2011.56 300.126 Q2009.43 302.14 2009.11 305.797 L2024.3 305.774 Z" fill="#000000" fill-rule="evenodd" fill-opacity="1" /><path clip-path="url(#clip330)" d="M 0 0 M2057.1 305.404 L2057.1 321.052 L2052.84 321.052 L2052.84 305.543 Q2052.84 301.862 2051.4 300.034 Q2049.97 298.205 2047.1 298.205 Q2043.65 298.205 2041.66 300.404 Q2039.67 302.603 2039.67 306.399 L2039.67 321.052 L2035.38 321.052 L2035.38 295.126 L2039.67 295.126 L2039.67 299.154 Q2041.19 296.816 2043.25 295.659 Q2045.34 294.501 2048.04 294.501 Q2052.51 294.501 2054.8 297.279 Q2057.1 300.034 2057.1 305.404 Z" fill="#000000" fill-rule="evenodd" fill-opacity="1" /><path clip-path="url(#clip330)" d="M 0 0 M2084.25 296.122 L2084.25 300.103 Q2082.44 299.108 2080.61 298.622 Q2078.81 298.112 2076.96 298.112 Q2072.81 298.112 2070.52 300.751 Q2068.23 303.367 2068.23 308.112 Q2068.23 312.858 2070.52 315.496 Q2072.81 318.112 2076.96 318.112 Q2078.81 318.112 2080.61 317.626 Q2082.44 317.117 2084.25 316.121 L2084.25 320.057 Q2082.47 320.89 2080.54 321.307 Q2078.65 321.723 2076.49 321.723 Q2070.64 321.723 2067.19 318.043 Q2063.74 314.362 2063.74 308.112 Q2063.74 301.77 2067.21 298.135 Q2070.71 294.501 2076.77 294.501 Q2078.74 294.501 2080.61 294.918 Q2082.49 295.311 2084.25 296.122 Z" fill="#000000" fill-rule="evenodd" fill-opacity="1" /><path clip-path="url(#clip330)" d="M 0 0 M2102.44 323.459 Q2100.64 328.089 2098.92 329.501 Q2097.21 330.913 2094.34 330.913 L2090.94 330.913 L2090.94 327.348 L2093.44 327.348 Q2095.2 327.348 2096.17 326.515 Q2097.14 325.682 2098.32 322.58 L2099.09 320.635 L2088.6 295.126 L2093.11 295.126 L2101.22 315.404 L2109.32 295.126 L2113.83 295.126 L2102.44 323.459 Z" fill="#000000" fill-rule="evenodd" fill-opacity="1" /><path clip-path="url(#clip330)" d="M 0 0 M2151.31 295.89 L2151.31 299.918 Q2149.5 298.992 2147.56 298.529 Q2145.61 298.066 2143.53 298.066 Q2140.36 298.066 2138.76 299.038 Q2137.19 300.01 2137.19 301.955 Q2137.19 303.436 2138.32 304.293 Q2139.46 305.126 2142.88 305.89 L2144.34 306.214 Q2148.88 307.186 2150.78 308.969 Q2152.7 310.728 2152.7 313.899 Q2152.7 317.51 2149.83 319.617 Q2146.98 321.723 2141.98 321.723 Q2139.9 321.723 2137.63 321.307 Q2135.38 320.913 2132.88 320.103 L2132.88 315.705 Q2135.24 316.932 2137.54 317.557 Q2139.83 318.158 2142.07 318.158 Q2145.08 318.158 2146.7 317.14 Q2148.32 316.098 2148.32 314.223 Q2148.32 312.487 2147.14 311.561 Q2145.98 310.635 2142.03 309.779 L2140.54 309.432 Q2136.59 308.598 2134.83 306.885 Q2133.07 305.149 2133.07 302.14 Q2133.07 298.483 2135.66 296.492 Q2138.25 294.501 2143.02 294.501 Q2145.38 294.501 2147.47 294.848 Q2149.55 295.196 2151.31 295.89 Z" fill="#000000" fill-rule="evenodd" fill-opacity="1" /><path clip-path="url(#clip330)" d="M 0 0 M2181.03 305.404 L2181.03 321.052 L2176.77 321.052 L2176.77 305.543 Q2176.77 301.862 2175.34 300.034 Q2173.9 298.205 2171.03 298.205 Q2167.58 298.205 2165.59 300.404 Q2163.6 302.603 2163.6 306.399 L2163.6 321.052 L2159.32 321.052 L2159.32 285.034 L2163.6 285.034 L2163.6 299.154 Q2165.13 296.816 2167.19 295.659 Q2169.27 294.501 2171.98 294.501 Q2176.45 294.501 2178.74 297.279 Q2181.03 300.034 2181.03 305.404 Z" fill="#000000" fill-rule="evenodd" fill-opacity="1" /><path clip-path="url(#clip330)" d="M 0 0 M2189.53 295.126 L2193.78 295.126 L2193.78 321.052 L2189.53 321.052 L2189.53 295.126 M2189.53 285.034 L2193.78 285.034 L2193.78 290.427 L2189.53 290.427 L2189.53 285.034 Z" fill="#000000" fill-rule="evenodd" fill-opacity="1" /><path clip-path="url(#clip330)" d="M 0 0 M2215.82 285.034 L2215.82 288.575 L2211.75 288.575 Q2209.46 288.575 2208.55 289.501 Q2207.67 290.427 2207.67 292.835 L2207.67 295.126 L2214.69 295.126 L2214.69 298.436 L2207.67 298.436 L2207.67 321.052 L2203.39 321.052 L2203.39 298.436 L2199.32 298.436 L2199.32 295.126 L2203.39 295.126 L2203.39 293.321 Q2203.39 288.992 2205.41 287.024 Q2207.42 285.034 2211.79 285.034 L2215.82 285.034 Z" fill="#000000" fill-rule="evenodd" fill-opacity="1" /><path clip-path="url(#clip330)" d="M 0 0 M2222.77 287.765 L2222.77 295.126 L2231.54 295.126 L2231.54 298.436 L2222.77 298.436 L2222.77 312.51 Q2222.77 315.682 2223.62 316.584 Q2224.5 317.487 2227.16 317.487 L2231.54 317.487 L2231.54 321.052 L2227.16 321.052 Q2222.23 321.052 2220.36 319.223 Q2218.48 317.371 2218.48 312.51 L2218.48 298.436 L2215.36 298.436 L2215.36 295.126 L2218.48 295.126 L2218.48 287.765 L2222.77 287.765 Z" fill="#000000" fill-rule="evenodd" fill-opacity="1" /></svg>
