<?xml version="1.0" encoding="utf-8"?>
<svg xmlns="http://www.w3.org/2000/svg" xmlns:xlink="http://www.w3.org/1999/xlink" width="600" height="400" viewBox="0 0 2400 1600">
<defs>
  <clipPath id="clip680">
    <rect x="0" y="0" width="2400" height="1600"/>
  </clipPath>
</defs>
<path clip-path="url(#clip680)" d="
M0 1600 L2400 1600 L2400 0 L0 0  Z
  " fill="#ffffff" fill-rule="evenodd" fill-opacity="1"/>
<defs>
  <clipPath id="clip681">
    <rect x="480" y="0" width="1681" height="1600"/>
  </clipPath>
</defs>
<defs>
  <clipPath id="clip682">
    <rect x="249" y="123" width="2104" height="1301"/>
  </clipPath>
</defs>
<path clip-path="url(#clip680)" d="
M210.205 1427.15 L2352.76 1427.15 L2352.76 123.472 L210.205 123.472  Z
  " fill="#ffffff" fill-rule="evenodd" fill-opacity="1"/>
<defs>
  <clipPath id="clip683">
    <rect x="210" y="123" width="2144" height="1305"/>
  </clipPath>
</defs>
<polyline clip-path="url(#clip683)" style="stroke:#000000; stroke-width:2; stroke-opacity:0.1; fill:none" points="
  264.631,1427.15 264.631,123.472 
  "/>
<polyline clip-path="url(#clip683)" style="stroke:#000000; stroke-width:2; stroke-opacity:0.1; fill:none" points="
  782.375,1427.15 782.375,123.472 
  "/>
<polyline clip-path="url(#clip683)" style="stroke:#000000; stroke-width:2; stroke-opacity:0.1; fill:none" points="
  1300.12,1427.15 1300.12,123.472 
  "/>
<polyline clip-path="url(#clip683)" style="stroke:#000000; stroke-width:2; stroke-opacity:0.1; fill:none" points="
  1817.86,1427.15 1817.86,123.472 
  "/>
<polyline clip-path="url(#clip683)" style="stroke:#000000; stroke-width:2; stroke-opacity:0.1; fill:none" points="
  2335.61,1427.15 2335.61,123.472 
  "/>
<polyline clip-path="url(#clip680)" style="stroke:#000000; stroke-width:4; stroke-opacity:1; fill:none" points="
  210.205,1427.15 2352.76,1427.15 
  "/>
<polyline clip-path="url(#clip680)" style="stroke:#000000; stroke-width:4; stroke-opacity:1; fill:none" points="
  264.631,1427.15 264.631,1411.5 
  "/>
<polyline clip-path="url(#clip680)" style="stroke:#000000; stroke-width:4; stroke-opacity:1; fill:none" points="
  782.375,1427.15 782.375,1411.5 
  "/>
<polyline clip-path="url(#clip680)" style="stroke:#000000; stroke-width:4; stroke-opacity:1; fill:none" points="
  1300.12,1427.15 1300.12,1411.5 
  "/>
<polyline clip-path="url(#clip680)" style="stroke:#000000; stroke-width:4; stroke-opacity:1; fill:none" points="
  1817.86,1427.15 1817.86,1411.5 
  "/>
<polyline clip-path="url(#clip680)" style="stroke:#000000; stroke-width:4; stroke-opacity:1; fill:none" points="
  2335.61,1427.15 2335.61,1411.5 
  "/>
<path clip-path="url(#clip680)" d="M 0 0 M242.015 1456.34 Q238.404 1456.34 236.575 1459.9 Q234.77 1463.44 234.77 1470.57 Q234.77 1477.68 236.575 1481.25 Q238.404 1484.79 242.015 1484.79 Q245.649 1484.79 247.455 1481.25 Q249.284 1477.68 249.284 1470.57 Q249.284 1463.44 247.455 1459.9 Q245.649 1456.34 242.015 1456.34 M242.015 1452.63 Q247.825 1452.63 250.881 1457.24 Q253.959 1461.82 253.959 1470.57 Q253.959 1479.3 250.881 1483.91 Q247.825 1488.49 242.015 1488.49 Q236.205 1488.49 233.126 1483.91 Q230.071 1479.3 230.071 1470.57 Q230.071 1461.82 233.126 1457.24 Q236.205 1452.63 242.015 1452.63 Z" fill="#000000" fill-rule="evenodd" fill-opacity="1" /><path clip-path="url(#clip680)" d="M 0 0 M262.177 1481.94 L267.061 1481.94 L267.061 1487.82 L262.177 1487.82 L262.177 1481.94 Z" fill="#000000" fill-rule="evenodd" fill-opacity="1" /><path clip-path="url(#clip680)" d="M 0 0 M287.246 1456.34 Q283.635 1456.34 281.807 1459.9 Q280.001 1463.44 280.001 1470.57 Q280.001 1477.68 281.807 1481.25 Q283.635 1484.79 287.246 1484.79 Q290.881 1484.79 292.686 1481.25 Q294.515 1477.68 294.515 1470.57 Q294.515 1463.44 292.686 1459.9 Q290.881 1456.34 287.246 1456.34 M287.246 1452.63 Q293.057 1452.63 296.112 1457.24 Q299.191 1461.82 299.191 1470.57 Q299.191 1479.3 296.112 1483.91 Q293.057 1488.49 287.246 1488.49 Q281.436 1488.49 278.358 1483.91 Q275.302 1479.3 275.302 1470.57 Q275.302 1461.82 278.358 1457.24 Q281.436 1452.63 287.246 1452.63 Z" fill="#000000" fill-rule="evenodd" fill-opacity="1" /><path clip-path="url(#clip680)" d="M 0 0 M754.111 1483.88 L770.431 1483.88 L770.431 1487.82 L748.486 1487.82 L748.486 1483.88 Q751.148 1481.13 755.732 1476.5 Q760.338 1471.85 761.519 1470.51 Q763.764 1467.98 764.644 1466.25 Q765.546 1464.49 765.546 1462.8 Q765.546 1460.04 763.602 1458.31 Q761.681 1456.57 758.579 1456.57 Q756.38 1456.57 753.926 1457.33 Q751.496 1458.1 748.718 1459.65 L748.718 1454.93 Q751.542 1453.79 753.996 1453.21 Q756.449 1452.63 758.486 1452.63 Q763.857 1452.63 767.051 1455.32 Q770.246 1458.01 770.246 1462.5 Q770.246 1464.63 769.435 1466.55 Q768.648 1468.44 766.542 1471.04 Q765.963 1471.71 762.861 1474.93 Q759.759 1478.12 754.111 1483.88 Z" fill="#000000" fill-rule="evenodd" fill-opacity="1" /><path clip-path="url(#clip680)" d="M 0 0 M780.245 1481.94 L785.13 1481.94 L785.13 1487.82 L780.245 1487.82 L780.245 1481.94 Z" fill="#000000" fill-rule="evenodd" fill-opacity="1" /><path clip-path="url(#clip680)" d="M 0 0 M795.361 1453.26 L813.718 1453.26 L813.718 1457.19 L799.644 1457.19 L799.644 1465.67 Q800.662 1465.32 801.681 1465.16 Q802.699 1464.97 803.718 1464.97 Q809.505 1464.97 812.884 1468.14 Q816.264 1471.32 816.264 1476.73 Q816.264 1482.31 812.792 1485.41 Q809.319 1488.49 803 1488.49 Q800.824 1488.49 798.556 1488.12 Q796.31 1487.75 793.903 1487.01 L793.903 1482.31 Q795.986 1483.44 798.208 1484 Q800.431 1484.56 802.907 1484.56 Q806.912 1484.56 809.25 1482.45 Q811.588 1480.34 811.588 1476.73 Q811.588 1473.12 809.25 1471.01 Q806.912 1468.91 802.907 1468.91 Q801.032 1468.91 799.157 1469.32 Q797.306 1469.74 795.361 1470.62 L795.361 1453.26 Z" fill="#000000" fill-rule="evenodd" fill-opacity="1" /><path clip-path="url(#clip680)" d="M 0 0 M1267.28 1453.26 L1285.64 1453.26 L1285.64 1457.19 L1271.57 1457.19 L1271.57 1465.67 Q1272.58 1465.32 1273.6 1465.16 Q1274.62 1464.97 1275.64 1464.97 Q1281.43 1464.97 1284.81 1468.14 Q1288.19 1471.32 1288.19 1476.73 Q1288.19 1482.31 1284.71 1485.41 Q1281.24 1488.49 1274.92 1488.49 Q1272.75 1488.49 1270.48 1488.12 Q1268.23 1487.75 1265.83 1487.01 L1265.83 1482.31 Q1267.91 1483.44 1270.13 1484 Q1272.35 1484.56 1274.83 1484.56 Q1278.83 1484.56 1281.17 1482.45 Q1283.51 1480.34 1283.51 1476.73 Q1283.51 1473.12 1281.17 1471.01 Q1278.83 1468.91 1274.83 1468.91 Q1272.96 1468.91 1271.08 1469.32 Q1269.23 1469.74 1267.28 1470.62 L1267.28 1453.26 Z" fill="#000000" fill-rule="evenodd" fill-opacity="1" /><path clip-path="url(#clip680)" d="M 0 0 M1297.4 1481.94 L1302.28 1481.94 L1302.28 1487.82 L1297.4 1487.82 L1297.4 1481.94 Z" fill="#000000" fill-rule="evenodd" fill-opacity="1" /><path clip-path="url(#clip680)" d="M 0 0 M1322.47 1456.34 Q1318.86 1456.34 1317.03 1459.9 Q1315.22 1463.44 1315.22 1470.57 Q1315.22 1477.68 1317.03 1481.25 Q1318.86 1484.79 1322.47 1484.79 Q1326.1 1484.79 1327.91 1481.25 Q1329.74 1477.68 1329.74 1470.57 Q1329.74 1463.44 1327.91 1459.9 Q1326.1 1456.34 1322.47 1456.34 M1322.47 1452.63 Q1328.28 1452.63 1331.33 1457.24 Q1334.41 1461.82 1334.41 1470.57 Q1334.41 1479.3 1331.33 1483.91 Q1328.28 1488.49 1322.47 1488.49 Q1316.66 1488.49 1313.58 1483.91 Q1310.52 1479.3 1310.52 1470.57 Q1310.52 1461.82 1313.58 1457.24 Q1316.66 1452.63 1322.47 1452.63 Z" fill="#000000" fill-rule="evenodd" fill-opacity="1" /><path clip-path="url(#clip680)" d="M 0 0 M1784.18 1453.26 L1806.41 1453.26 L1806.41 1455.25 L1793.86 1487.82 L1788.98 1487.82 L1800.78 1457.19 L1784.18 1457.19 L1784.18 1453.26 Z" fill="#000000" fill-rule="evenodd" fill-opacity="1" /><path clip-path="url(#clip680)" d="M 0 0 M1815.53 1481.94 L1820.41 1481.94 L1820.41 1487.82 L1815.53 1487.82 L1815.53 1481.94 Z" fill="#000000" fill-rule="evenodd" fill-opacity="1" /><path clip-path="url(#clip680)" d="M 0 0 M1830.64 1453.26 L1849 1453.26 L1849 1457.19 L1834.92 1457.19 L1834.92 1465.67 Q1835.94 1465.32 1836.96 1465.16 Q1837.98 1464.97 1839 1464.97 Q1844.78 1464.97 1848.16 1468.14 Q1851.54 1471.32 1851.54 1476.73 Q1851.54 1482.31 1848.07 1485.41 Q1844.6 1488.49 1838.28 1488.49 Q1836.1 1488.49 1833.84 1488.12 Q1831.59 1487.75 1829.18 1487.01 L1829.18 1482.31 Q1831.27 1483.44 1833.49 1484 Q1835.71 1484.56 1838.19 1484.56 Q1842.19 1484.56 1844.53 1482.45 Q1846.87 1480.34 1846.87 1476.73 Q1846.87 1473.12 1844.53 1471.01 Q1842.19 1468.91 1838.19 1468.91 Q1836.31 1468.91 1834.44 1469.32 Q1832.59 1469.74 1830.64 1470.62 L1830.64 1453.26 Z" fill="#000000" fill-rule="evenodd" fill-opacity="1" /><path clip-path="url(#clip680)" d="M 0 0 M2287.68 1483.88 L2295.32 1483.88 L2295.32 1457.52 L2287.01 1459.19 L2287.01 1454.93 L2295.27 1453.26 L2299.95 1453.26 L2299.95 1483.88 L2307.59 1483.88 L2307.59 1487.82 L2287.68 1487.82 L2287.68 1483.88 Z" fill="#000000" fill-rule="evenodd" fill-opacity="1" /><path clip-path="url(#clip680)" d="M 0 0 M2327.03 1456.34 Q2323.42 1456.34 2321.59 1459.9 Q2319.79 1463.44 2319.79 1470.57 Q2319.79 1477.68 2321.59 1481.25 Q2323.42 1484.79 2327.03 1484.79 Q2330.67 1484.79 2332.47 1481.25 Q2334.3 1477.68 2334.3 1470.57 Q2334.3 1463.44 2332.47 1459.9 Q2330.67 1456.34 2327.03 1456.34 M2327.03 1452.63 Q2332.84 1452.63 2335.9 1457.24 Q2338.98 1461.82 2338.98 1470.57 Q2338.98 1479.3 2335.9 1483.91 Q2332.84 1488.49 2327.03 1488.49 Q2321.22 1488.49 2318.14 1483.91 Q2315.09 1479.3 2315.09 1470.57 Q2315.09 1461.82 2318.14 1457.24 Q2321.22 1452.63 2327.03 1452.63 Z" fill="#000000" fill-rule="evenodd" fill-opacity="1" /><path clip-path="url(#clip680)" d="M 0 0 M2347.19 1481.94 L2352.08 1481.94 L2352.08 1487.82 L2347.19 1487.82 L2347.19 1481.94 Z" fill="#000000" fill-rule="evenodd" fill-opacity="1" /><path clip-path="url(#clip680)" d="M 0 0 M2372.26 1456.34 Q2368.65 1456.34 2366.82 1459.9 Q2365.02 1463.44 2365.02 1470.57 Q2365.02 1477.68 2366.82 1481.25 Q2368.65 1484.79 2372.26 1484.79 Q2375.9 1484.79 2377.7 1481.25 Q2379.53 1477.68 2379.53 1470.57 Q2379.53 1463.44 2377.7 1459.9 Q2375.9 1456.34 2372.26 1456.34 M2372.26 1452.63 Q2378.07 1452.63 2381.13 1457.24 Q2384.21 1461.82 2384.21 1470.57 Q2384.21 1479.3 2381.13 1483.91 Q2378.07 1488.49 2372.26 1488.49 Q2366.45 1488.49 2363.37 1483.91 Q2360.32 1479.3 2360.32 1470.57 Q2360.32 1461.82 2363.37 1457.24 Q2366.45 1452.63 2372.26 1452.63 Z" fill="#000000" fill-rule="evenodd" fill-opacity="1" /><path clip-path="url(#clip680)" d="M 0 0 M1232.01 1530.6 Q1232.01 1532.85 1228.76 1532.85 L1217.68 1532.85 L1213.26 1555.43 Q1213.17 1556.01 1213.04 1556.33 Q1212.94 1556.65 1212.65 1557.2 Q1212.39 1557.71 1211.85 1557.97 Q1211.33 1558.26 1210.56 1558.26 Q1209.59 1558.26 1209.11 1557.68 Q1208.66 1557.13 1208.66 1556.46 Q1208.66 1556.04 1209.3 1554.04 L1215.78 1532.85 L1210.3 1532.85 Q1205.15 1532.85 1201.93 1537.94 Q1201.41 1538.61 1201.12 1538.68 Q1200.99 1538.71 1200.86 1538.71 Q1200.51 1538.71 1200.29 1538.55 Q1200.09 1538.39 1200.09 1538.23 L1200.06 1538.07 Q1200.06 1537.84 1200.58 1536.94 Q1201.12 1536.01 1202.09 1534.62 Q1203.09 1533.24 1204.09 1532.14 Q1205.41 1530.72 1206.89 1529.98 Q1208.37 1529.21 1209.11 1529.11 Q1209.88 1529.02 1210.88 1529.02 L1229.37 1529.02 Q1230.2 1529.02 1230.66 1529.08 Q1231.11 1529.11 1231.56 1529.5 Q1232.01 1529.85 1232.01 1530.6 Z" fill="#000000" fill-rule="evenodd" fill-opacity="1" /><path clip-path="url(#clip680)" d="M 0 0 M1250.3 1540.97 Q1250.3 1529.82 1254.45 1520.84 Q1256.23 1517.07 1258.71 1513.91 Q1261.19 1510.76 1262.83 1509.37 Q1264.47 1507.99 1264.92 1507.99 Q1265.57 1507.99 1265.6 1508.63 Q1265.6 1508.95 1264.73 1509.76 Q1254.1 1520.58 1254.13 1540.97 Q1254.13 1561.42 1264.47 1571.82 Q1265.6 1572.95 1265.6 1573.3 Q1265.6 1573.94 1264.92 1573.94 Q1264.47 1573.94 1262.89 1572.62 Q1261.31 1571.3 1258.87 1568.28 Q1256.42 1565.25 1254.65 1561.55 Q1250.3 1552.56 1250.3 1540.97 Z" fill="#000000" fill-rule="evenodd" fill-opacity="1" /><path clip-path="url(#clip680)" d="M 0 0 M1275.63 1557.45 L1275.63 1555.43 Q1279.14 1555.43 1279.94 1555.01 Q1280.75 1554.56 1280.75 1552.43 L1280.75 1534.75 Q1280.75 1532.3 1279.88 1531.69 Q1279.04 1531.08 1275.63 1531.08 L1275.63 1529.02 L1284.9 1528.31 L1284.9 1535.23 Q1287.99 1528.31 1294.66 1528.31 Q1299.62 1528.31 1301.59 1530.76 Q1303.03 1532.4 1303.32 1534.23 Q1303.65 1536.07 1303.65 1540.84 L1303.65 1553.43 Q1303.71 1554.81 1304.77 1555.14 Q1305.84 1555.43 1308.8 1555.43 L1308.8 1557.45 Q1302.07 1557.26 1301.39 1557.26 Q1300.88 1557.26 1293.95 1557.45 L1293.95 1555.43 Q1297.46 1555.43 1298.27 1555.01 Q1299.11 1554.56 1299.11 1552.43 L1299.11 1537.07 Q1299.11 1533.72 1298.07 1531.75 Q1297.04 1529.76 1294.21 1529.76 Q1290.8 1529.76 1288.06 1532.62 Q1285.32 1535.49 1285.32 1540.32 L1285.32 1552.43 Q1285.32 1554.56 1286.13 1555.01 Q1286.96 1555.43 1290.44 1555.43 L1290.44 1557.45 Q1283.71 1557.26 1283.07 1557.26 Q1282.55 1557.26 1275.63 1557.45 Z" fill="#000000" fill-rule="evenodd" fill-opacity="1" /><path clip-path="url(#clip680)" d="M 0 0 M1311.86 1556.59 L1311.86 1547.89 Q1311.86 1547.15 1311.9 1546.89 Q1311.93 1546.63 1312.12 1546.44 Q1312.31 1546.25 1312.7 1546.25 Q1313.15 1546.25 1313.31 1546.44 Q1313.51 1546.63 1313.64 1547.37 Q1314.63 1551.92 1316.76 1554.33 Q1318.92 1556.71 1322.81 1556.71 Q1326.52 1556.71 1328.39 1555.07 Q1330.25 1553.43 1330.25 1550.72 Q1330.25 1545.89 1323.39 1544.67 Q1319.43 1543.86 1317.79 1543.35 Q1316.15 1542.8 1314.7 1541.61 Q1311.86 1539.29 1311.86 1536.01 Q1311.86 1532.72 1314.34 1530.31 Q1316.86 1527.89 1322.4 1527.89 Q1326.1 1527.89 1328.61 1529.76 Q1329.35 1529.18 1329.74 1528.7 Q1330.61 1527.89 1331.06 1527.89 Q1331.57 1527.89 1331.67 1528.24 Q1331.77 1528.57 1331.77 1529.5 L1331.77 1536.13 Q1331.77 1536.88 1331.74 1537.13 Q1331.7 1537.39 1331.51 1537.58 Q1331.32 1537.74 1330.9 1537.74 Q1330.16 1537.74 1330.12 1537.13 Q1329.61 1529.15 1322.4 1529.15 Q1318.5 1529.15 1316.76 1530.66 Q1315.02 1532.14 1315.02 1534.17 Q1315.02 1535.3 1315.54 1536.17 Q1316.08 1537 1316.76 1537.52 Q1317.47 1538 1318.76 1538.49 Q1320.04 1538.94 1320.82 1539.1 Q1321.62 1539.26 1323.14 1539.58 Q1328.42 1540.58 1330.64 1542.74 Q1333.41 1545.51 1333.41 1549.02 Q1333.41 1552.91 1330.77 1555.55 Q1328.13 1558.2 1322.81 1558.2 Q1318.53 1558.2 1315.54 1555.33 Q1315.15 1555.72 1314.86 1556.07 Q1314.57 1556.39 1314.44 1556.52 Q1314.34 1556.65 1314.31 1556.75 Q1314.28 1556.81 1314.22 1556.88 Q1312.89 1558.2 1312.57 1558.2 Q1312.06 1558.2 1311.96 1557.84 Q1311.86 1557.52 1311.86 1556.59 Z" fill="#000000" fill-rule="evenodd" fill-opacity="1" /><path clip-path="url(#clip680)" d="M 0 0 M1337.57 1573.3 Q1337.57 1572.98 1338.41 1572.17 Q1349.04 1561.35 1349.04 1540.97 Q1349.04 1520.51 1338.83 1510.18 Q1337.57 1508.99 1337.57 1508.63 Q1337.57 1507.99 1338.22 1507.99 Q1338.67 1507.99 1340.25 1509.31 Q1341.86 1510.63 1344.27 1513.65 Q1346.72 1516.68 1348.52 1520.39 Q1352.87 1529.37 1352.87 1540.97 Q1352.87 1552.11 1348.72 1561.09 Q1346.95 1564.86 1344.47 1568.02 Q1341.99 1571.17 1340.34 1572.56 Q1338.7 1573.94 1338.22 1573.94 Q1337.57 1573.94 1337.57 1573.3 Z" fill="#000000" fill-rule="evenodd" fill-opacity="1" /><polyline clip-path="url(#clip683)" style="stroke:#000000; stroke-width:2; stroke-opacity:0.1; fill:none" points="
  210.205,1258.28 2352.76,1258.28 
  "/>
<polyline clip-path="url(#clip683)" style="stroke:#000000; stroke-width:2; stroke-opacity:0.1; fill:none" points="
  210.205,930.464 2352.76,930.464 
  "/>
<polyline clip-path="url(#clip683)" style="stroke:#000000; stroke-width:2; stroke-opacity:0.1; fill:none" points="
  210.205,602.653 2352.76,602.653 
  "/>
<polyline clip-path="url(#clip683)" style="stroke:#000000; stroke-width:2; stroke-opacity:0.1; fill:none" points="
  210.205,274.842 2352.76,274.842 
  "/>
<polyline clip-path="url(#clip680)" style="stroke:#000000; stroke-width:4; stroke-opacity:1; fill:none" points="
  210.205,1427.15 210.205,123.472 
  "/>
<polyline clip-path="url(#clip680)" style="stroke:#000000; stroke-width:4; stroke-opacity:1; fill:none" points="
  210.205,1258.28 235.916,1258.28 
  "/>
<polyline clip-path="url(#clip680)" style="stroke:#000000; stroke-width:4; stroke-opacity:1; fill:none" points="
  210.205,930.464 235.916,930.464 
  "/>
<polyline clip-path="url(#clip680)" style="stroke:#000000; stroke-width:4; stroke-opacity:1; fill:none" points="
  210.205,602.653 235.916,602.653 
  "/>
<polyline clip-path="url(#clip680)" style="stroke:#000000; stroke-width:4; stroke-opacity:1; fill:none" points="
  210.205,274.842 235.916,274.842 
  "/>
<path clip-path="url(#clip680)" d="M 0 0 M123.905 1271.62 L131.544 1271.62 L131.544 1245.25 L123.233 1246.92 L123.233 1242.66 L131.497 1241 L136.173 1241 L136.173 1271.62 L143.812 1271.62 L143.812 1275.56 L123.905 1275.56 L123.905 1271.62 Z" fill="#000000" fill-rule="evenodd" fill-opacity="1" /><path clip-path="url(#clip680)" d="M 0 0 M153.303 1241 L171.659 1241 L171.659 1244.93 L157.585 1244.93 L157.585 1253.4 Q158.604 1253.06 159.622 1252.89 Q160.641 1252.71 161.659 1252.71 Q167.446 1252.71 170.826 1255.88 Q174.205 1259.05 174.205 1264.47 Q174.205 1270.05 170.733 1273.15 Q167.261 1276.23 160.942 1276.23 Q158.766 1276.23 156.497 1275.86 Q154.252 1275.49 151.844 1274.75 L151.844 1270.05 Q153.928 1271.18 156.15 1271.74 Q158.372 1272.29 160.849 1272.29 Q164.854 1272.29 167.192 1270.19 Q169.53 1268.08 169.53 1264.47 Q169.53 1260.86 167.192 1258.75 Q164.854 1256.64 160.849 1256.64 Q158.974 1256.64 157.099 1257.06 Q155.247 1257.48 153.303 1258.36 L153.303 1241 Z" fill="#000000" fill-rule="evenodd" fill-opacity="1" /><path clip-path="url(#clip680)" d="M 0 0 M126.127 943.809 L142.446 943.809 L142.446 947.744 L120.502 947.744 L120.502 943.809 Q123.164 941.055 127.747 936.425 Q132.354 931.772 133.534 930.43 Q135.78 927.907 136.659 926.17 Q137.562 924.411 137.562 922.721 Q137.562 919.967 135.618 918.231 Q133.696 916.495 130.595 916.495 Q128.396 916.495 125.942 917.258 Q123.511 918.022 120.734 919.573 L120.734 914.851 Q123.558 913.717 126.011 913.138 Q128.465 912.559 130.502 912.559 Q135.872 912.559 139.067 915.245 Q142.261 917.93 142.261 922.42 Q142.261 924.55 141.451 926.471 Q140.664 928.369 138.557 930.962 Q137.979 931.633 134.877 934.851 Q131.775 938.045 126.127 943.809 Z" fill="#000000" fill-rule="evenodd" fill-opacity="1" /><path clip-path="url(#clip680)" d="M 0 0 M162.261 916.263 Q158.65 916.263 156.821 919.828 Q155.016 923.37 155.016 930.499 Q155.016 937.606 156.821 941.17 Q158.65 944.712 162.261 944.712 Q165.895 944.712 167.701 941.17 Q169.53 937.606 169.53 930.499 Q169.53 923.37 167.701 919.828 Q165.895 916.263 162.261 916.263 M162.261 912.559 Q168.071 912.559 171.127 917.166 Q174.205 921.749 174.205 930.499 Q174.205 939.226 171.127 943.832 Q168.071 948.416 162.261 948.416 Q156.451 948.416 153.372 943.832 Q150.317 939.226 150.317 930.499 Q150.317 921.749 153.372 917.166 Q156.451 912.559 162.261 912.559 Z" fill="#000000" fill-rule="evenodd" fill-opacity="1" /><path clip-path="url(#clip680)" d="M 0 0 M127.122 615.998 L143.442 615.998 L143.442 619.933 L121.497 619.933 L121.497 615.998 Q124.159 613.244 128.743 608.614 Q133.349 603.961 134.53 602.619 Q136.775 600.095 137.655 598.359 Q138.557 596.6 138.557 594.91 Q138.557 592.156 136.613 590.42 Q134.692 588.684 131.59 588.684 Q129.391 588.684 126.937 589.447 Q124.507 590.211 121.729 591.762 L121.729 587.04 Q124.553 585.906 127.007 585.327 Q129.46 584.748 131.497 584.748 Q136.868 584.748 140.062 587.434 Q143.257 590.119 143.257 594.609 Q143.257 596.739 142.446 598.66 Q141.659 600.558 139.553 603.151 Q138.974 603.822 135.872 607.04 Q132.77 610.234 127.122 615.998 Z" fill="#000000" fill-rule="evenodd" fill-opacity="1" /><path clip-path="url(#clip680)" d="M 0 0 M153.303 585.373 L171.659 585.373 L171.659 589.309 L157.585 589.309 L157.585 597.781 Q158.604 597.433 159.622 597.271 Q160.641 597.086 161.659 597.086 Q167.446 597.086 170.826 600.258 Q174.205 603.429 174.205 608.845 Q174.205 614.424 170.733 617.526 Q167.261 620.605 160.942 620.605 Q158.766 620.605 156.497 620.234 Q154.252 619.864 151.844 619.123 L151.844 614.424 Q153.928 615.558 156.15 616.114 Q158.372 616.669 160.849 616.669 Q164.854 616.669 167.192 614.563 Q169.53 612.457 169.53 608.845 Q169.53 605.234 167.192 603.128 Q164.854 601.021 160.849 601.021 Q158.974 601.021 157.099 601.438 Q155.247 601.855 153.303 602.734 L153.303 585.373 Z" fill="#000000" fill-rule="evenodd" fill-opacity="1" /><path clip-path="url(#clip680)" d="M 0 0 M136.266 273.488 Q139.622 274.206 141.497 276.474 Q143.395 278.743 143.395 282.076 Q143.395 287.192 139.877 289.993 Q136.358 292.794 129.877 292.794 Q127.701 292.794 125.386 292.354 Q123.095 291.937 120.641 291.081 L120.641 286.567 Q122.585 287.701 124.9 288.28 Q127.215 288.858 129.738 288.858 Q134.136 288.858 136.428 287.122 Q138.743 285.386 138.743 282.076 Q138.743 279.021 136.59 277.308 Q134.46 275.571 130.641 275.571 L126.613 275.571 L126.613 271.729 L130.826 271.729 Q134.275 271.729 136.104 270.363 Q137.932 268.974 137.932 266.382 Q137.932 263.72 136.034 262.308 Q134.159 260.872 130.641 260.872 Q128.72 260.872 126.521 261.289 Q124.321 261.706 121.683 262.585 L121.683 258.419 Q124.345 257.678 126.659 257.308 Q128.997 256.937 131.058 256.937 Q136.382 256.937 139.483 259.368 Q142.585 261.775 142.585 265.896 Q142.585 268.766 140.942 270.757 Q139.298 272.724 136.266 273.488 Z" fill="#000000" fill-rule="evenodd" fill-opacity="1" /><path clip-path="url(#clip680)" d="M 0 0 M162.261 260.641 Q158.65 260.641 156.821 264.206 Q155.016 267.747 155.016 274.877 Q155.016 281.983 156.821 285.548 Q158.65 289.09 162.261 289.09 Q165.895 289.09 167.701 285.548 Q169.53 281.983 169.53 274.877 Q169.53 267.747 167.701 264.206 Q165.895 260.641 162.261 260.641 M162.261 256.937 Q168.071 256.937 171.127 261.544 Q174.205 266.127 174.205 274.877 Q174.205 283.604 171.127 288.21 Q168.071 292.794 162.261 292.794 Q156.451 292.794 153.372 288.21 Q150.317 283.604 150.317 274.877 Q150.317 266.127 153.372 261.544 Q156.451 256.937 162.261 256.937 Z" fill="#000000" fill-rule="evenodd" fill-opacity="1" /><path clip-path="url(#clip680)" d="M 0 0 M50.1836 835.816 Q50.2159 835.816 51.3753 836.009 L80.6504 843.352 Q82.1963 843.739 83.7422 844.834 Q85.3202 845.897 86.6729 847.604 Q88.0577 849.278 88.8951 851.855 Q89.7647 854.399 89.7647 857.33 Q89.7647 862 88.7663 864.061 Q87.8001 866.09 85.7389 866.09 Q83.9354 866.09 82.9048 864.963 Q81.9064 863.835 81.9064 862.547 Q81.9064 861.323 82.6149 860.679 Q83.3235 860.035 84.2252 860.035 Q85.2236 860.035 86.222 860.711 Q87.2526 861.388 87.6391 862.74 Q88.3154 860.583 88.3154 857.459 Q88.3154 850.856 81.3267 848.022 Q81.2301 847.958 81.1979 847.958 L72.4701 845.768 L72.4057 845.864 Q73.0498 846.412 73.7905 847.282 Q74.4991 848.119 75.3686 849.922 Q76.2382 851.726 76.2382 853.497 Q76.2382 857.201 73.4041 859.745 Q70.5378 862.257 65.8035 862.257 Q62.3575 862.257 58.9114 860.872 Q55.4332 859.455 52.8889 857.265 Q50.3125 855.043 48.7022 852.209 Q47.0919 849.343 47.0919 846.573 Q47.0919 844.641 48.2513 842.998 Q49.3785 841.356 51.2464 840.454 Q49.7006 840.293 49.0564 839.423 Q48.4123 838.522 48.4123 837.749 Q48.4123 836.879 48.8954 836.364 Q49.3463 835.816 50.1836 835.816 M54.2094 841.227 Q54.0161 841.227 53.5009 841.356 Q52.9534 841.484 52.0838 841.871 Q51.2142 842.225 50.4413 842.773 Q49.6684 843.32 49.1209 844.319 Q48.5411 845.285 48.5411 846.509 Q48.5411 848.505 50.2159 850.502 Q51.8584 852.499 54.4026 853.884 Q56.8503 855.172 61.5845 856.396 Q66.3188 857.587 68.7342 857.587 Q71.1175 857.587 72.9532 856.557 Q74.7889 855.526 74.7889 853.304 Q74.7889 850.728 72.4057 847.958 Q69.9258 845.092 67.8003 844.608 L55.2078 841.42 Q54.4348 841.227 54.2094 841.227 Z" fill="#000000" fill-rule="evenodd" fill-opacity="1" /><path clip-path="url(#clip680)" d="M 0 0 M34.6809 829.065 Q26.8807 829.065 20.5909 826.157 Q17.9532 824.917 15.7439 823.181 Q13.5346 821.445 12.5652 820.296 Q11.5958 819.146 11.5958 818.83 Q11.5958 818.379 12.0466 818.357 Q12.2721 818.357 12.8357 818.966 Q20.4105 826.405 34.6809 826.383 Q48.9964 826.383 56.2782 819.146 Q57.0672 818.357 57.3152 818.357 Q57.7661 818.357 57.7661 818.83 Q57.7661 819.146 56.8418 820.251 Q55.9175 821.355 53.7983 823.069 Q51.6792 824.782 49.0866 826.022 Q42.7968 829.065 34.6809 829.065 Z" fill="#000000" fill-rule="evenodd" fill-opacity="1" /><path clip-path="url(#clip680)" d="M 0 0 M46.2235 811.336 Q45.3894 811.336 45.1414 811.269 Q44.8934 811.178 44.5101 810.818 L34.6358 801.958 Q29.1802 797.111 24.4234 797.111 Q21.3348 797.111 19.1255 798.734 Q16.9162 800.335 16.9162 803.288 Q16.9162 805.317 18.1561 807.03 Q19.396 808.744 21.6053 809.533 Q21.5603 809.397 21.5603 808.924 Q21.5603 807.774 22.2817 807.143 Q23.0031 806.489 23.9725 806.489 Q25.2124 806.489 25.8211 807.301 Q26.4072 808.09 26.4072 808.879 Q26.4072 809.195 26.3396 809.623 Q26.272 810.029 25.6407 810.682 Q24.987 811.336 23.8372 811.336 Q20.6134 811.336 18.0434 808.901 Q15.4733 806.444 15.4733 802.702 Q15.4733 798.464 17.9983 795.691 Q20.5007 792.895 24.4234 792.895 Q25.7985 792.895 27.061 793.323 Q28.3009 793.729 29.2703 794.293 Q30.2397 794.834 31.7953 796.322 Q33.3508 797.81 34.4555 799.005 Q35.5601 800.199 37.9047 802.882 L42.6615 807.774 L42.6615 799.455 Q42.6615 795.398 42.3008 795.082 Q41.647 794.631 38.1978 794.067 L38.1978 792.895 L46.2235 794.203 L46.2235 811.336 Z" fill="#000000" fill-rule="evenodd" fill-opacity="1" /><path clip-path="url(#clip680)" d="M 0 0 M57.3152 788.471 Q57.0898 788.471 56.5262 787.885 Q48.9513 780.446 34.6809 780.446 Q20.3654 780.446 13.1288 787.592 Q12.2946 788.471 12.0466 788.471 Q11.5958 788.471 11.5958 788.02 Q11.5958 787.705 12.5201 786.6 Q13.4444 785.473 15.5635 783.782 Q17.6827 782.069 20.2752 780.806 Q26.565 777.763 34.6809 777.763 Q42.4812 777.763 48.771 780.671 Q51.4086 781.911 53.618 783.647 Q55.8273 785.383 56.7967 786.533 Q57.7661 787.682 57.7661 788.02 Q57.7661 788.471 57.3152 788.471 Z" fill="#000000" fill-rule="evenodd" fill-opacity="1" /><path clip-path="url(#clip680)" d="M 0 0 M59.7488 763.702 Q48.6056 763.702 39.6201 759.548 Q35.852 757.776 32.6959 755.296 Q29.5397 752.817 28.1548 751.174 Q26.77 749.532 26.77 749.081 Q26.77 748.437 27.4141 748.404 Q27.7362 748.404 28.5413 749.274 Q39.3625 759.902 59.7488 759.87 Q80.1995 759.87 90.602 749.532 Q91.7292 748.404 92.0835 748.404 Q92.7276 748.404 92.7276 749.081 Q92.7276 749.532 91.4071 751.11 Q90.0867 752.688 87.0594 755.135 Q84.032 757.583 80.3283 759.354 Q71.3429 763.702 59.7488 763.702 Z" fill="#000000" fill-rule="evenodd" fill-opacity="1" /><path clip-path="url(#clip680)" d="M 0 0 M49.3785 706.427 Q51.6329 706.427 51.6329 709.679 L51.6329 720.758 L74.2092 725.17 Q74.7889 725.267 75.111 725.396 Q75.433 725.492 75.9805 725.782 Q76.4958 726.04 76.7535 726.587 Q77.0433 727.103 77.0433 727.876 Q77.0433 728.842 76.4636 729.325 Q75.9161 729.776 75.2398 729.776 Q74.8211 729.776 72.8244 729.132 L51.6329 722.658 L51.6329 728.133 Q51.6329 733.286 56.7214 736.507 Q57.3978 737.022 57.4622 737.312 Q57.4944 737.441 57.4944 737.57 Q57.4944 737.924 57.3333 738.149 Q57.1723 738.343 57.0113 738.343 L56.8503 738.375 Q56.6248 738.375 55.7231 737.859 Q54.7891 737.312 53.4042 736.346 Q52.0194 735.347 50.9244 734.349 Q49.5073 733.029 48.7666 731.547 Q47.9936 730.066 47.897 729.325 Q47.8004 728.552 47.8004 727.554 L47.8004 709.067 Q47.8004 708.23 47.8648 707.779 Q47.897 707.328 48.2835 706.877 Q48.6378 706.427 49.3785 706.427 Z" fill="#000000" fill-rule="evenodd" fill-opacity="1" /><path clip-path="url(#clip680)" d="M 0 0 M92.0835 709.858 Q91.7614 709.858 90.9563 709.02 Q80.1351 698.392 59.7488 698.392 Q39.2981 698.392 28.96 708.601 Q27.7684 709.858 27.4141 709.858 Q26.77 709.858 26.77 709.213 Q26.77 708.763 28.0904 707.184 Q29.4109 705.574 32.4382 703.159 Q35.4656 700.711 39.1692 698.908 Q48.1547 694.56 59.7488 694.56 Q70.892 694.56 79.8775 698.714 Q83.6455 700.486 86.8017 702.965 Q89.9579 705.445 91.3427 707.088 Q92.7276 708.73 92.7276 709.213 Q92.7276 709.858 92.0835 709.858 Z" fill="#000000" fill-rule="evenodd" fill-opacity="1" /><path clip-path="url(#clip680)" d="M 0 0 M574.092 18.8205 L574.092 41.5461 L584.381 41.5461 Q590.093 41.5461 593.212 38.5889 Q596.331 35.6318 596.331 30.163 Q596.331 24.7348 593.212 21.7777 Q590.093 18.8205 584.381 18.8205 L574.092 18.8205 M565.909 12.096 L584.381 12.096 Q594.549 12.096 599.734 16.714 Q604.959 21.2916 604.959 30.163 Q604.959 39.1155 599.734 43.6931 Q594.549 48.2706 584.381 48.2706 L574.092 48.2706 L574.092 72.576 L565.909 72.576 L565.909 12.096 Z" fill="#000000" fill-rule="evenodd" fill-opacity="1" /><path clip-path="url(#clip680)" d="M 0 0 M653.327 45.1919 L653.327 72.576 L645.874 72.576 L645.874 45.4349 Q645.874 38.994 643.362 35.7938 Q640.85 32.5936 635.827 32.5936 Q629.791 32.5936 626.308 36.4419 Q622.824 40.2903 622.824 46.9338 L622.824 72.576 L615.33 72.576 L615.33 9.54393 L622.824 9.54393 L622.824 34.2544 Q625.498 30.163 629.103 28.1376 Q632.749 26.1121 637.488 26.1121 Q645.306 26.1121 649.317 30.9732 Q653.327 35.7938 653.327 45.1919 Z" fill="#000000" fill-rule="evenodd" fill-opacity="1" /><path clip-path="url(#clip680)" d="M 0 0 M685.775 32.4315 Q679.78 32.4315 676.296 37.1306 Q672.812 41.7891 672.812 49.9314 Q672.812 58.0738 676.255 62.7728 Q679.739 67.4314 685.775 67.4314 Q691.73 67.4314 695.214 62.7323 Q698.697 58.0333 698.697 49.9314 Q698.697 41.8701 695.214 37.1711 Q691.73 32.4315 685.775 32.4315 M685.775 26.1121 Q695.497 26.1121 701.047 32.4315 Q706.597 38.7509 706.597 49.9314 Q706.597 61.0714 701.047 67.4314 Q695.497 73.7508 685.775 73.7508 Q676.012 73.7508 670.463 67.4314 Q664.953 61.0714 664.953 49.9314 Q664.953 38.7509 670.463 32.4315 Q676.012 26.1121 685.775 26.1121 Z" fill="#000000" fill-rule="evenodd" fill-opacity="1" /><path clip-path="url(#clip680)" d="M 0 0 M726.325 14.324 L726.325 27.2059 L741.677 27.2059 L741.677 32.9987 L726.325 32.9987 L726.325 57.6282 Q726.325 63.1779 727.823 64.7578 Q729.363 66.3376 734.021 66.3376 L741.677 66.3376 L741.677 72.576 L734.021 72.576 Q725.393 72.576 722.112 69.3758 Q718.83 66.1351 718.83 57.6282 L718.83 32.9987 L713.362 32.9987 L713.362 27.2059 L718.83 27.2059 L718.83 14.324 L726.325 14.324 Z" fill="#000000" fill-rule="evenodd" fill-opacity="1" /><path clip-path="url(#clip680)" d="M 0 0 M769.062 32.4315 Q763.066 32.4315 759.582 37.1306 Q756.099 41.7891 756.099 49.9314 Q756.099 58.0738 759.542 62.7728 Q763.026 67.4314 769.062 67.4314 Q775.016 67.4314 778.5 62.7323 Q781.984 58.0333 781.984 49.9314 Q781.984 41.8701 778.5 37.1711 Q775.016 32.4315 769.062 32.4315 M769.062 26.1121 Q778.784 26.1121 784.333 32.4315 Q789.883 38.7509 789.883 49.9314 Q789.883 61.0714 784.333 67.4314 Q778.784 73.7508 769.062 73.7508 Q759.299 73.7508 753.749 67.4314 Q748.24 61.0714 748.24 49.9314 Q748.24 38.7509 753.749 32.4315 Q759.299 26.1121 769.062 26.1121 Z" fill="#000000" fill-rule="evenodd" fill-opacity="1" /><path clip-path="url(#clip680)" d="M 0 0 M839.952 45.1919 L839.952 72.576 L832.499 72.576 L832.499 45.4349 Q832.499 38.994 829.987 35.7938 Q827.476 32.5936 822.452 32.5936 Q816.417 32.5936 812.933 36.4419 Q809.449 40.2903 809.449 46.9338 L809.449 72.576 L801.955 72.576 L801.955 27.2059 L809.449 27.2059 L809.449 34.2544 Q812.123 30.163 815.728 28.1376 Q819.374 26.1121 824.113 26.1121 Q831.932 26.1121 835.942 30.9732 Q839.952 35.7938 839.952 45.1919 Z" fill="#000000" fill-rule="evenodd" fill-opacity="1" /><path clip-path="url(#clip680)" d="M 0 0 M926.804 16.7545 L926.804 25.383 Q922.672 21.5346 917.973 19.6307 Q913.314 17.7268 908.048 17.7268 Q897.678 17.7268 892.169 24.0867 Q886.659 30.4061 886.659 42.3968 Q886.659 54.3469 892.169 60.7069 Q897.678 67.0263 908.048 67.0263 Q913.314 67.0263 917.973 65.1223 Q922.672 63.2184 926.804 59.3701 L926.804 67.9175 Q922.51 70.8341 917.689 72.2924 Q912.909 73.7508 907.562 73.7508 Q893.829 73.7508 885.93 65.3654 Q878.031 56.9395 878.031 42.3968 Q878.031 27.8135 885.93 19.4281 Q893.829 11.0023 907.562 11.0023 Q912.99 11.0023 917.77 12.4606 Q922.591 13.8784 926.804 16.7545 Z" fill="#000000" fill-rule="evenodd" fill-opacity="1" /><path clip-path="url(#clip680)" d="M 0 0 M956.699 32.4315 Q950.704 32.4315 947.22 37.1306 Q943.737 41.7891 943.737 49.9314 Q943.737 58.0738 947.18 62.7728 Q950.664 67.4314 956.699 67.4314 Q962.654 67.4314 966.138 62.7323 Q969.622 58.0333 969.622 49.9314 Q969.622 41.8701 966.138 37.1711 Q962.654 32.4315 956.699 32.4315 M956.699 26.1121 Q966.422 26.1121 971.971 32.4315 Q977.521 38.7509 977.521 49.9314 Q977.521 61.0714 971.971 67.4314 Q966.422 73.7508 956.699 73.7508 Q946.937 73.7508 941.387 67.4314 Q935.878 61.0714 935.878 49.9314 Q935.878 38.7509 941.387 32.4315 Q946.937 26.1121 956.699 26.1121 Z" fill="#000000" fill-rule="evenodd" fill-opacity="1" /><path clip-path="url(#clip680)" d="M 0 0 M1016.17 34.1734 Q1014.91 33.4443 1013.41 33.1202 Q1011.95 32.7556 1010.17 32.7556 Q1003.85 32.7556 1000.45 36.8875 Q997.087 40.9789 997.087 48.6757 L997.087 72.576 L989.593 72.576 L989.593 27.2059 L997.087 27.2059 L997.087 34.2544 Q999.436 30.1225 1003.2 28.1376 Q1006.97 26.1121 1012.36 26.1121 Q1013.13 26.1121 1014.06 26.2337 Q1014.99 26.3147 1016.13 26.5172 L1016.17 34.1734 Z" fill="#000000" fill-rule="evenodd" fill-opacity="1" /><path clip-path="url(#clip680)" d="M 0 0 M1048.82 34.1734 Q1047.56 33.4443 1046.06 33.1202 Q1044.6 32.7556 1042.82 32.7556 Q1036.5 32.7556 1033.1 36.8875 Q1029.74 40.9789 1029.74 48.6757 L1029.74 72.576 L1022.24 72.576 L1022.24 27.2059 L1029.74 27.2059 L1029.74 34.2544 Q1032.09 30.1225 1035.85 28.1376 Q1039.62 26.1121 1045.01 26.1121 Q1045.78 26.1121 1046.71 26.2337 Q1047.64 26.3147 1048.78 26.5172 L1048.82 34.1734 Z" fill="#000000" fill-rule="evenodd" fill-opacity="1" /><path clip-path="url(#clip680)" d="M 0 0 M1093.62 48.0275 L1093.62 51.6733 L1059.35 51.6733 Q1059.84 59.3701 1063.97 63.421 Q1068.14 67.4314 1075.55 67.4314 Q1079.85 67.4314 1083.86 66.3781 Q1087.91 65.3249 1091.88 63.2184 L1091.88 70.267 Q1087.87 71.9684 1083.65 72.8596 Q1079.44 73.7508 1075.11 73.7508 Q1064.25 73.7508 1057.89 67.4314 Q1051.57 61.1119 1051.57 50.3365 Q1051.57 39.1965 1057.57 32.6746 Q1063.6 26.1121 1073.81 26.1121 Q1082.97 26.1121 1088.27 32.0264 Q1093.62 37.9003 1093.62 48.0275 M1086.17 45.84 Q1086.09 39.7232 1082.72 36.0774 Q1079.4 32.4315 1073.89 32.4315 Q1067.65 32.4315 1063.89 35.9558 Q1060.16 39.4801 1059.59 45.8805 L1086.17 45.84 Z" fill="#000000" fill-rule="evenodd" fill-opacity="1" /><path clip-path="url(#clip680)" d="M 0 0 M1105.85 9.54393 L1113.31 9.54393 L1113.31 72.576 L1105.85 72.576 L1105.85 9.54393 Z" fill="#000000" fill-rule="evenodd" fill-opacity="1" /><path clip-path="url(#clip680)" d="M 0 0 M1149.52 49.7694 Q1140.49 49.7694 1137.01 51.8354 Q1133.52 53.9013 1133.52 58.8839 Q1133.52 62.8538 1136.11 65.2034 Q1138.75 67.5124 1143.24 67.5124 Q1149.44 67.5124 1153.17 63.1374 Q1156.94 58.7219 1156.94 51.4303 L1156.94 49.7694 L1149.52 49.7694 M1164.39 46.6907 L1164.39 72.576 L1156.94 72.576 L1156.94 65.6895 Q1154.38 69.8214 1150.58 71.8063 Q1146.77 73.7508 1141.26 73.7508 Q1134.29 73.7508 1130.16 69.8619 Q1126.07 65.9325 1126.07 59.3701 Q1126.07 51.7138 1131.17 47.825 Q1136.32 43.9361 1146.48 43.9361 L1156.94 43.9361 L1156.94 43.2069 Q1156.94 38.0623 1153.53 35.2672 Q1150.17 32.4315 1144.05 32.4315 Q1140.16 32.4315 1136.48 33.3632 Q1132.79 34.295 1129.39 36.1584 L1129.39 29.2718 Q1133.48 27.692 1137.33 26.9223 Q1141.18 26.1121 1144.82 26.1121 Q1154.67 26.1121 1159.53 31.2163 Q1164.39 36.3204 1164.39 46.6907 Z" fill="#000000" fill-rule="evenodd" fill-opacity="1" /><path clip-path="url(#clip680)" d="M 0 0 M1187.11 14.324 L1187.11 27.2059 L1202.47 27.2059 L1202.47 32.9987 L1187.11 32.9987 L1187.11 57.6282 Q1187.11 63.1779 1188.61 64.7578 Q1190.15 66.3376 1194.81 66.3376 L1202.47 66.3376 L1202.47 72.576 L1194.81 72.576 Q1186.18 72.576 1182.9 69.3758 Q1179.62 66.1351 1179.62 57.6282 L1179.62 32.9987 L1174.15 32.9987 L1174.15 27.2059 L1179.62 27.2059 L1179.62 14.324 L1187.11 14.324 Z" fill="#000000" fill-rule="evenodd" fill-opacity="1" /><path clip-path="url(#clip680)" d="M 0 0 M1212.27 27.2059 L1219.72 27.2059 L1219.72 72.576 L1212.27 72.576 L1212.27 27.2059 M1212.27 9.54393 L1219.72 9.54393 L1219.72 18.9825 L1212.27 18.9825 L1212.27 9.54393 Z" fill="#000000" fill-rule="evenodd" fill-opacity="1" /><path clip-path="url(#clip680)" d="M 0 0 M1252.9 32.4315 Q1246.91 32.4315 1243.42 37.1306 Q1239.94 41.7891 1239.94 49.9314 Q1239.94 58.0738 1243.38 62.7728 Q1246.87 67.4314 1252.9 67.4314 Q1258.86 67.4314 1262.34 62.7323 Q1265.82 58.0333 1265.82 49.9314 Q1265.82 41.8701 1262.34 37.1711 Q1258.86 32.4315 1252.9 32.4315 M1252.9 26.1121 Q1262.62 26.1121 1268.17 32.4315 Q1273.72 38.7509 1273.72 49.9314 Q1273.72 61.0714 1268.17 67.4314 Q1262.62 73.7508 1252.9 73.7508 Q1243.14 73.7508 1237.59 67.4314 Q1232.08 61.0714 1232.08 49.9314 Q1232.08 38.7509 1237.59 32.4315 Q1243.14 26.1121 1252.9 26.1121 Z" fill="#000000" fill-rule="evenodd" fill-opacity="1" /><path clip-path="url(#clip680)" d="M 0 0 M1323.79 45.1919 L1323.79 72.576 L1316.34 72.576 L1316.34 45.4349 Q1316.34 38.994 1313.83 35.7938 Q1311.32 32.5936 1306.29 32.5936 Q1300.26 32.5936 1296.77 36.4419 Q1293.29 40.2903 1293.29 46.9338 L1293.29 72.576 L1285.79 72.576 L1285.79 27.2059 L1293.29 27.2059 L1293.29 34.2544 Q1295.96 30.163 1299.57 28.1376 Q1303.21 26.1121 1307.95 26.1121 Q1315.77 26.1121 1319.78 30.9732 Q1323.79 35.7938 1323.79 45.1919 Z" fill="#000000" fill-rule="evenodd" fill-opacity="1" /><path clip-path="url(#clip680)" d="M 0 0 M1367.58 28.5427 L1367.58 35.5912 Q1364.42 33.9709 1361.02 33.1607 Q1357.62 32.3505 1353.97 32.3505 Q1348.42 32.3505 1345.63 34.0519 Q1342.87 35.7533 1342.87 39.156 Q1342.87 41.7486 1344.86 43.2475 Q1346.84 44.7058 1352.84 46.0426 L1355.39 46.6097 Q1363.33 48.3111 1366.65 51.4303 Q1370.01 54.509 1370.01 60.0587 Q1370.01 66.3781 1364.99 70.0644 Q1360.01 73.7508 1351.26 73.7508 Q1347.61 73.7508 1343.64 73.0216 Q1339.71 72.3329 1335.34 70.9151 L1335.34 63.2184 Q1339.47 65.3654 1343.48 66.4591 Q1347.49 67.5124 1351.42 67.5124 Q1356.69 67.5124 1359.52 65.73 Q1362.36 63.9071 1362.36 60.6258 Q1362.36 57.5877 1360.29 55.9673 Q1358.27 54.3469 1351.34 52.8481 L1348.75 52.2405 Q1341.82 50.7821 1338.74 47.7845 Q1335.66 44.7463 1335.66 39.4801 Q1335.66 33.0797 1340.2 29.5959 Q1344.74 26.1121 1353.08 26.1121 Q1357.21 26.1121 1360.86 26.7198 Q1364.5 27.3274 1367.58 28.5427 Z" fill="#000000" fill-rule="evenodd" fill-opacity="1" /><path clip-path="url(#clip680)" d="M 0 0 M1402.91 27.2059 L1410.81 27.2059 L1424.98 65.2844 L1439.16 27.2059 L1447.06 27.2059 L1430.05 72.576 L1419.92 72.576 L1402.91 27.2059 Z" fill="#000000" fill-rule="evenodd" fill-opacity="1" /><path clip-path="url(#clip680)" d="M 0 0 M1486.27 28.5427 L1486.27 35.5912 Q1483.11 33.9709 1479.71 33.1607 Q1476.31 32.3505 1472.66 32.3505 Q1467.11 32.3505 1464.32 34.0519 Q1461.56 35.7533 1461.56 39.156 Q1461.56 41.7486 1463.55 43.2475 Q1465.53 44.7058 1471.53 46.0426 L1474.08 46.6097 Q1482.02 48.3111 1485.34 51.4303 Q1488.7 54.509 1488.7 60.0587 Q1488.7 66.3781 1483.68 70.0644 Q1478.7 73.7508 1469.95 73.7508 Q1466.3 73.7508 1462.33 73.0216 Q1458.4 72.3329 1454.03 70.9151 L1454.03 63.2184 Q1458.16 65.3654 1462.17 66.4591 Q1466.18 67.5124 1470.11 67.5124 Q1475.38 67.5124 1478.21 65.73 Q1481.05 63.9071 1481.05 60.6258 Q1481.05 57.5877 1478.98 55.9673 Q1476.96 54.3469 1470.03 52.8481 L1467.44 52.2405 Q1460.51 50.7821 1457.43 47.7845 Q1454.35 44.7463 1454.35 39.4801 Q1454.35 33.0797 1458.89 29.5959 Q1463.43 26.1121 1471.77 26.1121 Q1475.9 26.1121 1479.55 26.7198 Q1483.2 27.3274 1486.27 28.5427 Z" fill="#000000" fill-rule="evenodd" fill-opacity="1" /><path clip-path="url(#clip680)" d="M 0 0 M1518.88 12.096 L1570.05 12.096 L1570.05 18.9825 L1548.58 18.9825 L1548.58 72.576 L1540.35 72.576 L1540.35 18.9825 L1518.88 18.9825 L1518.88 12.096 Z" fill="#000000" fill-rule="evenodd" fill-opacity="1" /><path clip-path="url(#clip680)" d="M 0 0 M1575.07 27.2059 L1582.52 27.2059 L1582.52 72.576 L1575.07 72.576 L1575.07 27.2059 M1575.07 9.54393 L1582.52 9.54393 L1582.52 18.9825 L1575.07 18.9825 L1575.07 9.54393 Z" fill="#000000" fill-rule="evenodd" fill-opacity="1" /><path clip-path="url(#clip680)" d="M 0 0 M1633.44 35.9153 Q1636.24 30.8922 1640.13 28.5022 Q1644.02 26.1121 1649.28 26.1121 Q1656.37 26.1121 1660.22 31.0947 Q1664.07 36.0368 1664.07 45.1919 L1664.07 72.576 L1656.57 72.576 L1656.57 45.4349 Q1656.57 38.913 1654.27 35.7533 Q1651.96 32.5936 1647.22 32.5936 Q1641.42 32.5936 1638.06 36.4419 Q1634.7 40.2903 1634.7 46.9338 L1634.7 72.576 L1627.21 72.576 L1627.21 45.4349 Q1627.21 38.8725 1624.9 35.7533 Q1622.59 32.5936 1617.77 32.5936 Q1612.05 32.5936 1608.69 36.4824 Q1605.33 40.3308 1605.33 46.9338 L1605.33 72.576 L1597.84 72.576 L1597.84 27.2059 L1605.33 27.2059 L1605.33 34.2544 Q1607.88 30.082 1611.45 28.0971 Q1615.01 26.1121 1619.91 26.1121 Q1624.86 26.1121 1628.3 28.6237 Q1631.78 31.1352 1633.44 35.9153 Z" fill="#000000" fill-rule="evenodd" fill-opacity="1" /><path clip-path="url(#clip680)" d="M 0 0 M1717.74 48.0275 L1717.74 51.6733 L1683.47 51.6733 Q1683.96 59.3701 1688.09 63.421 Q1692.26 67.4314 1699.68 67.4314 Q1703.97 67.4314 1707.98 66.3781 Q1712.03 65.3249 1716 63.2184 L1716 70.267 Q1711.99 71.9684 1707.78 72.8596 Q1703.56 73.7508 1699.23 73.7508 Q1688.37 73.7508 1682.01 67.4314 Q1675.69 61.1119 1675.69 50.3365 Q1675.69 39.1965 1681.69 32.6746 Q1687.73 26.1121 1697.93 26.1121 Q1707.09 26.1121 1712.4 32.0264 Q1717.74 37.9003 1717.74 48.0275 M1710.29 45.84 Q1710.21 39.7232 1706.85 36.0774 Q1703.52 32.4315 1698.01 32.4315 Q1691.78 32.4315 1688.01 35.9558 Q1684.28 39.4801 1683.72 45.8805 L1710.29 45.84 Z" fill="#000000" fill-rule="evenodd" fill-opacity="1" /><path clip-path="url(#clip680)" d="M 0 0 M1781.22 17.6457 Q1772.31 17.6457 1767.04 24.2892 Q1761.82 30.9327 1761.82 42.3968 Q1761.82 53.8203 1767.04 60.4638 Q1772.31 67.1073 1781.22 67.1073 Q1790.13 67.1073 1795.32 60.4638 Q1800.54 53.8203 1800.54 42.3968 Q1800.54 30.9327 1795.32 24.2892 Q1790.13 17.6457 1781.22 17.6457 M1781.22 11.0023 Q1793.94 11.0023 1801.56 19.5497 Q1809.17 28.0566 1809.17 42.3968 Q1809.17 56.6965 1801.56 65.2439 Q1793.94 73.7508 1781.22 73.7508 Q1768.46 73.7508 1760.8 65.2439 Q1753.19 56.737 1753.19 42.3968 Q1753.19 28.0566 1760.8 19.5497 Q1768.46 11.0023 1781.22 11.0023 Z" fill="#000000" fill-rule="evenodd" fill-opacity="1" /><path clip-path="url(#clip680)" d="M 0 0 M1844.62 9.54393 L1844.62 15.7418 L1837.49 15.7418 Q1833.48 15.7418 1831.9 17.3622 Q1830.36 18.9825 1830.36 23.1955 L1830.36 27.2059 L1842.63 27.2059 L1842.63 32.9987 L1830.36 32.9987 L1830.36 72.576 L1822.86 72.576 L1822.86 32.9987 L1815.73 32.9987 L1815.73 27.2059 L1822.86 27.2059 L1822.86 24.0462 Q1822.86 16.471 1826.39 13.0277 Q1829.91 9.54393 1837.57 9.54393 L1844.62 9.54393 Z" fill="#000000" fill-rule="evenodd" fill-opacity="1" /><path clip-path="url(#clip680)" d="M 0 0 M1873.82 9.54393 L1873.82 15.7418 L1866.69 15.7418 Q1862.68 15.7418 1861.1 17.3622 Q1859.56 18.9825 1859.56 23.1955 L1859.56 27.2059 L1871.84 27.2059 L1871.84 32.9987 L1859.56 32.9987 L1859.56 72.576 L1852.07 72.576 L1852.07 32.9987 L1844.94 32.9987 L1844.94 27.2059 L1852.07 27.2059 L1852.07 24.0462 Q1852.07 16.471 1855.6 13.0277 Q1859.12 9.54393 1866.78 9.54393 L1873.82 9.54393 Z" fill="#000000" fill-rule="evenodd" fill-opacity="1" /><path clip-path="url(#clip680)" d="M 0 0 M1908.99 28.5427 L1908.99 35.5912 Q1905.83 33.9709 1902.42 33.1607 Q1899.02 32.3505 1895.37 32.3505 Q1889.83 32.3505 1887.03 34.0519 Q1884.28 35.7533 1884.28 39.156 Q1884.28 41.7486 1886.26 43.2475 Q1888.25 44.7058 1894.24 46.0426 L1896.79 46.6097 Q1904.73 48.3111 1908.05 51.4303 Q1911.42 54.509 1911.42 60.0587 Q1911.42 66.3781 1906.39 70.0644 Q1901.41 73.7508 1892.66 73.7508 Q1889.02 73.7508 1885.05 73.0216 Q1881.12 72.3329 1876.74 70.9151 L1876.74 63.2184 Q1880.87 65.3654 1884.88 66.4591 Q1888.89 67.5124 1892.82 67.5124 Q1898.09 67.5124 1900.92 65.73 Q1903.76 63.9071 1903.76 60.6258 Q1903.76 57.5877 1901.69 55.9673 Q1899.67 54.3469 1892.74 52.8481 L1890.15 52.2405 Q1883.22 50.7821 1880.14 47.7845 Q1877.06 44.7463 1877.06 39.4801 Q1877.06 33.0797 1881.6 29.5959 Q1886.14 26.1121 1894.48 26.1121 Q1898.62 26.1121 1902.26 26.7198 Q1905.91 27.3274 1908.99 28.5427 Z" fill="#000000" fill-rule="evenodd" fill-opacity="1" /><path clip-path="url(#clip680)" d="M 0 0 M1962.09 48.0275 L1962.09 51.6733 L1927.82 51.6733 Q1928.31 59.3701 1932.44 63.421 Q1936.61 67.4314 1944.03 67.4314 Q1948.32 67.4314 1952.33 66.3781 Q1956.38 65.3249 1960.35 63.2184 L1960.35 70.267 Q1956.34 71.9684 1952.13 72.8596 Q1947.92 73.7508 1943.58 73.7508 Q1932.72 73.7508 1926.36 67.4314 Q1920.04 61.1119 1920.04 50.3365 Q1920.04 39.1965 1926.04 32.6746 Q1932.08 26.1121 1942.28 26.1121 Q1951.44 26.1121 1956.75 32.0264 Q1962.09 37.9003 1962.09 48.0275 M1954.64 45.84 Q1954.56 39.7232 1951.2 36.0774 Q1947.87 32.4315 1942.37 32.4315 Q1936.13 32.4315 1932.36 35.9558 Q1928.63 39.4801 1928.07 45.8805 L1954.64 45.84 Z" fill="#000000" fill-rule="evenodd" fill-opacity="1" /><path clip-path="url(#clip680)" d="M 0 0 M1981.7 14.324 L1981.7 27.2059 L1997.05 27.2059 L1997.05 32.9987 L1981.7 32.9987 L1981.7 57.6282 Q1981.7 63.1779 1983.2 64.7578 Q1984.74 66.3376 1989.4 66.3376 L1997.05 66.3376 L1997.05 72.576 L1989.4 72.576 Q1980.77 72.576 1977.49 69.3758 Q1974.21 66.1351 1974.21 57.6282 L1974.21 32.9987 L1968.74 32.9987 L1968.74 27.2059 L1974.21 27.2059 L1974.21 14.324 L1981.7 14.324 Z" fill="#000000" fill-rule="evenodd" fill-opacity="1" /><polyline clip-path="url(#clip683)" style="stroke:#009af9; stroke-width:4; stroke-opacity:1; fill:none" points="
  270.844,903.704 293.624,903.704 355.754,903.704 361.967,903.704 388.889,903.704 411.67,903.704 444.806,903.704 529.716,903.704 560.781,903.704 610.484,903.704 
  631.194,903.704 643.62,680.704 728.53,680.704 732.672,680.704 755.452,680.704 765.807,680.704 774.091,680.704 788.588,680.704 798.943,680.704 823.795,680.704 
  879.711,1070.95 941.84,1201.04 1022.61,1201.04 1078.52,368.503 1093.02,1305.11 1148.94,1070.95 1200.71,1070.95 1223.49,1201.04 1235.92,1201.04 1277.34,1201.04 
  1291.84,1201.04 1347.75,1201.04 1399.53,1201.04 1422.31,1201.04 1469.94,1305.11 1490.65,1305.11 1492.72,1305.11 1612.84,1305.11 1635.62,1305.11 1708.1,1305.11 
  1728.81,1305.11 1759.88,1390.25 1875.85,1201.04 1896.56,1201.04 1917.27,1201.04 1927.63,1201.04 2085.02,160.369 2169.93,1201.04 2190.64,1201.04 2221.7,1201.04 
  2225.85,1201.04 2246.56,1201.04 2252.77,1201.04 2277.62,1201.04 2292.12,1201.04 
  "/>
</svg>
