<?xml version="1.0" encoding="utf-8"?>
<svg xmlns="http://www.w3.org/2000/svg" xmlns:xlink="http://www.w3.org/1999/xlink" width="600" height="400" viewBox="0 0 2400 1600">
<defs>
  <clipPath id="clip620">
    <rect x="0" y="0" width="2400" height="1600"/>
  </clipPath>
</defs>
<path clip-path="url(#clip620)" d="
M0 1600 L2400 1600 L2400 0 L0 0  Z
  " fill="#ffffff" fill-rule="evenodd" fill-opacity="1"/>
<defs>
  <clipPath id="clip621">
    <rect x="480" y="0" width="1681" height="1600"/>
  </clipPath>
</defs>
<defs>
  <clipPath id="clip622">
    <rect x="220" y="123" width="2133" height="1301"/>
  </clipPath>
</defs>
<path clip-path="url(#clip620)" d="
M297.656 1423.18 L2352.76 1423.18 L2352.76 123.472 L297.656 123.472  Z
  " fill="#ffffff" fill-rule="evenodd" fill-opacity="1"/>
<defs>
  <clipPath id="clip623">
    <rect x="297" y="123" width="2056" height="1301"/>
  </clipPath>
</defs>
<polyline clip-path="url(#clip623)" style="stroke:#000000; stroke-width:2; stroke-opacity:0.1; fill:none" points="
  355.82,1423.18 355.82,123.472 
  "/>
<polyline clip-path="url(#clip623)" style="stroke:#000000; stroke-width:2; stroke-opacity:0.1; fill:none" points="
  743.967,1423.18 743.967,123.472 
  "/>
<polyline clip-path="url(#clip623)" style="stroke:#000000; stroke-width:2; stroke-opacity:0.1; fill:none" points="
  1132.11,1423.18 1132.11,123.472 
  "/>
<polyline clip-path="url(#clip623)" style="stroke:#000000; stroke-width:2; stroke-opacity:0.1; fill:none" points="
  1520.26,1423.18 1520.26,123.472 
  "/>
<polyline clip-path="url(#clip623)" style="stroke:#000000; stroke-width:2; stroke-opacity:0.1; fill:none" points="
  1908.41,1423.18 1908.41,123.472 
  "/>
<polyline clip-path="url(#clip623)" style="stroke:#000000; stroke-width:2; stroke-opacity:0.1; fill:none" points="
  2296.56,1423.18 2296.56,123.472 
  "/>
<polyline clip-path="url(#clip620)" style="stroke:#000000; stroke-width:4; stroke-opacity:1; fill:none" points="
  297.656,1423.18 2352.76,1423.18 
  "/>
<polyline clip-path="url(#clip620)" style="stroke:#000000; stroke-width:4; stroke-opacity:1; fill:none" points="
  355.82,1423.18 355.82,1407.58 
  "/>
<polyline clip-path="url(#clip620)" style="stroke:#000000; stroke-width:4; stroke-opacity:1; fill:none" points="
  743.967,1423.18 743.967,1407.58 
  "/>
<polyline clip-path="url(#clip620)" style="stroke:#000000; stroke-width:4; stroke-opacity:1; fill:none" points="
  1132.11,1423.18 1132.11,1407.58 
  "/>
<polyline clip-path="url(#clip620)" style="stroke:#000000; stroke-width:4; stroke-opacity:1; fill:none" points="
  1520.26,1423.18 1520.26,1407.58 
  "/>
<polyline clip-path="url(#clip620)" style="stroke:#000000; stroke-width:4; stroke-opacity:1; fill:none" points="
  1908.41,1423.18 1908.41,1407.58 
  "/>
<polyline clip-path="url(#clip620)" style="stroke:#000000; stroke-width:4; stroke-opacity:1; fill:none" points="
  2296.56,1423.18 2296.56,1407.58 
  "/>
<path clip-path="url(#clip620)" d="M 0 0 M355.82 1452.37 Q352.208 1452.37 350.38 1455.94 Q348.574 1459.48 348.574 1466.61 Q348.574 1473.71 350.38 1477.28 Q352.208 1480.82 355.82 1480.82 Q359.454 1480.82 361.259 1477.28 Q363.088 1473.71 363.088 1466.61 Q363.088 1459.48 361.259 1455.94 Q359.454 1452.37 355.82 1452.37 M355.82 1448.67 Q361.63 1448.67 364.685 1453.27 Q367.764 1457.86 367.764 1466.61 Q367.764 1475.33 364.685 1479.94 Q361.63 1484.52 355.82 1484.52 Q350.009 1484.52 346.931 1479.94 Q343.875 1475.33 343.875 1466.61 Q343.875 1457.86 346.931 1453.27 Q350.009 1448.67 355.82 1448.67 Z" fill="#000000" fill-rule="evenodd" fill-opacity="1" /><path clip-path="url(#clip620)" d="M 0 0 M718.654 1479.92 L726.293 1479.92 L726.293 1453.55 L717.983 1455.22 L717.983 1450.96 L726.247 1449.29 L730.923 1449.29 L730.923 1479.92 L738.562 1479.92 L738.562 1483.85 L718.654 1483.85 L718.654 1479.92 Z" fill="#000000" fill-rule="evenodd" fill-opacity="1" /><path clip-path="url(#clip620)" d="M 0 0 M758.006 1452.37 Q754.395 1452.37 752.566 1455.94 Q750.761 1459.48 750.761 1466.61 Q750.761 1473.71 752.566 1477.28 Q754.395 1480.82 758.006 1480.82 Q761.64 1480.82 763.446 1477.28 Q765.274 1473.71 765.274 1466.61 Q765.274 1459.48 763.446 1455.94 Q761.64 1452.37 758.006 1452.37 M758.006 1448.67 Q763.816 1448.67 766.872 1453.27 Q769.95 1457.86 769.95 1466.61 Q769.95 1475.33 766.872 1479.94 Q763.816 1484.52 758.006 1484.52 Q752.196 1484.52 749.117 1479.94 Q746.062 1475.33 746.062 1466.61 Q746.062 1457.86 749.117 1453.27 Q752.196 1448.67 758.006 1448.67 Z" fill="#000000" fill-rule="evenodd" fill-opacity="1" /><path clip-path="url(#clip620)" d="M 0 0 M1110.89 1479.92 L1127.21 1479.92 L1127.21 1483.85 L1105.26 1483.85 L1105.26 1479.92 Q1107.92 1477.16 1112.51 1472.53 Q1117.11 1467.88 1118.29 1466.54 Q1120.54 1464.01 1121.42 1462.28 Q1122.32 1460.52 1122.32 1458.83 Q1122.32 1456.07 1120.38 1454.34 Q1118.46 1452.6 1115.35 1452.6 Q1113.16 1452.6 1110.7 1453.37 Q1108.27 1454.13 1105.49 1455.68 L1105.49 1450.96 Q1108.32 1449.82 1110.77 1449.25 Q1113.22 1448.67 1115.26 1448.67 Q1120.63 1448.67 1123.83 1451.35 Q1127.02 1454.04 1127.02 1458.53 Q1127.02 1460.66 1126.21 1462.58 Q1125.42 1464.48 1123.32 1467.07 Q1122.74 1467.74 1119.64 1470.96 Q1116.54 1474.15 1110.89 1479.92 Z" fill="#000000" fill-rule="evenodd" fill-opacity="1" /><path clip-path="url(#clip620)" d="M 0 0 M1147.02 1452.37 Q1143.41 1452.37 1141.58 1455.94 Q1139.78 1459.48 1139.78 1466.61 Q1139.78 1473.71 1141.58 1477.28 Q1143.41 1480.82 1147.02 1480.82 Q1150.66 1480.82 1152.46 1477.28 Q1154.29 1473.71 1154.29 1466.61 Q1154.29 1459.48 1152.46 1455.94 Q1150.66 1452.37 1147.02 1452.37 M1147.02 1448.67 Q1152.83 1448.67 1155.89 1453.27 Q1158.97 1457.86 1158.97 1466.61 Q1158.97 1475.33 1155.89 1479.94 Q1152.83 1484.52 1147.02 1484.52 Q1141.21 1484.52 1138.13 1479.94 Q1135.08 1475.33 1135.08 1466.61 Q1135.08 1457.86 1138.13 1453.27 Q1141.21 1448.67 1147.02 1448.67 Z" fill="#000000" fill-rule="evenodd" fill-opacity="1" /><path clip-path="url(#clip620)" d="M 0 0 M1509.1 1465.22 Q1512.46 1465.94 1514.33 1468.2 Q1516.23 1470.47 1516.23 1473.81 Q1516.23 1478.92 1512.71 1481.72 Q1509.2 1484.52 1502.71 1484.52 Q1500.54 1484.52 1498.22 1484.08 Q1495.93 1483.67 1493.48 1482.81 L1493.48 1478.3 Q1495.42 1479.43 1497.74 1480.01 Q1500.05 1480.59 1502.58 1480.59 Q1506.97 1480.59 1509.27 1478.85 Q1511.58 1477.12 1511.58 1473.81 Q1511.58 1470.75 1509.43 1469.04 Q1507.3 1467.3 1503.48 1467.3 L1499.45 1467.3 L1499.45 1463.46 L1503.66 1463.46 Q1507.11 1463.46 1508.94 1462.09 Q1510.77 1460.7 1510.77 1458.11 Q1510.77 1455.45 1508.87 1454.04 Q1507 1452.6 1503.48 1452.6 Q1501.56 1452.6 1499.36 1453.02 Q1497.16 1453.44 1494.52 1454.31 L1494.52 1450.15 Q1497.18 1449.41 1499.5 1449.04 Q1501.84 1448.67 1503.9 1448.67 Q1509.22 1448.67 1512.32 1451.1 Q1515.42 1453.5 1515.42 1457.63 Q1515.42 1460.5 1513.78 1462.49 Q1512.14 1464.45 1509.1 1465.22 Z" fill="#000000" fill-rule="evenodd" fill-opacity="1" /><path clip-path="url(#clip620)" d="M 0 0 M1535.1 1452.37 Q1531.49 1452.37 1529.66 1455.94 Q1527.85 1459.48 1527.85 1466.61 Q1527.85 1473.71 1529.66 1477.28 Q1531.49 1480.82 1535.1 1480.82 Q1538.73 1480.82 1540.54 1477.28 Q1542.37 1473.71 1542.37 1466.61 Q1542.37 1459.48 1540.54 1455.94 Q1538.73 1452.37 1535.1 1452.37 M1535.1 1448.67 Q1540.91 1448.67 1543.96 1453.27 Q1547.04 1457.86 1547.04 1466.61 Q1547.04 1475.33 1543.96 1479.94 Q1540.91 1484.52 1535.1 1484.52 Q1529.29 1484.52 1526.21 1479.94 Q1523.15 1475.33 1523.15 1466.61 Q1523.15 1457.86 1526.21 1453.27 Q1529.29 1448.67 1535.1 1448.67 Z" fill="#000000" fill-rule="evenodd" fill-opacity="1" /><path clip-path="url(#clip620)" d="M 0 0 M1896.58 1453.37 L1884.77 1471.81 L1896.58 1471.81 L1896.58 1453.37 M1895.35 1449.29 L1901.23 1449.29 L1901.23 1471.81 L1906.16 1471.81 L1906.16 1475.7 L1901.23 1475.7 L1901.23 1483.85 L1896.58 1483.85 L1896.58 1475.7 L1880.98 1475.7 L1880.98 1471.19 L1895.35 1449.29 Z" fill="#000000" fill-rule="evenodd" fill-opacity="1" /><path clip-path="url(#clip620)" d="M 0 0 M1923.89 1452.37 Q1920.28 1452.37 1918.45 1455.94 Q1916.65 1459.48 1916.65 1466.61 Q1916.65 1473.71 1918.45 1477.28 Q1920.28 1480.82 1923.89 1480.82 Q1927.53 1480.82 1929.33 1477.28 Q1931.16 1473.71 1931.16 1466.61 Q1931.16 1459.48 1929.33 1455.94 Q1927.53 1452.37 1923.89 1452.37 M1923.89 1448.67 Q1929.7 1448.67 1932.76 1453.27 Q1935.84 1457.86 1935.84 1466.61 Q1935.84 1475.33 1932.76 1479.94 Q1929.7 1484.52 1923.89 1484.52 Q1918.08 1484.52 1915.01 1479.94 Q1911.95 1475.33 1911.95 1466.61 Q1911.95 1457.86 1915.01 1453.27 Q1918.08 1448.67 1923.89 1448.67 Z" fill="#000000" fill-rule="evenodd" fill-opacity="1" /><path clip-path="url(#clip620)" d="M 0 0 M2271.25 1449.29 L2289.61 1449.29 L2289.61 1453.23 L2275.54 1453.23 L2275.54 1461.7 Q2276.56 1461.35 2277.57 1461.19 Q2278.59 1461 2279.61 1461 Q2285.4 1461 2288.78 1464.18 Q2292.16 1467.35 2292.16 1472.76 Q2292.16 1478.34 2288.68 1481.44 Q2285.21 1484.52 2278.89 1484.52 Q2276.72 1484.52 2274.45 1484.15 Q2272.2 1483.78 2269.8 1483.04 L2269.8 1478.34 Q2271.88 1479.48 2274.1 1480.03 Q2276.32 1480.59 2278.8 1480.59 Q2282.81 1480.59 2285.14 1478.48 Q2287.48 1476.38 2287.48 1472.76 Q2287.48 1469.15 2285.14 1467.05 Q2282.81 1464.94 2278.8 1464.94 Q2276.93 1464.94 2275.05 1465.36 Q2273.2 1465.77 2271.25 1466.65 L2271.25 1449.29 Z" fill="#000000" fill-rule="evenodd" fill-opacity="1" /><path clip-path="url(#clip620)" d="M 0 0 M2311.37 1452.37 Q2307.76 1452.37 2305.93 1455.94 Q2304.12 1459.48 2304.12 1466.61 Q2304.12 1473.71 2305.93 1477.28 Q2307.76 1480.82 2311.37 1480.82 Q2315 1480.82 2316.81 1477.28 Q2318.64 1473.71 2318.64 1466.61 Q2318.64 1459.48 2316.81 1455.94 Q2315 1452.37 2311.37 1452.37 M2311.37 1448.67 Q2317.18 1448.67 2320.24 1453.27 Q2323.31 1457.86 2323.31 1466.61 Q2323.31 1475.33 2320.24 1479.94 Q2317.18 1484.52 2311.37 1484.52 Q2305.56 1484.52 2302.48 1479.94 Q2299.43 1475.33 2299.43 1466.61 Q2299.43 1457.86 2302.48 1453.27 Q2305.56 1448.67 2311.37 1448.67 Z" fill="#000000" fill-rule="evenodd" fill-opacity="1" /><path clip-path="url(#clip620)" d="M 0 0 M1085.31 1518.52 L1085.31 1523.39 L1079.71 1523.39 Q1076.56 1523.39 1075.32 1524.66 Q1074.11 1525.93 1074.11 1529.24 L1074.11 1532.4 L1083.75 1532.4 L1083.75 1536.95 L1074.11 1536.95 L1074.11 1568.04 L1068.22 1568.04 L1068.22 1536.95 L1062.62 1536.95 L1062.62 1532.4 L1068.22 1532.4 L1068.22 1529.91 Q1068.22 1523.96 1070.99 1521.26 Q1073.76 1518.52 1079.78 1518.52 L1085.31 1518.52 Z" fill="#000000" fill-rule="evenodd" fill-opacity="1" /><path clip-path="url(#clip620)" d="M 0 0 M1110.87 1537.87 Q1109.89 1537.3 1108.71 1537.04 Q1107.56 1536.76 1106.16 1536.76 Q1101.2 1536.76 1098.52 1540 Q1095.88 1543.22 1095.88 1549.27 L1095.88 1568.04 L1089.99 1568.04 L1089.99 1532.4 L1095.88 1532.4 L1095.88 1537.93 Q1097.73 1534.69 1100.69 1533.13 Q1103.65 1531.54 1107.88 1531.54 Q1108.49 1531.54 1109.22 1531.63 Q1109.95 1531.7 1110.84 1531.85 L1110.87 1537.87 Z" fill="#000000" fill-rule="evenodd" fill-opacity="1" /><path clip-path="url(#clip620)" d="M 0 0 M1146.08 1548.76 L1146.08 1551.62 L1119.15 1551.62 Q1119.53 1557.67 1122.78 1560.85 Q1126.05 1564 1131.88 1564 Q1135.25 1564 1138.4 1563.17 Q1141.59 1562.35 1144.71 1560.69 L1144.71 1566.23 Q1141.56 1567.57 1138.25 1568.27 Q1134.94 1568.97 1131.53 1568.97 Q1123 1568.97 1118 1564 Q1113.04 1559.04 1113.04 1550.57 Q1113.04 1541.82 1117.75 1536.69 Q1122.49 1531.54 1130.51 1531.54 Q1137.7 1531.54 1141.87 1536.18 Q1146.08 1540.8 1146.08 1548.76 M1140.22 1547.04 Q1140.16 1542.23 1137.51 1539.37 Q1134.9 1536.5 1130.57 1536.5 Q1125.67 1536.5 1122.71 1539.27 Q1119.78 1542.04 1119.34 1547.07 L1140.22 1547.04 Z" fill="#000000" fill-rule="evenodd" fill-opacity="1" /><path clip-path="url(#clip620)" d="M 0 0 M1159.19 1550.25 Q1159.19 1556.71 1161.83 1560.4 Q1164.5 1564.07 1169.15 1564.07 Q1173.8 1564.07 1176.47 1560.4 Q1179.14 1556.71 1179.14 1550.25 Q1179.14 1543.79 1176.47 1540.13 Q1173.8 1536.44 1169.15 1536.44 Q1164.5 1536.44 1161.83 1540.13 Q1159.19 1543.79 1159.19 1550.25 M1179.14 1562.7 Q1177.3 1565.88 1174.47 1567.44 Q1171.67 1568.97 1167.72 1568.97 Q1161.26 1568.97 1157.18 1563.81 Q1153.14 1558.65 1153.14 1550.25 Q1153.14 1541.85 1157.18 1536.69 Q1161.26 1531.54 1167.72 1531.54 Q1171.67 1531.54 1174.47 1533.1 Q1177.3 1534.62 1179.14 1537.81 L1179.14 1532.4 L1185 1532.4 L1185 1581.6 L1179.14 1581.6 L1179.14 1562.7 Z" fill="#000000" fill-rule="evenodd" fill-opacity="1" /><path clip-path="url(#clip620)" d="M 0 0 M1196.46 1553.98 L1196.46 1532.4 L1202.32 1532.4 L1202.32 1553.75 Q1202.32 1558.81 1204.29 1561.36 Q1206.26 1563.87 1210.21 1563.87 Q1214.95 1563.87 1217.69 1560.85 Q1220.46 1557.83 1220.46 1552.61 L1220.46 1532.4 L1226.31 1532.4 L1226.31 1568.04 L1220.46 1568.04 L1220.46 1562.57 Q1218.33 1565.82 1215.49 1567.41 Q1212.69 1568.97 1208.97 1568.97 Q1202.83 1568.97 1199.64 1565.15 Q1196.46 1561.33 1196.46 1553.98 M1211.2 1531.54 L1211.2 1531.54 Z" fill="#000000" fill-rule="evenodd" fill-opacity="1" /><path clip-path="url(#clip620)" d="M 0 0 M1268.87 1548.76 L1268.87 1551.62 L1241.94 1551.62 Q1242.32 1557.67 1245.57 1560.85 Q1248.85 1564 1254.67 1564 Q1258.05 1564 1261.2 1563.17 Q1264.38 1562.35 1267.5 1560.69 L1267.5 1566.23 Q1264.35 1567.57 1261.04 1568.27 Q1257.73 1568.97 1254.32 1568.97 Q1245.79 1568.97 1240.8 1564 Q1235.83 1559.04 1235.83 1550.57 Q1235.83 1541.82 1240.54 1536.69 Q1245.28 1531.54 1253.31 1531.54 Q1260.5 1531.54 1264.67 1536.18 Q1268.87 1540.8 1268.87 1548.76 M1263.01 1547.04 Q1262.95 1542.23 1260.31 1539.37 Q1257.7 1536.5 1253.37 1536.5 Q1248.47 1536.5 1245.51 1539.27 Q1242.58 1542.04 1242.13 1547.07 L1263.01 1547.04 Z" fill="#000000" fill-rule="evenodd" fill-opacity="1" /><path clip-path="url(#clip620)" d="M 0 0 M1308.11 1546.53 L1308.11 1568.04 L1302.26 1568.04 L1302.26 1546.72 Q1302.26 1541.66 1300.28 1539.14 Q1298.31 1536.63 1294.36 1536.63 Q1289.62 1536.63 1286.88 1539.65 Q1284.15 1542.68 1284.15 1547.9 L1284.15 1568.04 L1278.26 1568.04 L1278.26 1532.4 L1284.15 1532.4 L1284.15 1537.93 Q1286.25 1534.72 1289.08 1533.13 Q1291.95 1531.54 1295.67 1531.54 Q1301.81 1531.54 1304.96 1535.36 Q1308.11 1539.14 1308.11 1546.53 Z" fill="#000000" fill-rule="evenodd" fill-opacity="1" /><path clip-path="url(#clip620)" d="M 0 0 M1345.45 1533.76 L1345.45 1539.24 Q1342.97 1537.87 1340.45 1537.2 Q1337.97 1536.5 1335.42 1536.5 Q1329.73 1536.5 1326.57 1540.13 Q1323.42 1543.73 1323.42 1550.25 Q1323.42 1556.78 1326.57 1560.4 Q1329.73 1564 1335.42 1564 Q1337.97 1564 1340.45 1563.33 Q1342.97 1562.63 1345.45 1561.26 L1345.45 1566.68 Q1343 1567.82 1340.36 1568.39 Q1337.75 1568.97 1334.79 1568.97 Q1326.73 1568.97 1321.99 1563.91 Q1317.25 1558.85 1317.25 1550.25 Q1317.25 1541.53 1322.02 1536.53 Q1326.83 1531.54 1335.17 1531.54 Q1337.87 1531.54 1340.45 1532.11 Q1343.03 1532.65 1345.45 1533.76 Z" fill="#000000" fill-rule="evenodd" fill-opacity="1" /><path clip-path="url(#clip620)" d="M 0 0 M1370.47 1571.35 Q1367.98 1577.72 1365.63 1579.66 Q1363.27 1581.6 1359.33 1581.6 L1354.65 1581.6 L1354.65 1576.7 L1358.08 1576.7 Q1360.5 1576.7 1361.84 1575.56 Q1363.18 1574.41 1364.8 1570.14 L1365.85 1567.47 L1351.43 1532.4 L1357.64 1532.4 L1368.78 1560.28 L1379.92 1532.4 L1386.13 1532.4 L1370.47 1571.35 Z" fill="#000000" fill-rule="evenodd" fill-opacity="1" /><path clip-path="url(#clip620)" d="M 0 0 M1429 1518.58 Q1424.73 1525.9 1422.67 1533.06 Q1420.6 1540.23 1420.6 1547.58 Q1420.6 1554.93 1422.67 1562.16 Q1424.77 1569.35 1429 1576.64 L1423.91 1576.64 Q1419.13 1569.16 1416.74 1561.93 Q1414.39 1554.71 1414.39 1547.58 Q1414.39 1540.48 1416.74 1533.29 Q1419.1 1526.09 1423.91 1518.58 L1429 1518.58 Z" fill="#000000" fill-rule="evenodd" fill-opacity="1" /><path clip-path="url(#clip620)" d="M 0 0 M1473.02 1561.26 L1473.02 1548.5 L1462.51 1548.5 L1462.51 1543.22 L1479.38 1543.22 L1479.38 1563.62 Q1475.66 1566.26 1471.17 1567.63 Q1466.68 1568.97 1461.59 1568.97 Q1450.45 1568.97 1444.15 1562.47 Q1437.88 1555.95 1437.88 1544.33 Q1437.88 1532.68 1444.15 1526.19 Q1450.45 1519.66 1461.59 1519.66 Q1466.24 1519.66 1470.41 1520.81 Q1474.61 1521.96 1478.14 1524.18 L1478.14 1531.03 Q1474.58 1528 1470.57 1526.48 Q1466.56 1524.95 1462.13 1524.95 Q1453.41 1524.95 1449.02 1529.82 Q1444.66 1534.69 1444.66 1544.33 Q1444.66 1553.94 1449.02 1558.81 Q1453.41 1563.68 1462.13 1563.68 Q1465.54 1563.68 1468.21 1563.11 Q1470.89 1562.51 1473.02 1561.26 Z" fill="#000000" fill-rule="evenodd" fill-opacity="1" /><path clip-path="url(#clip620)" d="M 0 0 M1491.13 1520.52 L1497.56 1520.52 L1497.56 1540 L1520.92 1540 L1520.92 1520.52 L1527.35 1520.52 L1527.35 1568.04 L1520.92 1568.04 L1520.92 1545.41 L1497.56 1545.41 L1497.56 1568.04 L1491.13 1568.04 L1491.13 1520.52 Z" fill="#000000" fill-rule="evenodd" fill-opacity="1" /><path clip-path="url(#clip620)" d="M 0 0 M1537.34 1532.4 L1565.16 1532.4 L1565.16 1537.74 L1543.14 1563.37 L1565.16 1563.37 L1565.16 1568.04 L1536.55 1568.04 L1536.55 1562.7 L1558.57 1537.07 L1537.34 1537.07 L1537.34 1532.4 Z" fill="#000000" fill-rule="evenodd" fill-opacity="1" /><path clip-path="url(#clip620)" d="M 0 0 M1573.18 1518.58 L1578.27 1518.58 Q1583.05 1526.09 1585.4 1533.29 Q1587.79 1540.48 1587.79 1547.58 Q1587.79 1554.71 1585.4 1561.93 Q1583.05 1569.16 1578.27 1576.64 L1573.18 1576.64 Q1577.42 1569.35 1579.48 1562.16 Q1581.58 1554.93 1581.58 1547.58 Q1581.58 1540.23 1579.48 1533.06 Q1577.42 1525.9 1573.18 1518.58 Z" fill="#000000" fill-rule="evenodd" fill-opacity="1" /><polyline clip-path="url(#clip623)" style="stroke:#000000; stroke-width:2; stroke-opacity:0.1; fill:none" points="
  297.656,1386.4 2352.76,1386.4 
  "/>
<polyline clip-path="url(#clip623)" style="stroke:#000000; stroke-width:2; stroke-opacity:0.1; fill:none" points="
  297.656,1071.82 2352.76,1071.82 
  "/>
<polyline clip-path="url(#clip623)" style="stroke:#000000; stroke-width:2; stroke-opacity:0.1; fill:none" points="
  297.656,757.244 2352.76,757.244 
  "/>
<polyline clip-path="url(#clip623)" style="stroke:#000000; stroke-width:2; stroke-opacity:0.1; fill:none" points="
  297.656,442.669 2352.76,442.669 
  "/>
<polyline clip-path="url(#clip623)" style="stroke:#000000; stroke-width:2; stroke-opacity:0.1; fill:none" points="
  297.656,128.093 2352.76,128.093 
  "/>
<polyline clip-path="url(#clip620)" style="stroke:#000000; stroke-width:4; stroke-opacity:1; fill:none" points="
  297.656,1423.18 297.656,123.472 
  "/>
<polyline clip-path="url(#clip620)" style="stroke:#000000; stroke-width:4; stroke-opacity:1; fill:none" points="
  297.656,1386.4 322.318,1386.4 
  "/>
<polyline clip-path="url(#clip620)" style="stroke:#000000; stroke-width:4; stroke-opacity:1; fill:none" points="
  297.656,1071.82 322.318,1071.82 
  "/>
<polyline clip-path="url(#clip620)" style="stroke:#000000; stroke-width:4; stroke-opacity:1; fill:none" points="
  297.656,757.244 322.318,757.244 
  "/>
<polyline clip-path="url(#clip620)" style="stroke:#000000; stroke-width:4; stroke-opacity:1; fill:none" points="
  297.656,442.669 322.318,442.669 
  "/>
<polyline clip-path="url(#clip620)" style="stroke:#000000; stroke-width:4; stroke-opacity:1; fill:none" points="
  297.656,128.093 322.318,128.093 
  "/>
<path clip-path="url(#clip620)" d="M 0 0 M249.712 1372.19 Q246.101 1372.19 244.272 1375.76 Q242.467 1379.3 242.467 1386.43 Q242.467 1393.54 244.272 1397.1 Q246.101 1400.64 249.712 1400.64 Q253.346 1400.64 255.152 1397.1 Q256.98 1393.54 256.98 1386.43 Q256.98 1379.3 255.152 1375.76 Q253.346 1372.19 249.712 1372.19 M249.712 1368.49 Q255.522 1368.49 258.578 1373.1 Q261.656 1377.68 261.656 1386.43 Q261.656 1395.16 258.578 1399.76 Q255.522 1404.35 249.712 1404.35 Q243.902 1404.35 240.823 1399.76 Q237.768 1395.16 237.768 1386.43 Q237.768 1377.68 240.823 1373.1 Q243.902 1368.49 249.712 1368.49 Z" fill="#000000" fill-rule="evenodd" fill-opacity="1" /><path clip-path="url(#clip620)" d="M 0 0 M180.198 1085.16 L187.837 1085.16 L187.837 1058.8 L179.527 1060.47 L179.527 1056.21 L187.791 1054.54 L192.467 1054.54 L192.467 1085.16 L200.106 1085.16 L200.106 1089.1 L180.198 1089.1 L180.198 1085.16 Z" fill="#000000" fill-rule="evenodd" fill-opacity="1" /><path clip-path="url(#clip620)" d="M 0 0 M219.55 1057.62 Q215.939 1057.62 214.11 1061.18 Q212.305 1064.73 212.305 1071.85 Q212.305 1078.96 214.11 1082.53 Q215.939 1086.07 219.55 1086.07 Q223.184 1086.07 224.99 1082.53 Q226.819 1078.96 226.819 1071.85 Q226.819 1064.73 224.99 1061.18 Q223.184 1057.62 219.55 1057.62 M219.55 1053.91 Q225.36 1053.91 228.416 1058.52 Q231.494 1063.1 231.494 1071.85 Q231.494 1080.58 228.416 1085.19 Q225.36 1089.77 219.55 1089.77 Q213.74 1089.77 210.661 1085.19 Q207.606 1080.58 207.606 1071.85 Q207.606 1063.1 210.661 1058.52 Q213.74 1053.91 219.55 1053.91 Z" fill="#000000" fill-rule="evenodd" fill-opacity="1" /><path clip-path="url(#clip620)" d="M 0 0 M249.712 1057.62 Q246.101 1057.62 244.272 1061.18 Q242.467 1064.73 242.467 1071.85 Q242.467 1078.96 244.272 1082.53 Q246.101 1086.07 249.712 1086.07 Q253.346 1086.07 255.152 1082.53 Q256.98 1078.96 256.98 1071.85 Q256.98 1064.73 255.152 1061.18 Q253.346 1057.62 249.712 1057.62 M249.712 1053.91 Q255.522 1053.91 258.578 1058.52 Q261.656 1063.1 261.656 1071.85 Q261.656 1080.58 258.578 1085.19 Q255.522 1089.77 249.712 1089.77 Q243.902 1089.77 240.823 1085.19 Q237.768 1080.58 237.768 1071.85 Q237.768 1063.1 240.823 1058.52 Q243.902 1053.91 249.712 1053.91 Z" fill="#000000" fill-rule="evenodd" fill-opacity="1" /><path clip-path="url(#clip620)" d="M 0 0 M183.416 770.589 L199.735 770.589 L199.735 774.524 L177.791 774.524 L177.791 770.589 Q180.453 767.835 185.036 763.205 Q189.643 758.552 190.823 757.21 Q193.069 754.686 193.948 752.95 Q194.851 751.191 194.851 749.501 Q194.851 746.747 192.907 745.011 Q190.985 743.274 187.884 743.274 Q185.685 743.274 183.231 744.038 Q180.8 744.802 178.023 746.353 L178.023 741.631 Q180.847 740.497 183.3 739.918 Q185.754 739.339 187.791 739.339 Q193.161 739.339 196.356 742.024 Q199.55 744.71 199.55 749.2 Q199.55 751.33 198.74 753.251 Q197.953 755.149 195.847 757.742 Q195.268 758.413 192.166 761.631 Q189.064 764.825 183.416 770.589 Z" fill="#000000" fill-rule="evenodd" fill-opacity="1" /><path clip-path="url(#clip620)" d="M 0 0 M219.55 743.043 Q215.939 743.043 214.11 746.608 Q212.305 750.149 212.305 757.279 Q212.305 764.385 214.11 767.95 Q215.939 771.492 219.55 771.492 Q223.184 771.492 224.99 767.95 Q226.819 764.385 226.819 757.279 Q226.819 750.149 224.99 746.608 Q223.184 743.043 219.55 743.043 M219.55 739.339 Q225.36 739.339 228.416 743.946 Q231.494 748.529 231.494 757.279 Q231.494 766.006 228.416 770.612 Q225.36 775.196 219.55 775.196 Q213.74 775.196 210.661 770.612 Q207.606 766.006 207.606 757.279 Q207.606 748.529 210.661 743.946 Q213.74 739.339 219.55 739.339 Z" fill="#000000" fill-rule="evenodd" fill-opacity="1" /><path clip-path="url(#clip620)" d="M 0 0 M249.712 743.043 Q246.101 743.043 244.272 746.608 Q242.467 750.149 242.467 757.279 Q242.467 764.385 244.272 767.95 Q246.101 771.492 249.712 771.492 Q253.346 771.492 255.152 767.95 Q256.98 764.385 256.98 757.279 Q256.98 750.149 255.152 746.608 Q253.346 743.043 249.712 743.043 M249.712 739.339 Q255.522 739.339 258.578 743.946 Q261.656 748.529 261.656 757.279 Q261.656 766.006 258.578 770.612 Q255.522 775.196 249.712 775.196 Q243.902 775.196 240.823 770.612 Q237.768 766.006 237.768 757.279 Q237.768 748.529 240.823 743.946 Q243.902 739.339 249.712 739.339 Z" fill="#000000" fill-rule="evenodd" fill-opacity="1" /><path clip-path="url(#clip620)" d="M 0 0 M193.555 441.314 Q196.911 442.032 198.786 444.301 Q200.684 446.569 200.684 449.902 Q200.684 455.018 197.166 457.819 Q193.647 460.62 187.166 460.62 Q184.99 460.62 182.675 460.18 Q180.384 459.763 177.93 458.907 L177.93 454.393 Q179.874 455.527 182.189 456.106 Q184.504 456.685 187.027 456.685 Q191.425 456.685 193.717 454.949 Q196.032 453.213 196.032 449.902 Q196.032 446.847 193.879 445.134 Q191.749 443.398 187.93 443.398 L183.902 443.398 L183.902 439.555 L188.115 439.555 Q191.564 439.555 193.393 438.189 Q195.222 436.801 195.222 434.208 Q195.222 431.546 193.323 430.134 Q191.448 428.699 187.93 428.699 Q186.009 428.699 183.81 429.115 Q181.61 429.532 178.972 430.412 L178.972 426.245 Q181.634 425.504 183.948 425.134 Q186.286 424.764 188.347 424.764 Q193.671 424.764 196.772 427.194 Q199.874 429.602 199.874 433.722 Q199.874 436.592 198.231 438.583 Q196.587 440.551 193.555 441.314 Z" fill="#000000" fill-rule="evenodd" fill-opacity="1" /><path clip-path="url(#clip620)" d="M 0 0 M219.55 428.467 Q215.939 428.467 214.11 432.032 Q212.305 435.574 212.305 442.703 Q212.305 449.81 214.11 453.375 Q215.939 456.916 219.55 456.916 Q223.184 456.916 224.99 453.375 Q226.819 449.81 226.819 442.703 Q226.819 435.574 224.99 432.032 Q223.184 428.467 219.55 428.467 M219.55 424.764 Q225.36 424.764 228.416 429.37 Q231.494 433.953 231.494 442.703 Q231.494 451.43 228.416 456.037 Q225.36 460.62 219.55 460.62 Q213.74 460.62 210.661 456.037 Q207.606 451.43 207.606 442.703 Q207.606 433.953 210.661 429.37 Q213.74 424.764 219.55 424.764 Z" fill="#000000" fill-rule="evenodd" fill-opacity="1" /><path clip-path="url(#clip620)" d="M 0 0 M249.712 428.467 Q246.101 428.467 244.272 432.032 Q242.467 435.574 242.467 442.703 Q242.467 449.81 244.272 453.375 Q246.101 456.916 249.712 456.916 Q253.346 456.916 255.152 453.375 Q256.98 449.81 256.98 442.703 Q256.98 435.574 255.152 432.032 Q253.346 428.467 249.712 428.467 M249.712 424.764 Q255.522 424.764 258.578 429.37 Q261.656 433.953 261.656 442.703 Q261.656 451.43 258.578 456.037 Q255.522 460.62 249.712 460.62 Q243.902 460.62 240.823 456.037 Q237.768 451.43 237.768 442.703 Q237.768 433.953 240.823 429.37 Q243.902 424.764 249.712 424.764 Z" fill="#000000" fill-rule="evenodd" fill-opacity="1" /><path clip-path="url(#clip620)" d="M 0 0 M192.235 114.887 L180.43 133.336 L192.235 133.336 L192.235 114.887 M191.009 110.813 L196.888 110.813 L196.888 133.336 L201.819 133.336 L201.819 137.225 L196.888 137.225 L196.888 145.373 L192.235 145.373 L192.235 137.225 L176.634 137.225 L176.634 132.711 L191.009 110.813 Z" fill="#000000" fill-rule="evenodd" fill-opacity="1" /><path clip-path="url(#clip620)" d="M 0 0 M219.55 113.892 Q215.939 113.892 214.11 117.456 Q212.305 120.998 212.305 128.128 Q212.305 135.234 214.11 138.799 Q215.939 142.341 219.55 142.341 Q223.184 142.341 224.99 138.799 Q226.819 135.234 226.819 128.128 Q226.819 120.998 224.99 117.456 Q223.184 113.892 219.55 113.892 M219.55 110.188 Q225.36 110.188 228.416 114.794 Q231.494 119.378 231.494 128.128 Q231.494 136.854 228.416 141.461 Q225.36 146.044 219.55 146.044 Q213.74 146.044 210.661 141.461 Q207.606 136.854 207.606 128.128 Q207.606 119.378 210.661 114.794 Q213.74 110.188 219.55 110.188 Z" fill="#000000" fill-rule="evenodd" fill-opacity="1" /><path clip-path="url(#clip620)" d="M 0 0 M249.712 113.892 Q246.101 113.892 244.272 117.456 Q242.467 120.998 242.467 128.128 Q242.467 135.234 244.272 138.799 Q246.101 142.341 249.712 142.341 Q253.346 142.341 255.152 138.799 Q256.98 135.234 256.98 128.128 Q256.98 120.998 255.152 117.456 Q253.346 113.892 249.712 113.892 M249.712 110.188 Q255.522 110.188 258.578 114.794 Q261.656 119.378 261.656 128.128 Q261.656 136.854 258.578 141.461 Q255.522 146.044 249.712 146.044 Q243.902 146.044 240.823 141.461 Q237.768 136.854 237.768 128.128 Q237.768 119.378 240.823 114.794 Q243.902 110.188 249.712 110.188 Z" fill="#000000" fill-rule="evenodd" fill-opacity="1" /><path clip-path="url(#clip620)" d="M 0 0 M94.6485 829.54 L111.073 835.209 L111.073 889.894 Q111.073 890.635 111.041 890.925 Q111.009 891.215 110.848 891.44 Q110.687 891.666 110.333 891.666 Q110.043 891.666 109.302 891.086 L80.3491 867.672 L47.2415 891.73 Q45.7278 891.73 45.4379 891.472 Q45.1159 891.215 45.1159 889.894 L45.1159 835.209 L60.5425 829.54 L60.5425 831.183 Q58.5457 831.924 56.871 833.115 Q55.1641 834.275 53.9403 835.627 Q52.7165 836.948 51.7503 838.687 Q50.7519 840.394 50.14 842.004 Q49.4959 843.582 49.045 845.547 Q48.5619 847.511 48.3365 849.089 Q48.0788 850.635 47.95 852.568 Q47.8212 854.5 47.789 855.724 Q47.7568 856.948 47.7568 858.494 L47.7568 884.612 L77.1607 863.196 Q77.9014 862.713 78.0947 862.713 Q78.3845 862.713 79.1575 863.324 L107.434 886.191 L107.434 858.171 Q107.434 849.154 105.534 842.874 Q104.085 838.623 101.218 835.531 Q98.3522 832.407 94.6485 831.183 L94.6485 829.54 Z" fill="#000000" fill-rule="evenodd" fill-opacity="1" /><path clip-path="url(#clip620)" d="M 0 0 M127.747 902.739 Q128.739 902.739 129.483 903.551 Q130.204 904.34 130.204 905.197 Q130.204 905.986 129.731 906.482 Q129.235 906.955 128.536 906.955 Q127.612 906.955 126.845 906.166 Q126.079 905.377 126.079 904.453 Q126.079 903.686 126.552 903.213 Q127.026 902.739 127.747 902.739 M149.998 902.334 Q150.179 902.334 150.9 902.536 Q151.599 902.739 152.681 903.235 Q153.741 903.709 154.732 904.363 Q155.724 905.016 156.423 906.098 Q157.122 907.158 157.122 908.375 Q157.122 910.021 156.04 911.103 Q154.958 912.163 153.335 912.163 Q152.455 912.163 149.637 911.103 Q141.431 908.037 141.093 907.924 Q139.808 907.406 138.681 907.406 Q138.163 907.406 137.847 907.519 Q137.509 907.631 137.396 907.857 Q137.261 908.082 137.238 908.218 Q137.216 908.33 137.216 908.556 Q137.216 909.886 138.568 911.126 Q139.921 912.366 142.942 913.222 Q143.505 913.403 143.641 913.515 Q143.776 913.628 143.776 913.966 Q143.753 914.53 143.303 914.53 Q143.167 914.53 142.649 914.372 Q142.108 914.214 141.296 913.921 Q140.462 913.628 139.605 913.11 Q138.726 912.591 137.96 911.96 Q137.193 911.306 136.697 910.382 Q136.201 909.457 136.201 908.42 Q136.201 906.73 137.306 905.693 Q138.388 904.633 139.989 904.633 Q140.868 904.633 142.423 905.242 Q144.452 905.986 145.106 906.256 L149.953 908.06 Q151.712 908.714 152.253 908.916 Q152.771 909.097 153.402 909.255 Q154.011 909.39 154.575 909.39 Q155.364 909.39 155.724 909.142 Q156.085 908.871 156.085 908.285 Q156.085 906.662 154.484 905.467 Q152.861 904.272 150.381 903.573 Q150.314 903.551 150.201 903.528 Q149.637 903.348 149.57 903.168 Q149.547 903.077 149.547 902.897 Q149.547 902.334 149.998 902.334 Z" fill="#000000" fill-rule="evenodd" fill-opacity="1" /><path clip-path="url(#clip620)" d="M 0 0 M149.592 885.954 Q149.029 885.909 149.029 885.03 L149.029 856.737 Q149.029 855.407 149.547 855.384 Q150.111 855.384 150.088 856.646 L150.088 884.714 Q150.111 885.954 149.592 885.954 M140.575 885.954 Q140.011 885.954 140.034 884.984 L140.034 856.782 Q140.034 855.407 140.575 855.384 Q141.093 855.384 141.093 856.556 L141.093 885.03 Q141.093 885.954 140.575 885.954 Z" fill="#000000" fill-rule="evenodd" fill-opacity="1" /><path clip-path="url(#clip620)" d="M 0 0 M130.25 837.572 L128.807 837.572 Q128.807 832.026 125.853 829.163 Q125.853 828.374 126.034 828.239 Q126.214 828.103 127.048 828.103 L152.951 828.103 Q154.327 828.103 154.755 827.427 Q155.183 826.751 155.183 823.798 L155.183 822.332 L156.604 822.332 Q156.468 823.955 156.468 829.817 Q156.468 835.678 156.604 837.279 L155.183 837.279 L155.183 835.814 Q155.183 832.905 154.778 832.206 Q154.349 831.508 152.951 831.508 L129.032 831.508 Q130.25 833.92 130.25 837.572 Z" fill="#000000" fill-rule="evenodd" fill-opacity="1" /><path clip-path="url(#clip620)" d="M 0 0 M22.7384 887.483 Q21.9042 887.483 21.6563 887.416 Q21.4083 887.326 21.025 886.965 L11.1507 878.105 Q5.69503 873.258 0.938226 873.258 Q-2.15032 873.258 -4.35964 874.881 Q-6.56896 876.482 -6.56896 879.435 Q-6.56896 881.464 -5.32903 883.177 Q-4.08911 884.891 -1.87979 885.68 Q-1.92487 885.545 -1.92487 885.071 Q-1.92487 883.921 -1.20346 883.29 Q-0.482052 882.636 0.487344 882.636 Q1.72727 882.636 2.33596 883.448 Q2.92211 884.237 2.92211 885.026 Q2.92211 885.342 2.85447 885.77 Q2.78684 886.176 2.15561 886.83 Q1.50183 887.483 0.352079 887.483 Q-2.87173 887.483 -5.44176 885.049 Q-8.01178 882.591 -8.01178 878.849 Q-8.01178 874.611 -5.48684 871.838 Q-2.98445 869.042 0.938226 869.042 Q2.31342 869.042 3.57589 869.471 Q4.81581 869.876 5.78521 870.44 Q6.7546 870.981 8.31015 872.469 Q9.86569 873.957 10.9704 875.152 Q12.075 876.347 14.4196 879.029 L19.1764 883.921 L19.1764 875.603 Q19.1764 871.545 18.8157 871.229 Q18.1619 870.778 14.7127 870.215 L14.7127 869.042 L22.7384 870.35 L22.7384 887.483 Z" fill="#000000" fill-rule="evenodd" fill-opacity="1" /><path clip-path="url(#clip620)" d="M 0 0 M7.97199 864.619 Q1.18621 864.619 -2.51102 862.905 Q-8.01178 860.515 -8.01178 854.879 Q-8.01178 853.685 -7.67362 852.445 Q-7.358 851.182 -6.11808 849.604 Q-4.87815 848.004 -2.84918 847.034 Q1.07349 845.186 7.97199 845.186 Q14.7127 845.186 18.3874 846.899 Q23.7529 849.401 23.7529 854.925 Q23.7529 856.999 22.6933 859.118 Q21.6337 861.214 19.0862 862.544 Q15.2763 864.619 7.97199 864.619 M7.40838 860.786 Q14.3745 860.786 17.1474 860.29 Q20.1458 859.726 21.4534 858.193 Q22.7384 856.638 22.7384 854.925 Q22.7384 853.076 21.3632 851.543 Q19.9654 849.987 16.9671 849.514 Q14.0138 848.995 7.40838 849.018 Q0.983314 849.018 -1.58671 849.469 Q-4.58508 850.078 -5.77992 851.701 Q-6.9973 853.301 -6.9973 854.925 Q-6.9973 855.533 -6.81695 856.187 Q-6.63659 856.818 -6.11808 857.743 Q-5.59956 858.667 -4.31455 859.388 Q-3.02954 860.087 -1.09074 860.425 Q1.41165 860.786 7.40838 860.786 Z" fill="#000000" fill-rule="evenodd" fill-opacity="1" /><path clip-path="url(#clip620)" d="M 0 0 M57.4874 770.939 L58.4117 771.503 Q56.9012 774.997 54.489 779.348 Q56.9012 783.699 58.4117 787.194 L57.4874 787.735 Q54.1734 783.925 51.6259 779.348 Q54.1959 774.727 57.4874 770.939 Z" fill="#000000" fill-rule="evenodd" fill-opacity="1" /><path clip-path="url(#clip620)" d="M 0 0 M68.5295 768.354 Q68.5617 768.354 69.7212 768.547 L98.9963 775.89 Q100.542 776.276 102.088 777.371 Q103.666 778.434 105.019 780.141 Q106.404 781.816 107.241 784.392 Q108.111 786.936 108.111 789.867 Q108.111 794.537 107.112 796.598 Q106.146 798.627 104.085 798.627 Q102.281 798.627 101.251 797.5 Q100.252 796.373 100.252 795.084 Q100.252 793.861 100.961 793.217 Q101.669 792.572 102.571 792.572 Q103.57 792.572 104.568 793.249 Q105.598 793.925 105.985 795.278 Q106.661 793.12 106.661 789.996 Q106.661 783.394 99.6726 780.56 Q99.576 780.495 99.5438 780.495 L90.816 778.305 L90.7516 778.402 Q91.3957 778.949 92.1364 779.819 Q92.845 780.656 93.7145 782.46 Q94.5841 784.263 94.5841 786.035 Q94.5841 789.738 91.75 792.283 Q88.8836 794.795 84.1494 794.795 Q80.7034 794.795 77.2573 793.41 Q73.7791 791.993 71.2348 789.803 Q68.6584 787.581 67.0481 784.746 Q65.4378 781.88 65.4378 779.11 Q65.4378 777.178 66.5972 775.536 Q67.7244 773.893 69.5923 772.991 Q68.0464 772.83 67.4023 771.961 Q66.7582 771.059 66.7582 770.286 Q66.7582 769.416 67.2413 768.901 Q67.6922 768.354 68.5295 768.354 M72.5553 773.764 Q72.362 773.764 71.8467 773.893 Q71.2992 774.022 70.4297 774.408 Q69.5601 774.763 68.7872 775.31 Q68.0142 775.858 67.4667 776.856 Q66.887 777.822 66.887 779.046 Q66.887 781.043 68.5617 783.04 Q70.2042 785.036 72.7485 786.421 Q75.1961 787.709 79.9304 788.933 Q84.6647 790.125 87.0801 790.125 Q89.4633 790.125 91.2991 789.094 Q93.1348 788.064 93.1348 785.841 Q93.1348 783.265 90.7516 780.495 Q88.2717 777.629 86.1461 777.146 L73.5536 773.957 Q72.7807 773.764 72.5553 773.764 Z" fill="#000000" fill-rule="evenodd" fill-opacity="1" /><path clip-path="url(#clip620)" d="M 0 0 M39.2712 760.318 Q31.4709 760.318 25.1811 757.41 Q22.5435 756.17 20.3341 754.434 Q18.1248 752.698 17.1554 751.548 Q16.186 750.399 16.186 750.083 Q16.186 749.632 16.6369 749.61 Q16.8623 749.61 17.4259 750.218 Q25.0008 757.658 39.2712 757.635 Q53.5867 757.635 60.8684 750.399 Q61.6575 749.61 61.9055 749.61 Q62.3563 749.61 62.3563 750.083 Q62.3563 750.399 61.432 751.503 Q60.5077 752.608 58.3886 754.321 Q56.2694 756.035 53.6769 757.275 Q47.3871 760.318 39.2712 760.318 Z" fill="#000000" fill-rule="evenodd" fill-opacity="1" /><path clip-path="url(#clip620)" d="M 0 0 M50.8138 742.589 Q49.9796 742.589 49.7316 742.521 Q49.4837 742.431 49.1004 742.07 L39.2261 733.21 Q33.7704 728.363 29.0136 728.363 Q25.9251 728.363 23.7158 729.987 Q21.5064 731.587 21.5064 734.541 Q21.5064 736.57 22.7464 738.283 Q23.9863 739.996 26.1956 740.785 Q26.1505 740.65 26.1505 740.177 Q26.1505 739.027 26.8719 738.396 Q27.5933 737.742 28.5627 737.742 Q29.8027 737.742 30.4114 738.553 Q30.9975 739.342 30.9975 740.132 Q30.9975 740.447 30.9299 740.875 Q30.8622 741.281 30.231 741.935 Q29.5772 742.589 28.4275 742.589 Q25.2037 742.589 22.6336 740.154 Q20.0636 737.697 20.0636 733.954 Q20.0636 729.716 22.5885 726.943 Q25.0909 724.148 29.0136 724.148 Q30.3888 724.148 31.6513 724.576 Q32.8912 724.982 33.8606 725.545 Q34.83 726.087 36.3855 727.574 Q37.9411 729.062 39.0457 730.257 Q40.1504 731.452 42.495 734.135 L47.2518 739.027 L47.2518 730.708 Q47.2518 726.65 46.8911 726.335 Q46.2373 725.884 42.7881 725.32 L42.7881 724.148 L50.8138 725.455 L50.8138 742.589 Z" fill="#000000" fill-rule="evenodd" fill-opacity="1" /><path clip-path="url(#clip620)" d="M 0 0 M61.9055 719.724 Q61.68 719.724 61.1164 719.138 Q53.5416 711.698 39.2712 711.698 Q24.9557 711.698 17.719 718.845 Q16.8849 719.724 16.6369 719.724 Q16.186 719.724 16.186 719.273 Q16.186 718.957 17.1103 717.853 Q18.0346 716.726 20.1538 715.035 Q22.2729 713.321 24.8655 712.059 Q31.1553 709.016 39.2712 709.016 Q47.0714 709.016 53.3612 711.924 Q55.9989 713.164 58.2082 714.9 Q60.4176 716.635 61.3869 717.785 Q62.3563 718.935 62.3563 719.273 Q62.3563 719.724 61.9055 719.724 Z" fill="#000000" fill-rule="evenodd" fill-opacity="1" /><path clip-path="url(#clip620)" d="M 0 0 M78.0947 694.955 Q66.9514 694.955 57.966 690.8 Q54.1979 689.029 51.0418 686.549 Q47.8856 684.069 46.5007 682.427 Q45.1159 680.784 45.1159 680.333 Q45.1159 679.689 45.76 679.657 Q46.082 679.657 46.8872 680.527 Q57.7084 691.154 78.0947 691.122 Q98.5454 691.122 108.948 680.784 Q110.075 679.657 110.429 679.657 Q111.073 679.657 111.073 680.333 Q111.073 680.784 109.753 682.362 Q108.433 683.94 105.405 686.388 Q102.378 688.836 98.6742 690.607 Q89.6888 694.955 78.0947 694.955 Z" fill="#000000" fill-rule="evenodd" fill-opacity="1" /><path clip-path="url(#clip620)" d="M 0 0 M67.2091 638.581 Q67.4989 638.581 68.4973 638.839 Q69.4635 639.064 71.3637 639.805 Q73.2316 640.513 75.325 641.608 Q77.3861 642.671 79.9948 644.636 Q82.6035 646.6 84.8901 649.048 Q89.2057 653.653 91.5245 658.581 Q93.8433 663.476 94.5841 667.663 L94.5841 668.597 Q94.5841 669.627 93.7789 669.627 L90.816 668.919 L74.6809 664.893 Q69.7534 663.637 69.3347 663.637 Q68.9482 663.637 68.755 663.798 Q68.5295 663.927 68.3685 664.7 Q68.2075 665.441 68.2075 666.922 Q68.2075 667.534 68.1753 667.824 Q68.1431 668.082 67.982 668.307 Q67.7888 668.532 67.4023 668.532 Q66.8548 668.532 66.565 668.307 Q66.2429 668.049 66.1785 667.856 Q66.1141 667.663 66.0819 667.276 Q66.0497 666.729 65.8887 664.893 Q65.6954 663.057 65.5666 661.479 Q65.4378 659.901 65.4378 659.225 Q65.4378 658.838 65.631 658.613 Q65.792 658.388 65.9853 658.388 L66.1463 658.355 L92.3941 664.829 Q91.6211 662.445 90.3329 660.094 Q89.0447 657.711 86.9191 655.135 Q84.7613 652.558 82.0882 650.368 Q79.4151 648.178 75.6792 646.246 Q71.9112 644.281 67.5956 643.058 Q66.726 642.832 66.2107 642.285 Q65.6954 641.705 65.5666 641.286 Q65.4378 640.868 65.4378 640.481 Q65.4378 639.612 65.9209 639.096 Q66.3717 638.581 67.2091 638.581 Z" fill="#000000" fill-rule="evenodd" fill-opacity="1" /><path clip-path="url(#clip620)" d="M 0 0 M110.429 637.378 Q110.107 637.378 109.302 636.541 Q98.481 625.913 78.0947 625.913 Q57.644 625.913 47.3059 636.122 Q46.1143 637.378 45.76 637.378 Q45.1159 637.378 45.1159 636.734 Q45.1159 636.283 46.4363 634.705 Q47.7568 633.095 50.7841 630.679 Q53.8115 628.232 57.5151 626.428 Q66.5006 622.08 78.0947 622.08 Q89.2379 622.08 98.2233 626.235 Q101.991 628.006 105.148 630.486 Q108.304 632.966 109.689 634.608 Q111.073 636.251 111.073 636.734 Q111.073 637.378 110.429 637.378 Z" fill="#000000" fill-rule="evenodd" fill-opacity="1" /><path clip-path="url(#clip620)" d="M 0 0 M513.749 14.0809 L513.749 22.0612 Q509.091 19.8332 504.959 18.7395 Q500.827 17.6457 496.979 17.6457 Q490.295 17.6457 486.649 20.2383 Q483.043 22.8309 483.043 27.611 Q483.043 31.6214 485.433 33.6873 Q487.864 35.7128 494.588 36.9686 L499.531 37.9813 Q508.686 39.7232 513.02 44.1387 Q517.395 48.5136 517.395 55.8863 Q517.395 64.6767 511.481 69.2137 Q505.607 73.7508 494.224 73.7508 Q489.93 73.7508 485.069 72.7785 Q480.248 71.8063 475.063 69.9024 L475.063 61.4765 Q480.046 64.2716 484.826 65.6895 Q489.606 67.1073 494.224 67.1073 Q501.232 67.1073 505.04 64.3527 Q508.848 61.598 508.848 56.4939 Q508.848 52.0379 506.093 49.5264 Q503.379 47.0148 497.141 45.759 L492.158 44.7868 Q483.003 42.9639 478.911 39.075 Q474.82 35.1862 474.82 28.2591 Q474.82 20.2383 480.451 15.6203 Q486.122 11.0023 496.047 11.0023 Q500.3 11.0023 504.716 11.7719 Q509.131 12.5416 513.749 14.0809 Z" fill="#000000" fill-rule="evenodd" fill-opacity="1" /><path clip-path="url(#clip620)" d="M 0 0 M529.062 54.671 L529.062 27.2059 L536.515 27.2059 L536.515 54.3874 Q536.515 60.8284 539.027 64.0691 Q541.538 67.2693 546.562 67.2693 Q552.597 67.2693 556.081 63.421 Q559.605 59.5726 559.605 52.9291 L559.605 27.2059 L567.059 27.2059 L567.059 72.576 L559.605 72.576 L559.605 65.6084 Q556.891 69.7404 553.286 71.7658 Q549.721 73.7508 544.982 73.7508 Q537.163 73.7508 533.113 68.8897 Q529.062 64.0286 529.062 54.671 M547.817 26.1121 L547.817 26.1121 Z" fill="#000000" fill-rule="evenodd" fill-opacity="1" /><path clip-path="url(#clip620)" d="M 0 0 M617.736 35.9153 Q620.531 30.8922 624.42 28.5022 Q628.309 26.1121 633.575 26.1121 Q640.664 26.1121 644.512 31.0947 Q648.361 36.0368 648.361 45.1919 L648.361 72.576 L640.867 72.576 L640.867 45.4349 Q640.867 38.913 638.558 35.7533 Q636.249 32.5936 631.509 32.5936 Q625.716 32.5936 622.354 36.4419 Q618.992 40.2903 618.992 46.9338 L618.992 72.576 L611.498 72.576 L611.498 45.4349 Q611.498 38.8725 609.189 35.7533 Q606.88 32.5936 602.059 32.5936 Q596.347 32.5936 592.985 36.4824 Q589.623 40.3308 589.623 46.9338 L589.623 72.576 L582.129 72.576 L582.129 27.2059 L589.623 27.2059 L589.623 34.2544 Q592.175 30.082 595.74 28.0971 Q599.304 26.1121 604.206 26.1121 Q609.148 26.1121 612.591 28.6237 Q616.075 31.1352 617.736 35.9153 Z" fill="#000000" fill-rule="evenodd" fill-opacity="1" /><path clip-path="url(#clip620)" d="M 0 0 M707.18 32.4315 Q701.185 32.4315 697.701 37.1306 Q694.217 41.7891 694.217 49.9314 Q694.217 58.0738 697.66 62.7728 Q701.144 67.4314 707.18 67.4314 Q713.135 67.4314 716.619 62.7323 Q720.102 58.0333 720.102 49.9314 Q720.102 41.8701 716.619 37.1711 Q713.135 32.4315 707.18 32.4315 M707.18 26.1121 Q716.902 26.1121 722.452 32.4315 Q728.002 38.7509 728.002 49.9314 Q728.002 61.0714 722.452 67.4314 Q716.902 73.7508 707.18 73.7508 Q697.417 73.7508 691.868 67.4314 Q686.358 61.0714 686.358 49.9314 Q686.358 38.7509 691.868 32.4315 Q697.417 26.1121 707.18 26.1121 Z" fill="#000000" fill-rule="evenodd" fill-opacity="1" /><path clip-path="url(#clip620)" d="M 0 0 M763.325 9.54393 L763.325 15.7418 L756.196 15.7418 Q752.185 15.7418 750.606 17.3622 Q749.066 18.9825 749.066 23.1955 L749.066 27.2059 L761.341 27.2059 L761.341 32.9987 L749.066 32.9987 L749.066 72.576 L741.572 72.576 L741.572 32.9987 L734.443 32.9987 L734.443 27.2059 L741.572 27.2059 L741.572 24.0462 Q741.572 16.471 745.096 13.0277 Q748.621 9.54393 756.277 9.54393 L763.325 9.54393 Z" fill="#000000" fill-rule="evenodd" fill-opacity="1" /><path clip-path="url(#clip620)" d="M 0 0 M804.442 18.8205 L804.442 41.5461 L814.731 41.5461 Q820.443 41.5461 823.562 38.5889 Q826.682 35.6318 826.682 30.163 Q826.682 24.7348 823.562 21.7777 Q820.443 18.8205 814.731 18.8205 L804.442 18.8205 M796.259 12.096 L814.731 12.096 Q824.899 12.096 830.084 16.714 Q835.31 21.2916 835.31 30.163 Q835.31 39.1155 830.084 43.6931 Q824.899 48.2706 814.731 48.2706 L804.442 48.2706 L804.442 72.576 L796.259 72.576 L796.259 12.096 Z" fill="#000000" fill-rule="evenodd" fill-opacity="1" /><path clip-path="url(#clip620)" d="M 0 0 M883.678 45.1919 L883.678 72.576 L876.224 72.576 L876.224 45.4349 Q876.224 38.994 873.713 35.7938 Q871.201 32.5936 866.178 32.5936 Q860.142 32.5936 856.658 36.4419 Q853.175 40.2903 853.175 46.9338 L853.175 72.576 L845.68 72.576 L845.68 9.54393 L853.175 9.54393 L853.175 34.2544 Q855.848 30.163 859.453 28.1376 Q863.099 26.1121 867.839 26.1121 Q875.657 26.1121 879.667 30.9732 Q883.678 35.7938 883.678 45.1919 Z" fill="#000000" fill-rule="evenodd" fill-opacity="1" /><path clip-path="url(#clip620)" d="M 0 0 M916.126 32.4315 Q910.13 32.4315 906.646 37.1306 Q903.163 41.7891 903.163 49.9314 Q903.163 58.0738 906.606 62.7728 Q910.09 67.4314 916.126 67.4314 Q922.08 67.4314 925.564 62.7323 Q929.048 58.0333 929.048 49.9314 Q929.048 41.8701 925.564 37.1711 Q922.08 32.4315 916.126 32.4315 M916.126 26.1121 Q925.848 26.1121 931.397 32.4315 Q936.947 38.7509 936.947 49.9314 Q936.947 61.0714 931.397 67.4314 Q925.848 73.7508 916.126 73.7508 Q906.363 73.7508 900.813 67.4314 Q895.304 61.0714 895.304 49.9314 Q895.304 38.7509 900.813 32.4315 Q906.363 26.1121 916.126 26.1121 Z" fill="#000000" fill-rule="evenodd" fill-opacity="1" /><path clip-path="url(#clip620)" d="M 0 0 M956.675 14.324 L956.675 27.2059 L972.028 27.2059 L972.028 32.9987 L956.675 32.9987 L956.675 57.6282 Q956.675 63.1779 958.174 64.7578 Q959.713 66.3376 964.372 66.3376 L972.028 66.3376 L972.028 72.576 L964.372 72.576 Q955.743 72.576 952.462 69.3758 Q949.181 66.1351 949.181 57.6282 L949.181 32.9987 L943.712 32.9987 L943.712 27.2059 L949.181 27.2059 L949.181 14.324 L956.675 14.324 Z" fill="#000000" fill-rule="evenodd" fill-opacity="1" /><path clip-path="url(#clip620)" d="M 0 0 M999.412 32.4315 Q993.417 32.4315 989.933 37.1306 Q986.449 41.7891 986.449 49.9314 Q986.449 58.0738 989.893 62.7728 Q993.376 67.4314 999.412 67.4314 Q1005.37 67.4314 1008.85 62.7323 Q1012.33 58.0333 1012.33 49.9314 Q1012.33 41.8701 1008.85 37.1711 Q1005.37 32.4315 999.412 32.4315 M999.412 26.1121 Q1009.13 26.1121 1014.68 32.4315 Q1020.23 38.7509 1020.23 49.9314 Q1020.23 61.0714 1014.68 67.4314 Q1009.13 73.7508 999.412 73.7508 Q989.649 73.7508 984.1 67.4314 Q978.591 61.0714 978.591 49.9314 Q978.591 38.7509 984.1 32.4315 Q989.649 26.1121 999.412 26.1121 Z" fill="#000000" fill-rule="evenodd" fill-opacity="1" /><path clip-path="url(#clip620)" d="M 0 0 M1070.3 45.1919 L1070.3 72.576 L1062.85 72.576 L1062.85 45.4349 Q1062.85 38.994 1060.34 35.7938 Q1057.83 32.5936 1052.8 32.5936 Q1046.77 32.5936 1043.28 36.4419 Q1039.8 40.2903 1039.8 46.9338 L1039.8 72.576 L1032.31 72.576 L1032.31 27.2059 L1039.8 27.2059 L1039.8 34.2544 Q1042.47 30.163 1046.08 28.1376 Q1049.72 26.1121 1054.46 26.1121 Q1062.28 26.1121 1066.29 30.9732 Q1070.3 35.7938 1070.3 45.1919 Z" fill="#000000" fill-rule="evenodd" fill-opacity="1" /><path clip-path="url(#clip620)" d="M 0 0 M1157.15 16.7545 L1157.15 25.383 Q1153.02 21.5346 1148.32 19.6307 Q1143.66 17.7268 1138.4 17.7268 Q1128.03 17.7268 1122.52 24.0867 Q1117.01 30.4061 1117.01 42.3968 Q1117.01 54.3469 1122.52 60.7069 Q1128.03 67.0263 1138.4 67.0263 Q1143.66 67.0263 1148.32 65.1223 Q1153.02 63.2184 1157.15 59.3701 L1157.15 67.9175 Q1152.86 70.8341 1148.04 72.2924 Q1143.26 73.7508 1137.91 73.7508 Q1124.18 73.7508 1116.28 65.3654 Q1108.38 56.9395 1108.38 42.3968 Q1108.38 27.8135 1116.28 19.4281 Q1124.18 11.0023 1137.91 11.0023 Q1143.34 11.0023 1148.12 12.4606 Q1152.94 13.8784 1157.15 16.7545 Z" fill="#000000" fill-rule="evenodd" fill-opacity="1" /><path clip-path="url(#clip620)" d="M 0 0 M1187.05 32.4315 Q1181.05 32.4315 1177.57 37.1306 Q1174.09 41.7891 1174.09 49.9314 Q1174.09 58.0738 1177.53 62.7728 Q1181.01 67.4314 1187.05 67.4314 Q1193 67.4314 1196.49 62.7323 Q1199.97 58.0333 1199.97 49.9314 Q1199.97 41.8701 1196.49 37.1711 Q1193 32.4315 1187.05 32.4315 M1187.05 26.1121 Q1196.77 26.1121 1202.32 32.4315 Q1207.87 38.7509 1207.87 49.9314 Q1207.87 61.0714 1202.32 67.4314 Q1196.77 73.7508 1187.05 73.7508 Q1177.29 73.7508 1171.74 67.4314 Q1166.23 61.0714 1166.23 49.9314 Q1166.23 38.7509 1171.74 32.4315 Q1177.29 26.1121 1187.05 26.1121 Z" fill="#000000" fill-rule="evenodd" fill-opacity="1" /><path clip-path="url(#clip620)" d="M 0 0 M1246.52 34.1734 Q1245.26 33.4443 1243.76 33.1202 Q1242.3 32.7556 1240.52 32.7556 Q1234.2 32.7556 1230.8 36.8875 Q1227.44 40.9789 1227.44 48.6757 L1227.44 72.576 L1219.94 72.576 L1219.94 27.2059 L1227.44 27.2059 L1227.44 34.2544 Q1229.79 30.1225 1233.55 28.1376 Q1237.32 26.1121 1242.71 26.1121 Q1243.48 26.1121 1244.41 26.2337 Q1245.34 26.3147 1246.48 26.5172 L1246.52 34.1734 Z" fill="#000000" fill-rule="evenodd" fill-opacity="1" /><path clip-path="url(#clip620)" d="M 0 0 M1279.17 34.1734 Q1277.91 33.4443 1276.41 33.1202 Q1274.95 32.7556 1273.17 32.7556 Q1266.85 32.7556 1263.45 36.8875 Q1260.09 40.9789 1260.09 48.6757 L1260.09 72.576 L1252.59 72.576 L1252.59 27.2059 L1260.09 27.2059 L1260.09 34.2544 Q1262.44 30.1225 1266.2 28.1376 Q1269.97 26.1121 1275.36 26.1121 Q1276.13 26.1121 1277.06 26.2337 Q1277.99 26.3147 1279.13 26.5172 L1279.17 34.1734 Z" fill="#000000" fill-rule="evenodd" fill-opacity="1" /><path clip-path="url(#clip620)" d="M 0 0 M1323.97 48.0275 L1323.97 51.6733 L1289.7 51.6733 Q1290.19 59.3701 1294.32 63.421 Q1298.49 67.4314 1305.9 67.4314 Q1310.2 67.4314 1314.21 66.3781 Q1318.26 65.3249 1322.23 63.2184 L1322.23 70.267 Q1318.22 71.9684 1314.01 72.8596 Q1309.79 73.7508 1305.46 73.7508 Q1294.6 73.7508 1288.24 67.4314 Q1281.92 61.1119 1281.92 50.3365 Q1281.92 39.1965 1287.92 32.6746 Q1293.95 26.1121 1304.16 26.1121 Q1313.32 26.1121 1318.62 32.0264 Q1323.97 37.9003 1323.97 48.0275 M1316.52 45.84 Q1316.44 39.7232 1313.07 36.0774 Q1309.75 32.4315 1304.24 32.4315 Q1298 32.4315 1294.24 35.9558 Q1290.51 39.4801 1289.94 45.8805 L1316.52 45.84 Z" fill="#000000" fill-rule="evenodd" fill-opacity="1" /><path clip-path="url(#clip620)" d="M 0 0 M1336.2 9.54393 L1343.66 9.54393 L1343.66 72.576 L1336.2 72.576 L1336.2 9.54393 Z" fill="#000000" fill-rule="evenodd" fill-opacity="1" /><path clip-path="url(#clip620)" d="M 0 0 M1379.87 49.7694 Q1370.84 49.7694 1367.36 51.8354 Q1363.87 53.9013 1363.87 58.8839 Q1363.87 62.8538 1366.46 65.2034 Q1369.1 67.5124 1373.59 67.5124 Q1379.79 67.5124 1383.52 63.1374 Q1387.29 58.7219 1387.29 51.4303 L1387.29 49.7694 L1379.87 49.7694 M1394.74 46.6907 L1394.74 72.576 L1387.29 72.576 L1387.29 65.6895 Q1384.73 69.8214 1380.93 71.8063 Q1377.12 73.7508 1371.61 73.7508 Q1364.64 73.7508 1360.51 69.8619 Q1356.42 65.9325 1356.42 59.3701 Q1356.42 51.7138 1361.52 47.825 Q1366.67 43.9361 1376.83 43.9361 L1387.29 43.9361 L1387.29 43.2069 Q1387.29 38.0623 1383.88 35.2672 Q1380.52 32.4315 1374.4 32.4315 Q1370.52 32.4315 1366.83 33.3632 Q1363.14 34.295 1359.74 36.1584 L1359.74 29.2718 Q1363.83 27.692 1367.68 26.9223 Q1371.53 26.1121 1375.17 26.1121 Q1385.02 26.1121 1389.88 31.2163 Q1394.74 36.3204 1394.74 46.6907 Z" fill="#000000" fill-rule="evenodd" fill-opacity="1" /><path clip-path="url(#clip620)" d="M 0 0 M1417.47 14.324 L1417.47 27.2059 L1432.82 27.2059 L1432.82 32.9987 L1417.47 32.9987 L1417.47 57.6282 Q1417.47 63.1779 1418.96 64.7578 Q1420.5 66.3376 1425.16 66.3376 L1432.82 66.3376 L1432.82 72.576 L1425.16 72.576 Q1416.53 72.576 1413.25 69.3758 Q1409.97 66.1351 1409.97 57.6282 L1409.97 32.9987 L1404.5 32.9987 L1404.5 27.2059 L1409.97 27.2059 L1409.97 14.324 L1417.47 14.324 Z" fill="#000000" fill-rule="evenodd" fill-opacity="1" /><path clip-path="url(#clip620)" d="M 0 0 M1442.62 27.2059 L1450.08 27.2059 L1450.08 72.576 L1442.62 72.576 L1442.62 27.2059 M1442.62 9.54393 L1450.08 9.54393 L1450.08 18.9825 L1442.62 18.9825 L1442.62 9.54393 Z" fill="#000000" fill-rule="evenodd" fill-opacity="1" /><path clip-path="url(#clip620)" d="M 0 0 M1483.25 32.4315 Q1477.26 32.4315 1473.77 37.1306 Q1470.29 41.7891 1470.29 49.9314 Q1470.29 58.0738 1473.73 62.7728 Q1477.22 67.4314 1483.25 67.4314 Q1489.21 67.4314 1492.69 62.7323 Q1496.17 58.0333 1496.17 49.9314 Q1496.17 41.8701 1492.69 37.1711 Q1489.21 32.4315 1483.25 32.4315 M1483.25 26.1121 Q1492.97 26.1121 1498.52 32.4315 Q1504.07 38.7509 1504.07 49.9314 Q1504.07 61.0714 1498.52 67.4314 Q1492.97 73.7508 1483.25 73.7508 Q1473.49 73.7508 1467.94 67.4314 Q1462.43 61.0714 1462.43 49.9314 Q1462.43 38.7509 1467.94 32.4315 Q1473.49 26.1121 1483.25 26.1121 Z" fill="#000000" fill-rule="evenodd" fill-opacity="1" /><path clip-path="url(#clip620)" d="M 0 0 M1554.14 45.1919 L1554.14 72.576 L1546.69 72.576 L1546.69 45.4349 Q1546.69 38.994 1544.18 35.7938 Q1541.67 32.5936 1536.64 32.5936 Q1530.61 32.5936 1527.12 36.4419 Q1523.64 40.2903 1523.64 46.9338 L1523.64 72.576 L1516.15 72.576 L1516.15 27.2059 L1523.64 27.2059 L1523.64 34.2544 Q1526.31 30.163 1529.92 28.1376 Q1533.56 26.1121 1538.3 26.1121 Q1546.12 26.1121 1550.13 30.9732 Q1554.14 35.7938 1554.14 45.1919 Z" fill="#000000" fill-rule="evenodd" fill-opacity="1" /><path clip-path="url(#clip620)" d="M 0 0 M1597.93 28.5427 L1597.93 35.5912 Q1594.77 33.9709 1591.37 33.1607 Q1587.97 32.3505 1584.32 32.3505 Q1578.77 32.3505 1575.98 34.0519 Q1573.22 35.7533 1573.22 39.156 Q1573.22 41.7486 1575.21 43.2475 Q1577.19 44.7058 1583.19 46.0426 L1585.74 46.6097 Q1593.68 48.3111 1597 51.4303 Q1600.36 54.509 1600.36 60.0587 Q1600.36 66.3781 1595.34 70.0644 Q1590.36 73.7508 1581.61 73.7508 Q1577.96 73.7508 1573.99 73.0216 Q1570.06 72.3329 1565.69 70.9151 L1565.69 63.2184 Q1569.82 65.3654 1573.83 66.4591 Q1577.84 67.5124 1581.77 67.5124 Q1587.04 67.5124 1589.87 65.73 Q1592.71 63.9071 1592.71 60.6258 Q1592.71 57.5877 1590.64 55.9673 Q1588.62 54.3469 1581.69 52.8481 L1579.1 52.2405 Q1572.17 50.7821 1569.09 47.7845 Q1566.01 44.7463 1566.01 39.4801 Q1566.01 33.0797 1570.55 29.5959 Q1575.09 26.1121 1583.43 26.1121 Q1587.56 26.1121 1591.21 26.7198 Q1594.85 27.3274 1597.93 28.5427 Z" fill="#000000" fill-rule="evenodd" fill-opacity="1" /><path clip-path="url(#clip620)" d="M 0 0 M1633.26 27.2059 L1641.16 27.2059 L1655.33 65.2844 L1669.51 27.2059 L1677.41 27.2059 L1660.4 72.576 L1650.27 72.576 L1633.26 27.2059 Z" fill="#000000" fill-rule="evenodd" fill-opacity="1" /><path clip-path="url(#clip620)" d="M 0 0 M1716.62 28.5427 L1716.62 35.5912 Q1713.47 33.9709 1710.06 33.1607 Q1706.66 32.3505 1703.01 32.3505 Q1697.46 32.3505 1694.67 34.0519 Q1691.91 35.7533 1691.91 39.156 Q1691.91 41.7486 1693.9 43.2475 Q1695.88 44.7058 1701.88 46.0426 L1704.43 46.6097 Q1712.37 48.3111 1715.69 51.4303 Q1719.06 54.509 1719.06 60.0587 Q1719.06 66.3781 1714.03 70.0644 Q1709.05 73.7508 1700.3 73.7508 Q1696.65 73.7508 1692.68 73.0216 Q1688.75 72.3329 1684.38 70.9151 L1684.38 63.2184 Q1688.51 65.3654 1692.52 66.4591 Q1696.53 67.5124 1700.46 67.5124 Q1705.73 67.5124 1708.56 65.73 Q1711.4 63.9071 1711.4 60.6258 Q1711.4 57.5877 1709.33 55.9673 Q1707.31 54.3469 1700.38 52.8481 L1697.79 52.2405 Q1690.86 50.7821 1687.78 47.7845 Q1684.7 44.7463 1684.7 39.4801 Q1684.7 33.0797 1689.24 29.5959 Q1693.78 26.1121 1702.12 26.1121 Q1706.25 26.1121 1709.9 26.7198 Q1713.55 27.3274 1716.62 28.5427 Z" fill="#000000" fill-rule="evenodd" fill-opacity="1" /><path clip-path="url(#clip620)" d="M 0 0 M1757.62 12.096 L1792.38 12.096 L1792.38 18.9825 L1765.8 18.9825 L1765.8 36.8065 L1789.78 36.8065 L1789.78 43.6931 L1765.8 43.6931 L1765.8 72.576 L1757.62 72.576 L1757.62 12.096 Z" fill="#000000" fill-rule="evenodd" fill-opacity="1" /><path clip-path="url(#clip620)" d="M 0 0 M1825.27 34.1734 Q1824.01 33.4443 1822.52 33.1202 Q1821.06 32.7556 1819.27 32.7556 Q1812.96 32.7556 1809.55 36.8875 Q1806.19 40.9789 1806.19 48.6757 L1806.19 72.576 L1798.7 72.576 L1798.7 27.2059 L1806.19 27.2059 L1806.19 34.2544 Q1808.54 30.1225 1812.31 28.1376 Q1816.07 26.1121 1821.46 26.1121 Q1822.23 26.1121 1823.16 26.2337 Q1824.1 26.3147 1825.23 26.5172 L1825.27 34.1734 Z" fill="#000000" fill-rule="evenodd" fill-opacity="1" /><path clip-path="url(#clip620)" d="M 0 0 M1870.07 48.0275 L1870.07 51.6733 L1835.8 51.6733 Q1836.29 59.3701 1840.42 63.421 Q1844.59 67.4314 1852.01 67.4314 Q1856.3 67.4314 1860.31 66.3781 Q1864.36 65.3249 1868.33 63.2184 L1868.33 70.267 Q1864.32 71.9684 1860.11 72.8596 Q1855.89 73.7508 1851.56 73.7508 Q1840.7 73.7508 1834.34 67.4314 Q1828.02 61.1119 1828.02 50.3365 Q1828.02 39.1965 1834.02 32.6746 Q1840.06 26.1121 1850.26 26.1121 Q1859.42 26.1121 1864.73 32.0264 Q1870.07 37.9003 1870.07 48.0275 M1862.62 45.84 Q1862.54 39.7232 1859.18 36.0774 Q1855.85 32.4315 1850.35 32.4315 Q1844.11 32.4315 1840.34 35.9558 Q1836.61 39.4801 1836.05 45.8805 L1862.62 45.84 Z" fill="#000000" fill-rule="evenodd" fill-opacity="1" /><path clip-path="url(#clip620)" d="M 0 0 M1886.76 49.9314 Q1886.76 58.1548 1890.12 62.8538 Q1893.53 67.5124 1899.44 67.5124 Q1905.36 67.5124 1908.76 62.8538 Q1912.16 58.1548 1912.16 49.9314 Q1912.16 41.7081 1908.76 37.0496 Q1905.36 32.3505 1899.44 32.3505 Q1893.53 32.3505 1890.12 37.0496 Q1886.76 41.7081 1886.76 49.9314 M1912.16 65.7705 Q1909.81 69.8214 1906.21 71.8063 Q1902.64 73.7508 1897.62 73.7508 Q1889.4 73.7508 1884.21 67.1883 Q1879.07 60.6258 1879.07 49.9314 Q1879.07 39.2371 1884.21 32.6746 Q1889.4 26.1121 1897.62 26.1121 Q1902.64 26.1121 1906.21 28.0971 Q1909.81 30.0415 1912.16 34.0924 L1912.16 27.2059 L1919.62 27.2059 L1919.62 89.8329 L1912.16 89.8329 L1912.16 65.7705 Z" fill="#000000" fill-rule="evenodd" fill-opacity="1" /><path clip-path="url(#clip620)" d="M 0 0 M1934.2 54.671 L1934.2 27.2059 L1941.65 27.2059 L1941.65 54.3874 Q1941.65 60.8284 1944.16 64.0691 Q1946.68 67.2693 1951.7 67.2693 Q1957.73 67.2693 1961.22 63.421 Q1964.74 59.5726 1964.74 52.9291 L1964.74 27.2059 L1972.2 27.2059 L1972.2 72.576 L1964.74 72.576 L1964.74 65.6084 Q1962.03 69.7404 1958.42 71.7658 Q1954.86 73.7508 1950.12 73.7508 Q1942.3 73.7508 1938.25 68.8897 Q1934.2 64.0286 1934.2 54.671 M1952.95 26.1121 L1952.95 26.1121 Z" fill="#000000" fill-rule="evenodd" fill-opacity="1" /><path clip-path="url(#clip620)" d="M 0 0 M2026.36 48.0275 L2026.36 51.6733 L1992.09 51.6733 Q1992.57 59.3701 1996.7 63.421 Q2000.88 67.4314 2008.29 67.4314 Q2012.58 67.4314 2016.59 66.3781 Q2020.65 65.3249 2024.61 63.2184 L2024.61 70.267 Q2020.6 71.9684 2016.39 72.8596 Q2012.18 73.7508 2007.84 73.7508 Q1996.99 73.7508 1990.63 67.4314 Q1984.31 61.1119 1984.31 50.3365 Q1984.31 39.1965 1990.3 32.6746 Q1996.34 26.1121 2006.55 26.1121 Q2015.7 26.1121 2021.01 32.0264 Q2026.36 37.9003 2026.36 48.0275 M2018.9 45.84 Q2018.82 39.7232 2015.46 36.0774 Q2012.14 32.4315 2006.63 32.4315 Q2000.39 32.4315 1996.62 35.9558 Q1992.9 39.4801 1992.33 45.8805 L2018.9 45.84 Z" fill="#000000" fill-rule="evenodd" fill-opacity="1" /><path clip-path="url(#clip620)" d="M 0 0 M2076.3 45.1919 L2076.3 72.576 L2068.85 72.576 L2068.85 45.4349 Q2068.85 38.994 2066.34 35.7938 Q2063.83 32.5936 2058.8 32.5936 Q2052.77 32.5936 2049.28 36.4419 Q2045.8 40.2903 2045.8 46.9338 L2045.8 72.576 L2038.31 72.576 L2038.31 27.2059 L2045.8 27.2059 L2045.8 34.2544 Q2048.47 30.163 2052.08 28.1376 Q2055.73 26.1121 2060.47 26.1121 Q2068.28 26.1121 2072.29 30.9732 Q2076.3 35.7938 2076.3 45.1919 Z" fill="#000000" fill-rule="evenodd" fill-opacity="1" /><path clip-path="url(#clip620)" d="M 0 0 M2123.82 28.9478 L2123.82 35.9153 Q2120.66 34.1734 2117.46 33.3227 Q2114.3 32.4315 2111.06 32.4315 Q2103.81 32.4315 2099.8 37.0496 Q2095.79 41.6271 2095.79 49.9314 Q2095.79 58.2358 2099.8 62.8538 Q2103.81 67.4314 2111.06 67.4314 Q2114.3 67.4314 2117.46 66.5807 Q2120.66 65.6895 2123.82 63.9476 L2123.82 70.8341 Q2120.7 72.2924 2117.34 73.0216 Q2114.02 73.7508 2110.25 73.7508 Q2100 73.7508 2093.97 67.3098 Q2087.93 60.8689 2087.93 49.9314 Q2087.93 38.832 2094.01 32.472 Q2100.12 26.1121 2110.74 26.1121 Q2114.18 26.1121 2117.46 26.8413 Q2120.74 27.5299 2123.82 28.9478 Z" fill="#000000" fill-rule="evenodd" fill-opacity="1" /><path clip-path="url(#clip620)" d="M 0 0 M2155.66 76.7889 Q2152.5 84.8907 2149.5 87.3618 Q2146.51 89.8329 2141.48 89.8329 L2135.53 89.8329 L2135.53 83.5945 L2139.9 83.5945 Q2142.98 83.5945 2144.68 82.1361 Q2146.39 80.6778 2148.45 75.2496 L2149.79 71.8468 L2131.44 27.2059 L2139.34 27.2059 L2153.51 62.6918 L2167.69 27.2059 L2175.59 27.2059 L2155.66 76.7889 Z" fill="#000000" fill-rule="evenodd" fill-opacity="1" /><polyline clip-path="url(#clip623)" style="stroke:#009af9; stroke-width:4; stroke-opacity:1; fill:none" points="
  355.82,1386.4 359.744,449.418 363.669,401.851 367.593,543.305 371.518,368.997 375.443,367.042 379.367,552.979 383.292,537.829 387.217,615.32 391.141,499.348 
  395.066,745.634 398.991,610.555 402.915,705.517 406.84,670.589 410.765,625.499 414.689,703.964 418.614,624.381 422.538,534.383 426.463,559.843 430.388,477.016 
  434.312,573.808 438.237,517.542 442.162,640.113 446.086,725.164 450.011,625.193 453.936,459.112 457.86,724.076 461.785,610.055 465.71,558.362 469.634,577.335 
  473.559,374.463 477.483,713.684 481.408,448.001 485.333,500.9 489.257,785.384 493.182,542.625 497.107,726.051 501.031,589.9 504.956,740.084 508.881,160.256 
  512.805,384.909 516.73,541.588 520.655,465.184 524.579,611.13 528.504,659.423 532.428,652.187 536.353,717.61 540.278,668.59 544.202,818.165 548.127,557.982 
  552.052,712.116 555.976,688.462 559.901,617.886 563.826,655.028 567.75,799.024 571.675,523.974 575.599,661.594 579.524,671.554 583.449,632.203 587.373,683.591 
  591.298,782.212 595.223,448.48 599.147,591.329 603.072,659.942 606.997,729.067 610.921,753.368 614.846,467.034 618.771,704.927 622.695,488.597 626.62,362.956 
  630.544,660.459 634.469,456.399 638.394,489.071 642.318,667.943 646.243,620.221 650.168,692.057 654.092,708.237 658.017,460.435 661.942,475.678 665.866,499.248 
  669.791,677.359 673.716,788.292 677.64,669.104 681.565,622.138 685.489,594.894 689.414,485.019 693.339,827.889 697.263,550.903 701.188,455.798 705.113,686.09 
  709.037,552.704 712.962,530.53 716.887,587.547 720.811,654.744 724.736,372.544 728.661,239.237 732.585,690.824 736.51,625.938 740.434,607.95 744.359,695.168 
  748.284,565.17 752.208,470.614 756.133,421.991 760.058,526.684 763.982,497.808 767.907,592.392 771.832,569.916 775.756,473.135 779.681,785.387 783.606,784.763 
  787.53,625.221 791.455,851.335 795.379,548.693 799.304,818.889 803.229,672.874 807.153,246.529 811.078,375.112 815.003,707.57 818.927,812.566 822.852,504.562 
  826.777,449.038 830.701,543.316 834.626,667.68 838.551,578.625 842.475,604.07 846.4,590.331 850.324,678.681 854.249,745.397 858.174,453.705 862.098,591.851 
  866.023,563.445 869.948,616.08 873.872,625.764 877.797,642.502 881.722,582.569 885.646,500.474 889.571,527.605 893.495,575.238 897.42,393.213 901.345,287.304 
  905.269,684.054 909.194,509.869 913.119,411.685 917.043,616.045 920.968,669.847 924.893,759.024 928.817,596.338 932.742,679.422 936.667,748.622 940.591,659.945 
  944.516,650.812 948.44,615.786 952.365,613.526 956.29,760.279 960.214,524.219 964.139,436.08 968.064,713.802 971.988,516.729 975.913,333.999 979.838,798.489 
  983.762,691.951 987.687,583.134 991.612,308.25 995.536,543.296 999.461,579.145 1003.39,515.43 1007.31,402.742 1011.23,556.474 1015.16,550.052 1019.08,537.332 
  1023.01,739.993 1026.93,163.299 1030.86,425.717 1034.78,487.383 1038.71,651.217 1042.63,597.164 1046.56,516.741 1050.48,549.125 1054.41,713.778 1058.33,634.225 
  1062.26,474.81 1066.18,480.84 1070.1,614.538 1074.03,615.068 1077.95,633.909 1081.88,721.715 1085.8,699.964 1089.73,339.427 1093.65,645.09 1097.58,752.287 
  1101.5,686.534 1105.43,388.623 1109.35,564.752 1113.28,576.707 1117.2,531.164 1121.12,618.022 1125.05,662.166 1128.97,716.011 1132.9,545.976 1136.82,398.199 
  1140.75,689.832 1144.67,450.399 1148.6,553.77 1152.52,530.725 1156.45,686.949 1160.37,669.044 1164.3,582.764 1168.22,533.984 1172.15,456.116 1176.07,545.593 
  1179.99,533.44 1183.92,472.63 1187.84,740.586 1191.77,651.881 1195.69,689.639 1199.62,607.526 1203.54,796.973 1207.47,611.513 1211.39,323.833 1215.32,387.561 
  1219.24,500.892 1223.17,487.57 1227.09,508.35 1231.01,467.646 1234.94,433.086 1238.86,546.437 1242.79,663.778 1246.71,539.261 1250.64,586.614 1254.56,533.981 
  1258.49,535.953 1262.41,607.601 1266.34,598.248 1270.26,397.665 1274.19,472.404 1278.11,531.723 1282.04,489.297 1285.96,767.871 1289.88,562.582 1293.81,597.865 
  1297.73,569.187 1301.66,641.213 1305.58,424.08 1309.51,466.656 1313.43,597.14 1317.36,565.951 1321.28,630.205 1325.21,432.103 1329.13,421.337 1333.06,598.753 
  1336.98,411.743 1340.9,403.876 1344.83,629.256 1348.75,672.918 1352.68,679.156 1356.6,461.114 1360.53,363.822 1364.45,536.654 1368.38,674.04 1372.3,634.111 
  1376.23,677.58 1380.15,713.584 1384.08,528.644 1388,516.519 1391.93,578.24 1395.85,454.256 1399.77,697.012 1403.7,561.826 1407.62,688.356 1411.55,681.01 
  1415.47,680.037 1419.4,573.047 1423.32,665.862 1427.25,772.198 1431.17,651.903 1435.1,628.238 1439.02,589.776 1442.95,433.08 1446.87,664.512 1450.79,624.417 
  1454.72,489.099 1458.64,597.476 1462.57,589.562 1466.49,448.935 1470.42,538.756 1474.34,514.499 1478.27,462.734 1482.19,438.947 1486.12,514.222 1490.04,553.035 
  1493.97,605.659 1497.89,610.406 1501.82,513.403 1505.74,641.807 1509.66,524.729 1513.59,659.214 1517.51,441.472 1521.44,718.83 1525.36,591.093 1529.29,471.31 
  1533.21,346.322 1537.14,422.998 1541.06,665.043 1544.99,487.262 1548.91,629.086 1552.84,590.789 1556.76,516.77 1560.68,430.889 1564.61,388.748 1568.53,815.187 
  1572.46,699.823 1576.38,739.631 1580.31,523.063 1584.23,669.347 1588.16,793.924 1592.08,516.267 1596.01,447.395 1599.93,552.297 1603.86,754.356 1607.78,515.684 
  1611.7,587.418 1615.63,503.518 1619.55,487.903 1623.48,661.239 1627.4,758.514 1631.33,639.763 1635.25,598.795 1639.18,672.651 1643.1,677.863 1647.03,511.812 
  1650.95,626.255 1654.88,549.275 1658.8,268.305 1662.73,635.79 1666.65,725.731 1670.57,635.661 1674.5,606.999 1678.42,535.837 1682.35,625.627 1686.27,664.856 
  1690.2,726.807 1694.12,592.725 1698.05,480.209 1701.97,556.902 1705.9,664.16 1709.82,848.717 1713.75,577.398 1717.67,695.516 1721.59,498.618 1725.52,578.963 
  1729.44,555.663 1733.37,682.804 1737.29,647.636 1741.22,630.881 1745.14,342.777 1749.07,661.49 1752.99,723.746 1756.92,778.281 1760.84,792.024 1764.77,462.502 
  1768.69,517.306 1772.62,468.671 1776.54,580.912 1780.46,538.002 1784.39,349.03 1788.31,719.916 1792.24,715.899 1796.16,413.98 1800.09,515.166 1804.01,425.359 
  1807.94,293.682 1811.86,710.556 1815.79,713.343 1819.71,613.83 1823.64,510.736 1827.56,593.652 1831.48,459.344 1835.41,590.927 1839.33,507.86 1843.26,696.92 
  1847.18,603.734 1851.11,752.84 1855.03,587.153 1858.96,600.151 1862.88,505.329 1866.81,798.327 1870.73,434.7 1874.66,708.178 1878.58,561.387 1882.51,585.366 
  1886.43,519.788 1890.35,564.33 1894.28,675.36 1898.2,654.404 1902.13,636.052 1906.05,616.51 1909.98,451.103 1913.9,610.193 1917.83,573.717 1921.75,604.425 
  1925.68,609.801 1929.6,599.221 1933.53,591.739 1937.45,534.466 1941.37,499.705 1945.3,527.661 1949.22,723.348 1953.15,779.294 1957.07,498.044 1961,725.505 
  1964.92,713.184 1968.85,501.493 1972.77,446.451 1976.7,414.45 1980.62,520.908 1984.55,564.592 1988.47,603.776 1992.4,501.81 1996.32,666.668 2000.24,617.078 
  2004.17,513.471 2008.09,647.254 2012.02,634.506 2015.94,591.471 2019.87,665.48 2023.79,703.37 2027.72,779.736 2031.64,551.462 2035.57,616.902 2039.49,591.357 
  2043.42,602.31 2047.34,495.818 2051.26,693.274 2055.19,759.686 2059.11,622.439 2063.04,798.012 2066.96,555.023 2070.89,743.304 2074.81,758.798 2078.74,665.679 
  2082.66,555.921 2086.59,520.734 2090.51,704.908 2094.44,597.992 2098.36,567.617 2102.29,441.541 2106.21,615.462 2110.13,606.919 2114.06,669.132 2117.98,596.368 
  2121.91,659.918 2125.83,718.782 2129.76,595.284 2133.68,789.027 2137.61,718.523 2141.53,577.367 2145.46,630.373 2149.38,620.825 2153.31,462.855 2157.23,689.356 
  2161.15,609.275 2165.08,380.055 2169,316.011 2172.93,557.086 2176.85,668.129 2180.78,714.27 2184.7,599.65 2188.63,666.509 2192.55,625.763 2196.48,922.889 
  2200.4,648.205 2204.33,523.607 2208.25,702.286 2212.18,663.253 2216.1,645.89 2220.02,483.954 2223.95,621.683 2227.87,699.257 2231.8,620.097 2235.72,578.39 
  2239.65,414.607 2243.57,868.765 2247.5,579.605 2251.42,397.829 2255.35,340.319 2259.27,607.509 2263.2,644.399 2267.12,729.877 2271.04,512.854 2274.97,519.998 
  2278.89,493.408 2282.82,643.422 2286.74,538.99 2290.67,624.216 2294.59,519.799 
  "/>
<polyline clip-path="url(#clip623)" style="stroke:#e26f46; stroke-width:4; stroke-opacity:1; fill:none" stroke-dasharray="16, 10" points="
  472.264,2722.89 472.264,-1176.24 
  "/>
<path clip-path="url(#clip620)" d="
M1702.92 287.756 L2284.25 287.756 L2284.25 166.796 L1702.92 166.796  Z
  " fill="#ffffff" fill-rule="evenodd" fill-opacity="1"/>
<polyline clip-path="url(#clip620)" style="stroke:#000000; stroke-width:4; stroke-opacity:1; fill:none" points="
  1702.92,287.756 2284.25,287.756 2284.25,166.796 1702.92,166.796 1702.92,287.756 
  "/>
<polyline clip-path="url(#clip620)" style="stroke:#e26f46; stroke-width:4; stroke-opacity:1; fill:none" stroke-dasharray="16, 10" points="
  1725.76,227.276 1862.77,227.276 
  "/>
<path clip-path="url(#clip620)" d="M 0 0 M1902.1 208.537 L1902.1 212.079 L1898.03 212.079 Q1895.74 212.079 1894.84 213.005 Q1893.96 213.931 1893.96 216.338 L1893.96 218.63 L1900.97 218.63 L1900.97 221.94 L1893.96 221.94 L1893.96 244.556 L1889.67 244.556 L1889.67 221.94 L1885.6 221.94 L1885.6 218.63 L1889.67 218.63 L1889.67 216.824 Q1889.67 212.496 1891.69 210.528 Q1893.7 208.537 1898.08 208.537 L1902.1 208.537 Z" fill="#000000" fill-rule="evenodd" fill-opacity="1" /><path clip-path="url(#clip620)" d="M 0 0 M1920.69 222.611 Q1919.97 222.195 1919.12 222.01 Q1918.28 221.801 1917.27 221.801 Q1913.65 221.801 1911.71 224.162 Q1909.79 226.5 1909.79 230.898 L1909.79 244.556 L1905.51 244.556 L1905.51 218.63 L1909.79 218.63 L1909.79 222.658 Q1911.13 220.297 1913.28 219.162 Q1915.44 218.005 1918.52 218.005 Q1918.96 218.005 1919.49 218.074 Q1920.02 218.121 1920.67 218.236 L1920.69 222.611 Z" fill="#000000" fill-rule="evenodd" fill-opacity="1" /><path clip-path="url(#clip620)" d="M 0 0 M1946.29 230.528 L1946.29 232.611 L1926.71 232.611 Q1926.99 237.009 1929.35 239.324 Q1931.73 241.616 1935.97 241.616 Q1938.42 241.616 1940.71 241.014 Q1943.03 240.412 1945.3 239.209 L1945.3 243.236 Q1943.01 244.208 1940.6 244.718 Q1938.19 245.227 1935.71 245.227 Q1929.51 245.227 1925.88 241.616 Q1922.27 238.005 1922.27 231.847 Q1922.27 225.482 1925.69 221.755 Q1929.14 218.005 1934.97 218.005 Q1940.21 218.005 1943.24 221.385 Q1946.29 224.741 1946.29 230.528 M1942.03 229.278 Q1941.99 225.783 1940.07 223.699 Q1938.17 221.616 1935.02 221.616 Q1931.46 221.616 1929.3 223.63 Q1927.17 225.644 1926.85 229.301 L1942.03 229.278 Z" fill="#000000" fill-rule="evenodd" fill-opacity="1" /><path clip-path="url(#clip620)" d="M 0 0 M1955.83 231.616 Q1955.83 236.315 1957.75 239 Q1959.7 241.662 1963.08 241.662 Q1966.46 241.662 1968.4 239 Q1970.34 236.315 1970.34 231.616 Q1970.34 226.917 1968.4 224.255 Q1966.46 221.57 1963.08 221.57 Q1959.7 221.57 1957.75 224.255 Q1955.83 226.917 1955.83 231.616 M1970.34 240.667 Q1969 242.982 1966.94 244.116 Q1964.9 245.227 1962.03 245.227 Q1957.34 245.227 1954.37 241.477 Q1951.43 237.727 1951.43 231.616 Q1951.43 225.505 1954.37 221.755 Q1957.34 218.005 1962.03 218.005 Q1964.9 218.005 1966.94 219.139 Q1969 220.25 1970.34 222.565 L1970.34 218.63 L1974.6 218.63 L1974.6 254.417 L1970.34 254.417 L1970.34 240.667 Z" fill="#000000" fill-rule="evenodd" fill-opacity="1" /><path clip-path="url(#clip620)" d="M 0 0 M1982.94 234.324 L1982.94 218.63 L1987.2 218.63 L1987.2 234.162 Q1987.2 237.843 1988.63 239.695 Q1990.07 241.523 1992.94 241.523 Q1996.39 241.523 1998.38 239.324 Q2000.39 237.125 2000.39 233.329 L2000.39 218.63 L2004.65 218.63 L2004.65 244.556 L2000.39 244.556 L2000.39 240.574 Q1998.84 242.935 1996.78 244.093 Q1994.74 245.227 1992.03 245.227 Q1987.57 245.227 1985.25 242.449 Q1982.94 239.671 1982.94 234.324 M1993.65 218.005 L1993.65 218.005 Z" fill="#000000" fill-rule="evenodd" fill-opacity="1" /><path clip-path="url(#clip620)" d="M 0 0 M2035.6 230.528 L2035.6 232.611 L2016.02 232.611 Q2016.29 237.009 2018.65 239.324 Q2021.04 241.616 2025.27 241.616 Q2027.73 241.616 2030.02 241.014 Q2032.33 240.412 2034.6 239.209 L2034.6 243.236 Q2032.31 244.208 2029.9 244.718 Q2027.5 245.227 2025.02 245.227 Q2018.82 245.227 2015.18 241.616 Q2011.57 238.005 2011.57 231.847 Q2011.57 225.482 2015 221.755 Q2018.45 218.005 2024.28 218.005 Q2029.51 218.005 2032.54 221.385 Q2035.6 224.741 2035.6 230.528 M2031.34 229.278 Q2031.29 225.783 2029.37 223.699 Q2027.47 221.616 2024.33 221.616 Q2020.76 221.616 2018.61 223.63 Q2016.48 225.644 2016.15 229.301 L2031.34 229.278 Z" fill="#000000" fill-rule="evenodd" fill-opacity="1" /><path clip-path="url(#clip620)" d="M 0 0 M2064.14 228.908 L2064.14 244.556 L2059.88 244.556 L2059.88 229.047 Q2059.88 225.366 2058.45 223.537 Q2057.01 221.709 2054.14 221.709 Q2050.69 221.709 2048.7 223.908 Q2046.71 226.107 2046.71 229.903 L2046.71 244.556 L2042.43 244.556 L2042.43 218.63 L2046.71 218.63 L2046.71 222.658 Q2048.24 220.32 2050.3 219.162 Q2052.38 218.005 2055.09 218.005 Q2059.56 218.005 2061.85 220.783 Q2064.14 223.537 2064.14 228.908 Z" fill="#000000" fill-rule="evenodd" fill-opacity="1" /><path clip-path="url(#clip620)" d="M 0 0 M2091.29 219.625 L2091.29 223.607 Q2089.49 222.611 2087.66 222.125 Q2085.85 221.616 2084 221.616 Q2079.86 221.616 2077.57 224.255 Q2075.27 226.871 2075.27 231.616 Q2075.27 236.361 2077.57 239 Q2079.86 241.616 2084 241.616 Q2085.85 241.616 2087.66 241.13 Q2089.49 240.621 2091.29 239.625 L2091.29 243.56 Q2089.51 244.394 2087.59 244.81 Q2085.69 245.227 2083.54 245.227 Q2077.68 245.227 2074.23 241.546 Q2070.78 237.866 2070.78 231.616 Q2070.78 225.273 2074.26 221.639 Q2077.75 218.005 2083.82 218.005 Q2085.78 218.005 2087.66 218.422 Q2089.53 218.815 2091.29 219.625 Z" fill="#000000" fill-rule="evenodd" fill-opacity="1" /><path clip-path="url(#clip620)" d="M 0 0 M2109.49 246.963 Q2107.68 251.593 2105.97 253.005 Q2104.26 254.417 2101.39 254.417 L2097.98 254.417 L2097.98 250.852 L2100.48 250.852 Q2102.24 250.852 2103.21 250.019 Q2104.19 249.185 2105.37 246.083 L2106.13 244.139 L2095.64 218.63 L2100.16 218.63 L2108.26 238.908 L2116.36 218.63 L2120.88 218.63 L2109.49 246.963 Z" fill="#000000" fill-rule="evenodd" fill-opacity="1" /><path clip-path="url(#clip620)" d="M 0 0 M2158.35 219.394 L2158.35 223.422 Q2156.55 222.496 2154.6 222.033 Q2152.66 221.57 2150.57 221.57 Q2147.4 221.57 2145.81 222.542 Q2144.23 223.514 2144.23 225.459 Q2144.23 226.94 2145.37 227.797 Q2146.5 228.63 2149.93 229.394 L2151.39 229.718 Q2155.92 230.69 2157.82 232.472 Q2159.74 234.232 2159.74 237.403 Q2159.74 241.014 2156.87 243.121 Q2154.02 245.227 2149.02 245.227 Q2146.94 245.227 2144.67 244.81 Q2142.43 244.417 2139.93 243.607 L2139.93 239.209 Q2142.29 240.435 2144.58 241.06 Q2146.87 241.662 2149.12 241.662 Q2152.13 241.662 2153.75 240.644 Q2155.37 239.602 2155.37 237.727 Q2155.37 235.991 2154.19 235.065 Q2153.03 234.139 2149.07 233.283 L2147.59 232.935 Q2143.63 232.102 2141.87 230.389 Q2140.11 228.653 2140.11 225.644 Q2140.11 221.986 2142.7 219.996 Q2145.3 218.005 2150.07 218.005 Q2152.43 218.005 2154.51 218.352 Q2156.59 218.699 2158.35 219.394 Z" fill="#000000" fill-rule="evenodd" fill-opacity="1" /><path clip-path="url(#clip620)" d="M 0 0 M2188.07 228.908 L2188.07 244.556 L2183.82 244.556 L2183.82 229.047 Q2183.82 225.366 2182.38 223.537 Q2180.95 221.709 2178.07 221.709 Q2174.63 221.709 2172.63 223.908 Q2170.64 226.107 2170.64 229.903 L2170.64 244.556 L2166.36 244.556 L2166.36 208.537 L2170.64 208.537 L2170.64 222.658 Q2172.17 220.32 2174.23 219.162 Q2176.32 218.005 2179.02 218.005 Q2183.49 218.005 2185.78 220.783 Q2188.07 223.537 2188.07 228.908 Z" fill="#000000" fill-rule="evenodd" fill-opacity="1" /><path clip-path="url(#clip620)" d="M 0 0 M2196.57 218.63 L2200.83 218.63 L2200.83 244.556 L2196.57 244.556 L2196.57 218.63 M2196.57 208.537 L2200.83 208.537 L2200.83 213.931 L2196.57 213.931 L2196.57 208.537 Z" fill="#000000" fill-rule="evenodd" fill-opacity="1" /><path clip-path="url(#clip620)" d="M 0 0 M2222.87 208.537 L2222.87 212.079 L2218.79 212.079 Q2216.5 212.079 2215.6 213.005 Q2214.72 213.931 2214.72 216.338 L2214.72 218.63 L2221.73 218.63 L2221.73 221.94 L2214.72 221.94 L2214.72 244.556 L2210.44 244.556 L2210.44 221.94 L2206.36 221.94 L2206.36 218.63 L2210.44 218.63 L2210.44 216.824 Q2210.44 212.496 2212.45 210.528 Q2214.46 208.537 2218.84 208.537 L2222.87 208.537 Z" fill="#000000" fill-rule="evenodd" fill-opacity="1" /><path clip-path="url(#clip620)" d="M 0 0 M2229.81 211.269 L2229.81 218.63 L2238.58 218.63 L2238.58 221.94 L2229.81 221.94 L2229.81 236.014 Q2229.81 239.185 2230.67 240.088 Q2231.55 240.991 2234.21 240.991 L2238.58 240.991 L2238.58 244.556 L2234.21 244.556 Q2229.28 244.556 2227.4 242.727 Q2225.53 240.875 2225.53 236.014 L2225.53 221.94 L2222.4 221.94 L2222.4 218.63 L2225.53 218.63 L2225.53 211.269 L2229.81 211.269 Z" fill="#000000" fill-rule="evenodd" fill-opacity="1" /></svg>
