<?xml version="1.0" encoding="utf-8"?>
<svg xmlns="http://www.w3.org/2000/svg" xmlns:xlink="http://www.w3.org/1999/xlink" width="600" height="400" viewBox="0 0 2400 1600">
<defs>
  <clipPath id="clip230">
    <rect x="0" y="0" width="2400" height="1600"/>
  </clipPath>
</defs>
<path clip-path="url(#clip230)" d="
M0 1600 L2400 1600 L2400 0 L0 0  Z
  " fill="#ffffff" fill-rule="evenodd" fill-opacity="1"/>
<defs>
  <clipPath id="clip231">
    <rect x="480" y="0" width="1681" height="1600"/>
  </clipPath>
</defs>
<defs>
  <clipPath id="clip232">
    <rect x="262" y="123" width="2091" height="1301"/>
  </clipPath>
</defs>
<path clip-path="url(#clip230)" d="
M255.437 1427.15 L2352.76 1427.15 L2352.76 123.472 L255.437 123.472  Z
  " fill="#ffffff" fill-rule="evenodd" fill-opacity="1"/>
<defs>
  <clipPath id="clip233">
    <rect x="255" y="123" width="2098" height="1305"/>
  </clipPath>
</defs>
<polyline clip-path="url(#clip233)" style="stroke:#000000; stroke-width:2; stroke-opacity:0.1; fill:none" points="
  314.795,1427.15 314.795,123.472 
  "/>
<polyline clip-path="url(#clip233)" style="stroke:#000000; stroke-width:2; stroke-opacity:0.1; fill:none" points="
  809.941,1427.15 809.941,123.472 
  "/>
<polyline clip-path="url(#clip233)" style="stroke:#000000; stroke-width:2; stroke-opacity:0.1; fill:none" points="
  1305.09,1427.15 1305.09,123.472 
  "/>
<polyline clip-path="url(#clip233)" style="stroke:#000000; stroke-width:2; stroke-opacity:0.1; fill:none" points="
  1800.23,1427.15 1800.23,123.472 
  "/>
<polyline clip-path="url(#clip233)" style="stroke:#000000; stroke-width:2; stroke-opacity:0.1; fill:none" points="
  2295.38,1427.15 2295.38,123.472 
  "/>
<polyline clip-path="url(#clip230)" style="stroke:#000000; stroke-width:4; stroke-opacity:1; fill:none" points="
  255.437,1427.15 2352.76,1427.15 
  "/>
<polyline clip-path="url(#clip230)" style="stroke:#000000; stroke-width:4; stroke-opacity:1; fill:none" points="
  314.795,1427.15 314.795,1411.5 
  "/>
<polyline clip-path="url(#clip230)" style="stroke:#000000; stroke-width:4; stroke-opacity:1; fill:none" points="
  809.941,1427.15 809.941,1411.5 
  "/>
<polyline clip-path="url(#clip230)" style="stroke:#000000; stroke-width:4; stroke-opacity:1; fill:none" points="
  1305.09,1427.15 1305.09,1411.5 
  "/>
<polyline clip-path="url(#clip230)" style="stroke:#000000; stroke-width:4; stroke-opacity:1; fill:none" points="
  1800.23,1427.15 1800.23,1411.5 
  "/>
<polyline clip-path="url(#clip230)" style="stroke:#000000; stroke-width:4; stroke-opacity:1; fill:none" points="
  2295.38,1427.15 2295.38,1411.5 
  "/>
<path clip-path="url(#clip230)" d="M 0 0 M292.179 1456.34 Q288.568 1456.34 286.739 1459.9 Q284.934 1463.44 284.934 1470.57 Q284.934 1477.68 286.739 1481.25 Q288.568 1484.79 292.179 1484.79 Q295.813 1484.79 297.619 1481.25 Q299.448 1477.68 299.448 1470.57 Q299.448 1463.44 297.619 1459.9 Q295.813 1456.34 292.179 1456.34 M292.179 1452.63 Q297.989 1452.63 301.045 1457.24 Q304.124 1461.82 304.124 1470.57 Q304.124 1479.3 301.045 1483.91 Q297.989 1488.49 292.179 1488.49 Q286.369 1488.49 283.29 1483.91 Q280.235 1479.3 280.235 1470.57 Q280.235 1461.82 283.29 1457.24 Q286.369 1452.63 292.179 1452.63 Z" fill="#000000" fill-rule="evenodd" fill-opacity="1" /><path clip-path="url(#clip230)" d="M 0 0 M312.341 1481.94 L317.225 1481.94 L317.225 1487.82 L312.341 1487.82 L312.341 1481.94 Z" fill="#000000" fill-rule="evenodd" fill-opacity="1" /><path clip-path="url(#clip230)" d="M 0 0 M337.41 1456.34 Q333.799 1456.34 331.971 1459.9 Q330.165 1463.44 330.165 1470.57 Q330.165 1477.68 331.971 1481.25 Q333.799 1484.79 337.41 1484.79 Q341.045 1484.79 342.85 1481.25 Q344.679 1477.68 344.679 1470.57 Q344.679 1463.44 342.85 1459.9 Q341.045 1456.34 337.41 1456.34 M337.41 1452.63 Q343.221 1452.63 346.276 1457.24 Q349.355 1461.82 349.355 1470.57 Q349.355 1479.3 346.276 1483.91 Q343.221 1488.49 337.41 1488.49 Q331.6 1488.49 328.522 1483.91 Q325.466 1479.3 325.466 1470.57 Q325.466 1461.82 328.522 1457.24 Q331.6 1452.63 337.41 1452.63 Z" fill="#000000" fill-rule="evenodd" fill-opacity="1" /><path clip-path="url(#clip230)" d="M 0 0 M781.677 1483.88 L797.996 1483.88 L797.996 1487.82 L776.052 1487.82 L776.052 1483.88 Q778.714 1481.13 783.297 1476.5 Q787.904 1471.85 789.084 1470.51 Q791.33 1467.98 792.209 1466.25 Q793.112 1464.49 793.112 1462.8 Q793.112 1460.04 791.168 1458.31 Q789.246 1456.57 786.145 1456.57 Q783.945 1456.57 781.492 1457.33 Q779.061 1458.1 776.283 1459.65 L776.283 1454.93 Q779.108 1453.79 781.561 1453.21 Q784.015 1452.63 786.052 1452.63 Q791.422 1452.63 794.617 1455.32 Q797.811 1458.01 797.811 1462.5 Q797.811 1464.63 797.001 1466.55 Q796.214 1468.44 794.107 1471.04 Q793.529 1471.71 790.427 1474.93 Q787.325 1478.12 781.677 1483.88 Z" fill="#000000" fill-rule="evenodd" fill-opacity="1" /><path clip-path="url(#clip230)" d="M 0 0 M807.811 1481.94 L812.695 1481.94 L812.695 1487.82 L807.811 1487.82 L807.811 1481.94 Z" fill="#000000" fill-rule="evenodd" fill-opacity="1" /><path clip-path="url(#clip230)" d="M 0 0 M822.927 1453.26 L841.283 1453.26 L841.283 1457.19 L827.209 1457.19 L827.209 1465.67 Q828.228 1465.32 829.246 1465.16 Q830.265 1464.97 831.283 1464.97 Q837.07 1464.97 840.45 1468.14 Q843.829 1471.32 843.829 1476.73 Q843.829 1482.31 840.357 1485.41 Q836.885 1488.49 830.566 1488.49 Q828.39 1488.49 826.121 1488.12 Q823.876 1487.75 821.468 1487.01 L821.468 1482.31 Q823.552 1483.44 825.774 1484 Q827.996 1484.56 830.473 1484.56 Q834.478 1484.56 836.816 1482.45 Q839.153 1480.34 839.153 1476.73 Q839.153 1473.12 836.816 1471.01 Q834.478 1468.91 830.473 1468.91 Q828.598 1468.91 826.723 1469.32 Q824.871 1469.74 822.927 1470.62 L822.927 1453.26 Z" fill="#000000" fill-rule="evenodd" fill-opacity="1" /><path clip-path="url(#clip230)" d="M 0 0 M1272.25 1453.26 L1290.61 1453.26 L1290.61 1457.19 L1276.53 1457.19 L1276.53 1465.67 Q1277.55 1465.32 1278.57 1465.16 Q1279.59 1464.97 1280.61 1464.97 Q1286.39 1464.97 1289.77 1468.14 Q1293.15 1471.32 1293.15 1476.73 Q1293.15 1482.31 1289.68 1485.41 Q1286.21 1488.49 1279.89 1488.49 Q1277.71 1488.49 1275.45 1488.12 Q1273.2 1487.75 1270.79 1487.01 L1270.79 1482.31 Q1272.88 1483.44 1275.1 1484 Q1277.32 1484.56 1279.8 1484.56 Q1283.8 1484.56 1286.14 1482.45 Q1288.48 1480.34 1288.48 1476.73 Q1288.48 1473.12 1286.14 1471.01 Q1283.8 1468.91 1279.8 1468.91 Q1277.92 1468.91 1276.05 1469.32 Q1274.2 1469.74 1272.25 1470.62 L1272.25 1453.26 Z" fill="#000000" fill-rule="evenodd" fill-opacity="1" /><path clip-path="url(#clip230)" d="M 0 0 M1302.37 1481.94 L1307.25 1481.94 L1307.25 1487.82 L1302.37 1487.82 L1302.37 1481.94 Z" fill="#000000" fill-rule="evenodd" fill-opacity="1" /><path clip-path="url(#clip230)" d="M 0 0 M1327.44 1456.34 Q1323.82 1456.34 1322 1459.9 Q1320.19 1463.44 1320.19 1470.57 Q1320.19 1477.68 1322 1481.25 Q1323.82 1484.79 1327.44 1484.79 Q1331.07 1484.79 1332.88 1481.25 Q1334.7 1477.68 1334.7 1470.57 Q1334.7 1463.44 1332.88 1459.9 Q1331.07 1456.34 1327.44 1456.34 M1327.44 1452.63 Q1333.25 1452.63 1336.3 1457.24 Q1339.38 1461.82 1339.38 1470.57 Q1339.38 1479.3 1336.3 1483.91 Q1333.25 1488.49 1327.44 1488.49 Q1321.63 1488.49 1318.55 1483.91 Q1315.49 1479.3 1315.49 1470.57 Q1315.49 1461.82 1318.55 1457.24 Q1321.63 1452.63 1327.44 1452.63 Z" fill="#000000" fill-rule="evenodd" fill-opacity="1" /><path clip-path="url(#clip230)" d="M 0 0 M1766.55 1453.26 L1788.77 1453.26 L1788.77 1455.25 L1776.23 1487.82 L1771.34 1487.82 L1783.15 1457.19 L1766.55 1457.19 L1766.55 1453.26 Z" fill="#000000" fill-rule="evenodd" fill-opacity="1" /><path clip-path="url(#clip230)" d="M 0 0 M1797.89 1481.94 L1802.78 1481.94 L1802.78 1487.82 L1797.89 1487.82 L1797.89 1481.94 Z" fill="#000000" fill-rule="evenodd" fill-opacity="1" /><path clip-path="url(#clip230)" d="M 0 0 M1813.01 1453.26 L1831.37 1453.26 L1831.37 1457.19 L1817.29 1457.19 L1817.29 1465.67 Q1818.31 1465.32 1819.33 1465.16 Q1820.35 1464.97 1821.37 1464.97 Q1827.15 1464.97 1830.53 1468.14 Q1833.91 1471.32 1833.91 1476.73 Q1833.91 1482.31 1830.44 1485.41 Q1826.97 1488.49 1820.65 1488.49 Q1818.47 1488.49 1816.2 1488.12 Q1813.96 1487.75 1811.55 1487.01 L1811.55 1482.31 Q1813.64 1483.44 1815.86 1484 Q1818.08 1484.56 1820.56 1484.56 Q1824.56 1484.56 1826.9 1482.45 Q1829.24 1480.34 1829.24 1476.73 Q1829.24 1473.12 1826.9 1471.01 Q1824.56 1468.91 1820.56 1468.91 Q1818.68 1468.91 1816.81 1469.32 Q1814.95 1469.74 1813.01 1470.62 L1813.01 1453.26 Z" fill="#000000" fill-rule="evenodd" fill-opacity="1" /><path clip-path="url(#clip230)" d="M 0 0 M2247.45 1483.88 L2255.09 1483.88 L2255.09 1457.52 L2246.78 1459.19 L2246.78 1454.93 L2255.04 1453.26 L2259.72 1453.26 L2259.72 1483.88 L2267.36 1483.88 L2267.36 1487.82 L2247.45 1487.82 L2247.45 1483.88 Z" fill="#000000" fill-rule="evenodd" fill-opacity="1" /><path clip-path="url(#clip230)" d="M 0 0 M2286.8 1456.34 Q2283.19 1456.34 2281.36 1459.9 Q2279.56 1463.44 2279.56 1470.57 Q2279.56 1477.68 2281.36 1481.25 Q2283.19 1484.79 2286.8 1484.79 Q2290.44 1484.79 2292.24 1481.25 Q2294.07 1477.68 2294.07 1470.57 Q2294.07 1463.44 2292.24 1459.9 Q2290.44 1456.34 2286.8 1456.34 M2286.8 1452.63 Q2292.61 1452.63 2295.67 1457.24 Q2298.75 1461.82 2298.75 1470.57 Q2298.75 1479.3 2295.67 1483.91 Q2292.61 1488.49 2286.8 1488.49 Q2280.99 1488.49 2277.91 1483.91 Q2274.86 1479.3 2274.86 1470.57 Q2274.86 1461.82 2277.91 1457.24 Q2280.99 1452.63 2286.8 1452.63 Z" fill="#000000" fill-rule="evenodd" fill-opacity="1" /><path clip-path="url(#clip230)" d="M 0 0 M2306.96 1481.94 L2311.85 1481.94 L2311.85 1487.82 L2306.96 1487.82 L2306.96 1481.94 Z" fill="#000000" fill-rule="evenodd" fill-opacity="1" /><path clip-path="url(#clip230)" d="M 0 0 M2332.03 1456.34 Q2328.42 1456.34 2326.59 1459.9 Q2324.79 1463.44 2324.79 1470.57 Q2324.79 1477.68 2326.59 1481.25 Q2328.42 1484.79 2332.03 1484.79 Q2335.67 1484.79 2337.47 1481.25 Q2339.3 1477.68 2339.3 1470.57 Q2339.3 1463.44 2337.47 1459.9 Q2335.67 1456.34 2332.03 1456.34 M2332.03 1452.63 Q2337.84 1452.63 2340.9 1457.24 Q2343.98 1461.82 2343.98 1470.57 Q2343.98 1479.3 2340.9 1483.91 Q2337.84 1488.49 2332.03 1488.49 Q2326.22 1488.49 2323.14 1483.91 Q2320.09 1479.3 2320.09 1470.57 Q2320.09 1461.82 2323.14 1457.24 Q2326.22 1452.63 2332.03 1452.63 Z" fill="#000000" fill-rule="evenodd" fill-opacity="1" /><path clip-path="url(#clip230)" d="M 0 0 M1254.62 1530.6 Q1254.62 1532.85 1251.37 1532.85 L1240.29 1532.85 L1235.88 1555.43 Q1235.78 1556.01 1235.65 1556.33 Q1235.56 1556.65 1235.27 1557.2 Q1235.01 1557.71 1234.46 1557.97 Q1233.95 1558.26 1233.17 1558.26 Q1232.21 1558.26 1231.73 1557.68 Q1231.27 1557.13 1231.27 1556.46 Q1231.27 1556.04 1231.92 1554.04 L1238.39 1532.85 L1232.92 1532.85 Q1227.76 1532.85 1224.54 1537.94 Q1224.03 1538.61 1223.74 1538.68 Q1223.61 1538.71 1223.48 1538.71 Q1223.13 1538.71 1222.9 1538.55 Q1222.71 1538.39 1222.71 1538.23 L1222.68 1538.07 Q1222.68 1537.84 1223.19 1536.94 Q1223.74 1536.01 1224.7 1534.62 Q1225.7 1533.24 1226.7 1532.14 Q1228.02 1530.72 1229.5 1529.98 Q1230.98 1529.21 1231.73 1529.11 Q1232.5 1529.02 1233.5 1529.02 L1251.98 1529.02 Q1252.82 1529.02 1253.27 1529.08 Q1253.72 1529.11 1254.17 1529.5 Q1254.62 1529.85 1254.62 1530.6 Z" fill="#000000" fill-rule="evenodd" fill-opacity="1" /><path clip-path="url(#clip230)" d="M 0 0 M1272.92 1540.97 Q1272.92 1529.82 1277.07 1520.84 Q1278.84 1517.07 1281.32 1513.91 Q1283.8 1510.76 1285.44 1509.37 Q1287.09 1507.99 1287.54 1507.99 Q1288.18 1507.99 1288.21 1508.63 Q1288.21 1508.95 1287.34 1509.76 Q1276.72 1520.58 1276.75 1540.97 Q1276.75 1561.42 1287.09 1571.82 Q1288.21 1572.95 1288.21 1573.3 Q1288.21 1573.94 1287.54 1573.94 Q1287.09 1573.94 1285.51 1572.62 Q1283.93 1571.3 1281.48 1568.28 Q1279.03 1565.25 1277.26 1561.55 Q1272.92 1552.56 1272.92 1540.97 Z" fill="#000000" fill-rule="evenodd" fill-opacity="1" /><path clip-path="url(#clip230)" d="M 0 0 M1298.24 1557.45 L1298.24 1555.43 Q1301.75 1555.43 1302.56 1555.01 Q1303.36 1554.56 1303.36 1552.43 L1303.36 1534.75 Q1303.36 1532.3 1302.49 1531.69 Q1301.66 1531.08 1298.24 1531.08 L1298.24 1529.02 L1307.52 1528.31 L1307.52 1535.23 Q1310.61 1528.31 1317.28 1528.31 Q1322.24 1528.31 1324.2 1530.76 Q1325.65 1532.4 1325.94 1534.23 Q1326.26 1536.07 1326.26 1540.84 L1326.26 1553.43 Q1326.33 1554.81 1327.39 1555.14 Q1328.45 1555.43 1331.41 1555.43 L1331.41 1557.45 Q1324.68 1557.26 1324.01 1557.26 Q1323.49 1557.26 1316.57 1557.45 L1316.57 1555.43 Q1320.08 1555.43 1320.88 1555.01 Q1321.72 1554.56 1321.72 1552.43 L1321.72 1537.07 Q1321.72 1533.72 1320.69 1531.75 Q1319.66 1529.76 1316.83 1529.76 Q1313.41 1529.76 1310.67 1532.62 Q1307.94 1535.49 1307.94 1540.32 L1307.94 1552.43 Q1307.94 1554.56 1308.74 1555.01 Q1309.58 1555.43 1313.06 1555.43 L1313.06 1557.45 Q1306.33 1557.26 1305.68 1557.26 Q1305.17 1557.26 1298.24 1557.45 Z" fill="#000000" fill-rule="evenodd" fill-opacity="1" /><path clip-path="url(#clip230)" d="M 0 0 M1334.48 1556.59 L1334.48 1547.89 Q1334.48 1547.15 1334.51 1546.89 Q1334.54 1546.63 1334.74 1546.44 Q1334.93 1546.25 1335.32 1546.25 Q1335.77 1546.25 1335.93 1546.44 Q1336.12 1546.63 1336.25 1547.37 Q1337.25 1551.92 1339.37 1554.33 Q1341.53 1556.71 1345.43 1556.71 Q1349.13 1556.71 1351 1555.07 Q1352.87 1553.43 1352.87 1550.72 Q1352.87 1545.89 1346.01 1544.67 Q1342.05 1543.86 1340.41 1543.35 Q1338.76 1542.8 1337.31 1541.61 Q1334.48 1539.29 1334.48 1536.01 Q1334.48 1532.72 1336.96 1530.31 Q1339.47 1527.89 1345.01 1527.89 Q1348.71 1527.89 1351.23 1529.76 Q1351.97 1529.18 1352.35 1528.7 Q1353.22 1527.89 1353.67 1527.89 Q1354.19 1527.89 1354.29 1528.24 Q1354.38 1528.57 1354.38 1529.5 L1354.38 1536.13 Q1354.38 1536.88 1354.35 1537.13 Q1354.32 1537.39 1354.13 1537.58 Q1353.93 1537.74 1353.51 1537.74 Q1352.77 1537.74 1352.74 1537.13 Q1352.23 1529.15 1345.01 1529.15 Q1341.11 1529.15 1339.37 1530.66 Q1337.64 1532.14 1337.64 1534.17 Q1337.64 1535.3 1338.15 1536.17 Q1338.7 1537 1339.37 1537.52 Q1340.08 1538 1341.37 1538.49 Q1342.66 1538.94 1343.43 1539.1 Q1344.24 1539.26 1345.75 1539.58 Q1351.03 1540.58 1353.26 1542.74 Q1356.03 1545.51 1356.03 1549.02 Q1356.03 1552.91 1353.38 1555.55 Q1350.74 1558.2 1345.43 1558.2 Q1341.15 1558.2 1338.15 1555.33 Q1337.76 1555.72 1337.47 1556.07 Q1337.18 1556.39 1337.06 1556.52 Q1336.96 1556.65 1336.93 1556.75 Q1336.9 1556.81 1336.83 1556.88 Q1335.51 1558.2 1335.19 1558.2 Q1334.67 1558.2 1334.58 1557.84 Q1334.48 1557.52 1334.48 1556.59 Z" fill="#000000" fill-rule="evenodd" fill-opacity="1" /><path clip-path="url(#clip230)" d="M 0 0 M1360.19 1573.3 Q1360.19 1572.98 1361.03 1572.17 Q1371.66 1561.35 1371.66 1540.97 Q1371.66 1520.51 1361.45 1510.18 Q1360.19 1508.99 1360.19 1508.63 Q1360.19 1507.99 1360.83 1507.99 Q1361.28 1507.99 1362.86 1509.31 Q1364.47 1510.63 1366.89 1513.65 Q1369.34 1516.68 1371.14 1520.39 Q1375.49 1529.37 1375.49 1540.97 Q1375.49 1552.11 1371.33 1561.09 Q1369.56 1564.86 1367.08 1568.02 Q1364.6 1571.17 1362.96 1572.56 Q1361.32 1573.94 1360.83 1573.94 Q1360.19 1573.94 1360.19 1573.3 Z" fill="#000000" fill-rule="evenodd" fill-opacity="1" /><polyline clip-path="url(#clip233)" style="stroke:#000000; stroke-width:2; stroke-opacity:0.1; fill:none" points="
  255.437,1276.6 2352.76,1276.6 
  "/>
<polyline clip-path="url(#clip233)" style="stroke:#000000; stroke-width:2; stroke-opacity:0.1; fill:none" points="
  255.437,1005.61 2352.76,1005.61 
  "/>
<polyline clip-path="url(#clip233)" style="stroke:#000000; stroke-width:2; stroke-opacity:0.1; fill:none" points="
  255.437,734.627 2352.76,734.627 
  "/>
<polyline clip-path="url(#clip233)" style="stroke:#000000; stroke-width:2; stroke-opacity:0.1; fill:none" points="
  255.437,463.64 2352.76,463.64 
  "/>
<polyline clip-path="url(#clip233)" style="stroke:#000000; stroke-width:2; stroke-opacity:0.1; fill:none" points="
  255.437,192.653 2352.76,192.653 
  "/>
<polyline clip-path="url(#clip230)" style="stroke:#000000; stroke-width:4; stroke-opacity:1; fill:none" points="
  255.437,1427.15 255.437,123.472 
  "/>
<polyline clip-path="url(#clip230)" style="stroke:#000000; stroke-width:4; stroke-opacity:1; fill:none" points="
  255.437,1276.6 280.605,1276.6 
  "/>
<polyline clip-path="url(#clip230)" style="stroke:#000000; stroke-width:4; stroke-opacity:1; fill:none" points="
  255.437,1005.61 280.605,1005.61 
  "/>
<polyline clip-path="url(#clip230)" style="stroke:#000000; stroke-width:4; stroke-opacity:1; fill:none" points="
  255.437,734.627 280.605,734.627 
  "/>
<polyline clip-path="url(#clip230)" style="stroke:#000000; stroke-width:4; stroke-opacity:1; fill:none" points="
  255.437,463.64 280.605,463.64 
  "/>
<polyline clip-path="url(#clip230)" style="stroke:#000000; stroke-width:4; stroke-opacity:1; fill:none" points="
  255.437,192.653 280.605,192.653 
  "/>
<path clip-path="url(#clip230)" d="M 0 0 M122.909 1289.95 L130.548 1289.95 L130.548 1263.58 L122.238 1265.25 L122.238 1260.99 L130.502 1259.32 L135.178 1259.32 L135.178 1289.95 L142.817 1289.95 L142.817 1293.88 L122.909 1293.88 L122.909 1289.95 Z" fill="#000000" fill-rule="evenodd" fill-opacity="1" /><path clip-path="url(#clip230)" d="M 0 0 M152.261 1288 L157.145 1288 L157.145 1293.88 L152.261 1293.88 L152.261 1288 Z" fill="#000000" fill-rule="evenodd" fill-opacity="1" /><path clip-path="url(#clip230)" d="M 0 0 M177.33 1262.4 Q173.719 1262.4 171.891 1265.96 Q170.085 1269.51 170.085 1276.64 Q170.085 1283.74 171.891 1287.31 Q173.719 1290.85 177.33 1290.85 Q180.965 1290.85 182.77 1287.31 Q184.599 1283.74 184.599 1276.64 Q184.599 1269.51 182.77 1265.96 Q180.965 1262.4 177.33 1262.4 M177.33 1258.7 Q183.141 1258.7 186.196 1263.3 Q189.275 1267.89 189.275 1276.64 Q189.275 1285.36 186.196 1289.97 Q183.141 1294.55 177.33 1294.55 Q171.52 1294.55 168.442 1289.97 Q165.386 1285.36 165.386 1276.64 Q165.386 1267.89 168.442 1263.3 Q171.52 1258.7 177.33 1258.7 Z" fill="#000000" fill-rule="evenodd" fill-opacity="1" /><path clip-path="url(#clip230)" d="M 0 0 M207.492 1262.4 Q203.881 1262.4 202.053 1265.96 Q200.247 1269.51 200.247 1276.64 Q200.247 1283.74 202.053 1287.31 Q203.881 1290.85 207.492 1290.85 Q211.127 1290.85 212.932 1287.31 Q214.761 1283.74 214.761 1276.64 Q214.761 1269.51 212.932 1265.96 Q211.127 1262.4 207.492 1262.4 M207.492 1258.7 Q213.302 1258.7 216.358 1263.3 Q219.437 1267.89 219.437 1276.64 Q219.437 1285.36 216.358 1289.97 Q213.302 1294.55 207.492 1294.55 Q201.682 1294.55 198.603 1289.97 Q195.548 1285.36 195.548 1276.64 Q195.548 1267.89 198.603 1263.3 Q201.682 1258.7 207.492 1258.7 Z" fill="#000000" fill-rule="evenodd" fill-opacity="1" /><path clip-path="url(#clip230)" d="M 0 0 M123.905 1018.96 L131.544 1018.96 L131.544 992.593 L123.233 994.26 L123.233 990.001 L131.497 988.334 L136.173 988.334 L136.173 1018.96 L143.812 1018.96 L143.812 1022.89 L123.905 1022.89 L123.905 1018.96 Z" fill="#000000" fill-rule="evenodd" fill-opacity="1" /><path clip-path="url(#clip230)" d="M 0 0 M153.256 1017.01 L158.141 1017.01 L158.141 1022.89 L153.256 1022.89 L153.256 1017.01 Z" fill="#000000" fill-rule="evenodd" fill-opacity="1" /><path clip-path="url(#clip230)" d="M 0 0 M172.354 1018.96 L188.673 1018.96 L188.673 1022.89 L166.729 1022.89 L166.729 1018.96 Q169.391 1016.2 173.974 1011.57 Q178.58 1006.92 179.761 1005.58 Q182.006 1003.06 182.886 1001.32 Q183.789 999.561 183.789 997.871 Q183.789 995.116 181.844 993.38 Q179.923 991.644 176.821 991.644 Q174.622 991.644 172.168 992.408 Q169.738 993.172 166.96 994.723 L166.96 990.001 Q169.784 988.866 172.238 988.288 Q174.692 987.709 176.729 987.709 Q182.099 987.709 185.293 990.394 Q188.488 993.079 188.488 997.57 Q188.488 999.7 187.678 1001.62 Q186.891 1003.52 184.784 1006.11 Q184.205 1006.78 181.104 1010 Q178.002 1013.19 172.354 1018.96 Z" fill="#000000" fill-rule="evenodd" fill-opacity="1" /><path clip-path="url(#clip230)" d="M 0 0 M198.534 988.334 L216.89 988.334 L216.89 992.269 L202.816 992.269 L202.816 1000.74 Q203.835 1000.39 204.853 1000.23 Q205.872 1000.05 206.89 1000.05 Q212.677 1000.05 216.057 1003.22 Q219.437 1006.39 219.437 1011.81 Q219.437 1017.38 215.964 1020.49 Q212.492 1023.57 206.173 1023.57 Q203.997 1023.57 201.728 1023.19 Q199.483 1022.82 197.076 1022.08 L197.076 1017.38 Q199.159 1018.52 201.381 1019.07 Q203.603 1019.63 206.08 1019.63 Q210.085 1019.63 212.423 1017.52 Q214.761 1015.42 214.761 1011.81 Q214.761 1008.19 212.423 1006.09 Q210.085 1003.98 206.08 1003.98 Q204.205 1003.98 202.33 1004.4 Q200.478 1004.82 198.534 1005.69 L198.534 988.334 Z" fill="#000000" fill-rule="evenodd" fill-opacity="1" /><path clip-path="url(#clip230)" d="M 0 0 M122.909 747.972 L130.548 747.972 L130.548 721.606 L122.238 723.273 L122.238 719.014 L130.502 717.347 L135.178 717.347 L135.178 747.972 L142.817 747.972 L142.817 751.907 L122.909 751.907 L122.909 747.972 Z" fill="#000000" fill-rule="evenodd" fill-opacity="1" /><path clip-path="url(#clip230)" d="M 0 0 M152.261 746.027 L157.145 746.027 L157.145 751.907 L152.261 751.907 L152.261 746.027 Z" fill="#000000" fill-rule="evenodd" fill-opacity="1" /><path clip-path="url(#clip230)" d="M 0 0 M167.377 717.347 L185.733 717.347 L185.733 721.282 L171.659 721.282 L171.659 729.754 Q172.678 729.407 173.696 729.245 Q174.715 729.06 175.733 729.06 Q181.52 729.06 184.9 732.231 Q188.279 735.402 188.279 740.819 Q188.279 746.398 184.807 749.5 Q181.335 752.578 175.016 752.578 Q172.84 752.578 170.571 752.208 Q168.326 751.837 165.918 751.097 L165.918 746.398 Q168.002 747.532 170.224 748.087 Q172.446 748.643 174.923 748.643 Q178.928 748.643 181.266 746.537 Q183.604 744.43 183.604 740.819 Q183.604 737.208 181.266 735.101 Q178.928 732.995 174.923 732.995 Q173.048 732.995 171.173 733.412 Q169.321 733.828 167.377 734.708 L167.377 717.347 Z" fill="#000000" fill-rule="evenodd" fill-opacity="1" /><path clip-path="url(#clip230)" d="M 0 0 M207.492 720.426 Q203.881 720.426 202.053 723.99 Q200.247 727.532 200.247 734.662 Q200.247 741.768 202.053 745.333 Q203.881 748.875 207.492 748.875 Q211.127 748.875 212.932 745.333 Q214.761 741.768 214.761 734.662 Q214.761 727.532 212.932 723.99 Q211.127 720.426 207.492 720.426 M207.492 716.722 Q213.302 716.722 216.358 721.328 Q219.437 725.912 219.437 734.662 Q219.437 743.388 216.358 747.995 Q213.302 752.578 207.492 752.578 Q201.682 752.578 198.603 747.995 Q195.548 743.388 195.548 734.662 Q195.548 725.912 198.603 721.328 Q201.682 716.722 207.492 716.722 Z" fill="#000000" fill-rule="evenodd" fill-opacity="1" /><path clip-path="url(#clip230)" d="M 0 0 M123.905 476.985 L131.544 476.985 L131.544 450.619 L123.233 452.286 L123.233 448.027 L131.497 446.36 L136.173 446.36 L136.173 476.985 L143.812 476.985 L143.812 480.92 L123.905 480.92 L123.905 476.985 Z" fill="#000000" fill-rule="evenodd" fill-opacity="1" /><path clip-path="url(#clip230)" d="M 0 0 M153.256 475.04 L158.141 475.04 L158.141 480.92 L153.256 480.92 L153.256 475.04 Z" fill="#000000" fill-rule="evenodd" fill-opacity="1" /><path clip-path="url(#clip230)" d="M 0 0 M167.145 446.36 L189.367 446.36 L189.367 448.351 L176.821 480.92 L171.937 480.92 L183.742 450.295 L167.145 450.295 L167.145 446.36 Z" fill="#000000" fill-rule="evenodd" fill-opacity="1" /><path clip-path="url(#clip230)" d="M 0 0 M198.534 446.36 L216.89 446.36 L216.89 450.295 L202.816 450.295 L202.816 458.767 Q203.835 458.42 204.853 458.258 Q205.872 458.073 206.89 458.073 Q212.677 458.073 216.057 461.244 Q219.437 464.415 219.437 469.832 Q219.437 475.411 215.964 478.513 Q212.492 481.591 206.173 481.591 Q203.997 481.591 201.728 481.221 Q199.483 480.85 197.076 480.11 L197.076 475.411 Q199.159 476.545 201.381 477.101 Q203.603 477.656 206.08 477.656 Q210.085 477.656 212.423 475.55 Q214.761 473.443 214.761 469.832 Q214.761 466.221 212.423 464.114 Q210.085 462.008 206.08 462.008 Q204.205 462.008 202.33 462.425 Q200.478 462.841 198.534 463.721 L198.534 446.36 Z" fill="#000000" fill-rule="evenodd" fill-opacity="1" /><path clip-path="url(#clip230)" d="M 0 0 M126.127 205.998 L142.446 205.998 L142.446 209.933 L120.502 209.933 L120.502 205.998 Q123.164 203.243 127.747 198.614 Q132.354 193.961 133.534 192.618 Q135.78 190.095 136.659 188.359 Q137.562 186.6 137.562 184.91 Q137.562 182.155 135.618 180.419 Q133.696 178.683 130.595 178.683 Q128.396 178.683 125.942 179.447 Q123.511 180.211 120.734 181.762 L120.734 177.04 Q123.558 175.905 126.011 175.327 Q128.465 174.748 130.502 174.748 Q135.872 174.748 139.067 177.433 Q142.261 180.118 142.261 184.609 Q142.261 186.739 141.451 188.66 Q140.664 190.558 138.557 193.151 Q137.979 193.822 134.877 197.04 Q131.775 200.234 126.127 205.998 Z" fill="#000000" fill-rule="evenodd" fill-opacity="1" /><path clip-path="url(#clip230)" d="M 0 0 M152.261 204.053 L157.145 204.053 L157.145 209.933 L152.261 209.933 L152.261 204.053 Z" fill="#000000" fill-rule="evenodd" fill-opacity="1" /><path clip-path="url(#clip230)" d="M 0 0 M177.33 178.452 Q173.719 178.452 171.891 182.016 Q170.085 185.558 170.085 192.688 Q170.085 199.794 171.891 203.359 Q173.719 206.901 177.33 206.901 Q180.965 206.901 182.77 203.359 Q184.599 199.794 184.599 192.688 Q184.599 185.558 182.77 182.016 Q180.965 178.452 177.33 178.452 M177.33 174.748 Q183.141 174.748 186.196 179.354 Q189.275 183.938 189.275 192.688 Q189.275 201.415 186.196 206.021 Q183.141 210.604 177.33 210.604 Q171.52 210.604 168.442 206.021 Q165.386 201.415 165.386 192.688 Q165.386 183.938 168.442 179.354 Q171.52 174.748 177.33 174.748 Z" fill="#000000" fill-rule="evenodd" fill-opacity="1" /><path clip-path="url(#clip230)" d="M 0 0 M207.492 178.452 Q203.881 178.452 202.053 182.016 Q200.247 185.558 200.247 192.688 Q200.247 199.794 202.053 203.359 Q203.881 206.901 207.492 206.901 Q211.127 206.901 212.932 203.359 Q214.761 199.794 214.761 192.688 Q214.761 185.558 212.932 182.016 Q211.127 178.452 207.492 178.452 M207.492 174.748 Q213.302 174.748 216.358 179.354 Q219.437 183.938 219.437 192.688 Q219.437 201.415 216.358 206.021 Q213.302 210.604 207.492 210.604 Q201.682 210.604 198.603 206.021 Q195.548 201.415 195.548 192.688 Q195.548 183.938 198.603 179.354 Q201.682 174.748 207.492 174.748 Z" fill="#000000" fill-rule="evenodd" fill-opacity="1" /><path clip-path="url(#clip230)" d="M 0 0 M50.1836 835.816 Q50.2159 835.816 51.3753 836.009 L80.6504 843.352 Q82.1963 843.739 83.7422 844.834 Q85.3202 845.897 86.6729 847.604 Q88.0577 849.278 88.8951 851.855 Q89.7647 854.399 89.7647 857.33 Q89.7647 862 88.7663 864.061 Q87.8001 866.09 85.7389 866.09 Q83.9354 866.09 82.9048 864.963 Q81.9064 863.835 81.9064 862.547 Q81.9064 861.323 82.6149 860.679 Q83.3235 860.035 84.2252 860.035 Q85.2236 860.035 86.222 860.711 Q87.2526 861.388 87.6391 862.74 Q88.3154 860.583 88.3154 857.459 Q88.3154 850.856 81.3267 848.022 Q81.2301 847.958 81.1979 847.958 L72.4701 845.768 L72.4057 845.864 Q73.0498 846.412 73.7905 847.282 Q74.4991 848.119 75.3686 849.922 Q76.2382 851.726 76.2382 853.497 Q76.2382 857.201 73.4041 859.745 Q70.5378 862.257 65.8035 862.257 Q62.3575 862.257 58.9114 860.872 Q55.4332 859.455 52.8889 857.265 Q50.3125 855.043 48.7022 852.209 Q47.0919 849.343 47.0919 846.573 Q47.0919 844.641 48.2513 842.998 Q49.3785 841.356 51.2464 840.454 Q49.7006 840.293 49.0564 839.423 Q48.4123 838.522 48.4123 837.749 Q48.4123 836.879 48.8954 836.364 Q49.3463 835.816 50.1836 835.816 M54.2094 841.227 Q54.0161 841.227 53.5009 841.356 Q52.9534 841.484 52.0838 841.871 Q51.2142 842.225 50.4413 842.773 Q49.6684 843.32 49.1209 844.319 Q48.5411 845.285 48.5411 846.509 Q48.5411 848.505 50.2159 850.502 Q51.8584 852.499 54.4026 853.884 Q56.8503 855.172 61.5845 856.396 Q66.3188 857.587 68.7342 857.587 Q71.1175 857.587 72.9532 856.557 Q74.7889 855.526 74.7889 853.304 Q74.7889 850.728 72.4057 847.958 Q69.9258 845.092 67.8003 844.608 L55.2078 841.42 Q54.4348 841.227 54.2094 841.227 Z" fill="#000000" fill-rule="evenodd" fill-opacity="1" /><path clip-path="url(#clip230)" d="M 0 0 M34.6809 829.065 Q26.8807 829.065 20.5909 826.157 Q17.9532 824.917 15.7439 823.181 Q13.5346 821.445 12.5652 820.296 Q11.5958 819.146 11.5958 818.83 Q11.5958 818.379 12.0466 818.357 Q12.2721 818.357 12.8357 818.966 Q20.4105 826.405 34.6809 826.383 Q48.9964 826.383 56.2782 819.146 Q57.0672 818.357 57.3152 818.357 Q57.7661 818.357 57.7661 818.83 Q57.7661 819.146 56.8418 820.251 Q55.9175 821.355 53.7983 823.069 Q51.6792 824.782 49.0866 826.022 Q42.7968 829.065 34.6809 829.065 Z" fill="#000000" fill-rule="evenodd" fill-opacity="1" /><path clip-path="url(#clip230)" d="M 0 0 M46.2235 811.336 Q45.3894 811.336 45.1414 811.269 Q44.8934 811.178 44.5101 810.818 L34.6358 801.958 Q29.1802 797.111 24.4234 797.111 Q21.3348 797.111 19.1255 798.734 Q16.9162 800.335 16.9162 803.288 Q16.9162 805.317 18.1561 807.03 Q19.396 808.744 21.6053 809.533 Q21.5603 809.397 21.5603 808.924 Q21.5603 807.774 22.2817 807.143 Q23.0031 806.489 23.9725 806.489 Q25.2124 806.489 25.8211 807.301 Q26.4072 808.09 26.4072 808.879 Q26.4072 809.195 26.3396 809.623 Q26.272 810.029 25.6407 810.682 Q24.987 811.336 23.8372 811.336 Q20.6134 811.336 18.0434 808.901 Q15.4733 806.444 15.4733 802.702 Q15.4733 798.464 17.9983 795.691 Q20.5007 792.895 24.4234 792.895 Q25.7985 792.895 27.061 793.323 Q28.3009 793.729 29.2703 794.293 Q30.2397 794.834 31.7953 796.322 Q33.3508 797.81 34.4555 799.005 Q35.5601 800.199 37.9047 802.882 L42.6615 807.774 L42.6615 799.455 Q42.6615 795.398 42.3008 795.082 Q41.647 794.631 38.1978 794.067 L38.1978 792.895 L46.2235 794.203 L46.2235 811.336 Z" fill="#000000" fill-rule="evenodd" fill-opacity="1" /><path clip-path="url(#clip230)" d="M 0 0 M57.3152 788.471 Q57.0898 788.471 56.5262 787.885 Q48.9513 780.446 34.6809 780.446 Q20.3654 780.446 13.1288 787.592 Q12.2946 788.471 12.0466 788.471 Q11.5958 788.471 11.5958 788.02 Q11.5958 787.705 12.5201 786.6 Q13.4444 785.473 15.5635 783.782 Q17.6827 782.069 20.2752 780.806 Q26.565 777.763 34.6809 777.763 Q42.4812 777.763 48.771 780.671 Q51.4086 781.911 53.618 783.647 Q55.8273 785.383 56.7967 786.533 Q57.7661 787.682 57.7661 788.02 Q57.7661 788.471 57.3152 788.471 Z" fill="#000000" fill-rule="evenodd" fill-opacity="1" /><path clip-path="url(#clip230)" d="M 0 0 M59.7488 763.702 Q48.6056 763.702 39.6201 759.548 Q35.852 757.776 32.6959 755.296 Q29.5397 752.817 28.1548 751.174 Q26.77 749.532 26.77 749.081 Q26.77 748.437 27.4141 748.404 Q27.7362 748.404 28.5413 749.274 Q39.3625 759.902 59.7488 759.87 Q80.1995 759.87 90.602 749.532 Q91.7292 748.404 92.0835 748.404 Q92.7276 748.404 92.7276 749.081 Q92.7276 749.532 91.4071 751.11 Q90.0867 752.688 87.0594 755.135 Q84.032 757.583 80.3283 759.354 Q71.3429 763.702 59.7488 763.702 Z" fill="#000000" fill-rule="evenodd" fill-opacity="1" /><path clip-path="url(#clip230)" d="M 0 0 M49.3785 706.427 Q51.6329 706.427 51.6329 709.679 L51.6329 720.758 L74.2092 725.17 Q74.7889 725.267 75.111 725.396 Q75.433 725.492 75.9805 725.782 Q76.4958 726.04 76.7535 726.587 Q77.0433 727.103 77.0433 727.876 Q77.0433 728.842 76.4636 729.325 Q75.9161 729.776 75.2398 729.776 Q74.8211 729.776 72.8244 729.132 L51.6329 722.658 L51.6329 728.133 Q51.6329 733.286 56.7214 736.507 Q57.3978 737.022 57.4622 737.312 Q57.4944 737.441 57.4944 737.57 Q57.4944 737.924 57.3333 738.149 Q57.1723 738.343 57.0113 738.343 L56.8503 738.375 Q56.6248 738.375 55.7231 737.859 Q54.7891 737.312 53.4042 736.346 Q52.0194 735.347 50.9244 734.349 Q49.5073 733.029 48.7666 731.547 Q47.9936 730.066 47.897 729.325 Q47.8004 728.552 47.8004 727.554 L47.8004 709.067 Q47.8004 708.23 47.8648 707.779 Q47.897 707.328 48.2835 706.877 Q48.6378 706.427 49.3785 706.427 Z" fill="#000000" fill-rule="evenodd" fill-opacity="1" /><path clip-path="url(#clip230)" d="M 0 0 M92.0835 709.858 Q91.7614 709.858 90.9563 709.02 Q80.1351 698.392 59.7488 698.392 Q39.2981 698.392 28.96 708.601 Q27.7684 709.858 27.4141 709.858 Q26.77 709.858 26.77 709.213 Q26.77 708.763 28.0904 707.184 Q29.4109 705.574 32.4382 703.159 Q35.4656 700.711 39.1692 698.908 Q48.1547 694.56 59.7488 694.56 Q70.892 694.56 79.8775 698.714 Q83.6455 700.486 86.8017 702.965 Q89.9579 705.445 91.3427 707.088 Q92.7276 708.73 92.7276 709.213 Q92.7276 709.858 92.0835 709.858 Z" fill="#000000" fill-rule="evenodd" fill-opacity="1" /><path clip-path="url(#clip230)" d="M 0 0 M596.707 18.8205 L596.707 41.5461 L606.996 41.5461 Q612.708 41.5461 615.827 38.5889 Q618.947 35.6318 618.947 30.163 Q618.947 24.7348 615.827 21.7777 Q612.708 18.8205 606.996 18.8205 L596.707 18.8205 M588.524 12.096 L606.996 12.096 Q617.164 12.096 622.349 16.714 Q627.575 21.2916 627.575 30.163 Q627.575 39.1155 622.349 43.6931 Q617.164 48.2706 606.996 48.2706 L596.707 48.2706 L596.707 72.576 L588.524 72.576 L588.524 12.096 Z" fill="#000000" fill-rule="evenodd" fill-opacity="1" /><path clip-path="url(#clip230)" d="M 0 0 M675.943 45.1919 L675.943 72.576 L668.489 72.576 L668.489 45.4349 Q668.489 38.994 665.978 35.7938 Q663.466 32.5936 658.443 32.5936 Q652.407 32.5936 648.923 36.4419 Q645.44 40.2903 645.44 46.9338 L645.44 72.576 L637.945 72.576 L637.945 9.54393 L645.44 9.54393 L645.44 34.2544 Q648.113 30.163 651.718 28.1376 Q655.364 26.1121 660.104 26.1121 Q667.922 26.1121 671.932 30.9732 Q675.943 35.7938 675.943 45.1919 Z" fill="#000000" fill-rule="evenodd" fill-opacity="1" /><path clip-path="url(#clip230)" d="M 0 0 M708.391 32.4315 Q702.395 32.4315 698.911 37.1306 Q695.428 41.7891 695.428 49.9314 Q695.428 58.0738 698.871 62.7728 Q702.355 67.4314 708.391 67.4314 Q714.345 67.4314 717.829 62.7323 Q721.313 58.0333 721.313 49.9314 Q721.313 41.8701 717.829 37.1711 Q714.345 32.4315 708.391 32.4315 M708.391 26.1121 Q718.113 26.1121 723.662 32.4315 Q729.212 38.7509 729.212 49.9314 Q729.212 61.0714 723.662 67.4314 Q718.113 73.7508 708.391 73.7508 Q698.628 73.7508 693.078 67.4314 Q687.569 61.0714 687.569 49.9314 Q687.569 38.7509 693.078 32.4315 Q698.628 26.1121 708.391 26.1121 Z" fill="#000000" fill-rule="evenodd" fill-opacity="1" /><path clip-path="url(#clip230)" d="M 0 0 M748.94 14.324 L748.94 27.2059 L764.293 27.2059 L764.293 32.9987 L748.94 32.9987 L748.94 57.6282 Q748.94 63.1779 750.439 64.7578 Q751.978 66.3376 756.637 66.3376 L764.293 66.3376 L764.293 72.576 L756.637 72.576 Q748.008 72.576 744.727 69.3758 Q741.446 66.1351 741.446 57.6282 L741.446 32.9987 L735.977 32.9987 L735.977 27.2059 L741.446 27.2059 L741.446 14.324 L748.94 14.324 Z" fill="#000000" fill-rule="evenodd" fill-opacity="1" /><path clip-path="url(#clip230)" d="M 0 0 M791.677 32.4315 Q785.682 32.4315 782.198 37.1306 Q778.714 41.7891 778.714 49.9314 Q778.714 58.0738 782.158 62.7728 Q785.641 67.4314 791.677 67.4314 Q797.632 67.4314 801.116 62.7323 Q804.6 58.0333 804.6 49.9314 Q804.6 41.8701 801.116 37.1711 Q797.632 32.4315 791.677 32.4315 M791.677 26.1121 Q801.399 26.1121 806.949 32.4315 Q812.499 38.7509 812.499 49.9314 Q812.499 61.0714 806.949 67.4314 Q801.399 73.7508 791.677 73.7508 Q781.914 73.7508 776.365 67.4314 Q770.856 61.0714 770.856 49.9314 Q770.856 38.7509 776.365 32.4315 Q781.914 26.1121 791.677 26.1121 Z" fill="#000000" fill-rule="evenodd" fill-opacity="1" /><path clip-path="url(#clip230)" d="M 0 0 M862.568 45.1919 L862.568 72.576 L855.114 72.576 L855.114 45.4349 Q855.114 38.994 852.603 35.7938 Q850.091 32.5936 845.068 32.5936 Q839.032 32.5936 835.548 36.4419 Q832.065 40.2903 832.065 46.9338 L832.065 72.576 L824.571 72.576 L824.571 27.2059 L832.065 27.2059 L832.065 34.2544 Q834.738 30.163 838.344 28.1376 Q841.989 26.1121 846.729 26.1121 Q854.547 26.1121 858.558 30.9732 Q862.568 35.7938 862.568 45.1919 Z" fill="#000000" fill-rule="evenodd" fill-opacity="1" /><path clip-path="url(#clip230)" d="M 0 0 M949.419 16.7545 L949.419 25.383 Q945.287 21.5346 940.588 19.6307 Q935.93 17.7268 930.664 17.7268 Q920.293 17.7268 914.784 24.0867 Q909.275 30.4061 909.275 42.3968 Q909.275 54.3469 914.784 60.7069 Q920.293 67.0263 930.664 67.0263 Q935.93 67.0263 940.588 65.1223 Q945.287 63.2184 949.419 59.3701 L949.419 67.9175 Q945.125 70.8341 940.305 72.2924 Q935.525 73.7508 930.178 73.7508 Q916.445 73.7508 908.546 65.3654 Q900.646 56.9395 900.646 42.3968 Q900.646 27.8135 908.546 19.4281 Q916.445 11.0023 930.178 11.0023 Q935.606 11.0023 940.386 12.4606 Q945.206 13.8784 949.419 16.7545 Z" fill="#000000" fill-rule="evenodd" fill-opacity="1" /><path clip-path="url(#clip230)" d="M 0 0 M979.315 32.4315 Q973.32 32.4315 969.836 37.1306 Q966.352 41.7891 966.352 49.9314 Q966.352 58.0738 969.795 62.7728 Q973.279 67.4314 979.315 67.4314 Q985.27 67.4314 988.754 62.7323 Q992.237 58.0333 992.237 49.9314 Q992.237 41.8701 988.754 37.1711 Q985.27 32.4315 979.315 32.4315 M979.315 26.1121 Q989.037 26.1121 994.587 32.4315 Q1000.14 38.7509 1000.14 49.9314 Q1000.14 61.0714 994.587 67.4314 Q989.037 73.7508 979.315 73.7508 Q969.552 73.7508 964.003 67.4314 Q958.493 61.0714 958.493 49.9314 Q958.493 38.7509 964.003 32.4315 Q969.552 26.1121 979.315 26.1121 Z" fill="#000000" fill-rule="evenodd" fill-opacity="1" /><path clip-path="url(#clip230)" d="M 0 0 M1038.78 34.1734 Q1037.53 33.4443 1036.03 33.1202 Q1034.57 32.7556 1032.79 32.7556 Q1026.47 32.7556 1023.06 36.8875 Q1019.7 40.9789 1019.7 48.6757 L1019.7 72.576 L1012.21 72.576 L1012.21 27.2059 L1019.7 27.2059 L1019.7 34.2544 Q1022.05 30.1225 1025.82 28.1376 Q1029.59 26.1121 1034.97 26.1121 Q1035.74 26.1121 1036.68 26.2337 Q1037.61 26.3147 1038.74 26.5172 L1038.78 34.1734 Z" fill="#000000" fill-rule="evenodd" fill-opacity="1" /><path clip-path="url(#clip230)" d="M 0 0 M1071.43 34.1734 Q1070.18 33.4443 1068.68 33.1202 Q1067.22 32.7556 1065.44 32.7556 Q1059.12 32.7556 1055.72 36.8875 Q1052.35 40.9789 1052.35 48.6757 L1052.35 72.576 L1044.86 72.576 L1044.86 27.2059 L1052.35 27.2059 L1052.35 34.2544 Q1054.7 30.1225 1058.47 28.1376 Q1062.24 26.1121 1067.62 26.1121 Q1068.39 26.1121 1069.33 26.2337 Q1070.26 26.3147 1071.39 26.5172 L1071.43 34.1734 Z" fill="#000000" fill-rule="evenodd" fill-opacity="1" /><path clip-path="url(#clip230)" d="M 0 0 M1116.24 48.0275 L1116.24 51.6733 L1081.96 51.6733 Q1082.45 59.3701 1086.58 63.421 Q1090.76 67.4314 1098.17 67.4314 Q1102.46 67.4314 1106.47 66.3781 Q1110.52 65.3249 1114.49 63.2184 L1114.49 70.267 Q1110.48 71.9684 1106.27 72.8596 Q1102.06 73.7508 1097.72 73.7508 Q1086.87 73.7508 1080.51 67.4314 Q1074.19 61.1119 1074.19 50.3365 Q1074.19 39.1965 1080.18 32.6746 Q1086.22 26.1121 1096.43 26.1121 Q1105.58 26.1121 1110.89 32.0264 Q1116.24 37.9003 1116.24 48.0275 M1108.78 45.84 Q1108.7 39.7232 1105.34 36.0774 Q1102.02 32.4315 1096.51 32.4315 Q1090.27 32.4315 1086.5 35.9558 Q1082.78 39.4801 1082.21 45.8805 L1108.78 45.84 Z" fill="#000000" fill-rule="evenodd" fill-opacity="1" /><path clip-path="url(#clip230)" d="M 0 0 M1128.47 9.54393 L1135.92 9.54393 L1135.92 72.576 L1128.47 72.576 L1128.47 9.54393 Z" fill="#000000" fill-rule="evenodd" fill-opacity="1" /><path clip-path="url(#clip230)" d="M 0 0 M1172.14 49.7694 Q1163.1 49.7694 1159.62 51.8354 Q1156.14 53.9013 1156.14 58.8839 Q1156.14 62.8538 1158.73 65.2034 Q1161.36 67.5124 1165.86 67.5124 Q1172.06 67.5124 1175.78 63.1374 Q1179.55 58.7219 1179.55 51.4303 L1179.55 49.7694 L1172.14 49.7694 M1187 46.6907 L1187 72.576 L1179.55 72.576 L1179.55 65.6895 Q1177 69.8214 1173.19 71.8063 Q1169.38 73.7508 1163.87 73.7508 Q1156.91 73.7508 1152.77 69.8619 Q1148.68 65.9325 1148.68 59.3701 Q1148.68 51.7138 1153.79 47.825 Q1158.93 43.9361 1169.1 43.9361 L1179.55 43.9361 L1179.55 43.2069 Q1179.55 38.0623 1176.15 35.2672 Q1172.79 32.4315 1166.67 32.4315 Q1162.78 32.4315 1159.09 33.3632 Q1155.41 34.295 1152.01 36.1584 L1152.01 29.2718 Q1156.1 27.692 1159.94 26.9223 Q1163.79 26.1121 1167.44 26.1121 Q1177.28 26.1121 1182.14 31.2163 Q1187 36.3204 1187 46.6907 Z" fill="#000000" fill-rule="evenodd" fill-opacity="1" /><path clip-path="url(#clip230)" d="M 0 0 M1209.73 14.324 L1209.73 27.2059 L1225.08 27.2059 L1225.08 32.9987 L1209.73 32.9987 L1209.73 57.6282 Q1209.73 63.1779 1211.23 64.7578 Q1212.77 66.3376 1217.43 66.3376 L1225.08 66.3376 L1225.08 72.576 L1217.43 72.576 Q1208.8 72.576 1205.52 69.3758 Q1202.24 66.1351 1202.24 57.6282 L1202.24 32.9987 L1196.77 32.9987 L1196.77 27.2059 L1202.24 27.2059 L1202.24 14.324 L1209.73 14.324 Z" fill="#000000" fill-rule="evenodd" fill-opacity="1" /><path clip-path="url(#clip230)" d="M 0 0 M1234.89 27.2059 L1242.34 27.2059 L1242.34 72.576 L1234.89 72.576 L1234.89 27.2059 M1234.89 9.54393 L1242.34 9.54393 L1242.34 18.9825 L1234.89 18.9825 L1234.89 9.54393 Z" fill="#000000" fill-rule="evenodd" fill-opacity="1" /><path clip-path="url(#clip230)" d="M 0 0 M1275.52 32.4315 Q1269.52 32.4315 1266.04 37.1306 Q1262.55 41.7891 1262.55 49.9314 Q1262.55 58.0738 1266 62.7728 Q1269.48 67.4314 1275.52 67.4314 Q1281.47 67.4314 1284.96 62.7323 Q1288.44 58.0333 1288.44 49.9314 Q1288.44 41.8701 1284.96 37.1711 Q1281.47 32.4315 1275.52 32.4315 M1275.52 26.1121 Q1285.24 26.1121 1290.79 32.4315 Q1296.34 38.7509 1296.34 49.9314 Q1296.34 61.0714 1290.79 67.4314 Q1285.24 73.7508 1275.52 73.7508 Q1265.75 73.7508 1260.2 67.4314 Q1254.7 61.0714 1254.7 49.9314 Q1254.7 38.7509 1260.2 32.4315 Q1265.75 26.1121 1275.52 26.1121 Z" fill="#000000" fill-rule="evenodd" fill-opacity="1" /><path clip-path="url(#clip230)" d="M 0 0 M1346.41 45.1919 L1346.41 72.576 L1338.95 72.576 L1338.95 45.4349 Q1338.95 38.994 1336.44 35.7938 Q1333.93 32.5936 1328.91 32.5936 Q1322.87 32.5936 1319.39 36.4419 Q1315.9 40.2903 1315.9 46.9338 L1315.9 72.576 L1308.41 72.576 L1308.41 27.2059 L1315.9 27.2059 L1315.9 34.2544 Q1318.58 30.163 1322.18 28.1376 Q1325.83 26.1121 1330.57 26.1121 Q1338.39 26.1121 1342.4 30.9732 Q1346.41 35.7938 1346.41 45.1919 Z" fill="#000000" fill-rule="evenodd" fill-opacity="1" /><path clip-path="url(#clip230)" d="M 0 0 M1390.2 28.5427 L1390.2 35.5912 Q1387.04 33.9709 1383.64 33.1607 Q1380.23 32.3505 1376.59 32.3505 Q1371.04 32.3505 1368.24 34.0519 Q1365.49 35.7533 1365.49 39.156 Q1365.49 41.7486 1367.47 43.2475 Q1369.46 44.7058 1375.45 46.0426 L1378.01 46.6097 Q1385.94 48.3111 1389.27 51.4303 Q1392.63 54.509 1392.63 60.0587 Q1392.63 66.3781 1387.61 70.0644 Q1382.62 73.7508 1373.87 73.7508 Q1370.23 73.7508 1366.26 73.0216 Q1362.33 72.3329 1357.95 70.9151 L1357.95 63.2184 Q1362.08 65.3654 1366.1 66.4591 Q1370.11 67.5124 1374.04 67.5124 Q1379.3 67.5124 1382.14 65.73 Q1384.97 63.9071 1384.97 60.6258 Q1384.97 57.5877 1382.91 55.9673 Q1380.88 54.3469 1373.95 52.8481 L1371.36 52.2405 Q1364.43 50.7821 1361.36 47.7845 Q1358.28 44.7463 1358.28 39.4801 Q1358.28 33.0797 1362.81 29.5959 Q1367.35 26.1121 1375.7 26.1121 Q1379.83 26.1121 1383.47 26.7198 Q1387.12 27.3274 1390.2 28.5427 Z" fill="#000000" fill-rule="evenodd" fill-opacity="1" /><path clip-path="url(#clip230)" d="M 0 0 M1425.52 27.2059 L1433.42 27.2059 L1447.6 65.2844 L1461.78 27.2059 L1469.68 27.2059 L1452.66 72.576 L1442.54 72.576 L1425.52 27.2059 Z" fill="#000000" fill-rule="evenodd" fill-opacity="1" /><path clip-path="url(#clip230)" d="M 0 0 M1508.89 28.5427 L1508.89 35.5912 Q1505.73 33.9709 1502.33 33.1607 Q1498.92 32.3505 1495.28 32.3505 Q1489.73 32.3505 1486.93 34.0519 Q1484.18 35.7533 1484.18 39.156 Q1484.18 41.7486 1486.16 43.2475 Q1488.15 44.7058 1494.14 46.0426 L1496.7 46.6097 Q1504.64 48.3111 1507.96 51.4303 Q1511.32 54.509 1511.32 60.0587 Q1511.32 66.3781 1506.3 70.0644 Q1501.31 73.7508 1492.56 73.7508 Q1488.92 73.7508 1484.95 73.0216 Q1481.02 72.3329 1476.64 70.9151 L1476.64 63.2184 Q1480.78 65.3654 1484.79 66.4591 Q1488.8 67.5124 1492.73 67.5124 Q1497.99 67.5124 1500.83 65.73 Q1503.66 63.9071 1503.66 60.6258 Q1503.66 57.5877 1501.6 55.9673 Q1499.57 54.3469 1492.65 52.8481 L1490.05 52.2405 Q1483.13 50.7821 1480.05 47.7845 Q1476.97 44.7463 1476.97 39.4801 Q1476.97 33.0797 1481.51 29.5959 Q1486.04 26.1121 1494.39 26.1121 Q1498.52 26.1121 1502.17 26.7198 Q1505.81 27.3274 1508.89 28.5427 Z" fill="#000000" fill-rule="evenodd" fill-opacity="1" /><path clip-path="url(#clip230)" d="M 0 0 M1541.5 12.096 L1592.66 12.096 L1592.66 18.9825 L1571.19 18.9825 L1571.19 72.576 L1562.97 72.576 L1562.97 18.9825 L1541.5 18.9825 L1541.5 12.096 Z" fill="#000000" fill-rule="evenodd" fill-opacity="1" /><path clip-path="url(#clip230)" d="M 0 0 M1597.69 27.2059 L1605.14 27.2059 L1605.14 72.576 L1597.69 72.576 L1597.69 27.2059 M1597.69 9.54393 L1605.14 9.54393 L1605.14 18.9825 L1597.69 18.9825 L1597.69 9.54393 Z" fill="#000000" fill-rule="evenodd" fill-opacity="1" /><path clip-path="url(#clip230)" d="M 0 0 M1656.06 35.9153 Q1658.85 30.8922 1662.74 28.5022 Q1666.63 26.1121 1671.9 26.1121 Q1678.99 26.1121 1682.84 31.0947 Q1686.68 36.0368 1686.68 45.1919 L1686.68 72.576 L1679.19 72.576 L1679.19 45.4349 Q1679.19 38.913 1676.88 35.7533 Q1674.57 32.5936 1669.83 32.5936 Q1664.04 32.5936 1660.68 36.4419 Q1657.31 40.2903 1657.31 46.9338 L1657.31 72.576 L1649.82 72.576 L1649.82 45.4349 Q1649.82 38.8725 1647.51 35.7533 Q1645.2 32.5936 1640.38 32.5936 Q1634.67 32.5936 1631.31 36.4824 Q1627.95 40.3308 1627.95 46.9338 L1627.95 72.576 L1620.45 72.576 L1620.45 27.2059 L1627.95 27.2059 L1627.95 34.2544 Q1630.5 30.082 1634.06 28.0971 Q1637.63 26.1121 1642.53 26.1121 Q1647.47 26.1121 1650.91 28.6237 Q1654.4 31.1352 1656.06 35.9153 Z" fill="#000000" fill-rule="evenodd" fill-opacity="1" /><path clip-path="url(#clip230)" d="M 0 0 M1740.36 48.0275 L1740.36 51.6733 L1706.09 51.6733 Q1706.57 59.3701 1710.71 63.421 Q1714.88 67.4314 1722.29 67.4314 Q1726.59 67.4314 1730.6 66.3781 Q1734.65 65.3249 1738.62 63.2184 L1738.62 70.267 Q1734.61 71.9684 1730.39 72.8596 Q1726.18 73.7508 1721.85 73.7508 Q1710.99 73.7508 1704.63 67.4314 Q1698.31 61.1119 1698.31 50.3365 Q1698.31 39.1965 1704.31 32.6746 Q1710.34 26.1121 1720.55 26.1121 Q1729.7 26.1121 1735.01 32.0264 Q1740.36 37.9003 1740.36 48.0275 M1732.9 45.84 Q1732.82 39.7232 1729.46 36.0774 Q1726.14 32.4315 1720.63 32.4315 Q1714.39 32.4315 1710.62 35.9558 Q1706.9 39.4801 1706.33 45.8805 L1732.9 45.84 Z" fill="#000000" fill-rule="evenodd" fill-opacity="1" /><path clip-path="url(#clip230)" d="M 0 0 M1803.84 17.6457 Q1794.92 17.6457 1789.66 24.2892 Q1784.43 30.9327 1784.43 42.3968 Q1784.43 53.8203 1789.66 60.4638 Q1794.92 67.1073 1803.84 67.1073 Q1812.75 67.1073 1817.93 60.4638 Q1823.16 53.8203 1823.16 42.3968 Q1823.16 30.9327 1817.93 24.2892 Q1812.75 17.6457 1803.84 17.6457 M1803.84 11.0023 Q1816.56 11.0023 1824.17 19.5497 Q1831.79 28.0566 1831.79 42.3968 Q1831.79 56.6965 1824.17 65.2439 Q1816.56 73.7508 1803.84 73.7508 Q1791.08 73.7508 1783.42 65.2439 Q1775.8 56.737 1775.8 42.3968 Q1775.8 28.0566 1783.42 19.5497 Q1791.08 11.0023 1803.84 11.0023 Z" fill="#000000" fill-rule="evenodd" fill-opacity="1" /><path clip-path="url(#clip230)" d="M 0 0 M1867.23 9.54393 L1867.23 15.7418 L1860.1 15.7418 Q1856.09 15.7418 1854.51 17.3622 Q1852.97 18.9825 1852.97 23.1955 L1852.97 27.2059 L1865.25 27.2059 L1865.25 32.9987 L1852.97 32.9987 L1852.97 72.576 L1845.48 72.576 L1845.48 32.9987 L1838.35 32.9987 L1838.35 27.2059 L1845.48 27.2059 L1845.48 24.0462 Q1845.48 16.471 1849 13.0277 Q1852.53 9.54393 1860.18 9.54393 L1867.23 9.54393 Z" fill="#000000" fill-rule="evenodd" fill-opacity="1" /><path clip-path="url(#clip230)" d="M 0 0 M1896.44 9.54393 L1896.44 15.7418 L1889.31 15.7418 Q1885.3 15.7418 1883.72 17.3622 Q1882.18 18.9825 1882.18 23.1955 L1882.18 27.2059 L1894.45 27.2059 L1894.45 32.9987 L1882.18 32.9987 L1882.18 72.576 L1874.69 72.576 L1874.69 32.9987 L1867.56 32.9987 L1867.56 27.2059 L1874.69 27.2059 L1874.69 24.0462 Q1874.69 16.471 1878.21 13.0277 Q1881.73 9.54393 1889.39 9.54393 L1896.44 9.54393 Z" fill="#000000" fill-rule="evenodd" fill-opacity="1" /><path clip-path="url(#clip230)" d="M 0 0 M1931.6 28.5427 L1931.6 35.5912 Q1928.44 33.9709 1925.04 33.1607 Q1921.64 32.3505 1917.99 32.3505 Q1912.44 32.3505 1909.65 34.0519 Q1906.89 35.7533 1906.89 39.156 Q1906.89 41.7486 1908.88 43.2475 Q1910.86 44.7058 1916.86 46.0426 L1919.41 46.6097 Q1927.35 48.3111 1930.67 51.4303 Q1934.03 54.509 1934.03 60.0587 Q1934.03 66.3781 1929.01 70.0644 Q1924.03 73.7508 1915.28 73.7508 Q1911.63 73.7508 1907.66 73.0216 Q1903.73 72.3329 1899.36 70.9151 L1899.36 63.2184 Q1903.49 65.3654 1907.5 66.4591 Q1911.51 67.5124 1915.44 67.5124 Q1920.7 67.5124 1923.54 65.73 Q1926.38 63.9071 1926.38 60.6258 Q1926.38 57.5877 1924.31 55.9673 Q1922.28 54.3469 1915.36 52.8481 L1912.76 52.2405 Q1905.84 50.7821 1902.76 47.7845 Q1899.68 44.7463 1899.68 39.4801 Q1899.68 33.0797 1904.22 29.5959 Q1908.75 26.1121 1917.1 26.1121 Q1921.23 26.1121 1924.88 26.7198 Q1928.52 27.3274 1931.6 28.5427 Z" fill="#000000" fill-rule="evenodd" fill-opacity="1" /><path clip-path="url(#clip230)" d="M 0 0 M1984.71 48.0275 L1984.71 51.6733 L1950.44 51.6733 Q1950.92 59.3701 1955.06 63.421 Q1959.23 67.4314 1966.64 67.4314 Q1970.94 67.4314 1974.95 66.3781 Q1979 65.3249 1982.97 63.2184 L1982.97 70.267 Q1978.96 71.9684 1974.74 72.8596 Q1970.53 73.7508 1966.2 73.7508 Q1955.34 73.7508 1948.98 67.4314 Q1942.66 61.1119 1942.66 50.3365 Q1942.66 39.1965 1948.66 32.6746 Q1954.69 26.1121 1964.9 26.1121 Q1974.06 26.1121 1979.36 32.0264 Q1984.71 37.9003 1984.71 48.0275 M1977.26 45.84 Q1977.17 39.7232 1973.81 36.0774 Q1970.49 32.4315 1964.98 32.4315 Q1958.74 32.4315 1954.98 35.9558 Q1951.25 39.4801 1950.68 45.8805 L1977.26 45.84 Z" fill="#000000" fill-rule="evenodd" fill-opacity="1" /><path clip-path="url(#clip230)" d="M 0 0 M2004.32 14.324 L2004.32 27.2059 L2019.67 27.2059 L2019.67 32.9987 L2004.32 32.9987 L2004.32 57.6282 Q2004.32 63.1779 2005.81 64.7578 Q2007.35 66.3376 2012.01 66.3376 L2019.67 66.3376 L2019.67 72.576 L2012.01 72.576 Q2003.38 72.576 2000.1 69.3758 Q1996.82 66.1351 1996.82 57.6282 L1996.82 32.9987 L1991.35 32.9987 L1991.35 27.2059 L1996.82 27.2059 L1996.82 14.324 L2004.32 14.324 Z" fill="#000000" fill-rule="evenodd" fill-opacity="1" /><polyline clip-path="url(#clip233)" style="stroke:#009af9; stroke-width:4; stroke-opacity:1; fill:none" points="
  314.795,160.369 316.775,992.884 318.756,1237.47 320.737,1244.54 322.717,1294.96 324.698,1304.61 326.678,1221.25 328.659,1222.17 330.639,1241.08 332.62,1278.02 
  334.601,1240.65 336.581,1230.37 338.562,1189.58 340.542,1213.14 342.523,1191.23 344.504,1227.89 346.484,1250.31 348.465,1274.03 350.445,1310.75 352.426,1327.14 
  354.406,1315.79 356.387,1222.62 358.368,1251.17 360.348,1251.32 362.329,1255.98 364.309,1294.98 366.29,1302.09 368.271,1214.03 370.251,1208.7 372.232,1281.73 
  374.212,1261.08 376.193,1245.93 378.173,1348.26 380.154,1267.85 382.135,1267.84 384.115,1258.39 386.096,1237.24 388.076,1248.41 390.057,1226.18 392.038,1249.46 
  394.018,1294.82 395.999,1310 397.979,1303.88 399.96,1313.77 401.94,1305.55 403.921,1275.98 405.902,1268.56 407.882,1280.78 409.863,1328.16 411.843,1311.07 
  413.824,1323.91 415.805,1317.24 417.785,1291.78 419.766,1273.37 421.746,1317.16 423.727,1324.21 425.707,1329 427.688,1331.03 429.669,1263.22 431.649,1258.94 
  433.63,1309.45 435.61,1301.84 437.591,1303.46 439.572,1303.23 441.552,1308.13 443.533,1259.63 445.513,1313.53 447.494,1280.56 449.474,1261.73 451.455,1284.85 
  453.436,1280.39 455.416,1261.72 457.397,1270.64 459.377,1264.02 461.358,1245.43 463.339,1309.57 465.319,1288.25 467.3,1287.95 469.28,1309.07 471.261,1203.3 
  473.241,1174.33 475.222,1257.5 477.203,1262.2 479.183,1269.57 481.164,1243.79 483.144,1270.16 485.125,1245 487.106,1294.72 489.086,1280.18 491.067,1303.15 
  493.047,1289.67 495.028,1239.93 497.008,1246.64 498.989,1272.13 500.97,1311.45 502.95,1314.28 504.931,1313.86 506.911,1353.3 508.892,1265 510.873,1255.84 
  512.853,1227.76 514.834,1239.03 516.814,1227.55 518.795,1221.21 520.775,1242.5 522.756,1197.82 524.737,1230.06 526.717,1242.94 528.698,1304.23 530.678,1333.66 
  532.659,1266.43 534.64,1299.24 536.62,1285.47 538.601,1212.88 540.581,1209.12 542.562,1242.79 544.542,1259.5 546.523,1232.08 548.504,1308.69 550.484,1271.55 
  552.465,1275.98 554.445,1311.8 556.426,1337.27 558.407,1290.33 560.387,1265.93 562.368,1257.77 564.348,1210.24 566.329,1201.1 568.309,1240.42 570.29,1287.71 
  572.271,1314.96 574.251,1244.22 576.232,1307.64 578.212,1310.07 580.193,1281.5 582.174,1291.2 584.154,1270.86 586.135,1193.64 588.115,1243.21 590.096,1288.49 
  592.076,1300.5 594.057,1280.94 596.038,1288.69 598.018,1243.94 599.999,1258.7 601.979,1290.69 603.96,1332.63 605.941,1250.06 607.921,1237.5 609.902,1244.42 
  611.882,1228.93 613.863,1273.3 615.843,1270.77 617.824,1258.71 619.805,1239.21 621.785,1269.99 623.766,1275.46 625.746,1299.42 627.727,1295.44 629.708,1304.34 
  631.688,1272.61 633.669,1246.33 635.649,1249.52 637.63,1259.11 639.61,1268.04 641.591,1290.02 643.572,1310.89 645.552,1285.66 647.533,1342.69 649.513,1353.7 
  651.494,1271.69 653.475,1280.74 655.455,1223.6 657.436,1249.97 659.416,1264.15 661.397,1305.17 663.377,1338.81 665.358,1303.44 667.339,1268.38 669.319,1301.3 
  671.3,1276.08 673.28,1241.85 675.261,1313.85 677.242,1299.73 679.222,1204.09 681.203,1205.81 683.183,1179.79 685.164,1207.16 687.144,1195.18 689.125,1233.69 
  691.106,1290.43 693.086,1268.75 695.067,1274.53 697.047,1263.19 699.028,1239.15 701.009,1208.8 702.989,1215.06 704.97,1262.28 706.95,1290.33 708.931,1231.9 
  710.912,1302.67 712.892,1243.57 714.873,1272.4 716.853,1244 718.834,1353.04 720.814,1251.43 722.795,1217.29 724.776,1225.93 726.756,1260.93 728.737,1259 
  730.717,1244.4 732.698,1255.95 734.679,1321.87 736.659,1347.9 738.64,1308.17 740.62,1253.22 742.601,1308.53 744.581,1245.55 746.562,1235.46 748.543,1253.08 
  750.523,1304.03 752.504,1294.81 754.484,1309.54 756.465,1322.31 758.446,1345.34 760.426,1306.55 762.407,1318.23 764.387,1349.34 766.368,1240.97 768.348,1233.18 
  770.329,1244 772.31,1283.37 774.29,1303.57 776.271,1282.26 778.251,1309.91 780.232,1312.69 782.213,1297.68 784.193,1285.81 786.174,1310.43 788.154,1333.47 
  790.135,1321.75 792.115,1302 794.096,1288.71 796.077,1288.57 798.057,1314.68 800.038,1346.79 802.018,1321.22 803.999,1311.37 805.98,1343.08 807.96,1369.16 
  809.941,1337.73 811.921,1317.86 813.902,1314.1 815.882,1316.87 817.863,1304.43 819.844,1323.54 821.824,1242.13 823.805,1275.78 825.785,1338.69 827.766,1284.21 
  829.747,1357.37 831.727,1378.17 833.708,1320.42 835.688,1243.08 837.669,1266.75 839.649,1204.37 841.63,1236.28 843.611,1281.45 845.591,1259.52 847.572,1305.15 
  849.552,1340.15 851.533,1292.93 853.514,1287.55 855.494,1227.5 857.475,1215.65 859.455,1263.68 861.436,1322.14 863.416,1276.26 865.397,1245.56 867.378,1295.87 
  869.358,1302.04 871.339,1307.9 873.319,1350.16 875.3,1331.16 877.281,1292.3 879.261,1285.58 881.242,1247.34 883.222,1251.11 885.203,1232.02 887.183,1219.55 
  889.164,1236.57 891.145,1215.67 893.125,1253.18 895.106,1297.73 897.086,1182.38 899.067,1218.05 901.048,1233.38 903.028,1333.81 905.009,1282.49 906.989,1256.38 
  908.97,1177.82 910.95,1018.2 912.931,1187.85 914.912,1277.7 916.892,1260.01 918.873,1281 920.853,1288.65 922.834,1283.24 924.815,1208.24 926.795,1240.79 
  928.776,1293.32 930.756,1317.18 932.737,1285.69 934.717,1291.98 936.698,1290.9 938.679,1235.43 940.659,1225.94 942.64,1259.24 944.62,1294.24 946.601,1296.68 
  948.582,1321.87 950.562,1288.06 952.543,1257.84 954.523,1252.7 956.504,1268.15 958.484,1272.52 960.465,1333.69 962.446,1334.07 964.426,1286.77 966.407,1284.81 
  968.387,1263.07 970.368,1231.65 972.349,1290.58 974.329,1305.64 976.31,1274.32 978.29,1299.39 980.271,1222.98 982.251,1298.92 984.232,1321.08 986.213,1305.57 
  988.193,1348.74 990.174,1368.88 992.154,1258.41 994.135,1295.59 996.116,1297.55 998.096,1286.09 1000.08,1263 1002.06,1271.23 1004.04,1277.53 1006.02,1316.36 
  1008,1316.49 1009.98,1314.09 1011.96,1287.31 1013.94,1288.28 1015.92,1296.67 1017.9,1313.18 1019.88,1347.71 1021.86,1308.43 1023.84,1315.21 1025.82,1255.09 
  1027.8,1262.71 1029.79,1255.67 1031.77,1295.39 1033.75,1270.63 1035.73,1336.58 1037.71,1340.3 1039.69,1306.27 1041.67,1264.95 1043.65,1280.72 1045.63,1225.41 
  1047.61,1283.19 1049.59,1306.71 1051.57,1336.85 1053.55,1268.81 1055.53,1270.45 1057.51,1245.48 1059.49,1276.71 1061.47,1274.21 1063.46,1283.78 1065.44,1276.79 
  1067.42,1248.36 1069.4,1263.47 1071.38,1238.82 1073.36,1291 1075.34,1343.91 1077.32,1299.23 1079.3,1330.13 1081.28,1278.73 1083.26,1316.34 1085.24,1283.66 
  1087.22,1208.28 1089.2,1164.84 1091.18,1248.1 1093.16,1292.74 1095.14,1287.52 1097.13,1291.13 1099.11,1313.43 1101.09,1350.04 1103.07,1326.84 1105.05,1232.42 
  1107.03,1200.47 1109.01,1202.92 1110.99,1172.08 1112.97,1262.27 1114.95,1261.62 1116.93,1264.96 1118.91,1248.13 1120.89,1296.63 1122.87,1273.48 1124.85,1331.37 
  1126.83,1357.6 1128.81,1309.32 1130.8,1302.24 1132.78,1320.11 1134.76,1283.61 1136.74,1278.6 1138.72,1213.43 1140.7,1258.8 1142.68,1234.46 1144.66,1281.07 
  1146.64,1290.08 1148.62,1307.84 1150.6,1262.83 1152.58,1339.52 1154.56,1318.85 1156.54,1333.75 1158.52,1298.13 1160.5,1219.13 1162.48,1199.85 1164.47,1208.05 
  1166.45,1250.92 1168.43,1297.74 1170.41,1266 1172.39,1310.19 1174.37,1293.27 1176.35,1261.38 1178.33,1346.91 1180.31,1325.6 1182.29,1262.39 1184.27,1254.86 
  1186.25,1297.42 1188.23,1310.56 1190.21,1320.37 1192.19,1278.11 1194.17,1289.24 1196.15,1302.19 1198.14,1327.6 1200.12,1310.5 1202.1,1308.1 1204.08,1306.6 
  1206.06,1268.03 1208.04,1269.33 1210.02,1294.38 1212,1242.75 1213.98,1284.49 1215.96,1294.14 1217.94,1332.14 1219.92,1321.45 1221.9,1275.32 1223.88,1316.52 
  1225.86,1344.63 1227.84,1263.54 1229.82,1236.05 1231.8,1320.92 1233.79,1293.46 1235.77,1311.89 1237.75,1303.49 1239.73,1313.69 1241.71,1307.65 1243.69,1345.78 
  1245.67,1310.85 1247.65,1234.7 1249.63,1241.08 1251.61,1297.81 1253.59,1270.4 1255.57,1281.56 1257.55,1270.86 1259.53,1343.97 1261.51,1319.48 1263.49,1270 
  1265.47,1271.97 1267.46,1249.79 1269.44,1253.53 1271.42,1241.6 1273.4,1242.14 1275.38,1242.66 1277.36,1263.52 1279.34,1264.02 1281.32,1252.94 1283.3,1246.17 
  1285.28,1221.28 1287.26,1247.82 1289.24,1295.56 1291.22,1296.88 1293.2,1212.75 1295.18,1234.44 1297.16,1274.01 1299.14,1271.86 1301.13,1305.97 1303.11,1342.96 
  1305.09,1300.6 1307.07,1271.87 1309.05,1228.52 1311.03,1243.02 1313.01,1230.48 1314.99,1243.82 1316.97,1174.67 1318.95,1216.95 1320.93,1293.54 1322.91,1271.05 
  1324.89,1258.74 1326.87,1304.06 1328.85,1281.9 1330.83,1319.05 1332.81,1293.4 1334.8,1311.69 1336.78,1279.44 1338.76,1275.25 1340.74,1277.65 1342.72,1270.69 
  1344.7,1324.71 1346.68,1338.81 1348.66,1262.44 1350.64,1271.87 1352.62,1289.94 1354.6,1291.71 1356.58,1355.57 1358.56,1325.14 1360.54,1302.48 1362.52,1280.43 
  1364.5,1206.28 1366.48,1227.75 1368.47,1235.89 1370.45,1254.32 1372.43,1314.3 1374.41,1314.49 1376.39,1367.46 1378.37,1315.78 1380.35,1277.12 1382.33,1295.04 
  1384.31,1350.91 1386.29,1319.92 1388.27,1298.75 1390.25,1294.62 1392.23,1284.67 1394.21,1267.17 1396.19,1326.59 1398.17,1364.35 1400.15,1332.96 1402.14,1363.73 
  1404.12,1355.43 1406.1,1356.46 1408.08,1390.25 1410.06,1317.31 1412.04,1272.55 1414.02,1278.09 1416,1238.26 1417.98,1303.75 1419.96,1317.01 1421.94,1290.25 
  1423.92,1240.63 1425.9,1243.77 1427.88,1244.49 1429.86,1178.04 1431.84,1300.17 1433.82,1292.46 1435.81,1256.07 1437.79,1297.34 1439.77,1268.12 1441.75,1243.26 
  1443.73,1277.73 1445.71,1283.58 1447.69,1272 1449.67,1286.12 1451.65,1279.86 1453.63,1313.59 1455.61,1304.4 1457.59,1280.28 1459.57,1266.42 1461.55,1287.7 
  1463.53,1352.06 1465.51,1305.57 1467.49,1284.79 1469.48,1264.05 1471.46,1260.42 1473.44,1239.98 1475.42,1238.09 1477.4,1241.31 1479.38,1182.04 1481.36,1160.42 
  1483.34,1210.44 1485.32,1284.1 1487.3,1278.27 1489.28,1279.53 1491.26,1270.67 1493.24,1255.56 1495.22,1266.57 1497.2,1281.71 1499.18,1310.81 1501.16,1298.99 
  1503.14,1243.57 1505.13,1156.51 1507.11,1185.76 1509.09,1329.41 1511.07,1353.88 1513.05,1309.86 1515.03,1331.14 1517.01,1256.79 1518.99,1247.45 1520.97,1221.19 
  1522.95,1238.61 1524.93,1298.16 1526.91,1292.45 1528.89,1308.19 1530.87,1332.87 1532.85,1294.07 1534.83,1279.78 1536.81,1267.52 1538.8,1312.11 1540.78,1298.54 
  1542.76,1317.83 1544.74,1296.88 1546.72,1318.65 1548.7,1267.68 1550.68,1271.81 1552.66,1236.26 1554.64,1318.51 1556.62,1315.39 1558.6,1250.36 1560.58,1329.89 
  1562.56,1369.83 1564.54,1285.4 1566.52,1275.93 1568.5,1316.49 1570.48,1245.73 1572.47,1221.77 1574.45,1232.98 1576.43,1250.5 1578.41,1244.59 1580.39,1245.64 
  1582.37,1273.71 1584.35,1306.71 1586.33,1311.49 1588.31,1311.93 1590.29,1245.57 1592.27,1279.59 1594.25,1259.2 1596.23,1282.04 1598.21,1319.05 1600.19,1334.45 
  1602.17,1310.51 1604.15,1315.38 1606.14,1296.76 1608.12,1322.17 1610.1,1278.52 1612.08,1241.72 1614.06,1342.23 1616.04,1362.94 1618.02,1328.96 1620,1280.68 
  1621.98,1293.94 1623.96,1262.2 1625.94,1250.53 1627.92,1273.6 1629.9,1241.84 1631.88,1234.68 1633.86,1323.13 1635.84,1241.2 1637.82,1244.82 1639.81,1254.67 
  1641.79,1231.9 1643.77,1303.84 1645.75,1251.48 1647.73,1240.75 1649.71,1300.15 1651.69,1260.19 1653.67,1258.21 1655.65,1258.87 1657.63,1303.33 1659.61,1272.64 
  1661.59,1231.13 1663.57,1254.42 1665.55,1311.25 1667.53,1299.39 1669.51,1339.51 1671.49,1293 1673.48,1283.39 1675.46,1260.44 1677.44,1295.98 1679.42,1233.91 
  1681.4,1222.35 1683.38,1238.93 1685.36,1196.8 1687.34,1188.18 1689.32,1232.8 1691.3,1253.69 1693.28,1290.59 1695.26,1297.34 1697.24,1329.11 1699.22,1283.71 
  1701.2,1250 1703.18,1292.7 1705.16,1305.08 1707.15,1239.28 1709.13,1246.24 1711.11,1237.4 1713.09,1225.35 1715.07,1295.75 1717.05,1306.25 1719.03,1305.75 
  1721.01,1319.93 1722.99,1275.46 1724.97,1259.32 1726.95,1273.29 1728.93,1274.06 1730.91,1285.92 1732.89,1239.29 1734.87,1282.56 1736.85,1268.7 1738.83,1257.6 
  1740.81,1290.72 1742.8,1299.84 1744.78,1273.74 1746.76,1255.4 1748.74,1312.36 1750.72,1281.52 1752.7,1231.91 1754.68,1290.21 1756.66,1306.59 1758.64,1283.91 
  1760.62,1302.94 1762.6,1308.84 1764.58,1311.74 1766.56,1247.45 1768.54,1316.47 1770.52,1289.65 1772.5,1289.8 1774.48,1335.88 1776.47,1278.16 1778.45,1196.57 
  1780.43,1256.81 1782.41,1226.8 1784.39,1270.78 1786.37,1311.7 1788.35,1299.7 1790.33,1258.42 1792.31,1247.72 1794.29,1229.62 1796.27,1254.7 1798.25,1263.13 
  1800.23,1221 1802.21,1255.24 1804.19,1327.87 1806.17,1316.82 1808.15,1307.17 1810.14,1304.3 1812.12,1256.19 1814.1,1257.07 1816.08,1242.85 1818.06,1226.01 
  1820.04,1296.35 1822.02,1318.6 1824,1252.5 1825.98,1325.47 1827.96,1311.56 1829.94,1285.45 1831.92,1270.84 1833.9,1293.15 1835.88,1238.77 1837.86,1275.29 
  1839.84,1267.99 1841.82,1262.61 1843.81,1243.07 1845.79,1276.6 1847.77,1277.94 1849.75,1249.12 1851.73,1277.31 1853.71,1249.26 1855.69,1272.83 1857.67,1246.94 
  1859.65,1246.34 1861.63,1289.55 1863.61,1245.03 1865.59,1299.33 1867.57,1308.83 1869.55,1270.97 1871.53,1283.93 1873.51,1306.83 1875.49,1277.22 1877.48,1239.21 
  1879.46,1255.42 1881.44,1225.19 1883.42,1244.77 1885.4,1237.44 1887.38,1255.55 1889.36,1247.64 1891.34,1216.61 1893.32,1238.49 1895.3,1240.97 1897.28,1290.36 
  1899.26,1284.75 1901.24,1257.85 1903.22,1293.83 1905.2,1306.12 1907.18,1242.53 1909.16,1279.98 1911.15,1200.01 1913.13,1204.31 1915.11,1222.99 1917.09,1313.35 
  1919.07,1293.46 1921.05,1272.83 1923.03,1326.51 1925.01,1339.75 1926.99,1356.62 1928.97,1366.74 1930.95,1340.06 1932.93,1296.36 1934.91,1198.62 1936.89,1156.65 
  1938.87,1170.16 1940.85,1240.54 1942.83,1247.96 1944.82,1312.53 1946.8,1268.31 1948.78,1321.79 1950.76,1308.94 1952.74,1335.75 1954.72,1298.1 1956.7,1269.05 
  1958.68,1251 1960.66,1260.32 1962.64,1266.93 1964.62,1239.52 1966.6,1272.01 1968.58,1220.19 1970.56,1287.76 1972.54,1321.39 1974.52,1339.37 1976.5,1328.71 
  1978.49,1358.57 1980.47,1270.48 1982.45,1268.45 1984.43,1278.81 1986.41,1290.03 1988.39,1210.49 1990.37,1170.75 1992.35,1266.83 1994.33,1363.39 1996.31,1320.48 
  1998.29,1312.51 2000.27,1316.52 2002.25,1313.94 2004.23,1316.13 2006.21,1312.31 2008.19,1319.2 2010.17,1231.75 2012.15,1204.67 2014.14,1289.2 2016.12,1266.15 
  2018.1,1214.02 2020.08,1274.73 2022.06,1246.26 2024.04,1243.55 2026.02,1185.5 2028,1272.59 2029.98,1237.71 2031.96,1300.47 2033.94,1351.79 2035.92,1328.03 
  2037.9,1258.15 2039.88,1272.74 2041.86,1212.35 2043.84,1166.31 2045.82,1203.25 2047.81,1243.95 2049.79,1268.39 2051.77,1322.72 2053.75,1290.89 2055.73,1290.52 
  2057.71,1266.66 2059.69,1271.11 2061.67,1280.69 2063.65,1255.37 2065.63,1235.09 2067.61,1285.34 2069.59,1297.2 2071.57,1245.46 2073.55,1210.35 2075.53,1249.17 
  2077.51,1232.64 2079.49,1304.38 2081.48,1261.11 2083.46,1255.36 2085.44,1311.11 2087.42,1277.72 2089.4,1234.52 2091.38,1313.33 2093.36,1299.72 2095.34,1291.48 
  2097.32,1242.82 2099.3,1213.95 2101.28,1248.87 2103.26,1272.95 2105.24,1242.65 2107.22,1254.63 2109.2,1272.7 2111.18,1297.68 2113.16,1354.89 2115.15,1264.3 
  2117.13,1251.43 2119.11,1334.87 2121.09,1303.61 2123.07,1287.23 2125.05,1343.14 2127.03,1339.28 2129.01,1332.14 2130.99,1297.23 2132.97,1266.63 2134.95,1281.06 
  2136.93,1334.87 2138.91,1327.78 2140.89,1339.48 2142.87,1267.79 2144.85,1233.23 2146.83,1284.8 2148.82,1295.2 2150.8,1310.51 2152.78,1341.85 2154.76,1269.01 
  2156.74,1275.75 2158.72,1280.83 2160.7,1226.7 2162.68,1241.25 2164.66,1243.22 2166.64,1223.8 2168.62,1290.62 2170.6,1256.16 2172.58,1263 2174.56,1295.39 
  2176.54,1275.33 2178.52,1290.23 2180.5,1222.77 2182.49,1224.03 2184.47,1204.21 2186.45,1177.99 2188.43,1215.37 2190.41,1226.26 2192.39,1300.5 2194.37,1326.49 
  2196.35,1319.15 2198.33,1299.37 2200.31,1340.39 2202.29,1223.18 2204.27,1229.87 2206.25,1233.82 2208.23,1179.46 2210.21,1253.42 2212.19,1282.92 2214.17,1305.01 
  2216.16,1260.12 2218.14,1239.72 2220.12,1261.35 2222.1,1252.41 2224.08,1283.97 2226.06,1268.38 2228.04,1235.14 2230.02,1246.87 2232,1193.58 2233.98,1272.93 
  2235.96,1241.87 2237.94,1276.14 2239.92,1267.55 2241.9,1313.05 2243.88,1311.92 2245.86,1304.27 2247.84,1278.62 2249.82,1279.51 2251.81,1201.15 2253.79,1307.98 
  2255.77,1273.45 2257.75,1271.56 2259.73,1267.9 2261.71,1194.98 2263.69,1205.53 2265.67,1302.18 2267.65,1320.63 2269.63,1309.85 2271.61,1274.65 2273.59,1282.15 
  2275.57,1242.99 2277.55,1260.17 2279.53,1299.87 2281.51,1297.04 2283.49,1231.01 2285.48,1250.2 2287.46,1254.64 2289.44,1267.58 2291.42,1314.36 2293.4,1309.47 
  
  "/>
</svg>
