<?xml version="1.0" encoding="utf-8"?>
<svg xmlns="http://www.w3.org/2000/svg" xmlns:xlink="http://www.w3.org/1999/xlink" width="600" height="400" viewBox="0 0 2400 1600">
<defs>
  <clipPath id="clip410">
    <rect x="0" y="0" width="2400" height="1600"/>
  </clipPath>
</defs>
<path clip-path="url(#clip410)" d="
M0 1600 L2400 1600 L2400 0 L0 0  Z
  " fill="#ffffff" fill-rule="evenodd" fill-opacity="1"/>
<defs>
  <clipPath id="clip411">
    <rect x="480" y="0" width="1681" height="1600"/>
  </clipPath>
</defs>
<defs>
  <clipPath id="clip412">
    <rect x="224" y="123" width="2130" height="1305"/>
  </clipPath>
</defs>
<path clip-path="url(#clip410)" d="
M267.494 1427.15 L2352.76 1427.15 L2352.76 123.472 L267.494 123.472  Z
  " fill="#ffffff" fill-rule="evenodd" fill-opacity="1"/>
<defs>
  <clipPath id="clip413">
    <rect x="267" y="123" width="2086" height="1305"/>
  </clipPath>
</defs>
<polyline clip-path="url(#clip413)" style="stroke:#000000; stroke-width:2; stroke-opacity:0.1; fill:none" points="
  326.511,1427.15 326.511,123.472 
  "/>
<polyline clip-path="url(#clip413)" style="stroke:#000000; stroke-width:2; stroke-opacity:0.1; fill:none" points="
  818.811,1427.15 818.811,123.472 
  "/>
<polyline clip-path="url(#clip413)" style="stroke:#000000; stroke-width:2; stroke-opacity:0.1; fill:none" points="
  1311.11,1427.15 1311.11,123.472 
  "/>
<polyline clip-path="url(#clip413)" style="stroke:#000000; stroke-width:2; stroke-opacity:0.1; fill:none" points="
  1803.41,1427.15 1803.41,123.472 
  "/>
<polyline clip-path="url(#clip413)" style="stroke:#000000; stroke-width:2; stroke-opacity:0.1; fill:none" points="
  2295.71,1427.15 2295.71,123.472 
  "/>
<polyline clip-path="url(#clip410)" style="stroke:#000000; stroke-width:4; stroke-opacity:1; fill:none" points="
  267.494,1427.15 2352.76,1427.15 
  "/>
<polyline clip-path="url(#clip410)" style="stroke:#000000; stroke-width:4; stroke-opacity:1; fill:none" points="
  326.511,1427.15 326.511,1411.5 
  "/>
<polyline clip-path="url(#clip410)" style="stroke:#000000; stroke-width:4; stroke-opacity:1; fill:none" points="
  818.811,1427.15 818.811,1411.5 
  "/>
<polyline clip-path="url(#clip410)" style="stroke:#000000; stroke-width:4; stroke-opacity:1; fill:none" points="
  1311.11,1427.15 1311.11,1411.5 
  "/>
<polyline clip-path="url(#clip410)" style="stroke:#000000; stroke-width:4; stroke-opacity:1; fill:none" points="
  1803.41,1427.15 1803.41,1411.5 
  "/>
<polyline clip-path="url(#clip410)" style="stroke:#000000; stroke-width:4; stroke-opacity:1; fill:none" points="
  2295.71,1427.15 2295.71,1411.5 
  "/>
<path clip-path="url(#clip410)" d="M 0 0 M303.896 1456.34 Q300.285 1456.34 298.456 1459.9 Q296.65 1463.44 296.65 1470.57 Q296.65 1477.68 298.456 1481.25 Q300.285 1484.79 303.896 1484.79 Q307.53 1484.79 309.335 1481.25 Q311.164 1477.68 311.164 1470.57 Q311.164 1463.44 309.335 1459.9 Q307.53 1456.34 303.896 1456.34 M303.896 1452.63 Q309.706 1452.63 312.761 1457.24 Q315.84 1461.82 315.84 1470.57 Q315.84 1479.3 312.761 1483.91 Q309.706 1488.49 303.896 1488.49 Q298.086 1488.49 295.007 1483.91 Q291.951 1479.3 291.951 1470.57 Q291.951 1461.82 295.007 1457.24 Q298.086 1452.63 303.896 1452.63 Z" fill="#000000" fill-rule="evenodd" fill-opacity="1" /><path clip-path="url(#clip410)" d="M 0 0 M324.058 1481.94 L328.942 1481.94 L328.942 1487.82 L324.058 1487.82 L324.058 1481.94 Z" fill="#000000" fill-rule="evenodd" fill-opacity="1" /><path clip-path="url(#clip410)" d="M 0 0 M349.127 1456.34 Q345.516 1456.34 343.687 1459.9 Q341.882 1463.44 341.882 1470.57 Q341.882 1477.68 343.687 1481.25 Q345.516 1484.79 349.127 1484.79 Q352.761 1484.79 354.567 1481.25 Q356.395 1477.68 356.395 1470.57 Q356.395 1463.44 354.567 1459.9 Q352.761 1456.34 349.127 1456.34 M349.127 1452.63 Q354.937 1452.63 357.993 1457.24 Q361.071 1461.82 361.071 1470.57 Q361.071 1479.3 357.993 1483.91 Q354.937 1488.49 349.127 1488.49 Q343.317 1488.49 340.238 1483.91 Q337.183 1479.3 337.183 1470.57 Q337.183 1461.82 340.238 1457.24 Q343.317 1452.63 349.127 1452.63 Z" fill="#000000" fill-rule="evenodd" fill-opacity="1" /><path clip-path="url(#clip410)" d="M 0 0 M790.547 1483.88 L806.866 1483.88 L806.866 1487.82 L784.922 1487.82 L784.922 1483.88 Q787.584 1481.13 792.167 1476.5 Q796.774 1471.85 797.954 1470.51 Q800.2 1467.98 801.079 1466.25 Q801.982 1464.49 801.982 1462.8 Q801.982 1460.04 800.037 1458.31 Q798.116 1456.57 795.014 1456.57 Q792.815 1456.57 790.362 1457.33 Q787.931 1458.1 785.153 1459.65 L785.153 1454.93 Q787.977 1453.79 790.431 1453.21 Q792.885 1452.63 794.922 1452.63 Q800.292 1452.63 803.487 1455.32 Q806.681 1458.01 806.681 1462.5 Q806.681 1464.63 805.871 1466.55 Q805.084 1468.44 802.977 1471.04 Q802.399 1471.71 799.297 1474.93 Q796.195 1478.12 790.547 1483.88 Z" fill="#000000" fill-rule="evenodd" fill-opacity="1" /><path clip-path="url(#clip410)" d="M 0 0 M816.681 1481.94 L821.565 1481.94 L821.565 1487.82 L816.681 1487.82 L816.681 1481.94 Z" fill="#000000" fill-rule="evenodd" fill-opacity="1" /><path clip-path="url(#clip410)" d="M 0 0 M831.797 1453.26 L850.153 1453.26 L850.153 1457.19 L836.079 1457.19 L836.079 1465.67 Q837.097 1465.32 838.116 1465.16 Q839.135 1464.97 840.153 1464.97 Q845.94 1464.97 849.32 1468.14 Q852.699 1471.32 852.699 1476.73 Q852.699 1482.31 849.227 1485.41 Q845.755 1488.49 839.435 1488.49 Q837.26 1488.49 834.991 1488.12 Q832.746 1487.75 830.338 1487.01 L830.338 1482.31 Q832.422 1483.44 834.644 1484 Q836.866 1484.56 839.343 1484.56 Q843.347 1484.56 845.685 1482.45 Q848.023 1480.34 848.023 1476.73 Q848.023 1473.12 845.685 1471.01 Q843.347 1468.91 839.343 1468.91 Q837.468 1468.91 835.593 1469.32 Q833.741 1469.74 831.797 1470.62 L831.797 1453.26 Z" fill="#000000" fill-rule="evenodd" fill-opacity="1" /><path clip-path="url(#clip410)" d="M 0 0 M1278.27 1453.26 L1296.63 1453.26 L1296.63 1457.19 L1282.56 1457.19 L1282.56 1465.67 Q1283.58 1465.32 1284.59 1465.16 Q1285.61 1464.97 1286.63 1464.97 Q1292.42 1464.97 1295.8 1468.14 Q1299.18 1471.32 1299.18 1476.73 Q1299.18 1482.31 1295.7 1485.41 Q1292.23 1488.49 1285.91 1488.49 Q1283.74 1488.49 1281.47 1488.12 Q1279.22 1487.75 1276.82 1487.01 L1276.82 1482.31 Q1278.9 1483.44 1281.12 1484 Q1283.34 1484.56 1285.82 1484.56 Q1289.83 1484.56 1292.16 1482.45 Q1294.5 1480.34 1294.5 1476.73 Q1294.5 1473.12 1292.16 1471.01 Q1289.83 1468.91 1285.82 1468.91 Q1283.95 1468.91 1282.07 1469.32 Q1280.22 1469.74 1278.27 1470.62 L1278.27 1453.26 Z" fill="#000000" fill-rule="evenodd" fill-opacity="1" /><path clip-path="url(#clip410)" d="M 0 0 M1308.39 1481.94 L1313.27 1481.94 L1313.27 1487.82 L1308.39 1487.82 L1308.39 1481.94 Z" fill="#000000" fill-rule="evenodd" fill-opacity="1" /><path clip-path="url(#clip410)" d="M 0 0 M1333.46 1456.34 Q1329.85 1456.34 1328.02 1459.9 Q1326.21 1463.44 1326.21 1470.57 Q1326.21 1477.68 1328.02 1481.25 Q1329.85 1484.79 1333.46 1484.79 Q1337.09 1484.79 1338.9 1481.25 Q1340.73 1477.68 1340.73 1470.57 Q1340.73 1463.44 1338.9 1459.9 Q1337.09 1456.34 1333.46 1456.34 M1333.46 1452.63 Q1339.27 1452.63 1342.32 1457.24 Q1345.4 1461.82 1345.4 1470.57 Q1345.4 1479.3 1342.32 1483.91 Q1339.27 1488.49 1333.46 1488.49 Q1327.65 1488.49 1324.57 1483.91 Q1321.51 1479.3 1321.51 1470.57 Q1321.51 1461.82 1324.57 1457.24 Q1327.65 1452.63 1333.46 1452.63 Z" fill="#000000" fill-rule="evenodd" fill-opacity="1" /><path clip-path="url(#clip410)" d="M 0 0 M1769.73 1453.26 L1791.95 1453.26 L1791.95 1455.25 L1779.4 1487.82 L1774.52 1487.82 L1786.33 1457.19 L1769.73 1457.19 L1769.73 1453.26 Z" fill="#000000" fill-rule="evenodd" fill-opacity="1" /><path clip-path="url(#clip410)" d="M 0 0 M1801.07 1481.94 L1805.96 1481.94 L1805.96 1487.82 L1801.07 1487.82 L1801.07 1481.94 Z" fill="#000000" fill-rule="evenodd" fill-opacity="1" /><path clip-path="url(#clip410)" d="M 0 0 M1816.19 1453.26 L1834.54 1453.26 L1834.54 1457.19 L1820.47 1457.19 L1820.47 1465.67 Q1821.49 1465.32 1822.51 1465.16 Q1823.52 1464.97 1824.54 1464.97 Q1830.33 1464.97 1833.71 1468.14 Q1837.09 1471.32 1837.09 1476.73 Q1837.09 1482.31 1833.62 1485.41 Q1830.14 1488.49 1823.83 1488.49 Q1821.65 1488.49 1819.38 1488.12 Q1817.14 1487.75 1814.73 1487.01 L1814.73 1482.31 Q1816.81 1483.44 1819.03 1484 Q1821.26 1484.56 1823.73 1484.56 Q1827.74 1484.56 1830.08 1482.45 Q1832.41 1480.34 1832.41 1476.73 Q1832.41 1473.12 1830.08 1471.01 Q1827.74 1468.91 1823.73 1468.91 Q1821.86 1468.91 1819.98 1469.32 Q1818.13 1469.74 1816.19 1470.62 L1816.19 1453.26 Z" fill="#000000" fill-rule="evenodd" fill-opacity="1" /><path clip-path="url(#clip410)" d="M 0 0 M2247.78 1483.88 L2255.42 1483.88 L2255.42 1457.52 L2247.11 1459.19 L2247.11 1454.93 L2255.37 1453.26 L2260.05 1453.26 L2260.05 1483.88 L2267.69 1483.88 L2267.69 1487.82 L2247.78 1487.82 L2247.78 1483.88 Z" fill="#000000" fill-rule="evenodd" fill-opacity="1" /><path clip-path="url(#clip410)" d="M 0 0 M2287.13 1456.34 Q2283.52 1456.34 2281.69 1459.9 Q2279.89 1463.44 2279.89 1470.57 Q2279.89 1477.68 2281.69 1481.25 Q2283.52 1484.79 2287.13 1484.79 Q2290.77 1484.79 2292.57 1481.25 Q2294.4 1477.68 2294.4 1470.57 Q2294.4 1463.44 2292.57 1459.9 Q2290.77 1456.34 2287.13 1456.34 M2287.13 1452.63 Q2292.94 1452.63 2296 1457.24 Q2299.08 1461.82 2299.08 1470.57 Q2299.08 1479.3 2296 1483.91 Q2292.94 1488.49 2287.13 1488.49 Q2281.32 1488.49 2278.24 1483.91 Q2275.19 1479.3 2275.19 1470.57 Q2275.19 1461.82 2278.24 1457.24 Q2281.32 1452.63 2287.13 1452.63 Z" fill="#000000" fill-rule="evenodd" fill-opacity="1" /><path clip-path="url(#clip410)" d="M 0 0 M2307.29 1481.94 L2312.18 1481.94 L2312.18 1487.82 L2307.29 1487.82 L2307.29 1481.94 Z" fill="#000000" fill-rule="evenodd" fill-opacity="1" /><path clip-path="url(#clip410)" d="M 0 0 M2332.36 1456.34 Q2328.75 1456.34 2326.92 1459.9 Q2325.12 1463.44 2325.12 1470.57 Q2325.12 1477.68 2326.92 1481.25 Q2328.75 1484.79 2332.36 1484.79 Q2336 1484.79 2337.8 1481.25 Q2339.63 1477.68 2339.63 1470.57 Q2339.63 1463.44 2337.8 1459.9 Q2336 1456.34 2332.36 1456.34 M2332.36 1452.63 Q2338.17 1452.63 2341.23 1457.24 Q2344.31 1461.82 2344.31 1470.57 Q2344.31 1479.3 2341.23 1483.91 Q2338.17 1488.49 2332.36 1488.49 Q2326.55 1488.49 2323.47 1483.91 Q2320.42 1479.3 2320.42 1470.57 Q2320.42 1461.82 2323.47 1457.24 Q2326.55 1452.63 2332.36 1452.63 Z" fill="#000000" fill-rule="evenodd" fill-opacity="1" /><path clip-path="url(#clip410)" d="M 0 0 M1260.65 1530.6 Q1260.65 1532.85 1257.4 1532.85 L1246.32 1532.85 L1241.91 1555.43 Q1241.81 1556.01 1241.68 1556.33 Q1241.59 1556.65 1241.3 1557.2 Q1241.04 1557.71 1240.49 1557.97 Q1239.98 1558.26 1239.2 1558.26 Q1238.24 1558.26 1237.75 1557.68 Q1237.3 1557.13 1237.3 1556.46 Q1237.3 1556.04 1237.95 1554.04 L1244.42 1532.85 L1238.95 1532.85 Q1233.79 1532.85 1230.57 1537.94 Q1230.06 1538.61 1229.77 1538.68 Q1229.64 1538.71 1229.51 1538.71 Q1229.16 1538.71 1228.93 1538.55 Q1228.74 1538.39 1228.74 1538.23 L1228.7 1538.07 Q1228.7 1537.84 1229.22 1536.94 Q1229.77 1536.01 1230.73 1534.62 Q1231.73 1533.24 1232.73 1532.14 Q1234.05 1530.72 1235.53 1529.98 Q1237.01 1529.21 1237.75 1529.11 Q1238.53 1529.02 1239.53 1529.02 L1258.01 1529.02 Q1258.85 1529.02 1259.3 1529.08 Q1259.75 1529.11 1260.2 1529.5 Q1260.65 1529.85 1260.65 1530.6 Z" fill="#000000" fill-rule="evenodd" fill-opacity="1" /><path clip-path="url(#clip410)" d="M 0 0 M1278.94 1540.97 Q1278.94 1529.82 1283.1 1520.84 Q1284.87 1517.07 1287.35 1513.91 Q1289.83 1510.76 1291.47 1509.37 Q1293.11 1507.99 1293.57 1507.99 Q1294.21 1507.99 1294.24 1508.63 Q1294.24 1508.95 1293.37 1509.76 Q1282.74 1520.58 1282.78 1540.97 Q1282.78 1561.42 1293.11 1571.82 Q1294.24 1572.95 1294.24 1573.3 Q1294.24 1573.94 1293.57 1573.94 Q1293.11 1573.94 1291.54 1572.62 Q1289.96 1571.3 1287.51 1568.28 Q1285.06 1565.25 1283.29 1561.55 Q1278.94 1552.56 1278.94 1540.97 Z" fill="#000000" fill-rule="evenodd" fill-opacity="1" /><path clip-path="url(#clip410)" d="M 0 0 M1304.27 1557.45 L1304.27 1555.43 Q1307.78 1555.43 1308.59 1555.01 Q1309.39 1554.56 1309.39 1552.43 L1309.39 1534.75 Q1309.39 1532.3 1308.52 1531.69 Q1307.69 1531.08 1304.27 1531.08 L1304.27 1529.02 L1313.55 1528.31 L1313.55 1535.23 Q1316.64 1528.31 1323.31 1528.31 Q1328.27 1528.31 1330.23 1530.76 Q1331.68 1532.4 1331.97 1534.23 Q1332.29 1536.07 1332.29 1540.84 L1332.29 1553.43 Q1332.36 1554.81 1333.42 1555.14 Q1334.48 1555.43 1337.44 1555.43 L1337.44 1557.45 Q1330.71 1557.26 1330.04 1557.26 Q1329.52 1557.26 1322.6 1557.45 L1322.6 1555.43 Q1326.11 1555.43 1326.91 1555.01 Q1327.75 1554.56 1327.75 1552.43 L1327.75 1537.07 Q1327.75 1533.72 1326.72 1531.75 Q1325.69 1529.76 1322.85 1529.76 Q1319.44 1529.76 1316.7 1532.62 Q1313.97 1535.49 1313.97 1540.32 L1313.97 1552.43 Q1313.97 1554.56 1314.77 1555.01 Q1315.61 1555.43 1319.09 1555.43 L1319.09 1557.45 Q1312.36 1557.26 1311.71 1557.26 Q1311.2 1557.26 1304.27 1557.45 Z" fill="#000000" fill-rule="evenodd" fill-opacity="1" /><path clip-path="url(#clip410)" d="M 0 0 M1340.51 1556.59 L1340.51 1547.89 Q1340.51 1547.15 1340.54 1546.89 Q1340.57 1546.63 1340.77 1546.44 Q1340.96 1546.25 1341.35 1546.25 Q1341.8 1546.25 1341.96 1546.44 Q1342.15 1546.63 1342.28 1547.37 Q1343.28 1551.92 1345.4 1554.33 Q1347.56 1556.71 1351.46 1556.71 Q1355.16 1556.71 1357.03 1555.07 Q1358.9 1553.43 1358.9 1550.72 Q1358.9 1545.89 1352.04 1544.67 Q1348.08 1543.86 1346.43 1543.35 Q1344.79 1542.8 1343.34 1541.61 Q1340.51 1539.29 1340.51 1536.01 Q1340.51 1532.72 1342.99 1530.31 Q1345.5 1527.89 1351.04 1527.89 Q1354.74 1527.89 1357.26 1529.76 Q1358 1529.18 1358.38 1528.7 Q1359.25 1527.89 1359.7 1527.89 Q1360.22 1527.89 1360.32 1528.24 Q1360.41 1528.57 1360.41 1529.5 L1360.41 1536.13 Q1360.41 1536.88 1360.38 1537.13 Q1360.35 1537.39 1360.15 1537.58 Q1359.96 1537.74 1359.54 1537.74 Q1358.8 1537.74 1358.77 1537.13 Q1358.25 1529.15 1351.04 1529.15 Q1347.14 1529.15 1345.4 1530.66 Q1343.66 1532.14 1343.66 1534.17 Q1343.66 1535.3 1344.18 1536.17 Q1344.73 1537 1345.4 1537.52 Q1346.11 1538 1347.4 1538.49 Q1348.69 1538.94 1349.46 1539.1 Q1350.27 1539.26 1351.78 1539.58 Q1357.06 1540.58 1359.28 1542.74 Q1362.05 1545.51 1362.05 1549.02 Q1362.05 1552.91 1359.41 1555.55 Q1356.77 1558.2 1351.46 1558.2 Q1347.18 1558.2 1344.18 1555.33 Q1343.79 1555.72 1343.5 1556.07 Q1343.21 1556.39 1343.08 1556.52 Q1342.99 1556.65 1342.96 1556.75 Q1342.92 1556.81 1342.86 1556.88 Q1341.54 1558.2 1341.22 1558.2 Q1340.7 1558.2 1340.61 1557.84 Q1340.51 1557.52 1340.51 1556.59 Z" fill="#000000" fill-rule="evenodd" fill-opacity="1" /><path clip-path="url(#clip410)" d="M 0 0 M1366.22 1573.3 Q1366.22 1572.98 1367.06 1572.17 Q1377.68 1561.35 1377.68 1540.97 Q1377.68 1520.51 1367.47 1510.18 Q1366.22 1508.99 1366.22 1508.63 Q1366.22 1507.99 1366.86 1507.99 Q1367.31 1507.99 1368.89 1509.31 Q1370.5 1510.63 1372.92 1513.65 Q1375.37 1516.68 1377.17 1520.39 Q1381.52 1529.37 1381.52 1540.97 Q1381.52 1552.11 1377.36 1561.09 Q1375.59 1564.86 1373.11 1568.02 Q1370.63 1571.17 1368.99 1572.56 Q1367.35 1573.94 1366.86 1573.94 Q1366.22 1573.94 1366.22 1573.3 Z" fill="#000000" fill-rule="evenodd" fill-opacity="1" /><polyline clip-path="url(#clip413)" style="stroke:#000000; stroke-width:2; stroke-opacity:0.1; fill:none" points="
  267.494,1352.7 2352.76,1352.7 
  "/>
<polyline clip-path="url(#clip413)" style="stroke:#000000; stroke-width:2; stroke-opacity:0.1; fill:none" points="
  267.494,1046.89 2352.76,1046.89 
  "/>
<polyline clip-path="url(#clip413)" style="stroke:#000000; stroke-width:2; stroke-opacity:0.1; fill:none" points="
  267.494,741.084 2352.76,741.084 
  "/>
<polyline clip-path="url(#clip413)" style="stroke:#000000; stroke-width:2; stroke-opacity:0.1; fill:none" points="
  267.494,435.276 2352.76,435.276 
  "/>
<polyline clip-path="url(#clip413)" style="stroke:#000000; stroke-width:2; stroke-opacity:0.1; fill:none" points="
  267.494,129.469 2352.76,129.469 
  "/>
<polyline clip-path="url(#clip410)" style="stroke:#000000; stroke-width:4; stroke-opacity:1; fill:none" points="
  267.494,1427.15 267.494,123.472 
  "/>
<polyline clip-path="url(#clip410)" style="stroke:#000000; stroke-width:4; stroke-opacity:1; fill:none" points="
  267.494,1352.7 292.518,1352.7 
  "/>
<polyline clip-path="url(#clip410)" style="stroke:#000000; stroke-width:4; stroke-opacity:1; fill:none" points="
  267.494,1046.89 292.518,1046.89 
  "/>
<polyline clip-path="url(#clip410)" style="stroke:#000000; stroke-width:4; stroke-opacity:1; fill:none" points="
  267.494,741.084 292.518,741.084 
  "/>
<polyline clip-path="url(#clip410)" style="stroke:#000000; stroke-width:4; stroke-opacity:1; fill:none" points="
  267.494,435.276 292.518,435.276 
  "/>
<polyline clip-path="url(#clip410)" style="stroke:#000000; stroke-width:4; stroke-opacity:1; fill:none" points="
  267.494,129.469 292.518,129.469 
  "/>
<path clip-path="url(#clip410)" d="M 0 0 M183.416 1366.04 L199.735 1366.04 L199.735 1369.98 L177.791 1369.98 L177.791 1366.04 Q180.453 1363.29 185.036 1358.66 Q189.643 1354.01 190.823 1352.66 Q193.069 1350.14 193.948 1348.4 Q194.851 1346.65 194.851 1344.96 Q194.851 1342.2 192.907 1340.46 Q190.985 1338.73 187.884 1338.73 Q185.685 1338.73 183.231 1339.49 Q180.8 1340.26 178.023 1341.81 L178.023 1337.08 Q180.847 1335.95 183.3 1335.37 Q185.754 1334.79 187.791 1334.79 Q193.161 1334.79 196.356 1337.48 Q199.55 1340.16 199.55 1344.65 Q199.55 1346.78 198.74 1348.71 Q197.953 1350.6 195.847 1353.2 Q195.268 1353.87 192.166 1357.08 Q189.064 1360.28 183.416 1366.04 Z" fill="#000000" fill-rule="evenodd" fill-opacity="1" /><path clip-path="url(#clip410)" d="M 0 0 M219.55 1338.5 Q215.939 1338.5 214.11 1342.06 Q212.305 1345.6 212.305 1352.73 Q212.305 1359.84 214.11 1363.4 Q215.939 1366.95 219.55 1366.95 Q223.184 1366.95 224.99 1363.4 Q226.819 1359.84 226.819 1352.73 Q226.819 1345.6 224.99 1342.06 Q223.184 1338.5 219.55 1338.5 M219.55 1334.79 Q225.36 1334.79 228.416 1339.4 Q231.494 1343.98 231.494 1352.73 Q231.494 1361.46 228.416 1366.07 Q225.36 1370.65 219.55 1370.65 Q213.74 1370.65 210.661 1366.07 Q207.606 1361.46 207.606 1352.73 Q207.606 1343.98 210.661 1339.4 Q213.74 1334.79 219.55 1334.79 Z" fill="#000000" fill-rule="evenodd" fill-opacity="1" /><path clip-path="url(#clip410)" d="M 0 0 M184.411 1060.24 L200.731 1060.24 L200.731 1064.17 L178.786 1064.17 L178.786 1060.24 Q181.448 1057.48 186.032 1052.85 Q190.638 1048.2 191.819 1046.86 Q194.064 1044.33 194.944 1042.6 Q195.847 1040.84 195.847 1039.15 Q195.847 1036.39 193.902 1034.66 Q191.981 1032.92 188.879 1032.92 Q186.68 1032.92 184.226 1033.68 Q181.796 1034.45 179.018 1036 L179.018 1031.28 Q181.842 1030.14 184.296 1029.56 Q186.749 1028.99 188.786 1028.99 Q194.157 1028.99 197.351 1031.67 Q200.546 1034.36 200.546 1038.85 Q200.546 1040.98 199.735 1042.9 Q198.948 1044.8 196.842 1047.39 Q196.263 1048.06 193.161 1051.28 Q190.06 1054.47 184.411 1060.24 Z" fill="#000000" fill-rule="evenodd" fill-opacity="1" /><path clip-path="url(#clip410)" d="M 0 0 M210.592 1029.61 L228.948 1029.61 L228.948 1033.55 L214.874 1033.55 L214.874 1042.02 Q215.893 1041.67 216.911 1041.51 Q217.93 1041.32 218.948 1041.32 Q224.735 1041.32 228.115 1044.5 Q231.494 1047.67 231.494 1053.08 Q231.494 1058.66 228.022 1061.76 Q224.55 1064.84 218.231 1064.84 Q216.055 1064.84 213.786 1064.47 Q211.541 1064.1 209.133 1063.36 L209.133 1058.66 Q211.217 1059.8 213.439 1060.35 Q215.661 1060.91 218.138 1060.91 Q222.143 1060.91 224.481 1058.8 Q226.819 1056.69 226.819 1053.08 Q226.819 1049.47 224.481 1047.37 Q222.143 1045.26 218.138 1045.26 Q216.263 1045.26 214.388 1045.68 Q212.536 1046.09 210.592 1046.97 L210.592 1029.61 Z" fill="#000000" fill-rule="evenodd" fill-opacity="1" /><path clip-path="url(#clip410)" d="M 0 0 M193.555 739.729 Q196.911 740.447 198.786 742.715 Q200.684 744.984 200.684 748.317 Q200.684 753.433 197.166 756.234 Q193.647 759.035 187.166 759.035 Q184.99 759.035 182.675 758.595 Q180.384 758.178 177.93 757.322 L177.93 752.808 Q179.874 753.942 182.189 754.521 Q184.504 755.1 187.027 755.1 Q191.425 755.1 193.717 753.364 Q196.032 751.627 196.032 748.317 Q196.032 745.262 193.879 743.549 Q191.749 741.813 187.93 741.813 L183.902 741.813 L183.902 737.97 L188.115 737.97 Q191.564 737.97 193.393 736.604 Q195.222 735.215 195.222 732.623 Q195.222 729.961 193.323 728.549 Q191.448 727.114 187.93 727.114 Q186.009 727.114 183.81 727.53 Q181.61 727.947 178.972 728.827 L178.972 724.66 Q181.634 723.919 183.948 723.549 Q186.286 723.179 188.347 723.179 Q193.671 723.179 196.772 725.609 Q199.874 728.016 199.874 732.137 Q199.874 735.007 198.231 736.998 Q196.587 738.965 193.555 739.729 Z" fill="#000000" fill-rule="evenodd" fill-opacity="1" /><path clip-path="url(#clip410)" d="M 0 0 M219.55 726.882 Q215.939 726.882 214.11 730.447 Q212.305 733.989 212.305 741.118 Q212.305 748.225 214.11 751.789 Q215.939 755.331 219.55 755.331 Q223.184 755.331 224.99 751.789 Q226.819 748.225 226.819 741.118 Q226.819 733.989 224.99 730.447 Q223.184 726.882 219.55 726.882 M219.55 723.179 Q225.36 723.179 228.416 727.785 Q231.494 732.368 231.494 741.118 Q231.494 749.845 228.416 754.451 Q225.36 759.035 219.55 759.035 Q213.74 759.035 210.661 754.451 Q207.606 749.845 207.606 741.118 Q207.606 732.368 210.661 727.785 Q213.74 723.179 219.55 723.179 Z" fill="#000000" fill-rule="evenodd" fill-opacity="1" /><path clip-path="url(#clip410)" d="M 0 0 M194.55 433.922 Q197.907 434.64 199.782 436.908 Q201.68 439.177 201.68 442.51 Q201.68 447.626 198.161 450.427 Q194.643 453.227 188.161 453.227 Q185.985 453.227 183.671 452.788 Q181.379 452.371 178.925 451.514 L178.925 447.001 Q180.87 448.135 183.185 448.714 Q185.499 449.292 188.022 449.292 Q192.421 449.292 194.712 447.556 Q197.027 445.82 197.027 442.51 Q197.027 439.454 194.874 437.741 Q192.745 436.005 188.925 436.005 L184.897 436.005 L184.897 432.163 L189.11 432.163 Q192.559 432.163 194.388 430.797 Q196.217 429.408 196.217 426.816 Q196.217 424.153 194.319 422.741 Q192.444 421.306 188.925 421.306 Q187.004 421.306 184.805 421.723 Q182.606 422.14 179.967 423.019 L179.967 418.853 Q182.629 418.112 184.944 417.741 Q187.282 417.371 189.342 417.371 Q194.666 417.371 197.768 419.802 Q200.87 422.209 200.87 426.329 Q200.87 429.2 199.226 431.19 Q197.583 433.158 194.55 433.922 Z" fill="#000000" fill-rule="evenodd" fill-opacity="1" /><path clip-path="url(#clip410)" d="M 0 0 M210.592 417.996 L228.948 417.996 L228.948 421.931 L214.874 421.931 L214.874 430.403 Q215.893 430.056 216.911 429.894 Q217.93 429.709 218.948 429.709 Q224.735 429.709 228.115 432.88 Q231.494 436.052 231.494 441.468 Q231.494 447.047 228.022 450.149 Q224.55 453.227 218.231 453.227 Q216.055 453.227 213.786 452.857 Q211.541 452.487 209.133 451.746 L209.133 447.047 Q211.217 448.181 213.439 448.737 Q215.661 449.292 218.138 449.292 Q222.143 449.292 224.481 447.186 Q226.819 445.079 226.819 441.468 Q226.819 437.857 224.481 435.751 Q222.143 433.644 218.138 433.644 Q216.263 433.644 214.388 434.061 Q212.536 434.478 210.592 435.357 L210.592 417.996 Z" fill="#000000" fill-rule="evenodd" fill-opacity="1" /><path clip-path="url(#clip410)" d="M 0 0 M192.235 116.263 L180.43 134.712 L192.235 134.712 L192.235 116.263 M191.009 112.189 L196.888 112.189 L196.888 134.712 L201.819 134.712 L201.819 138.601 L196.888 138.601 L196.888 146.749 L192.235 146.749 L192.235 138.601 L176.634 138.601 L176.634 134.087 L191.009 112.189 Z" fill="#000000" fill-rule="evenodd" fill-opacity="1" /><path clip-path="url(#clip410)" d="M 0 0 M219.55 115.267 Q215.939 115.267 214.11 118.832 Q212.305 122.374 212.305 129.503 Q212.305 136.61 214.11 140.175 Q215.939 143.716 219.55 143.716 Q223.184 143.716 224.99 140.175 Q226.819 136.61 226.819 129.503 Q226.819 122.374 224.99 118.832 Q223.184 115.267 219.55 115.267 M219.55 111.564 Q225.36 111.564 228.416 116.17 Q231.494 120.754 231.494 129.503 Q231.494 138.23 228.416 142.837 Q225.36 147.42 219.55 147.42 Q213.74 147.42 210.661 142.837 Q207.606 138.23 207.606 129.503 Q207.606 120.754 210.661 116.17 Q213.74 111.564 219.55 111.564 Z" fill="#000000" fill-rule="evenodd" fill-opacity="1" /><path clip-path="url(#clip410)" d="M 0 0 M94.6485 828.016 L111.073 833.684 L111.073 888.37 Q111.073 889.111 111.041 889.4 Q111.009 889.69 110.848 889.916 Q110.687 890.141 110.333 890.141 Q110.043 890.141 109.302 889.561 L80.3491 866.148 L47.2415 890.206 Q45.7278 890.206 45.4379 889.948 Q45.1159 889.69 45.1159 888.37 L45.1159 833.684 L60.5425 828.016 L60.5425 829.658 Q58.5457 830.399 56.871 831.591 Q55.1641 832.75 53.9403 834.103 Q52.7165 835.423 51.7503 837.162 Q50.7519 838.869 50.14 840.48 Q49.4959 842.058 49.045 844.022 Q48.5619 845.987 48.3365 847.565 Q48.0788 849.111 47.95 851.043 Q47.8212 852.976 47.789 854.199 Q47.7568 855.423 47.7568 856.969 L47.7568 883.088 L77.1607 861.671 Q77.9014 861.188 78.0947 861.188 Q78.3845 861.188 79.1575 861.8 L107.434 884.666 L107.434 856.647 Q107.434 847.629 105.534 841.349 Q104.085 837.098 101.218 834.006 Q98.3522 830.882 94.6485 829.658 L94.6485 828.016 Z" fill="#000000" fill-rule="evenodd" fill-opacity="1" /><path clip-path="url(#clip410)" d="M 0 0 M127.747 901.215 Q128.739 901.215 129.483 902.026 Q130.204 902.815 130.204 903.672 Q130.204 904.461 129.731 904.957 Q129.235 905.431 128.536 905.431 Q127.612 905.431 126.845 904.642 Q126.079 903.853 126.079 902.928 Q126.079 902.162 126.552 901.688 Q127.026 901.215 127.747 901.215 M149.998 900.809 Q150.179 900.809 150.9 901.012 Q151.599 901.215 152.681 901.711 Q153.741 902.184 154.732 902.838 Q155.724 903.492 156.423 904.574 Q157.122 905.633 157.122 906.851 Q157.122 908.497 156.04 909.579 Q154.958 910.638 153.335 910.638 Q152.455 910.638 149.637 909.579 Q141.431 906.513 141.093 906.4 Q139.808 905.881 138.681 905.881 Q138.163 905.881 137.847 905.994 Q137.509 906.107 137.396 906.332 Q137.261 906.558 137.238 906.693 Q137.216 906.806 137.216 907.031 Q137.216 908.361 138.568 909.601 Q139.921 910.841 142.942 911.698 Q143.505 911.878 143.641 911.991 Q143.776 912.104 143.776 912.442 Q143.753 913.005 143.303 913.005 Q143.167 913.005 142.649 912.848 Q142.108 912.69 141.296 912.397 Q140.462 912.104 139.605 911.585 Q138.726 911.067 137.96 910.435 Q137.193 909.782 136.697 908.857 Q136.201 907.933 136.201 906.896 Q136.201 905.205 137.306 904.168 Q138.388 903.109 139.989 903.109 Q140.868 903.109 142.423 903.717 Q144.452 904.461 145.106 904.732 L149.953 906.535 Q151.712 907.189 152.253 907.392 Q152.771 907.572 153.402 907.73 Q154.011 907.865 154.575 907.865 Q155.364 907.865 155.724 907.617 Q156.085 907.347 156.085 906.761 Q156.085 905.138 154.484 903.943 Q152.861 902.748 150.381 902.049 Q150.314 902.026 150.201 902.004 Q149.637 901.824 149.57 901.643 Q149.547 901.553 149.547 901.373 Q149.547 900.809 149.998 900.809 Z" fill="#000000" fill-rule="evenodd" fill-opacity="1" /><path clip-path="url(#clip410)" d="M 0 0 M149.592 884.429 Q149.029 884.384 149.029 883.505 L149.029 855.212 Q149.029 853.882 149.547 853.86 Q150.111 853.86 150.088 855.122 L150.088 883.189 Q150.111 884.429 149.592 884.429 M140.575 884.429 Q140.011 884.429 140.034 883.46 L140.034 855.257 Q140.034 853.882 140.575 853.86 Q141.093 853.86 141.093 855.032 L141.093 883.505 Q141.093 884.429 140.575 884.429 Z" fill="#000000" fill-rule="evenodd" fill-opacity="1" /><path clip-path="url(#clip410)" d="M 0 0 M130.25 836.048 L128.807 836.048 Q128.807 830.502 125.853 827.639 Q125.853 826.85 126.034 826.714 Q126.214 826.579 127.048 826.579 L152.951 826.579 Q154.327 826.579 154.755 825.903 Q155.183 825.226 155.183 822.273 L155.183 820.808 L156.604 820.808 Q156.468 822.431 156.468 828.292 Q156.468 834.154 156.604 835.754 L155.183 835.754 L155.183 834.289 Q155.183 831.381 154.778 830.682 Q154.349 829.983 152.951 829.983 L129.032 829.983 Q130.25 832.395 130.25 836.048 Z" fill="#000000" fill-rule="evenodd" fill-opacity="1" /><path clip-path="url(#clip410)" d="M 0 0 M22.7384 885.959 Q21.9042 885.959 21.6563 885.891 Q21.4083 885.801 21.025 885.44 L11.1507 876.581 Q5.69503 871.734 0.938226 871.734 Q-2.15032 871.734 -4.35964 873.357 Q-6.56896 874.957 -6.56896 877.911 Q-6.56896 879.94 -5.32903 881.653 Q-4.08911 883.366 -1.87979 884.155 Q-1.92487 884.02 -1.92487 883.547 Q-1.92487 882.397 -1.20346 881.766 Q-0.482052 881.112 0.487344 881.112 Q1.72727 881.112 2.33596 881.923 Q2.92211 882.713 2.92211 883.502 Q2.92211 883.817 2.85447 884.246 Q2.78684 884.651 2.15561 885.305 Q1.50183 885.959 0.352079 885.959 Q-2.87173 885.959 -5.44176 883.524 Q-8.01178 881.067 -8.01178 877.324 Q-8.01178 873.086 -5.48684 870.313 Q-2.98445 867.518 0.938226 867.518 Q2.31342 867.518 3.57589 867.946 Q4.81581 868.352 5.78521 868.916 Q6.7546 869.457 8.31015 870.945 Q9.86569 872.432 10.9704 873.627 Q12.075 874.822 14.4196 877.505 L19.1764 882.397 L19.1764 874.078 Q19.1764 870.02 18.8157 869.705 Q18.1619 869.254 14.7127 868.69 L14.7127 867.518 L22.7384 868.825 L22.7384 885.959 Z" fill="#000000" fill-rule="evenodd" fill-opacity="1" /><path clip-path="url(#clip410)" d="M 0 0 M7.97199 863.094 Q1.18621 863.094 -2.51102 861.381 Q-8.01178 858.991 -8.01178 853.355 Q-8.01178 852.16 -7.67362 850.92 Q-7.358 849.658 -6.11808 848.08 Q-4.87815 846.479 -2.84918 845.51 Q1.07349 843.661 7.97199 843.661 Q14.7127 843.661 18.3874 845.374 Q23.7529 847.877 23.7529 853.4 Q23.7529 855.474 22.6933 857.593 Q21.6337 859.69 19.0862 861.02 Q15.2763 863.094 7.97199 863.094 M7.40838 859.262 Q14.3745 859.262 17.1474 858.766 Q20.1458 858.202 21.4534 856.669 Q22.7384 855.113 22.7384 853.4 Q22.7384 851.551 21.3632 850.018 Q19.9654 848.463 16.9671 847.989 Q14.0138 847.471 7.40838 847.494 Q0.983314 847.494 -1.58671 847.944 Q-4.58508 848.553 -5.77992 850.176 Q-6.9973 851.777 -6.9973 853.4 Q-6.9973 854.009 -6.81695 854.663 Q-6.63659 855.294 -6.11808 856.218 Q-5.59956 857.142 -4.31455 857.864 Q-3.02954 858.563 -1.09074 858.901 Q1.41165 859.262 7.40838 859.262 Z" fill="#000000" fill-rule="evenodd" fill-opacity="1" /><path clip-path="url(#clip410)" d="M 0 0 M68.5295 768.829 Q68.5617 768.829 69.7212 769.022 L98.9963 776.365 Q100.542 776.752 102.088 777.847 Q103.666 778.91 105.019 780.616 Q106.404 782.291 107.241 784.868 Q108.111 787.412 108.111 790.343 Q108.111 795.013 107.112 797.074 Q106.146 799.103 104.085 799.103 Q102.281 799.103 101.251 797.975 Q100.252 796.848 100.252 795.56 Q100.252 794.336 100.961 793.692 Q101.669 793.048 102.571 793.048 Q103.57 793.048 104.568 793.724 Q105.598 794.401 105.985 795.753 Q106.661 793.595 106.661 790.471 Q106.661 783.869 99.6726 781.035 Q99.576 780.971 99.5438 780.971 L90.816 778.781 L90.7516 778.877 Q91.3957 779.425 92.1364 780.294 Q92.845 781.132 93.7145 782.935 Q94.5841 784.739 94.5841 786.51 Q94.5841 790.214 91.75 792.758 Q88.8836 795.27 84.1494 795.27 Q80.7034 795.27 77.2573 793.885 Q73.7791 792.468 71.2348 790.278 Q68.6584 788.056 67.0481 785.222 Q65.4378 782.356 65.4378 779.586 Q65.4378 777.654 66.5972 776.011 Q67.7244 774.369 69.5923 773.467 Q68.0464 773.306 67.4023 772.436 Q66.7582 771.534 66.7582 770.762 Q66.7582 769.892 67.2413 769.377 Q67.6922 768.829 68.5295 768.829 M72.5553 774.24 Q72.362 774.24 71.8467 774.369 Q71.2992 774.497 70.4297 774.884 Q69.5601 775.238 68.7872 775.786 Q68.0142 776.333 67.4667 777.331 Q66.887 778.298 66.887 779.521 Q66.887 781.518 68.5617 783.515 Q70.2042 785.512 72.7485 786.897 Q75.1961 788.185 79.9304 789.409 Q84.6647 790.6 87.0801 790.6 Q89.4633 790.6 91.2991 789.57 Q93.1348 788.539 93.1348 786.317 Q93.1348 783.74 90.7516 780.971 Q88.2717 778.104 86.1461 777.621 L73.5536 774.433 Q72.7807 774.24 72.5553 774.24 Z" fill="#000000" fill-rule="evenodd" fill-opacity="1" /><path clip-path="url(#clip410)" d="M 0 0 M97.257 750.288 Q98.2489 750.288 98.9929 751.099 Q99.7143 751.888 99.7143 752.745 Q99.7143 753.534 99.2409 754.03 Q98.7449 754.503 98.046 754.503 Q97.1217 754.503 96.3552 753.714 Q95.5887 752.925 95.5887 752.001 Q95.5887 751.235 96.0622 750.761 Q96.5356 750.288 97.257 750.288 M119.508 749.882 Q119.688 749.882 120.41 750.085 Q121.109 750.288 122.191 750.784 Q123.25 751.257 124.242 751.911 Q125.234 752.565 125.933 753.647 Q126.632 754.706 126.632 755.924 Q126.632 757.569 125.55 758.652 Q124.468 759.711 122.845 759.711 Q121.965 759.711 119.147 758.652 Q110.941 755.586 110.603 755.473 Q109.318 754.954 108.191 754.954 Q107.672 754.954 107.357 755.067 Q107.019 755.18 106.906 755.405 Q106.771 755.631 106.748 755.766 Q106.726 755.879 106.726 756.104 Q106.726 757.434 108.078 758.674 Q109.431 759.914 112.452 760.771 Q113.015 760.951 113.151 761.064 Q113.286 761.177 113.286 761.515 Q113.263 762.078 112.812 762.078 Q112.677 762.078 112.159 761.92 Q111.618 761.763 110.806 761.47 Q109.972 761.177 109.115 760.658 Q108.236 760.139 107.469 759.508 Q106.703 758.854 106.207 757.93 Q105.711 757.006 105.711 755.969 Q105.711 754.278 106.816 753.241 Q107.898 752.181 109.498 752.181 Q110.378 752.181 111.933 752.79 Q113.962 753.534 114.616 753.805 L119.463 755.608 Q121.221 756.262 121.762 756.465 Q122.281 756.645 122.912 756.803 Q123.521 756.938 124.084 756.938 Q124.874 756.938 125.234 756.69 Q125.595 756.42 125.595 755.834 Q125.595 754.21 123.994 753.016 Q122.371 751.821 119.891 751.122 Q119.824 751.099 119.711 751.077 Q119.147 750.896 119.08 750.716 Q119.057 750.626 119.057 750.446 Q119.057 749.882 119.508 749.882 Z" fill="#000000" fill-rule="evenodd" fill-opacity="1" /><path clip-path="url(#clip410)" d="M 0 0 M53.0268 762.078 Q45.2265 762.078 38.9367 759.17 Q36.2991 757.93 34.0898 756.194 Q31.8804 754.458 30.911 753.309 Q29.9416 752.159 29.9416 751.843 Q29.9416 751.392 30.3925 751.37 Q30.618 751.37 31.1816 751.979 Q38.7564 759.418 53.0268 759.396 Q67.3423 759.396 74.6241 752.159 Q75.4131 751.37 75.6611 751.37 Q76.112 751.37 76.112 751.843 Q76.112 752.159 75.1877 753.264 Q74.2634 754.368 72.1442 756.082 Q70.0251 757.795 67.4325 759.035 Q61.1427 762.078 53.0268 762.078 Z" fill="#000000" fill-rule="evenodd" fill-opacity="1" /><path clip-path="url(#clip410)" d="M 0 0 M64.5694 744.349 Q63.7353 744.349 63.4873 744.281 Q63.2393 744.191 62.856 743.831 L52.9817 734.971 Q47.526 730.124 42.7692 730.124 Q39.6807 730.124 37.4714 731.747 Q35.2621 733.348 35.2621 736.301 Q35.2621 738.33 36.502 740.043 Q37.7419 741.757 39.9512 742.546 Q39.9061 742.41 39.9061 741.937 Q39.9061 740.787 40.6276 740.156 Q41.349 739.502 42.3184 739.502 Q43.5583 739.502 44.167 740.314 Q44.7531 741.103 44.7531 741.892 Q44.7531 742.207 44.6855 742.636 Q44.6179 743.042 43.9866 743.695 Q43.3328 744.349 42.1831 744.349 Q38.9593 744.349 36.3893 741.914 Q33.8192 739.457 33.8192 735.715 Q33.8192 731.476 36.3442 728.703 Q38.8466 725.908 42.7692 725.908 Q44.1444 725.908 45.4069 726.336 Q46.6468 726.742 47.6162 727.306 Q48.5856 727.847 50.1412 729.335 Q51.6967 730.823 52.8014 732.017 Q53.906 733.212 56.2506 735.895 L61.0074 740.787 L61.0074 732.468 Q61.0074 728.41 60.6467 728.095 Q59.9929 727.644 56.5437 727.08 L56.5437 725.908 L64.5694 727.216 L64.5694 744.349 Z" fill="#000000" fill-rule="evenodd" fill-opacity="1" /><path clip-path="url(#clip410)" d="M 0 0 M75.6611 721.484 Q75.4356 721.484 74.872 720.898 Q67.2972 713.459 53.0268 713.459 Q38.7113 713.459 31.4746 720.605 Q30.6405 721.484 30.3925 721.484 Q29.9416 721.484 29.9416 721.033 Q29.9416 720.718 30.866 719.613 Q31.7903 718.486 33.9094 716.795 Q36.0286 715.082 38.6211 713.819 Q44.9109 710.776 53.0268 710.776 Q60.8271 710.776 67.1169 713.684 Q69.7545 714.924 71.9639 716.66 Q74.1732 718.396 75.1426 719.545 Q76.112 720.695 76.112 721.033 Q76.112 721.484 75.6611 721.484 Z" fill="#000000" fill-rule="evenodd" fill-opacity="1" /><path clip-path="url(#clip410)" d="M 0 0 M78.0947 696.715 Q66.9514 696.715 57.966 692.561 Q54.1979 690.789 51.0418 688.309 Q47.8856 685.829 46.5007 684.187 Q45.1159 682.544 45.1159 682.094 Q45.1159 681.449 45.76 681.417 Q46.082 681.417 46.8872 682.287 Q57.7084 692.915 78.0947 692.883 Q98.5454 692.883 108.948 682.544 Q110.075 681.417 110.429 681.417 Q111.073 681.417 111.073 682.094 Q111.073 682.544 109.753 684.123 Q108.433 685.701 105.405 688.148 Q102.378 690.596 98.6742 692.367 Q89.6888 696.715 78.0947 696.715 Z" fill="#000000" fill-rule="evenodd" fill-opacity="1" /><path clip-path="url(#clip410)" d="M 0 0 M67.7244 639.439 Q69.9788 639.439 69.9788 642.692 L69.9788 653.771 L92.5551 658.183 Q93.1348 658.28 93.4569 658.409 Q93.7789 658.505 94.3264 658.795 Q94.8417 659.053 95.0994 659.6 Q95.3892 660.116 95.3892 660.889 Q95.3892 661.855 94.8095 662.338 Q94.262 662.789 93.5857 662.789 Q93.167 662.789 91.1703 662.145 L69.9788 655.671 L69.9788 661.146 Q69.9788 666.299 75.0673 669.52 Q75.7436 670.035 75.8081 670.325 Q75.8403 670.454 75.8403 670.583 Q75.8403 670.937 75.6792 671.162 Q75.5182 671.355 75.3572 671.355 L75.1961 671.388 Q74.9707 671.388 74.0689 670.872 Q73.135 670.325 71.7501 669.359 Q70.3653 668.36 69.2703 667.362 Q67.8532 666.041 67.1125 664.56 Q66.3395 663.079 66.2429 662.338 Q66.1463 661.565 66.1463 660.566 L66.1463 642.08 Q66.1463 641.243 66.2107 640.792 Q66.2429 640.341 66.6294 639.89 Q66.9837 639.439 67.7244 639.439 Z" fill="#000000" fill-rule="evenodd" fill-opacity="1" /><path clip-path="url(#clip410)" d="M 0 0 M110.429 642.87 Q110.107 642.87 109.302 642.033 Q98.481 631.405 78.0947 631.405 Q57.644 631.405 47.3059 641.614 Q46.1143 642.87 45.76 642.87 Q45.1159 642.87 45.1159 642.226 Q45.1159 641.775 46.4363 640.197 Q47.7568 638.587 50.7841 636.172 Q53.8115 633.724 57.5151 631.92 Q66.5006 627.573 78.0947 627.573 Q89.2379 627.573 98.2233 631.727 Q101.991 633.499 105.148 635.978 Q108.304 638.458 109.689 640.101 Q111.073 641.743 111.073 642.226 Q111.073 642.87 110.429 642.87 Z" fill="#000000" fill-rule="evenodd" fill-opacity="1" /><path clip-path="url(#clip410)" d="M 0 0 M472.763 14.0809 L472.763 22.0612 Q468.104 19.8332 463.972 18.7395 Q459.84 17.6457 455.992 17.6457 Q449.308 17.6457 445.662 20.2383 Q442.057 22.8309 442.057 27.611 Q442.057 31.6214 444.447 33.6873 Q446.877 35.7128 453.602 36.9686 L458.544 37.9813 Q467.699 39.7232 472.034 44.1387 Q476.409 48.5136 476.409 55.8863 Q476.409 64.6767 470.494 69.2137 Q464.62 73.7508 453.237 73.7508 Q448.943 73.7508 444.082 72.7785 Q439.262 71.8063 434.077 69.9024 L434.077 61.4765 Q439.059 64.2716 443.839 65.6895 Q448.619 67.1073 453.237 67.1073 Q460.245 67.1073 464.053 64.3527 Q467.861 61.598 467.861 56.4939 Q467.861 52.0379 465.107 49.5264 Q462.392 47.0148 456.154 45.759 L451.171 44.7868 Q442.016 42.9639 437.925 39.075 Q433.834 35.1862 433.834 28.2591 Q433.834 20.2383 439.464 15.6203 Q445.136 11.0023 455.06 11.0023 Q459.314 11.0023 463.729 11.7719 Q468.145 12.5416 472.763 14.0809 Z" fill="#000000" fill-rule="evenodd" fill-opacity="1" /><path clip-path="url(#clip410)" d="M 0 0 M488.075 54.671 L488.075 27.2059 L495.529 27.2059 L495.529 54.3874 Q495.529 60.8284 498.04 64.0691 Q500.552 67.2693 505.575 67.2693 Q511.611 67.2693 515.095 63.421 Q518.619 59.5726 518.619 52.9291 L518.619 27.2059 L526.073 27.2059 L526.073 72.576 L518.619 72.576 L518.619 65.6084 Q515.905 69.7404 512.3 71.7658 Q508.735 73.7508 503.995 73.7508 Q496.177 73.7508 492.126 68.8897 Q488.075 64.0286 488.075 54.671 M506.831 26.1121 L506.831 26.1121 Z" fill="#000000" fill-rule="evenodd" fill-opacity="1" /><path clip-path="url(#clip410)" d="M 0 0 M576.749 35.9153 Q579.545 30.8922 583.433 28.5022 Q587.322 26.1121 592.589 26.1121 Q599.678 26.1121 603.526 31.0947 Q607.374 36.0368 607.374 45.1919 L607.374 72.576 L599.88 72.576 L599.88 45.4349 Q599.88 38.913 597.571 35.7533 Q595.262 32.5936 590.523 32.5936 Q584.73 32.5936 581.368 36.4419 Q578.005 40.2903 578.005 46.9338 L578.005 72.576 L570.511 72.576 L570.511 45.4349 Q570.511 38.8725 568.202 35.7533 Q565.893 32.5936 561.072 32.5936 Q555.361 32.5936 551.998 36.4824 Q548.636 40.3308 548.636 46.9338 L548.636 72.576 L541.142 72.576 L541.142 27.2059 L548.636 27.2059 L548.636 34.2544 Q551.188 30.082 554.753 28.0971 Q558.318 26.1121 563.219 26.1121 Q568.162 26.1121 571.605 28.6237 Q575.089 31.1352 576.749 35.9153 Z" fill="#000000" fill-rule="evenodd" fill-opacity="1" /><path clip-path="url(#clip410)" d="M 0 0 M666.193 32.4315 Q660.198 32.4315 656.714 37.1306 Q653.231 41.7891 653.231 49.9314 Q653.231 58.0738 656.674 62.7728 Q660.158 67.4314 666.193 67.4314 Q672.148 67.4314 675.632 62.7323 Q679.116 58.0333 679.116 49.9314 Q679.116 41.8701 675.632 37.1711 Q672.148 32.4315 666.193 32.4315 M666.193 26.1121 Q675.916 26.1121 681.465 32.4315 Q687.015 38.7509 687.015 49.9314 Q687.015 61.0714 681.465 67.4314 Q675.916 73.7508 666.193 73.7508 Q656.431 73.7508 650.881 67.4314 Q645.372 61.0714 645.372 49.9314 Q645.372 38.7509 650.881 32.4315 Q656.431 26.1121 666.193 26.1121 Z" fill="#000000" fill-rule="evenodd" fill-opacity="1" /><path clip-path="url(#clip410)" d="M 0 0 M722.339 9.54393 L722.339 15.7418 L715.209 15.7418 Q711.199 15.7418 709.619 17.3622 Q708.08 18.9825 708.08 23.1955 L708.08 27.2059 L720.354 27.2059 L720.354 32.9987 L708.08 32.9987 L708.08 72.576 L700.586 72.576 L700.586 32.9987 L693.456 32.9987 L693.456 27.2059 L700.586 27.2059 L700.586 24.0462 Q700.586 16.471 704.11 13.0277 Q707.634 9.54393 715.29 9.54393 L722.339 9.54393 Z" fill="#000000" fill-rule="evenodd" fill-opacity="1" /><path clip-path="url(#clip410)" d="M 0 0 M763.456 18.8205 L763.456 41.5461 L773.745 41.5461 Q779.457 41.5461 782.576 38.5889 Q785.695 35.6318 785.695 30.163 Q785.695 24.7348 782.576 21.7777 Q779.457 18.8205 773.745 18.8205 L763.456 18.8205 M755.273 12.096 L773.745 12.096 Q783.913 12.096 789.098 16.714 Q794.324 21.2916 794.324 30.163 Q794.324 39.1155 789.098 43.6931 Q783.913 48.2706 773.745 48.2706 L763.456 48.2706 L763.456 72.576 L755.273 72.576 L755.273 12.096 Z" fill="#000000" fill-rule="evenodd" fill-opacity="1" /><path clip-path="url(#clip410)" d="M 0 0 M842.691 45.1919 L842.691 72.576 L835.238 72.576 L835.238 45.4349 Q835.238 38.994 832.726 35.7938 Q830.215 32.5936 825.191 32.5936 Q819.156 32.5936 815.672 36.4419 Q812.188 40.2903 812.188 46.9338 L812.188 72.576 L804.694 72.576 L804.694 9.54393 L812.188 9.54393 L812.188 34.2544 Q814.862 30.163 818.467 28.1376 Q822.113 26.1121 826.852 26.1121 Q834.671 26.1121 838.681 30.9732 Q842.691 35.7938 842.691 45.1919 Z" fill="#000000" fill-rule="evenodd" fill-opacity="1" /><path clip-path="url(#clip410)" d="M 0 0 M875.139 32.4315 Q869.144 32.4315 865.66 37.1306 Q862.176 41.7891 862.176 49.9314 Q862.176 58.0738 865.619 62.7728 Q869.103 67.4314 875.139 67.4314 Q881.094 67.4314 884.578 62.7323 Q888.061 58.0333 888.061 49.9314 Q888.061 41.8701 884.578 37.1711 Q881.094 32.4315 875.139 32.4315 M875.139 26.1121 Q884.861 26.1121 890.411 32.4315 Q895.961 38.7509 895.961 49.9314 Q895.961 61.0714 890.411 67.4314 Q884.861 73.7508 875.139 73.7508 Q865.376 73.7508 859.827 67.4314 Q854.317 61.0714 854.317 49.9314 Q854.317 38.7509 859.827 32.4315 Q865.376 26.1121 875.139 26.1121 Z" fill="#000000" fill-rule="evenodd" fill-opacity="1" /><path clip-path="url(#clip410)" d="M 0 0 M915.689 14.324 L915.689 27.2059 L931.042 27.2059 L931.042 32.9987 L915.689 32.9987 L915.689 57.6282 Q915.689 63.1779 917.187 64.7578 Q918.727 66.3376 923.385 66.3376 L931.042 66.3376 L931.042 72.576 L923.385 72.576 Q914.757 72.576 911.476 69.3758 Q908.194 66.1351 908.194 57.6282 L908.194 32.9987 L902.726 32.9987 L902.726 27.2059 L908.194 27.2059 L908.194 14.324 L915.689 14.324 Z" fill="#000000" fill-rule="evenodd" fill-opacity="1" /><path clip-path="url(#clip410)" d="M 0 0 M958.426 32.4315 Q952.43 32.4315 948.947 37.1306 Q945.463 41.7891 945.463 49.9314 Q945.463 58.0738 948.906 62.7728 Q952.39 67.4314 958.426 67.4314 Q964.381 67.4314 967.864 62.7323 Q971.348 58.0333 971.348 49.9314 Q971.348 41.8701 967.864 37.1711 Q964.381 32.4315 958.426 32.4315 M958.426 26.1121 Q968.148 26.1121 973.698 32.4315 Q979.247 38.7509 979.247 49.9314 Q979.247 61.0714 973.698 67.4314 Q968.148 73.7508 958.426 73.7508 Q948.663 73.7508 943.113 67.4314 Q937.604 61.0714 937.604 49.9314 Q937.604 38.7509 943.113 32.4315 Q948.663 26.1121 958.426 26.1121 Z" fill="#000000" fill-rule="evenodd" fill-opacity="1" /><path clip-path="url(#clip410)" d="M 0 0 M1029.32 45.1919 L1029.32 72.576 L1021.86 72.576 L1021.86 45.4349 Q1021.86 38.994 1019.35 35.7938 Q1016.84 32.5936 1011.82 32.5936 Q1005.78 32.5936 1002.3 36.4419 Q998.813 40.2903 998.813 46.9338 L998.813 72.576 L991.319 72.576 L991.319 27.2059 L998.813 27.2059 L998.813 34.2544 Q1001.49 30.163 1005.09 28.1376 Q1008.74 26.1121 1013.48 26.1121 Q1021.3 26.1121 1025.31 30.9732 Q1029.32 35.7938 1029.32 45.1919 Z" fill="#000000" fill-rule="evenodd" fill-opacity="1" /><path clip-path="url(#clip410)" d="M 0 0 M1116.17 16.7545 L1116.17 25.383 Q1112.04 21.5346 1107.34 19.6307 Q1102.68 17.7268 1097.41 17.7268 Q1087.04 17.7268 1081.53 24.0867 Q1076.02 30.4061 1076.02 42.3968 Q1076.02 54.3469 1081.53 60.7069 Q1087.04 67.0263 1097.41 67.0263 Q1102.68 67.0263 1107.34 65.1223 Q1112.04 63.2184 1116.17 59.3701 L1116.17 67.9175 Q1111.87 70.8341 1107.05 72.2924 Q1102.27 73.7508 1096.93 73.7508 Q1083.19 73.7508 1075.29 65.3654 Q1067.4 56.9395 1067.4 42.3968 Q1067.4 27.8135 1075.29 19.4281 Q1083.19 11.0023 1096.93 11.0023 Q1102.35 11.0023 1107.13 12.4606 Q1111.95 13.8784 1116.17 16.7545 Z" fill="#000000" fill-rule="evenodd" fill-opacity="1" /><path clip-path="url(#clip410)" d="M 0 0 M1146.06 32.4315 Q1140.07 32.4315 1136.58 37.1306 Q1133.1 41.7891 1133.1 49.9314 Q1133.1 58.0738 1136.54 62.7728 Q1140.03 67.4314 1146.06 67.4314 Q1152.02 67.4314 1155.5 62.7323 Q1158.99 58.0333 1158.99 49.9314 Q1158.99 41.8701 1155.5 37.1711 Q1152.02 32.4315 1146.06 32.4315 M1146.06 26.1121 Q1155.79 26.1121 1161.34 32.4315 Q1166.89 38.7509 1166.89 49.9314 Q1166.89 61.0714 1161.34 67.4314 Q1155.79 73.7508 1146.06 73.7508 Q1136.3 73.7508 1130.75 67.4314 Q1125.24 61.0714 1125.24 49.9314 Q1125.24 38.7509 1130.75 32.4315 Q1136.3 26.1121 1146.06 26.1121 Z" fill="#000000" fill-rule="evenodd" fill-opacity="1" /><path clip-path="url(#clip410)" d="M 0 0 M1205.53 34.1734 Q1204.28 33.4443 1202.78 33.1202 Q1201.32 32.7556 1199.54 32.7556 Q1193.22 32.7556 1189.81 36.8875 Q1186.45 40.9789 1186.45 48.6757 L1186.45 72.576 L1178.96 72.576 L1178.96 27.2059 L1186.45 27.2059 L1186.45 34.2544 Q1188.8 30.1225 1192.57 28.1376 Q1196.34 26.1121 1201.72 26.1121 Q1202.49 26.1121 1203.42 26.2337 Q1204.36 26.3147 1205.49 26.5172 L1205.53 34.1734 Z" fill="#000000" fill-rule="evenodd" fill-opacity="1" /><path clip-path="url(#clip410)" d="M 0 0 M1238.18 34.1734 Q1236.93 33.4443 1235.43 33.1202 Q1233.97 32.7556 1232.19 32.7556 Q1225.87 32.7556 1222.46 36.8875 Q1219.1 40.9789 1219.1 48.6757 L1219.1 72.576 L1211.61 72.576 L1211.61 27.2059 L1219.1 27.2059 L1219.1 34.2544 Q1221.45 30.1225 1225.22 28.1376 Q1228.99 26.1121 1234.37 26.1121 Q1235.14 26.1121 1236.07 26.2337 Q1237.01 26.3147 1238.14 26.5172 L1238.18 34.1734 Z" fill="#000000" fill-rule="evenodd" fill-opacity="1" /><path clip-path="url(#clip410)" d="M 0 0 M1282.98 48.0275 L1282.98 51.6733 L1248.71 51.6733 Q1249.2 59.3701 1253.33 63.421 Q1257.5 67.4314 1264.92 67.4314 Q1269.21 67.4314 1273.22 66.3781 Q1277.27 65.3249 1281.24 63.2184 L1281.24 70.267 Q1277.23 71.9684 1273.02 72.8596 Q1268.81 73.7508 1264.47 73.7508 Q1253.62 73.7508 1247.26 67.4314 Q1240.94 61.1119 1240.94 50.3365 Q1240.94 39.1965 1246.93 32.6746 Q1252.97 26.1121 1263.18 26.1121 Q1272.33 26.1121 1277.64 32.0264 Q1282.98 37.9003 1282.98 48.0275 M1275.53 45.84 Q1275.45 39.7232 1272.09 36.0774 Q1268.77 32.4315 1263.26 32.4315 Q1257.02 32.4315 1253.25 35.9558 Q1249.52 39.4801 1248.96 45.8805 L1275.53 45.84 Z" fill="#000000" fill-rule="evenodd" fill-opacity="1" /><path clip-path="url(#clip410)" d="M 0 0 M1295.22 9.54393 L1302.67 9.54393 L1302.67 72.576 L1295.22 72.576 L1295.22 9.54393 Z" fill="#000000" fill-rule="evenodd" fill-opacity="1" /><path clip-path="url(#clip410)" d="M 0 0 M1338.89 49.7694 Q1329.85 49.7694 1326.37 51.8354 Q1322.89 53.9013 1322.89 58.8839 Q1322.89 62.8538 1325.48 65.2034 Q1328.11 67.5124 1332.61 67.5124 Q1338.81 67.5124 1342.53 63.1374 Q1346.3 58.7219 1346.3 51.4303 L1346.3 49.7694 L1338.89 49.7694 M1353.75 46.6907 L1353.75 72.576 L1346.3 72.576 L1346.3 65.6895 Q1343.75 69.8214 1339.94 71.8063 Q1336.13 73.7508 1330.62 73.7508 Q1323.66 73.7508 1319.52 69.8619 Q1315.43 65.9325 1315.43 59.3701 Q1315.43 51.7138 1320.54 47.825 Q1325.68 43.9361 1335.85 43.9361 L1346.3 43.9361 L1346.3 43.2069 Q1346.3 38.0623 1342.9 35.2672 Q1339.53 32.4315 1333.42 32.4315 Q1329.53 32.4315 1325.84 33.3632 Q1322.16 34.295 1318.75 36.1584 L1318.75 29.2718 Q1322.85 27.692 1326.69 26.9223 Q1330.54 26.1121 1334.19 26.1121 Q1344.03 26.1121 1348.89 31.2163 Q1353.75 36.3204 1353.75 46.6907 Z" fill="#000000" fill-rule="evenodd" fill-opacity="1" /><path clip-path="url(#clip410)" d="M 0 0 M1376.48 14.324 L1376.48 27.2059 L1391.83 27.2059 L1391.83 32.9987 L1376.48 32.9987 L1376.48 57.6282 Q1376.48 63.1779 1377.98 64.7578 Q1379.52 66.3376 1384.18 66.3376 L1391.83 66.3376 L1391.83 72.576 L1384.18 72.576 Q1375.55 72.576 1372.27 69.3758 Q1368.98 66.1351 1368.98 57.6282 L1368.98 32.9987 L1363.52 32.9987 L1363.52 27.2059 L1368.98 27.2059 L1368.98 14.324 L1376.48 14.324 Z" fill="#000000" fill-rule="evenodd" fill-opacity="1" /><path clip-path="url(#clip410)" d="M 0 0 M1401.64 27.2059 L1409.09 27.2059 L1409.09 72.576 L1401.64 72.576 L1401.64 27.2059 M1401.64 9.54393 L1409.09 9.54393 L1409.09 18.9825 L1401.64 18.9825 L1401.64 9.54393 Z" fill="#000000" fill-rule="evenodd" fill-opacity="1" /><path clip-path="url(#clip410)" d="M 0 0 M1442.27 32.4315 Q1436.27 32.4315 1432.79 37.1306 Q1429.3 41.7891 1429.3 49.9314 Q1429.3 58.0738 1432.75 62.7728 Q1436.23 67.4314 1442.27 67.4314 Q1448.22 67.4314 1451.7 62.7323 Q1455.19 58.0333 1455.19 49.9314 Q1455.19 41.8701 1451.7 37.1711 Q1448.22 32.4315 1442.27 32.4315 M1442.27 26.1121 Q1451.99 26.1121 1457.54 32.4315 Q1463.09 38.7509 1463.09 49.9314 Q1463.09 61.0714 1457.54 67.4314 Q1451.99 73.7508 1442.27 73.7508 Q1432.5 73.7508 1426.95 67.4314 Q1421.44 61.0714 1421.44 49.9314 Q1421.44 38.7509 1426.95 32.4315 Q1432.5 26.1121 1442.27 26.1121 Z" fill="#000000" fill-rule="evenodd" fill-opacity="1" /><path clip-path="url(#clip410)" d="M 0 0 M1513.16 45.1919 L1513.16 72.576 L1505.7 72.576 L1505.7 45.4349 Q1505.7 38.994 1503.19 35.7938 Q1500.68 32.5936 1495.66 32.5936 Q1489.62 32.5936 1486.14 36.4419 Q1482.65 40.2903 1482.65 46.9338 L1482.65 72.576 L1475.16 72.576 L1475.16 27.2059 L1482.65 27.2059 L1482.65 34.2544 Q1485.33 30.163 1488.93 28.1376 Q1492.58 26.1121 1497.32 26.1121 Q1505.14 26.1121 1509.15 30.9732 Q1513.16 35.7938 1513.16 45.1919 Z" fill="#000000" fill-rule="evenodd" fill-opacity="1" /><path clip-path="url(#clip410)" d="M 0 0 M1556.95 28.5427 L1556.95 35.5912 Q1553.79 33.9709 1550.38 33.1607 Q1546.98 32.3505 1543.34 32.3505 Q1537.79 32.3505 1534.99 34.0519 Q1532.24 35.7533 1532.24 39.156 Q1532.24 41.7486 1534.22 43.2475 Q1536.21 44.7058 1542.2 46.0426 L1544.75 46.6097 Q1552.69 48.3111 1556.02 51.4303 Q1559.38 54.509 1559.38 60.0587 Q1559.38 66.3781 1554.35 70.0644 Q1549.37 73.7508 1540.62 73.7508 Q1536.98 73.7508 1533.01 73.0216 Q1529.08 72.3329 1524.7 70.9151 L1524.7 63.2184 Q1528.83 65.3654 1532.84 66.4591 Q1536.85 67.5124 1540.78 67.5124 Q1546.05 67.5124 1548.89 65.73 Q1551.72 63.9071 1551.72 60.6258 Q1551.72 57.5877 1549.66 55.9673 Q1547.63 54.3469 1540.7 52.8481 L1538.11 52.2405 Q1531.18 50.7821 1528.1 47.7845 Q1525.03 44.7463 1525.03 39.4801 Q1525.03 33.0797 1529.56 29.5959 Q1534.1 26.1121 1542.44 26.1121 Q1546.58 26.1121 1550.22 26.7198 Q1553.87 27.3274 1556.95 28.5427 Z" fill="#000000" fill-rule="evenodd" fill-opacity="1" /><path clip-path="url(#clip410)" d="M 0 0 M1592.27 27.2059 L1600.17 27.2059 L1614.35 65.2844 L1628.53 27.2059 L1636.43 27.2059 L1619.41 72.576 L1609.28 72.576 L1592.27 27.2059 Z" fill="#000000" fill-rule="evenodd" fill-opacity="1" /><path clip-path="url(#clip410)" d="M 0 0 M1675.64 28.5427 L1675.64 35.5912 Q1672.48 33.9709 1669.08 33.1607 Q1665.67 32.3505 1662.03 32.3505 Q1656.48 32.3505 1653.68 34.0519 Q1650.93 35.7533 1650.93 39.156 Q1650.93 41.7486 1652.91 43.2475 Q1654.9 44.7058 1660.89 46.0426 L1663.45 46.6097 Q1671.38 48.3111 1674.71 51.4303 Q1678.07 54.509 1678.07 60.0587 Q1678.07 66.3781 1673.05 70.0644 Q1668.06 73.7508 1659.31 73.7508 Q1655.67 73.7508 1651.7 73.0216 Q1647.77 72.3329 1643.39 70.9151 L1643.39 63.2184 Q1647.52 65.3654 1651.54 66.4591 Q1655.55 67.5124 1659.48 67.5124 Q1664.74 67.5124 1667.58 65.73 Q1670.41 63.9071 1670.41 60.6258 Q1670.41 57.5877 1668.35 55.9673 Q1666.32 54.3469 1659.39 52.8481 L1656.8 52.2405 Q1649.87 50.7821 1646.8 47.7845 Q1643.72 44.7463 1643.72 39.4801 Q1643.72 33.0797 1648.25 29.5959 Q1652.79 26.1121 1661.14 26.1121 Q1665.27 26.1121 1668.91 26.7198 Q1672.56 27.3274 1675.64 28.5427 Z" fill="#000000" fill-rule="evenodd" fill-opacity="1" /><path clip-path="url(#clip410)" d="M 0 0 M1708.25 12.096 L1759.41 12.096 L1759.41 18.9825 L1737.94 18.9825 L1737.94 72.576 L1729.72 72.576 L1729.72 18.9825 L1708.25 18.9825 L1708.25 12.096 Z" fill="#000000" fill-rule="evenodd" fill-opacity="1" /><path clip-path="url(#clip410)" d="M 0 0 M1764.43 27.2059 L1771.89 27.2059 L1771.89 72.576 L1764.43 72.576 L1764.43 27.2059 M1764.43 9.54393 L1771.89 9.54393 L1771.89 18.9825 L1764.43 18.9825 L1764.43 9.54393 Z" fill="#000000" fill-rule="evenodd" fill-opacity="1" /><path clip-path="url(#clip410)" d="M 0 0 M1822.81 35.9153 Q1825.6 30.8922 1829.49 28.5022 Q1833.38 26.1121 1838.65 26.1121 Q1845.74 26.1121 1849.58 31.0947 Q1853.43 36.0368 1853.43 45.1919 L1853.43 72.576 L1845.94 72.576 L1845.94 45.4349 Q1845.94 38.913 1843.63 35.7533 Q1841.32 32.5936 1836.58 32.5936 Q1830.79 32.5936 1827.43 36.4419 Q1824.06 40.2903 1824.06 46.9338 L1824.06 72.576 L1816.57 72.576 L1816.57 45.4349 Q1816.57 38.8725 1814.26 35.7533 Q1811.95 32.5936 1807.13 32.5936 Q1801.42 32.5936 1798.06 36.4824 Q1794.69 40.3308 1794.69 46.9338 L1794.69 72.576 L1787.2 72.576 L1787.2 27.2059 L1794.69 27.2059 L1794.69 34.2544 Q1797.25 30.082 1800.81 28.0971 Q1804.38 26.1121 1809.28 26.1121 Q1814.22 26.1121 1817.66 28.6237 Q1821.15 31.1352 1822.81 35.9153 Z" fill="#000000" fill-rule="evenodd" fill-opacity="1" /><path clip-path="url(#clip410)" d="M 0 0 M1907.11 48.0275 L1907.11 51.6733 L1872.84 51.6733 Q1873.32 59.3701 1877.45 63.421 Q1881.63 67.4314 1889.04 67.4314 Q1893.33 67.4314 1897.34 66.3781 Q1901.4 65.3249 1905.37 63.2184 L1905.37 70.267 Q1901.35 71.9684 1897.14 72.8596 Q1892.93 73.7508 1888.59 73.7508 Q1877.74 73.7508 1871.38 67.4314 Q1865.06 61.1119 1865.06 50.3365 Q1865.06 39.1965 1871.05 32.6746 Q1877.09 26.1121 1887.3 26.1121 Q1896.45 26.1121 1901.76 32.0264 Q1907.11 37.9003 1907.11 48.0275 M1899.65 45.84 Q1899.57 39.7232 1896.21 36.0774 Q1892.89 32.4315 1887.38 32.4315 Q1881.14 32.4315 1877.37 35.9558 Q1873.65 39.4801 1873.08 45.8805 L1899.65 45.84 Z" fill="#000000" fill-rule="evenodd" fill-opacity="1" /><path clip-path="url(#clip410)" d="M 0 0 M1970.58 17.6457 Q1961.67 17.6457 1956.41 24.2892 Q1951.18 30.9327 1951.18 42.3968 Q1951.18 53.8203 1956.41 60.4638 Q1961.67 67.1073 1970.58 67.1073 Q1979.5 67.1073 1984.68 60.4638 Q1989.91 53.8203 1989.91 42.3968 Q1989.91 30.9327 1984.68 24.2892 Q1979.5 17.6457 1970.58 17.6457 M1970.58 11.0023 Q1983.3 11.0023 1990.92 19.5497 Q1998.54 28.0566 1998.54 42.3968 Q1998.54 56.6965 1990.92 65.2439 Q1983.3 73.7508 1970.58 73.7508 Q1957.82 73.7508 1950.17 65.2439 Q1942.55 56.737 1942.55 42.3968 Q1942.55 28.0566 1950.17 19.5497 Q1957.82 11.0023 1970.58 11.0023 Z" fill="#000000" fill-rule="evenodd" fill-opacity="1" /><path clip-path="url(#clip410)" d="M 0 0 M2033.98 9.54393 L2033.98 15.7418 L2026.85 15.7418 Q2022.84 15.7418 2021.26 17.3622 Q2019.72 18.9825 2019.72 23.1955 L2019.72 27.2059 L2032 27.2059 L2032 32.9987 L2019.72 32.9987 L2019.72 72.576 L2012.23 72.576 L2012.23 32.9987 L2005.1 32.9987 L2005.1 27.2059 L2012.23 27.2059 L2012.23 24.0462 Q2012.23 16.471 2015.75 13.0277 Q2019.28 9.54393 2026.93 9.54393 L2033.98 9.54393 Z" fill="#000000" fill-rule="evenodd" fill-opacity="1" /><path clip-path="url(#clip410)" d="M 0 0 M2063.19 9.54393 L2063.19 15.7418 L2056.06 15.7418 Q2052.05 15.7418 2050.47 17.3622 Q2048.93 18.9825 2048.93 23.1955 L2048.93 27.2059 L2061.2 27.2059 L2061.2 32.9987 L2048.93 32.9987 L2048.93 72.576 L2041.43 72.576 L2041.43 32.9987 L2034.31 32.9987 L2034.31 27.2059 L2041.43 27.2059 L2041.43 24.0462 Q2041.43 16.471 2044.96 13.0277 Q2048.48 9.54393 2056.14 9.54393 L2063.19 9.54393 Z" fill="#000000" fill-rule="evenodd" fill-opacity="1" /><path clip-path="url(#clip410)" d="M 0 0 M2098.35 28.5427 L2098.35 35.5912 Q2095.19 33.9709 2091.79 33.1607 Q2088.38 32.3505 2084.74 32.3505 Q2079.19 32.3505 2076.39 34.0519 Q2073.64 35.7533 2073.64 39.156 Q2073.64 41.7486 2075.62 43.2475 Q2077.61 44.7058 2083.6 46.0426 L2086.16 46.6097 Q2094.1 48.3111 2097.42 51.4303 Q2100.78 54.509 2100.78 60.0587 Q2100.78 66.3781 2095.76 70.0644 Q2090.77 73.7508 2082.02 73.7508 Q2078.38 73.7508 2074.41 73.0216 Q2070.48 72.3329 2066.1 70.9151 L2066.1 63.2184 Q2070.24 65.3654 2074.25 66.4591 Q2078.26 67.5124 2082.19 67.5124 Q2087.45 67.5124 2090.29 65.73 Q2093.12 63.9071 2093.12 60.6258 Q2093.12 57.5877 2091.06 55.9673 Q2089.03 54.3469 2082.11 52.8481 L2079.51 52.2405 Q2072.59 50.7821 2069.51 47.7845 Q2066.43 44.7463 2066.43 39.4801 Q2066.43 33.0797 2070.97 29.5959 Q2075.5 26.1121 2083.85 26.1121 Q2087.98 26.1121 2091.63 26.7198 Q2095.27 27.3274 2098.35 28.5427 Z" fill="#000000" fill-rule="evenodd" fill-opacity="1" /><path clip-path="url(#clip410)" d="M 0 0 M2151.46 48.0275 L2151.46 51.6733 L2117.19 51.6733 Q2117.67 59.3701 2121.8 63.421 Q2125.98 67.4314 2133.39 67.4314 Q2137.68 67.4314 2141.69 66.3781 Q2145.75 65.3249 2149.72 63.2184 L2149.72 70.267 Q2145.71 71.9684 2141.49 72.8596 Q2137.28 73.7508 2132.94 73.7508 Q2122.09 73.7508 2115.73 67.4314 Q2109.41 61.1119 2109.41 50.3365 Q2109.41 39.1965 2115.4 32.6746 Q2121.44 26.1121 2131.65 26.1121 Q2140.8 26.1121 2146.11 32.0264 Q2151.46 37.9003 2151.46 48.0275 M2144 45.84 Q2143.92 39.7232 2140.56 36.0774 Q2137.24 32.4315 2131.73 32.4315 Q2125.49 32.4315 2121.72 35.9558 Q2118 39.4801 2117.43 45.8805 L2144 45.84 Z" fill="#000000" fill-rule="evenodd" fill-opacity="1" /><path clip-path="url(#clip410)" d="M 0 0 M2171.06 14.324 L2171.06 27.2059 L2186.42 27.2059 L2186.42 32.9987 L2171.06 32.9987 L2171.06 57.6282 Q2171.06 63.1779 2172.56 64.7578 Q2174.1 66.3376 2178.76 66.3376 L2186.42 66.3376 L2186.42 72.576 L2178.76 72.576 Q2170.13 72.576 2166.85 69.3758 Q2163.57 66.1351 2163.57 57.6282 L2163.57 32.9987 L2158.1 32.9987 L2158.1 27.2059 L2163.57 27.2059 L2163.57 14.324 L2171.06 14.324 Z" fill="#000000" fill-rule="evenodd" fill-opacity="1" /><polyline clip-path="url(#clip413)" style="stroke:#009af9; stroke-width:4; stroke-opacity:1; fill:none" points="
  326.511,160.369 328.48,1098.81 330.45,1337.55 332.419,1367.93 334.388,1360.17 336.357,1346.48 338.326,1343.47 340.296,1360.85 342.265,1345.75 344.234,1333.45 
  346.203,1347.7 348.172,1356.92 350.142,1376.6 352.111,1354.53 354.08,1360.25 356.049,1354.18 358.018,1357.26 359.988,1344.09 361.957,1349.08 363.926,1343.13 
  365.895,1338.53 367.864,1358.2 369.834,1366.63 371.803,1362.47 373.772,1352.71 375.741,1341.33 377.71,1364.88 379.68,1370.71 381.649,1357.55 383.618,1341.74 
  385.587,1346.85 387.556,1329.29 389.526,1331.25 391.495,1327.87 393.464,1334.22 395.433,1337.84 397.402,1340.96 399.372,1354.64 401.341,1355.16 403.31,1320.92 
  405.279,1351.1 407.248,1353.49 409.218,1357.84 411.187,1358.33 413.156,1361.4 415.125,1376.31 417.094,1362.25 419.064,1355.88 421.033,1352.06 423.002,1358.52 
  424.971,1341.31 426.94,1353.38 428.91,1377.94 430.879,1366.31 432.848,1362.11 434.817,1358.7 436.786,1361.27 438.756,1370.69 440.725,1352.41 442.694,1348.66 
  444.663,1343.12 446.632,1343.91 448.602,1356.06 450.571,1352.49 452.54,1346.41 454.509,1349.9 456.478,1331.41 458.447,1342.03 460.417,1339.57 462.386,1339.55 
  464.355,1346.08 466.324,1341.18 468.293,1353.5 470.263,1340.51 472.232,1358.41 474.201,1362.58 476.17,1355.09 478.139,1353.43 480.109,1352.79 482.078,1347.41 
  484.047,1364.25 486.016,1363.18 487.985,1367.44 489.955,1364.48 491.924,1360.25 493.893,1358.65 495.862,1352.89 497.831,1372.43 499.801,1351.32 501.77,1356.24 
  503.739,1367.55 505.708,1357.61 507.677,1353.59 509.647,1355.51 511.616,1358.25 513.585,1338.4 515.554,1350.19 517.523,1340.45 519.493,1357.87 521.462,1349.98 
  523.431,1337.76 525.4,1337.6 527.369,1335.51 529.339,1359.52 531.308,1351.37 533.277,1340.8 535.246,1341.19 537.215,1355.74 539.185,1351.93 541.154,1358.95 
  543.123,1355.5 545.092,1358.36 547.061,1356.99 549.031,1369.15 551,1355.79 552.969,1349.81 554.938,1354.2 556.907,1370.63 558.877,1369.6 560.846,1369.94 
  562.815,1363.28 564.784,1366.27 566.753,1368.28 568.723,1363.86 570.692,1363.42 572.661,1348.92 574.63,1345.47 576.599,1345.51 578.569,1339.8 580.538,1358.06 
  582.507,1356.94 584.476,1362.19 586.445,1347.17 588.414,1335.35 590.384,1344.17 592.353,1343.53 594.322,1342.73 596.291,1333.24 598.26,1338.5 600.23,1355.79 
  602.199,1344.94 604.168,1352.83 606.137,1358.79 608.106,1353.66 610.076,1362.32 612.045,1352.82 614.014,1354.48 615.983,1370.39 617.952,1377.48 619.922,1370.63 
  621.891,1343.32 623.86,1345.7 625.829,1359.01 627.798,1381.06 629.768,1365.23 631.737,1360.54 633.706,1347.89 635.675,1357.59 637.644,1362.45 639.614,1345.33 
  641.583,1351.12 643.552,1359 645.521,1348.35 647.49,1346.85 649.46,1346.59 651.429,1344.39 653.398,1338.07 655.367,1358.25 657.336,1367.13 659.306,1348.64 
  661.275,1345.58 663.244,1354.63 665.213,1363.52 667.182,1352.04 669.152,1342.83 671.121,1342.22 673.09,1348.08 675.059,1346.57 677.028,1360.72 678.998,1337.8 
  680.967,1347.92 682.936,1356.58 684.905,1365.97 686.874,1365.04 688.844,1344.1 690.813,1355.43 692.782,1367.81 694.751,1371.64 696.72,1355.38 698.69,1361.45 
  700.659,1356.04 702.628,1365.37 704.597,1355.45 706.566,1362.61 708.536,1337.49 710.505,1348.8 712.474,1347.2 714.443,1358.31 716.412,1336.12 718.381,1329.2 
  720.351,1334.12 722.32,1341.7 724.289,1345.83 726.258,1352.97 728.227,1350.52 730.197,1345.91 732.166,1347.57 734.135,1348.59 736.104,1366.72 738.073,1357.72 
  740.043,1362.67 742.012,1371.5 743.981,1352.28 745.95,1357.48 747.919,1346.64 749.889,1365.68 751.858,1371.5 753.827,1372.2 755.796,1363.34 757.765,1364.31 
  759.735,1341.12 761.704,1352.8 763.673,1350.6 765.642,1366.48 767.611,1369.83 769.581,1354.57 771.55,1345.26 773.519,1362.55 775.488,1355.06 777.457,1350.3 
  779.427,1340.56 781.396,1331.95 783.365,1339.56 785.334,1331.16 787.303,1336.46 789.273,1341.69 791.242,1329.44 793.211,1369.73 795.18,1357.62 797.149,1356.71 
  799.119,1354.27 801.088,1351.88 803.057,1368.27 805.026,1365.59 806.995,1364.16 808.965,1366.27 810.934,1368.21 812.903,1377.49 814.872,1348.2 816.841,1361.58 
  818.811,1348.17 820.78,1355.31 822.749,1369.88 824.718,1362.58 826.687,1356.06 828.657,1346.6 830.626,1353.87 832.595,1362.36 834.564,1346.05 836.533,1344.9 
  838.503,1358.58 840.472,1347.17 842.441,1350.74 844.41,1350.32 846.379,1362.97 848.348,1346.55 850.318,1355.46 852.287,1355.59 854.256,1354.39 856.225,1349.25 
  858.194,1334.65 860.164,1344.93 862.133,1353.13 864.102,1357.39 866.071,1359.12 868.04,1348.67 870.01,1353.09 871.979,1356.28 873.948,1362 875.917,1357.11 
  877.886,1373.79 879.856,1371.04 881.825,1357.98 883.794,1361.1 885.763,1361.13 887.732,1375.6 889.702,1370.6 891.671,1356.17 893.64,1365.16 895.609,1379.26 
  897.578,1353.04 899.548,1360.62 901.517,1350.72 903.486,1351.58 905.455,1341.23 907.424,1344.45 909.394,1337.25 911.363,1359.25 913.332,1343.7 915.301,1354.88 
  917.27,1360.65 919.24,1358.54 921.209,1334.29 923.178,1334.02 925.147,1342.61 927.116,1360.49 929.086,1355.34 931.055,1349.24 933.024,1343.93 934.993,1359.4 
  936.962,1364.28 938.932,1357.97 940.901,1362.49 942.87,1363.81 944.839,1353.53 946.808,1348.84 948.778,1365.71 950.747,1357 952.716,1363.88 954.685,1357.19 
  956.654,1357.51 958.624,1351.22 960.593,1339.68 962.562,1349.09 964.531,1356.13 966.5,1346.6 968.47,1340.8 970.439,1356.29 972.408,1370.68 974.377,1347.19 
  976.346,1339.19 978.315,1345.73 980.285,1357.97 982.254,1369.08 984.223,1355.17 986.192,1352.87 988.161,1338.09 990.131,1353.11 992.1,1350.61 994.069,1349.43 
  996.038,1354.68 998.007,1337.81 999.977,1338.77 1001.95,1345.27 1003.92,1363.84 1005.88,1361.3 1007.85,1353.7 1009.82,1374.69 1011.79,1374.31 1013.76,1366.61 
  1015.73,1372.45 1017.7,1369.24 1019.67,1376.93 1021.64,1367.47 1023.61,1361.54 1025.58,1355.19 1027.55,1339.46 1029.51,1357.78 1031.48,1357.31 1033.45,1350.84 
  1035.42,1354.85 1037.39,1348.71 1039.36,1340.25 1041.33,1337.08 1043.3,1346.08 1045.27,1339.2 1047.24,1353.55 1049.21,1337.94 1051.18,1352.77 1053.14,1353.23 
  1055.11,1363.3 1057.08,1369.24 1059.05,1343.65 1061.02,1360.05 1062.99,1362.4 1064.96,1357.91 1066.93,1349.44 1068.9,1356.85 1070.87,1370.79 1072.84,1348.51 
  1074.81,1346.99 1076.78,1361.26 1078.74,1371.9 1080.71,1360.59 1082.68,1353.46 1084.65,1357.8 1086.62,1361.87 1088.59,1367.16 1090.56,1356.81 1092.53,1350.29 
  1094.5,1339.04 1096.47,1346.26 1098.44,1351.44 1100.41,1348.27 1102.37,1341.97 1104.34,1344.89 1106.31,1341.98 1108.28,1361.53 1110.25,1336.47 1112.22,1344.38 
  1114.19,1334.77 1116.16,1348.94 1118.13,1340.97 1120.1,1353.61 1122.07,1361.61 1124.04,1355.3 1126.01,1357.44 1127.97,1358.61 1129.94,1357.59 1131.91,1374.55 
  1133.88,1346.14 1135.85,1379.2 1137.82,1357.35 1139.79,1343.68 1141.76,1362.14 1143.73,1357.27 1145.7,1361.48 1147.67,1375.91 1149.64,1348.11 1151.6,1367.11 
  1153.57,1353.02 1155.54,1351.21 1157.51,1367.49 1159.48,1360.51 1161.45,1355.03 1163.42,1369.34 1165.39,1348.61 1167.36,1352.27 1169.33,1335.5 1171.3,1331.62 
  1173.27,1354.31 1175.24,1356.11 1177.2,1348.35 1179.17,1336.44 1181.14,1317.4 1183.11,1342.78 1185.08,1353.76 1187.05,1358.04 1189.02,1341.28 1190.99,1353.05 
  1192.96,1332.28 1194.93,1353.43 1196.9,1362.19 1198.87,1363.36 1200.83,1359.93 1202.8,1358.53 1204.77,1343.24 1206.74,1364.77 1208.71,1369.17 1210.68,1354.69 
  1212.65,1356.91 1214.62,1360.77 1216.59,1364.69 1218.56,1359.91 1220.53,1350.93 1222.5,1359.58 1224.47,1357.49 1226.43,1364.73 1228.4,1355.27 1230.37,1343.53 
  1232.34,1350.77 1234.31,1335.04 1236.28,1343.19 1238.25,1360.64 1240.22,1359.55 1242.19,1353.99 1244.16,1349.6 1246.13,1366.51 1248.1,1342.44 1250.06,1330.4 
  1252.03,1343.38 1254,1341.99 1255.97,1370.8 1257.94,1355.68 1259.91,1358.6 1261.88,1363.68 1263.85,1367.79 1265.82,1350.66 1267.79,1343.68 1269.76,1350.09 
  1271.73,1349.53 1273.7,1362.33 1275.66,1376.31 1277.63,1379.32 1279.6,1368.91 1281.57,1368.62 1283.54,1338.55 1285.51,1351.96 1287.48,1368.39 1289.45,1364.66 
  1291.42,1364.17 1293.39,1363.51 1295.36,1355.32 1297.33,1345.87 1299.29,1350.38 1301.26,1352.02 1303.23,1342.11 1305.2,1342.38 1307.17,1350.69 1309.14,1341.5 
  1311.11,1327.8 1313.08,1333.66 1315.05,1349.87 1317.02,1349.78 1318.99,1347.27 1320.96,1344.69 1322.92,1357.78 1324.89,1342.23 1326.86,1354.36 1328.83,1350.29 
  1330.8,1369.35 1332.77,1366.81 1334.74,1348.56 1336.71,1359.77 1338.68,1351.23 1340.65,1352.96 1342.62,1357.18 1344.59,1359.37 1346.56,1358.73 1348.52,1355.61 
  1350.49,1343.59 1352.46,1335.92 1354.43,1327.18 1356.4,1350.49 1358.37,1341.24 1360.34,1355.85 1362.31,1350.15 1364.28,1354.92 1366.25,1350.56 1368.22,1361.61 
  1370.19,1343.81 1372.15,1358.48 1374.12,1332.71 1376.09,1341.81 1378.06,1312.65 1380.03,1350.35 1382,1347.99 1383.97,1354.96 1385.94,1342.89 1387.91,1327.65 
  1389.88,1340.03 1391.85,1357.13 1393.82,1369.11 1395.79,1362.61 1397.75,1377.57 1399.72,1373.06 1401.69,1360.87 1403.66,1360.99 1405.63,1347.88 1407.6,1360.89 
  1409.57,1366.71 1411.54,1371.75 1413.51,1364.09 1415.48,1366.82 1417.45,1353.81 1419.42,1330.97 1421.38,1354.88 1423.35,1362.33 1425.32,1354.08 1427.29,1335.95 
  1429.26,1350.21 1431.23,1360.19 1433.2,1364.03 1435.17,1351.94 1437.14,1356.65 1439.11,1352.47 1441.08,1344.49 1443.05,1342.42 1445.02,1340.2 1446.98,1352.63 
  1448.95,1351.65 1450.92,1342.45 1452.89,1330.68 1454.86,1358.37 1456.83,1357.04 1458.8,1348.43 1460.77,1339.29 1462.74,1367.35 1464.71,1360.3 1466.68,1379.92 
  1468.65,1372.37 1470.61,1347.42 1472.58,1368.04 1474.55,1359.19 1476.52,1361.14 1478.49,1338.69 1480.46,1348.2 1482.43,1334.47 1484.4,1345.34 1486.37,1368.41 
  1488.34,1365.09 1490.31,1359.02 1492.28,1348.1 1494.25,1358.58 1496.21,1338.06 1498.18,1337.81 1500.15,1347.44 1502.12,1332.18 1504.09,1353.76 1506.06,1368.63 
  1508.03,1349.21 1510,1331.12 1511.97,1342.16 1513.94,1329.8 1515.91,1356.81 1517.88,1379.45 1519.84,1364.53 1521.81,1342.19 1523.78,1367.55 1525.75,1360.99 
  1527.72,1345.51 1529.69,1353.12 1531.66,1359.45 1533.63,1370.02 1535.6,1357.78 1537.57,1366.69 1539.54,1359.66 1541.51,1370.82 1543.48,1366.69 1545.44,1355.21 
  1547.41,1348.91 1549.38,1350.99 1551.35,1343.98 1553.32,1350.88 1555.29,1348.74 1557.26,1362.02 1559.23,1358.9 1561.2,1347.36 1563.17,1348.17 1565.14,1348.92 
  1567.11,1351.18 1569.07,1342.38 1571.04,1329.18 1573.01,1321.99 1574.98,1327.98 1576.95,1340.14 1578.92,1331.68 1580.89,1348.61 1582.86,1337.59 1584.83,1332.03 
  1586.8,1349.47 1588.77,1362.81 1590.74,1362.74 1592.7,1361.6 1594.67,1367.22 1596.64,1357.61 1598.61,1371.96 1600.58,1376.83 1602.55,1364.22 1604.52,1342.5 
  1606.49,1349.9 1608.46,1347.66 1610.43,1352.81 1612.4,1364.58 1614.37,1351.24 1616.34,1367.92 1618.3,1348.31 1620.27,1345.26 1622.24,1361.42 1624.21,1350.75 
  1626.18,1343.91 1628.15,1345.82 1630.12,1352.02 1632.09,1326.67 1634.06,1347.09 1636.03,1347.91 1638,1372.6 1639.97,1355.78 1641.93,1338.51 1643.9,1340.24 
  1645.87,1361.01 1647.84,1349.61 1649.81,1348.75 1651.78,1364.54 1653.75,1345.05 1655.72,1361.32 1657.69,1359.65 1659.66,1354.74 1661.63,1354.39 1663.6,1365.61 
  1665.57,1365.03 1667.53,1389.24 1669.5,1359.04 1671.47,1361.75 1673.44,1356.45 1675.41,1367.41 1677.38,1385.66 1679.35,1364.66 1681.32,1365.05 1683.29,1360.12 
  1685.26,1347.15 1687.23,1363.74 1689.2,1369.34 1691.16,1356 1693.13,1346.86 1695.1,1352.68 1697.07,1358.86 1699.04,1352.27 1701.01,1362.13 1702.98,1353.45 
  1704.95,1346.01 1706.92,1350.58 1708.89,1352.39 1710.86,1326.38 1712.83,1349.33 1714.8,1347.94 1716.76,1337.79 1718.73,1345.24 1720.7,1369.78 1722.67,1354.4 
  1724.64,1361.9 1726.61,1367 1728.58,1375.89 1730.55,1371.74 1732.52,1373.74 1734.49,1364.46 1736.46,1362.77 1738.43,1383.99 1740.39,1374.53 1742.36,1358.99 
  1744.33,1354.86 1746.3,1354.21 1748.27,1356.83 1750.24,1366.72 1752.21,1358.86 1754.18,1352.21 1756.15,1356.31 1758.12,1361.28 1760.09,1368.12 1762.06,1359.99 
  1764.03,1361.97 1765.99,1352.33 1767.96,1341.01 1769.93,1336.98 1771.9,1332.37 1773.87,1328.25 1775.84,1357.74 1777.81,1342.71 1779.78,1328.59 1781.75,1338.74 
  1783.72,1340.46 1785.69,1356.11 1787.66,1355 1789.62,1350.38 1791.59,1357.33 1793.56,1355.89 1795.53,1367.89 1797.5,1354.89 1799.47,1350.84 1801.44,1357.4 
  1803.41,1364.79 1805.38,1362.91 1807.35,1362.83 1809.32,1365.9 1811.29,1357.26 1813.26,1348.82 1815.22,1359.14 1817.19,1350.18 1819.16,1364.28 1821.13,1351.85 
  1823.1,1350.34 1825.07,1348.14 1827.04,1363.89 1829.01,1345.73 1830.98,1351.68 1832.95,1349.4 1834.92,1348.73 1836.89,1347.71 1838.85,1330.98 1840.82,1355.46 
  1842.79,1346.59 1844.76,1350.16 1846.73,1328.7 1848.7,1334.34 1850.67,1348.12 1852.64,1361.17 1854.61,1359.16 1856.58,1346.59 1858.55,1350.54 1860.52,1365.22 
  1862.48,1357.86 1864.45,1351.1 1866.42,1390.25 1868.39,1375.4 1870.36,1355.27 1872.33,1350.23 1874.3,1358.93 1876.27,1378.51 1878.24,1372.72 1880.21,1354.74 
  1882.18,1359.77 1884.15,1363.9 1886.12,1356.71 1888.08,1351.56 1890.05,1346.48 1892.02,1351.39 1893.99,1357.62 1895.96,1347.71 1897.93,1347.91 1899.9,1350.94 
  1901.87,1351.23 1903.84,1347.28 1905.81,1367.35 1907.78,1350.63 1909.75,1338.98 1911.71,1338.74 1913.68,1332.23 1915.65,1351.29 1917.62,1354.1 1919.59,1362.21 
  1921.56,1374.6 1923.53,1365.35 1925.5,1354.88 1927.47,1349.45 1929.44,1356.07 1931.41,1365.23 1933.38,1363.89 1935.35,1339.2 1937.31,1350.69 1939.28,1365.67 
  1941.25,1349.61 1943.22,1369.6 1945.19,1370.06 1947.16,1359.2 1949.13,1352.01 1951.1,1361.01 1953.07,1361.16 1955.04,1348.32 1957.01,1357.62 1958.98,1366.23 
  1960.94,1357.81 1962.91,1347.78 1964.88,1343.73 1966.85,1333.99 1968.82,1344.66 1970.79,1337.69 1972.76,1337.18 1974.73,1362.72 1976.7,1359.52 1978.67,1340.91 
  1980.64,1340.77 1982.61,1365.14 1984.58,1358.02 1986.54,1336.52 1988.51,1335.4 1990.48,1344.1 1992.45,1350.35 1994.42,1349.55 1996.39,1344.36 1998.36,1374.91 
  2000.33,1362.33 2002.3,1351.48 2004.27,1339.2 2006.24,1351.66 2008.21,1362.65 2010.17,1383.45 2012.14,1356.82 2014.11,1360.16 2016.08,1346.74 2018.05,1333.46 
  2020.02,1346.66 2021.99,1343.34 2023.96,1341.96 2025.93,1347.45 2027.9,1338.48 2029.87,1333.29 2031.84,1330.61 2033.81,1320.05 2035.77,1331.63 2037.74,1341.38 
  2039.71,1365.11 2041.68,1357.42 2043.65,1360.34 2045.62,1366.25 2047.59,1369.53 2049.56,1363.86 2051.53,1351.78 2053.5,1364.5 2055.47,1365.17 2057.44,1364.89 
  2059.4,1356.99 2061.37,1355.61 2063.34,1360.28 2065.31,1370.49 2067.28,1367.13 2069.25,1354.88 2071.22,1344.41 2073.19,1358.56 2075.16,1368.26 2077.13,1362.63 
  2079.1,1359.44 2081.07,1352.67 2083.03,1355.18 2085,1366.03 2086.97,1355.52 2088.94,1346.96 2090.91,1342.57 2092.88,1335.26 2094.85,1339.48 2096.82,1347.41 
  2098.79,1350.68 2100.76,1336.36 2102.73,1339.82 2104.7,1346.61 2106.67,1338.21 2108.63,1334.77 2110.6,1340.83 2112.57,1348.9 2114.54,1348.44 2116.51,1356.65 
  2118.48,1350.11 2120.45,1343.89 2122.42,1339.6 2124.39,1349.63 2126.36,1334.27 2128.33,1370.38 2130.3,1366.01 2132.26,1368.51 2134.23,1348.21 2136.2,1344.01 
  2138.17,1354.41 2140.14,1376.48 2142.11,1380.86 2144.08,1365.27 2146.05,1361.08 2148.02,1349.36 2149.99,1339.21 2151.96,1355.07 2153.93,1353.6 2155.9,1356.59 
  2157.86,1345.06 2159.83,1359.74 2161.8,1336.47 2163.77,1333.09 2165.74,1332.15 2167.71,1341.1 2169.68,1338.38 2171.65,1355.99 2173.62,1349.16 2175.59,1344.72 
  2177.56,1339.7 2179.53,1361.07 2181.49,1345.08 2183.46,1339.12 2185.43,1340.45 2187.4,1359.37 2189.37,1362.69 2191.34,1351.86 2193.31,1349.34 2195.28,1346.75 
  2197.25,1350.43 2199.22,1346.87 2201.19,1350.36 2203.16,1349.47 2205.13,1372.32 2207.09,1356.05 2209.06,1380.6 2211.03,1368.52 2213,1352.94 2214.97,1343.58 
  2216.94,1343.58 2218.91,1344.06 2220.88,1342.64 2222.85,1351.46 2224.82,1349.96 2226.79,1335.41 2228.76,1345.62 2230.72,1346.92 2232.69,1333.02 2234.66,1338.2 
  2236.63,1336.58 2238.6,1342.27 2240.57,1342.59 2242.54,1338.3 2244.51,1357.12 2246.48,1338.58 2248.45,1334.47 2250.42,1347.46 2252.39,1354.48 2254.36,1353.43 
  2256.32,1355.03 2258.29,1362.47 2260.26,1386.31 2262.23,1374.26 2264.2,1363.21 2266.17,1355.95 2268.14,1358.76 2270.11,1344.78 2272.08,1347.68 2274.05,1354.9 
  2276.02,1349.61 2277.99,1363.44 2279.95,1344.52 2281.92,1341.88 2283.89,1334.03 2285.86,1339.01 2287.83,1351.57 2289.8,1359.2 2291.77,1362.58 2293.74,1341.94 
  
  "/>
</svg>
