<?xml version="1.0" encoding="utf-8"?>
<svg xmlns="http://www.w3.org/2000/svg" xmlns:xlink="http://www.w3.org/1999/xlink" width="600" height="400" viewBox="0 0 2400 1600">
<defs>
  <clipPath id="clip240">
    <rect x="0" y="0" width="2400" height="1600"/>
  </clipPath>
</defs>
<path clip-path="url(#clip240)" d="
M0 1600 L2400 1600 L2400 0 L0 0  Z
  " fill="#ffffff" fill-rule="evenodd" fill-opacity="1"/>
<defs>
  <clipPath id="clip241">
    <rect x="480" y="0" width="1681" height="1600"/>
  </clipPath>
</defs>
<defs>
  <clipPath id="clip242">
    <rect x="296" y="123" width="2057" height="1305"/>
  </clipPath>
</defs>
<path clip-path="url(#clip240)" d="
M219.376 1423.18 L2352.76 1423.18 L2352.76 123.472 L219.376 123.472  Z
  " fill="#ffffff" fill-rule="evenodd" fill-opacity="1"/>
<defs>
  <clipPath id="clip243">
    <rect x="219" y="123" width="2134" height="1301"/>
  </clipPath>
</defs>
<polyline clip-path="url(#clip243)" style="stroke:#000000; stroke-width:2; stroke-opacity:0.1; fill:none" points="
  279.755,1423.18 279.755,123.472 
  "/>
<polyline clip-path="url(#clip243)" style="stroke:#000000; stroke-width:2; stroke-opacity:0.1; fill:none" points="
  682.36,1423.18 682.36,123.472 
  "/>
<polyline clip-path="url(#clip243)" style="stroke:#000000; stroke-width:2; stroke-opacity:0.1; fill:none" points="
  1084.97,1423.18 1084.97,123.472 
  "/>
<polyline clip-path="url(#clip243)" style="stroke:#000000; stroke-width:2; stroke-opacity:0.1; fill:none" points="
  1487.57,1423.18 1487.57,123.472 
  "/>
<polyline clip-path="url(#clip243)" style="stroke:#000000; stroke-width:2; stroke-opacity:0.1; fill:none" points="
  1890.18,1423.18 1890.18,123.472 
  "/>
<polyline clip-path="url(#clip243)" style="stroke:#000000; stroke-width:2; stroke-opacity:0.1; fill:none" points="
  2292.78,1423.18 2292.78,123.472 
  "/>
<polyline clip-path="url(#clip240)" style="stroke:#000000; stroke-width:4; stroke-opacity:1; fill:none" points="
  219.376,1423.18 2352.76,1423.18 
  "/>
<polyline clip-path="url(#clip240)" style="stroke:#000000; stroke-width:4; stroke-opacity:1; fill:none" points="
  279.755,1423.18 279.755,1407.58 
  "/>
<polyline clip-path="url(#clip240)" style="stroke:#000000; stroke-width:4; stroke-opacity:1; fill:none" points="
  682.36,1423.18 682.36,1407.58 
  "/>
<polyline clip-path="url(#clip240)" style="stroke:#000000; stroke-width:4; stroke-opacity:1; fill:none" points="
  1084.97,1423.18 1084.97,1407.58 
  "/>
<polyline clip-path="url(#clip240)" style="stroke:#000000; stroke-width:4; stroke-opacity:1; fill:none" points="
  1487.57,1423.18 1487.57,1407.58 
  "/>
<polyline clip-path="url(#clip240)" style="stroke:#000000; stroke-width:4; stroke-opacity:1; fill:none" points="
  1890.18,1423.18 1890.18,1407.58 
  "/>
<polyline clip-path="url(#clip240)" style="stroke:#000000; stroke-width:4; stroke-opacity:1; fill:none" points="
  2292.78,1423.18 2292.78,1407.58 
  "/>
<path clip-path="url(#clip240)" d="M 0 0 M279.755 1452.37 Q276.143 1452.37 274.315 1455.94 Q272.509 1459.48 272.509 1466.61 Q272.509 1473.71 274.315 1477.28 Q276.143 1480.82 279.755 1480.82 Q283.389 1480.82 285.194 1477.28 Q287.023 1473.71 287.023 1466.61 Q287.023 1459.48 285.194 1455.94 Q283.389 1452.37 279.755 1452.37 M279.755 1448.67 Q285.565 1448.67 288.62 1453.27 Q291.699 1457.86 291.699 1466.61 Q291.699 1475.33 288.62 1479.94 Q285.565 1484.52 279.755 1484.52 Q273.944 1484.52 270.866 1479.94 Q267.81 1475.33 267.81 1466.61 Q267.81 1457.86 270.866 1453.27 Q273.944 1448.67 279.755 1448.67 Z" fill="#000000" fill-rule="evenodd" fill-opacity="1" /><path clip-path="url(#clip240)" d="M 0 0 M657.047 1479.92 L664.686 1479.92 L664.686 1453.55 L656.376 1455.22 L656.376 1450.96 L664.64 1449.29 L669.316 1449.29 L669.316 1479.92 L676.955 1479.92 L676.955 1483.85 L657.047 1483.85 L657.047 1479.92 Z" fill="#000000" fill-rule="evenodd" fill-opacity="1" /><path clip-path="url(#clip240)" d="M 0 0 M696.399 1452.37 Q692.788 1452.37 690.959 1455.94 Q689.154 1459.48 689.154 1466.61 Q689.154 1473.71 690.959 1477.28 Q692.788 1480.82 696.399 1480.82 Q700.033 1480.82 701.839 1477.28 Q703.668 1473.71 703.668 1466.61 Q703.668 1459.48 701.839 1455.94 Q700.033 1452.37 696.399 1452.37 M696.399 1448.67 Q702.209 1448.67 705.265 1453.27 Q708.343 1457.86 708.343 1466.61 Q708.343 1475.33 705.265 1479.94 Q702.209 1484.52 696.399 1484.52 Q690.589 1484.52 687.51 1479.94 Q684.455 1475.33 684.455 1466.61 Q684.455 1457.86 687.51 1453.27 Q690.589 1448.67 696.399 1448.67 Z" fill="#000000" fill-rule="evenodd" fill-opacity="1" /><path clip-path="url(#clip240)" d="M 0 0 M1063.74 1479.92 L1080.06 1479.92 L1080.06 1483.85 L1058.11 1483.85 L1058.11 1479.92 Q1060.78 1477.16 1065.36 1472.53 Q1069.97 1467.88 1071.15 1466.54 Q1073.39 1464.01 1074.27 1462.28 Q1075.17 1460.52 1075.17 1458.83 Q1075.17 1456.07 1073.23 1454.34 Q1071.31 1452.6 1068.21 1452.6 Q1066.01 1452.6 1063.55 1453.37 Q1061.12 1454.13 1058.34 1455.68 L1058.34 1450.96 Q1061.17 1449.82 1063.62 1449.25 Q1066.08 1448.67 1068.11 1448.67 Q1073.48 1448.67 1076.68 1451.35 Q1079.87 1454.04 1079.87 1458.53 Q1079.87 1460.66 1079.06 1462.58 Q1078.28 1464.48 1076.17 1467.07 Q1075.59 1467.74 1072.49 1470.96 Q1069.39 1474.15 1063.74 1479.92 Z" fill="#000000" fill-rule="evenodd" fill-opacity="1" /><path clip-path="url(#clip240)" d="M 0 0 M1099.87 1452.37 Q1096.26 1452.37 1094.43 1455.94 Q1092.63 1459.48 1092.63 1466.61 Q1092.63 1473.71 1094.43 1477.28 Q1096.26 1480.82 1099.87 1480.82 Q1103.51 1480.82 1105.31 1477.28 Q1107.14 1473.71 1107.14 1466.61 Q1107.14 1459.48 1105.31 1455.94 Q1103.51 1452.37 1099.87 1452.37 M1099.87 1448.67 Q1105.68 1448.67 1108.74 1453.27 Q1111.82 1457.86 1111.82 1466.61 Q1111.82 1475.33 1108.74 1479.94 Q1105.68 1484.52 1099.87 1484.52 Q1094.06 1484.52 1090.98 1479.94 Q1087.93 1475.33 1087.93 1466.61 Q1087.93 1457.86 1090.98 1453.27 Q1094.06 1448.67 1099.87 1448.67 Z" fill="#000000" fill-rule="evenodd" fill-opacity="1" /><path clip-path="url(#clip240)" d="M 0 0 M1476.41 1465.22 Q1479.77 1465.94 1481.64 1468.2 Q1483.54 1470.47 1483.54 1473.81 Q1483.54 1478.92 1480.02 1481.72 Q1476.51 1484.52 1470.02 1484.52 Q1467.85 1484.52 1465.53 1484.08 Q1463.24 1483.67 1460.79 1482.81 L1460.79 1478.3 Q1462.73 1479.43 1465.05 1480.01 Q1467.36 1480.59 1469.89 1480.59 Q1474.28 1480.59 1476.57 1478.85 Q1478.89 1477.12 1478.89 1473.81 Q1478.89 1470.75 1476.74 1469.04 Q1474.61 1467.3 1470.79 1467.3 L1466.76 1467.3 L1466.76 1463.46 L1470.97 1463.46 Q1474.42 1463.46 1476.25 1462.09 Q1478.08 1460.7 1478.08 1458.11 Q1478.08 1455.45 1476.18 1454.04 Q1474.31 1452.6 1470.79 1452.6 Q1468.87 1452.6 1466.67 1453.02 Q1464.47 1453.44 1461.83 1454.31 L1461.83 1450.15 Q1464.49 1449.41 1466.81 1449.04 Q1469.14 1448.67 1471.2 1448.67 Q1476.53 1448.67 1479.63 1451.1 Q1482.73 1453.5 1482.73 1457.63 Q1482.73 1460.5 1481.09 1462.49 Q1479.45 1464.45 1476.41 1465.22 Z" fill="#000000" fill-rule="evenodd" fill-opacity="1" /><path clip-path="url(#clip240)" d="M 0 0 M1502.41 1452.37 Q1498.8 1452.37 1496.97 1455.94 Q1495.16 1459.48 1495.16 1466.61 Q1495.16 1473.71 1496.97 1477.28 Q1498.8 1480.82 1502.41 1480.82 Q1506.04 1480.82 1507.85 1477.28 Q1509.68 1473.71 1509.68 1466.61 Q1509.68 1459.48 1507.85 1455.94 Q1506.04 1452.37 1502.41 1452.37 M1502.41 1448.67 Q1508.22 1448.67 1511.27 1453.27 Q1514.35 1457.86 1514.35 1466.61 Q1514.35 1475.33 1511.27 1479.94 Q1508.22 1484.52 1502.41 1484.52 Q1496.6 1484.52 1493.52 1479.94 Q1490.46 1475.33 1490.46 1466.61 Q1490.46 1457.86 1493.52 1453.27 Q1496.6 1448.67 1502.41 1448.67 Z" fill="#000000" fill-rule="evenodd" fill-opacity="1" /><path clip-path="url(#clip240)" d="M 0 0 M1878.35 1453.37 L1866.54 1471.81 L1878.35 1471.81 L1878.35 1453.37 M1877.12 1449.29 L1883 1449.29 L1883 1471.81 L1887.93 1471.81 L1887.93 1475.7 L1883 1475.7 L1883 1483.85 L1878.35 1483.85 L1878.35 1475.7 L1862.75 1475.7 L1862.75 1471.19 L1877.12 1449.29 Z" fill="#000000" fill-rule="evenodd" fill-opacity="1" /><path clip-path="url(#clip240)" d="M 0 0 M1905.66 1452.37 Q1902.05 1452.37 1900.22 1455.94 Q1898.42 1459.48 1898.42 1466.61 Q1898.42 1473.71 1900.22 1477.28 Q1902.05 1480.82 1905.66 1480.82 Q1909.3 1480.82 1911.1 1477.28 Q1912.93 1473.71 1912.93 1466.61 Q1912.93 1459.48 1911.1 1455.94 Q1909.3 1452.37 1905.66 1452.37 M1905.66 1448.67 Q1911.47 1448.67 1914.53 1453.27 Q1917.61 1457.86 1917.61 1466.61 Q1917.61 1475.33 1914.53 1479.94 Q1911.47 1484.52 1905.66 1484.52 Q1899.85 1484.52 1896.77 1479.94 Q1893.72 1475.33 1893.72 1466.61 Q1893.72 1457.86 1896.77 1453.27 Q1899.85 1448.67 1905.66 1448.67 Z" fill="#000000" fill-rule="evenodd" fill-opacity="1" /><path clip-path="url(#clip240)" d="M 0 0 M2267.48 1449.29 L2285.84 1449.29 L2285.84 1453.23 L2271.76 1453.23 L2271.76 1461.7 Q2272.78 1461.35 2273.8 1461.19 Q2274.82 1461 2275.84 1461 Q2281.62 1461 2285 1464.18 Q2288.38 1467.35 2288.38 1472.76 Q2288.38 1478.34 2284.91 1481.44 Q2281.44 1484.52 2275.12 1484.52 Q2272.94 1484.52 2270.67 1484.15 Q2268.43 1483.78 2266.02 1483.04 L2266.02 1478.34 Q2268.1 1479.48 2270.33 1480.03 Q2272.55 1480.59 2275.03 1480.59 Q2279.03 1480.59 2281.37 1478.48 Q2283.71 1476.38 2283.71 1472.76 Q2283.71 1469.15 2281.37 1467.05 Q2279.03 1464.94 2275.03 1464.94 Q2273.15 1464.94 2271.28 1465.36 Q2269.42 1465.77 2267.48 1466.65 L2267.48 1449.29 Z" fill="#000000" fill-rule="evenodd" fill-opacity="1" /><path clip-path="url(#clip240)" d="M 0 0 M2307.6 1452.37 Q2303.98 1452.37 2302.16 1455.94 Q2300.35 1459.48 2300.35 1466.61 Q2300.35 1473.71 2302.16 1477.28 Q2303.98 1480.82 2307.6 1480.82 Q2311.23 1480.82 2313.04 1477.28 Q2314.86 1473.71 2314.86 1466.61 Q2314.86 1459.48 2313.04 1455.94 Q2311.23 1452.37 2307.6 1452.37 M2307.6 1448.67 Q2313.41 1448.67 2316.46 1453.27 Q2319.54 1457.86 2319.54 1466.61 Q2319.54 1475.33 2316.46 1479.94 Q2313.41 1484.52 2307.6 1484.52 Q2301.79 1484.52 2298.71 1479.94 Q2295.65 1475.33 2295.65 1466.61 Q2295.65 1457.86 2298.71 1453.27 Q2301.79 1448.67 2307.6 1448.67 Z" fill="#000000" fill-rule="evenodd" fill-opacity="1" /><path clip-path="url(#clip240)" d="M 0 0 M1046.17 1518.52 L1046.17 1523.39 L1040.57 1523.39 Q1037.42 1523.39 1036.18 1524.66 Q1034.97 1525.93 1034.97 1529.24 L1034.97 1532.4 L1044.61 1532.4 L1044.61 1536.95 L1034.97 1536.95 L1034.97 1568.04 L1029.08 1568.04 L1029.08 1536.95 L1023.48 1536.95 L1023.48 1532.4 L1029.08 1532.4 L1029.08 1529.91 Q1029.08 1523.96 1031.85 1521.26 Q1034.62 1518.52 1040.64 1518.52 L1046.17 1518.52 Z" fill="#000000" fill-rule="evenodd" fill-opacity="1" /><path clip-path="url(#clip240)" d="M 0 0 M1071.73 1537.87 Q1070.75 1537.3 1069.57 1537.04 Q1068.42 1536.76 1067.02 1536.76 Q1062.06 1536.76 1059.38 1540 Q1056.74 1543.22 1056.74 1549.27 L1056.74 1568.04 L1050.85 1568.04 L1050.85 1532.4 L1056.74 1532.4 L1056.74 1537.93 Q1058.59 1534.69 1061.55 1533.13 Q1064.51 1531.54 1068.74 1531.54 Q1069.35 1531.54 1070.08 1531.63 Q1070.81 1531.7 1071.7 1531.85 L1071.73 1537.87 Z" fill="#000000" fill-rule="evenodd" fill-opacity="1" /><path clip-path="url(#clip240)" d="M 0 0 M1106.93 1548.76 L1106.93 1551.62 L1080.01 1551.62 Q1080.39 1557.67 1083.64 1560.85 Q1086.91 1564 1092.74 1564 Q1096.11 1564 1099.26 1563.17 Q1102.45 1562.35 1105.57 1560.69 L1105.57 1566.23 Q1102.42 1567.57 1099.11 1568.27 Q1095.79 1568.97 1092.39 1568.97 Q1083.86 1568.97 1078.86 1564 Q1073.9 1559.04 1073.9 1550.57 Q1073.9 1541.82 1078.61 1536.69 Q1083.35 1531.54 1091.37 1531.54 Q1098.56 1531.54 1102.73 1536.18 Q1106.93 1540.8 1106.93 1548.76 M1101.08 1547.04 Q1101.01 1542.23 1098.37 1539.37 Q1095.76 1536.5 1091.43 1536.5 Q1086.53 1536.5 1083.57 1539.27 Q1080.64 1542.04 1080.2 1547.07 L1101.08 1547.04 Z" fill="#000000" fill-rule="evenodd" fill-opacity="1" /><path clip-path="url(#clip240)" d="M 0 0 M1120.05 1550.25 Q1120.05 1556.71 1122.69 1560.4 Q1125.36 1564.07 1130.01 1564.07 Q1134.66 1564.07 1137.33 1560.4 Q1140 1556.71 1140 1550.25 Q1140 1543.79 1137.33 1540.13 Q1134.66 1536.44 1130.01 1536.44 Q1125.36 1536.44 1122.69 1540.13 Q1120.05 1543.79 1120.05 1550.25 M1140 1562.7 Q1138.16 1565.88 1135.33 1567.44 Q1132.53 1568.97 1128.58 1568.97 Q1122.12 1568.97 1118.04 1563.81 Q1114 1558.65 1114 1550.25 Q1114 1541.85 1118.04 1536.69 Q1122.12 1531.54 1128.58 1531.54 Q1132.53 1531.54 1135.33 1533.1 Q1138.16 1534.62 1140 1537.81 L1140 1532.4 L1145.86 1532.4 L1145.86 1581.6 L1140 1581.6 L1140 1562.7 Z" fill="#000000" fill-rule="evenodd" fill-opacity="1" /><path clip-path="url(#clip240)" d="M 0 0 M1157.32 1553.98 L1157.32 1532.4 L1163.18 1532.4 L1163.18 1553.75 Q1163.18 1558.81 1165.15 1561.36 Q1167.12 1563.87 1171.07 1563.87 Q1175.81 1563.87 1178.55 1560.85 Q1181.32 1557.83 1181.32 1552.61 L1181.32 1532.4 L1187.17 1532.4 L1187.17 1568.04 L1181.32 1568.04 L1181.32 1562.57 Q1179.19 1565.82 1176.35 1567.41 Q1173.55 1568.97 1169.83 1568.97 Q1163.69 1568.97 1160.5 1565.15 Q1157.32 1561.33 1157.32 1553.98 M1172.06 1531.54 L1172.06 1531.54 Z" fill="#000000" fill-rule="evenodd" fill-opacity="1" /><path clip-path="url(#clip240)" d="M 0 0 M1229.73 1548.76 L1229.73 1551.62 L1202.8 1551.62 Q1203.18 1557.67 1206.43 1560.85 Q1209.71 1564 1215.53 1564 Q1218.91 1564 1222.06 1563.17 Q1225.24 1562.35 1228.36 1560.69 L1228.36 1566.23 Q1225.21 1567.57 1221.9 1568.27 Q1218.59 1568.97 1215.18 1568.97 Q1206.65 1568.97 1201.66 1564 Q1196.69 1559.04 1196.69 1550.57 Q1196.69 1541.82 1201.4 1536.69 Q1206.14 1531.54 1214.17 1531.54 Q1221.36 1531.54 1225.53 1536.18 Q1229.73 1540.8 1229.73 1548.76 M1223.87 1547.04 Q1223.81 1542.23 1221.17 1539.37 Q1218.56 1536.5 1214.23 1536.5 Q1209.33 1536.5 1206.37 1539.27 Q1203.44 1542.04 1202.99 1547.07 L1223.87 1547.04 Z" fill="#000000" fill-rule="evenodd" fill-opacity="1" /><path clip-path="url(#clip240)" d="M 0 0 M1268.97 1546.53 L1268.97 1568.04 L1263.12 1568.04 L1263.12 1546.72 Q1263.12 1541.66 1261.14 1539.14 Q1259.17 1536.63 1255.22 1536.63 Q1250.48 1536.63 1247.74 1539.65 Q1245.01 1542.68 1245.01 1547.9 L1245.01 1568.04 L1239.12 1568.04 L1239.12 1532.4 L1245.01 1532.4 L1245.01 1537.93 Q1247.11 1534.72 1249.94 1533.13 Q1252.81 1531.54 1256.53 1531.54 Q1262.67 1531.54 1265.82 1535.36 Q1268.97 1539.14 1268.97 1546.53 Z" fill="#000000" fill-rule="evenodd" fill-opacity="1" /><path clip-path="url(#clip240)" d="M 0 0 M1306.31 1533.76 L1306.31 1539.24 Q1303.83 1537.87 1301.31 1537.2 Q1298.83 1536.5 1296.28 1536.5 Q1290.59 1536.5 1287.43 1540.13 Q1284.28 1543.73 1284.28 1550.25 Q1284.28 1556.78 1287.43 1560.4 Q1290.59 1564 1296.28 1564 Q1298.83 1564 1301.31 1563.33 Q1303.83 1562.63 1306.31 1561.26 L1306.31 1566.68 Q1303.86 1567.82 1301.22 1568.39 Q1298.61 1568.97 1295.65 1568.97 Q1287.59 1568.97 1282.85 1563.91 Q1278.11 1558.85 1278.11 1550.25 Q1278.11 1541.53 1282.88 1536.53 Q1287.69 1531.54 1296.03 1531.54 Q1298.73 1531.54 1301.31 1532.11 Q1303.89 1532.65 1306.31 1533.76 Z" fill="#000000" fill-rule="evenodd" fill-opacity="1" /><path clip-path="url(#clip240)" d="M 0 0 M1331.33 1571.35 Q1328.84 1577.72 1326.49 1579.66 Q1324.13 1581.6 1320.19 1581.6 L1315.51 1581.6 L1315.51 1576.7 L1318.94 1576.7 Q1321.36 1576.7 1322.7 1575.56 Q1324.04 1574.41 1325.66 1570.14 L1326.71 1567.47 L1312.29 1532.4 L1318.5 1532.4 L1329.64 1560.28 L1340.78 1532.4 L1346.99 1532.4 L1331.33 1571.35 Z" fill="#000000" fill-rule="evenodd" fill-opacity="1" /><path clip-path="url(#clip240)" d="M 0 0 M1389.86 1518.58 Q1385.59 1525.9 1383.52 1533.06 Q1381.46 1540.23 1381.46 1547.58 Q1381.46 1554.93 1383.52 1562.16 Q1385.63 1569.35 1389.86 1576.64 L1384.77 1576.64 Q1379.99 1569.16 1377.6 1561.93 Q1375.25 1554.71 1375.25 1547.58 Q1375.25 1540.48 1377.6 1533.29 Q1379.96 1526.09 1384.77 1518.58 L1389.86 1518.58 Z" fill="#000000" fill-rule="evenodd" fill-opacity="1" /><path clip-path="url(#clip240)" d="M 0 0 M1433.88 1561.26 L1433.88 1548.5 L1423.37 1548.5 L1423.37 1543.22 L1440.24 1543.22 L1440.24 1563.62 Q1436.52 1566.26 1432.03 1567.63 Q1427.54 1568.97 1422.45 1568.97 Q1411.31 1568.97 1405.01 1562.47 Q1398.74 1555.95 1398.74 1544.33 Q1398.74 1532.68 1405.01 1526.19 Q1411.31 1519.66 1422.45 1519.66 Q1427.1 1519.66 1431.27 1520.81 Q1435.47 1521.96 1439 1524.18 L1439 1531.03 Q1435.44 1528 1431.43 1526.48 Q1427.42 1524.95 1422.99 1524.95 Q1414.27 1524.95 1409.88 1529.82 Q1405.52 1534.69 1405.52 1544.33 Q1405.52 1553.94 1409.88 1558.81 Q1414.27 1563.68 1422.99 1563.68 Q1426.4 1563.68 1429.07 1563.11 Q1431.75 1562.51 1433.88 1561.26 Z" fill="#000000" fill-rule="evenodd" fill-opacity="1" /><path clip-path="url(#clip240)" d="M 0 0 M1451.99 1520.52 L1458.42 1520.52 L1458.42 1540 L1481.78 1540 L1481.78 1520.52 L1488.21 1520.52 L1488.21 1568.04 L1481.78 1568.04 L1481.78 1545.41 L1458.42 1545.41 L1458.42 1568.04 L1451.99 1568.04 L1451.99 1520.52 Z" fill="#000000" fill-rule="evenodd" fill-opacity="1" /><path clip-path="url(#clip240)" d="M 0 0 M1498.2 1532.4 L1526.02 1532.4 L1526.02 1537.74 L1504 1563.37 L1526.02 1563.37 L1526.02 1568.04 L1497.41 1568.04 L1497.41 1562.7 L1519.43 1537.07 L1498.2 1537.07 L1498.2 1532.4 Z" fill="#000000" fill-rule="evenodd" fill-opacity="1" /><path clip-path="url(#clip240)" d="M 0 0 M1534.04 1518.58 L1539.13 1518.58 Q1543.91 1526.09 1546.26 1533.29 Q1548.65 1540.48 1548.65 1547.58 Q1548.65 1554.71 1546.26 1561.93 Q1543.91 1569.16 1539.13 1576.64 L1534.04 1576.64 Q1538.28 1569.35 1540.34 1562.16 Q1542.44 1554.93 1542.44 1547.58 Q1542.44 1540.23 1540.34 1533.06 Q1538.28 1525.9 1534.04 1518.58 Z" fill="#000000" fill-rule="evenodd" fill-opacity="1" /><polyline clip-path="url(#clip243)" style="stroke:#000000; stroke-width:2; stroke-opacity:0.1; fill:none" points="
  219.376,1386.4 2352.76,1386.4 
  "/>
<polyline clip-path="url(#clip243)" style="stroke:#000000; stroke-width:2; stroke-opacity:0.1; fill:none" points="
  219.376,1145.7 2352.76,1145.7 
  "/>
<polyline clip-path="url(#clip243)" style="stroke:#000000; stroke-width:2; stroke-opacity:0.1; fill:none" points="
  219.376,905.01 2352.76,905.01 
  "/>
<polyline clip-path="url(#clip243)" style="stroke:#000000; stroke-width:2; stroke-opacity:0.1; fill:none" points="
  219.376,664.317 2352.76,664.317 
  "/>
<polyline clip-path="url(#clip243)" style="stroke:#000000; stroke-width:2; stroke-opacity:0.1; fill:none" points="
  219.376,423.625 2352.76,423.625 
  "/>
<polyline clip-path="url(#clip243)" style="stroke:#000000; stroke-width:2; stroke-opacity:0.1; fill:none" points="
  219.376,182.932 2352.76,182.932 
  "/>
<polyline clip-path="url(#clip240)" style="stroke:#000000; stroke-width:4; stroke-opacity:1; fill:none" points="
  219.376,1423.18 219.376,123.472 
  "/>
<polyline clip-path="url(#clip240)" style="stroke:#000000; stroke-width:4; stroke-opacity:1; fill:none" points="
  219.376,1386.4 244.976,1386.4 
  "/>
<polyline clip-path="url(#clip240)" style="stroke:#000000; stroke-width:4; stroke-opacity:1; fill:none" points="
  219.376,1145.7 244.976,1145.7 
  "/>
<polyline clip-path="url(#clip240)" style="stroke:#000000; stroke-width:4; stroke-opacity:1; fill:none" points="
  219.376,905.01 244.976,905.01 
  "/>
<polyline clip-path="url(#clip240)" style="stroke:#000000; stroke-width:4; stroke-opacity:1; fill:none" points="
  219.376,664.317 244.976,664.317 
  "/>
<polyline clip-path="url(#clip240)" style="stroke:#000000; stroke-width:4; stroke-opacity:1; fill:none" points="
  219.376,423.625 244.976,423.625 
  "/>
<polyline clip-path="url(#clip240)" style="stroke:#000000; stroke-width:4; stroke-opacity:1; fill:none" points="
  219.376,182.932 244.976,182.932 
  "/>
<path clip-path="url(#clip240)" d="M 0 0 M171.431 1372.19 Q167.82 1372.19 165.992 1375.76 Q164.186 1379.3 164.186 1386.43 Q164.186 1393.54 165.992 1397.1 Q167.82 1400.64 171.431 1400.64 Q175.066 1400.64 176.871 1397.1 Q178.7 1393.54 178.7 1386.43 Q178.7 1379.3 176.871 1375.76 Q175.066 1372.19 171.431 1372.19 M171.431 1368.49 Q177.242 1368.49 180.297 1373.1 Q183.376 1377.68 183.376 1386.43 Q183.376 1395.16 180.297 1399.76 Q177.242 1404.35 171.431 1404.35 Q165.621 1404.35 162.543 1399.76 Q159.487 1395.16 159.487 1386.43 Q159.487 1377.68 162.543 1373.1 Q165.621 1368.49 171.431 1368.49 Z" fill="#000000" fill-rule="evenodd" fill-opacity="1" /><path clip-path="url(#clip240)" d="M 0 0 M162.473 1128.42 L180.83 1128.42 L180.83 1132.36 L166.756 1132.36 L166.756 1140.83 Q167.774 1140.48 168.793 1140.32 Q169.811 1140.14 170.83 1140.14 Q176.617 1140.14 179.996 1143.31 Q183.376 1146.48 183.376 1151.9 Q183.376 1157.47 179.904 1160.58 Q176.431 1163.65 170.112 1163.65 Q167.936 1163.65 165.668 1163.28 Q163.422 1162.91 161.015 1162.17 L161.015 1157.47 Q163.098 1158.61 165.32 1159.16 Q167.543 1159.72 170.019 1159.72 Q174.024 1159.72 176.362 1157.61 Q178.7 1155.51 178.7 1151.9 Q178.7 1148.28 176.362 1146.18 Q174.024 1144.07 170.019 1144.07 Q168.144 1144.07 166.269 1144.49 Q164.418 1144.9 162.473 1145.78 L162.473 1128.42 Z" fill="#000000" fill-rule="evenodd" fill-opacity="1" /><path clip-path="url(#clip240)" d="M 0 0 M132.08 918.355 L139.719 918.355 L139.719 891.989 L131.409 893.656 L131.409 889.397 L139.672 887.73 L144.348 887.73 L144.348 918.355 L151.987 918.355 L151.987 922.29 L132.08 922.29 L132.08 918.355 Z" fill="#000000" fill-rule="evenodd" fill-opacity="1" /><path clip-path="url(#clip240)" d="M 0 0 M171.431 890.809 Q167.82 890.809 165.992 894.374 Q164.186 897.915 164.186 905.045 Q164.186 912.151 165.992 915.716 Q167.82 919.258 171.431 919.258 Q175.066 919.258 176.871 915.716 Q178.7 912.151 178.7 905.045 Q178.7 897.915 176.871 894.374 Q175.066 890.809 171.431 890.809 M171.431 887.105 Q177.242 887.105 180.297 891.712 Q183.376 896.295 183.376 905.045 Q183.376 913.772 180.297 918.378 Q177.242 922.961 171.431 922.961 Q165.621 922.961 162.543 918.378 Q159.487 913.772 159.487 905.045 Q159.487 896.295 162.543 891.712 Q165.621 887.105 171.431 887.105 Z" fill="#000000" fill-rule="evenodd" fill-opacity="1" /><path clip-path="url(#clip240)" d="M 0 0 M133.075 677.662 L140.714 677.662 L140.714 651.297 L132.404 652.963 L132.404 648.704 L140.668 647.037 L145.344 647.037 L145.344 677.662 L152.983 677.662 L152.983 681.597 L133.075 681.597 L133.075 677.662 Z" fill="#000000" fill-rule="evenodd" fill-opacity="1" /><path clip-path="url(#clip240)" d="M 0 0 M162.473 647.037 L180.83 647.037 L180.83 650.973 L166.756 650.973 L166.756 659.445 Q167.774 659.098 168.793 658.936 Q169.811 658.75 170.83 658.75 Q176.617 658.75 179.996 661.922 Q183.376 665.093 183.376 670.51 Q183.376 676.088 179.904 679.19 Q176.431 682.269 170.112 682.269 Q167.936 682.269 165.668 681.898 Q163.422 681.528 161.015 680.787 L161.015 676.088 Q163.098 677.222 165.32 677.778 Q167.543 678.334 170.019 678.334 Q174.024 678.334 176.362 676.227 Q178.7 674.121 178.7 670.51 Q178.7 666.898 176.362 664.792 Q174.024 662.686 170.019 662.686 Q168.144 662.686 166.269 663.102 Q164.418 663.519 162.473 664.398 L162.473 647.037 Z" fill="#000000" fill-rule="evenodd" fill-opacity="1" /><path clip-path="url(#clip240)" d="M 0 0 M135.297 436.97 L151.617 436.97 L151.617 440.905 L129.672 440.905 L129.672 436.97 Q132.334 434.215 136.918 429.585 Q141.524 424.933 142.705 423.59 Q144.95 421.067 145.83 419.331 Q146.733 417.572 146.733 415.882 Q146.733 413.127 144.788 411.391 Q142.867 409.655 139.765 409.655 Q137.566 409.655 135.112 410.419 Q132.682 411.183 129.904 412.734 L129.904 408.011 Q132.728 406.877 135.182 406.298 Q137.635 405.72 139.672 405.72 Q145.043 405.72 148.237 408.405 Q151.432 411.09 151.432 415.581 Q151.432 417.71 150.621 419.632 Q149.834 421.53 147.728 424.122 Q147.149 424.794 144.047 428.011 Q140.946 431.206 135.297 436.97 Z" fill="#000000" fill-rule="evenodd" fill-opacity="1" /><path clip-path="url(#clip240)" d="M 0 0 M171.431 409.423 Q167.82 409.423 165.992 412.988 Q164.186 416.53 164.186 423.659 Q164.186 430.766 165.992 434.331 Q167.82 437.872 171.431 437.872 Q175.066 437.872 176.871 434.331 Q178.7 430.766 178.7 423.659 Q178.7 416.53 176.871 412.988 Q175.066 409.423 171.431 409.423 M171.431 405.72 Q177.242 405.72 180.297 410.326 Q183.376 414.909 183.376 423.659 Q183.376 432.386 180.297 436.993 Q177.242 441.576 171.431 441.576 Q165.621 441.576 162.543 436.993 Q159.487 432.386 159.487 423.659 Q159.487 414.909 162.543 410.326 Q165.621 405.72 171.431 405.72 Z" fill="#000000" fill-rule="evenodd" fill-opacity="1" /><path clip-path="url(#clip240)" d="M 0 0 M136.293 196.277 L152.612 196.277 L152.612 200.212 L130.668 200.212 L130.668 196.277 Q133.33 193.522 137.913 188.893 Q142.52 184.24 143.7 182.897 Q145.946 180.374 146.825 178.638 Q147.728 176.879 147.728 175.189 Q147.728 172.434 145.783 170.698 Q143.862 168.962 140.76 168.962 Q138.561 168.962 136.108 169.726 Q133.677 170.49 130.899 172.041 L130.899 167.319 Q133.723 166.184 136.177 165.606 Q138.631 165.027 140.668 165.027 Q146.038 165.027 149.233 167.712 Q152.427 170.397 152.427 174.888 Q152.427 177.018 151.617 178.939 Q150.83 180.837 148.723 183.43 Q148.145 184.101 145.043 187.319 Q141.941 190.513 136.293 196.277 Z" fill="#000000" fill-rule="evenodd" fill-opacity="1" /><path clip-path="url(#clip240)" d="M 0 0 M162.473 165.652 L180.83 165.652 L180.83 169.587 L166.756 169.587 L166.756 178.059 Q167.774 177.712 168.793 177.55 Q169.811 177.365 170.83 177.365 Q176.617 177.365 179.996 180.536 Q183.376 183.707 183.376 189.124 Q183.376 194.703 179.904 197.805 Q176.431 200.883 170.112 200.883 Q167.936 200.883 165.668 200.513 Q163.422 200.143 161.015 199.402 L161.015 194.703 Q163.098 195.837 165.32 196.393 Q167.543 196.948 170.019 196.948 Q174.024 196.948 176.362 194.842 Q178.7 192.735 178.7 189.124 Q178.7 185.513 176.362 183.407 Q174.024 181.3 170.019 181.3 Q168.144 181.3 166.269 181.717 Q164.418 182.133 162.473 183.013 L162.473 165.652 Z" fill="#000000" fill-rule="evenodd" fill-opacity="1" /><path clip-path="url(#clip240)" d="M 0 0 M49.6875 837.926 L50.6118 838.49 Q49.1013 841.984 46.6891 846.335 Q49.1013 850.686 50.6118 854.181 L49.6875 854.722 Q46.3735 850.912 43.826 846.335 Q46.396 841.714 49.6875 837.926 Z" fill="#000000" fill-rule="evenodd" fill-opacity="1" /><path clip-path="url(#clip240)" d="M 0 0 M60.7296 835.341 Q60.7618 835.341 61.9212 835.534 L91.1964 842.877 Q92.7423 843.263 94.2881 844.358 Q95.8662 845.421 97.2189 847.128 Q98.6037 848.803 99.4411 851.379 Q100.311 853.924 100.311 856.854 Q100.311 861.524 99.3122 863.585 Q98.3461 865.614 96.2849 865.614 Q94.4814 865.614 93.4508 864.487 Q92.4524 863.36 92.4524 862.072 Q92.4524 860.848 93.1609 860.204 Q93.8695 859.56 94.7712 859.56 Q95.7696 859.56 96.768 860.236 Q97.7986 860.912 98.185 862.265 Q98.8614 860.107 98.8614 856.983 Q98.8614 850.381 91.8727 847.547 Q91.7761 847.482 91.7439 847.482 L83.0161 845.292 L82.9517 845.389 Q83.5958 845.936 84.3365 846.806 Q85.0451 847.643 85.9146 849.447 Q86.7842 851.25 86.7842 853.022 Q86.7842 856.725 83.9501 859.27 Q81.0837 861.782 76.3495 861.782 Q72.9034 861.782 69.4574 860.397 Q65.9792 858.98 63.4349 856.79 Q60.8584 854.568 59.2482 851.734 Q57.6379 848.867 57.6379 846.098 Q57.6379 844.165 58.7973 842.523 Q59.9245 840.88 61.7924 839.978 Q60.2465 839.817 59.6024 838.948 Q58.9583 838.046 58.9583 837.273 Q58.9583 836.404 59.4414 835.888 Q59.8923 835.341 60.7296 835.341 M64.7554 840.751 Q64.5621 840.751 64.0468 840.88 Q63.4993 841.009 62.6298 841.395 Q61.7602 841.75 60.9873 842.297 Q60.2143 842.845 59.6668 843.843 Q59.0871 844.809 59.0871 846.033 Q59.0871 848.03 60.7618 850.027 Q62.4043 852.023 64.9486 853.408 Q67.3962 854.696 72.1305 855.92 Q76.8648 857.112 79.2802 857.112 Q81.6634 857.112 83.4992 856.081 Q85.3349 855.051 85.3349 852.829 Q85.3349 850.252 82.9517 847.482 Q80.4718 844.616 78.3462 844.133 L65.7537 840.945 Q64.9808 840.751 64.7554 840.751 Z" fill="#000000" fill-rule="evenodd" fill-opacity="1" /><path clip-path="url(#clip240)" d="M 0 0 M31.4713 827.305 Q23.671 827.305 17.3812 824.397 Q14.7436 823.157 12.5342 821.421 Q10.3249 819.685 9.35551 818.535 Q8.38611 817.386 8.38611 817.07 Q8.38611 816.619 8.837 816.597 Q9.06244 816.597 9.62604 817.205 Q17.2009 824.645 31.4713 824.622 Q45.7868 824.622 53.0685 817.386 Q53.8576 816.597 54.1056 816.597 Q54.5564 816.597 54.5564 817.07 Q54.5564 817.386 53.6321 818.49 Q52.7078 819.595 50.5887 821.308 Q48.4695 823.022 45.877 824.262 Q39.5872 827.305 31.4713 827.305 Z" fill="#000000" fill-rule="evenodd" fill-opacity="1" /><path clip-path="url(#clip240)" d="M 0 0 M43.0139 809.576 Q42.1797 809.576 41.9317 809.508 Q41.6838 809.418 41.3005 809.057 L31.4262 800.198 Q25.9705 795.351 21.2137 795.351 Q18.1252 795.351 15.9158 796.974 Q13.7065 798.574 13.7065 801.528 Q13.7065 803.557 14.9464 805.27 Q16.1864 806.983 18.3957 807.772 Q18.3506 807.637 18.3506 807.164 Q18.3506 806.014 19.072 805.383 Q19.7934 804.729 20.7628 804.729 Q22.0028 804.729 22.6114 805.541 Q23.1976 806.33 23.1976 807.119 Q23.1976 807.434 23.13 807.863 Q23.0623 808.268 22.4311 808.922 Q21.7773 809.576 20.6276 809.576 Q17.4038 809.576 14.8337 807.141 Q12.2637 804.684 12.2637 800.942 Q12.2637 796.703 14.7886 793.93 Q17.291 791.135 21.2137 791.135 Q22.5889 791.135 23.8514 791.563 Q25.0913 791.969 26.0607 792.533 Q27.0301 793.074 28.5856 794.562 Q30.1412 796.049 31.2458 797.244 Q32.3505 798.439 34.6951 801.122 L39.4519 806.014 L39.4519 797.695 Q39.4519 793.637 39.0912 793.322 Q38.4374 792.871 34.9882 792.307 L34.9882 791.135 L43.0139 792.442 L43.0139 809.576 Z" fill="#000000" fill-rule="evenodd" fill-opacity="1" /><path clip-path="url(#clip240)" d="M 0 0 M54.1056 786.711 Q53.8801 786.711 53.3165 786.125 Q45.7417 778.685 31.4713 778.685 Q17.1558 778.685 9.91911 785.832 Q9.08498 786.711 8.837 786.711 Q8.38611 786.711 8.38611 786.26 Q8.38611 785.945 9.31042 784.84 Q10.2347 783.713 12.3539 782.022 Q14.473 780.309 17.0656 779.046 Q23.3554 776.003 31.4713 776.003 Q39.2715 776.003 45.5613 778.911 Q48.199 780.151 50.4083 781.887 Q52.6176 783.623 53.587 784.772 Q54.5564 785.922 54.5564 786.26 Q54.5564 786.711 54.1056 786.711 Z" fill="#000000" fill-rule="evenodd" fill-opacity="1" /><path clip-path="url(#clip240)" d="M 0 0 M70.2948 761.942 Q59.1515 761.942 50.1661 757.787 Q46.398 756.016 43.2418 753.536 Q40.0857 751.056 38.7008 749.414 Q37.316 747.771 37.316 747.32 Q37.316 746.676 37.9601 746.644 Q38.2821 746.644 39.0873 747.514 Q49.9085 758.142 70.2948 758.109 Q90.7455 758.109 101.148 747.771 Q102.275 746.644 102.629 746.644 Q103.274 746.644 103.274 747.32 Q103.274 747.771 101.953 749.349 Q100.633 750.927 97.6053 753.375 Q94.578 755.823 90.8743 757.594 Q81.8889 761.942 70.2948 761.942 Z" fill="#000000" fill-rule="evenodd" fill-opacity="1" /><path clip-path="url(#clip240)" d="M 0 0 M59.4092 705.568 Q59.699 705.568 60.6974 705.826 Q61.6636 706.051 63.5637 706.792 Q65.4317 707.5 67.5251 708.595 Q69.5862 709.658 72.1949 711.623 Q74.8036 713.587 77.0902 716.035 Q81.4058 720.64 83.7246 725.568 Q86.0434 730.463 86.7842 734.65 L86.7842 735.584 Q86.7842 736.614 85.979 736.614 L83.0161 735.906 L66.8809 731.88 Q61.9534 730.624 61.5348 730.624 Q61.1483 730.624 60.9551 730.785 Q60.7296 730.914 60.5686 731.687 Q60.4076 732.428 60.4076 733.909 Q60.4076 734.521 60.3754 734.811 Q60.3432 735.069 60.1821 735.294 Q59.9889 735.519 59.6024 735.519 Q59.0549 735.519 58.7651 735.294 Q58.443 735.036 58.3786 734.843 Q58.3142 734.65 58.282 734.263 Q58.2498 733.716 58.0887 731.88 Q57.8955 730.044 57.7667 728.466 Q57.6379 726.888 57.6379 726.212 Q57.6379 725.826 57.8311 725.6 Q57.9921 725.375 58.1854 725.375 L58.3464 725.342 L84.5942 731.816 Q83.8212 729.433 82.533 727.082 Q81.2448 724.698 79.1192 722.122 Q76.9614 719.545 74.2883 717.355 Q71.6152 715.165 67.8793 713.233 Q64.1112 711.268 59.7957 710.045 Q58.9261 709.819 58.4108 709.272 Q57.8955 708.692 57.7667 708.273 Q57.6379 707.855 57.6379 707.468 Q57.6379 706.599 58.121 706.083 Q58.5718 705.568 59.4092 705.568 Z" fill="#000000" fill-rule="evenodd" fill-opacity="1" /><path clip-path="url(#clip240)" d="M 0 0 M102.629 704.365 Q102.307 704.365 101.502 703.528 Q90.6811 692.9 70.2948 692.9 Q49.844 692.9 39.506 703.109 Q38.3143 704.365 37.9601 704.365 Q37.316 704.365 37.316 703.721 Q37.316 703.27 38.6364 701.692 Q39.9568 700.082 42.9842 697.666 Q46.0115 695.219 49.7152 693.415 Q58.7007 689.067 70.2948 689.067 Q81.438 689.067 90.4234 693.222 Q94.1915 694.993 97.3477 697.473 Q100.504 699.953 101.889 701.595 Q103.274 703.238 103.274 703.721 Q103.274 704.365 102.629 704.365 Z" fill="#000000" fill-rule="evenodd" fill-opacity="1" /><path clip-path="url(#clip240)" d="M 0 0 M604.582 18.8205 L604.582 41.5461 L614.872 41.5461 Q620.583 41.5461 623.703 38.5889 Q626.822 35.6318 626.822 30.163 Q626.822 24.7348 623.703 21.7777 Q620.583 18.8205 614.872 18.8205 L604.582 18.8205 M596.399 12.096 L614.872 12.096 Q625.039 12.096 630.224 16.714 Q635.45 21.2916 635.45 30.163 Q635.45 39.1155 630.224 43.6931 Q625.039 48.2706 614.872 48.2706 L604.582 48.2706 L604.582 72.576 L596.399 72.576 L596.399 12.096 Z" fill="#000000" fill-rule="evenodd" fill-opacity="1" /><path clip-path="url(#clip240)" d="M 0 0 M683.818 45.1919 L683.818 72.576 L676.364 72.576 L676.364 45.4349 Q676.364 38.994 673.853 35.7938 Q671.341 32.5936 666.318 32.5936 Q660.282 32.5936 656.798 36.4419 Q653.315 40.2903 653.315 46.9338 L653.315 72.576 L645.82 72.576 L645.82 9.54393 L653.315 9.54393 L653.315 34.2544 Q655.988 30.163 659.594 28.1376 Q663.239 26.1121 667.979 26.1121 Q675.797 26.1121 679.808 30.9732 Q683.818 35.7938 683.818 45.1919 Z" fill="#000000" fill-rule="evenodd" fill-opacity="1" /><path clip-path="url(#clip240)" d="M 0 0 M716.266 32.4315 Q710.27 32.4315 706.787 37.1306 Q703.303 41.7891 703.303 49.9314 Q703.303 58.0738 706.746 62.7728 Q710.23 67.4314 716.266 67.4314 Q722.221 67.4314 725.704 62.7323 Q729.188 58.0333 729.188 49.9314 Q729.188 41.8701 725.704 37.1711 Q722.221 32.4315 716.266 32.4315 M716.266 26.1121 Q725.988 26.1121 731.538 32.4315 Q737.087 38.7509 737.087 49.9314 Q737.087 61.0714 731.538 67.4314 Q725.988 73.7508 716.266 73.7508 Q706.503 73.7508 700.953 67.4314 Q695.444 61.0714 695.444 49.9314 Q695.444 38.7509 700.953 32.4315 Q706.503 26.1121 716.266 26.1121 Z" fill="#000000" fill-rule="evenodd" fill-opacity="1" /><path clip-path="url(#clip240)" d="M 0 0 M756.815 14.324 L756.815 27.2059 L772.168 27.2059 L772.168 32.9987 L756.815 32.9987 L756.815 57.6282 Q756.815 63.1779 758.314 64.7578 Q759.853 66.3376 764.512 66.3376 L772.168 66.3376 L772.168 72.576 L764.512 72.576 Q755.884 72.576 752.602 69.3758 Q749.321 66.1351 749.321 57.6282 L749.321 32.9987 L743.852 32.9987 L743.852 27.2059 L749.321 27.2059 L749.321 14.324 L756.815 14.324 Z" fill="#000000" fill-rule="evenodd" fill-opacity="1" /><path clip-path="url(#clip240)" d="M 0 0 M799.552 32.4315 Q793.557 32.4315 790.073 37.1306 Q786.589 41.7891 786.589 49.9314 Q786.589 58.0738 790.033 62.7728 Q793.516 67.4314 799.552 67.4314 Q805.507 67.4314 808.991 62.7323 Q812.475 58.0333 812.475 49.9314 Q812.475 41.8701 808.991 37.1711 Q805.507 32.4315 799.552 32.4315 M799.552 26.1121 Q809.274 26.1121 814.824 32.4315 Q820.374 38.7509 820.374 49.9314 Q820.374 61.0714 814.824 67.4314 Q809.274 73.7508 799.552 73.7508 Q789.79 73.7508 784.24 67.4314 Q778.731 61.0714 778.731 49.9314 Q778.731 38.7509 784.24 32.4315 Q789.79 26.1121 799.552 26.1121 Z" fill="#000000" fill-rule="evenodd" fill-opacity="1" /><path clip-path="url(#clip240)" d="M 0 0 M870.443 45.1919 L870.443 72.576 L862.989 72.576 L862.989 45.4349 Q862.989 38.994 860.478 35.7938 Q857.966 32.5936 852.943 32.5936 Q846.907 32.5936 843.424 36.4419 Q839.94 40.2903 839.94 46.9338 L839.94 72.576 L832.446 72.576 L832.446 27.2059 L839.94 27.2059 L839.94 34.2544 Q842.613 30.163 846.219 28.1376 Q849.865 26.1121 854.604 26.1121 Q862.422 26.1121 866.433 30.9732 Q870.443 35.7938 870.443 45.1919 Z" fill="#000000" fill-rule="evenodd" fill-opacity="1" /><path clip-path="url(#clip240)" d="M 0 0 M957.294 16.7545 L957.294 25.383 Q953.163 21.5346 948.464 19.6307 Q943.805 17.7268 938.539 17.7268 Q928.168 17.7268 922.659 24.0867 Q917.15 30.4061 917.15 42.3968 Q917.15 54.3469 922.659 60.7069 Q928.168 67.0263 938.539 67.0263 Q943.805 67.0263 948.464 65.1223 Q953.163 63.2184 957.294 59.3701 L957.294 67.9175 Q953.001 70.8341 948.18 72.2924 Q943.4 73.7508 938.053 73.7508 Q924.32 73.7508 916.421 65.3654 Q908.522 56.9395 908.522 42.3968 Q908.522 27.8135 916.421 19.4281 Q924.32 11.0023 938.053 11.0023 Q943.481 11.0023 948.261 12.4606 Q953.082 13.8784 957.294 16.7545 Z" fill="#000000" fill-rule="evenodd" fill-opacity="1" /><path clip-path="url(#clip240)" d="M 0 0 M987.19 32.4315 Q981.195 32.4315 977.711 37.1306 Q974.227 41.7891 974.227 49.9314 Q974.227 58.0738 977.671 62.7728 Q981.154 67.4314 987.19 67.4314 Q993.145 67.4314 996.629 62.7323 Q1000.11 58.0333 1000.11 49.9314 Q1000.11 41.8701 996.629 37.1711 Q993.145 32.4315 987.19 32.4315 M987.19 26.1121 Q996.912 26.1121 1002.46 32.4315 Q1008.01 38.7509 1008.01 49.9314 Q1008.01 61.0714 1002.46 67.4314 Q996.912 73.7508 987.19 73.7508 Q977.427 73.7508 971.878 67.4314 Q966.369 61.0714 966.369 49.9314 Q966.369 38.7509 971.878 32.4315 Q977.427 26.1121 987.19 26.1121 Z" fill="#000000" fill-rule="evenodd" fill-opacity="1" /><path clip-path="url(#clip240)" d="M 0 0 M1046.66 34.1734 Q1045.4 33.4443 1043.9 33.1202 Q1042.44 32.7556 1040.66 32.7556 Q1034.34 32.7556 1030.94 36.8875 Q1027.58 40.9789 1027.58 48.6757 L1027.58 72.576 L1020.08 72.576 L1020.08 27.2059 L1027.58 27.2059 L1027.58 34.2544 Q1029.93 30.1225 1033.69 28.1376 Q1037.46 26.1121 1042.85 26.1121 Q1043.62 26.1121 1044.55 26.2337 Q1045.48 26.3147 1046.62 26.5172 L1046.66 34.1734 Z" fill="#000000" fill-rule="evenodd" fill-opacity="1" /><path clip-path="url(#clip240)" d="M 0 0 M1079.31 34.1734 Q1078.05 33.4443 1076.55 33.1202 Q1075.09 32.7556 1073.31 32.7556 Q1066.99 32.7556 1063.59 36.8875 Q1060.23 40.9789 1060.23 48.6757 L1060.23 72.576 L1052.73 72.576 L1052.73 27.2059 L1060.23 27.2059 L1060.23 34.2544 Q1062.58 30.1225 1066.34 28.1376 Q1070.11 26.1121 1075.5 26.1121 Q1076.27 26.1121 1077.2 26.2337 Q1078.13 26.3147 1079.27 26.5172 L1079.31 34.1734 Z" fill="#000000" fill-rule="evenodd" fill-opacity="1" /><path clip-path="url(#clip240)" d="M 0 0 M1124.11 48.0275 L1124.11 51.6733 L1089.84 51.6733 Q1090.33 59.3701 1094.46 63.421 Q1098.63 67.4314 1106.04 67.4314 Q1110.34 67.4314 1114.35 66.3781 Q1118.4 65.3249 1122.37 63.2184 L1122.37 70.267 Q1118.36 71.9684 1114.15 72.8596 Q1109.93 73.7508 1105.6 73.7508 Q1094.74 73.7508 1088.38 67.4314 Q1082.06 61.1119 1082.06 50.3365 Q1082.06 39.1965 1088.06 32.6746 Q1094.09 26.1121 1104.3 26.1121 Q1113.46 26.1121 1118.76 32.0264 Q1124.11 37.9003 1124.11 48.0275 M1116.66 45.84 Q1116.58 39.7232 1113.21 36.0774 Q1109.89 32.4315 1104.38 32.4315 Q1098.14 32.4315 1094.38 35.9558 Q1090.65 39.4801 1090.08 45.8805 L1116.66 45.84 Z" fill="#000000" fill-rule="evenodd" fill-opacity="1" /><path clip-path="url(#clip240)" d="M 0 0 M1136.34 9.54393 L1143.8 9.54393 L1143.8 72.576 L1136.34 72.576 L1136.34 9.54393 Z" fill="#000000" fill-rule="evenodd" fill-opacity="1" /><path clip-path="url(#clip240)" d="M 0 0 M1180.01 49.7694 Q1170.98 49.7694 1167.5 51.8354 Q1164.01 53.9013 1164.01 58.8839 Q1164.01 62.8538 1166.6 65.2034 Q1169.24 67.5124 1173.73 67.5124 Q1179.93 67.5124 1183.66 63.1374 Q1187.43 58.7219 1187.43 51.4303 L1187.43 49.7694 L1180.01 49.7694 M1194.88 46.6907 L1194.88 72.576 L1187.43 72.576 L1187.43 65.6895 Q1184.87 69.8214 1181.07 71.8063 Q1177.26 73.7508 1171.75 73.7508 Q1164.78 73.7508 1160.65 69.8619 Q1156.56 65.9325 1156.56 59.3701 Q1156.56 51.7138 1161.66 47.825 Q1166.81 43.9361 1176.98 43.9361 L1187.43 43.9361 L1187.43 43.2069 Q1187.43 38.0623 1184.02 35.2672 Q1180.66 32.4315 1174.54 32.4315 Q1170.66 32.4315 1166.97 33.3632 Q1163.28 34.295 1159.88 36.1584 L1159.88 29.2718 Q1163.97 27.692 1167.82 26.9223 Q1171.67 26.1121 1175.31 26.1121 Q1185.16 26.1121 1190.02 31.2163 Q1194.88 36.3204 1194.88 46.6907 Z" fill="#000000" fill-rule="evenodd" fill-opacity="1" /><path clip-path="url(#clip240)" d="M 0 0 M1217.61 14.324 L1217.61 27.2059 L1232.96 27.2059 L1232.96 32.9987 L1217.61 32.9987 L1217.61 57.6282 Q1217.61 63.1779 1219.1 64.7578 Q1220.64 66.3376 1225.3 66.3376 L1232.96 66.3376 L1232.96 72.576 L1225.3 72.576 Q1216.67 72.576 1213.39 69.3758 Q1210.11 66.1351 1210.11 57.6282 L1210.11 32.9987 L1204.64 32.9987 L1204.64 27.2059 L1210.11 27.2059 L1210.11 14.324 L1217.61 14.324 Z" fill="#000000" fill-rule="evenodd" fill-opacity="1" /><path clip-path="url(#clip240)" d="M 0 0 M1242.76 27.2059 L1250.22 27.2059 L1250.22 72.576 L1242.76 72.576 L1242.76 27.2059 M1242.76 9.54393 L1250.22 9.54393 L1250.22 18.9825 L1242.76 18.9825 L1242.76 9.54393 Z" fill="#000000" fill-rule="evenodd" fill-opacity="1" /><path clip-path="url(#clip240)" d="M 0 0 M1283.39 32.4315 Q1277.4 32.4315 1273.91 37.1306 Q1270.43 41.7891 1270.43 49.9314 Q1270.43 58.0738 1273.87 62.7728 Q1277.36 67.4314 1283.39 67.4314 Q1289.35 67.4314 1292.83 62.7323 Q1296.31 58.0333 1296.31 49.9314 Q1296.31 41.8701 1292.83 37.1711 Q1289.35 32.4315 1283.39 32.4315 M1283.39 26.1121 Q1293.11 26.1121 1298.66 32.4315 Q1304.21 38.7509 1304.21 49.9314 Q1304.21 61.0714 1298.66 67.4314 Q1293.11 73.7508 1283.39 73.7508 Q1273.63 73.7508 1268.08 67.4314 Q1262.57 61.0714 1262.57 49.9314 Q1262.57 38.7509 1268.08 32.4315 Q1273.63 26.1121 1283.39 26.1121 Z" fill="#000000" fill-rule="evenodd" fill-opacity="1" /><path clip-path="url(#clip240)" d="M 0 0 M1354.28 45.1919 L1354.28 72.576 L1346.83 72.576 L1346.83 45.4349 Q1346.83 38.994 1344.32 35.7938 Q1341.81 32.5936 1336.78 32.5936 Q1330.75 32.5936 1327.26 36.4419 Q1323.78 40.2903 1323.78 46.9338 L1323.78 72.576 L1316.29 72.576 L1316.29 27.2059 L1323.78 27.2059 L1323.78 34.2544 Q1326.45 30.163 1330.06 28.1376 Q1333.7 26.1121 1338.44 26.1121 Q1346.26 26.1121 1350.27 30.9732 Q1354.28 35.7938 1354.28 45.1919 Z" fill="#000000" fill-rule="evenodd" fill-opacity="1" /><path clip-path="url(#clip240)" d="M 0 0 M1398.07 28.5427 L1398.07 35.5912 Q1394.91 33.9709 1391.51 33.1607 Q1388.11 32.3505 1384.46 32.3505 Q1378.91 32.3505 1376.12 34.0519 Q1373.36 35.7533 1373.36 39.156 Q1373.36 41.7486 1375.35 43.2475 Q1377.33 44.7058 1383.33 46.0426 L1385.88 46.6097 Q1393.82 48.3111 1397.14 51.4303 Q1400.5 54.509 1400.5 60.0587 Q1400.5 66.3781 1395.48 70.0644 Q1390.5 73.7508 1381.75 73.7508 Q1378.1 73.7508 1374.13 73.0216 Q1370.2 72.3329 1365.83 70.9151 L1365.83 63.2184 Q1369.96 65.3654 1373.97 66.4591 Q1377.98 67.5124 1381.91 67.5124 Q1387.18 67.5124 1390.01 65.73 Q1392.85 63.9071 1392.85 60.6258 Q1392.85 57.5877 1390.78 55.9673 Q1388.76 54.3469 1381.83 52.8481 L1379.24 52.2405 Q1372.31 50.7821 1369.23 47.7845 Q1366.15 44.7463 1366.15 39.4801 Q1366.15 33.0797 1370.69 29.5959 Q1375.23 26.1121 1383.57 26.1121 Q1387.7 26.1121 1391.35 26.7198 Q1394.99 27.3274 1398.07 28.5427 Z" fill="#000000" fill-rule="evenodd" fill-opacity="1" /><path clip-path="url(#clip240)" d="M 0 0 M1433.4 27.2059 L1441.3 27.2059 L1455.47 65.2844 L1469.65 27.2059 L1477.55 27.2059 L1460.54 72.576 L1450.41 72.576 L1433.4 27.2059 Z" fill="#000000" fill-rule="evenodd" fill-opacity="1" /><path clip-path="url(#clip240)" d="M 0 0 M1516.76 28.5427 L1516.76 35.5912 Q1513.61 33.9709 1510.2 33.1607 Q1506.8 32.3505 1503.15 32.3505 Q1497.6 32.3505 1494.81 34.0519 Q1492.05 35.7533 1492.05 39.156 Q1492.05 41.7486 1494.04 43.2475 Q1496.02 44.7058 1502.02 46.0426 L1504.57 46.6097 Q1512.51 48.3111 1515.83 51.4303 Q1519.2 54.509 1519.2 60.0587 Q1519.2 66.3781 1514.17 70.0644 Q1509.19 73.7508 1500.44 73.7508 Q1496.79 73.7508 1492.82 73.0216 Q1488.89 72.3329 1484.52 70.9151 L1484.52 63.2184 Q1488.65 65.3654 1492.66 66.4591 Q1496.67 67.5124 1500.6 67.5124 Q1505.87 67.5124 1508.7 65.73 Q1511.54 63.9071 1511.54 60.6258 Q1511.54 57.5877 1509.47 55.9673 Q1507.45 54.3469 1500.52 52.8481 L1497.93 52.2405 Q1491 50.7821 1487.92 47.7845 Q1484.84 44.7463 1484.84 39.4801 Q1484.84 33.0797 1489.38 29.5959 Q1493.92 26.1121 1502.26 26.1121 Q1506.39 26.1121 1510.04 26.7198 Q1513.69 27.3274 1516.76 28.5427 Z" fill="#000000" fill-rule="evenodd" fill-opacity="1" /><path clip-path="url(#clip240)" d="M 0 0 M1557.76 12.096 L1592.52 12.096 L1592.52 18.9825 L1565.94 18.9825 L1565.94 36.8065 L1589.92 36.8065 L1589.92 43.6931 L1565.94 43.6931 L1565.94 72.576 L1557.76 72.576 L1557.76 12.096 Z" fill="#000000" fill-rule="evenodd" fill-opacity="1" /><path clip-path="url(#clip240)" d="M 0 0 M1625.41 34.1734 Q1624.15 33.4443 1622.66 33.1202 Q1621.2 32.7556 1619.41 32.7556 Q1613.1 32.7556 1609.69 36.8875 Q1606.33 40.9789 1606.33 48.6757 L1606.33 72.576 L1598.84 72.576 L1598.84 27.2059 L1606.33 27.2059 L1606.33 34.2544 Q1608.68 30.1225 1612.45 28.1376 Q1616.21 26.1121 1621.6 26.1121 Q1622.37 26.1121 1623.3 26.2337 Q1624.24 26.3147 1625.37 26.5172 L1625.41 34.1734 Z" fill="#000000" fill-rule="evenodd" fill-opacity="1" /><path clip-path="url(#clip240)" d="M 0 0 M1670.21 48.0275 L1670.21 51.6733 L1635.94 51.6733 Q1636.43 59.3701 1640.56 63.421 Q1644.73 67.4314 1652.15 67.4314 Q1656.44 67.4314 1660.45 66.3781 Q1664.5 65.3249 1668.47 63.2184 L1668.47 70.267 Q1664.46 71.9684 1660.25 72.8596 Q1656.03 73.7508 1651.7 73.7508 Q1640.84 73.7508 1634.48 67.4314 Q1628.16 61.1119 1628.16 50.3365 Q1628.16 39.1965 1634.16 32.6746 Q1640.2 26.1121 1650.4 26.1121 Q1659.56 26.1121 1664.87 32.0264 Q1670.21 37.9003 1670.21 48.0275 M1662.76 45.84 Q1662.68 39.7232 1659.32 36.0774 Q1655.99 32.4315 1650.49 32.4315 Q1644.25 32.4315 1640.48 35.9558 Q1636.75 39.4801 1636.19 45.8805 L1662.76 45.84 Z" fill="#000000" fill-rule="evenodd" fill-opacity="1" /><path clip-path="url(#clip240)" d="M 0 0 M1686.9 49.9314 Q1686.9 58.1548 1690.27 62.8538 Q1693.67 67.5124 1699.58 67.5124 Q1705.5 67.5124 1708.9 62.8538 Q1712.3 58.1548 1712.3 49.9314 Q1712.3 41.7081 1708.9 37.0496 Q1705.5 32.3505 1699.58 32.3505 Q1693.67 32.3505 1690.27 37.0496 Q1686.9 41.7081 1686.9 49.9314 M1712.3 65.7705 Q1709.95 69.8214 1706.35 71.8063 Q1702.78 73.7508 1697.76 73.7508 Q1689.54 73.7508 1684.35 67.1883 Q1679.21 60.6258 1679.21 49.9314 Q1679.21 39.2371 1684.35 32.6746 Q1689.54 26.1121 1697.76 26.1121 Q1702.78 26.1121 1706.35 28.0971 Q1709.95 30.0415 1712.3 34.0924 L1712.3 27.2059 L1719.76 27.2059 L1719.76 89.8329 L1712.3 89.8329 L1712.3 65.7705 Z" fill="#000000" fill-rule="evenodd" fill-opacity="1" /><path clip-path="url(#clip240)" d="M 0 0 M1734.34 54.671 L1734.34 27.2059 L1741.79 27.2059 L1741.79 54.3874 Q1741.79 60.8284 1744.3 64.0691 Q1746.82 67.2693 1751.84 67.2693 Q1757.87 67.2693 1761.36 63.421 Q1764.88 59.5726 1764.88 52.9291 L1764.88 27.2059 L1772.34 27.2059 L1772.34 72.576 L1764.88 72.576 L1764.88 65.6084 Q1762.17 69.7404 1758.56 71.7658 Q1755 73.7508 1750.26 73.7508 Q1742.44 73.7508 1738.39 68.8897 Q1734.34 64.0286 1734.34 54.671 M1753.09 26.1121 L1753.09 26.1121 Z" fill="#000000" fill-rule="evenodd" fill-opacity="1" /><path clip-path="url(#clip240)" d="M 0 0 M1826.5 48.0275 L1826.5 51.6733 L1792.23 51.6733 Q1792.71 59.3701 1796.84 63.421 Q1801.02 67.4314 1808.43 67.4314 Q1812.72 67.4314 1816.73 66.3781 Q1820.79 65.3249 1824.76 63.2184 L1824.76 70.267 Q1820.74 71.9684 1816.53 72.8596 Q1812.32 73.7508 1807.98 73.7508 Q1797.13 73.7508 1790.77 67.4314 Q1784.45 61.1119 1784.45 50.3365 Q1784.45 39.1965 1790.44 32.6746 Q1796.48 26.1121 1806.69 26.1121 Q1815.84 26.1121 1821.15 32.0264 Q1826.5 37.9003 1826.5 48.0275 M1819.04 45.84 Q1818.96 39.7232 1815.6 36.0774 Q1812.28 32.4315 1806.77 32.4315 Q1800.53 32.4315 1796.76 35.9558 Q1793.04 39.4801 1792.47 45.8805 L1819.04 45.84 Z" fill="#000000" fill-rule="evenodd" fill-opacity="1" /><path clip-path="url(#clip240)" d="M 0 0 M1876.44 45.1919 L1876.44 72.576 L1868.99 72.576 L1868.99 45.4349 Q1868.99 38.994 1866.48 35.7938 Q1863.97 32.5936 1858.94 32.5936 Q1852.91 32.5936 1849.43 36.4419 Q1845.94 40.2903 1845.94 46.9338 L1845.94 72.576 L1838.45 72.576 L1838.45 27.2059 L1845.94 27.2059 L1845.94 34.2544 Q1848.61 30.163 1852.22 28.1376 Q1855.87 26.1121 1860.61 26.1121 Q1868.42 26.1121 1872.43 30.9732 Q1876.44 35.7938 1876.44 45.1919 Z" fill="#000000" fill-rule="evenodd" fill-opacity="1" /><path clip-path="url(#clip240)" d="M 0 0 M1923.96 28.9478 L1923.96 35.9153 Q1920.8 34.1734 1917.6 33.3227 Q1914.44 32.4315 1911.2 32.4315 Q1903.95 32.4315 1899.94 37.0496 Q1895.93 41.6271 1895.93 49.9314 Q1895.93 58.2358 1899.94 62.8538 Q1903.95 67.4314 1911.2 67.4314 Q1914.44 67.4314 1917.6 66.5807 Q1920.8 65.6895 1923.96 63.9476 L1923.96 70.8341 Q1920.84 72.2924 1917.48 73.0216 Q1914.16 73.7508 1910.39 73.7508 Q1900.14 73.7508 1894.11 67.3098 Q1888.07 60.8689 1888.07 49.9314 Q1888.07 38.832 1894.15 32.472 Q1900.26 26.1121 1910.88 26.1121 Q1914.32 26.1121 1917.6 26.8413 Q1920.88 27.5299 1923.96 28.9478 Z" fill="#000000" fill-rule="evenodd" fill-opacity="1" /><path clip-path="url(#clip240)" d="M 0 0 M1955.8 76.7889 Q1952.64 84.8907 1949.64 87.3618 Q1946.65 89.8329 1941.62 89.8329 L1935.67 89.8329 L1935.67 83.5945 L1940.04 83.5945 Q1943.12 83.5945 1944.82 82.1361 Q1946.53 80.6778 1948.59 75.2496 L1949.93 71.8468 L1931.58 27.2059 L1939.48 27.2059 L1953.65 62.6918 L1967.83 27.2059 L1975.73 27.2059 L1955.8 76.7889 Z" fill="#000000" fill-rule="evenodd" fill-opacity="1" /><polyline clip-path="url(#clip243)" style="stroke:#009af9; stroke-width:4; stroke-opacity:1; fill:none" points="
  279.755,1386.4 280.562,1355.83 281.369,1352.58 282.176,1335.86 282.982,1358.77 283.789,1346.52 284.596,1300.39 285.403,1315.78 286.21,1357.83 287.017,1302.83 
  287.824,1357.71 288.631,1352.99 289.438,1355.33 290.245,1357.54 291.052,1341.56 291.859,1256.1 292.666,1312.49 293.473,1322.09 294.28,1338.04 295.087,1331.52 
  295.894,1320.88 296.701,1314.33 297.508,1293.68 298.315,1340.3 299.122,1307.71 299.929,1292.78 300.736,1340.06 301.543,1345 302.35,1286.71 303.157,1372.18 
  303.964,1304.63 304.771,1312.64 305.578,1361.7 306.385,1304.26 307.192,1341.13 307.999,1345.42 308.806,1299.73 309.613,1338.98 310.42,1322.78 311.227,1346.57 
  312.034,1320.34 312.841,1220.26 313.648,1319.71 314.455,1339.07 315.262,1323.23 316.069,1362.19 316.876,1255.92 317.683,1298.2 318.49,1223.71 319.297,1095.45 
  320.104,160.256 320.911,1173.54 321.718,1315.08 322.525,1294.3 323.332,1331.89 324.139,1368.98 324.946,1299.32 325.753,1332.65 326.56,1345.57 327.367,1338.1 
  328.174,1337.5 328.981,1198.04 329.788,1195.89 330.595,1344.9 331.402,1326.24 332.209,1332.45 333.016,1346.05 333.823,1351.51 334.63,1286.37 335.437,1261.1 
  336.244,1344.64 337.051,1359.79 337.858,1358.05 338.665,1331.3 339.471,1283.43 340.278,1164.93 341.085,1310.63 341.892,1322.32 342.699,1305.48 343.506,1345.38 
  344.313,1328.56 345.12,1322.38 345.927,1305.87 346.734,1322.9 347.541,1369.93 348.348,1349.21 349.155,1343.06 349.962,1337.88 350.769,1383.76 351.576,1329.99 
  352.383,1348.73 353.19,1329.16 353.997,1321.55 354.804,1288.43 355.611,1374.63 356.418,1331.72 357.225,1360.48 358.032,1323.85 358.839,1358.18 359.646,1366.67 
  360.453,1320.75 361.26,1305.05 362.067,1343.05 362.874,1368 363.681,1319.84 364.488,1213.8 365.295,1316.2 366.102,1342.53 366.909,1352.66 367.716,1341.39 
  368.523,1325.55 369.33,1373 370.137,1328.16 370.944,1343.19 371.751,1335.4 372.558,1325.38 373.365,1337.46 374.172,1329.13 374.979,1326.15 375.786,1331.62 
  376.593,1335.75 377.4,1313.25 378.207,1337.77 379.014,1342.76 379.821,1337.21 380.628,1314.79 381.435,1339.04 382.242,1368.91 383.049,1340.13 383.856,1347.37 
  384.663,1372.55 385.47,1333.34 386.277,1290.25 387.084,1275.49 387.891,1327.58 388.698,1376.56 389.505,1332.02 390.312,1287.49 391.119,1379.25 391.926,1359.34 
  392.733,1331.93 393.54,1350.23 394.347,1314.31 395.154,1287.75 395.961,1324.16 396.767,1349.86 397.574,1273.93 398.381,1381.69 399.188,1354.36 399.995,1325.12 
  400.802,1241.33 401.609,1278.09 402.416,1297.83 403.223,1239.35 404.03,1353.8 404.837,1301.57 405.644,1322.59 406.451,1375.14 407.258,1353.4 408.065,1320.81 
  408.872,1334.04 409.679,1363.16 410.486,1357.35 411.293,1373 412.1,1302.91 412.907,1310.4 413.714,1348.46 414.521,1340.71 415.328,1355.46 416.135,1343.35 
  416.942,1331.03 417.749,1355 418.556,1374.21 419.363,1363.55 420.17,1358.08 420.977,1351.25 421.784,1362.7 422.591,1318.17 423.398,1345.97 424.205,1278.4 
  425.012,1277.65 425.819,1348.9 426.626,1294.79 427.433,1311.24 428.24,1373.49 429.047,1353.13 429.854,1370.46 430.661,1357.86 431.468,1351.85 432.275,1363.5 
  433.082,1347.64 433.889,1380.36 434.696,1253.53 435.503,1318.58 436.31,1366.82 437.117,1343.04 437.924,1358.26 438.731,1366.75 439.538,1352.82 440.345,1344.46 
  441.152,1312.12 441.959,1361.49 442.766,1365.89 443.573,1344.12 444.38,1347.84 445.187,1272.52 445.994,1299.06 446.801,1359.25 447.608,1269.34 448.415,1254.83 
  449.222,1245.59 450.029,1360.93 450.836,1316.98 451.643,1368.47 452.45,1367.8 453.257,1329.91 454.063,1371.88 454.87,1351.94 455.677,1285.17 456.484,1327.97 
  457.291,1316.65 458.098,1302.01 458.905,1333.96 459.712,1319 460.519,1382.47 461.326,1322.01 462.133,1343.67 462.94,1365.19 463.747,1371.4 464.554,1337.89 
  465.361,1336.3 466.168,1350.68 466.975,1368.72 467.782,1349.47 468.589,1318.91 469.396,1334.7 470.203,1351.29 471.01,1337.97 471.817,1373.89 472.624,1346.28 
  473.431,1331.45 474.238,1298.27 475.045,1304.08 475.852,1357.6 476.659,1316.5 477.466,1344.7 478.273,1330.89 479.08,1351.96 479.887,1331.23 480.694,1367.58 
  481.501,1358.39 482.308,1352.01 483.115,1372.46 483.922,1331.18 484.729,1349.1 485.536,1292.61 486.343,1345.43 487.15,1354.09 487.957,1370.76 488.764,1277.81 
  489.571,1295.13 490.378,1173 491.185,1306.98 491.992,1278.32 492.799,1316.57 493.606,1309.62 494.413,1284.18 495.22,1309.62 496.027,1309.47 496.834,1351.04 
  497.641,1302.69 498.448,1324.74 499.255,1357.51 500.062,1323.64 500.869,1333.18 501.676,1367.66 502.483,1334.72 503.29,1198.52 504.097,1325.71 504.904,1351.39 
  505.711,1372.48 506.518,1324.84 507.325,1349.94 508.132,1332.46 508.939,1339.61 509.746,1364.86 510.552,1338.09 511.359,1346.81 512.166,1375.45 512.973,1282.83 
  513.78,1349.49 514.587,1368.33 515.394,1346 516.201,1348.52 517.008,1363.65 517.815,1272.2 518.622,1372.96 519.429,1310.97 520.236,1376.86 521.043,1344.74 
  521.85,1326.69 522.657,1324.81 523.464,1361.8 524.271,1368.35 525.078,1345.75 525.885,1324.24 526.692,1317.19 527.499,1378.61 528.306,1342.51 529.113,1361.24 
  529.92,1303.79 530.727,1290 531.534,1320.96 532.341,1342.04 533.148,1342.16 533.955,1362.89 534.762,1330.34 535.569,1359 536.376,1334.29 537.183,1247.73 
  537.99,1338.99 538.797,1291.5 539.604,1375.79 540.411,1258.84 541.218,1366.96 542.025,1318.25 542.832,1311.17 543.639,1285.69 544.446,1369.8 545.253,1348.52 
  546.06,1372.52 546.867,1347.19 547.674,1291.34 548.481,1344.19 549.288,1363.11 550.095,1364.1 550.902,1361.14 551.709,1338.99 552.516,1289.88 553.323,1312.56 
  554.13,1368.99 554.937,1376.59 555.744,1372.31 556.551,1353.43 557.358,1383.28 558.165,1341.8 558.972,1348.4 559.779,1374.9 560.586,1354.33 561.393,1349.89 
  562.2,1349.02 563.007,1325.22 563.814,1311.18 564.621,1366.82 565.428,1305.35 566.235,1195.16 567.042,1236.55 567.848,1359.04 568.655,1361.66 569.462,1372.66 
  570.269,1368.64 571.076,1374.18 571.883,1353.02 572.69,1347.43 573.497,953.458 574.304,1317.36 575.111,1351.6 575.918,1359.07 576.725,1309.52 577.532,1319.97 
  578.339,1380.72 579.146,1352.9 579.953,1365.84 580.76,1368.41 581.567,1351.75 582.374,1340.45 583.181,1339.7 583.988,1358.51 584.795,1348.69 585.602,1346.28 
  586.409,1366.34 587.216,1367.67 588.023,1294.71 588.83,1374.33 589.637,1368.84 590.444,1318.48 591.251,1351.53 592.058,1313.69 592.865,1267.67 593.672,1334.11 
  594.479,1370.72 595.286,1318.89 596.093,1376.5 596.9,1362.73 597.707,1379.81 598.514,1356.78 599.321,1356.3 600.128,1352.84 600.935,1363.75 601.742,1345.27 
  602.549,1329.1 603.356,1315.12 604.163,1329.2 604.97,1277.53 605.777,1340.82 606.584,1349.75 607.391,1347.38 608.198,1276.72 609.005,1372.02 609.812,1356.23 
  610.619,1341.94 611.426,1353.87 612.233,1362.07 613.04,1338.97 613.847,1361.62 614.654,1372.67 615.461,1335.87 616.268,1298.87 617.075,1299.01 617.882,1370.59 
  618.689,1292.42 619.496,1356.79 620.303,1349.16 621.11,1360.39 621.917,1375.49 622.724,1360.23 623.531,1343.53 624.337,1346.37 625.144,1318.12 625.951,1321.13 
  626.758,1337.89 627.565,1346.12 628.372,1348.83 629.179,1335.4 629.986,1348.71 630.793,1361.64 631.6,1379.73 632.407,1364.68 633.214,1343.82 634.021,1262.96 
  634.828,1312.16 635.635,1364.79 636.442,1359.27 637.249,1360.15 638.056,1365.02 638.863,1337.66 639.67,1349.7 640.477,1247.46 641.284,1331.59 642.091,1344.79 
  642.898,1292.99 643.705,1319.35 644.512,1354.61 645.319,1347.12 646.126,1350.78 646.933,1346.13 647.74,1352.8 648.547,1368.41 649.354,1329.59 650.161,1335.26 
  650.968,1311.03 651.775,1360.22 652.582,1342.86 653.389,1326.76 654.196,1335.1 655.003,1346.01 655.81,1324.59 656.617,1317.29 657.424,1289.86 658.231,1362.38 
  659.038,1344.87 659.845,1332.33 660.652,1335.71 661.459,1349.6 662.266,1384.31 663.073,1352.01 663.88,1338.82 664.687,1308.83 665.494,1376.75 666.301,1362.88 
  667.108,1336.97 667.915,1337.35 668.722,1341.77 669.529,1341.54 670.336,1370.3 671.143,1351.35 671.95,1348.42 672.757,1354.63 673.564,1330.53 674.371,1341.75 
  675.178,1306.6 675.985,1361.26 676.792,1361.3 677.599,1365.11 678.406,1333.06 679.213,1359.93 680.02,1350.94 680.827,1285.43 681.633,1298.94 682.44,1268.3 
  683.247,1355.18 684.054,1320.17 684.861,1325.35 685.668,1360.57 686.475,1369.37 687.282,1362.02 688.089,1377.44 688.896,1341.96 689.703,1350.97 690.51,1298.57 
  691.317,1367.68 692.124,1355.69 692.931,1311.24 693.738,1326.73 694.545,1379.45 695.352,1364.1 696.159,1334.75 696.966,1309.53 697.773,1269.38 698.58,1262.59 
  699.387,1330.91 700.194,1347.12 701.001,1348.54 701.808,1308.39 702.615,1354.78 703.422,1290.47 704.229,1255.88 705.036,1326.51 705.843,1365.51 706.65,1329.56 
  707.457,1369.92 708.264,1355.72 709.071,1372.29 709.878,1349.34 710.685,1320.73 711.492,1204.5 712.299,1370.88 713.106,1340.5 713.913,1367.08 714.72,1342.35 
  715.527,1335.73 716.334,1370.41 717.141,1346.67 717.948,1351.09 718.755,1319.7 719.562,1350.7 720.369,1319.56 721.176,1370.65 721.983,1290.99 722.79,1339.81 
  723.597,1372.75 724.404,1280.39 725.211,1303.68 726.018,1333.86 726.825,1322.32 727.632,1309.84 728.439,1307.35 729.246,1356.13 730.053,1336.94 730.86,1251.14 
  731.667,983.82 732.474,1277.64 733.281,1330.18 734.088,1323.77 734.895,1336.7 735.702,1310.61 736.509,1335.86 737.316,1369.73 738.123,1381.98 738.929,1341.24 
  739.736,1352.05 740.543,1358.69 741.35,1367.85 742.157,1276.75 742.964,1318.86 743.771,1371.45 744.578,1290.66 745.385,1359.72 746.192,1332.13 746.999,1283.77 
  747.806,1150.82 748.613,1336.83 749.42,1354.25 750.227,1355.39 751.034,1377.86 751.841,1372.79 752.648,1342.75 753.455,1352.55 754.262,1376.78 755.069,1371.21 
  755.876,1245.03 756.683,1354.18 757.49,1352.76 758.297,1351.58 759.104,1314.21 759.911,1320.99 760.718,1349.73 761.525,1333.66 762.332,1352.73 763.139,1187.19 
  763.946,1350.96 764.753,1331.23 765.56,1328 766.367,1345.46 767.174,1354.02 767.981,1320.89 768.788,1319.99 769.595,1305.46 770.402,1345.31 771.209,1357.98 
  772.016,1293.55 772.823,1248.18 773.63,1351.01 774.437,1373.62 775.244,1353.84 776.051,1342.26 776.858,1364.34 777.665,1299.25 778.472,1384.21 779.279,1160.41 
  780.086,1116.45 780.893,1253.49 781.7,1296.95 782.507,1321.37 783.314,1297.27 784.121,1320.52 784.928,1353.22 785.735,1357.25 786.542,1342.99 787.349,1321.97 
  788.156,1365.77 788.963,1366.18 789.77,1338.43 790.577,1338.15 791.384,1358.18 792.191,1361.81 792.998,1237.56 793.805,1362.03 794.612,1372.89 795.418,1370.18 
  796.225,1358.57 797.032,1355.27 797.839,1358.34 798.646,1303.62 799.453,1353.44 800.26,1354 801.067,1349.44 801.874,1331.09 802.681,1349.64 803.488,1243.82 
  804.295,1347.05 805.102,1340.71 805.909,1319.96 806.716,1216.41 807.523,1243.9 808.33,1347.35 809.137,1347.6 809.944,1343.36 810.751,1359.58 811.558,1346.72 
  812.365,1360.01 813.172,1365.42 813.979,1226.95 814.786,1367.36 815.593,1354.23 816.4,1329.33 817.207,1342.17 818.014,1293.62 818.821,1362.9 819.628,1343.91 
  820.435,1330.23 821.242,1309.4 822.049,1307 822.856,1340.43 823.663,1311.42 824.47,1299.17 825.277,1364.58 826.084,1335.89 826.891,1324.14 827.698,1354.78 
  828.505,1376.4 829.312,1330.72 830.119,1329.83 830.926,1358.81 831.733,1354.21 832.54,1360.56 833.347,1350.52 834.154,1253.14 834.961,1211.32 835.768,1366.2 
  836.575,1351.77 837.382,1345.13 838.189,1339.25 838.996,1337.15 839.803,1359.55 840.61,1344.79 841.417,1315.26 842.224,1333.63 843.031,1341.24 843.838,1329.76 
  844.645,1354.27 845.452,1315.32 846.259,1370.58 847.066,1338.11 847.873,1361.52 848.68,1358.77 849.487,1372.5 850.294,1360.23 851.101,1340.18 851.908,1350.32 
  852.714,1322.1 853.521,1341.94 854.328,1161.53 855.135,1291.46 855.942,1323.59 856.749,1377.5 857.556,1373.59 858.363,1362.23 859.17,1326.76 859.977,1303.74 
  860.784,1349.67 861.591,1351.76 862.398,1365.69 863.205,1326.49 864.012,1195.56 864.819,1195.01 865.626,1331.4 866.433,1340.22 867.24,1339.83 868.047,1380.95 
  868.854,1333.99 869.661,1355.53 870.468,1330.55 871.275,1362.01 872.082,1358.5 872.889,1349.34 873.696,1357.53 874.503,1377.54 875.31,1368.59 876.117,1356.02 
  876.924,1357.36 877.731,1365.5 878.538,1369.88 879.345,1315.57 880.152,1311.51 880.959,1351.78 881.766,1369.78 882.573,1371.98 883.38,1338.61 884.187,1356.14 
  884.994,1295.21 885.801,1239.14 886.608,1307.86 887.415,1335.97 888.222,1351.98 889.029,1347.46 889.836,1334.75 890.643,1345.74 891.45,1361.58 892.257,1372.87 
  893.064,1376.4 893.871,1377.85 894.678,1371.13 895.485,1346.36 896.292,1345.85 897.099,1345.76 897.906,1366.75 898.713,1328.27 899.52,1349.55 900.327,1361.86 
  901.134,1356.75 901.941,1369.73 902.748,1372.28 903.555,1357.31 904.362,1350.67 905.169,1376.79 905.976,1350.68 906.783,1339.23 907.59,1353.46 908.397,1369.49 
  909.203,1360.87 910.01,1342.95 910.817,1374.79 911.624,1348.01 912.431,1343.02 913.238,1379.62 914.045,1364.63 914.852,1361.69 915.659,1308.56 916.466,1321.89 
  917.273,1337.25 918.08,1326.25 918.887,1348.85 919.694,1202.6 920.501,1304.09 921.308,1360.7 922.115,1348.48 922.922,1352.18 923.729,1364.34 924.536,1299.64 
  925.343,1331.79 926.15,1330.65 926.957,1354.68 927.764,1228.53 928.571,1357.08 929.378,1340.31 930.185,1375.75 930.992,1327.35 931.799,1366.04 932.606,1374.07 
  933.413,1364.33 934.22,1334.94 935.027,1153.92 935.834,1326.3 936.641,1343.92 937.448,1334.42 938.255,1337.7 939.062,1342.33 939.869,1347.42 940.676,1356.03 
  941.483,1333.16 942.29,1374.94 943.097,1368.02 943.904,1331.59 944.711,1344.69 945.518,1361.6 946.325,1366.17 947.132,1359.77 947.939,1358.42 948.746,1358.64 
  949.553,1359.02 950.36,1373.73 951.167,1369.2 951.974,1354.09 952.781,1336.68 953.588,1308.43 954.395,1347.49 955.202,1314.95 956.009,1331.44 956.816,1353.51 
  957.623,1325.33 958.43,1321.21 959.237,1328 960.044,1337.11 960.851,1359.81 961.658,1298.86 962.465,1336.19 963.272,1258.61 964.079,1258.78 964.886,1280.46 
  965.693,1321.71 966.499,1370.65 967.306,1354.67 968.113,1370.12 968.92,1370.76 969.727,1363.36 970.534,1358.53 971.341,1284.96 972.148,1284.95 972.955,1370.52 
  973.762,1361.14 974.569,1355.24 975.376,1340.83 976.183,1365.66 976.99,1314.33 977.797,1334.77 978.604,1342.53 979.411,1347.63 980.218,1335.84 981.025,1352.26 
  981.832,1342.13 982.639,1354.01 983.446,1330.49 984.253,1346.97 985.06,1370.06 985.867,1322.75 986.674,1323.65 987.481,1200.12 988.288,1322.06 989.095,1362.55 
  989.902,1375.83 990.709,1368.09 991.516,1367.37 992.323,1376.03 993.13,1350.53 993.937,1269.98 994.744,1373.82 995.551,1361.73 996.358,1292.71 997.165,1340.7 
  997.972,1341.05 998.779,1367.07 999.586,1367.89 1000.39,1332.29 1001.2,1353.63 1002.01,1335.27 1002.81,1347.79 1003.62,1345.05 1004.43,1283.02 1005.23,1300.15 
  1006.04,1358.6 1006.85,1378.93 1007.66,1366.04 1008.46,1320.91 1009.27,1361.06 1010.08,1326.79 1010.88,1307.63 1011.69,1327.21 1012.5,1360.47 1013.3,1297.82 
  1014.11,1316.51 1014.92,1371.18 1015.73,1350.87 1016.53,1375.6 1017.34,1369.08 1018.15,1371.89 1018.95,1354.06 1019.76,1350.24 1020.57,1342.32 1021.37,1332.17 
  1022.18,1379.08 1022.99,1341.93 1023.8,1343.15 1024.6,1384.4 1025.41,1355.64 1026.22,1346.67 1027.02,1295.72 1027.83,1317.5 1028.64,1308.99 1029.44,1344.85 
  1030.25,1347.64 1031.06,1376.23 1031.87,1384.12 1032.67,1284.86 1033.48,1354.03 1034.29,1360.06 1035.09,1330.42 1035.9,1338.96 1036.71,1350.11 1037.51,1364.37 
  1038.32,1353.8 1039.13,1336.34 1039.94,1364.18 1040.74,1328.42 1041.55,1323.69 1042.36,1300.94 1043.16,1375.12 1043.97,1341.53 1044.78,1327.06 1045.58,1342.48 
  1046.39,1326.14 1047.2,1362.08 1048.01,1309.73 1048.81,1341.7 1049.62,1346.15 1050.43,1326.21 1051.23,1352.59 1052.04,1275.11 1052.85,1259.72 1053.65,1321.43 
  1054.46,1336.61 1055.27,1263.6 1056.07,1225.87 1056.88,1309.28 1057.69,1351.3 1058.5,1360.63 1059.3,1321.6 1060.11,1361.86 1060.92,1327.45 1061.72,1360.22 
  1062.53,1350.08 1063.34,1319.82 1064.14,1285.01 1064.95,1282.9 1065.76,1266.73 1066.57,1283.91 1067.37,1266.37 1068.18,1313.39 1068.99,1344.46 1069.79,1349.73 
  1070.6,1356.96 1071.41,1350.08 1072.21,1370.83 1073.02,1339.11 1073.83,1351.84 1074.64,1355.3 1075.44,1319.09 1076.25,1365.38 1077.06,1352.35 1077.86,1293.71 
  1078.67,1375.96 1079.48,1372.17 1080.28,1364.58 1081.09,1384.75 1081.9,1374.45 1082.71,1354.03 1083.51,1375.38 1084.32,1354.94 1085.13,1151.56 1085.93,1346.57 
  1086.74,1379.35 1087.55,1349.09 1088.35,1360.48 1089.16,1351.42 1089.97,1343.91 1090.78,1349.36 1091.58,1277.59 1092.39,1366.25 1093.2,1306.19 1094,1300.17 
  1094.81,1297.98 1095.62,1358.61 1096.42,1346.57 1097.23,1363.72 1098.04,1321.91 1098.85,1376.66 1099.65,1330.71 1100.46,1352.23 1101.27,1291.32 1102.07,1361.78 
  1102.88,1333.48 1103.69,1328.27 1104.49,1305.15 1105.3,1345.28 1106.11,1279.38 1106.92,1371.45 1107.72,1340.99 1108.53,1276.04 1109.34,1273.28 1110.14,1364.63 
  1110.95,1340.5 1111.76,1354.35 1112.56,1371.06 1113.37,1352.51 1114.18,1341.21 1114.98,1357.28 1115.79,1363.03 1116.6,1340.91 1117.41,1327.6 1118.21,1349.92 
  1119.02,1355.97 1119.83,1313.84 1120.63,1341.11 1121.44,1353.79 1122.25,1369.22 1123.05,1372.27 1123.86,1376.58 1124.67,1353.84 1125.48,1353.87 1126.28,1375.72 
  1127.09,1342.39 1127.9,1320.53 1128.7,1367.81 1129.51,1360.27 1130.32,1252.8 1131.12,1329.21 1131.93,1340.73 1132.74,1360.27 1133.55,1364.46 1134.35,1378.08 
  1135.16,1376.71 1135.97,1270.61 1136.77,1294.93 1137.58,1257.3 1138.39,1333.49 1139.19,1373.62 1140,1384.6 1140.81,1318.48 1141.62,1347.15 1142.42,1245.74 
  1143.23,1344.67 1144.04,1313.58 1144.84,1297.53 1145.65,1287.21 1146.46,1356.02 1147.26,1361.84 1148.07,1354.07 1148.88,1243.78 1149.69,1339.87 1150.49,1361.38 
  1151.3,1382.79 1152.11,1363.79 1152.91,1349.23 1153.72,1362.31 1154.53,1379.68 1155.33,1372.79 1156.14,1316.79 1156.95,1252.7 1157.76,1346.34 1158.56,1324.95 
  1159.37,1354.27 1160.18,1331.59 1160.98,1366.52 1161.79,1361.8 1162.6,1341.67 1163.4,1356.51 1164.21,1333.38 1165.02,1370.4 1165.82,1329.68 1166.63,1306.12 
  1167.44,1345.44 1168.25,1364.21 1169.05,1290.21 1169.86,1316.58 1170.67,1306.93 1171.47,1355.38 1172.28,1350.77 1173.09,1349.2 1173.89,1349.91 1174.7,1345.6 
  1175.51,1328.07 1176.32,1361.49 1177.12,1363.63 1177.93,1333.91 1178.74,1355 1179.54,1325.89 1180.35,1318.81 1181.16,1367.2 1181.96,1367.46 1182.77,1362.61 
  1183.58,1371.31 1184.39,1362.38 1185.19,1371.44 1186,1354.05 1186.81,1368.43 1187.61,1333.46 1188.42,1354.69 1189.23,1355.36 1190.03,1365.07 1190.84,1357.57 
  1191.65,1360.98 1192.46,1376.32 1193.26,1376.42 1194.07,1344.01 1194.88,1371.48 1195.68,1363.82 1196.49,1360.18 1197.3,1370.65 1198.1,1349.42 1198.91,1304.49 
  1199.72,1365.03 1200.53,1380.82 1201.33,1352.16 1202.14,1351.59 1202.95,1319.33 1203.75,1349.52 1204.56,1350.34 1205.37,1364.96 1206.17,1367.16 1206.98,1362.74 
  1207.79,1354.22 1208.6,1341.3 1209.4,1160.7 1210.21,1240.18 1211.02,1295.92 1211.82,1323.52 1212.63,1355.19 1213.44,1366.75 1214.24,1335.6 1215.05,1324.07 
  1215.86,1351.02 1216.67,1336.26 1217.47,1350.59 1218.28,1352.79 1219.09,1371.59 1219.89,1345.02 1220.7,1354.17 1221.51,1361.43 1222.31,1332.32 1223.12,1363.27 
  1223.93,1364.98 1224.73,1358.84 1225.54,1375.49 1226.35,1364.16 1227.16,1354.88 1227.96,1367.77 1228.77,1369.5 1229.58,1370.15 1230.38,1374.36 1231.19,1321.22 
  1232,1339.21 1232.8,1355.57 1233.61,1359.82 1234.42,1371.14 1235.23,1350.68 1236.03,1349.1 1236.84,1340.72 1237.65,1323.06 1238.45,1357.6 1239.26,1310.58 
  1240.07,1304.79 1240.87,1331.06 1241.68,1332.28 1242.49,1359.14 1243.3,1320.56 1244.1,1337.77 1244.91,1341.19 1245.72,1325.92 1246.52,1283.53 1247.33,1362.41 
  1248.14,1377.34 1248.94,1350.9 1249.75,1301.71 1250.56,1341.77 1251.37,1278.78 1252.17,1361.71 1252.98,1344.99 1253.79,1326.17 1254.59,1332.96 1255.4,1356.64 
  1256.21,1369.45 1257.01,1372.69 1257.82,1359.69 1258.63,1360.9 1259.44,1350.53 1260.24,1345.01 1261.05,1335.25 1261.86,1329.74 1262.66,1357.54 1263.47,1346.62 
  1264.28,1363.09 1265.08,1310.38 1265.89,1348.69 1266.7,1333.13 1267.51,1336.41 1268.31,1368.75 1269.12,1367.36 1269.93,1363.52 1270.73,1351.82 1271.54,1331.37 
  1272.35,1193.24 1273.15,1379.06 1273.96,1378.63 1274.77,1374.44 1275.58,1367.48 1276.38,1357.11 1277.19,1356.33 1278,1354.93 1278.8,1332.5 1279.61,1326.72 
  1280.42,1329.13 1281.22,1378.22 1282.03,1358.92 1282.84,1338.01 1283.64,1355.29 1284.45,1333.11 1285.26,1355.66 1286.07,1375.69 1286.87,1351.53 1287.68,1366.76 
  1288.49,1312.26 1289.29,1267.78 1290.1,1357.56 1290.91,1357.25 1291.71,1366.8 1292.52,1363.62 1293.33,1362.62 1294.14,1364.57 1294.94,1367.68 1295.75,1346.42 
  1296.56,1347.12 1297.36,1361.62 1298.17,1366.23 1298.98,1350.93 1299.78,1320.58 1300.59,1272.69 1301.4,1365.35 1302.21,1325.65 1303.01,1377.73 1303.82,1273.67 
  1304.63,1355.39 1305.43,1366.51 1306.24,1338.5 1307.05,1307.22 1307.85,1335.93 1308.66,1347.16 1309.47,1374.46 1310.28,1358.73 1311.08,1328.7 1311.89,1363.62 
  1312.7,1360.62 1313.5,1358.41 1314.31,1380.93 1315.12,1379.28 1315.92,1357.69 1316.73,1353.21 1317.54,1365.19 1318.35,1372.12 1319.15,1343.25 1319.96,1365.62 
  1320.77,1371.98 1321.57,1345.45 1322.38,1360.89 1323.19,1384.32 1323.99,1342.27 1324.8,1343.59 1325.61,1349.25 1326.42,1313.25 1327.22,1332.98 1328.03,1367.95 
  1328.84,1364.83 1329.64,1318.39 1330.45,1364.39 1331.26,1337.88 1332.06,1358.75 1332.87,1372.12 1333.68,1365.96 1334.49,1355.66 1335.29,1355.25 1336.1,1368.93 
  1336.91,1343.94 1337.71,1358.15 1338.52,1359.4 1339.33,1363.58 1340.13,1349.22 1340.94,1334.11 1341.75,1334.91 1342.55,1310.23 1343.36,1354.69 1344.17,1321.16 
  1344.98,1364.04 1345.78,1350.33 1346.59,1358.02 1347.4,1377.06 1348.2,1370.54 1349.01,1355.8 1349.82,1343.7 1350.62,1335.41 1351.43,1356.45 1352.24,1367.39 
  1353.05,1358.44 1353.85,1362.01 1354.66,1357.05 1355.47,1350.28 1356.27,1345.93 1357.08,1321.54 1357.89,1349.14 1358.69,1330.4 1359.5,1346.18 1360.31,1382.33 
  1361.12,1344.85 1361.92,1348.81 1362.73,1358.65 1363.54,1323.49 1364.34,1347.76 1365.15,1354.3 1365.96,1348.09 1366.76,1322.24 1367.57,1382.17 1368.38,1372.64 
  1369.19,1330.84 1369.99,1368.66 1370.8,1367.61 1371.61,1262.88 1372.41,1163.43 1373.22,1212.39 1374.03,1326.07 1374.83,1348.7 1375.64,1336.23 1376.45,1363.19 
  1377.26,1360.77 1378.06,1355.01 1378.87,1370.73 1379.68,1355.64 1380.48,1320.05 1381.29,1374.62 1382.1,1322.75 1382.9,1222.8 1383.71,1324.76 1384.52,1311.03 
  1385.33,1327.23 1386.13,1355.75 1386.94,1368.31 1387.75,1324.17 1388.55,1361.33 1389.36,1362.17 1390.17,1379.26 1390.97,1357.89 1391.78,1309.85 1392.59,1354.33 
  1393.4,1367.1 1394.2,1357.4 1395.01,1345.95 1395.82,1374.16 1396.62,1361.08 1397.43,1376.22 1398.24,1330.49 1399.04,1354.79 1399.85,1266.23 1400.66,1343.87 
  1401.46,1363.37 1402.27,1354.13 1403.08,1356.69 1403.89,1378.35 1404.69,1373 1405.5,1359.14 1406.31,1355.81 1407.11,1354.76 1407.92,1355.73 1408.73,1366.8 
  1409.53,1374.36 1410.34,1362.51 1411.15,1359.27 1411.96,1232.95 1412.76,1306.82 1413.57,1364.2 1414.38,1328.03 1415.18,1342.17 1415.99,1357.24 1416.8,1328.87 
  1417.6,1375.61 1418.41,1345.74 1419.22,1369.61 1420.03,1372.77 1420.83,1363.91 1421.64,1310.51 1422.45,1335.76 1423.25,1206.85 1424.06,1355.11 1424.87,1361.33 
  1425.67,1360.41 1426.48,1373.91 1427.29,1354.16 1428.1,1328.98 1428.9,1324.95 1429.71,1377.61 1430.52,1338.82 1431.32,1367.38 1432.13,1331.4 1432.94,1299.86 
  1433.74,1372.73 1434.55,1350.5 1435.36,1371.87 1436.17,1351.1 1436.97,1360.2 1437.78,1316.65 1438.59,1337.35 1439.39,1335.53 1440.2,1374 1441.01,1331.41 
  1441.81,1364.15 1442.62,1331.01 1443.43,1345.77 1444.24,1340.92 1445.04,1321.59 1445.85,1321.04 1446.66,1364.8 1447.46,1377.47 1448.27,1368.41 1449.08,1327 
  1449.88,1302.61 1450.69,1347.1 1451.5,1363.11 1452.3,1365.39 1453.11,1370.68 1453.92,1341.82 1454.73,1357.08 1455.53,1377.14 1456.34,1377.96 1457.15,1373.32 
  1457.95,1365.86 1458.76,1368.99 1459.57,1287.34 1460.37,1371.34 1461.18,1340.69 1461.99,1239.42 1462.8,1343.07 1463.6,1288.35 1464.41,1381.78 1465.22,1301.73 
  1466.02,1332.98 1466.83,1325.87 1467.64,1347.17 1468.44,1357.94 1469.25,1325.02 1470.06,1352.61 1470.87,1348.23 1471.67,1332.71 1472.48,1364.79 1473.29,1365.59 
  1474.09,1362.78 1474.9,1363.64 1475.71,1339.65 1476.51,1349.42 1477.32,1363.29 1478.13,1349.12 1478.94,1357.14 1479.74,1364.27 1480.55,1347.72 1481.36,1348.62 
  1482.16,1378.18 1482.97,1331.2 1483.78,1324.71 1484.58,1355.03 1485.39,1344.2 1486.2,1356.84 1487.01,1366.73 1487.81,1354.94 1488.62,1359.69 1489.43,1346.13 
  1490.23,1320.04 1491.04,1357.25 1491.85,1362.25 1492.65,1321.32 1493.46,1349.65 1494.27,1369.87 1495.08,1379.49 1495.88,1358.2 1496.69,1375.57 1497.5,1358.77 
  1498.3,1381.97 1499.11,1364.63 1499.92,1353.06 1500.72,1373.21 1501.53,1349.62 1502.34,1373.14 1503.15,1380.35 1503.95,1327.39 1504.76,1327.99 1505.57,1335.12 
  1506.37,1381.8 1507.18,1366.09 1507.99,1371.78 1508.79,1375.95 1509.6,1300.56 1510.41,1348.9 1511.21,1350.31 1512.02,1347.15 1512.83,1356.91 1513.64,1358.57 
  1514.44,1291.19 1515.25,1365.35 1516.06,1359.01 1516.86,1378.58 1517.67,1354.73 1518.48,1322.26 1519.28,1338.17 1520.09,1353.12 1520.9,1354.38 1521.71,1361.84 
  1522.51,1378.57 1523.32,1370.94 1524.13,1371.36 1524.93,1273.45 1525.74,1326.03 1526.55,1341.97 1527.35,1331.43 1528.16,1313.94 1528.97,1347.68 1529.78,1345.55 
  1530.58,1347.13 1531.39,1379.2 1532.2,1362.31 1533,1360.5 1533.81,1383.68 1534.62,1369.73 1535.42,1372.7 1536.23,1374.1 1537.04,1366.1 1537.85,1354.3 
  1538.65,1225.93 1539.46,1336.36 1540.27,1316.5 1541.07,1321.73 1541.88,1355.72 1542.69,1378.98 1543.49,1355.12 1544.3,1346.45 1545.11,1301.69 1545.92,1363.53 
  1546.72,1369.52 1547.53,1383.08 1548.34,1361.57 1549.14,1372.34 1549.95,1333.61 1550.76,1339.34 1551.56,1312.86 1552.37,1300.06 1553.18,1321.3 1553.99,1323.15 
  1554.79,1341.99 1555.6,1313.31 1556.41,1383.16 1557.21,1356.56 1558.02,1362.3 1558.83,1338.68 1559.63,1351.54 1560.44,1351.33 1561.25,1368.91 1562.06,1366.01 
  1562.86,1374 1563.67,1363.42 1564.48,1370.89 1565.28,1376.28 1566.09,1342.31 1566.9,1342.59 1567.7,1257.52 1568.51,1339.42 1569.32,1359.82 1570.12,1381.24 
  1570.93,1367.91 1571.74,1378.3 1572.55,1366.8 1573.35,1361.92 1574.16,1369.26 1574.97,1380.92 1575.77,1372.12 1576.58,1356.5 1577.39,1358.98 1578.19,1349.77 
  1579,1353.83 1579.81,1354.77 1580.62,1371.36 1581.42,1331.89 1582.23,1335.11 1583.04,1367.62 1583.84,1368 1584.65,1364.72 1585.46,1369.59 1586.26,1382.61 
  1587.07,1348.03 1587.88,1323.19 1588.69,1351.16 1589.49,1347.35 1590.3,1342.47 1591.11,1352.38 1591.91,1324.53 1592.72,1287.53 1593.53,1340.52 1594.33,1299.64 
  1595.14,1256.5 1595.95,1358.37 1596.76,1364.77 1597.56,1200.15 1598.37,1277.34 1599.18,1362.88 1599.98,1348.37 1600.79,1337.86 1601.6,1336.62 1602.4,1335.77 
  1603.21,1323.48 1604.02,1364.73 1604.83,1298.68 1605.63,1313.74 1606.44,1354.09 1607.25,1359.94 1608.05,1354.67 1608.86,1320.93 1609.67,1351.9 1610.47,1355.71 
  1611.28,1356.69 1612.09,1358.31 1612.9,1340.19 1613.7,1364.53 1614.51,1347.94 1615.32,1355.62 1616.12,1348.28 1616.93,1374.04 1617.74,1365.73 1618.54,1368.21 
  1619.35,1370.78 1620.16,1362.73 1620.97,1374.14 1621.77,1355.61 1622.58,1325.47 1623.39,1358.07 1624.19,1361.37 1625,1367.09 1625.81,1363.58 1626.61,1356.21 
  1627.42,1362.08 1628.23,1359.2 1629.03,1360.22 1629.84,1379.09 1630.65,1351.52 1631.46,1350.49 1632.26,1371.51 1633.07,1362.26 1633.88,1350.8 1634.68,1357.74 
  1635.49,1316.62 1636.3,1379.23 1637.1,1376.78 1637.91,1365.89 1638.72,1350 1639.53,1364.86 1640.33,1373.44 1641.14,1371.42 1641.95,1365.16 1642.75,1367.53 
  1643.56,1372.02 1644.37,1373.13 1645.17,1324 1645.98,1362.08 1646.79,1375.7 1647.6,1338.52 1648.4,1358.95 1649.21,1347.42 1650.02,1353.88 1650.82,1324.71 
  1651.63,1361.08 1652.44,1382.28 1653.24,1371.18 1654.05,1367.37 1654.86,1374.54 1655.67,1357.44 1656.47,1351.19 1657.28,1344.72 1658.09,1371.5 1658.89,1344.69 
  1659.7,1372.56 1660.51,1371.95 1661.31,1365.43 1662.12,1337.04 1662.93,1327.85 1663.74,1365.56 1664.54,1378.58 1665.35,1368.02 1666.16,1365.14 1666.96,1368.49 
  1667.77,1382.05 1668.58,1373.86 1669.38,1369.25 1670.19,1369.97 1671,1365.31 1671.81,1369.29 1672.61,1198.32 1673.42,1334.89 1674.23,1354.33 1675.03,1349.94 
  1675.84,1372.22 1676.65,1352.29 1677.45,1350.5 1678.26,1377.76 1679.07,1348.49 1679.87,1352.89 1680.68,1360.74 1681.49,1350.47 1682.3,1363.9 1683.1,1359.6 
  1683.91,1370.88 1684.72,1356.44 1685.52,1348.26 1686.33,1348.43 1687.14,1369.19 1687.94,1295.67 1688.75,1370.44 1689.56,1375.14 1690.37,1371.87 1691.17,1366.74 
  1691.98,1368.41 1692.79,1365.78 1693.59,1352.19 1694.4,1335.91 1695.21,1326.25 1696.01,1374.36 1696.82,1347.95 1697.63,1374.66 1698.44,1353 1699.24,1337.91 
  1700.05,1378.71 1700.86,1373.03 1701.66,1354.86 1702.47,1349.9 1703.28,1384.2 1704.08,1326.95 1704.89,1338.81 1705.7,1354.03 1706.51,1356.06 1707.31,1352.77 
  1708.12,1339.82 1708.93,1364.66 1709.73,1375.22 1710.54,1360.06 1711.35,1369.56 1712.15,1354.99 1712.96,1377.78 1713.77,1367.98 1714.58,1382.49 1715.38,1367.26 
  1716.19,1359.03 1717,1359.87 1717.8,1350.96 1718.61,1343.59 1719.42,1367.47 1720.22,1365.77 1721.03,1358.65 1721.84,1317.47 1722.65,1367.43 1723.45,1369.61 
  1724.26,1356.97 1725.07,1371.81 1725.87,1364.3 1726.68,1362.98 1727.49,1372.16 1728.29,1373.77 1729.1,1371.31 1729.91,1365.35 1730.72,1367.09 1731.52,1368.94 
  1732.33,1342.57 1733.14,1369.78 1733.94,1367.3 1734.75,1343.3 1735.56,1348.27 1736.36,1363.46 1737.17,1338.04 1737.98,1378.07 1738.78,1365.84 1739.59,1302.57 
  1740.4,1316.58 1741.21,1349.44 1742.01,1361.52 1742.82,1357.69 1743.63,1340.15 1744.43,1297.43 1745.24,1310.12 1746.05,1349.96 1746.85,1364.8 1747.66,1374.79 
  1748.47,1356.52 1749.28,1363.76 1750.08,1365.24 1750.89,1365.14 1751.7,1360.88 1752.5,1319.81 1753.31,1361.74 1754.12,1363.38 1754.92,1366.5 1755.73,1346.85 
  1756.54,1326.71 1757.35,1360.02 1758.15,1371.34 1758.96,1370.58 1759.77,1357.46 1760.57,1360.47 1761.38,1368.16 1762.19,1375.14 1762.99,1294.72 1763.8,1360.49 
  1764.61,1368.3 1765.42,1360.82 1766.22,1375.35 1767.03,1367.49 1767.84,1365.15 1768.64,1368.83 1769.45,1363.54 1770.26,1365.84 1771.06,1347.73 1771.87,1363.81 
  1772.68,1384.81 1773.49,1367.66 1774.29,1356.87 1775.1,1365.53 1775.91,1366.76 1776.71,1376.93 1777.52,1330.35 1778.33,1361.29 1779.13,1338.63 1779.94,1366.19 
  1780.75,1350.35 1781.56,1340.39 1782.36,1355.14 1783.17,1362.4 1783.98,1366 1784.78,1344.12 1785.59,1359.47 1786.4,1378.8 1787.2,1345.86 1788.01,1363.85 
  1788.82,1355.56 1789.63,1362.75 1790.43,1357.76 1791.24,1367 1792.05,1377.54 1792.85,1356.74 1793.66,1357.86 1794.47,1331.05 1795.27,1332.64 1796.08,1381.39 
  1796.89,1343.07 1797.69,1362.82 1798.5,1365.55 1799.31,1358.86 1800.12,1338.47 1800.92,1359.96 1801.73,1345.4 1802.54,1365.3 1803.34,1345.13 1804.15,1373.69 
  1804.96,1352.1 1805.76,1353.56 1806.57,1316.15 1807.38,1337.7 1808.19,1372.17 1808.99,1375.15 1809.8,1380.3 1810.61,1367.95 1811.41,1343.56 1812.22,1349.85 
  1813.03,1376.06 1813.83,1354.15 1814.64,1351.96 1815.45,1349.81 1816.26,1368.29 1817.06,1341.56 1817.87,1368.08 1818.68,1364.86 1819.48,1349.57 1820.29,1337.26 
  1821.1,1338.12 1821.9,1361.96 1822.71,1367.96 1823.52,1367.95 1824.33,1340.51 1825.13,1358.94 1825.94,1365.13 1826.75,1364.59 1827.55,1268.03 1828.36,1376.79 
  1829.17,1368.85 1829.97,1353.98 1830.78,1377.58 1831.59,1363.33 1832.4,1327.47 1833.2,1318.69 1834.01,1368.06 1834.82,1379.26 1835.62,1347.98 1836.43,1274.49 
  1837.24,1330.73 1838.04,1353.13 1838.85,1363.7 1839.66,1374.31 1840.47,1371.71 1841.27,1375.83 1842.08,1362.69 1842.89,1366.38 1843.69,1372.53 1844.5,1372.57 
  1845.31,1351.73 1846.11,1343.4 1846.92,1329.22 1847.73,1336.35 1848.54,1331.58 1849.34,1370.81 1850.15,1373.92 1850.96,1382 1851.76,1318.57 1852.57,1337.61 
  1853.38,1368.67 1854.18,1353.17 1854.99,1370.65 1855.8,1342.6 1856.6,1345.05 1857.41,1276.29 1858.22,1370.49 1859.03,1364.62 1859.83,1332.5 1860.64,1247.13 
  1861.45,1346.45 1862.25,1362.33 1863.06,1324.57 1863.87,1335.69 1864.67,1322.41 1865.48,1354.28 1866.29,1352.71 1867.1,1355.85 1867.9,1305.82 1868.71,1362.33 
  1869.52,1373.48 1870.32,1348.14 1871.13,1375.35 1871.94,1377.11 1872.74,1379.01 1873.55,1259.18 1874.36,1361.97 1875.17,1357.64 1875.97,1340.95 1876.78,1340.45 
  1877.59,1364.91 1878.39,1350.46 1879.2,1330.04 1880.01,1370.15 1880.81,1369.46 1881.62,1375.95 1882.43,1359.4 1883.24,1363.41 1884.04,1359.62 1884.85,1370.65 
  1885.66,1376 1886.46,1359.14 1887.27,1320.08 1888.08,1319.71 1888.88,1357.63 1889.69,1357.52 1890.5,1360.45 1891.31,1365.43 1892.11,1377.53 1892.92,1370.18 
  1893.73,1369.19 1894.53,1368.22 1895.34,1368.07 1896.15,1347.16 1896.95,1352.21 1897.76,1343.07 1898.57,1360.05 1899.38,1380.46 1900.18,1375.84 1900.99,1373.19 
  1901.8,1357.4 1902.6,1351.93 1903.41,1371.55 1904.22,1373.64 1905.02,1354.04 1905.83,1375.21 1906.64,1364.95 1907.44,1377.81 1908.25,1352.69 1909.06,1363 
  1909.87,1369.68 1910.67,1301.28 1911.48,1343.43 1912.29,1358.51 1913.09,1370.89 1913.9,1365.74 1914.71,1366.73 1915.51,1377.66 1916.32,1381.19 1917.13,1352.03 
  1917.94,1385.17 1918.74,1359.46 1919.55,1366.88 1920.36,1358.09 1921.16,1341.68 1921.97,1352.37 1922.78,1381.95 1923.58,1370.04 1924.39,1376.54 1925.2,1374.32 
  1926.01,1361.12 1926.81,1377.39 1927.62,1359.4 1928.43,1275.78 1929.23,1352.67 1930.04,1371.89 1930.85,1362.58 1931.65,1378.06 1932.46,1337.27 1933.27,1253.34 
  1934.08,1366.33 1934.88,1365.37 1935.69,1364.47 1936.5,1347.61 1937.3,1332.15 1938.11,1379.49 1938.92,1385.6 1939.72,1375.61 1940.53,1351.53 1941.34,1348.35 
  1942.15,1375.45 1942.95,1358.87 1943.76,1351.17 1944.57,1355.98 1945.37,1359.6 1946.18,1361.81 1946.99,1370.78 1947.79,1363.03 1948.6,1288.18 1949.41,1349.26 
  1950.22,1330.74 1951.02,1301.85 1951.83,1376.99 1952.64,1322.36 1953.44,1361.8 1954.25,1345.81 1955.06,1313.39 1955.86,1366.12 1956.67,1371.77 1957.48,1376.74 
  1958.29,1368.7 1959.09,1382.38 1959.9,1369.67 1960.71,1365 1961.51,1371.83 1962.32,1359.81 1963.13,1368.43 1963.93,1384.92 1964.74,1343.42 1965.55,1375.57 
  1966.35,1363.34 1967.16,1348.9 1967.97,1380.23 1968.78,1362.66 1969.58,1379.69 1970.39,1372.86 1971.2,1336.96 1972,1340.46 1972.81,1351.78 1973.62,1379.99 
  1974.42,1336.81 1975.23,1337.84 1976.04,1378.09 1976.85,1370.01 1977.65,1365.21 1978.46,1368.8 1979.27,1380.88 1980.07,1368.64 1980.88,1376.04 1981.69,1374.9 
  1982.49,1370.39 1983.3,1382.64 1984.11,1315.58 1984.92,1374.16 1985.72,1382.09 1986.53,1357.14 1987.34,1377.38 1988.14,1345.52 1988.95,1363.41 1989.76,1368.83 
  1990.56,1325.57 1991.37,1343.71 1992.18,1384.94 1992.99,1373.31 1993.79,1376.9 1994.6,1358.95 1995.41,1370.96 1996.21,1362.41 1997.02,1367.01 1997.83,1357.98 
  1998.63,1363.28 1999.44,1361.63 2000.25,1365.69 2001.06,1383.26 2001.86,1368.04 2002.67,1376.62 2003.48,1365.71 2004.28,1365.27 2005.09,1383.12 2005.9,1323.69 
  2006.7,1353.52 2007.51,1359.64 2008.32,1337.14 2009.13,1368.93 2009.93,1369.86 2010.74,1376.74 2011.55,1359.34 2012.35,1351.73 2013.16,1375.44 2013.97,1382.51 
  2014.77,1377.78 2015.58,1367.44 2016.39,1352.8 2017.2,1365.95 2018,1209.56 2018.81,1324.62 2019.62,1364.95 2020.42,1384.43 2021.23,1375.02 2022.04,1379.61 
  2022.84,1373.13 2023.65,1366.84 2024.46,1358.09 2025.26,1384.96 2026.07,1373.18 2026.88,1348.65 2027.69,1353.11 2028.49,1360.98 2029.3,1361.04 2030.11,1342.6 
  2030.91,1339.67 2031.72,1355.44 2032.53,1371.85 2033.33,1357.69 2034.14,1366.62 2034.95,1364.01 2035.76,1360.79 2036.56,1364.54 2037.37,1365.75 2038.18,1364.55 
  2038.98,1359.88 2039.79,1384.48 2040.6,1366.56 2041.4,1363.29 2042.21,1369.08 2043.02,1359.08 2043.83,1368.93 2044.63,1359.99 2045.44,1367.38 2046.25,1356.88 
  2047.05,1332.86 2047.86,1377.89 2048.67,1374.03 2049.47,1372.67 2050.28,1372.14 2051.09,1364.09 2051.9,1352.36 2052.7,1369.85 2053.51,1367.01 2054.32,1372.35 
  2055.12,1375.15 2055.93,1370.67 2056.74,1362.94 2057.54,1346.6 2058.35,1349.12 2059.16,1374.81 2059.97,1343.45 2060.77,1366.93 2061.58,1376.16 2062.39,1345.57 
  2063.19,1366.41 2064,1367.18 2064.81,1327.39 2065.61,1357.09 2066.42,1373.73 2067.23,1352.95 2068.04,1370.41 2068.84,1382.06 2069.65,1350.29 2070.46,1360.24 
  2071.26,1369.51 2072.07,1375.71 2072.88,1354.09 2073.68,1373.49 2074.49,1348.78 2075.3,1371.73 2076.11,1368.94 2076.91,1359.67 2077.72,1370.57 2078.53,1347.02 
  2079.33,1356.63 2080.14,1371.97 2080.95,1373.54 2081.75,1352.32 2082.56,1362.62 2083.37,1335.5 2084.17,1362.01 2084.98,1376.81 2085.79,1380.67 2086.6,1374.81 
  2087.4,1362.73 2088.21,1380.07 2089.02,1385.69 2089.82,1370.51 2090.63,1383.52 2091.44,1365.99 2092.24,1383.37 2093.05,1370.68 2093.86,1373.07 2094.67,1329.5 
  2095.47,1359.35 2096.28,1341.39 2097.09,1363.73 2097.89,1374.99 2098.7,1377.94 2099.51,1376.25 2100.31,1372.82 2101.12,1376.2 2101.93,1382.37 2102.74,1381.89 
  2103.54,1372.15 2104.35,1349.38 2105.16,1373.99 2105.96,1374.82 2106.77,1329.68 2107.58,1328.04 2108.38,1367.7 2109.19,1360.56 2110,1371.71 2110.81,1345.75 
  2111.61,1357.92 2112.42,1340.72 2113.23,1377.21 2114.03,1384.31 2114.84,1368.99 2115.65,1375.18 2116.45,1364.38 2117.26,1373.3 2118.07,1378.24 2118.88,1340.49 
  2119.68,1369.17 2120.49,1360.16 2121.3,1358.88 2122.1,1364.17 2122.91,1379.29 2123.72,1370.9 2124.52,1383.04 2125.33,1328.15 2126.14,1360.39 2126.95,1371.61 
  2127.75,1329.5 2128.56,1378.99 2129.37,1371.7 2130.17,1367.86 2130.98,1356.94 2131.79,1342.96 2132.59,1375.36 2133.4,1377.62 2134.21,1373.41 2135.01,1376.48 
  2135.82,1325.79 2136.63,1322.09 2137.44,1350.52 2138.24,1366.88 2139.05,1381.16 2139.86,1333.39 2140.66,1338.82 2141.47,1369.88 2142.28,1358.76 2143.08,1339.97 
  2143.89,1354.87 2144.7,1347.38 2145.51,1359.39 2146.31,1383.23 2147.12,1369.36 2147.93,1366.75 2148.73,1308.45 2149.54,1367.33 2150.35,1379.15 2151.15,1348.12 
  2151.96,1355.69 2152.77,1383.44 2153.58,1360.78 2154.38,1281.21 2155.19,1367.07 2156,1368.88 2156.8,1375.39 2157.61,1376.73 2158.42,1365.92 2159.22,1375.86 
  2160.03,1360.99 2160.84,1375.73 2161.65,1382.18 2162.45,1367.65 2163.26,1375.31 2164.07,1383.95 2164.87,1369.03 2165.68,1374.67 2166.49,1362.43 2167.29,1360.84 
  2168.1,1367.73 2168.91,1371.45 2169.72,1380.62 2170.52,1376.15 2171.33,1377.23 2172.14,1377.93 2172.94,1368.1 2173.75,1372.13 2174.56,1385.96 2175.36,1372.96 
  2176.17,1238.14 2176.98,1358.64 2177.79,1368.66 2178.59,1342.05 2179.4,1383.47 2180.21,1343.95 2181.01,1373.1 2181.82,1364.44 2182.63,1349.69 2183.43,1354.91 
  2184.24,1350.94 2185.05,1371.17 2185.86,1322 2186.66,1355.76 2187.47,1366.87 2188.28,1330.94 2189.08,1374.96 2189.89,1367.93 2190.7,1368.62 2191.5,1336.83 
  2192.31,1370.31 2193.12,1365.38 2193.92,1373.67 2194.73,1357.09 2195.54,1378.82 2196.35,1352.37 2197.15,1321.93 2197.96,1385.31 2198.77,1380.94 2199.57,1378.6 
  2200.38,1357.32 2201.19,1343.18 2201.99,1336.81 2202.8,1371.99 2203.61,1359.82 2204.42,1372.31 2205.22,1367.6 2206.03,1369.19 2206.84,1369.4 2207.64,1374.73 
  2208.45,1371.93 2209.26,1352.8 2210.06,1343.43 2210.87,1358.59 2211.68,1378.02 2212.49,1371.76 2213.29,1383.29 2214.1,1375.38 2214.91,1350.78 2215.71,1370.11 
  2216.52,1365.66 2217.33,1349.84 2218.13,1360.41 2218.94,1371.75 2219.75,1368.34 2220.56,1372.63 2221.36,1341.36 2222.17,1319.19 2222.98,1373.53 2223.78,1363.56 
  2224.59,1375.27 2225.4,1370.36 2226.2,1365.4 2227.01,1352.04 2227.82,1369.93 2228.63,1383.12 2229.43,1351.16 2230.24,1354.57 2231.05,1373.78 2231.85,1247.63 
  2232.66,1382.07 2233.47,1385.79 2234.27,1361.04 2235.08,1354.47 2235.89,1359.96 2236.7,1370.9 2237.5,1384.54 2238.31,1241.48 2239.12,1378.2 2239.92,1361.55 
  2240.73,1366.17 2241.54,1360.51 2242.34,1374.56 2243.15,1285.23 2243.96,1346.89 2244.77,1364.95 2245.57,1363.08 2246.38,1370.49 2247.19,1329.41 2247.99,1343.52 
  2248.8,1363.8 2249.61,1352.11 2250.41,1381.28 2251.22,1352.88 2252.03,1358.36 2252.83,1381.36 2253.64,1356.89 2254.45,1378.6 2255.26,1365.44 2256.06,1376.74 
  2256.87,1383.43 2257.68,1360.21 2258.48,1349.1 2259.29,1361.65 2260.1,1377.17 2260.9,1375.4 2261.71,1337.93 2262.52,1372.98 2263.33,1363.74 2264.13,1361.82 
  2264.94,1368.45 2265.75,1326.53 2266.55,1372.89 2267.36,1362.68 2268.17,1361.36 2268.97,1376.42 2269.78,1362.5 2270.59,1366.19 2271.4,1370.64 2272.2,1374.81 
  2273.01,1373.8 2273.82,1376.91 2274.62,1372.36 2275.43,1365.59 2276.24,1371.96 2277.04,1351.15 2277.85,1348.32 2278.66,1329.24 2279.47,1247.55 2280.27,1281.69 
  2281.08,1362.44 2281.89,1365.24 2282.69,1353.69 2283.5,1360.02 2284.31,1353.78 2285.11,1364.75 2285.92,1373.05 2286.73,1372.08 2287.54,1361.8 2288.34,1364.46 
  2289.15,1358 2289.96,1334.54 2290.76,1374.76 2291.57,1352.48 2292.38,1360.36 
  "/>
<polyline clip-path="url(#clip243)" style="stroke:#e26f46; stroke-width:4; stroke-opacity:1; fill:none" stroke-dasharray="16, 10" points="
  320.015,2722.89 320.015,-1176.24 
  "/>
<path clip-path="url(#clip240)" d="
M1691.62 287.756 L2281.64 287.756 L2281.64 166.796 L1691.62 166.796  Z
  " fill="#ffffff" fill-rule="evenodd" fill-opacity="1"/>
<polyline clip-path="url(#clip240)" style="stroke:#000000; stroke-width:4; stroke-opacity:1; fill:none" points="
  1691.62,287.756 2281.64,287.756 2281.64,166.796 1691.62,166.796 1691.62,287.756 
  "/>
<polyline clip-path="url(#clip240)" style="stroke:#e26f46; stroke-width:4; stroke-opacity:1; fill:none" stroke-dasharray="16, 10" points="
  1715.32,227.276 1857.55,227.276 
  "/>
<path clip-path="url(#clip240)" d="M 0 0 M1897.76 208.537 L1897.76 212.079 L1893.68 212.079 Q1891.39 212.079 1890.49 213.005 Q1889.61 213.931 1889.61 216.338 L1889.61 218.63 L1896.62 218.63 L1896.62 221.94 L1889.61 221.94 L1889.61 244.556 L1885.32 244.556 L1885.32 221.94 L1881.25 221.94 L1881.25 218.63 L1885.32 218.63 L1885.32 216.824 Q1885.32 212.496 1887.34 210.528 Q1889.35 208.537 1893.73 208.537 L1897.76 208.537 Z" fill="#000000" fill-rule="evenodd" fill-opacity="1" /><path clip-path="url(#clip240)" d="M 0 0 M1916.34 222.611 Q1915.63 222.195 1914.77 222.01 Q1913.94 221.801 1912.92 221.801 Q1909.31 221.801 1907.36 224.162 Q1905.44 226.5 1905.44 230.898 L1905.44 244.556 L1901.16 244.556 L1901.16 218.63 L1905.44 218.63 L1905.44 222.658 Q1906.78 220.297 1908.94 219.162 Q1911.09 218.005 1914.17 218.005 Q1914.61 218.005 1915.14 218.074 Q1915.67 218.121 1916.32 218.236 L1916.34 222.611 Z" fill="#000000" fill-rule="evenodd" fill-opacity="1" /><path clip-path="url(#clip240)" d="M 0 0 M1941.94 230.528 L1941.94 232.611 L1922.36 232.611 Q1922.64 237.009 1925 239.324 Q1927.38 241.616 1931.62 241.616 Q1934.07 241.616 1936.37 241.014 Q1938.68 240.412 1940.95 239.209 L1940.95 243.236 Q1938.66 244.208 1936.25 244.718 Q1933.84 245.227 1931.37 245.227 Q1925.16 245.227 1921.53 241.616 Q1917.92 238.005 1917.92 231.847 Q1917.92 225.482 1921.34 221.755 Q1924.79 218.005 1930.63 218.005 Q1935.86 218.005 1938.89 221.385 Q1941.94 224.741 1941.94 230.528 M1937.69 229.278 Q1937.64 225.783 1935.72 223.699 Q1933.82 221.616 1930.67 221.616 Q1927.11 221.616 1924.95 223.63 Q1922.82 225.644 1922.5 229.301 L1937.69 229.278 Z" fill="#000000" fill-rule="evenodd" fill-opacity="1" /><path clip-path="url(#clip240)" d="M 0 0 M1951.48 231.616 Q1951.48 236.315 1953.4 239 Q1955.35 241.662 1958.73 241.662 Q1962.11 241.662 1964.05 239 Q1966 236.315 1966 231.616 Q1966 226.917 1964.05 224.255 Q1962.11 221.57 1958.73 221.57 Q1955.35 221.57 1953.4 224.255 Q1951.48 226.917 1951.48 231.616 M1966 240.667 Q1964.65 242.982 1962.59 244.116 Q1960.56 245.227 1957.69 245.227 Q1952.99 245.227 1950.02 241.477 Q1947.08 237.727 1947.08 231.616 Q1947.08 225.505 1950.02 221.755 Q1952.99 218.005 1957.69 218.005 Q1960.56 218.005 1962.59 219.139 Q1964.65 220.25 1966 222.565 L1966 218.63 L1970.25 218.63 L1970.25 254.417 L1966 254.417 L1966 240.667 Z" fill="#000000" fill-rule="evenodd" fill-opacity="1" /><path clip-path="url(#clip240)" d="M 0 0 M1978.59 234.324 L1978.59 218.63 L1982.85 218.63 L1982.85 234.162 Q1982.85 237.843 1984.28 239.695 Q1985.72 241.523 1988.59 241.523 Q1992.04 241.523 1994.03 239.324 Q1996.04 237.125 1996.04 233.329 L1996.04 218.63 L2000.3 218.63 L2000.3 244.556 L1996.04 244.556 L1996.04 240.574 Q1994.49 242.935 1992.43 244.093 Q1990.39 245.227 1987.69 245.227 Q1983.22 245.227 1980.9 242.449 Q1978.59 239.671 1978.59 234.324 M1989.31 218.005 L1989.31 218.005 Z" fill="#000000" fill-rule="evenodd" fill-opacity="1" /><path clip-path="url(#clip240)" d="M 0 0 M2031.25 230.528 L2031.25 232.611 L2011.67 232.611 Q2011.94 237.009 2014.31 239.324 Q2016.69 241.616 2020.93 241.616 Q2023.38 241.616 2025.67 241.014 Q2027.99 240.412 2030.25 239.209 L2030.25 243.236 Q2027.96 244.208 2025.56 244.718 Q2023.15 245.227 2020.67 245.227 Q2014.47 245.227 2010.83 241.616 Q2007.22 238.005 2007.22 231.847 Q2007.22 225.482 2010.65 221.755 Q2014.1 218.005 2019.93 218.005 Q2025.16 218.005 2028.19 221.385 Q2031.25 224.741 2031.25 230.528 M2026.99 229.278 Q2026.94 225.783 2025.02 223.699 Q2023.12 221.616 2019.98 221.616 Q2016.41 221.616 2014.26 223.63 Q2012.13 225.644 2011.81 229.301 L2026.99 229.278 Z" fill="#000000" fill-rule="evenodd" fill-opacity="1" /><path clip-path="url(#clip240)" d="M 0 0 M2059.79 228.908 L2059.79 244.556 L2055.53 244.556 L2055.53 229.047 Q2055.53 225.366 2054.1 223.537 Q2052.66 221.709 2049.79 221.709 Q2046.34 221.709 2044.35 223.908 Q2042.36 226.107 2042.36 229.903 L2042.36 244.556 L2038.08 244.556 L2038.08 218.63 L2042.36 218.63 L2042.36 222.658 Q2043.89 220.32 2045.95 219.162 Q2048.03 218.005 2050.74 218.005 Q2055.21 218.005 2057.5 220.783 Q2059.79 223.537 2059.79 228.908 Z" fill="#000000" fill-rule="evenodd" fill-opacity="1" /><path clip-path="url(#clip240)" d="M 0 0 M2086.94 219.625 L2086.94 223.607 Q2085.14 222.611 2083.31 222.125 Q2081.5 221.616 2079.65 221.616 Q2075.51 221.616 2073.22 224.255 Q2070.93 226.871 2070.93 231.616 Q2070.93 236.361 2073.22 239 Q2075.51 241.616 2079.65 241.616 Q2081.5 241.616 2083.31 241.13 Q2085.14 240.621 2086.94 239.625 L2086.94 243.56 Q2085.16 244.394 2083.24 244.81 Q2081.34 245.227 2079.19 245.227 Q2073.33 245.227 2069.88 241.546 Q2066.43 237.866 2066.43 231.616 Q2066.43 225.273 2069.91 221.639 Q2073.4 218.005 2079.47 218.005 Q2081.43 218.005 2083.31 218.422 Q2085.18 218.815 2086.94 219.625 Z" fill="#000000" fill-rule="evenodd" fill-opacity="1" /><path clip-path="url(#clip240)" d="M 0 0 M2105.14 246.963 Q2103.33 251.593 2101.62 253.005 Q2099.91 254.417 2097.04 254.417 L2093.63 254.417 L2093.63 250.852 L2096.13 250.852 Q2097.89 250.852 2098.87 250.019 Q2099.84 249.185 2101.02 246.083 L2101.78 244.139 L2091.3 218.63 L2095.81 218.63 L2103.91 238.908 L2112.01 218.63 L2116.53 218.63 L2105.14 246.963 Z" fill="#000000" fill-rule="evenodd" fill-opacity="1" /><path clip-path="url(#clip240)" d="M 0 0 M2154 219.394 L2154 223.422 Q2152.2 222.496 2150.25 222.033 Q2148.31 221.57 2146.23 221.57 Q2143.05 221.57 2141.46 222.542 Q2139.88 223.514 2139.88 225.459 Q2139.88 226.94 2141.02 227.797 Q2142.15 228.63 2145.58 229.394 L2147.04 229.718 Q2151.57 230.69 2153.47 232.472 Q2155.39 234.232 2155.39 237.403 Q2155.39 241.014 2152.52 243.121 Q2149.68 245.227 2144.68 245.227 Q2142.59 245.227 2140.32 244.81 Q2138.08 244.417 2135.58 243.607 L2135.58 239.209 Q2137.94 240.435 2140.23 241.06 Q2142.52 241.662 2144.77 241.662 Q2147.78 241.662 2149.4 240.644 Q2151.02 239.602 2151.02 237.727 Q2151.02 235.991 2149.84 235.065 Q2148.68 234.139 2144.72 233.283 L2143.24 232.935 Q2139.28 232.102 2137.52 230.389 Q2135.76 228.653 2135.76 225.644 Q2135.76 221.986 2138.36 219.996 Q2140.95 218.005 2145.72 218.005 Q2148.08 218.005 2150.16 218.352 Q2152.24 218.699 2154 219.394 Z" fill="#000000" fill-rule="evenodd" fill-opacity="1" /><path clip-path="url(#clip240)" d="M 0 0 M2183.73 228.908 L2183.73 244.556 L2179.47 244.556 L2179.47 229.047 Q2179.47 225.366 2178.03 223.537 Q2176.6 221.709 2173.73 221.709 Q2170.28 221.709 2168.29 223.908 Q2166.3 226.107 2166.3 229.903 L2166.3 244.556 L2162.01 244.556 L2162.01 208.537 L2166.3 208.537 L2166.3 222.658 Q2167.82 220.32 2169.88 219.162 Q2171.97 218.005 2174.67 218.005 Q2179.14 218.005 2181.43 220.783 Q2183.73 223.537 2183.73 228.908 Z" fill="#000000" fill-rule="evenodd" fill-opacity="1" /><path clip-path="url(#clip240)" d="M 0 0 M2192.22 218.63 L2196.48 218.63 L2196.48 244.556 L2192.22 244.556 L2192.22 218.63 M2192.22 208.537 L2196.48 208.537 L2196.48 213.931 L2192.22 213.931 L2192.22 208.537 Z" fill="#000000" fill-rule="evenodd" fill-opacity="1" /><path clip-path="url(#clip240)" d="M 0 0 M2218.52 208.537 L2218.52 212.079 L2214.44 212.079 Q2212.15 212.079 2211.25 213.005 Q2210.37 213.931 2210.37 216.338 L2210.37 218.63 L2217.38 218.63 L2217.38 221.94 L2210.37 221.94 L2210.37 244.556 L2206.09 244.556 L2206.09 221.94 L2202.01 221.94 L2202.01 218.63 L2206.09 218.63 L2206.09 216.824 Q2206.09 212.496 2208.1 210.528 Q2210.11 208.537 2214.49 208.537 L2218.52 208.537 Z" fill="#000000" fill-rule="evenodd" fill-opacity="1" /><path clip-path="url(#clip240)" d="M 0 0 M2225.46 211.269 L2225.46 218.63 L2234.23 218.63 L2234.23 221.94 L2225.46 221.94 L2225.46 236.014 Q2225.46 239.185 2226.32 240.088 Q2227.2 240.991 2229.86 240.991 L2234.23 240.991 L2234.23 244.556 L2229.86 244.556 Q2224.93 244.556 2223.05 242.727 Q2221.18 240.875 2221.18 236.014 L2221.18 221.94 L2218.05 221.94 L2218.05 218.63 L2221.18 218.63 L2221.18 211.269 L2225.46 211.269 Z" fill="#000000" fill-rule="evenodd" fill-opacity="1" /></svg>
