<?xml version="1.0" encoding="utf-8"?>
<svg xmlns="http://www.w3.org/2000/svg" xmlns:xlink="http://www.w3.org/1999/xlink" width="600" height="400" viewBox="0 0 2400 1600">
<defs>
  <clipPath id="clip330">
    <rect x="0" y="0" width="2400" height="1600"/>
  </clipPath>
</defs>
<path clip-path="url(#clip330)" d="
M0 1600 L2400 1600 L2400 0 L0 0  Z
  " fill="#ffffff" fill-rule="evenodd" fill-opacity="1"/>
<defs>
  <clipPath id="clip331">
    <rect x="480" y="0" width="1681" height="1600"/>
  </clipPath>
</defs>
<defs>
  <clipPath id="clip332">
    <rect x="338" y="123" width="2015" height="1301"/>
  </clipPath>
</defs>
<path clip-path="url(#clip330)" d="
M224.025 1427.15 L2352.76 1427.15 L2352.76 123.472 L224.025 123.472  Z
  " fill="#ffffff" fill-rule="evenodd" fill-opacity="1"/>
<defs>
  <clipPath id="clip333">
    <rect x="224" y="123" width="2130" height="1305"/>
  </clipPath>
</defs>
<polyline clip-path="url(#clip333)" style="stroke:#000000; stroke-width:2; stroke-opacity:0.1; fill:none" points="
  284.272,1427.15 284.272,123.472 
  "/>
<polyline clip-path="url(#clip333)" style="stroke:#000000; stroke-width:2; stroke-opacity:0.1; fill:none" points="
  686.724,1427.15 686.724,123.472 
  "/>
<polyline clip-path="url(#clip333)" style="stroke:#000000; stroke-width:2; stroke-opacity:0.1; fill:none" points="
  1089.18,1427.15 1089.18,123.472 
  "/>
<polyline clip-path="url(#clip333)" style="stroke:#000000; stroke-width:2; stroke-opacity:0.1; fill:none" points="
  1491.63,1427.15 1491.63,123.472 
  "/>
<polyline clip-path="url(#clip333)" style="stroke:#000000; stroke-width:2; stroke-opacity:0.1; fill:none" points="
  1894.08,1427.15 1894.08,123.472 
  "/>
<polyline clip-path="url(#clip333)" style="stroke:#000000; stroke-width:2; stroke-opacity:0.1; fill:none" points="
  2296.53,1427.15 2296.53,123.472 
  "/>
<polyline clip-path="url(#clip330)" style="stroke:#000000; stroke-width:4; stroke-opacity:1; fill:none" points="
  224.025,1427.15 2352.76,1427.15 
  "/>
<polyline clip-path="url(#clip330)" style="stroke:#000000; stroke-width:4; stroke-opacity:1; fill:none" points="
  284.272,1427.15 284.272,1411.5 
  "/>
<polyline clip-path="url(#clip330)" style="stroke:#000000; stroke-width:4; stroke-opacity:1; fill:none" points="
  686.724,1427.15 686.724,1411.5 
  "/>
<polyline clip-path="url(#clip330)" style="stroke:#000000; stroke-width:4; stroke-opacity:1; fill:none" points="
  1089.18,1427.15 1089.18,1411.5 
  "/>
<polyline clip-path="url(#clip330)" style="stroke:#000000; stroke-width:4; stroke-opacity:1; fill:none" points="
  1491.63,1427.15 1491.63,1411.5 
  "/>
<polyline clip-path="url(#clip330)" style="stroke:#000000; stroke-width:4; stroke-opacity:1; fill:none" points="
  1894.08,1427.15 1894.08,1411.5 
  "/>
<polyline clip-path="url(#clip330)" style="stroke:#000000; stroke-width:4; stroke-opacity:1; fill:none" points="
  2296.53,1427.15 2296.53,1411.5 
  "/>
<path clip-path="url(#clip330)" d="M 0 0 M284.272 1456.34 Q280.661 1456.34 278.832 1459.9 Q277.027 1463.44 277.027 1470.57 Q277.027 1477.68 278.832 1481.25 Q280.661 1484.79 284.272 1484.79 Q287.906 1484.79 289.712 1481.25 Q291.54 1477.68 291.54 1470.57 Q291.54 1463.44 289.712 1459.9 Q287.906 1456.34 284.272 1456.34 M284.272 1452.63 Q290.082 1452.63 293.138 1457.24 Q296.216 1461.82 296.216 1470.57 Q296.216 1479.3 293.138 1483.91 Q290.082 1488.49 284.272 1488.49 Q278.462 1488.49 275.383 1483.91 Q272.328 1479.3 272.328 1470.57 Q272.328 1461.82 275.383 1457.24 Q278.462 1452.63 284.272 1452.63 Z" fill="#000000" fill-rule="evenodd" fill-opacity="1" /><path clip-path="url(#clip330)" d="M 0 0 M661.412 1483.88 L669.051 1483.88 L669.051 1457.52 L660.741 1459.19 L660.741 1454.93 L669.004 1453.26 L673.68 1453.26 L673.68 1483.88 L681.319 1483.88 L681.319 1487.82 L661.412 1487.82 L661.412 1483.88 Z" fill="#000000" fill-rule="evenodd" fill-opacity="1" /><path clip-path="url(#clip330)" d="M 0 0 M700.763 1456.34 Q697.152 1456.34 695.324 1459.9 Q693.518 1463.44 693.518 1470.57 Q693.518 1477.68 695.324 1481.25 Q697.152 1484.79 700.763 1484.79 Q704.398 1484.79 706.203 1481.25 Q708.032 1477.68 708.032 1470.57 Q708.032 1463.44 706.203 1459.9 Q704.398 1456.34 700.763 1456.34 M700.763 1452.63 Q706.574 1452.63 709.629 1457.24 Q712.708 1461.82 712.708 1470.57 Q712.708 1479.3 709.629 1483.91 Q706.574 1488.49 700.763 1488.49 Q694.953 1488.49 691.875 1483.91 Q688.819 1479.3 688.819 1470.57 Q688.819 1461.82 691.875 1457.24 Q694.953 1452.63 700.763 1452.63 Z" fill="#000000" fill-rule="evenodd" fill-opacity="1" /><path clip-path="url(#clip330)" d="M 0 0 M1067.95 1483.88 L1084.27 1483.88 L1084.27 1487.82 L1062.32 1487.82 L1062.32 1483.88 Q1064.99 1481.13 1069.57 1476.5 Q1074.18 1471.85 1075.36 1470.51 Q1077.6 1467.98 1078.48 1466.25 Q1079.38 1464.49 1079.38 1462.8 Q1079.38 1460.04 1077.44 1458.31 Q1075.52 1456.57 1072.42 1456.57 Q1070.22 1456.57 1067.76 1457.33 Q1065.33 1458.1 1062.56 1459.65 L1062.56 1454.93 Q1065.38 1453.79 1067.83 1453.21 Q1070.29 1452.63 1072.32 1452.63 Q1077.7 1452.63 1080.89 1455.32 Q1084.08 1458.01 1084.08 1462.5 Q1084.08 1464.63 1083.27 1466.55 Q1082.49 1468.44 1080.38 1471.04 Q1079.8 1471.71 1076.7 1474.93 Q1073.6 1478.12 1067.95 1483.88 Z" fill="#000000" fill-rule="evenodd" fill-opacity="1" /><path clip-path="url(#clip330)" d="M 0 0 M1104.08 1456.34 Q1100.47 1456.34 1098.64 1459.9 Q1096.84 1463.44 1096.84 1470.57 Q1096.84 1477.68 1098.64 1481.25 Q1100.47 1484.79 1104.08 1484.79 Q1107.72 1484.79 1109.52 1481.25 Q1111.35 1477.68 1111.35 1470.57 Q1111.35 1463.44 1109.52 1459.9 Q1107.72 1456.34 1104.08 1456.34 M1104.08 1452.63 Q1109.89 1452.63 1112.95 1457.24 Q1116.03 1461.82 1116.03 1470.57 Q1116.03 1479.3 1112.95 1483.91 Q1109.89 1488.49 1104.08 1488.49 Q1098.27 1488.49 1095.19 1483.91 Q1092.14 1479.3 1092.14 1470.57 Q1092.14 1461.82 1095.19 1457.24 Q1098.27 1452.63 1104.08 1452.63 Z" fill="#000000" fill-rule="evenodd" fill-opacity="1" /><path clip-path="url(#clip330)" d="M 0 0 M1480.47 1469.19 Q1483.83 1469.9 1485.7 1472.17 Q1487.6 1474.44 1487.6 1477.77 Q1487.6 1482.89 1484.08 1485.69 Q1480.56 1488.49 1474.08 1488.49 Q1471.91 1488.49 1469.59 1488.05 Q1467.3 1487.63 1464.85 1486.78 L1464.85 1482.26 Q1466.79 1483.4 1469.11 1483.98 Q1471.42 1484.56 1473.94 1484.56 Q1478.34 1484.56 1480.63 1482.82 Q1482.95 1481.08 1482.95 1477.77 Q1482.95 1474.72 1480.8 1473.01 Q1478.67 1471.27 1474.85 1471.27 L1470.82 1471.27 L1470.82 1467.43 L1475.03 1467.43 Q1478.48 1467.43 1480.31 1466.06 Q1482.14 1464.67 1482.14 1462.08 Q1482.14 1459.42 1480.24 1458.01 Q1478.36 1456.57 1474.85 1456.57 Q1472.93 1456.57 1470.73 1456.99 Q1468.53 1457.4 1465.89 1458.28 L1465.89 1454.12 Q1468.55 1453.38 1470.86 1453.01 Q1473.2 1452.63 1475.26 1452.63 Q1480.59 1452.63 1483.69 1455.07 Q1486.79 1457.47 1486.79 1461.59 Q1486.79 1464.46 1485.15 1466.45 Q1483.5 1468.42 1480.47 1469.19 Z" fill="#000000" fill-rule="evenodd" fill-opacity="1" /><path clip-path="url(#clip330)" d="M 0 0 M1506.47 1456.34 Q1502.86 1456.34 1501.03 1459.9 Q1499.22 1463.44 1499.22 1470.57 Q1499.22 1477.68 1501.03 1481.25 Q1502.86 1484.79 1506.47 1484.79 Q1510.1 1484.79 1511.91 1481.25 Q1513.74 1477.68 1513.74 1470.57 Q1513.74 1463.44 1511.91 1459.9 Q1510.1 1456.34 1506.47 1456.34 M1506.47 1452.63 Q1512.28 1452.63 1515.33 1457.24 Q1518.41 1461.82 1518.41 1470.57 Q1518.41 1479.3 1515.33 1483.91 Q1512.28 1488.49 1506.47 1488.49 Q1500.66 1488.49 1497.58 1483.91 Q1494.52 1479.3 1494.52 1470.57 Q1494.52 1461.82 1497.58 1457.24 Q1500.66 1452.63 1506.47 1452.63 Z" fill="#000000" fill-rule="evenodd" fill-opacity="1" /><path clip-path="url(#clip330)" d="M 0 0 M1882.25 1457.33 L1870.45 1475.78 L1882.25 1475.78 L1882.25 1457.33 M1881.03 1453.26 L1886.91 1453.26 L1886.91 1475.78 L1891.84 1475.78 L1891.84 1479.67 L1886.91 1479.67 L1886.91 1487.82 L1882.25 1487.82 L1882.25 1479.67 L1866.65 1479.67 L1866.65 1475.16 L1881.03 1453.26 Z" fill="#000000" fill-rule="evenodd" fill-opacity="1" /><path clip-path="url(#clip330)" d="M 0 0 M1909.57 1456.34 Q1905.96 1456.34 1904.13 1459.9 Q1902.32 1463.44 1902.32 1470.57 Q1902.32 1477.68 1904.13 1481.25 Q1905.96 1484.79 1909.57 1484.79 Q1913.2 1484.79 1915.01 1481.25 Q1916.84 1477.68 1916.84 1470.57 Q1916.84 1463.44 1915.01 1459.9 Q1913.2 1456.34 1909.57 1456.34 M1909.57 1452.63 Q1915.38 1452.63 1918.43 1457.24 Q1921.51 1461.82 1921.51 1470.57 Q1921.51 1479.3 1918.43 1483.91 Q1915.38 1488.49 1909.57 1488.49 Q1903.76 1488.49 1900.68 1483.91 Q1897.62 1479.3 1897.62 1470.57 Q1897.62 1461.82 1900.68 1457.24 Q1903.76 1452.63 1909.57 1452.63 Z" fill="#000000" fill-rule="evenodd" fill-opacity="1" /><path clip-path="url(#clip330)" d="M 0 0 M2271.23 1453.26 L2289.59 1453.26 L2289.59 1457.19 L2275.51 1457.19 L2275.51 1465.67 Q2276.53 1465.32 2277.55 1465.16 Q2278.57 1464.97 2279.59 1464.97 Q2285.38 1464.97 2288.76 1468.14 Q2292.14 1471.32 2292.14 1476.73 Q2292.14 1482.31 2288.66 1485.41 Q2285.19 1488.49 2278.87 1488.49 Q2276.7 1488.49 2274.43 1488.12 Q2272.18 1487.75 2269.77 1487.01 L2269.77 1482.31 Q2271.86 1483.44 2274.08 1484 Q2276.3 1484.56 2278.78 1484.56 Q2282.78 1484.56 2285.12 1482.45 Q2287.46 1480.34 2287.46 1476.73 Q2287.46 1473.12 2285.12 1471.01 Q2282.78 1468.91 2278.78 1468.91 Q2276.9 1468.91 2275.03 1469.32 Q2273.18 1469.74 2271.23 1470.62 L2271.23 1453.26 Z" fill="#000000" fill-rule="evenodd" fill-opacity="1" /><path clip-path="url(#clip330)" d="M 0 0 M2311.35 1456.34 Q2307.74 1456.34 2305.91 1459.9 Q2304.1 1463.44 2304.1 1470.57 Q2304.1 1477.68 2305.91 1481.25 Q2307.74 1484.79 2311.35 1484.79 Q2314.98 1484.79 2316.79 1481.25 Q2318.62 1477.68 2318.62 1470.57 Q2318.62 1463.44 2316.79 1459.9 Q2314.98 1456.34 2311.35 1456.34 M2311.35 1452.63 Q2317.16 1452.63 2320.21 1457.24 Q2323.29 1461.82 2323.29 1470.57 Q2323.29 1479.3 2320.21 1483.91 Q2317.16 1488.49 2311.35 1488.49 Q2305.54 1488.49 2302.46 1483.91 Q2299.4 1479.3 2299.4 1470.57 Q2299.4 1461.82 2302.46 1457.24 Q2305.54 1452.63 2311.35 1452.63 Z" fill="#000000" fill-rule="evenodd" fill-opacity="1" /><path clip-path="url(#clip330)" d="M 0 0 M1238.92 1530.6 Q1238.92 1532.85 1235.66 1532.85 L1224.59 1532.85 L1220.17 1555.43 Q1220.08 1556.01 1219.95 1556.33 Q1219.85 1556.65 1219.56 1557.2 Q1219.3 1557.71 1218.76 1557.97 Q1218.24 1558.26 1217.47 1558.26 Q1216.5 1558.26 1216.02 1557.68 Q1215.57 1557.13 1215.57 1556.46 Q1215.57 1556.04 1216.21 1554.04 L1222.69 1532.85 L1217.21 1532.85 Q1212.06 1532.85 1208.84 1537.94 Q1208.32 1538.61 1208.03 1538.68 Q1207.9 1538.71 1207.77 1538.71 Q1207.42 1538.71 1207.19 1538.55 Q1207 1538.39 1207 1538.23 L1206.97 1538.07 Q1206.97 1537.84 1207.48 1536.94 Q1208.03 1536.01 1209 1534.62 Q1210 1533.24 1211 1532.14 Q1212.32 1530.72 1213.8 1529.98 Q1215.28 1529.21 1216.02 1529.11 Q1216.79 1529.02 1217.79 1529.02 L1236.28 1529.02 Q1237.11 1529.02 1237.57 1529.08 Q1238.02 1529.11 1238.47 1529.5 Q1238.92 1529.85 1238.92 1530.6 Z" fill="#000000" fill-rule="evenodd" fill-opacity="1" /><path clip-path="url(#clip330)" d="M 0 0 M1257.21 1540.97 Q1257.21 1529.82 1261.36 1520.84 Q1263.14 1517.07 1265.62 1513.91 Q1268.1 1510.76 1269.74 1509.37 Q1271.38 1507.99 1271.83 1507.99 Q1272.48 1507.99 1272.51 1508.63 Q1272.51 1508.95 1271.64 1509.76 Q1261.01 1520.58 1261.04 1540.97 Q1261.04 1561.42 1271.38 1571.82 Q1272.51 1572.95 1272.51 1573.3 Q1272.51 1573.94 1271.83 1573.94 Q1271.38 1573.94 1269.8 1572.62 Q1268.22 1571.3 1265.78 1568.28 Q1263.33 1565.25 1261.56 1561.55 Q1257.21 1552.56 1257.21 1540.97 Z" fill="#000000" fill-rule="evenodd" fill-opacity="1" /><path clip-path="url(#clip330)" d="M 0 0 M1282.54 1557.45 L1282.54 1555.43 Q1286.05 1555.43 1286.85 1555.01 Q1287.66 1554.56 1287.66 1552.43 L1287.66 1534.75 Q1287.66 1532.3 1286.79 1531.69 Q1285.95 1531.08 1282.54 1531.08 L1282.54 1529.02 L1291.81 1528.31 L1291.81 1535.23 Q1294.9 1528.31 1301.57 1528.31 Q1306.53 1528.31 1308.49 1530.76 Q1309.94 1532.4 1310.23 1534.23 Q1310.56 1536.07 1310.56 1540.84 L1310.56 1553.43 Q1310.62 1554.81 1311.68 1555.14 Q1312.75 1555.43 1315.71 1555.43 L1315.71 1557.45 Q1308.98 1557.26 1308.3 1557.26 Q1307.79 1557.26 1300.86 1557.45 L1300.86 1555.43 Q1304.37 1555.43 1305.18 1555.01 Q1306.02 1554.56 1306.02 1552.43 L1306.02 1537.07 Q1306.02 1533.72 1304.98 1531.75 Q1303.95 1529.76 1301.12 1529.76 Q1297.71 1529.76 1294.97 1532.62 Q1292.23 1535.49 1292.23 1540.32 L1292.23 1552.43 Q1292.23 1554.56 1293.04 1555.01 Q1293.87 1555.43 1297.35 1555.43 L1297.35 1557.45 Q1290.62 1557.26 1289.98 1557.26 Q1289.46 1557.26 1282.54 1557.45 Z" fill="#000000" fill-rule="evenodd" fill-opacity="1" /><path clip-path="url(#clip330)" d="M 0 0 M1318.77 1556.59 L1318.77 1547.89 Q1318.77 1547.15 1318.81 1546.89 Q1318.84 1546.63 1319.03 1546.44 Q1319.22 1546.25 1319.61 1546.25 Q1320.06 1546.25 1320.22 1546.44 Q1320.42 1546.63 1320.55 1547.37 Q1321.54 1551.92 1323.67 1554.33 Q1325.83 1556.71 1329.72 1556.71 Q1333.43 1556.71 1335.3 1555.07 Q1337.16 1553.43 1337.16 1550.72 Q1337.16 1545.89 1330.3 1544.67 Q1326.34 1543.86 1324.7 1543.35 Q1323.06 1542.8 1321.61 1541.61 Q1318.77 1539.29 1318.77 1536.01 Q1318.77 1532.72 1321.25 1530.31 Q1323.77 1527.89 1329.3 1527.89 Q1333.01 1527.89 1335.52 1529.76 Q1336.26 1529.18 1336.65 1528.7 Q1337.52 1527.89 1337.97 1527.89 Q1338.48 1527.89 1338.58 1528.24 Q1338.68 1528.57 1338.68 1529.5 L1338.68 1536.13 Q1338.68 1536.88 1338.64 1537.13 Q1338.61 1537.39 1338.42 1537.58 Q1338.23 1537.74 1337.81 1537.74 Q1337.07 1537.74 1337.03 1537.13 Q1336.52 1529.15 1329.3 1529.15 Q1325.41 1529.15 1323.67 1530.66 Q1321.93 1532.14 1321.93 1534.17 Q1321.93 1535.3 1322.45 1536.17 Q1322.99 1537 1323.67 1537.52 Q1324.38 1538 1325.67 1538.49 Q1326.95 1538.94 1327.73 1539.1 Q1328.53 1539.26 1330.05 1539.58 Q1335.33 1540.58 1337.55 1542.74 Q1340.32 1545.51 1340.32 1549.02 Q1340.32 1552.91 1337.68 1555.55 Q1335.04 1558.2 1329.72 1558.2 Q1325.44 1558.2 1322.45 1555.33 Q1322.06 1555.72 1321.77 1556.07 Q1321.48 1556.39 1321.35 1556.52 Q1321.25 1556.65 1321.22 1556.75 Q1321.19 1556.81 1321.12 1556.88 Q1319.8 1558.2 1319.48 1558.2 Q1318.97 1558.2 1318.87 1557.84 Q1318.77 1557.52 1318.77 1556.59 Z" fill="#000000" fill-rule="evenodd" fill-opacity="1" /><path clip-path="url(#clip330)" d="M 0 0 M1344.48 1573.3 Q1344.48 1572.98 1345.32 1572.17 Q1355.95 1561.35 1355.95 1540.97 Q1355.95 1520.51 1345.74 1510.18 Q1344.48 1508.99 1344.48 1508.63 Q1344.48 1507.99 1345.13 1507.99 Q1345.58 1507.99 1347.16 1509.31 Q1348.77 1510.63 1351.18 1513.65 Q1353.63 1516.68 1355.43 1520.39 Q1359.78 1529.37 1359.78 1540.97 Q1359.78 1552.11 1355.63 1561.09 Q1353.86 1564.86 1351.38 1568.02 Q1348.9 1571.17 1347.25 1572.56 Q1345.61 1573.94 1345.13 1573.94 Q1344.48 1573.94 1344.48 1573.3 Z" fill="#000000" fill-rule="evenodd" fill-opacity="1" /><polyline clip-path="url(#clip333)" style="stroke:#000000; stroke-width:2; stroke-opacity:0.1; fill:none" points="
  224.025,1234.51 2352.76,1234.51 
  "/>
<polyline clip-path="url(#clip333)" style="stroke:#000000; stroke-width:2; stroke-opacity:0.1; fill:none" points="
  224.025,1011.91 2352.76,1011.91 
  "/>
<polyline clip-path="url(#clip333)" style="stroke:#000000; stroke-width:2; stroke-opacity:0.1; fill:none" points="
  224.025,789.303 2352.76,789.303 
  "/>
<polyline clip-path="url(#clip333)" style="stroke:#000000; stroke-width:2; stroke-opacity:0.1; fill:none" points="
  224.025,566.697 2352.76,566.697 
  "/>
<polyline clip-path="url(#clip333)" style="stroke:#000000; stroke-width:2; stroke-opacity:0.1; fill:none" points="
  224.025,344.091 2352.76,344.091 
  "/>
<polyline clip-path="url(#clip330)" style="stroke:#000000; stroke-width:4; stroke-opacity:1; fill:none" points="
  224.025,1427.15 224.025,123.472 
  "/>
<polyline clip-path="url(#clip330)" style="stroke:#000000; stroke-width:4; stroke-opacity:1; fill:none" points="
  224.025,1234.51 249.57,1234.51 
  "/>
<polyline clip-path="url(#clip330)" style="stroke:#000000; stroke-width:4; stroke-opacity:1; fill:none" points="
  224.025,1011.91 249.57,1011.91 
  "/>
<polyline clip-path="url(#clip330)" style="stroke:#000000; stroke-width:4; stroke-opacity:1; fill:none" points="
  224.025,789.303 249.57,789.303 
  "/>
<polyline clip-path="url(#clip330)" style="stroke:#000000; stroke-width:4; stroke-opacity:1; fill:none" points="
  224.025,566.697 249.57,566.697 
  "/>
<polyline clip-path="url(#clip330)" style="stroke:#000000; stroke-width:4; stroke-opacity:1; fill:none" points="
  224.025,344.091 249.57,344.091 
  "/>
<path clip-path="url(#clip330)" d="M 0 0 M121.659 1247.86 L129.298 1247.86 L129.298 1221.49 L120.988 1223.16 L120.988 1218.9 L129.252 1217.23 L133.928 1217.23 L133.928 1247.86 L141.567 1247.86 L141.567 1251.79 L121.659 1251.79 L121.659 1247.86 Z" fill="#000000" fill-rule="evenodd" fill-opacity="1" /><path clip-path="url(#clip330)" d="M 0 0 M151.011 1245.91 L155.895 1245.91 L155.895 1251.79 L151.011 1251.79 L151.011 1245.91 Z" fill="#000000" fill-rule="evenodd" fill-opacity="1" /><path clip-path="url(#clip330)" d="M 0 0 M176.08 1220.31 Q172.469 1220.31 170.641 1223.88 Q168.835 1227.42 168.835 1234.55 Q168.835 1241.66 170.641 1245.22 Q172.469 1248.76 176.08 1248.76 Q179.715 1248.76 181.52 1245.22 Q183.349 1241.66 183.349 1234.55 Q183.349 1227.42 181.52 1223.88 Q179.715 1220.31 176.08 1220.31 M176.08 1216.61 Q181.891 1216.61 184.946 1221.22 Q188.025 1225.8 188.025 1234.55 Q188.025 1243.28 184.946 1247.88 Q181.891 1252.47 176.08 1252.47 Q170.27 1252.47 167.192 1247.88 Q164.136 1243.28 164.136 1234.55 Q164.136 1225.8 167.192 1221.22 Q170.27 1216.61 176.08 1216.61 Z" fill="#000000" fill-rule="evenodd" fill-opacity="1" /><path clip-path="url(#clip330)" d="M 0 0 M123.257 1025.25 L130.895 1025.25 L130.895 998.888 L122.585 1000.55 L122.585 996.295 L130.849 994.628 L135.525 994.628 L135.525 1025.25 L143.164 1025.25 L143.164 1029.19 L123.257 1029.19 L123.257 1025.25 Z" fill="#000000" fill-rule="evenodd" fill-opacity="1" /><path clip-path="url(#clip330)" d="M 0 0 M152.608 1023.31 L157.493 1023.31 L157.493 1029.19 L152.608 1029.19 L152.608 1023.31 Z" fill="#000000" fill-rule="evenodd" fill-opacity="1" /><path clip-path="url(#clip330)" d="M 0 0 M171.705 1025.25 L188.025 1025.25 L188.025 1029.19 L166.08 1029.19 L166.08 1025.25 Q168.743 1022.5 173.326 1017.87 Q177.932 1013.22 179.113 1011.87 Q181.358 1009.35 182.238 1007.61 Q183.141 1005.86 183.141 1004.17 Q183.141 1001.41 181.196 999.675 Q179.275 997.938 176.173 997.938 Q173.974 997.938 171.52 998.702 Q169.09 999.466 166.312 1001.02 L166.312 996.295 Q169.136 995.161 171.59 994.582 Q174.043 994.003 176.08 994.003 Q181.451 994.003 184.645 996.688 Q187.84 999.374 187.84 1003.86 Q187.84 1005.99 187.029 1007.92 Q186.242 1009.81 184.136 1012.41 Q183.557 1013.08 180.455 1016.29 Q177.354 1019.49 171.705 1025.25 Z" fill="#000000" fill-rule="evenodd" fill-opacity="1" /><path clip-path="url(#clip330)" d="M 0 0 M121.173 802.647 L128.812 802.647 L128.812 776.282 L120.502 777.948 L120.502 773.689 L128.766 772.023 L133.442 772.023 L133.442 802.647 L141.081 802.647 L141.081 806.583 L121.173 806.583 L121.173 802.647 Z" fill="#000000" fill-rule="evenodd" fill-opacity="1" /><path clip-path="url(#clip330)" d="M 0 0 M150.525 800.703 L155.409 800.703 L155.409 806.583 L150.525 806.583 L150.525 800.703 Z" fill="#000000" fill-rule="evenodd" fill-opacity="1" /><path clip-path="url(#clip330)" d="M 0 0 M178.442 776.097 L166.636 794.546 L178.442 794.546 L178.442 776.097 M177.215 772.023 L183.094 772.023 L183.094 794.546 L188.025 794.546 L188.025 798.434 L183.094 798.434 L183.094 806.583 L178.442 806.583 L178.442 798.434 L162.84 798.434 L162.84 793.921 L177.215 772.023 Z" fill="#000000" fill-rule="evenodd" fill-opacity="1" /><path clip-path="url(#clip330)" d="M 0 0 M121.497 580.042 L129.136 580.042 L129.136 553.676 L120.826 555.343 L120.826 551.083 L129.09 549.417 L133.766 549.417 L133.766 580.042 L141.405 580.042 L141.405 583.977 L121.497 583.977 L121.497 580.042 Z" fill="#000000" fill-rule="evenodd" fill-opacity="1" /><path clip-path="url(#clip330)" d="M 0 0 M150.849 578.097 L155.733 578.097 L155.733 583.977 L150.849 583.977 L150.849 578.097 Z" fill="#000000" fill-rule="evenodd" fill-opacity="1" /><path clip-path="url(#clip330)" d="M 0 0 M176.497 564.833 Q173.349 564.833 171.497 566.986 Q169.668 569.139 169.668 572.889 Q169.668 576.616 171.497 578.792 Q173.349 580.944 176.497 580.944 Q179.645 580.944 181.474 578.792 Q183.326 576.616 183.326 572.889 Q183.326 569.139 181.474 566.986 Q179.645 564.833 176.497 564.833 M185.779 550.181 L185.779 554.44 Q184.02 553.607 182.215 553.167 Q180.432 552.727 178.673 552.727 Q174.043 552.727 171.59 555.852 Q169.159 558.977 168.812 565.296 Q170.178 563.282 172.238 562.218 Q174.298 561.13 176.775 561.13 Q181.983 561.13 184.992 564.301 Q188.025 567.449 188.025 572.889 Q188.025 578.213 184.877 581.43 Q181.729 584.648 176.497 584.648 Q170.502 584.648 167.33 580.065 Q164.159 575.458 164.159 566.731 Q164.159 558.537 168.048 553.676 Q171.937 548.792 178.488 548.792 Q180.247 548.792 182.029 549.139 Q183.835 549.486 185.779 550.181 Z" fill="#000000" fill-rule="evenodd" fill-opacity="1" /><path clip-path="url(#clip330)" d="M 0 0 M121.752 357.436 L129.391 357.436 L129.391 331.07 L121.081 332.737 L121.081 328.478 L129.345 326.811 L134.02 326.811 L134.02 357.436 L141.659 357.436 L141.659 361.371 L121.752 361.371 L121.752 357.436 Z" fill="#000000" fill-rule="evenodd" fill-opacity="1" /><path clip-path="url(#clip330)" d="M 0 0 M151.104 355.491 L155.988 355.491 L155.988 361.371 L151.104 361.371 L151.104 355.491 Z" fill="#000000" fill-rule="evenodd" fill-opacity="1" /><path clip-path="url(#clip330)" d="M 0 0 M176.173 344.959 Q172.84 344.959 170.918 346.741 Q169.02 348.524 169.02 351.649 Q169.02 354.774 170.918 356.556 Q172.84 358.339 176.173 358.339 Q179.506 358.339 181.428 356.556 Q183.349 354.751 183.349 351.649 Q183.349 348.524 181.428 346.741 Q179.529 344.959 176.173 344.959 M171.497 342.968 Q168.488 342.228 166.798 340.167 Q165.131 338.107 165.131 335.144 Q165.131 331.001 168.071 328.593 Q171.034 326.186 176.173 326.186 Q181.335 326.186 184.275 328.593 Q187.215 331.001 187.215 335.144 Q187.215 338.107 185.525 340.167 Q183.858 342.228 180.872 342.968 Q184.252 343.755 186.127 346.047 Q188.025 348.339 188.025 351.649 Q188.025 356.672 184.946 359.357 Q181.891 362.042 176.173 362.042 Q170.455 362.042 167.377 359.357 Q164.321 356.672 164.321 351.649 Q164.321 348.339 166.219 346.047 Q168.118 343.755 171.497 342.968 M169.784 335.584 Q169.784 338.269 171.451 339.774 Q173.141 341.278 176.173 341.278 Q179.182 341.278 180.872 339.774 Q182.585 338.269 182.585 335.584 Q182.585 332.899 180.872 331.394 Q179.182 329.89 176.173 329.89 Q173.141 329.89 171.451 331.394 Q169.784 332.899 169.784 335.584 Z" fill="#000000" fill-rule="evenodd" fill-opacity="1" /><path clip-path="url(#clip330)" d="M 0 0 M50.1836 835.816 Q50.2159 835.816 51.3753 836.009 L80.6504 843.352 Q82.1963 843.739 83.7422 844.834 Q85.3202 845.897 86.6729 847.604 Q88.0577 849.278 88.8951 851.855 Q89.7647 854.399 89.7647 857.33 Q89.7647 862 88.7663 864.061 Q87.8001 866.09 85.7389 866.09 Q83.9354 866.09 82.9048 864.963 Q81.9064 863.835 81.9064 862.547 Q81.9064 861.323 82.6149 860.679 Q83.3235 860.035 84.2252 860.035 Q85.2236 860.035 86.222 860.711 Q87.2526 861.388 87.6391 862.74 Q88.3154 860.583 88.3154 857.459 Q88.3154 850.856 81.3267 848.022 Q81.2301 847.958 81.1979 847.958 L72.4701 845.768 L72.4057 845.864 Q73.0498 846.412 73.7905 847.282 Q74.4991 848.119 75.3686 849.922 Q76.2382 851.726 76.2382 853.497 Q76.2382 857.201 73.4041 859.745 Q70.5378 862.257 65.8035 862.257 Q62.3575 862.257 58.9114 860.872 Q55.4332 859.455 52.8889 857.265 Q50.3125 855.043 48.7022 852.209 Q47.0919 849.343 47.0919 846.573 Q47.0919 844.641 48.2513 842.998 Q49.3785 841.356 51.2464 840.454 Q49.7006 840.293 49.0564 839.423 Q48.4123 838.522 48.4123 837.749 Q48.4123 836.879 48.8954 836.364 Q49.3463 835.816 50.1836 835.816 M54.2094 841.227 Q54.0161 841.227 53.5009 841.356 Q52.9534 841.484 52.0838 841.871 Q51.2142 842.225 50.4413 842.773 Q49.6684 843.32 49.1209 844.319 Q48.5411 845.285 48.5411 846.509 Q48.5411 848.505 50.2159 850.502 Q51.8584 852.499 54.4026 853.884 Q56.8503 855.172 61.5845 856.396 Q66.3188 857.587 68.7342 857.587 Q71.1175 857.587 72.9532 856.557 Q74.7889 855.526 74.7889 853.304 Q74.7889 850.728 72.4057 847.958 Q69.9258 845.092 67.8003 844.608 L55.2078 841.42 Q54.4348 841.227 54.2094 841.227 Z" fill="#000000" fill-rule="evenodd" fill-opacity="1" /><path clip-path="url(#clip330)" d="M 0 0 M34.6809 829.065 Q26.8807 829.065 20.5909 826.157 Q17.9532 824.917 15.7439 823.181 Q13.5346 821.445 12.5652 820.296 Q11.5958 819.146 11.5958 818.83 Q11.5958 818.379 12.0466 818.357 Q12.2721 818.357 12.8357 818.966 Q20.4105 826.405 34.6809 826.383 Q48.9964 826.383 56.2782 819.146 Q57.0672 818.357 57.3152 818.357 Q57.7661 818.357 57.7661 818.83 Q57.7661 819.146 56.8418 820.251 Q55.9175 821.355 53.7983 823.069 Q51.6792 824.782 49.0866 826.022 Q42.7968 829.065 34.6809 829.065 Z" fill="#000000" fill-rule="evenodd" fill-opacity="1" /><path clip-path="url(#clip330)" d="M 0 0 M46.2235 811.336 Q45.3894 811.336 45.1414 811.269 Q44.8934 811.178 44.5101 810.818 L34.6358 801.958 Q29.1802 797.111 24.4234 797.111 Q21.3348 797.111 19.1255 798.734 Q16.9162 800.335 16.9162 803.288 Q16.9162 805.317 18.1561 807.03 Q19.396 808.744 21.6053 809.533 Q21.5603 809.397 21.5603 808.924 Q21.5603 807.774 22.2817 807.143 Q23.0031 806.489 23.9725 806.489 Q25.2124 806.489 25.8211 807.301 Q26.4072 808.09 26.4072 808.879 Q26.4072 809.195 26.3396 809.623 Q26.272 810.029 25.6407 810.682 Q24.987 811.336 23.8372 811.336 Q20.6134 811.336 18.0434 808.901 Q15.4733 806.444 15.4733 802.702 Q15.4733 798.464 17.9983 795.691 Q20.5007 792.895 24.4234 792.895 Q25.7985 792.895 27.061 793.323 Q28.3009 793.729 29.2703 794.293 Q30.2397 794.834 31.7953 796.322 Q33.3508 797.81 34.4555 799.005 Q35.5601 800.199 37.9047 802.882 L42.6615 807.774 L42.6615 799.455 Q42.6615 795.398 42.3008 795.082 Q41.647 794.631 38.1978 794.067 L38.1978 792.895 L46.2235 794.203 L46.2235 811.336 Z" fill="#000000" fill-rule="evenodd" fill-opacity="1" /><path clip-path="url(#clip330)" d="M 0 0 M57.3152 788.471 Q57.0898 788.471 56.5262 787.885 Q48.9513 780.446 34.6809 780.446 Q20.3654 780.446 13.1288 787.592 Q12.2946 788.471 12.0466 788.471 Q11.5958 788.471 11.5958 788.02 Q11.5958 787.705 12.5201 786.6 Q13.4444 785.473 15.5635 783.782 Q17.6827 782.069 20.2752 780.806 Q26.565 777.763 34.6809 777.763 Q42.4812 777.763 48.771 780.671 Q51.4086 781.911 53.618 783.647 Q55.8273 785.383 56.7967 786.533 Q57.7661 787.682 57.7661 788.02 Q57.7661 788.471 57.3152 788.471 Z" fill="#000000" fill-rule="evenodd" fill-opacity="1" /><path clip-path="url(#clip330)" d="M 0 0 M59.7488 763.702 Q48.6056 763.702 39.6201 759.548 Q35.852 757.776 32.6959 755.296 Q29.5397 752.817 28.1548 751.174 Q26.77 749.532 26.77 749.081 Q26.77 748.437 27.4141 748.404 Q27.7362 748.404 28.5413 749.274 Q39.3625 759.902 59.7488 759.87 Q80.1995 759.87 90.602 749.532 Q91.7292 748.404 92.0835 748.404 Q92.7276 748.404 92.7276 749.081 Q92.7276 749.532 91.4071 751.11 Q90.0867 752.688 87.0594 755.135 Q84.032 757.583 80.3283 759.354 Q71.3429 763.702 59.7488 763.702 Z" fill="#000000" fill-rule="evenodd" fill-opacity="1" /><path clip-path="url(#clip330)" d="M 0 0 M49.3785 706.427 Q51.6329 706.427 51.6329 709.679 L51.6329 720.758 L74.2092 725.17 Q74.7889 725.267 75.111 725.396 Q75.433 725.492 75.9805 725.782 Q76.4958 726.04 76.7535 726.587 Q77.0433 727.103 77.0433 727.876 Q77.0433 728.842 76.4636 729.325 Q75.9161 729.776 75.2398 729.776 Q74.8211 729.776 72.8244 729.132 L51.6329 722.658 L51.6329 728.133 Q51.6329 733.286 56.7214 736.507 Q57.3978 737.022 57.4622 737.312 Q57.4944 737.441 57.4944 737.57 Q57.4944 737.924 57.3333 738.149 Q57.1723 738.343 57.0113 738.343 L56.8503 738.375 Q56.6248 738.375 55.7231 737.859 Q54.7891 737.312 53.4042 736.346 Q52.0194 735.347 50.9244 734.349 Q49.5073 733.029 48.7666 731.547 Q47.9936 730.066 47.897 729.325 Q47.8004 728.552 47.8004 727.554 L47.8004 709.067 Q47.8004 708.23 47.8648 707.779 Q47.897 707.328 48.2835 706.877 Q48.6378 706.427 49.3785 706.427 Z" fill="#000000" fill-rule="evenodd" fill-opacity="1" /><path clip-path="url(#clip330)" d="M 0 0 M92.0835 709.858 Q91.7614 709.858 90.9563 709.02 Q80.1351 698.392 59.7488 698.392 Q39.2981 698.392 28.96 708.601 Q27.7684 709.858 27.4141 709.858 Q26.77 709.858 26.77 709.213 Q26.77 708.763 28.0904 707.184 Q29.4109 705.574 32.4382 703.159 Q35.4656 700.711 39.1692 698.908 Q48.1547 694.56 59.7488 694.56 Q70.892 694.56 79.8775 698.714 Q83.6455 700.486 86.8017 702.965 Q89.9579 705.445 91.3427 707.088 Q92.7276 708.73 92.7276 709.213 Q92.7276 709.858 92.0835 709.858 Z" fill="#000000" fill-rule="evenodd" fill-opacity="1" /><path clip-path="url(#clip330)" d="M 0 0 M581.001 18.8205 L581.001 41.5461 L591.291 41.5461 Q597.002 41.5461 600.121 38.5889 Q603.241 35.6318 603.241 30.163 Q603.241 24.7348 600.121 21.7777 Q597.002 18.8205 591.291 18.8205 L581.001 18.8205 M572.818 12.096 L591.291 12.096 Q601.458 12.096 606.643 16.714 Q611.869 21.2916 611.869 30.163 Q611.869 39.1155 606.643 43.6931 Q601.458 48.2706 591.291 48.2706 L581.001 48.2706 L581.001 72.576 L572.818 72.576 L572.818 12.096 Z" fill="#000000" fill-rule="evenodd" fill-opacity="1" /><path clip-path="url(#clip330)" d="M 0 0 M660.237 45.1919 L660.237 72.576 L652.783 72.576 L652.783 45.4349 Q652.783 38.994 650.272 35.7938 Q647.76 32.5936 642.737 32.5936 Q636.701 32.5936 633.217 36.4419 Q629.734 40.2903 629.734 46.9338 L629.734 72.576 L622.239 72.576 L622.239 9.54393 L629.734 9.54393 L629.734 34.2544 Q632.407 30.163 636.012 28.1376 Q639.658 26.1121 644.398 26.1121 Q652.216 26.1121 656.227 30.9732 Q660.237 35.7938 660.237 45.1919 Z" fill="#000000" fill-rule="evenodd" fill-opacity="1" /><path clip-path="url(#clip330)" d="M 0 0 M692.685 32.4315 Q686.689 32.4315 683.206 37.1306 Q679.722 41.7891 679.722 49.9314 Q679.722 58.0738 683.165 62.7728 Q686.649 67.4314 692.685 67.4314 Q698.639 67.4314 702.123 62.7323 Q705.607 58.0333 705.607 49.9314 Q705.607 41.8701 702.123 37.1711 Q698.639 32.4315 692.685 32.4315 M692.685 26.1121 Q702.407 26.1121 707.957 32.4315 Q713.506 38.7509 713.506 49.9314 Q713.506 61.0714 707.957 67.4314 Q702.407 73.7508 692.685 73.7508 Q682.922 73.7508 677.372 67.4314 Q671.863 61.0714 671.863 49.9314 Q671.863 38.7509 677.372 32.4315 Q682.922 26.1121 692.685 26.1121 Z" fill="#000000" fill-rule="evenodd" fill-opacity="1" /><path clip-path="url(#clip330)" d="M 0 0 M733.234 14.324 L733.234 27.2059 L748.587 27.2059 L748.587 32.9987 L733.234 32.9987 L733.234 57.6282 Q733.234 63.1779 734.733 64.7578 Q736.272 66.3376 740.931 66.3376 L748.587 66.3376 L748.587 72.576 L740.931 72.576 Q732.302 72.576 729.021 69.3758 Q725.74 66.1351 725.74 57.6282 L725.74 32.9987 L720.271 32.9987 L720.271 27.2059 L725.74 27.2059 L725.74 14.324 L733.234 14.324 Z" fill="#000000" fill-rule="evenodd" fill-opacity="1" /><path clip-path="url(#clip330)" d="M 0 0 M775.971 32.4315 Q769.976 32.4315 766.492 37.1306 Q763.008 41.7891 763.008 49.9314 Q763.008 58.0738 766.452 62.7728 Q769.935 67.4314 775.971 67.4314 Q781.926 67.4314 785.41 62.7323 Q788.894 58.0333 788.894 49.9314 Q788.894 41.8701 785.41 37.1711 Q781.926 32.4315 775.971 32.4315 M775.971 26.1121 Q785.693 26.1121 791.243 32.4315 Q796.793 38.7509 796.793 49.9314 Q796.793 61.0714 791.243 67.4314 Q785.693 73.7508 775.971 73.7508 Q766.209 73.7508 760.659 67.4314 Q755.15 61.0714 755.15 49.9314 Q755.15 38.7509 760.659 32.4315 Q766.209 26.1121 775.971 26.1121 Z" fill="#000000" fill-rule="evenodd" fill-opacity="1" /><path clip-path="url(#clip330)" d="M 0 0 M846.862 45.1919 L846.862 72.576 L839.408 72.576 L839.408 45.4349 Q839.408 38.994 836.897 35.7938 Q834.385 32.5936 829.362 32.5936 Q823.326 32.5936 819.843 36.4419 Q816.359 40.2903 816.359 46.9338 L816.359 72.576 L808.865 72.576 L808.865 27.2059 L816.359 27.2059 L816.359 34.2544 Q819.032 30.163 822.638 28.1376 Q826.283 26.1121 831.023 26.1121 Q838.841 26.1121 842.852 30.9732 Q846.862 35.7938 846.862 45.1919 Z" fill="#000000" fill-rule="evenodd" fill-opacity="1" /><path clip-path="url(#clip330)" d="M 0 0 M933.713 16.7545 L933.713 25.383 Q929.582 21.5346 924.882 19.6307 Q920.224 17.7268 914.958 17.7268 Q904.587 17.7268 899.078 24.0867 Q893.569 30.4061 893.569 42.3968 Q893.569 54.3469 899.078 60.7069 Q904.587 67.0263 914.958 67.0263 Q920.224 67.0263 924.882 65.1223 Q929.582 63.2184 933.713 59.3701 L933.713 67.9175 Q929.419 70.8341 924.599 72.2924 Q919.819 73.7508 914.472 73.7508 Q900.739 73.7508 892.84 65.3654 Q884.941 56.9395 884.941 42.3968 Q884.941 27.8135 892.84 19.4281 Q900.739 11.0023 914.472 11.0023 Q919.9 11.0023 924.68 12.4606 Q929.501 13.8784 933.713 16.7545 Z" fill="#000000" fill-rule="evenodd" fill-opacity="1" /><path clip-path="url(#clip330)" d="M 0 0 M963.609 32.4315 Q957.614 32.4315 954.13 37.1306 Q950.646 41.7891 950.646 49.9314 Q950.646 58.0738 954.089 62.7728 Q957.573 67.4314 963.609 67.4314 Q969.564 67.4314 973.048 62.7323 Q976.532 58.0333 976.532 49.9314 Q976.532 41.8701 973.048 37.1711 Q969.564 32.4315 963.609 32.4315 M963.609 26.1121 Q973.331 26.1121 978.881 32.4315 Q984.431 38.7509 984.431 49.9314 Q984.431 61.0714 978.881 67.4314 Q973.331 73.7508 963.609 73.7508 Q953.846 73.7508 948.297 67.4314 Q942.787 61.0714 942.787 49.9314 Q942.787 38.7509 948.297 32.4315 Q953.846 26.1121 963.609 26.1121 Z" fill="#000000" fill-rule="evenodd" fill-opacity="1" /><path clip-path="url(#clip330)" d="M 0 0 M1023.08 34.1734 Q1021.82 33.4443 1020.32 33.1202 Q1018.86 32.7556 1017.08 32.7556 Q1010.76 32.7556 1007.36 36.8875 Q1004 40.9789 1004 48.6757 L1004 72.576 L996.502 72.576 L996.502 27.2059 L1004 27.2059 L1004 34.2544 Q1006.35 30.1225 1010.11 28.1376 Q1013.88 26.1121 1019.27 26.1121 Q1020.04 26.1121 1020.97 26.2337 Q1021.9 26.3147 1023.04 26.5172 L1023.08 34.1734 Z" fill="#000000" fill-rule="evenodd" fill-opacity="1" /><path clip-path="url(#clip330)" d="M 0 0 M1055.73 34.1734 Q1054.47 33.4443 1052.97 33.1202 Q1051.51 32.7556 1049.73 32.7556 Q1043.41 32.7556 1040.01 36.8875 Q1036.65 40.9789 1036.65 48.6757 L1036.65 72.576 L1029.15 72.576 L1029.15 27.2059 L1036.65 27.2059 L1036.65 34.2544 Q1039 30.1225 1042.76 28.1376 Q1046.53 26.1121 1051.92 26.1121 Q1052.69 26.1121 1053.62 26.2337 Q1054.55 26.3147 1055.69 26.5172 L1055.73 34.1734 Z" fill="#000000" fill-rule="evenodd" fill-opacity="1" /><path clip-path="url(#clip330)" d="M 0 0 M1100.53 48.0275 L1100.53 51.6733 L1066.26 51.6733 Q1066.75 59.3701 1070.88 63.421 Q1075.05 67.4314 1082.46 67.4314 Q1086.76 67.4314 1090.77 66.3781 Q1094.82 65.3249 1098.79 63.2184 L1098.79 70.267 Q1094.78 71.9684 1090.56 72.8596 Q1086.35 73.7508 1082.02 73.7508 Q1071.16 73.7508 1064.8 67.4314 Q1058.48 61.1119 1058.48 50.3365 Q1058.48 39.1965 1064.48 32.6746 Q1070.51 26.1121 1080.72 26.1121 Q1089.88 26.1121 1095.18 32.0264 Q1100.53 37.9003 1100.53 48.0275 M1093.08 45.84 Q1092.99 39.7232 1089.63 36.0774 Q1086.31 32.4315 1080.8 32.4315 Q1074.56 32.4315 1070.8 35.9558 Q1067.07 39.4801 1066.5 45.8805 L1093.08 45.84 Z" fill="#000000" fill-rule="evenodd" fill-opacity="1" /><path clip-path="url(#clip330)" d="M 0 0 M1112.76 9.54393 L1120.22 9.54393 L1120.22 72.576 L1112.76 72.576 L1112.76 9.54393 Z" fill="#000000" fill-rule="evenodd" fill-opacity="1" /><path clip-path="url(#clip330)" d="M 0 0 M1156.43 49.7694 Q1147.4 49.7694 1143.91 51.8354 Q1140.43 53.9013 1140.43 58.8839 Q1140.43 62.8538 1143.02 65.2034 Q1145.66 67.5124 1150.15 67.5124 Q1156.35 67.5124 1160.08 63.1374 Q1163.85 58.7219 1163.85 51.4303 L1163.85 49.7694 L1156.43 49.7694 M1171.3 46.6907 L1171.3 72.576 L1163.85 72.576 L1163.85 65.6895 Q1161.29 69.8214 1157.49 71.8063 Q1153.68 73.7508 1148.17 73.7508 Q1141.2 73.7508 1137.07 69.8619 Q1132.98 65.9325 1132.98 59.3701 Q1132.98 51.7138 1138.08 47.825 Q1143.23 43.9361 1153.39 43.9361 L1163.85 43.9361 L1163.85 43.2069 Q1163.85 38.0623 1160.44 35.2672 Q1157.08 32.4315 1150.96 32.4315 Q1147.07 32.4315 1143.39 33.3632 Q1139.7 34.295 1136.3 36.1584 L1136.3 29.2718 Q1140.39 27.692 1144.24 26.9223 Q1148.09 26.1121 1151.73 26.1121 Q1161.58 26.1121 1166.44 31.2163 Q1171.3 36.3204 1171.3 46.6907 Z" fill="#000000" fill-rule="evenodd" fill-opacity="1" /><path clip-path="url(#clip330)" d="M 0 0 M1194.02 14.324 L1194.02 27.2059 L1209.38 27.2059 L1209.38 32.9987 L1194.02 32.9987 L1194.02 57.6282 Q1194.02 63.1779 1195.52 64.7578 Q1197.06 66.3376 1201.72 66.3376 L1209.38 66.3376 L1209.38 72.576 L1201.72 72.576 Q1193.09 72.576 1189.81 69.3758 Q1186.53 66.1351 1186.53 57.6282 L1186.53 32.9987 L1181.06 32.9987 L1181.06 27.2059 L1186.53 27.2059 L1186.53 14.324 L1194.02 14.324 Z" fill="#000000" fill-rule="evenodd" fill-opacity="1" /><path clip-path="url(#clip330)" d="M 0 0 M1219.18 27.2059 L1226.63 27.2059 L1226.63 72.576 L1219.18 72.576 L1219.18 27.2059 M1219.18 9.54393 L1226.63 9.54393 L1226.63 18.9825 L1219.18 18.9825 L1219.18 9.54393 Z" fill="#000000" fill-rule="evenodd" fill-opacity="1" /><path clip-path="url(#clip330)" d="M 0 0 M1259.81 32.4315 Q1253.82 32.4315 1250.33 37.1306 Q1246.85 41.7891 1246.85 49.9314 Q1246.85 58.0738 1250.29 62.7728 Q1253.78 67.4314 1259.81 67.4314 Q1265.77 67.4314 1269.25 62.7323 Q1272.73 58.0333 1272.73 49.9314 Q1272.73 41.8701 1269.25 37.1711 Q1265.77 32.4315 1259.81 32.4315 M1259.81 26.1121 Q1269.53 26.1121 1275.08 32.4315 Q1280.63 38.7509 1280.63 49.9314 Q1280.63 61.0714 1275.08 67.4314 Q1269.53 73.7508 1259.81 73.7508 Q1250.05 73.7508 1244.5 67.4314 Q1238.99 61.0714 1238.99 49.9314 Q1238.99 38.7509 1244.5 32.4315 Q1250.05 26.1121 1259.81 26.1121 Z" fill="#000000" fill-rule="evenodd" fill-opacity="1" /><path clip-path="url(#clip330)" d="M 0 0 M1330.7 45.1919 L1330.7 72.576 L1323.25 72.576 L1323.25 45.4349 Q1323.25 38.994 1320.74 35.7938 Q1318.23 32.5936 1313.2 32.5936 Q1307.17 32.5936 1303.68 36.4419 Q1300.2 40.2903 1300.2 46.9338 L1300.2 72.576 L1292.7 72.576 L1292.7 27.2059 L1300.2 27.2059 L1300.2 34.2544 Q1302.87 30.163 1306.48 28.1376 Q1310.12 26.1121 1314.86 26.1121 Q1322.68 26.1121 1326.69 30.9732 Q1330.7 35.7938 1330.7 45.1919 Z" fill="#000000" fill-rule="evenodd" fill-opacity="1" /><path clip-path="url(#clip330)" d="M 0 0 M1374.49 28.5427 L1374.49 35.5912 Q1371.33 33.9709 1367.93 33.1607 Q1364.53 32.3505 1360.88 32.3505 Q1355.33 32.3505 1352.54 34.0519 Q1349.78 35.7533 1349.78 39.156 Q1349.78 41.7486 1351.77 43.2475 Q1353.75 44.7058 1359.75 46.0426 L1362.3 46.6097 Q1370.24 48.3111 1373.56 51.4303 Q1376.92 54.509 1376.92 60.0587 Q1376.92 66.3781 1371.9 70.0644 Q1366.92 73.7508 1358.17 73.7508 Q1354.52 73.7508 1350.55 73.0216 Q1346.62 72.3329 1342.25 70.9151 L1342.25 63.2184 Q1346.38 65.3654 1350.39 66.4591 Q1354.4 67.5124 1358.33 67.5124 Q1363.6 67.5124 1366.43 65.73 Q1369.27 63.9071 1369.27 60.6258 Q1369.27 57.5877 1367.2 55.9673 Q1365.18 54.3469 1358.25 52.8481 L1355.66 52.2405 Q1348.73 50.7821 1345.65 47.7845 Q1342.57 44.7463 1342.57 39.4801 Q1342.57 33.0797 1347.11 29.5959 Q1351.65 26.1121 1359.99 26.1121 Q1364.12 26.1121 1367.77 26.7198 Q1371.41 27.3274 1374.49 28.5427 Z" fill="#000000" fill-rule="evenodd" fill-opacity="1" /><path clip-path="url(#clip330)" d="M 0 0 M1409.82 27.2059 L1417.72 27.2059 L1431.89 65.2844 L1446.07 27.2059 L1453.97 27.2059 L1436.96 72.576 L1426.83 72.576 L1409.82 27.2059 Z" fill="#000000" fill-rule="evenodd" fill-opacity="1" /><path clip-path="url(#clip330)" d="M 0 0 M1493.18 28.5427 L1493.18 35.5912 Q1490.02 33.9709 1486.62 33.1607 Q1483.22 32.3505 1479.57 32.3505 Q1474.02 32.3505 1471.23 34.0519 Q1468.47 35.7533 1468.47 39.156 Q1468.47 41.7486 1470.46 43.2475 Q1472.44 44.7058 1478.44 46.0426 L1480.99 46.6097 Q1488.93 48.3111 1492.25 51.4303 Q1495.61 54.509 1495.61 60.0587 Q1495.61 66.3781 1490.59 70.0644 Q1485.61 73.7508 1476.86 73.7508 Q1473.21 73.7508 1469.24 73.0216 Q1465.31 72.3329 1460.94 70.9151 L1460.94 63.2184 Q1465.07 65.3654 1469.08 66.4591 Q1473.09 67.5124 1477.02 67.5124 Q1482.29 67.5124 1485.12 65.73 Q1487.96 63.9071 1487.96 60.6258 Q1487.96 57.5877 1485.89 55.9673 Q1483.87 54.3469 1476.94 52.8481 L1474.35 52.2405 Q1467.42 50.7821 1464.34 47.7845 Q1461.26 44.7463 1461.26 39.4801 Q1461.26 33.0797 1465.8 29.5959 Q1470.34 26.1121 1478.68 26.1121 Q1482.81 26.1121 1486.46 26.7198 Q1490.11 27.3274 1493.18 28.5427 Z" fill="#000000" fill-rule="evenodd" fill-opacity="1" /><path clip-path="url(#clip330)" d="M 0 0 M1525.79 12.096 L1576.96 12.096 L1576.96 18.9825 L1555.49 18.9825 L1555.49 72.576 L1547.26 72.576 L1547.26 18.9825 L1525.79 18.9825 L1525.79 12.096 Z" fill="#000000" fill-rule="evenodd" fill-opacity="1" /><path clip-path="url(#clip330)" d="M 0 0 M1581.98 27.2059 L1589.43 27.2059 L1589.43 72.576 L1581.98 72.576 L1581.98 27.2059 M1581.98 9.54393 L1589.43 9.54393 L1589.43 18.9825 L1581.98 18.9825 L1581.98 9.54393 Z" fill="#000000" fill-rule="evenodd" fill-opacity="1" /><path clip-path="url(#clip330)" d="M 0 0 M1640.35 35.9153 Q1643.15 30.8922 1647.04 28.5022 Q1650.93 26.1121 1656.19 26.1121 Q1663.28 26.1121 1667.13 31.0947 Q1670.98 36.0368 1670.98 45.1919 L1670.98 72.576 L1663.48 72.576 L1663.48 45.4349 Q1663.48 38.913 1661.17 35.7533 Q1658.87 32.5936 1654.13 32.5936 Q1648.33 32.5936 1644.97 36.4419 Q1641.61 40.2903 1641.61 46.9338 L1641.61 72.576 L1634.11 72.576 L1634.11 45.4349 Q1634.11 38.8725 1631.81 35.7533 Q1629.5 32.5936 1624.68 32.5936 Q1618.96 32.5936 1615.6 36.4824 Q1612.24 40.3308 1612.24 46.9338 L1612.24 72.576 L1604.75 72.576 L1604.75 27.2059 L1612.24 27.2059 L1612.24 34.2544 Q1614.79 30.082 1618.36 28.0971 Q1621.92 26.1121 1626.82 26.1121 Q1631.77 26.1121 1635.21 28.6237 Q1638.69 31.1352 1640.35 35.9153 Z" fill="#000000" fill-rule="evenodd" fill-opacity="1" /><path clip-path="url(#clip330)" d="M 0 0 M1724.65 48.0275 L1724.65 51.6733 L1690.38 51.6733 Q1690.87 59.3701 1695 63.421 Q1699.17 67.4314 1706.59 67.4314 Q1710.88 67.4314 1714.89 66.3781 Q1718.94 65.3249 1722.91 63.2184 L1722.91 70.267 Q1718.9 71.9684 1714.69 72.8596 Q1710.47 73.7508 1706.14 73.7508 Q1695.28 73.7508 1688.92 67.4314 Q1682.6 61.1119 1682.6 50.3365 Q1682.6 39.1965 1688.6 32.6746 Q1694.64 26.1121 1704.84 26.1121 Q1714 26.1121 1719.31 32.0264 Q1724.65 37.9003 1724.65 48.0275 M1717.2 45.84 Q1717.12 39.7232 1713.76 36.0774 Q1710.43 32.4315 1704.92 32.4315 Q1698.69 32.4315 1694.92 35.9558 Q1691.19 39.4801 1690.62 45.8805 L1717.2 45.84 Z" fill="#000000" fill-rule="evenodd" fill-opacity="1" /><path clip-path="url(#clip330)" d="M 0 0 M1788.13 17.6457 Q1779.22 17.6457 1773.95 24.2892 Q1768.73 30.9327 1768.73 42.3968 Q1768.73 53.8203 1773.95 60.4638 Q1779.22 67.1073 1788.13 67.1073 Q1797.04 67.1073 1802.23 60.4638 Q1807.45 53.8203 1807.45 42.3968 Q1807.45 30.9327 1802.23 24.2892 Q1797.04 17.6457 1788.13 17.6457 M1788.13 11.0023 Q1800.85 11.0023 1808.47 19.5497 Q1816.08 28.0566 1816.08 42.3968 Q1816.08 56.6965 1808.47 65.2439 Q1800.85 73.7508 1788.13 73.7508 Q1775.37 73.7508 1767.71 65.2439 Q1760.1 56.737 1760.1 42.3968 Q1760.1 28.0566 1767.71 19.5497 Q1775.37 11.0023 1788.13 11.0023 Z" fill="#000000" fill-rule="evenodd" fill-opacity="1" /><path clip-path="url(#clip330)" d="M 0 0 M1851.53 9.54393 L1851.53 15.7418 L1844.4 15.7418 Q1840.39 15.7418 1838.81 17.3622 Q1837.27 18.9825 1837.27 23.1955 L1837.27 27.2059 L1849.54 27.2059 L1849.54 32.9987 L1837.27 32.9987 L1837.27 72.576 L1829.77 72.576 L1829.77 32.9987 L1822.64 32.9987 L1822.64 27.2059 L1829.77 27.2059 L1829.77 24.0462 Q1829.77 16.471 1833.3 13.0277 Q1836.82 9.54393 1844.48 9.54393 L1851.53 9.54393 Z" fill="#000000" fill-rule="evenodd" fill-opacity="1" /><path clip-path="url(#clip330)" d="M 0 0 M1880.73 9.54393 L1880.73 15.7418 L1873.6 15.7418 Q1869.59 15.7418 1868.01 17.3622 Q1866.47 18.9825 1866.47 23.1955 L1866.47 27.2059 L1878.75 27.2059 L1878.75 32.9987 L1866.47 32.9987 L1866.47 72.576 L1858.98 72.576 L1858.98 32.9987 L1851.85 32.9987 L1851.85 27.2059 L1858.98 27.2059 L1858.98 24.0462 Q1858.98 16.471 1862.5 13.0277 Q1866.03 9.54393 1873.69 9.54393 L1880.73 9.54393 Z" fill="#000000" fill-rule="evenodd" fill-opacity="1" /><path clip-path="url(#clip330)" d="M 0 0 M1915.9 28.5427 L1915.9 35.5912 Q1912.74 33.9709 1909.33 33.1607 Q1905.93 32.3505 1902.28 32.3505 Q1896.73 32.3505 1893.94 34.0519 Q1891.19 35.7533 1891.19 39.156 Q1891.19 41.7486 1893.17 43.2475 Q1895.16 44.7058 1901.15 46.0426 L1903.7 46.6097 Q1911.64 48.3111 1914.96 51.4303 Q1918.33 54.509 1918.33 60.0587 Q1918.33 66.3781 1913.3 70.0644 Q1908.32 73.7508 1899.57 73.7508 Q1895.92 73.7508 1891.95 73.0216 Q1888.03 72.3329 1883.65 70.9151 L1883.65 63.2184 Q1887.78 65.3654 1891.79 66.4591 Q1895.8 67.5124 1899.73 67.5124 Q1905 67.5124 1907.83 65.73 Q1910.67 63.9071 1910.67 60.6258 Q1910.67 57.5877 1908.6 55.9673 Q1906.58 54.3469 1899.65 52.8481 L1897.06 52.2405 Q1890.13 50.7821 1887.05 47.7845 Q1883.97 44.7463 1883.97 39.4801 Q1883.97 33.0797 1888.51 29.5959 Q1893.05 26.1121 1901.39 26.1121 Q1905.53 26.1121 1909.17 26.7198 Q1912.82 27.3274 1915.9 28.5427 Z" fill="#000000" fill-rule="evenodd" fill-opacity="1" /><path clip-path="url(#clip330)" d="M 0 0 M1969 48.0275 L1969 51.6733 L1934.73 51.6733 Q1935.22 59.3701 1939.35 63.421 Q1943.52 67.4314 1950.94 67.4314 Q1955.23 67.4314 1959.24 66.3781 Q1963.29 65.3249 1967.26 63.2184 L1967.26 70.267 Q1963.25 71.9684 1959.04 72.8596 Q1954.82 73.7508 1950.49 73.7508 Q1939.63 73.7508 1933.27 67.4314 Q1926.95 61.1119 1926.95 50.3365 Q1926.95 39.1965 1932.95 32.6746 Q1938.99 26.1121 1949.19 26.1121 Q1958.35 26.1121 1963.66 32.0264 Q1969 37.9003 1969 48.0275 M1961.55 45.84 Q1961.47 39.7232 1958.11 36.0774 Q1954.78 32.4315 1949.28 32.4315 Q1943.04 32.4315 1939.27 35.9558 Q1935.54 39.4801 1934.98 45.8805 L1961.55 45.84 Z" fill="#000000" fill-rule="evenodd" fill-opacity="1" /><path clip-path="url(#clip330)" d="M 0 0 M1988.61 14.324 L1988.61 27.2059 L2003.96 27.2059 L2003.96 32.9987 L1988.61 32.9987 L1988.61 57.6282 Q1988.61 63.1779 1990.11 64.7578 Q1991.65 66.3376 1996.31 66.3376 L2003.96 66.3376 L2003.96 72.576 L1996.31 72.576 Q1987.68 72.576 1984.4 69.3758 Q1981.12 66.1351 1981.12 57.6282 L1981.12 32.9987 L1975.65 32.9987 L1975.65 27.2059 L1981.12 27.2059 L1981.12 14.324 L1988.61 14.324 Z" fill="#000000" fill-rule="evenodd" fill-opacity="1" /><polyline clip-path="url(#clip333)" style="stroke:#009af9; stroke-width:4; stroke-opacity:1; fill:none" points="
  284.272,160.369 288.296,1250.51 292.321,1286.34 296.345,1293.57 300.37,1235.7 304.395,1207.31 308.419,1207.52 312.444,1235.82 316.468,1157 320.493,1221.9 
  324.517,1289.57 328.542,1266.55 332.566,1260.64 336.591,1170.95 340.615,1257.95 344.64,1334.45 348.664,1211.34 352.689,1245.46 356.713,1262.4 360.738,1279.14 
  364.762,1194.05 368.787,1255.57 372.811,1242.82 376.836,1342.57 380.86,1227.52 384.885,1274.5 388.91,1165.38 392.934,1256.41 396.959,1238.31 400.983,1332.83 
  405.008,1258.31 409.032,1208.68 413.057,1265.58 417.081,1249.77 421.106,1232.69 425.13,1277.02 429.155,1222.52 433.179,1281.16 437.204,1193.26 441.228,1236.73 
  445.253,1297.09 449.277,1273.81 453.302,1262.09 457.326,1249.96 461.351,1217.13 465.375,1234.67 469.4,1187.27 473.424,1284.42 477.449,1248.15 481.474,1255.08 
  485.498,1274.05 489.523,1221.59 493.547,1203.88 497.572,1285.34 501.596,1196.14 505.621,1195.26 509.645,1210.87 513.67,1223.1 517.694,1242.62 521.719,1220.83 
  525.743,1228.71 529.768,1225.69 533.792,1193.45 537.817,1209.71 541.841,1198.72 545.866,1152.79 549.89,1292.71 553.915,1268.62 557.939,1148.87 561.964,1207.11 
  565.989,1155.7 570.013,1258.22 574.038,1225.88 578.062,1282.9 582.087,1235.63 586.111,1242.46 590.136,1237.18 594.16,1263.93 598.185,1260.16 602.209,1243.45 
  606.234,1278.32 610.258,1257.05 614.283,1205.44 618.307,1165.09 622.332,1271.26 626.356,1265.03 630.381,1297.94 634.405,1219.32 638.43,1258.64 642.454,1281.65 
  646.479,1293.19 650.503,1241.77 654.528,1317.41 658.553,1281.5 662.577,1257.02 666.602,1265.32 670.626,1220.96 674.651,1307.11 678.675,1227.16 682.7,1290.21 
  686.724,1252.5 690.749,1250.43 694.773,1198.73 698.798,1204.44 702.822,1261.56 706.847,1279.76 710.871,1235.27 714.896,1215.89 718.92,1232.69 722.945,1210.6 
  726.969,1243.59 730.994,1261 735.018,1195.15 739.043,1189.74 743.068,1196.96 747.092,1236.52 751.117,1178.97 755.141,1277.72 759.166,1252.95 763.19,1238.78 
  767.215,1184.41 771.239,1133.15 775.264,1211.16 779.288,1241.27 783.313,1255.21 787.337,1273.86 791.362,1199.97 795.386,1244.36 799.411,1264.54 803.435,1122.13 
  807.46,1171.55 811.484,1304.06 815.509,1268.31 819.533,1249.76 823.558,1167.41 827.583,1328.56 831.607,1213.84 835.632,1141.04 839.656,1145.14 843.681,1233.09 
  847.705,1303.16 851.73,1367.25 855.754,1250.51 859.779,1259.63 863.803,1314.53 867.828,1270.15 871.852,1190.03 875.877,1174.04 879.901,1340.12 883.926,1274.03 
  887.95,1298.32 891.975,1248.78 895.999,1246.71 900.024,1261.01 904.048,1237.32 908.073,1181.28 912.097,1242.49 916.122,1281.14 920.147,1247.62 924.171,1247.87 
  928.196,1295.62 932.22,1356.5 936.245,1203.28 940.269,1160.09 944.294,1261.38 948.318,1273.36 952.343,1258.56 956.367,1272.95 960.392,1178.56 964.416,1288.11 
  968.441,1236.37 972.465,1186.69 976.49,1189.68 980.514,1279.77 984.539,1212.28 988.563,1226 992.588,1250.11 996.612,1201.23 1000.64,1200.92 1004.66,1177.87 
  1008.69,1176.93 1012.71,1234.21 1016.74,1226.03 1020.76,1249.64 1024.78,1238 1028.81,1220.84 1032.83,1248.09 1036.86,1311.76 1040.88,1212.26 1044.91,1158.86 
  1048.93,1194.9 1052.96,1199.02 1056.98,1241.55 1061,1312.55 1065.03,1223.04 1069.05,1291.84 1073.08,1210.69 1077.1,1244.92 1081.13,1226.52 1085.15,1203.64 
  1089.18,1257.05 1093.2,1216.12 1097.23,1298.83 1101.25,1220.98 1105.27,1242.6 1109.3,1264.07 1113.32,1256.35 1117.35,1349.63 1121.37,1286.13 1125.4,1254.81 
  1129.42,1219.09 1133.45,1310.69 1137.47,1221.85 1141.5,1317.68 1145.52,1235.17 1149.54,1307.01 1153.57,1248.5 1157.59,1228.13 1161.62,1303.44 1165.64,1302.14 
  1169.67,1242.01 1173.69,1248.49 1177.72,1271.7 1181.74,1215.35 1185.77,1239.53 1189.79,1170.14 1193.81,1311.71 1197.84,1302.01 1201.86,1271.08 1205.89,1280.3 
  1209.91,1229.02 1213.94,1267.82 1217.96,1270.58 1221.99,1236.3 1226.01,1249.22 1230.03,1304.15 1234.06,1183.63 1238.08,1245.92 1242.11,1245.19 1246.13,1206.76 
  1250.16,1212.1 1254.18,1179.64 1258.21,1180.79 1262.23,1239.03 1266.26,1266.65 1270.28,1273.83 1274.3,1285.02 1278.33,1261.15 1282.35,1177.97 1286.38,1287.57 
  1290.4,1193.6 1294.43,1290.21 1298.45,1268.12 1302.48,1233.36 1306.5,1226.04 1310.53,1179.06 1314.55,1161.42 1318.57,1282.93 1322.6,1272.85 1326.62,1150.44 
  1330.65,1284.35 1334.67,1273.86 1338.7,1357.27 1342.72,1238.84 1346.75,1172.74 1350.77,1226.2 1354.79,1194.18 1358.82,1237.08 1362.84,1277.82 1366.87,1278.21 
  1370.89,1323.91 1374.92,1336.71 1378.94,1208.65 1382.97,1212.62 1386.99,1221.47 1391.02,1261.54 1395.04,1212.46 1399.06,1274.72 1403.09,1315.61 1407.11,1245.87 
  1411.14,1172.8 1415.16,1225.01 1419.19,1289.84 1423.21,1241.18 1427.24,1260.06 1431.26,1237.43 1435.29,1233.47 1439.31,1261.79 1443.33,1234.45 1447.36,1192.7 
  1451.38,1235.58 1455.41,1232.06 1459.43,1215.55 1463.46,1191.32 1467.48,1221.66 1471.51,1273.69 1475.53,1241.53 1479.56,1244.08 1483.58,1095 1487.6,1199.83 
  1491.63,1212.99 1495.65,1154.43 1499.68,1269.16 1503.7,1213.15 1507.73,1218.86 1511.75,1137.01 1515.78,1241.28 1519.8,1196.08 1523.82,1191.21 1527.85,1221.13 
  1531.87,1083.72 1535.9,1167.49 1539.92,1228.5 1543.95,1257.88 1547.97,1239.4 1552,1217.94 1556.02,1215.58 1560.05,1257.08 1564.07,1175.26 1568.09,1221.64 
  1572.12,1232.48 1576.14,1235.87 1580.17,1230.6 1584.19,1270.58 1588.22,1173.16 1592.24,1319.9 1596.27,1238 1600.29,1311.62 1604.32,1245.83 1608.34,1239.75 
  1612.36,1244.95 1616.39,1174.58 1620.41,1297.5 1624.44,1333.82 1628.46,1230.9 1632.49,1254.31 1636.51,1183.9 1640.54,1210.49 1644.56,1232.31 1648.59,1234.9 
  1652.61,1255.29 1656.63,1286.5 1660.66,1232.89 1664.68,1235.33 1668.71,1225.09 1672.73,1291.62 1676.76,1225.52 1680.78,1245 1684.81,1245.79 1688.83,1322.79 
  1692.85,1237.08 1696.88,1321.53 1700.9,1232.29 1704.93,1187.95 1708.95,1261.33 1712.98,1193.19 1717,1226.18 1721.03,1242.9 1725.05,1223.63 1729.08,1178.61 
  1733.1,1210.91 1737.12,1250.67 1741.15,1116.66 1745.17,1263.03 1749.2,1279.62 1753.22,1328.11 1757.25,1241.13 1761.27,1200.62 1765.3,1159.7 1769.32,1200.69 
  1773.35,1245.55 1777.37,1262.31 1781.39,1277.36 1785.42,1259.42 1789.44,1275.85 1793.47,1247.12 1797.49,1203.52 1801.52,1216.76 1805.54,1226.22 1809.57,1235.27 
  1813.59,1208.58 1817.62,1250.7 1821.64,1264.95 1825.66,1248.09 1829.69,1235.2 1833.71,1268.24 1837.74,1160.5 1841.76,1346.95 1845.79,1233.49 1849.81,1279.28 
  1853.84,1224.77 1857.86,1248.93 1861.88,1103.86 1865.91,1146.18 1869.93,1247.98 1873.96,1271.46 1877.98,1341.7 1882.01,1289.4 1886.03,1222.69 1890.06,1248.39 
  1894.08,1375.94 1898.11,1256.29 1902.13,1285.91 1906.15,1259.5 1910.18,1249.93 1914.2,1311.52 1918.23,1191.49 1922.25,1298.25 1926.28,1289.88 1930.3,1276.74 
  1934.33,1195.64 1938.35,1256.46 1942.38,1227.57 1946.4,1229.29 1950.42,1213.21 1954.45,1245.52 1958.47,1303.88 1962.5,1192.21 1966.52,1183.07 1970.55,1209.75 
  1974.57,1301.5 1978.6,1273.33 1982.62,1211.81 1986.65,1199.67 1990.67,1202.64 1994.69,1235.79 1998.72,1222.74 2002.74,1220.18 2006.77,1325.88 2010.79,1210.6 
  2014.82,1179.41 2018.84,1238.17 2022.87,1201.39 2026.89,1301.97 2030.91,1290.56 2034.94,1230.83 2038.96,1199.03 2042.99,1210.75 2047.01,1266.88 2051.04,1159.87 
  2055.06,1243.89 2059.09,1237.22 2063.11,1301.33 2067.14,1310.13 2071.16,1183.02 2075.18,1230.88 2079.21,1260.85 2083.23,1208.46 2087.26,1246.82 2091.28,1283.69 
  2095.31,1296.21 2099.33,1325.48 2103.36,1293.67 2107.38,1197.18 2111.41,1267.51 2115.43,1225.97 2119.45,1202.65 2123.48,1193.49 2127.5,1264.63 2131.53,1390.25 
  2135.55,1201.65 2139.58,1221.13 2143.6,1192.84 2147.63,1143.6 2151.65,1240.74 2155.68,1147.89 2159.7,1199.63 2163.72,1275.39 2167.75,1241.01 2171.77,1180.11 
  2175.8,1300.08 2179.82,1252.24 2183.85,1225.99 2187.87,1155.66 2191.9,1298.94 2195.92,1239.31 2199.94,1227.17 2203.97,1247.07 2207.99,1269.03 2212.02,1113.54 
  2216.04,1252 2220.07,1245.88 2224.09,1255.98 2228.12,1242.72 2232.14,1242.24 2236.17,1215.88 2240.19,1161.59 2244.21,1173.93 2248.24,1290.72 2252.26,1117.06 
  2256.29,1210.59 2260.31,1150.51 2264.34,1097.62 2268.36,1206.7 2272.39,1230.97 2276.41,1172.32 2280.44,1227.15 2284.46,1193.28 2288.48,1250.16 2292.51,1188.47 
  
  "/>
</svg>
