<?xml version="1.0" encoding="utf-8"?>
<svg xmlns="http://www.w3.org/2000/svg" xmlns:xlink="http://www.w3.org/1999/xlink" width="600" height="400" viewBox="0 0 2400 1600">
<defs>
  <clipPath id="clip390">
    <rect x="0" y="0" width="2400" height="1600"/>
  </clipPath>
</defs>
<path clip-path="url(#clip390)" d="
M0 1600 L2400 1600 L2400 0 L0 0  Z
  " fill="#ffffff" fill-rule="evenodd" fill-opacity="1"/>
<defs>
  <clipPath id="clip391">
    <rect x="480" y="0" width="1681" height="1600"/>
  </clipPath>
</defs>
<defs>
  <clipPath id="clip392">
    <rect x="296" y="123" width="2057" height="1305"/>
  </clipPath>
</defs>
<path clip-path="url(#clip390)" d="
M190.857 1423.18 L2352.76 1423.18 L2352.76 123.472 L190.857 123.472  Z
  " fill="#ffffff" fill-rule="evenodd" fill-opacity="1"/>
<defs>
  <clipPath id="clip393">
    <rect x="190" y="123" width="2163" height="1301"/>
  </clipPath>
</defs>
<polyline clip-path="url(#clip393)" style="stroke:#000000; stroke-width:2; stroke-opacity:0.1; fill:none" points="
  252.043,1423.18 252.043,123.472 
  "/>
<polyline clip-path="url(#clip393)" style="stroke:#000000; stroke-width:2; stroke-opacity:0.1; fill:none" points="
  660.768,1423.18 660.768,123.472 
  "/>
<polyline clip-path="url(#clip393)" style="stroke:#000000; stroke-width:2; stroke-opacity:0.1; fill:none" points="
  1069.49,1423.18 1069.49,123.472 
  "/>
<polyline clip-path="url(#clip393)" style="stroke:#000000; stroke-width:2; stroke-opacity:0.1; fill:none" points="
  1478.22,1423.18 1478.22,123.472 
  "/>
<polyline clip-path="url(#clip393)" style="stroke:#000000; stroke-width:2; stroke-opacity:0.1; fill:none" points="
  1886.94,1423.18 1886.94,123.472 
  "/>
<polyline clip-path="url(#clip393)" style="stroke:#000000; stroke-width:2; stroke-opacity:0.1; fill:none" points="
  2295.67,1423.18 2295.67,123.472 
  "/>
<polyline clip-path="url(#clip390)" style="stroke:#000000; stroke-width:4; stroke-opacity:1; fill:none" points="
  190.857,1423.18 2352.76,1423.18 
  "/>
<polyline clip-path="url(#clip390)" style="stroke:#000000; stroke-width:4; stroke-opacity:1; fill:none" points="
  252.043,1423.18 252.043,1407.58 
  "/>
<polyline clip-path="url(#clip390)" style="stroke:#000000; stroke-width:4; stroke-opacity:1; fill:none" points="
  660.768,1423.18 660.768,1407.58 
  "/>
<polyline clip-path="url(#clip390)" style="stroke:#000000; stroke-width:4; stroke-opacity:1; fill:none" points="
  1069.49,1423.18 1069.49,1407.58 
  "/>
<polyline clip-path="url(#clip390)" style="stroke:#000000; stroke-width:4; stroke-opacity:1; fill:none" points="
  1478.22,1423.18 1478.22,1407.58 
  "/>
<polyline clip-path="url(#clip390)" style="stroke:#000000; stroke-width:4; stroke-opacity:1; fill:none" points="
  1886.94,1423.18 1886.94,1407.58 
  "/>
<polyline clip-path="url(#clip390)" style="stroke:#000000; stroke-width:4; stroke-opacity:1; fill:none" points="
  2295.67,1423.18 2295.67,1407.58 
  "/>
<path clip-path="url(#clip390)" d="M 0 0 M252.043 1452.37 Q248.432 1452.37 246.604 1455.94 Q244.798 1459.48 244.798 1466.61 Q244.798 1473.71 246.604 1477.28 Q248.432 1480.82 252.043 1480.82 Q255.678 1480.82 257.483 1477.28 Q259.312 1473.71 259.312 1466.61 Q259.312 1459.48 257.483 1455.94 Q255.678 1452.37 252.043 1452.37 M252.043 1448.67 Q257.853 1448.67 260.909 1453.27 Q263.988 1457.86 263.988 1466.61 Q263.988 1475.33 260.909 1479.94 Q257.853 1484.52 252.043 1484.52 Q246.233 1484.52 243.154 1479.94 Q240.099 1475.33 240.099 1466.61 Q240.099 1457.86 243.154 1453.27 Q246.233 1448.67 252.043 1448.67 Z" fill="#000000" fill-rule="evenodd" fill-opacity="1" /><path clip-path="url(#clip390)" d="M 0 0 M651.15 1479.92 L658.789 1479.92 L658.789 1453.55 L650.478 1455.22 L650.478 1450.96 L658.742 1449.29 L663.418 1449.29 L663.418 1479.92 L671.057 1479.92 L671.057 1483.85 L651.15 1483.85 L651.15 1479.92 Z" fill="#000000" fill-rule="evenodd" fill-opacity="1" /><path clip-path="url(#clip390)" d="M 0 0 M1064.15 1479.92 L1080.46 1479.92 L1080.46 1483.85 L1058.52 1483.85 L1058.52 1479.92 Q1061.18 1477.16 1065.77 1472.53 Q1070.37 1467.88 1071.55 1466.54 Q1073.8 1464.01 1074.68 1462.28 Q1075.58 1460.52 1075.58 1458.83 Q1075.58 1456.07 1073.64 1454.34 Q1071.71 1452.6 1068.61 1452.6 Q1066.41 1452.6 1063.96 1453.37 Q1061.53 1454.13 1058.75 1455.68 L1058.75 1450.96 Q1061.58 1449.82 1064.03 1449.25 Q1066.48 1448.67 1068.52 1448.67 Q1073.89 1448.67 1077.08 1451.35 Q1080.28 1454.04 1080.28 1458.53 Q1080.28 1460.66 1079.47 1462.58 Q1078.68 1464.48 1076.58 1467.07 Q1076 1467.74 1072.89 1470.96 Q1069.79 1474.15 1064.15 1479.92 Z" fill="#000000" fill-rule="evenodd" fill-opacity="1" /><path clip-path="url(#clip390)" d="M 0 0 M1482.46 1465.22 Q1485.82 1465.94 1487.7 1468.2 Q1489.59 1470.47 1489.59 1473.81 Q1489.59 1478.92 1486.08 1481.72 Q1482.56 1484.52 1476.08 1484.52 Q1473.9 1484.52 1471.58 1484.08 Q1469.29 1483.67 1466.84 1482.81 L1466.84 1478.3 Q1468.78 1479.43 1471.1 1480.01 Q1473.41 1480.59 1475.94 1480.59 Q1480.33 1480.59 1482.63 1478.85 Q1484.94 1477.12 1484.94 1473.81 Q1484.94 1470.75 1482.79 1469.04 Q1480.66 1467.3 1476.84 1467.3 L1472.81 1467.3 L1472.81 1463.46 L1477.02 1463.46 Q1480.47 1463.46 1482.3 1462.09 Q1484.13 1460.7 1484.13 1458.11 Q1484.13 1455.45 1482.23 1454.04 Q1480.36 1452.6 1476.84 1452.6 Q1474.92 1452.6 1472.72 1453.02 Q1470.52 1453.44 1467.88 1454.31 L1467.88 1450.15 Q1470.54 1449.41 1472.86 1449.04 Q1475.2 1448.67 1477.26 1448.67 Q1482.58 1448.67 1485.68 1451.1 Q1488.78 1453.5 1488.78 1457.63 Q1488.78 1460.5 1487.14 1462.49 Q1485.5 1464.45 1482.46 1465.22 Z" fill="#000000" fill-rule="evenodd" fill-opacity="1" /><path clip-path="url(#clip390)" d="M 0 0 M1889.95 1453.37 L1878.14 1471.81 L1889.95 1471.81 L1889.95 1453.37 M1888.72 1449.29 L1894.6 1449.29 L1894.6 1471.81 L1899.53 1471.81 L1899.53 1475.7 L1894.6 1475.7 L1894.6 1483.85 L1889.95 1483.85 L1889.95 1475.7 L1874.35 1475.7 L1874.35 1471.19 L1888.72 1449.29 Z" fill="#000000" fill-rule="evenodd" fill-opacity="1" /><path clip-path="url(#clip390)" d="M 0 0 M2285.94 1449.29 L2304.3 1449.29 L2304.3 1453.23 L2290.23 1453.23 L2290.23 1461.7 Q2291.24 1461.35 2292.26 1461.19 Q2293.28 1461 2294.3 1461 Q2300.09 1461 2303.47 1464.18 Q2306.85 1467.35 2306.85 1472.76 Q2306.85 1478.34 2303.37 1481.44 Q2299.9 1484.52 2293.58 1484.52 Q2291.41 1484.52 2289.14 1484.15 Q2286.89 1483.78 2284.49 1483.04 L2284.49 1478.34 Q2286.57 1479.48 2288.79 1480.03 Q2291.01 1480.59 2293.49 1480.59 Q2297.49 1480.59 2299.83 1478.48 Q2302.17 1476.38 2302.17 1472.76 Q2302.17 1469.15 2299.83 1467.05 Q2297.49 1464.94 2293.49 1464.94 Q2291.61 1464.94 2289.74 1465.36 Q2287.89 1465.77 2285.94 1466.65 L2285.94 1449.29 Z" fill="#000000" fill-rule="evenodd" fill-opacity="1" /><path clip-path="url(#clip390)" d="M 0 0 M1031.92 1518.52 L1031.92 1523.39 L1026.31 1523.39 Q1023.16 1523.39 1021.92 1524.66 Q1020.71 1525.93 1020.71 1529.24 L1020.71 1532.4 L1030.36 1532.4 L1030.36 1536.95 L1020.71 1536.95 L1020.71 1568.04 L1014.82 1568.04 L1014.82 1536.95 L1009.22 1536.95 L1009.22 1532.4 L1014.82 1532.4 L1014.82 1529.91 Q1014.82 1523.96 1017.59 1521.26 Q1020.36 1518.52 1026.38 1518.52 L1031.92 1518.52 Z" fill="#000000" fill-rule="evenodd" fill-opacity="1" /><path clip-path="url(#clip390)" d="M 0 0 M1057.47 1537.87 Q1056.49 1537.3 1055.31 1537.04 Q1054.16 1536.76 1052.76 1536.76 Q1047.8 1536.76 1045.12 1540 Q1042.48 1543.22 1042.48 1549.27 L1042.48 1568.04 L1036.59 1568.04 L1036.59 1532.4 L1042.48 1532.4 L1042.48 1537.93 Q1044.33 1534.69 1047.29 1533.13 Q1050.25 1531.54 1054.48 1531.54 Q1055.09 1531.54 1055.82 1531.63 Q1056.55 1531.7 1057.44 1531.85 L1057.47 1537.87 Z" fill="#000000" fill-rule="evenodd" fill-opacity="1" /><path clip-path="url(#clip390)" d="M 0 0 M1092.68 1548.76 L1092.68 1551.62 L1065.75 1551.62 Q1066.13 1557.67 1069.38 1560.85 Q1072.66 1564 1078.48 1564 Q1081.85 1564 1085.01 1563.17 Q1088.19 1562.35 1091.31 1560.69 L1091.31 1566.23 Q1088.16 1567.57 1084.85 1568.27 Q1081.54 1568.97 1078.13 1568.97 Q1069.6 1568.97 1064.6 1564 Q1059.64 1559.04 1059.64 1550.57 Q1059.64 1541.82 1064.35 1536.69 Q1069.09 1531.54 1077.11 1531.54 Q1084.3 1531.54 1088.47 1536.18 Q1092.68 1540.8 1092.68 1548.76 M1086.82 1547.04 Q1086.76 1542.23 1084.11 1539.37 Q1081.5 1536.5 1077.18 1536.5 Q1072.27 1536.5 1069.31 1539.27 Q1066.39 1542.04 1065.94 1547.07 L1086.82 1547.04 Z" fill="#000000" fill-rule="evenodd" fill-opacity="1" /><path clip-path="url(#clip390)" d="M 0 0 M1105.79 1550.25 Q1105.79 1556.71 1108.43 1560.4 Q1111.1 1564.07 1115.75 1564.07 Q1120.4 1564.07 1123.07 1560.4 Q1125.75 1556.71 1125.75 1550.25 Q1125.75 1543.79 1123.07 1540.13 Q1120.4 1536.44 1115.75 1536.44 Q1111.1 1536.44 1108.43 1540.13 Q1105.79 1543.79 1105.79 1550.25 M1125.75 1562.7 Q1123.9 1565.88 1121.07 1567.44 Q1118.27 1568.97 1114.32 1568.97 Q1107.86 1568.97 1103.78 1563.81 Q1099.74 1558.65 1099.74 1550.25 Q1099.74 1541.85 1103.78 1536.69 Q1107.86 1531.54 1114.32 1531.54 Q1118.27 1531.54 1121.07 1533.1 Q1123.9 1534.62 1125.75 1537.81 L1125.75 1532.4 L1131.6 1532.4 L1131.6 1581.6 L1125.75 1581.6 L1125.75 1562.7 Z" fill="#000000" fill-rule="evenodd" fill-opacity="1" /><path clip-path="url(#clip390)" d="M 0 0 M1143.06 1553.98 L1143.06 1532.4 L1148.92 1532.4 L1148.92 1553.75 Q1148.92 1558.81 1150.89 1561.36 Q1152.86 1563.87 1156.81 1563.87 Q1161.55 1563.87 1164.29 1560.85 Q1167.06 1557.83 1167.06 1552.61 L1167.06 1532.4 L1172.92 1532.4 L1172.92 1568.04 L1167.06 1568.04 L1167.06 1562.57 Q1164.93 1565.82 1162.09 1567.41 Q1159.29 1568.97 1155.57 1568.97 Q1149.43 1568.97 1146.24 1565.15 Q1143.06 1561.33 1143.06 1553.98 M1157.8 1531.54 L1157.8 1531.54 Z" fill="#000000" fill-rule="evenodd" fill-opacity="1" /><path clip-path="url(#clip390)" d="M 0 0 M1215.47 1548.76 L1215.47 1551.62 L1188.54 1551.62 Q1188.93 1557.67 1192.17 1560.85 Q1195.45 1564 1201.27 1564 Q1204.65 1564 1207.8 1563.17 Q1210.98 1562.35 1214.1 1560.69 L1214.1 1566.23 Q1210.95 1567.57 1207.64 1568.27 Q1204.33 1568.97 1200.92 1568.97 Q1192.39 1568.97 1187.4 1564 Q1182.43 1559.04 1182.43 1550.57 Q1182.43 1541.82 1187.14 1536.69 Q1191.89 1531.54 1199.91 1531.54 Q1207.1 1531.54 1211.27 1536.18 Q1215.47 1540.8 1215.47 1548.76 M1209.61 1547.04 Q1209.55 1542.23 1206.91 1539.37 Q1204.3 1536.5 1199.97 1536.5 Q1195.07 1536.5 1192.11 1539.27 Q1189.18 1542.04 1188.73 1547.07 L1209.61 1547.04 Z" fill="#000000" fill-rule="evenodd" fill-opacity="1" /><path clip-path="url(#clip390)" d="M 0 0 M1254.71 1546.53 L1254.71 1568.04 L1248.86 1568.04 L1248.86 1546.72 Q1248.86 1541.66 1246.88 1539.14 Q1244.91 1536.63 1240.96 1536.63 Q1236.22 1536.63 1233.49 1539.65 Q1230.75 1542.68 1230.75 1547.9 L1230.75 1568.04 L1224.86 1568.04 L1224.86 1532.4 L1230.75 1532.4 L1230.75 1537.93 Q1232.85 1534.72 1235.68 1533.13 Q1238.55 1531.54 1242.27 1531.54 Q1248.41 1531.54 1251.56 1535.36 Q1254.71 1539.14 1254.71 1546.53 Z" fill="#000000" fill-rule="evenodd" fill-opacity="1" /><path clip-path="url(#clip390)" d="M 0 0 M1292.05 1533.76 L1292.05 1539.24 Q1289.57 1537.87 1287.05 1537.2 Q1284.57 1536.5 1282.02 1536.5 Q1276.33 1536.5 1273.18 1540.13 Q1270.02 1543.73 1270.02 1550.25 Q1270.02 1556.78 1273.18 1560.4 Q1276.33 1564 1282.02 1564 Q1284.57 1564 1287.05 1563.33 Q1289.57 1562.63 1292.05 1561.26 L1292.05 1566.68 Q1289.6 1567.82 1286.96 1568.39 Q1284.35 1568.97 1281.39 1568.97 Q1273.33 1568.97 1268.59 1563.91 Q1263.85 1558.85 1263.85 1550.25 Q1263.85 1541.53 1268.62 1536.53 Q1273.43 1531.54 1281.77 1531.54 Q1284.47 1531.54 1287.05 1532.11 Q1289.63 1532.65 1292.05 1533.76 Z" fill="#000000" fill-rule="evenodd" fill-opacity="1" /><path clip-path="url(#clip390)" d="M 0 0 M1317.07 1571.35 Q1314.58 1577.72 1312.23 1579.66 Q1309.87 1581.6 1305.93 1581.6 L1301.25 1581.6 L1301.25 1576.7 L1304.69 1576.7 Q1307.1 1576.7 1308.44 1575.56 Q1309.78 1574.41 1311.4 1570.14 L1312.45 1567.47 L1298.03 1532.4 L1304.24 1532.4 L1315.38 1560.28 L1326.52 1532.4 L1332.73 1532.4 L1317.07 1571.35 Z" fill="#000000" fill-rule="evenodd" fill-opacity="1" /><path clip-path="url(#clip390)" d="M 0 0 M1375.6 1518.58 Q1371.33 1525.9 1369.27 1533.06 Q1367.2 1540.23 1367.2 1547.58 Q1367.2 1554.93 1369.27 1562.16 Q1371.37 1569.35 1375.6 1576.64 L1370.51 1576.64 Q1365.73 1569.16 1363.35 1561.93 Q1360.99 1554.71 1360.99 1547.58 Q1360.99 1540.48 1363.35 1533.29 Q1365.7 1526.09 1370.51 1518.58 L1375.6 1518.58 Z" fill="#000000" fill-rule="evenodd" fill-opacity="1" /><path clip-path="url(#clip390)" d="M 0 0 M1419.62 1561.26 L1419.62 1548.5 L1409.11 1548.5 L1409.11 1543.22 L1425.98 1543.22 L1425.98 1563.62 Q1422.26 1566.26 1417.77 1567.63 Q1413.28 1568.97 1408.19 1568.97 Q1397.05 1568.97 1390.75 1562.47 Q1384.48 1555.95 1384.48 1544.33 Q1384.48 1532.68 1390.75 1526.19 Q1397.05 1519.66 1408.19 1519.66 Q1412.84 1519.66 1417.01 1520.81 Q1421.21 1521.96 1424.74 1524.18 L1424.74 1531.03 Q1421.18 1528 1417.17 1526.48 Q1413.16 1524.95 1408.73 1524.95 Q1400.01 1524.95 1395.62 1529.82 Q1391.26 1534.69 1391.26 1544.33 Q1391.26 1553.94 1395.62 1558.81 Q1400.01 1563.68 1408.73 1563.68 Q1412.14 1563.68 1414.81 1563.11 Q1417.49 1562.51 1419.62 1561.26 Z" fill="#000000" fill-rule="evenodd" fill-opacity="1" /><path clip-path="url(#clip390)" d="M 0 0 M1437.73 1520.52 L1444.16 1520.52 L1444.16 1540 L1467.52 1540 L1467.52 1520.52 L1473.95 1520.52 L1473.95 1568.04 L1467.52 1568.04 L1467.52 1545.41 L1444.16 1545.41 L1444.16 1568.04 L1437.73 1568.04 L1437.73 1520.52 Z" fill="#000000" fill-rule="evenodd" fill-opacity="1" /><path clip-path="url(#clip390)" d="M 0 0 M1483.94 1532.4 L1511.76 1532.4 L1511.76 1537.74 L1489.74 1563.37 L1511.76 1563.37 L1511.76 1568.04 L1483.15 1568.04 L1483.15 1562.7 L1505.17 1537.07 L1483.94 1537.07 L1483.94 1532.4 Z" fill="#000000" fill-rule="evenodd" fill-opacity="1" /><path clip-path="url(#clip390)" d="M 0 0 M1519.78 1518.58 L1524.88 1518.58 Q1529.65 1526.09 1532 1533.29 Q1534.39 1540.48 1534.39 1547.58 Q1534.39 1554.71 1532 1561.93 Q1529.65 1569.16 1524.88 1576.64 L1519.78 1576.64 Q1524.02 1569.35 1526.08 1562.16 Q1528.19 1554.93 1528.19 1547.58 Q1528.19 1540.23 1526.08 1533.06 Q1524.02 1525.9 1519.78 1518.58 Z" fill="#000000" fill-rule="evenodd" fill-opacity="1" /><polyline clip-path="url(#clip393)" style="stroke:#000000; stroke-width:2; stroke-opacity:0.1; fill:none" points="
  190.857,1386.4 2352.76,1386.4 
  "/>
<polyline clip-path="url(#clip393)" style="stroke:#000000; stroke-width:2; stroke-opacity:0.1; fill:none" points="
  190.857,1086.2 2352.76,1086.2 
  "/>
<polyline clip-path="url(#clip393)" style="stroke:#000000; stroke-width:2; stroke-opacity:0.1; fill:none" points="
  190.857,786.012 2352.76,786.012 
  "/>
<polyline clip-path="url(#clip393)" style="stroke:#000000; stroke-width:2; stroke-opacity:0.1; fill:none" points="
  190.857,485.82 2352.76,485.82 
  "/>
<polyline clip-path="url(#clip393)" style="stroke:#000000; stroke-width:2; stroke-opacity:0.1; fill:none" points="
  190.857,185.629 2352.76,185.629 
  "/>
<polyline clip-path="url(#clip390)" style="stroke:#000000; stroke-width:4; stroke-opacity:1; fill:none" points="
  190.857,1423.18 190.857,123.472 
  "/>
<polyline clip-path="url(#clip390)" style="stroke:#000000; stroke-width:4; stroke-opacity:1; fill:none" points="
  190.857,1386.4 216.8,1386.4 
  "/>
<polyline clip-path="url(#clip390)" style="stroke:#000000; stroke-width:4; stroke-opacity:1; fill:none" points="
  190.857,1086.2 216.8,1086.2 
  "/>
<polyline clip-path="url(#clip390)" style="stroke:#000000; stroke-width:4; stroke-opacity:1; fill:none" points="
  190.857,786.012 216.8,786.012 
  "/>
<polyline clip-path="url(#clip390)" style="stroke:#000000; stroke-width:4; stroke-opacity:1; fill:none" points="
  190.857,485.82 216.8,485.82 
  "/>
<polyline clip-path="url(#clip390)" style="stroke:#000000; stroke-width:4; stroke-opacity:1; fill:none" points="
  190.857,185.629 216.8,185.629 
  "/>
<path clip-path="url(#clip390)" d="M 0 0 M142.913 1372.19 Q139.302 1372.19 137.473 1375.76 Q135.668 1379.3 135.668 1386.43 Q135.668 1393.54 137.473 1397.1 Q139.302 1400.64 142.913 1400.64 Q146.547 1400.64 148.353 1397.1 Q150.182 1393.54 150.182 1386.43 Q150.182 1379.3 148.353 1375.76 Q146.547 1372.19 142.913 1372.19 M142.913 1368.49 Q148.723 1368.49 151.779 1373.1 Q154.857 1377.68 154.857 1386.43 Q154.857 1395.16 151.779 1399.76 Q148.723 1404.35 142.913 1404.35 Q137.103 1404.35 134.024 1399.76 Q130.969 1395.16 130.969 1386.43 Q130.969 1377.68 134.024 1373.1 Q137.103 1368.49 142.913 1368.49 Z" fill="#000000" fill-rule="evenodd" fill-opacity="1" /><path clip-path="url(#clip390)" d="M 0 0 M134.95 1099.55 L142.589 1099.55 L142.589 1073.18 L134.279 1074.85 L134.279 1070.59 L142.543 1068.92 L147.219 1068.92 L147.219 1099.55 L154.857 1099.55 L154.857 1103.48 L134.95 1103.48 L134.95 1099.55 Z" fill="#000000" fill-rule="evenodd" fill-opacity="1" /><path clip-path="url(#clip390)" d="M 0 0 M138.538 799.357 L154.857 799.357 L154.857 803.292 L132.913 803.292 L132.913 799.357 Q135.575 796.602 140.159 791.973 Q144.765 787.32 145.946 785.977 Q148.191 783.454 149.07 781.718 Q149.973 779.959 149.973 778.269 Q149.973 775.515 148.029 773.778 Q146.108 772.042 143.006 772.042 Q140.807 772.042 138.353 772.806 Q135.922 773.57 133.145 775.121 L133.145 770.399 Q135.969 769.265 138.422 768.686 Q140.876 768.107 142.913 768.107 Q148.283 768.107 151.478 770.792 Q154.672 773.478 154.672 777.968 Q154.672 780.098 153.862 782.019 Q153.075 783.917 150.969 786.51 Q150.39 787.181 147.288 790.399 Q144.186 793.593 138.538 799.357 Z" fill="#000000" fill-rule="evenodd" fill-opacity="1" /><path clip-path="url(#clip390)" d="M 0 0 M147.728 484.466 Q151.084 485.184 152.959 487.452 Q154.857 489.721 154.857 493.054 Q154.857 498.17 151.339 500.971 Q147.821 503.772 141.339 503.772 Q139.163 503.772 136.848 503.332 Q134.557 502.915 132.103 502.059 L132.103 497.545 Q134.047 498.679 136.362 499.258 Q138.677 499.837 141.2 499.837 Q145.598 499.837 147.89 498.1 Q150.205 496.364 150.205 493.054 Q150.205 489.999 148.052 488.286 Q145.922 486.55 142.103 486.55 L138.075 486.55 L138.075 482.707 L142.288 482.707 Q145.737 482.707 147.566 481.341 Q149.395 479.952 149.395 477.36 Q149.395 474.698 147.496 473.286 Q145.621 471.851 142.103 471.851 Q140.182 471.851 137.983 472.267 Q135.784 472.684 133.145 473.564 L133.145 469.397 Q135.807 468.656 138.121 468.286 Q140.459 467.915 142.52 467.915 Q147.844 467.915 150.945 470.346 Q154.047 472.753 154.047 476.874 Q154.047 479.744 152.404 481.735 Q150.76 483.702 147.728 484.466 Z" fill="#000000" fill-rule="evenodd" fill-opacity="1" /><path clip-path="url(#clip390)" d="M 0 0 M145.274 172.423 L133.469 190.872 L145.274 190.872 L145.274 172.423 M144.047 168.349 L149.927 168.349 L149.927 190.872 L154.857 190.872 L154.857 194.761 L149.927 194.761 L149.927 202.909 L145.274 202.909 L145.274 194.761 L129.672 194.761 L129.672 190.247 L144.047 168.349 Z" fill="#000000" fill-rule="evenodd" fill-opacity="1" /><path clip-path="url(#clip390)" d="M 0 0 M49.6875 837.926 L50.6118 838.49 Q49.1013 841.984 46.6891 846.335 Q49.1013 850.686 50.6118 854.181 L49.6875 854.722 Q46.3735 850.912 43.826 846.335 Q46.396 841.714 49.6875 837.926 Z" fill="#000000" fill-rule="evenodd" fill-opacity="1" /><path clip-path="url(#clip390)" d="M 0 0 M60.7296 835.341 Q60.7618 835.341 61.9212 835.534 L91.1964 842.877 Q92.7423 843.263 94.2881 844.358 Q95.8662 845.421 97.2189 847.128 Q98.6037 848.803 99.4411 851.379 Q100.311 853.924 100.311 856.854 Q100.311 861.524 99.3122 863.585 Q98.3461 865.614 96.2849 865.614 Q94.4814 865.614 93.4508 864.487 Q92.4524 863.36 92.4524 862.072 Q92.4524 860.848 93.1609 860.204 Q93.8695 859.56 94.7712 859.56 Q95.7696 859.56 96.768 860.236 Q97.7986 860.912 98.185 862.265 Q98.8614 860.107 98.8614 856.983 Q98.8614 850.381 91.8727 847.547 Q91.7761 847.482 91.7439 847.482 L83.0161 845.292 L82.9517 845.389 Q83.5958 845.936 84.3365 846.806 Q85.0451 847.643 85.9146 849.447 Q86.7842 851.25 86.7842 853.022 Q86.7842 856.725 83.9501 859.27 Q81.0837 861.782 76.3495 861.782 Q72.9034 861.782 69.4574 860.397 Q65.9792 858.98 63.4349 856.79 Q60.8584 854.568 59.2482 851.734 Q57.6379 848.867 57.6379 846.098 Q57.6379 844.165 58.7973 842.523 Q59.9245 840.88 61.7924 839.978 Q60.2465 839.817 59.6024 838.948 Q58.9583 838.046 58.9583 837.273 Q58.9583 836.404 59.4414 835.888 Q59.8923 835.341 60.7296 835.341 M64.7554 840.751 Q64.5621 840.751 64.0468 840.88 Q63.4993 841.009 62.6298 841.395 Q61.7602 841.75 60.9873 842.297 Q60.2143 842.845 59.6668 843.843 Q59.0871 844.809 59.0871 846.033 Q59.0871 848.03 60.7618 850.027 Q62.4043 852.023 64.9486 853.408 Q67.3962 854.696 72.1305 855.92 Q76.8648 857.112 79.2802 857.112 Q81.6634 857.112 83.4992 856.081 Q85.3349 855.051 85.3349 852.829 Q85.3349 850.252 82.9517 847.482 Q80.4718 844.616 78.3462 844.133 L65.7537 840.945 Q64.9808 840.751 64.7554 840.751 Z" fill="#000000" fill-rule="evenodd" fill-opacity="1" /><path clip-path="url(#clip390)" d="M 0 0 M31.4713 827.305 Q23.671 827.305 17.3812 824.397 Q14.7436 823.157 12.5342 821.421 Q10.3249 819.685 9.35551 818.535 Q8.38611 817.386 8.38611 817.07 Q8.38611 816.619 8.837 816.597 Q9.06244 816.597 9.62604 817.205 Q17.2009 824.645 31.4713 824.622 Q45.7868 824.622 53.0685 817.386 Q53.8576 816.597 54.1056 816.597 Q54.5564 816.597 54.5564 817.07 Q54.5564 817.386 53.6321 818.49 Q52.7078 819.595 50.5887 821.308 Q48.4695 823.022 45.877 824.262 Q39.5872 827.305 31.4713 827.305 Z" fill="#000000" fill-rule="evenodd" fill-opacity="1" /><path clip-path="url(#clip390)" d="M 0 0 M43.0139 809.576 Q42.1797 809.576 41.9317 809.508 Q41.6838 809.418 41.3005 809.057 L31.4262 800.198 Q25.9705 795.351 21.2137 795.351 Q18.1252 795.351 15.9158 796.974 Q13.7065 798.574 13.7065 801.528 Q13.7065 803.557 14.9464 805.27 Q16.1864 806.983 18.3957 807.772 Q18.3506 807.637 18.3506 807.164 Q18.3506 806.014 19.072 805.383 Q19.7934 804.729 20.7628 804.729 Q22.0028 804.729 22.6114 805.541 Q23.1976 806.33 23.1976 807.119 Q23.1976 807.434 23.13 807.863 Q23.0623 808.268 22.4311 808.922 Q21.7773 809.576 20.6276 809.576 Q17.4038 809.576 14.8337 807.141 Q12.2637 804.684 12.2637 800.942 Q12.2637 796.703 14.7886 793.93 Q17.291 791.135 21.2137 791.135 Q22.5889 791.135 23.8514 791.563 Q25.0913 791.969 26.0607 792.533 Q27.0301 793.074 28.5856 794.562 Q30.1412 796.049 31.2458 797.244 Q32.3505 798.439 34.6951 801.122 L39.4519 806.014 L39.4519 797.695 Q39.4519 793.637 39.0912 793.322 Q38.4374 792.871 34.9882 792.307 L34.9882 791.135 L43.0139 792.442 L43.0139 809.576 Z" fill="#000000" fill-rule="evenodd" fill-opacity="1" /><path clip-path="url(#clip390)" d="M 0 0 M54.1056 786.711 Q53.8801 786.711 53.3165 786.125 Q45.7417 778.685 31.4713 778.685 Q17.1558 778.685 9.91911 785.832 Q9.08498 786.711 8.837 786.711 Q8.38611 786.711 8.38611 786.26 Q8.38611 785.945 9.31042 784.84 Q10.2347 783.713 12.3539 782.022 Q14.473 780.309 17.0656 779.046 Q23.3554 776.003 31.4713 776.003 Q39.2715 776.003 45.5613 778.911 Q48.199 780.151 50.4083 781.887 Q52.6176 783.623 53.587 784.772 Q54.5564 785.922 54.5564 786.26 Q54.5564 786.711 54.1056 786.711 Z" fill="#000000" fill-rule="evenodd" fill-opacity="1" /><path clip-path="url(#clip390)" d="M 0 0 M70.2948 761.942 Q59.1515 761.942 50.1661 757.787 Q46.398 756.016 43.2418 753.536 Q40.0857 751.056 38.7008 749.414 Q37.316 747.771 37.316 747.32 Q37.316 746.676 37.9601 746.644 Q38.2821 746.644 39.0873 747.514 Q49.9085 758.142 70.2948 758.109 Q90.7455 758.109 101.148 747.771 Q102.275 746.644 102.629 746.644 Q103.274 746.644 103.274 747.32 Q103.274 747.771 101.953 749.349 Q100.633 750.927 97.6053 753.375 Q94.578 755.823 90.8743 757.594 Q81.8889 761.942 70.2948 761.942 Z" fill="#000000" fill-rule="evenodd" fill-opacity="1" /><path clip-path="url(#clip390)" d="M 0 0 M59.4092 705.568 Q59.699 705.568 60.6974 705.826 Q61.6636 706.051 63.5637 706.792 Q65.4317 707.5 67.5251 708.595 Q69.5862 709.658 72.1949 711.623 Q74.8036 713.587 77.0902 716.035 Q81.4058 720.64 83.7246 725.568 Q86.0434 730.463 86.7842 734.65 L86.7842 735.584 Q86.7842 736.614 85.979 736.614 L83.0161 735.906 L66.8809 731.88 Q61.9534 730.624 61.5348 730.624 Q61.1483 730.624 60.9551 730.785 Q60.7296 730.914 60.5686 731.687 Q60.4076 732.428 60.4076 733.909 Q60.4076 734.521 60.3754 734.811 Q60.3432 735.069 60.1821 735.294 Q59.9889 735.519 59.6024 735.519 Q59.0549 735.519 58.7651 735.294 Q58.443 735.036 58.3786 734.843 Q58.3142 734.65 58.282 734.263 Q58.2498 733.716 58.0887 731.88 Q57.8955 730.044 57.7667 728.466 Q57.6379 726.888 57.6379 726.212 Q57.6379 725.826 57.8311 725.6 Q57.9921 725.375 58.1854 725.375 L58.3464 725.342 L84.5942 731.816 Q83.8212 729.433 82.533 727.082 Q81.2448 724.698 79.1192 722.122 Q76.9614 719.545 74.2883 717.355 Q71.6152 715.165 67.8793 713.233 Q64.1112 711.268 59.7957 710.045 Q58.9261 709.819 58.4108 709.272 Q57.8955 708.692 57.7667 708.273 Q57.6379 707.855 57.6379 707.468 Q57.6379 706.599 58.121 706.083 Q58.5718 705.568 59.4092 705.568 Z" fill="#000000" fill-rule="evenodd" fill-opacity="1" /><path clip-path="url(#clip390)" d="M 0 0 M102.629 704.365 Q102.307 704.365 101.502 703.528 Q90.6811 692.9 70.2948 692.9 Q49.844 692.9 39.506 703.109 Q38.3143 704.365 37.9601 704.365 Q37.316 704.365 37.316 703.721 Q37.316 703.27 38.6364 701.692 Q39.9568 700.082 42.9842 697.666 Q46.0115 695.219 49.7152 693.415 Q58.7007 689.067 70.2948 689.067 Q81.438 689.067 90.4234 693.222 Q94.1915 694.993 97.3477 697.473 Q100.504 699.953 101.889 701.595 Q103.274 703.238 103.274 703.721 Q103.274 704.365 102.629 704.365 Z" fill="#000000" fill-rule="evenodd" fill-opacity="1" /><path clip-path="url(#clip390)" d="M 0 0 M590.323 18.8205 L590.323 41.5461 L600.612 41.5461 Q606.324 41.5461 609.443 38.5889 Q612.563 35.6318 612.563 30.163 Q612.563 24.7348 609.443 21.7777 Q606.324 18.8205 600.612 18.8205 L590.323 18.8205 M582.14 12.096 L600.612 12.096 Q610.78 12.096 615.965 16.714 Q621.191 21.2916 621.191 30.163 Q621.191 39.1155 615.965 43.6931 Q610.78 48.2706 600.612 48.2706 L590.323 48.2706 L590.323 72.576 L582.14 72.576 L582.14 12.096 Z" fill="#000000" fill-rule="evenodd" fill-opacity="1" /><path clip-path="url(#clip390)" d="M 0 0 M669.559 45.1919 L669.559 72.576 L662.105 72.576 L662.105 45.4349 Q662.105 38.994 659.594 35.7938 Q657.082 32.5936 652.059 32.5936 Q646.023 32.5936 642.539 36.4419 Q639.055 40.2903 639.055 46.9338 L639.055 72.576 L631.561 72.576 L631.561 9.54393 L639.055 9.54393 L639.055 34.2544 Q641.729 30.163 645.334 28.1376 Q648.98 26.1121 653.72 26.1121 Q661.538 26.1121 665.548 30.9732 Q669.559 35.7938 669.559 45.1919 Z" fill="#000000" fill-rule="evenodd" fill-opacity="1" /><path clip-path="url(#clip390)" d="M 0 0 M702.007 32.4315 Q696.011 32.4315 692.527 37.1306 Q689.044 41.7891 689.044 49.9314 Q689.044 58.0738 692.487 62.7728 Q695.971 67.4314 702.007 67.4314 Q707.961 67.4314 711.445 62.7323 Q714.929 58.0333 714.929 49.9314 Q714.929 41.8701 711.445 37.1711 Q707.961 32.4315 702.007 32.4315 M702.007 26.1121 Q711.729 26.1121 717.278 32.4315 Q722.828 38.7509 722.828 49.9314 Q722.828 61.0714 717.278 67.4314 Q711.729 73.7508 702.007 73.7508 Q692.244 73.7508 686.694 67.4314 Q681.185 61.0714 681.185 49.9314 Q681.185 38.7509 686.694 32.4315 Q692.244 26.1121 702.007 26.1121 Z" fill="#000000" fill-rule="evenodd" fill-opacity="1" /><path clip-path="url(#clip390)" d="M 0 0 M742.556 14.324 L742.556 27.2059 L757.909 27.2059 L757.909 32.9987 L742.556 32.9987 L742.556 57.6282 Q742.556 63.1779 744.055 64.7578 Q745.594 66.3376 750.253 66.3376 L757.909 66.3376 L757.909 72.576 L750.253 72.576 Q741.624 72.576 738.343 69.3758 Q735.062 66.1351 735.062 57.6282 L735.062 32.9987 L729.593 32.9987 L729.593 27.2059 L735.062 27.2059 L735.062 14.324 L742.556 14.324 Z" fill="#000000" fill-rule="evenodd" fill-opacity="1" /><path clip-path="url(#clip390)" d="M 0 0 M785.293 32.4315 Q779.298 32.4315 775.814 37.1306 Q772.33 41.7891 772.33 49.9314 Q772.33 58.0738 775.773 62.7728 Q779.257 67.4314 785.293 67.4314 Q791.248 67.4314 794.732 62.7323 Q798.215 58.0333 798.215 49.9314 Q798.215 41.8701 794.732 37.1711 Q791.248 32.4315 785.293 32.4315 M785.293 26.1121 Q795.015 26.1121 800.565 32.4315 Q806.115 38.7509 806.115 49.9314 Q806.115 61.0714 800.565 67.4314 Q795.015 73.7508 785.293 73.7508 Q775.53 73.7508 769.981 67.4314 Q764.471 61.0714 764.471 49.9314 Q764.471 38.7509 769.981 32.4315 Q775.53 26.1121 785.293 26.1121 Z" fill="#000000" fill-rule="evenodd" fill-opacity="1" /><path clip-path="url(#clip390)" d="M 0 0 M856.184 45.1919 L856.184 72.576 L848.73 72.576 L848.73 45.4349 Q848.73 38.994 846.219 35.7938 Q843.707 32.5936 838.684 32.5936 Q832.648 32.5936 829.164 36.4419 Q825.681 40.2903 825.681 46.9338 L825.681 72.576 L818.186 72.576 L818.186 27.2059 L825.681 27.2059 L825.681 34.2544 Q828.354 30.163 831.96 28.1376 Q835.605 26.1121 840.345 26.1121 Q848.163 26.1121 852.174 30.9732 Q856.184 35.7938 856.184 45.1919 Z" fill="#000000" fill-rule="evenodd" fill-opacity="1" /><path clip-path="url(#clip390)" d="M 0 0 M943.035 16.7545 L943.035 25.383 Q938.903 21.5346 934.204 19.6307 Q929.546 17.7268 924.28 17.7268 Q913.909 17.7268 908.4 24.0867 Q902.891 30.4061 902.891 42.3968 Q902.891 54.3469 908.4 60.7069 Q913.909 67.0263 924.28 67.0263 Q929.546 67.0263 934.204 65.1223 Q938.903 63.2184 943.035 59.3701 L943.035 67.9175 Q938.741 70.8341 933.921 72.2924 Q929.141 73.7508 923.794 73.7508 Q910.061 73.7508 902.162 65.3654 Q894.262 56.9395 894.262 42.3968 Q894.262 27.8135 902.162 19.4281 Q910.061 11.0023 923.794 11.0023 Q929.222 11.0023 934.002 12.4606 Q938.822 13.8784 943.035 16.7545 Z" fill="#000000" fill-rule="evenodd" fill-opacity="1" /><path clip-path="url(#clip390)" d="M 0 0 M972.931 32.4315 Q966.936 32.4315 963.452 37.1306 Q959.968 41.7891 959.968 49.9314 Q959.968 58.0738 963.411 62.7728 Q966.895 67.4314 972.931 67.4314 Q978.886 67.4314 982.37 62.7323 Q985.853 58.0333 985.853 49.9314 Q985.853 41.8701 982.37 37.1711 Q978.886 32.4315 972.931 32.4315 M972.931 26.1121 Q982.653 26.1121 988.203 32.4315 Q993.753 38.7509 993.753 49.9314 Q993.753 61.0714 988.203 67.4314 Q982.653 73.7508 972.931 73.7508 Q963.168 73.7508 957.619 67.4314 Q952.109 61.0714 952.109 49.9314 Q952.109 38.7509 957.619 32.4315 Q963.168 26.1121 972.931 26.1121 Z" fill="#000000" fill-rule="evenodd" fill-opacity="1" /><path clip-path="url(#clip390)" d="M 0 0 M1032.4 34.1734 Q1031.14 33.4443 1029.64 33.1202 Q1028.19 32.7556 1026.4 32.7556 Q1020.08 32.7556 1016.68 36.8875 Q1013.32 40.9789 1013.32 48.6757 L1013.32 72.576 L1005.82 72.576 L1005.82 27.2059 L1013.32 27.2059 L1013.32 34.2544 Q1015.67 30.1225 1019.44 28.1376 Q1023.2 26.1121 1028.59 26.1121 Q1029.36 26.1121 1030.29 26.2337 Q1031.22 26.3147 1032.36 26.5172 L1032.4 34.1734 Z" fill="#000000" fill-rule="evenodd" fill-opacity="1" /><path clip-path="url(#clip390)" d="M 0 0 M1065.05 34.1734 Q1063.79 33.4443 1062.29 33.1202 Q1060.84 32.7556 1059.05 32.7556 Q1052.73 32.7556 1049.33 36.8875 Q1045.97 40.9789 1045.97 48.6757 L1045.97 72.576 L1038.47 72.576 L1038.47 27.2059 L1045.97 27.2059 L1045.97 34.2544 Q1048.32 30.1225 1052.09 28.1376 Q1055.85 26.1121 1061.24 26.1121 Q1062.01 26.1121 1062.94 26.2337 Q1063.87 26.3147 1065.01 26.5172 L1065.05 34.1734 Z" fill="#000000" fill-rule="evenodd" fill-opacity="1" /><path clip-path="url(#clip390)" d="M 0 0 M1109.85 48.0275 L1109.85 51.6733 L1075.58 51.6733 Q1076.07 59.3701 1080.2 63.421 Q1084.37 67.4314 1091.78 67.4314 Q1096.08 67.4314 1100.09 66.3781 Q1104.14 65.3249 1108.11 63.2184 L1108.11 70.267 Q1104.1 71.9684 1099.89 72.8596 Q1095.67 73.7508 1091.34 73.7508 Q1080.48 73.7508 1074.12 67.4314 Q1067.8 61.1119 1067.8 50.3365 Q1067.8 39.1965 1073.8 32.6746 Q1079.83 26.1121 1090.04 26.1121 Q1099.2 26.1121 1104.5 32.0264 Q1109.85 37.9003 1109.85 48.0275 M1102.4 45.84 Q1102.32 39.7232 1098.95 36.0774 Q1095.63 32.4315 1090.12 32.4315 Q1083.89 32.4315 1080.12 35.9558 Q1076.39 39.4801 1075.82 45.8805 L1102.4 45.84 Z" fill="#000000" fill-rule="evenodd" fill-opacity="1" /><path clip-path="url(#clip390)" d="M 0 0 M1122.09 9.54393 L1129.54 9.54393 L1129.54 72.576 L1122.09 72.576 L1122.09 9.54393 Z" fill="#000000" fill-rule="evenodd" fill-opacity="1" /><path clip-path="url(#clip390)" d="M 0 0 M1165.75 49.7694 Q1156.72 49.7694 1153.24 51.8354 Q1149.75 53.9013 1149.75 58.8839 Q1149.75 62.8538 1152.35 65.2034 Q1154.98 67.5124 1159.48 67.5124 Q1165.67 67.5124 1169.4 63.1374 Q1173.17 58.7219 1173.17 51.4303 L1173.17 49.7694 L1165.75 49.7694 M1180.62 46.6907 L1180.62 72.576 L1173.17 72.576 L1173.17 65.6895 Q1170.62 69.8214 1166.81 71.8063 Q1163 73.7508 1157.49 73.7508 Q1150.52 73.7508 1146.39 69.8619 Q1142.3 65.9325 1142.3 59.3701 Q1142.3 51.7138 1147.4 47.825 Q1152.55 43.9361 1162.72 43.9361 L1173.17 43.9361 L1173.17 43.2069 Q1173.17 38.0623 1169.76 35.2672 Q1166.4 32.4315 1160.29 32.4315 Q1156.4 32.4315 1152.71 33.3632 Q1149.02 34.295 1145.62 36.1584 L1145.62 29.2718 Q1149.71 27.692 1153.56 26.9223 Q1157.41 26.1121 1161.05 26.1121 Q1170.9 26.1121 1175.76 31.2163 Q1180.62 36.3204 1180.62 46.6907 Z" fill="#000000" fill-rule="evenodd" fill-opacity="1" /><path clip-path="url(#clip390)" d="M 0 0 M1203.35 14.324 L1203.35 27.2059 L1218.7 27.2059 L1218.7 32.9987 L1203.35 32.9987 L1203.35 57.6282 Q1203.35 63.1779 1204.85 64.7578 Q1206.38 66.3376 1211.04 66.3376 L1218.7 66.3376 L1218.7 72.576 L1211.04 72.576 Q1202.41 72.576 1199.13 69.3758 Q1195.85 66.1351 1195.85 57.6282 L1195.85 32.9987 L1190.38 32.9987 L1190.38 27.2059 L1195.85 27.2059 L1195.85 14.324 L1203.35 14.324 Z" fill="#000000" fill-rule="evenodd" fill-opacity="1" /><path clip-path="url(#clip390)" d="M 0 0 M1228.5 27.2059 L1235.96 27.2059 L1235.96 72.576 L1228.5 72.576 L1228.5 27.2059 M1228.5 9.54393 L1235.96 9.54393 L1235.96 18.9825 L1228.5 18.9825 L1228.5 9.54393 Z" fill="#000000" fill-rule="evenodd" fill-opacity="1" /><path clip-path="url(#clip390)" d="M 0 0 M1269.13 32.4315 Q1263.14 32.4315 1259.65 37.1306 Q1256.17 41.7891 1256.17 49.9314 Q1256.17 58.0738 1259.61 62.7728 Q1263.1 67.4314 1269.13 67.4314 Q1275.09 67.4314 1278.57 62.7323 Q1282.06 58.0333 1282.06 49.9314 Q1282.06 41.8701 1278.57 37.1711 Q1275.09 32.4315 1269.13 32.4315 M1269.13 26.1121 Q1278.86 26.1121 1284.41 32.4315 Q1289.95 38.7509 1289.95 49.9314 Q1289.95 61.0714 1284.41 67.4314 Q1278.86 73.7508 1269.13 73.7508 Q1259.37 73.7508 1253.82 67.4314 Q1248.31 61.0714 1248.31 49.9314 Q1248.31 38.7509 1253.82 32.4315 Q1259.37 26.1121 1269.13 26.1121 Z" fill="#000000" fill-rule="evenodd" fill-opacity="1" /><path clip-path="url(#clip390)" d="M 0 0 M1340.02 45.1919 L1340.02 72.576 L1332.57 72.576 L1332.57 45.4349 Q1332.57 38.994 1330.06 35.7938 Q1327.55 32.5936 1322.52 32.5936 Q1316.49 32.5936 1313 36.4419 Q1309.52 40.2903 1309.52 46.9338 L1309.52 72.576 L1302.03 72.576 L1302.03 27.2059 L1309.52 27.2059 L1309.52 34.2544 Q1312.19 30.163 1315.8 28.1376 Q1319.45 26.1121 1324.18 26.1121 Q1332 26.1121 1336.01 30.9732 Q1340.02 35.7938 1340.02 45.1919 Z" fill="#000000" fill-rule="evenodd" fill-opacity="1" /><path clip-path="url(#clip390)" d="M 0 0 M1383.81 28.5427 L1383.81 35.5912 Q1380.65 33.9709 1377.25 33.1607 Q1373.85 32.3505 1370.2 32.3505 Q1364.65 32.3505 1361.86 34.0519 Q1359.1 35.7533 1359.1 39.156 Q1359.1 41.7486 1361.09 43.2475 Q1363.07 44.7058 1369.07 46.0426 L1371.62 46.6097 Q1379.56 48.3111 1382.88 51.4303 Q1386.24 54.509 1386.24 60.0587 Q1386.24 66.3781 1381.22 70.0644 Q1376.24 73.7508 1367.49 73.7508 Q1363.84 73.7508 1359.87 73.0216 Q1355.94 72.3329 1351.57 70.9151 L1351.57 63.2184 Q1355.7 65.3654 1359.71 66.4591 Q1363.72 67.5124 1367.65 67.5124 Q1372.92 67.5124 1375.75 65.73 Q1378.59 63.9071 1378.59 60.6258 Q1378.59 57.5877 1376.52 55.9673 Q1374.5 54.3469 1367.57 52.8481 L1364.98 52.2405 Q1358.05 50.7821 1354.97 47.7845 Q1351.89 44.7463 1351.89 39.4801 Q1351.89 33.0797 1356.43 29.5959 Q1360.97 26.1121 1369.31 26.1121 Q1373.44 26.1121 1377.09 26.7198 Q1380.74 27.3274 1383.81 28.5427 Z" fill="#000000" fill-rule="evenodd" fill-opacity="1" /><path clip-path="url(#clip390)" d="M 0 0 M1419.14 27.2059 L1427.04 27.2059 L1441.22 65.2844 L1455.39 27.2059 L1463.29 27.2059 L1446.28 72.576 L1436.15 72.576 L1419.14 27.2059 Z" fill="#000000" fill-rule="evenodd" fill-opacity="1" /><path clip-path="url(#clip390)" d="M 0 0 M1502.51 28.5427 L1502.51 35.5912 Q1499.35 33.9709 1495.94 33.1607 Q1492.54 32.3505 1488.89 32.3505 Q1483.34 32.3505 1480.55 34.0519 Q1477.8 35.7533 1477.8 39.156 Q1477.8 41.7486 1479.78 43.2475 Q1481.77 44.7058 1487.76 46.0426 L1490.31 46.6097 Q1498.25 48.3111 1501.57 51.4303 Q1504.94 54.509 1504.94 60.0587 Q1504.94 66.3781 1499.91 70.0644 Q1494.93 73.7508 1486.18 73.7508 Q1482.53 73.7508 1478.56 73.0216 Q1474.64 72.3329 1470.26 70.9151 L1470.26 63.2184 Q1474.39 65.3654 1478.4 66.4591 Q1482.41 67.5124 1486.34 67.5124 Q1491.61 67.5124 1494.44 65.73 Q1497.28 63.9071 1497.28 60.6258 Q1497.28 57.5877 1495.21 55.9673 Q1493.19 54.3469 1486.26 52.8481 L1483.67 52.2405 Q1476.74 50.7821 1473.66 47.7845 Q1470.58 44.7463 1470.58 39.4801 Q1470.58 33.0797 1475.12 29.5959 Q1479.66 26.1121 1488 26.1121 Q1492.14 26.1121 1495.78 26.7198 Q1499.43 27.3274 1502.51 28.5427 Z" fill="#000000" fill-rule="evenodd" fill-opacity="1" /><path clip-path="url(#clip390)" d="M 0 0 M1543.5 12.096 L1578.26 12.096 L1578.26 18.9825 L1551.68 18.9825 L1551.68 36.8065 L1575.67 36.8065 L1575.67 43.6931 L1551.68 43.6931 L1551.68 72.576 L1543.5 72.576 L1543.5 12.096 Z" fill="#000000" fill-rule="evenodd" fill-opacity="1" /><path clip-path="url(#clip390)" d="M 0 0 M1611.15 34.1734 Q1609.9 33.4443 1608.4 33.1202 Q1606.94 32.7556 1605.16 32.7556 Q1598.84 32.7556 1595.43 36.8875 Q1592.07 40.9789 1592.07 48.6757 L1592.07 72.576 L1584.58 72.576 L1584.58 27.2059 L1592.07 27.2059 L1592.07 34.2544 Q1594.42 30.1225 1598.19 28.1376 Q1601.96 26.1121 1607.34 26.1121 Q1608.11 26.1121 1609.04 26.2337 Q1609.98 26.3147 1611.11 26.5172 L1611.15 34.1734 Z" fill="#000000" fill-rule="evenodd" fill-opacity="1" /><path clip-path="url(#clip390)" d="M 0 0 M1655.95 48.0275 L1655.95 51.6733 L1621.68 51.6733 Q1622.17 59.3701 1626.3 63.421 Q1630.47 67.4314 1637.89 67.4314 Q1642.18 67.4314 1646.19 66.3781 Q1650.24 65.3249 1654.21 63.2184 L1654.21 70.267 Q1650.2 71.9684 1645.99 72.8596 Q1641.78 73.7508 1637.44 73.7508 Q1626.58 73.7508 1620.22 67.4314 Q1613.91 61.1119 1613.91 50.3365 Q1613.91 39.1965 1619.9 32.6746 Q1625.94 26.1121 1636.15 26.1121 Q1645.3 26.1121 1650.61 32.0264 Q1655.95 37.9003 1655.95 48.0275 M1648.5 45.84 Q1648.42 39.7232 1645.06 36.0774 Q1641.74 32.4315 1636.23 32.4315 Q1629.99 32.4315 1626.22 35.9558 Q1622.49 39.4801 1621.93 45.8805 L1648.5 45.84 Z" fill="#000000" fill-rule="evenodd" fill-opacity="1" /><path clip-path="url(#clip390)" d="M 0 0 M1672.64 49.9314 Q1672.64 58.1548 1676.01 62.8538 Q1679.41 67.5124 1685.32 67.5124 Q1691.24 67.5124 1694.64 62.8538 Q1698.04 58.1548 1698.04 49.9314 Q1698.04 41.7081 1694.64 37.0496 Q1691.24 32.3505 1685.32 32.3505 Q1679.41 32.3505 1676.01 37.0496 Q1672.64 41.7081 1672.64 49.9314 M1698.04 65.7705 Q1695.69 69.8214 1692.09 71.8063 Q1688.52 73.7508 1683.5 73.7508 Q1675.28 73.7508 1670.09 67.1883 Q1664.95 60.6258 1664.95 49.9314 Q1664.95 39.2371 1670.09 32.6746 Q1675.28 26.1121 1683.5 26.1121 Q1688.52 26.1121 1692.09 28.0971 Q1695.69 30.0415 1698.04 34.0924 L1698.04 27.2059 L1705.5 27.2059 L1705.5 89.8329 L1698.04 89.8329 L1698.04 65.7705 Z" fill="#000000" fill-rule="evenodd" fill-opacity="1" /><path clip-path="url(#clip390)" d="M 0 0 M1720.08 54.671 L1720.08 27.2059 L1727.53 27.2059 L1727.53 54.3874 Q1727.53 60.8284 1730.04 64.0691 Q1732.56 67.2693 1737.58 67.2693 Q1743.62 67.2693 1747.1 63.421 Q1750.62 59.5726 1750.62 52.9291 L1750.62 27.2059 L1758.08 27.2059 L1758.08 72.576 L1750.62 72.576 L1750.62 65.6084 Q1747.91 69.7404 1744.3 71.7658 Q1740.74 73.7508 1736 73.7508 Q1728.18 73.7508 1724.13 68.8897 Q1720.08 64.0286 1720.08 54.671 M1738.84 26.1121 L1738.84 26.1121 Z" fill="#000000" fill-rule="evenodd" fill-opacity="1" /><path clip-path="url(#clip390)" d="M 0 0 M1812.24 48.0275 L1812.24 51.6733 L1777.97 51.6733 Q1778.45 59.3701 1782.59 63.421 Q1786.76 67.4314 1794.17 67.4314 Q1798.46 67.4314 1802.48 66.3781 Q1806.53 65.3249 1810.5 63.2184 L1810.5 70.267 Q1806.49 71.9684 1802.27 72.8596 Q1798.06 73.7508 1793.73 73.7508 Q1782.87 73.7508 1776.51 67.4314 Q1770.19 61.1119 1770.19 50.3365 Q1770.19 39.1965 1776.18 32.6746 Q1782.22 26.1121 1792.43 26.1121 Q1801.58 26.1121 1806.89 32.0264 Q1812.24 37.9003 1812.24 48.0275 M1804.78 45.84 Q1804.7 39.7232 1801.34 36.0774 Q1798.02 32.4315 1792.51 32.4315 Q1786.27 32.4315 1782.5 35.9558 Q1778.78 39.4801 1778.21 45.8805 L1804.78 45.84 Z" fill="#000000" fill-rule="evenodd" fill-opacity="1" /><path clip-path="url(#clip390)" d="M 0 0 M1862.19 45.1919 L1862.19 72.576 L1854.73 72.576 L1854.73 45.4349 Q1854.73 38.994 1852.22 35.7938 Q1849.71 32.5936 1844.69 32.5936 Q1838.65 32.5936 1835.17 36.4419 Q1831.68 40.2903 1831.68 46.9338 L1831.68 72.576 L1824.19 72.576 L1824.19 27.2059 L1831.68 27.2059 L1831.68 34.2544 Q1834.36 30.163 1837.96 28.1376 Q1841.61 26.1121 1846.35 26.1121 Q1854.16 26.1121 1858.18 30.9732 Q1862.19 35.7938 1862.19 45.1919 Z" fill="#000000" fill-rule="evenodd" fill-opacity="1" /><path clip-path="url(#clip390)" d="M 0 0 M1909.7 28.9478 L1909.7 35.9153 Q1906.54 34.1734 1903.34 33.3227 Q1900.18 32.4315 1896.94 32.4315 Q1889.69 32.4315 1885.68 37.0496 Q1881.67 41.6271 1881.67 49.9314 Q1881.67 58.2358 1885.68 62.8538 Q1889.69 67.4314 1896.94 67.4314 Q1900.18 67.4314 1903.34 66.5807 Q1906.54 65.6895 1909.7 63.9476 L1909.7 70.8341 Q1906.58 72.2924 1903.22 73.0216 Q1899.9 73.7508 1896.13 73.7508 Q1885.88 73.7508 1879.85 67.3098 Q1873.81 60.8689 1873.81 49.9314 Q1873.81 38.832 1879.89 32.472 Q1886 26.1121 1896.62 26.1121 Q1900.06 26.1121 1903.34 26.8413 Q1906.62 27.5299 1909.7 28.9478 Z" fill="#000000" fill-rule="evenodd" fill-opacity="1" /><path clip-path="url(#clip390)" d="M 0 0 M1941.54 76.7889 Q1938.38 84.8907 1935.39 87.3618 Q1932.39 89.8329 1927.36 89.8329 L1921.41 89.8329 L1921.41 83.5945 L1925.78 83.5945 Q1928.86 83.5945 1930.56 82.1361 Q1932.27 80.6778 1934.33 75.2496 L1935.67 71.8468 L1917.32 27.2059 L1925.22 27.2059 L1939.4 62.6918 L1953.57 27.2059 L1961.47 27.2059 L1941.54 76.7889 Z" fill="#000000" fill-rule="evenodd" fill-opacity="1" /><polyline clip-path="url(#clip393)" style="stroke:#009af9; stroke-width:4; stroke-opacity:1; fill:none" points="
  252.043,1386.4 260.234,1181.07 268.425,1105.55 276.616,813.706 284.807,1289.23 292.998,1032.81 301.189,1130.52 309.379,1194.19 317.57,160.256 325.761,1114.76 
  333.952,1244.75 342.143,1199.28 350.334,1299.17 358.525,1104.22 366.715,1116.45 374.906,1191.08 383.097,1215.61 391.288,1346.07 399.479,1186.42 407.67,1044.73 
  415.861,1033 424.052,1103.38 432.242,1154.89 440.433,1283.95 448.624,1180.72 456.815,1194.93 465.006,1126.12 473.197,1245.37 481.388,1296.7 489.579,987.749 
  497.769,1161.84 505.96,1230.26 514.151,1204.66 522.342,1244.33 530.533,1248.88 538.724,1063.35 546.915,1224.76 555.106,1327.12 563.296,1148.65 571.487,1118.07 
  579.678,1179.49 587.869,1239.44 596.06,1099.53 604.251,1154.23 612.442,1178.21 620.632,1057.23 628.823,1191.18 637.014,970.609 645.205,1226.29 653.396,1211.7 
  661.587,1273.74 669.778,1166.76 677.969,1235.29 686.159,1287.63 694.35,1182.21 702.541,875.818 710.732,1251.72 718.923,1285.62 727.114,498.651 735.305,953.653 
  743.496,942.371 751.686,1235.69 759.877,1047.14 768.068,665.384 776.259,1151.92 784.45,1041.24 792.641,1041.45 800.832,1165.85 809.023,1282.43 817.213,1129.22 
  825.404,1287.7 833.595,1296.79 841.786,1298.19 849.977,1003.2 858.168,1002.3 866.359,1170.51 874.549,1152.37 882.74,1266.58 890.931,1056.76 899.122,453.821 
  907.313,815.962 915.504,1160.39 923.695,1257.78 931.886,1347.79 940.076,1305.16 948.267,1264.82 956.458,1107.24 964.649,1267.3 972.84,1189.41 981.031,1320.48 
  989.222,1090.87 997.413,1159.98 1005.6,1159.59 1013.79,1230.58 1021.99,1324.84 1030.18,1093.16 1038.37,1108.11 1046.56,1239.07 1054.75,1068.69 1062.94,1187.14 
  1071.13,1254.38 1079.32,1139.4 1087.51,1097.66 1095.7,1258.37 1103.89,1265.79 1112.08,1274.86 1120.28,1226.64 1128.47,1042.13 1136.66,1170.14 1144.85,1176.47 
  1153.04,1329.17 1161.23,1165.66 1169.42,1280.59 1177.61,1340.98 1185.8,1261.84 1193.99,973.604 1202.18,608.258 1210.38,898.972 1218.57,1283.68 1226.76,477.653 
  1234.95,1182.65 1243.14,1114.5 1251.33,1190.64 1259.52,1062.71 1267.71,1267.47 1275.9,1341.05 1284.09,1304.47 1292.28,772.816 1300.47,1208.75 1308.67,1101.63 
  1316.86,1332.52 1325.05,1095.65 1333.24,1273.93 1341.43,1180.22 1349.62,1259.85 1357.81,1364.81 1366,1189.12 1374.19,1101.75 1382.38,1271.19 1390.57,1208.09 
  1398.77,1146.15 1406.96,1251.94 1415.15,1225.57 1423.34,1116.82 1431.53,1274.31 1439.72,1281.51 1447.91,981.232 1456.1,1255.53 1464.29,1058.11 1472.48,1248.77 
  1480.67,1043.87 1488.86,1197.84 1497.06,1325.12 1505.25,1193.99 1513.44,769.02 1521.63,1244.3 1529.82,1279.35 1538.01,1171.78 1546.2,1203.94 1554.39,1196.71 
  1562.58,1137.6 1570.77,1262.7 1578.96,1111.29 1587.16,1156.15 1595.35,1065.03 1603.54,1250.84 1611.73,1276.31 1619.92,1246.56 1628.11,1161.27 1636.3,1096.24 
  1644.49,1043.52 1652.68,1246.26 1660.87,1307.75 1669.06,1242.15 1677.25,1118.7 1685.45,1125.73 1693.64,1066.61 1701.83,1157.7 1710.02,1025.2 1718.21,1201.34 
  1726.4,1257 1734.59,1157.02 1742.78,1141.16 1750.97,1091.49 1759.16,1113.87 1767.35,1158.16 1775.55,1187.05 1783.74,1004.55 1791.93,1143.82 1800.12,1157.08 
  1808.31,1191.72 1816.5,1156.66 1824.69,1167.27 1832.88,623.632 1841.07,944.112 1849.26,1300.18 1857.45,1307.79 1865.64,1340.24 1873.84,1092.8 1882.03,1174.4 
  1890.22,1239.18 1898.41,1191.25 1906.6,1300.99 1914.79,1335.76 1922.98,1330.85 1931.17,1293.87 1939.36,1177.39 1947.55,1324.32 1955.74,979.925 1963.94,1138.76 
  1972.13,1090.6 1980.32,1195.96 1988.51,1100.66 1996.7,1095.46 2004.89,1031.1 2013.08,1347.62 2021.27,1325.68 2029.46,1211.31 2037.65,1276.08 2045.84,1118.54 
  2054.03,1282.78 2062.23,1238.46 2070.42,1266.51 2078.61,1066.65 2086.8,836.698 2094.99,1357.85 2103.18,1170.03 2111.37,905.122 2119.56,1082.46 2127.75,925.149 
  2135.94,1323.41 2144.13,1076.67 2152.33,1141.9 2160.52,1324.35 2168.71,1284.07 2176.9,1126.55 2185.09,1044.63 2193.28,1301.99 2201.47,1198.16 2209.66,1244.06 
  2217.85,1239.43 2226.04,1272.01 2234.23,1161.45 2242.42,1292.56 2250.62,1318.46 2258.81,1254.68 2267,1365.78 2275.19,1016.74 2283.38,955.312 2291.57,826.471 
  
  "/>
<polyline clip-path="url(#clip393)" style="stroke:#e26f46; stroke-width:4; stroke-opacity:1; fill:none" stroke-dasharray="16, 10" points="
  660.768,2722.89 660.768,-1176.24 
  "/>
<path clip-path="url(#clip390)" d="
M1687.5 287.756 L2280.69 287.756 L2280.69 166.796 L1687.5 166.796  Z
  " fill="#ffffff" fill-rule="evenodd" fill-opacity="1"/>
<polyline clip-path="url(#clip390)" style="stroke:#000000; stroke-width:4; stroke-opacity:1; fill:none" points="
  1687.5,287.756 2280.69,287.756 2280.69,166.796 1687.5,166.796 1687.5,287.756 
  "/>
<polyline clip-path="url(#clip390)" style="stroke:#e26f46; stroke-width:4; stroke-opacity:1; fill:none" stroke-dasharray="16, 10" points="
  1711.52,227.276 1855.65,227.276 
  "/>
<path clip-path="url(#clip390)" d="M 0 0 M1896.17 208.537 L1896.17 212.079 L1892.1 212.079 Q1889.81 212.079 1888.9 213.005 Q1888.02 213.931 1888.02 216.338 L1888.02 218.63 L1895.04 218.63 L1895.04 221.94 L1888.02 221.94 L1888.02 244.556 L1883.74 244.556 L1883.74 221.94 L1879.67 221.94 L1879.67 218.63 L1883.74 218.63 L1883.74 216.824 Q1883.74 212.496 1885.75 210.528 Q1887.77 208.537 1892.14 208.537 L1896.17 208.537 Z" fill="#000000" fill-rule="evenodd" fill-opacity="1" /><path clip-path="url(#clip390)" d="M 0 0 M1914.76 222.611 Q1914.04 222.195 1913.18 222.01 Q1912.35 221.801 1911.33 221.801 Q1907.72 221.801 1905.78 224.162 Q1903.86 226.5 1903.86 230.898 L1903.86 244.556 L1899.57 244.556 L1899.57 218.63 L1903.86 218.63 L1903.86 222.658 Q1905.2 220.297 1907.35 219.162 Q1909.5 218.005 1912.58 218.005 Q1913.02 218.005 1913.55 218.074 Q1914.09 218.121 1914.74 218.236 L1914.76 222.611 Z" fill="#000000" fill-rule="evenodd" fill-opacity="1" /><path clip-path="url(#clip390)" d="M 0 0 M1940.36 230.528 L1940.36 232.611 L1920.78 232.611 Q1921.05 237.009 1923.42 239.324 Q1925.8 241.616 1930.04 241.616 Q1932.49 241.616 1934.78 241.014 Q1937.1 240.412 1939.36 239.209 L1939.36 243.236 Q1937.07 244.208 1934.67 244.718 Q1932.26 245.227 1929.78 245.227 Q1923.58 245.227 1919.94 241.616 Q1916.33 238.005 1916.33 231.847 Q1916.33 225.482 1919.76 221.755 Q1923.21 218.005 1929.04 218.005 Q1934.27 218.005 1937.3 221.385 Q1940.36 224.741 1940.36 230.528 M1936.1 229.278 Q1936.05 225.783 1934.13 223.699 Q1932.24 221.616 1929.09 221.616 Q1925.52 221.616 1923.37 223.63 Q1921.24 225.644 1920.92 229.301 L1936.1 229.278 Z" fill="#000000" fill-rule="evenodd" fill-opacity="1" /><path clip-path="url(#clip390)" d="M 0 0 M1949.9 231.616 Q1949.9 236.315 1951.82 239 Q1953.76 241.662 1957.14 241.662 Q1960.52 241.662 1962.47 239 Q1964.41 236.315 1964.41 231.616 Q1964.41 226.917 1962.47 224.255 Q1960.52 221.57 1957.14 221.57 Q1953.76 221.57 1951.82 224.255 Q1949.9 226.917 1949.9 231.616 M1964.41 240.667 Q1963.07 242.982 1961.01 244.116 Q1958.97 245.227 1956.1 245.227 Q1951.4 245.227 1948.44 241.477 Q1945.5 237.727 1945.5 231.616 Q1945.5 225.505 1948.44 221.755 Q1951.4 218.005 1956.1 218.005 Q1958.97 218.005 1961.01 219.139 Q1963.07 220.25 1964.41 222.565 L1964.41 218.63 L1968.67 218.63 L1968.67 254.417 L1964.41 254.417 L1964.41 240.667 Z" fill="#000000" fill-rule="evenodd" fill-opacity="1" /><path clip-path="url(#clip390)" d="M 0 0 M1977 234.324 L1977 218.63 L1981.26 218.63 L1981.26 234.162 Q1981.26 237.843 1982.7 239.695 Q1984.13 241.523 1987 241.523 Q1990.45 241.523 1992.44 239.324 Q1994.46 237.125 1994.46 233.329 L1994.46 218.63 L1998.72 218.63 L1998.72 244.556 L1994.46 244.556 L1994.46 240.574 Q1992.91 242.935 1990.85 244.093 Q1988.81 245.227 1986.1 245.227 Q1981.63 245.227 1979.32 242.449 Q1977 239.671 1977 234.324 M1987.72 218.005 L1987.72 218.005 Z" fill="#000000" fill-rule="evenodd" fill-opacity="1" /><path clip-path="url(#clip390)" d="M 0 0 M2029.67 230.528 L2029.67 232.611 L2010.08 232.611 Q2010.36 237.009 2012.72 239.324 Q2015.11 241.616 2019.34 241.616 Q2021.8 241.616 2024.09 241.014 Q2026.4 240.412 2028.67 239.209 L2028.67 243.236 Q2026.38 244.208 2023.97 244.718 Q2021.56 245.227 2019.09 245.227 Q2012.88 245.227 2009.25 241.616 Q2005.64 238.005 2005.64 231.847 Q2005.64 225.482 2009.06 221.755 Q2012.51 218.005 2018.35 218.005 Q2023.58 218.005 2026.61 221.385 Q2029.67 224.741 2029.67 230.528 M2025.41 229.278 Q2025.36 225.783 2023.44 223.699 Q2021.54 221.616 2018.39 221.616 Q2014.83 221.616 2012.67 223.63 Q2010.55 225.644 2010.22 229.301 L2025.41 229.278 Z" fill="#000000" fill-rule="evenodd" fill-opacity="1" /><path clip-path="url(#clip390)" d="M 0 0 M2058.21 228.908 L2058.21 244.556 L2053.95 244.556 L2053.95 229.047 Q2053.95 225.366 2052.51 223.537 Q2051.08 221.709 2048.21 221.709 Q2044.76 221.709 2042.77 223.908 Q2040.78 226.107 2040.78 229.903 L2040.78 244.556 L2036.49 244.556 L2036.49 218.63 L2040.78 218.63 L2040.78 222.658 Q2042.3 220.32 2044.36 219.162 Q2046.45 218.005 2049.16 218.005 Q2053.62 218.005 2055.92 220.783 Q2058.21 223.537 2058.21 228.908 Z" fill="#000000" fill-rule="evenodd" fill-opacity="1" /><path clip-path="url(#clip390)" d="M 0 0 M2085.36 219.625 L2085.36 223.607 Q2083.55 222.611 2081.73 222.125 Q2079.92 221.616 2078.07 221.616 Q2073.92 221.616 2071.63 224.255 Q2069.34 226.871 2069.34 231.616 Q2069.34 236.361 2071.63 239 Q2073.92 241.616 2078.07 241.616 Q2079.92 241.616 2081.73 241.13 Q2083.55 240.621 2085.36 239.625 L2085.36 243.56 Q2083.58 244.394 2081.66 244.81 Q2079.76 245.227 2077.6 245.227 Q2071.75 245.227 2068.3 241.546 Q2064.85 237.866 2064.85 231.616 Q2064.85 225.273 2068.32 221.639 Q2071.82 218.005 2077.88 218.005 Q2079.85 218.005 2081.73 218.422 Q2083.6 218.815 2085.36 219.625 Z" fill="#000000" fill-rule="evenodd" fill-opacity="1" /><path clip-path="url(#clip390)" d="M 0 0 M2103.55 246.963 Q2101.75 251.593 2100.04 253.005 Q2098.32 254.417 2095.45 254.417 L2092.05 254.417 L2092.05 250.852 L2094.55 250.852 Q2096.31 250.852 2097.28 250.019 Q2098.25 249.185 2099.43 246.083 L2100.2 244.139 L2089.71 218.63 L2094.23 218.63 L2102.33 238.908 L2110.43 218.63 L2114.94 218.63 L2103.55 246.963 Z" fill="#000000" fill-rule="evenodd" fill-opacity="1" /><path clip-path="url(#clip390)" d="M 0 0 M2152.42 219.394 L2152.42 223.422 Q2150.61 222.496 2148.67 222.033 Q2146.72 221.57 2144.64 221.57 Q2141.47 221.57 2139.87 222.542 Q2138.3 223.514 2138.3 225.459 Q2138.3 226.94 2139.43 227.797 Q2140.57 228.63 2143.99 229.394 L2145.45 229.718 Q2149.99 230.69 2151.89 232.472 Q2153.81 234.232 2153.81 237.403 Q2153.81 241.014 2150.94 243.121 Q2148.09 245.227 2143.09 245.227 Q2141.01 245.227 2138.74 244.81 Q2136.49 244.417 2133.99 243.607 L2133.99 239.209 Q2136.35 240.435 2138.65 241.06 Q2140.94 241.662 2143.18 241.662 Q2146.19 241.662 2147.81 240.644 Q2149.43 239.602 2149.43 237.727 Q2149.43 235.991 2148.25 235.065 Q2147.1 234.139 2143.14 233.283 L2141.66 232.935 Q2137.7 232.102 2135.94 230.389 Q2134.18 228.653 2134.18 225.644 Q2134.18 221.986 2136.77 219.996 Q2139.36 218.005 2144.13 218.005 Q2146.49 218.005 2148.58 218.352 Q2150.66 218.699 2152.42 219.394 Z" fill="#000000" fill-rule="evenodd" fill-opacity="1" /><path clip-path="url(#clip390)" d="M 0 0 M2182.14 228.908 L2182.14 244.556 L2177.88 244.556 L2177.88 229.047 Q2177.88 225.366 2176.45 223.537 Q2175.01 221.709 2172.14 221.709 Q2168.69 221.709 2166.7 223.908 Q2164.71 226.107 2164.71 229.903 L2164.71 244.556 L2160.43 244.556 L2160.43 208.537 L2164.71 208.537 L2164.71 222.658 Q2166.24 220.32 2168.3 219.162 Q2170.38 218.005 2173.09 218.005 Q2177.56 218.005 2179.85 220.783 Q2182.14 223.537 2182.14 228.908 Z" fill="#000000" fill-rule="evenodd" fill-opacity="1" /><path clip-path="url(#clip390)" d="M 0 0 M2190.64 218.63 L2194.9 218.63 L2194.9 244.556 L2190.64 244.556 L2190.64 218.63 M2190.64 208.537 L2194.9 208.537 L2194.9 213.931 L2190.64 213.931 L2190.64 208.537 Z" fill="#000000" fill-rule="evenodd" fill-opacity="1" /><path clip-path="url(#clip390)" d="M 0 0 M2216.93 208.537 L2216.93 212.079 L2212.86 212.079 Q2210.57 212.079 2209.66 213.005 Q2208.78 213.931 2208.78 216.338 L2208.78 218.63 L2215.8 218.63 L2215.8 221.94 L2208.78 221.94 L2208.78 244.556 L2204.5 244.556 L2204.5 221.94 L2200.43 221.94 L2200.43 218.63 L2204.5 218.63 L2204.5 216.824 Q2204.5 212.496 2206.52 210.528 Q2208.53 208.537 2212.91 208.537 L2216.93 208.537 Z" fill="#000000" fill-rule="evenodd" fill-opacity="1" /><path clip-path="url(#clip390)" d="M 0 0 M2223.88 211.269 L2223.88 218.63 L2232.65 218.63 L2232.65 221.94 L2223.88 221.94 L2223.88 236.014 Q2223.88 239.185 2224.73 240.088 Q2225.61 240.991 2228.28 240.991 L2232.65 240.991 L2232.65 244.556 L2228.28 244.556 Q2223.34 244.556 2221.47 242.727 Q2219.59 240.875 2219.59 236.014 L2219.59 221.94 L2216.47 221.94 L2216.47 218.63 L2219.59 218.63 L2219.59 211.269 L2223.88 211.269 Z" fill="#000000" fill-rule="evenodd" fill-opacity="1" /></svg>
