<?xml version="1.0" encoding="utf-8"?>
<svg xmlns="http://www.w3.org/2000/svg" xmlns:xlink="http://www.w3.org/1999/xlink" width="600" height="400" viewBox="0 0 2400 1600">
<defs>
  <clipPath id="clip580">
    <rect x="0" y="0" width="2400" height="1600"/>
  </clipPath>
</defs>
<path clip-path="url(#clip580)" d="
M0 1600 L2400 1600 L2400 0 L0 0  Z
  " fill="#ffffff" fill-rule="evenodd" fill-opacity="1"/>
<defs>
  <clipPath id="clip581">
    <rect x="480" y="0" width="1681" height="1600"/>
  </clipPath>
</defs>
<defs>
  <clipPath id="clip582">
    <rect x="340" y="123" width="2013" height="1301"/>
  </clipPath>
</defs>
<path clip-path="url(#clip580)" d="
M255.437 1427.15 L2352.76 1427.15 L2352.76 123.472 L255.437 123.472  Z
  " fill="#ffffff" fill-rule="evenodd" fill-opacity="1"/>
<defs>
  <clipPath id="clip583">
    <rect x="255" y="123" width="2098" height="1305"/>
  </clipPath>
</defs>
<polyline clip-path="url(#clip583)" style="stroke:#000000; stroke-width:2; stroke-opacity:0.1; fill:none" points="
  314.795,1427.15 314.795,123.472 
  "/>
<polyline clip-path="url(#clip583)" style="stroke:#000000; stroke-width:2; stroke-opacity:0.1; fill:none" points="
  809.941,1427.15 809.941,123.472 
  "/>
<polyline clip-path="url(#clip583)" style="stroke:#000000; stroke-width:2; stroke-opacity:0.1; fill:none" points="
  1305.09,1427.15 1305.09,123.472 
  "/>
<polyline clip-path="url(#clip583)" style="stroke:#000000; stroke-width:2; stroke-opacity:0.1; fill:none" points="
  1800.23,1427.15 1800.23,123.472 
  "/>
<polyline clip-path="url(#clip583)" style="stroke:#000000; stroke-width:2; stroke-opacity:0.1; fill:none" points="
  2295.38,1427.15 2295.38,123.472 
  "/>
<polyline clip-path="url(#clip580)" style="stroke:#000000; stroke-width:4; stroke-opacity:1; fill:none" points="
  255.437,1427.15 2352.76,1427.15 
  "/>
<polyline clip-path="url(#clip580)" style="stroke:#000000; stroke-width:4; stroke-opacity:1; fill:none" points="
  314.795,1427.15 314.795,1411.5 
  "/>
<polyline clip-path="url(#clip580)" style="stroke:#000000; stroke-width:4; stroke-opacity:1; fill:none" points="
  809.941,1427.15 809.941,1411.5 
  "/>
<polyline clip-path="url(#clip580)" style="stroke:#000000; stroke-width:4; stroke-opacity:1; fill:none" points="
  1305.09,1427.15 1305.09,1411.5 
  "/>
<polyline clip-path="url(#clip580)" style="stroke:#000000; stroke-width:4; stroke-opacity:1; fill:none" points="
  1800.23,1427.15 1800.23,1411.5 
  "/>
<polyline clip-path="url(#clip580)" style="stroke:#000000; stroke-width:4; stroke-opacity:1; fill:none" points="
  2295.38,1427.15 2295.38,1411.5 
  "/>
<path clip-path="url(#clip580)" d="M 0 0 M292.179 1456.34 Q288.568 1456.34 286.739 1459.9 Q284.934 1463.44 284.934 1470.57 Q284.934 1477.68 286.739 1481.25 Q288.568 1484.79 292.179 1484.79 Q295.813 1484.79 297.619 1481.25 Q299.448 1477.68 299.448 1470.57 Q299.448 1463.44 297.619 1459.9 Q295.813 1456.34 292.179 1456.34 M292.179 1452.63 Q297.989 1452.63 301.045 1457.24 Q304.124 1461.82 304.124 1470.57 Q304.124 1479.3 301.045 1483.91 Q297.989 1488.49 292.179 1488.49 Q286.369 1488.49 283.29 1483.91 Q280.235 1479.3 280.235 1470.57 Q280.235 1461.82 283.29 1457.24 Q286.369 1452.63 292.179 1452.63 Z" fill="#000000" fill-rule="evenodd" fill-opacity="1" /><path clip-path="url(#clip580)" d="M 0 0 M312.341 1481.94 L317.225 1481.94 L317.225 1487.82 L312.341 1487.82 L312.341 1481.94 Z" fill="#000000" fill-rule="evenodd" fill-opacity="1" /><path clip-path="url(#clip580)" d="M 0 0 M337.41 1456.34 Q333.799 1456.34 331.971 1459.9 Q330.165 1463.44 330.165 1470.57 Q330.165 1477.68 331.971 1481.25 Q333.799 1484.79 337.41 1484.79 Q341.045 1484.79 342.85 1481.25 Q344.679 1477.68 344.679 1470.57 Q344.679 1463.44 342.85 1459.9 Q341.045 1456.34 337.41 1456.34 M337.41 1452.63 Q343.221 1452.63 346.276 1457.24 Q349.355 1461.82 349.355 1470.57 Q349.355 1479.3 346.276 1483.91 Q343.221 1488.49 337.41 1488.49 Q331.6 1488.49 328.522 1483.91 Q325.466 1479.3 325.466 1470.57 Q325.466 1461.82 328.522 1457.24 Q331.6 1452.63 337.41 1452.63 Z" fill="#000000" fill-rule="evenodd" fill-opacity="1" /><path clip-path="url(#clip580)" d="M 0 0 M781.677 1483.88 L797.996 1483.88 L797.996 1487.82 L776.052 1487.82 L776.052 1483.88 Q778.714 1481.13 783.297 1476.5 Q787.904 1471.85 789.084 1470.51 Q791.33 1467.98 792.209 1466.25 Q793.112 1464.49 793.112 1462.8 Q793.112 1460.04 791.168 1458.31 Q789.246 1456.57 786.145 1456.57 Q783.945 1456.57 781.492 1457.33 Q779.061 1458.1 776.283 1459.65 L776.283 1454.93 Q779.108 1453.79 781.561 1453.21 Q784.015 1452.63 786.052 1452.63 Q791.422 1452.63 794.617 1455.32 Q797.811 1458.01 797.811 1462.5 Q797.811 1464.63 797.001 1466.55 Q796.214 1468.44 794.107 1471.04 Q793.529 1471.71 790.427 1474.93 Q787.325 1478.12 781.677 1483.88 Z" fill="#000000" fill-rule="evenodd" fill-opacity="1" /><path clip-path="url(#clip580)" d="M 0 0 M807.811 1481.94 L812.695 1481.94 L812.695 1487.82 L807.811 1487.82 L807.811 1481.94 Z" fill="#000000" fill-rule="evenodd" fill-opacity="1" /><path clip-path="url(#clip580)" d="M 0 0 M822.927 1453.26 L841.283 1453.26 L841.283 1457.19 L827.209 1457.19 L827.209 1465.67 Q828.228 1465.32 829.246 1465.16 Q830.265 1464.97 831.283 1464.97 Q837.07 1464.97 840.45 1468.14 Q843.829 1471.32 843.829 1476.73 Q843.829 1482.31 840.357 1485.41 Q836.885 1488.49 830.566 1488.49 Q828.39 1488.49 826.121 1488.12 Q823.876 1487.75 821.468 1487.01 L821.468 1482.31 Q823.552 1483.44 825.774 1484 Q827.996 1484.56 830.473 1484.56 Q834.478 1484.56 836.816 1482.45 Q839.153 1480.34 839.153 1476.73 Q839.153 1473.12 836.816 1471.01 Q834.478 1468.91 830.473 1468.91 Q828.598 1468.91 826.723 1469.32 Q824.871 1469.74 822.927 1470.62 L822.927 1453.26 Z" fill="#000000" fill-rule="evenodd" fill-opacity="1" /><path clip-path="url(#clip580)" d="M 0 0 M1272.25 1453.26 L1290.61 1453.26 L1290.61 1457.19 L1276.53 1457.19 L1276.53 1465.67 Q1277.55 1465.32 1278.57 1465.16 Q1279.59 1464.97 1280.61 1464.97 Q1286.39 1464.97 1289.77 1468.14 Q1293.15 1471.32 1293.15 1476.73 Q1293.15 1482.31 1289.68 1485.41 Q1286.21 1488.49 1279.89 1488.49 Q1277.71 1488.49 1275.45 1488.12 Q1273.2 1487.75 1270.79 1487.01 L1270.79 1482.31 Q1272.88 1483.44 1275.1 1484 Q1277.32 1484.56 1279.8 1484.56 Q1283.8 1484.56 1286.14 1482.45 Q1288.48 1480.34 1288.48 1476.73 Q1288.48 1473.12 1286.14 1471.01 Q1283.8 1468.91 1279.8 1468.91 Q1277.92 1468.91 1276.05 1469.32 Q1274.2 1469.74 1272.25 1470.62 L1272.25 1453.26 Z" fill="#000000" fill-rule="evenodd" fill-opacity="1" /><path clip-path="url(#clip580)" d="M 0 0 M1302.37 1481.94 L1307.25 1481.94 L1307.25 1487.82 L1302.37 1487.82 L1302.37 1481.94 Z" fill="#000000" fill-rule="evenodd" fill-opacity="1" /><path clip-path="url(#clip580)" d="M 0 0 M1327.44 1456.34 Q1323.82 1456.34 1322 1459.9 Q1320.19 1463.44 1320.19 1470.57 Q1320.19 1477.68 1322 1481.25 Q1323.82 1484.79 1327.44 1484.79 Q1331.07 1484.79 1332.88 1481.25 Q1334.7 1477.68 1334.7 1470.57 Q1334.7 1463.44 1332.88 1459.9 Q1331.07 1456.34 1327.44 1456.34 M1327.44 1452.63 Q1333.25 1452.63 1336.3 1457.24 Q1339.38 1461.82 1339.38 1470.57 Q1339.38 1479.3 1336.3 1483.91 Q1333.25 1488.49 1327.44 1488.49 Q1321.63 1488.49 1318.55 1483.91 Q1315.49 1479.3 1315.49 1470.57 Q1315.49 1461.82 1318.55 1457.24 Q1321.63 1452.63 1327.44 1452.63 Z" fill="#000000" fill-rule="evenodd" fill-opacity="1" /><path clip-path="url(#clip580)" d="M 0 0 M1766.55 1453.26 L1788.77 1453.26 L1788.77 1455.25 L1776.23 1487.82 L1771.34 1487.82 L1783.15 1457.19 L1766.55 1457.19 L1766.55 1453.26 Z" fill="#000000" fill-rule="evenodd" fill-opacity="1" /><path clip-path="url(#clip580)" d="M 0 0 M1797.89 1481.94 L1802.78 1481.94 L1802.78 1487.82 L1797.89 1487.82 L1797.89 1481.94 Z" fill="#000000" fill-rule="evenodd" fill-opacity="1" /><path clip-path="url(#clip580)" d="M 0 0 M1813.01 1453.26 L1831.37 1453.26 L1831.37 1457.19 L1817.29 1457.19 L1817.29 1465.67 Q1818.31 1465.32 1819.33 1465.16 Q1820.35 1464.97 1821.37 1464.97 Q1827.15 1464.97 1830.53 1468.14 Q1833.91 1471.32 1833.91 1476.73 Q1833.91 1482.31 1830.44 1485.41 Q1826.97 1488.49 1820.65 1488.49 Q1818.47 1488.49 1816.2 1488.12 Q1813.96 1487.75 1811.55 1487.01 L1811.55 1482.31 Q1813.64 1483.44 1815.86 1484 Q1818.08 1484.56 1820.56 1484.56 Q1824.56 1484.56 1826.9 1482.45 Q1829.24 1480.34 1829.24 1476.73 Q1829.24 1473.12 1826.9 1471.01 Q1824.56 1468.91 1820.56 1468.91 Q1818.68 1468.91 1816.81 1469.32 Q1814.95 1469.74 1813.01 1470.62 L1813.01 1453.26 Z" fill="#000000" fill-rule="evenodd" fill-opacity="1" /><path clip-path="url(#clip580)" d="M 0 0 M2247.45 1483.88 L2255.09 1483.88 L2255.09 1457.52 L2246.78 1459.19 L2246.78 1454.93 L2255.04 1453.26 L2259.72 1453.26 L2259.72 1483.88 L2267.36 1483.88 L2267.36 1487.82 L2247.45 1487.82 L2247.45 1483.88 Z" fill="#000000" fill-rule="evenodd" fill-opacity="1" /><path clip-path="url(#clip580)" d="M 0 0 M2286.8 1456.34 Q2283.19 1456.34 2281.36 1459.9 Q2279.56 1463.44 2279.56 1470.57 Q2279.56 1477.68 2281.36 1481.25 Q2283.19 1484.79 2286.8 1484.79 Q2290.44 1484.79 2292.24 1481.25 Q2294.07 1477.68 2294.07 1470.57 Q2294.07 1463.44 2292.24 1459.9 Q2290.44 1456.34 2286.8 1456.34 M2286.8 1452.63 Q2292.61 1452.63 2295.67 1457.24 Q2298.75 1461.82 2298.75 1470.57 Q2298.75 1479.3 2295.67 1483.91 Q2292.61 1488.49 2286.8 1488.49 Q2280.99 1488.49 2277.91 1483.91 Q2274.86 1479.3 2274.86 1470.57 Q2274.86 1461.82 2277.91 1457.24 Q2280.99 1452.63 2286.8 1452.63 Z" fill="#000000" fill-rule="evenodd" fill-opacity="1" /><path clip-path="url(#clip580)" d="M 0 0 M2306.96 1481.94 L2311.85 1481.94 L2311.85 1487.82 L2306.96 1487.82 L2306.96 1481.94 Z" fill="#000000" fill-rule="evenodd" fill-opacity="1" /><path clip-path="url(#clip580)" d="M 0 0 M2332.03 1456.34 Q2328.42 1456.34 2326.59 1459.9 Q2324.79 1463.44 2324.79 1470.57 Q2324.79 1477.68 2326.59 1481.25 Q2328.42 1484.79 2332.03 1484.79 Q2335.67 1484.79 2337.47 1481.25 Q2339.3 1477.68 2339.3 1470.57 Q2339.3 1463.44 2337.47 1459.9 Q2335.67 1456.34 2332.03 1456.34 M2332.03 1452.63 Q2337.84 1452.63 2340.9 1457.24 Q2343.98 1461.82 2343.98 1470.57 Q2343.98 1479.3 2340.9 1483.91 Q2337.84 1488.49 2332.03 1488.49 Q2326.22 1488.49 2323.14 1483.91 Q2320.09 1479.3 2320.09 1470.57 Q2320.09 1461.82 2323.14 1457.24 Q2326.22 1452.63 2332.03 1452.63 Z" fill="#000000" fill-rule="evenodd" fill-opacity="1" /><path clip-path="url(#clip580)" d="M 0 0 M1254.62 1530.6 Q1254.62 1532.85 1251.37 1532.85 L1240.29 1532.85 L1235.88 1555.43 Q1235.78 1556.01 1235.65 1556.33 Q1235.56 1556.65 1235.27 1557.2 Q1235.01 1557.71 1234.46 1557.97 Q1233.95 1558.26 1233.17 1558.26 Q1232.21 1558.26 1231.73 1557.68 Q1231.27 1557.13 1231.27 1556.46 Q1231.27 1556.04 1231.92 1554.04 L1238.39 1532.85 L1232.92 1532.85 Q1227.76 1532.85 1224.54 1537.94 Q1224.03 1538.61 1223.74 1538.68 Q1223.61 1538.71 1223.48 1538.71 Q1223.13 1538.71 1222.9 1538.55 Q1222.71 1538.39 1222.71 1538.23 L1222.68 1538.07 Q1222.68 1537.84 1223.19 1536.94 Q1223.74 1536.01 1224.7 1534.62 Q1225.7 1533.24 1226.7 1532.14 Q1228.02 1530.72 1229.5 1529.98 Q1230.98 1529.21 1231.73 1529.11 Q1232.5 1529.02 1233.5 1529.02 L1251.98 1529.02 Q1252.82 1529.02 1253.27 1529.08 Q1253.72 1529.11 1254.17 1529.5 Q1254.62 1529.85 1254.62 1530.6 Z" fill="#000000" fill-rule="evenodd" fill-opacity="1" /><path clip-path="url(#clip580)" d="M 0 0 M1272.92 1540.97 Q1272.92 1529.82 1277.07 1520.84 Q1278.84 1517.07 1281.32 1513.91 Q1283.8 1510.76 1285.44 1509.37 Q1287.09 1507.99 1287.54 1507.99 Q1288.18 1507.99 1288.21 1508.63 Q1288.21 1508.95 1287.34 1509.76 Q1276.72 1520.58 1276.75 1540.97 Q1276.75 1561.42 1287.09 1571.82 Q1288.21 1572.95 1288.21 1573.3 Q1288.21 1573.94 1287.54 1573.94 Q1287.09 1573.94 1285.51 1572.62 Q1283.93 1571.3 1281.48 1568.28 Q1279.03 1565.25 1277.26 1561.55 Q1272.92 1552.56 1272.92 1540.97 Z" fill="#000000" fill-rule="evenodd" fill-opacity="1" /><path clip-path="url(#clip580)" d="M 0 0 M1298.24 1557.45 L1298.24 1555.43 Q1301.75 1555.43 1302.56 1555.01 Q1303.36 1554.56 1303.36 1552.43 L1303.36 1534.75 Q1303.36 1532.3 1302.49 1531.69 Q1301.66 1531.08 1298.24 1531.08 L1298.24 1529.02 L1307.52 1528.31 L1307.52 1535.23 Q1310.61 1528.31 1317.28 1528.31 Q1322.24 1528.31 1324.2 1530.76 Q1325.65 1532.4 1325.94 1534.23 Q1326.26 1536.07 1326.26 1540.84 L1326.26 1553.43 Q1326.33 1554.81 1327.39 1555.14 Q1328.45 1555.43 1331.41 1555.43 L1331.41 1557.45 Q1324.68 1557.26 1324.01 1557.26 Q1323.49 1557.26 1316.57 1557.45 L1316.57 1555.43 Q1320.08 1555.43 1320.88 1555.01 Q1321.72 1554.56 1321.72 1552.43 L1321.72 1537.07 Q1321.72 1533.72 1320.69 1531.75 Q1319.66 1529.76 1316.83 1529.76 Q1313.41 1529.76 1310.67 1532.62 Q1307.94 1535.49 1307.94 1540.32 L1307.94 1552.43 Q1307.94 1554.56 1308.74 1555.01 Q1309.58 1555.43 1313.06 1555.43 L1313.06 1557.45 Q1306.33 1557.26 1305.68 1557.26 Q1305.17 1557.26 1298.24 1557.45 Z" fill="#000000" fill-rule="evenodd" fill-opacity="1" /><path clip-path="url(#clip580)" d="M 0 0 M1334.48 1556.59 L1334.48 1547.89 Q1334.48 1547.15 1334.51 1546.89 Q1334.54 1546.63 1334.74 1546.44 Q1334.93 1546.25 1335.32 1546.25 Q1335.77 1546.25 1335.93 1546.44 Q1336.12 1546.63 1336.25 1547.37 Q1337.25 1551.92 1339.37 1554.33 Q1341.53 1556.71 1345.43 1556.71 Q1349.13 1556.71 1351 1555.07 Q1352.87 1553.43 1352.87 1550.72 Q1352.87 1545.89 1346.01 1544.67 Q1342.05 1543.86 1340.41 1543.35 Q1338.76 1542.8 1337.31 1541.61 Q1334.48 1539.29 1334.48 1536.01 Q1334.48 1532.72 1336.96 1530.31 Q1339.47 1527.89 1345.01 1527.89 Q1348.71 1527.89 1351.23 1529.76 Q1351.97 1529.18 1352.35 1528.7 Q1353.22 1527.89 1353.67 1527.89 Q1354.19 1527.89 1354.29 1528.24 Q1354.38 1528.57 1354.38 1529.5 L1354.38 1536.13 Q1354.38 1536.88 1354.35 1537.13 Q1354.32 1537.39 1354.13 1537.58 Q1353.93 1537.74 1353.51 1537.74 Q1352.77 1537.74 1352.74 1537.13 Q1352.23 1529.15 1345.01 1529.15 Q1341.11 1529.15 1339.37 1530.66 Q1337.64 1532.14 1337.64 1534.17 Q1337.64 1535.3 1338.15 1536.17 Q1338.7 1537 1339.37 1537.52 Q1340.08 1538 1341.37 1538.49 Q1342.66 1538.94 1343.43 1539.1 Q1344.24 1539.26 1345.75 1539.58 Q1351.03 1540.58 1353.26 1542.74 Q1356.03 1545.51 1356.03 1549.02 Q1356.03 1552.91 1353.38 1555.55 Q1350.74 1558.2 1345.43 1558.2 Q1341.15 1558.2 1338.15 1555.33 Q1337.76 1555.72 1337.47 1556.07 Q1337.18 1556.39 1337.06 1556.52 Q1336.96 1556.65 1336.93 1556.75 Q1336.9 1556.81 1336.83 1556.88 Q1335.51 1558.2 1335.19 1558.2 Q1334.67 1558.2 1334.58 1557.84 Q1334.48 1557.52 1334.48 1556.59 Z" fill="#000000" fill-rule="evenodd" fill-opacity="1" /><path clip-path="url(#clip580)" d="M 0 0 M1360.19 1573.3 Q1360.19 1572.98 1361.03 1572.17 Q1371.66 1561.35 1371.66 1540.97 Q1371.66 1520.51 1361.45 1510.18 Q1360.19 1508.99 1360.19 1508.63 Q1360.19 1507.99 1360.83 1507.99 Q1361.28 1507.99 1362.86 1509.31 Q1364.47 1510.63 1366.89 1513.65 Q1369.34 1516.68 1371.14 1520.39 Q1375.49 1529.37 1375.49 1540.97 Q1375.49 1552.11 1371.33 1561.09 Q1369.56 1564.86 1367.08 1568.02 Q1364.6 1571.17 1362.96 1572.56 Q1361.32 1573.94 1360.83 1573.94 Q1360.19 1573.94 1360.19 1573.3 Z" fill="#000000" fill-rule="evenodd" fill-opacity="1" /><polyline clip-path="url(#clip583)" style="stroke:#000000; stroke-width:2; stroke-opacity:0.1; fill:none" points="
  255.437,1259.27 2352.76,1259.27 
  "/>
<polyline clip-path="url(#clip583)" style="stroke:#000000; stroke-width:2; stroke-opacity:0.1; fill:none" points="
  255.437,977.115 2352.76,977.115 
  "/>
<polyline clip-path="url(#clip583)" style="stroke:#000000; stroke-width:2; stroke-opacity:0.1; fill:none" points="
  255.437,694.964 2352.76,694.964 
  "/>
<polyline clip-path="url(#clip583)" style="stroke:#000000; stroke-width:2; stroke-opacity:0.1; fill:none" points="
  255.437,412.812 2352.76,412.812 
  "/>
<polyline clip-path="url(#clip583)" style="stroke:#000000; stroke-width:2; stroke-opacity:0.1; fill:none" points="
  255.437,130.661 2352.76,130.661 
  "/>
<polyline clip-path="url(#clip580)" style="stroke:#000000; stroke-width:4; stroke-opacity:1; fill:none" points="
  255.437,1427.15 255.437,123.472 
  "/>
<polyline clip-path="url(#clip580)" style="stroke:#000000; stroke-width:4; stroke-opacity:1; fill:none" points="
  255.437,1259.27 280.605,1259.27 
  "/>
<polyline clip-path="url(#clip580)" style="stroke:#000000; stroke-width:4; stroke-opacity:1; fill:none" points="
  255.437,977.115 280.605,977.115 
  "/>
<polyline clip-path="url(#clip580)" style="stroke:#000000; stroke-width:4; stroke-opacity:1; fill:none" points="
  255.437,694.964 280.605,694.964 
  "/>
<polyline clip-path="url(#clip580)" style="stroke:#000000; stroke-width:4; stroke-opacity:1; fill:none" points="
  255.437,412.812 280.605,412.812 
  "/>
<polyline clip-path="url(#clip580)" style="stroke:#000000; stroke-width:4; stroke-opacity:1; fill:none" points="
  255.437,130.661 280.605,130.661 
  "/>
<path clip-path="url(#clip580)" d="M 0 0 M122.909 1272.61 L130.548 1272.61 L130.548 1246.25 L122.238 1247.91 L122.238 1243.65 L130.502 1241.99 L135.178 1241.99 L135.178 1272.61 L142.817 1272.61 L142.817 1276.55 L122.909 1276.55 L122.909 1272.61 Z" fill="#000000" fill-rule="evenodd" fill-opacity="1" /><path clip-path="url(#clip580)" d="M 0 0 M152.261 1270.67 L157.145 1270.67 L157.145 1276.55 L152.261 1276.55 L152.261 1270.67 Z" fill="#000000" fill-rule="evenodd" fill-opacity="1" /><path clip-path="url(#clip580)" d="M 0 0 M177.33 1245.06 Q173.719 1245.06 171.891 1248.63 Q170.085 1252.17 170.085 1259.3 Q170.085 1266.41 171.891 1269.97 Q173.719 1273.51 177.33 1273.51 Q180.965 1273.51 182.77 1269.97 Q184.599 1266.41 184.599 1259.3 Q184.599 1252.17 182.77 1248.63 Q180.965 1245.06 177.33 1245.06 M177.33 1241.36 Q183.141 1241.36 186.196 1245.97 Q189.275 1250.55 189.275 1259.3 Q189.275 1268.03 186.196 1272.63 Q183.141 1277.22 177.33 1277.22 Q171.52 1277.22 168.442 1272.63 Q165.386 1268.03 165.386 1259.3 Q165.386 1250.55 168.442 1245.97 Q171.52 1241.36 177.33 1241.36 Z" fill="#000000" fill-rule="evenodd" fill-opacity="1" /><path clip-path="url(#clip580)" d="M 0 0 M207.492 1245.06 Q203.881 1245.06 202.053 1248.63 Q200.247 1252.17 200.247 1259.3 Q200.247 1266.41 202.053 1269.97 Q203.881 1273.51 207.492 1273.51 Q211.127 1273.51 212.932 1269.97 Q214.761 1266.41 214.761 1259.3 Q214.761 1252.17 212.932 1248.63 Q211.127 1245.06 207.492 1245.06 M207.492 1241.36 Q213.302 1241.36 216.358 1245.97 Q219.437 1250.55 219.437 1259.3 Q219.437 1268.03 216.358 1272.63 Q213.302 1277.22 207.492 1277.22 Q201.682 1277.22 198.603 1272.63 Q195.548 1268.03 195.548 1259.3 Q195.548 1250.55 198.603 1245.97 Q201.682 1241.36 207.492 1241.36 Z" fill="#000000" fill-rule="evenodd" fill-opacity="1" /><path clip-path="url(#clip580)" d="M 0 0 M123.905 990.46 L131.544 990.46 L131.544 964.094 L123.233 965.761 L123.233 961.502 L131.497 959.835 L136.173 959.835 L136.173 990.46 L143.812 990.46 L143.812 994.395 L123.905 994.395 L123.905 990.46 Z" fill="#000000" fill-rule="evenodd" fill-opacity="1" /><path clip-path="url(#clip580)" d="M 0 0 M153.256 988.515 L158.141 988.515 L158.141 994.395 L153.256 994.395 L153.256 988.515 Z" fill="#000000" fill-rule="evenodd" fill-opacity="1" /><path clip-path="url(#clip580)" d="M 0 0 M172.354 990.46 L188.673 990.46 L188.673 994.395 L166.729 994.395 L166.729 990.46 Q169.391 987.705 173.974 983.075 Q178.58 978.423 179.761 977.08 Q182.006 974.557 182.886 972.821 Q183.789 971.062 183.789 969.372 Q183.789 966.617 181.844 964.881 Q179.923 963.145 176.821 963.145 Q174.622 963.145 172.168 963.909 Q169.738 964.673 166.96 966.224 L166.96 961.502 Q169.784 960.367 172.238 959.789 Q174.692 959.21 176.729 959.21 Q182.099 959.21 185.293 961.895 Q188.488 964.58 188.488 969.071 Q188.488 971.201 187.678 973.122 Q186.891 975.02 184.784 977.613 Q184.205 978.284 181.104 981.501 Q178.002 984.696 172.354 990.46 Z" fill="#000000" fill-rule="evenodd" fill-opacity="1" /><path clip-path="url(#clip580)" d="M 0 0 M198.534 959.835 L216.89 959.835 L216.89 963.77 L202.816 963.77 L202.816 972.242 Q203.835 971.895 204.853 971.733 Q205.872 971.548 206.89 971.548 Q212.677 971.548 216.057 974.719 Q219.437 977.89 219.437 983.307 Q219.437 988.886 215.964 991.987 Q212.492 995.066 206.173 995.066 Q203.997 995.066 201.728 994.696 Q199.483 994.325 197.076 993.585 L197.076 988.886 Q199.159 990.02 201.381 990.575 Q203.603 991.131 206.08 991.131 Q210.085 991.131 212.423 989.025 Q214.761 986.918 214.761 983.307 Q214.761 979.696 212.423 977.589 Q210.085 975.483 206.08 975.483 Q204.205 975.483 202.33 975.9 Q200.478 976.316 198.534 977.196 L198.534 959.835 Z" fill="#000000" fill-rule="evenodd" fill-opacity="1" /><path clip-path="url(#clip580)" d="M 0 0 M122.909 708.308 L130.548 708.308 L130.548 681.943 L122.238 683.609 L122.238 679.35 L130.502 677.684 L135.178 677.684 L135.178 708.308 L142.817 708.308 L142.817 712.244 L122.909 712.244 L122.909 708.308 Z" fill="#000000" fill-rule="evenodd" fill-opacity="1" /><path clip-path="url(#clip580)" d="M 0 0 M152.261 706.364 L157.145 706.364 L157.145 712.244 L152.261 712.244 L152.261 706.364 Z" fill="#000000" fill-rule="evenodd" fill-opacity="1" /><path clip-path="url(#clip580)" d="M 0 0 M167.377 677.684 L185.733 677.684 L185.733 681.619 L171.659 681.619 L171.659 690.091 Q172.678 689.744 173.696 689.582 Q174.715 689.396 175.733 689.396 Q181.52 689.396 184.9 692.568 Q188.279 695.739 188.279 701.156 Q188.279 706.734 184.807 709.836 Q181.335 712.915 175.016 712.915 Q172.84 712.915 170.571 712.545 Q168.326 712.174 165.918 711.433 L165.918 706.734 Q168.002 707.869 170.224 708.424 Q172.446 708.98 174.923 708.98 Q178.928 708.98 181.266 706.873 Q183.604 704.767 183.604 701.156 Q183.604 697.545 181.266 695.438 Q178.928 693.332 174.923 693.332 Q173.048 693.332 171.173 693.748 Q169.321 694.165 167.377 695.045 L167.377 677.684 Z" fill="#000000" fill-rule="evenodd" fill-opacity="1" /><path clip-path="url(#clip580)" d="M 0 0 M207.492 680.762 Q203.881 680.762 202.053 684.327 Q200.247 687.869 200.247 694.998 Q200.247 702.105 202.053 705.67 Q203.881 709.211 207.492 709.211 Q211.127 709.211 212.932 705.67 Q214.761 702.105 214.761 694.998 Q214.761 687.869 212.932 684.327 Q211.127 680.762 207.492 680.762 M207.492 677.059 Q213.302 677.059 216.358 681.665 Q219.437 686.248 219.437 694.998 Q219.437 703.725 216.358 708.332 Q213.302 712.915 207.492 712.915 Q201.682 712.915 198.603 708.332 Q195.548 703.725 195.548 694.998 Q195.548 686.248 198.603 681.665 Q201.682 677.059 207.492 677.059 Z" fill="#000000" fill-rule="evenodd" fill-opacity="1" /><path clip-path="url(#clip580)" d="M 0 0 M123.905 426.157 L131.544 426.157 L131.544 399.792 L123.233 401.458 L123.233 397.199 L131.497 395.532 L136.173 395.532 L136.173 426.157 L143.812 426.157 L143.812 430.092 L123.905 430.092 L123.905 426.157 Z" fill="#000000" fill-rule="evenodd" fill-opacity="1" /><path clip-path="url(#clip580)" d="M 0 0 M153.256 424.213 L158.141 424.213 L158.141 430.092 L153.256 430.092 L153.256 424.213 Z" fill="#000000" fill-rule="evenodd" fill-opacity="1" /><path clip-path="url(#clip580)" d="M 0 0 M167.145 395.532 L189.367 395.532 L189.367 397.523 L176.821 430.092 L171.937 430.092 L183.742 399.467 L167.145 399.467 L167.145 395.532 Z" fill="#000000" fill-rule="evenodd" fill-opacity="1" /><path clip-path="url(#clip580)" d="M 0 0 M198.534 395.532 L216.89 395.532 L216.89 399.467 L202.816 399.467 L202.816 407.94 Q203.835 407.592 204.853 407.43 Q205.872 407.245 206.89 407.245 Q212.677 407.245 216.057 410.416 Q219.437 413.588 219.437 419.004 Q219.437 424.583 215.964 427.685 Q212.492 430.764 206.173 430.764 Q203.997 430.764 201.728 430.393 Q199.483 430.023 197.076 429.282 L197.076 424.583 Q199.159 425.717 201.381 426.273 Q203.603 426.828 206.08 426.828 Q210.085 426.828 212.423 424.722 Q214.761 422.615 214.761 419.004 Q214.761 415.393 212.423 413.287 Q210.085 411.18 206.08 411.18 Q204.205 411.18 202.33 411.597 Q200.478 412.014 198.534 412.893 L198.534 395.532 Z" fill="#000000" fill-rule="evenodd" fill-opacity="1" /><path clip-path="url(#clip580)" d="M 0 0 M126.127 144.006 L142.446 144.006 L142.446 147.941 L120.502 147.941 L120.502 144.006 Q123.164 141.251 127.747 136.622 Q132.354 131.969 133.534 130.626 Q135.78 128.103 136.659 126.367 Q137.562 124.608 137.562 122.918 Q137.562 120.163 135.618 118.427 Q133.696 116.691 130.595 116.691 Q128.396 116.691 125.942 117.455 Q123.511 118.219 120.734 119.77 L120.734 115.048 Q123.558 113.913 126.011 113.335 Q128.465 112.756 130.502 112.756 Q135.872 112.756 139.067 115.441 Q142.261 118.126 142.261 122.617 Q142.261 124.747 141.451 126.668 Q140.664 128.566 138.557 131.159 Q137.979 131.83 134.877 135.048 Q131.775 138.242 126.127 144.006 Z" fill="#000000" fill-rule="evenodd" fill-opacity="1" /><path clip-path="url(#clip580)" d="M 0 0 M152.261 142.061 L157.145 142.061 L157.145 147.941 L152.261 147.941 L152.261 142.061 Z" fill="#000000" fill-rule="evenodd" fill-opacity="1" /><path clip-path="url(#clip580)" d="M 0 0 M177.33 116.46 Q173.719 116.46 171.891 120.025 Q170.085 123.566 170.085 130.696 Q170.085 137.802 171.891 141.367 Q173.719 144.909 177.33 144.909 Q180.965 144.909 182.77 141.367 Q184.599 137.802 184.599 130.696 Q184.599 123.566 182.77 120.025 Q180.965 116.46 177.33 116.46 M177.33 112.756 Q183.141 112.756 186.196 117.362 Q189.275 121.946 189.275 130.696 Q189.275 139.423 186.196 144.029 Q183.141 148.612 177.33 148.612 Q171.52 148.612 168.442 144.029 Q165.386 139.423 165.386 130.696 Q165.386 121.946 168.442 117.362 Q171.52 112.756 177.33 112.756 Z" fill="#000000" fill-rule="evenodd" fill-opacity="1" /><path clip-path="url(#clip580)" d="M 0 0 M207.492 116.46 Q203.881 116.46 202.053 120.025 Q200.247 123.566 200.247 130.696 Q200.247 137.802 202.053 141.367 Q203.881 144.909 207.492 144.909 Q211.127 144.909 212.932 141.367 Q214.761 137.802 214.761 130.696 Q214.761 123.566 212.932 120.025 Q211.127 116.46 207.492 116.46 M207.492 112.756 Q213.302 112.756 216.358 117.362 Q219.437 121.946 219.437 130.696 Q219.437 139.423 216.358 144.029 Q213.302 148.612 207.492 148.612 Q201.682 148.612 198.603 144.029 Q195.548 139.423 195.548 130.696 Q195.548 121.946 198.603 117.362 Q201.682 112.756 207.492 112.756 Z" fill="#000000" fill-rule="evenodd" fill-opacity="1" /><path clip-path="url(#clip580)" d="M 0 0 M50.1836 835.816 Q50.2159 835.816 51.3753 836.009 L80.6504 843.352 Q82.1963 843.739 83.7422 844.834 Q85.3202 845.897 86.6729 847.604 Q88.0577 849.278 88.8951 851.855 Q89.7647 854.399 89.7647 857.33 Q89.7647 862 88.7663 864.061 Q87.8001 866.09 85.7389 866.09 Q83.9354 866.09 82.9048 864.963 Q81.9064 863.835 81.9064 862.547 Q81.9064 861.323 82.6149 860.679 Q83.3235 860.035 84.2252 860.035 Q85.2236 860.035 86.222 860.711 Q87.2526 861.388 87.6391 862.74 Q88.3154 860.583 88.3154 857.459 Q88.3154 850.856 81.3267 848.022 Q81.2301 847.958 81.1979 847.958 L72.4701 845.768 L72.4057 845.864 Q73.0498 846.412 73.7905 847.282 Q74.4991 848.119 75.3686 849.922 Q76.2382 851.726 76.2382 853.497 Q76.2382 857.201 73.4041 859.745 Q70.5378 862.257 65.8035 862.257 Q62.3575 862.257 58.9114 860.872 Q55.4332 859.455 52.8889 857.265 Q50.3125 855.043 48.7022 852.209 Q47.0919 849.343 47.0919 846.573 Q47.0919 844.641 48.2513 842.998 Q49.3785 841.356 51.2464 840.454 Q49.7006 840.293 49.0564 839.423 Q48.4123 838.522 48.4123 837.749 Q48.4123 836.879 48.8954 836.364 Q49.3463 835.816 50.1836 835.816 M54.2094 841.227 Q54.0161 841.227 53.5009 841.356 Q52.9534 841.484 52.0838 841.871 Q51.2142 842.225 50.4413 842.773 Q49.6684 843.32 49.1209 844.319 Q48.5411 845.285 48.5411 846.509 Q48.5411 848.505 50.2159 850.502 Q51.8584 852.499 54.4026 853.884 Q56.8503 855.172 61.5845 856.396 Q66.3188 857.587 68.7342 857.587 Q71.1175 857.587 72.9532 856.557 Q74.7889 855.526 74.7889 853.304 Q74.7889 850.728 72.4057 847.958 Q69.9258 845.092 67.8003 844.608 L55.2078 841.42 Q54.4348 841.227 54.2094 841.227 Z" fill="#000000" fill-rule="evenodd" fill-opacity="1" /><path clip-path="url(#clip580)" d="M 0 0 M34.6809 829.065 Q26.8807 829.065 20.5909 826.157 Q17.9532 824.917 15.7439 823.181 Q13.5346 821.445 12.5652 820.296 Q11.5958 819.146 11.5958 818.83 Q11.5958 818.379 12.0466 818.357 Q12.2721 818.357 12.8357 818.966 Q20.4105 826.405 34.6809 826.383 Q48.9964 826.383 56.2782 819.146 Q57.0672 818.357 57.3152 818.357 Q57.7661 818.357 57.7661 818.83 Q57.7661 819.146 56.8418 820.251 Q55.9175 821.355 53.7983 823.069 Q51.6792 824.782 49.0866 826.022 Q42.7968 829.065 34.6809 829.065 Z" fill="#000000" fill-rule="evenodd" fill-opacity="1" /><path clip-path="url(#clip580)" d="M 0 0 M46.2235 811.336 Q45.3894 811.336 45.1414 811.269 Q44.8934 811.178 44.5101 810.818 L34.6358 801.958 Q29.1802 797.111 24.4234 797.111 Q21.3348 797.111 19.1255 798.734 Q16.9162 800.335 16.9162 803.288 Q16.9162 805.317 18.1561 807.03 Q19.396 808.744 21.6053 809.533 Q21.5603 809.397 21.5603 808.924 Q21.5603 807.774 22.2817 807.143 Q23.0031 806.489 23.9725 806.489 Q25.2124 806.489 25.8211 807.301 Q26.4072 808.09 26.4072 808.879 Q26.4072 809.195 26.3396 809.623 Q26.272 810.029 25.6407 810.682 Q24.987 811.336 23.8372 811.336 Q20.6134 811.336 18.0434 808.901 Q15.4733 806.444 15.4733 802.702 Q15.4733 798.464 17.9983 795.691 Q20.5007 792.895 24.4234 792.895 Q25.7985 792.895 27.061 793.323 Q28.3009 793.729 29.2703 794.293 Q30.2397 794.834 31.7953 796.322 Q33.3508 797.81 34.4555 799.005 Q35.5601 800.199 37.9047 802.882 L42.6615 807.774 L42.6615 799.455 Q42.6615 795.398 42.3008 795.082 Q41.647 794.631 38.1978 794.067 L38.1978 792.895 L46.2235 794.203 L46.2235 811.336 Z" fill="#000000" fill-rule="evenodd" fill-opacity="1" /><path clip-path="url(#clip580)" d="M 0 0 M57.3152 788.471 Q57.0898 788.471 56.5262 787.885 Q48.9513 780.446 34.6809 780.446 Q20.3654 780.446 13.1288 787.592 Q12.2946 788.471 12.0466 788.471 Q11.5958 788.471 11.5958 788.02 Q11.5958 787.705 12.5201 786.6 Q13.4444 785.473 15.5635 783.782 Q17.6827 782.069 20.2752 780.806 Q26.565 777.763 34.6809 777.763 Q42.4812 777.763 48.771 780.671 Q51.4086 781.911 53.618 783.647 Q55.8273 785.383 56.7967 786.533 Q57.7661 787.682 57.7661 788.02 Q57.7661 788.471 57.3152 788.471 Z" fill="#000000" fill-rule="evenodd" fill-opacity="1" /><path clip-path="url(#clip580)" d="M 0 0 M59.7488 763.702 Q48.6056 763.702 39.6201 759.548 Q35.852 757.776 32.6959 755.296 Q29.5397 752.817 28.1548 751.174 Q26.77 749.532 26.77 749.081 Q26.77 748.437 27.4141 748.404 Q27.7362 748.404 28.5413 749.274 Q39.3625 759.902 59.7488 759.87 Q80.1995 759.87 90.602 749.532 Q91.7292 748.404 92.0835 748.404 Q92.7276 748.404 92.7276 749.081 Q92.7276 749.532 91.4071 751.11 Q90.0867 752.688 87.0594 755.135 Q84.032 757.583 80.3283 759.354 Q71.3429 763.702 59.7488 763.702 Z" fill="#000000" fill-rule="evenodd" fill-opacity="1" /><path clip-path="url(#clip580)" d="M 0 0 M49.3785 706.427 Q51.6329 706.427 51.6329 709.679 L51.6329 720.758 L74.2092 725.17 Q74.7889 725.267 75.111 725.396 Q75.433 725.492 75.9805 725.782 Q76.4958 726.04 76.7535 726.587 Q77.0433 727.103 77.0433 727.876 Q77.0433 728.842 76.4636 729.325 Q75.9161 729.776 75.2398 729.776 Q74.8211 729.776 72.8244 729.132 L51.6329 722.658 L51.6329 728.133 Q51.6329 733.286 56.7214 736.507 Q57.3978 737.022 57.4622 737.312 Q57.4944 737.441 57.4944 737.57 Q57.4944 737.924 57.3333 738.149 Q57.1723 738.343 57.0113 738.343 L56.8503 738.375 Q56.6248 738.375 55.7231 737.859 Q54.7891 737.312 53.4042 736.346 Q52.0194 735.347 50.9244 734.349 Q49.5073 733.029 48.7666 731.547 Q47.9936 730.066 47.897 729.325 Q47.8004 728.552 47.8004 727.554 L47.8004 709.067 Q47.8004 708.23 47.8648 707.779 Q47.897 707.328 48.2835 706.877 Q48.6378 706.427 49.3785 706.427 Z" fill="#000000" fill-rule="evenodd" fill-opacity="1" /><path clip-path="url(#clip580)" d="M 0 0 M92.0835 709.858 Q91.7614 709.858 90.9563 709.02 Q80.1351 698.392 59.7488 698.392 Q39.2981 698.392 28.96 708.601 Q27.7684 709.858 27.4141 709.858 Q26.77 709.858 26.77 709.213 Q26.77 708.763 28.0904 707.184 Q29.4109 705.574 32.4382 703.159 Q35.4656 700.711 39.1692 698.908 Q48.1547 694.56 59.7488 694.56 Q70.892 694.56 79.8775 698.714 Q83.6455 700.486 86.8017 702.965 Q89.9579 705.445 91.3427 707.088 Q92.7276 708.73 92.7276 709.213 Q92.7276 709.858 92.0835 709.858 Z" fill="#000000" fill-rule="evenodd" fill-opacity="1" /><path clip-path="url(#clip580)" d="M 0 0 M596.707 18.8205 L596.707 41.5461 L606.996 41.5461 Q612.708 41.5461 615.827 38.5889 Q618.947 35.6318 618.947 30.163 Q618.947 24.7348 615.827 21.7777 Q612.708 18.8205 606.996 18.8205 L596.707 18.8205 M588.524 12.096 L606.996 12.096 Q617.164 12.096 622.349 16.714 Q627.575 21.2916 627.575 30.163 Q627.575 39.1155 622.349 43.6931 Q617.164 48.2706 606.996 48.2706 L596.707 48.2706 L596.707 72.576 L588.524 72.576 L588.524 12.096 Z" fill="#000000" fill-rule="evenodd" fill-opacity="1" /><path clip-path="url(#clip580)" d="M 0 0 M675.943 45.1919 L675.943 72.576 L668.489 72.576 L668.489 45.4349 Q668.489 38.994 665.978 35.7938 Q663.466 32.5936 658.443 32.5936 Q652.407 32.5936 648.923 36.4419 Q645.44 40.2903 645.44 46.9338 L645.44 72.576 L637.945 72.576 L637.945 9.54393 L645.44 9.54393 L645.44 34.2544 Q648.113 30.163 651.718 28.1376 Q655.364 26.1121 660.104 26.1121 Q667.922 26.1121 671.932 30.9732 Q675.943 35.7938 675.943 45.1919 Z" fill="#000000" fill-rule="evenodd" fill-opacity="1" /><path clip-path="url(#clip580)" d="M 0 0 M708.391 32.4315 Q702.395 32.4315 698.911 37.1306 Q695.428 41.7891 695.428 49.9314 Q695.428 58.0738 698.871 62.7728 Q702.355 67.4314 708.391 67.4314 Q714.345 67.4314 717.829 62.7323 Q721.313 58.0333 721.313 49.9314 Q721.313 41.8701 717.829 37.1711 Q714.345 32.4315 708.391 32.4315 M708.391 26.1121 Q718.113 26.1121 723.662 32.4315 Q729.212 38.7509 729.212 49.9314 Q729.212 61.0714 723.662 67.4314 Q718.113 73.7508 708.391 73.7508 Q698.628 73.7508 693.078 67.4314 Q687.569 61.0714 687.569 49.9314 Q687.569 38.7509 693.078 32.4315 Q698.628 26.1121 708.391 26.1121 Z" fill="#000000" fill-rule="evenodd" fill-opacity="1" /><path clip-path="url(#clip580)" d="M 0 0 M748.94 14.324 L748.94 27.2059 L764.293 27.2059 L764.293 32.9987 L748.94 32.9987 L748.94 57.6282 Q748.94 63.1779 750.439 64.7578 Q751.978 66.3376 756.637 66.3376 L764.293 66.3376 L764.293 72.576 L756.637 72.576 Q748.008 72.576 744.727 69.3758 Q741.446 66.1351 741.446 57.6282 L741.446 32.9987 L735.977 32.9987 L735.977 27.2059 L741.446 27.2059 L741.446 14.324 L748.94 14.324 Z" fill="#000000" fill-rule="evenodd" fill-opacity="1" /><path clip-path="url(#clip580)" d="M 0 0 M791.677 32.4315 Q785.682 32.4315 782.198 37.1306 Q778.714 41.7891 778.714 49.9314 Q778.714 58.0738 782.158 62.7728 Q785.641 67.4314 791.677 67.4314 Q797.632 67.4314 801.116 62.7323 Q804.6 58.0333 804.6 49.9314 Q804.6 41.8701 801.116 37.1711 Q797.632 32.4315 791.677 32.4315 M791.677 26.1121 Q801.399 26.1121 806.949 32.4315 Q812.499 38.7509 812.499 49.9314 Q812.499 61.0714 806.949 67.4314 Q801.399 73.7508 791.677 73.7508 Q781.914 73.7508 776.365 67.4314 Q770.856 61.0714 770.856 49.9314 Q770.856 38.7509 776.365 32.4315 Q781.914 26.1121 791.677 26.1121 Z" fill="#000000" fill-rule="evenodd" fill-opacity="1" /><path clip-path="url(#clip580)" d="M 0 0 M862.568 45.1919 L862.568 72.576 L855.114 72.576 L855.114 45.4349 Q855.114 38.994 852.603 35.7938 Q850.091 32.5936 845.068 32.5936 Q839.032 32.5936 835.548 36.4419 Q832.065 40.2903 832.065 46.9338 L832.065 72.576 L824.571 72.576 L824.571 27.2059 L832.065 27.2059 L832.065 34.2544 Q834.738 30.163 838.344 28.1376 Q841.989 26.1121 846.729 26.1121 Q854.547 26.1121 858.558 30.9732 Q862.568 35.7938 862.568 45.1919 Z" fill="#000000" fill-rule="evenodd" fill-opacity="1" /><path clip-path="url(#clip580)" d="M 0 0 M949.419 16.7545 L949.419 25.383 Q945.287 21.5346 940.588 19.6307 Q935.93 17.7268 930.664 17.7268 Q920.293 17.7268 914.784 24.0867 Q909.275 30.4061 909.275 42.3968 Q909.275 54.3469 914.784 60.7069 Q920.293 67.0263 930.664 67.0263 Q935.93 67.0263 940.588 65.1223 Q945.287 63.2184 949.419 59.3701 L949.419 67.9175 Q945.125 70.8341 940.305 72.2924 Q935.525 73.7508 930.178 73.7508 Q916.445 73.7508 908.546 65.3654 Q900.646 56.9395 900.646 42.3968 Q900.646 27.8135 908.546 19.4281 Q916.445 11.0023 930.178 11.0023 Q935.606 11.0023 940.386 12.4606 Q945.206 13.8784 949.419 16.7545 Z" fill="#000000" fill-rule="evenodd" fill-opacity="1" /><path clip-path="url(#clip580)" d="M 0 0 M979.315 32.4315 Q973.32 32.4315 969.836 37.1306 Q966.352 41.7891 966.352 49.9314 Q966.352 58.0738 969.795 62.7728 Q973.279 67.4314 979.315 67.4314 Q985.27 67.4314 988.754 62.7323 Q992.237 58.0333 992.237 49.9314 Q992.237 41.8701 988.754 37.1711 Q985.27 32.4315 979.315 32.4315 M979.315 26.1121 Q989.037 26.1121 994.587 32.4315 Q1000.14 38.7509 1000.14 49.9314 Q1000.14 61.0714 994.587 67.4314 Q989.037 73.7508 979.315 73.7508 Q969.552 73.7508 964.003 67.4314 Q958.493 61.0714 958.493 49.9314 Q958.493 38.7509 964.003 32.4315 Q969.552 26.1121 979.315 26.1121 Z" fill="#000000" fill-rule="evenodd" fill-opacity="1" /><path clip-path="url(#clip580)" d="M 0 0 M1038.78 34.1734 Q1037.53 33.4443 1036.03 33.1202 Q1034.57 32.7556 1032.79 32.7556 Q1026.47 32.7556 1023.06 36.8875 Q1019.7 40.9789 1019.7 48.6757 L1019.7 72.576 L1012.21 72.576 L1012.21 27.2059 L1019.7 27.2059 L1019.7 34.2544 Q1022.05 30.1225 1025.82 28.1376 Q1029.59 26.1121 1034.97 26.1121 Q1035.74 26.1121 1036.68 26.2337 Q1037.61 26.3147 1038.74 26.5172 L1038.78 34.1734 Z" fill="#000000" fill-rule="evenodd" fill-opacity="1" /><path clip-path="url(#clip580)" d="M 0 0 M1071.43 34.1734 Q1070.18 33.4443 1068.68 33.1202 Q1067.22 32.7556 1065.44 32.7556 Q1059.12 32.7556 1055.72 36.8875 Q1052.35 40.9789 1052.35 48.6757 L1052.35 72.576 L1044.86 72.576 L1044.86 27.2059 L1052.35 27.2059 L1052.35 34.2544 Q1054.7 30.1225 1058.47 28.1376 Q1062.24 26.1121 1067.62 26.1121 Q1068.39 26.1121 1069.33 26.2337 Q1070.26 26.3147 1071.39 26.5172 L1071.43 34.1734 Z" fill="#000000" fill-rule="evenodd" fill-opacity="1" /><path clip-path="url(#clip580)" d="M 0 0 M1116.24 48.0275 L1116.24 51.6733 L1081.96 51.6733 Q1082.45 59.3701 1086.58 63.421 Q1090.76 67.4314 1098.17 67.4314 Q1102.46 67.4314 1106.47 66.3781 Q1110.52 65.3249 1114.49 63.2184 L1114.49 70.267 Q1110.48 71.9684 1106.27 72.8596 Q1102.06 73.7508 1097.72 73.7508 Q1086.87 73.7508 1080.51 67.4314 Q1074.19 61.1119 1074.19 50.3365 Q1074.19 39.1965 1080.18 32.6746 Q1086.22 26.1121 1096.43 26.1121 Q1105.58 26.1121 1110.89 32.0264 Q1116.24 37.9003 1116.24 48.0275 M1108.78 45.84 Q1108.7 39.7232 1105.34 36.0774 Q1102.02 32.4315 1096.51 32.4315 Q1090.27 32.4315 1086.5 35.9558 Q1082.78 39.4801 1082.21 45.8805 L1108.78 45.84 Z" fill="#000000" fill-rule="evenodd" fill-opacity="1" /><path clip-path="url(#clip580)" d="M 0 0 M1128.47 9.54393 L1135.92 9.54393 L1135.92 72.576 L1128.47 72.576 L1128.47 9.54393 Z" fill="#000000" fill-rule="evenodd" fill-opacity="1" /><path clip-path="url(#clip580)" d="M 0 0 M1172.14 49.7694 Q1163.1 49.7694 1159.62 51.8354 Q1156.14 53.9013 1156.14 58.8839 Q1156.14 62.8538 1158.73 65.2034 Q1161.36 67.5124 1165.86 67.5124 Q1172.06 67.5124 1175.78 63.1374 Q1179.55 58.7219 1179.55 51.4303 L1179.55 49.7694 L1172.14 49.7694 M1187 46.6907 L1187 72.576 L1179.55 72.576 L1179.55 65.6895 Q1177 69.8214 1173.19 71.8063 Q1169.38 73.7508 1163.87 73.7508 Q1156.91 73.7508 1152.77 69.8619 Q1148.68 65.9325 1148.68 59.3701 Q1148.68 51.7138 1153.79 47.825 Q1158.93 43.9361 1169.1 43.9361 L1179.55 43.9361 L1179.55 43.2069 Q1179.55 38.0623 1176.15 35.2672 Q1172.79 32.4315 1166.67 32.4315 Q1162.78 32.4315 1159.09 33.3632 Q1155.41 34.295 1152.01 36.1584 L1152.01 29.2718 Q1156.1 27.692 1159.94 26.9223 Q1163.79 26.1121 1167.44 26.1121 Q1177.28 26.1121 1182.14 31.2163 Q1187 36.3204 1187 46.6907 Z" fill="#000000" fill-rule="evenodd" fill-opacity="1" /><path clip-path="url(#clip580)" d="M 0 0 M1209.73 14.324 L1209.73 27.2059 L1225.08 27.2059 L1225.08 32.9987 L1209.73 32.9987 L1209.73 57.6282 Q1209.73 63.1779 1211.23 64.7578 Q1212.77 66.3376 1217.43 66.3376 L1225.08 66.3376 L1225.08 72.576 L1217.43 72.576 Q1208.8 72.576 1205.52 69.3758 Q1202.24 66.1351 1202.24 57.6282 L1202.24 32.9987 L1196.77 32.9987 L1196.77 27.2059 L1202.24 27.2059 L1202.24 14.324 L1209.73 14.324 Z" fill="#000000" fill-rule="evenodd" fill-opacity="1" /><path clip-path="url(#clip580)" d="M 0 0 M1234.89 27.2059 L1242.34 27.2059 L1242.34 72.576 L1234.89 72.576 L1234.89 27.2059 M1234.89 9.54393 L1242.34 9.54393 L1242.34 18.9825 L1234.89 18.9825 L1234.89 9.54393 Z" fill="#000000" fill-rule="evenodd" fill-opacity="1" /><path clip-path="url(#clip580)" d="M 0 0 M1275.52 32.4315 Q1269.52 32.4315 1266.04 37.1306 Q1262.55 41.7891 1262.55 49.9314 Q1262.55 58.0738 1266 62.7728 Q1269.48 67.4314 1275.52 67.4314 Q1281.47 67.4314 1284.96 62.7323 Q1288.44 58.0333 1288.44 49.9314 Q1288.44 41.8701 1284.96 37.1711 Q1281.47 32.4315 1275.52 32.4315 M1275.52 26.1121 Q1285.24 26.1121 1290.79 32.4315 Q1296.34 38.7509 1296.34 49.9314 Q1296.34 61.0714 1290.79 67.4314 Q1285.24 73.7508 1275.52 73.7508 Q1265.75 73.7508 1260.2 67.4314 Q1254.7 61.0714 1254.7 49.9314 Q1254.7 38.7509 1260.2 32.4315 Q1265.75 26.1121 1275.52 26.1121 Z" fill="#000000" fill-rule="evenodd" fill-opacity="1" /><path clip-path="url(#clip580)" d="M 0 0 M1346.41 45.1919 L1346.41 72.576 L1338.95 72.576 L1338.95 45.4349 Q1338.95 38.994 1336.44 35.7938 Q1333.93 32.5936 1328.91 32.5936 Q1322.87 32.5936 1319.39 36.4419 Q1315.9 40.2903 1315.9 46.9338 L1315.9 72.576 L1308.41 72.576 L1308.41 27.2059 L1315.9 27.2059 L1315.9 34.2544 Q1318.58 30.163 1322.18 28.1376 Q1325.83 26.1121 1330.57 26.1121 Q1338.39 26.1121 1342.4 30.9732 Q1346.41 35.7938 1346.41 45.1919 Z" fill="#000000" fill-rule="evenodd" fill-opacity="1" /><path clip-path="url(#clip580)" d="M 0 0 M1390.2 28.5427 L1390.2 35.5912 Q1387.04 33.9709 1383.64 33.1607 Q1380.23 32.3505 1376.59 32.3505 Q1371.04 32.3505 1368.24 34.0519 Q1365.49 35.7533 1365.49 39.156 Q1365.49 41.7486 1367.47 43.2475 Q1369.46 44.7058 1375.45 46.0426 L1378.01 46.6097 Q1385.94 48.3111 1389.27 51.4303 Q1392.63 54.509 1392.63 60.0587 Q1392.63 66.3781 1387.61 70.0644 Q1382.62 73.7508 1373.87 73.7508 Q1370.23 73.7508 1366.26 73.0216 Q1362.33 72.3329 1357.95 70.9151 L1357.95 63.2184 Q1362.08 65.3654 1366.1 66.4591 Q1370.11 67.5124 1374.04 67.5124 Q1379.3 67.5124 1382.14 65.73 Q1384.97 63.9071 1384.97 60.6258 Q1384.97 57.5877 1382.91 55.9673 Q1380.88 54.3469 1373.95 52.8481 L1371.36 52.2405 Q1364.43 50.7821 1361.36 47.7845 Q1358.28 44.7463 1358.28 39.4801 Q1358.28 33.0797 1362.81 29.5959 Q1367.35 26.1121 1375.7 26.1121 Q1379.83 26.1121 1383.47 26.7198 Q1387.12 27.3274 1390.2 28.5427 Z" fill="#000000" fill-rule="evenodd" fill-opacity="1" /><path clip-path="url(#clip580)" d="M 0 0 M1425.52 27.2059 L1433.42 27.2059 L1447.6 65.2844 L1461.78 27.2059 L1469.68 27.2059 L1452.66 72.576 L1442.54 72.576 L1425.52 27.2059 Z" fill="#000000" fill-rule="evenodd" fill-opacity="1" /><path clip-path="url(#clip580)" d="M 0 0 M1508.89 28.5427 L1508.89 35.5912 Q1505.73 33.9709 1502.33 33.1607 Q1498.92 32.3505 1495.28 32.3505 Q1489.73 32.3505 1486.93 34.0519 Q1484.18 35.7533 1484.18 39.156 Q1484.18 41.7486 1486.16 43.2475 Q1488.15 44.7058 1494.14 46.0426 L1496.7 46.6097 Q1504.64 48.3111 1507.96 51.4303 Q1511.32 54.509 1511.32 60.0587 Q1511.32 66.3781 1506.3 70.0644 Q1501.31 73.7508 1492.56 73.7508 Q1488.92 73.7508 1484.95 73.0216 Q1481.02 72.3329 1476.64 70.9151 L1476.64 63.2184 Q1480.78 65.3654 1484.79 66.4591 Q1488.8 67.5124 1492.73 67.5124 Q1497.99 67.5124 1500.83 65.73 Q1503.66 63.9071 1503.66 60.6258 Q1503.66 57.5877 1501.6 55.9673 Q1499.57 54.3469 1492.65 52.8481 L1490.05 52.2405 Q1483.13 50.7821 1480.05 47.7845 Q1476.97 44.7463 1476.97 39.4801 Q1476.97 33.0797 1481.51 29.5959 Q1486.04 26.1121 1494.39 26.1121 Q1498.52 26.1121 1502.17 26.7198 Q1505.81 27.3274 1508.89 28.5427 Z" fill="#000000" fill-rule="evenodd" fill-opacity="1" /><path clip-path="url(#clip580)" d="M 0 0 M1541.5 12.096 L1592.66 12.096 L1592.66 18.9825 L1571.19 18.9825 L1571.19 72.576 L1562.97 72.576 L1562.97 18.9825 L1541.5 18.9825 L1541.5 12.096 Z" fill="#000000" fill-rule="evenodd" fill-opacity="1" /><path clip-path="url(#clip580)" d="M 0 0 M1597.69 27.2059 L1605.14 27.2059 L1605.14 72.576 L1597.69 72.576 L1597.69 27.2059 M1597.69 9.54393 L1605.14 9.54393 L1605.14 18.9825 L1597.69 18.9825 L1597.69 9.54393 Z" fill="#000000" fill-rule="evenodd" fill-opacity="1" /><path clip-path="url(#clip580)" d="M 0 0 M1656.06 35.9153 Q1658.85 30.8922 1662.74 28.5022 Q1666.63 26.1121 1671.9 26.1121 Q1678.99 26.1121 1682.84 31.0947 Q1686.68 36.0368 1686.68 45.1919 L1686.68 72.576 L1679.19 72.576 L1679.19 45.4349 Q1679.19 38.913 1676.88 35.7533 Q1674.57 32.5936 1669.83 32.5936 Q1664.04 32.5936 1660.68 36.4419 Q1657.31 40.2903 1657.31 46.9338 L1657.31 72.576 L1649.82 72.576 L1649.82 45.4349 Q1649.82 38.8725 1647.51 35.7533 Q1645.2 32.5936 1640.38 32.5936 Q1634.67 32.5936 1631.31 36.4824 Q1627.95 40.3308 1627.95 46.9338 L1627.95 72.576 L1620.45 72.576 L1620.45 27.2059 L1627.95 27.2059 L1627.95 34.2544 Q1630.5 30.082 1634.06 28.0971 Q1637.63 26.1121 1642.53 26.1121 Q1647.47 26.1121 1650.91 28.6237 Q1654.4 31.1352 1656.06 35.9153 Z" fill="#000000" fill-rule="evenodd" fill-opacity="1" /><path clip-path="url(#clip580)" d="M 0 0 M1740.36 48.0275 L1740.36 51.6733 L1706.09 51.6733 Q1706.57 59.3701 1710.71 63.421 Q1714.88 67.4314 1722.29 67.4314 Q1726.59 67.4314 1730.6 66.3781 Q1734.65 65.3249 1738.62 63.2184 L1738.62 70.267 Q1734.61 71.9684 1730.39 72.8596 Q1726.18 73.7508 1721.85 73.7508 Q1710.99 73.7508 1704.63 67.4314 Q1698.31 61.1119 1698.31 50.3365 Q1698.31 39.1965 1704.31 32.6746 Q1710.34 26.1121 1720.55 26.1121 Q1729.7 26.1121 1735.01 32.0264 Q1740.36 37.9003 1740.36 48.0275 M1732.9 45.84 Q1732.82 39.7232 1729.46 36.0774 Q1726.14 32.4315 1720.63 32.4315 Q1714.39 32.4315 1710.62 35.9558 Q1706.9 39.4801 1706.33 45.8805 L1732.9 45.84 Z" fill="#000000" fill-rule="evenodd" fill-opacity="1" /><path clip-path="url(#clip580)" d="M 0 0 M1803.84 17.6457 Q1794.92 17.6457 1789.66 24.2892 Q1784.43 30.9327 1784.43 42.3968 Q1784.43 53.8203 1789.66 60.4638 Q1794.92 67.1073 1803.84 67.1073 Q1812.75 67.1073 1817.93 60.4638 Q1823.16 53.8203 1823.16 42.3968 Q1823.16 30.9327 1817.93 24.2892 Q1812.75 17.6457 1803.84 17.6457 M1803.84 11.0023 Q1816.56 11.0023 1824.17 19.5497 Q1831.79 28.0566 1831.79 42.3968 Q1831.79 56.6965 1824.17 65.2439 Q1816.56 73.7508 1803.84 73.7508 Q1791.08 73.7508 1783.42 65.2439 Q1775.8 56.737 1775.8 42.3968 Q1775.8 28.0566 1783.42 19.5497 Q1791.08 11.0023 1803.84 11.0023 Z" fill="#000000" fill-rule="evenodd" fill-opacity="1" /><path clip-path="url(#clip580)" d="M 0 0 M1867.23 9.54393 L1867.23 15.7418 L1860.1 15.7418 Q1856.09 15.7418 1854.51 17.3622 Q1852.97 18.9825 1852.97 23.1955 L1852.97 27.2059 L1865.25 27.2059 L1865.25 32.9987 L1852.97 32.9987 L1852.97 72.576 L1845.48 72.576 L1845.48 32.9987 L1838.35 32.9987 L1838.35 27.2059 L1845.48 27.2059 L1845.48 24.0462 Q1845.48 16.471 1849 13.0277 Q1852.53 9.54393 1860.18 9.54393 L1867.23 9.54393 Z" fill="#000000" fill-rule="evenodd" fill-opacity="1" /><path clip-path="url(#clip580)" d="M 0 0 M1896.44 9.54393 L1896.44 15.7418 L1889.31 15.7418 Q1885.3 15.7418 1883.72 17.3622 Q1882.18 18.9825 1882.18 23.1955 L1882.18 27.2059 L1894.45 27.2059 L1894.45 32.9987 L1882.18 32.9987 L1882.18 72.576 L1874.69 72.576 L1874.69 32.9987 L1867.56 32.9987 L1867.56 27.2059 L1874.69 27.2059 L1874.69 24.0462 Q1874.69 16.471 1878.21 13.0277 Q1881.73 9.54393 1889.39 9.54393 L1896.44 9.54393 Z" fill="#000000" fill-rule="evenodd" fill-opacity="1" /><path clip-path="url(#clip580)" d="M 0 0 M1931.6 28.5427 L1931.6 35.5912 Q1928.44 33.9709 1925.04 33.1607 Q1921.64 32.3505 1917.99 32.3505 Q1912.44 32.3505 1909.65 34.0519 Q1906.89 35.7533 1906.89 39.156 Q1906.89 41.7486 1908.88 43.2475 Q1910.86 44.7058 1916.86 46.0426 L1919.41 46.6097 Q1927.35 48.3111 1930.67 51.4303 Q1934.03 54.509 1934.03 60.0587 Q1934.03 66.3781 1929.01 70.0644 Q1924.03 73.7508 1915.28 73.7508 Q1911.63 73.7508 1907.66 73.0216 Q1903.73 72.3329 1899.36 70.9151 L1899.36 63.2184 Q1903.49 65.3654 1907.5 66.4591 Q1911.51 67.5124 1915.44 67.5124 Q1920.7 67.5124 1923.54 65.73 Q1926.38 63.9071 1926.38 60.6258 Q1926.38 57.5877 1924.31 55.9673 Q1922.28 54.3469 1915.36 52.8481 L1912.76 52.2405 Q1905.84 50.7821 1902.76 47.7845 Q1899.68 44.7463 1899.68 39.4801 Q1899.68 33.0797 1904.22 29.5959 Q1908.75 26.1121 1917.1 26.1121 Q1921.23 26.1121 1924.88 26.7198 Q1928.52 27.3274 1931.6 28.5427 Z" fill="#000000" fill-rule="evenodd" fill-opacity="1" /><path clip-path="url(#clip580)" d="M 0 0 M1984.71 48.0275 L1984.71 51.6733 L1950.44 51.6733 Q1950.92 59.3701 1955.06 63.421 Q1959.23 67.4314 1966.64 67.4314 Q1970.94 67.4314 1974.95 66.3781 Q1979 65.3249 1982.97 63.2184 L1982.97 70.267 Q1978.96 71.9684 1974.74 72.8596 Q1970.53 73.7508 1966.2 73.7508 Q1955.34 73.7508 1948.98 67.4314 Q1942.66 61.1119 1942.66 50.3365 Q1942.66 39.1965 1948.66 32.6746 Q1954.69 26.1121 1964.9 26.1121 Q1974.06 26.1121 1979.36 32.0264 Q1984.71 37.9003 1984.71 48.0275 M1977.26 45.84 Q1977.17 39.7232 1973.81 36.0774 Q1970.49 32.4315 1964.98 32.4315 Q1958.74 32.4315 1954.98 35.9558 Q1951.25 39.4801 1950.68 45.8805 L1977.26 45.84 Z" fill="#000000" fill-rule="evenodd" fill-opacity="1" /><path clip-path="url(#clip580)" d="M 0 0 M2004.32 14.324 L2004.32 27.2059 L2019.67 27.2059 L2019.67 32.9987 L2004.32 32.9987 L2004.32 57.6282 Q2004.32 63.1779 2005.81 64.7578 Q2007.35 66.3376 2012.01 66.3376 L2019.67 66.3376 L2019.67 72.576 L2012.01 72.576 Q2003.38 72.576 2000.1 69.3758 Q1996.82 66.1351 1996.82 57.6282 L1996.82 32.9987 L1991.35 32.9987 L1991.35 27.2059 L1996.82 27.2059 L1996.82 14.324 L2004.32 14.324 Z" fill="#000000" fill-rule="evenodd" fill-opacity="1" /><polyline clip-path="url(#clip583)" style="stroke:#009af9; stroke-width:4; stroke-opacity:1; fill:none" points="
  314.795,160.369 316.775,1035.87 318.756,1232.13 320.737,1304.41 322.717,1264.84 324.698,1241.43 326.678,1210.13 328.659,1188.6 330.639,1210.5 332.62,1233.78 
  334.601,1236.01 336.581,1237.1 338.562,1231.98 340.542,1200.97 342.523,1181.64 344.504,1226.31 346.484,1232.45 348.465,1258.53 350.445,1287.89 352.426,1255.18 
  354.406,1246.24 356.387,1248.03 358.368,1207.48 360.348,1199.47 362.329,1240.76 364.309,1267.57 366.29,1317.74 368.271,1291.69 370.251,1259.46 372.232,1245.26 
  374.212,1240.59 376.193,1240.1 378.173,1297.78 380.154,1265.89 382.135,1260.28 384.115,1274.26 386.096,1258 388.076,1304.5 390.057,1300.48 392.038,1277.51 
  394.018,1295.91 395.999,1297.74 397.979,1290.21 399.96,1203.87 401.94,1299.81 403.921,1317.99 405.902,1356.34 407.882,1312.67 409.863,1290.7 411.843,1290.53 
  413.824,1254.16 415.805,1270.27 417.785,1255.74 419.766,1257.91 421.746,1303.16 423.727,1341.21 425.707,1260.59 427.688,1260.1 429.669,1358.47 431.649,1346.34 
  433.63,1367.72 435.61,1316.35 437.591,1275.42 439.572,1213.57 441.552,1205.44 443.533,1196.65 445.513,1277.61 447.494,1361 449.474,1305.71 451.455,1297.68 
  453.436,1258.21 455.416,1226.01 457.397,1225.96 459.377,1291.99 461.358,1287.33 463.339,1286.51 465.319,1243.99 467.3,1226.37 469.28,1211.5 471.261,1264.61 
  473.241,1289.55 475.222,1242.42 477.203,1245.87 479.183,1307.14 481.164,1251.71 483.144,1195.67 485.125,1211.67 487.106,1275.29 489.086,1248.4 491.067,1260.42 
  493.047,1207.36 495.028,1223.4 497.008,1192.09 498.989,1214.33 500.97,1260.45 502.95,1223.44 504.931,1239.2 506.911,1283.68 508.892,1231.51 510.873,1148.12 
  512.853,1166.06 514.834,1192.46 516.814,1200.69 518.795,1258.14 520.775,1232.45 522.756,1192.15 524.737,1200.93 526.717,1253.91 528.698,1213.63 530.678,1262.12 
  532.659,1196.35 534.64,1222.08 536.62,1244.1 538.601,1242.61 540.581,1206.24 542.562,1234.93 544.542,1292.87 546.523,1239.78 548.504,1261.37 550.484,1239.05 
  552.465,1248.72 554.445,1194.78 556.426,1245.65 558.407,1265.13 560.387,1242.1 562.368,1266 564.348,1305.83 566.329,1294.35 568.309,1239.7 570.29,1230.99 
  572.271,1262.12 574.251,1330.93 576.232,1300 578.212,1238.64 580.193,1264.91 582.174,1210.17 584.154,1313.94 586.135,1285.06 588.115,1281.07 590.096,1324.48 
  592.076,1305.38 594.057,1316.07 596.038,1204.66 598.018,1250.31 599.999,1241.23 601.979,1295.92 603.96,1264.57 605.941,1306.46 607.921,1303.68 609.902,1315.44 
  611.882,1298.19 613.863,1353.71 615.843,1343.01 617.824,1300.96 619.805,1306.12 621.785,1265.15 623.766,1269.65 625.746,1298.04 627.727,1281.87 629.708,1373.55 
  631.688,1324.64 633.669,1305.11 635.649,1330.4 637.63,1323.91 639.61,1241.54 641.591,1308.02 643.572,1341.69 645.552,1311.61 647.533,1311.6 649.513,1259.57 
  651.494,1282.79 653.475,1247.97 655.455,1292.76 657.436,1258.37 659.416,1287.72 661.397,1232.09 663.377,1218.16 665.358,1190.22 667.339,1183.38 669.319,1258.22 
  671.3,1284.6 673.28,1277.09 675.261,1266.97 677.242,1246.98 679.222,1256.79 681.203,1260.67 683.183,1190.95 685.164,1229.48 687.144,1276.88 689.125,1215.4 
  691.106,1254.71 693.086,1254.36 695.067,1207.9 697.047,1234.77 699.028,1233.98 701.009,1208.83 702.989,1216.73 704.97,1241.12 706.95,1222.9 708.931,1276.05 
  710.912,1255.5 712.892,1220.49 714.873,1244.28 716.853,1239.02 718.834,1334.31 720.814,1201.1 722.795,1164.4 724.776,1188.13 726.756,1226.32 728.737,1211.27 
  730.717,1141.62 732.698,1241.16 734.679,1206.6 736.659,1233.46 738.64,1214.1 740.62,1269.47 742.601,1288.57 744.581,1266.16 746.562,1267.28 748.543,1234.39 
  750.523,1253.66 752.504,1223.54 754.484,1245.53 756.465,1290.24 758.446,1261.42 760.426,1221.26 762.407,1270.65 764.387,1316.66 766.368,1266.4 768.348,1252.75 
  770.329,1278.55 772.31,1268.15 774.29,1237.22 776.271,1319.13 778.251,1307.75 780.232,1299.39 782.213,1313.02 784.193,1310.05 786.174,1259.22 788.154,1270.47 
  790.135,1309.51 792.115,1304.34 794.096,1284.19 796.077,1236.17 798.057,1313.04 800.038,1264.36 802.018,1280.41 803.999,1320.34 805.98,1299.28 807.96,1354.4 
  809.941,1301.2 811.921,1321.34 813.902,1290.43 815.882,1255.18 817.863,1261.26 819.844,1316.29 821.824,1324.8 823.805,1301.19 825.785,1298.63 827.766,1269.96 
  829.747,1311.18 831.727,1278.61 833.708,1299.39 835.688,1304.32 837.669,1312.46 839.649,1307.83 841.63,1289.53 843.611,1242.86 845.591,1304.28 847.572,1299.73 
  849.552,1296.6 851.533,1296.42 853.514,1298.27 855.494,1266.85 857.475,1254.04 859.455,1191.54 861.436,1199.02 863.416,1198.68 865.397,1207.52 867.378,1215.38 
  869.358,1270.48 871.339,1252.15 873.319,1223.17 875.3,1238.25 877.281,1189.8 879.261,1220.78 881.242,1251.31 883.222,1260.11 885.203,1217.97 887.183,1205.31 
  889.164,1211.8 891.145,1237.85 893.125,1214.57 895.106,1196.71 897.086,1218.03 899.067,1202.81 901.048,1223.51 903.028,1221.63 905.009,1187.94 906.989,1239.39 
  908.97,1183.69 910.95,1282.42 912.931,1222.84 914.912,1191.15 916.892,1282.21 918.873,1309.95 920.853,1205.17 922.834,1201.13 924.815,1201.81 926.795,1208.31 
  928.776,1197.16 930.756,1236.54 932.737,1304.38 934.717,1216.37 936.698,1261.9 938.679,1242.37 940.659,1211.87 942.64,1212.33 944.62,1247.77 946.601,1253.33 
  948.582,1239.24 950.562,1267.55 952.543,1287.47 954.523,1255.8 956.504,1195.64 958.484,1255.44 960.465,1329.32 962.446,1311.99 964.426,1311.98 966.407,1271.84 
  968.387,1252.82 970.368,1255.29 972.349,1234.05 974.329,1288.07 976.31,1324.02 978.29,1351.4 980.271,1328.06 982.251,1359.44 984.232,1248.39 986.213,1245.59 
  988.193,1268.45 990.174,1310.83 992.154,1316.54 994.135,1310.73 996.116,1305.52 998.096,1289.55 1000.08,1289.93 1002.06,1261.48 1004.04,1306.92 1006.02,1305.74 
  1008,1276.03 1009.98,1275.09 1011.96,1316.07 1013.94,1266.15 1015.92,1287.84 1017.9,1311.24 1019.88,1290.74 1021.86,1291.07 1023.84,1312.71 1025.82,1309.27 
  1027.8,1268.56 1029.79,1255.84 1031.77,1281.36 1033.75,1280.07 1035.73,1235.67 1037.71,1247.51 1039.69,1243.58 1041.67,1239.58 1043.65,1263.34 1045.63,1284.17 
  1047.61,1256.07 1049.59,1290.88 1051.57,1249.45 1053.55,1240.6 1055.53,1237.57 1057.51,1268.66 1059.49,1280.23 1061.47,1257.14 1063.46,1258.65 1065.44,1317.45 
  1067.42,1232.84 1069.4,1205.28 1071.38,1237.16 1073.36,1275.14 1075.34,1288.5 1077.32,1288.74 1079.3,1278.76 1081.28,1238.95 1083.26,1169.51 1085.24,1188.06 
  1087.22,1215.11 1089.2,1219.92 1091.18,1213.21 1093.16,1226.41 1095.14,1172.2 1097.13,1149.06 1099.11,1193.79 1101.09,1230.36 1103.07,1250.32 1105.05,1279.36 
  1107.03,1187.47 1109.01,1234.85 1110.99,1248.92 1112.97,1228.8 1114.95,1237.66 1116.93,1252.18 1118.91,1269.27 1120.89,1260.01 1122.87,1201.43 1124.85,1214.5 
  1126.83,1233.45 1128.81,1193.5 1130.8,1203.67 1132.78,1230.09 1134.76,1267.93 1136.74,1275.65 1138.72,1269.87 1140.7,1215.51 1142.68,1237.76 1144.66,1224.22 
  1146.64,1262.76 1148.62,1252.94 1150.6,1254.84 1152.58,1229.61 1154.56,1202.62 1156.54,1282.73 1158.52,1316.01 1160.5,1306.28 1162.48,1277.98 1164.47,1329.24 
  1166.45,1269.01 1168.43,1218.1 1170.41,1279.48 1172.39,1278.05 1174.37,1289.87 1176.35,1273.85 1178.33,1368.25 1180.31,1279.56 1182.29,1256.71 1184.27,1277.73 
  1186.25,1308.7 1188.23,1299.89 1190.21,1303.39 1192.19,1319.87 1194.17,1327.47 1196.15,1294.19 1198.14,1303.75 1200.12,1344.07 1202.1,1332.46 1204.08,1390.25 
  1206.06,1348.08 1208.04,1329.12 1210.02,1299.15 1212,1208.22 1213.98,1285.18 1215.96,1278.55 1217.94,1272.85 1219.92,1285.65 1221.9,1375.35 1223.88,1326.18 
  1225.86,1319.89 1227.84,1262.74 1229.82,1273.55 1231.8,1293.48 1233.79,1310.13 1235.77,1306.21 1237.75,1266.02 1239.73,1210.92 1241.71,1299.41 1243.69,1316.03 
  1245.67,1305.16 1247.65,1236.21 1249.63,1258.55 1251.61,1219.05 1253.59,1221.03 1255.57,1258.6 1257.55,1269.23 1259.53,1318.21 1261.51,1294.41 1263.49,1331.3 
  1265.47,1282.61 1267.46,1223.05 1269.44,1265.45 1271.42,1255.79 1273.4,1241.3 1275.38,1199.67 1277.36,1242.57 1279.34,1211.33 1281.32,1205.31 1283.3,1189.71 
  1285.28,1192.9 1287.26,1245.87 1289.24,1255.84 1291.22,1235.82 1293.2,1137.52 1295.18,1163.22 1297.16,1184.37 1299.14,1235.56 1301.13,1208.8 1303.11,1242.61 
  1305.09,1205.67 1307.07,1248.58 1309.05,1257.93 1311.03,1217.94 1313.01,1200.34 1314.99,1191.16 1316.97,1225.36 1318.95,1241.22 1320.93,1167.2 1322.91,1227.16 
  1324.89,1236.07 1326.87,1280.68 1328.85,1279.78 1330.83,1253.63 1332.81,1235.01 1334.8,1272.78 1336.78,1205.42 1338.76,1224.75 1340.74,1237.04 1342.72,1178.99 
  1344.7,1264.42 1346.68,1313.51 1348.66,1272.89 1350.64,1278.38 1352.62,1284.96 1354.6,1284.76 1356.58,1326.95 1358.56,1284.18 1360.54,1278.45 1362.52,1294.75 
  1364.5,1249.86 1366.48,1206.55 1368.47,1195.53 1370.45,1286.41 1372.43,1282.74 1374.41,1286.57 1376.39,1288.47 1378.37,1238.68 1380.35,1235.91 1382.33,1295.42 
  1384.31,1339.27 1386.29,1311.79 1388.27,1349.06 1390.25,1344.7 1392.23,1306.05 1394.21,1244.1 1396.19,1274.42 1398.17,1310.3 1400.15,1318.98 1402.14,1368.05 
  1404.12,1308.24 1406.1,1331.53 1408.08,1303.32 1410.06,1250.78 1412.04,1269.83 1414.02,1297.15 1416,1255.14 1417.98,1324.21 1419.96,1320.73 1421.94,1284.24 
  1423.92,1318.5 1425.9,1315.18 1427.88,1308.55 1429.86,1292.81 1431.84,1335.18 1433.82,1304.34 1435.81,1225.79 1437.79,1180.53 1439.77,1283.41 1441.75,1271.39 
  1443.73,1262.31 1445.71,1242.04 1447.69,1227.51 1449.67,1213.73 1451.65,1310.62 1453.63,1255.88 1455.61,1262.75 1457.59,1285.55 1459.57,1247.59 1461.55,1287.91 
  1463.53,1294.28 1465.51,1256.02 1467.49,1209.68 1469.48,1198.2 1471.46,1256.78 1473.44,1218.06 1475.42,1235.87 1477.4,1249.54 1479.38,1222.61 1481.36,1234.53 
  1483.34,1210.56 1485.32,1250.85 1487.3,1261.5 1489.28,1234.76 1491.26,1275.24 1493.24,1193.32 1495.22,1178.09 1497.2,1185.07 1499.18,1209.66 1501.16,1220.27 
  1503.14,1182.87 1505.13,1187.63 1507.11,1199.06 1509.09,1276.06 1511.07,1279.69 1513.05,1276.63 1515.03,1178.4 1517.01,1200.03 1518.99,1214.38 1520.97,1143.01 
  1522.95,1219.75 1524.93,1298.12 1526.91,1323.47 1528.89,1241.43 1530.87,1261.83 1532.85,1256.23 1534.83,1285.47 1536.81,1268.78 1538.8,1211.38 1540.78,1218.63 
  1542.76,1239.98 1544.74,1279.66 1546.72,1293.93 1548.7,1303.27 1550.68,1272.36 1552.66,1275.48 1554.64,1304.35 1556.62,1276.87 1558.6,1299.69 1560.58,1287.29 
  1562.56,1257.12 1564.54,1190.23 1566.52,1182.43 1568.5,1248.57 1570.48,1280.65 1572.47,1300.89 1574.45,1311.47 1576.43,1308.61 1578.41,1315.69 1580.39,1332.75 
  1582.37,1230.96 1584.35,1273.59 1586.33,1305.62 1588.31,1276.83 1590.29,1325.92 1592.27,1357.08 1594.25,1331.45 1596.23,1246.67 1598.21,1232.63 1600.19,1233.03 
  1602.17,1329.14 1604.15,1257.1 1606.14,1266.1 1608.12,1282.78 1610.1,1326.14 1612.08,1335.27 1614.06,1286.18 1616.04,1287.43 1618.02,1280.82 1620,1291.52 
  1621.98,1317.75 1623.96,1332.16 1625.94,1286.28 1627.92,1272.69 1629.9,1270.5 1631.88,1248.95 1633.86,1274.39 1635.84,1271.67 1637.82,1348.07 1639.81,1310.12 
  1641.79,1269.92 1643.77,1225.61 1645.75,1229.09 1647.73,1263.65 1649.71,1247.49 1651.69,1277.46 1653.67,1289.34 1655.65,1279.47 1657.63,1241.58 1659.61,1230.44 
  1661.59,1244.52 1663.57,1200.47 1665.55,1260.62 1667.53,1170.87 1669.51,1216.52 1671.49,1260.42 1673.48,1280.88 1675.46,1214.5 1677.44,1244.05 1679.42,1245.83 
  1681.4,1215.46 1683.38,1247.43 1685.36,1258.38 1687.34,1287.24 1689.32,1212.44 1691.3,1161.79 1693.28,1200.44 1695.26,1236.23 1697.24,1247.09 1699.22,1194.64 
  1701.2,1144.97 1703.18,1173.89 1705.16,1199.54 1707.15,1175.41 1709.13,1275.45 1711.11,1251.06 1713.09,1158.49 1715.07,1249.34 1717.05,1222.06 1719.03,1216.82 
  1721.01,1202.14 1722.99,1181.54 1724.97,1164.83 1726.95,1161.95 1728.93,1201.94 1730.91,1220.77 1732.89,1240.27 1734.87,1243.78 1736.85,1298.41 1738.83,1235.72 
  1740.81,1223.98 1742.8,1207.31 1744.78,1265.03 1746.76,1288.91 1748.74,1241.12 1750.72,1246.07 1752.7,1273.18 1754.68,1305.15 1756.66,1273.78 1758.64,1261.88 
  1760.62,1170.42 1762.6,1223.93 1764.58,1278.59 1766.56,1282.57 1768.54,1317.67 1770.52,1331.37 1772.5,1322.04 1774.48,1281.67 1776.47,1318.82 1778.45,1334.92 
  1780.43,1273.09 1782.41,1306.81 1784.39,1258.28 1786.37,1270.96 1788.35,1292.18 1790.33,1320.74 1792.31,1261.09 1794.29,1273.43 1796.27,1230.28 1798.25,1343.3 
  1800.23,1326.26 1802.21,1279.06 1804.19,1289.65 1806.17,1269.95 1808.15,1317.92 1810.14,1282.34 1812.12,1268.58 1814.1,1296.43 1816.08,1339.18 1818.06,1288.05 
  1820.04,1312.02 1822.02,1254.32 1824,1246.31 1825.98,1274.95 1827.96,1200.57 1829.94,1245.37 1831.92,1249.2 1833.9,1257.14 1835.88,1307.82 1837.86,1226.83 
  1839.84,1290.75 1841.82,1301.32 1843.81,1308.07 1845.79,1259.5 1847.77,1228.42 1849.75,1229.59 1851.73,1166.39 1853.71,1163.17 1855.69,1186.84 1857.67,1291.64 
  1859.65,1250.28 1861.63,1208.99 1863.61,1276.22 1865.59,1261.16 1867.57,1241.47 1869.55,1218.03 1871.53,1265.82 1873.51,1205.85 1875.49,1212 1877.48,1216.38 
  1879.46,1288.06 1881.44,1177.26 1883.42,1170.34 1885.4,1175.94 1887.38,1216.98 1889.36,1219.93 1891.34,1252.69 1893.32,1244.2 1895.3,1237.81 1897.28,1292.01 
  1899.26,1271.36 1901.24,1201.13 1903.22,1228.55 1905.2,1281.94 1907.18,1221.66 1909.16,1195.93 1911.15,1178.95 1913.13,1169.53 1915.11,1232.58 1917.09,1220.33 
  1919.07,1276.65 1921.05,1179.23 1923.03,1214.83 1925.01,1256.03 1926.99,1252.94 1928.97,1270 1930.95,1257.79 1932.93,1276.34 1934.91,1324.19 1936.89,1289.96 
  1938.87,1258.01 1940.85,1245.04 1942.83,1296.31 1944.82,1260.61 1946.8,1301.06 1948.78,1256.75 1950.76,1263.51 1952.74,1191.2 1954.72,1230.33 1956.7,1198.04 
  1958.68,1299.29 1960.66,1282.47 1962.64,1279.46 1964.62,1293.61 1966.6,1230.27 1968.58,1260.27 1970.56,1267.99 1972.54,1308.92 1974.52,1305.98 1976.5,1342.77 
  1978.49,1284.88 1980.47,1318.43 1982.45,1290.89 1984.43,1275.05 1986.41,1308.88 1988.39,1282.55 1990.37,1383.09 1992.35,1318.3 1994.33,1331.44 1996.31,1306.66 
  1998.29,1282.79 2000.27,1279.92 2002.25,1325.37 2004.23,1275.82 2006.21,1221.17 2008.19,1233.45 2010.17,1236.34 2012.15,1277.64 2014.14,1329.64 2016.12,1298.82 
  2018.1,1299.08 2020.08,1236.15 2022.06,1239.33 2024.04,1280.4 2026.02,1309.52 2028,1285.23 2029.98,1274.15 2031.96,1276.01 2033.94,1321.28 2035.92,1317.67 
  2037.9,1299.19 2039.88,1321.89 2041.86,1266.05 2043.84,1218.02 2045.82,1266.17 2047.81,1289.49 2049.79,1228.33 2051.77,1209.34 2053.75,1245.45 2055.73,1306.53 
  2057.71,1285.58 2059.69,1250.45 2061.67,1262.29 2063.65,1251.97 2065.63,1250.39 2067.61,1199.9 2069.59,1134.9 2071.57,1257.46 2073.55,1187.31 2075.53,1240.36 
  2077.51,1181.2 2079.49,1234.93 2081.48,1200.59 2083.46,1198.76 2085.44,1233.52 2087.42,1203.89 2089.4,1192.67 2091.38,1215.26 2093.36,1246.72 2095.34,1250.9 
  2097.32,1279.48 2099.3,1227.17 2101.28,1249.3 2103.26,1266.07 2105.24,1191.73 2107.22,1174.54 2109.2,1150.37 2111.18,1233.77 2113.16,1191.12 2115.15,1199.5 
  2117.13,1244.39 2119.11,1237.23 2121.09,1214.43 2123.07,1251.91 2125.05,1308.64 2127.03,1241.48 2129.01,1209.66 2130.99,1239.1 2132.97,1284.21 2134.95,1227.53 
  2136.93,1246.63 2138.91,1270.88 2140.89,1210.08 2142.87,1260.18 2144.85,1226.21 2146.83,1193.43 2148.82,1193.27 2150.8,1246.82 2152.78,1265.19 2154.76,1263.66 
  2156.74,1303.01 2158.72,1298 2160.7,1317.77 2162.68,1281.41 2164.66,1248.26 2166.64,1254.58 2168.62,1309.37 2170.6,1282.32 2172.58,1227.32 2174.56,1244.71 
  2176.54,1238.24 2178.52,1341.58 2180.5,1343.28 2182.49,1322 2184.47,1377.76 2186.45,1291.95 2188.43,1350.02 2190.41,1323.12 2192.39,1261.48 2194.37,1238.92 
  2196.35,1306.33 2198.33,1277.54 2200.31,1328.39 2202.29,1294.92 2204.27,1232.25 2206.25,1292.31 2208.23,1280.25 2210.21,1334.19 2212.19,1249.87 2214.17,1252.73 
  2216.16,1343.09 2218.14,1312.54 2220.12,1331.69 2222.1,1319.58 2224.08,1314.55 2226.06,1269.5 2228.04,1267.61 2230.02,1253.26 2232,1323.75 2233.98,1309.72 
  2235.96,1280.19 2237.94,1266.23 2239.92,1299.41 2241.9,1265.85 2243.88,1270.89 2245.86,1253.73 2247.84,1273.37 2249.82,1277.34 2251.81,1188.14 2253.79,1242.63 
  2255.77,1268.46 2257.75,1277.77 2259.73,1242.51 2261.71,1248.12 2263.69,1265.22 2265.67,1259.68 2267.65,1227.37 2269.63,1209.91 2271.61,1182.64 2273.59,1221.2 
  2275.57,1191.53 2277.55,1200.92 2279.53,1272.41 2281.51,1238.66 2283.49,1236.45 2285.48,1251.62 2287.46,1244.4 2289.44,1120.39 2291.42,1129.61 2293.4,1226.8 
  
  "/>
</svg>
