<?xml version="1.0" encoding="utf-8"?>
<svg xmlns="http://www.w3.org/2000/svg" xmlns:xlink="http://www.w3.org/1999/xlink" width="576" height="384" viewBox="0 0 2304 1536">
<defs>
  <clipPath id="clip180">
    <rect x="0" y="0" width="2304" height="1536"/>
  </clipPath>
</defs>
<path clip-path="url(#clip180)" d="
M0 1536 L2304 1536 L2304 0 L0 0  Z
  " fill="#ffffff" fill-rule="evenodd" fill-opacity="1"/>
<defs>
  <clipPath id="clip181">
    <rect x="460" y="0" width="1614" height="1536"/>
  </clipPath>
</defs>
<path clip-path="url(#clip180)" d="
M339.739 1359.82 L2256.76 1359.82 L2256.76 123.472 L339.739 123.472  Z
  " fill="#ffffff" fill-rule="evenodd" fill-opacity="1"/>
<defs>
  <clipPath id="clip182">
    <rect x="339" y="123" width="1918" height="1237"/>
  </clipPath>
</defs>
<polyline clip-path="url(#clip182)" style="stroke:#000000; stroke-width:2; stroke-opacity:0.1; fill:none" points="
  393.994,1359.82 393.994,123.472 
  "/>
<polyline clip-path="url(#clip182)" style="stroke:#000000; stroke-width:2; stroke-opacity:0.1; fill:none" points="
  846.121,1359.82 846.121,123.472 
  "/>
<polyline clip-path="url(#clip182)" style="stroke:#000000; stroke-width:2; stroke-opacity:0.1; fill:none" points="
  1298.25,1359.82 1298.25,123.472 
  "/>
<polyline clip-path="url(#clip182)" style="stroke:#000000; stroke-width:2; stroke-opacity:0.1; fill:none" points="
  1750.37,1359.82 1750.37,123.472 
  "/>
<polyline clip-path="url(#clip182)" style="stroke:#000000; stroke-width:2; stroke-opacity:0.1; fill:none" points="
  2202.5,1359.82 2202.5,123.472 
  "/>
<polyline clip-path="url(#clip180)" style="stroke:#000000; stroke-width:4; stroke-opacity:1; fill:none" points="
  339.739,1359.82 2256.76,1359.82 
  "/>
<polyline clip-path="url(#clip180)" style="stroke:#000000; stroke-width:4; stroke-opacity:1; fill:none" points="
  393.994,1359.82 393.994,1344.98 
  "/>
<polyline clip-path="url(#clip180)" style="stroke:#000000; stroke-width:4; stroke-opacity:1; fill:none" points="
  846.121,1359.82 846.121,1344.98 
  "/>
<polyline clip-path="url(#clip180)" style="stroke:#000000; stroke-width:4; stroke-opacity:1; fill:none" points="
  1298.25,1359.82 1298.25,1344.98 
  "/>
<polyline clip-path="url(#clip180)" style="stroke:#000000; stroke-width:4; stroke-opacity:1; fill:none" points="
  1750.37,1359.82 1750.37,1344.98 
  "/>
<polyline clip-path="url(#clip180)" style="stroke:#000000; stroke-width:4; stroke-opacity:1; fill:none" points="
  2202.5,1359.82 2202.5,1344.98 
  "/>
<path clip-path="url(#clip180)" d="M 0 0 M393.994 1388.24 Q390.383 1388.24 388.554 1391.81 Q386.749 1395.35 386.749 1402.48 Q386.749 1409.59 388.554 1413.15 Q390.383 1416.69 393.994 1416.69 Q397.628 1416.69 399.434 1413.15 Q401.263 1409.59 401.263 1402.48 Q401.263 1395.35 399.434 1391.81 Q397.628 1388.24 393.994 1388.24 M393.994 1384.54 Q399.804 1384.54 402.86 1389.15 Q405.939 1393.73 405.939 1402.48 Q405.939 1411.21 402.86 1415.81 Q399.804 1420.4 393.994 1420.4 Q388.184 1420.4 385.105 1415.81 Q382.05 1411.21 382.05 1402.48 Q382.05 1393.73 385.105 1389.15 Q388.184 1384.54 393.994 1384.54 Z" fill="#000000" fill-rule="evenodd" fill-opacity="1" /><path clip-path="url(#clip180)" d="M 0 0 M836.399 1385.16 L854.755 1385.16 L854.755 1389.1 L840.681 1389.1 L840.681 1397.57 Q841.7 1397.22 842.718 1397.06 Q843.737 1396.88 844.755 1396.88 Q850.542 1396.88 853.922 1400.05 Q857.301 1403.22 857.301 1408.64 Q857.301 1414.21 853.829 1417.32 Q850.357 1420.4 844.037 1420.4 Q841.862 1420.4 839.593 1420.02 Q837.348 1419.65 834.94 1418.91 L834.94 1414.21 Q837.024 1415.35 839.246 1415.9 Q841.468 1416.46 843.945 1416.46 Q847.949 1416.46 850.287 1414.35 Q852.625 1412.25 852.625 1408.64 Q852.625 1405.02 850.287 1402.92 Q847.949 1400.81 843.945 1400.81 Q842.07 1400.81 840.195 1401.23 Q838.343 1401.65 836.399 1402.52 L836.399 1385.16 Z" fill="#000000" fill-rule="evenodd" fill-opacity="1" /><path clip-path="url(#clip180)" d="M 0 0 M1272.94 1415.79 L1280.57 1415.79 L1280.57 1389.42 L1272.26 1391.09 L1272.26 1386.83 L1280.53 1385.16 L1285.2 1385.16 L1285.2 1415.79 L1292.84 1415.79 L1292.84 1419.72 L1272.94 1419.72 L1272.94 1415.79 Z" fill="#000000" fill-rule="evenodd" fill-opacity="1" /><path clip-path="url(#clip180)" d="M 0 0 M1312.29 1388.24 Q1308.68 1388.24 1306.85 1391.81 Q1305.04 1395.35 1305.04 1402.48 Q1305.04 1409.59 1306.85 1413.15 Q1308.68 1416.69 1312.29 1416.69 Q1315.92 1416.69 1317.73 1413.15 Q1319.56 1409.59 1319.56 1402.48 Q1319.56 1395.35 1317.73 1391.81 Q1315.92 1388.24 1312.29 1388.24 M1312.29 1384.54 Q1318.1 1384.54 1321.15 1389.15 Q1324.23 1393.73 1324.23 1402.48 Q1324.23 1411.21 1321.15 1415.81 Q1318.1 1420.4 1312.29 1420.4 Q1306.48 1420.4 1303.4 1415.81 Q1300.34 1411.21 1300.34 1402.48 Q1300.34 1393.73 1303.4 1389.15 Q1306.48 1384.54 1312.29 1384.54 Z" fill="#000000" fill-rule="evenodd" fill-opacity="1" /><path clip-path="url(#clip180)" d="M 0 0 M1725.56 1415.79 L1733.2 1415.79 L1733.2 1389.42 L1724.89 1391.09 L1724.89 1386.83 L1733.15 1385.16 L1737.83 1385.16 L1737.83 1415.79 L1745.47 1415.79 L1745.47 1419.72 L1725.56 1419.72 L1725.56 1415.79 Z" fill="#000000" fill-rule="evenodd" fill-opacity="1" /><path clip-path="url(#clip180)" d="M 0 0 M1754.96 1385.16 L1773.31 1385.16 L1773.31 1389.1 L1759.24 1389.1 L1759.24 1397.57 Q1760.26 1397.22 1761.28 1397.06 Q1762.3 1396.88 1763.31 1396.88 Q1769.1 1396.88 1772.48 1400.05 Q1775.86 1403.22 1775.86 1408.64 Q1775.86 1414.21 1772.39 1417.32 Q1768.92 1420.4 1762.6 1420.4 Q1760.42 1420.4 1758.15 1420.02 Q1755.91 1419.65 1753.5 1418.91 L1753.5 1414.21 Q1755.58 1415.35 1757.8 1415.9 Q1760.03 1416.46 1762.5 1416.46 Q1766.51 1416.46 1768.85 1414.35 Q1771.18 1412.25 1771.18 1408.64 Q1771.18 1405.02 1768.85 1402.92 Q1766.51 1400.81 1762.5 1400.81 Q1760.63 1400.81 1758.75 1401.23 Q1756.9 1401.65 1754.96 1402.52 L1754.96 1385.16 Z" fill="#000000" fill-rule="evenodd" fill-opacity="1" /><path clip-path="url(#clip180)" d="M 0 0 M2181.27 1415.79 L2197.59 1415.79 L2197.59 1419.72 L2175.65 1419.72 L2175.65 1415.79 Q2178.31 1413.03 2182.89 1408.4 Q2187.5 1403.75 2188.68 1402.41 Q2190.93 1399.89 2191.81 1398.15 Q2192.71 1396.39 2192.71 1394.7 Q2192.71 1391.95 2190.76 1390.21 Q2188.84 1388.47 2185.74 1388.47 Q2183.54 1388.47 2181.09 1389.24 Q2178.66 1390 2175.88 1391.55 L2175.88 1386.83 Q2178.7 1385.7 2181.16 1385.12 Q2183.61 1384.54 2185.65 1384.54 Q2191.02 1384.54 2194.21 1387.22 Q2197.41 1389.91 2197.41 1394.4 Q2197.41 1396.53 2196.6 1398.45 Q2195.81 1400.35 2193.7 1402.94 Q2193.13 1403.61 2190.02 1406.83 Q2186.92 1410.02 2181.27 1415.79 Z" fill="#000000" fill-rule="evenodd" fill-opacity="1" /><path clip-path="url(#clip180)" d="M 0 0 M2217.41 1388.24 Q2213.8 1388.24 2211.97 1391.81 Q2210.16 1395.35 2210.16 1402.48 Q2210.16 1409.59 2211.97 1413.15 Q2213.8 1416.69 2217.41 1416.69 Q2221.04 1416.69 2222.85 1413.15 Q2224.68 1409.59 2224.68 1402.48 Q2224.68 1395.35 2222.85 1391.81 Q2221.04 1388.24 2217.41 1388.24 M2217.41 1384.54 Q2223.22 1384.54 2226.27 1389.15 Q2229.35 1393.73 2229.35 1402.48 Q2229.35 1411.21 2226.27 1415.81 Q2223.22 1420.4 2217.41 1420.4 Q2211.6 1420.4 2208.52 1415.81 Q2205.46 1411.21 2205.46 1402.48 Q2205.46 1393.73 2208.52 1389.15 Q2211.6 1384.54 2217.41 1384.54 Z" fill="#000000" fill-rule="evenodd" fill-opacity="1" /><path clip-path="url(#clip180)" d="M 0 0 M1165.05 1457.47 L1165.05 1467.6 L1177.11 1467.6 L1177.11 1472.15 L1165.05 1472.15 L1165.05 1491.5 Q1165.05 1495.86 1166.22 1497.1 Q1167.43 1498.34 1171.09 1498.34 L1177.11 1498.34 L1177.11 1503.24 L1171.09 1503.24 Q1164.31 1503.24 1161.73 1500.73 Q1159.16 1498.18 1159.16 1491.5 L1159.16 1472.15 L1154.86 1472.15 L1154.86 1467.6 L1159.16 1467.6 L1159.16 1457.47 L1165.05 1457.47 Z" fill="#000000" fill-rule="evenodd" fill-opacity="1" /><path clip-path="url(#clip180)" d="M 0 0 M1184.81 1467.6 L1190.67 1467.6 L1190.67 1503.24 L1184.81 1503.24 L1184.81 1467.6 M1184.81 1453.72 L1190.67 1453.72 L1190.67 1461.13 L1184.81 1461.13 L1184.81 1453.72 Z" fill="#000000" fill-rule="evenodd" fill-opacity="1" /><path clip-path="url(#clip180)" d="M 0 0 M1230.68 1474.44 Q1232.87 1470.49 1235.93 1468.61 Q1238.98 1466.74 1243.12 1466.74 Q1248.69 1466.74 1251.71 1470.65 Q1254.74 1474.53 1254.74 1481.73 L1254.74 1503.24 L1248.85 1503.24 L1248.85 1481.92 Q1248.85 1476.79 1247.04 1474.31 Q1245.22 1471.83 1241.5 1471.83 Q1236.95 1471.83 1234.3 1474.85 Q1231.66 1477.88 1231.66 1483.1 L1231.66 1503.24 L1225.77 1503.24 L1225.77 1481.92 Q1225.77 1476.76 1223.96 1474.31 Q1222.15 1471.83 1218.36 1471.83 Q1213.87 1471.83 1211.23 1474.88 Q1208.59 1477.91 1208.59 1483.1 L1208.59 1503.24 L1202.7 1503.24 L1202.7 1467.6 L1208.59 1467.6 L1208.59 1473.13 Q1210.59 1469.86 1213.39 1468.3 Q1216.19 1466.74 1220.04 1466.74 Q1223.93 1466.74 1226.63 1468.71 Q1229.37 1470.68 1230.68 1474.44 Z" fill="#000000" fill-rule="evenodd" fill-opacity="1" /><path clip-path="url(#clip180)" d="M 0 0 M1296.91 1483.96 L1296.91 1486.82 L1269.98 1486.82 Q1270.37 1492.87 1273.61 1496.05 Q1276.89 1499.2 1282.72 1499.2 Q1286.09 1499.2 1289.24 1498.37 Q1292.42 1497.55 1295.54 1495.89 L1295.54 1501.43 Q1292.39 1502.77 1289.08 1503.47 Q1285.77 1504.17 1282.36 1504.17 Q1273.83 1504.17 1268.84 1499.2 Q1263.87 1494.24 1263.87 1485.77 Q1263.87 1477.02 1268.58 1471.89 Q1273.33 1466.74 1281.35 1466.74 Q1288.54 1466.74 1292.71 1471.38 Q1296.91 1476 1296.91 1483.96 M1291.05 1482.24 Q1290.99 1477.43 1288.35 1474.57 Q1285.74 1471.7 1281.41 1471.7 Q1276.51 1471.7 1273.55 1474.47 Q1270.62 1477.24 1270.17 1482.27 L1291.05 1482.24 Z" fill="#000000" fill-rule="evenodd" fill-opacity="1" /><path clip-path="url(#clip180)" d="M 0 0 M1341.31 1453.78 Q1337.05 1461.1 1334.98 1468.26 Q1332.91 1475.43 1332.91 1482.78 Q1332.91 1490.13 1334.98 1497.36 Q1337.08 1504.55 1341.31 1511.84 L1336.22 1511.84 Q1331.44 1504.36 1329.06 1497.13 Q1326.7 1489.91 1326.7 1482.78 Q1326.7 1475.68 1329.06 1468.49 Q1331.41 1461.29 1336.22 1453.78 L1341.31 1453.78 Z" fill="#000000" fill-rule="evenodd" fill-opacity="1" /><path clip-path="url(#clip180)" d="M 0 0 M1382.31 1481.73 L1382.31 1503.24 L1376.45 1503.24 L1376.45 1481.92 Q1376.45 1476.86 1374.48 1474.34 Q1372.5 1471.83 1368.56 1471.83 Q1363.81 1471.83 1361.08 1474.85 Q1358.34 1477.88 1358.34 1483.1 L1358.34 1503.24 L1352.45 1503.24 L1352.45 1467.6 L1358.34 1467.6 L1358.34 1473.13 Q1360.44 1469.92 1363.27 1468.33 Q1366.14 1466.74 1369.86 1466.74 Q1376 1466.74 1379.16 1470.56 Q1382.31 1474.34 1382.31 1481.73 Z" fill="#000000" fill-rule="evenodd" fill-opacity="1" /><path clip-path="url(#clip180)" d="M 0 0 M1416.71 1468.65 L1416.71 1474.18 Q1414.23 1472.91 1411.56 1472.27 Q1408.88 1471.64 1406.02 1471.64 Q1401.66 1471.64 1399.46 1472.97 Q1397.3 1474.31 1397.3 1476.99 Q1397.3 1479.02 1398.86 1480.2 Q1400.42 1481.35 1405.13 1482.4 L1407.13 1482.84 Q1413.37 1484.18 1415.98 1486.63 Q1418.62 1489.05 1418.62 1493.41 Q1418.62 1498.37 1414.68 1501.27 Q1410.76 1504.17 1403.89 1504.17 Q1401.02 1504.17 1397.9 1503.59 Q1394.82 1503.05 1391.38 1501.94 L1391.38 1495.89 Q1394.62 1497.58 1397.78 1498.44 Q1400.93 1499.27 1404.01 1499.27 Q1408.15 1499.27 1410.38 1497.86 Q1412.61 1496.43 1412.61 1493.85 Q1412.61 1491.47 1410.98 1490.19 Q1409.39 1488.92 1403.95 1487.74 L1401.91 1487.27 Q1396.47 1486.12 1394.05 1483.76 Q1391.63 1481.38 1391.63 1477.24 Q1391.63 1472.21 1395.2 1469.47 Q1398.76 1466.74 1405.32 1466.74 Q1408.57 1466.74 1411.43 1467.21 Q1414.29 1467.69 1416.71 1468.65 Z" fill="#000000" fill-rule="evenodd" fill-opacity="1" /><path clip-path="url(#clip180)" d="M 0 0 M1427.03 1453.78 L1432.12 1453.78 Q1436.89 1461.29 1439.25 1468.49 Q1441.63 1475.68 1441.63 1482.78 Q1441.63 1489.91 1439.25 1497.13 Q1436.89 1504.36 1432.12 1511.84 L1427.03 1511.84 Q1431.26 1504.55 1433.33 1497.36 Q1435.43 1490.13 1435.43 1482.78 Q1435.43 1475.43 1433.33 1468.26 Q1431.26 1461.1 1427.03 1453.78 Z" fill="#000000" fill-rule="evenodd" fill-opacity="1" /><polyline clip-path="url(#clip182)" style="stroke:#000000; stroke-width:2; stroke-opacity:0.1; fill:none" points="
  339.739,1330.18 2256.76,1330.18 
  "/>
<polyline clip-path="url(#clip182)" style="stroke:#000000; stroke-width:2; stroke-opacity:0.1; fill:none" points="
  339.739,1000.51 2256.76,1000.51 
  "/>
<polyline clip-path="url(#clip182)" style="stroke:#000000; stroke-width:2; stroke-opacity:0.1; fill:none" points="
  339.739,670.845 2256.76,670.845 
  "/>
<polyline clip-path="url(#clip182)" style="stroke:#000000; stroke-width:2; stroke-opacity:0.1; fill:none" points="
  339.739,341.174 2256.76,341.174 
  "/>
<polyline clip-path="url(#clip180)" style="stroke:#000000; stroke-width:4; stroke-opacity:1; fill:none" points="
  339.739,1359.82 339.739,123.472 
  "/>
<polyline clip-path="url(#clip180)" style="stroke:#000000; stroke-width:4; stroke-opacity:1; fill:none" points="
  339.739,1330.18 362.743,1330.18 
  "/>
<polyline clip-path="url(#clip180)" style="stroke:#000000; stroke-width:4; stroke-opacity:1; fill:none" points="
  339.739,1000.51 362.743,1000.51 
  "/>
<polyline clip-path="url(#clip180)" style="stroke:#000000; stroke-width:4; stroke-opacity:1; fill:none" points="
  339.739,670.845 362.743,670.845 
  "/>
<polyline clip-path="url(#clip180)" style="stroke:#000000; stroke-width:4; stroke-opacity:1; fill:none" points="
  339.739,341.174 362.743,341.174 
  "/>
<path clip-path="url(#clip180)" d="M 0 0 M293.235 1315.98 Q289.623 1315.98 287.795 1319.55 Q285.989 1323.09 285.989 1330.22 Q285.989 1337.33 287.795 1340.89 Q289.623 1344.43 293.235 1344.43 Q296.869 1344.43 298.674 1340.89 Q300.503 1337.33 300.503 1330.22 Q300.503 1323.09 298.674 1319.55 Q296.869 1315.98 293.235 1315.98 M293.235 1312.28 Q299.045 1312.28 302.1 1316.89 Q305.179 1321.47 305.179 1330.22 Q305.179 1338.95 302.1 1343.55 Q299.045 1348.14 293.235 1348.14 Q287.424 1348.14 284.346 1343.55 Q281.29 1338.95 281.29 1330.22 Q281.29 1321.47 284.346 1316.89 Q287.424 1312.28 293.235 1312.28 Z" fill="#000000" fill-rule="evenodd" fill-opacity="1" /><path clip-path="url(#clip180)" d="M 0 0 M121.523 1020.31 L137.842 1020.31 L137.842 1024.24 L115.898 1024.24 L115.898 1020.31 Q118.56 1017.55 123.143 1012.92 Q127.749 1008.27 128.93 1006.93 Q131.175 1004.4 132.055 1002.67 Q132.958 1000.91 132.958 999.219 Q132.958 996.465 131.013 994.729 Q129.092 992.992 125.99 992.992 Q123.791 992.992 121.337 993.756 Q118.907 994.52 116.129 996.071 L116.129 991.349 Q118.953 990.215 121.407 989.636 Q123.86 989.057 125.898 989.057 Q131.268 989.057 134.462 991.742 Q137.657 994.428 137.657 998.918 Q137.657 1001.05 136.847 1002.97 Q136.059 1004.87 133.953 1007.46 Q133.374 1008.13 130.272 1011.35 Q127.171 1014.54 121.523 1020.31 Z" fill="#000000" fill-rule="evenodd" fill-opacity="1" /><path clip-path="url(#clip180)" d="M 0 0 M147.657 1018.36 L152.541 1018.36 L152.541 1024.24 L147.657 1024.24 L147.657 1018.36 Z" fill="#000000" fill-rule="evenodd" fill-opacity="1" /><path clip-path="url(#clip180)" d="M 0 0 M172.726 992.761 Q169.115 992.761 167.286 996.326 Q165.481 999.867 165.481 1007 Q165.481 1014.1 167.286 1017.67 Q169.115 1021.21 172.726 1021.21 Q176.36 1021.21 178.166 1017.67 Q179.994 1014.1 179.994 1007 Q179.994 999.867 178.166 996.326 Q176.36 992.761 172.726 992.761 M172.726 989.057 Q178.536 989.057 181.592 993.664 Q184.67 998.247 184.67 1007 Q184.67 1015.72 181.592 1020.33 Q178.536 1024.91 172.726 1024.91 Q166.916 1024.91 163.837 1020.33 Q160.782 1015.72 160.782 1007 Q160.782 998.247 163.837 993.664 Q166.916 989.057 172.726 989.057 Z" fill="#000000" fill-rule="evenodd" fill-opacity="1" /><path clip-path="url(#clip180)" d="M 0 0 M221.059 998.779 L210.48 1009.4 L221.059 1019.98 L218.304 1022.78 L207.679 1012.16 L197.055 1022.78 L194.323 1019.98 L204.879 1009.4 L194.323 998.779 L197.055 995.979 L207.679 1006.6 L218.304 995.979 L221.059 998.779 Z" fill="#000000" fill-rule="evenodd" fill-opacity="1" /><path clip-path="url(#clip180)" d="M 0 0 M233.42 1020.31 L241.059 1020.31 L241.059 993.942 L232.749 995.608 L232.749 991.349 L241.013 989.682 L245.689 989.682 L245.689 1020.31 L253.327 1020.31 L253.327 1024.24 L233.42 1024.24 L233.42 1020.31 Z" fill="#000000" fill-rule="evenodd" fill-opacity="1" /><path clip-path="url(#clip180)" d="M 0 0 M272.772 992.761 Q269.161 992.761 267.332 996.326 Q265.526 999.867 265.526 1007 Q265.526 1014.1 267.332 1017.67 Q269.161 1021.21 272.772 1021.21 Q276.406 1021.21 278.212 1017.67 Q280.04 1014.1 280.04 1007 Q280.04 999.867 278.212 996.326 Q276.406 992.761 272.772 992.761 M272.772 989.057 Q278.582 989.057 281.637 993.664 Q284.716 998.247 284.716 1007 Q284.716 1015.72 281.637 1020.33 Q278.582 1024.91 272.772 1024.91 Q266.962 1024.91 263.883 1020.33 Q260.827 1015.72 260.827 1007 Q260.827 998.247 263.883 993.664 Q266.962 989.057 272.772 989.057 Z" fill="#000000" fill-rule="evenodd" fill-opacity="1" /><path clip-path="url(#clip180)" d="M 0 0 M297.393 972.062 L287.801 987.052 L297.393 987.052 L297.393 972.062 M296.396 968.752 L301.173 968.752 L301.173 987.052 L305.179 987.052 L305.179 990.212 L301.173 990.212 L301.173 996.832 L297.393 996.832 L297.393 990.212 L284.716 990.212 L284.716 986.544 L296.396 968.752 Z" fill="#000000" fill-rule="evenodd" fill-opacity="1" /><path clip-path="url(#clip180)" d="M 0 0 M130.342 664.086 L118.536 682.535 L130.342 682.535 L130.342 664.086 M129.115 660.012 L134.995 660.012 L134.995 682.535 L139.925 682.535 L139.925 686.424 L134.995 686.424 L134.995 694.572 L130.342 694.572 L130.342 686.424 L114.74 686.424 L114.74 681.91 L129.115 660.012 Z" fill="#000000" fill-rule="evenodd" fill-opacity="1" /><path clip-path="url(#clip180)" d="M 0 0 M147.657 688.693 L152.541 688.693 L152.541 694.572 L147.657 694.572 L147.657 688.693 Z" fill="#000000" fill-rule="evenodd" fill-opacity="1" /><path clip-path="url(#clip180)" d="M 0 0 M172.726 663.091 Q169.115 663.091 167.286 666.656 Q165.481 670.197 165.481 677.327 Q165.481 684.433 167.286 687.998 Q169.115 691.54 172.726 691.54 Q176.36 691.54 178.166 687.998 Q179.994 684.433 179.994 677.327 Q179.994 670.197 178.166 666.656 Q176.36 663.091 172.726 663.091 M172.726 659.387 Q178.536 659.387 181.592 663.994 Q184.67 668.577 184.67 677.327 Q184.67 686.054 181.592 690.66 Q178.536 695.243 172.726 695.243 Q166.916 695.243 163.837 690.66 Q160.782 686.054 160.782 677.327 Q160.782 668.577 163.837 663.994 Q166.916 659.387 172.726 659.387 Z" fill="#000000" fill-rule="evenodd" fill-opacity="1" /><path clip-path="url(#clip180)" d="M 0 0 M221.059 669.109 L210.48 679.734 L221.059 690.313 L218.304 693.114 L207.679 682.489 L197.055 693.114 L194.323 690.313 L204.879 679.734 L194.323 669.109 L197.055 666.308 L207.679 676.933 L218.304 666.308 L221.059 669.109 Z" fill="#000000" fill-rule="evenodd" fill-opacity="1" /><path clip-path="url(#clip180)" d="M 0 0 M233.42 690.637 L241.059 690.637 L241.059 664.271 L232.749 665.938 L232.749 661.679 L241.013 660.012 L245.689 660.012 L245.689 690.637 L253.327 690.637 L253.327 694.572 L233.42 694.572 L233.42 690.637 Z" fill="#000000" fill-rule="evenodd" fill-opacity="1" /><path clip-path="url(#clip180)" d="M 0 0 M272.772 663.091 Q269.161 663.091 267.332 666.656 Q265.526 670.197 265.526 677.327 Q265.526 684.433 267.332 687.998 Q269.161 691.54 272.772 691.54 Q276.406 691.54 278.212 687.998 Q280.04 684.433 280.04 677.327 Q280.04 670.197 278.212 666.656 Q276.406 663.091 272.772 663.091 M272.772 659.387 Q278.582 659.387 281.637 663.994 Q284.716 668.577 284.716 677.327 Q284.716 686.054 281.637 690.66 Q278.582 695.243 272.772 695.243 Q266.962 695.243 263.883 690.66 Q260.827 686.054 260.827 677.327 Q260.827 668.577 263.883 663.994 Q266.962 659.387 272.772 659.387 Z" fill="#000000" fill-rule="evenodd" fill-opacity="1" /><path clip-path="url(#clip180)" d="M 0 0 M297.393 642.392 L287.801 657.382 L297.393 657.382 L297.393 642.392 M296.396 639.082 L301.173 639.082 L301.173 657.382 L305.179 657.382 L305.179 660.541 L301.173 660.541 L301.173 667.162 L297.393 667.162 L297.393 660.541 L284.716 660.541 L284.716 656.874 L296.396 639.082 Z" fill="#000000" fill-rule="evenodd" fill-opacity="1" /><path clip-path="url(#clip180)" d="M 0 0 M128.073 345.759 Q124.925 345.759 123.073 347.911 Q121.245 350.064 121.245 353.814 Q121.245 357.541 123.073 359.717 Q124.925 361.87 128.073 361.87 Q131.222 361.87 133.05 359.717 Q134.902 357.541 134.902 353.814 Q134.902 350.064 133.05 347.911 Q131.222 345.759 128.073 345.759 M137.356 331.106 L137.356 335.365 Q135.597 334.532 133.791 334.092 Q132.009 333.652 130.249 333.652 Q125.62 333.652 123.166 336.777 Q120.735 339.902 120.388 346.221 Q121.754 344.208 123.814 343.143 Q125.874 342.055 128.351 342.055 Q133.56 342.055 136.569 345.226 Q139.601 348.374 139.601 353.814 Q139.601 359.138 136.453 362.356 Q133.305 365.573 128.073 365.573 Q122.078 365.573 118.907 360.99 Q115.736 356.383 115.736 347.657 Q115.736 339.462 119.624 334.601 Q123.513 329.717 130.064 329.717 Q131.823 329.717 133.606 330.064 Q135.411 330.411 137.356 331.106 Z" fill="#000000" fill-rule="evenodd" fill-opacity="1" /><path clip-path="url(#clip180)" d="M 0 0 M147.657 359.022 L152.541 359.022 L152.541 364.902 L147.657 364.902 L147.657 359.022 Z" fill="#000000" fill-rule="evenodd" fill-opacity="1" /><path clip-path="url(#clip180)" d="M 0 0 M172.726 333.421 Q169.115 333.421 167.286 336.985 Q165.481 340.527 165.481 347.657 Q165.481 354.763 167.286 358.328 Q169.115 361.87 172.726 361.87 Q176.36 361.87 178.166 358.328 Q179.994 354.763 179.994 347.657 Q179.994 340.527 178.166 336.985 Q176.36 333.421 172.726 333.421 M172.726 329.717 Q178.536 329.717 181.592 334.323 Q184.67 338.907 184.67 347.657 Q184.67 356.383 181.592 360.99 Q178.536 365.573 172.726 365.573 Q166.916 365.573 163.837 360.99 Q160.782 356.383 160.782 347.657 Q160.782 338.907 163.837 334.323 Q166.916 329.717 172.726 329.717 Z" fill="#000000" fill-rule="evenodd" fill-opacity="1" /><path clip-path="url(#clip180)" d="M 0 0 M221.059 339.439 L210.48 350.064 L221.059 360.643 L218.304 363.444 L207.679 352.819 L197.055 363.444 L194.323 360.643 L204.879 350.064 L194.323 339.439 L197.055 336.638 L207.679 347.263 L218.304 336.638 L221.059 339.439 Z" fill="#000000" fill-rule="evenodd" fill-opacity="1" /><path clip-path="url(#clip180)" d="M 0 0 M233.42 360.967 L241.059 360.967 L241.059 334.601 L232.749 336.268 L232.749 332.009 L241.013 330.342 L245.689 330.342 L245.689 360.967 L253.327 360.967 L253.327 364.902 L233.42 364.902 L233.42 360.967 Z" fill="#000000" fill-rule="evenodd" fill-opacity="1" /><path clip-path="url(#clip180)" d="M 0 0 M272.772 333.421 Q269.161 333.421 267.332 336.985 Q265.526 340.527 265.526 347.657 Q265.526 354.763 267.332 358.328 Q269.161 361.87 272.772 361.87 Q276.406 361.87 278.212 358.328 Q280.04 354.763 280.04 347.657 Q280.04 340.527 278.212 336.985 Q276.406 333.421 272.772 333.421 M272.772 329.717 Q278.582 329.717 281.637 334.323 Q284.716 338.907 284.716 347.657 Q284.716 356.383 281.637 360.99 Q278.582 365.573 272.772 365.573 Q266.962 365.573 263.883 360.99 Q260.827 356.383 260.827 347.657 Q260.827 338.907 263.883 334.323 Q266.962 329.717 272.772 329.717 Z" fill="#000000" fill-rule="evenodd" fill-opacity="1" /><path clip-path="url(#clip180)" d="M 0 0 M297.393 312.722 L287.801 327.711 L297.393 327.711 L297.393 312.722 M296.396 309.412 L301.173 309.412 L301.173 327.711 L305.179 327.711 L305.179 330.871 L301.173 330.871 L301.173 337.492 L297.393 337.492 L297.393 330.871 L284.716 330.871 L284.716 327.204 L296.396 309.412 Z" fill="#000000" fill-rule="evenodd" fill-opacity="1" /><path clip-path="url(#clip180)" d="M 0 0 M24.738 1022.71 L48.3866 1031.43 L48.3866 1013.95 L24.738 1022.71 M18.4042 1026.34 L18.4042 1019.05 L65.9242 1000.94 L65.9242 1007.62 L53.7338 1011.95 L53.7338 1033.37 L65.9242 1037.7 L65.9242 1044.48 L18.4042 1026.34 Z" fill="#000000" fill-rule="evenodd" fill-opacity="1" /><path clip-path="url(#clip180)" d="M 0 0 M30.2762 1002.27 L30.2762 996.067 L60.195 984.927 L30.2762 973.787 L30.2762 967.581 L65.9242 980.949 L65.9242 988.906 L30.2762 1002.27 Z" fill="#000000" fill-rule="evenodd" fill-opacity="1" /><path clip-path="url(#clip180)" d="M 0 0 M47.6864 936.039 Q41.3207 936.039 37.8196 938.681 Q34.3184 941.29 34.3184 946.033 Q34.3184 950.744 37.8196 953.385 Q41.3207 955.995 47.6864 955.995 Q54.0203 955.995 57.5214 953.385 Q61.0226 950.744 61.0226 946.033 Q61.0226 941.29 57.5214 938.681 Q54.0203 936.039 47.6864 936.039 M61.5 930.182 Q70.603 930.182 75.0271 934.225 Q79.4831 938.267 79.4831 946.606 Q79.4831 949.693 79.0057 952.43 Q78.5601 955.168 77.6052 957.746 L71.9079 957.746 Q73.3084 955.168 73.9768 952.653 Q74.6452 950.139 74.6452 947.529 Q74.6452 941.768 71.6215 938.903 Q68.6296 936.039 62.5503 936.039 L59.6539 936.039 Q62.805 937.853 64.3646 940.686 Q65.9242 943.518 65.9242 947.465 Q65.9242 954.022 60.9271 958.032 Q55.93 962.043 47.6864 962.043 Q39.411 962.043 34.4139 958.032 Q29.4168 954.022 29.4168 947.465 Q29.4168 943.518 30.9764 940.686 Q32.536 937.853 35.6871 936.039 L30.2762 936.039 L30.2762 930.182 L61.5 930.182 Z" fill="#000000" fill-rule="evenodd" fill-opacity="1" /><path clip-path="url(#clip180)" d="M 0 0 M60.577 891.733 L79.4831 891.733 L79.4831 897.622 L30.2762 897.622 L30.2762 891.733 L35.6871 891.733 Q32.5042 889.887 30.9764 887.086 Q29.4168 884.254 29.4168 880.339 Q29.4168 873.846 34.5731 869.804 Q39.7293 865.73 48.132 865.73 Q56.5347 865.73 61.691 869.804 Q66.8472 873.846 66.8472 880.339 Q66.8472 884.254 65.3194 887.086 Q63.7598 889.887 60.577 891.733 M48.132 871.809 Q41.6708 871.809 38.0105 874.482 Q34.3184 877.124 34.3184 881.771 Q34.3184 886.418 38.0105 889.092 Q41.6708 891.733 48.132 891.733 Q54.5932 891.733 58.2853 889.092 Q61.9456 886.418 61.9456 881.771 Q61.9456 877.124 58.2853 874.482 Q54.5932 871.809 48.132 871.809 Z" fill="#000000" fill-rule="evenodd" fill-opacity="1" /><path clip-path="url(#clip180)" d="M 0 0 M44.4081 826.389 L65.9242 826.389 L65.9242 832.246 L44.599 832.246 Q39.5383 832.246 37.0238 834.219 Q34.5094 836.193 34.5094 840.139 Q34.5094 844.882 37.5331 847.619 Q40.5568 850.356 45.7767 850.356 L65.9242 850.356 L65.9242 856.245 L16.399 856.245 L16.399 850.356 L35.8144 850.356 Q32.5997 848.256 31.0083 845.423 Q29.4168 842.558 29.4168 838.834 Q29.4168 832.692 33.2363 829.54 Q37.0238 826.389 44.4081 826.389 Z" fill="#000000" fill-rule="evenodd" fill-opacity="1" /><path clip-path="url(#clip180)" d="M 0 0 M34.3821 800.895 Q34.3821 805.605 38.0742 808.343 Q41.7345 811.08 48.132 811.08 Q54.5295 811.08 58.2217 808.375 Q61.8819 805.637 61.8819 800.895 Q61.8819 796.216 58.1898 793.479 Q54.4977 790.741 48.132 790.741 Q41.7981 790.741 38.106 793.479 Q34.3821 796.216 34.3821 800.895 M29.4168 800.895 Q29.4168 793.256 34.3821 788.895 Q39.3473 784.535 48.132 784.535 Q56.8849 784.535 61.8819 788.895 Q66.8472 793.256 66.8472 800.895 Q66.8472 808.565 61.8819 812.926 Q56.8849 817.255 48.132 817.255 Q39.3473 817.255 34.3821 812.926 Q29.4168 808.565 29.4168 800.895 Z" fill="#000000" fill-rule="evenodd" fill-opacity="1" /><path clip-path="url(#clip180)" d="M 0 0 M20.1547 769.034 L30.2762 769.034 L30.2762 756.971 L34.8277 756.971 L34.8277 769.034 L54.1794 769.034 Q58.5399 769.034 59.7813 767.857 Q61.0226 766.647 61.0226 762.987 L61.0226 756.971 L65.9242 756.971 L65.9242 762.987 Q65.9242 769.766 63.4097 772.345 Q60.8634 774.923 54.1794 774.923 L34.8277 774.923 L34.8277 779.22 L30.2762 779.22 L30.2762 774.923 L20.1547 774.923 L20.1547 769.034 Z" fill="#000000" fill-rule="evenodd" fill-opacity="1" /><path clip-path="url(#clip180)" d="M 0 0 M34.3821 735.455 Q34.3821 740.166 38.0742 742.903 Q41.7345 745.64 48.132 745.64 Q54.5295 745.64 58.2217 742.935 Q61.8819 740.198 61.8819 735.455 Q61.8819 730.777 58.1898 728.039 Q54.4977 725.302 48.132 725.302 Q41.7981 725.302 38.106 728.039 Q34.3821 730.777 34.3821 735.455 M29.4168 735.455 Q29.4168 727.816 34.3821 723.456 Q39.3473 719.095 48.132 719.095 Q56.8849 719.095 61.8819 723.456 Q66.8472 727.816 66.8472 735.455 Q66.8472 743.126 61.8819 747.487 Q56.8849 751.815 48.132 751.815 Q39.3473 751.815 34.3821 747.487 Q29.4168 743.126 29.4168 735.455 Z" fill="#000000" fill-rule="evenodd" fill-opacity="1" /><path clip-path="url(#clip180)" d="M 0 0 M44.4081 679.755 L65.9242 679.755 L65.9242 685.612 L44.599 685.612 Q39.5383 685.612 37.0238 687.585 Q34.5094 689.559 34.5094 693.505 Q34.5094 698.248 37.5331 700.985 Q40.5568 703.722 45.7767 703.722 L65.9242 703.722 L65.9242 709.611 L30.2762 709.611 L30.2762 703.722 L35.8144 703.722 Q32.5997 701.622 31.0083 698.789 Q29.4168 695.924 29.4168 692.2 Q29.4168 686.057 33.2363 682.906 Q37.0238 679.755 44.4081 679.755 Z" fill="#000000" fill-rule="evenodd" fill-opacity="1" /><path clip-path="url(#clip180)" d="M 0 0 M31.6448 621.7 L37.1193 621.7 Q35.7507 624.183 35.0823 626.697 Q34.3821 629.18 34.3821 631.726 Q34.3821 637.423 38.0105 640.574 Q41.6072 643.726 48.132 643.726 Q54.6569 643.726 58.2853 640.574 Q61.8819 637.423 61.8819 631.726 Q61.8819 629.18 61.2135 626.697 Q60.5133 624.183 59.1447 621.7 L64.5555 621.7 Q65.7014 624.151 66.2743 626.793 Q66.8472 629.403 66.8472 632.363 Q66.8472 640.415 61.7864 645.158 Q56.7257 649.9 48.132 649.9 Q39.411 649.9 34.4139 645.126 Q29.4168 640.32 29.4168 631.981 Q29.4168 629.275 29.9897 626.697 Q30.5308 624.119 31.6448 621.7 Z" fill="#000000" fill-rule="evenodd" fill-opacity="1" /><path clip-path="url(#clip180)" d="M 0 0 M34.3821 597.701 Q34.3821 602.412 38.0742 605.149 Q41.7345 607.887 48.132 607.887 Q54.5295 607.887 58.2217 605.181 Q61.8819 602.444 61.8819 597.701 Q61.8819 593.023 58.1898 590.285 Q54.4977 587.548 48.132 587.548 Q41.7981 587.548 38.106 590.285 Q34.3821 593.023 34.3821 597.701 M29.4168 597.701 Q29.4168 590.063 34.3821 585.702 Q39.3473 581.342 48.132 581.342 Q56.8849 581.342 61.8819 585.702 Q66.8472 590.063 66.8472 597.701 Q66.8472 605.372 61.8819 609.733 Q56.8849 614.061 48.132 614.061 Q39.3473 614.061 34.3821 609.733 Q29.4168 605.372 29.4168 597.701 Z" fill="#000000" fill-rule="evenodd" fill-opacity="1" /><path clip-path="url(#clip180)" d="M 0 0 M51.8559 572.239 L30.2762 572.239 L30.2762 566.382 L51.6331 566.382 Q56.6939 566.382 59.2402 564.409 Q61.7546 562.435 61.7546 558.489 Q61.7546 553.746 58.7309 551.009 Q55.7072 548.24 50.4873 548.24 L30.2762 548.24 L30.2762 542.383 L65.9242 542.383 L65.9242 548.24 L60.4496 548.24 Q63.6962 550.372 65.2876 553.205 Q66.8472 556.006 66.8472 559.73 Q66.8472 565.873 63.0278 569.056 Q59.2083 572.239 51.8559 572.239 M29.4168 557.502 L29.4168 557.502 Z" fill="#000000" fill-rule="evenodd" fill-opacity="1" /><path clip-path="url(#clip180)" d="M 0 0 M44.4081 500.688 L65.9242 500.688 L65.9242 506.545 L44.599 506.545 Q39.5383 506.545 37.0238 508.518 Q34.5094 510.491 34.5094 514.438 Q34.5094 519.18 37.5331 521.918 Q40.5568 524.655 45.7767 524.655 L65.9242 524.655 L65.9242 530.543 L30.2762 530.543 L30.2762 524.655 L35.8144 524.655 Q32.5997 522.554 31.0083 519.722 Q29.4168 516.857 29.4168 513.133 Q29.4168 506.99 33.2363 503.839 Q37.0238 500.688 44.4081 500.688 Z" fill="#000000" fill-rule="evenodd" fill-opacity="1" /><path clip-path="url(#clip180)" d="M 0 0 M20.1547 483.214 L30.2762 483.214 L30.2762 471.151 L34.8277 471.151 L34.8277 483.214 L54.1794 483.214 Q58.5399 483.214 59.7813 482.037 Q61.0226 480.827 61.0226 477.167 L61.0226 471.151 L65.9242 471.151 L65.9242 477.167 Q65.9242 483.946 63.4097 486.524 Q60.8634 489.102 54.1794 489.102 L34.8277 489.102 L34.8277 493.399 L30.2762 493.399 L30.2762 489.102 L20.1547 489.102 L20.1547 483.214 Z" fill="#000000" fill-rule="evenodd" fill-opacity="1" /><path clip-path="url(#clip180)" d="M 0 0 M31.3265 440.723 L36.8647 440.723 Q35.5916 443.206 34.955 445.879 Q34.3184 448.553 34.3184 451.418 Q34.3184 455.778 35.6552 457.974 Q36.992 460.139 39.6656 460.139 Q41.7026 460.139 42.8803 458.579 Q44.0261 457.019 45.0765 452.309 L45.5221 450.304 Q46.8589 444.065 49.3097 441.455 Q51.7286 438.813 56.0891 438.813 Q61.0544 438.813 63.9508 442.76 Q66.8472 446.675 66.8472 453.55 Q66.8472 456.415 66.2743 459.534 Q65.7332 462.621 64.6192 466.059 L58.5718 466.059 Q60.2587 462.812 61.118 459.661 Q61.9456 456.51 61.9456 453.423 Q61.9456 449.285 60.5451 447.057 Q59.1129 444.829 56.5347 444.829 Q54.1476 444.829 52.8745 446.452 Q51.6013 448.044 50.4237 453.486 L49.9462 455.523 Q48.8004 460.966 46.4451 463.385 Q44.058 465.804 39.9202 465.804 Q34.8913 465.804 32.1541 462.239 Q29.4168 458.674 29.4168 452.118 Q29.4168 448.871 29.8943 446.007 Q30.3717 443.142 31.3265 440.723 Z" fill="#000000" fill-rule="evenodd" fill-opacity="1" /><path clip-path="url(#clip180)" d="M 0 0 M668.312 20.1573 L657.212 50.2555 L679.452 50.2555 L668.312 20.1573 M663.694 12.096 L672.97 12.096 L696.02 72.576 L687.513 72.576 L682.004 57.061 L654.741 57.061 L649.232 72.576 L640.603 72.576 L663.694 12.096 Z" fill="#000000" fill-rule="evenodd" fill-opacity="1" /><path clip-path="url(#clip180)" d="M 0 0 M694.318 27.2059 L702.218 27.2059 L716.396 65.2844 L730.574 27.2059 L738.473 27.2059 L721.459 72.576 L711.332 72.576 L694.318 27.2059 Z" fill="#000000" fill-rule="evenodd" fill-opacity="1" /><path clip-path="url(#clip180)" d="M 0 0 M787.57 48.0275 L787.57 51.6733 L753.3 51.6733 Q753.786 59.3701 757.918 63.421 Q762.09 67.4314 769.503 67.4314 Q773.797 67.4314 777.808 66.3781 Q781.858 65.3249 785.828 63.2184 L785.828 70.267 Q781.818 71.9684 777.605 72.8596 Q773.392 73.7508 769.058 73.7508 Q758.201 73.7508 751.841 67.4314 Q745.522 61.1119 745.522 50.3365 Q745.522 39.1965 751.517 32.6746 Q757.553 26.1121 767.761 26.1121 Q776.916 26.1121 782.223 32.0264 Q787.57 37.9003 787.57 48.0275 M780.117 45.84 Q780.036 39.7232 776.673 36.0774 Q773.352 32.4315 767.842 32.4315 Q761.604 32.4315 757.837 35.9558 Q754.11 39.4801 753.543 45.8805 L780.117 45.84 Z" fill="#000000" fill-rule="evenodd" fill-opacity="1" /><path clip-path="url(#clip180)" d="M 0 0 M826.094 34.1734 Q824.839 33.4443 823.34 33.1202 Q821.881 32.7556 820.099 32.7556 Q813.78 32.7556 810.377 36.8875 Q807.015 40.9789 807.015 48.6757 L807.015 72.576 L799.52 72.576 L799.52 27.2059 L807.015 27.2059 L807.015 34.2544 Q809.364 30.1225 813.131 28.1376 Q816.899 26.1121 822.286 26.1121 Q823.056 26.1121 823.988 26.2337 Q824.92 26.3147 826.054 26.5172 L826.094 34.1734 Z" fill="#000000" fill-rule="evenodd" fill-opacity="1" /><path clip-path="url(#clip180)" d="M 0 0 M854.532 49.7694 Q845.498 49.7694 842.014 51.8354 Q838.531 53.9013 838.531 58.8839 Q838.531 62.8538 841.123 65.2034 Q843.756 67.5124 848.253 67.5124 Q854.451 67.5124 858.177 63.1374 Q861.945 58.7219 861.945 51.4303 L861.945 49.7694 L854.532 49.7694 M869.398 46.6907 L869.398 72.576 L861.945 72.576 L861.945 65.6895 Q859.393 69.8214 855.585 71.8063 Q851.777 73.7508 846.268 73.7508 Q839.3 73.7508 835.168 69.8619 Q831.077 65.9325 831.077 59.3701 Q831.077 51.7138 836.181 47.825 Q841.326 43.9361 851.493 43.9361 L861.945 43.9361 L861.945 43.2069 Q861.945 38.0623 858.542 35.2672 Q855.18 32.4315 849.063 32.4315 Q845.174 32.4315 841.488 33.3632 Q837.801 34.295 834.399 36.1584 L834.399 29.2718 Q838.49 27.692 842.338 26.9223 Q846.187 26.1121 849.833 26.1121 Q859.676 26.1121 864.537 31.2163 Q869.398 36.3204 869.398 46.6907 Z" fill="#000000" fill-rule="evenodd" fill-opacity="1" /><path clip-path="url(#clip180)" d="M 0 0 M914.607 49.3643 Q914.607 41.2625 911.244 36.8065 Q907.923 32.3505 901.887 32.3505 Q895.891 32.3505 892.529 36.8065 Q889.207 41.2625 889.207 49.3643 Q889.207 57.4256 892.529 61.8816 Q895.891 66.3376 901.887 66.3376 Q907.923 66.3376 911.244 61.8816 Q914.607 57.4256 914.607 49.3643 M922.06 66.9452 Q922.06 78.5308 916.916 84.1616 Q911.771 89.8329 901.158 89.8329 Q897.228 89.8329 893.744 89.2252 Q890.261 88.6581 886.979 87.4428 L886.979 80.1917 Q890.261 81.9741 893.461 82.8248 Q896.661 83.6755 899.983 83.6755 Q907.315 83.6755 910.961 79.8271 Q914.607 76.0193 914.607 68.282 L914.607 64.5957 Q912.298 68.6061 908.692 70.5911 Q905.087 72.576 900.064 72.576 Q891.719 72.576 886.615 66.2161 Q881.511 59.8562 881.511 49.3643 Q881.511 38.832 886.615 32.472 Q891.719 26.1121 900.064 26.1121 Q905.087 26.1121 908.692 28.0971 Q912.298 30.082 914.607 34.0924 L914.607 27.2059 L922.06 27.2059 L922.06 66.9452 Z" fill="#000000" fill-rule="evenodd" fill-opacity="1" /><path clip-path="url(#clip180)" d="M 0 0 M976.221 48.0275 L976.221 51.6733 L941.95 51.6733 Q942.436 59.3701 946.568 63.421 Q950.741 67.4314 958.154 67.4314 Q962.448 67.4314 966.458 66.3781 Q970.509 65.3249 974.479 63.2184 L974.479 70.267 Q970.469 71.9684 966.256 72.8596 Q962.043 73.7508 957.708 73.7508 Q946.852 73.7508 940.492 67.4314 Q934.172 61.1119 934.172 50.3365 Q934.172 39.1965 940.168 32.6746 Q946.204 26.1121 956.412 26.1121 Q965.567 26.1121 970.874 32.0264 Q976.221 37.9003 976.221 48.0275 M968.767 45.84 Q968.686 39.7232 965.324 36.0774 Q962.002 32.4315 956.493 32.4315 Q950.255 32.4315 946.487 35.9558 Q942.76 39.4801 942.193 45.8805 L968.767 45.84 Z" fill="#000000" fill-rule="evenodd" fill-opacity="1" /><path clip-path="url(#clip180)" d="M 0 0 M1023.33 18.8205 L1023.33 41.5461 L1033.62 41.5461 Q1039.33 41.5461 1042.45 38.5889 Q1045.57 35.6318 1045.57 30.163 Q1045.57 24.7348 1042.45 21.7777 Q1039.33 18.8205 1033.62 18.8205 L1023.33 18.8205 M1015.15 12.096 L1033.62 12.096 Q1043.79 12.096 1048.98 16.714 Q1054.2 21.2916 1054.2 30.163 Q1054.2 39.1155 1048.98 43.6931 Q1043.79 48.2706 1033.62 48.2706 L1023.33 48.2706 L1023.33 72.576 L1015.15 72.576 L1015.15 12.096 Z" fill="#000000" fill-rule="evenodd" fill-opacity="1" /><path clip-path="url(#clip180)" d="M 0 0 M1102.57 45.1919 L1102.57 72.576 L1095.11 72.576 L1095.11 45.4349 Q1095.11 38.994 1092.6 35.7938 Q1090.09 32.5936 1085.07 32.5936 Q1079.03 32.5936 1075.55 36.4419 Q1072.07 40.2903 1072.07 46.9338 L1072.07 72.576 L1064.57 72.576 L1064.57 9.54393 L1072.07 9.54393 L1072.07 34.2544 Q1074.74 30.163 1078.34 28.1376 Q1081.99 26.1121 1086.73 26.1121 Q1094.55 26.1121 1098.56 30.9732 Q1102.57 35.7938 1102.57 45.1919 Z" fill="#000000" fill-rule="evenodd" fill-opacity="1" /><path clip-path="url(#clip180)" d="M 0 0 M1135.02 32.4315 Q1129.02 32.4315 1125.54 37.1306 Q1122.05 41.7891 1122.05 49.9314 Q1122.05 58.0738 1125.5 62.7728 Q1128.98 67.4314 1135.02 67.4314 Q1140.97 67.4314 1144.45 62.7323 Q1147.94 58.0333 1147.94 49.9314 Q1147.94 41.8701 1144.45 37.1711 Q1140.97 32.4315 1135.02 32.4315 M1135.02 26.1121 Q1144.74 26.1121 1150.29 32.4315 Q1155.84 38.7509 1155.84 49.9314 Q1155.84 61.0714 1150.29 67.4314 Q1144.74 73.7508 1135.02 73.7508 Q1125.25 73.7508 1119.7 67.4314 Q1114.19 61.0714 1114.19 49.9314 Q1114.19 38.7509 1119.7 32.4315 Q1125.25 26.1121 1135.02 26.1121 Z" fill="#000000" fill-rule="evenodd" fill-opacity="1" /><path clip-path="url(#clip180)" d="M 0 0 M1175.57 14.324 L1175.57 27.2059 L1190.92 27.2059 L1190.92 32.9987 L1175.57 32.9987 L1175.57 57.6282 Q1175.57 63.1779 1177.06 64.7578 Q1178.6 66.3376 1183.26 66.3376 L1190.92 66.3376 L1190.92 72.576 L1183.26 72.576 Q1174.63 72.576 1171.35 69.3758 Q1168.07 66.1351 1168.07 57.6282 L1168.07 32.9987 L1162.6 32.9987 L1162.6 27.2059 L1168.07 27.2059 L1168.07 14.324 L1175.57 14.324 Z" fill="#000000" fill-rule="evenodd" fill-opacity="1" /><path clip-path="url(#clip180)" d="M 0 0 M1218.3 32.4315 Q1212.31 32.4315 1208.82 37.1306 Q1205.34 41.7891 1205.34 49.9314 Q1205.34 58.0738 1208.78 62.7728 Q1212.27 67.4314 1218.3 67.4314 Q1224.26 67.4314 1227.74 62.7323 Q1231.23 58.0333 1231.23 49.9314 Q1231.23 41.8701 1227.74 37.1711 Q1224.26 32.4315 1218.3 32.4315 M1218.3 26.1121 Q1228.03 26.1121 1233.57 32.4315 Q1239.12 38.7509 1239.12 49.9314 Q1239.12 61.0714 1233.57 67.4314 Q1228.03 73.7508 1218.3 73.7508 Q1208.54 73.7508 1202.99 67.4314 Q1197.48 61.0714 1197.48 49.9314 Q1197.48 38.7509 1202.99 32.4315 Q1208.54 26.1121 1218.3 26.1121 Z" fill="#000000" fill-rule="evenodd" fill-opacity="1" /><path clip-path="url(#clip180)" d="M 0 0 M1289.19 45.1919 L1289.19 72.576 L1281.74 72.576 L1281.74 45.4349 Q1281.74 38.994 1279.23 35.7938 Q1276.72 32.5936 1271.69 32.5936 Q1265.66 32.5936 1262.17 36.4419 Q1258.69 40.2903 1258.69 46.9338 L1258.69 72.576 L1251.2 72.576 L1251.2 27.2059 L1258.69 27.2059 L1258.69 34.2544 Q1261.36 30.163 1264.97 28.1376 Q1268.62 26.1121 1273.35 26.1121 Q1281.17 26.1121 1285.18 30.9732 Q1289.19 35.7938 1289.19 45.1919 Z" fill="#000000" fill-rule="evenodd" fill-opacity="1" /><path clip-path="url(#clip180)" d="M 0 0 M1376.05 16.7545 L1376.05 25.383 Q1371.91 21.5346 1367.21 19.6307 Q1362.56 17.7268 1357.29 17.7268 Q1346.92 17.7268 1341.41 24.0867 Q1335.9 30.4061 1335.9 42.3968 Q1335.9 54.3469 1341.41 60.7069 Q1346.92 67.0263 1357.29 67.0263 Q1362.56 67.0263 1367.21 65.1223 Q1371.91 63.2184 1376.05 59.3701 L1376.05 67.9175 Q1371.75 70.8341 1366.93 72.2924 Q1362.15 73.7508 1356.8 73.7508 Q1343.07 73.7508 1335.17 65.3654 Q1327.27 56.9395 1327.27 42.3968 Q1327.27 27.8135 1335.17 19.4281 Q1343.07 11.0023 1356.8 11.0023 Q1362.23 11.0023 1367.01 12.4606 Q1371.83 13.8784 1376.05 16.7545 Z" fill="#000000" fill-rule="evenodd" fill-opacity="1" /><path clip-path="url(#clip180)" d="M 0 0 M1405.94 32.4315 Q1399.95 32.4315 1396.46 37.1306 Q1392.98 41.7891 1392.98 49.9314 Q1392.98 58.0738 1396.42 62.7728 Q1399.9 67.4314 1405.94 67.4314 Q1411.9 67.4314 1415.38 62.7323 Q1418.86 58.0333 1418.86 49.9314 Q1418.86 41.8701 1415.38 37.1711 Q1411.9 32.4315 1405.94 32.4315 M1405.94 26.1121 Q1415.66 26.1121 1421.21 32.4315 Q1426.76 38.7509 1426.76 49.9314 Q1426.76 61.0714 1421.21 67.4314 Q1415.66 73.7508 1405.94 73.7508 Q1396.18 73.7508 1390.63 67.4314 Q1385.12 61.0714 1385.12 49.9314 Q1385.12 38.7509 1390.63 32.4315 Q1396.18 26.1121 1405.94 26.1121 Z" fill="#000000" fill-rule="evenodd" fill-opacity="1" /><path clip-path="url(#clip180)" d="M 0 0 M1438.35 54.671 L1438.35 27.2059 L1445.8 27.2059 L1445.8 54.3874 Q1445.8 60.8284 1448.31 64.0691 Q1450.82 67.2693 1455.85 67.2693 Q1461.88 67.2693 1465.37 63.421 Q1468.89 59.5726 1468.89 52.9291 L1468.89 27.2059 L1476.35 27.2059 L1476.35 72.576 L1468.89 72.576 L1468.89 65.6084 Q1466.18 69.7404 1462.57 71.7658 Q1459.01 73.7508 1454.27 73.7508 Q1446.45 73.7508 1442.4 68.8897 Q1438.35 64.0286 1438.35 54.671 M1457.1 26.1121 L1457.1 26.1121 Z" fill="#000000" fill-rule="evenodd" fill-opacity="1" /><path clip-path="url(#clip180)" d="M 0 0 M1529.41 45.1919 L1529.41 72.576 L1521.96 72.576 L1521.96 45.4349 Q1521.96 38.994 1519.45 35.7938 Q1516.94 32.5936 1511.91 32.5936 Q1505.88 32.5936 1502.39 36.4419 Q1498.91 40.2903 1498.91 46.9338 L1498.91 72.576 L1491.41 72.576 L1491.41 27.2059 L1498.91 27.2059 L1498.91 34.2544 Q1501.58 30.163 1505.19 28.1376 Q1508.83 26.1121 1513.57 26.1121 Q1521.39 26.1121 1525.4 30.9732 Q1529.41 35.7938 1529.41 45.1919 Z" fill="#000000" fill-rule="evenodd" fill-opacity="1" /><path clip-path="url(#clip180)" d="M 0 0 M1551.65 14.324 L1551.65 27.2059 L1567 27.2059 L1567 32.9987 L1551.65 32.9987 L1551.65 57.6282 Q1551.65 63.1779 1553.15 64.7578 Q1554.69 66.3376 1559.35 66.3376 L1567 66.3376 L1567 72.576 L1559.35 72.576 Q1550.72 72.576 1547.44 69.3758 Q1544.16 66.1351 1544.16 57.6282 L1544.16 32.9987 L1538.69 32.9987 L1538.69 27.2059 L1544.16 27.2059 L1544.16 14.324 L1551.65 14.324 Z" fill="#000000" fill-rule="evenodd" fill-opacity="1" /><path clip-path="url(#clip180)" d="M 0 0 M1605.73 28.5427 L1605.73 35.5912 Q1602.57 33.9709 1599.17 33.1607 Q1595.77 32.3505 1592.12 32.3505 Q1586.57 32.3505 1583.78 34.0519 Q1581.02 35.7533 1581.02 39.156 Q1581.02 41.7486 1583.01 43.2475 Q1584.99 44.7058 1590.99 46.0426 L1593.54 46.6097 Q1601.48 48.3111 1604.8 51.4303 Q1608.16 54.509 1608.16 60.0587 Q1608.16 66.3781 1603.14 70.0644 Q1598.16 73.7508 1589.41 73.7508 Q1585.76 73.7508 1581.79 73.0216 Q1577.86 72.3329 1573.49 70.9151 L1573.49 63.2184 Q1577.62 65.3654 1581.63 66.4591 Q1585.64 67.5124 1589.57 67.5124 Q1594.83 67.5124 1597.67 65.73 Q1600.51 63.9071 1600.51 60.6258 Q1600.51 57.5877 1598.44 55.9673 Q1596.41 54.3469 1589.49 52.8481 L1586.89 52.2405 Q1579.97 50.7821 1576.89 47.7845 Q1573.81 44.7463 1573.81 39.4801 Q1573.81 33.0797 1578.35 29.5959 Q1582.88 26.1121 1591.23 26.1121 Q1595.36 26.1121 1599.01 26.7198 Q1602.65 27.3274 1605.73 28.5427 Z" fill="#000000" fill-rule="evenodd" fill-opacity="1" /><path clip-path="url(#clip180)" d="M 0 0 M1641.06 27.2059 L1648.95 27.2059 L1663.13 65.2844 L1677.31 27.2059 L1685.21 27.2059 L1668.2 72.576 L1658.07 72.576 L1641.06 27.2059 Z" fill="#000000" fill-rule="evenodd" fill-opacity="1" /><path clip-path="url(#clip180)" d="M 0 0 M1724.42 28.5427 L1724.42 35.5912 Q1721.26 33.9709 1717.86 33.1607 Q1714.46 32.3505 1710.81 32.3505 Q1705.26 32.3505 1702.47 34.0519 Q1699.71 35.7533 1699.71 39.156 Q1699.71 41.7486 1701.7 43.2475 Q1703.68 44.7058 1709.68 46.0426 L1712.23 46.6097 Q1720.17 48.3111 1723.49 51.4303 Q1726.85 54.509 1726.85 60.0587 Q1726.85 66.3781 1721.83 70.0644 Q1716.85 73.7508 1708.1 73.7508 Q1704.45 73.7508 1700.48 73.0216 Q1696.55 72.3329 1692.18 70.9151 L1692.18 63.2184 Q1696.31 65.3654 1700.32 66.4591 Q1704.33 67.5124 1708.26 67.5124 Q1713.53 67.5124 1716.36 65.73 Q1719.2 63.9071 1719.2 60.6258 Q1719.2 57.5877 1717.13 55.9673 Q1715.11 54.3469 1708.18 52.8481 L1705.59 52.2405 Q1698.66 50.7821 1695.58 47.7845 Q1692.5 44.7463 1692.5 39.4801 Q1692.5 33.0797 1697.04 29.5959 Q1701.58 26.1121 1709.92 26.1121 Q1714.05 26.1121 1717.7 26.7198 Q1721.34 27.3274 1724.42 28.5427 Z" fill="#000000" fill-rule="evenodd" fill-opacity="1" /><path clip-path="url(#clip180)" d="M 0 0 M1757.03 12.096 L1808.2 12.096 L1808.2 18.9825 L1786.73 18.9825 L1786.73 72.576 L1778.5 72.576 L1778.5 18.9825 L1757.03 18.9825 L1757.03 12.096 Z" fill="#000000" fill-rule="evenodd" fill-opacity="1" /><path clip-path="url(#clip180)" d="M 0 0 M1813.22 27.2059 L1820.67 27.2059 L1820.67 72.576 L1813.22 72.576 L1813.22 27.2059 M1813.22 9.54393 L1820.67 9.54393 L1820.67 18.9825 L1813.22 18.9825 L1813.22 9.54393 Z" fill="#000000" fill-rule="evenodd" fill-opacity="1" /><path clip-path="url(#clip180)" d="M 0 0 M1871.59 35.9153 Q1874.39 30.8922 1878.28 28.5022 Q1882.17 26.1121 1887.43 26.1121 Q1894.52 26.1121 1898.37 31.0947 Q1902.22 36.0368 1902.22 45.1919 L1902.22 72.576 L1894.72 72.576 L1894.72 45.4349 Q1894.72 38.913 1892.41 35.7533 Q1890.1 32.5936 1885.37 32.5936 Q1879.57 32.5936 1876.21 36.4419 Q1872.85 40.2903 1872.85 46.9338 L1872.85 72.576 L1865.35 72.576 L1865.35 45.4349 Q1865.35 38.8725 1863.04 35.7533 Q1860.74 32.5936 1855.92 32.5936 Q1850.2 32.5936 1846.84 36.4824 Q1843.48 40.3308 1843.48 46.9338 L1843.48 72.576 L1835.98 72.576 L1835.98 27.2059 L1843.48 27.2059 L1843.48 34.2544 Q1846.03 30.082 1849.6 28.0971 Q1853.16 26.1121 1858.06 26.1121 Q1863 26.1121 1866.45 28.6237 Q1869.93 31.1352 1871.59 35.9153 Z" fill="#000000" fill-rule="evenodd" fill-opacity="1" /><path clip-path="url(#clip180)" d="M 0 0 M1955.89 48.0275 L1955.89 51.6733 L1921.62 51.6733 Q1922.11 59.3701 1926.24 63.421 Q1930.41 67.4314 1937.82 67.4314 Q1942.12 67.4314 1946.13 66.3781 Q1950.18 65.3249 1954.15 63.2184 L1954.15 70.267 Q1950.14 71.9684 1945.93 72.8596 Q1941.71 73.7508 1937.38 73.7508 Q1926.52 73.7508 1920.16 67.4314 Q1913.84 61.1119 1913.84 50.3365 Q1913.84 39.1965 1919.84 32.6746 Q1925.87 26.1121 1936.08 26.1121 Q1945.24 26.1121 1950.54 32.0264 Q1955.89 37.9003 1955.89 48.0275 M1948.44 45.84 Q1948.36 39.7232 1944.99 36.0774 Q1941.67 32.4315 1936.16 32.4315 Q1929.93 32.4315 1926.16 35.9558 Q1922.43 39.4801 1921.86 45.8805 L1948.44 45.84 Z" fill="#000000" fill-rule="evenodd" fill-opacity="1" /><polyline clip-path="url(#clip182)" style="stroke:#009af9; stroke-width:4; stroke-opacity:1; fill:none" points="
  393.994,1266.6 403.037,756.61 412.079,1114.22 421.122,979.347 430.164,1323.71 439.207,1255.73 448.249,1208.68 457.292,1289.3 466.334,664.741 475.377,1323.19 
  484.419,1211.9 493.462,1220.78 502.505,960.63 511.547,1299.73 520.59,1218.03 529.632,661.604 538.675,1197.58 547.717,1161.14 556.76,1272.31 565.802,919.574 
  574.845,1114.85 583.887,956.156 592.93,1293.23 601.972,1295.97 611.015,1074.55 620.057,1233.76 629.1,1153.77 638.143,1115.95 647.185,929.521 656.228,821.915 
  665.27,1304.57 674.313,1114.59 683.355,984.745 692.398,1285.8 701.44,853.025 710.483,1269.82 719.525,903.356 728.568,1284.24 737.61,1086.78 746.653,875.735 
  755.695,1132.31 764.738,1281.29 773.781,1055.2 782.823,1266.17 791.866,1304.62 800.908,1199.87 809.951,972.8 818.993,1128.77 828.036,1228.76 837.078,1032.23 
  846.121,1324.83 855.163,1203.19 864.206,1129.36 873.248,1152.37 882.291,811.658 891.333,1129.54 900.376,1324.82 909.419,1244.46 918.461,1322.52 927.504,804.803 
  936.546,1263.55 945.589,894.707 954.631,969.745 963.674,963.94 972.716,1139.55 981.759,1250.92 990.801,1221.76 999.844,1207.45 1008.89,1194.34 1017.93,1111.61 
  1026.97,931.029 1036.01,1063.17 1045.06,1222.08 1054.1,1272.02 1063.14,1269.69 1072.18,1254.6 1081.23,1199.51 1090.27,1192 1099.31,971.422 1108.35,1060.14 
  1117.4,1314.16 1126.44,854.356 1135.48,893.398 1144.52,1306.6 1153.57,1283.9 1162.61,959.991 1171.65,1186.04 1180.69,1299.39 1189.74,712.446 1198.78,1061.58 
  1207.82,1274.02 1216.86,1156.3 1225.91,511.016 1234.95,1051.16 1243.99,1188.14 1253.03,784.977 1262.08,1206.81 1271.12,1302.29 1280.16,1169.88 1289.2,975.075 
  1298.25,1212.73 1307.29,1246.27 1316.33,726.041 1325.38,1315.37 1334.42,1200.94 1343.46,1282.23 1352.5,1318.24 1361.55,1108.58 1370.59,741.922 1379.63,771.142 
  1388.67,1108.51 1397.72,1185 1406.76,1241.12 1415.8,1190.24 1424.84,1207.1 1433.89,158.463 1442.93,1248.65 1451.97,1158.32 1461.01,962.831 1470.06,1282.88 
  1479.1,1262.37 1488.14,841.539 1497.18,462.35 1506.23,1292.1 1515.27,1036.19 1524.31,809.001 1533.35,1100.61 1542.4,1278.69 1551.44,1138.51 1560.48,1215.82 
  1569.52,1015.44 1578.57,1044.43 1587.61,1170.42 1596.65,1194.62 1605.69,944.569 1614.74,1265.25 1623.78,1073.89 1632.82,412.963 1641.86,1297.52 1650.91,1292.63 
  1659.95,1254.42 1668.99,1129.74 1678.03,1265.04 1687.08,1058.21 1696.12,599.454 1705.16,1075.23 1714.2,1267.34 1723.25,1181.19 1732.29,1116.41 1741.33,1304.59 
  1750.37,1322.19 1759.42,874.965 1768.46,571.389 1777.5,1149.2 1786.54,1321.26 1795.59,902.569 1804.63,1303.36 1813.67,1300.11 1822.71,618.931 1831.76,964.949 
  1840.8,1209.02 1849.84,1248.57 1858.88,1301.67 1867.93,1324.2 1876.97,557.794 1886.01,800.274 1895.05,1155.44 1904.1,974.806 1913.14,1324.35 1922.18,1130.76 
  1931.22,1134.84 1940.27,612.311 1949.31,1180.9 1958.35,1319.29 1967.39,517.919 1976.44,1130.75 1985.48,1151.41 1994.52,596.067 2003.56,968.897 2012.61,1324.64 
  2021.65,900.43 2030.69,1237.78 2039.74,873.399 2048.78,1191.87 2057.82,1245.43 2066.86,1001.57 2075.91,1144.92 2084.95,940.294 2093.99,1324.74 2103.03,1180.85 
  2112.08,1267.99 2121.12,1134.37 2130.16,1315.98 2139.2,1183.48 2148.25,1096.69 2157.29,1304.62 2166.33,1289.74 2175.37,1007.85 2184.42,1281.22 2193.46,1031.52 
  2202.5,977.949 
  "/>
</svg>
