<?xml version="1.0" encoding="utf-8"?>
<svg xmlns="http://www.w3.org/2000/svg" xmlns:xlink="http://www.w3.org/1999/xlink" width="576" height="384" viewBox="0 0 2304 1536">
<defs>
  <clipPath id="clip850">
    <rect x="0" y="0" width="2304" height="1536"/>
  </clipPath>
</defs>
<path clip-path="url(#clip850)" d="
M0 1536 L2304 1536 L2304 0 L0 0  Z
  " fill="#ffffff" fill-rule="evenodd" fill-opacity="1"/>
<defs>
  <clipPath id="clip851">
    <rect x="460" y="0" width="1614" height="1536"/>
  </clipPath>
</defs>
<defs>
  <clipPath id="clip852">
    <rect x="219" y="123" width="2038" height="1237"/>
  </clipPath>
</defs>
<path clip-path="url(#clip850)" d="
M295.513 1359.82 L2256.76 1359.82 L2256.76 123.472 L295.513 123.472  Z
  " fill="#ffffff" fill-rule="evenodd" fill-opacity="1"/>
<defs>
  <clipPath id="clip853">
    <rect x="295" y="123" width="1962" height="1237"/>
  </clipPath>
</defs>
<polyline clip-path="url(#clip853)" style="stroke:#000000; stroke-width:2; stroke-opacity:0.1; fill:none" points="
  351.02,1359.82 351.02,123.472 
  "/>
<polyline clip-path="url(#clip853)" style="stroke:#000000; stroke-width:2; stroke-opacity:0.1; fill:none" points="
  721.441,1359.82 721.441,123.472 
  "/>
<polyline clip-path="url(#clip853)" style="stroke:#000000; stroke-width:2; stroke-opacity:0.1; fill:none" points="
  1091.86,1359.82 1091.86,123.472 
  "/>
<polyline clip-path="url(#clip853)" style="stroke:#000000; stroke-width:2; stroke-opacity:0.1; fill:none" points="
  1462.28,1359.82 1462.28,123.472 
  "/>
<polyline clip-path="url(#clip853)" style="stroke:#000000; stroke-width:2; stroke-opacity:0.1; fill:none" points="
  1832.7,1359.82 1832.7,123.472 
  "/>
<polyline clip-path="url(#clip853)" style="stroke:#000000; stroke-width:2; stroke-opacity:0.1; fill:none" points="
  2203.12,1359.82 2203.12,123.472 
  "/>
<polyline clip-path="url(#clip850)" style="stroke:#000000; stroke-width:4; stroke-opacity:1; fill:none" points="
  295.513,1359.82 2256.76,1359.82 
  "/>
<polyline clip-path="url(#clip850)" style="stroke:#000000; stroke-width:4; stroke-opacity:1; fill:none" points="
  351.02,1359.82 351.02,1344.98 
  "/>
<polyline clip-path="url(#clip850)" style="stroke:#000000; stroke-width:4; stroke-opacity:1; fill:none" points="
  721.441,1359.82 721.441,1344.98 
  "/>
<polyline clip-path="url(#clip850)" style="stroke:#000000; stroke-width:4; stroke-opacity:1; fill:none" points="
  1091.86,1359.82 1091.86,1344.98 
  "/>
<polyline clip-path="url(#clip850)" style="stroke:#000000; stroke-width:4; stroke-opacity:1; fill:none" points="
  1462.28,1359.82 1462.28,1344.98 
  "/>
<polyline clip-path="url(#clip850)" style="stroke:#000000; stroke-width:4; stroke-opacity:1; fill:none" points="
  1832.7,1359.82 1832.7,1344.98 
  "/>
<polyline clip-path="url(#clip850)" style="stroke:#000000; stroke-width:4; stroke-opacity:1; fill:none" points="
  2203.12,1359.82 2203.12,1344.98 
  "/>
<path clip-path="url(#clip850)" d="M 0 0 M351.02 1388.24 Q347.409 1388.24 345.581 1391.81 Q343.775 1395.35 343.775 1402.48 Q343.775 1409.59 345.581 1413.15 Q347.409 1416.69 351.02 1416.69 Q354.655 1416.69 356.46 1413.15 Q358.289 1409.59 358.289 1402.48 Q358.289 1395.35 356.46 1391.81 Q354.655 1388.24 351.02 1388.24 M351.02 1384.54 Q356.83 1384.54 359.886 1389.15 Q362.965 1393.73 362.965 1402.48 Q362.965 1411.21 359.886 1415.81 Q356.83 1420.4 351.02 1420.4 Q345.21 1420.4 342.131 1415.81 Q339.076 1411.21 339.076 1402.48 Q339.076 1393.73 342.131 1389.15 Q345.21 1384.54 351.02 1384.54 Z" fill="#000000" fill-rule="evenodd" fill-opacity="1" /><path clip-path="url(#clip850)" d="M 0 0 M696.128 1415.79 L703.767 1415.79 L703.767 1389.42 L695.457 1391.09 L695.457 1386.83 L703.721 1385.16 L708.397 1385.16 L708.397 1415.79 L716.036 1415.79 L716.036 1419.72 L696.128 1419.72 L696.128 1415.79 Z" fill="#000000" fill-rule="evenodd" fill-opacity="1" /><path clip-path="url(#clip850)" d="M 0 0 M735.48 1388.24 Q731.869 1388.24 730.04 1391.81 Q728.235 1395.35 728.235 1402.48 Q728.235 1409.59 730.04 1413.15 Q731.869 1416.69 735.48 1416.69 Q739.114 1416.69 740.92 1413.15 Q742.748 1409.59 742.748 1402.48 Q742.748 1395.35 740.92 1391.81 Q739.114 1388.24 735.48 1388.24 M735.48 1384.54 Q741.29 1384.54 744.346 1389.15 Q747.424 1393.73 747.424 1402.48 Q747.424 1411.21 744.346 1415.81 Q741.29 1420.4 735.48 1420.4 Q729.67 1420.4 726.591 1415.81 Q723.535 1411.21 723.535 1402.48 Q723.535 1393.73 726.591 1389.15 Q729.67 1384.54 735.48 1384.54 Z" fill="#000000" fill-rule="evenodd" fill-opacity="1" /><path clip-path="url(#clip850)" d="M 0 0 M1070.63 1415.79 L1086.95 1415.79 L1086.95 1419.72 L1065.01 1419.72 L1065.01 1415.79 Q1067.67 1413.03 1072.25 1408.4 Q1076.86 1403.75 1078.04 1402.41 Q1080.29 1399.89 1081.17 1398.15 Q1082.07 1396.39 1082.07 1394.7 Q1082.07 1391.95 1080.12 1390.21 Q1078.2 1388.47 1075.1 1388.47 Q1072.9 1388.47 1070.45 1389.24 Q1068.02 1390 1065.24 1391.55 L1065.24 1386.83 Q1068.06 1385.7 1070.52 1385.12 Q1072.97 1384.54 1075.01 1384.54 Q1080.38 1384.54 1083.57 1387.22 Q1086.77 1389.91 1086.77 1394.4 Q1086.77 1396.53 1085.96 1398.45 Q1085.17 1400.35 1083.06 1402.94 Q1082.49 1403.61 1079.38 1406.83 Q1076.28 1410.02 1070.63 1415.79 Z" fill="#000000" fill-rule="evenodd" fill-opacity="1" /><path clip-path="url(#clip850)" d="M 0 0 M1106.77 1388.24 Q1103.16 1388.24 1101.33 1391.81 Q1099.52 1395.35 1099.52 1402.48 Q1099.52 1409.59 1101.33 1413.15 Q1103.16 1416.69 1106.77 1416.69 Q1110.4 1416.69 1112.21 1413.15 Q1114.04 1409.59 1114.04 1402.48 Q1114.04 1395.35 1112.21 1391.81 Q1110.4 1388.24 1106.77 1388.24 M1106.77 1384.54 Q1112.58 1384.54 1115.63 1389.15 Q1118.71 1393.73 1118.71 1402.48 Q1118.71 1411.21 1115.63 1415.81 Q1112.58 1420.4 1106.77 1420.4 Q1100.96 1420.4 1097.88 1415.81 Q1094.82 1411.21 1094.82 1402.48 Q1094.82 1393.73 1097.88 1389.15 Q1100.96 1384.54 1106.77 1384.54 Z" fill="#000000" fill-rule="evenodd" fill-opacity="1" /><path clip-path="url(#clip850)" d="M 0 0 M1451.12 1401.09 Q1454.48 1401.81 1456.36 1404.08 Q1458.25 1406.34 1458.25 1409.68 Q1458.25 1414.79 1454.73 1417.59 Q1451.22 1420.4 1444.73 1420.4 Q1442.56 1420.4 1440.24 1419.96 Q1437.95 1419.54 1435.5 1418.68 L1435.5 1414.17 Q1437.44 1415.3 1439.76 1415.88 Q1442.07 1416.46 1444.6 1416.46 Q1448.99 1416.46 1451.29 1414.72 Q1453.6 1412.99 1453.6 1409.68 Q1453.6 1406.62 1451.45 1404.91 Q1449.32 1403.17 1445.5 1403.17 L1441.47 1403.17 L1441.47 1399.33 L1445.68 1399.33 Q1449.13 1399.33 1450.96 1397.96 Q1452.79 1396.58 1452.79 1393.98 Q1452.79 1391.32 1450.89 1389.91 Q1449.02 1388.47 1445.5 1388.47 Q1443.58 1388.47 1441.38 1388.89 Q1439.18 1389.31 1436.54 1390.19 L1436.54 1386.02 Q1439.2 1385.28 1441.52 1384.91 Q1443.86 1384.54 1445.92 1384.54 Q1451.24 1384.54 1454.34 1386.97 Q1457.44 1389.38 1457.44 1393.5 Q1457.44 1396.37 1455.8 1398.36 Q1454.16 1400.33 1451.12 1401.09 Z" fill="#000000" fill-rule="evenodd" fill-opacity="1" /><path clip-path="url(#clip850)" d="M 0 0 M1477.12 1388.24 Q1473.51 1388.24 1471.68 1391.81 Q1469.87 1395.35 1469.87 1402.48 Q1469.87 1409.59 1471.68 1413.15 Q1473.51 1416.69 1477.12 1416.69 Q1480.75 1416.69 1482.56 1413.15 Q1484.39 1409.59 1484.39 1402.48 Q1484.39 1395.35 1482.56 1391.81 Q1480.75 1388.24 1477.12 1388.24 M1477.12 1384.54 Q1482.93 1384.54 1485.98 1389.15 Q1489.06 1393.73 1489.06 1402.48 Q1489.06 1411.21 1485.98 1415.81 Q1482.93 1420.4 1477.12 1420.4 Q1471.31 1420.4 1468.23 1415.81 Q1465.17 1411.21 1465.17 1402.48 Q1465.17 1393.73 1468.23 1389.15 Q1471.31 1384.54 1477.12 1384.54 Z" fill="#000000" fill-rule="evenodd" fill-opacity="1" /><path clip-path="url(#clip850)" d="M 0 0 M1820.87 1389.24 L1809.07 1407.69 L1820.87 1407.69 L1820.87 1389.24 M1819.65 1385.16 L1825.53 1385.16 L1825.53 1407.69 L1830.46 1407.69 L1830.46 1411.58 L1825.53 1411.58 L1825.53 1419.72 L1820.87 1419.72 L1820.87 1411.58 L1805.27 1411.58 L1805.27 1407.06 L1819.65 1385.16 Z" fill="#000000" fill-rule="evenodd" fill-opacity="1" /><path clip-path="url(#clip850)" d="M 0 0 M1848.19 1388.24 Q1844.58 1388.24 1842.75 1391.81 Q1840.94 1395.35 1840.94 1402.48 Q1840.94 1409.59 1842.75 1413.15 Q1844.58 1416.69 1848.19 1416.69 Q1851.82 1416.69 1853.63 1413.15 Q1855.46 1409.59 1855.46 1402.48 Q1855.46 1395.35 1853.63 1391.81 Q1851.82 1388.24 1848.19 1388.24 M1848.19 1384.54 Q1854 1384.54 1857.05 1389.15 Q1860.13 1393.73 1860.13 1402.48 Q1860.13 1411.21 1857.05 1415.81 Q1854 1420.4 1848.19 1420.4 Q1842.38 1420.4 1839.3 1415.81 Q1836.24 1411.21 1836.24 1402.48 Q1836.24 1393.73 1839.3 1389.15 Q1842.38 1384.54 1848.19 1384.54 Z" fill="#000000" fill-rule="evenodd" fill-opacity="1" /><path clip-path="url(#clip850)" d="M 0 0 M2177.82 1385.16 L2196.18 1385.16 L2196.18 1389.1 L2182.1 1389.1 L2182.1 1397.57 Q2183.12 1397.22 2184.14 1397.06 Q2185.16 1396.88 2186.18 1396.88 Q2191.96 1396.88 2195.34 1400.05 Q2198.72 1403.22 2198.72 1408.64 Q2198.72 1414.21 2195.25 1417.32 Q2191.78 1420.4 2185.46 1420.4 Q2183.28 1420.4 2181.02 1420.02 Q2178.77 1419.65 2176.36 1418.91 L2176.36 1414.21 Q2178.45 1415.35 2180.67 1415.9 Q2182.89 1416.46 2185.37 1416.46 Q2189.37 1416.46 2191.71 1414.35 Q2194.05 1412.25 2194.05 1408.64 Q2194.05 1405.02 2191.71 1402.92 Q2189.37 1400.81 2185.37 1400.81 Q2183.49 1400.81 2181.62 1401.23 Q2179.77 1401.65 2177.82 1402.52 L2177.82 1385.16 Z" fill="#000000" fill-rule="evenodd" fill-opacity="1" /><path clip-path="url(#clip850)" d="M 0 0 M2217.94 1388.24 Q2214.33 1388.24 2212.5 1391.81 Q2210.69 1395.35 2210.69 1402.48 Q2210.69 1409.59 2212.5 1413.15 Q2214.33 1416.69 2217.94 1416.69 Q2221.57 1416.69 2223.38 1413.15 Q2225.2 1409.59 2225.2 1402.48 Q2225.2 1395.35 2223.38 1391.81 Q2221.57 1388.24 2217.94 1388.24 M2217.94 1384.54 Q2223.75 1384.54 2226.8 1389.15 Q2229.88 1393.73 2229.88 1402.48 Q2229.88 1411.21 2226.8 1415.81 Q2223.75 1420.4 2217.94 1420.4 Q2212.13 1420.4 2209.05 1415.81 Q2205.99 1411.21 2205.99 1402.48 Q2205.99 1393.73 2209.05 1389.15 Q2212.13 1384.54 2217.94 1384.54 Z" fill="#000000" fill-rule="evenodd" fill-opacity="1" /><path clip-path="url(#clip850)" d="M 0 0 M1036.24 1453.72 L1036.24 1458.59 L1030.64 1458.59 Q1027.49 1458.59 1026.25 1459.86 Q1025.04 1461.13 1025.04 1464.44 L1025.04 1467.6 L1034.68 1467.6 L1034.68 1472.15 L1025.04 1472.15 L1025.04 1503.24 L1019.15 1503.24 L1019.15 1472.15 L1013.55 1472.15 L1013.55 1467.6 L1019.15 1467.6 L1019.15 1465.11 Q1019.15 1459.16 1021.92 1456.46 Q1024.69 1453.72 1030.7 1453.72 L1036.24 1453.72 Z" fill="#000000" fill-rule="evenodd" fill-opacity="1" /><path clip-path="url(#clip850)" d="M 0 0 M1061.8 1473.07 Q1060.81 1472.5 1059.64 1472.24 Q1058.49 1471.96 1057.09 1471.96 Q1052.13 1471.96 1049.45 1475.2 Q1046.81 1478.42 1046.81 1484.47 L1046.81 1503.24 L1040.92 1503.24 L1040.92 1467.6 L1046.81 1467.6 L1046.81 1473.13 Q1048.66 1469.89 1051.62 1468.33 Q1054.58 1466.74 1058.81 1466.74 Q1059.41 1466.74 1060.15 1466.83 Q1060.88 1466.9 1061.77 1467.05 L1061.8 1473.07 Z" fill="#000000" fill-rule="evenodd" fill-opacity="1" /><path clip-path="url(#clip850)" d="M 0 0 M1097 1483.96 L1097 1486.82 L1070.08 1486.82 Q1070.46 1492.87 1073.71 1496.05 Q1076.98 1499.2 1082.81 1499.2 Q1086.18 1499.2 1089.33 1498.37 Q1092.52 1497.55 1095.64 1495.89 L1095.64 1501.43 Q1092.48 1502.77 1089.17 1503.47 Q1085.86 1504.17 1082.46 1504.17 Q1073.93 1504.17 1068.93 1499.2 Q1063.97 1494.24 1063.97 1485.77 Q1063.97 1477.02 1068.68 1471.89 Q1073.42 1466.74 1081.44 1466.74 Q1088.63 1466.74 1092.8 1471.38 Q1097 1476 1097 1483.96 M1091.15 1482.24 Q1091.08 1477.43 1088.44 1474.57 Q1085.83 1471.7 1081.5 1471.7 Q1076.6 1471.7 1073.64 1474.47 Q1070.71 1477.24 1070.27 1482.27 L1091.15 1482.24 Z" fill="#000000" fill-rule="evenodd" fill-opacity="1" /><path clip-path="url(#clip850)" d="M 0 0 M1110.12 1485.45 Q1110.12 1491.91 1112.76 1495.6 Q1115.43 1499.27 1120.08 1499.27 Q1124.73 1499.27 1127.4 1495.6 Q1130.07 1491.91 1130.07 1485.45 Q1130.07 1478.99 1127.4 1475.33 Q1124.73 1471.64 1120.08 1471.64 Q1115.43 1471.64 1112.76 1475.33 Q1110.12 1478.99 1110.12 1485.45 M1130.07 1497.9 Q1128.23 1501.08 1125.39 1502.64 Q1122.59 1504.17 1118.65 1504.17 Q1112.19 1504.17 1108.11 1499.01 Q1104.07 1493.85 1104.07 1485.45 Q1104.07 1477.05 1108.11 1471.89 Q1112.19 1466.74 1118.65 1466.74 Q1122.59 1466.74 1125.39 1468.3 Q1128.23 1469.82 1130.07 1473.01 L1130.07 1467.6 L1135.93 1467.6 L1135.93 1516.8 L1130.07 1516.8 L1130.07 1497.9 Z" fill="#000000" fill-rule="evenodd" fill-opacity="1" /><path clip-path="url(#clip850)" d="M 0 0 M1147.39 1489.18 L1147.39 1467.6 L1153.24 1467.6 L1153.24 1488.95 Q1153.24 1494.01 1155.22 1496.56 Q1157.19 1499.07 1161.14 1499.07 Q1165.88 1499.07 1168.62 1496.05 Q1171.39 1493.03 1171.39 1487.81 L1171.39 1467.6 L1177.24 1467.6 L1177.24 1503.24 L1171.39 1503.24 L1171.39 1497.77 Q1169.25 1501.02 1166.42 1502.61 Q1163.62 1504.17 1159.9 1504.17 Q1153.75 1504.17 1150.57 1500.35 Q1147.39 1496.53 1147.39 1489.18 M1162.12 1466.74 L1162.12 1466.74 Z" fill="#000000" fill-rule="evenodd" fill-opacity="1" /><path clip-path="url(#clip850)" d="M 0 0 M1219.8 1483.96 L1219.8 1486.82 L1192.87 1486.82 Q1193.25 1492.87 1196.5 1496.05 Q1199.78 1499.2 1205.6 1499.2 Q1208.98 1499.2 1212.13 1498.37 Q1215.31 1497.55 1218.43 1495.89 L1218.43 1501.43 Q1215.28 1502.77 1211.97 1503.47 Q1208.66 1504.17 1205.25 1504.17 Q1196.72 1504.17 1191.73 1499.2 Q1186.76 1494.24 1186.76 1485.77 Q1186.76 1477.02 1191.47 1471.89 Q1196.21 1466.74 1204.23 1466.74 Q1211.43 1466.74 1215.6 1471.38 Q1219.8 1476 1219.8 1483.96 M1213.94 1482.24 Q1213.88 1477.43 1211.24 1474.57 Q1208.63 1471.7 1204.3 1471.7 Q1199.4 1471.7 1196.44 1474.47 Q1193.51 1477.24 1193.06 1482.27 L1213.94 1482.24 Z" fill="#000000" fill-rule="evenodd" fill-opacity="1" /><path clip-path="url(#clip850)" d="M 0 0 M1259.04 1481.73 L1259.04 1503.24 L1253.19 1503.24 L1253.19 1481.92 Q1253.19 1476.86 1251.21 1474.34 Q1249.24 1471.83 1245.29 1471.83 Q1240.55 1471.83 1237.81 1474.85 Q1235.08 1477.88 1235.08 1483.1 L1235.08 1503.24 L1229.19 1503.24 L1229.19 1467.6 L1235.08 1467.6 L1235.08 1473.13 Q1237.18 1469.92 1240.01 1468.33 Q1242.87 1466.74 1246.6 1466.74 Q1252.74 1466.74 1255.89 1470.56 Q1259.04 1474.34 1259.04 1481.73 Z" fill="#000000" fill-rule="evenodd" fill-opacity="1" /><path clip-path="url(#clip850)" d="M 0 0 M1296.38 1468.96 L1296.38 1474.44 Q1293.89 1473.07 1291.38 1472.4 Q1288.9 1471.7 1286.35 1471.7 Q1280.65 1471.7 1277.5 1475.33 Q1274.35 1478.93 1274.35 1485.45 Q1274.35 1491.98 1277.5 1495.6 Q1280.65 1499.2 1286.35 1499.2 Q1288.9 1499.2 1291.38 1498.53 Q1293.89 1497.83 1296.38 1496.46 L1296.38 1501.88 Q1293.93 1503.02 1291.29 1503.59 Q1288.68 1504.17 1285.72 1504.17 Q1277.66 1504.17 1272.92 1499.11 Q1268.18 1494.05 1268.18 1485.45 Q1268.18 1476.73 1272.95 1471.73 Q1277.76 1466.74 1286.1 1466.74 Q1288.8 1466.74 1291.38 1467.31 Q1293.96 1467.85 1296.38 1468.96 Z" fill="#000000" fill-rule="evenodd" fill-opacity="1" /><path clip-path="url(#clip850)" d="M 0 0 M1321.39 1506.55 Q1318.91 1512.92 1316.56 1514.86 Q1314.2 1516.8 1310.25 1516.8 L1305.58 1516.8 L1305.58 1511.9 L1309.01 1511.9 Q1311.43 1511.9 1312.77 1510.76 Q1314.11 1509.61 1315.73 1505.34 L1316.78 1502.67 L1302.36 1467.6 L1308.57 1467.6 L1319.71 1495.48 L1330.85 1467.6 L1337.05 1467.6 L1321.39 1506.55 Z" fill="#000000" fill-rule="evenodd" fill-opacity="1" /><path clip-path="url(#clip850)" d="M 0 0 M1379.93 1453.78 Q1375.66 1461.1 1373.59 1468.26 Q1371.52 1475.43 1371.52 1482.78 Q1371.52 1490.13 1373.59 1497.36 Q1375.69 1504.55 1379.93 1511.84 L1374.83 1511.84 Q1370.06 1504.36 1367.67 1497.13 Q1365.32 1489.91 1365.32 1482.78 Q1365.32 1475.68 1367.67 1468.49 Q1370.03 1461.29 1374.83 1453.78 L1379.93 1453.78 Z" fill="#000000" fill-rule="evenodd" fill-opacity="1" /><path clip-path="url(#clip850)" d="M 0 0 M1423.95 1496.46 L1423.95 1483.7 L1413.44 1483.7 L1413.44 1478.42 L1430.31 1478.42 L1430.31 1498.82 Q1426.59 1501.46 1422.1 1502.83 Q1417.61 1504.17 1412.52 1504.17 Q1401.38 1504.17 1395.08 1497.67 Q1388.81 1491.15 1388.81 1479.53 Q1388.81 1467.88 1395.08 1461.39 Q1401.38 1454.86 1412.52 1454.86 Q1417.17 1454.86 1421.34 1456.01 Q1425.54 1457.16 1429.07 1459.38 L1429.07 1466.23 Q1425.51 1463.2 1421.5 1461.68 Q1417.49 1460.15 1413.06 1460.15 Q1404.34 1460.15 1399.95 1465.02 Q1395.59 1469.89 1395.59 1479.53 Q1395.59 1489.14 1399.95 1494.01 Q1404.34 1498.88 1413.06 1498.88 Q1416.47 1498.88 1419.14 1498.31 Q1421.81 1497.71 1423.95 1496.46 Z" fill="#000000" fill-rule="evenodd" fill-opacity="1" /><path clip-path="url(#clip850)" d="M 0 0 M1442.06 1455.72 L1448.49 1455.72 L1448.49 1475.2 L1471.85 1475.2 L1471.85 1455.72 L1478.28 1455.72 L1478.28 1503.24 L1471.85 1503.24 L1471.85 1480.61 L1448.49 1480.61 L1448.49 1503.24 L1442.06 1503.24 L1442.06 1455.72 Z" fill="#000000" fill-rule="evenodd" fill-opacity="1" /><path clip-path="url(#clip850)" d="M 0 0 M1488.27 1467.6 L1516.09 1467.6 L1516.09 1472.94 L1494.06 1498.57 L1516.09 1498.57 L1516.09 1503.24 L1487.48 1503.24 L1487.48 1497.9 L1509.5 1472.27 L1488.27 1472.27 L1488.27 1467.6 Z" fill="#000000" fill-rule="evenodd" fill-opacity="1" /><path clip-path="url(#clip850)" d="M 0 0 M1524.11 1453.78 L1529.2 1453.78 Q1533.98 1461.29 1536.33 1468.49 Q1538.72 1475.68 1538.72 1482.78 Q1538.72 1489.91 1536.33 1497.13 Q1533.98 1504.36 1529.2 1511.84 L1524.11 1511.84 Q1528.34 1504.55 1530.41 1497.36 Q1532.51 1490.13 1532.51 1482.78 Q1532.51 1475.43 1530.41 1468.26 Q1528.34 1461.1 1524.11 1453.78 Z" fill="#000000" fill-rule="evenodd" fill-opacity="1" /><polyline clip-path="url(#clip853)" style="stroke:#000000; stroke-width:2; stroke-opacity:0.1; fill:none" points="
  295.513,1324.83 2256.76,1324.83 
  "/>
<polyline clip-path="url(#clip853)" style="stroke:#000000; stroke-width:2; stroke-opacity:0.1; fill:none" points="
  295.513,1071.24 2256.76,1071.24 
  "/>
<polyline clip-path="url(#clip853)" style="stroke:#000000; stroke-width:2; stroke-opacity:0.1; fill:none" points="
  295.513,817.643 2256.76,817.643 
  "/>
<polyline clip-path="url(#clip853)" style="stroke:#000000; stroke-width:2; stroke-opacity:0.1; fill:none" points="
  295.513,564.051 2256.76,564.051 
  "/>
<polyline clip-path="url(#clip853)" style="stroke:#000000; stroke-width:2; stroke-opacity:0.1; fill:none" points="
  295.513,310.458 2256.76,310.458 
  "/>
<polyline clip-path="url(#clip850)" style="stroke:#000000; stroke-width:4; stroke-opacity:1; fill:none" points="
  295.513,1359.82 295.513,123.472 
  "/>
<polyline clip-path="url(#clip850)" style="stroke:#000000; stroke-width:4; stroke-opacity:1; fill:none" points="
  295.513,1324.83 319.048,1324.83 
  "/>
<polyline clip-path="url(#clip850)" style="stroke:#000000; stroke-width:4; stroke-opacity:1; fill:none" points="
  295.513,1071.24 319.048,1071.24 
  "/>
<polyline clip-path="url(#clip850)" style="stroke:#000000; stroke-width:4; stroke-opacity:1; fill:none" points="
  295.513,817.643 319.048,817.643 
  "/>
<polyline clip-path="url(#clip850)" style="stroke:#000000; stroke-width:4; stroke-opacity:1; fill:none" points="
  295.513,564.051 319.048,564.051 
  "/>
<polyline clip-path="url(#clip850)" style="stroke:#000000; stroke-width:4; stroke-opacity:1; fill:none" points="
  295.513,310.458 319.048,310.458 
  "/>
<path clip-path="url(#clip850)" d="M 0 0 M249.009 1310.63 Q245.398 1310.63 243.569 1314.19 Q241.764 1317.73 241.764 1324.86 Q241.764 1331.97 243.569 1335.53 Q245.398 1339.08 249.009 1339.08 Q252.643 1339.08 254.449 1335.53 Q256.278 1331.97 256.278 1324.86 Q256.278 1317.73 254.449 1314.19 Q252.643 1310.63 249.009 1310.63 M249.009 1306.92 Q254.819 1306.92 257.875 1311.53 Q260.953 1316.11 260.953 1324.86 Q260.953 1333.59 257.875 1338.2 Q254.819 1342.78 249.009 1342.78 Q243.199 1342.78 240.12 1338.2 Q237.065 1333.59 237.065 1324.86 Q237.065 1316.11 240.12 1311.53 Q243.199 1306.92 249.009 1306.92 Z" fill="#000000" fill-rule="evenodd" fill-opacity="1" /><path clip-path="url(#clip850)" d="M 0 0 M208.894 1053.96 L227.25 1053.96 L227.25 1057.89 L213.176 1057.89 L213.176 1066.36 Q214.194 1066.02 215.213 1065.85 Q216.231 1065.67 217.25 1065.67 Q223.037 1065.67 226.417 1068.84 Q229.796 1072.01 229.796 1077.43 Q229.796 1083.01 226.324 1086.11 Q222.852 1089.19 216.532 1089.19 Q214.356 1089.19 212.088 1088.82 Q209.843 1088.45 207.435 1087.71 L207.435 1083.01 Q209.519 1084.14 211.741 1084.7 Q213.963 1085.25 216.44 1085.25 Q220.444 1085.25 222.782 1083.15 Q225.12 1081.04 225.12 1077.43 Q225.12 1073.82 222.782 1071.71 Q220.444 1069.6 216.44 1069.6 Q214.565 1069.6 212.69 1070.02 Q210.838 1070.44 208.894 1071.32 L208.894 1053.96 Z" fill="#000000" fill-rule="evenodd" fill-opacity="1" /><path clip-path="url(#clip850)" d="M 0 0 M249.009 1057.03 Q245.398 1057.03 243.569 1060.6 Q241.764 1064.14 241.764 1071.27 Q241.764 1078.38 243.569 1081.94 Q245.398 1085.48 249.009 1085.48 Q252.643 1085.48 254.449 1081.94 Q256.278 1078.38 256.278 1071.27 Q256.278 1064.14 254.449 1060.6 Q252.643 1057.03 249.009 1057.03 M249.009 1053.33 Q254.819 1053.33 257.875 1057.94 Q260.953 1062.52 260.953 1071.27 Q260.953 1080 257.875 1084.6 Q254.819 1089.19 249.009 1089.19 Q243.199 1089.19 240.12 1084.6 Q237.065 1080 237.065 1071.27 Q237.065 1062.52 240.12 1057.94 Q243.199 1053.33 249.009 1053.33 Z" fill="#000000" fill-rule="evenodd" fill-opacity="1" /><path clip-path="url(#clip850)" d="M 0 0 M179.496 830.988 L187.134 830.988 L187.134 804.623 L178.824 806.289 L178.824 802.03 L187.088 800.363 L191.764 800.363 L191.764 830.988 L199.403 830.988 L199.403 834.923 L179.496 834.923 L179.496 830.988 Z" fill="#000000" fill-rule="evenodd" fill-opacity="1" /><path clip-path="url(#clip850)" d="M 0 0 M218.847 803.442 Q215.236 803.442 213.407 807.007 Q211.602 810.549 211.602 817.678 Q211.602 824.785 213.407 828.349 Q215.236 831.891 218.847 831.891 Q222.481 831.891 224.287 828.349 Q226.116 824.785 226.116 817.678 Q226.116 810.549 224.287 807.007 Q222.481 803.442 218.847 803.442 M218.847 799.738 Q224.657 799.738 227.713 804.345 Q230.792 808.928 230.792 817.678 Q230.792 826.405 227.713 831.011 Q224.657 835.595 218.847 835.595 Q213.037 835.595 209.958 831.011 Q206.903 826.405 206.903 817.678 Q206.903 808.928 209.958 804.345 Q213.037 799.738 218.847 799.738 Z" fill="#000000" fill-rule="evenodd" fill-opacity="1" /><path clip-path="url(#clip850)" d="M 0 0 M249.009 803.442 Q245.398 803.442 243.569 807.007 Q241.764 810.549 241.764 817.678 Q241.764 824.785 243.569 828.349 Q245.398 831.891 249.009 831.891 Q252.643 831.891 254.449 828.349 Q256.278 824.785 256.278 817.678 Q256.278 810.549 254.449 807.007 Q252.643 803.442 249.009 803.442 M249.009 799.738 Q254.819 799.738 257.875 804.345 Q260.953 808.928 260.953 817.678 Q260.953 826.405 257.875 831.011 Q254.819 835.595 249.009 835.595 Q243.199 835.595 240.12 831.011 Q237.065 826.405 237.065 817.678 Q237.065 808.928 240.12 804.345 Q243.199 799.738 249.009 799.738 Z" fill="#000000" fill-rule="evenodd" fill-opacity="1" /><path clip-path="url(#clip850)" d="M 0 0 M179.496 577.396 L187.134 577.396 L187.134 551.03 L178.824 552.697 L178.824 548.437 L187.088 546.771 L191.764 546.771 L191.764 577.396 L199.403 577.396 L199.403 581.331 L179.496 581.331 L179.496 577.396 Z" fill="#000000" fill-rule="evenodd" fill-opacity="1" /><path clip-path="url(#clip850)" d="M 0 0 M208.894 546.771 L227.25 546.771 L227.25 550.706 L213.176 550.706 L213.176 559.178 Q214.194 558.831 215.213 558.669 Q216.231 558.484 217.25 558.484 Q223.037 558.484 226.417 561.655 Q229.796 564.826 229.796 570.243 Q229.796 575.822 226.324 578.923 Q222.852 582.002 216.532 582.002 Q214.356 582.002 212.088 581.632 Q209.843 581.261 207.435 580.521 L207.435 575.822 Q209.519 576.956 211.741 577.511 Q213.963 578.067 216.44 578.067 Q220.444 578.067 222.782 575.96 Q225.12 573.854 225.12 570.243 Q225.12 566.632 222.782 564.525 Q220.444 562.419 216.44 562.419 Q214.565 562.419 212.69 562.835 Q210.838 563.252 208.894 564.132 L208.894 546.771 Z" fill="#000000" fill-rule="evenodd" fill-opacity="1" /><path clip-path="url(#clip850)" d="M 0 0 M249.009 549.849 Q245.398 549.849 243.569 553.414 Q241.764 556.956 241.764 564.085 Q241.764 571.192 243.569 574.757 Q245.398 578.298 249.009 578.298 Q252.643 578.298 254.449 574.757 Q256.278 571.192 256.278 564.085 Q256.278 556.956 254.449 553.414 Q252.643 549.849 249.009 549.849 M249.009 546.146 Q254.819 546.146 257.875 550.752 Q260.953 555.336 260.953 564.085 Q260.953 572.812 257.875 577.419 Q254.819 582.002 249.009 582.002 Q243.199 582.002 240.12 577.419 Q237.065 572.812 237.065 564.085 Q237.065 555.336 240.12 550.752 Q243.199 546.146 249.009 546.146 Z" fill="#000000" fill-rule="evenodd" fill-opacity="1" /><path clip-path="url(#clip850)" d="M 0 0 M182.713 323.803 L199.032 323.803 L199.032 327.738 L177.088 327.738 L177.088 323.803 Q179.75 321.048 184.333 316.419 Q188.94 311.766 190.12 310.423 Q192.366 307.9 193.245 306.164 Q194.148 304.405 194.148 302.715 Q194.148 299.96 192.204 298.224 Q190.283 296.488 187.181 296.488 Q184.982 296.488 182.528 297.252 Q180.097 298.016 177.32 299.567 L177.32 294.845 Q180.144 293.71 182.597 293.132 Q185.051 292.553 187.088 292.553 Q192.458 292.553 195.653 295.238 Q198.847 297.923 198.847 302.414 Q198.847 304.544 198.037 306.465 Q197.25 308.363 195.144 310.956 Q194.565 311.627 191.463 314.845 Q188.361 318.039 182.713 323.803 Z" fill="#000000" fill-rule="evenodd" fill-opacity="1" /><path clip-path="url(#clip850)" d="M 0 0 M218.847 296.257 Q215.236 296.257 213.407 299.822 Q211.602 303.363 211.602 310.493 Q211.602 317.599 213.407 321.164 Q215.236 324.706 218.847 324.706 Q222.481 324.706 224.287 321.164 Q226.116 317.599 226.116 310.493 Q226.116 303.363 224.287 299.822 Q222.481 296.257 218.847 296.257 M218.847 292.553 Q224.657 292.553 227.713 297.16 Q230.792 301.743 230.792 310.493 Q230.792 319.22 227.713 323.826 Q224.657 328.409 218.847 328.409 Q213.037 328.409 209.958 323.826 Q206.903 319.22 206.903 310.493 Q206.903 301.743 209.958 297.16 Q213.037 292.553 218.847 292.553 Z" fill="#000000" fill-rule="evenodd" fill-opacity="1" /><path clip-path="url(#clip850)" d="M 0 0 M249.009 296.257 Q245.398 296.257 243.569 299.822 Q241.764 303.363 241.764 310.493 Q241.764 317.599 243.569 321.164 Q245.398 324.706 249.009 324.706 Q252.643 324.706 254.449 321.164 Q256.278 317.599 256.278 310.493 Q256.278 303.363 254.449 299.822 Q252.643 296.257 249.009 296.257 M249.009 292.553 Q254.819 292.553 257.875 297.16 Q260.953 301.743 260.953 310.493 Q260.953 319.22 257.875 323.826 Q254.819 328.409 249.009 328.409 Q243.199 328.409 240.12 323.826 Q237.065 319.22 237.065 310.493 Q237.065 301.743 240.12 297.16 Q243.199 292.553 249.009 292.553 Z" fill="#000000" fill-rule="evenodd" fill-opacity="1" /><path clip-path="url(#clip850)" d="M 0 0 M96.5483 797.856 L112.973 803.524 L112.973 858.21 Q112.973 858.951 112.941 859.24 Q112.909 859.53 112.748 859.756 Q112.587 859.981 112.233 859.981 Q111.943 859.981 111.202 859.402 L82.2489 835.988 L49.1412 860.046 Q47.6276 860.046 47.3377 859.788 Q47.0157 859.53 47.0157 858.21 L47.0157 803.524 L62.4423 797.856 L62.4423 799.499 Q60.4455 800.239 58.7708 801.431 Q57.0639 802.59 55.8401 803.943 Q54.6162 805.263 53.6501 807.003 Q52.6517 808.709 52.0398 810.32 Q51.3957 811.898 50.9448 813.862 Q50.4617 815.827 50.2362 817.405 Q49.9786 818.951 49.8498 820.883 Q49.7209 822.816 49.6887 824.039 Q49.6565 825.263 49.6565 826.809 L49.6565 852.928 L79.0605 831.511 Q79.8012 831.028 79.9945 831.028 Q80.2843 831.028 81.0572 831.64 L109.334 854.506 L109.334 826.487 Q109.334 817.469 107.434 811.189 Q105.985 806.938 103.118 803.846 Q100.252 800.722 96.5483 799.499 L96.5483 797.856 Z" fill="#000000" fill-rule="evenodd" fill-opacity="1" /><path clip-path="url(#clip850)" d="M 0 0 M129.637 871.053 Q130.629 871.053 131.373 871.865 Q132.095 872.654 132.095 873.51 Q132.095 874.299 131.621 874.795 Q131.125 875.269 130.426 875.269 Q129.502 875.269 128.736 874.48 Q127.969 873.691 127.969 872.766 Q127.969 872 128.443 871.527 Q128.916 871.053 129.637 871.053 M151.888 870.647 Q152.069 870.647 152.79 870.85 Q153.489 871.053 154.571 871.549 Q155.631 872.023 156.623 872.676 Q157.615 873.33 158.314 874.412 Q159.012 875.472 159.012 876.689 Q159.012 878.335 157.93 879.417 Q156.848 880.477 155.225 880.477 Q154.346 880.477 151.528 879.417 Q143.322 876.351 142.984 876.238 Q141.699 875.72 140.571 875.72 Q140.053 875.72 139.737 875.832 Q139.399 875.945 139.286 876.171 Q139.151 876.396 139.128 876.531 Q139.106 876.644 139.106 876.869 Q139.106 878.2 140.459 879.44 Q141.811 880.679 144.832 881.536 Q145.396 881.716 145.531 881.829 Q145.666 881.942 145.666 882.28 Q145.644 882.844 145.193 882.844 Q145.058 882.844 144.539 882.686 Q143.998 882.528 143.186 882.235 Q142.352 881.942 141.496 881.423 Q140.616 880.905 139.85 880.274 Q139.083 879.62 138.587 878.696 Q138.091 877.771 138.091 876.734 Q138.091 875.043 139.196 874.006 Q140.278 872.947 141.879 872.947 Q142.758 872.947 144.314 873.556 Q146.343 874.299 146.996 874.57 L151.843 876.374 Q153.602 877.027 154.143 877.23 Q154.661 877.411 155.293 877.568 Q155.901 877.704 156.465 877.704 Q157.254 877.704 157.615 877.456 Q157.975 877.185 157.975 876.599 Q157.975 874.976 156.375 873.781 Q154.752 872.586 152.272 871.887 Q152.204 871.865 152.091 871.842 Q151.528 871.662 151.46 871.481 Q151.438 871.391 151.438 871.211 Q151.438 870.647 151.888 870.647 Z" fill="#000000" fill-rule="evenodd" fill-opacity="1" /><path clip-path="url(#clip850)" d="M 0 0 M151.483 854.271 Q150.919 854.225 150.919 853.346 L150.919 825.053 Q150.919 823.723 151.438 823.701 Q152.001 823.701 151.979 824.963 L151.979 853.031 Q152.001 854.271 151.483 854.271 M142.465 854.271 Q141.901 854.271 141.924 853.301 L141.924 825.098 Q141.924 823.723 142.465 823.701 Q142.984 823.701 142.984 824.873 L142.984 853.346 Q142.984 854.271 142.465 854.271 Z" fill="#000000" fill-rule="evenodd" fill-opacity="1" /><path clip-path="url(#clip850)" d="M 0 0 M132.14 805.893 L130.697 805.893 Q130.697 800.347 127.744 797.484 Q127.744 796.695 127.924 796.559 Q128.104 796.424 128.939 796.424 L154.842 796.424 Q156.217 796.424 156.645 795.748 Q157.074 795.071 157.074 792.118 L157.074 790.653 L158.494 790.653 Q158.359 792.276 158.359 798.137 Q158.359 803.999 158.494 805.599 L157.074 805.599 L157.074 804.134 Q157.074 801.226 156.668 800.527 Q156.239 799.828 154.842 799.828 L130.922 799.828 Q132.14 802.24 132.14 805.893 Z" fill="#000000" fill-rule="evenodd" fill-opacity="1" /><path clip-path="url(#clip850)" d="M 0 0 M-1.6977 853.952 L-3.14052 853.952 Q-3.14052 848.406 -6.0938 845.543 Q-6.0938 844.754 -5.91345 844.619 Q-5.73309 844.483 -4.89896 844.483 L21.0042 844.483 Q22.3794 844.483 22.8077 843.807 Q23.2361 843.131 23.2361 840.178 L23.2361 838.712 L24.6564 838.712 Q24.5211 840.335 24.5211 846.197 Q24.5211 852.058 24.6564 853.659 L23.2361 853.659 L23.2361 852.194 Q23.2361 849.285 22.8303 848.587 Q22.4019 847.888 21.0042 847.888 L-2.91508 847.888 Q-1.6977 850.3 -1.6977 853.952 Z" fill="#000000" fill-rule="evenodd" fill-opacity="1" /><path clip-path="url(#clip850)" d="M 0 0 M9.88997 834.784 Q3.1042 834.784 -0.593038 833.071 Q-6.0938 830.681 -6.0938 825.045 Q-6.0938 823.85 -5.75564 822.61 Q-5.44002 821.348 -4.20009 819.77 Q-2.96017 818.169 -0.931199 817.2 Q2.99147 815.351 9.88997 815.351 Q16.6307 815.351 20.3053 817.065 Q25.6708 819.567 25.6708 825.09 Q25.6708 827.164 24.6113 829.283 Q23.5517 831.38 21.0042 832.71 Q17.1943 834.784 9.88997 834.784 M9.32637 830.952 Q16.2925 830.952 19.0654 830.456 Q22.0638 829.892 23.3713 828.359 Q24.6564 826.804 24.6564 825.09 Q24.6564 823.242 23.2812 821.709 Q21.8834 820.153 18.8851 819.68 Q15.9318 819.161 9.32637 819.184 Q2.9013 819.184 0.33127 819.635 Q-2.6671 820.243 -3.86193 821.866 Q-5.07931 823.467 -5.07931 825.09 Q-5.07931 825.699 -4.89896 826.353 Q-4.71861 826.984 -4.20009 827.908 Q-3.68158 828.833 -2.39657 829.554 Q-1.11155 830.253 0.827241 830.591 Q3.32964 830.952 9.32637 830.952 Z" fill="#000000" fill-rule="evenodd" fill-opacity="1" /><path clip-path="url(#clip850)" d="M 0 0 M59.3995 739.265 L60.3238 739.828 Q58.8134 743.323 56.4012 747.674 Q58.8134 752.025 60.3238 755.519 L59.3995 756.06 Q56.0856 752.25 53.5381 747.674 Q56.1081 743.052 59.3995 739.265 Z" fill="#000000" fill-rule="evenodd" fill-opacity="1" /><path clip-path="url(#clip850)" d="M 0 0 M70.4293 736.755 Q70.4615 736.755 71.6209 736.949 L100.896 744.291 Q102.442 744.678 103.988 745.773 Q105.566 746.836 106.919 748.543 Q108.303 750.217 109.141 752.794 Q110.01 755.338 110.01 758.269 Q110.01 762.939 109.012 765 Q108.046 767.029 105.985 767.029 Q104.181 767.029 103.15 765.902 Q102.152 764.774 102.152 763.486 Q102.152 762.262 102.861 761.618 Q103.569 760.974 104.471 760.974 Q105.469 760.974 106.468 761.65 Q107.498 762.327 107.885 763.679 Q108.561 761.522 108.561 758.398 Q108.561 751.795 101.572 748.961 Q101.476 748.897 101.444 748.897 L92.7158 746.707 L92.6514 746.804 Q93.2955 747.351 94.0362 748.221 Q94.7447 749.058 95.6143 750.861 Q96.4839 752.665 96.4839 754.436 Q96.4839 758.14 93.6497 760.684 Q90.7834 763.196 86.0492 763.196 Q82.6031 763.196 79.1571 761.811 Q75.6789 760.394 73.1346 758.204 Q70.5581 755.982 68.9478 753.148 Q67.3376 750.282 67.3376 747.512 Q67.3376 745.58 68.497 743.937 Q69.6242 742.295 71.4921 741.393 Q69.9462 741.232 69.3021 740.362 Q68.658 739.461 68.658 738.688 Q68.658 737.818 69.1411 737.303 Q69.592 736.755 70.4293 736.755 M74.455 742.166 Q74.2618 742.166 73.7465 742.295 Q73.199 742.424 72.3295 742.81 Q71.4599 743.164 70.687 743.712 Q69.914 744.259 69.3665 745.258 Q68.7868 746.224 68.7868 747.448 Q68.7868 749.444 70.4615 751.441 Q72.104 753.438 74.6483 754.823 Q77.0959 756.111 81.8302 757.335 Q86.5645 758.526 88.9799 758.526 Q91.3631 758.526 93.1989 757.496 Q95.0346 756.465 95.0346 754.243 Q95.0346 751.667 92.6514 748.897 Q90.1715 746.031 88.0459 745.548 L75.4534 742.359 Q74.6805 742.166 74.455 742.166 Z" fill="#000000" fill-rule="evenodd" fill-opacity="1" /><path clip-path="url(#clip850)" d="M 0 0 M41.1747 728.64 Q33.3744 728.64 27.0846 725.731 Q24.447 724.491 22.2376 722.756 Q20.0283 721.02 19.0589 719.87 Q18.0895 718.72 18.0895 718.405 Q18.0895 717.954 18.5404 717.931 Q18.7658 717.931 19.3294 718.54 Q26.9043 725.979 41.1747 725.957 Q55.4902 725.957 62.7719 718.72 Q63.561 717.931 63.809 717.931 Q64.2598 717.931 64.2598 718.405 Q64.2598 718.72 63.3355 719.825 Q62.4112 720.929 60.2921 722.643 Q58.1729 724.356 55.5804 725.596 Q49.2906 728.64 41.1747 728.64 Z" fill="#000000" fill-rule="evenodd" fill-opacity="1" /><path clip-path="url(#clip850)" d="M 0 0 M52.7173 710.911 Q51.8831 710.911 51.6351 710.844 Q51.3872 710.753 51.0039 710.393 L41.1296 701.533 Q35.6739 696.686 30.9171 696.686 Q27.8286 696.686 25.6192 698.309 Q23.4099 699.91 23.4099 702.863 Q23.4099 704.892 24.6498 706.605 Q25.8898 708.319 28.0991 709.108 Q28.054 708.972 28.054 708.499 Q28.054 707.349 28.7754 706.718 Q29.4968 706.064 30.4662 706.064 Q31.7062 706.064 32.3148 706.876 Q32.901 707.665 32.901 708.454 Q32.901 708.77 32.8334 709.198 Q32.7657 709.604 32.1345 710.257 Q31.4807 710.911 30.331 710.911 Q27.1072 710.911 24.5371 708.476 Q21.9671 706.019 21.9671 702.277 Q21.9671 698.039 24.492 695.266 Q26.9944 692.47 30.9171 692.47 Q32.2923 692.47 33.5548 692.898 Q34.7947 693.304 35.7641 693.868 Q36.7335 694.409 38.289 695.897 Q39.8446 697.385 40.9492 698.58 Q42.0539 699.774 44.3985 702.457 L49.1553 707.349 L49.1553 699.03 Q49.1553 694.973 48.7946 694.657 Q48.1408 694.206 44.6916 693.642 L44.6916 692.47 L52.7173 693.778 L52.7173 710.911 Z" fill="#000000" fill-rule="evenodd" fill-opacity="1" /><path clip-path="url(#clip850)" d="M 0 0 M63.809 688.047 Q63.5835 688.047 63.0199 687.461 Q55.4451 680.022 41.1747 680.022 Q26.8592 680.022 19.6225 687.168 Q18.7884 688.047 18.5404 688.047 Q18.0895 688.047 18.0895 687.597 Q18.0895 687.281 19.0138 686.176 Q19.9381 685.049 22.0573 683.358 Q24.1764 681.645 26.769 680.382 Q33.0588 677.339 41.1747 677.339 Q48.9749 677.339 55.2647 680.247 Q57.9024 681.487 60.1117 683.223 Q62.321 684.959 63.2904 686.109 Q64.2598 687.258 64.2598 687.597 Q64.2598 688.047 63.809 688.047 Z" fill="#000000" fill-rule="evenodd" fill-opacity="1" /><path clip-path="url(#clip850)" d="M 0 0 M79.9945 663.279 Q68.8512 663.279 59.8658 659.125 Q56.0977 657.353 52.9415 654.873 Q49.7854 652.394 48.4005 650.751 Q47.0157 649.109 47.0157 648.658 Q47.0157 648.014 47.6598 647.981 Q47.9818 647.981 48.787 648.851 Q59.6081 659.479 79.9945 659.447 Q100.445 659.447 110.848 649.109 Q111.975 647.981 112.329 647.981 Q112.973 647.981 112.973 648.658 Q112.973 649.109 111.653 650.687 Q110.332 652.265 107.305 654.712 Q104.278 657.16 100.574 658.931 Q91.5886 663.279 79.9945 663.279 Z" fill="#000000" fill-rule="evenodd" fill-opacity="1" /><path clip-path="url(#clip850)" d="M 0 0 M69.1089 606.906 Q69.3987 606.906 70.3971 607.164 Q71.3633 607.39 73.2634 608.13 Q75.1314 608.839 77.2248 609.934 Q79.2859 610.997 81.8946 612.961 Q84.5033 614.926 86.7899 617.373 Q91.1055 621.979 93.4243 626.906 Q95.7431 631.802 96.4839 635.988 L96.4839 636.922 Q96.4839 637.953 95.6787 637.953 L92.7158 637.244 L76.5806 633.219 Q71.6531 631.963 71.2345 631.963 Q70.848 631.963 70.6548 632.124 Q70.4293 632.253 70.2683 633.025 Q70.1073 633.766 70.1073 635.248 Q70.1073 635.86 70.0751 636.149 Q70.0428 636.407 69.8818 636.633 Q69.6886 636.858 69.3021 636.858 Q68.7546 636.858 68.4648 636.633 Q68.1427 636.375 68.0783 636.182 Q68.0139 635.988 67.9817 635.602 Q67.9495 635.054 67.7884 633.219 Q67.5952 631.383 67.4664 629.805 Q67.3376 628.227 67.3376 627.55 Q67.3376 627.164 67.5308 626.939 Q67.6918 626.713 67.8851 626.713 L68.0461 626.681 L94.2939 633.154 Q93.5209 630.771 92.2327 628.42 Q90.9444 626.037 88.8189 623.46 Q86.6611 620.884 83.988 618.694 Q81.3149 616.504 77.579 614.571 Q73.8109 612.607 69.4953 611.383 Q68.6258 611.158 68.1105 610.61 Q67.5952 610.03 67.4664 609.612 Q67.3376 609.193 67.3376 608.807 Q67.3376 607.937 67.8206 607.422 Q68.2715 606.906 69.1089 606.906 Z" fill="#000000" fill-rule="evenodd" fill-opacity="1" /><path clip-path="url(#clip850)" d="M 0 0 M112.329 605.705 Q112.007 605.705 111.202 604.868 Q100.381 594.24 79.9945 594.24 Q59.5437 594.24 49.2057 604.449 Q48.014 605.705 47.6598 605.705 Q47.0157 605.705 47.0157 605.061 Q47.0157 604.61 48.3361 603.032 Q49.6565 601.422 52.6839 599.006 Q55.7112 596.559 59.4149 594.755 Q68.4003 590.407 79.9945 590.407 Q91.1377 590.407 100.123 594.562 Q103.891 596.333 107.047 598.813 Q110.204 601.293 111.588 602.935 Q112.973 604.578 112.973 605.061 Q112.973 605.705 112.329 605.705 Z" fill="#000000" fill-rule="evenodd" fill-opacity="1" /><path clip-path="url(#clip850)" d="M 0 0 M464.678 14.0809 L464.678 22.0612 Q460.019 19.8332 455.887 18.7395 Q451.755 17.6457 447.907 17.6457 Q441.223 17.6457 437.577 20.2383 Q433.972 22.8309 433.972 27.611 Q433.972 31.6214 436.362 33.6873 Q438.793 35.7128 445.517 36.9686 L450.459 37.9813 Q459.614 39.7232 463.949 44.1387 Q468.324 48.5136 468.324 55.8863 Q468.324 64.6767 462.409 69.2137 Q456.535 73.7508 445.152 73.7508 Q440.858 73.7508 435.997 72.7785 Q431.177 71.8063 425.992 69.9024 L425.992 61.4765 Q430.974 64.2716 435.754 65.6895 Q440.534 67.1073 445.152 67.1073 Q452.161 67.1073 455.968 64.3527 Q459.776 61.598 459.776 56.4939 Q459.776 52.0379 457.022 49.5264 Q454.307 47.0148 448.069 45.759 L443.086 44.7868 Q433.931 42.9639 429.84 39.075 Q425.749 35.1862 425.749 28.2591 Q425.749 20.2383 431.379 15.6203 Q437.051 11.0023 446.975 11.0023 Q451.229 11.0023 455.644 11.7719 Q460.06 12.5416 464.678 14.0809 Z" fill="#000000" fill-rule="evenodd" fill-opacity="1" /><path clip-path="url(#clip850)" d="M 0 0 M479.99 54.671 L479.99 27.2059 L487.444 27.2059 L487.444 54.3874 Q487.444 60.8284 489.955 64.0691 Q492.467 67.2693 497.49 67.2693 Q503.526 67.2693 507.01 63.421 Q510.534 59.5726 510.534 52.9291 L510.534 27.2059 L517.988 27.2059 L517.988 72.576 L510.534 72.576 L510.534 65.6084 Q507.82 69.7404 504.215 71.7658 Q500.65 73.7508 495.91 73.7508 Q488.092 73.7508 484.041 68.8897 Q479.99 64.0286 479.99 54.671 M498.746 26.1121 L498.746 26.1121 Z" fill="#000000" fill-rule="evenodd" fill-opacity="1" /><path clip-path="url(#clip850)" d="M 0 0 M568.665 35.9153 Q571.46 30.8922 575.349 28.5022 Q579.237 26.1121 584.504 26.1121 Q591.593 26.1121 595.441 31.0947 Q599.289 36.0368 599.289 45.1919 L599.289 72.576 L591.795 72.576 L591.795 45.4349 Q591.795 38.913 589.486 35.7533 Q587.177 32.5936 582.438 32.5936 Q576.645 32.5936 573.283 36.4419 Q569.92 40.2903 569.92 46.9338 L569.92 72.576 L562.426 72.576 L562.426 45.4349 Q562.426 38.8725 560.117 35.7533 Q557.808 32.5936 552.988 32.5936 Q547.276 32.5936 543.913 36.4824 Q540.551 40.3308 540.551 46.9338 L540.551 72.576 L533.057 72.576 L533.057 27.2059 L540.551 27.2059 L540.551 34.2544 Q543.103 30.082 546.668 28.0971 Q550.233 26.1121 555.134 26.1121 Q560.077 26.1121 563.52 28.6237 Q567.004 31.1352 568.665 35.9153 Z" fill="#000000" fill-rule="evenodd" fill-opacity="1" /><path clip-path="url(#clip850)" d="M 0 0 M658.108 32.4315 Q652.113 32.4315 648.629 37.1306 Q645.146 41.7891 645.146 49.9314 Q645.146 58.0738 648.589 62.7728 Q652.073 67.4314 658.108 67.4314 Q664.063 67.4314 667.547 62.7323 Q671.031 58.0333 671.031 49.9314 Q671.031 41.8701 667.547 37.1711 Q664.063 32.4315 658.108 32.4315 M658.108 26.1121 Q667.831 26.1121 673.38 32.4315 Q678.93 38.7509 678.93 49.9314 Q678.93 61.0714 673.38 67.4314 Q667.831 73.7508 658.108 73.7508 Q648.346 73.7508 642.796 67.4314 Q637.287 61.0714 637.287 49.9314 Q637.287 38.7509 642.796 32.4315 Q648.346 26.1121 658.108 26.1121 Z" fill="#000000" fill-rule="evenodd" fill-opacity="1" /><path clip-path="url(#clip850)" d="M 0 0 M714.254 9.54393 L714.254 15.7418 L707.124 15.7418 Q703.114 15.7418 701.534 17.3622 Q699.995 18.9825 699.995 23.1955 L699.995 27.2059 L712.269 27.2059 L712.269 32.9987 L699.995 32.9987 L699.995 72.576 L692.501 72.576 L692.501 32.9987 L685.371 32.9987 L685.371 27.2059 L692.501 27.2059 L692.501 24.0462 Q692.501 16.471 696.025 13.0277 Q699.549 9.54393 707.205 9.54393 L714.254 9.54393 Z" fill="#000000" fill-rule="evenodd" fill-opacity="1" /><path clip-path="url(#clip850)" d="M 0 0 M755.371 18.8205 L755.371 41.5461 L765.66 41.5461 Q771.372 41.5461 774.491 38.5889 Q777.61 35.6318 777.61 30.163 Q777.61 24.7348 774.491 21.7777 Q771.372 18.8205 765.66 18.8205 L755.371 18.8205 M747.188 12.096 L765.66 12.096 Q775.828 12.096 781.013 16.714 Q786.239 21.2916 786.239 30.163 Q786.239 39.1155 781.013 43.6931 Q775.828 48.2706 765.66 48.2706 L755.371 48.2706 L755.371 72.576 L747.188 72.576 L747.188 12.096 Z" fill="#000000" fill-rule="evenodd" fill-opacity="1" /><path clip-path="url(#clip850)" d="M 0 0 M834.606 45.1919 L834.606 72.576 L827.153 72.576 L827.153 45.4349 Q827.153 38.994 824.641 35.7938 Q822.13 32.5936 817.106 32.5936 Q811.071 32.5936 807.587 36.4419 Q804.103 40.2903 804.103 46.9338 L804.103 72.576 L796.609 72.576 L796.609 9.54393 L804.103 9.54393 L804.103 34.2544 Q806.777 30.163 810.382 28.1376 Q814.028 26.1121 818.767 26.1121 Q826.586 26.1121 830.596 30.9732 Q834.606 35.7938 834.606 45.1919 Z" fill="#000000" fill-rule="evenodd" fill-opacity="1" /><path clip-path="url(#clip850)" d="M 0 0 M867.054 32.4315 Q861.059 32.4315 857.575 37.1306 Q854.091 41.7891 854.091 49.9314 Q854.091 58.0738 857.534 62.7728 Q861.018 67.4314 867.054 67.4314 Q873.009 67.4314 876.493 62.7323 Q879.976 58.0333 879.976 49.9314 Q879.976 41.8701 876.493 37.1711 Q873.009 32.4315 867.054 32.4315 M867.054 26.1121 Q876.776 26.1121 882.326 32.4315 Q887.876 38.7509 887.876 49.9314 Q887.876 61.0714 882.326 67.4314 Q876.776 73.7508 867.054 73.7508 Q857.291 73.7508 851.742 67.4314 Q846.232 61.0714 846.232 49.9314 Q846.232 38.7509 851.742 32.4315 Q857.291 26.1121 867.054 26.1121 Z" fill="#000000" fill-rule="evenodd" fill-opacity="1" /><path clip-path="url(#clip850)" d="M 0 0 M907.604 14.324 L907.604 27.2059 L922.957 27.2059 L922.957 32.9987 L907.604 32.9987 L907.604 57.6282 Q907.604 63.1779 909.103 64.7578 Q910.642 66.3376 915.3 66.3376 L922.957 66.3376 L922.957 72.576 L915.3 72.576 Q906.672 72.576 903.391 69.3758 Q900.109 66.1351 900.109 57.6282 L900.109 32.9987 L894.641 32.9987 L894.641 27.2059 L900.109 27.2059 L900.109 14.324 L907.604 14.324 Z" fill="#000000" fill-rule="evenodd" fill-opacity="1" /><path clip-path="url(#clip850)" d="M 0 0 M950.341 32.4315 Q944.345 32.4315 940.862 37.1306 Q937.378 41.7891 937.378 49.9314 Q937.378 58.0738 940.821 62.7728 Q944.305 67.4314 950.341 67.4314 Q956.296 67.4314 959.779 62.7323 Q963.263 58.0333 963.263 49.9314 Q963.263 41.8701 959.779 37.1711 Q956.296 32.4315 950.341 32.4315 M950.341 26.1121 Q960.063 26.1121 965.613 32.4315 Q971.162 38.7509 971.162 49.9314 Q971.162 61.0714 965.613 67.4314 Q960.063 73.7508 950.341 73.7508 Q940.578 73.7508 935.028 67.4314 Q929.519 61.0714 929.519 49.9314 Q929.519 38.7509 935.028 32.4315 Q940.578 26.1121 950.341 26.1121 Z" fill="#000000" fill-rule="evenodd" fill-opacity="1" /><path clip-path="url(#clip850)" d="M 0 0 M1021.23 45.1919 L1021.23 72.576 L1013.78 72.576 L1013.78 45.4349 Q1013.78 38.994 1011.27 35.7938 Q1008.75 32.5936 1003.73 32.5936 Q997.696 32.5936 994.212 36.4419 Q990.728 40.2903 990.728 46.9338 L990.728 72.576 L983.234 72.576 L983.234 27.2059 L990.728 27.2059 L990.728 34.2544 Q993.402 30.163 997.007 28.1376 Q1000.65 26.1121 1005.39 26.1121 Q1013.21 26.1121 1017.22 30.9732 Q1021.23 35.7938 1021.23 45.1919 Z" fill="#000000" fill-rule="evenodd" fill-opacity="1" /><path clip-path="url(#clip850)" d="M 0 0 M1108.08 16.7545 L1108.08 25.383 Q1103.95 21.5346 1099.25 19.6307 Q1094.59 17.7268 1089.33 17.7268 Q1078.96 17.7268 1073.45 24.0867 Q1067.94 30.4061 1067.94 42.3968 Q1067.94 54.3469 1073.45 60.7069 Q1078.96 67.0263 1089.33 67.0263 Q1094.59 67.0263 1099.25 65.1223 Q1103.95 63.2184 1108.08 59.3701 L1108.08 67.9175 Q1103.79 70.8341 1098.97 72.2924 Q1094.19 73.7508 1088.84 73.7508 Q1075.11 73.7508 1067.21 65.3654 Q1059.31 56.9395 1059.31 42.3968 Q1059.31 27.8135 1067.21 19.4281 Q1075.11 11.0023 1088.84 11.0023 Q1094.27 11.0023 1099.05 12.4606 Q1103.87 13.8784 1108.08 16.7545 Z" fill="#000000" fill-rule="evenodd" fill-opacity="1" /><path clip-path="url(#clip850)" d="M 0 0 M1137.98 32.4315 Q1131.98 32.4315 1128.5 37.1306 Q1125.02 41.7891 1125.02 49.9314 Q1125.02 58.0738 1128.46 62.7728 Q1131.94 67.4314 1137.98 67.4314 Q1143.93 67.4314 1147.42 62.7323 Q1150.9 58.0333 1150.9 49.9314 Q1150.9 41.8701 1147.42 37.1711 Q1143.93 32.4315 1137.98 32.4315 M1137.98 26.1121 Q1147.7 26.1121 1153.25 32.4315 Q1158.8 38.7509 1158.8 49.9314 Q1158.8 61.0714 1153.25 67.4314 Q1147.7 73.7508 1137.98 73.7508 Q1128.22 73.7508 1122.67 67.4314 Q1117.16 61.0714 1117.16 49.9314 Q1117.16 38.7509 1122.67 32.4315 Q1128.22 26.1121 1137.98 26.1121 Z" fill="#000000" fill-rule="evenodd" fill-opacity="1" /><path clip-path="url(#clip850)" d="M 0 0 M1197.45 34.1734 Q1196.19 33.4443 1194.69 33.1202 Q1193.23 32.7556 1191.45 32.7556 Q1185.13 32.7556 1181.73 36.8875 Q1178.37 40.9789 1178.37 48.6757 L1178.37 72.576 L1170.87 72.576 L1170.87 27.2059 L1178.37 27.2059 L1178.37 34.2544 Q1180.72 30.1225 1184.48 28.1376 Q1188.25 26.1121 1193.64 26.1121 Q1194.41 26.1121 1195.34 26.2337 Q1196.27 26.3147 1197.41 26.5172 L1197.45 34.1734 Z" fill="#000000" fill-rule="evenodd" fill-opacity="1" /><path clip-path="url(#clip850)" d="M 0 0 M1230.1 34.1734 Q1228.84 33.4443 1227.34 33.1202 Q1225.88 32.7556 1224.1 32.7556 Q1217.78 32.7556 1214.38 36.8875 Q1211.02 40.9789 1211.02 48.6757 L1211.02 72.576 L1203.52 72.576 L1203.52 27.2059 L1211.02 27.2059 L1211.02 34.2544 Q1213.37 30.1225 1217.13 28.1376 Q1220.9 26.1121 1226.29 26.1121 Q1227.06 26.1121 1227.99 26.2337 Q1228.92 26.3147 1230.06 26.5172 L1230.1 34.1734 Z" fill="#000000" fill-rule="evenodd" fill-opacity="1" /><path clip-path="url(#clip850)" d="M 0 0 M1274.9 48.0275 L1274.9 51.6733 L1240.63 51.6733 Q1241.11 59.3701 1245.25 63.421 Q1249.42 67.4314 1256.83 67.4314 Q1261.13 67.4314 1265.14 66.3781 Q1269.19 65.3249 1273.16 63.2184 L1273.16 70.267 Q1269.15 71.9684 1264.93 72.8596 Q1260.72 73.7508 1256.39 73.7508 Q1245.53 73.7508 1239.17 67.4314 Q1232.85 61.1119 1232.85 50.3365 Q1232.85 39.1965 1238.85 32.6746 Q1244.88 26.1121 1255.09 26.1121 Q1264.25 26.1121 1269.55 32.0264 Q1274.9 37.9003 1274.9 48.0275 M1267.45 45.84 Q1267.36 39.7232 1264 36.0774 Q1260.68 32.4315 1255.17 32.4315 Q1248.93 32.4315 1245.17 35.9558 Q1241.44 39.4801 1240.87 45.8805 L1267.45 45.84 Z" fill="#000000" fill-rule="evenodd" fill-opacity="1" /><path clip-path="url(#clip850)" d="M 0 0 M1287.13 9.54393 L1294.59 9.54393 L1294.59 72.576 L1287.13 72.576 L1287.13 9.54393 Z" fill="#000000" fill-rule="evenodd" fill-opacity="1" /><path clip-path="url(#clip850)" d="M 0 0 M1330.8 49.7694 Q1321.77 49.7694 1318.28 51.8354 Q1314.8 53.9013 1314.8 58.8839 Q1314.8 62.8538 1317.39 65.2034 Q1320.03 67.5124 1324.52 67.5124 Q1330.72 67.5124 1334.45 63.1374 Q1338.21 58.7219 1338.21 51.4303 L1338.21 49.7694 L1330.8 49.7694 M1345.67 46.6907 L1345.67 72.576 L1338.21 72.576 L1338.21 65.6895 Q1335.66 69.8214 1331.85 71.8063 Q1328.05 73.7508 1322.54 73.7508 Q1315.57 73.7508 1311.44 69.8619 Q1307.35 65.9325 1307.35 59.3701 Q1307.35 51.7138 1312.45 47.825 Q1317.6 43.9361 1327.76 43.9361 L1338.21 43.9361 L1338.21 43.2069 Q1338.21 38.0623 1334.81 35.2672 Q1331.45 32.4315 1325.33 32.4315 Q1321.44 32.4315 1317.76 33.3632 Q1314.07 34.295 1310.67 36.1584 L1310.67 29.2718 Q1314.76 27.692 1318.61 26.9223 Q1322.46 26.1121 1326.1 26.1121 Q1335.95 26.1121 1340.81 31.2163 Q1345.67 36.3204 1345.67 46.6907 Z" fill="#000000" fill-rule="evenodd" fill-opacity="1" /><path clip-path="url(#clip850)" d="M 0 0 M1368.39 14.324 L1368.39 27.2059 L1383.75 27.2059 L1383.75 32.9987 L1368.39 32.9987 L1368.39 57.6282 Q1368.39 63.1779 1369.89 64.7578 Q1371.43 66.3376 1376.09 66.3376 L1383.75 66.3376 L1383.75 72.576 L1376.09 72.576 Q1367.46 72.576 1364.18 69.3758 Q1360.9 66.1351 1360.9 57.6282 L1360.9 32.9987 L1355.43 32.9987 L1355.43 27.2059 L1360.9 27.2059 L1360.9 14.324 L1368.39 14.324 Z" fill="#000000" fill-rule="evenodd" fill-opacity="1" /><path clip-path="url(#clip850)" d="M 0 0 M1393.55 27.2059 L1401 27.2059 L1401 72.576 L1393.55 72.576 L1393.55 27.2059 M1393.55 9.54393 L1401 9.54393 L1401 18.9825 L1393.55 18.9825 L1393.55 9.54393 Z" fill="#000000" fill-rule="evenodd" fill-opacity="1" /><path clip-path="url(#clip850)" d="M 0 0 M1434.18 32.4315 Q1428.19 32.4315 1424.7 37.1306 Q1421.22 41.7891 1421.22 49.9314 Q1421.22 58.0738 1424.66 62.7728 Q1428.14 67.4314 1434.18 67.4314 Q1440.14 67.4314 1443.62 62.7323 Q1447.1 58.0333 1447.1 49.9314 Q1447.1 41.8701 1443.62 37.1711 Q1440.14 32.4315 1434.18 32.4315 M1434.18 26.1121 Q1443.9 26.1121 1449.45 32.4315 Q1455 38.7509 1455 49.9314 Q1455 61.0714 1449.45 67.4314 Q1443.9 73.7508 1434.18 73.7508 Q1424.42 73.7508 1418.87 67.4314 Q1413.36 61.0714 1413.36 49.9314 Q1413.36 38.7509 1418.87 32.4315 Q1424.42 26.1121 1434.18 26.1121 Z" fill="#000000" fill-rule="evenodd" fill-opacity="1" /><path clip-path="url(#clip850)" d="M 0 0 M1505.07 45.1919 L1505.07 72.576 L1497.62 72.576 L1497.62 45.4349 Q1497.62 38.994 1495.11 35.7938 Q1492.59 32.5936 1487.57 32.5936 Q1481.54 32.5936 1478.05 36.4419 Q1474.57 40.2903 1474.57 46.9338 L1474.57 72.576 L1467.07 72.576 L1467.07 27.2059 L1474.57 27.2059 L1474.57 34.2544 Q1477.24 30.163 1480.85 28.1376 Q1484.49 26.1121 1489.23 26.1121 Q1497.05 26.1121 1501.06 30.9732 Q1505.07 35.7938 1505.07 45.1919 Z" fill="#000000" fill-rule="evenodd" fill-opacity="1" /><path clip-path="url(#clip850)" d="M 0 0 M1548.86 28.5427 L1548.86 35.5912 Q1545.7 33.9709 1542.3 33.1607 Q1538.9 32.3505 1535.25 32.3505 Q1529.7 32.3505 1526.91 34.0519 Q1524.15 35.7533 1524.15 39.156 Q1524.15 41.7486 1526.14 43.2475 Q1528.12 44.7058 1534.12 46.0426 L1536.67 46.6097 Q1544.61 48.3111 1547.93 51.4303 Q1551.29 54.509 1551.29 60.0587 Q1551.29 66.3781 1546.27 70.0644 Q1541.29 73.7508 1532.54 73.7508 Q1528.89 73.7508 1524.92 73.0216 Q1520.99 72.3329 1516.62 70.9151 L1516.62 63.2184 Q1520.75 65.3654 1524.76 66.4591 Q1528.77 67.5124 1532.7 67.5124 Q1537.96 67.5124 1540.8 65.73 Q1543.64 63.9071 1543.64 60.6258 Q1543.64 57.5877 1541.57 55.9673 Q1539.54 54.3469 1532.62 52.8481 L1530.03 52.2405 Q1523.1 50.7821 1520.02 47.7845 Q1516.94 44.7463 1516.94 39.4801 Q1516.94 33.0797 1521.48 29.5959 Q1526.01 26.1121 1534.36 26.1121 Q1538.49 26.1121 1542.14 26.7198 Q1545.78 27.3274 1548.86 28.5427 Z" fill="#000000" fill-rule="evenodd" fill-opacity="1" /><path clip-path="url(#clip850)" d="M 0 0 M1584.19 27.2059 L1592.08 27.2059 L1606.26 65.2844 L1620.44 27.2059 L1628.34 27.2059 L1611.33 72.576 L1601.2 72.576 L1584.19 27.2059 Z" fill="#000000" fill-rule="evenodd" fill-opacity="1" /><path clip-path="url(#clip850)" d="M 0 0 M1667.55 28.5427 L1667.55 35.5912 Q1664.39 33.9709 1660.99 33.1607 Q1657.59 32.3505 1653.94 32.3505 Q1648.39 32.3505 1645.6 34.0519 Q1642.84 35.7533 1642.84 39.156 Q1642.84 41.7486 1644.83 43.2475 Q1646.81 44.7058 1652.81 46.0426 L1655.36 46.6097 Q1663.3 48.3111 1666.62 51.4303 Q1669.98 54.509 1669.98 60.0587 Q1669.98 66.3781 1664.96 70.0644 Q1659.98 73.7508 1651.23 73.7508 Q1647.58 73.7508 1643.61 73.0216 Q1639.68 72.3329 1635.31 70.9151 L1635.31 63.2184 Q1639.44 65.3654 1643.45 66.4591 Q1647.46 67.5124 1651.39 67.5124 Q1656.66 67.5124 1659.49 65.73 Q1662.33 63.9071 1662.33 60.6258 Q1662.33 57.5877 1660.26 55.9673 Q1658.24 54.3469 1651.31 52.8481 L1648.72 52.2405 Q1641.79 50.7821 1638.71 47.7845 Q1635.63 44.7463 1635.63 39.4801 Q1635.63 33.0797 1640.17 29.5959 Q1644.71 26.1121 1653.05 26.1121 Q1657.18 26.1121 1660.83 26.7198 Q1664.47 27.3274 1667.55 28.5427 Z" fill="#000000" fill-rule="evenodd" fill-opacity="1" /><path clip-path="url(#clip850)" d="M 0 0 M1708.55 12.096 L1743.31 12.096 L1743.31 18.9825 L1716.73 18.9825 L1716.73 36.8065 L1740.71 36.8065 L1740.71 43.6931 L1716.73 43.6931 L1716.73 72.576 L1708.55 72.576 L1708.55 12.096 Z" fill="#000000" fill-rule="evenodd" fill-opacity="1" /><path clip-path="url(#clip850)" d="M 0 0 M1776.2 34.1734 Q1774.94 33.4443 1773.44 33.1202 Q1771.99 32.7556 1770.2 32.7556 Q1763.88 32.7556 1760.48 36.8875 Q1757.12 40.9789 1757.12 48.6757 L1757.12 72.576 L1749.62 72.576 L1749.62 27.2059 L1757.12 27.2059 L1757.12 34.2544 Q1759.47 30.1225 1763.24 28.1376 Q1767 26.1121 1772.39 26.1121 Q1773.16 26.1121 1774.09 26.2337 Q1775.02 26.3147 1776.16 26.5172 L1776.2 34.1734 Z" fill="#000000" fill-rule="evenodd" fill-opacity="1" /><path clip-path="url(#clip850)" d="M 0 0 M1821 48.0275 L1821 51.6733 L1786.73 51.6733 Q1787.22 59.3701 1791.35 63.421 Q1795.52 67.4314 1802.93 67.4314 Q1807.23 67.4314 1811.24 66.3781 Q1815.29 65.3249 1819.26 63.2184 L1819.26 70.267 Q1815.25 71.9684 1811.04 72.8596 Q1806.82 73.7508 1802.49 73.7508 Q1791.63 73.7508 1785.27 67.4314 Q1778.95 61.1119 1778.95 50.3365 Q1778.95 39.1965 1784.95 32.6746 Q1790.98 26.1121 1801.19 26.1121 Q1810.35 26.1121 1815.65 32.0264 Q1821 37.9003 1821 48.0275 M1813.55 45.84 Q1813.47 39.7232 1810.1 36.0774 Q1806.78 32.4315 1801.27 32.4315 Q1795.04 32.4315 1791.27 35.9558 Q1787.54 39.4801 1786.97 45.8805 L1813.55 45.84 Z" fill="#000000" fill-rule="evenodd" fill-opacity="1" /><path clip-path="url(#clip850)" d="M 0 0 M1837.69 49.9314 Q1837.69 58.1548 1841.05 62.8538 Q1844.46 67.5124 1850.37 67.5124 Q1856.28 67.5124 1859.69 62.8538 Q1863.09 58.1548 1863.09 49.9314 Q1863.09 41.7081 1859.69 37.0496 Q1856.28 32.3505 1850.37 32.3505 Q1844.46 32.3505 1841.05 37.0496 Q1837.69 41.7081 1837.69 49.9314 M1863.09 65.7705 Q1860.74 69.8214 1857.14 71.8063 Q1853.57 73.7508 1848.55 73.7508 Q1840.32 73.7508 1835.14 67.1883 Q1829.99 60.6258 1829.99 49.9314 Q1829.99 39.2371 1835.14 32.6746 Q1840.32 26.1121 1848.55 26.1121 Q1853.57 26.1121 1857.14 28.0971 Q1860.74 30.0415 1863.09 34.0924 L1863.09 27.2059 L1870.54 27.2059 L1870.54 89.8329 L1863.09 89.8329 L1863.09 65.7705 Z" fill="#000000" fill-rule="evenodd" fill-opacity="1" /><path clip-path="url(#clip850)" d="M 0 0 M1885.13 54.671 L1885.13 27.2059 L1892.58 27.2059 L1892.58 54.3874 Q1892.58 60.8284 1895.09 64.0691 Q1897.6 67.2693 1902.63 67.2693 Q1908.66 67.2693 1912.15 63.421 Q1915.67 59.5726 1915.67 52.9291 L1915.67 27.2059 L1923.12 27.2059 L1923.12 72.576 L1915.67 72.576 L1915.67 65.6084 Q1912.96 69.7404 1909.35 71.7658 Q1905.79 73.7508 1901.05 73.7508 Q1893.23 73.7508 1889.18 68.8897 Q1885.13 64.0286 1885.13 54.671 M1903.88 26.1121 L1903.88 26.1121 Z" fill="#000000" fill-rule="evenodd" fill-opacity="1" /><path clip-path="url(#clip850)" d="M 0 0 M1977.29 48.0275 L1977.29 51.6733 L1943.01 51.6733 Q1943.5 59.3701 1947.63 63.421 Q1951.81 67.4314 1959.22 67.4314 Q1963.51 67.4314 1967.52 66.3781 Q1971.57 65.3249 1975.54 63.2184 L1975.54 70.267 Q1971.53 71.9684 1967.32 72.8596 Q1963.11 73.7508 1958.77 73.7508 Q1947.92 73.7508 1941.56 67.4314 Q1935.24 61.1119 1935.24 50.3365 Q1935.24 39.1965 1941.23 32.6746 Q1947.27 26.1121 1957.48 26.1121 Q1966.63 26.1121 1971.94 32.0264 Q1977.29 37.9003 1977.29 48.0275 M1969.83 45.84 Q1969.75 39.7232 1966.39 36.0774 Q1963.07 32.4315 1957.56 32.4315 Q1951.32 32.4315 1947.55 35.9558 Q1943.82 39.4801 1943.26 45.8805 L1969.83 45.84 Z" fill="#000000" fill-rule="evenodd" fill-opacity="1" /><path clip-path="url(#clip850)" d="M 0 0 M2027.23 45.1919 L2027.23 72.576 L2019.78 72.576 L2019.78 45.4349 Q2019.78 38.994 2017.27 35.7938 Q2014.76 32.5936 2009.73 32.5936 Q2003.7 32.5936 2000.21 36.4419 Q1996.73 40.2903 1996.73 46.9338 L1996.73 72.576 L1989.24 72.576 L1989.24 27.2059 L1996.73 27.2059 L1996.73 34.2544 Q1999.4 30.163 2003.01 28.1376 Q2006.65 26.1121 2011.39 26.1121 Q2019.21 26.1121 2023.22 30.9732 Q2027.23 35.7938 2027.23 45.1919 Z" fill="#000000" fill-rule="evenodd" fill-opacity="1" /><path clip-path="url(#clip850)" d="M 0 0 M2074.75 28.9478 L2074.75 35.9153 Q2071.59 34.1734 2068.39 33.3227 Q2065.23 32.4315 2061.99 32.4315 Q2054.74 32.4315 2050.73 37.0496 Q2046.72 41.6271 2046.72 49.9314 Q2046.72 58.2358 2050.73 62.8538 Q2054.74 67.4314 2061.99 67.4314 Q2065.23 67.4314 2068.39 66.5807 Q2071.59 65.6895 2074.75 63.9476 L2074.75 70.8341 Q2071.63 72.2924 2068.27 73.0216 Q2064.95 73.7508 2061.18 73.7508 Q2050.93 73.7508 2044.9 67.3098 Q2038.86 60.8689 2038.86 49.9314 Q2038.86 38.832 2044.94 32.472 Q2051.05 26.1121 2061.67 26.1121 Q2065.11 26.1121 2068.39 26.8413 Q2071.67 27.5299 2074.75 28.9478 Z" fill="#000000" fill-rule="evenodd" fill-opacity="1" /><path clip-path="url(#clip850)" d="M 0 0 M2106.59 76.7889 Q2103.43 84.8907 2100.43 87.3618 Q2097.44 89.8329 2092.41 89.8329 L2086.46 89.8329 L2086.46 83.5945 L2090.83 83.5945 Q2093.91 83.5945 2095.61 82.1361 Q2097.31 80.6778 2099.38 75.2496 L2100.72 71.8468 L2082.37 27.2059 L2090.27 27.2059 L2104.44 62.6918 L2118.62 27.2059 L2126.52 27.2059 L2106.59 76.7889 Z" fill="#000000" fill-rule="evenodd" fill-opacity="1" /><polyline clip-path="url(#clip853)" style="stroke:#009af9; stroke-width:4; stroke-opacity:1; fill:none" points="
  351.02,1324.83 354.766,1128.19 358.511,1207.98 362.257,1251.96 366.002,1224.55 369.747,1216.88 373.493,1164.23 377.238,1217.64 380.984,1239.36 384.729,1226.71 
  388.474,1232.92 392.22,1208.22 395.965,1236.3 399.711,1191.3 403.456,1224.66 407.201,1202.07 410.947,1224.51 414.692,1253.74 418.438,1250.31 422.183,1204.82 
  425.928,1216.6 429.674,1210.71 433.419,1169.18 437.165,1213.25 440.91,1220.59 444.655,1188.41 448.401,1169.57 452.146,1135.25 455.892,1061.03 459.637,763.851 
  463.382,158.463 467.128,941.804 470.873,1159.04 474.619,1120.36 478.364,1183.91 482.109,1165.05 485.855,1230.08 489.6,1228.6 493.346,1218.15 497.091,1242.43 
  500.836,1244.56 504.582,1230.67 508.327,1255 512.073,1208.59 515.818,1188.72 519.563,1203.77 523.309,1101.55 527.054,1243.46 530.8,1181.34 534.545,1253.79 
  538.29,1207.71 542.036,1163 545.781,1202.17 549.527,1236.17 553.272,1238.77 557.017,1250.87 560.763,1242.48 564.508,1239.02 568.254,1236.06 571.999,1243.3 
  575.744,1201.68 579.49,1235.55 583.235,1090.76 586.981,1191.7 590.726,1232.42 594.471,1255.65 598.217,1266.97 601.962,1265.73 605.708,1261.28 609.453,1246.76 
  613.198,1255.44 616.944,1241.7 620.689,1260.56 624.435,1194.88 628.18,1196.13 631.925,1242.3 635.671,1242.82 639.416,1241.5 643.162,1229.4 646.907,1232.18 
  650.652,1239.58 654.398,1222.76 658.143,1234.53 661.889,1246.97 665.634,1214.62 669.38,1196.86 673.125,1271.34 676.87,1293.81 680.616,1270.75 684.361,1278.75 
  688.107,1251.67 691.852,1226.15 695.597,1135.04 699.343,1270.13 703.088,1291.97 706.834,1245.67 710.579,1203.99 714.324,1262.43 718.07,1273.76 721.815,1217.48 
  725.561,1274.1 729.306,1272.93 733.051,1217.63 736.797,1191.91 740.542,1181.43 744.288,1223.62 748.033,1247.08 751.778,1239.5 755.524,1258.44 759.269,1258.34 
  763.015,1249.05 766.76,1260.52 770.505,1268.08 774.251,1276.7 777.996,1218.83 781.742,1237.88 785.487,1270.75 789.232,1266.59 792.978,1267.64 796.723,1269.45 
  800.469,1257.87 804.214,1233.23 807.959,1242.73 811.705,1238.43 815.45,1279.98 819.196,1253.32 822.941,1219.62 826.686,1176.87 830.432,1248.24 834.177,1274.05 
  837.923,1261.6 841.668,1266.64 845.413,1229.77 849.159,1231.56 852.904,1120.89 856.65,1223.97 860.395,1217.5 864.14,1256 867.886,1218.68 871.631,1253.96 
  875.377,1224.39 879.122,1238.02 882.867,1240.39 886.613,1227.07 890.358,1245.11 894.104,1279.11 897.849,1257.55 901.594,1234.44 905.34,1212.99 909.085,1253.39 
  912.831,1265.89 916.576,1262.99 920.321,1247.1 924.067,1278.32 927.812,1279.35 931.558,1265.35 935.303,1264.01 939.048,1230.32 942.794,1265.55 946.539,1267.73 
  950.285,1233.57 954.03,1241.46 957.775,1217.72 961.521,1192.62 965.266,1087.3 969.012,1188.14 972.757,1215.12 976.502,1264.78 980.248,1271.88 983.993,1278.98 
  987.739,1267.26 991.484,1261.74 995.23,1257.46 998.975,1186.28 1002.72,1235.54 1006.47,1266.48 1010.21,1260.76 1013.96,1169.5 1017.7,1180.78 1021.45,1240.86 
  1025.19,1243.5 1028.94,1261.18 1032.68,1280.93 1036.43,1280.31 1040.17,1236.89 1043.92,1260.11 1047.67,1239.54 1051.41,1240.25 1055.16,1197.96 1058.9,1193.88 
  1062.65,1262.62 1066.39,1277.43 1070.14,1255.64 1073.88,1244.85 1077.63,1218.4 1081.37,1247.28 1085.12,1240.99 1088.86,1250.37 1092.61,1272.2 1096.36,1283.63 
  1100.1,1254.67 1103.85,1246.6 1107.59,1238.7 1111.34,1211.02 1115.08,1236.93 1118.83,1195.7 1122.57,1158.72 1126.32,1169.73 1130.06,981.72 1133.81,1200.35 
  1137.55,1209.44 1141.3,1204.61 1145.05,1280.96 1148.79,1240.89 1152.54,1233.53 1156.28,1262.42 1160.03,1238.93 1163.77,1277.48 1167.52,1246.88 1171.26,1256.72 
  1175.01,1232.19 1178.75,1228.33 1182.5,1261.12 1186.25,1221.05 1189.99,1245.04 1193.74,1233.96 1197.48,1209.65 1201.23,1268.34 1204.97,1270.34 1208.72,1285.57 
  1212.46,1273.17 1216.21,1279.86 1219.95,1264.23 1223.7,1247.64 1227.44,1247.66 1231.19,1225.53 1234.94,1250.09 1238.68,1232.71 1242.43,1251.22 1246.17,1227.05 
  1249.92,1246.14 1253.66,1257.97 1257.41,1257.43 1261.15,1258.22 1264.9,1268.48 1268.64,1266.6 1272.39,1257.88 1276.13,1253.62 1279.88,1223.78 1283.63,1259.11 
  1287.37,1261.43 1291.12,1259.82 1294.86,1275.32 1298.61,1261.36 1302.35,1275.16 1306.1,1280.26 1309.84,1273.02 1313.59,1249.4 1317.33,1253.1 1321.08,1244.92 
  1324.82,1282.78 1328.57,1244.04 1332.32,1243.47 1336.06,1258.62 1339.81,1262.72 1343.55,1237.25 1347.3,1239.69 1351.04,1246.2 1354.79,1205.06 1358.53,1236.8 
  1362.28,1209.77 1366.02,1268.77 1369.77,1262.91 1373.52,1252.66 1377.26,1238.82 1381.01,1263.88 1384.75,1222.53 1388.5,1201.58 1392.24,1259.87 1395.99,1278.48 
  1399.73,1280.6 1403.48,1277.03 1407.22,1268.19 1410.97,1248.73 1414.71,1287.99 1418.46,1287.03 1422.21,1243 1425.95,1236.49 1429.7,1269.55 1433.44,1284.85 
  1437.19,1279.99 1440.93,1273.71 1444.68,1282.5 1448.42,1273.04 1452.17,1233.35 1455.91,1279.16 1459.66,1245.48 1463.4,1269.23 1467.15,1236.1 1470.9,1272.03 
  1474.64,1274.03 1478.39,1277.16 1482.13,1248.05 1485.88,1270.39 1489.62,1247.51 1493.37,1245.54 1497.11,1257.52 1500.86,1275.48 1504.6,1286.3 1508.35,1288.08 
  1512.1,1301.41 1515.84,1292.34 1519.59,1260.62 1523.33,1263.18 1527.08,1288.11 1530.82,1283.48 1534.57,1283.05 1538.31,1295.93 1542.06,1297.38 1545.8,1298.11 
  1549.55,1293.69 1553.29,1283.63 1557.04,1268.51 1560.79,1253.03 1564.53,1272.14 1568.28,1277.16 1572.02,1272.98 1575.77,1288.89 1579.51,1268.03 1583.26,1244.75 
  1587,1236.43 1590.75,1276.71 1594.49,1290.85 1598.24,1302.58 1601.98,1295.92 1605.73,1288.2 1609.48,1311.26 1613.22,1300.38 1616.97,1261.55 1620.71,1307.22 
  1624.46,1303.57 1628.2,1304.8 1631.95,1277.09 1635.69,1301.31 1639.44,1299.39 1643.18,1244.65 1646.93,1286.76 1650.67,1295.7 1654.42,1279.05 1658.17,1279.26 
  1661.91,1256.65 1665.66,1296.42 1669.4,1262.16 1673.15,1243.65 1676.89,1291.17 1680.64,1292.89 1684.38,1301.96 1688.13,1295.78 1691.87,1296.41 1695.62,1282.11 
  1699.37,1252.21 1703.11,1289.43 1706.86,1305.71 1710.6,1304.77 1714.35,1259.88 1718.09,1299.66 1721.84,1299.76 1725.58,1303.16 1729.33,1291.06 1733.07,1309.74 
  1736.82,1279.62 1740.56,1292.8 1744.31,1270.87 1748.06,1295.98 1751.8,1287.01 1755.55,1284.01 1759.29,1292.66 1763.04,1281.05 1766.78,1238.67 1770.53,1228.97 
  1774.27,1243.48 1778.02,1274.51 1781.76,1255.87 1785.51,1273.7 1789.25,1288.27 1793,1282.38 1796.75,1276.43 1800.49,1259.38 1804.24,1259.46 1807.98,1185.07 
  1811.73,1222.55 1815.47,1228.67 1819.22,1267.7 1822.96,1256.74 1826.71,1265.75 1830.45,1257.05 1834.2,1287.18 1837.95,1283.47 1841.69,1278.63 1845.44,1285.54 
  1849.18,1250.85 1852.93,1267.49 1856.67,1281.67 1860.42,1262.58 1864.16,1257.82 1867.91,1293.88 1871.65,1293.36 1875.4,1248.48 1879.14,1276.51 1882.89,1275.9 
  1886.64,1258.52 1890.38,1267.11 1894.13,1281.09 1897.87,1290.71 1901.62,1279.01 1905.36,1274.74 1909.11,1198.22 1912.85,1274.37 1916.6,1214.21 1920.34,1264.26 
  1924.09,1263.24 1927.83,1280.49 1931.58,1270.04 1935.33,1290.5 1939.07,1277.08 1942.82,1292.31 1946.56,1287.55 1950.31,1276.43 1954.05,1265.28 1957.8,1288.12 
  1961.54,1278.29 1965.29,1274.52 1969.03,1284.11 1972.78,1257.25 1976.52,1205.05 1980.27,1268.76 1984.02,1290.69 1987.76,1247.09 1991.51,1297.22 1995.25,1282.51 
  1999,1266.86 2002.74,1267.43 2006.49,1282.73 2010.23,1302.43 2013.98,1297.4 2017.72,1295.95 2021.47,1302.27 2025.22,1295.31 2028.96,1270.27 2032.71,1294.66 
  2036.45,1295.44 2040.2,1295.31 2043.94,1299.43 2047.69,1244.65 2051.43,1297.42 2055.18,1285.37 2058.92,1284.12 2062.67,1274.42 2066.41,1280.55 2070.16,1299.46 
  2073.91,1293.07 2077.65,1290.1 2081.4,1286.41 2085.14,1289.87 2088.89,1266.68 2092.63,1268.54 2096.38,1301.12 2100.12,1289.84 2103.87,1298.64 2107.61,1298.77 
  2111.36,1288.1 2115.1,1275.94 2118.85,1276.86 2122.6,1289.94 2126.34,1304.68 2130.09,1271.67 2133.83,1286.05 2137.58,1293.67 2141.32,1284.27 2145.07,1281.27 
  2148.81,1293.84 2152.56,1295.66 2156.3,1281.84 2160.05,1269.16 2163.8,1229.94 2167.54,1272.5 2171.29,1295.73 2175.03,1287.27 2178.78,1295.65 2182.52,1303.55 
  2186.27,1297.14 2190.01,1271.72 2193.76,1303.91 2197.5,1309.26 2201.25,1286.6 
  "/>
<polyline clip-path="url(#clip853)" style="stroke:#e26f46; stroke-width:4; stroke-opacity:1; fill:none" stroke-dasharray="16, 10" points="
  462.146,2596.17 462.146,-1112.88 
  "/>
<path clip-path="url(#clip850)" d="
M1620.48 285.644 L2191.38 285.644 L2191.38 164.684 L1620.48 164.684  Z
  " fill="#ffffff" fill-rule="evenodd" fill-opacity="1"/>
<polyline clip-path="url(#clip850)" style="stroke:#000000; stroke-width:4; stroke-opacity:1; fill:none" points="
  1620.48,285.644 2191.38,285.644 2191.38,164.684 1620.48,164.684 1620.48,285.644 
  "/>
<polyline clip-path="url(#clip850)" style="stroke:#e26f46; stroke-width:4; stroke-opacity:1; fill:none" stroke-dasharray="16, 10" points="
  1642.27,225.164 1773.02,225.164 
  "/>
<path clip-path="url(#clip850)" d="M 0 0 M1811.32 206.425 L1811.32 209.967 L1807.24 209.967 Q1804.95 209.967 1804.05 210.893 Q1803.17 211.819 1803.17 214.226 L1803.17 216.518 L1810.18 216.518 L1810.18 219.828 L1803.17 219.828 L1803.17 242.444 L1798.89 242.444 L1798.89 219.828 L1794.81 219.828 L1794.81 216.518 L1798.89 216.518 L1798.89 214.712 Q1798.89 210.384 1800.9 208.416 Q1802.92 206.425 1807.29 206.425 L1811.32 206.425 Z" fill="#000000" fill-rule="evenodd" fill-opacity="1" /><path clip-path="url(#clip850)" d="M 0 0 M1829.91 220.499 Q1829.19 220.083 1828.33 219.898 Q1827.5 219.689 1826.48 219.689 Q1822.87 219.689 1820.92 222.05 Q1819 224.388 1819 228.786 L1819 242.444 L1814.72 242.444 L1814.72 216.518 L1819 216.518 L1819 220.546 Q1820.35 218.185 1822.5 217.05 Q1824.65 215.893 1827.73 215.893 Q1828.17 215.893 1828.7 215.962 Q1829.23 216.009 1829.88 216.124 L1829.91 220.499 Z" fill="#000000" fill-rule="evenodd" fill-opacity="1" /><path clip-path="url(#clip850)" d="M 0 0 M1855.51 228.416 L1855.51 230.499 L1835.92 230.499 Q1836.2 234.897 1838.56 237.212 Q1840.95 239.504 1845.18 239.504 Q1847.64 239.504 1849.93 238.902 Q1852.24 238.3 1854.51 237.097 L1854.51 241.124 Q1852.22 242.096 1849.81 242.606 Q1847.41 243.115 1844.93 243.115 Q1838.73 243.115 1835.09 239.504 Q1831.48 235.893 1831.48 229.735 Q1831.48 223.37 1834.91 219.643 Q1838.36 215.893 1844.19 215.893 Q1849.42 215.893 1852.45 219.273 Q1855.51 222.629 1855.51 228.416 M1851.25 227.166 Q1851.2 223.671 1849.28 221.587 Q1847.38 219.504 1844.23 219.504 Q1840.67 219.504 1838.52 221.518 Q1836.39 223.532 1836.06 227.189 L1851.25 227.166 Z" fill="#000000" fill-rule="evenodd" fill-opacity="1" /><path clip-path="url(#clip850)" d="M 0 0 M1865.04 229.504 Q1865.04 234.203 1866.97 236.888 Q1868.91 239.55 1872.29 239.55 Q1875.67 239.55 1877.61 236.888 Q1879.56 234.203 1879.56 229.504 Q1879.56 224.805 1877.61 222.143 Q1875.67 219.458 1872.29 219.458 Q1868.91 219.458 1866.97 222.143 Q1865.04 224.805 1865.04 229.504 M1879.56 238.555 Q1878.22 240.87 1876.16 242.004 Q1874.12 243.115 1871.25 243.115 Q1866.55 243.115 1863.59 239.365 Q1860.65 235.615 1860.65 229.504 Q1860.65 223.393 1863.59 219.643 Q1866.55 215.893 1871.25 215.893 Q1874.12 215.893 1876.16 217.027 Q1878.22 218.138 1879.56 220.453 L1879.56 216.518 L1883.82 216.518 L1883.82 252.305 L1879.56 252.305 L1879.56 238.555 Z" fill="#000000" fill-rule="evenodd" fill-opacity="1" /><path clip-path="url(#clip850)" d="M 0 0 M1892.15 232.212 L1892.15 216.518 L1896.41 216.518 L1896.41 232.05 Q1896.41 235.731 1897.85 237.583 Q1899.28 239.411 1902.15 239.411 Q1905.6 239.411 1907.59 237.212 Q1909.6 235.013 1909.6 231.217 L1909.6 216.518 L1913.86 216.518 L1913.86 242.444 L1909.6 242.444 L1909.6 238.462 Q1908.05 240.823 1905.99 241.981 Q1903.96 243.115 1901.25 243.115 Q1896.78 243.115 1894.47 240.337 Q1892.15 237.559 1892.15 232.212 M1902.87 215.893 L1902.87 215.893 Z" fill="#000000" fill-rule="evenodd" fill-opacity="1" /><path clip-path="url(#clip850)" d="M 0 0 M1944.81 228.416 L1944.81 230.499 L1925.23 230.499 Q1925.51 234.897 1927.87 237.212 Q1930.25 239.504 1934.49 239.504 Q1936.94 239.504 1939.23 238.902 Q1941.55 238.3 1943.82 237.097 L1943.82 241.124 Q1941.53 242.096 1939.12 242.606 Q1936.71 243.115 1934.23 243.115 Q1928.03 243.115 1924.4 239.504 Q1920.79 235.893 1920.79 229.735 Q1920.79 223.37 1924.21 219.643 Q1927.66 215.893 1933.49 215.893 Q1938.73 215.893 1941.76 219.273 Q1944.81 222.629 1944.81 228.416 M1940.55 227.166 Q1940.51 223.671 1938.59 221.587 Q1936.69 219.504 1933.54 219.504 Q1929.98 219.504 1927.82 221.518 Q1925.69 223.532 1925.37 227.189 L1940.55 227.166 Z" fill="#000000" fill-rule="evenodd" fill-opacity="1" /><path clip-path="url(#clip850)" d="M 0 0 M1973.35 226.796 L1973.35 242.444 L1969.1 242.444 L1969.1 226.935 Q1969.1 223.254 1967.66 221.425 Q1966.22 219.597 1963.35 219.597 Q1959.91 219.597 1957.91 221.796 Q1955.92 223.995 1955.92 227.791 L1955.92 242.444 L1951.64 242.444 L1951.64 216.518 L1955.92 216.518 L1955.92 220.546 Q1957.45 218.208 1959.51 217.05 Q1961.6 215.893 1964.3 215.893 Q1968.77 215.893 1971.06 218.671 Q1973.35 221.425 1973.35 226.796 Z" fill="#000000" fill-rule="evenodd" fill-opacity="1" /><path clip-path="url(#clip850)" d="M 0 0 M2000.51 217.513 L2000.51 221.495 Q1998.7 220.499 1996.87 220.013 Q1995.07 219.504 1993.22 219.504 Q1989.07 219.504 1986.78 222.143 Q1984.49 224.759 1984.49 229.504 Q1984.49 234.249 1986.78 236.888 Q1989.07 239.504 1993.22 239.504 Q1995.07 239.504 1996.87 239.018 Q1998.7 238.509 2000.51 237.513 L2000.51 241.448 Q1998.72 242.282 1996.8 242.698 Q1994.91 243.115 1992.75 243.115 Q1986.9 243.115 1983.45 239.434 Q1980 235.754 1980 229.504 Q1980 223.161 1983.47 219.527 Q1986.97 215.893 1993.03 215.893 Q1995 215.893 1996.87 216.31 Q1998.75 216.703 2000.51 217.513 Z" fill="#000000" fill-rule="evenodd" fill-opacity="1" /><path clip-path="url(#clip850)" d="M 0 0 M2018.7 244.851 Q2016.9 249.481 2015.18 250.893 Q2013.47 252.305 2010.6 252.305 L2007.2 252.305 L2007.2 248.74 L2009.7 248.74 Q2011.46 248.74 2012.43 247.907 Q2013.4 247.073 2014.58 243.971 L2015.34 242.027 L2004.86 216.518 L2009.37 216.518 L2017.47 236.796 L2025.58 216.518 L2030.09 216.518 L2018.7 244.851 Z" fill="#000000" fill-rule="evenodd" fill-opacity="1" /><path clip-path="url(#clip850)" d="M 0 0 M2067.57 217.282 L2067.57 221.31 Q2065.76 220.384 2063.82 219.921 Q2061.87 219.458 2059.79 219.458 Q2056.62 219.458 2055.02 220.43 Q2053.45 221.402 2053.45 223.347 Q2053.45 224.828 2054.58 225.685 Q2055.72 226.518 2059.14 227.282 L2060.6 227.606 Q2065.14 228.578 2067.03 230.36 Q2068.96 232.12 2068.96 235.291 Q2068.96 238.902 2066.09 241.009 Q2063.24 243.115 2058.24 243.115 Q2056.15 243.115 2053.89 242.698 Q2051.64 242.305 2049.14 241.495 L2049.14 237.097 Q2051.5 238.323 2053.79 238.948 Q2056.09 239.55 2058.33 239.55 Q2061.34 239.55 2062.96 238.532 Q2064.58 237.49 2064.58 235.615 Q2064.58 233.879 2063.4 232.953 Q2062.24 232.027 2058.28 231.171 L2056.8 230.823 Q2052.84 229.99 2051.09 228.277 Q2049.33 226.541 2049.33 223.532 Q2049.33 219.874 2051.92 217.884 Q2054.51 215.893 2059.28 215.893 Q2061.64 215.893 2063.72 216.24 Q2065.81 216.587 2067.57 217.282 Z" fill="#000000" fill-rule="evenodd" fill-opacity="1" /><path clip-path="url(#clip850)" d="M 0 0 M2097.29 226.796 L2097.29 242.444 L2093.03 242.444 L2093.03 226.935 Q2093.03 223.254 2091.59 221.425 Q2090.16 219.597 2087.29 219.597 Q2083.84 219.597 2081.85 221.796 Q2079.86 223.995 2079.86 227.791 L2079.86 242.444 L2075.58 242.444 L2075.58 206.425 L2079.86 206.425 L2079.86 220.546 Q2081.39 218.208 2083.45 217.05 Q2085.53 215.893 2088.24 215.893 Q2092.71 215.893 2095 218.671 Q2097.29 221.425 2097.29 226.796 Z" fill="#000000" fill-rule="evenodd" fill-opacity="1" /><path clip-path="url(#clip850)" d="M 0 0 M2105.78 216.518 L2110.04 216.518 L2110.04 242.444 L2105.78 242.444 L2105.78 216.518 M2105.78 206.425 L2110.04 206.425 L2110.04 211.819 L2105.78 211.819 L2105.78 206.425 Z" fill="#000000" fill-rule="evenodd" fill-opacity="1" /><path clip-path="url(#clip850)" d="M 0 0 M2132.08 206.425 L2132.08 209.967 L2128.01 209.967 Q2125.71 209.967 2124.81 210.893 Q2123.93 211.819 2123.93 214.226 L2123.93 216.518 L2130.95 216.518 L2130.95 219.828 L2123.93 219.828 L2123.93 242.444 L2119.65 242.444 L2119.65 219.828 L2115.58 219.828 L2115.58 216.518 L2119.65 216.518 L2119.65 214.712 Q2119.65 210.384 2121.66 208.416 Q2123.68 206.425 2128.05 206.425 L2132.08 206.425 Z" fill="#000000" fill-rule="evenodd" fill-opacity="1" /><path clip-path="url(#clip850)" d="M 0 0 M2139.02 209.157 L2139.02 216.518 L2147.8 216.518 L2147.8 219.828 L2139.02 219.828 L2139.02 233.902 Q2139.02 237.073 2139.88 237.976 Q2140.76 238.879 2143.42 238.879 L2147.8 238.879 L2147.8 242.444 L2143.42 242.444 Q2138.49 242.444 2136.62 240.615 Q2134.74 238.763 2134.74 233.902 L2134.74 219.828 L2131.62 219.828 L2131.62 216.518 L2134.74 216.518 L2134.74 209.157 L2139.02 209.157 Z" fill="#000000" fill-rule="evenodd" fill-opacity="1" /></svg>
