<?xml version="1.0" encoding="utf-8"?>
<svg xmlns="http://www.w3.org/2000/svg" xmlns:xlink="http://www.w3.org/1999/xlink" width="576" height="384" viewBox="0 0 2304 1536">
<defs>
  <clipPath id="clip940">
    <rect x="0" y="0" width="2304" height="1536"/>
  </clipPath>
</defs>
<path clip-path="url(#clip940)" d="
M0 1536 L2304 1536 L2304 0 L0 0  Z
  " fill="#ffffff" fill-rule="evenodd" fill-opacity="1"/>
<defs>
  <clipPath id="clip941">
    <rect x="460" y="0" width="1614" height="1536"/>
  </clipPath>
</defs>
<defs>
  <clipPath id="clip942">
    <rect x="223" y="123" width="2035" height="1241"/>
  </clipPath>
</defs>
<path clip-path="url(#clip940)" d="
M264.102 1363.79 L2256.76 1363.79 L2256.76 123.472 L264.102 123.472  Z
  " fill="#ffffff" fill-rule="evenodd" fill-opacity="1"/>
<defs>
  <clipPath id="clip943">
    <rect x="264" y="123" width="1994" height="1241"/>
  </clipPath>
</defs>
<polyline clip-path="url(#clip943)" style="stroke:#000000; stroke-width:2; stroke-opacity:0.1; fill:none" points="
  320.497,1363.79 320.497,123.472 
  "/>
<polyline clip-path="url(#clip943)" style="stroke:#000000; stroke-width:2; stroke-opacity:0.1; fill:none" points="
  791.405,1363.79 791.405,123.472 
  "/>
<polyline clip-path="url(#clip943)" style="stroke:#000000; stroke-width:2; stroke-opacity:0.1; fill:none" points="
  1262.31,1363.79 1262.31,123.472 
  "/>
<polyline clip-path="url(#clip943)" style="stroke:#000000; stroke-width:2; stroke-opacity:0.1; fill:none" points="
  1733.22,1363.79 1733.22,123.472 
  "/>
<polyline clip-path="url(#clip943)" style="stroke:#000000; stroke-width:2; stroke-opacity:0.1; fill:none" points="
  2204.13,1363.79 2204.13,123.472 
  "/>
<polyline clip-path="url(#clip940)" style="stroke:#000000; stroke-width:4; stroke-opacity:1; fill:none" points="
  264.102,1363.79 2256.76,1363.79 
  "/>
<polyline clip-path="url(#clip940)" style="stroke:#000000; stroke-width:4; stroke-opacity:1; fill:none" points="
  320.497,1363.79 320.497,1348.91 
  "/>
<polyline clip-path="url(#clip940)" style="stroke:#000000; stroke-width:4; stroke-opacity:1; fill:none" points="
  791.405,1363.79 791.405,1348.91 
  "/>
<polyline clip-path="url(#clip940)" style="stroke:#000000; stroke-width:4; stroke-opacity:1; fill:none" points="
  1262.31,1363.79 1262.31,1348.91 
  "/>
<polyline clip-path="url(#clip940)" style="stroke:#000000; stroke-width:4; stroke-opacity:1; fill:none" points="
  1733.22,1363.79 1733.22,1348.91 
  "/>
<polyline clip-path="url(#clip940)" style="stroke:#000000; stroke-width:4; stroke-opacity:1; fill:none" points="
  2204.13,1363.79 2204.13,1348.91 
  "/>
<path clip-path="url(#clip940)" d="M 0 0 M297.882 1392.21 Q294.271 1392.21 292.442 1395.78 Q290.637 1399.32 290.637 1406.45 Q290.637 1413.56 292.442 1417.12 Q294.271 1420.66 297.882 1420.66 Q301.516 1420.66 303.322 1417.12 Q305.15 1413.56 305.15 1406.45 Q305.15 1399.32 303.322 1395.78 Q301.516 1392.21 297.882 1392.21 M297.882 1388.51 Q303.692 1388.51 306.748 1393.12 Q309.826 1397.7 309.826 1406.45 Q309.826 1415.18 306.748 1419.78 Q303.692 1424.37 297.882 1424.37 Q292.072 1424.37 288.993 1419.78 Q285.937 1415.18 285.937 1406.45 Q285.937 1397.7 288.993 1393.12 Q292.072 1388.51 297.882 1388.51 Z" fill="#000000" fill-rule="evenodd" fill-opacity="1" /><path clip-path="url(#clip940)" d="M 0 0 M318.044 1417.81 L322.928 1417.81 L322.928 1423.69 L318.044 1423.69 L318.044 1417.81 Z" fill="#000000" fill-rule="evenodd" fill-opacity="1" /><path clip-path="url(#clip940)" d="M 0 0 M343.113 1392.21 Q339.502 1392.21 337.673 1395.78 Q335.868 1399.32 335.868 1406.45 Q335.868 1413.56 337.673 1417.12 Q339.502 1420.66 343.113 1420.66 Q346.747 1420.66 348.553 1417.12 Q350.382 1413.56 350.382 1406.45 Q350.382 1399.32 348.553 1395.78 Q346.747 1392.21 343.113 1392.21 M343.113 1388.51 Q348.923 1388.51 351.979 1393.12 Q355.057 1397.7 355.057 1406.45 Q355.057 1415.18 351.979 1419.78 Q348.923 1424.37 343.113 1424.37 Q337.303 1424.37 334.224 1419.78 Q331.169 1415.18 331.169 1406.45 Q331.169 1397.7 334.224 1393.12 Q337.303 1388.51 343.113 1388.51 Z" fill="#000000" fill-rule="evenodd" fill-opacity="1" /><path clip-path="url(#clip940)" d="M 0 0 M763.141 1419.76 L779.461 1419.76 L779.461 1423.69 L757.516 1423.69 L757.516 1419.76 Q760.178 1417 764.762 1412.37 Q769.368 1407.72 770.549 1406.38 Q772.794 1403.86 773.674 1402.12 Q774.576 1400.36 774.576 1398.67 Q774.576 1395.92 772.632 1394.18 Q770.711 1392.44 767.609 1392.44 Q765.41 1392.44 762.956 1393.21 Q760.525 1393.97 757.748 1395.52 L757.748 1390.8 Q760.572 1389.67 763.025 1389.09 Q765.479 1388.51 767.516 1388.51 Q772.886 1388.51 776.081 1391.19 Q779.275 1393.88 779.275 1398.37 Q779.275 1400.5 778.465 1402.42 Q777.678 1404.32 775.572 1406.91 Q774.993 1407.58 771.891 1410.8 Q768.789 1413.99 763.141 1419.76 Z" fill="#000000" fill-rule="evenodd" fill-opacity="1" /><path clip-path="url(#clip940)" d="M 0 0 M789.275 1417.81 L794.16 1417.81 L794.16 1423.69 L789.275 1423.69 L789.275 1417.81 Z" fill="#000000" fill-rule="evenodd" fill-opacity="1" /><path clip-path="url(#clip940)" d="M 0 0 M804.391 1389.13 L822.747 1389.13 L822.747 1393.07 L808.673 1393.07 L808.673 1401.54 Q809.692 1401.19 810.71 1401.03 Q811.729 1400.85 812.747 1400.85 Q818.534 1400.85 821.914 1404.02 Q825.294 1407.19 825.294 1412.61 Q825.294 1418.18 821.821 1421.29 Q818.349 1424.37 812.03 1424.37 Q809.854 1424.37 807.585 1423.99 Q805.34 1423.62 802.933 1422.88 L802.933 1418.18 Q805.016 1419.32 807.238 1419.87 Q809.46 1420.43 811.937 1420.43 Q815.942 1420.43 818.28 1418.32 Q820.618 1416.22 820.618 1412.61 Q820.618 1408.99 818.28 1406.89 Q815.942 1404.78 811.937 1404.78 Q810.062 1404.78 808.187 1405.2 Q806.335 1405.62 804.391 1406.49 L804.391 1389.13 Z" fill="#000000" fill-rule="evenodd" fill-opacity="1" /><path clip-path="url(#clip940)" d="M 0 0 M1229.48 1389.13 L1247.83 1389.13 L1247.83 1393.07 L1233.76 1393.07 L1233.76 1401.54 Q1234.78 1401.19 1235.8 1401.03 Q1236.81 1400.85 1237.83 1400.85 Q1243.62 1400.85 1247 1404.02 Q1250.38 1407.19 1250.38 1412.61 Q1250.38 1418.18 1246.91 1421.29 Q1243.44 1424.37 1237.12 1424.37 Q1234.94 1424.37 1232.67 1423.99 Q1230.43 1423.62 1228.02 1422.88 L1228.02 1418.18 Q1230.1 1419.32 1232.32 1419.87 Q1234.55 1420.43 1237.02 1420.43 Q1241.03 1420.43 1243.37 1418.32 Q1245.7 1416.22 1245.7 1412.61 Q1245.7 1408.99 1243.37 1406.89 Q1241.03 1404.78 1237.02 1404.78 Q1235.15 1404.78 1233.27 1405.2 Q1231.42 1405.62 1229.48 1406.49 L1229.48 1389.13 Z" fill="#000000" fill-rule="evenodd" fill-opacity="1" /><path clip-path="url(#clip940)" d="M 0 0 M1259.59 1417.81 L1264.48 1417.81 L1264.48 1423.69 L1259.59 1423.69 L1259.59 1417.81 Z" fill="#000000" fill-rule="evenodd" fill-opacity="1" /><path clip-path="url(#clip940)" d="M 0 0 M1284.66 1392.21 Q1281.05 1392.21 1279.22 1395.78 Q1277.42 1399.32 1277.42 1406.45 Q1277.42 1413.56 1279.22 1417.12 Q1281.05 1420.66 1284.66 1420.66 Q1288.3 1420.66 1290.1 1417.12 Q1291.93 1413.56 1291.93 1406.45 Q1291.93 1399.32 1290.1 1395.78 Q1288.3 1392.21 1284.66 1392.21 M1284.66 1388.51 Q1290.47 1388.51 1293.53 1393.12 Q1296.61 1397.7 1296.61 1406.45 Q1296.61 1415.18 1293.53 1419.78 Q1290.47 1424.37 1284.66 1424.37 Q1278.85 1424.37 1275.77 1419.78 Q1272.72 1415.18 1272.72 1406.45 Q1272.72 1397.7 1275.77 1393.12 Q1278.85 1388.51 1284.66 1388.51 Z" fill="#000000" fill-rule="evenodd" fill-opacity="1" /><path clip-path="url(#clip940)" d="M 0 0 M1699.54 1389.13 L1721.76 1389.13 L1721.76 1391.12 L1709.22 1423.69 L1704.33 1423.69 L1716.14 1393.07 L1699.54 1393.07 L1699.54 1389.13 Z" fill="#000000" fill-rule="evenodd" fill-opacity="1" /><path clip-path="url(#clip940)" d="M 0 0 M1730.88 1417.81 L1735.77 1417.81 L1735.77 1423.69 L1730.88 1423.69 L1730.88 1417.81 Z" fill="#000000" fill-rule="evenodd" fill-opacity="1" /><path clip-path="url(#clip940)" d="M 0 0 M1746 1389.13 L1764.35 1389.13 L1764.35 1393.07 L1750.28 1393.07 L1750.28 1401.54 Q1751.3 1401.19 1752.32 1401.03 Q1753.34 1400.85 1754.35 1400.85 Q1760.14 1400.85 1763.52 1404.02 Q1766.9 1407.19 1766.9 1412.61 Q1766.9 1418.18 1763.43 1421.29 Q1759.96 1424.37 1753.64 1424.37 Q1751.46 1424.37 1749.19 1423.99 Q1746.95 1423.62 1744.54 1422.88 L1744.54 1418.18 Q1746.62 1419.32 1748.84 1419.87 Q1751.07 1420.43 1753.54 1420.43 Q1757.55 1420.43 1759.89 1418.32 Q1762.22 1416.22 1762.22 1412.61 Q1762.22 1408.99 1759.89 1406.89 Q1757.55 1404.78 1753.54 1404.78 Q1751.67 1404.78 1749.79 1405.2 Q1747.94 1405.62 1746 1406.49 L1746 1389.13 Z" fill="#000000" fill-rule="evenodd" fill-opacity="1" /><path clip-path="url(#clip940)" d="M 0 0 M2156.2 1419.76 L2163.84 1419.76 L2163.84 1393.39 L2155.53 1395.06 L2155.53 1390.8 L2163.79 1389.13 L2168.47 1389.13 L2168.47 1419.76 L2176.11 1419.76 L2176.11 1423.69 L2156.2 1423.69 L2156.2 1419.76 Z" fill="#000000" fill-rule="evenodd" fill-opacity="1" /><path clip-path="url(#clip940)" d="M 0 0 M2195.55 1392.21 Q2191.94 1392.21 2190.11 1395.78 Q2188.31 1399.32 2188.31 1406.45 Q2188.31 1413.56 2190.11 1417.12 Q2191.94 1420.66 2195.55 1420.66 Q2199.19 1420.66 2200.99 1417.12 Q2202.82 1413.56 2202.82 1406.45 Q2202.82 1399.32 2200.99 1395.78 Q2199.19 1392.21 2195.55 1392.21 M2195.55 1388.51 Q2201.36 1388.51 2204.42 1393.12 Q2207.5 1397.7 2207.5 1406.45 Q2207.5 1415.18 2204.42 1419.78 Q2201.36 1424.37 2195.55 1424.37 Q2189.74 1424.37 2186.66 1419.78 Q2183.61 1415.18 2183.61 1406.45 Q2183.61 1397.7 2186.66 1393.12 Q2189.74 1388.51 2195.55 1388.51 Z" fill="#000000" fill-rule="evenodd" fill-opacity="1" /><path clip-path="url(#clip940)" d="M 0 0 M2215.71 1417.81 L2220.6 1417.81 L2220.6 1423.69 L2215.71 1423.69 L2215.71 1417.81 Z" fill="#000000" fill-rule="evenodd" fill-opacity="1" /><path clip-path="url(#clip940)" d="M 0 0 M2240.78 1392.21 Q2237.17 1392.21 2235.34 1395.78 Q2233.54 1399.32 2233.54 1406.45 Q2233.54 1413.56 2235.34 1417.12 Q2237.17 1420.66 2240.78 1420.66 Q2244.42 1420.66 2246.22 1417.12 Q2248.05 1413.56 2248.05 1406.45 Q2248.05 1399.32 2246.22 1395.78 Q2244.42 1392.21 2240.78 1392.21 M2240.78 1388.51 Q2246.59 1388.51 2249.65 1393.12 Q2252.73 1397.7 2252.73 1406.45 Q2252.73 1415.18 2249.65 1419.78 Q2246.59 1424.37 2240.78 1424.37 Q2234.97 1424.37 2231.89 1419.78 Q2228.84 1415.18 2228.84 1406.45 Q2228.84 1397.7 2231.89 1393.12 Q2234.97 1388.51 2240.78 1388.51 Z" fill="#000000" fill-rule="evenodd" fill-opacity="1" /><path clip-path="url(#clip940)" d="M 0 0 M1210.96 1465.79 Q1210.96 1468.04 1207.71 1468.04 L1196.63 1468.04 L1192.22 1490.62 Q1192.12 1491.2 1191.99 1491.52 Q1191.89 1491.84 1191.6 1492.39 Q1191.35 1492.9 1190.8 1493.16 Q1190.28 1493.45 1189.51 1493.45 Q1188.54 1493.45 1188.06 1492.87 Q1187.61 1492.33 1187.61 1491.65 Q1187.61 1491.23 1188.25 1489.23 L1194.73 1468.04 L1189.25 1468.04 Q1184.1 1468.04 1180.88 1473.13 Q1180.36 1473.81 1180.07 1473.87 Q1179.95 1473.9 1179.82 1473.9 Q1179.46 1473.9 1179.24 1473.74 Q1179.04 1473.58 1179.04 1473.42 L1179.01 1473.26 Q1179.01 1473.03 1179.53 1472.13 Q1180.07 1471.2 1181.04 1469.81 Q1182.04 1468.43 1183.04 1467.33 Q1184.36 1465.92 1185.84 1465.18 Q1187.32 1464.4 1188.06 1464.31 Q1188.83 1464.21 1189.83 1464.21 L1208.32 1464.21 Q1209.16 1464.21 1209.61 1464.27 Q1210.06 1464.31 1210.51 1464.69 Q1210.96 1465.05 1210.96 1465.79 Z" fill="#000000" fill-rule="evenodd" fill-opacity="1" /><path clip-path="url(#clip940)" d="M 0 0 M1229.25 1476.16 Q1229.25 1465.01 1233.4 1456.03 Q1235.18 1452.26 1237.66 1449.11 Q1240.14 1445.95 1241.78 1444.56 Q1243.42 1443.18 1243.87 1443.18 Q1244.52 1443.18 1244.55 1443.82 Q1244.55 1444.15 1243.68 1444.95 Q1233.05 1455.77 1233.08 1476.16 Q1233.08 1496.61 1243.42 1507.01 Q1244.55 1508.14 1244.55 1508.49 Q1244.55 1509.14 1243.87 1509.14 Q1243.42 1509.14 1241.84 1507.82 Q1240.26 1506.5 1237.82 1503.47 Q1235.37 1500.44 1233.6 1496.74 Q1229.25 1487.75 1229.25 1476.16 Z" fill="#000000" fill-rule="evenodd" fill-opacity="1" /><path clip-path="url(#clip940)" d="M 0 0 M1254.58 1492.65 L1254.58 1490.62 Q1258.09 1490.62 1258.89 1490.2 Q1259.7 1489.75 1259.7 1487.62 L1259.7 1469.94 Q1259.7 1467.49 1258.83 1466.88 Q1257.99 1466.27 1254.58 1466.27 L1254.58 1464.21 L1263.85 1463.5 L1263.85 1470.43 Q1266.94 1463.5 1273.61 1463.5 Q1278.57 1463.5 1280.53 1465.95 Q1281.98 1467.59 1282.27 1469.43 Q1282.59 1471.26 1282.59 1476.03 L1282.59 1488.62 Q1282.66 1490.01 1283.72 1490.33 Q1284.78 1490.62 1287.75 1490.62 L1287.75 1492.65 Q1281.02 1492.45 1280.34 1492.45 Q1279.83 1492.45 1272.9 1492.65 L1272.9 1490.62 Q1276.41 1490.62 1277.22 1490.2 Q1278.05 1489.75 1278.05 1487.62 L1278.05 1472.26 Q1278.05 1468.91 1277.02 1466.95 Q1275.99 1464.95 1273.16 1464.95 Q1269.74 1464.95 1267.01 1467.82 Q1264.27 1470.68 1264.27 1475.51 L1264.27 1487.62 Q1264.27 1489.75 1265.07 1490.2 Q1265.91 1490.62 1269.39 1490.62 L1269.39 1492.65 Q1262.66 1492.45 1262.02 1492.45 Q1261.5 1492.45 1254.58 1492.65 Z" fill="#000000" fill-rule="evenodd" fill-opacity="1" /><path clip-path="url(#clip940)" d="M 0 0 M1290.81 1491.78 L1290.81 1483.08 Q1290.81 1482.34 1290.84 1482.08 Q1290.88 1481.83 1291.07 1481.63 Q1291.26 1481.44 1291.65 1481.44 Q1292.1 1481.44 1292.26 1481.63 Q1292.45 1481.83 1292.58 1482.57 Q1293.58 1487.11 1295.71 1489.52 Q1297.86 1491.91 1301.76 1491.91 Q1305.46 1491.91 1307.33 1490.26 Q1309.2 1488.62 1309.2 1485.92 Q1309.2 1481.09 1302.34 1479.86 Q1298.38 1479.06 1296.74 1478.54 Q1295.09 1477.99 1293.64 1476.8 Q1290.81 1474.48 1290.81 1471.2 Q1290.81 1467.91 1293.29 1465.5 Q1295.8 1463.08 1301.34 1463.08 Q1305.05 1463.08 1307.56 1464.95 Q1308.3 1464.37 1308.68 1463.89 Q1309.55 1463.08 1310.01 1463.08 Q1310.52 1463.08 1310.62 1463.44 Q1310.71 1463.76 1310.71 1464.69 L1310.71 1471.33 Q1310.71 1472.07 1310.68 1472.33 Q1310.65 1472.58 1310.46 1472.78 Q1310.26 1472.94 1309.84 1472.94 Q1309.1 1472.94 1309.07 1472.33 Q1308.56 1464.34 1301.34 1464.34 Q1297.45 1464.34 1295.71 1465.85 Q1293.97 1467.33 1293.97 1469.36 Q1293.97 1470.49 1294.48 1471.36 Q1295.03 1472.2 1295.71 1472.71 Q1296.41 1473.2 1297.7 1473.68 Q1298.99 1474.13 1299.76 1474.29 Q1300.57 1474.45 1302.08 1474.77 Q1307.36 1475.77 1309.59 1477.93 Q1312.36 1480.7 1312.36 1484.21 Q1312.36 1488.11 1309.72 1490.75 Q1307.07 1493.39 1301.76 1493.39 Q1297.48 1493.39 1294.48 1490.52 Q1294.1 1490.91 1293.81 1491.26 Q1293.52 1491.58 1293.39 1491.71 Q1293.29 1491.84 1293.26 1491.94 Q1293.23 1492 1293.16 1492.07 Q1291.84 1493.39 1291.52 1493.39 Q1291 1493.39 1290.91 1493.03 Q1290.81 1492.71 1290.81 1491.78 Z" fill="#000000" fill-rule="evenodd" fill-opacity="1" /><path clip-path="url(#clip940)" d="M 0 0 M1316.52 1508.49 Q1316.52 1508.17 1317.36 1507.37 Q1327.98 1496.54 1327.98 1476.16 Q1327.98 1455.71 1317.78 1445.37 Q1316.52 1444.18 1316.52 1443.82 Q1316.52 1443.18 1317.16 1443.18 Q1317.61 1443.18 1319.19 1444.5 Q1320.8 1445.82 1323.22 1448.85 Q1325.67 1451.87 1327.47 1455.58 Q1331.82 1464.56 1331.82 1476.16 Q1331.82 1487.3 1327.66 1496.29 Q1325.89 1500.05 1323.41 1503.21 Q1320.93 1506.37 1319.29 1507.75 Q1317.65 1509.14 1317.16 1509.14 Q1316.52 1509.14 1316.52 1508.49 Z" fill="#000000" fill-rule="evenodd" fill-opacity="1" /><polyline clip-path="url(#clip943)" style="stroke:#000000; stroke-width:2; stroke-opacity:0.1; fill:none" points="
  264.102,1248.28 2256.76,1248.28 
  "/>
<polyline clip-path="url(#clip943)" style="stroke:#000000; stroke-width:2; stroke-opacity:0.1; fill:none" points="
  264.102,1004.84 2256.76,1004.84 
  "/>
<polyline clip-path="url(#clip943)" style="stroke:#000000; stroke-width:2; stroke-opacity:0.1; fill:none" points="
  264.102,761.398 2256.76,761.398 
  "/>
<polyline clip-path="url(#clip943)" style="stroke:#000000; stroke-width:2; stroke-opacity:0.1; fill:none" points="
  264.102,517.956 2256.76,517.956 
  "/>
<polyline clip-path="url(#clip943)" style="stroke:#000000; stroke-width:2; stroke-opacity:0.1; fill:none" points="
  264.102,274.513 2256.76,274.513 
  "/>
<polyline clip-path="url(#clip940)" style="stroke:#000000; stroke-width:4; stroke-opacity:1; fill:none" points="
  264.102,1363.79 264.102,123.472 
  "/>
<polyline clip-path="url(#clip940)" style="stroke:#000000; stroke-width:4; stroke-opacity:1; fill:none" points="
  264.102,1248.28 288.013,1248.28 
  "/>
<polyline clip-path="url(#clip940)" style="stroke:#000000; stroke-width:4; stroke-opacity:1; fill:none" points="
  264.102,1004.84 288.013,1004.84 
  "/>
<polyline clip-path="url(#clip940)" style="stroke:#000000; stroke-width:4; stroke-opacity:1; fill:none" points="
  264.102,761.398 288.013,761.398 
  "/>
<polyline clip-path="url(#clip940)" style="stroke:#000000; stroke-width:4; stroke-opacity:1; fill:none" points="
  264.102,517.956 288.013,517.956 
  "/>
<polyline clip-path="url(#clip940)" style="stroke:#000000; stroke-width:4; stroke-opacity:1; fill:none" points="
  264.102,274.513 288.013,274.513 
  "/>
<path clip-path="url(#clip940)" d="M 0 0 M178.246 1261.63 L185.884 1261.63 L185.884 1235.26 L177.574 1236.93 L177.574 1232.67 L185.838 1231 L190.514 1231 L190.514 1261.63 L198.153 1261.63 L198.153 1265.56 L178.246 1265.56 L178.246 1261.63 Z" fill="#000000" fill-rule="evenodd" fill-opacity="1" /><path clip-path="url(#clip940)" d="M 0 0 M217.597 1234.08 Q213.986 1234.08 212.157 1237.65 Q210.352 1241.19 210.352 1248.32 Q210.352 1255.43 212.157 1258.99 Q213.986 1262.53 217.597 1262.53 Q221.231 1262.53 223.037 1258.99 Q224.866 1255.43 224.866 1248.32 Q224.866 1241.19 223.037 1237.65 Q221.231 1234.08 217.597 1234.08 M217.597 1230.38 Q223.407 1230.38 226.463 1234.99 Q229.542 1239.57 229.542 1248.32 Q229.542 1257.05 226.463 1261.65 Q223.407 1266.24 217.597 1266.24 Q211.787 1266.24 208.708 1261.65 Q205.653 1257.05 205.653 1248.32 Q205.653 1239.57 208.708 1234.99 Q211.787 1230.38 217.597 1230.38 Z" fill="#000000" fill-rule="evenodd" fill-opacity="1" /><path clip-path="url(#clip940)" d="M 0 0 M179.843 1018.19 L187.482 1018.19 L187.482 991.82 L179.171 993.487 L179.171 989.228 L187.435 987.561 L192.111 987.561 L192.111 1018.19 L199.75 1018.19 L199.75 1022.12 L179.843 1022.12 L179.843 1018.19 Z" fill="#000000" fill-rule="evenodd" fill-opacity="1" /><path clip-path="url(#clip940)" d="M 0 0 M213.222 1018.19 L229.542 1018.19 L229.542 1022.12 L207.597 1022.12 L207.597 1018.19 Q210.259 1015.43 214.843 1010.8 Q219.449 1006.15 220.63 1004.81 Q222.875 1002.28 223.755 1000.55 Q224.657 998.788 224.657 997.098 Q224.657 994.344 222.713 992.607 Q220.792 990.871 217.69 990.871 Q215.491 990.871 213.037 991.635 Q210.606 992.399 207.829 993.95 L207.829 989.228 Q210.653 988.094 213.106 987.515 Q215.56 986.936 217.597 986.936 Q222.968 986.936 226.162 989.621 Q229.356 992.307 229.356 996.797 Q229.356 998.927 228.546 1000.85 Q227.759 1002.75 225.653 1005.34 Q225.074 1006.01 221.972 1009.23 Q218.87 1012.42 213.222 1018.19 Z" fill="#000000" fill-rule="evenodd" fill-opacity="1" /><path clip-path="url(#clip940)" d="M 0 0 M177.759 774.743 L185.398 774.743 L185.398 748.378 L177.088 750.044 L177.088 745.785 L185.352 744.118 L190.028 744.118 L190.028 774.743 L197.667 774.743 L197.667 778.678 L177.759 778.678 L177.759 774.743 Z" fill="#000000" fill-rule="evenodd" fill-opacity="1" /><path clip-path="url(#clip940)" d="M 0 0 M219.958 748.192 L208.153 766.641 L219.958 766.641 L219.958 748.192 M218.731 744.118 L224.611 744.118 L224.611 766.641 L229.542 766.641 L229.542 770.53 L224.611 770.53 L224.611 778.678 L219.958 778.678 L219.958 770.53 L204.357 770.53 L204.357 766.016 L218.731 744.118 Z" fill="#000000" fill-rule="evenodd" fill-opacity="1" /><path clip-path="url(#clip940)" d="M 0 0 M178.084 531.3 L185.722 531.3 L185.722 504.935 L177.412 506.602 L177.412 502.342 L185.676 500.676 L190.352 500.676 L190.352 531.3 L197.991 531.3 L197.991 535.236 L178.084 535.236 L178.084 531.3 Z" fill="#000000" fill-rule="evenodd" fill-opacity="1" /><path clip-path="url(#clip940)" d="M 0 0 M218.014 516.092 Q214.866 516.092 213.014 518.245 Q211.185 520.398 211.185 524.148 Q211.185 527.875 213.014 530.05 Q214.866 532.203 218.014 532.203 Q221.162 532.203 222.991 530.05 Q224.843 527.875 224.843 524.148 Q224.843 520.398 222.991 518.245 Q221.162 516.092 218.014 516.092 M227.296 501.439 L227.296 505.699 Q225.537 504.865 223.731 504.426 Q221.949 503.986 220.19 503.986 Q215.56 503.986 213.106 507.111 Q210.676 510.236 210.329 516.555 Q211.694 514.541 213.755 513.476 Q215.815 512.389 218.292 512.389 Q223.5 512.389 226.509 515.56 Q229.542 518.708 229.542 524.148 Q229.542 529.472 226.393 532.689 Q223.245 535.907 218.014 535.907 Q212.019 535.907 208.847 531.324 Q205.676 526.717 205.676 517.99 Q205.676 509.796 209.565 504.935 Q213.454 500.051 220.005 500.051 Q221.764 500.051 223.546 500.398 Q225.352 500.745 227.296 501.439 Z" fill="#000000" fill-rule="evenodd" fill-opacity="1" /><path clip-path="url(#clip940)" d="M 0 0 M178.338 287.858 L185.977 287.858 L185.977 261.492 L177.667 263.159 L177.667 258.899 L185.931 257.233 L190.607 257.233 L190.607 287.858 L198.245 287.858 L198.245 291.793 L178.338 291.793 L178.338 287.858 Z" fill="#000000" fill-rule="evenodd" fill-opacity="1" /><path clip-path="url(#clip940)" d="M 0 0 M217.69 275.381 Q214.356 275.381 212.435 277.163 Q210.537 278.946 210.537 282.071 Q210.537 285.196 212.435 286.978 Q214.356 288.76 217.69 288.76 Q221.023 288.76 222.944 286.978 Q224.866 285.172 224.866 282.071 Q224.866 278.946 222.944 277.163 Q221.046 275.381 217.69 275.381 M213.014 273.39 Q210.005 272.649 208.315 270.589 Q206.648 268.529 206.648 265.566 Q206.648 261.423 209.588 259.015 Q212.551 256.608 217.69 256.608 Q222.852 256.608 225.792 259.015 Q228.731 261.423 228.731 265.566 Q228.731 268.529 227.042 270.589 Q225.375 272.649 222.389 273.39 Q225.768 274.177 227.643 276.469 Q229.542 278.76 229.542 282.071 Q229.542 287.094 226.463 289.779 Q223.407 292.464 217.69 292.464 Q211.972 292.464 208.894 289.779 Q205.838 287.094 205.838 282.071 Q205.838 278.76 207.736 276.469 Q209.634 274.177 213.014 273.39 M211.301 266.006 Q211.301 268.691 212.968 270.196 Q214.657 271.7 217.69 271.7 Q220.699 271.7 222.389 270.196 Q224.102 268.691 224.102 266.006 Q224.102 263.321 222.389 261.816 Q220.699 260.312 217.69 260.312 Q214.657 260.312 212.968 261.816 Q211.301 263.321 211.301 266.006 Z" fill="#000000" fill-rule="evenodd" fill-opacity="1" /><path clip-path="url(#clip940)" d="M 0 0 M96.5483 796.326 L112.973 801.994 L112.973 856.679 Q112.973 857.42 112.941 857.71 Q112.909 858 112.748 858.225 Q112.587 858.451 112.233 858.451 Q111.943 858.451 111.202 857.871 L82.2489 834.457 L49.1412 858.515 Q47.6276 858.515 47.3377 858.257 Q47.0157 858 47.0157 856.679 L47.0157 801.994 L62.4423 796.326 L62.4423 797.968 Q60.4455 798.709 58.7708 799.9 Q57.0639 801.06 55.8401 802.412 Q54.6162 803.733 53.6501 805.472 Q52.6517 807.179 52.0398 808.789 Q51.3957 810.367 50.9448 812.332 Q50.4617 814.296 50.2362 815.874 Q49.9786 817.42 49.8498 819.353 Q49.7209 821.285 49.6887 822.509 Q49.6565 823.733 49.6565 825.279 L49.6565 851.398 L79.0605 829.981 Q79.8012 829.498 79.9945 829.498 Q80.2843 829.498 81.0572 830.109 L109.334 852.976 L109.334 824.957 Q109.334 815.939 107.434 809.659 Q105.985 805.408 103.118 802.316 Q100.252 799.192 96.5483 797.968 L96.5483 796.326 Z" fill="#000000" fill-rule="evenodd" fill-opacity="1" /><path clip-path="url(#clip940)" d="M 0 0 M129.637 869.523 Q130.629 869.523 131.373 870.334 Q132.095 871.123 132.095 871.98 Q132.095 872.769 131.621 873.265 Q131.125 873.738 130.426 873.738 Q129.502 873.738 128.736 872.949 Q127.969 872.16 127.969 871.236 Q127.969 870.469 128.443 869.996 Q128.916 869.523 129.637 869.523 M151.888 869.117 Q152.069 869.117 152.79 869.32 Q153.489 869.523 154.571 870.018 Q155.631 870.492 156.623 871.146 Q157.615 871.799 158.314 872.882 Q159.012 873.941 159.012 875.159 Q159.012 876.804 157.93 877.886 Q156.848 878.946 155.225 878.946 Q154.346 878.946 151.528 877.886 Q143.322 874.82 142.984 874.708 Q141.699 874.189 140.571 874.189 Q140.053 874.189 139.737 874.302 Q139.399 874.415 139.286 874.64 Q139.151 874.865 139.128 875.001 Q139.106 875.113 139.106 875.339 Q139.106 876.669 140.459 877.909 Q141.811 879.149 144.832 880.006 Q145.396 880.186 145.531 880.299 Q145.666 880.411 145.666 880.749 Q145.644 881.313 145.193 881.313 Q145.058 881.313 144.539 881.155 Q143.998 880.997 143.186 880.704 Q142.352 880.411 141.496 879.893 Q140.616 879.374 139.85 878.743 Q139.083 878.089 138.587 877.165 Q138.091 876.241 138.091 875.204 Q138.091 873.513 139.196 872.476 Q140.278 871.416 141.879 871.416 Q142.758 871.416 144.314 872.025 Q146.343 872.769 146.996 873.039 L151.843 874.843 Q153.602 875.497 154.143 875.7 Q154.661 875.88 155.293 876.038 Q155.901 876.173 156.465 876.173 Q157.254 876.173 157.615 875.925 Q157.975 875.655 157.975 875.068 Q157.975 873.445 156.375 872.25 Q154.752 871.056 152.272 870.357 Q152.204 870.334 152.091 870.312 Q151.528 870.131 151.46 869.951 Q151.438 869.861 151.438 869.68 Q151.438 869.117 151.888 869.117 Z" fill="#000000" fill-rule="evenodd" fill-opacity="1" /><path clip-path="url(#clip940)" d="M 0 0 M151.483 852.74 Q150.919 852.695 150.919 851.816 L150.919 823.523 Q150.919 822.193 151.438 822.17 Q152.001 822.17 151.979 823.433 L151.979 851.5 Q152.001 852.74 151.483 852.74 M142.465 852.74 Q141.901 852.74 141.924 851.771 L141.924 823.568 Q141.924 822.193 142.465 822.17 Q142.984 822.17 142.984 823.342 L142.984 851.816 Q142.984 852.74 142.465 852.74 Z" fill="#000000" fill-rule="evenodd" fill-opacity="1" /><path clip-path="url(#clip940)" d="M 0 0 M132.14 804.362 L130.697 804.362 Q130.697 798.816 127.744 795.953 Q127.744 795.164 127.924 795.029 Q128.104 794.893 128.939 794.893 L154.842 794.893 Q156.217 794.893 156.645 794.217 Q157.074 793.541 157.074 790.588 L157.074 789.122 L158.494 789.122 Q158.359 790.745 158.359 796.607 Q158.359 802.468 158.494 804.069 L157.074 804.069 L157.074 802.604 Q157.074 799.695 156.668 798.996 Q156.239 798.298 154.842 798.298 L130.922 798.298 Q132.14 800.71 132.14 804.362 Z" fill="#000000" fill-rule="evenodd" fill-opacity="1" /><path clip-path="url(#clip940)" d="M 0 0 M-1.6977 852.421 L-3.14052 852.421 Q-3.14052 846.876 -6.0938 844.012 Q-6.0938 843.223 -5.91345 843.088 Q-5.73309 842.953 -4.89896 842.953 L21.0042 842.953 Q22.3794 842.953 22.8077 842.277 Q23.2361 841.6 23.2361 838.647 L23.2361 837.182 L24.6564 837.182 Q24.5211 838.805 24.5211 844.666 Q24.5211 850.528 24.6564 852.128 L23.2361 852.128 L23.2361 850.663 Q23.2361 847.755 22.8303 847.056 Q22.4019 846.357 21.0042 846.357 L-2.91508 846.357 Q-1.6977 848.769 -1.6977 852.421 Z" fill="#000000" fill-rule="evenodd" fill-opacity="1" /><path clip-path="url(#clip940)" d="M 0 0 M9.88997 833.254 Q3.1042 833.254 -0.593038 831.54 Q-6.0938 829.151 -6.0938 823.515 Q-6.0938 822.32 -5.75564 821.08 Q-5.44002 819.817 -4.20009 818.239 Q-2.96017 816.639 -0.931199 815.669 Q2.99147 813.821 9.88997 813.821 Q16.6307 813.821 20.3053 815.534 Q25.6708 818.036 25.6708 823.56 Q25.6708 825.634 24.6113 827.753 Q23.5517 829.849 21.0042 831.18 Q17.1943 833.254 9.88997 833.254 M9.32637 829.421 Q16.2925 829.421 19.0654 828.925 Q22.0638 828.362 23.3713 826.829 Q24.6564 825.273 24.6564 823.56 Q24.6564 821.711 23.2812 820.178 Q21.8834 818.623 18.8851 818.149 Q15.9318 817.631 9.32637 817.653 Q2.9013 817.653 0.33127 818.104 Q-2.6671 818.713 -3.86193 820.336 Q-5.07931 821.937 -5.07931 823.56 Q-5.07931 824.168 -4.89896 824.822 Q-4.71861 825.453 -4.20009 826.378 Q-3.68158 827.302 -2.39657 828.023 Q-1.11155 828.722 0.827241 829.06 Q3.32964 829.421 9.32637 829.421 Z" fill="#000000" fill-rule="evenodd" fill-opacity="1" /><path clip-path="url(#clip940)" d="M 0 0 M70.4293 737.145 Q70.4615 737.145 71.6209 737.338 L100.896 744.681 Q102.442 745.067 103.988 746.162 Q105.566 747.225 106.919 748.932 Q108.303 750.607 109.141 753.183 Q110.01 755.727 110.01 758.658 Q110.01 763.328 109.012 765.389 Q108.046 767.418 105.985 767.418 Q104.181 767.418 103.15 766.291 Q102.152 765.164 102.152 763.876 Q102.152 762.652 102.861 762.008 Q103.569 761.364 104.471 761.364 Q105.469 761.364 106.468 762.04 Q107.498 762.716 107.885 764.069 Q108.561 761.911 108.561 758.787 Q108.561 752.185 101.572 749.351 Q101.476 749.286 101.444 749.286 L92.7158 747.096 L92.6514 747.193 Q93.2955 747.74 94.0362 748.61 Q94.7447 749.447 95.6143 751.251 Q96.4839 753.054 96.4839 754.826 Q96.4839 758.529 93.6497 761.074 Q90.7834 763.586 86.0492 763.586 Q82.6031 763.586 79.1571 762.201 Q75.6789 760.784 73.1346 758.594 Q70.5581 756.372 68.9478 753.537 Q67.3376 750.671 67.3376 747.901 Q67.3376 745.969 68.497 744.327 Q69.6242 742.684 71.4921 741.782 Q69.9462 741.621 69.3021 740.752 Q68.658 739.85 68.658 739.077 Q68.658 738.208 69.1411 737.692 Q69.592 737.145 70.4293 737.145 M74.455 742.555 Q74.2618 742.555 73.7465 742.684 Q73.199 742.813 72.3295 743.199 Q71.4599 743.554 70.687 744.101 Q69.914 744.649 69.3665 745.647 Q68.7868 746.613 68.7868 747.837 Q68.7868 749.834 70.4615 751.831 Q72.104 753.827 74.6483 755.212 Q77.0959 756.5 81.8302 757.724 Q86.5645 758.916 88.9799 758.916 Q91.3631 758.916 93.1989 757.885 Q95.0346 756.855 95.0346 754.632 Q95.0346 752.056 92.6514 749.286 Q90.1715 746.42 88.0459 745.937 L75.4534 742.749 Q74.6805 742.555 74.455 742.555 Z" fill="#000000" fill-rule="evenodd" fill-opacity="1" /><path clip-path="url(#clip940)" d="M 0 0 M99.1601 718.618 Q100.152 718.618 100.896 719.429 Q101.617 720.218 101.617 721.075 Q101.617 721.864 101.144 722.36 Q100.648 722.833 99.9491 722.833 Q99.0248 722.833 98.2583 722.044 Q97.4918 721.255 97.4918 720.331 Q97.4918 719.565 97.9653 719.091 Q98.4387 718.618 99.1601 718.618 M121.411 718.212 Q121.591 718.212 122.313 718.415 Q123.012 718.618 124.094 719.114 Q125.153 719.587 126.145 720.241 Q127.137 720.895 127.836 721.977 Q128.535 723.036 128.535 724.254 Q128.535 725.899 127.453 726.982 Q126.371 728.041 124.748 728.041 Q123.868 728.041 121.05 726.982 Q112.844 723.916 112.506 723.803 Q111.221 723.284 110.094 723.284 Q109.575 723.284 109.26 723.397 Q108.922 723.51 108.809 723.735 Q108.674 723.961 108.651 724.096 Q108.629 724.209 108.629 724.434 Q108.629 725.764 109.981 727.004 Q111.334 728.244 114.355 729.101 Q114.918 729.281 115.054 729.394 Q115.189 729.506 115.189 729.845 Q115.166 730.408 114.716 730.408 Q114.58 730.408 114.062 730.25 Q113.521 730.093 112.709 729.8 Q111.875 729.506 111.018 728.988 Q110.139 728.469 109.373 727.838 Q108.606 727.184 108.11 726.26 Q107.614 725.336 107.614 724.299 Q107.614 722.608 108.719 721.571 Q109.801 720.511 111.402 720.511 Q112.281 720.511 113.836 721.12 Q115.865 721.864 116.519 722.135 L121.366 723.938 Q123.124 724.592 123.666 724.795 Q124.184 724.975 124.815 725.133 Q125.424 725.268 125.988 725.268 Q126.777 725.268 127.137 725.02 Q127.498 724.75 127.498 724.164 Q127.498 722.54 125.897 721.345 Q124.274 720.151 121.794 719.452 Q121.727 719.429 121.614 719.407 Q121.05 719.226 120.983 719.046 Q120.96 718.956 120.96 718.775 Q120.96 718.212 121.411 718.212 Z" fill="#000000" fill-rule="evenodd" fill-opacity="1" /><path clip-path="url(#clip940)" d="M 0 0 M54.9347 730.408 Q47.1344 730.408 40.8446 727.5 Q38.207 726.26 35.9976 724.524 Q33.7883 722.788 32.8189 721.639 Q31.8495 720.489 31.8495 720.173 Q31.8495 719.722 32.3004 719.7 Q32.5258 719.7 33.0894 720.308 Q40.6643 727.748 54.9347 727.725 Q69.2502 727.725 76.5319 720.489 Q77.321 719.7 77.569 719.7 Q78.0198 719.7 78.0198 720.173 Q78.0198 720.489 77.0955 721.593 Q76.1712 722.698 74.0521 724.411 Q71.9329 726.125 69.3404 727.365 Q63.0506 730.408 54.9347 730.408 Z" fill="#000000" fill-rule="evenodd" fill-opacity="1" /><path clip-path="url(#clip940)" d="M 0 0 M66.4773 712.68 Q65.6431 712.68 65.3951 712.612 Q65.1472 712.522 64.7639 712.161 L54.8896 703.302 Q49.4339 698.455 44.6771 698.455 Q41.5886 698.455 39.3792 700.078 Q37.1699 701.678 37.1699 704.632 Q37.1699 706.661 38.4098 708.374 Q39.6498 710.087 41.8591 710.876 Q41.814 710.741 41.814 710.268 Q41.814 709.118 42.5354 708.487 Q43.2568 707.833 44.2262 707.833 Q45.4662 707.833 46.0748 708.644 Q46.661 709.434 46.661 710.223 Q46.661 710.538 46.5934 710.967 Q46.5257 711.372 45.8945 712.026 Q45.2407 712.68 44.091 712.68 Q40.8672 712.68 38.2971 710.245 Q35.7271 707.788 35.7271 704.045 Q35.7271 699.807 38.252 697.034 Q40.7544 694.239 44.6771 694.239 Q46.0523 694.239 47.3148 694.667 Q48.5547 695.073 49.5241 695.637 Q50.4935 696.178 52.049 697.666 Q53.6046 699.153 54.7092 700.348 Q55.8139 701.543 58.1585 704.226 L62.9153 709.118 L62.9153 700.799 Q62.9153 696.741 62.5546 696.426 Q61.9008 695.975 58.4516 695.411 L58.4516 694.239 L66.4773 695.546 L66.4773 712.68 Z" fill="#000000" fill-rule="evenodd" fill-opacity="1" /><path clip-path="url(#clip940)" d="M 0 0 M77.569 689.816 Q77.3435 689.816 76.7799 689.23 Q69.2051 681.79 54.9347 681.79 Q40.6192 681.79 33.3825 688.937 Q32.5484 689.816 32.3004 689.816 Q31.8495 689.816 31.8495 689.365 Q31.8495 689.05 32.7738 687.945 Q33.6981 686.818 35.8173 685.127 Q37.9364 683.414 40.529 682.151 Q46.8188 679.108 54.9347 679.108 Q62.7349 679.108 69.0247 682.016 Q71.6624 683.256 73.8717 684.992 Q76.081 686.728 77.0504 687.877 Q78.0198 689.027 78.0198 689.365 Q78.0198 689.816 77.569 689.816 Z" fill="#000000" fill-rule="evenodd" fill-opacity="1" /><path clip-path="url(#clip940)" d="M 0 0 M79.9945 665.048 Q68.8512 665.048 59.8658 660.893 Q56.0977 659.122 52.9415 656.642 Q49.7854 654.162 48.4005 652.52 Q47.0157 650.877 47.0157 650.426 Q47.0157 649.782 47.6598 649.75 Q47.9818 649.75 48.787 650.62 Q59.6081 661.248 79.9945 661.215 Q100.445 661.215 110.848 650.877 Q111.975 649.75 112.329 649.75 Q112.973 649.75 112.973 650.426 Q112.973 650.877 111.653 652.455 Q110.332 654.033 107.305 656.481 Q104.278 658.929 100.574 660.7 Q91.5886 665.048 79.9945 665.048 Z" fill="#000000" fill-rule="evenodd" fill-opacity="1" /><path clip-path="url(#clip940)" d="M 0 0 M69.6242 607.773 Q71.8786 607.773 71.8786 611.026 L71.8786 622.105 L94.4549 626.517 Q95.0346 626.614 95.3567 626.743 Q95.6787 626.839 96.2262 627.129 Q96.7415 627.387 96.9992 627.934 Q97.289 628.45 97.289 629.222 Q97.289 630.189 96.7093 630.672 Q96.1618 631.123 95.4855 631.123 Q95.0668 631.123 93.07 630.479 L71.8786 624.005 L71.8786 629.48 Q71.8786 634.633 76.9671 637.854 Q77.6434 638.369 77.7078 638.659 Q77.74 638.788 77.74 638.916 Q77.74 639.271 77.579 639.496 Q77.418 639.689 77.257 639.689 L77.0959 639.722 Q76.8705 639.722 75.9687 639.206 Q75.0348 638.659 73.6499 637.693 Q72.265 636.694 71.1701 635.696 Q69.753 634.375 69.0123 632.894 Q68.2393 631.412 68.1427 630.672 Q68.0461 629.899 68.0461 628.9 L68.0461 610.414 Q68.0461 609.577 68.1105 609.126 Q68.1427 608.675 68.5292 608.224 Q68.8834 607.773 69.6242 607.773 Z" fill="#000000" fill-rule="evenodd" fill-opacity="1" /><path clip-path="url(#clip940)" d="M 0 0 M112.329 611.206 Q112.007 611.206 111.202 610.368 Q100.381 599.74 79.9945 599.74 Q59.5437 599.74 49.2057 609.95 Q48.014 611.206 47.6598 611.206 Q47.0157 611.206 47.0157 610.562 Q47.0157 610.111 48.3361 608.533 Q49.6565 606.922 52.6839 604.507 Q55.7112 602.059 59.4149 600.256 Q68.4003 595.908 79.9945 595.908 Q91.1377 595.908 100.123 600.062 Q103.891 601.834 107.047 604.314 Q110.204 606.794 111.588 608.436 Q112.973 610.079 112.973 610.562 Q112.973 611.206 112.329 611.206 Z" fill="#000000" fill-rule="evenodd" fill-opacity="1" /><path clip-path="url(#clip940)" d="M 0 0 M423.066 14.0809 L423.066 22.0612 Q418.408 19.8332 414.276 18.7395 Q410.144 17.6457 406.296 17.6457 Q399.612 17.6457 395.966 20.2383 Q392.36 22.8309 392.36 27.611 Q392.36 31.6214 394.751 33.6873 Q397.181 35.7128 403.906 36.9686 L408.848 37.9813 Q418.003 39.7232 422.337 44.1387 Q426.712 48.5136 426.712 55.8863 Q426.712 64.6767 420.798 69.2137 Q414.924 73.7508 403.541 73.7508 Q399.247 73.7508 394.386 72.7785 Q389.565 71.8063 384.38 69.9024 L384.38 61.4765 Q389.363 64.2716 394.143 65.6895 Q398.923 67.1073 403.541 67.1073 Q410.549 67.1073 414.357 64.3527 Q418.165 61.598 418.165 56.4939 Q418.165 52.0379 415.41 49.5264 Q412.696 47.0148 406.458 45.759 L401.475 44.7868 Q392.32 42.9639 388.229 39.075 Q384.137 35.1862 384.137 28.2591 Q384.137 20.2383 389.768 15.6203 Q395.439 11.0023 405.364 11.0023 Q409.617 11.0023 414.033 11.7719 Q418.448 12.5416 423.066 14.0809 Z" fill="#000000" fill-rule="evenodd" fill-opacity="1" /><path clip-path="url(#clip940)" d="M 0 0 M438.379 54.671 L438.379 27.2059 L445.832 27.2059 L445.832 54.3874 Q445.832 60.8284 448.344 64.0691 Q450.856 67.2693 455.879 67.2693 Q461.915 67.2693 465.398 63.421 Q468.923 59.5726 468.923 52.9291 L468.923 27.2059 L476.376 27.2059 L476.376 72.576 L468.923 72.576 L468.923 65.6084 Q466.208 69.7404 462.603 71.7658 Q459.038 73.7508 454.299 73.7508 Q446.481 73.7508 442.43 68.8897 Q438.379 64.0286 438.379 54.671 M457.134 26.1121 L457.134 26.1121 Z" fill="#000000" fill-rule="evenodd" fill-opacity="1" /><path clip-path="url(#clip940)" d="M 0 0 M527.053 35.9153 Q529.848 30.8922 533.737 28.5022 Q537.626 26.1121 542.892 26.1121 Q549.981 26.1121 553.83 31.0947 Q557.678 36.0368 557.678 45.1919 L557.678 72.576 L550.184 72.576 L550.184 45.4349 Q550.184 38.913 547.875 35.7533 Q545.566 32.5936 540.826 32.5936 Q535.033 32.5936 531.671 36.4419 Q528.309 40.2903 528.309 46.9338 L528.309 72.576 L520.815 72.576 L520.815 45.4349 Q520.815 38.8725 518.506 35.7533 Q516.197 32.5936 511.376 32.5936 Q505.664 32.5936 502.302 36.4824 Q498.94 40.3308 498.94 46.9338 L498.94 72.576 L491.446 72.576 L491.446 27.2059 L498.94 27.2059 L498.94 34.2544 Q501.492 30.082 505.057 28.0971 Q508.621 26.1121 513.523 26.1121 Q518.465 26.1121 521.908 28.6237 Q525.392 31.1352 527.053 35.9153 Z" fill="#000000" fill-rule="evenodd" fill-opacity="1" /><path clip-path="url(#clip940)" d="M 0 0 M616.497 32.4315 Q610.502 32.4315 607.018 37.1306 Q603.534 41.7891 603.534 49.9314 Q603.534 58.0738 606.977 62.7728 Q610.461 67.4314 616.497 67.4314 Q622.452 67.4314 625.936 62.7323 Q629.419 58.0333 629.419 49.9314 Q629.419 41.8701 625.936 37.1711 Q622.452 32.4315 616.497 32.4315 M616.497 26.1121 Q626.219 26.1121 631.769 32.4315 Q637.319 38.7509 637.319 49.9314 Q637.319 61.0714 631.769 67.4314 Q626.219 73.7508 616.497 73.7508 Q606.734 73.7508 601.185 67.4314 Q595.675 61.0714 595.675 49.9314 Q595.675 38.7509 601.185 32.4315 Q606.734 26.1121 616.497 26.1121 Z" fill="#000000" fill-rule="evenodd" fill-opacity="1" /><path clip-path="url(#clip940)" d="M 0 0 M672.643 9.54393 L672.643 15.7418 L665.513 15.7418 Q661.503 15.7418 659.923 17.3622 Q658.383 18.9825 658.383 23.1955 L658.383 27.2059 L670.658 27.2059 L670.658 32.9987 L658.383 32.9987 L658.383 72.576 L650.889 72.576 L650.889 32.9987 L643.76 32.9987 L643.76 27.2059 L650.889 27.2059 L650.889 24.0462 Q650.889 16.471 654.413 13.0277 Q657.938 9.54393 665.594 9.54393 L672.643 9.54393 Z" fill="#000000" fill-rule="evenodd" fill-opacity="1" /><path clip-path="url(#clip940)" d="M 0 0 M713.759 18.8205 L713.759 41.5461 L724.049 41.5461 Q729.76 41.5461 732.879 38.5889 Q735.999 35.6318 735.999 30.163 Q735.999 24.7348 732.879 21.7777 Q729.76 18.8205 724.049 18.8205 L713.759 18.8205 M705.576 12.096 L724.049 12.096 Q734.216 12.096 739.401 16.714 Q744.627 21.2916 744.627 30.163 Q744.627 39.1155 739.401 43.6931 Q734.216 48.2706 724.049 48.2706 L713.759 48.2706 L713.759 72.576 L705.576 72.576 L705.576 12.096 Z" fill="#000000" fill-rule="evenodd" fill-opacity="1" /><path clip-path="url(#clip940)" d="M 0 0 M792.995 45.1919 L792.995 72.576 L785.541 72.576 L785.541 45.4349 Q785.541 38.994 783.03 35.7938 Q780.518 32.5936 775.495 32.5936 Q769.459 32.5936 765.975 36.4419 Q762.492 40.2903 762.492 46.9338 L762.492 72.576 L754.997 72.576 L754.997 9.54393 L762.492 9.54393 L762.492 34.2544 Q765.165 30.163 768.77 28.1376 Q772.416 26.1121 777.156 26.1121 Q784.974 26.1121 788.985 30.9732 Q792.995 35.7938 792.995 45.1919 Z" fill="#000000" fill-rule="evenodd" fill-opacity="1" /><path clip-path="url(#clip940)" d="M 0 0 M825.443 32.4315 Q819.447 32.4315 815.964 37.1306 Q812.48 41.7891 812.48 49.9314 Q812.48 58.0738 815.923 62.7728 Q819.407 67.4314 825.443 67.4314 Q831.397 67.4314 834.881 62.7323 Q838.365 58.0333 838.365 49.9314 Q838.365 41.8701 834.881 37.1711 Q831.397 32.4315 825.443 32.4315 M825.443 26.1121 Q835.165 26.1121 840.715 32.4315 Q846.264 38.7509 846.264 49.9314 Q846.264 61.0714 840.715 67.4314 Q835.165 73.7508 825.443 73.7508 Q815.68 73.7508 810.13 67.4314 Q804.621 61.0714 804.621 49.9314 Q804.621 38.7509 810.13 32.4315 Q815.68 26.1121 825.443 26.1121 Z" fill="#000000" fill-rule="evenodd" fill-opacity="1" /><path clip-path="url(#clip940)" d="M 0 0 M865.992 14.324 L865.992 27.2059 L881.345 27.2059 L881.345 32.9987 L865.992 32.9987 L865.992 57.6282 Q865.992 63.1779 867.491 64.7578 Q869.03 66.3376 873.689 66.3376 L881.345 66.3376 L881.345 72.576 L873.689 72.576 Q865.06 72.576 861.779 69.3758 Q858.498 66.1351 858.498 57.6282 L858.498 32.9987 L853.029 32.9987 L853.029 27.2059 L858.498 27.2059 L858.498 14.324 L865.992 14.324 Z" fill="#000000" fill-rule="evenodd" fill-opacity="1" /><path clip-path="url(#clip940)" d="M 0 0 M908.729 32.4315 Q902.734 32.4315 899.25 37.1306 Q895.766 41.7891 895.766 49.9314 Q895.766 58.0738 899.21 62.7728 Q902.693 67.4314 908.729 67.4314 Q914.684 67.4314 918.168 62.7323 Q921.652 58.0333 921.652 49.9314 Q921.652 41.8701 918.168 37.1711 Q914.684 32.4315 908.729 32.4315 M908.729 26.1121 Q918.451 26.1121 924.001 32.4315 Q929.551 38.7509 929.551 49.9314 Q929.551 61.0714 924.001 67.4314 Q918.451 73.7508 908.729 73.7508 Q898.967 73.7508 893.417 67.4314 Q887.908 61.0714 887.908 49.9314 Q887.908 38.7509 893.417 32.4315 Q898.967 26.1121 908.729 26.1121 Z" fill="#000000" fill-rule="evenodd" fill-opacity="1" /><path clip-path="url(#clip940)" d="M 0 0 M979.62 45.1919 L979.62 72.576 L972.166 72.576 L972.166 45.4349 Q972.166 38.994 969.655 35.7938 Q967.143 32.5936 962.12 32.5936 Q956.084 32.5936 952.601 36.4419 Q949.117 40.2903 949.117 46.9338 L949.117 72.576 L941.623 72.576 L941.623 27.2059 L949.117 27.2059 L949.117 34.2544 Q951.79 30.163 955.396 28.1376 Q959.041 26.1121 963.781 26.1121 Q971.599 26.1121 975.61 30.9732 Q979.62 35.7938 979.62 45.1919 Z" fill="#000000" fill-rule="evenodd" fill-opacity="1" /><path clip-path="url(#clip940)" d="M 0 0 M1066.47 16.7545 L1066.47 25.383 Q1062.34 21.5346 1057.64 19.6307 Q1052.98 17.7268 1047.72 17.7268 Q1037.35 17.7268 1031.84 24.0867 Q1026.33 30.4061 1026.33 42.3968 Q1026.33 54.3469 1031.84 60.7069 Q1037.35 67.0263 1047.72 67.0263 Q1052.98 67.0263 1057.64 65.1223 Q1062.34 63.2184 1066.47 59.3701 L1066.47 67.9175 Q1062.18 70.8341 1057.36 72.2924 Q1052.58 73.7508 1047.23 73.7508 Q1033.5 73.7508 1025.6 65.3654 Q1017.7 56.9395 1017.7 42.3968 Q1017.7 27.8135 1025.6 19.4281 Q1033.5 11.0023 1047.23 11.0023 Q1052.66 11.0023 1057.44 12.4606 Q1062.26 13.8784 1066.47 16.7545 Z" fill="#000000" fill-rule="evenodd" fill-opacity="1" /><path clip-path="url(#clip940)" d="M 0 0 M1096.37 32.4315 Q1090.37 32.4315 1086.89 37.1306 Q1083.4 41.7891 1083.4 49.9314 Q1083.4 58.0738 1086.85 62.7728 Q1090.33 67.4314 1096.37 67.4314 Q1102.32 67.4314 1105.81 62.7323 Q1109.29 58.0333 1109.29 49.9314 Q1109.29 41.8701 1105.81 37.1711 Q1102.32 32.4315 1096.37 32.4315 M1096.37 26.1121 Q1106.09 26.1121 1111.64 32.4315 Q1117.19 38.7509 1117.19 49.9314 Q1117.19 61.0714 1111.64 67.4314 Q1106.09 73.7508 1096.37 73.7508 Q1086.6 73.7508 1081.05 67.4314 Q1075.55 61.0714 1075.55 49.9314 Q1075.55 38.7509 1081.05 32.4315 Q1086.6 26.1121 1096.37 26.1121 Z" fill="#000000" fill-rule="evenodd" fill-opacity="1" /><path clip-path="url(#clip940)" d="M 0 0 M1155.83 34.1734 Q1154.58 33.4443 1153.08 33.1202 Q1151.62 32.7556 1149.84 32.7556 Q1143.52 32.7556 1140.12 36.8875 Q1136.75 40.9789 1136.75 48.6757 L1136.75 72.576 L1129.26 72.576 L1129.26 27.2059 L1136.75 27.2059 L1136.75 34.2544 Q1139.1 30.1225 1142.87 28.1376 Q1146.64 26.1121 1152.03 26.1121 Q1152.8 26.1121 1153.73 26.2337 Q1154.66 26.3147 1155.79 26.5172 L1155.83 34.1734 Z" fill="#000000" fill-rule="evenodd" fill-opacity="1" /><path clip-path="url(#clip940)" d="M 0 0 M1188.48 34.1734 Q1187.23 33.4443 1185.73 33.1202 Q1184.27 32.7556 1182.49 32.7556 Q1176.17 32.7556 1172.77 36.8875 Q1169.4 40.9789 1169.4 48.6757 L1169.4 72.576 L1161.91 72.576 L1161.91 27.2059 L1169.4 27.2059 L1169.4 34.2544 Q1171.75 30.1225 1175.52 28.1376 Q1179.29 26.1121 1184.68 26.1121 Q1185.45 26.1121 1186.38 26.2337 Q1187.31 26.3147 1188.44 26.5172 L1188.48 34.1734 Z" fill="#000000" fill-rule="evenodd" fill-opacity="1" /><path clip-path="url(#clip940)" d="M 0 0 M1233.29 48.0275 L1233.29 51.6733 L1199.02 51.6733 Q1199.5 59.3701 1203.64 63.421 Q1207.81 67.4314 1215.22 67.4314 Q1219.51 67.4314 1223.53 66.3781 Q1227.58 65.3249 1231.55 63.2184 L1231.55 70.267 Q1227.54 71.9684 1223.32 72.8596 Q1219.11 73.7508 1214.78 73.7508 Q1203.92 73.7508 1197.56 67.4314 Q1191.24 61.1119 1191.24 50.3365 Q1191.24 39.1965 1197.23 32.6746 Q1203.27 26.1121 1213.48 26.1121 Q1222.63 26.1121 1227.94 32.0264 Q1233.29 37.9003 1233.29 48.0275 M1225.83 45.84 Q1225.75 39.7232 1222.39 36.0774 Q1219.07 32.4315 1213.56 32.4315 Q1207.32 32.4315 1203.55 35.9558 Q1199.83 39.4801 1199.26 45.8805 L1225.83 45.84 Z" fill="#000000" fill-rule="evenodd" fill-opacity="1" /><path clip-path="url(#clip940)" d="M 0 0 M1245.52 9.54393 L1252.98 9.54393 L1252.98 72.576 L1245.52 72.576 L1245.52 9.54393 Z" fill="#000000" fill-rule="evenodd" fill-opacity="1" /><path clip-path="url(#clip940)" d="M 0 0 M1289.19 49.7694 Q1280.16 49.7694 1276.67 51.8354 Q1273.19 53.9013 1273.19 58.8839 Q1273.19 62.8538 1275.78 65.2034 Q1278.41 67.5124 1282.91 67.5124 Q1289.11 67.5124 1292.84 63.1374 Q1296.6 58.7219 1296.6 51.4303 L1296.6 49.7694 L1289.19 49.7694 M1304.06 46.6907 L1304.06 72.576 L1296.6 72.576 L1296.6 65.6895 Q1294.05 69.8214 1290.24 71.8063 Q1286.44 73.7508 1280.93 73.7508 Q1273.96 73.7508 1269.83 69.8619 Q1265.74 65.9325 1265.74 59.3701 Q1265.74 51.7138 1270.84 47.825 Q1275.98 43.9361 1286.15 43.9361 L1296.6 43.9361 L1296.6 43.2069 Q1296.6 38.0623 1293.2 35.2672 Q1289.84 32.4315 1283.72 32.4315 Q1279.83 32.4315 1276.15 33.3632 Q1272.46 34.295 1269.06 36.1584 L1269.06 29.2718 Q1273.15 27.692 1277 26.9223 Q1280.85 26.1121 1284.49 26.1121 Q1294.33 26.1121 1299.2 31.2163 Q1304.06 36.3204 1304.06 46.6907 Z" fill="#000000" fill-rule="evenodd" fill-opacity="1" /><path clip-path="url(#clip940)" d="M 0 0 M1326.78 14.324 L1326.78 27.2059 L1342.14 27.2059 L1342.14 32.9987 L1326.78 32.9987 L1326.78 57.6282 Q1326.78 63.1779 1328.28 64.7578 Q1329.82 66.3376 1334.48 66.3376 L1342.14 66.3376 L1342.14 72.576 L1334.48 72.576 Q1325.85 72.576 1322.57 69.3758 Q1319.29 66.1351 1319.29 57.6282 L1319.29 32.9987 L1313.82 32.9987 L1313.82 27.2059 L1319.29 27.2059 L1319.29 14.324 L1326.78 14.324 Z" fill="#000000" fill-rule="evenodd" fill-opacity="1" /><path clip-path="url(#clip940)" d="M 0 0 M1351.94 27.2059 L1359.39 27.2059 L1359.39 72.576 L1351.94 72.576 L1351.94 27.2059 M1351.94 9.54393 L1359.39 9.54393 L1359.39 18.9825 L1351.94 18.9825 L1351.94 9.54393 Z" fill="#000000" fill-rule="evenodd" fill-opacity="1" /><path clip-path="url(#clip940)" d="M 0 0 M1392.57 32.4315 Q1386.57 32.4315 1383.09 37.1306 Q1379.61 41.7891 1379.61 49.9314 Q1379.61 58.0738 1383.05 62.7728 Q1386.53 67.4314 1392.57 67.4314 Q1398.52 67.4314 1402.01 62.7323 Q1405.49 58.0333 1405.49 49.9314 Q1405.49 41.8701 1402.01 37.1711 Q1398.52 32.4315 1392.57 32.4315 M1392.57 26.1121 Q1402.29 26.1121 1407.84 32.4315 Q1413.39 38.7509 1413.39 49.9314 Q1413.39 61.0714 1407.84 67.4314 Q1402.29 73.7508 1392.57 73.7508 Q1382.81 73.7508 1377.26 67.4314 Q1371.75 61.0714 1371.75 49.9314 Q1371.75 38.7509 1377.26 32.4315 Q1382.81 26.1121 1392.57 26.1121 Z" fill="#000000" fill-rule="evenodd" fill-opacity="1" /><path clip-path="url(#clip940)" d="M 0 0 M1463.46 45.1919 L1463.46 72.576 L1456.01 72.576 L1456.01 45.4349 Q1456.01 38.994 1453.49 35.7938 Q1450.98 32.5936 1445.96 32.5936 Q1439.92 32.5936 1436.44 36.4419 Q1432.96 40.2903 1432.96 46.9338 L1432.96 72.576 L1425.46 72.576 L1425.46 27.2059 L1432.96 27.2059 L1432.96 34.2544 Q1435.63 30.163 1439.24 28.1376 Q1442.88 26.1121 1447.62 26.1121 Q1455.44 26.1121 1459.45 30.9732 Q1463.46 35.7938 1463.46 45.1919 Z" fill="#000000" fill-rule="evenodd" fill-opacity="1" /><path clip-path="url(#clip940)" d="M 0 0 M1507.25 28.5427 L1507.25 35.5912 Q1504.09 33.9709 1500.69 33.1607 Q1497.29 32.3505 1493.64 32.3505 Q1488.09 32.3505 1485.29 34.0519 Q1482.54 35.7533 1482.54 39.156 Q1482.54 41.7486 1484.52 43.2475 Q1486.51 44.7058 1492.51 46.0426 L1495.06 46.6097 Q1503 48.3111 1506.32 51.4303 Q1509.68 54.509 1509.68 60.0587 Q1509.68 66.3781 1504.66 70.0644 Q1499.68 73.7508 1490.93 73.7508 Q1487.28 73.7508 1483.31 73.0216 Q1479.38 72.3329 1475.01 70.9151 L1475.01 63.2184 Q1479.14 65.3654 1483.15 66.4591 Q1487.16 67.5124 1491.09 67.5124 Q1496.35 67.5124 1499.19 65.73 Q1502.02 63.9071 1502.02 60.6258 Q1502.02 57.5877 1499.96 55.9673 Q1497.93 54.3469 1491.01 52.8481 L1488.41 52.2405 Q1481.49 50.7821 1478.41 47.7845 Q1475.33 44.7463 1475.33 39.4801 Q1475.33 33.0797 1479.87 29.5959 Q1484.4 26.1121 1492.75 26.1121 Q1496.88 26.1121 1500.53 26.7198 Q1504.17 27.3274 1507.25 28.5427 Z" fill="#000000" fill-rule="evenodd" fill-opacity="1" /><path clip-path="url(#clip940)" d="M 0 0 M1542.57 27.2059 L1550.47 27.2059 L1564.65 65.2844 L1578.83 27.2059 L1586.73 27.2059 L1569.72 72.576 L1559.59 72.576 L1542.57 27.2059 Z" fill="#000000" fill-rule="evenodd" fill-opacity="1" /><path clip-path="url(#clip940)" d="M 0 0 M1625.94 28.5427 L1625.94 35.5912 Q1622.78 33.9709 1619.38 33.1607 Q1615.98 32.3505 1612.33 32.3505 Q1606.78 32.3505 1603.99 34.0519 Q1601.23 35.7533 1601.23 39.156 Q1601.23 41.7486 1603.22 43.2475 Q1605.2 44.7058 1611.2 46.0426 L1613.75 46.6097 Q1621.69 48.3111 1625.01 51.4303 Q1628.37 54.509 1628.37 60.0587 Q1628.37 66.3781 1623.35 70.0644 Q1618.37 73.7508 1609.62 73.7508 Q1605.97 73.7508 1602 73.0216 Q1598.07 72.3329 1593.7 70.9151 L1593.7 63.2184 Q1597.83 65.3654 1601.84 66.4591 Q1605.85 67.5124 1609.78 67.5124 Q1615.04 67.5124 1617.88 65.73 Q1620.72 63.9071 1620.72 60.6258 Q1620.72 57.5877 1618.65 55.9673 Q1616.62 54.3469 1609.7 52.8481 L1607.11 52.2405 Q1600.18 50.7821 1597.1 47.7845 Q1594.02 44.7463 1594.02 39.4801 Q1594.02 33.0797 1598.56 29.5959 Q1603.09 26.1121 1611.44 26.1121 Q1615.57 26.1121 1619.22 26.7198 Q1622.86 27.3274 1625.94 28.5427 Z" fill="#000000" fill-rule="evenodd" fill-opacity="1" /><path clip-path="url(#clip940)" d="M 0 0 M1658.55 12.096 L1709.71 12.096 L1709.71 18.9825 L1688.24 18.9825 L1688.24 72.576 L1680.02 72.576 L1680.02 18.9825 L1658.55 18.9825 L1658.55 12.096 Z" fill="#000000" fill-rule="evenodd" fill-opacity="1" /><path clip-path="url(#clip940)" d="M 0 0 M1714.74 27.2059 L1722.19 27.2059 L1722.19 72.576 L1714.74 72.576 L1714.74 27.2059 M1714.74 9.54393 L1722.19 9.54393 L1722.19 18.9825 L1714.74 18.9825 L1714.74 9.54393 Z" fill="#000000" fill-rule="evenodd" fill-opacity="1" /><path clip-path="url(#clip940)" d="M 0 0 M1773.11 35.9153 Q1775.91 30.8922 1779.8 28.5022 Q1783.68 26.1121 1788.95 26.1121 Q1796.04 26.1121 1799.89 31.0947 Q1803.74 36.0368 1803.74 45.1919 L1803.74 72.576 L1796.24 72.576 L1796.24 45.4349 Q1796.24 38.913 1793.93 35.7533 Q1791.62 32.5936 1786.88 32.5936 Q1781.09 32.5936 1777.73 36.4419 Q1774.37 40.2903 1774.37 46.9338 L1774.37 72.576 L1766.87 72.576 L1766.87 45.4349 Q1766.87 38.8725 1764.56 35.7533 Q1762.25 32.5936 1757.43 32.5936 Q1751.72 32.5936 1748.36 36.4824 Q1745 40.3308 1745 46.9338 L1745 72.576 L1737.5 72.576 L1737.5 27.2059 L1745 27.2059 L1745 34.2544 Q1747.55 30.082 1751.11 28.0971 Q1754.68 26.1121 1759.58 26.1121 Q1764.52 26.1121 1767.97 28.6237 Q1771.45 31.1352 1773.11 35.9153 Z" fill="#000000" fill-rule="evenodd" fill-opacity="1" /><path clip-path="url(#clip940)" d="M 0 0 M1857.41 48.0275 L1857.41 51.6733 L1823.14 51.6733 Q1823.63 59.3701 1827.76 63.421 Q1831.93 67.4314 1839.34 67.4314 Q1843.64 67.4314 1847.65 66.3781 Q1851.7 65.3249 1855.67 63.2184 L1855.67 70.267 Q1851.66 71.9684 1847.45 72.8596 Q1843.23 73.7508 1838.9 73.7508 Q1828.04 73.7508 1821.68 67.4314 Q1815.36 61.1119 1815.36 50.3365 Q1815.36 39.1965 1821.36 32.6746 Q1827.39 26.1121 1837.6 26.1121 Q1846.76 26.1121 1852.06 32.0264 Q1857.41 37.9003 1857.41 48.0275 M1849.96 45.84 Q1849.88 39.7232 1846.51 36.0774 Q1843.19 32.4315 1837.68 32.4315 Q1831.44 32.4315 1827.68 35.9558 Q1823.95 39.4801 1823.38 45.8805 L1849.96 45.84 Z" fill="#000000" fill-rule="evenodd" fill-opacity="1" /><path clip-path="url(#clip940)" d="M 0 0 M1920.89 17.6457 Q1911.98 17.6457 1906.71 24.2892 Q1901.48 30.9327 1901.48 42.3968 Q1901.48 53.8203 1906.71 60.4638 Q1911.98 67.1073 1920.89 67.1073 Q1929.8 67.1073 1934.99 60.4638 Q1940.21 53.8203 1940.21 42.3968 Q1940.21 30.9327 1934.99 24.2892 Q1929.8 17.6457 1920.89 17.6457 M1920.89 11.0023 Q1933.61 11.0023 1941.22 19.5497 Q1948.84 28.0566 1948.84 42.3968 Q1948.84 56.6965 1941.22 65.2439 Q1933.61 73.7508 1920.89 73.7508 Q1908.13 73.7508 1900.47 65.2439 Q1892.86 56.737 1892.86 42.3968 Q1892.86 28.0566 1900.47 19.5497 Q1908.13 11.0023 1920.89 11.0023 Z" fill="#000000" fill-rule="evenodd" fill-opacity="1" /><path clip-path="url(#clip940)" d="M 0 0 M1984.28 9.54393 L1984.28 15.7418 L1977.16 15.7418 Q1973.14 15.7418 1971.56 17.3622 Q1970.03 18.9825 1970.03 23.1955 L1970.03 27.2059 L1982.3 27.2059 L1982.3 32.9987 L1970.03 32.9987 L1970.03 72.576 L1962.53 72.576 L1962.53 32.9987 L1955.4 32.9987 L1955.4 27.2059 L1962.53 27.2059 L1962.53 24.0462 Q1962.53 16.471 1966.06 13.0277 Q1969.58 9.54393 1977.24 9.54393 L1984.28 9.54393 Z" fill="#000000" fill-rule="evenodd" fill-opacity="1" /><path clip-path="url(#clip940)" d="M 0 0 M2013.49 9.54393 L2013.49 15.7418 L2006.36 15.7418 Q2002.35 15.7418 2000.77 17.3622 Q1999.23 18.9825 1999.23 23.1955 L1999.23 27.2059 L2011.51 27.2059 L2011.51 32.9987 L1999.23 32.9987 L1999.23 72.576 L1991.74 72.576 L1991.74 32.9987 L1984.61 32.9987 L1984.61 27.2059 L1991.74 27.2059 L1991.74 24.0462 Q1991.74 16.471 1995.26 13.0277 Q1998.79 9.54393 2006.44 9.54393 L2013.49 9.54393 Z" fill="#000000" fill-rule="evenodd" fill-opacity="1" /><path clip-path="url(#clip940)" d="M 0 0 M2048.65 28.5427 L2048.65 35.5912 Q2045.49 33.9709 2042.09 33.1607 Q2038.69 32.3505 2035.04 32.3505 Q2029.49 32.3505 2026.7 34.0519 Q2023.94 35.7533 2023.94 39.156 Q2023.94 41.7486 2025.93 43.2475 Q2027.91 44.7058 2033.91 46.0426 L2036.46 46.6097 Q2044.4 48.3111 2047.72 51.4303 Q2051.08 54.509 2051.08 60.0587 Q2051.08 66.3781 2046.06 70.0644 Q2041.08 73.7508 2032.33 73.7508 Q2028.68 73.7508 2024.71 73.0216 Q2020.78 72.3329 2016.41 70.9151 L2016.41 63.2184 Q2020.54 65.3654 2024.55 66.4591 Q2028.56 67.5124 2032.49 67.5124 Q2037.76 67.5124 2040.59 65.73 Q2043.43 63.9071 2043.43 60.6258 Q2043.43 57.5877 2041.36 55.9673 Q2039.34 54.3469 2032.41 52.8481 L2029.82 52.2405 Q2022.89 50.7821 2019.81 47.7845 Q2016.73 44.7463 2016.73 39.4801 Q2016.73 33.0797 2021.27 29.5959 Q2025.81 26.1121 2034.15 26.1121 Q2038.28 26.1121 2041.93 26.7198 Q2045.57 27.3274 2048.65 28.5427 Z" fill="#000000" fill-rule="evenodd" fill-opacity="1" /><path clip-path="url(#clip940)" d="M 0 0 M2101.76 48.0275 L2101.76 51.6733 L2067.49 51.6733 Q2067.98 59.3701 2072.11 63.421 Q2076.28 67.4314 2083.69 67.4314 Q2087.99 67.4314 2092 66.3781 Q2096.05 65.3249 2100.02 63.2184 L2100.02 70.267 Q2096.01 71.9684 2091.8 72.8596 Q2087.58 73.7508 2083.25 73.7508 Q2072.39 73.7508 2066.03 67.4314 Q2059.71 61.1119 2059.71 50.3365 Q2059.71 39.1965 2065.71 32.6746 Q2071.74 26.1121 2081.95 26.1121 Q2091.11 26.1121 2096.41 32.0264 Q2101.76 37.9003 2101.76 48.0275 M2094.31 45.84 Q2094.23 39.7232 2090.86 36.0774 Q2087.54 32.4315 2082.03 32.4315 Q2075.79 32.4315 2072.03 35.9558 Q2068.3 39.4801 2067.73 45.8805 L2094.31 45.84 Z" fill="#000000" fill-rule="evenodd" fill-opacity="1" /><path clip-path="url(#clip940)" d="M 0 0 M2121.37 14.324 L2121.37 27.2059 L2136.72 27.2059 L2136.72 32.9987 L2121.37 32.9987 L2121.37 57.6282 Q2121.37 63.1779 2122.87 64.7578 Q2124.41 66.3376 2129.06 66.3376 L2136.72 66.3376 L2136.72 72.576 L2129.06 72.576 Q2120.44 72.576 2117.15 69.3758 Q2113.87 66.1351 2113.87 57.6282 L2113.87 32.9987 L2108.4 32.9987 L2108.4 27.2059 L2113.87 27.2059 L2113.87 14.324 L2121.37 14.324 Z" fill="#000000" fill-rule="evenodd" fill-opacity="1" /><polyline clip-path="url(#clip943)" style="stroke:#009af9; stroke-width:4; stroke-opacity:1; fill:none" points="
  320.497,158.575 324.265,1107.32 328.032,1211.51 331.799,1238 335.566,1262.45 339.334,1256.95 343.101,1287.04 346.868,1269.67 350.636,1269.88 354.403,1249.05 
  358.17,1283.02 361.937,1287.86 365.705,1280.87 369.472,1196.23 373.239,1188.42 377.006,1186.11 380.774,1222.26 384.541,1177.56 388.308,1292.02 392.075,1259.04 
  395.843,1280.7 399.61,1286.51 403.377,1270.55 407.144,1257.98 410.912,1303.02 414.679,1283 418.446,1298.97 422.213,1256.58 425.981,1291.05 429.748,1247.78 
  433.515,1191.2 437.283,1250.1 441.05,1212.08 444.817,1195.35 448.584,1205.24 452.352,1165.55 456.119,1187.19 459.886,1205.05 463.653,1269.6 467.421,1295.7 
  471.188,1241.33 474.955,1300.68 478.722,1272.8 482.49,1292.9 486.257,1290.01 490.024,1286.86 493.791,1251.74 497.559,1275.93 501.326,1239.66 505.093,1152.36 
  508.86,1197.36 512.628,1202.5 516.395,1245.07 520.162,1264.05 523.929,1264.69 527.697,1283.33 531.464,1306.52 535.231,1306.25 538.999,1256.5 542.766,1319.86 
  546.533,1290.45 550.3,1293.91 554.068,1253.96 557.835,1219.82 561.602,1205.3 565.369,1128.02 569.137,1208.82 572.904,1153.02 576.671,1263.51 580.438,1207.8 
  584.206,1250.95 587.973,1234.99 591.74,1245.72 595.507,1280.88 599.275,1301.47 603.042,1290.33 606.809,1274.27 610.576,1282.15 614.344,1284.19 618.111,1248.2 
  621.878,1222.73 625.645,1180.83 629.413,1153.14 633.18,1187.74 636.947,1225.62 640.715,1217.67 644.482,1235.12 648.249,1247.03 652.016,1238.07 655.784,1271.26 
  659.551,1285.12 663.318,1288.48 667.085,1274.22 670.853,1290.7 674.62,1282.32 678.387,1254.51 682.154,1206 685.922,1192.33 689.689,1221.82 693.456,1294.89 
  697.223,1197.73 700.991,1200.02 704.758,1152.29 708.525,1240.18 712.292,1237.22 716.06,1225.46 719.827,1286.82 723.594,1259.89 727.362,1265 731.129,1250.7 
  734.896,1253.97 738.663,1259.58 742.431,1276.6 746.198,1246.65 749.965,1192.68 753.732,1147.42 757.5,1248.26 761.267,1134.29 765.034,1221.62 768.801,1246.53 
  772.569,1233.69 776.336,1216.4 780.103,1277.07 783.87,1273.37 787.638,1301.83 791.405,1294.22 795.172,1278.23 798.939,1279.79 802.707,1291.32 806.474,1258.97 
  810.241,1203.13 814.008,1176.11 817.776,1168.75 821.543,1200.45 825.31,1236.39 829.078,1288.77 832.845,1271.32 836.612,1236.54 840.379,1271.6 844.147,1284.53 
  847.914,1265.47 851.681,1283.91 855.448,1317.89 859.216,1294.82 862.983,1281.25 866.75,1249.26 870.517,1226.54 874.285,1202.4 878.052,1235.14 881.819,1227.95 
  885.586,1204.32 889.354,1222.33 893.121,1309.1 896.888,1229.14 900.655,1217.27 904.423,1281.08 908.19,1281.46 911.957,1328.69 915.724,1304.05 919.492,1295.72 
  923.259,1260.99 927.026,1237.44 930.794,1260.48 934.561,1248.96 938.328,1275.18 942.095,1262.44 945.863,1214.51 949.63,1169.71 953.397,1192.26 957.164,1190.9 
  960.932,1252.36 964.699,1276.14 968.466,1288.66 972.233,1307.39 976.001,1294.85 979.768,1291.58 983.535,1292.79 987.302,1258.9 991.07,1281.3 994.837,1232.35 
  998.604,1231.4 1002.37,1224.21 1006.14,1224.75 1009.91,1184.99 1013.67,1223.57 1017.44,1271.83 1021.21,1291.02 1024.98,1233.44 1028.74,1267.35 1032.51,1295.88 
  1036.28,1221.44 1040.04,1265.23 1043.81,1264.92 1047.58,1265.42 1051.35,1268.44 1055.11,1245.74 1058.88,1227.58 1062.65,1233.89 1066.41,1289.59 1070.18,1282.89 
  1073.95,1190.36 1077.72,1274.57 1081.48,1221.47 1085.25,1221.21 1089.02,1208.53 1092.79,1240.5 1096.55,1291.6 1100.32,1325.94 1104.09,1291 1107.85,1294.49 
  1111.62,1274.54 1115.39,1247.85 1119.16,1247.14 1122.92,1267.91 1126.69,1231.16 1130.46,1214.27 1134.23,1212.09 1137.99,1162.79 1141.76,1165.38 1145.53,1191.53 
  1149.29,1250.65 1153.06,1276.15 1156.83,1300.14 1160.6,1291 1164.36,1302.05 1168.13,1271.13 1171.9,1300.1 1175.67,1263.68 1179.43,1253.8 1183.2,1285.6 
  1186.97,1216.9 1190.73,1201.07 1194.5,1101.05 1198.27,1202.52 1202.04,1241.27 1205.8,1251.14 1209.57,1243.41 1213.34,1241.28 1217.11,1294.05 1220.87,1290.33 
  1224.64,1260.19 1228.41,1245.69 1232.17,1270.47 1235.94,1278.75 1239.71,1292.3 1243.48,1256.88 1247.24,1244.97 1251.01,1237.06 1254.78,1198.92 1258.55,1260.21 
  1262.31,1228.16 1266.08,1223.35 1269.85,1207.63 1273.61,1274.58 1277.38,1286.64 1281.15,1237.17 1284.92,1280.53 1288.68,1285.63 1292.45,1293.28 1296.22,1275.59 
  1299.98,1273.68 1303.75,1302.37 1307.52,1248.18 1311.29,1241.89 1315.05,1244.49 1318.82,1283.46 1322.59,1156.02 1326.36,1227.09 1330.12,1257.97 1333.89,1236.57 
  1337.66,1248.11 1341.42,1224.49 1345.19,1304.55 1348.96,1305.19 1352.73,1277.08 1356.49,1307.18 1360.26,1276.33 1364.03,1274 1367.8,1289.36 1371.56,1235.92 
  1375.33,1217.15 1379.1,1202.68 1382.86,1196.41 1386.63,1173.48 1390.4,1247.46 1394.17,1213.98 1397.93,1189.87 1401.7,1275.52 1405.47,1259.22 1409.24,1315.72 
  1413,1292.5 1416.77,1297.46 1420.54,1288.34 1424.3,1304.68 1428.07,1274.67 1431.84,1264.39 1435.61,1230.6 1439.37,1153.31 1443.14,1171.16 1446.91,1205.99 
  1450.68,1180.66 1454.44,1193.13 1458.21,1281.84 1461.98,1277.93 1465.74,1244.28 1469.51,1249.83 1473.28,1268.88 1477.05,1301.41 1480.81,1273.62 1484.58,1273.64 
  1488.35,1260.52 1492.12,1241.48 1495.88,1244.53 1499.65,1169.48 1503.42,1184.08 1507.18,1241.03 1510.95,1240.78 1514.72,1248.77 1518.49,1261.69 1522.25,1241.82 
  1526.02,1235.19 1529.79,1270.9 1533.56,1252.21 1537.32,1256.04 1541.09,1278.33 1544.86,1296.87 1548.62,1312.4 1552.39,1277.43 1556.16,1248.79 1559.93,1232.07 
  1563.69,1256.6 1567.46,1218.34 1571.23,1216.07 1574.99,1167.43 1578.76,1173.6 1582.53,1225.25 1586.3,1301.53 1590.06,1226.46 1593.83,1249.16 1597.6,1297.03 
  1601.37,1263.65 1605.13,1271.62 1608.9,1291.6 1612.67,1293.89 1616.43,1257.13 1620.2,1236.1 1623.97,1244.88 1627.74,1221.38 1631.5,1188.91 1635.27,1252.76 
  1639.04,1209.72 1642.81,1244.36 1646.57,1270.81 1650.34,1263.25 1654.11,1275.73 1657.87,1256.16 1661.64,1311.17 1665.41,1310.44 1669.18,1297.76 1672.94,1284.81 
  1676.71,1293.34 1680.48,1258 1684.25,1208.72 1688.01,1233.66 1691.78,1164.84 1695.55,1210.76 1699.31,1256.72 1703.08,1240.6 1706.85,1264.04 1710.62,1264.59 
  1714.38,1287.11 1718.15,1186.26 1721.92,1241.52 1725.69,1251.11 1729.45,1254.87 1733.22,1307.22 1736.99,1317.97 1740.75,1261 1744.52,1237.3 1748.29,1221.11 
  1752.06,1193.82 1755.82,1186.41 1759.59,1225.08 1763.36,1257.82 1767.13,1251.52 1770.89,1241.28 1774.66,1223.72 1778.43,1228.88 1782.19,1217.95 1785.96,1287.92 
  1789.73,1290.13 1793.5,1283.08 1797.26,1276.56 1801.03,1277.46 1804.8,1268.9 1808.57,1231.54 1812.33,1186.12 1816.1,1246.02 1819.87,1257.05 1823.63,1207.44 
  1827.4,1202.28 1831.17,1187.36 1834.94,1225.34 1838.7,1242.33 1842.47,1218.18 1846.24,1287.72 1850,1272.02 1853.77,1287.5 1857.54,1287.93 1861.31,1230.36 
  1865.07,1261.64 1868.84,1226.88 1872.61,1278.46 1876.38,1257.57 1880.14,1249.97 1883.91,1256.96 1887.68,1242.64 1891.44,1184 1895.21,1270.55 1898.98,1190.75 
  1902.75,1255.44 1906.51,1270.27 1910.28,1276.84 1914.05,1291.47 1917.82,1268.87 1921.58,1275.13 1925.35,1288.3 1929.12,1278.36 1932.88,1247.13 1936.65,1247.09 
  1940.42,1223.1 1944.19,1214.29 1947.95,1256.57 1951.72,1208.32 1955.49,1215.66 1959.26,1202.21 1963.02,1185.81 1966.79,1225.39 1970.56,1209.7 1974.32,1297.02 
  1978.09,1283.02 1981.86,1293.87 1985.63,1249.03 1989.39,1258.07 1993.16,1242.51 1996.93,1270.03 2000.7,1229.14 2004.46,1242.69 2008.23,1241.35 2012,1221.28 
  2015.76,1176.63 2019.53,1208.83 2023.3,1259.97 2027.07,1217.88 2030.83,1277.01 2034.6,1254.94 2038.37,1318.88 2042.14,1275 2045.9,1319.16 2049.67,1252.32 
  2053.44,1288.21 2057.2,1289.14 2060.97,1260.58 2064.74,1222.13 2068.51,1199.81 2072.27,1260.38 2076.04,1163.33 2079.81,1226.83 2083.57,1277.18 2087.34,1266.33 
  2091.11,1246.2 2094.88,1251.18 2098.64,1254.3 2102.41,1249.3 2106.18,1237.96 2109.95,1260.91 2113.71,1249.88 2117.48,1274.85 2121.25,1260.87 2125.01,1254.66 
  2128.78,1212.56 2132.55,1193.9 2136.32,1238.62 2140.08,1295.14 2143.85,1254.64 2147.62,1263.67 2151.39,1223.45 2155.15,1248.79 2158.92,1211.95 2162.69,1297.19 
  2166.45,1287.02 2170.22,1263.67 2173.99,1303.47 2177.76,1281.09 2181.52,1269.12 2185.29,1276.81 2189.06,1261.33 2192.83,1252.6 2196.59,1216.54 2200.36,1241.69 
  
  "/>
</svg>
