<?xml version="1.0" encoding="utf-8"?>
<svg xmlns="http://www.w3.org/2000/svg" xmlns:xlink="http://www.w3.org/1999/xlink" width="576" height="384" viewBox="0 0 2304 1536">
<defs>
  <clipPath id="clip830">
    <rect x="0" y="0" width="2304" height="1536"/>
  </clipPath>
</defs>
<path clip-path="url(#clip830)" d="
M0 1536 L2304 1536 L2304 0 L0 0  Z
  " fill="#ffffff" fill-rule="evenodd" fill-opacity="1"/>
<defs>
  <clipPath id="clip831">
    <rect x="460" y="0" width="1614" height="1536"/>
  </clipPath>
</defs>
<path clip-path="url(#clip830)" d="
M368.743 1359.82 L2256.76 1359.82 L2256.76 123.472 L368.743 123.472  Z
  " fill="#ffffff" fill-rule="evenodd" fill-opacity="1"/>
<defs>
  <clipPath id="clip832">
    <rect x="368" y="123" width="1889" height="1237"/>
  </clipPath>
</defs>
<polyline clip-path="url(#clip832)" style="stroke:#000000; stroke-width:2; stroke-opacity:0.1; fill:none" points="
  422.178,1359.82 422.178,123.472 
  "/>
<polyline clip-path="url(#clip832)" style="stroke:#000000; stroke-width:2; stroke-opacity:0.1; fill:none" points="
  867.464,1359.82 867.464,123.472 
  "/>
<polyline clip-path="url(#clip832)" style="stroke:#000000; stroke-width:2; stroke-opacity:0.1; fill:none" points="
  1312.75,1359.82 1312.75,123.472 
  "/>
<polyline clip-path="url(#clip832)" style="stroke:#000000; stroke-width:2; stroke-opacity:0.1; fill:none" points="
  1758.04,1359.82 1758.04,123.472 
  "/>
<polyline clip-path="url(#clip832)" style="stroke:#000000; stroke-width:2; stroke-opacity:0.1; fill:none" points="
  2203.32,1359.82 2203.32,123.472 
  "/>
<polyline clip-path="url(#clip830)" style="stroke:#000000; stroke-width:4; stroke-opacity:1; fill:none" points="
  368.743,1359.82 2256.76,1359.82 
  "/>
<polyline clip-path="url(#clip830)" style="stroke:#000000; stroke-width:4; stroke-opacity:1; fill:none" points="
  422.178,1359.82 422.178,1344.98 
  "/>
<polyline clip-path="url(#clip830)" style="stroke:#000000; stroke-width:4; stroke-opacity:1; fill:none" points="
  867.464,1359.82 867.464,1344.98 
  "/>
<polyline clip-path="url(#clip830)" style="stroke:#000000; stroke-width:4; stroke-opacity:1; fill:none" points="
  1312.75,1359.82 1312.75,1344.98 
  "/>
<polyline clip-path="url(#clip830)" style="stroke:#000000; stroke-width:4; stroke-opacity:1; fill:none" points="
  1758.04,1359.82 1758.04,1344.98 
  "/>
<polyline clip-path="url(#clip830)" style="stroke:#000000; stroke-width:4; stroke-opacity:1; fill:none" points="
  2203.32,1359.82 2203.32,1344.98 
  "/>
<path clip-path="url(#clip830)" d="M 0 0 M422.178 1388.24 Q418.567 1388.24 416.738 1391.81 Q414.932 1395.35 414.932 1402.48 Q414.932 1409.59 416.738 1413.15 Q418.567 1416.69 422.178 1416.69 Q425.812 1416.69 427.618 1413.15 Q429.446 1409.59 429.446 1402.48 Q429.446 1395.35 427.618 1391.81 Q425.812 1388.24 422.178 1388.24 M422.178 1384.54 Q427.988 1384.54 431.043 1389.15 Q434.122 1393.73 434.122 1402.48 Q434.122 1411.21 431.043 1415.81 Q427.988 1420.4 422.178 1420.4 Q416.368 1420.4 413.289 1415.81 Q410.233 1411.21 410.233 1402.48 Q410.233 1393.73 413.289 1389.15 Q416.368 1384.54 422.178 1384.54 Z" fill="#000000" fill-rule="evenodd" fill-opacity="1" /><path clip-path="url(#clip830)" d="M 0 0 M857.742 1385.16 L876.098 1385.16 L876.098 1389.1 L862.024 1389.1 L862.024 1397.57 Q863.042 1397.22 864.061 1397.06 Q865.079 1396.88 866.098 1396.88 Q871.885 1396.88 875.265 1400.05 Q878.644 1403.22 878.644 1408.64 Q878.644 1414.21 875.172 1417.32 Q871.7 1420.4 865.38 1420.4 Q863.204 1420.4 860.936 1420.02 Q858.691 1419.65 856.283 1418.91 L856.283 1414.21 Q858.367 1415.35 860.589 1415.9 Q862.811 1416.46 865.288 1416.46 Q869.292 1416.46 871.63 1414.35 Q873.968 1412.25 873.968 1408.64 Q873.968 1405.02 871.63 1402.92 Q869.292 1400.81 865.288 1400.81 Q863.413 1400.81 861.538 1401.23 Q859.686 1401.65 857.742 1402.52 L857.742 1385.16 Z" fill="#000000" fill-rule="evenodd" fill-opacity="1" /><path clip-path="url(#clip830)" d="M 0 0 M1287.44 1415.79 L1295.08 1415.79 L1295.08 1389.42 L1286.77 1391.09 L1286.77 1386.83 L1295.03 1385.16 L1299.71 1385.16 L1299.71 1415.79 L1307.34 1415.79 L1307.34 1419.72 L1287.44 1419.72 L1287.44 1415.79 Z" fill="#000000" fill-rule="evenodd" fill-opacity="1" /><path clip-path="url(#clip830)" d="M 0 0 M1326.79 1388.24 Q1323.18 1388.24 1321.35 1391.81 Q1319.54 1395.35 1319.54 1402.48 Q1319.54 1409.59 1321.35 1413.15 Q1323.18 1416.69 1326.79 1416.69 Q1330.42 1416.69 1332.23 1413.15 Q1334.06 1409.59 1334.06 1402.48 Q1334.06 1395.35 1332.23 1391.81 Q1330.42 1388.24 1326.79 1388.24 M1326.79 1384.54 Q1332.6 1384.54 1335.65 1389.15 Q1338.73 1393.73 1338.73 1402.48 Q1338.73 1411.21 1335.65 1415.81 Q1332.6 1420.4 1326.79 1420.4 Q1320.98 1420.4 1317.9 1415.81 Q1314.84 1411.21 1314.84 1402.48 Q1314.84 1393.73 1317.9 1389.15 Q1320.98 1384.54 1326.79 1384.54 Z" fill="#000000" fill-rule="evenodd" fill-opacity="1" /><path clip-path="url(#clip830)" d="M 0 0 M1733.22 1415.79 L1740.86 1415.79 L1740.86 1389.42 L1732.55 1391.09 L1732.55 1386.83 L1740.81 1385.16 L1745.49 1385.16 L1745.49 1415.79 L1753.13 1415.79 L1753.13 1419.72 L1733.22 1419.72 L1733.22 1415.79 Z" fill="#000000" fill-rule="evenodd" fill-opacity="1" /><path clip-path="url(#clip830)" d="M 0 0 M1762.62 1385.16 L1780.98 1385.16 L1780.98 1389.1 L1766.9 1389.1 L1766.9 1397.57 Q1767.92 1397.22 1768.94 1397.06 Q1769.96 1396.88 1770.98 1396.88 Q1776.76 1396.88 1780.14 1400.05 Q1783.52 1403.22 1783.52 1408.64 Q1783.52 1414.21 1780.05 1417.32 Q1776.58 1420.4 1770.26 1420.4 Q1768.08 1420.4 1765.81 1420.02 Q1763.57 1419.65 1761.16 1418.91 L1761.16 1414.21 Q1763.24 1415.35 1765.47 1415.9 Q1767.69 1416.46 1770.17 1416.46 Q1774.17 1416.46 1776.51 1414.35 Q1778.85 1412.25 1778.85 1408.64 Q1778.85 1405.02 1776.51 1402.92 Q1774.17 1400.81 1770.17 1400.81 Q1768.29 1400.81 1766.42 1401.23 Q1764.56 1401.65 1762.62 1402.52 L1762.62 1385.16 Z" fill="#000000" fill-rule="evenodd" fill-opacity="1" /><path clip-path="url(#clip830)" d="M 0 0 M2182.09 1415.79 L2198.41 1415.79 L2198.41 1419.72 L2176.47 1419.72 L2176.47 1415.79 Q2179.13 1413.03 2183.72 1408.4 Q2188.32 1403.75 2189.5 1402.41 Q2191.75 1399.89 2192.63 1398.15 Q2193.53 1396.39 2193.53 1394.7 Q2193.53 1391.95 2191.59 1390.21 Q2189.66 1388.47 2186.56 1388.47 Q2184.36 1388.47 2181.91 1389.24 Q2179.48 1390 2176.7 1391.55 L2176.7 1386.83 Q2179.53 1385.7 2181.98 1385.12 Q2184.43 1384.54 2186.47 1384.54 Q2191.84 1384.54 2195.03 1387.22 Q2198.23 1389.91 2198.23 1394.4 Q2198.23 1396.53 2197.42 1398.45 Q2196.63 1400.35 2194.53 1402.94 Q2193.95 1403.61 2190.84 1406.83 Q2187.74 1410.02 2182.09 1415.79 Z" fill="#000000" fill-rule="evenodd" fill-opacity="1" /><path clip-path="url(#clip830)" d="M 0 0 M2218.23 1388.24 Q2214.62 1388.24 2212.79 1391.81 Q2210.98 1395.35 2210.98 1402.48 Q2210.98 1409.59 2212.79 1413.15 Q2214.62 1416.69 2218.23 1416.69 Q2221.86 1416.69 2223.67 1413.15 Q2225.5 1409.59 2225.5 1402.48 Q2225.5 1395.35 2223.67 1391.81 Q2221.86 1388.24 2218.23 1388.24 M2218.23 1384.54 Q2224.04 1384.54 2227.09 1389.15 Q2230.17 1393.73 2230.17 1402.48 Q2230.17 1411.21 2227.09 1415.81 Q2224.04 1420.4 2218.23 1420.4 Q2212.42 1420.4 2209.34 1415.81 Q2206.28 1411.21 2206.28 1402.48 Q2206.28 1393.73 2209.34 1389.15 Q2212.42 1384.54 2218.23 1384.54 Z" fill="#000000" fill-rule="evenodd" fill-opacity="1" /><path clip-path="url(#clip830)" d="M 0 0 M1179.55 1457.47 L1179.55 1467.6 L1191.61 1467.6 L1191.61 1472.15 L1179.55 1472.15 L1179.55 1491.5 Q1179.55 1495.86 1180.72 1497.1 Q1181.93 1498.34 1185.59 1498.34 L1191.61 1498.34 L1191.61 1503.24 L1185.59 1503.24 Q1178.82 1503.24 1176.24 1500.73 Q1173.66 1498.18 1173.66 1491.5 L1173.66 1472.15 L1169.36 1472.15 L1169.36 1467.6 L1173.66 1467.6 L1173.66 1457.47 L1179.55 1457.47 Z" fill="#000000" fill-rule="evenodd" fill-opacity="1" /><path clip-path="url(#clip830)" d="M 0 0 M1199.31 1467.6 L1205.17 1467.6 L1205.17 1503.24 L1199.31 1503.24 L1199.31 1467.6 M1199.31 1453.72 L1205.17 1453.72 L1205.17 1461.13 L1199.31 1461.13 L1199.31 1453.72 Z" fill="#000000" fill-rule="evenodd" fill-opacity="1" /><path clip-path="url(#clip830)" d="M 0 0 M1245.18 1474.44 Q1247.37 1470.49 1250.43 1468.61 Q1253.48 1466.74 1257.62 1466.74 Q1263.19 1466.74 1266.22 1470.65 Q1269.24 1474.53 1269.24 1481.73 L1269.24 1503.24 L1263.35 1503.24 L1263.35 1481.92 Q1263.35 1476.79 1261.54 1474.31 Q1259.72 1471.83 1256 1471.83 Q1251.45 1471.83 1248.81 1474.85 Q1246.16 1477.88 1246.16 1483.1 L1246.16 1503.24 L1240.28 1503.24 L1240.28 1481.92 Q1240.28 1476.76 1238.46 1474.31 Q1236.65 1471.83 1232.86 1471.83 Q1228.37 1471.83 1225.73 1474.88 Q1223.09 1477.91 1223.09 1483.1 L1223.09 1503.24 L1217.2 1503.24 L1217.2 1467.6 L1223.09 1467.6 L1223.09 1473.13 Q1225.09 1469.86 1227.89 1468.3 Q1230.7 1466.74 1234.55 1466.74 Q1238.43 1466.74 1241.14 1468.71 Q1243.87 1470.68 1245.18 1474.44 Z" fill="#000000" fill-rule="evenodd" fill-opacity="1" /><path clip-path="url(#clip830)" d="M 0 0 M1311.41 1483.96 L1311.41 1486.82 L1284.49 1486.82 Q1284.87 1492.87 1288.11 1496.05 Q1291.39 1499.2 1297.22 1499.2 Q1300.59 1499.2 1303.74 1498.37 Q1306.93 1497.55 1310.04 1495.89 L1310.04 1501.43 Q1306.89 1502.77 1303.58 1503.47 Q1300.27 1504.17 1296.87 1504.17 Q1288.34 1504.17 1283.34 1499.2 Q1278.37 1494.24 1278.37 1485.77 Q1278.37 1477.02 1283.09 1471.89 Q1287.83 1466.74 1295.85 1466.74 Q1303.04 1466.74 1307.21 1471.38 Q1311.41 1476 1311.41 1483.96 M1305.56 1482.24 Q1305.49 1477.43 1302.85 1474.57 Q1300.24 1471.7 1295.91 1471.7 Q1291.01 1471.7 1288.05 1474.47 Q1285.12 1477.24 1284.68 1482.27 L1305.56 1482.24 Z" fill="#000000" fill-rule="evenodd" fill-opacity="1" /><path clip-path="url(#clip830)" d="M 0 0 M1355.81 1453.78 Q1351.55 1461.1 1349.48 1468.26 Q1347.41 1475.43 1347.41 1482.78 Q1347.41 1490.13 1349.48 1497.36 Q1351.58 1504.55 1355.81 1511.84 L1350.72 1511.84 Q1345.95 1504.36 1343.56 1497.13 Q1341.2 1489.91 1341.2 1482.78 Q1341.2 1475.68 1343.56 1468.49 Q1345.91 1461.29 1350.72 1453.78 L1355.81 1453.78 Z" fill="#000000" fill-rule="evenodd" fill-opacity="1" /><path clip-path="url(#clip830)" d="M 0 0 M1396.81 1481.73 L1396.81 1503.24 L1390.95 1503.24 L1390.95 1481.92 Q1390.95 1476.86 1388.98 1474.34 Q1387.01 1471.83 1383.06 1471.83 Q1378.32 1471.83 1375.58 1474.85 Q1372.84 1477.88 1372.84 1483.1 L1372.84 1503.24 L1366.95 1503.24 L1366.95 1467.6 L1372.84 1467.6 L1372.84 1473.13 Q1374.94 1469.92 1377.78 1468.33 Q1380.64 1466.74 1384.36 1466.74 Q1390.51 1466.74 1393.66 1470.56 Q1396.81 1474.34 1396.81 1481.73 Z" fill="#000000" fill-rule="evenodd" fill-opacity="1" /><path clip-path="url(#clip830)" d="M 0 0 M1431.22 1468.65 L1431.22 1474.18 Q1428.73 1472.91 1426.06 1472.27 Q1423.39 1471.64 1420.52 1471.64 Q1416.16 1471.64 1413.96 1472.97 Q1411.8 1474.31 1411.8 1476.99 Q1411.8 1479.02 1413.36 1480.2 Q1414.92 1481.35 1419.63 1482.4 L1421.64 1482.84 Q1427.87 1484.18 1430.48 1486.63 Q1433.13 1489.05 1433.13 1493.41 Q1433.13 1498.37 1429.18 1501.27 Q1425.26 1504.17 1418.39 1504.17 Q1415.52 1504.17 1412.4 1503.59 Q1409.32 1503.05 1405.88 1501.94 L1405.88 1495.89 Q1409.13 1497.58 1412.28 1498.44 Q1415.43 1499.27 1418.52 1499.27 Q1422.65 1499.27 1424.88 1497.86 Q1427.11 1496.43 1427.11 1493.85 Q1427.11 1491.47 1425.49 1490.19 Q1423.89 1488.92 1418.45 1487.74 L1416.42 1487.27 Q1410.97 1486.12 1408.55 1483.76 Q1406.13 1481.38 1406.13 1477.24 Q1406.13 1472.21 1409.7 1469.47 Q1413.26 1466.74 1419.82 1466.74 Q1423.07 1466.74 1425.93 1467.21 Q1428.8 1467.69 1431.22 1468.65 Z" fill="#000000" fill-rule="evenodd" fill-opacity="1" /><path clip-path="url(#clip830)" d="M 0 0 M1441.53 1453.78 L1446.62 1453.78 Q1451.39 1461.29 1453.75 1468.49 Q1456.14 1475.68 1456.14 1482.78 Q1456.14 1489.91 1453.75 1497.13 Q1451.39 1504.36 1446.62 1511.84 L1441.53 1511.84 Q1445.76 1504.55 1447.83 1497.36 Q1449.93 1490.13 1449.93 1482.78 Q1449.93 1475.43 1447.83 1468.26 Q1445.76 1461.1 1441.53 1453.78 Z" fill="#000000" fill-rule="evenodd" fill-opacity="1" /><polyline clip-path="url(#clip832)" style="stroke:#000000; stroke-width:2; stroke-opacity:0.1; fill:none" points="
  368.743,1324.92 2256.76,1324.92 
  "/>
<polyline clip-path="url(#clip832)" style="stroke:#000000; stroke-width:2; stroke-opacity:0.1; fill:none" points="
  368.743,1076.15 2256.76,1076.15 
  "/>
<polyline clip-path="url(#clip832)" style="stroke:#000000; stroke-width:2; stroke-opacity:0.1; fill:none" points="
  368.743,827.39 2256.76,827.39 
  "/>
<polyline clip-path="url(#clip832)" style="stroke:#000000; stroke-width:2; stroke-opacity:0.1; fill:none" points="
  368.743,578.627 2256.76,578.627 
  "/>
<polyline clip-path="url(#clip832)" style="stroke:#000000; stroke-width:2; stroke-opacity:0.1; fill:none" points="
  368.743,329.864 2256.76,329.864 
  "/>
<polyline clip-path="url(#clip830)" style="stroke:#000000; stroke-width:4; stroke-opacity:1; fill:none" points="
  368.743,1359.82 368.743,123.472 
  "/>
<polyline clip-path="url(#clip830)" style="stroke:#000000; stroke-width:4; stroke-opacity:1; fill:none" points="
  368.743,1324.92 391.4,1324.92 
  "/>
<polyline clip-path="url(#clip830)" style="stroke:#000000; stroke-width:4; stroke-opacity:1; fill:none" points="
  368.743,1076.15 391.4,1076.15 
  "/>
<polyline clip-path="url(#clip830)" style="stroke:#000000; stroke-width:4; stroke-opacity:1; fill:none" points="
  368.743,827.39 391.4,827.39 
  "/>
<polyline clip-path="url(#clip830)" style="stroke:#000000; stroke-width:4; stroke-opacity:1; fill:none" points="
  368.743,578.627 391.4,578.627 
  "/>
<polyline clip-path="url(#clip830)" style="stroke:#000000; stroke-width:4; stroke-opacity:1; fill:none" points="
  368.743,329.864 391.4,329.864 
  "/>
<path clip-path="url(#clip830)" d="M 0 0 M322.239 1310.71 Q318.628 1310.71 316.799 1314.28 Q314.994 1317.82 314.994 1324.95 Q314.994 1332.06 316.799 1335.62 Q318.628 1339.16 322.239 1339.16 Q325.873 1339.16 327.679 1335.62 Q329.508 1332.06 329.508 1324.95 Q329.508 1317.82 327.679 1314.28 Q325.873 1310.71 322.239 1310.71 M322.239 1307.01 Q328.049 1307.01 331.105 1311.62 Q334.183 1316.2 334.183 1324.95 Q334.183 1333.68 331.105 1338.28 Q328.049 1342.87 322.239 1342.87 Q316.429 1342.87 313.35 1338.28 Q310.295 1333.68 310.295 1324.95 Q310.295 1316.2 313.35 1311.62 Q316.429 1307.01 322.239 1307.01 Z" fill="#000000" fill-rule="evenodd" fill-opacity="1" /><path clip-path="url(#clip830)" d="M 0 0 M120.365 1095.95 L136.684 1095.95 L136.684 1099.88 L114.74 1099.88 L114.74 1095.95 Q117.402 1093.19 121.985 1088.56 Q126.592 1083.91 127.772 1082.57 Q130.018 1080.04 130.897 1078.31 Q131.8 1076.55 131.8 1074.86 Q131.8 1072.1 129.856 1070.37 Q127.935 1068.63 124.833 1068.63 Q122.634 1068.63 120.18 1069.39 Q117.749 1070.16 114.972 1071.71 L114.972 1066.99 Q117.796 1065.85 120.249 1065.27 Q122.703 1064.7 124.74 1064.7 Q130.11 1064.7 133.305 1067.38 Q136.499 1070.07 136.499 1074.56 Q136.499 1076.69 135.689 1078.61 Q134.902 1080.51 132.796 1083.1 Q132.217 1083.77 129.115 1086.99 Q126.013 1090.18 120.365 1095.95 Z" fill="#000000" fill-rule="evenodd" fill-opacity="1" /><path clip-path="url(#clip830)" d="M 0 0 M146.499 1094 L151.383 1094 L151.383 1099.88 L146.499 1099.88 L146.499 1094 Z" fill="#000000" fill-rule="evenodd" fill-opacity="1" /><path clip-path="url(#clip830)" d="M 0 0 M161.615 1065.32 L179.971 1065.32 L179.971 1069.26 L165.897 1069.26 L165.897 1077.73 Q166.916 1077.38 167.934 1077.22 Q168.953 1077.03 169.971 1077.03 Q175.758 1077.03 179.138 1080.2 Q182.518 1083.38 182.518 1088.79 Q182.518 1094.37 179.045 1097.47 Q175.573 1100.55 169.254 1100.55 Q167.078 1100.55 164.809 1100.18 Q162.564 1099.81 160.157 1099.07 L160.157 1094.37 Q162.24 1095.51 164.462 1096.06 Q166.684 1096.62 169.161 1096.62 Q173.166 1096.62 175.504 1094.51 Q177.842 1092.4 177.842 1088.79 Q177.842 1085.18 175.504 1083.07 Q173.166 1080.97 169.161 1080.97 Q167.286 1080.97 165.411 1081.38 Q163.559 1081.8 161.615 1082.68 L161.615 1065.32 Z" fill="#000000" fill-rule="evenodd" fill-opacity="1" /><path clip-path="url(#clip830)" d="M 0 0 M201.73 1068.4 Q198.119 1068.4 196.291 1071.96 Q194.485 1075.51 194.485 1082.63 Q194.485 1089.74 196.291 1093.31 Q198.119 1096.85 201.73 1096.85 Q205.365 1096.85 207.17 1093.31 Q208.999 1089.74 208.999 1082.63 Q208.999 1075.51 207.17 1071.96 Q205.365 1068.4 201.73 1068.4 M201.73 1064.7 Q207.541 1064.7 210.596 1069.3 Q213.675 1073.89 213.675 1082.63 Q213.675 1091.36 210.596 1095.97 Q207.541 1100.55 201.73 1100.55 Q195.92 1100.55 192.842 1095.97 Q189.786 1091.36 189.786 1082.63 Q189.786 1073.89 192.842 1069.3 Q195.92 1064.7 201.73 1064.7 Z" fill="#000000" fill-rule="evenodd" fill-opacity="1" /><path clip-path="url(#clip830)" d="M 0 0 M250.064 1074.42 L239.485 1085.04 L250.064 1095.62 L247.309 1098.42 L236.684 1087.8 L226.059 1098.42 L223.328 1095.62 L233.883 1085.04 L223.328 1074.42 L226.059 1071.62 L236.684 1082.24 L247.309 1071.62 L250.064 1074.42 Z" fill="#000000" fill-rule="evenodd" fill-opacity="1" /><path clip-path="url(#clip830)" d="M 0 0 M262.425 1095.95 L270.063 1095.95 L270.063 1069.58 L261.753 1071.25 L261.753 1066.99 L270.017 1065.32 L274.693 1065.32 L274.693 1095.95 L282.332 1095.95 L282.332 1099.88 L262.425 1099.88 L262.425 1095.95 Z" fill="#000000" fill-rule="evenodd" fill-opacity="1" /><path clip-path="url(#clip830)" d="M 0 0 M301.776 1068.4 Q298.165 1068.4 296.336 1071.96 Q294.531 1075.51 294.531 1082.63 Q294.531 1089.74 296.336 1093.31 Q298.165 1096.85 301.776 1096.85 Q305.41 1096.85 307.216 1093.31 Q309.045 1089.74 309.045 1082.63 Q309.045 1075.51 307.216 1071.96 Q305.41 1068.4 301.776 1068.4 M301.776 1064.7 Q307.586 1064.7 310.642 1069.3 Q313.721 1073.89 313.721 1082.63 Q313.721 1091.36 310.642 1095.97 Q307.586 1100.55 301.776 1100.55 Q295.966 1100.55 292.887 1095.97 Q289.832 1091.36 289.832 1082.63 Q289.832 1073.89 292.887 1069.3 Q295.966 1064.7 301.776 1064.7 Z" fill="#000000" fill-rule="evenodd" fill-opacity="1" /><path clip-path="url(#clip830)" d="M 0 0 M326.397 1047.7 L316.805 1062.69 L326.397 1062.69 L326.397 1047.7 M325.4 1044.39 L330.177 1044.39 L330.177 1062.69 L334.183 1062.69 L334.183 1065.85 L330.177 1065.85 L330.177 1072.47 L326.397 1072.47 L326.397 1065.85 L313.721 1065.85 L313.721 1062.18 L325.4 1044.39 Z" fill="#000000" fill-rule="evenodd" fill-opacity="1" /><path clip-path="url(#clip830)" d="M 0 0 M116.384 816.557 L134.74 816.557 L134.74 820.493 L120.666 820.493 L120.666 828.965 Q121.685 828.618 122.703 828.456 Q123.722 828.27 124.74 828.27 Q130.527 828.27 133.907 831.442 Q137.286 834.613 137.286 840.03 Q137.286 845.608 133.814 848.71 Q130.342 851.789 124.023 851.789 Q121.847 851.789 119.578 851.418 Q117.333 851.048 114.925 850.307 L114.925 845.608 Q117.009 846.742 119.231 847.298 Q121.453 847.854 123.93 847.854 Q127.935 847.854 130.272 845.747 Q132.61 843.641 132.61 840.03 Q132.61 836.418 130.272 834.312 Q127.935 832.205 123.93 832.205 Q122.055 832.205 120.18 832.622 Q118.328 833.039 116.384 833.918 L116.384 816.557 Z" fill="#000000" fill-rule="evenodd" fill-opacity="1" /><path clip-path="url(#clip830)" d="M 0 0 M146.499 845.238 L151.383 845.238 L151.383 851.117 L146.499 851.117 L146.499 845.238 Z" fill="#000000" fill-rule="evenodd" fill-opacity="1" /><path clip-path="url(#clip830)" d="M 0 0 M171.569 819.636 Q167.957 819.636 166.129 823.201 Q164.323 826.743 164.323 833.872 Q164.323 840.979 166.129 844.543 Q167.957 848.085 171.569 848.085 Q175.203 848.085 177.008 844.543 Q178.837 840.979 178.837 833.872 Q178.837 826.743 177.008 823.201 Q175.203 819.636 171.569 819.636 M171.569 815.932 Q177.379 815.932 180.434 820.539 Q183.513 825.122 183.513 833.872 Q183.513 842.599 180.434 847.205 Q177.379 851.789 171.569 851.789 Q165.758 851.789 162.68 847.205 Q159.624 842.599 159.624 833.872 Q159.624 825.122 162.68 820.539 Q165.758 815.932 171.569 815.932 Z" fill="#000000" fill-rule="evenodd" fill-opacity="1" /><path clip-path="url(#clip830)" d="M 0 0 M201.73 819.636 Q198.119 819.636 196.291 823.201 Q194.485 826.743 194.485 833.872 Q194.485 840.979 196.291 844.543 Q198.119 848.085 201.73 848.085 Q205.365 848.085 207.17 844.543 Q208.999 840.979 208.999 833.872 Q208.999 826.743 207.17 823.201 Q205.365 819.636 201.73 819.636 M201.73 815.932 Q207.541 815.932 210.596 820.539 Q213.675 825.122 213.675 833.872 Q213.675 842.599 210.596 847.205 Q207.541 851.789 201.73 851.789 Q195.92 851.789 192.842 847.205 Q189.786 842.599 189.786 833.872 Q189.786 825.122 192.842 820.539 Q195.92 815.932 201.73 815.932 Z" fill="#000000" fill-rule="evenodd" fill-opacity="1" /><path clip-path="url(#clip830)" d="M 0 0 M250.064 825.655 L239.485 836.28 L250.064 846.858 L247.309 849.659 L236.684 839.034 L226.059 849.659 L223.328 846.858 L233.883 836.28 L223.328 825.655 L226.059 822.854 L236.684 833.479 L247.309 822.854 L250.064 825.655 Z" fill="#000000" fill-rule="evenodd" fill-opacity="1" /><path clip-path="url(#clip830)" d="M 0 0 M262.425 847.182 L270.063 847.182 L270.063 820.817 L261.753 822.483 L261.753 818.224 L270.017 816.557 L274.693 816.557 L274.693 847.182 L282.332 847.182 L282.332 851.117 L262.425 851.117 L262.425 847.182 Z" fill="#000000" fill-rule="evenodd" fill-opacity="1" /><path clip-path="url(#clip830)" d="M 0 0 M301.776 819.636 Q298.165 819.636 296.336 823.201 Q294.531 826.743 294.531 833.872 Q294.531 840.979 296.336 844.543 Q298.165 848.085 301.776 848.085 Q305.41 848.085 307.216 844.543 Q309.045 840.979 309.045 833.872 Q309.045 826.743 307.216 823.201 Q305.41 819.636 301.776 819.636 M301.776 815.932 Q307.586 815.932 310.642 820.539 Q313.721 825.122 313.721 833.872 Q313.721 842.599 310.642 847.205 Q307.586 851.789 301.776 851.789 Q295.966 851.789 292.887 847.205 Q289.832 842.599 289.832 833.872 Q289.832 825.122 292.887 820.539 Q295.966 815.932 301.776 815.932 Z" fill="#000000" fill-rule="evenodd" fill-opacity="1" /><path clip-path="url(#clip830)" d="M 0 0 M326.397 798.937 L316.805 813.927 L326.397 813.927 L326.397 798.937 M325.4 795.627 L330.177 795.627 L330.177 813.927 L334.183 813.927 L334.183 817.087 L330.177 817.087 L330.177 823.707 L326.397 823.707 L326.397 817.087 L313.721 817.087 L313.721 813.419 L325.4 795.627 Z" fill="#000000" fill-rule="evenodd" fill-opacity="1" /><path clip-path="url(#clip830)" d="M 0 0 M115.157 567.795 L137.379 567.795 L137.379 569.785 L124.833 602.355 L119.948 602.355 L131.754 571.73 L115.157 571.73 L115.157 567.795 Z" fill="#000000" fill-rule="evenodd" fill-opacity="1" /><path clip-path="url(#clip830)" d="M 0 0 M146.499 596.475 L151.383 596.475 L151.383 602.355 L146.499 602.355 L146.499 596.475 Z" fill="#000000" fill-rule="evenodd" fill-opacity="1" /><path clip-path="url(#clip830)" d="M 0 0 M161.615 567.795 L179.971 567.795 L179.971 571.73 L165.897 571.73 L165.897 580.202 Q166.916 579.855 167.934 579.693 Q168.953 579.507 169.971 579.507 Q175.758 579.507 179.138 582.679 Q182.518 585.85 182.518 591.267 Q182.518 596.845 179.045 599.947 Q175.573 603.026 169.254 603.026 Q167.078 603.026 164.809 602.656 Q162.564 602.285 160.157 601.544 L160.157 596.845 Q162.24 597.98 164.462 598.535 Q166.684 599.091 169.161 599.091 Q173.166 599.091 175.504 596.984 Q177.842 594.878 177.842 591.267 Q177.842 587.656 175.504 585.549 Q173.166 583.443 169.161 583.443 Q167.286 583.443 165.411 583.859 Q163.559 584.276 161.615 585.156 L161.615 567.795 Z" fill="#000000" fill-rule="evenodd" fill-opacity="1" /><path clip-path="url(#clip830)" d="M 0 0 M201.73 570.873 Q198.119 570.873 196.291 574.438 Q194.485 577.98 194.485 585.109 Q194.485 592.216 196.291 595.781 Q198.119 599.322 201.73 599.322 Q205.365 599.322 207.17 595.781 Q208.999 592.216 208.999 585.109 Q208.999 577.98 207.17 574.438 Q205.365 570.873 201.73 570.873 M201.73 567.17 Q207.541 567.17 210.596 571.776 Q213.675 576.359 213.675 585.109 Q213.675 593.836 210.596 598.443 Q207.541 603.026 201.73 603.026 Q195.92 603.026 192.842 598.443 Q189.786 593.836 189.786 585.109 Q189.786 576.359 192.842 571.776 Q195.92 567.17 201.73 567.17 Z" fill="#000000" fill-rule="evenodd" fill-opacity="1" /><path clip-path="url(#clip830)" d="M 0 0 M250.064 576.892 L239.485 587.517 L250.064 598.095 L247.309 600.896 L236.684 590.271 L226.059 600.896 L223.328 598.095 L233.883 587.517 L223.328 576.892 L226.059 574.091 L236.684 584.716 L247.309 574.091 L250.064 576.892 Z" fill="#000000" fill-rule="evenodd" fill-opacity="1" /><path clip-path="url(#clip830)" d="M 0 0 M262.425 598.419 L270.063 598.419 L270.063 572.054 L261.753 573.72 L261.753 569.461 L270.017 567.795 L274.693 567.795 L274.693 598.419 L282.332 598.419 L282.332 602.355 L262.425 602.355 L262.425 598.419 Z" fill="#000000" fill-rule="evenodd" fill-opacity="1" /><path clip-path="url(#clip830)" d="M 0 0 M301.776 570.873 Q298.165 570.873 296.336 574.438 Q294.531 577.98 294.531 585.109 Q294.531 592.216 296.336 595.781 Q298.165 599.322 301.776 599.322 Q305.41 599.322 307.216 595.781 Q309.045 592.216 309.045 585.109 Q309.045 577.98 307.216 574.438 Q305.41 570.873 301.776 570.873 M301.776 567.17 Q307.586 567.17 310.642 571.776 Q313.721 576.359 313.721 585.109 Q313.721 593.836 310.642 598.443 Q307.586 603.026 301.776 603.026 Q295.966 603.026 292.887 598.443 Q289.832 593.836 289.832 585.109 Q289.832 576.359 292.887 571.776 Q295.966 567.17 301.776 567.17 Z" fill="#000000" fill-rule="evenodd" fill-opacity="1" /><path clip-path="url(#clip830)" d="M 0 0 M326.397 550.174 L316.805 565.164 L326.397 565.164 L326.397 550.174 M325.4 546.864 L330.177 546.864 L330.177 565.164 L334.183 565.164 L334.183 568.324 L330.177 568.324 L330.177 574.944 L326.397 574.944 L326.397 568.324 L313.721 568.324 L313.721 564.656 L325.4 546.864 Z" fill="#000000" fill-rule="evenodd" fill-opacity="1" /><path clip-path="url(#clip830)" d="M 0 0 M119.442 349.657 L127.081 349.657 L127.081 323.291 L118.771 324.958 L118.771 320.698 L127.035 319.032 L131.711 319.032 L131.711 349.657 L139.349 349.657 L139.349 353.592 L119.442 353.592 L119.442 349.657 Z" fill="#000000" fill-rule="evenodd" fill-opacity="1" /><path clip-path="url(#clip830)" d="M 0 0 M148.794 347.712 L153.678 347.712 L153.678 353.592 L148.794 353.592 L148.794 347.712 Z" fill="#000000" fill-rule="evenodd" fill-opacity="1" /><path clip-path="url(#clip830)" d="M 0 0 M173.863 322.11 Q170.252 322.11 168.423 325.675 Q166.618 329.217 166.618 336.346 Q166.618 343.453 168.423 347.018 Q170.252 350.559 173.863 350.559 Q177.497 350.559 179.303 347.018 Q181.132 343.453 181.132 336.346 Q181.132 329.217 179.303 325.675 Q177.497 322.11 173.863 322.11 M173.863 318.407 Q179.673 318.407 182.729 323.013 Q185.807 327.597 185.807 336.346 Q185.807 345.073 182.729 349.68 Q179.673 354.263 173.863 354.263 Q168.053 354.263 164.974 349.68 Q161.919 345.073 161.919 336.346 Q161.919 327.597 164.974 323.013 Q168.053 318.407 173.863 318.407 Z" fill="#000000" fill-rule="evenodd" fill-opacity="1" /><path clip-path="url(#clip830)" d="M 0 0 M204.025 322.11 Q200.414 322.11 198.585 325.675 Q196.78 329.217 196.78 336.346 Q196.78 343.453 198.585 347.018 Q200.414 350.559 204.025 350.559 Q207.659 350.559 209.465 347.018 Q211.293 343.453 211.293 336.346 Q211.293 329.217 209.465 325.675 Q207.659 322.11 204.025 322.11 M204.025 318.407 Q209.835 318.407 212.891 323.013 Q215.969 327.597 215.969 336.346 Q215.969 345.073 212.891 349.68 Q209.835 354.263 204.025 354.263 Q198.215 354.263 195.136 349.68 Q192.081 345.073 192.081 336.346 Q192.081 327.597 195.136 323.013 Q198.215 318.407 204.025 318.407 Z" fill="#000000" fill-rule="evenodd" fill-opacity="1" /><path clip-path="url(#clip830)" d="M 0 0 M252.358 328.129 L241.779 338.754 L252.358 349.333 L249.603 352.133 L238.978 341.508 L228.354 352.133 L225.622 349.333 L236.178 338.754 L225.622 328.129 L228.354 325.328 L238.978 335.953 L249.603 325.328 L252.358 328.129 Z" fill="#000000" fill-rule="evenodd" fill-opacity="1" /><path clip-path="url(#clip830)" d="M 0 0 M264.719 349.657 L272.358 349.657 L272.358 323.291 L264.048 324.958 L264.048 320.698 L272.312 319.032 L276.988 319.032 L276.988 349.657 L284.626 349.657 L284.626 353.592 L264.719 353.592 L264.719 349.657 Z" fill="#000000" fill-rule="evenodd" fill-opacity="1" /><path clip-path="url(#clip830)" d="M 0 0 M304.071 322.11 Q300.46 322.11 298.631 325.675 Q296.825 329.217 296.825 336.346 Q296.825 343.453 298.631 347.018 Q300.46 350.559 304.071 350.559 Q307.705 350.559 309.511 347.018 Q311.339 343.453 311.339 336.346 Q311.339 329.217 309.511 325.675 Q307.705 322.11 304.071 322.11 M304.071 318.407 Q309.881 318.407 312.936 323.013 Q316.015 327.597 316.015 336.346 Q316.015 345.073 312.936 349.68 Q309.881 354.263 304.071 354.263 Q298.261 354.263 295.182 349.68 Q292.126 345.073 292.126 336.346 Q292.126 327.597 295.182 323.013 Q298.261 318.407 304.071 318.407 Z" fill="#000000" fill-rule="evenodd" fill-opacity="1" /><path clip-path="url(#clip830)" d="M 0 0 M317.2 298.101 L332.115 298.101 L332.115 301.299 L320.679 301.299 L320.679 308.182 Q321.507 307.9 322.335 307.769 Q323.162 307.618 323.99 307.618 Q328.692 307.618 331.437 310.195 Q334.183 312.771 334.183 317.172 Q334.183 321.705 331.362 324.225 Q328.541 326.727 323.407 326.727 Q321.639 326.727 319.795 326.426 Q317.971 326.125 316.015 325.523 L316.015 321.705 Q317.708 322.627 319.513 323.078 Q321.319 323.529 323.331 323.529 Q326.585 323.529 328.485 321.818 Q330.384 320.106 330.384 317.172 Q330.384 314.238 328.485 312.527 Q326.585 310.815 323.331 310.815 Q321.808 310.815 320.284 311.154 Q318.78 311.492 317.2 312.207 L317.2 298.101 Z" fill="#000000" fill-rule="evenodd" fill-opacity="1" /><path clip-path="url(#clip830)" d="M 0 0 M24.738 1022.71 L48.3866 1031.43 L48.3866 1013.95 L24.738 1022.71 M18.4042 1026.34 L18.4042 1019.05 L65.9242 1000.94 L65.9242 1007.62 L53.7338 1011.95 L53.7338 1033.37 L65.9242 1037.7 L65.9242 1044.48 L18.4042 1026.34 Z" fill="#000000" fill-rule="evenodd" fill-opacity="1" /><path clip-path="url(#clip830)" d="M 0 0 M30.2762 1002.27 L30.2762 996.067 L60.195 984.927 L30.2762 973.787 L30.2762 967.581 L65.9242 980.949 L65.9242 988.906 L30.2762 1002.27 Z" fill="#000000" fill-rule="evenodd" fill-opacity="1" /><path clip-path="url(#clip830)" d="M 0 0 M47.6864 936.039 Q41.3207 936.039 37.8196 938.681 Q34.3184 941.29 34.3184 946.033 Q34.3184 950.744 37.8196 953.385 Q41.3207 955.995 47.6864 955.995 Q54.0203 955.995 57.5214 953.385 Q61.0226 950.744 61.0226 946.033 Q61.0226 941.29 57.5214 938.681 Q54.0203 936.039 47.6864 936.039 M61.5 930.182 Q70.603 930.182 75.0271 934.225 Q79.4831 938.267 79.4831 946.606 Q79.4831 949.693 79.0057 952.43 Q78.5601 955.168 77.6052 957.746 L71.9079 957.746 Q73.3084 955.168 73.9768 952.653 Q74.6452 950.139 74.6452 947.529 Q74.6452 941.768 71.6215 938.903 Q68.6296 936.039 62.5503 936.039 L59.6539 936.039 Q62.805 937.853 64.3646 940.686 Q65.9242 943.518 65.9242 947.465 Q65.9242 954.022 60.9271 958.032 Q55.93 962.043 47.6864 962.043 Q39.411 962.043 34.4139 958.032 Q29.4168 954.022 29.4168 947.465 Q29.4168 943.518 30.9764 940.686 Q32.536 937.853 35.6871 936.039 L30.2762 936.039 L30.2762 930.182 L61.5 930.182 Z" fill="#000000" fill-rule="evenodd" fill-opacity="1" /><path clip-path="url(#clip830)" d="M 0 0 M60.577 891.733 L79.4831 891.733 L79.4831 897.622 L30.2762 897.622 L30.2762 891.733 L35.6871 891.733 Q32.5042 889.887 30.9764 887.086 Q29.4168 884.254 29.4168 880.339 Q29.4168 873.846 34.5731 869.804 Q39.7293 865.73 48.132 865.73 Q56.5347 865.73 61.691 869.804 Q66.8472 873.846 66.8472 880.339 Q66.8472 884.254 65.3194 887.086 Q63.7598 889.887 60.577 891.733 M48.132 871.809 Q41.6708 871.809 38.0105 874.482 Q34.3184 877.124 34.3184 881.771 Q34.3184 886.418 38.0105 889.092 Q41.6708 891.733 48.132 891.733 Q54.5932 891.733 58.2853 889.092 Q61.9456 886.418 61.9456 881.771 Q61.9456 877.124 58.2853 874.482 Q54.5932 871.809 48.132 871.809 Z" fill="#000000" fill-rule="evenodd" fill-opacity="1" /><path clip-path="url(#clip830)" d="M 0 0 M44.4081 826.389 L65.9242 826.389 L65.9242 832.246 L44.599 832.246 Q39.5383 832.246 37.0238 834.219 Q34.5094 836.193 34.5094 840.139 Q34.5094 844.882 37.5331 847.619 Q40.5568 850.356 45.7767 850.356 L65.9242 850.356 L65.9242 856.245 L16.399 856.245 L16.399 850.356 L35.8144 850.356 Q32.5997 848.256 31.0083 845.423 Q29.4168 842.558 29.4168 838.834 Q29.4168 832.692 33.2363 829.54 Q37.0238 826.389 44.4081 826.389 Z" fill="#000000" fill-rule="evenodd" fill-opacity="1" /><path clip-path="url(#clip830)" d="M 0 0 M34.3821 800.895 Q34.3821 805.605 38.0742 808.343 Q41.7345 811.08 48.132 811.08 Q54.5295 811.08 58.2217 808.375 Q61.8819 805.637 61.8819 800.895 Q61.8819 796.216 58.1898 793.479 Q54.4977 790.741 48.132 790.741 Q41.7981 790.741 38.106 793.479 Q34.3821 796.216 34.3821 800.895 M29.4168 800.895 Q29.4168 793.256 34.3821 788.895 Q39.3473 784.535 48.132 784.535 Q56.8849 784.535 61.8819 788.895 Q66.8472 793.256 66.8472 800.895 Q66.8472 808.565 61.8819 812.926 Q56.8849 817.255 48.132 817.255 Q39.3473 817.255 34.3821 812.926 Q29.4168 808.565 29.4168 800.895 Z" fill="#000000" fill-rule="evenodd" fill-opacity="1" /><path clip-path="url(#clip830)" d="M 0 0 M20.1547 769.034 L30.2762 769.034 L30.2762 756.971 L34.8277 756.971 L34.8277 769.034 L54.1794 769.034 Q58.5399 769.034 59.7813 767.857 Q61.0226 766.647 61.0226 762.987 L61.0226 756.971 L65.9242 756.971 L65.9242 762.987 Q65.9242 769.766 63.4097 772.345 Q60.8634 774.923 54.1794 774.923 L34.8277 774.923 L34.8277 779.22 L30.2762 779.22 L30.2762 774.923 L20.1547 774.923 L20.1547 769.034 Z" fill="#000000" fill-rule="evenodd" fill-opacity="1" /><path clip-path="url(#clip830)" d="M 0 0 M34.3821 735.455 Q34.3821 740.166 38.0742 742.903 Q41.7345 745.64 48.132 745.64 Q54.5295 745.64 58.2217 742.935 Q61.8819 740.198 61.8819 735.455 Q61.8819 730.777 58.1898 728.039 Q54.4977 725.302 48.132 725.302 Q41.7981 725.302 38.106 728.039 Q34.3821 730.777 34.3821 735.455 M29.4168 735.455 Q29.4168 727.816 34.3821 723.456 Q39.3473 719.095 48.132 719.095 Q56.8849 719.095 61.8819 723.456 Q66.8472 727.816 66.8472 735.455 Q66.8472 743.126 61.8819 747.487 Q56.8849 751.815 48.132 751.815 Q39.3473 751.815 34.3821 747.487 Q29.4168 743.126 29.4168 735.455 Z" fill="#000000" fill-rule="evenodd" fill-opacity="1" /><path clip-path="url(#clip830)" d="M 0 0 M44.4081 679.755 L65.9242 679.755 L65.9242 685.612 L44.599 685.612 Q39.5383 685.612 37.0238 687.585 Q34.5094 689.559 34.5094 693.505 Q34.5094 698.248 37.5331 700.985 Q40.5568 703.722 45.7767 703.722 L65.9242 703.722 L65.9242 709.611 L30.2762 709.611 L30.2762 703.722 L35.8144 703.722 Q32.5997 701.622 31.0083 698.789 Q29.4168 695.924 29.4168 692.2 Q29.4168 686.057 33.2363 682.906 Q37.0238 679.755 44.4081 679.755 Z" fill="#000000" fill-rule="evenodd" fill-opacity="1" /><path clip-path="url(#clip830)" d="M 0 0 M31.6448 621.7 L37.1193 621.7 Q35.7507 624.183 35.0823 626.697 Q34.3821 629.18 34.3821 631.726 Q34.3821 637.423 38.0105 640.574 Q41.6072 643.726 48.132 643.726 Q54.6569 643.726 58.2853 640.574 Q61.8819 637.423 61.8819 631.726 Q61.8819 629.18 61.2135 626.697 Q60.5133 624.183 59.1447 621.7 L64.5555 621.7 Q65.7014 624.151 66.2743 626.793 Q66.8472 629.403 66.8472 632.363 Q66.8472 640.415 61.7864 645.158 Q56.7257 649.9 48.132 649.9 Q39.411 649.9 34.4139 645.126 Q29.4168 640.32 29.4168 631.981 Q29.4168 629.275 29.9897 626.697 Q30.5308 624.119 31.6448 621.7 Z" fill="#000000" fill-rule="evenodd" fill-opacity="1" /><path clip-path="url(#clip830)" d="M 0 0 M34.3821 597.701 Q34.3821 602.412 38.0742 605.149 Q41.7345 607.887 48.132 607.887 Q54.5295 607.887 58.2217 605.181 Q61.8819 602.444 61.8819 597.701 Q61.8819 593.023 58.1898 590.285 Q54.4977 587.548 48.132 587.548 Q41.7981 587.548 38.106 590.285 Q34.3821 593.023 34.3821 597.701 M29.4168 597.701 Q29.4168 590.063 34.3821 585.702 Q39.3473 581.342 48.132 581.342 Q56.8849 581.342 61.8819 585.702 Q66.8472 590.063 66.8472 597.701 Q66.8472 605.372 61.8819 609.733 Q56.8849 614.061 48.132 614.061 Q39.3473 614.061 34.3821 609.733 Q29.4168 605.372 29.4168 597.701 Z" fill="#000000" fill-rule="evenodd" fill-opacity="1" /><path clip-path="url(#clip830)" d="M 0 0 M51.8559 572.239 L30.2762 572.239 L30.2762 566.382 L51.6331 566.382 Q56.6939 566.382 59.2402 564.409 Q61.7546 562.435 61.7546 558.489 Q61.7546 553.746 58.7309 551.009 Q55.7072 548.24 50.4873 548.24 L30.2762 548.24 L30.2762 542.383 L65.9242 542.383 L65.9242 548.24 L60.4496 548.24 Q63.6962 550.372 65.2876 553.205 Q66.8472 556.006 66.8472 559.73 Q66.8472 565.873 63.0278 569.056 Q59.2083 572.239 51.8559 572.239 M29.4168 557.502 L29.4168 557.502 Z" fill="#000000" fill-rule="evenodd" fill-opacity="1" /><path clip-path="url(#clip830)" d="M 0 0 M44.4081 500.688 L65.9242 500.688 L65.9242 506.545 L44.599 506.545 Q39.5383 506.545 37.0238 508.518 Q34.5094 510.491 34.5094 514.438 Q34.5094 519.18 37.5331 521.918 Q40.5568 524.655 45.7767 524.655 L65.9242 524.655 L65.9242 530.543 L30.2762 530.543 L30.2762 524.655 L35.8144 524.655 Q32.5997 522.554 31.0083 519.722 Q29.4168 516.857 29.4168 513.133 Q29.4168 506.99 33.2363 503.839 Q37.0238 500.688 44.4081 500.688 Z" fill="#000000" fill-rule="evenodd" fill-opacity="1" /><path clip-path="url(#clip830)" d="M 0 0 M20.1547 483.214 L30.2762 483.214 L30.2762 471.151 L34.8277 471.151 L34.8277 483.214 L54.1794 483.214 Q58.5399 483.214 59.7813 482.037 Q61.0226 480.827 61.0226 477.167 L61.0226 471.151 L65.9242 471.151 L65.9242 477.167 Q65.9242 483.946 63.4097 486.524 Q60.8634 489.102 54.1794 489.102 L34.8277 489.102 L34.8277 493.399 L30.2762 493.399 L30.2762 489.102 L20.1547 489.102 L20.1547 483.214 Z" fill="#000000" fill-rule="evenodd" fill-opacity="1" /><path clip-path="url(#clip830)" d="M 0 0 M31.3265 440.723 L36.8647 440.723 Q35.5916 443.206 34.955 445.879 Q34.3184 448.553 34.3184 451.418 Q34.3184 455.778 35.6552 457.974 Q36.992 460.139 39.6656 460.139 Q41.7026 460.139 42.8803 458.579 Q44.0261 457.019 45.0765 452.309 L45.5221 450.304 Q46.8589 444.065 49.3097 441.455 Q51.7286 438.813 56.0891 438.813 Q61.0544 438.813 63.9508 442.76 Q66.8472 446.675 66.8472 453.55 Q66.8472 456.415 66.2743 459.534 Q65.7332 462.621 64.6192 466.059 L58.5718 466.059 Q60.2587 462.812 61.118 459.661 Q61.9456 456.51 61.9456 453.423 Q61.9456 449.285 60.5451 447.057 Q59.1129 444.829 56.5347 444.829 Q54.1476 444.829 52.8745 446.452 Q51.6013 448.044 50.4237 453.486 L49.9462 455.523 Q48.8004 460.966 46.4451 463.385 Q44.058 465.804 39.9202 465.804 Q34.8913 465.804 32.1541 462.239 Q29.4168 458.674 29.4168 452.118 Q29.4168 448.871 29.8943 446.007 Q30.3717 443.142 31.3265 440.723 Z" fill="#000000" fill-rule="evenodd" fill-opacity="1" /><path clip-path="url(#clip830)" d="M 0 0 M682.814 20.1573 L671.714 50.2555 L693.954 50.2555 L682.814 20.1573 M678.196 12.096 L687.472 12.096 L710.522 72.576 L702.015 72.576 L696.506 57.061 L669.243 57.061 L663.734 72.576 L655.106 72.576 L678.196 12.096 Z" fill="#000000" fill-rule="evenodd" fill-opacity="1" /><path clip-path="url(#clip830)" d="M 0 0 M708.821 27.2059 L716.72 27.2059 L730.898 65.2844 L745.076 27.2059 L752.975 27.2059 L735.962 72.576 L725.834 72.576 L708.821 27.2059 Z" fill="#000000" fill-rule="evenodd" fill-opacity="1" /><path clip-path="url(#clip830)" d="M 0 0 M802.072 48.0275 L802.072 51.6733 L767.802 51.6733 Q768.288 59.3701 772.42 63.421 Q776.592 67.4314 784.005 67.4314 Q788.299 67.4314 792.31 66.3781 Q796.361 65.3249 800.331 63.2184 L800.331 70.267 Q796.32 71.9684 792.107 72.8596 Q787.894 73.7508 783.56 73.7508 Q772.703 73.7508 766.343 67.4314 Q760.024 61.1119 760.024 50.3365 Q760.024 39.1965 766.019 32.6746 Q772.055 26.1121 782.264 26.1121 Q791.419 26.1121 796.725 32.0264 Q802.072 37.9003 802.072 48.0275 M794.619 45.84 Q794.538 39.7232 791.175 36.0774 Q787.854 32.4315 782.345 32.4315 Q776.106 32.4315 772.339 35.9558 Q768.612 39.4801 768.045 45.8805 L794.619 45.84 Z" fill="#000000" fill-rule="evenodd" fill-opacity="1" /><path clip-path="url(#clip830)" d="M 0 0 M840.597 34.1734 Q839.341 33.4443 837.842 33.1202 Q836.384 32.7556 834.601 32.7556 Q828.282 32.7556 824.879 36.8875 Q821.517 40.9789 821.517 48.6757 L821.517 72.576 L814.023 72.576 L814.023 27.2059 L821.517 27.2059 L821.517 34.2544 Q823.866 30.1225 827.634 28.1376 Q831.401 26.1121 836.789 26.1121 Q837.558 26.1121 838.49 26.2337 Q839.422 26.3147 840.556 26.5172 L840.597 34.1734 Z" fill="#000000" fill-rule="evenodd" fill-opacity="1" /><path clip-path="url(#clip830)" d="M 0 0 M869.034 49.7694 Q860 49.7694 856.517 51.8354 Q853.033 53.9013 853.033 58.8839 Q853.033 62.8538 855.625 65.2034 Q858.258 67.5124 862.755 67.5124 Q868.953 67.5124 872.68 63.1374 Q876.447 58.7219 876.447 51.4303 L876.447 49.7694 L869.034 49.7694 M883.901 46.6907 L883.901 72.576 L876.447 72.576 L876.447 65.6895 Q873.895 69.8214 870.087 71.8063 Q866.279 73.7508 860.77 73.7508 Q853.802 73.7508 849.671 69.8619 Q845.579 65.9325 845.579 59.3701 Q845.579 51.7138 850.683 47.825 Q855.828 43.9361 865.996 43.9361 L876.447 43.9361 L876.447 43.2069 Q876.447 38.0623 873.044 35.2672 Q869.682 32.4315 863.565 32.4315 Q859.676 32.4315 855.99 33.3632 Q852.304 34.295 848.901 36.1584 L848.901 29.2718 Q852.992 27.692 856.841 26.9223 Q860.689 26.1121 864.335 26.1121 Q874.179 26.1121 879.04 31.2163 Q883.901 36.3204 883.901 46.6907 Z" fill="#000000" fill-rule="evenodd" fill-opacity="1" /><path clip-path="url(#clip830)" d="M 0 0 M929.109 49.3643 Q929.109 41.2625 925.747 36.8065 Q922.425 32.3505 916.389 32.3505 Q910.394 32.3505 907.031 36.8065 Q903.71 41.2625 903.71 49.3643 Q903.71 57.4256 907.031 61.8816 Q910.394 66.3376 916.389 66.3376 Q922.425 66.3376 925.747 61.8816 Q929.109 57.4256 929.109 49.3643 M936.562 66.9452 Q936.562 78.5308 931.418 84.1616 Q926.273 89.8329 915.66 89.8329 Q911.73 89.8329 908.247 89.2252 Q904.763 88.6581 901.482 87.4428 L901.482 80.1917 Q904.763 81.9741 907.963 82.8248 Q911.163 83.6755 914.485 83.6755 Q921.817 83.6755 925.463 79.8271 Q929.109 76.0193 929.109 68.282 L929.109 64.5957 Q926.8 68.6061 923.194 70.5911 Q919.589 72.576 914.566 72.576 Q906.221 72.576 901.117 66.2161 Q896.013 59.8562 896.013 49.3643 Q896.013 38.832 901.117 32.472 Q906.221 26.1121 914.566 26.1121 Q919.589 26.1121 923.194 28.0971 Q926.8 30.082 929.109 34.0924 L929.109 27.2059 L936.562 27.2059 L936.562 66.9452 Z" fill="#000000" fill-rule="evenodd" fill-opacity="1" /><path clip-path="url(#clip830)" d="M 0 0 M990.723 48.0275 L990.723 51.6733 L956.452 51.6733 Q956.938 59.3701 961.07 63.421 Q965.243 67.4314 972.656 67.4314 Q976.95 67.4314 980.96 66.3781 Q985.011 65.3249 988.981 63.2184 L988.981 70.267 Q984.971 71.9684 980.758 72.8596 Q976.545 73.7508 972.21 73.7508 Q961.354 73.7508 954.994 67.4314 Q948.675 61.1119 948.675 50.3365 Q948.675 39.1965 954.67 32.6746 Q960.706 26.1121 970.914 26.1121 Q980.069 26.1121 985.376 32.0264 Q990.723 37.9003 990.723 48.0275 M983.269 45.84 Q983.188 39.7232 979.826 36.0774 Q976.504 32.4315 970.995 32.4315 Q964.757 32.4315 960.989 35.9558 Q957.263 39.4801 956.695 45.8805 L983.269 45.84 Z" fill="#000000" fill-rule="evenodd" fill-opacity="1" /><path clip-path="url(#clip830)" d="M 0 0 M1037.84 18.8205 L1037.84 41.5461 L1048.12 41.5461 Q1053.84 41.5461 1056.96 38.5889 Q1060.07 35.6318 1060.07 30.163 Q1060.07 24.7348 1056.96 21.7777 Q1053.84 18.8205 1048.12 18.8205 L1037.84 18.8205 M1029.65 12.096 L1048.12 12.096 Q1058.29 12.096 1063.48 16.714 Q1068.7 21.2916 1068.7 30.163 Q1068.7 39.1155 1063.48 43.6931 Q1058.29 48.2706 1048.12 48.2706 L1037.84 48.2706 L1037.84 72.576 L1029.65 72.576 L1029.65 12.096 Z" fill="#000000" fill-rule="evenodd" fill-opacity="1" /><path clip-path="url(#clip830)" d="M 0 0 M1117.07 45.1919 L1117.07 72.576 L1109.62 72.576 L1109.62 45.4349 Q1109.62 38.994 1107.11 35.7938 Q1104.59 32.5936 1099.57 32.5936 Q1093.53 32.5936 1090.05 36.4419 Q1086.57 40.2903 1086.57 46.9338 L1086.57 72.576 L1079.07 72.576 L1079.07 9.54393 L1086.57 9.54393 L1086.57 34.2544 Q1089.24 30.163 1092.85 28.1376 Q1096.49 26.1121 1101.23 26.1121 Q1109.05 26.1121 1113.06 30.9732 Q1117.07 35.7938 1117.07 45.1919 Z" fill="#000000" fill-rule="evenodd" fill-opacity="1" /><path clip-path="url(#clip830)" d="M 0 0 M1149.52 32.4315 Q1143.52 32.4315 1140.04 37.1306 Q1136.56 41.7891 1136.56 49.9314 Q1136.56 58.0738 1140 62.7728 Q1143.48 67.4314 1149.52 67.4314 Q1155.47 67.4314 1158.96 62.7323 Q1162.44 58.0333 1162.44 49.9314 Q1162.44 41.8701 1158.96 37.1711 Q1155.47 32.4315 1149.52 32.4315 M1149.52 26.1121 Q1159.24 26.1121 1164.79 32.4315 Q1170.34 38.7509 1170.34 49.9314 Q1170.34 61.0714 1164.79 67.4314 Q1159.24 73.7508 1149.52 73.7508 Q1139.76 73.7508 1134.21 67.4314 Q1128.7 61.0714 1128.7 49.9314 Q1128.7 38.7509 1134.21 32.4315 Q1139.76 26.1121 1149.52 26.1121 Z" fill="#000000" fill-rule="evenodd" fill-opacity="1" /><path clip-path="url(#clip830)" d="M 0 0 M1190.07 14.324 L1190.07 27.2059 L1205.42 27.2059 L1205.42 32.9987 L1190.07 32.9987 L1190.07 57.6282 Q1190.07 63.1779 1191.57 64.7578 Q1193.11 66.3376 1197.76 66.3376 L1205.42 66.3376 L1205.42 72.576 L1197.76 72.576 Q1189.14 72.576 1185.86 69.3758 Q1182.57 66.1351 1182.57 57.6282 L1182.57 32.9987 L1177.11 32.9987 L1177.11 27.2059 L1182.57 27.2059 L1182.57 14.324 L1190.07 14.324 Z" fill="#000000" fill-rule="evenodd" fill-opacity="1" /><path clip-path="url(#clip830)" d="M 0 0 M1232.81 32.4315 Q1226.81 32.4315 1223.33 37.1306 Q1219.84 41.7891 1219.84 49.9314 Q1219.84 58.0738 1223.29 62.7728 Q1226.77 67.4314 1232.81 67.4314 Q1238.76 67.4314 1242.24 62.7323 Q1245.73 58.0333 1245.73 49.9314 Q1245.73 41.8701 1242.24 37.1711 Q1238.76 32.4315 1232.81 32.4315 M1232.81 26.1121 Q1242.53 26.1121 1248.08 32.4315 Q1253.63 38.7509 1253.63 49.9314 Q1253.63 61.0714 1248.08 67.4314 Q1242.53 73.7508 1232.81 73.7508 Q1223.04 73.7508 1217.49 67.4314 Q1211.98 61.0714 1211.98 49.9314 Q1211.98 38.7509 1217.49 32.4315 Q1223.04 26.1121 1232.81 26.1121 Z" fill="#000000" fill-rule="evenodd" fill-opacity="1" /><path clip-path="url(#clip830)" d="M 0 0 M1303.7 45.1919 L1303.7 72.576 L1296.24 72.576 L1296.24 45.4349 Q1296.24 38.994 1293.73 35.7938 Q1291.22 32.5936 1286.2 32.5936 Q1280.16 32.5936 1276.68 36.4419 Q1273.19 40.2903 1273.19 46.9338 L1273.19 72.576 L1265.7 72.576 L1265.7 27.2059 L1273.19 27.2059 L1273.19 34.2544 Q1275.87 30.163 1279.47 28.1376 Q1283.12 26.1121 1287.86 26.1121 Q1295.68 26.1121 1299.69 30.9732 Q1303.7 35.7938 1303.7 45.1919 Z" fill="#000000" fill-rule="evenodd" fill-opacity="1" /><path clip-path="url(#clip830)" d="M 0 0 M1390.55 16.7545 L1390.55 25.383 Q1386.42 21.5346 1381.72 19.6307 Q1377.06 17.7268 1371.79 17.7268 Q1361.42 17.7268 1355.91 24.0867 Q1350.4 30.4061 1350.4 42.3968 Q1350.4 54.3469 1355.91 60.7069 Q1361.42 67.0263 1371.79 67.0263 Q1377.06 67.0263 1381.72 65.1223 Q1386.42 63.2184 1390.55 59.3701 L1390.55 67.9175 Q1386.25 70.8341 1381.43 72.2924 Q1376.65 73.7508 1371.31 73.7508 Q1357.57 73.7508 1349.67 65.3654 Q1341.77 56.9395 1341.77 42.3968 Q1341.77 27.8135 1349.67 19.4281 Q1357.57 11.0023 1371.31 11.0023 Q1376.73 11.0023 1381.51 12.4606 Q1386.33 13.8784 1390.55 16.7545 Z" fill="#000000" fill-rule="evenodd" fill-opacity="1" /><path clip-path="url(#clip830)" d="M 0 0 M1420.44 32.4315 Q1414.45 32.4315 1410.96 37.1306 Q1407.48 41.7891 1407.48 49.9314 Q1407.48 58.0738 1410.92 62.7728 Q1414.41 67.4314 1420.44 67.4314 Q1426.4 67.4314 1429.88 62.7323 Q1433.37 58.0333 1433.37 49.9314 Q1433.37 41.8701 1429.88 37.1711 Q1426.4 32.4315 1420.44 32.4315 M1420.44 26.1121 Q1430.17 26.1121 1435.71 32.4315 Q1441.26 38.7509 1441.26 49.9314 Q1441.26 61.0714 1435.71 67.4314 Q1430.17 73.7508 1420.44 73.7508 Q1410.68 73.7508 1405.13 67.4314 Q1399.62 61.0714 1399.62 49.9314 Q1399.62 38.7509 1405.13 32.4315 Q1410.68 26.1121 1420.44 26.1121 Z" fill="#000000" fill-rule="evenodd" fill-opacity="1" /><path clip-path="url(#clip830)" d="M 0 0 M1452.85 54.671 L1452.85 27.2059 L1460.3 27.2059 L1460.3 54.3874 Q1460.3 60.8284 1462.82 64.0691 Q1465.33 67.2693 1470.35 67.2693 Q1476.39 67.2693 1479.87 63.421 Q1483.39 59.5726 1483.39 52.9291 L1483.39 27.2059 L1490.85 27.2059 L1490.85 72.576 L1483.39 72.576 L1483.39 65.6084 Q1480.68 69.7404 1477.07 71.7658 Q1473.51 73.7508 1468.77 73.7508 Q1460.95 73.7508 1456.9 68.8897 Q1452.85 64.0286 1452.85 54.671 M1471.61 26.1121 L1471.61 26.1121 Z" fill="#000000" fill-rule="evenodd" fill-opacity="1" /><path clip-path="url(#clip830)" d="M 0 0 M1543.91 45.1919 L1543.91 72.576 L1536.46 72.576 L1536.46 45.4349 Q1536.46 38.994 1533.95 35.7938 Q1531.44 32.5936 1526.41 32.5936 Q1520.38 32.5936 1516.89 36.4419 Q1513.41 40.2903 1513.41 46.9338 L1513.41 72.576 L1505.92 72.576 L1505.92 27.2059 L1513.41 27.2059 L1513.41 34.2544 Q1516.08 30.163 1519.69 28.1376 Q1523.34 26.1121 1528.08 26.1121 Q1535.89 26.1121 1539.9 30.9732 Q1543.91 35.7938 1543.91 45.1919 Z" fill="#000000" fill-rule="evenodd" fill-opacity="1" /><path clip-path="url(#clip830)" d="M 0 0 M1566.15 14.324 L1566.15 27.2059 L1581.51 27.2059 L1581.51 32.9987 L1566.15 32.9987 L1566.15 57.6282 Q1566.15 63.1779 1567.65 64.7578 Q1569.19 66.3376 1573.85 66.3376 L1581.51 66.3376 L1581.51 72.576 L1573.85 72.576 Q1565.22 72.576 1561.94 69.3758 Q1558.66 66.1351 1558.66 57.6282 L1558.66 32.9987 L1553.19 32.9987 L1553.19 27.2059 L1558.66 27.2059 L1558.66 14.324 L1566.15 14.324 Z" fill="#000000" fill-rule="evenodd" fill-opacity="1" /><path clip-path="url(#clip830)" d="M 0 0 M1620.23 28.5427 L1620.23 35.5912 Q1617.07 33.9709 1613.67 33.1607 Q1610.27 32.3505 1606.62 32.3505 Q1601.07 32.3505 1598.28 34.0519 Q1595.52 35.7533 1595.52 39.156 Q1595.52 41.7486 1597.51 43.2475 Q1599.49 44.7058 1605.49 46.0426 L1608.04 46.6097 Q1615.98 48.3111 1619.3 51.4303 Q1622.66 54.509 1622.66 60.0587 Q1622.66 66.3781 1617.64 70.0644 Q1612.66 73.7508 1603.91 73.7508 Q1600.26 73.7508 1596.29 73.0216 Q1592.36 72.3329 1587.99 70.9151 L1587.99 63.2184 Q1592.12 65.3654 1596.13 66.4591 Q1600.14 67.5124 1604.07 67.5124 Q1609.34 67.5124 1612.17 65.73 Q1615.01 63.9071 1615.01 60.6258 Q1615.01 57.5877 1612.94 55.9673 Q1610.92 54.3469 1603.99 52.8481 L1601.4 52.2405 Q1594.47 50.7821 1591.39 47.7845 Q1588.31 44.7463 1588.31 39.4801 Q1588.31 33.0797 1592.85 29.5959 Q1597.39 26.1121 1605.73 26.1121 Q1609.86 26.1121 1613.51 26.7198 Q1617.15 27.3274 1620.23 28.5427 Z" fill="#000000" fill-rule="evenodd" fill-opacity="1" /><path clip-path="url(#clip830)" d="M 0 0 M1655.56 27.2059 L1663.46 27.2059 L1677.63 65.2844 L1691.81 27.2059 L1699.71 27.2059 L1682.7 72.576 L1672.57 72.576 L1655.56 27.2059 Z" fill="#000000" fill-rule="evenodd" fill-opacity="1" /><path clip-path="url(#clip830)" d="M 0 0 M1738.93 28.5427 L1738.93 35.5912 Q1735.77 33.9709 1732.36 33.1607 Q1728.96 32.3505 1725.31 32.3505 Q1719.76 32.3505 1716.97 34.0519 Q1714.21 35.7533 1714.21 39.156 Q1714.21 41.7486 1716.2 43.2475 Q1718.18 44.7058 1724.18 46.0426 L1726.73 46.6097 Q1734.67 48.3111 1737.99 51.4303 Q1741.36 54.509 1741.36 60.0587 Q1741.36 66.3781 1736.33 70.0644 Q1731.35 73.7508 1722.6 73.7508 Q1718.95 73.7508 1714.98 73.0216 Q1711.05 72.3329 1706.68 70.9151 L1706.68 63.2184 Q1710.81 65.3654 1714.82 66.4591 Q1718.83 67.5124 1722.76 67.5124 Q1728.03 67.5124 1730.86 65.73 Q1733.7 63.9071 1733.7 60.6258 Q1733.7 57.5877 1731.63 55.9673 Q1729.61 54.3469 1722.68 52.8481 L1720.09 52.2405 Q1713.16 50.7821 1710.08 47.7845 Q1707 44.7463 1707 39.4801 Q1707 33.0797 1711.54 29.5959 Q1716.08 26.1121 1724.42 26.1121 Q1728.55 26.1121 1732.2 26.7198 Q1735.85 27.3274 1738.93 28.5427 Z" fill="#000000" fill-rule="evenodd" fill-opacity="1" /><path clip-path="url(#clip830)" d="M 0 0 M1771.53 12.096 L1822.7 12.096 L1822.7 18.9825 L1801.23 18.9825 L1801.23 72.576 L1793 72.576 L1793 18.9825 L1771.53 18.9825 L1771.53 12.096 Z" fill="#000000" fill-rule="evenodd" fill-opacity="1" /><path clip-path="url(#clip830)" d="M 0 0 M1827.72 27.2059 L1835.17 27.2059 L1835.17 72.576 L1827.72 72.576 L1827.72 27.2059 M1827.72 9.54393 L1835.17 9.54393 L1835.17 18.9825 L1827.72 18.9825 L1827.72 9.54393 Z" fill="#000000" fill-rule="evenodd" fill-opacity="1" /><path clip-path="url(#clip830)" d="M 0 0 M1886.09 35.9153 Q1888.89 30.8922 1892.78 28.5022 Q1896.67 26.1121 1901.93 26.1121 Q1909.02 26.1121 1912.87 31.0947 Q1916.72 36.0368 1916.72 45.1919 L1916.72 72.576 L1909.23 72.576 L1909.23 45.4349 Q1909.23 38.913 1906.92 35.7533 Q1904.61 32.5936 1899.87 32.5936 Q1894.07 32.5936 1890.71 36.4419 Q1887.35 40.2903 1887.35 46.9338 L1887.35 72.576 L1879.86 72.576 L1879.86 45.4349 Q1879.86 38.8725 1877.55 35.7533 Q1875.24 32.5936 1870.42 32.5936 Q1864.71 32.5936 1861.34 36.4824 Q1857.98 40.3308 1857.98 46.9338 L1857.98 72.576 L1850.49 72.576 L1850.49 27.2059 L1857.98 27.2059 L1857.98 34.2544 Q1860.53 30.082 1864.1 28.0971 Q1867.66 26.1121 1872.56 26.1121 Q1877.51 26.1121 1880.95 28.6237 Q1884.43 31.1352 1886.09 35.9153 Z" fill="#000000" fill-rule="evenodd" fill-opacity="1" /><path clip-path="url(#clip830)" d="M 0 0 M1970.39 48.0275 L1970.39 51.6733 L1936.12 51.6733 Q1936.61 59.3701 1940.74 63.421 Q1944.91 67.4314 1952.33 67.4314 Q1956.62 67.4314 1960.63 66.3781 Q1964.68 65.3249 1968.65 63.2184 L1968.65 70.267 Q1964.64 71.9684 1960.43 72.8596 Q1956.22 73.7508 1951.88 73.7508 Q1941.02 73.7508 1934.66 67.4314 Q1928.35 61.1119 1928.35 50.3365 Q1928.35 39.1965 1934.34 32.6746 Q1940.38 26.1121 1950.58 26.1121 Q1959.74 26.1121 1965.05 32.0264 Q1970.39 37.9003 1970.39 48.0275 M1962.94 45.84 Q1962.86 39.7232 1959.5 36.0774 Q1956.18 32.4315 1950.67 32.4315 Q1944.43 32.4315 1940.66 35.9558 Q1936.93 39.4801 1936.37 45.8805 L1962.94 45.84 Z" fill="#000000" fill-rule="evenodd" fill-opacity="1" /><polyline clip-path="url(#clip832)" style="stroke:#009af9; stroke-width:4; stroke-opacity:1; fill:none" points="
  422.178,1084.88 423.068,1243.8 423.959,1096.26 424.849,1284.01 425.74,1145.91 426.631,945.247 427.521,1087.78 428.412,1289.98 429.302,1175.97 430.193,1225.02 
  431.083,774.858 431.974,1197.13 432.865,1220.34 433.755,1219.35 434.646,1256.38 435.536,1197.72 436.427,1270.33 437.317,1232.95 438.208,1151.16 439.099,1314.71 
  439.989,1254.44 440.88,1201.38 441.77,1290.82 442.661,1293.62 443.551,1274.2 444.442,1245.16 445.333,1147.59 446.223,1318.96 447.114,936.255 448.004,1088.54 
  448.895,1052.7 449.785,1243.84 450.676,1314.46 451.567,948.298 452.457,1243.31 453.348,1275.42 454.238,1232.6 455.129,1292.45 456.019,1239.42 456.91,1026.09 
  457.801,1267.77 458.691,979.855 459.582,1261.28 460.472,1286.25 461.363,1219.29 462.253,1151.08 463.144,999.279 464.035,1224.01 464.925,1228.58 465.816,1254.18 
  466.706,1307.29 467.597,1063.5 468.487,1279.58 469.378,1318.61 470.269,1236.78 471.159,1311.13 472.05,1087.48 472.94,1240.73 473.831,1161.06 474.721,978.769 
  475.612,1174.21 476.503,1193.83 477.393,1293.42 478.284,1042.91 479.174,1267.3 480.065,1235.16 480.955,1149.86 481.846,1255.37 482.737,1114.32 483.627,1314.46 
  484.518,1231.54 485.408,883.22 486.299,1269.78 487.189,1255.75 488.08,1116.18 488.971,1214.35 489.861,1269.92 490.752,1218.37 491.642,1274.38 492.533,1283.91 
  493.423,1306.81 494.314,1319.61 495.205,1220.25 496.095,1208.97 496.986,1266.37 497.876,1233.09 498.767,1222.05 499.657,1281.65 500.548,1271.19 501.439,1303.02 
  502.329,1265.71 503.22,965.575 504.11,1214.91 505.001,1296.85 505.892,1115.77 506.782,1283.97 507.673,1109.84 508.563,1082.08 509.454,1193.29 510.344,1117.21 
  511.235,1177.61 512.126,1301.85 513.016,1182.87 513.907,1047.9 514.797,829.44 515.688,1145.44 516.578,1222.09 517.469,1250.01 518.36,1302.77 519.25,1080.03 
  520.141,896.196 521.031,1171.65 521.922,1119.01 522.812,1226.85 523.703,1268.14 524.594,1254.09 525.484,1178.37 526.375,1246.25 527.265,1139.66 528.156,1169.56 
  529.046,1284.75 529.937,1218.16 530.828,1231.86 531.718,1319.76 532.609,1265.08 533.499,1247.84 534.39,1243.07 535.28,1199.6 536.171,1069.17 537.062,1290.28 
  537.952,1022.25 538.843,1129.03 539.733,1225.73 540.624,1198.85 541.514,1060.23 542.405,629.521 543.296,1254.71 544.186,823.785 545.077,787.359 545.967,1144.87 
  546.858,1294.53 547.748,1176.34 548.639,1243.11 549.53,1240.27 550.42,1311.41 551.311,1316.6 552.201,1092.25 553.092,1236.77 553.982,1220.57 554.873,1202.52 
  555.764,1207 556.654,1108.44 557.545,1090.92 558.435,1073.74 559.326,579.932 560.216,908.287 561.107,1317.48 561.998,1203.53 562.888,1322.76 563.779,1097.12 
  564.669,1270.34 565.56,1058.33 566.45,1141.37 567.341,1318.53 568.232,1172.02 569.122,974.55 570.013,1227.02 570.903,1012.65 571.794,158.463 572.684,704.114 
  573.575,1257.63 574.466,1122.15 575.356,1031.88 576.247,1324.77 577.137,1192.24 578.028,1206.31 578.918,1141.37 579.809,1113 580.7,1276.05 581.59,1079.68 
  582.481,1202.72 583.371,1218.41 584.262,1192.83 585.152,1264.04 586.043,1287.55 586.934,1051.3 587.824,1256.57 588.715,1270.34 589.605,1110.25 590.496,1212.85 
  591.386,1267.2 592.277,1306.2 593.168,1165.68 594.058,1252.01 594.949,1137.68 595.839,1297.98 596.73,1313.69 597.62,1323.35 598.511,1187.63 599.402,1294.16 
  600.292,1322.24 601.183,1253.63 602.073,1321.25 602.964,1071.4 603.854,985.047 604.745,707.229 605.636,941.091 606.526,1113.74 607.417,1280.25 608.307,1168.41 
  609.198,1302.31 610.088,1319.16 610.979,1263.89 611.87,1085.59 612.76,1299.88 613.651,1263.58 614.541,1172.26 615.432,1197.39 616.322,1280.15 617.213,1215.79 
  618.104,1293.34 618.994,1246.5 619.885,1229.3 620.775,1324.05 621.666,1312.21 622.556,1203.19 623.447,1200.64 624.338,1252.72 625.228,1271.03 626.119,1287.51 
  627.009,1080.65 627.9,1159.42 628.79,1311.24 629.681,1285.64 630.572,1217.84 631.462,1282.96 632.353,1019.43 633.243,1157.09 634.134,935.267 635.024,684.58 
  635.915,1268.94 636.806,1287.26 637.696,1189.24 638.587,1266.94 639.477,1306.35 640.368,991.039 641.258,1158.97 642.149,1261.49 643.04,1188.7 643.93,993.337 
  644.821,1256.15 645.711,1203.48 646.602,1207.07 647.492,1211.17 648.383,1320.01 649.274,1300.06 650.164,1224.64 651.055,1255.73 651.945,904.871 652.836,917.675 
  653.726,1189.18 654.617,1102.99 655.508,1159.3 656.398,1179.86 657.289,773.619 658.179,1269.93 659.07,1319.22 659.96,1047.26 660.851,1308.27 661.742,1058.78 
  662.632,1045 663.523,1166.01 664.413,978.473 665.304,1044.43 666.194,1063.17 667.085,966.809 667.976,904.909 668.866,1208.53 669.757,871.157 670.647,1211.28 
  671.538,1270.62 672.428,1224.97 673.319,1324.83 674.21,1238.02 675.1,1222.53 675.991,1320.7 676.881,1015.86 677.772,1054.13 678.662,1198.99 679.553,795.483 
  680.444,1117.97 681.334,1126.52 682.225,1086.29 683.115,1048.92 684.006,1304.3 684.896,836.871 685.787,1119.57 686.678,1235.62 687.568,748.489 688.459,1194.97 
  689.349,1305.55 690.24,1246.72 691.13,1186.85 692.021,1309.06 692.912,1231.76 693.802,1048.63 694.693,1112.33 695.583,1299.49 696.474,1003.87 697.364,1146.55 
  698.255,1034.5 699.146,1246.82 700.036,1095.88 700.927,1277.06 701.817,853.182 702.708,765.014 703.598,918.326 704.489,1184.96 705.38,1299.54 706.27,1315.73 
  707.161,1302.9 708.051,1145.49 708.942,850.495 709.832,1178.42 710.723,1135.32 711.614,1054.37 712.504,1231.85 713.395,1305.78 714.285,1207.12 715.176,1000.57 
  716.066,1287.84 716.957,1292.02 717.848,1318.68 718.738,1312.82 719.629,960.703 720.519,1175.4 721.41,1057.62 722.3,1243.03 723.191,1221.02 724.082,1039.04 
  724.972,1273.31 725.863,1314.35 726.753,1206.86 727.644,1287.04 728.534,1261.57 729.425,1210.18 730.316,1264.39 731.206,1313.37 732.097,1298.97 732.987,1319.63 
  733.878,1204.36 734.768,1314.04 735.659,1279.02 736.55,1178.46 737.44,1303.68 738.331,1306.43 739.221,1289.8 740.112,1214.89 741.002,1256.6 741.893,1290.84 
  742.784,882.118 743.674,1270.52 744.565,1314.06 745.455,1258.29 746.346,1304.64 747.236,1221.5 748.127,1246.21 749.018,1078.27 749.908,1303.53 750.799,1214.93 
  751.689,1210.09 752.58,1191.43 753.47,756.638 754.361,999.548 755.252,1129.37 756.142,867.829 757.033,1243.2 757.923,1193.52 758.814,1048.1 759.705,1089.91 
  760.595,1047.75 761.486,1047.73 762.376,1297.66 763.267,1236.44 764.157,902.77 765.048,1184.32 765.939,1316.43 766.829,1282.23 767.72,1306.28 768.61,1238.45 
  769.501,1290.28 770.391,1183.46 771.282,1273.62 772.173,1309.89 773.063,1272.75 773.954,1072.64 774.844,1299.87 775.735,1213.62 776.625,984.175 777.516,1261.87 
  778.407,1217.83 779.297,988.041 780.188,1298.38 781.078,1229.8 781.969,1140.85 782.859,965.496 783.75,1180.65 784.641,1269.56 785.531,1321.27 786.422,1086.42 
  787.312,1114.88 788.203,1270.25 789.093,1150.5 789.984,981.828 790.875,1272.39 791.765,1236.47 792.656,1110.59 793.546,1319.66 794.437,1300.7 795.327,1229.28 
  796.218,1314.04 797.109,1308.12 797.999,1318.29 798.89,1274.41 799.78,1224.45 800.671,1229.15 801.561,1224.07 802.452,1258.1 803.343,1098.03 804.233,1214.26 
  805.124,1075.01 806.014,1190.91 806.905,1262.28 807.795,1247.07 808.686,1267.76 809.577,1294.21 810.467,1271.97 811.358,664.004 812.248,959.299 813.139,1262.43 
  814.029,1292.45 814.92,918.653 815.811,1309.72 816.701,1236.47 817.592,1124.47 818.482,1222.69 819.373,1236.27 820.263,1293.38 821.154,1227.11 822.045,1111.38 
  822.935,1296.49 823.826,1217.42 824.716,1062.65 825.607,1321.81 826.497,1216.6 827.388,1289.38 828.279,1198.92 829.169,1211.22 830.06,1222.18 830.95,1201.93 
  831.841,1294.18 832.731,1085.2 833.622,1310.87 834.513,1013.17 835.403,1177.36 836.294,1267.13 837.184,1222.34 838.075,1293.35 838.965,1211.54 839.856,1215.86 
  840.747,1270.95 841.637,1309.4 842.528,1302.61 843.418,1010.49 844.309,507.181 845.199,1049.32 846.09,1298.21 846.981,1253.2 847.871,1068.26 848.762,1283.4 
  849.652,1281.11 850.543,1243.56 851.433,1273.68 852.324,1273.39 853.215,1277.52 854.105,1279.58 854.996,1303.06 855.886,1237.28 856.777,1175.33 857.667,1115.62 
  858.558,1312.48 859.449,1117.68 860.339,1225.48 861.23,1279.27 862.12,1280.63 863.011,1275.4 863.901,1286.87 864.792,1307.79 865.683,1296.46 866.573,1202.93 
  867.464,1153.25 868.354,1258.29 869.245,1136.4 870.135,1184.35 871.026,1322.81 871.917,1322.81 872.807,1084.6 873.698,1172.72 874.588,1290.48 875.479,972.521 
  876.369,763.285 877.26,766.757 878.151,1259.39 879.041,1266.68 879.932,1243.85 880.822,1255.76 881.713,1309.38 882.603,1169.03 883.494,1298.76 884.385,1279.48 
  885.275,1268.49 886.166,1275.03 887.056,1182.96 887.947,1188.37 888.837,1225.39 889.728,1197.06 890.619,1071.81 891.509,1213.55 892.4,988.901 893.29,1295.74 
  894.181,1095.57 895.071,1273.6 895.962,1129.25 896.853,1082.4 897.743,1114.65 898.634,1217.26 899.524,1216.1 900.415,1177.49 901.305,1316.32 902.196,1308.76 
  903.087,1312.03 903.977,1232.99 904.868,1277.08 905.758,1282.6 906.649,1264.64 907.539,1179.8 908.43,1290.78 909.321,1283.91 910.211,1322.15 911.102,1191.45 
  911.992,1282.45 912.883,1275.09 913.773,998.708 914.664,1244.69 915.555,1150.96 916.445,931.888 917.336,1292.38 918.226,1299.33 919.117,1267.23 920.007,1147.74 
  920.898,1301.43 921.789,1091.49 922.679,1251.95 923.57,1284.89 924.46,1052.51 925.351,1134.14 926.241,1291.52 927.132,1154.17 928.023,663.813 928.913,820.485 
  929.804,1301.75 930.694,1321.45 931.585,1224.32 932.475,1100.71 933.366,1249.91 934.257,1300.57 935.147,1099.71 936.038,1224.52 936.928,1274.03 937.819,1169.69 
  938.709,1249.69 939.6,1162.96 940.491,1082.49 941.381,1322.76 942.272,1239.75 943.162,1187.49 944.053,1221.87 944.943,1296.05 945.834,1256.16 946.725,1246.62 
  947.615,1058.15 948.506,1172.46 949.396,1219.43 950.287,1252.71 951.177,1246.6 952.068,1256.29 952.959,1150.07 953.849,869.002 954.74,1011.33 955.63,1226.92 
  956.521,1283.82 957.411,1306.32 958.302,1205.85 959.193,1300.43 960.083,960.389 960.974,754.446 961.864,1240.55 962.755,1293.88 963.645,1275.06 964.536,1215.99 
  965.427,1302.96 966.317,1307.23 967.208,1315.53 968.098,1298.59 968.989,1188.23 969.879,1242.73 970.77,1291.51 971.661,1269.67 972.551,1311.41 973.442,1246.16 
  974.332,1143.21 975.223,1301.36 976.113,1276.28 977.004,1304.14 977.895,1265.87 978.785,1290.23 979.676,1239.63 980.566,1199.84 981.457,1200.89 982.347,1303.1 
  983.238,1119.78 984.129,1192.86 985.019,1267.62 985.91,1088.96 986.8,967.701 987.691,1228.33 988.581,1114.27 989.472,1015.16 990.363,987.57 991.253,1231.52 
  992.144,806.115 993.034,1247.49 993.925,1175.49 994.815,1301.76 995.706,1250.16 996.597,1233.44 997.487,1214.58 998.378,1270.16 999.268,1178.99 1000.16,987.21 
  1001.05,1148.1 1001.94,1298.97 1002.83,1292.47 1003.72,1252.21 1004.61,1208.63 1005.5,1232.63 1006.39,1225.37 1007.28,1323.07 1008.17,1033.02 1009.06,765.394 
  1009.96,1026.53 1010.85,987 1011.74,1303.17 1012.63,1312.14 1013.52,1189.8 1014.41,1282.63 1015.3,1296.07 1016.19,1210.42 1017.08,1253.14 1017.97,901.43 
  1018.86,892.495 1019.75,1313.84 1020.64,1251.88 1021.53,1288.97 1022.42,1235 1023.31,1275.33 1024.2,906.306 1025.09,1288.29 1025.99,1232.95 1026.88,1202.51 
  1027.77,1296.33 1028.66,1277.37 1029.55,1322.78 1030.44,1262.52 1031.33,1320.79 1032.22,1296.62 1033.11,1077.81 1034,1069.77 1034.89,1245.11 1035.78,1136.37 
  1036.67,1127.65 1037.56,954.515 1038.45,1176.41 1039.34,994.34 1040.23,1018.9 1041.13,1292.94 1042.02,1244.35 1042.91,1299.58 1043.8,1247.04 1044.69,1266.54 
  1045.58,1224.5 1046.47,1152.98 1047.36,1271.45 1048.25,1287.15 1049.14,1290.1 1050.03,829.028 1050.92,1090.84 1051.81,1084.43 1052.7,1264.42 1053.59,1274.52 
  1054.48,1159.29 1055.37,1257.89 1056.26,1313.13 1057.16,1221.56 1058.05,1276.95 1058.94,1287.22 1059.83,1269.56 1060.72,1137.47 1061.61,1174.04 1062.5,1161.88 
  1063.39,1288.4 1064.28,1233.69 1065.17,950.047 1066.06,1109.31 1066.95,1227.71 1067.84,1112.92 1068.73,1318.06 1069.62,1321.71 1070.51,1212.55 1071.4,1168.2 
  1072.3,1304.86 1073.19,1190.52 1074.08,1132.97 1074.97,1163.31 1075.86,1309.53 1076.75,1248.79 1077.64,1289.65 1078.53,1231.89 1079.42,1287.03 1080.31,1305.37 
  1081.2,1279.16 1082.09,1127.6 1082.98,1256.81 1083.87,1164.42 1084.76,988.094 1085.65,1214.15 1086.54,1261.79 1087.43,1183.41 1088.33,1270.92 1089.22,1254.29 
  1090.11,1136.06 1091,1315.79 1091.89,1172.07 1092.78,1269.83 1093.67,1316.04 1094.56,1273.58 1095.45,1313.9 1096.34,1236.83 1097.23,1087.77 1098.12,1316.48 
  1099.01,1127.04 1099.9,1265.12 1100.79,1309.62 1101.68,1200.44 1102.57,1313.18 1103.47,1228.75 1104.36,995.603 1105.25,1105.84 1106.14,1311.12 1107.03,606.109 
  1107.92,1253.71 1108.81,970.413 1109.7,1297.53 1110.59,1245.56 1111.48,1249.41 1112.37,1318.51 1113.26,1270.81 1114.15,1320.83 1115.04,1314.02 1115.93,1215.18 
  1116.82,1046.47 1117.71,862.599 1118.6,976.874 1119.5,1087.41 1120.39,1055.75 1121.28,1014.89 1122.17,1304.26 1123.06,1307.62 1123.95,1291.21 1124.84,1274.28 
  1125.73,1297.83 1126.62,1264.86 1127.51,1312.55 1128.4,1280.37 1129.29,1248.23 1130.18,1168.37 1131.07,1265.76 1131.96,1243.84 1132.85,1159.28 1133.74,1183.18 
  1134.64,626.005 1135.53,1115.22 1136.42,1070.35 1137.31,1217.14 1138.2,1231.66 1139.09,1102.5 1139.98,1321.45 1140.87,1133.99 1141.76,1309.23 1142.65,1296.65 
  1143.54,1230.9 1144.43,1290.84 1145.32,1036.67 1146.21,1316.18 1147.1,1318.23 1147.99,1160.15 1148.88,1311.41 1149.78,1308.89 1150.67,1292.09 1151.56,1289.5 
  1152.45,1253.14 1153.34,1254.39 1154.23,1234.34 1155.12,1250.86 1156.01,1248.26 1156.9,1225.5 1157.79,1156.95 1158.68,995.84 1159.57,1077.77 1160.46,1273.96 
  1161.35,879.852 1162.24,1100.67 1163.13,1010.36 1164.02,1238.98 1164.91,1146.04 1165.81,1316.83 1166.7,1007.54 1167.59,1148.79 1168.48,1164.15 1169.37,1057.63 
  1170.26,1142.77 1171.15,1194.57 1172.04,1296.57 1172.93,1299.9 1173.82,1210.36 1174.71,1268.69 1175.6,1302.32 1176.49,1309.6 1177.38,1142.14 1178.27,1194.15 
  1179.16,1192.99 1180.05,1179.26 1180.95,1245.08 1181.84,1310.58 1182.73,1236.09 1183.62,1308.54 1184.51,1289.54 1185.4,1268.32 1186.29,1217.64 1187.18,1286.2 
  1188.07,1283.25 1188.96,724.528 1189.85,1266.02 1190.74,1243.01 1191.63,1117.44 1192.52,1155.89 1193.41,1068.91 1194.3,1297.4 1195.19,1130.6 1196.08,1223.79 
  1196.98,1244.25 1197.87,1247.01 1198.76,1282.31 1199.65,890.257 1200.54,1201.86 1201.43,1108.2 1202.32,1071.17 1203.21,1138.14 1204.1,1216.97 1204.99,1072.4 
  1205.88,1256.7 1206.77,1313.81 1207.66,1112.43 1208.55,1322.6 1209.44,1316.36 1210.33,1314.06 1211.22,1262.03 1212.12,1287.28 1213.01,1137.77 1213.9,933.59 
  1214.79,1172.23 1215.68,1283 1216.57,1306.46 1217.46,1324.54 1218.35,1235.68 1219.24,1146.81 1220.13,1306.12 1221.02,1227.83 1221.91,1306.11 1222.8,1028.43 
  1223.69,1174.09 1224.58,1063.66 1225.47,318.219 1226.36,1181.28 1227.25,1118.58 1228.15,1288 1229.04,1265.81 1229.93,1050.46 1230.82,1290.21 1231.71,921.867 
  1232.6,828.345 1233.49,1134.31 1234.38,1312.85 1235.27,1302.7 1236.16,1316.18 1237.05,1226.91 1237.94,1324.65 1238.83,1136.1 1239.72,1141.37 1240.61,1274.08 
  1241.5,1059.48 1242.39,1000.27 1243.29,1147.13 1244.18,847.605 1245.07,846.986 1245.96,1319.87 1246.85,1130.64 1247.74,1277.09 1248.63,1123.62 1249.52,910.193 
  1250.41,923.729 1251.3,1219.65 1252.19,1164.82 1253.08,900.241 1253.97,1269.01 1254.86,885.16 1255.75,1037.08 1256.64,1118.45 1257.53,1098.66 1258.42,1121.06 
  1259.32,811.345 1260.21,1261.83 1261.1,1258.88 1261.99,767.029 1262.88,1143.76 1263.77,1304.43 1264.66,985.499 1265.55,1234.95 1266.44,1292.26 1267.33,1137.02 
  1268.22,1172.79 1269.11,1255.28 1270,998.962 1270.89,1064.74 1271.78,1252.7 1272.67,1149.41 1273.56,1311.53 1274.46,1249.5 1275.35,1292.37 1276.24,1244.74 
  1277.13,1308.98 1278.02,1170.96 1278.91,1291.92 1279.8,1323.58 1280.69,1115.32 1281.58,871.323 1282.47,1105.35 1283.36,1048.6 1284.25,896.403 1285.14,1097.77 
  1286.03,971.541 1286.92,1312.29 1287.81,1291.59 1288.7,1264.88 1289.59,1222.23 1290.49,1197.38 1291.38,1117.33 1292.27,1169.81 1293.16,1315.97 1294.05,1022.25 
  1294.94,1199.74 1295.83,1209.29 1296.72,1109.38 1297.61,1300.51 1298.5,1272.91 1299.39,1240.29 1300.28,1242.32 1301.17,1109.66 1302.06,1053.3 1302.95,1272.45 
  1303.84,1232.31 1304.73,1159.47 1305.63,1223.78 1306.52,1306.8 1307.41,1302.09 1308.3,1162.8 1309.19,1170.44 1310.08,1052.01 1310.97,1040.87 1311.86,1294.97 
  1312.75,1183.12 1313.64,1266.54 1314.53,1306.05 1315.42,970.832 1316.31,1232.08 1317.2,1274.48 1318.09,993.03 1318.98,1243.78 1319.87,1003.74 1320.76,1101.55 
  1321.66,1073.96 1322.55,1059.34 1323.44,1283.26 1324.33,1261.24 1325.22,1296.77 1326.11,1182.95 1327,1235.41 1327.89,1318.35 1328.78,1281.94 1329.67,1313.29 
  1330.56,1293.33 1331.45,1313.53 1332.34,1319.65 1333.23,1269.27 1334.12,1290.93 1335.01,1262.21 1335.9,1223.6 1336.8,1305.9 1337.69,1289.88 1338.58,1197.9 
  1339.47,1260.9 1340.36,1317.92 1341.25,1196.7 1342.14,1164.28 1343.03,1223.08 1343.92,1308.67 1344.81,1093.13 1345.7,1138.29 1346.59,1140.52 1347.48,1134.26 
  1348.37,1318.79 1349.26,1147.78 1350.15,1189.21 1351.04,1262.05 1351.93,778.636 1352.83,1206.86 1353.72,1224.19 1354.61,814.413 1355.5,1218.6 1356.39,1223.84 
  1357.28,648.645 1358.17,1131.01 1359.06,1256.86 1359.95,1283.95 1360.84,1274.58 1361.73,1258.05 1362.62,997.537 1363.51,1112.18 1364.4,1035.3 1365.29,970.529 
  1366.18,1043.54 1367.07,1180.88 1367.97,1311.63 1368.86,1300.7 1369.75,1259.13 1370.64,1183.19 1371.53,1280.66 1372.42,1162.03 1373.31,1156.53 1374.2,433.929 
  1375.09,1133.33 1375.98,1315.14 1376.87,1008.56 1377.76,1310.46 1378.65,1268.22 1379.54,808.78 1380.43,1096.99 1381.32,1254.26 1382.21,1049.24 1383.1,1252 
  1384,1314.02 1384.89,1292.22 1385.78,1272.6 1386.67,1258.97 1387.56,1252.79 1388.45,1192.29 1389.34,1096.66 1390.23,1087.55 1391.12,1217.78 1392.01,1159.8 
  1392.9,1177.89 1393.79,763.201 1394.68,1094.41 1395.57,1090.16 1396.46,1051.02 1397.35,1268.77 1398.24,1299.5 1399.14,1297.9 1400.03,1323.06 1400.92,1300.72 
  1401.81,1049.71 1402.7,1272.17 1403.59,1293.76 1404.48,1293.49 1405.37,1104.35 1406.26,829.97 1407.15,985.042 1408.04,1189.97 1408.93,1096.5 1409.82,1011.03 
  1410.71,969.969 1411.6,1252.18 1412.49,1293.87 1413.38,1149.72 1414.27,1250.25 1415.17,1236 1416.06,1292.17 1416.95,1307.23 1417.84,1160.77 1418.73,1124.95 
  1419.62,1063.26 1420.51,1320.56 1421.4,1201.81 1422.29,1173.71 1423.18,1155.38 1424.07,1211.19 1424.96,1293.18 1425.85,1307.4 1426.74,1288.47 1427.63,1265.27 
  1428.52,1292.67 1429.41,1266.88 1430.31,1160.08 1431.2,1276.65 1432.09,1264.16 1432.98,1211.92 1433.87,1242.89 1434.76,1244.31 1435.65,1181.43 1436.54,1020.51 
  1437.43,1280.98 1438.32,1252.47 1439.21,1108.08 1440.1,1308.04 1440.99,1231.93 1441.88,464.779 1442.77,1010.36 1443.66,1296.37 1444.55,1218.5 1445.44,1299.14 
  1446.34,1305.48 1447.23,1310.12 1448.12,1251.02 1449.01,1205.01 1449.9,1265.01 1450.79,1319.18 1451.68,1274.25 1452.57,1299.49 1453.46,1065.34 1454.35,1113.96 
  1455.24,1292.99 1456.13,1319.59 1457.02,1146.49 1457.91,1202.97 1458.8,1314.23 1459.69,979.131 1460.58,1240.9 1461.48,1285.31 1462.37,1286.41 1463.26,1258.28 
  1464.15,1119.26 1465.04,828.012 1465.93,1300.66 1466.82,1305.17 1467.71,1272.01 1468.6,1292.84 1469.49,1125.9 1470.38,942.314 1471.27,1312.61 1472.16,1216.64 
  1473.05,1313.14 1473.94,980.005 1474.83,1156.13 1475.72,893.914 1476.61,1249.46 1477.51,1294.05 1478.4,1184.13 1479.29,1322.79 1480.18,1318.04 1481.07,1301.76 
  1481.96,1319.87 1482.85,1321.79 1483.74,1292.88 1484.63,1242.84 1485.52,1306.02 1486.41,1172.35 1487.3,1168.48 1488.19,1278.27 1489.08,1018.99 1489.97,1035.37 
  1490.86,567.057 1491.75,1303.8 1492.65,1206.12 1493.54,939.709 1494.43,898.614 1495.32,936.32 1496.21,1282.49 1497.1,1269.61 1497.99,935.918 1498.88,1195.93 
  1499.77,1064.46 1500.66,1193.29 1501.55,1114.92 1502.44,1208.59 1503.33,1298.98 1504.22,1189.41 1505.11,1309.4 1506,1311.72 1506.89,1233.15 1507.78,1294.51 
  1508.68,1301.2 1509.57,1121.32 1510.46,1198.59 1511.35,1272.44 1512.24,1304.6 1513.13,1299.33 1514.02,1179.73 1514.91,1079.69 1515.8,875.101 1516.69,1145.7 
  1517.58,1308.43 1518.47,1214.98 1519.36,1290.48 1520.25,1152.91 1521.14,1036.6 1522.03,710.377 1522.92,1015.5 1523.82,1296.33 1524.71,1200.97 1525.6,1089.33 
  1526.49,1150.2 1527.38,1068.39 1528.27,1200.1 1529.16,1323.16 1530.05,1250.61 1530.94,1315.4 1531.83,842.055 1532.72,1239.85 1533.61,1286.79 1534.5,1065.03 
  1535.39,1234.43 1536.28,1299.37 1537.17,1201.84 1538.06,1304.75 1538.95,1298.6 1539.85,1311.87 1540.74,1315.97 1541.63,1305.29 1542.52,1254.13 1543.41,1197.86 
  1544.3,1312.03 1545.19,921.213 1546.08,1180.75 1546.97,1290.46 1547.86,1262.41 1548.75,1200.3 1549.64,1144.85 1550.53,1263.1 1551.42,947.326 1552.31,1278.09 
  1553.2,1084.84 1554.09,976.815 1554.99,1094.67 1555.88,1235.1 1556.77,996.781 1557.66,1218.04 1558.55,1025.31 1559.44,1260.62 1560.33,1324.47 1561.22,1302.26 
  1562.11,1275.83 1563,1248.23 1563.89,1175.12 1564.78,1320.23 1565.67,1296.99 1566.56,1241.58 1567.45,1157.46 1568.34,1196.22 1569.23,1290 1570.12,1106.69 
  1571.02,1206.29 1571.91,1311.36 1572.8,1296.19 1573.69,1281.6 1574.58,1323.62 1575.47,1286.87 1576.36,1181.52 1577.25,1225.11 1578.14,1257.79 1579.03,1315.81 
  1579.92,1218.46 1580.81,1092.21 1581.7,1127.98 1582.59,1299 1583.48,973.507 1584.37,1060.79 1585.26,1173.17 1586.16,1117.09 1587.05,1261.47 1587.94,1306.28 
  1588.83,1182.4 1589.72,1321.52 1590.61,1135.65 1591.5,1138.71 1592.39,1289.37 1593.28,1233.14 1594.17,1167.65 1595.06,1239.83 1595.95,1253.82 1596.84,1303.21 
  1597.73,1091 1598.62,828.863 1599.51,993.265 1600.4,1104.97 1601.29,807.153 1602.19,1218.28 1603.08,1276.12 1603.97,1324.47 1604.86,1316.77 1605.75,1113.21 
  1606.64,979.591 1607.53,998.868 1608.42,1247.12 1609.31,1215.83 1610.2,1157.19 1611.09,1181.89 1611.98,1238.99 1612.87,1080.64 1613.76,1322.42 1614.65,1197.12 
  1615.54,1238.38 1616.43,1035.51 1617.33,1271.1 1618.22,1303.16 1619.11,1213.58 1620,1116.75 1620.89,1321 1621.78,1258.51 1622.67,1208.32 1623.56,1311.72 
  1624.45,1317.75 1625.34,1277.52 1626.23,1266.52 1627.12,1278.85 1628.01,1289.79 1628.9,1292.5 1629.79,1305.87 1630.68,1196.63 1631.57,1322.82 1632.46,1286.01 
  1633.36,1309.39 1634.25,1315.84 1635.14,1203.36 1636.03,1304.86 1636.92,1162.6 1637.81,1270.08 1638.7,1230.67 1639.59,1317.21 1640.48,1206.36 1641.37,1293.17 
  1642.26,1312.21 1643.15,1314.31 1644.04,1318.87 1644.93,948.954 1645.82,1288.38 1646.71,1165.21 1647.6,1228.25 1648.5,1134.16 1649.39,1062.43 1650.28,1319.38 
  1651.17,1303.83 1652.06,1217.62 1652.95,1257.98 1653.84,1285.12 1654.73,1265.38 1655.62,1283.61 1656.51,1293.02 1657.4,1319.68 1658.29,975.552 1659.18,951.831 
  1660.07,1285.03 1660.96,1293.93 1661.85,1284.54 1662.74,1281.27 1663.64,1098.52 1664.53,522.205 1665.42,1111.46 1666.31,932.115 1667.2,1057.07 1668.09,1114.5 
  1668.98,1316.69 1669.87,1236.37 1670.76,1225.06 1671.65,1310.68 1672.54,1200.72 1673.43,1302.8 1674.32,1246.36 1675.21,1232.2 1676.1,1294.46 1676.99,1286.67 
  1677.88,1078.65 1678.77,1229.14 1679.67,1266.65 1680.56,1263.45 1681.45,1066.46 1682.34,1019.85 1683.23,987.566 1684.12,1295.45 1685.01,1260.3 1685.9,1269.28 
  1686.79,1311.31 1687.68,1298.76 1688.57,1311.7 1689.46,1296.93 1690.35,1323.97 1691.24,1233.95 1692.13,1196.75 1693.02,1306.97 1693.91,1069.07 1694.81,1069.85 
  1695.7,1294.07 1696.59,1129.94 1697.48,974.592 1698.37,1226.33 1699.26,1196.49 1700.15,1278.06 1701.04,1305 1701.93,1220.93 1702.82,1226.81 1703.71,1236.13 
  1704.6,1242.66 1705.49,1185.27 1706.38,1188.09 1707.27,1047.67 1708.16,1260.88 1709.05,1233.72 1709.94,1255.24 1710.84,1151.03 1711.73,1260.63 1712.62,1262.27 
  1713.51,1166.39 1714.4,1114.17 1715.29,1179.27 1716.18,1234.38 1717.07,1274.3 1717.96,1315.24 1718.85,1160.77 1719.74,1004.12 1720.63,717.522 1721.52,1084.74 
  1722.41,1307.35 1723.3,1169.34 1724.19,1304.67 1725.08,1260.53 1725.98,1261.19 1726.87,826.333 1727.76,1206.67 1728.65,1264.59 1729.54,960.389 1730.43,1230.4 
  1731.32,1176.63 1732.21,1309.22 1733.1,1295.12 1733.99,1172.22 1734.88,1294.5 1735.77,1310.99 1736.66,1296.09 1737.55,1317.13 1738.44,1320.89 1739.33,1247.2 
  1740.22,1311.56 1741.11,1171.84 1742.01,1312.21 1742.9,1305.59 1743.79,1183.93 1744.68,1297.82 1745.57,1289.56 1746.46,1219.48 1747.35,1310.06 1748.24,1131.45 
  1749.13,1298.27 1750.02,865.733 1750.91,650.576 1751.8,1241.36 1752.69,1304.66 1753.58,1274.82 1754.47,1037.3 1755.36,1139.94 1756.25,1145.65 1757.15,1085.08 
  1758.04,1279.11 1758.93,1185.56 1759.82,1242.55 1760.71,1198.67 1761.6,694.135 1762.49,1093.68 1763.38,1238.34 1764.27,1286.16 1765.16,1324.69 1766.05,749.31 
  1766.94,1276.78 1767.83,1266.7 1768.72,1232.7 1769.61,1260.53 1770.5,1265.99 1771.39,1157.94 1772.28,978.803 1773.18,1208.84 1774.07,1316.09 1774.96,1112.65 
  1775.85,1178.11 1776.74,1316.86 1777.63,1313.02 1778.52,1292.94 1779.41,1297.6 1780.3,1307.96 1781.19,1293.07 1782.08,1281.41 1782.97,1264.51 1783.86,1260.7 
  1784.75,674.837 1785.64,1324.63 1786.53,1208.07 1787.42,686.363 1788.32,1179.15 1789.21,1303.31 1790.1,1135.41 1790.99,983.86 1791.88,1059.73 1792.77,1279.96 
  1793.66,1165.78 1794.55,1060.04 1795.44,1171.53 1796.33,1314.2 1797.22,1214.68 1798.11,607.62 1799,1198.68 1799.89,1264.62 1800.78,1266.88 1801.67,1292.65 
  1802.56,1183.54 1803.45,1223.45 1804.35,928.103 1805.24,1196.12 1806.13,1088.29 1807.02,1232.01 1807.91,1259.56 1808.8,1271.33 1809.69,1296.96 1810.58,1262.59 
  1811.47,1260.83 1812.36,1241.46 1813.25,1292.43 1814.14,1111.02 1815.03,1254.63 1815.92,1053.29 1816.81,881.925 1817.7,1075.19 1818.59,1184.89 1819.49,1060.26 
  1820.38,1316.88 1821.27,1288.58 1822.16,1128.5 1823.05,1239.51 1823.94,685.192 1824.83,1284.05 1825.72,960.07 1826.61,1289.89 1827.5,1313.22 1828.39,1233.86 
  1829.28,1234.18 1830.17,1115.71 1831.06,1214.45 1831.95,1191.55 1832.84,1246.46 1833.73,1296.44 1834.62,1274.32 1835.52,1308.25 1836.41,1316.86 1837.3,1294.58 
  1838.19,1302.88 1839.08,1292.67 1839.97,1311.59 1840.86,1225.4 1841.75,1304.51 1842.64,1295.93 1843.53,1241.8 1844.42,1222.15 1845.31,1246.58 1846.2,979.673 
  1847.09,496.468 1847.98,1191.22 1848.87,1310.44 1849.76,1298.36 1850.66,1304.46 1851.55,1297.15 1852.44,1268.45 1853.33,1253.15 1854.22,1314.63 1855.11,1154.81 
  1856,587.179 1856.89,1074.64 1857.78,1199.97 1858.67,1165.81 1859.56,1227.34 1860.45,1074.7 1861.34,1313.31 1862.23,1322.54 1863.12,1175.68 1864.01,1222.74 
  1864.9,1311.71 1865.79,1292.18 1866.69,1251.79 1867.58,1296.82 1868.47,1267.23 1869.36,1117.72 1870.25,1188.71 1871.14,1180.88 1872.03,904.368 1872.92,1124.33 
  1873.81,1295.87 1874.7,1078.37 1875.59,1148.61 1876.48,1262.68 1877.37,1184.76 1878.26,1157.12 1879.15,1247.86 1880.04,1186.78 1880.93,1215.42 1881.83,1306.75 
  1882.72,961.79 1883.61,1187.63 1884.5,1255.68 1885.39,1161.52 1886.28,1318.58 1887.17,1262.36 1888.06,1175.97 1888.95,1203.42 1889.84,1245.24 1890.73,1277.35 
  1891.62,1283.32 1892.51,1247.3 1893.4,1324.4 1894.29,1323.7 1895.18,1324.42 1896.07,1286.53 1896.96,1310.06 1897.86,1306.91 1898.75,1088.76 1899.64,1119.74 
  1900.53,1291.47 1901.42,1000.56 1902.31,1230.42 1903.2,1115.46 1904.09,1028.15 1904.98,1076.92 1905.87,1279.57 1906.76,1255.83 1907.65,1209.91 1908.54,1177.85 
  1909.43,1180.48 1910.32,1214.93 1911.21,1282.19 1912.1,875.349 1913,1247.55 1913.89,1280.52 1914.78,919.911 1915.67,1309.11 1916.56,1220.4 1917.45,1212.77 
  1918.34,1316.56 1919.23,978.793 1920.12,1101.54 1921.01,1316.84 1921.9,1095.8 1922.79,1266.47 1923.68,1235.29 1924.57,932.269 1925.46,1151.32 1926.35,1229.61 
  1927.24,1270.53 1928.13,1216.56 1929.03,1298.49 1929.92,1268.53 1930.81,1247.83 1931.7,1270.98 1932.59,1250.77 1933.48,1078.23 1934.37,1235.69 1935.26,1218.32 
  1936.15,996.671 1937.04,719.128 1937.93,1260.92 1938.82,1130.53 1939.71,817.142 1940.6,1043.83 1941.49,1294.31 1942.38,923.276 1943.27,1292.29 1944.17,1258.37 
  1945.06,1260.93 1945.95,1281.42 1946.84,1293.28 1947.73,1226.58 1948.62,1221.61 1949.51,1146.59 1950.4,1195.95 1951.29,1280.3 1952.18,1195.31 1953.07,1197.65 
  1953.96,1043.03 1954.85,716.196 1955.74,542.187 1956.63,1217.89 1957.52,1147.44 1958.41,1175.26 1959.3,1288.23 1960.2,1299.36 1961.09,947.427 1961.98,1238.47 
  1962.87,1264.05 1963.76,1067.18 1964.65,1282.12 1965.54,1166.64 1966.43,1071.99 1967.32,1171.17 1968.21,1288.94 1969.1,990.655 1969.99,1247.01 1970.88,1138.98 
  1971.77,710.377 1972.66,768.005 1973.55,1145.21 1974.44,1257.82 1975.34,1126.33 1976.23,1266.98 1977.12,1221.31 1978.01,1269.84 1978.9,1256.06 1979.79,1265.41 
  1980.68,1276.95 1981.57,1170.69 1982.46,1312.45 1983.35,1312.61 1984.24,1258.25 1985.13,1260.13 1986.02,1309.48 1986.91,1229.53 1987.8,1303.01 1988.69,1304.96 
  1989.58,1203.94 1990.47,1245.66 1991.37,1201.4 1992.26,1229.5 1993.15,1298.15 1994.04,1305.99 1994.93,1137.56 1995.82,1229.57 1996.71,1019.15 1997.6,1289.42 
  1998.49,1139.65 1999.38,1157.44 2000.27,1077.41 2001.16,1152.77 2002.05,1306.27 2002.94,1315.02 2003.83,1095.21 2004.72,1056.55 2005.61,1227.1 2006.51,1247.55 
  2007.4,1261.29 2008.29,1309.81 2009.18,1310.77 2010.07,1298.22 2010.96,1220.4 2011.85,1238.11 2012.74,1082.51 2013.63,1263.57 2014.52,1274.92 2015.41,1111.69 
  2016.3,1200.2 2017.19,1272.72 2018.08,1266.85 2018.97,1218.51 2019.86,1244.78 2020.75,961.647 2021.64,926.681 2022.54,1157.86 2023.43,1175.17 2024.32,1110.8 
  2025.21,1320.07 2026.1,1203.65 2026.99,978.178 2027.88,1206.25 2028.77,1226.71 2029.66,969.271 2030.55,1095.07 2031.44,1240.68 2032.33,961.91 2033.22,1035.49 
  2034.11,1178.52 2035,938.798 2035.89,1285.46 2036.78,1313.72 2037.68,1246.27 2038.57,1208.11 2039.46,1157.42 2040.35,1201.24 2041.24,1244.16 2042.13,1265.69 
  2043.02,1271.66 2043.91,1219.62 2044.8,1298.92 2045.69,1276.89 2046.58,1307.16 2047.47,1255.36 2048.36,1089.48 2049.25,1272.31 2050.14,1244.03 2051.03,1118.46 
  2051.92,1111.17 2052.81,1245.32 2053.71,1168.04 2054.6,1157.83 2055.49,1245.06 2056.38,1275.96 2057.27,805.132 2058.16,1257.93 2059.05,1207.72 2059.94,645.2 
  2060.83,1150.29 2061.72,1106.02 2062.61,585.485 2063.5,794.323 2064.39,1212.13 2065.28,1315.04 2066.17,1289.1 2067.06,1150.94 2067.95,1295.88 2068.85,1022.94 
  2069.74,1090.51 2070.63,1314.45 2071.52,1212.5 2072.41,1316.23 2073.3,1185.9 2074.19,1095.22 2075.08,1108.36 2075.97,1101.74 2076.86,870.658 2077.75,1103.36 
  2078.64,1314.26 2079.53,1261.67 2080.42,1317.47 2081.31,1010.43 2082.2,1166.71 2083.09,1224.32 2083.98,1274.51 2084.88,1256.28 2085.77,1297.18 2086.66,748.915 
  2087.55,1087.42 2088.44,1170.22 2089.33,1022.16 2090.22,1277.86 2091.11,1165.75 2092,1120.06 2092.89,1270.14 2093.78,1175.64 2094.67,1229.7 2095.56,1193.3 
  2096.45,819.594 2097.34,996.466 2098.23,1301.77 2099.12,1037.92 2100.02,1064.08 2100.91,1257.28 2101.8,1295.2 2102.69,1245.26 2103.58,1310.75 2104.47,1021.34 
  2105.36,1220.07 2106.25,1152.21 2107.14,937.095 2108.03,1210.16 2108.92,1247.29 2109.81,1300.59 2110.7,1178.62 2111.59,1083.04 2112.48,1258.19 2113.37,1114.21 
  2114.26,1041.23 2115.15,1256.55 2116.05,1301.88 2116.94,1273.75 2117.83,1158.38 2118.72,1176.86 2119.61,1045.24 2120.5,1108.11 2121.39,1324.16 2122.28,1141.43 
  2123.17,1192.51 2124.06,1293.12 2124.95,1310.01 2125.84,1315.06 2126.73,1287.56 2127.62,1232.14 2128.51,1233.7 2129.4,1055.03 2130.29,1297.12 2131.19,1282.64 
  2132.08,1294.6 2132.97,1324.67 2133.86,1286.8 2134.75,1273.4 2135.64,1285.13 2136.53,1321.8 2137.42,1296.53 2138.31,1303.55 2139.2,1200 2140.09,1300.53 
  2140.98,1063.51 2141.87,1317.93 2142.76,1226.94 2143.65,1194.85 2144.54,1145.1 2145.43,1205.01 2146.32,1016.43 2147.22,1227.83 2148.11,1039.12 2149,1214.54 
  2149.89,906.807 2150.78,1205.56 2151.67,1196.01 2152.56,1041.14 2153.45,1007.4 2154.34,1213.03 2155.23,1234.11 2156.12,1210.8 2157.01,1317.36 2157.9,1305.86 
  2158.79,1292.71 2159.68,1262.35 2160.57,897.951 2161.46,1136.85 2162.36,1277.56 2163.25,1154.33 2164.14,1252.72 2165.03,1181.34 2165.92,1181.08 2166.81,1264 
  2167.7,1250.76 2168.59,963.154 2169.48,1155.94 2170.37,1141.05 2171.26,1098.61 2172.15,1137.27 2173.04,1214.94 2173.93,953.442 2174.82,1208.86 2175.71,1140.68 
  2176.6,1322.08 2177.5,1257.18 2178.39,1241.51 2179.28,1247.9 2180.17,1254.25 2181.06,1216.27 2181.95,802.608 2182.84,1238.44 2183.73,1204.08 2184.62,949.931 
  2185.51,1269.95 2186.4,1226.59 2187.29,998.019 2188.18,1309.1 2189.07,1302.92 2189.96,1301.74 2190.85,1282.89 2191.74,1317.04 2192.63,1302.47 2193.53,1324.6 
  2194.42,1275.07 2195.31,1283.31 2196.2,1278.47 2197.09,1269.55 2197.98,1240.96 2198.87,1220.86 2199.76,1288.9 2200.65,1057.71 2201.54,1253.9 2202.43,1294.36 
  2203.32,843.882 
  "/>
</svg>
