<?xml version="1.0" encoding="utf-8"?>
<svg xmlns="http://www.w3.org/2000/svg" xmlns:xlink="http://www.w3.org/1999/xlink" width="576" height="384" viewBox="0 0 2304 1536">
<defs>
  <clipPath id="clip190">
    <rect x="0" y="0" width="2304" height="1536"/>
  </clipPath>
</defs>
<path clip-path="url(#clip190)" d="
M0 1536 L2304 1536 L2304 0 L0 0  Z
  " fill="#ffffff" fill-rule="evenodd" fill-opacity="1"/>
<defs>
  <clipPath id="clip191">
    <rect x="460" y="0" width="1614" height="1536"/>
  </clipPath>
</defs>
<defs>
  <clipPath id="clip192">
    <rect x="254" y="123" width="2003" height="1241"/>
  </clipPath>
</defs>
<path clip-path="url(#clip190)" d="
M265.352 1363.79 L2256.76 1363.79 L2256.76 123.472 L265.352 123.472  Z
  " fill="#ffffff" fill-rule="evenodd" fill-opacity="1"/>
<defs>
  <clipPath id="clip193">
    <rect x="265" y="123" width="1992" height="1241"/>
  </clipPath>
</defs>
<polyline clip-path="url(#clip193)" style="stroke:#000000; stroke-width:2; stroke-opacity:0.1; fill:none" points="
  321.712,1363.79 321.712,123.472 
  "/>
<polyline clip-path="url(#clip193)" style="stroke:#000000; stroke-width:2; stroke-opacity:0.1; fill:none" points="
  791.853,1363.79 791.853,123.472 
  "/>
<polyline clip-path="url(#clip193)" style="stroke:#000000; stroke-width:2; stroke-opacity:0.1; fill:none" points="
  1261.99,1363.79 1261.99,123.472 
  "/>
<polyline clip-path="url(#clip193)" style="stroke:#000000; stroke-width:2; stroke-opacity:0.1; fill:none" points="
  1732.13,1363.79 1732.13,123.472 
  "/>
<polyline clip-path="url(#clip193)" style="stroke:#000000; stroke-width:2; stroke-opacity:0.1; fill:none" points="
  2202.28,1363.79 2202.28,123.472 
  "/>
<polyline clip-path="url(#clip190)" style="stroke:#000000; stroke-width:4; stroke-opacity:1; fill:none" points="
  265.352,1363.79 2256.76,1363.79 
  "/>
<polyline clip-path="url(#clip190)" style="stroke:#000000; stroke-width:4; stroke-opacity:1; fill:none" points="
  321.712,1363.79 321.712,1348.91 
  "/>
<polyline clip-path="url(#clip190)" style="stroke:#000000; stroke-width:4; stroke-opacity:1; fill:none" points="
  791.853,1363.79 791.853,1348.91 
  "/>
<polyline clip-path="url(#clip190)" style="stroke:#000000; stroke-width:4; stroke-opacity:1; fill:none" points="
  1261.99,1363.79 1261.99,1348.91 
  "/>
<polyline clip-path="url(#clip190)" style="stroke:#000000; stroke-width:4; stroke-opacity:1; fill:none" points="
  1732.13,1363.79 1732.13,1348.91 
  "/>
<polyline clip-path="url(#clip190)" style="stroke:#000000; stroke-width:4; stroke-opacity:1; fill:none" points="
  2202.28,1363.79 2202.28,1348.91 
  "/>
<path clip-path="url(#clip190)" d="M 0 0 M299.096 1392.21 Q295.485 1392.21 293.657 1395.78 Q291.851 1399.32 291.851 1406.45 Q291.851 1413.56 293.657 1417.12 Q295.485 1420.66 299.096 1420.66 Q302.731 1420.66 304.536 1417.12 Q306.365 1413.56 306.365 1406.45 Q306.365 1399.32 304.536 1395.78 Q302.731 1392.21 299.096 1392.21 M299.096 1388.51 Q304.907 1388.51 307.962 1393.12 Q311.041 1397.7 311.041 1406.45 Q311.041 1415.18 307.962 1419.78 Q304.907 1424.37 299.096 1424.37 Q293.286 1424.37 290.208 1419.78 Q287.152 1415.18 287.152 1406.45 Q287.152 1397.7 290.208 1393.12 Q293.286 1388.51 299.096 1388.51 Z" fill="#000000" fill-rule="evenodd" fill-opacity="1" /><path clip-path="url(#clip190)" d="M 0 0 M319.258 1417.81 L324.143 1417.81 L324.143 1423.69 L319.258 1423.69 L319.258 1417.81 Z" fill="#000000" fill-rule="evenodd" fill-opacity="1" /><path clip-path="url(#clip190)" d="M 0 0 M344.328 1392.21 Q340.717 1392.21 338.888 1395.78 Q337.082 1399.32 337.082 1406.45 Q337.082 1413.56 338.888 1417.12 Q340.717 1420.66 344.328 1420.66 Q347.962 1420.66 349.767 1417.12 Q351.596 1413.56 351.596 1406.45 Q351.596 1399.32 349.767 1395.78 Q347.962 1392.21 344.328 1392.21 M344.328 1388.51 Q350.138 1388.51 353.193 1393.12 Q356.272 1397.7 356.272 1406.45 Q356.272 1415.18 353.193 1419.78 Q350.138 1424.37 344.328 1424.37 Q338.518 1424.37 335.439 1419.78 Q332.383 1415.18 332.383 1406.45 Q332.383 1397.7 335.439 1393.12 Q338.518 1388.51 344.328 1388.51 Z" fill="#000000" fill-rule="evenodd" fill-opacity="1" /><path clip-path="url(#clip190)" d="M 0 0 M763.589 1419.76 L779.909 1419.76 L779.909 1423.69 L757.964 1423.69 L757.964 1419.76 Q760.626 1417 765.21 1412.37 Q769.816 1407.72 770.997 1406.38 Q773.242 1403.86 774.122 1402.12 Q775.024 1400.36 775.024 1398.67 Q775.024 1395.92 773.08 1394.18 Q771.159 1392.44 768.057 1392.44 Q765.858 1392.44 763.404 1393.21 Q760.974 1393.97 758.196 1395.52 L758.196 1390.8 Q761.02 1389.67 763.474 1389.09 Q765.927 1388.51 767.964 1388.51 Q773.335 1388.51 776.529 1391.19 Q779.723 1393.88 779.723 1398.37 Q779.723 1400.5 778.913 1402.42 Q778.126 1404.32 776.02 1406.91 Q775.441 1407.58 772.339 1410.8 Q769.237 1413.99 763.589 1419.76 Z" fill="#000000" fill-rule="evenodd" fill-opacity="1" /><path clip-path="url(#clip190)" d="M 0 0 M789.723 1417.81 L794.608 1417.81 L794.608 1423.69 L789.723 1423.69 L789.723 1417.81 Z" fill="#000000" fill-rule="evenodd" fill-opacity="1" /><path clip-path="url(#clip190)" d="M 0 0 M804.839 1389.13 L823.195 1389.13 L823.195 1393.07 L809.121 1393.07 L809.121 1401.54 Q810.14 1401.19 811.158 1401.03 Q812.177 1400.85 813.196 1400.85 Q818.983 1400.85 822.362 1404.02 Q825.742 1407.19 825.742 1412.61 Q825.742 1418.18 822.27 1421.29 Q818.797 1424.37 812.478 1424.37 Q810.302 1424.37 808.034 1423.99 Q805.788 1423.62 803.381 1422.88 L803.381 1418.18 Q805.464 1419.32 807.686 1419.87 Q809.909 1420.43 812.385 1420.43 Q816.39 1420.43 818.728 1418.32 Q821.066 1416.22 821.066 1412.61 Q821.066 1408.99 818.728 1406.89 Q816.39 1404.78 812.385 1404.78 Q810.51 1404.78 808.635 1405.2 Q806.784 1405.62 804.839 1406.49 L804.839 1389.13 Z" fill="#000000" fill-rule="evenodd" fill-opacity="1" /><path clip-path="url(#clip190)" d="M 0 0 M1229.16 1389.13 L1247.51 1389.13 L1247.51 1393.07 L1233.44 1393.07 L1233.44 1401.54 Q1234.46 1401.19 1235.48 1401.03 Q1236.5 1400.85 1237.51 1400.85 Q1243.3 1400.85 1246.68 1404.02 Q1250.06 1407.19 1250.06 1412.61 Q1250.06 1418.18 1246.59 1421.29 Q1243.12 1424.37 1236.8 1424.37 Q1234.62 1424.37 1232.35 1423.99 Q1230.11 1423.62 1227.7 1422.88 L1227.7 1418.18 Q1229.78 1419.32 1232.01 1419.87 Q1234.23 1420.43 1236.7 1420.43 Q1240.71 1420.43 1243.05 1418.32 Q1245.39 1416.22 1245.39 1412.61 Q1245.39 1408.99 1243.05 1406.89 Q1240.71 1404.78 1236.7 1404.78 Q1234.83 1404.78 1232.95 1405.2 Q1231.1 1405.62 1229.16 1406.49 L1229.16 1389.13 Z" fill="#000000" fill-rule="evenodd" fill-opacity="1" /><path clip-path="url(#clip190)" d="M 0 0 M1259.27 1417.81 L1264.16 1417.81 L1264.16 1423.69 L1259.27 1423.69 L1259.27 1417.81 Z" fill="#000000" fill-rule="evenodd" fill-opacity="1" /><path clip-path="url(#clip190)" d="M 0 0 M1284.34 1392.21 Q1280.73 1392.21 1278.9 1395.78 Q1277.1 1399.32 1277.1 1406.45 Q1277.1 1413.56 1278.9 1417.12 Q1280.73 1420.66 1284.34 1420.66 Q1287.98 1420.66 1289.78 1417.12 Q1291.61 1413.56 1291.61 1406.45 Q1291.61 1399.32 1289.78 1395.78 Q1287.98 1392.21 1284.34 1392.21 M1284.34 1388.51 Q1290.15 1388.51 1293.21 1393.12 Q1296.29 1397.7 1296.29 1406.45 Q1296.29 1415.18 1293.21 1419.78 Q1290.15 1424.37 1284.34 1424.37 Q1278.53 1424.37 1275.45 1419.78 Q1272.4 1415.18 1272.4 1406.45 Q1272.4 1397.7 1275.45 1393.12 Q1278.53 1388.51 1284.34 1388.51 Z" fill="#000000" fill-rule="evenodd" fill-opacity="1" /><path clip-path="url(#clip190)" d="M 0 0 M1698.45 1389.13 L1720.68 1389.13 L1720.68 1391.12 L1708.13 1423.69 L1703.25 1423.69 L1715.05 1393.07 L1698.45 1393.07 L1698.45 1389.13 Z" fill="#000000" fill-rule="evenodd" fill-opacity="1" /><path clip-path="url(#clip190)" d="M 0 0 M1729.8 1417.81 L1734.68 1417.81 L1734.68 1423.69 L1729.8 1423.69 L1729.8 1417.81 Z" fill="#000000" fill-rule="evenodd" fill-opacity="1" /><path clip-path="url(#clip190)" d="M 0 0 M1744.91 1389.13 L1763.27 1389.13 L1763.27 1393.07 L1749.2 1393.07 L1749.2 1401.54 Q1750.21 1401.19 1751.23 1401.03 Q1752.25 1400.85 1753.27 1400.85 Q1759.06 1400.85 1762.44 1404.02 Q1765.82 1407.19 1765.82 1412.61 Q1765.82 1418.18 1762.34 1421.29 Q1758.87 1424.37 1752.55 1424.37 Q1750.38 1424.37 1748.11 1423.99 Q1745.86 1423.62 1743.45 1422.88 L1743.45 1418.18 Q1745.54 1419.32 1747.76 1419.87 Q1749.98 1420.43 1752.46 1420.43 Q1756.46 1420.43 1758.8 1418.32 Q1761.14 1416.22 1761.14 1412.61 Q1761.14 1408.99 1758.8 1406.89 Q1756.46 1404.78 1752.46 1404.78 Q1750.58 1404.78 1748.71 1405.2 Q1746.86 1405.62 1744.91 1406.49 L1744.91 1389.13 Z" fill="#000000" fill-rule="evenodd" fill-opacity="1" /><path clip-path="url(#clip190)" d="M 0 0 M2154.35 1419.76 L2161.99 1419.76 L2161.99 1393.39 L2153.68 1395.06 L2153.68 1390.8 L2161.94 1389.13 L2166.62 1389.13 L2166.62 1419.76 L2174.26 1419.76 L2174.26 1423.69 L2154.35 1423.69 L2154.35 1419.76 Z" fill="#000000" fill-rule="evenodd" fill-opacity="1" /><path clip-path="url(#clip190)" d="M 0 0 M2193.7 1392.21 Q2190.09 1392.21 2188.26 1395.78 Q2186.45 1399.32 2186.45 1406.45 Q2186.45 1413.56 2188.26 1417.12 Q2190.09 1420.66 2193.7 1420.66 Q2197.33 1420.66 2199.14 1417.12 Q2200.97 1413.56 2200.97 1406.45 Q2200.97 1399.32 2199.14 1395.78 Q2197.33 1392.21 2193.7 1392.21 M2193.7 1388.51 Q2199.51 1388.51 2202.57 1393.12 Q2205.64 1397.7 2205.64 1406.45 Q2205.64 1415.18 2202.57 1419.78 Q2199.51 1424.37 2193.7 1424.37 Q2187.89 1424.37 2184.81 1419.78 Q2181.76 1415.18 2181.76 1406.45 Q2181.76 1397.7 2184.81 1393.12 Q2187.89 1388.51 2193.7 1388.51 Z" fill="#000000" fill-rule="evenodd" fill-opacity="1" /><path clip-path="url(#clip190)" d="M 0 0 M2213.86 1417.81 L2218.75 1417.81 L2218.75 1423.69 L2213.86 1423.69 L2213.86 1417.81 Z" fill="#000000" fill-rule="evenodd" fill-opacity="1" /><path clip-path="url(#clip190)" d="M 0 0 M2238.93 1392.21 Q2235.32 1392.21 2233.49 1395.78 Q2231.69 1399.32 2231.69 1406.45 Q2231.69 1413.56 2233.49 1417.12 Q2235.32 1420.66 2238.93 1420.66 Q2242.57 1420.66 2244.37 1417.12 Q2246.2 1413.56 2246.2 1406.45 Q2246.2 1399.32 2244.37 1395.78 Q2242.57 1392.21 2238.93 1392.21 M2238.93 1388.51 Q2244.74 1388.51 2247.8 1393.12 Q2250.88 1397.7 2250.88 1406.45 Q2250.88 1415.18 2247.8 1419.78 Q2244.74 1424.37 2238.93 1424.37 Q2233.12 1424.37 2230.04 1419.78 Q2226.99 1415.18 2226.99 1406.45 Q2226.99 1397.7 2230.04 1393.12 Q2233.12 1388.51 2238.93 1388.51 Z" fill="#000000" fill-rule="evenodd" fill-opacity="1" /><path clip-path="url(#clip190)" d="M 0 0 M1211.58 1465.79 Q1211.58 1468.04 1208.33 1468.04 L1197.25 1468.04 L1192.84 1490.62 Q1192.74 1491.2 1192.62 1491.52 Q1192.52 1491.84 1192.23 1492.39 Q1191.97 1492.9 1191.42 1493.16 Q1190.91 1493.45 1190.14 1493.45 Q1189.17 1493.45 1188.69 1492.87 Q1188.24 1492.33 1188.24 1491.65 Q1188.24 1491.23 1188.88 1489.23 L1195.35 1468.04 L1189.88 1468.04 Q1184.73 1468.04 1181.5 1473.13 Q1180.99 1473.81 1180.7 1473.87 Q1180.57 1473.9 1180.44 1473.9 Q1180.09 1473.9 1179.86 1473.74 Q1179.67 1473.58 1179.67 1473.42 L1179.64 1473.26 Q1179.64 1473.03 1180.15 1472.13 Q1180.7 1471.2 1181.67 1469.81 Q1182.66 1468.43 1183.66 1467.33 Q1184.98 1465.92 1186.46 1465.18 Q1187.95 1464.4 1188.69 1464.31 Q1189.46 1464.21 1190.46 1464.21 L1208.94 1464.21 Q1209.78 1464.21 1210.23 1464.27 Q1210.68 1464.31 1211.13 1464.69 Q1211.58 1465.05 1211.58 1465.79 Z" fill="#000000" fill-rule="evenodd" fill-opacity="1" /><path clip-path="url(#clip190)" d="M 0 0 M1229.87 1476.16 Q1229.87 1465.01 1234.03 1456.03 Q1235.8 1452.26 1238.28 1449.11 Q1240.76 1445.95 1242.4 1444.56 Q1244.05 1443.18 1244.5 1443.18 Q1245.14 1443.18 1245.17 1443.82 Q1245.17 1444.15 1244.3 1444.95 Q1233.67 1455.77 1233.71 1476.16 Q1233.71 1496.61 1244.05 1507.01 Q1245.17 1508.14 1245.17 1508.49 Q1245.17 1509.14 1244.5 1509.14 Q1244.05 1509.14 1242.47 1507.82 Q1240.89 1506.5 1238.44 1503.47 Q1235.99 1500.44 1234.22 1496.74 Q1229.87 1487.75 1229.87 1476.16 Z" fill="#000000" fill-rule="evenodd" fill-opacity="1" /><path clip-path="url(#clip190)" d="M 0 0 M1255.2 1492.65 L1255.2 1490.62 Q1258.71 1490.62 1259.52 1490.2 Q1260.32 1489.75 1260.32 1487.62 L1260.32 1469.94 Q1260.32 1467.49 1259.45 1466.88 Q1258.61 1466.27 1255.2 1466.27 L1255.2 1464.21 L1264.48 1463.5 L1264.48 1470.43 Q1267.57 1463.5 1274.23 1463.5 Q1279.19 1463.5 1281.16 1465.95 Q1282.61 1467.59 1282.9 1469.43 Q1283.22 1471.26 1283.22 1476.03 L1283.22 1488.62 Q1283.28 1490.01 1284.35 1490.33 Q1285.41 1490.62 1288.37 1490.62 L1288.37 1492.65 Q1281.64 1492.45 1280.97 1492.45 Q1280.45 1492.45 1273.53 1492.65 L1273.53 1490.62 Q1277.04 1490.62 1277.84 1490.2 Q1278.68 1489.75 1278.68 1487.62 L1278.68 1472.26 Q1278.68 1468.91 1277.65 1466.95 Q1276.62 1464.95 1273.78 1464.95 Q1270.37 1464.95 1267.63 1467.82 Q1264.89 1470.68 1264.89 1475.51 L1264.89 1487.62 Q1264.89 1489.75 1265.7 1490.2 Q1266.54 1490.62 1270.02 1490.62 L1270.02 1492.65 Q1263.28 1492.45 1262.64 1492.45 Q1262.12 1492.45 1255.2 1492.65 Z" fill="#000000" fill-rule="evenodd" fill-opacity="1" /><path clip-path="url(#clip190)" d="M 0 0 M1291.44 1491.78 L1291.44 1483.08 Q1291.44 1482.34 1291.47 1482.08 Q1291.5 1481.83 1291.69 1481.63 Q1291.89 1481.44 1292.27 1481.44 Q1292.72 1481.44 1292.88 1481.63 Q1293.08 1481.83 1293.21 1482.57 Q1294.21 1487.11 1296.33 1489.52 Q1298.49 1491.91 1302.39 1491.91 Q1306.09 1491.91 1307.96 1490.26 Q1309.83 1488.62 1309.83 1485.92 Q1309.83 1481.09 1302.97 1479.86 Q1299 1479.06 1297.36 1478.54 Q1295.72 1477.99 1294.27 1476.8 Q1291.44 1474.48 1291.44 1471.2 Q1291.44 1467.91 1293.92 1465.5 Q1296.43 1463.08 1301.97 1463.08 Q1305.67 1463.08 1308.18 1464.95 Q1308.92 1464.37 1309.31 1463.89 Q1310.18 1463.08 1310.63 1463.08 Q1311.15 1463.08 1311.24 1463.44 Q1311.34 1463.76 1311.34 1464.69 L1311.34 1471.33 Q1311.34 1472.07 1311.31 1472.33 Q1311.27 1472.58 1311.08 1472.78 Q1310.89 1472.94 1310.47 1472.94 Q1309.73 1472.94 1309.7 1472.33 Q1309.18 1464.34 1301.97 1464.34 Q1298.07 1464.34 1296.33 1465.85 Q1294.59 1467.33 1294.59 1469.36 Q1294.59 1470.49 1295.11 1471.36 Q1295.65 1472.2 1296.33 1472.71 Q1297.04 1473.2 1298.33 1473.68 Q1299.62 1474.13 1300.39 1474.29 Q1301.19 1474.45 1302.71 1474.77 Q1307.99 1475.77 1310.21 1477.93 Q1312.98 1480.7 1312.98 1484.21 Q1312.98 1488.11 1310.34 1490.75 Q1307.7 1493.39 1302.39 1493.39 Q1298.1 1493.39 1295.11 1490.52 Q1294.72 1490.91 1294.43 1491.26 Q1294.14 1491.58 1294.01 1491.71 Q1293.92 1491.84 1293.88 1491.94 Q1293.85 1492 1293.79 1492.07 Q1292.47 1493.39 1292.14 1493.39 Q1291.63 1493.39 1291.53 1493.03 Q1291.44 1492.71 1291.44 1491.78 Z" fill="#000000" fill-rule="evenodd" fill-opacity="1" /><path clip-path="url(#clip190)" d="M 0 0 M1317.14 1508.49 Q1317.14 1508.17 1317.98 1507.37 Q1328.61 1496.54 1328.61 1476.16 Q1328.61 1455.71 1318.4 1445.37 Q1317.14 1444.18 1317.14 1443.82 Q1317.14 1443.18 1317.79 1443.18 Q1318.24 1443.18 1319.82 1444.5 Q1321.43 1445.82 1323.84 1448.85 Q1326.29 1451.87 1328.09 1455.58 Q1332.44 1464.56 1332.44 1476.16 Q1332.44 1487.3 1328.29 1496.29 Q1326.52 1500.05 1324.04 1503.21 Q1321.56 1506.37 1319.91 1507.75 Q1318.27 1509.14 1317.79 1509.14 Q1317.14 1509.14 1317.14 1508.49 Z" fill="#000000" fill-rule="evenodd" fill-opacity="1" /><polyline clip-path="url(#clip193)" style="stroke:#000000; stroke-width:2; stroke-opacity:0.1; fill:none" points="
  265.352,1285.81 2256.76,1285.81 
  "/>
<polyline clip-path="url(#clip193)" style="stroke:#000000; stroke-width:2; stroke-opacity:0.1; fill:none" points="
  265.352,1063.35 2256.76,1063.35 
  "/>
<polyline clip-path="url(#clip193)" style="stroke:#000000; stroke-width:2; stroke-opacity:0.1; fill:none" points="
  265.352,840.888 2256.76,840.888 
  "/>
<polyline clip-path="url(#clip193)" style="stroke:#000000; stroke-width:2; stroke-opacity:0.1; fill:none" points="
  265.352,618.429 2256.76,618.429 
  "/>
<polyline clip-path="url(#clip193)" style="stroke:#000000; stroke-width:2; stroke-opacity:0.1; fill:none" points="
  265.352,395.969 2256.76,395.969 
  "/>
<polyline clip-path="url(#clip193)" style="stroke:#000000; stroke-width:2; stroke-opacity:0.1; fill:none" points="
  265.352,173.51 2256.76,173.51 
  "/>
<polyline clip-path="url(#clip190)" style="stroke:#000000; stroke-width:4; stroke-opacity:1; fill:none" points="
  265.352,1363.79 265.352,123.472 
  "/>
<polyline clip-path="url(#clip190)" style="stroke:#000000; stroke-width:4; stroke-opacity:1; fill:none" points="
  265.352,1285.81 289.248,1285.81 
  "/>
<polyline clip-path="url(#clip190)" style="stroke:#000000; stroke-width:4; stroke-opacity:1; fill:none" points="
  265.352,1063.35 289.248,1063.35 
  "/>
<polyline clip-path="url(#clip190)" style="stroke:#000000; stroke-width:4; stroke-opacity:1; fill:none" points="
  265.352,840.888 289.248,840.888 
  "/>
<polyline clip-path="url(#clip190)" style="stroke:#000000; stroke-width:4; stroke-opacity:1; fill:none" points="
  265.352,618.429 289.248,618.429 
  "/>
<polyline clip-path="url(#clip190)" style="stroke:#000000; stroke-width:4; stroke-opacity:1; fill:none" points="
  265.352,395.969 289.248,395.969 
  "/>
<polyline clip-path="url(#clip190)" style="stroke:#000000; stroke-width:4; stroke-opacity:1; fill:none" points="
  265.352,173.51 289.248,173.51 
  "/>
<path clip-path="url(#clip190)" d="M 0 0 M179.496 1299.15 L187.134 1299.15 L187.134 1272.79 L178.824 1274.45 L178.824 1270.19 L187.088 1268.53 L191.764 1268.53 L191.764 1299.15 L199.403 1299.15 L199.403 1303.09 L179.496 1303.09 L179.496 1299.15 Z" fill="#000000" fill-rule="evenodd" fill-opacity="1" /><path clip-path="url(#clip190)" d="M 0 0 M218.847 1271.6 Q215.236 1271.6 213.407 1275.17 Q211.602 1278.71 211.602 1285.84 Q211.602 1292.95 213.407 1296.51 Q215.236 1300.05 218.847 1300.05 Q222.481 1300.05 224.287 1296.51 Q226.116 1292.95 226.116 1285.84 Q226.116 1278.71 224.287 1275.17 Q222.481 1271.6 218.847 1271.6 M218.847 1267.9 Q224.657 1267.9 227.713 1272.51 Q230.792 1277.09 230.792 1285.84 Q230.792 1294.57 227.713 1299.17 Q224.657 1303.76 218.847 1303.76 Q213.037 1303.76 209.958 1299.17 Q206.903 1294.57 206.903 1285.84 Q206.903 1277.09 209.958 1272.51 Q213.037 1267.9 218.847 1267.9 Z" fill="#000000" fill-rule="evenodd" fill-opacity="1" /><path clip-path="url(#clip190)" d="M 0 0 M181.093 1076.69 L188.732 1076.69 L188.732 1050.33 L180.421 1051.99 L180.421 1047.73 L188.685 1046.07 L193.361 1046.07 L193.361 1076.69 L201 1076.69 L201 1080.63 L181.093 1080.63 L181.093 1076.69 Z" fill="#000000" fill-rule="evenodd" fill-opacity="1" /><path clip-path="url(#clip190)" d="M 0 0 M214.472 1076.69 L230.792 1076.69 L230.792 1080.63 L208.847 1080.63 L208.847 1076.69 Q211.509 1073.94 216.093 1069.31 Q220.699 1064.65 221.88 1063.31 Q224.125 1060.79 225.005 1059.05 Q225.907 1057.29 225.907 1055.6 Q225.907 1052.85 223.963 1051.11 Q222.042 1049.38 218.94 1049.38 Q216.741 1049.38 214.287 1050.14 Q211.856 1050.9 209.079 1052.46 L209.079 1047.73 Q211.903 1046.6 214.356 1046.02 Q216.81 1045.44 218.847 1045.44 Q224.218 1045.44 227.412 1048.13 Q230.606 1050.81 230.606 1055.3 Q230.606 1057.43 229.796 1059.35 Q229.009 1061.25 226.903 1063.84 Q226.324 1064.52 223.222 1067.73 Q220.12 1070.93 214.472 1076.69 Z" fill="#000000" fill-rule="evenodd" fill-opacity="1" /><path clip-path="url(#clip190)" d="M 0 0 M179.009 854.232 L186.648 854.232 L186.648 827.867 L178.338 829.534 L178.338 825.274 L186.602 823.608 L191.278 823.608 L191.278 854.232 L198.917 854.232 L198.917 858.168 L179.009 858.168 L179.009 854.232 Z" fill="#000000" fill-rule="evenodd" fill-opacity="1" /><path clip-path="url(#clip190)" d="M 0 0 M221.208 827.682 L209.403 846.131 L221.208 846.131 L221.208 827.682 M219.981 823.608 L225.861 823.608 L225.861 846.131 L230.792 846.131 L230.792 850.02 L225.861 850.02 L225.861 858.168 L221.208 858.168 L221.208 850.02 L205.607 850.02 L205.607 845.506 L219.981 823.608 Z" fill="#000000" fill-rule="evenodd" fill-opacity="1" /><path clip-path="url(#clip190)" d="M 0 0 M179.334 631.773 L186.972 631.773 L186.972 605.408 L178.662 607.074 L178.662 602.815 L186.926 601.149 L191.602 601.149 L191.602 631.773 L199.241 631.773 L199.241 635.709 L179.334 635.709 L179.334 631.773 Z" fill="#000000" fill-rule="evenodd" fill-opacity="1" /><path clip-path="url(#clip190)" d="M 0 0 M219.264 616.565 Q216.116 616.565 214.264 618.718 Q212.435 620.871 212.435 624.621 Q212.435 628.347 214.264 630.523 Q216.116 632.676 219.264 632.676 Q222.412 632.676 224.241 630.523 Q226.093 628.347 226.093 624.621 Q226.093 620.871 224.241 618.718 Q222.412 616.565 219.264 616.565 M228.546 601.912 L228.546 606.172 Q226.787 605.338 224.981 604.899 Q223.199 604.459 221.44 604.459 Q216.81 604.459 214.356 607.584 Q211.926 610.709 211.579 617.028 Q212.944 615.014 215.005 613.949 Q217.065 612.861 219.542 612.861 Q224.75 612.861 227.759 616.033 Q230.792 619.181 230.792 624.621 Q230.792 629.945 227.643 633.162 Q224.495 636.38 219.264 636.38 Q213.269 636.38 210.097 631.797 Q206.926 627.19 206.926 618.463 Q206.926 610.269 210.815 605.408 Q214.704 600.524 221.255 600.524 Q223.014 600.524 224.796 600.871 Q226.602 601.218 228.546 601.912 Z" fill="#000000" fill-rule="evenodd" fill-opacity="1" /><path clip-path="url(#clip190)" d="M 0 0 M179.588 409.314 L187.227 409.314 L187.227 382.949 L178.917 384.615 L178.917 380.356 L187.181 378.689 L191.857 378.689 L191.857 409.314 L199.495 409.314 L199.495 413.249 L179.588 413.249 L179.588 409.314 Z" fill="#000000" fill-rule="evenodd" fill-opacity="1" /><path clip-path="url(#clip190)" d="M 0 0 M218.94 396.837 Q215.606 396.837 213.685 398.62 Q211.787 400.402 211.787 403.527 Q211.787 406.652 213.685 408.435 Q215.606 410.217 218.94 410.217 Q222.273 410.217 224.194 408.435 Q226.116 406.629 226.116 403.527 Q226.116 400.402 224.194 398.62 Q222.296 396.837 218.94 396.837 M214.264 394.847 Q211.255 394.106 209.565 392.046 Q207.898 389.986 207.898 387.023 Q207.898 382.879 210.838 380.472 Q213.801 378.064 218.94 378.064 Q224.102 378.064 227.042 380.472 Q229.981 382.879 229.981 387.023 Q229.981 389.986 228.292 392.046 Q226.625 394.106 223.639 394.847 Q227.018 395.634 228.893 397.925 Q230.792 400.217 230.792 403.527 Q230.792 408.55 227.713 411.236 Q224.657 413.921 218.94 413.921 Q213.222 413.921 210.144 411.236 Q207.088 408.55 207.088 403.527 Q207.088 400.217 208.986 397.925 Q210.884 395.634 214.264 394.847 M212.551 387.463 Q212.551 390.148 214.218 391.652 Q215.907 393.157 218.94 393.157 Q221.949 393.157 223.639 391.652 Q225.352 390.148 225.352 387.463 Q225.352 384.777 223.639 383.273 Q221.949 381.768 218.94 381.768 Q215.907 381.768 214.218 383.273 Q212.551 384.777 212.551 387.463 Z" fill="#000000" fill-rule="evenodd" fill-opacity="1" /><path clip-path="url(#clip190)" d="M 0 0 M182.713 186.855 L199.032 186.855 L199.032 190.79 L177.088 190.79 L177.088 186.855 Q179.75 184.101 184.333 179.471 Q188.94 174.818 190.12 173.476 Q192.366 170.952 193.245 169.216 Q194.148 167.457 194.148 165.767 Q194.148 163.013 192.204 161.277 Q190.283 159.541 187.181 159.541 Q184.982 159.541 182.528 160.304 Q180.097 161.068 177.32 162.619 L177.32 157.897 Q180.144 156.763 182.597 156.184 Q185.051 155.605 187.088 155.605 Q192.458 155.605 195.653 158.291 Q198.847 160.976 198.847 165.466 Q198.847 167.596 198.037 169.517 Q197.25 171.415 195.144 174.008 Q194.565 174.679 191.463 177.897 Q188.361 181.091 182.713 186.855 Z" fill="#000000" fill-rule="evenodd" fill-opacity="1" /><path clip-path="url(#clip190)" d="M 0 0 M218.847 159.309 Q215.236 159.309 213.407 162.874 Q211.602 166.415 211.602 173.545 Q211.602 180.652 213.407 184.216 Q215.236 187.758 218.847 187.758 Q222.481 187.758 224.287 184.216 Q226.116 180.652 226.116 173.545 Q226.116 166.415 224.287 162.874 Q222.481 159.309 218.847 159.309 M218.847 155.605 Q224.657 155.605 227.713 160.212 Q230.792 164.795 230.792 173.545 Q230.792 182.272 227.713 186.878 Q224.657 191.462 218.847 191.462 Q213.037 191.462 209.958 186.878 Q206.903 182.272 206.903 173.545 Q206.903 164.795 209.958 160.212 Q213.037 155.605 218.847 155.605 Z" fill="#000000" fill-rule="evenodd" fill-opacity="1" /><path clip-path="url(#clip190)" d="M 0 0 M96.5483 796.326 L112.973 801.994 L112.973 856.679 Q112.973 857.42 112.941 857.71 Q112.909 858 112.748 858.225 Q112.587 858.451 112.233 858.451 Q111.943 858.451 111.202 857.871 L82.2489 834.457 L49.1412 858.515 Q47.6276 858.515 47.3377 858.257 Q47.0157 858 47.0157 856.679 L47.0157 801.994 L62.4423 796.326 L62.4423 797.968 Q60.4455 798.709 58.7708 799.9 Q57.0639 801.06 55.8401 802.412 Q54.6162 803.733 53.6501 805.472 Q52.6517 807.179 52.0398 808.789 Q51.3957 810.367 50.9448 812.332 Q50.4617 814.296 50.2362 815.874 Q49.9786 817.42 49.8498 819.353 Q49.7209 821.285 49.6887 822.509 Q49.6565 823.733 49.6565 825.279 L49.6565 851.398 L79.0605 829.981 Q79.8012 829.498 79.9945 829.498 Q80.2843 829.498 81.0572 830.109 L109.334 852.976 L109.334 824.957 Q109.334 815.939 107.434 809.659 Q105.985 805.408 103.118 802.316 Q100.252 799.192 96.5483 797.968 L96.5483 796.326 Z" fill="#000000" fill-rule="evenodd" fill-opacity="1" /><path clip-path="url(#clip190)" d="M 0 0 M129.637 869.523 Q130.629 869.523 131.373 870.334 Q132.095 871.123 132.095 871.98 Q132.095 872.769 131.621 873.265 Q131.125 873.738 130.426 873.738 Q129.502 873.738 128.736 872.949 Q127.969 872.16 127.969 871.236 Q127.969 870.469 128.443 869.996 Q128.916 869.523 129.637 869.523 M151.888 869.117 Q152.069 869.117 152.79 869.32 Q153.489 869.523 154.571 870.018 Q155.631 870.492 156.623 871.146 Q157.615 871.799 158.314 872.882 Q159.012 873.941 159.012 875.159 Q159.012 876.804 157.93 877.886 Q156.848 878.946 155.225 878.946 Q154.346 878.946 151.528 877.886 Q143.322 874.82 142.984 874.708 Q141.699 874.189 140.571 874.189 Q140.053 874.189 139.737 874.302 Q139.399 874.415 139.286 874.64 Q139.151 874.865 139.128 875.001 Q139.106 875.113 139.106 875.339 Q139.106 876.669 140.459 877.909 Q141.811 879.149 144.832 880.006 Q145.396 880.186 145.531 880.299 Q145.666 880.411 145.666 880.749 Q145.644 881.313 145.193 881.313 Q145.058 881.313 144.539 881.155 Q143.998 880.997 143.186 880.704 Q142.352 880.411 141.496 879.893 Q140.616 879.374 139.85 878.743 Q139.083 878.089 138.587 877.165 Q138.091 876.241 138.091 875.204 Q138.091 873.513 139.196 872.476 Q140.278 871.416 141.879 871.416 Q142.758 871.416 144.314 872.025 Q146.343 872.769 146.996 873.039 L151.843 874.843 Q153.602 875.497 154.143 875.7 Q154.661 875.88 155.293 876.038 Q155.901 876.173 156.465 876.173 Q157.254 876.173 157.615 875.925 Q157.975 875.655 157.975 875.068 Q157.975 873.445 156.375 872.25 Q154.752 871.056 152.272 870.357 Q152.204 870.334 152.091 870.312 Q151.528 870.131 151.46 869.951 Q151.438 869.861 151.438 869.68 Q151.438 869.117 151.888 869.117 Z" fill="#000000" fill-rule="evenodd" fill-opacity="1" /><path clip-path="url(#clip190)" d="M 0 0 M151.483 852.74 Q150.919 852.695 150.919 851.816 L150.919 823.523 Q150.919 822.193 151.438 822.17 Q152.001 822.17 151.979 823.433 L151.979 851.5 Q152.001 852.74 151.483 852.74 M142.465 852.74 Q141.901 852.74 141.924 851.771 L141.924 823.568 Q141.924 822.193 142.465 822.17 Q142.984 822.17 142.984 823.342 L142.984 851.816 Q142.984 852.74 142.465 852.74 Z" fill="#000000" fill-rule="evenodd" fill-opacity="1" /><path clip-path="url(#clip190)" d="M 0 0 M132.14 804.362 L130.697 804.362 Q130.697 798.816 127.744 795.953 Q127.744 795.164 127.924 795.029 Q128.104 794.893 128.939 794.893 L154.842 794.893 Q156.217 794.893 156.645 794.217 Q157.074 793.541 157.074 790.588 L157.074 789.122 L158.494 789.122 Q158.359 790.745 158.359 796.607 Q158.359 802.468 158.494 804.069 L157.074 804.069 L157.074 802.604 Q157.074 799.695 156.668 798.996 Q156.239 798.298 154.842 798.298 L130.922 798.298 Q132.14 800.71 132.14 804.362 Z" fill="#000000" fill-rule="evenodd" fill-opacity="1" /><path clip-path="url(#clip190)" d="M 0 0 M-1.6977 852.421 L-3.14052 852.421 Q-3.14052 846.876 -6.0938 844.012 Q-6.0938 843.223 -5.91345 843.088 Q-5.73309 842.953 -4.89896 842.953 L21.0042 842.953 Q22.3794 842.953 22.8077 842.277 Q23.2361 841.6 23.2361 838.647 L23.2361 837.182 L24.6564 837.182 Q24.5211 838.805 24.5211 844.666 Q24.5211 850.528 24.6564 852.128 L23.2361 852.128 L23.2361 850.663 Q23.2361 847.755 22.8303 847.056 Q22.4019 846.357 21.0042 846.357 L-2.91508 846.357 Q-1.6977 848.769 -1.6977 852.421 Z" fill="#000000" fill-rule="evenodd" fill-opacity="1" /><path clip-path="url(#clip190)" d="M 0 0 M9.88997 833.254 Q3.1042 833.254 -0.593038 831.54 Q-6.0938 829.151 -6.0938 823.515 Q-6.0938 822.32 -5.75564 821.08 Q-5.44002 819.817 -4.20009 818.239 Q-2.96017 816.639 -0.931199 815.669 Q2.99147 813.821 9.88997 813.821 Q16.6307 813.821 20.3053 815.534 Q25.6708 818.036 25.6708 823.56 Q25.6708 825.634 24.6113 827.753 Q23.5517 829.849 21.0042 831.18 Q17.1943 833.254 9.88997 833.254 M9.32637 829.421 Q16.2925 829.421 19.0654 828.925 Q22.0638 828.362 23.3713 826.829 Q24.6564 825.273 24.6564 823.56 Q24.6564 821.711 23.2812 820.178 Q21.8834 818.623 18.8851 818.149 Q15.9318 817.631 9.32637 817.653 Q2.9013 817.653 0.33127 818.104 Q-2.6671 818.713 -3.86193 820.336 Q-5.07931 821.937 -5.07931 823.56 Q-5.07931 824.168 -4.89896 824.822 Q-4.71861 825.453 -4.20009 826.378 Q-3.68158 827.302 -2.39657 828.023 Q-1.11155 828.722 0.827241 829.06 Q3.32964 829.421 9.32637 829.421 Z" fill="#000000" fill-rule="evenodd" fill-opacity="1" /><path clip-path="url(#clip190)" d="M 0 0 M70.4293 737.145 Q70.4615 737.145 71.6209 737.338 L100.896 744.681 Q102.442 745.067 103.988 746.162 Q105.566 747.225 106.919 748.932 Q108.303 750.607 109.141 753.183 Q110.01 755.727 110.01 758.658 Q110.01 763.328 109.012 765.389 Q108.046 767.418 105.985 767.418 Q104.181 767.418 103.15 766.291 Q102.152 765.164 102.152 763.876 Q102.152 762.652 102.861 762.008 Q103.569 761.364 104.471 761.364 Q105.469 761.364 106.468 762.04 Q107.498 762.716 107.885 764.069 Q108.561 761.911 108.561 758.787 Q108.561 752.185 101.572 749.351 Q101.476 749.286 101.444 749.286 L92.7158 747.096 L92.6514 747.193 Q93.2955 747.74 94.0362 748.61 Q94.7447 749.447 95.6143 751.251 Q96.4839 753.054 96.4839 754.826 Q96.4839 758.529 93.6497 761.074 Q90.7834 763.586 86.0492 763.586 Q82.6031 763.586 79.1571 762.201 Q75.6789 760.784 73.1346 758.594 Q70.5581 756.372 68.9478 753.537 Q67.3376 750.671 67.3376 747.901 Q67.3376 745.969 68.497 744.327 Q69.6242 742.684 71.4921 741.782 Q69.9462 741.621 69.3021 740.752 Q68.658 739.85 68.658 739.077 Q68.658 738.208 69.1411 737.692 Q69.592 737.145 70.4293 737.145 M74.455 742.555 Q74.2618 742.555 73.7465 742.684 Q73.199 742.813 72.3295 743.199 Q71.4599 743.554 70.687 744.101 Q69.914 744.649 69.3665 745.647 Q68.7868 746.613 68.7868 747.837 Q68.7868 749.834 70.4615 751.831 Q72.104 753.827 74.6483 755.212 Q77.0959 756.5 81.8302 757.724 Q86.5645 758.916 88.9799 758.916 Q91.3631 758.916 93.1989 757.885 Q95.0346 756.855 95.0346 754.632 Q95.0346 752.056 92.6514 749.286 Q90.1715 746.42 88.0459 745.937 L75.4534 742.749 Q74.6805 742.555 74.455 742.555 Z" fill="#000000" fill-rule="evenodd" fill-opacity="1" /><path clip-path="url(#clip190)" d="M 0 0 M99.1601 718.618 Q100.152 718.618 100.896 719.429 Q101.617 720.218 101.617 721.075 Q101.617 721.864 101.144 722.36 Q100.648 722.833 99.9491 722.833 Q99.0248 722.833 98.2583 722.044 Q97.4918 721.255 97.4918 720.331 Q97.4918 719.565 97.9653 719.091 Q98.4387 718.618 99.1601 718.618 M121.411 718.212 Q121.591 718.212 122.313 718.415 Q123.012 718.618 124.094 719.114 Q125.153 719.587 126.145 720.241 Q127.137 720.895 127.836 721.977 Q128.535 723.036 128.535 724.254 Q128.535 725.899 127.453 726.982 Q126.371 728.041 124.748 728.041 Q123.868 728.041 121.05 726.982 Q112.844 723.916 112.506 723.803 Q111.221 723.284 110.094 723.284 Q109.575 723.284 109.26 723.397 Q108.922 723.51 108.809 723.735 Q108.674 723.961 108.651 724.096 Q108.629 724.209 108.629 724.434 Q108.629 725.764 109.981 727.004 Q111.334 728.244 114.355 729.101 Q114.918 729.281 115.054 729.394 Q115.189 729.506 115.189 729.845 Q115.166 730.408 114.716 730.408 Q114.58 730.408 114.062 730.25 Q113.521 730.093 112.709 729.8 Q111.875 729.506 111.018 728.988 Q110.139 728.469 109.373 727.838 Q108.606 727.184 108.11 726.26 Q107.614 725.336 107.614 724.299 Q107.614 722.608 108.719 721.571 Q109.801 720.511 111.402 720.511 Q112.281 720.511 113.836 721.12 Q115.865 721.864 116.519 722.135 L121.366 723.938 Q123.124 724.592 123.666 724.795 Q124.184 724.975 124.815 725.133 Q125.424 725.268 125.988 725.268 Q126.777 725.268 127.137 725.02 Q127.498 724.75 127.498 724.164 Q127.498 722.54 125.897 721.345 Q124.274 720.151 121.794 719.452 Q121.727 719.429 121.614 719.407 Q121.05 719.226 120.983 719.046 Q120.96 718.956 120.96 718.775 Q120.96 718.212 121.411 718.212 Z" fill="#000000" fill-rule="evenodd" fill-opacity="1" /><path clip-path="url(#clip190)" d="M 0 0 M54.9347 730.408 Q47.1344 730.408 40.8446 727.5 Q38.207 726.26 35.9976 724.524 Q33.7883 722.788 32.8189 721.639 Q31.8495 720.489 31.8495 720.173 Q31.8495 719.722 32.3004 719.7 Q32.5258 719.7 33.0894 720.308 Q40.6643 727.748 54.9347 727.725 Q69.2502 727.725 76.5319 720.489 Q77.321 719.7 77.569 719.7 Q78.0198 719.7 78.0198 720.173 Q78.0198 720.489 77.0955 721.593 Q76.1712 722.698 74.0521 724.411 Q71.9329 726.125 69.3404 727.365 Q63.0506 730.408 54.9347 730.408 Z" fill="#000000" fill-rule="evenodd" fill-opacity="1" /><path clip-path="url(#clip190)" d="M 0 0 M66.4773 712.68 Q65.6431 712.68 65.3951 712.612 Q65.1472 712.522 64.7639 712.161 L54.8896 703.302 Q49.4339 698.455 44.6771 698.455 Q41.5886 698.455 39.3792 700.078 Q37.1699 701.678 37.1699 704.632 Q37.1699 706.661 38.4098 708.374 Q39.6498 710.087 41.8591 710.876 Q41.814 710.741 41.814 710.268 Q41.814 709.118 42.5354 708.487 Q43.2568 707.833 44.2262 707.833 Q45.4662 707.833 46.0748 708.644 Q46.661 709.434 46.661 710.223 Q46.661 710.538 46.5934 710.967 Q46.5257 711.372 45.8945 712.026 Q45.2407 712.68 44.091 712.68 Q40.8672 712.68 38.2971 710.245 Q35.7271 707.788 35.7271 704.045 Q35.7271 699.807 38.252 697.034 Q40.7544 694.239 44.6771 694.239 Q46.0523 694.239 47.3148 694.667 Q48.5547 695.073 49.5241 695.637 Q50.4935 696.178 52.049 697.666 Q53.6046 699.153 54.7092 700.348 Q55.8139 701.543 58.1585 704.226 L62.9153 709.118 L62.9153 700.799 Q62.9153 696.741 62.5546 696.426 Q61.9008 695.975 58.4516 695.411 L58.4516 694.239 L66.4773 695.546 L66.4773 712.68 Z" fill="#000000" fill-rule="evenodd" fill-opacity="1" /><path clip-path="url(#clip190)" d="M 0 0 M77.569 689.816 Q77.3435 689.816 76.7799 689.23 Q69.2051 681.79 54.9347 681.79 Q40.6192 681.79 33.3825 688.937 Q32.5484 689.816 32.3004 689.816 Q31.8495 689.816 31.8495 689.365 Q31.8495 689.05 32.7738 687.945 Q33.6981 686.818 35.8173 685.127 Q37.9364 683.414 40.529 682.151 Q46.8188 679.108 54.9347 679.108 Q62.7349 679.108 69.0247 682.016 Q71.6624 683.256 73.8717 684.992 Q76.081 686.728 77.0504 687.877 Q78.0198 689.027 78.0198 689.365 Q78.0198 689.816 77.569 689.816 Z" fill="#000000" fill-rule="evenodd" fill-opacity="1" /><path clip-path="url(#clip190)" d="M 0 0 M79.9945 665.048 Q68.8512 665.048 59.8658 660.893 Q56.0977 659.122 52.9415 656.642 Q49.7854 654.162 48.4005 652.52 Q47.0157 650.877 47.0157 650.426 Q47.0157 649.782 47.6598 649.75 Q47.9818 649.75 48.787 650.62 Q59.6081 661.248 79.9945 661.215 Q100.445 661.215 110.848 650.877 Q111.975 649.75 112.329 649.75 Q112.973 649.75 112.973 650.426 Q112.973 650.877 111.653 652.455 Q110.332 654.033 107.305 656.481 Q104.278 658.929 100.574 660.7 Q91.5886 665.048 79.9945 665.048 Z" fill="#000000" fill-rule="evenodd" fill-opacity="1" /><path clip-path="url(#clip190)" d="M 0 0 M69.6242 607.773 Q71.8786 607.773 71.8786 611.026 L71.8786 622.105 L94.4549 626.517 Q95.0346 626.614 95.3567 626.743 Q95.6787 626.839 96.2262 627.129 Q96.7415 627.387 96.9992 627.934 Q97.289 628.45 97.289 629.222 Q97.289 630.189 96.7093 630.672 Q96.1618 631.123 95.4855 631.123 Q95.0668 631.123 93.07 630.479 L71.8786 624.005 L71.8786 629.48 Q71.8786 634.633 76.9671 637.854 Q77.6434 638.369 77.7078 638.659 Q77.74 638.788 77.74 638.916 Q77.74 639.271 77.579 639.496 Q77.418 639.689 77.257 639.689 L77.0959 639.722 Q76.8705 639.722 75.9687 639.206 Q75.0348 638.659 73.6499 637.693 Q72.265 636.694 71.1701 635.696 Q69.753 634.375 69.0123 632.894 Q68.2393 631.412 68.1427 630.672 Q68.0461 629.899 68.0461 628.9 L68.0461 610.414 Q68.0461 609.577 68.1105 609.126 Q68.1427 608.675 68.5292 608.224 Q68.8834 607.773 69.6242 607.773 Z" fill="#000000" fill-rule="evenodd" fill-opacity="1" /><path clip-path="url(#clip190)" d="M 0 0 M112.329 611.206 Q112.007 611.206 111.202 610.368 Q100.381 599.74 79.9945 599.74 Q59.5437 599.74 49.2057 609.95 Q48.014 611.206 47.6598 611.206 Q47.0157 611.206 47.0157 610.562 Q47.0157 610.111 48.3361 608.533 Q49.6565 606.922 52.6839 604.507 Q55.7112 602.059 59.4149 600.256 Q68.4003 595.908 79.9945 595.908 Q91.1377 595.908 100.123 600.062 Q103.891 601.834 107.047 604.314 Q110.204 606.794 111.588 608.436 Q112.973 610.079 112.973 610.562 Q112.973 611.206 112.329 611.206 Z" fill="#000000" fill-rule="evenodd" fill-opacity="1" /><path clip-path="url(#clip190)" d="M 0 0 M423.691 14.0809 L423.691 22.0612 Q419.033 19.8332 414.901 18.7395 Q410.769 17.6457 406.921 17.6457 Q400.237 17.6457 396.591 20.2383 Q392.985 22.8309 392.985 27.611 Q392.985 31.6214 395.376 33.6873 Q397.806 35.7128 404.531 36.9686 L409.473 37.9813 Q418.628 39.7232 422.962 44.1387 Q427.337 48.5136 427.337 55.8863 Q427.337 64.6767 421.423 69.2137 Q415.549 73.7508 404.166 73.7508 Q399.872 73.7508 395.011 72.7785 Q390.19 71.8063 385.005 69.9024 L385.005 61.4765 Q389.988 64.2716 394.768 65.6895 Q399.548 67.1073 404.166 67.1073 Q411.174 67.1073 414.982 64.3527 Q418.79 61.598 418.79 56.4939 Q418.79 52.0379 416.035 49.5264 Q413.321 47.0148 407.083 45.759 L402.1 44.7868 Q392.945 42.9639 388.854 39.075 Q384.762 35.1862 384.762 28.2591 Q384.762 20.2383 390.393 15.6203 Q396.064 11.0023 405.989 11.0023 Q410.242 11.0023 414.658 11.7719 Q419.073 12.5416 423.691 14.0809 Z" fill="#000000" fill-rule="evenodd" fill-opacity="1" /><path clip-path="url(#clip190)" d="M 0 0 M439.004 54.671 L439.004 27.2059 L446.457 27.2059 L446.457 54.3874 Q446.457 60.8284 448.969 64.0691 Q451.481 67.2693 456.504 67.2693 Q462.539 67.2693 466.023 63.421 Q469.548 59.5726 469.548 52.9291 L469.548 27.2059 L477.001 27.2059 L477.001 72.576 L469.548 72.576 L469.548 65.6084 Q466.833 69.7404 463.228 71.7658 Q459.663 73.7508 454.924 73.7508 Q447.106 73.7508 443.055 68.8897 Q439.004 64.0286 439.004 54.671 M457.759 26.1121 L457.759 26.1121 Z" fill="#000000" fill-rule="evenodd" fill-opacity="1" /><path clip-path="url(#clip190)" d="M 0 0 M527.678 35.9153 Q530.473 30.8922 534.362 28.5022 Q538.251 26.1121 543.517 26.1121 Q550.606 26.1121 554.455 31.0947 Q558.303 36.0368 558.303 45.1919 L558.303 72.576 L550.809 72.576 L550.809 45.4349 Q550.809 38.913 548.5 35.7533 Q546.191 32.5936 541.451 32.5936 Q535.658 32.5936 532.296 36.4419 Q528.934 40.2903 528.934 46.9338 L528.934 72.576 L521.44 72.576 L521.44 45.4349 Q521.44 38.8725 519.131 35.7533 Q516.822 32.5936 512.001 32.5936 Q506.289 32.5936 502.927 36.4824 Q499.565 40.3308 499.565 46.9338 L499.565 72.576 L492.071 72.576 L492.071 27.2059 L499.565 27.2059 L499.565 34.2544 Q502.117 30.082 505.682 28.0971 Q509.246 26.1121 514.148 26.1121 Q519.09 26.1121 522.533 28.6237 Q526.017 31.1352 527.678 35.9153 Z" fill="#000000" fill-rule="evenodd" fill-opacity="1" /><path clip-path="url(#clip190)" d="M 0 0 M617.122 32.4315 Q611.127 32.4315 607.643 37.1306 Q604.159 41.7891 604.159 49.9314 Q604.159 58.0738 607.602 62.7728 Q611.086 67.4314 617.122 67.4314 Q623.077 67.4314 626.561 62.7323 Q630.044 58.0333 630.044 49.9314 Q630.044 41.8701 626.561 37.1711 Q623.077 32.4315 617.122 32.4315 M617.122 26.1121 Q626.844 26.1121 632.394 32.4315 Q637.944 38.7509 637.944 49.9314 Q637.944 61.0714 632.394 67.4314 Q626.844 73.7508 617.122 73.7508 Q607.359 73.7508 601.81 67.4314 Q596.3 61.0714 596.3 49.9314 Q596.3 38.7509 601.81 32.4315 Q607.359 26.1121 617.122 26.1121 Z" fill="#000000" fill-rule="evenodd" fill-opacity="1" /><path clip-path="url(#clip190)" d="M 0 0 M673.268 9.54393 L673.268 15.7418 L666.138 15.7418 Q662.128 15.7418 660.548 17.3622 Q659.008 18.9825 659.008 23.1955 L659.008 27.2059 L671.283 27.2059 L671.283 32.9987 L659.008 32.9987 L659.008 72.576 L651.514 72.576 L651.514 32.9987 L644.385 32.9987 L644.385 27.2059 L651.514 27.2059 L651.514 24.0462 Q651.514 16.471 655.038 13.0277 Q658.563 9.54393 666.219 9.54393 L673.268 9.54393 Z" fill="#000000" fill-rule="evenodd" fill-opacity="1" /><path clip-path="url(#clip190)" d="M 0 0 M714.384 18.8205 L714.384 41.5461 L724.674 41.5461 Q730.385 41.5461 733.504 38.5889 Q736.624 35.6318 736.624 30.163 Q736.624 24.7348 733.504 21.7777 Q730.385 18.8205 724.674 18.8205 L714.384 18.8205 M706.201 12.096 L724.674 12.096 Q734.841 12.096 740.026 16.714 Q745.252 21.2916 745.252 30.163 Q745.252 39.1155 740.026 43.6931 Q734.841 48.2706 724.674 48.2706 L714.384 48.2706 L714.384 72.576 L706.201 72.576 L706.201 12.096 Z" fill="#000000" fill-rule="evenodd" fill-opacity="1" /><path clip-path="url(#clip190)" d="M 0 0 M793.62 45.1919 L793.62 72.576 L786.166 72.576 L786.166 45.4349 Q786.166 38.994 783.655 35.7938 Q781.143 32.5936 776.12 32.5936 Q770.084 32.5936 766.6 36.4419 Q763.117 40.2903 763.117 46.9338 L763.117 72.576 L755.622 72.576 L755.622 9.54393 L763.117 9.54393 L763.117 34.2544 Q765.79 30.163 769.395 28.1376 Q773.041 26.1121 777.781 26.1121 Q785.599 26.1121 789.61 30.9732 Q793.62 35.7938 793.62 45.1919 Z" fill="#000000" fill-rule="evenodd" fill-opacity="1" /><path clip-path="url(#clip190)" d="M 0 0 M826.068 32.4315 Q820.072 32.4315 816.589 37.1306 Q813.105 41.7891 813.105 49.9314 Q813.105 58.0738 816.548 62.7728 Q820.032 67.4314 826.068 67.4314 Q832.022 67.4314 835.506 62.7323 Q838.99 58.0333 838.99 49.9314 Q838.99 41.8701 835.506 37.1711 Q832.022 32.4315 826.068 32.4315 M826.068 26.1121 Q835.79 26.1121 841.34 32.4315 Q846.889 38.7509 846.889 49.9314 Q846.889 61.0714 841.34 67.4314 Q835.79 73.7508 826.068 73.7508 Q816.305 73.7508 810.755 67.4314 Q805.246 61.0714 805.246 49.9314 Q805.246 38.7509 810.755 32.4315 Q816.305 26.1121 826.068 26.1121 Z" fill="#000000" fill-rule="evenodd" fill-opacity="1" /><path clip-path="url(#clip190)" d="M 0 0 M866.617 14.324 L866.617 27.2059 L881.97 27.2059 L881.97 32.9987 L866.617 32.9987 L866.617 57.6282 Q866.617 63.1779 868.116 64.7578 Q869.655 66.3376 874.314 66.3376 L881.97 66.3376 L881.97 72.576 L874.314 72.576 Q865.685 72.576 862.404 69.3758 Q859.123 66.1351 859.123 57.6282 L859.123 32.9987 L853.654 32.9987 L853.654 27.2059 L859.123 27.2059 L859.123 14.324 L866.617 14.324 Z" fill="#000000" fill-rule="evenodd" fill-opacity="1" /><path clip-path="url(#clip190)" d="M 0 0 M909.354 32.4315 Q903.359 32.4315 899.875 37.1306 Q896.391 41.7891 896.391 49.9314 Q896.391 58.0738 899.835 62.7728 Q903.318 67.4314 909.354 67.4314 Q915.309 67.4314 918.793 62.7323 Q922.277 58.0333 922.277 49.9314 Q922.277 41.8701 918.793 37.1711 Q915.309 32.4315 909.354 32.4315 M909.354 26.1121 Q919.076 26.1121 924.626 32.4315 Q930.176 38.7509 930.176 49.9314 Q930.176 61.0714 924.626 67.4314 Q919.076 73.7508 909.354 73.7508 Q899.592 73.7508 894.042 67.4314 Q888.533 61.0714 888.533 49.9314 Q888.533 38.7509 894.042 32.4315 Q899.592 26.1121 909.354 26.1121 Z" fill="#000000" fill-rule="evenodd" fill-opacity="1" /><path clip-path="url(#clip190)" d="M 0 0 M980.245 45.1919 L980.245 72.576 L972.791 72.576 L972.791 45.4349 Q972.791 38.994 970.28 35.7938 Q967.768 32.5936 962.745 32.5936 Q956.709 32.5936 953.226 36.4419 Q949.742 40.2903 949.742 46.9338 L949.742 72.576 L942.248 72.576 L942.248 27.2059 L949.742 27.2059 L949.742 34.2544 Q952.415 30.163 956.021 28.1376 Q959.666 26.1121 964.406 26.1121 Q972.224 26.1121 976.235 30.9732 Q980.245 35.7938 980.245 45.1919 Z" fill="#000000" fill-rule="evenodd" fill-opacity="1" /><path clip-path="url(#clip190)" d="M 0 0 M1067.1 16.7545 L1067.1 25.383 Q1062.96 21.5346 1058.27 19.6307 Q1053.61 17.7268 1048.34 17.7268 Q1037.97 17.7268 1032.46 24.0867 Q1026.95 30.4061 1026.95 42.3968 Q1026.95 54.3469 1032.46 60.7069 Q1037.97 67.0263 1048.34 67.0263 Q1053.61 67.0263 1058.27 65.1223 Q1062.96 63.2184 1067.1 59.3701 L1067.1 67.9175 Q1062.8 70.8341 1057.98 72.2924 Q1053.2 73.7508 1047.85 73.7508 Q1034.12 73.7508 1026.22 65.3654 Q1018.32 56.9395 1018.32 42.3968 Q1018.32 27.8135 1026.22 19.4281 Q1034.12 11.0023 1047.85 11.0023 Q1053.28 11.0023 1058.06 12.4606 Q1062.88 13.8784 1067.1 16.7545 Z" fill="#000000" fill-rule="evenodd" fill-opacity="1" /><path clip-path="url(#clip190)" d="M 0 0 M1096.99 32.4315 Q1091 32.4315 1087.51 37.1306 Q1084.03 41.7891 1084.03 49.9314 Q1084.03 58.0738 1087.47 62.7728 Q1090.96 67.4314 1096.99 67.4314 Q1102.95 67.4314 1106.43 62.7323 Q1109.91 58.0333 1109.91 49.9314 Q1109.91 41.8701 1106.43 37.1711 Q1102.95 32.4315 1096.99 32.4315 M1096.99 26.1121 Q1106.71 26.1121 1112.26 32.4315 Q1117.81 38.7509 1117.81 49.9314 Q1117.81 61.0714 1112.26 67.4314 Q1106.71 73.7508 1096.99 73.7508 Q1087.23 73.7508 1081.68 67.4314 Q1076.17 61.0714 1076.17 49.9314 Q1076.17 38.7509 1081.68 32.4315 Q1087.23 26.1121 1096.99 26.1121 Z" fill="#000000" fill-rule="evenodd" fill-opacity="1" /><path clip-path="url(#clip190)" d="M 0 0 M1156.46 34.1734 Q1155.2 33.4443 1153.7 33.1202 Q1152.25 32.7556 1150.46 32.7556 Q1144.14 32.7556 1140.74 36.8875 Q1137.38 40.9789 1137.38 48.6757 L1137.38 72.576 L1129.89 72.576 L1129.89 27.2059 L1137.38 27.2059 L1137.38 34.2544 Q1139.73 30.1225 1143.5 28.1376 Q1147.26 26.1121 1152.65 26.1121 Q1153.42 26.1121 1154.35 26.2337 Q1155.28 26.3147 1156.42 26.5172 L1156.46 34.1734 Z" fill="#000000" fill-rule="evenodd" fill-opacity="1" /><path clip-path="url(#clip190)" d="M 0 0 M1189.11 34.1734 Q1187.85 33.4443 1186.36 33.1202 Q1184.9 32.7556 1183.11 32.7556 Q1176.79 32.7556 1173.39 36.8875 Q1170.03 40.9789 1170.03 48.6757 L1170.03 72.576 L1162.54 72.576 L1162.54 27.2059 L1170.03 27.2059 L1170.03 34.2544 Q1172.38 30.1225 1176.15 28.1376 Q1179.91 26.1121 1185.3 26.1121 Q1186.07 26.1121 1187 26.2337 Q1187.93 26.3147 1189.07 26.5172 L1189.11 34.1734 Z" fill="#000000" fill-rule="evenodd" fill-opacity="1" /><path clip-path="url(#clip190)" d="M 0 0 M1233.91 48.0275 L1233.91 51.6733 L1199.64 51.6733 Q1200.13 59.3701 1204.26 63.421 Q1208.43 67.4314 1215.85 67.4314 Q1220.14 67.4314 1224.15 66.3781 Q1228.2 65.3249 1232.17 63.2184 L1232.17 70.267 Q1228.16 71.9684 1223.95 72.8596 Q1219.73 73.7508 1215.4 73.7508 Q1204.54 73.7508 1198.18 67.4314 Q1191.86 61.1119 1191.86 50.3365 Q1191.86 39.1965 1197.86 32.6746 Q1203.9 26.1121 1214.1 26.1121 Q1223.26 26.1121 1228.57 32.0264 Q1233.91 37.9003 1233.91 48.0275 M1226.46 45.84 Q1226.38 39.7232 1223.02 36.0774 Q1219.69 32.4315 1214.18 32.4315 Q1207.95 32.4315 1204.18 35.9558 Q1200.45 39.4801 1199.89 45.8805 L1226.46 45.84 Z" fill="#000000" fill-rule="evenodd" fill-opacity="1" /><path clip-path="url(#clip190)" d="M 0 0 M1246.15 9.54393 L1253.6 9.54393 L1253.6 72.576 L1246.15 72.576 L1246.15 9.54393 Z" fill="#000000" fill-rule="evenodd" fill-opacity="1" /><path clip-path="url(#clip190)" d="M 0 0 M1289.82 49.7694 Q1280.78 49.7694 1277.3 51.8354 Q1273.81 53.9013 1273.81 58.8839 Q1273.81 62.8538 1276.41 65.2034 Q1279.04 67.5124 1283.54 67.5124 Q1289.73 67.5124 1293.46 63.1374 Q1297.23 58.7219 1297.23 51.4303 L1297.23 49.7694 L1289.82 49.7694 M1304.68 46.6907 L1304.68 72.576 L1297.23 72.576 L1297.23 65.6895 Q1294.68 69.8214 1290.87 71.8063 Q1287.06 73.7508 1281.55 73.7508 Q1274.58 73.7508 1270.45 69.8619 Q1266.36 65.9325 1266.36 59.3701 Q1266.36 51.7138 1271.46 47.825 Q1276.61 43.9361 1286.78 43.9361 L1297.23 43.9361 L1297.23 43.2069 Q1297.23 38.0623 1293.83 35.2672 Q1290.46 32.4315 1284.35 32.4315 Q1280.46 32.4315 1276.77 33.3632 Q1273.08 34.295 1269.68 36.1584 L1269.68 29.2718 Q1273.77 27.692 1277.62 26.9223 Q1281.47 26.1121 1285.12 26.1121 Q1294.96 26.1121 1299.82 31.2163 Q1304.68 36.3204 1304.68 46.6907 Z" fill="#000000" fill-rule="evenodd" fill-opacity="1" /><path clip-path="url(#clip190)" d="M 0 0 M1327.41 14.324 L1327.41 27.2059 L1342.76 27.2059 L1342.76 32.9987 L1327.41 32.9987 L1327.41 57.6282 Q1327.41 63.1779 1328.91 64.7578 Q1330.45 66.3376 1335.1 66.3376 L1342.76 66.3376 L1342.76 72.576 L1335.1 72.576 Q1326.48 72.576 1323.19 69.3758 Q1319.91 66.1351 1319.91 57.6282 L1319.91 32.9987 L1314.44 32.9987 L1314.44 27.2059 L1319.91 27.2059 L1319.91 14.324 L1327.41 14.324 Z" fill="#000000" fill-rule="evenodd" fill-opacity="1" /><path clip-path="url(#clip190)" d="M 0 0 M1352.56 27.2059 L1360.02 27.2059 L1360.02 72.576 L1352.56 72.576 L1352.56 27.2059 M1352.56 9.54393 L1360.02 9.54393 L1360.02 18.9825 L1352.56 18.9825 L1352.56 9.54393 Z" fill="#000000" fill-rule="evenodd" fill-opacity="1" /><path clip-path="url(#clip190)" d="M 0 0 M1393.19 32.4315 Q1387.2 32.4315 1383.72 37.1306 Q1380.23 41.7891 1380.23 49.9314 Q1380.23 58.0738 1383.67 62.7728 Q1387.16 67.4314 1393.19 67.4314 Q1399.15 67.4314 1402.63 62.7323 Q1406.12 58.0333 1406.12 49.9314 Q1406.12 41.8701 1402.63 37.1711 Q1399.15 32.4315 1393.19 32.4315 M1393.19 26.1121 Q1402.92 26.1121 1408.47 32.4315 Q1414.02 38.7509 1414.02 49.9314 Q1414.02 61.0714 1408.47 67.4314 Q1402.92 73.7508 1393.19 73.7508 Q1383.43 73.7508 1377.88 67.4314 Q1372.37 61.0714 1372.37 49.9314 Q1372.37 38.7509 1377.88 32.4315 Q1383.43 26.1121 1393.19 26.1121 Z" fill="#000000" fill-rule="evenodd" fill-opacity="1" /><path clip-path="url(#clip190)" d="M 0 0 M1464.09 45.1919 L1464.09 72.576 L1456.63 72.576 L1456.63 45.4349 Q1456.63 38.994 1454.12 35.7938 Q1451.61 32.5936 1446.59 32.5936 Q1440.55 32.5936 1437.07 36.4419 Q1433.58 40.2903 1433.58 46.9338 L1433.58 72.576 L1426.09 72.576 L1426.09 27.2059 L1433.58 27.2059 L1433.58 34.2544 Q1436.26 30.163 1439.86 28.1376 Q1443.51 26.1121 1448.25 26.1121 Q1456.06 26.1121 1460.07 30.9732 Q1464.09 35.7938 1464.09 45.1919 Z" fill="#000000" fill-rule="evenodd" fill-opacity="1" /><path clip-path="url(#clip190)" d="M 0 0 M1507.88 28.5427 L1507.88 35.5912 Q1504.72 33.9709 1501.31 33.1607 Q1497.91 32.3505 1494.26 32.3505 Q1488.71 32.3505 1485.92 34.0519 Q1483.16 35.7533 1483.16 39.156 Q1483.16 41.7486 1485.15 43.2475 Q1487.13 44.7058 1493.13 46.0426 L1495.68 46.6097 Q1503.62 48.3111 1506.94 51.4303 Q1510.31 54.509 1510.31 60.0587 Q1510.31 66.3781 1505.28 70.0644 Q1500.3 73.7508 1491.55 73.7508 Q1487.9 73.7508 1483.93 73.0216 Q1480.01 72.3329 1475.63 70.9151 L1475.63 63.2184 Q1479.76 65.3654 1483.77 66.4591 Q1487.78 67.5124 1491.71 67.5124 Q1496.98 67.5124 1499.81 65.73 Q1502.65 63.9071 1502.65 60.6258 Q1502.65 57.5877 1500.58 55.9673 Q1498.56 54.3469 1491.63 52.8481 L1489.04 52.2405 Q1482.11 50.7821 1479.03 47.7845 Q1475.95 44.7463 1475.95 39.4801 Q1475.95 33.0797 1480.49 29.5959 Q1485.03 26.1121 1493.37 26.1121 Q1497.51 26.1121 1501.15 26.7198 Q1504.8 27.3274 1507.88 28.5427 Z" fill="#000000" fill-rule="evenodd" fill-opacity="1" /><path clip-path="url(#clip190)" d="M 0 0 M1543.2 27.2059 L1551.1 27.2059 L1565.28 65.2844 L1579.45 27.2059 L1587.35 27.2059 L1570.34 72.576 L1560.21 72.576 L1543.2 27.2059 Z" fill="#000000" fill-rule="evenodd" fill-opacity="1" /><path clip-path="url(#clip190)" d="M 0 0 M1626.57 28.5427 L1626.57 35.5912 Q1623.41 33.9709 1620 33.1607 Q1616.6 32.3505 1612.96 32.3505 Q1607.41 32.3505 1604.61 34.0519 Q1601.86 35.7533 1601.86 39.156 Q1601.86 41.7486 1603.84 43.2475 Q1605.83 44.7058 1611.82 46.0426 L1614.37 46.6097 Q1622.31 48.3111 1625.64 51.4303 Q1629 54.509 1629 60.0587 Q1629 66.3781 1623.97 70.0644 Q1618.99 73.7508 1610.24 73.7508 Q1606.6 73.7508 1602.63 73.0216 Q1598.7 72.3329 1594.32 70.9151 L1594.32 63.2184 Q1598.45 65.3654 1602.46 66.4591 Q1606.47 67.5124 1610.4 67.5124 Q1615.67 67.5124 1618.51 65.73 Q1621.34 63.9071 1621.34 60.6258 Q1621.34 57.5877 1619.28 55.9673 Q1617.25 54.3469 1610.32 52.8481 L1607.73 52.2405 Q1600.8 50.7821 1597.72 47.7845 Q1594.65 44.7463 1594.65 39.4801 Q1594.65 33.0797 1599.18 29.5959 Q1603.72 26.1121 1612.06 26.1121 Q1616.2 26.1121 1619.84 26.7198 Q1623.49 27.3274 1626.57 28.5427 Z" fill="#000000" fill-rule="evenodd" fill-opacity="1" /><path clip-path="url(#clip190)" d="M 0 0 M1659.18 12.096 L1710.34 12.096 L1710.34 18.9825 L1688.87 18.9825 L1688.87 72.576 L1680.65 72.576 L1680.65 18.9825 L1659.18 18.9825 L1659.18 12.096 Z" fill="#000000" fill-rule="evenodd" fill-opacity="1" /><path clip-path="url(#clip190)" d="M 0 0 M1715.36 27.2059 L1722.82 27.2059 L1722.82 72.576 L1715.36 72.576 L1715.36 27.2059 M1715.36 9.54393 L1722.82 9.54393 L1722.82 18.9825 L1715.36 18.9825 L1715.36 9.54393 Z" fill="#000000" fill-rule="evenodd" fill-opacity="1" /><path clip-path="url(#clip190)" d="M 0 0 M1773.74 35.9153 Q1776.53 30.8922 1780.42 28.5022 Q1784.31 26.1121 1789.58 26.1121 Q1796.66 26.1121 1800.51 31.0947 Q1804.36 36.0368 1804.36 45.1919 L1804.36 72.576 L1796.87 72.576 L1796.87 45.4349 Q1796.87 38.913 1794.56 35.7533 Q1792.25 32.5936 1787.51 32.5936 Q1781.72 32.5936 1778.35 36.4419 Q1774.99 40.2903 1774.99 46.9338 L1774.99 72.576 L1767.5 72.576 L1767.5 45.4349 Q1767.5 38.8725 1765.19 35.7533 Q1762.88 32.5936 1758.06 32.5936 Q1752.35 32.5936 1748.99 36.4824 Q1745.62 40.3308 1745.62 46.9338 L1745.62 72.576 L1738.13 72.576 L1738.13 27.2059 L1745.62 27.2059 L1745.62 34.2544 Q1748.17 30.082 1751.74 28.0971 Q1755.3 26.1121 1760.21 26.1121 Q1765.15 26.1121 1768.59 28.6237 Q1772.08 31.1352 1773.74 35.9153 Z" fill="#000000" fill-rule="evenodd" fill-opacity="1" /><path clip-path="url(#clip190)" d="M 0 0 M1858.04 48.0275 L1858.04 51.6733 L1823.76 51.6733 Q1824.25 59.3701 1828.38 63.421 Q1832.56 67.4314 1839.97 67.4314 Q1844.26 67.4314 1848.27 66.3781 Q1852.32 65.3249 1856.29 63.2184 L1856.29 70.267 Q1852.28 71.9684 1848.07 72.8596 Q1843.86 73.7508 1839.52 73.7508 Q1828.67 73.7508 1822.31 67.4314 Q1815.99 61.1119 1815.99 50.3365 Q1815.99 39.1965 1821.98 32.6746 Q1828.02 26.1121 1838.23 26.1121 Q1847.38 26.1121 1852.69 32.0264 Q1858.04 37.9003 1858.04 48.0275 M1850.58 45.84 Q1850.5 39.7232 1847.14 36.0774 Q1843.82 32.4315 1838.31 32.4315 Q1832.07 32.4315 1828.3 35.9558 Q1824.58 39.4801 1824.01 45.8805 L1850.58 45.84 Z" fill="#000000" fill-rule="evenodd" fill-opacity="1" /><path clip-path="url(#clip190)" d="M 0 0 M1921.51 17.6457 Q1912.6 17.6457 1907.33 24.2892 Q1902.11 30.9327 1902.11 42.3968 Q1902.11 53.8203 1907.33 60.4638 Q1912.6 67.1073 1921.51 67.1073 Q1930.43 67.1073 1935.61 60.4638 Q1940.84 53.8203 1940.84 42.3968 Q1940.84 30.9327 1935.61 24.2892 Q1930.43 17.6457 1921.51 17.6457 M1921.51 11.0023 Q1934.23 11.0023 1941.85 19.5497 Q1949.46 28.0566 1949.46 42.3968 Q1949.46 56.6965 1941.85 65.2439 Q1934.23 73.7508 1921.51 73.7508 Q1908.75 73.7508 1901.1 65.2439 Q1893.48 56.737 1893.48 42.3968 Q1893.48 28.0566 1901.1 19.5497 Q1908.75 11.0023 1921.51 11.0023 Z" fill="#000000" fill-rule="evenodd" fill-opacity="1" /><path clip-path="url(#clip190)" d="M 0 0 M1984.91 9.54393 L1984.91 15.7418 L1977.78 15.7418 Q1973.77 15.7418 1972.19 17.3622 Q1970.65 18.9825 1970.65 23.1955 L1970.65 27.2059 L1982.92 27.2059 L1982.92 32.9987 L1970.65 32.9987 L1970.65 72.576 L1963.16 72.576 L1963.16 32.9987 L1956.03 32.9987 L1956.03 27.2059 L1963.16 27.2059 L1963.16 24.0462 Q1963.16 16.471 1966.68 13.0277 Q1970.21 9.54393 1977.86 9.54393 L1984.91 9.54393 Z" fill="#000000" fill-rule="evenodd" fill-opacity="1" /><path clip-path="url(#clip190)" d="M 0 0 M2014.12 9.54393 L2014.12 15.7418 L2006.99 15.7418 Q2002.98 15.7418 2001.4 17.3622 Q1999.86 18.9825 1999.86 23.1955 L1999.86 27.2059 L2012.13 27.2059 L2012.13 32.9987 L1999.86 32.9987 L1999.86 72.576 L1992.36 72.576 L1992.36 32.9987 L1985.23 32.9987 L1985.23 27.2059 L1992.36 27.2059 L1992.36 24.0462 Q1992.36 16.471 1995.89 13.0277 Q1999.41 9.54393 2007.07 9.54393 L2014.12 9.54393 Z" fill="#000000" fill-rule="evenodd" fill-opacity="1" /><path clip-path="url(#clip190)" d="M 0 0 M2049.28 28.5427 L2049.28 35.5912 Q2046.12 33.9709 2042.72 33.1607 Q2039.31 32.3505 2035.67 32.3505 Q2030.12 32.3505 2027.32 34.0519 Q2024.57 35.7533 2024.57 39.156 Q2024.57 41.7486 2026.55 43.2475 Q2028.54 44.7058 2034.53 46.0426 L2037.09 46.6097 Q2045.03 48.3111 2048.35 51.4303 Q2051.71 54.509 2051.71 60.0587 Q2051.71 66.3781 2046.69 70.0644 Q2041.7 73.7508 2032.95 73.7508 Q2029.31 73.7508 2025.34 73.0216 Q2021.41 72.3329 2017.03 70.9151 L2017.03 63.2184 Q2021.17 65.3654 2025.18 66.4591 Q2029.19 67.5124 2033.12 67.5124 Q2038.38 67.5124 2041.22 65.73 Q2044.05 63.9071 2044.05 60.6258 Q2044.05 57.5877 2041.99 55.9673 Q2039.96 54.3469 2033.03 52.8481 L2030.44 52.2405 Q2023.51 50.7821 2020.44 47.7845 Q2017.36 44.7463 2017.36 39.4801 Q2017.36 33.0797 2021.89 29.5959 Q2026.43 26.1121 2034.78 26.1121 Q2038.91 26.1121 2042.55 26.7198 Q2046.2 27.3274 2049.28 28.5427 Z" fill="#000000" fill-rule="evenodd" fill-opacity="1" /><path clip-path="url(#clip190)" d="M 0 0 M2102.39 48.0275 L2102.39 51.6733 L2068.12 51.6733 Q2068.6 59.3701 2072.73 63.421 Q2076.91 67.4314 2084.32 67.4314 Q2088.61 67.4314 2092.62 66.3781 Q2096.67 65.3249 2100.64 63.2184 L2100.64 70.267 Q2096.63 71.9684 2092.42 72.8596 Q2088.21 73.7508 2083.87 73.7508 Q2073.02 73.7508 2066.66 67.4314 Q2060.34 61.1119 2060.34 50.3365 Q2060.34 39.1965 2066.33 32.6746 Q2072.37 26.1121 2082.58 26.1121 Q2091.73 26.1121 2097.04 32.0264 Q2102.39 37.9003 2102.39 48.0275 M2094.93 45.84 Q2094.85 39.7232 2091.49 36.0774 Q2088.17 32.4315 2082.66 32.4315 Q2076.42 32.4315 2072.65 35.9558 Q2068.93 39.4801 2068.36 45.8805 L2094.93 45.84 Z" fill="#000000" fill-rule="evenodd" fill-opacity="1" /><path clip-path="url(#clip190)" d="M 0 0 M2121.99 14.324 L2121.99 27.2059 L2137.35 27.2059 L2137.35 32.9987 L2121.99 32.9987 L2121.99 57.6282 Q2121.99 63.1779 2123.49 64.7578 Q2125.03 66.3376 2129.69 66.3376 L2137.35 66.3376 L2137.35 72.576 L2129.69 72.576 Q2121.06 72.576 2117.78 69.3758 Q2114.5 66.1351 2114.5 57.6282 L2114.5 32.9987 L2109.03 32.9987 L2109.03 27.2059 L2114.5 27.2059 L2114.5 14.324 L2121.99 14.324 Z" fill="#000000" fill-rule="evenodd" fill-opacity="1" /><polyline clip-path="url(#clip193)" style="stroke:#009af9; stroke-width:4; stroke-opacity:1; fill:none" points="
  321.712,158.575 323.593,1034.95 325.473,1283.85 327.354,1272.47 329.234,1282.24 331.115,1285.44 332.995,1282.2 334.876,1277.21 336.757,1277.1 338.637,1292.56 
  340.518,1282.77 342.398,1282.28 344.279,1290.09 346.159,1308.15 348.04,1305.12 349.921,1288.45 351.801,1304.23 353.682,1310.97 355.562,1302.62 357.443,1299.21 
  359.323,1293.71 361.204,1297.54 363.084,1309.58 364.965,1299.47 366.846,1304.52 368.726,1278.44 370.607,1286.42 372.487,1272.79 374.368,1294.72 376.248,1286.39 
  378.129,1287.44 380.01,1284.04 381.89,1270.71 383.771,1276.25 385.651,1285.07 387.532,1299.56 389.412,1262.08 391.293,1274.46 393.174,1293.94 395.054,1277.95 
  396.935,1276.47 398.815,1280.83 400.696,1302.13 402.576,1305.97 404.457,1283.58 406.337,1296.55 408.218,1277.39 410.099,1287.49 411.979,1304.12 413.86,1291.03 
  415.74,1284.84 417.621,1296.73 419.501,1298.18 421.382,1311.2 423.263,1308.15 425.143,1291.12 427.024,1299.7 428.904,1304.98 430.785,1301.56 432.665,1281.24 
  434.546,1285 436.426,1294.01 438.307,1255.4 440.188,1259.26 442.068,1292.33 443.949,1256.15 445.829,1260.16 447.71,1263.82 449.59,1266.07 451.471,1269.17 
  453.352,1278.55 455.232,1277.66 457.113,1296.56 458.993,1293.1 460.874,1283.04 462.754,1281.34 464.635,1291.88 466.515,1286.54 468.396,1285.51 470.277,1286.2 
  472.157,1267.82 474.038,1301.84 475.918,1313.88 477.799,1312.99 479.679,1313.14 481.56,1306.17 483.441,1303.68 485.321,1298.81 487.202,1309.31 489.082,1294.43 
  490.963,1295.11 492.843,1278.2 494.724,1280.17 496.605,1281.21 498.485,1276.84 500.366,1264.53 502.246,1264.72 504.127,1264.43 506.007,1268.09 507.888,1271.56 
  509.768,1298 511.649,1290.9 513.53,1283.03 515.41,1272.83 517.291,1278.97 519.171,1259.12 521.052,1259.32 522.932,1268.76 524.813,1277.37 526.694,1294.44 
  528.574,1308.57 530.455,1292.23 532.335,1291.28 534.216,1276.31 536.096,1294.53 537.977,1280.35 539.857,1276.01 541.738,1275.05 543.619,1289.59 545.499,1312.67 
  547.38,1301.42 549.26,1287.13 551.141,1288.12 553.021,1273.98 554.902,1292.99 556.783,1285.53 558.663,1266.23 560.544,1268.07 562.424,1281.21 564.305,1286.62 
  566.185,1272.93 568.066,1263.17 569.947,1260.74 571.827,1261.68 573.708,1268.44 575.588,1273.94 577.469,1279.54 579.349,1283.91 581.23,1296.01 583.11,1288.8 
  584.991,1279.47 586.872,1283.47 588.752,1288.24 590.633,1299.62 592.513,1296.32 594.394,1294.66 596.274,1307.03 598.155,1316.78 600.036,1311.28 601.916,1297.05 
  603.797,1308.88 605.677,1312.09 607.558,1294.69 609.438,1306.29 611.319,1299.84 613.199,1301.23 615.08,1297.6 616.961,1291.04 618.841,1278.84 620.722,1296.47 
  622.602,1281.25 624.483,1289.69 626.363,1291.18 628.244,1290.55 630.125,1267.02 632.005,1248.8 633.886,1274.95 635.766,1277.07 637.647,1274.04 639.527,1277.44 
  641.408,1289.23 643.288,1282.32 645.169,1272.58 647.05,1257.52 648.93,1292.46 650.811,1281.78 652.691,1286.08 654.572,1298.03 656.452,1289.32 658.333,1300.54 
  660.214,1309.33 662.094,1299.93 663.975,1284.89 665.855,1294.34 667.736,1319.71 669.616,1310.08 671.497,1316.4 673.378,1320.94 675.258,1304.45 677.139,1303.11 
  679.019,1293.11 680.9,1282.91 682.78,1273.27 684.661,1269.73 686.541,1282.28 688.422,1284.62 690.303,1279.91 692.183,1291.66 694.064,1279.9 695.944,1283.59 
  697.825,1292.49 699.705,1267.72 701.586,1264.19 703.467,1283.56 705.347,1295.4 707.228,1283.24 709.108,1300.79 710.989,1268.01 712.869,1270.67 714.75,1291.94 
  716.63,1275.19 718.511,1278.72 720.392,1306.33 722.272,1297.86 724.153,1297.78 726.033,1308.31 727.914,1300.73 729.794,1301.78 731.675,1296.91 733.556,1291.58 
  735.436,1302.05 737.317,1296.75 739.197,1303.28 741.078,1296.91 742.958,1280.53 744.839,1274.26 746.72,1289.82 748.6,1296.84 750.481,1300.75 752.361,1273.57 
  754.242,1278.28 756.122,1292.91 758.003,1281.52 759.883,1275.67 761.764,1256.86 763.645,1265.69 765.525,1269.5 767.406,1266.78 769.286,1265.32 771.167,1261.7 
  773.047,1262.9 774.928,1274.68 776.809,1271.77 778.689,1276.21 780.57,1290.08 782.45,1300.08 784.331,1308.61 786.211,1309.88 788.092,1304.21 789.972,1294.41 
  791.853,1284.18 793.734,1282.78 795.614,1296.75 797.495,1307.46 799.375,1292.19 801.256,1275.46 803.136,1290.8 805.017,1298.61 806.898,1297.84 808.778,1309.13 
  810.659,1279.33 812.539,1266.68 814.42,1264.06 816.3,1280.12 818.181,1291.11 820.062,1294.47 821.942,1288.25 823.823,1257.99 825.703,1273.08 827.584,1292.51 
  829.464,1281.02 831.345,1267.3 833.225,1271.28 835.106,1273.73 836.987,1290.86 838.867,1287.49 840.748,1287.19 842.628,1288.83 844.509,1267.94 846.389,1299.95 
  848.27,1300.39 850.151,1295.84 852.031,1304.7 853.912,1313.21 855.792,1325.75 857.673,1286.83 859.553,1275.1 861.434,1271.08 863.314,1298.99 865.195,1294.46 
  867.076,1271.57 868.956,1289.24 870.837,1296.59 872.717,1277.58 874.598,1286.73 876.478,1293.63 878.359,1287.19 880.24,1280.69 882.12,1261.99 884.001,1273.15 
  885.881,1275.68 887.762,1270.49 889.642,1309.54 891.523,1278.26 893.403,1279.4 895.284,1283.39 897.165,1285.87 899.045,1278.34 900.926,1300.46 902.806,1290.49 
  904.687,1286.14 906.567,1298.17 908.448,1302.56 910.329,1320.33 912.209,1312.07 914.09,1296 915.97,1290.8 917.851,1289.35 919.731,1300.74 921.612,1297.06 
  923.493,1281.09 925.373,1278.46 927.254,1272.2 929.134,1302.66 931.015,1299.65 932.895,1273.07 934.776,1281.04 936.656,1277.95 938.537,1258.45 940.418,1285.53 
  942.298,1288.09 944.179,1281.22 946.059,1293.67 947.94,1303.89 949.82,1299.42 951.701,1262.72 953.582,1267.94 955.462,1281.94 957.343,1303.29 959.223,1281.95 
  961.104,1273.75 962.984,1261.66 964.865,1278.04 966.745,1294.82 968.626,1297.66 970.507,1294.03 972.387,1282.12 974.268,1289.18 976.148,1294.95 978.029,1289.61 
  979.909,1296.8 981.79,1293.26 983.671,1288.3 985.551,1287.24 987.432,1309.43 989.312,1318.48 991.193,1300.24 993.073,1301.37 994.954,1275.83 996.835,1282.41 
  998.715,1300.91 1000.6,1290.91 1002.48,1290.51 1004.36,1285.15 1006.24,1254.41 1008.12,1258.98 1010,1277.76 1011.88,1274.15 1013.76,1247.94 1015.64,1273.62 
  1017.52,1268.61 1019.4,1282.82 1021.28,1281.56 1023.16,1286.04 1025.04,1294.14 1026.92,1288.51 1028.8,1274.68 1030.68,1269.44 1032.57,1279.44 1034.45,1304.9 
  1036.33,1305.84 1038.21,1312.59 1040.09,1310.45 1041.97,1286.09 1043.85,1280.21 1045.73,1295.83 1047.61,1278.6 1049.49,1284.51 1051.37,1290.33 1053.25,1281.7 
  1055.13,1276.35 1057.01,1278.58 1058.89,1294.79 1060.77,1285.58 1062.65,1263.92 1064.53,1276.49 1066.42,1298.75 1068.3,1288.7 1070.18,1264.9 1072.06,1260.38 
  1073.94,1292.31 1075.82,1281.22 1077.7,1279.8 1079.58,1283.49 1081.46,1301.24 1083.34,1286.63 1085.22,1286.68 1087.1,1282.74 1088.98,1287.47 1090.86,1294.66 
  1092.74,1300.74 1094.62,1285.32 1096.5,1282.91 1098.38,1296.76 1100.27,1294.5 1102.15,1295.59 1104.03,1305.52 1105.91,1311.91 1107.79,1297.58 1109.67,1282.96 
  1111.55,1282.4 1113.43,1278.5 1115.31,1272.65 1117.19,1277.94 1119.07,1299.81 1120.95,1303.09 1122.83,1290.34 1124.71,1285.36 1126.59,1293.91 1128.47,1288.88 
  1130.35,1271.33 1132.24,1280.22 1134.12,1280.54 1136,1241.59 1137.88,1252.05 1139.76,1255.76 1141.64,1282.07 1143.52,1293.09 1145.4,1282.62 1147.28,1328.69 
  1149.16,1308.8 1151.04,1295.42 1152.92,1273.93 1154.8,1275.2 1156.68,1293.65 1158.56,1286.88 1160.44,1278.02 1162.32,1284.14 1164.2,1307.13 1166.09,1294.6 
  1167.97,1286.84 1169.85,1290.87 1171.73,1291.24 1173.61,1291.71 1175.49,1286.48 1177.37,1294.25 1179.25,1296.86 1181.13,1284.08 1183.01,1291.29 1184.89,1295.58 
  1186.77,1283.28 1188.65,1269.44 1190.53,1281.07 1192.41,1278.85 1194.29,1271.42 1196.17,1257.46 1198.05,1279.27 1199.94,1277.22 1201.82,1272.82 1203.7,1286.5 
  1205.58,1271.13 1207.46,1277.41 1209.34,1266.34 1211.22,1281.89 1213.1,1282.73 1214.98,1311.55 1216.86,1298.12 1218.74,1294.87 1220.62,1304.38 1222.5,1310.54 
  1224.38,1294.76 1226.26,1289.39 1228.14,1319.02 1230.02,1298.43 1231.9,1307.49 1233.79,1305.63 1235.67,1292.99 1237.55,1281.81 1239.43,1271.42 1241.31,1283.29 
  1243.19,1277.67 1245.07,1283.44 1246.95,1299.66 1248.83,1269.96 1250.71,1247.92 1252.59,1264.15 1254.47,1270.06 1256.35,1268.6 1258.23,1273.91 1260.11,1270.03 
  1261.99,1262.39 1263.87,1273.01 1265.76,1283.67 1267.64,1269.64 1269.52,1262.17 1271.4,1293.7 1273.28,1294.4 1275.16,1287.49 1277.04,1286.5 1278.92,1286.23 
  1280.8,1291.5 1282.68,1277.45 1284.56,1292.37 1286.44,1296.29 1288.32,1298.7 1290.2,1293.32 1292.08,1299.8 1293.96,1317.71 1295.84,1318.88 1297.72,1311.15 
  1299.61,1295.98 1301.49,1306.49 1303.37,1291.19 1305.25,1285.48 1307.13,1276.32 1309.01,1277.07 1310.89,1282.49 1312.77,1293.39 1314.65,1286.41 1316.53,1269.05 
  1318.41,1268.23 1320.29,1281.93 1322.17,1280.51 1324.05,1280.32 1325.93,1273.33 1327.81,1288.55 1329.69,1293.4 1331.57,1279.31 1333.46,1262.37 1335.34,1260.87 
  1337.22,1269.36 1339.1,1283.3 1340.98,1289.02 1342.86,1289.87 1344.74,1296.54 1346.62,1294.5 1348.5,1302.82 1350.38,1309.72 1352.26,1300.78 1354.14,1302.27 
  1356.02,1301.22 1357.9,1286.51 1359.78,1285.84 1361.66,1284.12 1363.54,1305.69 1365.43,1304.07 1367.31,1299.28 1369.19,1295.65 1371.07,1292.8 1372.95,1275.25 
  1374.83,1259.24 1376.71,1282.41 1378.59,1292.38 1380.47,1270.87 1382.35,1281.84 1384.23,1271.53 1386.11,1275.96 1387.99,1287.5 1389.87,1272.39 1391.75,1286.92 
  1393.63,1285.66 1395.51,1286.64 1397.39,1279.08 1399.28,1277.33 1401.16,1283.12 1403.04,1286.54 1404.92,1283.72 1406.8,1299.19 1408.68,1285.25 1410.56,1271.21 
  1412.44,1280.75 1414.32,1297.74 1416.2,1308.43 1418.08,1287.35 1419.96,1287.04 1421.84,1284.67 1423.72,1300.48 1425.6,1314.96 1427.48,1288.37 1429.36,1277.8 
  1431.24,1275.65 1433.13,1293.55 1435.01,1290.56 1436.89,1285.64 1438.77,1275.83 1440.65,1282 1442.53,1274.79 1444.41,1277.81 1446.29,1287.58 1448.17,1276.87 
  1450.05,1261.12 1451.93,1264.38 1453.81,1249.88 1455.69,1261.28 1457.57,1277.99 1459.45,1272.06 1461.33,1251.49 1463.21,1271.1 1465.09,1295.07 1466.98,1299.99 
  1468.86,1309.75 1470.74,1307.36 1472.62,1295.95 1474.5,1306.18 1476.38,1321.74 1478.26,1322.93 1480.14,1313.38 1482.02,1303.28 1483.9,1304.94 1485.78,1312.49 
  1487.66,1296.99 1489.54,1308.28 1491.42,1292.27 1493.3,1288.23 1495.18,1288.65 1497.06,1278.82 1498.95,1280.26 1500.83,1300.37 1502.71,1297.63 1504.59,1282.94 
  1506.47,1275.65 1508.35,1269.6 1510.23,1282.76 1512.11,1310 1513.99,1295.74 1515.87,1288.63 1517.75,1279.89 1519.63,1278.53 1521.51,1274.43 1523.39,1267.37 
  1525.27,1260.99 1527.15,1287.55 1529.03,1287.1 1530.91,1281.93 1532.8,1295.08 1534.68,1280.62 1536.56,1272.35 1538.44,1289.74 1540.32,1307.36 1542.2,1307.84 
  1544.08,1314.21 1545.96,1306.96 1547.84,1318.4 1549.72,1294.76 1551.6,1275.66 1553.48,1296.35 1555.36,1280.96 1557.24,1269.24 1559.12,1299.15 1561,1283.8 
  1562.88,1288.35 1564.76,1281.68 1566.65,1278.14 1568.53,1283.72 1570.41,1285.33 1572.29,1271.26 1574.17,1264.74 1576.05,1285.24 1577.93,1279.88 1579.81,1270.61 
  1581.69,1272.86 1583.57,1249.68 1585.45,1273.7 1587.33,1295.63 1589.21,1286.77 1591.09,1285.79 1592.97,1288.76 1594.85,1286.04 1596.73,1299 1598.61,1307.76 
  1600.5,1326.44 1602.38,1295.7 1604.26,1291.91 1606.14,1304.86 1608.02,1293.72 1609.9,1265.59 1611.78,1288.98 1613.66,1303.55 1615.54,1309.98 1617.42,1298.32 
  1619.3,1275.19 1621.18,1277.48 1623.06,1294.55 1624.94,1288.2 1626.82,1275.22 1628.7,1281.95 1630.58,1270.21 1632.47,1269.69 1634.35,1277.55 1636.23,1304.51 
  1638.11,1285.88 1639.99,1277.8 1641.87,1290.37 1643.75,1276.24 1645.63,1264.84 1647.51,1267.69 1649.39,1283.52 1651.27,1294.3 1653.15,1273.51 1655.03,1301.83 
  1656.91,1307.05 1658.79,1287.04 1660.67,1294.47 1662.55,1305.96 1664.43,1288.77 1666.32,1293.72 1668.2,1281.52 1670.08,1281.16 1671.96,1274.39 1673.84,1289.18 
  1675.72,1281.42 1677.6,1284.02 1679.48,1287.57 1681.36,1289.06 1683.24,1293.65 1685.12,1292.05 1687,1285.91 1688.88,1302.11 1690.76,1275.85 1692.64,1282.62 
  1694.52,1283.82 1696.4,1268.23 1698.28,1261.95 1700.17,1265.21 1702.05,1275.7 1703.93,1282.85 1705.81,1263.16 1707.69,1270.5 1709.57,1297.11 1711.45,1296.96 
  1713.33,1259.76 1715.21,1265.47 1717.09,1290.62 1718.97,1302.14 1720.85,1296.98 1722.73,1285.8 1724.61,1287.49 1726.49,1295.96 1728.37,1294.84 1730.25,1313.55 
  1732.13,1290.43 1734.02,1285.92 1735.9,1288.66 1737.78,1281.78 1739.66,1295.44 1741.54,1310.73 1743.42,1295.94 1745.3,1286.18 1747.18,1273.36 1749.06,1275.67 
  1750.94,1270.63 1752.82,1283.08 1754.7,1271.97 1756.58,1280.34 1758.46,1267.07 1760.34,1272.07 1762.22,1275.07 1764.1,1281.41 1765.99,1286.58 1767.87,1302.23 
  1769.75,1297.19 1771.63,1287.3 1773.51,1286.96 1775.39,1296.73 1777.27,1306.29 1779.15,1302.16 1781.03,1287.4 1782.91,1285.72 1784.79,1296.07 1786.67,1286.3 
  1788.55,1294 1790.43,1276.05 1792.31,1293.82 1794.19,1296.01 1796.07,1311.27 1797.95,1302.03 1799.84,1281.63 1801.72,1291.84 1803.6,1280.22 1805.48,1289.56 
  1807.36,1294.73 1809.24,1275.06 1811.12,1292.77 1813,1290.93 1814.88,1282.38 1816.76,1282.58 1818.64,1276.74 1820.52,1269.76 1822.4,1276.78 1824.28,1280.4 
  1826.16,1316.97 1828.04,1279.3 1829.92,1272.41 1831.8,1286.57 1833.69,1286.27 1835.57,1271.84 1837.45,1277.68 1839.33,1289.33 1841.21,1283.7 1843.09,1287.67 
  1844.97,1297.15 1846.85,1287.81 1848.73,1291.92 1850.61,1280.97 1852.49,1298.6 1854.37,1295.22 1856.25,1297.31 1858.13,1299.16 1860.01,1313.32 1861.89,1286.01 
  1863.77,1289.91 1865.66,1298.45 1867.54,1301.35 1869.42,1294.08 1871.3,1280.76 1873.18,1296.81 1875.06,1305.94 1876.94,1298.28 1878.82,1283.91 1880.7,1284.74 
  1882.58,1276.37 1884.46,1291.9 1886.34,1301.17 1888.22,1295.11 1890.1,1290.26 1891.98,1289.6 1893.86,1314.36 1895.74,1283.11 1897.62,1270.3 1899.51,1273.06 
  1901.39,1285.18 1903.27,1285.79 1905.15,1297.87 1907.03,1299.21 1908.91,1280.2 1910.79,1277.41 1912.67,1266.64 1914.55,1293.96 1916.43,1311.59 1918.31,1287.09 
  1920.19,1273.28 1922.07,1287.21 1923.95,1287.61 1925.83,1298.26 1927.71,1308.83 1929.59,1288.08 1931.47,1267.55 1933.36,1274.42 1935.24,1284.36 1937.12,1291.69 
  1939,1297.34 1940.88,1285.75 1942.76,1291.84 1944.64,1283.95 1946.52,1292.81 1948.4,1306.84 1950.28,1276.96 1952.16,1270.52 1954.04,1296.09 1955.92,1289.78 
  1957.8,1294.84 1959.68,1287.26 1961.56,1278.36 1963.44,1276.12 1965.32,1281.88 1967.21,1285.13 1969.09,1293.93 1970.97,1317.75 1972.85,1310.42 1974.73,1299.96 
  1976.61,1293 1978.49,1280.32 1980.37,1287.21 1982.25,1276.49 1984.13,1284.42 1986.01,1303.76 1987.89,1287.88 1989.77,1286.84 1991.65,1292.84 1993.53,1290.12 
  1995.41,1287.93 1997.29,1287.18 1999.18,1287.78 2001.06,1276.27 2002.94,1281.13 2004.82,1268.33 2006.7,1273.11 2008.58,1291.27 2010.46,1301.1 2012.34,1291.82 
  2014.22,1278.3 2016.1,1282.54 2017.98,1288.82 2019.86,1295.33 2021.74,1293.81 2023.62,1284.77 2025.5,1286.54 2027.38,1273.52 2029.26,1287.14 2031.14,1293.54 
  2033.03,1308.41 2034.91,1301.79 2036.79,1285.6 2038.67,1286.96 2040.55,1300.15 2042.43,1306.1 2044.31,1298.47 2046.19,1294.41 2048.07,1278.84 2049.95,1283.14 
  2051.83,1280.23 2053.71,1273.41 2055.59,1274.52 2057.47,1297.06 2059.35,1281.21 2061.23,1277.87 2063.11,1287.18 2064.99,1275.45 2066.88,1275.03 2068.76,1286.19 
  2070.64,1281.51 2072.52,1275.56 2074.4,1281.72 2076.28,1286.17 2078.16,1295.41 2080.04,1291.47 2081.92,1273.82 2083.8,1264.98 2085.68,1281.5 2087.56,1291.86 
  2089.44,1295.52 2091.32,1283.31 2093.2,1280.95 2095.08,1306.48 2096.96,1302.85 2098.84,1309.32 2100.73,1302.45 2102.61,1297.45 2104.49,1293.85 2106.37,1299.71 
  2108.25,1299.87 2110.13,1281.04 2112.01,1282.9 2113.89,1298.83 2115.77,1278.76 2117.65,1293.73 2119.53,1301.97 2121.41,1303.94 2123.29,1279.46 2125.17,1283.01 
  2127.05,1279.03 2128.93,1282.93 2130.81,1300.88 2132.7,1284.38 2134.58,1286.19 2136.46,1294.26 2138.34,1282.3 2140.22,1281.62 2142.1,1268 2143.98,1275.02 
  2145.86,1282.35 2147.74,1255.76 2149.62,1277.27 2151.5,1278.04 2153.38,1281.67 2155.26,1273.14 2157.14,1282.15 2159.02,1304.9 2160.9,1303.51 2162.78,1311.5 
  2164.66,1294.7 2166.55,1277.85 2168.43,1296.38 2170.31,1294.53 2172.19,1301.55 2174.07,1308.47 2175.95,1292.9 2177.83,1295.21 2179.71,1283.9 2181.59,1299.19 
  2183.47,1284.26 2185.35,1270 2187.23,1306.7 2189.11,1303.01 2190.99,1283.94 2192.87,1271.58 2194.75,1284.22 2196.63,1296.76 2198.51,1282.07 2200.4,1269.51 
  
  "/>
</svg>
