<?xml version="1.0" encoding="utf-8"?>
<svg xmlns="http://www.w3.org/2000/svg" xmlns:xlink="http://www.w3.org/1999/xlink" width="576" height="384" viewBox="0 0 2304 1536">
<defs>
  <clipPath id="clip310">
    <rect x="0" y="0" width="2304" height="1536"/>
  </clipPath>
</defs>
<path clip-path="url(#clip310)" d="
M0 1536 L2304 1536 L2304 0 L0 0  Z
  " fill="#ffffff" fill-rule="evenodd" fill-opacity="1"/>
<defs>
  <clipPath id="clip311">
    <rect x="460" y="0" width="1614" height="1536"/>
  </clipPath>
</defs>
<defs>
  <clipPath id="clip312">
    <rect x="368" y="123" width="1889" height="1237"/>
  </clipPath>
</defs>
<path clip-path="url(#clip310)" d="
M223.059 1363.79 L2256.76 1363.79 L2256.76 123.472 L223.059 123.472  Z
  " fill="#ffffff" fill-rule="evenodd" fill-opacity="1"/>
<defs>
  <clipPath id="clip313">
    <rect x="223" y="123" width="2035" height="1241"/>
  </clipPath>
</defs>
<polyline clip-path="url(#clip313)" style="stroke:#000000; stroke-width:2; stroke-opacity:0.1; fill:none" points="
  280.617,1363.79 280.617,123.472 
  "/>
<polyline clip-path="url(#clip313)" style="stroke:#000000; stroke-width:2; stroke-opacity:0.1; fill:none" points="
  760.742,1363.79 760.742,123.472 
  "/>
<polyline clip-path="url(#clip313)" style="stroke:#000000; stroke-width:2; stroke-opacity:0.1; fill:none" points="
  1240.87,1363.79 1240.87,123.472 
  "/>
<polyline clip-path="url(#clip313)" style="stroke:#000000; stroke-width:2; stroke-opacity:0.1; fill:none" points="
  1720.99,1363.79 1720.99,123.472 
  "/>
<polyline clip-path="url(#clip313)" style="stroke:#000000; stroke-width:2; stroke-opacity:0.1; fill:none" points="
  2201.12,1363.79 2201.12,123.472 
  "/>
<polyline clip-path="url(#clip310)" style="stroke:#000000; stroke-width:4; stroke-opacity:1; fill:none" points="
  223.059,1363.79 2256.76,1363.79 
  "/>
<polyline clip-path="url(#clip310)" style="stroke:#000000; stroke-width:4; stroke-opacity:1; fill:none" points="
  280.617,1363.79 280.617,1348.91 
  "/>
<polyline clip-path="url(#clip310)" style="stroke:#000000; stroke-width:4; stroke-opacity:1; fill:none" points="
  760.742,1363.79 760.742,1348.91 
  "/>
<polyline clip-path="url(#clip310)" style="stroke:#000000; stroke-width:4; stroke-opacity:1; fill:none" points="
  1240.87,1363.79 1240.87,1348.91 
  "/>
<polyline clip-path="url(#clip310)" style="stroke:#000000; stroke-width:4; stroke-opacity:1; fill:none" points="
  1720.99,1363.79 1720.99,1348.91 
  "/>
<polyline clip-path="url(#clip310)" style="stroke:#000000; stroke-width:4; stroke-opacity:1; fill:none" points="
  2201.12,1363.79 2201.12,1348.91 
  "/>
<path clip-path="url(#clip310)" d="M 0 0 M258.001 1392.21 Q254.39 1392.21 252.561 1395.78 Q250.756 1399.32 250.756 1406.45 Q250.756 1413.56 252.561 1417.12 Q254.39 1420.66 258.001 1420.66 Q261.635 1420.66 263.441 1417.12 Q265.27 1413.56 265.27 1406.45 Q265.27 1399.32 263.441 1395.78 Q261.635 1392.21 258.001 1392.21 M258.001 1388.51 Q263.811 1388.51 266.867 1393.12 Q269.946 1397.7 269.946 1406.45 Q269.946 1415.18 266.867 1419.78 Q263.811 1424.37 258.001 1424.37 Q252.191 1424.37 249.112 1419.78 Q246.057 1415.18 246.057 1406.45 Q246.057 1397.7 249.112 1393.12 Q252.191 1388.51 258.001 1388.51 Z" fill="#000000" fill-rule="evenodd" fill-opacity="1" /><path clip-path="url(#clip310)" d="M 0 0 M278.163 1417.81 L283.047 1417.81 L283.047 1423.69 L278.163 1423.69 L278.163 1417.81 Z" fill="#000000" fill-rule="evenodd" fill-opacity="1" /><path clip-path="url(#clip310)" d="M 0 0 M303.232 1392.21 Q299.621 1392.21 297.793 1395.78 Q295.987 1399.32 295.987 1406.45 Q295.987 1413.56 297.793 1417.12 Q299.621 1420.66 303.232 1420.66 Q306.867 1420.66 308.672 1417.12 Q310.501 1413.56 310.501 1406.45 Q310.501 1399.32 308.672 1395.78 Q306.867 1392.21 303.232 1392.21 M303.232 1388.51 Q309.043 1388.51 312.098 1393.12 Q315.177 1397.7 315.177 1406.45 Q315.177 1415.18 312.098 1419.78 Q309.043 1424.37 303.232 1424.37 Q297.422 1424.37 294.344 1419.78 Q291.288 1415.18 291.288 1406.45 Q291.288 1397.7 294.344 1393.12 Q297.422 1388.51 303.232 1388.51 Z" fill="#000000" fill-rule="evenodd" fill-opacity="1" /><path clip-path="url(#clip310)" d="M 0 0 M732.479 1419.76 L748.798 1419.76 L748.798 1423.69 L726.854 1423.69 L726.854 1419.76 Q729.516 1417 734.099 1412.37 Q738.705 1407.72 739.886 1406.38 Q742.131 1403.86 743.011 1402.12 Q743.914 1400.36 743.914 1398.67 Q743.914 1395.92 741.969 1394.18 Q740.048 1392.44 736.946 1392.44 Q734.747 1392.44 732.293 1393.21 Q729.863 1393.97 727.085 1395.52 L727.085 1390.8 Q729.909 1389.67 732.363 1389.09 Q734.817 1388.51 736.854 1388.51 Q742.224 1388.51 745.418 1391.19 Q748.613 1393.88 748.613 1398.37 Q748.613 1400.5 747.803 1402.42 Q747.016 1404.32 744.909 1406.91 Q744.33 1407.58 741.229 1410.8 Q738.127 1413.99 732.479 1419.76 Z" fill="#000000" fill-rule="evenodd" fill-opacity="1" /><path clip-path="url(#clip310)" d="M 0 0 M758.613 1417.81 L763.497 1417.81 L763.497 1423.69 L758.613 1423.69 L758.613 1417.81 Z" fill="#000000" fill-rule="evenodd" fill-opacity="1" /><path clip-path="url(#clip310)" d="M 0 0 M773.728 1389.13 L792.085 1389.13 L792.085 1393.07 L778.011 1393.07 L778.011 1401.54 Q779.029 1401.19 780.048 1401.03 Q781.066 1400.85 782.085 1400.85 Q787.872 1400.85 791.251 1404.02 Q794.631 1407.19 794.631 1412.61 Q794.631 1418.18 791.159 1421.29 Q787.687 1424.37 781.367 1424.37 Q779.191 1424.37 776.923 1423.99 Q774.677 1423.62 772.27 1422.88 L772.27 1418.18 Q774.353 1419.32 776.576 1419.87 Q778.798 1420.43 781.275 1420.43 Q785.279 1420.43 787.617 1418.32 Q789.955 1416.22 789.955 1412.61 Q789.955 1408.99 787.617 1406.89 Q785.279 1404.78 781.275 1404.78 Q779.4 1404.78 777.525 1405.2 Q775.673 1405.62 773.728 1406.49 L773.728 1389.13 Z" fill="#000000" fill-rule="evenodd" fill-opacity="1" /><path clip-path="url(#clip310)" d="M 0 0 M1208.03 1389.13 L1226.39 1389.13 L1226.39 1393.07 L1212.31 1393.07 L1212.31 1401.54 Q1213.33 1401.19 1214.35 1401.03 Q1215.37 1400.85 1216.39 1400.85 Q1222.18 1400.85 1225.56 1404.02 Q1228.94 1407.19 1228.94 1412.61 Q1228.94 1418.18 1225.46 1421.29 Q1221.99 1424.37 1215.67 1424.37 Q1213.5 1424.37 1211.23 1423.99 Q1208.98 1423.62 1206.57 1422.88 L1206.57 1418.18 Q1208.66 1419.32 1210.88 1419.87 Q1213.1 1420.43 1215.58 1420.43 Q1219.58 1420.43 1221.92 1418.32 Q1224.26 1416.22 1224.26 1412.61 Q1224.26 1408.99 1221.92 1406.89 Q1219.58 1404.78 1215.58 1404.78 Q1213.7 1404.78 1211.83 1405.2 Q1209.98 1405.62 1208.03 1406.49 L1208.03 1389.13 Z" fill="#000000" fill-rule="evenodd" fill-opacity="1" /><path clip-path="url(#clip310)" d="M 0 0 M1238.15 1417.81 L1243.03 1417.81 L1243.03 1423.69 L1238.15 1423.69 L1238.15 1417.81 Z" fill="#000000" fill-rule="evenodd" fill-opacity="1" /><path clip-path="url(#clip310)" d="M 0 0 M1263.22 1392.21 Q1259.61 1392.21 1257.78 1395.78 Q1255.97 1399.32 1255.97 1406.45 Q1255.97 1413.56 1257.78 1417.12 Q1259.61 1420.66 1263.22 1420.66 Q1266.85 1420.66 1268.66 1417.12 Q1270.49 1413.56 1270.49 1406.45 Q1270.49 1399.32 1268.66 1395.78 Q1266.85 1392.21 1263.22 1392.21 M1263.22 1388.51 Q1269.03 1388.51 1272.08 1393.12 Q1275.16 1397.7 1275.16 1406.45 Q1275.16 1415.18 1272.08 1419.78 Q1269.03 1424.37 1263.22 1424.37 Q1257.41 1424.37 1254.33 1419.78 Q1251.27 1415.18 1251.27 1406.45 Q1251.27 1397.7 1254.33 1393.12 Q1257.41 1388.51 1263.22 1388.51 Z" fill="#000000" fill-rule="evenodd" fill-opacity="1" /><path clip-path="url(#clip310)" d="M 0 0 M1687.31 1389.13 L1709.54 1389.13 L1709.54 1391.12 L1696.99 1423.69 L1692.1 1423.69 L1703.91 1393.07 L1687.31 1393.07 L1687.31 1389.13 Z" fill="#000000" fill-rule="evenodd" fill-opacity="1" /><path clip-path="url(#clip310)" d="M 0 0 M1718.66 1417.81 L1723.54 1417.81 L1723.54 1423.69 L1718.66 1423.69 L1718.66 1417.81 Z" fill="#000000" fill-rule="evenodd" fill-opacity="1" /><path clip-path="url(#clip310)" d="M 0 0 M1733.77 1389.13 L1752.13 1389.13 L1752.13 1393.07 L1738.05 1393.07 L1738.05 1401.54 Q1739.07 1401.19 1740.09 1401.03 Q1741.11 1400.85 1742.13 1400.85 Q1747.91 1400.85 1751.29 1404.02 Q1754.67 1407.19 1754.67 1412.61 Q1754.67 1418.18 1751.2 1421.29 Q1747.73 1424.37 1741.41 1424.37 Q1739.23 1424.37 1736.97 1423.99 Q1734.72 1423.62 1732.31 1422.88 L1732.31 1418.18 Q1734.4 1419.32 1736.62 1419.87 Q1738.84 1420.43 1741.32 1420.43 Q1745.32 1420.43 1747.66 1418.32 Q1750 1416.22 1750 1412.61 Q1750 1408.99 1747.66 1406.89 Q1745.32 1404.78 1741.32 1404.78 Q1739.44 1404.78 1737.57 1405.2 Q1735.72 1405.62 1733.77 1406.49 L1733.77 1389.13 Z" fill="#000000" fill-rule="evenodd" fill-opacity="1" /><path clip-path="url(#clip310)" d="M 0 0 M2153.19 1419.76 L2160.83 1419.76 L2160.83 1393.39 L2152.52 1395.06 L2152.52 1390.8 L2160.78 1389.13 L2165.46 1389.13 L2165.46 1419.76 L2173.1 1419.76 L2173.1 1423.69 L2153.19 1423.69 L2153.19 1419.76 Z" fill="#000000" fill-rule="evenodd" fill-opacity="1" /><path clip-path="url(#clip310)" d="M 0 0 M2192.54 1392.21 Q2188.93 1392.21 2187.1 1395.78 Q2185.3 1399.32 2185.3 1406.45 Q2185.3 1413.56 2187.1 1417.12 Q2188.93 1420.66 2192.54 1420.66 Q2196.18 1420.66 2197.98 1417.12 Q2199.81 1413.56 2199.81 1406.45 Q2199.81 1399.32 2197.98 1395.78 Q2196.18 1392.21 2192.54 1392.21 M2192.54 1388.51 Q2198.35 1388.51 2201.41 1393.12 Q2204.49 1397.7 2204.49 1406.45 Q2204.49 1415.18 2201.41 1419.78 Q2198.35 1424.37 2192.54 1424.37 Q2186.73 1424.37 2183.65 1419.78 Q2180.6 1415.18 2180.6 1406.45 Q2180.6 1397.7 2183.65 1393.12 Q2186.73 1388.51 2192.54 1388.51 Z" fill="#000000" fill-rule="evenodd" fill-opacity="1" /><path clip-path="url(#clip310)" d="M 0 0 M2212.7 1417.81 L2217.59 1417.81 L2217.59 1423.69 L2212.7 1423.69 L2212.7 1417.81 Z" fill="#000000" fill-rule="evenodd" fill-opacity="1" /><path clip-path="url(#clip310)" d="M 0 0 M2237.77 1392.21 Q2234.16 1392.21 2232.33 1395.78 Q2230.53 1399.32 2230.53 1406.45 Q2230.53 1413.56 2232.33 1417.12 Q2234.16 1420.66 2237.77 1420.66 Q2241.41 1420.66 2243.21 1417.12 Q2245.04 1413.56 2245.04 1406.45 Q2245.04 1399.32 2243.21 1395.78 Q2241.41 1392.21 2237.77 1392.21 M2237.77 1388.51 Q2243.58 1388.51 2246.64 1393.12 Q2249.72 1397.7 2249.72 1406.45 Q2249.72 1415.18 2246.64 1419.78 Q2243.58 1424.37 2237.77 1424.37 Q2231.96 1424.37 2228.89 1419.78 Q2225.83 1415.18 2225.83 1406.45 Q2225.83 1397.7 2228.89 1393.12 Q2231.96 1388.51 2237.77 1388.51 Z" fill="#000000" fill-rule="evenodd" fill-opacity="1" /><path clip-path="url(#clip310)" d="M 0 0 M1190.44 1465.79 Q1190.44 1468.04 1187.19 1468.04 L1176.11 1468.04 L1171.7 1490.62 Q1171.6 1491.2 1171.47 1491.52 Q1171.37 1491.84 1171.08 1492.39 Q1170.83 1492.9 1170.28 1493.16 Q1169.76 1493.45 1168.99 1493.45 Q1168.02 1493.45 1167.54 1492.87 Q1167.09 1492.33 1167.09 1491.65 Q1167.09 1491.23 1167.73 1489.23 L1174.21 1468.04 L1168.73 1468.04 Q1163.58 1468.04 1160.36 1473.13 Q1159.84 1473.81 1159.55 1473.87 Q1159.42 1473.9 1159.3 1473.9 Q1158.94 1473.9 1158.72 1473.74 Q1158.52 1473.58 1158.52 1473.42 L1158.49 1473.26 Q1158.49 1473.03 1159.01 1472.13 Q1159.55 1471.2 1160.52 1469.81 Q1161.52 1468.43 1162.52 1467.33 Q1163.84 1465.92 1165.32 1465.18 Q1166.8 1464.4 1167.54 1464.31 Q1168.31 1464.21 1169.31 1464.21 L1187.8 1464.21 Q1188.64 1464.21 1189.09 1464.27 Q1189.54 1464.31 1189.99 1464.69 Q1190.44 1465.05 1190.44 1465.79 Z" fill="#000000" fill-rule="evenodd" fill-opacity="1" /><path clip-path="url(#clip310)" d="M 0 0 M1208.73 1476.16 Q1208.73 1465.01 1212.88 1456.03 Q1214.65 1452.26 1217.13 1449.11 Q1219.61 1445.95 1221.26 1444.56 Q1222.9 1443.18 1223.35 1443.18 Q1223.99 1443.18 1224.03 1443.82 Q1224.03 1444.15 1223.16 1444.95 Q1212.53 1455.77 1212.56 1476.16 Q1212.56 1496.61 1222.9 1507.01 Q1224.03 1508.14 1224.03 1508.49 Q1224.03 1509.14 1223.35 1509.14 Q1222.9 1509.14 1221.32 1507.82 Q1219.74 1506.5 1217.3 1503.47 Q1214.85 1500.44 1213.08 1496.74 Q1208.73 1487.75 1208.73 1476.16 Z" fill="#000000" fill-rule="evenodd" fill-opacity="1" /><path clip-path="url(#clip310)" d="M 0 0 M1234.05 1492.65 L1234.05 1490.62 Q1237.56 1490.62 1238.37 1490.2 Q1239.18 1489.75 1239.18 1487.62 L1239.18 1469.94 Q1239.18 1467.49 1238.31 1466.88 Q1237.47 1466.27 1234.05 1466.27 L1234.05 1464.21 L1243.33 1463.5 L1243.33 1470.43 Q1246.42 1463.5 1253.09 1463.5 Q1258.05 1463.5 1260.01 1465.95 Q1261.46 1467.59 1261.75 1469.43 Q1262.07 1471.26 1262.07 1476.03 L1262.07 1488.62 Q1262.14 1490.01 1263.2 1490.33 Q1264.26 1490.62 1267.23 1490.62 L1267.23 1492.65 Q1260.5 1492.45 1259.82 1492.45 Q1259.3 1492.45 1252.38 1492.65 L1252.38 1490.62 Q1255.89 1490.62 1256.7 1490.2 Q1257.53 1489.75 1257.53 1487.62 L1257.53 1472.26 Q1257.53 1468.91 1256.5 1466.95 Q1255.47 1464.95 1252.64 1464.95 Q1249.22 1464.95 1246.49 1467.82 Q1243.75 1470.68 1243.75 1475.51 L1243.75 1487.62 Q1243.75 1489.75 1244.55 1490.2 Q1245.39 1490.62 1248.87 1490.62 L1248.87 1492.65 Q1242.14 1492.45 1241.49 1492.45 Q1240.98 1492.45 1234.05 1492.65 Z" fill="#000000" fill-rule="evenodd" fill-opacity="1" /><path clip-path="url(#clip310)" d="M 0 0 M1270.29 1491.78 L1270.29 1483.08 Q1270.29 1482.34 1270.32 1482.08 Q1270.35 1481.83 1270.55 1481.63 Q1270.74 1481.44 1271.13 1481.44 Q1271.58 1481.44 1271.74 1481.63 Q1271.93 1481.83 1272.06 1482.57 Q1273.06 1487.11 1275.18 1489.52 Q1277.34 1491.91 1281.24 1491.91 Q1284.94 1491.91 1286.81 1490.26 Q1288.68 1488.62 1288.68 1485.92 Q1288.68 1481.09 1281.82 1479.86 Q1277.86 1479.06 1276.22 1478.54 Q1274.57 1477.99 1273.12 1476.8 Q1270.29 1474.48 1270.29 1471.2 Q1270.29 1467.91 1272.77 1465.5 Q1275.28 1463.08 1280.82 1463.08 Q1284.52 1463.08 1287.04 1464.95 Q1287.78 1464.37 1288.16 1463.89 Q1289.03 1463.08 1289.48 1463.08 Q1290 1463.08 1290.1 1463.44 Q1290.19 1463.76 1290.19 1464.69 L1290.19 1471.33 Q1290.19 1472.07 1290.16 1472.33 Q1290.13 1472.58 1289.94 1472.78 Q1289.74 1472.94 1289.32 1472.94 Q1288.58 1472.94 1288.55 1472.33 Q1288.03 1464.34 1280.82 1464.34 Q1276.92 1464.34 1275.18 1465.85 Q1273.45 1467.33 1273.45 1469.36 Q1273.45 1470.49 1273.96 1471.36 Q1274.51 1472.2 1275.18 1472.71 Q1275.89 1473.2 1277.18 1473.68 Q1278.47 1474.13 1279.24 1474.29 Q1280.05 1474.45 1281.56 1474.77 Q1286.84 1475.77 1289.07 1477.93 Q1291.84 1480.7 1291.84 1484.21 Q1291.84 1488.11 1289.19 1490.75 Q1286.55 1493.39 1281.24 1493.39 Q1276.96 1493.39 1273.96 1490.52 Q1273.57 1490.91 1273.28 1491.26 Q1272.99 1491.58 1272.87 1491.71 Q1272.77 1491.84 1272.74 1491.94 Q1272.7 1492 1272.64 1492.07 Q1271.32 1493.39 1271 1493.39 Q1270.48 1493.39 1270.39 1493.03 Q1270.29 1492.71 1270.29 1491.78 Z" fill="#000000" fill-rule="evenodd" fill-opacity="1" /><path clip-path="url(#clip310)" d="M 0 0 M1296 1508.49 Q1296 1508.17 1296.84 1507.37 Q1307.46 1496.54 1307.46 1476.16 Q1307.46 1455.71 1297.25 1445.37 Q1296 1444.18 1296 1443.82 Q1296 1443.18 1296.64 1443.18 Q1297.09 1443.18 1298.67 1444.5 Q1300.28 1445.82 1302.7 1448.85 Q1305.14 1451.87 1306.95 1455.58 Q1311.3 1464.56 1311.3 1476.16 Q1311.3 1487.3 1307.14 1496.29 Q1305.37 1500.05 1302.89 1503.21 Q1300.41 1506.37 1298.77 1507.75 Q1297.13 1509.14 1296.64 1509.14 Q1296 1509.14 1296 1508.49 Z" fill="#000000" fill-rule="evenodd" fill-opacity="1" /><polyline clip-path="url(#clip313)" style="stroke:#000000; stroke-width:2; stroke-opacity:0.1; fill:none" points="
  223.059,1230.2 2256.76,1230.2 
  "/>
<polyline clip-path="url(#clip313)" style="stroke:#000000; stroke-width:2; stroke-opacity:0.1; fill:none" points="
  223.059,1000.2 2256.76,1000.2 
  "/>
<polyline clip-path="url(#clip313)" style="stroke:#000000; stroke-width:2; stroke-opacity:0.1; fill:none" points="
  223.059,770.201 2256.76,770.201 
  "/>
<polyline clip-path="url(#clip313)" style="stroke:#000000; stroke-width:2; stroke-opacity:0.1; fill:none" points="
  223.059,540.201 2256.76,540.201 
  "/>
<polyline clip-path="url(#clip313)" style="stroke:#000000; stroke-width:2; stroke-opacity:0.1; fill:none" points="
  223.059,310.202 2256.76,310.202 
  "/>
<polyline clip-path="url(#clip310)" style="stroke:#000000; stroke-width:4; stroke-opacity:1; fill:none" points="
  223.059,1363.79 223.059,123.472 
  "/>
<polyline clip-path="url(#clip310)" style="stroke:#000000; stroke-width:4; stroke-opacity:1; fill:none" points="
  223.059,1230.2 247.464,1230.2 
  "/>
<polyline clip-path="url(#clip310)" style="stroke:#000000; stroke-width:4; stroke-opacity:1; fill:none" points="
  223.059,1000.2 247.464,1000.2 
  "/>
<polyline clip-path="url(#clip310)" style="stroke:#000000; stroke-width:4; stroke-opacity:1; fill:none" points="
  223.059,770.201 247.464,770.201 
  "/>
<polyline clip-path="url(#clip310)" style="stroke:#000000; stroke-width:4; stroke-opacity:1; fill:none" points="
  223.059,540.201 247.464,540.201 
  "/>
<polyline clip-path="url(#clip310)" style="stroke:#000000; stroke-width:4; stroke-opacity:1; fill:none" points="
  223.059,310.202 247.464,310.202 
  "/>
<path clip-path="url(#clip310)" d="M 0 0 M122.134 1243.54 L129.773 1243.54 L129.773 1217.18 L121.463 1218.85 L121.463 1214.59 L129.727 1212.92 L134.402 1212.92 L134.402 1243.54 L142.041 1243.54 L142.041 1247.48 L122.134 1247.48 L122.134 1243.54 Z" fill="#000000" fill-rule="evenodd" fill-opacity="1" /><path clip-path="url(#clip310)" d="M 0 0 M151.486 1241.6 L156.37 1241.6 L156.37 1247.48 L151.486 1247.48 L151.486 1241.6 Z" fill="#000000" fill-rule="evenodd" fill-opacity="1" /><path clip-path="url(#clip310)" d="M 0 0 M176.555 1216 Q172.944 1216 171.115 1219.56 Q169.31 1223.1 169.31 1230.23 Q169.31 1237.34 171.115 1240.91 Q172.944 1244.45 176.555 1244.45 Q180.189 1244.45 181.995 1240.91 Q183.823 1237.34 183.823 1230.23 Q183.823 1223.1 181.995 1219.56 Q180.189 1216 176.555 1216 M176.555 1212.29 Q182.365 1212.29 185.421 1216.9 Q188.499 1221.48 188.499 1230.23 Q188.499 1238.96 185.421 1243.57 Q182.365 1248.15 176.555 1248.15 Q170.745 1248.15 167.666 1243.57 Q164.611 1238.96 164.611 1230.23 Q164.611 1221.48 167.666 1216.9 Q170.745 1212.29 176.555 1212.29 Z" fill="#000000" fill-rule="evenodd" fill-opacity="1" /><path clip-path="url(#clip310)" d="M 0 0 M123.731 1013.55 L131.37 1013.55 L131.37 987.18 L123.06 988.846 L123.06 984.587 L131.324 982.92 L136 982.92 L136 1013.55 L143.638 1013.55 L143.638 1017.48 L123.731 1017.48 L123.731 1013.55 Z" fill="#000000" fill-rule="evenodd" fill-opacity="1" /><path clip-path="url(#clip310)" d="M 0 0 M153.083 1011.6 L157.967 1011.6 L157.967 1017.48 L153.083 1017.48 L153.083 1011.6 Z" fill="#000000" fill-rule="evenodd" fill-opacity="1" /><path clip-path="url(#clip310)" d="M 0 0 M172.18 1013.55 L188.499 1013.55 L188.499 1017.48 L166.555 1017.48 L166.555 1013.55 Q169.217 1010.79 173.8 1006.16 Q178.407 1001.51 179.587 1000.17 Q181.833 997.642 182.712 995.906 Q183.615 994.147 183.615 992.457 Q183.615 989.703 181.671 987.967 Q179.749 986.23 176.648 986.23 Q174.448 986.23 171.995 986.994 Q169.564 987.758 166.786 989.309 L166.786 984.587 Q169.611 983.453 172.064 982.874 Q174.518 982.295 176.555 982.295 Q181.925 982.295 185.12 984.98 Q188.314 987.666 188.314 992.156 Q188.314 994.286 187.504 996.207 Q186.717 998.105 184.61 1000.7 Q184.032 1001.37 180.93 1004.59 Q177.828 1007.78 172.18 1013.55 Z" fill="#000000" fill-rule="evenodd" fill-opacity="1" /><path clip-path="url(#clip310)" d="M 0 0 M121.648 783.546 L129.287 783.546 L129.287 757.18 L120.977 758.847 L120.977 754.588 L129.24 752.921 L133.916 752.921 L133.916 783.546 L141.555 783.546 L141.555 787.481 L121.648 787.481 L121.648 783.546 Z" fill="#000000" fill-rule="evenodd" fill-opacity="1" /><path clip-path="url(#clip310)" d="M 0 0 M151 781.601 L155.884 781.601 L155.884 787.481 L151 787.481 L151 781.601 Z" fill="#000000" fill-rule="evenodd" fill-opacity="1" /><path clip-path="url(#clip310)" d="M 0 0 M178.916 756.995 L167.111 775.444 L178.916 775.444 L178.916 756.995 M177.689 752.921 L183.569 752.921 L183.569 775.444 L188.499 775.444 L188.499 779.333 L183.569 779.333 L183.569 787.481 L178.916 787.481 L178.916 779.333 L163.314 779.333 L163.314 774.819 L177.689 752.921 Z" fill="#000000" fill-rule="evenodd" fill-opacity="1" /><path clip-path="url(#clip310)" d="M 0 0 M121.972 553.546 L129.611 553.546 L129.611 527.181 L121.301 528.847 L121.301 524.588 L129.564 522.921 L134.24 522.921 L134.24 553.546 L141.879 553.546 L141.879 557.481 L121.972 557.481 L121.972 553.546 Z" fill="#000000" fill-rule="evenodd" fill-opacity="1" /><path clip-path="url(#clip310)" d="M 0 0 M151.324 551.602 L156.208 551.602 L156.208 557.481 L151.324 557.481 L151.324 551.602 Z" fill="#000000" fill-rule="evenodd" fill-opacity="1" /><path clip-path="url(#clip310)" d="M 0 0 M176.972 538.338 Q173.823 538.338 171.972 540.491 Q170.143 542.643 170.143 546.393 Q170.143 550.12 171.972 552.296 Q173.823 554.449 176.972 554.449 Q180.12 554.449 181.948 552.296 Q183.8 550.12 183.8 546.393 Q183.8 542.643 181.948 540.491 Q180.12 538.338 176.972 538.338 M186.254 523.685 L186.254 527.944 Q184.495 527.111 182.689 526.671 Q180.907 526.232 179.148 526.232 Q174.518 526.232 172.064 529.357 Q169.634 532.481 169.286 538.801 Q170.652 536.787 172.712 535.722 Q174.773 534.634 177.249 534.634 Q182.458 534.634 185.467 537.806 Q188.499 540.954 188.499 546.393 Q188.499 551.718 185.351 554.935 Q182.203 558.153 176.972 558.153 Q170.976 558.153 167.805 553.569 Q164.634 548.963 164.634 540.236 Q164.634 532.042 168.523 527.181 Q172.411 522.296 178.962 522.296 Q180.722 522.296 182.504 522.644 Q184.31 522.991 186.254 523.685 Z" fill="#000000" fill-rule="evenodd" fill-opacity="1" /><path clip-path="url(#clip310)" d="M 0 0 M122.227 323.547 L129.865 323.547 L129.865 297.181 L121.555 298.848 L121.555 294.589 L129.819 292.922 L134.495 292.922 L134.495 323.547 L142.134 323.547 L142.134 327.482 L122.227 327.482 L122.227 323.547 Z" fill="#000000" fill-rule="evenodd" fill-opacity="1" /><path clip-path="url(#clip310)" d="M 0 0 M151.578 321.602 L156.462 321.602 L156.462 327.482 L151.578 327.482 L151.578 321.602 Z" fill="#000000" fill-rule="evenodd" fill-opacity="1" /><path clip-path="url(#clip310)" d="M 0 0 M176.648 311.07 Q173.314 311.07 171.393 312.852 Q169.495 314.635 169.495 317.76 Q169.495 320.885 171.393 322.667 Q173.314 324.449 176.648 324.449 Q179.981 324.449 181.902 322.667 Q183.823 320.862 183.823 317.76 Q183.823 314.635 181.902 312.852 Q180.004 311.07 176.648 311.07 M171.972 309.079 Q168.962 308.338 167.273 306.278 Q165.606 304.218 165.606 301.255 Q165.606 297.112 168.546 294.704 Q171.509 292.297 176.648 292.297 Q181.81 292.297 184.749 294.704 Q187.689 297.112 187.689 301.255 Q187.689 304.218 185.999 306.278 Q184.333 308.338 181.347 309.079 Q184.726 309.866 186.601 312.158 Q188.499 314.45 188.499 317.76 Q188.499 322.783 185.421 325.468 Q182.365 328.153 176.648 328.153 Q170.93 328.153 167.851 325.468 Q164.796 322.783 164.796 317.76 Q164.796 314.45 166.694 312.158 Q168.592 309.866 171.972 309.079 M170.259 301.695 Q170.259 304.38 171.925 305.885 Q173.615 307.389 176.648 307.389 Q179.657 307.389 181.347 305.885 Q183.06 304.38 183.06 301.695 Q183.06 299.01 181.347 297.505 Q179.657 296.001 176.648 296.001 Q173.615 296.001 171.925 297.505 Q170.259 299.01 170.259 301.695 Z" fill="#000000" fill-rule="evenodd" fill-opacity="1" /><path clip-path="url(#clip310)" d="M 0 0 M52.0905 804.127 Q52.1227 804.127 53.2821 804.32 L82.5572 811.663 Q84.1031 812.049 85.649 813.144 Q87.2271 814.207 88.5797 815.914 Q89.9646 817.589 90.8019 820.165 Q91.6715 822.71 91.6715 825.64 Q91.6715 830.31 90.6731 832.371 Q89.7069 834.4 87.6457 834.4 Q85.8422 834.4 84.8116 833.273 Q83.8132 832.146 83.8132 830.858 Q83.8132 829.634 84.5218 828.99 Q85.2303 828.346 86.1321 828.346 Q87.1305 828.346 88.1288 829.022 Q89.1594 829.698 89.5459 831.051 Q90.2222 828.893 90.2222 825.769 Q90.2222 819.167 83.2335 816.333 Q83.1369 816.268 83.1047 816.268 L74.3769 814.078 L74.3125 814.175 Q74.9566 814.723 75.6974 815.592 Q76.4059 816.429 77.2755 818.233 Q78.145 820.037 78.145 821.808 Q78.145 825.512 75.3109 828.056 Q72.4446 830.568 67.7103 830.568 Q64.2643 830.568 60.8183 829.183 Q57.34 827.766 54.7958 825.576 Q52.2193 823.354 50.609 820.52 Q48.9987 817.653 48.9987 814.884 Q48.9987 812.951 50.1581 811.309 Q51.2853 809.666 53.1533 808.764 Q51.6074 808.603 50.9633 807.734 Q50.3192 806.832 50.3192 806.059 Q50.3192 805.19 50.8022 804.674 Q51.2531 804.127 52.0905 804.127 M56.1162 809.537 Q55.923 809.537 55.4077 809.666 Q54.8602 809.795 53.9906 810.182 Q53.1211 810.536 52.3481 811.083 Q51.5752 811.631 51.0277 812.629 Q50.448 813.595 50.448 814.819 Q50.448 816.816 52.1227 818.813 Q53.7652 820.809 56.3094 822.194 Q58.7571 823.483 63.4914 824.706 Q68.2256 825.898 70.6411 825.898 Q73.0243 825.898 74.86 824.867 Q76.6958 823.837 76.6958 821.615 Q76.6958 819.038 74.3125 816.268 Q71.8327 813.402 69.7071 812.919 L57.1146 809.731 Q56.3416 809.537 56.1162 809.537 Z" fill="#000000" fill-rule="evenodd" fill-opacity="1" /><path clip-path="url(#clip310)" d="M 0 0 M36.5958 797.39 Q28.7956 797.39 22.5058 794.482 Q19.8681 793.242 17.6588 791.506 Q15.4495 789.77 14.4801 788.621 Q13.5107 787.471 13.5107 787.155 Q13.5107 786.704 13.9616 786.682 Q14.187 786.682 14.7506 787.291 Q22.3254 794.73 36.5958 794.708 Q50.9113 794.708 58.1931 787.471 Q58.9821 786.682 59.2301 786.682 Q59.681 786.682 59.681 787.155 Q59.681 787.471 58.7567 788.576 Q57.8324 789.68 55.7132 791.394 Q53.5941 793.107 51.0015 794.347 Q44.7117 797.39 36.5958 797.39 Z" fill="#000000" fill-rule="evenodd" fill-opacity="1" /><path clip-path="url(#clip310)" d="M 0 0 M48.1384 779.662 Q47.3043 779.662 47.0563 779.594 Q46.8083 779.504 46.4251 779.143 L36.5507 770.284 Q31.0951 765.437 26.3383 765.437 Q23.2497 765.437 21.0404 767.06 Q18.8311 768.66 18.8311 771.614 Q18.8311 773.643 20.071 775.356 Q21.3109 777.069 23.5203 777.858 Q23.4752 777.723 23.4752 777.25 Q23.4752 776.1 24.1966 775.469 Q24.918 774.815 25.8874 774.815 Q27.1273 774.815 27.736 775.627 Q28.3222 776.416 28.3222 777.205 Q28.3222 777.52 28.2545 777.949 Q28.1869 778.354 27.5557 779.008 Q26.9019 779.662 25.7521 779.662 Q22.5283 779.662 19.9583 777.227 Q17.3883 774.77 17.3883 771.028 Q17.3883 766.789 19.9132 764.016 Q22.4156 761.221 26.3383 761.221 Q27.7135 761.221 28.9759 761.649 Q30.2159 762.055 31.1853 762.619 Q32.1546 763.16 33.7102 764.648 Q35.2657 766.136 36.3704 767.33 Q37.4751 768.525 39.8196 771.208 L44.5764 776.1 L44.5764 767.781 Q44.5764 763.723 44.2157 763.408 Q43.562 762.957 40.1127 762.393 L40.1127 761.221 L48.1384 762.528 L48.1384 779.662 Z" fill="#000000" fill-rule="evenodd" fill-opacity="1" /><path clip-path="url(#clip310)" d="M 0 0 M59.2301 756.798 Q59.0047 756.798 58.4411 756.212 Q50.8663 748.773 36.5958 748.773 Q22.2803 748.773 15.0437 755.919 Q14.2095 756.798 13.9616 756.798 Q13.5107 756.798 13.5107 756.347 Q13.5107 756.032 14.435 754.927 Q15.3593 753.8 17.4784 752.109 Q19.5976 750.396 22.1902 749.133 Q28.48 746.09 36.5958 746.09 Q44.3961 746.09 50.6859 748.998 Q53.3236 750.238 55.5329 751.974 Q57.7422 753.71 58.7116 754.859 Q59.681 756.009 59.681 756.347 Q59.681 756.798 59.2301 756.798 Z" fill="#000000" fill-rule="evenodd" fill-opacity="1" /><path clip-path="url(#clip310)" d="M 0 0 M61.6556 732.03 Q50.5124 732.03 41.527 727.875 Q37.7589 726.104 34.6027 723.624 Q31.4465 721.144 30.0617 719.502 Q28.6768 717.859 28.6768 717.408 Q28.6768 716.764 29.3209 716.732 Q29.643 716.732 30.4481 717.602 Q41.2693 728.23 61.6556 728.197 Q82.1063 728.197 92.5088 717.859 Q93.636 716.732 93.9903 716.732 Q94.6344 716.732 94.6344 717.408 Q94.6344 717.859 93.314 719.437 Q91.9935 721.016 88.9662 723.463 Q85.9388 725.911 82.2352 727.682 Q73.2497 732.03 61.6556 732.03 Z" fill="#000000" fill-rule="evenodd" fill-opacity="1" /><path clip-path="url(#clip310)" d="M 0 0 M51.2853 674.756 Q53.5397 674.756 53.5397 678.008 L53.5397 689.087 L76.116 693.499 Q76.6958 693.596 77.0178 693.725 Q77.3399 693.821 77.8874 694.111 Q78.4027 694.369 78.6603 694.916 Q78.9502 695.432 78.9502 696.205 Q78.9502 697.171 78.3705 697.654 Q77.823 698.105 77.1466 698.105 Q76.728 698.105 74.7312 697.461 L53.5397 690.987 L53.5397 696.462 Q53.5397 701.615 58.6283 704.836 Q59.3046 705.351 59.369 705.641 Q59.4012 705.77 59.4012 705.899 Q59.4012 706.253 59.2402 706.478 Q59.0791 706.672 58.9181 706.672 L58.7571 706.704 Q58.5316 706.704 57.6299 706.188 Q56.6959 705.641 55.3111 704.675 Q53.9262 703.676 52.8312 702.678 Q51.4142 701.358 50.6734 699.876 Q49.9005 698.395 49.8039 697.654 Q49.7072 696.881 49.7072 695.883 L49.7072 677.396 Q49.7072 676.559 49.7717 676.108 Q49.8039 675.657 50.1903 675.206 Q50.5446 674.756 51.2853 674.756 Z" fill="#000000" fill-rule="evenodd" fill-opacity="1" /><path clip-path="url(#clip310)" d="M 0 0 M93.9903 678.188 Q93.6682 678.188 92.8631 677.35 Q82.0419 666.723 61.6556 666.723 Q41.2049 666.723 30.8668 676.932 Q29.6752 678.188 29.3209 678.188 Q28.6768 678.188 28.6768 677.544 Q28.6768 677.093 29.9973 675.515 Q31.3177 673.904 34.345 671.489 Q37.3724 669.041 41.0761 667.238 Q50.0615 662.89 61.6556 662.89 Q72.7988 662.89 81.7843 667.045 Q85.5524 668.816 88.7085 671.296 Q91.8647 673.776 93.2496 675.418 Q94.6344 677.061 94.6344 677.544 Q94.6344 678.188 93.9903 678.188 Z" fill="#000000" fill-rule="evenodd" fill-opacity="1" /><path clip-path="url(#clip310)" d="M 0 0 M532.518 18.8205 L532.518 41.5461 L542.808 41.5461 Q548.52 41.5461 551.639 38.5889 Q554.758 35.6318 554.758 30.163 Q554.758 24.7348 551.639 21.7777 Q548.52 18.8205 542.808 18.8205 L532.518 18.8205 M524.336 12.096 L542.808 12.096 Q552.976 12.096 558.161 16.714 Q563.386 21.2916 563.386 30.163 Q563.386 39.1155 558.161 43.6931 Q552.976 48.2706 542.808 48.2706 L532.518 48.2706 L532.518 72.576 L524.336 72.576 L524.336 12.096 Z" fill="#000000" fill-rule="evenodd" fill-opacity="1" /><path clip-path="url(#clip310)" d="M 0 0 M611.754 45.1919 L611.754 72.576 L604.3 72.576 L604.3 45.4349 Q604.3 38.994 601.789 35.7938 Q599.277 32.5936 594.254 32.5936 Q588.218 32.5936 584.735 36.4419 Q581.251 40.2903 581.251 46.9338 L581.251 72.576 L573.757 72.576 L573.757 9.54393 L581.251 9.54393 L581.251 34.2544 Q583.924 30.163 587.53 28.1376 Q591.176 26.1121 595.915 26.1121 Q603.733 26.1121 607.744 30.9732 Q611.754 35.7938 611.754 45.1919 Z" fill="#000000" fill-rule="evenodd" fill-opacity="1" /><path clip-path="url(#clip310)" d="M 0 0 M644.202 32.4315 Q638.207 32.4315 634.723 37.1306 Q631.239 41.7891 631.239 49.9314 Q631.239 58.0738 634.682 62.7728 Q638.166 67.4314 644.202 67.4314 Q650.157 67.4314 653.641 62.7323 Q657.124 58.0333 657.124 49.9314 Q657.124 41.8701 653.641 37.1711 Q650.157 32.4315 644.202 32.4315 M644.202 26.1121 Q653.924 26.1121 659.474 32.4315 Q665.024 38.7509 665.024 49.9314 Q665.024 61.0714 659.474 67.4314 Q653.924 73.7508 644.202 73.7508 Q634.439 73.7508 628.889 67.4314 Q623.38 61.0714 623.38 49.9314 Q623.38 38.7509 628.889 32.4315 Q634.439 26.1121 644.202 26.1121 Z" fill="#000000" fill-rule="evenodd" fill-opacity="1" /><path clip-path="url(#clip310)" d="M 0 0 M684.751 14.324 L684.751 27.2059 L700.104 27.2059 L700.104 32.9987 L684.751 32.9987 L684.751 57.6282 Q684.751 63.1779 686.25 64.7578 Q687.79 66.3376 692.448 66.3376 L700.104 66.3376 L700.104 72.576 L692.448 72.576 Q683.82 72.576 680.539 69.3758 Q677.257 66.1351 677.257 57.6282 L677.257 32.9987 L671.789 32.9987 L671.789 27.2059 L677.257 27.2059 L677.257 14.324 L684.751 14.324 Z" fill="#000000" fill-rule="evenodd" fill-opacity="1" /><path clip-path="url(#clip310)" d="M 0 0 M727.488 32.4315 Q721.493 32.4315 718.009 37.1306 Q714.526 41.7891 714.526 49.9314 Q714.526 58.0738 717.969 62.7728 Q721.453 67.4314 727.488 67.4314 Q733.443 67.4314 736.927 62.7323 Q740.411 58.0333 740.411 49.9314 Q740.411 41.8701 736.927 37.1711 Q733.443 32.4315 727.488 32.4315 M727.488 26.1121 Q737.211 26.1121 742.76 32.4315 Q748.31 38.7509 748.31 49.9314 Q748.31 61.0714 742.76 67.4314 Q737.211 73.7508 727.488 73.7508 Q717.726 73.7508 712.176 67.4314 Q706.667 61.0714 706.667 49.9314 Q706.667 38.7509 712.176 32.4315 Q717.726 26.1121 727.488 26.1121 Z" fill="#000000" fill-rule="evenodd" fill-opacity="1" /><path clip-path="url(#clip310)" d="M 0 0 M798.379 45.1919 L798.379 72.576 L790.926 72.576 L790.926 45.4349 Q790.926 38.994 788.414 35.7938 Q785.903 32.5936 780.879 32.5936 Q774.844 32.5936 771.36 36.4419 Q767.876 40.2903 767.876 46.9338 L767.876 72.576 L760.382 72.576 L760.382 27.2059 L767.876 27.2059 L767.876 34.2544 Q770.55 30.163 774.155 28.1376 Q777.801 26.1121 782.54 26.1121 Q790.359 26.1121 794.369 30.9732 Q798.379 35.7938 798.379 45.1919 Z" fill="#000000" fill-rule="evenodd" fill-opacity="1" /><path clip-path="url(#clip310)" d="M 0 0 M885.231 16.7545 L885.231 25.383 Q881.099 21.5346 876.4 19.6307 Q871.741 17.7268 866.475 17.7268 Q856.105 17.7268 850.595 24.0867 Q845.086 30.4061 845.086 42.3968 Q845.086 54.3469 850.595 60.7069 Q856.105 67.0263 866.475 67.0263 Q871.741 67.0263 876.4 65.1223 Q881.099 63.2184 885.231 59.3701 L885.231 67.9175 Q880.937 70.8341 876.116 72.2924 Q871.336 73.7508 865.989 73.7508 Q852.256 73.7508 844.357 65.3654 Q836.458 56.9395 836.458 42.3968 Q836.458 27.8135 844.357 19.4281 Q852.256 11.0023 865.989 11.0023 Q871.417 11.0023 876.197 12.4606 Q881.018 13.8784 885.231 16.7545 Z" fill="#000000" fill-rule="evenodd" fill-opacity="1" /><path clip-path="url(#clip310)" d="M 0 0 M915.126 32.4315 Q909.131 32.4315 905.647 37.1306 Q902.163 41.7891 902.163 49.9314 Q902.163 58.0738 905.607 62.7728 Q909.091 67.4314 915.126 67.4314 Q921.081 67.4314 924.565 62.7323 Q928.049 58.0333 928.049 49.9314 Q928.049 41.8701 924.565 37.1711 Q921.081 32.4315 915.126 32.4315 M915.126 26.1121 Q924.849 26.1121 930.398 32.4315 Q935.948 38.7509 935.948 49.9314 Q935.948 61.0714 930.398 67.4314 Q924.849 73.7508 915.126 73.7508 Q905.364 73.7508 899.814 67.4314 Q894.305 61.0714 894.305 49.9314 Q894.305 38.7509 899.814 32.4315 Q905.364 26.1121 915.126 26.1121 Z" fill="#000000" fill-rule="evenodd" fill-opacity="1" /><path clip-path="url(#clip310)" d="M 0 0 M974.594 34.1734 Q973.338 33.4443 971.839 33.1202 Q970.381 32.7556 968.598 32.7556 Q962.279 32.7556 958.876 36.8875 Q955.514 40.9789 955.514 48.6757 L955.514 72.576 L948.02 72.576 L948.02 27.2059 L955.514 27.2059 L955.514 34.2544 Q957.863 30.1225 961.631 28.1376 Q965.398 26.1121 970.786 26.1121 Q971.555 26.1121 972.487 26.2337 Q973.419 26.3147 974.553 26.5172 L974.594 34.1734 Z" fill="#000000" fill-rule="evenodd" fill-opacity="1" /><path clip-path="url(#clip310)" d="M 0 0 M1007.24 34.1734 Q1005.99 33.4443 1004.49 33.1202 Q1003.03 32.7556 1001.25 32.7556 Q994.929 32.7556 991.526 36.8875 Q988.164 40.9789 988.164 48.6757 L988.164 72.576 L980.67 72.576 L980.67 27.2059 L988.164 27.2059 L988.164 34.2544 Q990.514 30.1225 994.281 28.1376 Q998.048 26.1121 1003.44 26.1121 Q1004.21 26.1121 1005.14 26.2337 Q1006.07 26.3147 1007.2 26.5172 L1007.24 34.1734 Z" fill="#000000" fill-rule="evenodd" fill-opacity="1" /><path clip-path="url(#clip310)" d="M 0 0 M1052.05 48.0275 L1052.05 51.6733 L1017.78 51.6733 Q1018.26 59.3701 1022.39 63.421 Q1026.57 67.4314 1033.98 67.4314 Q1038.27 67.4314 1042.28 66.3781 Q1046.34 65.3249 1050.31 63.2184 L1050.31 70.267 Q1046.29 71.9684 1042.08 72.8596 Q1037.87 73.7508 1033.53 73.7508 Q1022.68 73.7508 1016.32 67.4314 Q1010 61.1119 1010 50.3365 Q1010 39.1965 1015.99 32.6746 Q1022.03 26.1121 1032.24 26.1121 Q1041.39 26.1121 1046.7 32.0264 Q1052.05 37.9003 1052.05 48.0275 M1044.59 45.84 Q1044.51 39.7232 1041.15 36.0774 Q1037.83 32.4315 1032.32 32.4315 Q1026.08 32.4315 1022.31 35.9558 Q1018.59 39.4801 1018.02 45.8805 L1044.59 45.84 Z" fill="#000000" fill-rule="evenodd" fill-opacity="1" /><path clip-path="url(#clip310)" d="M 0 0 M1064.28 9.54393 L1071.73 9.54393 L1071.73 72.576 L1064.28 72.576 L1064.28 9.54393 Z" fill="#000000" fill-rule="evenodd" fill-opacity="1" /><path clip-path="url(#clip310)" d="M 0 0 M1107.95 49.7694 Q1098.92 49.7694 1095.43 51.8354 Q1091.95 53.9013 1091.95 58.8839 Q1091.95 62.8538 1094.54 65.2034 Q1097.17 67.5124 1101.67 67.5124 Q1107.87 67.5124 1111.6 63.1374 Q1115.36 58.7219 1115.36 51.4303 L1115.36 49.7694 L1107.95 49.7694 M1122.82 46.6907 L1122.82 72.576 L1115.36 72.576 L1115.36 65.6895 Q1112.81 69.8214 1109 71.8063 Q1105.19 73.7508 1099.69 73.7508 Q1092.72 73.7508 1088.59 69.8619 Q1084.49 65.9325 1084.49 59.3701 Q1084.49 51.7138 1089.6 47.825 Q1094.74 43.9361 1104.91 43.9361 L1115.36 43.9361 L1115.36 43.2069 Q1115.36 38.0623 1111.96 35.2672 Q1108.6 32.4315 1102.48 32.4315 Q1098.59 32.4315 1094.91 33.3632 Q1091.22 34.295 1087.82 36.1584 L1087.82 29.2718 Q1091.91 27.692 1095.76 26.9223 Q1099.6 26.1121 1103.25 26.1121 Q1113.09 26.1121 1117.96 31.2163 Q1122.82 36.3204 1122.82 46.6907 Z" fill="#000000" fill-rule="evenodd" fill-opacity="1" /><path clip-path="url(#clip310)" d="M 0 0 M1145.54 14.324 L1145.54 27.2059 L1160.89 27.2059 L1160.89 32.9987 L1145.54 32.9987 L1145.54 57.6282 Q1145.54 63.1779 1147.04 64.7578 Q1148.58 66.3376 1153.24 66.3376 L1160.89 66.3376 L1160.89 72.576 L1153.24 72.576 Q1144.61 72.576 1141.33 69.3758 Q1138.05 66.1351 1138.05 57.6282 L1138.05 32.9987 L1132.58 32.9987 L1132.58 27.2059 L1138.05 27.2059 L1138.05 14.324 L1145.54 14.324 Z" fill="#000000" fill-rule="evenodd" fill-opacity="1" /><path clip-path="url(#clip310)" d="M 0 0 M1170.7 27.2059 L1178.15 27.2059 L1178.15 72.576 L1170.7 72.576 L1170.7 27.2059 M1170.7 9.54393 L1178.15 9.54393 L1178.15 18.9825 L1170.7 18.9825 L1170.7 9.54393 Z" fill="#000000" fill-rule="evenodd" fill-opacity="1" /><path clip-path="url(#clip310)" d="M 0 0 M1211.33 32.4315 Q1205.33 32.4315 1201.85 37.1306 Q1198.37 41.7891 1198.37 49.9314 Q1198.37 58.0738 1201.81 62.7728 Q1205.29 67.4314 1211.33 67.4314 Q1217.28 67.4314 1220.77 62.7323 Q1224.25 58.0333 1224.25 49.9314 Q1224.25 41.8701 1220.77 37.1711 Q1217.28 32.4315 1211.33 32.4315 M1211.33 26.1121 Q1221.05 26.1121 1226.6 32.4315 Q1232.15 38.7509 1232.15 49.9314 Q1232.15 61.0714 1226.6 67.4314 Q1221.05 73.7508 1211.33 73.7508 Q1201.57 73.7508 1196.02 67.4314 Q1190.51 61.0714 1190.51 49.9314 Q1190.51 38.7509 1196.02 32.4315 Q1201.57 26.1121 1211.33 26.1121 Z" fill="#000000" fill-rule="evenodd" fill-opacity="1" /><path clip-path="url(#clip310)" d="M 0 0 M1282.22 45.1919 L1282.22 72.576 L1274.77 72.576 L1274.77 45.4349 Q1274.77 38.994 1272.25 35.7938 Q1269.74 32.5936 1264.72 32.5936 Q1258.68 32.5936 1255.2 36.4419 Q1251.72 40.2903 1251.72 46.9338 L1251.72 72.576 L1244.22 72.576 L1244.22 27.2059 L1251.72 27.2059 L1251.72 34.2544 Q1254.39 30.163 1257.99 28.1376 Q1261.64 26.1121 1266.38 26.1121 Q1274.2 26.1121 1278.21 30.9732 Q1282.22 35.7938 1282.22 45.1919 Z" fill="#000000" fill-rule="evenodd" fill-opacity="1" /><path clip-path="url(#clip310)" d="M 0 0 M1326.01 28.5427 L1326.01 35.5912 Q1322.85 33.9709 1319.45 33.1607 Q1316.04 32.3505 1312.4 32.3505 Q1306.85 32.3505 1304.05 34.0519 Q1301.3 35.7533 1301.3 39.156 Q1301.3 41.7486 1303.28 43.2475 Q1305.27 44.7058 1311.26 46.0426 L1313.82 46.6097 Q1321.76 48.3111 1325.08 51.4303 Q1328.44 54.509 1328.44 60.0587 Q1328.44 66.3781 1323.42 70.0644 Q1318.43 73.7508 1309.68 73.7508 Q1306.04 73.7508 1302.07 73.0216 Q1298.14 72.3329 1293.76 70.9151 L1293.76 63.2184 Q1297.9 65.3654 1301.91 66.4591 Q1305.92 67.5124 1309.85 67.5124 Q1315.11 67.5124 1317.95 65.73 Q1320.78 63.9071 1320.78 60.6258 Q1320.78 57.5877 1318.72 55.9673 Q1316.69 54.3469 1309.77 52.8481 L1307.17 52.2405 Q1300.25 50.7821 1297.17 47.7845 Q1294.09 44.7463 1294.09 39.4801 Q1294.09 33.0797 1298.63 29.5959 Q1303.16 26.1121 1311.51 26.1121 Q1315.64 26.1121 1319.29 26.7198 Q1322.93 27.3274 1326.01 28.5427 Z" fill="#000000" fill-rule="evenodd" fill-opacity="1" /><path clip-path="url(#clip310)" d="M 0 0 M1361.33 27.2059 L1369.23 27.2059 L1383.41 65.2844 L1397.59 27.2059 L1405.49 27.2059 L1388.47 72.576 L1378.35 72.576 L1361.33 27.2059 Z" fill="#000000" fill-rule="evenodd" fill-opacity="1" /><path clip-path="url(#clip310)" d="M 0 0 M1444.7 28.5427 L1444.7 35.5912 Q1441.54 33.9709 1438.14 33.1607 Q1434.74 32.3505 1431.09 32.3505 Q1425.54 32.3505 1422.75 34.0519 Q1419.99 35.7533 1419.99 39.156 Q1419.99 41.7486 1421.98 43.2475 Q1423.96 44.7058 1429.96 46.0426 L1432.51 46.6097 Q1440.45 48.3111 1443.77 51.4303 Q1447.13 54.509 1447.13 60.0587 Q1447.13 66.3781 1442.11 70.0644 Q1437.13 73.7508 1428.38 73.7508 Q1424.73 73.7508 1420.76 73.0216 Q1416.83 72.3329 1412.46 70.9151 L1412.46 63.2184 Q1416.59 65.3654 1420.6 66.4591 Q1424.61 67.5124 1428.54 67.5124 Q1433.8 67.5124 1436.64 65.73 Q1439.48 63.9071 1439.48 60.6258 Q1439.48 57.5877 1437.41 55.9673 Q1435.38 54.3469 1428.46 52.8481 L1425.86 52.2405 Q1418.94 50.7821 1415.86 47.7845 Q1412.78 44.7463 1412.78 39.4801 Q1412.78 33.0797 1417.32 29.5959 Q1421.85 26.1121 1430.2 26.1121 Q1434.33 26.1121 1437.98 26.7198 Q1441.62 27.3274 1444.7 28.5427 Z" fill="#000000" fill-rule="evenodd" fill-opacity="1" /><path clip-path="url(#clip310)" d="M 0 0 M1477.31 12.096 L1528.47 12.096 L1528.47 18.9825 L1507 18.9825 L1507 72.576 L1498.78 72.576 L1498.78 18.9825 L1477.31 18.9825 L1477.31 12.096 Z" fill="#000000" fill-rule="evenodd" fill-opacity="1" /><path clip-path="url(#clip310)" d="M 0 0 M1533.5 27.2059 L1540.95 27.2059 L1540.95 72.576 L1533.5 72.576 L1533.5 27.2059 M1533.5 9.54393 L1540.95 9.54393 L1540.95 18.9825 L1533.5 18.9825 L1533.5 9.54393 Z" fill="#000000" fill-rule="evenodd" fill-opacity="1" /><path clip-path="url(#clip310)" d="M 0 0 M1591.87 35.9153 Q1594.67 30.8922 1598.55 28.5022 Q1602.44 26.1121 1607.71 26.1121 Q1614.8 26.1121 1618.65 31.0947 Q1622.5 36.0368 1622.5 45.1919 L1622.5 72.576 L1615 72.576 L1615 45.4349 Q1615 38.913 1612.69 35.7533 Q1610.38 32.5936 1605.64 32.5936 Q1599.85 32.5936 1596.49 36.4419 Q1593.13 40.2903 1593.13 46.9338 L1593.13 72.576 L1585.63 72.576 L1585.63 45.4349 Q1585.63 38.8725 1583.32 35.7533 Q1581.01 32.5936 1576.19 32.5936 Q1570.48 32.5936 1567.12 36.4824 Q1563.76 40.3308 1563.76 46.9338 L1563.76 72.576 L1556.26 72.576 L1556.26 27.2059 L1563.76 27.2059 L1563.76 34.2544 Q1566.31 30.082 1569.87 28.0971 Q1573.44 26.1121 1578.34 26.1121 Q1583.28 26.1121 1586.73 28.6237 Q1590.21 31.1352 1591.87 35.9153 Z" fill="#000000" fill-rule="evenodd" fill-opacity="1" /><path clip-path="url(#clip310)" d="M 0 0 M1676.17 48.0275 L1676.17 51.6733 L1641.9 51.6733 Q1642.39 59.3701 1646.52 63.421 Q1650.69 67.4314 1658.1 67.4314 Q1662.4 67.4314 1666.41 66.3781 Q1670.46 65.3249 1674.43 63.2184 L1674.43 70.267 Q1670.42 71.9684 1666.2 72.8596 Q1661.99 73.7508 1657.66 73.7508 Q1646.8 73.7508 1640.44 67.4314 Q1634.12 61.1119 1634.12 50.3365 Q1634.12 39.1965 1640.12 32.6746 Q1646.15 26.1121 1656.36 26.1121 Q1665.52 26.1121 1670.82 32.0264 Q1676.17 37.9003 1676.17 48.0275 M1668.72 45.84 Q1668.64 39.7232 1665.27 36.0774 Q1661.95 32.4315 1656.44 32.4315 Q1650.2 32.4315 1646.44 35.9558 Q1642.71 39.4801 1642.14 45.8805 L1668.72 45.84 Z" fill="#000000" fill-rule="evenodd" fill-opacity="1" /><path clip-path="url(#clip310)" d="M 0 0 M1739.65 17.6457 Q1730.74 17.6457 1725.47 24.2892 Q1720.24 30.9327 1720.24 42.3968 Q1720.24 53.8203 1725.47 60.4638 Q1730.74 67.1073 1739.65 67.1073 Q1748.56 67.1073 1753.74 60.4638 Q1758.97 53.8203 1758.97 42.3968 Q1758.97 30.9327 1753.74 24.2892 Q1748.56 17.6457 1739.65 17.6457 M1739.65 11.0023 Q1752.37 11.0023 1759.98 19.5497 Q1767.6 28.0566 1767.6 42.3968 Q1767.6 56.6965 1759.98 65.2439 Q1752.37 73.7508 1739.65 73.7508 Q1726.89 73.7508 1719.23 65.2439 Q1711.62 56.737 1711.62 42.3968 Q1711.62 28.0566 1719.23 19.5497 Q1726.89 11.0023 1739.65 11.0023 Z" fill="#000000" fill-rule="evenodd" fill-opacity="1" /><path clip-path="url(#clip310)" d="M 0 0 M1803.04 9.54393 L1803.04 15.7418 L1795.91 15.7418 Q1791.9 15.7418 1790.32 17.3622 Q1788.78 18.9825 1788.78 23.1955 L1788.78 27.2059 L1801.06 27.2059 L1801.06 32.9987 L1788.78 32.9987 L1788.78 72.576 L1781.29 72.576 L1781.29 32.9987 L1774.16 32.9987 L1774.16 27.2059 L1781.29 27.2059 L1781.29 24.0462 Q1781.29 16.471 1784.82 13.0277 Q1788.34 9.54393 1796 9.54393 L1803.04 9.54393 Z" fill="#000000" fill-rule="evenodd" fill-opacity="1" /><path clip-path="url(#clip310)" d="M 0 0 M1832.25 9.54393 L1832.25 15.7418 L1825.12 15.7418 Q1821.11 15.7418 1819.53 17.3622 Q1817.99 18.9825 1817.99 23.1955 L1817.99 27.2059 L1830.27 27.2059 L1830.27 32.9987 L1817.99 32.9987 L1817.99 72.576 L1810.5 72.576 L1810.5 32.9987 L1803.37 32.9987 L1803.37 27.2059 L1810.5 27.2059 L1810.5 24.0462 Q1810.5 16.471 1814.02 13.0277 Q1817.55 9.54393 1825.2 9.54393 L1832.25 9.54393 Z" fill="#000000" fill-rule="evenodd" fill-opacity="1" /><path clip-path="url(#clip310)" d="M 0 0 M1867.41 28.5427 L1867.41 35.5912 Q1864.25 33.9709 1860.85 33.1607 Q1857.45 32.3505 1853.8 32.3505 Q1848.25 32.3505 1845.46 34.0519 Q1842.7 35.7533 1842.7 39.156 Q1842.7 41.7486 1844.69 43.2475 Q1846.67 44.7058 1852.67 46.0426 L1855.22 46.6097 Q1863.16 48.3111 1866.48 51.4303 Q1869.84 54.509 1869.84 60.0587 Q1869.84 66.3781 1864.82 70.0644 Q1859.84 73.7508 1851.09 73.7508 Q1847.44 73.7508 1843.47 73.0216 Q1839.54 72.3329 1835.17 70.9151 L1835.17 63.2184 Q1839.3 65.3654 1843.31 66.4591 Q1847.32 67.5124 1851.25 67.5124 Q1856.52 67.5124 1859.35 65.73 Q1862.19 63.9071 1862.19 60.6258 Q1862.19 57.5877 1860.12 55.9673 Q1858.1 54.3469 1851.17 52.8481 L1848.58 52.2405 Q1841.65 50.7821 1838.57 47.7845 Q1835.49 44.7463 1835.49 39.4801 Q1835.49 33.0797 1840.03 29.5959 Q1844.57 26.1121 1852.91 26.1121 Q1857.04 26.1121 1860.69 26.7198 Q1864.33 27.3274 1867.41 28.5427 Z" fill="#000000" fill-rule="evenodd" fill-opacity="1" /><path clip-path="url(#clip310)" d="M 0 0 M1920.52 48.0275 L1920.52 51.6733 L1886.25 51.6733 Q1886.74 59.3701 1890.87 63.421 Q1895.04 67.4314 1902.45 67.4314 Q1906.75 67.4314 1910.76 66.3781 Q1914.81 65.3249 1918.78 63.2184 L1918.78 70.267 Q1914.77 71.9684 1910.56 72.8596 Q1906.34 73.7508 1902.01 73.7508 Q1891.15 73.7508 1884.79 67.4314 Q1878.47 61.1119 1878.47 50.3365 Q1878.47 39.1965 1884.47 32.6746 Q1890.5 26.1121 1900.71 26.1121 Q1909.87 26.1121 1915.17 32.0264 Q1920.52 37.9003 1920.52 48.0275 M1913.07 45.84 Q1912.99 39.7232 1909.62 36.0774 Q1906.3 32.4315 1900.79 32.4315 Q1894.55 32.4315 1890.79 35.9558 Q1887.06 39.4801 1886.49 45.8805 L1913.07 45.84 Z" fill="#000000" fill-rule="evenodd" fill-opacity="1" /><path clip-path="url(#clip310)" d="M 0 0 M1940.13 14.324 L1940.13 27.2059 L1955.48 27.2059 L1955.48 32.9987 L1940.13 32.9987 L1940.13 57.6282 Q1940.13 63.1779 1941.63 64.7578 Q1943.16 66.3376 1947.82 66.3376 L1955.48 66.3376 L1955.48 72.576 L1947.82 72.576 Q1939.19 72.576 1935.91 69.3758 Q1932.63 66.1351 1932.63 57.6282 L1932.63 32.9987 L1927.16 32.9987 L1927.16 27.2059 L1932.63 27.2059 L1932.63 14.324 L1940.13 14.324 Z" fill="#000000" fill-rule="evenodd" fill-opacity="1" /><polyline clip-path="url(#clip313)" style="stroke:#009af9; stroke-width:4; stroke-opacity:1; fill:none" points="
  280.617,158.575 282.537,1012.85 284.458,1195.93 286.378,1232.26 288.299,1242.06 290.219,1205.35 292.14,1253.01 294.06,1230.77 295.981,1244.73 297.901,1199.62 
  299.822,1241.23 301.742,1305.27 303.663,1297.54 305.583,1215.31 307.504,1236.51 309.424,1248.06 311.345,1236.56 313.265,1187.86 315.186,1232.71 317.106,1238.7 
  319.027,1266.91 320.947,1267.69 322.868,1214.46 324.788,1226.87 326.709,1185.64 328.629,1204.06 330.55,1167.17 332.47,1163.06 334.391,1264.88 336.311,1304.62 
  338.232,1279.89 340.152,1262.7 342.073,1248.84 343.993,1248.12 345.914,1279.18 347.834,1251.77 349.755,1236.35 351.675,1232.08 353.596,1250.93 355.516,1291.87 
  357.437,1263.42 359.357,1245.35 361.278,1195.09 363.198,1205.99 365.119,1214.25 367.039,1213.01 368.96,1201.91 370.88,1236.63 372.801,1217.97 374.721,1235.35 
  376.642,1238.31 378.562,1217.73 380.483,1201.73 382.403,1234.3 384.324,1206.56 386.244,1182.22 388.165,1222.91 390.085,1218.5 392.006,1237.44 393.926,1216.92 
  395.847,1233.36 397.767,1284.29 399.688,1182.11 401.608,1154.89 403.529,1168.18 405.449,1263.97 407.37,1277.38 409.29,1269.42 411.211,1203.11 413.131,1232.62 
  415.052,1276.17 416.972,1284.96 418.893,1263.45 420.813,1262.29 422.734,1282.02 424.654,1278.41 426.575,1281.34 428.495,1225.75 430.416,1237.68 432.336,1230.03 
  434.257,1253.96 436.177,1260.96 438.098,1192.44 440.018,1245.86 441.939,1258.33 443.859,1212.98 445.78,1272.59 447.7,1246.31 449.621,1295.73 451.541,1249.92 
  453.462,1209.16 455.382,1223.69 457.303,1320.02 459.223,1294.64 461.144,1218.73 463.064,1209.24 464.985,1302.73 466.906,1262.46 468.826,1191.49 470.747,1167.15 
  472.667,1150.37 474.588,1259.4 476.508,1205.36 478.429,1260.16 480.349,1238.88 482.27,1208.8 484.19,1199.58 486.111,1187.9 488.031,1205 489.952,1232.99 
  491.872,1268.9 493.793,1326.91 495.713,1221.48 497.634,1227.81 499.554,1208.5 501.475,1227.49 503.395,1222.89 505.316,1127.72 507.236,1231.86 509.157,1250.09 
  511.077,1213.97 512.998,1224.45 514.918,1212.25 516.839,1266.66 518.759,1241.36 520.68,1201.28 522.6,1234.76 524.521,1178.31 526.441,1244.8 528.362,1283.63 
  530.282,1231.07 532.203,1197.11 534.123,1246.33 536.044,1286.18 537.964,1267.67 539.885,1292.52 541.805,1252.21 543.726,1269.25 545.646,1297.7 547.567,1252.9 
  549.487,1195.54 551.408,1211.03 553.328,1219.91 555.249,1208.52 557.169,1168.66 559.09,1212.14 561.01,1242.73 562.931,1213.03 564.851,1244.47 566.772,1178.47 
  568.692,1182.84 570.613,1269.19 572.533,1258.24 574.454,1210.64 576.374,1218.82 578.295,1268.92 580.215,1236.31 582.136,1225.27 584.056,1216.83 585.977,1211.81 
  587.897,1219.37 589.818,1207.3 591.738,1236.47 593.659,1192.06 595.579,1275.67 597.5,1255.79 599.42,1251.66 601.341,1217.6 603.261,1201.87 605.182,1214.02 
  607.102,1219.44 609.023,1233.02 610.943,1233.79 612.864,1202.18 614.784,1276.52 616.705,1251.24 618.625,1215.19 620.546,1207.58 622.466,1215.05 624.387,1250.94 
  626.307,1200.9 628.228,1220.63 630.148,1207.61 632.069,1222 633.989,1226.5 635.91,1211.33 637.83,1202.73 639.751,1223.61 641.671,1278.42 643.592,1259.09 
  645.512,1243.72 647.433,1223.74 649.353,1260.25 651.274,1279.37 653.194,1273.56 655.115,1275.5 657.035,1290.75 658.956,1268.01 660.876,1268.35 662.797,1193.73 
  664.717,1174.11 666.638,1239.94 668.558,1214.39 670.479,1202.37 672.399,1191.87 674.32,1183.21 676.24,1170.72 678.161,1167.93 680.081,1226.94 682.002,1270.7 
  683.922,1239.97 685.843,1310.96 687.763,1247.56 689.684,1232.16 691.604,1241.92 693.525,1233.48 695.445,1226.84 697.366,1269.32 699.286,1228.05 701.207,1205.5 
  703.127,1287.31 705.048,1301.72 706.968,1172.65 708.889,1164.09 710.809,1213.26 712.73,1197.03 714.65,1179.81 716.571,1187.39 718.491,1197.42 720.412,1217.04 
  722.332,1273.8 724.253,1259.79 726.173,1188.3 728.094,1233.08 730.014,1215.18 731.935,1238.61 733.855,1209.39 735.776,1250.33 737.696,1276.92 739.617,1232.88 
  741.537,1264.51 743.458,1198.7 745.378,1234.73 747.299,1245.55 749.219,1231.34 751.14,1248.4 753.06,1194.58 754.981,1246.02 756.901,1183.48 758.822,1220.07 
  760.742,1240.88 762.663,1241.94 764.583,1242.65 766.504,1284.83 768.424,1218.05 770.345,1231.82 772.265,1253.01 774.186,1284.4 776.106,1203.49 778.027,1204.72 
  779.947,1168.77 781.868,1172.39 783.788,1257.43 785.709,1217.14 787.629,1265.49 789.55,1176.46 791.47,1181.74 793.391,1170.43 795.311,1237.63 797.232,1228.75 
  799.152,1174.58 801.073,1232.23 802.993,1215.58 804.914,1201.82 806.834,1168.62 808.755,1275.83 810.675,1271.06 812.596,1245.53 814.516,1264.22 816.437,1281.47 
  818.357,1241.26 820.278,1212.1 822.198,1219.04 824.119,1289.98 826.039,1273.46 827.96,1179.61 829.88,1156.66 831.801,1225.08 833.721,1263.69 835.642,1177.84 
  837.562,1123.5 839.483,1169.02 841.403,1227.46 843.324,1251.27 845.244,1244.64 847.165,1277.56 849.085,1244.56 851.006,1234.16 852.926,1225.42 854.847,1199.17 
  856.767,1223.46 858.688,1258.27 860.608,1273.24 862.529,1206.02 864.449,1220.97 866.37,1258.47 868.29,1265.31 870.211,1190.81 872.131,1207.16 874.052,1218.05 
  875.972,1274.44 877.893,1225.1 879.813,1222.54 881.734,1199.27 883.654,1196.56 885.575,1260.2 887.495,1207.08 889.416,1221.7 891.336,1250.43 893.257,1269.81 
  895.177,1290.2 897.098,1270.93 899.018,1229.51 900.939,1219.48 902.859,1270.69 904.78,1287.31 906.7,1294.73 908.621,1274.57 910.542,1287.31 912.462,1251.06 
  914.383,1249.1 916.303,1188.67 918.224,1234.22 920.144,1207.22 922.065,1193.13 923.985,1239.35 925.906,1222.05 927.826,1274.67 929.747,1195.17 931.667,1201.92 
  933.588,1251.04 935.508,1298.69 937.429,1312.61 939.349,1217.15 941.27,1216.04 943.19,1189.8 945.111,1228.65 947.031,1240.44 948.952,1236.3 950.872,1140.74 
  952.793,1200.6 954.713,1263.55 956.634,1292.6 958.554,1223.28 960.475,1220.94 962.395,1250.22 964.316,1166.21 966.236,1233.82 968.157,1220.37 970.077,1273.52 
  971.998,1220.08 973.918,1284.93 975.839,1279.22 977.759,1204.45 979.68,1278.08 981.6,1268.44 983.521,1219.56 985.441,1228.8 987.362,1237.98 989.282,1212.11 
  991.203,1263.67 993.123,1178.15 995.044,1206.1 996.964,1244.91 998.885,1275.22 1000.81,1199.37 1002.73,1232.92 1004.65,1233.1 1006.57,1247.28 1008.49,1220.16 
  1010.41,1212.95 1012.33,1271.05 1014.25,1231.21 1016.17,1226.22 1018.09,1230.04 1020.01,1202.46 1021.93,1214.92 1023.85,1236.51 1025.77,1209.2 1027.69,1250.02 
  1029.61,1228.25 1031.53,1184.45 1033.45,1275.5 1035.37,1250.38 1037.29,1270.29 1039.22,1239.48 1041.14,1241.46 1043.06,1260.36 1044.98,1216.52 1046.9,1243.62 
  1048.82,1270.44 1050.74,1175.08 1052.66,1193.71 1054.58,1247.55 1056.5,1250.06 1058.42,1241.14 1060.34,1220.95 1062.26,1183.59 1064.18,1201.19 1066.1,1204.33 
  1068.02,1206.17 1069.94,1204.11 1071.86,1230.7 1073.78,1200.51 1075.7,1200.71 1077.63,1246 1079.55,1259.78 1081.47,1193.19 1083.39,1246.33 1085.31,1276.47 
  1087.23,1225.38 1089.15,1203.69 1091.07,1187.88 1092.99,1242.64 1094.91,1264.47 1096.83,1294.6 1098.75,1203.64 1100.67,1226.54 1102.59,1226.75 1104.51,1285.56 
  1106.43,1286.56 1108.35,1325.24 1110.27,1263.74 1112.19,1185.29 1114.11,1156.79 1116.04,1150.55 1117.96,1209.41 1119.88,1258.12 1121.8,1203.85 1123.72,1178.65 
  1125.64,1248.01 1127.56,1207.18 1129.48,1263.46 1131.4,1182.72 1133.32,1226.16 1135.24,1247.98 1137.16,1278.46 1139.08,1167.32 1141,1173.96 1142.92,1221.63 
  1144.84,1255.58 1146.76,1241.07 1148.68,1250.45 1150.6,1198.41 1152.52,1288.92 1154.45,1307.67 1156.37,1219.78 1158.29,1202.32 1160.21,1181.44 1162.13,1209.9 
  1164.05,1189.23 1165.97,1201.3 1167.89,1243.89 1169.81,1246.62 1171.73,1242.09 1173.65,1169.27 1175.57,1196.33 1177.49,1248.51 1179.41,1246.18 1181.33,1237.4 
  1183.25,1197.63 1185.17,1211.11 1187.09,1238.44 1189.01,1249.09 1190.93,1238.17 1192.86,1240.54 1194.78,1243.6 1196.7,1260.95 1198.62,1249.27 1200.54,1258.71 
  1202.46,1210.54 1204.38,1224.43 1206.3,1228.99 1208.22,1262.39 1210.14,1253.07 1212.06,1217.44 1213.98,1247.36 1215.9,1273.53 1217.82,1256.1 1219.74,1173.74 
  1221.66,1146.21 1223.58,1179.16 1225.5,1216.9 1227.42,1234.17 1229.34,1249.56 1231.27,1246.81 1233.19,1208.4 1235.11,1190.8 1237.03,1171.68 1238.95,1209.12 
  1240.87,1262.53 1242.79,1268.73 1244.71,1264.01 1246.63,1221.3 1248.55,1189.72 1250.47,1221.08 1252.39,1277.65 1254.31,1216.55 1256.23,1233.18 1258.15,1265.34 
  1260.07,1304.45 1261.99,1257.69 1263.91,1249 1265.83,1208.35 1267.75,1212.53 1269.68,1156.96 1271.6,1187.87 1273.52,1242.85 1275.44,1227.47 1277.36,1236.42 
  1279.28,1270.09 1281.2,1189.59 1283.12,1191.24 1285.04,1256.75 1286.96,1244.23 1288.88,1221.49 1290.8,1228.63 1292.72,1230.49 1294.64,1271.13 1296.56,1252.31 
  1298.48,1242.02 1300.4,1248.7 1302.32,1232.13 1304.24,1265.61 1306.16,1244.66 1308.09,1214.45 1310.01,1244.33 1311.93,1292.01 1313.85,1222.84 1315.77,1187.56 
  1317.69,1176.02 1319.61,1245.53 1321.53,1213.47 1323.45,1224.04 1325.37,1284.5 1327.29,1248.12 1329.21,1259.83 1331.13,1252.15 1333.05,1252.7 1334.97,1270.97 
  1336.89,1225.6 1338.81,1158.72 1340.73,1209.54 1342.65,1206.21 1344.57,1293.73 1346.5,1272.02 1348.42,1254.19 1350.34,1255.54 1352.26,1292.9 1354.18,1211.16 
  1356.1,1211.03 1358.02,1206.98 1359.94,1170.65 1361.86,1165.53 1363.78,1201.52 1365.7,1265.56 1367.62,1283.2 1369.54,1267.38 1371.46,1247.14 1373.38,1294.15 
  1375.3,1243.94 1377.22,1266.44 1379.14,1246.26 1381.06,1193.44 1382.99,1252.02 1384.91,1142.57 1386.83,1207.63 1388.75,1228.93 1390.67,1215.08 1392.59,1216.47 
  1394.51,1223.98 1396.43,1296.2 1398.35,1283.85 1400.27,1270.03 1402.19,1229.25 1404.11,1211.69 1406.03,1235.37 1407.95,1268.98 1409.87,1228.42 1411.79,1225.57 
  1413.71,1234.39 1415.63,1307.35 1417.55,1305.75 1419.47,1272.07 1421.4,1228.12 1423.32,1207.86 1425.24,1275.36 1427.16,1186.63 1429.08,1251.64 1431,1223.79 
  1432.92,1294.25 1434.84,1234.42 1436.76,1207.4 1438.68,1185.5 1440.6,1233.89 1442.52,1271.71 1444.44,1267.28 1446.36,1183.37 1448.28,1171.11 1450.2,1260.28 
  1452.12,1236.7 1454.04,1214.04 1455.96,1230.37 1457.88,1274.4 1459.81,1265.01 1461.73,1298.19 1463.65,1190.84 1465.57,1185.49 1467.49,1328.69 1469.41,1229.32 
  1471.33,1175.05 1473.25,1142.36 1475.17,1228.59 1477.09,1161.24 1479.01,1163.49 1480.93,1173.77 1482.85,1158.99 1484.77,1167.4 1486.69,1244.96 1488.61,1201.02 
  1490.53,1208.87 1492.45,1324.55 1494.37,1270.05 1496.29,1229.81 1498.22,1179.37 1500.14,1192.84 1502.06,1235.28 1503.98,1205.31 1505.9,1222.08 1507.82,1151.19 
  1509.74,1211.88 1511.66,1202.63 1513.58,1214.58 1515.5,1211.61 1517.42,1241.59 1519.34,1255.55 1521.26,1257.91 1523.18,1252.92 1525.1,1233.12 1527.02,1184.14 
  1528.94,1269.81 1530.86,1201.25 1532.78,1200.37 1534.7,1218.9 1536.63,1203.53 1538.55,1286.17 1540.47,1256.94 1542.39,1175.69 1544.31,1148.18 1546.23,1166.52 
  1548.15,1223.03 1550.07,1213.12 1551.99,1245.69 1553.91,1229.88 1555.83,1288.35 1557.75,1186.13 1559.67,1228.36 1561.59,1242.34 1563.51,1167.5 1565.43,1232.39 
  1567.35,1201.61 1569.27,1187.71 1571.19,1205.54 1573.11,1296.14 1575.04,1256.02 1576.96,1210.39 1578.88,1238.58 1580.8,1219.97 1582.72,1237.91 1584.64,1225.37 
  1586.56,1183.92 1588.48,1214.1 1590.4,1201.38 1592.32,1225 1594.24,1217.07 1596.16,1217.98 1598.08,1279.34 1600,1156.56 1601.92,1203.74 1603.84,1243.41 
  1605.76,1241.83 1607.68,1303.51 1609.6,1248.42 1611.52,1226.75 1613.45,1184.49 1615.37,1231.39 1617.29,1253.24 1619.21,1281.01 1621.13,1233.68 1623.05,1188.4 
  1624.97,1255.22 1626.89,1245.97 1628.81,1211.17 1630.73,1153.18 1632.65,1165.2 1634.57,1245.32 1636.49,1254.55 1638.41,1178.55 1640.33,1227.3 1642.25,1232.01 
  1644.17,1271.65 1646.09,1236.25 1648.01,1252.69 1649.93,1259.42 1651.86,1224.61 1653.78,1231.5 1655.7,1205.28 1657.62,1220.31 1659.54,1244.18 1661.46,1217.21 
  1663.38,1173 1665.3,1194.05 1667.22,1202.9 1669.14,1212.01 1671.06,1192.74 1672.98,1202.82 1674.9,1231.88 1676.82,1277.96 1678.74,1307.28 1680.66,1181.11 
  1682.58,1310.78 1684.5,1246.57 1686.42,1247.33 1688.34,1235.76 1690.27,1236.12 1692.19,1283.35 1694.11,1274.44 1696.03,1234.28 1697.95,1195.86 1699.87,1233.15 
  1701.79,1226.78 1703.71,1256.47 1705.63,1233.79 1707.55,1193.74 1709.47,1240.36 1711.39,1289.87 1713.31,1275.71 1715.23,1257.79 1717.15,1255.34 1719.07,1280.63 
  1720.99,1265.75 1722.91,1198.47 1724.83,1265.52 1726.75,1271.49 1728.68,1327.43 1730.6,1277.42 1732.52,1195.29 1734.44,1185.21 1736.36,1238.3 1738.28,1258.86 
  1740.2,1248.08 1742.12,1212.22 1744.04,1258.75 1745.96,1275.95 1747.88,1187.9 1749.8,1213.24 1751.72,1200.64 1753.64,1194.65 1755.56,1244.48 1757.48,1272.41 
  1759.4,1170.56 1761.32,1177.76 1763.24,1300.82 1765.16,1313.86 1767.09,1308.34 1769.01,1275.68 1770.93,1270.62 1772.85,1231.46 1774.77,1228.86 1776.69,1232.89 
  1778.61,1190.86 1780.53,1237.95 1782.45,1233.27 1784.37,1225.41 1786.29,1197.44 1788.21,1223.67 1790.13,1181.52 1792.05,1183.44 1793.97,1152.72 1795.89,1161.92 
  1797.81,1238.79 1799.73,1276.8 1801.65,1215.32 1803.58,1226.86 1805.5,1255.99 1807.42,1254.18 1809.34,1264.74 1811.26,1180.32 1813.18,1232.39 1815.1,1258.53 
  1817.02,1283.65 1818.94,1255.01 1820.86,1181.8 1822.78,1266.23 1824.7,1264.23 1826.62,1210.65 1828.54,1206.63 1830.46,1211.97 1832.38,1236.8 1834.3,1271 
  1836.22,1251.35 1838.14,1198.67 1840.06,1160.85 1841.99,1247.3 1843.91,1237.08 1845.83,1208.56 1847.75,1217.58 1849.67,1321.78 1851.59,1325.02 1853.51,1267.73 
  1855.43,1256.27 1857.35,1217.8 1859.27,1261.86 1861.19,1267.61 1863.11,1197.71 1865.03,1250.07 1866.95,1231.59 1868.87,1267.87 1870.79,1160.44 1872.71,1189.8 
  1874.63,1213.37 1876.55,1199.87 1878.47,1222.18 1880.4,1198.44 1882.32,1155.57 1884.24,1171.04 1886.16,1208.57 1888.08,1256.14 1890,1224.59 1891.92,1227.77 
  1893.84,1241.82 1895.76,1241.38 1897.68,1253.28 1899.6,1212.75 1901.52,1273.39 1903.44,1270.08 1905.36,1218.63 1907.28,1240.1 1909.2,1189.38 1911.12,1184.88 
  1913.04,1252.44 1914.96,1239.86 1916.88,1218.37 1918.81,1245.44 1920.73,1274.53 1922.65,1265.49 1924.57,1213.91 1926.49,1294.94 1928.41,1260.59 1930.33,1261.91 
  1932.25,1187.77 1934.17,1155.89 1936.09,1258.89 1938.01,1307.53 1939.93,1282.99 1941.85,1177.54 1943.77,1258.22 1945.69,1258.58 1947.61,1225.29 1949.53,1157.07 
  1951.45,1230.51 1953.37,1233.81 1955.29,1284.27 1957.22,1197.99 1959.14,1179.66 1961.06,1176.77 1962.98,1188.93 1964.9,1205.94 1966.82,1232.84 1968.74,1244.2 
  1970.66,1225.59 1972.58,1262.79 1974.5,1195.84 1976.42,1167.3 1978.34,1172.17 1980.26,1221.43 1982.18,1226.87 1984.1,1191.45 1986.02,1258.64 1987.94,1285.04 
  1989.86,1247.96 1991.78,1253.87 1993.7,1156.41 1995.63,1161.53 1997.55,1179.05 1999.47,1218.4 2001.39,1211.8 2003.31,1181.76 2005.23,1130.98 2007.15,1190.19 
  2009.07,1200.52 2010.99,1228.91 2012.91,1258.88 2014.83,1235.98 2016.75,1304.78 2018.67,1296.97 2020.59,1197.62 2022.51,1186.7 2024.43,1227.94 2026.35,1168.06 
  2028.27,1156.69 2030.19,1144.69 2032.11,1238.88 2034.04,1235.88 2035.96,1248.12 2037.88,1304.94 2039.8,1241.79 2041.72,1264.17 2043.64,1217.38 2045.56,1208.5 
  2047.48,1261.43 2049.4,1311.61 2051.32,1292.48 2053.24,1186.45 2055.16,1173.37 2057.08,1212.02 2059,1268.41 2060.92,1289.06 2062.84,1207.69 2064.76,1199.63 
  2066.68,1254.47 2068.6,1189.93 2070.52,1249.2 2072.45,1216.08 2074.37,1240.82 2076.29,1244.37 2078.21,1204.18 2080.13,1227.76 2082.05,1141.49 2083.97,1177.46 
  2085.89,1176.42 2087.81,1197.11 2089.73,1195.14 2091.65,1239.38 2093.57,1284.94 2095.49,1268.6 2097.41,1222.46 2099.33,1207.12 2101.25,1228 2103.17,1245.2 
  2105.09,1185.53 2107.01,1187.37 2108.93,1215.05 2110.86,1272.18 2112.78,1229.03 2114.7,1165.25 2116.62,1131.17 2118.54,1209.02 2120.46,1238.13 2122.38,1183.78 
  2124.3,1234.46 2126.22,1271.13 2128.14,1275.23 2130.06,1250.8 2131.98,1219.62 2133.9,1229.09 2135.82,1245.37 2137.74,1291.3 2139.66,1223.85 2141.58,1243.13 
  2143.5,1283.48 2145.42,1214.8 2147.34,1262.78 2149.27,1186.44 2151.19,1213.6 2153.11,1211.82 2155.03,1243.76 2156.95,1266 2158.87,1321.33 2160.79,1262.78 
  2162.71,1250.62 2164.63,1289.07 2166.55,1255.08 2168.47,1193.72 2170.39,1253.53 2172.31,1226.39 2174.23,1234.48 2176.15,1241.1 2178.07,1247.02 2179.99,1231.25 
  2181.91,1200.6 2183.83,1215.75 2185.75,1167.09 2187.68,1188.01 2189.6,1252.97 2191.52,1243.19 2193.44,1189.87 2195.36,1187.1 2197.28,1193.12 2199.2,1242.26 
  
  "/>
</svg>
