<?xml version="1.0" encoding="utf-8"?>
<svg xmlns="http://www.w3.org/2000/svg" xmlns:xlink="http://www.w3.org/1999/xlink" width="576" height="384" viewBox="0 0 2304 1536">
<defs>
  <clipPath id="clip040">
    <rect x="0" y="0" width="2304" height="1536"/>
  </clipPath>
</defs>
<path clip-path="url(#clip040)" d="
M0 1536 L2304 1536 L2304 0 L0 0  Z
  " fill="#ffffff" fill-rule="evenodd" fill-opacity="1"/>
<defs>
  <clipPath id="clip041">
    <rect x="460" y="0" width="1614" height="1536"/>
  </clipPath>
</defs>
<defs>
  <clipPath id="clip042">
    <rect x="223" y="123" width="2035" height="1241"/>
  </clipPath>
</defs>
<path clip-path="url(#clip040)" d="
M310.583 1363.79 L2256.76 1363.79 L2256.76 123.472 L310.583 123.472  Z
  " fill="#ffffff" fill-rule="evenodd" fill-opacity="1"/>
<defs>
  <clipPath id="clip043">
    <rect x="310" y="123" width="1947" height="1241"/>
  </clipPath>
</defs>
<polyline clip-path="url(#clip043)" style="stroke:#000000; stroke-width:2; stroke-opacity:0.1; fill:none" points="
  365.663,1363.79 365.663,123.472 
  "/>
<polyline clip-path="url(#clip043)" style="stroke:#000000; stroke-width:2; stroke-opacity:0.1; fill:none" points="
  825.126,1363.79 825.126,123.472 
  "/>
<polyline clip-path="url(#clip043)" style="stroke:#000000; stroke-width:2; stroke-opacity:0.1; fill:none" points="
  1284.59,1363.79 1284.59,123.472 
  "/>
<polyline clip-path="url(#clip043)" style="stroke:#000000; stroke-width:2; stroke-opacity:0.1; fill:none" points="
  1744.05,1363.79 1744.05,123.472 
  "/>
<polyline clip-path="url(#clip043)" style="stroke:#000000; stroke-width:2; stroke-opacity:0.1; fill:none" points="
  2203.51,1363.79 2203.51,123.472 
  "/>
<polyline clip-path="url(#clip040)" style="stroke:#000000; stroke-width:4; stroke-opacity:1; fill:none" points="
  310.583,1363.79 2256.76,1363.79 
  "/>
<polyline clip-path="url(#clip040)" style="stroke:#000000; stroke-width:4; stroke-opacity:1; fill:none" points="
  365.663,1363.79 365.663,1348.91 
  "/>
<polyline clip-path="url(#clip040)" style="stroke:#000000; stroke-width:4; stroke-opacity:1; fill:none" points="
  825.126,1363.79 825.126,1348.91 
  "/>
<polyline clip-path="url(#clip040)" style="stroke:#000000; stroke-width:4; stroke-opacity:1; fill:none" points="
  1284.59,1363.79 1284.59,1348.91 
  "/>
<polyline clip-path="url(#clip040)" style="stroke:#000000; stroke-width:4; stroke-opacity:1; fill:none" points="
  1744.05,1363.79 1744.05,1348.91 
  "/>
<polyline clip-path="url(#clip040)" style="stroke:#000000; stroke-width:4; stroke-opacity:1; fill:none" points="
  2203.51,1363.79 2203.51,1348.91 
  "/>
<path clip-path="url(#clip040)" d="M 0 0 M343.048 1392.21 Q339.436 1392.21 337.608 1395.78 Q335.802 1399.32 335.802 1406.45 Q335.802 1413.56 337.608 1417.12 Q339.436 1420.66 343.048 1420.66 Q346.682 1420.66 348.487 1417.12 Q350.316 1413.56 350.316 1406.45 Q350.316 1399.32 348.487 1395.78 Q346.682 1392.21 343.048 1392.21 M343.048 1388.51 Q348.858 1388.51 351.913 1393.12 Q354.992 1397.7 354.992 1406.45 Q354.992 1415.18 351.913 1419.78 Q348.858 1424.37 343.048 1424.37 Q337.237 1424.37 334.159 1419.78 Q331.103 1415.18 331.103 1406.45 Q331.103 1397.7 334.159 1393.12 Q337.237 1388.51 343.048 1388.51 Z" fill="#000000" fill-rule="evenodd" fill-opacity="1" /><path clip-path="url(#clip040)" d="M 0 0 M363.209 1417.81 L368.094 1417.81 L368.094 1423.69 L363.209 1423.69 L363.209 1417.81 Z" fill="#000000" fill-rule="evenodd" fill-opacity="1" /><path clip-path="url(#clip040)" d="M 0 0 M388.279 1392.21 Q384.668 1392.21 382.839 1395.78 Q381.033 1399.32 381.033 1406.45 Q381.033 1413.56 382.839 1417.12 Q384.668 1420.66 388.279 1420.66 Q391.913 1420.66 393.719 1417.12 Q395.547 1413.56 395.547 1406.45 Q395.547 1399.32 393.719 1395.78 Q391.913 1392.21 388.279 1392.21 M388.279 1388.51 Q394.089 1388.51 397.144 1393.12 Q400.223 1397.7 400.223 1406.45 Q400.223 1415.18 397.144 1419.78 Q394.089 1424.37 388.279 1424.37 Q382.469 1424.37 379.39 1419.78 Q376.334 1415.18 376.334 1406.45 Q376.334 1397.7 379.39 1393.12 Q382.469 1388.51 388.279 1388.51 Z" fill="#000000" fill-rule="evenodd" fill-opacity="1" /><path clip-path="url(#clip040)" d="M 0 0 M796.862 1419.76 L813.181 1419.76 L813.181 1423.69 L791.237 1423.69 L791.237 1419.76 Q793.899 1417 798.482 1412.37 Q803.089 1407.72 804.269 1406.38 Q806.515 1403.86 807.394 1402.12 Q808.297 1400.36 808.297 1398.67 Q808.297 1395.92 806.353 1394.18 Q804.431 1392.44 801.33 1392.44 Q799.131 1392.44 796.677 1393.21 Q794.246 1393.97 791.469 1395.52 L791.469 1390.8 Q794.293 1389.67 796.746 1389.09 Q799.2 1388.51 801.237 1388.51 Q806.607 1388.51 809.802 1391.19 Q812.996 1393.88 812.996 1398.37 Q812.996 1400.5 812.186 1402.42 Q811.399 1404.32 809.292 1406.91 Q808.714 1407.58 805.612 1410.8 Q802.51 1413.99 796.862 1419.76 Z" fill="#000000" fill-rule="evenodd" fill-opacity="1" /><path clip-path="url(#clip040)" d="M 0 0 M822.996 1417.81 L827.88 1417.81 L827.88 1423.69 L822.996 1423.69 L822.996 1417.81 Z" fill="#000000" fill-rule="evenodd" fill-opacity="1" /><path clip-path="url(#clip040)" d="M 0 0 M838.112 1389.13 L856.468 1389.13 L856.468 1393.07 L842.394 1393.07 L842.394 1401.54 Q843.413 1401.19 844.431 1401.03 Q845.45 1400.85 846.468 1400.85 Q852.255 1400.85 855.635 1404.02 Q859.014 1407.19 859.014 1412.61 Q859.014 1418.18 855.542 1421.29 Q852.07 1424.37 845.751 1424.37 Q843.575 1424.37 841.306 1423.99 Q839.061 1423.62 836.653 1422.88 L836.653 1418.18 Q838.737 1419.32 840.959 1419.87 Q843.181 1420.43 845.658 1420.43 Q849.663 1420.43 852.001 1418.32 Q854.339 1416.22 854.339 1412.61 Q854.339 1408.99 852.001 1406.89 Q849.663 1404.78 845.658 1404.78 Q843.783 1404.78 841.908 1405.2 Q840.056 1405.62 838.112 1406.49 L838.112 1389.13 Z" fill="#000000" fill-rule="evenodd" fill-opacity="1" /><path clip-path="url(#clip040)" d="M 0 0 M1251.75 1389.13 L1270.11 1389.13 L1270.11 1393.07 L1256.04 1393.07 L1256.04 1401.54 Q1257.05 1401.19 1258.07 1401.03 Q1259.09 1400.85 1260.11 1400.85 Q1265.9 1400.85 1269.28 1404.02 Q1272.66 1407.19 1272.66 1412.61 Q1272.66 1418.18 1269.18 1421.29 Q1265.71 1424.37 1259.39 1424.37 Q1257.22 1424.37 1254.95 1423.99 Q1252.7 1423.62 1250.29 1422.88 L1250.29 1418.18 Q1252.38 1419.32 1254.6 1419.87 Q1256.82 1420.43 1259.3 1420.43 Q1263.3 1420.43 1265.64 1418.32 Q1267.98 1416.22 1267.98 1412.61 Q1267.98 1408.99 1265.64 1406.89 Q1263.3 1404.78 1259.3 1404.78 Q1257.42 1404.78 1255.55 1405.2 Q1253.7 1405.62 1251.75 1406.49 L1251.75 1389.13 Z" fill="#000000" fill-rule="evenodd" fill-opacity="1" /><path clip-path="url(#clip040)" d="M 0 0 M1281.87 1417.81 L1286.75 1417.81 L1286.75 1423.69 L1281.87 1423.69 L1281.87 1417.81 Z" fill="#000000" fill-rule="evenodd" fill-opacity="1" /><path clip-path="url(#clip040)" d="M 0 0 M1306.94 1392.21 Q1303.33 1392.21 1301.5 1395.78 Q1299.69 1399.32 1299.69 1406.45 Q1299.69 1413.56 1301.5 1417.12 Q1303.33 1420.66 1306.94 1420.66 Q1310.57 1420.66 1312.38 1417.12 Q1314.21 1413.56 1314.21 1406.45 Q1314.21 1399.32 1312.38 1395.78 Q1310.57 1392.21 1306.94 1392.21 M1306.94 1388.51 Q1312.75 1388.51 1315.8 1393.12 Q1318.88 1397.7 1318.88 1406.45 Q1318.88 1415.18 1315.8 1419.78 Q1312.75 1424.37 1306.94 1424.37 Q1301.13 1424.37 1298.05 1419.78 Q1294.99 1415.18 1294.99 1406.45 Q1294.99 1397.7 1298.05 1393.12 Q1301.13 1388.51 1306.94 1388.51 Z" fill="#000000" fill-rule="evenodd" fill-opacity="1" /><path clip-path="url(#clip040)" d="M 0 0 M1710.37 1389.13 L1732.59 1389.13 L1732.59 1391.12 L1720.05 1423.69 L1715.16 1423.69 L1726.97 1393.07 L1710.37 1393.07 L1710.37 1389.13 Z" fill="#000000" fill-rule="evenodd" fill-opacity="1" /><path clip-path="url(#clip040)" d="M 0 0 M1741.71 1417.81 L1746.6 1417.81 L1746.6 1423.69 L1741.71 1423.69 L1741.71 1417.81 Z" fill="#000000" fill-rule="evenodd" fill-opacity="1" /><path clip-path="url(#clip040)" d="M 0 0 M1756.83 1389.13 L1775.18 1389.13 L1775.18 1393.07 L1761.11 1393.07 L1761.11 1401.54 Q1762.13 1401.19 1763.15 1401.03 Q1764.17 1400.85 1765.18 1400.85 Q1770.97 1400.85 1774.35 1404.02 Q1777.73 1407.19 1777.73 1412.61 Q1777.73 1418.18 1774.26 1421.29 Q1770.79 1424.37 1764.47 1424.37 Q1762.29 1424.37 1760.02 1423.99 Q1757.78 1423.62 1755.37 1422.88 L1755.37 1418.18 Q1757.45 1419.32 1759.68 1419.87 Q1761.9 1420.43 1764.37 1420.43 Q1768.38 1420.43 1770.72 1418.32 Q1773.06 1416.22 1773.06 1412.61 Q1773.06 1408.99 1770.72 1406.89 Q1768.38 1404.78 1764.37 1404.78 Q1762.5 1404.78 1760.62 1405.2 Q1758.77 1405.62 1756.83 1406.49 L1756.83 1389.13 Z" fill="#000000" fill-rule="evenodd" fill-opacity="1" /><path clip-path="url(#clip040)" d="M 0 0 M2155.59 1419.76 L2163.22 1419.76 L2163.22 1393.39 L2154.91 1395.06 L2154.91 1390.8 L2163.18 1389.13 L2167.85 1389.13 L2167.85 1419.76 L2175.49 1419.76 L2175.49 1423.69 L2155.59 1423.69 L2155.59 1419.76 Z" fill="#000000" fill-rule="evenodd" fill-opacity="1" /><path clip-path="url(#clip040)" d="M 0 0 M2194.94 1392.21 Q2191.33 1392.21 2189.5 1395.78 Q2187.69 1399.32 2187.69 1406.45 Q2187.69 1413.56 2189.5 1417.12 Q2191.33 1420.66 2194.94 1420.66 Q2198.57 1420.66 2200.38 1417.12 Q2202.21 1413.56 2202.21 1406.45 Q2202.21 1399.32 2200.38 1395.78 Q2198.57 1392.21 2194.94 1392.21 M2194.94 1388.51 Q2200.75 1388.51 2203.8 1393.12 Q2206.88 1397.7 2206.88 1406.45 Q2206.88 1415.18 2203.8 1419.78 Q2200.75 1424.37 2194.94 1424.37 Q2189.13 1424.37 2186.05 1419.78 Q2182.99 1415.18 2182.99 1406.45 Q2182.99 1397.7 2186.05 1393.12 Q2189.13 1388.51 2194.94 1388.51 Z" fill="#000000" fill-rule="evenodd" fill-opacity="1" /><path clip-path="url(#clip040)" d="M 0 0 M2215.1 1417.81 L2219.98 1417.81 L2219.98 1423.69 L2215.1 1423.69 L2215.1 1417.81 Z" fill="#000000" fill-rule="evenodd" fill-opacity="1" /><path clip-path="url(#clip040)" d="M 0 0 M2240.17 1392.21 Q2236.56 1392.21 2234.73 1395.78 Q2232.92 1399.32 2232.92 1406.45 Q2232.92 1413.56 2234.73 1417.12 Q2236.56 1420.66 2240.17 1420.66 Q2243.8 1420.66 2245.61 1417.12 Q2247.44 1413.56 2247.44 1406.45 Q2247.44 1399.32 2245.61 1395.78 Q2243.8 1392.21 2240.17 1392.21 M2240.17 1388.51 Q2245.98 1388.51 2249.03 1393.12 Q2252.11 1397.7 2252.11 1406.45 Q2252.11 1415.18 2249.03 1419.78 Q2245.98 1424.37 2240.17 1424.37 Q2234.36 1424.37 2231.28 1419.78 Q2228.22 1415.18 2228.22 1406.45 Q2228.22 1397.7 2231.28 1393.12 Q2234.36 1388.51 2240.17 1388.51 Z" fill="#000000" fill-rule="evenodd" fill-opacity="1" /><path clip-path="url(#clip040)" d="M 0 0 M1234.2 1465.79 Q1234.2 1468.04 1230.95 1468.04 L1219.87 1468.04 L1215.46 1490.62 Q1215.36 1491.2 1215.23 1491.52 Q1215.13 1491.84 1214.84 1492.39 Q1214.59 1492.9 1214.04 1493.16 Q1213.52 1493.45 1212.75 1493.45 Q1211.79 1493.45 1211.3 1492.87 Q1210.85 1492.33 1210.85 1491.65 Q1210.85 1491.23 1211.5 1489.23 L1217.97 1468.04 L1212.49 1468.04 Q1207.34 1468.04 1204.12 1473.13 Q1203.6 1473.81 1203.32 1473.87 Q1203.19 1473.9 1203.06 1473.9 Q1202.7 1473.9 1202.48 1473.74 Q1202.28 1473.58 1202.28 1473.42 L1202.25 1473.26 Q1202.25 1473.03 1202.77 1472.13 Q1203.32 1471.2 1204.28 1469.81 Q1205.28 1468.43 1206.28 1467.33 Q1207.6 1465.92 1209.08 1465.18 Q1210.56 1464.4 1211.3 1464.31 Q1212.08 1464.21 1213.07 1464.21 L1231.56 1464.21 Q1232.4 1464.21 1232.85 1464.27 Q1233.3 1464.31 1233.75 1464.69 Q1234.2 1465.05 1234.2 1465.79 Z" fill="#000000" fill-rule="evenodd" fill-opacity="1" /><path clip-path="url(#clip040)" d="M 0 0 M1252.49 1476.16 Q1252.49 1465.01 1256.64 1456.03 Q1258.42 1452.26 1260.9 1449.11 Q1263.38 1445.95 1265.02 1444.56 Q1266.66 1443.18 1267.11 1443.18 Q1267.76 1443.18 1267.79 1443.82 Q1267.79 1444.15 1266.92 1444.95 Q1256.29 1455.77 1256.32 1476.16 Q1256.32 1496.61 1266.66 1507.01 Q1267.79 1508.14 1267.79 1508.49 Q1267.79 1509.14 1267.11 1509.14 Q1266.66 1509.14 1265.08 1507.82 Q1263.5 1506.5 1261.06 1503.47 Q1258.61 1500.44 1256.84 1496.74 Q1252.49 1487.75 1252.49 1476.16 Z" fill="#000000" fill-rule="evenodd" fill-opacity="1" /><path clip-path="url(#clip040)" d="M 0 0 M1277.82 1492.65 L1277.82 1490.62 Q1281.33 1490.62 1282.13 1490.2 Q1282.94 1489.75 1282.94 1487.62 L1282.94 1469.94 Q1282.94 1467.49 1282.07 1466.88 Q1281.23 1466.27 1277.82 1466.27 L1277.82 1464.21 L1287.09 1463.5 L1287.09 1470.43 Q1290.18 1463.5 1296.85 1463.5 Q1301.81 1463.5 1303.77 1465.95 Q1305.22 1467.59 1305.51 1469.43 Q1305.84 1471.26 1305.84 1476.03 L1305.84 1488.62 Q1305.9 1490.01 1306.96 1490.33 Q1308.03 1490.62 1310.99 1490.62 L1310.99 1492.65 Q1304.26 1492.45 1303.58 1492.45 Q1303.07 1492.45 1296.14 1492.65 L1296.14 1490.62 Q1299.65 1490.62 1300.46 1490.2 Q1301.29 1489.75 1301.29 1487.62 L1301.29 1472.26 Q1301.29 1468.91 1300.26 1466.95 Q1299.23 1464.95 1296.4 1464.95 Q1292.99 1464.95 1290.25 1467.82 Q1287.51 1470.68 1287.51 1475.51 L1287.51 1487.62 Q1287.51 1489.75 1288.32 1490.2 Q1289.15 1490.62 1292.63 1490.62 L1292.63 1492.65 Q1285.9 1492.45 1285.26 1492.45 Q1284.74 1492.45 1277.82 1492.65 Z" fill="#000000" fill-rule="evenodd" fill-opacity="1" /><path clip-path="url(#clip040)" d="M 0 0 M1314.05 1491.78 L1314.05 1483.08 Q1314.05 1482.34 1314.08 1482.08 Q1314.12 1481.83 1314.31 1481.63 Q1314.5 1481.44 1314.89 1481.44 Q1315.34 1481.44 1315.5 1481.63 Q1315.69 1481.83 1315.82 1482.57 Q1316.82 1487.11 1318.95 1489.52 Q1321.1 1491.91 1325 1491.91 Q1328.7 1491.91 1330.57 1490.26 Q1332.44 1488.62 1332.44 1485.92 Q1332.44 1481.09 1325.58 1479.86 Q1321.62 1479.06 1319.98 1478.54 Q1318.33 1477.99 1316.89 1476.8 Q1314.05 1474.48 1314.05 1471.2 Q1314.05 1467.91 1316.53 1465.5 Q1319.04 1463.08 1324.58 1463.08 Q1328.29 1463.08 1330.8 1464.95 Q1331.54 1464.37 1331.93 1463.89 Q1332.8 1463.08 1333.25 1463.08 Q1333.76 1463.08 1333.86 1463.44 Q1333.95 1463.76 1333.95 1464.69 L1333.95 1471.33 Q1333.95 1472.07 1333.92 1472.33 Q1333.89 1472.58 1333.7 1472.78 Q1333.5 1472.94 1333.08 1472.94 Q1332.34 1472.94 1332.31 1472.33 Q1331.8 1464.34 1324.58 1464.34 Q1320.69 1464.34 1318.95 1465.85 Q1317.21 1467.33 1317.21 1469.36 Q1317.21 1470.49 1317.72 1471.36 Q1318.27 1472.2 1318.95 1472.71 Q1319.66 1473.2 1320.94 1473.68 Q1322.23 1474.13 1323 1474.29 Q1323.81 1474.45 1325.32 1474.77 Q1330.61 1475.77 1332.83 1477.93 Q1335.6 1480.7 1335.6 1484.21 Q1335.6 1488.11 1332.96 1490.75 Q1330.32 1493.39 1325 1493.39 Q1320.72 1493.39 1317.72 1490.52 Q1317.34 1490.91 1317.05 1491.26 Q1316.76 1491.58 1316.63 1491.71 Q1316.53 1491.84 1316.5 1491.94 Q1316.47 1492 1316.4 1492.07 Q1315.08 1493.39 1314.76 1493.39 Q1314.24 1493.39 1314.15 1493.03 Q1314.05 1492.71 1314.05 1491.78 Z" fill="#000000" fill-rule="evenodd" fill-opacity="1" /><path clip-path="url(#clip040)" d="M 0 0 M1339.76 1508.49 Q1339.76 1508.17 1340.6 1507.37 Q1351.23 1496.54 1351.23 1476.16 Q1351.23 1455.71 1341.02 1445.37 Q1339.76 1444.18 1339.76 1443.82 Q1339.76 1443.18 1340.4 1443.18 Q1340.86 1443.18 1342.43 1444.5 Q1344.04 1445.82 1346.46 1448.85 Q1348.91 1451.87 1350.71 1455.58 Q1355.06 1464.56 1355.06 1476.16 Q1355.06 1487.3 1350.9 1496.29 Q1349.13 1500.05 1346.65 1503.21 Q1344.17 1506.37 1342.53 1507.75 Q1340.89 1509.14 1340.4 1509.14 Q1339.76 1509.14 1339.76 1508.49 Z" fill="#000000" fill-rule="evenodd" fill-opacity="1" /><polyline clip-path="url(#clip043)" style="stroke:#000000; stroke-width:2; stroke-opacity:0.1; fill:none" points="
  310.583,1289.25 2256.76,1289.25 
  "/>
<polyline clip-path="url(#clip043)" style="stroke:#000000; stroke-width:2; stroke-opacity:0.1; fill:none" points="
  310.583,1000.51 2256.76,1000.51 
  "/>
<polyline clip-path="url(#clip043)" style="stroke:#000000; stroke-width:2; stroke-opacity:0.1; fill:none" points="
  310.583,711.77 2256.76,711.77 
  "/>
<polyline clip-path="url(#clip043)" style="stroke:#000000; stroke-width:2; stroke-opacity:0.1; fill:none" points="
  310.583,423.032 2256.76,423.032 
  "/>
<polyline clip-path="url(#clip043)" style="stroke:#000000; stroke-width:2; stroke-opacity:0.1; fill:none" points="
  310.583,134.294 2256.76,134.294 
  "/>
<polyline clip-path="url(#clip040)" style="stroke:#000000; stroke-width:4; stroke-opacity:1; fill:none" points="
  310.583,1363.79 310.583,123.472 
  "/>
<polyline clip-path="url(#clip040)" style="stroke:#000000; stroke-width:4; stroke-opacity:1; fill:none" points="
  310.583,1289.25 333.937,1289.25 
  "/>
<polyline clip-path="url(#clip040)" style="stroke:#000000; stroke-width:4; stroke-opacity:1; fill:none" points="
  310.583,1000.51 333.937,1000.51 
  "/>
<polyline clip-path="url(#clip040)" style="stroke:#000000; stroke-width:4; stroke-opacity:1; fill:none" points="
  310.583,711.77 333.937,711.77 
  "/>
<polyline clip-path="url(#clip040)" style="stroke:#000000; stroke-width:4; stroke-opacity:1; fill:none" points="
  310.583,423.032 333.937,423.032 
  "/>
<polyline clip-path="url(#clip040)" style="stroke:#000000; stroke-width:4; stroke-opacity:1; fill:none" points="
  310.583,134.294 333.937,134.294 
  "/>
<path clip-path="url(#clip040)" d="M 0 0 M179.496 1302.59 L187.134 1302.59 L187.134 1276.23 L178.824 1277.89 L178.824 1273.63 L187.088 1271.97 L191.764 1271.97 L191.764 1302.59 L199.403 1302.59 L199.403 1306.53 L179.496 1306.53 L179.496 1302.59 Z" fill="#000000" fill-rule="evenodd" fill-opacity="1" /><path clip-path="url(#clip040)" d="M 0 0 M218.847 1275.04 Q215.236 1275.04 213.407 1278.61 Q211.602 1282.15 211.602 1289.28 Q211.602 1296.39 213.407 1299.95 Q215.236 1303.49 218.847 1303.49 Q222.481 1303.49 224.287 1299.95 Q226.116 1296.39 226.116 1289.28 Q226.116 1282.15 224.287 1278.61 Q222.481 1275.04 218.847 1275.04 M218.847 1271.34 Q224.657 1271.34 227.713 1275.95 Q230.792 1280.53 230.792 1289.28 Q230.792 1298.01 227.713 1302.61 Q224.657 1307.2 218.847 1307.2 Q213.037 1307.2 209.958 1302.61 Q206.903 1298.01 206.903 1289.28 Q206.903 1280.53 209.958 1275.95 Q213.037 1271.34 218.847 1271.34 Z" fill="#000000" fill-rule="evenodd" fill-opacity="1" /><path clip-path="url(#clip040)" d="M 0 0 M239.009 1300.65 L243.893 1300.65 L243.893 1306.53 L239.009 1306.53 L239.009 1300.65 Z" fill="#000000" fill-rule="evenodd" fill-opacity="1" /><path clip-path="url(#clip040)" d="M 0 0 M264.078 1275.04 Q260.467 1275.04 258.639 1278.61 Q256.833 1282.15 256.833 1289.28 Q256.833 1296.39 258.639 1299.95 Q260.467 1303.49 264.078 1303.49 Q267.713 1303.49 269.518 1299.95 Q271.347 1296.39 271.347 1289.28 Q271.347 1282.15 269.518 1278.61 Q267.713 1275.04 264.078 1275.04 M264.078 1271.34 Q269.889 1271.34 272.944 1275.95 Q276.023 1280.53 276.023 1289.28 Q276.023 1298.01 272.944 1302.61 Q269.889 1307.2 264.078 1307.2 Q258.268 1307.2 255.19 1302.61 Q252.134 1298.01 252.134 1289.28 Q252.134 1280.53 255.19 1275.95 Q258.268 1271.34 264.078 1271.34 Z" fill="#000000" fill-rule="evenodd" fill-opacity="1" /><path clip-path="url(#clip040)" d="M 0 0 M180.491 1013.85 L188.13 1013.85 L188.13 987.487 L179.82 989.154 L179.82 984.895 L188.083 983.228 L192.759 983.228 L192.759 1013.85 L200.398 1013.85 L200.398 1017.79 L180.491 1017.79 L180.491 1013.85 Z" fill="#000000" fill-rule="evenodd" fill-opacity="1" /><path clip-path="url(#clip040)" d="M 0 0 M213.87 1013.85 L230.19 1013.85 L230.19 1017.79 L208.245 1017.79 L208.245 1013.85 Q210.907 1011.1 215.491 1006.47 Q220.097 1001.82 221.278 1000.47 Q223.523 997.95 224.403 996.214 Q225.305 994.455 225.305 992.765 Q225.305 990.01 223.361 988.274 Q221.44 986.538 218.338 986.538 Q216.139 986.538 213.685 987.302 Q211.255 988.066 208.477 989.617 L208.477 984.895 Q211.301 983.76 213.755 983.182 Q216.208 982.603 218.245 982.603 Q223.616 982.603 226.81 985.288 Q230.005 987.973 230.005 992.464 Q230.005 994.594 229.194 996.515 Q228.407 998.413 226.301 1001.01 Q225.722 1001.68 222.62 1004.89 Q219.518 1008.09 213.87 1013.85 Z" fill="#000000" fill-rule="evenodd" fill-opacity="1" /><path clip-path="url(#clip040)" d="M 0 0 M240.004 1011.91 L244.889 1011.91 L244.889 1017.79 L240.004 1017.79 L240.004 1011.91 Z" fill="#000000" fill-rule="evenodd" fill-opacity="1" /><path clip-path="url(#clip040)" d="M 0 0 M255.12 983.228 L273.477 983.228 L273.477 987.163 L259.403 987.163 L259.403 995.635 Q260.421 995.288 261.44 995.126 Q262.458 994.941 263.477 994.941 Q269.264 994.941 272.643 998.112 Q276.023 1001.28 276.023 1006.7 Q276.023 1012.28 272.551 1015.38 Q269.078 1018.46 262.759 1018.46 Q260.583 1018.46 258.315 1018.09 Q256.069 1017.72 253.662 1016.98 L253.662 1012.28 Q255.745 1013.41 257.967 1013.97 Q260.19 1014.52 262.666 1014.52 Q266.671 1014.52 269.009 1012.42 Q271.347 1010.31 271.347 1006.7 Q271.347 1003.09 269.009 1000.98 Q266.671 998.876 262.666 998.876 Q260.791 998.876 258.916 999.293 Q257.065 999.709 255.12 1000.59 L255.12 983.228 Z" fill="#000000" fill-rule="evenodd" fill-opacity="1" /><path clip-path="url(#clip040)" d="M 0 0 M179.496 725.115 L187.134 725.115 L187.134 698.749 L178.824 700.416 L178.824 696.157 L187.088 694.49 L191.764 694.49 L191.764 725.115 L199.403 725.115 L199.403 729.05 L179.496 729.05 L179.496 725.115 Z" fill="#000000" fill-rule="evenodd" fill-opacity="1" /><path clip-path="url(#clip040)" d="M 0 0 M208.894 694.49 L227.25 694.49 L227.25 698.425 L213.176 698.425 L213.176 706.897 Q214.194 706.55 215.213 706.388 Q216.231 706.203 217.25 706.203 Q223.037 706.203 226.417 709.374 Q229.796 712.545 229.796 717.962 Q229.796 723.541 226.324 726.643 Q222.852 729.721 216.532 729.721 Q214.356 729.721 212.088 729.351 Q209.843 728.981 207.435 728.24 L207.435 723.541 Q209.519 724.675 211.741 725.231 Q213.963 725.786 216.44 725.786 Q220.444 725.786 222.782 723.68 Q225.12 721.573 225.12 717.962 Q225.12 714.351 222.782 712.245 Q220.444 710.138 216.44 710.138 Q214.565 710.138 212.69 710.555 Q210.838 710.971 208.894 711.851 L208.894 694.49 Z" fill="#000000" fill-rule="evenodd" fill-opacity="1" /><path clip-path="url(#clip040)" d="M 0 0 M239.009 723.17 L243.893 723.17 L243.893 729.05 L239.009 729.05 L239.009 723.17 Z" fill="#000000" fill-rule="evenodd" fill-opacity="1" /><path clip-path="url(#clip040)" d="M 0 0 M264.078 697.569 Q260.467 697.569 258.639 701.133 Q256.833 704.675 256.833 711.805 Q256.833 718.911 258.639 722.476 Q260.467 726.018 264.078 726.018 Q267.713 726.018 269.518 722.476 Q271.347 718.911 271.347 711.805 Q271.347 704.675 269.518 701.133 Q267.713 697.569 264.078 697.569 M264.078 693.865 Q269.889 693.865 272.944 698.471 Q276.023 703.055 276.023 711.805 Q276.023 720.532 272.944 725.138 Q269.889 729.721 264.078 729.721 Q258.268 729.721 255.19 725.138 Q252.134 720.532 252.134 711.805 Q252.134 703.055 255.19 698.471 Q258.268 693.865 264.078 693.865 Z" fill="#000000" fill-rule="evenodd" fill-opacity="1" /><path clip-path="url(#clip040)" d="M 0 0 M180.491 436.377 L188.13 436.377 L188.13 410.011 L179.82 411.678 L179.82 407.419 L188.083 405.752 L192.759 405.752 L192.759 436.377 L200.398 436.377 L200.398 440.312 L180.491 440.312 L180.491 436.377 Z" fill="#000000" fill-rule="evenodd" fill-opacity="1" /><path clip-path="url(#clip040)" d="M 0 0 M208.662 405.752 L230.884 405.752 L230.884 407.743 L218.338 440.312 L213.454 440.312 L225.259 409.687 L208.662 409.687 L208.662 405.752 Z" fill="#000000" fill-rule="evenodd" fill-opacity="1" /><path clip-path="url(#clip040)" d="M 0 0 M240.004 434.433 L244.889 434.433 L244.889 440.312 L240.004 440.312 L240.004 434.433 Z" fill="#000000" fill-rule="evenodd" fill-opacity="1" /><path clip-path="url(#clip040)" d="M 0 0 M255.12 405.752 L273.477 405.752 L273.477 409.687 L259.403 409.687 L259.403 418.159 Q260.421 417.812 261.44 417.65 Q262.458 417.465 263.477 417.465 Q269.264 417.465 272.643 420.636 Q276.023 423.808 276.023 429.224 Q276.023 434.803 272.551 437.905 Q269.078 440.983 262.759 440.983 Q260.583 440.983 258.315 440.613 Q256.069 440.243 253.662 439.502 L253.662 434.803 Q255.745 435.937 257.967 436.493 Q260.19 437.048 262.666 437.048 Q266.671 437.048 269.009 434.942 Q271.347 432.835 271.347 429.224 Q271.347 425.613 269.009 423.507 Q266.671 421.4 262.666 421.4 Q260.791 421.4 258.916 421.817 Q257.065 422.233 255.12 423.113 L255.12 405.752 Z" fill="#000000" fill-rule="evenodd" fill-opacity="1" /><path clip-path="url(#clip040)" d="M 0 0 M182.713 147.639 L199.032 147.639 L199.032 151.574 L177.088 151.574 L177.088 147.639 Q179.75 144.884 184.333 140.255 Q188.94 135.602 190.12 134.259 Q192.366 131.736 193.245 130 Q194.148 128.241 194.148 126.551 Q194.148 123.797 192.204 122.06 Q190.283 120.324 187.181 120.324 Q184.982 120.324 182.528 121.088 Q180.097 121.852 177.32 123.403 L177.32 118.681 Q180.144 117.547 182.597 116.968 Q185.051 116.389 187.088 116.389 Q192.458 116.389 195.653 119.074 Q198.847 121.76 198.847 126.25 Q198.847 128.38 198.037 130.301 Q197.25 132.199 195.144 134.792 Q194.565 135.463 191.463 138.681 Q188.361 141.875 182.713 147.639 Z" fill="#000000" fill-rule="evenodd" fill-opacity="1" /><path clip-path="url(#clip040)" d="M 0 0 M218.847 120.093 Q215.236 120.093 213.407 123.658 Q211.602 127.199 211.602 134.329 Q211.602 141.435 213.407 145 Q215.236 148.542 218.847 148.542 Q222.481 148.542 224.287 145 Q226.116 141.435 226.116 134.329 Q226.116 127.199 224.287 123.658 Q222.481 120.093 218.847 120.093 M218.847 116.389 Q224.657 116.389 227.713 120.996 Q230.792 125.579 230.792 134.329 Q230.792 143.056 227.713 147.662 Q224.657 152.245 218.847 152.245 Q213.037 152.245 209.958 147.662 Q206.903 143.056 206.903 134.329 Q206.903 125.579 209.958 120.996 Q213.037 116.389 218.847 116.389 Z" fill="#000000" fill-rule="evenodd" fill-opacity="1" /><path clip-path="url(#clip040)" d="M 0 0 M239.009 145.695 L243.893 145.695 L243.893 151.574 L239.009 151.574 L239.009 145.695 Z" fill="#000000" fill-rule="evenodd" fill-opacity="1" /><path clip-path="url(#clip040)" d="M 0 0 M264.078 120.093 Q260.467 120.093 258.639 123.658 Q256.833 127.199 256.833 134.329 Q256.833 141.435 258.639 145 Q260.467 148.542 264.078 148.542 Q267.713 148.542 269.518 145 Q271.347 141.435 271.347 134.329 Q271.347 127.199 269.518 123.658 Q267.713 120.093 264.078 120.093 M264.078 116.389 Q269.889 116.389 272.944 120.996 Q276.023 125.579 276.023 134.329 Q276.023 143.056 272.944 147.662 Q269.889 152.245 264.078 152.245 Q258.268 152.245 255.19 147.662 Q252.134 143.056 252.134 134.329 Q252.134 125.579 255.19 120.996 Q258.268 116.389 264.078 116.389 Z" fill="#000000" fill-rule="evenodd" fill-opacity="1" /><path clip-path="url(#clip040)" d="M 0 0 M96.5483 796.326 L112.973 801.994 L112.973 856.679 Q112.973 857.42 112.941 857.71 Q112.909 858 112.748 858.225 Q112.587 858.451 112.233 858.451 Q111.943 858.451 111.202 857.871 L82.2489 834.457 L49.1412 858.515 Q47.6276 858.515 47.3377 858.257 Q47.0157 858 47.0157 856.679 L47.0157 801.994 L62.4423 796.326 L62.4423 797.968 Q60.4455 798.709 58.7708 799.9 Q57.0639 801.06 55.8401 802.412 Q54.6162 803.733 53.6501 805.472 Q52.6517 807.179 52.0398 808.789 Q51.3957 810.367 50.9448 812.332 Q50.4617 814.296 50.2362 815.874 Q49.9786 817.42 49.8498 819.353 Q49.7209 821.285 49.6887 822.509 Q49.6565 823.733 49.6565 825.279 L49.6565 851.398 L79.0605 829.981 Q79.8012 829.498 79.9945 829.498 Q80.2843 829.498 81.0572 830.109 L109.334 852.976 L109.334 824.957 Q109.334 815.939 107.434 809.659 Q105.985 805.408 103.118 802.316 Q100.252 799.192 96.5483 797.968 L96.5483 796.326 Z" fill="#000000" fill-rule="evenodd" fill-opacity="1" /><path clip-path="url(#clip040)" d="M 0 0 M129.637 869.523 Q130.629 869.523 131.373 870.334 Q132.095 871.123 132.095 871.98 Q132.095 872.769 131.621 873.265 Q131.125 873.738 130.426 873.738 Q129.502 873.738 128.736 872.949 Q127.969 872.16 127.969 871.236 Q127.969 870.469 128.443 869.996 Q128.916 869.523 129.637 869.523 M151.888 869.117 Q152.069 869.117 152.79 869.32 Q153.489 869.523 154.571 870.018 Q155.631 870.492 156.623 871.146 Q157.615 871.799 158.314 872.882 Q159.012 873.941 159.012 875.159 Q159.012 876.804 157.93 877.886 Q156.848 878.946 155.225 878.946 Q154.346 878.946 151.528 877.886 Q143.322 874.82 142.984 874.708 Q141.699 874.189 140.571 874.189 Q140.053 874.189 139.737 874.302 Q139.399 874.415 139.286 874.64 Q139.151 874.865 139.128 875.001 Q139.106 875.113 139.106 875.339 Q139.106 876.669 140.459 877.909 Q141.811 879.149 144.832 880.006 Q145.396 880.186 145.531 880.299 Q145.666 880.411 145.666 880.749 Q145.644 881.313 145.193 881.313 Q145.058 881.313 144.539 881.155 Q143.998 880.997 143.186 880.704 Q142.352 880.411 141.496 879.893 Q140.616 879.374 139.85 878.743 Q139.083 878.089 138.587 877.165 Q138.091 876.241 138.091 875.204 Q138.091 873.513 139.196 872.476 Q140.278 871.416 141.879 871.416 Q142.758 871.416 144.314 872.025 Q146.343 872.769 146.996 873.039 L151.843 874.843 Q153.602 875.497 154.143 875.7 Q154.661 875.88 155.293 876.038 Q155.901 876.173 156.465 876.173 Q157.254 876.173 157.615 875.925 Q157.975 875.655 157.975 875.068 Q157.975 873.445 156.375 872.25 Q154.752 871.056 152.272 870.357 Q152.204 870.334 152.091 870.312 Q151.528 870.131 151.46 869.951 Q151.438 869.861 151.438 869.68 Q151.438 869.117 151.888 869.117 Z" fill="#000000" fill-rule="evenodd" fill-opacity="1" /><path clip-path="url(#clip040)" d="M 0 0 M151.483 852.74 Q150.919 852.695 150.919 851.816 L150.919 823.523 Q150.919 822.193 151.438 822.17 Q152.001 822.17 151.979 823.433 L151.979 851.5 Q152.001 852.74 151.483 852.74 M142.465 852.74 Q141.901 852.74 141.924 851.771 L141.924 823.568 Q141.924 822.193 142.465 822.17 Q142.984 822.17 142.984 823.342 L142.984 851.816 Q142.984 852.74 142.465 852.74 Z" fill="#000000" fill-rule="evenodd" fill-opacity="1" /><path clip-path="url(#clip040)" d="M 0 0 M132.14 804.362 L130.697 804.362 Q130.697 798.816 127.744 795.953 Q127.744 795.164 127.924 795.029 Q128.104 794.893 128.939 794.893 L154.842 794.893 Q156.217 794.893 156.645 794.217 Q157.074 793.541 157.074 790.588 L157.074 789.122 L158.494 789.122 Q158.359 790.745 158.359 796.607 Q158.359 802.468 158.494 804.069 L157.074 804.069 L157.074 802.604 Q157.074 799.695 156.668 798.996 Q156.239 798.298 154.842 798.298 L130.922 798.298 Q132.14 800.71 132.14 804.362 Z" fill="#000000" fill-rule="evenodd" fill-opacity="1" /><path clip-path="url(#clip040)" d="M 0 0 M-1.6977 852.421 L-3.14052 852.421 Q-3.14052 846.876 -6.0938 844.012 Q-6.0938 843.223 -5.91345 843.088 Q-5.73309 842.953 -4.89896 842.953 L21.0042 842.953 Q22.3794 842.953 22.8077 842.277 Q23.2361 841.6 23.2361 838.647 L23.2361 837.182 L24.6564 837.182 Q24.5211 838.805 24.5211 844.666 Q24.5211 850.528 24.6564 852.128 L23.2361 852.128 L23.2361 850.663 Q23.2361 847.755 22.8303 847.056 Q22.4019 846.357 21.0042 846.357 L-2.91508 846.357 Q-1.6977 848.769 -1.6977 852.421 Z" fill="#000000" fill-rule="evenodd" fill-opacity="1" /><path clip-path="url(#clip040)" d="M 0 0 M9.88997 833.254 Q3.1042 833.254 -0.593038 831.54 Q-6.0938 829.151 -6.0938 823.515 Q-6.0938 822.32 -5.75564 821.08 Q-5.44002 819.817 -4.20009 818.239 Q-2.96017 816.639 -0.931199 815.669 Q2.99147 813.821 9.88997 813.821 Q16.6307 813.821 20.3053 815.534 Q25.6708 818.036 25.6708 823.56 Q25.6708 825.634 24.6113 827.753 Q23.5517 829.849 21.0042 831.18 Q17.1943 833.254 9.88997 833.254 M9.32637 829.421 Q16.2925 829.421 19.0654 828.925 Q22.0638 828.362 23.3713 826.829 Q24.6564 825.273 24.6564 823.56 Q24.6564 821.711 23.2812 820.178 Q21.8834 818.623 18.8851 818.149 Q15.9318 817.631 9.32637 817.653 Q2.9013 817.653 0.33127 818.104 Q-2.6671 818.713 -3.86193 820.336 Q-5.07931 821.937 -5.07931 823.56 Q-5.07931 824.168 -4.89896 824.822 Q-4.71861 825.453 -4.20009 826.378 Q-3.68158 827.302 -2.39657 828.023 Q-1.11155 828.722 0.827241 829.06 Q3.32964 829.421 9.32637 829.421 Z" fill="#000000" fill-rule="evenodd" fill-opacity="1" /><path clip-path="url(#clip040)" d="M 0 0 M70.4293 737.145 Q70.4615 737.145 71.6209 737.338 L100.896 744.681 Q102.442 745.067 103.988 746.162 Q105.566 747.225 106.919 748.932 Q108.303 750.607 109.141 753.183 Q110.01 755.727 110.01 758.658 Q110.01 763.328 109.012 765.389 Q108.046 767.418 105.985 767.418 Q104.181 767.418 103.15 766.291 Q102.152 765.164 102.152 763.876 Q102.152 762.652 102.861 762.008 Q103.569 761.364 104.471 761.364 Q105.469 761.364 106.468 762.04 Q107.498 762.716 107.885 764.069 Q108.561 761.911 108.561 758.787 Q108.561 752.185 101.572 749.351 Q101.476 749.286 101.444 749.286 L92.7158 747.096 L92.6514 747.193 Q93.2955 747.74 94.0362 748.61 Q94.7447 749.447 95.6143 751.251 Q96.4839 753.054 96.4839 754.826 Q96.4839 758.529 93.6497 761.074 Q90.7834 763.586 86.0492 763.586 Q82.6031 763.586 79.1571 762.201 Q75.6789 760.784 73.1346 758.594 Q70.5581 756.372 68.9478 753.537 Q67.3376 750.671 67.3376 747.901 Q67.3376 745.969 68.497 744.327 Q69.6242 742.684 71.4921 741.782 Q69.9462 741.621 69.3021 740.752 Q68.658 739.85 68.658 739.077 Q68.658 738.208 69.1411 737.692 Q69.592 737.145 70.4293 737.145 M74.455 742.555 Q74.2618 742.555 73.7465 742.684 Q73.199 742.813 72.3295 743.199 Q71.4599 743.554 70.687 744.101 Q69.914 744.649 69.3665 745.647 Q68.7868 746.613 68.7868 747.837 Q68.7868 749.834 70.4615 751.831 Q72.104 753.827 74.6483 755.212 Q77.0959 756.5 81.8302 757.724 Q86.5645 758.916 88.9799 758.916 Q91.3631 758.916 93.1989 757.885 Q95.0346 756.855 95.0346 754.632 Q95.0346 752.056 92.6514 749.286 Q90.1715 746.42 88.0459 745.937 L75.4534 742.749 Q74.6805 742.555 74.455 742.555 Z" fill="#000000" fill-rule="evenodd" fill-opacity="1" /><path clip-path="url(#clip040)" d="M 0 0 M99.1601 718.618 Q100.152 718.618 100.896 719.429 Q101.617 720.218 101.617 721.075 Q101.617 721.864 101.144 722.36 Q100.648 722.833 99.9491 722.833 Q99.0248 722.833 98.2583 722.044 Q97.4918 721.255 97.4918 720.331 Q97.4918 719.565 97.9653 719.091 Q98.4387 718.618 99.1601 718.618 M121.411 718.212 Q121.591 718.212 122.313 718.415 Q123.012 718.618 124.094 719.114 Q125.153 719.587 126.145 720.241 Q127.137 720.895 127.836 721.977 Q128.535 723.036 128.535 724.254 Q128.535 725.899 127.453 726.982 Q126.371 728.041 124.748 728.041 Q123.868 728.041 121.05 726.982 Q112.844 723.916 112.506 723.803 Q111.221 723.284 110.094 723.284 Q109.575 723.284 109.26 723.397 Q108.922 723.51 108.809 723.735 Q108.674 723.961 108.651 724.096 Q108.629 724.209 108.629 724.434 Q108.629 725.764 109.981 727.004 Q111.334 728.244 114.355 729.101 Q114.918 729.281 115.054 729.394 Q115.189 729.506 115.189 729.845 Q115.166 730.408 114.716 730.408 Q114.58 730.408 114.062 730.25 Q113.521 730.093 112.709 729.8 Q111.875 729.506 111.018 728.988 Q110.139 728.469 109.373 727.838 Q108.606 727.184 108.11 726.26 Q107.614 725.336 107.614 724.299 Q107.614 722.608 108.719 721.571 Q109.801 720.511 111.402 720.511 Q112.281 720.511 113.836 721.12 Q115.865 721.864 116.519 722.135 L121.366 723.938 Q123.124 724.592 123.666 724.795 Q124.184 724.975 124.815 725.133 Q125.424 725.268 125.988 725.268 Q126.777 725.268 127.137 725.02 Q127.498 724.75 127.498 724.164 Q127.498 722.54 125.897 721.345 Q124.274 720.151 121.794 719.452 Q121.727 719.429 121.614 719.407 Q121.05 719.226 120.983 719.046 Q120.96 718.956 120.96 718.775 Q120.96 718.212 121.411 718.212 Z" fill="#000000" fill-rule="evenodd" fill-opacity="1" /><path clip-path="url(#clip040)" d="M 0 0 M54.9347 730.408 Q47.1344 730.408 40.8446 727.5 Q38.207 726.26 35.9976 724.524 Q33.7883 722.788 32.8189 721.639 Q31.8495 720.489 31.8495 720.173 Q31.8495 719.722 32.3004 719.7 Q32.5258 719.7 33.0894 720.308 Q40.6643 727.748 54.9347 727.725 Q69.2502 727.725 76.5319 720.489 Q77.321 719.7 77.569 719.7 Q78.0198 719.7 78.0198 720.173 Q78.0198 720.489 77.0955 721.593 Q76.1712 722.698 74.0521 724.411 Q71.9329 726.125 69.3404 727.365 Q63.0506 730.408 54.9347 730.408 Z" fill="#000000" fill-rule="evenodd" fill-opacity="1" /><path clip-path="url(#clip040)" d="M 0 0 M66.4773 712.68 Q65.6431 712.68 65.3951 712.612 Q65.1472 712.522 64.7639 712.161 L54.8896 703.302 Q49.4339 698.455 44.6771 698.455 Q41.5886 698.455 39.3792 700.078 Q37.1699 701.678 37.1699 704.632 Q37.1699 706.661 38.4098 708.374 Q39.6498 710.087 41.8591 710.876 Q41.814 710.741 41.814 710.268 Q41.814 709.118 42.5354 708.487 Q43.2568 707.833 44.2262 707.833 Q45.4662 707.833 46.0748 708.644 Q46.661 709.434 46.661 710.223 Q46.661 710.538 46.5934 710.967 Q46.5257 711.372 45.8945 712.026 Q45.2407 712.68 44.091 712.68 Q40.8672 712.68 38.2971 710.245 Q35.7271 707.788 35.7271 704.045 Q35.7271 699.807 38.252 697.034 Q40.7544 694.239 44.6771 694.239 Q46.0523 694.239 47.3148 694.667 Q48.5547 695.073 49.5241 695.637 Q50.4935 696.178 52.049 697.666 Q53.6046 699.153 54.7092 700.348 Q55.8139 701.543 58.1585 704.226 L62.9153 709.118 L62.9153 700.799 Q62.9153 696.741 62.5546 696.426 Q61.9008 695.975 58.4516 695.411 L58.4516 694.239 L66.4773 695.546 L66.4773 712.68 Z" fill="#000000" fill-rule="evenodd" fill-opacity="1" /><path clip-path="url(#clip040)" d="M 0 0 M77.569 689.816 Q77.3435 689.816 76.7799 689.23 Q69.2051 681.79 54.9347 681.79 Q40.6192 681.79 33.3825 688.937 Q32.5484 689.816 32.3004 689.816 Q31.8495 689.816 31.8495 689.365 Q31.8495 689.05 32.7738 687.945 Q33.6981 686.818 35.8173 685.127 Q37.9364 683.414 40.529 682.151 Q46.8188 679.108 54.9347 679.108 Q62.7349 679.108 69.0247 682.016 Q71.6624 683.256 73.8717 684.992 Q76.081 686.728 77.0504 687.877 Q78.0198 689.027 78.0198 689.365 Q78.0198 689.816 77.569 689.816 Z" fill="#000000" fill-rule="evenodd" fill-opacity="1" /><path clip-path="url(#clip040)" d="M 0 0 M79.9945 665.048 Q68.8512 665.048 59.8658 660.893 Q56.0977 659.122 52.9415 656.642 Q49.7854 654.162 48.4005 652.52 Q47.0157 650.877 47.0157 650.426 Q47.0157 649.782 47.6598 649.75 Q47.9818 649.75 48.787 650.62 Q59.6081 661.248 79.9945 661.215 Q100.445 661.215 110.848 650.877 Q111.975 649.75 112.329 649.75 Q112.973 649.75 112.973 650.426 Q112.973 650.877 111.653 652.455 Q110.332 654.033 107.305 656.481 Q104.278 658.929 100.574 660.7 Q91.5886 665.048 79.9945 665.048 Z" fill="#000000" fill-rule="evenodd" fill-opacity="1" /><path clip-path="url(#clip040)" d="M 0 0 M69.6242 607.773 Q71.8786 607.773 71.8786 611.026 L71.8786 622.105 L94.4549 626.517 Q95.0346 626.614 95.3567 626.743 Q95.6787 626.839 96.2262 627.129 Q96.7415 627.387 96.9992 627.934 Q97.289 628.45 97.289 629.222 Q97.289 630.189 96.7093 630.672 Q96.1618 631.123 95.4855 631.123 Q95.0668 631.123 93.07 630.479 L71.8786 624.005 L71.8786 629.48 Q71.8786 634.633 76.9671 637.854 Q77.6434 638.369 77.7078 638.659 Q77.74 638.788 77.74 638.916 Q77.74 639.271 77.579 639.496 Q77.418 639.689 77.257 639.689 L77.0959 639.722 Q76.8705 639.722 75.9687 639.206 Q75.0348 638.659 73.6499 637.693 Q72.265 636.694 71.1701 635.696 Q69.753 634.375 69.0123 632.894 Q68.2393 631.412 68.1427 630.672 Q68.0461 629.899 68.0461 628.9 L68.0461 610.414 Q68.0461 609.577 68.1105 609.126 Q68.1427 608.675 68.5292 608.224 Q68.8834 607.773 69.6242 607.773 Z" fill="#000000" fill-rule="evenodd" fill-opacity="1" /><path clip-path="url(#clip040)" d="M 0 0 M112.329 611.206 Q112.007 611.206 111.202 610.368 Q100.381 599.74 79.9945 599.74 Q59.5437 599.74 49.2057 609.95 Q48.014 611.206 47.6598 611.206 Q47.0157 611.206 47.0157 610.562 Q47.0157 610.111 48.3361 608.533 Q49.6565 606.922 52.6839 604.507 Q55.7112 602.059 59.4149 600.256 Q68.4003 595.908 79.9945 595.908 Q91.1377 595.908 100.123 600.062 Q103.891 601.834 107.047 604.314 Q110.204 606.794 111.588 608.436 Q112.973 610.079 112.973 610.562 Q112.973 611.206 112.329 611.206 Z" fill="#000000" fill-rule="evenodd" fill-opacity="1" /><path clip-path="url(#clip040)" d="M 0 0 M446.307 14.0809 L446.307 22.0612 Q441.648 19.8332 437.516 18.7395 Q433.385 17.6457 429.536 17.6457 Q422.852 17.6457 419.206 20.2383 Q415.601 22.8309 415.601 27.611 Q415.601 31.6214 417.991 33.6873 Q420.422 35.7128 427.146 36.9686 L432.088 37.9813 Q441.243 39.7232 445.578 44.1387 Q449.953 48.5136 449.953 55.8863 Q449.953 64.6767 444.038 69.2137 Q438.165 73.7508 426.782 73.7508 Q422.488 73.7508 417.627 72.7785 Q412.806 71.8063 407.621 69.9024 L407.621 61.4765 Q412.603 64.2716 417.383 65.6895 Q422.164 67.1073 426.782 67.1073 Q433.79 67.1073 437.598 64.3527 Q441.405 61.598 441.405 56.4939 Q441.405 52.0379 438.651 49.5264 Q435.937 47.0148 429.698 45.759 L424.716 44.7868 Q415.561 42.9639 411.469 39.075 Q407.378 35.1862 407.378 28.2591 Q407.378 20.2383 413.009 15.6203 Q418.68 11.0023 428.604 11.0023 Q432.858 11.0023 437.273 11.7719 Q441.689 12.5416 446.307 14.0809 Z" fill="#000000" fill-rule="evenodd" fill-opacity="1" /><path clip-path="url(#clip040)" d="M 0 0 M461.619 54.671 L461.619 27.2059 L469.073 27.2059 L469.073 54.3874 Q469.073 60.8284 471.585 64.0691 Q474.096 67.2693 479.119 67.2693 Q485.155 67.2693 488.639 63.421 Q492.163 59.5726 492.163 52.9291 L492.163 27.2059 L499.617 27.2059 L499.617 72.576 L492.163 72.576 L492.163 65.6084 Q489.449 69.7404 485.844 71.7658 Q482.279 73.7508 477.539 73.7508 Q469.721 73.7508 465.67 68.8897 Q461.619 64.0286 461.619 54.671 M480.375 26.1121 L480.375 26.1121 Z" fill="#000000" fill-rule="evenodd" fill-opacity="1" /><path clip-path="url(#clip040)" d="M 0 0 M550.294 35.9153 Q553.089 30.8922 556.978 28.5022 Q560.867 26.1121 566.133 26.1121 Q573.222 26.1121 577.07 31.0947 Q580.918 36.0368 580.918 45.1919 L580.918 72.576 L573.424 72.576 L573.424 45.4349 Q573.424 38.913 571.115 35.7533 Q568.806 32.5936 564.067 32.5936 Q558.274 32.5936 554.912 36.4419 Q551.549 40.2903 551.549 46.9338 L551.549 72.576 L544.055 72.576 L544.055 45.4349 Q544.055 38.8725 541.746 35.7533 Q539.437 32.5936 534.617 32.5936 Q528.905 32.5936 525.543 36.4824 Q522.18 40.3308 522.18 46.9338 L522.18 72.576 L514.686 72.576 L514.686 27.2059 L522.18 27.2059 L522.18 34.2544 Q524.732 30.082 528.297 28.0971 Q531.862 26.1121 536.764 26.1121 Q541.706 26.1121 545.149 28.6237 Q548.633 31.1352 550.294 35.9153 Z" fill="#000000" fill-rule="evenodd" fill-opacity="1" /><path clip-path="url(#clip040)" d="M 0 0 M639.738 32.4315 Q633.742 32.4315 630.259 37.1306 Q626.775 41.7891 626.775 49.9314 Q626.775 58.0738 630.218 62.7728 Q633.702 67.4314 639.738 67.4314 Q645.692 67.4314 649.176 62.7323 Q652.66 58.0333 652.66 49.9314 Q652.66 41.8701 649.176 37.1711 Q645.692 32.4315 639.738 32.4315 M639.738 26.1121 Q649.46 26.1121 655.01 32.4315 Q660.559 38.7509 660.559 49.9314 Q660.559 61.0714 655.01 67.4314 Q649.46 73.7508 639.738 73.7508 Q629.975 73.7508 624.425 67.4314 Q618.916 61.0714 618.916 49.9314 Q618.916 38.7509 624.425 32.4315 Q629.975 26.1121 639.738 26.1121 Z" fill="#000000" fill-rule="evenodd" fill-opacity="1" /><path clip-path="url(#clip040)" d="M 0 0 M695.883 9.54393 L695.883 15.7418 L688.754 15.7418 Q684.743 15.7418 683.163 17.3622 Q681.624 18.9825 681.624 23.1955 L681.624 27.2059 L693.898 27.2059 L693.898 32.9987 L681.624 32.9987 L681.624 72.576 L674.13 72.576 L674.13 32.9987 L667 32.9987 L667 27.2059 L674.13 27.2059 L674.13 24.0462 Q674.13 16.471 677.654 13.0277 Q681.178 9.54393 688.835 9.54393 L695.883 9.54393 Z" fill="#000000" fill-rule="evenodd" fill-opacity="1" /><path clip-path="url(#clip040)" d="M 0 0 M737 18.8205 L737 41.5461 L747.289 41.5461 Q753.001 41.5461 756.12 38.5889 Q759.239 35.6318 759.239 30.163 Q759.239 24.7348 756.12 21.7777 Q753.001 18.8205 747.289 18.8205 L737 18.8205 M728.817 12.096 L747.289 12.096 Q757.457 12.096 762.642 16.714 Q767.868 21.2916 767.868 30.163 Q767.868 39.1155 762.642 43.6931 Q757.457 48.2706 747.289 48.2706 L737 48.2706 L737 72.576 L728.817 72.576 L728.817 12.096 Z" fill="#000000" fill-rule="evenodd" fill-opacity="1" /><path clip-path="url(#clip040)" d="M 0 0 M816.236 45.1919 L816.236 72.576 L808.782 72.576 L808.782 45.4349 Q808.782 38.994 806.27 35.7938 Q803.759 32.5936 798.736 32.5936 Q792.7 32.5936 789.216 36.4419 Q785.732 40.2903 785.732 46.9338 L785.732 72.576 L778.238 72.576 L778.238 9.54393 L785.732 9.54393 L785.732 34.2544 Q788.406 30.163 792.011 28.1376 Q795.657 26.1121 800.396 26.1121 Q808.215 26.1121 812.225 30.9732 Q816.236 35.7938 816.236 45.1919 Z" fill="#000000" fill-rule="evenodd" fill-opacity="1" /><path clip-path="url(#clip040)" d="M 0 0 M848.683 32.4315 Q842.688 32.4315 839.204 37.1306 Q835.72 41.7891 835.72 49.9314 Q835.72 58.0738 839.164 62.7728 Q842.647 67.4314 848.683 67.4314 Q854.638 67.4314 858.122 62.7323 Q861.606 58.0333 861.606 49.9314 Q861.606 41.8701 858.122 37.1711 Q854.638 32.4315 848.683 32.4315 M848.683 26.1121 Q858.405 26.1121 863.955 32.4315 Q869.505 38.7509 869.505 49.9314 Q869.505 61.0714 863.955 67.4314 Q858.405 73.7508 848.683 73.7508 Q838.921 73.7508 833.371 67.4314 Q827.862 61.0714 827.862 49.9314 Q827.862 38.7509 833.371 32.4315 Q838.921 26.1121 848.683 26.1121 Z" fill="#000000" fill-rule="evenodd" fill-opacity="1" /><path clip-path="url(#clip040)" d="M 0 0 M889.233 14.324 L889.233 27.2059 L904.586 27.2059 L904.586 32.9987 L889.233 32.9987 L889.233 57.6282 Q889.233 63.1779 890.732 64.7578 Q892.271 66.3376 896.93 66.3376 L904.586 66.3376 L904.586 72.576 L896.93 72.576 Q888.301 72.576 885.02 69.3758 Q881.739 66.1351 881.739 57.6282 L881.739 32.9987 L876.27 32.9987 L876.27 27.2059 L881.739 27.2059 L881.739 14.324 L889.233 14.324 Z" fill="#000000" fill-rule="evenodd" fill-opacity="1" /><path clip-path="url(#clip040)" d="M 0 0 M931.97 32.4315 Q925.975 32.4315 922.491 37.1306 Q919.007 41.7891 919.007 49.9314 Q919.007 58.0738 922.45 62.7728 Q925.934 67.4314 931.97 67.4314 Q937.925 67.4314 941.408 62.7323 Q944.892 58.0333 944.892 49.9314 Q944.892 41.8701 941.408 37.1711 Q937.925 32.4315 931.97 32.4315 M931.97 26.1121 Q941.692 26.1121 947.242 32.4315 Q952.792 38.7509 952.792 49.9314 Q952.792 61.0714 947.242 67.4314 Q941.692 73.7508 931.97 73.7508 Q922.207 73.7508 916.657 67.4314 Q911.148 61.0714 911.148 49.9314 Q911.148 38.7509 916.657 32.4315 Q922.207 26.1121 931.97 26.1121 Z" fill="#000000" fill-rule="evenodd" fill-opacity="1" /><path clip-path="url(#clip040)" d="M 0 0 M1002.86 45.1919 L1002.86 72.576 L995.407 72.576 L995.407 45.4349 Q995.407 38.994 992.895 35.7938 Q990.384 32.5936 985.361 32.5936 Q979.325 32.5936 975.841 36.4419 Q972.357 40.2903 972.357 46.9338 L972.357 72.576 L964.863 72.576 L964.863 27.2059 L972.357 27.2059 L972.357 34.2544 Q975.031 30.163 978.636 28.1376 Q982.282 26.1121 987.022 26.1121 Q994.84 26.1121 998.85 30.9732 Q1002.86 35.7938 1002.86 45.1919 Z" fill="#000000" fill-rule="evenodd" fill-opacity="1" /><path clip-path="url(#clip040)" d="M 0 0 M1089.71 16.7545 L1089.71 25.383 Q1085.58 21.5346 1080.88 19.6307 Q1076.22 17.7268 1070.96 17.7268 Q1060.59 17.7268 1055.08 24.0867 Q1049.57 30.4061 1049.57 42.3968 Q1049.57 54.3469 1055.08 60.7069 Q1060.59 67.0263 1070.96 67.0263 Q1076.22 67.0263 1080.88 65.1223 Q1085.58 63.2184 1089.71 59.3701 L1089.71 67.9175 Q1085.42 70.8341 1080.6 72.2924 Q1075.82 73.7508 1070.47 73.7508 Q1056.74 73.7508 1048.84 65.3654 Q1040.94 56.9395 1040.94 42.3968 Q1040.94 27.8135 1048.84 19.4281 Q1056.74 11.0023 1070.47 11.0023 Q1075.9 11.0023 1080.68 12.4606 Q1085.5 13.8784 1089.71 16.7545 Z" fill="#000000" fill-rule="evenodd" fill-opacity="1" /><path clip-path="url(#clip040)" d="M 0 0 M1119.61 32.4315 Q1113.61 32.4315 1110.13 37.1306 Q1106.64 41.7891 1106.64 49.9314 Q1106.64 58.0738 1110.09 62.7728 Q1113.57 67.4314 1119.61 67.4314 Q1125.56 67.4314 1129.05 62.7323 Q1132.53 58.0333 1132.53 49.9314 Q1132.53 41.8701 1129.05 37.1711 Q1125.56 32.4315 1119.61 32.4315 M1119.61 26.1121 Q1129.33 26.1121 1134.88 32.4315 Q1140.43 38.7509 1140.43 49.9314 Q1140.43 61.0714 1134.88 67.4314 Q1129.33 73.7508 1119.61 73.7508 Q1109.85 73.7508 1104.3 67.4314 Q1098.79 61.0714 1098.79 49.9314 Q1098.79 38.7509 1104.3 32.4315 Q1109.85 26.1121 1119.61 26.1121 Z" fill="#000000" fill-rule="evenodd" fill-opacity="1" /><path clip-path="url(#clip040)" d="M 0 0 M1179.08 34.1734 Q1177.82 33.4443 1176.32 33.1202 Q1174.86 32.7556 1173.08 32.7556 Q1166.76 32.7556 1163.36 36.8875 Q1160 40.9789 1160 48.6757 L1160 72.576 L1152.5 72.576 L1152.5 27.2059 L1160 27.2059 L1160 34.2544 Q1162.34 30.1225 1166.11 28.1376 Q1169.88 26.1121 1175.27 26.1121 Q1176.04 26.1121 1176.97 26.2337 Q1177.9 26.3147 1179.03 26.5172 L1179.08 34.1734 Z" fill="#000000" fill-rule="evenodd" fill-opacity="1" /><path clip-path="url(#clip040)" d="M 0 0 M1211.73 34.1734 Q1210.47 33.4443 1208.97 33.1202 Q1207.51 32.7556 1205.73 32.7556 Q1199.41 32.7556 1196.01 36.8875 Q1192.65 40.9789 1192.65 48.6757 L1192.65 72.576 L1185.15 72.576 L1185.15 27.2059 L1192.65 27.2059 L1192.65 34.2544 Q1195 30.1225 1198.76 28.1376 Q1202.53 26.1121 1207.92 26.1121 Q1208.69 26.1121 1209.62 26.2337 Q1210.55 26.3147 1211.68 26.5172 L1211.73 34.1734 Z" fill="#000000" fill-rule="evenodd" fill-opacity="1" /><path clip-path="url(#clip040)" d="M 0 0 M1256.53 48.0275 L1256.53 51.6733 L1222.26 51.6733 Q1222.74 59.3701 1226.88 63.421 Q1231.05 67.4314 1238.46 67.4314 Q1242.76 67.4314 1246.77 66.3781 Q1250.82 65.3249 1254.79 63.2184 L1254.79 70.267 Q1250.78 71.9684 1246.56 72.8596 Q1242.35 73.7508 1238.02 73.7508 Q1227.16 73.7508 1220.8 67.4314 Q1214.48 61.1119 1214.48 50.3365 Q1214.48 39.1965 1220.48 32.6746 Q1226.51 26.1121 1236.72 26.1121 Q1245.87 26.1121 1251.18 32.0264 Q1256.53 37.9003 1256.53 48.0275 M1249.07 45.84 Q1248.99 39.7232 1245.63 36.0774 Q1242.31 32.4315 1236.8 32.4315 Q1230.56 32.4315 1226.79 35.9558 Q1223.07 39.4801 1222.5 45.8805 L1249.07 45.84 Z" fill="#000000" fill-rule="evenodd" fill-opacity="1" /><path clip-path="url(#clip040)" d="M 0 0 M1268.76 9.54393 L1276.22 9.54393 L1276.22 72.576 L1268.76 72.576 L1268.76 9.54393 Z" fill="#000000" fill-rule="evenodd" fill-opacity="1" /><path clip-path="url(#clip040)" d="M 0 0 M1312.43 49.7694 Q1303.4 49.7694 1299.91 51.8354 Q1296.43 53.9013 1296.43 58.8839 Q1296.43 62.8538 1299.02 65.2034 Q1301.66 67.5124 1306.15 67.5124 Q1312.35 67.5124 1316.08 63.1374 Q1319.84 58.7219 1319.84 51.4303 L1319.84 49.7694 L1312.43 49.7694 M1327.3 46.6907 L1327.3 72.576 L1319.84 72.576 L1319.84 65.6895 Q1317.29 69.8214 1313.48 71.8063 Q1309.68 73.7508 1304.17 73.7508 Q1297.2 73.7508 1293.07 69.8619 Q1288.98 65.9325 1288.98 59.3701 Q1288.98 51.7138 1294.08 47.825 Q1299.22 43.9361 1309.39 43.9361 L1319.84 43.9361 L1319.84 43.2069 Q1319.84 38.0623 1316.44 35.2672 Q1313.08 32.4315 1306.96 32.4315 Q1303.07 32.4315 1299.39 33.3632 Q1295.7 34.295 1292.3 36.1584 L1292.3 29.2718 Q1296.39 27.692 1300.24 26.9223 Q1304.09 26.1121 1307.73 26.1121 Q1317.58 26.1121 1322.44 31.2163 Q1327.3 36.3204 1327.3 46.6907 Z" fill="#000000" fill-rule="evenodd" fill-opacity="1" /><path clip-path="url(#clip040)" d="M 0 0 M1350.02 14.324 L1350.02 27.2059 L1365.38 27.2059 L1365.38 32.9987 L1350.02 32.9987 L1350.02 57.6282 Q1350.02 63.1779 1351.52 64.7578 Q1353.06 66.3376 1357.72 66.3376 L1365.38 66.3376 L1365.38 72.576 L1357.72 72.576 Q1349.09 72.576 1345.81 69.3758 Q1342.53 66.1351 1342.53 57.6282 L1342.53 32.9987 L1337.06 32.9987 L1337.06 27.2059 L1342.53 27.2059 L1342.53 14.324 L1350.02 14.324 Z" fill="#000000" fill-rule="evenodd" fill-opacity="1" /><path clip-path="url(#clip040)" d="M 0 0 M1375.18 27.2059 L1382.63 27.2059 L1382.63 72.576 L1375.18 72.576 L1375.18 27.2059 M1375.18 9.54393 L1382.63 9.54393 L1382.63 18.9825 L1375.18 18.9825 L1375.18 9.54393 Z" fill="#000000" fill-rule="evenodd" fill-opacity="1" /><path clip-path="url(#clip040)" d="M 0 0 M1415.81 32.4315 Q1409.81 32.4315 1406.33 37.1306 Q1402.85 41.7891 1402.85 49.9314 Q1402.85 58.0738 1406.29 62.7728 Q1409.77 67.4314 1415.81 67.4314 Q1421.76 67.4314 1425.25 62.7323 Q1428.73 58.0333 1428.73 49.9314 Q1428.73 41.8701 1425.25 37.1711 Q1421.76 32.4315 1415.81 32.4315 M1415.81 26.1121 Q1425.53 26.1121 1431.08 32.4315 Q1436.63 38.7509 1436.63 49.9314 Q1436.63 61.0714 1431.08 67.4314 Q1425.53 73.7508 1415.81 73.7508 Q1406.05 73.7508 1400.5 67.4314 Q1394.99 61.0714 1394.99 49.9314 Q1394.99 38.7509 1400.5 32.4315 Q1406.05 26.1121 1415.81 26.1121 Z" fill="#000000" fill-rule="evenodd" fill-opacity="1" /><path clip-path="url(#clip040)" d="M 0 0 M1486.7 45.1919 L1486.7 72.576 L1479.25 72.576 L1479.25 45.4349 Q1479.25 38.994 1476.74 35.7938 Q1474.22 32.5936 1469.2 32.5936 Q1463.16 32.5936 1459.68 36.4419 Q1456.2 40.2903 1456.2 46.9338 L1456.2 72.576 L1448.7 72.576 L1448.7 27.2059 L1456.2 27.2059 L1456.2 34.2544 Q1458.87 30.163 1462.48 28.1376 Q1466.12 26.1121 1470.86 26.1121 Q1478.68 26.1121 1482.69 30.9732 Q1486.7 35.7938 1486.7 45.1919 Z" fill="#000000" fill-rule="evenodd" fill-opacity="1" /><path clip-path="url(#clip040)" d="M 0 0 M1530.49 28.5427 L1530.49 35.5912 Q1527.33 33.9709 1523.93 33.1607 Q1520.53 32.3505 1516.88 32.3505 Q1511.33 32.3505 1508.54 34.0519 Q1505.78 35.7533 1505.78 39.156 Q1505.78 41.7486 1507.77 43.2475 Q1509.75 44.7058 1515.75 46.0426 L1518.3 46.6097 Q1526.24 48.3111 1529.56 51.4303 Q1532.92 54.509 1532.92 60.0587 Q1532.92 66.3781 1527.9 70.0644 Q1522.92 73.7508 1514.17 73.7508 Q1510.52 73.7508 1506.55 73.0216 Q1502.62 72.3329 1498.25 70.9151 L1498.25 63.2184 Q1502.38 65.3654 1506.39 66.4591 Q1510.4 67.5124 1514.33 67.5124 Q1519.59 67.5124 1522.43 65.73 Q1525.27 63.9071 1525.27 60.6258 Q1525.27 57.5877 1523.2 55.9673 Q1521.17 54.3469 1514.25 52.8481 L1511.65 52.2405 Q1504.73 50.7821 1501.65 47.7845 Q1498.57 44.7463 1498.57 39.4801 Q1498.57 33.0797 1503.11 29.5959 Q1507.64 26.1121 1515.99 26.1121 Q1520.12 26.1121 1523.77 26.7198 Q1527.41 27.3274 1530.49 28.5427 Z" fill="#000000" fill-rule="evenodd" fill-opacity="1" /><path clip-path="url(#clip040)" d="M 0 0 M1565.81 27.2059 L1573.71 27.2059 L1587.89 65.2844 L1602.07 27.2059 L1609.97 27.2059 L1592.96 72.576 L1582.83 72.576 L1565.81 27.2059 Z" fill="#000000" fill-rule="evenodd" fill-opacity="1" /><path clip-path="url(#clip040)" d="M 0 0 M1649.18 28.5427 L1649.18 35.5912 Q1646.02 33.9709 1642.62 33.1607 Q1639.22 32.3505 1635.57 32.3505 Q1630.02 32.3505 1627.23 34.0519 Q1624.47 35.7533 1624.47 39.156 Q1624.47 41.7486 1626.46 43.2475 Q1628.44 44.7058 1634.44 46.0426 L1636.99 46.6097 Q1644.93 48.3111 1648.25 51.4303 Q1651.61 54.509 1651.61 60.0587 Q1651.61 66.3781 1646.59 70.0644 Q1641.61 73.7508 1632.86 73.7508 Q1629.21 73.7508 1625.24 73.0216 Q1621.31 72.3329 1616.94 70.9151 L1616.94 63.2184 Q1621.07 65.3654 1625.08 66.4591 Q1629.09 67.5124 1633.02 67.5124 Q1638.29 67.5124 1641.12 65.73 Q1643.96 63.9071 1643.96 60.6258 Q1643.96 57.5877 1641.89 55.9673 Q1639.87 54.3469 1632.94 52.8481 L1630.35 52.2405 Q1623.42 50.7821 1620.34 47.7845 Q1617.26 44.7463 1617.26 39.4801 Q1617.26 33.0797 1621.8 29.5959 Q1626.34 26.1121 1634.68 26.1121 Q1638.81 26.1121 1642.46 26.7198 Q1646.1 27.3274 1649.18 28.5427 Z" fill="#000000" fill-rule="evenodd" fill-opacity="1" /><path clip-path="url(#clip040)" d="M 0 0 M1681.79 12.096 L1732.96 12.096 L1732.96 18.9825 L1711.49 18.9825 L1711.49 72.576 L1703.26 72.576 L1703.26 18.9825 L1681.79 18.9825 L1681.79 12.096 Z" fill="#000000" fill-rule="evenodd" fill-opacity="1" /><path clip-path="url(#clip040)" d="M 0 0 M1737.98 27.2059 L1745.43 27.2059 L1745.43 72.576 L1737.98 72.576 L1737.98 27.2059 M1737.98 9.54393 L1745.43 9.54393 L1745.43 18.9825 L1737.98 18.9825 L1737.98 9.54393 Z" fill="#000000" fill-rule="evenodd" fill-opacity="1" /><path clip-path="url(#clip040)" d="M 0 0 M1796.35 35.9153 Q1799.15 30.8922 1803.04 28.5022 Q1806.92 26.1121 1812.19 26.1121 Q1819.28 26.1121 1823.13 31.0947 Q1826.98 36.0368 1826.98 45.1919 L1826.98 72.576 L1819.48 72.576 L1819.48 45.4349 Q1819.48 38.913 1817.17 35.7533 Q1814.86 32.5936 1810.12 32.5936 Q1804.33 32.5936 1800.97 36.4419 Q1797.61 40.2903 1797.61 46.9338 L1797.61 72.576 L1790.11 72.576 L1790.11 45.4349 Q1790.11 38.8725 1787.8 35.7533 Q1785.5 32.5936 1780.67 32.5936 Q1774.96 32.5936 1771.6 36.4824 Q1768.24 40.3308 1768.24 46.9338 L1768.24 72.576 L1760.74 72.576 L1760.74 27.2059 L1768.24 27.2059 L1768.24 34.2544 Q1770.79 30.082 1774.36 28.0971 Q1777.92 26.1121 1782.82 26.1121 Q1787.76 26.1121 1791.21 28.6237 Q1794.69 31.1352 1796.35 35.9153 Z" fill="#000000" fill-rule="evenodd" fill-opacity="1" /><path clip-path="url(#clip040)" d="M 0 0 M1880.65 48.0275 L1880.65 51.6733 L1846.38 51.6733 Q1846.87 59.3701 1851 63.421 Q1855.17 67.4314 1862.58 67.4314 Q1866.88 67.4314 1870.89 66.3781 Q1874.94 65.3249 1878.91 63.2184 L1878.91 70.267 Q1874.9 71.9684 1870.69 72.8596 Q1866.47 73.7508 1862.14 73.7508 Q1851.28 73.7508 1844.92 67.4314 Q1838.6 61.1119 1838.6 50.3365 Q1838.6 39.1965 1844.6 32.6746 Q1850.63 26.1121 1860.84 26.1121 Q1870 26.1121 1875.3 32.0264 Q1880.65 37.9003 1880.65 48.0275 M1873.2 45.84 Q1873.12 39.7232 1869.75 36.0774 Q1866.43 32.4315 1860.92 32.4315 Q1854.68 32.4315 1850.92 35.9558 Q1847.19 39.4801 1846.62 45.8805 L1873.2 45.84 Z" fill="#000000" fill-rule="evenodd" fill-opacity="1" /><path clip-path="url(#clip040)" d="M 0 0 M1944.13 17.6457 Q1935.22 17.6457 1929.95 24.2892 Q1924.72 30.9327 1924.72 42.3968 Q1924.72 53.8203 1929.95 60.4638 Q1935.22 67.1073 1944.13 67.1073 Q1953.04 67.1073 1958.23 60.4638 Q1963.45 53.8203 1963.45 42.3968 Q1963.45 30.9327 1958.23 24.2892 Q1953.04 17.6457 1944.13 17.6457 M1944.13 11.0023 Q1956.85 11.0023 1964.46 19.5497 Q1972.08 28.0566 1972.08 42.3968 Q1972.08 56.6965 1964.46 65.2439 Q1956.85 73.7508 1944.13 73.7508 Q1931.37 73.7508 1923.71 65.2439 Q1916.1 56.737 1916.1 42.3968 Q1916.1 28.0566 1923.71 19.5497 Q1931.37 11.0023 1944.13 11.0023 Z" fill="#000000" fill-rule="evenodd" fill-opacity="1" /><path clip-path="url(#clip040)" d="M 0 0 M2007.53 9.54393 L2007.53 15.7418 L2000.4 15.7418 Q1996.39 15.7418 1994.81 17.3622 Q1993.27 18.9825 1993.27 23.1955 L1993.27 27.2059 L2005.54 27.2059 L2005.54 32.9987 L1993.27 32.9987 L1993.27 72.576 L1985.77 72.576 L1985.77 32.9987 L1978.64 32.9987 L1978.64 27.2059 L1985.77 27.2059 L1985.77 24.0462 Q1985.77 16.471 1989.3 13.0277 Q1992.82 9.54393 2000.48 9.54393 L2007.53 9.54393 Z" fill="#000000" fill-rule="evenodd" fill-opacity="1" /><path clip-path="url(#clip040)" d="M 0 0 M2036.73 9.54393 L2036.73 15.7418 L2029.6 15.7418 Q2025.59 15.7418 2024.01 17.3622 Q2022.47 18.9825 2022.47 23.1955 L2022.47 27.2059 L2034.75 27.2059 L2034.75 32.9987 L2022.47 32.9987 L2022.47 72.576 L2014.98 72.576 L2014.98 32.9987 L2007.85 32.9987 L2007.85 27.2059 L2014.98 27.2059 L2014.98 24.0462 Q2014.98 16.471 2018.5 13.0277 Q2022.03 9.54393 2029.68 9.54393 L2036.73 9.54393 Z" fill="#000000" fill-rule="evenodd" fill-opacity="1" /><path clip-path="url(#clip040)" d="M 0 0 M2071.89 28.5427 L2071.89 35.5912 Q2068.73 33.9709 2065.33 33.1607 Q2061.93 32.3505 2058.28 32.3505 Q2052.73 32.3505 2049.94 34.0519 Q2047.18 35.7533 2047.18 39.156 Q2047.18 41.7486 2049.17 43.2475 Q2051.15 44.7058 2057.15 46.0426 L2059.7 46.6097 Q2067.64 48.3111 2070.96 51.4303 Q2074.32 54.509 2074.32 60.0587 Q2074.32 66.3781 2069.3 70.0644 Q2064.32 73.7508 2055.57 73.7508 Q2051.92 73.7508 2047.95 73.0216 Q2044.02 72.3329 2039.65 70.9151 L2039.65 63.2184 Q2043.78 65.3654 2047.79 66.4591 Q2051.8 67.5124 2055.73 67.5124 Q2061 67.5124 2063.83 65.73 Q2066.67 63.9071 2066.67 60.6258 Q2066.67 57.5877 2064.6 55.9673 Q2062.58 54.3469 2055.65 52.8481 L2053.06 52.2405 Q2046.13 50.7821 2043.05 47.7845 Q2039.97 44.7463 2039.97 39.4801 Q2039.97 33.0797 2044.51 29.5959 Q2049.05 26.1121 2057.39 26.1121 Q2061.52 26.1121 2065.17 26.7198 Q2068.82 27.3274 2071.89 28.5427 Z" fill="#000000" fill-rule="evenodd" fill-opacity="1" /><path clip-path="url(#clip040)" d="M 0 0 M2125 48.0275 L2125 51.6733 L2090.73 51.6733 Q2091.22 59.3701 2095.35 63.421 Q2099.52 67.4314 2106.93 67.4314 Q2111.23 67.4314 2115.24 66.3781 Q2119.29 65.3249 2123.26 63.2184 L2123.26 70.267 Q2119.25 71.9684 2115.04 72.8596 Q2110.82 73.7508 2106.49 73.7508 Q2095.63 73.7508 2089.27 67.4314 Q2082.95 61.1119 2082.95 50.3365 Q2082.95 39.1965 2088.95 32.6746 Q2094.98 26.1121 2105.19 26.1121 Q2114.35 26.1121 2119.65 32.0264 Q2125 37.9003 2125 48.0275 M2117.55 45.84 Q2117.47 39.7232 2114.1 36.0774 Q2110.78 32.4315 2105.27 32.4315 Q2099.04 32.4315 2095.27 35.9558 Q2091.54 39.4801 2090.97 45.8805 L2117.55 45.84 Z" fill="#000000" fill-rule="evenodd" fill-opacity="1" /><path clip-path="url(#clip040)" d="M 0 0 M2144.61 14.324 L2144.61 27.2059 L2159.96 27.2059 L2159.96 32.9987 L2144.61 32.9987 L2144.61 57.6282 Q2144.61 63.1779 2146.11 64.7578 Q2147.65 66.3376 2152.3 66.3376 L2159.96 66.3376 L2159.96 72.576 L2152.3 72.576 Q2143.68 72.576 2140.4 69.3758 Q2137.11 66.1351 2137.11 57.6282 L2137.11 32.9987 L2131.65 32.9987 L2131.65 27.2059 L2137.11 27.2059 L2137.11 14.324 L2144.61 14.324 Z" fill="#000000" fill-rule="evenodd" fill-opacity="1" /><polyline clip-path="url(#clip043)" style="stroke:#009af9; stroke-width:4; stroke-opacity:1; fill:none" points="
  365.663,158.575 367.501,996.026 369.339,1275.51 371.177,1292.37 373.015,1276.68 374.852,1305.92 376.69,1296.87 378.528,1303.23 380.366,1295.43 382.204,1284.43 
  384.042,1277.46 385.88,1301.65 387.717,1275.11 389.555,1285.5 391.393,1291.38 393.231,1300.85 395.069,1299.87 396.907,1286.65 398.744,1301.81 400.582,1298.91 
  402.42,1310.67 404.258,1283.12 406.096,1277.09 407.934,1277.03 409.772,1279.11 411.609,1286.48 413.447,1280.74 415.285,1288.54 417.123,1291.58 418.961,1265.2 
  420.799,1287.4 422.637,1271.39 424.474,1272.64 426.312,1281.87 428.15,1319.39 429.988,1309.25 431.826,1290.26 433.664,1276.76 435.501,1299.26 437.339,1301.36 
  439.177,1298.12 441.015,1284.68 442.853,1265.89 444.691,1259.41 446.529,1294.67 448.366,1291.12 450.204,1299.76 452.042,1297.45 453.88,1309.23 455.718,1302.28 
  457.556,1304.35 459.394,1317.45 461.231,1306.67 463.069,1286.12 464.907,1298.13 466.745,1300.08 468.583,1291.6 470.421,1276.97 472.258,1278.06 474.096,1294.68 
  475.934,1289.75 477.772,1286.33 479.61,1305.66 481.448,1282.22 483.286,1295.17 485.123,1270.09 486.961,1294.45 488.799,1307.47 490.637,1287.03 492.475,1253.12 
  494.313,1288.5 496.151,1291.85 497.988,1283.95 499.826,1303.69 501.664,1276.27 503.502,1267.7 505.34,1286.88 507.178,1297.04 509.015,1288.16 510.853,1280.54 
  512.691,1305.49 514.529,1288.58 516.367,1272.64 518.205,1289.6 520.043,1287.64 521.88,1309.09 523.718,1306.62 525.556,1278.64 527.394,1298.21 529.232,1304.88 
  531.07,1281.49 532.908,1276.72 534.745,1282.96 536.583,1291.98 538.421,1279.64 540.259,1279.18 542.097,1280.11 543.935,1306.83 545.773,1303.84 547.61,1308.89 
  549.448,1290.51 551.286,1287.47 553.124,1279.07 554.962,1277.48 556.8,1295.16 558.637,1282.2 560.475,1278.32 562.313,1281.52 564.151,1282.05 565.989,1317.68 
  567.827,1304.5 569.665,1297.34 571.502,1284.9 573.34,1299.97 575.178,1294.56 577.016,1304.78 578.854,1297.51 580.692,1296.32 582.53,1303.46 584.367,1299.43 
  586.205,1270.17 588.043,1299.13 589.881,1309.93 591.719,1301.36 593.557,1268.93 595.394,1284.96 597.232,1296.21 599.07,1305.31 600.908,1293.74 602.746,1257.4 
  604.584,1296.73 606.422,1298.28 608.259,1288.35 610.097,1283.05 611.935,1295.17 613.773,1279.12 615.611,1249.96 617.449,1252.95 619.287,1286.84 621.124,1285 
  622.962,1310.21 624.8,1298.82 626.638,1307.54 628.476,1297.88 630.314,1304.88 632.151,1309.15 633.989,1297.16 635.827,1295.15 637.665,1276.66 639.503,1286.4 
  641.341,1311.83 643.179,1326.51 645.016,1318.75 646.854,1315.61 648.692,1311.48 650.53,1312.66 652.368,1300.94 654.206,1294.56 656.044,1300.1 657.881,1300.63 
  659.719,1265.47 661.557,1270.08 663.395,1289.37 665.233,1277.39 667.071,1302.43 668.908,1315.7 670.746,1310.89 672.584,1303.66 674.422,1289.75 676.26,1265.67 
  678.098,1274.41 679.936,1300.73 681.773,1281.96 683.611,1294.47 685.449,1301.7 687.287,1300.4 689.125,1310.45 690.963,1294.28 692.801,1273.35 694.638,1284.77 
  696.476,1297.34 698.314,1281.01 700.152,1276.09 701.99,1319.36 703.828,1308.4 705.665,1281.21 707.503,1304.3 709.341,1318.33 711.179,1292.2 713.017,1268.73 
  714.855,1284.18 716.693,1283.78 718.53,1288.33 720.368,1295.57 722.206,1295.39 724.044,1302.2 725.882,1298.97 727.72,1296.38 729.558,1281.28 731.395,1271.03 
  733.233,1298.81 735.071,1276.7 736.909,1287.84 738.747,1291.02 740.585,1254.54 742.422,1260.34 744.26,1274.35 746.098,1293.79 747.936,1280.33 749.774,1282.6 
  751.612,1281.21 753.45,1276.5 755.287,1285.66 757.125,1300 758.963,1304.29 760.801,1291.56 762.639,1294.58 764.477,1299.89 766.315,1301.89 768.152,1281.67 
  769.99,1277.61 771.828,1275.02 773.666,1283.42 775.504,1282.32 777.342,1298.05 779.179,1294 781.017,1290.51 782.855,1289.74 784.693,1281.74 786.531,1264.36 
  788.369,1269.19 790.207,1273.74 792.044,1251.58 793.882,1275.43 795.72,1290.32 797.558,1282.45 799.396,1288.88 801.234,1291.15 803.072,1293.55 804.909,1286.49 
  806.747,1286.68 808.585,1282.77 810.423,1299.15 812.261,1282.43 814.099,1272.36 815.936,1281.15 817.774,1311.3 819.612,1305.77 821.45,1295.11 823.288,1282.03 
  825.126,1312.34 826.964,1300.67 828.801,1285.22 830.639,1288.91 832.477,1282.91 834.315,1293.71 836.153,1280.61 837.991,1294.22 839.829,1299.48 841.666,1280.13 
  843.504,1278.39 845.342,1282.95 847.18,1282.74 849.018,1298.4 850.856,1292.16 852.693,1292.54 854.531,1285.52 856.369,1285.49 858.207,1276.92 860.045,1271.38 
  861.883,1255.21 863.721,1268.06 865.558,1298.58 867.396,1286.08 869.234,1290.3 871.072,1298.49 872.91,1285.4 874.748,1298.01 876.586,1298.42 878.423,1293.44 
  880.261,1290.86 882.099,1314.17 883.937,1316.26 885.775,1314.55 887.613,1285.98 889.45,1287.09 891.288,1280.14 893.126,1301.33 894.964,1304.82 896.802,1297.22 
  898.64,1288.5 900.478,1287.54 902.315,1281.3 904.153,1280.39 905.991,1287.25 907.829,1289.92 909.667,1284.1 911.505,1280.64 913.343,1292.01 915.18,1293.22 
  917.018,1298.4 918.856,1290.16 920.694,1261.9 922.532,1281.8 924.37,1310.81 926.207,1302.88 928.045,1291.79 929.883,1265.78 931.721,1263.26 933.559,1278.7 
  935.397,1308.2 937.235,1285.91 939.072,1290.76 940.91,1295.6 942.748,1288.38 944.586,1287.34 946.424,1296.01 948.262,1285.02 950.1,1300.04 951.937,1307.89 
  953.775,1299.81 955.613,1287.47 957.451,1298.66 959.289,1303.31 961.127,1308.72 962.964,1303.46 964.802,1300.17 966.64,1279.73 968.478,1296.97 970.316,1298.98 
  972.154,1286.01 973.992,1259.74 975.829,1300.83 977.667,1300.27 979.505,1318.26 981.343,1288.52 983.181,1303.67 985.019,1279.05 986.857,1279.74 988.694,1272.79 
  990.532,1287.89 992.37,1293.97 994.208,1297.82 996.046,1295.96 997.884,1293.57 999.722,1300.88 1001.56,1295.38 1003.4,1292.08 1005.24,1307.66 1007.07,1299.14 
  1008.91,1290.8 1010.75,1300.23 1012.59,1294.82 1014.42,1293.81 1016.26,1299.02 1018.1,1327.62 1019.94,1314.39 1021.78,1293.07 1023.61,1303.44 1025.45,1286.98 
  1027.29,1277.08 1029.13,1272.39 1030.96,1298.22 1032.8,1290.01 1034.64,1308.77 1036.48,1319.26 1038.32,1310.52 1040.15,1291.02 1041.99,1290.91 1043.83,1258.64 
  1045.67,1299.93 1047.51,1296.07 1049.34,1299.35 1051.18,1292.99 1053.02,1308.06 1054.86,1315.25 1056.69,1282.32 1058.53,1258.82 1060.37,1281.83 1062.21,1283.85 
  1064.05,1271.18 1065.88,1286.99 1067.72,1290.01 1069.56,1294.67 1071.4,1313.34 1073.24,1285.16 1075.07,1277.12 1076.91,1283.82 1078.75,1294.73 1080.59,1288.13 
  1082.42,1280.57 1084.26,1312 1086.1,1292.27 1087.94,1278.93 1089.78,1290.64 1091.61,1287.59 1093.45,1285.02 1095.29,1293.37 1097.13,1282.13 1098.97,1287.42 
  1100.8,1275.85 1102.64,1276.72 1104.48,1296.22 1106.32,1291.54 1108.15,1284.88 1109.99,1315.09 1111.83,1300.58 1113.67,1303.97 1115.51,1291.75 1117.34,1279.1 
  1119.18,1287.29 1121.02,1289.39 1122.86,1289.1 1124.7,1300.18 1126.53,1293.61 1128.37,1305.08 1130.21,1301.58 1132.05,1309.76 1133.88,1296.31 1135.72,1311.7 
  1137.56,1307.77 1139.4,1288.43 1141.24,1261.51 1143.07,1267.76 1144.91,1291.04 1146.75,1284.71 1148.59,1297.78 1150.43,1286.96 1152.26,1311.05 1154.1,1291.79 
  1155.94,1284.52 1157.78,1288.95 1159.61,1286.98 1161.45,1287.29 1163.29,1269.93 1165.13,1298.38 1166.97,1292.68 1168.8,1286.66 1170.64,1293.68 1172.48,1322.74 
  1174.32,1296.36 1176.16,1273.66 1177.99,1291.59 1179.83,1305.27 1181.67,1278.08 1183.51,1288.1 1185.34,1298.39 1187.18,1303.88 1189.02,1298.86 1190.86,1290.31 
  1192.7,1298.25 1194.53,1291.16 1196.37,1305.13 1198.21,1294.97 1200.05,1290.79 1201.89,1286.03 1203.72,1281.32 1205.56,1282.72 1207.4,1295.32 1209.24,1291.79 
  1211.07,1293.84 1212.91,1285.86 1214.75,1280.73 1216.59,1282.94 1218.43,1264.75 1220.26,1278.57 1222.1,1289.84 1223.94,1320.12 1225.78,1290.12 1227.61,1237.18 
  1229.45,1264.84 1231.29,1300.44 1233.13,1292.95 1234.97,1297.03 1236.8,1287.39 1238.64,1299.87 1240.48,1314.61 1242.32,1300.9 1244.16,1298.68 1245.99,1313.97 
  1247.83,1313.29 1249.67,1301.18 1251.51,1285.77 1253.34,1274.19 1255.18,1274.86 1257.02,1299.67 1258.86,1266.49 1260.7,1264.34 1262.53,1285.62 1264.37,1288.27 
  1266.21,1274.36 1268.05,1275.45 1269.89,1296.39 1271.72,1299.02 1273.56,1300.8 1275.4,1307.79 1277.24,1279.42 1279.07,1262.37 1280.91,1277.05 1282.75,1304.06 
  1284.59,1279.72 1286.43,1254.44 1288.26,1282.31 1290.1,1292.87 1291.94,1298.25 1293.78,1273.23 1295.62,1281.91 1297.45,1286.13 1299.29,1312.27 1301.13,1303.32 
  1302.97,1287.53 1304.8,1291.66 1306.64,1274.29 1308.48,1263.3 1310.32,1273.88 1312.16,1290.5 1313.99,1294.72 1315.83,1302.65 1317.67,1276.67 1319.51,1266.95 
  1321.35,1291.23 1323.18,1302.48 1325.02,1294.11 1326.86,1279.05 1328.7,1292.72 1330.53,1281.83 1332.37,1272.73 1334.21,1280.64 1336.05,1288.64 1337.89,1298.24 
  1339.72,1286.98 1341.56,1282.31 1343.4,1281.8 1345.24,1283.55 1347.08,1297.34 1348.91,1296.49 1350.75,1280.88 1352.59,1288.27 1354.43,1294.93 1356.26,1288.44 
  1358.1,1299.63 1359.94,1310.66 1361.78,1301.86 1363.62,1306.49 1365.45,1320.25 1367.29,1285.36 1369.13,1283.69 1370.97,1277.36 1372.81,1281.87 1374.64,1299.33 
  1376.48,1293.9 1378.32,1295.11 1380.16,1315.92 1381.99,1328.69 1383.83,1306.98 1385.67,1310.79 1387.51,1305.91 1389.35,1282.42 1391.18,1241.64 1393.02,1276.61 
  1394.86,1289.05 1396.7,1300.01 1398.53,1282.39 1400.37,1280.14 1402.21,1298.18 1404.05,1295.9 1405.89,1293.95 1407.72,1285.11 1409.56,1282.36 1411.4,1264.94 
  1413.24,1260.71 1415.08,1267.44 1416.91,1305.34 1418.75,1299.53 1420.59,1293.31 1422.43,1307.48 1424.26,1312 1426.1,1301.72 1427.94,1323.28 1429.78,1322.3 
  1431.62,1309.99 1433.45,1284.14 1435.29,1278.38 1437.13,1286.58 1438.97,1307.87 1440.81,1308.05 1442.64,1293.02 1444.48,1297.22 1446.32,1306.07 1448.16,1287.47 
  1449.99,1283.87 1451.83,1288.42 1453.67,1297.48 1455.51,1289.93 1457.35,1284.38 1459.18,1275.59 1461.02,1289.01 1462.86,1290.16 1464.7,1282.81 1466.54,1284.69 
  1468.37,1288.42 1470.21,1253.15 1472.05,1271.26 1473.89,1282.72 1475.72,1271.91 1477.56,1263.69 1479.4,1284.79 1481.24,1299.27 1483.08,1301.22 1484.91,1291.58 
  1486.75,1301.87 1488.59,1302.38 1490.43,1296.77 1492.27,1287.28 1494.1,1291.29 1495.94,1285.52 1497.78,1307.2 1499.62,1309.33 1501.45,1306.99 1503.29,1295.82 
  1505.13,1287.5 1506.97,1287.88 1508.81,1288.36 1510.64,1295.7 1512.48,1295.56 1514.32,1292.6 1516.16,1285.76 1518,1285.75 1519.83,1286.92 1521.67,1288.96 
  1523.51,1248.42 1525.35,1294.24 1527.18,1287.35 1529.02,1275.63 1530.86,1284.93 1532.7,1295.95 1534.54,1304.92 1536.37,1307.94 1538.21,1282.36 1540.05,1288.52 
  1541.89,1294.2 1543.73,1299.15 1545.56,1301.53 1547.4,1295.84 1549.24,1274.87 1551.08,1277.08 1552.91,1277.4 1554.75,1295.51 1556.59,1285.16 1558.43,1298.66 
  1560.27,1304.62 1562.1,1274.38 1563.94,1279.56 1565.78,1295.54 1567.62,1316.72 1569.46,1288.18 1571.29,1275.63 1573.13,1269.4 1574.97,1292.34 1576.81,1303.4 
  1578.64,1292.88 1580.48,1284.23 1582.32,1287.9 1584.16,1309.35 1586,1312.76 1587.83,1306.73 1589.67,1294.67 1591.51,1293.42 1593.35,1276.11 1595.18,1301 
  1597.02,1287.14 1598.86,1301.41 1600.7,1306.46 1602.54,1300.82 1604.37,1274.71 1606.21,1287.07 1608.05,1289.35 1609.89,1290.78 1611.73,1281.46 1613.56,1285.49 
  1615.4,1304.92 1617.24,1321.2 1619.08,1293.8 1620.91,1283.12 1622.75,1304.37 1624.59,1296.56 1626.43,1275.09 1628.27,1260.26 1630.1,1275.77 1631.94,1300.14 
  1633.78,1287.39 1635.62,1296.77 1637.46,1296.26 1639.29,1297.14 1641.13,1287.53 1642.97,1289.23 1644.81,1287.81 1646.64,1279.94 1648.48,1299.13 1650.32,1296.14 
  1652.16,1273.74 1654,1278.47 1655.83,1285.63 1657.67,1294.96 1659.51,1277.5 1661.35,1281.01 1663.19,1288.46 1665.02,1265.98 1666.86,1266.62 1668.7,1257.9 
  1670.54,1285.99 1672.37,1298.55 1674.21,1308.43 1676.05,1295.76 1677.89,1290.14 1679.73,1281.82 1681.56,1300.93 1683.4,1294.93 1685.24,1287.28 1687.08,1296.98 
  1688.92,1288.95 1690.75,1305.42 1692.59,1302.1 1694.43,1293.75 1696.27,1307.43 1698.1,1291.76 1699.94,1275.15 1701.78,1281.49 1703.62,1304.77 1705.46,1291.44 
  1707.29,1278.87 1709.13,1278.86 1710.97,1276.07 1712.81,1302.14 1714.65,1293.93 1716.48,1266.77 1718.32,1283.36 1720.16,1288.22 1722,1274.8 1723.83,1263.37 
  1725.67,1264.9 1727.51,1278.11 1729.35,1293.85 1731.19,1295.22 1733.02,1277.64 1734.86,1285.82 1736.7,1273.94 1738.54,1277.04 1740.38,1285.78 1742.21,1261.21 
  1744.05,1264.95 1745.89,1284.38 1747.73,1286.62 1749.56,1271.17 1751.4,1286.06 1753.24,1302.4 1755.08,1309.7 1756.92,1294.98 1758.75,1286.18 1760.59,1267.82 
  1762.43,1298.34 1764.27,1304.72 1766.11,1306.43 1767.94,1300.31 1769.78,1290.75 1771.62,1293.43 1773.46,1283.14 1775.29,1274.73 1777.13,1264.87 1778.97,1267.23 
  1780.81,1280.43 1782.65,1268.4 1784.48,1309.25 1786.32,1285.15 1788.16,1293.51 1790,1309.43 1791.83,1304.9 1793.67,1294.69 1795.51,1296.15 1797.35,1287.85 
  1799.19,1284.03 1801.02,1282.76 1802.86,1281.15 1804.7,1278.83 1806.54,1291.25 1808.38,1285.05 1810.21,1261.32 1812.05,1278.94 1813.89,1308.1 1815.73,1289.96 
  1817.56,1298.01 1819.4,1297.04 1821.24,1297.84 1823.08,1301.54 1824.92,1295.43 1826.75,1266.66 1828.59,1285.67 1830.43,1310.86 1832.27,1286.03 1834.11,1290.16 
  1835.94,1304.9 1837.78,1291.35 1839.62,1274.35 1841.46,1291.35 1843.29,1285.49 1845.13,1258.64 1846.97,1287.21 1848.81,1282.49 1850.65,1277.26 1852.48,1300.19 
  1854.32,1282.87 1856.16,1290.44 1858,1307.58 1859.84,1313.86 1861.67,1275.85 1863.51,1272.94 1865.35,1310.48 1867.19,1312.02 1869.02,1271.85 1870.86,1281.16 
  1872.7,1302.02 1874.54,1301.75 1876.38,1266.51 1878.21,1282.36 1880.05,1263.36 1881.89,1280.86 1883.73,1289.73 1885.57,1289.06 1887.4,1289.21 1889.24,1293.63 
  1891.08,1291.91 1892.92,1267.54 1894.75,1302.8 1896.59,1299.82 1898.43,1289 1900.27,1295.95 1902.11,1273.2 1903.94,1288.45 1905.78,1301.26 1907.62,1304.29 
  1909.46,1282.38 1911.3,1284.2 1913.13,1292.4 1914.97,1279.03 1916.81,1259.65 1918.65,1268.61 1920.48,1285.15 1922.32,1293.06 1924.16,1309.45 1926,1289.65 
  1927.84,1308.06 1929.67,1303.51 1931.51,1306.73 1933.35,1288.2 1935.19,1286.23 1937.03,1264.22 1938.86,1275.24 1940.7,1296.48 1942.54,1291.33 1944.38,1288.19 
  1946.21,1277.46 1948.05,1284.34 1949.89,1292.36 1951.73,1286.05 1953.57,1284.21 1955.4,1266.73 1957.24,1273.09 1959.08,1248.34 1960.92,1268.21 1962.76,1280.53 
  1964.59,1315 1966.43,1297.69 1968.27,1292.54 1970.11,1281.1 1971.94,1288.87 1973.78,1281.39 1975.62,1295.71 1977.46,1286.96 1979.3,1272.81 1981.13,1295.79 
  1982.97,1316.11 1984.81,1306.68 1986.65,1274.67 1988.48,1300.73 1990.32,1310.77 1992.16,1305.2 1994,1292.4 1995.84,1289.44 1997.67,1281.93 1999.51,1314.03 
  2001.35,1325.18 2003.19,1312.21 2005.03,1291.82 2006.86,1281.52 2008.7,1296.42 2010.54,1282.07 2012.38,1291.92 2014.21,1270.14 2016.05,1258.44 2017.89,1285.1 
  2019.73,1264.3 2021.57,1292.9 2023.4,1281.96 2025.24,1297.44 2027.08,1294.3 2028.92,1289.14 2030.76,1275.47 2032.59,1298.55 2034.43,1299.07 2036.27,1294.85 
  2038.11,1281.43 2039.94,1305.52 2041.78,1305.91 2043.62,1312.94 2045.46,1291.44 2047.3,1299.24 2049.13,1276.15 2050.97,1279.8 2052.81,1277.51 2054.65,1295.1 
  2056.49,1315.11 2058.32,1306.82 2060.16,1300.29 2062,1299.94 2063.84,1291.47 2065.67,1269.53 2067.51,1289.53 2069.35,1292.99 2071.19,1291.38 2073.03,1303.36 
  2074.86,1266.65 2076.7,1255.6 2078.54,1289.37 2080.38,1301.8 2082.22,1273.38 2084.05,1275.92 2085.89,1286.04 2087.73,1265.22 2089.57,1278.44 2091.4,1268.86 
  2093.24,1277.35 2095.08,1289.36 2096.92,1295.04 2098.76,1280.71 2100.59,1290.59 2102.43,1303 2104.27,1284.14 2106.11,1274.32 2107.95,1280.61 2109.78,1303.83 
  2111.62,1291.13 2113.46,1285.68 2115.3,1296.33 2117.13,1281.47 2118.97,1270.99 2120.81,1297.94 2122.65,1284.72 2124.49,1284.65 2126.32,1274.36 2128.16,1282.17 
  2130,1273.86 2131.84,1295.29 2133.68,1291.53 2135.51,1301.46 2137.35,1317.67 2139.19,1290.63 2141.03,1293.94 2142.86,1256.88 2144.7,1255.44 2146.54,1260.96 
  2148.38,1288.83 2150.22,1303.11 2152.05,1279.14 2153.89,1273.94 2155.73,1258.71 2157.57,1258.54 2159.4,1279.74 2161.24,1282.21 2163.08,1282.69 2164.92,1278.62 
  2166.76,1275.08 2168.59,1283.92 2170.43,1303.37 2172.27,1302.66 2174.11,1295.26 2175.95,1299.2 2177.78,1311.34 2179.62,1303.4 2181.46,1295.75 2183.3,1287.1 
  2185.13,1276.44 2186.97,1291.42 2188.81,1286.72 2190.65,1285.14 2192.49,1294.77 2194.32,1292.84 2196.16,1265.73 2198,1276.31 2199.84,1292.12 2201.68,1294.48 
  
  "/>
</svg>
