<?xml version="1.0" encoding="utf-8"?>
<svg xmlns="http://www.w3.org/2000/svg" xmlns:xlink="http://www.w3.org/1999/xlink" width="576" height="384" viewBox="0 0 2304 1536">
<defs>
  <clipPath id="clip100">
    <rect x="0" y="0" width="2304" height="1536"/>
  </clipPath>
</defs>
<path clip-path="url(#clip100)" d="
M0 1536 L2304 1536 L2304 0 L0 0  Z
  " fill="#ffffff" fill-rule="evenodd" fill-opacity="1"/>
<defs>
  <clipPath id="clip101">
    <rect x="460" y="0" width="1614" height="1536"/>
  </clipPath>
</defs>
<defs>
  <clipPath id="clip102">
    <rect x="189" y="123" width="2068" height="1237"/>
  </clipPath>
</defs>
<path clip-path="url(#clip100)" d="
M265.352 1359.82 L2256.76 1359.82 L2256.76 123.472 L265.352 123.472  Z
  " fill="#ffffff" fill-rule="evenodd" fill-opacity="1"/>
<defs>
  <clipPath id="clip103">
    <rect x="265" y="123" width="1992" height="1237"/>
  </clipPath>
</defs>
<polyline clip-path="url(#clip103)" style="stroke:#000000; stroke-width:2; stroke-opacity:0.1; fill:none" points="
  321.712,1359.82 321.712,123.472 
  "/>
<polyline clip-path="url(#clip103)" style="stroke:#000000; stroke-width:2; stroke-opacity:0.1; fill:none" points="
  697.829,1359.82 697.829,123.472 
  "/>
<polyline clip-path="url(#clip103)" style="stroke:#000000; stroke-width:2; stroke-opacity:0.1; fill:none" points="
  1073.95,1359.82 1073.95,123.472 
  "/>
<polyline clip-path="url(#clip103)" style="stroke:#000000; stroke-width:2; stroke-opacity:0.1; fill:none" points="
  1450.06,1359.82 1450.06,123.472 
  "/>
<polyline clip-path="url(#clip103)" style="stroke:#000000; stroke-width:2; stroke-opacity:0.1; fill:none" points="
  1826.18,1359.82 1826.18,123.472 
  "/>
<polyline clip-path="url(#clip103)" style="stroke:#000000; stroke-width:2; stroke-opacity:0.1; fill:none" points="
  2202.3,1359.82 2202.3,123.472 
  "/>
<polyline clip-path="url(#clip100)" style="stroke:#000000; stroke-width:4; stroke-opacity:1; fill:none" points="
  265.352,1359.82 2256.76,1359.82 
  "/>
<polyline clip-path="url(#clip100)" style="stroke:#000000; stroke-width:4; stroke-opacity:1; fill:none" points="
  321.712,1359.82 321.712,1344.98 
  "/>
<polyline clip-path="url(#clip100)" style="stroke:#000000; stroke-width:4; stroke-opacity:1; fill:none" points="
  697.829,1359.82 697.829,1344.98 
  "/>
<polyline clip-path="url(#clip100)" style="stroke:#000000; stroke-width:4; stroke-opacity:1; fill:none" points="
  1073.95,1359.82 1073.95,1344.98 
  "/>
<polyline clip-path="url(#clip100)" style="stroke:#000000; stroke-width:4; stroke-opacity:1; fill:none" points="
  1450.06,1359.82 1450.06,1344.98 
  "/>
<polyline clip-path="url(#clip100)" style="stroke:#000000; stroke-width:4; stroke-opacity:1; fill:none" points="
  1826.18,1359.82 1826.18,1344.98 
  "/>
<polyline clip-path="url(#clip100)" style="stroke:#000000; stroke-width:4; stroke-opacity:1; fill:none" points="
  2202.3,1359.82 2202.3,1344.98 
  "/>
<path clip-path="url(#clip100)" d="M 0 0 M321.712 1388.24 Q318.101 1388.24 316.272 1391.81 Q314.467 1395.35 314.467 1402.48 Q314.467 1409.59 316.272 1413.15 Q318.101 1416.69 321.712 1416.69 Q325.346 1416.69 327.152 1413.15 Q328.981 1409.59 328.981 1402.48 Q328.981 1395.35 327.152 1391.81 Q325.346 1388.24 321.712 1388.24 M321.712 1384.54 Q327.522 1384.54 330.578 1389.15 Q333.656 1393.73 333.656 1402.48 Q333.656 1411.21 330.578 1415.81 Q327.522 1420.4 321.712 1420.4 Q315.902 1420.4 312.823 1415.81 Q309.768 1411.21 309.768 1402.48 Q309.768 1393.73 312.823 1389.15 Q315.902 1384.54 321.712 1384.54 Z" fill="#000000" fill-rule="evenodd" fill-opacity="1" /><path clip-path="url(#clip100)" d="M 0 0 M672.517 1415.79 L680.156 1415.79 L680.156 1389.42 L671.845 1391.09 L671.845 1386.83 L680.109 1385.16 L684.785 1385.16 L684.785 1415.79 L692.424 1415.79 L692.424 1419.72 L672.517 1419.72 L672.517 1415.79 Z" fill="#000000" fill-rule="evenodd" fill-opacity="1" /><path clip-path="url(#clip100)" d="M 0 0 M711.868 1388.24 Q708.257 1388.24 706.429 1391.81 Q704.623 1395.35 704.623 1402.48 Q704.623 1409.59 706.429 1413.15 Q708.257 1416.69 711.868 1416.69 Q715.503 1416.69 717.308 1413.15 Q719.137 1409.59 719.137 1402.48 Q719.137 1395.35 717.308 1391.81 Q715.503 1388.24 711.868 1388.24 M711.868 1384.54 Q717.678 1384.54 720.734 1389.15 Q723.813 1393.73 723.813 1402.48 Q723.813 1411.21 720.734 1415.81 Q717.678 1420.4 711.868 1420.4 Q706.058 1420.4 702.979 1415.81 Q699.924 1411.21 699.924 1402.48 Q699.924 1393.73 702.979 1389.15 Q706.058 1384.54 711.868 1384.54 Z" fill="#000000" fill-rule="evenodd" fill-opacity="1" /><path clip-path="url(#clip100)" d="M 0 0 M1052.72 1415.79 L1069.04 1415.79 L1069.04 1419.72 L1047.09 1419.72 L1047.09 1415.79 Q1049.76 1413.03 1054.34 1408.4 Q1058.95 1403.75 1060.13 1402.41 Q1062.37 1399.89 1063.25 1398.15 Q1064.15 1396.39 1064.15 1394.7 Q1064.15 1391.95 1062.21 1390.21 Q1060.29 1388.47 1057.19 1388.47 Q1054.99 1388.47 1052.53 1389.24 Q1050.1 1390 1047.33 1391.55 L1047.33 1386.83 Q1050.15 1385.7 1052.6 1385.12 Q1055.06 1384.54 1057.09 1384.54 Q1062.46 1384.54 1065.66 1387.22 Q1068.85 1389.91 1068.85 1394.4 Q1068.85 1396.53 1068.04 1398.45 Q1067.26 1400.35 1065.15 1402.94 Q1064.57 1403.61 1061.47 1406.83 Q1058.37 1410.02 1052.72 1415.79 Z" fill="#000000" fill-rule="evenodd" fill-opacity="1" /><path clip-path="url(#clip100)" d="M 0 0 M1088.85 1388.24 Q1085.24 1388.24 1083.41 1391.81 Q1081.61 1395.35 1081.61 1402.48 Q1081.61 1409.59 1083.41 1413.15 Q1085.24 1416.69 1088.85 1416.69 Q1092.49 1416.69 1094.29 1413.15 Q1096.12 1409.59 1096.12 1402.48 Q1096.12 1395.35 1094.29 1391.81 Q1092.49 1388.24 1088.85 1388.24 M1088.85 1384.54 Q1094.66 1384.54 1097.72 1389.15 Q1100.8 1393.73 1100.8 1402.48 Q1100.8 1411.21 1097.72 1415.81 Q1094.66 1420.4 1088.85 1420.4 Q1083.04 1420.4 1079.96 1415.81 Q1076.91 1411.21 1076.91 1402.48 Q1076.91 1393.73 1079.96 1389.15 Q1083.04 1384.54 1088.85 1384.54 Z" fill="#000000" fill-rule="evenodd" fill-opacity="1" /><path clip-path="url(#clip100)" d="M 0 0 M1438.91 1401.09 Q1442.26 1401.81 1444.14 1404.08 Q1446.04 1406.34 1446.04 1409.68 Q1446.04 1414.79 1442.52 1417.59 Q1439 1420.4 1432.52 1420.4 Q1430.34 1420.4 1428.03 1419.96 Q1425.73 1419.54 1423.28 1418.68 L1423.28 1414.17 Q1425.23 1415.3 1427.54 1415.88 Q1429.85 1416.46 1432.38 1416.46 Q1436.78 1416.46 1439.07 1414.72 Q1441.38 1412.99 1441.38 1409.68 Q1441.38 1406.62 1439.23 1404.91 Q1437.1 1403.17 1433.28 1403.17 L1429.25 1403.17 L1429.25 1399.33 L1433.47 1399.33 Q1436.91 1399.33 1438.74 1397.96 Q1440.57 1396.58 1440.57 1393.98 Q1440.57 1391.32 1438.67 1389.91 Q1436.8 1388.47 1433.28 1388.47 Q1431.36 1388.47 1429.16 1388.89 Q1426.96 1389.31 1424.32 1390.19 L1424.32 1386.02 Q1426.98 1385.28 1429.3 1384.91 Q1431.64 1384.54 1433.7 1384.54 Q1439.02 1384.54 1442.12 1386.97 Q1445.23 1389.38 1445.23 1393.5 Q1445.23 1396.37 1443.58 1398.36 Q1441.94 1400.33 1438.91 1401.09 Z" fill="#000000" fill-rule="evenodd" fill-opacity="1" /><path clip-path="url(#clip100)" d="M 0 0 M1464.9 1388.24 Q1461.29 1388.24 1459.46 1391.81 Q1457.66 1395.35 1457.66 1402.48 Q1457.66 1409.59 1459.46 1413.15 Q1461.29 1416.69 1464.9 1416.69 Q1468.54 1416.69 1470.34 1413.15 Q1472.17 1409.59 1472.17 1402.48 Q1472.17 1395.35 1470.34 1391.81 Q1468.54 1388.24 1464.9 1388.24 M1464.9 1384.54 Q1470.71 1384.54 1473.77 1389.15 Q1476.85 1393.73 1476.85 1402.48 Q1476.85 1411.21 1473.77 1415.81 Q1470.71 1420.4 1464.9 1420.4 Q1459.09 1420.4 1456.01 1415.81 Q1452.96 1411.21 1452.96 1402.48 Q1452.96 1393.73 1456.01 1389.15 Q1459.09 1384.54 1464.9 1384.54 Z" fill="#000000" fill-rule="evenodd" fill-opacity="1" /><path clip-path="url(#clip100)" d="M 0 0 M1814.35 1389.24 L1802.55 1407.69 L1814.35 1407.69 L1814.35 1389.24 M1813.12 1385.16 L1819 1385.16 L1819 1407.69 L1823.93 1407.69 L1823.93 1411.58 L1819 1411.58 L1819 1419.72 L1814.35 1419.72 L1814.35 1411.58 L1798.75 1411.58 L1798.75 1407.06 L1813.12 1385.16 Z" fill="#000000" fill-rule="evenodd" fill-opacity="1" /><path clip-path="url(#clip100)" d="M 0 0 M1841.67 1388.24 Q1838.05 1388.24 1836.23 1391.81 Q1834.42 1395.35 1834.42 1402.48 Q1834.42 1409.59 1836.23 1413.15 Q1838.05 1416.69 1841.67 1416.69 Q1845.3 1416.69 1847.11 1413.15 Q1848.93 1409.59 1848.93 1402.48 Q1848.93 1395.35 1847.11 1391.81 Q1845.3 1388.24 1841.67 1388.24 M1841.67 1384.54 Q1847.48 1384.54 1850.53 1389.15 Q1853.61 1393.73 1853.61 1402.48 Q1853.61 1411.21 1850.53 1415.81 Q1847.48 1420.4 1841.67 1420.4 Q1835.86 1420.4 1832.78 1415.81 Q1829.72 1411.21 1829.72 1402.48 Q1829.72 1393.73 1832.78 1389.15 Q1835.86 1384.54 1841.67 1384.54 Z" fill="#000000" fill-rule="evenodd" fill-opacity="1" /><path clip-path="url(#clip100)" d="M 0 0 M2177 1385.16 L2195.35 1385.16 L2195.35 1389.1 L2181.28 1389.1 L2181.28 1397.57 Q2182.3 1397.22 2183.32 1397.06 Q2184.33 1396.88 2185.35 1396.88 Q2191.14 1396.88 2194.52 1400.05 Q2197.9 1403.22 2197.9 1408.64 Q2197.9 1414.21 2194.43 1417.32 Q2190.95 1420.4 2184.63 1420.4 Q2182.46 1420.4 2180.19 1420.02 Q2177.95 1419.65 2175.54 1418.91 L2175.54 1414.21 Q2177.62 1415.35 2179.84 1415.9 Q2182.07 1416.46 2184.54 1416.46 Q2188.55 1416.46 2190.88 1414.35 Q2193.22 1412.25 2193.22 1408.64 Q2193.22 1405.02 2190.88 1402.92 Q2188.55 1400.81 2184.54 1400.81 Q2182.67 1400.81 2180.79 1401.23 Q2178.94 1401.65 2177 1402.52 L2177 1385.16 Z" fill="#000000" fill-rule="evenodd" fill-opacity="1" /><path clip-path="url(#clip100)" d="M 0 0 M2217.11 1388.24 Q2213.5 1388.24 2211.67 1391.81 Q2209.87 1395.35 2209.87 1402.48 Q2209.87 1409.59 2211.67 1413.15 Q2213.5 1416.69 2217.11 1416.69 Q2220.75 1416.69 2222.55 1413.15 Q2224.38 1409.59 2224.38 1402.48 Q2224.38 1395.35 2222.55 1391.81 Q2220.75 1388.24 2217.11 1388.24 M2217.11 1384.54 Q2222.92 1384.54 2225.98 1389.15 Q2229.06 1393.73 2229.06 1402.48 Q2229.06 1411.21 2225.98 1415.81 Q2222.92 1420.4 2217.11 1420.4 Q2211.3 1420.4 2208.22 1415.81 Q2205.17 1411.21 2205.17 1402.48 Q2205.17 1393.73 2208.22 1389.15 Q2211.3 1384.54 2217.11 1384.54 Z" fill="#000000" fill-rule="evenodd" fill-opacity="1" /><path clip-path="url(#clip100)" d="M 0 0 M1021.16 1453.72 L1021.16 1458.59 L1015.56 1458.59 Q1012.41 1458.59 1011.17 1459.86 Q1009.96 1461.13 1009.96 1464.44 L1009.96 1467.6 L1019.6 1467.6 L1019.6 1472.15 L1009.96 1472.15 L1009.96 1503.24 L1004.07 1503.24 L1004.07 1472.15 L998.468 1472.15 L998.468 1467.6 L1004.07 1467.6 L1004.07 1465.11 Q1004.07 1459.16 1006.84 1456.46 Q1009.61 1453.72 1015.62 1453.72 L1021.16 1453.72 Z" fill="#000000" fill-rule="evenodd" fill-opacity="1" /><path clip-path="url(#clip100)" d="M 0 0 M1046.72 1473.07 Q1045.73 1472.5 1044.56 1472.24 Q1043.41 1471.96 1042.01 1471.96 Q1037.04 1471.96 1034.37 1475.2 Q1031.73 1478.42 1031.73 1484.47 L1031.73 1503.24 L1025.84 1503.24 L1025.84 1467.6 L1031.73 1467.6 L1031.73 1473.13 Q1033.58 1469.89 1036.54 1468.33 Q1039.5 1466.74 1043.73 1466.74 Q1044.33 1466.74 1045.07 1466.83 Q1045.8 1466.9 1046.69 1467.05 L1046.72 1473.07 Z" fill="#000000" fill-rule="evenodd" fill-opacity="1" /><path clip-path="url(#clip100)" d="M 0 0 M1081.92 1483.96 L1081.92 1486.82 L1055 1486.82 Q1055.38 1492.87 1058.62 1496.05 Q1061.9 1499.2 1067.73 1499.2 Q1071.1 1499.2 1074.25 1498.37 Q1077.43 1497.55 1080.55 1495.89 L1080.55 1501.43 Q1077.4 1502.77 1074.09 1503.47 Q1070.78 1504.17 1067.38 1504.17 Q1058.85 1504.17 1053.85 1499.2 Q1048.88 1494.24 1048.88 1485.77 Q1048.88 1477.02 1053.6 1471.89 Q1058.34 1466.74 1066.36 1466.74 Q1073.55 1466.74 1077.72 1471.38 Q1081.92 1476 1081.92 1483.96 M1076.07 1482.24 Q1076 1477.43 1073.36 1474.57 Q1070.75 1471.7 1066.42 1471.7 Q1061.52 1471.7 1058.56 1474.47 Q1055.63 1477.24 1055.19 1482.27 L1076.07 1482.24 Z" fill="#000000" fill-rule="evenodd" fill-opacity="1" /><path clip-path="url(#clip100)" d="M 0 0 M1095.04 1485.45 Q1095.04 1491.91 1097.68 1495.6 Q1100.35 1499.27 1105 1499.27 Q1109.65 1499.27 1112.32 1495.6 Q1114.99 1491.91 1114.99 1485.45 Q1114.99 1478.99 1112.32 1475.33 Q1109.65 1471.64 1105 1471.64 Q1100.35 1471.64 1097.68 1475.33 Q1095.04 1478.99 1095.04 1485.45 M1114.99 1497.9 Q1113.15 1501.08 1110.31 1502.64 Q1107.51 1504.17 1103.57 1504.17 Q1097.1 1504.17 1093.03 1499.01 Q1088.99 1493.85 1088.99 1485.45 Q1088.99 1477.05 1093.03 1471.89 Q1097.1 1466.74 1103.57 1466.74 Q1107.51 1466.74 1110.31 1468.3 Q1113.15 1469.82 1114.99 1473.01 L1114.99 1467.6 L1120.85 1467.6 L1120.85 1516.8 L1114.99 1516.8 L1114.99 1497.9 Z" fill="#000000" fill-rule="evenodd" fill-opacity="1" /><path clip-path="url(#clip100)" d="M 0 0 M1132.31 1489.18 L1132.31 1467.6 L1138.16 1467.6 L1138.16 1488.95 Q1138.16 1494.01 1140.14 1496.56 Q1142.11 1499.07 1146.06 1499.07 Q1150.8 1499.07 1153.54 1496.05 Q1156.31 1493.03 1156.31 1487.81 L1156.31 1467.6 L1162.16 1467.6 L1162.16 1503.24 L1156.31 1503.24 L1156.31 1497.77 Q1154.17 1501.02 1151.34 1502.61 Q1148.54 1504.17 1144.82 1504.17 Q1138.67 1504.17 1135.49 1500.35 Q1132.31 1496.53 1132.31 1489.18 M1147.04 1466.74 L1147.04 1466.74 Z" fill="#000000" fill-rule="evenodd" fill-opacity="1" /><path clip-path="url(#clip100)" d="M 0 0 M1204.72 1483.96 L1204.72 1486.82 L1177.79 1486.82 Q1178.17 1492.87 1181.42 1496.05 Q1184.7 1499.2 1190.52 1499.2 Q1193.9 1499.2 1197.05 1498.37 Q1200.23 1497.55 1203.35 1495.89 L1203.35 1501.43 Q1200.2 1502.77 1196.89 1503.47 Q1193.58 1504.17 1190.17 1504.17 Q1181.64 1504.17 1176.64 1499.2 Q1171.68 1494.24 1171.68 1485.77 Q1171.68 1477.02 1176.39 1471.89 Q1181.13 1466.74 1189.15 1466.74 Q1196.35 1466.74 1200.52 1471.38 Q1204.72 1476 1204.72 1483.96 M1198.86 1482.24 Q1198.8 1477.43 1196.16 1474.57 Q1193.55 1471.7 1189.22 1471.7 Q1184.32 1471.7 1181.36 1474.47 Q1178.43 1477.24 1177.98 1482.27 L1198.86 1482.24 Z" fill="#000000" fill-rule="evenodd" fill-opacity="1" /><path clip-path="url(#clip100)" d="M 0 0 M1243.96 1481.73 L1243.96 1503.24 L1238.11 1503.24 L1238.11 1481.92 Q1238.11 1476.86 1236.13 1474.34 Q1234.16 1471.83 1230.21 1471.83 Q1225.47 1471.83 1222.73 1474.85 Q1219.99 1477.88 1219.99 1483.1 L1219.99 1503.24 L1214.11 1503.24 L1214.11 1467.6 L1219.99 1467.6 L1219.99 1473.13 Q1222.1 1469.92 1224.93 1468.33 Q1227.79 1466.74 1231.52 1466.74 Q1237.66 1466.74 1240.81 1470.56 Q1243.96 1474.34 1243.96 1481.73 Z" fill="#000000" fill-rule="evenodd" fill-opacity="1" /><path clip-path="url(#clip100)" d="M 0 0 M1281.3 1468.96 L1281.3 1474.44 Q1278.81 1473.07 1276.3 1472.4 Q1273.82 1471.7 1271.27 1471.7 Q1265.57 1471.7 1262.42 1475.33 Q1259.27 1478.93 1259.27 1485.45 Q1259.27 1491.98 1262.42 1495.6 Q1265.57 1499.2 1271.27 1499.2 Q1273.82 1499.2 1276.3 1498.53 Q1278.81 1497.83 1281.3 1496.46 L1281.3 1501.88 Q1278.85 1503.02 1276.2 1503.59 Q1273.59 1504.17 1270.63 1504.17 Q1262.58 1504.17 1257.84 1499.11 Q1253.1 1494.05 1253.1 1485.45 Q1253.1 1476.73 1257.87 1471.73 Q1262.68 1466.74 1271.02 1466.74 Q1273.72 1466.74 1276.3 1467.31 Q1278.88 1467.85 1281.3 1468.96 Z" fill="#000000" fill-rule="evenodd" fill-opacity="1" /><path clip-path="url(#clip100)" d="M 0 0 M1306.31 1506.55 Q1303.83 1512.92 1301.48 1514.86 Q1299.12 1516.8 1295.17 1516.8 L1290.5 1516.8 L1290.5 1511.9 L1293.93 1511.9 Q1296.35 1511.9 1297.69 1510.76 Q1299.03 1509.61 1300.65 1505.34 L1301.7 1502.67 L1287.28 1467.6 L1293.49 1467.6 L1304.63 1495.48 L1315.77 1467.6 L1321.97 1467.6 L1306.31 1506.55 Z" fill="#000000" fill-rule="evenodd" fill-opacity="1" /><path clip-path="url(#clip100)" d="M 0 0 M1364.85 1453.78 Q1360.58 1461.1 1358.51 1468.26 Q1356.44 1475.43 1356.44 1482.78 Q1356.44 1490.13 1358.51 1497.36 Q1360.61 1504.55 1364.85 1511.84 L1359.75 1511.84 Q1354.98 1504.36 1352.59 1497.13 Q1350.24 1489.91 1350.24 1482.78 Q1350.24 1475.68 1352.59 1468.49 Q1354.95 1461.29 1359.75 1453.78 L1364.85 1453.78 Z" fill="#000000" fill-rule="evenodd" fill-opacity="1" /><path clip-path="url(#clip100)" d="M 0 0 M1408.87 1496.46 L1408.87 1483.7 L1398.36 1483.7 L1398.36 1478.42 L1415.23 1478.42 L1415.23 1498.82 Q1411.51 1501.46 1407.02 1502.83 Q1402.53 1504.17 1397.44 1504.17 Q1386.3 1504.17 1380 1497.67 Q1373.73 1491.15 1373.73 1479.53 Q1373.73 1467.88 1380 1461.39 Q1386.3 1454.86 1397.44 1454.86 Q1402.09 1454.86 1406.26 1456.01 Q1410.46 1457.16 1413.99 1459.38 L1413.99 1466.23 Q1410.43 1463.2 1406.41 1461.68 Q1402.4 1460.15 1397.98 1460.15 Q1389.26 1460.15 1384.87 1465.02 Q1380.51 1469.89 1380.51 1479.53 Q1380.51 1489.14 1384.87 1494.01 Q1389.26 1498.88 1397.98 1498.88 Q1401.39 1498.88 1404.06 1498.31 Q1406.73 1497.71 1408.87 1496.46 Z" fill="#000000" fill-rule="evenodd" fill-opacity="1" /><path clip-path="url(#clip100)" d="M 0 0 M1426.98 1455.72 L1433.41 1455.72 L1433.41 1475.2 L1456.77 1475.2 L1456.77 1455.72 L1463.2 1455.72 L1463.2 1503.24 L1456.77 1503.24 L1456.77 1480.61 L1433.41 1480.61 L1433.41 1503.24 L1426.98 1503.24 L1426.98 1455.72 Z" fill="#000000" fill-rule="evenodd" fill-opacity="1" /><path clip-path="url(#clip100)" d="M 0 0 M1473.19 1467.6 L1501.01 1467.6 L1501.01 1472.94 L1478.98 1498.57 L1501.01 1498.57 L1501.01 1503.24 L1472.4 1503.24 L1472.4 1497.9 L1494.42 1472.27 L1473.19 1472.27 L1473.19 1467.6 Z" fill="#000000" fill-rule="evenodd" fill-opacity="1" /><path clip-path="url(#clip100)" d="M 0 0 M1509.03 1453.78 L1514.12 1453.78 Q1518.9 1461.29 1521.25 1468.49 Q1523.64 1475.68 1523.64 1482.78 Q1523.64 1489.91 1521.25 1497.13 Q1518.9 1504.36 1514.12 1511.84 L1509.03 1511.84 Q1513.26 1504.55 1515.33 1497.36 Q1517.43 1490.13 1517.43 1482.78 Q1517.43 1475.43 1515.33 1468.26 Q1513.26 1461.1 1509.03 1453.78 Z" fill="#000000" fill-rule="evenodd" fill-opacity="1" /><polyline clip-path="url(#clip103)" style="stroke:#000000; stroke-width:2; stroke-opacity:0.1; fill:none" points="
  265.352,1324.83 2256.76,1324.83 
  "/>
<polyline clip-path="url(#clip103)" style="stroke:#000000; stroke-width:2; stroke-opacity:0.1; fill:none" points="
  265.352,1117.79 2256.76,1117.79 
  "/>
<polyline clip-path="url(#clip103)" style="stroke:#000000; stroke-width:2; stroke-opacity:0.1; fill:none" points="
  265.352,910.747 2256.76,910.747 
  "/>
<polyline clip-path="url(#clip103)" style="stroke:#000000; stroke-width:2; stroke-opacity:0.1; fill:none" points="
  265.352,703.707 2256.76,703.707 
  "/>
<polyline clip-path="url(#clip103)" style="stroke:#000000; stroke-width:2; stroke-opacity:0.1; fill:none" points="
  265.352,496.666 2256.76,496.666 
  "/>
<polyline clip-path="url(#clip103)" style="stroke:#000000; stroke-width:2; stroke-opacity:0.1; fill:none" points="
  265.352,289.625 2256.76,289.625 
  "/>
<polyline clip-path="url(#clip100)" style="stroke:#000000; stroke-width:4; stroke-opacity:1; fill:none" points="
  265.352,1359.82 265.352,123.472 
  "/>
<polyline clip-path="url(#clip100)" style="stroke:#000000; stroke-width:4; stroke-opacity:1; fill:none" points="
  265.352,1324.83 289.248,1324.83 
  "/>
<polyline clip-path="url(#clip100)" style="stroke:#000000; stroke-width:4; stroke-opacity:1; fill:none" points="
  265.352,1117.79 289.248,1117.79 
  "/>
<polyline clip-path="url(#clip100)" style="stroke:#000000; stroke-width:4; stroke-opacity:1; fill:none" points="
  265.352,910.747 289.248,910.747 
  "/>
<polyline clip-path="url(#clip100)" style="stroke:#000000; stroke-width:4; stroke-opacity:1; fill:none" points="
  265.352,703.707 289.248,703.707 
  "/>
<polyline clip-path="url(#clip100)" style="stroke:#000000; stroke-width:4; stroke-opacity:1; fill:none" points="
  265.352,496.666 289.248,496.666 
  "/>
<polyline clip-path="url(#clip100)" style="stroke:#000000; stroke-width:4; stroke-opacity:1; fill:none" points="
  265.352,289.625 289.248,289.625 
  "/>
<path clip-path="url(#clip100)" d="M 0 0 M218.847 1310.63 Q215.236 1310.63 213.407 1314.19 Q211.602 1317.73 211.602 1324.86 Q211.602 1331.97 213.407 1335.53 Q215.236 1339.08 218.847 1339.08 Q222.481 1339.08 224.287 1335.53 Q226.116 1331.97 226.116 1324.86 Q226.116 1317.73 224.287 1314.19 Q222.481 1310.63 218.847 1310.63 M218.847 1306.92 Q224.657 1306.92 227.713 1311.53 Q230.792 1316.11 230.792 1324.86 Q230.792 1333.59 227.713 1338.2 Q224.657 1342.78 218.847 1342.78 Q213.037 1342.78 209.958 1338.2 Q206.903 1333.59 206.903 1324.86 Q206.903 1316.11 209.958 1311.53 Q213.037 1306.92 218.847 1306.92 Z" fill="#000000" fill-rule="evenodd" fill-opacity="1" /><path clip-path="url(#clip100)" d="M 0 0 M209.889 1100.51 L228.245 1100.51 L228.245 1104.44 L214.171 1104.44 L214.171 1112.92 Q215.19 1112.57 216.208 1112.41 Q217.227 1112.22 218.245 1112.22 Q224.032 1112.22 227.412 1115.39 Q230.792 1118.56 230.792 1123.98 Q230.792 1129.56 227.319 1132.66 Q223.847 1135.74 217.528 1135.74 Q215.352 1135.74 213.083 1135.37 Q210.838 1135 208.431 1134.26 L208.431 1129.56 Q210.514 1130.69 212.736 1131.25 Q214.958 1131.8 217.435 1131.8 Q221.44 1131.8 223.778 1129.7 Q226.116 1127.59 226.116 1123.98 Q226.116 1120.37 223.778 1118.26 Q221.44 1116.16 217.435 1116.16 Q215.56 1116.16 213.685 1116.57 Q211.833 1116.99 209.889 1117.87 L209.889 1100.51 Z" fill="#000000" fill-rule="evenodd" fill-opacity="1" /><path clip-path="url(#clip100)" d="M 0 0 M179.496 924.092 L187.134 924.092 L187.134 897.727 L178.824 899.393 L178.824 895.134 L187.088 893.467 L191.764 893.467 L191.764 924.092 L199.403 924.092 L199.403 928.027 L179.496 928.027 L179.496 924.092 Z" fill="#000000" fill-rule="evenodd" fill-opacity="1" /><path clip-path="url(#clip100)" d="M 0 0 M218.847 896.546 Q215.236 896.546 213.407 900.111 Q211.602 903.652 211.602 910.782 Q211.602 917.889 213.407 921.453 Q215.236 924.995 218.847 924.995 Q222.481 924.995 224.287 921.453 Q226.116 917.889 226.116 910.782 Q226.116 903.652 224.287 900.111 Q222.481 896.546 218.847 896.546 M218.847 892.842 Q224.657 892.842 227.713 897.449 Q230.792 902.032 230.792 910.782 Q230.792 919.509 227.713 924.115 Q224.657 928.699 218.847 928.699 Q213.037 928.699 209.958 924.115 Q206.903 919.509 206.903 910.782 Q206.903 902.032 209.958 897.449 Q213.037 892.842 218.847 892.842 Z" fill="#000000" fill-rule="evenodd" fill-opacity="1" /><path clip-path="url(#clip100)" d="M 0 0 M180.491 717.051 L188.13 717.051 L188.13 690.686 L179.82 692.352 L179.82 688.093 L188.083 686.427 L192.759 686.427 L192.759 717.051 L200.398 717.051 L200.398 720.987 L180.491 720.987 L180.491 717.051 Z" fill="#000000" fill-rule="evenodd" fill-opacity="1" /><path clip-path="url(#clip100)" d="M 0 0 M209.889 686.427 L228.245 686.427 L228.245 690.362 L214.171 690.362 L214.171 698.834 Q215.19 698.487 216.208 698.325 Q217.227 698.139 218.245 698.139 Q224.032 698.139 227.412 701.311 Q230.792 704.482 230.792 709.899 Q230.792 715.477 227.319 718.579 Q223.847 721.658 217.528 721.658 Q215.352 721.658 213.083 721.288 Q210.838 720.917 208.431 720.176 L208.431 715.477 Q210.514 716.612 212.736 717.167 Q214.958 717.723 217.435 717.723 Q221.44 717.723 223.778 715.616 Q226.116 713.51 226.116 709.899 Q226.116 706.288 223.778 704.181 Q221.44 702.075 217.435 702.075 Q215.56 702.075 213.685 702.491 Q211.833 702.908 209.889 703.788 L209.889 686.427 Z" fill="#000000" fill-rule="evenodd" fill-opacity="1" /><path clip-path="url(#clip100)" d="M 0 0 M182.713 510.011 L199.032 510.011 L199.032 513.946 L177.088 513.946 L177.088 510.011 Q179.75 507.256 184.333 502.626 Q188.94 497.974 190.12 496.631 Q192.366 494.108 193.245 492.372 Q194.148 490.613 194.148 488.923 Q194.148 486.168 192.204 484.432 Q190.283 482.696 187.181 482.696 Q184.982 482.696 182.528 483.46 Q180.097 484.224 177.32 485.775 L177.32 481.052 Q180.144 479.918 182.597 479.34 Q185.051 478.761 187.088 478.761 Q192.458 478.761 195.653 481.446 Q198.847 484.131 198.847 488.622 Q198.847 490.752 198.037 492.673 Q197.25 494.571 195.144 497.164 Q194.565 497.835 191.463 501.052 Q188.361 504.247 182.713 510.011 Z" fill="#000000" fill-rule="evenodd" fill-opacity="1" /><path clip-path="url(#clip100)" d="M 0 0 M218.847 482.465 Q215.236 482.465 213.407 486.029 Q211.602 489.571 211.602 496.701 Q211.602 503.807 213.407 507.372 Q215.236 510.913 218.847 510.913 Q222.481 510.913 224.287 507.372 Q226.116 503.807 226.116 496.701 Q226.116 489.571 224.287 486.029 Q222.481 482.465 218.847 482.465 M218.847 478.761 Q224.657 478.761 227.713 483.367 Q230.792 487.951 230.792 496.701 Q230.792 505.427 227.713 510.034 Q224.657 514.617 218.847 514.617 Q213.037 514.617 209.958 510.034 Q206.903 505.427 206.903 496.701 Q206.903 487.951 209.958 483.367 Q213.037 478.761 218.847 478.761 Z" fill="#000000" fill-rule="evenodd" fill-opacity="1" /><path clip-path="url(#clip100)" d="M 0 0 M183.708 302.97 L200.028 302.97 L200.028 306.905 L178.084 306.905 L178.084 302.97 Q180.746 300.215 185.329 295.586 Q189.935 290.933 191.116 289.59 Q193.361 287.067 194.241 285.331 Q195.144 283.572 195.144 281.882 Q195.144 279.127 193.199 277.391 Q191.278 275.655 188.176 275.655 Q185.977 275.655 183.523 276.419 Q181.093 277.183 178.315 278.734 L178.315 274.012 Q181.139 272.877 183.593 272.299 Q186.046 271.72 188.083 271.72 Q193.454 271.72 196.648 274.405 Q199.843 277.09 199.843 281.581 Q199.843 283.711 199.032 285.632 Q198.245 287.53 196.139 290.123 Q195.56 290.794 192.458 294.012 Q189.357 297.206 183.708 302.97 Z" fill="#000000" fill-rule="evenodd" fill-opacity="1" /><path clip-path="url(#clip100)" d="M 0 0 M209.889 272.345 L228.245 272.345 L228.245 276.28 L214.171 276.28 L214.171 284.752 Q215.19 284.405 216.208 284.243 Q217.227 284.058 218.245 284.058 Q224.032 284.058 227.412 287.229 Q230.792 290.401 230.792 295.817 Q230.792 301.396 227.319 304.498 Q223.847 307.576 217.528 307.576 Q215.352 307.576 213.083 307.206 Q210.838 306.836 208.431 306.095 L208.431 301.396 Q210.514 302.53 212.736 303.086 Q214.958 303.641 217.435 303.641 Q221.44 303.641 223.778 301.535 Q226.116 299.428 226.116 295.817 Q226.116 292.206 223.778 290.1 Q221.44 287.993 217.435 287.993 Q215.56 287.993 213.685 288.41 Q211.833 288.826 209.889 289.706 L209.889 272.345 Z" fill="#000000" fill-rule="evenodd" fill-opacity="1" /><path clip-path="url(#clip100)" d="M 0 0 M96.5483 797.856 L112.973 803.524 L112.973 858.21 Q112.973 858.951 112.941 859.24 Q112.909 859.53 112.748 859.756 Q112.587 859.981 112.233 859.981 Q111.943 859.981 111.202 859.402 L82.2489 835.988 L49.1412 860.046 Q47.6276 860.046 47.3377 859.788 Q47.0157 859.53 47.0157 858.21 L47.0157 803.524 L62.4423 797.856 L62.4423 799.499 Q60.4455 800.239 58.7708 801.431 Q57.0639 802.59 55.8401 803.943 Q54.6162 805.263 53.6501 807.003 Q52.6517 808.709 52.0398 810.32 Q51.3957 811.898 50.9448 813.862 Q50.4617 815.827 50.2362 817.405 Q49.9786 818.951 49.8498 820.883 Q49.7209 822.816 49.6887 824.039 Q49.6565 825.263 49.6565 826.809 L49.6565 852.928 L79.0605 831.511 Q79.8012 831.028 79.9945 831.028 Q80.2843 831.028 81.0572 831.64 L109.334 854.506 L109.334 826.487 Q109.334 817.469 107.434 811.189 Q105.985 806.938 103.118 803.846 Q100.252 800.722 96.5483 799.499 L96.5483 797.856 Z" fill="#000000" fill-rule="evenodd" fill-opacity="1" /><path clip-path="url(#clip100)" d="M 0 0 M129.637 871.053 Q130.629 871.053 131.373 871.865 Q132.095 872.654 132.095 873.51 Q132.095 874.299 131.621 874.795 Q131.125 875.269 130.426 875.269 Q129.502 875.269 128.736 874.48 Q127.969 873.691 127.969 872.766 Q127.969 872 128.443 871.527 Q128.916 871.053 129.637 871.053 M151.888 870.647 Q152.069 870.647 152.79 870.85 Q153.489 871.053 154.571 871.549 Q155.631 872.023 156.623 872.676 Q157.615 873.33 158.314 874.412 Q159.012 875.472 159.012 876.689 Q159.012 878.335 157.93 879.417 Q156.848 880.477 155.225 880.477 Q154.346 880.477 151.528 879.417 Q143.322 876.351 142.984 876.238 Q141.699 875.72 140.571 875.72 Q140.053 875.72 139.737 875.832 Q139.399 875.945 139.286 876.171 Q139.151 876.396 139.128 876.531 Q139.106 876.644 139.106 876.869 Q139.106 878.2 140.459 879.44 Q141.811 880.679 144.832 881.536 Q145.396 881.716 145.531 881.829 Q145.666 881.942 145.666 882.28 Q145.644 882.844 145.193 882.844 Q145.058 882.844 144.539 882.686 Q143.998 882.528 143.186 882.235 Q142.352 881.942 141.496 881.423 Q140.616 880.905 139.85 880.274 Q139.083 879.62 138.587 878.696 Q138.091 877.771 138.091 876.734 Q138.091 875.043 139.196 874.006 Q140.278 872.947 141.879 872.947 Q142.758 872.947 144.314 873.556 Q146.343 874.299 146.996 874.57 L151.843 876.374 Q153.602 877.027 154.143 877.23 Q154.661 877.411 155.293 877.568 Q155.901 877.704 156.465 877.704 Q157.254 877.704 157.615 877.456 Q157.975 877.185 157.975 876.599 Q157.975 874.976 156.375 873.781 Q154.752 872.586 152.272 871.887 Q152.204 871.865 152.091 871.842 Q151.528 871.662 151.46 871.481 Q151.438 871.391 151.438 871.211 Q151.438 870.647 151.888 870.647 Z" fill="#000000" fill-rule="evenodd" fill-opacity="1" /><path clip-path="url(#clip100)" d="M 0 0 M151.483 854.271 Q150.919 854.225 150.919 853.346 L150.919 825.053 Q150.919 823.723 151.438 823.701 Q152.001 823.701 151.979 824.963 L151.979 853.031 Q152.001 854.271 151.483 854.271 M142.465 854.271 Q141.901 854.271 141.924 853.301 L141.924 825.098 Q141.924 823.723 142.465 823.701 Q142.984 823.701 142.984 824.873 L142.984 853.346 Q142.984 854.271 142.465 854.271 Z" fill="#000000" fill-rule="evenodd" fill-opacity="1" /><path clip-path="url(#clip100)" d="M 0 0 M132.14 805.893 L130.697 805.893 Q130.697 800.347 127.744 797.484 Q127.744 796.695 127.924 796.559 Q128.104 796.424 128.939 796.424 L154.842 796.424 Q156.217 796.424 156.645 795.748 Q157.074 795.071 157.074 792.118 L157.074 790.653 L158.494 790.653 Q158.359 792.276 158.359 798.137 Q158.359 803.999 158.494 805.599 L157.074 805.599 L157.074 804.134 Q157.074 801.226 156.668 800.527 Q156.239 799.828 154.842 799.828 L130.922 799.828 Q132.14 802.24 132.14 805.893 Z" fill="#000000" fill-rule="evenodd" fill-opacity="1" /><path clip-path="url(#clip100)" d="M 0 0 M-1.6977 853.952 L-3.14052 853.952 Q-3.14052 848.406 -6.0938 845.543 Q-6.0938 844.754 -5.91345 844.619 Q-5.73309 844.483 -4.89896 844.483 L21.0042 844.483 Q22.3794 844.483 22.8077 843.807 Q23.2361 843.131 23.2361 840.178 L23.2361 838.712 L24.6564 838.712 Q24.5211 840.335 24.5211 846.197 Q24.5211 852.058 24.6564 853.659 L23.2361 853.659 L23.2361 852.194 Q23.2361 849.285 22.8303 848.587 Q22.4019 847.888 21.0042 847.888 L-2.91508 847.888 Q-1.6977 850.3 -1.6977 853.952 Z" fill="#000000" fill-rule="evenodd" fill-opacity="1" /><path clip-path="url(#clip100)" d="M 0 0 M9.88997 834.784 Q3.1042 834.784 -0.593038 833.071 Q-6.0938 830.681 -6.0938 825.045 Q-6.0938 823.85 -5.75564 822.61 Q-5.44002 821.348 -4.20009 819.77 Q-2.96017 818.169 -0.931199 817.2 Q2.99147 815.351 9.88997 815.351 Q16.6307 815.351 20.3053 817.065 Q25.6708 819.567 25.6708 825.09 Q25.6708 827.164 24.6113 829.283 Q23.5517 831.38 21.0042 832.71 Q17.1943 834.784 9.88997 834.784 M9.32637 830.952 Q16.2925 830.952 19.0654 830.456 Q22.0638 829.892 23.3713 828.359 Q24.6564 826.804 24.6564 825.09 Q24.6564 823.242 23.2812 821.709 Q21.8834 820.153 18.8851 819.68 Q15.9318 819.161 9.32637 819.184 Q2.9013 819.184 0.33127 819.635 Q-2.6671 820.243 -3.86193 821.866 Q-5.07931 823.467 -5.07931 825.09 Q-5.07931 825.699 -4.89896 826.353 Q-4.71861 826.984 -4.20009 827.908 Q-3.68158 828.833 -2.39657 829.554 Q-1.11155 830.253 0.827241 830.591 Q3.32964 830.952 9.32637 830.952 Z" fill="#000000" fill-rule="evenodd" fill-opacity="1" /><path clip-path="url(#clip100)" d="M 0 0 M59.3995 739.265 L60.3238 739.828 Q58.8134 743.323 56.4012 747.674 Q58.8134 752.025 60.3238 755.519 L59.3995 756.06 Q56.0856 752.25 53.5381 747.674 Q56.1081 743.052 59.3995 739.265 Z" fill="#000000" fill-rule="evenodd" fill-opacity="1" /><path clip-path="url(#clip100)" d="M 0 0 M70.4293 736.755 Q70.4615 736.755 71.6209 736.949 L100.896 744.291 Q102.442 744.678 103.988 745.773 Q105.566 746.836 106.919 748.543 Q108.303 750.217 109.141 752.794 Q110.01 755.338 110.01 758.269 Q110.01 762.939 109.012 765 Q108.046 767.029 105.985 767.029 Q104.181 767.029 103.15 765.902 Q102.152 764.774 102.152 763.486 Q102.152 762.262 102.861 761.618 Q103.569 760.974 104.471 760.974 Q105.469 760.974 106.468 761.65 Q107.498 762.327 107.885 763.679 Q108.561 761.522 108.561 758.398 Q108.561 751.795 101.572 748.961 Q101.476 748.897 101.444 748.897 L92.7158 746.707 L92.6514 746.804 Q93.2955 747.351 94.0362 748.221 Q94.7447 749.058 95.6143 750.861 Q96.4839 752.665 96.4839 754.436 Q96.4839 758.14 93.6497 760.684 Q90.7834 763.196 86.0492 763.196 Q82.6031 763.196 79.1571 761.811 Q75.6789 760.394 73.1346 758.204 Q70.5581 755.982 68.9478 753.148 Q67.3376 750.282 67.3376 747.512 Q67.3376 745.58 68.497 743.937 Q69.6242 742.295 71.4921 741.393 Q69.9462 741.232 69.3021 740.362 Q68.658 739.461 68.658 738.688 Q68.658 737.818 69.1411 737.303 Q69.592 736.755 70.4293 736.755 M74.455 742.166 Q74.2618 742.166 73.7465 742.295 Q73.199 742.424 72.3295 742.81 Q71.4599 743.164 70.687 743.712 Q69.914 744.259 69.3665 745.258 Q68.7868 746.224 68.7868 747.448 Q68.7868 749.444 70.4615 751.441 Q72.104 753.438 74.6483 754.823 Q77.0959 756.111 81.8302 757.335 Q86.5645 758.526 88.9799 758.526 Q91.3631 758.526 93.1989 757.496 Q95.0346 756.465 95.0346 754.243 Q95.0346 751.667 92.6514 748.897 Q90.1715 746.031 88.0459 745.548 L75.4534 742.359 Q74.6805 742.166 74.455 742.166 Z" fill="#000000" fill-rule="evenodd" fill-opacity="1" /><path clip-path="url(#clip100)" d="M 0 0 M41.1747 728.64 Q33.3744 728.64 27.0846 725.731 Q24.447 724.491 22.2376 722.756 Q20.0283 721.02 19.0589 719.87 Q18.0895 718.72 18.0895 718.405 Q18.0895 717.954 18.5404 717.931 Q18.7658 717.931 19.3294 718.54 Q26.9043 725.979 41.1747 725.957 Q55.4902 725.957 62.7719 718.72 Q63.561 717.931 63.809 717.931 Q64.2598 717.931 64.2598 718.405 Q64.2598 718.72 63.3355 719.825 Q62.4112 720.929 60.2921 722.643 Q58.1729 724.356 55.5804 725.596 Q49.2906 728.64 41.1747 728.64 Z" fill="#000000" fill-rule="evenodd" fill-opacity="1" /><path clip-path="url(#clip100)" d="M 0 0 M52.7173 710.911 Q51.8831 710.911 51.6351 710.844 Q51.3872 710.753 51.0039 710.393 L41.1296 701.533 Q35.6739 696.686 30.9171 696.686 Q27.8286 696.686 25.6192 698.309 Q23.4099 699.91 23.4099 702.863 Q23.4099 704.892 24.6498 706.605 Q25.8898 708.319 28.0991 709.108 Q28.054 708.972 28.054 708.499 Q28.054 707.349 28.7754 706.718 Q29.4968 706.064 30.4662 706.064 Q31.7062 706.064 32.3148 706.876 Q32.901 707.665 32.901 708.454 Q32.901 708.77 32.8334 709.198 Q32.7657 709.604 32.1345 710.257 Q31.4807 710.911 30.331 710.911 Q27.1072 710.911 24.5371 708.476 Q21.9671 706.019 21.9671 702.277 Q21.9671 698.039 24.492 695.266 Q26.9944 692.47 30.9171 692.47 Q32.2923 692.47 33.5548 692.898 Q34.7947 693.304 35.7641 693.868 Q36.7335 694.409 38.289 695.897 Q39.8446 697.385 40.9492 698.58 Q42.0539 699.774 44.3985 702.457 L49.1553 707.349 L49.1553 699.03 Q49.1553 694.973 48.7946 694.657 Q48.1408 694.206 44.6916 693.642 L44.6916 692.47 L52.7173 693.778 L52.7173 710.911 Z" fill="#000000" fill-rule="evenodd" fill-opacity="1" /><path clip-path="url(#clip100)" d="M 0 0 M63.809 688.047 Q63.5835 688.047 63.0199 687.461 Q55.4451 680.022 41.1747 680.022 Q26.8592 680.022 19.6225 687.168 Q18.7884 688.047 18.5404 688.047 Q18.0895 688.047 18.0895 687.597 Q18.0895 687.281 19.0138 686.176 Q19.9381 685.049 22.0573 683.358 Q24.1764 681.645 26.769 680.382 Q33.0588 677.339 41.1747 677.339 Q48.9749 677.339 55.2647 680.247 Q57.9024 681.487 60.1117 683.223 Q62.321 684.959 63.2904 686.109 Q64.2598 687.258 64.2598 687.597 Q64.2598 688.047 63.809 688.047 Z" fill="#000000" fill-rule="evenodd" fill-opacity="1" /><path clip-path="url(#clip100)" d="M 0 0 M79.9945 663.279 Q68.8512 663.279 59.8658 659.125 Q56.0977 657.353 52.9415 654.873 Q49.7854 652.394 48.4005 650.751 Q47.0157 649.109 47.0157 648.658 Q47.0157 648.014 47.6598 647.981 Q47.9818 647.981 48.787 648.851 Q59.6081 659.479 79.9945 659.447 Q100.445 659.447 110.848 649.109 Q111.975 647.981 112.329 647.981 Q112.973 647.981 112.973 648.658 Q112.973 649.109 111.653 650.687 Q110.332 652.265 107.305 654.712 Q104.278 657.16 100.574 658.931 Q91.5886 663.279 79.9945 663.279 Z" fill="#000000" fill-rule="evenodd" fill-opacity="1" /><path clip-path="url(#clip100)" d="M 0 0 M69.1089 606.906 Q69.3987 606.906 70.3971 607.164 Q71.3633 607.39 73.2634 608.13 Q75.1314 608.839 77.2248 609.934 Q79.2859 610.997 81.8946 612.961 Q84.5033 614.926 86.7899 617.373 Q91.1055 621.979 93.4243 626.906 Q95.7431 631.802 96.4839 635.988 L96.4839 636.922 Q96.4839 637.953 95.6787 637.953 L92.7158 637.244 L76.5806 633.219 Q71.6531 631.963 71.2345 631.963 Q70.848 631.963 70.6548 632.124 Q70.4293 632.253 70.2683 633.025 Q70.1073 633.766 70.1073 635.248 Q70.1073 635.86 70.0751 636.149 Q70.0428 636.407 69.8818 636.633 Q69.6886 636.858 69.3021 636.858 Q68.7546 636.858 68.4648 636.633 Q68.1427 636.375 68.0783 636.182 Q68.0139 635.988 67.9817 635.602 Q67.9495 635.054 67.7884 633.219 Q67.5952 631.383 67.4664 629.805 Q67.3376 628.227 67.3376 627.55 Q67.3376 627.164 67.5308 626.939 Q67.6918 626.713 67.8851 626.713 L68.0461 626.681 L94.2939 633.154 Q93.5209 630.771 92.2327 628.42 Q90.9444 626.037 88.8189 623.46 Q86.6611 620.884 83.988 618.694 Q81.3149 616.504 77.579 614.571 Q73.8109 612.607 69.4953 611.383 Q68.6258 611.158 68.1105 610.61 Q67.5952 610.03 67.4664 609.612 Q67.3376 609.193 67.3376 608.807 Q67.3376 607.937 67.8206 607.422 Q68.2715 606.906 69.1089 606.906 Z" fill="#000000" fill-rule="evenodd" fill-opacity="1" /><path clip-path="url(#clip100)" d="M 0 0 M112.329 605.705 Q112.007 605.705 111.202 604.868 Q100.381 594.24 79.9945 594.24 Q59.5437 594.24 49.2057 604.449 Q48.014 605.705 47.6598 605.705 Q47.0157 605.705 47.0157 605.061 Q47.0157 604.61 48.3361 603.032 Q49.6565 601.422 52.6839 599.006 Q55.7112 596.559 59.4149 594.755 Q68.4003 590.407 79.9945 590.407 Q91.1377 590.407 100.123 594.562 Q103.891 596.333 107.047 598.813 Q110.204 601.293 111.588 602.935 Q112.973 604.578 112.973 605.061 Q112.973 605.705 112.329 605.705 Z" fill="#000000" fill-rule="evenodd" fill-opacity="1" /><path clip-path="url(#clip100)" d="M 0 0 M449.597 14.0809 L449.597 22.0612 Q444.938 19.8332 440.806 18.7395 Q436.674 17.6457 432.826 17.6457 Q426.142 17.6457 422.496 20.2383 Q418.891 22.8309 418.891 27.611 Q418.891 31.6214 421.281 33.6873 Q423.712 35.7128 430.436 36.9686 L435.378 37.9813 Q444.533 39.7232 448.868 44.1387 Q453.243 48.5136 453.243 55.8863 Q453.243 64.6767 447.328 69.2137 Q441.455 73.7508 430.072 73.7508 Q425.778 73.7508 420.916 72.7785 Q416.096 71.8063 410.911 69.9024 L410.911 61.4765 Q415.893 64.2716 420.673 65.6895 Q425.453 67.1073 430.072 67.1073 Q437.08 67.1073 440.887 64.3527 Q444.695 61.598 444.695 56.4939 Q444.695 52.0379 441.941 49.5264 Q439.227 47.0148 432.988 45.759 L428.006 44.7868 Q418.85 42.9639 414.759 39.075 Q410.668 35.1862 410.668 28.2591 Q410.668 20.2383 416.298 15.6203 Q421.97 11.0023 431.894 11.0023 Q436.148 11.0023 440.563 11.7719 Q444.979 12.5416 449.597 14.0809 Z" fill="#000000" fill-rule="evenodd" fill-opacity="1" /><path clip-path="url(#clip100)" d="M 0 0 M464.909 54.671 L464.909 27.2059 L472.363 27.2059 L472.363 54.3874 Q472.363 60.8284 474.875 64.0691 Q477.386 67.2693 482.409 67.2693 Q488.445 67.2693 491.929 63.421 Q495.453 59.5726 495.453 52.9291 L495.453 27.2059 L502.907 27.2059 L502.907 72.576 L495.453 72.576 L495.453 65.6084 Q492.739 69.7404 489.134 71.7658 Q485.569 73.7508 480.829 73.7508 Q473.011 73.7508 468.96 68.8897 Q464.909 64.0286 464.909 54.671 M483.665 26.1121 L483.665 26.1121 Z" fill="#000000" fill-rule="evenodd" fill-opacity="1" /><path clip-path="url(#clip100)" d="M 0 0 M553.584 35.9153 Q556.379 30.8922 560.268 28.5022 Q564.156 26.1121 569.423 26.1121 Q576.512 26.1121 580.36 31.0947 Q584.208 36.0368 584.208 45.1919 L584.208 72.576 L576.714 72.576 L576.714 45.4349 Q576.714 38.913 574.405 35.7533 Q572.096 32.5936 567.357 32.5936 Q561.564 32.5936 558.202 36.4419 Q554.839 40.2903 554.839 46.9338 L554.839 72.576 L547.345 72.576 L547.345 45.4349 Q547.345 38.8725 545.036 35.7533 Q542.727 32.5936 537.907 32.5936 Q532.195 32.5936 528.833 36.4824 Q525.47 40.3308 525.47 46.9338 L525.47 72.576 L517.976 72.576 L517.976 27.2059 L525.47 27.2059 L525.47 34.2544 Q528.022 30.082 531.587 28.0971 Q535.152 26.1121 540.054 26.1121 Q544.996 26.1121 548.439 28.6237 Q551.923 31.1352 553.584 35.9153 Z" fill="#000000" fill-rule="evenodd" fill-opacity="1" /><path clip-path="url(#clip100)" d="M 0 0 M643.028 32.4315 Q637.032 32.4315 633.548 37.1306 Q630.065 41.7891 630.065 49.9314 Q630.065 58.0738 633.508 62.7728 Q636.992 67.4314 643.028 67.4314 Q648.982 67.4314 652.466 62.7323 Q655.95 58.0333 655.95 49.9314 Q655.95 41.8701 652.466 37.1711 Q648.982 32.4315 643.028 32.4315 M643.028 26.1121 Q652.75 26.1121 658.299 32.4315 Q663.849 38.7509 663.849 49.9314 Q663.849 61.0714 658.299 67.4314 Q652.75 73.7508 643.028 73.7508 Q633.265 73.7508 627.715 67.4314 Q622.206 61.0714 622.206 49.9314 Q622.206 38.7509 627.715 32.4315 Q633.265 26.1121 643.028 26.1121 Z" fill="#000000" fill-rule="evenodd" fill-opacity="1" /><path clip-path="url(#clip100)" d="M 0 0 M699.173 9.54393 L699.173 15.7418 L692.043 15.7418 Q688.033 15.7418 686.453 17.3622 Q684.914 18.9825 684.914 23.1955 L684.914 27.2059 L697.188 27.2059 L697.188 32.9987 L684.914 32.9987 L684.914 72.576 L677.42 72.576 L677.42 32.9987 L670.29 32.9987 L670.29 27.2059 L677.42 27.2059 L677.42 24.0462 Q677.42 16.471 680.944 13.0277 Q684.468 9.54393 692.124 9.54393 L699.173 9.54393 Z" fill="#000000" fill-rule="evenodd" fill-opacity="1" /><path clip-path="url(#clip100)" d="M 0 0 M740.29 18.8205 L740.29 41.5461 L750.579 41.5461 Q756.291 41.5461 759.41 38.5889 Q762.529 35.6318 762.529 30.163 Q762.529 24.7348 759.41 21.7777 Q756.291 18.8205 750.579 18.8205 L740.29 18.8205 M732.107 12.096 L750.579 12.096 Q760.747 12.096 765.932 16.714 Q771.158 21.2916 771.158 30.163 Q771.158 39.1155 765.932 43.6931 Q760.747 48.2706 750.579 48.2706 L740.29 48.2706 L740.29 72.576 L732.107 72.576 L732.107 12.096 Z" fill="#000000" fill-rule="evenodd" fill-opacity="1" /><path clip-path="url(#clip100)" d="M 0 0 M819.525 45.1919 L819.525 72.576 L812.072 72.576 L812.072 45.4349 Q812.072 38.994 809.56 35.7938 Q807.049 32.5936 802.026 32.5936 Q795.99 32.5936 792.506 36.4419 Q789.022 40.2903 789.022 46.9338 L789.022 72.576 L781.528 72.576 L781.528 9.54393 L789.022 9.54393 L789.022 34.2544 Q791.696 30.163 795.301 28.1376 Q798.947 26.1121 803.686 26.1121 Q811.505 26.1121 815.515 30.9732 Q819.525 35.7938 819.525 45.1919 Z" fill="#000000" fill-rule="evenodd" fill-opacity="1" /><path clip-path="url(#clip100)" d="M 0 0 M851.973 32.4315 Q845.978 32.4315 842.494 37.1306 Q839.01 41.7891 839.01 49.9314 Q839.01 58.0738 842.454 62.7728 Q845.937 67.4314 851.973 67.4314 Q857.928 67.4314 861.412 62.7323 Q864.896 58.0333 864.896 49.9314 Q864.896 41.8701 861.412 37.1711 Q857.928 32.4315 851.973 32.4315 M851.973 26.1121 Q861.695 26.1121 867.245 32.4315 Q872.795 38.7509 872.795 49.9314 Q872.795 61.0714 867.245 67.4314 Q861.695 73.7508 851.973 73.7508 Q842.21 73.7508 836.661 67.4314 Q831.152 61.0714 831.152 49.9314 Q831.152 38.7509 836.661 32.4315 Q842.21 26.1121 851.973 26.1121 Z" fill="#000000" fill-rule="evenodd" fill-opacity="1" /><path clip-path="url(#clip100)" d="M 0 0 M892.523 14.324 L892.523 27.2059 L907.876 27.2059 L907.876 32.9987 L892.523 32.9987 L892.523 57.6282 Q892.523 63.1779 894.022 64.7578 Q895.561 66.3376 900.219 66.3376 L907.876 66.3376 L907.876 72.576 L900.219 72.576 Q891.591 72.576 888.31 69.3758 Q885.029 66.1351 885.029 57.6282 L885.029 32.9987 L879.56 32.9987 L879.56 27.2059 L885.029 27.2059 L885.029 14.324 L892.523 14.324 Z" fill="#000000" fill-rule="evenodd" fill-opacity="1" /><path clip-path="url(#clip100)" d="M 0 0 M935.26 32.4315 Q929.264 32.4315 925.781 37.1306 Q922.297 41.7891 922.297 49.9314 Q922.297 58.0738 925.74 62.7728 Q929.224 67.4314 935.26 67.4314 Q941.215 67.4314 944.698 62.7323 Q948.182 58.0333 948.182 49.9314 Q948.182 41.8701 944.698 37.1711 Q941.215 32.4315 935.26 32.4315 M935.26 26.1121 Q944.982 26.1121 950.532 32.4315 Q956.081 38.7509 956.081 49.9314 Q956.081 61.0714 950.532 67.4314 Q944.982 73.7508 935.26 73.7508 Q925.497 73.7508 919.947 67.4314 Q914.438 61.0714 914.438 49.9314 Q914.438 38.7509 919.947 32.4315 Q925.497 26.1121 935.26 26.1121 Z" fill="#000000" fill-rule="evenodd" fill-opacity="1" /><path clip-path="url(#clip100)" d="M 0 0 M1006.15 45.1919 L1006.15 72.576 L998.697 72.576 L998.697 45.4349 Q998.697 38.994 996.185 35.7938 Q993.674 32.5936 988.651 32.5936 Q982.615 32.5936 979.131 36.4419 Q975.647 40.2903 975.647 46.9338 L975.647 72.576 L968.153 72.576 L968.153 27.2059 L975.647 27.2059 L975.647 34.2544 Q978.321 30.163 981.926 28.1376 Q985.572 26.1121 990.312 26.1121 Q998.13 26.1121 1002.14 30.9732 Q1006.15 35.7938 1006.15 45.1919 Z" fill="#000000" fill-rule="evenodd" fill-opacity="1" /><path clip-path="url(#clip100)" d="M 0 0 M1093 16.7545 L1093 25.383 Q1088.87 21.5346 1084.17 19.6307 Q1079.51 17.7268 1074.25 17.7268 Q1063.88 17.7268 1058.37 24.0867 Q1052.86 30.4061 1052.86 42.3968 Q1052.86 54.3469 1058.37 60.7069 Q1063.88 67.0263 1074.25 67.0263 Q1079.51 67.0263 1084.17 65.1223 Q1088.87 63.2184 1093 59.3701 L1093 67.9175 Q1088.71 70.8341 1083.89 72.2924 Q1079.11 73.7508 1073.76 73.7508 Q1060.03 73.7508 1052.13 65.3654 Q1044.23 56.9395 1044.23 42.3968 Q1044.23 27.8135 1052.13 19.4281 Q1060.03 11.0023 1073.76 11.0023 Q1079.19 11.0023 1083.97 12.4606 Q1088.79 13.8784 1093 16.7545 Z" fill="#000000" fill-rule="evenodd" fill-opacity="1" /><path clip-path="url(#clip100)" d="M 0 0 M1122.9 32.4315 Q1116.9 32.4315 1113.42 37.1306 Q1109.93 41.7891 1109.93 49.9314 Q1109.93 58.0738 1113.38 62.7728 Q1116.86 67.4314 1122.9 67.4314 Q1128.85 67.4314 1132.34 62.7323 Q1135.82 58.0333 1135.82 49.9314 Q1135.82 41.8701 1132.34 37.1711 Q1128.85 32.4315 1122.9 32.4315 M1122.9 26.1121 Q1132.62 26.1121 1138.17 32.4315 Q1143.72 38.7509 1143.72 49.9314 Q1143.72 61.0714 1138.17 67.4314 Q1132.62 73.7508 1122.9 73.7508 Q1113.13 73.7508 1107.59 67.4314 Q1102.08 61.0714 1102.08 49.9314 Q1102.08 38.7509 1107.59 32.4315 Q1113.13 26.1121 1122.9 26.1121 Z" fill="#000000" fill-rule="evenodd" fill-opacity="1" /><path clip-path="url(#clip100)" d="M 0 0 M1182.36 34.1734 Q1181.11 33.4443 1179.61 33.1202 Q1178.15 32.7556 1176.37 32.7556 Q1170.05 32.7556 1166.65 36.8875 Q1163.29 40.9789 1163.29 48.6757 L1163.29 72.576 L1155.79 72.576 L1155.79 27.2059 L1163.29 27.2059 L1163.29 34.2544 Q1165.63 30.1225 1169.4 28.1376 Q1173.17 26.1121 1178.56 26.1121 Q1179.33 26.1121 1180.26 26.2337 Q1181.19 26.3147 1182.32 26.5172 L1182.36 34.1734 Z" fill="#000000" fill-rule="evenodd" fill-opacity="1" /><path clip-path="url(#clip100)" d="M 0 0 M1215.02 34.1734 Q1213.76 33.4443 1212.26 33.1202 Q1210.8 32.7556 1209.02 32.7556 Q1202.7 32.7556 1199.3 36.8875 Q1195.94 40.9789 1195.94 48.6757 L1195.94 72.576 L1188.44 72.576 L1188.44 27.2059 L1195.94 27.2059 L1195.94 34.2544 Q1198.28 30.1225 1202.05 28.1376 Q1205.82 26.1121 1211.21 26.1121 Q1211.98 26.1121 1212.91 26.2337 Q1213.84 26.3147 1214.97 26.5172 L1215.02 34.1734 Z" fill="#000000" fill-rule="evenodd" fill-opacity="1" /><path clip-path="url(#clip100)" d="M 0 0 M1259.82 48.0275 L1259.82 51.6733 L1225.55 51.6733 Q1226.03 59.3701 1230.17 63.421 Q1234.34 67.4314 1241.75 67.4314 Q1246.05 67.4314 1250.06 66.3781 Q1254.11 65.3249 1258.08 63.2184 L1258.08 70.267 Q1254.07 71.9684 1249.85 72.8596 Q1245.64 73.7508 1241.31 73.7508 Q1230.45 73.7508 1224.09 67.4314 Q1217.77 61.1119 1217.77 50.3365 Q1217.77 39.1965 1223.77 32.6746 Q1229.8 26.1121 1240.01 26.1121 Q1249.16 26.1121 1254.47 32.0264 Q1259.82 37.9003 1259.82 48.0275 M1252.36 45.84 Q1252.28 39.7232 1248.92 36.0774 Q1245.6 32.4315 1240.09 32.4315 Q1233.85 32.4315 1230.08 35.9558 Q1226.36 39.4801 1225.79 45.8805 L1252.36 45.84 Z" fill="#000000" fill-rule="evenodd" fill-opacity="1" /><path clip-path="url(#clip100)" d="M 0 0 M1272.05 9.54393 L1279.51 9.54393 L1279.51 72.576 L1272.05 72.576 L1272.05 9.54393 Z" fill="#000000" fill-rule="evenodd" fill-opacity="1" /><path clip-path="url(#clip100)" d="M 0 0 M1315.72 49.7694 Q1306.69 49.7694 1303.2 51.8354 Q1299.72 53.9013 1299.72 58.8839 Q1299.72 62.8538 1302.31 65.2034 Q1304.95 67.5124 1309.44 67.5124 Q1315.64 67.5124 1319.37 63.1374 Q1323.13 58.7219 1323.13 51.4303 L1323.13 49.7694 L1315.72 49.7694 M1330.59 46.6907 L1330.59 72.576 L1323.13 72.576 L1323.13 65.6895 Q1320.58 69.8214 1316.77 71.8063 Q1312.97 73.7508 1307.46 73.7508 Q1300.49 73.7508 1296.36 69.8619 Q1292.27 65.9325 1292.27 59.3701 Q1292.27 51.7138 1297.37 47.825 Q1302.51 43.9361 1312.68 43.9361 L1323.13 43.9361 L1323.13 43.2069 Q1323.13 38.0623 1319.73 35.2672 Q1316.37 32.4315 1310.25 32.4315 Q1306.36 32.4315 1302.68 33.3632 Q1298.99 34.295 1295.59 36.1584 L1295.59 29.2718 Q1299.68 27.692 1303.53 26.9223 Q1307.38 26.1121 1311.02 26.1121 Q1320.87 26.1121 1325.73 31.2163 Q1330.59 36.3204 1330.59 46.6907 Z" fill="#000000" fill-rule="evenodd" fill-opacity="1" /><path clip-path="url(#clip100)" d="M 0 0 M1353.31 14.324 L1353.31 27.2059 L1368.67 27.2059 L1368.67 32.9987 L1353.31 32.9987 L1353.31 57.6282 Q1353.31 63.1779 1354.81 64.7578 Q1356.35 66.3376 1361.01 66.3376 L1368.67 66.3376 L1368.67 72.576 L1361.01 72.576 Q1352.38 72.576 1349.1 69.3758 Q1345.82 66.1351 1345.82 57.6282 L1345.82 32.9987 L1340.35 32.9987 L1340.35 27.2059 L1345.82 27.2059 L1345.82 14.324 L1353.31 14.324 Z" fill="#000000" fill-rule="evenodd" fill-opacity="1" /><path clip-path="url(#clip100)" d="M 0 0 M1378.47 27.2059 L1385.92 27.2059 L1385.92 72.576 L1378.47 72.576 L1378.47 27.2059 M1378.47 9.54393 L1385.92 9.54393 L1385.92 18.9825 L1378.47 18.9825 L1378.47 9.54393 Z" fill="#000000" fill-rule="evenodd" fill-opacity="1" /><path clip-path="url(#clip100)" d="M 0 0 M1419.1 32.4315 Q1413.1 32.4315 1409.62 37.1306 Q1406.14 41.7891 1406.14 49.9314 Q1406.14 58.0738 1409.58 62.7728 Q1413.06 67.4314 1419.1 67.4314 Q1425.05 67.4314 1428.54 62.7323 Q1432.02 58.0333 1432.02 49.9314 Q1432.02 41.8701 1428.54 37.1711 Q1425.05 32.4315 1419.1 32.4315 M1419.1 26.1121 Q1428.82 26.1121 1434.37 32.4315 Q1439.92 38.7509 1439.92 49.9314 Q1439.92 61.0714 1434.37 67.4314 Q1428.82 73.7508 1419.1 73.7508 Q1409.34 73.7508 1403.79 67.4314 Q1398.28 61.0714 1398.28 49.9314 Q1398.28 38.7509 1403.79 32.4315 Q1409.34 26.1121 1419.1 26.1121 Z" fill="#000000" fill-rule="evenodd" fill-opacity="1" /><path clip-path="url(#clip100)" d="M 0 0 M1489.99 45.1919 L1489.99 72.576 L1482.54 72.576 L1482.54 45.4349 Q1482.54 38.994 1480.03 35.7938 Q1477.51 32.5936 1472.49 32.5936 Q1466.45 32.5936 1462.97 36.4419 Q1459.49 40.2903 1459.49 46.9338 L1459.49 72.576 L1451.99 72.576 L1451.99 27.2059 L1459.49 27.2059 L1459.49 34.2544 Q1462.16 30.163 1465.77 28.1376 Q1469.41 26.1121 1474.15 26.1121 Q1481.97 26.1121 1485.98 30.9732 Q1489.99 35.7938 1489.99 45.1919 Z" fill="#000000" fill-rule="evenodd" fill-opacity="1" /><path clip-path="url(#clip100)" d="M 0 0 M1533.78 28.5427 L1533.78 35.5912 Q1530.62 33.9709 1527.22 33.1607 Q1523.82 32.3505 1520.17 32.3505 Q1514.62 32.3505 1511.82 34.0519 Q1509.07 35.7533 1509.07 39.156 Q1509.07 41.7486 1511.06 43.2475 Q1513.04 44.7058 1519.04 46.0426 L1521.59 46.6097 Q1529.53 48.3111 1532.85 51.4303 Q1536.21 54.509 1536.21 60.0587 Q1536.21 66.3781 1531.19 70.0644 Q1526.21 73.7508 1517.46 73.7508 Q1513.81 73.7508 1509.84 73.0216 Q1505.91 72.3329 1501.54 70.9151 L1501.54 63.2184 Q1505.67 65.3654 1509.68 66.4591 Q1513.69 67.5124 1517.62 67.5124 Q1522.88 67.5124 1525.72 65.73 Q1528.56 63.9071 1528.56 60.6258 Q1528.56 57.5877 1526.49 55.9673 Q1524.46 54.3469 1517.54 52.8481 L1514.94 52.2405 Q1508.02 50.7821 1504.94 47.7845 Q1501.86 44.7463 1501.86 39.4801 Q1501.86 33.0797 1506.4 29.5959 Q1510.93 26.1121 1519.28 26.1121 Q1523.41 26.1121 1527.06 26.7198 Q1530.7 27.3274 1533.78 28.5427 Z" fill="#000000" fill-rule="evenodd" fill-opacity="1" /><path clip-path="url(#clip100)" d="M 0 0 M1569.1 27.2059 L1577 27.2059 L1591.18 65.2844 L1605.36 27.2059 L1613.26 27.2059 L1596.25 72.576 L1586.12 72.576 L1569.1 27.2059 Z" fill="#000000" fill-rule="evenodd" fill-opacity="1" /><path clip-path="url(#clip100)" d="M 0 0 M1652.47 28.5427 L1652.47 35.5912 Q1649.31 33.9709 1645.91 33.1607 Q1642.51 32.3505 1638.86 32.3505 Q1633.31 32.3505 1630.52 34.0519 Q1627.76 35.7533 1627.76 39.156 Q1627.76 41.7486 1629.75 43.2475 Q1631.73 44.7058 1637.73 46.0426 L1640.28 46.6097 Q1648.22 48.3111 1651.54 51.4303 Q1654.9 54.509 1654.9 60.0587 Q1654.9 66.3781 1649.88 70.0644 Q1644.9 73.7508 1636.15 73.7508 Q1632.5 73.7508 1628.53 73.0216 Q1624.6 72.3329 1620.23 70.9151 L1620.23 63.2184 Q1624.36 65.3654 1628.37 66.4591 Q1632.38 67.5124 1636.31 67.5124 Q1641.58 67.5124 1644.41 65.73 Q1647.25 63.9071 1647.25 60.6258 Q1647.25 57.5877 1645.18 55.9673 Q1643.16 54.3469 1636.23 52.8481 L1633.64 52.2405 Q1626.71 50.7821 1623.63 47.7845 Q1620.55 44.7463 1620.55 39.4801 Q1620.55 33.0797 1625.09 29.5959 Q1629.63 26.1121 1637.97 26.1121 Q1642.1 26.1121 1645.75 26.7198 Q1649.39 27.3274 1652.47 28.5427 Z" fill="#000000" fill-rule="evenodd" fill-opacity="1" /><path clip-path="url(#clip100)" d="M 0 0 M1693.47 12.096 L1728.22 12.096 L1728.22 18.9825 L1701.65 18.9825 L1701.65 36.8065 L1725.63 36.8065 L1725.63 43.6931 L1701.65 43.6931 L1701.65 72.576 L1693.47 72.576 L1693.47 12.096 Z" fill="#000000" fill-rule="evenodd" fill-opacity="1" /><path clip-path="url(#clip100)" d="M 0 0 M1761.12 34.1734 Q1759.86 33.4443 1758.36 33.1202 Q1756.9 32.7556 1755.12 32.7556 Q1748.8 32.7556 1745.4 36.8875 Q1742.04 40.9789 1742.04 48.6757 L1742.04 72.576 L1734.54 72.576 L1734.54 27.2059 L1742.04 27.2059 L1742.04 34.2544 Q1744.39 30.1225 1748.15 28.1376 Q1751.92 26.1121 1757.31 26.1121 Q1758.08 26.1121 1759.01 26.2337 Q1759.94 26.3147 1761.08 26.5172 L1761.12 34.1734 Z" fill="#000000" fill-rule="evenodd" fill-opacity="1" /><path clip-path="url(#clip100)" d="M 0 0 M1805.92 48.0275 L1805.92 51.6733 L1771.65 51.6733 Q1772.14 59.3701 1776.27 63.421 Q1780.44 67.4314 1787.85 67.4314 Q1792.15 67.4314 1796.16 66.3781 Q1800.21 65.3249 1804.18 63.2184 L1804.18 70.267 Q1800.17 71.9684 1795.96 72.8596 Q1791.74 73.7508 1787.41 73.7508 Q1776.55 73.7508 1770.19 67.4314 Q1763.87 61.1119 1763.87 50.3365 Q1763.87 39.1965 1769.87 32.6746 Q1775.9 26.1121 1786.11 26.1121 Q1795.27 26.1121 1800.57 32.0264 Q1805.92 37.9003 1805.92 48.0275 M1798.47 45.84 Q1798.39 39.7232 1795.02 36.0774 Q1791.7 32.4315 1786.19 32.4315 Q1779.95 32.4315 1776.19 35.9558 Q1772.46 39.4801 1771.89 45.8805 L1798.47 45.84 Z" fill="#000000" fill-rule="evenodd" fill-opacity="1" /><path clip-path="url(#clip100)" d="M 0 0 M1822.61 49.9314 Q1822.61 58.1548 1825.97 62.8538 Q1829.38 67.5124 1835.29 67.5124 Q1841.2 67.5124 1844.61 62.8538 Q1848.01 58.1548 1848.01 49.9314 Q1848.01 41.7081 1844.61 37.0496 Q1841.2 32.3505 1835.29 32.3505 Q1829.38 32.3505 1825.97 37.0496 Q1822.61 41.7081 1822.61 49.9314 M1848.01 65.7705 Q1845.66 69.8214 1842.05 71.8063 Q1838.49 73.7508 1833.47 73.7508 Q1825.24 73.7508 1820.06 67.1883 Q1814.91 60.6258 1814.91 49.9314 Q1814.91 39.2371 1820.06 32.6746 Q1825.24 26.1121 1833.47 26.1121 Q1838.49 26.1121 1842.05 28.0971 Q1845.66 30.0415 1848.01 34.0924 L1848.01 27.2059 L1855.46 27.2059 L1855.46 89.8329 L1848.01 89.8329 L1848.01 65.7705 Z" fill="#000000" fill-rule="evenodd" fill-opacity="1" /><path clip-path="url(#clip100)" d="M 0 0 M1870.05 54.671 L1870.05 27.2059 L1877.5 27.2059 L1877.5 54.3874 Q1877.5 60.8284 1880.01 64.0691 Q1882.52 67.2693 1887.55 67.2693 Q1893.58 67.2693 1897.07 63.421 Q1900.59 59.5726 1900.59 52.9291 L1900.59 27.2059 L1908.04 27.2059 L1908.04 72.576 L1900.59 72.576 L1900.59 65.6084 Q1897.88 69.7404 1894.27 71.7658 Q1890.71 73.7508 1885.97 73.7508 Q1878.15 73.7508 1874.1 68.8897 Q1870.05 64.0286 1870.05 54.671 M1888.8 26.1121 L1888.8 26.1121 Z" fill="#000000" fill-rule="evenodd" fill-opacity="1" /><path clip-path="url(#clip100)" d="M 0 0 M1962.2 48.0275 L1962.2 51.6733 L1927.93 51.6733 Q1928.42 59.3701 1932.55 63.421 Q1936.72 67.4314 1944.14 67.4314 Q1948.43 67.4314 1952.44 66.3781 Q1956.49 65.3249 1960.46 63.2184 L1960.46 70.267 Q1956.45 71.9684 1952.24 72.8596 Q1948.03 73.7508 1943.69 73.7508 Q1932.84 73.7508 1926.48 67.4314 Q1920.16 61.1119 1920.16 50.3365 Q1920.16 39.1965 1926.15 32.6746 Q1932.19 26.1121 1942.4 26.1121 Q1951.55 26.1121 1956.86 32.0264 Q1962.2 37.9003 1962.2 48.0275 M1954.75 45.84 Q1954.67 39.7232 1951.31 36.0774 Q1947.99 32.4315 1942.48 32.4315 Q1936.24 32.4315 1932.47 35.9558 Q1928.74 39.4801 1928.18 45.8805 L1954.75 45.84 Z" fill="#000000" fill-rule="evenodd" fill-opacity="1" /><path clip-path="url(#clip100)" d="M 0 0 M2012.15 45.1919 L2012.15 72.576 L2004.7 72.576 L2004.7 45.4349 Q2004.7 38.994 2002.19 35.7938 Q1999.68 32.5936 1994.65 32.5936 Q1988.62 32.5936 1985.13 36.4419 Q1981.65 40.2903 1981.65 46.9338 L1981.65 72.576 L1974.15 72.576 L1974.15 27.2059 L1981.65 27.2059 L1981.65 34.2544 Q1984.32 30.163 1987.93 28.1376 Q1991.57 26.1121 1996.31 26.1121 Q2004.13 26.1121 2008.14 30.9732 Q2012.15 35.7938 2012.15 45.1919 Z" fill="#000000" fill-rule="evenodd" fill-opacity="1" /><path clip-path="url(#clip100)" d="M 0 0 M2059.67 28.9478 L2059.67 35.9153 Q2056.51 34.1734 2053.31 33.3227 Q2050.15 32.4315 2046.91 32.4315 Q2039.66 32.4315 2035.65 37.0496 Q2031.64 41.6271 2031.64 49.9314 Q2031.64 58.2358 2035.65 62.8538 Q2039.66 67.4314 2046.91 67.4314 Q2050.15 67.4314 2053.31 66.5807 Q2056.51 65.6895 2059.67 63.9476 L2059.67 70.8341 Q2056.55 72.2924 2053.19 73.0216 Q2049.87 73.7508 2046.1 73.7508 Q2035.85 73.7508 2029.81 67.3098 Q2023.78 60.8689 2023.78 49.9314 Q2023.78 38.832 2029.85 32.472 Q2035.97 26.1121 2046.58 26.1121 Q2050.03 26.1121 2053.31 26.8413 Q2056.59 27.5299 2059.67 28.9478 Z" fill="#000000" fill-rule="evenodd" fill-opacity="1" /><path clip-path="url(#clip100)" d="M 0 0 M2091.51 76.7889 Q2088.35 84.8907 2085.35 87.3618 Q2082.35 89.8329 2077.33 89.8329 L2071.38 89.8329 L2071.38 83.5945 L2075.75 83.5945 Q2078.83 83.5945 2080.53 82.1361 Q2082.23 80.6778 2084.3 75.2496 L2085.64 71.8468 L2067.28 27.2059 L2075.18 27.2059 L2089.36 62.6918 L2103.54 27.2059 L2111.44 27.2059 L2091.51 76.7889 Z" fill="#000000" fill-rule="evenodd" fill-opacity="1" /><polyline clip-path="url(#clip103)" style="stroke:#009af9; stroke-width:4; stroke-opacity:1; fill:none" points="
  321.712,1324.83 325.515,693.26 329.318,734.154 333.121,813.272 336.924,469.858 340.727,614.565 344.53,940.389 348.333,870.405 352.136,623.345 355.939,729.396 
  359.742,706.144 363.545,926.76 367.348,965.407 371.151,791.195 374.954,784.004 378.757,754.768 382.56,793.154 386.363,850.222 390.166,973.488 393.969,1008.62 
  397.772,945.76 401.575,925.647 405.378,730.152 409.181,718.829 412.984,786.403 416.787,865.405 420.59,762.222 424.393,751.747 428.196,609.397 431.999,558.134 
  435.802,158.463 439.605,807.823 443.408,719.101 447.211,652.873 451.014,733.635 454.817,834.887 458.62,813.538 462.423,929.278 466.226,960.22 470.029,933.054 
  473.832,818.485 477.635,691.982 481.438,801.218 485.241,734.341 489.044,624.178 492.847,850.363 496.65,916.182 500.453,707.494 504.256,867.048 508.059,822.987 
  511.862,838.882 515.665,755.488 519.468,835.445 523.271,712.156 527.074,690.32 530.877,908.719 534.68,965.441 538.483,811.123 542.286,896.085 546.089,996.318 
  549.892,946.968 553.695,821.528 557.498,921.722 561.301,905.452 565.104,925.355 568.907,777.888 572.71,757.668 576.513,613.547 580.316,701.98 584.119,648.048 
  587.922,856.073 591.725,790.182 595.528,788.558 599.331,743.175 603.134,813.131 606.937,693.123 610.74,916.358 614.543,777.328 618.346,855.043 622.149,857.861 
  625.952,783.087 629.755,665.342 633.558,700.789 637.361,917.372 641.164,771.112 644.967,644.254 648.77,777.461 652.573,560.019 656.376,759.857 660.179,697.572 
  663.982,976.875 667.785,1003.14 671.588,797.02 675.391,698.177 679.194,273.64 682.997,805.684 686.8,844.093 690.603,839.379 694.406,780.919 698.209,742.208 
  702.012,794.054 705.815,816.965 709.618,877.613 713.421,871.228 717.224,897.697 721.027,862.513 724.83,1007.94 728.633,847.176 732.436,902.458 736.239,935.814 
  740.042,740.3 743.845,910.082 747.648,949.584 751.451,911.378 755.254,953.23 759.057,743.48 762.86,948.607 766.663,754.335 770.466,819.164 774.269,1006.71 
  778.072,992.292 781.875,630.154 785.678,984.497 789.481,1005.53 793.284,855.862 797.087,831.144 800.89,922.801 804.693,899.602 808.496,786.414 812.299,666.954 
  816.102,836.97 819.905,816.375 823.708,850.253 827.511,1030.75 831.314,1027.82 835.117,636.37 838.92,826.579 842.723,929.718 846.526,951.957 850.329,939.866 
  854.132,899.363 857.935,694.623 861.738,992.776 865.541,890.954 869.344,1027.18 873.147,980.423 876.95,913.406 880.753,926.571 884.556,1000.1 888.359,1033.41 
  892.162,1022.63 895.965,1004.67 899.768,999.944 903.571,1015 907.374,971.957 911.177,892.276 914.98,710.738 918.783,879.149 922.586,481.266 926.39,795.194 
  930.193,623.037 933.996,862.936 937.799,938.858 941.602,932.573 945.405,797.759 949.208,917.22 953.011,644.944 956.814,720.096 960.617,985.988 964.42,896.057 
  968.223,866.965 972.026,938.54 975.829,1037.95 979.632,723.508 983.435,813.775 987.238,739.4 991.041,940.249 994.844,998.577 998.647,918.124 1002.45,846.035 
  1006.25,988.101 1010.06,977.069 1013.86,944.625 1017.66,793.035 1021.46,725.432 1025.27,810.704 1029.07,817.895 1032.87,723.381 1036.68,911.028 1040.48,990.971 
  1044.28,925.688 1048.09,1025.6 1051.89,974.952 1055.69,989.501 1059.49,871.527 1063.3,1014.85 1067.1,1009.12 1070.9,1006.83 1074.71,934.033 1078.51,912.358 
  1082.31,1017.17 1086.12,994.152 1089.92,1028.61 1093.72,973.501 1097.52,1050.82 1101.33,1101.03 1105.13,869.066 1108.93,846.858 1112.74,923.642 1116.54,891.851 
  1120.34,1046.09 1124.15,859.319 1127.95,928.638 1131.75,798.394 1135.55,988.632 1139.36,595.743 1143.16,866.131 1146.96,972.143 1150.77,943.384 1154.57,903.824 
  1158.37,957.894 1162.18,862.004 1165.98,852.631 1169.78,690.368 1173.58,939.979 1177.39,1012.72 1181.19,959.433 1184.99,869.298 1188.8,889.059 1192.6,888.684 
  1196.4,940.747 1200.21,915.598 1204.01,1037.95 1207.81,1091.5 1211.61,984.219 1215.42,1016.65 1219.22,1024.81 1223.02,1032 1226.83,763.172 1230.63,770.277 
  1234.43,678.812 1238.24,902.273 1242.04,936.684 1245.84,1029.19 1249.64,969.401 1253.45,1099 1257.25,726.984 1261.05,807.482 1264.86,1002.31 1268.66,1085.67 
  1272.46,1047.16 1276.27,971.586 1280.07,924.352 1283.87,1074.25 1287.67,1089.7 1291.48,894.073 1295.28,1050.93 1299.08,1087.48 1302.89,1047.44 1306.69,979.45 
  1310.49,868.61 1314.3,882.88 1318.1,860.84 1321.9,914.444 1325.7,1060.15 1329.51,1102.66 1333.31,1067.27 1337.11,1000 1340.92,1126.39 1344.72,1014.33 
  1348.52,1023.91 1352.33,973.96 1356.13,779.559 1359.93,1071.06 1363.73,964.781 1367.54,921.315 1371.34,819.803 1375.14,992.155 1378.95,807.225 1382.75,991.613 
  1386.55,1070.75 1390.36,1062.73 1394.16,1101.4 1397.96,994.132 1401.76,1018.8 1405.57,1047.98 1409.37,1158.71 1413.17,1140.05 1416.98,1142.48 1420.78,994.972 
  1424.58,1005.99 1428.39,995.643 1432.19,1088.08 1435.99,1027.13 1439.79,946.562 1443.6,986.998 1447.4,989.396 1451.2,1046.75 1455.01,994.822 1458.81,1001.39 
  1462.61,957.612 1466.42,1046.29 1470.22,944.423 1474.02,1118.47 1477.82,888.135 1481.63,742.031 1485.43,1049.38 1489.23,1061.53 1493.04,1082.45 1496.84,1019.28 
  1500.64,1019.11 1504.45,1068.11 1508.25,1107.11 1512.05,1050.88 1515.85,862.33 1519.66,1072.35 1523.46,1015.09 1527.26,1041.1 1531.07,1056.26 1534.87,1054.92 
  1538.67,970.308 1542.48,869.342 1546.28,1057.47 1550.08,1150.53 1553.88,1178.04 1557.69,1133.79 1561.49,1054.22 1565.29,978.128 1569.1,1056.47 1572.9,1007.9 
  1576.7,954.069 1580.51,988.991 1584.31,1065.43 1588.11,1092.27 1591.91,1017.29 1595.72,1179.56 1599.52,1072.69 1603.32,1156.48 1607.13,995.336 1610.93,960.423 
  1614.73,1001.1 1618.54,1037.83 1622.34,1127.17 1626.14,1046.13 1629.95,1031.77 1633.75,983.372 1637.55,1089.46 1641.35,1086.85 1645.16,1092.81 1648.96,1123.35 
  1652.76,1076.72 1656.57,1064.08 1660.37,1064.33 1664.17,1098.93 1667.98,1040.05 1671.78,1132.47 1675.58,1168.71 1679.38,1160.14 1683.19,1004.69 1686.99,1116.97 
  1690.79,1111.95 1694.6,1160.88 1698.4,946.983 1702.2,1060.62 1706.01,1136.62 1709.81,1073.88 1713.61,1130.59 1717.41,1166.9 1721.22,1169.96 1725.02,1113.45 
  1728.82,1136.89 1732.63,1180.69 1736.43,1063.99 1740.23,1051.6 1744.04,1127.2 1747.84,1065.68 1751.64,1054.06 1755.44,1039.68 1759.25,1075.96 1763.05,1178.7 
  1766.85,1153.94 1770.66,1182.96 1774.46,1140.82 1778.26,1077.75 1782.07,1091.47 1785.87,1120.83 1789.67,1082.52 1793.47,1138.15 1797.28,1067.81 1801.08,1187.2 
  1804.88,1135.65 1808.69,1123.08 1812.49,1179.64 1816.29,1142.83 1820.1,1131.73 1823.9,1166.66 1827.7,1152.03 1831.5,1055.71 1835.31,1105.5 1839.11,1116.69 
  1842.91,1138.22 1846.72,1091.96 1850.52,1117.51 1854.32,1123.62 1858.13,1152.76 1861.93,1055.92 1865.73,1129.55 1869.53,1098.4 1873.34,1103.81 1877.14,1129.31 
  1880.94,1096.89 1884.75,1159 1888.55,1054.32 1892.35,937.554 1896.16,1079.57 1899.96,1106.43 1903.76,1155.63 1907.56,1200.64 1911.37,1169.28 1915.17,1089.68 
  1918.97,1188.25 1922.78,1003.58 1926.58,1135.58 1930.38,1146.9 1934.19,1151.87 1937.99,1114.7 1941.79,1204.4 1945.59,1104.01 1949.4,1147.94 1953.2,1085.16 
  1957,1138.39 1960.81,1112.3 1964.61,1140.23 1968.41,1128.68 1972.22,1140.52 1976.02,1167.34 1979.82,1145.69 1983.62,1155.77 1987.43,1147.78 1991.23,1082.11 
  1995.03,1201.62 1998.84,1154.62 2002.64,1084.91 2006.44,1075.94 2010.25,1132.11 2014.05,1122.55 2017.85,1145.46 2021.65,1122.91 2025.46,1121.8 2029.26,1156.35 
  2033.06,1173.82 2036.87,1175.9 2040.67,961.896 2044.47,1082.4 2048.28,1051.32 2052.08,1164.75 2055.88,1129.48 2059.68,1133.97 2063.49,1111.16 2067.29,1153.56 
  2071.09,1104.45 2074.9,1001.77 2078.7,1133.58 2082.5,1194.78 2086.31,1184.29 2090.11,1195.73 2093.91,1105.54 2097.71,1160.43 2101.52,1064.32 2105.32,993.072 
  2109.12,1087.26 2112.93,1183.12 2116.73,1099.77 2120.53,1182.15 2124.34,1097.89 2128.14,1021.39 2131.94,1082.78 2135.74,1003.39 2139.55,1134.49 2143.35,1188.52 
  2147.15,1070.56 2150.96,1101.64 2154.76,1107.56 2158.56,1036.75 2162.37,950.2 2166.17,1053.39 2169.97,1104.16 2173.77,975.751 2177.58,1059.21 2181.38,1172.98 
  2185.18,1085.21 2188.99,1198.59 2192.79,1157.65 2196.59,1128.21 2200.4,1161.52 
  "/>
<polyline clip-path="url(#clip103)" style="stroke:#e26f46; stroke-width:4; stroke-opacity:1; fill:none" stroke-dasharray="16, 10" points="
  434.547,2596.17 434.547,-1112.88 
  "/>
<path clip-path="url(#clip100)" d="
M1616.12 285.644 L2190.38 285.644 L2190.38 164.684 L1616.12 164.684  Z
  " fill="#ffffff" fill-rule="evenodd" fill-opacity="1"/>
<polyline clip-path="url(#clip100)" style="stroke:#000000; stroke-width:4; stroke-opacity:1; fill:none" points="
  1616.12,285.644 2190.38,285.644 2190.38,164.684 1616.12,164.684 1616.12,285.644 
  "/>
<polyline clip-path="url(#clip100)" style="stroke:#e26f46; stroke-width:4; stroke-opacity:1; fill:none" stroke-dasharray="16, 10" points="
  1638.25,225.164 1771.01,225.164 
  "/>
<path clip-path="url(#clip100)" d="M 0 0 M1809.64 206.425 L1809.64 209.967 L1805.57 209.967 Q1803.28 209.967 1802.37 210.893 Q1801.49 211.819 1801.49 214.226 L1801.49 216.518 L1808.51 216.518 L1808.51 219.828 L1801.49 219.828 L1801.49 242.444 L1797.21 242.444 L1797.21 219.828 L1793.14 219.828 L1793.14 216.518 L1797.21 216.518 L1797.21 214.712 Q1797.21 210.384 1799.23 208.416 Q1801.24 206.425 1805.61 206.425 L1809.64 206.425 Z" fill="#000000" fill-rule="evenodd" fill-opacity="1" /><path clip-path="url(#clip100)" d="M 0 0 M1828.23 220.499 Q1827.51 220.083 1826.66 219.898 Q1825.82 219.689 1824.8 219.689 Q1821.19 219.689 1819.25 222.05 Q1817.33 224.388 1817.33 228.786 L1817.33 242.444 L1813.05 242.444 L1813.05 216.518 L1817.33 216.518 L1817.33 220.546 Q1818.67 218.185 1820.82 217.05 Q1822.98 215.893 1826.05 215.893 Q1826.49 215.893 1827.03 215.962 Q1827.56 216.009 1828.21 216.124 L1828.23 220.499 Z" fill="#000000" fill-rule="evenodd" fill-opacity="1" /><path clip-path="url(#clip100)" d="M 0 0 M1853.83 228.416 L1853.83 230.499 L1834.25 230.499 Q1834.53 234.897 1836.89 237.212 Q1839.27 239.504 1843.51 239.504 Q1845.96 239.504 1848.25 238.902 Q1850.57 238.3 1852.84 237.097 L1852.84 241.124 Q1850.55 242.096 1848.14 242.606 Q1845.73 243.115 1843.25 243.115 Q1837.05 243.115 1833.42 239.504 Q1829.8 235.893 1829.8 229.735 Q1829.8 223.37 1833.23 219.643 Q1836.68 215.893 1842.51 215.893 Q1847.74 215.893 1850.78 219.273 Q1853.83 222.629 1853.83 228.416 M1849.57 227.166 Q1849.53 223.671 1847.61 221.587 Q1845.71 219.504 1842.56 219.504 Q1838.99 219.504 1836.84 221.518 Q1834.71 223.532 1834.39 227.189 L1849.57 227.166 Z" fill="#000000" fill-rule="evenodd" fill-opacity="1" /><path clip-path="url(#clip100)" d="M 0 0 M1863.37 229.504 Q1863.37 234.203 1865.29 236.888 Q1867.23 239.55 1870.61 239.55 Q1873.99 239.55 1875.94 236.888 Q1877.88 234.203 1877.88 229.504 Q1877.88 224.805 1875.94 222.143 Q1873.99 219.458 1870.61 219.458 Q1867.23 219.458 1865.29 222.143 Q1863.37 224.805 1863.37 229.504 M1877.88 238.555 Q1876.54 240.87 1874.48 242.004 Q1872.44 243.115 1869.57 243.115 Q1864.87 243.115 1861.91 239.365 Q1858.97 235.615 1858.97 229.504 Q1858.97 223.393 1861.91 219.643 Q1864.87 215.893 1869.57 215.893 Q1872.44 215.893 1874.48 217.027 Q1876.54 218.138 1877.88 220.453 L1877.88 216.518 L1882.14 216.518 L1882.14 252.305 L1877.88 252.305 L1877.88 238.555 Z" fill="#000000" fill-rule="evenodd" fill-opacity="1" /><path clip-path="url(#clip100)" d="M 0 0 M1890.48 232.212 L1890.48 216.518 L1894.73 216.518 L1894.73 232.05 Q1894.73 235.731 1896.17 237.583 Q1897.61 239.411 1900.48 239.411 Q1903.92 239.411 1905.92 237.212 Q1907.93 235.013 1907.93 231.217 L1907.93 216.518 L1912.19 216.518 L1912.19 242.444 L1907.93 242.444 L1907.93 238.462 Q1906.38 240.823 1904.32 241.981 Q1902.28 243.115 1899.57 243.115 Q1895.11 243.115 1892.79 240.337 Q1890.48 237.559 1890.48 232.212 M1901.19 215.893 L1901.19 215.893 Z" fill="#000000" fill-rule="evenodd" fill-opacity="1" /><path clip-path="url(#clip100)" d="M 0 0 M1943.14 228.416 L1943.14 230.499 L1923.55 230.499 Q1923.83 234.897 1926.19 237.212 Q1928.58 239.504 1932.81 239.504 Q1935.27 239.504 1937.56 238.902 Q1939.87 238.3 1942.14 237.097 L1942.14 241.124 Q1939.85 242.096 1937.44 242.606 Q1935.04 243.115 1932.56 243.115 Q1926.35 243.115 1922.72 239.504 Q1919.11 235.893 1919.11 229.735 Q1919.11 223.37 1922.54 219.643 Q1925.98 215.893 1931.82 215.893 Q1937.05 215.893 1940.08 219.273 Q1943.14 222.629 1943.14 228.416 M1938.88 227.166 Q1938.83 223.671 1936.91 221.587 Q1935.01 219.504 1931.86 219.504 Q1928.3 219.504 1926.15 221.518 Q1924.02 223.532 1923.69 227.189 L1938.88 227.166 Z" fill="#000000" fill-rule="evenodd" fill-opacity="1" /><path clip-path="url(#clip100)" d="M 0 0 M1971.68 226.796 L1971.68 242.444 L1967.42 242.444 L1967.42 226.935 Q1967.42 223.254 1965.98 221.425 Q1964.55 219.597 1961.68 219.597 Q1958.23 219.597 1956.24 221.796 Q1954.25 223.995 1954.25 227.791 L1954.25 242.444 L1949.97 242.444 L1949.97 216.518 L1954.25 216.518 L1954.25 220.546 Q1955.78 218.208 1957.84 217.05 Q1959.92 215.893 1962.63 215.893 Q1967.1 215.893 1969.39 218.671 Q1971.68 221.425 1971.68 226.796 Z" fill="#000000" fill-rule="evenodd" fill-opacity="1" /><path clip-path="url(#clip100)" d="M 0 0 M1998.83 217.513 L1998.83 221.495 Q1997.03 220.499 1995.2 220.013 Q1993.39 219.504 1991.54 219.504 Q1987.4 219.504 1985.1 222.143 Q1982.81 224.759 1982.81 229.504 Q1982.81 234.249 1985.1 236.888 Q1987.4 239.504 1991.54 239.504 Q1993.39 239.504 1995.2 239.018 Q1997.03 238.509 1998.83 237.513 L1998.83 241.448 Q1997.05 242.282 1995.13 242.698 Q1993.23 243.115 1991.08 243.115 Q1985.22 243.115 1981.77 239.434 Q1978.32 235.754 1978.32 229.504 Q1978.32 223.161 1981.79 219.527 Q1985.29 215.893 1991.35 215.893 Q1993.32 215.893 1995.2 216.31 Q1997.07 216.703 1998.83 217.513 Z" fill="#000000" fill-rule="evenodd" fill-opacity="1" /><path clip-path="url(#clip100)" d="M 0 0 M2017.03 244.851 Q2015.22 249.481 2013.51 250.893 Q2011.79 252.305 2008.92 252.305 L2005.52 252.305 L2005.52 248.74 L2008.02 248.74 Q2009.78 248.74 2010.75 247.907 Q2011.72 247.073 2012.91 243.971 L2013.67 242.027 L2003.18 216.518 L2007.7 216.518 L2015.8 236.796 L2023.9 216.518 L2028.41 216.518 L2017.03 244.851 Z" fill="#000000" fill-rule="evenodd" fill-opacity="1" /><path clip-path="url(#clip100)" d="M 0 0 M2065.89 217.282 L2065.89 221.31 Q2064.09 220.384 2062.14 219.921 Q2060.2 219.458 2058.11 219.458 Q2054.94 219.458 2053.35 220.43 Q2051.77 221.402 2051.77 223.347 Q2051.77 224.828 2052.91 225.685 Q2054.04 226.518 2057.47 227.282 L2058.92 227.606 Q2063.46 228.578 2065.36 230.36 Q2067.28 232.12 2067.28 235.291 Q2067.28 238.902 2064.41 241.009 Q2061.56 243.115 2056.56 243.115 Q2054.48 243.115 2052.21 242.698 Q2049.97 242.305 2047.47 241.495 L2047.47 237.097 Q2049.83 238.323 2052.12 238.948 Q2054.41 239.55 2056.66 239.55 Q2059.66 239.55 2061.28 238.532 Q2062.91 237.49 2062.91 235.615 Q2062.91 233.879 2061.72 232.953 Q2060.57 232.027 2056.61 231.171 L2055.13 230.823 Q2051.17 229.99 2049.41 228.277 Q2047.65 226.541 2047.65 223.532 Q2047.65 219.874 2050.24 217.884 Q2052.84 215.893 2057.6 215.893 Q2059.97 215.893 2062.05 216.24 Q2064.13 216.587 2065.89 217.282 Z" fill="#000000" fill-rule="evenodd" fill-opacity="1" /><path clip-path="url(#clip100)" d="M 0 0 M2095.61 226.796 L2095.61 242.444 L2091.35 242.444 L2091.35 226.935 Q2091.35 223.254 2089.92 221.425 Q2088.48 219.597 2085.61 219.597 Q2082.16 219.597 2080.17 221.796 Q2078.18 223.995 2078.18 227.791 L2078.18 242.444 L2073.9 242.444 L2073.9 206.425 L2078.18 206.425 L2078.18 220.546 Q2079.71 218.208 2081.77 217.05 Q2083.85 215.893 2086.56 215.893 Q2091.03 215.893 2093.32 218.671 Q2095.61 221.425 2095.61 226.796 Z" fill="#000000" fill-rule="evenodd" fill-opacity="1" /><path clip-path="url(#clip100)" d="M 0 0 M2104.11 216.518 L2108.37 216.518 L2108.37 242.444 L2104.11 242.444 L2104.11 216.518 M2104.11 206.425 L2108.37 206.425 L2108.37 211.819 L2104.11 211.819 L2104.11 206.425 Z" fill="#000000" fill-rule="evenodd" fill-opacity="1" /><path clip-path="url(#clip100)" d="M 0 0 M2130.4 206.425 L2130.4 209.967 L2126.33 209.967 Q2124.04 209.967 2123.14 210.893 Q2122.26 211.819 2122.26 214.226 L2122.26 216.518 L2129.27 216.518 L2129.27 219.828 L2122.26 219.828 L2122.26 242.444 L2117.97 242.444 L2117.97 219.828 L2113.9 219.828 L2113.9 216.518 L2117.97 216.518 L2117.97 214.712 Q2117.97 210.384 2119.99 208.416 Q2122 206.425 2126.38 206.425 L2130.4 206.425 Z" fill="#000000" fill-rule="evenodd" fill-opacity="1" /><path clip-path="url(#clip100)" d="M 0 0 M2137.35 209.157 L2137.35 216.518 L2146.12 216.518 L2146.12 219.828 L2137.35 219.828 L2137.35 233.902 Q2137.35 237.073 2138.21 237.976 Q2139.09 238.879 2141.75 238.879 L2146.12 238.879 L2146.12 242.444 L2141.75 242.444 Q2136.82 242.444 2134.94 240.615 Q2133.07 238.763 2133.07 233.902 L2133.07 219.828 L2129.94 219.828 L2129.94 216.518 L2133.07 216.518 L2133.07 209.157 L2137.35 209.157 Z" fill="#000000" fill-rule="evenodd" fill-opacity="1" /></svg>
