<?xml version="1.0" encoding="utf-8"?>
<svg xmlns="http://www.w3.org/2000/svg" xmlns:xlink="http://www.w3.org/1999/xlink" width="576" height="384" viewBox="0 0 2304 1536">
<defs>
  <clipPath id="clip980">
    <rect x="0" y="0" width="2304" height="1536"/>
  </clipPath>
</defs>
<path clip-path="url(#clip980)" d="
M0 1536 L2304 1536 L2304 0 L0 0  Z
  " fill="#ffffff" fill-rule="evenodd" fill-opacity="1"/>
<defs>
  <clipPath id="clip981">
    <rect x="460" y="0" width="1614" height="1536"/>
  </clipPath>
</defs>
<path clip-path="url(#clip980)" d="
M369.901 1359.82 L2256.76 1359.82 L2256.76 123.472 L369.901 123.472  Z
  " fill="#ffffff" fill-rule="evenodd" fill-opacity="1"/>
<defs>
  <clipPath id="clip982">
    <rect x="369" y="123" width="1888" height="1237"/>
  </clipPath>
</defs>
<polyline clip-path="url(#clip982)" style="stroke:#000000; stroke-width:2; stroke-opacity:0.1; fill:none" points="
  423.302,1359.82 423.302,123.472 
  "/>
<polyline clip-path="url(#clip982)" style="stroke:#000000; stroke-width:2; stroke-opacity:0.1; fill:none" points="
  868.315,1359.82 868.315,123.472 
  "/>
<polyline clip-path="url(#clip982)" style="stroke:#000000; stroke-width:2; stroke-opacity:0.1; fill:none" points="
  1313.33,1359.82 1313.33,123.472 
  "/>
<polyline clip-path="url(#clip982)" style="stroke:#000000; stroke-width:2; stroke-opacity:0.1; fill:none" points="
  1758.34,1359.82 1758.34,123.472 
  "/>
<polyline clip-path="url(#clip982)" style="stroke:#000000; stroke-width:2; stroke-opacity:0.1; fill:none" points="
  2203.35,1359.82 2203.35,123.472 
  "/>
<polyline clip-path="url(#clip980)" style="stroke:#000000; stroke-width:4; stroke-opacity:1; fill:none" points="
  369.901,1359.82 2256.76,1359.82 
  "/>
<polyline clip-path="url(#clip980)" style="stroke:#000000; stroke-width:4; stroke-opacity:1; fill:none" points="
  423.302,1359.82 423.302,1344.98 
  "/>
<polyline clip-path="url(#clip980)" style="stroke:#000000; stroke-width:4; stroke-opacity:1; fill:none" points="
  868.315,1359.82 868.315,1344.98 
  "/>
<polyline clip-path="url(#clip980)" style="stroke:#000000; stroke-width:4; stroke-opacity:1; fill:none" points="
  1313.33,1359.82 1313.33,1344.98 
  "/>
<polyline clip-path="url(#clip980)" style="stroke:#000000; stroke-width:4; stroke-opacity:1; fill:none" points="
  1758.34,1359.82 1758.34,1344.98 
  "/>
<polyline clip-path="url(#clip980)" style="stroke:#000000; stroke-width:4; stroke-opacity:1; fill:none" points="
  2203.35,1359.82 2203.35,1344.98 
  "/>
<path clip-path="url(#clip980)" d="M 0 0 M423.302 1388.24 Q419.691 1388.24 417.863 1391.81 Q416.057 1395.35 416.057 1402.48 Q416.057 1409.59 417.863 1413.15 Q419.691 1416.69 423.302 1416.69 Q426.937 1416.69 428.742 1413.15 Q430.571 1409.59 430.571 1402.48 Q430.571 1395.35 428.742 1391.81 Q426.937 1388.24 423.302 1388.24 M423.302 1384.54 Q429.113 1384.54 432.168 1389.15 Q435.247 1393.73 435.247 1402.48 Q435.247 1411.21 432.168 1415.81 Q429.113 1420.4 423.302 1420.4 Q417.492 1420.4 414.414 1415.81 Q411.358 1411.21 411.358 1402.48 Q411.358 1393.73 414.414 1389.15 Q417.492 1384.54 423.302 1384.54 Z" fill="#000000" fill-rule="evenodd" fill-opacity="1" /><path clip-path="url(#clip980)" d="M 0 0 M858.593 1385.16 L876.95 1385.16 L876.95 1389.1 L862.876 1389.1 L862.876 1397.57 Q863.894 1397.22 864.913 1397.06 Q865.931 1396.88 866.95 1396.88 Q872.737 1396.88 876.116 1400.05 Q879.496 1403.22 879.496 1408.64 Q879.496 1414.21 876.024 1417.32 Q872.551 1420.4 866.232 1420.4 Q864.056 1420.4 861.788 1420.02 Q859.542 1419.65 857.135 1418.91 L857.135 1414.21 Q859.218 1415.35 861.44 1415.9 Q863.663 1416.46 866.139 1416.46 Q870.144 1416.46 872.482 1414.35 Q874.82 1412.25 874.82 1408.64 Q874.82 1405.02 872.482 1402.92 Q870.144 1400.81 866.139 1400.81 Q864.264 1400.81 862.389 1401.23 Q860.538 1401.65 858.593 1402.52 L858.593 1385.16 Z" fill="#000000" fill-rule="evenodd" fill-opacity="1" /><path clip-path="url(#clip980)" d="M 0 0 M1288.02 1415.79 L1295.65 1415.79 L1295.65 1389.42 L1287.34 1391.09 L1287.34 1386.83 L1295.61 1385.16 L1300.28 1385.16 L1300.28 1415.79 L1307.92 1415.79 L1307.92 1419.72 L1288.02 1419.72 L1288.02 1415.79 Z" fill="#000000" fill-rule="evenodd" fill-opacity="1" /><path clip-path="url(#clip980)" d="M 0 0 M1327.37 1388.24 Q1323.76 1388.24 1321.93 1391.81 Q1320.12 1395.35 1320.12 1402.48 Q1320.12 1409.59 1321.93 1413.15 Q1323.76 1416.69 1327.37 1416.69 Q1331 1416.69 1332.81 1413.15 Q1334.64 1409.59 1334.64 1402.48 Q1334.64 1395.35 1332.81 1391.81 Q1331 1388.24 1327.37 1388.24 M1327.37 1384.54 Q1333.18 1384.54 1336.23 1389.15 Q1339.31 1393.73 1339.31 1402.48 Q1339.31 1411.21 1336.23 1415.81 Q1333.18 1420.4 1327.37 1420.4 Q1321.56 1420.4 1318.48 1415.81 Q1315.42 1411.21 1315.42 1402.48 Q1315.42 1393.73 1318.48 1389.15 Q1321.56 1384.54 1327.37 1384.54 Z" fill="#000000" fill-rule="evenodd" fill-opacity="1" /><path clip-path="url(#clip980)" d="M 0 0 M1733.53 1415.79 L1741.17 1415.79 L1741.17 1389.42 L1732.86 1391.09 L1732.86 1386.83 L1741.12 1385.16 L1745.8 1385.16 L1745.8 1415.79 L1753.43 1415.79 L1753.43 1419.72 L1733.53 1419.72 L1733.53 1415.79 Z" fill="#000000" fill-rule="evenodd" fill-opacity="1" /><path clip-path="url(#clip980)" d="M 0 0 M1762.92 1385.16 L1781.28 1385.16 L1781.28 1389.1 L1767.21 1389.1 L1767.21 1397.57 Q1768.23 1397.22 1769.24 1397.06 Q1770.26 1396.88 1771.28 1396.88 Q1777.07 1396.88 1780.45 1400.05 Q1783.83 1403.22 1783.83 1408.64 Q1783.83 1414.21 1780.36 1417.32 Q1776.88 1420.4 1770.56 1420.4 Q1768.39 1420.4 1766.12 1420.02 Q1763.87 1419.65 1761.47 1418.91 L1761.47 1414.21 Q1763.55 1415.35 1765.77 1415.9 Q1767.99 1416.46 1770.47 1416.46 Q1774.48 1416.46 1776.81 1414.35 Q1779.15 1412.25 1779.15 1408.64 Q1779.15 1405.02 1776.81 1402.92 Q1774.48 1400.81 1770.47 1400.81 Q1768.6 1400.81 1766.72 1401.23 Q1764.87 1401.65 1762.92 1402.52 L1762.92 1385.16 Z" fill="#000000" fill-rule="evenodd" fill-opacity="1" /><path clip-path="url(#clip980)" d="M 0 0 M2182.13 1415.79 L2198.45 1415.79 L2198.45 1419.72 L2176.5 1419.72 L2176.5 1415.79 Q2179.16 1413.03 2183.75 1408.4 Q2188.35 1403.75 2189.53 1402.41 Q2191.78 1399.89 2192.66 1398.15 Q2193.56 1396.39 2193.56 1394.7 Q2193.56 1391.95 2191.62 1390.21 Q2189.7 1388.47 2186.6 1388.47 Q2184.4 1388.47 2181.94 1389.24 Q2179.51 1390 2176.73 1391.55 L2176.73 1386.83 Q2179.56 1385.7 2182.01 1385.12 Q2184.47 1384.54 2186.5 1384.54 Q2191.87 1384.54 2195.07 1387.22 Q2198.26 1389.91 2198.26 1394.4 Q2198.26 1396.53 2197.45 1398.45 Q2196.66 1400.35 2194.56 1402.94 Q2193.98 1403.61 2190.88 1406.83 Q2187.78 1410.02 2182.13 1415.79 Z" fill="#000000" fill-rule="evenodd" fill-opacity="1" /><path clip-path="url(#clip980)" d="M 0 0 M2218.26 1388.24 Q2214.65 1388.24 2212.82 1391.81 Q2211.02 1395.35 2211.02 1402.48 Q2211.02 1409.59 2212.82 1413.15 Q2214.65 1416.69 2218.26 1416.69 Q2221.9 1416.69 2223.7 1413.15 Q2225.53 1409.59 2225.53 1402.48 Q2225.53 1395.35 2223.7 1391.81 Q2221.9 1388.24 2218.26 1388.24 M2218.26 1384.54 Q2224.07 1384.54 2227.13 1389.15 Q2230.21 1393.73 2230.21 1402.48 Q2230.21 1411.21 2227.13 1415.81 Q2224.07 1420.4 2218.26 1420.4 Q2212.45 1420.4 2209.37 1415.81 Q2206.32 1411.21 2206.32 1402.48 Q2206.32 1393.73 2209.37 1389.15 Q2212.45 1384.54 2218.26 1384.54 Z" fill="#000000" fill-rule="evenodd" fill-opacity="1" /><path clip-path="url(#clip980)" d="M 0 0 M1180.13 1457.47 L1180.13 1467.6 L1192.19 1467.6 L1192.19 1472.15 L1180.13 1472.15 L1180.13 1491.5 Q1180.13 1495.86 1181.3 1497.1 Q1182.51 1498.34 1186.17 1498.34 L1192.19 1498.34 L1192.19 1503.24 L1186.17 1503.24 Q1179.39 1503.24 1176.82 1500.73 Q1174.24 1498.18 1174.24 1491.5 L1174.24 1472.15 L1169.94 1472.15 L1169.94 1467.6 L1174.24 1467.6 L1174.24 1457.47 L1180.13 1457.47 Z" fill="#000000" fill-rule="evenodd" fill-opacity="1" /><path clip-path="url(#clip980)" d="M 0 0 M1199.89 1467.6 L1205.75 1467.6 L1205.75 1503.24 L1199.89 1503.24 L1199.89 1467.6 M1199.89 1453.72 L1205.75 1453.72 L1205.75 1461.13 L1199.89 1461.13 L1199.89 1453.72 Z" fill="#000000" fill-rule="evenodd" fill-opacity="1" /><path clip-path="url(#clip980)" d="M 0 0 M1245.76 1474.44 Q1247.95 1470.49 1251.01 1468.61 Q1254.06 1466.74 1258.2 1466.74 Q1263.77 1466.74 1266.8 1470.65 Q1269.82 1474.53 1269.82 1481.73 L1269.82 1503.24 L1263.93 1503.24 L1263.93 1481.92 Q1263.93 1476.79 1262.12 1474.31 Q1260.3 1471.83 1256.58 1471.83 Q1252.03 1471.83 1249.38 1474.85 Q1246.74 1477.88 1246.74 1483.1 L1246.74 1503.24 L1240.85 1503.24 L1240.85 1481.92 Q1240.85 1476.76 1239.04 1474.31 Q1237.23 1471.83 1233.44 1471.83 Q1228.95 1471.83 1226.31 1474.88 Q1223.67 1477.91 1223.67 1483.1 L1223.67 1503.24 L1217.78 1503.24 L1217.78 1467.6 L1223.67 1467.6 L1223.67 1473.13 Q1225.67 1469.86 1228.47 1468.3 Q1231.27 1466.74 1235.13 1466.74 Q1239.01 1466.74 1241.71 1468.71 Q1244.45 1470.68 1245.76 1474.44 Z" fill="#000000" fill-rule="evenodd" fill-opacity="1" /><path clip-path="url(#clip980)" d="M 0 0 M1311.99 1483.96 L1311.99 1486.82 L1285.06 1486.82 Q1285.45 1492.87 1288.69 1496.05 Q1291.97 1499.2 1297.8 1499.2 Q1301.17 1499.2 1304.32 1498.37 Q1307.5 1497.55 1310.62 1495.89 L1310.62 1501.43 Q1307.47 1502.77 1304.16 1503.47 Q1300.85 1504.17 1297.45 1504.17 Q1288.92 1504.17 1283.92 1499.2 Q1278.95 1494.24 1278.95 1485.77 Q1278.95 1477.02 1283.66 1471.89 Q1288.41 1466.74 1296.43 1466.74 Q1303.62 1466.74 1307.79 1471.38 Q1311.99 1476 1311.99 1483.96 M1306.14 1482.24 Q1306.07 1477.43 1303.43 1474.57 Q1300.82 1471.7 1296.49 1471.7 Q1291.59 1471.7 1288.63 1474.47 Q1285.7 1477.24 1285.26 1482.27 L1306.14 1482.24 Z" fill="#000000" fill-rule="evenodd" fill-opacity="1" /><path clip-path="url(#clip980)" d="M 0 0 M1356.39 1453.78 Q1352.13 1461.1 1350.06 1468.26 Q1347.99 1475.43 1347.99 1482.78 Q1347.99 1490.13 1350.06 1497.36 Q1352.16 1504.55 1356.39 1511.84 L1351.3 1511.84 Q1346.53 1504.36 1344.14 1497.13 Q1341.78 1489.91 1341.78 1482.78 Q1341.78 1475.68 1344.14 1468.49 Q1346.49 1461.29 1351.3 1453.78 L1356.39 1453.78 Z" fill="#000000" fill-rule="evenodd" fill-opacity="1" /><path clip-path="url(#clip980)" d="M 0 0 M1397.39 1481.73 L1397.39 1503.24 L1391.53 1503.24 L1391.53 1481.92 Q1391.53 1476.86 1389.56 1474.34 Q1387.58 1471.83 1383.64 1471.83 Q1378.9 1471.83 1376.16 1474.85 Q1373.42 1477.88 1373.42 1483.1 L1373.42 1503.24 L1367.53 1503.24 L1367.53 1467.6 L1373.42 1467.6 L1373.42 1473.13 Q1375.52 1469.92 1378.35 1468.33 Q1381.22 1466.74 1384.94 1466.74 Q1391.09 1466.74 1394.24 1470.56 Q1397.39 1474.34 1397.39 1481.73 Z" fill="#000000" fill-rule="evenodd" fill-opacity="1" /><path clip-path="url(#clip980)" d="M 0 0 M1431.79 1468.65 L1431.79 1474.18 Q1429.31 1472.91 1426.64 1472.27 Q1423.96 1471.64 1421.1 1471.64 Q1416.74 1471.64 1414.54 1472.97 Q1412.38 1474.31 1412.38 1476.99 Q1412.38 1479.02 1413.94 1480.2 Q1415.5 1481.35 1420.21 1482.4 L1422.21 1482.84 Q1428.45 1484.18 1431.06 1486.63 Q1433.7 1489.05 1433.7 1493.41 Q1433.7 1498.37 1429.76 1501.27 Q1425.84 1504.17 1418.97 1504.17 Q1416.1 1504.17 1412.98 1503.59 Q1409.9 1503.05 1406.46 1501.94 L1406.46 1495.89 Q1409.71 1497.58 1412.86 1498.44 Q1416.01 1499.27 1419.09 1499.27 Q1423.23 1499.27 1425.46 1497.86 Q1427.69 1496.43 1427.69 1493.85 Q1427.69 1491.47 1426.07 1490.19 Q1424.47 1488.92 1419.03 1487.74 L1416.99 1487.27 Q1411.55 1486.12 1409.13 1483.76 Q1406.71 1481.38 1406.71 1477.24 Q1406.71 1472.21 1410.28 1469.47 Q1413.84 1466.74 1420.4 1466.74 Q1423.65 1466.74 1426.51 1467.21 Q1429.38 1467.69 1431.79 1468.65 Z" fill="#000000" fill-rule="evenodd" fill-opacity="1" /><path clip-path="url(#clip980)" d="M 0 0 M1442.11 1453.78 L1447.2 1453.78 Q1451.97 1461.29 1454.33 1468.49 Q1456.72 1475.68 1456.72 1482.78 Q1456.72 1489.91 1454.33 1497.13 Q1451.97 1504.36 1447.2 1511.84 L1442.11 1511.84 Q1446.34 1504.55 1448.41 1497.36 Q1450.51 1490.13 1450.51 1482.78 Q1450.51 1475.43 1448.41 1468.26 Q1446.34 1461.1 1442.11 1453.78 Z" fill="#000000" fill-rule="evenodd" fill-opacity="1" /><polyline clip-path="url(#clip982)" style="stroke:#000000; stroke-width:2; stroke-opacity:0.1; fill:none" points="
  369.901,1324.86 2256.76,1324.86 
  "/>
<polyline clip-path="url(#clip982)" style="stroke:#000000; stroke-width:2; stroke-opacity:0.1; fill:none" points="
  369.901,1139.45 2256.76,1139.45 
  "/>
<polyline clip-path="url(#clip982)" style="stroke:#000000; stroke-width:2; stroke-opacity:0.1; fill:none" points="
  369.901,954.04 2256.76,954.04 
  "/>
<polyline clip-path="url(#clip982)" style="stroke:#000000; stroke-width:2; stroke-opacity:0.1; fill:none" points="
  369.901,768.632 2256.76,768.632 
  "/>
<polyline clip-path="url(#clip982)" style="stroke:#000000; stroke-width:2; stroke-opacity:0.1; fill:none" points="
  369.901,583.223 2256.76,583.223 
  "/>
<polyline clip-path="url(#clip982)" style="stroke:#000000; stroke-width:2; stroke-opacity:0.1; fill:none" points="
  369.901,397.814 2256.76,397.814 
  "/>
<polyline clip-path="url(#clip982)" style="stroke:#000000; stroke-width:2; stroke-opacity:0.1; fill:none" points="
  369.901,212.405 2256.76,212.405 
  "/>
<polyline clip-path="url(#clip980)" style="stroke:#000000; stroke-width:4; stroke-opacity:1; fill:none" points="
  369.901,1359.82 369.901,123.472 
  "/>
<polyline clip-path="url(#clip980)" style="stroke:#000000; stroke-width:4; stroke-opacity:1; fill:none" points="
  369.901,1324.86 392.543,1324.86 
  "/>
<polyline clip-path="url(#clip980)" style="stroke:#000000; stroke-width:4; stroke-opacity:1; fill:none" points="
  369.901,1139.45 392.543,1139.45 
  "/>
<polyline clip-path="url(#clip980)" style="stroke:#000000; stroke-width:4; stroke-opacity:1; fill:none" points="
  369.901,954.04 392.543,954.04 
  "/>
<polyline clip-path="url(#clip980)" style="stroke:#000000; stroke-width:4; stroke-opacity:1; fill:none" points="
  369.901,768.632 392.543,768.632 
  "/>
<polyline clip-path="url(#clip980)" style="stroke:#000000; stroke-width:4; stroke-opacity:1; fill:none" points="
  369.901,583.223 392.543,583.223 
  "/>
<polyline clip-path="url(#clip980)" style="stroke:#000000; stroke-width:4; stroke-opacity:1; fill:none" points="
  369.901,397.814 392.543,397.814 
  "/>
<polyline clip-path="url(#clip980)" style="stroke:#000000; stroke-width:4; stroke-opacity:1; fill:none" points="
  369.901,212.405 392.543,212.405 
  "/>
<path clip-path="url(#clip980)" d="M 0 0 M323.396 1310.66 Q319.785 1310.66 317.957 1314.22 Q316.151 1317.76 316.151 1324.89 Q316.151 1332 317.957 1335.56 Q319.785 1339.11 323.396 1339.11 Q327.031 1339.11 328.836 1335.56 Q330.665 1332 330.665 1324.89 Q330.665 1317.76 328.836 1314.22 Q327.031 1310.66 323.396 1310.66 M323.396 1306.95 Q329.207 1306.95 332.262 1311.56 Q335.341 1316.14 335.341 1324.89 Q335.341 1333.62 332.262 1338.23 Q329.207 1342.81 323.396 1342.81 Q317.586 1342.81 314.508 1338.23 Q311.452 1333.62 311.452 1324.89 Q311.452 1316.14 314.508 1311.56 Q317.586 1306.95 323.396 1306.95 Z" fill="#000000" fill-rule="evenodd" fill-opacity="1" /><path clip-path="url(#clip980)" d="M 0 0 M121.523 1159.24 L137.842 1159.24 L137.842 1163.18 L115.898 1163.18 L115.898 1159.24 Q118.56 1156.49 123.143 1151.86 Q127.749 1147.2 128.93 1145.86 Q131.175 1143.34 132.055 1141.6 Q132.958 1139.84 132.958 1138.15 Q132.958 1135.4 131.013 1133.66 Q129.092 1131.93 125.99 1131.93 Q123.791 1131.93 121.337 1132.69 Q118.907 1133.45 116.129 1135.01 L116.129 1130.28 Q118.953 1129.15 121.407 1128.57 Q123.86 1127.99 125.898 1127.99 Q131.268 1127.99 134.462 1130.68 Q137.657 1133.36 137.657 1137.85 Q137.657 1139.98 136.847 1141.9 Q136.059 1143.8 133.953 1146.39 Q133.374 1147.07 130.272 1150.28 Q127.171 1153.48 121.523 1159.24 Z" fill="#000000" fill-rule="evenodd" fill-opacity="1" /><path clip-path="url(#clip980)" d="M 0 0 M147.657 1157.3 L152.541 1157.3 L152.541 1163.18 L147.657 1163.18 L147.657 1157.3 Z" fill="#000000" fill-rule="evenodd" fill-opacity="1" /><path clip-path="url(#clip980)" d="M 0 0 M172.726 1131.7 Q169.115 1131.7 167.286 1135.26 Q165.481 1138.8 165.481 1145.93 Q165.481 1153.04 167.286 1156.6 Q169.115 1160.14 172.726 1160.14 Q176.36 1160.14 178.166 1156.6 Q179.994 1153.04 179.994 1145.93 Q179.994 1138.8 178.166 1135.26 Q176.36 1131.7 172.726 1131.7 M172.726 1127.99 Q178.536 1127.99 181.592 1132.6 Q184.67 1137.18 184.67 1145.93 Q184.67 1154.66 181.592 1159.26 Q178.536 1163.85 172.726 1163.85 Q166.916 1163.85 163.837 1159.26 Q160.782 1154.66 160.782 1145.93 Q160.782 1137.18 163.837 1132.6 Q166.916 1127.99 172.726 1127.99 Z" fill="#000000" fill-rule="evenodd" fill-opacity="1" /><path clip-path="url(#clip980)" d="M 0 0 M202.888 1131.7 Q199.277 1131.7 197.448 1135.26 Q195.643 1138.8 195.643 1145.93 Q195.643 1153.04 197.448 1156.6 Q199.277 1160.14 202.888 1160.14 Q206.522 1160.14 208.328 1156.6 Q210.156 1153.04 210.156 1145.93 Q210.156 1138.8 208.328 1135.26 Q206.522 1131.7 202.888 1131.7 M202.888 1127.99 Q208.698 1127.99 211.754 1132.6 Q214.832 1137.18 214.832 1145.93 Q214.832 1154.66 211.754 1159.26 Q208.698 1163.85 202.888 1163.85 Q197.078 1163.85 193.999 1159.26 Q190.943 1154.66 190.943 1145.93 Q190.943 1137.18 193.999 1132.6 Q197.078 1127.99 202.888 1127.99 Z" fill="#000000" fill-rule="evenodd" fill-opacity="1" /><path clip-path="url(#clip980)" d="M 0 0 M251.221 1137.71 L240.642 1148.34 L251.221 1158.92 L248.466 1161.72 L237.841 1151.09 L227.216 1161.72 L224.485 1158.92 L235.04 1148.34 L224.485 1137.71 L227.216 1134.91 L237.841 1145.54 L248.466 1134.91 L251.221 1137.71 Z" fill="#000000" fill-rule="evenodd" fill-opacity="1" /><path clip-path="url(#clip980)" d="M 0 0 M263.582 1159.24 L271.221 1159.24 L271.221 1132.88 L262.911 1134.54 L262.911 1130.28 L271.175 1128.62 L275.85 1128.62 L275.85 1159.24 L283.489 1159.24 L283.489 1163.18 L263.582 1163.18 L263.582 1159.24 Z" fill="#000000" fill-rule="evenodd" fill-opacity="1" /><path clip-path="url(#clip980)" d="M 0 0 M302.934 1131.7 Q299.323 1131.7 297.494 1135.26 Q295.688 1138.8 295.688 1145.93 Q295.688 1153.04 297.494 1156.6 Q299.323 1160.14 302.934 1160.14 Q306.568 1160.14 308.373 1156.6 Q310.202 1153.04 310.202 1145.93 Q310.202 1138.8 308.373 1135.26 Q306.568 1131.7 302.934 1131.7 M302.934 1127.99 Q308.744 1127.99 311.799 1132.6 Q314.878 1137.18 314.878 1145.93 Q314.878 1154.66 311.799 1159.26 Q308.744 1163.85 302.934 1163.85 Q297.123 1163.85 294.045 1159.26 Q290.989 1154.66 290.989 1145.93 Q290.989 1137.18 294.045 1132.6 Q297.123 1127.99 302.934 1127.99 Z" fill="#000000" fill-rule="evenodd" fill-opacity="1" /><path clip-path="url(#clip980)" d="M 0 0 M327.554 1111 L317.962 1125.99 L327.554 1125.99 L327.554 1111 M326.558 1107.69 L331.335 1107.69 L331.335 1125.99 L335.341 1125.99 L335.341 1129.15 L331.335 1129.15 L331.335 1135.77 L327.554 1135.77 L327.554 1129.15 L314.878 1129.15 L314.878 1125.48 L326.558 1107.69 Z" fill="#000000" fill-rule="evenodd" fill-opacity="1" /><path clip-path="url(#clip980)" d="M 0 0 M130.342 947.282 L118.536 965.731 L130.342 965.731 L130.342 947.282 M129.115 943.208 L134.995 943.208 L134.995 965.731 L139.925 965.731 L139.925 969.62 L134.995 969.62 L134.995 977.768 L130.342 977.768 L130.342 969.62 L114.74 969.62 L114.74 965.106 L129.115 943.208 Z" fill="#000000" fill-rule="evenodd" fill-opacity="1" /><path clip-path="url(#clip980)" d="M 0 0 M147.657 971.888 L152.541 971.888 L152.541 977.768 L147.657 977.768 L147.657 971.888 Z" fill="#000000" fill-rule="evenodd" fill-opacity="1" /><path clip-path="url(#clip980)" d="M 0 0 M172.726 946.287 Q169.115 946.287 167.286 949.851 Q165.481 953.393 165.481 960.523 Q165.481 967.629 167.286 971.194 Q169.115 974.736 172.726 974.736 Q176.36 974.736 178.166 971.194 Q179.994 967.629 179.994 960.523 Q179.994 953.393 178.166 949.851 Q176.36 946.287 172.726 946.287 M172.726 942.583 Q178.536 942.583 181.592 947.189 Q184.67 951.773 184.67 960.523 Q184.67 969.249 181.592 973.856 Q178.536 978.439 172.726 978.439 Q166.916 978.439 163.837 973.856 Q160.782 969.249 160.782 960.523 Q160.782 951.773 163.837 947.189 Q166.916 942.583 172.726 942.583 Z" fill="#000000" fill-rule="evenodd" fill-opacity="1" /><path clip-path="url(#clip980)" d="M 0 0 M202.888 946.287 Q199.277 946.287 197.448 949.851 Q195.643 953.393 195.643 960.523 Q195.643 967.629 197.448 971.194 Q199.277 974.736 202.888 974.736 Q206.522 974.736 208.328 971.194 Q210.156 967.629 210.156 960.523 Q210.156 953.393 208.328 949.851 Q206.522 946.287 202.888 946.287 M202.888 942.583 Q208.698 942.583 211.754 947.189 Q214.832 951.773 214.832 960.523 Q214.832 969.249 211.754 973.856 Q208.698 978.439 202.888 978.439 Q197.078 978.439 193.999 973.856 Q190.943 969.249 190.943 960.523 Q190.943 951.773 193.999 947.189 Q197.078 942.583 202.888 942.583 Z" fill="#000000" fill-rule="evenodd" fill-opacity="1" /><path clip-path="url(#clip980)" d="M 0 0 M251.221 952.305 L240.642 962.93 L251.221 973.509 L248.466 976.31 L237.841 965.685 L227.216 976.31 L224.485 973.509 L235.04 962.93 L224.485 952.305 L227.216 949.504 L237.841 960.129 L248.466 949.504 L251.221 952.305 Z" fill="#000000" fill-rule="evenodd" fill-opacity="1" /><path clip-path="url(#clip980)" d="M 0 0 M263.582 973.833 L271.221 973.833 L271.221 947.467 L262.911 949.134 L262.911 944.875 L271.175 943.208 L275.85 943.208 L275.85 973.833 L283.489 973.833 L283.489 977.768 L263.582 977.768 L263.582 973.833 Z" fill="#000000" fill-rule="evenodd" fill-opacity="1" /><path clip-path="url(#clip980)" d="M 0 0 M302.934 946.287 Q299.323 946.287 297.494 949.851 Q295.688 953.393 295.688 960.523 Q295.688 967.629 297.494 971.194 Q299.323 974.736 302.934 974.736 Q306.568 974.736 308.373 971.194 Q310.202 967.629 310.202 960.523 Q310.202 953.393 308.373 949.851 Q306.568 946.287 302.934 946.287 M302.934 942.583 Q308.744 942.583 311.799 947.189 Q314.878 951.773 314.878 960.523 Q314.878 969.249 311.799 973.856 Q308.744 978.439 302.934 978.439 Q297.123 978.439 294.045 973.856 Q290.989 969.249 290.989 960.523 Q290.989 951.773 294.045 947.189 Q297.123 942.583 302.934 942.583 Z" fill="#000000" fill-rule="evenodd" fill-opacity="1" /><path clip-path="url(#clip980)" d="M 0 0 M327.554 925.588 L317.962 940.577 L327.554 940.577 L327.554 925.588 M326.558 922.278 L331.335 922.278 L331.335 940.577 L335.341 940.577 L335.341 943.737 L331.335 943.737 L331.335 950.358 L327.554 950.358 L327.554 943.737 L314.878 943.737 L314.878 940.07 L326.558 922.278 Z" fill="#000000" fill-rule="evenodd" fill-opacity="1" /><path clip-path="url(#clip980)" d="M 0 0 M128.073 773.216 Q124.925 773.216 123.073 775.368 Q121.245 777.521 121.245 781.271 Q121.245 784.998 123.073 787.174 Q124.925 789.327 128.073 789.327 Q131.222 789.327 133.05 787.174 Q134.902 784.998 134.902 781.271 Q134.902 777.521 133.05 775.368 Q131.222 773.216 128.073 773.216 M137.356 758.563 L137.356 762.822 Q135.597 761.989 133.791 761.549 Q132.009 761.109 130.249 761.109 Q125.62 761.109 123.166 764.234 Q120.735 767.359 120.388 773.679 Q121.754 771.665 123.814 770.6 Q125.874 769.512 128.351 769.512 Q133.56 769.512 136.569 772.683 Q139.601 775.831 139.601 781.271 Q139.601 786.595 136.453 789.813 Q133.305 793.03 128.073 793.03 Q122.078 793.03 118.907 788.447 Q115.736 783.841 115.736 775.114 Q115.736 766.919 119.624 762.058 Q123.513 757.174 130.064 757.174 Q131.823 757.174 133.606 757.521 Q135.411 757.869 137.356 758.563 Z" fill="#000000" fill-rule="evenodd" fill-opacity="1" /><path clip-path="url(#clip980)" d="M 0 0 M147.657 786.48 L152.541 786.48 L152.541 792.359 L147.657 792.359 L147.657 786.48 Z" fill="#000000" fill-rule="evenodd" fill-opacity="1" /><path clip-path="url(#clip980)" d="M 0 0 M172.726 760.878 Q169.115 760.878 167.286 764.443 Q165.481 767.984 165.481 775.114 Q165.481 782.22 167.286 785.785 Q169.115 789.327 172.726 789.327 Q176.36 789.327 178.166 785.785 Q179.994 782.22 179.994 775.114 Q179.994 767.984 178.166 764.443 Q176.36 760.878 172.726 760.878 M172.726 757.174 Q178.536 757.174 181.592 761.781 Q184.67 766.364 184.67 775.114 Q184.67 783.841 181.592 788.447 Q178.536 793.03 172.726 793.03 Q166.916 793.03 163.837 788.447 Q160.782 783.841 160.782 775.114 Q160.782 766.364 163.837 761.781 Q166.916 757.174 172.726 757.174 Z" fill="#000000" fill-rule="evenodd" fill-opacity="1" /><path clip-path="url(#clip980)" d="M 0 0 M202.888 760.878 Q199.277 760.878 197.448 764.443 Q195.643 767.984 195.643 775.114 Q195.643 782.22 197.448 785.785 Q199.277 789.327 202.888 789.327 Q206.522 789.327 208.328 785.785 Q210.156 782.22 210.156 775.114 Q210.156 767.984 208.328 764.443 Q206.522 760.878 202.888 760.878 M202.888 757.174 Q208.698 757.174 211.754 761.781 Q214.832 766.364 214.832 775.114 Q214.832 783.841 211.754 788.447 Q208.698 793.03 202.888 793.03 Q197.078 793.03 193.999 788.447 Q190.943 783.841 190.943 775.114 Q190.943 766.364 193.999 761.781 Q197.078 757.174 202.888 757.174 Z" fill="#000000" fill-rule="evenodd" fill-opacity="1" /><path clip-path="url(#clip980)" d="M 0 0 M251.221 766.896 L240.642 777.521 L251.221 788.1 L248.466 790.901 L237.841 780.276 L227.216 790.901 L224.485 788.1 L235.04 777.521 L224.485 766.896 L227.216 764.095 L237.841 774.72 L248.466 764.095 L251.221 766.896 Z" fill="#000000" fill-rule="evenodd" fill-opacity="1" /><path clip-path="url(#clip980)" d="M 0 0 M263.582 788.424 L271.221 788.424 L271.221 762.058 L262.911 763.725 L262.911 759.466 L271.175 757.799 L275.85 757.799 L275.85 788.424 L283.489 788.424 L283.489 792.359 L263.582 792.359 L263.582 788.424 Z" fill="#000000" fill-rule="evenodd" fill-opacity="1" /><path clip-path="url(#clip980)" d="M 0 0 M302.934 760.878 Q299.323 760.878 297.494 764.443 Q295.688 767.984 295.688 775.114 Q295.688 782.22 297.494 785.785 Q299.323 789.327 302.934 789.327 Q306.568 789.327 308.373 785.785 Q310.202 782.22 310.202 775.114 Q310.202 767.984 308.373 764.443 Q306.568 760.878 302.934 760.878 M302.934 757.174 Q308.744 757.174 311.799 761.781 Q314.878 766.364 314.878 775.114 Q314.878 783.841 311.799 788.447 Q308.744 793.03 302.934 793.03 Q297.123 793.03 294.045 788.447 Q290.989 783.841 290.989 775.114 Q290.989 766.364 294.045 761.781 Q297.123 757.174 302.934 757.174 Z" fill="#000000" fill-rule="evenodd" fill-opacity="1" /><path clip-path="url(#clip980)" d="M 0 0 M327.554 740.179 L317.962 755.169 L327.554 755.169 L327.554 740.179 M326.558 736.869 L331.335 736.869 L331.335 755.169 L335.341 755.169 L335.341 758.328 L331.335 758.328 L331.335 764.949 L327.554 764.949 L327.554 758.328 L314.878 758.328 L314.878 754.661 L326.558 736.869 Z" fill="#000000" fill-rule="evenodd" fill-opacity="1" /><path clip-path="url(#clip980)" d="M 0 0 M127.495 590.538 Q124.161 590.538 122.24 592.321 Q120.342 594.103 120.342 597.228 Q120.342 600.353 122.24 602.136 Q124.161 603.918 127.495 603.918 Q130.828 603.918 132.749 602.136 Q134.671 600.33 134.671 597.228 Q134.671 594.103 132.749 592.321 Q130.851 590.538 127.495 590.538 M122.819 588.548 Q119.81 587.807 118.12 585.747 Q116.453 583.687 116.453 580.724 Q116.453 576.58 119.393 574.173 Q122.356 571.765 127.495 571.765 Q132.657 571.765 135.597 574.173 Q138.536 576.58 138.536 580.724 Q138.536 583.687 136.847 585.747 Q135.18 587.807 132.194 588.548 Q135.573 589.335 137.448 591.626 Q139.347 593.918 139.347 597.228 Q139.347 602.251 136.268 604.936 Q133.212 607.622 127.495 607.622 Q121.777 607.622 118.698 604.936 Q115.643 602.251 115.643 597.228 Q115.643 593.918 117.541 591.626 Q119.439 589.335 122.819 588.548 M121.106 581.163 Q121.106 583.849 122.773 585.353 Q124.462 586.858 127.495 586.858 Q130.504 586.858 132.194 585.353 Q133.907 583.849 133.907 581.163 Q133.907 578.478 132.194 576.974 Q130.504 575.469 127.495 575.469 Q124.462 575.469 122.773 576.974 Q121.106 578.478 121.106 581.163 Z" fill="#000000" fill-rule="evenodd" fill-opacity="1" /><path clip-path="url(#clip980)" d="M 0 0 M147.657 601.071 L152.541 601.071 L152.541 606.95 L147.657 606.95 L147.657 601.071 Z" fill="#000000" fill-rule="evenodd" fill-opacity="1" /><path clip-path="url(#clip980)" d="M 0 0 M172.726 575.469 Q169.115 575.469 167.286 579.034 Q165.481 582.575 165.481 589.705 Q165.481 596.812 167.286 600.376 Q169.115 603.918 172.726 603.918 Q176.36 603.918 178.166 600.376 Q179.994 596.812 179.994 589.705 Q179.994 582.575 178.166 579.034 Q176.36 575.469 172.726 575.469 M172.726 571.765 Q178.536 571.765 181.592 576.372 Q184.67 580.955 184.67 589.705 Q184.67 598.432 181.592 603.038 Q178.536 607.622 172.726 607.622 Q166.916 607.622 163.837 603.038 Q160.782 598.432 160.782 589.705 Q160.782 580.955 163.837 576.372 Q166.916 571.765 172.726 571.765 Z" fill="#000000" fill-rule="evenodd" fill-opacity="1" /><path clip-path="url(#clip980)" d="M 0 0 M202.888 575.469 Q199.277 575.469 197.448 579.034 Q195.643 582.575 195.643 589.705 Q195.643 596.812 197.448 600.376 Q199.277 603.918 202.888 603.918 Q206.522 603.918 208.328 600.376 Q210.156 596.812 210.156 589.705 Q210.156 582.575 208.328 579.034 Q206.522 575.469 202.888 575.469 M202.888 571.765 Q208.698 571.765 211.754 576.372 Q214.832 580.955 214.832 589.705 Q214.832 598.432 211.754 603.038 Q208.698 607.622 202.888 607.622 Q197.078 607.622 193.999 603.038 Q190.943 598.432 190.943 589.705 Q190.943 580.955 193.999 576.372 Q197.078 571.765 202.888 571.765 Z" fill="#000000" fill-rule="evenodd" fill-opacity="1" /><path clip-path="url(#clip980)" d="M 0 0 M251.221 581.488 L240.642 592.112 L251.221 602.691 L248.466 605.492 L237.841 594.867 L227.216 605.492 L224.485 602.691 L235.04 592.112 L224.485 581.488 L227.216 578.687 L237.841 589.312 L248.466 578.687 L251.221 581.488 Z" fill="#000000" fill-rule="evenodd" fill-opacity="1" /><path clip-path="url(#clip980)" d="M 0 0 M263.582 603.015 L271.221 603.015 L271.221 576.65 L262.911 578.316 L262.911 574.057 L271.175 572.39 L275.85 572.39 L275.85 603.015 L283.489 603.015 L283.489 606.95 L263.582 606.95 L263.582 603.015 Z" fill="#000000" fill-rule="evenodd" fill-opacity="1" /><path clip-path="url(#clip980)" d="M 0 0 M302.934 575.469 Q299.323 575.469 297.494 579.034 Q295.688 582.575 295.688 589.705 Q295.688 596.812 297.494 600.376 Q299.323 603.918 302.934 603.918 Q306.568 603.918 308.373 600.376 Q310.202 596.812 310.202 589.705 Q310.202 582.575 308.373 579.034 Q306.568 575.469 302.934 575.469 M302.934 571.765 Q308.744 571.765 311.799 576.372 Q314.878 580.955 314.878 589.705 Q314.878 598.432 311.799 603.038 Q308.744 607.622 302.934 607.622 Q297.123 607.622 294.045 603.038 Q290.989 598.432 290.989 589.705 Q290.989 580.955 294.045 576.372 Q297.123 571.765 302.934 571.765 Z" fill="#000000" fill-rule="evenodd" fill-opacity="1" /><path clip-path="url(#clip980)" d="M 0 0 M327.554 554.77 L317.962 569.76 L327.554 569.76 L327.554 554.77 M326.558 551.46 L331.335 551.46 L331.335 569.76 L335.341 569.76 L335.341 572.92 L331.335 572.92 L331.335 579.54 L327.554 579.54 L327.554 572.92 L314.878 572.92 L314.878 569.252 L326.558 551.46 Z" fill="#000000" fill-rule="evenodd" fill-opacity="1" /><path clip-path="url(#clip980)" d="M 0 0 M120.6 417.606 L128.238 417.606 L128.238 391.241 L119.928 392.907 L119.928 388.648 L128.192 386.982 L132.868 386.982 L132.868 417.606 L140.507 417.606 L140.507 421.542 L120.6 421.542 L120.6 417.606 Z" fill="#000000" fill-rule="evenodd" fill-opacity="1" /><path clip-path="url(#clip980)" d="M 0 0 M149.951 415.662 L154.835 415.662 L154.835 421.542 L149.951 421.542 L149.951 415.662 Z" fill="#000000" fill-rule="evenodd" fill-opacity="1" /><path clip-path="url(#clip980)" d="M 0 0 M175.021 390.06 Q171.409 390.06 169.581 393.625 Q167.775 397.167 167.775 404.296 Q167.775 411.403 169.581 414.968 Q171.409 418.509 175.021 418.509 Q178.655 418.509 180.46 414.968 Q182.289 411.403 182.289 404.296 Q182.289 397.167 180.46 393.625 Q178.655 390.06 175.021 390.06 M175.021 386.357 Q180.831 386.357 183.886 390.963 Q186.965 395.546 186.965 404.296 Q186.965 413.023 183.886 417.63 Q180.831 422.213 175.021 422.213 Q169.21 422.213 166.132 417.63 Q163.076 413.023 163.076 404.296 Q163.076 395.546 166.132 390.963 Q169.21 386.357 175.021 386.357 Z" fill="#000000" fill-rule="evenodd" fill-opacity="1" /><path clip-path="url(#clip980)" d="M 0 0 M205.182 390.06 Q201.571 390.06 199.743 393.625 Q197.937 397.167 197.937 404.296 Q197.937 411.403 199.743 414.968 Q201.571 418.509 205.182 418.509 Q208.817 418.509 210.622 414.968 Q212.451 411.403 212.451 404.296 Q212.451 397.167 210.622 393.625 Q208.817 390.06 205.182 390.06 M205.182 386.357 Q210.993 386.357 214.048 390.963 Q217.127 395.546 217.127 404.296 Q217.127 413.023 214.048 417.63 Q210.993 422.213 205.182 422.213 Q199.372 422.213 196.294 417.63 Q193.238 413.023 193.238 404.296 Q193.238 395.546 196.294 390.963 Q199.372 386.357 205.182 386.357 Z" fill="#000000" fill-rule="evenodd" fill-opacity="1" /><path clip-path="url(#clip980)" d="M 0 0 M253.515 396.079 L242.937 406.704 L253.515 417.282 L250.761 420.083 L240.136 409.458 L229.511 420.083 L226.779 417.282 L237.335 406.704 L226.779 396.079 L229.511 393.278 L240.136 403.903 L250.761 393.278 L253.515 396.079 Z" fill="#000000" fill-rule="evenodd" fill-opacity="1" /><path clip-path="url(#clip980)" d="M 0 0 M265.877 417.606 L273.515 417.606 L273.515 391.241 L265.205 392.907 L265.205 388.648 L273.469 386.982 L278.145 386.982 L278.145 417.606 L285.784 417.606 L285.784 421.542 L265.877 421.542 L265.877 417.606 Z" fill="#000000" fill-rule="evenodd" fill-opacity="1" /><path clip-path="url(#clip980)" d="M 0 0 M305.228 390.06 Q301.617 390.06 299.788 393.625 Q297.983 397.167 297.983 404.296 Q297.983 411.403 299.788 414.968 Q301.617 418.509 305.228 418.509 Q308.862 418.509 310.668 414.968 Q312.497 411.403 312.497 404.296 Q312.497 397.167 310.668 393.625 Q308.862 390.06 305.228 390.06 M305.228 386.357 Q311.038 386.357 314.094 390.963 Q317.173 395.546 317.173 404.296 Q317.173 413.023 314.094 417.63 Q311.038 422.213 305.228 422.213 Q299.418 422.213 296.339 417.63 Q293.284 413.023 293.284 404.296 Q293.284 395.546 296.339 390.963 Q299.418 386.357 305.228 386.357 Z" fill="#000000" fill-rule="evenodd" fill-opacity="1" /><path clip-path="url(#clip980)" d="M 0 0 M318.357 366.051 L333.272 366.051 L333.272 369.248 L321.837 369.248 L321.837 376.132 Q322.664 375.85 323.492 375.718 Q324.319 375.568 325.147 375.568 Q329.849 375.568 332.595 378.145 Q335.341 380.721 335.341 385.122 Q335.341 389.655 332.52 392.175 Q329.698 394.677 324.564 394.677 Q322.796 394.677 320.953 394.376 Q319.129 394.075 317.173 393.473 L317.173 389.655 Q318.865 390.577 320.671 391.028 Q322.476 391.479 324.489 391.479 Q327.742 391.479 329.642 389.768 Q331.542 388.056 331.542 385.122 Q331.542 382.188 329.642 380.477 Q327.742 378.765 324.489 378.765 Q322.965 378.765 321.442 379.104 Q319.937 379.442 318.357 380.157 L318.357 366.051 Z" fill="#000000" fill-rule="evenodd" fill-opacity="1" /><path clip-path="url(#clip980)" d="M 0 0 M120.6 232.198 L128.238 232.198 L128.238 205.832 L119.928 207.499 L119.928 203.239 L128.192 201.573 L132.868 201.573 L132.868 232.198 L140.507 232.198 L140.507 236.133 L120.6 236.133 L120.6 232.198 Z" fill="#000000" fill-rule="evenodd" fill-opacity="1" /><path clip-path="url(#clip980)" d="M 0 0 M149.951 230.253 L154.835 230.253 L154.835 236.133 L149.951 236.133 L149.951 230.253 Z" fill="#000000" fill-rule="evenodd" fill-opacity="1" /><path clip-path="url(#clip980)" d="M 0 0 M169.048 232.198 L185.368 232.198 L185.368 236.133 L163.423 236.133 L163.423 232.198 Q166.085 229.443 170.669 224.813 Q175.275 220.161 176.456 218.818 Q178.701 216.295 179.581 214.559 Q180.483 212.8 180.483 211.11 Q180.483 208.355 178.539 206.619 Q176.618 204.883 173.516 204.883 Q171.317 204.883 168.863 205.647 Q166.433 206.411 163.655 207.962 L163.655 203.239 Q166.479 202.105 168.933 201.526 Q171.386 200.948 173.423 200.948 Q178.794 200.948 181.988 203.633 Q185.182 206.318 185.182 210.809 Q185.182 212.938 184.372 214.86 Q183.585 216.758 181.479 219.35 Q180.9 220.022 177.798 223.239 Q174.696 226.434 169.048 232.198 Z" fill="#000000" fill-rule="evenodd" fill-opacity="1" /><path clip-path="url(#clip980)" d="M 0 0 M205.182 204.651 Q201.571 204.651 199.743 208.216 Q197.937 211.758 197.937 218.888 Q197.937 225.994 199.743 229.559 Q201.571 233.1 205.182 233.1 Q208.817 233.1 210.622 229.559 Q212.451 225.994 212.451 218.888 Q212.451 211.758 210.622 208.216 Q208.817 204.651 205.182 204.651 M205.182 200.948 Q210.993 200.948 214.048 205.554 Q217.127 210.138 217.127 218.888 Q217.127 227.614 214.048 232.221 Q210.993 236.804 205.182 236.804 Q199.372 236.804 196.294 232.221 Q193.238 227.614 193.238 218.888 Q193.238 210.138 196.294 205.554 Q199.372 200.948 205.182 200.948 Z" fill="#000000" fill-rule="evenodd" fill-opacity="1" /><path clip-path="url(#clip980)" d="M 0 0 M253.515 210.67 L242.937 221.295 L253.515 231.874 L250.761 234.674 L240.136 224.05 L229.511 234.674 L226.779 231.874 L237.335 221.295 L226.779 210.67 L229.511 207.869 L240.136 218.494 L250.761 207.869 L253.515 210.67 Z" fill="#000000" fill-rule="evenodd" fill-opacity="1" /><path clip-path="url(#clip980)" d="M 0 0 M265.877 232.198 L273.515 232.198 L273.515 205.832 L265.205 207.499 L265.205 203.239 L273.469 201.573 L278.145 201.573 L278.145 232.198 L285.784 232.198 L285.784 236.133 L265.877 236.133 L265.877 232.198 Z" fill="#000000" fill-rule="evenodd" fill-opacity="1" /><path clip-path="url(#clip980)" d="M 0 0 M305.228 204.651 Q301.617 204.651 299.788 208.216 Q297.983 211.758 297.983 218.888 Q297.983 225.994 299.788 229.559 Q301.617 233.1 305.228 233.1 Q308.862 233.1 310.668 229.559 Q312.497 225.994 312.497 218.888 Q312.497 211.758 310.668 208.216 Q308.862 204.651 305.228 204.651 M305.228 200.948 Q311.038 200.948 314.094 205.554 Q317.173 210.138 317.173 218.888 Q317.173 227.614 314.094 232.221 Q311.038 236.804 305.228 236.804 Q299.418 236.804 296.339 232.221 Q293.284 227.614 293.284 218.888 Q293.284 210.138 296.339 205.554 Q299.418 200.948 305.228 200.948 Z" fill="#000000" fill-rule="evenodd" fill-opacity="1" /><path clip-path="url(#clip980)" d="M 0 0 M318.357 180.642 L333.272 180.642 L333.272 183.84 L321.837 183.84 L321.837 190.723 Q322.664 190.441 323.492 190.31 Q324.319 190.159 325.147 190.159 Q329.849 190.159 332.595 192.736 Q335.341 195.312 335.341 199.713 Q335.341 204.246 332.52 206.766 Q329.698 209.268 324.564 209.268 Q322.796 209.268 320.953 208.967 Q319.129 208.666 317.173 208.064 L317.173 204.246 Q318.865 205.168 320.671 205.619 Q322.476 206.07 324.489 206.07 Q327.742 206.07 329.642 204.359 Q331.542 202.647 331.542 199.713 Q331.542 196.779 329.642 195.068 Q327.742 193.356 324.489 193.356 Q322.965 193.356 321.442 193.695 Q319.937 194.034 318.357 194.748 L318.357 180.642 Z" fill="#000000" fill-rule="evenodd" fill-opacity="1" /><path clip-path="url(#clip980)" d="M 0 0 M24.738 1022.71 L48.3866 1031.43 L48.3866 1013.95 L24.738 1022.71 M18.4042 1026.34 L18.4042 1019.05 L65.9242 1000.94 L65.9242 1007.62 L53.7338 1011.95 L53.7338 1033.37 L65.9242 1037.7 L65.9242 1044.48 L18.4042 1026.34 Z" fill="#000000" fill-rule="evenodd" fill-opacity="1" /><path clip-path="url(#clip980)" d="M 0 0 M30.2762 1002.27 L30.2762 996.067 L60.195 984.927 L30.2762 973.787 L30.2762 967.581 L65.9242 980.949 L65.9242 988.906 L30.2762 1002.27 Z" fill="#000000" fill-rule="evenodd" fill-opacity="1" /><path clip-path="url(#clip980)" d="M 0 0 M47.6864 936.039 Q41.3207 936.039 37.8196 938.681 Q34.3184 941.29 34.3184 946.033 Q34.3184 950.744 37.8196 953.385 Q41.3207 955.995 47.6864 955.995 Q54.0203 955.995 57.5214 953.385 Q61.0226 950.744 61.0226 946.033 Q61.0226 941.29 57.5214 938.681 Q54.0203 936.039 47.6864 936.039 M61.5 930.182 Q70.603 930.182 75.0271 934.225 Q79.4831 938.267 79.4831 946.606 Q79.4831 949.693 79.0057 952.43 Q78.5601 955.168 77.6052 957.746 L71.9079 957.746 Q73.3084 955.168 73.9768 952.653 Q74.6452 950.139 74.6452 947.529 Q74.6452 941.768 71.6215 938.903 Q68.6296 936.039 62.5503 936.039 L59.6539 936.039 Q62.805 937.853 64.3646 940.686 Q65.9242 943.518 65.9242 947.465 Q65.9242 954.022 60.9271 958.032 Q55.93 962.043 47.6864 962.043 Q39.411 962.043 34.4139 958.032 Q29.4168 954.022 29.4168 947.465 Q29.4168 943.518 30.9764 940.686 Q32.536 937.853 35.6871 936.039 L30.2762 936.039 L30.2762 930.182 L61.5 930.182 Z" fill="#000000" fill-rule="evenodd" fill-opacity="1" /><path clip-path="url(#clip980)" d="M 0 0 M60.577 891.733 L79.4831 891.733 L79.4831 897.622 L30.2762 897.622 L30.2762 891.733 L35.6871 891.733 Q32.5042 889.887 30.9764 887.086 Q29.4168 884.254 29.4168 880.339 Q29.4168 873.846 34.5731 869.804 Q39.7293 865.73 48.132 865.73 Q56.5347 865.73 61.691 869.804 Q66.8472 873.846 66.8472 880.339 Q66.8472 884.254 65.3194 887.086 Q63.7598 889.887 60.577 891.733 M48.132 871.809 Q41.6708 871.809 38.0105 874.482 Q34.3184 877.124 34.3184 881.771 Q34.3184 886.418 38.0105 889.092 Q41.6708 891.733 48.132 891.733 Q54.5932 891.733 58.2853 889.092 Q61.9456 886.418 61.9456 881.771 Q61.9456 877.124 58.2853 874.482 Q54.5932 871.809 48.132 871.809 Z" fill="#000000" fill-rule="evenodd" fill-opacity="1" /><path clip-path="url(#clip980)" d="M 0 0 M44.4081 826.389 L65.9242 826.389 L65.9242 832.246 L44.599 832.246 Q39.5383 832.246 37.0238 834.219 Q34.5094 836.193 34.5094 840.139 Q34.5094 844.882 37.5331 847.619 Q40.5568 850.356 45.7767 850.356 L65.9242 850.356 L65.9242 856.245 L16.399 856.245 L16.399 850.356 L35.8144 850.356 Q32.5997 848.256 31.0083 845.423 Q29.4168 842.558 29.4168 838.834 Q29.4168 832.692 33.2363 829.54 Q37.0238 826.389 44.4081 826.389 Z" fill="#000000" fill-rule="evenodd" fill-opacity="1" /><path clip-path="url(#clip980)" d="M 0 0 M34.3821 800.895 Q34.3821 805.605 38.0742 808.343 Q41.7345 811.08 48.132 811.08 Q54.5295 811.08 58.2217 808.375 Q61.8819 805.637 61.8819 800.895 Q61.8819 796.216 58.1898 793.479 Q54.4977 790.741 48.132 790.741 Q41.7981 790.741 38.106 793.479 Q34.3821 796.216 34.3821 800.895 M29.4168 800.895 Q29.4168 793.256 34.3821 788.895 Q39.3473 784.535 48.132 784.535 Q56.8849 784.535 61.8819 788.895 Q66.8472 793.256 66.8472 800.895 Q66.8472 808.565 61.8819 812.926 Q56.8849 817.255 48.132 817.255 Q39.3473 817.255 34.3821 812.926 Q29.4168 808.565 29.4168 800.895 Z" fill="#000000" fill-rule="evenodd" fill-opacity="1" /><path clip-path="url(#clip980)" d="M 0 0 M20.1547 769.034 L30.2762 769.034 L30.2762 756.971 L34.8277 756.971 L34.8277 769.034 L54.1794 769.034 Q58.5399 769.034 59.7813 767.857 Q61.0226 766.647 61.0226 762.987 L61.0226 756.971 L65.9242 756.971 L65.9242 762.987 Q65.9242 769.766 63.4097 772.345 Q60.8634 774.923 54.1794 774.923 L34.8277 774.923 L34.8277 779.22 L30.2762 779.22 L30.2762 774.923 L20.1547 774.923 L20.1547 769.034 Z" fill="#000000" fill-rule="evenodd" fill-opacity="1" /><path clip-path="url(#clip980)" d="M 0 0 M34.3821 735.455 Q34.3821 740.166 38.0742 742.903 Q41.7345 745.64 48.132 745.64 Q54.5295 745.64 58.2217 742.935 Q61.8819 740.198 61.8819 735.455 Q61.8819 730.777 58.1898 728.039 Q54.4977 725.302 48.132 725.302 Q41.7981 725.302 38.106 728.039 Q34.3821 730.777 34.3821 735.455 M29.4168 735.455 Q29.4168 727.816 34.3821 723.456 Q39.3473 719.095 48.132 719.095 Q56.8849 719.095 61.8819 723.456 Q66.8472 727.816 66.8472 735.455 Q66.8472 743.126 61.8819 747.487 Q56.8849 751.815 48.132 751.815 Q39.3473 751.815 34.3821 747.487 Q29.4168 743.126 29.4168 735.455 Z" fill="#000000" fill-rule="evenodd" fill-opacity="1" /><path clip-path="url(#clip980)" d="M 0 0 M44.4081 679.755 L65.9242 679.755 L65.9242 685.612 L44.599 685.612 Q39.5383 685.612 37.0238 687.585 Q34.5094 689.559 34.5094 693.505 Q34.5094 698.248 37.5331 700.985 Q40.5568 703.722 45.7767 703.722 L65.9242 703.722 L65.9242 709.611 L30.2762 709.611 L30.2762 703.722 L35.8144 703.722 Q32.5997 701.622 31.0083 698.789 Q29.4168 695.924 29.4168 692.2 Q29.4168 686.057 33.2363 682.906 Q37.0238 679.755 44.4081 679.755 Z" fill="#000000" fill-rule="evenodd" fill-opacity="1" /><path clip-path="url(#clip980)" d="M 0 0 M31.6448 621.7 L37.1193 621.7 Q35.7507 624.183 35.0823 626.697 Q34.3821 629.18 34.3821 631.726 Q34.3821 637.423 38.0105 640.574 Q41.6072 643.726 48.132 643.726 Q54.6569 643.726 58.2853 640.574 Q61.8819 637.423 61.8819 631.726 Q61.8819 629.18 61.2135 626.697 Q60.5133 624.183 59.1447 621.7 L64.5555 621.7 Q65.7014 624.151 66.2743 626.793 Q66.8472 629.403 66.8472 632.363 Q66.8472 640.415 61.7864 645.158 Q56.7257 649.9 48.132 649.9 Q39.411 649.9 34.4139 645.126 Q29.4168 640.32 29.4168 631.981 Q29.4168 629.275 29.9897 626.697 Q30.5308 624.119 31.6448 621.7 Z" fill="#000000" fill-rule="evenodd" fill-opacity="1" /><path clip-path="url(#clip980)" d="M 0 0 M34.3821 597.701 Q34.3821 602.412 38.0742 605.149 Q41.7345 607.887 48.132 607.887 Q54.5295 607.887 58.2217 605.181 Q61.8819 602.444 61.8819 597.701 Q61.8819 593.023 58.1898 590.285 Q54.4977 587.548 48.132 587.548 Q41.7981 587.548 38.106 590.285 Q34.3821 593.023 34.3821 597.701 M29.4168 597.701 Q29.4168 590.063 34.3821 585.702 Q39.3473 581.342 48.132 581.342 Q56.8849 581.342 61.8819 585.702 Q66.8472 590.063 66.8472 597.701 Q66.8472 605.372 61.8819 609.733 Q56.8849 614.061 48.132 614.061 Q39.3473 614.061 34.3821 609.733 Q29.4168 605.372 29.4168 597.701 Z" fill="#000000" fill-rule="evenodd" fill-opacity="1" /><path clip-path="url(#clip980)" d="M 0 0 M51.8559 572.239 L30.2762 572.239 L30.2762 566.382 L51.6331 566.382 Q56.6939 566.382 59.2402 564.409 Q61.7546 562.435 61.7546 558.489 Q61.7546 553.746 58.7309 551.009 Q55.7072 548.24 50.4873 548.24 L30.2762 548.24 L30.2762 542.383 L65.9242 542.383 L65.9242 548.24 L60.4496 548.24 Q63.6962 550.372 65.2876 553.205 Q66.8472 556.006 66.8472 559.73 Q66.8472 565.873 63.0278 569.056 Q59.2083 572.239 51.8559 572.239 M29.4168 557.502 L29.4168 557.502 Z" fill="#000000" fill-rule="evenodd" fill-opacity="1" /><path clip-path="url(#clip980)" d="M 0 0 M44.4081 500.688 L65.9242 500.688 L65.9242 506.545 L44.599 506.545 Q39.5383 506.545 37.0238 508.518 Q34.5094 510.491 34.5094 514.438 Q34.5094 519.18 37.5331 521.918 Q40.5568 524.655 45.7767 524.655 L65.9242 524.655 L65.9242 530.543 L30.2762 530.543 L30.2762 524.655 L35.8144 524.655 Q32.5997 522.554 31.0083 519.722 Q29.4168 516.857 29.4168 513.133 Q29.4168 506.99 33.2363 503.839 Q37.0238 500.688 44.4081 500.688 Z" fill="#000000" fill-rule="evenodd" fill-opacity="1" /><path clip-path="url(#clip980)" d="M 0 0 M20.1547 483.214 L30.2762 483.214 L30.2762 471.151 L34.8277 471.151 L34.8277 483.214 L54.1794 483.214 Q58.5399 483.214 59.7813 482.037 Q61.0226 480.827 61.0226 477.167 L61.0226 471.151 L65.9242 471.151 L65.9242 477.167 Q65.9242 483.946 63.4097 486.524 Q60.8634 489.102 54.1794 489.102 L34.8277 489.102 L34.8277 493.399 L30.2762 493.399 L30.2762 489.102 L20.1547 489.102 L20.1547 483.214 Z" fill="#000000" fill-rule="evenodd" fill-opacity="1" /><path clip-path="url(#clip980)" d="M 0 0 M31.3265 440.723 L36.8647 440.723 Q35.5916 443.206 34.955 445.879 Q34.3184 448.553 34.3184 451.418 Q34.3184 455.778 35.6552 457.974 Q36.992 460.139 39.6656 460.139 Q41.7026 460.139 42.8803 458.579 Q44.0261 457.019 45.0765 452.309 L45.5221 450.304 Q46.8589 444.065 49.3097 441.455 Q51.7286 438.813 56.0891 438.813 Q61.0544 438.813 63.9508 442.76 Q66.8472 446.675 66.8472 453.55 Q66.8472 456.415 66.2743 459.534 Q65.7332 462.621 64.6192 466.059 L58.5718 466.059 Q60.2587 462.812 61.118 459.661 Q61.9456 456.51 61.9456 453.423 Q61.9456 449.285 60.5451 447.057 Q59.1129 444.829 56.5347 444.829 Q54.1476 444.829 52.8745 446.452 Q51.6013 448.044 50.4237 453.486 L49.9462 455.523 Q48.8004 460.966 46.4451 463.385 Q44.058 465.804 39.9202 465.804 Q34.8913 465.804 32.1541 462.239 Q29.4168 458.674 29.4168 452.118 Q29.4168 448.871 29.8943 446.007 Q30.3717 443.142 31.3265 440.723 Z" fill="#000000" fill-rule="evenodd" fill-opacity="1" /><path clip-path="url(#clip980)" d="M 0 0 M683.393 20.1573 L672.293 50.2555 L694.532 50.2555 L683.393 20.1573 M678.774 12.096 L688.051 12.096 L711.101 72.576 L702.594 72.576 L697.085 57.061 L669.822 57.061 L664.313 72.576 L655.684 72.576 L678.774 12.096 Z" fill="#000000" fill-rule="evenodd" fill-opacity="1" /><path clip-path="url(#clip980)" d="M 0 0 M709.399 27.2059 L717.299 27.2059 L731.477 65.2844 L745.655 27.2059 L753.554 27.2059 L736.54 72.576 L726.413 72.576 L709.399 27.2059 Z" fill="#000000" fill-rule="evenodd" fill-opacity="1" /><path clip-path="url(#clip980)" d="M 0 0 M802.651 48.0275 L802.651 51.6733 L768.38 51.6733 Q768.867 59.3701 772.999 63.421 Q777.171 67.4314 784.584 67.4314 Q788.878 67.4314 792.888 66.3781 Q796.939 65.3249 800.909 63.2184 L800.909 70.267 Q796.899 71.9684 792.686 72.8596 Q788.473 73.7508 784.138 73.7508 Q773.282 73.7508 766.922 67.4314 Q760.603 61.1119 760.603 50.3365 Q760.603 39.1965 766.598 32.6746 Q772.634 26.1121 782.842 26.1121 Q791.997 26.1121 797.304 32.0264 Q802.651 37.9003 802.651 48.0275 M795.197 45.84 Q795.116 39.7232 791.754 36.0774 Q788.432 32.4315 782.923 32.4315 Q776.685 32.4315 772.917 35.9558 Q769.191 39.4801 768.624 45.8805 L795.197 45.84 Z" fill="#000000" fill-rule="evenodd" fill-opacity="1" /><path clip-path="url(#clip980)" d="M 0 0 M841.175 34.1734 Q839.919 33.4443 838.421 33.1202 Q836.962 32.7556 835.18 32.7556 Q828.86 32.7556 825.458 36.8875 Q822.095 40.9789 822.095 48.6757 L822.095 72.576 L814.601 72.576 L814.601 27.2059 L822.095 27.2059 L822.095 34.2544 Q824.445 30.1225 828.212 28.1376 Q831.98 26.1121 837.367 26.1121 Q838.137 26.1121 839.069 26.2337 Q840 26.3147 841.135 26.5172 L841.175 34.1734 Z" fill="#000000" fill-rule="evenodd" fill-opacity="1" /><path clip-path="url(#clip980)" d="M 0 0 M869.613 49.7694 Q860.579 49.7694 857.095 51.8354 Q853.612 53.9013 853.612 58.8839 Q853.612 62.8538 856.204 65.2034 Q858.837 67.5124 863.334 67.5124 Q869.532 67.5124 873.258 63.1374 Q877.026 58.7219 877.026 51.4303 L877.026 49.7694 L869.613 49.7694 M884.479 46.6907 L884.479 72.576 L877.026 72.576 L877.026 65.6895 Q874.474 69.8214 870.666 71.8063 Q866.858 73.7508 861.349 73.7508 Q854.381 73.7508 850.249 69.8619 Q846.158 65.9325 846.158 59.3701 Q846.158 51.7138 851.262 47.825 Q856.407 43.9361 866.574 43.9361 L877.026 43.9361 L877.026 43.2069 Q877.026 38.0623 873.623 35.2672 Q870.261 32.4315 864.144 32.4315 Q860.255 32.4315 856.569 33.3632 Q852.882 34.295 849.48 36.1584 L849.48 29.2718 Q853.571 27.692 857.419 26.9223 Q861.268 26.1121 864.914 26.1121 Q874.757 26.1121 879.618 31.2163 Q884.479 36.3204 884.479 46.6907 Z" fill="#000000" fill-rule="evenodd" fill-opacity="1" /><path clip-path="url(#clip980)" d="M 0 0 M929.687 49.3643 Q929.687 41.2625 926.325 36.8065 Q923.003 32.3505 916.968 32.3505 Q910.972 32.3505 907.61 36.8065 Q904.288 41.2625 904.288 49.3643 Q904.288 57.4256 907.61 61.8816 Q910.972 66.3376 916.968 66.3376 Q923.003 66.3376 926.325 61.8816 Q929.687 57.4256 929.687 49.3643 M937.141 66.9452 Q937.141 78.5308 931.996 84.1616 Q926.852 89.8329 916.238 89.8329 Q912.309 89.8329 908.825 89.2252 Q905.342 88.6581 902.06 87.4428 L902.06 80.1917 Q905.342 81.9741 908.542 82.8248 Q911.742 83.6755 915.064 83.6755 Q922.396 83.6755 926.042 79.8271 Q929.687 76.0193 929.687 68.282 L929.687 64.5957 Q927.378 68.6061 923.773 70.5911 Q920.168 72.576 915.145 72.576 Q906.8 72.576 901.696 66.2161 Q896.592 59.8562 896.592 49.3643 Q896.592 38.832 901.696 32.472 Q906.8 26.1121 915.145 26.1121 Q920.168 26.1121 923.773 28.0971 Q927.378 30.082 929.687 34.0924 L929.687 27.2059 L937.141 27.2059 L937.141 66.9452 Z" fill="#000000" fill-rule="evenodd" fill-opacity="1" /><path clip-path="url(#clip980)" d="M 0 0 M991.302 48.0275 L991.302 51.6733 L957.031 51.6733 Q957.517 59.3701 961.649 63.421 Q965.822 67.4314 973.235 67.4314 Q977.529 67.4314 981.539 66.3781 Q985.59 65.3249 989.56 63.2184 L989.56 70.267 Q985.549 71.9684 981.337 72.8596 Q977.124 73.7508 972.789 73.7508 Q961.933 73.7508 955.573 67.4314 Q949.253 61.1119 949.253 50.3365 Q949.253 39.1965 955.249 32.6746 Q961.285 26.1121 971.493 26.1121 Q980.648 26.1121 985.955 32.0264 Q991.302 37.9003 991.302 48.0275 M983.848 45.84 Q983.767 39.7232 980.405 36.0774 Q977.083 32.4315 971.574 32.4315 Q965.335 32.4315 961.568 35.9558 Q957.841 39.4801 957.274 45.8805 L983.848 45.84 Z" fill="#000000" fill-rule="evenodd" fill-opacity="1" /><path clip-path="url(#clip980)" d="M 0 0 M1038.41 18.8205 L1038.41 41.5461 L1048.7 41.5461 Q1054.41 41.5461 1057.53 38.5889 Q1060.65 35.6318 1060.65 30.163 Q1060.65 24.7348 1057.53 21.7777 Q1054.41 18.8205 1048.7 18.8205 L1038.41 18.8205 M1030.23 12.096 L1048.7 12.096 Q1058.87 12.096 1064.06 16.714 Q1069.28 21.2916 1069.28 30.163 Q1069.28 39.1155 1064.06 43.6931 Q1058.87 48.2706 1048.7 48.2706 L1038.41 48.2706 L1038.41 72.576 L1030.23 72.576 L1030.23 12.096 Z" fill="#000000" fill-rule="evenodd" fill-opacity="1" /><path clip-path="url(#clip980)" d="M 0 0 M1117.65 45.1919 L1117.65 72.576 L1110.2 72.576 L1110.2 45.4349 Q1110.2 38.994 1107.68 35.7938 Q1105.17 32.5936 1100.15 32.5936 Q1094.11 32.5936 1090.63 36.4419 Q1087.15 40.2903 1087.15 46.9338 L1087.15 72.576 L1079.65 72.576 L1079.65 9.54393 L1087.15 9.54393 L1087.15 34.2544 Q1089.82 30.163 1093.43 28.1376 Q1097.07 26.1121 1101.81 26.1121 Q1109.63 26.1121 1113.64 30.9732 Q1117.65 35.7938 1117.65 45.1919 Z" fill="#000000" fill-rule="evenodd" fill-opacity="1" /><path clip-path="url(#clip980)" d="M 0 0 M1150.1 32.4315 Q1144.1 32.4315 1140.62 37.1306 Q1137.13 41.7891 1137.13 49.9314 Q1137.13 58.0738 1140.58 62.7728 Q1144.06 67.4314 1150.1 67.4314 Q1156.05 67.4314 1159.54 62.7323 Q1163.02 58.0333 1163.02 49.9314 Q1163.02 41.8701 1159.54 37.1711 Q1156.05 32.4315 1150.1 32.4315 M1150.1 26.1121 Q1159.82 26.1121 1165.37 32.4315 Q1170.92 38.7509 1170.92 49.9314 Q1170.92 61.0714 1165.37 67.4314 Q1159.82 73.7508 1150.1 73.7508 Q1140.33 73.7508 1134.78 67.4314 Q1129.28 61.0714 1129.28 49.9314 Q1129.28 38.7509 1134.78 32.4315 Q1140.33 26.1121 1150.1 26.1121 Z" fill="#000000" fill-rule="evenodd" fill-opacity="1" /><path clip-path="url(#clip980)" d="M 0 0 M1190.65 14.324 L1190.65 27.2059 L1206 27.2059 L1206 32.9987 L1190.65 32.9987 L1190.65 57.6282 Q1190.65 63.1779 1192.15 64.7578 Q1193.68 66.3376 1198.34 66.3376 L1206 66.3376 L1206 72.576 L1198.34 72.576 Q1189.72 72.576 1186.43 69.3758 Q1183.15 66.1351 1183.15 57.6282 L1183.15 32.9987 L1177.68 32.9987 L1177.68 27.2059 L1183.15 27.2059 L1183.15 14.324 L1190.65 14.324 Z" fill="#000000" fill-rule="evenodd" fill-opacity="1" /><path clip-path="url(#clip980)" d="M 0 0 M1233.38 32.4315 Q1227.39 32.4315 1223.9 37.1306 Q1220.42 41.7891 1220.42 49.9314 Q1220.42 58.0738 1223.86 62.7728 Q1227.35 67.4314 1233.38 67.4314 Q1239.34 67.4314 1242.82 62.7323 Q1246.31 58.0333 1246.31 49.9314 Q1246.31 41.8701 1242.82 37.1711 Q1239.34 32.4315 1233.38 32.4315 M1233.38 26.1121 Q1243.11 26.1121 1248.66 32.4315 Q1254.21 38.7509 1254.21 49.9314 Q1254.21 61.0714 1248.66 67.4314 Q1243.11 73.7508 1233.38 73.7508 Q1223.62 73.7508 1218.07 67.4314 Q1212.56 61.0714 1212.56 49.9314 Q1212.56 38.7509 1218.07 32.4315 Q1223.62 26.1121 1233.38 26.1121 Z" fill="#000000" fill-rule="evenodd" fill-opacity="1" /><path clip-path="url(#clip980)" d="M 0 0 M1304.27 45.1919 L1304.27 72.576 L1296.82 72.576 L1296.82 45.4349 Q1296.82 38.994 1294.31 35.7938 Q1291.8 32.5936 1286.77 32.5936 Q1280.74 32.5936 1277.26 36.4419 Q1273.77 40.2903 1273.77 46.9338 L1273.77 72.576 L1266.28 72.576 L1266.28 27.2059 L1273.77 27.2059 L1273.77 34.2544 Q1276.44 30.163 1280.05 28.1376 Q1283.7 26.1121 1288.44 26.1121 Q1296.25 26.1121 1300.26 30.9732 Q1304.27 35.7938 1304.27 45.1919 Z" fill="#000000" fill-rule="evenodd" fill-opacity="1" /><path clip-path="url(#clip980)" d="M 0 0 M1391.13 16.7545 L1391.13 25.383 Q1386.99 21.5346 1382.3 19.6307 Q1377.64 17.7268 1372.37 17.7268 Q1362 17.7268 1356.49 24.0867 Q1350.98 30.4061 1350.98 42.3968 Q1350.98 54.3469 1356.49 60.7069 Q1362 67.0263 1372.37 67.0263 Q1377.64 67.0263 1382.3 65.1223 Q1386.99 63.2184 1391.13 59.3701 L1391.13 67.9175 Q1386.83 70.8341 1382.01 72.2924 Q1377.23 73.7508 1371.88 73.7508 Q1358.15 73.7508 1350.25 65.3654 Q1342.35 56.9395 1342.35 42.3968 Q1342.35 27.8135 1350.25 19.4281 Q1358.15 11.0023 1371.88 11.0023 Q1377.31 11.0023 1382.09 12.4606 Q1386.91 13.8784 1391.13 16.7545 Z" fill="#000000" fill-rule="evenodd" fill-opacity="1" /><path clip-path="url(#clip980)" d="M 0 0 M1421.02 32.4315 Q1415.03 32.4315 1411.54 37.1306 Q1408.06 41.7891 1408.06 49.9314 Q1408.06 58.0738 1411.5 62.7728 Q1414.99 67.4314 1421.02 67.4314 Q1426.98 67.4314 1430.46 62.7323 Q1433.94 58.0333 1433.94 49.9314 Q1433.94 41.8701 1430.46 37.1711 Q1426.98 32.4315 1421.02 32.4315 M1421.02 26.1121 Q1430.74 26.1121 1436.29 32.4315 Q1441.84 38.7509 1441.84 49.9314 Q1441.84 61.0714 1436.29 67.4314 Q1430.74 73.7508 1421.02 73.7508 Q1411.26 73.7508 1405.71 67.4314 Q1400.2 61.0714 1400.2 49.9314 Q1400.2 38.7509 1405.71 32.4315 Q1411.26 26.1121 1421.02 26.1121 Z" fill="#000000" fill-rule="evenodd" fill-opacity="1" /><path clip-path="url(#clip980)" d="M 0 0 M1453.43 54.671 L1453.43 27.2059 L1460.88 27.2059 L1460.88 54.3874 Q1460.88 60.8284 1463.39 64.0691 Q1465.91 67.2693 1470.93 67.2693 Q1476.96 67.2693 1480.45 63.421 Q1483.97 59.5726 1483.97 52.9291 L1483.97 27.2059 L1491.43 27.2059 L1491.43 72.576 L1483.97 72.576 L1483.97 65.6084 Q1481.26 69.7404 1477.65 71.7658 Q1474.09 73.7508 1469.35 73.7508 Q1461.53 73.7508 1457.48 68.8897 Q1453.43 64.0286 1453.43 54.671 M1472.18 26.1121 L1472.18 26.1121 Z" fill="#000000" fill-rule="evenodd" fill-opacity="1" /><path clip-path="url(#clip980)" d="M 0 0 M1544.49 45.1919 L1544.49 72.576 L1537.04 72.576 L1537.04 45.4349 Q1537.04 38.994 1534.53 35.7938 Q1532.02 32.5936 1526.99 32.5936 Q1520.96 32.5936 1517.47 36.4419 Q1513.99 40.2903 1513.99 46.9338 L1513.99 72.576 L1506.5 72.576 L1506.5 27.2059 L1513.99 27.2059 L1513.99 34.2544 Q1516.66 30.163 1520.27 28.1376 Q1523.91 26.1121 1528.65 26.1121 Q1536.47 26.1121 1540.48 30.9732 Q1544.49 35.7938 1544.49 45.1919 Z" fill="#000000" fill-rule="evenodd" fill-opacity="1" /><path clip-path="url(#clip980)" d="M 0 0 M1566.73 14.324 L1566.73 27.2059 L1582.09 27.2059 L1582.09 32.9987 L1566.73 32.9987 L1566.73 57.6282 Q1566.73 63.1779 1568.23 64.7578 Q1569.77 66.3376 1574.43 66.3376 L1582.09 66.3376 L1582.09 72.576 L1574.43 72.576 Q1565.8 72.576 1562.52 69.3758 Q1559.24 66.1351 1559.24 57.6282 L1559.24 32.9987 L1553.77 32.9987 L1553.77 27.2059 L1559.24 27.2059 L1559.24 14.324 L1566.73 14.324 Z" fill="#000000" fill-rule="evenodd" fill-opacity="1" /><path clip-path="url(#clip980)" d="M 0 0 M1620.81 28.5427 L1620.81 35.5912 Q1617.65 33.9709 1614.25 33.1607 Q1610.85 32.3505 1607.2 32.3505 Q1601.65 32.3505 1598.86 34.0519 Q1596.1 35.7533 1596.1 39.156 Q1596.1 41.7486 1598.09 43.2475 Q1600.07 44.7058 1606.07 46.0426 L1608.62 46.6097 Q1616.56 48.3111 1619.88 51.4303 Q1623.24 54.509 1623.24 60.0587 Q1623.24 66.3781 1618.22 70.0644 Q1613.24 73.7508 1604.49 73.7508 Q1600.84 73.7508 1596.87 73.0216 Q1592.94 72.3329 1588.57 70.9151 L1588.57 63.2184 Q1592.7 65.3654 1596.71 66.4591 Q1600.72 67.5124 1604.65 67.5124 Q1609.92 67.5124 1612.75 65.73 Q1615.59 63.9071 1615.59 60.6258 Q1615.59 57.5877 1613.52 55.9673 Q1611.5 54.3469 1604.57 52.8481 L1601.98 52.2405 Q1595.05 50.7821 1591.97 47.7845 Q1588.89 44.7463 1588.89 39.4801 Q1588.89 33.0797 1593.43 29.5959 Q1597.97 26.1121 1606.31 26.1121 Q1610.44 26.1121 1614.09 26.7198 Q1617.73 27.3274 1620.81 28.5427 Z" fill="#000000" fill-rule="evenodd" fill-opacity="1" /><path clip-path="url(#clip980)" d="M 0 0 M1656.14 27.2059 L1664.04 27.2059 L1678.21 65.2844 L1692.39 27.2059 L1700.29 27.2059 L1683.28 72.576 L1673.15 72.576 L1656.14 27.2059 Z" fill="#000000" fill-rule="evenodd" fill-opacity="1" /><path clip-path="url(#clip980)" d="M 0 0 M1739.5 28.5427 L1739.5 35.5912 Q1736.34 33.9709 1732.94 33.1607 Q1729.54 32.3505 1725.89 32.3505 Q1720.34 32.3505 1717.55 34.0519 Q1714.79 35.7533 1714.79 39.156 Q1714.79 41.7486 1716.78 43.2475 Q1718.76 44.7058 1724.76 46.0426 L1727.31 46.6097 Q1735.25 48.3111 1738.57 51.4303 Q1741.93 54.509 1741.93 60.0587 Q1741.93 66.3781 1736.91 70.0644 Q1731.93 73.7508 1723.18 73.7508 Q1719.53 73.7508 1715.56 73.0216 Q1711.63 72.3329 1707.26 70.9151 L1707.26 63.2184 Q1711.39 65.3654 1715.4 66.4591 Q1719.41 67.5124 1723.34 67.5124 Q1728.61 67.5124 1731.44 65.73 Q1734.28 63.9071 1734.28 60.6258 Q1734.28 57.5877 1732.21 55.9673 Q1730.19 54.3469 1723.26 52.8481 L1720.67 52.2405 Q1713.74 50.7821 1710.66 47.7845 Q1707.58 44.7463 1707.58 39.4801 Q1707.58 33.0797 1712.12 29.5959 Q1716.66 26.1121 1725 26.1121 Q1729.13 26.1121 1732.78 26.7198 Q1736.43 27.3274 1739.5 28.5427 Z" fill="#000000" fill-rule="evenodd" fill-opacity="1" /><path clip-path="url(#clip980)" d="M 0 0 M1772.11 12.096 L1823.28 12.096 L1823.28 18.9825 L1801.81 18.9825 L1801.81 72.576 L1793.58 72.576 L1793.58 18.9825 L1772.11 18.9825 L1772.11 12.096 Z" fill="#000000" fill-rule="evenodd" fill-opacity="1" /><path clip-path="url(#clip980)" d="M 0 0 M1828.3 27.2059 L1835.75 27.2059 L1835.75 72.576 L1828.3 72.576 L1828.3 27.2059 M1828.3 9.54393 L1835.75 9.54393 L1835.75 18.9825 L1828.3 18.9825 L1828.3 9.54393 Z" fill="#000000" fill-rule="evenodd" fill-opacity="1" /><path clip-path="url(#clip980)" d="M 0 0 M1886.67 35.9153 Q1889.47 30.8922 1893.36 28.5022 Q1897.25 26.1121 1902.51 26.1121 Q1909.6 26.1121 1913.45 31.0947 Q1917.3 36.0368 1917.3 45.1919 L1917.3 72.576 L1909.8 72.576 L1909.8 45.4349 Q1909.8 38.913 1907.49 35.7533 Q1905.19 32.5936 1900.45 32.5936 Q1894.65 32.5936 1891.29 36.4419 Q1887.93 40.2903 1887.93 46.9338 L1887.93 72.576 L1880.43 72.576 L1880.43 45.4349 Q1880.43 38.8725 1878.13 35.7533 Q1875.82 32.5936 1871 32.5936 Q1865.28 32.5936 1861.92 36.4824 Q1858.56 40.3308 1858.56 46.9338 L1858.56 72.576 L1851.07 72.576 L1851.07 27.2059 L1858.56 27.2059 L1858.56 34.2544 Q1861.11 30.082 1864.68 28.0971 Q1868.24 26.1121 1873.14 26.1121 Q1878.09 26.1121 1881.53 28.6237 Q1885.01 31.1352 1886.67 35.9153 Z" fill="#000000" fill-rule="evenodd" fill-opacity="1" /><path clip-path="url(#clip980)" d="M 0 0 M1970.97 48.0275 L1970.97 51.6733 L1936.7 51.6733 Q1937.19 59.3701 1941.32 63.421 Q1945.49 67.4314 1952.91 67.4314 Q1957.2 67.4314 1961.21 66.3781 Q1965.26 65.3249 1969.23 63.2184 L1969.23 70.267 Q1965.22 71.9684 1961.01 72.8596 Q1956.79 73.7508 1952.46 73.7508 Q1941.6 73.7508 1935.24 67.4314 Q1928.92 61.1119 1928.92 50.3365 Q1928.92 39.1965 1934.92 32.6746 Q1940.96 26.1121 1951.16 26.1121 Q1960.32 26.1121 1965.63 32.0264 Q1970.97 37.9003 1970.97 48.0275 M1963.52 45.84 Q1963.44 39.7232 1960.08 36.0774 Q1956.75 32.4315 1951.24 32.4315 Q1945.01 32.4315 1941.24 35.9558 Q1937.51 39.4801 1936.94 45.8805 L1963.52 45.84 Z" fill="#000000" fill-rule="evenodd" fill-opacity="1" /><polyline clip-path="url(#clip982)" style="stroke:#009af9; stroke-width:4; stroke-opacity:1; fill:none" points="
  423.302,1298.35 424.192,1283.12 425.082,1120.33 425.972,1260.58 426.862,1257.45 427.753,900.891 428.643,1180.41 429.533,1292.49 430.423,1275.74 431.313,1251.13 
  432.203,1169.9 433.093,1213.48 433.983,1167.64 434.873,1293.66 435.763,1232.61 436.653,1236.8 437.543,1318.87 438.433,1319.7 439.323,1322.62 440.213,1267.65 
  441.103,1279.88 441.993,1303.14 442.883,1320.44 443.773,1266.24 444.663,1246.98 445.553,1229.39 446.443,1206.47 447.333,1195.82 448.223,1186.1 449.113,1307.76 
  450.003,1275.5 450.893,1253.95 451.783,1318.36 452.673,1196.07 453.563,1318.46 454.453,1276.2 455.343,1132.26 456.233,1285.38 457.123,1113.24 458.013,1192.7 
  458.903,1268.5 459.793,1265.8 460.683,1299.07 461.574,1301.26 462.464,1218.76 463.354,1103.91 464.244,1324.65 465.134,1284.27 466.024,1286.86 466.914,1274.98 
  467.804,1323.38 468.694,1310.55 469.584,1181.3 470.474,1306.87 471.364,1289.84 472.254,1040.77 473.144,1198.52 474.034,1222.31 474.924,1307.01 475.814,997.869 
  476.704,1292.7 477.594,1271.45 478.484,1301.13 479.374,1265.25 480.264,1238.68 481.154,1301.74 482.044,1275.55 482.934,817.53 483.824,983.805 484.714,1242.37 
  485.604,1292.92 486.494,1214.23 487.384,988.176 488.274,1307.99 489.164,1293.33 490.054,1212.47 490.944,1255.63 491.834,1225 492.724,1315.19 493.614,1258.85 
  494.504,1226.9 495.394,1206.6 496.285,1208.66 497.175,1275.19 498.065,1320.74 498.955,1176.35 499.845,1158.23 500.735,1129.21 501.625,1320.71 502.515,1156.79 
  503.405,1214.75 504.295,1269.9 505.185,1284.97 506.075,1272.78 506.965,1088.98 507.855,1131.03 508.745,1211.47 509.635,1115.2 510.525,1318.24 511.415,1312.41 
  512.305,1278.88 513.195,1238.74 514.085,1249.5 514.975,1317.57 515.865,1318.21 516.755,1223.6 517.645,1260.76 518.535,1250.03 519.425,1099.82 520.315,1267.82 
  521.205,1309.54 522.095,1043.8 522.985,1319.29 523.875,1285.8 524.765,1273.84 525.655,1318 526.545,1197.9 527.435,1257.37 528.325,1316.5 529.215,1216.58 
  530.106,1260.26 530.996,1093.35 531.886,1256.49 532.776,1198.78 533.666,1029.94 534.556,1149.38 535.446,1305.61 536.336,1314.54 537.226,1262.01 538.116,1237.27 
  539.006,1060.74 539.896,1297.21 540.786,1166.91 541.676,1284.58 542.566,1220.28 543.456,1246.17 544.346,1097.96 545.236,1323.84 546.126,1305.42 547.016,1116.36 
  547.906,935.286 548.796,1045.34 549.686,1293.89 550.576,1245.77 551.466,1317.68 552.356,1287.53 553.246,801.295 554.136,979.51 555.026,1232.64 555.916,1199.14 
  556.806,1159.26 557.696,1202.82 558.586,1304.91 559.476,1303.16 560.366,1260.51 561.256,1125.64 562.146,1278.17 563.036,1142.94 563.926,1283.19 564.817,805.267 
  565.707,1269.79 566.597,1220.77 567.487,1235.32 568.377,945.518 569.267,1152.05 570.157,1246.47 571.047,1312.09 571.937,1168.06 572.827,1187.27 573.717,1145.82 
  574.607,1302.61 575.497,1311.19 576.387,1313.28 577.277,1247.19 578.167,1244.55 579.057,1132.5 579.947,954.018 580.837,1150.9 581.727,1324.56 582.617,1217.31 
  583.507,1182.73 584.397,1254.94 585.287,1282.25 586.177,1235.89 587.067,1247.03 587.957,1263.51 588.847,1185.53 589.737,1208.86 590.627,1241.07 591.517,1188 
  592.407,1317.25 593.297,1316.38 594.187,1261.84 595.077,1131.75 595.967,1255.46 596.857,1142.24 597.747,1098.73 598.638,1280.61 599.528,1214.53 600.418,1230.41 
  601.308,1122.32 602.198,938.367 603.088,854.555 603.978,1213.64 604.868,1314.27 605.758,1293.03 606.648,1278.44 607.538,1072.89 608.428,1041.7 609.318,1220 
  610.208,1293.57 611.098,1191.2 611.988,1269.79 612.878,1312.85 613.768,1319.87 614.658,1218.64 615.548,1257.19 616.438,1240.75 617.328,1225.94 618.218,1033.58 
  619.108,1244.67 619.998,1161.74 620.888,1298.08 621.778,1312.22 622.668,1285.55 623.558,1314.28 624.448,1152.7 625.338,1087.85 626.228,745.856 627.118,1061.32 
  628.008,1199.28 628.898,1129.56 629.788,1289.35 630.678,1246.06 631.568,1280.3 632.458,1147.83 633.349,879.272 634.239,1291.76 635.129,1289.1 636.019,1188.88 
  636.909,1303.89 637.799,1298.26 638.689,1318.35 639.579,1298.19 640.469,1247.35 641.359,1198.09 642.249,1036.64 643.139,1206.97 644.029,1275.73 644.919,1288.06 
  645.809,1172.92 646.699,1282.38 647.589,1312.26 648.479,1293.09 649.369,1224.91 650.259,1186.98 651.149,1250.27 652.039,1194.27 652.929,1253.71 653.819,1210.3 
  654.709,1295.58 655.599,1274.52 656.489,1318.98 657.379,1284.09 658.269,1303.6 659.159,1260.14 660.049,1227.07 660.939,1256.65 661.829,1294.01 662.719,1204.19 
  663.609,1305 664.499,1186.04 665.389,1324.83 666.279,1179.65 667.17,995.554 668.06,1219.05 668.95,1217.47 669.84,1103.28 670.73,1192.47 671.62,1206.31 
  672.51,1207.01 673.4,1271.88 674.29,1283.99 675.18,1172.65 676.07,927.434 676.96,1016.48 677.85,1174.67 678.74,1309.53 679.63,1159.81 680.52,1226.54 
  681.41,1255.65 682.3,1262.69 683.19,1252.98 684.08,1320.45 684.97,1273.27 685.86,1158.98 686.75,1220.44 687.64,1320.47 688.53,1273.36 689.42,1292.11 
  690.31,1311.35 691.2,1248.9 692.09,988.823 692.98,1074.08 693.87,1175.25 694.76,1215.84 695.65,1213.62 696.54,1277.49 697.43,1127.82 698.32,1062.15 
  699.21,1322.2 700.1,1323.58 700.99,1159.44 701.881,1243.29 702.771,1197.86 703.661,950.68 704.551,1302.44 705.441,1261.81 706.331,1137.24 707.221,1283.16 
  708.111,1215.14 709.001,1318.66 709.891,1274.68 710.781,1272.64 711.671,1292.51 712.561,1002.72 713.451,1281.27 714.341,1309.33 715.231,1090.77 716.121,1180.82 
  717.011,1238.12 717.901,1274.52 718.791,946.426 719.681,1297.5 720.571,1285.43 721.461,1238.52 722.351,1043.56 723.241,1093.89 724.131,1152.56 725.021,1226.29 
  725.911,1230.47 726.801,1076.96 727.691,1152.57 728.581,1187.97 729.471,966.638 730.361,1126.41 731.251,1111.67 732.141,1250.51 733.031,1169 733.921,1232.6 
  734.811,1311.87 735.702,1160.59 736.592,1098.82 737.482,1210.59 738.372,1305.25 739.262,1292.28 740.152,947.099 741.042,1322.49 741.932,1097.2 742.822,1324.63 
  743.712,1209.4 744.602,1296.65 745.492,1288 746.382,1171.62 747.272,1233.25 748.162,1301.66 749.052,1092.26 749.942,763.231 750.832,1005.36 751.722,1127.74 
  752.612,1320.05 753.502,1007.64 754.392,1260.04 755.282,1310.24 756.172,1295.42 757.062,1256.24 757.952,1307.44 758.842,1277.53 759.732,1262.41 760.622,1307.17 
  761.512,763.971 762.402,972.099 763.292,1318.19 764.182,1287.19 765.072,1088.17 765.962,1210.11 766.852,1304.51 767.742,944.444 768.632,871.935 769.522,1146.8 
  770.413,1314.69 771.303,1172.58 772.193,993.104 773.083,1312.73 773.973,1080.68 774.863,1224.51 775.753,1134.17 776.643,975.185 777.533,1134.53 778.423,1324.69 
  779.313,1159.03 780.203,1283.36 781.093,1219.99 781.983,1298.07 782.873,1320.04 783.763,1267.23 784.653,1034 785.543,1312.53 786.433,1320.48 787.323,1199.09 
  788.213,808.819 789.103,1252.48 789.993,1241.73 790.883,1196.97 791.773,1313.58 792.663,1261.43 793.553,803.544 794.443,1258.37 795.333,1281.43 796.223,1265.47 
  797.113,944.248 798.003,1201.94 798.893,1262.21 799.783,1204.55 800.673,1315.34 801.563,1260.86 802.453,1212.55 803.343,1201.5 804.234,1202.85 805.124,1176.23 
  806.014,1271.16 806.904,1088.86 807.794,891.643 808.684,1006.71 809.574,850.711 810.464,1168.42 811.354,1258.76 812.244,909.29 813.134,1169.7 814.024,1307.65 
  814.914,1317.32 815.804,1081.64 816.694,1071.4 817.584,1236.55 818.474,1307.74 819.364,1299.43 820.254,1201.09 821.144,1176.48 822.034,1155.56 822.924,1082.75 
  823.814,1293.1 824.704,1225.16 825.594,1226.07 826.484,1185.12 827.374,942.165 828.264,1304.54 829.154,1152.51 830.044,1291.76 830.934,1201.49 831.824,1324.2 
  832.714,1155.69 833.604,1117.26 834.494,1197.13 835.384,1124.04 836.274,1284.97 837.164,1315.07 838.054,1279.57 838.945,1321.42 839.835,1289.67 840.725,1285.93 
  841.615,1289.55 842.505,1081.85 843.395,1166.08 844.285,887.861 845.175,1103.74 846.065,1229 846.955,1312.28 847.845,1094.29 848.735,1126.42 849.625,1181.56 
  850.515,1256.72 851.405,1244.92 852.295,1227.31 853.185,1257.59 854.075,1178.86 854.965,1279.6 855.855,989.019 856.745,948.344 857.635,1214.72 858.525,1284.13 
  859.415,1285.19 860.305,1070.24 861.195,905.77 862.085,1304.79 862.975,984.646 863.865,1260.8 864.755,1285.73 865.645,1313.78 866.535,1285.83 867.425,1170.75 
  868.315,1175.28 869.205,1297.38 870.095,1319.84 870.985,1194.46 871.875,1275.8 872.766,1286.01 873.656,1313.65 874.546,1323.65 875.436,1174.05 876.326,1135.65 
  877.216,1144.38 878.106,1089.77 878.996,988.103 879.886,1155.79 880.776,967.628 881.666,1283.39 882.556,1161.9 883.446,1236.73 884.336,1305.08 885.226,1160.48 
  886.116,1290.16 887.006,1266.73 887.896,1305.66 888.786,1085.5 889.676,988.035 890.566,1275.32 891.456,1219.19 892.346,1305.98 893.236,1190.42 894.126,1285.61 
  895.016,1320.88 895.906,1177.73 896.796,1190.15 897.686,1158.34 898.576,1283.58 899.466,1298.28 900.356,1246.04 901.246,1308.8 902.136,1163.02 903.026,1271.02 
  903.916,1284.61 904.806,1291.62 905.696,1213.47 906.586,1292.82 907.477,1032.08 908.367,1078.45 909.257,1199.2 910.147,1309.64 911.037,1310.17 911.927,1184.35 
  912.817,1295.45 913.707,1228.72 914.597,1284.42 915.487,1314.68 916.377,1316.86 917.267,1135.38 918.157,1238.98 919.047,1296.62 919.937,1290.25 920.827,1247.54 
  921.717,1299.72 922.607,1315.42 923.497,1324.62 924.387,1235.6 925.277,1304.5 926.167,1141.13 927.057,1126.04 927.947,1209.07 928.837,1279.85 929.727,1253.33 
  930.617,1192.37 931.507,1209.9 932.397,1205.46 933.287,1277.51 934.177,1299.45 935.067,1185.35 935.957,1145.15 936.847,1043.41 937.737,1209.95 938.627,1087.17 
  939.517,1282.27 940.407,1299.72 941.298,1267.65 942.188,1223.18 943.078,1038.51 943.968,1234.43 944.858,1068.26 945.748,1174.94 946.638,1227.62 947.528,1118.26 
  948.418,1277.01 949.308,982.221 950.198,1308.18 951.088,816.355 951.978,1276.92 952.868,1230.02 953.758,1324.16 954.648,1220.11 955.538,1027.23 956.428,883.178 
  957.318,811.611 958.208,1323.36 959.098,1203.06 959.988,1286.84 960.878,1169.21 961.768,1267.25 962.658,1321.9 963.548,1275.41 964.438,1299.64 965.328,1304.14 
  966.218,1234.81 967.108,1277.68 967.998,1222.42 968.888,1216.67 969.778,1033.1 970.668,1291.95 971.558,1132.61 972.448,1078.03 973.338,1279.91 974.228,1305.77 
  975.118,959.396 976.009,1040.73 976.899,1282.44 977.789,1294.17 978.679,1064.96 979.569,1284.05 980.459,1296.66 981.349,1221.09 982.239,1165 983.129,1324.38 
  984.019,1072.53 984.909,973.384 985.799,1130.14 986.689,1280.6 987.579,887.712 988.469,1010.08 989.359,1016.88 990.249,955.642 991.139,1206.55 992.029,1289.33 
  992.919,1194.16 993.809,1321.34 994.699,913.62 995.589,772.116 996.479,1055.05 997.369,1286.69 998.259,1151.88 999.149,1204.54 1000.04,1318.37 1000.93,1313.2 
  1001.82,1235.07 1002.71,1323.5 1003.6,1131.27 1004.49,990.575 1005.38,1281.99 1006.27,1153.8 1007.16,1266.54 1008.05,1250.07 1008.94,1310.39 1009.83,1216.48 
  1010.72,1171.17 1011.61,1233.29 1012.5,1026.88 1013.39,964.133 1014.28,1301.92 1015.17,1269.52 1016.06,1246.09 1016.95,1283.49 1017.84,1298.39 1018.73,1247.15 
  1019.62,1001.64 1020.51,1310.79 1021.4,1254.56 1022.29,1198.3 1023.18,1215.46 1024.07,1257.61 1024.96,1218.73 1025.85,1300.36 1026.74,1261.76 1027.63,1309.03 
  1028.52,1122.56 1029.41,1086.14 1030.3,1034.09 1031.19,958.852 1032.08,1265.43 1032.97,1120.17 1033.86,1136.98 1034.75,1316.82 1035.64,1139.92 1036.53,711.151 
  1037.42,1267.54 1038.31,1161.37 1039.2,1162.31 1040.09,852.135 1040.98,1278.08 1041.87,1054.77 1042.76,1163.98 1043.65,1299.22 1044.54,1264.77 1045.43,1222.42 
  1046.32,1189.83 1047.21,1095.23 1048.1,961.721 1048.99,1245.42 1049.88,1222.75 1050.77,1275.33 1051.66,1259.91 1052.55,1233.74 1053.44,1297.37 1054.33,1117.07 
  1055.22,1122.27 1056.11,1061.31 1057,1113.93 1057.89,1101.81 1058.78,1208.64 1059.67,1125.48 1060.56,1305.78 1061.45,1309.07 1062.34,1040.4 1063.23,1118.47 
  1064.12,1045.9 1065.01,944.798 1065.9,1264.6 1066.79,1317.23 1067.68,1073.9 1068.57,1073.49 1069.46,1183.52 1070.35,1209.13 1071.24,1203.18 1072.13,1303.79 
  1073.02,1226.16 1073.91,1315.57 1074.8,1270.16 1075.69,1295.42 1076.58,1212.87 1077.47,1291.62 1078.36,1272.16 1079.25,1129.14 1080.14,1213 1081.03,1281.18 
  1081.92,1257.72 1082.81,1288.02 1083.7,1297.92 1084.59,1115.53 1085.48,1285.27 1086.37,1296.01 1087.26,1166.1 1088.15,1189.08 1089.04,1203.48 1089.93,1290.86 
  1090.82,1232.97 1091.71,1270.18 1092.6,1247.62 1093.49,1269.73 1094.38,1157.18 1095.27,1310.79 1096.16,1162.3 1097.05,1215.23 1097.94,1305.79 1098.83,1143.55 
  1099.72,1207.95 1100.61,1198.27 1101.5,1295.55 1102.39,1154.9 1103.28,1194.41 1104.17,1321.44 1105.06,1322.8 1105.95,1261.96 1106.84,1312.74 1107.73,1274.07 
  1108.62,1283.36 1109.51,1322.95 1110.4,1303.96 1111.29,938.634 1112.18,1165.65 1113.07,1324.46 1113.96,1130.55 1114.85,1294.94 1115.74,1310.76 1116.63,1282.65 
  1117.52,1146.54 1118.41,1027.8 1119.3,1285.03 1120.19,1264.03 1121.08,1244.74 1121.97,1163.6 1122.86,1297.14 1123.75,1299.17 1124.64,1218.26 1125.53,1142.75 
  1126.42,1315.69 1127.31,1270.43 1128.2,820.488 1129.09,1019.5 1129.98,1259.36 1130.87,1259.14 1131.76,1229.62 1132.65,1178.24 1133.54,1155.4 1134.43,1278.08 
  1135.32,1293.43 1136.21,1126.45 1137.1,826.869 1137.99,882.998 1138.88,1017.36 1139.77,1164.42 1140.66,1284.33 1141.55,1240.74 1142.44,1303.75 1143.33,1160.64 
  1144.22,1214.89 1145.11,1298.87 1146,1322.49 1146.89,1106.4 1147.78,1002.19 1148.67,1117.33 1149.56,1180.2 1150.45,792.794 1151.34,828.111 1152.23,1281.32 
  1153.12,1218.79 1154.01,1243.96 1154.9,1218.27 1155.79,1310.86 1156.68,1256.86 1157.57,1260.42 1158.46,1291.09 1159.35,1152.99 1160.24,1119.07 1161.13,1212.98 
  1162.02,1281.03 1162.91,995.192 1163.8,1196.9 1164.69,925.1 1165.58,1272.31 1166.47,1079.12 1167.36,1195.94 1168.25,1293.35 1169.14,1265.79 1170.03,1291.54 
  1170.92,1230.4 1171.81,1210.88 1172.7,1303.09 1173.59,1091.22 1174.48,1183.51 1175.37,1262.08 1176.26,1293.7 1177.15,1294.56 1178.04,1243.63 1178.93,1169.63 
  1179.82,892.614 1180.71,1203 1181.6,1191.29 1182.49,818.561 1183.38,700.063 1184.27,1317.37 1185.16,1291.16 1186.05,904.347 1186.94,1242.15 1187.83,1267.47 
  1188.72,1082.15 1189.61,1043.94 1190.5,1263.66 1191.39,1199.06 1192.28,1215.76 1193.17,1217.53 1194.06,1151.58 1194.95,1274.83 1195.84,1261.33 1196.73,1288.55 
  1197.62,1234.76 1198.52,1135.58 1199.41,1184.92 1200.3,1322.15 1201.19,903.374 1202.08,1129.78 1202.97,1317.23 1203.86,1266.77 1204.75,1281.34 1205.64,1257.56 
  1206.53,1215.97 1207.42,1089.13 1208.31,957.991 1209.2,929.973 1210.09,1232.75 1210.98,1210.87 1211.87,846.981 1212.76,952.811 1213.65,1241.53 1214.54,1291.44 
  1215.43,1291.09 1216.32,1275.77 1217.21,1235.25 1218.1,1289.47 1218.99,1263.46 1219.88,1130.92 1220.77,1286.7 1221.66,1045.8 1222.55,734.005 1223.44,1125.08 
  1224.33,1196.98 1225.22,1308.96 1226.11,1248.09 1227,1116.97 1227.89,960.361 1228.78,1107.33 1229.67,1267.29 1230.56,1124.53 1231.45,1317.55 1232.34,1080.67 
  1233.23,518.298 1234.12,1008.63 1235.01,1191.9 1235.9,1275.83 1236.79,1224.17 1237.68,1247.57 1238.57,1252.55 1239.46,1289.64 1240.35,1142.79 1241.24,1235.76 
  1242.13,1182.42 1243.02,1252.28 1243.91,959.747 1244.8,1019.47 1245.69,1292.22 1246.58,1309.71 1247.47,1217.61 1248.36,1295.57 1249.25,1180.43 1250.14,1013.33 
  1251.03,1186.91 1251.92,1048.5 1252.81,1250.02 1253.7,1236.87 1254.59,1219.17 1255.48,1228.54 1256.37,1308.17 1257.26,1311.81 1258.15,1131 1259.04,1116.18 
  1259.93,1188.39 1260.82,1268.18 1261.71,1259.62 1262.6,1277.11 1263.49,1311.61 1264.38,1198.28 1265.27,1293.01 1266.16,1281.61 1267.05,1300.93 1267.94,1234.61 
  1268.83,1266.48 1269.72,1258.74 1270.61,1321.42 1271.5,1112.4 1272.39,1304.72 1273.28,1073.21 1274.17,1267.14 1275.06,1277.25 1275.95,1302.94 1276.84,1262.03 
  1277.73,1094.66 1278.62,1270.34 1279.51,1187.94 1280.4,1227.39 1281.29,994.39 1282.18,878.117 1283.07,974.657 1283.96,1323.12 1284.85,1259.48 1285.74,1208.9 
  1286.63,1149.98 1287.52,1277.32 1288.41,1243.74 1289.3,1301.72 1290.19,1279.89 1291.08,1275.93 1291.97,1287.19 1292.86,1247.14 1293.75,1243.91 1294.64,1303.3 
  1295.53,1207.64 1296.42,1313.36 1297.31,1258.39 1298.2,1058.08 1299.09,1291.45 1299.98,1146.71 1300.87,1289.56 1301.76,1318.93 1302.65,1221.69 1303.54,1152.26 
  1304.43,1249.56 1305.32,1295.6 1306.21,1273.67 1307.1,1275.53 1307.99,1281.1 1308.88,1294.7 1309.77,1274 1310.66,1112.52 1311.55,1307.97 1312.44,1090.48 
  1313.33,1204.31 1314.22,1292.78 1315.11,1321.42 1316,1239.27 1316.89,1286.71 1317.78,1301.32 1318.67,1190.54 1319.56,1074.05 1320.45,1284.77 1321.34,1161.24 
  1322.23,1294.79 1323.12,1166.13 1324.01,1290.85 1324.9,1287.21 1325.79,1270.69 1326.68,1303.35 1327.57,1237.7 1328.46,1264.08 1329.35,1289.32 1330.24,1303.61 
  1331.13,1211.65 1332.02,1288.71 1332.91,1180.05 1333.8,1160.36 1334.69,1080.66 1335.58,1321.2 1336.47,1273.18 1337.36,1227.7 1338.25,1036.67 1339.14,1302.96 
  1340.03,1273.93 1340.92,1301.3 1341.81,1178.81 1342.7,1279.01 1343.59,1126.26 1344.48,1172.38 1345.37,1306.74 1346.26,1322.75 1347.15,1226.63 1348.04,1315.17 
  1348.93,1307.37 1349.82,1308.16 1350.71,1317.46 1351.6,1275.63 1352.49,1275.11 1353.38,1077.98 1354.27,832.296 1355.16,1276.12 1356.05,1279.94 1356.94,1272.24 
  1357.83,1195.2 1358.72,1305.1 1359.61,1296.82 1360.5,1134.75 1361.39,674.063 1362.28,817.936 1363.17,1245.09 1364.06,1186.06 1364.95,1199.42 1365.84,1210.6 
  1366.73,1269.36 1367.62,1277.6 1368.51,1109.74 1369.4,1207.07 1370.29,1266.12 1371.18,1169.22 1372.07,1077.82 1372.96,1297.93 1373.85,1210.88 1374.74,1264.65 
  1375.63,1310.61 1376.52,1176.87 1377.41,1144.48 1378.3,1212.05 1379.19,1277.94 1380.08,1301.39 1380.97,1314.3 1381.86,1136.77 1382.75,1314.19 1383.64,1318.56 
  1384.53,1305.74 1385.42,1130.14 1386.31,1315.29 1387.2,1030.53 1388.09,1030.51 1388.98,1318.19 1389.87,1219.91 1390.76,1277.23 1391.65,1161.8 1392.54,1138.58 
  1393.43,1043.1 1394.32,1029.68 1395.21,1210.5 1396.1,1102.78 1396.99,972.258 1397.88,1253.77 1398.77,1191.86 1399.66,759.509 1400.55,1237.14 1401.44,1142.39 
  1402.33,1038.78 1403.22,1103.1 1404.11,1236.3 1405,841.649 1405.89,1089.87 1406.78,1056.09 1407.67,1304.88 1408.56,1311.48 1409.45,1291.2 1410.34,1279.93 
  1411.23,1319.18 1412.12,1253.97 1413.01,1161.65 1413.9,974.017 1414.79,986.126 1415.68,1260.91 1416.57,1290.51 1417.46,1316.1 1418.35,1301.58 1419.24,1097.66 
  1420.13,1105.58 1421.02,1298.56 1421.91,1315.6 1422.8,987.726 1423.69,1038.36 1424.58,1213.48 1425.47,976.275 1426.36,1050.83 1427.25,1302.95 1428.14,1179.99 
  1429.03,847.133 1429.92,1181.42 1430.81,726.783 1431.7,1194.56 1432.59,1186.61 1433.48,1220.37 1434.37,1310.33 1435.26,1298.45 1436.15,978.919 1437.04,569.291 
  1437.93,1013.03 1438.82,1206.32 1439.71,1221.9 1440.6,1295.42 1441.49,1125.2 1442.38,1301.78 1443.27,1173.41 1444.16,1322.01 1445.05,1260.17 1445.94,1297.36 
  1446.83,1174.8 1447.72,1061.54 1448.61,1227.58 1449.5,1054.65 1450.39,1143.85 1451.28,1294.08 1452.17,1280.99 1453.06,1284.46 1453.95,1195.25 1454.84,1162.14 
  1455.73,1320.85 1456.62,1117.03 1457.51,967.236 1458.4,1240.21 1459.29,1269.47 1460.18,1159.29 1461.07,965.572 1461.96,1050.89 1462.85,1208.84 1463.74,1015.7 
  1464.63,974.016 1465.52,1183.21 1466.41,1289.36 1467.3,1283.69 1468.19,974.364 1469.08,1205.88 1469.97,1293.28 1470.86,1223.28 1471.75,1303.82 1472.64,1217.1 
  1473.53,1220.9 1474.42,1149.27 1475.31,926.135 1476.2,1196.71 1477.09,1310.04 1477.98,1247.24 1478.87,1108.48 1479.76,1270.37 1480.65,1178.43 1481.54,1321.61 
  1482.43,896.483 1483.32,1133.83 1484.21,1321.36 1485.1,1260.34 1485.99,1214.68 1486.88,1038.7 1487.77,1277.99 1488.66,1223.31 1489.55,1189.8 1490.44,1279.6 
  1491.33,1122.76 1492.22,1261.04 1493.11,1178.44 1494,1304.72 1494.89,1268.49 1495.78,1245.94 1496.67,1268.78 1497.56,1221.39 1498.45,1316.74 1499.34,1226.44 
  1500.23,1299.95 1501.12,1251.56 1502.01,1303.8 1502.9,1245.05 1503.79,1211.4 1504.68,1322.89 1505.57,1322.21 1506.46,1289.51 1507.35,1279.13 1508.24,1191.44 
  1509.13,1298.31 1510.02,1250.23 1510.91,1289.4 1511.8,1214.26 1512.69,1303.55 1513.58,1313.46 1514.47,1317.04 1515.36,1311.27 1516.25,1275.4 1517.14,1319.93 
  1518.03,1311.42 1518.92,1206.89 1519.81,1287.63 1520.7,1235.73 1521.59,770.037 1522.48,1112.44 1523.37,1275.86 1524.26,1055.36 1525.15,1285.01 1526.04,1291.59 
  1526.93,869.782 1527.82,1163.75 1528.71,1207.86 1529.6,1271.2 1530.49,959.522 1531.38,1238.5 1532.27,1296.9 1533.16,1251.72 1534.05,1299.85 1534.94,1258.43 
  1535.83,1213.8 1536.72,1084.39 1537.61,1314.04 1538.5,1152.5 1539.39,1125.58 1540.28,1072.74 1541.18,1147.53 1542.07,1247.67 1542.96,1268.61 1543.85,1123.4 
  1544.74,1172.6 1545.63,1250.41 1546.52,1310.05 1547.41,1302.3 1548.3,1321.12 1549.19,1083.65 1550.08,1196.85 1550.97,1303.29 1551.86,1306.44 1552.75,1292.17 
  1553.64,1320.93 1554.53,1211.35 1555.42,1308.63 1556.31,1194.28 1557.2,1180.44 1558.09,1062.77 1558.98,816.081 1559.87,1117.91 1560.76,906.965 1561.65,915.777 
  1562.54,1215.72 1563.43,1271.08 1564.32,1324.11 1565.21,1239.21 1566.1,1040.4 1566.99,961.159 1567.88,1211 1568.77,1192.01 1569.66,1163.44 1570.55,1268.62 
  1571.44,968.335 1572.33,1260.22 1573.22,1122.64 1574.11,1294.57 1575,1217.18 1575.89,1313.79 1576.78,1273.31 1577.67,944.714 1578.56,923.42 1579.45,1202.54 
  1580.34,1299.23 1581.23,1150.69 1582.12,1134.36 1583.01,1265.08 1583.9,1252.24 1584.79,1172.97 1585.68,1182.59 1586.57,1289.03 1587.46,1289.18 1588.35,1312.08 
  1589.24,1279.08 1590.13,779.157 1591.02,1050.45 1591.91,1221.94 1592.8,1247.5 1593.69,1116.42 1594.58,1319.42 1595.47,1290.59 1596.36,1070.23 1597.25,1124.94 
  1598.14,1284.45 1599.03,1262.36 1599.92,1318.31 1600.81,1159.26 1601.7,1192.84 1602.59,1258.14 1603.48,1289.62 1604.37,1225.25 1605.26,1302.14 1606.15,1261.73 
  1607.04,1322.73 1607.93,1281.55 1608.82,1240.88 1609.71,1290.95 1610.6,819.624 1611.49,931.406 1612.38,1109.85 1613.27,1266.52 1614.16,1323.82 1615.05,1266.7 
  1615.94,1130.04 1616.83,1201.8 1617.72,1312.14 1618.61,1123.4 1619.5,1236.39 1620.39,1315.28 1621.28,1228.65 1622.17,1013.94 1623.06,1120.29 1623.95,1160.79 
  1624.84,1304.11 1625.73,1250.05 1626.62,1150 1627.51,1271.97 1628.4,1317.26 1629.29,1232.53 1630.18,1167.14 1631.07,1163.06 1631.96,1305.41 1632.85,1195.72 
  1633.74,1208.09 1634.63,1237.1 1635.52,1319.66 1636.41,1106.76 1637.3,1223.59 1638.19,1262.33 1639.08,1176.37 1639.97,651.356 1640.86,806.52 1641.75,1145.07 
  1642.64,1246.14 1643.53,1278.74 1644.42,930.619 1645.31,1100.61 1646.2,1277.06 1647.09,927.464 1647.98,1225.22 1648.87,1318.83 1649.76,1256.63 1650.65,1166.4 
  1651.54,1317.12 1652.43,1260.38 1653.32,1259.23 1654.21,1163.51 1655.1,1267.9 1655.99,1262.1 1656.88,1270.67 1657.77,1088.88 1658.66,1307.53 1659.55,1135.24 
  1660.44,1292.91 1661.33,1213.68 1662.22,1315.5 1663.11,1206.68 1664,1285.86 1664.89,1265.49 1665.78,1106.84 1666.67,1234.87 1667.56,1237.76 1668.45,1282.5 
  1669.34,1248.27 1670.23,990.576 1671.12,1026.68 1672.01,1131.07 1672.9,1119.02 1673.79,1288.1 1674.68,1293.26 1675.57,1242.54 1676.46,1282.98 1677.35,1170.79 
  1678.24,1237.14 1679.13,1155.5 1680.02,1143.77 1680.91,1277.41 1681.8,1184.19 1682.69,1153.65 1683.58,1320.16 1684.47,1260 1685.36,1190.65 1686.25,1319.49 
  1687.14,1235.94 1688.03,1184.3 1688.92,738.781 1689.81,846.419 1690.7,1136.77 1691.59,1220.96 1692.48,1104.62 1693.37,1152.91 1694.26,1269.26 1695.15,1010.9 
  1696.04,1051.92 1696.93,1238.43 1697.82,1309.44 1698.71,1219.59 1699.6,1230.49 1700.49,1176.92 1701.38,1170.94 1702.27,1039.31 1703.16,1227.86 1704.05,1206.99 
  1704.94,1204.22 1705.83,1232.27 1706.72,1270.56 1707.61,1244.52 1708.5,1201.22 1709.39,1296.51 1710.28,1274.75 1711.17,1313.97 1712.06,1140.17 1712.95,1137.22 
  1713.84,1101.91 1714.73,1244.7 1715.62,1198.48 1716.51,1227.36 1717.4,1321.49 1718.29,1250.07 1719.18,1226.83 1720.07,1224.25 1720.96,1273.28 1721.85,1194.32 
  1722.74,1294.8 1723.63,1174.29 1724.52,1300.14 1725.41,1280.58 1726.3,1185.93 1727.19,1253.56 1728.08,856.64 1728.97,956.931 1729.86,1121.19 1730.75,1254.65 
  1731.64,1046.82 1732.53,1173.92 1733.42,1194.65 1734.31,1127.15 1735.2,1160.55 1736.09,1307.94 1736.98,1249.08 1737.87,1218.97 1738.76,1128.33 1739.65,1187.83 
  1740.54,1244.56 1741.43,1284.07 1742.32,1300.28 1743.21,1296.05 1744.1,1283.55 1744.99,1308.52 1745.88,1291.42 1746.77,1276.53 1747.66,1185.62 1748.55,1215.39 
  1749.44,1302.34 1750.33,1027.19 1751.22,1255.92 1752.11,1177.76 1753,1323.19 1753.89,1241.41 1754.78,1183.92 1755.67,1241.23 1756.56,1321.95 1757.45,1296.56 
  1758.34,1076.12 1759.23,1155.18 1760.12,1214.66 1761.01,1246.34 1761.9,1084.48 1762.79,835.659 1763.68,1010.59 1764.57,1071.02 1765.46,1303.48 1766.35,1311.43 
  1767.24,1224.3 1768.13,1277.91 1769.02,1209.3 1769.91,1304.94 1770.8,1160.98 1771.69,1297.69 1772.58,1017.33 1773.47,1162.09 1774.36,1290.55 1775.25,1153.06 
  1776.14,1186.6 1777.03,1313.55 1777.92,1275.78 1778.81,1201.02 1779.7,1320.47 1780.59,1064.65 1781.48,1213.6 1782.37,1163.56 1783.26,1278.14 1784.15,1297.34 
  1785.04,1274.49 1785.93,1314.51 1786.82,1318.87 1787.71,1218.76 1788.6,1293.56 1789.49,1322.87 1790.38,1310.35 1791.27,1085.48 1792.16,1222.09 1793.05,1281.11 
  1793.94,1278.06 1794.83,1013.08 1795.72,968.918 1796.61,1265.68 1797.5,1188.8 1798.39,865.215 1799.28,1194.32 1800.17,1257.57 1801.06,1155.82 1801.95,1312.16 
  1802.84,1322.11 1803.73,977.753 1804.62,1146.62 1805.51,1279.34 1806.4,1238.21 1807.29,1070.28 1808.18,1279.07 1809.07,1191.98 1809.96,158.463 1810.85,676.583 
  1811.74,1099.75 1812.63,1316.51 1813.52,1220.24 1814.41,1321.55 1815.3,1224.5 1816.19,1313.59 1817.08,997.28 1817.97,862.47 1818.86,1296.85 1819.75,1275.75 
  1820.64,1006.21 1821.53,1016.41 1822.42,1289.72 1823.31,1114.35 1824.2,1207.79 1825.09,1242.03 1825.98,1225.37 1826.87,1247.66 1827.76,1145.37 1828.65,1281.6 
  1829.54,1170.06 1830.43,1163.37 1831.32,1299.9 1832.21,1250.3 1833.1,1108.42 1833.99,1272.89 1834.88,1294.72 1835.77,1083.29 1836.66,1093.63 1837.55,1270.67 
  1838.44,1313.83 1839.33,1138.01 1840.22,1284.63 1841.11,1298.13 1842,1316.39 1842.89,1300.51 1843.78,1183.62 1844.67,1096.29 1845.56,1254.99 1846.45,1299.42 
  1847.34,1155.22 1848.23,1187.82 1849.12,1128.69 1850.01,1256.01 1850.9,1164.12 1851.79,1018.08 1852.68,1005.19 1853.57,1179.27 1854.46,1289.73 1855.35,1225.23 
  1856.24,966.096 1857.13,1220.62 1858.02,1206.55 1858.91,1305.45 1859.8,1184.88 1860.69,1122.27 1861.58,1049.68 1862.47,1238.08 1863.36,1301.27 1864.25,1220.88 
  1865.14,1256.42 1866.03,1310.72 1866.92,1314.06 1867.81,1112.11 1868.7,1189.62 1869.59,1247.24 1870.48,1076.95 1871.37,763.374 1872.26,1250.95 1873.15,1313.3 
  1874.04,1314.04 1874.93,1291.47 1875.82,1308.82 1876.71,1287.2 1877.6,1281.97 1878.49,1181.01 1879.38,1167.25 1880.27,1210.51 1881.16,1132.84 1882.05,1195.82 
  1882.94,1173.34 1883.84,1203.76 1884.73,1276.92 1885.62,1231.23 1886.51,1193.41 1887.4,708.033 1888.29,1260.61 1889.18,981.792 1890.07,869.546 1890.96,867.673 
  1891.85,774.64 1892.74,1185.39 1893.63,1314.22 1894.52,1264.4 1895.41,1318.41 1896.3,1312.26 1897.19,1319.11 1898.08,1217.53 1898.97,1202.5 1899.86,1321.33 
  1900.75,1300.34 1901.64,1279.27 1902.53,1144.28 1903.42,1059.29 1904.31,806.922 1905.2,1076.74 1906.09,1298.98 1906.98,1299.2 1907.87,1154.91 1908.76,940.603 
  1909.65,1069.17 1910.54,1246.97 1911.43,1313.65 1912.32,1306.55 1913.21,1321.35 1914.1,1265.12 1914.99,1218.87 1915.88,1035.4 1916.77,1151.99 1917.66,942.645 
  1918.55,1253.02 1919.44,1286.91 1920.33,1216.07 1921.22,1231.08 1922.11,1152.39 1923,1236.68 1923.89,1310.62 1924.78,1190.97 1925.67,1124.11 1926.56,1312.3 
  1927.45,1281.03 1928.34,1199.29 1929.23,1245.44 1930.12,1313.77 1931.01,1308.97 1931.9,1306.15 1932.79,1177.41 1933.68,1308.17 1934.57,1192.55 1935.46,1284.1 
  1936.35,1316.97 1937.24,1186.69 1938.13,1167.93 1939.02,1172.16 1939.91,1319.57 1940.8,972.063 1941.69,906.475 1942.58,1206.68 1943.47,1075.59 1944.36,1263.48 
  1945.25,1286.45 1946.14,1323.98 1947.03,1080.31 1947.92,1173.65 1948.81,1281.09 1949.7,1014.13 1950.59,1183.77 1951.48,1263.83 1952.37,1107.55 1953.26,1226.91 
  1954.15,1277.17 1955.04,1312.7 1955.93,1261.54 1956.82,1271.38 1957.71,1274.29 1958.6,1311.66 1959.49,894.379 1960.38,1197.7 1961.27,1275.53 1962.16,1291.32 
  1963.05,1257.38 1963.94,1264.36 1964.83,1266.11 1965.72,1225.12 1966.61,342.412 1967.5,1054.65 1968.39,1285.66 1969.28,1258.46 1970.17,1301 1971.06,1244.68 
  1971.95,1142.85 1972.84,1026.3 1973.73,996.112 1974.62,904.404 1975.51,1183.11 1976.4,1154.26 1977.29,1155.93 1978.18,1269.44 1979.07,1285.77 1979.96,625.954 
  1980.85,939.549 1981.74,1219.97 1982.63,1159.07 1983.52,1242.87 1984.41,1321.92 1985.3,1294.85 1986.19,1320.41 1987.08,1191.11 1987.97,1315.87 1988.86,978.643 
  1989.75,924.549 1990.64,1122.86 1991.53,1309.99 1992.42,1322.94 1993.31,1318.19 1994.2,1270.49 1995.09,1283.42 1995.98,1289.8 1996.87,1288.06 1997.76,1249.51 
  1998.65,1270.49 1999.54,1288.68 2000.43,1260.13 2001.32,1225.77 2002.21,1128.09 2003.1,970.667 2003.99,1018.2 2004.88,1080.71 2005.77,1275.95 2006.66,1288 
  2007.55,1236.45 2008.44,1260.92 2009.33,1234.75 2010.22,1181.24 2011.11,1165.65 2012,1207.16 2012.89,1168.68 2013.78,1145.65 2014.67,1143.28 2015.56,1305.43 
  2016.45,1121.1 2017.34,1074.95 2018.23,1067.26 2019.12,1037.49 2020.01,1222.42 2020.9,1218.57 2021.79,1277.18 2022.68,1107.75 2023.57,785.46 2024.46,1160.02 
  2025.35,1294.89 2026.24,1174.18 2027.13,1212.93 2028.02,1321.56 2028.91,1200.09 2029.8,1239.91 2030.69,1075.12 2031.58,1178.22 2032.47,1292.96 2033.36,1306.17 
  2034.25,1290.34 2035.14,1243.34 2036.03,1315.38 2036.92,1073.13 2037.81,1147.43 2038.7,1310.63 2039.59,1292.06 2040.48,1069.52 2041.37,915.907 2042.26,1227.85 
  2043.15,1287.02 2044.04,1313.48 2044.93,1114.76 2045.82,1254.98 2046.71,828.614 2047.6,1245.84 2048.49,1001.53 2049.38,1175.52 2050.27,333.795 2051.16,1007.32 
  2052.05,1304.79 2052.94,1180.33 2053.83,1250.46 2054.72,1134.35 2055.61,1276.83 2056.5,1154.51 2057.39,1113.54 2058.28,1265.1 2059.17,1230.26 2060.06,1182.04 
  2060.95,1288.65 2061.84,1280.75 2062.73,1288.89 2063.62,1146.62 2064.51,1312.03 2065.4,1239.39 2066.29,1154.7 2067.18,1159.74 2068.07,1297.58 2068.96,1175.52 
  2069.85,1186.81 2070.74,1240.5 2071.63,1308.34 2072.52,1324.74 2073.41,1198.67 2074.3,877.232 2075.19,1085.31 2076.08,1311.64 2076.97,1292.08 2077.86,1217 
  2078.75,1230.52 2079.64,1312.29 2080.53,1313.2 2081.42,1269.7 2082.31,1214.98 2083.2,1168.43 2084.09,684.192 2084.98,915.309 2085.87,1301.83 2086.76,1311.2 
  2087.65,1195.26 2088.54,1315.34 2089.43,1270.5 2090.32,1267.79 2091.21,1303.84 2092.1,1320.52 2092.99,1277.3 2093.88,1308.88 2094.77,1177.82 2095.66,1138.12 
  2096.55,822.848 2097.44,1201.82 2098.33,1204.64 2099.22,1288.76 2100.11,1292.68 2101,1286.36 2101.89,1176.3 2102.78,1034.8 2103.67,253.784 2104.56,1175.63 
  2105.45,1290.97 2106.34,1195.28 2107.23,1278.9 2108.12,1237.46 2109.01,1296.77 2109.9,1161.54 2110.79,1313.31 2111.68,1176.17 2112.57,1197.84 2113.46,1284.82 
  2114.35,1283.11 2115.24,1213.92 2116.13,1239.17 2117.02,1233.65 2117.91,1203.52 2118.8,982.368 2119.69,1218.69 2120.58,660.462 2121.47,692.215 2122.36,1286.75 
  2123.25,1308.25 2124.14,1314.78 2125.03,1280.38 2125.92,1115.04 2126.81,1178.46 2127.7,1315.27 2128.59,1211.9 2129.48,1188.22 2130.37,1294.52 2131.26,1177.92 
  2132.15,1198.05 2133.04,1246.61 2133.93,1317.16 2134.82,1176.75 2135.71,1245.31 2136.6,1002.53 2137.49,1076.53 2138.38,1155.81 2139.27,1104.12 2140.16,1318.06 
  2141.05,1305.62 2141.94,1224.41 2142.83,1082.06 2143.72,635.545 2144.61,1022.46 2145.5,1233.04 2146.39,576.439 2147.28,1010.7 2148.17,1258.86 2149.06,1216.1 
  2149.95,1274.43 2150.84,1288.32 2151.73,1179.65 2152.62,1270.69 2153.51,1195.84 2154.4,1271.33 2155.29,1301.98 2156.18,1269.74 2157.07,1314.14 2157.96,1294.65 
  2158.85,851.508 2159.74,1061.85 2160.63,1168.67 2161.52,1315.22 2162.41,1313.69 2163.3,1224.2 2164.19,1262.09 2165.08,1244.68 2165.97,1203.32 2166.86,1123.78 
  2167.75,1288.25 2168.64,1298.04 2169.53,1293.13 2170.42,1303.85 2171.31,1292.95 2172.2,1275.22 2173.09,978.217 2173.98,1171.93 2174.87,1090.08 2175.76,1032.21 
  2176.65,1087.6 2177.54,1319.16 2178.43,1219.87 2179.32,1199.11 2180.21,1116.08 2181.1,833.037 2181.99,1221.18 2182.88,1293.22 2183.77,1234.85 2184.66,1280.04 
  2185.55,1236.92 2186.44,1283.87 2187.33,1224.54 2188.22,1209.43 2189.11,1127.89 2190,712.074 2190.89,1197.44 2191.78,1247.03 2192.67,1278.74 2193.56,1101.05 
  2194.45,1251.99 2195.34,1304.68 2196.23,1141.45 2197.12,1260.86 2198.01,1108.05 2198.9,1021.59 2199.79,1298.54 2200.68,1267.16 2201.57,1111 2202.46,1013.12 
  2203.35,1232.46 
  "/>
</svg>
