<?xml version="1.0" encoding="utf-8"?>
<svg xmlns="http://www.w3.org/2000/svg" xmlns:xlink="http://www.w3.org/1999/xlink" width="576" height="384" viewBox="0 0 2304 1536">
<defs>
  <clipPath id="clip710">
    <rect x="0" y="0" width="2304" height="1536"/>
  </clipPath>
</defs>
<path clip-path="url(#clip710)" d="
M0 1536 L2304 1536 L2304 0 L0 0  Z
  " fill="#ffffff" fill-rule="evenodd" fill-opacity="1"/>
<defs>
  <clipPath id="clip711">
    <rect x="460" y="0" width="1614" height="1536"/>
  </clipPath>
</defs>
<defs>
  <clipPath id="clip712">
    <rect x="368" y="123" width="1889" height="1237"/>
  </clipPath>
</defs>
<path clip-path="url(#clip710)" d="
M254.471 1363.79 L2256.76 1363.79 L2256.76 123.472 L254.471 123.472  Z
  " fill="#ffffff" fill-rule="evenodd" fill-opacity="1"/>
<defs>
  <clipPath id="clip713">
    <rect x="254" y="123" width="2003" height="1241"/>
  </clipPath>
</defs>
<polyline clip-path="url(#clip713)" style="stroke:#000000; stroke-width:2; stroke-opacity:0.1; fill:none" points="
  311.14,1363.79 311.14,123.472 
  "/>
<polyline clip-path="url(#clip713)" style="stroke:#000000; stroke-width:2; stroke-opacity:0.1; fill:none" points="
  783.849,1363.79 783.849,123.472 
  "/>
<polyline clip-path="url(#clip713)" style="stroke:#000000; stroke-width:2; stroke-opacity:0.1; fill:none" points="
  1256.56,1363.79 1256.56,123.472 
  "/>
<polyline clip-path="url(#clip713)" style="stroke:#000000; stroke-width:2; stroke-opacity:0.1; fill:none" points="
  1729.27,1363.79 1729.27,123.472 
  "/>
<polyline clip-path="url(#clip713)" style="stroke:#000000; stroke-width:2; stroke-opacity:0.1; fill:none" points="
  2201.98,1363.79 2201.98,123.472 
  "/>
<polyline clip-path="url(#clip710)" style="stroke:#000000; stroke-width:4; stroke-opacity:1; fill:none" points="
  254.471,1363.79 2256.76,1363.79 
  "/>
<polyline clip-path="url(#clip710)" style="stroke:#000000; stroke-width:4; stroke-opacity:1; fill:none" points="
  311.14,1363.79 311.14,1348.91 
  "/>
<polyline clip-path="url(#clip710)" style="stroke:#000000; stroke-width:4; stroke-opacity:1; fill:none" points="
  783.849,1363.79 783.849,1348.91 
  "/>
<polyline clip-path="url(#clip710)" style="stroke:#000000; stroke-width:4; stroke-opacity:1; fill:none" points="
  1256.56,1363.79 1256.56,1348.91 
  "/>
<polyline clip-path="url(#clip710)" style="stroke:#000000; stroke-width:4; stroke-opacity:1; fill:none" points="
  1729.27,1363.79 1729.27,1348.91 
  "/>
<polyline clip-path="url(#clip710)" style="stroke:#000000; stroke-width:4; stroke-opacity:1; fill:none" points="
  2201.98,1363.79 2201.98,1348.91 
  "/>
<path clip-path="url(#clip710)" d="M 0 0 M288.524 1392.21 Q284.913 1392.21 283.084 1395.78 Q281.279 1399.32 281.279 1406.45 Q281.279 1413.56 283.084 1417.12 Q284.913 1420.66 288.524 1420.66 Q292.158 1420.66 293.964 1417.12 Q295.793 1413.56 295.793 1406.45 Q295.793 1399.32 293.964 1395.78 Q292.158 1392.21 288.524 1392.21 M288.524 1388.51 Q294.334 1388.51 297.39 1393.12 Q300.468 1397.7 300.468 1406.45 Q300.468 1415.18 297.39 1419.78 Q294.334 1424.37 288.524 1424.37 Q282.714 1424.37 279.635 1419.78 Q276.58 1415.18 276.58 1406.45 Q276.58 1397.7 279.635 1393.12 Q282.714 1388.51 288.524 1388.51 Z" fill="#000000" fill-rule="evenodd" fill-opacity="1" /><path clip-path="url(#clip710)" d="M 0 0 M308.686 1417.81 L313.57 1417.81 L313.57 1423.69 L308.686 1423.69 L308.686 1417.81 Z" fill="#000000" fill-rule="evenodd" fill-opacity="1" /><path clip-path="url(#clip710)" d="M 0 0 M333.755 1392.21 Q330.144 1392.21 328.315 1395.78 Q326.51 1399.32 326.51 1406.45 Q326.51 1413.56 328.315 1417.12 Q330.144 1420.66 333.755 1420.66 Q337.39 1420.66 339.195 1417.12 Q341.024 1413.56 341.024 1406.45 Q341.024 1399.32 339.195 1395.78 Q337.39 1392.21 333.755 1392.21 M333.755 1388.51 Q339.565 1388.51 342.621 1393.12 Q345.7 1397.7 345.7 1406.45 Q345.7 1415.18 342.621 1419.78 Q339.565 1424.37 333.755 1424.37 Q327.945 1424.37 324.866 1419.78 Q321.811 1415.18 321.811 1406.45 Q321.811 1397.7 324.866 1393.12 Q327.945 1388.51 333.755 1388.51 Z" fill="#000000" fill-rule="evenodd" fill-opacity="1" /><path clip-path="url(#clip710)" d="M 0 0 M755.586 1419.76 L771.905 1419.76 L771.905 1423.69 L749.961 1423.69 L749.961 1419.76 Q752.623 1417 757.206 1412.37 Q761.812 1407.72 762.993 1406.38 Q765.238 1403.86 766.118 1402.12 Q767.021 1400.36 767.021 1398.67 Q767.021 1395.92 765.076 1394.18 Q763.155 1392.44 760.053 1392.44 Q757.854 1392.44 755.4 1393.21 Q752.97 1393.97 750.192 1395.52 L750.192 1390.8 Q753.016 1389.67 755.47 1389.09 Q757.924 1388.51 759.961 1388.51 Q765.331 1388.51 768.525 1391.19 Q771.72 1393.88 771.72 1398.37 Q771.72 1400.5 770.91 1402.42 Q770.123 1404.32 768.016 1406.91 Q767.437 1407.58 764.336 1410.8 Q761.234 1413.99 755.586 1419.76 Z" fill="#000000" fill-rule="evenodd" fill-opacity="1" /><path clip-path="url(#clip710)" d="M 0 0 M781.72 1417.81 L786.604 1417.81 L786.604 1423.69 L781.72 1423.69 L781.72 1417.81 Z" fill="#000000" fill-rule="evenodd" fill-opacity="1" /><path clip-path="url(#clip710)" d="M 0 0 M796.835 1389.13 L815.192 1389.13 L815.192 1393.07 L801.118 1393.07 L801.118 1401.54 Q802.136 1401.19 803.155 1401.03 Q804.173 1400.85 805.192 1400.85 Q810.979 1400.85 814.358 1404.02 Q817.738 1407.19 817.738 1412.61 Q817.738 1418.18 814.266 1421.29 Q810.794 1424.37 804.474 1424.37 Q802.298 1424.37 800.03 1423.99 Q797.784 1423.62 795.377 1422.88 L795.377 1418.18 Q797.46 1419.32 799.683 1419.87 Q801.905 1420.43 804.382 1420.43 Q808.386 1420.43 810.724 1418.32 Q813.062 1416.22 813.062 1412.61 Q813.062 1408.99 810.724 1406.89 Q808.386 1404.78 804.382 1404.78 Q802.507 1404.78 800.632 1405.2 Q798.78 1405.62 796.835 1406.49 L796.835 1389.13 Z" fill="#000000" fill-rule="evenodd" fill-opacity="1" /><path clip-path="url(#clip710)" d="M 0 0 M1223.72 1389.13 L1242.08 1389.13 L1242.08 1393.07 L1228.01 1393.07 L1228.01 1401.54 Q1229.02 1401.19 1230.04 1401.03 Q1231.06 1400.85 1232.08 1400.85 Q1237.87 1400.85 1241.25 1404.02 Q1244.63 1407.19 1244.63 1412.61 Q1244.63 1418.18 1241.15 1421.29 Q1237.68 1424.37 1231.36 1424.37 Q1229.19 1424.37 1226.92 1423.99 Q1224.67 1423.62 1222.27 1422.88 L1222.27 1418.18 Q1224.35 1419.32 1226.57 1419.87 Q1228.79 1420.43 1231.27 1420.43 Q1235.27 1420.43 1237.61 1418.32 Q1239.95 1416.22 1239.95 1412.61 Q1239.95 1408.99 1237.61 1406.89 Q1235.27 1404.78 1231.27 1404.78 Q1229.39 1404.78 1227.52 1405.2 Q1225.67 1405.62 1223.72 1406.49 L1223.72 1389.13 Z" fill="#000000" fill-rule="evenodd" fill-opacity="1" /><path clip-path="url(#clip710)" d="M 0 0 M1253.84 1417.81 L1258.72 1417.81 L1258.72 1423.69 L1253.84 1423.69 L1253.84 1417.81 Z" fill="#000000" fill-rule="evenodd" fill-opacity="1" /><path clip-path="url(#clip710)" d="M 0 0 M1278.91 1392.21 Q1275.3 1392.21 1273.47 1395.78 Q1271.66 1399.32 1271.66 1406.45 Q1271.66 1413.56 1273.47 1417.12 Q1275.3 1420.66 1278.91 1420.66 Q1282.54 1420.66 1284.35 1417.12 Q1286.18 1413.56 1286.18 1406.45 Q1286.18 1399.32 1284.35 1395.78 Q1282.54 1392.21 1278.91 1392.21 M1278.91 1388.51 Q1284.72 1388.51 1287.77 1393.12 Q1290.85 1397.7 1290.85 1406.45 Q1290.85 1415.18 1287.77 1419.78 Q1284.72 1424.37 1278.91 1424.37 Q1273.1 1424.37 1270.02 1419.78 Q1266.96 1415.18 1266.96 1406.45 Q1266.96 1397.7 1270.02 1393.12 Q1273.1 1388.51 1278.91 1388.51 Z" fill="#000000" fill-rule="evenodd" fill-opacity="1" /><path clip-path="url(#clip710)" d="M 0 0 M1695.59 1389.13 L1717.81 1389.13 L1717.81 1391.12 L1705.26 1423.69 L1700.38 1423.69 L1712.19 1393.07 L1695.59 1393.07 L1695.59 1389.13 Z" fill="#000000" fill-rule="evenodd" fill-opacity="1" /><path clip-path="url(#clip710)" d="M 0 0 M1726.93 1417.81 L1731.81 1417.81 L1731.81 1423.69 L1726.93 1423.69 L1726.93 1417.81 Z" fill="#000000" fill-rule="evenodd" fill-opacity="1" /><path clip-path="url(#clip710)" d="M 0 0 M1742.05 1389.13 L1760.4 1389.13 L1760.4 1393.07 L1746.33 1393.07 L1746.33 1401.54 Q1747.35 1401.19 1748.37 1401.03 Q1749.38 1400.85 1750.4 1400.85 Q1756.19 1400.85 1759.57 1404.02 Q1762.95 1407.19 1762.95 1412.61 Q1762.95 1418.18 1759.48 1421.29 Q1756 1424.37 1749.69 1424.37 Q1747.51 1424.37 1745.24 1423.99 Q1743 1423.62 1740.59 1422.88 L1740.59 1418.18 Q1742.67 1419.32 1744.89 1419.87 Q1747.12 1420.43 1749.59 1420.43 Q1753.6 1420.43 1755.94 1418.32 Q1758.27 1416.22 1758.27 1412.61 Q1758.27 1408.99 1755.94 1406.89 Q1753.6 1404.78 1749.59 1404.78 Q1747.72 1404.78 1745.84 1405.2 Q1743.99 1405.62 1742.05 1406.49 L1742.05 1389.13 Z" fill="#000000" fill-rule="evenodd" fill-opacity="1" /><path clip-path="url(#clip710)" d="M 0 0 M2154.05 1419.76 L2161.69 1419.76 L2161.69 1393.39 L2153.38 1395.06 L2153.38 1390.8 L2161.64 1389.13 L2166.32 1389.13 L2166.32 1419.76 L2173.96 1419.76 L2173.96 1423.69 L2154.05 1423.69 L2154.05 1419.76 Z" fill="#000000" fill-rule="evenodd" fill-opacity="1" /><path clip-path="url(#clip710)" d="M 0 0 M2193.4 1392.21 Q2189.79 1392.21 2187.96 1395.78 Q2186.16 1399.32 2186.16 1406.45 Q2186.16 1413.56 2187.96 1417.12 Q2189.79 1420.66 2193.4 1420.66 Q2197.04 1420.66 2198.84 1417.12 Q2200.67 1413.56 2200.67 1406.45 Q2200.67 1399.32 2198.84 1395.78 Q2197.04 1392.21 2193.4 1392.21 M2193.4 1388.51 Q2199.21 1388.51 2202.27 1393.12 Q2205.35 1397.7 2205.35 1406.45 Q2205.35 1415.18 2202.27 1419.78 Q2199.21 1424.37 2193.4 1424.37 Q2187.59 1424.37 2184.51 1419.78 Q2181.46 1415.18 2181.46 1406.45 Q2181.46 1397.7 2184.51 1393.12 Q2187.59 1388.51 2193.4 1388.51 Z" fill="#000000" fill-rule="evenodd" fill-opacity="1" /><path clip-path="url(#clip710)" d="M 0 0 M2213.56 1417.81 L2218.45 1417.81 L2218.45 1423.69 L2213.56 1423.69 L2213.56 1417.81 Z" fill="#000000" fill-rule="evenodd" fill-opacity="1" /><path clip-path="url(#clip710)" d="M 0 0 M2238.63 1392.21 Q2235.02 1392.21 2233.19 1395.78 Q2231.39 1399.32 2231.39 1406.45 Q2231.39 1413.56 2233.19 1417.12 Q2235.02 1420.66 2238.63 1420.66 Q2242.27 1420.66 2244.07 1417.12 Q2245.9 1413.56 2245.9 1406.45 Q2245.9 1399.32 2244.07 1395.78 Q2242.27 1392.21 2238.63 1392.21 M2238.63 1388.51 Q2244.44 1388.51 2247.5 1393.12 Q2250.58 1397.7 2250.58 1406.45 Q2250.58 1415.18 2247.5 1419.78 Q2244.44 1424.37 2238.63 1424.37 Q2232.82 1424.37 2229.74 1419.78 Q2226.69 1415.18 2226.69 1406.45 Q2226.69 1397.7 2229.74 1393.12 Q2232.82 1388.51 2238.63 1388.51 Z" fill="#000000" fill-rule="evenodd" fill-opacity="1" /><path clip-path="url(#clip710)" d="M 0 0 M1206.14 1465.79 Q1206.14 1468.04 1202.89 1468.04 L1191.81 1468.04 L1187.4 1490.62 Q1187.3 1491.2 1187.18 1491.52 Q1187.08 1491.84 1186.79 1492.39 Q1186.53 1492.9 1185.98 1493.16 Q1185.47 1493.45 1184.7 1493.45 Q1183.73 1493.45 1183.25 1492.87 Q1182.8 1492.33 1182.8 1491.65 Q1182.8 1491.23 1183.44 1489.23 L1189.91 1468.04 L1184.44 1468.04 Q1179.29 1468.04 1176.06 1473.13 Q1175.55 1473.81 1175.26 1473.87 Q1175.13 1473.9 1175 1473.9 Q1174.65 1473.9 1174.42 1473.74 Q1174.23 1473.58 1174.23 1473.42 L1174.2 1473.26 Q1174.2 1473.03 1174.71 1472.13 Q1175.26 1471.2 1176.23 1469.81 Q1177.22 1468.43 1178.22 1467.33 Q1179.54 1465.92 1181.02 1465.18 Q1182.51 1464.4 1183.25 1464.31 Q1184.02 1464.21 1185.02 1464.21 L1203.5 1464.21 Q1204.34 1464.21 1204.79 1464.27 Q1205.24 1464.31 1205.69 1464.69 Q1206.14 1465.05 1206.14 1465.79 Z" fill="#000000" fill-rule="evenodd" fill-opacity="1" /><path clip-path="url(#clip710)" d="M 0 0 M1224.43 1476.16 Q1224.43 1465.01 1228.59 1456.03 Q1230.36 1452.26 1232.84 1449.11 Q1235.32 1445.95 1236.96 1444.56 Q1238.6 1443.18 1239.06 1443.18 Q1239.7 1443.18 1239.73 1443.82 Q1239.73 1444.15 1238.86 1444.95 Q1228.23 1455.77 1228.27 1476.16 Q1228.27 1496.61 1238.6 1507.01 Q1239.73 1508.14 1239.73 1508.49 Q1239.73 1509.14 1239.06 1509.14 Q1238.6 1509.14 1237.03 1507.82 Q1235.45 1506.5 1233 1503.47 Q1230.55 1500.44 1228.78 1496.74 Q1224.43 1487.75 1224.43 1476.16 Z" fill="#000000" fill-rule="evenodd" fill-opacity="1" /><path clip-path="url(#clip710)" d="M 0 0 M1249.76 1492.65 L1249.76 1490.62 Q1253.27 1490.62 1254.08 1490.2 Q1254.88 1489.75 1254.88 1487.62 L1254.88 1469.94 Q1254.88 1467.49 1254.01 1466.88 Q1253.17 1466.27 1249.76 1466.27 L1249.76 1464.21 L1259.04 1463.5 L1259.04 1470.43 Q1262.13 1463.5 1268.79 1463.5 Q1273.75 1463.5 1275.72 1465.95 Q1277.17 1467.59 1277.46 1469.43 Q1277.78 1471.26 1277.78 1476.03 L1277.78 1488.62 Q1277.84 1490.01 1278.91 1490.33 Q1279.97 1490.62 1282.93 1490.62 L1282.93 1492.65 Q1276.2 1492.45 1275.53 1492.45 Q1275.01 1492.45 1268.09 1492.65 L1268.09 1490.62 Q1271.6 1490.62 1272.4 1490.2 Q1273.24 1489.75 1273.24 1487.62 L1273.24 1472.26 Q1273.24 1468.91 1272.21 1466.95 Q1271.18 1464.95 1268.34 1464.95 Q1264.93 1464.95 1262.19 1467.82 Q1259.45 1470.68 1259.45 1475.51 L1259.45 1487.62 Q1259.45 1489.75 1260.26 1490.2 Q1261.1 1490.62 1264.58 1490.62 L1264.58 1492.65 Q1257.84 1492.45 1257.2 1492.45 Q1256.68 1492.45 1249.76 1492.65 Z" fill="#000000" fill-rule="evenodd" fill-opacity="1" /><path clip-path="url(#clip710)" d="M 0 0 M1286 1491.78 L1286 1483.08 Q1286 1482.34 1286.03 1482.08 Q1286.06 1481.83 1286.25 1481.63 Q1286.45 1481.44 1286.83 1481.44 Q1287.28 1481.44 1287.44 1481.63 Q1287.64 1481.83 1287.77 1482.57 Q1288.77 1487.11 1290.89 1489.52 Q1293.05 1491.91 1296.95 1491.91 Q1300.65 1491.91 1302.52 1490.26 Q1304.38 1488.62 1304.38 1485.92 Q1304.38 1481.09 1297.53 1479.86 Q1293.56 1479.06 1291.92 1478.54 Q1290.28 1477.99 1288.83 1476.8 Q1286 1474.48 1286 1471.2 Q1286 1467.91 1288.48 1465.5 Q1290.99 1463.08 1296.53 1463.08 Q1300.23 1463.08 1302.74 1464.95 Q1303.48 1464.37 1303.87 1463.89 Q1304.74 1463.08 1305.19 1463.08 Q1305.71 1463.08 1305.8 1463.44 Q1305.9 1463.76 1305.9 1464.69 L1305.9 1471.33 Q1305.9 1472.07 1305.87 1472.33 Q1305.83 1472.58 1305.64 1472.78 Q1305.45 1472.94 1305.03 1472.94 Q1304.29 1472.94 1304.26 1472.33 Q1303.74 1464.34 1296.53 1464.34 Q1292.63 1464.34 1290.89 1465.85 Q1289.15 1467.33 1289.15 1469.36 Q1289.15 1470.49 1289.67 1471.36 Q1290.21 1472.2 1290.89 1472.71 Q1291.6 1473.2 1292.89 1473.68 Q1294.18 1474.13 1294.95 1474.29 Q1295.75 1474.45 1297.27 1474.77 Q1302.55 1475.77 1304.77 1477.93 Q1307.54 1480.7 1307.54 1484.21 Q1307.54 1488.11 1304.9 1490.75 Q1302.26 1493.39 1296.95 1493.39 Q1292.66 1493.39 1289.67 1490.52 Q1289.28 1490.91 1288.99 1491.26 Q1288.7 1491.58 1288.57 1491.71 Q1288.48 1491.84 1288.44 1491.94 Q1288.41 1492 1288.35 1492.07 Q1287.03 1493.39 1286.7 1493.39 Q1286.19 1493.39 1286.09 1493.03 Q1286 1492.71 1286 1491.78 Z" fill="#000000" fill-rule="evenodd" fill-opacity="1" /><path clip-path="url(#clip710)" d="M 0 0 M1311.7 1508.49 Q1311.7 1508.17 1312.54 1507.37 Q1323.17 1496.54 1323.17 1476.16 Q1323.17 1455.71 1312.96 1445.37 Q1311.7 1444.18 1311.7 1443.82 Q1311.7 1443.18 1312.35 1443.18 Q1312.8 1443.18 1314.38 1444.5 Q1315.99 1445.82 1318.4 1448.85 Q1320.85 1451.87 1322.65 1455.58 Q1327 1464.56 1327 1476.16 Q1327 1487.3 1322.85 1496.29 Q1321.08 1500.05 1318.6 1503.21 Q1316.12 1506.37 1314.47 1507.75 Q1312.83 1509.14 1312.35 1509.14 Q1311.7 1509.14 1311.7 1508.49 Z" fill="#000000" fill-rule="evenodd" fill-opacity="1" /><polyline clip-path="url(#clip713)" style="stroke:#000000; stroke-width:2; stroke-opacity:0.1; fill:none" points="
  254.471,1164.17 2256.76,1164.17 
  "/>
<polyline clip-path="url(#clip713)" style="stroke:#000000; stroke-width:2; stroke-opacity:0.1; fill:none" points="
  254.471,948.541 2256.76,948.541 
  "/>
<polyline clip-path="url(#clip713)" style="stroke:#000000; stroke-width:2; stroke-opacity:0.1; fill:none" points="
  254.471,732.913 2256.76,732.913 
  "/>
<polyline clip-path="url(#clip713)" style="stroke:#000000; stroke-width:2; stroke-opacity:0.1; fill:none" points="
  254.471,517.285 2256.76,517.285 
  "/>
<polyline clip-path="url(#clip713)" style="stroke:#000000; stroke-width:2; stroke-opacity:0.1; fill:none" points="
  254.471,301.657 2256.76,301.657 
  "/>
<polyline clip-path="url(#clip710)" style="stroke:#000000; stroke-width:4; stroke-opacity:1; fill:none" points="
  254.471,1363.79 254.471,123.472 
  "/>
<polyline clip-path="url(#clip710)" style="stroke:#000000; stroke-width:4; stroke-opacity:1; fill:none" points="
  254.471,1164.17 278.499,1164.17 
  "/>
<polyline clip-path="url(#clip710)" style="stroke:#000000; stroke-width:4; stroke-opacity:1; fill:none" points="
  254.471,948.541 278.499,948.541 
  "/>
<polyline clip-path="url(#clip710)" style="stroke:#000000; stroke-width:4; stroke-opacity:1; fill:none" points="
  254.471,732.913 278.499,732.913 
  "/>
<polyline clip-path="url(#clip710)" style="stroke:#000000; stroke-width:4; stroke-opacity:1; fill:none" points="
  254.471,517.285 278.499,517.285 
  "/>
<polyline clip-path="url(#clip710)" style="stroke:#000000; stroke-width:4; stroke-opacity:1; fill:none" points="
  254.471,301.657 278.499,301.657 
  "/>
<path clip-path="url(#clip710)" d="M 0 0 M123.384 1177.51 L131.023 1177.51 L131.023 1151.15 L122.713 1152.82 L122.713 1148.56 L130.977 1146.89 L135.652 1146.89 L135.652 1177.51 L143.291 1177.51 L143.291 1181.45 L123.384 1181.45 L123.384 1177.51 Z" fill="#000000" fill-rule="evenodd" fill-opacity="1" /><path clip-path="url(#clip710)" d="M 0 0 M152.736 1175.57 L157.62 1175.57 L157.62 1181.45 L152.736 1181.45 L152.736 1175.57 Z" fill="#000000" fill-rule="evenodd" fill-opacity="1" /><path clip-path="url(#clip710)" d="M 0 0 M177.805 1149.97 Q174.194 1149.97 172.365 1153.53 Q170.56 1157.07 170.56 1164.2 Q170.56 1171.31 172.365 1174.88 Q174.194 1178.42 177.805 1178.42 Q181.439 1178.42 183.245 1174.88 Q185.073 1171.31 185.073 1164.2 Q185.073 1157.07 183.245 1153.53 Q181.439 1149.97 177.805 1149.97 M177.805 1146.26 Q183.615 1146.26 186.671 1150.87 Q189.749 1155.45 189.749 1164.2 Q189.749 1172.93 186.671 1177.54 Q183.615 1182.12 177.805 1182.12 Q171.995 1182.12 168.916 1177.54 Q165.861 1172.93 165.861 1164.2 Q165.861 1155.45 168.916 1150.87 Q171.995 1146.26 177.805 1146.26 Z" fill="#000000" fill-rule="evenodd" fill-opacity="1" /><path clip-path="url(#clip710)" d="M 0 0 M207.967 1149.97 Q204.356 1149.97 202.527 1153.53 Q200.722 1157.07 200.722 1164.2 Q200.722 1171.31 202.527 1174.88 Q204.356 1178.42 207.967 1178.42 Q211.601 1178.42 213.407 1174.88 Q215.235 1171.31 215.235 1164.2 Q215.235 1157.07 213.407 1153.53 Q211.601 1149.97 207.967 1149.97 M207.967 1146.26 Q213.777 1146.26 216.833 1150.87 Q219.911 1155.45 219.911 1164.2 Q219.911 1172.93 216.833 1177.54 Q213.777 1182.12 207.967 1182.12 Q202.157 1182.12 199.078 1177.54 Q196.022 1172.93 196.022 1164.2 Q196.022 1155.45 199.078 1150.87 Q202.157 1146.26 207.967 1146.26 Z" fill="#000000" fill-rule="evenodd" fill-opacity="1" /><path clip-path="url(#clip710)" d="M 0 0 M124.379 961.886 L132.018 961.886 L132.018 935.52 L123.708 937.187 L123.708 932.928 L131.972 931.261 L136.648 931.261 L136.648 961.886 L144.287 961.886 L144.287 965.821 L124.379 965.821 L124.379 961.886 Z" fill="#000000" fill-rule="evenodd" fill-opacity="1" /><path clip-path="url(#clip710)" d="M 0 0 M153.731 959.942 L158.615 959.942 L158.615 965.821 L153.731 965.821 L153.731 959.942 Z" fill="#000000" fill-rule="evenodd" fill-opacity="1" /><path clip-path="url(#clip710)" d="M 0 0 M172.828 961.886 L189.147 961.886 L189.147 965.821 L167.203 965.821 L167.203 961.886 Q169.865 959.131 174.448 954.502 Q179.055 949.849 180.235 948.506 Q182.481 945.983 183.36 944.247 Q184.263 942.488 184.263 940.798 Q184.263 938.044 182.319 936.307 Q180.398 934.571 177.296 934.571 Q175.097 934.571 172.643 935.335 Q170.212 936.099 167.435 937.65 L167.435 932.928 Q170.259 931.794 172.712 931.215 Q175.166 930.636 177.203 930.636 Q182.573 930.636 185.768 933.321 Q188.962 936.007 188.962 940.497 Q188.962 942.627 188.152 944.548 Q187.365 946.446 185.259 949.039 Q184.68 949.71 181.578 952.928 Q178.476 956.122 172.828 961.886 Z" fill="#000000" fill-rule="evenodd" fill-opacity="1" /><path clip-path="url(#clip710)" d="M 0 0 M199.009 931.261 L217.365 931.261 L217.365 935.196 L203.291 935.196 L203.291 943.669 Q204.309 943.321 205.328 943.159 Q206.346 942.974 207.365 942.974 Q213.152 942.974 216.532 946.145 Q219.911 949.317 219.911 954.733 Q219.911 960.312 216.439 963.414 Q212.967 966.492 206.647 966.492 Q204.471 966.492 202.203 966.122 Q199.958 965.752 197.55 965.011 L197.55 960.312 Q199.634 961.446 201.856 962.002 Q204.078 962.557 206.555 962.557 Q210.559 962.557 212.897 960.451 Q215.235 958.344 215.235 954.733 Q215.235 951.122 212.897 949.016 Q210.559 946.909 206.555 946.909 Q204.68 946.909 202.805 947.326 Q200.953 947.743 199.009 948.622 L199.009 931.261 Z" fill="#000000" fill-rule="evenodd" fill-opacity="1" /><path clip-path="url(#clip710)" d="M 0 0 M123.384 746.258 L131.023 746.258 L131.023 719.892 L122.713 721.559 L122.713 717.3 L130.977 715.633 L135.652 715.633 L135.652 746.258 L143.291 746.258 L143.291 750.193 L123.384 750.193 L123.384 746.258 Z" fill="#000000" fill-rule="evenodd" fill-opacity="1" /><path clip-path="url(#clip710)" d="M 0 0 M152.736 744.314 L157.62 744.314 L157.62 750.193 L152.736 750.193 L152.736 744.314 Z" fill="#000000" fill-rule="evenodd" fill-opacity="1" /><path clip-path="url(#clip710)" d="M 0 0 M167.851 715.633 L186.208 715.633 L186.208 719.568 L172.134 719.568 L172.134 728.041 Q173.152 727.693 174.171 727.531 Q175.189 727.346 176.208 727.346 Q181.995 727.346 185.374 730.517 Q188.754 733.689 188.754 739.105 Q188.754 744.684 185.282 747.786 Q181.81 750.865 175.49 750.865 Q173.314 750.865 171.046 750.494 Q168.8 750.124 166.393 749.383 L166.393 744.684 Q168.476 745.818 170.699 746.374 Q172.921 746.929 175.398 746.929 Q179.402 746.929 181.74 744.823 Q184.078 742.716 184.078 739.105 Q184.078 735.494 181.74 733.388 Q179.402 731.281 175.398 731.281 Q173.523 731.281 171.648 731.698 Q169.796 732.115 167.851 732.994 L167.851 715.633 Z" fill="#000000" fill-rule="evenodd" fill-opacity="1" /><path clip-path="url(#clip710)" d="M 0 0 M207.967 718.712 Q204.356 718.712 202.527 722.277 Q200.722 725.818 200.722 732.948 Q200.722 740.054 202.527 743.619 Q204.356 747.161 207.967 747.161 Q211.601 747.161 213.407 743.619 Q215.235 740.054 215.235 732.948 Q215.235 725.818 213.407 722.277 Q211.601 718.712 207.967 718.712 M207.967 715.008 Q213.777 715.008 216.833 719.615 Q219.911 724.198 219.911 732.948 Q219.911 741.675 216.833 746.281 Q213.777 750.865 207.967 750.865 Q202.157 750.865 199.078 746.281 Q196.022 741.675 196.022 732.948 Q196.022 724.198 199.078 719.615 Q202.157 715.008 207.967 715.008 Z" fill="#000000" fill-rule="evenodd" fill-opacity="1" /><path clip-path="url(#clip710)" d="M 0 0 M124.379 530.63 L132.018 530.63 L132.018 504.265 L123.708 505.931 L123.708 501.672 L131.972 500.005 L136.648 500.005 L136.648 530.63 L144.287 530.63 L144.287 534.565 L124.379 534.565 L124.379 530.63 Z" fill="#000000" fill-rule="evenodd" fill-opacity="1" /><path clip-path="url(#clip710)" d="M 0 0 M153.731 528.686 L158.615 528.686 L158.615 534.565 L153.731 534.565 L153.731 528.686 Z" fill="#000000" fill-rule="evenodd" fill-opacity="1" /><path clip-path="url(#clip710)" d="M 0 0 M167.62 500.005 L189.842 500.005 L189.842 501.996 L177.296 534.565 L172.411 534.565 L184.217 503.94 L167.62 503.94 L167.62 500.005 Z" fill="#000000" fill-rule="evenodd" fill-opacity="1" /><path clip-path="url(#clip710)" d="M 0 0 M199.009 500.005 L217.365 500.005 L217.365 503.94 L203.291 503.94 L203.291 512.413 Q204.309 512.065 205.328 511.903 Q206.346 511.718 207.365 511.718 Q213.152 511.718 216.532 514.889 Q219.911 518.061 219.911 523.477 Q219.911 529.056 216.439 532.158 Q212.967 535.237 206.647 535.237 Q204.471 535.237 202.203 534.866 Q199.958 534.496 197.55 533.755 L197.55 529.056 Q199.634 530.19 201.856 530.746 Q204.078 531.301 206.555 531.301 Q210.559 531.301 212.897 529.195 Q215.235 527.088 215.235 523.477 Q215.235 519.866 212.897 517.76 Q210.559 515.653 206.555 515.653 Q204.68 515.653 202.805 516.07 Q200.953 516.487 199.009 517.366 L199.009 500.005 Z" fill="#000000" fill-rule="evenodd" fill-opacity="1" /><path clip-path="url(#clip710)" d="M 0 0 M126.602 315.002 L142.921 315.002 L142.921 318.937 L120.977 318.937 L120.977 315.002 Q123.639 312.248 128.222 307.618 Q132.828 302.965 134.009 301.623 Q136.254 299.1 137.134 297.363 Q138.037 295.604 138.037 293.914 Q138.037 291.16 136.092 289.424 Q134.171 287.688 131.069 287.688 Q128.87 287.688 126.416 288.451 Q123.986 289.215 121.208 290.766 L121.208 286.044 Q124.032 284.91 126.486 284.331 Q128.939 283.752 130.977 283.752 Q136.347 283.752 139.541 286.438 Q142.736 289.123 142.736 293.613 Q142.736 295.743 141.926 297.664 Q141.138 299.562 139.032 302.155 Q138.453 302.826 135.351 306.044 Q132.25 309.238 126.602 315.002 Z" fill="#000000" fill-rule="evenodd" fill-opacity="1" /><path clip-path="url(#clip710)" d="M 0 0 M152.736 313.058 L157.62 313.058 L157.62 318.937 L152.736 318.937 L152.736 313.058 Z" fill="#000000" fill-rule="evenodd" fill-opacity="1" /><path clip-path="url(#clip710)" d="M 0 0 M177.805 287.456 Q174.194 287.456 172.365 291.021 Q170.56 294.562 170.56 301.692 Q170.56 308.799 172.365 312.363 Q174.194 315.905 177.805 315.905 Q181.439 315.905 183.245 312.363 Q185.073 308.799 185.073 301.692 Q185.073 294.562 183.245 291.021 Q181.439 287.456 177.805 287.456 M177.805 283.752 Q183.615 283.752 186.671 288.359 Q189.749 292.942 189.749 301.692 Q189.749 310.419 186.671 315.025 Q183.615 319.609 177.805 319.609 Q171.995 319.609 168.916 315.025 Q165.861 310.419 165.861 301.692 Q165.861 292.942 168.916 288.359 Q171.995 283.752 177.805 283.752 Z" fill="#000000" fill-rule="evenodd" fill-opacity="1" /><path clip-path="url(#clip710)" d="M 0 0 M207.967 287.456 Q204.356 287.456 202.527 291.021 Q200.722 294.562 200.722 301.692 Q200.722 308.799 202.527 312.363 Q204.356 315.905 207.967 315.905 Q211.601 315.905 213.407 312.363 Q215.235 308.799 215.235 301.692 Q215.235 294.562 213.407 291.021 Q211.601 287.456 207.967 287.456 M207.967 283.752 Q213.777 283.752 216.833 288.359 Q219.911 292.942 219.911 301.692 Q219.911 310.419 216.833 315.025 Q213.777 319.609 207.967 319.609 Q202.157 319.609 199.078 315.025 Q196.022 310.419 196.022 301.692 Q196.022 292.942 199.078 288.359 Q202.157 283.752 207.967 283.752 Z" fill="#000000" fill-rule="evenodd" fill-opacity="1" /><path clip-path="url(#clip710)" d="M 0 0 M52.0905 804.127 Q52.1227 804.127 53.2821 804.32 L82.5572 811.663 Q84.1031 812.049 85.649 813.144 Q87.2271 814.207 88.5797 815.914 Q89.9646 817.589 90.8019 820.165 Q91.6715 822.71 91.6715 825.64 Q91.6715 830.31 90.6731 832.371 Q89.7069 834.4 87.6457 834.4 Q85.8422 834.4 84.8116 833.273 Q83.8132 832.146 83.8132 830.858 Q83.8132 829.634 84.5218 828.99 Q85.2303 828.346 86.1321 828.346 Q87.1305 828.346 88.1288 829.022 Q89.1594 829.698 89.5459 831.051 Q90.2222 828.893 90.2222 825.769 Q90.2222 819.167 83.2335 816.333 Q83.1369 816.268 83.1047 816.268 L74.3769 814.078 L74.3125 814.175 Q74.9566 814.723 75.6974 815.592 Q76.4059 816.429 77.2755 818.233 Q78.145 820.037 78.145 821.808 Q78.145 825.512 75.3109 828.056 Q72.4446 830.568 67.7103 830.568 Q64.2643 830.568 60.8183 829.183 Q57.34 827.766 54.7958 825.576 Q52.2193 823.354 50.609 820.52 Q48.9987 817.653 48.9987 814.884 Q48.9987 812.951 50.1581 811.309 Q51.2853 809.666 53.1533 808.764 Q51.6074 808.603 50.9633 807.734 Q50.3192 806.832 50.3192 806.059 Q50.3192 805.19 50.8022 804.674 Q51.2531 804.127 52.0905 804.127 M56.1162 809.537 Q55.923 809.537 55.4077 809.666 Q54.8602 809.795 53.9906 810.182 Q53.1211 810.536 52.3481 811.083 Q51.5752 811.631 51.0277 812.629 Q50.448 813.595 50.448 814.819 Q50.448 816.816 52.1227 818.813 Q53.7652 820.809 56.3094 822.194 Q58.7571 823.483 63.4914 824.706 Q68.2256 825.898 70.6411 825.898 Q73.0243 825.898 74.86 824.867 Q76.6958 823.837 76.6958 821.615 Q76.6958 819.038 74.3125 816.268 Q71.8327 813.402 69.7071 812.919 L57.1146 809.731 Q56.3416 809.537 56.1162 809.537 Z" fill="#000000" fill-rule="evenodd" fill-opacity="1" /><path clip-path="url(#clip710)" d="M 0 0 M36.5958 797.39 Q28.7956 797.39 22.5058 794.482 Q19.8681 793.242 17.6588 791.506 Q15.4495 789.77 14.4801 788.621 Q13.5107 787.471 13.5107 787.155 Q13.5107 786.704 13.9616 786.682 Q14.187 786.682 14.7506 787.291 Q22.3254 794.73 36.5958 794.708 Q50.9113 794.708 58.1931 787.471 Q58.9821 786.682 59.2301 786.682 Q59.681 786.682 59.681 787.155 Q59.681 787.471 58.7567 788.576 Q57.8324 789.68 55.7132 791.394 Q53.5941 793.107 51.0015 794.347 Q44.7117 797.39 36.5958 797.39 Z" fill="#000000" fill-rule="evenodd" fill-opacity="1" /><path clip-path="url(#clip710)" d="M 0 0 M48.1384 779.662 Q47.3043 779.662 47.0563 779.594 Q46.8083 779.504 46.4251 779.143 L36.5507 770.284 Q31.0951 765.437 26.3383 765.437 Q23.2497 765.437 21.0404 767.06 Q18.8311 768.66 18.8311 771.614 Q18.8311 773.643 20.071 775.356 Q21.3109 777.069 23.5203 777.858 Q23.4752 777.723 23.4752 777.25 Q23.4752 776.1 24.1966 775.469 Q24.918 774.815 25.8874 774.815 Q27.1273 774.815 27.736 775.627 Q28.3222 776.416 28.3222 777.205 Q28.3222 777.52 28.2545 777.949 Q28.1869 778.354 27.5557 779.008 Q26.9019 779.662 25.7521 779.662 Q22.5283 779.662 19.9583 777.227 Q17.3883 774.77 17.3883 771.028 Q17.3883 766.789 19.9132 764.016 Q22.4156 761.221 26.3383 761.221 Q27.7135 761.221 28.9759 761.649 Q30.2159 762.055 31.1853 762.619 Q32.1546 763.16 33.7102 764.648 Q35.2657 766.136 36.3704 767.33 Q37.4751 768.525 39.8196 771.208 L44.5764 776.1 L44.5764 767.781 Q44.5764 763.723 44.2157 763.408 Q43.562 762.957 40.1127 762.393 L40.1127 761.221 L48.1384 762.528 L48.1384 779.662 Z" fill="#000000" fill-rule="evenodd" fill-opacity="1" /><path clip-path="url(#clip710)" d="M 0 0 M59.2301 756.798 Q59.0047 756.798 58.4411 756.212 Q50.8663 748.773 36.5958 748.773 Q22.2803 748.773 15.0437 755.919 Q14.2095 756.798 13.9616 756.798 Q13.5107 756.798 13.5107 756.347 Q13.5107 756.032 14.435 754.927 Q15.3593 753.8 17.4784 752.109 Q19.5976 750.396 22.1902 749.133 Q28.48 746.09 36.5958 746.09 Q44.3961 746.09 50.6859 748.998 Q53.3236 750.238 55.5329 751.974 Q57.7422 753.71 58.7116 754.859 Q59.681 756.009 59.681 756.347 Q59.681 756.798 59.2301 756.798 Z" fill="#000000" fill-rule="evenodd" fill-opacity="1" /><path clip-path="url(#clip710)" d="M 0 0 M61.6556 732.03 Q50.5124 732.03 41.527 727.875 Q37.7589 726.104 34.6027 723.624 Q31.4465 721.144 30.0617 719.502 Q28.6768 717.859 28.6768 717.408 Q28.6768 716.764 29.3209 716.732 Q29.643 716.732 30.4481 717.602 Q41.2693 728.23 61.6556 728.197 Q82.1063 728.197 92.5088 717.859 Q93.636 716.732 93.9903 716.732 Q94.6344 716.732 94.6344 717.408 Q94.6344 717.859 93.314 719.437 Q91.9935 721.016 88.9662 723.463 Q85.9388 725.911 82.2352 727.682 Q73.2497 732.03 61.6556 732.03 Z" fill="#000000" fill-rule="evenodd" fill-opacity="1" /><path clip-path="url(#clip710)" d="M 0 0 M51.2853 674.756 Q53.5397 674.756 53.5397 678.008 L53.5397 689.087 L76.116 693.499 Q76.6958 693.596 77.0178 693.725 Q77.3399 693.821 77.8874 694.111 Q78.4027 694.369 78.6603 694.916 Q78.9502 695.432 78.9502 696.205 Q78.9502 697.171 78.3705 697.654 Q77.823 698.105 77.1466 698.105 Q76.728 698.105 74.7312 697.461 L53.5397 690.987 L53.5397 696.462 Q53.5397 701.615 58.6283 704.836 Q59.3046 705.351 59.369 705.641 Q59.4012 705.77 59.4012 705.899 Q59.4012 706.253 59.2402 706.478 Q59.0791 706.672 58.9181 706.672 L58.7571 706.704 Q58.5316 706.704 57.6299 706.188 Q56.6959 705.641 55.3111 704.675 Q53.9262 703.676 52.8312 702.678 Q51.4142 701.358 50.6734 699.876 Q49.9005 698.395 49.8039 697.654 Q49.7072 696.881 49.7072 695.883 L49.7072 677.396 Q49.7072 676.559 49.7717 676.108 Q49.8039 675.657 50.1903 675.206 Q50.5446 674.756 51.2853 674.756 Z" fill="#000000" fill-rule="evenodd" fill-opacity="1" /><path clip-path="url(#clip710)" d="M 0 0 M93.9903 678.188 Q93.6682 678.188 92.8631 677.35 Q82.0419 666.723 61.6556 666.723 Q41.2049 666.723 30.8668 676.932 Q29.6752 678.188 29.3209 678.188 Q28.6768 678.188 28.6768 677.544 Q28.6768 677.093 29.9973 675.515 Q31.3177 673.904 34.345 671.489 Q37.3724 669.041 41.0761 667.238 Q50.0615 662.89 61.6556 662.89 Q72.7988 662.89 81.7843 667.045 Q85.5524 668.816 88.7085 671.296 Q91.8647 673.776 93.2496 675.418 Q94.6344 677.061 94.6344 677.544 Q94.6344 678.188 93.9903 678.188 Z" fill="#000000" fill-rule="evenodd" fill-opacity="1" /><path clip-path="url(#clip710)" d="M 0 0 M548.224 18.8205 L548.224 41.5461 L558.514 41.5461 Q564.225 41.5461 567.345 38.5889 Q570.464 35.6318 570.464 30.163 Q570.464 24.7348 567.345 21.7777 Q564.225 18.8205 558.514 18.8205 L548.224 18.8205 M540.042 12.096 L558.514 12.096 Q568.681 12.096 573.867 16.714 Q579.092 21.2916 579.092 30.163 Q579.092 39.1155 573.867 43.6931 Q568.681 48.2706 558.514 48.2706 L548.224 48.2706 L548.224 72.576 L540.042 72.576 L540.042 12.096 Z" fill="#000000" fill-rule="evenodd" fill-opacity="1" /><path clip-path="url(#clip710)" d="M 0 0 M627.46 45.1919 L627.46 72.576 L620.006 72.576 L620.006 45.4349 Q620.006 38.994 617.495 35.7938 Q614.983 32.5936 609.96 32.5936 Q603.924 32.5936 600.441 36.4419 Q596.957 40.2903 596.957 46.9338 L596.957 72.576 L589.463 72.576 L589.463 9.54393 L596.957 9.54393 L596.957 34.2544 Q599.63 30.163 603.236 28.1376 Q606.882 26.1121 611.621 26.1121 Q619.439 26.1121 623.45 30.9732 Q627.46 35.7938 627.46 45.1919 Z" fill="#000000" fill-rule="evenodd" fill-opacity="1" /><path clip-path="url(#clip710)" d="M 0 0 M659.908 32.4315 Q653.913 32.4315 650.429 37.1306 Q646.945 41.7891 646.945 49.9314 Q646.945 58.0738 650.388 62.7728 Q653.872 67.4314 659.908 67.4314 Q665.863 67.4314 669.346 62.7323 Q672.83 58.0333 672.83 49.9314 Q672.83 41.8701 669.346 37.1711 Q665.863 32.4315 659.908 32.4315 M659.908 26.1121 Q669.63 26.1121 675.18 32.4315 Q680.729 38.7509 680.729 49.9314 Q680.729 61.0714 675.18 67.4314 Q669.63 73.7508 659.908 73.7508 Q650.145 73.7508 644.595 67.4314 Q639.086 61.0714 639.086 49.9314 Q639.086 38.7509 644.595 32.4315 Q650.145 26.1121 659.908 26.1121 Z" fill="#000000" fill-rule="evenodd" fill-opacity="1" /><path clip-path="url(#clip710)" d="M 0 0 M700.457 14.324 L700.457 27.2059 L715.81 27.2059 L715.81 32.9987 L700.457 32.9987 L700.457 57.6282 Q700.457 63.1779 701.956 64.7578 Q703.496 66.3376 708.154 66.3376 L715.81 66.3376 L715.81 72.576 L708.154 72.576 Q699.526 72.576 696.244 69.3758 Q692.963 66.1351 692.963 57.6282 L692.963 32.9987 L687.494 32.9987 L687.494 27.2059 L692.963 27.2059 L692.963 14.324 L700.457 14.324 Z" fill="#000000" fill-rule="evenodd" fill-opacity="1" /><path clip-path="url(#clip710)" d="M 0 0 M743.194 32.4315 Q737.199 32.4315 733.715 37.1306 Q730.232 41.7891 730.232 49.9314 Q730.232 58.0738 733.675 62.7728 Q737.159 67.4314 743.194 67.4314 Q749.149 67.4314 752.633 62.7323 Q756.117 58.0333 756.117 49.9314 Q756.117 41.8701 752.633 37.1711 Q749.149 32.4315 743.194 32.4315 M743.194 26.1121 Q752.917 26.1121 758.466 32.4315 Q764.016 38.7509 764.016 49.9314 Q764.016 61.0714 758.466 67.4314 Q752.917 73.7508 743.194 73.7508 Q733.432 73.7508 727.882 67.4314 Q722.373 61.0714 722.373 49.9314 Q722.373 38.7509 727.882 32.4315 Q733.432 26.1121 743.194 26.1121 Z" fill="#000000" fill-rule="evenodd" fill-opacity="1" /><path clip-path="url(#clip710)" d="M 0 0 M814.085 45.1919 L814.085 72.576 L806.632 72.576 L806.632 45.4349 Q806.632 38.994 804.12 35.7938 Q801.608 32.5936 796.585 32.5936 Q790.55 32.5936 787.066 36.4419 Q783.582 40.2903 783.582 46.9338 L783.582 72.576 L776.088 72.576 L776.088 27.2059 L783.582 27.2059 L783.582 34.2544 Q786.256 30.163 789.861 28.1376 Q793.507 26.1121 798.246 26.1121 Q806.064 26.1121 810.075 30.9732 Q814.085 35.7938 814.085 45.1919 Z" fill="#000000" fill-rule="evenodd" fill-opacity="1" /><path clip-path="url(#clip710)" d="M 0 0 M900.937 16.7545 L900.937 25.383 Q896.805 21.5346 892.106 19.6307 Q887.447 17.7268 882.181 17.7268 Q871.811 17.7268 866.301 24.0867 Q860.792 30.4061 860.792 42.3968 Q860.792 54.3469 866.301 60.7069 Q871.811 67.0263 882.181 67.0263 Q887.447 67.0263 892.106 65.1223 Q896.805 63.2184 900.937 59.3701 L900.937 67.9175 Q896.643 70.8341 891.822 72.2924 Q887.042 73.7508 881.695 73.7508 Q867.962 73.7508 860.063 65.3654 Q852.164 56.9395 852.164 42.3968 Q852.164 27.8135 860.063 19.4281 Q867.962 11.0023 881.695 11.0023 Q887.123 11.0023 891.903 12.4606 Q896.724 13.8784 900.937 16.7545 Z" fill="#000000" fill-rule="evenodd" fill-opacity="1" /><path clip-path="url(#clip710)" d="M 0 0 M930.832 32.4315 Q924.837 32.4315 921.353 37.1306 Q917.869 41.7891 917.869 49.9314 Q917.869 58.0738 921.313 62.7728 Q924.796 67.4314 930.832 67.4314 Q936.787 67.4314 940.271 62.7323 Q943.755 58.0333 943.755 49.9314 Q943.755 41.8701 940.271 37.1711 Q936.787 32.4315 930.832 32.4315 M930.832 26.1121 Q940.554 26.1121 946.104 32.4315 Q951.654 38.7509 951.654 49.9314 Q951.654 61.0714 946.104 67.4314 Q940.554 73.7508 930.832 73.7508 Q921.07 73.7508 915.52 67.4314 Q910.011 61.0714 910.011 49.9314 Q910.011 38.7509 915.52 32.4315 Q921.07 26.1121 930.832 26.1121 Z" fill="#000000" fill-rule="evenodd" fill-opacity="1" /><path clip-path="url(#clip710)" d="M 0 0 M990.3 34.1734 Q989.044 33.4443 987.545 33.1202 Q986.087 32.7556 984.304 32.7556 Q977.985 32.7556 974.582 36.8875 Q971.22 40.9789 971.22 48.6757 L971.22 72.576 L963.726 72.576 L963.726 27.2059 L971.22 27.2059 L971.22 34.2544 Q973.569 30.1225 977.337 28.1376 Q981.104 26.1121 986.492 26.1121 Q987.261 26.1121 988.193 26.2337 Q989.125 26.3147 990.259 26.5172 L990.3 34.1734 Z" fill="#000000" fill-rule="evenodd" fill-opacity="1" /><path clip-path="url(#clip710)" d="M 0 0 M1022.95 34.1734 Q1021.69 33.4443 1020.2 33.1202 Q1018.74 32.7556 1016.95 32.7556 Q1010.64 32.7556 1007.23 36.8875 Q1003.87 40.9789 1003.87 48.6757 L1003.87 72.576 L996.376 72.576 L996.376 27.2059 L1003.87 27.2059 L1003.87 34.2544 Q1006.22 30.1225 1009.99 28.1376 Q1013.75 26.1121 1019.14 26.1121 Q1019.91 26.1121 1020.84 26.2337 Q1021.78 26.3147 1022.91 26.5172 L1022.95 34.1734 Z" fill="#000000" fill-rule="evenodd" fill-opacity="1" /><path clip-path="url(#clip710)" d="M 0 0 M1067.75 48.0275 L1067.75 51.6733 L1033.48 51.6733 Q1033.97 59.3701 1038.1 63.421 Q1042.27 67.4314 1049.69 67.4314 Q1053.98 67.4314 1057.99 66.3781 Q1062.04 65.3249 1066.01 63.2184 L1066.01 70.267 Q1062 71.9684 1057.79 72.8596 Q1053.57 73.7508 1049.24 73.7508 Q1038.38 73.7508 1032.02 67.4314 Q1025.7 61.1119 1025.7 50.3365 Q1025.7 39.1965 1031.7 32.6746 Q1037.74 26.1121 1047.94 26.1121 Q1057.1 26.1121 1062.41 32.0264 Q1067.75 37.9003 1067.75 48.0275 M1060.3 45.84 Q1060.22 39.7232 1056.86 36.0774 Q1053.53 32.4315 1048.02 32.4315 Q1041.79 32.4315 1038.02 35.9558 Q1034.29 39.4801 1033.73 45.8805 L1060.3 45.84 Z" fill="#000000" fill-rule="evenodd" fill-opacity="1" /><path clip-path="url(#clip710)" d="M 0 0 M1079.99 9.54393 L1087.44 9.54393 L1087.44 72.576 L1079.99 72.576 L1079.99 9.54393 Z" fill="#000000" fill-rule="evenodd" fill-opacity="1" /><path clip-path="url(#clip710)" d="M 0 0 M1123.66 49.7694 Q1114.62 49.7694 1111.14 51.8354 Q1107.65 53.9013 1107.65 58.8839 Q1107.65 62.8538 1110.25 65.2034 Q1112.88 67.5124 1117.38 67.5124 Q1123.57 67.5124 1127.3 63.1374 Q1131.07 58.7219 1131.07 51.4303 L1131.07 49.7694 L1123.66 49.7694 M1138.52 46.6907 L1138.52 72.576 L1131.07 72.576 L1131.07 65.6895 Q1128.52 69.8214 1124.71 71.8063 Q1120.9 73.7508 1115.39 73.7508 Q1108.42 73.7508 1104.29 69.8619 Q1100.2 65.9325 1100.2 59.3701 Q1100.2 51.7138 1105.3 47.825 Q1110.45 43.9361 1120.62 43.9361 L1131.07 43.9361 L1131.07 43.2069 Q1131.07 38.0623 1127.67 35.2672 Q1124.3 32.4315 1118.19 32.4315 Q1114.3 32.4315 1110.61 33.3632 Q1106.93 34.295 1103.52 36.1584 L1103.52 29.2718 Q1107.61 27.692 1111.46 26.9223 Q1115.31 26.1121 1118.96 26.1121 Q1128.8 26.1121 1133.66 31.2163 Q1138.52 36.3204 1138.52 46.6907 Z" fill="#000000" fill-rule="evenodd" fill-opacity="1" /><path clip-path="url(#clip710)" d="M 0 0 M1161.25 14.324 L1161.25 27.2059 L1176.6 27.2059 L1176.6 32.9987 L1161.25 32.9987 L1161.25 57.6282 Q1161.25 63.1779 1162.75 64.7578 Q1164.29 66.3376 1168.94 66.3376 L1176.6 66.3376 L1176.6 72.576 L1168.94 72.576 Q1160.32 72.576 1157.03 69.3758 Q1153.75 66.1351 1153.75 57.6282 L1153.75 32.9987 L1148.28 32.9987 L1148.28 27.2059 L1153.75 27.2059 L1153.75 14.324 L1161.25 14.324 Z" fill="#000000" fill-rule="evenodd" fill-opacity="1" /><path clip-path="url(#clip710)" d="M 0 0 M1186.4 27.2059 L1193.86 27.2059 L1193.86 72.576 L1186.4 72.576 L1186.4 27.2059 M1186.4 9.54393 L1193.86 9.54393 L1193.86 18.9825 L1186.4 18.9825 L1186.4 9.54393 Z" fill="#000000" fill-rule="evenodd" fill-opacity="1" /><path clip-path="url(#clip710)" d="M 0 0 M1227.03 32.4315 Q1221.04 32.4315 1217.56 37.1306 Q1214.07 41.7891 1214.07 49.9314 Q1214.07 58.0738 1217.51 62.7728 Q1221 67.4314 1227.03 67.4314 Q1232.99 67.4314 1236.47 62.7323 Q1239.96 58.0333 1239.96 49.9314 Q1239.96 41.8701 1236.47 37.1711 Q1232.99 32.4315 1227.03 32.4315 M1227.03 26.1121 Q1236.76 26.1121 1242.31 32.4315 Q1247.86 38.7509 1247.86 49.9314 Q1247.86 61.0714 1242.31 67.4314 Q1236.76 73.7508 1227.03 73.7508 Q1217.27 73.7508 1211.72 67.4314 Q1206.21 61.0714 1206.21 49.9314 Q1206.21 38.7509 1211.72 32.4315 Q1217.27 26.1121 1227.03 26.1121 Z" fill="#000000" fill-rule="evenodd" fill-opacity="1" /><path clip-path="url(#clip710)" d="M 0 0 M1297.93 45.1919 L1297.93 72.576 L1290.47 72.576 L1290.47 45.4349 Q1290.47 38.994 1287.96 35.7938 Q1285.45 32.5936 1280.43 32.5936 Q1274.39 32.5936 1270.91 36.4419 Q1267.42 40.2903 1267.42 46.9338 L1267.42 72.576 L1259.93 72.576 L1259.93 27.2059 L1267.42 27.2059 L1267.42 34.2544 Q1270.1 30.163 1273.7 28.1376 Q1277.35 26.1121 1282.09 26.1121 Q1289.9 26.1121 1293.91 30.9732 Q1297.93 35.7938 1297.93 45.1919 Z" fill="#000000" fill-rule="evenodd" fill-opacity="1" /><path clip-path="url(#clip710)" d="M 0 0 M1341.72 28.5427 L1341.72 35.5912 Q1338.56 33.9709 1335.15 33.1607 Q1331.75 32.3505 1328.1 32.3505 Q1322.55 32.3505 1319.76 34.0519 Q1317.01 35.7533 1317.01 39.156 Q1317.01 41.7486 1318.99 43.2475 Q1320.97 44.7058 1326.97 46.0426 L1329.52 46.6097 Q1337.46 48.3111 1340.78 51.4303 Q1344.15 54.509 1344.15 60.0587 Q1344.15 66.3781 1339.12 70.0644 Q1334.14 73.7508 1325.39 73.7508 Q1321.74 73.7508 1317.77 73.0216 Q1313.85 72.3329 1309.47 70.9151 L1309.47 63.2184 Q1313.6 65.3654 1317.61 66.4591 Q1321.62 67.5124 1325.55 67.5124 Q1330.82 67.5124 1333.65 65.73 Q1336.49 63.9071 1336.49 60.6258 Q1336.49 57.5877 1334.42 55.9673 Q1332.4 54.3469 1325.47 52.8481 L1322.88 52.2405 Q1315.95 50.7821 1312.87 47.7845 Q1309.79 44.7463 1309.79 39.4801 Q1309.79 33.0797 1314.33 29.5959 Q1318.87 26.1121 1327.21 26.1121 Q1331.35 26.1121 1334.99 26.7198 Q1338.64 27.3274 1341.72 28.5427 Z" fill="#000000" fill-rule="evenodd" fill-opacity="1" /><path clip-path="url(#clip710)" d="M 0 0 M1377.04 27.2059 L1384.94 27.2059 L1399.12 65.2844 L1413.3 27.2059 L1421.19 27.2059 L1404.18 72.576 L1394.05 72.576 L1377.04 27.2059 Z" fill="#000000" fill-rule="evenodd" fill-opacity="1" /><path clip-path="url(#clip710)" d="M 0 0 M1460.41 28.5427 L1460.41 35.5912 Q1457.25 33.9709 1453.84 33.1607 Q1450.44 32.3505 1446.8 32.3505 Q1441.25 32.3505 1438.45 34.0519 Q1435.7 35.7533 1435.7 39.156 Q1435.7 41.7486 1437.68 43.2475 Q1439.67 44.7058 1445.66 46.0426 L1448.21 46.6097 Q1456.15 48.3111 1459.48 51.4303 Q1462.84 54.509 1462.84 60.0587 Q1462.84 66.3781 1457.81 70.0644 Q1452.83 73.7508 1444.08 73.7508 Q1440.44 73.7508 1436.47 73.0216 Q1432.54 72.3329 1428.16 70.9151 L1428.16 63.2184 Q1432.29 65.3654 1436.3 66.4591 Q1440.31 67.5124 1444.24 67.5124 Q1449.51 67.5124 1452.35 65.73 Q1455.18 63.9071 1455.18 60.6258 Q1455.18 57.5877 1453.12 55.9673 Q1451.09 54.3469 1444.16 52.8481 L1441.57 52.2405 Q1434.64 50.7821 1431.56 47.7845 Q1428.49 44.7463 1428.49 39.4801 Q1428.49 33.0797 1433.02 29.5959 Q1437.56 26.1121 1445.9 26.1121 Q1450.04 26.1121 1453.68 26.7198 Q1457.33 27.3274 1460.41 28.5427 Z" fill="#000000" fill-rule="evenodd" fill-opacity="1" /><path clip-path="url(#clip710)" d="M 0 0 M1493.02 12.096 L1544.18 12.096 L1544.18 18.9825 L1522.71 18.9825 L1522.71 72.576 L1514.49 72.576 L1514.49 18.9825 L1493.02 18.9825 L1493.02 12.096 Z" fill="#000000" fill-rule="evenodd" fill-opacity="1" /><path clip-path="url(#clip710)" d="M 0 0 M1549.2 27.2059 L1556.66 27.2059 L1556.66 72.576 L1549.2 72.576 L1549.2 27.2059 M1549.2 9.54393 L1556.66 9.54393 L1556.66 18.9825 L1549.2 18.9825 L1549.2 9.54393 Z" fill="#000000" fill-rule="evenodd" fill-opacity="1" /><path clip-path="url(#clip710)" d="M 0 0 M1607.58 35.9153 Q1610.37 30.8922 1614.26 28.5022 Q1618.15 26.1121 1623.42 26.1121 Q1630.5 26.1121 1634.35 31.0947 Q1638.2 36.0368 1638.2 45.1919 L1638.2 72.576 L1630.71 72.576 L1630.71 45.4349 Q1630.71 38.913 1628.4 35.7533 Q1626.09 32.5936 1621.35 32.5936 Q1615.56 32.5936 1612.19 36.4419 Q1608.83 40.2903 1608.83 46.9338 L1608.83 72.576 L1601.34 72.576 L1601.34 45.4349 Q1601.34 38.8725 1599.03 35.7533 Q1596.72 32.5936 1591.9 32.5936 Q1586.19 32.5936 1582.83 36.4824 Q1579.46 40.3308 1579.46 46.9338 L1579.46 72.576 L1571.97 72.576 L1571.97 27.2059 L1579.46 27.2059 L1579.46 34.2544 Q1582.02 30.082 1585.58 28.0971 Q1589.14 26.1121 1594.05 26.1121 Q1598.99 26.1121 1602.43 28.6237 Q1605.92 31.1352 1607.58 35.9153 Z" fill="#000000" fill-rule="evenodd" fill-opacity="1" /><path clip-path="url(#clip710)" d="M 0 0 M1691.88 48.0275 L1691.88 51.6733 L1657.61 51.6733 Q1658.09 59.3701 1662.22 63.421 Q1666.4 67.4314 1673.81 67.4314 Q1678.1 67.4314 1682.11 66.3781 Q1686.16 65.3249 1690.13 63.2184 L1690.13 70.267 Q1686.12 71.9684 1681.91 72.8596 Q1677.7 73.7508 1673.36 73.7508 Q1662.51 73.7508 1656.15 67.4314 Q1649.83 61.1119 1649.83 50.3365 Q1649.83 39.1965 1655.82 32.6746 Q1661.86 26.1121 1672.07 26.1121 Q1681.22 26.1121 1686.53 32.0264 Q1691.88 37.9003 1691.88 48.0275 M1684.42 45.84 Q1684.34 39.7232 1680.98 36.0774 Q1677.66 32.4315 1672.15 32.4315 Q1665.91 32.4315 1662.14 35.9558 Q1658.42 39.4801 1657.85 45.8805 L1684.42 45.84 Z" fill="#000000" fill-rule="evenodd" fill-opacity="1" /><path clip-path="url(#clip710)" d="M 0 0 M1755.35 17.6457 Q1746.44 17.6457 1741.18 24.2892 Q1735.95 30.9327 1735.95 42.3968 Q1735.95 53.8203 1741.18 60.4638 Q1746.44 67.1073 1755.35 67.1073 Q1764.27 67.1073 1769.45 60.4638 Q1774.68 53.8203 1774.68 42.3968 Q1774.68 30.9327 1769.45 24.2892 Q1764.27 17.6457 1755.35 17.6457 M1755.35 11.0023 Q1768.07 11.0023 1775.69 19.5497 Q1783.3 28.0566 1783.3 42.3968 Q1783.3 56.6965 1775.69 65.2439 Q1768.07 73.7508 1755.35 73.7508 Q1742.59 73.7508 1734.94 65.2439 Q1727.32 56.737 1727.32 42.3968 Q1727.32 28.0566 1734.94 19.5497 Q1742.59 11.0023 1755.35 11.0023 Z" fill="#000000" fill-rule="evenodd" fill-opacity="1" /><path clip-path="url(#clip710)" d="M 0 0 M1818.75 9.54393 L1818.75 15.7418 L1811.62 15.7418 Q1807.61 15.7418 1806.03 17.3622 Q1804.49 18.9825 1804.49 23.1955 L1804.49 27.2059 L1816.77 27.2059 L1816.77 32.9987 L1804.49 32.9987 L1804.49 72.576 L1797 72.576 L1797 32.9987 L1789.87 32.9987 L1789.87 27.2059 L1797 27.2059 L1797 24.0462 Q1797 16.471 1800.52 13.0277 Q1804.05 9.54393 1811.7 9.54393 L1818.75 9.54393 Z" fill="#000000" fill-rule="evenodd" fill-opacity="1" /><path clip-path="url(#clip710)" d="M 0 0 M1847.96 9.54393 L1847.96 15.7418 L1840.83 15.7418 Q1836.82 15.7418 1835.24 17.3622 Q1833.7 18.9825 1833.7 23.1955 L1833.7 27.2059 L1845.97 27.2059 L1845.97 32.9987 L1833.7 32.9987 L1833.7 72.576 L1826.2 72.576 L1826.2 32.9987 L1819.07 32.9987 L1819.07 27.2059 L1826.2 27.2059 L1826.2 24.0462 Q1826.2 16.471 1829.73 13.0277 Q1833.25 9.54393 1840.91 9.54393 L1847.96 9.54393 Z" fill="#000000" fill-rule="evenodd" fill-opacity="1" /><path clip-path="url(#clip710)" d="M 0 0 M1883.12 28.5427 L1883.12 35.5912 Q1879.96 33.9709 1876.56 33.1607 Q1873.15 32.3505 1869.51 32.3505 Q1863.96 32.3505 1861.16 34.0519 Q1858.41 35.7533 1858.41 39.156 Q1858.41 41.7486 1860.39 43.2475 Q1862.38 44.7058 1868.37 46.0426 L1870.93 46.6097 Q1878.87 48.3111 1882.19 51.4303 Q1885.55 54.509 1885.55 60.0587 Q1885.55 66.3781 1880.53 70.0644 Q1875.54 73.7508 1866.79 73.7508 Q1863.15 73.7508 1859.18 73.0216 Q1855.25 72.3329 1850.87 70.9151 L1850.87 63.2184 Q1855.01 65.3654 1859.02 66.4591 Q1863.03 67.5124 1866.96 67.5124 Q1872.22 67.5124 1875.06 65.73 Q1877.89 63.9071 1877.89 60.6258 Q1877.89 57.5877 1875.83 55.9673 Q1873.8 54.3469 1866.87 52.8481 L1864.28 52.2405 Q1857.36 50.7821 1854.28 47.7845 Q1851.2 44.7463 1851.2 39.4801 Q1851.2 33.0797 1855.73 29.5959 Q1860.27 26.1121 1868.62 26.1121 Q1872.75 26.1121 1876.39 26.7198 Q1880.04 27.3274 1883.12 28.5427 Z" fill="#000000" fill-rule="evenodd" fill-opacity="1" /><path clip-path="url(#clip710)" d="M 0 0 M1936.23 48.0275 L1936.23 51.6733 L1901.96 51.6733 Q1902.44 59.3701 1906.57 63.421 Q1910.75 67.4314 1918.16 67.4314 Q1922.45 67.4314 1926.46 66.3781 Q1930.51 65.3249 1934.48 63.2184 L1934.48 70.267 Q1930.47 71.9684 1926.26 72.8596 Q1922.05 73.7508 1917.71 73.7508 Q1906.86 73.7508 1900.5 67.4314 Q1894.18 61.1119 1894.18 50.3365 Q1894.18 39.1965 1900.17 32.6746 Q1906.21 26.1121 1916.42 26.1121 Q1925.57 26.1121 1930.88 32.0264 Q1936.23 37.9003 1936.23 48.0275 M1928.77 45.84 Q1928.69 39.7232 1925.33 36.0774 Q1922.01 32.4315 1916.5 32.4315 Q1910.26 32.4315 1906.49 35.9558 Q1902.77 39.4801 1902.2 45.8805 L1928.77 45.84 Z" fill="#000000" fill-rule="evenodd" fill-opacity="1" /><path clip-path="url(#clip710)" d="M 0 0 M1955.83 14.324 L1955.83 27.2059 L1971.19 27.2059 L1971.19 32.9987 L1955.83 32.9987 L1955.83 57.6282 Q1955.83 63.1779 1957.33 64.7578 Q1958.87 66.3376 1963.53 66.3376 L1971.19 66.3376 L1971.19 72.576 L1963.53 72.576 Q1954.9 72.576 1951.62 69.3758 Q1948.34 66.1351 1948.34 57.6282 L1948.34 32.9987 L1942.87 32.9987 L1942.87 27.2059 L1948.34 27.2059 L1948.34 14.324 L1955.83 14.324 Z" fill="#000000" fill-rule="evenodd" fill-opacity="1" /><polyline clip-path="url(#clip713)" style="stroke:#009af9; stroke-width:4; stroke-opacity:1; fill:none" points="
  311.14,158.575 313.03,795.793 314.921,1120.96 316.812,850.814 318.703,1103.4 320.594,1127.97 322.485,996.825 324.376,1168.8 326.266,1233.65 328.157,1082.51 
  330.048,1097.15 331.939,1252.82 333.83,1206.59 335.721,1189.9 337.611,1268.89 339.502,1249.77 341.393,1256.56 343.284,1293 345.175,1292 347.066,1280.45 
  348.956,1256.25 350.847,1227.93 352.738,1208.71 354.629,1212.1 356.52,1225.04 358.411,1242.77 360.301,1202.62 362.192,1082.51 364.083,1142.52 365.974,1252.97 
  367.865,1188.53 369.756,1187.13 371.646,1169.95 373.537,1130.65 375.428,1189.96 377.319,1248.14 379.21,1193.28 381.101,1016.01 382.992,1085.37 384.882,1180.02 
  386.773,1076.14 388.664,1188.51 390.555,1242.29 392.446,1174.33 394.337,1260.47 396.227,1255.46 398.118,1220.5 400.009,1284.11 401.9,1277.88 403.791,1236.53 
  405.682,1259.93 407.572,1303.75 409.463,1285.38 411.354,1246.96 413.245,1230.54 415.136,1198.25 417.027,1243.26 418.917,1211.7 420.808,1096.56 422.699,1130.52 
  424.59,1072.76 426.481,1039.62 428.372,1172.11 430.262,1177.77 432.153,1082.35 434.044,1056.34 435.935,1072.9 437.826,990.789 439.717,1081.57 441.608,1052.45 
  443.498,748.566 445.389,968.476 447.28,1137.73 449.171,1034.07 451.062,1210.02 452.953,1145.25 454.843,1074.14 456.734,1234.06 458.625,1208.55 460.516,1164.71 
  462.407,1219.26 464.298,1265.92 466.188,1247.94 468.079,1254.98 469.97,1325.55 471.861,1288.47 473.752,1260.53 475.643,1303.84 477.533,1232.32 479.424,1226.72 
  481.315,1276.97 483.206,1139.23 485.097,1087.15 486.988,1187.38 488.878,1190.75 490.769,1193.01 492.66,1225.83 494.551,1146.7 496.442,1114.61 498.333,1196.81 
  500.224,1200.26 502.114,1185.76 504.005,1171.38 505.896,1163.41 507.787,1173.56 509.678,1123.22 511.569,1107.76 513.459,1087.51 515.35,1130.05 517.241,1202.93 
  519.132,1159.24 521.023,1215.13 522.914,1256.62 524.804,1205.23 526.695,1249.74 528.586,1217.5 530.477,1152.09 532.368,1244.08 534.259,1270.77 536.149,1213.05 
  538.04,1248.84 539.931,1274.59 541.822,1223.59 543.713,1202.47 545.604,1200.86 547.494,1058.35 549.385,1086.88 551.276,1201.62 553.167,920.314 555.058,919.46 
  556.949,1066.84 558.84,825.279 560.73,893.089 562.621,1077.96 564.512,1055.47 566.403,1128.98 568.294,1121.61 570.185,988.634 572.075,1045.5 573.966,1200.15 
  575.857,1127.69 577.748,1122.4 579.639,1211.94 581.53,1188.39 583.42,1251.29 585.311,1217.81 587.202,1145.34 589.093,1229.07 590.984,1256.47 592.875,1271.14 
  594.765,1272.97 596.656,1219.62 598.547,1235.15 600.438,1256.36 602.329,1267.57 604.22,1255.17 606.11,1199.67 608.001,1235.23 609.892,1213.47 611.783,1154.87 
  613.674,1190.14 615.565,1147.61 617.456,1176.93 619.346,1226.05 621.237,1141.85 623.128,1139.61 625.019,1161.14 626.91,1133.57 628.801,1119.25 630.691,1060.18 
  632.582,1003.09 634.473,1115.09 636.364,1218.87 638.255,1124.06 640.146,1123.33 642.036,1241.84 643.927,1243.68 645.818,1203.59 647.709,1239.54 649.6,1254.15 
  651.491,1218.35 653.381,1270.65 655.272,1296.12 657.163,1217.34 659.054,1239.19 660.945,1215.35 662.836,1076.3 664.726,1181.57 666.617,1246.77 668.508,1116.48 
  670.399,1190.57 672.29,1192.73 674.181,1083.95 676.072,1134.79 677.962,1189.64 679.853,1062.64 681.744,925.132 683.635,1033.62 685.526,933.751 687.417,885.034 
  689.307,1113.94 691.198,964.144 693.089,986.706 694.98,1166.81 696.871,1054.86 698.762,1142.65 700.652,1164.5 702.543,1055.47 704.434,1165.66 706.325,1255.42 
  708.216,1232.12 710.107,1243.56 711.997,1282.68 713.888,1281.78 715.779,1311.03 717.67,1324.17 719.561,1278.38 721.452,1301.59 723.342,1318.55 725.233,1280.57 
  727.124,1255.86 729.015,1236.38 730.906,1242.62 732.797,1191.19 734.688,1159.56 736.578,1198.65 738.469,1128.86 740.36,1174.21 742.251,1221.01 744.142,1101.01 
  746.033,1157.83 747.923,1196.23 749.814,1185.85 751.705,1228.12 753.596,1158.66 755.487,1138.53 757.378,1158.7 759.268,1169.53 761.159,1142.72 763.05,1071.14 
  764.941,1101.72 766.832,1172.24 768.723,1203.56 770.613,1163.24 772.504,1149.21 774.395,1237.92 776.286,1266.29 778.177,1249.02 780.068,1267.74 781.958,1256.31 
  783.849,1246.21 785.74,1280.81 787.631,1264.16 789.522,1190.82 791.413,1239.4 793.304,1260.49 795.194,1063.44 797.085,1122.49 798.976,1204.74 800.867,996.43 
  802.758,1129.85 804.649,1049.11 806.539,703.738 808.43,955.647 810.321,1131.61 812.212,938.955 814.103,910.754 815.994,1067.8 817.884,1009.51 819.775,907.847 
  821.666,1129.98 823.557,1034.74 825.448,946.28 827.339,1206.21 829.229,1108.39 831.12,1055.69 833.011,1188.44 834.902,1148.33 836.793,1174.78 838.684,1247.22 
  840.574,1285.24 842.465,1309.63 844.356,1302.11 846.247,1298.48 848.138,1292.79 850.029,1288.49 851.92,1286.83 853.81,1301.22 855.701,1281.26 857.592,1210.83 
  859.483,1211.24 861.374,1237.52 863.265,1207.45 865.155,1147.84 867.046,1156.6 868.937,1194.42 870.828,1095.33 872.719,1118.24 874.61,1092.92 876.5,917.724 
  878.391,1123.41 880.282,1149.66 882.173,928.108 884.064,1105.26 885.955,1174.23 887.845,1062.48 889.736,1141.41 891.627,1228 893.518,1179.49 895.409,1160.15 
  897.3,1224.61 899.19,1152.79 901.081,1140.38 902.972,1274 904.863,1241.26 906.754,1194.44 908.645,1251.13 910.536,1233.48 912.426,1242.74 914.317,1285.23 
  916.208,1242.55 918.099,1223.77 919.99,1230.79 921.881,1205.84 923.771,1209.69 925.662,1250.84 927.553,1202.44 929.444,1181.31 931.335,1205.47 933.226,1070.63 
  935.116,1096.52 937.007,997.963 938.898,747.461 940.789,1007.86 942.68,1097.32 944.571,974.346 946.461,1121.62 948.352,1111.81 950.243,1088.61 952.134,1171.83 
  954.025,1219.53 955.916,1166.59 957.806,1109.71 959.697,1205.29 961.588,1193.86 963.479,1198.49 965.37,1292.53 967.261,1261.14 969.152,1261.31 971.042,1294.25 
  972.933,1295.89 974.824,1300.65 976.715,1274.07 978.606,1271.62 980.497,1255.15 982.387,1202.77 984.278,1207.99 986.169,1204.25 988.06,1155.58 989.951,1127.83 
  991.842,1156.56 993.732,1200.71 995.623,1184.29 997.514,1176.36 999.405,1211.09 1001.3,1197.53 1003.19,1144.64 1005.08,1181.86 1006.97,1051.95 1008.86,828.636 
  1010.75,1058.55 1012.64,1111.03 1014.53,920.206 1016.42,1162.21 1018.31,1180.5 1020.2,1019.81 1022.09,1178.26 1023.99,1215.24 1025.88,1163.03 1027.77,1228.46 
  1029.66,1237.57 1031.55,1167.09 1033.44,1179.88 1035.33,1279.75 1037.22,1250.31 1039.11,1192.23 1041,1276.56 1042.89,1241.79 1044.79,1211.39 1046.68,1266.84 
  1048.57,1084.45 1050.46,1069.73 1052.35,1223.92 1054.24,1100.37 1056.13,1030.09 1058.02,1128.41 1059.91,1141.34 1061.8,1110.62 1063.69,1180.1 1065.58,1104.4 
  1067.48,997.208 1069.37,1121.35 1071.26,1037.4 1073.15,976.039 1075.04,1158.65 1076.93,1193.64 1078.82,1175.73 1080.71,1171.46 1082.6,1181.51 1084.49,1201.36 
  1086.38,1226.92 1088.27,1269.78 1090.17,1218.14 1092.06,1216.91 1093.95,1272.53 1095.84,1287.48 1097.73,1297.93 1099.62,1246.88 1101.51,1242.42 1103.4,1285.66 
  1105.29,1259.2 1107.18,1256.04 1109.07,1202.38 1110.96,1154.25 1112.86,1226.76 1114.75,1191.73 1116.64,1117.32 1118.53,1087.52 1120.42,1059.06 1122.31,1068.34 
  1124.2,1029.99 1126.09,1083.87 1127.98,1180.09 1129.87,1164.4 1131.76,1181.94 1133.65,1158.48 1135.55,1079.7 1137.44,1157.76 1139.33,1179.38 1141.22,961.388 
  1143.11,1004.15 1145,1205.45 1146.89,1140.02 1148.78,1171.85 1150.67,1228.56 1152.56,1161.68 1154.45,1226.35 1156.34,1223.54 1158.24,1131.27 1160.13,1195.34 
  1162.02,1273.8 1163.91,1242.19 1165.8,1238.16 1167.69,1279 1169.58,1226.59 1171.47,1167.69 1173.36,1275.26 1175.25,1227.54 1177.14,1133.02 1179.03,1221.95 
  1180.93,979.998 1182.82,930.976 1184.71,1159.46 1186.6,957.728 1188.49,996.639 1190.38,1156.96 1192.27,1038.49 1194.16,1079.47 1196.05,1107.15 1197.94,1064.39 
  1199.83,1070.35 1201.72,1129.91 1203.62,1165.78 1205.51,1142.94 1207.4,1219.68 1209.29,1247.28 1211.18,1221.45 1213.07,1260.33 1214.96,1289.1 1216.85,1301.68 
  1218.74,1304.8 1220.63,1293.56 1222.52,1232.52 1224.41,1226.63 1226.31,1290.45 1228.2,1251.57 1230.09,1241.55 1231.98,1243.81 1233.87,1155.71 1235.76,1198.7 
  1237.65,1240.87 1239.54,1174.52 1241.43,1164.83 1243.32,1189.4 1245.21,1207.63 1247.1,1184.86 1249,1185.12 1250.89,1053.88 1252.78,951.253 1254.67,1123.06 
  1256.56,993.544 1258.45,864.109 1260.34,1092.52 1262.23,1122.02 1264.12,1105.94 1266.01,1125.51 1267.9,1084.84 1269.79,1166.53 1271.69,1200.07 1273.58,1138.18 
  1275.47,1173.1 1277.36,1246.62 1279.25,1239.98 1281.14,1255.66 1283.03,1293.74 1284.92,1278.27 1286.81,1294.17 1288.7,1284.73 1290.59,1191.78 1292.48,1197.75 
  1294.38,1246.46 1296.27,1196.18 1298.16,1207.59 1300.05,1264.11 1301.94,1227.39 1303.83,1151.21 1305.72,1214.47 1307.61,1155.53 1309.5,909.546 1311.39,1064.29 
  1313.28,1050.04 1315.17,803.429 1317.07,1062.62 1318.96,1125.36 1320.85,1033.05 1322.74,1111.98 1324.63,1075.45 1326.52,1120.54 1328.41,1088.01 1330.3,1090.62 
  1332.19,1148.75 1334.08,1043.02 1335.97,1120.47 1337.87,1250.39 1339.76,1237.57 1341.65,1242.4 1343.54,1269.57 1345.43,1296.18 1347.32,1297.05 1349.21,1310.38 
  1351.1,1313.62 1352.99,1276.3 1354.88,1266.28 1356.77,1266.73 1358.66,1216.69 1360.56,1127.93 1362.45,1175.96 1364.34,1206.1 1366.23,1020.04 1368.12,1047.02 
  1370.01,1142.11 1371.9,1044.62 1373.79,1135.71 1375.68,1207.95 1377.57,1093.2 1379.46,1091.09 1381.35,1200.95 1383.25,1036.47 1385.14,817.538 1387.03,1091.81 
  1388.92,1119.27 1390.81,925.291 1392.7,1136.05 1394.59,1117.26 1396.48,1057.95 1398.37,1197.21 1400.26,1115.18 1402.15,1110.43 1404.04,1222.18 1405.94,1216.81 
  1407.83,1208.81 1409.72,1254.32 1411.61,1292.36 1413.5,1298.09 1415.39,1309.4 1417.28,1301.41 1419.17,1259.95 1421.06,1272.31 1422.95,1267.37 1424.84,1246.24 
  1426.73,1269.03 1428.63,1209.89 1430.52,1190.49 1432.41,1197.83 1434.3,1164.84 1436.19,1162.76 1438.08,1099.1 1439.97,1109.61 1441.86,1102.46 1443.75,1059.58 
  1445.64,1064.3 1447.53,1033.39 1449.42,1170.21 1451.32,1205.39 1453.21,1141.45 1455.1,1173.17 1456.99,1084.54 1458.88,1126.84 1460.77,1177.39 1462.66,1138.91 
  1464.55,1213.32 1466.44,1212.82 1468.33,1229.7 1470.22,1244.08 1472.11,1196.88 1474.01,1263.36 1475.9,1292.39 1477.79,1253.42 1479.68,1268.59 1481.57,1274.33 
  1483.46,1254.7 1485.35,1238 1487.24,1238.87 1489.13,1222.01 1491.02,1163.84 1492.91,1129.77 1494.8,1156.92 1496.7,1139.62 1498.59,1023.5 1500.48,1041.56 
  1502.37,1031.05 1504.26,955.209 1506.15,1128.99 1508.04,1018.14 1509.93,824.199 1511.82,1096.1 1513.71,1136.97 1515.6,932.909 1517.49,1003.43 1519.39,1176.36 
  1521.28,1120.44 1523.17,1084.05 1525.06,1228.55 1526.95,1116.2 1528.84,1074.87 1530.73,1251.36 1532.62,1171.07 1534.51,1150.45 1536.4,1284.12 1538.29,1261.3 
  1540.18,1231.13 1542.08,1251.99 1543.97,1232.85 1545.86,1245.73 1547.75,1293.9 1549.64,1307.74 1551.53,1212.18 1553.42,1179.13 1555.31,1265.3 1557.2,1182.32 
  1559.09,1153.51 1560.98,1203.63 1562.87,1138.13 1564.77,1167.78 1566.66,1167.46 1568.55,1094.73 1570.44,1029.68 1572.33,1015.96 1574.22,1098.27 1576.11,1129.42 
  1578,1141.57 1579.89,1134.86 1581.78,1165.86 1583.67,1184.13 1585.56,1111.8 1587.46,1171.72 1589.35,1250.53 1591.24,1249.69 1593.13,1230.83 1595.02,1198.82 
  1596.91,1239.58 1598.8,1263.82 1600.69,1268.32 1602.58,1275.76 1604.47,1241.17 1606.36,1276.79 1608.25,1251.66 1610.15,1146.6 1612.04,1175.32 1613.93,1163.77 
  1615.82,1121.49 1617.71,1156.17 1619.6,1123.19 1621.49,1122.38 1623.38,1178.59 1625.27,1187.25 1627.16,1150.49 1629.05,1120.41 1630.95,1087.65 1632.84,1061.71 
  1634.73,1052.16 1636.62,956.756 1638.51,1043.55 1640.4,1181.66 1642.29,1062.83 1644.18,1069.83 1646.07,1128.79 1647.96,1120.25 1649.85,1198.54 1651.74,1238.24 
  1653.64,1217.34 1655.53,1192.58 1657.42,1233.79 1659.31,1242.51 1661.2,1199.4 1663.09,1234.04 1664.98,1213.55 1666.87,1194.07 1668.76,1290.15 1670.65,1295.22 
  1672.54,1276.79 1674.43,1294.42 1676.33,1206.47 1678.22,1227.94 1680.11,1222.04 1682,1119 1683.89,1148.94 1685.78,1065.89 1687.67,1039.59 1689.56,1136.49 
  1691.45,1154.93 1693.34,1147.6 1695.23,1055.61 1697.12,1113.18 1699.02,1173.4 1700.91,1130.82 1702.8,1184.32 1704.69,1053.13 1706.58,976.826 1708.47,1150.5 
  1710.36,1216.65 1712.25,1198.04 1714.14,1230.29 1716.03,1240.19 1717.92,1184.12 1719.81,1204.29 1721.71,1284.08 1723.6,1290.73 1725.49,1286.19 1727.38,1270.15 
  1729.27,1227.19 1731.16,1208.53 1733.05,1234.88 1734.94,1241.23 1736.83,1159.64 1738.72,1184.11 1740.61,1203.24 1742.5,1090.45 1744.4,1131.57 1746.29,1041.04 
  1748.18,953.21 1750.07,1138.11 1751.96,1045.51 1753.85,1014.18 1755.74,1161.63 1757.63,1039.44 1759.52,1021.11 1761.41,1157.53 1763.3,1172.74 1765.19,1108.15 
  1767.09,1090.72 1768.98,1022.57 1770.87,1001.38 1772.76,1198.52 1774.65,1187.48 1776.54,1081.64 1778.43,1184.38 1780.32,1231.19 1782.21,1245.85 1784.1,1271.15 
  1785.99,1238.69 1787.88,1226.11 1789.78,1258.22 1791.67,1284.11 1793.56,1268.54 1795.45,1277.32 1797.34,1303.55 1799.23,1270.43 1801.12,1291.83 1803.01,1309.86 
  1804.9,1241.34 1806.79,1225.5 1808.68,1153.68 1810.57,1127.59 1812.47,1138.74 1814.36,1109.75 1816.25,1165.04 1818.14,934.222 1820.03,851.554 1821.92,1095.63 
  1823.81,1045.09 1825.7,1112.43 1827.59,1106.33 1829.48,844.155 1831.37,959.929 1833.26,1167.83 1835.16,1157.52 1837.05,1092.73 1838.94,1138.96 1840.83,1248.98 
  1842.72,1242.07 1844.61,1243.89 1846.5,1264.82 1848.39,1251.18 1850.28,1268.02 1852.17,1291.96 1854.06,1290.5 1855.95,1245.91 1857.85,1243.76 1859.74,1235.47 
  1861.63,1136.34 1863.52,1142.71 1865.41,1212.79 1867.3,1172.9 1869.19,1115.29 1871.08,1167.68 1872.97,1182.67 1874.86,1120.95 1876.75,1221.69 1878.64,1002.82 
  1880.54,709.745 1882.43,1050.39 1884.32,1073.99 1886.21,912.205 1888.1,1126.05 1889.99,1076.96 1891.88,1053.78 1893.77,1152.9 1895.66,1138.65 1897.55,1132.21 
  1899.44,1101.74 1901.33,1155.08 1903.23,1149.52 1905.12,1123.55 1907.01,1201.8 1908.9,1220.84 1910.79,1248.89 1912.68,1281.67 1914.57,1277.28 1916.46,1300.3 
  1918.35,1312.41 1920.24,1303.22 1922.13,1292.13 1924.03,1282.46 1925.92,1310.86 1927.81,1328.69 1929.7,1288.23 1931.59,1221.61 1933.48,1213.85 1935.37,1258.47 
  1937.26,1215.38 1939.15,1181.37 1941.04,1112.04 1942.93,1046.01 1944.82,1166.17 1946.72,1207.88 1948.61,1175.01 1950.5,1080.87 1952.39,1034.79 1954.28,1135.8 
  1956.17,1052.72 1958.06,1105.62 1959.95,1180.43 1961.84,1005.42 1963.73,1092.9 1965.62,1201.86 1967.51,1140.53 1969.41,1190.58 1971.3,1253.02 1973.19,1270.19 
  1975.08,1278.07 1976.97,1297.2 1978.86,1268.39 1980.75,1217.63 1982.64,1261.96 1984.53,1254.64 1986.42,1182.87 1988.31,1170.97 1990.2,1174.53 1992.1,1150.55 
  1993.99,1067.75 1995.88,1076.94 1997.77,1165.23 1999.66,1163.24 2001.55,1175.86 2003.44,1145.85 2005.33,1062.9 2007.22,1095.34 2009.11,1193.55 2011,1004.08 
  2012.89,792.289 2014.79,1090.04 2016.68,1081.23 2018.57,883.018 2020.46,1158.03 2022.35,1120.73 2024.24,1051.37 2026.13,1201.55 2028.02,1080.4 2029.91,1062.05 
  2031.8,1142.53 2033.69,1148.03 2035.58,1157.82 2037.48,1155.66 2039.37,1225.39 2041.26,1291.24 2043.15,1310.27 2045.04,1325.1 2046.93,1303.57 2048.82,1305.46 
  2050.71,1320.35 2052.6,1278.85 2054.49,1236.3 2056.38,1186.57 2058.27,1218.58 2060.17,1268.57 2062.06,1174.46 2063.95,1122.28 2065.84,1048.29 2067.73,998.867 
  2069.62,1086.76 2071.51,1078.51 2073.4,1075 2075.29,1137.33 2077.18,1134.88 2079.07,1069.67 2080.96,1019.48 2082.86,1051.14 2084.75,1146.7 2086.64,1195.36 
  2088.53,1104.74 2090.42,1129.14 2092.31,1217.07 2094.2,1166.41 2096.09,1198.24 2097.98,1201.26 2099.87,1181.19 2101.76,1281.39 2103.65,1240.56 2105.55,1166.08 
  2107.44,1227.24 2109.33,1240.63 2111.22,1223.86 2113.11,1236.6 2115,1242.38 2116.89,1200.99 2118.78,1176.28 2120.67,1204.89 2122.56,1120.16 2124.45,1118.11 
  2126.34,1169.04 2128.24,1036.21 2130.13,1062.08 2132.02,1182.2 2133.91,1178.34 2135.8,1156.01 2137.69,1143.33 2139.58,1107.94 2141.47,1038.62 2143.36,1102.88 
  2145.25,1137.3 2147.14,1109.5 2149.03,1173.15 2150.93,1176.91 2152.82,1197.69 2154.71,1181.86 2156.6,1156.84 2158.49,1187.81 2160.38,1156.07 2162.27,1217.22 
  2164.16,1270.16 2166.05,1248.24 2167.94,1275.42 2169.83,1251.97 2171.72,1259.54 2173.62,1326.05 2175.51,1303.52 2177.4,1294.82 2179.29,1272.29 2181.18,1179.96 
  2183.07,1189.4 2184.96,1214.87 2186.85,1233.5 2188.74,1190.21 2190.63,1109.29 2192.52,1174.6 2194.41,1137.37 2196.31,1128.53 2198.2,1083.91 2200.09,840.046 
  
  "/>
</svg>
